  0
SECTION
  2
BLOCKS
  0
ENDSEC
  0
SECTION
  2
ENTITIES
  0
LINE
  8
0
 10
51.23315482315904
 20
-9.565321268779268
 11
51.526808508304576
 21
-8.373921434598472
  0
LINE
  8
0
 10
51.526808508304576
 20
-8.373921434598472
 11
51.62554548193738
 21
-7.150844551600828
  0
LINE
  8
0
 10
51.62554548193738
 20
-7.150844551600828
 11
51.36974750389238
 21
-6.997268273155127
  0
LINE
  8
0
 10
51.36974750389238
 20
-6.997268273155127
 11
50.522116697331306
 21
-6.548416171151454
  0
LINE
  8
0
 10
50.522116697331306
 20
-6.548416171151454
 11
49.77772577343656
 21
-6.20404983883502
  0
LINE
  8
0
 10
49.77772577343656
 20
-6.20404983883502
 11
49.14498407107448
 21
-5.9516237700791
  0
LINE
  8
0
 10
49.14498407107448
 20
-5.9516237700791
 11
48.6312432906134
 21
-5.77801070820155
  0
LINE
  8
0
 10
48.6312432906134
 20
-5.77801070820155
 11
48.24276036031147
 21
-5.669579442988206
  0
LINE
  8
0
 10
48.24276036031147
 20
-5.669579442988206
 11
47.98466562644778
 21
-5.612274858584124
  0
LINE
  8
0
 10
47.98466562644778
 20
-5.612274858584124
 11
47.6616942205828
 21
-5.558567792265383
  0
LINE
  8
0
 10
47.6616942205828
 20
-5.558567792265383
 11
47.22302388667307
 21
-5.443168101893608
  0
LINE
  8
0
 10
47.22302388667307
 20
-5.443168101893608
 11
46.934369514263764
 21
-5.30438843003881
  0
LINE
  8
0
 10
46.934369514263764
 20
-5.30438843003881
 11
46.7965633686359
 21
-5.158000751947157
  0
LINE
  8
0
 10
46.7965633686359
 20
-5.158000751947157
 11
47.017961670849004
 21
-2.415490672808259
  0
LINE
  8
0
 10
47.017961670849004
 20
-2.415490672808259
 11
47.17746549802862
 21
-2.293104337031601
  0
LINE
  8
0
 10
47.17746549802862
 20
-2.293104337031601
 11
47.484643697045875
 21
-2.2024252430808846
  0
LINE
  8
0
 10
47.484643697045875
 20
-2.2024252430808846
 11
47.93614477748613
 21
-2.158887618528371
  0
LINE
  8
0
 10
47.93614477748613
 20
-2.158887618528371
 11
48.263549007769235
 21
-2.1576843015081573
  0
LINE
  8
0
 10
48.263549007769235
 20
-2.1576843015081573
 11
48.52749378439732
 21
-2.142523103263701
  0
LINE
  8
0
 10
48.52749378439732
 20
-2.142523103263701
 11
48.92833956092074
 21
-2.097813038897598
  0
LINE
  8
0
 10
48.92833956092074
 20
-2.097813038897598
 11
49.463277026831975
 21
-2.0088580371966187
  0
LINE
  8
0
 10
49.463277026831975
 20
-2.0088580371966187
 11
50.128316879341554
 21
-1.861199726662468
  0
LINE
  8
0
 10
50.128316879341554
 20
-1.861199726662468
 11
50.91830838072814
 21
-1.6407015494667694
  0
LINE
  8
0
 10
50.91830838072814
 20
-1.6407015494667694
 11
51.82696353156251
 21
-1.3336315076733651
  0
LINE
  8
0
 10
51.82696353156251
 20
-1.3336315076733651
 11
52.104084360508814
 21
-1.2230768829976428
  0
LINE
  8
0
 10
52.104084360508814
 20
-1.2230768829976428
 11
52.20282133414163
 21
2.6645352591003757e-15
  0
LINE
  8
0
 10
52.20282133414163
 20
2.6645352591003757e-15
 11
52.10408436050883
 21
1.223076882997645
  0
LINE
  8
0
 10
52.10408436050883
 20
1.223076882997645
 11
51.82696353156242
 21
1.3336315076734029
  0
LINE
  8
0
 10
51.82696353156242
 20
1.3336315076734029
 11
50.91830838072822
 21
1.6407015494667516
  0
LINE
  8
0
 10
50.91830838072822
 20
1.6407015494667516
 11
50.12831687934147
 21
1.8611997266624942
  0
LINE
  8
0
 10
50.12831687934147
 20
1.8611997266624942
 11
49.46327702683199
 21
2.0088580371966613
  0
LINE
  8
0
 10
49.46327702683199
 20
2.0088580371966613
 11
48.92833956092066
 21
2.0978130388976406
  0
LINE
  8
0
 10
48.92833956092066
 20
2.0978130388976406
 11
48.5274937843979
 21
2.142523103263525
  0
LINE
  8
0
 10
48.5274937843979
 20
2.142523103263525
 11
48.26354900776899
 21
2.1576843015082123
  0
LINE
  8
0
 10
48.26354900776899
 20
2.1576843015082123
 11
47.93614477748613
 21
2.158887618528405
  0
LINE
  8
0
 10
47.93614477748613
 20
2.158887618528405
 11
47.48464369704595
 21
2.202425243081438
  0
LINE
  8
0
 10
47.48464369704595
 20
2.202425243081438
 11
47.17746549802851
 21
2.2931043370311506
  0
LINE
  8
0
 10
47.17746549802851
 20
2.2931043370311506
 11
47.017961670848926
 21
2.4154906728082333
  0
LINE
  8
0
 10
47.017961670848926
 20
2.4154906728082333
 11
46.79656336863597
 21
5.158000751947143
  0
LINE
  8
0
 10
46.79656336863597
 20
5.158000751947143
 11
46.93436951426394
 21
5.304388430038381
  0
LINE
  8
0
 10
46.93436951426394
 20
5.304388430038381
 11
47.22302388667291
 21
5.443168101894142
  0
LINE
  8
0
 10
47.22302388667291
 20
5.443168101894142
 11
47.661694220582795
 21
5.558567792265415
  0
LINE
  8
0
 10
47.661694220582795
 20
5.558567792265415
 11
47.98466562644801
 21
5.612274858584217
  0
LINE
  8
0
 10
47.98466562644801
 20
5.612274858584217
 11
48.24276036031093
 21
5.669579442987939
  0
LINE
  8
0
 10
48.24276036031093
 20
5.669579442987939
 11
48.63124329061347
 21
5.778010708201604
  0
LINE
  8
0
 10
48.63124329061347
 20
5.778010708201604
 11
49.14498407107446
 21
5.951623770079137
  0
LINE
  8
0
 10
49.14498407107446
 20
5.951623770079137
 11
49.77772577343664
 21
6.204049838835059
  0
LINE
  8
0
 10
49.77772577343664
 20
6.204049838835059
 11
50.52211669733123
 21
6.5484161711514215
  0
LINE
  8
0
 10
50.52211669733123
 20
6.5484161711514215
 11
51.369747503892455
 21
6.99726827315518
  0
LINE
  8
0
 10
51.369747503892455
 20
6.99726827315518
 11
51.62554548193736
 21
7.150844551600828
  0
LINE
  8
0
 10
51.62554548193736
 20
7.150844551600828
 11
51.52680850830453
 21
8.373921434598476
  0
LINE
  8
0
 10
51.52680850830453
 20
8.373921434598476
 11
51.23315482315903
 21
9.565321268779197
  0
LINE
  8
0
 10
51.23315482315903
 20
9.565321268779197
 11
50.941888427216064
 21
9.629990932977584
  0
LINE
  8
0
 10
50.941888427216064
 20
9.629990932977584
 11
49.99574262322076
 21
9.78732596177463
  0
LINE
  8
0
 10
49.99574262322076
 20
9.78732596177463
 11
49.180610909264466
 21
9.878245196882673
  0
LINE
  8
0
 10
49.180610909264466
 20
9.878245196882673
 11
48.500497089458236
 21
9.917311476513593
  0
LINE
  8
0
 10
48.500497089458236
 20
9.917311476513593
 11
47.95821753747403
 21
9.91930453021986
  0
LINE
  8
0
 10
47.95821753747403
 20
9.91930453021986
 11
47.55539060978778
 21
9.899135426556326
  0
LINE
  8
0
 10
47.55539060978778
 20
9.899135426556326
 11
47.29243182146455
 21
9.871760571570892
  0
LINE
  8
0
 10
47.29243182146455
 20
9.871760571570892
 11
46.969074364350604
 21
9.820428974013787
  0
LINE
  8
0
 10
46.969074364350604
 20
9.820428974013787
 11
46.516436178200756
 21
9.790976931141415
  0
LINE
  8
0
 10
46.516436178200756
 20
9.790976931141415
 11
46.198689906576455
 21
9.83120690628428
  0
LINE
  8
0
 10
46.198689906576455
 20
9.83120690628428
 11
46.021619463185615
 21
9.926422157936752
  0
LINE
  8
0
 10
46.021619463185615
 20
9.926422157936752
 11
45.36315865627874
 21
12.597902666600222
  0
LINE
  8
0
 10
45.36315865627874
 20
12.597902666600222
 11
45.475698013569534
 21
12.764500323037387
  0
LINE
  8
0
 10
45.475698013569534
 20
12.764500323037387
 11
45.738352562747984
 21
12.947786252194733
  0
LINE
  8
0
 10
45.738352562747984
 20
12.947786252194733
 11
46.15283081890215
 21
13.132059217020817
  0
LINE
  8
0
 10
46.15283081890215
 20
13.132059217020817
 11
46.46300461058664
 21
13.236879047831573
  0
LINE
  8
0
 10
46.46300461058664
 20
13.236879047831573
 11
46.70856478364828
 21
13.33484285975922
  0
LINE
  8
0
 10
46.70856478364828
 20
13.33484285975922
 11
47.07462336389579
 21
13.504187013007733
  0
LINE
  8
0
 10
47.07462336389579
 20
13.504187013007733
 11
47.5538618425482
 21
13.757961647953938
  0
LINE
  8
0
 10
47.5538618425482
 20
13.757961647953938
 11
48.13791771703573
 21
14.108617772344164
  0
LINE
  8
0
 10
48.13791771703573
 20
14.108617772344164
 11
48.81742872952
 21
14.567933352661507
  0
LINE
  8
0
 10
48.81742872952
 20
14.567933352661507
 11
49.582081999158135
 21
15.146942481204878
  0
LINE
  8
0
 10
49.582081999158135
 20
15.146942481204878
 11
49.80993209303479
 21
15.339562868478623
  0
LINE
  8
0
 10
49.80993209303479
 20
15.339562868478623
 11
49.516278407889274
 21
16.530962702659355
  0
LINE
  8
0
 10
49.516278407889274
 20
16.530962702659355
 11
49.03531348742717
 21
17.659828858131412
  0
LINE
  8
0
 10
49.03531348742717
 20
17.659828858131412
 11
48.73744517114732
 21
17.676938651519087
  0
LINE
  8
0
 10
48.73744517114732
 20
17.676938651519087
 11
47.77831339332687
 21
17.68046377271827
  0
LINE
  8
0
 10
47.77831339332687
 20
17.68046377271827
 11
46.95915295002353
 21
17.639449305306997
  0
LINE
  8
0
 10
46.95915295002353
 20
17.639449305306997
 11
46.28157975360617
 21
17.568911757912797
  0
LINE
  8
0
 10
46.28157975360617
 20
17.568911757912797
 11
45.74600287109916
 21
17.48389124458026
  0
LINE
  8
0
 10
45.74600287109916
 20
17.48389124458026
 11
45.35162779808123
 21
17.399365342077846
  0
LINE
  8
0
 10
45.35162779808123
 20
17.399365342077846
 11
45.09646549255535
 21
17.330163428227067
  0
LINE
  8
0
 10
45.09646549255535
 20
17.330163428227067
 11
44.78552959689771
 21
17.227626377506144
  0
LINE
  8
0
 10
44.78552959689771
 20
17.227626377506144
 11
44.34347739629959
 21
17.12594745964832
  0
LINE
  8
0
 10
44.34347739629959
 20
17.12594745964832
 11
44.02339251359907
 21
17.114686380759967
  0
LINE
  8
0
 10
44.02339251359907
 20
17.114686380759967
 11
43.833341485469965
 21
17.180264523284297
  0
LINE
  8
0
 10
43.833341485469965
 20
17.180264523284297
 11
42.754871962894505
 21
19.711525519562077
  0
LINE
  8
0
 10
42.754871962894505
 20
19.711525519562077
 11
42.839229821608505
 21
19.894018362553165
  0
LINE
  8
0
 10
42.839229821608505
 20
19.894018362553165
 11
43.06908193269881
 21
20.117063539722594
  0
LINE
  8
0
 10
43.06908193269881
 20
20.117063539722594
 11
43.448633341978265
 21
20.365437206008625
  0
LINE
  8
0
 10
43.448633341978265
 20
20.365437206008625
 11
43.73797618120419
 21
20.51865502275266
  0
LINE
  8
0
 10
43.73797618120419
 20
20.51865502275266
 11
43.96464191396907
 21
20.654740850933326
  0
LINE
  8
0
 10
43.96464191396907
 20
20.654740850933326
 11
44.29879541921487
 21
20.880611967599943
  0
LINE
  8
0
 10
44.29879541921487
 20
20.880611967599943
 11
44.73111957119399
 21
21.207975545871392
  0
LINE
  8
0
 10
44.73111957119399
 20
21.207975545871392
 11
45.25136287744807
 21
21.647779916465403
  0
LINE
  8
0
 10
45.25136287744807
 20
21.647779916465403
 11
45.848395000229395
 21
22.210148712520876
  0
LINE
  8
0
 10
45.848395000229395
 20
22.210148712520876
 11
46.51026661491468
 21
22.904318835314086
  0
LINE
  8
0
 10
46.51026661491468
 20
22.904318835314086
 11
46.70426762687582
 21
23.130994564564375
  0
LINE
  8
0
 10
46.70426762687582
 20
23.130994564564375
 11
46.22330270641369
 21
24.259860720036432
  0
LINE
  8
0
 10
46.22330270641369
 20
24.259860720036432
 11
45.56748328943565
 21
25.296956156339178
  0
LINE
  8
0
 10
45.56748328943565
 20
25.296956156339178
 11
45.27072768574761
 21
25.266062944254788
  0
LINE
  8
0
 10
45.27072768574761
 20
25.266062944254788
 11
44.32345094333883
 21
25.115686859068713
  0
LINE
  8
0
 10
44.32345094333883
 20
25.115686859068713
 11
43.521477595884825
 21
24.94380094230016
  0
LINE
  8
0
 10
43.521477595884825
 20
24.94380094230016
 11
42.863993812730726
 21
24.76548645330669
  0
LINE
  8
0
 10
42.863993812730726
 20
24.76548645330669
 11
42.348990759632244
 21
24.595654359571444
  0
LINE
  8
0
 10
42.348990759632244
 20
24.595654359571444
 11
41.973281648518125
 21
24.448960834705552
  0
LINE
  8
0
 10
41.973281648518125
 20
24.448960834705552
 11
41.73252439547212
 21
24.339724155208067
  0
LINE
  8
0
 10
41.73252439547212
 20
24.339724155208067
 11
41.44206313764121
 21
24.188637307076768
  0
LINE
  8
0
 10
41.44206313764121
 20
24.188637307076768
 11
41.02204584239097
 21
24.017364944796523
  0
LINE
  8
0
 10
41.02204584239097
 20
24.017364944796523
 11
40.70791237894332
 21
23.954904467905
  0
LINE
  8
0
 10
40.70791237894332
 20
23.954904467905
 11
40.509802987875275
 21
23.989147061856418
  0
LINE
  8
0
 10
40.509802987875275
 20
23.989147061856418
 11
39.039256543771984
 21
26.314630215555116
  0
LINE
  8
0
 10
39.039256543771984
 20
26.314630215555116
 11
39.093248079679626
 21
26.50829177632574
  0
LINE
  8
0
 10
39.093248079679626
 20
26.50829177632574
 11
39.284344703740295
 21
26.7653194485788
  0
LINE
  8
0
 10
39.284344703740295
 20
26.7653194485788
 11
39.619139084013895
 21
27.071361068832655
  0
LINE
  8
0
 10
39.619139084013895
 20
27.071361068832655
 11
39.8801571432301
 21
27.269008610537913
  0
LINE
  8
0
 10
39.8801571432301
 20
27.269008610537913
 11
40.08205791228164
 21
27.439691903504315
  0
LINE
  8
0
 10
40.08205791228164
 20
27.439691903504315
 11
40.37565194226263
 21
27.71624004031201
  0
LINE
  8
0
 10
40.37565194226263
 20
27.71624004031201
 11
40.749864799121625
 21
28.108714017187644
  0
LINE
  8
0
 10
40.749864799121625
 20
28.108714017187644
 11
41.192821508781506
 21
28.626275931805655
  0
LINE
  8
0
 10
41.192821508781506
 20
28.626275931805655
 11
41.69191192348639
 21
29.27713288718016
  0
LINE
  8
0
 10
41.69191192348639
 20
29.27713288718016
 11
42.23385975606362
 21
30.06848536267365
  0
LINE
  8
0
 10
42.23385975606362
 20
30.06848536267365
 11
42.38898716180348
 21
30.32334565158017
  0
LINE
  8
0
 10
42.38898716180348
 20
30.32334565158017
 11
41.733167744825465
 21
31.36044108788294
  0
LINE
  8
0
 10
41.733167744825465
 20
31.36044108788294
 11
40.91947920974519
 21
32.278905577977305
  0
LINE
  8
0
 10
40.91947920974519
 20
32.278905577977305
 11
40.631522132905914
 21
32.20080947838637
  0
LINE
  8
0
 10
40.631522132905914
 20
32.20080947838637
 11
39.720634395955614
 21
31.90042684843243
  0
LINE
  8
0
 10
39.720634395955614
 20
31.90042684843243
 11
38.956618832792785
 21
31.602121237263393
  0
LINE
  8
0
 10
38.956618832792785
 20
31.602121237263393
 11
38.3362529475253
 21
31.320648058271285
  0
LINE
  8
0
 10
38.3362529475253
 20
31.320648058271285
 11
37.85516203239194
 21
31.070402946152377
  0
LINE
  8
0
 10
37.85516203239194
 20
31.070402946152377
 11
37.507849551808576
 21
30.865341084162473
  0
LINE
  8
0
 10
37.507849551808576
 20
30.865341084162473
 11
37.28773283763237
 21
30.718898811637885
  0
LINE
  8
0
 10
37.28773283763237
 20
30.718898811637885
 11
37.02526901163374
 21
30.52317523610053
  0
LINE
  8
0
 10
37.02526901163374
 20
30.52317523610053
 11
36.63816484905343
 21
30.286745293615702
  0
LINE
  8
0
 10
36.63816484905343
 20
30.286745293615702
 11
36.33811869655523
 21
30.17470311226351
  0
LINE
  8
0
 10
36.33811869655523
 20
30.17470311226351
 11
36.137081871714834
 21
30.176723292445487
  0
LINE
  8
0
 10
36.137081871714834
 20
30.176723292445487
 11
34.312544886543485
 21
32.23619981140439
  0
LINE
  8
0
 10
34.312544886543485
 20
32.23619981140439
 11
34.33477174722522
 21
32.436014357256326
  0
LINE
  8
0
 10
34.33477174722522
 20
32.436014357256326
 11
34.482163582071514
 21
32.720367642892086
  0
LINE
  8
0
 10
34.482163582071514
 20
32.720367642892086
 11
34.76352993474957
 21
33.07615089990546
  0
LINE
  8
0
 10
34.76352993474957
 20
33.07615089990546
 11
34.98946298332883
 21
33.31310919906125
  0
LINE
  8
0
 10
34.98946298332883
 20
33.31310919906125
 11
35.161369664802194
 21
33.51396934918136
  0
LINE
  8
0
 10
35.161369664802194
 20
33.51396934918136
 11
35.40680028835969
 21
33.83403205465086
  0
LINE
  8
0
 10
35.40680028835969
 20
33.83403205465086
 11
35.7132099336709
 21
34.2814515602867
  0
LINE
  8
0
 10
35.7132099336709
 20
34.2814515602867
 11
36.06740770063084
 21
34.86336643720286
  0
LINE
  8
0
 10
36.06740770063084
 20
34.86336643720286
 11
36.45563022767855
 21
35.58585469863163
  0
LINE
  8
0
 10
36.45563022767855
 20
35.58585469863163
 11
36.863618113956086
 21
36.45389391338844
  0
LINE
  8
0
 10
36.863618113956086
 20
36.45389391338844
 11
36.975854195150646
 21
36.730338014340454
  0
LINE
  8
0
 10
36.975854195150646
 20
36.730338014340454
 11
36.16216566007039
 21
37.64880250443484
  0
LINE
  8
0
 10
36.16216566007039
 20
37.64880250443484
 11
35.21168211253557
 21
38.4248483004746
  0
LINE
  8
0
 10
35.21168211253557
 20
38.4248483004746
 11
34.93998149957829
 21
38.30157196133453
  0
LINE
  8
0
 10
34.93998149957829
 20
38.30157196133453
 11
34.08907428200617
 21
37.8589625389448
  0
LINE
  8
0
 10
34.08907428200617
 20
37.8589625389448
 11
33.38280410490153
 21
37.441963192011826
  0
LINE
  8
0
 10
33.38280410490153
 20
37.441963192011826
 11
32.81562326808589
 21
37.06462133050593
  0
LINE
  8
0
 10
32.81562326808589
 20
37.06462133050593
 11
32.38090449291418
 21
36.740444416959534
  0
LINE
  8
0
 10
32.38090449291418
 20
36.740444416959534
 11
32.07098385367382
 21
36.48232521235711
  0
LINE
  8
0
 10
32.07098385367382
 20
36.48232521235711
 11
31.877208585642595
 21
36.30247012474122
  0
LINE
  8
0
 10
31.877208585642595
 20
36.30247012474122
 11
31.649539866703698
 21
36.067178959595374
  0
LINE
  8
0
 10
31.649539866703698
 20
36.067178959595374
 11
31.3053746312677
 21
35.77171484822538
  0
LINE
  8
0
 10
31.3053746312677
 20
35.77171484822538
 11
31.02718682746165
 21
35.61299279605649
  0
LINE
  8
0
 10
31.02718682746165
 20
35.61299279605649
 11
30.828429317012496
 21
35.58273824086346
  0
LINE
  8
0
 10
30.828429317012496
 20
35.58273824086346
 11
28.697156340303845
 21
37.32286876503478
  0
LINE
  8
0
 10
28.697156340303845
 20
37.32286876503478
 11
28.68704286174325
 21
37.523661204188215
  0
LINE
  8
0
 10
28.68704286174325
 20
37.523661204188215
 11
28.786912536274027
 21
37.82797550247261
  0
LINE
  8
0
 10
28.786912536274027
 20
37.82797550247261
 11
29.007563620617105
 21
38.22428579677319
  0
LINE
  8
0
 10
29.007563620617105
 20
38.22428579677319
 11
29.192560111278397
 21
38.494417757899846
  0
LINE
  8
0
 10
29.192560111278397
 20
38.494417757899846
 11
29.33002041242184
 21
38.72025259279254
  0
LINE
  8
0
 10
29.33002041242184
 20
38.72025259279254
 11
29.5209311053245
 21
39.075540410973396
  0
LINE
  8
0
 10
29.5209311053245
 20
39.075540410973396
 11
29.751601690223925
 21
39.56631751519211
  0
LINE
  8
0
 10
29.751601690223925
 20
39.56631751519211
 11
30.00786697837118
 21
40.19751406476013
  0
LINE
  8
0
 10
30.00786697837118
 20
40.19751406476013
 11
30.2751668582351
 21
40.97292156577775
  0
LINE
  8
0
 10
30.2751668582351
 20
40.97292156577775
 11
30.538628126264523
 21
41.8951657600957
  0
LINE
  8
0
 10
30.538628126264523
 20
41.8951657600957
 11
30.60506602736578
 21
42.18603391608794
  0
LINE
  8
0
 10
30.60506602736578
 20
42.18603391608794
 11
29.654582479830935
 21
42.96207971212771
  0
LINE
  8
0
 10
29.654582479830935
 20
42.96207971212771
 11
28.591920944456664
 21
43.57560763563355
  0
LINE
  8
0
 10
28.591920944456664
 20
43.57560763563355
 11
28.343513698539212
 21
43.410343849373966
  0
LINE
  8
0
 10
28.343513698539212
 20
43.410343849373966
 11
27.57462505031941
 21
42.83697098609632
  0
LINE
  8
0
 10
27.57462505031941
 20
42.83697098609632
 11
26.944392285873313
 21
42.31207796744529
  0
LINE
  8
0
 10
26.944392285873313
 20
42.31207796744529
 11
26.44508618325666
 21
41.84864037943004
  0
LINE
  8
0
 10
26.44508618325666
 20
41.84864037943004
 11
26.067998535976287
 21
41.45892767623471
  0
LINE
  8
0
 10
26.067998535976287
 20
41.45892767623471
 11
25.803496519841435
 21
41.1544362808352
  0
LINE
  8
0
 10
25.803496519841435
 20
41.1544362808352
 11
25.641081375611737
 21
40.94582653042372
  0
LINE
  8
0
 10
25.641081375611737
 20
40.94582653042372
 11
25.454104263964222
 21
40.67706169325391
  0
LINE
  8
0
 10
25.454104263964222
 20
40.67706169325391
 11
25.161791654488642
 21
40.33021577828307
  0
LINE
  8
0
 10
25.161791654488642
 20
40.33021577828307
 11
24.912667117368
 21
40.1289246730758
  0
LINE
  8
0
 10
24.912667117368
 20
40.1289246730758
 11
24.7213366364282
 21
40.06717895959529
  0
LINE
  8
0
 10
24.7213366364282
 20
40.06717895959529
 11
22.33852651877283
 21
41.44289502245147
  0
LINE
  8
0
 10
22.33852651877283
 20
41.44289502245147
 11
22.296334634752256
 21
41.63946493620374
  0
LINE
  8
0
 10
22.296334634752256
 20
41.63946493620374
 11
22.346095576856293
 21
41.955858666660156
  0
LINE
  8
0
 10
22.346095576856293
 20
41.955858666660156
 11
22.5003166456826
 21
42.382431769797776
  0
LINE
  8
0
 10
22.5003166456826
 20
42.382431769797776
 11
22.639585266491974
 21
42.6787411169959
  0
LINE
  8
0
 10
22.639585266491974
 20
42.6787411169959
 11
22.739039037710455
 21
42.92370163306304
  0
LINE
  8
0
 10
22.739039037710455
 20
42.92370163306304
 11
22.870485313292864
 21
43.30501279608846
  0
LINE
  8
0
 10
22.870485313292864
 20
43.30501279608846
 11
23.019442590797293
 21
43.82643662968415
  0
LINE
  8
0
 10
23.019442590797293
 20
43.82643662968415
 11
23.17113826377882
 21
44.49056719282249
  0
LINE
  8
0
 10
23.17113826377882
 20
44.49056719282249
 11
23.31059256997663
 21
45.29881128645544
  0
LINE
  8
0
 10
23.31059256997663
 20
45.29881128645544
 11
23.422703711305815
 21
46.25137482013427
  0
LINE
  8
0
 10
23.422703711305815
 20
46.25137482013427
 11
23.441622725573474
 21
46.54913369871259
  0
LINE
  8
0
 10
23.441622725573474
 20
46.54913369871259
 11
22.378961190199178
 21
47.162661622218394
  0
LINE
  8
0
 10
22.378961190199178
 20
47.162661622218394
 11
21.23164404256121
 21
47.597781622242834
  0
LINE
  8
0
 10
21.23164404256121
 20
47.597781622242834
 11
21.012963780870543
 21
47.394810634118826
  0
LINE
  8
0
 10
21.012963780870543
 20
47.394810634118826
 11
20.34600751411332
 21
46.70552438593324
  0
LINE
  8
0
 10
20.34600751411332
 20
46.70552438593324
 11
19.808134859878898
 21
46.086332149033616
  0
LINE
  8
0
 10
19.808134859878898
 20
46.086332149033616
 11
19.389635257245573
 21
45.54880162460604
  0
LINE
  8
0
 10
19.389635257245573
 20
45.54880162460604
 11
19.07994510984607
 21
45.10364648606788
  0
LINE
  8
0
 10
19.07994510984607
 20
45.10364648606788
 11
18.867712180098113
 21
44.76066906707016
  0
LINE
  8
0
 10
18.867712180098113
 20
44.76066906707016
 11
18.740863626592734
 21
44.528707536821095
  0
LINE
  8
0
 10
18.740863626592734
 20
44.528707536821095
 11
18.59942073121371
 21
44.233429895734325
  0
LINE
  8
0
 10
18.59942073121371
 20
44.233429895734325
 11
18.36653149073922
 21
43.84418530417063
  0
LINE
  8
0
 10
18.36653149073922
 20
43.84418530417063
 11
18.152922414956315
 21
43.6055384798165
  0
LINE
  8
0
 10
18.152922414956315
 20
43.6055384798165
 11
17.973974322480935
 21
43.51390078959411
  0
LINE
  8
0
 10
17.973974322480935
 20
43.51390078959411
 11
15.401340594293572
 21
44.48957206773756
  0
LINE
  8
0
 10
15.401340594293572
 20
44.48957206773756
 11
15.328163052446774
 21
44.676828398575914
  0
LINE
  8
0
 10
15.328163052446774
 20
44.676828398575914
 11
15.326526479861794
 21
44.9971071297795
  0
LINE
  8
0
 10
15.326526479861794
 20
44.9971071297795
 11
15.41032328849732
 21
45.442895022451445
  0
LINE
  8
0
 10
15.41032328849732
 20
45.442895022451445
 11
15.500257055330255
 21
45.75770749927275
  0
LINE
  8
0
 10
15.500257055330255
 20
45.75770749927275
 11
15.559128496189883
 21
46.01544934782003
  0
LINE
  8
0
 10
15.559128496189883
 20
46.01544934782003
 11
15.627705964960004
 21
46.4129080968612
  0
LINE
  8
0
 10
15.627705964960004
 20
46.4129080968612
 11
15.691092019825732
 21
46.95147405643505
  0
LINE
  8
0
 10
15.691092019825732
 20
46.95147405643505
 11
15.734289239393377
 21
47.63133800041017
  0
LINE
  8
0
 10
15.734289239393377
 20
47.63133800041017
 11
15.742286178646534
 21
48.45148558918443
  0
LINE
  8
0
 10
15.742286178646534
 20
48.45148558918443
 11
15.700143573604326
 21
49.40969756706046
  0
LINE
  8
0
 10
15.700143573604326
 20
49.40969756706046
 11
15.671053708506541
 21
49.70663536967517
  0
LINE
  8
0
 10
15.671053708506541
 20
49.70663536967517
 11
14.523736560868562
 21
50.1417553696996
  0
LINE
  8
0
 10
14.523736560868562
 20
50.1417553696996
 11
13.321478712432793
 21
50.387198066800096
  0
LINE
  8
0
 10
13.321478712432793
 20
50.387198066800096
 11
13.138189138879223
 21
50.151776718788305
  0
LINE
  8
0
 10
13.138189138879223
 20
50.151776718788305
 11
12.590439070557599
 21
49.36442923745738
  0
LINE
  8
0
 10
12.590439070557599
 20
49.36442923745738
 11
12.158857145748009
 21
48.66697453599814
  0
LINE
  8
0
 10
12.158857145748009
 20
48.66697453599814
 11
11.832002962978496
 21
48.06927283338914
  0
LINE
  8
0
 10
11.832002962978496
 20
48.06927283338914
 11
11.59773112760476
 21
47.580204543767046
  0
LINE
  8
0
 10
11.59773112760476
 20
47.580204543767046
 11
11.44326400564334
 21
47.207624036165406
  0
LINE
  8
0
 10
11.44326400564334
 20
47.207624036165406
 11
11.355267353767594
 21
46.958318407868425
  0
LINE
  8
0
 10
11.355267353767594
 20
46.958318407868425
 11
11.263021971350849
 21
46.64417549866665
  0
LINE
  8
0
 10
11.263021971350849
 20
46.64417549866665
 11
11.095587808874647
 21
46.222613460970805
  0
LINE
  8
0
 10
11.095587808874647
 20
46.222613460970805
 11
10.923026557288573
 21
45.95279174486518
  0
LINE
  8
0
 10
10.923026557288573
 20
45.95279174486518
 11
10.761095514875615
 21
45.83363544594261
  0
LINE
  8
0
 10
10.761095514875615
 20
45.83363544594261
 11
8.065268038374006
 21
46.38399256576597
  0
LINE
  8
0
 10
8.065268038374006
 20
46.38399256576597
 11
7.963000098596424
 21
46.55708547308291
  0
LINE
  8
0
 10
7.963000098596424
 20
46.55708547308291
 11
7.910008397692726
 21
46.87295415413017
  0
LINE
  8
0
 10
7.910008397692726
 20
46.87295415413017
 11
7.921210652810257
 21
47.32641116407783
  0
LINE
  8
0
 10
7.921210652810257
 20
47.32641116407783
 11
7.959480328345812
 21
47.65157329273603
  0
LINE
  8
0
 10
7.959480328345812
 20
47.65157329273603
 11
7.976244699452063
 21
47.91542109527164
  0
LINE
  8
0
 10
7.976244699452063
 20
47.91542109527164
 11
7.9801772409908365
 21
48.31873345750385
  0
LINE
  8
0
 10
7.9801772409908365
 20
48.31873345750385
 11
7.956350407692002
 21
48.8604929675986
  0
LINE
  8
0
 10
7.956350407692002
 20
48.8604929675986
 11
7.88993038854942
 21
49.53848217337762
  0
LINE
  8
0
 10
7.88993038854942
 20
49.53848217337762
 11
7.766262844331863
 21
50.349291865547656
  0
LINE
  8
0
 10
7.766262844331863
 20
50.349291865547656
 11
7.570957964252363
 21
51.28833510071947
  0
LINE
  8
0
 10
7.570957964252363
 20
51.28833510071947
 11
7.494612632014993
 21
51.5767612942572
  0
LINE
  8
0
 10
7.494612632014993
 20
51.5767612942572
 11
6.292354783579205
 21
51.82220399135766
  0
LINE
  8
0
 10
6.292354783579205
 20
51.82220399135766
 11
5.066294081103095
 21
51.87161254860434
  0
LINE
  8
0
 10
5.066294081103095
 20
51.87161254860434
 11
4.923142299364085
 21
51.6098381299571
  0
LINE
  8
0
 10
4.923142299364085
 20
51.6098381299571
 11
4.508784868527715
 21
50.74482130167271
  0
LINE
  8
0
 10
4.508784868527715
 20
50.74482130167271
 11
4.194671418295976
 21
49.98716784606555
  0
LINE
  8
0
 10
4.194671418295976
 20
49.98716784606555
 11
3.9679280070354017
 21
49.34477512541444
  0
LINE
  8
0
 10
3.9679280070354017
 20
49.34477512541444
 11
3.815142001166284
 21
48.82446029651387
  0
LINE
  8
0
 10
3.815142001166284
 20
48.82446029651387
 11
3.7224413043123543
 21
48.43192633974766
  0
LINE
  8
0
 10
3.7224413043123543
 20
48.43192633974766
 11
3.675575621127312
 21
48.17173349822144
  0
LINE
  8
0
 10
3.675575621127312
 20
48.17173349822144
 11
3.634916858623168
 21
47.8468614572413
  0
LINE
  8
0
 10
3.634916858623168
 20
47.8468614572413
 11
3.537274231004272
 21
47.40390020875329
  0
LINE
  8
0
 10
3.537274231004272
 20
47.40390020875329
 11
3.4102300493888515
 21
47.10989184161249
  0
LINE
  8
0
 10
3.4102300493888515
 20
47.10989184161249
 11
3.2695099859783507
 21
46.966303019541904
  0
LINE
  8
0
 10
3.2695099859783507
 20
46.966303019541904
 11
0.5203092767508837
 21
47.07709202073103
  0
LINE
  8
0
 10
0.5203092767508837
 20
47.07709202073103
 11
0.3915996249638789
 21
47.23153848914856
  0
LINE
  8
0
 10
0.3915996249638789
 20
47.23153848914856
 11
0.28862525295961006
 21
47.534816287118566
  0
LINE
  8
0
 10
0.28862525295961006
 20
47.534816287118566
 11
0.22694282203587107
 21
47.9841981159743
  0
LINE
  8
0
 10
0.22694282203587107
 20
47.9841981159743
 11
0.21255724177981175
 21
48.31128836813695
  0
LINE
  8
0
 10
0.21255724177981175
 20
48.31128836813695
 11
0.18678035472695367
 21
48.57440860516809
  0
LINE
  8
0
 10
0.18678035472695367
 20
48.57440860516809
 11
0.1259661182741968
 21
48.973129002259775
  0
LINE
  8
0
 10
0.1259661182741968
 20
48.973129002259775
 11
0.015543499277581219
 21
49.504050776137134
  0
LINE
  8
0
 10
0.015543499277581219
 20
49.504050776137134
 11
-0.15877351496826805
 21
50.16260567942172
  0
LINE
  8
0
 10
-0.15877351496826805
 20
50.16260567942172
 11
-0.4109026182208748
 21
50.943077929859044
  0
LINE
  8
0
 10
-0.4109026182208748
 20
50.943077929859044
 11
-0.7543114795325369
 21
51.83863169579243
  0
LINE
  8
0
 10
-0.7543114795325369
 20
51.83863169579243
 11
-0.875934974906929
 21
52.1110761933438
  0
LINE
  8
0
 10
-0.875934974906929
 20
52.1110761933438
 11
-2.10199567738306
 21
52.16048475059048
  0
LINE
  8
0
 10
-2.10199567738306
 20
52.16048475059048
 11
-3.320104905725396
 21
52.01257951230379
  0
LINE
  8
0
 10
-3.320104905725396
 20
52.01257951230379
 11
-3.4194113396969708
 21
51.73123184296032
  0
LINE
  8
0
 10
-3.4194113396969708
 20
51.73123184296032
 11
-3.6896444932413677
 21
50.81094914920262
  0
LINE
  8
0
 10
-3.6896444932413677
 20
50.81094914920262
 11
-3.8781540955304536
 21
50.01271976597073
  0
LINE
  8
0
 10
-3.8781540955304536
 20
50.01271976597073
 11
-3.9989142000332722
 21
49.342273661309
  0
LINE
  8
0
 10
-3.9989142000332722
 20
49.342273661309
 11
-4.066257299100555
 21
48.804188173889685
  0
LINE
  8
0
 10
-4.066257299100555
 20
48.804188173889685
 11
-4.0947906714919124
 21
48.40186719125056
  0
LINE
  8
0
 10
-4.0947906714919124
 20
48.40186719125056
 11
-4.099311589409171
 21
48.1375259944176
  0
LINE
  8
0
 10
-4.099311589409171
 20
48.1375259944176
 11
-4.087330691408922
 21
47.810338836873065
  0
LINE
  8
0
 10
-4.087330691408922
 20
47.810338836873065
 11
-4.112652891404495
 21
47.35745084125189
  0
LINE
  8
0
 10
-4.112652891404495
 20
47.35745084125189
 11
-4.1908896254786585
 21
47.04687048534936
  0
LINE
  8
0
 10
-4.1908896254786585
 20
47.04687048534936
 11
-4.306754134161217
 21
46.88256801519866
  0
LINE
  8
0
 10
-4.306754134161217
 20
46.88256801519866
 11
-7.038125221834225
 21
46.55091952081753
  0
LINE
  8
0
 10
-7.038125221834225
 20
46.55091952081753
 11
-7.189943073257435
 21
46.68271946793065
  0
LINE
  8
0
 10
-7.189943073257435
 20
46.68271946793065
 11
-7.340233134217312
 21
46.96555164716046
  0
LINE
  8
0
 10
-7.340233134217312
 20
46.96555164716046
 11
-7.473202708621687
 21
47.39921954160633
  0
LINE
  8
0
 10
-7.473202708621687
 20
47.39921954160633
 11
-7.5398709656971254
 21
47.71976645155501
  0
LINE
  8
0
 10
-7.5398709656971254
 20
47.71976645155501
 11
-7.607521503074399
 21
47.97534444715327
  0
LINE
  8
0
 10
-7.607521503074399
 20
47.97534444715327
 11
-7.73150746073881
 21
48.35914623025794
  0
LINE
  8
0
 10
-7.73150746073881
 20
48.35914623025794
 11
-7.925665977603527
 21
48.86547967285485
  0
LINE
  8
0
 10
-7.925665977603527
 20
48.86547967285485
 11
-8.20336526784819
 21
49.48754404757292
  0
LINE
  8
0
 10
-8.20336526784819
 20
49.48754404757292
 11
-8.577425918798927
 21
50.21746503495441
  0
LINE
  8
0
 10
-8.577425918798927
 20
50.21746503495441
 11
-9.060044652219153
 21
51.046334959524415
  0
LINE
  8
0
 10
-9.060044652219153
 20
51.046334959524415
 11
-9.223796326086251
 21
51.29574159171134
  0
LINE
  8
0
 10
-9.223796326086251
 20
51.29574159171134
 11
-10.44190555442858
 21
51.14783635342468
  0
LINE
  8
0
 10
-10.44190555442858
 20
51.14783635342468
 11
-11.620514919466405
 21
50.80644798758521
  0
LINE
  8
0
 10
-11.620514919466405
 20
50.80644798758521
 11
-11.673404021193956
 21
50.51281382439641
  0
LINE
  8
0
 10
-11.673404021193956
 20
50.51281382439641
 11
-11.792514000716519
 21
49.56110010353145
  0
LINE
  8
0
 10
-11.792514000716519
 20
49.56110010353145
 11
-11.850537455383204
 21
48.74296851440994
  0
LINE
  8
0
 10
-11.850537455383204
 20
48.74296851440994
 11
-11.862186629854008
 21
48.061833227679195
  0
LINE
  8
0
 10
-11.862186629854008
 20
48.061833227679195
 11
-11.84234267122732
 21
47.519913213222
  0
LINE
  8
0
 10
-11.84234267122732
 20
47.519913213222
 11
-11.805969719799059
 21
47.11822510683081
  0
LINE
  8
0
 10
-11.805969719799059
 20
47.11822510683081
 11
-11.768028783049205
 21
46.85658185283707
  0
LINE
  8
0
 10
-11.768028783049205
 20
46.85658185283707
 11
-11.70371852350949
 21
46.53555355424502
  0
LINE
  8
0
 10
-11.70371852350949
 20
46.53555355424502
 11
-11.656064464202995
 21
46.08446837268616
  0
LINE
  8
0
 10
-11.656064464202995
 20
46.08446837268616
 11
-11.683467460419248
 21
45.765359896099426
  0
LINE
  8
0
 10
-11.683467460419248
 20
45.765359896099426
 11
-11.771475584459811
 21
45.584599125541395
  0
LINE
  8
0
 10
-11.771475584459811
 20
45.584599125541395
 11
-14.41427597413083
 21
44.81910265738756
  0
LINE
  8
0
 10
-14.41427597413083
 20
44.81910265738756
 11
-14.585270022584636
 21
44.924842533797346
  0
LINE
  8
0
 10
-14.585270022584636
 20
44.924842533797346
 11
-14.778983338864997
 21
45.17990388940983
  0
LINE
  8
0
 10
-14.778983338864997
 20
45.17990388940983
 11
-14.979796214618634
 21
45.58662607877493
  0
LINE
  8
0
 10
-14.979796214618634
 20
45.58662607877493
 11
-15.097020475674423
 21
45.892327649917526
  0
LINE
  8
0
 10
-15.097020475674423
 20
45.892327649917526
 11
-15.204792549993236
 21
46.13374406824585
  0
LINE
  8
0
 10
-15.204792549993236
 20
46.13374406824585
 11
-15.388739057692613
 21
46.49268697278289
  0
LINE
  8
0
 10
-15.388739057692613
 20
46.49268697278289
 11
-15.661604868825412
 21
46.96131831390083
  0
LINE
  8
0
 10
-15.661604868825412
 20
46.96131831390083
 11
-16.035494169320273
 21
47.53078101950254
  0
LINE
  8
0
 10
-16.035494169320273
 20
47.53078101950254
 11
-16.521798393594533
 21
48.19124617366488
  0
LINE
  8
0
 10
-16.521798393594533
 20
48.19124617366488
 11
-17.131127427435693
 21
48.93196496121048
  0
LINE
  8
0
 10
-17.131127427435693
 20
48.93196496121048
 11
-17.332766197457126
 21
49.151874227266546
  0
LINE
  8
0
 10
-17.332766197457126
 20
49.151874227266546
 11
-18.511375562494955
 21
48.81048586142712
  0
LINE
  8
0
 10
-18.511375562494955
 20
48.81048586142712
 11
-19.619959700768813
 21
48.28445614738713
  0
LINE
  8
0
 10
-19.619959700768813
 20
48.28445614738713
 11
-19.625061670298965
 21
47.986140460940625
  0
LINE
  8
0
 10
-19.625061670298965
 20
47.986140460940625
 11
-19.589963589895657
 21
47.027644598426605
  0
LINE
  8
0
 10
-19.589963589895657
 20
47.027644598426605
 11
-19.51599811994239
 21
46.21079998182896
  0
LINE
  8
0
 10
-19.51599811994239
 20
46.21079998182896
 11
-19.418234656881417
 21
45.536616559171634
  0
LINE
  8
0
 10
-19.418234656881417
 20
45.536616559171634
 11
-19.311717588665633
 21
45.00489746139352
  0
LINE
  8
0
 10
-19.311717588665633
 20
45.00489746139352
 11
-19.211380353753913
 21
44.61424574220876
  0
LINE
  8
0
 10
-19.211380353753913
 20
44.61424574220876
 11
-19.13196021266931
 21
44.362076853897776
  0
LINE
  8
0
 10
-19.13196021266931
 20
44.362076853897776
 11
-19.016986193531586
 21
44.05552187856336
  0
LINE
  8
0
 10
-19.016986193531586
 20
44.05552187856336
 11
-18.897590090027535
 21
43.61792238032504
  0
LINE
  8
0
 10
-18.897590090027535
 20
43.61792238032504
 11
-18.873449625178008
 21
43.298550524977735
  0
LINE
  8
0
 10
-18.873449625178008
 20
43.298550524977735
 11
-18.931322000392466
 21
43.106013063020555
  0
LINE
  8
0
 10
-18.931322000392466
 20
43.106013063020555
 11
-21.417104550168176
 21
41.926494577522405
  0
LINE
  8
0
 10
-21.417104550168176
 20
41.926494577522405
 11
-21.60284613961666
 21
42.00343577597246
  0
LINE
  8
0
 10
-21.60284613961666
 20
42.00343577597246
 11
-21.834965638078764
 21
42.224120352834795
  0
LINE
  8
0
 10
-21.834965638078764
 20
42.224120352834795
 11
-22.098420867181797
 21
42.59336294605592
  0
LINE
  8
0
 10
-22.098420867181797
 20
42.59336294605592
 11
-22.263165085431663
 21
42.87630166827748
  0
LINE
  8
0
 10
-22.263165085431663
 20
42.87630166827748
 11
-22.408267456577217
 21
43.09730395091138
  0
LINE
  8
0
 10
-22.408267456577217
 20
43.09730395091138
 11
-22.647410396384807
 21
43.42209154419731
  0
LINE
  8
0
 10
-22.647410396384807
 20
43.42209154419731
 11
-22.99191642060716
 21
43.84088347826202
  0
LINE
  8
0
 10
-22.99191642060716
 20
43.84088347826202
 11
-23.452312194864415
 21
44.3429957297973
  0
LINE
  8
0
 10
-23.452312194864415
 20
44.3429957297973
 11
-24.038264968497348
 21
44.91689935017404
  0
LINE
  8
0
 10
-24.038264968497348
 20
44.91689935017404
 11
-24.758523000848772
 21
45.55028277317949
  0
LINE
  8
0
 10
-24.758523000848772
 20
45.55028277317949
 11
-24.99282652879695
 21
45.73499913862692
  0
LINE
  8
0
 10
-24.99282652879695
 20
45.73499913862692
 11
-26.10141066707082
 21
45.208969424586904
  0
LINE
  8
0
 10
-26.10141066707082
 20
45.208969424586904
 11
-27.11125783171186
 21
44.511922255629294
  0
LINE
  8
0
 10
-27.11125783171186
 20
44.511922255629294
 11
-27.06844053071372
 21
44.21665126550602
  0
LINE
  8
0
 10
-27.06844053071372
 20
44.21665126550602
 11
-26.88004341223081
 21
43.27619780070735
  0
LINE
  8
0
 10
-26.88004341223081
 20
43.27619780070735
 11
-26.676004684477103
 21
42.48179600313474
  0
LINE
  8
0
 10
-26.676004684477103
 20
42.48179600313474
 11
-26.471360606224845
 21
41.83202544106539
  0
LINE
  8
0
 10
-26.471360606224845
 20
41.83202544106539
 11
-26.280929164535916
 21
41.32427850529962
  0
LINE
  8
0
 10
-26.280929164535916
 20
41.32427850529962
 11
-26.11922632782023
 21
40.954780847648266
  0
LINE
  8
0
 10
-26.11922632782023
 20
40.954780847648266
 11
-26.000383922337488
 21
40.71861736676908
  0
LINE
  8
0
 10
-26.000383922337488
 20
40.71861736676908
 11
-25.83772391030435
 21
40.43447532752753
  0
LINE
  8
0
 10
-25.83772391030435
 20
40.43447532752753
 11
-25.649678058967613
 21
40.0216951097537
  0
LINE
  8
0
 10
-25.649678058967613
 20
40.0216951097537
 11
-25.5746193584115
 21
39.71033143894099
  0
LINE
  8
0
 10
-25.5746193584115
 20
39.71033143894099
 11
-25.60085712068076
 21
39.511003904714094
  0
LINE
  8
0
 10
-25.60085712068076
 20
39.511003904714094
 11
-27.865241368243453
 21
37.94801231107348
  0
LINE
  8
0
 10
-27.865241368243453
 20
37.94801231107348
 11
-28.060919889085465
 21
37.99416209493929
  0
LINE
  8
0
 10
-28.060919889085465
 20
37.99416209493929
 11
-28.325433796645907
 21
38.17475427843104
  0
LINE
  8
0
 10
-28.325433796645907
 20
38.17475427843104
 11
-28.644708027051227
 21
38.496954086297954
  0
LINE
  8
0
 10
-28.644708027051227
 20
38.496954086297954
 11
-28.85270541377865
 21
38.7498019953138
  0
LINE
  8
0
 10
-28.85270541377865
 20
38.7498019953138
 11
-29.031380006557047
 21
38.944666299220216
  0
LINE
  8
0
 10
-29.031380006557047
 20
38.944666299220216
 11
-29.319525701947843
 21
39.226886753192005
  0
LINE
  8
0
 10
-29.319525701947843
 20
39.226886753192005
 11
-29.726749414193076
 21
39.584992789092496
  0
LINE
  8
0
 10
-29.726749414193076
 20
39.584992789092496
 11
-30.261727653494233
 21
40.006750142994
  0
LINE
  8
0
 10
-30.261727653494233
 20
40.006750142994
 11
-30.932153107435568
 21
40.4792284272751
  0
LINE
  8
0
 10
-30.932153107435568
 20
40.4792284272751
 11
-31.744685833593483
 21
40.98887218778554
  0
LINE
  8
0
 10
-31.744685833593483
 20
40.98887218778554
 11
-32.00558578116855
 21
41.13361159578632
  0
LINE
  8
0
 10
-32.00558578116855
 20
41.13361159578632
 11
-33.0154329458096
 21
40.436564426828674
  0
LINE
  8
0
 10
-33.0154329458096
 20
40.436564426828674
 11
-33.90038862570191
 21
39.58655295848737
  0
LINE
  8
0
 10
-33.90038862570191
 20
39.58655295848737
 11
-33.81076099978043
 21
39.30197402823282
  0
LINE
  8
0
 10
-33.81076099978043
 20
39.30197402823282
 11
-33.47394422962618
 21
38.403920211890316
  0
LINE
  8
0
 10
-33.47394422962618
 20
38.403920211890316
 11
-33.14511673994425
 21
37.6525358226198
  0
LINE
  8
0
 10
-33.14511673994425
 20
37.6525358226198
 11
-32.83889222063285
 21
37.044006837387265
  0
LINE
  8
0
 10
-32.83889222063285
 20
37.044006837387265
 11
-32.56947847978149
 21
36.57338244256297
  0
LINE
  8
0
 10
-32.56947847978149
 20
36.57338244256297
 11
-32.35059805979417
 21
36.23460864169
  0
LINE
  8
0
 10
-32.35059805979417
 20
36.23460864169
 11
-32.19541134579026
 21
36.02056707834643
  0
LINE
  8
0
 10
-32.19541134579026
 20
36.02056707834643
 11
-31.989278149731998
 21
35.76619710476116
  0
LINE
  8
0
 10
-31.989278149731998
 20
35.76619710476116
 11
-31.73745283933625
 21
35.38892695826867
  0
LINE
  8
0
 10
-31.73745283933625
 20
35.38892695826867
 11
-31.613419883991444
 21
35.09363562751281
  0
LINE
  8
0
 10
-31.613419883991444
 20
35.09363562751281
 11
-31.60734348905479
 21
34.892680499450734
  0
LINE
  8
0
 10
-31.60734348905479
 20
34.892680499450734
 11
-33.59168307181889
 21
32.98669645894124
  0
LINE
  8
0
 10
-33.59168307181889
 20
32.98669645894124
 11
-33.79223055314982
 21
33.00085957306206
  0
LINE
  8
0
 10
-33.79223055314982
 20
33.00085957306206
 11
-34.08228809854555
 21
33.13668212049148
  0
LINE
  8
0
 10
-34.08228809854555
 20
33.13668212049148
 11
-34.44911229539269
 21
33.40349433722421
  0
LINE
  8
0
 10
-34.44911229539269
 20
33.40349433722421
 11
-34.694975827537434
 21
33.61970280500574
  0
LINE
  8
0
 10
-34.694975827537434
 20
33.61970280500574
 11
-34.90259506384916
 21
33.783382247071
  0
LINE
  8
0
 10
-34.90259506384916
 20
33.783382247071
 11
-35.232280692668496
 21
34.01572620021436
  0
LINE
  8
0
 10
-35.232280692668496
 20
34.01572620021436
 11
-35.691675212694236
 21
34.303871579725254
  0
LINE
  8
0
 10
-35.691675212694236
 20
34.303871579725254
 11
-36.28738026165253
 21
34.63435074206587
  0
LINE
  8
0
 10
-36.28738026165253
 20
34.63435074206587
 11
-37.02491472880347
 21
34.99316675086986
  0
LINE
  8
0
 10
-37.02491472880347
 20
34.99316675086986
 11
-37.90867797796419
 21
35.36587134319163
  0
LINE
  8
0
 10
-37.90867797796419
 20
35.36587134319163
 11
-38.18941717356837
 21
35.466885119106614
  0
LINE
  8
0
 10
-38.18941717356837
 20
35.466885119106614
 11
-39.07437285346069
 21
34.61687365076533
  0
LINE
  8
0
 10
-39.07437285346069
 20
34.61687365076533
 11
-39.81151716134089
 21
33.635912733579914
  0
LINE
  8
0
 10
-39.81151716134089
 20
33.635912733579914
 11
-39.677400518928216
 21
33.369396308005264
  0
LINE
  8
0
 10
-39.677400518928216
 20
33.369396308005264
 11
-39.2008874745279
 21
32.537001262236224
  0
LINE
  8
0
 10
-39.2008874745279
 20
32.537001262236224
 11
-38.75578768217538
 21
31.84809474226585
  0
LINE
  8
0
 10
-38.75578768217538
 20
31.84809474226585
 11
-38.35591377600268
 21
31.29656791494209
  0
LINE
  8
0
 10
-38.35591377600268
 20
31.29656791494209
 11
-38.014495410360404
 21
30.875254985677607
  0
LINE
  8
0
 10
-38.014495410360404
 20
30.875254985677607
 11
-37.744106295006546
 21
30.57597910507595
  0
LINE
  8
0
 10
-37.744106295006546
 20
30.57597910507595
 11
-37.55659452685832
 21
30.389603023327723
  0
LINE
  8
0
 10
-37.55659452685832
 20
30.389603023327723
 11
-37.31232688827605
 21
30.171593164100198
  0
LINE
  8
0
 10
-37.31232688827605
 20
30.171593164100198
 11
-37.0032442620828
 21
29.839604187512325
  0
LINE
  8
0
 10
-37.0032442620828
 20
29.839604187512325
 11
-36.83344944034121
 21
29.568033087170488
  0
LINE
  8
0
 10
-36.83344944034121
 20
29.568033087170488
 11
-36.79521626363572
 21
29.370654997533162
  0
LINE
  8
0
 10
-36.79521626363572
 20
29.370654997533162
 11
-38.44811782873326
 21
27.171042495636655
  0
LINE
  8
0
 10
-38.44811782873326
 20
27.171042495636655
 11
-38.64834019612938
 21
27.15285212279629
  0
LINE
  8
0
 10
-38.64834019612938
 20
27.15285212279629
 11
-38.95642904129486
 21
27.240387301529257
  0
LINE
  8
0
 10
-38.95642904129486
 20
27.240387301529257
 11
-39.36130265056938
 21
27.444901630864443
  0
LINE
  8
0
 10
-39.36130265056938
 20
27.444901630864443
 11
-39.638664591795056
 21
27.61887097166519
  0
LINE
  8
0
 10
-39.638664591795056
 20
27.61887097166519
 11
-39.869851242477
 21
27.747126340316658
  0
LINE
  8
0
 10
-39.869851242477
 20
27.747126340316658
 11
-40.23253812011435
 21
27.92357620628983
  0
LINE
  8
0
 10
-40.23253812011435
 20
27.92357620628983
 11
-40.73220537116076
 21
28.13429811543759
  0
LINE
  8
0
 10
-40.73220537116076
 20
28.13429811543759
 11
-41.37320878191764
 21
28.364939849505426
  0
LINE
  8
0
 10
-41.37320878191764
 20
28.364939849505426
 11
-42.158750506988014
 21
28.600800436681666
  0
LINE
  8
0
 10
-42.158750506988014
 20
28.600800436681666
 11
-43.090855275217734
 21
28.826913007646336
  0
LINE
  8
0
 10
-43.090855275217734
 20
28.826913007646336
 11
-43.38416272115039
 21
28.8815849477394
  0
LINE
  8
0
 10
-43.38416272115039
 20
28.8815849477394
 11
-44.121307029030596
 21
27.900624030554
  0
LINE
  8
0
 10
-44.121307029030596
 20
27.900624030554
 11
-44.6915483145287
 21
26.81412003700457
  0
LINE
  8
0
 10
-44.6915483145287
 20
26.81412003700457
 11
-44.516416206215105
 21
26.572568751537545
  0
LINE
  8
0
 10
-44.516416206215105
 20
26.572568751537545
 11
-43.91254832511792
 21
25.827391070790412
  0
LINE
  8
0
 10
-43.91254832511792
 20
25.827391070790412
 11
-43.362704080916565
 21
25.218804737121474
  0
LINE
  8
0
 10
-43.362704080916565
 20
25.218804737121474
 11
-42.87953731200833
 21
24.73856432283046
  0
LINE
  8
0
 10
-42.87953731200833
 20
24.73856432283046
 11
-42.47495687790647
 21
24.37747464268825
  0
LINE
  8
0
 10
-42.47495687790647
 20
24.37747464268825
 11
-42.16006200324487
 21
24.1254477704631
  0
LINE
  8
0
 10
-42.16006200324487
 20
24.1254477704631
 11
-41.94508163725198
 21
23.97156421292864
  0
LINE
  8
0
 10
-41.94508163725198
 20
23.97156421292864
 11
-41.6690059596771
 21
23.79556080889754
  0
LINE
  8
0
 10
-41.6690059596771
 20
23.79556080889754
 11
-41.31067109535112
 21
23.517451342322133
  0
LINE
  8
0
 10
-41.31067109535112
 20
23.517451342322133
 11
-41.09951200390674
 21
23.276634021243435
  0
LINE
  8
0
 10
-41.09951200390674
 20
23.276634021243435
 11
-41.030112264626126
 21
23.087944958874534
  0
LINE
  8
0
 10
-41.030112264626126
 20
23.087944958874534
 11
-42.3087665297503
 21
20.65167280398686
  0
LINE
  8
0
 10
-42.3087665297503
 20
20.65167280398686
 11
-42.50347812906803
 21
20.601600065286906
  0
LINE
  8
0
 10
-42.50347812906803
 20
20.601600065286906
 11
-42.82161893474509
 21
20.63858076017436
  0
LINE
  8
0
 10
-42.82161893474509
 20
20.63858076017436
 11
-43.25405594263708
 21
20.775500388408634
  0
LINE
  8
0
 10
-43.25405594263708
 20
20.775500388408634
 11
-43.55573276435748
 21
20.902724887683753
  0
LINE
  8
0
 10
-43.55573276435748
 20
20.902724887683753
 11
-43.80449921659374
 21
20.992234436242803
  0
LINE
  8
0
 10
-43.80449921659374
 20
20.992234436242803
 11
-44.19079394342894
 21
21.10822025620194
  0
LINE
  8
0
 10
-44.19079394342894
 20
21.10822025620194
 11
-44.71779280615706
 21
21.23606110822677
  0
LINE
  8
0
 10
-44.71779280615706
 20
21.23606110822677
 11
-45.3874929270775
 21
21.36089191425998
  0
LINE
  8
0
 10
-45.3874929270775
 20
21.36089191425998
 11
-46.200696792014064
 21
21.46768841449247
  0
LINE
  8
0
 10
-46.200696792014064
 20
21.46768841449247
 11
-47.157002055427746
 21
21.541352767283524
  0
LINE
  8
0
 10
-47.157002055427746
 20
21.541352767283524
 11
-47.455281242906544
 21
21.548266897024153
  0
LINE
  8
0
 10
-47.455281242906544
 20
21.548266897024153
 11
-48.02552252840464
 21
20.461762903474714
  0
LINE
  8
0
 10
-48.02552252840464
 20
20.461762903474714
 11
-48.414091841760154
 21
19.29785571627988
  0
LINE
  8
0
 10
-48.414091841760154
 20
19.29785571627988
 11
-48.202480097158286
 21
19.087525622333025
  0
LINE
  8
0
 10
-48.202480097158286
 20
19.087525622333025
 11
-47.48689724028744
 21
18.448865017115313
  0
LINE
  8
0
 10
-47.48689724028744
 20
18.448865017115313
 11
-46.846549221342194
 21
17.93636093611415
  0
LINE
  8
0
 10
-46.846549221342194
 20
17.93636093611415
 11
-46.29260335521733
 21
17.539844909327343
  0
LINE
  8
0
 10
-46.29260335521733
 20
17.539844909327343
 11
-45.835339273382786
 21
17.2483305113514
  0
LINE
  8
0
 10
-45.835339273382786
 20
17.2483305113514
 11
-45.48409425126051
 21
17.050080011109767
  0
LINE
  8
0
 10
-45.48409425126051
 20
17.050080011109767
 11
-45.24721316597819
 21
16.932674481097912
  0
LINE
  8
0
 10
-45.24721316597819
 20
16.932674481097912
 11
-44.946479664444006
 21
16.80323592797731
  0
LINE
  8
0
 10
-44.946479664444006
 20
16.80323592797731
 11
-44.54817324674669
 21
16.586208860514482
  0
LINE
  8
0
 10
-44.54817324674669
 20
16.586208860514482
 11
-44.30111879515117
 21
16.382382360819353
  0
LINE
  8
0
 10
-44.30111879515117
 20
16.382382360819353
 11
-44.202349910088785
 21
16.20726927332042
  0
LINE
  8
0
 10
-44.202349910088785
 20
16.20726927332042
 11
-45.07364040141907
 21
13.597435634538302
  0
LINE
  8
0
 10
-45.07364040141907
 20
13.597435634538302
 11
-45.257798304513365
 21
13.516777387609094
  0
LINE
  8
0
 10
-45.257798304513365
 20
13.516777387609094
 11
-45.57775139094665
 21
13.50224581807851
  0
LINE
  8
0
 10
-45.57775139094665
 20
13.50224581807851
 11
-46.02655190610042
 21
13.568024598761188
  0
LINE
  8
0
 10
-46.02655190610042
 20
13.568024598761188
 11
-46.34473033709652
 21
13.645209208807401
  0
LINE
  8
0
 10
-46.34473033709652
 20
13.645209208807401
 11
-46.60463367044518
 21
13.693654686983553
  0
LINE
  8
0
 10
-46.60463367044518
 20
13.693654686983553
 11
-47.0045314159645
 21
13.746172489116258
  0
LINE
  8
0
 10
-47.0045314159645
 20
13.746172489116258
 11
-47.54521289664941
 21
13.787821273102422
  0
LINE
  8
0
 10
-47.54521289664941
 20
13.787821273102422
 11
-48.22626484637887
 21
13.803608098795362
  0
LINE
  8
0
 10
-48.22626484637887
 20
13.803608098795362
 11
-49.04606929823609
 21
13.778574538825698
  0
LINE
  8
0
 10
-49.04606929823609
 20
13.778574538825698
 11
-50.00180725283535
 21
13.697882805399953
  0
LINE
  8
0
 10
-50.00180725283535
 20
13.697882805399953
 11
-50.29733290758339
 21
13.656860052459644
  0
LINE
  8
0
 10
-50.29733290758339
 20
13.656860052459644
 11
-50.685902220938914
 21
12.49295286526481
  0
LINE
  8
0
 10
-50.685902220938914
 20
12.49295286526481
 11
-50.882735821042075
 21
11.281787069200625
  0
LINE
  8
0
 10
-50.882735821042075
 20
11.281787069200625
 11
-50.64012507318261
 21
11.108125605725863
  0
LINE
  8
0
 10
-50.64012507318261
 20
11.108125605725863
 11
-49.8313604606527
 21
10.592523050239738
  0
LINE
  8
0
 10
-49.8313604606527
 20
10.592523050239738
 11
-49.11709334429489
 21
10.189374808398274
  0
LINE
  8
0
 10
-49.11709334429489
 20
10.189374808398274
 11
-48.50671528791165
 21
9.886852725929167
  0
LINE
  8
0
 10
-48.50671528791165
 20
9.886852725929167
 11
-48.008610457874184
 21
9.672463679901604
  0
LINE
  8
0
 10
-48.008610457874184
 20
9.672463679901604
 11
-47.63011234986368
 21
9.533124135463549
  0
LINE
  8
0
 10
-47.63011234986368
 20
9.533124135463549
 11
-47.37746564097282
 21
9.45523737453132
  0
LINE
  8
0
 10
-47.37746564097282
 20
9.45523737453132
 11
-47.059863155201036
 21
9.375716062856094
  0
LINE
  8
0
 10
-47.059863155201036
 20
9.375716062856094
 11
-46.63190111113003
 21
9.225392281554065
  0
LINE
  8
0
 10
-46.63190111113003
 20
9.225392281554065
 11
-46.35534987990795
 21
9.063835602519472
  0
LINE
  8
0
 10
-46.35534987990795
 20
9.063835602519472
 11
-46.229769911306015
 21
8.906833826874067
  0
LINE
  8
0
 10
-46.229769911306015
 20
8.906833826874067
 11
-46.67113066278477
 21
6.191032024559438
  0
LINE
  8
0
 10
-46.67113066278477
 20
6.191032024559438
 11
-46.83996527669919
 21
6.0818772756286155
  0
LINE
  8
0
 10
-46.83996527669919
 20
6.0818772756286155
 11
-47.153444027013705
 21
6.0162098016977525
  0
LINE
  8
0
 10
-47.153444027013705
 20
6.0162098016977525
 11
-47.60698435183083
 21
6.009144098961154
  0
LINE
  8
0
 10
-47.60698435183083
 20
6.009144098961154
 11
-47.93342373787127
 21
6.034289778921475
  0
LINE
  8
0
 10
-47.93342373787127
 20
6.034289778921475
 11
-48.197732592519536
 21
6.040416474277207
  0
LINE
  8
0
 10
-48.197732592519536
 20
6.040416474277207
 11
-48.60087621517063
 21
6.028106075094574
  0
LINE
  8
0
 10
-48.60087621517063
 20
6.028106075094574
 11
-49.141236947469515
 21
5.982484109413931
  0
LINE
  8
0
 10
-49.141236947469515
 20
5.982484109413931
 11
-49.81600183825013
 21
5.8888180842735895
  0
LINE
  8
0
 10
-49.81600183825013
 20
5.8888180842735895
 11
-50.62117437234836
 21
5.732602820155458
  0
LINE
  8
0
 10
-50.62117437234836
 20
5.732602820155458
 11
-51.551591907135126
 21
5.499644874023225
  0
LINE
  8
0
 10
-51.551591907135126
 20
5.499644874023225
 11
-51.83671006992694
 21
5.411747706154898
  0
LINE
  8
0
 10
-51.83671006992694
 20
5.411747706154898
 11
-52.03354367003007
 21
4.20058191009068
  0
LINE
  8
0
 10
-52.03354367003007
 20
4.20058191009068
 11
-52.03354367003015
 21
2.973526063079078
  0
LINE
  8
0
 10
-52.03354367003015
 20
2.973526063079078
 11
-51.76621740984502
 21
2.841030970760228
  0
LINE
  8
0
 10
-51.76621740984502
 20
2.841030970760228
 11
-50.885217620296054
 21
2.4618403003592255
  0
LINE
  8
0
 10
-50.885217620296054
 20
2.4618403003592255
 11
-50.11553054965212
 21
2.178489225377128
  0
LINE
  8
0
 10
-50.11553054965212
 20
2.178489225377128
 11
-49.464528774053996
 21
1.9777962502541317
  0
LINE
  8
0
 10
-49.464528774053996
 20
1.9777962502541317
 11
-48.93848384926915
 21
1.846085119853684
  0
LINE
  8
0
 10
-48.93848384926915
 20
1.846085119853684
 11
-48.54253555755198
 21
1.769265352228459
  0
LINE
  8
0
 10
-48.54253555755198
 20
1.769265352228459
 11
-48.28066664210366
 21
1.732914586571965
  0
LINE
  8
0
 10
-48.28066664210366
 20
1.732914586571965
 11
-47.95442090964685
 21
1.705370076543882
  0
LINE
  8
0
 10
-47.95442090964685
 20
1.705370076543882
 11
-47.50788723134546
 21
1.6256428883769278
  0
LINE
  8
0
 10
-47.50788723134546
 20
1.6256428883769278
 11
-47.2090017521198
 21
1.5105402631280465
  0
LINE
  8
0
 10
-47.2090017521198
 20
1.5105402631280465
 11
-47.05986315520098
 21
1.3757160628561447
  0
LINE
  8
0
 10
-47.05986315520098
 20
1.3757160628561447
 11
-47.05986315520105
 21
-1.3757160628560798
  0
LINE
  8
0
 10
-47.05986315520105
 20
-1.3757160628560798
 11
-47.209001752119946
 21
-1.5105402631275597
  0
LINE
  8
0
 10
-47.209001752119946
 20
-1.5105402631275597
 11
-47.50788723134535
 21
-1.625642888377427
  0
LINE
  8
0
 10
-47.50788723134535
 20
-1.625642888377427
 11
-47.95442090964684
 21
-1.70537007654387
  0
LINE
  8
0
 10
-47.95442090964684
 20
-1.70537007654387
 11
-48.280666642103895
 21
-1.7329145865719926
  0
LINE
  8
0
 10
-48.280666642103895
 20
-1.7329145865719926
 11
-48.542535557551425
 21
-1.7692653522281907
  0
LINE
  8
0
 10
-48.542535557551425
 20
-1.7692653522281907
 11
-48.938483849269225
 21
-1.846085119853685
  0
LINE
  8
0
 10
-48.938483849269225
 20
-1.846085119853685
 11
-49.464528774053974
 21
-1.9777962502541246
  0
LINE
  8
0
 10
-49.464528774053974
 20
-1.9777962502541246
 11
-50.115530549652206
 21
-2.178489225377113
  0
LINE
  8
0
 10
-50.115530549652206
 20
-2.178489225377113
 11
-50.885217620295975
 21
-2.461840300359151
  0
LINE
  8
0
 10
-50.885217620295975
 20
-2.461840300359151
 11
-51.76621740984511
 21
-2.8410309707602237
  0
LINE
  8
0
 10
-51.76621740984511
 20
-2.8410309707602237
 11
-52.03354367003053
 21
-2.9735260630790292
  0
LINE
  8
0
 10
-52.03354367003053
 20
-2.9735260630790292
 11
-52.03354367003061
 21
-4.20058191009066
  0
LINE
  8
0
 10
-52.03354367003061
 20
-4.20058191009066
 11
-51.836710069927015
 21
-5.411747706154863
  0
LINE
  8
0
 10
-51.836710069927015
 20
-5.411747706154863
 11
-51.551591907135034
 21
-5.499644874023207
  0
LINE
  8
0
 10
-51.551591907135034
 20
-5.499644874023207
 11
-50.62117437234845
 21
-5.732602820155396
  0
LINE
  8
0
 10
-50.62117437234845
 20
-5.732602820155396
 11
-49.816001838250045
 21
-5.8888180842735585
  0
LINE
  8
0
 10
-49.816001838250045
 20
-5.8888180842735585
 11
-49.14123694746954
 21
-5.9824841094139245
  0
LINE
  8
0
 10
-49.14123694746954
 20
-5.9824841094139245
 11
-48.60087621517055
 21
-6.028106075094563
  0
LINE
  8
0
 10
-48.60087621517055
 20
-6.028106075094563
 11
-48.19773259252013
 21
-6.04041647427703
  0
LINE
  8
0
 10
-48.19773259252013
 20
-6.04041647427703
 11
-47.93342373787103
 21
-6.034289778921464
  0
LINE
  8
0
 10
-47.93342373787103
 20
-6.034289778921464
 11
-47.60698435183084
 21
-6.009144098961141
  0
LINE
  8
0
 10
-47.60698435183084
 20
-6.009144098961141
 11
-47.153444027013734
 21
-6.016209801698264
  0
LINE
  8
0
 10
-47.153444027013734
 20
-6.016209801698264
 11
-46.83996527669913
 21
-6.081877275628111
  0
LINE
  8
0
 10
-46.83996527669913
 20
-6.081877275628111
 11
-46.67113066278471
 21
-6.191032024559361
  0
LINE
  8
0
 10
-46.67113066278471
 20
-6.191032024559361
 11
-46.2297699113061
 21
-8.906833826874015
  0
LINE
  8
0
 10
-46.2297699113061
 20
-8.906833826874015
 11
-46.35534987990817
 21
-9.063835602519017
  0
LINE
  8
0
 10
-46.35534987990817
 20
-9.063835602519017
 11
-46.63190111112984
 21
-9.225392281554543
  0
LINE
  8
0
 10
-46.63190111112984
 20
-9.225392281554543
 11
-47.05986315520104
 21
-9.375716062856082
  0
LINE
  8
0
 10
-47.05986315520104
 20
-9.375716062856082
 11
-47.37746564097306
 21
-9.455237374531386
  0
LINE
  8
0
 10
-47.37746564097306
 20
-9.455237374531386
 11
-47.630112349863175
 21
-9.533124135463197
  0
LINE
  8
0
 10
-47.630112349863175
 20
-9.533124135463197
 11
-48.00861045787427
 21
-9.672463679901622
  0
LINE
  8
0
 10
-48.00861045787427
 20
-9.672463679901622
 11
-48.50671528791164
 21
-9.886852725929156
  0
LINE
  8
0
 10
-48.50671528791164
 20
-9.886852725929156
 11
-49.117093344294986
 21
-10.189374808398274
  0
LINE
  8
0
 10
-49.117093344294986
 20
-10.189374808398274
 11
-49.831360460652625
 21
-10.592523050239654
  0
LINE
  8
0
 10
-49.831360460652625
 20
-10.592523050239654
 11
-50.6401250731827
 21
-11.108125605725872
  0
LINE
  8
0
 10
-50.6401250731827
 20
-11.108125605725872
 11
-50.88273582104211
 21
-11.281787069200579
  0
LINE
  8
0
 10
-50.88273582104211
 20
-11.281787069200579
 11
-50.685902220938964
 21
-12.49295286526482
  0
LINE
  8
0
 10
-50.685902220938964
 20
-12.49295286526482
 11
-50.29733290758346
 21
-13.656860052459662
  0
LINE
  8
0
 10
-50.29733290758346
 20
-13.656860052459662
 11
-50.00180725283526
 21
-13.697882805399967
  0
LINE
  8
0
 10
-50.00180725283526
 20
-13.697882805399967
 11
-49.046069298236176
 21
-13.778574538825696
  0
LINE
  8
0
 10
-49.046069298236176
 20
-13.778574538825696
 11
-48.22626484637879
 21
-13.803608098795365
  0
LINE
  8
0
 10
-48.22626484637879
 20
-13.803608098795365
 11
-47.545212896649424
 21
-13.787821273102466
  0
LINE
  8
0
 10
-47.545212896649424
 20
-13.787821273102466
 11
-47.00453141596441
 21
-13.746172489116276
  0
LINE
  8
0
 10
-47.00453141596441
 20
-13.746172489116276
 11
-46.60463367044578
 21
-13.693654686983518
  0
LINE
  8
0
 10
-46.60463367044578
 20
-13.693654686983518
 11
-46.34473033709628
 21
-13.645209208807394
  0
LINE
  8
0
 10
-46.34473033709628
 20
-13.645209208807394
 11
-46.02655190610042
 21
-13.56802459876122
  0
LINE
  8
0
 10
-46.02655190610042
 20
-13.56802459876122
 11
-45.57775139094659
 21
-13.50224581807906
  0
LINE
  8
0
 10
-45.57775139094659
 20
-13.50224581807906
 11
-45.25779830451338
 21
-13.51677738760863
  0
LINE
  8
0
 10
-45.25779830451338
 20
-13.51677738760863
 11
-45.07364040141901
 21
-13.597435634538261
  0
LINE
  8
0
 10
-45.07364040141901
 20
-13.597435634538261
 11
-44.20234991008887
 21
-16.207269273320424
  0
LINE
  8
0
 10
-44.20234991008887
 20
-16.207269273320424
 11
-44.301118795151446
 21
-16.38238236081898
  0
LINE
  8
0
 10
-44.301118795151446
 20
-16.38238236081898
 11
-44.54817324674642
 21
-16.58620886051496
  0
LINE
  8
0
 10
-44.54817324674642
 20
-16.58620886051496
 11
-44.94647966444399
 21
-16.80323592797734
  0
LINE
  8
0
 10
-44.94647966444399
 20
-16.80323592797734
 11
-45.247213165978394
 21
-16.932674481098054
  0
LINE
  8
0
 10
-45.247213165978394
 20
-16.932674481098054
 11
-45.48409425126005
 21
-17.05008001110938
  0
LINE
  8
0
 10
-45.48409425126005
 20
-17.05008001110938
 11
-45.83533927338286
 21
-17.24833051135147
  0
LINE
  8
0
 10
-45.83533927338286
 20
-17.24833051135147
 11
-46.292603355217295
 21
-17.53984490932737
  0
LINE
  8
0
 10
-46.292603355217295
 20
-17.53984490932737
 11
-46.84654922134227
 21
-17.93636093611421
  0
LINE
  8
0
 10
-46.84654922134227
 20
-17.93636093611421
 11
-47.48689724028738
 21
-18.44886501711526
  0
LINE
  8
0
 10
-47.48689724028738
 20
-18.44886501711526
 11
-48.20248009715836
 21
-19.087525622333096
  0
LINE
  8
0
 10
-48.20248009715836
 20
-19.087525622333096
 11
-48.41409184176015
 21
-19.29785571627987
  0
LINE
  8
0
 10
-48.41409184176015
 20
-19.29785571627987
 11
-48.02552252840461
 21
-20.461762903474693
  0
LINE
  8
0
 10
-48.02552252840461
 20
-20.461762903474693
 11
-47.45528124290657
 21
-21.548266897024156
  0
LINE
  8
0
 10
-47.45528124290657
 20
-21.548266897024156
 11
-47.15700205542765
 21
-21.541352767283524
  0
LINE
  8
0
 10
-47.15700205542765
 20
-21.541352767283524
 11
-46.20069679201414
 21
-21.467688414492482
  0
LINE
  8
0
 10
-46.20069679201414
 20
-21.467688414492482
 11
-45.38749292707742
 21
-21.36089191425997
  0
LINE
  8
0
 10
-45.38749292707742
 20
-21.36089191425997
 11
-44.717792806157064
 21
-21.23606110822681
  0
LINE
  8
0
 10
-44.717792806157064
 20
-21.23606110822681
 11
-44.19079394342886
 21
-21.10822025620194
  0
LINE
  8
0
 10
-44.19079394342886
 20
-21.10822025620194
 11
-43.80449921659434
 21
-20.99223443624286
  0
LINE
  8
0
 10
-43.80449921659434
 20
-20.99223443624286
 11
-43.555732764357245
 21
-20.902724887683707
  0
LINE
  8
0
 10
-43.555732764357245
 20
-20.902724887683707
 11
-43.25405594263708
 21
-20.775500388408666
  0
LINE
  8
0
 10
-43.25405594263708
 20
-20.775500388408666
 11
-42.82161893474494
 21
-20.63858076017489
  0
LINE
  8
0
 10
-42.82161893474494
 20
-20.63858076017489
 11
-42.503478129068114
 21
-20.601600065286444
  0
LINE
  8
0
 10
-42.503478129068114
 20
-20.601600065286444
 11
-42.30876652975025
 21
-20.651672803986802
  0
LINE
  8
0
 10
-42.30876652975025
 20
-20.651672803986802
 11
-41.030112264626204
 21
-23.087944958874548
  0
LINE
  8
0
 10
-41.030112264626204
 20
-23.087944958874548
 11
-41.09951200390708
 21
-23.276634021243108
  0
LINE
  8
0
 10
-41.09951200390708
 20
-23.276634021243108
 11
-41.31067109535077
 21
-23.51745134232256
  0
LINE
  8
0
 10
-41.31067109535077
 20
-23.51745134232256
 11
-41.66900595967708
 21
-23.795560808897566
  0
LINE
  8
0
 10
-41.66900595967708
 20
-23.795560808897566
 11
-41.94508163725216
 21
-23.971564212928815
  0
LINE
  8
0
 10
-41.94508163725216
 20
-23.971564212928815
 11
-42.16006200324448
 21
-24.125447770462642
  0
LINE
  8
0
 10
-42.16006200324448
 20
-24.125447770462642
 11
-42.474956877906514
 21
-24.377474642688323
  0
LINE
  8
0
 10
-42.474956877906514
 20
-24.377474642688323
 11
-42.8795373120083
 21
-24.738564322830484
  0
LINE
  8
0
 10
-42.8795373120083
 20
-24.738564322830484
 11
-43.362704080916636
 21
-25.21880473712154
  0
LINE
  8
0
 10
-43.362704080916636
 20
-25.21880473712154
 11
-43.91254832511786
 21
-25.827391070790345
  0
LINE
  8
0
 10
-43.91254832511786
 20
-25.827391070790345
 11
-44.51641620621516
 21
-26.572568751537624
  0
LINE
  8
0
 10
-44.51641620621516
 20
-26.572568751537624
 11
-44.69154831452874
 21
-26.814120037004585
  0
LINE
  8
0
 10
-44.69154831452874
 20
-26.814120037004585
 11
-44.121307029030646
 21
-27.900624030554024
  0
LINE
  8
0
 10
-44.121307029030646
 20
-27.900624030554024
 11
-43.3841627211504
 21
-28.881584947739398
  0
LINE
  8
0
 10
-43.3841627211504
 20
-28.881584947739398
 11
-43.09085527521765
 21
-28.826913007646304
  0
LINE
  8
0
 10
-43.09085527521765
 20
-28.826913007646304
 11
-42.15875050698811
 21
-28.600800436681677
  0
LINE
  8
0
 10
-42.15875050698811
 20
-28.600800436681677
 11
-41.37320878191757
 21
-28.36493984950538
  0
LINE
  8
0
 10
-41.37320878191757
 20
-28.36493984950538
 11
-40.732205371160774
 21
-28.13429811543762
  0
LINE
  8
0
 10
-40.732205371160774
 20
-28.13429811543762
 11
-40.23253812011428
 21
-27.92357620628981
  0
LINE
  8
0
 10
-40.23253812011428
 20
-27.92357620628981
 11
-39.869851242477594
 21
-27.7471263403168
  0
LINE
  8
0
 10
-39.869851242477594
 20
-27.7471263403168
 11
-39.63866459179484
 21
-27.61887097166509
  0
LINE
  8
0
 10
-39.63866459179484
 20
-27.61887097166509
 11
-39.36130265056938
 21
-27.444901630864454
  0
LINE
  8
0
 10
-39.36130265056938
 20
-27.444901630864454
 11
-38.95642904129464
 21
-27.240387301529747
  0
LINE
  8
0
 10
-38.95642904129464
 20
-27.240387301529747
 11
-38.64834019612955
 21
-27.152852122795835
  0
LINE
  8
0
 10
-38.64834019612955
 20
-27.152852122795835
 11
-38.44811782873323
 21
-27.17104249563658
  0
LINE
  8
0
 10
-38.44811782873323
 20
-27.17104249563658
 11
-36.79521626363581
 21
-29.370654997533176
  0
LINE
  8
0
 10
-36.79521626363581
 20
-29.370654997533176
 11
-36.83344944034161
 21
-29.568033087170207
  0
LINE
  8
0
 10
-36.83344944034161
 20
-29.568033087170207
 11
-37.003244262082404
 21
-29.83960418751268
  0
LINE
  8
0
 10
-37.003244262082404
 20
-29.83960418751268
 11
-37.31232688827605
 21
-30.171593164100205
  0
LINE
  8
0
 10
-37.31232688827605
 20
-30.171593164100205
 11
-37.55659452685848
 21
-30.389603023327908
  0
LINE
  8
0
 10
-37.55659452685848
 20
-30.389603023327908
 11
-37.74410629500625
 21
-30.57597910507543
  0
LINE
  8
0
 10
-37.74410629500625
 20
-30.57597910507543
 11
-38.01449541036045
 21
-30.875254985677685
  0
LINE
  8
0
 10
-38.01449541036045
 20
-30.875254985677685
 11
-38.35591377600266
 21
-31.296567914942095
  0
LINE
  8
0
 10
-38.35591377600266
 20
-31.296567914942095
 11
-38.75578768217545
 21
-31.84809474226591
  0
LINE
  8
0
 10
-38.75578768217545
 20
-31.84809474226591
 11
-39.200887474527875
 21
-32.53700126223614
  0
LINE
  8
0
 10
-39.200887474527875
 20
-32.53700126223614
 11
-39.67740051892829
 21
-33.36939630800533
  0
LINE
  8
0
 10
-39.67740051892829
 20
-33.36939630800533
 11
-39.81151716134088
 21
-33.63591273357989
  0
LINE
  8
0
 10
-39.81151716134088
 20
-33.63591273357989
 11
-39.07437285346068
 21
-34.616873650765264
  0
LINE
  8
0
 10
-39.07437285346068
 20
-34.616873650765264
 11
-38.18941717356841
 21
-35.46688511910659
  0
LINE
  8
0
 10
-38.18941717356841
 20
-35.46688511910659
 11
-37.90867797796412
 21
-35.36587134319157
  0
LINE
  8
0
 10
-37.90867797796412
 20
-35.36587134319157
 11
-37.02491472880357
 21
-34.993166750869875
  0
LINE
  8
0
 10
-37.02491472880357
 20
-34.993166750869875
 11
-36.287380261652466
 21
-34.634350742065806
  0
LINE
  8
0
 10
-36.287380261652466
 20
-34.634350742065806
 11
-35.691675212694236
 21
-34.30387157972526
  0
LINE
  8
0
 10
-35.691675212694236
 20
-34.30387157972526
 11
-35.232280692668425
 21
-34.01572620021431
  0
LINE
  8
0
 10
-35.232280692668425
 20
-34.01572620021431
 11
-34.90259506384972
 21
-33.78338224707122
  0
LINE
  8
0
 10
-34.90259506384972
 20
-33.78338224707122
 11
-34.694975827537235
 21
-33.619702805005595
  0
LINE
  8
0
 10
-34.694975827537235
 20
-33.619702805005595
 11
-34.449112295392695
 21
-33.40349433722422
  0
LINE
  8
0
 10
-34.449112295392695
 20
-33.40349433722422
 11
-34.08228809854525
 21
-33.13668212049191
  0
LINE
  8
0
 10
-34.08228809854525
 20
-33.13668212049191
 11
-33.792230553150056
 21
-33.000859573061625
  0
LINE
  8
0
 10
-33.792230553150056
 20
-33.000859573061625
 11
-33.59168307181887
 21
-32.986696458941154
  0
LINE
  8
0
 10
-33.59168307181887
 20
-32.986696458941154
 11
-31.607343489054866
 21
-34.89268049945075
  0
LINE
  8
0
 10
-31.607343489054866
 20
-34.89268049945075
 11
-31.61341988399187
 21
-35.09363562751258
  0
LINE
  8
0
 10
-31.61341988399187
 20
-35.09363562751258
 11
-31.73745283933579
 21
-35.38892695826895
  0
LINE
  8
0
 10
-31.73745283933579
 20
-35.38892695826895
 11
-31.989278149731984
 21
-35.76619710476116
  0
LINE
  8
0
 10
-31.989278149731984
 20
-35.76619710476116
 11
-32.19541134579039
 21
-36.02056707834662
  0
LINE
  8
0
 10
-32.19541134579039
 20
-36.02056707834662
 11
-32.350598059793974
 21
-36.23460864168943
  0
LINE
  8
0
 10
-32.350598059793974
 20
-36.23460864168943
 11
-32.56947847978152
 21
-36.57338244256304
  0
LINE
  8
0
 10
-32.56947847978152
 20
-36.57338244256304
 11
-32.83889222063283
 21
-37.04400683738725
  0
LINE
  8
0
 10
-32.83889222063283
 20
-37.04400683738725
 11
-33.14511673994431
 21
-37.65253582261985
  0
LINE
  8
0
 10
-33.14511673994431
 20
-37.65253582261985
 11
-33.473944229626156
 21
-38.40392021189021
  0
LINE
  8
0
 10
-33.473944229626156
 20
-38.40392021189021
 11
-33.810760999780484
 21
-39.30197402823289
  0
LINE
  8
0
 10
-33.810760999780484
 20
-39.30197402823289
 11
-33.900388625701964
 21
-39.58655295848737
  0
LINE
  8
0
 10
-33.900388625701964
 20
-39.58655295848737
 11
-33.015432945809636
 21
-40.436564426828674
  0
LINE
  8
0
 10
-33.015432945809636
 20
-40.436564426828674
 11
-32.00558578116856
 21
-41.13361159578627
  0
LINE
  8
0
 10
-32.00558578116856
 20
-41.13361159578627
 11
-31.74468583359342
 21
-40.98887218778547
  0
LINE
  8
0
 10
-31.74468583359342
 20
-40.98887218778547
 11
-30.932153107435656
 21
-40.47922842727513
  0
LINE
  8
0
 10
-30.932153107435656
 20
-40.47922842727513
 11
-30.261727653494177
 21
-40.00675014299392
  0
LINE
  8
0
 10
-30.261727653494177
 20
-40.00675014299392
 11
-29.726749414193076
 21
-39.58499278909252
  0
LINE
  8
0
 10
-29.726749414193076
 20
-39.58499278909252
 11
-29.319525701947775
 21
-39.22688675319195
  0
LINE
  8
0
 10
-29.319525701947775
 20
-39.22688675319195
 11
-29.03138000655757
 21
-38.944666299220536
  0
LINE
  8
0
 10
-29.03138000655757
 20
-38.944666299220536
 11
-28.852705413778477
 21
-38.74980199531363
  0
LINE
  8
0
 10
-28.852705413778477
 20
-38.74980199531363
 11
-28.644708027051223
 21
-38.49695408629796
  0
LINE
  8
0
 10
-28.644708027051223
 20
-38.49695408629796
 11
-28.32543379664554
 21
-38.174754278431415
  0
LINE
  8
0
 10
-28.32543379664554
 20
-38.174754278431415
 11
-28.060919889085767
 21
-37.99416209493891
  0
LINE
  8
0
 10
-28.060919889085767
 20
-37.99416209493891
 11
-27.865241368243446
 21
-37.94801231107338
  0
LINE
  8
0
 10
-27.865241368243446
 20
-37.94801231107338
 11
-25.60085712068084
 21
-39.51100390471412
  0
LINE
  8
0
 10
-25.60085712068084
 20
-39.51100390471412
 11
-25.57461935841197
 21
-39.71033143894084
  0
LINE
  8
0
 10
-25.57461935841197
 20
-39.71033143894084
 11
-25.649678058967122
 21
-40.02169510975389
  0
LINE
  8
0
 10
-25.649678058967122
 20
-40.02169510975389
 11
-25.83772391030434
 21
-40.43447532752753
  0
LINE
  8
0
 10
-25.83772391030434
 20
-40.43447532752753
 11
-26.000383922337583
 21
-40.718617366769294
  0
LINE
  8
0
 10
-26.000383922337583
 20
-40.718617366769294
 11
-26.119226327820115
 21
-40.954780847647655
  0
LINE
  8
0
 10
-26.119226327820115
 20
-40.954780847647655
 11
-26.280929164535944
 21
-41.324278505299695
  0
LINE
  8
0
 10
-26.280929164535944
 20
-41.324278505299695
 11
-26.471360606224824
 21
-41.83202544106538
  0
LINE
  8
0
 10
-26.471360606224824
 20
-41.83202544106538
 11
-26.676004684477146
 21
-42.48179600313481
  0
LINE
  8
0
 10
-26.676004684477146
 20
-42.48179600313481
 11
-26.880043412230805
 21
-43.27619780070726
  0
LINE
  8
0
 10
-26.880043412230805
 20
-43.27619780070726
 11
-27.06844053071375
 21
-44.2166512655061
  0
LINE
  8
0
 10
-27.06844053071375
 20
-44.2166512655061
 11
-27.111257831711878
 21
-44.51192225562927
  0
LINE
  8
0
 10
-27.111257831711878
 20
-44.51192225562927
 11
-26.101410667070827
 21
-45.208969424586925
  0
LINE
  8
0
 10
-26.101410667070827
 20
-45.208969424586925
 11
-24.99282652879699
 21
-45.73499913862695
  0
LINE
  8
0
 10
-24.99282652879699
 20
-45.73499913862695
 11
-24.758523000848715
 21
-45.55028277317942
  0
LINE
  8
0
 10
-24.758523000848715
 20
-45.55028277317942
 11
-24.038264968497426
 21
-44.9168993501741
  0
LINE
  8
0
 10
-24.038264968497426
 20
-44.9168993501741
 11
-23.45231219486437
 21
-44.342995729797224
  0
LINE
  8
0
 10
-23.45231219486437
 20
-44.342995729797224
 11
-22.991916420607154
 21
-43.84088347826205
  0
LINE
  8
0
 10
-22.991916420607154
 20
-43.84088347826205
 11
-22.64741039638475
 21
-43.422091544197244
  0
LINE
  8
0
 10
-22.64741039638475
 20
-43.422091544197244
 11
-22.408267456577676
 21
-43.09730395091178
  0
LINE
  8
0
 10
-22.408267456577676
 20
-43.09730395091178
 11
-22.263165085431513
 21
-42.876301668277286
  0
LINE
  8
0
 10
-22.263165085431513
 20
-42.876301668277286
 11
-22.09842086718179
 21
-42.59336294605593
  0
LINE
  8
0
 10
-22.09842086718179
 20
-42.59336294605593
 11
-21.83496563807834
 21
-42.22412035283513
  0
LINE
  8
0
 10
-21.83496563807834
 20
-42.22412035283513
 11
-21.602846139617018
 21
-42.003435775972136
  0
LINE
  8
0
 10
-21.602846139617018
 20
-42.003435775972136
 11
-21.41710455016818
 21
-41.92649457752231
  0
LINE
  8
0
 10
-21.41710455016818
 20
-41.92649457752231
 11
-18.931322000392534
 21
-43.106013063020605
  0
LINE
  8
0
 10
-18.931322000392534
 20
-43.106013063020605
 11
-18.873449625178488
 21
-43.29855052497767
  0
LINE
  8
0
 10
-18.873449625178488
 20
-43.29855052497767
 11
-18.897590090027016
 21
-43.61792238032516
  0
LINE
  8
0
 10
-18.897590090027016
 20
-43.61792238032516
 11
-19.016986193531576
 21
-44.05552187856336
  0
LINE
  8
0
 10
-19.016986193531576
 20
-44.05552187856336
 11
-19.131960212669366
 21
-44.36207685389802
  0
LINE
  8
0
 10
-19.131960212669366
 20
-44.36207685389802
 11
-19.211380353753896
 21
-44.614245742208155
  0
LINE
  8
0
 10
-19.211380353753896
 20
-44.614245742208155
 11
-19.31171758866564
 21
-45.004897461393604
  0
LINE
  8
0
 10
-19.31171758866564
 20
-45.004897461393604
 11
-19.418234656881392
 21
-45.53661655917163
  0
LINE
  8
0
 10
-19.418234656881392
 20
-45.53661655917163
 11
-19.51599811994242
 21
-46.21079998182905
  0
LINE
  8
0
 10
-19.51599811994242
 20
-46.21079998182905
 11
-19.589963589895667
 21
-47.02764459842651
  0
LINE
  8
0
 10
-19.589963589895667
 20
-47.02764459842651
 11
-19.625061670298987
 21
-47.98614046094071
  0
LINE
  8
0
 10
-19.625061670298987
 20
-47.98614046094071
 11
-19.61995970076883
 21
-48.28445614738711
  0
LINE
  8
0
 10
-19.61995970076883
 20
-48.28445614738711
 11
-18.511375562494962
 21
-48.81048586142711
  0
LINE
  8
0
 10
-18.511375562494962
 20
-48.81048586142711
 11
-17.332766197457154
 21
-49.1518742272666
  0
LINE
  8
0
 10
-17.332766197457154
 20
-49.1518742272666
 11
-17.13112742743564
 21
-48.931964961210404
  0
LINE
  8
0
 10
-17.13112742743564
 20
-48.931964961210404
 11
-16.521798393594594
 21
-48.19124617366494
  0
LINE
  8
0
 10
-16.521798393594594
 20
-48.19124617366494
 11
-16.03549416932023
 21
-47.53078101950247
  0
LINE
  8
0
 10
-16.03549416932023
 20
-47.53078101950247
 11
-15.661604868825393
 21
-46.961318313900854
  0
LINE
  8
0
 10
-15.661604868825393
 20
-46.961318313900854
 11
-15.388739057692558
 21
-46.49268697278282
  0
LINE
  8
0
 10
-15.388739057692558
 20
-46.49268697278282
 11
-15.204792549993613
 21
-46.13374406824633
  0
LINE
  8
0
 10
-15.204792549993613
 20
-46.13374406824633
 11
-15.097020475674299
 21
-45.89232764991732
  0
LINE
  8
0
 10
-15.097020475674299
 20
-45.89232764991732
 11
-14.979796214618617
 21
-45.58662607877495
  0
LINE
  8
0
 10
-14.979796214618617
 20
-45.58662607877495
 11
-14.778983338864515
 21
-45.179903889410085
  0
LINE
  8
0
 10
-14.778983338864515
 20
-45.179903889410085
 11
-14.58527002258503
 21
-44.92484253379709
  0
LINE
  8
0
 10
-14.58527002258503
 20
-44.92484253379709
 11
-14.414275974130842
 21
-44.819102657387475
  0
LINE
  8
0
 10
-14.414275974130842
 20
-44.819102657387475
 11
-11.771475584459864
 21
-45.58459912554146
  0
LINE
  8
0
 10
-11.771475584459864
 20
-45.58459912554146
 11
-11.683467460419724
 21
-45.76535989609944
  0
LINE
  8
0
 10
-11.683467460419724
 20
-45.76535989609944
 11
-11.656064464202451
 21
-46.08446837268621
  0
LINE
  8
0
 10
-11.656064464202451
 20
-46.08446837268621
 11
-11.703718523509469
 21
-46.53555355424503
  0
LINE
  8
0
 10
-11.703718523509469
 20
-46.53555355424503
 11
-11.76802878304921
 21
-46.856581852837316
  0
LINE
  8
0
 10
-11.76802878304921
 20
-46.856581852837316
 11
-11.805969719799128
 21
-47.11822510683022
  0
LINE
  8
0
 10
-11.805969719799128
 20
-47.11822510683022
 11
-11.842342671227307
 21
-47.51991321322209
  0
LINE
  8
0
 10
-11.842342671227307
 20
-47.51991321322209
 11
-11.862186629853976
 21
-48.06183322767918
  0
LINE
  8
0
 10
-11.862186629853976
 20
-48.06183322767918
 11
-11.85053745538321
 21
-48.74296851441003
  0
LINE
  8
0
 10
-11.85053745538321
 20
-48.74296851441003
 11
-11.792514000716537
 21
-49.561100103531366
  0
LINE
  8
0
 10
-11.792514000716537
 20
-49.561100103531366
 11
-11.673404021193951
 21
-50.5128138243965
  0
LINE
  8
0
 10
-11.673404021193951
 20
-50.5128138243965
 11
-11.620514919466423
 21
-50.806447987585244
  0
LINE
  8
0
 10
-11.620514919466423
 20
-50.806447987585244
 11
-10.441905554428622
 21
-51.14783635342466
  0
LINE
  8
0
 10
-10.441905554428622
 20
-51.14783635342466
 11
-9.223796326086283
 21
-51.29574159171131
  0
LINE
  8
0
 10
-9.223796326086283
 20
-51.29574159171131
 11
-9.060044652219133
 21
-51.04633495952433
  0
LINE
  8
0
 10
-9.060044652219133
 20
-51.04633495952433
 11
-8.577425918798998
 21
-50.21746503495448
  0
LINE
  8
0
 10
-8.577425918798998
 20
-50.21746503495448
 11
-8.20336526784818
 21
-49.48754404757283
  0
LINE
  8
0
 10
-8.20336526784818
 20
-49.48754404757283
 11
-7.925665977603526
 21
-48.865479672854875
  0
LINE
  8
0
 10
-7.925665977603526
 20
-48.865479672854875
 11
-7.731507460738787
 21
-48.359146230257856
  0
LINE
  8
0
 10
-7.731507460738787
 20
-48.359146230257856
 11
-7.6075215030747225
 21
-47.975344447153795
  0
LINE
  8
0
 10
-7.6075215030747225
 20
-47.975344447153795
 11
-7.539870965697059
 21
-47.71976645155478
  0
LINE
  8
0
 10
-7.539870965697059
 20
-47.71976645155478
 11
-7.473202708621689
 21
-47.39921954160633
  0
LINE
  8
0
 10
-7.473202708621689
 20
-47.39921954160633
 11
-7.340233134216819
 21
-46.96555164716063
  0
LINE
  8
0
 10
-7.340233134216819
 20
-46.96555164716063
 11
-7.18994307325789
 21
-46.68271946793045
  0
LINE
  8
0
 10
-7.18994307325789
 20
-46.68271946793045
 11
-7.038125221834268
 21
-46.55091952081745
  0
LINE
  8
0
 10
-7.038125221834268
 20
-46.55091952081745
 11
-4.306754134161279
 21
-46.88256801519872
  0
LINE
  8
0
 10
-4.306754134161279
 20
-46.88256801519872
 11
-4.190889625479149
 21
-47.046870485349444
  0
LINE
  8
0
 10
-4.190889625479149
 20
-47.046870485349444
 11
-4.112652891403974
 21
-47.35745084125184
  0
LINE
  8
0
 10
-4.112652891403974
 20
-47.35745084125184
 11
-4.087330691408922
 21
-47.81033883687306
  0
LINE
  8
0
 10
-4.087330691408922
 20
-47.81033883687306
 11
-4.099311589409161
 21
-48.137525994417835
  0
LINE
  8
0
 10
-4.099311589409161
 20
-48.137525994417835
 11
-4.094790671492102
 21
-48.40186719124998
  0
LINE
  8
0
 10
-4.094790671492102
 20
-48.40186719124998
 11
-4.066257299100553
 21
-48.80418817388976
  0
LINE
  8
0
 10
-4.066257299100553
 20
-48.80418817388976
 11
-3.998914200033265
 21
-49.34227366130898
  0
LINE
  8
0
 10
-3.998914200033265
 20
-49.34227366130898
 11
-3.878154095530466
 21
-50.01271976597082
  0
LINE
  8
0
 10
-3.878154095530466
 20
-50.01271976597082
 11
-3.689644493241419
 21
-50.81094914920253
  0
LINE
  8
0
 10
-3.689644493241419
 20
-50.81094914920253
 11
-3.4194113396969747
 21
-51.73123184296041
  0
LINE
  8
0
 10
-3.4194113396969747
 20
-51.73123184296041
 11
-3.3201049057254246
 21
-52.012579512303724
  0
LINE
  8
0
 10
-3.3201049057254246
 20
-52.012579512303724
 11
-2.1019956773830275
 21
-52.160484750590385
  0
LINE
  8
0
 10
-2.1019956773830275
 20
-52.160484750590385
 11
-0.8759349749069307
 21
-52.111076193343806
  0
LINE
  8
0
 10
-0.8759349749069307
 20
-52.111076193343806
 11
-0.754311479532498
 21
-51.83863169579234
  0
LINE
  8
0
 10
-0.754311479532498
 20
-51.83863169579234
 11
-0.4109026182208999
 21
-50.94307792985912
  0
LINE
  8
0
 10
-0.4109026182208999
 20
-50.94307792985912
 11
-0.1587735149682419
 21
-50.16260567942164
  0
LINE
  8
0
 10
-0.1587735149682419
 20
-50.16260567942164
 11
0.01554349927761881
 21
-49.504050776137156
  0
LINE
  8
0
 10
0.01554349927761881
 20
-49.504050776137156
 11
0.12596611827423876
 21
-48.97312900225969
  0
LINE
  8
0
 10
0.12596611827423876
 20
-48.97312900225969
 11
0.1867803547267511
 21
-48.57440860516865
  0
LINE
  8
0
 10
0.1867803547267511
 20
-48.57440860516865
 11
0.2125572417798732
 21
-48.31128836813671
  0
LINE
  8
0
 10
0.2125572417798732
 20
-48.31128836813671
 11
0.22694282203590116
 21
-47.984198115974316
  0
LINE
  8
0
 10
0.22694282203590116
 20
-47.984198115974316
 11
0.28862525296015673
 21
-47.53481628711866
  0
LINE
  8
0
 10
0.28862525296015673
 20
-47.53481628711866
 11
0.39159962496342904
 21
-47.231538489148434
  0
LINE
  8
0
 10
0.39159962496342904
 20
-47.231538489148434
 11
0.5203092767508573
 21
-47.07709202073095
  0
LINE
  8
0
 10
0.5203092767508573
 20
-47.07709202073095
 11
3.2695099859783308
 21
-46.966303019541975
  0
LINE
  8
0
 10
3.2695099859783308
 20
-46.966303019541975
 11
3.410230049388412
 21
-47.10989184161265
  0
LINE
  8
0
 10
3.410230049388412
 20
-47.10989184161265
 11
3.5372742310048095
 21
-47.40390020875316
  0
LINE
  8
0
 10
3.5372742310048095
 20
-47.40390020875316
 11
3.6349168586231975
 21
-47.846861457241296
  0
LINE
  8
0
 10
3.6349168586231975
 20
-47.846861457241296
 11
3.675575621127393
 21
-48.17173349822167
  0
LINE
  8
0
 10
3.675575621127393
 20
-48.17173349822167
 11
3.722441304312107
 21
-48.43192633974712
  0
LINE
  8
0
 10
3.722441304312107
 20
-48.43192633974712
 11
3.8151420011663326
 21
-48.82446029651395
  0
LINE
  8
0
 10
3.8151420011663326
 20
-48.82446029651395
 11
3.9679280070354377
 21
-49.344775125414415
  0
LINE
  8
0
 10
3.9679280070354377
 20
-49.344775125414415
 11
4.194671418296009
 21
-49.98716784606564
  0
LINE
  8
0
 10
4.194671418296009
 20
-49.98716784606564
 11
4.508784868527681
 21
-50.74482130167263
  0
LINE
  8
0
 10
4.508784868527681
 20
-50.74482130167263
 11
4.92314229936413
 21
-51.609838129957176
  0
LINE
  8
0
 10
4.92314229936413
 20
-51.609838129957176
 11
5.066294081103093
 21
-51.87161254860434
  0
LINE
  8
0
 10
5.066294081103093
 20
-51.87161254860434
 11
6.292354783579168
 21
-51.82220399135766
  0
LINE
  8
0
 10
6.292354783579168
 20
-51.82220399135766
 11
7.494612632014958
 21
-51.57676129425722
  0
LINE
  8
0
 10
7.494612632014958
 20
-51.57676129425722
 11
7.570957964252355
 21
-51.28833510071939
  0
LINE
  8
0
 10
7.570957964252355
 20
-51.28833510071939
 11
7.766262844331817
 21
-50.34929186554774
  0
LINE
  8
0
 10
7.766262844331817
 20
-50.34929186554774
 11
7.8899303885493985
 21
-49.53848217337754
  0
LINE
  8
0
 10
7.8899303885493985
 20
-49.53848217337754
 11
7.956350407692011
 21
-48.860492967598624
  0
LINE
  8
0
 10
7.956350407692011
 20
-48.860492967598624
 11
7.980177240990834
 21
-48.318733457503775
  0
LINE
  8
0
 10
7.980177240990834
 20
-48.318733457503775
 11
7.976244699451922
 21
-47.91542109527223
  0
LINE
  8
0
 10
7.976244699451922
 20
-47.91542109527223
 11
7.959480328345803
 21
-47.65157329273579
  0
LINE
  8
0
 10
7.959480328345803
 20
-47.65157329273579
 11
7.921210652810255
 21
-47.32641116407784
  0
LINE
  8
0
 10
7.921210652810255
 20
-47.32641116407784
 11
7.9100083976932485
 21
-46.87295415413018
  0
LINE
  8
0
 10
7.9100083976932485
 20
-46.87295415413018
 11
7.963000098595929
 21
-46.55708547308286
  0
LINE
  8
0
 10
7.963000098595929
 20
-46.55708547308286
 11
8.06526803837394
 21
-46.38399256576591
  0
LINE
  8
0
 10
8.06526803837394
 20
-46.38399256576591
 11
10.76109551487558
 21
-45.8336354459427
  0
LINE
  8
0
 10
10.76109551487558
 20
-45.8336354459427
 11
10.923026557288136
 21
-45.95279174486542
  0
LINE
  8
0
 10
10.923026557288136
 20
-45.95279174486542
 11
11.095587808875127
 21
-46.2226134609706
  0
LINE
  8
0
 10
11.095587808875127
 20
-46.2226134609706
 11
11.263021971350849
 21
-46.64417549866665
  0
LINE
  8
0
 10
11.263021971350849
 20
-46.64417549866665
 11
11.355267353767681
 21
-46.958318407868646
  0
LINE
  8
0
 10
11.355267353767681
 20
-46.958318407868646
 11
11.443264005642977
 21
-47.20762403616491
  0
LINE
  8
0
 10
11.443264005642977
 20
-47.20762403616491
 11
11.597731127604789
 21
-47.58020454376712
  0
LINE
  8
0
 10
11.597731127604789
 20
-47.58020454376712
 11
11.832002962978496
 21
-48.06927283338912
  0
LINE
  8
0
 10
11.832002962978496
 20
-48.06927283338912
 11
12.158857145748025
 21
-48.66697453599823
  0
LINE
  8
0
 10
12.158857145748025
 20
-48.66697453599823
 11
12.590439070557524
 21
-49.364429237457315
  0
LINE
  8
0
 10
12.590439070557524
 20
-49.364429237457315
 11
13.13818913887925
 21
-50.15177671878839
  0
LINE
  8
0
 10
13.13818913887925
 20
-50.15177671878839
 11
13.321478712432754
 21
-50.38719806680009
  0
LINE
  8
0
 10
13.321478712432754
 20
-50.38719806680009
 11
14.523736560868553
 21
-50.141755369699624
  0
LINE
  8
0
 10
14.523736560868553
 20
-50.141755369699624
 11
15.67105370850654
 21
-49.706635369675226
  0
LINE
  8
0
 10
15.67105370850654
 20
-49.706635369675226
 11
15.700143573604313
 21
-49.40969756706037
  0
LINE
  8
0
 10
15.700143573604313
 20
-49.40969756706037
 11
15.742286178646513
 21
-48.45148558918453
  0
LINE
  8
0
 10
15.742286178646513
 20
-48.45148558918453
 11
15.734289239393354
 21
-47.63133800041008
  0
LINE
  8
0
 10
15.734289239393354
 20
-47.63133800041008
 11
15.691092019825753
 21
-46.951474056435075
  0
LINE
  8
0
 10
15.691092019825753
 20
-46.951474056435075
 11
15.62770596496
 21
-46.412908096861116
  0
LINE
  8
0
 10
15.62770596496
 20
-46.412908096861116
 11
15.55912849618985
 21
-46.01544934782064
  0
LINE
  8
0
 10
15.55912849618985
 20
-46.01544934782064
 11
15.50025705533022
 21
-45.75770749927251
  0
LINE
  8
0
 10
15.50025705533022
 20
-45.75770749927251
 11
15.410323288497334
 21
-45.44289502245145
  0
LINE
  8
0
 10
15.410323288497334
 20
-45.44289502245145
 11
15.32652647986232
 21
-44.99710712977943
  0
LINE
  8
0
 10
15.32652647986232
 20
-44.99710712977943
 11
15.328163052446287
 21
-44.67682839857594
  0
LINE
  8
0
 10
15.328163052446287
 20
-44.67682839857594
 11
15.401340594293504
 21
-44.48957206773751
  0
LINE
  8
0
 10
15.401340594293504
 20
-44.48957206773751
 11
17.97397432248092
 21
-43.513900789594196
  0
LINE
  8
0
 10
17.97397432248092
 20
-43.513900789594196
 11
18.15292241495593
 21
-43.60553847981681
  0
LINE
  8
0
 10
18.15292241495593
 20
-43.60553847981681
 11
18.366531490739668
 21
-43.84418530417034
  0
LINE
  8
0
 10
18.366531490739668
 20
-43.84418530417034
 11
18.599420731213716
 21
-44.233429895734325
  0
LINE
  8
0
 10
18.599420731213716
 20
-44.233429895734325
 11
18.740863626592866
 21
-44.528707536821294
  0
LINE
  8
0
 10
18.740863626592866
 20
-44.528707536821294
 11
18.867712180097683
 21
-44.76066906706973
  0
LINE
  8
0
 10
18.867712180097683
 20
-44.76066906706973
 11
19.07994510984612
 21
-45.103646486067944
  0
LINE
  8
0
 10
19.07994510984612
 20
-45.103646486067944
 11
19.38963525724558
 21
-45.54880162460602
  0
LINE
  8
0
 10
19.38963525724558
 20
-45.54880162460602
 11
19.808134859878937
 21
-46.086332149033694
  0
LINE
  8
0
 10
19.808134859878937
 20
-46.086332149033694
 11
20.346007514113246
 21
-46.70552438593319
  0
LINE
  8
0
 10
20.346007514113246
 20
-46.70552438593319
 11
21.012963780870592
 21
-47.394810634118905
  0
LINE
  8
0
 10
21.012963780870592
 20
-47.394810634118905
 11
21.23164404256121
 21
-47.59778162224289
  0
LINE
  8
0
 10
21.23164404256121
 20
-47.59778162224289
 11
22.378961190199153
 21
-47.16266162221847
  0
LINE
  8
0
 10
22.378961190199153
 20
-47.16266162221847
 11
23.441622725573428
 21
-46.54913369871263
  0
LINE
  8
0
 10
23.441622725573428
 20
-46.54913369871263
 11
23.422703711305754
 21
-46.2513748201342
  0
LINE
  8
0
 10
23.422703711305754
 20
-46.2513748201342
 11
23.310592569976595
 21
-45.298811286455546
  0
LINE
  8
0
 10
23.310592569976595
 20
-45.298811286455546
 11
23.171138263778754
 21
-44.490567192822425
  0
LINE
  8
0
 10
23.171138263778754
 20
-44.490567192822425
 11
23.019442590797286
 21
-43.826436629684174
  0
LINE
  8
0
 10
23.019442590797286
 20
-43.826436629684174
 11
22.870485313292814
 21
-43.3050127960884
  0
LINE
  8
0
 10
22.870485313292814
 20
-43.3050127960884
 11
22.739039037710494
 21
-42.923701633063665
  0
LINE
  8
0
 10
22.739039037710494
 20
-42.923701633063665
 11
22.639585266491867
 21
-42.67874111699569
  0
LINE
  8
0
 10
22.639585266491867
 20
-42.67874111699569
 11
22.50031664568258
 21
-42.3824317697978
  0
LINE
  8
0
 10
22.50031664568258
 20
-42.3824317697978
 11
22.346095576856772
 21
-41.955858666660006
  0
LINE
  8
0
 10
22.346095576856772
 20
-41.955858666660006
 11
22.296334634751755
 21
-41.63946493620386
  0
LINE
  8
0
 10
22.296334634751755
 20
-41.63946493620386
 11
22.33852651877273
 21
-41.44289502245144
  0
LINE
  8
0
 10
22.33852651877273
 20
-41.44289502245144
 11
24.721336636428173
 21
-40.067178959595395
  0
LINE
  8
0
 10
24.721336636428173
 20
-40.067178959595395
 11
24.912667117367643
 21
-40.128924673076185
  0
LINE
  8
0
 10
24.912667117367643
 20
-40.128924673076185
 11
25.161791654489008
 21
-40.330215778282735
  0
LINE
  8
0
 10
25.161791654489008
 20
-40.330215778282735
 11
25.454104263964197
 21
-40.67706169325391
  0
LINE
  8
0
 10
25.454104263964197
 20
-40.67706169325391
 11
25.641081375611872
 21
-40.94582653042392
  0
LINE
  8
0
 10
25.641081375611872
 20
-40.94582653042392
 11
25.80349651984092
 21
-41.15443628083486
  0
LINE
  8
0
 10
25.80349651984092
 20
-41.15443628083486
 11
26.06799853597632
 21
-41.45892767623479
  0
LINE
  8
0
 10
26.06799853597632
 20
-41.45892767623479
 11
26.445086183256638
 21
-41.84864037943003
  0
LINE
  8
0
 10
26.445086183256638
 20
-41.84864037943003
 11
26.944392285873338
 21
-42.31207796744538
  0
LINE
  8
0
 10
26.944392285873338
 20
-42.31207796744538
 11
27.574625050319295
 21
-42.8369709860963
  0
LINE
  8
0
 10
27.574625050319295
 20
-42.8369709860963
 11
28.343513698539244
 21
-43.41034384937406
  0
LINE
  8
0
 10
28.343513698539244
 20
-43.41034384937406
 11
28.591920944456614
 21
-43.57560763563358
  0
LINE
  8
0
 10
28.591920944456614
 20
-43.57560763563358
 11
29.654582479830957
 21
-42.962079712127746
  0
LINE
  8
0
 10
29.654582479830957
 20
-42.962079712127746
 11
30.605066027365766
 21
-42.18603391608795
  0
LINE
  8
0
 10
30.605066027365766
 20
-42.18603391608795
 11
30.538628126264495
 21
-41.895165760095615
  0
LINE
  8
0
 10
30.538628126264495
 20
-41.895165760095615
 11
30.27516685823512
 21
-40.97292156577784
  0
LINE
  8
0
 10
30.27516685823512
 20
-40.97292156577784
 11
30.007866978371144
 21
-40.19751406476005
  0
LINE
  8
0
 10
30.007866978371144
 20
-40.19751406476005
 11
29.751601690223957
 21
-39.56631751519212
  0
LINE
  8
0
 10
29.751601690223957
 20
-39.56631751519212
 11
29.520931105324483
 21
-39.07554041097331
  0
LINE
  8
0
 10
29.520931105324483
 20
-39.07554041097331
 11
29.330020412422016
 21
-38.72025259279312
  0
LINE
  8
0
 10
29.330020412422016
 20
-38.72025259279312
 11
29.1925601112783
 21
-38.494417757899626
  0
LINE
  8
0
 10
29.1925601112783
 20
-38.494417757899626
 11
29.007563620617123
 21
-38.22428579677319
  0
LINE
  8
0
 10
29.007563620617123
 20
-38.22428579677319
 11
28.786912536274507
 21
-37.82797550247236
  0
LINE
  8
0
 10
28.786912536274507
 20
-37.82797550247236
 11
28.687042861742807
 21
-37.523661204188386
  0
LINE
  8
0
 10
28.687042861742807
 20
-37.523661204188386
 11
28.697156340303778
 21
-37.32286876503474
  0
LINE
  8
0
 10
28.697156340303778
 20
-37.32286876503474
 11
30.82842931701252
 21
-35.58273824086355
  0
LINE
  8
0
 10
30.82842931701252
 20
-35.58273824086355
 11
31.027186827461392
 21
-35.61299279605689
  0
LINE
  8
0
 10
31.027186827461392
 20
-35.61299279605689
 11
31.305374631268045
 21
-35.77171484822496
  0
LINE
  8
0
 10
31.305374631268045
 20
-35.77171484822496
 11
31.649539866703712
 21
-36.06717895959536
  0
LINE
  8
0
 10
31.649539866703712
 20
-36.06717895959536
 11
31.877208585642794
 21
-36.30247012474136
  0
LINE
  8
0
 10
31.877208585642794
 20
-36.30247012474136
 11
32.07098385367328
 21
-36.482325212356834
  0
LINE
  8
0
 10
32.07098385367328
 20
-36.482325212356834
 11
32.380904492914254
 21
-36.740444416959576
  0
LINE
  8
0
 10
32.380904492914254
 20
-36.740444416959576
 11
32.81562326808589
 21
-37.0646213305059
  0
LINE
  8
0
 10
32.81562326808589
 20
-37.0646213305059
 11
33.382804104901595
 21
-37.44196319201189
  0
LINE
  8
0
 10
33.382804104901595
 20
-37.44196319201189
 11
34.08907428200609
 21
-37.85896253894477
  0
LINE
  8
0
 10
34.08907428200609
 20
-37.85896253894477
 11
34.939981499578366
 21
-38.30157196133458
  0
LINE
  8
0
 10
34.939981499578366
 20
-38.30157196133458
 11
35.211682112535556
 21
-38.424848300474615
  0
LINE
  8
0
 10
35.211682112535556
 20
-38.424848300474615
 11
36.162165660070364
 21
-37.648802504434876
  0
LINE
  8
0
 10
36.162165660070364
 20
-37.648802504434876
 11
36.975854195150625
 21
-36.730338014340504
  0
LINE
  8
0
 10
36.975854195150625
 20
-36.730338014340504
 11
36.86361811395601
 21
-36.453893913388384
  0
LINE
  8
0
 10
36.86361811395601
 20
-36.453893913388384
 11
36.45563022767855
 21
-35.585854698631735
  0
LINE
  8
0
 10
36.45563022767855
 20
-35.585854698631735
 11
36.06740770063075
 21
-34.86336643720283
  0
LINE
  8
0
 10
36.06740770063075
 20
-34.86336643720283
 11
35.7132099336709
 21
-34.281451560286726
  0
LINE
  8
0
 10
35.7132099336709
 20
-34.281451560286726
 11
35.406800288359634
 21
-33.83403205465081
  0
LINE
  8
0
 10
35.406800288359634
 20
-33.83403205465081
 11
35.16136966480242
 21
-33.513969349181934
  0
LINE
  8
0
 10
35.16136966480242
 20
-33.513969349181934
 11
34.989462983328664
 21
-33.313109199061074
  0
LINE
  8
0
 10
34.989462983328664
 20
-33.313109199061074
 11
34.763529934749556
 21
-33.07615089990548
  0
LINE
  8
0
 10
34.763529934749556
 20
-33.07615089990548
 11
34.48216358207192
 21
-32.72036764289179
  0
LINE
  8
0
 10
34.48216358207192
 20
-32.72036764289179
 11
34.334771747224785
 21
-32.4360143572566
  0
LINE
  8
0
 10
34.334771747224785
 20
-32.4360143572566
 11
34.31254488654337
 21
-32.2361998114044
  0
LINE
  8
0
 10
34.31254488654337
 20
-32.2361998114044
 11
36.13708187171484
 21
-30.176723292445587
  0
LINE
  8
0
 10
36.13708187171484
 20
-30.176723292445587
 11
36.33811869655501
 21
-30.174703112263966
  0
LINE
  8
0
 10
36.33811869655501
 20
-30.174703112263966
 11
36.63816484905367
 21
-30.286745293615255
  0
LINE
  8
0
 10
36.63816484905367
 20
-30.286745293615255
 11
37.02526901163372
 21
-30.523175236100542
  0
LINE
  8
0
 10
37.02526901163372
 20
-30.523175236100542
 11
37.28773283763256
 21
-30.718898811638017
  0
LINE
  8
0
 10
37.28773283763256
 20
-30.718898811638017
 11
37.50784955180798
 21
-30.865341084162303
  0
LINE
  8
0
 10
37.50784955180798
 20
-30.865341084162303
 11
37.855162032391995
 21
-31.07040294615243
  0
LINE
  8
0
 10
37.855162032391995
 20
-31.07040294615243
 11
38.336252947525274
 21
-31.320648058271278
  0
LINE
  8
0
 10
38.336252947525274
 20
-31.320648058271278
 11
38.95661883279284
 21
-31.60212123726346
  0
LINE
  8
0
 10
38.95661883279284
 20
-31.60212123726346
 11
39.7206343959555
 21
-31.900426848432435
  0
LINE
  8
0
 10
39.7206343959555
 20
-31.900426848432435
 11
40.63152213290597
 21
-32.20080947838643
  0
LINE
  8
0
 10
40.63152213290597
 20
-32.20080947838643
 11
40.91947920974514
 21
-32.27890557797735
  0
LINE
  8
0
 10
40.91947920974514
 20
-32.27890557797735
 11
41.73316774482541
 21
-31.360441087882933
  0
LINE
  8
0
 10
41.73316774482541
 20
-31.360441087882933
 11
42.38898716180342
 21
-30.323345651580183
  0
LINE
  8
0
 10
42.38898716180342
 20
-30.323345651580183
 11
42.233859756063545
 21
-30.068485362673595
  0
LINE
  8
0
 10
42.233859756063545
 20
-30.068485362673595
 11
41.691911923486416
 21
-29.277132887180255
  0
LINE
  8
0
 10
41.691911923486416
 20
-29.277132887180255
 11
41.19282150878143
 21
-28.626275931805612
  0
LINE
  8
0
 10
41.19282150878143
 20
-28.626275931805612
 11
40.749864799121646
 21
-28.108714017187655
  0
LINE
  8
0
 10
40.749864799121646
 20
-28.108714017187655
 11
40.37565194226256
 21
-27.716240040311956
  0
LINE
  8
0
 10
40.37565194226256
 20
-27.716240040311956
 11
40.08205791228197
 21
-27.439691903504826
  0
LINE
  8
0
 10
40.08205791228197
 20
-27.439691903504826
 11
39.88015714322992
 21
-27.269008610537753
  0
LINE
  8
0
 10
39.88015714322992
 20
-27.269008610537753
 11
39.619139084013895
 21
-27.071361068832662
  0
LINE
  8
0
 10
39.619139084013895
 20
-27.071361068832662
 11
39.28434470374066
 21
-26.765319448578428
  0
LINE
  8
0
 10
39.28434470374066
 20
-26.765319448578428
 11
39.09324807967925
 21
-26.508291776326065
  0
LINE
  8
0
 10
39.09324807967925
 20
-26.508291776326065
 11
39.03925654377189
 21
-26.314630215555123
  0
LINE
  8
0
 10
39.03925654377189
 20
-26.314630215555123
 11
40.509802987875304
 21
-23.989147061856503
  0
LINE
  8
0
 10
40.509802987875304
 20
-23.989147061856503
 11
40.707912378943185
 21
-23.954904467905475
  0
LINE
  8
0
 10
40.707912378943185
 20
-23.954904467905475
 11
41.02204584239115
 21
-24.017364944796032
  0
LINE
  8
0
 10
41.02204584239115
 20
-24.017364944796032
 11
41.4420631376412
 21
-24.188637307076764
  0
LINE
  8
0
 10
41.4420631376412
 20
-24.188637307076764
 11
41.73252439547234
 21
-24.339724155208163
  0
LINE
  8
0
 10
41.73252439547234
 20
-24.339724155208163
 11
41.97328164851751
 21
-24.448960834705474
  0
LINE
  8
0
 10
41.97328164851751
 20
-24.448960834705474
 11
42.348990759632315
 21
-24.595654359571473
  0
LINE
  8
0
 10
42.348990759632315
 20
-24.595654359571473
 11
42.863993812730705
 21
-24.765486453306675
  0
LINE
  8
0
 10
42.863993812730705
 20
-24.765486453306675
 11
43.521477595884896
 21
-24.94380094230021
  0
LINE
  8
0
 10
43.521477595884896
 20
-24.94380094230021
 11
44.32345094333873
 21
-25.115686859068724
  0
LINE
  8
0
 10
44.32345094333873
 20
-25.115686859068724
 11
45.27072768574769
 21
-25.26606294425483
  0
LINE
  8
0
 10
45.27072768574769
 20
-25.26606294425483
 11
45.56748328943558
 21
-25.296956156339192
  0
LINE
  8
0
 10
45.56748328943558
 20
-25.296956156339192
 11
46.223302706413605
 21
-24.259860720036404
  0
LINE
  8
0
 10
46.223302706413605
 20
-24.259860720036404
 11
46.70426762687548
 21
-23.13099456456426
  0
LINE
  8
0
 10
46.70426762687548
 20
-23.13099456456426
 11
46.51026661491459
 21
-22.904318835314033
  0
LINE
  8
0
 10
46.51026661491459
 20
-22.904318835314033
 11
45.848395000229445
 21
-22.210148712520954
  0
LINE
  8
0
 10
45.848395000229445
 20
-22.210148712520954
 11
45.251362877447995
 21
-21.647779916465364
  0
LINE
  8
0
 10
45.251362877447995
 20
-21.647779916465364
 11
44.731119571194014
 21
-21.20797554587139
  0
LINE
  8
0
 10
44.731119571194014
 20
-21.20797554587139
 11
44.298795419214805
 21
-20.880611967599894
  0
LINE
  8
0
 10
44.298795419214805
 20
-20.880611967599894
 11
43.96464191396948
 21
-20.654740850933774
  0
LINE
  8
0
 10
43.96464191396948
 20
-20.654740850933774
 11
43.73797618120399
 21
-20.518655022752522
  0
LINE
  8
0
 10
43.73797618120399
 20
-20.518655022752522
 11
43.44863334197827
 21
-20.36543720600862
  0
LINE
  8
0
 10
43.44863334197827
 20
-20.36543720600862
 11
43.069081932699106
 21
-20.11706353972216
  0
LINE
  8
0
 10
43.069081932699106
 20
-20.11706353972216
 11
42.839229821608185
 21
-19.89401836255354
  0
LINE
  8
0
 10
42.839229821608185
 20
-19.89401836255354
 11
42.75487196289442
 21
-19.71152551956209
  0
LINE
  8
0
 10
42.75487196289442
 20
-19.71152551956209
 11
43.83334148547001
 21
-17.18026452328437
  0
LINE
  8
0
 10
43.83334148547001
 20
-17.18026452328437
 11
44.02339251359902
 21
-17.114686380760457
  0
LINE
  8
0
 10
44.02339251359902
 20
-17.114686380760457
 11
44.3434773962997
 21
-17.125947459647797
  0
LINE
  8
0
 10
44.3434773962997
 20
-17.125947459647797
 11
44.7855295968977
 21
-17.227626377506137
  0
LINE
  8
0
 10
44.7855295968977
 20
-17.227626377506137
 11
45.09646549255559
 21
-17.330163428227117
  0
LINE
  8
0
 10
45.09646549255559
 20
-17.330163428227117
 11
45.35162779808063
 21
-17.39936534207786
  0
LINE
  8
0
 10
45.35162779808063
 20
-17.39936534207786
 11
45.746002871099236
 21
-17.48389124458027
  0
LINE
  8
0
 10
45.746002871099236
 20
-17.48389124458027
 11
46.28157975360616
 21
-17.568911757912776
  0
LINE
  8
0
 10
46.28157975360616
 20
-17.568911757912776
 11
46.959152950023615
 21
-17.639449305307025
  0
LINE
  8
0
 10
46.959152950023615
 20
-17.639449305307025
 11
47.778313393326776
 21
-17.68046377271829
  0
LINE
  8
0
 10
47.778313393326776
 20
-17.68046377271829
 11
48.73744517114741
 21
-17.676938651519105
  0
LINE
  8
0
 10
48.73744517114741
 20
-17.676938651519105
 11
49.03531348742709
 21
-17.659828858131412
  0
LINE
  8
0
 10
49.03531348742709
 20
-17.659828858131412
 11
49.51627840788926
 21
-16.53096270265941
  0
LINE
  8
0
 10
49.51627840788926
 20
-16.53096270265941
 11
49.809932093034774
 21
-15.339562868478687
  0
LINE
  8
0
 10
49.809932093034774
 20
-15.339562868478687
 11
49.582081999158035
 21
-15.146942481204874
  0
LINE
  8
0
 10
49.582081999158035
 20
-15.146942481204874
 11
48.817428729520046
 21
-14.567933352661612
  0
LINE
  8
0
 10
48.817428729520046
 20
-14.567933352661612
 11
48.13791771703563
 21
-14.108617772344171
  0
LINE
  8
0
 10
48.13791771703563
 20
-14.108617772344171
 11
47.553861842548216
 21
-13.757961647953962
  0
LINE
  8
0
 10
47.553861842548216
 20
-13.757961647953962
 11
47.074623363895704
 21
-13.504187013007726
  0
LINE
  8
0
 10
47.074623363895704
 20
-13.504187013007726
 11
46.70856478364874
 21
-13.334842859759625
  0
LINE
  8
0
 10
46.70856478364874
 20
-13.334842859759625
 11
46.4630046105864
 21
-13.236879047831502
  0
LINE
  8
0
 10
46.4630046105864
 20
-13.236879047831502
 11
46.15283081890215
 21
-13.132059217020844
  0
LINE
  8
0
 10
46.15283081890215
 20
-13.132059217020844
 11
45.738352562748204
 21
-12.947786252194287
  0
LINE
  8
0
 10
45.738352562748204
 20
-12.947786252194287
 11
45.47569801356927
 21
-12.764500323037836
  0
LINE
  8
0
 10
45.47569801356927
 20
-12.764500323037836
 11
45.36315865627865
 21
-12.59790266660028
  0
LINE
  8
0
 10
45.36315865627865
 20
-12.59790266660028
 11
46.02161946318567
 21
-9.926422157936845
  0
LINE
  8
0
 10
46.02161946318567
 20
-9.926422157936845
 11
46.198689906576476
 21
-9.8312069062848
  0
LINE
  8
0
 10
46.198689906576476
 20
-9.8312069062848
 11
46.51643617820076
 21
-9.790976931140916
  0
LINE
  8
0
 10
46.51643617820076
 20
-9.790976931140916
 11
46.96907436435059
 21
-9.820428974013812
  0
LINE
  8
0
 10
46.96907436435059
 20
-9.820428974013812
 11
47.29243182146478
 21
-9.871760571570935
  0
LINE
  8
0
 10
47.29243182146478
 20
-9.871760571570935
 11
47.55539060978717
 21
-9.899135426556466
  0
LINE
  8
0
 10
47.55539060978717
 20
-9.899135426556466
 11
47.958217537474106
 21
-9.919304530219891
  0
LINE
  8
0
 10
47.958217537474106
 20
-9.919304530219891
 11
48.50049708945821
 21
-9.91731147651361
  0
LINE
  8
0
 10
48.50049708945821
 20
-9.91731147651361
 11
49.180610909264544
 21
-9.878245196882727
  0
LINE
  8
0
 10
49.180610909264544
 20
-9.878245196882727
 11
49.99574262322066
 21
-9.787325961774698
  0
LINE
  8
0
 10
49.99574262322066
 20
-9.787325961774698
 11
50.94188842721615
 21
-9.629990932977629
  0
LINE
  8
0
 10
50.94188842721615
 20
-9.629990932977629
 11
51.23315482315904
 21
-9.565321268779268
  0
LINE
  8
0
 10
0.3118675362266391
 20
-1.4672214011007085
 11
9.18454765366783e-17
 21
-1.5
  0
LINE
  8
0
 10
9.18454765366783e-17
 20
-1.5
 11
-0.3118675362266384
 21
-1.4672214011007085
  0
LINE
  8
0
 10
-0.3118675362266384
 20
-1.4672214011007085
 11
-0.6101049646137001
 21
-1.3703181864639014
  0
LINE
  8
0
 10
-0.6101049646137001
 20
-1.3703181864639014
 11
-0.8816778784387099
 21
-1.213525491562421
  0
LINE
  8
0
 10
-0.8816778784387099
 20
-1.213525491562421
 11
-1.114717238216091
 21
-1.0036959095382878
  0
LINE
  8
0
 10
-1.114717238216091
 20
-1.0036959095382878
 11
-1.299038105676658
 21
-0.7500000000000003
  0
LINE
  8
0
 10
-1.299038105676658
 20
-0.7500000000000003
 11
-1.4265847744427305
 21
-0.46352549156242095
  0
LINE
  8
0
 10
-1.4265847744427305
 20
-0.46352549156242095
 11
-1.49178284305241
 21
-0.15679269490147957
  0
LINE
  8
0
 10
-1.49178284305241
 20
-0.15679269490147957
 11
-1.4917828430524098
 21
0.15679269490148126
  0
LINE
  8
0
 10
-1.4917828430524098
 20
0.15679269490148126
 11
-1.4265847744427302
 21
0.46352549156242123
  0
LINE
  8
0
 10
-1.4265847744427302
 20
0.46352549156242123
 11
-1.2990381056766576
 21
0.7500000000000006
  0
LINE
  8
0
 10
-1.2990381056766576
 20
0.7500000000000006
 11
-1.114717238216091
 21
1.0036959095382878
  0
LINE
  8
0
 10
-1.114717238216091
 20
1.0036959095382878
 11
-0.8816778784387097
 21
1.2135254915624214
  0
LINE
  8
0
 10
-0.8816778784387097
 20
1.2135254915624214
 11
-0.6101049646137005
 21
1.3703181864639014
  0
LINE
  8
0
 10
-0.6101049646137005
 20
1.3703181864639014
 11
-0.3118675362266387
 21
1.4672214011007085
  0
LINE
  8
0
 10
-0.3118675362266387
 20
1.4672214011007085
 11
7.579792913117722e-16
 21
1.5
  0
LINE
  8
0
 10
7.579792913117722e-16
 20
1.5
 11
0.3118675362266389
 21
1.4672214011007085
  0
LINE
  8
0
 10
0.3118675362266389
 20
1.4672214011007085
 11
0.6101049646136999
 21
1.3703181864639014
  0
LINE
  8
0
 10
0.6101049646136999
 20
1.3703181864639014
 11
0.8816778784387097
 21
1.213525491562421
  0
LINE
  8
0
 10
0.8816778784387097
 20
1.213525491562421
 11
1.1147172382160917
 21
1.003695909538287
  0
LINE
  8
0
 10
1.1147172382160917
 20
1.003695909538287
 11
1.299038105676658
 21
0.7499999999999998
  0
LINE
  8
0
 10
1.299038105676658
 20
0.7499999999999998
 11
1.4265847744427305
 21
0.4635254915624211
  0
LINE
  8
0
 10
1.4265847744427305
 20
0.4635254915624211
 11
1.49178284305241
 21
0.1567926949014801
  0
LINE
  8
0
 10
1.49178284305241
 20
0.1567926949014801
 11
1.4917828430524098
 21
-0.1567926949014801
  0
LINE
  8
0
 10
1.4917828430524098
 20
-0.1567926949014801
 11
1.4265847744427302
 21
-0.46352549156242107
  0
LINE
  8
0
 10
1.4265847744427302
 20
-0.46352549156242107
 11
1.299038105676658
 21
-0.7500000000000001
  0
LINE
  8
0
 10
1.299038105676658
 20
-0.7500000000000001
 11
1.1147172382160913
 21
-1.0036959095382874
  0
LINE
  8
0
 10
1.1147172382160913
 20
-1.0036959095382874
 11
0.8816778784387098
 21
-1.2135254915624212
  0
LINE
  8
0
 10
0.8816778784387098
 20
-1.2135254915624212
 11
0.6101049646137003
 21
-1.3703181864639014
  0
LINE
  8
0
 10
0.6101049646137003
 20
-1.3703181864639014
 11
0.3118675362266391
 21
-1.4672214011007085
  0
ENDSEC
  0
SECTION
  2
OBJECTS
  0
DICTIONARY
  0
ENDSEC
  0
EOF
