  0
SECTION
  2
BLOCKS
  0
ENDSEC
  0
SECTION
  2
ENTITIES
  0
LINE
  8
0
 10
35.5928089602672
 20
-9.6370588274995
 11
35.92865703269426
 21
-8.515248141911423
  0
LINE
  8
0
 10
35.92865703269426
 20
-8.515248141911423
 11
36.13199994901578
 21
-7.3620331574291535
  0
LINE
  8
0
 10
36.13199994901578
 20
-7.3620331574291535
 11
36.03216312203879
 21
-7.282616008102194
  0
LINE
  8
0
 10
36.03216312203879
 20
-7.282616008102194
 11
35.122671656458216
 21
-6.6678451028014125
  0
LINE
  8
0
 10
35.122671656458216
 20
-6.6678451028014125
 11
34.34281389492745
 21
-6.224602960568323
  0
LINE
  8
0
 10
34.34281389492745
 20
-6.224602960568323
 11
33.71265470943272
 21
-5.928504408800568
  0
LINE
  8
0
 10
33.71265470943272
 20
-5.928504408800568
 11
33.2492161960334
 21
-5.753169255694669
  0
LINE
  8
0
 10
33.2492161960334
 20
-5.753169255694669
 11
32.96629572169285
 21
-5.670550307167126
  0
LINE
  8
0
 10
32.96629572169285
 20
-5.670550307167126
 11
32.87431672869397
 21
-5.651277066914799
  0
LINE
  8
0
 10
32.87431672869397
 20
-5.651277066914799
 11
32.65455114248191
 21
-5.622773242437529
  0
LINE
  8
0
 10
32.65455114248191
 20
-5.622773242437529
 11
32.01723368659156
 21
-5.471684239813112
  0
LINE
  8
0
 10
32.01723368659156
 20
-5.471684239813112
 11
31.600342914377517
 21
-5.271662298295798
  0
LINE
  8
0
 10
31.600342914377517
 20
-5.271662298295798
 11
31.406386055988364
 21
-5.055961545478832
  0
LINE
  8
0
 10
31.406386055988364
 20
-5.055961545478832
 11
31.725807829480072
 21
-2.323133619498003
  0
LINE
  8
0
 10
31.725807829480072
 20
-2.323133619498003
 11
31.964280572579835
 21
-2.157976638168309
  0
LINE
  8
0
 10
31.964280572579835
 20
-2.157976638168309
 11
32.416062234285455
 21
-2.059487942422446
  0
LINE
  8
0
 10
32.416062234285455
 20
-2.059487942422446
 11
33.07104423757059
 21
-2.05944708343968
  0
LINE
  8
0
 10
33.07104423757059
 20
-2.05944708343968
 11
33.291459448265385
 21
-2.0823930152637007
  0
LINE
  8
0
 10
33.291459448265385
 20
-2.0823930152637007
 11
33.38540385068701
 21
-2.084851103256367
  0
LINE
  8
0
 10
33.38540385068701
 20
-2.084851103256367
 11
33.679751407780614
 21
-2.069705110720682
  0
LINE
  8
0
 10
33.679751407780614
 20
-2.069705110720682
 11
34.171132945078256
 21
-2.00597241566182
  0
LINE
  8
0
 10
34.171132945078256
 20
-2.00597241566182
 11
34.85259113351354
 21
-1.8631799479474394
  0
LINE
  8
0
 10
34.85259113351354
 20
-1.8631799479474394
 11
35.713646400734206
 21
-1.6117330317532517
  0
LINE
  8
0
 10
35.713646400734206
 20
-1.6117330317532517
 11
36.74039833378665
 21
-1.223276522036258
  0
LINE
  8
0
 10
36.74039833378665
 20
-1.223276522036258
 11
36.855858901215505
 21
-1.1690240290330438
  0
LINE
  8
0
 10
36.855858901215505
 20
-1.1690240290330438
 11
36.923946797319715
 21
-1.2918486859906438e-15
  0
LINE
  8
0
 10
36.923946797319715
 20
-1.2918486859906438e-15
 11
36.8558589012155
 21
1.1690240290330567
  0
LINE
  8
0
 10
36.8558589012155
 20
1.1690240290330567
 11
36.74039833378665
 21
1.2232765220362656
  0
LINE
  8
0
 10
36.74039833378665
 20
1.2232765220362656
 11
35.71364640073429
 21
1.6117330317532228
  0
LINE
  8
0
 10
35.71364640073429
 20
1.6117330317532228
 11
34.852591133514096
 21
1.8631799479472773
  0
LINE
  8
0
 10
34.852591133514096
 20
1.8631799479472773
 11
34.171132945078185
 21
2.0059724156617906
  0
LINE
  8
0
 10
34.171132945078185
 20
2.0059724156617906
 11
33.67975140778057
 21
2.069705110720649
  0
LINE
  8
0
 10
33.67975140778057
 20
2.069705110720649
 11
33.38540385068698
 21
2.084851103257163
  0
LINE
  8
0
 10
33.38540385068698
 20
2.084851103257163
 11
33.2914594482655
 21
2.082393015263691
  0
LINE
  8
0
 10
33.2914594482655
 20
2.082393015263691
 11
33.07104423757057
 21
2.059447083439689
  0
LINE
  8
0
 10
33.07104423757057
 20
2.059447083439689
 11
32.41606223428565
 21
2.05948794241489
  0
LINE
  8
0
 10
32.41606223428565
 20
2.05948794241489
 11
31.9642805725801
 21
2.1579766381731007
  0
LINE
  8
0
 10
31.9642805725801
 20
2.1579766381731007
 11
31.725807829480072
 21
2.3231336194979733
  0
LINE
  8
0
 10
31.725807829480072
 20
2.3231336194979733
 11
31.406386055988364
 21
5.055961545478802
  0
LINE
  8
0
 10
31.406386055988364
 20
5.055961545478802
 11
31.60034291437615
 21
5.271662298300398
  0
LINE
  8
0
 10
31.60034291437615
 20
5.271662298300398
 11
32.017233686593116
 21
5.471684239805715
  0
LINE
  8
0
 10
32.017233686593116
 20
5.471684239805715
 11
32.65455114248192
 21
5.622773242437541
  0
LINE
  8
0
 10
32.65455114248192
 20
5.622773242437541
 11
32.874316728693856
 21
5.651277066914762
  0
LINE
  8
0
 10
32.874316728693856
 20
5.651277066914762
 11
32.9662957216927
 21
5.670550307167906
  0
LINE
  8
0
 10
32.9662957216927
 20
5.670550307167906
 11
33.24921619603346
 21
5.753169255694646
  0
LINE
  8
0
 10
33.24921619603346
 20
5.753169255694646
 11
33.71265470943279
 21
5.9285044088005545
  0
LINE
  8
0
 10
33.71265470943279
 20
5.9285044088005545
 11
34.342813894926955
 21
6.224602960568037
  0
LINE
  8
0
 10
34.342813894926955
 20
6.224602960568037
 11
35.12267165645814
 21
6.667845102801364
  0
LINE
  8
0
 10
35.12267165645814
 20
6.667845102801364
 11
36.03216312203878
 21
7.282616008102199
  0
LINE
  8
0
 10
36.03216312203878
 20
7.282616008102199
 11
36.131999949015785
 21
7.362033157429166
  0
LINE
  8
0
 10
36.131999949015785
 20
7.362033157429166
 11
35.92865703269427
 21
8.51524814191142
  0
LINE
  8
0
 10
35.92865703269427
 20
8.51524814191142
 11
35.59280896026719
 21
9.637058827499503
  0
LINE
  8
0
 10
35.59280896026719
 20
9.637058827499503
 11
35.46794916146244
 21
9.663221898238424
  0
LINE
  8
0
 10
35.46794916146244
 20
9.663221898238424
 11
34.37928922341397
 21
9.804422221384497
  0
LINE
  8
0
 10
34.37928922341397
 20
9.804422221384497
 11
33.48345616283603
 21
9.850518343202884
  0
LINE
  8
0
 10
33.48345616283603
 20
9.850518343202884
 11
32.7874365587864
 21
9.832306747969215
  0
LINE
  8
0
 10
32.7874365587864
 20
9.832306747969215
 11
32.294602503455565
 21
9.781001138893815
  0
LINE
  8
0
 10
32.294602503455565
 20
9.781001138893815
 11
32.00469621660088
 21
9.727857651061262
  0
LINE
  8
0
 10
32.00469621660088
 20
9.727857651061262
 11
31.91385097180795
 21
9.703800750981975
  0
LINE
  8
0
 10
31.91385097180795
 20
9.703800750981975
 11
31.704668777691065
 21
9.630642083980664
  0
LINE
  8
0
 10
31.704668777691065
 20
9.630642083980664
 11
31.06733247634443
 21
9.47963259658872
  0
LINE
  8
0
 10
31.06733247634443
 20
9.47963259658872
 11
30.605015591469254
 21
9.471278495506654
  0
LINE
  8
0
 10
30.605015591469254
 20
9.471278495506654
 11
30.334883090965242
 21
9.576988049726918
  0
LINE
  8
0
 10
30.334883090965242
 20
9.576988049726918
 11
29.3938378809783
 21
12.162488514851978
  0
LINE
  8
0
 10
29.3938378809783
 20
12.162488514851978
 11
29.532822590214558
 21
12.417104555748805
  0
LINE
  8
0
 10
29.532822590214558
 20
12.417104555748805
 11
29.892347783504494
 21
12.707876508373273
  0
LINE
  8
0
 10
29.892347783504494
 20
12.707876508373273
 11
30.477642742986536
 21
13.001868407414348
  0
LINE
  8
0
 10
30.477642742986536
 20
13.001868407414348
 11
30.684911085078724
 21
13.080285339637305
  0
LINE
  8
0
 10
30.684911085078724
 20
13.080285339637305
 11
30.769966057334337
 21
13.12025088276552
  0
LINE
  8
0
 10
30.769966057334337
 20
13.12025088276552
 11
31.0262071329193
 21
13.26588877838312
  0
LINE
  8
0
 10
31.0262071329193
 20
13.26588877838312
 11
31.43671853220639
 21
13.543374026048323
  0
LINE
  8
0
 10
31.43671853220639
 20
13.543374026048323
 11
31.981606669958804
 21
13.976815912300866
  0
LINE
  8
0
 10
31.981606669958804
 20
13.976815912300866
 11
32.6382245920177
 21
14.587957981956583
  0
LINE
  8
0
 10
32.6382245920177
 20
14.587957981956583
 11
33.38142466980401
 21
15.395900824208976
  0
LINE
  8
0
 10
33.38142466980401
 20
15.395900824208976
 11
33.460255527145016
 21
15.496201230783113
  0
LINE
  8
0
 10
33.460255527145016
 20
15.496201230783113
 11
32.99644406765002
 21
16.57143705240257
  0
LINE
  8
0
 10
32.99644406765002
 20
16.57143705240257
 11
32.41094147541567
 21
17.585557290115744
  0
LINE
  8
0
 10
32.41094147541567
 20
17.585557290115744
 11
32.283413669307315
 21
17.582220480674785
  0
LINE
  8
0
 10
32.283413669307315
 20
17.582220480674785
 11
31.191535665312063
 21
17.468552471280827
  0
LINE
  8
0
 10
31.191535665312063
 20
17.468552471280827
 11
30.30921940354987
 21
17.306812744864782
  0
LINE
  8
0
 10
30.30921940354987
 20
17.306812744864782
 11
29.636160980898804
 21
17.128578878495873
  0
LINE
  8
0
 10
29.636160980898804
 20
17.128578878495873
 11
29.168443219022976
 21
16.965000863951435
  0
LINE
  8
0
 10
29.168443219022976
 20
16.965000863951435
 11
28.898607125370976
 21
16.84643287493454
  0
LINE
  8
0
 10
28.898607125370976
 20
16.84643287493454
 11
28.815758528867796
 21
16.802074076479606
  0
LINE
  8
0
 10
28.815758528867796
 20
16.802074076479606
 11
28.629086417558593
 21
16.682646676975445
  0
LINE
  8
0
 10
28.629086417558593
 20
16.682646676975445
 11
28.043754783124193
 21
16.388727803769005
  0
LINE
  8
0
 10
28.043754783124193
 20
16.388727803769005
 11
27.595826298009275
 21
16.273981277598374
  0
LINE
  8
0
 10
27.595826298009275
 20
16.273981277598374
 11
27.308596953124642
 21
16.314544575284117
  0
LINE
  8
0
 10
27.308596953124642
 20
16.314544575284117
 11
25.796660297493336
 21
18.613332580246663
  0
LINE
  8
0
 10
25.796660297493336
 20
18.613332580246663
 11
25.87318015592829
 21
18.893137492549066
  0
LINE
  8
0
 10
25.87318015592829
 20
18.893137492549066
 11
26.155957674061312
 21
19.25898386506319
  0
LINE
  8
0
 10
26.155957674061312
 20
19.25898386506319
 11
26.657676734372956
 21
19.680029481139243
  0
LINE
  8
0
 10
26.657676734372956
 20
19.680029481139243
 11
26.841273942373796
 21
19.804132043994326
  0
LINE
  8
0
 10
26.841273942373796
 20
19.804132043994326
 11
26.91481955831622
 21
19.862635337222876
  0
LINE
  8
0
 10
26.91481955831622
 20
19.862635337222876
 11
27.13056721243508
 21
20.063440803281626
  0
LINE
  8
0
 10
27.13056721243508
 20
20.063440803281626
 11
27.46602072181743
 21
20.428116843980114
  0
LINE
  8
0
 10
27.46602072181743
 20
20.428116843980114
 11
27.89626275128284
 21
20.975535100437597
  0
LINE
  8
0
 10
27.89626275128284
 20
20.975535100437597
 11
28.39424239173204
 21
21.721630270352332
  0
LINE
  8
0
 10
28.39424239173204
 20
21.721630270352332
 11
28.931084973160374
 21
22.67918864180224
  0
LINE
  8
0
 10
28.931084973160374
 20
22.67918864180224
 11
28.98466006894154
 21
22.794965084743353
  0
LINE
  8
0
 10
28.98466006894154
 20
22.794965084743353
 11
28.285384262107552
 21
23.73425550204209
  0
LINE
  8
0
 10
28.285384262107552
 20
23.73425550204209
 11
27.481791746364973
 21
24.586013807370005
  0
LINE
  8
0
 10
27.481791746364973
 20
24.586013807370005
 11
27.35847098998967
 21
24.55335700600983
  0
LINE
  8
0
 10
27.35847098998967
 20
24.55335700600983
 11
26.322238345865102
 21
24.19094853588414
  0
LINE
  8
0
 10
26.322238345865102
 20
24.19094853588414
 11
25.50100478096931
 21
23.830092391749517
  0
LINE
  8
0
 10
25.50100478096931
 20
23.830092391749517
 11
24.88719229349661
 21
23.50144488811543
  0
LINE
  8
0
 10
24.88719229349661
 20
23.50144488811543
 11
24.46980561068274
 21
23.23441300120663
  0
LINE
  8
0
 10
24.46980561068274
 20
23.23441300120663
 11
24.234586643886676
 21
23.05681254198349
  0
LINE
  8
0
 10
24.234586643886676
 20
23.05681254198349
 11
24.16420108495529
 21
22.99454323945946
  0
LINE
  8
0
 10
24.16420108495529
 20
22.99454323945946
 11
24.010102598292722
 21
22.835285469472346
  0
LINE
  8
0
 10
24.010102598292722
 20
22.835285469472346
 11
23.508331010690366
 21
22.414302452984035
  0
LINE
  8
0
 10
23.508331010690366
 20
22.414302452984035
 11
23.09893886591021
 21
22.19934951665173
  0
LINE
  8
0
 10
23.09893886591021
 20
22.19934951665173
 11
22.810097284974237
 21
22.172579779925293
  0
LINE
  8
0
 10
22.810097284974237
 20
22.172579779925293
 11
20.808778080153864
 21
24.0607270683587
  0
LINE
  8
0
 10
20.808778080153864
 20
24.0607270683587
 11
20.81870788241286
 21
24.350636496819657
  0
LINE
  8
0
 10
20.81870788241286
 20
24.350636496819657
 11
21.00949311619218
 21
24.771834416585392
  0
LINE
  8
0
 10
21.00949311619218
 20
24.771834416585392
 11
21.40058847292689
 21
25.297235071550165
  0
LINE
  8
0
 10
21.40058847292689
 20
25.297235071550165
 11
21.550616773830694
 21
25.460332863751113
  0
LINE
  8
0
 10
21.550616773830694
 20
25.460332863751113
 11
21.6086881702679
 21
25.53421997939903
  0
LINE
  8
0
 10
21.6086881702679
 20
25.53421997939903
 11
21.772311391042905
 21
25.779367541247144
  0
LINE
  8
0
 10
21.772311391042905
 20
25.779367541247144
 11
22.014622625000815
 21
26.211574595231983
  0
LINE
  8
0
 10
22.014622625000815
 20
26.211574595231983
 11
22.307024087006734
 21
26.84345776199485
  0
LINE
  8
0
 10
22.307024087006734
 20
26.84345776199485
 11
22.619519234532397
 21
27.684283848438966
  0
LINE
  8
0
 10
22.619519234532397
 20
27.684283848438966
 11
22.921062997081435
 21
28.739835529426784
  0
LINE
  8
0
 10
22.921062997081435
 20
28.739835529426784
 11
22.946494084021793
 21
28.864846470728295
  0
LINE
  8
0
 10
22.946494084021793
 20
28.864846470728295
 11
22.04945206959604
 21
29.617554094183465
  0
LINE
  8
0
 10
22.04945206959604
 20
29.617554094183465
 11
21.07109151087108
 21
30.261031956416474
  0
LINE
  8
0
 10
21.07109151087108
 20
30.261031956416474
 11
20.95862605812541
 21
30.200815699751303
  0
LINE
  8
0
 10
20.95862605812541
 20
30.200815699751303
 11
20.033902343935104
 21
29.60920430332429
  0
LINE
  8
0
 10
20.033902343935104
 20
29.60920430332429
 11
19.31802438995764
 21
29.068685589605526
  0
LINE
  8
0
 10
19.31802438995764
 20
29.068685589605526
 11
18.79654862774239
 21
28.60734192069441
  0
LINE
  8
0
 10
18.79654862774239
 20
28.60734192069441
 11
18.451994448097494
 21
28.25125191956313
  0
LINE
  8
0
 10
18.451994448097494
 20
28.25125191956313
 11
18.264073323541503
 21
28.024193476860624
  0
LINE
  8
0
 10
18.264073323541503
 20
28.024193476860624
 11
18.209945305882528
 21
27.94737062448438
  0
LINE
  8
0
 10
18.209945305882528
 20
27.94737062448438
 11
18.096727933169475
 21
27.756868111616654
  0
LINE
  8
0
 10
18.096727933169475
 20
27.756868111616654
 11
17.705567028565543
 21
27.231516255232748
  0
LINE
  8
0
 10
17.705567028565543
 20
27.231516255232748
 11
17.35678166061246
 21
26.927945077174932
  0
LINE
  8
0
 10
17.35678166061246
 20
26.927945077174932
 11
17.081899368017254
 21
26.835285469472332
  0
LINE
  8
0
 10
17.081899368017254
 20
26.835285469472332
 11
14.69908925036185
 21
28.211001532328442
  0
LINE
  8
0
 10
14.69908925036185
 20
28.211001532328442
 11
14.641893678234869
 21
28.495386384619362
  0
LINE
  8
0
 10
14.641893678234869
 20
28.495386384619362
 11
14.730401346324532
 21
28.949228962759125
  0
LINE
  8
0
 10
14.730401346324532
 20
28.949228962759125
 11
14.989788947569481
 21
29.550660171308575
  0
LINE
  8
0
 10
14.989788947569481
 20
29.550660171308575
 11
15.098160276841138
 21
29.743960548661537
  0
LINE
  8
0
 10
15.098160276841138
 20
29.743960548661537
 11
15.137626809759979
 21
29.82924821319928
  0
LINE
  8
0
 10
15.137626809759979
 20
29.82924821319928
 11
15.240304627006855
 21
30.105521902323453
  0
LINE
  8
0
 10
15.240304627006855
 20
30.105521902323453
 11
15.376410524197732
 21
30.581959575441694
  0
LINE
  8
0
 10
15.376410524197732
 20
30.581959575441694
 11
15.515207980242122
 21
31.264242667432892
  0
LINE
  8
0
 10
15.515207980242122
 20
31.264242667432892
 11
15.625371940554789
 21
32.154470518446466
  0
LINE
  8
0
 10
15.625371940554789
 20
32.154470518446466
 11
15.675360581933816
 21
33.25111044463077
  0
LINE
  8
0
 10
15.675360581933816
 20
33.25111044463077
 11
15.671276663553824
 21
33.37861651208924
  0
LINE
  8
0
 10
15.671276663553824
 20
33.37861651208924
 11
14.62482820872467
 21
33.904162678889264
  0
LINE
  8
0
 10
14.62482820872467
 20
33.904162678889264
 11
13.524443277977388
 21
34.30467003991635
  0
LINE
  8
0
 10
13.524443277977388
 20
34.30467003991635
 11
13.428896170529468
 21
34.2201406019294
  0
LINE
  8
0
 10
13.428896170529468
 20
34.2201406019294
 11
12.665533481061232
 21
33.43122020271535
  0
LINE
  8
0
 10
12.665533481061232
 20
33.43122020271535
 11
12.093604303799117
 21
32.74017842317707
  0
LINE
  8
0
 10
12.093604303799117
 20
32.74017842317707
 11
11.692578160161307
 21
32.17100974559429
  0
LINE
  8
0
 10
11.692578160161307
 20
32.17100974559429
 11
11.439431488694572
 21
31.745058534371978
  0
LINE
  8
0
 10
11.439431488694572
 20
31.745058534371978
 11
11.308939082845031
 21
31.480782887608076
  0
LINE
  8
0
 10
11.308939082845031
 20
31.480782887608076
 11
11.27398666190098
 21
31.393548025236075
  0
LINE
  8
0
 10
11.27398666190098
 20
31.393548025236075
 11
11.207753981005633
 21
31.18207080926618
  0
LINE
  8
0
 10
11.207753981005633
 20
31.18207080926618
 11
10.948291345015543
 21
30.580671967546596
  0
LINE
  8
0
 10
10.948291345015543
 20
30.580671967546596
 11
10.678915863355611
 21
30.204848148548844
  0
LINE
  8
0
 10
10.678915863355611
 20
30.204848148548844
 11
10.432811834645612
 21
30.051293973305366
  0
LINE
  8
0
 10
10.432811834645612
 20
30.051293973305366
 11
7.796968714365394
 21
30.84041360154478
  0
LINE
  8
0
 10
7.796968714365394
 20
30.84041360154478
 11
7.675731195950326
 21
31.103942616668387
  0
LINE
  8
0
 10
7.675731195950326
 20
31.103942616668387
 11
7.657189827054259
 21
31.56596308232188
  0
LINE
  8
0
 10
7.657189827054259
 20
31.56596308232188
 11
7.77088602008635
 21
32.21100153232845
  0
LINE
  8
0
 10
7.77088602008635
 20
32.21100153232845
 11
7.831758051313958
 21
32.42408362145639
  0
LINE
  8
0
 10
7.831758051313958
 20
32.42408362145639
 11
7.850492069709247
 21
32.516173954812835
  0
LINE
  8
0
 10
7.850492069709247
 20
32.516173954812835
 11
7.886689095723056
 21
32.80867978512159
  0
LINE
  8
0
 10
7.886689095723056
 20
32.80867978512159
 11
7.909252151999636
 21
33.303663199094146
  0
LINE
  8
0
 10
7.909252151999636
 20
33.303663199094146
 11
7.886962995300765
 21
33.999564158222036
  0
LINE
  8
0
 10
7.886962995300765
 20
33.999564158222036
 11
7.788856800785097
 21
34.89120135993004
  0
LINE
  8
0
 10
7.788856800785097
 20
34.89120135993004
 11
7.584595420398295
 21
35.96980938903557
  0
LINE
  8
0
 10
7.584595420398295
 20
35.96980938903557
 11
7.551216661794899
 21
36.09293669755059
  0
LINE
  8
0
 10
7.551216661794899
 20
36.09293669755059
 11
6.411776073625259
 21
36.362989077810745
  0
LINE
  8
0
 10
6.411776073625259
 20
36.362989077810745
 11
5.248688807296266
 21
36.49893448213147
  0
LINE
  8
0
 10
5.248688807296266
 20
36.49893448213147
 11
5.175211014440055
 21
36.394648866704244
  0
LINE
  8
0
 10
5.175211014440055
 20
36.394648866704244
 11
4.614362429872193
 21
35.45095036762921
  0
LINE
  8
0
 10
4.614362429872193
 20
35.45095036762921
 11
4.217214879309978
 21
34.64663976347583
  0
LINE
  8
0
 10
4.217214879309978
 20
34.64663976347583
 11
3.958257777454877
 21
34.00033010795368
  0
LINE
  8
0
 10
3.958257777454877
 20
34.00033010795368
 11
3.810165816749645
 21
33.527480826690706
  0
LINE
  8
0
 10
3.810165816749645
 20
33.527480826690706
 11
3.744137008982607
 21
33.240235144387654
  0
LINE
  8
0
 10
3.744137008982607
 20
33.240235144387654
 11
3.7302444788136646
 21
33.147291126030275
  0
LINE
  8
0
 10
3.7302444788136646
 20
33.147291126030275
 11
3.7145671107067844
 21
32.92623999840998
  0
LINE
  8
0
 10
3.7145671107067844
 20
32.92623999840998
 11
3.600790441196165
 21
32.281215738578105
  0
LINE
  8
0
 10
3.600790441196165
 20
32.281215738578105
 11
3.4253469477709126
 21
31.853400038000952
  0
LINE
  8
0
 10
3.4253469477709126
 20
31.853400038000952
 11
3.221288714835532
 21
31.647229440549992
  0
LINE
  8
0
 10
3.221288714835532
 20
31.647229440549992
 11
0.4745115768073647
 21
31.807210990758318
  0
LINE
  8
0
 10
0.4745115768073647
 20
31.807210990758318
 11
0.29576805810312795
 21
32.03567725129735
  0
LINE
  8
0
 10
0.29576805810312795
 20
32.03567725129735
 11
0.17117722221777276
 21
32.480967961571665
  0
LINE
  8
0
 10
0.17117722221777276
 20
32.480967961571665
 11
0.1330526158414844
 21
33.134839463233504
  0
LINE
  8
0
 10
0.1330526158414844
 20
33.134839463233504
 11
0.14314372206542475
 21
33.3562159535573
  0
LINE
  8
0
 10
0.14314372206542475
 20
33.3562159535573
 11
0.14013527015635002
 21
33.450144342024515
  0
LINE
  8
0
 10
0.14013527015635002
 20
33.450144342024515
 11
0.10790011389543601
 21
33.74311324849361
  0
LINE
  8
0
 10
0.10790011389543601
 20
33.74311324849361
 11
0.015703949053621172
 21
34.22995771935152
  0
LINE
  8
0
 10
0.015703949053621172
 20
34.22995771935152
 11
-0.1664702061815441
 21
34.90196034478227
  0
LINE
  8
0
 10
-0.1664702061815441
 20
34.90196034478227
 11
-0.4675576251853632
 21
35.74693850484893
  0
LINE
  8
0
 10
-0.4675576251853632
 20
35.74693850484893
 11
-0.9150572434502549
 21
36.74936659883932
  0
LINE
  8
0
 10
-0.9150572434502549
 20
36.74936659883932
 11
-0.9759313847609759
 21
36.86147732333854
  0
LINE
  8
0
 10
-0.9759313847609759
 20
36.86147732333854
 11
-2.146936569229672
 21
36.86147732333853
  0
LINE
  8
0
 10
-2.146936569229672
 20
36.86147732333853
 11
-3.3100238355586673
 21
36.725531919017804
  0
LINE
  8
0
 10
-3.3100238355586673
 20
36.725531919017804
 11
-3.35747110699127
 21
36.60711219067132
  0
LINE
  8
0
 10
-3.35747110699127
 20
36.60711219067132
 11
-3.68557009429446
 21
35.55951062208771
  0
LINE
  8
0
 10
-3.68557009429446
 20
35.55951062208771
 11
-3.886525690908154
 21
34.68529178617717
  0
LINE
  8
0
 10
-3.886525690908154
 20
34.68529178617717
 11
-3.9894533065909896
 21
33.99668387353587
  0
LINE
  8
0
 10
-3.9894533065909896
 20
33.99668387353587
 11
-4.024506880600926
 21
33.50242794937758
  0
LINE
  8
0
 10
-4.024506880600926
 20
33.50242794937758
 11
-4.022512460167819
 21
33.207697720619116
  0
LINE
  8
0
 10
-4.022512460167819
 20
33.207697720619116
 11
-4.014596149664294
 21
33.114055182363664
  0
LINE
  8
0
 10
-4.014596149664294
 20
33.114055182363664
 11
-3.978873034010135
 21
32.89534706659993
  0
LINE
  8
0
 10
-3.978873034010135
 20
32.89534706659993
 11
-3.940830007337973
 21
32.24147081346162
  0
LINE
  8
0
 10
-3.940830007337973
 20
32.24147081346162
 11
-4.012883308386133
 21
31.78472688645914
  0
LINE
  8
0
 10
-4.012883308386133
 20
31.78472688645914
 11
-4.163894913390846
 21
31.53705457707455
  0
LINE
  8
0
 10
-4.163894913390846
 20
31.53705457707455
 11
-6.8735266026791
 21
31.059273402470374
  0
LINE
  8
0
 10
-6.8735266026791
 20
31.059273402470374
 11
-7.100140012313125
 21
31.24036023318289
  0
LINE
  8
0
 10
-7.100140012313125
 20
31.24036023318289
 11
-7.324063590976054
 21
31.644915450627927
  0
LINE
  8
0
 10
-7.324063590976054
 20
31.644915450627927
 11
-7.511953689362788
 21
32.272369622042135
  0
LINE
  8
0
 10
-7.511953689362788
 20
32.272369622042135
 11
-7.553187522291035
 21
32.490106049667254
  0
LINE
  8
0
 10
-7.553187522291035
 20
32.490106049667254
 11
-7.577776258083346
 21
32.580808789510506
  0
LINE
  8
0
 10
-7.577776258083346
 20
32.580808789510506
 11
-7.676705791001197
 21
32.858446742560005
  0
LINE
  8
0
 10
-7.676705791001197
 20
32.858446742560005
 11
-7.878690857850697
 21
33.31090635886434
  0
LINE
  8
0
 10
-7.878690857850697
 20
33.31090635886434
 11
-8.210928955759405
 21
33.922782815119575
  0
LINE
  8
0
 10
-8.210928955759405
 20
33.922782815119575
 11
-8.698765898559307
 21
34.675548942221255
  0
LINE
  8
0
 10
-8.698765898559307
 20
34.675548942221255
 11
-9.36537893445067
 21
35.547755943080645
  0
LINE
  8
0
 10
-9.36537893445067
 20
35.547755943080645
 11
-9.45046671775397
 21
35.64280616538753
  0
LINE
  8
0
 10
-9.45046671775397
 20
35.64280616538753
 11
-10.589907305923592
 21
35.37275378512737
  0
LINE
  8
0
 10
-10.589907305923592
 20
35.37275378512737
 11
-11.690292236670873
 21
34.972246424100284
  0
LINE
  8
0
 10
-11.690292236670873
 20
34.972246424100284
 11
-11.709151091995668
 21
34.8460766210415
  0
LINE
  8
0
 10
-11.709151091995668
 20
34.8460766210415
 11
-11.786812580703415
 21
33.751048454673196
  0
LINE
  8
0
 10
-11.786812580703415
 20
33.751048454673196
 11
-11.780742655139726
 21
32.85405075073254
  0
LINE
  8
0
 10
-11.780742655139726
 20
32.85405075073254
 11
-11.722091930247016
 21
32.16026761178211
  0
LINE
  8
0
 10
-11.722091930247016
 20
32.16026761178211
 11
-11.6422173703135
 21
31.67125050953326
  0
LINE
  8
0
 10
-11.6422173703135
 20
31.67125050953326
 11
-11.572307241402035
 21
31.38492471723983
  0
LINE
  8
0
 10
-11.572307241402035
 20
31.38492471723983
 11
-11.54300886057435
 21
31.295631952562125
  0
LINE
  8
0
 10
-11.54300886057435
 20
31.295631952562125
 11
-11.457811103570647
 21
31.091057459786263
  0
LINE
  8
0
 10
-11.457811103570647
 20
31.091057459786263
 11
-11.269999290130672
 21
30.463579851397746
  0
LINE
  8
0
 10
-11.269999290130672
 20
30.463579851397746
 11
-11.234777986691931
 21
30.002530881298412
  0
LINE
  8
0
 10
-11.234777986691931
 20
30.002530881298412
 11
-11.324601889052275
 21
29.726708938286702
  0
LINE
  8
0
 10
-11.324601889052275
 20
29.726708938286702
 11
-13.851011183869067
 21
28.636922345661986
  0
LINE
  8
0
 10
-13.851011183869067
 20
28.636922345661986
 11
-14.113277696862815
 21
28.760867308631695
  0
LINE
  8
0
 10
-14.113277696862815
 20
28.760867308631695
 11
-14.424462240217139
 21
29.10287735675978
  0
LINE
  8
0
 10
-14.424462240217139
 20
29.10287735675978
 11
-14.751988626776754
 21
29.670087981134944
  0
LINE
  8
0
 10
-14.751988626776754
 20
29.670087981134944
 11
-14.842324472251045
 21
29.87244611888915
  0
LINE
  8
0
 10
-14.842324472251045
 20
29.87244611888915
 11
-14.88716790681547
 21
29.95503340192596
  0
LINE
  8
0
 10
-14.88716790681547
 20
29.95503340192596
 11
-15.047458499663705
 21
30.202372867643067
  0
LINE
  8
0
 10
-15.047458499663705
 20
30.202372867643067
 11
-15.348343401285147
 21
30.596055414364045
  0
LINE
  8
0
 10
-15.348343401285147
 20
30.596055414364045
 11
-15.812734400012513
 21
31.114819283308734
  0
LINE
  8
0
 10
-15.812734400012513
 20
31.114819283308734
 11
-16.46102145075027
 21
31.734791560687132
  0
LINE
  8
0
 10
-16.46102145075027
 20
31.734791560687132
 11
-17.310810622956847
 21
32.429756563236836
  0
LINE
  8
0
 10
-17.310810622956847
 20
32.429756563236836
 11
-17.415524943830693
 21
32.50262210126398
  0
LINE
  8
0
 10
-17.415524943830693
 20
32.50262210126398
 11
-18.461973398659865
 21
31.977075934463933
  0
LINE
  8
0
 10
-18.461973398659865
 20
31.977075934463933
 11
-19.44033395738482
 21
31.333598072230917
  0
LINE
  8
0
 10
-19.44033395738482
 20
31.333598072230917
 11
-19.429587710829818
 21
31.206480041200567
  0
LINE
  8
0
 10
-19.429587710829818
 20
31.206480041200567
 11
-19.252624949983957
 21
30.123058528933967
  0
LINE
  8
0
 10
-19.252624949983957
 20
30.123058528933967
 11
-19.039856733501164
 21
29.251639335361848
  0
LINE
  8
0
 10
-19.039856733501164
 20
29.251639335361848
 11
-18.822789543793043
 21
28.590082998702172
  0
LINE
  8
0
 10
-18.822789543793043
 20
28.590082998702172
 11
-18.632292908116852
 21
28.132667756922356
  0
LINE
  8
0
 10
-18.632292908116852
 20
28.132667756922356
 11
-18.49823594387221
 21
27.87018229866916
  0
LINE
  8
0
 10
-18.49823594387221
 20
27.87018229866916
 11
-18.449134976014385
 21
27.790053103625546
  0
LINE
  8
0
 10
-18.449134976014385
 20
27.790053103625546
 11
-18.319055610793832
 21
27.610640897695237
  0
LINE
  8
0
 10
-18.319055610793832
 20
27.610640897695237
 11
-17.991599994061865
 21
27.043389414341274
  0
LINE
  8
0
 10
-17.991599994061865
 20
27.043389414341274
 11
-17.8510028757213
 21
26.602890670461218
  0
LINE
  8
0
 10
-17.8510028757213
 20
26.602890670461218
 11
-17.874796645610974
 21
26.313788726164
  0
LINE
  8
0
 10
-17.874796645610974
 20
26.313788726164
 11
-20.08178416693606
 21
24.670747392807883
  0
LINE
  8
0
 10
-20.08178416693606
 20
24.670747392807883
 11
-20.36556492768888
 21
24.73086858299913
  0
LINE
  8
0
 10
-20.36556492768888
 20
24.73086858299913
 11
-20.747234396455255
 21
24.99189561158967
  0
LINE
  8
0
 10
-20.747234396455255
 20
24.99189561158967
 11
-21.196740038911273
 21
25.46828421734874
  0
LINE
  8
0
 10
-21.196740038911273
 20
25.46828421734874
 11
-21.331307868119527
 21
25.64435488564724
  0
LINE
  8
0
 10
-21.331307868119527
 20
25.64435488564724
 11
-21.393988480291412
 21
25.714374410072175
  0
LINE
  8
0
 10
-21.393988480291412
 20
25.714374410072175
 11
-21.606998825719906
 21
25.918081253838643
  0
LINE
  8
0
 10
-21.606998825719906
 20
25.918081253838643
 11
-21.990562779185723
 21
26.23176320298161
  0
LINE
  8
0
 10
-21.990562779185723
 20
26.23176320298161
 11
-22.562071239787226
 21
26.629447790163923
  0
LINE
  8
0
 10
-22.562071239787226
 20
26.629447790163923
 11
-23.335859075754712
 21
27.083203351871727
  0
LINE
  8
0
 10
-23.335859075754712
 20
27.083203351871727
 11
-24.323012030043117
 21
27.56346061293929
  0
LINE
  8
0
 10
-24.323012030043117
 20
27.56346061293929
 11
-24.44170771234491
 21
27.61021326667112
  0
LINE
  8
0
 10
-24.44170771234491
 20
27.61021326667112
 11
-25.338749726770665
 21
26.857505643215944
  0
LINE
  8
0
 10
-25.338749726770665
 20
26.857505643215944
 11
-26.142342242513244
 21
26.00574733788802
  0
LINE
  8
0
 10
-26.142342242513244
 20
26.00574733788802
 11
-26.102570227011782
 21
25.884534044842233
  0
LINE
  8
0
 10
-26.102570227011782
 20
25.884534044842233
 11
-25.680523324854626
 21
24.87112672083683
  0
LINE
  8
0
 10
-25.680523324854626
 20
24.87112672083683
 11
-25.272527207076315
 21
24.072264471917173
  0
LINE
  8
0
 10
-25.272527207076315
 20
24.072264471917173
 11
-24.908745700935704
 21
23.478599610895046
  0
LINE
  8
0
 10
-24.908745700935704
 20
23.478599610895046
 11
-24.617896712454353
 21
23.07744560366613
  0
LINE
  8
0
 10
-24.617896712454353
 20
23.07744560366613
 11
-24.426919958518315
 21
22.852951138449434
  0
LINE
  8
0
 10
-24.426919958518315
 20
22.852951138449434
 11
-24.36066344951688
 21
22.786305298685384
  0
LINE
  8
0
 10
-24.36066344951688
 20
22.786305298685384
 11
-24.1927150883283
 21
22.64172753806145
  0
LINE
  8
0
 10
-24.1927150883283
 20
22.64172753806145
 11
-23.74326888536109
 21
22.165282854037223
  0
LINE
  8
0
 10
-23.74326888536109
 20
22.165282854037223
 11
-23.50487557916065
 21
21.769081737677865
  0
LINE
  8
0
 10
-23.50487557916065
 20
21.769081737677865
 11
-23.46135648828612
 21
21.48228535274345
  0
LINE
  8
0
 10
-23.46135648828612
 20
21.48228535274345
 11
-25.229942967587434
 21
19.374566062222563
  0
LINE
  8
0
 10
-25.229942967587434
 20
19.374566062222563
 11
-25.51993928183323
 21
19.367622330710347
  0
LINE
  8
0
 10
-25.51993928183323
 20
19.367622330710347
 11
-25.951517776158997
 21
19.533594305087703
  0
LINE
  8
0
 10
-25.951517776158997
 20
19.533594305087703
 11
-26.49876970897642
 21
19.8934786591856
  0
LINE
  8
0
 10
-26.49876970897642
 20
19.8934786591856
 11
-26.670314935414435
 21
20.03376984272624
  0
LINE
  8
0
 10
-26.670314935414435
 20
20.03376984272624
 11
-26.74745359716732
 21
20.087446837853676
  0
LINE
  8
0
 10
-26.74745359716732
 20
20.087446837853676
 11
-27.00170025231835
 21
20.2365391709945
  0
LINE
  8
0
 10
-27.00170025231835
 20
20.2365391709945
 11
-27.447265225615375
 21
20.453309847487613
  0
LINE
  8
0
 10
-27.447265225615375
 20
20.453309847487613
 11
-28.095080979050532
 21
20.70847587387573
  0
LINE
  8
0
 10
-28.095080979050532
 20
20.70847587387573
 11
-28.952654497723227
 21
20.971552640131026
  0
LINE
  8
0
 10
-28.952654497723227
 20
20.971552640131026
 11
-30.023953562812757
 21
21.211211366462337
  0
LINE
  8
0
 10
-30.023953562812757
 20
21.211211366462337
 11
-30.150231691586377
 21
21.229330688234693
  0
LINE
  8
0
 10
-30.150231691586377
 20
21.229330688234693
 11
-30.84950749842034
 21
20.29004027093597
  0
LINE
  8
0
 10
-30.84950749842034
 20
20.29004027093597
 11
-31.4350100906547
 21
19.275920033222793
  0
LINE
  8
0
 10
-31.4350100906547
 20
19.275920033222793
 11
-31.368356425857066
 21
19.167146118164545
  0
LINE
  8
0
 10
-31.368356425857066
 20
19.167146118164545
 11
-30.72397804012666
 21
18.27838603356819
  0
LINE
  8
0
 10
-30.72397804012666
 20
18.27838603356819
 11
-30.142749197368122
 21
17.59514759991803
  0
LINE
  8
0
 10
-30.142749197368122
 20
17.59514759991803
 11
-29.651864929952396
 21
17.10137884085558
  0
LINE
  8
0
 10
-29.651864929952396
 20
17.10137884085558
 11
-29.276343332918373
 21
16.77811238454213
  0
LINE
  8
0
 10
-29.276343332918373
 20
16.77811238454213
 11
-29.038742395528118
 21
16.603711467089987
  0
LINE
  8
0
 10
-29.038742395528118
 20
16.603711467089987
 11
-28.9589022509332
 21
16.554141877077818
  0
LINE
  8
0
 10
-28.9589022509332
 20
16.554141877077818
 11
-28.76213903340008
 21
16.45219278625805
  0
LINE
  8
0
 10
-28.76213903340008
 20
16.45219278625805
 11
-28.214932005334408
 21
16.092240157802415
  0
LINE
  8
0
 10
-28.214932005334408
 20
16.092240157802415
 11
-27.89159435611716
 21
15.761695973699526
  0
LINE
  8
0
 10
-27.89159435611716
 20
15.761695973699526
 11
-27.783108529931972
 21
15.492666415474204
  0
LINE
  8
0
 10
-27.783108529931972
 20
15.492666415474204
 11
-29.01794901232883
 21
13.033896860303333
  0
LINE
  8
0
 10
-29.01794901232883
 20
13.033896860303333
 11
-29.29852710370387
 21
12.96026254545079
  0
LINE
  8
0
 10
-29.29852710370387
 20
12.96026254545079
 11
-29.756748115249994
 21
13.02223187351604
  0
LINE
  8
0
 10
-29.756748115249994
 20
13.02223187351604
 11
-30.372243845079748
 21
13.246210517270757
  0
LINE
  8
0
 10
-30.372243845079748
 20
13.246210517270757
 11
-30.571518421187424
 21
13.343159082035838
  0
LINE
  8
0
 10
-30.571518421187424
 20
13.343159082035838
 11
-30.65895656729961
 21
13.377599807164678
  0
LINE
  8
0
 10
-30.65895656729961
 20
13.377599807164678
 11
-30.940733029184695
 21
13.464040023409131
  0
LINE
  8
0
 10
-30.940733029184695
 20
13.464040023409131
 11
-31.424278499272283
 21
13.572213263973646
  0
LINE
  8
0
 10
-31.424278499272283
 20
13.572213263973646
 11
-32.113477630592556
 21
13.67110466303772
  0
LINE
  8
0
 10
-32.113477630592556
 20
13.67110466303772
 11
-33.00860482160419
 21
13.729320097276803
  0
LINE
  8
0
 10
-33.00860482160419
 20
13.729320097276803
 11
-34.106295987600426
 21
13.715460224902
  0
LINE
  8
0
 10
-34.106295987600426
 20
13.715460224902
 11
-34.23334887623781
 21
13.70396939738812
  0
LINE
  8
0
 10
-34.23334887623781
 20
13.70396939738812
 11
-34.697160335732804
 21
12.628733575768662
  0
LINE
  8
0
 10
-34.697160335732804
 20
12.628733575768662
 11
-35.03300840815988
 21
11.506922890180581
  0
LINE
  8
0
 10
-35.03300840815988
 20
11.506922890180581
 11
-34.94306641038797
 21
11.416452383025748
  0
LINE
  8
0
 10
-34.94306641038797
 20
11.416452383025748
 11
-34.111095146650186
 21
10.700252824045998
  0
LINE
  8
0
 10
-34.111095146650186
 20
10.700252824045998
 11
-33.38796777627002
 21
10.169471766473098
  0
LINE
  8
0
 10
-33.38796777627002
 20
10.169471766473098
 11
-32.7964444454962
 21
9.80221831097866
  0
LINE
  8
0
 10
-32.7964444454962
 20
9.80221831097866
 11
-32.356494706405755
 21
9.574266783914934
  0
LINE
  8
0
 10
-32.356494706405755
 20
9.574266783914934
 11
-32.0850787135967
 21
9.459361412829184
  0
LINE
  8
0
 10
-32.0850787135967
 20
9.459361412829184
 11
-31.995959136269256
 21
9.429540381997052
  0
LINE
  8
0
 10
-31.995959136269256
 20
9.429540381997052
 11
-31.780988618379077
 21
9.375716062856087
  0
LINE
  8
0
 10
-31.780988618379077
 20
9.375716062856087
 11
-31.16552083773722
 21
9.151660629339354
  0
LINE
  8
0
 10
-31.16552083773722
 20
9.151660629339354
 11
-30.7746700618653
 21
8.904593100016095
  0
LINE
  8
0
 10
-30.7746700618653
 20
8.904593100016095
 11
-30.6070659993396
 21
8.667833821619501
  0
LINE
  8
0
 10
-30.6070659993396
 20
8.667833821619501
 11
-31.241589914799448
 21
5.990566904946683
  0
LINE
  8
0
 10
-31.241589914799448
 20
5.990566904946683
 11
-31.497623745772763
 21
5.85421165172705
  0
LINE
  8
0
 10
-31.497623745772763
 20
5.85421165172705
 11
-31.95778446120071
 21
5.808837550964029
  0
LINE
  8
0
 10
-31.95778446120071
 20
5.808837550964029
 11
-32.60834245393254
 21
5.884835737716039
  0
LINE
  8
0
 10
-32.60834245393254
 20
5.884835737716039
 11
-32.82460343573161
 21
5.933215161484874
  0
LINE
  8
0
 10
-32.82460343573161
 20
5.933215161484874
 11
-32.91762725311368
 21
5.946562908208775
  0
LINE
  8
0
 10
-32.91762725311368
 20
5.946562908208775
 11
-33.211742879737464
 21
5.965690993124898
  0
LINE
  8
0
 10
-33.211742879737464
 20
5.965690993124898
 11
-33.70720078516212
 21
5.959435150362385
  0
LINE
  8
0
 10
-33.70720078516212
 20
5.959435150362385
 11
-34.40062839080548
 21
5.896720661181787
  0
LINE
  8
0
 10
-34.40062839080548
 20
5.896720661181787
 11
-35.285052715593565
 21
5.746936354276321
  0
LINE
  8
0
 10
-35.285052715593565
 20
5.746936354276321
 11
-36.349959167610905
 21
5.480305072502619
  0
LINE
  8
0
 10
-36.349959167610905
 20
5.480305072502619
 11
-36.47093736199919
 21
5.439823569188068
  0
LINE
  8
0
 10
-36.47093736199919
 20
5.439823569188068
 11
-36.6742802783207
 21
4.286608584705812
  0
LINE
  8
0
 10
-36.6742802783207
 20
4.286608584705812
 11
-36.74236817442492
 21
3.1175845556727553
  0
LINE
  8
0
 10
-36.74236817442492
 20
3.1175845556727553
 11
-36.63398664005924
 21
3.050294744879474
  0
LINE
  8
0
 10
-36.63398664005924
 20
3.050294744879474
 11
-35.65927428448991
 21
2.545266215122274
  0
LINE
  8
0
 10
-35.65927428448991
 20
2.545266215122274
 11
-34.83323237019984
 21
2.1955570778279445
  0
LINE
  8
0
 10
-34.83323237019984
 20
2.1955570778279445
 11
-34.17295915194007
 21
1.9746176547472365
  0
LINE
  8
0
 10
-34.17295915194007
 20
1.9746176547472365
 11
-33.6922990751043
 21
1.8542699827602929
  0
LINE
  8
0
 10
-33.6922990751043
 20
1.8542699827602929
 11
-33.4017001333022
 21
1.805054736338317
  0
LINE
  8
0
 10
-33.4017001333022
 20
1.805054736338317
 11
-33.308105582723705
 21
1.7965899241772745
  0
LINE
  8
0
 10
-33.308105582723705
 20
1.7965899241772745
 11
-33.08651688073896
 21
1.793792059691904
  0
LINE
  8
0
 10
-33.08651688073896
 20
1.793792059691904
 11
-32.43596837488322
 21
1.7177127075295482
  0
LINE
  8
0
 10
-32.43596837488322
 20
1.7177127075295482
 11
-31.99867533885184
 21
1.5674413074427818
  0
LINE
  8
0
 10
-31.99867533885184
 20
1.5674413074427818
 11
-31.78098861837908
 21
1.3757160628561291
  0
LINE
  8
0
 10
-31.78098861837908
 20
1.3757160628561291
 11
-31.780988618379084
 21
-1.3757160628560914
  0
LINE
  8
0
 10
-31.780988618379084
 20
-1.3757160628560914
 11
-31.998675338851015
 21
-1.5674413074475024
  0
LINE
  8
0
 10
-31.998675338851015
 20
-1.5674413074475024
 11
-32.435968374883906
 21
-1.7177127075220133
  0
LINE
  8
0
 10
-32.435968374883906
 20
-1.7177127075220133
 11
-33.08651688073898
 21
-1.7937920596919066
  0
LINE
  8
0
 10
-33.08651688073898
 20
-1.7937920596919066
 11
-33.30810558272359
 21
-1.7965899241772434
  0
LINE
  8
0
 10
-33.30810558272359
 20
-1.7965899241772434
 11
-33.40170013330214
 21
-1.805054736339102
  0
LINE
  8
0
 10
-33.40170013330214
 20
-1.805054736339102
 11
-33.69229907510435
 21
-1.8542699827602565
  0
LINE
  8
0
 10
-33.69229907510435
 20
-1.8542699827602565
 11
-34.17295915194014
 21
-1.9746176547472074
  0
LINE
  8
0
 10
-34.17295915194014
 20
-1.9746176547472074
 11
-34.83323237019931
 21
-2.195557077827711
  0
LINE
  8
0
 10
-34.83323237019931
 20
-2.195557077827711
 11
-35.659274284489825
 21
-2.545266215122228
  0
LINE
  8
0
 10
-35.659274284489825
 20
-2.545266215122228
 11
-36.633986640059234
 21
-3.0502947448794724
  0
LINE
  8
0
 10
-36.633986640059234
 20
-3.0502947448794724
 11
-36.742368174424925
 21
-3.1175845556727597
  0
LINE
  8
0
 10
-36.742368174424925
 20
-3.1175845556727597
 11
-36.67428027832071
 21
-4.286608584705818
  0
LINE
  8
0
 10
-36.67428027832071
 20
-4.286608584705818
 11
-36.47093736199919
 21
-5.4398235691880865
  0
LINE
  8
0
 10
-36.47093736199919
 20
-5.4398235691880865
 11
-36.34995916761091
 21
-5.4803050725026345
  0
LINE
  8
0
 10
-36.34995916761091
 20
-5.4803050725026345
 11
-35.28505271559366
 21
-5.746936354276309
  0
LINE
  8
0
 10
-35.28505271559366
 20
-5.746936354276309
 11
-34.40062839080605
 21
-5.896720661181695
  0
LINE
  8
0
 10
-34.40062839080605
 20
-5.896720661181695
 11
-33.70720078516206
 21
-5.959435150362353
  0
LINE
  8
0
 10
-33.70720078516206
 20
-5.959435150362353
 11
-33.21174287973742
 21
-5.965690993124864
  0
LINE
  8
0
 10
-33.21174287973742
 20
-5.965690993124864
 11
-32.91762725311355
 21
-5.9465629082095655
  0
LINE
  8
0
 10
-32.91762725311355
 20
-5.9465629082095655
 11
-32.82460343573173
 21
-5.933215161484883
  0
LINE
  8
0
 10
-32.82460343573173
 20
-5.933215161484883
 11
-32.60834245393252
 21
-5.884835737716052
  0
LINE
  8
0
 10
-32.60834245393252
 20
-5.884835737716052
 11
-31.95778446120178
 21
-5.80883755095655
  0
LINE
  8
0
 10
-31.95778446120178
 20
-5.80883755095655
 11
-31.497623745772472
 21
-5.854211651731845
  0
LINE
  8
0
 10
-31.497623745772472
 20
-5.854211651731845
 11
-31.241589914799455
 21
-5.990566904946659
  0
LINE
  8
0
 10
-31.241589914799455
 20
-5.990566904946659
 11
-30.607065999339607
 21
-8.667833821619476
  0
LINE
  8
0
 10
-30.607065999339607
 20
-8.667833821619476
 11
-30.77467006186341
 21
-8.904593100020513
  0
LINE
  8
0
 10
-30.77467006186341
 20
-8.904593100020513
 11
-31.165520837739617
 21
-9.151660629332191
  0
LINE
  8
0
 10
-31.165520837739617
 20
-9.151660629332191
 11
-31.780988618379087
 21
-9.375716062856105
  0
LINE
  8
0
 10
-31.780988618379087
 20
-9.375716062856105
 11
-31.995959136269153
 21
-9.429540381997008
  0
LINE
  8
0
 10
-31.995959136269153
 20
-9.429540381997008
 11
-32.08507871359646
 21
-9.459361412829947
  0
LINE
  8
0
 10
-32.08507871359646
 20
-9.459361412829947
 11
-32.35649470640581
 21
-9.574266783914924
  0
LINE
  8
0
 10
-32.35649470640581
 20
-9.574266783914924
 11
-32.79644444549627
 21
-9.802218310978661
  0
LINE
  8
0
 10
-32.79644444549627
 20
-9.802218310978661
 11
-33.38796777626955
 21
-10.169471766472762
  0
LINE
  8
0
 10
-33.38796777626955
 20
-10.169471766472762
 11
-34.11109514665011
 21
-10.700252824045947
  0
LINE
  8
0
 10
-34.11109514665011
 20
-10.700252824045947
 11
-34.943066410387964
 21
-11.41645238302576
  0
LINE
  8
0
 10
-34.943066410387964
 20
-11.41645238302576
 11
-35.03300840815987
 21
-11.506922890180599
  0
LINE
  8
0
 10
-35.03300840815987
 20
-11.506922890180599
 11
-34.69716033573281
 21
-12.628733575768665
  0
LINE
  8
0
 10
-34.69716033573281
 20
-12.628733575768665
 11
-34.233348876237805
 21
-13.703969397388136
  0
LINE
  8
0
 10
-34.233348876237805
 20
-13.703969397388136
 11
-34.10629598760043
 21
-13.715460224902012
  0
LINE
  8
0
 10
-34.10629598760043
 20
-13.715460224902012
 11
-33.00860482160428
 21
-13.729320097276814
  0
LINE
  8
0
 10
-33.00860482160428
 20
-13.729320097276814
 11
-32.11347763059313
 21
-13.671104663037761
  0
LINE
  8
0
 10
-32.11347763059313
 20
-13.671104663037761
 11
-31.424278499272233
 21
-13.5722132639736
  0
LINE
  8
0
 10
-31.424278499272233
 20
-13.5722132639736
 11
-30.94073302918466
 21
-13.464040023409085
  0
LINE
  8
0
 10
-30.94073302918466
 20
-13.464040023409085
 11
-30.65895656729931
 21
-13.377599807165417
  0
LINE
  8
0
 10
-30.65895656729931
 20
-13.377599807165417
 11
-30.571518421187537
 21
-13.343159082035873
  0
LINE
  8
0
 10
-30.571518421187537
 20
-13.343159082035873
 11
-30.37224384507973
 21
-13.246210517270763
  0
LINE
  8
0
 10
-30.37224384507973
 20
-13.246210517270763
 11
-29.75674811525276
 21
-13.022231873509009
  0
LINE
  8
0
 10
-29.75674811525276
 20
-13.022231873509009
 11
-29.298527103702483
 21
-12.960262545455391
  0
LINE
  8
0
 10
-29.298527103702483
 20
-12.960262545455391
 11
-29.017949012328845
 21
-13.033896860303312
  0
LINE
  8
0
 10
-29.017949012328845
 20
-13.033896860303312
 11
-27.783108529931987
 21
-15.492666415474181
  0
LINE
  8
0
 10
-27.783108529931987
 20
-15.492666415474181
 11
-27.891594356114307
 21
-15.761695973703386
  0
LINE
  8
0
 10
-27.891594356114307
 20
-15.761695973703386
 11
-28.214932005338397
 21
-16.092240157795995
  0
LINE
  8
0
 10
-28.214932005338397
 20
-16.092240157795995
 11
-28.762139033400093
 21
-16.452192786258067
  0
LINE
  8
0
 10
-28.762139033400093
 20
-16.452192786258067
 11
-28.958902250933107
 21
-16.554141877077747
  0
LINE
  8
0
 10
-28.958902250933107
 20
-16.554141877077747
 11
-29.038742395527706
 21
-16.603711467090676
  0
LINE
  8
0
 10
-29.038742395527706
 20
-16.603711467090676
 11
-29.27634333291843
 21
-16.778112384542137
  0
LINE
  8
0
 10
-29.27634333291843
 20
-16.778112384542137
 11
-29.651864929952467
 21
-17.101378840855602
  0
LINE
  8
0
 10
-29.651864929952467
 20
-17.101378840855602
 11
-30.142749197367753
 21
-17.5951475999176
  0
LINE
  8
0
 10
-30.142749197367753
 20
-17.5951475999176
 11
-30.723978040126603
 21
-18.278386033568125
  0
LINE
  8
0
 10
-30.723978040126603
 20
-18.278386033568125
 11
-31.368356425857055
 21
-19.16714611816456
  0
LINE
  8
0
 10
-31.368356425857055
 20
-19.16714611816456
 11
-31.435010090654693
 21
-19.275920033222814
  0
LINE
  8
0
 10
-31.435010090654693
 20
-19.275920033222814
 11
-30.84950749842034
 21
-20.290040270935982
  0
LINE
  8
0
 10
-30.84950749842034
 20
-20.290040270935982
 11
-30.150231691586352
 21
-21.229330688234725
  0
LINE
  8
0
 10
-30.150231691586352
 20
-21.229330688234725
 11
-30.023953562812743
 21
-21.211211366462372
  0
LINE
  8
0
 10
-30.023953562812743
 20
-21.211211366462372
 11
-28.952654497723305
 21
-20.97155264013107
  0
LINE
  8
0
 10
-28.952654497723305
 20
-20.97155264013107
 11
-28.095080979051072
 21
-20.708475873875912
  0
LINE
  8
0
 10
-28.095080979051072
 20
-20.708475873875912
 11
-27.44726522561532
 21
-20.453309847487567
  0
LINE
  8
0
 10
-27.44726522561532
 20
-20.453309847487567
 11
-27.001700252318315
 21
-20.23653917099446
  0
LINE
  8
0
 10
-27.001700252318315
 20
-20.23653917099446
 11
-26.747453597166842
 21
-20.087446837854337
  0
LINE
  8
0
 10
-26.747453597166842
 20
-20.087446837854337
 11
-26.670314935414524
 21
-20.03376984272631
  0
LINE
  8
0
 10
-26.670314935414524
 20
-20.03376984272631
 11
-26.498769708976386
 21
-19.89347865918561
  0
LINE
  8
0
 10
-26.498769708976386
 20
-19.89347865918561
 11
-25.951517776163296
 21
-19.533594305081515
  0
LINE
  8
0
 10
-25.951517776163296
 20
-19.533594305081515
 11
-25.519939281830812
 21
-19.36762233071451
  0
LINE
  8
0
 10
-25.519939281830812
 20
-19.36762233071451
 11
-25.22994296758744
 21
-19.374566062222556
  0
LINE
  8
0
 10
-25.22994296758744
 20
-19.374566062222556
 11
-23.46135648828613
 21
-21.48228535274344
  0
LINE
  8
0
 10
-23.46135648828613
 20
-21.48228535274344
 11
-23.504875579156966
 21
-21.769081737680974
  0
LINE
  8
0
 10
-23.504875579156966
 20
-21.769081737680974
 11
-23.743268885366444
 21
-22.165282854031908
  0
LINE
  8
0
 10
-23.743268885366444
 20
-22.165282854031908
 11
-24.192715088328292
 21
-22.641727538061485
  0
LINE
  8
0
 10
-24.192715088328292
 20
-22.641727538061485
 11
-24.360663449516796
 21
-22.786305298685306
  0
LINE
  8
0
 10
-24.360663449516796
 20
-22.786305298685306
 11
-24.426919958517743
 21
-22.852951138450017
  0
LINE
  8
0
 10
-24.426919958517743
 20
-22.852951138450017
 11
-24.6178967124544
 21
-23.077445603666156
  0
LINE
  8
0
 10
-24.6178967124544
 20
-23.077445603666156
 11
-24.90874570093576
 21
-23.47859961089509
  0
LINE
  8
0
 10
-24.90874570093576
 20
-23.47859961089509
 11
-25.27252720707604
 21
-24.072264471916668
  0
LINE
  8
0
 10
-25.27252720707604
 20
-24.072264471916668
 11
-25.68052332485457
 21
-24.87112672083676
  0
LINE
  8
0
 10
-25.68052332485457
 20
-24.87112672083676
 11
-26.10257022701176
 21
-25.884534044842244
  0
LINE
  8
0
 10
-26.10257022701176
 20
-25.884534044842244
 11
-26.142342242513227
 21
-26.00574733788805
  0
LINE
  8
0
 10
-26.142342242513227
 20
-26.00574733788805
 11
-25.338749726770676
 21
-26.85750564321593
  0
LINE
  8
0
 10
-25.338749726770676
 20
-26.85750564321593
 11
-24.441707712344915
 21
-27.610213266671117
  0
LINE
  8
0
 10
-24.441707712344915
 20
-27.610213266671117
 11
-24.32301203004313
 21
-27.56346061293929
  0
LINE
  8
0
 10
-24.32301203004313
 20
-27.56346061293929
 11
-23.335859075754808
 21
-27.083203351871763
  0
LINE
  8
0
 10
-23.335859075754808
 20
-27.083203351871763
 11
-22.562071239787734
 21
-26.6294477901642
  0
LINE
  8
0
 10
-22.562071239787734
 20
-26.6294477901642
 11
-21.99056277918571
 21
-26.23176320298153
  0
LINE
  8
0
 10
-21.99056277918571
 20
-26.23176320298153
 11
-21.60699882571991
 21
-25.91808125383858
  0
LINE
  8
0
 10
-21.60699882571991
 20
-25.91808125383858
 11
-21.393988480290822
 21
-25.71437441007269
  0
LINE
  8
0
 10
-21.393988480290822
 20
-25.71437441007269
 11
-21.331307868119627
 21
-25.644354885647306
  0
LINE
  8
0
 10
-21.331307868119627
 20
-25.644354885647306
 11
-21.196740038911265
 21
-25.468284217348717
  0
LINE
  8
0
 10
-21.196740038911265
 20
-25.468284217348717
 11
-20.747234396460893
 21
-24.991895611584617
  0
LINE
  8
0
 10
-20.747234396460893
 20
-24.991895611584617
 11
-20.365564927685593
 21
-24.730868583002604
  0
LINE
  8
0
 10
-20.365564927685593
 20
-24.730868583002604
 11
-20.081784166936096
 21
-24.670747392807858
  0
LINE
  8
0
 10
-20.081784166936096
 20
-24.670747392807858
 11
-17.874796645611013
 21
-26.31378872616397
  0
LINE
  8
0
 10
-17.874796645611013
 20
-26.31378872616397
 11
-17.85100287571703
 21
-26.602890670463374
  0
LINE
  8
0
 10
-17.85100287571703
 20
-26.602890670463374
 11
-17.991599994068324
 21
-27.04338941433732
  0
LINE
  8
0
 10
-17.991599994068324
 20
-27.04338941433732
 11
-18.319055610793843
 21
-27.61064089769525
  0
LINE
  8
0
 10
-18.319055610793843
 20
-27.61064089769525
 11
-18.44913497601435
 21
-27.790053103625436
  0
LINE
  8
0
 10
-18.44913497601435
 20
-27.790053103625436
 11
-18.49823594387155
 21
-27.87018229866958
  0
LINE
  8
0
 10
-18.49823594387155
 20
-27.87018229866958
 11
-18.632292908116916
 21
-28.132667756922373
  0
LINE
  8
0
 10
-18.632292908116916
 20
-28.132667756922373
 11
-18.822789543793117
 21
-28.59008299870221
  0
LINE
  8
0
 10
-18.822789543793117
 20
-28.59008299870221
 11
-19.039856733501033
 21
-29.25163933536128
  0
LINE
  8
0
 10
-19.039856733501033
 20
-29.25163933536128
 11
-19.252624949983943
 21
-30.123058528933868
  0
LINE
  8
0
 10
-19.252624949983943
 20
-30.123058528933868
 11
-19.429587710829814
 21
-31.20648004120056
  0
LINE
  8
0
 10
-19.429587710829814
 20
-31.20648004120056
 11
-19.440333957384823
 21
-31.333598072230924
  0
LINE
  8
0
 10
-19.440333957384823
 20
-31.333598072230924
 11
-18.46197339865984
 21
-31.97707593446394
  0
LINE
  8
0
 10
-18.46197339865984
 20
-31.97707593446394
 11
-17.41552494383067
 21
-32.50262210126398
  0
LINE
  8
0
 10
-17.41552494383067
 20
-32.50262210126398
 11
-17.310810622956833
 21
-32.42975656323685
  0
LINE
  8
0
 10
-17.310810622956833
 20
-32.42975656323685
 11
-16.46102145075033
 21
-31.734791560687203
  0
LINE
  8
0
 10
-16.46102145075033
 20
-31.734791560687203
 11
-15.812734400012923
 21
-31.11481928330914
  0
LINE
  8
0
 10
-15.812734400012923
 20
-31.11481928330914
 11
-15.348343401285133
 21
-30.59605541436397
  0
LINE
  8
0
 10
-15.348343401285133
 20
-30.59605541436397
 11
-15.047458499663705
 21
-30.202372867643014
  0
LINE
  8
0
 10
-15.047458499663705
 20
-30.202372867643014
 11
-14.887167906814762
 21
-29.95503340192633
  0
LINE
  8
0
 10
-14.887167906814762
 20
-29.95503340192633
 11
-14.842324472251105
 21
-29.872446118889247
  0
LINE
  8
0
 10
-14.842324472251105
 20
-29.872446118889247
 11
-14.75198862677673
 21
-29.670087981134937
  0
LINE
  8
0
 10
-14.75198862677673
 20
-29.670087981134937
 11
-14.424462240223773
 21
-29.102877356756174
  0
LINE
  8
0
 10
-14.424462240223773
 20
-29.102877356756174
 11
-14.113277696858795
 21
-28.760867308634328
  0
LINE
  8
0
 10
-14.113277696858795
 20
-28.760867308634328
 11
-13.851011183869089
 21
-28.63692234566198
  0
LINE
  8
0
 10
-13.851011183869089
 20
-28.63692234566198
 11
-11.324601889052298
 21
-29.726708938286695
  0
LINE
  8
0
 10
-11.324601889052298
 20
-29.726708938286695
 11
-11.23477798668726
 21
-30.002530881299535
  0
LINE
  8
0
 10
-11.23477798668726
 20
-30.002530881299535
 11
-11.26999929013785
 21
-30.463579851395394
  0
LINE
  8
0
 10
-11.26999929013785
 20
-30.463579851395394
 11
-11.45781110357064
 21
-31.09105745978629
  0
LINE
  8
0
 10
-11.45781110357064
 20
-31.09105745978629
 11
-11.54300886057432
 21
-31.29563195256201
  0
LINE
  8
0
 10
-11.54300886057432
 20
-31.29563195256201
 11
-11.572307241401278
 21
-31.384924717240093
  0
LINE
  8
0
 10
-11.572307241401278
 20
-31.384924717240093
 11
-11.64221737031354
 21
-31.6712505095333
  0
LINE
  8
0
 10
-11.64221737031354
 20
-31.6712505095333
 11
-11.722091930247059
 21
-32.160267611782174
  0
LINE
  8
0
 10
-11.722091930247059
 20
-32.160267611782174
 11
-11.780742655139717
 21
-32.854050750731965
  0
LINE
  8
0
 10
-11.780742655139717
 20
-32.854050750731965
 11
-11.78681258070341
 21
-33.7510484546731
  0
LINE
  8
0
 10
-11.78681258070341
 20
-33.7510484546731
 11
-11.70915109199565
 21
-34.846076621041504
  0
LINE
  8
0
 10
-11.70915109199565
 20
-34.846076621041504
 11
-11.690292236670857
 21
-34.9722464241003
  0
LINE
  8
0
 10
-11.690292236670857
 20
-34.9722464241003
 11
-10.589907305923587
 21
-35.37275378512737
  0
LINE
  8
0
 10
-10.589907305923587
 20
-35.37275378512737
 11
-9.450466717753935
 21
-35.64280616538753
  0
LINE
  8
0
 10
-9.450466717753935
 20
-35.64280616538753
 11
-9.365378934450641
 21
-35.54775594308066
  0
LINE
  8
0
 10
-9.365378934450641
 20
-35.54775594308066
 11
-8.698765898559339
 21
-34.67554894222134
  0
LINE
  8
0
 10
-8.698765898559339
 20
-34.67554894222134
 11
-8.210928955759698
 21
-33.92278281512006
  0
LINE
  8
0
 10
-8.210928955759698
 20
-33.92278281512006
 11
-7.878690857850685
 21
-33.31090635886427
  0
LINE
  8
0
 10
-7.878690857850685
 20
-33.31090635886427
 11
-7.676705791001196
 21
-32.858446742559956
  0
LINE
  8
0
 10
-7.676705791001196
 20
-32.858446742559956
 11
-7.5777762580825545
 21
-32.580808789510705
  0
LINE
  8
0
 10
-7.5777762580825545
 20
-32.580808789510705
 11
-7.553187522291057
 21
-32.49010604966737
  0
LINE
  8
0
 10
-7.553187522291057
 20
-32.49010604966737
 11
-7.511953689362755
 21
-32.27236962204212
  0
LINE
  8
0
 10
-7.511953689362755
 20
-32.27236962204212
 11
-7.324063590983327
 21
-31.644915450625952
  0
LINE
  8
0
 10
-7.324063590983327
 20
-31.644915450625952
 11
-7.100140012308592
 21
-31.24036023318453
  0
LINE
  8
0
 10
-7.100140012308592
 20
-31.24036023318453
 11
-6.87352660267911
 21
-31.059273402470374
  0
LINE
  8
0
 10
-6.87352660267911
 20
-31.059273402470374
 11
-4.163894913390855
 21
-31.53705457707455
  0
LINE
  8
0
 10
-4.163894913390855
 20
-31.53705457707455
 11
-4.012883308381314
 21
-31.784726886459158
  0
LINE
  8
0
 10
-4.012883308381314
 20
-31.784726886459158
 11
-3.940830007345485
 21
-32.241470813460985
  0
LINE
  8
0
 10
-3.940830007345485
 20
-32.241470813460985
 11
-3.9788730340101055
 21
-32.89534706659996
  0
LINE
  8
0
 10
-3.9788730340101055
 20
-32.89534706659996
 11
-4.0145961496642775
 21
-33.11405518236356
  0
LINE
  8
0
 10
-4.0145961496642775
 20
-33.11405518236356
 11
-4.0225124601670075
 21
-33.2076977206192
  0
LINE
  8
0
 10
-4.0225124601670075
 20
-33.2076977206192
 11
-4.024506880600941
 21
-33.502427949377626
  0
LINE
  8
0
 10
-4.024506880600941
 20
-33.502427949377626
 11
-3.989453306591001
 21
-33.99668387353594
  0
LINE
  8
0
 10
-3.989453306591001
 20
-33.99668387353594
 11
-3.8865256909082606
 21
-34.685291786176606
  0
LINE
  8
0
 10
-3.8865256909082606
 20
-34.685291786176606
 11
-3.6855700942944605
 21
-35.559510622087615
  0
LINE
  8
0
 10
-3.6855700942944605
 20
-35.559510622087615
 11
-3.357471106991238
 21
-36.60711219067132
  0
LINE
  8
0
 10
-3.357471106991238
 20
-36.60711219067132
 11
-3.3100238355586313
 21
-36.72553191901782
  0
LINE
  8
0
 10
-3.3100238355586313
 20
-36.72553191901782
 11
-2.1469365692296827
 21
-36.86147732333853
  0
LINE
  8
0
 10
-2.1469365692296827
 20
-36.86147732333853
 11
-0.9759313847609801
 21
-36.86147732333853
  0
LINE
  8
0
 10
-0.9759313847609801
 20
-36.86147732333853
 11
-0.9150572434502648
 21
-36.74936659883933
  0
LINE
  8
0
 10
-0.9150572434502648
 20
-36.74936659883933
 11
-0.4675576251854126
 21
-35.74693850484902
  0
LINE
  8
0
 10
-0.4675576251854126
 20
-35.74693850484902
 11
-0.16647020618175432
 21
-34.901960344782815
  0
LINE
  8
0
 10
-0.16647020618175432
 20
-34.901960344782815
 11
0.015703949053580288
 21
-34.229957719351454
  0
LINE
  8
0
 10
0.015703949053580288
 20
-34.229957719351454
 11
0.1079001138953893
 21
-33.743113248493565
  0
LINE
  8
0
 10
0.1079001138953893
 20
-33.743113248493565
 11
0.14013527015713062
 21
-33.45014434202453
  0
LINE
  8
0
 10
0.14013527015713062
 20
-33.45014434202453
 11
0.14314372206539377
 21
-33.356215953557424
  0
LINE
  8
0
 10
0.14314372206539377
 20
-33.356215953557424
 11
0.13305261584147868
 21
-33.1348394632335
  0
LINE
  8
0
 10
0.13305261584147868
 20
-33.1348394632335
 11
0.17117722221020348
 21
-32.48096796157142
  0
LINE
  8
0
 10
0.17117722221020348
 20
-32.48096796157142
 11
0.29576805810788115
 21
-32.035677251297905
  0
LINE
  8
0
 10
0.29576805810788115
 20
-32.035677251297905
 11
0.47451157680732087
 21
-31.80721099075832
  0
LINE
  8
0
 10
0.47451157680732087
 20
-31.80721099075832
 11
3.221288714835487
 21
-31.64722944055
  0
LINE
  8
0
 10
3.221288714835487
 20
-31.64722944055
 11
3.42534694777557
 21
-31.85340003799986
  0
LINE
  8
0
 10
3.42534694777557
 20
-31.85340003799986
 11
3.6007904411886744
 21
-32.28121573857923
  0
LINE
  8
0
 10
3.6007904411886744
 20
-32.28121573857923
 11
3.7145671107067812
 21
-32.92623999841
  0
LINE
  8
0
 10
3.7145671107067812
 20
-32.92623999841
 11
3.7302444788136206
 21
-33.14729112603016
  0
LINE
  8
0
 10
3.7302444788136206
 20
-33.14729112603016
 11
3.7441370089833805
 21
-33.240235144387555
  0
LINE
  8
0
 10
3.7441370089833805
 20
-33.240235144387555
 11
3.8101658167496044
 21
-33.527480826690756
  0
LINE
  8
0
 10
3.8101658167496044
 20
-33.527480826690756
 11
3.9582577774548446
 21
-34.00033010795376
  0
LINE
  8
0
 10
3.9582577774548446
 20
-34.00033010795376
 11
4.217214879309706
 21
-34.64663976347532
  0
LINE
  8
0
 10
4.217214879309706
 20
-34.64663976347532
 11
4.614362429872133
 21
-35.45095036762913
  0
LINE
  8
0
 10
4.614362429872133
 20
-35.45095036762913
 11
5.1752110144400465
 21
-36.394648866704244
  0
LINE
  8
0
 10
5.1752110144400465
 20
-36.394648866704244
 11
5.248688807296263
 21
-36.49893448213147
  0
LINE
  8
0
 10
5.248688807296263
 20
-36.49893448213147
 11
6.411776073625276
 21
-36.36298907781074
  0
LINE
  8
0
 10
6.411776073625276
 20
-36.36298907781074
 11
7.551216661794925
 21
-36.09293669755058
  0
LINE
  8
0
 10
7.551216661794925
 20
-36.09293669755058
 11
7.584595420398317
 21
-35.96980938903556
  0
LINE
  8
0
 10
7.584595420398317
 20
-35.96980938903556
 11
7.7888568007851
 21
-34.89120135993012
  0
LINE
  8
0
 10
7.7888568007851
 20
-34.89120135993012
 11
7.886962995300713
 21
-33.999564158222604
  0
LINE
  8
0
 10
7.886962995300713
 20
-33.999564158222604
 11
7.909252151999609
 21
-33.30366319909408
  0
LINE
  8
0
 10
7.909252151999609
 20
-33.30366319909408
 11
7.886689095723027
 21
-32.808679785121555
  0
LINE
  8
0
 10
7.886689095723027
 20
-32.808679785121555
 11
7.850492069710038
 21
-32.516173954812665
  0
LINE
  8
0
 10
7.850492069710038
 20
-32.516173954812665
 11
7.831758051313983
 21
-32.424083621456504
  0
LINE
  8
0
 10
7.831758051313983
 20
-32.424083621456504
 11
7.770886020086368
 21
-32.211001532328424
  0
LINE
  8
0
 10
7.770886020086368
 20
-32.211001532328424
 11
7.657189827046865
 21
-31.56596308232338
  0
LINE
  8
0
 10
7.657189827046865
 20
-31.56596308232338
 11
7.675731195955105
 21
-31.103942616667812
  0
LINE
  8
0
 10
7.675731195955105
 20
-31.103942616667812
 11
7.796968714365377
 21
-30.840413601544782
  0
LINE
  8
0
 10
7.796968714365377
 20
-30.840413601544782
 11
10.432811834645596
 21
-30.05129397330537
  0
LINE
  8
0
 10
10.432811834645596
 20
-30.05129397330537
 11
10.678915863359915
 21
-30.204848148546695
  0
LINE
  8
0
 10
10.678915863359915
 20
-30.204848148546695
 11
10.948291345008542
 21
-30.58067196754941
  0
LINE
  8
0
 10
10.948291345008542
 20
-30.58067196754941
 11
11.207753981005663
 21
-31.182070809266193
  0
LINE
  8
0
 10
11.207753981005663
 20
-31.182070809266193
 11
11.273986661900935
 21
-31.393548025235972
  0
LINE
  8
0
 10
11.273986661900935
 20
-31.393548025235972
 11
11.308939082845788
 21
-31.48078288760779
  0
LINE
  8
0
 10
11.308939082845788
 20
-31.48078288760779
 11
11.439431488694574
 21
-31.745058534372035
  0
LINE
  8
0
 10
11.439431488694574
 20
-31.745058534372035
 11
11.69257816016132
 21
-32.17100974559436
  0
LINE
  8
0
 10
11.69257816016132
 20
-32.17100974559436
 11
12.093604303798761
 21
-32.74017842317663
  0
LINE
  8
0
 10
12.093604303798761
 20
-32.74017842317663
 11
12.665533481061184
 21
-33.431220202715274
  0
LINE
  8
0
 10
12.665533481061184
 20
-33.431220202715274
 11
13.428896170529486
 21
-34.220140601929394
  0
LINE
  8
0
 10
13.428896170529486
 20
-34.220140601929394
 11
13.524443277977415
 21
-34.304670039916346
  0
LINE
  8
0
 10
13.524443277977415
 20
-34.304670039916346
 11
14.624828208724683
 21
-33.904162678889264
  0
LINE
  8
0
 10
14.624828208724683
 20
-33.904162678889264
 11
15.671276663553853
 21
-33.378616512089216
  0
LINE
  8
0
 10
15.671276663553853
 20
-33.378616512089216
 11
15.675360581933846
 21
-33.25111044463077
  0
LINE
  8
0
 10
15.675360581933846
 20
-33.25111044463077
 11
15.62537194055482
 21
-32.15447051844655
  0
LINE
  8
0
 10
15.62537194055482
 20
-32.15447051844655
 11
15.515207980242211
 21
-31.264242667433457
  0
LINE
  8
0
 10
15.515207980242211
 20
-31.264242667433457
 11
15.376410524197697
 21
-30.581959575441637
  0
LINE
  8
0
 10
15.376410524197697
 20
-30.581959575441637
 11
15.240304627006827
 21
-30.105521902323414
  0
LINE
  8
0
 10
15.240304627006827
 20
-30.105521902323414
 11
15.137626809760715
 21
-29.82924821319893
  0
LINE
  8
0
 10
15.137626809760715
 20
-29.82924821319893
 11
15.098160276841194
 21
-29.74396054866164
  0
LINE
  8
0
 10
15.098160276841194
 20
-29.74396054866164
 11
14.9897889475695
 21
-29.55066017130855
  0
LINE
  8
0
 10
14.9897889475695
 20
-29.55066017130855
 11
14.730401346317688
 21
-28.949228962762287
  0
LINE
  8
0
 10
14.730401346317688
 20
-28.949228962762287
 11
14.641893678239393
 21
-28.495386384617703
  0
LINE
  8
0
 10
14.641893678239393
 20
-28.495386384617703
 11
14.699089250361842
 21
-28.21100153232845
  0
LINE
  8
0
 10
14.699089250361842
 20
-28.21100153232845
 11
17.081899368017243
 21
-26.83528546947234
  0
LINE
  8
0
 10
17.081899368017243
 20
-26.83528546947234
 11
17.356781660616154
 21
-26.92794507717185
  0
LINE
  8
0
 10
17.356781660616154
 20
-26.92794507717185
 11
17.70556702855938
 21
-27.231516255237096
  0
LINE
  8
0
 10
17.70556702855938
 20
-27.231516255237096
 11
18.096727933169507
 21
-27.756868111616658
  0
LINE
  8
0
 10
18.096727933169507
 20
-27.756868111616658
 11
18.209945305882464
 21
-27.947370624484282
  0
LINE
  8
0
 10
18.209945305882464
 20
-27.947370624484282
 11
18.264073323542174
 21
-28.024193476860166
  0
LINE
  8
0
 10
18.264073323542174
 20
-28.024193476860166
 11
18.451994448097512
 21
-28.25125191956318
  0
LINE
  8
0
 10
18.451994448097512
 20
-28.25125191956318
 11
18.796548627742418
 21
-28.607341920694473
  0
LINE
  8
0
 10
18.796548627742418
 20
-28.607341920694473
 11
19.3180243899572
 21
-29.06868558960517
  0
LINE
  8
0
 10
19.3180243899572
 20
-29.06868558960517
 11
20.03390234393505
 21
-29.609204303324226
  0
LINE
  8
0
 10
20.03390234393505
 20
-29.609204303324226
 11
20.958626058125436
 21
-30.200815699751285
  0
LINE
  8
0
 10
20.958626058125436
 20
-30.200815699751285
 11
21.071091510871117
 21
-30.261031956416463
  0
LINE
  8
0
 10
21.071091510871117
 20
-30.261031956416463
 11
22.049452069596033
 21
-29.617554094183472
  0
LINE
  8
0
 10
22.049452069596033
 20
-29.617554094183472
 11
22.946494084021793
 21
-28.86484647072829
  0
LINE
  8
0
 10
22.946494084021793
 20
-28.86484647072829
 11
22.92106299708143
 21
-28.739835529426795
  0
LINE
  8
0
 10
22.92106299708143
 20
-28.739835529426795
 11
22.61951923453242
 21
-27.684283848439065
  0
LINE
  8
0
 10
22.61951923453242
 20
-27.684283848439065
 11
22.307024087006923
 21
-26.843457761995396
  0
LINE
  8
0
 10
22.307024087006923
 20
-26.843457761995396
 11
22.01462262500074
 21
-26.211574595231955
  0
LINE
  8
0
 10
22.01462262500074
 20
-26.211574595231955
 11
21.77231139104284
 21
-25.779367541247137
  0
LINE
  8
0
 10
21.77231139104284
 20
-25.779367541247137
 11
21.608688170268508
 21
-25.534219979398536
  0
LINE
  8
0
 10
21.608688170268508
 20
-25.534219979398536
 11
21.550616773830743
 21
-25.46033286375122
  0
LINE
  8
0
 10
21.550616773830743
 20
-25.46033286375122
 11
21.400588472926877
 21
-25.297235071550155
  0
LINE
  8
0
 10
21.400588472926877
 20
-25.297235071550155
 11
21.009493116186224
 21
-24.771834416590067
  0
LINE
  8
0
 10
21.009493116186224
 20
-24.771834416590067
 11
20.818707882416856
 21
-24.350636496817017
  0
LINE
  8
0
 10
20.818707882416856
 20
-24.350636496817017
 11
20.808778080153832
 21
-24.060727068358727
  0
LINE
  8
0
 10
20.808778080153832
 20
-24.060727068358727
 11
22.81009728497421
 21
-22.172579779925325
  0
LINE
  8
0
 10
22.81009728497421
 20
-22.172579779925325
 11
23.098938865913077
 21
-22.199349516647892
  0
LINE
  8
0
 10
23.098938865913077
 20
-22.199349516647892
 11
23.508331010685353
 21
-22.41430245298971
  0
LINE
  8
0
 10
23.508331010685353
 20
-22.41430245298971
 11
24.010102598292733
 21
-22.835285469472364
  0
LINE
  8
0
 10
24.010102598292733
 20
-22.835285469472364
 11
24.164201084955188
 21
-22.994543239459404
  0
LINE
  8
0
 10
24.164201084955188
 20
-22.994543239459404
 11
24.2345866438872
 21
-23.05681254198291
  0
LINE
  8
0
 10
24.2345866438872
 20
-23.05681254198291
 11
24.469805610682744
 21
-23.234413001206697
  0
LINE
  8
0
 10
24.469805610682744
 20
-23.234413001206697
 11
24.887192293496632
 21
-23.501444888115504
  0
LINE
  8
0
 10
24.887192293496632
 20
-23.501444888115504
 11
25.501004780968778
 21
-23.830092391749297
  0
LINE
  8
0
 10
25.501004780968778
 20
-23.830092391749297
 11
26.322238345865006
 21
-24.19094853588411
  0
LINE
  8
0
 10
26.322238345865006
 20
-24.19094853588411
 11
27.358470989989662
 21
-24.553357006009833
  0
LINE
  8
0
 10
27.358470989989662
 20
-24.553357006009833
 11
27.481791746364973
 21
-24.586013807370012
  0
LINE
  8
0
 10
27.481791746364973
 20
-24.586013807370012
 11
28.28538426210754
 21
-23.734255502042103
  0
LINE
  8
0
 10
28.28538426210754
 20
-23.734255502042103
 11
28.984660068941537
 21
-22.794965084743353
  0
LINE
  8
0
 10
28.984660068941537
 20
-22.794965084743353
 11
28.931084973160374
 21
-22.679188641802256
  0
LINE
  8
0
 10
28.931084973160374
 20
-22.679188641802256
 11
28.394242391732085
 21
-21.721630270352428
  0
LINE
  8
0
 10
28.394242391732085
 20
-21.721630270352428
 11
27.896262751283153
 21
-20.97553510043809
  0
LINE
  8
0
 10
27.896262751283153
 20
-20.97553510043809
 11
27.466020721817355
 21
-20.428116843980106
  0
LINE
  8
0
 10
27.466020721817355
 20
-20.428116843980106
 11
27.130567212435015
 21
-20.063440803281637
  0
LINE
  8
0
 10
27.130567212435015
 20
-20.063440803281637
 11
26.9148195583167
 21
-19.86263533722226
  0
LINE
  8
0
 10
26.9148195583167
 20
-19.86263533722226
 11
26.841273942373874
 21
-19.804132043994425
  0
LINE
  8
0
 10
26.841273942373874
 20
-19.804132043994425
 11
26.65767673437294
 21
-19.680029481139236
  0
LINE
  8
0
 10
26.65767673437294
 20
-19.680029481139236
 11
26.155957674056594
 21
-19.25898386506912
  0
LINE
  8
0
 10
26.155957674056594
 20
-19.25898386506912
 11
25.873180155931568
 21
-18.893137492545584
  0
LINE
  8
0
 10
25.873180155931568
 20
-18.893137492545584
 11
25.79666029749331
 21
-18.613332580246702
  0
LINE
  8
0
 10
25.79666029749331
 20
-18.613332580246702
 11
27.30859695312462
 21
-16.314544575284156
  0
LINE
  8
0
 10
27.30859695312462
 20
-16.314544575284156
 11
27.59582629801118
 21
-16.273981277593986
  0
LINE
  8
0
 10
27.59582629801118
 20
-16.273981277593986
 11
28.043754783120626
 21
-16.388727803775687
  0
LINE
  8
0
 10
28.043754783120626
 20
-16.388727803775687
 11
28.629086417558607
 21
-16.682646676975462
  0
LINE
  8
0
 10
28.629086417558607
 20
-16.682646676975462
 11
28.815758528867683
 21
-16.802074076479578
  0
LINE
  8
0
 10
28.815758528867683
 20
-16.802074076479578
 11
28.89860712537136
 21
-16.84643287493386
  0
LINE
  8
0
 10
28.89860712537136
 20
-16.84643287493386
 11
29.168443219022997
 21
-16.96500086395149
  0
LINE
  8
0
 10
29.168443219022997
 20
-16.96500086395149
 11
29.63616098089885
 21
-17.12857887849594
  0
LINE
  8
0
 10
29.63616098089885
 20
-17.12857887849594
 11
30.3092194035493
 21
-17.30681274486469
  0
LINE
  8
0
 10
30.3092194035493
 20
-17.30681274486469
 11
31.191535665311967
 21
-17.468552471280823
  0
LINE
  8
0
 10
31.191535665311967
 20
-17.468552471280823
 11
32.28341366930731
 21
-17.582220480674785
  0
LINE
  8
0
 10
32.28341366930731
 20
-17.582220480674785
 11
32.410941475415676
 21
-17.585557290115748
  0
LINE
  8
0
 10
32.410941475415676
 20
-17.585557290115748
 11
32.99644406765002
 21
-16.571437052402576
  0
LINE
  8
0
 10
32.99644406765002
 20
-16.571437052402576
 11
33.460255527145016
 21
-15.49620123078311
  0
LINE
  8
0
 10
33.460255527145016
 20
-15.49620123078311
 11
33.381424669804005
 21
-15.395900824208978
  0
LINE
  8
0
 10
33.381424669804005
 20
-15.395900824208978
 11
32.638224592017764
 21
-14.587957981956658
  0
LINE
  8
0
 10
32.638224592017764
 20
-14.587957981956658
 11
31.98160666995922
 21
-13.976815912301268
  0
LINE
  8
0
 10
31.98160666995922
 20
-13.976815912301268
 11
31.43671853220631
 21
-13.543374026048324
  0
LINE
  8
0
 10
31.43671853220631
 20
-13.543374026048324
 11
31.02620713291924
 21
-13.265888778383136
  0
LINE
  8
0
 10
31.02620713291924
 20
-13.265888778383136
 11
30.76996605733466
 21
-13.120250882764802
  0
LINE
  8
0
 10
30.76996605733466
 20
-13.120250882764802
 11
30.68491108507882
 21
-13.080285339637372
  0
LINE
  8
0
 10
30.68491108507882
 20
-13.080285339637372
 11
30.477642742986518
 21
-13.00186840741434
  0
LINE
  8
0
 10
30.477642742986518
 20
-13.00186840741434
 11
29.89234778350127
 21
-12.707876508380119
  0
LINE
  8
0
 10
29.89234778350127
 20
-12.707876508380119
 11
29.53282259021694
 21
-12.41710455574465
  0
LINE
  8
0
 10
29.53282259021694
 20
-12.41710455574465
 11
29.393837880978282
 21
-12.162488514852013
  0
LINE
  8
0
 10
29.393837880978282
 20
-12.162488514852013
 11
30.334883090965228
 21
-9.576988049726953
  0
LINE
  8
0
 10
30.334883090965228
 20
-9.576988049726953
 11
30.605015591470092
 21
-9.471278495501936
  0
LINE
  8
0
 10
30.605015591470092
 20
-9.471278495501936
 11
31.067332476342493
 21
-9.479632596596035
  0
LINE
  8
0
 10
31.067332476342493
 20
-9.479632596596035
 11
31.70466877769108
 21
-9.630642083980668
  0
LINE
  8
0
 10
31.70466877769108
 20
-9.630642083980668
 11
31.91385097180783
 21
-9.703800750981964
  0
LINE
  8
0
 10
31.91385097180783
 20
-9.703800750981964
 11
32.00469621660109
 21
-9.727857651060505
  0
LINE
  8
0
 10
32.00469621660109
 20
-9.727857651060505
 11
32.29460250345559
 21
-9.781001138893867
  0
LINE
  8
0
 10
32.29460250345559
 20
-9.781001138893867
 11
32.78743655878646
 21
-9.832306747969268
  0
LINE
  8
0
 10
32.78743655878646
 20
-9.832306747969268
 11
33.483456162835445
 21
-9.850518343202925
  0
LINE
  8
0
 10
33.483456162835445
 20
-9.850518343202925
 11
34.37928922341388
 21
-9.804422221384513
  0
LINE
  8
0
 10
34.37928922341388
 20
-9.804422221384513
 11
35.46794916146243
 21
-9.663221898238424
  0
LINE
  8
0
 10
35.46794916146243
 20
-9.663221898238424
 11
35.5928089602672
 21
-9.6370588274995
  0
LINE
  8
0
 10
0.3118675362266391
 20
-1.4672214011007085
 11
9.18454765366783e-17
 21
-1.5
  0
LINE
  8
0
 10
9.18454765366783e-17
 20
-1.5
 11
-0.3118675362266384
 21
-1.4672214011007085
  0
LINE
  8
0
 10
-0.3118675362266384
 20
-1.4672214011007085
 11
-0.6101049646137001
 21
-1.3703181864639014
  0
LINE
  8
0
 10
-0.6101049646137001
 20
-1.3703181864639014
 11
-0.8816778784387099
 21
-1.213525491562421
  0
LINE
  8
0
 10
-0.8816778784387099
 20
-1.213525491562421
 11
-1.114717238216091
 21
-1.0036959095382878
  0
LINE
  8
0
 10
-1.114717238216091
 20
-1.0036959095382878
 11
-1.299038105676658
 21
-0.7500000000000003
  0
LINE
  8
0
 10
-1.299038105676658
 20
-0.7500000000000003
 11
-1.4265847744427305
 21
-0.46352549156242095
  0
LINE
  8
0
 10
-1.4265847744427305
 20
-0.46352549156242095
 11
-1.49178284305241
 21
-0.15679269490147957
  0
LINE
  8
0
 10
-1.49178284305241
 20
-0.15679269490147957
 11
-1.4917828430524098
 21
0.15679269490148126
  0
LINE
  8
0
 10
-1.4917828430524098
 20
0.15679269490148126
 11
-1.4265847744427302
 21
0.46352549156242123
  0
LINE
  8
0
 10
-1.4265847744427302
 20
0.46352549156242123
 11
-1.2990381056766576
 21
0.7500000000000006
  0
LINE
  8
0
 10
-1.2990381056766576
 20
0.7500000000000006
 11
-1.114717238216091
 21
1.0036959095382878
  0
LINE
  8
0
 10
-1.114717238216091
 20
1.0036959095382878
 11
-0.8816778784387097
 21
1.2135254915624214
  0
LINE
  8
0
 10
-0.8816778784387097
 20
1.2135254915624214
 11
-0.6101049646137005
 21
1.3703181864639014
  0
LINE
  8
0
 10
-0.6101049646137005
 20
1.3703181864639014
 11
-0.3118675362266387
 21
1.4672214011007085
  0
LINE
  8
0
 10
-0.3118675362266387
 20
1.4672214011007085
 11
7.579792913117722e-16
 21
1.5
  0
LINE
  8
0
 10
7.579792913117722e-16
 20
1.5
 11
0.3118675362266389
 21
1.4672214011007085
  0
LINE
  8
0
 10
0.3118675362266389
 20
1.4672214011007085
 11
0.6101049646136999
 21
1.3703181864639014
  0
LINE
  8
0
 10
0.6101049646136999
 20
1.3703181864639014
 11
0.8816778784387097
 21
1.213525491562421
  0
LINE
  8
0
 10
0.8816778784387097
 20
1.213525491562421
 11
1.1147172382160917
 21
1.003695909538287
  0
LINE
  8
0
 10
1.1147172382160917
 20
1.003695909538287
 11
1.299038105676658
 21
0.7499999999999998
  0
LINE
  8
0
 10
1.299038105676658
 20
0.7499999999999998
 11
1.4265847744427305
 21
0.4635254915624211
  0
LINE
  8
0
 10
1.4265847744427305
 20
0.4635254915624211
 11
1.49178284305241
 21
0.1567926949014801
  0
LINE
  8
0
 10
1.49178284305241
 20
0.1567926949014801
 11
1.4917828430524098
 21
-0.1567926949014801
  0
LINE
  8
0
 10
1.4917828430524098
 20
-0.1567926949014801
 11
1.4265847744427302
 21
-0.46352549156242107
  0
LINE
  8
0
 10
1.4265847744427302
 20
-0.46352549156242107
 11
1.299038105676658
 21
-0.7500000000000001
  0
LINE
  8
0
 10
1.299038105676658
 20
-0.7500000000000001
 11
1.1147172382160913
 21
-1.0036959095382874
  0
LINE
  8
0
 10
1.1147172382160913
 20
-1.0036959095382874
 11
0.8816778784387098
 21
-1.2135254915624212
  0
LINE
  8
0
 10
0.8816778784387098
 20
-1.2135254915624212
 11
0.6101049646137003
 21
-1.3703181864639014
  0
LINE
  8
0
 10
0.6101049646137003
 20
-1.3703181864639014
 11
0.3118675362266391
 21
-1.4672214011007085
  0
ENDSEC
  0
SECTION
  2
OBJECTS
  0
DICTIONARY
  0
ENDSEC
  0
EOF
