0
SECTION
2
HEADER
9
$ACADVER
1
AC1009
9
$INSBASE
10
0.0
20
0.0
30
0.0
9
$EXTMIN
10
0.0
20
0.0
9
$EXTMAX
10
0.0
20
0.0
0
ENDSEC
0
SECTION
2
TABLES
0
TABLE
2
LTYPE
70
1
0
LTYPE
2
CONTINUOUS
70
64
3
Solid line
72
65
73
0
40
0.0
0
ENDTAB
0
TABLE
2
LAYER
70
0
0
ENDTAB
0
TABLE
2
STYLE
70
1
0
STYLE
2
STANDARD
70
0
40
0
41
40
50
50
71
0
42
1
3
ARIAL.TTF
4

0
ENDTAB
0
TABLE
2
VIEW
70
0
0
ENDTAB
0
ENDSEC
0
SECTION
2
BLOCKS
0
ENDSEC
0
SECTION
2
ENTITIES
0
LINE
8
0
10
108.416035911
20
45.1539469098
11
108.696316915
21
46.3516828284
0
LINE
8
0
10
108.696316915
20
46.3516828284
11
108.790479615
21
47.5781664843
0
LINE
8
0
10
108.790479615
20
47.5781664843
11
108.509046501
21
47.7416640573
0
LINE
8
0
10
108.509046501
20
47.7416640573
11
107.669705296
21
48.1735355833
0
LINE
8
0
10
107.669705296
20
48.1735355833
11
106.929867394
21
48.5075950911
0
LINE
8
0
10
106.929867394
20
48.5075950911
11
106.297017461
21
48.7552725807
0
LINE
8
0
10
106.297017461
20
48.7552725807
11
105.777725678
21
48.9284909829
0
LINE
8
0
10
105.777725678
20
48.9284909829
11
105.377617762
21
49.0396022628
0
LINE
8
0
10
105.377617762
20
49.0396022628
11
105.101349147
21
49.1013217908
0
LINE
8
0
10
105.101349147
20
49.1013217908
11
104.767146525
21
49.1582469364
0
LINE
8
0
10
104.767146525
20
49.1582469364
11
104.350157445
21
49.2691410613
0
LINE
8
0
10
104.350157445
20
49.2691410613
11
104.075580633
21
49.4011822412
0
LINE
8
0
10
104.075580633
20
49.4011822412
11
103.944132428
21
49.5401164763
0
LINE
8
0
10
103.944132428
20
49.5401164763
11
104.154752502
21
52.2834753531
0
LINE
8
0
10
104.154752502
20
52.2834753531
11
104.305868401
21
52.4007158635
0
LINE
8
0
10
104.305868401
20
52.4007158635
11
104.597383281
21
52.4892956229
0
LINE
8
0
10
104.597383281
20
52.4892956229
11
105.026413333
21
52.5352370312
0
LINE
8
0
10
105.026413333
20
52.5352370312
11
105.365388826
21
52.540479247
0
LINE
8
0
10
105.365388826
20
52.540479247
11
105.647841131
21
52.5593032421
0
LINE
8
0
10
105.647841131
20
52.5593032421
11
106.06022101
21
52.6080361578
0
LINE
8
0
10
106.06022101
20
52.6080361578
11
106.599868578
21
52.6999549948
0
LINE
8
0
10
106.599868578
20
52.6999549948
11
107.263109569
21
52.8481257199
0
LINE
8
0
10
107.263109569
20
52.8481257199
11
108.04527083
21
53.0653344657
0
LINE
8
0
10
108.04527083
20
53.0653344657
11
108.94070019
21
53.3640198063
0
LINE
8
0
10
108.94070019
20
53.3640198063
11
109.243792815
21
53.4826406936
0
LINE
8
0
10
109.243792815
20
53.4826406936
11
109.337955515
21
54.7091243495
0
LINE
8
0
10
109.337955515
20
54.7091243495
11
109.243792815
21
55.9356080054
0
LINE
8
0
10
109.243792815
20
55.9356080054
11
108.94070019
21
56.0542288927
0
LINE
8
0
10
108.94070019
20
56.0542288927
11
108.04527083
21
56.3529142334
0
LINE
8
0
10
108.04527083
20
56.3529142334
11
107.263109569
21
56.5701229791
0
LINE
8
0
10
107.263109569
20
56.5701229791
11
106.599868578
21
56.7182937043
0
LINE
8
0
10
106.599868578
20
56.7182937043
11
106.06022101
21
56.8102125412
0
LINE
8
0
10
106.06022101
20
56.8102125412
11
105.647841131
21
56.8589454569
0
LINE
8
0
10
105.647841131
20
56.8589454569
11
105.365388826
21
56.877769452
0
LINE
8
0
10
105.365388826
20
56.877769452
11
105.026413333
21
56.8830116678
0
LINE
8
0
10
105.026413333
20
56.8830116678
11
104.597383281
21
56.9289530761
0
LINE
8
0
10
104.597383281
20
56.9289530761
11
104.305868401
21
57.0175328355
0
LINE
8
0
10
104.305868401
20
57.0175328355
11
104.154752502
21
57.1347733459
0
LINE
8
0
10
104.154752502
20
57.1347733459
11
103.944132428
21
59.8781322227
0
LINE
8
0
10
103.944132428
20
59.8781322227
11
104.075580633
21
60.0170664578
0
LINE
8
0
10
104.075580633
20
60.0170664578
11
104.350157445
21
60.1491076377
0
LINE
8
0
10
104.350157445
20
60.1491076377
11
104.767146525
21
60.2600017626
0
LINE
8
0
10
104.767146525
20
60.2600017626
11
105.101349147
21
60.3169269082
0
LINE
8
0
10
105.101349147
20
60.3169269082
11
105.377617762
21
60.3786464362
0
LINE
8
0
10
105.377617762
20
60.3786464362
11
105.777725678
21
60.4897577161
0
LINE
8
0
10
105.777725678
20
60.4897577161
11
106.297017461
21
60.6629761183
0
LINE
8
0
10
106.297017461
20
60.6629761183
11
106.929867394
21
60.9106536079
0
LINE
8
0
10
106.929867394
20
60.9106536079
11
107.669705296
21
61.2447131157
0
LINE
8
0
10
107.669705296
20
61.2447131157
11
108.509046501
21
61.6765846417
0
LINE
8
0
10
108.509046501
20
61.6765846417
11
108.790479615
21
61.8400822147
0
LINE
8
0
10
108.790479615
20
61.8400822147
11
108.696316915
21
63.0665658707
0
LINE
8
0
10
108.696316915
20
63.0665658707
11
108.416035911
21
64.2643017892
0
LINE
8
0
10
108.416035911
20
64.2643017892
11
108.098388009
21
64.3352656177
0
LINE
8
0
10
108.098388009
20
64.3352656177
11
107.167858598
21
64.4937638418
0
LINE
8
0
10
107.167858598
20
64.4937638418
11
106.361707176
21
64.5890306365
0
LINE
8
0
10
106.361707176
20
64.5890306365
11
105.683620934
21
64.634221601
0
LINE
8
0
10
105.683620934
20
64.634221601
11
105.136266461
21
64.6426863731
0
LINE
8
0
10
105.136266461
20
64.6426863731
11
104.721280455
21
64.6278986664
0
LINE
8
0
10
104.721280455
20
64.6278986664
11
104.439264902
21
64.60338591
0
LINE
8
0
10
104.439264902
20
64.60338591
11
104.103461838
21
64.556822323
0
LINE
8
0
10
104.103461838
20
64.556822323
11
103.672446913
21
64.5367341869
0
LINE
8
0
10
103.672446913
20
64.5367341869
11
103.370826827
21
64.5797762914
0
LINE
8
0
10
103.370826827
20
64.5797762914
11
103.203585262
21
64.6725750588
0
LINE
8
0
10
103.203585262
20
64.6725750588
11
102.576661798
21
67.3516319288
0
LINE
8
0
10
102.576661798
20
67.3516319288
11
102.685361274
21
67.5090033879
0
LINE
8
0
10
102.685361274
20
67.5090033879
11
102.93656417
21
67.6814110549
0
LINE
8
0
10
102.93656417
20
67.6814110549
11
103.331738406
21
67.8546586322
0
LINE
8
0
10
103.331738406
20
67.8546586322
11
103.653334733
21
67.9619324303
0
LINE
8
0
10
103.653334733
20
67.9619324303
11
103.916944154
21
68.0651008379
0
LINE
8
0
10
103.916944154
20
68.0651008379
11
104.295401918
21
68.2359861277
0
LINE
8
0
10
104.295401918
20
68.2359861277
11
104.782166157
21
68.4864440027
0
LINE
8
0
10
104.782166157
20
68.4864440027
11
105.369791564
21
68.8278229062
0
LINE
8
0
10
105.369791564
20
68.8278229062
11
106.049964935
21
69.2709031044
0
LINE
8
0
10
106.049964935
20
69.2709031044
11
106.813544537
21
69.8258381132
0
LINE
8
0
10
106.813544537
20
69.8258381132
11
107.066721587
21
70.0303801274
0
LINE
8
0
10
107.066721587
20
70.0303801274
11
106.786440583
21
71.228116046
0
LINE
8
0
10
106.786440583
20
71.228116046
11
106.326610822
21
72.3690303124
0
LINE
8
0
10
106.326610822
20
72.3690303124
11
106.001853041
21
72.3906737501
0
LINE
8
0
10
106.001853041
20
72.3906737501
11
105.0580344
21
72.4052697935
0
LINE
8
0
10
105.0580344
20
72.4052697935
11
104.246788323
21
72.3763616644
0
LINE
8
0
10
104.246788323
20
72.3763616644
11
103.569750596
21
72.3175136303
0
LINE
8
0
10
103.569750596
20
72.3175136303
11
103.027518744
21
72.2423259304
0
LINE
8
0
10
103.027518744
20
72.2423259304
11
102.619653531
21
72.1643642126
0
LINE
8
0
10
102.619653531
20
72.1643642126
11
102.344684936
21
72.097089263
0
LINE
8
0
10
102.344684936
20
72.097089263
11
102.01992524
21
71.9998112842
0
LINE
8
0
10
102.01992524
20
71.9998112842
11
101.597028066
21
71.9141644527
0
LINE
8
0
10
101.597028066
20
71.9141644527
11
101.292372493
21
71.9106600318
0
LINE
8
0
10
101.292372493
20
71.9106600318
11
101.112925264
21
71.9768419318
0
LINE
8
0
10
101.112925264
20
71.9768419318
11
100.084392963
21
74.5288019725
0
LINE
8
0
10
100.084392963
20
74.5288019725
11
100.167795887
21
74.700922002
0
LINE
8
0
10
100.167795887
20
74.700922002
11
100.389736885
21
74.9096550665
0
LINE
8
0
10
100.389736885
20
74.9096550665
11
100.753833727
21
75.1411953198
0
LINE
8
0
10
100.753833727
20
75.1411953198
11
101.055285813
21
75.2963033636
0
LINE
8
0
10
101.055285813
20
75.2963033636
11
101.30005726
21
75.4385024706
0
LINE
8
0
10
101.30005726
20
75.4385024706
11
101.647994142
21
75.6651563641
0
LINE
8
0
10
101.647994142
20
75.6651563641
11
102.090821494
21
75.9869831914
0
LINE
8
0
10
102.090821494
20
75.9869831914
11
102.619448936
21
76.4140618768
0
LINE
8
0
10
102.619448936
20
76.4140618768
11
103.224015088
21
76.9557773411
0
LINE
8
0
10
103.224015088
20
76.9557773411
11
103.893935429
21
77.6207686264
0
LINE
8
0
10
103.893935429
20
77.6207686264
11
104.112922159
21
77.8615607904
0
LINE
8
0
10
104.112922159
20
77.8615607904
11
103.653092398
21
79.0024750568
0
LINE
8
0
10
103.653092398
20
79.0024750568
11
103.024491901
21
80.0598256076
0
LINE
8
0
10
103.024491901
20
80.0598256076
11
102.700236289
21
80.0316413507
0
LINE
8
0
10
102.700236289
20
80.0316413507
11
101.765250727
21
79.9019930946
0
LINE
8
0
10
101.765250727
20
79.9019930946
11
100.967924916
21
79.7495876236
0
LINE
8
0
10
100.967924916
20
79.7495876236
11
100.307804894
21
79.5880799391
0
LINE
8
0
10
100.307804894
20
79.5880799391
11
99.7834051184
21
79.4310021032
0
LINE
8
0
10
99.7834051184
20
79.4310021032
11
99.3922207133
21
79.2916937308
0
LINE
8
0
10
99.3922207133
20
79.2916937308
11
99.130744106
21
79.1832334559
0
LINE
8
0
10
99.130744106
20
79.1832334559
11
98.8246398698
21
79.0375211986
0
LINE
8
0
10
98.8246398698
20
79.0375211986
11
98.4197727992
21
78.8883231607
0
LINE
8
0
10
98.4197727992
20
78.8883231607
11
98.1192226083
21
78.8383543551
0
LINE
8
0
10
98.1192226083
20
78.8383543551
11
97.9317758042
21
78.8763681401
0
LINE
8
0
10
97.9317758042
20
78.8763681401
11
96.5257425927
21
81.2414155711
0
LINE
8
0
10
96.5257425927
20
81.2414155711
11
96.5818940701
21
81.4242498233
0
LINE
8
0
10
96.5818940701
20
81.4242498233
11
96.7693710607
21
81.6644157593
0
LINE
8
0
10
96.7693710607
20
81.6644157593
11
97.0938563882
21
81.9488215813
0
LINE
8
0
10
97.0938563882
20
81.9488215813
11
97.3680984515
21
82.1481282697
0
LINE
8
0
10
97.3680984515
20
82.1481282697
11
97.5882946892
21
82.3260250497
0
LINE
8
0
10
97.5882946892
20
82.3260250497
11
97.897555344
21
82.6031349715
0
LINE
8
0
10
97.897555344
20
82.6031349715
11
98.2860663127
21
82.9887874032
0
LINE
8
0
10
98.2860663127
20
82.9887874032
11
98.7433052094
21
83.4915555081
0
LINE
8
0
10
98.7433052094
20
83.4915555081
11
99.2580936244
21
84.119208887
0
LINE
8
0
10
99.2580936244
20
84.119208887
11
99.8186523389
21
84.8786696168
0
LINE
8
0
10
99.8186523389
20
84.8786696168
11
99.9983158861
21
85.1500679663
0
LINE
8
0
10
99.9983158861
20
85.1500679663
11
99.369715389
21
86.2074185171
0
LINE
8
0
10
99.369715389
20
86.2074185171
11
98.5870780187
21
87.1564219517
0
LINE
8
0
10
98.5870780187
20
87.1564219517
11
98.2709248516
21
87.0790706151
0
LINE
8
0
10
98.2709248516
20
87.0790706151
11
97.3666876371
21
86.8082169049
0
LINE
8
0
10
97.3666876371
20
86.8082169049
11
96.6019707328
21
86.5358863471
0
LINE
8
0
10
96.6019707328
20
86.5358863471
11
95.97424107
21
86.2755046153
0
LINE
8
0
10
95.97424107
20
86.2755046153
11
95.479964857
21
86.0402184147
0
LINE
8
0
10
95.479964857
20
86.0402184147
11
95.1146302907
21
85.842828658
0
LINE
8
0
10
95.1146302907
20
85.842828658
11
94.8727744618
21
85.6957252745
0
LINE
8
0
10
94.8727744618
20
85.6957252745
11
94.5925005094
21
85.5049941106
0
LINE
8
0
10
94.5925005094
20
85.5049941106
11
94.2151532829
21
85.295741942
0
LINE
8
0
10
94.2151532829
20
85.295741942
11
93.9257531153
21
85.200479978
0
LINE
8
0
10
93.9257531153
20
85.200479978
11
93.7347003312
21
85.2094346371
0
LINE
8
0
10
93.7347003312
20
85.2094346371
11
91.9841224356
21
87.3321347511
0
LINE
8
0
10
91.9841224356
20
87.3321347511
11
92.0117063238
21
87.5213977463
0
LINE
8
0
10
92.0117063238
20
87.5213977463
11
92.1603250053
21
87.7873672677
0
LINE
8
0
10
92.1603250053
20
87.7873672677
11
92.4375931571
21
88.117972427
0
LINE
8
0
10
92.4375931571
20
88.117972427
11
92.6781971963
21
88.3568061801
0
LINE
8
0
10
92.6781971963
20
88.3568061801
11
92.8686570113
21
88.5662308833
0
LINE
8
0
10
92.8686570113
20
88.5662308833
11
93.131992631
21
88.8873016119
0
LINE
8
0
10
93.131992631
20
88.8873016119
11
93.4570808481
21
89.3277402818
0
LINE
8
0
10
93.4570808481
20
89.3277402818
11
93.8322139074
21
89.8944133478
0
LINE
8
0
10
93.8322139074
20
89.8944133478
11
94.2451583814
21
90.5932929782
0
LINE
8
0
10
94.2451583814
20
90.5932929782
11
94.6832164485
21
91.4294220366
0
LINE
8
0
10
94.6832164485
20
91.4294220366
11
94.8193456512
21
91.7250652243
0
LINE
8
0
10
94.8193456512
20
91.7250652243
11
94.0367082809
21
92.6740686589
0
LINE
8
0
10
94.0367082809
20
92.6740686589
11
93.1183783938
21
93.4924811409
0
LINE
8
0
10
93.1183783938
20
93.4924811409
11
92.817738034
21
93.3677757747
0
LINE
8
0
10
92.817738034
20
93.3677757747
11
91.9654437215
21
92.9620651915
0
LINE
8
0
10
91.9654437215
20
92.9620651915
11
91.25126004
21
92.5761927444
0
LINE
8
0
10
91.25126004
20
92.5761927444
11
90.6706341878
21
92.2230400924
0
LINE
8
0
10
90.6706341878
20
92.2230400924
11
90.2180669527
21
91.9150604363
0
LINE
8
0
10
90.2180669527
20
91.9150604363
11
89.8871453577
21
91.6642159438
0
LINE
8
0
10
89.8871453577
20
91.6642159438
11
89.6705792028
21
91.4819174305
0
LINE
8
0
10
89.6705792028
20
91.4819174305
11
89.422704918
21
91.2506379368
0
LINE
8
0
10
89.422704918
20
91.2506379368
11
89.0817222349
21
90.9862363309
0
LINE
8
0
10
89.0817222349
20
90.9862363309
11
88.8102553852
21
90.8479140683
0
LINE
8
0
10
88.8102553852
20
90.8479140683
11
88.6200747365
21
90.8275997119
0
LINE
8
0
10
88.6200747365
20
90.8275997119
11
86.565984219
21
92.6581982174
0
LINE
8
0
10
86.565984219
20
92.6581982174
11
86.5643539749
21
92.8494537912
0
LINE
8
0
10
86.5643539749
20
92.8494537912
11
86.6706308513
21
93.1349927979
0
LINE
8
0
10
86.6706308513
20
93.1349927979
11
86.894182897
21
93.5040481897
0
LINE
8
0
10
86.894182897
20
93.5040481897
11
87.0955093574
21
93.7768109469
0
LINE
8
0
10
87.0955093574
20
93.7768109469
11
87.251768533
21
94.0128548357
0
LINE
8
0
10
87.251768533
20
94.0128548357
11
87.4630067539
21
94.3703607453
0
LINE
8
0
10
87.4630067539
20
94.3703607453
11
87.7170524272
21
94.8552621443
0
LINE
8
0
10
87.7170524272
20
94.8552621443
11
88.0012868481
21
95.4725578351
0
LINE
8
0
10
88.0012868481
20
95.4725578351
11
88.3027083125
21
96.2262825708
0
LINE
8
0
10
88.3027083125
20
96.2262825708
11
88.6079980224
21
97.1194818013
0
LINE
8
0
10
88.6079980224
20
97.1194818013
11
88.6974021276
21
97.4324402015
0
LINE
8
0
10
88.6974021276
20
97.4324402015
11
87.7790722406
21
98.2508526836
0
LINE
8
0
10
87.7790722406
20
98.2508526836
11
86.746574711
21
98.9194913183
0
LINE
8
0
10
86.746574711
20
98.9194913183
11
86.4684939137
21
98.7503549103
0
LINE
8
0
10
86.4684939137
20
98.7503549103
11
85.6881195595
21
98.2192969665
0
LINE
8
0
10
85.6881195595
20
98.2192969665
11
85.041208961
21
97.7289271532
0
LINE
8
0
10
85.041208961
20
97.7289271532
11
84.5212962972
21
97.2912811799
0
LINE
8
0
10
84.5212962972
20
97.2912811799
11
84.1210458324
21
96.9178268503
0
LINE
8
0
10
84.1210458324
20
96.9178268503
11
83.8322937305
21
96.6194072044
0
LINE
8
0
10
83.8322937305
20
96.6194072044
11
83.6460933767
21
96.4061864839
0
LINE
8
0
10
83.6460933767
20
96.4061864839
11
83.4364287226
21
96.1397796556
0
LINE
8
0
10
83.4364287226
20
96.1397796556
11
83.139802928
21
95.826425962
0
LINE
8
0
10
83.139802928
20
95.826425962
11
82.892632349
21
95.6482855575
0
LINE
8
0
10
82.892632349
20
95.6482855575
11
82.7077815089
21
95.5991783368
0
LINE
8
0
10
82.7077815089
20
95.5991783368
11
80.3983245102
21
97.0947675563
0
LINE
8
0
10
80.3983245102
20
97.0947675563
11
80.3675183455
21
97.2835328403
0
LINE
8
0
10
80.3675183455
20
97.2835328403
11
80.428962377
21
97.58194854
0
LINE
8
0
10
80.428962377
20
97.58194854
11
80.5935584461
21
97.9808038187
0
LINE
8
0
10
80.5935584461
20
97.9808038187
11
80.750888406
21
98.281102252
0
LINE
8
0
10
80.750888406
20
98.281102252
11
80.8692843596
21
98.5382326578
0
LINE
8
0
10
80.8692843596
20
98.5382326578
11
81.0234739369
21
98.9237941129
0
LINE
8
0
10
81.0234739369
20
98.9237941129
11
81.2005224511
21
99.4417925632
0
LINE
8
0
10
81.2005224511
20
99.4417925632
11
81.3871960196
21
100.095241991
0
LINE
8
0
10
81.3871960196
20
100.095241991
11
81.5700294108
21
100.886145163
0
LINE
8
0
10
81.5700294108
20
100.886145163
11
81.7353950315
21
101.815478733
0
LINE
8
0
10
81.7353950315
20
101.815478733
11
81.7759784827
21
102.138416866
0
LINE
8
0
10
81.7759784827
20
102.138416866
11
80.7434809532
21
102.8070555
0
LINE
8
0
10
80.7434809532
20
102.8070555
11
79.6210166481
21
103.310247965
0
LINE
8
0
10
79.6210166481
20
103.310247965
11
79.3720133916
21
103.100644929
0
LINE
8
0
10
79.3720133916
20
103.100644929
11
78.6818503091
21
102.456687173
0
LINE
8
0
10
78.6818503091
20
102.456687173
11
78.1173758296
21
101.873313846
0
LINE
8
0
10
78.1173758296
20
101.873313846
11
77.6703626665
21
101.361432602
0
LINE
8
0
10
77.6703626665
20
101.361432602
11
77.3318105036
21
100.931257052
0
LINE
8
0
10
77.3318105036
20
100.931257052
11
77.0919959993
21
100.592256956
0
LINE
8
0
10
77.0919959993
20
100.592256956
11
76.9405258252
21
100.353111742
0
LINE
8
0
10
76.9405258252
20
100.353111742
11
76.7739851636
21
100.057821929
0
LINE
8
0
10
76.7739851636
20
100.057821929
11
76.5286689146
21
99.7028608927
0
LINE
8
0
10
76.5286689146
20
99.7028608927
11
76.3115880753
21
99.4890778063
0
LINE
8
0
10
76.3115880753
20
99.4890778063
11
76.1363997908
21
99.412328753
0
LINE
8
0
10
76.1363997908
20
99.412328753
11
73.6257080256
21
100.537853343
0
LINE
8
0
10
73.6257080256
20
100.537853343
11
73.5664480105
21
100.719703839
0
LINE
8
0
10
73.5664480105
20
100.719703839
11
73.5816190011
21
101.02400162
0
LINE
8
0
10
73.5816190011
20
101.02400162
11
73.6834011012
21
101.443307956
0
LINE
8
0
10
73.6834011012
20
101.443307956
11
73.7930468798
21
101.764103325
0
LINE
8
0
10
73.7930468798
20
101.764103325
11
73.8708045106
21
102.036293329
0
LINE
8
0
10
73.8708045106
20
102.036293329
11
73.9643313712
21
102.440873096
0
LINE
8
0
10
73.9643313712
20
102.440873096
11
74.0602328592
21
102.979827153
0
LINE
8
0
10
74.0602328592
20
102.979827153
11
74.1449701052
21
103.654114017
0
LINE
8
0
10
74.1449701052
20
103.654114017
11
74.2049299634
21
104.463657525
0
LINE
8
0
10
74.2049299634
20
104.463657525
11
74.2264954649
21
105.407342643
0
LINE
8
0
10
74.2264954649
20
105.407342643
11
74.2173070204
21
105.732691113
0
LINE
8
0
10
74.2173070204
20
105.732691113
11
73.0948427154
21
106.235883577
0
LINE
8
0
10
73.0948427154
20
106.235883577
11
71.9087212468
21
106.561835466
0
LINE
8
0
10
71.9087212468
20
106.561835466
11
71.6946319562
21
106.316678721
0
LINE
8
0
10
71.6946319562
20
106.316678721
11
71.1108569831
21
105.574914976
0
LINE
8
0
10
71.1108569831
20
105.574914976
11
70.6420494261
21
104.912211912
0
LINE
8
0
10
70.6420494261
20
104.912211912
11
70.2784133733
21
104.33809346
0
LINE
8
0
10
70.2784133733
20
104.33809346
11
70.0094948881
21
103.861279639
0
LINE
8
0
10
70.0094948881
20
103.861279639
11
69.8242390302
21
103.489644969
0
LINE
8
0
10
69.8242390302
20
103.489644969
11
69.7110493681
21
103.230180621
0
LINE
8
0
10
69.7110493681
20
103.230180621
11
69.5915362711
21
102.912929167
0
LINE
8
0
10
69.5915362711
20
102.912929167
11
69.4032795726
21
102.524680774
0
LINE
8
0
10
69.4032795726
20
102.524680774
11
69.221376664
21
102.2802659
0
LINE
8
0
10
69.221376664
20
102.2802659
11
69.0599572
21
102.177673947
0
LINE
8
0
10
69.0599572
20
102.177673947
11
66.4068791552
21
102.906752565
0
LINE
8
0
10
66.4068791552
20
102.906752565
11
66.3205542944
21
103.077425851
0
LINE
8
0
10
66.3205542944
20
103.077425851
11
66.2890966489
21
103.380473232
0
LINE
8
0
10
66.2890966489
20
103.380473232
11
66.3256790938
21
103.81040244
0
LINE
8
0
10
66.3256790938
20
103.81040244
11
66.3850706869
21
104.144175573
0
LINE
8
0
10
66.3850706869
20
104.144175573
11
66.4203674219
21
104.425045272
0
LINE
8
0
10
66.4203674219
20
104.425045272
11
66.4510393756
21
104.839160344
0
LINE
8
0
10
66.4510393756
20
104.839160344
11
66.4635459878
21
105.386437381
0
LINE
8
0
10
66.4635459878
20
105.386437381
11
66.444360742
21
106.065756969
0
LINE
8
0
10
66.444360742
20
106.065756969
11
66.380041659
21
106.8749658
0
LINE
8
0
10
66.380041659
20
106.8749658
11
66.2573015642
21
107.810883286
0
LINE
8
0
10
66.2573015642
20
107.810883286
11
66.1985565933
21
108.1310162
0
LINE
8
0
10
66.1985565933
20
108.1310162
11
65.0124351248
21
108.456968089
0
LINE
8
0
10
65.0124351248
20
108.456968089
11
63.7904581746
21
108.598039367
0
LINE
8
0
10
63.7904581746
20
108.598039367
11
63.6163009215
21
108.323075178
0
LINE
8
0
10
63.6163009215
20
108.323075178
11
63.1525972484
21
107.500891758
0
LINE
8
0
10
63.1525972484
20
107.500891758
11
62.7904450657
21
106.774392155
0
LINE
8
0
10
62.7904450657
20
106.774392155
11
62.5187094441
21
106.151493345
0
LINE
8
0
10
62.5187094441
20
106.151493345
11
62.3257278579
21
105.639217366
0
LINE
8
0
10
62.3257278579
20
105.639217366
11
62.1993728866
21
105.243658922
0
LINE
8
0
10
62.1993728866
20
105.243658922
11
62.1271168064
21
104.969957066
0
LINE
8
0
10
62.1271168064
20
104.969957066
11
62.0574325595
21
104.638180076
0
LINE
8
0
10
62.0574325595
20
104.638180076
11
61.9306479892
21
104.225744539
0
LINE
8
0
10
61.9306479892
20
104.225744539
11
61.7881866611
21
103.956426755
0
LINE
8
0
10
61.7881866611
20
103.956426755
11
61.644319553
21
103.83039657
0
LINE
8
0
10
61.644319553
20
103.83039657
11
58.9110411295
21
104.145940231
0
LINE
8
0
10
58.9110411295
20
104.145940231
11
58.7996748045
21
104.301435871
0
LINE
8
0
10
58.7996748045
20
104.301435871
11
58.7223258633
21
104.596129678
0
LINE
8
0
10
58.7223258633
20
104.596129678
11
58.6928511916
21
105.026604582
0
LINE
8
0
10
58.6928511916
20
105.026604582
11
58.7005965106
21
105.365532119
0
LINE
8
0
10
58.7005965106
20
105.365532119
11
58.6926050244
21
105.648498166
0
LINE
8
0
10
58.6926050244
20
105.648498166
11
58.6597031465
21
106.062442036
0
LINE
8
0
10
58.6597031465
20
106.062442036
11
58.5885217384
21
106.605214344
0
LINE
8
0
10
58.5885217384
20
106.605214344
11
58.4658636868
21
107.27364398
0
LINE
8
0
10
58.4658636868
20
107.27364398
11
58.2787732474
21
108.063550964
0
LINE
8
0
10
58.2787732474
20
108.063550964
11
58.0146044801
21
108.969763707
0
LINE
8
0
10
58.0146044801
20
108.969763707
11
57.9076799151
21
109.277177421
0
LINE
8
0
10
57.9076799151
20
109.277177421
11
56.685702965
21
109.418248699
0
LINE
8
0
10
56.685702965
20
109.418248699
11
55.4565126372
21
109.371132775
0
LINE
8
0
10
55.4565126372
20
109.371132775
11
55.32636952
21
109.072806069
0
LINE
8
0
10
55.32636952
20
109.072806069
11
54.993605968
21
108.189474256
0
LINE
8
0
10
54.993605968
20
108.189474256
11
54.7465976997
21
107.41620665
0
LINE
8
0
10
54.7465976997
20
107.41620665
11
54.573131762
21
106.759127701
0
LINE
8
0
10
54.573131762
20
106.759127701
11
54.4606103997
21
106.223396879
0
LINE
8
0
10
54.4606103997
20
106.223396879
11
54.3961179685
21
105.813186216
0
LINE
8
0
10
54.3961179685
20
105.813186216
11
54.3664890914
21
105.531662191
0
LINE
8
0
10
54.3664890914
20
105.531662191
11
54.3482670344
21
105.193136236
0
LINE
8
0
10
54.3482670344
20
105.193136236
11
54.2859263149
21
104.766180695
0
LINE
8
0
10
54.2859263149
20
104.766180695
11
54.1862457402
21
104.478272582
0
LINE
8
0
10
54.1862457402
20
104.478272582
11
54.0633031111
21
104.331758206
0
LINE
8
0
10
54.0633031111
20
104.331758206
11
51.3138900384
21
104.226370834
0
LINE
8
0
10
51.3138900384
20
104.226370834
11
51.1800925815
21
104.363044141
0
LINE
8
0
10
51.1800925815
20
104.363044141
11
51.0586653384
21
104.642477001
0
LINE
8
0
10
51.0586653384
20
104.642477001
11
50.9638244114
21
105.063407634
0
LINE
8
0
10
50.9638244114
20
105.063407634
11
50.9197419126
21
105.399545402
0
LINE
8
0
10
50.9197419126
20
105.399545402
11
50.8686495187
21
105.677975312
0
LINE
8
0
10
50.8686495187
20
105.677975312
11
50.7729450014
21
106.082045487
0
LINE
8
0
10
50.7729450014
20
106.082045487
11
50.619744005
21
106.607590942
0
LINE
8
0
10
50.619744005
20
106.607590942
11
50.3964881483
21
107.249463202
0
LINE
8
0
10
50.3964881483
20
107.249463202
11
50.0910115938
21
108.00155359
0
LINE
8
0
10
50.0910115938
20
108.00155359
11
49.6916060459
21
108.85682073
0
LINE
8
0
10
49.6916060459
20
108.85682073
11
49.5390081082
21
109.144309728
0
LINE
8
0
10
49.5390081082
20
109.144309728
11
48.3098177804
21
109.097193803
0
LINE
8
0
10
48.3098177804
20
109.097193803
11
47.1022252544
21
108.862995034
0
LINE
8
0
10
47.1022252544
20
108.862995034
11
47.0191467176
21
108.548298337
0
LINE
8
0
10
47.0191467176
20
108.548298337
11
46.8251229823
21
107.624522681
0
LINE
8
0
10
46.8251229823
20
107.624522681
11
46.6990482929
21
106.822611807
0
LINE
8
0
10
46.6990482929
20
106.822611807
11
46.6279179336
21
106.146754095
0
LINE
8
0
10
46.6279179336
20
106.146754095
11
46.5984942006
21
105.600125505
0
LINE
8
0
10
46.5984942006
20
105.600125505
11
46.5973759573
21
105.184877614
0
LINE
8
0
10
46.5973759573
20
105.184877614
11
46.6110687591
21
104.902130104
0
LINE
8
0
10
46.6110687591
20
104.902130104
11
46.6447360015
21
104.564789946
0
LINE
8
0
10
46.6447360015
20
104.564789946
11
46.6483003467
21
104.133321877
0
LINE
8
0
10
46.6483003467
20
104.133321877
11
46.5937369535
21
103.833571756
0
LINE
8
0
10
46.5937369535
20
103.833571756
11
46.4946004744
21
103.670007363
0
LINE
8
0
10
46.4946004744
20
103.670007363
11
43.7934966647
21
103.146159149
0
LINE
8
0
10
43.7934966647
20
103.146159149
11
43.6404041748
21
103.260806616
0
LINE
8
0
10
43.6404041748
20
103.260806616
11
43.4777447815
21
103.51842886
0
LINE
8
0
10
43.4777447815
20
103.51842886
11
43.31976059
21
103.919948965
0
LINE
8
0
10
43.31976059
20
103.919948965
11
43.2248835299
21
104.245418178
0
LINE
8
0
10
43.2248835299
20
104.245418178
11
43.1318877908
21
104.51278579
0
LINE
8
0
10
43.1318877908
20
104.51278579
11
42.9756238667
21
104.897511208
0
LINE
8
0
10
42.9756238667
20
104.897511208
11
42.7439941835
21
105.393511471
0
LINE
8
0
10
42.7439941835
20
105.393511471
11
42.4253734498
21
105.993781414
0
LINE
8
0
10
42.4253734498
20
105.993781414
11
42.0086708917
21
106.690426843
0
LINE
8
0
10
42.0086708917
20
106.690426843
11
41.4833902909
21
107.474701644
0
LINE
8
0
10
41.4833902909
20
107.474701644
11
41.2886957466
21
107.735527426
0
LINE
8
0
10
41.2886957466
20
107.735527426
11
40.0811032207
21
107.501328657
0
LINE
8
0
10
40.0811032207
20
107.501328657
11
38.9234134419
21
107.085536463
0
LINE
8
0
10
38.9234134419
20
107.085536463
11
38.8893467758
21
106.761845999
0
LINE
8
0
10
38.8893467758
20
106.761845999
11
38.8386106091
21
105.819279018
0
LINE
8
0
10
38.8386106091
20
105.819279018
11
38.8364245825
21
105.007520989
0
LINE
8
0
10
38.8364245825
20
105.007520989
11
38.869297037
21
104.328726043
0
LINE
8
0
10
38.869297037
20
104.328726043
11
38.9236606005
21
103.784012198
0
LINE
8
0
10
38.9236606005
20
103.784012198
11
38.9859427559
21
103.373460137
0
LINE
8
0
10
38.9859427559
20
103.373460137
11
39.042636289
21
103.096116504
0
LINE
8
0
10
39.042636289
20
103.096116504
11
39.1274036992
21
102.76786911
0
LINE
8
0
10
39.1274036992
20
102.76786911
11
39.1967895636
21
102.342001759
0
LINE
8
0
10
39.1967895636
20
102.342001759
11
39.1886222717
21
102.037435519
0
LINE
8
0
10
39.1886222717
20
102.037435519
11
39.1156156177
21
101.860654919
0
LINE
8
0
10
39.1156156177
20
101.860654919
11
36.5261326549
21
100.930624421
0
LINE
8
0
10
36.5261326549
20
100.930624421
11
36.3573334903
21
101.020558809
0
LINE
8
0
10
36.3573334903
20
101.020558809
11
36.157254545
21
101.25033199
0
LINE
8
0
10
36.157254545
20
101.25033199
11
35.9398301047
21
101.623030275
0
LINE
8
0
10
35.9398301047
20
101.623030275
11
35.7963823211
21
101.930202212
0
LINE
8
0
10
35.7963823211
20
101.930202212
11
35.663662978
21
102.180240656
0
LINE
8
0
10
35.663662978
20
102.180240656
11
35.4505023412
21
102.536603679
0
LINE
8
0
10
35.4505023412
20
102.536603679
11
35.1458731746
21
102.991432924
0
LINE
8
0
10
35.1458731746
20
102.991432924
11
34.7393557638
21
103.53603073
0
LINE
8
0
10
34.7393557638
20
103.53603073
11
34.221194357
21
104.160902423
0
LINE
8
0
10
34.221194357
20
104.160902423
11
33.5823508353
21
104.855802148
0
LINE
8
0
10
33.5823508353
20
104.855802148
11
33.3501231595
21
105.083851179
0
LINE
8
0
10
33.3501231595
20
105.083851179
11
32.1924333807
21
104.668058986
0
LINE
8
0
10
32.1924333807
20
104.668058986
11
31.1117816163
21
104.080419184
0
LINE
8
0
10
31.1117816163
20
104.080419184
11
31.1275253148
21
103.755321983
0
LINE
8
0
10
31.1275253148
20
103.755321983
11
31.2212659295
21
102.816056648
0
LINE
8
0
10
31.2212659295
20
102.816056648
11
31.3430198043
21
102.013478383
0
LINE
8
0
10
31.3430198043
20
102.013478383
11
31.47912457
21
101.347656584
0
LINE
8
0
10
31.47912457
20
101.347656584
11
31.6160011943
21
100.817625113
0
LINE
8
0
10
31.6160011943
20
100.817625113
11
31.7402239074
21
100.421391875
0
LINE
8
0
10
31.7402239074
20
100.421391875
11
31.8385893233
21
100.155952819
0
LINE
8
0
10
31.8385893233
20
100.155952819
11
31.9724700252
21
99.84449203
0
LINE
8
0
10
31.9724700252
20
99.84449203
11
32.1060510631
21
99.4342073658
0
LINE
8
0
10
32.1060510631
20
99.4342073658
11
32.1444713067
21
99.1319637824
0
LINE
8
0
10
32.1444713067
20
99.1319637824
11
32.0993056919
21
98.9461105622
0
LINE
8
0
10
32.0993056919
20
98.9461105622
11
29.6821388619
21
97.6316969065
0
LINE
8
0
10
29.6821388619
20
97.6316969065
11
29.501589532
21
97.6948102305
0
LINE
8
0
10
29.501589532
20
97.6948102305
11
29.2687807156
21
97.8913486588
0
LINE
8
0
10
29.2687807156
20
97.8913486588
11
28.9970122711
21
98.2264893933
0
LINE
8
0
10
28.9970122711
20
98.2264893933
11
28.8083560584
21
98.5081642036
0
LINE
8
0
10
28.8083560584
20
98.5081642036
11
28.6390239403
21
98.7350127901
0
LINE
8
0
10
28.6390239403
20
98.7350127901
11
28.3739628954
21
99.0546605711
0
LINE
8
0
10
28.3739628954
20
99.0546605711
11
28.003474495
21
99.4576579855
0
LINE
8
0
10
28.003474495
20
99.4576579855
11
27.5185888306
21
99.9338187444
0
LINE
8
0
10
27.5185888306
20
99.9338187444
11
26.9111138392
21
100.472270238
0
LINE
8
0
10
26.9111138392
20
100.472270238
11
26.1736813473
21
101.061507026
0
LINE
8
0
10
26.1736813473
20
101.061507026
11
25.90936376
21
101.251434032
0
LINE
8
0
10
25.90936376
20
101.251434032
11
24.8287119956
21
100.66379423
0
LINE
8
0
10
24.8287119956
20
100.66379423
11
23.850427807
21
99.9180805996
0
LINE
8
0
10
23.850427807
20
99.9180805996
11
23.915612851
21
99.599196664
0
LINE
8
0
10
23.915612851
20
99.599196664
11
24.1516330465
21
98.6852485585
0
LINE
8
0
10
24.1516330465
20
98.6852485585
11
24.3944730151
21
97.9106618131
0
LINE
8
0
10
24.3944730151
20
97.9106618131
11
24.6306199117
21
97.2734194581
0
LINE
8
0
10
24.6306199117
20
97.2734194581
11
24.8468013247
21
96.7704938497
0
LINE
8
0
10
24.8468013247
20
96.7704938497
11
25.0300529204
21
96.3978668055
0
LINE
8
0
10
25.0300529204
20
96.3978668055
11
25.1677846172
21
96.1505539932
0
LINE
8
0
10
25.1677846172
20
96.1505539932
11
25.3476405605
21
95.8631801861
0
LINE
8
0
10
25.3476405605
20
95.8631801861
11
25.5422857455
21
95.4780949342
0
LINE
8
0
10
25.5422857455
20
95.4780949342
11
25.6263929869
21
95.1852583402
0
LINE
8
0
10
25.6263929869
20
95.1852583402
11
25.610127055
21
94.9946887422
0
LINE
8
0
10
25.610127055
20
94.9946887422
11
23.4219326996
21
93.3267006711
0
LINE
8
0
10
23.4219326996
20
93.3267006711
11
23.2338651275
21
93.3615136077
0
LINE
8
0
10
23.2338651275
20
93.3615136077
11
22.9737832814
21
93.5202105898
0
LINE
8
0
10
22.9737832814
20
93.5202105898
11
22.6540408547
21
93.8099383584
0
LINE
8
0
10
22.6540408547
20
93.8099383584
11
22.4245981547
21
94.0595138234
0
LINE
8
0
10
22.4245981547
20
94.0595138234
11
22.2226222629
21
94.257855414
0
LINE
8
0
10
22.2226222629
20
94.257855414
11
21.9118736162
21
94.5332956796
0
LINE
8
0
10
21.9118736162
20
94.5332956796
11
21.4842099159
21
94.875015346
0
LINE
8
0
10
21.4842099159
20
94.875015346
11
20.932321307
21
95.271578253
0
LINE
8
0
10
20.932321307
20
95.271578253
11
20.2497714299
21
95.7109887009
0
LINE
8
0
10
20.2497714299
20
95.7109887009
11
19.4310347604
21
96.1807513413
0
LINE
8
0
10
19.4310347604
20
96.1807513413
11
19.1408226418
21
96.3281045922
0
LINE
8
0
10
19.1408226418
20
96.3281045922
11
18.1625384532
21
95.5823909618
0
LINE
8
0
10
18.1625384532
20
95.5823909618
11
17.3095519926
21
94.6960823979
0
LINE
8
0
10
17.3095519926
20
94.6960823979
11
17.4226505001
21
94.3908860973
0
LINE
8
0
10
17.4226505001
20
94.3908860973
11
17.7954181631
21
93.5236773901
0
LINE
8
0
10
17.7954181631
20
93.5236773901
11
18.1536522623
21
92.7952378205
0
LINE
8
0
10
18.1536522623
20
92.7952378205
11
18.4843062068
21
92.2015113306
0
LINE
8
0
10
18.4843062068
20
92.2015113306
11
18.7747252994
21
91.7374797351
0
LINE
8
0
10
18.7747252994
20
91.7374797351
11
19.0127105156
21
91.3971929469
0
LINE
8
0
10
19.0127105156
20
91.3971929469
11
19.1865801791
21
91.173803181
0
LINE
8
0
10
19.1865801791
20
91.173803181
11
19.4081956928
21
90.9172521541
0
LINE
8
0
10
19.4081956928
20
90.9172521541
11
19.6593427069
21
90.5663923863
0
LINE
8
0
10
19.6593427069
20
90.5663923863
11
19.7871655435
21
90.2898266233
0
LINE
8
0
10
19.7871655435
20
90.2898266233
11
19.8001805541
21
90.0990074373
0
LINE
8
0
10
19.8001805541
20
90.0990074373
11
17.8922480944
21
88.1165411774
0
LINE
8
0
10
17.8922480944
20
88.1165411774
11
17.7010704248
21
88.1222377409
0
LINE
8
0
10
17.7010704248
20
88.1222377409
11
17.4198116469
21
88.239373554
0
LINE
8
0
10
17.4198116469
20
88.239373554
11
17.0595897294
21
88.4768973833
0
LINE
8
0
10
17.0595897294
20
88.4768973833
11
16.7947384845
21
88.6885236658
0
LINE
8
0
10
16.7947384845
20
88.6885236658
11
16.5648529628
21
88.8537093016
0
LINE
8
0
10
16.5648529628
20
88.8537093016
11
16.2157003991
21
89.0784859656
0
LINE
8
0
10
16.2157003991
20
89.0784859656
11
15.7408854737
21
89.3509182645
0
LINE
8
0
10
15.7408854737
20
89.3509182645
11
15.1349297215
21
89.6585882213
0
LINE
8
0
10
15.1349297215
20
89.6585882213
11
14.3933033494
21
89.9886582147
0
LINE
8
0
10
14.3933033494
20
89.9886582147
11
13.5124529959
21
90.3279358695
0
LINE
8
0
10
13.5124529959
20
90.3279358695
11
13.2031486721
21
90.4292615305
0
LINE
8
0
10
13.2031486721
20
90.4292615305
11
12.3501622115
21
89.5429529667
0
LINE
8
0
10
12.3501622115
20
89.5429529667
11
11.6424667586
21
88.536823791
0
LINE
8
0
10
11.6424667586
20
88.536823791
11
11.8008277964
21
88.2524686679
0
LINE
8
0
10
11.8008277964
20
88.2524686679
11
12.3016055687
21
87.4523259961
0
LINE
8
0
10
12.3016055687
20
87.4523259961
11
12.766837095
21
86.7871076084
0
LINE
8
0
10
12.766837095
20
86.7871076084
11
13.1842478391
21
86.2508134293
0
LINE
8
0
10
13.1842478391
20
86.2508134293
11
13.5420974339
21
85.8365523541
0
LINE
8
0
10
13.5420974339
20
85.8365523541
11
13.8292380989
21
85.5365818558
0
LINE
8
0
10
13.8292380989
20
85.5365818558
11
14.0351703714
21
85.3423512029
0
LINE
8
0
10
14.0351703714
20
85.3423512029
11
14.2933509759
21
85.1226362949
0
LINE
8
0
10
14.2933509759
20
85.1226362949
11
14.5951131458
21
84.8142258668
0
LINE
8
0
10
14.5951131458
20
84.8142258668
11
14.7636555187
21
84.5604134018
0
LINE
8
0
10
14.7636555187
20
84.5604134018
11
14.8056464111
21
84.3738172679
0
LINE
8
0
10
14.8056464111
20
84.3738172679
11
13.2226961668
21
82.1233401482
0
LINE
8
0
10
13.2226961668
20
82.1233401482
11
13.0328894421
21
82.0997868159
0
LINE
8
0
10
13.0328894421
20
82.0997868159
11
12.7370461999
21
82.1726158958
0
LINE
8
0
10
12.7370461999
20
82.1726158958
11
12.3447880881
21
82.3523684286
0
LINE
8
0
10
12.3447880881
20
82.3523684286
11
12.050736187
21
82.5210851878
0
LINE
8
0
10
12.050736187
20
82.5210851878
11
11.7983293571
21
82.6492430576
0
LINE
8
0
10
11.7983293571
20
82.6492430576
11
11.4189567167
21
82.8180875454
0
LINE
8
0
10
11.4189567167
20
82.8180875454
11
10.9081198255
21
83.0148468948
0
LINE
8
0
10
10.9081198255
20
83.0148468948
11
10.2623000193
21
83.2264123781
0
LINE
8
0
10
10.2623000193
20
83.2264123781
11
9.47898024574
21
83.4394053563
0
LINE
8
0
10
9.47898024574
20
83.4394053563
11
8.5566625939
21
83.6402456448
0
LINE
8
0
10
8.5566625939
20
83.6402456448
11
8.23551589604
21
83.6931687284
0
LINE
8
0
10
8.23551589604
20
83.6931687284
11
7.52782044317
21
82.6870395526
0
LINE
8
0
10
7.52782044317
20
82.6870395526
11
6.9820037796
21
81.5846725801
0
LINE
8
0
10
6.9820037796
20
81.5846725801
11
7.18191549911
21
81.3278236776
0
LINE
8
0
10
7.18191549911
20
81.3278236776
11
7.79896557427
21
80.6135017074
0
LINE
8
0
10
7.79896557427
20
80.6135017074
11
8.36028989499
21
80.0270966568
0
LINE
8
0
10
8.36028989499
20
80.0270966568
11
8.85467368463
21
79.5608050695
0
LINE
8
0
10
8.85467368463
20
79.5608050695
11
9.2715660904
21
79.2060244431
0
LINE
8
0
10
9.2715660904
20
79.2060244431
11
9.6011318704
21
78.9534012888
0
LINE
8
0
10
9.6011318704
20
78.9534012888
11
9.83429987411
21
78.7928823509
0
LINE
8
0
10
9.83429987411
20
78.7928823509
11
10.1229940347
21
78.6151534929
0
LINE
8
0
10
10.1229940347
20
78.6151534929
11
10.468298311
21
78.3564212836
0
LINE
8
0
10
10.468298311
20
78.3564212836
11
10.6736097298
21
78.1313112658
0
LINE
8
0
10
10.6736097298
20
78.1313112658
11
10.743592273
21
77.9533118392
0
LINE
8
0
10
10.743592273
20
77.9533118392
11
9.52272725626
21
75.4875731358
0
LINE
8
0
10
9.52272725626
20
75.4875731358
11
9.33874038519
21
75.435321978
0
LINE
8
0
10
9.33874038519
20
75.435321978
11
9.03524699351
21
75.4621372727
0
LINE
8
0
10
9.03524699351
20
75.4621372727
11
8.62014688509
21
75.579905262
0
LINE
8
0
10
8.62014688509
20
75.579905262
11
8.30378665518
21
75.70175792
0
LINE
8
0
10
8.30378665518
20
75.70175792
11
8.03477471923
21
75.7898841121
0
LINE
8
0
10
8.03477471923
20
75.7898841121
11
7.63407417515
21
75.898838852
0
LINE
8
0
10
7.63407417515
20
75.898838852
11
7.09918890206
21
76.0153133794
0
LINE
8
0
10
7.09918890206
20
76.0153133794
11
6.42864251066
21
76.1258154738
0
LINE
8
0
10
6.42864251066
20
76.1258154738
11
5.62198968724
21
76.2167390617
0
LINE
8
0
10
5.62198968724
20
76.2167390617
11
4.67982308114
21
76.2744344578
0
LINE
8
0
10
4.67982308114
20
76.2744344578
11
4.35436141566
21
76.2777144917
0
LINE
8
0
10
4.35436141566
20
76.2777144917
11
3.80854475209
21
75.1753475192
0
LINE
8
0
10
3.80854475209
20
75.1753475192
11
3.43740035781
21
74.0025812974
0
LINE
8
0
10
3.43740035781
20
74.0025812974
11
3.67417699781
21
73.7792589361
0
LINE
8
0
10
3.67417699781
20
73.7792589361
11
4.39303624504
21
73.167500769
0
LINE
8
0
10
4.39303624504
20
73.167500769
11
5.03729639383
21
72.6736538929
0
LINE
8
0
10
5.03729639383
20
72.6736538929
11
5.59706529201
21
72.2882943769
0
LINE
8
0
10
5.59706529201
20
72.2882943769
11
6.06322890414
21
72.0013099564
0
LINE
8
0
10
6.06322890414
20
72.0013099564
11
6.42749505652
21
71.8019554189
0
LINE
8
0
10
6.42749505652
20
71.8019554189
11
6.68243353103
21
71.6789106238
0
LINE
8
0
10
6.68243353103
20
71.6789106238
11
6.9948745014
21
71.5473336297
0
LINE
8
0
10
6.9948745014
20
71.5473336297
11
7.3756272444
21
71.3443441028
0
LINE
8
0
10
7.3756272444
20
71.3443441028
11
7.61289538349
21
71.1532129201
0
LINE
8
0
10
7.61289538349
20
71.1532129201
11
7.70922924599
21
70.9879823565
0
LINE
8
0
10
7.70922924599
20
70.9879823565
11
6.87906549802
21
68.3647768949
0
LINE
8
0
10
6.87906549802
20
68.3647768949
11
6.70521097696
21
68.2850526343
0
LINE
8
0
10
6.70521097696
20
68.2850526343
11
6.40118106367
21
68.2652256161
0
LINE
8
0
10
6.40118106367
20
68.2652256161
11
5.97296855332
21
68.3182486801
0
LINE
8
0
10
5.97296855332
20
68.3182486801
11
5.64171521022
21
68.3903811139
0
LINE
8
0
10
5.64171521022
20
68.3903811139
11
5.36240358003
21
68.4364100249
0
LINE
8
0
10
5.36240358003
20
68.4364100249
11
4.94976721344
21
68.4829212102
0
LINE
8
0
10
4.94976721344
20
68.4829212102
11
4.40337081585
21
68.5163808514
0
LINE
8
0
10
4.40337081585
20
68.5163808514
11
3.72381487838
21
68.5232294814
0
LINE
8
0
10
3.72381487838
20
68.5232294814
11
2.91273626359
21
68.4899525073
0
LINE
8
0
10
2.91273626359
20
68.4899525073
11
1.97280428993
21
68.4031506797
0
LINE
8
0
10
1.97280428993
20
68.4031506797
11
1.65065620242
21
68.3567107828
0
LINE
8
0
10
1.65065620242
20
68.3567107828
11
1.27951180814
21
67.183944561
0
LINE
8
0
10
1.27951180814
20
67.183944561
11
1.09173899318
21
65.9682677363
0
LINE
8
0
10
1.09173899318
20
65.9682677363
11
1.3598307099
21
65.783706403
0
LINE
8
0
10
1.3598307099
20
65.783706403
11
2.16364967772
21
65.2888511319
0
LINE
8
0
10
2.16364967772
20
65.2888511319
11
2.87574474275
21
64.8991377824
0
LINE
8
0
10
2.87574474275
20
64.8991377824
11
3.48777824093
21
64.6037428383
0
LINE
8
0
10
3.48777824093
20
64.6037428383
11
3.99228657945
21
64.3912812953
0
LINE
8
0
10
3.99228657945
20
64.3912812953
11
4.38271501435
21
64.249868076
0
LINE
8
0
10
4.38271501435
20
64.249868076
11
4.65344841789
21
64.1671814893
0
LINE
8
0
10
4.65344841789
20
64.1671814893
11
4.98231284645
21
64.0848404124
0
LINE
8
0
10
4.98231284645
20
64.0848404124
11
5.38958953465
21
63.9423514704
0
LINE
8
0
10
5.38958953465
20
63.9423514704
11
5.65325302992
21
63.7896790758
0
LINE
8
0
10
5.65325302992
20
63.7896790758
11
5.77368022764
21
63.6410902395
0
LINE
8
0
10
5.77368022764
20
63.6410902395
11
5.35367608308
21
60.9219037323
0
LINE
8
0
10
5.35367608308
20
60.9219037323
11
5.19402891463
21
60.816575038
0
LINE
8
0
10
5.19402891463
20
60.816575038
11
4.89658868322
21
60.7505704355
0
LINE
8
0
10
4.89658868322
20
60.7505704355
11
4.46530070926
21
60.7376057584
0
LINE
8
0
10
4.46530070926
20
60.7376057584
11
4.12691855057
21
60.758327245
0
LINE
8
0
10
4.12691855057
20
60.758327245
11
3.84385405401
21
60.7611799962
0
LINE
8
0
10
3.84385405401
20
60.7611799962
11
3.42895371162
21
60.7441574441
0
LINE
8
0
10
3.42895371162
20
60.7441574441
11
2.88385325799
21
60.6938179335
0
LINE
8
0
10
2.88385325799
20
60.6938179335
11
2.21121598965
21
60.596852573
0
LINE
8
0
10
2.21121598965
20
60.596852573
11
1.41472257878
21
60.440155021
0
LINE
8
0
10
1.41472257878
20
60.440155021
11
0.499056446374
21
60.210890531
0
LINE
8
0
10
0.499056446374
20
60.210890531
11
0.187772814957
21
60.115819215
0
LINE
8
0
10
0.187772814957
20
60.115819215
11
0.0
21
58.9001423903
0
LINE
8
0
10
0.0
20
58.9001423903
11
7.81597009336e-14
21
57.6700493969
0
LINE
8
0
10
7.81597009336e-14
20
57.6700493969
11
0.293122950833
21
57.5285750529
0
LINE
8
0
10
0.293122950833
20
57.5285750529
11
1.16306080392
21
57.1622216659
0
LINE
8
0
10
1.16306080392
20
57.1622216659
11
1.9262998804
21
56.8857763937
0
LINE
8
0
10
1.9262998804
20
56.8857763937
11
2.57625243213
21
56.6872698287
0
LINE
8
0
10
2.57625243213
20
56.6872698287
11
3.10728024918
21
56.5543110817
0
LINE
8
0
10
3.10728024918
20
56.5543110817
11
3.514719655
21
56.4741537864
0
LINE
8
0
10
3.514719655
20
56.4741537864
11
3.79490222604
21
56.4337635118
0
LINE
8
0
10
3.79490222604
20
56.4337635118
11
4.13248180933
21
56.402588357
0
LINE
8
0
10
4.13248180933
20
56.402588357
11
4.55673622234
21
56.32393982
0
LINE
8
0
10
4.55673622234
20
56.32393982
11
4.84061502494
21
56.2133047249
0
LINE
8
0
10
4.84061502494
20
56.2133047249
11
4.98231284645
21
56.0848404124
0
LINE
8
0
10
4.98231284645
20
56.0848404124
11
4.98231284645
21
53.3334082867
0
LINE
8
0
10
4.98231284645
20
53.3334082867
11
4.84061502494
21
53.2049439741
0
LINE
8
0
10
4.84061502494
20
53.2049439741
11
4.55673622234
21
53.0943088791
0
LINE
8
0
10
4.55673622234
20
53.0943088791
11
4.13248180933
21
53.015660342
0
LINE
8
0
10
4.13248180933
20
53.015660342
11
3.79490222604
21
52.9844851872
0
LINE
8
0
10
3.79490222604
20
52.9844851872
11
3.514719655
21
52.9440949126
0
LINE
8
0
10
3.514719655
20
52.9440949126
11
3.10728024918
21
52.8639376173
0
LINE
8
0
10
3.10728024918
20
52.8639376173
11
2.57625243213
21
52.7309788704
0
LINE
8
0
10
2.57625243213
20
52.7309788704
11
1.9262998804
21
52.5324723053
0
LINE
8
0
10
1.9262998804
20
52.5324723053
11
1.16306080392
21
52.2560270331
0
LINE
8
0
10
1.16306080392
20
52.2560270331
11
0.293122950833
21
51.8896736461
0
LINE
8
0
10
0.293122950833
20
51.8896736461
11
4.97379915032e-14
21
51.7481993021
0
LINE
8
0
10
4.97379915032e-14
20
51.7481993021
11
4.26325641456e-14
21
50.5181063088
0
LINE
8
0
10
4.26325641456e-14
20
50.5181063088
11
0.187772814957
21
49.302429484
0
LINE
8
0
10
0.187772814957
20
49.302429484
11
0.499056446374
21
49.207358168
0
LINE
8
0
10
0.499056446374
20
49.207358168
11
1.41472257878
21
48.978093678
0
LINE
8
0
10
1.41472257878
20
48.978093678
11
2.21121598965
21
48.821396126
0
LINE
8
0
10
2.21121598965
20
48.821396126
11
2.88385325799
21
48.7244307655
0
LINE
8
0
10
2.88385325799
20
48.7244307655
11
3.42895371162
21
48.6740912549
0
LINE
8
0
10
3.42895371162
20
48.6740912549
11
3.84385405401
21
48.6570687028
0
LINE
8
0
10
3.84385405401
20
48.6570687028
11
4.12691855057
21
48.659921454
0
LINE
8
0
10
4.12691855057
20
48.659921454
11
4.46530070926
21
48.6806429406
0
LINE
8
0
10
4.46530070926
20
48.6806429406
11
4.89658868322
21
48.6676782636
0
LINE
8
0
10
4.89658868322
20
48.6676782636
11
5.19402891463
21
48.601673661
0
LINE
8
0
10
5.19402891463
20
48.601673661
11
5.35367608308
21
48.4963449667
0
LINE
8
0
10
5.35367608308
20
48.4963449667
11
5.77368022764
21
45.7771584595
0
LINE
8
0
10
5.77368022764
20
45.7771584595
11
5.65325302992
21
45.6285696233
0
LINE
8
0
10
5.65325302992
20
45.6285696233
11
5.38958953464
21
45.4758972286
0
LINE
8
0
10
5.38958953464
20
45.4758972286
11
4.98231284645
21
45.3334082867
0
LINE
8
0
10
4.98231284645
20
45.3334082867
11
4.65344841788
21
45.2510672097
0
LINE
8
0
10
4.65344841788
20
45.2510672097
11
4.38271501435
21
45.168380623
0
LINE
8
0
10
4.38271501435
20
45.168380623
11
3.99228657945
21
45.0269674037
0
LINE
8
0
10
3.99228657945
20
45.0269674037
11
3.48777824093
21
44.8145058607
0
LINE
8
0
10
3.48777824093
20
44.8145058607
11
2.87574474275
21
44.5191109166
0
LINE
8
0
10
2.87574474275
20
44.5191109166
11
2.16364967772
21
44.1293975671
0
LINE
8
0
10
2.16364967772
20
44.1293975671
11
1.3598307099
21
43.634542296
0
LINE
8
0
10
1.3598307099
20
43.634542296
11
1.09173899318
21
43.4499809627
0
LINE
8
0
10
1.09173899318
20
43.4499809627
11
1.27951180814
21
42.234304138
0
LINE
8
0
10
1.27951180814
20
42.234304138
11
1.65065620242
21
41.0615379162
0
LINE
8
0
10
1.65065620242
20
41.0615379162
11
1.97280428993
21
41.0150980193
0
LINE
8
0
10
1.97280428993
20
41.0150980193
11
2.91273626359
21
40.9282961917
0
LINE
8
0
10
2.91273626359
20
40.9282961917
11
3.72381487838
21
40.8950192176
0
LINE
8
0
10
3.72381487838
20
40.8950192176
11
4.40337081585
21
40.9018678476
0
LINE
8
0
10
4.40337081585
20
40.9018678476
11
4.94976721344
21
40.9353274888
0
LINE
8
0
10
4.94976721344
20
40.9353274888
11
5.36240358003
21
40.9818386741
0
LINE
8
0
10
5.36240358003
20
40.9818386741
11
5.64171521022
21
41.0278675851
0
LINE
8
0
10
5.64171521022
20
41.0278675851
11
5.97296855332
21
41.1000000189
0
LINE
8
0
10
5.97296855332
20
41.1000000189
11
6.40118106367
21
41.1530230829
0
LINE
8
0
10
6.40118106367
20
41.1530230829
11
6.70521097696
21
41.1331960647
0
LINE
8
0
10
6.70521097696
20
41.1331960647
11
6.87906549802
21
41.0534718041
0
LINE
8
0
10
6.87906549802
20
41.0534718041
11
7.70922924599
21
38.4302663425
0
LINE
8
0
10
7.70922924599
20
38.4302663425
11
7.61289538349
21
38.2650357789
0
LINE
8
0
10
7.61289538349
20
38.2650357789
11
7.3756272444
21
38.0739045962
0
LINE
8
0
10
7.3756272444
20
38.0739045962
11
6.9948745014
21
37.8709150693
0
LINE
8
0
10
6.9948745014
20
37.8709150693
11
6.68243353103
21
37.7393380752
0
LINE
8
0
10
6.68243353103
20
37.7393380752
11
6.42749505652
21
37.6162932801
0
LINE
8
0
10
6.42749505652
20
37.6162932801
11
6.06322890414
21
37.4169387426
0
LINE
8
0
10
6.06322890414
20
37.4169387426
11
5.59706529201
21
37.1299543221
0
LINE
8
0
10
5.59706529201
20
37.1299543221
11
5.03729639383
21
36.7445948062
0
LINE
8
0
10
5.03729639383
20
36.7445948062
11
4.39303624504
21
36.25074793
0
LINE
8
0
10
4.39303624504
20
36.25074793
11
3.67417699781
21
35.6389897629
0
LINE
8
0
10
3.67417699781
20
35.6389897629
11
3.43740035781
21
35.4156674016
0
LINE
8
0
10
3.43740035781
20
35.4156674016
11
3.80854475209
21
34.2429011798
0
LINE
8
0
10
3.80854475209
20
34.2429011798
11
4.35436141566
21
33.1405342073
0
LINE
8
0
10
4.35436141566
20
33.1405342073
11
4.67982308114
21
33.1438142413
0
LINE
8
0
10
4.67982308114
20
33.1438142413
11
5.62198968724
21
33.2015096373
0
LINE
8
0
10
5.62198968724
20
33.2015096373
11
6.42864251066
21
33.2924332253
0
LINE
8
0
10
6.42864251066
20
33.2924332253
11
7.09918890206
21
33.4029353197
0
LINE
8
0
10
7.09918890206
20
33.4029353197
11
7.63407417515
21
33.519409847
0
LINE
8
0
10
7.63407417515
20
33.519409847
11
8.03477471923
21
33.628364587
0
LINE
8
0
10
8.03477471923
20
33.628364587
11
8.30378665518
21
33.716490779
0
LINE
8
0
10
8.30378665518
20
33.716490779
11
8.62014688509
21
33.838343437
0
LINE
8
0
10
8.62014688509
20
33.838343437
11
9.03524699351
21
33.9561114263
0
LINE
8
0
10
9.03524699351
20
33.9561114263
11
9.33874038519
21
33.982926721
0
LINE
8
0
10
9.33874038519
20
33.982926721
11
9.52272725626
21
33.9306755632
0
LINE
8
0
10
9.52272725626
20
33.9306755632
11
10.743592273
21
31.4649368598
0
LINE
8
0
10
10.743592273
20
31.4649368598
11
10.6736097298
21
31.2869374332
0
LINE
8
0
10
10.6736097298
20
31.2869374332
11
10.468298311
21
31.0618274154
0
LINE
8
0
10
10.468298311
20
31.0618274154
11
10.1229940347
21
30.8030952061
0
LINE
8
0
10
10.1229940347
20
30.8030952061
11
9.83429987411
21
30.6253663481
0
LINE
8
0
10
9.83429987411
20
30.6253663481
11
9.6011318704
21
30.4648474102
0
LINE
8
0
10
9.6011318704
20
30.4648474102
11
9.2715660904
21
30.212224256
0
LINE
8
0
10
9.2715660904
20
30.212224256
11
8.85467368463
21
29.8574436295
0
LINE
8
0
10
8.85467368463
20
29.8574436295
11
8.36028989499
21
29.3911520422
0
LINE
8
0
10
8.36028989499
20
29.3911520422
11
7.79896557427
21
28.8047469916
0
LINE
8
0
10
7.79896557427
20
28.8047469916
11
7.18191549911
21
28.0904250214
0
LINE
8
0
10
7.18191549911
20
28.0904250214
11
6.9820037796
21
27.8335761189
0
LINE
8
0
10
6.9820037796
20
27.8335761189
11
7.52782044317
21
26.7312091464
0
LINE
8
0
10
7.52782044317
20
26.7312091464
11
8.23551589604
21
25.7250799706
0
LINE
8
0
10
8.23551589604
20
25.7250799706
11
8.5566625939
21
25.7780030542
0
LINE
8
0
10
8.5566625939
20
25.7780030542
11
9.47898024574
21
25.9788433427
0
LINE
8
0
10
9.47898024574
20
25.9788433427
11
10.2623000193
21
26.1918363209
0
LINE
8
0
10
10.2623000193
20
26.1918363209
11
10.9081198255
21
26.4034018042
0
LINE
8
0
10
10.9081198255
20
26.4034018042
11
11.4189567167
21
26.6001611536
0
LINE
8
0
10
11.4189567167
20
26.6001611536
11
11.7983293571
21
26.7690056414
0
LINE
8
0
10
11.7983293571
20
26.7690056414
11
12.050736187
21
26.8971635113
0
LINE
8
0
10
12.050736187
20
26.8971635113
11
12.3447880881
21
27.0658802704
0
LINE
8
0
10
12.3447880881
20
27.0658802704
11
12.7370461999
21
27.2456328033
0
LINE
8
0
10
12.7370461999
20
27.2456328033
11
13.0328894421
21
27.3184618831
0
LINE
8
0
10
13.0328894421
20
27.3184618831
11
13.2226961668
21
27.2949085508
0
LINE
8
0
10
13.2226961668
20
27.2949085508
11
14.8056464111
21
25.0444314311
0
LINE
8
0
10
14.8056464111
20
25.0444314311
11
14.7636555187
21
24.8578352972
0
LINE
8
0
10
14.7636555187
20
24.8578352972
11
14.5951131458
21
24.6040228322
0
LINE
8
0
10
14.5951131458
20
24.6040228322
11
14.2933509759
21
24.2956124041
0
LINE
8
0
10
14.2933509759
20
24.2956124041
11
14.0351703714
21
24.0758974961
0
LINE
8
0
10
14.0351703714
20
24.0758974961
11
13.8292380989
21
23.8816668432
0
LINE
8
0
10
13.8292380989
20
23.8816668432
11
13.5420974339
21
23.5816963449
0
LINE
8
0
10
13.5420974339
20
23.5816963449
11
13.1842478391
21
23.1674352697
0
LINE
8
0
10
13.1842478391
20
23.1674352697
11
12.766837095
21
22.6311410906
0
LINE
8
0
10
12.766837095
20
22.6311410906
11
12.3016055687
21
21.9659227029
0
LINE
8
0
10
12.3016055687
20
21.9659227029
11
11.8008277964
21
21.1657800312
0
LINE
8
0
10
11.8008277964
20
21.1657800312
11
11.6424667586
21
20.881424908
0
LINE
8
0
10
11.6424667586
20
20.881424908
11
12.3501622115
21
19.8752957323
0
LINE
8
0
10
12.3501622115
20
19.8752957323
11
13.2031486721
21
18.9889871685
0
LINE
8
0
10
13.2031486721
20
18.9889871685
11
13.5124529959
21
19.0903128295
0
LINE
8
0
10
13.5124529959
20
19.0903128295
11
14.3933033494
21
19.4295904843
0
LINE
8
0
10
14.3933033494
20
19.4295904843
11
15.1349297215
21
19.7596604778
0
LINE
8
0
10
15.1349297215
20
19.7596604778
11
15.7408854737
21
20.0673304345
0
LINE
8
0
10
15.7408854737
20
20.0673304345
11
16.2157003991
21
20.3397627334
0
LINE
8
0
10
16.2157003991
20
20.3397627334
11
16.5648529628
21
20.5645393974
0
LINE
8
0
10
16.5648529628
20
20.5645393974
11
16.7947384845
21
20.7297250332
0
LINE
8
0
10
16.7947384845
20
20.7297250332
11
17.0595897294
21
20.9413513157
0
LINE
8
0
10
17.0595897294
20
20.9413513157
11
17.4198116469
21
21.178875145
0
LINE
8
0
10
17.4198116469
20
21.178875145
11
17.7010704248
21
21.2960109581
0
LINE
8
0
10
17.7010704248
20
21.2960109581
11
17.8922480944
21
21.3017075216
0
LINE
8
0
10
17.8922480944
20
21.3017075216
11
19.8001805541
21
19.3192412617
0
LINE
8
0
10
19.8001805541
20
19.3192412617
11
19.7871655435
21
19.1284220757
0
LINE
8
0
10
19.7871655435
20
19.1284220757
11
19.6593427069
21
18.8518563128
0
LINE
8
0
10
19.6593427069
20
18.8518563128
11
19.4081956928
21
18.5009965449
0
LINE
8
0
10
19.4081956928
20
18.5009965449
11
19.1865801791
21
18.2444455181
0
LINE
8
0
10
19.1865801791
20
18.2444455181
11
19.0127105156
21
18.0210557521
0
LINE
8
0
10
19.0127105156
20
18.0210557521
11
18.7747252994
21
17.6807689639
0
LINE
8
0
10
18.7747252994
20
17.6807689639
11
18.4843062068
21
17.2167373685
0
LINE
8
0
10
18.4843062068
20
17.2167373685
11
18.1536522623
21
16.6230108785
0
LINE
8
0
10
18.1536522623
20
16.6230108785
11
17.7954181631
21
15.8945713089
0
LINE
8
0
10
17.7954181631
20
15.8945713089
11
17.4226505001
21
15.0273626017
0
LINE
8
0
10
17.4226505001
20
15.0273626017
11
17.3095519926
21
14.7221663011
0
LINE
8
0
10
17.3095519926
20
14.7221663011
11
18.1625384532
21
13.8358577373
0
LINE
8
0
10
18.1625384532
20
13.8358577373
11
19.1408226418
21
13.0901441068
0
LINE
8
0
10
19.1408226418
20
13.0901441068
11
19.4310347604
21
13.2374973577
0
LINE
8
0
10
19.4310347604
20
13.2374973577
11
20.2497714299
21
13.7072599981
0
LINE
8
0
10
20.2497714299
20
13.7072599981
11
20.932321307
21
14.146670446
0
LINE
8
0
10
20.932321307
20
14.146670446
11
21.4842099159
21
14.5432333531
0
LINE
8
0
10
21.4842099159
20
14.5432333531
11
21.9118736162
21
14.8849530194
0
LINE
8
0
10
21.9118736162
20
14.8849530194
11
22.2226222629
21
15.160393285
0
LINE
8
0
10
22.2226222629
20
15.160393285
11
22.4245981547
21
15.3587348756
0
LINE
8
0
10
22.4245981547
20
15.3587348756
11
22.6540408547
21
15.6083103407
0
LINE
8
0
10
22.6540408547
20
15.6083103407
11
22.9737832814
21
15.8980381092
0
LINE
8
0
10
22.9737832814
20
15.8980381092
11
23.2338651275
21
16.0567350913
0
LINE
8
0
10
23.2338651275
20
16.0567350913
11
23.4219326996
21
16.0915480279
0
LINE
8
0
10
23.4219326996
20
16.0915480279
11
25.610127055
21
14.4235599568
0
LINE
8
0
10
25.610127055
20
14.4235599568
11
25.6263929869
21
14.2329903588
0
LINE
8
0
10
25.6263929869
20
14.2329903588
11
25.5422857455
21
13.9401537648
0
LINE
8
0
10
25.5422857455
20
13.9401537648
11
25.3476405605
21
13.5550685129
0
LINE
8
0
10
25.3476405605
20
13.5550685129
11
25.1677846172
21
13.2676947058
0
LINE
8
0
10
25.1677846172
20
13.2676947058
11
25.0300529204
21
13.0203818935
0
LINE
8
0
10
25.0300529204
20
13.0203818935
11
24.8468013247
21
12.6477548493
0
LINE
8
0
10
24.8468013247
20
12.6477548493
11
24.6306199117
21
12.144829241
0
LINE
8
0
10
24.6306199117
20
12.144829241
11
24.3944730151
21
11.5075868859
0
LINE
8
0
10
24.3944730151
20
11.5075868859
11
24.1516330465
21
10.7330001406
0
LINE
8
0
10
24.1516330465
20
10.7330001406
11
23.915612851
21
9.81905203497
0
LINE
8
0
10
23.915612851
20
9.81905203497
11
23.850427807
21
9.50016809943
0
LINE
8
0
10
23.850427807
20
9.50016809943
11
24.8287119956
21
8.75445446901
0
LINE
8
0
10
24.8287119956
20
8.75445446901
11
25.90936376
21
8.16681466748
0
LINE
8
0
10
25.90936376
20
8.16681466748
11
26.1736813473
21
8.35674167287
0
LINE
8
0
10
26.1736813473
20
8.35674167287
11
26.9111138392
21
8.9459784608
0
LINE
8
0
10
26.9111138392
20
8.9459784608
11
27.5185888306
21
9.48442995461
0
LINE
8
0
10
27.5185888306
20
9.48442995461
11
28.003474495
21
9.96059071356
0
LINE
8
0
10
28.003474495
20
9.96059071356
11
28.3739628954
21
10.3635881279
0
LINE
8
0
10
28.3739628954
20
10.3635881279
11
28.6390239403
21
10.6832359089
0
LINE
8
0
10
28.6390239403
20
10.6832359089
11
28.8083560584
21
10.9100844954
0
LINE
8
0
10
28.8083560584
20
10.9100844954
11
28.9970122711
21
11.1917593057
0
LINE
8
0
10
28.9970122711
20
11.1917593057
11
29.2687807155
21
11.5269000402
0
LINE
8
0
10
29.2687807155
20
11.5269000402
11
29.501589532
21
11.7234384685
0
LINE
8
0
10
29.501589532
20
11.7234384685
11
29.6821388619
21
11.7865517926
0
LINE
8
0
10
29.6821388619
20
11.7865517926
11
32.0993056919
21
10.4721381368
0
LINE
8
0
10
32.0993056919
20
10.4721381368
11
32.1444713067
21
10.2862849166
0
LINE
8
0
10
32.1444713067
20
10.2862849166
11
32.1060510631
21
9.98404133322
0
LINE
8
0
10
32.1060510631
20
9.98404133322
11
31.9724700252
21
9.57375666906
0
LINE
8
0
10
31.9724700252
20
9.57375666906
11
31.8385893233
21
9.26229588019
0
LINE
8
0
10
31.8385893233
20
9.26229588019
11
31.7402239074
21
8.99685682437
0
LINE
8
0
10
31.7402239074
20
8.99685682437
11
31.6160011943
21
8.60062358632
0
LINE
8
0
10
31.6160011943
20
8.60062358632
11
31.47912457
21
8.07059211498
0
LINE
8
0
10
31.47912457
20
8.07059211498
11
31.3430198043
21
7.40477031553
0
LINE
8
0
10
31.3430198043
20
7.40477031553
11
31.2212659295
21
6.60219205121
0
LINE
8
0
10
31.2212659295
20
6.60219205121
11
31.1275253148
21
5.66292671621
0
LINE
8
0
10
31.1275253148
20
5.66292671621
11
31.1117816163
21
5.33782951493
0
LINE
8
0
10
31.1117816163
20
5.33782951493
11
32.1924333807
21
4.7501897134
0
LINE
8
0
10
32.1924333807
20
4.7501897134
11
33.3501231595
21
4.33439751964
0
LINE
8
0
10
33.3501231595
20
4.33439751964
11
33.5823508353
21
4.56244655151
0
LINE
8
0
10
33.5823508353
20
4.56244655151
11
34.221194357
21
5.25734627605
0
LINE
8
0
10
34.221194357
20
5.25734627605
11
34.7393557638
21
5.88221796915
0
LINE
8
0
10
34.7393557638
20
5.88221796915
11
35.1458731746
21
6.42681577539
0
LINE
8
0
10
35.1458731746
20
6.42681577539
11
35.4505023412
21
6.88164502
0
LINE
8
0
10
35.4505023412
20
6.88164502
11
35.663662978
21
7.23800804322
0
LINE
8
0
10
35.663662978
20
7.23800804322
11
35.7963823211
21
7.48804648702
0
LINE
8
0
10
35.7963823211
20
7.48804648702
11
35.9398301047
21
7.79521842372
0
LINE
8
0
10
35.9398301047
20
7.79521842372
11
36.157254545
21
8.16791670936
0
LINE
8
0
10
36.157254545
20
8.16791670936
11
36.3573334903
21
8.3976898898
0
LINE
8
0
10
36.3573334903
20
8.3976898898
11
36.5261326549
21
8.48762427841
0
LINE
8
0
10
36.5261326549
20
8.48762427841
11
39.1156156177
21
7.55759378012
0
LINE
8
0
10
39.1156156177
20
7.55759378012
11
39.1886222717
21
7.38081317968
0
LINE
8
0
10
39.1886222717
20
7.38081317968
11
39.1967895636
21
7.0762469403
0
LINE
8
0
10
39.1967895636
20
7.0762469403
11
39.1274036992
21
6.65037958871
0
LINE
8
0
10
39.1274036992
20
6.65037958871
11
39.0426362889
21
6.32213219499
0
LINE
8
0
10
39.0426362889
20
6.32213219499
11
38.9859427559
21
6.04478856209
0
LINE
8
0
10
38.9859427559
20
6.04478856209
11
38.9236606005
21
5.63423650143
0
LINE
8
0
10
38.9236606005
20
5.63423650143
11
38.869297037
21
5.08952265559
0
LINE
8
0
10
38.869297037
20
5.08952265559
11
38.8364245825
21
4.4107277104
0
LINE
8
0
10
38.8364245825
20
4.4107277104
11
38.8386106091
21
3.59896968139
0
LINE
8
0
10
38.8386106091
20
3.59896968139
11
38.8893467758
21
2.65640270033
0
LINE
8
0
10
38.8893467758
20
2.65640270033
11
38.9234134419
21
2.33271223619
0
LINE
8
0
10
38.9234134419
20
2.33271223619
11
40.0811032207
21
1.91692004242
0
LINE
8
0
10
40.0811032207
20
1.91692004242
11
41.2886957466
21
1.68272127305
0
LINE
8
0
10
41.2886957466
20
1.68272127305
11
41.4833902909
21
1.94354705539
0
LINE
8
0
10
41.4833902909
20
1.94354705539
11
42.0086708917
21
2.72782185595
0
LINE
8
0
10
42.0086708917
20
2.72782185595
11
42.4253734498
21
3.42446728548
0
LINE
8
0
10
42.4253734498
20
3.42446728548
11
42.7439941835
21
4.02473722801
0
LINE
8
0
10
42.7439941835
20
4.02473722801
11
42.9756238667
21
4.52073749085
0
LINE
8
0
10
42.9756238667
20
4.52073749085
11
43.1318877908
21
4.90546290909
0
LINE
8
0
10
43.1318877908
20
4.90546290909
11
43.2248835299
21
5.17283052101
0
LINE
8
0
10
43.2248835299
20
5.17283052101
11
43.31976059
21
5.49829973428
0
LINE
8
0
10
43.31976059
20
5.49829973428
11
43.4777447814
21
5.89981983913
0
LINE
8
0
10
43.4777447814
20
5.89981983913
11
43.6404041748
21
6.15744208307
0
LINE
8
0
10
43.6404041748
20
6.15744208307
11
43.7934966647
21
6.2720895504
0
LINE
8
0
10
43.7934966647
20
6.2720895504
11
46.4946004744
21
5.7482413362
0
LINE
8
0
10
46.4946004744
20
5.7482413362
11
46.5937369535
21
5.58467694295
0
LINE
8
0
10
46.5937369535
20
5.58467694295
11
46.6483003467
21
5.2849268221
0
LINE
8
0
10
46.6483003467
20
5.2849268221
11
46.6447360015
21
4.85345875285
0
LINE
8
0
10
46.6447360015
20
4.85345875285
11
46.6110687591
21
4.51611859498
0
LINE
8
0
10
46.6110687591
20
4.51611859498
11
46.5973759573
21
4.23337108468
0
LINE
8
0
10
46.5973759573
20
4.23337108468
11
46.5984942006
21
3.81812319375
0
LINE
8
0
10
46.5984942006
20
3.81812319375
11
46.6279179336
21
3.27149460429
0
LINE
8
0
10
46.6279179336
20
3.27149460429
11
46.6990482929
21
2.59563689155
0
LINE
8
0
10
46.6990482929
20
2.59563689155
11
46.8251229823
21
1.79372601802
0
LINE
8
0
10
46.8251229823
20
1.79372601802
11
47.0191467176
21
0.869950362077
0
LINE
8
0
10
47.0191467176
20
0.869950362077
11
47.1022252544
21
0.555253665188
0
LINE
8
0
10
47.1022252544
20
0.555253665188
11
48.3098177804
21
0.32105489581
0
LINE
8
0
10
48.3098177804
20
0.32105489581
11
49.5390081082
21
0.273938971472
0
LINE
8
0
10
49.5390081082
20
0.273938971472
11
49.6916060459
21
0.561427969006
0
LINE
8
0
10
49.6916060459
20
0.561427969006
11
50.0910115938
21
1.41669510899
0
LINE
8
0
10
50.0910115938
20
1.41669510899
11
50.3964881483
21
2.16878549654
0
LINE
8
0
10
50.3964881483
20
2.16878549654
11
50.619744005
21
2.81065775667
0
LINE
8
0
10
50.619744005
20
2.81065775667
11
50.7729450014
21
3.33620321197
0
LINE
8
0
10
50.7729450014
20
3.33620321197
11
50.8686495187
21
3.7402733875
0
LINE
8
0
10
50.8686495187
20
3.7402733875
11
50.9197419126
21
4.01870329733
0
LINE
8
0
10
50.9197419126
20
4.01870329733
11
50.9638244114
21
4.35484106466
0
LINE
8
0
10
50.9638244114
20
4.35484106466
11
51.0586653384
21
4.77577169778
0
LINE
8
0
10
51.0586653384
20
4.77577169778
11
51.1800925815
21
5.05520455816
0
LINE
8
0
10
51.1800925815
20
5.05520455816
11
51.3138900384
21
5.19187786476
0
LINE
8
0
10
51.3138900384
20
5.19187786476
11
54.0633031111
21
5.08649049279
0
LINE
8
0
10
54.0633031111
20
5.08649049279
11
54.1862457402
21
4.93997611748
0
LINE
8
0
10
54.1862457402
20
4.93997611748
11
54.2859263149
21
4.65206800393
0
LINE
8
0
10
54.2859263149
20
4.65206800393
11
54.3482670344
21
4.22511246288
0
LINE
8
0
10
54.3482670344
20
4.22511246288
11
54.3664890914
21
3.88658650824
0
LINE
8
0
10
54.3664890914
20
3.88658650824
11
54.3961179685
21
3.60506248254
0
LINE
8
0
10
54.3961179685
20
3.60506248254
11
54.4606103997
21
3.19485181995
0
LINE
8
0
10
54.4606103997
20
3.19485181995
11
54.573131762
21
2.65912099769
0
LINE
8
0
10
54.573131762
20
2.65912099769
11
54.7465976997
21
2.00204204937
0
LINE
8
0
10
54.7465976997
20
2.00204204937
11
54.993605968
21
1.22877444254
0
LINE
8
0
10
54.993605968
20
1.22877444254
11
55.32636952
21
0.345442630118
0
LINE
8
0
10
55.32636952
20
0.345442630118
11
55.4565126372
21
0.047115924338
0
LINE
8
0
10
55.4565126372
20
0.047115924338
11
56.685702965
21
0.0
0
LINE
8
0
10
56.685702965
20
0.0
11
57.9076799151
21
0.141071278035
0
LINE
8
0
10
57.9076799151
20
0.141071278035
11
58.0146044801
21
0.448484992326
0
LINE
8
0
10
58.0146044801
20
0.448484992326
11
58.2787732474
21
1.35469773487
0
LINE
8
0
10
58.2787732474
20
1.35469773487
11
58.4658636868
21
2.14460471918
0
LINE
8
0
10
58.4658636868
20
2.14460471918
11
58.5885217384
21
2.81303435516
0
LINE
8
0
10
58.5885217384
20
2.81303435516
11
58.6597031465
21
3.35580666288
0
LINE
8
0
10
58.6597031465
20
3.35580666288
11
58.6926050244
21
3.76975053326
0
LINE
8
0
10
58.6926050244
20
3.76975053326
11
58.7005965106
21
4.0527165799
0
LINE
8
0
10
58.7005965106
20
4.0527165799
11
58.6928511916
21
4.39164411693
0
LINE
8
0
10
58.6928511916
20
4.39164411693
11
58.7223258633
21
4.82211902103
0
LINE
8
0
10
58.7223258633
20
4.82211902103
11
58.7996748045
21
5.11681282845
0
LINE
8
0
10
58.7996748045
20
5.11681282845
11
58.9110411295
21
5.27230846785
0
LINE
8
0
10
58.9110411295
20
5.27230846785
11
61.644319553
21
5.58785212878
0
LINE
8
0
10
61.644319553
20
5.58785212878
11
61.7881866611
21
5.46182194419
0
LINE
8
0
10
61.7881866611
20
5.46182194419
11
61.9306479892
21
5.19250416011
0
LINE
8
0
10
61.9306479892
20
5.19250416011
11
62.0574325595
21
4.78006862327
0
LINE
8
0
10
62.0574325595
20
4.78006862327
11
62.1271168064
21
4.44829163331
0
LINE
8
0
10
62.1271168064
20
4.44829163331
11
62.1993728866
21
4.17458977677
0
LINE
8
0
10
62.1993728866
20
4.17458977677
11
62.3257278579
21
3.77903133277
0
LINE
8
0
10
62.3257278579
20
3.77903133277
11
62.5187094441
21
3.26675535413
0
LINE
8
0
10
62.5187094441
20
3.26675535413
11
62.7904450657
21
2.64385654385
0
LINE
8
0
10
62.7904450657
20
2.64385654385
11
63.1525972484
21
1.91735694103
0
LINE
8
0
10
63.1525972484
20
1.91735694103
11
63.6163009215
21
1.09517352114
0
LINE
8
0
10
63.6163009215
20
1.09517352114
11
63.7904581746
21
0.820209331604
0
LINE
8
0
10
63.7904581746
20
0.820209331604
11
65.0124351248
21
0.961280609639
0
LINE
8
0
10
65.0124351248
20
0.961280609639
11
66.1985565933
21
1.28723249886
0
LINE
8
0
10
66.1985565933
20
1.28723249886
11
66.2573015642
21
1.60736541299
0
LINE
8
0
10
66.2573015642
20
1.60736541299
11
66.380041659
21
2.54328289947
0
LINE
8
0
10
66.380041659
20
2.54328289947
11
66.444360742
21
3.35249173034
0
LINE
8
0
10
66.444360742
20
3.35249173034
11
66.4635459878
21
4.03181131803
0
LINE
8
0
10
66.4635459878
20
4.03181131803
11
66.4510393756
21
4.57908835532
0
LINE
8
0
10
66.4510393756
20
4.57908835532
11
66.4203674219
21
4.99320342706
0
LINE
8
0
10
66.4203674219
20
4.99320342706
11
66.3850706869
21
5.27407312621
0
LINE
8
0
10
66.3850706869
20
5.27407312621
11
66.3256790938
21
5.60784625873
0
LINE
8
0
10
66.3256790938
20
5.60784625873
11
66.2890966489
21
6.03777546692
0
LINE
8
0
10
66.2890966489
20
6.03777546692
11
66.3205542944
21
6.3408228483
0
LINE
8
0
10
66.3205542944
20
6.3408228483
11
66.4068791552
21
6.51149613451
0
LINE
8
0
10
66.4068791552
20
6.51149613451
11
69.0599572
21
7.24057475237
0
LINE
8
0
10
69.0599572
20
7.24057475237
11
69.221376664
21
7.13798279921
0
LINE
8
0
10
69.221376664
20
7.13798279921
11
69.4032795726
21
6.89356792519
0
LINE
8
0
10
69.4032795726
20
6.89356792519
11
69.5915362711
21
6.50531953197
0
LINE
8
0
10
69.5915362711
20
6.50531953197
11
69.7110493681
21
6.18806807814
0
LINE
8
0
10
69.7110493681
20
6.18806807814
11
69.8242390302
21
5.9286037303
0
LINE
8
0
10
69.8242390302
20
5.9286037303
11
70.0094948881
21
5.55696905956
0
LINE
8
0
10
70.0094948881
20
5.55696905956
11
70.2784133733
21
5.08015523929
0
LINE
8
0
10
70.2784133733
20
5.08015523929
11
70.6420494261
21
4.50603678722
0
LINE
8
0
10
70.6420494261
20
4.50603678722
11
71.1108569831
21
3.84333372335
0
LINE
8
0
10
71.1108569831
20
3.84333372335
11
71.6946319562
21
3.1015699785
0
LINE
8
0
10
71.6946319562
20
3.1015699785
11
71.9087212468
21
2.85641323276
0
LINE
8
0
10
71.9087212468
20
2.85641323276
11
73.0948427154
21
3.18236512198
0
LINE
8
0
10
73.0948427154
20
3.18236512198
11
74.2173070204
21
3.68555758636
0
LINE
8
0
10
74.2173070204
20
3.68555758636
11
74.2264954649
21
4.01090605617
0
LINE
8
0
10
74.2264954649
20
4.01090605617
11
74.2049299634
21
4.95459117395
0
LINE
8
0
10
74.2049299634
20
4.95459117395
11
74.1449701052
21
5.76413468222
0
LINE
8
0
10
74.1449701052
20
5.76413468222
11
74.0602328592
21
6.43842154626
0
LINE
8
0
10
74.0602328592
20
6.43842154626
11
73.9643313712
21
6.9773756032
0
LINE
8
0
10
73.9643313712
20
6.9773756032
11
73.8708045106
21
7.38195537003
0
LINE
8
0
10
73.8708045106
20
7.38195537003
11
73.7930468798
21
7.65414537398
0
LINE
8
0
10
73.7930468798
20
7.65414537398
11
73.6834011012
21
7.97494074267
0
LINE
8
0
10
73.6834011012
20
7.97494074267
11
73.5816190011
21
8.3942470787
0
LINE
8
0
10
73.5816190011
20
8.3942470787
11
73.5664480105
21
8.69854486027
0
LINE
8
0
10
73.5664480105
20
8.69854486027
11
73.6257080256
21
8.8803953561
0
LINE
8
0
10
73.6257080256
20
8.8803953561
11
76.1363997908
21
10.005919946
0
LINE
8
0
10
76.1363997908
20
10.005919946
11
76.3115880753
21
9.92917089273
0
LINE
8
0
10
76.3115880753
20
9.92917089273
11
76.5286689146
21
9.71538780626
0
LINE
8
0
10
76.5286689146
20
9.71538780626
11
76.7739851636
21
9.36042676994
0
LINE
8
0
10
76.7739851636
20
9.36042676994
11
76.9405258252
21
9.06513695743
0
LINE
8
0
10
76.9405258252
20
9.06513695743
11
77.0919959993
21
8.82599174269
0
LINE
8
0
10
77.0919959993
20
8.82599174269
11
77.3318105036
21
8.48699164691
0
LINE
8
0
10
77.3318105036
20
8.48699164691
11
77.6703626665
21
8.05681609683
0
LINE
8
0
10
77.6703626665
20
8.05681609683
11
78.1173758296
21
7.54493485289
0
LINE
8
0
10
78.1173758296
20
7.54493485289
11
78.6818503091
21
6.96156152611
0
LINE
8
0
10
78.6818503091
20
6.96156152611
11
79.3720133916
21
6.31760376979
0
LINE
8
0
10
79.3720133916
20
6.31760376979
11
79.6210166481
21
6.10800073418
0
LINE
8
0
10
79.6210166481
20
6.10800073418
11
80.7434809532
21
6.61119319856
0
LINE
8
0
10
80.7434809532
20
6.61119319856
11
81.7759784827
21
7.27983183322
0
LINE
8
0
10
81.7759784827
20
7.27983183322
11
81.7353950315
21
7.60276996632
0
LINE
8
0
10
81.7353950315
20
7.60276996632
11
81.5700294108
21
8.53210353608
0
LINE
8
0
10
81.5700294108
20
8.53210353608
11
81.3871960196
21
9.32300670806
0
LINE
8
0
10
81.3871960196
20
9.32300670806
11
81.2005224511
21
9.97645613585
0
LINE
8
0
10
81.2005224511
20
9.97645613585
11
81.0234739369
21
10.4944545862
0
LINE
8
0
10
81.0234739369
20
10.4944545862
11
80.8692843596
21
10.8800160412
0
LINE
8
0
10
80.8692843596
20
10.8800160412
11
80.750888406
21
11.137146447
0
LINE
8
0
10
80.750888406
20
11.137146447
11
80.5935584461
21
11.4374448803
0
LINE
8
0
10
80.5935584461
20
11.4374448803
11
80.428962377
21
11.836300159
0
LINE
8
0
10
80.428962377
20
11.836300159
11
80.3675183455
21
12.1347158587
0
LINE
8
0
10
80.3675183455
20
12.1347158587
11
80.3983245102
21
12.3234811427
0
LINE
8
0
10
80.3983245102
20
12.3234811427
11
82.7077815089
21
13.8190703622
0
LINE
8
0
10
82.7077815089
20
13.8190703622
11
82.892632349
21
13.7699631416
0
LINE
8
0
10
82.892632349
20
13.7699631416
11
83.139802928
21
13.591822737
0
LINE
8
0
10
83.139802928
20
13.591822737
11
83.4364287226
21
13.2784690434
0
LINE
8
0
10
83.4364287226
20
13.2784690434
11
83.6460933767
21
13.0120622151
0
LINE
8
0
10
83.6460933767
20
13.0120622151
11
83.8322937305
21
12.7988414946
0
LINE
8
0
10
83.8322937305
20
12.7988414946
11
84.1210458324
21
12.5004218487
0
LINE
8
0
10
84.1210458324
20
12.5004218487
11
84.5212962972
21
12.1269675191
0
LINE
8
0
10
84.5212962972
20
12.1269675191
11
85.041208961
21
11.6893215458
0
LINE
8
0
10
85.041208961
20
11.6893215458
11
85.6881195595
21
11.1989517325
0
LINE
8
0
10
85.6881195595
20
11.1989517325
11
86.4684939137
21
10.6678937887
0
LINE
8
0
10
86.4684939137
20
10.6678937887
11
86.746574711
21
10.4987573807
0
LINE
8
0
10
86.746574711
20
10.4987573807
11
87.7790722406
21
11.1673960154
0
LINE
8
0
10
87.7790722406
20
11.1673960154
11
88.6974021276
21
11.9858084975
0
LINE
8
0
10
88.6974021276
20
11.9858084975
11
88.6079980224
21
12.2987668977
0
LINE
8
0
10
88.6079980224
20
12.2987668977
11
88.3027083125
21
13.1919661282
0
LINE
8
0
10
88.3027083125
20
13.1919661282
11
88.0012868481
21
13.9456908639
0
LINE
8
0
10
88.0012868481
20
13.9456908639
11
87.7170524272
21
14.5629865547
0
LINE
8
0
10
87.7170524272
20
14.5629865547
11
87.4630067539
21
15.0478879537
0
LINE
8
0
10
87.4630067539
20
15.0478879537
11
87.251768533
21
15.4053938633
0
LINE
8
0
10
87.251768533
20
15.4053938633
11
87.0955093574
21
15.6414377521
0
LINE
8
0
10
87.0955093574
20
15.6414377521
11
86.894182897
21
15.9142005093
0
LINE
8
0
10
86.894182897
20
15.9142005093
11
86.6706308513
21
16.2832559011
0
LINE
8
0
10
86.6706308513
20
16.2832559011
11
86.5643539749
21
16.5687949078
0
LINE
8
0
10
86.5643539749
20
16.5687949078
11
86.565984219
21
16.7600504816
0
LINE
8
0
10
86.565984219
20
16.7600504816
11
88.6200747365
21
18.5906489871
0
LINE
8
0
10
88.6200747365
20
18.5906489871
11
88.8102553852
21
18.5703346307
0
LINE
8
0
10
88.8102553852
20
18.5703346307
11
89.0817222349
21
18.4320123681
0
LINE
8
0
10
89.0817222349
20
18.4320123681
11
89.422704918
21
18.1676107623
0
LINE
8
0
10
89.422704918
20
18.1676107623
11
89.6705792028
21
17.9363312685
0
LINE
8
0
10
89.6705792028
20
17.9363312685
11
89.8871453577
21
17.7540327552
0
LINE
8
0
10
89.8871453577
20
17.7540327552
11
90.2180669527
21
17.5031882628
0
LINE
8
0
10
90.2180669527
20
17.5031882628
11
90.6706341878
21
17.1952086066
0
LINE
8
0
10
90.6706341878
20
17.1952086066
11
91.25126004
21
16.8420559546
0
LINE
8
0
10
91.25126004
20
16.8420559546
11
91.9654437215
21
16.4561835075
0
LINE
8
0
10
91.9654437215
20
16.4561835075
11
92.817738034
21
16.0504729244
0
LINE
8
0
10
92.817738034
20
16.0504729244
11
93.1183783938
21
15.9257675581
0
LINE
8
0
10
93.1183783938
20
15.9257675581
11
94.0367082809
21
16.7441800401
0
LINE
8
0
10
94.0367082809
20
16.7441800401
11
94.8193456512
21
17.6931834747
0
LINE
8
0
10
94.8193456512
20
17.6931834747
11
94.6832164485
21
17.9888266624
0
LINE
8
0
10
94.6832164485
20
17.9888266624
11
94.2451583814
21
18.8249557208
0
LINE
8
0
10
94.2451583814
20
18.8249557208
11
93.8322139074
21
19.5238353512
0
LINE
8
0
10
93.8322139074
20
19.5238353512
11
93.4570808481
21
20.0905084172
0
LINE
8
0
10
93.4570808481
20
20.0905084172
11
93.131992631
21
20.5309470871
0
LINE
8
0
10
93.131992631
20
20.5309470871
11
92.8686570113
21
20.8520178157
0
LINE
8
0
10
92.8686570113
20
20.8520178157
11
92.6781971963
21
21.0614425189
0
LINE
8
0
10
92.6781971963
20
21.0614425189
11
92.4375931571
21
21.3002762721
0
LINE
8
0
10
92.4375931571
20
21.3002762721
11
92.1603250053
21
21.6308814313
0
LINE
8
0
10
92.1603250053
20
21.6308814313
11
92.0117063238
21
21.8968509527
0
LINE
8
0
10
92.0117063238
20
21.8968509527
11
91.9841224356
21
22.0861139479
0
LINE
8
0
10
91.9841224356
20
22.0861139479
11
93.7347003312
21
24.2088140619
0
LINE
8
0
10
93.7347003312
20
24.2088140619
11
93.9257531153
21
24.217768721
0
LINE
8
0
10
93.9257531153
20
24.217768721
11
94.2151532829
21
24.122506757
0
LINE
8
0
10
94.2151532829
20
24.122506757
11
94.5925005094
21
23.9132545884
0
LINE
8
0
10
94.5925005094
20
23.9132545884
11
94.8727744618
21
23.7225234245
0
LINE
8
0
10
94.8727744618
20
23.7225234245
11
95.1146302907
21
23.5754200411
0
LINE
8
0
10
95.1146302907
20
23.5754200411
11
95.479964857
21
23.3780302844
0
LINE
8
0
10
95.479964857
20
23.3780302844
11
95.97424107
21
23.1427440838
0
LINE
8
0
10
95.97424107
20
23.1427440838
11
96.6019707328
21
22.8823623519
0
LINE
8
0
10
96.6019707328
20
22.8823623519
11
97.3666876371
21
22.6100317941
0
LINE
8
0
10
97.3666876371
20
22.6100317941
11
98.2709248516
21
22.3391780839
0
LINE
8
0
10
98.2709248516
20
22.3391780839
11
98.5870780187
21
22.2618267473
0
LINE
8
0
10
98.5870780187
20
22.2618267473
11
99.369715389
21
23.2108301819
0
LINE
8
0
10
99.369715389
20
23.2108301819
11
99.9983158861
21
24.2681807327
0
LINE
8
0
10
99.9983158861
20
24.2681807327
11
99.8186523389
21
24.5395790823
0
LINE
8
0
10
99.8186523389
20
24.5395790823
11
99.2580936244
21
25.299039812
0
LINE
8
0
10
99.2580936244
20
25.299039812
11
98.7433052094
21
25.9266931909
0
LINE
8
0
10
98.7433052094
20
25.9266931909
11
98.2860663127
21
26.4294612958
0
LINE
8
0
10
98.2860663127
20
26.4294612958
11
97.897555344
21
26.8151137275
0
LINE
8
0
10
97.897555344
20
26.8151137275
11
97.5882946892
21
27.0922236494
0
LINE
8
0
10
97.5882946892
20
27.0922236494
11
97.3680984515
21
27.2701204293
0
LINE
8
0
10
97.3680984515
20
27.2701204293
11
97.0938563882
21
27.4694271177
0
LINE
8
0
10
97.0938563882
20
27.4694271177
11
96.7693710607
21
27.7538329397
0
LINE
8
0
10
96.7693710607
20
27.7538329397
11
96.5818940701
21
27.9939988757
0
LINE
8
0
10
96.5818940701
20
27.9939988757
11
96.5257425927
21
28.176833128
0
LINE
8
0
10
96.5257425927
20
28.176833128
11
97.9317758042
21
30.5418805589
0
LINE
8
0
10
97.9317758042
20
30.5418805589
11
98.1192226083
21
30.5798943439
0
LINE
8
0
10
98.1192226083
20
30.5798943439
11
98.4197727992
21
30.5299255383
0
LINE
8
0
10
98.4197727992
20
30.5299255383
11
98.8246398698
21
30.3807275004
0
LINE
8
0
10
98.8246398698
20
30.3807275004
11
99.130744106
21
30.2350152431
0
LINE
8
0
10
99.130744106
20
30.2350152431
11
99.3922207133
21
30.1265549682
0
LINE
8
0
10
99.3922207133
20
30.1265549682
11
99.7834051184
21
29.9872465958
0
LINE
8
0
10
99.7834051184
20
29.9872465958
11
100.307804894
21
29.8301687599
0
LINE
8
0
10
100.307804894
20
29.8301687599
11
100.967924916
21
29.6686610754
0
LINE
8
0
10
100.967924916
20
29.6686610754
11
101.765250727
21
29.5162556044
0
LINE
8
0
10
101.765250727
20
29.5162556044
11
102.700236289
21
29.3866073483
0
LINE
8
0
10
102.700236289
20
29.3866073483
11
103.024491901
21
29.3584230914
0
LINE
8
0
10
103.024491901
20
29.3584230914
11
103.653092398
21
30.4157736422
0
LINE
8
0
10
103.653092398
20
30.4157736422
11
104.112922159
21
31.5566879086
0
LINE
8
0
10
104.112922159
20
31.5566879086
11
103.893935429
21
31.7974800726
0
LINE
8
0
10
103.893935429
20
31.7974800726
11
103.224015088
21
32.4624713579
0
LINE
8
0
10
103.224015088
20
32.4624713579
11
102.619448936
21
33.0041868222
0
LINE
8
0
10
102.619448936
20
33.0041868222
11
102.090821494
21
33.4312655076
0
LINE
8
0
10
102.090821494
20
33.4312655076
11
101.647994142
21
33.7530923349
0
LINE
8
0
10
101.647994142
20
33.7530923349
11
101.30005726
21
33.9797462284
0
LINE
8
0
10
101.30005726
20
33.9797462284
11
101.055285813
21
34.1219453354
0
LINE
8
0
10
101.055285813
20
34.1219453354
11
100.753833727
21
34.2770533792
0
LINE
8
0
10
100.753833727
20
34.2770533792
11
100.389736885
21
34.5085936325
0
LINE
8
0
10
100.389736885
20
34.5085936325
11
100.167795887
21
34.7173266971
0
LINE
8
0
10
100.167795887
20
34.7173266971
11
100.084392963
21
34.8894467266
0
LINE
8
0
10
100.084392963
20
34.8894467266
11
101.112925264
21
37.4414067672
0
LINE
8
0
10
101.112925264
20
37.4414067672
11
101.292372493
21
37.5075886672
0
LINE
8
0
10
101.292372493
20
37.5075886672
11
101.597028066
21
37.5040842463
0
LINE
8
0
10
101.597028066
20
37.5040842463
11
102.01992524
21
37.4184374148
0
LINE
8
0
10
102.01992524
20
37.4184374148
11
102.344684936
21
37.321159436
0
LINE
8
0
10
102.344684936
20
37.321159436
11
102.619653531
21
37.2538844864
0
LINE
8
0
10
102.619653531
20
37.2538844864
11
103.027518744
21
37.1759227686
0
LINE
8
0
10
103.027518744
20
37.1759227686
11
103.569750596
21
37.1007350687
0
LINE
8
0
10
103.569750596
20
37.1007350687
11
104.246788323
21
37.0418870346
0
LINE
8
0
10
104.246788323
20
37.0418870346
11
105.0580344
21
37.0129789055
0
LINE
8
0
10
105.0580344
20
37.0129789055
11
106.001853041
21
37.027574949
0
LINE
8
0
10
106.001853041
20
37.027574949
11
106.326610822
21
37.0492183866
0
LINE
8
0
10
106.326610822
20
37.0492183866
11
106.786440583
21
38.190132653
0
LINE
8
0
10
106.786440583
20
38.190132653
11
107.066721587
21
39.3878685716
0
LINE
8
0
10
107.066721587
20
39.3878685716
11
106.813544537
21
39.5924105858
0
LINE
8
0
10
106.813544537
20
39.5924105858
11
106.049964935
21
40.1473455946
0
LINE
8
0
10
106.049964935
20
40.1473455946
11
105.369791564
21
40.5904257928
0
LINE
8
0
10
105.369791564
20
40.5904257928
11
104.782166157
21
40.9318046964
0
LINE
8
0
10
104.782166157
20
40.9318046964
11
104.295401918
21
41.1822625713
0
LINE
8
0
10
104.295401918
20
41.1822625713
11
103.916944154
21
41.3531478612
0
LINE
8
0
10
103.916944154
20
41.3531478612
11
103.653334733
21
41.4563162687
0
LINE
8
0
10
103.653334733
20
41.4563162687
11
103.331738406
21
41.5635900668
0
LINE
8
0
10
103.331738406
20
41.5635900668
11
102.93656417
21
41.7368376441
0
LINE
8
0
10
102.93656417
20
41.7368376441
11
102.685361274
21
41.9092453111
0
LINE
8
0
10
102.685361274
20
41.9092453111
11
102.576661798
21
42.0666167702
0
LINE
8
0
10
102.576661798
20
42.0666167702
11
103.203585262
21
44.7456736402
0
LINE
8
0
10
103.203585262
20
44.7456736402
11
103.370826827
21
44.8384724076
0
LINE
8
0
10
103.370826827
20
44.8384724076
11
103.672446913
21
44.8815145121
0
LINE
8
0
10
103.672446913
20
44.8815145121
11
104.103461838
21
44.861426376
0
LINE
8
0
10
104.103461838
20
44.861426376
11
104.439264902
21
44.814862789
0
LINE
8
0
10
104.439264902
20
44.814862789
11
104.721280455
21
44.7903500326
0
LINE
8
0
10
104.721280455
20
44.7903500326
11
105.136266461
21
44.7755623259
0
LINE
8
0
10
105.136266461
20
44.7755623259
11
105.683620934
21
44.784027098
0
LINE
8
0
10
105.683620934
20
44.784027098
11
106.361707176
21
44.8292180625
0
LINE
8
0
10
106.361707176
20
44.8292180625
11
107.167858598
21
44.9244848573
0
LINE
8
0
10
107.167858598
20
44.9244848573
11
108.098388009
21
45.0829830813
0
LINE
8
0
10
108.098388009
20
45.0829830813
11
108.416035911
21
45.1539469098
0
LINE
8
0
10
54.9005226273
20
53.2419029484
11
54.5886550911
21
53.2091243495
0
LINE
8
0
10
54.5886550911
20
53.2091243495
11
54.2767875549
21
53.2419029484
0
LINE
8
0
10
54.2767875549
20
53.2419029484
11
53.9785501265
21
53.338806163
0
LINE
8
0
10
53.9785501265
20
53.338806163
11
53.7069772127
21
53.4955988579
0
LINE
8
0
10
53.7069772127
20
53.4955988579
11
53.4739378529
21
53.70542844
0
LINE
8
0
10
53.4739378529
20
53.70542844
11
53.2896169854
21
53.9591243495
0
LINE
8
0
10
53.2896169854
20
53.9591243495
11
53.1620703167
21
54.2455988579
0
LINE
8
0
10
53.1620703167
20
54.2455988579
11
53.0968722481
21
54.5523316546
0
LINE
8
0
10
53.0968722481
20
54.5523316546
11
53.0968722481
21
54.8659170444
0
LINE
8
0
10
53.0968722481
20
54.8659170444
11
53.1620703167
21
55.1726498411
0
LINE
8
0
10
53.1620703167
20
55.1726498411
11
53.2896169854
21
55.4591243495
0
LINE
8
0
10
53.2896169854
20
55.4591243495
11
53.4739378529
21
55.712820259
0
LINE
8
0
10
53.4739378529
20
55.712820259
11
53.7069772127
21
55.9226498411
0
LINE
8
0
10
53.7069772127
20
55.9226498411
11
53.9785501265
21
56.079442536
0
LINE
8
0
10
53.9785501265
20
56.079442536
11
54.2767875549
21
56.1763457506
0
LINE
8
0
10
54.2767875549
20
56.1763457506
11
54.5886550911
21
56.2091243495
0
LINE
8
0
10
54.5886550911
20
56.2091243495
11
54.9005226273
21
56.1763457506
0
LINE
8
0
10
54.9005226273
20
56.1763457506
11
55.1987600557
21
56.079442536
0
LINE
8
0
10
55.1987600557
20
56.079442536
11
55.4703329696
21
55.9226498411
0
LINE
8
0
10
55.4703329696
20
55.9226498411
11
55.7033723293
21
55.712820259
0
LINE
8
0
10
55.7033723293
20
55.712820259
11
55.8876931968
21
55.4591243495
0
LINE
8
0
10
55.8876931968
20
55.4591243495
11
56.0152398656
21
55.1726498411
0
LINE
8
0
10
56.0152398656
20
55.1726498411
11
56.0804379342
21
54.8659170444
0
LINE
8
0
10
56.0804379342
20
54.8659170444
11
56.0804379342
21
54.5523316546
0
LINE
8
0
10
56.0804379342
20
54.5523316546
11
56.0152398656
21
54.2455988579
0
LINE
8
0
10
56.0152398656
20
54.2455988579
11
55.8876931968
21
53.9591243495
0
LINE
8
0
10
55.8876931968
20
53.9591243495
11
55.7033723293
21
53.70542844
0
LINE
8
0
10
55.7033723293
20
53.70542844
11
55.4703329696
21
53.4955988579
0
LINE
8
0
10
55.4703329696
20
53.4955988579
11
55.1987600557
21
53.338806163
0
LINE
8
0
10
55.1987600557
20
53.338806163
11
54.9005226273
21
53.2419029484
0
ENDSEC
0
EOF
