  0
SECTION
  2
BLOCKS
  0
ENDSEC
  0
SECTION
  2
ENTITIES
  0
LINE
  8
0
 10
28.91687703843151
 20
-9.689781213370546
 11
29.319945525636243
 21
-8.609112777836522
  0
LINE
  8
0
 10
29.319945525636243
 20
-8.609112777836522
 11
29.565116203187927
 21
-7.482081362211404
  0
LINE
  8
0
 10
29.565116203187927
 20
-7.482081362211404
 11
28.65877362580072
 21
-6.758500916974538
  0
LINE
  8
0
 10
28.65877362580072
 20
-6.758500916974538
 11
27.8601466036421
 21
-6.2369357157323115
  0
LINE
  8
0
 10
27.8601466036421
 20
-6.2369357157323115
 11
27.233777308273073
 21
-5.908180741448547
  0
LINE
  8
0
 10
27.233777308273073
 20
-5.908180741448547
 11
26.80711257554353
 21
-5.733727103437201
  0
LINE
  8
0
 10
26.80711257554353
 20
-5.733727103437201
 11
26.617111970281034
 21
-5.676420405806999
  0
LINE
  8
0
 10
26.617111970281034
 20
-5.676420405806999
 11
26.490408483679186
 21
-5.663382936073383
  0
LINE
  8
0
 10
26.490408483679186
 20
-5.663382936073383
 11
25.70523398051161
 21
-5.4921658777893185
  0
LINE
  8
0
 10
25.70523398051161
 20
-5.4921658777893185
 11
25.19366024212167
 21
-5.247088522026321
  0
LINE
  8
0
 10
25.19366024212167
 20
-5.247088522026321
 11
24.960320159502217
 21
-4.978615112884187
  0
LINE
  8
0
 10
24.960320159502217
 20
-4.978615112884187
 11
25.35188977749295
 21
-2.2551885989740743
  0
LINE
  8
0
 10
25.35188977749295
 20
-2.2551885989740743
 11
25.65141564723046
 21
-2.063329747388414
  0
LINE
  8
0
 10
25.65141564723046
 20
-2.063329747388414
 11
26.211313324764347
 21
-1.972306723872588
  0
LINE
  8
0
 10
26.211313324764347
 20
-1.972306723872588
 11
27.012920163220123
 21
-2.0292343798301835
  0
LINE
  8
0
 10
27.012920163220123
 20
-2.0292343798301835
 11
27.138164348029747
 21
-2.052421516468103
  0
LINE
  8
0
 10
27.138164348029747
 20
-2.052421516468103
 11
27.336613756209278
 21
-2.0509654990730457
  0
LINE
  8
0
 10
27.336613756209278
 20
-2.0509654990730457
 11
27.795144838839615
 21
-2.0037838052456207
  0
LINE
  8
0
 10
27.795144838839615
 20
-2.0037838052456207
 11
28.488762756113047
 21
-1.864814340490776
  0
LINE
  8
0
 10
28.488762756113047
 20
-1.864814340490776
 11
29.401981670118655
 21
-1.5893754275323557
  0
LINE
  8
0
 10
29.401981670118655
 20
-1.5893754275323557
 11
30.47546717372637
 21
-1.1504512861842835
  0
LINE
  8
0
 10
30.47546717372637
 20
-1.1504512861842835
 11
30.557749073643905
 21
5.42377436250521e-15
  0
LINE
  8
0
 10
30.557749073643905
 20
5.42377436250521e-15
 11
30.47546717372637
 21
1.1504512861842864
  0
LINE
  8
0
 10
30.47546717372637
 20
1.1504512861842864
 11
29.401981670118648
 21
1.589375427532361
  0
LINE
  8
0
 10
29.401981670118648
 20
1.589375427532361
 11
28.488762756113296
 21
1.8648143404907023
  0
LINE
  8
0
 10
28.488762756113296
 20
1.8648143404907023
 11
27.795144838839548
 21
2.003783805245509
  0
LINE
  8
0
 10
27.795144838839548
 20
2.003783805245509
 11
27.336613756209218
 21
2.050965499072923
  0
LINE
  8
0
 10
27.336613756209218
 20
2.050965499072923
 11
27.138164348029854
 21
2.0524215164681303
  0
LINE
  8
0
 10
27.138164348029854
 20
2.0524215164681303
 11
27.012920163220127
 21
2.029234379830184
  0
LINE
  8
0
 10
27.012920163220127
 20
2.029234379830184
 11
26.211313324764347
 21
1.972306723872588
  0
LINE
  8
0
 10
26.211313324764347
 20
1.972306723872588
 11
25.65141564723045
 21
2.0633297473896777
  0
LINE
  8
0
 10
25.65141564723045
 20
2.0633297473896777
 11
25.351889777492914
 21
2.2551885989739167
  0
LINE
  8
0
 10
25.351889777492914
 20
2.2551885989739167
 11
24.9603201595023
 21
4.978615112884047
  0
LINE
  8
0
 10
24.9603201595023
 20
4.978615112884047
 11
25.19366024212132
 21
5.247088522027536
  0
LINE
  8
0
 10
25.19366024212132
 20
5.247088522027536
 11
25.705233980511608
 21
5.4921658777893185
  0
LINE
  8
0
 10
25.705233980511608
 20
5.4921658777893185
 11
26.490408483679182
 21
5.663382936073382
  0
LINE
  8
0
 10
26.490408483679182
 20
5.663382936073382
 11
26.617111970280924
 21
5.6764204058069945
  0
LINE
  8
0
 10
26.617111970280924
 20
5.6764204058069945
 11
26.807112575543623
 21
5.733727103437101
  0
LINE
  8
0
 10
26.807112575543623
 20
5.733727103437101
 11
27.233777308273172
 21
5.908180741448459
  0
LINE
  8
0
 10
27.233777308273172
 20
5.908180741448459
 11
27.860146603641883
 21
6.23693571573217
  0
LINE
  8
0
 10
27.860146603641883
 20
6.23693571573217
 11
28.658773625800723
 21
6.758500916974544
  0
LINE
  8
0
 10
28.658773625800723
 20
6.758500916974544
 11
29.565116203187923
 21
7.482081362211407
  0
LINE
  8
0
 10
29.565116203187923
 20
7.482081362211407
 11
29.319945525636243
 21
8.609112777836529
  0
LINE
  8
0
 10
29.319945525636243
 20
8.609112777836529
 11
28.916877038431508
 21
9.689781213370573
  0
LINE
  8
0
 10
28.916877038431508
 20
9.689781213370573
 11
27.763216019841455
 21
9.808490027280213
  0
LINE
  8
0
 10
27.763216019841455
 20
9.808490027280213
 11
26.80938877928008
 21
9.815488229325076
  0
LINE
  8
0
 10
26.80938877928008
 20
9.815488229325076
 11
26.10471503865454
 21
9.753413704999721
  0
LINE
  8
0
 10
26.10471503865454
 20
9.753413704999721
 11
25.651465067448783
 21
9.669501074409643
  0
LINE
  8
0
 10
25.651465067448783
 20
9.669501074409643
 11
25.460644047179173
 21
9.614988453699764
  0
LINE
  8
0
 10
25.460644047179173
 20
9.614988453699764
 11
25.347005703159006
 21
9.55745519460145
  0
LINE
  8
0
 10
25.347005703159006
 20
9.55745519460145
 11
24.593907948127274
 21
9.276994764526071
  0
LINE
  8
0
 10
24.593907948127274
 20
9.276994764526071
 11
24.03104591144352
 21
9.206589311766663
  0
LINE
  8
0
 10
24.03104591144352
 20
9.206589311766663
 11
23.68960005920509
 21
9.306290342666179
  0
LINE
  8
0
 10
23.68960005920509
 20
9.306290342666179
 11
22.54661384692854
 21
11.809081037260453
  0
LINE
  8
0
 10
22.54661384692854
 20
11.809081037260453
 11
22.69486431666219
 21
12.13241888502581
  0
LINE
  8
0
 10
22.69486431666219
 20
12.13241888502581
 11
23.11666945407067
 21
12.511695863200886
  0
LINE
  8
0
 10
23.11666945407067
 20
12.511695863200886
 11
23.82180145331597
 21
12.897186647931488
  0
LINE
  8
0
 10
23.82180145331597
 20
12.897186647931488
 11
23.93969947876001
 21
12.945392505775635
  0
LINE
  8
0
 10
23.93969947876001
 20
12.945392505775635
 11
24.105858562044602
 21
13.053907235814851
  0
LINE
  8
0
 10
24.105858562044602
 20
13.053907235814851
 11
24.46609110570048
 21
13.341499621774197
  0
LINE
  8
0
 10
24.46609110570048
 20
13.341499621774197
 11
24.974467064015336
 21
13.833406332751425
  0
LINE
  8
0
 10
24.974467064015336
 20
13.833406332751425
 11
25.593802182609885
 21
14.558843711540781
  0
LINE
  8
0
 10
25.593802182609885
 20
14.558843711540781
 11
26.259575348383517
 21
15.508460276291949
  0
LINE
  8
0
 10
26.259575348383517
 20
15.508460276291949
 11
25.706814363571684
 21
16.520766438777876
  0
LINE
  8
0
 10
25.706814363571684
 20
16.520766438777876
 11
25.01561350077248
 21
17.444102693997362
  0
LINE
  8
0
 10
25.01561350077248
 20
17.444102693997362
 11
23.87523972184001
 21
17.23297909835411
  0
LINE
  8
0
 10
23.87523972184001
 20
17.23297909835411
 11
22.958077565123872
 21
16.97096963677573
  0
LINE
  8
0
 10
22.958077565123872
 20
16.97096963677573
 11
22.29943647675592
 21
16.71288003215964
  0
LINE
  8
0
 10
22.29943647675592
 20
16.71288003215964
 11
21.888187234060457
 21
16.50467117943485
  0
LINE
  8
0
 10
21.888187234060457
 20
16.50467117943485
 11
21.720453785906535
 21
16.39860620895076
  0
LINE
  8
0
 10
21.720453785906535
 20
16.39860620895076
 11
21.627627585475185
 21
16.31138782988076
  0
LINE
  8
0
 10
21.627627585475185
 20
16.31138782988076
 11
20.98405041513537
 21
15.830115861769906
  0
LINE
  8
0
 10
20.98405041513537
 20
15.830115861769906
 11
20.46382375404445
 21
15.60398576379922
  0
LINE
  8
0
 10
20.46382375404445
 20
15.60398576379922
 11
20.108119831596817
 21
15.60345178943539
  0
LINE
  8
0
 10
20.108119831596817
 20
15.60345178943539
 11
18.306314970352236
 21
17.68284544730717
  0
LINE
  8
0
 10
18.306314970352236
 20
17.68284544730717
 11
18.35746545582218
 21
18.034852824232665
  0
LINE
  8
0
 10
18.35746545582218
 20
18.034852824232665
 11
18.65532984858776
 21
18.51760265969633
  0
LINE
  8
0
 10
18.65532984858776
 20
18.51760265969633
 11
19.22329374291341
 21
19.08613700009657
  0
LINE
  8
0
 10
19.22329374291341
 20
19.08613700009657
 11
19.322834910344817
 21
19.165605894139993
  0
LINE
  8
0
 10
19.322834910344817
 20
19.165605894139993
 11
19.451691250909708
 21
19.316537438522495
  0
LINE
  8
0
 10
19.451691250909708
 20
19.316537438522495
 11
19.716307707190346
 21
19.693969547697176
  0
LINE
  8
0
 10
19.716307707190346
 20
19.693969547697176
 11
20.06550473173691
 21
20.3091766391264
  0
LINE
  8
0
 10
20.06550473173691
 20
20.3091766391264
 11
20.455373098786414
 21
21.17971557337544
  0
LINE
  8
0
 10
20.455373098786414
 20
21.17971557337544
 11
20.82663987056097
 21
22.27843597115194
  0
LINE
  8
0
 10
20.82663987056097
 20
22.27843597115194
 11
20.011069986082298
 21
23.09400585563061
  0
LINE
  8
0
 10
20.011069986082298
 20
23.09400585563061
 11
19.08773373086281
 21
23.785206718429812
  0
LINE
  8
0
 10
19.08773373086281
 20
23.785206718429812
 11
18.053033493093018
 21
23.261354691352313
  0
LINE
  8
0
 10
18.053033493093018
 20
23.261354691352313
 11
17.24683944358589
 21
22.751564014497504
  0
LINE
  8
0
 10
17.24683944358589
 20
22.751564014497504
 11
16.687590191365718
 21
22.318368214438692
  0
LINE
  8
0
 10
16.687590191365718
 20
22.318368214438692
 11
16.351658645030312
 21
22.002730982561232
  0
LINE
  8
0
 10
16.351658645030312
 20
22.002730982561232
 11
16.22060153541229
 21
21.853706415418884
  0
LINE
  8
0
 10
16.22060153541229
 20
21.853706415418884
 11
16.156107705270035
 21
21.74386883074177
  0
LINE
  8
0
 10
16.156107705270035
 20
21.74386883074177
 11
15.67418991446226
 21
21.10077511721718
  0
LINE
  8
0
 10
15.67418991446226
 20
21.10077511721718
 11
15.238744299138675
 21
20.737240089725315
  0
LINE
  8
0
 10
15.238744299138675
 20
20.737240089725315
 11
14.897599322825865
 21
20.63651436952544
  0
LINE
  8
0
 10
14.897599322825865
 20
20.63651436952544
 11
12.582947326725174
 21
22.124050883144207
  0
LINE
  8
0
 10
12.582947326725174
 20
22.124050883144207
 11
12.532853919802292
 21
22.47621024501982
  0
LINE
  8
0
 10
12.532853919802292
 20
22.47621024501982
 11
12.682646366290856
 21
23.023323417126626
  0
LINE
  8
0
 10
12.682646366290856
 20
23.023323417126626
 11
13.067429098789926
 21
23.72884204214119
  0
LINE
  8
0
 10
13.067429098789926
 20
23.72884204214119
 11
13.140549174817535
 21
23.833135875208203
  0
LINE
  8
0
 10
13.140549174817535
 20
23.833135875208203
 11
13.221663598288316
 21
24.01425665783257
  0
LINE
  8
0
 10
13.221663598288316
 20
24.01425665783257
 11
13.369226315640518
 21
24.45095118541244
  0
LINE
  8
0
 10
13.369226315640518
 20
24.45095118541244
 11
13.530954540244704
 21
25.139618237523518
  0
LINE
  8
0
 10
13.530954540244704
 20
25.139618237523518
 11
13.659771339287266
 21
26.084732840073773
  0
LINE
  8
0
 10
13.659771339287266
 20
26.084732840073773
 11
13.706453891222084
 21
27.24354527858956
  0
LINE
  8
0
 10
13.706453891222084
 20
27.24354527858956
 11
12.694147728736167
 21
27.796306263401387
  0
LINE
  8
0
 10
12.694147728736167
 20
27.796306263401387
 11
11.613479293202124
 21
28.199374750606122
  0
LINE
  8
0
 10
11.613479293202124
 20
28.199374750606122
 11
10.768277856259866
 21
27.40523366786023
  0
LINE
  8
0
 10
10.768277856259866
 20
27.40523366786023
 11
10.13836496123219
 21
26.68896198452587
  0
LINE
  8
0
 10
10.13836496123219
 20
26.68896198452587
 11
9.723814593591309
 21
26.11575493643049
  0
LINE
  8
0
 10
9.723814593591309
 20
26.11575493643049
 11
9.490415919638226
 21
25.718260376760163
  0
LINE
  8
0
 10
9.490415919638226
 20
25.718260376760163
 11
9.406652616150705
 21
25.538349297106205
  0
LINE
  8
0
 10
9.406652616150705
 20
25.538349297106205
 11
9.375716062856094
 21
25.41479089470326
  0
LINE
  8
0
 10
9.375716062856094
 20
25.41479089470326
 11
9.09449976491615
 21
24.661975063809106
  0
LINE
  8
0
 10
9.09449976491615
 20
24.661975063809106
 11
8.779112409418628
 21
24.19048655269741
  0
LINE
  8
0
 10
8.779112409418628
 20
24.19048655269741
 11
8.48016391635421
 21
23.99772928547315
  0
LINE
  8
0
 10
8.48016391635421
 20
23.99772928547315
 11
5.840184124356023
 21
24.772897293225796
  0
LINE
  8
0
 10
5.840184124356023
 20
24.772897293225796
 11
5.692905094952245
 21
25.096678782924734
  0
LINE
  8
0
 10
5.692905094952245
 20
25.096678782924734
 11
5.6824903019992705
 21
25.66383143627791
  0
LINE
  8
0
 10
5.6824903019992705
 20
25.66383143627791
 11
5.852919064075714
 21
26.44917742278894
  0
LINE
  8
0
 10
5.852919064075714
 20
26.44917742278894
 11
5.893694295001599
 21
26.569846928783754
  0
LINE
  8
0
 10
5.893694295001599
 20
26.569846928783754
 11
5.920495393194719
 21
26.76648362100854
  0
LINE
  8
0
 10
5.920495393194719
 20
26.76648362100854
 11
5.939049717847884
 21
27.227062173491433
  0
LINE
  8
0
 10
5.939049717847884
 20
27.227062173491433
 11
5.900206883587043
 21
27.933397477382982
  0
LINE
  8
0
 10
5.900206883587043
 20
27.933397477382982
 11
5.757536143667236
 21
28.8765201839488
  0
LINE
  8
0
 10
5.757536143667236
 20
28.8765201839488
 11
5.475852533036385
 21
30.00154457115826
  0
LINE
  8
0
 10
5.475852533036385
 20
30.00154457115826
 11
4.348821117411248
 21
30.246715248709947
  0
LINE
  8
0
 10
4.348821117411248
 20
30.246715248709947
 11
3.198369831226965
 21
30.32899714862748
  0
LINE
  8
0
 10
3.198369831226965
 20
30.32899714862748
 11
2.611140388926815
 21
29.328903597798394
  0
LINE
  8
0
 10
2.611140388926815
 20
29.328903597798394
 11
2.2085404448974963
 21
28.464178979936516
  0
LINE
  8
0
 10
2.2085404448974963
 20
28.464178979936516
 11
1.9722733671962058
 21
27.797398509847667
  0
LINE
  8
0
 10
1.9722733671962058
 20
27.797398509847667
 11
1.860316138113761
 21
27.350249267617798
  0
LINE
  8
0
 10
1.860316138113761
 20
27.350249267617798
 11
1.830632645445758
 21
27.154027001153406
  0
LINE
  8
0
 10
1.830632645445758
 20
27.154027001153406
 11
1.8357596645599543
 21
27.026757747957195
  0
LINE
  8
0
 10
1.8357596645599543
 20
27.026757747957195
 11
1.7780273314892112
 21
26.225208461144394
  0
LINE
  8
0
 10
1.7780273314892112
 20
26.225208461144394
 11
1.6082490436793389
 21
25.68396366153299
  0
LINE
  8
0
 10
1.6082490436793389
 20
25.68396366153299
 11
1.3757160628562446
 21
25.414790894703245
  0
LINE
  8
0
 10
1.3757160628562446
 20
25.414790894703245
 11
-1.3757160628561087
 21
25.4147908947033
  0
LINE
  8
0
 10
-1.3757160628561087
 20
25.4147908947033
 11
-1.6082490436806054
 21
25.683963661532815
  0
LINE
  8
0
 10
-1.6082490436806054
 20
25.683963661532815
 11
-1.7780273314892256
 21
26.22520846114439
  0
LINE
  8
0
 10
-1.7780273314892256
 20
26.22520846114439
 11
-1.8357596645599699
 21
27.026757747957188
  0
LINE
  8
0
 10
-1.8357596645599699
 20
27.026757747957188
 11
-1.8306326454457855
 21
27.154027001153295
  0
LINE
  8
0
 10
-1.8306326454457855
 20
27.154027001153295
 11
-1.8603161381136641
 21
27.350249267617876
  0
LINE
  8
0
 10
-1.8603161381136641
 20
27.350249267617876
 11
-1.9722733671961217
 21
27.797398509847753
  0
LINE
  8
0
 10
-1.9722733671961217
 20
27.797398509847753
 11
-2.2085404448974053
 21
28.46417897993628
  0
LINE
  8
0
 10
-2.2085404448974053
 20
28.46417897993628
 11
-2.611140388926839
 21
29.3289035977984
  0
LINE
  8
0
 10
-2.611140388926839
 20
29.3289035977984
 11
-3.1983698312269855
 21
30.328997148627476
  0
LINE
  8
0
 10
-3.1983698312269855
 20
30.328997148627476
 11
-4.348821117411262
 21
30.246715248709947
  0
LINE
  8
0
 10
-4.348821117411262
 20
30.246715248709947
 11
-5.47585253303638
 21
30.00154457115826
  0
LINE
  8
0
 10
-5.47585253303638
 20
30.00154457115826
 11
-5.757536143667232
 21
28.876520183948795
  0
LINE
  8
0
 10
-5.757536143667232
 20
28.876520183948795
 11
-5.900206883586998
 21
27.93339747738324
  0
LINE
  8
0
 10
-5.900206883586998
 20
27.93339747738324
 11
-5.939049717847755
 21
27.227062173491383
  0
LINE
  8
0
 10
-5.939049717847755
 20
27.227062173491383
 11
-5.9204953931945825
 21
26.766483621008497
  0
LINE
  8
0
 10
-5.9204953931945825
 20
26.766483621008497
 11
-5.893694295001634
 21
26.569846928783864
  0
LINE
  8
0
 10
-5.893694295001634
 20
26.569846928783864
 11
-5.8529190640757065
 21
26.44917742278895
  0
LINE
  8
0
 10
-5.8529190640757065
 20
26.44917742278895
 11
-5.682490301999263
 21
25.663831436277913
  0
LINE
  8
0
 10
-5.682490301999263
 20
25.663831436277913
 11
-5.692905094953488
 21
25.09667878292455
  0
LINE
  8
0
 10
-5.692905094953488
 20
25.09667878292455
 11
-5.840184124355854
 21
24.772897293225785
  0
LINE
  8
0
 10
-5.840184124355854
 20
24.772897293225785
 11
-8.480163916354075
 21
23.997729285473252
  0
LINE
  8
0
 10
-8.480163916354075
 20
23.997729285473252
 11
-8.779112409419776
 21
24.1904865526969
  0
LINE
  8
0
 10
-8.779112409419776
 20
24.1904865526969
 11
-9.094499764916142
 21
24.66197506380911
  0
LINE
  8
0
 10
-9.094499764916142
 20
24.66197506380911
 11
-9.375716062856085
 21
25.414790894703255
  0
LINE
  8
0
 10
-9.375716062856085
 20
25.414790894703255
 11
-9.406652616150678
 21
25.5383492971061
  0
LINE
  8
0
 10
-9.406652616150678
 20
25.5383492971061
 11
-9.490415919638131
 21
25.718260376760274
  0
LINE
  8
0
 10
-9.490415919638131
 20
25.718260376760274
 11
-9.72381459359123
 21
26.115754936430605
  0
LINE
  8
0
 10
-9.72381459359123
 20
26.115754936430605
 11
-10.138364961232012
 21
26.688961984525683
  0
LINE
  8
0
 10
-10.138364961232012
 20
26.688961984525683
 11
-10.768277856259866
 21
27.40523366786024
  0
LINE
  8
0
 10
-10.768277856259866
 20
27.40523366786024
 11
-11.613479293202117
 21
28.199374750606122
  0
LINE
  8
0
 10
-11.613479293202117
 20
28.199374750606122
 11
-12.694147728736167
 21
27.796306263401387
  0
LINE
  8
0
 10
-12.694147728736167
 20
27.796306263401387
 11
-13.706453891222084
 21
27.24354527858956
  0
LINE
  8
0
 10
-13.706453891222084
 20
27.24354527858956
 11
-13.659771339287266
 21
26.084732840073766
  0
LINE
  8
0
 10
-13.659771339287266
 20
26.084732840073766
 11
-13.530954540244739
 21
25.139618237523777
  0
LINE
  8
0
 10
-13.530954540244739
 20
25.139618237523777
 11
-13.369226315640388
 21
24.45095118541243
  0
LINE
  8
0
 10
-13.369226315640388
 20
24.45095118541243
 11
-13.22166359828818
 21
24.014256657832565
  0
LINE
  8
0
 10
-13.22166359828818
 20
24.014256657832565
 11
-13.140549174817602
 21
23.83313587520829
  0
LINE
  8
0
 10
-13.140549174817602
 20
23.83313587520829
 11
-13.067429098789928
 21
23.728842042141196
  0
LINE
  8
0
 10
-13.067429098789928
 20
23.728842042141196
 11
-12.682646366290856
 21
23.02332341712663
  0
LINE
  8
0
 10
-12.682646366290856
 20
23.02332341712663
 11
-12.532853919803436
 21
22.47621024501929
  0
LINE
  8
0
 10
-12.532853919803436
 20
22.47621024501929
 11
-12.582947326725014
 21
22.12405088314424
  0
LINE
  8
0
 10
-12.582947326725014
 20
22.12405088314424
 11
-14.89759932282577
 21
20.63651436952557
  0
LINE
  8
0
 10
-14.89759932282577
 20
20.63651436952557
 11
-15.238744299139634
 21
20.737240089724498
  0
LINE
  8
0
 10
-15.238744299139634
 20
20.737240089724498
 11
-15.674189914462259
 21
21.100775117217175
  0
LINE
  8
0
 10
-15.674189914462259
 20
21.100775117217175
 11
-16.156107705270028
 21
21.743868830741768
  0
LINE
  8
0
 10
-16.156107705270028
 20
21.743868830741768
 11
-16.220601535412236
 21
21.853706415418788
  0
LINE
  8
0
 10
-16.220601535412236
 20
21.853706415418788
 11
-16.35165864503026
 21
22.002730982561356
  0
LINE
  8
0
 10
-16.35165864503026
 20
22.002730982561356
 11
-16.687590191365672
 21
22.31836821443882
  0
LINE
  8
0
 10
-16.687590191365672
 20
22.31836821443882
 11
-17.246839443585667
 21
22.751564014497365
  0
LINE
  8
0
 10
-17.246839443585667
 20
22.751564014497365
 11
-18.05303349309302
 21
23.26135469135232
  0
LINE
  8
0
 10
-18.05303349309302
 20
23.26135469135232
 11
-19.087733730862805
 21
23.785206718429812
  0
LINE
  8
0
 10
-19.087733730862805
 20
23.785206718429812
 11
-20.011069986082312
 21
23.094005855630606
  0
LINE
  8
0
 10
-20.011069986082312
 20
23.094005855630606
 11
-20.82663987056098
 21
22.278435971151932
  0
LINE
  8
0
 10
-20.82663987056098
 20
22.278435971151932
 11
-20.455373098786417
 21
21.17971557337543
  0
LINE
  8
0
 10
-20.455373098786417
 20
21.17971557337543
 11
-20.065504731737022
 21
20.309176639126633
  0
LINE
  8
0
 10
-20.065504731737022
 20
20.309176639126633
 11
-19.71630770719022
 21
19.693969547697193
  0
LINE
  8
0
 10
-19.71630770719022
 20
19.693969547697193
 11
-19.45169125090958
 21
19.316537438522523
  0
LINE
  8
0
 10
-19.45169125090958
 20
19.316537438522523
 11
-19.322834910344913
 21
19.165605894140054
  0
LINE
  8
0
 10
-19.322834910344913
 20
19.165605894140054
 11
-19.223293742913416
 21
19.08613700009657
  0
LINE
  8
0
 10
-19.223293742913416
 20
19.08613700009657
 11
-18.655329848587765
 21
18.51760265969633
  0
LINE
  8
0
 10
-18.655329848587765
 20
18.51760265969633
 11
-18.357465455823135
 21
18.03485282423183
  0
LINE
  8
0
 10
-18.357465455823135
 20
18.03485282423183
 11
-18.306314970352094
 21
17.68284544730724
  0
LINE
  8
0
 10
-18.306314970352094
 20
17.68284544730724
 11
-20.108119831596767
 21
15.603451789435535
  0
LINE
  8
0
 10
-20.108119831596767
 20
15.603451789435535
 11
-20.463823754045144
 21
15.603985763798152
  0
LINE
  8
0
 10
-20.463823754045144
 20
15.603985763798152
 11
-20.984050415135375
 21
15.8301158617699
  0
LINE
  8
0
 10
-20.984050415135375
 20
15.8301158617699
 11
-21.627627585475185
 21
16.31138782988075
  0
LINE
  8
0
 10
-21.627627585475185
 20
16.31138782988075
 11
-21.720453785906464
 21
16.398606208950678
  0
LINE
  8
0
 10
-21.720453785906464
 20
16.398606208950678
 11
-21.888187234060446
 21
16.504671179434983
  0
LINE
  8
0
 10
-21.888187234060446
 20
16.504671179434983
 11
-22.299436476755922
 21
16.712880032159767
  0
LINE
  8
0
 10
-22.299436476755922
 20
16.712880032159767
 11
-22.958077565123627
 21
16.970969636775653
  0
LINE
  8
0
 10
-22.958077565123627
 20
16.970969636775653
 11
-23.87523972184002
 21
17.232979098354107
  0
LINE
  8
0
 10
-23.87523972184002
 20
17.232979098354107
 11
-25.01561350077249
 21
17.444102693997355
  0
LINE
  8
0
 10
-25.01561350077249
 20
17.444102693997355
 11
-25.70681436357168
 21
16.520766438777876
  0
LINE
  8
0
 10
-25.70681436357168
 20
16.520766438777876
 11
-26.25957534838351
 21
15.508460276291956
  0
LINE
  8
0
 10
-26.25957534838351
 20
15.508460276291956
 11
-25.593802182609874
 21
14.558843711540783
  0
LINE
  8
0
 10
-25.593802182609874
 20
14.558843711540783
 11
-24.974467064015496
 21
13.83340633275163
  0
LINE
  8
0
 10
-24.974467064015496
 20
13.83340633275163
 11
-24.466091105700354
 21
13.341499621774263
  0
LINE
  8
0
 10
-24.466091105700354
 20
13.341499621774263
 11
-24.105858562044475
 21
13.05390723581493
  0
LINE
  8
0
 10
-24.105858562044475
 20
13.05390723581493
 11
-23.939699478760105
 21
12.945392505775677
  0
LINE
  8
0
 10
-23.939699478760105
 20
12.945392505775677
 11
-23.821801453315967
 21
12.8971866479315
  0
LINE
  8
0
 10
-23.821801453315967
 20
12.8971866479315
 11
-23.116669454070664
 21
12.511695863200897
  0
LINE
  8
0
 10
-23.116669454070664
 20
12.511695863200897
 11
-22.69486431666286
 21
12.132418885024752
  0
LINE
  8
0
 10
-22.69486431666286
 20
12.132418885024752
 11
-22.546613846928416
 21
11.809081037260576
  0
LINE
  8
0
 10
-22.546613846928416
 20
11.809081037260576
 11
-23.689600059205077
 21
9.30629034266635
  0
LINE
  8
0
 10
-23.689600059205077
 20
9.30629034266635
 11
-24.03104591144388
 21
9.206589311765462
  0
LINE
  8
0
 10
-24.03104591144388
 20
9.206589311765462
 11
-24.593907948127267
 21
9.276994764526082
  0
LINE
  8
0
 10
-24.593907948127267
 20
9.276994764526082
 11
-25.347005703158995
 21
9.557455194601458
  0
LINE
  8
0
 10
-25.347005703158995
 20
9.557455194601458
 11
-25.46064404717907
 21
9.614988453699716
  0
LINE
  8
0
 10
-25.46064404717907
 20
9.614988453699716
 11
-25.651465067448804
 21
9.669501074409787
  0
LINE
  8
0
 10
-25.651465067448804
 20
9.669501074409787
 11
-26.104715038654568
 21
9.753413704999856
  0
LINE
  8
0
 10
-26.104715038654568
 20
9.753413704999856
 11
-26.809388779279814
 21
9.815488229325087
  0
LINE
  8
0
 10
-26.809388779279814
 20
9.815488229325087
 11
-27.763216019841458
 21
9.808490027280222
  0
LINE
  8
0
 10
-27.763216019841458
 20
9.808490027280222
 11
-28.9168770384315
 21
9.689781213370582
  0
LINE
  8
0
 10
-28.9168770384315
 20
9.689781213370582
 11
-29.319945525636243
 21
8.609112777836526
  0
LINE
  8
0
 10
-29.319945525636243
 20
8.609112777836526
 11
-29.565116203187927
 21
7.4820813622114075
  0
LINE
  8
0
 10
-29.565116203187927
 20
7.4820813622114075
 11
-28.65877362580072
 21
6.758500916974541
  0
LINE
  8
0
 10
-28.65877362580072
 20
6.758500916974541
 11
-27.8601466036421
 21
6.236935715732315
  0
LINE
  8
0
 10
-27.8601466036421
 20
6.236935715732315
 11
-27.233777308273073
 21
5.90818074144855
  0
LINE
  8
0
 10
-27.233777308273073
 20
5.90818074144855
 11
-26.80711257554353
 21
5.733727103437205
  0
LINE
  8
0
 10
-26.80711257554353
 20
5.733727103437205
 11
-26.617111970281034
 21
5.6764204058070025
  0
LINE
  8
0
 10
-26.617111970281034
 20
5.6764204058070025
 11
-26.490408483679186
 21
5.663382936073386
  0
LINE
  8
0
 10
-26.490408483679186
 20
5.663382936073386
 11
-25.70523398051161
 21
5.492165877789322
  0
LINE
  8
0
 10
-25.70523398051161
 20
5.492165877789322
 11
-25.19366024212167
 21
5.247088522026323
  0
LINE
  8
0
 10
-25.19366024212167
 20
5.247088522026323
 11
-24.960320159502217
 21
4.97861511288419
  0
LINE
  8
0
 10
-24.960320159502217
 20
4.97861511288419
 11
-25.35188977749295
 21
2.2551885989740774
  0
LINE
  8
0
 10
-25.35188977749295
 20
2.2551885989740774
 11
-25.65141564723046
 21
2.063329747388417
  0
LINE
  8
0
 10
-25.65141564723046
 20
2.063329747388417
 11
-26.211313324764347
 21
1.972306723872591
  0
LINE
  8
0
 10
-26.211313324764347
 20
1.972306723872591
 11
-27.012920163220123
 21
2.0292343798301866
  0
LINE
  8
0
 10
-27.012920163220123
 20
2.0292343798301866
 11
-27.138164348029747
 21
2.052421516468106
  0
LINE
  8
0
 10
-27.138164348029747
 20
2.052421516468106
 11
-27.336613756209278
 21
2.0509654990730493
  0
LINE
  8
0
 10
-27.336613756209278
 20
2.0509654990730493
 11
-27.795144838839615
 21
2.0037838052456243
  0
LINE
  8
0
 10
-27.795144838839615
 20
2.0037838052456243
 11
-28.488762756113047
 21
1.8648143404907795
  0
LINE
  8
0
 10
-28.488762756113047
 20
1.8648143404907795
 11
-29.401981670118655
 21
1.5893754275323593
  0
LINE
  8
0
 10
-29.401981670118655
 20
1.5893754275323593
 11
-30.47546717372637
 21
1.1504512861842873
  0
LINE
  8
0
 10
-30.47546717372637
 20
1.1504512861842873
 11
-30.557749073643905
 21
-2.3187342756507715e-14
  0
LINE
  8
0
 10
-30.557749073643905
 20
-2.3187342756507715e-14
 11
-30.475467173726372
 21
-1.150451286184305
  0
LINE
  8
0
 10
-30.475467173726372
 20
-1.150451286184305
 11
-29.401981670118648
 21
-1.5893754275323797
  0
LINE
  8
0
 10
-29.401981670118648
 20
-1.5893754275323797
 11
-28.488762756113296
 21
-1.86481434049072
  0
LINE
  8
0
 10
-28.488762756113296
 20
-1.86481434049072
 11
-27.795144838839548
 21
-2.0037838052455266
  0
LINE
  8
0
 10
-27.795144838839548
 20
-2.0037838052455266
 11
-27.336613756209218
 21
-2.050965499072941
  0
LINE
  8
0
 10
-27.336613756209218
 20
-2.050965499072941
 11
-27.138164348029854
 21
-2.052421516468147
  0
LINE
  8
0
 10
-27.138164348029854
 20
-2.052421516468147
 11
-27.012920163220127
 21
-2.0292343798302017
  0
LINE
  8
0
 10
-27.012920163220127
 20
-2.0292343798302017
 11
-26.21131332476435
 21
-1.972306723872603
  0
LINE
  8
0
 10
-26.21131332476435
 20
-1.972306723872603
 11
-25.65141564723045
 21
-2.0633297473896937
  0
LINE
  8
0
 10
-25.65141564723045
 20
-2.0633297473896937
 11
-25.351889777492914
 21
-2.2551885989739318
  0
LINE
  8
0
 10
-25.351889777492914
 20
-2.2551885989739318
 11
-24.960320159502295
 21
-4.978615112884062
  0
LINE
  8
0
 10
-24.960320159502295
 20
-4.978615112884062
 11
-25.19366024212132
 21
-5.247088522027552
  0
LINE
  8
0
 10
-25.19366024212132
 20
-5.247088522027552
 11
-25.705233980511608
 21
-5.4921658777893345
  0
LINE
  8
0
 10
-25.705233980511608
 20
-5.4921658777893345
 11
-26.49040848367918
 21
-5.663382936073399
  0
LINE
  8
0
 10
-26.49040848367918
 20
-5.663382936073399
 11
-26.61711197028092
 21
-5.676420405807011
  0
LINE
  8
0
 10
-26.61711197028092
 20
-5.676420405807011
 11
-26.80711257554362
 21
-5.733727103437118
  0
LINE
  8
0
 10
-26.80711257554362
 20
-5.733727103437118
 11
-27.23377730827317
 21
-5.908180741448476
  0
LINE
  8
0
 10
-27.23377730827317
 20
-5.908180741448476
 11
-27.86014660364188
 21
-6.236935715732189
  0
LINE
  8
0
 10
-27.86014660364188
 20
-6.236935715732189
 11
-28.65877362580072
 21
-6.758500916974563
  0
LINE
  8
0
 10
-28.65877362580072
 20
-6.758500916974563
 11
-29.56511620318792
 21
-7.482081362211426
  0
LINE
  8
0
 10
-29.56511620318792
 20
-7.482081362211426
 11
-29.319945525636243
 21
-8.609112777836529
  0
LINE
  8
0
 10
-29.319945525636243
 20
-8.609112777836529
 11
-28.916877038431508
 21
-9.689781213370573
  0
LINE
  8
0
 10
-28.916877038431508
 20
-9.689781213370573
 11
-27.763216019841455
 21
-9.808490027280213
  0
LINE
  8
0
 10
-27.763216019841455
 20
-9.808490027280213
 11
-26.80938877928008
 21
-9.815488229325076
  0
LINE
  8
0
 10
-26.80938877928008
 20
-9.815488229325076
 11
-26.10471503865454
 21
-9.753413704999721
  0
LINE
  8
0
 10
-26.10471503865454
 20
-9.753413704999721
 11
-25.651465067448783
 21
-9.669501074409643
  0
LINE
  8
0
 10
-25.651465067448783
 20
-9.669501074409643
 11
-25.460644047179173
 21
-9.614988453699764
  0
LINE
  8
0
 10
-25.460644047179173
 20
-9.614988453699764
 11
-25.347005703159006
 21
-9.55745519460145
  0
LINE
  8
0
 10
-25.347005703159006
 20
-9.55745519460145
 11
-24.593907948127274
 21
-9.276994764526071
  0
LINE
  8
0
 10
-24.593907948127274
 20
-9.276994764526071
 11
-24.03104591144352
 21
-9.206589311766663
  0
LINE
  8
0
 10
-24.03104591144352
 20
-9.206589311766663
 11
-23.68960005920509
 21
-9.306290342666179
  0
LINE
  8
0
 10
-23.68960005920509
 20
-9.306290342666179
 11
-22.54661384692854
 21
-11.809081037260453
  0
LINE
  8
0
 10
-22.54661384692854
 20
-11.809081037260453
 11
-22.69486431666219
 21
-12.13241888502581
  0
LINE
  8
0
 10
-22.69486431666219
 20
-12.13241888502581
 11
-23.11666945407067
 21
-12.511695863200886
  0
LINE
  8
0
 10
-23.11666945407067
 20
-12.511695863200886
 11
-23.82180145331597
 21
-12.897186647931488
  0
LINE
  8
0
 10
-23.82180145331597
 20
-12.897186647931488
 11
-23.93969947876001
 21
-12.945392505775635
  0
LINE
  8
0
 10
-23.93969947876001
 20
-12.945392505775635
 11
-24.105858562044602
 21
-13.053907235814851
  0
LINE
  8
0
 10
-24.105858562044602
 20
-13.053907235814851
 11
-24.46609110570048
 21
-13.341499621774197
  0
LINE
  8
0
 10
-24.46609110570048
 20
-13.341499621774197
 11
-24.974467064015336
 21
-13.833406332751425
  0
LINE
  8
0
 10
-24.974467064015336
 20
-13.833406332751425
 11
-25.593802182609885
 21
-14.558843711540781
  0
LINE
  8
0
 10
-25.593802182609885
 20
-14.558843711540781
 11
-26.259575348383517
 21
-15.508460276291949
  0
LINE
  8
0
 10
-26.259575348383517
 20
-15.508460276291949
 11
-25.706814363571688
 21
-16.52076643877787
  0
LINE
  8
0
 10
-25.706814363571688
 20
-16.52076643877787
 11
-25.01561350077249
 21
-17.44410269399736
  0
LINE
  8
0
 10
-25.01561350077249
 20
-17.44410269399736
 11
-23.875239721840014
 21
-17.232979098354104
  0
LINE
  8
0
 10
-23.875239721840014
 20
-17.232979098354104
 11
-22.95807756512388
 21
-16.970969636775724
  0
LINE
  8
0
 10
-22.95807756512388
 20
-16.970969636775724
 11
-22.299436476755925
 21
-16.712880032159635
  0
LINE
  8
0
 10
-22.299436476755925
 20
-16.712880032159635
 11
-21.88818723406046
 21
-16.504671179434844
  0
LINE
  8
0
 10
-21.88818723406046
 20
-16.504671179434844
 11
-21.720453785906543
 21
-16.398606208950756
  0
LINE
  8
0
 10
-21.720453785906543
 20
-16.398606208950756
 11
-21.627627585475192
 21
-16.31138782988075
  0
LINE
  8
0
 10
-21.627627585475192
 20
-16.31138782988075
 11
-20.98405041513538
 21
-15.830115861769897
  0
LINE
  8
0
 10
-20.98405041513538
 20
-15.830115861769897
 11
-20.463823754044455
 21
-15.60398576379921
  0
LINE
  8
0
 10
-20.463823754044455
 20
-15.60398576379921
 11
-20.108119831596824
 21
-15.603451789435383
  0
LINE
  8
0
 10
-20.108119831596824
 20
-15.603451789435383
 11
-18.30631497035224
 21
-17.682845447307162
  0
LINE
  8
0
 10
-18.30631497035224
 20
-17.682845447307162
 11
-18.357465455822187
 21
-18.03485282423266
  0
LINE
  8
0
 10
-18.357465455822187
 20
-18.03485282423266
 11
-18.655329848587765
 21
-18.517602659696326
  0
LINE
  8
0
 10
-18.655329848587765
 20
-18.517602659696326
 11
-19.223293742913413
 21
-19.086137000096564
  0
LINE
  8
0
 10
-19.223293742913413
 20
-19.086137000096564
 11
-19.322834910344824
 21
-19.165605894139986
  0
LINE
  8
0
 10
-19.322834910344824
 20
-19.165605894139986
 11
-19.45169125090971
 21
-19.316537438522488
  0
LINE
  8
0
 10
-19.45169125090971
 20
-19.316537438522488
 11
-19.71630770719035
 21
-19.693969547697172
  0
LINE
  8
0
 10
-19.71630770719035
 20
-19.693969547697172
 11
-20.06550473173692
 21
-20.30917663912639
  0
LINE
  8
0
 10
-20.06550473173692
 20
-20.30917663912639
 11
-20.45537309878642
 21
-21.179715573375432
  0
LINE
  8
0
 10
-20.45537309878642
 20
-21.179715573375432
 11
-20.826639870560978
 21
-22.278435971151932
  0
LINE
  8
0
 10
-20.826639870560978
 20
-22.278435971151932
 11
-20.01106998608232
 21
-23.0940058556306
  0
LINE
  8
0
 10
-20.01106998608232
 20
-23.0940058556306
 11
-19.08773373086283
 21
-23.785206718429794
  0
LINE
  8
0
 10
-19.08773373086283
 20
-23.785206718429794
 11
-18.053033493093036
 21
-23.2613546913523
  0
LINE
  8
0
 10
-18.053033493093036
 20
-23.2613546913523
 11
-17.24683944358591
 21
-22.751564014497486
  0
LINE
  8
0
 10
-17.24683944358591
 20
-22.751564014497486
 11
-16.687590191365736
 21
-22.31836821443868
  0
LINE
  8
0
 10
-16.687590191365736
 20
-22.31836821443868
 11
-16.351658645030334
 21
-22.002730982561214
  0
LINE
  8
0
 10
-16.351658645030334
 20
-22.002730982561214
 11
-16.220601535412307
 21
-21.85370641541887
  0
LINE
  8
0
 10
-16.220601535412307
 20
-21.85370641541887
 11
-16.156107705270053
 21
-21.743868830741757
  0
LINE
  8
0
 10
-16.156107705270053
 20
-21.743868830741757
 11
-15.674189914462278
 21
-21.100775117217164
  0
LINE
  8
0
 10
-15.674189914462278
 20
-21.100775117217164
 11
-15.238744299138691
 21
-20.737240089725304
  0
LINE
  8
0
 10
-15.238744299138691
 20
-20.737240089725304
 11
-14.897599322825881
 21
-20.636514369525425
  0
LINE
  8
0
 10
-14.897599322825881
 20
-20.636514369525425
 11
-12.58294732672519
 21
-22.124050883144196
  0
LINE
  8
0
 10
-12.58294732672519
 20
-22.124050883144196
 11
-12.53285391980231
 21
-22.476210245019807
  0
LINE
  8
0
 10
-12.53285391980231
 20
-22.476210245019807
 11
-12.682646366290873
 21
-23.023323417126615
  0
LINE
  8
0
 10
-12.682646366290873
 20
-23.023323417126615
 11
-13.067429098789944
 21
-23.72884204214118
  0
LINE
  8
0
 10
-13.067429098789944
 20
-23.72884204214118
 11
-13.140549174817554
 21
-23.83313587520819
  0
LINE
  8
0
 10
-13.140549174817554
 20
-23.83313587520819
 11
-13.221663598288334
 21
-24.01425665783256
  0
LINE
  8
0
 10
-13.221663598288334
 20
-24.01425665783256
 11
-13.369226315640539
 21
-24.450951185412432
  0
LINE
  8
0
 10
-13.369226315640539
 20
-24.450951185412432
 11
-13.530954540244723
 21
-25.139618237523507
  0
LINE
  8
0
 10
-13.530954540244723
 20
-25.139618237523507
 11
-13.659771339287285
 21
-26.084732840073762
  0
LINE
  8
0
 10
-13.659771339287285
 20
-26.084732840073762
 11
-13.706453891222106
 21
-27.243545278589547
  0
LINE
  8
0
 10
-13.706453891222106
 20
-27.243545278589547
 11
-12.694147728736164
 21
-27.796306263401387
  0
LINE
  8
0
 10
-12.694147728736164
 20
-27.796306263401387
 11
-11.61347929320212
 21
-28.199374750606122
  0
LINE
  8
0
 10
-11.61347929320212
 20
-28.199374750606122
 11
-10.768277856259862
 21
-27.40523366786023
  0
LINE
  8
0
 10
-10.768277856259862
 20
-27.40523366786023
 11
-10.138364961232186
 21
-26.688961984525875
  0
LINE
  8
0
 10
-10.138364961232186
 20
-26.688961984525875
 11
-9.723814593591307
 21
-26.11575493643049
  0
LINE
  8
0
 10
-9.723814593591307
 20
-26.11575493643049
 11
-9.490415919638222
 21
-25.718260376760163
  0
LINE
  8
0
 10
-9.490415919638222
 20
-25.718260376760163
 11
-9.406652616150703
 21
-25.538349297106205
  0
LINE
  8
0
 10
-9.406652616150703
 20
-25.538349297106205
 11
-9.37571606285609
 21
-25.41479089470326
  0
LINE
  8
0
 10
-9.37571606285609
 20
-25.41479089470326
 11
-9.094499764916147
 21
-24.661975063809106
  0
LINE
  8
0
 10
-9.094499764916147
 20
-24.661975063809106
 11
-8.779112409418627
 21
-24.19048655269741
  0
LINE
  8
0
 10
-8.779112409418627
 20
-24.19048655269741
 11
-8.480163916354208
 21
-23.99772928547315
  0
LINE
  8
0
 10
-8.480163916354208
 20
-23.99772928547315
 11
-5.84018412435602
 21
-24.772897293225796
  0
LINE
  8
0
 10
-5.84018412435602
 20
-24.772897293225796
 11
-5.692905094952241
 21
-25.096678782924734
  0
LINE
  8
0
 10
-5.692905094952241
 20
-25.096678782924734
 11
-5.682490301999268
 21
-25.66383143627791
  0
LINE
  8
0
 10
-5.682490301999268
 20
-25.66383143627791
 11
-5.85291906407571
 21
-26.44917742278894
  0
LINE
  8
0
 10
-5.85291906407571
 20
-26.44917742278894
 11
-5.8936942950015965
 21
-26.569846928783754
  0
LINE
  8
0
 10
-5.8936942950015965
 20
-26.569846928783754
 11
-5.920495393194717
 21
-26.76648362100854
  0
LINE
  8
0
 10
-5.920495393194717
 20
-26.76648362100854
 11
-5.9390497178478805
 21
-27.227062173491433
  0
LINE
  8
0
 10
-5.9390497178478805
 20
-27.227062173491433
 11
-5.90020688358704
 21
-27.933397477382982
  0
LINE
  8
0
 10
-5.90020688358704
 20
-27.933397477382982
 11
-5.757536143667233
 21
-28.8765201839488
  0
LINE
  8
0
 10
-5.757536143667233
 20
-28.8765201839488
 11
-5.475852533036382
 21
-30.00154457115826
  0
LINE
  8
0
 10
-5.475852533036382
 20
-30.00154457115826
 11
-4.348821117411238
 21
-30.246715248709947
  0
LINE
  8
0
 10
-4.348821117411238
 20
-30.246715248709947
 11
-3.1983698312269553
 21
-30.32899714862748
  0
LINE
  8
0
 10
-3.1983698312269553
 20
-30.32899714862748
 11
-2.6111403889268052
 21
-29.328903597798398
  0
LINE
  8
0
 10
-2.6111403889268052
 20
-29.328903597798398
 11
-2.208540444897487
 21
-28.464178979936516
  0
LINE
  8
0
 10
-2.208540444897487
 20
-28.464178979936516
 11
-1.972273367196197
 21
-27.79739850984767
  0
LINE
  8
0
 10
-1.972273367196197
 20
-27.79739850984767
 11
-1.860316138113752
 21
-27.3502492676178
  0
LINE
  8
0
 10
-1.860316138113752
 20
-27.3502492676178
 11
-1.830632645445749
 21
-27.15402700115341
  0
LINE
  8
0
 10
-1.830632645445749
 20
-27.15402700115341
 11
-1.8357596645599454
 21
-27.026757747957195
  0
LINE
  8
0
 10
-1.8357596645599454
 20
-27.026757747957195
 11
-1.7780273314892028
 21
-26.225208461144394
  0
LINE
  8
0
 10
-1.7780273314892028
 20
-26.225208461144394
 11
-1.6082490436793304
 21
-25.68396366153299
  0
LINE
  8
0
 10
-1.6082490436793304
 20
-25.68396366153299
 11
-1.3757160628562366
 21
-25.414790894703245
  0
LINE
  8
0
 10
-1.3757160628562366
 20
-25.414790894703245
 11
1.3757160628561171
 21
-25.4147908947033
  0
LINE
  8
0
 10
1.3757160628561171
 20
-25.4147908947033
 11
1.6082490436806138
 21
-25.683963661532815
  0
LINE
  8
0
 10
1.6082490436806138
 20
-25.683963661532815
 11
1.7780273314892345
 21
-26.22520846114439
  0
LINE
  8
0
 10
1.7780273314892345
 20
-26.22520846114439
 11
1.8357596645599787
 21
-27.026757747957188
  0
LINE
  8
0
 10
1.8357596645599787
 20
-27.026757747957188
 11
1.8306326454457948
 21
-27.154027001153295
  0
LINE
  8
0
 10
1.8306326454457948
 20
-27.154027001153295
 11
1.8603161381136735
 21
-27.350249267617876
  0
LINE
  8
0
 10
1.8603161381136735
 20
-27.350249267617876
 11
1.972273367196131
 21
-27.797398509847753
  0
LINE
  8
0
 10
1.972273367196131
 20
-27.797398509847753
 11
2.208540444897414
 21
-28.46417897993628
  0
LINE
  8
0
 10
2.208540444897414
 20
-28.46417897993628
 11
2.6111403889268487
 21
-29.3289035977984
  0
LINE
  8
0
 10
2.6111403889268487
 20
-29.3289035977984
 11
3.198369831226996
 21
-30.32899714862748
  0
LINE
  8
0
 10
3.198369831226996
 20
-30.32899714862748
 11
4.348821117411278
 21
-30.246715248709943
  0
LINE
  8
0
 10
4.348821117411278
 20
-30.246715248709943
 11
5.475852533036396
 21
-30.001544571158256
  0
LINE
  8
0
 10
5.475852533036396
 20
-30.001544571158256
 11
5.757536143667247
 21
-28.87652018394879
  0
LINE
  8
0
 10
5.757536143667247
 20
-28.87652018394879
 11
5.900206883587013
 21
-27.933397477383238
  0
LINE
  8
0
 10
5.900206883587013
 20
-27.933397477383238
 11
5.93904971784777
 21
-27.22706217349138
  0
LINE
  8
0
 10
5.93904971784777
 20
-27.22706217349138
 11
5.920495393194597
 21
-26.766483621008497
  0
LINE
  8
0
 10
5.920495393194597
 20
-26.766483621008497
 11
5.89369429500165
 21
-26.56984692878386
  0
LINE
  8
0
 10
5.89369429500165
 20
-26.56984692878386
 11
5.852919064075721
 21
-26.449177422788942
  0
LINE
  8
0
 10
5.852919064075721
 20
-26.449177422788942
 11
5.682490301999278
 21
-25.663831436277913
  0
LINE
  8
0
 10
5.682490301999278
 20
-25.663831436277913
 11
5.692905094953502
 21
-25.096678782924545
  0
LINE
  8
0
 10
5.692905094953502
 20
-25.096678782924545
 11
5.840184124355868
 21
-24.772897293225785
  0
LINE
  8
0
 10
5.840184124355868
 20
-24.772897293225785
 11
8.480163916354089
 21
-23.99772928547325
  0
LINE
  8
0
 10
8.480163916354089
 20
-23.99772928547325
 11
8.779112409419788
 21
-24.190486552696893
  0
LINE
  8
0
 10
8.779112409419788
 20
-24.190486552696893
 11
9.094499764916156
 21
-24.661975063809106
  0
LINE
  8
0
 10
9.094499764916156
 20
-24.661975063809106
 11
9.3757160628561
 21
-25.414790894703252
  0
LINE
  8
0
 10
9.3757160628561
 20
-25.414790894703252
 11
9.406652616150692
 21
-25.538349297106098
  0
LINE
  8
0
 10
9.406652616150692
 20
-25.538349297106098
 11
9.490415919638147
 21
-25.718260376760266
  0
LINE
  8
0
 10
9.490415919638147
 20
-25.718260376760266
 11
9.723814593591243
 21
-26.115754936430598
  0
LINE
  8
0
 10
9.723814593591243
 20
-26.115754936430598
 11
10.138364961232027
 21
-26.688961984525676
  0
LINE
  8
0
 10
10.138364961232027
 20
-26.688961984525676
 11
10.768277856259882
 21
-27.405233667860237
  0
LINE
  8
0
 10
10.768277856259882
 20
-27.405233667860237
 11
11.613479293202133
 21
-28.199374750606122
  0
LINE
  8
0
 10
11.613479293202133
 20
-28.199374750606122
 11
12.69414772873615
 21
-27.796306263401398
  0
LINE
  8
0
 10
12.69414772873615
 20
-27.796306263401398
 11
13.70645389122207
 21
-27.24354527858957
  0
LINE
  8
0
 10
13.70645389122207
 20
-27.24354527858957
 11
13.659771339287248
 21
-26.084732840073777
  0
LINE
  8
0
 10
13.659771339287248
 20
-26.084732840073777
 11
13.530954540244727
 21
-25.139618237523784
  0
LINE
  8
0
 10
13.530954540244727
 20
-25.139618237523784
 11
13.369226315640374
 21
-24.450951185412436
  0
LINE
  8
0
 10
13.369226315640374
 20
-24.450951185412436
 11
13.221663598288162
 21
-24.014256657832576
  0
LINE
  8
0
 10
13.221663598288162
 20
-24.014256657832576
 11
13.14054917481759
 21
-23.8331358752083
  0
LINE
  8
0
 10
13.14054917481759
 20
-23.8331358752083
 11
13.067429098789914
 21
-23.728842042141203
  0
LINE
  8
0
 10
13.067429098789914
 20
-23.728842042141203
 11
12.682646366290841
 21
-23.023323417126637
  0
LINE
  8
0
 10
12.682646366290841
 20
-23.023323417126637
 11
12.532853919803424
 21
-22.4762102450193
  0
LINE
  8
0
 10
12.532853919803424
 20
-22.4762102450193
 11
12.582947326725
 21
-22.12405088314425
  0
LINE
  8
0
 10
12.582947326725
 20
-22.12405088314425
 11
14.897599322825757
 21
-20.63651436952558
  0
LINE
  8
0
 10
14.897599322825757
 20
-20.63651436952558
 11
15.238744299139622
 21
-20.73724008972451
  0
LINE
  8
0
 10
15.238744299139622
 20
-20.73724008972451
 11
15.674189914462247
 21
-21.10077511721719
  0
LINE
  8
0
 10
15.674189914462247
 20
-21.10077511721719
 11
16.156107705270013
 21
-21.74386883074178
  0
LINE
  8
0
 10
16.156107705270013
 20
-21.74386883074178
 11
16.22060153541222
 21
-21.853706415418795
  0
LINE
  8
0
 10
16.22060153541222
 20
-21.853706415418795
 11
16.351658645030245
 21
-22.002730982561367
  0
LINE
  8
0
 10
16.351658645030245
 20
-22.002730982561367
 11
16.68759019136566
 21
-22.318368214438834
  0
LINE
  8
0
 10
16.68759019136566
 20
-22.318368214438834
 11
17.246839443585657
 21
-22.751564014497376
  0
LINE
  8
0
 10
17.246839443585657
 20
-22.751564014497376
 11
18.05303349309301
 21
-23.261354691352327
  0
LINE
  8
0
 10
18.05303349309301
 20
-23.261354691352327
 11
19.087733730862794
 21
-23.785206718429826
  0
LINE
  8
0
 10
19.087733730862794
 20
-23.785206718429826
 11
20.011069986082283
 21
-23.094005855630623
  0
LINE
  8
0
 10
20.011069986082283
 20
-23.094005855630623
 11
20.826639870560957
 21
-22.278435971151954
  0
LINE
  8
0
 10
20.826639870560957
 20
-22.278435971151954
 11
20.4553730987864
 21
-21.179715573375447
  0
LINE
  8
0
 10
20.4553730987864
 20
-21.179715573375447
 11
20.065504731737004
 21
-20.30917663912665
  0
LINE
  8
0
 10
20.065504731737004
 20
-20.30917663912665
 11
19.716307707190204
 21
-19.69396954769721
  0
LINE
  8
0
 10
19.716307707190204
 20
-19.69396954769721
 11
19.451691250909562
 21
-19.31653743852254
  0
LINE
  8
0
 10
19.451691250909562
 20
-19.31653743852254
 11
19.322834910344895
 21
-19.16560589414007
  0
LINE
  8
0
 10
19.322834910344895
 20
-19.16560589414007
 11
19.2232937429134
 21
-19.08613700009659
  0
LINE
  8
0
 10
19.2232937429134
 20
-19.08613700009659
 11
18.655329848587748
 21
-18.517602659696347
  0
LINE
  8
0
 10
18.655329848587748
 20
-18.517602659696347
 11
18.357465455823117
 21
-18.034852824231848
  0
LINE
  8
0
 10
18.357465455823117
 20
-18.034852824231848
 11
18.306314970352076
 21
-17.68284544730726
  0
LINE
  8
0
 10
18.306314970352076
 20
-17.68284544730726
 11
20.108119831596753
 21
-15.603451789435553
  0
LINE
  8
0
 10
20.108119831596753
 20
-15.603451789435553
 11
20.463823754045126
 21
-15.60398576379817
  0
LINE
  8
0
 10
20.463823754045126
 20
-15.60398576379817
 11
20.984050415135357
 21
-15.830115861769917
  0
LINE
  8
0
 10
20.984050415135357
 20
-15.830115861769917
 11
21.62762758547517
 21
-16.311387829880772
  0
LINE
  8
0
 10
21.62762758547517
 20
-16.311387829880772
 11
21.720453785906447
 21
-16.398606208950696
  0
LINE
  8
0
 10
21.720453785906447
 20
-16.398606208950696
 11
21.888187234060428
 21
-16.504671179435004
  0
LINE
  8
0
 10
21.888187234060428
 20
-16.504671179435004
 11
22.299436476755904
 21
-16.712880032159788
  0
LINE
  8
0
 10
22.299436476755904
 20
-16.712880032159788
 11
22.95807756512361
 21
-16.970969636775674
  0
LINE
  8
0
 10
22.95807756512361
 20
-16.970969636775674
 11
23.875239721840007
 21
-17.23297909835413
  0
LINE
  8
0
 10
23.875239721840007
 20
-17.23297909835413
 11
25.01561350077247
 21
-17.44410269399738
  0
LINE
  8
0
 10
25.01561350077247
 20
-17.44410269399738
 11
25.706814363571702
 21
-16.520766438777848
  0
LINE
  8
0
 10
25.706814363571702
 20
-16.520766438777848
 11
26.259575348383528
 21
-15.508460276291922
  0
LINE
  8
0
 10
26.259575348383528
 20
-15.508460276291922
 11
25.59380218260989
 21
-14.558843711540751
  0
LINE
  8
0
 10
25.59380218260989
 20
-14.558843711540751
 11
24.974467064015514
 21
-13.8334063327516
  0
LINE
  8
0
 10
24.974467064015514
 20
-13.8334063327516
 11
24.46609110570037
 21
-13.341499621774233
  0
LINE
  8
0
 10
24.46609110570037
 20
-13.341499621774233
 11
24.105858562044492
 21
-13.053907235814902
  0
LINE
  8
0
 10
24.105858562044492
 20
-13.053907235814902
 11
23.93969947876012
 21
-12.945392505775649
  0
LINE
  8
0
 10
23.93969947876012
 20
-12.945392505775649
 11
23.821801453315985
 21
-12.89718664793147
  0
LINE
  8
0
 10
23.821801453315985
 20
-12.89718664793147
 11
23.116669454070678
 21
-12.511695863200869
  0
LINE
  8
0
 10
23.116669454070678
 20
-12.511695863200869
 11
22.694864316662876
 21
-12.132418885024725
  0
LINE
  8
0
 10
22.694864316662876
 20
-12.132418885024725
 11
22.54661384692843
 21
-11.80908103726055
  0
LINE
  8
0
 10
22.54661384692843
 20
-11.80908103726055
 11
23.689600059205087
 21
-9.30629034266632
  0
LINE
  8
0
 10
23.689600059205087
 20
-9.30629034266632
 11
24.03104591144389
 21
-9.206589311765434
  0
LINE
  8
0
 10
24.03104591144389
 20
-9.206589311765434
 11
24.59390794812728
 21
-9.276994764526052
  0
LINE
  8
0
 10
24.59390794812728
 20
-9.276994764526052
 11
25.347005703159006
 21
-9.557455194601427
  0
LINE
  8
0
 10
25.347005703159006
 20
-9.557455194601427
 11
25.460644047179084
 21
-9.614988453699686
  0
LINE
  8
0
 10
25.460644047179084
 20
-9.614988453699686
 11
25.651465067448814
 21
-9.669501074409755
  0
LINE
  8
0
 10
25.651465067448814
 20
-9.669501074409755
 11
26.104715038654582
 21
-9.753413704999826
  0
LINE
  8
0
 10
26.104715038654582
 20
-9.753413704999826
 11
26.80938877927983
 21
-9.815488229325055
  0
LINE
  8
0
 10
26.80938877927983
 20
-9.815488229325055
 11
27.76321601984147
 21
-9.808490027280188
  0
LINE
  8
0
 10
27.76321601984147
 20
-9.808490027280188
 11
28.91687703843151
 21
-9.689781213370546
  0
LINE
  8
0
 10
0.3118675362266391
 20
-1.4672214011007085
 11
9.18454765366783e-17
 21
-1.5
  0
LINE
  8
0
 10
9.18454765366783e-17
 20
-1.5
 11
-0.3118675362266384
 21
-1.4672214011007085
  0
LINE
  8
0
 10
-0.3118675362266384
 20
-1.4672214011007085
 11
-0.6101049646137001
 21
-1.3703181864639014
  0
LINE
  8
0
 10
-0.6101049646137001
 20
-1.3703181864639014
 11
-0.8816778784387099
 21
-1.213525491562421
  0
LINE
  8
0
 10
-0.8816778784387099
 20
-1.213525491562421
 11
-1.114717238216091
 21
-1.0036959095382878
  0
LINE
  8
0
 10
-1.114717238216091
 20
-1.0036959095382878
 11
-1.299038105676658
 21
-0.7500000000000003
  0
LINE
  8
0
 10
-1.299038105676658
 20
-0.7500000000000003
 11
-1.4265847744427305
 21
-0.46352549156242095
  0
LINE
  8
0
 10
-1.4265847744427305
 20
-0.46352549156242095
 11
-1.49178284305241
 21
-0.15679269490147957
  0
LINE
  8
0
 10
-1.49178284305241
 20
-0.15679269490147957
 11
-1.4917828430524098
 21
0.15679269490148126
  0
LINE
  8
0
 10
-1.4917828430524098
 20
0.15679269490148126
 11
-1.4265847744427302
 21
0.46352549156242123
  0
LINE
  8
0
 10
-1.4265847744427302
 20
0.46352549156242123
 11
-1.2990381056766576
 21
0.7500000000000006
  0
LINE
  8
0
 10
-1.2990381056766576
 20
0.7500000000000006
 11
-1.114717238216091
 21
1.0036959095382878
  0
LINE
  8
0
 10
-1.114717238216091
 20
1.0036959095382878
 11
-0.8816778784387097
 21
1.2135254915624214
  0
LINE
  8
0
 10
-0.8816778784387097
 20
1.2135254915624214
 11
-0.6101049646137005
 21
1.3703181864639014
  0
LINE
  8
0
 10
-0.6101049646137005
 20
1.3703181864639014
 11
-0.3118675362266387
 21
1.4672214011007085
  0
LINE
  8
0
 10
-0.3118675362266387
 20
1.4672214011007085
 11
7.579792913117722e-16
 21
1.5
  0
LINE
  8
0
 10
7.579792913117722e-16
 20
1.5
 11
0.3118675362266389
 21
1.4672214011007085
  0
LINE
  8
0
 10
0.3118675362266389
 20
1.4672214011007085
 11
0.6101049646136999
 21
1.3703181864639014
  0
LINE
  8
0
 10
0.6101049646136999
 20
1.3703181864639014
 11
0.8816778784387097
 21
1.213525491562421
  0
LINE
  8
0
 10
0.8816778784387097
 20
1.213525491562421
 11
1.1147172382160917
 21
1.003695909538287
  0
LINE
  8
0
 10
1.1147172382160917
 20
1.003695909538287
 11
1.299038105676658
 21
0.7499999999999998
  0
LINE
  8
0
 10
1.299038105676658
 20
0.7499999999999998
 11
1.4265847744427305
 21
0.4635254915624211
  0
LINE
  8
0
 10
1.4265847744427305
 20
0.4635254915624211
 11
1.49178284305241
 21
0.1567926949014801
  0
LINE
  8
0
 10
1.49178284305241
 20
0.1567926949014801
 11
1.4917828430524098
 21
-0.1567926949014801
  0
LINE
  8
0
 10
1.4917828430524098
 20
-0.1567926949014801
 11
1.4265847744427302
 21
-0.46352549156242107
  0
LINE
  8
0
 10
1.4265847744427302
 20
-0.46352549156242107
 11
1.299038105676658
 21
-0.7500000000000001
  0
LINE
  8
0
 10
1.299038105676658
 20
-0.7500000000000001
 11
1.1147172382160913
 21
-1.0036959095382874
  0
LINE
  8
0
 10
1.1147172382160913
 20
-1.0036959095382874
 11
0.8816778784387098
 21
-1.2135254915624212
  0
LINE
  8
0
 10
0.8816778784387098
 20
-1.2135254915624212
 11
0.6101049646137003
 21
-1.3703181864639014
  0
LINE
  8
0
 10
0.6101049646137003
 20
-1.3703181864639014
 11
0.3118675362266391
 21
-1.4672214011007085
  0
ENDSEC
  0
SECTION
  2
OBJECTS
  0
DICTIONARY
  0
ENDSEC
  0
EOF
