  0
SECTION
  2
BLOCKS
  0
ENDSEC
  0
SECTION
  2
ENTITIES
  0
LINE
  8
0
 10
74.4592855587504
 20
-9.497912272577405
 11
74.66519874211043
 21
-8.26394221572197
  0
LINE
  8
0
 10
74.66519874211043
 20
-8.26394221572197
 11
74.73411532120159
 21
-7.014809378340867
  0
LINE
  8
0
 10
74.73411532120159
 20
-7.014809378340867
 11
74.3076193627235
 21
-6.810140086116754
  0
LINE
  8
0
 10
74.3076193627235
 20
-6.810140086116754
 11
73.51846580803834
 21
-6.466508078262865
  0
LINE
  8
0
 10
73.51846580803834
 20
-6.466508078262865
 11
72.80571239182467
 21
-6.186822027489941
  0
LINE
  8
0
 10
72.80571239182467
 20
-6.186822027489941
 11
72.17287250942769
 21
-5.9649579753523145
  0
LINE
  8
0
 10
72.17287250942769
 20
-5.9649579753523145
 11
71.62311111797331
 21
-5.794624574739367
  0
LINE
  8
0
 10
71.62311111797331
 20
-5.794624574739367
 11
71.15923734457128
 21
-5.6693804802469545
  0
LINE
  8
0
 10
71.15923734457128
 20
-5.6693804802469545
 11
70.78369790379428
 21
-5.582652049610393
  0
LINE
  8
0
 10
70.78369790379428
 20
-5.582652049610393
 11
70.38840145136511
 21
-5.506538259728678
  0
LINE
  8
0
 10
70.38840145136511
 20
-5.506538259728678
 11
70.08961652071184
 21
-5.422358395861964
  0
LINE
  8
0
 10
70.08961652071184
 20
-5.422358395861964
 11
69.89210353748786
 21
-5.327259335727411
  0
LINE
  8
0
 10
69.89210353748786
 20
-5.327259335727411
 11
69.79612913494189
 21
-5.22856799298293
  0
LINE
  8
0
 10
69.79612913494189
 20
-5.22856799298293
 11
69.94769936851837
 21
-2.4813138717389895
  0
LINE
  8
0
 10
69.94769936851837
 20
-2.4813138717389895
 11
70.05394813048922
 21
-2.3937794918868143
  0
LINE
  8
0
 10
70.05394813048922
 20
-2.3937794918868143
 11
70.26072402210764
 21
-2.3209856705414693
  0
LINE
  8
0
 10
70.26072402210764
 20
-2.3209856705414693
 11
70.56695600767169
 21
-2.270185520113554
  0
LINE
  8
0
 10
70.56695600767169
 20
-2.270185520113554
 11
70.96822642099843
 21
-2.2380195488788006
  0
LINE
  8
0
 10
70.96822642099843
 20
-2.2380195488788006
 11
71.35102743208927
 21
-2.1931299268668534
  0
LINE
  8
0
 10
71.35102743208927
 20
-2.1931299268668534
 11
71.82586368590152
 21
-2.119675907775342
  0
LINE
  8
0
 10
71.82586368590152
 20
-2.119675907775342
 11
72.39102647245059
 21
-2.01085458817941
  0
LINE
  8
0
 10
72.39102647245059
 20
-2.01085458817941
 11
73.04443231507533
 21
-1.8599546902019748
  0
LINE
  8
0
 10
73.04443231507533
 20
-1.8599546902019748
 11
73.78362756569359
 21
-1.6603748796465294
  0
LINE
  8
0
 10
73.78362756569359
 20
-1.6603748796465294
 11
74.60579383867051
 21
-1.405641863974196
  0
LINE
  8
0
 10
74.60579383867051
 20
-1.405641863974196
 11
75.05221656028347
 21
-1.2491328373811026
  0
LINE
  8
0
 10
75.05221656028347
 20
-1.2491328373811026
 11
75.12113313937458
 21
1.7763568394002505e-15
  0
LINE
  8
0
 10
75.12113313937458
 20
1.7763568394002505e-15
 11
75.05221656028351
 21
1.2491328373811084
  0
LINE
  8
0
 10
75.05221656028351
 20
1.2491328373811084
 11
74.60579383867032
 21
1.4056418639742676
  0
LINE
  8
0
 10
74.60579383867032
 20
1.4056418639742676
 11
73.78362756569359
 21
1.6603748796465432
  0
LINE
  8
0
 10
73.78362756569359
 20
1.6603748796465432
 11
73.04443231507327
 21
1.8599546902025397
  0
LINE
  8
0
 10
73.04443231507327
 20
1.8599546902025397
 11
72.39102647245043
 21
2.010854588179601
  0
LINE
  8
0
 10
72.39102647245043
 20
2.010854588179601
 11
71.82586368590162
 21
2.119675907775572
  0
LINE
  8
0
 10
71.82586368590162
 20
2.119675907775572
 11
71.35102743208898
 21
2.19312992686672
  0
LINE
  8
0
 10
71.35102743208898
 20
2.19312992686672
 11
70.96822642099396
 21
2.238019548879051
  0
LINE
  8
0
 10
70.96822642099396
 20
2.238019548879051
 11
70.56695600767165
 21
2.2701855201124177
  0
LINE
  8
0
 10
70.56695600767165
 20
2.2701855201124177
 11
70.26072402210755
 21
2.3209856705409875
  0
LINE
  8
0
 10
70.26072402210755
 20
2.3209856705409875
 11
70.05394813048903
 21
2.3937794918851196
  0
LINE
  8
0
 10
70.05394813048903
 20
2.3937794918851196
 11
69.9476993685185
 21
2.481313871739509
  0
LINE
  8
0
 10
69.9476993685185
 20
2.481313871739509
 11
69.79612913494172
 21
5.2285679929834314
  0
LINE
  8
0
 10
69.79612913494172
 20
5.2285679929834314
 11
69.89210353748823
 21
5.327259335725747
  0
LINE
  8
0
 10
69.89210353748823
 20
5.327259335725747
 11
70.089616520712
 21
5.422358395861495
  0
LINE
  8
0
 10
70.089616520712
 20
5.422358395861495
 11
70.38840145136528
 21
5.506538259727552
  0
LINE
  8
0
 10
70.38840145136528
 20
5.506538259727552
 11
70.78369790379871
 21
5.582652049611135
  0
LINE
  8
0
 10
70.78369790379871
 20
5.582652049611135
 11
71.15923734457158
 21
5.669380480246853
  0
LINE
  8
0
 10
71.15923734457158
 20
5.669380480246853
 11
71.62311111797318
 21
5.794624574739585
  0
LINE
  8
0
 10
71.62311111797318
 20
5.794624574739585
 11
72.17287250942783
 21
5.9649579753525215
  0
LINE
  8
0
 10
72.17287250942783
 20
5.9649579753525215
 11
72.80571239182665
 21
6.186822027490728
  0
LINE
  8
0
 10
72.80571239182665
 20
6.186822027490728
 11
73.51846580803833
 21
6.466508078262878
  0
LINE
  8
0
 10
73.51846580803833
 20
6.466508078262878
 11
74.30761936272368
 21
6.810140086116847
  0
LINE
  8
0
 10
74.30761936272368
 20
6.810140086116847
 11
74.73411532120163
 21
7.014809378340872
  0
LINE
  8
0
 10
74.73411532120163
 20
7.014809378340872
 11
74.66519874211052
 21
8.263942215721977
  0
LINE
  8
0
 10
74.66519874211052
 20
8.263942215721977
 11
74.45928555875044
 21
9.497912272577466
  0
LINE
  8
0
 10
74.45928555875044
 20
9.497912272577466
 11
73.99835504110229
 21
9.604361225969575
  0
LINE
  8
0
 10
73.99835504110229
 20
9.604361225969575
 11
73.15315603465199
 21
9.76710313572046
  0
LINE
  8
0
 10
73.15315603465199
 20
9.76710313572046
 11
72.39649177862712
 21
9.884154077517353
  0
LINE
  8
0
 10
72.39649177862712
 20
9.884154077517353
 11
71.73045143758085
 21
9.962258100986828
  0
LINE
  8
0
 10
71.73045143758085
 20
9.962258100986828
 11
71.15674756657651
 21
10.008246396159192
  0
LINE
  8
0
 10
71.15674756657651
 20
10.008246396159192
 11
70.67671270124433
 21
10.029018707560763
  0
LINE
  8
0
 10
70.67671270124433
 20
10.029018707560763
 11
70.29129680554996
 21
10.031524621746726
  0
LINE
  8
0
 10
70.29129680554996
 20
10.031524621746726
 11
69.88892331057694
 21
10.01935232301415
  0
LINE
  8
0
 10
69.88892331057694
 20
10.01935232301415
 11
69.57896151157391
 21
10.036156114994082
  0
LINE
  8
0
 10
69.57896151157391
 20
10.036156114994082
 11
69.36543269077907
 21
10.085761079165799
  0
LINE
  8
0
 10
69.36543269077907
 20
10.085761079165799
 11
69.25019928542591
 21
10.161075947335878
  0
LINE
  8
0
 10
69.25019928542591
 20
10.161075947335878
 11
68.79732844200899
 21
12.874982125076937
  0
LINE
  8
0
 10
68.79732844200899
 20
12.874982125076937
 11
68.88186348589464
 21
12.983632451499338
  0
LINE
  8
0
 10
68.88186348589464
 20
12.983632451499338
 11
69.06771602066559
 21
13.099882376660041
  0
LINE
  8
0
 10
69.06771602066559
 20
13.099882376660041
 11
69.35542705209477
 21
13.216420124449971
  0
LINE
  8
0
 10
69.35542705209477
 20
13.216420124449971
 11
69.73995118018509
 21
13.335557814679667
  0
LINE
  8
0
 10
69.73995118018509
 20
13.335557814679667
 11
70.10367051054824
 21
13.463072288276686
  0
LINE
  8
0
 10
70.10367051054824
 20
13.463072288276686
 11
70.55095100431018
 21
13.638586164523641
  0
LINE
  8
0
 10
70.55095100431018
 20
13.638586164523641
 11
71.07863764210464
 21
13.86836402940988
  0
LINE
  8
0
 10
71.07863764210464
 20
13.86836402940988
 11
71.68322974537286
 21
14.15849910666091
  0
LINE
  8
0
 10
71.68322974537286
 20
14.15849910666091
 11
72.36088946622651
 21
14.514896387866155
  0
LINE
  8
0
 10
72.36088946622651
 20
14.514896387866155
 11
73.10745104748214
 21
14.94325616082267
  0
LINE
  8
0
 10
73.10745104748214
 20
14.94325616082267
 11
73.50884315963577
 21
15.193601310722396
  0
LINE
  8
0
 10
73.50884315963577
 20
15.193601310722396
 11
73.30292997627572
 21
16.427571367577873
  0
LINE
  8
0
 10
73.30292997627572
 20
16.427571367577873
 11
72.96251969575532
 21
17.631399918997648
  0
LINE
  8
0
 10
72.96251969575532
 20
17.631399918997648
 11
72.49267645416346
 21
17.686496653094107
  0
LINE
  8
0
 10
72.49267645416346
 20
17.686496653094107
 11
71.634704285241
 21
17.755271990595265
  0
LINE
  8
0
 10
71.634704285241
 20
17.755271990595265
 11
70.86975590287516
 21
17.78837322376105
  0
LINE
  8
0
 10
70.86975590287516
 20
17.78837322376105
 11
70.1991658909036
 21
17.79273329568053
  0
LINE
  8
0
 10
70.1991658909036
 20
17.79273329568053
 11
69.62388492327786
 21
17.775330330823294
  0
LINE
  8
0
 10
69.62388492327786
 20
17.775330330823294
 11
69.14447841941877
 21
17.743168786813786
  0
LINE
  8
0
 10
69.14447841941877
 20
17.743168786813786
 11
68.76112606600063
 21
17.70326057476977
  0
LINE
  8
0
 10
68.76112606600063
 20
17.70326057476977
 11
68.36253375853629
 21
17.64689776128883
  0
LINE
  8
0
 10
68.36253375853629
 20
17.64689776128883
 11
68.05260466244884
 21
17.629501219548505
  0
LINE
  8
0
 10
68.05260466244884
 20
17.629501219548505
 11
67.83491486310832
 21
17.65531518947943
  0
LINE
  8
0
 10
67.83491486310832
 20
17.65531518947943
 11
67.7120955918142
 21
17.717496325489837
  0
LINE
  8
0
 10
67.7120955918142
 20
17.717496325489837
 11
66.96342137712114
 21
20.365111415084993
  0
LINE
  8
0
 10
66.96342137712114
 20
20.365111415084993
 11
67.03549092142735
 21
20.48240185740634
  0
LINE
  8
0
 10
67.03549092142735
 20
20.48240185740634
 11
67.20742700973585
 21
20.618391530976872
  0
LINE
  8
0
 10
67.20742700973585
 20
20.618391530976872
 11
67.4805717197631
 21
20.765872552298724
  0
LINE
  8
0
 10
67.4805717197631
 20
20.765872552298724
 11
67.84965592148549
 21
20.926587972703338
  0
LINE
  8
0
 10
67.84965592148549
 20
20.926587972703338
 11
68.19714008147555
 21
21.093340636287873
  0
LINE
  8
0
 10
68.19714008147555
 20
21.093340636287873
 11
68.62239791630577
 21
21.31699379358881
  0
LINE
  8
0
 10
68.62239791630577
 20
21.31699379358881
 11
69.1216043994805
 21
21.60342693073398
  0
LINE
  8
0
 10
69.1216043994805
 20
21.60342693073398
 11
69.69060979448659
 21
21.958311186287396
  0
LINE
  8
0
 10
69.69060979448659
 20
21.958311186287396
 11
70.32494994895325
 21
22.387093517720455
  0
LINE
  8
0
 10
70.32494994895325
 20
22.387093517720455
 11
71.01985731050185
 21
22.89498134840734
  0
LINE
  8
0
 10
71.01985731050185
 20
22.89498134840734
 11
71.39127321982971
 21
23.18796350498949
  0
LINE
  8
0
 10
71.39127321982971
 20
23.18796350498949
 11
71.05086293930931
 21
24.39179205640926
  0
LINE
  8
0
 10
71.05086293930931
 20
24.39179205640926
 11
70.58008768130223
 21
25.550866254528483
  0
LINE
  8
0
 10
70.58008768130223
 20
25.550866254528483
 11
70.10703497625305
 21
25.553941969613376
  0
LINE
  8
0
 10
70.10703497625305
 20
25.553941969613376
 11
69.24670426474923
 21
25.52791589543308
  0
LINE
  8
0
 10
69.24670426474923
 20
25.52791589543308
 11
68.48275719317778
 21
25.476665615837245
  0
LINE
  8
0
 10
68.48275719317778
 20
25.476665615837245
 11
67.815757564621
 21
25.407228810839943
  0
LINE
  8
0
 10
67.815757564621
 20
25.407228810839943
 11
67.24588263202457
 21
25.326645834371785
  0
LINE
  8
0
 10
67.24588263202457
 20
25.326645834371785
 11
66.7729238351742
 21
25.241940832528297
  0
LINE
  8
0
 10
66.7729238351742
 20
25.241940832528297
 11
66.39628840229989
 21
25.16010292588741
  0
LINE
  8
0
 10
66.39628840229989
 20
25.16010292588741
 11
66.00631565300938
 21
25.06023376586268
  0
LINE
  8
0
 10
66.00631565300938
 20
25.06023376586268
 11
65.70018137922295
 21
25.008848060852852
  0
LINE
  8
0
 10
65.70018137922295
 20
25.008848060852852
 11
65.48097306061032
 21
25.010557689916546
  0
LINE
  8
0
 10
65.48097306061032
 20
25.010557689916546
 11
65.35205878295336
 21
25.058850299008913
  0
LINE
  8
0
 10
65.35205878295336
 20
25.058850299008913
 11
64.31666908776955
 21
27.60803583982493
  0
LINE
  8
0
 10
64.31666908776955
 20
27.60803583982493
 11
64.37539830585645
 21
27.73254265096129
  0
LINE
  8
0
 10
64.37539830585645
 20
27.73254265096129
 11
64.53133087650126
 21
27.886621342520993
  0
LINE
  8
0
 10
64.53133087650126
 20
27.886621342520993
 11
64.78659365835846
 21
28.063255417559006
  0
LINE
  8
0
 10
64.78659365835846
 20
28.063255417559006
 11
65.13575775147872
 21
28.2635977006457
  0
LINE
  8
0
 10
65.13575775147872
 20
28.2635977006457
 11
65.46278875410795
 21
28.46756440277098
  0
LINE
  8
0
 10
65.46278875410795
 20
28.46756440277098
 11
65.8608618759611
 21
28.736641994764867
  0
LINE
  8
0
 10
65.8608618759611
 20
28.736641994764867
 11
66.32552851405339
 21
29.07625349389663
  0
LINE
  8
0
 10
66.32552851405339
 20
29.07625349389663
 11
66.85204024609712
 21
29.491579113628966
  0
LINE
  8
0
 10
66.85204024609712
 20
29.491579113628966
 11
67.43536080400149
 21
29.987541658630185
  0
LINE
  8
0
 10
67.43536080400149
 20
29.987541658630185
 11
68.0701787118203
 21
30.568792476785998
  0
LINE
  8
0
 10
68.0701787118203
 20
30.568792476785998
 11
68.40710993231669
 21
30.90085523355384
  0
LINE
  8
0
 10
68.40710993231669
 20
30.90085523355384
 11
67.93633467430949
 21
32.059929431673055
  0
LINE
  8
0
 10
67.93633467430949
 20
32.059929431673055
 11
67.34090901271864
 21
33.16017968585003
  0
LINE
  8
0
 10
67.34090901271864
 20
33.16017968585003
 11
66.87038906323725
 21
33.11119704690871
  0
LINE
  8
0
 10
66.87038906323725
 20
33.11119704690871
 11
66.01814305855486
 21
32.99068548233165
  0
LINE
  8
0
 10
66.01814305855486
 20
32.99068548233165
 11
65.26447058035659
 21
32.85570579894301
  0
LINE
  8
0
 10
65.26447058035659
 20
32.85570579894301
 11
64.60915780716357
 21
32.71331498578
  0
LINE
  8
0
 10
64.60915780716357
 20
32.71331498578
 11
64.05160641930517
 21
32.570530165874665
  0
LINE
  8
0
 10
64.05160641930517
 20
32.570530165874665
 11
63.5908364085703
 21
32.43430991017514
  0
LINE
  8
0
 10
63.5908364085703
 20
32.43430991017514
 11
63.22548974019103
 21
32.31153571026344
  0
LINE
  8
0
 10
63.22548974019103
 20
32.31153571026344
 11
62.848870289979665
 21
32.16937248001127
  0
LINE
  8
0
 10
62.848870289979665
 20
32.16937248001127
 11
62.55024689387755
 21
32.08462136458182
  0
LINE
  8
0
 10
62.55024689387755
 20
32.08462136458182
 11
62.332180948033304
 21
32.06220590019739
  0
LINE
  8
0
 10
62.332180948033304
 20
32.06220590019739
 11
62.19873650871236
 21
32.09602377551624
  0
LINE
  8
0
 10
62.19873650871236
 20
32.09602377551624
 11
60.889199561361295
 21
34.51583610830585
  0
LINE
  8
0
 10
60.889199561361295
 20
34.51583610830585
 11
60.93387556007799
 21
34.64604794423142
  0
LINE
  8
0
 10
60.93387556007799
 20
34.64604794423142
 11
61.07191180288334
 21
34.81634534718529
  0
LINE
  8
0
 10
61.07191180288334
 20
34.81634534718529
 11
61.30619411218685
 21
35.019988377543356
  0
LINE
  8
0
 10
61.30619411218685
 20
35.019988377543356
 11
61.63119971760473
 21
35.25752563938632
  0
LINE
  8
0
 10
61.63119971760473
 20
35.25752563938632
 11
61.93380784950914
 21
35.49623050058916
  0
LINE
  8
0
 10
61.93380784950914
 20
35.49623050058916
 11
62.299864189930105
 21
35.807466289811344
  0
LINE
  8
0
 10
62.299864189930105
 20
35.807466289811344
 11
62.7243505594076
 21
36.19613372738018
  0
LINE
  8
0
 10
62.7243505594076
 20
36.19613372738018
 11
63.20197748929366
 21
36.66685922088288
  0
LINE
  8
0
 10
63.20197748929366
 20
36.66685922088288
 11
63.72719772924975
 21
37.223981666004605
  0
LINE
  8
0
 10
63.72719772924975
 20
37.223981666004605
 11
64.29422035388501
 21
37.871539874080156
  0
LINE
  8
0
 10
64.29422035388501
 20
37.871539874080156
 11
64.59257699695212
 21
38.23865243899066
  0
LINE
  8
0
 10
64.59257699695212
 20
38.23865243899066
 11
63.997151335361266
 21
39.33890269316765
  0
LINE
  8
0
 10
63.997151335361266
 20
39.33890269316765
 11
63.2843029311335
 21
40.36697345575517
  0
LINE
  8
0
 10
63.2843029311335
 20
40.36697345575517
 11
62.822027212023364
 21
40.26652704567071
  0
LINE
  8
0
 10
62.822027212023364
 20
40.26652704567071
 11
61.98821102617621
 21
40.05299283784157
  0
LINE
  8
0
 10
61.98821102617621
 20
40.05299283784157
 11
61.253961704284634
 21
39.83592222116816
  0
LINE
  8
0
 10
61.253961704284634
 20
39.83592222116816
 11
60.618290395811755
 21
39.62230583142353
  0
LINE
  8
0
 10
60.618290395811755
 20
39.62230583142353
 11
60.07983047126084
 21
39.419052382373216
  0
LINE
  8
0
 10
60.07983047126084
 20
39.419052382373216
 11
59.636842370396195
 21
39.23297040219299
  0
LINE
  8
0
 10
59.636842370396195
 20
39.23297040219299
 11
59.28721928015439
 21
39.070750221483074
  0
LINE
  8
0
 10
59.28721928015439
 20
39.070750221483074
 11
58.92852477896551
 21
38.8880185900393
  0
LINE
  8
0
 10
58.92852477896551
 20
38.8880185900393
 11
58.6410371440504
 21
38.77093082792466
  0
LINE
  8
0
 10
58.6410371440504
 20
38.77093082792466
 11
58.426760596157145
 21
38.72466236346492
  0
LINE
  8
0
 10
58.426760596157145
 20
38.72466236346492
 11
58.290405829896926
 21
38.743595001814796
  0
LINE
  8
0
 10
58.290405829896926
 20
38.743595001814796
 11
56.722617634973695
 21
41.004660882822584
  0
LINE
  8
0
 10
56.722617634973695
 20
41.004660882822584
 11
56.7526981082155
 21
41.138997148238865
  0
LINE
  8
0
 10
56.7526981082155
 20
41.138997148238865
 11
56.87116245018258
 21
41.323446082806015
  0
LINE
  8
0
 10
56.87116245018258
 20
41.323446082806015
 11
57.081620417064684
 21
41.55162611795775
  0
LINE
  8
0
 10
57.081620417064684
 20
41.55162611795775
 11
57.378522406994655
 21
41.8234749779747
  0
LINE
  8
0
 10
57.378522406994655
 20
41.8234749779747
 11
57.65303441537676
 21
42.094020444598264
  0
LINE
  8
0
 10
57.65303441537676
 20
42.094020444598264
 11
57.98263054626589
 21
42.44363645017878
  0
LINE
  8
0
 10
57.98263054626589
 20
42.44363645017878
 11
58.361783957627615
 21
42.876641929995465
  0
LINE
  8
0
 10
58.361783957627615
 20
42.876641929995465
 11
58.78472834143776
 21
43.39705332743906
  0
LINE
  8
0
 10
58.78472834143776
 20
43.39705332743906
 11
59.2454728012147
 21
44.00857296089558
  0
LINE
  8
0
 10
59.2454728012147
 20
44.00857296089558
 11
59.73781725611252
 21
44.714578079450426
  0
LINE
  8
0
 10
59.73781725611252
 20
44.714578079450426
 11
59.99397767626809
 21
45.11228420326939
  0
LINE
  8
0
 10
59.99397767626809
 20
45.11228420326939
 11
59.28112927204029
 21
46.14035496585693
  0
LINE
  8
0
 10
59.28112927204029
 20
46.14035496585693
 11
58.45951113915297
 21
47.083766850458844
  0
LINE
  8
0
 10
58.45951113915297
 20
47.083766850458844
 11
58.01109105142882
 21
46.93307595258135
  0
LINE
  8
0
 10
58.01109105142882
 20
46.93307595258135
 11
57.205826083395756
 21
46.62911111752207
  0
LINE
  8
0
 10
57.205826083395756
 20
46.62911111752207
 11
56.499912709938144
 21
46.33258451079864
  0
LINE
  8
0
 10
56.499912709938144
 20
46.33258451079864
 11
55.89159905476709
 21
46.05033555807147
  0
LINE
  8
0
 10
55.89159905476709
 20
46.05033555807147
 11
55.37876676759056
 21
45.78908070141322
  0
LINE
  8
0
 10
55.37876676759056
 20
45.78908070141322
 11
54.958937852053054
 21
45.555395779918356
  0
LINE
  8
0
 10
54.958937852053054
 20
45.555395779918356
 11
54.62928229065226
 21
45.35569875165476
  0
LINE
  8
0
 10
54.62928229065226
 20
45.35569875165476
 11
54.292866803829845
 21
45.13461683349029
  0
LINE
  8
0
 10
54.292866803829845
 20
45.13461683349029
 11
54.02000464054855
 21
44.98661371151123
  0
LINE
  8
0
 10
54.02000464054855
 20
44.98661371151123
 11
53.812118517631
 21
44.91705388345782
  0
LINE
  8
0
 10
53.812118517631
 20
44.91705388345782
 11
53.67450858658286
 21
44.92087146825597
  0
LINE
  8
0
 10
53.67450858658286
 20
44.92087146825597
 11
51.867499968991645
 21
46.99574462060754
  0
LINE
  8
0
 10
51.867499968991645
 20
46.99574462060754
 11
51.88261978056148
 21
47.132574655229085
  0
LINE
  8
0
 10
51.88261978056148
 20
47.132574655229085
 11
51.98007422505486
 21
47.32893616120502
  0
LINE
  8
0
 10
51.98007422505486
 20
47.32893616120502
 11
52.164153174891545
 21
47.57888340462455
  0
LINE
  8
0
 10
52.164153174891545
 20
47.57888340462455
 11
52.42934756136996
 21
47.88174398591111
  0
LINE
  8
0
 10
52.42934756136996
 20
47.88174398591111
 11
52.67243124231182
 21
48.180846002481196
  0
LINE
  8
0
 10
52.67243124231182
 20
48.180846002481196
 11
52.96156631312285
 21
48.56459835971468
  0
LINE
  8
0
 10
52.96156631312285
 20
48.56459835971468
 11
53.290784357569706
 21
49.03668578181899
  0
LINE
  8
0
 10
53.290784357569706
 20
49.03668578181899
 11
53.653912223420136
 21
49.60046599380647
  0
LINE
  8
0
 10
53.653912223420136
 20
49.60046599380647
 11
54.044588089417225
 21
50.25895979563408
  0
LINE
  8
0
 10
54.044588089417225
 20
50.25895979563408
 11
54.45627797984261
 21
51.014841878908854
  0
LINE
  8
0
 10
54.45627797984261
 20
51.014841878908854
 11
54.66713273659017
 21
51.438313948040204
  0
LINE
  8
0
 10
54.66713273659017
 20
51.438313948040204
 11
53.84551460370275
 21
52.38172583264204
  0
LINE
  8
0
 10
53.84551460370275
 20
52.38172583264204
 11
52.92510007329557
 21
53.229027096958745
  0
LINE
  8
0
 10
52.92510007329557
 20
53.229027096958745
 11
52.49597882937641
 21
53.02992089465718
  0
LINE
  8
0
 10
52.49597882937641
 20
53.02992089465718
 11
51.72903990502852
 21
52.6392151537037
  0
LINE
  8
0
 10
51.72903990502852
 20
52.6392151537037
 11
51.06003131210306
 21
52.266831988250274
  0
LINE
  8
0
 10
51.06003131210306
 20
52.266831988250274
 11
50.48645941396409
 21
51.91937659248211
  0
LINE
  8
0
 10
50.48645941396409
 20
51.91937659248211
 11
50.005479853427246
 21
51.60329160827056
  0
LINE
  8
0
 10
50.005479853427246
 20
51.60329160827056
 11
49.61390627753619
 21
51.32484036385003
  0
LINE
  8
0
 10
49.61390627753619
 20
51.32484036385003
 11
49.30821981692855
 21
51.0900905394391
  0
LINE
  8
0
 10
49.30821981692855
 20
51.0900905394391
 11
48.998166972762135
 21
50.833341969554944
  0
LINE
  8
0
 10
48.998166972762135
 20
50.833341969554944
 11
48.743242458147996
 21
50.65622004512196
  0
LINE
  8
0
 10
48.743242458147996
 20
50.65622004512196
 11
48.54427021612836
 21
50.56421321555919
  0
LINE
  8
0
 10
48.54427021612836
 20
50.56421321555919
 11
48.40707551844387
 21
50.552869406497614
  0
LINE
  8
0
 10
48.40707551844387
 20
50.552869406497614
 11
46.382781114963485
 21
52.41636368082106
  0
LINE
  8
0
 10
46.382781114963485
 20
52.41636368082106
 11
46.382756730830735
 21
52.55402655338245
  0
LINE
  8
0
 10
46.382756730830735
 20
52.55402655338245
 11
46.45801831290955
 21
52.75991706808297
  0
LINE
  8
0
 10
46.45801831290955
 20
52.75991706808297
 11
46.61348377660975
 21
53.0285974988227
  0
LINE
  8
0
 10
46.61348377660975
 20
53.0285974988227
 11
46.84375145902659
 21
53.358793484187856
  0
LINE
  8
0
 10
46.84375145902659
 20
53.358793484187856
 11
47.05245610593146
 21
53.682821357397636
  0
LINE
  8
0
 10
47.05245610593146
 20
53.682821357397636
 11
47.2976204085775
 21
54.09605183251198
  0
LINE
  8
0
 10
47.2976204085775
 20
54.09605183251198
 11
47.572906825020475
 21
54.60149069510616
  0
LINE
  8
0
 10
47.572906825020475
 20
54.60149069510616
 11
47.87181029252581
 21
55.20179619358092
  0
LINE
  8
0
 10
47.87181029252581
 20
55.20179619358092
 11
48.187675288953386
 21
55.89927094104477
  0
LINE
  8
0
 10
48.187675288953386
 20
55.89927094104477
 11
48.513713257326486
 21
56.695854604493505
  0
LINE
  8
0
 10
48.513713257326486
 20
56.695854604493505
 11
48.676702859550495
 21
57.139952241668404
  0
LINE
  8
0
 10
48.676702859550495
 20
57.139952241668404
 11
47.75628832914328
 21
57.987253505985095
  0
LINE
  8
0
 10
47.75628832914328
 20
57.987253505985095
 11
46.748249986788814
 21
58.72815906045252
  0
LINE
  8
0
 10
46.748249986788814
 20
58.72815906045252
 11
46.343636537272836
 21
58.483054433306435
  0
LINE
  8
0
 10
46.343636537272836
 20
58.483054433306435
 11
45.62433325622871
 21
58.01035042488991
  0
LINE
  8
0
 10
45.62433325622871
 20
58.01035042488991
 11
45.00035030189045
 21
57.56663092789151
  0
LINE
  8
0
 10
45.00035030189045
 20
57.56663092789151
 11
44.4684825466459
 21
57.15818672691141
  0
LINE
  8
0
 10
44.4684825466459
 20
57.15818672691141
 11
44.025194153061484
 21
56.79110845867481
  0
LINE
  8
0
 10
44.025194153061484
 20
56.79110845867481
 11
43.66662908958855
 21
56.47127091223582
  0
LINE
  8
0
 10
43.66662908958855
 20
56.47127091223582
 11
43.388622349311994
 21
56.20431783654538
  0
LINE
  8
0
 10
43.388622349311994
 20
56.20431783654538
 11
43.108695769321045
 21
55.915019194779106
  0
LINE
  8
0
 10
43.108695769321045
 20
55.915019194779106
 11
42.874803341651585
 21
55.71092848811909
  0
LINE
  8
0
 10
42.874803341651585
 20
55.71092848811909
 11
42.68716023401304
 21
55.597591495322106
  0
LINE
  8
0
 10
42.68716023401304
 20
55.597591495322106
 11
42.552046127473226
 21
55.57122399087608
  0
LINE
  8
0
 10
42.552046127473226
 20
55.57122399087608
 11
40.33503812998006
 21
57.20071909103734
  0
LINE
  8
0
 10
40.33503812998006
 20
57.20071909103734
 11
40.31986984613506
 21
57.33754376074877
  0
LINE
  8
0
 10
40.31986984613506
 20
57.33754376074877
 11
40.37202499214493
 21
57.55046405223209
  0
LINE
  8
0
 10
40.37202499214493
 20
57.55046405223209
 11
40.49698982957841
 21
57.83461625382698
  0
LINE
  8
0
 10
40.49698982957841
 20
57.83461625382698
 11
40.689535670198005
 21
58.188139511303746
  0
LINE
  8
0
 10
40.689535670198005
 20
58.188139511303746
 11
40.86132789137126
 21
58.53315998171223
  0
LINE
  8
0
 10
40.86132789137126
 20
58.53315998171223
 11
41.05954546332656
 21
58.97085251651641
  0
LINE
  8
0
 10
41.05954546332656
 20
58.97085251651641
 11
41.2775586475829
 21
59.50350747649417
  0
LINE
  8
0
 10
41.2775586475829
 20
59.50350747649417
 11
41.508609433552984
 21
60.1330513659001
  0
LINE
  8
0
 10
41.508609433552984
 20
60.1330513659001
 11
41.74582938723649
 21
60.86104066039031
  0
LINE
  8
0
 10
41.74582938723649
 20
60.86104066039031
 11
41.982257774283994
 21
61.688656457419576
  0
LINE
  8
0
 10
41.982257774283994
 20
61.688656457419576
 11
42.09540374900495
 21
62.14798891891327
  0
LINE
  8
0
 10
42.09540374900495
 20
62.14798891891327
 11
41.087365406650505
 21
62.88889447338072
  0
LINE
  8
0
 10
41.087365406650505
 20
62.88889447338072
 11
40.00393947230016
 21
63.51441072822505
  0
LINE
  8
0
 10
40.00393947230016
 20
63.51441072822505
 11
39.628745276360505
 21
63.226282914380384
  0
LINE
  8
0
 10
39.628745276360505
 20
63.226282914380384
 11
38.96580900605796
 21
62.67731862482116
  0
LINE
  8
0
 10
38.96580900605796
 20
62.67731862482116
 11
38.39442599810286
 21
62.16764894989298
  0
LINE
  8
0
 10
38.39442599810286
 20
62.16764894989298
 11
37.91071853981423
 21
61.703173903007674
  0
LINE
  8
0
 10
37.91071853981423
 20
61.703173903007674
 11
37.51050223378598
 21
61.28955818366504
  0
LINE
  8
0
 10
37.51050223378598
 20
61.28955818366504
 11
37.18929817687664
 21
60.932216729757926
  0
LINE
  8
0
 10
37.18929817687664
 20
60.932216729757926
 11
36.94234578216022
 21
60.636300851502625
  0
LINE
  8
0
 10
36.94234578216022
 20
60.636300851502625
 11
36.69594339582723
 21
60.31796383147095
  0
LINE
  8
0
 10
36.69594339582723
 20
60.31796383147095
 11
36.48592219233527
 21
60.08938172729416
  0
LINE
  8
0
 10
36.48592219233527
 20
60.08938172729416
 11
36.311885952216464
 21
59.956090328825155
  0
LINE
  8
0
 10
36.311885952216464
 20
59.956090328825155
 11
36.1804925390443
 21
59.91501919478028
  0
LINE
  8
0
 10
36.1804925390443
 20
59.91501919478028
 11
33.7976824213893
 21
61.29073525763598
  0
LINE
  8
0
 10
33.7976824213893
 20
61.29073525763598
 11
33.76755436025043
 21
61.42506085835473
  0
LINE
  8
0
 10
33.76755436025043
 20
61.42506085835473
 11
33.79596997737001
 21
61.64242636271172
  0
LINE
  8
0
 10
33.79596997737001
 20
61.64242636271172
 11
33.888917284692205
 21
61.93860111235718
  0
LINE
  8
0
 10
33.888917284692205
 20
61.93860111235718
 11
34.04140403783894
 21
62.311160348495086
  0
LINE
  8
0
 10
34.04140403783894
 20
62.311160348495086
 11
34.174198508431445
 21
62.67298533496865
  0
LINE
  8
0
 10
34.174198508431445
 20
62.67298533496865
 11
34.3230632568851
 21
63.12982693500414
  0
LINE
  8
0
 10
34.3230632568851
 20
63.12982693500414
 11
34.481156824226424
 21
63.68323228270489
  0
LINE
  8
0
 10
34.481156824226424
 20
63.68323228270489
 11
34.641550285109275
 21
64.33437275302737
  0
LINE
  8
0
 10
34.641550285109275
 20
64.33437275302737
 11
34.797245667157654
 21
65.08403979066925
  0
LINE
  8
0
 10
34.797245667157654
 20
65.08403979066925
 11
34.94119455253517
 21
65.93264158662117
  0
LINE
  8
0
 10
34.94119455253517
 20
65.93264158662117
 11
35.003123460891636
 21
66.40163319857946
  0
LINE
  8
0
 10
35.003123460891636
 20
66.40163319857946
 11
33.91969752654122
 21
67.02714945342368
  0
LINE
  8
0
 10
33.91969752654122
 20
67.02714945342368
 11
32.77403532339022
 21
67.52968348865768
  0
LINE
  8
0
 10
32.77403532339022
 20
67.52968348865768
 11
32.43281473031415
 21
67.20202996946634
  0
LINE
  8
0
 10
32.43281473031415
 20
67.20202996946634
 11
31.834292619037395
 21
66.58346908159294
  0
LINE
  8
0
 10
31.834292619037395
 20
66.58346908159294
 11
31.3224453731661
 21
66.01403592817177
  0
LINE
  8
0
 10
31.3224453731661
 20
66.01403592817177
 11
30.892769765129536
 21
65.49916813325586
  0
LINE
  8
0
 10
30.892769765129536
 20
65.49916813325586
 11
30.540483630465257
 21
65.0440356973413
  0
LINE
  8
0
 10
30.540483630465257
 20
65.0440356973413
 11
30.260539562255843
 21
64.65352797714895
  0
LINE
  8
0
 10
30.260539562255843
 20
64.65352797714895
 11
30.04763918064082
 21
64.33224131423255
  0
LINE
  8
0
 10
30.04763918064082
 20
64.33224131423255
 11
29.837751979150354
 21
63.98873009612789
  0
LINE
  8
0
 10
29.837751979150354
 20
63.98873009612789
 11
29.65415137274404
 21
63.7384312715335
  0
LINE
  8
0
 10
29.65415137274404
 20
63.7384312715335
 11
29.495834564344268
 21
63.58680344440859
  0
LINE
  8
0
 10
29.495834564344268
 20
63.58680344440859
 11
29.36975678258543
 21
63.53152722869574
  0
LINE
  8
0
 10
29.36975678258543
 20
63.53152722869574
 11
26.850068631756795
 21
64.63676492483717
  0
LINE
  8
0
 10
26.850068631756795
 20
64.63676492483717
 11
26.80534650717373
 21
64.7669609257328
  0
LINE
  8
0
 10
26.80534650717373
 20
64.7669609257328
 11
26.809677668304012
 21
64.98613312019167
  0
LINE
  8
0
 10
26.809677668304012
 20
64.98613312019167
 11
26.869479191113772
 21
65.29073525763597
  0
LINE
  8
0
 10
26.869479191113772
 20
65.29073525763597
 11
26.980055874168478
 21
65.67780810799042
  0
LINE
  8
0
 10
26.980055874168478
 20
65.67780810799042
 11
27.072240649195408
 21
66.05204554533437
  0
LINE
  8
0
 10
27.072240649195408
 20
66.05204554533437
 11
27.169945557758716
 21
66.52249077243079
  0
LINE
  8
0
 10
27.169945557758716
 20
66.52249077243079
 11
27.266200466436718
 21
67.0899289165962
  0
LINE
  8
0
 10
27.266200466436718
 20
67.0899289165962
 11
27.353989642891964
 21
67.75476200458374
  0
LINE
  8
0
 10
27.353989642891964
 20
67.75476200458374
 11
27.426270522277694
 21
68.51700684306621
  0
LINE
  8
0
 10
27.426270522277694
 20
68.51700684306621
 11
27.475992561515092
 21
69.37629376168441
  0
LINE
  8
0
 10
27.475992561515092
 20
69.37629376168441
 11
27.4859526704507
 21
69.84925160125088
  0
LINE
  8
0
 10
27.4859526704507
 20
69.84925160125088
 11
26.340290467299692
 21
70.35178563648483
  0
LINE
  8
0
 10
26.340290467299692
 20
70.35178563648483
 11
25.146298782539176
 21
70.72523736967153
  0
LINE
  8
0
 10
25.146298782539176
 20
70.72523736967153
 11
24.84319374809694
 21
70.36203541500524
  0
LINE
  8
0
 10
24.84319374809694
 20
70.36203541500524
 11
24.316351043497335
 21
69.68138642007166
  0
LINE
  8
0
 10
24.316351043497335
 20
69.68138642007166
 11
23.87025269190806
 21
69.05910193526543
  0
LINE
  8
0
 10
23.87025269190806
 20
69.05910193526543
 11
23.49982461395112
 21
68.50009118989082
  0
LINE
  8
0
 10
23.49982461395112
 20
68.50009118989082
 11
23.19974492710619
 21
68.00896672863759
  0
LINE
  8
0
 10
23.19974492710619
 20
68.00896672863759
 11
22.96445898936248
 21
67.59003297688737
  0
LINE
  8
0
 10
22.96445898936248
 20
67.59003297688737
 11
22.78819494307917
 21
67.2472755141712
  0
LINE
  8
0
 10
22.78819494307917
 20
67.2472755141712
 11
22.61737067273658
 21
66.88275985884874
  0
LINE
  8
0
 10
22.61737067273658
 20
66.88275985884874
 11
22.462419326065703
 21
66.61378260250356
  0
LINE
  8
0
 10
22.462419326065703
 20
66.61378260250356
 11
22.32174370097732
 21
66.44565890314352
  0
LINE
  8
0
 10
22.32174370097732
 20
66.44565890314352
 11
22.202511964112862
 21
66.37684858414231
  0
LINE
  8
0
 10
22.202511964112862
 20
66.37684858414231
 11
19.576531381001633
 21
67.19819182513298
  0
LINE
  8
0
 10
19.576531381001633
 20
67.19819182513298
 11
19.517758058984622
 21
67.32267782312282
  0
LINE
  8
0
 10
19.517758058984622
 20
67.32267782312282
 11
19.497952189696626
 21
67.54099625414135
  0
LINE
  8
0
 10
19.497952189696626
 20
67.54099625414135
 11
19.52388201851633
 21
67.85032832206089
  0
LINE
  8
0
 10
19.52388201851633
 20
67.85032832206089
 11
19.59120638033787
 21
68.24721624657136
  0
LINE
  8
0
 10
19.59120638033787
 20
68.24721624657136
 11
19.6416624615072
 21
68.62932339925182
  0
LINE
  8
0
 10
19.6416624615072
 20
68.62932339925182
 11
19.687021524944786
 21
69.10766168563418
  0
LINE
  8
0
 10
19.687021524944786
 20
69.10766168563418
 11
19.72026937075847
 21
69.68224469586617
  0
LINE
  8
0
 10
19.72026937075847
 20
69.68224469586617
 11
19.7343886211063
 21
70.3527002284374
  0
LINE
  8
0
 10
19.7343886211063
 20
70.3527002284374
 11
19.722377605867923
 21
71.1182702479855
  0
LINE
  8
0
 10
19.722377605867923
 20
71.1182702479855
 11
19.67726924076411
 21
71.97781171009885
  0
LINE
  8
0
 10
19.67726924076411
 20
71.97781171009885
 11
19.635139648048742
 21
72.44899470978696
  0
LINE
  8
0
 10
19.635139648048742
 20
72.44899470978696
 11
18.441147963288213
 21
72.82244644297359
  0
LINE
  8
0
 10
18.441147963288213
 20
72.82244644297359
 11
17.21332023854715
 21
73.06228267596306
  0
LINE
  8
0
 10
17.21332023854715
 20
73.06228267596306
 11
16.952010047259908
 21
72.66794106554508
  0
LINE
  8
0
 10
16.952010047259908
 20
72.66794106554508
 11
16.50324190609125
 21
71.93346612031826
  0
LINE
  8
0
 10
16.50324190609125
 20
71.93346612031826
 11
16.128307478471452
 21
71.26588399480363
  0
LINE
  8
0
 10
16.128307478471452
 20
71.26588399480363
 11
15.821623425665358
 21
70.66951593216312
  0
LINE
  8
0
 10
15.821623425665358
 20
70.66951593216312
 11
15.57739274753937
 21
70.14836103123602
  0
LINE
  8
0
 10
15.57739274753937
 20
70.14836103123602
 11
15.389620992818791
 21
69.70608653617147
  0
LINE
  8
0
 10
15.389620992818791
 20
69.70608653617147
 11
15.252132888615467
 21
69.34601888494136
  0
LINE
  8
0
 10
15.252132888615467
 20
69.34601888494136
 11
15.122445124658029
 21
68.9649235186707
  0
LINE
  8
0
 10
15.122445124658029
 20
68.9649235186707
 11
14.998023937168517
 21
68.68053285010052
  0
LINE
  8
0
 10
14.998023937168517
 20
68.68053285010052
 11
14.876697106915831
 21
68.4979540724692
  0
LINE
  8
0
 10
14.876697106915831
 20
68.4979540724692
 11
14.765758726715708
 21
68.41644491423936
  0
LINE
  8
0
 10
14.765758726715708
 20
68.41644491423936
 11
12.065361558353285
 21
68.94392370575466
  0
LINE
  8
0
 10
12.065361558353285
 20
68.94392370575466
 11
11.993250467415155
 21
69.0611886094563
  0
LINE
  8
0
 10
11.993250467415155
 20
69.0611886094563
 11
11.949547984132296
 21
69.27600318702395
  0
LINE
  8
0
 10
11.949547984132296
 20
69.27600318702395
 11
11.941291365965558
 21
69.58631031314653
  0
LINE
  8
0
 10
11.941291365965558
 20
69.58631031314653
 11
11.964546180001411
 21
69.98819563004804
  0
LINE
  8
0
 10
11.964546180001411
 20
69.98819563004804
 11
11.972661098837358
 21
70.37353423484754
  0
LINE
  8
0
 10
11.972661098837358
 20
70.37353423484754
 11
11.965123719564108
 21
70.8539592016934
  0
LINE
  8
0
 10
11.965123719564108
 20
70.8539592016934
 11
11.934960918704023
 21
71.42871241859852
  0
LINE
  8
0
 10
11.934960918704023
 20
71.42871241859852
 11
11.87523885437167
 21
72.09665197381115
  0
LINE
  8
0
 10
11.87523885437167
 20
72.09665197381115
 11
11.779081741963617
 21
72.8562541914562
  0
LINE
  8
0
 10
11.779081741963617
 20
72.8562541914562
 11
11.639690526965541
 21
73.70561652808036
  0
LINE
  8
0
 10
11.639690526965541
 20
73.70561652808036
 11
11.545982628784481
 21
74.1693051645552
  0
LINE
  8
0
 10
11.545982628784481
 20
74.1693051645552
 11
10.318154904043407
 21
74.40914139754472
  0
LINE
  8
0
 10
10.318154904043407
 20
74.40914139754472
 11
9.071395304640683
 21
74.51245084335945
  0
LINE
  8
0
 10
9.071395304640683
 20
74.51245084335945
 11
8.855051908250493
 21
74.09175635015089
  0
LINE
  8
0
 10
8.855051908250493
 20
74.09175635015089
 11
8.489805767829141
 21
73.31237098551975
  0
LINE
  8
0
 10
8.489805767829141
 20
73.31237098551975
 11
8.190586460230486
 21
72.60759476196974
  0
LINE
  8
0
 10
8.190586460230486
 20
72.60759476196974
 11
7.951369161531079
 21
71.98110848248223
  0
LINE
  8
0
 10
7.951369161531079
 20
71.98110848248223
 11
7.76595212171283
 21
71.43624925640336
  0
LINE
  8
0
 10
7.76595212171283
 20
71.43624925640336
 11
7.627973844755331
 21
70.97600263127364
  0
LINE
  8
0
 10
7.627973844755331
 20
70.97600263127364
 11
7.530930601970701
 21
70.60299552505496
  0
LINE
  8
0
 10
7.530930601970701
 20
70.60299552505496
 11
7.443953578173156
 21
70.20994642933718
  0
LINE
  8
0
 10
7.443953578173156
 20
70.20994642933718
 11
7.351572854535726
 21
69.91359446601261
  0
LINE
  8
0
 10
7.351572854535726
 20
69.91359446601261
 11
7.251067562484329
 21
69.71877686914269
  0
LINE
  8
0
 10
7.251067562484329
 20
69.71877686914269
 11
7.149769180603054
 21
69.6255582824499
  0
LINE
  8
0
 10
7.149769180603054
 20
69.6255582824499
 11
4.407734590558412
 21
69.85276974650257
  0
LINE
  8
0
 10
4.407734590558412
 20
69.85276974650257
 11
4.3231610616588805
 21
69.96139011883632
  0
LINE
  8
0
 10
4.3231610616588805
 20
69.96139011883632
 11
4.256092453327263
 21
70.17009328497691
  0
LINE
  8
0
 10
4.256092453327263
 20
70.17009328497691
 11
4.213749612333911
 21
70.47760876114457
  0
LINE
  8
0
 10
4.213749612333911
 20
70.47760876114457
 11
4.19265259664349
 21
70.87961312709828
  0
LINE
  8
0
 10
4.19265259664349
 20
70.87961312709828
 11
4.158327849024148
 21
71.26350569534806
  0
LINE
  8
0
 10
4.158327849024148
 20
71.26350569534806
 11
4.097985520614033
 21
71.74018563436081
  0
LINE
  8
0
 10
4.097985520614033
 20
71.74018563436081
 11
4.004778208623004
 21
72.30813233246717
  0
LINE
  8
0
 10
4.004778208623004
 20
72.30813233246717
 11
3.8719397745698063
 21
72.96544802893578
  0
LINE
  8
0
 10
3.8719397745698063
 20
72.96544802893578
 11
3.6928037820788453
 21
73.70986190274003
  0
LINE
  8
0
 10
3.6928037820788453
 20
73.70986190274003
 11
3.4608217377122372
 21
74.53873500568507
  0
LINE
  8
0
 10
3.4608217377122372
 20
74.53873500568507
 11
3.3166730210093216
 21
74.98930072702917
  0
LINE
  8
0
 10
3.3166730210093216
 20
74.98930072702917
 11
2.06991342160659
 21
75.09261017284385
  0
LINE
  8
0
 10
2.06991342160659
 20
75.09261017284385
 11
0.8193559201736265
 21
75.05813879475816
  0
LINE
  8
0
 10
0.8193559201736265
 20
75.05813879475816
 11
0.6506054344461373
 21
74.61619808001882
  0
LINE
  8
0
 10
0.6506054344461373
 20
74.61619808001882
 11
0.3733148881412704
 21
73.80136297852658
  0
LINE
  8
0
 10
0.3733148881412704
 20
73.80136297852658
 11
0.15344281762479192
 21
73.06794768557994
  0
LINE
  8
0
 10
0.15344281762479192
 20
73.06794768557994
 11
-0.015403953014059717
 21
72.41894788401758
  0
LINE
  8
0
 10
-0.015403953014059717
 20
72.41894788401758
 11
-0.13975664283375352
 21
71.85699818570568
  0
LINE
  8
0
 10
-0.13975664283375352
 20
71.85699818570568
 11
-0.22626657265623332
 21
71.38436620107328
  0
LINE
  8
0
 10
-0.22626657265623332
 20
71.38436620107328
 11
-0.2816869805130259
 21
71.0029474408467
  0
LINE
  8
0
 10
-0.2816869805130259
 20
71.0029474408467
 11
-0.3248974809039743
 21
70.6027156992654
  0
LINE
  8
0
 10
-0.3248974809039743
 20
70.6027156992654
 11
-0.3841163638466111
 21
70.29799975257221
  0
LINE
  8
0
 10
-0.3841163638466111
 20
70.29799975257221
 11
-0.4625801195992903
 21
70.09330815818275
  0
LINE
  8
0
 10
-0.4625801195992903
 20
70.09330815818275
 11
-0.5530088780281036
 21
69.98951169039225
  0
LINE
  8
0
 10
-0.5530088780281036
 20
69.98951169039225
 11
-3.303396304290314
 21
69.91369778759747
  0
LINE
  8
0
 10
-3.303396304290314
 20
69.91369778759747
 11
-3.3994056630767453
 21
70.01235512438424
  0
LINE
  8
0
 10
-3.3994056630767453
 20
70.01235512438424
 11
-3.4890262744055214
 21
70.21241350537767
  0
LINE
  8
0
 10
-3.4890262744055214
 20
70.21241350537767
 11
-3.56494135349496
 21
70.5134045102812
  0
LINE
  8
0
 10
-3.56494135349496
 20
70.5134045102812
 11
-3.6301341097199487
 21
70.91064813685398
  0
LINE
  8
0
 10
-3.6301341097199487
 20
70.91064813685398
 11
-3.706481867856014
 21
71.28843473281013
  0
LINE
  8
0
 10
-3.706481867856014
 20
71.28843473281013
 11
-3.818896671277981
 21
71.7555833952579
  0
LINE
  8
0
 10
-3.818896671277981
 20
71.7555833952579
 11
-3.9740170838943505
 21
72.30982947101148
  0
LINE
  8
0
 10
-3.9740170838943505
 20
72.30982947101148
 11
-4.1783594090267
 21
72.94854238660443
  0
LINE
  8
0
 10
-4.1783594090267
 20
72.94854238660443
 11
-4.438299813315779
 21
73.6687317405496
  0
LINE
  8
0
 10
-4.438299813315779
 20
73.6687317405496
 11
-4.760056739283512
 21
74.46705421316709
  0
LINE
  8
0
 10
-4.760056739283512
 20
74.46705421316709
 11
-4.9528965043565325
 21
74.89902776187584
  0
LINE
  8
0
 10
-4.9528965043565325
 20
74.89902776187584
 11
-6.203454005789483
 21
74.8645563837902
  0
LINE
  8
0
 10
-6.203454005789483
 20
74.8645563837902
 11
-7.442629335235388
 21
74.69272261763804
  0
LINE
  8
0
 10
-7.442629335235388
 20
74.69272261763804
 11
-7.561738507998902
 21
74.23490024297588
  0
LINE
  8
0
 10
-7.561738507998902
 20
74.23490024297588
 11
-7.747707528582873
 21
73.39450639894979
  0
LINE
  8
0
 10
-7.747707528582873
 20
73.39450639894979
 11
-7.885563412927703
 21
72.64135470475219
  0
LINE
  8
0
 10
-7.885563412927703
 20
72.64135470475219
 11
-7.981990084436341
 21
71.97771935954752
  0
LINE
  8
0
 10
-7.981990084436341
 20
71.97771935954752
 11
-8.043768951055686
 21
71.40550049710288
  0
LINE
  8
0
 10
-8.043768951055686
 20
71.40550049710288
 11
-8.07776042038456
 21
70.92622026501695
  0
LINE
  8
0
 10
-8.07776042038456
 20
70.92622026501695
 11
-8.090885264636604
 21
70.54101975784809
  0
LINE
  8
0
 10
-8.090885264636604
 20
70.54101975784809
 11
-8.089804724680707
 21
70.13846364157777
  0
LINE
  8
0
 10
-8.089804724680707
 20
70.13846364157777
 11
-8.115142929909652
 21
69.82908255032967
  0
LINE
  8
0
 10
-8.115142929909652
 20
69.82908255032967
 11
-8.170612705658595
 21
69.61700163709399
  0
LINE
  8
0
 10
-8.170612705658595
 20
69.61700163709399
 11
-8.249074158005662
 21
69.50388723671831
  0
LINE
  8
0
 10
-8.249074158005662
 20
69.50388723671831
 11
-10.974428442904163
 21
69.12596824515578
  0
LINE
  8
0
 10
-10.974428442904163
 20
69.12596824515578
 11
-11.080708208019551
 21
69.21346497997177
  0
LINE
  8
0
 10
-11.080708208019551
 20
69.21346497997177
 11
-11.191792949527251
 21
69.40245013807902
  0
LINE
  8
0
 10
-11.191792949527251
 20
69.40245013807902
 11
-11.300358760489923
 21
69.69326304865216
  0
LINE
  8
0
 10
-11.300358760489923
 20
69.69326304865216
 11
-11.408855905501355
 21
70.08092393633784
  0
LINE
  8
0
 10
-11.408855905501355
 20
70.08092393633784
 11
-11.526299915793786
 21
70.44801874248876
  0
LINE
  8
0
 10
-11.526299915793786
 20
70.44801874248876
 11
-11.689422630795189
 21
70.8999655764258
  0
LINE
  8
0
 10
-11.689422630795189
 20
70.8999655764258
 11
-11.904573192359418
 21
71.43378323326857
  0
LINE
  8
0
 10
-11.904573192359418
 20
71.43378323326857
 11
-12.17793896955326
 21
72.04614025841398
  0
LINE
  8
0
 10
-12.17793896955326
 20
72.04614025841398
 11
-12.515528461256993
 21
72.73336296933758
  0
LINE
  8
0
 10
-12.515528461256993
 20
72.73336296933758
 11
-12.923154575608084
 21
73.49144425824616
  0
LINE
  8
0
 10
-12.923154575608084
 20
73.49144425824616
 11
-13.162344575530899
 21
73.89958206060514
  0
LINE
  8
0
 10
-13.162344575530899
 20
73.89958206060514
 11
-14.40151990497679
 21
73.72774829445294
  0
LINE
  8
0
 10
-14.40151990497679
 20
73.72774829445294
 11
-15.614271152567538
 21
73.42063796938308
  0
LINE
  8
0
 10
-15.614271152567538
 20
73.42063796938308
 11
-15.682293188359294
 21
72.95249127824404
  0
LINE
  8
0
 10
-15.682293188359294
 20
72.95249127824404
 11
-15.774683271232789
 21
72.0967399345229
  0
LINE
  8
0
 10
-15.774683271232789
 20
72.0967399345229
 11
-15.828849585714558
 21
71.33299408039558
  0
LINE
  8
0
 10
-15.828849585714558
 20
71.33299408039558
 11
-15.851685668923894
 21
70.66277882565514
  0
LINE
  8
0
 10
-15.851685668923894
 20
70.66277882565514
 11
-15.850140800590003
 21
70.08723676091958
  0
LINE
  8
0
 10
-15.850140800590003
 20
70.08723676091958
 11
-15.83120119903368
 21
69.60712609414749
  0
LINE
  8
0
 10
-15.83120119903368
 20
69.60712609414749
 11
-15.801871161851146
 21
69.22281965238693
  0
LINE
  8
0
 10
-15.801871161851146
 20
69.22281965238693
 11
-15.75651269783973
 21
68.82282564736215
  0
LINE
  8
0
 10
-15.75651269783973
 20
68.82282564736215
 11
-15.747662653867543
 21
68.51253487890813
  0
LINE
  8
0
 10
-15.747662653867543
 20
68.51253487890813
 11
-15.779465121676507
 21
68.29563902182049
  0
LINE
  8
0
 10
-15.779465121676507
 20
68.29563902182049
 11
-15.845006852197038
 21
68.17457974445138
  0
LINE
  8
0
 10
-15.845006852197038
 20
68.17457974445138
 11
-18.512245886575908
 21
67.49914308873605
  0
LINE
  8
0
 10
-18.512245886575908
 20
67.49914308873605
 11
-18.627505965642136
 21
67.57441712974679
  0
LINE
  8
0
 10
-18.627505965642136
 20
67.57441712974679
 11
-18.75870641904624
 21
67.75003504115452
  0
LINE
  8
0
 10
-18.75870641904624
 20
67.75003504115452
 11
-18.8986051200042
 21
68.0271397826085
  0
LINE
  8
0
 10
-18.8986051200042
 20
68.0271397826085
 11
-19.049089645435764
 21
68.40051225336997
  0
LINE
  8
0
 10
-19.049089645435764
 20
68.40051225336997
 11
-19.206204296693485
 21
68.75245923604876
  0
LINE
  8
0
 10
-19.206204296693485
 20
68.75245923604876
 11
-19.418054834486096
 21
69.18371821913449
  0
LINE
  8
0
 10
-19.418054834486096
 20
69.18371821913449
 11
-19.69062390863147
 21
69.69062763384095
  0
LINE
  8
0
 10
-19.69062390863147
 20
69.69062763384095
 11
-20.029694847662764
 21
70.26919558377438
  0
LINE
  8
0
 10
-20.029694847662764
 20
70.26919558377438
 11
-20.440835547662708
 21
70.91510969890231
  0
LINE
  8
0
 10
-20.440835547662708
 20
70.91510969890231
 11
-20.929382821553904
 21
71.62374772417878
  0
LINE
  8
0
 10
-20.929382821553904
 20
71.62374772417878
 11
-21.212019613742804
 21
72.00309554014537
  0
LINE
  8
0
 10
-21.212019613742804
 20
72.00309554014537
 11
-22.42477086133353
 21
71.69598521507551
  0
LINE
  8
0
 10
-22.42477086133353
 20
71.69598521507551
 11
-23.596376869759755
 21
71.25732623441176
  0
LINE
  8
0
 10
-23.596376869759755
 20
71.25732623441176
 11
-23.61248607321033
 21
70.78453789345794
  0
LINE
  8
0
 10
-23.61248607321033
 20
70.78453789345794
 11
-23.610175727922186
 21
69.92381671212303
  0
LINE
  8
0
 10
-23.610175727922186
 20
69.92381671212303
 11
-23.57999496685872
 21
69.15874753813753
  0
LINE
  8
0
 10
-23.57999496685872
 20
69.15874753813753
 11
-23.528963262653175
 21
68.4900878791562
  0
LINE
  8
0
 10
-23.528963262653175
 20
68.4900878791562
 11
-23.464113411974886
 21
67.9182089131457
  0
LINE
  8
0
 10
-23.464113411974886
 20
67.9182089131457
 11
-23.392472640639998
 21
67.4430957048069
  0
LINE
  8
0
 10
-23.392472640639998
 20
67.4430957048069
 11
-23.32104374894276
 21
67.06434828806232
  0
LINE
  8
0
 10
-23.32104374894276
 20
67.06434828806232
 11
-23.231957951184715
 21
66.67177177965783
  0
LINE
  8
0
 10
-23.231957951184715
 20
66.67177177965783
 11
-23.189027085556635
 21
66.36433784359592
  0
LINE
  8
0
 10
-23.189027085556635
 20
66.36433784359592
 11
-23.196776206547188
 21
66.14525986454647
  0
LINE
  8
0
 10
-23.196776206547188
 20
66.14525986454647
 11
-23.248602627417842
 21
66.01772520581991
  0
LINE
  8
0
 10
-23.248602627417842
 20
66.01772520581991
 11
-25.825349742537476
 21
65.05296977198142
  0
LINE
  8
0
 10
-25.825349742537476
 20
65.05296977198142
 11
-25.94819103433012
 21
65.115107394298
  0
LINE
  8
0
 10
-25.94819103433012
 20
65.115107394298
 11
-26.097914603855138
 21
65.27522629546003
  0
LINE
  8
0
 10
-26.097914603855138
 20
65.27522629546003
 11
-26.267448014090558
 21
65.53525919160963
  0
LINE
  8
0
 10
-26.267448014090558
 20
65.53525919160963
 11
-26.45809324165526
 21
65.88981100943559
  0
LINE
  8
0
 10
-26.45809324165526
 20
65.88981100943559
 11
-26.652971374845148
 21
66.22233800903257
  0
LINE
  8
0
 10
-26.652971374845148
 20
66.22233800903257
 11
-26.910978156880503
 21
66.62767424141121
  0
LINE
  8
0
 10
-26.910978156880503
 20
66.62767424141121
 11
-27.237657124278748
 21
67.1015222203645
  0
LINE
  8
0
 10
-27.237657124278748
 20
67.1015222203645
 11
-27.638317363265326
 21
67.63927806392266
  0
LINE
  8
0
 10
-27.638317363265326
 20
67.63927806392266
 11
-28.118018580409434
 21
68.23604306087576
  0
LINE
  8
0
 10
-28.118018580409434
 20
68.23604306087576
 11
-28.681556711739372
 21
68.88663591683978
  0
LINE
  8
0
 10
-28.681556711739372
 20
68.88663591683978
 11
-29.004209468407108
 21
69.23258897780632
  0
LINE
  8
0
 10
-29.004209468407108
 20
69.23258897780632
 11
-30.17581547683329
 21
68.79392999714248
  0
LINE
  8
0
 10
-30.17581547683329
 20
68.79392999714248
 11
-31.292054536252227
 21
68.22904708668678
  0
LINE
  8
0
 10
-31.292054536252227
 20
68.22904708668678
 11
-31.256055363453882
 21
67.75735610592137
  0
LINE
  8
0
 10
-31.256055363453882
 20
67.75735610592137
 11
-31.159072634466224
 21
66.90211307615029
  0
LINE
  8
0
 10
-31.159072634466224
 20
66.90211307615029
 11
-31.044911151412887
 21
66.14500748568865
  0
LINE
  8
0
 10
-31.044911151412887
 20
66.14500748568865
 11
-30.920631115552137
 21
65.48602004493608
  0
LINE
  8
0
 10
-30.920631115552137
 20
65.48602004493608
 11
-30.793263471868748
 21
64.92474601361025
  0
LINE
  8
0
 10
-30.793263471868748
 20
64.92474601361025
 11
-30.669791152672143
 21
64.46039749444853
  0
LINE
  8
0
 10
-30.669791152672143
 20
64.46039749444853
 11
-30.55713045644526
 21
64.09180658329437
  0
LINE
  8
0
 10
-30.55713045644526
 20
64.09180658329437
 11
-30.425398705846554
 21
63.71141291852398
  0
LINE
  8
0
 10
-30.425398705846554
 20
63.71141291852398
 11
-30.348908141115608
 21
63.41056764637692
  0
LINE
  8
0
 10
-30.348908141115608
 20
63.41056764637692
 11
-30.332509851456162
 21
63.191966855260425
  0
LINE
  8
0
 10
-30.332509851456162
 20
63.191966855260425
 11
-30.3699918601335
 21
63.05950491317034
  0
LINE
  8
0
 10
-30.3699918601335
 20
63.05950491317034
 11
-32.824968836570484
 21
61.81714152528315
  0
LINE
  8
0
 10
-32.824968836570484
 20
61.81714152528315
 11
-32.95390021421241
 21
61.865388462344455
  0
LINE
  8
0
 10
-32.95390021421241
 20
61.865388462344455
 11
-33.120329458545235
 21
62.008064726703516
  0
LINE
  8
0
 10
-33.120329458545235
 20
62.008064726703516
 11
-33.317439672113906
 21
62.24786933043938
  0
LINE
  8
0
 10
-33.317439672113906
 20
62.24786933043938
 11
-33.54593142700398
 21
62.57929671655005
  0
LINE
  8
0
 10
-33.54593142700398
 20
62.57929671655005
 11
-33.77620748557802
 21
62.8883673057431
  0
LINE
  8
0
 10
-33.77620748557802
 20
62.8883673057431
 11
-34.077238659027465
 21
63.262860554636596
  0
LINE
  8
0
 10
-34.077238659027465
 20
63.262860554636596
 11
-34.454062079545416
 21
63.69789522526372
  0
LINE
  8
0
 10
-34.454062079545416
 20
63.69789522526372
 11
-34.91144814593473
 21
64.1883113349692
  0
LINE
  8
0
 10
-34.91144814593473
 20
64.1883113349692
 11
-35.45388695726736
 21
64.7286832950837
  0
LINE
  8
0
 10
-35.45388695726736
 20
64.7286832950837
 11
-36.08557535651068
 21
65.31333366578032
  0
LINE
  8
0
 10
-36.08557535651068
 20
65.31333366578032
 11
-36.44432751026834
 21
65.62169257022714
  0
LINE
  8
0
 10
-36.44432751026834
 20
65.62169257022714
 11
-37.560566569687296
 21
65.0568096597714
  0
LINE
  8
0
 10
-37.560566569687296
 20
65.0568096597714
 11
-38.60788905001513
 21
64.37255973284607
  0
LINE
  8
0
 10
-38.60788905001513
 20
64.37255973284607
 11
-38.520218482159805
 21
63.90769180180591
  0
LINE
  8
0
 10
-38.520218482159805
 20
63.90769180180591
 11
-38.329740608426256
 21
63.06830841543716
  0
LINE
  8
0
 10
-38.329740608426256
 20
63.06830841543716
 11
-38.13298416914007
 21
62.32835664476516
  0
LINE
  8
0
 10
-38.13298416914007
 20
62.32835664476516
 11
-37.93696439290527
 21
61.68704063708407
  0
LINE
  8
0
 10
-37.93696439290527
 20
61.68704063708407
 11
-37.748625026874315
 21
61.143184646861215
  0
LINE
  8
0
 10
-37.748625026874315
 20
61.143184646861215
 11
-37.574819946511
 21
60.69523737887606
  0
LINE
  8
0
 10
-37.574819946511
 20
60.69523737887606
 11
-37.422294993992445
 21
60.34127716766722
  0
LINE
  8
0
 10
-37.422294993992445
 20
60.34127716766722
 11
-37.249516335556784
 21
59.97768381032635
  0
LINE
  8
0
 10
-37.249516335556784
 20
59.97768381032635
 11
-37.14039456356195
 21
59.6870790561622
  0
LINE
  8
0
 10
-37.14039456356195
 20
59.6870790561622
 11
-37.10004791627525
 21
59.47160897045832
  0
LINE
  8
0
 10
-37.10004791627525
 20
59.47160897045832
 11
-37.122730531948406
 21
59.335827653544
  0
LINE
  8
0
 10
-37.122730531948406
 20
59.335827653544
 11
-39.42613727480873
 21
57.83093692018699
  0
LINE
  8
0
 10
-39.42613727480873
 20
57.83093692018699
 11
-39.55959368603044
 21
57.86470751953416
  0
LINE
  8
0
 10
-39.55959368603044
 20
57.86470751953416
 11
-39.740708379595894
 21
57.988209250515304
  0
LINE
  8
0
 10
-39.740708379595894
 20
57.988209250515304
 11
-39.96300274551767
 21
58.204874658796
  0
LINE
  8
0
 10
-39.96300274551767
 20
58.204874658796
 11
-40.226567447351876
 21
58.50915453368742
  0
LINE
  8
0
 10
-40.226567447351876
 20
58.50915453368742
 11
-40.489446191899205
 21
58.79101701420188
  0
LINE
  8
0
 10
-40.489446191899205
 20
58.79101701420188
 11
-40.829847646104696
 21
59.13012143887065
  0
LINE
  8
0
 10
-40.829847646104696
 20
59.13012143887065
 11
-41.252241393875806
 21
59.52106206958378
  0
LINE
  8
0
 10
-41.252241393875806
 20
59.52106206958378
 11
-41.760801240413464
 21
59.95818545820001
  0
LINE
  8
0
 10
-41.760801240413464
 20
59.95818545820001
 11
-42.35939317357213
 21
60.435604997887395
  0
LINE
  8
0
 10
-42.35939317357213
 20
60.435604997887395
 11
-43.051563999269796
 21
60.94721601980472
  0
LINE
  8
0
 10
-43.051563999269796
 20
60.94721601980472
 11
-43.44206078494934
 21
61.21423770834597
  0
LINE
  8
0
 10
-43.44206078494934
 20
61.21423770834597
 11
-44.489383265277134
 21
60.529987781420616
  0
LINE
  8
0
 10
-44.489383265277134
 20
60.529987781420616
 11
-45.45507609034326
 21
59.734676705228935
  0
LINE
  8
0
 10
-45.45507609034326
 20
59.734676705228935
 11
-45.31679832936303
 21
59.282274690870075
  0
LINE
  8
0
 10
-45.31679832936303
 20
59.282274690870075
 11
-45.03513745424255
 21
58.468939925155325
  0
LINE
  8
0
 10
-45.03513745424255
 20
58.468939925155325
 11
-44.758174415363115
 21
57.75512398640368
  0
LINE
  8
0
 10
-44.758174415363115
 20
57.75512398640368
 11
-44.49279431330232
 21
57.13926411937763
  0
LINE
  8
0
 10
-44.49279431330232
 20
57.13926411937763
 11
-44.24576940969615
 21
56.61942784525221
  0
LINE
  8
0
 10
-44.24576940969615
 20
56.61942784525221
 11
-44.02374132639914
 21
56.193319301471504
  0
LINE
  8
0
 10
-44.02374132639914
 20
56.193319301471504
 11
-43.83320356389671
 21
55.858286387684885
  0
LINE
  8
0
 10
-43.83320356389671
 20
55.858286387684885
 11
-43.621475296485336
 21
55.515906868595
  0
LINE
  8
0
 10
-43.621475296485336
 20
55.515906868595
 11
-43.48104690771835
 21
55.23907018046569
  0
LINE
  8
0
 10
-43.48104690771835
 20
55.23907018046569
 11
-43.41724165644745
 21
55.029346315131356
  0
LINE
  8
0
 10
-43.41724165644745
 20
55.029346315131356
 11
-43.424849542888836
 21
54.89189382464589
  0
LINE
  8
0
 10
-43.424849542888836
 20
54.89189382464589
 11
-45.54872581459166
 21
53.142743080743024
  0
LINE
  8
0
 10
-45.54872581459166
 20
53.142743080743024
 11
-45.68508727934575
 21
53.16162741304683
  0
LINE
  8
0
 10
-45.68508727934575
 20
53.16162741304683
 11
-45.87868893510843
 21
53.26445546693584
  0
LINE
  8
0
 10
-45.87868893510843
 20
53.26445546693584
 11
-46.123469100908935
 21
53.455351655207586
  0
LINE
  8
0
 10
-46.123469100908935
 20
53.455351655207586
 11
-46.418907431241216
 21
53.728790473387015
  0
LINE
  8
0
 10
-46.418907431241216
 20
53.728790473387015
 11
-46.711197869908005
 21
53.98002341653045
  0
LINE
  8
0
 10
-46.711197869908005
 20
53.98002341653045
 11
-47.08683759233551
 21
54.27962274862206
  0
LINE
  8
0
 10
-47.08683759233551
 20
54.27962274862206
 11
-47.54967437945158
 21
54.621723849746544
  0
LINE
  8
0
 10
-47.54967437945158
 20
54.621723849746544
 11
-48.103234778514036
 21
55.00024843147877
  0
LINE
  8
0
 10
-48.103234778514036
 20
55.00024843147877
 11
-48.75071373830431
 21
55.40892032425688
  0
LINE
  8
0
 10
-48.75071373830431
 20
55.40892032425688
 11
-49.49496497427181
 21
55.84128173263549
  0
LINE
  8
0
 10
-49.49496497427181
 20
55.84128173263549
 11
-49.912466289875965
 21
56.0637249236893
  0
LINE
  8
0
 10
-49.912466289875965
 20
56.0637249236893
 11
-50.87815911494214
 21
55.2684138474976
  0
LINE
  8
0
 10
-50.87815911494214
 20
55.2684138474976
 11
-51.7505000820125
 21
54.37169562114769
  0
LINE
  8
0
 10
-51.7505000820125
 20
54.37169562114769
 11
-51.5632936326097
 21
53.93725107108452
  0
LINE
  8
0
 10
-51.5632936326097
 20
53.93725107108452
 11
-51.19386873757831
 21
53.15983770830705
  0
LINE
  8
0
 10
-51.19386873757831
 20
53.15983770830705
 11
-50.84006105521355
 21
52.48082236001153
  0
LINE
  8
0
 10
-50.84006105521355
 20
52.48082236001153
 11
-50.50854198227238
 21
51.89789433816031
  0
LINE
  8
0
 10
-50.50854198227238
 20
51.89789433816031
 11
-50.20583008879197
 21
51.408387888311346
  0
LINE
  8
0
 10
-50.20583008879197
 20
51.408387888311346
 11
-49.93827412272527
 21
51.009290449234655
  0
LINE
  8
0
 10
-49.93827412272527
 20
51.009290449234655
 11
-49.712036420566456
 21
50.69725167859599
  0
LINE
  8
0
 10
-49.712036420566456
 20
50.69725167859599
 11
-49.46392863853102
 21
50.380242021319276
  0
LINE
  8
0
 10
-49.46392863853102
 20
50.380242021319276
 11
-49.29389824340218
 21
50.120533821605775
  0
LINE
  8
0
 10
-49.29389824340218
 20
50.120533821605775
 11
-49.20740889746463
 21
49.91910194026668
  0
LINE
  8
0
 10
-49.20740889746463
 20
49.91910194026668
 11
-49.19984970523876
 21
49.78164676324648
  0
LINE
  8
0
 10
-49.19984970523876
 20
49.78164676324648
 11
-51.118414524924646
 21
47.80946832936634
  0
LINE
  8
0
 10
-51.118414524924646
 20
47.80946832936634
 11
-51.25602579974915
 21
47.81323716441401
  0
LINE
  8
0
 10
-51.25602579974915
 20
47.81323716441401
 11
-51.45976435586784
 21
47.89414334793124
  0
LINE
  8
0
 10
-51.45976435586784
 20
47.89414334793124
 11
-51.72405902192226
 21
48.05695309506324
  0
LINE
  8
0
 10
-51.72405902192226
 20
48.05695309506324
 11
-52.04778475963374
 21
48.29623167968803
  0
LINE
  8
0
 10
-52.04778475963374
 20
48.29623167968803
 11
-52.365938882441704
 21
48.51378545785985
  0
LINE
  8
0
 10
-52.365938882441704
 20
48.51378545785985
 11
-52.77225711571602
 21
48.77024296733071
  0
LINE
  8
0
 10
-52.77225711571602
 20
48.77024296733071
 11
-53.269918730556775
 21
49.059351894921335
  0
LINE
  8
0
 10
-53.269918730556775
 20
49.059351894921335
 11
-53.86176020877221
 21
49.3746828941103
  0
LINE
  8
0
 10
-53.86176020877221
 20
49.3746828941103
 11
-54.55026667772049
 21
49.709646416802435
  0
LINE
  8
0
 10
-54.55026667772049
 20
49.709646416802435
 11
-55.3375641221426
 21
50.0575099298369
  0
LINE
  8
0
 10
-55.3375641221426
 20
50.0575099298369
 11
-55.77700206726225
 21
50.232674464393476
  0
LINE
  8
0
 10
-55.77700206726225
 20
50.232674464393476
 11
-56.649343034332595
 21
49.33595623804356
  0
LINE
  8
0
 10
-56.649343034332595
 20
49.33595623804356
 11
-57.4177431057713
 21
48.34871580607656
  0
LINE
  8
0
 10
-57.4177431057713
 20
48.34871580607656
 11
-57.183880400645066
 21
47.937502288632594
  0
LINE
  8
0
 10
-57.183880400645066
 20
47.937502288632594
 11
-56.73117580349224
 21
47.205447073904494
  0
LINE
  8
0
 10
-56.73117580349224
 20
47.205447073904494
 11
-56.304818223625475
 21
46.569474642574825
  0
LINE
  8
0
 10
-56.304818223625475
 20
46.569474642574825
 11
-55.91118437226178
 21
46.026554422428504
  0
LINE
  8
0
 10
-55.91118437226178
 20
46.026554422428504
 11
-55.556460001229595
 21
45.573319742054146
  0
LINE
  8
0
 10
-55.556460001229595
 20
45.573319742054146
 11
-55.24662391938033
 21
45.206077909960136
  0
LINE
  8
0
 10
-55.24662391938033
 20
45.206077909960136
 11
-54.987432496799634
 21
44.92082101044607
  0
LINE
  8
0
 10
-54.987432496799634
 20
44.92082101044607
 11
-54.705956892518344
 21
44.633029282789195
  0
LINE
  8
0
 10
-54.705956892518344
 20
44.633029282789195
 11
-54.50838842969525
 21
44.39360207722598
  0
LINE
  8
0
 10
-54.50838842969525
 20
44.39360207722598
 11
-54.400264852589146
 21
44.20290729005471
  0
LINE
  8
0
 10
-54.400264852589146
 20
44.20290729005471
 11
-54.377630340049684
 21
44.06711794614708
  0
LINE
  8
0
 10
-54.377630340049684
 20
44.06711794614708
 11
-56.067594929764425
 21
41.89585139689327
  0
LINE
  8
0
 10
-56.067594929764425
 20
41.89585139689327
 11
-56.204785600196146
 21
41.884458986132735
  0
LINE
  8
0
 10
-56.204785600196146
 20
41.884458986132735
 11
-56.41618794659112
 21
41.942461207808705
  0
LINE
  8
0
 10
-56.41618794659112
 20
41.942461207808705
 11
-56.6967889336766
 21
42.07520822401871
  0
LINE
  8
0
 10
-56.6967889336766
 20
42.07520822401871
 11
-57.04487248684199
 21
42.27742205720687
  0
LINE
  8
0
 10
-57.04487248684199
 20
42.27742205720687
 11
-57.38502833372323
 21
42.45865586224624
  0
LINE
  8
0
 10
-57.38502833372323
 20
42.45865586224624
 11
-57.81709292490566
 21
42.66885850233791
  0
LINE
  8
0
 10
-57.81709292490566
 20
42.66885850233791
 11
-58.343538429617226
 21
42.90146586565105
  0
LINE
  8
0
 10
-58.343538429617226
 20
42.90146586565105
 11
-58.96647683316981
 21
43.1497755911253
  0
LINE
  8
0
 10
-58.96647683316981
 20
43.1497755911253
 11
-59.68765327541863
 21
43.40696474031958
  0
LINE
  8
0
 10
-59.68765327541863
 20
43.40696474031958
 11
-60.508440203821465
 21
43.666107766190066
  0
LINE
  8
0
 10
-60.508440203821465
 20
43.666107766190066
 11
-60.96448059708128
 21
43.791867384084064
  0
LINE
  8
0
 10
-60.96448059708128
 20
43.791867384084064
 11
-61.73288066851996
 21
42.8046269521171
  0
LINE
  8
0
 10
-61.73288066851996
 20
42.8046269521171
 11
-62.38801250836214
 21
41.73884807602581
  0
LINE
  8
0
 10
-62.38801250836214
 20
41.73884807602581
 11
-62.110332323953834
 21
41.35585716625821
  0
LINE
  8
0
 10
-62.110332323953834
 20
41.35585716625821
 11
-61.57984324523908
 21
40.67804625821799
  0
LINE
  8
0
 10
-61.57984324523908
 20
40.67804625821799
 11
-61.086111171330614
 21
40.09283658765943
  0
LINE
  8
0
 10
-61.086111171330614
 20
40.09283658765943
 11
-60.63514072326942
 21
39.596514485231346
  0
LINE
  8
0
 10
-60.63514072326942
 20
39.596514485231346
 11
-60.2327097480274
 21
39.18505322938338
  0
LINE
  8
0
 10
-60.2327097480274
 20
39.18505322938338
 11
-59.88435454071417
 21
38.85412482263471
  0
LINE
  8
0
 10
-59.88435454071417
 20
38.85412482263471
 11
-59.5953556304717
 21
38.5991124265861
  0
LINE
  8
0
 10
-59.5953556304717
 20
38.5991124265861
 11
-59.283928936483576
 21
38.34403203026982
  0
LINE
  8
0
 10
-59.283928936483576
 20
38.34403203026982
 11
-59.06122061947155
 21
38.12779214079573
  0
LINE
  8
0
 10
-59.06122061947155
 20
38.12779214079573
 11
-58.932775284954886
 21
37.950149224186546
  0
LINE
  8
0
 10
-58.932775284954886
 20
37.950149224186546
 11
-58.89534020442255
 21
37.81767401208142
  0
LINE
  8
0
 10
-58.89534020442255
 20
37.81767401208142
 11
-60.33619068333371
 21
35.473675582086265
  0
LINE
  8
0
 10
-60.33619068333371
 20
35.473675582086265
 11
-60.471295440477014
 21
35.44726021395158
  0
LINE
  8
0
 10
-60.471295440477014
 20
35.44726021395158
 11
-60.68779543903626
 21
35.48165440538704
  0
LINE
  8
0
 10
-60.68779543903626
 20
35.48165440538704
 11
-60.981296631281744
 21
35.582727321722125
  0
LINE
  8
0
 10
-60.981296631281744
 20
35.582727321722125
 11
-61.34951273709208
 21
35.745421801464865
  0
LINE
  8
0
 10
-61.34951273709208
 20
35.745421801464865
 11
-61.70754127685278
 21
35.88813570048442
  0
LINE
  8
0
 10
-61.70754127685278
 20
35.88813570048442
 11
-62.16010754709658
 21
36.04953189589424
  0
LINE
  8
0
 10
-62.16010754709658
 20
36.04953189589424
 11
-62.70894660639373
 21
36.22281415663757
  0
LINE
  8
0
 10
-62.70894660639373
 20
36.22281415663757
 11
-63.355420306919065
 21
36.401088464699114
  0
LINE
  8
0
 10
-63.355420306919065
 20
36.401088464699114
 11
-64.10051261739103
 21
36.577381312521986
  0
LINE
  8
0
 10
-64.10051261739103
 20
36.577381312521986
 11
-64.94482578833123
 21
36.74465820593887
  0
LINE
  8
0
 10
-64.94482578833123
 20
36.74465820593887
 11
-65.41193291712571
 21
36.819486355767566
  0
LINE
  8
0
 10
-65.41193291712571
 20
36.819486355767566
 11
-66.06706475696782
 21
35.753707479676244
  0
LINE
  8
0
 10
-66.06706475696782
 20
35.753707479676244
 11
-66.60097595214285
 21
34.622327271274045
  0
LINE
  8
0
 10
-66.60097595214285
 20
34.622327271274045
 11
-66.28284894973567
 21
34.27220796001418
  0
LINE
  8
0
 10
-66.28284894973567
 20
34.27220796001418
 11
-65.68101480825507
 21
33.656869064898466
  0
LINE
  8
0
 10
-65.68101480825507
 20
33.656869064898466
 11
-65.12590147885496
 21
33.129525807765575
  0
LINE
  8
0
 10
-65.12590147885496
 20
33.129525807765575
 11
-64.62306860443496
 21
32.68582650104348
  0
LINE
  8
0
 10
-64.62306860443496
 20
32.68582650104348
 11
-64.17781599187512
 21
32.32113325198769
  0
LINE
  8
0
 10
-64.17781599187512
 20
32.32113325198769
 11
-63.7951702194202
 21
32.03053529315479
  0
LINE
  8
0
 10
-63.7951702194202
 20
32.03053529315479
 11
-63.47987187679801
 21
31.808862905610734
  0
LINE
  8
0
 10
-63.47987187679801
 20
31.808862905610734
 11
-63.142274391298294
 21
31.589590171105264
  0
LINE
  8
0
 10
-63.142274391298294
 20
31.589590171105264
 11
-62.897129597377194
 21
31.399162457052192
  0
LINE
  8
0
 10
-62.897129597377194
 20
31.399162457052192
 11
-62.74992165781433
 21
31.236727755371266
  0
LINE
  8
0
 10
-62.74992165781433
 20
31.236727755371266
 11
-62.69814042045588
 21
31.109174744687902
  0
LINE
  8
0
 10
-62.69814042045588
 20
31.109174744687902
 11
-63.87238681557725
 21
28.620897399627125
  0
LINE
  8
0
 10
-63.87238681557725
 20
28.620897399627125
 11
-64.00376567069819
 21
28.579779720904245
  0
LINE
  8
0
 10
-64.00376567069819
 20
28.579779720904245
 11
-64.22273530471784
 21
28.59014838320677
  0
LINE
  8
0
 10
-64.22273530471784
 20
28.59014838320677
 11
-64.52557399523673
 21
28.658320311379637
  0
LINE
  8
0
 10
-64.52557399523673
 20
28.658320311379637
 11
-64.90945300896622
 21
28.77952054708467
  0
LINE
  8
0
 10
-64.90945300896622
 20
28.77952054708467
 11
-65.281008260132
 21
28.88198218667567
  0
LINE
  8
0
 10
-65.281008260132
 20
28.88198218667567
 11
-65.74858266797894
 21
28.992612806224457
  0
LINE
  8
0
 10
-65.74858266797894
 20
28.992612806224457
 11
-66.31315311915891
 21
29.10446655248691
  0
LINE
  8
0
 10
-66.31315311915891
 20
29.10446655248691
 11
-66.9753148016691
 21
29.210541434532658
  0
LINE
  8
0
 10
-66.9753148016691
 20
29.210541434532658
 11
-67.73527856904387
 21
29.303798024624164
  0
LINE
  8
0
 10
-67.73527856904387
 20
29.303798024624164
 11
-68.59286916436312
 21
29.37717827070065
  0
LINE
  8
0
 10
-68.59286916436312
 20
29.37717827070065
 11
-69.0653729809088
 21
29.40016664009
  0
LINE
  8
0
 10
-69.0653729809088
 20
29.40016664009
 11
-69.59928417608376
 21
28.268786431687783
  0
LINE
  8
0
 10
-69.59928417608376
 20
28.268786431687783
 11
-70.00549376793742
 21
27.08553831409642
  0
LINE
  8
0
 10
-70.00549376793742
 20
27.08553831409642
 11
-69.6507815783944
 21
26.77254057549882
  0
LINE
  8
0
 10
-69.6507815783944
 20
26.77254057549882
 11
-68.98490782535939
 21
26.22714307393416
  0
LINE
  8
0
 10
-68.98490782535939
 20
26.22714307393416
 11
-68.37515156431009
 21
25.764067463010417
  0
LINE
  8
0
 10
-68.37515156431009
 20
25.764067463010417
 11
-67.82655997347128
 21
25.378376860526902
  0
LINE
  8
0
 10
-67.82655997347128
 20
25.378376860526902
 11
-67.34389048715491
 21
25.064878500280276
  0
LINE
  8
0
 10
-67.34389048715491
 20
25.064878500280276
 11
-66.93159895089023
 21
24.81813845492895
  0
LINE
  8
0
 10
-66.93159895089023
 20
24.81813845492895
 11
-66.5938284706533
 21
24.63249687838884
  0
LINE
  8
0
 10
-66.5938284706533
 20
24.63249687838884
 11
-66.23415816979427
 21
24.45169347965636
  0
LINE
  8
0
 10
-66.23415816979427
 20
24.45169347965636
 11
-65.96955262468035
 21
24.289389475512703
  0
LINE
  8
0
 10
-65.96955262468035
 20
24.289389475512703
 11
-65.80536898504444
 21
24.144134725998555
  0
LINE
  8
0
 10
-65.80536898504444
 20
24.144134725998555
 11
-65.73987014493667
 21
24.02305223749877
  0
LINE
  8
0
 10
-65.73987014493667
 20
24.02305223749877
 11
-66.63325869570781
 21
21.42070029363159
  0
LINE
  8
0
 10
-66.63325869570781
 20
21.42070029363159
 11
-66.7593168874757
 21
21.365379417240725
  0
LINE
  8
0
 10
-66.7593168874757
 20
21.365379417240725
 11
-66.97809816222292
 21
21.351596688895725
  0
LINE
  8
0
 10
-66.97809816222292
 20
21.351596688895725
 11
-67.28659829954847
 21
21.386040114046494
  0
LINE
  8
0
 10
-67.28659829954847
 20
21.386040114046494
 11
-67.68148044998675
 21
21.46427489903455
  0
LINE
  8
0
 10
-67.68148044998675
 20
21.46427489903455
 11
-68.06205223513054
 21
21.52524053369059
  0
LINE
  8
0
 10
-68.06205223513054
 20
21.52524053369059
 11
-68.5389590606624
 21
21.583762671521214
  0
LINE
  8
0
 10
-68.5389590606624
 20
21.583762671521214
 11
-69.11240778323528
 21
21.63283015034427
  0
LINE
  8
0
 10
-69.11240778323528
 20
21.63283015034427
 11
-69.78221970189263
 21
21.66541800099903
  0
LINE
  8
0
 10
-69.78221970189263
 20
21.66541800099903
 11
-70.54782999550848
 21
21.674506324684184
  0
LINE
  8
0
 10
-70.54782999550848
 20
21.674506324684184
 11
-71.40828802710263
 21
21.65309918663642
  0
LINE
  8
0
 10
-71.40828802710263
 20
21.65309918663642
 11
-71.88045297513735
 21
21.62396872792292
  0
LINE
  8
0
 10
-71.88045297513735
 20
21.62396872792292
 11
-72.28666256699101
 21
20.440720610331535
  0
LINE
  8
0
 10
-72.28666256699101
 20
20.440720610331535
 11
-72.56023972134427
 21
19.219967612828203
  0
LINE
  8
0
 10
-72.56023972134427
 20
19.219967612828203
 11
-72.17324807014053
 21
18.947890815441433
  0
LINE
  8
0
 10
-72.17324807014053
 20
18.947890815441433
 11
-71.45141751089645
 21
18.479055094281787
  0
LINE
  8
0
 10
-71.45141751089645
 20
18.479055094281787
 11
-70.7944199332094
 21
18.08586824018496
  0
LINE
  8
0
 10
-70.7944199332094
 20
18.08586824018496
 11
-70.2067287847227
 21
17.762868103383845
  0
LINE
  8
0
 10
-70.2067287847227
 20
17.762868103383845
 11
-69.69250137837227
 21
17.504370077363642
  0
LINE
  8
0
 10
-69.69250137837227
 20
17.504370077363642
 11
-69.25556873904317
 21
17.304483035401525
  0
LINE
  8
0
 10
-69.25556873904317
 20
17.304483035401525
 11
-68.89942619726554
 21
17.157125707127825
  0
LINE
  8
0
 10
-68.89942619726554
 20
17.157125707127825
 11
-68.52204899127734
 21
17.016986352506173
  0
LINE
  8
0
 10
-68.52204899127734
 20
17.016986352506173
 11
-68.24119464784413
 21
16.884776209019403
  0
LINE
  8
0
 10
-68.24119464784413
 20
16.884776209019403
 11
-68.06202827511129
 21
16.758464607563834
  0
LINE
  8
0
 10
-68.06202827511129
 20
16.758464607563834
 11
-67.98360689944603
 21
16.645322418635335
  0
LINE
  8
0
 10
-67.98360689944603
 20
16.645322418635335
 11
-68.58529307907678
 21
13.960484903320936
  0
LINE
  8
0
 10
-68.58529307907678
 20
13.960484903320936
 11
-68.70450043180652
 21
13.89163234976182
  0
LINE
  8
0
 10
-68.70450043180652
 20
13.89163234976182
 11
-68.92043763897483
 21
13.853865534420828
  0
LINE
  8
0
 10
-68.92043763897483
 20
13.853865534420828
 11
-69.23085444934527
 21
13.854162360026466
  0
LINE
  8
0
 10
-69.23085444934527
 20
13.854162360026466
 11
-69.63194640210756
 21
13.888482029987436
  0
LINE
  8
0
 10
-69.63194640210756
 20
13.888482029987436
 11
-70.01691509529391
 21
13.907211619490024
  0
LINE
  8
0
 10
-70.01691509529391
 20
13.907211619490024
 11
-70.49736533568387
 21
13.912914896125418
  0
LINE
  8
0
 10
-70.49736533568387
 20
13.912914896125418
 11
-71.07273143897183
 21
13.898600494784732
  0
LINE
  8
0
 10
-71.07273143897183
 20
13.898600494784732
 11
-71.74206298443511
 21
13.857305741686227
  0
LINE
  8
0
 10
-71.74206298443511
 20
13.857305741686227
 11
-72.50402633245072
 21
13.782115479026867
  0
LINE
  8
0
 10
-72.50402633245072
 20
13.782115479026867
 11
-73.35690700542357
 21
13.666180810511872
  0
LINE
  8
0
 10
-73.35690700542357
 20
13.666180810511872
 11
-73.82300164208964
 21
13.585285128003111
  0
LINE
  8
0
 10
-73.82300164208964
 20
13.585285128003111
 11
-74.09657879644296
 21
12.364532130499791
  0
LINE
  8
0
 10
-74.09657879644296
 20
12.364532130499791
 11
-74.23420265723954
 21
11.121092540798376
  0
LINE
  8
0
 10
-74.23420265723954
 20
11.121092540798376
 11
-73.81962909878794
 21
10.893239328377726
  0
LINE
  8
0
 10
-73.81962909878794
 20
10.893239328377726
 11
-73.05060377850641
 21
10.506656418176275
  0
LINE
  8
0
 10
-73.05060377850641
 20
10.506656418176275
 11
-72.35433994478223
 21
10.18813107669008
  0
LINE
  8
0
 10
-72.35433994478223
 20
10.18813107669008
 11
-71.73468301308274
 21
9.931742189684542
  0
LINE
  8
0
 10
-71.73468301308274
 20
9.931742189684542
 11
-71.19513971082046
 21
9.731382313755937
  0
LINE
  8
0
 10
-71.19513971082046
 20
9.731382313755937
 11
-70.73886973878373
 21
9.580774633098294
  0
LINE
  8
0
 10
-70.73886973878373
 20
9.580774633098294
 11
-70.36867822347915
 21
9.473490271440719
  0
LINE
  8
0
 10
-70.36867822347915
 20
9.473490271440719
 11
-69.97817496043375
 21
9.375716062857196
  0
LINE
  8
0
 10
-69.97817496043375
 20
9.375716062857196
 11
-69.68448100995512
 21
9.275204632072638
  0
LINE
  8
0
 10
-69.68448100995512
 20
9.275204632072638
 11
-69.49250674118512
 21
9.169369430411091
  0
LINE
  8
0
 10
-69.49250674118512
 20
9.169369430411091
 11
-69.40211475923056
 21
9.065540933960992
  0
LINE
  8
0
 10
-69.40211475923056
 20
9.065540933960992
 11
-69.7047949125659
 21
6.330808137658008
  0
LINE
  8
0
 10
-69.7047949125659
 20
6.330808137658008
 11
-69.8157044104779
 21
6.249259683660715
  0
LINE
  8
0
 10
-69.8157044104779
 20
6.249259683660715
 11
-70.02617636488858
 21
6.187967219301686
  0
LINE
  8
0
 10
-70.02617636488858
 20
6.187967219301686
 11
-70.33474180872778
 21
6.154113842301434
  0
LINE
  8
0
 10
-70.33474180872778
 20
6.154113842301434
 11
-70.73717485084109
 21
6.144101802932648
  0
LINE
  8
0
 10
-70.73717485084109
 20
6.144101802932648
 11
-71.12186745362713
 21
6.120367995436996
  0
LINE
  8
0
 10
-71.12186745362713
 20
6.120367995436996
 11
-71.60002909379199
 21
6.073183180824668
  0
LINE
  8
0
 10
-71.60002909379199
 20
6.073183180824668
 11
-72.17032841271269
 21
5.995660656761716
  0
LINE
  8
0
 10
-72.17032841271269
 20
5.995660656761716
 11
-72.83105480672053
 21
5.880984562273207
  0
LINE
  8
0
 10
-72.83105480672053
 20
5.880984562273207
 11
-73.58012200627391
 21
5.722428421202585
  0
LINE
  8
0
 10
-73.58012200627391
 20
5.722428421202585
 11
-74.41507250459831
 21
5.513373512046869
  0
LINE
  8
0
 10
-74.41507250459831
 20
5.513373512046869
 11
-74.86943907239518
 21
5.381694569744322
  0
LINE
  8
0
 10
-74.86943907239518
 20
5.381694569744322
 11
-75.00706293319176
 21
4.138254980042934
  0
LINE
  8
0
 10
-75.00706293319176
 20
4.138254980042934
 11
-75.0070629331918
 21
2.887222470354481
  0
LINE
  8
0
 10
-75.0070629331918
 20
2.887222470354481
 11
-74.56993982889568
 21
2.706358672240601
  0
LINE
  8
0
 10
-74.56993982889568
 20
2.706358672240601
 11
-73.76305467321565
 21
2.4067211658481
  0
LINE
  8
0
 10
-73.76305467321565
 20
2.4067211658481
 11
-73.03597628321174
 21
2.1667238031323084
  0
LINE
  8
0
 10
-73.03597628321174
 20
2.1667238031323084
 11
-72.39187536404079
 21
1.980058379697009
  0
LINE
  8
0
 10
-72.39187536404079
 20
1.980058379697009
 11
-71.83356549067136
 21
1.8402687513390958
  0
LINE
  8
0
 10
-71.83356549067136
 20
1.8402687513390958
 11
-71.36349668530787
 21
1.740768605210537
  0
LINE
  8
0
 10
-71.36349668530787
 20
1.740768605210537
 11
-70.98374981999739
 21
1.67485949698836
  0
LINE
  8
0
 10
-70.98374981999739
 20
1.67485949698836
 11
-70.58486068051842
 21
1.6206372808867198
  0
LINE
  8
0
 10
-70.58486068051842
 20
1.6206372808867198
 11
-70.28189216970485
 21
1.5530446354177039
  0
LINE
  8
0
 10
-70.28189216970485
 20
1.5530446354177039
 11
-70.07944031246531
 21
1.468970529530188
  0
LINE
  8
0
 10
-70.07944031246531
 20
1.468970529530188
 11
-69.97817496043413
 21
1.3757160628555873
  0
LINE
  8
0
 10
-69.97817496043413
 20
1.3757160628555873
 11
-69.97817496043398
 21
-1.375716062856083
  0
LINE
  8
0
 10
-69.97817496043398
 20
-1.375716062856083
 11
-70.07944031246561
 21
-1.4689705295284903
  0
LINE
  8
0
 10
-70.07944031246561
 20
-1.4689705295284903
 11
-70.28189216970495
 21
-1.5530446354172123
  0
LINE
  8
0
 10
-70.28189216970495
 20
-1.5530446354172123
 11
-70.58486068051852
 21
-1.620637280885571
  0
LINE
  8
0
 10
-70.58486068051852
 20
-1.620637280885571
 11
-70.98374982000183
 21
-1.6748594969888408
  0
LINE
  8
0
 10
-70.98374982000183
 20
-1.6748594969888408
 11
-71.36349668530816
 21
-1.7407686052104032
  0
LINE
  8
0
 10
-71.36349668530816
 20
-1.7407686052104032
 11
-71.83356549067125
 21
-1.8402687513393032
  0
LINE
  8
0
 10
-71.83356549067125
 20
-1.8402687513393032
 11
-72.39187536404093
 21
-1.980058379697192
  0
LINE
  8
0
 10
-72.39187536404093
 20
-1.980058379697192
 11
-73.03597628321377
 21
-2.1667238031329683
  0
LINE
  8
0
 10
-73.03597628321377
 20
-2.1667238031329683
 11
-73.76305467321563
 21
-2.4067211658480963
  0
LINE
  8
0
 10
-73.76305467321563
 20
-2.4067211658480963
 11
-74.56993982889587
 21
-2.7063586722406656
  0
LINE
  8
0
 10
-74.56993982889587
 20
-2.7063586722406656
 11
-75.007062933192
 21
-2.8872224703544678
  0
LINE
  8
0
 10
-75.007062933192
 20
-2.8872224703544678
 11
-75.00706293319205
 21
-4.138254980042954
  0
LINE
  8
0
 10
-75.00706293319205
 20
-4.138254980042954
 11
-74.86943907239522
 21
-5.381694569744378
  0
LINE
  8
0
 10
-74.86943907239522
 20
-5.381694569744378
 11
-74.41507250459811
 21
-5.513373512046978
  0
LINE
  8
0
 10
-74.41507250459811
 20
-5.513373512046978
 11
-73.58012200627391
 21
-5.722428421202648
  0
LINE
  8
0
 10
-73.58012200627391
 20
-5.722428421202648
 11
-72.83105480671844
 21
-5.880984562273706
  0
LINE
  8
0
 10
-72.83105480671844
 20
-5.880984562273706
 11
-72.17032841271252
 21
-5.995660656761945
  0
LINE
  8
0
 10
-72.17032841271252
 20
-5.995660656761945
 11
-71.60002909379207
 21
-6.073183180824949
  0
LINE
  8
0
 10
-71.60002909379207
 20
-6.073183180824949
 11
-71.12186745362685
 21
-6.120367995436895
  0
LINE
  8
0
 10
-71.12186745362685
 20
-6.120367995436895
 11
-70.7371748508366
 21
-6.144101802932699
  0
LINE
  8
0
 10
-70.7371748508366
 20
-6.144101802932699
 11
-70.33474180872778
 21
-6.154113842300343
  0
LINE
  8
0
 10
-70.33474180872778
 20
-6.154113842300343
 11
-70.02617636488851
 21
-6.187967219301245
  0
LINE
  8
0
 10
-70.02617636488851
 20
-6.187967219301245
 11
-69.8157044104778
 21
-6.2492596836590595
  0
LINE
  8
0
 10
-69.8157044104778
 20
-6.2492596836590595
 11
-69.704794912566
 21
-6.33080813765858
  0
LINE
  8
0
 10
-69.704794912566
 20
-6.33080813765858
 11
-69.40211475923034
 21
-9.065540933961527
  0
LINE
  8
0
 10
-69.40211475923034
 20
-9.065540933961527
 11
-69.49250674118558
 21
-9.169369430409494
  0
LINE
  8
0
 10
-69.49250674118558
 20
-9.169369430409494
 11
-69.68448100995528
 21
-9.27520463207222
  0
LINE
  8
0
 10
-69.68448100995528
 20
-9.27520463207222
 11
-69.97817496043396
 21
-9.375716062856126
  0
LINE
  8
0
 10
-69.97817496043396
 20
-9.375716062856126
 11
-70.36867822348351
 21
-9.473490271441747
  0
LINE
  8
0
 10
-70.36867822348351
 20
-9.473490271441747
 11
-70.73886973878403
 21
-9.580774633098253
  0
LINE
  8
0
 10
-70.73886973878403
 20
-9.580774633098253
 11
-71.19513971082031
 21
-9.731382313756193
  0
LINE
  8
0
 10
-71.19513971082031
 20
-9.731382313756193
 11
-71.73468301308286
 21
-9.931742189684803
  0
LINE
  8
0
 10
-71.73468301308286
 20
-9.931742189684803
 11
-72.35433994478416
 21
-10.18813107669102
  0
LINE
  8
0
 10
-72.35433994478416
 20
-10.18813107669102
 11
-73.05060377850641
 21
-10.506656418176336
  0
LINE
  8
0
 10
-73.05060377850641
 20
-10.506656418176336
 11
-73.81962909878811
 21
-10.893239328377879
  0
LINE
  8
0
 10
-73.81962909878811
 20
-10.893239328377879
 11
-74.23420265723958
 21
-11.121092540798433
  0
LINE
  8
0
 10
-74.23420265723958
 20
-11.121092540798433
 11
-74.096578796443
 21
-12.36453213049982
  0
LINE
  8
0
 10
-74.096578796443
 20
-12.36453213049982
 11
-73.82300164208966
 21
-13.58528512800314
  0
LINE
  8
0
 10
-73.82300164208966
 20
-13.58528512800314
 11
-73.35690700542335
 21
-13.666180810511928
  0
LINE
  8
0
 10
-73.35690700542335
 20
-13.666180810511928
 11
-72.50402633245074
 21
-13.782115479026896
  0
LINE
  8
0
 10
-72.50402633245074
 20
-13.782115479026896
 11
-71.74206298443299
 21
-13.85730574168646
  0
LINE
  8
0
 10
-71.74206298443299
 20
-13.85730574168646
 11
-71.07273143897164
 21
-13.898600494784908
  0
LINE
  8
0
 10
-71.07273143897164
 20
-13.898600494784908
 11
-70.49736533568392
 21
-13.912914896125676
  0
LINE
  8
0
 10
-70.49736533568392
 20
-13.912914896125676
 11
-70.01691509529364
 21
-13.90721161948986
  0
LINE
  8
0
 10
-70.01691509529364
 20
-13.90721161948986
 11
-69.6319464021031
 21
-13.888482029986964
  0
LINE
  8
0
 10
-69.6319464021031
 20
-13.888482029986964
 11
-69.23085444934541
 21
-13.854162360025354
  0
LINE
  8
0
 10
-69.23085444934541
 20
-13.854162360025354
 11
-68.92043763897482
 21
-13.853865534420354
  0
LINE
  8
0
 10
-68.92043763897482
 20
-13.853865534420354
 11
-68.70450043180661
 21
-13.891632349760133
  0
LINE
  8
0
 10
-68.70450043180661
 20
-13.891632349760133
 11
-68.58529307907682
 21
-13.960484903321484
  0
LINE
  8
0
 10
-68.58529307907682
 20
-13.960484903321484
 11
-67.98360689944576
 21
-16.645322418635814
  0
LINE
  8
0
 10
-67.98360689944576
 20
-16.645322418635814
 11
-68.06202827511191
 21
-16.75846460756227
  0
LINE
  8
0
 10
-68.06202827511191
 20
-16.75846460756227
 11
-68.24119464784434
 21
-16.88477620901898
  0
LINE
  8
0
 10
-68.24119464784434
 20
-16.88477620901898
 11
-68.5220489912777
 21
-17.016986352505103
  0
LINE
  8
0
 10
-68.5220489912777
 20
-17.016986352505103
 11
-68.89942619726979
 21
-17.1571257071293
  0
LINE
  8
0
 10
-68.89942619726979
 20
-17.1571257071293
 11
-69.25556873904348
 21
-17.30448303540149
  0
LINE
  8
0
 10
-69.25556873904348
 20
-17.30448303540149
 11
-69.69250137837211
 21
-17.504370077363852
  0
LINE
  8
0
 10
-69.69250137837211
 20
-17.504370077363852
 11
-70.2067287847228
 21
-17.762868103384086
  0
LINE
  8
0
 10
-70.2067287847228
 20
-17.762868103384086
 11
-70.79441993321122
 21
-18.08586824018608
  0
LINE
  8
0
 10
-70.79441993321122
 20
-18.08586824018608
 11
-71.45141751089643
 21
-18.479055094281815
  0
LINE
  8
0
 10
-71.45141751089643
 20
-18.479055094281815
 11
-72.17324807014069
 21
-18.947890815441568
  0
LINE
  8
0
 10
-72.17324807014069
 20
-18.947890815441568
 11
-72.5602397213443
 21
-19.21996761282823
  0
LINE
  8
0
 10
-72.5602397213443
 20
-19.21996761282823
 11
-72.28666256699098
 21
-20.440720610331542
  0
LINE
  8
0
 10
-72.28666256699098
 20
-20.440720610331542
 11
-71.88045297513733
 21
-21.6239687279229
  0
LINE
  8
0
 10
-71.88045297513733
 20
-21.6239687279229
 11
-71.40828802710243
 21
-21.653099186636418
  0
LINE
  8
0
 10
-71.40828802710243
 20
-21.653099186636418
 11
-70.5478299955085
 21
-21.674506324684184
  0
LINE
  8
0
 10
-70.5478299955085
 20
-21.674506324684184
 11
-69.78221970189051
 21
-21.665418000998994
  0
LINE
  8
0
 10
-69.78221970189051
 20
-21.665418000998994
 11
-69.11240778323508
 21
-21.632830150344393
  0
LINE
  8
0
 10
-69.11240778323508
 20
-21.632830150344393
 11
-68.53895906066245
 21
-21.583762671521445
  0
LINE
  8
0
 10
-68.53895906066245
 20
-21.583762671521445
 11
-68.06205223513031
 21
-21.52524053369036
  0
LINE
  8
0
 10
-68.06205223513031
 20
-21.52524053369036
 11
-67.68148044998237
 21
-21.46427489903355
  0
LINE
  8
0
 10
-67.68148044998237
 20
-21.46427489903355
 11
-67.28659829954874
 21
-21.386040114045368
  0
LINE
  8
0
 10
-67.28659829954874
 20
-21.386040114045368
 11
-66.97809816222298
 21
-21.35159668889522
  0
LINE
  8
0
 10
-66.97809816222298
 20
-21.35159668889522
 11
-66.75931688747599
 21
-21.365379417239023
  0
LINE
  8
0
 10
-66.75931688747599
 20
-21.365379417239023
 11
-66.63325869570781
 21
-21.42070029363211
  0
LINE
  8
0
 10
-66.63325869570781
 20
-21.42070029363211
 11
-65.73987014493636
 21
-24.023052237499186
  0
LINE
  8
0
 10
-65.73987014493636
 20
-24.023052237499186
 11
-65.80536898504525
 21
-24.144134725997038
  0
LINE
  8
0
 10
-65.80536898504525
 20
-24.144134725997038
 11
-65.96955262468063
 21
-24.289389475512277
  0
LINE
  8
0
 10
-65.96955262468063
 20
-24.289389475512277
 11
-66.23415816979474
 21
-24.451693479655304
  0
LINE
  8
0
 10
-66.23415816979474
 20
-24.451693479655304
 11
-66.59382847065736
 21
-24.63249687839074
  0
LINE
  8
0
 10
-66.59382847065736
 20
-24.63249687839074
 11
-66.93159895089055
 21
-24.818138454928913
  0
LINE
  8
0
 10
-66.93159895089055
 20
-24.818138454928913
 11
-67.34389048715472
 21
-25.064878500280436
  0
LINE
  8
0
 10
-67.34389048715472
 20
-25.064878500280436
 11
-67.82655997347136
 21
-25.378376860527116
  0
LINE
  8
0
 10
-67.82655997347136
 20
-25.378376860527116
 11
-68.37515156431178
 21
-25.764067463011692
  0
LINE
  8
0
 10
-68.37515156431178
 20
-25.764067463011692
 11
-68.98490782535937
 21
-26.227143073934148
  0
LINE
  8
0
 10
-68.98490782535937
 20
-26.227143073934148
 11
-69.65078157839454
 21
-26.772540575498937
  0
LINE
  8
0
 10
-69.65078157839454
 20
-26.772540575498937
 11
-70.00549376793741
 21
-27.085538314096407
  0
LINE
  8
0
 10
-70.00549376793741
 20
-27.085538314096407
 11
-69.59928417608374
 21
-28.268786431687797
  0
LINE
  8
0
 10
-69.59928417608374
 20
-28.268786431687797
 11
-69.06537298090882
 21
-29.40016664009003
  0
LINE
  8
0
 10
-69.06537298090882
 20
-29.40016664009003
 11
-68.59286916436291
 21
-29.37717827070066
  0
LINE
  8
0
 10
-68.59286916436291
 20
-29.37717827070066
 11
-67.73527856904387
 21
-29.303798024624196
  0
LINE
  8
0
 10
-67.73527856904387
 20
-29.303798024624196
 11
-66.97531480166698
 21
-29.210541434532427
  0
LINE
  8
0
 10
-66.97531480166698
 20
-29.210541434532427
 11
-66.31315311915868
 21
-29.104466552487047
  0
LINE
  8
0
 10
-66.31315311915868
 20
-29.104466552487047
 11
-65.74858266797892
 21
-28.99261280622472
  0
LINE
  8
0
 10
-65.74858266797892
 20
-28.99261280622472
 11
-65.28100826013178
 21
-28.88198218667546
  0
LINE
  8
0
 10
-65.28100826013178
 20
-28.88198218667546
 11
-64.90945300896198
 21
-28.779520547083234
  0
LINE
  8
0
 10
-64.90945300896198
 20
-28.779520547083234
 11
-64.52557399523711
 21
-28.658320311378585
  0
LINE
  8
0
 10
-64.52557399523711
 20
-28.658320311378585
 11
-64.22273530471793
 21
-28.59014838320631
  0
LINE
  8
0
 10
-64.22273530471793
 20
-28.59014838320631
 11
-64.00376567069863
 21
-28.579779720902625
  0
LINE
  8
0
 10
-64.00376567069863
 20
-28.579779720902625
 11
-63.872386815577165
 21
-28.620897399627673
  0
LINE
  8
0
 10
-63.872386815577165
 20
-28.620897399627673
 11
-62.69814042045551
 21
-31.109174744688318
  0
LINE
  8
0
 10
-62.69814042045551
 20
-31.109174744688318
 11
-62.74992165781529
 21
-31.23672775536988
  0
LINE
  8
0
 10
-62.74992165781529
 20
-31.23672775536988
 11
-62.897129597377486
 21
-31.399162457051833
  0
LINE
  8
0
 10
-62.897129597377486
 20
-31.399162457051833
 11
-63.142274391298855
 21
-31.589590171104298
  0
LINE
  8
0
 10
-63.142274391298855
 20
-31.589590171104298
 11
-63.47987187680182
 21
-31.808862905613097
  0
LINE
  8
0
 10
-63.47987187680182
 20
-31.808862905613097
 11
-63.795170219420505
 21
-32.030535293154834
  0
LINE
  8
0
 10
-63.795170219420505
 20
-32.030535293154834
 11
-64.17781599187491
 21
-32.321133251987874
  0
LINE
  8
0
 10
-64.17781599187491
 20
-32.321133251987874
 11
-64.62306860443499
 21
-32.68582650104374
  0
LINE
  8
0
 10
-64.62306860443499
 20
-32.68582650104374
 11
-65.12590147885649
 21
-33.12952580776707
  0
LINE
  8
0
 10
-65.12590147885649
 20
-33.12952580776707
 11
-65.68101480825506
 21
-33.656869064898494
  0
LINE
  8
0
 10
-65.68101480825506
 20
-33.656869064898494
 11
-66.2828489497358
 21
-34.27220796001435
  0
LINE
  8
0
 10
-66.2828489497358
 20
-34.27220796001435
 11
-66.60097595214275
 21
-34.62232727127404
  0
LINE
  8
0
 10
-66.60097595214275
 20
-34.62232727127404
 11
-66.0670647569678
 21
-35.7537074796762
  0
LINE
  8
0
 10
-66.0670647569678
 20
-35.7537074796762
 11
-65.41193291712575
 21
-36.819486355767566
  0
LINE
  8
0
 10
-65.41193291712575
 20
-36.819486355767566
 11
-64.94482578833103
 21
-36.74465820593883
  0
LINE
  8
0
 10
-64.94482578833103
 20
-36.74465820593883
 11
-64.10051261739105
 21
-36.57738131252199
  0
LINE
  8
0
 10
-64.10051261739105
 20
-36.57738131252199
 11
-63.35542030691701
 21
-36.401088464698624
  0
LINE
  8
0
 10
-63.35542030691701
 20
-36.401088464698624
 11
-62.708946606393525
 21
-36.222814156637654
  0
LINE
  8
0
 10
-62.708946606393525
 20
-36.222814156637654
 11
-62.16010754709657
 21
-36.04953189589448
  0
LINE
  8
0
 10
-62.16010754709657
 20
-36.04953189589448
 11
-61.70754127685261
 21
-35.88813570048416
  0
LINE
  8
0
 10
-61.70754127685261
 20
-35.88813570048416
 11
-61.349512737088034
 21
-35.745421801462946
  0
LINE
  8
0
 10
-61.349512737088034
 20
-35.745421801462946
 11
-60.981296631282255
 21
-35.5827273217211
  0
LINE
  8
0
 10
-60.981296631282255
 20
-35.5827273217211
 11
-60.687795439036414
 21
-35.481654405386564
  0
LINE
  8
0
 10
-60.687795439036414
 20
-35.481654405386564
 11
-60.471295440477675
 21
-35.44726021394999
  0
LINE
  8
0
 10
-60.471295440477675
 20
-35.44726021394999
 11
-60.336190683333584
 21
-35.47367558208678
  0
LINE
  8
0
 10
-60.336190683333584
 20
-35.47367558208678
 11
-58.89534020442216
 21
-37.81767401208177
  0
LINE
  8
0
 10
-58.89534020442216
 20
-37.81767401208177
 11
-58.932775284956016
 21
-37.95014922418526
  0
LINE
  8
0
 10
-58.932775284956016
 20
-37.95014922418526
 11
-59.06122061947192
 21
-38.12779214079538
  0
LINE
  8
0
 10
-59.06122061947192
 20
-38.12779214079538
 11
-59.28392893648427
 21
-38.344032030268906
  0
LINE
  8
0
 10
-59.28392893648427
 20
-38.344032030268906
 11
-59.59535563047525
 21
-38.59911242658885
  0
LINE
  8
0
 10
-59.59535563047525
 20
-38.59911242658885
 11
-59.88435454071449
 21
-38.85412482263475
  0
LINE
  8
0
 10
-59.88435454071449
 20
-38.85412482263475
 11
-60.232709748027204
 21
-39.1850532293835
  0
LINE
  8
0
 10
-60.232709748027204
 20
-39.1850532293835
 11
-60.63514072326945
 21
-39.59651448523159
  0
LINE
  8
0
 10
-60.63514072326945
 20
-39.59651448523159
 11
-61.086111171332
 21
-40.092836587661054
  0
LINE
  8
0
 10
-61.086111171332
 20
-40.092836587661054
 11
-61.57984324523909
 21
-40.67804625821799
  0
LINE
  8
0
 10
-61.57984324523909
 20
-40.67804625821799
 11
-62.11033232395396
 21
-41.35585716625837
  0
LINE
  8
0
 10
-62.11033232395396
 20
-41.35585716625837
 11
-62.38801250836209
 21
-41.73884807602579
  0
LINE
  8
0
 10
-62.38801250836209
 20
-41.73884807602579
 11
-61.73288066851996
 21
-42.8046269521171
  0
LINE
  8
0
 10
-61.73288066851996
 20
-42.8046269521171
 11
-60.964480597081305
 21
-43.79186738408413
  0
LINE
  8
0
 10
-60.964480597081305
 20
-43.79186738408413
 11
-60.50844020382126
 21
-43.66610776619004
  0
LINE
  8
0
 10
-60.50844020382126
 20
-43.66610776619004
 11
-59.687653275418626
 21
-43.406964740319616
  0
LINE
  8
0
 10
-59.687653275418626
 20
-43.406964740319616
 11
-58.966476833167796
 21
-43.14977559112461
  0
LINE
  8
0
 10
-58.966476833167796
 20
-43.14977559112461
 11
-58.343538429616984
 21
-42.90146586565113
  0
LINE
  8
0
 10
-58.343538429616984
 20
-42.90146586565113
 11
-57.8170929249056
 21
-42.66885850233816
  0
LINE
  8
0
 10
-57.8170929249056
 20
-42.66885850233816
 11
-57.385028333723064
 21
-42.45865586224597
  0
LINE
  8
0
 10
-57.385028333723064
 20
-42.45865586224597
 11
-57.04487248683816
 21
-42.277422057204525
  0
LINE
  8
0
 10
-57.04487248683816
 20
-42.277422057204525
 11
-56.696788933677205
 21
-42.07520822401776
  0
LINE
  8
0
 10
-56.696788933677205
 20
-42.07520822401776
 11
-56.41618794659132
 21
-41.94246120780827
  0
LINE
  8
0
 10
-56.41618794659132
 20
-41.94246120780827
 11
-56.204785600196956
 21
-41.884458986131236
  0
LINE
  8
0
 10
-56.204785600196956
 20
-41.884458986131236
 11
-56.067594929764226
 21
-41.89585139689378
  0
LINE
  8
0
 10
-56.067594929764226
 20
-41.89585139689378
 11
-54.37763034004924
 21
-44.0671179461474
  0
LINE
  8
0
 10
-54.37763034004924
 20
-44.0671179461474
 11
-54.40026485259039
 21
-44.20290729005356
  0
LINE
  8
0
 10
-54.40026485259039
 20
-44.20290729005356
 11
-54.50838842969562
 21
-44.39360207722568
  0
LINE
  8
0
 10
-54.50838842969562
 20
-44.39360207722568
 11
-54.70595689251912
 21
-44.63302928278838
  0
LINE
  8
0
 10
-54.70595689251912
 20
-44.63302928278838
 11
-54.98743249680284
 21
-44.9208210104492
  0
LINE
  8
0
 10
-54.98743249680284
 20
-44.9208210104492
 11
-55.24662391938063
 21
-45.20607790996023
  0
LINE
  8
0
 10
-55.24662391938063
 20
-45.20607790996023
 11
-55.55646000122936
 21
-45.57331974205425
  0
LINE
  8
0
 10
-55.55646000122936
 20
-45.57331974205425
 11
-55.911184372261765
 21
-46.02655442242875
  0
LINE
  8
0
 10
-55.911184372261765
 20
-46.02655442242875
 11
-56.30481822362665
 21
-46.56947464257661
  0
LINE
  8
0
 10
-56.30481822362665
 20
-46.56947464257661
 11
-56.73117580349222
 21
-47.20544707390451
  0
LINE
  8
0
 10
-56.73117580349222
 20
-47.20544707390451
 11
-57.18388040064516
 21
-47.937502288632786
  0
LINE
  8
0
 10
-57.18388040064516
 20
-47.937502288632786
 11
-57.41774310577132
 21
-48.34871580607657
  0
LINE
  8
0
 10
-57.41774310577132
 20
-48.34871580607657
 11
-56.649343034332595
 21
-49.33595623804357
  0
LINE
  8
0
 10
-56.649343034332595
 20
-49.33595623804357
 11
-55.77700206726227
 21
-50.23267446439352
  0
LINE
  8
0
 10
-55.77700206726227
 20
-50.23267446439352
 11
-55.3375641221424
 21
-50.057509929836826
  0
LINE
  8
0
 10
-55.3375641221424
 20
-50.057509929836826
 11
-54.55026667772047
 21
-49.70964641680246
  0
LINE
  8
0
 10
-54.55026667772047
 20
-49.70964641680246
 11
-53.86176020877028
 21
-49.37468289410938
  0
LINE
  8
0
 10
-53.86176020877028
 20
-49.37468289410938
 11
-53.269918730556526
 21
-49.05935189492138
  0
LINE
  8
0
 10
-53.269918730556526
 20
-49.05935189492138
 11
-52.77225711571594
 21
-48.77024296733095
  0
LINE
  8
0
 10
-52.77225711571594
 20
-48.77024296733095
 11
-52.365938882441576
 21
-48.51378545785957
  0
LINE
  8
0
 10
-52.365938882441576
 20
-48.51378545785957
 11
-52.0477847596302
 21
-48.29623167968528
  0
LINE
  8
0
 10
-52.0477847596302
 20
-48.29623167968528
 11
-51.72405902192296
 21
-48.056953095062354
  0
LINE
  8
0
 10
-51.72405902192296
 20
-48.056953095062354
 11
-51.45976435586808
 21
-47.89414334793082
  0
LINE
  8
0
 10
-51.45976435586808
 20
-47.89414334793082
 11
-51.25602579975012
 21
-47.81323716441261
  0
LINE
  8
0
 10
-51.25602579975012
 20
-47.81323716441261
 11
-51.11841452492439
 21
-47.80946832936682
  0
LINE
  8
0
 10
-51.11841452492439
 20
-47.80946832936682
 11
-49.19984970523828
 21
-49.781646763246734
  0
LINE
  8
0
 10
-49.19984970523828
 20
-49.781646763246734
 11
-49.207408897466
 21
-49.919101940265676
  0
LINE
  8
0
 10
-49.207408897466
 20
-49.919101940265676
 11
-49.2938982434026
 21
-50.12053382160552
  0
LINE
  8
0
 10
-49.2938982434026
 20
-50.12053382160552
 11
-49.46392863853188
 21
-50.38024202131854
  0
LINE
  8
0
 10
-49.46392863853188
 20
-50.38024202131854
 11
-49.7120364205693
 21
-50.69725167859946
  0
LINE
  8
0
 10
-49.7120364205693
 20
-50.69725167859946
 11
-49.938274122725545
 21
-51.009290449234776
  0
LINE
  8
0
 10
-49.938274122725545
 20
-51.009290449234776
 11
-50.20583008879173
 21
-51.40838788831144
  0
LINE
  8
0
 10
-50.20583008879173
 20
-51.40838788831144
 11
-50.508541982272334
 21
-51.897894338160555
  0
LINE
  8
0
 10
-50.508541982272334
 20
-51.897894338160555
 11
-50.84006105521452
 21
-52.48082236001342
  0
LINE
  8
0
 10
-50.84006105521452
 20
-52.48082236001342
 11
-51.19386873757829
 21
-53.15983770830705
  0
LINE
  8
0
 10
-51.19386873757829
 20
-53.15983770830705
 11
-51.563293632609756
 21
-53.93725107108471
  0
LINE
  8
0
 10
-51.563293632609756
 20
-53.93725107108471
 11
-51.7505000820125
 21
-54.37169562114772
  0
LINE
  8
0
 10
-51.7505000820125
 20
-54.37169562114772
 11
-50.87815911494218
 21
-55.26841384749761
  0
LINE
  8
0
 10
-50.87815911494218
 20
-55.26841384749761
 11
-49.91246628987604
 21
-56.06372492368932
  0
LINE
  8
0
 10
-49.91246628987604
 20
-56.06372492368932
 11
-49.494964974271674
 21
-55.84128173263536
  0
LINE
  8
0
 10
-49.494964974271674
 20
-55.84128173263536
 11
-48.75071373830436
 21
-55.40892032425686
  0
LINE
  8
0
 10
-48.75071373830436
 20
-55.40892032425686
 11
-48.10323477851228
 21
-55.0002484314776
  0
LINE
  8
0
 10
-48.10323477851228
 20
-55.0002484314776
 11
-47.54967437945138
 21
-54.62172384974652
  0
LINE
  8
0
 10
-47.54967437945138
 20
-54.62172384974652
 11
-47.08683759233546
 21
-54.279622748622245
  0
LINE
  8
0
 10
-47.08683759233546
 20
-54.279622748622245
 11
-46.71119786990796
 21
-53.98002341653012
  0
LINE
  8
0
 10
-46.71119786990796
 20
-53.98002341653012
 11
-46.41890743123805
 21
-53.72879047338385
  0
LINE
  8
0
 10
-46.41890743123805
 20
-53.72879047338385
 11
-46.123469100909794
 21
-53.45535165520674
  0
LINE
  8
0
 10
-46.123469100909794
 20
-53.45535165520674
 11
-45.87868893510878
 21
-53.26445546693541
  0
LINE
  8
0
 10
-45.87868893510878
 20
-53.26445546693541
 11
-45.685087279346924
 21
-53.161627413045515
  0
LINE
  8
0
 10
-45.685087279346924
 20
-53.161627413045515
 11
-45.548725814591414
 21
-53.142743080743436
  0
LINE
  8
0
 10
-45.548725814591414
 20
-53.142743080743436
 11
-43.424849542888396
 21
-54.89189382464606
  0
LINE
  8
0
 10
-43.424849542888396
 20
-54.89189382464606
 11
-43.41724165644898
 21
-55.02934631513047
  0
LINE
  8
0
 10
-43.41724165644898
 20
-55.02934631513047
 11
-43.48104690771885
 21
-55.23907018046544
  0
LINE
  8
0
 10
-43.48104690771885
 20
-55.23907018046544
 11
-43.62147529648633
 21
-55.51590686859433
  0
LINE
  8
0
 10
-43.62147529648633
 20
-55.51590686859433
 11
-43.83320356389922
 21
-55.8582863876886
  0
LINE
  8
0
 10
-43.83320356389922
 20
-55.8582863876886
 11
-44.02374132639947
 21
-56.19331930147162
  0
LINE
  8
0
 10
-44.02374132639947
 20
-56.19331930147162
 11
-44.24576940969596
 21
-56.61942784525223
  0
LINE
  8
0
 10
-44.24576940969596
 20
-56.61942784525223
 11
-44.49279431330231
 21
-57.139264119377835
  0
LINE
  8
0
 10
-44.49279431330231
 20
-57.139264119377835
 11
-44.758174415363925
 21
-57.755123986405636
  0
LINE
  8
0
 10
-44.758174415363925
 20
-57.755123986405636
 11
-45.03513745424257
 21
-58.46893992515529
  0
LINE
  8
0
 10
-45.03513745424257
 20
-58.46893992515529
 11
-45.31679832936313
 21
-59.28227469087024
  0
LINE
  8
0
 10
-45.31679832936313
 20
-59.28227469087024
 11
-45.455076090343304
 21
-59.7346767052289
  0
LINE
  8
0
 10
-45.455076090343304
 20
-59.7346767052289
 11
-44.48938326527715
 21
-60.529987781420566
  0
LINE
  8
0
 10
-44.48938326527715
 20
-60.529987781420566
 11
-43.44206078494934
 21
-61.21423770834595
  0
LINE
  8
0
 10
-43.44206078494934
 20
-61.21423770834595
 11
-43.05156399926963
 21
-60.94721601980459
  0
LINE
  8
0
 10
-43.05156399926963
 20
-60.94721601980459
 11
-42.35939317357214
 21
-60.435604997887395
  0
LINE
  8
0
 10
-42.35939317357214
 20
-60.435604997887395
 11
-41.7608012404118
 21
-59.95818545819867
  0
LINE
  8
0
 10
-41.7608012404118
 20
-59.95818545819867
 11
-41.25224139387557
 21
-59.52106206958375
  0
LINE
  8
0
 10
-41.25224139387557
 20
-59.52106206958375
 11
-40.82984764610457
 21
-59.130121438870844
  0
LINE
  8
0
 10
-40.82984764610457
 20
-59.130121438870844
 11
-40.48944619189915
 21
-58.79101701420154
  0
LINE
  8
0
 10
-40.48944619189915
 20
-58.79101701420154
 11
-40.22656744734903
 21
-58.50915453368394
  0
LINE
  8
0
 10
-40.22656744734903
 20
-58.50915453368394
 11
-39.963002745518565
 21
-58.204874658795276
  0
LINE
  8
0
 10
-39.963002745518565
 20
-58.204874658795276
 11
-39.74070837959625
 21
-57.98820925051493
  0
LINE
  8
0
 10
-39.74070837959625
 20
-57.98820925051493
 11
-39.55959368603171
 21
-57.864707519532985
  0
LINE
  8
0
 10
-39.55959368603171
 20
-57.864707519532985
 11
-39.42613727480841
 21
-57.83093692018738
  0
LINE
  8
0
 10
-39.42613727480841
 20
-57.83093692018738
 11
-37.122730531947894
 21
-59.33582765354413
  0
LINE
  8
0
 10
-37.122730531947894
 20
-59.33582765354413
 11
-37.10004791627682
 21
-59.471608970457616
  0
LINE
  8
0
 10
-37.10004791627682
 20
-59.471608970457616
 11
-37.14039456356242
 21
-59.68707905616202
  0
LINE
  8
0
 10
-37.14039456356242
 20
-59.68707905616202
 11
-37.2495163355578
 21
-59.9776838103258
  0
LINE
  8
0
 10
-37.2495163355578
 20
-59.9776838103258
 11
-37.42229499399447
 21
-60.34127716767121
  0
LINE
  8
0
 10
-37.42229499399447
 20
-60.34127716767121
 11
-37.57481994651126
 21
-60.695237378876215
  0
LINE
  8
0
 10
-37.57481994651126
 20
-60.695237378876215
 11
-37.74862502687407
 21
-61.14318464686122
  0
LINE
  8
0
 10
-37.74862502687407
 20
-61.14318464686122
 11
-37.93696439290519
 21
-61.68704063708429
  0
LINE
  8
0
 10
-37.93696439290519
 20
-61.68704063708429
 11
-38.13298416914062
 21
-62.328356644767204
  0
LINE
  8
0
 10
-38.13298416914062
 20
-62.328356644767204
 11
-38.32974060842625
 21
-63.068308415437144
  0
LINE
  8
0
 10
-38.32974060842625
 20
-63.068308415437144
 11
-38.52021848215985
 21
-63.90769180180609
  0
LINE
  8
0
 10
-38.52021848215985
 20
-63.90769180180609
 11
-38.60788905001515
 21
-64.37255973284607
  0
LINE
  8
0
 10
-38.60788905001515
 20
-64.37255973284607
 11
-37.560566569687275
 21
-65.05680965977149
  0
LINE
  8
0
 10
-37.560566569687275
 20
-65.05680965977149
 11
-36.44432751026835
 21
-65.62169257022722
  0
LINE
  8
0
 10
-36.44432751026835
 20
-65.62169257022722
 11
-36.085575356510496
 21
-65.31333366578019
  0
LINE
  8
0
 10
-36.085575356510496
 20
-65.31333366578019
 11
-35.45388695726733
 21
-64.72868329508371
  0
LINE
  8
0
 10
-35.45388695726733
 20
-64.72868329508371
 11
-34.91144814593319
 21
-64.18831133496771
  0
LINE
  8
0
 10
-34.91144814593319
 20
-64.18831133496771
 11
-34.45406207954515
 21
-63.69789522526369
  0
LINE
  8
0
 10
-34.45406207954515
 20
-63.69789522526369
 11
-34.077238659027294
 21
-63.2628605546368
  0
LINE
  8
0
 10
-34.077238659027294
 20
-63.2628605546368
 11
-33.77620748557798
 21
-62.88836730574279
  0
LINE
  8
0
 10
-33.77620748557798
 20
-62.88836730574279
 11
-33.5459314270015
 21
-62.579296716546295
  0
LINE
  8
0
 10
-33.5459314270015
 20
-62.579296716546295
 11
-33.31743967211485
 21
-62.247869330438775
  0
LINE
  8
0
 10
-33.31743967211485
 20
-62.247869330438775
 11
-33.120329458545584
 21
-62.008064726703196
  0
LINE
  8
0
 10
-33.120329458545584
 20
-62.008064726703196
 11
-32.95390021421376
 21
-61.86538846234345
  0
LINE
  8
0
 10
-32.95390021421376
 20
-61.86538846234345
 11
-32.82496883657008
 21
-61.817141525283525
  0
LINE
  8
0
 10
-32.82496883657008
 20
-61.817141525283525
 11
-30.36999186013296
 21
-63.05950491317044
  0
LINE
  8
0
 10
-30.36999186013296
 20
-63.05950491317044
 11
-30.332509851457775
 21
-63.19196685525992
  0
LINE
  8
0
 10
-30.332509851457775
 20
-63.19196685525992
 11
-30.34890814111607
 21
-63.41056764637682
  0
LINE
  8
0
 10
-30.34890814111607
 20
-63.41056764637682
 11
-30.4253987058476
 21
-63.711412918523564
  0
LINE
  8
0
 10
-30.4253987058476
 20
-63.711412918523564
 11
-30.557130456446814
 21
-64.09180658329858
  0
LINE
  8
0
 10
-30.557130456446814
 20
-64.09180658329858
 11
-30.669791152672364
 21
-64.46039749444874
  0
LINE
  8
0
 10
-30.669791152672364
 20
-64.46039749444874
 11
-30.793263471868485
 21
-64.92474601361025
  0
LINE
  8
0
 10
-30.793263471868485
 20
-64.92474601361025
 11
-30.92063111555201
 21
-65.48602004493632
  0
LINE
  8
0
 10
-30.92063111555201
 20
-65.48602004493632
 11
-31.044911151413178
 21
-66.14500748569077
  0
LINE
  8
0
 10
-31.044911151413178
 20
-66.14500748569077
 11
-31.15907263446619
 21
-66.9021130761503
  0
LINE
  8
0
 10
-31.15907263446619
 20
-66.9021130761503
 11
-31.25605536345388
 21
-67.75735610592159
  0
LINE
  8
0
 10
-31.25605536345388
 20
-67.75735610592159
 11
-31.292054536252238
 21
-68.22904708668682
  0
LINE
  8
0
 10
-31.292054536252238
 20
-68.22904708668682
 11
-30.175815476833296
 21
-68.79392999714254
  0
LINE
  8
0
 10
-30.175815476833296
 20
-68.79392999714254
 11
-29.004209468407115
 21
-69.23258897780642
  0
LINE
  8
0
 10
-29.004209468407115
 20
-69.23258897780642
 11
-28.681556711739205
 21
-68.88663591683965
  0
LINE
  8
0
 10
-28.681556711739205
 20
-68.88663591683965
 11
-28.1180185804094
 21
-68.23604306087579
  0
LINE
  8
0
 10
-28.1180185804094
 20
-68.23604306087579
 11
-27.638317363263962
 21
-67.63927806392104
  0
LINE
  8
0
 10
-27.638317363263962
 20
-67.63927806392104
 11
-27.237657124278485
 21
-67.10152222036446
  0
LINE
  8
0
 10
-27.237657124278485
 20
-67.10152222036446
 11
-26.910978156880308
 21
-66.62767424141141
  0
LINE
  8
0
 10
-26.910978156880308
 20
-66.62767424141141
 11
-26.65297137484513
 21
-66.22233800903227
  0
LINE
  8
0
 10
-26.65297137484513
 20
-66.22233800903227
 11
-26.458093241653206
 21
-65.8898110094316
  0
LINE
  8
0
 10
-26.458093241653206
 20
-65.8898110094316
 11
-26.26744801409156
 21
-65.53525919160914
  0
LINE
  8
0
 10
-26.26744801409156
 20
-65.53525919160914
 11
-26.097914603855518
 21
-65.27522629545977
  0
LINE
  8
0
 10
-26.097914603855518
 20
-65.27522629545977
 11
-25.948191034331572
 21
-65.11510739429715
  0
LINE
  8
0
 10
-25.948191034331572
 20
-65.11510739429715
 11
-25.82534974253702
 21
-65.05296977198176
  0
LINE
  8
0
 10
-25.82534974253702
 20
-65.05296977198176
 11
-23.248602627417284
 21
-66.01772520581996
  0
LINE
  8
0
 10
-23.248602627417284
 20
-66.01772520581996
 11
-23.196776206548837
 21
-66.14525986454616
  0
LINE
  8
0
 10
-23.196776206548837
 20
-66.14525986454616
 11
-23.189027085557097
 21
-66.36433784359588
  0
LINE
  8
0
 10
-23.189027085557097
 20
-66.36433784359588
 11
-23.231957951185787
 21
-66.67177177965755
  0
LINE
  8
0
 10
-23.231957951185787
 20
-66.67177177965755
 11
-23.32104374894383
 21
-67.06434828806667
  0
LINE
  8
0
 10
-23.32104374894383
 20
-67.06434828806667
 11
-23.392472640640186
 21
-67.44309570480713
  0
LINE
  8
0
 10
-23.392472640640186
 20
-67.44309570480713
 11
-23.464113411974612
 21
-67.91820891314569
  0
LINE
  8
0
 10
-23.464113411974612
 20
-67.91820891314569
 11
-23.52896326265301
 21
-68.49008787915642
  0
LINE
  8
0
 10
-23.52896326265301
 20
-68.49008787915642
 11
-23.579994966858767
 21
-69.15874753813968
  0
LINE
  8
0
 10
-23.579994966858767
 20
-69.15874753813968
 11
-23.610175727922147
 21
-69.92381671212304
  0
LINE
  8
0
 10
-23.610175727922147
 20
-69.92381671212304
 11
-23.61248607321029
 21
-70.78453789345816
  0
LINE
  8
0
 10
-23.61248607321029
 20
-70.78453789345816
 11
-23.596376869759705
 21
-71.2573262344117
  0
LINE
  8
0
 10
-23.596376869759705
 20
-71.2573262344117
 11
-22.4247708613335
 21
-71.69598521507551
  0
LINE
  8
0
 10
-22.4247708613335
 20
-71.69598521507551
 11
-21.212019613742765
 21
-72.00309554014537
  0
LINE
  8
0
 10
-21.212019613742765
 20
-72.00309554014537
 11
-20.929382821553748
 21
-71.62374772417864
  0
LINE
  8
0
 10
-20.929382821553748
 20
-71.62374772417864
 11
-20.44083554766267
 21
-70.91510969890234
  0
LINE
  8
0
 10
-20.44083554766267
 20
-70.91510969890234
 11
-20.029694847661585
 21
-70.2691955837726
  0
LINE
  8
0
 10
-20.029694847661585
 20
-70.2691955837726
 11
-19.69062390863121
 21
-69.69062763384086
  0
LINE
  8
0
 10
-19.69062390863121
 20
-69.69062763384086
 11
-19.418054834485876
 21
-69.18371821913466
  0
LINE
  8
0
 10
-19.418054834485876
 20
-69.18371821913466
 11
-19.2062042966935
 21
-68.75245923604847
  0
LINE
  8
0
 10
-19.2062042966935
 20
-68.75245923604847
 11
-19.04908964543416
 21
-68.40051225336579
  0
LINE
  8
0
 10
-19.04908964543416
 20
-68.40051225336579
 11
-18.898605120005243
 21
-68.02713978260813
  0
LINE
  8
0
 10
-18.898605120005243
 20
-68.02713978260813
 11
-18.758706419046643
 21
-67.75003504115429
  0
LINE
  8
0
 10
-18.758706419046643
 20
-67.75003504115429
 11
-18.62750596564367
 21
-67.57441712974612
  0
LINE
  8
0
 10
-18.62750596564367
 20
-67.57441712974612
 11
-18.512245886575425
 21
-67.49914308873633
  0
LINE
  8
0
 10
-18.512245886575425
 20
-67.49914308873633
 11
-15.845006852196475
 21
-68.17457974445135
  0
LINE
  8
0
 10
-15.845006852196475
 20
-68.17457974445135
 11
-15.779465121678179
 21
-68.29563902182038
  0
LINE
  8
0
 10
-15.779465121678179
 20
-68.29563902182038
 11
-15.747662653868002
 21
-68.51253487890813
  0
LINE
  8
0
 10
-15.747662653868002
 20
-68.51253487890813
 11
-15.756512697840822
 21
-68.82282564736198
  0
LINE
  8
0
 10
-15.756512697840822
 20
-68.82282564736198
 11
-15.80187116185173
 21
-69.22281965239138
  0
LINE
  8
0
 10
-15.80187116185173
 20
-69.22281965239138
 11
-15.831201199033837
 21
-69.60712609414773
  0
LINE
  8
0
 10
-15.831201199033837
 20
-69.60712609414773
 11
-15.85014080058973
 21
-70.08723676091954
  0
LINE
  8
0
 10
-15.85014080058973
 20
-70.08723676091954
 11
-15.851685668923706
 21
-70.66277882565532
  0
LINE
  8
0
 10
-15.851685668923706
 20
-70.66277882565532
 11
-15.828849585714364
 21
-71.33299408039771
  0
LINE
  8
0
 10
-15.828849585714364
 20
-71.33299408039771
 11
-15.774683271232742
 21
-72.09673993452292
  0
LINE
  8
0
 10
-15.774683271232742
 20
-72.09673993452292
 11
-15.682293188359226
 21
-72.95249127824427
  0
LINE
  8
0
 10
-15.682293188359226
 20
-72.95249127824427
 11
-15.61427115256748
 21
-73.42063796938302
  0
LINE
  8
0
 10
-15.61427115256748
 20
-73.42063796938302
 11
-14.401519904976812
 21
-73.72774829445285
  0
LINE
  8
0
 10
-14.401519904976812
 20
-73.72774829445285
 11
-13.162344575530927
 21
-73.8995820606051
  0
LINE
  8
0
 10
-13.162344575530927
 20
-73.8995820606051
 11
-12.923154575608008
 21
-73.49144425824599
  0
LINE
  8
0
 10
-12.923154575608008
 20
-73.49144425824599
 11
-12.515528461257011
 21
-72.73336296933758
  0
LINE
  8
0
 10
-12.515528461257011
 20
-72.73336296933758
 11
-12.177938969552347
 21
-72.04614025841208
  0
LINE
  8
0
 10
-12.177938969552347
 20
-72.04614025841208
 11
-11.904573192359234
 21
-71.43378323326844
  0
LINE
  8
0
 10
-11.904573192359234
 20
-71.43378323326844
 11
-11.689422630795017
 21
-70.89996557642594
  0
LINE
  8
0
 10
-11.689422630795017
 20
-70.89996557642594
 11
-11.526299915793896
 21
-70.44801874248844
  0
LINE
  8
0
 10
-11.526299915793896
 20
-70.44801874248844
 11
-11.408855905500282
 21
-70.08092393633349
  0
LINE
  8
0
 10
-11.408855905500282
 20
-70.08092393633349
 11
-11.300358760491061
 21
-69.6932630486519
  0
LINE
  8
0
 10
-11.300358760491061
 20
-69.6932630486519
 11
-11.19179294952774
 21
-69.40245013807883
  0
LINE
  8
0
 10
-11.19179294952774
 20
-69.40245013807883
 11
-11.08070820802121
 21
-69.21346497997126
  0
LINE
  8
0
 10
-11.08070820802121
 20
-69.21346497997126
 11
-10.97442844290371
 21
-69.125968245156
  0
LINE
  8
0
 10
-10.97442844290371
 20
-69.125968245156
 11
-8.249074158005168
 21
-69.50388723671821
  0
LINE
  8
0
 10
-8.249074158005168
 20
-69.50388723671821
 11
-8.170612705660332
 21
-69.61700163709403
  0
LINE
  8
0
 10
-8.170612705660332
 20
-69.61700163709403
 11
-8.11514292991017
 21
-69.8290825503297
  0
LINE
  8
0
 10
-8.11514292991017
 20
-69.8290825503297
 11
-8.089804724681878
 21
-70.13846364157773
  0
LINE
  8
0
 10
-8.089804724681878
 20
-70.13846364157773
 11
-8.090885264636757
 21
-70.54101975785258
  0
LINE
  8
0
 10
-8.090885264636757
 20
-70.54101975785258
 11
-8.077760420384749
 21
-70.92622026501722
  0
LINE
  8
0
 10
-8.077760420384749
 20
-70.92622026501722
 11
-8.043768951055483
 21
-71.40550049710279
  0
LINE
  8
0
 10
-8.043768951055483
 20
-71.40550049710279
 11
-7.9819900844361955
 21
-71.9777193595477
  0
LINE
  8
0
 10
-7.9819900844361955
 20
-71.9777193595477
 11
-7.885563412927344
 21
-72.64135470475429
  0
LINE
  8
0
 10
-7.885563412927344
 20
-72.64135470475429
 11
-7.747707528582891
 21
-73.39450639894979
  0
LINE
  8
0
 10
-7.747707528582891
 20
-73.39450639894979
 11
-7.56173850799888
 21
-74.23490024297608
  0
LINE
  8
0
 10
-7.56173850799888
 20
-74.23490024297608
 11
-7.442629335235416
 21
-74.692722617638
  0
LINE
  8
0
 10
-7.442629335235416
 20
-74.692722617638
 11
-6.203454005789519
 21
-74.8645563837902
  0
LINE
  8
0
 10
-6.203454005789519
 20
-74.8645563837902
 11
-4.9528965043565485
 21
-74.89902776187586
  0
LINE
  8
0
 10
-4.9528965043565485
 20
-74.89902776187586
 11
-4.760056739283441
 21
-74.4670542131669
  0
LINE
  8
0
 10
-4.760056739283441
 20
-74.4670542131669
 11
-4.4382998133157825
 21
-73.66873174054962
  0
LINE
  8
0
 10
-4.4382998133157825
 20
-73.66873174054962
 11
-4.178359409025986
 21
-72.94854238660243
  0
LINE
  8
0
 10
-4.178359409025986
 20
-72.94854238660243
 11
-3.9740170838941644
 21
-72.30982947101134
  0
LINE
  8
0
 10
-3.9740170838941644
 20
-72.30982947101134
 11
-3.818896671277777
 21
-71.75558339525801
  0
LINE
  8
0
 10
-3.818896671277777
 20
-71.75558339525801
 11
-3.70648186785614
 21
-71.28843473280983
  0
LINE
  8
0
 10
-3.70648186785614
 20
-71.28843473280983
 11
-3.6301341097193447
 21
-70.91064813684953
  0
LINE
  8
0
 10
-3.6301341097193447
 20
-70.91064813684953
 11
-3.5649413534961054
 21
-70.51340451028108
  0
LINE
  8
0
 10
-3.5649413534961054
 20
-70.51340451028108
 11
-3.4890262744060103
 21
-70.21241350537753
  0
LINE
  8
0
 10
-3.4890262744060103
 20
-70.21241350537753
 11
-3.399405663078435
 21
-70.01235512438393
  0
LINE
  8
0
 10
-3.399405663078435
 20
-70.01235512438393
 11
-3.303396304289823
 21
-69.91369778759764
  0
LINE
  8
0
 10
-3.303396304289823
 20
-69.91369778759764
 11
-0.553008878027604
 21
-69.98951169039209
  0
LINE
  8
0
 10
-0.553008878027604
 20
-69.98951169039209
 11
-0.46258011960099615
 21
-70.09330815818298
  0
LINE
  8
0
 10
-0.46258011960099615
 20
-70.09330815818298
 11
-0.3841163638471069
 21
-70.29799975257231
  0
LINE
  8
0
 10
-0.3841163638471069
 20
-70.29799975257231
 11
-0.3248974809051267
 21
-70.60271569926546
  0
LINE
  8
0
 10
-0.3248974809051267
 20
-70.60271569926546
 11
-0.28168698051266816
 21
-71.00294744085116
  0
LINE
  8
0
 10
-0.28168698051266816
 20
-71.00294744085116
 11
-0.22626657265637581
 21
-71.38436620107355
  0
LINE
  8
0
 10
-0.22626657265637581
 20
-71.38436620107355
 11
-0.13975664283354464
 21
-71.85699818570558
  0
LINE
  8
0
 10
-0.13975664283354464
 20
-71.85699818570558
 11
-0.015403953013881429
 21
-72.41894788401773
  0
LINE
  8
0
 10
-0.015403953013881429
 20
-72.41894788401773
 11
0.1534428176253955
 21
-73.06794768558197
  0
LINE
  8
0
 10
0.1534428176253955
 20
-73.06794768558197
 11
0.37331488814126607
 21
-73.80136297852657
  0
LINE
  8
0
 10
0.37331488814126607
 20
-73.80136297852657
 11
0.6506054344461972
 21
-74.616198080019
  0
LINE
  8
0
 10
0.6506054344461972
 20
-74.616198080019
 11
0.8193559201736109
 21
-75.05813879475824
  0
LINE
  8
0
 10
0.8193559201736109
 20
-75.05813879475824
 11
2.0699134216066444
 21
-75.09261017284389
  0
LINE
  8
0
 10
2.0699134216066444
 20
-75.09261017284389
 11
3.316673021009372
 21
-74.98930072702916
  0
LINE
  8
0
 10
3.316673021009372
 20
-74.98930072702916
 11
3.460821737712352
 21
-74.53873500568488
  0
LINE
  8
0
 10
3.460821737712352
 20
-74.53873500568488
 11
3.692803782078908
 21
-73.70986190274002
  0
LINE
  8
0
 10
3.692803782078908
 20
-73.70986190274002
 11
3.871939774570362
 21
-72.96544802893371
  0
LINE
  8
0
 10
3.871939774570362
 20
-72.96544802893371
 11
4.004778208623238
 21
-72.308132332467
  0
LINE
  8
0
 10
4.004778208623238
 20
-72.308132332467
 11
4.097985520614312
 21
-71.7401856343609
  0
LINE
  8
0
 10
4.097985520614312
 20
-71.7401856343609
 11
4.158327849024053
 21
-71.26350569534777
  0
LINE
  8
0
 10
4.158327849024053
 20
-71.26350569534777
 11
4.192652596643662
 21
-70.8796131270938
  0
LINE
  8
0
 10
4.192652596643662
 20
-70.8796131270938
 11
4.213749612332819
 21
-70.47760876114455
  0
LINE
  8
0
 10
4.213749612332819
 20
-70.47760876114455
 11
4.256092453326825
 21
-70.17009328497684
  0
LINE
  8
0
 10
4.256092453326825
 20
-70.17009328497684
 11
4.323161061657228
 21
-69.96139011883618
  0
LINE
  8
0
 10
4.323161061657228
 20
-69.96139011883618
 11
4.40773459055898
 21
-69.85276974650269
  0
LINE
  8
0
 10
4.40773459055898
 20
-69.85276974650269
 11
7.149769180603598
 21
-69.6255582824497
  0
LINE
  8
0
 10
7.149769180603598
 20
-69.6255582824497
 11
7.251067562482722
 21
-69.7187768691431
  0
LINE
  8
0
 10
7.251067562482722
 20
-69.7187768691431
 11
7.3515728545353065
 21
-69.91359446601277
  0
LINE
  8
0
 10
7.3515728545353065
 20
-69.91359446601277
 11
7.443953578172082
 21
-70.20994642933738
  0
LINE
  8
0
 10
7.443953578172082
 20
-70.20994642933738
 11
7.530930601971611
 21
-70.60299552505936
  0
LINE
  8
0
 10
7.530930601971611
 20
-70.60299552505936
 11
7.627973844755284
 21
-70.97600263127393
  0
LINE
  8
0
 10
7.627973844755284
 20
-70.97600263127393
 11
7.765952121713091
 21
-71.43624925640323
  0
LINE
  8
0
 10
7.765952121713091
 20
-71.43624925640323
 11
7.951369161531337
 21
-71.98110848248236
  0
LINE
  8
0
 10
7.951369161531337
 20
-71.98110848248236
 11
8.190586460231376
 21
-72.6075947619717
  0
LINE
  8
0
 10
8.190586460231376
 20
-72.6075947619717
 11
8.489805767829202
 21
-73.31237098551972
  0
LINE
  8
0
 10
8.489805767829202
 20
-73.31237098551972
 11
8.85505190825064
 21
-74.09175635015106
  0
LINE
  8
0
 10
8.85505190825064
 20
-74.09175635015106
 11
9.071395304640728
 21
-74.51245084335935
  0
LINE
  8
0
 10
9.071395304640728
 20
-74.51245084335935
 11
10.31815490404339
 21
-74.40914139754466
  0
LINE
  8
0
 10
10.31815490404339
 20
-74.40914139754466
 11
11.545982628784436
 21
-74.16930516455515
  0
LINE
  8
0
 10
11.545982628784436
 20
-74.16930516455515
 11
11.639690526965554
 21
-73.70561652808016
  0
LINE
  8
0
 10
11.639690526965554
 20
-73.70561652808016
 11
11.779081741963605
 21
-72.85625419145622
  0
LINE
  8
0
 10
11.779081741963605
 20
-72.85625419145622
 11
11.875238854371915
 21
-72.09665197380905
  0
LINE
  8
0
 10
11.875238854371915
 20
-72.09665197380905
 11
11.93496091870416
 21
-71.42871241859837
  0
LINE
  8
0
 10
11.93496091870416
 20
-71.42871241859837
 11
11.965123719564316
 21
-70.85395920169348
  0
LINE
  8
0
 10
11.965123719564316
 20
-70.85395920169348
 11
11.972661098837156
 21
-70.3735342348473
  0
LINE
  8
0
 10
11.972661098837156
 20
-70.3735342348473
 11
11.964546180001015
 21
-69.98819563004359
  0
LINE
  8
0
 10
11.964546180001015
 20
-69.98819563004359
 11
11.941291365964393
 21
-69.58631031314664
  0
LINE
  8
0
 10
11.941291365964393
 20
-69.58631031314664
 11
11.949547984131776
 21
-69.27600318702393
  0
LINE
  8
0
 10
11.949547984131776
 20
-69.27600318702393
 11
11.993250467413418
 21
-69.06118860945637
  0
LINE
  8
0
 10
11.993250467413418
 20
-69.06118860945637
 11
12.065361558353787
 21
-68.94392370575473
  0
LINE
  8
0
 10
12.065361558353787
 20
-68.94392370575473
 11
14.765758726716149
 21
-68.41644491423911
  0
LINE
  8
0
 10
14.765758726716149
 20
-68.41644491423911
 11
14.876697106914202
 21
-68.4979540724698
  0
LINE
  8
0
 10
14.876697106914202
 20
-68.4979540724698
 11
14.99802393716804
 21
-68.68053285010075
  0
LINE
  8
0
 10
14.99802393716804
 20
-68.68053285010075
 11
15.122445124656908
 21
-68.96492351867104
  0
LINE
  8
0
 10
15.122445124656908
 20
-68.96492351867104
 11
15.252132888616778
 21
-69.34601888494564
  0
LINE
  8
0
 10
15.252132888616778
 20
-69.34601888494564
 11
15.389620992818699
 21
-69.70608653617177
  0
LINE
  8
0
 10
15.389620992818699
 20
-69.70608653617177
 11
15.577392747539534
 21
-70.14836103123588
  0
LINE
  8
0
 10
15.577392747539534
 20
-70.14836103123588
 11
15.82162342566555
 21
-70.66951593216325
  0
LINE
  8
0
 10
15.82162342566555
 20
-70.66951593216325
 11
16.128307478472472
 21
-71.26588399480549
  0
LINE
  8
0
 10
16.128307478472472
 20
-71.26588399480549
 11
16.503241906091233
 21
-71.93346612031826
  0
LINE
  8
0
 10
16.503241906091233
 20
-71.93346612031826
 11
16.952010047259993
 21
-72.66794106554525
  0
LINE
  8
0
 10
16.952010047259993
 20
-72.66794106554525
 11
17.2133202385471
 21
-73.06228267596298
  0
LINE
  8
0
 10
17.2133202385471
 20
-73.06228267596298
 11
18.441147963288216
 21
-72.82244644297344
  0
LINE
  8
0
 10
18.441147963288216
 20
-72.82244644297344
 11
19.63513964804878
 21
-72.44899470978697
  0
LINE
  8
0
 10
19.63513964804878
 20
-72.44899470978697
 11
19.67726924076416
 21
-71.97781171009863
  0
LINE
  8
0
 10
19.67726924076416
 20
-71.97781171009863
 11
19.72237760586797
 21
-71.1182702479855
  0
LINE
  8
0
 10
19.72237760586797
 20
-71.1182702479855
 11
19.734388621106373
 21
-70.35270022843525
  0
LINE
  8
0
 10
19.734388621106373
 20
-70.35270022843525
 11
19.720269370758643
 21
-69.68224469586598
  0
LINE
  8
0
 10
19.720269370758643
 20
-69.68224469586598
 11
19.687021524945063
 21
-69.10766168563421
  0
LINE
  8
0
 10
19.687021524945063
 20
-69.10766168563421
 11
19.641662461507025
 21
-68.62932339925158
  0
LINE
  8
0
 10
19.641662461507025
 20
-68.62932339925158
 11
19.59120638033704
 21
-68.24721624656694
  0
LINE
  8
0
 10
19.59120638033704
 20
-68.24721624656694
 11
19.52388201851525
 21
-67.85032832206113
  0
LINE
  8
0
 10
19.52388201851525
 20
-67.85032832206113
 11
19.497952189696164
 21
-67.54099625414138
  0
LINE
  8
0
 10
19.497952189696164
 20
-67.54099625414138
 11
19.51775805898296
 21
-67.32267782312304
  0
LINE
  8
0
 10
19.51775805898296
 20
-67.32267782312304
 11
19.576531381002194
 21
-67.19819182513297
  0
LINE
  8
0
 10
19.576531381002194
 20
-67.19819182513297
 11
22.202511964113334
 21
-66.37684858414201
  0
LINE
  8
0
 10
22.202511964113334
 20
-66.37684858414201
 11
22.321743700975823
 21
-66.44565890314429
  0
LINE
  8
0
 10
22.321743700975823
 20
-66.44565890314429
 11
22.462419326065316
 21
-66.61378260250382
  0
LINE
  8
0
 10
22.462419326065316
 20
-66.61378260250382
 11
22.61737067273556
 21
-66.88275985884917
  0
LINE
  8
0
 10
22.61737067273556
 20
-66.88275985884917
 11
22.788194943081002
 21
-67.2472755141753
  0
LINE
  8
0
 10
22.788194943081002
 20
-67.2472755141753
 11
22.964458989362484
 21
-67.59003297688767
  0
LINE
  8
0
 10
22.964458989362484
 20
-67.59003297688767
 11
23.199744927106405
 21
-68.00896672863743
  0
LINE
  8
0
 10
23.199744927106405
 20
-68.00896672863743
 11
23.499824613951382
 21
-68.50009118989091
  0
LINE
  8
0
 10
23.499824613951382
 20
-68.50009118989091
 11
23.870252691909336
 21
-69.05910193526715
  0
LINE
  8
0
 10
23.870252691909336
 20
-69.05910193526715
 11
24.316351043497374
 21
-69.68138642007165
  0
LINE
  8
0
 10
24.316351043497374
 20
-69.68138642007165
 11
24.843193748097104
 21
-70.3620354150054
  0
LINE
  8
0
 10
24.843193748097104
 20
-70.3620354150054
 11
25.146298782539212
 21
-70.72523736967155
  0
LINE
  8
0
 10
25.146298782539212
 20
-70.72523736967155
 11
26.340290467299752
 21
-70.35178563648492
  0
LINE
  8
0
 10
26.340290467299752
 20
-70.35178563648492
 11
27.48595267045078
 21
-69.84925160125096
  0
LINE
  8
0
 10
27.48595267045078
 20
-69.84925160125096
 11
27.475992561515138
 21
-69.3762937616842
  0
LINE
  8
0
 10
27.475992561515138
 20
-69.3762937616842
 11
27.42627052227775
 21
-68.51700684306621
  0
LINE
  8
0
 10
27.42627052227775
 20
-68.51700684306621
 11
27.353989642891815
 21
-67.75476200458161
  0
LINE
  8
0
 10
27.353989642891815
 20
-67.75476200458161
 11
27.26620046643689
 21
-67.08992891659598
  0
LINE
  8
0
 10
27.26620046643689
 20
-67.08992891659598
 11
27.16994555775901
 21
-66.52249077243077
  0
LINE
  8
0
 10
27.16994555775901
 20
-66.52249077243077
 11
27.072240649195226
 21
-66.05204554533414
  0
LINE
  8
0
 10
27.072240649195226
 20
-66.05204554533414
 11
26.980055874167185
 21
-65.67780810798611
  0
LINE
  8
0
 10
26.980055874167185
 20
-65.67780810798611
 11
26.869479191112735
 21
-65.29073525763631
  0
LINE
  8
0
 10
26.869479191112735
 20
-65.29073525763631
 11
26.80967766830357
 21
-64.98613312019174
  0
LINE
  8
0
 10
26.80967766830357
 20
-64.98613312019174
 11
26.80534650717212
 21
-64.76696092573322
  0
LINE
  8
0
 10
26.80534650717212
 20
-64.76696092573322
 11
26.850068631757363
 21
-64.63676492483708
  0
LINE
  8
0
 10
26.850068631757363
 20
-64.63676492483708
 11
29.369756782585874
 21
-63.53152722869537
  0
LINE
  8
0
 10
29.369756782585874
 20
-63.53152722869537
 11
29.495834564342882
 21
-63.586803444409504
  0
LINE
  8
0
 10
29.495834564342882
 20
-63.586803444409504
 11
29.654151372743687
 21
-63.738431271533784
  0
LINE
  8
0
 10
29.654151372743687
 20
-63.738431271533784
 11
29.8377519791494
 21
-63.98873009612843
  0
LINE
  8
0
 10
29.8377519791494
 20
-63.98873009612843
 11
30.04763918064311
 21
-64.33224131423641
  0
LINE
  8
0
 10
30.04763918064311
 20
-64.33224131423641
 11
30.260539562255897
 21
-64.65352797714925
  0
LINE
  8
0
 10
30.260539562255897
 20
-64.65352797714925
 11
30.540483630465463
 21
-65.0440356973411
  0
LINE
  8
0
 10
30.540483630465463
 20
-65.0440356973411
 11
30.89276976512982
 21
-65.4991681332559
  0
LINE
  8
0
 10
30.89276976512982
 20
-65.4991681332559
 11
31.322445373167568
 21
-66.01403592817333
  0
LINE
  8
0
 10
31.322445373167568
 20
-66.01403592817333
 11
31.83429261903745
 21
-66.58346908159291
  0
LINE
  8
0
 10
31.83429261903745
 20
-66.58346908159291
 11
32.432814730314355
 21
-67.20202996946647
  0
LINE
  8
0
 10
32.432814730314355
 20
-67.20202996946647
 11
32.77403532339028
 21
-67.52968348865765
  0
LINE
  8
0
 10
32.77403532339028
 20
-67.52968348865765
 11
33.919697526541235
 21
-67.0271494534237
  0
LINE
  8
0
 10
33.919697526541235
 20
-67.0271494534237
 11
35.003123460891636
 21
-66.40163319857947
  0
LINE
  8
0
 10
35.003123460891636
 20
-66.40163319857947
 11
34.94119455253515
 21
-65.93264158662099
  0
LINE
  8
0
 10
34.94119455253515
 20
-65.93264158662099
 11
34.797245667157654
 21
-65.08403979066927
  0
LINE
  8
0
 10
34.797245667157654
 20
-65.08403979066927
 11
34.64155028510885
 21
-64.33437275302529
  0
LINE
  8
0
 10
34.64155028510885
 20
-64.33437275302529
 11
34.48115682422652
 21
-63.68323228270469
  0
LINE
  8
0
 10
34.48115682422652
 20
-63.68323228270469
 11
34.32306325688534
 21
-63.12982693500413
  0
LINE
  8
0
 10
34.32306325688534
 20
-63.12982693500413
 11
34.174198508431196
 21
-62.672985334968466
  0
LINE
  8
0
 10
34.174198508431196
 20
-62.672985334968466
 11
34.04140403783713
 21
-62.311160348490986
  0
LINE
  8
0
 10
34.04140403783713
 20
-62.311160348490986
 11
33.88891728469116
 21
-61.938601112357674
  0
LINE
  8
0
 10
33.88891728469116
 20
-61.938601112357674
 11
33.79596997736954
 21
-61.64242636271187
  0
LINE
  8
0
 10
33.79596997736954
 20
-61.64242636271187
 11
33.76755436024882
 21
-61.425060858355344
  0
LINE
  8
0
 10
33.76755436024882
 20
-61.425060858355344
 11
33.797682421389815
 21
-61.29073525763587
  0
LINE
  8
0
 10
33.797682421389815
 20
-61.29073525763587
 11
36.18049253904466
 21
-59.9150191947799
  0
LINE
  8
0
 10
36.18049253904466
 20
-59.9150191947799
 11
36.311885952215135
 21
-59.95609032882625
  0
LINE
  8
0
 10
36.311885952215135
 20
-59.95609032882625
 11
36.48592219233491
 21
-60.08938172729451
  0
LINE
  8
0
 10
36.48592219233491
 20
-60.08938172729451
 11
36.69594339582629
 21
-60.317963831471616
  0
LINE
  8
0
 10
36.69594339582629
 20
-60.317963831471616
 11
36.94234578216287
 21
-60.63630085150625
  0
LINE
  8
0
 10
36.94234578216287
 20
-60.63630085150625
 11
37.18929817687668
 21
-60.93221672975825
  0
LINE
  8
0
 10
37.18929817687668
 20
-60.93221672975825
 11
37.51050223378611
 21
-61.289558183664845
  0
LINE
  8
0
 10
37.51050223378611
 20
-61.289558183664845
 11
37.910718539814475
 21
-61.70317390300771
  0
LINE
  8
0
 10
37.910718539814475
 20
-61.70317390300771
 11
38.39442599810445
 21
-62.16764894989441
  0
LINE
  8
0
 10
38.39442599810445
 20
-62.16764894989441
 11
38.96580900605796
 21
-62.67731862482116
  0
LINE
  8
0
 10
38.96580900605796
 20
-62.67731862482116
 11
39.62874527636066
 21
-63.22628291438052
  0
LINE
  8
0
 10
39.62874527636066
 20
-63.22628291438052
 11
40.00393947230011
 21
-63.514410728224995
  0
LINE
  8
0
 10
40.00393947230011
 20
-63.514410728224995
 11
41.087365406650505
 21
-62.888894473380766
  0
LINE
  8
0
 10
41.087365406650505
 20
-62.888894473380766
 11
42.095403749004994
 21
-62.14798891891337
  0
LINE
  8
0
 10
42.095403749004994
 20
-62.14798891891337
 11
41.98225777428392
 21
-61.6886564574194
  0
LINE
  8
0
 10
41.98225777428392
 20
-61.6886564574194
 11
41.74582938723648
 21
-60.86104066039033
  0
LINE
  8
0
 10
41.74582938723648
 20
-60.86104066039033
 11
41.508609433552316
 21
-60.1330513658981
  0
LINE
  8
0
 10
41.508609433552316
 20
-60.1330513658981
 11
41.27755864758296
 21
-59.50350747649396
  0
LINE
  8
0
 10
41.27755864758296
 20
-59.50350747649396
 11
41.05954546332678
 21
-58.97085251651638
  0
LINE
  8
0
 10
41.05954546332678
 20
-58.97085251651638
 11
40.86132789137097
 21
-58.533159981712096
  0
LINE
  8
0
 10
40.86132789137097
 20
-58.533159981712096
 11
40.689535670195745
 21
-58.18813951129988
  0
LINE
  8
0
 10
40.689535670195745
 20
-58.18813951129988
 11
40.49698982957741
 21
-57.83461625382758
  0
LINE
  8
0
 10
40.49698982957741
 20
-57.83461625382758
 11
40.37202499214444
 21
-57.55046405223229
  0
LINE
  8
0
 10
40.37202499214444
 20
-57.55046405223229
 11
40.31986984613351
 21
-57.33754376074956
  0
LINE
  8
0
 10
40.31986984613351
 20
-57.33754376074956
 11
40.33503812998053
 21
-57.200719091037186
  0
LINE
  8
0
 10
40.33503812998053
 20
-57.200719091037186
 11
42.55204612747352
 21
-55.57122399087567
  0
LINE
  8
0
 10
42.55204612747352
 20
-55.57122399087567
 11
42.68716023401182
 21
-55.59759149532336
  0
LINE
  8
0
 10
42.68716023401182
 20
-55.59759149532336
 11
42.874803341651244
 21
-55.71092848811949
  0
LINE
  8
0
 10
42.874803341651244
 20
-55.71092848811949
 11
43.108695769320164
 21
-55.91501919477988
  0
LINE
  8
0
 10
43.108695769320164
 20
-55.91501919477988
 11
43.388622349315
 21
-56.2043178365487
  0
LINE
  8
0
 10
43.388622349315
 20
-56.2043178365487
 11
43.66662908958859
 21
-56.47127091223616
  0
LINE
  8
0
 10
43.66662908958859
 20
-56.47127091223616
 11
44.02519415306157
 21
-56.791108458674614
  0
LINE
  8
0
 10
44.02519415306157
 20
-56.791108458674614
 11
44.468482546646115
 21
-57.15818672691143
  0
LINE
  8
0
 10
44.468482546646115
 20
-57.15818672691143
 11
45.00035030189216
 21
-57.56663092789276
  0
LINE
  8
0
 10
45.00035030189216
 20
-57.56663092789276
 11
45.62433325622868
 21
-58.010350424889914
  0
LINE
  8
0
 10
45.62433325622868
 20
-58.010350424889914
 11
46.34363653727299
 21
-58.48305443330656
  0
LINE
  8
0
 10
46.34363653727299
 20
-58.48305443330656
 11
46.7482499867888
 21
-58.72815906045254
  0
LINE
  8
0
 10
46.7482499867888
 20
-58.72815906045254
 11
47.75628832914323
 21
-57.98725350598509
  0
LINE
  8
0
 10
47.75628832914323
 20
-57.98725350598509
 11
48.676702859550446
 21
-57.13995224166842
  0
LINE
  8
0
 10
48.676702859550446
 20
-57.13995224166842
 11
48.5137132573264
 21
-56.69585460449333
  0
LINE
  8
0
 10
48.5137132573264
 20
-56.69585460449333
 11
48.18767528895338
 21
-55.89927094104478
  0
LINE
  8
0
 10
48.18767528895338
 20
-55.89927094104478
 11
47.87181029252491
 21
-55.20179619357899
  0
LINE
  8
0
 10
47.87181029252491
 20
-55.20179619357899
 11
47.5729068250205
 21
-54.60149069510593
  0
LINE
  8
0
 10
47.5729068250205
 20
-54.60149069510593
 11
47.297620408577714
 21
-54.09605183251193
  0
LINE
  8
0
 10
47.297620408577714
 20
-54.09605183251193
 11
47.05245610593115
 21
-53.682821357397515
  0
LINE
  8
0
 10
47.05245610593115
 20
-53.682821357397515
 11
46.84375145902391
 21
-53.358793484184254
  0
LINE
  8
0
 10
46.84375145902391
 20
-53.358793484184254
 11
46.61348377660882
 21
-53.0285974988234
  0
LINE
  8
0
 10
46.61348377660882
 20
-53.0285974988234
 11
46.4580183129091
 21
-52.759917068083226
  0
LINE
  8
0
 10
46.4580183129091
 20
-52.759917068083226
 11
46.38275673082928
 21
-52.55402655338341
  0
LINE
  8
0
 10
46.38275673082928
 20
-52.55402655338341
 11
46.38278111496393
 21
-52.41636368082084
  0
LINE
  8
0
 10
46.38278111496393
 20
-52.41636368082084
 11
48.40707551844411
 21
-50.55286940649717
  0
LINE
  8
0
 10
48.40707551844411
 20
-50.55286940649717
 11
48.54427021612728
 21
-50.56421321556056
  0
LINE
  8
0
 10
48.54427021612728
 20
-50.56421321556056
 11
48.7432424581477
 21
-50.65622004512239
  0
LINE
  8
0
 10
48.7432424581477
 20
-50.65622004512239
 11
48.99816697276135
 21
-50.8333419695558
  0
LINE
  8
0
 10
48.99816697276135
 20
-50.8333419695558
 11
49.3082198169319
 21
-51.09009053944206
  0
LINE
  8
0
 10
49.3082198169319
 20
-51.09009053944206
 11
49.61390627753626
 21
-51.32484036385034
  0
LINE
  8
0
 10
49.61390627753626
 20
-51.32484036385034
 11
50.00547985342731
 21
-51.60329160827035
  0
LINE
  8
0
 10
50.00547985342731
 20
-51.60329160827035
 11
50.48645941396431
 21
-51.9193765924821
  0
LINE
  8
0
 10
50.48645941396431
 20
-51.9193765924821
 11
51.0600313121049
 21
-52.266831988251326
  0
LINE
  8
0
 10
51.0600313121049
 20
-52.266831988251326
 11
51.72903990502849
 21
-52.6392151537037
  0
LINE
  8
0
 10
51.72903990502849
 20
-52.6392151537037
 11
52.49597882937657
 21
-53.02992089465729
  0
LINE
  8
0
 10
52.49597882937657
 20
-53.02992089465729
 11
52.925100073295496
 21
-53.22902709695873
  0
LINE
  8
0
 10
52.925100073295496
 20
-53.22902709695873
 11
53.84551460370276
 21
-52.38172583264199
  0
LINE
  8
0
 10
53.84551460370276
 20
-52.38172583264199
 11
54.66713273659018
 21
-51.43831394804016
  0
LINE
  8
0
 10
54.66713273659018
 20
-51.43831394804016
 11
54.45627797984254
 21
-51.01484187890863
  0
LINE
  8
0
 10
54.45627797984254
 20
-51.01484187890863
 11
54.04458808941726
 21
-50.25895979563405
  0
LINE
  8
0
 10
54.04458808941726
 20
-50.25895979563405
 11
53.65391222341908
 21
-49.600465993804605
  0
LINE
  8
0
 10
53.65391222341908
 20
-49.600465993804605
 11
53.29078435756975
 21
-49.03668578181872
  0
LINE
  8
0
 10
53.29078435756975
 20
-49.03668578181872
 11
52.9615663131231
 21
-48.56459835971455
  0
LINE
  8
0
 10
52.9615663131231
 20
-48.56459835971455
 11
52.672431242311546
 21
-48.18084600248107
  0
LINE
  8
0
 10
52.672431242311546
 20
-48.18084600248107
 11
52.429347561366946
 21
-47.881743985907775
  0
LINE
  8
0
 10
52.429347561366946
 20
-47.881743985907775
 11
52.16415317489075
 21
-47.57888340462531
  0
LINE
  8
0
 10
52.16415317489075
 20
-47.57888340462531
 11
51.98007422505447
 21
-47.32893616120528
  0
LINE
  8
0
 10
51.98007422505447
 20
-47.32893616120528
 11
51.88261978056018
 21
-47.132574655230144
  0
LINE
  8
0
 10
51.88261978056018
 20
-47.132574655230144
 11
51.86749996899212
 21
-46.995744620607226
  0
LINE
  8
0
 10
51.86749996899212
 20
-46.995744620607226
 11
53.6745085865831
 21
-44.92087146825545
  0
LINE
  8
0
 10
53.6745085865831
 20
-44.92087146825545
 11
53.812118517630125
 21
-44.917053883459246
  0
LINE
  8
0
 10
53.812118517630125
 20
-44.917053883459246
 11
54.02000464054835
 21
-44.986613711511644
  0
LINE
  8
0
 10
54.02000464054835
 20
-44.986613711511644
 11
54.292866803829206
 21
-45.13461683349118
  0
LINE
  8
0
 10
54.292866803829206
 20
-45.13461683349118
 11
54.62928229065597
 21
-45.35569875165728
  0
LINE
  8
0
 10
54.62928229065597
 20
-45.35569875165728
 11
54.95893785205322
 21
-45.55539577991861
  0
LINE
  8
0
 10
54.95893785205322
 20
-45.55539577991861
 11
55.37876676759065
 21
-45.78908070141294
  0
LINE
  8
0
 10
55.37876676759065
 20
-45.78908070141294
 11
55.891599054767354
 21
-46.050335558071374
  0
LINE
  8
0
 10
55.891599054767354
 20
-46.050335558071374
 11
56.49991270994013
 21
-46.33258451079942
  0
LINE
  8
0
 10
56.49991270994013
 20
-46.33258451079942
 11
57.20582608339578
 21
-46.62911111752202
  0
LINE
  8
0
 10
57.20582608339578
 20
-46.62911111752202
 11
58.011091051429034
 21
-46.93307595258138
  0
LINE
  8
0
 10
58.011091051429034
 20
-46.93307595258138
 11
58.459511139152966
 21
-47.083766850458765
  0
LINE
  8
0
 10
58.459511139152966
 20
-47.083766850458765
 11
59.28112927204033
 21
-46.140354965856964
  0
LINE
  8
0
 10
59.28112927204033
 20
-46.140354965856964
 11
59.99397767626814
 21
-45.11228420326945
  0
LINE
  8
0
 10
59.99397767626814
 20
-45.11228420326945
 11
59.7378172561124
 21
-44.71457807945026
  0
LINE
  8
0
 10
59.7378172561124
 20
-44.71457807945026
 11
59.24547280121471
 21
-44.00857296089558
  0
LINE
  8
0
 10
59.24547280121471
 20
-44.00857296089558
 11
58.78472834143648
 21
-43.397053327437355
  0
LINE
  8
0
 10
58.78472834143648
 20
-43.397053327437355
 11
58.361783957627594
 21
-42.87664192999522
  0
LINE
  8
0
 10
58.361783957627594
 20
-42.87664192999522
 11
57.982630546266094
 21
-42.44363645017868
  0
LINE
  8
0
 10
57.982630546266094
 20
-42.44363645017868
 11
57.65303441537644
 21
-42.09402044459822
  0
LINE
  8
0
 10
57.65303441537644
 20
-42.09402044459822
 11
57.378522406991266
 21
-41.82347497797177
  0
LINE
  8
0
 10
57.378522406991266
 20
-41.82347497797177
 11
57.081620417063945
 21
-41.55162611795864
  0
LINE
  8
0
 10
57.081620417063945
 20
-41.55162611795864
 11
56.8711624501822
 21
-41.323446082806356
  0
LINE
  8
0
 10
56.8711624501822
 20
-41.323446082806356
 11
56.75269810821429
 21
-41.1389971482401
  0
LINE
  8
0
 10
56.75269810821429
 20
-41.1389971482401
 11
56.72261763497411
 21
-41.00466088282227
  0
LINE
  8
0
 10
56.72261763497411
 20
-41.00466088282227
 11
58.29040582989708
 21
-38.74359500181429
  0
LINE
  8
0
 10
58.29040582989708
 20
-38.74359500181429
 11
58.426760596156406
 21
-38.72466236346647
  0
LINE
  8
0
 10
58.426760596156406
 20
-38.72466236346647
 11
58.641037144050216
 21
-38.77093082792512
  0
LINE
  8
0
 10
58.641037144050216
 20
-38.77093082792512
 11
58.92852477896494
 21
-38.8880185900403
  0
LINE
  8
0
 10
58.92852477896494
 20
-38.8880185900403
 11
59.28721928015832
 21
-39.07075022148521
  0
LINE
  8
0
 10
59.28721928015832
 20
-39.07075022148521
 11
59.636842370396344
 21
-39.23297040219326
  0
LINE
  8
0
 10
59.636842370396344
 20
-39.23297040219326
 11
60.07983047126087
 21
-39.419052382372975
  0
LINE
  8
0
 10
60.07983047126087
 20
-39.419052382372975
 11
60.618290395811975
 21
-39.62230583142346
  0
LINE
  8
0
 10
60.618290395811975
 20
-39.62230583142346
 11
61.25396170428667
 21
-39.83592222116876
  0
LINE
  8
0
 10
61.25396170428667
 20
-39.83592222116876
 11
61.988211026176195
 21
-40.052992837841565
  0
LINE
  8
0
 10
61.988211026176195
 20
-40.052992837841565
 11
62.822027212023556
 21
-40.26652704567076
  0
LINE
  8
0
 10
62.822027212023556
 20
-40.26652704567076
 11
63.28430293113345
 21
-40.36697345575516
  0
LINE
  8
0
 10
63.28430293113345
 20
-40.36697345575516
 11
63.997151335361224
 21
-39.33890269316761
  0
LINE
  8
0
 10
63.997151335361224
 20
-39.33890269316761
 11
64.59257699695212
 21
-38.23865243899069
  0
LINE
  8
0
 10
64.59257699695212
 20
-38.23865243899069
 11
64.29422035388487
 21
-37.87153987408
  0
LINE
  8
0
 10
64.29422035388487
 20
-37.87153987408
 11
63.72719772924975
 21
-37.223981666004605
  0
LINE
  8
0
 10
63.72719772924975
 20
-37.223981666004605
 11
63.20197748929218
 21
-36.66685922088133
  0
LINE
  8
0
 10
63.20197748929218
 20
-36.66685922088133
 11
62.72435055940755
 21
-36.19613372737994
  0
LINE
  8
0
 10
62.72435055940755
 20
-36.19613372737994
 11
62.29986418993029
 21
-35.8074662898112
  0
LINE
  8
0
 10
62.29986418993029
 20
-35.8074662898112
 11
61.9338078495088
 21
-35.49623050058912
  0
LINE
  8
0
 10
61.9338078495088
 20
-35.49623050058912
 11
61.631199717601035
 21
-35.257525639383765
  0
LINE
  8
0
 10
61.631199717601035
 20
-35.257525639383765
 11
61.306194112186205
 21
-35.01998837754431
  0
LINE
  8
0
 10
61.306194112186205
 20
-35.01998837754431
 11
61.071911802882994
 21
-34.81634534718566
  0
LINE
  8
0
 10
61.071911802882994
 20
-34.81634534718566
 11
60.933875560076935
 21
-34.64604794423277
  0
LINE
  8
0
 10
60.933875560076935
 20
-34.64604794423277
 11
60.889199561361664
 21
-34.51583610830548
  0
LINE
  8
0
 10
60.889199561361664
 20
-34.51583610830548
 11
62.19873650871245
 21
-32.09602377551572
  0
LINE
  8
0
 10
62.19873650871245
 20
-32.09602377551572
 11
62.332180948032736
 21
-32.062205900199004
  0
LINE
  8
0
 10
62.332180948032736
 20
-32.062205900199004
 11
62.55024689387741
 21
-32.0846213645823
  0
LINE
  8
0
 10
62.55024689387741
 20
-32.0846213645823
 11
62.8488702899792
 21
-32.16937248001231
  0
LINE
  8
0
 10
62.8488702899792
 20
-32.16937248001231
 11
63.22548974019517
 21
-32.311535710265126
  0
LINE
  8
0
 10
63.22548974019517
 20
-32.311535710265126
 11
63.590836408570475
 21
-32.43430991017538
  0
LINE
  8
0
 10
63.590836408570475
 20
-32.43430991017538
 11
64.05160641930516
 21
-32.570530165874416
  0
LINE
  8
0
 10
64.05160641930516
 20
-32.570530165874416
 11
64.60915780716378
 21
-32.7133149857799
  0
LINE
  8
0
 10
64.60915780716378
 20
-32.7133149857799
 11
65.26447058035866
 21
-32.85570579894338
  0
LINE
  8
0
 10
65.26447058035866
 20
-32.85570579894338
 11
66.01814305855484
 21
-32.990685482331635
  0
LINE
  8
0
 10
66.01814305855484
 20
-32.990685482331635
 11
66.87038906323744
 21
-33.11119704690872
  0
LINE
  8
0
 10
66.87038906323744
 20
-33.11119704690872
 11
67.34090901271861
 21
-33.16017968585001
  0
LINE
  8
0
 10
67.34090901271861
 20
-33.16017968585001
 11
67.93633467430948
 21
-32.05992943167298
  0
LINE
  8
0
 10
67.93633467430948
 20
-32.05992943167298
 11
68.40710993231671
 21
-30.900855233553813
  0
LINE
  8
0
 10
68.40710993231671
 20
-30.900855233553813
 11
68.07017871182018
 21
-30.568792476785813
  0
LINE
  8
0
 10
68.07017871182018
 20
-30.568792476785813
 11
67.4353608040015
 21
-29.987541658630132
  0
LINE
  8
0
 10
67.4353608040015
 20
-29.987541658630132
 11
66.85204024609551
 21
-29.49157911362754
  0
LINE
  8
0
 10
66.85204024609551
 20
-29.49157911362754
 11
66.32552851405335
 21
-29.076253493896353
  0
LINE
  8
0
 10
66.32552851405335
 20
-29.076253493896353
 11
65.8608618759613
 21
-28.736641994764657
  0
LINE
  8
0
 10
65.8608618759613
 20
-28.736641994764657
 11
65.46278875410763
 21
-28.46756440277094
  0
LINE
  8
0
 10
65.46278875410763
 20
-28.46756440277094
 11
65.13575775147477
 21
-28.263597700643523
  0
LINE
  8
0
 10
65.13575775147477
 20
-28.263597700643523
 11
64.78659365835793
 21
-28.063255417559976
  0
LINE
  8
0
 10
64.78659365835793
 20
-28.063255417559976
 11
64.53133087650099
 21
-27.88662134252135
  0
LINE
  8
0
 10
64.53133087650099
 20
-27.88662134252135
 11
64.37539830585557
 21
-27.732542650962703
  0
LINE
  8
0
 10
64.37539830585557
 20
-27.732542650962703
 11
64.31666908776991
 21
-27.608035839824474
  0
LINE
  8
0
 10
64.31666908776991
 20
-27.608035839824474
 11
65.35205878295342
 21
-25.05885029900834
  0
LINE
  8
0
 10
65.35205878295342
 20
-25.05885029900834
 11
65.48097306060995
 21
-25.010557689918173
  0
LINE
  8
0
 10
65.48097306060995
 20
-25.010557689918173
 11
65.70018137922288
 21
-25.008848060853293
  0
LINE
  8
0
 10
65.70018137922288
 20
-25.008848060853293
 11
66.00631565300905
 21
-25.06023376586373
  0
LINE
  8
0
 10
66.00631565300905
 20
-25.06023376586373
 11
66.3962884023042
 21
-25.16010292588859
  0
LINE
  8
0
 10
66.3962884023042
 20
-25.16010292588859
 11
66.77292383517444
 21
-25.241940832528474
  0
LINE
  8
0
 10
66.77292383517444
 20
-25.241940832528474
 11
67.24588263202456
 21
-25.326645834371497
  0
LINE
  8
0
 10
67.24588263202456
 20
-25.326645834371497
 11
67.8157575646212
 21
-25.40722881083977
  0
LINE
  8
0
 10
67.8157575646212
 20
-25.40722881083977
 11
68.48275719317992
 21
-25.476665615837334
  0
LINE
  8
0
 10
68.48275719317992
 20
-25.476665615837334
 11
69.24670426474923
 21
-25.527915895433022
  0
LINE
  8
0
 10
69.24670426474923
 20
-25.527915895433022
 11
70.10703497625326
 21
-25.55394196961333
  0
LINE
  8
0
 10
70.10703497625326
 20
-25.55394196961333
 11
70.5800876813022
 21
-25.55086625452843
  0
LINE
  8
0
 10
70.5800876813022
 20
-25.55086625452843
 11
71.05086293930935
 21
-24.391792056409294
  0
LINE
  8
0
 10
71.05086293930935
 20
-24.391792056409294
 11
71.39127321982949
 21
-23.187963504989444
  0
LINE
  8
0
 10
71.39127321982949
 20
-23.187963504989444
 11
71.01985731050168
 21
-22.89498134840724
  0
LINE
  8
0
 10
71.01985731050168
 20
-22.89498134840724
 11
70.32494994895325
 21
-22.38709351772047
  0
LINE
  8
0
 10
70.32494994895325
 20
-22.38709351772047
 11
69.69060979448483
 21
-21.95831118628622
  0
LINE
  8
0
 10
69.69060979448483
 20
-21.95831118628622
 11
69.1216043994804
 21
-21.60342693073377
  0
LINE
  8
0
 10
69.1216043994804
 20
-21.60342693073377
 11
68.62239791630593
 21
-21.316993793588647
  0
LINE
  8
0
 10
68.62239791630593
 20
-21.316993793588647
 11
68.19714008147524
 21
-21.093340636287927
  0
LINE
  8
0
 10
68.19714008147524
 20
-21.093340636287927
 11
67.84965592148133
 21
-20.926587972701668
  0
LINE
  8
0
 10
67.84965592148133
 20
-20.926587972701668
 11
67.48057171976268
 21
-20.765872552299808
  0
LINE
  8
0
 10
67.48057171976268
 20
-20.765872552299808
 11
67.2074270097356
 21
-20.61839153097732
  0
LINE
  8
0
 10
67.2074270097356
 20
-20.61839153097732
 11
67.03549092142661
 21
-20.482401857407904
  0
LINE
  8
0
 10
67.03549092142661
 20
-20.482401857407904
 11
66.96342137712142
 21
-20.365111415084566
  0
LINE
  8
0
 10
66.96342137712142
 20
-20.365111415084566
 11
67.71209559181418
 21
-17.71749632548932
  0
LINE
  8
0
 10
67.71209559181418
 20
-17.71749632548932
 11
67.83491486310812
 21
-17.655315189481147
  0
LINE
  8
0
 10
67.83491486310812
 20
-17.655315189481147
 11
68.05260466244881
 21
-17.62950121954902
  0
LINE
  8
0
 10
68.05260466244881
 20
-17.62950121954902
 11
68.36253375853607
 21
-17.64689776128997
  0
LINE
  8
0
 10
68.36253375853607
 20
-17.64689776128997
 11
68.76112606600505
 21
-17.703260574770525
  0
LINE
  8
0
 10
68.76112606600505
 20
-17.703260574770525
 11
69.14447841941902
 21
-17.743168786814003
  0
LINE
  8
0
 10
69.14447841941902
 20
-17.743168786814003
 11
69.62388492327781
 21
-17.77533033082307
  0
LINE
  8
0
 10
69.62388492327781
 20
-17.77533033082307
 11
70.19916589090379
 21
-17.792733295680403
  0
LINE
  8
0
 10
70.19916589090379
 20
-17.792733295680403
 11
70.86975590287727
 21
-17.78837322376097
  0
LINE
  8
0
 10
70.86975590287727
 20
-17.78837322376097
 11
71.63470428524099
 21
-17.755271990595272
  0
LINE
  8
0
 10
71.63470428524099
 20
-17.755271990595272
 11
72.49267645416366
 21
-17.6864966530941
  0
LINE
  8
0
 10
72.49267645416366
 20
-17.6864966530941
 11
72.96251969575526
 21
-17.63139991899765
  0
LINE
  8
0
 10
72.96251969575526
 20
-17.63139991899765
 11
73.30292997627572
 21
-16.427571367577826
  0
LINE
  8
0
 10
73.30292997627572
 20
-16.427571367577826
 11
73.50884315963576
 21
-15.193601310722341
  0
LINE
  8
0
 10
73.50884315963576
 20
-15.193601310722341
 11
73.10745104748199
 21
-14.943256160822509
  0
LINE
  8
0
 10
73.10745104748199
 20
-14.943256160822509
 11
72.36088946622654
 21
-14.5148963878661
  0
LINE
  8
0
 10
72.36088946622654
 20
-14.5148963878661
 11
71.68322974537098
 21
-14.158499106659868
  0
LINE
  8
0
 10
71.68322974537098
 20
-14.158499106659868
 11
71.07863764210454
 21
-13.86836402940962
  0
LINE
  8
0
 10
71.07863764210454
 20
-13.86836402940962
 11
70.55095100431032
 21
-13.638586164523396
  0
LINE
  8
0
 10
70.55095100431032
 20
-13.638586164523396
 11
70.10367051054794
 21
-13.463072288276713
  0
LINE
  8
0
 10
70.10367051054794
 20
-13.463072288276713
 11
69.7399511801808
 21
-13.335557814678403
  0
LINE
  8
0
 10
69.7399511801808
 20
-13.335557814678403
 11
69.35542705209448
 21
-13.21642012445103
  0
LINE
  8
0
 10
69.35542705209448
 20
-13.21642012445103
 11
69.06771602066539
 21
-13.09988237666045
  0
LINE
  8
0
 10
69.06771602066539
 20
-13.09988237666045
 11
68.88186348589409
 21
-12.983632451500908
  0
LINE
  8
0
 10
68.88186348589409
 20
-12.983632451500908
 11
68.79732844200925
 21
-12.874982125076418
  0
LINE
  8
0
 10
68.79732844200925
 20
-12.874982125076418
 11
69.25019928542584
 21
-10.161075947335306
  0
LINE
  8
0
 10
69.25019928542584
 20
-10.161075947335306
 11
69.36543269077909
 21
-10.085761079167462
  0
LINE
  8
0
 10
69.36543269077909
 20
-10.085761079167462
 11
69.57896151157397
 21
-10.036156114994528
  0
LINE
  8
0
 10
69.57896151157397
 20
-10.036156114994528
 11
69.88892331057687
 21
-10.019352323015243
  0
LINE
  8
0
 10
69.88892331057687
 20
-10.019352323015243
 11
70.29129680555445
 21
-10.031524621746927
  0
LINE
  8
0
 10
70.29129680555445
 20
-10.031524621746927
 11
70.67671270124458
 21
-10.029018707560883
  0
LINE
  8
0
 10
70.67671270124458
 20
-10.029018707560883
 11
71.15674756657646
 21
-10.008246396158912
  0
LINE
  8
0
 10
71.15674756657646
 20
-10.008246396158912
 11
71.73045143758102
 21
-9.962258100986613
  0
LINE
  8
0
 10
71.73045143758102
 20
-9.962258100986613
 11
72.39649177862924
 21
-9.884154077516975
  0
LINE
  8
0
 10
72.39649177862924
 20
-9.884154077516975
 11
73.153156034652
 21
-9.767103135720399
  0
LINE
  8
0
 10
73.153156034652
 20
-9.767103135720399
 11
73.99835504110249
 21
-9.604361225969475
  0
LINE
  8
0
 10
73.99835504110249
 20
-9.604361225969475
 11
74.4592855587504
 21
-9.497912272577405
  0
LINE
  8
0
 10
0.3118675362266391
 20
-1.4672214011007085
 11
9.18454765366783e-17
 21
-1.5
  0
LINE
  8
0
 10
9.18454765366783e-17
 20
-1.5
 11
-0.3118675362266384
 21
-1.4672214011007085
  0
LINE
  8
0
 10
-0.3118675362266384
 20
-1.4672214011007085
 11
-0.6101049646137001
 21
-1.3703181864639014
  0
LINE
  8
0
 10
-0.6101049646137001
 20
-1.3703181864639014
 11
-0.8816778784387099
 21
-1.213525491562421
  0
LINE
  8
0
 10
-0.8816778784387099
 20
-1.213525491562421
 11
-1.114717238216091
 21
-1.0036959095382878
  0
LINE
  8
0
 10
-1.114717238216091
 20
-1.0036959095382878
 11
-1.299038105676658
 21
-0.7500000000000003
  0
LINE
  8
0
 10
-1.299038105676658
 20
-0.7500000000000003
 11
-1.4265847744427305
 21
-0.46352549156242095
  0
LINE
  8
0
 10
-1.4265847744427305
 20
-0.46352549156242095
 11
-1.49178284305241
 21
-0.15679269490147957
  0
LINE
  8
0
 10
-1.49178284305241
 20
-0.15679269490147957
 11
-1.4917828430524098
 21
0.15679269490148126
  0
LINE
  8
0
 10
-1.4917828430524098
 20
0.15679269490148126
 11
-1.4265847744427302
 21
0.46352549156242123
  0
LINE
  8
0
 10
-1.4265847744427302
 20
0.46352549156242123
 11
-1.2990381056766576
 21
0.7500000000000006
  0
LINE
  8
0
 10
-1.2990381056766576
 20
0.7500000000000006
 11
-1.114717238216091
 21
1.0036959095382878
  0
LINE
  8
0
 10
-1.114717238216091
 20
1.0036959095382878
 11
-0.8816778784387097
 21
1.2135254915624214
  0
LINE
  8
0
 10
-0.8816778784387097
 20
1.2135254915624214
 11
-0.6101049646137005
 21
1.3703181864639014
  0
LINE
  8
0
 10
-0.6101049646137005
 20
1.3703181864639014
 11
-0.3118675362266387
 21
1.4672214011007085
  0
LINE
  8
0
 10
-0.3118675362266387
 20
1.4672214011007085
 11
7.579792913117722e-16
 21
1.5
  0
LINE
  8
0
 10
7.579792913117722e-16
 20
1.5
 11
0.3118675362266389
 21
1.4672214011007085
  0
LINE
  8
0
 10
0.3118675362266389
 20
1.4672214011007085
 11
0.6101049646136999
 21
1.3703181864639014
  0
LINE
  8
0
 10
0.6101049646136999
 20
1.3703181864639014
 11
0.8816778784387097
 21
1.213525491562421
  0
LINE
  8
0
 10
0.8816778784387097
 20
1.213525491562421
 11
1.1147172382160917
 21
1.003695909538287
  0
LINE
  8
0
 10
1.1147172382160917
 20
1.003695909538287
 11
1.299038105676658
 21
0.7499999999999998
  0
LINE
  8
0
 10
1.299038105676658
 20
0.7499999999999998
 11
1.4265847744427305
 21
0.4635254915624211
  0
LINE
  8
0
 10
1.4265847744427305
 20
0.4635254915624211
 11
1.49178284305241
 21
0.1567926949014801
  0
LINE
  8
0
 10
1.49178284305241
 20
0.1567926949014801
 11
1.4917828430524098
 21
-0.1567926949014801
  0
LINE
  8
0
 10
1.4917828430524098
 20
-0.1567926949014801
 11
1.4265847744427302
 21
-0.46352549156242107
  0
LINE
  8
0
 10
1.4265847744427302
 20
-0.46352549156242107
 11
1.299038105676658
 21
-0.7500000000000001
  0
LINE
  8
0
 10
1.299038105676658
 20
-0.7500000000000001
 11
1.1147172382160913
 21
-1.0036959095382874
  0
LINE
  8
0
 10
1.1147172382160913
 20
-1.0036959095382874
 11
0.8816778784387098
 21
-1.2135254915624212
  0
LINE
  8
0
 10
0.8816778784387098
 20
-1.2135254915624212
 11
0.6101049646137003
 21
-1.3703181864639014
  0
LINE
  8
0
 10
0.6101049646137003
 20
-1.3703181864639014
 11
0.3118675362266391
 21
-1.4672214011007085
  0
ENDSEC
  0
SECTION
  2
OBJECTS
  0
DICTIONARY
  0
ENDSEC
  0
EOF
