  0
SECTION
  2
BLOCKS
  0
ENDSEC
  0
SECTION
  2
ENTITIES
  0
LINE
  8
0
 10
6.402974354430733
 20
-9.448715772470738
 11
7.144666843190677
 21
-8.959128847174906
  0
LINE
  8
0
 10
7.144666843190677
 20
-8.959128847174906
 11
7.787020907408106
 21
-8.344975477496863
  0
LINE
  8
0
 10
7.787020907408106
 20
-8.344975477496863
 11
7.799660670397343
 21
-7.741353530556316
  0
LINE
  8
0
 10
7.799660670397343
 20
-7.741353530556316
 11
7.354736201427301
 21
-6.183898761258711
  0
LINE
  8
0
 10
7.354736201427301
 20
-6.183898761258711
 11
6.896202338744157
 21
-5.480136725482181
  0
LINE
  8
0
 10
6.896202338744157
 20
-5.480136725482181
 11
6.849961715099026
 21
-5.441650098496584
  0
LINE
  8
0
 10
6.849961715099026
 20
-5.441650098496584
 11
5.643165130944139
 21
-4.938613076705601
  0
LINE
  8
0
 10
5.643165130944139
 20
-4.938613076705601
 11
5.093796683231953
 21
-3.9799728290609
  0
LINE
  8
0
 10
5.093796683231953
 20
-3.9799728290609
 11
6.287598341864126
 21
-1.501018141647647
  0
LINE
  8
0
 10
6.287598341864126
 20
-1.501018141647647
 11
7.37961909244522
 21
-1.3328292714858074
  0
LINE
  8
0
 10
7.37961909244522
 20
-1.3328292714858074
 11
8.525334636066882
 21
-1.9627023808689261
  0
LINE
  8
0
 10
8.525334636066882
 20
-1.9627023808689261
 11
8.584255249972554
 21
-1.9748587367701842
  0
LINE
  8
0
 10
8.584255249972554
 20
-1.9748587367701842
 11
9.420369752898274
 21
-1.8945664941515308
  0
LINE
  8
0
 10
9.420369752898274
 20
-1.8945664941515308
 11
10.915442793055359
 21
-1.2713652857993758
  0
LINE
  8
0
 10
10.915442793055359
 20
-1.2713652857993758
 11
11.379492671360422
 21
-0.8851309930679123
  0
LINE
  8
0
 10
11.379492671360422
 20
-0.8851309930679123
 11
11.459155902616466
 21
-1.8653066331085906e-16
  0
LINE
  8
0
 10
11.459155902616466
 20
-1.8653066331085906e-16
 11
11.379492671360424
 21
0.8851309930679123
  0
LINE
  8
0
 10
11.379492671360424
 20
0.8851309930679123
 11
10.915442793055359
 21
1.2713652857993754
  0
LINE
  8
0
 10
10.915442793055359
 20
1.2713652857993754
 11
9.420369752898274
 21
1.8945664941515308
  0
LINE
  8
0
 10
9.420369752898274
 20
1.8945664941515308
 11
8.584255249972557
 21
1.974858736770185
  0
LINE
  8
0
 10
8.584255249972557
 20
1.974858736770185
 11
8.525334636066887
 21
1.9627023808689263
  0
LINE
  8
0
 10
8.525334636066887
 20
1.9627023808689263
 11
7.379619092445214
 21
1.3328292714858243
  0
LINE
  8
0
 10
7.379619092445214
 20
1.3328292714858243
 11
6.287598341864127
 21
1.5010181416476476
  0
LINE
  8
0
 10
6.287598341864127
 20
1.5010181416476476
 11
5.093796683231953
 21
3.9799728290609004
  0
LINE
  8
0
 10
5.093796683231953
 20
3.9799728290609004
 11
5.643165130944132
 21
4.938613076705616
  0
LINE
  8
0
 10
5.643165130944132
 20
4.938613076705616
 11
6.849961715099023
 21
5.44165009849658
  0
LINE
  8
0
 10
6.849961715099023
 20
5.44165009849658
 11
6.896202338744155
 21
5.480136725482178
  0
LINE
  8
0
 10
6.896202338744155
 20
5.480136725482178
 11
7.3547362014273014
 21
6.183898761258712
  0
LINE
  8
0
 10
7.3547362014273014
 20
6.183898761258712
 11
7.799660670397343
 21
7.741353530556319
  0
LINE
  8
0
 10
7.799660670397343
 20
7.741353530556319
 11
7.787020907408106
 21
8.344975477496861
  0
LINE
  8
0
 10
7.787020907408106
 20
8.344975477496861
 11
7.144666843190678
 21
8.959128847174904
  0
LINE
  8
0
 10
7.144666843190678
 20
8.959128847174904
 11
6.402974354430735
 21
9.448715772470736
  0
LINE
  8
0
 10
6.402974354430735
 20
9.448715772470736
 11
5.811673858087509
 21
9.326720110822567
  0
LINE
  8
0
 10
5.811673858087509
 20
9.326720110822567
 11
4.392272739913802
 21
8.546384537352179
  0
LINE
  8
0
 10
4.392272739913802
 20
8.546384537352179
 11
3.8081888710762084
 21
7.942745290457843
  0
LINE
  8
0
 10
3.8081888710762084
 20
7.942745290457843
 11
3.7809566909424572
 21
7.889099935607847
  0
LINE
  8
0
 10
3.7809566909424572
 20
7.889099935607847
 11
3.5590693605390467
 21
6.600623993486034
  0
LINE
  8
0
 10
3.5590693605390467
 20
6.600623993486034
 11
2.746710205440379
 21
5.851711836505412
  0
LINE
  8
0
 10
2.746710205440379
 20
5.851711836505412
 11
0.06426222760980242
 21
6.463963082836295
  0
LINE
  8
0
 10
0.06426222760980242
 20
6.463963082836295
 11
-0.34270727374828014
 21
7.4911790487900785
  0
LINE
  8
0
 10
-0.34270727374828014
 20
7.4911790487900785
 11
0.01642790890711878
 21
8.748329064261307
  0
LINE
  8
0
 10
0.01642790890711878
 20
8.748329064261307
 11
0.015168409550102029
 21
8.80847745902949
  0
LINE
  8
0
 10
0.015168409550102029
 20
8.80847745902949
 11
-0.24916371899594916
 21
9.605762120894855
  0
LINE
  8
0
 10
-0.24916371899594916
 20
9.605762120894855
 11
-1.1894250211525657
 21
10.924675243569308
  0
LINE
  8
0
 10
-1.1894250211525657
 20
10.924675243569308
 11
-1.6692364261010315
 21
11.291145207028931
  0
LINE
  8
0
 10
-1.6692364261010315
 20
11.291145207028931
 11
-2.5499020738012272
 21
11.17185093950389
  0
LINE
  8
0
 10
-2.5499020738012272
 20
11.17185093950389
 11
-3.3951142482592793
 21
10.897224856526627
  0
LINE
  8
0
 10
-3.3951142482592793
 20
10.897224856526627
 11
-3.6684040285622315
 21
10.358864461977879
  0
LINE
  8
0
 10
-3.6684040285622315
 20
10.358864461977879
 11
-3.9432952322615265
 21
8.762600709452977
  0
LINE
  8
0
 10
-3.9432952322615265
 20
8.762600709452977
 11
-3.8355214006366776
 21
7.929582637953715
  0
LINE
  8
0
 10
-3.8355214006366776
 20
7.929582637953715
 11
-3.810558759922556
 21
7.874844330522842
  0
LINE
  8
0
 10
-3.810558759922556
 20
7.874844330522842
 11
-2.941532191637253
 21
6.898014220199396
  0
LINE
  8
0
 10
-2.941532191637253
 20
6.898014220199396
 11
-2.8625067383573604
 21
5.795947165306684
  0
LINE
  8
0
 10
-2.8625067383573604
 20
5.795947165306684
 11
-5.013662996113079
 21
4.08045729441864
  0
LINE
  8
0
 10
-5.013662996113079
 20
4.08045729441864
 11
-6.070514111353853
 21
4.402734404931228
  0
LINE
  8
0
 10
-6.070514111353853
 20
4.402734404931228
 11
-6.829476447760117
 21
5.467337811245985
  0
LINE
  8
0
 10
-6.829476447760117
 20
5.467337811245985
 11
-6.877287641414343
 21
5.503855005732656
  0
LINE
  8
0
 10
-6.877287641414343
 20
5.503855005732656
 11
-7.66543827700164
 21
5.794290681659011
  0
LINE
  8
0
 10
-7.66543827700164
 20
5.794290681659011
 11
-9.28284941192581
 21
5.881493675411761
  0
LINE
  8
0
 10
-9.28284941192581
 20
5.881493675411761
 11
-9.868524684538329
 21
5.734852298280452
  0
LINE
  8
0
 10
-9.868524684538329
 20
5.734852298280452
 11
-10.324342720697679
 21
4.971941410158268
  0
LINE
  8
0
 10
-10.324342720697679
 20
4.971941410158268
 11
-10.636612574300617
 21
4.139901360740969
  0
LINE
  8
0
 10
-10.636612574300617
 20
4.139901360740969
 11
-10.386098859899601
 21
3.590572590937562
  0
LINE
  8
0
 10
-10.386098859899601
 20
3.590572590937562
 11
-9.309481465980259
 21
2.380399822855891
  0
LINE
  8
0
 10
-9.309481465980259
 20
2.380399822855891
 11
-8.591005827291998
 21
1.9452825250625878
  0
LINE
  8
0
 10
-8.591005827291998
 20
1.9452825250625878
 11
-8.532645743332807
 21
1.930670327004269
  0
LINE
  8
0
 10
-8.532645743332807
 20
1.930670327004269
 11
-7.2271000071890406
 21
2.001059045255661
  0
LINE
  8
0
 10
-7.2271000071890406
 20
2.001059045255661
 11
-6.3161977236758196
 21
1.3757160628560925
  0
LINE
  8
0
 10
-6.3161977236758196
 20
1.3757160628560925
 11
-6.316197723675819
 21
-1.3757160628560914
  0
LINE
  8
0
 10
-6.316197723675819
 20
-1.3757160628560914
 11
-7.2271000071890406
 21
-2.001059045255678
  0
LINE
  8
0
 10
-7.2271000071890406
 20
-2.001059045255678
 11
-8.532645743332804
 21
-1.9306703270042653
  0
LINE
  8
0
 10
-8.532645743332804
 20
-1.9306703270042653
 11
-8.591005827291994
 21
-1.9452825250625847
  0
LINE
  8
0
 10
-8.591005827291994
 20
-1.9452825250625847
 11
-9.309481465980259
 21
-2.3803998228558894
  0
LINE
  8
0
 10
-9.309481465980259
 20
-2.3803998228558894
 11
-10.386098859899603
 21
-3.5905725909375605
  0
LINE
  8
0
 10
-10.386098859899603
 20
-3.5905725909375605
 11
-10.636612574300619
 21
-4.139901360740968
  0
LINE
  8
0
 10
-10.636612574300619
 20
-4.139901360740968
 11
-10.324342720697677
 21
-4.971941410158276
  0
LINE
  8
0
 10
-10.324342720697677
 20
-4.971941410158276
 11
-9.868524684538327
 21
-5.734852298280459
  0
LINE
  8
0
 10
-9.868524684538327
 20
-5.734852298280459
 11
-9.282849411925804
 21
-5.881493675411767
  0
LINE
  8
0
 10
-9.282849411925804
 20
-5.881493675411767
 11
-7.665438277001636
 21
-5.7942906816590165
  0
LINE
  8
0
 10
-7.665438277001636
 20
-5.7942906816590165
 11
-6.877287641414344
 21
-5.503855005732661
  0
LINE
  8
0
 10
-6.877287641414344
 20
-5.503855005732661
 11
-6.829476447760118
 21
-5.467337811245992
  0
LINE
  8
0
 10
-6.829476447760118
 20
-5.467337811245992
 11
-6.0705141113538374
 21
-4.402734404931243
  0
LINE
  8
0
 10
-6.0705141113538374
 20
-4.402734404931243
 11
-5.013662996113077
 21
-4.080457294418642
  0
LINE
  8
0
 10
-5.013662996113077
 20
-4.080457294418642
 11
-2.862506738357356
 21
-5.795947165306685
  0
LINE
  8
0
 10
-2.862506738357356
 20
-5.795947165306685
 11
-2.941532191637234
 21
-6.898014220199409
  0
LINE
  8
0
 10
-2.941532191637234
 20
-6.898014220199409
 11
-3.810558759922549
 21
-7.874844330522839
  0
LINE
  8
0
 10
-3.810558759922549
 20
-7.874844330522839
 11
-3.835521400636671
 21
-7.929582637953713
  0
LINE
  8
0
 10
-3.835521400636671
 20
-7.929582637953713
 11
-3.9432952322615216
 21
-8.762600709452979
  0
LINE
  8
0
 10
-3.9432952322615216
 20
-8.762600709452979
 11
-3.6684040285622252
 21
-10.358864461977882
  0
LINE
  8
0
 10
-3.6684040285622252
 20
-10.358864461977882
 11
-3.395114248259272
 21
-10.897224856526629
  0
LINE
  8
0
 10
-3.395114248259272
 20
-10.897224856526629
 11
-2.5499020738012312
 21
-11.17185093950389
  0
LINE
  8
0
 10
-2.5499020738012312
 20
-11.17185093950389
 11
-1.6692364261010344
 21
-11.291145207028931
  0
LINE
  8
0
 10
-1.6692364261010344
 20
-11.291145207028931
 11
-1.1894250211525679
 21
-10.924675243569308
  0
LINE
  8
0
 10
-1.1894250211525679
 20
-10.924675243569308
 11
-0.24916371899595133
 21
-9.605762120894855
  0
LINE
  8
0
 10
-0.24916371899595133
 20
-9.605762120894855
 11
0.015168409550100221
 21
-8.808477459029493
  0
LINE
  8
0
 10
0.015168409550100221
 20
-8.808477459029493
 11
0.01642790890711652
 21
-8.748329064261313
  0
LINE
  8
0
 10
0.01642790890711652
 20
-8.748329064261313
 11
-0.34270727374826393
 21
-7.491179048790075
  0
LINE
  8
0
 10
-0.34270727374826393
 20
-7.491179048790075
 11
0.064262227609801
 21
-6.463963082836295
  0
LINE
  8
0
 10
0.064262227609801
 20
-6.463963082836295
 11
2.7467102054403774
 21
-5.851711836505413
  0
LINE
  8
0
 10
2.7467102054403774
 20
-5.851711836505413
 11
3.559069360539063
 21
-6.60062399348603
  0
LINE
  8
0
 10
3.559069360539063
 20
-6.60062399348603
 11
3.780956690942453
 21
-7.8890999356078435
  0
LINE
  8
0
 10
3.780956690942453
 20
-7.8890999356078435
 11
3.808188871076205
 21
-7.942745290457841
  0
LINE
  8
0
 10
3.808188871076205
 20
-7.942745290457841
 11
4.392272739913801
 21
-8.54638453735218
  0
LINE
  8
0
 10
4.392272739913801
 20
-8.54638453735218
 11
5.8116738580875085
 21
-9.326720110822569
  0
LINE
  8
0
 10
5.8116738580875085
 20
-9.326720110822569
 11
6.402974354430733
 21
-9.448715772470738
  0
LINE
  8
0
 10
0.3118675362266391
 20
-1.4672214011007085
 11
9.18454765366783e-17
 21
-1.5
  0
LINE
  8
0
 10
9.18454765366783e-17
 20
-1.5
 11
-0.3118675362266384
 21
-1.4672214011007085
  0
LINE
  8
0
 10
-0.3118675362266384
 20
-1.4672214011007085
 11
-0.6101049646137001
 21
-1.3703181864639014
  0
LINE
  8
0
 10
-0.6101049646137001
 20
-1.3703181864639014
 11
-0.8816778784387099
 21
-1.213525491562421
  0
LINE
  8
0
 10
-0.8816778784387099
 20
-1.213525491562421
 11
-1.114717238216091
 21
-1.0036959095382878
  0
LINE
  8
0
 10
-1.114717238216091
 20
-1.0036959095382878
 11
-1.299038105676658
 21
-0.7500000000000003
  0
LINE
  8
0
 10
-1.299038105676658
 20
-0.7500000000000003
 11
-1.4265847744427305
 21
-0.46352549156242095
  0
LINE
  8
0
 10
-1.4265847744427305
 20
-0.46352549156242095
 11
-1.49178284305241
 21
-0.15679269490147957
  0
LINE
  8
0
 10
-1.49178284305241
 20
-0.15679269490147957
 11
-1.4917828430524098
 21
0.15679269490148126
  0
LINE
  8
0
 10
-1.4917828430524098
 20
0.15679269490148126
 11
-1.4265847744427302
 21
0.46352549156242123
  0
LINE
  8
0
 10
-1.4265847744427302
 20
0.46352549156242123
 11
-1.2990381056766576
 21
0.7500000000000006
  0
LINE
  8
0
 10
-1.2990381056766576
 20
0.7500000000000006
 11
-1.114717238216091
 21
1.0036959095382878
  0
LINE
  8
0
 10
-1.114717238216091
 20
1.0036959095382878
 11
-0.8816778784387097
 21
1.2135254915624214
  0
LINE
  8
0
 10
-0.8816778784387097
 20
1.2135254915624214
 11
-0.6101049646137005
 21
1.3703181864639014
  0
LINE
  8
0
 10
-0.6101049646137005
 20
1.3703181864639014
 11
-0.3118675362266387
 21
1.4672214011007085
  0
LINE
  8
0
 10
-0.3118675362266387
 20
1.4672214011007085
 11
7.579792913117722e-16
 21
1.5
  0
LINE
  8
0
 10
7.579792913117722e-16
 20
1.5
 11
0.3118675362266389
 21
1.4672214011007085
  0
LINE
  8
0
 10
0.3118675362266389
 20
1.4672214011007085
 11
0.6101049646136999
 21
1.3703181864639014
  0
LINE
  8
0
 10
0.6101049646136999
 20
1.3703181864639014
 11
0.8816778784387097
 21
1.213525491562421
  0
LINE
  8
0
 10
0.8816778784387097
 20
1.213525491562421
 11
1.1147172382160917
 21
1.003695909538287
  0
LINE
  8
0
 10
1.1147172382160917
 20
1.003695909538287
 11
1.299038105676658
 21
0.7499999999999998
  0
LINE
  8
0
 10
1.299038105676658
 20
0.7499999999999998
 11
1.4265847744427305
 21
0.4635254915624211
  0
LINE
  8
0
 10
1.4265847744427305
 20
0.4635254915624211
 11
1.49178284305241
 21
0.1567926949014801
  0
LINE
  8
0
 10
1.49178284305241
 20
0.1567926949014801
 11
1.4917828430524098
 21
-0.1567926949014801
  0
LINE
  8
0
 10
1.4917828430524098
 20
-0.1567926949014801
 11
1.4265847744427302
 21
-0.46352549156242107
  0
LINE
  8
0
 10
1.4265847744427302
 20
-0.46352549156242107
 11
1.299038105676658
 21
-0.7500000000000001
  0
LINE
  8
0
 10
1.299038105676658
 20
-0.7500000000000001
 11
1.1147172382160913
 21
-1.0036959095382874
  0
LINE
  8
0
 10
1.1147172382160913
 20
-1.0036959095382874
 11
0.8816778784387098
 21
-1.2135254915624212
  0
LINE
  8
0
 10
0.8816778784387098
 20
-1.2135254915624212
 11
0.6101049646137003
 21
-1.3703181864639014
  0
LINE
  8
0
 10
0.6101049646137003
 20
-1.3703181864639014
 11
0.3118675362266391
 21
-1.4672214011007085
  0
ENDSEC
  0
SECTION
  2
OBJECTS
  0
DICTIONARY
  0
ENDSEC
  0
EOF
