  0
SECTION
  2
BLOCKS
  0
ENDSEC
  0
SECTION
  2
ENTITIES
  0
LINE
  8
0
 10
16.354546923950785
 20
-9.75546265024059
 11
16.910964404785492
 21
-8.875558800013327
  0
LINE
  8
0
 10
16.910964404785492
 20
-8.875558800013327
 11
17.319029921733076
 21
-7.91779383275807
  0
LINE
  8
0
 10
17.319029921733076
 20
-7.91779383275807
 11
16.762565915004107
 21
-7.105244833062156
  0
LINE
  8
0
 10
16.762565915004107
 20
-7.105244833062156
 11
15.957172344302709
 21
-6.260549062060557
  0
LINE
  8
0
 10
15.957172344302709
 20
-6.260549062060557
 11
15.359679436964727
 21
-5.808116748845944
  0
LINE
  8
0
 10
15.359679436964727
 20
-5.808116748845944
 11
15.10488596907487
 21
-5.6731941118276055
  0
LINE
  8
0
 10
15.10488596907487
 20
-5.6731941118276055
 11
14.450235352278401
 21
-5.564331954208931
  0
LINE
  8
0
 10
14.450235352278401
 20
-5.564331954208931
 11
13.585104500331566
 21
-5.152236590003608
  0
LINE
  8
0
 10
13.585104500331566
 20
-5.152236590003608
 11
13.220879199098464
 21
-4.6755423130165665
  0
LINE
  8
0
 10
13.220879199098464
 20
-4.6755423130165665
 11
13.879340006004828
 21
-2.00406180435423
  0
LINE
  8
0
 10
13.879340006004828
 20
-2.00406180435423
 11
14.423376370173575
 21
-1.7512339217305082
  0
LINE
  8
0
 10
14.423376370173575
 20
-1.7512339217305082
 11
15.380921960846415
 21
-1.7883879521008317
  0
LINE
  8
0
 10
15.380921960846415
 20
-1.7883879521008317
 11
16.011177061390526
 21
-1.9962266098888533
  0
LINE
  8
0
 10
16.011177061390526
 20
-1.9962266098888533
 11
16.29948714868633
 21
-1.995166976557785
  0
LINE
  8
0
 10
16.29948714868633
 20
-1.995166976557785
 11
17.038796623506027
 21
-1.8722268577943766
  0
LINE
  8
0
 10
17.038796623506027
 20
-1.8722268577943766
 11
18.144486911817754
 21
-1.4985709524372355
  0
LINE
  8
0
 10
18.144486911817754
 20
-1.4985709524372355
 11
19.014821668214708
 21
-1.0376962628532835
  0
LINE
  8
0
 10
19.014821668214708
 20
-1.0376962628532835
 11
19.09859317102744
 21
1.1694129273154433e-15
  0
LINE
  8
0
 10
19.09859317102744
 20
1.1694129273154433e-15
 11
19.01482166821471
 21
1.0376962628532793
  0
LINE
  8
0
 10
19.01482166821471
 20
1.0376962628532793
 11
18.14448691181774
 21
1.498570952437243
  0
LINE
  8
0
 10
18.14448691181774
 20
1.498570952437243
 11
17.038796623506013
 21
1.8722268577943828
  0
LINE
  8
0
 10
17.038796623506013
 20
1.8722268577943828
 11
16.29948714868635
 21
1.9951669765587203
  0
LINE
  8
0
 10
16.29948714868635
 20
1.9951669765587203
 11
16.011177061390523
 21
1.9962266098898231
  0
LINE
  8
0
 10
16.011177061390523
 20
1.9962266098898231
 11
15.380921960846422
 21
1.7883879521008241
  0
LINE
  8
0
 10
15.380921960846422
 20
1.7883879521008241
 11
14.423376370173571
 21
1.7512339217305195
  0
LINE
  8
0
 10
14.423376370173571
 20
1.7512339217305195
 11
13.879340006004837
 21
2.004061804355451
  0
LINE
  8
0
 10
13.879340006004837
 20
2.004061804355451
 11
13.22087919909789
 21
4.675542313017645
  0
LINE
  8
0
 10
13.22087919909789
 20
4.675542313017645
 11
13.585104500331564
 21
5.1522365900036196
  0
LINE
  8
0
 10
13.585104500331564
 20
5.1522365900036196
 11
14.4502353522784
 21
5.564331954208922
  0
LINE
  8
0
 10
14.4502353522784
 20
5.564331954208922
 11
15.104885969074422
 21
5.673194111828466
  0
LINE
  8
0
 10
15.104885969074422
 20
5.673194111828466
 11
15.35967943696428
 21
5.808116748846765
  0
LINE
  8
0
 10
15.35967943696428
 20
5.808116748846765
 11
15.95717234430272
 21
6.260549062060568
  0
LINE
  8
0
 10
15.95717234430272
 20
6.260549062060568
 11
16.762565915004117
 21
7.105244833062169
  0
LINE
  8
0
 10
16.762565915004117
 20
7.105244833062169
 11
17.319029921733076
 21
7.917793832758066
  0
LINE
  8
0
 10
17.319029921733076
 20
7.917793832758066
 11
16.910964404785492
 21
8.87555880001333
  0
LINE
  8
0
 10
16.910964404785492
 20
8.87555880001333
 11
16.354546923950796
 21
9.75546265024058
  0
LINE
  8
0
 10
16.354546923950796
 20
9.75546265024058
 11
15.369724621905535
 21
9.759082192471011
  0
LINE
  8
0
 10
15.369724621905535
 20
9.759082192471011
 11
14.217037936023225
 21
9.57609816730818
  0
LINE
  8
0
 10
14.217037936023225
 20
9.57609816730818
 11
13.50527878475804
 21
9.341381992002376
  0
LINE
  8
0
 10
13.50527878475804
 20
9.341381992002376
 11
13.249500444542518
 21
9.208335872420053
  0
LINE
  8
0
 10
13.249500444542518
 20
9.208335872420053
 11
12.788024708388095
 21
8.731409730995487
  0
LINE
  8
0
 10
12.788024708388095
 20
8.731409730995487
 11
11.957426534137056
 21
8.253517846652787
  0
LINE
  8
0
 10
11.957426534137056
 20
8.253517846652787
 11
11.35821128171482
 21
8.224559513912524
  0
LINE
  8
0
 10
11.35821128171482
 20
8.224559513912524
 11
9.533674296543992
 21
10.28403603287027
  0
LINE
  8
0
 10
9.533674296543992
 20
10.28403603287027
 11
9.634648907720672
 21
10.875391790149813
  0
LINE
  8
0
 10
9.634648907720672
 20
10.875391790149813
 11
10.209173968717474
 21
11.642330467278812
  0
LINE
  8
0
 10
10.209173968717474
 20
11.642330467278812
 11
10.738247534852619
 21
12.042954431926503
  0
LINE
  8
0
 10
10.738247534852619
 20
12.042954431926503
 11
10.901154270437114
 21
12.280830922485185
  0
LINE
  8
0
 10
10.901154270437114
 20
12.280830922485185
 11
11.219952185793174
 21
12.95910863959254
  0
LINE
  8
0
 10
11.219952185793174
 20
12.95910863959254
 11
11.54054307788126
 21
14.081334654789702
  0
LINE
  8
0
 10
11.54054307788126
 20
14.081334654789702
 11
11.655657137118876
 21
15.059412781044188
  0
LINE
  8
0
 10
11.655657137118876
 20
15.059412781044188
 11
10.849237492621086
 21
15.717834041022346
  0
LINE
  8
0
 10
10.849237492621086
 20
15.717834041022346
 11
9.947642573066094
 21
16.23837011052742
  0
LINE
  8
0
 10
9.947642573066094
 20
16.23837011052742
 11
9.073943646375776
 21
15.783905311899543
  0
LINE
  8
0
 10
9.073943646375776
 20
15.783905311899543
 11
8.138327191278064
 21
15.08620079118499
  0
LINE
  8
0
 10
8.138327191278064
 20
15.08620079118499
 11
7.617173807494588
 21
14.547598968935054
  0
LINE
  8
0
 10
7.617173807494588
 20
14.547598968935054
 11
7.4525229496395875
 21
14.31092635905606
  0
LINE
  8
0
 10
7.4525229496395875
 20
14.31092635905606
 11
7.265545107642321
 21
13.674170765413228
  0
LINE
  8
0
 10
7.265545107642321
 20
13.674170765413228
 11
6.752174381740898
 21
12.865020298579513
  0
LINE
  8
0
 10
6.752174381740898
 20
12.865020298579513
 11
6.235053234068473
 21
12.560909755519106
  0
LINE
  8
0
 10
6.235053234068473
 20
12.560909755519106
 11
3.662419505882122
 21
13.53658103366178
  0
LINE
  8
0
 10
3.662419505882122
 20
13.53658103366178
 11
3.477011360457209
 21
14.10712579385158
  0
LINE
  8
0
 10
3.477011360457209
 20
14.10712579385158
 11
3.6293138628071646
 21
15.053211375587027
  0
LINE
  8
0
 10
3.6293138628071646
 20
15.053211375587027
 11
3.9116060003075344
 21
15.653819025004237
  0
LINE
  8
0
 10
3.9116060003075344
 20
15.653819025004237
 11
3.9453060337032517
 21
15.940154731838783
  0
LINE
  8
0
 10
3.9453060337032517
 20
15.940154731838783
 11
3.91237619660022
 21
16.688892601983003
  0
LINE
  8
0
 10
3.91237619660022
 20
16.688892601983003
 11
3.6747209002366903
 21
17.831560405583634
  0
LINE
  8
0
 10
3.6747209002366903
 20
17.831560405583634
 11
3.3221137682864295
 21
18.75110174679101
  0
LINE
  8
0
 10
3.3221137682864295
 20
18.75110174679101
 11
2.3020810183826295
 21
18.959342923667432
  0
LINE
  8
0
 10
2.3020810183826295
 20
18.959342923667432
 11
1.2618531907807478
 21
19.001262672066396
  0
LINE
  8
0
 10
1.2618531907807478
 20
19.001262672066396
 11
0.6994315343366446
 21
18.19282594105131
  0
LINE
  8
0
 10
0.6994315343366446
 20
18.19282594105131
 11
0.1952237644858233
 21
17.140236622229768
  0
LINE
  8
0
 10
0.1952237644858233
 20
17.140236622229768
 11
-0.015933892170273307
 21
16.421136339657565
  0
LINE
  8
0
 10
-0.015933892170273307
 20
16.421136339657565
 11
-0.05173774038811017
 21
16.13505608219103
  0
LINE
  8
0
 10
-0.05173774038811017
 20
16.13505608219103
 11
0.07861668204608735
 21
15.484344069096734
  0
LINE
  8
0
 10
0.07861668204608735
 20
15.484344069096734
 11
0.00008045101036912993
 21
14.52930164040339
  0
LINE
  8
0
 10
0.00008045101036912993
 20
14.52930164040339
 11
-0.3164803689658972
 21
14.019706947508638
  0
LINE
  8
0
 10
-0.3164803689658972
 20
14.019706947508638
 11
-3.047851456637644
 21
13.68805845312729
  0
LINE
  8
0
 10
-3.047851456637644
 20
13.68805845312729
 11
-3.477167586957675
 21
14.107087287477597
  0
LINE
  8
0
 10
-3.477167586957675
 20
14.107087287477597
 11
-3.7819783110988157
 21
15.015582968611145
  0
LINE
  8
0
 10
-3.7819783110988157
 20
15.015582968611145
 11
-3.811137328945507
 21
15.678582328423213
  0
LINE
  8
0
 10
-3.811137328945507
 20
15.678582328423213
 11
-3.9143642692600995
 21
15.94778119181717
  0
LINE
  8
0
 10
-3.9143642692600995
 20
15.94778119181717
 11
-4.291478029989475
 21
16.595452392217716
  0
LINE
  8
0
 10
-4.291478029989475
 20
16.595452392217716
 11
-5.032935550464535
 21
17.496790561056752
  0
LINE
  8
0
 10
-5.032935550464535
 20
17.496790561056752
 11
-5.7724858290494625
 21
18.147139277620877
  0
LINE
  8
0
 10
-5.7724858290494625
 20
18.147139277620877
 11
-6.77245447408353
 21
17.8574948273514
  0
LINE
  8
0
 10
-6.77245447408353
 20
17.8574948273514
 11
-7.713011550533007
 21
17.41119494547378
  0
LINE
  8
0
 10
-7.713011550533007
 20
17.41119494547378
 11
-7.835311913155272
 21
16.433989394428277
  0
LINE
  8
0
 10
-7.835311913155272
 20
16.433989394428277
 11
-7.792603074048713
 21
15.267650805365347
  0
LINE
  8
0
 10
-7.792603074048713
 20
15.267650805365347
 11
-7.645391329163139
 21
14.532789271110314
  0
LINE
  8
0
 10
-7.645391329163139
 20
14.532789271110314
 11
-7.544145937600251
 21
14.262838905400987
  0
LINE
  8
0
 10
-7.544145937600251
 20
14.262838905400987
 11
-7.126321877973177
 21
13.74724075312526
  0
LINE
  8
0
 10
-7.126321877973177
 20
13.74724075312526
 11
-6.7520319100770925
 21
12.865095073476983
  0
LINE
  8
0
 10
-6.7520319100770925
 20
12.865095073476983
 11
-6.795512133472079
 21
12.266758233608282
  0
LINE
  8
0
 10
-6.795512133472079
 20
12.266758233608282
 11
-9.059896381033546
 21
10.703766639968048
  0
LINE
  8
0
 10
-9.059896381033546
 20
10.703766639968048
 11
-9.634769344612616
 21
10.875285092374089
  0
LINE
  8
0
 10
-9.634769344612616
 20
10.875285092374089
 11
-10.326864831711555
 21
11.538065460917876
  0
LINE
  8
0
 10
-10.326864831711555
 20
11.538065460917876
 11
-10.660795025320889
 21
12.111571367800297
  0
LINE
  8
0
 10
-10.660795025320889
 20
12.111571367800297
 11
-10.877300891339207
 21
12.3019631723481
  0
LINE
  8
0
 10
-10.877300891339207
 20
12.3019631723481
 11
-11.51220635782531
 21
12.700194036277303
  0
LINE
  8
0
 10
-11.51220635782531
 20
12.700194036277303
 11
-12.58760712000284
 21
13.153716858176182
  0
LINE
  8
0
 10
-12.58760712000284
 20
13.153716858176182
 11
-13.544678488945648
 21
13.385885896683876
  0
LINE
  8
0
 10
-13.544678488945648
 20
13.385885896683876
 11
-14.295502263461227
 21
12.66470987223122
  0
LINE
  8
0
 10
-14.295502263461227
 20
12.66470987223122
 11
-14.920918297485258
 21
11.832432284518552
  0
LINE
  8
0
 10
-14.920918297485258
 20
11.832432284518552
 11
-14.57507982708807
 21
10.91032392858362
  0
LINE
  8
0
 10
-14.57507982708807
 20
10.91032392858362
 11
-13.995238459366135
 21
9.897430184129895
  0
LINE
  8
0
 10
-13.995238459366135
 20
9.897430184129895
 11
-13.52338174959833
 21
9.315155319648333
  0
LINE
  8
0
 10
-13.52338174959833
 20
9.315155319648333
 11
-13.308281217322538
 21
9.12317722122564
  0
LINE
  8
0
 10
-13.308281217322538
 20
9.12317722122564
 11
-12.69870597723738
 21
8.860810252823537
  0
LINE
  8
0
 10
-12.69870597723738
 20
8.860810252823537
 11
-11.95733513137139
 21
8.253650266419852
  0
LINE
  8
0
 10
-11.95733513137139
 20
8.253650266419852
 11
-11.717773962998802
 21
7.70364303885052
  0
LINE
  8
0
 10
-11.717773962998802
 20
7.70364303885052
 11
-12.996428228122081
 21
5.267370883963755
  0
LINE
  8
0
 10
-12.996428228122081
 20
5.267370883963755
 11
-13.585161556974459
 21
5.152086144000729
  0
LINE
  8
0
 10
-13.585161556974459
 20
5.152086144000729
 11
-14.505991071591614
 21
5.417316204890687
  0
LINE
  8
0
 10
-14.505991071591614
 20
5.417316204890687
 11
-15.068193057902779
 21
5.769945367072116
  0
LINE
  8
0
 10
-15.068193057902779
 20
5.769945367072116
 11
-15.348378964898558
 21
5.8379136448218425
  0
LINE
  8
0
 10
-15.348378964898558
 20
5.8379136448218425
 11
-16.095626946209748
 21
5.895474280555685
  0
LINE
  8
0
 10
-16.095626946209748
 20
5.895474280555685
 11
-17.258609595458985
 21
5.797285142559869
  0
LINE
  8
0
 10
-17.258609595458985
 20
5.797285142559869
 11
-18.213948538095213
 21
5.558087374229245
  0
LINE
  8
0
 10
-18.213948538095213
 20
5.558087374229245
 11
-18.54362276375817
 21
4.570592511682244
  0
LINE
  8
0
 10
-18.54362276375817
 20
4.570592511682244
 11
-18.710622479042115
 21
3.543001983447264
  0
LINE
  8
0
 10
-18.710622479042115
 20
3.543001983447264
 11
-17.975872601388087
 21
2.8872347343572518
  0
LINE
  8
0
 10
-17.975872601388087
 20
2.8872347343572518
 11
-16.991733374549877
 21
2.259827584674192
  0
LINE
  8
0
 10
-16.991733374549877
 20
2.259827584674192
 11
-16.30332838561785
 21
1.9635315442460168
  0
LINE
  8
0
 10
-16.30332838561785
 20
1.9635315442460168
 11
-16.023649652331112
 21
1.8935055818717075
  0
LINE
  8
0
 10
-16.023649652331112
 20
1.8935055818717075
 11
-15.361969573113374
 21
1.9444749079394161
  0
LINE
  8
0
 10
-15.361969573113374
 20
1.9444749079394161
 11
-14.423356975578145
 21
1.7513936505943675
  0
LINE
  8
0
 10
-14.423356975578145
 20
1.7513936505943675
 11
-13.955634992087095
 21
1.3757160628549072
  0
LINE
  8
0
 10
-13.955634992087095
 20
1.3757160628549072
 11
-13.955634992086793
 21
-1.3757160628560938
  0
LINE
  8
0
 10
-13.955634992086793
 20
-1.3757160628560938
 11
-14.423356975578145
 21
-1.7513936505943823
  0
LINE
  8
0
 10
-14.423356975578145
 20
-1.7513936505943823
 11
-15.361969573113369
 21
-1.9444749079394101
  0
LINE
  8
0
 10
-15.361969573113369
 20
-1.9444749079394101
 11
-16.02364965233088
 21
-1.8935055818726532
  0
LINE
  8
0
 10
-16.02364965233088
 20
-1.8935055818726532
 11
-16.30332838561761
 21
-1.963531544246925
  0
LINE
  8
0
 10
-16.30332838561761
 20
-1.963531544246925
 11
-16.99173337454989
 21
-2.2598275846742037
  0
LINE
  8
0
 10
-16.99173337454989
 20
-2.2598275846742037
 11
-17.9758726013881
 21
-2.887234734357266
  0
LINE
  8
0
 10
-17.9758726013881
 20
-2.887234734357266
 11
-18.71062247904211
 21
-3.543001983447264
  0
LINE
  8
0
 10
-18.71062247904211
 20
-3.543001983447264
 11
-18.54362276375817
 21
-4.57059251168225
  0
LINE
  8
0
 10
-18.54362276375817
 20
-4.57059251168225
 11
-18.213948538095217
 21
-5.558087374229237
  0
LINE
  8
0
 10
-18.213948538095217
 20
-5.558087374229237
 11
-17.258609595458974
 21
-5.797285142559869
  0
LINE
  8
0
 10
-17.258609595458974
 20
-5.797285142559869
 11
-16.095626946209737
 21
-5.895474280555684
  0
LINE
  8
0
 10
-16.095626946209737
 20
-5.895474280555684
 11
-15.348378964898352
 21
-5.837913644822753
  0
LINE
  8
0
 10
-15.348378964898352
 20
-5.837913644822753
 11
-15.068193057902546
 21
-5.7699453670730545
  0
LINE
  8
0
 10
-15.068193057902546
 20
-5.7699453670730545
 11
-14.505991071591625
 21
-5.417316204890677
  0
LINE
  8
0
 10
-14.505991071591625
 20
-5.417316204890677
 11
-13.585161556974455
 21
-5.152086144000736
  0
LINE
  8
0
 10
-13.585161556974455
 20
-5.152086144000736
 11
-12.9964282281218
 21
-5.267370883964939
  0
LINE
  8
0
 10
-12.9964282281218
 20
-5.267370883964939
 11
-11.71777396299799
 21
-7.703643038851426
  0
LINE
  8
0
 10
-11.71777396299799
 20
-7.703643038851426
 11
-11.957335131371389
 21
-8.25365026641986
  0
LINE
  8
0
 10
-11.957335131371389
 20
-8.25365026641986
 11
-12.698705977237383
 21
-8.860810252823523
  0
LINE
  8
0
 10
-12.698705977237383
 20
-8.860810252823523
 11
-13.3082812173219
 21
-9.123177221226364
  0
LINE
  8
0
 10
-13.3082812173219
 20
-9.123177221226364
 11
-13.523381749597702
 21
-9.315155319649019
  0
LINE
  8
0
 10
-13.523381749597702
 20
-9.315155319649019
 11
-13.995238459366146
 21
-9.897430184129906
  0
LINE
  8
0
 10
-13.995238459366146
 20
-9.897430184129906
 11
-14.575079827088079
 21
-10.910323928583635
  0
LINE
  8
0
 10
-14.575079827088079
 20
-10.910323928583635
 11
-14.920918297485263
 21
-11.832432284518546
  0
LINE
  8
0
 10
-14.920918297485263
 20
-11.832432284518546
 11
-14.295502263461234
 21
-12.66470987223121
  0
LINE
  8
0
 10
-14.295502263461234
 20
-12.66470987223121
 11
-13.544678488945657
 21
-13.385885896683869
  0
LINE
  8
0
 10
-13.544678488945657
 20
-13.385885896683869
 11
-12.58760712000283
 21
-13.153716858176173
  0
LINE
  8
0
 10
-12.58760712000283
 20
-13.153716858176173
 11
-11.512206357825299
 21
-12.700194036277292
  0
LINE
  8
0
 10
-11.512206357825299
 20
-12.700194036277292
 11
-10.877300891338601
 21
-12.301963172348808
  0
LINE
  8
0
 10
-10.877300891338601
 20
-12.301963172348808
 11
-10.660795025320247
 21
-12.111571367801016
  0
LINE
  8
0
 10
-10.660795025320247
 20
-12.111571367801016
 11
-10.326864831711568
 21
-11.53806546091787
  0
LINE
  8
0
 10
-10.326864831711568
 20
-11.53806546091787
 11
-9.634769344612609
 21
-10.875285092374089
  0
LINE
  8
0
 10
-9.634769344612609
 20
-10.875285092374089
 11
-9.059896381032747
 21
-10.703766639968965
  0
LINE
  8
0
 10
-9.059896381032747
 20
-10.703766639968965
 11
-6.795512133470936
 21
-12.266758233608703
  0
LINE
  8
0
 10
-6.795512133470936
 20
-12.266758233608703
 11
-6.752031910077085
 21
-12.865095073476988
  0
LINE
  8
0
 10
-6.752031910077085
 20
-12.865095073476988
 11
-7.126321877973186
 21
-13.747240753125249
  0
LINE
  8
0
 10
-7.126321877973186
 20
-13.747240753125249
 11
-7.544145937599349
 21
-14.262838905401328
  0
LINE
  8
0
 10
-7.544145937599349
 20
-14.262838905401328
 11
-7.645391329162261
 21
-14.532789271110625
  0
LINE
  8
0
 10
-7.645391329162261
 20
-14.532789271110625
 11
-7.792603074048714
 21
-15.267650805365358
  0
LINE
  8
0
 10
-7.792603074048714
 20
-15.267650805365358
 11
-7.835311913155273
 21
-16.43398939442829
  0
LINE
  8
0
 10
-7.835311913155273
 20
-16.43398939442829
 11
-7.713011550533015
 21
-17.411194945473778
  0
LINE
  8
0
 10
-7.713011550533015
 20
-17.411194945473778
 11
-6.772454474083525
 21
-17.8574948273514
  0
LINE
  8
0
 10
-6.772454474083525
 20
-17.8574948273514
 11
-5.772485829049464
 21
-18.14713927762088
  0
LINE
  8
0
 10
-5.772485829049464
 20
-18.14713927762088
 11
-5.0329355504645195
 21
-17.496790561056745
  0
LINE
  8
0
 10
-5.0329355504645195
 20
-17.496790561056745
 11
-4.291478029989462
 21
-16.595452392217705
  0
LINE
  8
0
 10
-4.291478029989462
 20
-16.595452392217705
 11
-3.9143642692592273
 21
-15.947781191817517
  0
LINE
  8
0
 10
-3.9143642692592273
 20
-15.947781191817517
 11
-3.8111373289445964
 21
-15.678582328423554
  0
LINE
  8
0
 10
-3.8111373289445964
 20
-15.678582328423554
 11
-3.7819783110988223
 21
-15.015582968611147
  0
LINE
  8
0
 10
-3.7819783110988223
 20
-15.015582968611147
 11
-3.477167586957661
 21
-14.107087287477597
  0
LINE
  8
0
 10
-3.477167586957661
 20
-14.107087287477597
 11
-3.0478514566365025
 21
-13.68805845312773
  0
LINE
  8
0
 10
-3.0478514566365025
 20
-13.68805845312773
 11
-0.31648036896468273
 21
-14.019706947508482
  0
LINE
  8
0
 10
-0.31648036896468273
 20
-14.019706947508482
 11
0.00008045101038400982
 21
-14.529301640403393
  0
LINE
  8
0
 10
0.00008045101038400982
 20
-14.529301640403393
 11
0.07861668204608213
 21
-15.484344069096727
  0
LINE
  8
0
 10
0.07861668204608213
 20
-15.484344069096727
 11
-0.05173774038714342
 21
-16.135056082190918
  0
LINE
  8
0
 10
-0.05173774038714342
 20
-16.135056082190918
 11
-0.01593389216934315
 21
-16.421136339657433
  0
LINE
  8
0
 10
-0.01593389216934315
 20
-16.421136339657433
 11
0.1952237644858334
 21
-17.140236622229782
  0
LINE
  8
0
 10
0.1952237644858334
 20
-17.140236622229782
 11
0.6994315343366568
 21
-18.19282594105132
  0
LINE
  8
0
 10
0.6994315343366568
 20
-18.19282594105132
 11
1.2618531907807462
 21
-19.001262672066392
  0
LINE
  8
0
 10
1.2618531907807462
 20
-19.001262672066392
 11
2.3020810183826437
 21
-18.95934292366743
  0
LINE
  8
0
 10
2.3020810183826437
 20
-18.95934292366743
 11
3.322113768286434
 21
-18.751101746791015
  0
LINE
  8
0
 10
3.322113768286434
 20
-18.751101746791015
 11
3.6747209002367027
 21
-17.83156040558362
  0
LINE
  8
0
 10
3.6747209002367027
 20
-17.83156040558362
 11
3.9123761966002304
 21
-16.688892601982985
  0
LINE
  8
0
 10
3.9123761966002304
 20
-16.688892601982985
 11
3.9453060337041883
 21
-15.940154731838684
  0
LINE
  8
0
 10
3.9453060337041883
 20
-15.940154731838684
 11
3.9116060003085025
 21
-15.653819025004115
  0
LINE
  8
0
 10
3.9116060003085025
 20
-15.653819025004115
 11
3.629313862807164
 21
-15.053211375587031
  0
LINE
  8
0
 10
3.629313862807164
 20
-15.053211375587031
 11
3.477011360457225
 21
-14.107125793851573
  0
LINE
  8
0
 10
3.477011360457225
 20
-14.107125793851573
 11
3.662419505883341
 21
-13.536581033661637
  0
LINE
  8
0
 10
3.662419505883341
 20
-13.536581033661637
 11
6.235053234069478
 21
-12.560909755518402
  0
LINE
  8
0
 10
6.235053234069478
 20
-12.560909755518402
 11
6.7521743817409146
 21
-12.865020298579507
  0
LINE
  8
0
 10
6.7521743817409146
 20
-12.865020298579507
 11
7.265545107642318
 21
-13.674170765413226
  0
LINE
  8
0
 10
7.265545107642318
 20
-13.674170765413226
 11
7.452522949640392
 21
-14.31092635905551
  0
LINE
  8
0
 10
7.452522949640392
 20
-14.31092635905551
 11
7.617173807495353
 21
-14.547598968934508
  0
LINE
  8
0
 10
7.617173807495353
 20
-14.547598968934508
 11
8.138327191278083
 21
-15.086200791184995
  0
LINE
  8
0
 10
8.138327191278083
 20
-15.086200791184995
 11
9.073943646375797
 21
-15.783905311899545
  0
LINE
  8
0
 10
9.073943646375797
 20
-15.783905311899545
 11
9.947642573066096
 21
-16.238370110527416
  0
LINE
  8
0
 10
9.947642573066096
 20
-16.238370110527416
 11
10.849237492621075
 21
-15.717834041022357
  0
LINE
  8
0
 10
10.849237492621075
 20
-15.717834041022357
 11
11.655657137118865
 21
-15.059412781044202
  0
LINE
  8
0
 10
11.655657137118865
 20
-15.059412781044202
 11
11.540543077881246
 21
-14.081334654789694
  0
LINE
  8
0
 10
11.540543077881246
 20
-14.081334654789694
 11
11.219952185793158
 21
-12.959108639592534
  0
LINE
  8
0
 10
11.219952185793158
 20
-12.959108639592534
 11
10.901154270437884
 21
-12.280830922484675
  0
LINE
  8
0
 10
10.901154270437884
 20
-12.280830922484675
 11
10.738247534853404
 21
-12.042954431925958
  0
LINE
  8
0
 10
10.738247534853404
 20
-12.042954431925958
 11
10.20917396871746
 21
-11.642330467278828
  0
LINE
  8
0
 10
10.20917396871746
 20
-11.642330467278828
 11
9.634648907720669
 21
-10.87539179014981
  0
LINE
  8
0
 10
9.634648907720669
 20
-10.87539179014981
 11
9.533674296544994
 21
-10.28403603286959
  0
LINE
  8
0
 10
9.533674296544994
 20
-10.28403603286959
 11
11.35821128171537
 21
-8.224559513911446
  0
LINE
  8
0
 10
11.35821128171537
 20
-8.224559513911446
 11
11.957426534137058
 21
-8.25351784665279
  0
LINE
  8
0
 10
11.957426534137058
 20
-8.25351784665279
 11
12.788024708388079
 21
-8.731409730995502
  0
LINE
  8
0
 10
12.788024708388079
 20
-8.731409730995502
 11
13.249500444542962
 21
-9.208335872419205
  0
LINE
  8
0
 10
13.249500444542962
 20
-9.208335872419205
 11
13.505278784758454
 21
-9.341381992001551
  0
LINE
  8
0
 10
13.505278784758454
 20
-9.341381992001551
 11
14.217037936023232
 21
-9.57609816730819
  0
LINE
  8
0
 10
14.217037936023232
 20
-9.57609816730819
 11
15.36972462190554
 21
-9.759082192471018
  0
LINE
  8
0
 10
15.36972462190554
 20
-9.759082192471018
 11
16.354546923950785
 21
-9.75546265024059
  0
LINE
  8
0
 10
0.3118675362266391
 20
-1.4672214011007085
 11
9.18454765366783e-17
 21
-1.5
  0
LINE
  8
0
 10
9.18454765366783e-17
 20
-1.5
 11
-0.3118675362266384
 21
-1.4672214011007085
  0
LINE
  8
0
 10
-0.3118675362266384
 20
-1.4672214011007085
 11
-0.6101049646137001
 21
-1.3703181864639014
  0
LINE
  8
0
 10
-0.6101049646137001
 20
-1.3703181864639014
 11
-0.8816778784387099
 21
-1.213525491562421
  0
LINE
  8
0
 10
-0.8816778784387099
 20
-1.213525491562421
 11
-1.114717238216091
 21
-1.0036959095382878
  0
LINE
  8
0
 10
-1.114717238216091
 20
-1.0036959095382878
 11
-1.299038105676658
 21
-0.7500000000000003
  0
LINE
  8
0
 10
-1.299038105676658
 20
-0.7500000000000003
 11
-1.4265847744427305
 21
-0.46352549156242095
  0
LINE
  8
0
 10
-1.4265847744427305
 20
-0.46352549156242095
 11
-1.49178284305241
 21
-0.15679269490147957
  0
LINE
  8
0
 10
-1.49178284305241
 20
-0.15679269490147957
 11
-1.4917828430524098
 21
0.15679269490148126
  0
LINE
  8
0
 10
-1.4917828430524098
 20
0.15679269490148126
 11
-1.4265847744427302
 21
0.46352549156242123
  0
LINE
  8
0
 10
-1.4265847744427302
 20
0.46352549156242123
 11
-1.2990381056766576
 21
0.7500000000000006
  0
LINE
  8
0
 10
-1.2990381056766576
 20
0.7500000000000006
 11
-1.114717238216091
 21
1.0036959095382878
  0
LINE
  8
0
 10
-1.114717238216091
 20
1.0036959095382878
 11
-0.8816778784387097
 21
1.2135254915624214
  0
LINE
  8
0
 10
-0.8816778784387097
 20
1.2135254915624214
 11
-0.6101049646137005
 21
1.3703181864639014
  0
LINE
  8
0
 10
-0.6101049646137005
 20
1.3703181864639014
 11
-0.3118675362266387
 21
1.4672214011007085
  0
LINE
  8
0
 10
-0.3118675362266387
 20
1.4672214011007085
 11
7.579792913117722e-16
 21
1.5
  0
LINE
  8
0
 10
7.579792913117722e-16
 20
1.5
 11
0.3118675362266389
 21
1.4672214011007085
  0
LINE
  8
0
 10
0.3118675362266389
 20
1.4672214011007085
 11
0.6101049646136999
 21
1.3703181864639014
  0
LINE
  8
0
 10
0.6101049646136999
 20
1.3703181864639014
 11
0.8816778784387097
 21
1.213525491562421
  0
LINE
  8
0
 10
0.8816778784387097
 20
1.213525491562421
 11
1.1147172382160917
 21
1.003695909538287
  0
LINE
  8
0
 10
1.1147172382160917
 20
1.003695909538287
 11
1.299038105676658
 21
0.7499999999999998
  0
LINE
  8
0
 10
1.299038105676658
 20
0.7499999999999998
 11
1.4265847744427305
 21
0.4635254915624211
  0
LINE
  8
0
 10
1.4265847744427305
 20
0.4635254915624211
 11
1.49178284305241
 21
0.1567926949014801
  0
LINE
  8
0
 10
1.49178284305241
 20
0.1567926949014801
 11
1.4917828430524098
 21
-0.1567926949014801
  0
LINE
  8
0
 10
1.4917828430524098
 20
-0.1567926949014801
 11
1.4265847744427302
 21
-0.46352549156242107
  0
LINE
  8
0
 10
1.4265847744427302
 20
-0.46352549156242107
 11
1.299038105676658
 21
-0.7500000000000001
  0
LINE
  8
0
 10
1.299038105676658
 20
-0.7500000000000001
 11
1.1147172382160913
 21
-1.0036959095382874
  0
LINE
  8
0
 10
1.1147172382160913
 20
-1.0036959095382874
 11
0.8816778784387098
 21
-1.2135254915624212
  0
LINE
  8
0
 10
0.8816778784387098
 20
-1.2135254915624212
 11
0.6101049646137003
 21
-1.3703181864639014
  0
LINE
  8
0
 10
0.6101049646137003
 20
-1.3703181864639014
 11
0.3118675362266391
 21
-1.4672214011007085
  0
ENDSEC
  0
SECTION
  2
OBJECTS
  0
DICTIONARY
  0
ENDSEC
  0
EOF
