  0
SECTION
  2
BLOCKS
  0
ENDSEC
  0
SECTION
  2
ENTITIES
  0
LINE
  8
0
 10
44.7224570941664
 20
-9.595329625521241
 11
45.05616798942397
 21
-8.422457486762731
  0
LINE
  8
0
 10
45.05616798942397
 20
-8.422457486762731
 11
45.168682132576194
 21
-7.208236508900685
  0
LINE
  8
0
 10
45.168682132576194
 20
-7.208236508900685
 11
44.98834203253646
 21
-7.089014539520213
  0
LINE
  8
0
 10
44.98834203253646
 20
-7.089014539520213
 11
44.11745854410113
 21
-6.587443463080986
  0
LINE
  8
0
 10
44.11745854410113
 20
-6.587443463080986
 11
43.36011222547463
 21
-6.211334077968994
  0
LINE
  8
0
 10
43.36011222547463
 20
-6.211334077968994
 11
42.727905040800465
 21
-5.944535910787986
  0
LINE
  8
0
 10
42.727905040800465
 20
-5.944535910787986
 11
42.23086563496772
 21
-5.769979800693419
  0
LINE
  8
0
 10
42.23086563496772
 20
-5.769979800693419
 11
41.87738234654959
 21
-5.669811236817086
  0
LINE
  8
0
 10
41.87738234654959
 20
-5.669811236817086
 11
41.67414672024471
 21
-5.625528326584843
  0
LINE
  8
0
 10
41.67414672024471
 20
-5.625528326584843
 11
41.385155368798955
 21
-5.580983161108802
  0
LINE
  8
0
 10
41.385155368798955
 20
-5.580983161108802
 11
40.88097079723203
 21
-5.4527036164897
  0
LINE
  8
0
 10
40.88097079723203
 20
-5.4527036164897
 11
40.54987981535828
 21
-5.2936293169116215
  0
LINE
  8
0
 10
40.54987981535828
 20
-5.2936293169116215
 11
40.39313836467842
 21
-5.124585250579316
  0
LINE
  8
0
 10
40.39313836467842
 20
-5.124585250579316
 11
40.64700849309252
 21
-2.3848902492514545
  0
LINE
  8
0
 10
40.64700849309252
 20
-2.3848902492514545
 11
40.832142888394465
 21
-2.2475256453692087
  0
LINE
  8
0
 10
40.832142888394465
 20
-2.2475256453692087
 11
41.18682624296905
 21
-2.1519976963061467
  0
LINE
  8
0
 10
41.18682624296905
 20
-2.1519976963061467
 11
41.7059974185643
 21
-2.1185460266218517
  0
LINE
  8
0
 10
41.7059974185643
 20
-2.1185460266218517
 11
41.998253295754544
 21
-2.127861348719234
  0
LINE
  8
0
 10
41.998253295754544
 20
-2.127861348719234
 11
42.20616541271178
 21
-2.1216768875219074
  0
LINE
  8
0
 10
42.20616541271178
 20
-2.1216768875219074
 11
42.572035901727354
 21
-2.088166267600686
  0
LINE
  8
0
 10
42.572035901727354
 20
-2.088166267600686
 11
43.09268686820569
 21
-2.0079130581498497
  0
LINE
  8
0
 10
43.09268686820569
 20
-2.0079130581498497
 11
43.76315355874066
 21
-1.861825402110017
  0
LINE
  8
0
 10
43.76315355874066
 20
-1.861825402110017
 11
44.57671453525618
 21
-1.6312820148739364
  0
LINE
  8
0
 10
44.57671453525618
 20
-1.6312820148739364
 11
45.52493302079331
 21
-1.2982755602291178
  0
LINE
  8
0
 10
45.52493302079331
 20
-1.2982755602291178
 11
45.7241094673136
 21
-1.2142209778620274
  0
LINE
  8
0
 10
45.7241094673136
 20
-1.2142209778620274
 11
45.836623610465864
 21
-4.440892098500626e-15
  0
LINE
  8
0
 10
45.836623610465864
 20
-4.440892098500626e-15
 11
45.724109467313596
 21
1.2142209778620372
  0
LINE
  8
0
 10
45.724109467313596
 20
1.2142209778620372
 11
45.52493302079342
 21
1.2982755602290867
  0
LINE
  8
0
 10
45.52493302079342
 20
1.2982755602290867
 11
44.57671453525617
 21
1.6312820148739409
  0
LINE
  8
0
 10
44.57671453525617
 20
1.6312820148739409
 11
43.763153558741074
 21
1.8618254021099085
  0
LINE
  8
0
 10
43.763153558741074
 20
1.8618254021099085
 11
43.092686868205625
 21
2.007913058149758
  0
LINE
  8
0
 10
43.092686868205625
 20
2.007913058149758
 11
42.572035901727354
 21
2.0881662676005766
  0
LINE
  8
0
 10
42.572035901727354
 20
2.0881662676005766
 11
42.206165412711876
 21
2.121676887521934
  0
LINE
  8
0
 10
42.206165412711876
 20
2.121676887521934
 11
41.998253295754076
 21
2.127861348719275
  0
LINE
  8
0
 10
41.998253295754076
 20
2.127861348719275
 11
41.705997418564316
 21
2.1185460266218765
  0
LINE
  8
0
 10
41.705997418564316
 20
2.1185460266218765
 11
41.18682624296889
 21
2.151997696306177
  0
LINE
  8
0
 10
41.18682624296889
 20
2.151997696306177
 11
40.832142888394586
 21
2.2475256453697696
  0
LINE
  8
0
 10
40.832142888394586
 20
2.2475256453697696
 11
40.647008493092535
 21
2.3848902492513133
  0
LINE
  8
0
 10
40.647008493092535
 20
2.3848902492513133
 11
40.393138364678435
 21
5.124585250579174
  0
LINE
  8
0
 10
40.393138364678435
 20
5.124585250579174
 11
40.54987981535806
 21
5.293629316912152
  0
LINE
  8
0
 10
40.54987981535806
 20
5.293629316912152
 11
40.88097079723218
 21
5.452703616489759
  0
LINE
  8
0
 10
40.88097079723218
 20
5.452703616489759
 11
41.385155368798934
 21
5.580983161108822
  0
LINE
  8
0
 10
41.385155368798934
 20
5.580983161108822
 11
41.67414672024516
 21
5.625528326584971
  0
LINE
  8
0
 10
41.67414672024516
 20
5.625528326584971
 11
41.8773823465495
 21
5.669811236817096
  0
LINE
  8
0
 10
41.8773823465495
 20
5.669811236817096
 11
42.23086563496774
 21
5.769979800693313
  0
LINE
  8
0
 10
42.23086563496774
 20
5.769979800693313
 11
42.72790504080054
 21
5.944535910787907
  0
LINE
  8
0
 10
42.72790504080054
 20
5.944535910787907
 11
43.360112225474246
 21
6.21133407796881
  0
LINE
  8
0
 10
43.360112225474246
 20
6.21133407796881
 11
44.11745854410114
 21
6.587443463080992
  0
LINE
  8
0
 10
44.11745854410114
 20
6.587443463080992
 11
44.98834203253636
 21
7.0890145395201625
  0
LINE
  8
0
 10
44.98834203253636
 20
7.0890145395201625
 11
45.16868213257622
 21
7.208236508900702
  0
LINE
  8
0
 10
45.16868213257622
 20
7.208236508900702
 11
45.05616798942397
 21
8.422457486762722
  0
LINE
  8
0
 10
45.05616798942397
 20
8.422457486762722
 11
44.72245709416637
 21
9.595329625521218
  0
LINE
  8
0
 10
44.72245709416637
 20
9.595329625521218
 11
44.511227016166195
 21
9.641354442884692
  0
LINE
  8
0
 10
44.511227016166195
 20
9.641354442884692
 11
43.517963976789275
 21
9.794456140319463
  0
LINE
  8
0
 10
43.517963976789275
 20
9.794456140319463
 11
42.67589318568196
 21
9.871582651133398
  0
LINE
  8
0
 10
42.67589318568196
 20
9.871582651133398
 11
41.98999892829524
 21
9.891984956118483
  0
LINE
  8
0
 10
41.98999892829524
 20
9.891984956118483
 11
41.46346654538285
 21
9.875202338130823
  0
LINE
  8
0
 10
41.46346654538285
 20
9.875202338130823
 11
41.09766813646016
 21
9.84091385012734
  0
LINE
  8
0
 10
41.09766813646016
 20
9.84091385012734
 11
40.892159726629345
 21
9.808789257881147
  0
LINE
  8
0
 10
40.892159726629345
 20
9.808789257881147
 11
40.60659174707099
 21
9.745930670331838
  0
LINE
  8
0
 10
40.60659174707099
 20
9.745930670331838
 11
40.09011371915477
 21
9.683415308591096
  0
LINE
  8
0
 10
40.09011371915477
 20
9.683415308591096
 11
39.72391630812414
 21
9.71214381740799
  0
LINE
  8
0
 10
39.72391630812414
 20
9.71214381740799
 11
39.51669349798769
 21
9.813151172004268
  0
LINE
  8
0
 10
39.51669349798769
 20
9.813151172004268
 11
38.76372835548486
 21
12.459549145963884
  0
LINE
  8
0
 10
38.76372835548486
 20
12.459549145963884
 11
38.88673921942993
 21
12.654516081814634
  0
LINE
  8
0
 10
38.88673921942993
 20
12.654516081814634
 11
39.182962922315724
 21
12.871719647423264
  0
LINE
  8
0
 10
39.182962922315724
 20
12.871719647423264
 11
39.65499148897201
 21
13.090458660939447
  0
LINE
  8
0
 10
39.65499148897201
 20
13.090458660939447
 11
39.93087706080765
 21
13.187347381804875
  0
LINE
  8
0
 10
39.93087706080765
 20
13.187347381804875
 11
40.12251525095956
 21
13.26822073967534
  0
LINE
  8
0
 10
40.12251525095956
 20
13.26822073967534
 11
40.451573889349866
 21
13.4316361272027
  0
LINE
  8
0
 10
40.451573889349866
 20
13.4316361272027
 11
40.90807565370456
 21
13.694550838968759
  0
LINE
  8
0
 10
40.90807565370456
 20
13.694550838968759
 11
41.480494275091864
 21
14.072974025696519
  0
LINE
  8
0
 10
41.480494275091864
 20
14.072974025696519
 11
42.155835415286084
 21
14.58184145466829
  0
LINE
  8
0
 10
42.155835415286084
 20
14.58184145466829
 11
42.91972701393034
 21
15.234896751461878
  0
LINE
  8
0
 10
42.91972701393034
 20
15.234896751461878
 11
43.07508950167699
 21
15.385226146679592
  0
LINE
  8
0
 10
43.07508950167699
 20
15.385226146679592
 11
42.741378606419424
 21
16.558098285438074
  0
LINE
  8
0
 10
42.741378606419424
 20
16.558098285438074
 11
42.19783508335245
 21
17.649680831112693
  0
LINE
  8
0
 10
42.19783508335245
 20
17.649680831112693
 11
41.981744560836006
 21
17.65610856351796
  0
LINE
  8
0
 10
41.981744560836006
 20
17.65610856351796
 11
40.977261349137684
 21
17.624091809061756
  0
LINE
  8
0
 10
40.977261349137684
 20
17.624091809061756
 11
40.1353564542767
 21
17.545174992630947
  0
LINE
  8
0
 10
40.1353564542767
 20
17.545174992630947
 11
39.457391936334545
 21
17.43919717053487
  0
LINE
  8
0
 10
39.457391936334545
 20
17.43919717053487
 11
38.94290856578214
 21
17.32595023703577
  0
LINE
  8
0
 10
38.94290856578214
 20
17.32595023703577
 11
38.589639063041254
 21
17.225030294441897
  0
LINE
  8
0
 10
38.589639063041254
 20
17.225030294441897
 11
38.39353270275404
 21
17.155690613211913
  0
LINE
  8
0
 10
38.39353270275404
 20
17.155690613211913
 11
38.12437729586992
 21
17.041429334019117
  0
LINE
  8
0
 10
38.12437729586992
 20
17.041429334019117
 11
37.62818045542647
 21
16.885075826518502
  0
LINE
  8
0
 10
37.62818045542647
 20
16.885075826518502
 11
37.262939401566776
 21
16.846026580176982
  0
LINE
  8
0
 10
37.262939401566776
 20
16.846026580176982
 11
37.04068490085874
 21
16.907237001172188
  0
LINE
  8
0
 10
37.04068490085874
 20
16.907237001172188
 11
35.81426606911298
 21
19.370218038764893
  0
LINE
  8
0
 10
35.81426606911298
 20
19.370218038764893
 11
35.89935735888711
 21
19.58446847897008
  0
LINE
  8
0
 10
35.89935735888711
 20
19.58446847897008
 11
36.150626239863975
 21
19.852404703689896
  0
LINE
  8
0
 10
36.150626239863975
 20
19.852404703689896
 11
36.57442443490819
 21
20.15415429134644
  0
LINE
  8
0
 10
36.57442443490819
 20
20.15415429134644
 11
36.82780927487265
 21
20.300087138417283
  0
LINE
  8
0
 10
36.82780927487265
 20
20.300087138417283
 11
37.00132402015117
 21
20.414796898720716
  0
LINE
  8
0
 10
37.00132402015117
 20
20.414796898720716
 11
37.294752311245496
 21
20.63589419487212
  0
LINE
  8
0
 10
37.294752311245496
 20
20.63589419487212
 11
37.69517081405051
 21
20.978214263131896
  0
LINE
  8
0
 10
37.69517081405051
 20
20.978214263131896
 11
38.18830784254054
 21
21.455375721651084
  0
LINE
  8
0
 10
38.18830784254054
 20
21.455375721651084
 11
38.758645871755185
 21
22.079672324508024
  0
LINE
  8
0
 10
38.758645871755185
 20
22.079672324508024
 11
39.38953216840365
 21
22.86197282677722
  0
LINE
  8
0
 10
39.38953216840365
 20
22.86197282677722
 11
39.51462636067369
 21
23.03829036057822
  0
LINE
  8
0
 10
39.51462636067369
 20
23.03829036057822
 11
38.97108283760671
 21
24.129872906252828
  0
LINE
  8
0
 10
38.97108283760671
 20
24.129872906252828
 11
38.236216409499725
 21
25.102993324459558
  0
LINE
  8
0
 10
38.236216409499725
 20
25.102993324459558
 11
38.022624146039306
 21
25.069605083188772
  0
LINE
  8
0
 10
38.022624146039306
 20
25.069605083188772
 11
37.04112723304915
 21
24.85356016901473
  0
LINE
  8
0
 10
37.04112723304915
 20
24.85356016901473
 11
36.22805829587539
 21
24.62128744287244
  0
LINE
  8
0
 10
36.22805829587539
 20
24.62128744287244
 11
35.581110785907484
 21
24.392538441320294
  0
LINE
  8
0
 10
35.581110785907484
 20
24.392538441320294
 11
35.09619654184443
 21
24.186683680805334
  0
LINE
  8
0
 10
35.09619654184443
 20
24.186683680805334
 11
34.767486114501125
 21
24.022568991225977
  0
LINE
  8
0
 10
34.767486114501125
 20
24.022568991225977
 11
34.58745997065344
 21
23.918375500692708
  0
LINE
  8
0
 10
34.58745997065344
 20
23.918375500692708
 11
34.343882901008655
 21
23.756602560678036
  0
LINE
  8
0
 10
34.343882901008655
 20
23.756602560678036
 11
33.88486463631677
 21
23.511735338590118
  0
LINE
  8
0
 10
33.88486463631677
 20
23.511735338590118
 11
33.53301778565884
 21
23.406238112339942
  0
LINE
  8
0
 10
33.53301778565884
 20
23.406238112339942
 11
33.30330020483595
 21
23.425567152260893
  0
LINE
  8
0
 10
33.30330020483595
 20
23.425567152260893
 11
31.645191906235098
 21
25.62125738827162
  0
LINE
  8
0
 10
31.645191906235098
 20
25.62125738827162
 11
31.68946594002078
 21
25.847495291055143
  0
LINE
  8
0
 10
31.68946594002078
 20
25.847495291055143
 11
31.887223338710864
 21
26.15703992810739
  0
LINE
  8
0
 10
31.887223338710864
 20
26.15703992810739
 11
32.248359222900675
 21
26.53152436960539
  0
LINE
  8
0
 10
32.248359222900675
 20
26.53152436960539
 11
32.47061461417058
 21
26.72153177480181
  0
LINE
  8
0
 10
32.47061461417058
 20
26.72153177480181
 11
32.62009707803327
 21
26.866171634230266
  0
LINE
  8
0
 10
32.62009707803327
 20
26.866171634230266
 11
32.86790267330683
 21
27.137421635762266
  0
LINE
  8
0
 10
32.86790267330683
 20
27.137421635762266
 11
33.19860214269819
 21
27.547489761158836
  0
LINE
  8
0
 10
33.19860214269819
 20
27.547489761158836
 11
33.59566438823839
 21
28.10714033029167
  0
LINE
  8
0
 10
33.59566438823839
 20
28.10714033029167
 11
34.04157712893364
 21
28.82560643498473
  0
LINE
  8
0
 10
34.04157712893364
 20
28.82560643498473
 11
34.51797404741865
 21
29.710511837390793
  0
LINE
  8
0
 10
34.51797404741865
 20
29.710511837390793
 11
34.608540011528234
 21
29.906813227631062
  0
LINE
  8
0
 10
34.608540011528234
 20
29.906813227631062
 11
33.873673583421294
 21
30.879933645837784
  0
LINE
  8
0
 10
33.873673583421294
 20
30.879933645837784
 11
32.97250924510839
 21
31.701453487863905
  0
LINE
  8
0
 10
32.97250924510839
 20
31.701453487863905
 11
32.768688869060455
 21
31.629386269428775
  0
LINE
  8
0
 10
32.768688869060455
 20
31.629386269428775
 11
31.843601954974535
 21
31.236670345971778
  0
LINE
  8
0
 10
31.843601954974535
 20
31.236670345971778
 11
31.08705706297474
 21
30.85895147922635
  0
LINE
  8
0
 10
31.08705706297474
 20
30.85895147922635
 11
30.49315758250503
 21
30.515221071111803
  0
LINE
  8
0
 10
30.49315758250503
 20
30.515221071111803
 11
30.054325637922364
 21
30.223768620554754
  0
LINE
  8
0
 10
30.054325637922364
 20
30.223768620554754
 11
29.76136812533512
 21
30.002047912909664
  0
LINE
  8
0
 10
29.76136812533512
 20
30.002047912909664
 11
29.603552772338134
 21
29.866548797426905
  0
LINE
  8
0
 10
29.603552772338134
 20
29.866548797426905
 11
29.393848764900945
 21
29.662773180037306
  0
LINE
  8
0
 10
29.393848764900945
 20
29.662773180037306
 11
28.987640392432972
 21
29.33773090292442
  0
LINE
  8
0
 10
28.987640392432972
 20
29.33773090292442
 11
28.66116946748219
 21
29.169378278275556
  0
LINE
  8
0
 10
28.66116946748219
 20
29.169378278275556
 11
28.431811563243492
 21
29.146167709850374
  0
LINE
  8
0
 10
28.431811563243492
 20
29.146167709850374
 11
26.398478687214684
 21
30.999795546731956
  0
LINE
  8
0
 10
26.398478687214684
 20
30.999795546731956
 11
26.400427765892207
 21
31.230316651656974
  0
LINE
  8
0
 10
26.400427765892207
 20
31.230316651656974
 11
26.537939291266966
 21
31.570928529684707
  0
LINE
  8
0
 10
26.537939291266966
 20
31.570928529684707
 11
26.824114815201046
 21
32.005395206513526
  0
LINE
  8
0
 10
26.824114815201046
 20
32.005395206513526
 11
27.007672116992666
 21
32.23300669554033
  0
LINE
  8
0
 10
27.007672116992666
 20
32.23300669554033
 11
27.128031853417117
 21
32.40265111715736
  0
LINE
  8
0
 10
27.128031853417117
 20
32.40265111715736
 11
27.32177603053294
 21
32.714816730596304
  0
LINE
  8
0
 10
27.32177603053294
 20
32.714816730596304
 11
27.571494892710827
 21
33.17866853494179
  0
LINE
  8
0
 10
27.571494892710827
 20
33.17866853494179
 11
27.858960876752995
 21
33.80174998578333
  0
LINE
  8
0
 10
27.858960876752995
 20
33.80174998578333
 11
28.165263305357847
 21
34.58991909082231
  0
LINE
  8
0
 10
28.165263305357847
 20
34.58991909082231
 11
28.470947719995525
 21
35.54729500121334
  0
LINE
  8
0
 10
28.470947719995525
 20
35.54729500121334
 11
28.523901340658817
 21
35.75689543948583
  0
LINE
  8
0
 10
28.523901340658817
 20
35.75689543948583
 11
27.622737002345946
 21
36.578415281511965
  0
LINE
  8
0
 10
27.622737002345946
 20
36.578415281511965
 11
26.58596282454089
 21
37.22035867444172
  0
LINE
  8
0
 10
26.58596282454089
 20
37.22035867444172
 11
26.398855194356127
 21
37.112066641530916
  0
LINE
  8
0
 10
26.398855194356127
 20
37.112066641530916
 11
25.56168100451419
 21
36.55605317855346
  0
LINE
  8
0
 10
25.56168100451419
 20
36.55605317855346
 11
24.887423386609818
 21
36.045750934188064
  0
LINE
  8
0
 10
24.887423386609818
 20
36.045750934188064
 11
24.36679647014179
 21
35.59874444630028
  0
LINE
  8
0
 10
24.36679647014179
 20
35.59874444630028
 11
23.988990720591367
 21
35.23161936934618
  0
LINE
  8
0
 10
23.988990720591367
 20
35.23161936934618
 11
23.741762439487534
 21
34.95984307640953
  0
LINE
  8
0
 10
23.741762439487534
 20
34.95984307640953
 11
23.61153208990891
 21
34.79765259584176
  0
LINE
  8
0
 10
23.61153208990891
 20
34.79765259584176
 11
23.44284236314035
 21
34.55881363532552
  0
LINE
  8
0
 10
23.44284236314035
 20
34.55881363532552
 11
23.103276821827446
 21
34.16466522808951
  0
LINE
  8
0
 10
23.103276821827446
 20
34.16466522808951
 11
22.813299398374287
 21
33.93919025175766
  0
LINE
  8
0
 10
22.813299398374287
 20
33.93919025175766
 11
22.59211167906415
 21
33.87423048305605
  0
LINE
  8
0
 10
22.59211167906415
 20
33.87423048305605
 11
20.25279693798657
 21
35.32267284800503
  0
LINE
  8
0
 10
20.25279693798657
 20
35.32267284800503
 11
20.212354688019225
 21
35.549627035322914
  0
LINE
  8
0
 10
20.212354688019225
 20
35.549627035322914
 11
20.284937550008916
 21
35.909707025338825
  0
LINE
  8
0
 10
20.284937550008916
 20
35.909707025338825
 11
20.4864073494494
 21
36.389360695904415
  0
LINE
  8
0
 10
20.4864073494494
 20
36.389360695904415
 11
20.625015738002936
 21
36.646825232492674
  0
LINE
  8
0
 10
20.625015738002936
 20
36.646825232492674
 11
20.712154040520815
 21
36.83569717898617
  0
LINE
  8
0
 10
20.712154040520815
 20
36.83569717898617
 11
20.845239073897748
 21
37.178147978767775
  0
LINE
  8
0
 10
20.845239073897748
 20
37.178147978767775
 11
21.005473452515446
 21
37.67998754519412
  0
LINE
  8
0
 10
21.005473452515446
 20
37.67998754519412
 11
21.17355386575048
 21
38.345281586239786
  0
LINE
  8
0
 10
21.17355386575048
 20
38.345281586239786
 11
21.329815220428067
 21
39.17631353805722
  0
LINE
  8
0
 10
21.329815220428067
 20
39.17631353805722
 11
21.454377415105974
 21
40.17355766805071
  0
LINE
  8
0
 10
21.454377415105974
 20
40.17355766805071
 11
21.467915420282125
 21
40.389319462818
  0
LINE
  8
0
 10
21.467915420282125
 20
40.389319462818
 11
20.4311412424771
 21
41.03126285574775
  0
LINE
  8
0
 10
20.4311412424771
 20
41.03126285574775
 11
19.294063326331475
 21
41.47176918726121
  0
LINE
  8
0
 10
19.294063326331475
 20
41.47176918726121
 11
19.130040167944994
 21
41.330940095173574
  0
LINE
  8
0
 10
19.130040167944994
 20
41.330940095173574
 11
18.409287665302333
 21
40.63056346429271
  0
LINE
  8
0
 10
18.409287665302333
 20
40.63056346429271
 11
17.840278355988243
 21
40.00505557319914
  0
LINE
  8
0
 10
17.840278355988243
 20
40.00505557319914
 11
17.410653328739055
 21
39.46999527535793
  0
LINE
  8
0
 10
17.410653328739055
 20
39.46999527535793
 11
17.106739495893766
 21
39.03969957618445
  0
LINE
  8
0
 10
17.106739495893766
 20
39.03969957618445
 11
16.913659508868694
 21
38.727122713652456
  0
LINE
  8
0
 10
16.913659508868694
 20
38.727122713652456
 11
16.815449001069236
 21
38.54376407028938
  0
LINE
  8
0
 10
16.815449001069236
 20
38.54376407028938
 11
16.693518081293387
 21
38.277995140991116
  0
LINE
  8
0
 10
16.693518081293387
 20
38.277995140991116
 11
16.432158868380984
 21
37.828162854911504
  0
LINE
  8
0
 10
16.432158868380984
 20
37.828162854911504
 11
16.18854977979156
 21
37.55324380678822
  0
LINE
  8
0
 10
16.18854977979156
 20
37.55324380678822
 11
15.98306452790566
 21
37.44874696482266
  0
LINE
  8
0
 10
15.98306452790566
 20
37.44874696482266
 11
13.417430479587917
 21
38.44267889031585
  0
LINE
  8
0
 10
13.417430479587917
 20
38.44267889031585
 11
13.335974113293213
 21
38.65833750737903
  0
LINE
  8
0
 10
13.335974113293213
 20
38.65833750737903
 11
13.341156589586332
 21
39.02562351719147
  0
LINE
  8
0
 10
13.341156589586332
 20
39.02562351719147
 11
13.451059852149665
 21
39.534130151023874
  0
LINE
  8
0
 10
13.451059852149665
 20
39.534130151023874
 11
13.539999185035363
 21
39.81268008917476
  0
LINE
  8
0
 10
13.539999185035363
 20
39.81268008917476
 11
13.590948663265301
 21
40.01434775293382
  0
LINE
  8
0
 10
13.590948663265301
 20
40.01434775293382
 11
13.65884250170959
 21
40.37542198779599
  0
LINE
  8
0
 10
13.65884250170959
 20
40.37542198779599
 11
13.724135807183236
 21
40.89815977175876
  0
LINE
  8
0
 10
13.724135807183236
 20
40.89815977175876
 11
13.76710687272865
 21
41.583010612372995
  0
LINE
  8
0
 10
13.76710687272865
 20
41.583010612372995
 11
13.768005860460267
 21
42.42860561456271
  0
LINE
  8
0
 10
13.768005860460267
 20
42.42860561456271
 11
13.707204019034528
 21
43.43175801137422
  0
LINE
  8
0
 10
13.707204019034528
 20
43.43175801137422
 11
13.680865388194345
 21
43.64633365349329
  0
LINE
  8
0
 10
13.680865388194345
 20
43.64633365349329
 11
12.543787472048713
 21
44.08683998500672
  0
LINE
  8
0
 10
12.543787472048713
 20
44.08683998500672
 11
11.345127642222186
 21
44.31090834031327
  0
LINE
  8
0
 10
11.345127642222186
 20
44.31090834031327
 11
11.209774567568736
 21
44.142337954873945
  0
LINE
  8
0
 10
11.209774567568736
 20
44.142337954873945
 11
10.629988114155504
 21
43.32144864224514
  0
LINE
  8
0
 10
10.629988114155504
 20
43.32144864224514
 11
10.185604043008944
 21
42.60203602544053
  0
LINE
  8
0
 10
10.185604043008944
 20
42.60203602544053
 11
9.86161127000314
 21
41.99714275435481
  0
LINE
  8
0
 10
9.86161127000314
 20
41.99714275435481
 11
9.64193877493606
 21
41.51832963691449
  0
LINE
  8
0
 10
9.64193877493606
 20
41.51832963691449
 11
9.509582189373969
 21
41.17559663494607
  0
LINE
  8
0
 10
9.509582189373969
 20
41.17559663494607
 11
9.44673596440627
 21
40.97731388747296
  0
LINE
  8
0
 10
9.44673596440627
 20
40.97731388747296
 11
9.375716062856077
 21
40.693665431525226
  0
LINE
  8
0
 10
9.375716062856077
 20
40.693665431525226
 11
9.201463452874085
 21
40.20346776559008
  0
LINE
  8
0
 10
9.201463452874085
 20
40.20346776559008
 11
9.012518514483412
 21
39.88846668413015
  0
LINE
  8
0
 10
9.012518514483412
 20
39.88846668413015
 11
8.829733283822323
 21
39.74799128352364
  0
LINE
  8
0
 10
8.829733283822323
 20
39.74799128352364
 11
6.125149518641007
 21
40.253565609928295
  0
LINE
  8
0
 10
6.125149518641007
 20
40.253565609928295
 11
6.005452934876966
 21
40.450584661186696
  0
LINE
  8
0
 10
6.005452934876966
 20
40.450584661186696
 11
5.943058542459041
 21
40.81256920624252
  0
LINE
  8
0
 10
5.943058542459041
 20
40.81256920624252
 11
5.957652644353065
 21
41.33261221981306
  0
LINE
  8
0
 10
5.957652644353065
 20
41.33261221981306
 11
5.993894199260477
 21
41.62276187546667
  0
LINE
  8
0
 10
5.993894199260477
 20
41.62276187546667
 11
6.006919829828514
 21
41.830357706075695
  0
LINE
  8
0
 10
6.006919829828514
 20
41.830357706075695
 11
6.007310430101624
 21
42.197759426011
  0
LINE
  8
0
 10
6.007310430101624
 20
42.197759426011
 11
5.975439177224001
 21
42.72359421923221
  0
LINE
  8
0
 10
5.975439177224001
 20
42.72359421923221
 11
5.891837566980757
 21
43.404680085425944
  0
LINE
  8
0
 10
5.891837566980757
 20
43.404680085425944
 11
5.73734357381742
 21
44.236042414367795
  0
LINE
  8
0
 10
5.73734357381742
 20
44.236042414367795
 11
5.493248230074021
 21
45.2109419262726
  0
LINE
  8
0
 10
5.493248230074021
 20
45.2109419262726
 11
5.42792989370107
 21
45.41702429960629
  0
LINE
  8
0
 10
5.42792989370107
 20
45.41702429960629
 11
4.229270063874548
 21
45.64109265491281
  0
LINE
  8
0
 10
4.229270063874548
 20
45.64109265491281
 11
3.0098472432378474
 21
45.64109265491277
  0
LINE
  8
0
 10
3.0098472432378474
 20
45.64109265491277
 11
2.9077735389366257
 21
45.45052143842
  0
LINE
  8
0
 10
2.9077735389366257
 20
45.45052143842
 11
2.488697067046603
 21
44.53707384503661
  0
LINE
  8
0
 10
2.488697067046603
 20
44.53707384503661
 11
2.1840712006305196
 21
43.74825523634593
  0
LINE
  8
0
 10
2.1840712006305196
 20
43.74825523634593
 11
1.9767438671663116
 21
43.094127906873
  0
LINE
  8
0
 10
1.9767438671663116
 20
43.094127906873
 11
1.8487933932288354
 21
42.58310277760724
  0
LINE
  8
0
 10
1.8487933932288354
 20
42.58310277760724
 11
1.7816674539068122
 21
42.221884997521485
  0
LINE
  8
0
 10
1.7816674539068122
 20
42.221884997521485
 11
1.7563256645864103
 21
42.0154304270896
  0
LINE
  8
0
 10
1.7563256645864103
 20
42.0154304270896
 11
1.738635278830181
 21
41.723561752460874
  0
LINE
  8
0
 10
1.738635278830181
 20
41.723561752460874
 11
1.6574232354185654
 21
41.20969180025631
  0
LINE
  8
0
 10
1.6574232354185654
 20
41.20969180025631
 11
1.5295767404890628
 21
40.8653356694867
  0
LINE
  8
0
 10
1.5295767404890628
 20
40.8653356694867
 11
1.3757160628562304
 21
40.69366543152521
  0
LINE
  8
0
 10
1.3757160628562304
 20
40.69366543152521
 11
-1.375716062856098
 21
40.69366543152521
  0
LINE
  8
0
 10
-1.375716062856098
 20
40.69366543152521
 11
-1.5295767404896206
 21
40.86533566948653
  0
LINE
  8
0
 10
-1.5295767404896206
 20
40.86533566948653
 11
-1.65742323541862
 21
41.20969180025647
  0
LINE
  8
0
 10
-1.65742323541862
 20
41.20969180025647
 11
-1.738635278830213
 21
41.72356175246085
  0
LINE
  8
0
 10
-1.738635278830213
 20
41.72356175246085
 11
-1.7563256645865053
 21
42.01543042709006
  0
LINE
  8
0
 10
-1.7563256645865053
 20
42.01543042709006
 11
-1.7816674539068407
 21
42.22188499752139
  0
LINE
  8
0
 10
-1.7816674539068407
 20
42.22188499752139
 11
-1.8487933932287368
 21
42.583102777607245
  0
LINE
  8
0
 10
-1.8487933932287368
 20
42.583102777607245
 11
-1.976743867166237
 21
43.09412790687307
  0
LINE
  8
0
 10
-1.976743867166237
 20
43.09412790687307
 11
-2.1840712006303833
 21
43.748255236345535
  0
LINE
  8
0
 10
-2.1840712006303833
 20
43.748255236345535
 11
-2.4886970670466178
 21
44.53707384503661
  0
LINE
  8
0
 10
-2.4886970670466178
 20
44.53707384503661
 11
-2.907773538936594
 21
45.45052143841989
  0
LINE
  8
0
 10
-2.907773538936594
 20
45.45052143841989
 11
-3.009847243237869
 21
45.641092654912796
  0
LINE
  8
0
 10
-3.009847243237869
 20
45.641092654912796
 11
-4.229270063874526
 21
45.6410926549128
  0
LINE
  8
0
 10
-4.229270063874526
 20
45.6410926549128
 11
-5.427929893701066
 21
45.41702429960626
  0
LINE
  8
0
 10
-5.427929893701066
 20
45.41702429960626
 11
-5.493248230073989
 21
45.210941926272724
  0
LINE
  8
0
 10
-5.493248230073989
 20
45.210941926272724
 11
-5.737343573817415
 21
44.2360424143678
  0
LINE
  8
0
 10
-5.737343573817415
 20
44.2360424143678
 11
-5.891837566980677
 21
43.40468008542637
  0
LINE
  8
0
 10
-5.891837566980677
 20
43.40468008542637
 11
-5.975439177223895
 21
42.72359421923216
  0
LINE
  8
0
 10
-5.975439177223895
 20
42.72359421923216
 11
-6.007310430101506
 21
42.19775942601101
  0
LINE
  8
0
 10
-6.007310430101506
 20
42.19775942601101
 11
-6.006919829828539
 21
41.83035770607577
  0
LINE
  8
0
 10
-6.006919829828539
 20
41.83035770607577
 11
-5.993894199260465
 21
41.6227618754662
  0
LINE
  8
0
 10
-5.993894199260465
 20
41.6227618754662
 11
-5.9576526443530815
 21
41.332612219813086
  0
LINE
  8
0
 10
-5.9576526443530815
 20
41.332612219813086
 11
-5.943058542459049
 21
40.812569206242365
  0
LINE
  8
0
 10
-5.943058542459049
 20
40.812569206242365
 11
-6.005452934877527
 21
40.450584661186774
  0
LINE
  8
0
 10
-6.005452934877527
 20
40.450584661186774
 11
-6.125149518640859
 21
40.25356560992833
  0
LINE
  8
0
 10
-6.125149518640859
 20
40.25356560992833
 11
-8.829733283822174
 21
39.74799128352366
  0
LINE
  8
0
 10
-8.829733283822174
 20
39.74799128352366
 11
-9.01251851448391
 21
39.88846668412989
  0
LINE
  8
0
 10
-9.01251851448391
 20
39.88846668412989
 11
-9.201463452874146
 21
40.20346776559022
  0
LINE
  8
0
 10
-9.201463452874146
 20
40.20346776559022
 11
-9.375716062856084
 21
40.69366543152521
  0
LINE
  8
0
 10
-9.375716062856084
 20
40.69366543152521
 11
-9.446735964406429
 21
40.97731388747341
  0
LINE
  8
0
 10
-9.446735964406429
 20
40.97731388747341
 11
-9.50958218937396
 21
41.175596634945975
  0
LINE
  8
0
 10
-9.50958218937396
 20
41.175596634945975
 11
-9.641938774935944
 21
41.51832963691452
  0
LINE
  8
0
 10
-9.641938774935944
 20
41.51832963691452
 11
-9.861611270003058
 21
41.997142754354904
  0
LINE
  8
0
 10
-9.861611270003058
 20
41.997142754354904
 11
-10.185604043008714
 21
42.60203602544017
  0
LINE
  8
0
 10
-10.185604043008714
 20
42.60203602544017
 11
-10.629988114155498
 21
43.321448642245144
  0
LINE
  8
0
 10
-10.629988114155498
 20
43.321448642245144
 11
-11.209774567568667
 21
44.14233795487385
  0
LINE
  8
0
 10
-11.209774567568667
 20
44.14233795487385
 11
-11.34512764222219
 21
44.31090834031327
  0
LINE
  8
0
 10
-11.34512764222219
 20
44.31090834031327
 11
-12.543787472048713
 21
44.086839985006755
  0
LINE
  8
0
 10
-12.543787472048713
 20
44.086839985006755
 11
-13.680865388194361
 21
43.64633365349332
  0
LINE
  8
0
 10
-13.680865388194361
 20
43.64633365349332
 11
-13.707204019034515
 21
43.43175801137434
  0
LINE
  8
0
 10
-13.707204019034515
 20
43.43175801137434
 11
-13.768005860460258
 21
42.428605614562706
  0
LINE
  8
0
 10
-13.768005860460258
 20
42.428605614562706
 11
-13.767106872728645
 21
41.58301061237343
  0
LINE
  8
0
 10
-13.767106872728645
 20
41.58301061237343
 11
-13.724135807183123
 21
40.89815977175873
  0
LINE
  8
0
 10
-13.724135807183123
 20
40.89815977175873
 11
-13.658842501709474
 21
40.37542198779602
  0
LINE
  8
0
 10
-13.658842501709474
 20
40.37542198779602
 11
-13.59094866326534
 21
40.0143477529339
  0
LINE
  8
0
 10
-13.59094866326534
 20
40.0143477529339
 11
-13.539999185035263
 21
39.8126800891743
  0
LINE
  8
0
 10
-13.539999185035263
 20
39.8126800891743
 11
-13.451059852149681
 21
39.53413015102389
  0
LINE
  8
0
 10
-13.451059852149681
 20
39.53413015102389
 11
-13.34115658958631
 21
39.02562351719131
  0
LINE
  8
0
 10
-13.34115658958631
 20
39.02562351719131
 11
-13.335974113293778
 21
38.658337507378995
  0
LINE
  8
0
 10
-13.335974113293778
 20
38.658337507378995
 11
-13.417430479587777
 21
38.442678890315904
  0
LINE
  8
0
 10
-13.417430479587777
 20
38.442678890315904
 11
-15.983064527905515
 21
37.44874696482272
  0
LINE
  8
0
 10
-15.983064527905515
 20
37.44874696482272
 11
-16.188549779792005
 21
37.55324380678786
  0
LINE
  8
0
 10
-16.188549779792005
 20
37.55324380678786
 11
-16.432158868381077
 21
37.82816285491163
  0
LINE
  8
0
 10
-16.432158868381077
 20
37.82816285491163
 11
-16.693518081293394
 21
38.277995140991095
  0
LINE
  8
0
 10
-16.693518081293394
 20
38.277995140991095
 11
-16.815449001069474
 21
38.5437640702898
  0
LINE
  8
0
 10
-16.815449001069474
 20
38.5437640702898
 11
-16.913659508868673
 21
38.72712271365237
  0
LINE
  8
0
 10
-16.913659508868673
 20
38.72712271365237
 11
-17.10673949589366
 21
39.039699576184496
  0
LINE
  8
0
 10
-17.10673949589366
 20
39.039699576184496
 11
-17.410653328739
 21
39.46999527535803
  0
LINE
  8
0
 10
-17.410653328739
 20
39.46999527535803
 11
-17.840278355987955
 21
40.00505557319881
  0
LINE
  8
0
 10
-17.840278355987955
 20
40.00505557319881
 11
-18.409287665302333
 21
40.63056346429271
  0
LINE
  8
0
 10
-18.409287665302333
 20
40.63056346429271
 11
-19.13004016794491
 21
41.330940095173496
  0
LINE
  8
0
 10
-19.13004016794491
 20
41.330940095173496
 11
-19.29406332633149
 21
41.47176918726124
  0
LINE
  8
0
 10
-19.29406332633149
 20
41.47176918726124
 11
-20.431141242477135
 21
41.031262855747805
  0
LINE
  8
0
 10
-20.431141242477135
 20
41.031262855747805
 11
-21.467915420282182
 21
40.38931946281801
  0
LINE
  8
0
 10
-21.467915420282182
 20
40.38931946281801
 11
-21.454377415106013
 21
40.17355766805082
  0
LINE
  8
0
 10
-21.454377415106013
 20
40.17355766805082
 11
-21.329815220428088
 21
39.17631353805721
  0
LINE
  8
0
 10
-21.329815220428088
 20
39.17631353805721
 11
-21.173553865750588
 21
38.345281586240205
  0
LINE
  8
0
 10
-21.173553865750588
 20
38.345281586240205
 11
-21.005473452515357
 21
37.679987545194095
  0
LINE
  8
0
 10
-21.005473452515357
 20
37.679987545194095
 11
-20.84523907389767
 21
37.17814797876782
  0
LINE
  8
0
 10
-20.84523907389767
 20
37.17814797876782
 11
-20.712154040520897
 21
36.83569717898623
  0
LINE
  8
0
 10
-20.712154040520897
 20
36.83569717898623
 11
-20.62501573800278
 21
36.646825232492226
  0
LINE
  8
0
 10
-20.62501573800278
 20
36.646825232492226
 11
-20.486407349449447
 21
36.389360695904415
  0
LINE
  8
0
 10
-20.486407349449447
 20
36.389360695904415
 11
-20.284937550008895
 21
35.90970702533867
  0
LINE
  8
0
 10
-20.284937550008895
 20
35.90970702533867
 11
-20.212354688019797
 21
35.549627035322764
  0
LINE
  8
0
 10
-20.212354688019797
 20
35.549627035322764
 11
-20.252796937986464
 21
35.3226728480051
  0
LINE
  8
0
 10
-20.252796937986464
 20
35.3226728480051
 11
-22.592111679064047
 21
33.87423048305612
  0
LINE
  8
0
 10
-22.592111679064047
 20
33.87423048305612
 11
-22.81329939837468
 21
33.939190251757225
  0
LINE
  8
0
 10
-22.81329939837468
 20
33.939190251757225
 11
-23.103276821827585
 21
34.16466522808961
  0
LINE
  8
0
 10
-23.103276821827585
 20
34.16466522808961
 11
-23.44284236314038
 21
34.558813635325485
  0
LINE
  8
0
 10
-23.44284236314038
 20
34.558813635325485
 11
-23.611532089909243
 21
34.7976525958421
  0
LINE
  8
0
 10
-23.611532089909243
 20
34.7976525958421
 11
-23.741762439487523
 21
34.959843076409435
  0
LINE
  8
0
 10
-23.741762439487523
 20
34.959843076409435
 11
-23.9889907205913
 21
35.231619369346234
  0
LINE
  8
0
 10
-23.9889907205913
 20
35.231619369346234
 11
-24.366796470141775
 21
35.59874444630038
  0
LINE
  8
0
 10
-24.366796470141775
 20
35.59874444630038
 11
-24.8874233866095
 21
36.045750934187794
  0
LINE
  8
0
 10
-24.8874233866095
 20
36.045750934187794
 11
-25.56168100451421
 21
36.55605317855345
  0
LINE
  8
0
 10
-25.56168100451421
 20
36.55605317855345
 11
-26.398855194356052
 21
37.11206664153084
  0
LINE
  8
0
 10
-26.398855194356052
 20
37.11206664153084
 11
-26.58596282454091
 21
37.22035867444169
  0
LINE
  8
0
 10
-26.58596282454091
 20
37.22035867444169
 11
-27.622737002345943
 21
36.57841528151192
  0
LINE
  8
0
 10
-27.622737002345943
 20
36.57841528151192
 11
-28.52390134065884
 21
35.7568954394858
  0
LINE
  8
0
 10
-28.52390134065884
 20
35.7568954394858
 11
-28.47094771999557
 21
35.547295001213456
  0
LINE
  8
0
 10
-28.47094771999557
 20
35.547295001213456
 11
-28.165263305357854
 21
34.589919090822306
  0
LINE
  8
0
 10
-28.165263305357854
 20
34.589919090822306
 11
-27.858960876753166
 21
33.80174998578373
  0
LINE
  8
0
 10
-27.858960876753166
 20
33.80174998578373
 11
-27.57149489271072
 21
33.1786685349418
  0
LINE
  8
0
 10
-27.57149489271072
 20
33.1786685349418
 11
-27.321776030532863
 21
32.71481673059637
  0
LINE
  8
0
 10
-27.321776030532863
 20
32.71481673059637
 11
-27.1280318534172
 21
32.40265111715742
  0
LINE
  8
0
 10
-27.1280318534172
 20
32.40265111715742
 11
-27.00767211699242
 21
32.23300669553993
  0
LINE
  8
0
 10
-27.00767211699242
 20
32.23300669553993
 11
-26.82411481520108
 21
32.005395206513526
  0
LINE
  8
0
 10
-26.82411481520108
 20
32.005395206513526
 11
-26.5379392912669
 21
31.570928529684565
  0
LINE
  8
0
 10
-26.5379392912669
 20
31.570928529684565
 11
-26.400427765892736
 21
31.23031665165673
  0
LINE
  8
0
 10
-26.400427765892736
 20
31.23031665165673
 11
-26.398478687214592
 21
30.999795546732052
  0
LINE
  8
0
 10
-26.398478687214592
 20
30.999795546732052
 11
-28.43181156324339
 21
29.146167709850467
  0
LINE
  8
0
 10
-28.43181156324339
 20
29.146167709850467
 11
-28.661169467482488
 21
29.16937827827506
  0
LINE
  8
0
 10
-28.661169467482488
 20
29.16937827827506
 11
-28.987640392433114
 21
29.337730902924505
  0
LINE
  8
0
 10
-28.987640392433114
 20
29.337730902924505
 11
-29.393848764900955
 21
29.662773180037266
  0
LINE
  8
0
 10
-29.393848764900955
 20
29.662773180037266
 11
-29.603552772338517
 21
29.866548797427185
  0
LINE
  8
0
 10
-29.603552772338517
 20
29.866548797427185
 11
-29.761368125335082
 21
30.002047912909585
  0
LINE
  8
0
 10
-29.761368125335082
 20
30.002047912909585
 11
-30.054325637922297
 21
30.223768620554832
  0
LINE
  8
0
 10
-30.054325637922297
 20
30.223768620554832
 11
-30.49315758250502
 21
30.51522107111191
  0
LINE
  8
0
 10
-30.49315758250502
 20
30.51522107111191
 11
-31.087057062974363
 21
30.858951479226146
  0
LINE
  8
0
 10
-31.087057062974363
 20
30.858951479226146
 11
-31.843601954974545
 21
31.236670345971774
  0
LINE
  8
0
 10
-31.843601954974545
 20
31.236670345971774
 11
-32.768688869060355
 21
31.629386269428714
  0
LINE
  8
0
 10
-32.768688869060355
 20
31.629386269428714
 11
-32.97250924510844
 21
31.701453487863915
  0
LINE
  8
0
 10
-32.97250924510844
 20
31.701453487863915
 11
-33.87367358342129
 21
30.879933645837816
  0
LINE
  8
0
 10
-33.87367358342129
 20
30.879933645837816
 11
-34.608540011528234
 21
29.906813227631062
  0
LINE
  8
0
 10
-34.608540011528234
 20
29.906813227631062
 11
-34.5179740474187
 21
29.7105118373909
  0
LINE
  8
0
 10
-34.5179740474187
 20
29.7105118373909
 11
-34.041577128933625
 21
28.825606434984735
  0
LINE
  8
0
 10
-34.041577128933625
 20
28.825606434984735
 11
-33.59566438823861
 21
28.107140330292037
  0
LINE
  8
0
 10
-33.59566438823861
 20
28.107140330292037
 11
-33.19860214269807
 21
27.547489761158864
  0
LINE
  8
0
 10
-33.19860214269807
 20
27.547489761158864
 11
-32.867902673306745
 21
27.137421635762355
  0
LINE
  8
0
 10
-32.867902673306745
 20
27.137421635762355
 11
-32.62009707803334
 21
26.86617163423031
  0
LINE
  8
0
 10
-32.62009707803334
 20
26.86617163423031
 11
-32.47061461417025
 21
26.72153177480147
  0
LINE
  8
0
 10
-32.47061461417025
 20
26.72153177480147
 11
-32.248359222900696
 21
26.53152436960539
  0
LINE
  8
0
 10
-32.248359222900696
 20
26.53152436960539
 11
-31.887223338710758
 21
26.157039928107267
  0
LINE
  8
0
 10
-31.887223338710758
 20
26.157039928107267
 11
-31.689465940021243
 21
25.847495291054816
  0
LINE
  8
0
 10
-31.689465940021243
 20
25.847495291054816
 11
-31.645191906235006
 21
25.62125738827174
  0
LINE
  8
0
 10
-31.645191906235006
 20
25.62125738827174
 11
-33.30330020483586
 21
23.425567152261014
  0
LINE
  8
0
 10
-33.30330020483586
 20
23.425567152261014
 11
-33.533017785659034
 21
23.406238112339413
  0
LINE
  8
0
 10
-33.533017785659034
 20
23.406238112339413
 11
-33.88486463631691
 21
23.511735338590185
  0
LINE
  8
0
 10
-33.88486463631691
 20
23.511735338590185
 11
-34.34388290100865
 21
23.75660256067802
  0
LINE
  8
0
 10
-34.34388290100865
 20
23.75660256067802
 11
-34.58745997065385
 21
23.918375500692928
  0
LINE
  8
0
 10
-34.58745997065385
 20
23.918375500692928
 11
-34.76748611450106
 21
24.022568991225917
  0
LINE
  8
0
 10
-34.76748611450106
 20
24.022568991225917
 11
-35.09619654184436
 21
24.186683680805437
  0
LINE
  8
0
 10
-35.09619654184436
 20
24.186683680805437
 11
-35.58111078590748
 21
24.392538441320415
  0
LINE
  8
0
 10
-35.58111078590748
 20
24.392538441320415
 11
-36.228058295874966
 21
24.621287442872323
  0
LINE
  8
0
 10
-36.228058295874966
 20
24.621287442872323
 11
-37.04112723304914
 21
24.853560169014738
  0
LINE
  8
0
 10
-37.04112723304914
 20
24.853560169014738
 11
-38.022624146039185
 21
25.06960508318875
  0
LINE
  8
0
 10
-38.022624146039185
 20
25.06960508318875
 11
-38.23621640949974
 21
25.102993324459558
  0
LINE
  8
0
 10
-38.23621640949974
 20
25.102993324459558
 11
-38.971082837606694
 21
24.12987290625282
  0
LINE
  8
0
 10
-38.971082837606694
 20
24.12987290625282
 11
-39.51462636067368
 21
23.038290360578205
  0
LINE
  8
0
 10
-39.51462636067368
 20
23.038290360578205
 11
-39.389532168403726
 21
22.8619728267773
  0
LINE
  8
0
 10
-39.389532168403726
 20
22.8619728267773
 11
-38.75864587175518
 21
22.079672324508014
  0
LINE
  8
0
 10
-38.75864587175518
 20
22.079672324508014
 11
-38.18830784254082
 21
21.45537572165139
  0
LINE
  8
0
 10
-38.18830784254082
 20
21.45537572165139
 11
-37.69517081405041
 21
20.978214263131935
  0
LINE
  8
0
 10
-37.69517081405041
 20
20.978214263131935
 11
-37.29475231124544
 21
20.63589419487221
  0
LINE
  8
0
 10
-37.29475231124544
 20
20.63589419487221
 11
-37.00132402015126
 21
20.414796898720734
  0
LINE
  8
0
 10
-37.00132402015126
 20
20.414796898720734
 11
-36.827809274872266
 21
20.300087138416995
  0
LINE
  8
0
 10
-36.827809274872266
 20
20.300087138416995
 11
-36.574424434908224
 21
20.154154291346426
  0
LINE
  8
0
 10
-36.574424434908224
 20
20.154154291346426
 11
-36.15062623986387
 21
19.852404703689782
  0
LINE
  8
0
 10
-36.15062623986387
 20
19.852404703689782
 11
-35.89935735888751
 21
19.58446847896966
  0
LINE
  8
0
 10
-35.89935735888751
 20
19.58446847896966
 11
-35.81426606911292
 21
19.370218038765014
  0
LINE
  8
0
 10
-35.81426606911292
 20
19.370218038765014
 11
-37.04068490085868
 21
16.90723700117231
  0
LINE
  8
0
 10
-37.04068490085868
 20
16.90723700117231
 11
-37.26293940156687
 21
16.846026580176414
  0
LINE
  8
0
 10
-37.26293940156687
 20
16.846026580176414
 11
-37.62818045542663
 21
16.885075826518523
  0
LINE
  8
0
 10
-37.62818045542663
 20
16.885075826518523
 11
-38.12437729586991
 21
17.04142933401908
  0
LINE
  8
0
 10
-38.12437729586991
 20
17.04142933401908
 11
-38.39353270275449
 21
17.15569061321204
  0
LINE
  8
0
 10
-38.39353270275449
 20
17.15569061321204
 11
-38.58963906304118
 21
17.225030294441837
  0
LINE
  8
0
 10
-38.58963906304118
 20
17.225030294441837
 11
-38.9429085657821
 21
17.325950237035865
  0
LINE
  8
0
 10
-38.9429085657821
 20
17.325950237035865
 11
-39.457391936334574
 21
17.439197170534975
  0
LINE
  8
0
 10
-39.457391936334574
 20
17.439197170534975
 11
-40.135356454276284
 21
17.545174992630894
  0
LINE
  8
0
 10
-40.135356454276284
 20
17.545174992630894
 11
-40.977261349137684
 21
17.62409180906175
  0
LINE
  8
0
 10
-40.977261349137684
 20
17.62409180906175
 11
-41.98174456083589
 21
17.656108563517947
  0
LINE
  8
0
 10
-41.98174456083589
 20
17.656108563517947
 11
-42.19783508335248
 21
17.64968083111269
  0
LINE
  8
0
 10
-42.19783508335248
 20
17.64968083111269
 11
-42.74137860641946
 21
16.558098285438106
  0
LINE
  8
0
 10
-42.74137860641946
 20
16.558098285438106
 11
-43.07508950167701
 21
15.38522614667959
  0
LINE
  8
0
 10
-43.07508950167701
 20
15.38522614667959
 11
-42.91972701393043
 21
15.234896751461951
  0
LINE
  8
0
 10
-42.91972701393043
 20
15.234896751461951
 11
-42.15583541528608
 21
14.581841454668291
  0
LINE
  8
0
 10
-42.15583541528608
 20
14.581841454668291
 11
-41.480494275092205
 21
14.072974025696775
  0
LINE
  8
0
 10
-41.480494275092205
 20
14.072974025696775
 11
-40.908075653704465
 21
13.694550838968825
  0
LINE
  8
0
 10
-40.908075653704465
 20
13.694550838968825
 11
-40.451573889349824
 21
13.431636127202804
  0
LINE
  8
0
 10
-40.451573889349824
 20
13.431636127202804
 11
-40.122515250959644
 21
13.268220739675352
  0
LINE
  8
0
 10
-40.122515250959644
 20
13.268220739675352
 11
-39.93087706080723
 21
13.187347381804669
  0
LINE
  8
0
 10
-39.93087706080723
 20
13.187347381804669
 11
-39.65499148897204
 21
13.090458660939436
  0
LINE
  8
0
 10
-39.65499148897204
 20
13.090458660939436
 11
-39.18296292231558
 21
12.871719647423182
  0
LINE
  8
0
 10
-39.18296292231558
 20
12.871719647423182
 11
-38.88673921943024
 21
12.654516081814156
  0
LINE
  8
0
 10
-38.88673921943024
 20
12.654516081814156
 11
-38.76372835548482
 21
12.459549145964026
  0
LINE
  8
0
 10
-38.76372835548482
 20
12.459549145964026
 11
-39.516693497987646
 21
9.813151172004408
  0
LINE
  8
0
 10
-39.516693497987646
 20
9.813151172004408
 11
-39.723916308124124
 21
9.71214381740742
  0
LINE
  8
0
 10
-39.723916308124124
 20
9.71214381740742
 11
-40.09011371915493
 21
9.6834153085911
  0
LINE
  8
0
 10
-40.09011371915493
 20
9.6834153085911
 11
-40.60659174707098
 21
9.745930670331814
  0
LINE
  8
0
 10
-40.60659174707098
 20
9.745930670331814
 11
-40.892159726629814
 21
9.8087892578812
  0
LINE
  8
0
 10
-40.892159726629814
 20
9.8087892578812
 11
-41.09766813646008
 21
9.840913850127302
  0
LINE
  8
0
 10
-41.09766813646008
 20
9.840913850127302
 11
-41.46346654538283
 21
9.875202338130935
  0
LINE
  8
0
 10
-41.46346654538283
 20
9.875202338130935
 11
-41.989998928295286
 21
9.89198495611859
  0
LINE
  8
0
 10
-41.989998928295286
 20
9.89198495611859
 11
-42.675893185681524
 21
9.871582651133433
  0
LINE
  8
0
 10
-42.675893185681524
 20
9.871582651133433
 11
-43.517963976789275
 21
9.79445614031946
  0
LINE
  8
0
 10
-43.517963976789275
 20
9.79445614031946
 11
-44.51122701616608
 21
9.641354442884701
  0
LINE
  8
0
 10
-44.51122701616608
 20
9.641354442884701
 11
-44.72245709416641
 21
9.595329625521213
  0
LINE
  8
0
 10
-44.72245709416641
 20
9.595329625521213
 11
-45.056167989423976
 21
8.422457486762736
  0
LINE
  8
0
 10
-45.056167989423976
 20
8.422457486762736
 11
-45.16868213257621
 21
7.208236508900692
  0
LINE
  8
0
 10
-45.16868213257621
 20
7.208236508900692
 11
-44.98834203253646
 21
7.089014539520218
  0
LINE
  8
0
 10
-44.98834203253646
 20
7.089014539520218
 11
-44.11745854410113
 21
6.587443463080992
  0
LINE
  8
0
 10
-44.11745854410113
 20
6.587443463080992
 11
-43.36011222547463
 21
6.211334077968999
  0
LINE
  8
0
 10
-43.36011222547463
 20
6.211334077968999
 11
-42.727905040800465
 21
5.944535910787991
  0
LINE
  8
0
 10
-42.727905040800465
 20
5.944535910787991
 11
-42.23086563496772
 21
5.769979800693425
  0
LINE
  8
0
 10
-42.23086563496772
 20
5.769979800693425
 11
-41.87738234654959
 21
5.669811236817091
  0
LINE
  8
0
 10
-41.87738234654959
 20
5.669811236817091
 11
-41.67414672024471
 21
5.625528326584848
  0
LINE
  8
0
 10
-41.67414672024471
 20
5.625528326584848
 11
-41.385155368798955
 21
5.580983161108807
  0
LINE
  8
0
 10
-41.385155368798955
 20
5.580983161108807
 11
-40.88097079723203
 21
5.452703616489705
  0
LINE
  8
0
 10
-40.88097079723203
 20
5.452703616489705
 11
-40.54987981535828
 21
5.293629316911627
  0
LINE
  8
0
 10
-40.54987981535828
 20
5.293629316911627
 11
-40.39313836467842
 21
5.1245852505793215
  0
LINE
  8
0
 10
-40.39313836467842
 20
5.1245852505793215
 11
-40.64700849309252
 21
2.3848902492514594
  0
LINE
  8
0
 10
-40.64700849309252
 20
2.3848902492514594
 11
-40.832142888394465
 21
2.2475256453692136
  0
LINE
  8
0
 10
-40.832142888394465
 20
2.2475256453692136
 11
-41.18682624296905
 21
2.1519976963061516
  0
LINE
  8
0
 10
-41.18682624296905
 20
2.1519976963061516
 11
-41.7059974185643
 21
2.118546026621857
  0
LINE
  8
0
 10
-41.7059974185643
 20
2.118546026621857
 11
-41.998253295754544
 21
2.1278613487192395
  0
LINE
  8
0
 10
-41.998253295754544
 20
2.1278613487192395
 11
-42.20616541271178
 21
2.1216768875219127
  0
LINE
  8
0
 10
-42.20616541271178
 20
2.1216768875219127
 11
-42.572035901727354
 21
2.088166267600691
  0
LINE
  8
0
 10
-42.572035901727354
 20
2.088166267600691
 11
-43.09268686820569
 21
2.007913058149855
  0
LINE
  8
0
 10
-43.09268686820569
 20
2.007913058149855
 11
-43.76315355874066
 21
1.8618254021100222
  0
LINE
  8
0
 10
-43.76315355874066
 20
1.8618254021100222
 11
-44.57671453525618
 21
1.631282014873942
  0
LINE
  8
0
 10
-44.57671453525618
 20
1.631282014873942
 11
-45.52493302079331
 21
1.2982755602291234
  0
LINE
  8
0
 10
-45.52493302079331
 20
1.2982755602291234
 11
-45.72410946731362
 21
1.2142209778620332
  0
LINE
  8
0
 10
-45.72410946731362
 20
1.2142209778620332
 11
-45.83662361046588
 21
-6.217248937900877e-15
  0
LINE
  8
0
 10
-45.83662361046588
 20
-6.217248937900877e-15
 11
-45.72410946731359
 21
-1.2142209778620479
  0
LINE
  8
0
 10
-45.72410946731359
 20
-1.2142209778620479
 11
-45.524933020793426
 21
-1.2982755602290974
  0
LINE
  8
0
 10
-45.524933020793426
 20
-1.2982755602290974
 11
-44.57671453525618
 21
-1.6312820148739515
  0
LINE
  8
0
 10
-44.57671453525618
 20
-1.6312820148739515
 11
-43.763153558741074
 21
-1.8618254021099174
  0
LINE
  8
0
 10
-43.763153558741074
 20
-1.8618254021099174
 11
-43.092686868205625
 21
-2.007913058149767
  0
LINE
  8
0
 10
-43.092686868205625
 20
-2.007913058149767
 11
-42.572035901727354
 21
-2.0881662676005863
  0
LINE
  8
0
 10
-42.572035901727354
 20
-2.0881662676005863
 11
-42.206165412711876
 21
-2.121676887521943
  0
LINE
  8
0
 10
-42.206165412711876
 20
-2.121676887521943
 11
-41.998253295754076
 21
-2.127861348719285
  0
LINE
  8
0
 10
-41.998253295754076
 20
-2.127861348719285
 11
-41.705997418564316
 21
-2.1185460266218854
  0
LINE
  8
0
 10
-41.705997418564316
 20
-2.1185460266218854
 11
-41.18682624296889
 21
-2.1519976963061858
  0
LINE
  8
0
 10
-41.18682624296889
 20
-2.1519976963061858
 11
-40.832142888394586
 21
-2.2475256453697794
  0
LINE
  8
0
 10
-40.832142888394586
 20
-2.2475256453697794
 11
-40.647008493092535
 21
-2.384890249251322
  0
LINE
  8
0
 10
-40.647008493092535
 20
-2.384890249251322
 11
-40.393138364678435
 21
-5.124585250579183
  0
LINE
  8
0
 10
-40.393138364678435
 20
-5.124585250579183
 11
-40.54987981535806
 21
-5.293629316912161
  0
LINE
  8
0
 10
-40.54987981535806
 20
-5.293629316912161
 11
-40.88097079723218
 21
-5.452703616489768
  0
LINE
  8
0
 10
-40.88097079723218
 20
-5.452703616489768
 11
-41.385155368798934
 21
-5.580983161108832
  0
LINE
  8
0
 10
-41.385155368798934
 20
-5.580983161108832
 11
-41.67414672024516
 21
-5.62552832658498
  0
LINE
  8
0
 10
-41.67414672024516
 20
-5.62552832658498
 11
-41.8773823465495
 21
-5.6698112368171065
  0
LINE
  8
0
 10
-41.8773823465495
 20
-5.6698112368171065
 11
-42.23086563496774
 21
-5.769979800693322
  0
LINE
  8
0
 10
-42.23086563496774
 20
-5.769979800693322
 11
-42.72790504080054
 21
-5.944535910787917
  0
LINE
  8
0
 10
-42.72790504080054
 20
-5.944535910787917
 11
-43.360112225474246
 21
-6.211334077968821
  0
LINE
  8
0
 10
-43.360112225474246
 20
-6.211334077968821
 11
-44.11745854410114
 21
-6.587443463081001
  0
LINE
  8
0
 10
-44.11745854410114
 20
-6.587443463081001
 11
-44.98834203253636
 21
-7.089014539520171
  0
LINE
  8
0
 10
-44.98834203253636
 20
-7.089014539520171
 11
-45.1686821325762
 21
-7.208236508900709
  0
LINE
  8
0
 10
-45.1686821325762
 20
-7.208236508900709
 11
-45.05616798942395
 21
-8.422457486762712
  0
LINE
  8
0
 10
-45.05616798942395
 20
-8.422457486762712
 11
-44.72245709416642
 21
-9.595329625521215
  0
LINE
  8
0
 10
-44.72245709416642
 20
-9.595329625521215
 11
-44.5112270161662
 21
-9.64135444288468
  0
LINE
  8
0
 10
-44.5112270161662
 20
-9.64135444288468
 11
-43.517963976789275
 21
-9.79445614031945
  0
LINE
  8
0
 10
-43.517963976789275
 20
-9.79445614031945
 11
-42.67589318568196
 21
-9.871582651133387
  0
LINE
  8
0
 10
-42.67589318568196
 20
-9.871582651133387
 11
-41.98999892829524
 21
-9.891984956118474
  0
LINE
  8
0
 10
-41.98999892829524
 20
-9.891984956118474
 11
-41.46346654538286
 21
-9.875202338130814
  0
LINE
  8
0
 10
-41.46346654538286
 20
-9.875202338130814
 11
-41.097668136460165
 21
-9.84091385012733
  0
LINE
  8
0
 10
-41.097668136460165
 20
-9.84091385012733
 11
-40.892159726629345
 21
-9.808789257881138
  0
LINE
  8
0
 10
-40.892159726629345
 20
-9.808789257881138
 11
-40.60659174707099
 21
-9.745930670331829
  0
LINE
  8
0
 10
-40.60659174707099
 20
-9.745930670331829
 11
-40.09011371915477
 21
-9.683415308591085
  0
LINE
  8
0
 10
-40.09011371915477
 20
-9.683415308591085
 11
-39.723916308124146
 21
-9.712143817407979
  0
LINE
  8
0
 10
-39.723916308124146
 20
-9.712143817407979
 11
-39.51669349798769
 21
-9.81315117200426
  0
LINE
  8
0
 10
-39.51669349798769
 20
-9.81315117200426
 11
-38.763728355484865
 21
-12.459549145963875
  0
LINE
  8
0
 10
-38.763728355484865
 20
-12.459549145963875
 11
-38.886739219429934
 21
-12.654516081814625
  0
LINE
  8
0
 10
-38.886739219429934
 20
-12.654516081814625
 11
-39.182962922315724
 21
-12.871719647423253
  0
LINE
  8
0
 10
-39.182962922315724
 20
-12.871719647423253
 11
-39.654991488972016
 21
-13.090458660939438
  0
LINE
  8
0
 10
-39.654991488972016
 20
-13.090458660939438
 11
-39.93087706080766
 21
-13.187347381804864
  0
LINE
  8
0
 10
-39.93087706080766
 20
-13.187347381804864
 11
-40.122515250959566
 21
-13.268220739675332
  0
LINE
  8
0
 10
-40.122515250959566
 20
-13.268220739675332
 11
-40.45157388934986
 21
-13.431636127202687
  0
LINE
  8
0
 10
-40.45157388934986
 20
-13.431636127202687
 11
-40.908075653704564
 21
-13.694550838968748
  0
LINE
  8
0
 10
-40.908075653704564
 20
-13.694550838968748
 11
-41.48049427509187
 21
-14.072974025696508
  0
LINE
  8
0
 10
-41.48049427509187
 20
-14.072974025696508
 11
-42.155835415286084
 21
-14.581841454668282
  0
LINE
  8
0
 10
-42.155835415286084
 20
-14.581841454668282
 11
-42.91972701393034
 21
-15.234896751461868
  0
LINE
  8
0
 10
-42.91972701393034
 20
-15.234896751461868
 11
-43.07508950167707
 21
-15.3852261466796
  0
LINE
  8
0
 10
-43.07508950167707
 20
-15.3852261466796
 11
-42.74137860641951
 21
-16.558098285438078
  0
LINE
  8
0
 10
-42.74137860641951
 20
-16.558098285438078
 11
-42.19783508335246
 21
-17.64968083111268
  0
LINE
  8
0
 10
-42.19783508335246
 20
-17.64968083111268
 11
-41.981744560836006
 21
-17.656108563517947
  0
LINE
  8
0
 10
-41.981744560836006
 20
-17.656108563517947
 11
-40.977261349137684
 21
-17.62409180906174
  0
LINE
  8
0
 10
-40.977261349137684
 20
-17.62409180906174
 11
-40.13535645427672
 21
-17.54517499263093
  0
LINE
  8
0
 10
-40.13535645427672
 20
-17.54517499263093
 11
-39.45739193633455
 21
-17.439197170534854
  0
LINE
  8
0
 10
-39.45739193633455
 20
-17.439197170534854
 11
-38.94290856578215
 21
-17.32595023703575
  0
LINE
  8
0
 10
-38.94290856578215
 20
-17.32595023703575
 11
-38.58963906304126
 21
-17.225030294441883
  0
LINE
  8
0
 10
-38.58963906304126
 20
-17.225030294441883
 11
-38.39353270275405
 21
-17.1556906132119
  0
LINE
  8
0
 10
-38.39353270275405
 20
-17.1556906132119
 11
-38.12437729586993
 21
-17.041429334019103
  0
LINE
  8
0
 10
-38.12437729586993
 20
-17.041429334019103
 11
-37.62818045542648
 21
-16.885075826518484
  0
LINE
  8
0
 10
-37.62818045542648
 20
-16.885075826518484
 11
-37.26293940156678
 21
-16.846026580176968
  0
LINE
  8
0
 10
-37.26293940156678
 20
-16.846026580176968
 11
-37.04068490085875
 21
-16.907237001172174
  0
LINE
  8
0
 10
-37.04068490085875
 20
-16.907237001172174
 11
-35.814266069112996
 21
-19.37021803876488
  0
LINE
  8
0
 10
-35.814266069112996
 20
-19.37021803876488
 11
-35.89935735888712
 21
-19.584468478970066
  0
LINE
  8
0
 10
-35.89935735888712
 20
-19.584468478970066
 11
-36.15062623986399
 21
-19.85240470368988
  0
LINE
  8
0
 10
-36.15062623986399
 20
-19.85240470368988
 11
-36.5744244349082
 21
-20.154154291346426
  0
LINE
  8
0
 10
-36.5744244349082
 20
-20.154154291346426
 11
-36.82780927487266
 21
-20.30008713841727
  0
LINE
  8
0
 10
-36.82780927487266
 20
-20.30008713841727
 11
-37.00132402015118
 21
-20.414796898720702
  0
LINE
  8
0
 10
-37.00132402015118
 20
-20.414796898720702
 11
-37.2947523112455
 21
-20.635894194872108
  0
LINE
  8
0
 10
-37.2947523112455
 20
-20.635894194872108
 11
-37.69517081405052
 21
-20.978214263131882
  0
LINE
  8
0
 10
-37.69517081405052
 20
-20.978214263131882
 11
-38.188307842540546
 21
-21.45537572165107
  0
LINE
  8
0
 10
-38.188307842540546
 20
-21.45537572165107
 11
-38.75864587175519
 21
-22.07967232450801
  0
LINE
  8
0
 10
-38.75864587175519
 20
-22.07967232450801
 11
-39.389532168403655
 21
-22.861972826777205
  0
LINE
  8
0
 10
-39.389532168403655
 20
-22.861972826777205
 11
-39.51462636067369
 21
-23.038290360578205
  0
LINE
  8
0
 10
-39.51462636067369
 20
-23.038290360578205
 11
-38.97108283760671
 21
-24.129872906252807
  0
LINE
  8
0
 10
-38.97108283760671
 20
-24.129872906252807
 11
-38.236216409499754
 21
-25.10299332445954
  0
LINE
  8
0
 10
-38.236216409499754
 20
-25.10299332445954
 11
-38.02262414603932
 21
-25.069605083188755
  0
LINE
  8
0
 10
-38.02262414603932
 20
-25.069605083188755
 11
-37.04112723304916
 21
-24.853560169014713
  0
LINE
  8
0
 10
-37.04112723304916
 20
-24.853560169014713
 11
-36.2280582958754
 21
-24.621287442872426
  0
LINE
  8
0
 10
-36.2280582958754
 20
-24.621287442872426
 11
-35.58111078590749
 21
-24.392538441320276
  0
LINE
  8
0
 10
-35.58111078590749
 20
-24.392538441320276
 11
-35.096196541844435
 21
-24.18668368080532
  0
LINE
  8
0
 10
-35.096196541844435
 20
-24.18668368080532
 11
-34.76748611450114
 21
-24.02256899122596
  0
LINE
  8
0
 10
-34.76748611450114
 20
-24.02256899122596
 11
-34.587459970653455
 21
-23.918375500692694
  0
LINE
  8
0
 10
-34.587459970653455
 20
-23.918375500692694
 11
-34.34388290100867
 21
-23.756602560678026
  0
LINE
  8
0
 10
-34.34388290100867
 20
-23.756602560678026
 11
-33.88486463631678
 21
-23.511735338590103
  0
LINE
  8
0
 10
-33.88486463631678
 20
-23.511735338590103
 11
-33.533017785658856
 21
-23.406238112339928
  0
LINE
  8
0
 10
-33.533017785658856
 20
-23.406238112339928
 11
-33.30330020483596
 21
-23.42556715226088
  0
LINE
  8
0
 10
-33.30330020483596
 20
-23.42556715226088
 11
-31.645191906235112
 21
-25.621257388271605
  0
LINE
  8
0
 10
-31.645191906235112
 20
-25.621257388271605
 11
-31.689465940020796
 21
-25.84749529105513
  0
LINE
  8
0
 10
-31.689465940020796
 20
-25.84749529105513
 11
-31.887223338710875
 21
-26.157039928107373
  0
LINE
  8
0
 10
-31.887223338710875
 20
-26.157039928107373
 11
-32.24835922290069
 21
-26.531524369605375
  0
LINE
  8
0
 10
-32.24835922290069
 20
-26.531524369605375
 11
-32.47061461417059
 21
-26.721531774801797
  0
LINE
  8
0
 10
-32.47061461417059
 20
-26.721531774801797
 11
-32.62009707803328
 21
-26.86617163423025
  0
LINE
  8
0
 10
-32.62009707803328
 20
-26.86617163423025
 11
-32.867902673306844
 21
-27.137421635762248
  0
LINE
  8
0
 10
-32.867902673306844
 20
-27.137421635762248
 11
-33.198602142698206
 21
-27.547489761158822
  0
LINE
  8
0
 10
-33.198602142698206
 20
-27.547489761158822
 11
-33.595664388238404
 21
-28.107140330291656
  0
LINE
  8
0
 10
-33.595664388238404
 20
-28.107140330291656
 11
-34.04157712893365
 21
-28.825606434984717
  0
LINE
  8
0
 10
-34.04157712893365
 20
-28.825606434984717
 11
-34.51797404741866
 21
-29.71051183739078
  0
LINE
  8
0
 10
-34.51797404741866
 20
-29.71051183739078
 11
-34.60854001152828
 21
-29.90681322763107
  0
LINE
  8
0
 10
-34.60854001152828
 20
-29.90681322763107
 11
-33.87367358342133
 21
-30.87993364583781
  0
LINE
  8
0
 10
-33.87367358342133
 20
-30.87993364583781
 11
-32.97250924510839
 21
-31.701453487863912
  0
LINE
  8
0
 10
-32.97250924510839
 20
-31.701453487863912
 11
-32.768688869060455
 21
-31.629386269428775
  0
LINE
  8
0
 10
-32.768688869060455
 20
-31.629386269428775
 11
-31.843601954974535
 21
-31.236670345971778
  0
LINE
  8
0
 10
-31.843601954974535
 20
-31.236670345971778
 11
-31.08705706297474
 21
-30.85895147922635
  0
LINE
  8
0
 10
-31.08705706297474
 20
-30.85895147922635
 11
-30.49315758250503
 21
-30.515221071111803
  0
LINE
  8
0
 10
-30.49315758250503
 20
-30.515221071111803
 11
-30.054325637922364
 21
-30.223768620554754
  0
LINE
  8
0
 10
-30.054325637922364
 20
-30.223768620554754
 11
-29.76136812533512
 21
-30.002047912909664
  0
LINE
  8
0
 10
-29.76136812533512
 20
-30.002047912909664
 11
-29.603552772338134
 21
-29.866548797426905
  0
LINE
  8
0
 10
-29.603552772338134
 20
-29.866548797426905
 11
-29.393848764900945
 21
-29.662773180037306
  0
LINE
  8
0
 10
-29.393848764900945
 20
-29.662773180037306
 11
-28.987640392432972
 21
-29.33773090292442
  0
LINE
  8
0
 10
-28.987640392432972
 20
-29.33773090292442
 11
-28.66116946748219
 21
-29.169378278275556
  0
LINE
  8
0
 10
-28.66116946748219
 20
-29.169378278275556
 11
-28.431811563243492
 21
-29.146167709850374
  0
LINE
  8
0
 10
-28.431811563243492
 20
-29.146167709850374
 11
-26.398478687214684
 21
-30.999795546731956
  0
LINE
  8
0
 10
-26.398478687214684
 20
-30.999795546731956
 11
-26.400427765892207
 21
-31.230316651656974
  0
LINE
  8
0
 10
-26.400427765892207
 20
-31.230316651656974
 11
-26.537939291266966
 21
-31.570928529684707
  0
LINE
  8
0
 10
-26.537939291266966
 20
-31.570928529684707
 11
-26.824114815201046
 21
-32.005395206513526
  0
LINE
  8
0
 10
-26.824114815201046
 20
-32.005395206513526
 11
-27.007672116992666
 21
-32.23300669554033
  0
LINE
  8
0
 10
-27.007672116992666
 20
-32.23300669554033
 11
-27.128031853417117
 21
-32.40265111715736
  0
LINE
  8
0
 10
-27.128031853417117
 20
-32.40265111715736
 11
-27.32177603053294
 21
-32.714816730596304
  0
LINE
  8
0
 10
-27.32177603053294
 20
-32.714816730596304
 11
-27.571494892710827
 21
-33.17866853494179
  0
LINE
  8
0
 10
-27.571494892710827
 20
-33.17866853494179
 11
-27.858960876752995
 21
-33.80174998578333
  0
LINE
  8
0
 10
-27.858960876752995
 20
-33.80174998578333
 11
-28.165263305357847
 21
-34.58991909082231
  0
LINE
  8
0
 10
-28.165263305357847
 20
-34.58991909082231
 11
-28.470947719995525
 21
-35.54729500121334
  0
LINE
  8
0
 10
-28.470947719995525
 20
-35.54729500121334
 11
-28.52390134065881
 21
-35.756895439485824
  0
LINE
  8
0
 10
-28.52390134065881
 20
-35.756895439485824
 11
-27.622737002345936
 21
-36.57841528151196
  0
LINE
  8
0
 10
-27.622737002345936
 20
-36.57841528151196
 11
-26.585962824540864
 21
-37.22035867444171
  0
LINE
  8
0
 10
-26.585962824540864
 20
-37.22035867444171
 11
-26.39885519435612
 21
-37.11206664153092
  0
LINE
  8
0
 10
-26.39885519435612
 20
-37.11206664153092
 11
-25.56168100451418
 21
-36.55605317855347
  0
LINE
  8
0
 10
-25.56168100451418
 20
-36.55605317855347
 11
-24.88742338660981
 21
-36.04575093418807
  0
LINE
  8
0
 10
-24.88742338660981
 20
-36.04575093418807
 11
-24.36679647014179
 21
-35.59874444630029
  0
LINE
  8
0
 10
-24.36679647014179
 20
-35.59874444630029
 11
-23.988990720591364
 21
-35.231619369346184
  0
LINE
  8
0
 10
-23.988990720591364
 20
-35.231619369346184
 11
-23.741762439487534
 21
-34.959843076409534
  0
LINE
  8
0
 10
-23.741762439487534
 20
-34.959843076409534
 11
-23.611532089908906
 21
-34.79765259584176
  0
LINE
  8
0
 10
-23.611532089908906
 20
-34.79765259584176
 11
-23.442842363140347
 21
-34.55881363532552
  0
LINE
  8
0
 10
-23.442842363140347
 20
-34.55881363532552
 11
-23.103276821827446
 21
-34.16466522808952
  0
LINE
  8
0
 10
-23.103276821827446
 20
-34.16466522808952
 11
-22.813299398374287
 21
-33.939190251757665
  0
LINE
  8
0
 10
-22.813299398374287
 20
-33.939190251757665
 11
-22.592111679064146
 21
-33.87423048305605
  0
LINE
  8
0
 10
-22.592111679064146
 20
-33.87423048305605
 11
-20.252796937986563
 21
-35.322672848005034
  0
LINE
  8
0
 10
-20.252796937986563
 20
-35.322672848005034
 11
-20.212354688019218
 21
-35.54962703532292
  0
LINE
  8
0
 10
-20.212354688019218
 20
-35.54962703532292
 11
-20.28493755000891
 21
-35.90970702533883
  0
LINE
  8
0
 10
-20.28493755000891
 20
-35.90970702533883
 11
-20.486407349449397
 21
-36.389360695904415
  0
LINE
  8
0
 10
-20.486407349449397
 20
-36.389360695904415
 11
-20.62501573800293
 21
-36.646825232492674
  0
LINE
  8
0
 10
-20.62501573800293
 20
-36.646825232492674
 11
-20.71215404052081
 21
-36.83569717898618
  0
LINE
  8
0
 10
-20.71215404052081
 20
-36.83569717898618
 11
-20.84523907389774
 21
-37.17814797876778
  0
LINE
  8
0
 10
-20.84523907389774
 20
-37.17814797876778
 11
-21.005473452515442
 21
-37.67998754519413
  0
LINE
  8
0
 10
-21.005473452515442
 20
-37.67998754519413
 11
-21.173553865750478
 21
-38.34528158623979
  0
LINE
  8
0
 10
-21.173553865750478
 20
-38.34528158623979
 11
-21.329815220428063
 21
-39.17631353805723
  0
LINE
  8
0
 10
-21.329815220428063
 20
-39.17631353805723
 11
-21.454377415105967
 21
-40.17355766805072
  0
LINE
  8
0
 10
-21.454377415105967
 20
-40.17355766805072
 11
-21.467915420282125
 21
-40.389319462818
  0
LINE
  8
0
 10
-21.467915420282125
 20
-40.389319462818
 11
-20.43114124247707
 21
-41.031262855747784
  0
LINE
  8
0
 10
-20.43114124247707
 20
-41.031262855747784
 11
-19.294063326331454
 21
-41.47176918726125
  0
LINE
  8
0
 10
-19.294063326331454
 20
-41.47176918726125
 11
-19.130040167944962
 21
-41.33094009517359
  0
LINE
  8
0
 10
-19.130040167944962
 20
-41.33094009517359
 11
-18.4092876653023
 21
-40.63056346429273
  0
LINE
  8
0
 10
-18.4092876653023
 20
-40.63056346429273
 11
-17.840278355988215
 21
-40.005055573199144
  0
LINE
  8
0
 10
-17.840278355988215
 20
-40.005055573199144
 11
-17.410653328739027
 21
-39.469995275357945
  0
LINE
  8
0
 10
-17.410653328739027
 20
-39.469995275357945
 11
-17.106739495893734
 21
-39.03969957618446
  0
LINE
  8
0
 10
-17.106739495893734
 20
-39.03969957618446
 11
-16.913659508868665
 21
-38.72712271365247
  0
LINE
  8
0
 10
-16.913659508868665
 20
-38.72712271365247
 11
-16.815449001069208
 21
-38.5437640702894
  0
LINE
  8
0
 10
-16.815449001069208
 20
-38.5437640702894
 11
-16.69351808129336
 21
-38.27799514099114
  0
LINE
  8
0
 10
-16.69351808129336
 20
-38.27799514099114
 11
-16.432158868380956
 21
-37.82816285491151
  0
LINE
  8
0
 10
-16.432158868380956
 20
-37.82816285491151
 11
-16.188549779791533
 21
-37.55324380678823
  0
LINE
  8
0
 10
-16.188549779791533
 20
-37.55324380678823
 11
-15.983064527905631
 21
-37.448746964822675
  0
LINE
  8
0
 10
-15.983064527905631
 20
-37.448746964822675
 11
-13.41743047958789
 21
-38.442678890315854
  0
LINE
  8
0
 10
-13.41743047958789
 20
-38.442678890315854
 11
-13.335974113293185
 21
-38.65833750737904
  0
LINE
  8
0
 10
-13.335974113293185
 20
-38.65833750737904
 11
-13.341156589586301
 21
-39.025623517191484
  0
LINE
  8
0
 10
-13.341156589586301
 20
-39.025623517191484
 11
-13.451059852149635
 21
-39.53413015102388
  0
LINE
  8
0
 10
-13.451059852149635
 20
-39.53413015102388
 11
-13.539999185035333
 21
-39.81268008917477
  0
LINE
  8
0
 10
-13.539999185035333
 20
-39.81268008917477
 11
-13.590948663265271
 21
-40.01434775293384
  0
LINE
  8
0
 10
-13.590948663265271
 20
-40.01434775293384
 11
-13.65884250170956
 21
-40.375421987796
  0
LINE
  8
0
 10
-13.65884250170956
 20
-40.375421987796
 11
-13.724135807183206
 21
-40.89815977175877
  0
LINE
  8
0
 10
-13.724135807183206
 20
-40.89815977175877
 11
-13.767106872728618
 21
-41.58301061237301
  0
LINE
  8
0
 10
-13.767106872728618
 20
-41.58301061237301
 11
-13.768005860460235
 21
-42.42860561456272
  0
LINE
  8
0
 10
-13.768005860460235
 20
-42.42860561456272
 11
-13.707204019034496
 21
-43.431758011374235
  0
LINE
  8
0
 10
-13.707204019034496
 20
-43.431758011374235
 11
-13.680865388194327
 21
-43.64633365349336
  0
LINE
  8
0
 10
-13.680865388194327
 20
-43.64633365349336
 11
-12.543787472048725
 21
-44.086839985006776
  0
LINE
  8
0
 10
-12.543787472048725
 20
-44.086839985006776
 11
-11.345127642222183
 21
-44.31090834031327
  0
LINE
  8
0
 10
-11.345127642222183
 20
-44.31090834031327
 11
-11.209774567568731
 21
-44.14233795487395
  0
LINE
  8
0
 10
-11.209774567568731
 20
-44.14233795487395
 11
-10.6299881141555
 21
-43.321448642245144
  0
LINE
  8
0
 10
-10.6299881141555
 20
-43.321448642245144
 11
-10.18560404300894
 21
-42.60203602544054
  0
LINE
  8
0
 10
-10.18560404300894
 20
-42.60203602544054
 11
-9.861611270003136
 21
-41.99714275435481
  0
LINE
  8
0
 10
-9.861611270003136
 20
-41.99714275435481
 11
-9.641938774936056
 21
-41.518329636914494
  0
LINE
  8
0
 10
-9.641938774936056
 20
-41.518329636914494
 11
-9.509582189373965
 21
-41.17559663494607
  0
LINE
  8
0
 10
-9.509582189373965
 20
-41.17559663494607
 11
-9.446735964406267
 21
-40.97731388747296
  0
LINE
  8
0
 10
-9.446735964406267
 20
-40.97731388747296
 11
-9.375716062856073
 21
-40.69366543152523
  0
LINE
  8
0
 10
-9.375716062856073
 20
-40.69366543152523
 11
-9.201463452874082
 21
-40.203467765590084
  0
LINE
  8
0
 10
-9.201463452874082
 20
-40.203467765590084
 11
-9.012518514483409
 21
-39.88846668413015
  0
LINE
  8
0
 10
-9.012518514483409
 20
-39.88846668413015
 11
-8.82973328382232
 21
-39.74799128352364
  0
LINE
  8
0
 10
-8.82973328382232
 20
-39.74799128352364
 11
-6.125149518641003
 21
-40.253565609928295
  0
LINE
  8
0
 10
-6.125149518641003
 20
-40.253565609928295
 11
-6.0054529348769625
 21
-40.4505846611867
  0
LINE
  8
0
 10
-6.0054529348769625
 20
-40.4505846611867
 11
-5.943058542459037
 21
-40.81256920624252
  0
LINE
  8
0
 10
-5.943058542459037
 20
-40.81256920624252
 11
-5.95765264435306
 21
-41.332612219813065
  0
LINE
  8
0
 10
-5.95765264435306
 20
-41.332612219813065
 11
-5.993894199260473
 21
-41.62276187546668
  0
LINE
  8
0
 10
-5.993894199260473
 20
-41.62276187546668
 11
-6.006919829828511
 21
-41.830357706075695
  0
LINE
  8
0
 10
-6.006919829828511
 20
-41.830357706075695
 11
-6.00731043010162
 21
-42.197759426011004
  0
LINE
  8
0
 10
-6.00731043010162
 20
-42.197759426011004
 11
-5.975439177223997
 21
-42.72359421923222
  0
LINE
  8
0
 10
-5.975439177223997
 20
-42.72359421923222
 11
-5.891837566980754
 21
-43.40468008542595
  0
LINE
  8
0
 10
-5.891837566980754
 20
-43.40468008542595
 11
-5.737343573817417
 21
-44.2360424143678
  0
LINE
  8
0
 10
-5.737343573817417
 20
-44.2360424143678
 11
-5.493248230074016
 21
-45.2109419262726
  0
LINE
  8
0
 10
-5.493248230074016
 20
-45.2109419262726
 11
-5.427929893701055
 21
-45.417024299606254
  0
LINE
  8
0
 10
-5.427929893701055
 20
-45.417024299606254
 11
-4.229270063874522
 21
-45.64109265491277
  0
LINE
  8
0
 10
-4.229270063874522
 20
-45.64109265491277
 11
-3.0098472432378323
 21
-45.64109265491277
  0
LINE
  8
0
 10
-3.0098472432378323
 20
-45.64109265491277
 11
-2.9077735389366106
 21
-45.45052143842
  0
LINE
  8
0
 10
-2.9077735389366106
 20
-45.45052143842
 11
-2.488697067046589
 21
-44.53707384503661
  0
LINE
  8
0
 10
-2.488697067046589
 20
-44.53707384503661
 11
-2.1840712006305054
 21
-43.74825523634593
  0
LINE
  8
0
 10
-2.1840712006305054
 20
-43.74825523634593
 11
-1.9767438671662978
 21
-43.094127906873
  0
LINE
  8
0
 10
-1.9767438671662978
 20
-43.094127906873
 11
-1.8487933932288216
 21
-42.58310277760724
  0
LINE
  8
0
 10
-1.8487933932288216
 20
-42.58310277760724
 11
-1.781667453906799
 21
-42.221884997521485
  0
LINE
  8
0
 10
-1.781667453906799
 20
-42.221884997521485
 11
-1.756325664586397
 21
-42.0154304270896
  0
LINE
  8
0
 10
-1.756325664586397
 20
-42.0154304270896
 11
-1.7386352788301678
 21
-41.723561752460874
  0
LINE
  8
0
 10
-1.7386352788301678
 20
-41.723561752460874
 11
-1.6574232354185525
 21
-41.209691800256316
  0
LINE
  8
0
 10
-1.6574232354185525
 20
-41.209691800256316
 11
-1.52957674048905
 21
-40.865335669486704
  0
LINE
  8
0
 10
-1.52957674048905
 20
-40.865335669486704
 11
-1.3757160628562175
 21
-40.69366543152522
  0
LINE
  8
0
 10
-1.3757160628562175
 20
-40.69366543152522
 11
1.375716062856111
 21
-40.69366543152521
  0
LINE
  8
0
 10
1.375716062856111
 20
-40.69366543152521
 11
1.5295767404896339
 21
-40.86533566948653
  0
LINE
  8
0
 10
1.5295767404896339
 20
-40.86533566948653
 11
1.6574232354186333
 21
-41.20969180025647
  0
LINE
  8
0
 10
1.6574232354186333
 20
-41.20969180025647
 11
1.7386352788302264
 21
-41.72356175246085
  0
LINE
  8
0
 10
1.7386352788302264
 20
-41.72356175246085
 11
1.7563256645865186
 21
-42.01543042709006
  0
LINE
  8
0
 10
1.7563256645865186
 20
-42.01543042709006
 11
1.781667453906854
 21
-42.22188499752139
  0
LINE
  8
0
 10
1.781667453906854
 20
-42.22188499752139
 11
1.8487933932287506
 21
-42.583102777607245
  0
LINE
  8
0
 10
1.8487933932287506
 20
-42.583102777607245
 11
1.9767438671662507
 21
-43.09412790687307
  0
LINE
  8
0
 10
1.9767438671662507
 20
-43.09412790687307
 11
2.1840712006303975
 21
-43.748255236345535
  0
LINE
  8
0
 10
2.1840712006303975
 20
-43.748255236345535
 11
2.488697067046632
 21
-44.53707384503661
  0
LINE
  8
0
 10
2.488697067046632
 20
-44.53707384503661
 11
2.9077735389366084
 21
-45.45052143841989
  0
LINE
  8
0
 10
2.9077735389366084
 20
-45.45052143841989
 11
3.0098472432378833
 21
-45.64109265491274
  0
LINE
  8
0
 10
3.0098472432378833
 20
-45.64109265491274
 11
4.229270063874533
 21
-45.64109265491273
  0
LINE
  8
0
 10
4.229270063874533
 20
-45.64109265491273
 11
5.427929893701069
 21
-45.41702429960626
  0
LINE
  8
0
 10
5.427929893701069
 20
-45.41702429960626
 11
5.493248230073995
 21
-45.21094192627272
  0
LINE
  8
0
 10
5.493248230073995
 20
-45.21094192627272
 11
5.73734357381742
 21
-44.236042414367795
  0
LINE
  8
0
 10
5.73734357381742
 20
-44.236042414367795
 11
5.8918375669806835
 21
-43.40468008542637
  0
LINE
  8
0
 10
5.8918375669806835
 20
-43.40468008542637
 11
5.975439177223899
 21
-42.723594219232155
  0
LINE
  8
0
 10
5.975439177223899
 20
-42.723594219232155
 11
6.007310430101511
 21
-42.19775942601102
  0
LINE
  8
0
 10
6.007310430101511
 20
-42.19775942601102
 11
6.006919829828544
 21
-41.83035770607577
  0
LINE
  8
0
 10
6.006919829828544
 20
-41.83035770607577
 11
5.9938941992604695
 21
-41.622761875466196
  0
LINE
  8
0
 10
5.9938941992604695
 20
-41.622761875466196
 11
5.957652644353085
 21
-41.33261221981308
  0
LINE
  8
0
 10
5.957652644353085
 20
-41.33261221981308
 11
5.943058542459053
 21
-40.812569206242365
  0
LINE
  8
0
 10
5.943058542459053
 20
-40.812569206242365
 11
6.005452934877532
 21
-40.45058466118677
  0
LINE
  8
0
 10
6.005452934877532
 20
-40.45058466118677
 11
6.125149518640865
 21
-40.25356560992832
  0
LINE
  8
0
 10
6.125149518640865
 20
-40.25356560992832
 11
8.829733283822177
 21
-39.74799128352366
  0
LINE
  8
0
 10
8.829733283822177
 20
-39.74799128352366
 11
9.012518514483915
 21
-39.88846668412988
  0
LINE
  8
0
 10
9.012518514483915
 20
-39.88846668412988
 11
9.201463452874151
 21
-40.203467765590226
  0
LINE
  8
0
 10
9.201463452874151
 20
-40.203467765590226
 11
9.375716062856089
 21
-40.693665431525204
  0
LINE
  8
0
 10
9.375716062856089
 20
-40.693665431525204
 11
9.446735964406434
 21
-40.9773138874734
  0
LINE
  8
0
 10
9.446735964406434
 20
-40.9773138874734
 11
9.509582189373964
 21
-41.175596634945975
  0
LINE
  8
0
 10
9.509582189373964
 20
-41.175596634945975
 11
9.64193877493595
 21
-41.518329636914515
  0
LINE
  8
0
 10
9.64193877493595
 20
-41.518329636914515
 11
9.861611270003063
 21
-41.997142754354904
  0
LINE
  8
0
 10
9.861611270003063
 20
-41.997142754354904
 11
10.18560404300872
 21
-42.602036025440164
  0
LINE
  8
0
 10
10.18560404300872
 20
-42.602036025440164
 11
10.629988114155502
 21
-43.321448642245144
  0
LINE
  8
0
 10
10.629988114155502
 20
-43.321448642245144
 11
11.20977456756867
 21
-44.142337954873845
  0
LINE
  8
0
 10
11.20977456756867
 20
-44.142337954873845
 11
11.34512764222219
 21
-44.31090834031324
  0
LINE
  8
0
 10
11.34512764222219
 20
-44.31090834031324
 11
12.54378747204868
 21
-44.086839985006726
  0
LINE
  8
0
 10
12.54378747204868
 20
-44.086839985006726
 11
13.680865388194343
 21
-43.64633365349335
  0
LINE
  8
0
 10
13.680865388194343
 20
-43.64633365349335
 11
13.707204019034494
 21
-43.431758011374356
  0
LINE
  8
0
 10
13.707204019034494
 20
-43.431758011374356
 11
13.768005860460235
 21
-42.42860561456272
  0
LINE
  8
0
 10
13.768005860460235
 20
-42.42860561456272
 11
13.767106872728624
 21
-41.58301061237343
  0
LINE
  8
0
 10
13.767106872728624
 20
-41.58301061237343
 11
13.724135807183098
 21
-40.898159771758735
  0
LINE
  8
0
 10
13.724135807183098
 20
-40.898159771758735
 11
13.658842501709453
 21
-40.37542198779603
  0
LINE
  8
0
 10
13.658842501709453
 20
-40.37542198779603
 11
13.590948663265317
 21
-40.01434775293391
  0
LINE
  8
0
 10
13.590948663265317
 20
-40.01434775293391
 11
13.53999918503524
 21
-39.81268008917431
  0
LINE
  8
0
 10
13.53999918503524
 20
-39.81268008917431
 11
13.451059852149662
 21
-39.534130151023895
  0
LINE
  8
0
 10
13.451059852149662
 20
-39.534130151023895
 11
13.341156589586285
 21
-39.02562351719132
  0
LINE
  8
0
 10
13.341156589586285
 20
-39.02562351719132
 11
13.335974113293755
 21
-38.658337507378995
  0
LINE
  8
0
 10
13.335974113293755
 20
-38.658337507378995
 11
13.417430479587756
 21
-38.442678890315904
  0
LINE
  8
0
 10
13.417430479587756
 20
-38.442678890315904
 11
15.983064527905496
 21
-37.44874696482272
  0
LINE
  8
0
 10
15.983064527905496
 20
-37.44874696482272
 11
16.188549779791984
 21
-37.553243806787876
  0
LINE
  8
0
 10
16.188549779791984
 20
-37.553243806787876
 11
16.432158868381055
 21
-37.82816285491164
  0
LINE
  8
0
 10
16.432158868381055
 20
-37.82816285491164
 11
16.693518081293373
 21
-38.2779951409911
  0
LINE
  8
0
 10
16.693518081293373
 20
-38.2779951409911
 11
16.815449001069457
 21
-38.543764070289804
  0
LINE
  8
0
 10
16.815449001069457
 20
-38.543764070289804
 11
16.91365950886865
 21
-38.72712271365238
  0
LINE
  8
0
 10
16.91365950886865
 20
-38.72712271365238
 11
17.10673949589364
 21
-39.03969957618451
  0
LINE
  8
0
 10
17.10673949589364
 20
-39.03969957618451
 11
17.410653328738974
 21
-39.469995275358045
  0
LINE
  8
0
 10
17.410653328738974
 20
-39.469995275358045
 11
17.840278355987934
 21
-40.005055573198824
  0
LINE
  8
0
 10
17.840278355987934
 20
-40.005055573198824
 11
18.40928766530231
 21
-40.63056346429273
  0
LINE
  8
0
 10
18.40928766530231
 20
-40.63056346429273
 11
19.130040167944884
 21
-41.3309400951735
  0
LINE
  8
0
 10
19.130040167944884
 20
-41.3309400951735
 11
19.294063326331454
 21
-41.47176918726122
  0
LINE
  8
0
 10
19.294063326331454
 20
-41.47176918726122
 11
20.431141242477132
 21
-41.03126285574777
  0
LINE
  8
0
 10
20.431141242477132
 20
-41.03126285574777
 11
21.467915420282203
 21
-40.38931946281803
  0
LINE
  8
0
 10
21.467915420282203
 20
-40.38931946281803
 11
21.454377415106027
 21
-40.17355766805081
  0
LINE
  8
0
 10
21.454377415106027
 20
-40.17355766805081
 11
21.3298152204281
 21
-39.1763135380572
  0
LINE
  8
0
 10
21.3298152204281
 20
-39.1763135380572
 11
21.1735538657506
 21
-38.3452815862402
  0
LINE
  8
0
 10
21.1735538657506
 20
-38.3452815862402
 11
21.005473452515368
 21
-37.679987545194095
  0
LINE
  8
0
 10
21.005473452515368
 20
-37.679987545194095
 11
20.84523907389768
 21
-37.17814797876781
  0
LINE
  8
0
 10
20.84523907389768
 20
-37.17814797876781
 11
20.712154040520907
 21
-36.83569717898622
  0
LINE
  8
0
 10
20.712154040520907
 20
-36.83569717898622
 11
20.62501573800279
 21
-36.64682523249222
  0
LINE
  8
0
 10
20.62501573800279
 20
-36.64682523249222
 11
20.48640734944946
 21
-36.38936069590441
  0
LINE
  8
0
 10
20.48640734944946
 20
-36.38936069590441
 11
20.2849375500089
 21
-35.90970702533866
  0
LINE
  8
0
 10
20.2849375500089
 20
-35.90970702533866
 11
20.212354688019808
 21
-35.549627035322764
  0
LINE
  8
0
 10
20.212354688019808
 20
-35.549627035322764
 11
20.252796937986478
 21
-35.3226728480051
  0
LINE
  8
0
 10
20.252796937986478
 20
-35.3226728480051
 11
22.592111679064054
 21
-33.87423048305612
  0
LINE
  8
0
 10
22.592111679064054
 20
-33.87423048305612
 11
22.813299398374692
 21
-33.93919025175722
  0
LINE
  8
0
 10
22.813299398374692
 20
-33.93919025175722
 11
23.103276821827595
 21
-34.1646652280896
  0
LINE
  8
0
 10
23.103276821827595
 20
-34.1646652280896
 11
23.442842363140386
 21
-34.55881363532548
  0
LINE
  8
0
 10
23.442842363140386
 20
-34.55881363532548
 11
23.611532089909254
 21
-34.7976525958421
  0
LINE
  8
0
 10
23.611532089909254
 20
-34.7976525958421
 11
23.741762439487534
 21
-34.95984307640943
  0
LINE
  8
0
 10
23.741762439487534
 20
-34.95984307640943
 11
23.988990720591307
 21
-35.23161936934623
  0
LINE
  8
0
 10
23.988990720591307
 20
-35.23161936934623
 11
24.366796470141786
 21
-35.59874444630037
  0
LINE
  8
0
 10
24.366796470141786
 20
-35.59874444630037
 11
24.887423386609505
 21
-36.045750934187794
  0
LINE
  8
0
 10
24.887423386609505
 20
-36.045750934187794
 11
25.56168100451422
 21
-36.55605317855345
  0
LINE
  8
0
 10
25.56168100451422
 20
-36.55605317855345
 11
26.398855194356063
 21
-37.11206664153083
  0
LINE
  8
0
 10
26.398855194356063
 20
-37.11206664153083
 11
26.585962824540935
 21
-37.22035867444173
  0
LINE
  8
0
 10
26.585962824540935
 20
-37.22035867444173
 11
27.62273700234596
 21
-36.578415281511965
  0
LINE
  8
0
 10
27.62273700234596
 20
-36.578415281511965
 11
28.523901340658824
 21
-35.75689543948579
  0
LINE
  8
0
 10
28.523901340658824
 20
-35.75689543948579
 11
28.470947719995564
 21
-35.547295001213456
  0
LINE
  8
0
 10
28.470947719995564
 20
-35.547295001213456
 11
28.165263305357847
 21
-34.589919090822306
  0
LINE
  8
0
 10
28.165263305357847
 20
-34.589919090822306
 11
27.85896087675316
 21
-33.80174998578373
  0
LINE
  8
0
 10
27.85896087675316
 20
-33.80174998578373
 11
27.571494892710714
 21
-33.1786685349418
  0
LINE
  8
0
 10
27.571494892710714
 20
-33.1786685349418
 11
27.321776030532856
 21
-32.71481673059637
  0
LINE
  8
0
 10
27.321776030532856
 20
-32.71481673059637
 11
27.12803185341719
 21
-32.40265111715742
  0
LINE
  8
0
 10
27.12803185341719
 20
-32.40265111715742
 11
27.007672116992413
 21
-32.23300669553993
  0
LINE
  8
0
 10
27.007672116992413
 20
-32.23300669553993
 11
26.824114815201078
 21
-32.005395206513526
  0
LINE
  8
0
 10
26.824114815201078
 20
-32.005395206513526
 11
26.5379392912669
 21
-31.570928529684565
  0
LINE
  8
0
 10
26.5379392912669
 20
-31.570928529684565
 11
26.40042776589273
 21
-31.23031665165673
  0
LINE
  8
0
 10
26.40042776589273
 20
-31.23031665165673
 11
26.39847868721459
 21
-30.99979554673205
  0
LINE
  8
0
 10
26.39847868721459
 20
-30.99979554673205
 11
28.431811563243386
 21
-29.146167709850467
  0
LINE
  8
0
 10
28.431811563243386
 20
-29.146167709850467
 11
28.661169467482484
 21
-29.16937827827506
  0
LINE
  8
0
 10
28.661169467482484
 20
-29.16937827827506
 11
28.98764039243311
 21
-29.337730902924502
  0
LINE
  8
0
 10
28.98764039243311
 20
-29.337730902924502
 11
29.39384876490095
 21
-29.662773180037266
  0
LINE
  8
0
 10
29.39384876490095
 20
-29.662773180037266
 11
29.603552772338514
 21
-29.866548797427185
  0
LINE
  8
0
 10
29.603552772338514
 20
-29.866548797427185
 11
29.76136812533508
 21
-30.002047912909585
  0
LINE
  8
0
 10
29.76136812533508
 20
-30.002047912909585
 11
30.054325637922293
 21
-30.223768620554832
  0
LINE
  8
0
 10
30.054325637922293
 20
-30.223768620554832
 11
30.493157582505017
 21
-30.51522107111191
  0
LINE
  8
0
 10
30.493157582505017
 20
-30.51522107111191
 11
31.087057062974356
 21
-30.858951479226146
  0
LINE
  8
0
 10
31.087057062974356
 20
-30.858951479226146
 11
31.843601954974545
 21
-31.236670345971774
  0
LINE
  8
0
 10
31.843601954974545
 20
-31.236670345971774
 11
32.76868886906035
 21
-31.629386269428714
  0
LINE
  8
0
 10
32.76868886906035
 20
-31.629386269428714
 11
32.972509245108434
 21
-31.70145348786392
  0
LINE
  8
0
 10
32.972509245108434
 20
-31.70145348786392
 11
33.873673583421315
 21
-30.87993364583779
  0
LINE
  8
0
 10
33.873673583421315
 20
-30.87993364583779
 11
34.60854001152827
 21
-29.906813227631037
  0
LINE
  8
0
 10
34.60854001152827
 20
-29.906813227631037
 11
34.517974047418726
 21
-29.71051183739087
  0
LINE
  8
0
 10
34.517974047418726
 20
-29.71051183739087
 11
34.04157712893365
 21
-28.82560643498471
  0
LINE
  8
0
 10
34.04157712893365
 20
-28.82560643498471
 11
33.59566438823863
 21
-28.10714033029201
  0
LINE
  8
0
 10
33.59566438823863
 20
-28.10714033029201
 11
33.19860214269809
 21
-27.54748976115884
  0
LINE
  8
0
 10
33.19860214269809
 20
-27.54748976115884
 11
32.86790267330677
 21
-27.137421635762326
  0
LINE
  8
0
 10
32.86790267330677
 20
-27.137421635762326
 11
32.62009707803335
 21
-26.866171634230287
  0
LINE
  8
0
 10
32.62009707803335
 20
-26.866171634230287
 11
32.470614614170266
 21
-26.721531774801445
  0
LINE
  8
0
 10
32.470614614170266
 20
-26.721531774801445
 11
32.24835922290072
 21
-26.531524369605364
  0
LINE
  8
0
 10
32.24835922290072
 20
-26.531524369605364
 11
31.887223338710776
 21
-26.157039928107245
  0
LINE
  8
0
 10
31.887223338710776
 20
-26.157039928107245
 11
31.68946594002126
 21
-25.847495291054788
  0
LINE
  8
0
 10
31.68946594002126
 20
-25.847495291054788
 11
31.645191906235024
 21
-25.621257388271715
  0
LINE
  8
0
 10
31.645191906235024
 20
-25.621257388271715
 11
33.30330020483587
 21
-23.425567152260985
  0
LINE
  8
0
 10
33.30330020483587
 20
-23.425567152260985
 11
33.53301778565905
 21
-23.406238112339384
  0
LINE
  8
0
 10
33.53301778565905
 20
-23.406238112339384
 11
33.88486463631693
 21
-23.511735338590157
  0
LINE
  8
0
 10
33.88486463631693
 20
-23.511735338590157
 11
34.34388290100866
 21
-23.75660256067799
  0
LINE
  8
0
 10
34.34388290100866
 20
-23.75660256067799
 11
34.58745997065387
 21
-23.918375500692907
  0
LINE
  8
0
 10
34.58745997065387
 20
-23.918375500692907
 11
34.76748611450108
 21
-24.02256899122589
  0
LINE
  8
0
 10
34.76748611450108
 20
-24.02256899122589
 11
35.096196541844385
 21
-24.18668368080541
  0
LINE
  8
0
 10
35.096196541844385
 20
-24.18668368080541
 11
35.5811107859075
 21
-24.392538441320387
  0
LINE
  8
0
 10
35.5811107859075
 20
-24.392538441320387
 11
36.22805829587499
 21
-24.621287442872294
  0
LINE
  8
0
 10
36.22805829587499
 20
-24.621287442872294
 11
37.04112723304916
 21
-24.85356016901471
  0
LINE
  8
0
 10
37.04112723304916
 20
-24.85356016901471
 11
38.022624146039206
 21
-25.06960508318872
  0
LINE
  8
0
 10
38.022624146039206
 20
-25.06960508318872
 11
38.23621640949977
 21
-25.10299332445954
  0
LINE
  8
0
 10
38.23621640949977
 20
-25.10299332445954
 11
38.9710828376067
 21
-24.129872906252835
  0
LINE
  8
0
 10
38.9710828376067
 20
-24.129872906252835
 11
39.51462636067363
 21
-23.03829036057818
  0
LINE
  8
0
 10
39.51462636067363
 20
-23.03829036057818
 11
39.389532168403726
 21
-22.861972826777308
  0
LINE
  8
0
 10
39.389532168403726
 20
-22.861972826777308
 11
38.75864587175518
 21
-22.07967232450802
  0
LINE
  8
0
 10
38.75864587175518
 20
-22.07967232450802
 11
38.18830784254082
 21
-21.455375721651397
  0
LINE
  8
0
 10
38.18830784254082
 20
-21.455375721651397
 11
37.69517081405041
 21
-20.97821426313194
  0
LINE
  8
0
 10
37.69517081405041
 20
-20.97821426313194
 11
37.29475231124544
 21
-20.635894194872215
  0
LINE
  8
0
 10
37.29475231124544
 20
-20.635894194872215
 11
37.00132402015126
 21
-20.414796898720738
  0
LINE
  8
0
 10
37.00132402015126
 20
-20.414796898720738
 11
36.827809274872266
 21
-20.300087138417
  0
LINE
  8
0
 10
36.827809274872266
 20
-20.300087138417
 11
36.57442443490822
 21
-20.154154291346426
  0
LINE
  8
0
 10
36.57442443490822
 20
-20.154154291346426
 11
36.15062623986387
 21
-19.85240470368979
  0
LINE
  8
0
 10
36.15062623986387
 20
-19.85240470368979
 11
35.89935735888751
 21
-19.58446847896967
  0
LINE
  8
0
 10
35.89935735888751
 20
-19.58446847896967
 11
35.81426606911292
 21
-19.37021803876502
  0
LINE
  8
0
 10
35.81426606911292
 20
-19.37021803876502
 11
37.04068490085868
 21
-16.907237001172316
  0
LINE
  8
0
 10
37.04068490085868
 20
-16.907237001172316
 11
37.26293940156687
 21
-16.846026580176417
  0
LINE
  8
0
 10
37.26293940156687
 20
-16.846026580176417
 11
37.62818045542663
 21
-16.885075826518527
  0
LINE
  8
0
 10
37.62818045542663
 20
-16.885075826518527
 11
38.12437729586991
 21
-17.04142933401909
  0
LINE
  8
0
 10
38.12437729586991
 20
-17.04142933401909
 11
38.39353270275449
 21
-17.155690613212045
  0
LINE
  8
0
 10
38.39353270275449
 20
-17.155690613212045
 11
38.58963906304118
 21
-17.22503029444184
  0
LINE
  8
0
 10
38.58963906304118
 20
-17.22503029444184
 11
38.9429085657821
 21
-17.32595023703587
  0
LINE
  8
0
 10
38.9429085657821
 20
-17.32595023703587
 11
39.457391936334574
 21
-17.439197170534978
  0
LINE
  8
0
 10
39.457391936334574
 20
-17.439197170534978
 11
40.135356454276284
 21
-17.5451749926309
  0
LINE
  8
0
 10
40.135356454276284
 20
-17.5451749926309
 11
40.977261349137684
 21
-17.624091809061756
  0
LINE
  8
0
 10
40.977261349137684
 20
-17.624091809061756
 11
41.98174456083589
 21
-17.65610856351795
  0
LINE
  8
0
 10
41.98174456083589
 20
-17.65610856351795
 11
42.197835083352494
 21
-17.6496808311127
  0
LINE
  8
0
 10
42.197835083352494
 20
-17.6496808311127
 11
42.74137860641949
 21
-16.55809828543813
  0
LINE
  8
0
 10
42.74137860641949
 20
-16.55809828543813
 11
43.07508950167705
 21
-15.385226146679631
  0
LINE
  8
0
 10
43.07508950167705
 20
-15.385226146679631
 11
42.91972701393043
 21
-15.234896751461976
  0
LINE
  8
0
 10
42.91972701393043
 20
-15.234896751461976
 11
42.15583541528607
 21
-14.581841454668314
  0
LINE
  8
0
 10
42.15583541528607
 20
-14.581841454668314
 11
41.4804942750922
 21
-14.072974025696796
  0
LINE
  8
0
 10
41.4804942750922
 20
-14.072974025696796
 11
40.90807565370446
 21
-13.69455083896885
  0
LINE
  8
0
 10
40.90807565370446
 20
-13.69455083896885
 11
40.45157388934981
 21
-13.431636127202827
  0
LINE
  8
0
 10
40.45157388934981
 20
-13.431636127202827
 11
40.12251525095964
 21
-13.268220739675373
  0
LINE
  8
0
 10
40.12251525095964
 20
-13.268220739675373
 11
39.93087706080722
 21
-13.187347381804692
  0
LINE
  8
0
 10
39.93087706080722
 20
-13.187347381804692
 11
39.65499148897203
 21
-13.09045866093946
  0
LINE
  8
0
 10
39.65499148897203
 20
-13.09045866093946
 11
39.18296292231558
 21
-12.871719647423204
  0
LINE
  8
0
 10
39.18296292231558
 20
-12.871719647423204
 11
38.88673921943023
 21
-12.654516081814178
  0
LINE
  8
0
 10
38.88673921943023
 20
-12.654516081814178
 11
38.76372835548481
 21
-12.459549145964047
  0
LINE
  8
0
 10
38.76372835548481
 20
-12.459549145964047
 11
39.51669349798764
 21
-9.81315117200443
  0
LINE
  8
0
 10
39.51669349798764
 20
-9.81315117200443
 11
39.723916308124124
 21
-9.712143817407442
  0
LINE
  8
0
 10
39.723916308124124
 20
-9.712143817407442
 11
40.09011371915493
 21
-9.68341530859112
  0
LINE
  8
0
 10
40.09011371915493
 20
-9.68341530859112
 11
40.60659174707098
 21
-9.74593067033184
  0
LINE
  8
0
 10
40.60659174707098
 20
-9.74593067033184
 11
40.8921597266298
 21
-9.808789257881221
  0
LINE
  8
0
 10
40.8921597266298
 20
-9.808789257881221
 11
41.09766813646007
 21
-9.840913850127327
  0
LINE
  8
0
 10
41.09766813646007
 20
-9.840913850127327
 11
41.46346654538283
 21
-9.875202338130958
  0
LINE
  8
0
 10
41.46346654538283
 20
-9.875202338130958
 11
41.989998928295286
 21
-9.891984956118614
  0
LINE
  8
0
 10
41.989998928295286
 20
-9.891984956118614
 11
42.67589318568152
 21
-9.871582651133458
  0
LINE
  8
0
 10
42.67589318568152
 20
-9.871582651133458
 11
43.51796397678927
 21
-9.794456140319484
  0
LINE
  8
0
 10
43.51796397678927
 20
-9.794456140319484
 11
44.511227016166075
 21
-9.64135444288473
  0
LINE
  8
0
 10
44.511227016166075
 20
-9.64135444288473
 11
44.7224570941664
 21
-9.595329625521241
  0
LINE
  8
0
 10
0.3118675362266391
 20
-1.4672214011007085
 11
9.18454765366783e-17
 21
-1.5
  0
LINE
  8
0
 10
9.18454765366783e-17
 20
-1.5
 11
-0.3118675362266384
 21
-1.4672214011007085
  0
LINE
  8
0
 10
-0.3118675362266384
 20
-1.4672214011007085
 11
-0.6101049646137001
 21
-1.3703181864639014
  0
LINE
  8
0
 10
-0.6101049646137001
 20
-1.3703181864639014
 11
-0.8816778784387099
 21
-1.213525491562421
  0
LINE
  8
0
 10
-0.8816778784387099
 20
-1.213525491562421
 11
-1.114717238216091
 21
-1.0036959095382878
  0
LINE
  8
0
 10
-1.114717238216091
 20
-1.0036959095382878
 11
-1.299038105676658
 21
-0.7500000000000003
  0
LINE
  8
0
 10
-1.299038105676658
 20
-0.7500000000000003
 11
-1.4265847744427305
 21
-0.46352549156242095
  0
LINE
  8
0
 10
-1.4265847744427305
 20
-0.46352549156242095
 11
-1.49178284305241
 21
-0.15679269490147957
  0
LINE
  8
0
 10
-1.49178284305241
 20
-0.15679269490147957
 11
-1.4917828430524098
 21
0.15679269490148126
  0
LINE
  8
0
 10
-1.4917828430524098
 20
0.15679269490148126
 11
-1.4265847744427302
 21
0.46352549156242123
  0
LINE
  8
0
 10
-1.4265847744427302
 20
0.46352549156242123
 11
-1.2990381056766576
 21
0.7500000000000006
  0
LINE
  8
0
 10
-1.2990381056766576
 20
0.7500000000000006
 11
-1.114717238216091
 21
1.0036959095382878
  0
LINE
  8
0
 10
-1.114717238216091
 20
1.0036959095382878
 11
-0.8816778784387097
 21
1.2135254915624214
  0
LINE
  8
0
 10
-0.8816778784387097
 20
1.2135254915624214
 11
-0.6101049646137005
 21
1.3703181864639014
  0
LINE
  8
0
 10
-0.6101049646137005
 20
1.3703181864639014
 11
-0.3118675362266387
 21
1.4672214011007085
  0
LINE
  8
0
 10
-0.3118675362266387
 20
1.4672214011007085
 11
7.579792913117722e-16
 21
1.5
  0
LINE
  8
0
 10
7.579792913117722e-16
 20
1.5
 11
0.3118675362266389
 21
1.4672214011007085
  0
LINE
  8
0
 10
0.3118675362266389
 20
1.4672214011007085
 11
0.6101049646136999
 21
1.3703181864639014
  0
LINE
  8
0
 10
0.6101049646136999
 20
1.3703181864639014
 11
0.8816778784387097
 21
1.213525491562421
  0
LINE
  8
0
 10
0.8816778784387097
 20
1.213525491562421
 11
1.1147172382160917
 21
1.003695909538287
  0
LINE
  8
0
 10
1.1147172382160917
 20
1.003695909538287
 11
1.299038105676658
 21
0.7499999999999998
  0
LINE
  8
0
 10
1.299038105676658
 20
0.7499999999999998
 11
1.4265847744427305
 21
0.4635254915624211
  0
LINE
  8
0
 10
1.4265847744427305
 20
0.4635254915624211
 11
1.49178284305241
 21
0.1567926949014801
  0
LINE
  8
0
 10
1.49178284305241
 20
0.1567926949014801
 11
1.4917828430524098
 21
-0.1567926949014801
  0
LINE
  8
0
 10
1.4917828430524098
 20
-0.1567926949014801
 11
1.4265847744427302
 21
-0.46352549156242107
  0
LINE
  8
0
 10
1.4265847744427302
 20
-0.46352549156242107
 11
1.299038105676658
 21
-0.7500000000000001
  0
LINE
  8
0
 10
1.299038105676658
 20
-0.7500000000000001
 11
1.1147172382160913
 21
-1.0036959095382874
  0
LINE
  8
0
 10
1.1147172382160913
 20
-1.0036959095382874
 11
0.8816778784387098
 21
-1.2135254915624212
  0
LINE
  8
0
 10
0.8816778784387098
 20
-1.2135254915624212
 11
0.6101049646137003
 21
-1.3703181864639014
  0
LINE
  8
0
 10
0.6101049646137003
 20
-1.3703181864639014
 11
0.3118675362266391
 21
-1.4672214011007085
  0
ENDSEC
  0
SECTION
  2
OBJECTS
  0
DICTIONARY
  0
ENDSEC
  0
EOF
