0
SECTION
2
HEADER
9
$ACADVER
1
AC1009
9
$INSBASE
10
0.0
20
0.0
30
0.0
9
$EXTMIN
10
0.0
20
0.0
9
$EXTMAX
10
0.0
20
0.0
0
ENDSEC
0
SECTION
2
TABLES
0
TABLE
2
LTYPE
70
1
0
LTYPE
2
CONTINUOUS
70
64
3
Solid line
72
65
73
0
40
0.0
0
ENDTAB
0
TABLE
2
LAYER
70
0
0
ENDTAB
0
TABLE
2
STYLE
70
1
0
STYLE
2
STANDARD
70
0
40
0
41
40
50
50
71
0
42
1
3
ARIAL.TTF
4

0
ENDTAB
0
TABLE
2
VIEW
70
0
0
ENDTAB
0
ENDSEC
0
SECTION
2
BLOCKS
0
ENDSEC
0
SECTION
2
ENTITIES
0
LINE
8
0
10
149.466348492
20
65.5946979003
11
149.672261675
21
66.8286679571
0
LINE
8
0
10
149.672261675
20
66.8286679571
11
149.741178254
21
68.0778007945
0
LINE
8
0
10
149.741178254
20
68.0778007945
11
149.314682296
21
68.2824700867
0
LINE
8
0
10
149.314682296
20
68.2824700867
11
148.525528741
21
68.6261020946
0
LINE
8
0
10
148.525528741
20
68.6261020946
11
147.812775325
21
68.9057881454
0
LINE
8
0
10
147.812775325
20
68.9057881454
11
147.179935443
21
69.1276521975
0
LINE
8
0
10
147.179935443
20
69.1276521975
11
146.630174051
21
69.2979855981
0
LINE
8
0
10
146.630174051
20
69.2979855981
11
146.166300278
21
69.4232296926
0
LINE
8
0
10
146.166300278
20
69.4232296926
11
145.790760837
21
69.5099581232
0
LINE
8
0
10
145.790760837
20
69.5099581232
11
145.395464385
21
69.5860719131
0
LINE
8
0
10
145.395464385
20
69.5860719131
11
145.096679454
21
69.670251777
0
LINE
8
0
10
145.096679454
20
69.670251777
11
144.899166471
21
69.7653508371
0
LINE
8
0
10
144.899166471
20
69.7653508371
11
144.803192068
21
69.8640421799
0
LINE
8
0
10
144.803192068
20
69.8640421799
11
144.954762302
21
72.6112963011
0
LINE
8
0
10
144.954762302
20
72.6112963011
11
145.061011064
21
72.698830681
0
LINE
8
0
10
145.061011064
20
72.698830681
11
145.267786955
21
72.7716245023
0
LINE
8
0
10
145.267786955
20
72.7716245023
11
145.574018941
21
72.8224246527
0
LINE
8
0
10
145.574018941
20
72.8224246527
11
145.975289354
21
72.854590624
0
LINE
8
0
10
145.975289354
20
72.854590624
11
146.358090365
21
72.899480246
0
LINE
8
0
10
146.358090365
20
72.899480246
11
146.832926619
21
72.9729342651
0
LINE
8
0
10
146.832926619
20
72.9729342651
11
147.398089406
21
73.0817555847
0
LINE
8
0
10
147.398089406
20
73.0817555847
11
148.051495248
21
73.2326554826
0
LINE
8
0
10
148.051495248
20
73.2326554826
11
148.790690499
21
73.4322352932
0
LINE
8
0
10
148.790690499
20
73.4322352932
11
149.612856772
21
73.6869683089
0
LINE
8
0
10
149.612856772
20
73.6869683089
11
150.059279493
21
73.8434773355
0
LINE
8
0
10
150.059279493
20
73.8434773355
11
150.128196073
21
75.0926101728
0
LINE
8
0
10
150.128196073
20
75.0926101728
11
150.059279493
21
76.3417430102
0
LINE
8
0
10
150.059279493
20
76.3417430102
11
149.612856772
21
76.4982520368
0
LINE
8
0
10
149.612856772
20
76.4982520368
11
148.790690499
21
76.7529850525
0
LINE
8
0
10
148.790690499
20
76.7529850525
11
148.051495248
21
76.952564863
0
LINE
8
0
10
148.051495248
20
76.952564863
11
147.398089406
21
77.103464761
0
LINE
8
0
10
147.398089406
20
77.103464761
11
146.832926619
21
77.2122860806
0
LINE
8
0
10
146.832926619
20
77.2122860806
11
146.358090365
21
77.2857400997
0
LINE
8
0
10
146.358090365
20
77.2857400997
11
145.975289354
21
77.3306297217
0
LINE
8
0
10
145.975289354
20
77.3306297217
11
145.574018941
21
77.362795693
0
LINE
8
0
10
145.574018941
20
77.362795693
11
145.267786955
21
77.4135958434
0
LINE
8
0
10
145.267786955
20
77.4135958434
11
145.061011064
21
77.4863896647
0
LINE
8
0
10
145.061011064
20
77.4863896647
11
144.954762302
21
77.5739240446
0
LINE
8
0
10
144.954762302
20
77.5739240446
11
144.803192068
21
80.3211781658
0
LINE
8
0
10
144.803192068
20
80.3211781658
11
144.899166471
21
80.4198695086
0
LINE
8
0
10
144.899166471
20
80.4198695086
11
145.096679454
21
80.5149685687
0
LINE
8
0
10
145.096679454
20
80.5149685687
11
145.395464385
21
80.5991484326
0
LINE
8
0
10
145.395464385
20
80.5991484326
11
145.790760837
21
80.6752622225
0
LINE
8
0
10
145.790760837
20
80.6752622225
11
146.166300278
21
80.7619906531
0
LINE
8
0
10
146.166300278
20
80.7619906531
11
146.630174051
21
80.8872347476
0
LINE
8
0
10
146.630174051
20
80.8872347476
11
147.179935443
21
81.0575681482
0
LINE
8
0
10
147.179935443
20
81.0575681482
11
147.812775325
21
81.2794322003
0
LINE
8
0
10
147.812775325
20
81.2794322003
11
148.525528741
21
81.5591182511
0
LINE
8
0
10
148.525528741
20
81.5591182511
11
149.314682296
21
81.902750259
0
LINE
8
0
10
149.314682296
20
81.902750259
11
149.741178254
21
82.1074195512
0
LINE
8
0
10
149.741178254
20
82.1074195512
11
149.672261675
21
83.3565523886
0
LINE
8
0
10
149.672261675
20
83.3565523886
11
149.466348492
21
84.5905224454
0
LINE
8
0
10
149.466348492
20
84.5905224454
11
149.005417974
21
84.6969713988
0
LINE
8
0
10
149.005417974
20
84.6969713988
11
148.160218968
21
84.8597133086
0
LINE
8
0
10
148.160218968
20
84.8597133086
11
147.403554712
21
84.9767642504
0
LINE
8
0
10
147.403554712
20
84.9767642504
11
146.737514371
21
85.0548682738
0
LINE
8
0
10
146.737514371
20
85.0548682738
11
146.1638105
21
85.100856569
0
LINE
8
0
10
146.1638105
20
85.100856569
11
145.683775634
21
85.1216288804
0
LINE
8
0
10
145.683775634
20
85.1216288804
11
145.298359739
21
85.1241347946
0
LINE
8
0
10
145.298359739
20
85.1241347946
11
144.895986244
21
85.1119624959
0
LINE
8
0
10
144.895986244
20
85.1119624959
11
144.586024445
21
85.1287662878
0
LINE
8
0
10
144.586024445
20
85.1287662878
11
144.372495624
21
85.178371252
0
LINE
8
0
10
144.372495624
20
85.178371252
11
144.257262219
21
85.2536861202
0
LINE
8
0
10
144.257262219
20
85.2536861202
11
143.804391375
21
87.9675922979
0
LINE
8
0
10
143.804391375
20
87.9675922979
11
143.888926419
21
88.0762426243
0
LINE
8
0
10
143.888926419
20
88.0762426243
11
144.074778954
21
88.1924925495
0
LINE
8
0
10
144.074778954
20
88.1924925495
11
144.362489985
21
88.3090302973
0
LINE
8
0
10
144.362489985
20
88.3090302973
11
144.747014113
21
88.4281679875
0
LINE
8
0
10
144.747014113
20
88.4281679875
11
145.110733444
21
88.5556824611
0
LINE
8
0
10
145.110733444
20
88.5556824611
11
145.558013938
21
88.7311963374
0
LINE
8
0
10
145.558013938
20
88.7311963374
11
146.085700575
21
88.9609742023
0
LINE
8
0
10
146.085700575
20
88.9609742023
11
146.690292679
21
89.2511092795
0
LINE
8
0
10
146.690292679
20
89.2511092795
11
147.367952399
21
89.6075065607
0
LINE
8
0
10
147.367952399
20
89.6075065607
11
148.114513981
21
90.0358663337
0
LINE
8
0
10
148.114513981
20
90.0358663337
11
148.515906093
21
90.2862114836
0
LINE
8
0
10
148.515906093
20
90.2862114836
11
148.309992909
21
91.5201815404
0
LINE
8
0
10
148.309992909
20
91.5201815404
11
147.969582629
21
92.7240100918
0
LINE
8
0
10
147.969582629
20
92.7240100918
11
147.499739387
21
92.7791068259
0
LINE
8
0
10
147.499739387
20
92.7791068259
11
146.641767218
21
92.8478821634
0
LINE
8
0
10
146.641767218
20
92.8478821634
11
145.876818836
21
92.8809833966
0
LINE
8
0
10
145.876818836
20
92.8809833966
11
145.206228824
21
92.8853434685
0
LINE
8
0
10
145.206228824
20
92.8853434685
11
144.630947856
21
92.8679405037
0
LINE
8
0
10
144.630947856
20
92.8679405037
11
144.151541353
21
92.8357789597
0
LINE
8
0
10
144.151541353
20
92.8357789597
11
143.768188999
21
92.7958707476
0
LINE
8
0
10
143.768188999
20
92.7958707476
11
143.369596692
21
92.7395079341
0
LINE
8
0
10
143.369596692
20
92.7395079341
11
143.059667596
21
92.7221113924
0
LINE
8
0
10
143.059667596
20
92.7221113924
11
142.841977796
21
92.7479253623
0
LINE
8
0
10
142.841977796
20
92.7479253623
11
142.719158525
21
92.8101064983
0
LINE
8
0
10
142.719158525
20
92.8101064983
11
141.97048431
21
95.4577215879
0
LINE
8
0
10
141.97048431
20
95.4577215879
11
142.042553855
21
95.5750120303
0
LINE
8
0
10
142.042553855
20
95.5750120303
11
142.214489943
21
95.7110017038
0
LINE
8
0
10
142.214489943
20
95.7110017038
11
142.487634653
21
95.8584827251
0
LINE
8
0
10
142.487634653
20
95.8584827251
11
142.856718855
21
96.0191981455
0
LINE
8
0
10
142.856718855
20
96.0191981455
11
143.204203015
21
96.1859508091
0
LINE
8
0
10
143.204203015
20
96.1859508091
11
143.629460849
21
96.4096039664
0
LINE
8
0
10
143.629460849
20
96.4096039664
11
144.128667333
21
96.6960371036
0
LINE
8
0
10
144.128667333
20
96.6960371036
11
144.697672728
21
97.0509213591
0
LINE
8
0
10
144.697672728
20
97.0509213591
11
145.332012882
21
97.4797036906
0
LINE
8
0
10
145.332012882
20
97.4797036906
11
146.026920244
21
97.9875915213
0
LINE
8
0
10
146.026920244
20
97.9875915213
11
146.398336153
21
98.2805736778
0
LINE
8
0
10
146.398336153
20
98.2805736778
11
146.057925873
21
99.4844022293
0
LINE
8
0
10
146.057925873
20
99.4844022293
11
145.587150614
21
100.643476427
0
LINE
8
0
10
145.587150614
20
100.643476427
11
145.114097909
21
100.646552142
0
LINE
8
0
10
145.114097909
20
100.646552142
11
144.253767198
21
100.620526068
0
LINE
8
0
10
144.253767198
20
100.620526068
11
143.489820126
21
100.569275789
0
LINE
8
0
10
143.489820126
20
100.569275789
11
142.822820498
21
100.499838984
0
LINE
8
0
10
142.822820498
20
100.499838984
11
142.252945565
21
100.419256007
0
LINE
8
0
10
142.252945565
20
100.419256007
11
141.779986768
21
100.334551005
0
LINE
8
0
10
141.779986768
20
100.334551005
11
141.403351335
21
100.252713099
0
LINE
8
0
10
141.403351335
20
100.252713099
11
141.013378586
21
100.152843939
0
LINE
8
0
10
141.013378586
20
100.152843939
11
140.707244312
21
100.101458234
0
LINE
8
0
10
140.707244312
20
100.101458234
11
140.488035994
21
100.103167863
0
LINE
8
0
10
140.488035994
20
100.103167863
11
140.359121716
21
100.151460472
0
LINE
8
0
10
140.359121716
20
100.151460472
11
139.323732021
21
102.700646013
0
LINE
8
0
10
139.323732021
20
102.700646013
11
139.382461239
21
102.825152824
0
LINE
8
0
10
139.382461239
20
102.825152824
11
139.53839381
21
102.979231515
0
LINE
8
0
10
139.53839381
20
102.979231515
11
139.793656592
21
103.15586559
0
LINE
8
0
10
139.793656592
20
103.15586559
11
140.142820685
21
103.356207873
0
LINE
8
0
10
140.142820685
20
103.356207873
11
140.469851687
21
103.560174576
0
LINE
8
0
10
140.469851687
20
103.560174576
11
140.867924809
21
103.829252168
0
LINE
8
0
10
140.867924809
20
103.829252168
11
141.332591447
21
104.168863667
0
LINE
8
0
10
141.332591447
20
104.168863667
11
141.859103179
21
104.584189286
0
LINE
8
0
10
141.859103179
20
104.584189286
11
142.442423737
21
105.080151831
0
LINE
8
0
10
142.442423737
20
105.080151831
11
143.077241645
21
105.66140265
0
LINE
8
0
10
143.077241645
20
105.66140265
11
143.414172866
21
105.993465406
0
LINE
8
0
10
143.414172866
20
105.993465406
11
142.943397608
21
107.152539605
0
LINE
8
0
10
142.943397608
20
107.152539605
11
142.347971946
21
108.252789859
0
LINE
8
0
10
142.347971946
20
108.252789859
11
141.877451996
21
108.20380722
0
LINE
8
0
10
141.877451996
20
108.20380722
11
141.025205992
21
108.083295655
0
LINE
8
0
10
141.025205992
20
108.083295655
11
140.271533514
21
107.948315972
0
LINE
8
0
10
140.271533514
20
107.948315972
11
139.61622074
21
107.805925159
0
LINE
8
0
10
139.61622074
20
107.805925159
11
139.058669352
21
107.663140339
0
LINE
8
0
10
139.058669352
20
107.663140339
11
138.597899342
21
107.526920083
0
LINE
8
0
10
138.597899342
20
107.526920083
11
138.232552673
21
107.404145883
0
LINE
8
0
10
138.232552673
20
107.404145883
11
137.855933223
21
107.261982653
0
LINE
8
0
10
137.855933223
20
107.261982653
11
137.557309827
21
107.177231537
0
LINE
8
0
10
137.557309827
20
107.177231537
11
137.339243881
21
107.154816073
0
LINE
8
0
10
137.339243881
20
107.154816073
11
137.205799442
21
107.188633948
0
LINE
8
0
10
137.205799442
20
107.188633948
11
135.896262495
21
109.608446281
0
LINE
8
0
10
135.896262495
20
109.608446281
11
135.940938493
21
109.738658117
0
LINE
8
0
10
135.940938493
20
109.738658117
11
136.078974736
21
109.90895552
0
LINE
8
0
10
136.078974736
20
109.90895552
11
136.313257045
21
110.11259855
0
LINE
8
0
10
136.313257045
20
110.11259855
11
136.638262651
21
110.350135812
0
LINE
8
0
10
136.638262651
20
110.350135812
11
136.940870783
21
110.588840673
0
LINE
8
0
10
136.940870783
20
110.588840673
11
137.306927123
21
110.900076463
0
LINE
8
0
10
137.306927123
20
110.900076463
11
137.731413493
21
111.2887439
0
LINE
8
0
10
137.731413493
20
111.2887439
11
138.209040422
21
111.759469394
0
LINE
8
0
10
138.209040422
20
111.759469394
11
138.734260662
21
112.316591839
0
LINE
8
0
10
138.734260662
20
112.316591839
11
139.301283287
21
112.964150047
0
LINE
8
0
10
139.301283287
20
112.964150047
11
139.59963993
21
113.331262612
0
LINE
8
0
10
139.59963993
20
113.331262612
11
139.004214269
21
114.431512866
0
LINE
8
0
10
139.004214269
20
114.431512866
11
138.291365864
21
115.459583629
0
LINE
8
0
10
138.291365864
20
115.459583629
11
137.829090145
21
115.359137219
0
LINE
8
0
10
137.829090145
20
115.359137219
11
136.995273959
21
115.145603011
0
LINE
8
0
10
136.995273959
20
115.145603011
11
136.261024637
21
114.928532394
0
LINE
8
0
10
136.261024637
20
114.928532394
11
135.625353329
21
114.714916004
0
LINE
8
0
10
135.625353329
20
114.714916004
11
135.086893404
21
114.511662555
0
LINE
8
0
10
135.086893404
20
114.511662555
11
134.643905304
21
114.325580575
0
LINE
8
0
10
134.643905304
20
114.325580575
11
134.294282213
21
114.163360394
0
LINE
8
0
10
134.294282213
20
114.163360394
11
133.935587712
21
113.980628763
0
LINE
8
0
10
133.935587712
20
113.980628763
11
133.648100077
21
113.863541001
0
LINE
8
0
10
133.648100077
20
113.863541001
11
133.433823529
21
113.817272536
0
LINE
8
0
10
133.433823529
20
113.817272536
11
133.297468763
21
113.836205175
0
LINE
8
0
10
133.297468763
20
113.836205175
11
131.729680568
21
116.097271056
0
LINE
8
0
10
131.729680568
20
116.097271056
11
131.759761041
21
116.231607321
0
LINE
8
0
10
131.759761041
20
116.231607321
11
131.878225383
21
116.416056256
0
LINE
8
0
10
131.878225383
20
116.416056256
11
132.08868335
21
116.644236291
0
LINE
8
0
10
132.08868335
20
116.644236291
11
132.38558534
21
116.916085151
0
LINE
8
0
10
132.38558534
20
116.916085151
11
132.660097349
21
117.186630617
0
LINE
8
0
10
132.660097349
20
117.186630617
11
132.989693479
21
117.536246623
0
LINE
8
0
10
132.989693479
20
117.536246623
11
133.368846891
21
117.969252103
0
LINE
8
0
10
133.368846891
20
117.969252103
11
133.791791275
21
118.4896635
0
LINE
8
0
10
133.791791275
20
118.4896635
11
134.252535734
21
119.101183134
0
LINE
8
0
10
134.252535734
20
119.101183134
11
134.744880189
21
119.807188252
0
LINE
8
0
10
134.744880189
20
119.807188252
11
135.001040609
21
120.204894376
0
LINE
8
0
10
135.001040609
20
120.204894376
11
134.288192205
21
121.232965139
0
LINE
8
0
10
134.288192205
20
121.232965139
11
133.466574072
21
122.176377023
0
LINE
8
0
10
133.466574072
20
122.176377023
11
133.018153985
21
122.025686125
0
LINE
8
0
10
133.018153985
20
122.025686125
11
132.212889017
21
121.72172129
0
LINE
8
0
10
132.212889017
20
121.72172129
11
131.506975643
21
121.425194684
0
LINE
8
0
10
131.506975643
20
121.425194684
11
130.898661988
21
121.142945731
0
LINE
8
0
10
130.898661988
20
121.142945731
11
130.385829701
21
120.881690874
0
LINE
8
0
10
130.385829701
20
120.881690874
11
129.966000785
21
120.648005953
0
LINE
8
0
10
129.966000785
20
120.648005953
11
129.636345224
21
120.448308924
0
LINE
8
0
10
129.636345224
20
120.448308924
11
129.299929737
21
120.227227006
0
LINE
8
0
10
129.299929737
20
120.227227006
11
129.027067574
21
120.079223884
0
LINE
8
0
10
129.027067574
20
120.079223884
11
128.819181451
21
120.009664056
0
LINE
8
0
10
128.819181451
20
120.009664056
11
128.68157152
21
120.013481641
0
LINE
8
0
10
128.68157152
20
120.013481641
11
126.874562902
21
122.088354793
0
LINE
8
0
10
126.874562902
20
122.088354793
11
126.889682714
21
122.225184828
0
LINE
8
0
10
126.889682714
20
122.225184828
11
126.987137158
21
122.421546334
0
LINE
8
0
10
126.987137158
20
122.421546334
11
127.171216108
21
122.671493577
0
LINE
8
0
10
127.171216108
20
122.671493577
11
127.436410495
21
122.974354159
0
LINE
8
0
10
127.436410495
20
122.974354159
11
127.679494176
21
123.273456175
0
LINE
8
0
10
127.679494176
20
123.273456175
11
127.968629246
21
123.657208533
0
LINE
8
0
10
127.968629246
20
123.657208533
11
128.297847291
21
124.129295955
0
LINE
8
0
10
128.297847291
20
124.129295955
11
128.660975157
21
124.693076167
0
LINE
8
0
10
128.660975157
20
124.693076167
11
129.051651023
21
125.351569968
0
LINE
8
0
10
129.051651023
20
125.351569968
11
129.463340913
21
126.107452052
0
LINE
8
0
10
129.463340913
20
126.107452052
11
129.67419567
21
126.530924121
0
LINE
8
0
10
129.67419567
20
126.530924121
11
128.852577537
21
127.474336005
0
LINE
8
0
10
128.852577537
20
127.474336005
11
127.932163006
21
128.32163727
0
LINE
8
0
10
127.932163006
20
128.32163727
11
127.503041763
21
128.122531068
0
LINE
8
0
10
127.503041763
20
128.122531068
11
126.736102838
21
127.731825327
0
LINE
8
0
10
126.736102838
20
127.731825327
11
126.067094245
21
127.359442161
0
LINE
8
0
10
126.067094245
20
127.359442161
11
125.493522347
21
127.011986765
0
LINE
8
0
10
125.493522347
20
127.011986765
11
125.012542787
21
126.695901781
0
LINE
8
0
10
125.012542787
20
126.695901781
11
124.620969211
21
126.417450537
0
LINE
8
0
10
124.620969211
20
126.417450537
11
124.31528275
21
126.182700712
0
LINE
8
0
10
124.31528275
20
126.182700712
11
124.005229906
21
125.925952142
0
LINE
8
0
10
124.005229906
20
125.925952142
11
123.750305391
21
125.748830218
0
LINE
8
0
10
123.750305391
20
125.748830218
11
123.551333149
21
125.656823388
0
LINE
8
0
10
123.551333149
20
125.656823388
11
123.414138452
21
125.645479579
0
LINE
8
0
10
123.414138452
20
125.645479579
11
121.389844048
21
127.508973854
0
LINE
8
0
10
121.389844048
20
127.508973854
11
121.389819664
21
127.646636726
0
LINE
8
0
10
121.389819664
20
127.646636726
11
121.465081246
21
127.852527241
0
LINE
8
0
10
121.465081246
20
127.852527241
11
121.62054671
21
128.121207672
0
LINE
8
0
10
121.62054671
20
128.121207672
11
121.850814392
21
128.451403657
0
LINE
8
0
10
121.850814392
20
128.451403657
11
122.059519039
21
128.77543153
0
LINE
8
0
10
122.059519039
20
128.77543153
11
122.304683342
21
129.188662005
0
LINE
8
0
10
122.304683342
20
129.188662005
11
122.579969758
21
129.694100868
0
LINE
8
0
10
122.579969758
20
129.694100868
11
122.878873226
21
130.294406366
0
LINE
8
0
10
122.878873226
20
130.294406366
11
123.194738222
21
130.991881114
0
LINE
8
0
10
123.194738222
20
130.991881114
11
123.520776191
21
131.788464777
0
LINE
8
0
10
123.520776191
20
131.788464777
11
123.683765793
21
132.232562415
0
LINE
8
0
10
123.683765793
20
132.232562415
11
122.763351262
21
133.079863679
0
LINE
8
0
10
122.763351262
20
133.079863679
11
121.75531292
21
133.820769233
0
LINE
8
0
10
121.75531292
20
133.820769233
11
121.35069947
21
133.575664606
0
LINE
8
0
10
121.35069947
20
133.575664606
11
120.631396189
21
133.102960598
0
LINE
8
0
10
120.631396189
20
133.102960598
11
120.007413235
21
132.659241101
0
LINE
8
0
10
120.007413235
20
132.659241101
11
119.47554548
21
132.2507969
0
LINE
8
0
10
119.47554548
20
132.2507969
11
119.032257086
21
131.883718632
0
LINE
8
0
10
119.032257086
20
131.883718632
11
118.673692023
21
131.563881085
0
LINE
8
0
10
118.673692023
20
131.563881085
11
118.395685283
21
131.296928009
0
LINE
8
0
10
118.395685283
20
131.296928009
11
118.115758703
21
131.007629368
0
LINE
8
0
10
118.115758703
20
131.007629368
11
117.881866275
21
130.803538661
0
LINE
8
0
10
117.881866275
20
130.803538661
11
117.694223167
21
130.690201668
0
LINE
8
0
10
117.694223167
20
130.690201668
11
117.559109061
21
130.663834164
0
LINE
8
0
10
117.559109061
20
130.663834164
11
115.342101063
21
132.293329264
0
LINE
8
0
10
115.342101063
20
132.293329264
11
115.326932779
21
132.430153934
0
LINE
8
0
10
115.326932779
20
132.430153934
11
115.379087925
21
132.643074225
0
LINE
8
0
10
115.379087925
20
132.643074225
11
115.504052763
21
132.927226427
0
LINE
8
0
10
115.504052763
20
132.927226427
11
115.696598603
21
133.280749684
0
LINE
8
0
10
115.696598603
20
133.280749684
11
115.868390825
21
133.625770155
0
LINE
8
0
10
115.868390825
20
133.625770155
11
116.066608397
21
134.063462689
0
LINE
8
0
10
116.066608397
20
134.063462689
11
116.284621581
21
134.596117649
0
LINE
8
0
10
116.284621581
20
134.596117649
11
116.515672367
21
135.225661539
0
LINE
8
0
10
116.515672367
20
135.225661539
11
116.75289232
21
135.953650833
0
LINE
8
0
10
116.75289232
20
135.953650833
11
116.989320707
21
136.78126663
0
LINE
8
0
10
116.989320707
20
136.78126663
11
117.102466682
21
137.240599092
0
LINE
8
0
10
117.102466682
20
137.240599092
11
116.09442834
21
137.981504646
0
LINE
8
0
10
116.09442834
20
137.981504646
11
115.011002405
21
138.607020901
0
LINE
8
0
10
115.011002405
20
138.607020901
11
114.63580821
21
138.318893087
0
LINE
8
0
10
114.63580821
20
138.318893087
11
113.972871939
21
137.769928798
0
LINE
8
0
10
113.972871939
20
137.769928798
11
113.401488931
21
137.260259123
0
LINE
8
0
10
113.401488931
20
137.260259123
11
112.917781473
21
136.795784076
0
LINE
8
0
10
112.917781473
20
136.795784076
11
112.517565167
21
136.382168357
0
LINE
8
0
10
112.517565167
20
136.382168357
11
112.19636111
21
136.024826903
0
LINE
8
0
10
112.19636111
20
136.024826903
11
111.949408715
21
135.728911024
0
LINE
8
0
10
111.949408715
20
135.728911024
11
111.703006329
21
135.410574004
0
LINE
8
0
10
111.703006329
20
135.410574004
11
111.492985126
21
135.1819919
0
LINE
8
0
10
111.492985126
20
135.1819919
11
111.318948885
21
135.048700502
0
LINE
8
0
10
111.318948885
20
135.048700502
11
111.187555472
21
135.007629368
0
LINE
8
0
10
111.187555472
20
135.007629368
11
108.804745355
21
136.38334543
0
LINE
8
0
10
108.804745355
20
136.38334543
11
108.774617293
21
136.517671031
0
LINE
8
0
10
108.774617293
20
136.517671031
11
108.803032911
21
136.735036536
0
LINE
8
0
10
108.803032911
20
136.735036536
11
108.895980218
21
137.031211285
0
LINE
8
0
10
108.895980218
20
137.031211285
11
109.048466971
21
137.403770521
0
LINE
8
0
10
109.048466971
20
137.403770521
11
109.181261442
21
137.765595508
0
LINE
8
0
10
109.181261442
20
137.765595508
11
109.33012619
21
138.222437108
0
LINE
8
0
10
109.33012619
20
138.222437108
11
109.488219757
21
138.775842456
0
LINE
8
0
10
109.488219757
20
138.775842456
11
109.648613218
21
139.426982926
0
LINE
8
0
10
109.648613218
20
139.426982926
11
109.8043086
21
140.176649964
0
LINE
8
0
10
109.8043086
20
140.176649964
11
109.948257486
21
141.025251759
0
LINE
8
0
10
109.948257486
20
141.025251759
11
110.010186394
21
141.494243371
0
LINE
8
0
10
110.010186394
20
141.494243371
11
108.92676046
21
142.119759626
0
LINE
8
0
10
108.92676046
20
142.119759626
11
107.781098257
21
142.622293662
0
LINE
8
0
10
107.781098257
20
142.622293662
11
107.439877664
21
142.294640142
0
LINE
8
0
10
107.439877664
20
142.294640142
11
106.841355552
21
141.676079254
0
LINE
8
0
10
106.841355552
20
141.676079254
11
106.329508306
21
141.106646101
0
LINE
8
0
10
106.329508306
20
141.106646101
11
105.899832698
21
140.591778306
0
LINE
8
0
10
105.899832698
20
140.591778306
11
105.547546564
21
140.13664587
0
LINE
8
0
10
105.547546564
20
140.13664587
11
105.267602495
21
139.74613815
0
LINE
8
0
10
105.267602495
20
139.74613815
11
105.054702114
21
139.424851487
0
LINE
8
0
10
105.054702114
20
139.424851487
11
104.844814912
21
139.081340269
0
LINE
8
0
10
104.844814912
20
139.081340269
11
104.661214306
21
138.831041444
0
LINE
8
0
10
104.661214306
20
138.831041444
11
104.502897498
21
138.679413617
0
LINE
8
0
10
104.502897498
20
138.679413617
11
104.376819716
21
138.624137402
0
LINE
8
0
10
104.376819716
20
138.624137402
11
101.857131565
21
139.729375098
0
LINE
8
0
10
101.857131565
20
139.729375098
11
101.81240944
21
139.859571099
0
LINE
8
0
10
101.81240944
20
139.859571099
11
101.816740601
21
140.078743293
0
LINE
8
0
10
101.816740601
20
140.078743293
11
101.876542124
21
140.38334543
0
LINE
8
0
10
101.876542124
20
140.38334543
11
101.987118807
21
140.770418281
0
LINE
8
0
10
101.987118807
20
140.770418281
11
102.079303582
21
141.144655718
0
LINE
8
0
10
102.079303582
20
141.144655718
11
102.177008491
21
141.615100945
0
LINE
8
0
10
102.177008491
20
141.615100945
11
102.2732634
21
142.182539089
0
LINE
8
0
10
102.2732634
20
142.182539089
11
102.361052576
21
142.847372177
0
LINE
8
0
10
102.361052576
20
142.847372177
11
102.433333455
21
143.609617016
0
LINE
8
0
10
102.433333455
20
143.609617016
11
102.483055495
21
144.468903935
0
LINE
8
0
10
102.483055495
20
144.468903935
11
102.493015604
21
144.941861774
0
LINE
8
0
10
102.493015604
20
144.941861774
11
101.3473534
21
145.444395809
0
LINE
8
0
10
101.3473534
20
145.444395809
11
100.153361716
21
145.817847543
0
LINE
8
0
10
100.153361716
20
145.817847543
11
99.8502566813
21
145.454645588
0
LINE
8
0
10
99.8502566813
20
145.454645588
11
99.3234139767
21
144.773996593
0
LINE
8
0
10
99.3234139767
20
144.773996593
11
98.8773156251
21
144.151712108
0
LINE
8
0
10
98.8773156251
20
144.151712108
11
98.5068875471
21
143.592701363
0
LINE
8
0
10
98.5068875471
20
143.592701363
11
98.2068078603
21
143.101576901
0
LINE
8
0
10
98.2068078603
20
143.101576901
11
97.9715219226
21
142.68264315
0
LINE
8
0
10
97.9715219226
20
142.68264315
11
97.7952578763
21
142.339885687
0
LINE
8
0
10
97.7952578763
20
142.339885687
11
97.6244336059
21
141.975370032
0
LINE
8
0
10
97.6244336059
20
141.975370032
11
97.4694822593
21
141.706392775
0
LINE
8
0
10
97.4694822593
20
141.706392775
11
97.3288066342
21
141.538269076
0
LINE
8
0
10
97.3288066342
20
141.538269076
11
97.2095748973
21
141.469458757
0
LINE
8
0
10
97.2095748973
20
141.469458757
11
94.5835943142
21
142.290801998
0
LINE
8
0
10
94.5835943142
20
142.290801998
11
94.5248209922
21
142.415287996
0
LINE
8
0
10
94.5248209922
20
142.415287996
11
94.5050151229
21
142.633606427
0
LINE
8
0
10
94.5050151229
20
142.633606427
11
94.5309449517
21
142.942938495
0
LINE
8
0
10
94.5309449517
20
142.942938495
11
94.5982693135
21
143.339826419
0
LINE
8
0
10
94.5982693135
20
143.339826419
11
94.6487253947
21
143.721933572
0
LINE
8
0
10
94.6487253947
20
143.721933572
11
94.6940844581
21
144.200271858
0
LINE
8
0
10
94.6940844581
20
144.200271858
11
94.727332304
21
144.774854869
0
LINE
8
0
10
94.727332304
20
144.774854869
11
94.7414515543
21
145.445310401
0
LINE
8
0
10
94.7414515543
20
145.445310401
11
94.7294405391
21
146.210880421
0
LINE
8
0
10
94.7294405391
20
146.210880421
11
94.684332174
21
147.070421883
0
LINE
8
0
10
94.684332174
20
147.070421883
11
94.6422025812
21
147.541604883
0
LINE
8
0
10
94.6422025812
20
147.541604883
11
93.4482108965
21
147.915056616
0
LINE
8
0
10
93.4482108965
20
147.915056616
11
92.2203831717
21
148.154892849
0
LINE
8
0
10
92.2203831717
20
148.154892849
11
91.9590729805
21
147.760551238
0
LINE
8
0
10
91.9590729805
20
147.760551238
11
91.5103048393
21
147.026076293
0
LINE
8
0
10
91.5103048393
20
147.026076293
11
91.1353704117
21
146.358494168
0
LINE
8
0
10
91.1353704117
20
146.358494168
11
90.8286863589
21
145.762126105
0
LINE
8
0
10
90.8286863589
20
145.762126105
11
90.5844556807
21
145.240971204
0
LINE
8
0
10
90.5844556807
20
145.240971204
11
90.396683926
21
144.798696709
0
LINE
8
0
10
90.396683926
20
144.798696709
11
90.2591958218
21
144.438629058
0
LINE
8
0
10
90.2591958218
20
144.438629058
11
90.1295080579
21
144.057533692
0
LINE
8
0
10
90.1295080579
20
144.057533692
11
90.0050868704
21
143.773143023
0
LINE
8
0
10
90.0050868704
20
143.773143023
11
89.8837600401
21
143.590564245
0
LINE
8
0
10
89.8837600401
20
143.590564245
11
89.7728216599
21
143.509055087
0
LINE
8
0
10
89.7728216599
20
143.509055087
11
87.0724244915
21
144.036533879
0
LINE
8
0
10
87.0724244915
20
144.036533879
11
87.0003134006
21
144.153798782
0
LINE
8
0
10
87.0003134006
20
144.153798782
11
86.9566109173
21
144.36861336
0
LINE
8
0
10
86.9566109173
20
144.36861336
11
86.9483542992
21
144.678920486
0
LINE
8
0
10
86.9483542992
20
144.678920486
11
86.9716091132
21
145.080805803
0
LINE
8
0
10
86.9716091132
20
145.080805803
11
86.979724032
21
145.466144408
0
LINE
8
0
10
86.979724032
20
145.466144408
11
86.9721866528
21
145.946569375
0
LINE
8
0
10
86.9721866528
20
145.946569375
11
86.9420238519
21
146.521322591
0
LINE
8
0
10
86.9420238519
20
146.521322591
11
86.8823017876
21
147.189262147
0
LINE
8
0
10
86.8823017876
20
147.189262147
11
86.7861446752
21
147.948864364
0
LINE
8
0
10
86.7861446752
20
147.948864364
11
86.6467534602
21
148.798226701
0
LINE
8
0
10
86.6467534602
20
148.798226701
11
86.553045562
21
149.261915337
0
LINE
8
0
10
86.553045562
20
149.261915337
11
85.3252178372
21
149.50175157
0
LINE
8
0
10
85.3252178372
20
149.50175157
11
84.0784582378
21
149.605061016
0
LINE
8
0
10
84.0784582378
20
149.605061016
11
83.8621148414
21
149.184366523
0
LINE
8
0
10
83.8621148414
20
149.184366523
11
83.496868701
21
148.404981158
0
LINE
8
0
10
83.496868701
20
148.404981158
11
83.1976493934
21
147.700204935
0
LINE
8
0
10
83.1976493934
20
147.700204935
11
82.9584320947
21
147.073718655
0
LINE
8
0
10
82.9584320947
20
147.073718655
11
82.7730150549
21
146.528859429
0
LINE
8
0
10
82.7730150549
20
146.528859429
11
82.6350367779
21
146.068612804
0
LINE
8
0
10
82.6350367779
20
146.068612804
11
82.5379935352
21
145.695605698
0
LINE
8
0
10
82.5379935352
20
145.695605698
11
82.4510165114
21
145.302556602
0
LINE
8
0
10
82.4510165114
20
145.302556602
11
82.3586357877
21
145.006204639
0
LINE
8
0
10
82.3586357877
20
145.006204639
11
82.2581304957
21
144.811387042
0
LINE
8
0
10
82.2581304957
20
144.811387042
11
82.1568321138
21
144.718168455
0
LINE
8
0
10
82.1568321138
20
144.718168455
11
79.4147975238
21
144.945379919
0
LINE
8
0
10
79.4147975238
20
144.945379919
11
79.3302239949
21
145.054000292
0
LINE
8
0
10
79.3302239949
20
145.054000292
11
79.2631553865
21
145.262703458
0
LINE
8
0
10
79.2631553865
20
145.262703458
11
79.2208125455
21
145.570218934
0
LINE
8
0
10
79.2208125455
20
145.570218934
11
79.1997155298
21
145.9722233
0
LINE
8
0
10
79.1997155298
20
145.9722233
11
79.1653907822
21
146.356115868
0
LINE
8
0
10
79.1653907822
20
146.356115868
11
79.1050484538
21
146.832795807
0
LINE
8
0
10
79.1050484538
20
146.832795807
11
79.0118411418
21
147.400742505
0
LINE
8
0
10
79.0118411418
20
147.400742505
11
78.8790027078
21
148.058058202
0
LINE
8
0
10
78.8790027078
20
148.058058202
11
78.6998667153
21
148.802472076
0
LINE
8
0
10
78.6998667153
20
148.802472076
11
78.4678846709
21
149.631345179
0
LINE
8
0
10
78.4678846709
20
149.631345179
11
78.3237359542
21
150.0819109
0
LINE
8
0
10
78.3237359542
20
150.0819109
11
77.0769763548
21
150.185220346
0
LINE
8
0
10
77.0769763548
20
150.185220346
11
75.8264188534
21
150.150748968
0
LINE
8
0
10
75.8264188534
20
150.150748968
11
75.6576683676
21
149.708808253
0
LINE
8
0
10
75.6576683676
20
149.708808253
11
75.3803778213
21
148.893973151
0
LINE
8
0
10
75.3803778213
20
148.893973151
11
75.1605057508
21
148.160557858
0
LINE
8
0
10
75.1605057508
20
148.160557858
11
74.9916589802
21
147.511558057
0
LINE
8
0
10
74.9916589802
20
147.511558057
11
74.8673062904
21
146.949608359
0
LINE
8
0
10
74.8673062904
20
146.949608359
11
74.7807963605
21
146.476976374
0
LINE
8
0
10
74.7807963605
20
146.476976374
11
74.7253759527
21
146.095557614
0
LINE
8
0
10
74.7253759527
20
146.095557614
11
74.6821654523
21
145.695325872
0
LINE
8
0
10
74.6821654523
20
145.695325872
11
74.6229465693
21
145.390609925
0
LINE
8
0
10
74.6229465693
20
145.390609925
11
74.5444828136
21
145.185918331
0
LINE
8
0
10
74.5444828136
20
145.185918331
11
74.4540540552
21
145.082121863
0
LINE
8
0
10
74.4540540552
20
145.082121863
11
71.7036666289
21
145.00630796
0
LINE
8
0
10
71.7036666289
20
145.00630796
11
71.6076572701
21
145.104965297
0
LINE
8
0
10
71.6076572701
20
145.104965297
11
71.5180366588
21
145.305023678
0
LINE
8
0
10
71.5180366588
20
145.305023678
11
71.4421215797
21
145.606014683
0
LINE
8
0
10
71.4421215797
20
145.606014683
11
71.3769288235
21
146.00325831
0
LINE
8
0
10
71.3769288235
20
146.00325831
11
71.3005810653
21
146.381044906
0
LINE
8
0
10
71.3005810653
20
146.381044906
11
71.1881662619
21
146.848193568
0
LINE
8
0
10
71.1881662619
20
146.848193568
11
71.0330458493
21
147.402439644
0
LINE
8
0
10
71.0330458493
20
147.402439644
11
70.8287035242
21
148.041152559
0
LINE
8
0
10
70.8287035242
20
148.041152559
11
70.5687631199
21
148.761341913
0
LINE
8
0
10
70.5687631199
20
148.761341913
11
70.2470061939
21
149.559664386
0
LINE
8
0
10
70.2470061939
20
149.559664386
11
70.0541664288
21
149.991637935
0
LINE
8
0
10
70.0541664288
20
149.991637935
11
68.8036089274
21
149.957166557
0
LINE
8
0
10
68.8036089274
20
149.957166557
11
67.564433598
21
149.78533279
0
LINE
8
0
10
67.564433598
20
149.78533279
11
67.4453244252
21
149.327510416
0
LINE
8
0
10
67.4453244252
20
149.327510416
11
67.2593554046
21
148.487116572
0
LINE
8
0
10
67.2593554046
20
148.487116572
11
67.1214995203
21
147.733964878
0
LINE
8
0
10
67.1214995203
20
147.733964878
11
67.0250728488
21
147.070329532
0
LINE
8
0
10
67.0250728488
20
147.070329532
11
66.9632939821
21
146.49811067
0
LINE
8
0
10
66.9632939821
20
146.49811067
11
66.9293025128
21
146.018830438
0
LINE
8
0
10
66.9293025128
20
146.018830438
11
66.9161776686
21
145.633629931
0
LINE
8
0
10
66.9161776686
20
145.633629931
11
66.9172582085
21
145.231073814
0
LINE
8
0
10
66.9172582085
20
145.231073814
11
66.8919200033
21
144.921692723
0
LINE
8
0
10
66.8919200033
20
144.921692723
11
66.8364502275
21
144.70961181
0
LINE
8
0
10
66.8364502275
20
144.70961181
11
66.7579887752
21
144.59649741
0
LINE
8
0
10
66.7579887752
20
144.59649741
11
64.0326344903
21
144.218578418
0
LINE
8
0
10
64.0326344903
20
144.218578418
11
63.9263547252
21
144.306075153
0
LINE
8
0
10
63.9263547252
20
144.306075153
11
63.8152699837
21
144.495060311
0
LINE
8
0
10
63.8152699837
20
144.495060311
11
63.7067041727
21
144.785873221
0
LINE
8
0
10
63.7067041727
20
144.785873221
11
63.5982070277
21
145.173534109
0
LINE
8
0
10
63.5982070277
20
145.173534109
11
63.4807630174
21
145.540628915
0
LINE
8
0
10
63.4807630174
20
145.540628915
11
63.3176403024
21
145.992575749
0
LINE
8
0
10
63.3176403024
20
145.992575749
11
63.1024897408
21
146.526393406
0
LINE
8
0
10
63.1024897408
20
146.526393406
11
62.8291239636
21
147.138750431
0
LINE
8
0
10
62.8291239636
20
147.138750431
11
62.4915344719
21
147.825973142
0
LINE
8
0
10
62.4915344719
20
147.825973142
11
62.0839083576
21
148.584054431
0
LINE
8
0
10
62.0839083576
20
148.584054431
11
61.8447183577
21
148.992192233
0
LINE
8
0
10
61.8447183577
20
148.992192233
11
60.6055430282
21
148.820358467
0
LINE
8
0
10
60.6055430282
20
148.820358467
11
59.3927917806
21
148.513248142
0
LINE
8
0
10
59.3927917806
20
148.513248142
11
59.3247697448
21
148.045101451
0
LINE
8
0
10
59.3247697448
20
148.045101451
11
59.232379662
21
147.189350107
0
LINE
8
0
10
59.232379662
20
147.189350107
11
59.1782133475
21
146.425604253
0
LINE
8
0
10
59.1782133475
20
146.425604253
11
59.1553772643
21
145.755388998
0
LINE
8
0
10
59.1553772643
20
145.755388998
11
59.1569221326
21
145.179846934
0
LINE
8
0
10
59.1569221326
20
145.179846934
11
59.1758617342
21
144.699736267
0
LINE
8
0
10
59.1758617342
20
144.699736267
11
59.2051917713
21
144.315429825
0
LINE
8
0
10
59.2051917713
20
144.315429825
11
59.2505502354
21
143.91543582
0
LINE
8
0
10
59.2505502354
20
143.91543582
11
59.2594002793
21
143.605145052
0
LINE
8
0
10
59.2594002793
20
143.605145052
11
59.2275978115
21
143.388249195
0
LINE
8
0
10
59.2275978115
20
143.388249195
11
59.162056081
21
143.267189917
0
LINE
8
0
10
59.162056081
20
143.267189917
11
56.4948170466
21
142.591753262
0
LINE
8
0
10
56.4948170466
20
142.591753262
11
56.3795569675
21
142.667027303
0
LINE
8
0
10
56.3795569675
20
142.667027303
11
56.2483565141
21
142.842645214
0
LINE
8
0
10
56.2483565141
20
142.842645214
11
56.1084578132
21
143.119749955
0
LINE
8
0
10
56.1084578132
20
143.119749955
11
55.9579732878
21
143.493122426
0
LINE
8
0
10
55.9579732878
20
143.493122426
11
55.8008586365
21
143.845069409
0
LINE
8
0
10
55.8008586365
20
143.845069409
11
55.5890080987
21
144.276328392
0
LINE
8
0
10
55.5890080987
20
144.276328392
11
55.3164390246
21
144.783237807
0
LINE
8
0
10
55.3164390246
20
144.783237807
11
54.9773680855
21
145.361805757
0
LINE
8
0
10
54.9773680855
20
145.361805757
11
54.5662273855
21
146.007719872
0
LINE
8
0
10
54.5662273855
20
146.007719872
11
54.0776801116
21
146.716357897
0
LINE
8
0
10
54.0776801116
20
146.716357897
11
53.7950433194
21
147.095705713
0
LINE
8
0
10
53.7950433194
20
147.095705713
11
52.5822920719
21
146.788595388
0
LINE
8
0
10
52.5822920719
20
146.788595388
11
51.4106860634
21
146.349936407
0
LINE
8
0
10
51.4106860634
20
146.349936407
11
51.39457686
21
145.877148066
0
LINE
8
0
10
51.39457686
20
145.877148066
11
51.3968872053
21
145.016426885
0
LINE
8
0
10
51.3968872053
20
145.016426885
11
51.4270679663
21
144.251357711
0
LINE
8
0
10
51.4270679663
20
144.251357711
11
51.4780996705
21
143.582698052
0
LINE
8
0
10
51.4780996705
20
143.582698052
11
51.5429495212
21
143.010819086
0
LINE
8
0
10
51.5429495212
20
143.010819086
11
51.6145902926
21
142.535705878
0
LINE
8
0
10
51.6145902926
20
142.535705878
11
51.6860191842
21
142.156958461
0
LINE
8
0
10
51.6860191842
20
142.156958461
11
51.775104982
21
141.764381953
0
LINE
8
0
10
51.775104982
20
141.764381953
11
51.8180358476
21
141.456948016
0
LINE
8
0
10
51.8180358476
20
141.456948016
11
51.8102867266
21
141.237870037
0
LINE
8
0
10
51.8102867266
20
141.237870037
11
51.7584603058
21
141.110335379
0
LINE
8
0
10
51.7584603058
20
141.110335379
11
49.1817131907
21
140.145579945
0
LINE
8
0
10
49.1817131907
20
140.145579945
11
49.0588718989
21
140.207717567
0
LINE
8
0
10
49.0588718989
20
140.207717567
11
48.9091483293
21
140.367836468
0
LINE
8
0
10
48.9091483293
20
140.367836468
11
48.7396149191
21
140.627869364
0
LINE
8
0
10
48.7396149191
20
140.627869364
11
48.5489696915
21
140.982421182
0
LINE
8
0
10
48.5489696915
20
140.982421182
11
48.3540915583
21
141.314948182
0
LINE
8
0
10
48.3540915583
20
141.314948182
11
48.0960847763
21
141.720284414
0
LINE
8
0
10
48.0960847763
20
141.720284414
11
47.7694058089
21
142.194132393
0
LINE
8
0
10
47.7694058089
20
142.194132393
11
47.3687455699
21
142.731888237
0
LINE
8
0
10
47.3687455699
20
142.731888237
11
46.8890443528
21
143.328653234
0
LINE
8
0
10
46.8890443528
20
143.328653234
11
46.3255062215
21
143.97924609
0
LINE
8
0
10
46.3255062215
20
143.97924609
11
46.0028534648
21
144.325199151
0
LINE
8
0
10
46.0028534648
20
144.325199151
11
44.8312474564
21
143.88654017
0
LINE
8
0
10
44.8312474564
20
143.88654017
11
43.7150083969
21
143.32165726
0
LINE
8
0
10
43.7150083969
20
143.32165726
11
43.7510075697
21
142.849966279
0
LINE
8
0
10
43.7510075697
20
142.849966279
11
43.8479902987
21
141.994723249
0
LINE
8
0
10
43.8479902987
20
141.994723249
11
43.9621517818
21
141.237617659
0
LINE
8
0
10
43.9621517818
20
141.237617659
11
44.0864318176
21
140.578630218
0
LINE
8
0
10
44.0864318176
20
140.578630218
11
44.2137994613
21
140.017356186
0
LINE
8
0
10
44.2137994613
20
140.017356186
11
44.3372717805
21
139.553007667
0
LINE
8
0
10
44.3372717805
20
139.553007667
11
44.4499324767
21
139.184416756
0
LINE
8
0
10
44.4499324767
20
139.184416756
11
44.5816642273
21
138.804023091
0
LINE
8
0
10
44.5816642273
20
138.804023091
11
44.6581547921
21
138.503177819
0
LINE
8
0
10
44.6581547921
20
138.503177819
11
44.6745530817
21
138.284577028
0
LINE
8
0
10
44.6745530817
20
138.284577028
11
44.6370710731
21
138.152115086
0
LINE
8
0
10
44.6370710731
20
138.152115086
11
42.1820940966
21
136.909751698
0
LINE
8
0
10
42.1820940966
20
136.909751698
11
42.053162719
21
136.957998635
0
LINE
8
0
10
42.053162719
20
136.957998635
11
41.8867334746
21
137.1006749
0
LINE
8
0
10
41.8867334746
20
137.1006749
11
41.6896232611
21
137.340479503
0
LINE
8
0
10
41.6896232611
20
137.340479503
11
41.4611315062
21
137.671906889
0
LINE
8
0
10
41.4611315062
20
137.671906889
11
41.2308554476
21
137.980977479
0
LINE
8
0
10
41.2308554476
20
137.980977479
11
40.9298242742
21
138.355470727
0
LINE
8
0
10
40.9298242742
20
138.355470727
11
40.5530008536
21
138.790505398
0
LINE
8
0
10
40.5530008536
20
138.790505398
11
40.0956147873
21
139.280921508
0
LINE
8
0
10
40.0956147873
20
139.280921508
11
39.5531759759
21
139.821293468
0
LINE
8
0
10
39.5531759759
20
139.821293468
11
38.9214875767
21
140.405943839
0
LINE
8
0
10
38.9214875767
20
140.405943839
11
38.5627354229
21
140.714302743
0
LINE
8
0
10
38.5627354229
20
140.714302743
11
37.4464963635
21
140.149419833
0
LINE
8
0
10
37.4464963635
20
140.149419833
11
36.3991738832
21
139.465169906
0
LINE
8
0
10
36.3991738832
20
139.465169906
11
36.486844451
21
139.000301975
0
LINE
8
0
10
36.486844451
20
139.000301975
11
36.6773223248
21
138.160918588
0
LINE
8
0
10
36.6773223248
20
138.160918588
11
36.8740787641
21
137.420966818
0
LINE
8
0
10
36.8740787641
20
137.420966818
11
37.0700985403
21
136.77965081
0
LINE
8
0
10
37.0700985403
20
136.77965081
11
37.2584379063
21
136.23579482
0
LINE
8
0
10
37.2584379063
20
136.23579482
11
37.4322429867
21
135.787847552
0
LINE
8
0
10
37.4322429867
20
135.787847552
11
37.5847679392
21
135.433887341
0
LINE
8
0
10
37.5847679392
20
135.433887341
11
37.7575465976
21
135.070293983
0
LINE
8
0
10
37.7575465976
20
135.070293983
11
37.8666683696
21
134.779689229
0
LINE
8
0
10
37.8666683696
20
134.779689229
11
37.9070150169
21
134.564219143
0
LINE
8
0
10
37.9070150169
20
134.564219143
11
37.8843324012
21
134.428437826
0
LINE
8
0
10
37.8843324012
20
134.428437826
11
35.5809256584
21
132.923547093
0
LINE
8
0
10
35.5809256584
20
132.923547093
11
35.4474692472
21
132.957317692
0
LINE
8
0
10
35.4474692472
20
132.957317692
11
35.2663545536
21
133.080819423
0
LINE
8
0
10
35.2663545536
20
133.080819423
11
35.0440601877
21
133.297484832
0
LINE
8
0
10
35.0440601877
20
133.297484832
11
34.7804954858
21
133.601764707
0
LINE
8
0
10
34.7804954858
20
133.601764707
11
34.5176167413
21
133.883627187
0
LINE
8
0
10
34.5176167413
20
133.883627187
11
34.1772152871
21
134.222731612
0
LINE
8
0
10
34.1772152871
20
134.222731612
11
33.7548215393
21
134.613672242
0
LINE
8
0
10
33.7548215393
20
134.613672242
11
33.2462616928
21
135.050795631
0
LINE
8
0
10
33.2462616928
20
135.050795631
11
32.6476697596
21
135.528215171
0
LINE
8
0
10
32.6476697596
20
135.528215171
11
31.9554989339
21
136.039826193
0
LINE
8
0
10
31.9554989339
20
136.039826193
11
31.5650021482
21
136.306847881
0
LINE
8
0
10
31.5650021482
20
136.306847881
11
30.5176796679
21
135.622597954
0
LINE
8
0
10
30.5176796679
20
135.622597954
11
29.5519868428
21
134.827286878
0
LINE
8
0
10
29.5519868428
20
134.827286878
11
29.6902646038
21
134.374884864
0
LINE
8
0
10
29.6902646038
20
134.374884864
11
29.9719254789
21
133.561550098
0
LINE
8
0
10
29.9719254789
20
133.561550098
11
30.2488885178
21
132.847734159
0
LINE
8
0
10
30.2488885178
20
132.847734159
11
30.5142686199
21
132.231874292
0
LINE
8
0
10
30.5142686199
20
132.231874292
11
30.7612935235
21
131.712038018
0
LINE
8
0
10
30.7612935235
20
131.712038018
11
30.9833216068
21
131.285929474
0
LINE
8
0
10
30.9833216068
20
131.285929474
11
31.1738593693
21
130.950896561
0
LINE
8
0
10
31.1738593693
20
130.950896561
11
31.3855876367
21
130.608517041
0
LINE
8
0
10
31.3855876367
20
130.608517041
11
31.5260160255
21
130.331680353
0
LINE
8
0
10
31.5260160255
20
130.331680353
11
31.5898212767
21
130.121956488
0
LINE
8
0
10
31.5898212767
20
130.121956488
11
31.5822133903
21
129.984503997
0
LINE
8
0
10
31.5822133903
20
129.984503997
11
29.4583371186
21
128.235353254
0
LINE
8
0
10
29.4583371186
20
128.235353254
11
29.3219756538
21
128.254237586
0
LINE
8
0
10
29.3219756538
20
128.254237586
11
29.1283739981
21
128.35706564
0
LINE
8
0
10
29.1283739981
20
128.35706564
11
28.8835938323
21
128.547961828
0
LINE
8
0
10
28.8835938323
20
128.547961828
11
28.588155502
21
128.821400646
0
LINE
8
0
10
28.588155502
20
128.821400646
11
28.2958650633
21
129.072633589
0
LINE
8
0
10
28.2958650633
20
129.072633589
11
27.9202253409
21
129.372232921
0
LINE
8
0
10
27.9202253409
20
129.372232921
11
27.4573885537
21
129.714334023
0
LINE
8
0
10
27.4573885537
20
129.714334023
11
26.9038281547
21
130.092858604
0
LINE
8
0
10
26.9038281547
20
130.092858604
11
26.2563491949
21
130.501530497
0
LINE
8
0
10
26.2563491949
20
130.501530497
11
25.5120979589
21
130.933891905
0
LINE
8
0
10
25.5120979589
20
130.933891905
11
25.0945966433
21
131.156335097
0
LINE
8
0
10
25.0945966433
20
131.156335097
11
24.1289038182
21
130.36102402
0
LINE
8
0
10
24.1289038182
20
130.36102402
11
23.2565628512
21
129.464305794
0
LINE
8
0
10
23.2565628512
20
129.464305794
11
23.4437693006
21
129.029861244
0
LINE
8
0
10
23.4437693006
20
129.029861244
11
23.8131941956
21
128.252447881
0
LINE
8
0
10
23.8131941956
20
128.252447881
11
24.167001878
21
127.573432533
0
LINE
8
0
10
24.167001878
20
127.573432533
11
24.4985209509
21
126.990504511
0
LINE
8
0
10
24.4985209509
20
126.990504511
11
24.8012328444
21
126.500998061
0
LINE
8
0
10
24.8012328444
20
126.500998061
11
25.0687888105
21
126.101900622
0
LINE
8
0
10
25.0687888105
20
126.101900622
11
25.2950265126
21
125.789861851
0
LINE
8
0
10
25.2950265126
20
125.789861851
11
25.5431342947
21
125.472852194
0
LINE
8
0
10
25.5431342947
20
125.472852194
11
25.7131646898
21
125.213143994
0
LINE
8
0
10
25.7131646898
20
125.213143994
11
25.7996540357
21
125.011712113
0
LINE
8
0
10
25.7996540357
20
125.011712113
11
25.807213228
21
124.874256936
0
LINE
8
0
10
25.807213228
20
124.874256936
11
23.8886484083
21
122.902078502
0
LINE
8
0
10
23.8886484083
20
122.902078502
11
23.7510371334
21
122.905847337
0
LINE
8
0
10
23.7510371334
20
122.905847337
11
23.5472985773
21
122.986753521
0
LINE
8
0
10
23.5472985773
20
122.986753521
11
23.2830039113
21
123.149563268
0
LINE
8
0
10
23.2830039113
20
123.149563268
11
22.9592781736
21
123.388841853
0
LINE
8
0
10
22.9592781736
20
123.388841853
11
22.6411240508
21
123.606395631
0
LINE
8
0
10
22.6411240508
20
123.606395631
11
22.2348058175
21
123.86285314
0
LINE
8
0
10
22.2348058175
20
123.86285314
11
21.7371442026
21
124.151962068
0
LINE
8
0
10
21.7371442026
20
124.151962068
11
21.1453027244
21
124.467293067
0
LINE
8
0
10
21.1453027244
20
124.467293067
11
20.4567962555
21
124.80225659
0
LINE
8
0
10
20.4567962555
20
124.80225659
11
19.669498811
21
125.150120103
0
LINE
8
0
10
19.669498811
20
125.150120103
11
19.2300608659
21
125.325284637
0
LINE
8
0
10
19.2300608659
20
125.325284637
11
18.3577198989
21
124.428566411
0
LINE
8
0
10
18.3577198989
20
124.428566411
11
17.5893198274
21
123.441325979
0
LINE
8
0
10
17.5893198274
20
123.441325979
11
17.8231825325
21
123.030112461
0
LINE
8
0
10
17.8231825325
20
123.030112461
11
18.2758871297
21
122.298057247
0
LINE
8
0
10
18.2758871297
20
122.298057247
11
18.7022447096
21
121.662084815
0
LINE
8
0
10
18.7022447096
20
121.662084815
11
19.0958785609
21
121.119164595
0
LINE
8
0
10
19.0958785609
20
121.119164595
11
19.450602932
21
120.665929915
0
LINE
8
0
10
19.450602932
20
120.665929915
11
19.7604390138
21
120.298688083
0
LINE
8
0
10
19.7604390138
20
120.298688083
11
20.0196304364
21
120.013431183
0
LINE
8
0
10
20.0196304364
20
120.013431183
11
20.3011060407
21
119.725639456
0
LINE
8
0
10
20.3011060407
20
119.725639456
11
20.4986745035
21
119.48621225
0
LINE
8
0
10
20.4986745035
20
119.48621225
11
20.6067980806
21
119.295517463
0
LINE
8
0
10
20.6067980806
20
119.295517463
11
20.6294325931
21
119.159728119
0
LINE
8
0
10
20.6294325931
20
119.159728119
11
18.9394680034
21
116.98846157
0
LINE
8
0
10
18.9394680034
20
116.98846157
11
18.802277333
21
116.977069159
0
LINE
8
0
10
18.802277333
20
116.977069159
11
18.5908749866
21
117.035071381
0
LINE
8
0
10
18.5908749866
20
117.035071381
11
18.3102739995
21
117.167818397
0
LINE
8
0
10
18.3102739995
20
117.167818397
11
17.9621904464
21
117.37003223
0
LINE
8
0
10
17.9621904464
20
117.37003223
11
17.6220345995
21
117.551266035
0
LINE
8
0
10
17.6220345995
20
117.551266035
11
17.1899700083
21
117.761468675
0
LINE
8
0
10
17.1899700083
20
117.761468675
11
16.6635245036
21
117.994076038
0
LINE
8
0
10
16.6635245036
20
117.994076038
11
16.0405861
21
118.242385764
0
LINE
8
0
10
16.0405861
20
118.242385764
11
15.3194096578
21
118.499574913
0
LINE
8
0
10
15.3194096578
20
118.499574913
11
14.4986227294
21
118.758717939
0
LINE
8
0
10
14.4986227294
20
118.758717939
11
14.0425823361
21
118.884477557
0
LINE
8
0
10
14.0425823361
20
118.884477557
11
13.2741822647
21
117.897237125
0
LINE
8
0
10
13.2741822647
20
117.897237125
11
12.6190504248
21
116.831458249
0
LINE
8
0
10
12.6190504248
20
116.831458249
11
12.8967306092
21
116.448467339
0
LINE
8
0
10
12.8967306092
20
116.448467339
11
13.427219688
21
115.770656431
0
LINE
8
0
10
13.427219688
20
115.770656431
11
13.9209517619
21
115.185446761
0
LINE
8
0
10
13.9209517619
20
115.185446761
11
14.3719222099
21
114.689124658
0
LINE
8
0
10
14.3719222099
20
114.689124658
11
14.7743531852
21
114.277663402
0
LINE
8
0
10
14.7743531852
20
114.277663402
11
15.1227083925
21
113.946734995
0
LINE
8
0
10
15.1227083925
20
113.946734995
11
15.4117073027
21
113.691722599
0
LINE
8
0
10
15.4117073027
20
113.691722599
11
15.7231339967
21
113.436642203
0
LINE
8
0
10
15.7231339967
20
113.436642203
11
15.9458423137
21
113.220402314
0
LINE
8
0
10
15.9458423137
20
113.220402314
11
16.0742876482
21
113.042759397
0
LINE
8
0
10
16.0742876482
20
113.042759397
11
16.1117227288
21
112.910284185
0
LINE
8
0
10
16.1117227288
20
112.910284185
11
14.6708722499
21
110.566285755
0
LINE
8
0
10
14.6708722499
20
110.566285755
11
14.5357674927
21
110.539870387
0
LINE
8
0
10
14.5357674927
20
110.539870387
11
14.3192674942
21
110.574264578
0
LINE
8
0
10
14.3192674942
20
110.574264578
11
14.0257663019
21
110.675337495
0
LINE
8
0
10
14.0257663019
20
110.675337495
11
13.6575501961
21
110.838031974
0
LINE
8
0
10
13.6575501961
20
110.838031974
11
13.2995216563
21
110.980745873
0
LINE
8
0
10
13.2995216563
20
110.980745873
11
12.8469553861
21
111.142142069
0
LINE
8
0
10
12.8469553861
20
111.142142069
11
12.2981163268
21
111.315424329
0
LINE
8
0
10
12.2981163268
20
111.315424329
11
11.6516426263
21
111.493698638
0
LINE
8
0
10
11.6516426263
20
111.493698638
11
10.9065503158
21
111.669991485
0
LINE
8
0
10
10.9065503158
20
111.669991485
11
10.0622371449
21
111.837268379
0
LINE
8
0
10
10.0622371449
20
111.837268379
11
9.59513001607
21
111.912096529
0
LINE
8
0
10
9.59513001607
20
111.912096529
11
8.93999817622
21
110.846317653
0
LINE
8
0
10
8.93999817622
20
110.846317653
11
8.40608698105
21
109.714937444
0
LINE
8
0
10
8.40608698105
20
109.714937444
11
8.72421398346
21
109.364818133
0
LINE
8
0
10
8.72421398346
20
109.364818133
11
9.32604812494
21
108.749479238
0
LINE
8
0
10
9.32604812494
20
108.749479238
11
9.88116145434
21
108.222135981
0
LINE
8
0
10
9.88116145434
20
108.222135981
11
10.3839943288
21
107.778436674
0
LINE
8
0
10
10.3839943288
20
107.778436674
11
10.8292469413
21
107.413743425
0
LINE
8
0
10
10.8292469413
20
107.413743425
11
11.2118927138
21
107.123145466
0
LINE
8
0
10
11.2118927138
20
107.123145466
11
11.5271910564
21
106.901473078
0
LINE
8
0
10
11.5271910564
20
106.901473078
11
11.8647885419
21
106.682200344
0
LINE
8
0
10
11.8647885419
20
106.682200344
11
12.1099333358
21
106.49177263
0
LINE
8
0
10
12.1099333358
20
106.49177263
11
12.2571412754
21
106.329337928
0
LINE
8
0
10
12.2571412754
20
106.329337928
11
12.3089225127
21
106.201784918
0
LINE
8
0
10
12.3089225127
20
106.201784918
11
11.1346761176
21
103.713507572
0
LINE
8
0
10
11.1346761176
20
103.713507572
11
11.0032972625
21
103.672389894
0
LINE
8
0
10
11.0032972625
20
103.672389894
11
10.7843276285
21
103.682758556
0
LINE
8
0
10
10.7843276285
20
103.682758556
11
10.481488938
21
103.750930484
0
LINE
8
0
10
10.481488938
20
103.750930484
11
10.0976099242
21
103.87213072
0
LINE
8
0
10
10.0976099242
20
103.87213072
11
9.72605467306
21
103.97459236
0
LINE
8
0
10
9.72605467306
20
103.97459236
11
9.25848026521
21
104.085222979
0
LINE
8
0
10
9.25848026521
20
104.085222979
11
8.69390981403
21
104.197076725
0
LINE
8
0
10
8.69390981403
20
104.197076725
11
8.03174813152
21
104.303151607
0
LINE
8
0
10
8.03174813152
20
104.303151607
11
7.27178436415
21
104.396408197
0
LINE
8
0
10
7.27178436415
20
104.396408197
11
6.41419376883
21
104.469788444
0
LINE
8
0
10
6.41419376883
20
104.469788444
11
5.94168995228
21
104.492776813
0
LINE
8
0
10
5.94168995228
20
104.492776813
11
5.40777875711
21
103.361396605
0
LINE
8
0
10
5.40777875711
20
103.361396605
11
5.00156916525
21
102.178148487
0
LINE
8
0
10
5.00156916525
20
102.178148487
11
5.3562813548
21
101.865150748
0
LINE
8
0
10
5.3562813548
20
101.865150748
11
6.02215510783
21
101.319753247
0
LINE
8
0
10
6.02215510783
20
101.319753247
11
6.63191136888
21
100.856677636
0
LINE
8
0
10
6.63191136888
20
100.856677636
11
7.18050295972
21
100.470987033
0
LINE
8
0
10
7.18050295972
20
100.470987033
11
7.66317244604
21
100.157488673
0
LINE
8
0
10
7.66317244604
20
100.157488673
11
8.0754639823
21
99.9107486278
0
LINE
8
0
10
8.0754639823
20
99.9107486278
11
8.41323446254
21
99.7251070512
0
LINE
8
0
10
8.41323446254
20
99.7251070512
11
8.7729047634
21
99.5443036525
0
LINE
8
0
10
8.7729047634
20
99.5443036525
11
9.03751030851
21
99.3819996484
0
LINE
8
0
10
9.03751030851
20
99.3819996484
11
9.20169394815
21
99.2367448988
0
LINE
8
0
10
9.20169394815
20
99.2367448988
11
9.26719278826
21
99.1156624103
0
LINE
8
0
10
9.26719278826
20
99.1156624103
11
8.37380423748
21
96.5133104665
0
LINE
8
0
10
8.37380423748
20
96.5133104665
11
8.24774604572
21
96.4579895901
0
LINE
8
0
10
8.24774604572
20
96.4579895901
11
8.02896477097
21
96.4442068617
0
LINE
8
0
10
8.02896477097
20
96.4442068617
11
7.72046463364
21
96.4786502869
0
LINE
8
0
10
7.72046463364
20
96.4786502869
11
7.32558248321
21
96.5568850719
0
LINE
8
0
10
7.32558248321
20
96.5568850719
11
6.94501069806
21
96.6178507065
0
LINE
8
0
10
6.94501069806
20
96.6178507065
11
6.46810387253
21
96.6763728444
0
LINE
8
0
10
6.46810387253
20
96.6763728444
11
5.89465514996
21
96.7254403232
0
LINE
8
0
10
5.89465514996
20
96.7254403232
11
5.2248432313
21
96.7580281738
0
LINE
8
0
10
5.2248432313
20
96.7580281738
11
4.45923293768
21
96.7671164975
0
LINE
8
0
10
4.45923293768
20
96.7671164975
11
3.59877490609
21
96.7457093595
0
LINE
8
0
10
3.59877490609
20
96.7457093595
11
3.12660995805
21
96.7165789008
0
LINE
8
0
10
3.12660995805
20
96.7165789008
11
2.7204003662
21
95.5333307832
0
LINE
8
0
10
2.7204003662
20
95.5333307832
11
2.44682321185
21
94.3125777857
0
LINE
8
0
10
2.44682321185
20
94.3125777857
11
2.83381486305
21
94.0405009883
0
LINE
8
0
10
2.83381486305
20
94.0405009883
11
3.5556454223
21
93.5716652671
0
LINE
8
0
10
3.5556454223
20
93.5716652671
11
4.21264299998
21
93.178478413
0
LINE
8
0
10
4.21264299998
20
93.178478413
11
4.80033414847
21
92.8554782762
0
LINE
8
0
10
4.80033414847
20
92.8554782762
11
5.31456155482
21
92.5969802502
0
LINE
8
0
10
5.31456155482
20
92.5969802502
11
5.75149419415
21
92.3970932082
0
LINE
8
0
10
5.75149419415
20
92.3970932082
11
6.10763673593
21
92.24973588
0
LINE
8
0
10
6.10763673593
20
92.24973588
11
6.48501394191
21
92.1095965254
0
LINE
8
0
10
6.48501394191
20
92.1095965254
11
6.76586828535
21
91.9773863819
0
LINE
8
0
10
6.76586828535
20
91.9773863819
11
6.94503465808
21
91.8510747804
0
LINE
8
0
10
6.94503465808
20
91.8510747804
11
7.02345603375
21
91.7379325915
0
LINE
8
0
10
7.02345603375
20
91.7379325915
11
6.42176985412
21
89.0530950762
0
LINE
8
0
10
6.42176985412
20
89.0530950762
11
6.30256250139
21
88.9842425226
0
LINE
8
0
10
6.30256250139
20
88.9842425226
11
6.08662529422
21
88.9464757073
0
LINE
8
0
10
6.08662529422
20
88.9464757073
11
5.77620848385
21
88.9467725329
0
LINE
8
0
10
5.77620848385
20
88.9467725329
11
5.37511653108
21
88.9810922028
0
LINE
8
0
10
5.37511653108
20
88.9810922028
11
4.9901478379
21
88.9998217923
0
LINE
8
0
10
4.9901478379
20
88.9998217923
11
4.50969759751
21
89.005525069
0
LINE
8
0
10
4.50969759751
20
89.005525069
11
3.93433149422
21
88.9912106676
0
LINE
8
0
10
3.93433149422
20
88.9912106676
11
3.26499994876
21
88.9499159145
0
LINE
8
0
10
3.26499994876
20
88.9499159145
11
2.50303660074
21
88.8747256519
0
LINE
8
0
10
2.50303660074
20
88.8747256519
11
1.65015592777
21
88.7587909834
0
LINE
8
0
10
1.65015592777
20
88.7587909834
11
1.1840612911
21
88.6778953008
0
LINE
8
0
10
1.1840612911
20
88.6778953008
11
0.910484136749
21
87.4571423033
0
LINE
8
0
10
0.910484136749
20
87.4571423033
11
0.772860275953
21
86.2137027136
0
LINE
8
0
10
0.772860275953
20
86.2137027136
11
1.1874338344
21
85.9858495012
0
LINE
8
0
10
1.1874338344
20
85.9858495012
11
1.95645915469
21
85.599266591
0
LINE
8
0
10
1.95645915469
20
85.599266591
11
2.65272298841
21
85.2807412495
0
LINE
8
0
10
2.65272298841
20
85.2807412495
11
3.27237992011
21
85.0243523625
0
LINE
8
0
10
3.27237992011
20
85.0243523625
11
3.81192322237
21
84.8239924866
0
LINE
8
0
10
3.81192322237
20
84.8239924866
11
4.26819319441
21
84.6733848059
0
LINE
8
0
10
4.26819319441
20
84.6733848059
11
4.63838470971
21
84.5661004443
0
LINE
8
0
10
4.63838470971
20
84.5661004443
11
5.02888797276
21
84.4683262357
0
LINE
8
0
10
5.02888797276
20
84.4683262357
11
5.32258192324
21
84.3678148049
0
LINE
8
0
10
5.32258192324
20
84.3678148049
11
5.51455619201
21
84.2619796033
0
LINE
8
0
10
5.51455619201
20
84.2619796033
11
5.60494817396
21
84.1581511068
0
LINE
8
0
10
5.60494817396
20
84.1581511068
11
5.30226802063
21
81.4234183105
0
LINE
8
0
10
5.30226802063
20
81.4234183105
11
5.19135852271
21
81.3418698565
0
LINE
8
0
10
5.19135852271
20
81.3418698565
11
4.9808865683
21
81.2805773921
0
LINE
8
0
10
4.9808865683
20
81.2805773921
11
4.67232112446
21
81.2467240151
0
LINE
8
0
10
4.67232112446
20
81.2467240151
11
4.26988808235
21
81.2367119758
0
LINE
8
0
10
4.26988808235
20
81.2367119758
11
3.88519547956
21
81.2129781683
0
LINE
8
0
10
3.88519547956
20
81.2129781683
11
3.4070338394
21
81.1657933537
0
LINE
8
0
10
3.4070338394
20
81.1657933537
11
2.83673452048
21
81.0882708296
0
LINE
8
0
10
2.83673452048
20
81.0882708296
11
2.17600812647
21
80.9735947351
0
LINE
8
0
10
2.17600812647
20
80.9735947351
11
1.42694092692
21
80.815038594
0
LINE
8
0
10
1.42694092692
20
80.815038594
11
0.591990428594
21
80.6059836849
0
LINE
8
0
10
0.591990428594
20
80.6059836849
11
0.137623860797
21
80.4743047426
0
LINE
8
0
10
0.137623860797
20
80.4743047426
11
2.84217094304e-13
21
79.2308651529
0
LINE
8
0
10
2.84217094304e-13
20
79.2308651529
11
2.41584530158e-13
21
77.9798326432
0
LINE
8
0
10
2.41584530158e-13
20
77.9798326432
11
0.437123104296
21
77.7989688451
0
LINE
8
0
10
0.437123104296
20
77.7989688451
11
1.24400825998
21
77.4993313387
0
LINE
8
0
10
1.24400825998
20
77.4993313387
11
1.97108664998
21
77.259333976
0
LINE
8
0
10
1.97108664998
20
77.259333976
11
2.61518756915
21
77.0726685525
0
LINE
8
0
10
2.61518756915
20
77.0726685525
11
3.17349744252
21
76.9328789242
0
LINE
8
0
10
3.17349744252
20
76.9328789242
11
3.64356624788
21
76.8333787781
0
LINE
8
0
10
3.64356624788
20
76.8333787781
11
4.02331311319
21
76.7674696698
0
LINE
8
0
10
4.02331311319
20
76.7674696698
11
4.42220225267
21
76.7132474537
0
LINE
8
0
10
4.42220225267
20
76.7132474537
11
4.72517076349
21
76.6456548083
0
LINE
8
0
10
4.72517076349
20
76.6456548083
11
4.92762262073
21
76.5615807024
0
LINE
8
0
10
4.92762262073
20
76.5615807024
11
5.02888797276
21
76.4683262357
0
LINE
8
0
10
5.02888797276
20
76.4683262357
11
5.02888797276
21
73.71689411
0
LINE
8
0
10
5.02888797276
20
73.71689411
11
4.92762262073
21
73.6236396433
0
LINE
8
0
10
4.92762262073
20
73.6236396433
11
4.72517076349
21
73.5395655374
0
LINE
8
0
10
4.72517076349
20
73.5395655374
11
4.42220225267
21
73.471972892
0
LINE
8
0
10
4.42220225267
20
73.471972892
11
4.02331311319
21
73.4177506759
0
LINE
8
0
10
4.02331311319
20
73.4177506759
11
3.64356624788
21
73.3518415676
0
LINE
8
0
10
3.64356624788
20
73.3518415676
11
3.17349744252
21
73.2523414215
0
LINE
8
0
10
3.17349744252
20
73.2523414215
11
2.61518756915
21
73.1125517931
0
LINE
8
0
10
2.61518756915
20
73.1125517931
11
1.97108664998
21
72.9258863697
0
LINE
8
0
10
1.97108664998
20
72.9258863697
11
1.24400825998
21
72.685889007
0
LINE
8
0
10
1.24400825998
20
72.685889007
11
0.437123104296
21
72.3862515006
0
LINE
8
0
10
0.437123104296
20
72.3862515006
11
4.26325641456e-14
21
72.2053877025
0
LINE
8
0
10
4.26325641456e-14
20
72.2053877025
11
0.0
21
70.9543551928
0
LINE
8
0
10
0.0
20
70.9543551928
11
0.137623860797
21
69.7109156031
0
LINE
8
0
10
0.137623860797
20
69.7109156031
11
0.591990428594
21
69.5792366608
0
LINE
8
0
10
0.591990428594
20
69.5792366608
11
1.42694092692
21
69.3701817516
0
LINE
8
0
10
1.42694092692
20
69.3701817516
11
2.17600812647
21
69.2116256106
0
LINE
8
0
10
2.17600812647
20
69.2116256106
11
2.83673452048
21
69.0969495161
0
LINE
8
0
10
2.83673452048
20
69.0969495161
11
3.4070338394
21
69.019426992
0
LINE
8
0
10
3.4070338394
20
69.019426992
11
3.88519547957
21
68.9722421774
0
LINE
8
0
10
3.88519547957
20
68.9722421774
11
4.26988808236
21
68.9485083699
0
LINE
8
0
10
4.26988808236
20
68.9485083699
11
4.67232112446
21
68.9384963305
0
LINE
8
0
10
4.67232112446
20
68.9384963305
11
4.9808865683
21
68.9046429535
0
LINE
8
0
10
4.9808865683
20
68.9046429535
11
5.19135852271
21
68.8433504892
0
LINE
8
0
10
5.19135852271
20
68.8433504892
11
5.30226802063
21
68.7618020352
0
LINE
8
0
10
5.30226802063
20
68.7618020352
11
5.60494817396
21
66.0270692389
0
LINE
8
0
10
5.60494817396
20
66.0270692389
11
5.51455619201
21
65.9232407424
0
LINE
8
0
10
5.51455619201
20
65.9232407424
11
5.32258192324
21
65.8174055408
0
LINE
8
0
10
5.32258192324
20
65.8174055408
11
5.02888797276
21
65.71689411
0
LINE
8
0
10
5.02888797276
20
65.71689411
11
4.63838470971
21
65.6191199014
0
LINE
8
0
10
4.63838470971
20
65.6191199014
11
4.26819319441
21
65.5118355397
0
LINE
8
0
10
4.26819319441
20
65.5118355397
11
3.81192322237
21
65.3612278591
0
LINE
8
0
10
3.81192322237
20
65.3612278591
11
3.27237992011
21
65.1608679832
0
LINE
8
0
10
3.27237992011
20
65.1608679832
11
2.65272298841
21
64.9044790962
0
LINE
8
0
10
2.65272298841
20
64.9044790962
11
1.95645915469
21
64.5859537547
0
LINE
8
0
10
1.95645915469
20
64.5859537547
11
1.1874338344
21
64.1993708445
0
LINE
8
0
10
1.1874338344
20
64.1993708445
11
0.772860275952
21
63.971517632
0
LINE
8
0
10
0.772860275952
20
63.971517632
11
0.910484136749
21
62.7280780423
0
LINE
8
0
10
0.910484136749
20
62.7280780423
11
1.1840612911
21
61.5073250448
0
LINE
8
0
10
1.1840612911
20
61.5073250448
11
1.65015592777
21
61.4264293623
0
LINE
8
0
10
1.65015592777
20
61.4264293623
11
2.50303660074
21
61.3104946938
0
LINE
8
0
10
2.50303660074
20
61.3104946938
11
3.26499994876
21
61.2353044312
0
LINE
8
0
10
3.26499994876
20
61.2353044312
11
3.93433149422
21
61.1940096781
0
LINE
8
0
10
3.93433149422
20
61.1940096781
11
4.50969759751
21
61.1796952767
0
LINE
8
0
10
4.50969759751
20
61.1796952767
11
4.9901478379
21
61.1853985534
0
LINE
8
0
10
4.9901478379
20
61.1853985534
11
5.37511653109
21
61.2041281429
0
LINE
8
0
10
5.37511653109
20
61.2041281429
11
5.77620848385
21
61.2384478128
0
LINE
8
0
10
5.77620848385
20
61.2384478128
11
6.08662529422
21
61.2387446384
0
LINE
8
0
10
6.08662529422
20
61.2387446384
11
6.30256250139
21
61.2009778231
0
LINE
8
0
10
6.30256250139
20
61.2009778231
11
6.42176985412
21
61.1321252695
0
LINE
8
0
10
6.42176985412
20
61.1321252695
11
7.02345603375
21
58.4472877542
0
LINE
8
0
10
7.02345603375
20
58.4472877542
11
6.94503465808
21
58.3341455653
0
LINE
8
0
10
6.94503465808
20
58.3341455653
11
6.76586828535
21
58.2078339638
0
LINE
8
0
10
6.76586828535
20
58.2078339638
11
6.48501394191
21
58.0756238203
0
LINE
8
0
10
6.48501394191
20
58.0756238203
11
6.10763673592
21
57.9354844657
0
LINE
8
0
10
6.10763673592
20
57.9354844657
11
5.75149419415
21
57.7881271374
0
LINE
8
0
10
5.75149419415
20
57.7881271374
11
5.31456155482
21
57.5882400955
0
LINE
8
0
10
5.31456155482
20
57.5882400955
11
4.80033414847
21
57.3297420695
0
LINE
8
0
10
4.80033414847
20
57.3297420695
11
4.21264299998
21
57.0067419327
0
LINE
8
0
10
4.21264299998
20
57.0067419327
11
3.5556454223
21
56.6135550786
0
LINE
8
0
10
3.5556454223
20
56.6135550786
11
2.83381486305
21
56.1447193574
0
LINE
8
0
10
2.83381486305
20
56.1447193574
11
2.44682321185
21
55.87264256
0
LINE
8
0
10
2.44682321185
20
55.87264256
11
2.7204003662
21
54.6518895625
0
LINE
8
0
10
2.7204003662
20
54.6518895625
11
3.12660995805
21
53.4686414449
0
LINE
8
0
10
3.12660995805
20
53.4686414449
11
3.59877490609
21
53.4395109862
0
LINE
8
0
10
3.59877490609
20
53.4395109862
11
4.45923293768
21
53.4181038482
0
LINE
8
0
10
4.45923293768
20
53.4181038482
11
5.2248432313
21
53.4271921718
0
LINE
8
0
10
5.2248432313
20
53.4271921718
11
5.89465514996
21
53.4597800225
0
LINE
8
0
10
5.89465514996
20
53.4597800225
11
6.46810387253
21
53.5088475013
0
LINE
8
0
10
6.46810387253
20
53.5088475013
11
6.94501069806
21
53.5673696392
0
LINE
8
0
10
6.94501069806
20
53.5673696392
11
7.32558248321
21
53.6283352738
0
LINE
8
0
10
7.32558248321
20
53.6283352738
11
7.72046463364
21
53.7065700588
0
LINE
8
0
10
7.72046463364
20
53.7065700588
11
8.02896477097
21
53.7410134839
0
LINE
8
0
10
8.02896477097
20
53.7410134839
11
8.24774604572
21
53.7272307556
0
LINE
8
0
10
8.24774604572
20
53.7272307556
11
8.37380423748
21
53.6719098792
0
LINE
8
0
10
8.37380423748
20
53.6719098792
11
9.26719278826
21
51.0695579353
0
LINE
8
0
10
9.26719278826
20
51.0695579353
11
9.20169394815
21
50.9484754468
0
LINE
8
0
10
9.20169394815
20
50.9484754468
11
9.03751030851
21
50.8032206973
0
LINE
8
0
10
9.03751030851
20
50.8032206973
11
8.7729047634
21
50.6409166932
0
LINE
8
0
10
8.7729047634
20
50.6409166932
11
8.41323446253
21
50.4601132945
0
LINE
8
0
10
8.41323446253
20
50.4601132945
11
8.0754639823
21
50.2744717179
0
LINE
8
0
10
8.0754639823
20
50.2744717179
11
7.66317244604
21
50.0277316726
0
LINE
8
0
10
7.66317244604
20
50.0277316726
11
7.18050295972
21
49.7142333123
0
LINE
8
0
10
7.18050295972
20
49.7142333123
11
6.63191136888
21
49.3285427098
0
LINE
8
0
10
6.63191136888
20
49.3285427098
11
6.02215510783
21
48.8654670989
0
LINE
8
0
10
6.02215510783
20
48.8654670989
11
5.3562813548
21
48.3200695973
0
LINE
8
0
10
5.3562813548
20
48.3200695973
11
5.00156916525
21
48.0070718587
0
LINE
8
0
10
5.00156916525
20
48.0070718587
11
5.40777875711
21
46.8238237412
0
LINE
8
0
10
5.40777875711
20
46.8238237412
11
5.94168995228
21
45.6924435328
0
LINE
8
0
10
5.94168995228
20
45.6924435328
11
6.41419376883
21
45.7154319021
0
LINE
8
0
10
6.41419376883
20
45.7154319021
11
7.27178436415
21
45.7888121482
0
LINE
8
0
10
7.27178436415
20
45.7888121482
11
8.03174813153
21
45.8820687383
0
LINE
8
0
10
8.03174813153
20
45.8820687383
11
8.69390981403
21
45.9881436204
0
LINE
8
0
10
8.69390981403
20
45.9881436204
11
9.25848026521
21
46.0999973666
0
LINE
8
0
10
9.25848026521
20
46.0999973666
11
9.72605467306
21
46.2106279862
0
LINE
8
0
10
9.72605467306
20
46.2106279862
11
10.0976099242
21
46.3130896258
0
LINE
8
0
10
10.0976099242
20
46.3130896258
11
10.481488938
21
46.4342898615
0
LINE
8
0
10
10.481488938
20
46.4342898615
11
10.7843276285
21
46.5024617896
0
LINE
8
0
10
10.7843276285
20
46.5024617896
11
11.0032972625
21
46.5128304519
0
LINE
8
0
10
11.0032972625
20
46.5128304519
11
11.1346761176
21
46.4717127732
0
LINE
8
0
10
11.1346761176
20
46.4717127732
11
12.3089225127
21
43.9834354282
0
LINE
8
0
10
12.3089225127
20
43.9834354282
11
12.2571412754
21
43.8558824175
0
LINE
8
0
10
12.2571412754
20
43.8558824175
11
12.1099333358
21
43.6934477158
0
LINE
8
0
10
12.1099333358
20
43.6934477158
11
11.8647885419
21
43.5030200017
0
LINE
8
0
10
11.8647885419
20
43.5030200017
11
11.5271910564
21
43.2837472672
0
LINE
8
0
10
11.5271910564
20
43.2837472672
11
11.2118927138
21
43.0620748797
0
LINE
8
0
10
11.2118927138
20
43.0620748797
11
10.8292469413
21
42.7714769209
0
LINE
8
0
10
10.8292469413
20
42.7714769209
11
10.3839943288
21
42.4067836718
0
LINE
8
0
10
10.3839943288
20
42.4067836718
11
9.88116145434
21
41.9630843651
0
LINE
8
0
10
9.88116145434
20
41.9630843651
11
9.32604812494
21
41.4357411079
0
LINE
8
0
10
9.32604812494
20
41.4357411079
11
8.72421398346
21
40.8204022128
0
LINE
8
0
10
8.72421398346
20
40.8204022128
11
8.40608698105
21
40.4702829016
0
LINE
8
0
10
8.40608698105
20
40.4702829016
11
8.93999817622
21
39.3389026932
0
LINE
8
0
10
8.93999817622
20
39.3389026932
11
9.59513001607
21
38.2731238171
0
LINE
8
0
10
9.59513001607
20
38.2731238171
11
10.0622371449
21
38.3479519669
0
LINE
8
0
10
10.0622371449
20
38.3479519669
11
10.9065503158
21
38.5152288603
0
LINE
8
0
10
10.9065503158
20
38.5152288603
11
11.6516426263
21
38.6915217081
0
LINE
8
0
10
11.6516426263
20
38.6915217081
11
12.2981163268
21
38.8697960162
0
LINE
8
0
10
12.2981163268
20
38.8697960162
11
12.8469553861
21
39.0430782769
0
LINE
8
0
10
12.8469553861
20
39.0430782769
11
13.2995216563
21
39.2044744724
0
LINE
8
0
10
13.2995216563
20
39.2044744724
11
13.6575501961
21
39.3471883714
0
LINE
8
0
10
13.6575501961
20
39.3471883714
11
14.0257663019
21
39.5098828511
0
LINE
8
0
10
14.0257663019
20
39.5098828511
11
14.3192674942
21
39.6109557675
0
LINE
8
0
10
14.3192674942
20
39.6109557675
11
14.5357674927
21
39.6453499589
0
LINE
8
0
10
14.5357674927
20
39.6453499589
11
14.6708722499
21
39.6189345908
0
LINE
8
0
10
14.6708722499
20
39.6189345908
11
16.1117227288
21
37.2749361608
0
LINE
8
0
10
16.1117227288
20
37.2749361608
11
16.0742876482
21
37.1424609487
0
LINE
8
0
10
16.0742876482
20
37.1424609487
11
15.9458423137
21
36.964818032
0
LINE
8
0
10
15.9458423137
20
36.964818032
11
15.7231339967
21
36.7485781426
0
LINE
8
0
10
15.7231339967
20
36.7485781426
11
15.4117073027
21
36.4934977463
0
LINE
8
0
10
15.4117073027
20
36.4934977463
11
15.1227083925
21
36.2384853502
0
LINE
8
0
10
15.1227083925
20
36.2384853502
11
14.7743531852
21
35.9075569435
0
LINE
8
0
10
14.7743531852
20
35.9075569435
11
14.3719222099
21
35.4960956876
0
LINE
8
0
10
14.3719222099
20
35.4960956876
11
13.9209517619
21
34.9997735852
0
LINE
8
0
10
13.9209517619
20
34.9997735852
11
13.427219688
21
34.4145639146
0
LINE
8
0
10
13.427219688
20
34.4145639146
11
12.8967306092
21
33.7367530066
0
LINE
8
0
10
12.8967306092
20
33.7367530066
11
12.6190504248
21
33.3537620968
0
LINE
8
0
10
12.6190504248
20
33.3537620968
11
13.2741822647
21
32.2879832207
0
LINE
8
0
10
13.2741822647
20
32.2879832207
11
14.0425823361
21
31.3007427888
0
LINE
8
0
10
14.0425823361
20
31.3007427888
11
14.4986227294
21
31.4265024067
0
LINE
8
0
10
14.4986227294
20
31.4265024067
11
15.3194096578
21
31.6856454325
0
LINE
8
0
10
15.3194096578
20
31.6856454325
11
16.0405861
21
31.9428345817
0
LINE
8
0
10
16.0405861
20
31.9428345817
11
16.6635245036
21
32.1911443072
0
LINE
8
0
10
16.6635245036
20
32.1911443072
11
17.1899700083
21
32.4237516705
0
LINE
8
0
10
17.1899700083
20
32.4237516705
11
17.6220345995
21
32.6339543106
0
LINE
8
0
10
17.6220345995
20
32.6339543106
11
17.9621904464
21
32.8151881156
0
LINE
8
0
10
17.9621904464
20
32.8151881156
11
18.3102739995
21
33.0174019488
0
LINE
8
0
10
18.3102739995
20
33.0174019488
11
18.5908749866
21
33.150148965
0
LINE
8
0
10
18.5908749866
20
33.150148965
11
18.802277333
21
33.2081511867
0
LINE
8
0
10
18.802277333
20
33.2081511867
11
18.9394680034
21
33.196758776
0
LINE
8
0
10
18.9394680034
20
33.196758776
11
20.6294325931
21
31.0254922267
0
LINE
8
0
10
20.6294325931
20
31.0254922267
11
20.6067980806
21
30.8897028828
0
LINE
8
0
10
20.6067980806
20
30.8897028828
11
20.4986745035
21
30.6990080956
0
LINE
8
0
10
20.4986745035
20
30.6990080956
11
20.3011060407
21
30.4595808901
0
LINE
8
0
10
20.3011060407
20
30.4595808901
11
20.0196304364
21
30.1717891624
0
LINE
8
0
10
20.0196304364
20
30.1717891624
11
19.7604390138
21
29.8865322629
0
LINE
8
0
10
19.7604390138
20
29.8865322629
11
19.450602932
21
29.5192904308
0
LINE
8
0
10
19.450602932
20
29.5192904308
11
19.0958785609
21
29.0660557504
0
LINE
8
0
10
19.0958785609
20
29.0660557504
11
18.7022447096
21
28.5231355303
0
LINE
8
0
10
18.7022447096
20
28.5231355303
11
18.2758871297
21
27.8871630989
0
LINE
8
0
10
18.2758871297
20
27.8871630989
11
17.8231825325
21
27.1551078842
0
LINE
8
0
10
17.8231825325
20
27.1551078842
11
17.5893198274
21
26.7438943668
0
LINE
8
0
10
17.5893198274
20
26.7438943668
11
18.3577198989
21
25.7566539348
0
LINE
8
0
10
18.3577198989
20
25.7566539348
11
19.2300608659
21
24.8599357085
0
LINE
8
0
10
19.2300608659
20
24.8599357085
11
19.669498811
21
25.035100243
0
LINE
8
0
10
19.669498811
20
25.035100243
11
20.4567962555
21
25.382963756
0
LINE
8
0
10
20.4567962555
20
25.382963756
11
21.1453027244
21
25.7179272787
0
LINE
8
0
10
21.1453027244
20
25.7179272787
11
21.7371442026
21
26.0332582779
0
LINE
8
0
10
21.7371442026
20
26.0332582779
11
22.2348058175
21
26.3223672055
0
LINE
8
0
10
22.2348058175
20
26.3223672055
11
22.6411240508
21
26.578824715
0
LINE
8
0
10
22.6411240508
20
26.578824715
11
22.9592781736
21
26.7963784932
0
LINE
8
0
10
22.9592781736
20
26.7963784932
11
23.2830039113
21
27.0356570778
0
LINE
8
0
10
23.2830039113
20
27.0356570778
11
23.5472985773
21
27.1984668249
0
LINE
8
0
10
23.5472985773
20
27.1984668249
11
23.7510371334
21
27.2793730084
0
LINE
8
0
10
23.7510371334
20
27.2793730084
11
23.8886484083
21
27.2831418435
0
LINE
8
0
10
23.8886484083
20
27.2831418435
11
25.807213228
21
25.3109634096
0
LINE
8
0
10
25.807213228
20
25.3109634096
11
25.7996540357
21
25.1735082326
0
LINE
8
0
10
25.7996540357
20
25.1735082326
11
25.7131646898
21
24.9720763512
0
LINE
8
0
10
25.7131646898
20
24.9720763512
11
25.5431342947
21
24.7123681515
0
LINE
8
0
10
25.5431342947
20
24.7123681515
11
25.2950265126
21
24.3953584942
0
LINE
8
0
10
25.2950265126
20
24.3953584942
11
25.0687888105
21
24.0833197236
0
LINE
8
0
10
25.0687888105
20
24.0833197236
11
24.8012328444
21
23.6842222845
0
LINE
8
0
10
24.8012328444
20
23.6842222845
11
24.4985209509
21
23.1947158347
0
LINE
8
0
10
24.4985209509
20
23.1947158347
11
24.167001878
21
22.6117878128
0
LINE
8
0
10
24.167001878
20
22.6117878128
11
23.8131941956
21
21.9327724645
0
LINE
8
0
10
23.8131941956
20
21.9327724645
11
23.4437693006
21
21.1553591018
0
LINE
8
0
10
23.4437693006
20
21.1553591018
11
23.2565628512
21
20.7209145517
0
LINE
8
0
10
23.2565628512
20
20.7209145517
11
24.1289038182
21
19.8241963253
0
LINE
8
0
10
24.1289038182
20
19.8241963253
11
25.0945966433
21
19.0288852492
0
LINE
8
0
10
25.0945966433
20
19.0288852492
11
25.5120979589
21
19.2513284402
0
LINE
8
0
10
25.5120979589
20
19.2513284402
11
26.2563491949
21
19.6836898486
0
LINE
8
0
10
26.2563491949
20
19.6836898486
11
26.9038281547
21
20.0923617414
0
LINE
8
0
10
26.9038281547
20
20.0923617414
11
27.4573885537
21
20.4708863231
0
LINE
8
0
10
27.4573885537
20
20.4708863231
11
27.9202253409
21
20.8129874242
0
LINE
8
0
10
27.9202253409
20
20.8129874242
11
28.2958650633
21
21.1125867563
0
LINE
8
0
10
28.2958650633
20
21.1125867563
11
28.588155502
21
21.3638196995
0
LINE
8
0
10
28.588155502
20
21.3638196995
11
28.8835938323
21
21.6372585176
0
LINE
8
0
10
28.8835938323
20
21.6372585176
11
29.1283739981
21
21.8281547059
0
LINE
8
0
10
29.1283739981
20
21.8281547059
11
29.3219756538
21
21.9309827598
0
LINE
8
0
10
29.3219756538
20
21.9309827598
11
29.4583371186
21
21.9498670921
0
LINE
8
0
10
29.4583371186
20
21.9498670921
11
31.5822133903
21
20.2007163482
0
LINE
8
0
10
31.5822133903
20
20.2007163482
11
31.5898212767
21
20.0632638577
0
LINE
8
0
10
31.5898212767
20
20.0632638577
11
31.5260160255
21
19.8535399924
0
LINE
8
0
10
31.5260160255
20
19.8535399924
11
31.3855876367
21
19.5767033042
0
LINE
8
0
10
31.3855876367
20
19.5767033042
11
31.1738593693
21
19.2343237852
0
LINE
8
0
10
31.1738593693
20
19.2343237852
11
30.9833216068
21
18.8992908714
0
LINE
8
0
10
30.9833216068
20
18.8992908714
11
30.7612935235
21
18.4731823276
0
LINE
8
0
10
30.7612935235
20
18.4731823276
11
30.5142686199
21
17.9533460535
0
LINE
8
0
10
30.5142686199
20
17.9533460535
11
30.2488885178
21
17.3374861864
0
LINE
8
0
10
30.2488885178
20
17.3374861864
11
29.9719254789
21
16.6236702477
0
LINE
8
0
10
29.9719254789
20
16.6236702477
11
29.6902646038
21
15.810335482
0
LINE
8
0
10
29.6902646038
20
15.810335482
11
29.5519868428
21
15.3579334676
0
LINE
8
0
10
29.5519868428
20
15.3579334676
11
30.5176796679
21
14.5626223914
0
LINE
8
0
10
30.5176796679
20
14.5626223914
11
31.5650021482
21
13.8783724645
0
LINE
8
0
10
31.5650021482
20
13.8783724645
11
31.9554989339
21
14.145394153
0
LINE
8
0
10
31.9554989339
20
14.145394153
11
32.6476697596
21
14.657005175
0
LINE
8
0
10
32.6476697596
20
14.657005175
11
33.2462616928
21
15.1344247146
0
LINE
8
0
10
33.2462616928
20
15.1344247146
11
33.7548215393
21
15.5715481033
0
LINE
8
0
10
33.7548215393
20
15.5715481033
11
34.1772152871
21
15.962488734
0
LINE
8
0
10
34.1772152871
20
15.962488734
11
34.5176167413
21
16.3015931586
0
LINE
8
0
10
34.5176167413
20
16.3015931586
11
34.7804954858
21
16.5834556392
0
LINE
8
0
10
34.7804954858
20
16.5834556392
11
35.0440601877
21
16.887735514
0
LINE
8
0
10
35.0440601877
20
16.887735514
11
35.2663545536
21
17.1044009223
0
LINE
8
0
10
35.2663545536
20
17.1044009223
11
35.4474692472
21
17.2279026533
0
LINE
8
0
10
35.4474692472
20
17.2279026533
11
35.5809256584
21
17.2616732527
0
LINE
8
0
10
35.5809256584
20
17.2616732527
11
37.8843324012
21
15.7567825193
0
LINE
8
0
10
37.8843324012
20
15.7567825193
11
37.9070150169
21
15.6210012024
0
LINE
8
0
10
37.9070150169
20
15.6210012024
11
37.8666683696
21
15.4055311167
0
LINE
8
0
10
37.8666683696
20
15.4055311167
11
37.7575465976
21
15.1149263625
0
LINE
8
0
10
37.7575465976
20
15.1149263625
11
37.5847679392
21
14.7513330052
0
LINE
8
0
10
37.5847679392
20
14.7513330052
11
37.4322429867
21
14.397372794
0
LINE
8
0
10
37.4322429867
20
14.397372794
11
37.2584379063
21
13.949425526
0
LINE
8
0
10
37.2584379063
20
13.949425526
11
37.0700985403
21
13.4055695358
0
LINE
8
0
10
37.0700985403
20
13.4055695358
11
36.8740787641
21
12.7642535281
0
LINE
8
0
10
36.8740787641
20
12.7642535281
11
36.6773223248
21
12.0243017574
0
LINE
8
0
10
36.6773223248
20
12.0243017574
11
36.486844451
21
11.184918371
0
LINE
8
0
10
36.486844451
20
11.184918371
11
36.3991738832
21
10.72005044
0
LINE
8
0
10
36.3991738832
20
10.72005044
11
37.4464963635
21
10.0358005131
0
LINE
8
0
10
37.4464963635
20
10.0358005131
11
38.5627354229
21
9.47091760262
0
LINE
8
0
10
38.5627354229
20
9.47091760262
11
38.9214875767
21
9.77927650706
0
LINE
8
0
10
38.9214875767
20
9.77927650706
11
39.5531759759
21
10.3639268778
0
LINE
8
0
10
39.5531759759
20
10.3639268778
11
40.0956147873
21
10.9042988379
0
LINE
8
0
10
40.0956147873
20
10.9042988379
11
40.5530008536
21
11.3947149476
0
LINE
8
0
10
40.5530008536
20
11.3947149476
11
40.9298242742
21
11.8297496182
0
LINE
8
0
10
40.9298242742
20
11.8297496182
11
41.2308554476
21
12.2042428671
0
LINE
8
0
10
41.2308554476
20
12.2042428671
11
41.4611315062
21
12.5133134563
0
LINE
8
0
10
41.4611315062
20
12.5133134563
11
41.6896232611
21
12.8447408424
0
LINE
8
0
10
41.6896232611
20
12.8447408424
11
41.8867334746
21
13.0845454461
0
LINE
8
0
10
41.8867334746
20
13.0845454461
11
42.053162719
21
13.2272217105
0
LINE
8
0
10
42.053162719
20
13.2272217105
11
42.1820940966
21
13.2754686476
0
LINE
8
0
10
42.1820940966
20
13.2754686476
11
44.6370710731
21
12.0331052597
0
LINE
8
0
10
44.6370710731
20
12.0331052597
11
44.6745530817
21
11.9006433176
0
LINE
8
0
10
44.6745530817
20
11.9006433176
11
44.6581547921
21
11.6820425265
0
LINE
8
0
10
44.6581547921
20
11.6820425265
11
44.5816642273
21
11.3811972543
0
LINE
8
0
10
44.5816642273
20
11.3811972543
11
44.4499324767
21
11.0008035895
0
LINE
8
0
10
44.4499324767
20
11.0008035895
11
44.3372717805
21
10.6322126784
0
LINE
8
0
10
44.3372717805
20
10.6322126784
11
44.2137994613
21
10.1678641592
0
LINE
8
0
10
44.2137994613
20
10.1678641592
11
44.0864318176
21
9.60659012791
0
LINE
8
0
10
44.0864318176
20
9.60659012791
11
43.9621517818
21
8.94760268715
0
LINE
8
0
10
43.9621517818
20
8.94760268715
11
43.8479902987
21
8.19049709669
0
LINE
8
0
10
43.8479902987
20
8.19049709669
11
43.7510075697
21
7.33525406692
0
LINE
8
0
10
43.7510075697
20
7.33525406692
11
43.7150083969
21
6.86356308616
0
LINE
8
0
10
43.7150083969
20
6.86356308616
11
44.8312474564
21
6.2986801757
0
LINE
8
0
10
44.8312474564
20
6.2986801757
11
46.0028534648
21
5.86002119504
0
LINE
8
0
10
46.0028534648
20
5.86002119504
11
46.3255062215
21
6.205974256
0
LINE
8
0
10
46.3255062215
20
6.205974256
11
46.8890443528
21
6.85656711197
0
LINE
8
0
10
46.8890443528
20
6.85656711197
11
47.3687455699
21
7.45333210892
0
LINE
8
0
10
47.3687455699
20
7.45333210892
11
47.7694058089
21
7.99108795248
0
LINE
8
0
10
47.7694058089
20
7.99108795248
11
48.0960847763
21
8.46493593143
0
LINE
8
0
10
48.0960847763
20
8.46493593143
11
48.3540915583
21
8.87027216381
0
LINE
8
0
10
48.3540915583
20
8.87027216381
11
48.5489696915
21
9.20279916341
0
LINE
8
0
10
48.5489696915
20
9.20279916341
11
48.7396149191
21
9.55735098123
0
LINE
8
0
10
48.7396149191
20
9.55735098123
11
48.9091483293
21
9.81738387738
0
LINE
8
0
10
48.9091483293
20
9.81738387738
11
49.0588718989
21
9.97750277855
0
LINE
8
0
10
49.0588718989
20
9.97750277855
11
49.1817131907
21
10.0396404009
0
LINE
8
0
10
49.1817131907
20
10.0396404009
11
51.7584603058
21
9.07488496702
0
LINE
8
0
10
51.7584603058
20
9.07488496702
11
51.8102867266
21
8.9473503083
0
LINE
8
0
10
51.8102867266
20
8.9473503083
11
51.8180358476
21
8.72827232925
0
LINE
8
0
10
51.8180358476
20
8.72827232925
11
51.775104982
21
8.42083839319
0
LINE
8
0
10
51.775104982
20
8.42083839319
11
51.6860191842
21
8.02826188478
0
LINE
8
0
10
51.6860191842
20
8.02826188478
11
51.6145902926
21
7.64951446804
0
LINE
8
0
10
51.6145902926
20
7.64951446804
11
51.5429495212
21
7.1744012597
0
LINE
8
0
10
51.5429495212
20
7.1744012597
11
51.4780996705
21
6.60252229369
0
LINE
8
0
10
51.4780996705
20
6.60252229369
11
51.4270679663
21
5.9338626347
0
LINE
8
0
10
51.4270679663
20
5.9338626347
11
51.3968872053
21
5.16879346072
0
LINE
8
0
10
51.3968872053
20
5.16879346072
11
51.39457686
21
4.30807227939
0
LINE
8
0
10
51.39457686
20
4.30807227939
11
51.4106860634
21
3.83528393843
0
LINE
8
0
10
51.4106860634
20
3.83528393843
11
52.5822920719
21
3.39662495777
0
LINE
8
0
10
52.5822920719
20
3.39662495777
11
53.7950433194
21
3.0895146327
0
LINE
8
0
10
53.7950433194
20
3.0895146327
11
54.0776801116
21
3.46886244867
0
LINE
8
0
10
54.0776801116
20
3.46886244867
11
54.5662273855
21
4.17750047394
0
LINE
8
0
10
54.5662273855
20
4.17750047394
11
54.9773680855
21
4.82341458907
0
LINE
8
0
10
54.9773680855
20
4.82341458907
11
55.3164390246
21
5.401982539
0
LINE
8
0
10
55.3164390246
20
5.401982539
11
55.5890080987
21
5.90889195371
0
LINE
8
0
10
55.5890080987
20
5.90889195371
11
55.8008586365
21
6.3401509368
0
LINE
8
0
10
55.8008586365
20
6.3401509368
11
55.9579732878
21
6.69209791948
0
LINE
8
0
10
55.9579732878
20
6.69209791948
11
56.1084578132
21
7.06547039024
0
LINE
8
0
10
56.1084578132
20
7.06547039024
11
56.2483565141
21
7.34257513169
0
LINE
8
0
10
56.2483565141
20
7.34257513169
11
56.3795569675
21
7.5181930431
0
LINE
8
0
10
56.3795569675
20
7.5181930431
11
56.4948170466
21
7.59346708411
0
LINE
8
0
10
56.4948170466
20
7.59346708411
11
59.162056081
21
6.91803042839
0
LINE
8
0
10
59.162056081
20
6.91803042839
11
59.2275978115
21
6.79697115102
0
LINE
8
0
10
59.2275978115
20
6.79697115102
11
59.2594002793
21
6.58007529394
0
LINE
8
0
10
59.2594002793
20
6.58007529394
11
59.2505502354
21
6.26978452548
0
LINE
8
0
10
59.2505502354
20
6.26978452548
11
59.2051917713
21
5.86979052045
0
LINE
8
0
10
59.2051917713
20
5.86979052045
11
59.1758617342
21
5.4854840787
0
LINE
8
0
10
59.1758617342
20
5.4854840787
11
59.1569221326
21
5.00537341192
0
LINE
8
0
10
59.1569221326
20
5.00537341192
11
59.1553772643
21
4.42983134719
0
LINE
8
0
10
59.1553772643
20
4.42983134719
11
59.1782133475
21
3.75961609245
0
LINE
8
0
10
59.1782133475
20
3.75961609245
11
59.232379662
21
2.99587023832
0
LINE
8
0
10
59.232379662
20
2.99587023832
11
59.3247697448
21
2.1401188946
0
LINE
8
0
10
59.3247697448
20
2.1401188946
11
59.3927917806
21
1.67197220346
0
LINE
8
0
10
59.3927917806
20
1.67197220346
11
60.6055430282
21
1.36486187839
0
LINE
8
0
10
60.6055430282
20
1.36486187839
11
61.8447183577
21
1.19302811224
0
LINE
8
0
10
61.8447183577
20
1.19302811224
11
62.0839083576
21
1.6011659146
0
LINE
8
0
10
62.0839083576
20
1.6011659146
11
62.4915344719
21
2.35924720351
0
LINE
8
0
10
62.4915344719
20
2.35924720351
11
62.8291239636
21
3.04646991443
0
LINE
8
0
10
62.8291239636
20
3.04646991443
11
63.1024897408
21
3.65882693958
0
LINE
8
0
10
63.1024897408
20
3.65882693958
11
63.3176403024
21
4.19264459642
0
LINE
8
0
10
63.3176403024
20
4.19264459642
11
63.4807630174
21
4.64459143036
0
LINE
8
0
10
63.4807630174
20
4.64459143036
11
63.5982070277
21
5.01168623651
0
LINE
8
0
10
63.5982070277
20
5.01168623651
11
63.7067041727
21
5.39934712419
0
LINE
8
0
10
63.7067041727
20
5.39934712419
11
63.8152699837
21
5.69016003477
0
LINE
8
0
10
63.8152699837
20
5.69016003477
11
63.9263547252
21
5.87914519287
0
LINE
8
0
10
63.9263547252
20
5.87914519287
11
64.0326344903
21
5.96664192769
0
LINE
8
0
10
64.0326344903
20
5.96664192769
11
66.7579887752
21
5.58872293613
0
LINE
8
0
10
66.7579887752
20
5.58872293613
11
66.8364502275
21
5.47560853575
0
LINE
8
0
10
66.8364502275
20
5.47560853575
11
66.8919200033
21
5.26352762251
0
LINE
8
0
10
66.8919200033
20
5.26352762251
11
66.9172582085
21
4.95414653127
0
LINE
8
0
10
66.9172582085
20
4.95414653127
11
66.9161776686
21
4.55159041499
0
LINE
8
0
10
66.9161776686
20
4.55159041499
11
66.9293025128
21
4.16638990783
0
LINE
8
0
10
66.9293025128
20
4.16638990783
11
66.9632939821
21
3.68710967574
0
LINE
8
0
10
66.9632939821
20
3.68710967574
11
67.0250728488
21
3.1148908133
0
LINE
8
0
10
67.0250728488
20
3.1148908133
11
67.1214995203
21
2.45125546809
0
LINE
8
0
10
67.1214995203
20
2.45125546809
11
67.2593554046
21
1.69810377389
0
LINE
8
0
10
67.2593554046
20
1.69810377389
11
67.4453244252
21
0.857709929868
0
LINE
8
0
10
67.4453244252
20
0.857709929868
11
67.564433598
21
0.399887555206
0
LINE
8
0
10
67.564433598
20
0.399887555206
11
68.8036089274
21
0.228053789054
0
LINE
8
0
10
68.8036089274
20
0.228053789054
11
70.0541664288
21
0.193582410968
0
LINE
8
0
10
70.0541664288
20
0.193582410968
11
70.2470061939
21
0.625555959677
0
LINE
8
0
10
70.2470061939
20
0.625555959677
11
70.5687631199
21
1.42387843229
0
LINE
8
0
10
70.5687631199
20
1.42387843229
11
70.8287035242
21
2.14406778624
0
LINE
8
0
10
70.8287035242
20
2.14406778624
11
71.0330458493
21
2.78278070183
0
LINE
8
0
10
71.0330458493
20
2.78278070183
11
71.1881662619
21
3.33702677759
0
LINE
8
0
10
71.1881662619
20
3.33702677759
11
71.3005810653
21
3.80417544003
0
LINE
8
0
10
71.3005810653
20
3.80417544003
11
71.3769288235
21
4.18196203599
0
LINE
8
0
10
71.3769288235
20
4.18196203599
11
71.4421215797
21
4.57920566256
0
LINE
8
0
10
71.4421215797
20
4.57920566256
11
71.5180366588
21
4.88019666747
0
LINE
8
0
10
71.5180366588
20
4.88019666747
11
71.6076572701
21
5.08025504846
0
LINE
8
0
10
71.6076572701
20
5.08025504846
11
71.7036666289
21
5.17891238525
0
LINE
8
0
10
71.7036666289
20
5.17891238525
11
74.4540540552
21
5.10309848245
0
LINE
8
0
10
74.4540540552
20
5.10309848245
11
74.5444828136
21
4.99930201466
0
LINE
8
0
10
74.5444828136
20
4.99930201466
11
74.6229465693
21
4.79461042027
0
LINE
8
0
10
74.6229465693
20
4.79461042027
11
74.6821654523
21
4.48989447358
0
LINE
8
0
10
74.6821654523
20
4.48989447358
11
74.7253759527
21
4.08966273199
0
LINE
8
0
10
74.7253759527
20
4.08966273199
11
74.7807963605
21
3.70824397177
0
LINE
8
0
10
74.7807963605
20
3.70824397177
11
74.8673062904
21
3.23561198714
0
LINE
8
0
10
74.8673062904
20
3.23561198714
11
74.9916589802
21
2.67366228883
0
LINE
8
0
10
74.9916589802
20
2.67366228883
11
75.1605057508
21
2.02466248726
0
LINE
8
0
10
75.1605057508
20
2.02466248726
11
75.3803778213
21
1.29124719432
0
LINE
8
0
10
75.3803778213
20
1.29124719432
11
75.6576683676
21
0.476412092825
0
LINE
8
0
10
75.6576683676
20
0.476412092825
11
75.8264188534
21
0.0344713780857
0
LINE
8
0
10
75.8264188534
20
0.0344713780857
11
77.0769763548
21
0.0
0
LINE
8
0
10
77.0769763548
20
0.0
11
78.3237359542
21
0.103309445815
0
LINE
8
0
10
78.3237359542
20
0.103309445815
11
78.4678846709
21
0.553875167159
0
LINE
8
0
10
78.4678846709
20
0.553875167159
11
78.6998667153
21
1.3827482701
0
LINE
8
0
10
78.6998667153
20
1.3827482701
11
78.8790027078
21
2.12716214391
0
LINE
8
0
10
78.8790027078
20
2.12716214391
11
79.0118411418
21
2.78447784038
0
LINE
8
0
10
79.0118411418
20
2.78447784038
11
79.1050484538
21
3.35242453848
0
LINE
8
0
10
79.1050484538
20
3.35242453848
11
79.1653907822
21
3.8291044775
0
LINE
8
0
10
79.1653907822
20
3.8291044775
11
79.1997155298
21
4.21299704575
0
LINE
8
0
10
79.1997155298
20
4.21299704575
11
79.2208125455
21
4.6150014117
0
LINE
8
0
10
79.2208125455
20
4.6150014117
11
79.2631553865
21
4.92251688787
0
LINE
8
0
10
79.2631553865
20
4.92251688787
11
79.3302239948
21
5.13122005401
0
LINE
8
0
10
79.3302239948
20
5.13122005401
11
79.4147975238
21
5.23984042634
0
LINE
8
0
10
79.4147975238
20
5.23984042634
11
82.1568321138
21
5.46705189039
0
LINE
8
0
10
82.1568321138
20
5.46705189039
11
82.2581304957
21
5.3738333037
0
LINE
8
0
10
82.2581304957
20
5.3738333037
11
82.3586357877
21
5.17901570683
0
LINE
8
0
10
82.3586357877
20
5.17901570683
11
82.4510165114
21
4.88266374351
0
LINE
8
0
10
82.4510165114
20
4.88266374351
11
82.5379935352
21
4.48961464778
0
LINE
8
0
10
82.5379935352
20
4.48961464778
11
82.6350367779
21
4.11660754157
0
LINE
8
0
10
82.6350367779
20
4.11660754157
11
82.7730150549
21
3.65636091644
0
LINE
8
0
10
82.7730150549
20
3.65636091644
11
82.9584320947
21
3.11150169036
0
LINE
8
0
10
82.9584320947
20
3.11150169036
11
83.1976493934
21
2.48501541087
0
LINE
8
0
10
83.1976493934
20
2.48501541087
11
83.496868701
21
1.78023918732
0
LINE
8
0
10
83.496868701
20
1.78023918732
11
83.8621148414
21
1.00085382269
0
LINE
8
0
10
83.8621148414
20
1.00085382269
11
84.0784582378
21
0.580159329485
0
LINE
8
0
10
84.0784582378
20
0.580159329485
11
85.3252178372
21
0.683468775299
0
LINE
8
0
10
85.3252178372
20
0.683468775299
11
86.553045562
21
0.923305008289
0
LINE
8
0
10
86.553045562
20
0.923305008289
11
86.6467534602
21
1.38699364476
0
LINE
8
0
10
86.6467534602
20
1.38699364476
11
86.7861446752
21
2.23635598139
0
LINE
8
0
10
86.7861446752
20
2.23635598139
11
86.8823017876
21
2.99595819903
0
LINE
8
0
10
86.8823017876
20
2.99595819903
11
86.9420238519
21
3.66389775425
0
LINE
8
0
10
86.9420238519
20
3.66389775425
11
86.9721866528
21
4.23865097115
0
LINE
8
0
10
86.9721866528
20
4.23865097115
11
86.979724032
21
4.719075938
0
LINE
8
0
10
86.979724032
20
4.719075938
11
86.9716091132
21
5.1044145428
0
LINE
8
0
10
86.9716091132
20
5.1044145428
11
86.9483542992
21
5.5062998597
0
LINE
8
0
10
86.9483542992
20
5.5062998597
11
86.9566109173
21
5.81660698582
0
LINE
8
0
10
86.9566109173
20
5.81660698582
11
87.0003134006
21
6.03142156339
0
LINE
8
0
10
87.0003134006
20
6.03142156339
11
87.0724244915
21
6.14868646709
0
LINE
8
0
10
87.0724244915
20
6.14868646709
11
89.7728216599
21
6.6761652586
0
LINE
8
0
10
89.7728216599
20
6.6761652586
11
89.8837600401
21
6.59465610037
0
LINE
8
0
10
89.8837600401
20
6.59465610037
11
90.0050868704
21
6.41207732274
0
LINE
8
0
10
90.0050868704
20
6.41207732274
11
90.1295080578
21
6.12768665417
0
LINE
8
0
10
90.1295080578
20
6.12768665417
11
90.2591958218
21
5.7465912879
0
LINE
8
0
10
90.2591958218
20
5.7465912879
11
90.396683926
21
5.38652363667
0
LINE
8
0
10
90.396683926
20
5.38652363667
11
90.5844556807
21
4.94424914161
0
LINE
8
0
10
90.5844556807
20
4.94424914161
11
90.8286863589
21
4.42309424068
0
LINE
8
0
10
90.8286863589
20
4.42309424068
11
91.1353704117
21
3.82672617804
0
LINE
8
0
10
91.1353704117
20
3.82672617804
11
91.5103048393
21
3.15914405253
0
LINE
8
0
10
91.5103048393
20
3.15914405253
11
91.9590729805
21
2.4246691073
0
LINE
8
0
10
91.9590729805
20
2.4246691073
11
92.2203831717
21
2.03032749688
0
LINE
8
0
10
92.2203831717
20
2.03032749688
11
93.4482108965
21
2.27016372987
0
LINE
8
0
10
93.4482108965
20
2.27016372987
11
94.6422025812
21
2.64361546306
0
LINE
8
0
10
94.6422025812
20
2.64361546306
11
94.684332174
21
3.11479846275
0
LINE
8
0
10
94.684332174
20
3.11479846275
11
94.7294405391
21
3.97433992486
0
LINE
8
0
10
94.7294405391
20
3.97433992486
11
94.7414515543
21
4.73990994441
0
LINE
8
0
10
94.7414515543
20
4.73990994441
11
94.727332304
21
5.41036547698
0
LINE
8
0
10
94.727332304
20
5.41036547698
11
94.6940844581
21
5.98494848721
0
LINE
8
0
10
94.6940844581
20
5.98494848721
11
94.6487253947
21
6.46328677359
0
LINE
8
0
10
94.6487253947
20
6.46328677359
11
94.5982693135
21
6.84539392628
0
LINE
8
0
10
94.5982693135
20
6.84539392628
11
94.5309449517
21
7.24228185078
0
LINE
8
0
10
94.5309449517
20
7.24228185078
11
94.5050151229
21
7.5516139187
0
LINE
8
0
10
94.5050151229
20
7.5516139187
11
94.5248209922
21
7.76993234972
0
LINE
8
0
10
94.5248209922
20
7.76993234972
11
94.5835943142
21
7.89441834771
0
LINE
8
0
10
94.5835943142
20
7.89441834771
11
97.2095748973
21
8.7157615887
0
LINE
8
0
10
97.2095748973
20
8.7157615887
11
97.3288066342
21
8.6469512697
0
LINE
8
0
10
97.3288066342
20
8.6469512697
11
97.4694822593
21
8.47882757034
0
LINE
8
0
10
97.4694822593
20
8.47882757034
11
97.6244336059
21
8.20985031399
0
LINE
8
0
10
97.6244336059
20
8.20985031399
11
97.7952578763
21
7.84533465867
0
LINE
8
0
10
97.7952578763
20
7.84533465867
11
97.9715219226
21
7.50257719596
0
LINE
8
0
10
97.9715219226
20
7.50257719596
11
98.2068078603
21
7.08364344421
0
LINE
8
0
10
98.2068078603
20
7.08364344421
11
98.5068875471
21
6.59251898295
0
LINE
8
0
10
98.5068875471
20
6.59251898295
11
98.8773156251
21
6.03350823758
0
LINE
8
0
10
98.8773156251
20
6.03350823758
11
99.3234139767
21
5.41122375277
0
LINE
8
0
10
99.3234139767
20
5.41122375277
11
99.8502566813
21
4.73057475784
0
LINE
8
0
10
99.8502566813
20
4.73057475784
11
100.153361716
21
4.36737280317
0
LINE
8
0
10
100.153361716
20
4.36737280317
11
101.3473534
21
4.74082453636
0
LINE
8
0
10
101.3473534
20
4.74082453636
11
102.493015604
21
5.24335857159
0
LINE
8
0
10
102.493015604
20
5.24335857159
11
102.483055495
21
5.71631641116
0
LINE
8
0
10
102.483055495
20
5.71631641116
11
102.433333455
21
6.57560332978
0
LINE
8
0
10
102.433333455
20
6.57560332978
11
102.361052576
21
7.33784816826
0
LINE
8
0
10
102.361052576
20
7.33784816826
11
102.2732634
21
8.00268125625
0
LINE
8
0
10
102.2732634
20
8.00268125625
11
102.177008491
21
8.57011940041
0
LINE
8
0
10
102.177008491
20
8.57011940041
11
102.079303582
21
9.04056462751
0
LINE
8
0
10
102.079303582
20
9.04056462751
11
101.987118807
21
9.41480206486
0
LINE
8
0
10
101.987118807
20
9.41480206486
11
101.876542124
21
9.80187491521
0
LINE
8
0
10
101.876542124
20
9.80187491521
11
101.816740601
21
10.1064770527
0
LINE
8
0
10
101.816740601
20
10.1064770527
11
101.81240944
21
10.3256492471
0
LINE
8
0
10
101.81240944
20
10.3256492471
11
101.857131565
21
10.455845248
0
LINE
8
0
10
101.857131565
20
10.455845248
11
104.376819716
21
11.5610829441
0
LINE
8
0
10
104.376819716
20
11.5610829441
11
104.502897498
21
11.5058067284
0
LINE
8
0
10
104.502897498
20
11.5058067284
11
104.661214306
21
11.3541789013
0
LINE
8
0
10
104.661214306
20
11.3541789013
11
104.844814912
21
11.1038800767
0
LINE
8
0
10
104.844814912
20
11.1038800767
11
105.054702114
21
10.7603688586
0
LINE
8
0
10
105.054702114
20
10.7603688586
11
105.267602495
21
10.4390821957
0
LINE
8
0
10
105.267602495
20
10.4390821957
11
105.547546564
21
10.0485744755
0
LINE
8
0
10
105.547546564
20
10.0485744755
11
105.899832698
21
9.59344203959
0
LINE
8
0
10
105.899832698
20
9.59344203959
11
106.329508306
21
9.07857424467
0
LINE
8
0
10
106.329508306
20
9.07857424467
11
106.841355552
21
8.50914109125
0
LINE
8
0
10
106.841355552
20
8.50914109125
11
107.439877664
21
7.89058020338
0
LINE
8
0
10
107.439877664
20
7.89058020338
11
107.781098257
21
7.56292668419
0
LINE
8
0
10
107.781098257
20
7.56292668419
11
108.92676046
21
8.06546071942
0
LINE
8
0
10
108.92676046
20
8.06546071942
11
110.010186394
21
8.69097697426
0
LINE
8
0
10
110.010186394
20
8.69097697426
11
109.948257486
21
9.15996858622
0
LINE
8
0
10
109.948257486
20
9.15996858622
11
109.8043086
21
10.0085703822
0
LINE
8
0
10
109.8043086
20
10.0085703822
11
109.648613218
21
10.7582374198
0
LINE
8
0
10
109.648613218
20
10.7582374198
11
109.488219757
21
11.4093778901
0
LINE
8
0
10
109.488219757
20
11.4093778901
11
109.33012619
21
11.9627832378
0
LINE
8
0
10
109.33012619
20
11.9627832378
11
109.181261442
21
12.4196248379
0
LINE
8
0
10
109.181261442
20
12.4196248379
11
109.048466971
21
12.7814498244
0
LINE
8
0
10
109.048466971
20
12.7814498244
11
108.895980218
21
13.1540090605
0
LINE
8
0
10
108.895980218
20
13.1540090605
11
108.803032911
21
13.4501838101
0
LINE
8
0
10
108.803032911
20
13.4501838101
11
108.774617293
21
13.6675493145
0
LINE
8
0
10
108.774617293
20
13.6675493145
11
108.804745355
21
13.8018749152
0
LINE
8
0
10
108.804745355
20
13.8018749152
11
111.187555472
21
15.1775909781
0
LINE
8
0
10
111.187555472
20
15.1775909781
11
111.318948885
21
15.136519844
0
LINE
8
0
10
111.318948885
20
15.136519844
11
111.492985126
21
15.0032284455
0
LINE
8
0
10
111.492985126
20
15.0032284455
11
111.703006329
21
14.7746463414
0
LINE
8
0
10
111.703006329
20
14.7746463414
11
111.949408715
21
14.4563093213
0
LINE
8
0
10
111.949408715
20
14.4563093213
11
112.19636111
21
14.1603934431
0
LINE
8
0
10
112.19636111
20
14.1603934431
11
112.517565167
21
13.8030519892
0
LINE
8
0
10
112.517565167
20
13.8030519892
11
112.917781473
21
13.3894362698
0
LINE
8
0
10
112.917781473
20
13.3894362698
11
113.401488931
21
12.9249612229
0
LINE
8
0
10
113.401488931
20
12.9249612229
11
113.972871939
21
12.415291548
0
LINE
8
0
10
113.972871939
20
12.415291548
11
114.63580821
21
11.8663272585
0
LINE
8
0
10
114.63580821
20
11.8663272585
11
115.011002405
21
11.5781994446
0
LINE
8
0
10
115.011002405
20
11.5781994446
11
116.09442834
21
12.2037156995
0
LINE
8
0
10
116.09442834
20
12.2037156995
11
117.102466682
21
12.9446212539
0
LINE
8
0
10
117.102466682
20
12.9446212539
11
116.989320707
21
13.4039537154
0
LINE
8
0
10
116.989320707
20
13.4039537154
11
116.75289232
21
14.2315695125
0
LINE
8
0
10
116.75289232
20
14.2315695125
11
116.515672367
21
14.9595588069
0
LINE
8
0
10
116.515672367
20
14.9595588069
11
116.284621581
21
15.5891026963
0
LINE
8
0
10
116.284621581
20
15.5891026963
11
116.066608397
21
16.1217576563
0
LINE
8
0
10
116.066608397
20
16.1217576563
11
115.868390825
21
16.5594501911
0
LINE
8
0
10
115.868390825
20
16.5594501911
11
115.696598603
21
16.9044706615
0
LINE
8
0
10
115.696598603
20
16.9044706615
11
115.504052763
21
17.257993919
0
LINE
8
0
10
115.504052763
20
17.257993919
11
115.379087925
21
17.5421461206
0
LINE
8
0
10
115.379087925
20
17.5421461206
11
115.326932779
21
17.7550664121
0
LINE
8
0
10
115.326932779
20
17.7550664121
11
115.342101063
21
17.8918910818
0
LINE
8
0
10
115.342101063
20
17.8918910818
11
117.559109061
21
19.521386182
0
LINE
8
0
10
117.559109061
20
19.521386182
11
117.694223167
21
19.4950186775
0
LINE
8
0
10
117.694223167
20
19.4950186775
11
117.881866275
21
19.3816816847
0
LINE
8
0
10
117.881866275
20
19.3816816847
11
118.115758703
21
19.1775909781
0
LINE
8
0
10
118.115758703
20
19.1775909781
11
118.395685283
21
18.8882923363
0
LINE
8
0
10
118.395685283
20
18.8882923363
11
118.673692023
21
18.6213392606
0
LINE
8
0
10
118.673692023
20
18.6213392606
11
119.032257086
21
18.3015017142
0
LINE
8
0
10
119.032257086
20
18.3015017142
11
119.47554548
21
17.9344234459
0
LINE
8
0
10
119.47554548
20
17.9344234459
11
120.007413235
21
17.525979245
0
LINE
8
0
10
120.007413235
20
17.525979245
11
120.631396189
21
17.082259748
0
LINE
8
0
10
120.631396189
20
17.082259748
11
121.35069947
21
16.6095557395
0
LINE
8
0
10
121.35069947
20
16.6095557395
11
121.75531292
21
16.3644511124
0
LINE
8
0
10
121.75531292
20
16.3644511124
11
122.763351262
21
17.1053566669
0
LINE
8
0
10
122.763351262
20
17.1053566669
11
123.683765793
21
17.9526579312
0
LINE
8
0
10
123.683765793
20
17.9526579312
11
123.520776191
21
18.3967555684
0
LINE
8
0
10
123.520776191
20
18.3967555684
11
123.194738222
21
19.1933392318
0
LINE
8
0
10
123.194738222
20
19.1933392318
11
122.878873226
21
19.8908139793
0
LINE
8
0
10
122.878873226
20
19.8908139793
11
122.579969758
21
20.4911194777
0
LINE
8
0
10
122.579969758
20
20.4911194777
11
122.304683342
21
20.9965583403
0
LINE
8
0
10
122.304683342
20
20.9965583403
11
122.059519039
21
21.4097888154
0
LINE
8
0
10
122.059519039
20
21.4097888154
11
121.850814392
21
21.7338166887
0
LINE
8
0
10
121.850814392
20
21.7338166887
11
121.62054671
21
22.064012674
0
LINE
8
0
10
121.62054671
20
22.064012674
11
121.465081246
21
22.3326931048
0
LINE
8
0
10
121.465081246
20
22.3326931048
11
121.389819664
21
22.5385836195
0
LINE
8
0
10
121.389819664
20
22.5385836195
11
121.389844048
21
22.676246492
0
LINE
8
0
10
121.389844048
20
22.676246492
11
123.414138452
21
24.5397407663
0
LINE
8
0
10
123.414138452
20
24.5397407663
11
123.551333149
21
24.5283969573
0
LINE
8
0
10
123.551333149
20
24.5283969573
11
123.750305391
21
24.4363901277
0
LINE
8
0
10
123.750305391
20
24.4363901277
11
124.005229906
21
24.2592682033
0
LINE
8
0
10
124.005229906
20
24.2592682033
11
124.31528275
21
24.0025196334
0
LINE
8
0
10
124.31528275
20
24.0025196334
11
124.620969211
21
23.767769809
0
LINE
8
0
10
124.620969211
20
23.767769809
11
125.012542787
21
23.4893185646
0
LINE
8
0
10
125.012542787
20
23.4893185646
11
125.493522347
21
23.1732335804
0
LINE
8
0
10
125.493522347
20
23.1732335804
11
126.067094245
21
22.8257781846
0
LINE
8
0
10
126.067094245
20
22.8257781846
11
126.736102838
21
22.4533950191
0
LINE
8
0
10
126.736102838
20
22.4533950191
11
127.503041763
21
22.0626892782
0
LINE
8
0
10
127.503041763
20
22.0626892782
11
127.932163006
21
21.8635830759
0
LINE
8
0
10
127.932163006
20
21.8635830759
11
128.852577537
21
22.7108843402
0
LINE
8
0
10
128.852577537
20
22.7108843402
11
129.67419567
21
23.6542962248
0
LINE
8
0
10
129.67419567
20
23.6542962248
11
129.463340913
21
24.0777682939
0
LINE
8
0
10
129.463340913
20
24.0777682939
11
129.051651023
21
24.8336503772
0
LINE
8
0
10
129.051651023
20
24.8336503772
11
128.660975157
21
25.492144179
0
LINE
8
0
10
128.660975157
20
25.492144179
11
128.297847291
21
26.055924391
0
LINE
8
0
10
128.297847291
20
26.055924391
11
127.968629246
21
26.5280118131
0
LINE
8
0
10
127.968629246
20
26.5280118131
11
127.679494176
21
26.9117641704
0
LINE
8
0
10
127.679494176
20
26.9117641704
11
127.436410495
21
27.2108661869
0
LINE
8
0
10
127.436410495
20
27.2108661869
11
127.171216108
21
27.5137267682
0
LINE
8
0
10
127.171216108
20
27.5137267682
11
126.987137158
21
27.7636740116
0
LINE
8
0
10
126.987137158
20
27.7636740116
11
126.889682714
21
27.9600355176
0
LINE
8
0
10
126.889682714
20
27.9600355176
11
126.874562902
21
28.0968655522
0
LINE
8
0
10
126.874562902
20
28.0968655522
11
128.68157152
21
30.1717387046
0
LINE
8
0
10
128.68157152
20
30.1717387046
11
128.819181451
21
30.1755562894
0
LINE
8
0
10
128.819181451
20
30.1755562894
11
129.027067574
21
30.1059964613
0
LINE
8
0
10
129.027067574
20
30.1059964613
11
129.299929737
21
29.9579933394
0
LINE
8
0
10
129.299929737
20
29.9579933394
11
129.636345224
21
29.7369114212
0
LINE
8
0
10
129.636345224
20
29.7369114212
11
129.966000785
21
29.5372143929
0
LINE
8
0
10
129.966000785
20
29.5372143929
11
130.385829701
21
29.3035294714
0
LINE
8
0
10
130.385829701
20
29.3035294714
11
130.898661988
21
29.0422746148
0
LINE
8
0
10
130.898661988
20
29.0422746148
11
131.506975643
21
28.760025662
0
LINE
8
0
10
131.506975643
20
28.760025662
11
132.212889017
21
28.4634990553
0
LINE
8
0
10
132.212889017
20
28.4634990553
11
133.018153985
21
28.1595342203
0
LINE
8
0
10
133.018153985
20
28.1595342203
11
133.466574072
21
28.0088433224
0
LINE
8
0
10
133.466574072
20
28.0088433224
11
134.288192205
21
28.952255207
0
LINE
8
0
10
134.288192205
20
28.952255207
11
135.001040609
21
29.9803259696
0
LINE
8
0
10
135.001040609
20
29.9803259696
11
134.744880189
21
30.3780320934
0
LINE
8
0
10
134.744880189
20
30.3780320934
11
134.252535734
21
31.0840372119
0
LINE
8
0
10
134.252535734
20
31.0840372119
11
133.791791275
21
31.6955568454
0
LINE
8
0
10
133.791791275
20
31.6955568454
11
133.368846891
21
32.2159682428
0
LINE
8
0
10
133.368846891
20
32.2159682428
11
132.989693479
21
32.6489737227
0
LINE
8
0
10
132.989693479
20
32.6489737227
11
132.660097349
21
32.9985897282
0
LINE
8
0
10
132.660097349
20
32.9985897282
11
132.38558534
21
33.2691351949
0
LINE
8
0
10
132.38558534
20
33.2691351949
11
132.08868335
21
33.5409840549
0
LINE
8
0
10
132.08868335
20
33.5409840549
11
131.878225383
21
33.76916409
0
LINE
8
0
10
131.878225383
20
33.76916409
11
131.759761041
21
33.9536130246
0
LINE
8
0
10
131.759761041
20
33.9536130246
11
131.729680568
21
34.08794929
0
LINE
8
0
10
131.729680568
20
34.08794929
11
133.297468763
21
36.349015171
0
LINE
8
0
10
133.297468763
20
36.349015171
11
133.433823529
21
36.3679478094
0
LINE
8
0
10
133.433823529
20
36.3679478094
11
133.648100077
21
36.3216793449
0
LINE
8
0
10
133.648100077
20
36.3216793449
11
133.935587712
21
36.2045915828
0
LINE
8
0
10
133.935587712
20
36.2045915828
11
134.294282213
21
36.0218599514
0
LINE
8
0
10
134.294282213
20
36.0218599514
11
134.643905304
21
35.8596397707
0
LINE
8
0
10
134.643905304
20
35.8596397707
11
135.086893404
21
35.6735577905
0
LINE
8
0
10
135.086893404
20
35.6735577905
11
135.625353329
21
35.4703043414
0
LINE
8
0
10
135.625353329
20
35.4703043414
11
136.261024637
21
35.2566879517
0
LINE
8
0
10
136.261024637
20
35.2566879517
11
136.995273959
21
35.039617335
0
LINE
8
0
10
136.995273959
20
35.039617335
11
137.829090145
21
34.8260831272
0
LINE
8
0
10
137.829090145
20
34.8260831272
11
138.291365864
21
34.7256367171
0
LINE
8
0
10
138.291365864
20
34.7256367171
11
139.004214269
21
35.7537074797
0
LINE
8
0
10
139.004214269
20
35.7537074797
11
139.59963993
21
36.8539577339
0
LINE
8
0
10
139.59963993
20
36.8539577339
11
139.301283287
21
37.2210702988
0
LINE
8
0
10
139.301283287
20
37.2210702988
11
138.734260662
21
37.8686285068
0
LINE
8
0
10
138.734260662
20
37.8686285068
11
138.209040422
21
38.425750952
0
LINE
8
0
10
138.209040422
20
38.425750952
11
137.731413493
21
38.8964764455
0
LINE
8
0
10
137.731413493
20
38.8964764455
11
137.306927123
21
39.285143883
0
LINE
8
0
10
137.306927123
20
39.285143883
11
136.940870783
21
39.5963796723
0
LINE
8
0
10
136.940870783
20
39.5963796723
11
136.638262651
21
39.8350845335
0
LINE
8
0
10
136.638262651
20
39.8350845335
11
136.313257045
21
40.0726217953
0
LINE
8
0
10
136.313257045
20
40.0726217953
11
136.078974736
21
40.2762648257
0
LINE
8
0
10
136.078974736
20
40.2762648257
11
135.940938493
21
40.4465622286
0
LINE
8
0
10
135.940938493
20
40.4465622286
11
135.896262495
21
40.5767740645
0
LINE
8
0
10
135.896262495
20
40.5767740645
11
137.205799442
21
42.9965863973
0
LINE
8
0
10
137.205799442
20
42.9965863973
11
137.339243881
21
43.0304042726
0
LINE
8
0
10
137.339243881
20
43.0304042726
11
137.557309827
21
43.0079888083
0
LINE
8
0
10
137.557309827
20
43.0079888083
11
137.855933223
21
42.9232376928
0
LINE
8
0
10
137.855933223
20
42.9232376928
11
138.232552673
21
42.7810744626
0
LINE
8
0
10
138.232552673
20
42.7810744626
11
138.597899342
21
42.6583002627
0
LINE
8
0
10
138.597899342
20
42.6583002627
11
139.058669352
21
42.522080007
0
LINE
8
0
10
139.058669352
20
42.522080007
11
139.61622074
21
42.3792951871
0
LINE
8
0
10
139.61622074
20
42.3792951871
11
140.271533514
21
42.2369043739
0
LINE
8
0
10
140.271533514
20
42.2369043739
11
141.025205992
21
42.1019246905
0
LINE
8
0
10
141.025205992
20
42.1019246905
11
141.877451996
21
41.9814131259
0
LINE
8
0
10
141.877451996
20
41.9814131259
11
142.347971946
21
41.932430487
0
LINE
8
0
10
142.347971946
20
41.932430487
11
142.943397608
21
43.0326807412
0
LINE
8
0
10
142.943397608
20
43.0326807412
11
143.414172866
21
44.1917549393
0
LINE
8
0
10
143.414172866
20
44.1917549393
11
143.077241645
21
44.5238176961
0
LINE
8
0
10
143.077241645
20
44.5238176961
11
142.442423737
21
45.1050685142
0
LINE
8
0
10
142.442423737
20
45.1050685142
11
141.859103179
21
45.6010310592
0
LINE
8
0
10
141.859103179
20
45.6010310592
11
141.332591447
21
46.0163566789
0
LINE
8
0
10
141.332591447
20
46.0163566789
11
140.867924809
21
46.3559681781
0
LINE
8
0
10
140.867924809
20
46.3559681781
11
140.469851687
21
46.6250457701
0
LINE
8
0
10
140.469851687
20
46.6250457701
11
140.142820685
21
46.8290124722
0
LINE
8
0
10
140.142820685
20
46.8290124722
11
139.793656592
21
47.0293547553
0
LINE
8
0
10
139.793656592
20
47.0293547553
11
139.53839381
21
47.2059888303
0
LINE
8
0
10
139.53839381
20
47.2059888303
11
139.382461239
21
47.3600675219
0
LINE
8
0
10
139.382461239
20
47.3600675219
11
139.323732021
21
47.484574333
0
LINE
8
0
10
139.323732021
20
47.484574333
11
140.359121716
21
50.0337598738
0
LINE
8
0
10
140.359121716
20
50.0337598738
11
140.488035994
21
50.0820524829
0
LINE
8
0
10
140.488035994
20
50.0820524829
11
140.707244312
21
50.083762112
0
LINE
8
0
10
140.707244312
20
50.083762112
11
141.013378586
21
50.032376407
0
LINE
8
0
10
141.013378586
20
50.032376407
11
141.403351335
21
49.932507247
0
LINE
8
0
10
141.403351335
20
49.932507247
11
141.779986768
21
49.8506693403
0
LINE
8
0
10
141.779986768
20
49.8506693403
11
142.252945565
21
49.7659643385
0
LINE
8
0
10
142.252945565
20
49.7659643385
11
142.822820498
21
49.685381362
0
LINE
8
0
10
142.822820498
20
49.685381362
11
143.489820126
21
49.615944557
0
LINE
8
0
10
143.489820126
20
49.615944557
11
144.253767198
21
49.5646942774
0
LINE
8
0
10
144.253767198
20
49.5646942774
11
145.114097909
21
49.5386682032
0
LINE
8
0
10
145.114097909
20
49.5386682032
11
145.587150614
21
49.5417439183
0
LINE
8
0
10
145.587150614
20
49.5417439183
11
146.057925873
21
50.7008181164
0
LINE
8
0
10
146.057925873
20
50.7008181164
11
146.398336153
21
51.9046466679
0
LINE
8
0
10
146.398336153
20
51.9046466679
11
146.026920244
21
52.1976288244
0
LINE
8
0
10
146.026920244
20
52.1976288244
11
145.332012882
21
52.7055166551
0
LINE
8
0
10
145.332012882
20
52.7055166551
11
144.697672728
21
53.1342989866
0
LINE
8
0
10
144.697672728
20
53.1342989866
11
144.128667333
21
53.4891832421
0
LINE
8
0
10
144.128667333
20
53.4891832421
11
143.629460849
21
53.7756163793
0
LINE
8
0
10
143.629460849
20
53.7756163793
11
143.204203015
21
53.9992695366
0
LINE
8
0
10
143.204203015
20
53.9992695366
11
142.856718855
21
54.1660222001
0
LINE
8
0
10
142.856718855
20
54.1660222001
11
142.487634653
21
54.3267376205
0
LINE
8
0
10
142.487634653
20
54.3267376205
11
142.214489943
21
54.4742186419
0
LINE
8
0
10
142.214489943
20
54.4742186419
11
142.042553855
21
54.6102083154
0
LINE
8
0
10
142.042553855
20
54.6102083154
11
141.97048431
21
54.7274987578
0
LINE
8
0
10
141.97048431
20
54.7274987578
11
142.719158525
21
57.3751138474
0
LINE
8
0
10
142.719158525
20
57.3751138474
11
142.841977796
21
57.4372949834
0
LINE
8
0
10
142.841977796
20
57.4372949834
11
143.059667596
21
57.4631089533
0
LINE
8
0
10
143.059667596
20
57.4631089533
11
143.369596692
21
57.4457124116
0
LINE
8
0
10
143.369596692
20
57.4457124116
11
143.768188999
21
57.3893495981
0
LINE
8
0
10
143.768188999
20
57.3893495981
11
144.151541353
21
57.349441386
0
LINE
8
0
10
144.151541353
20
57.349441386
11
144.630947856
21
57.317279842
0
LINE
8
0
10
144.630947856
20
57.317279842
11
145.206228824
21
57.2998768772
0
LINE
8
0
10
145.206228824
20
57.2998768772
11
145.876818836
21
57.3042369491
0
LINE
8
0
10
145.876818836
20
57.3042369491
11
146.641767218
21
57.3373381822
0
LINE
8
0
10
146.641767218
20
57.3373381822
11
147.499739387
21
57.4061135197
0
LINE
8
0
10
147.499739387
20
57.4061135197
11
147.969582629
21
57.4612102538
0
LINE
8
0
10
147.969582629
20
57.4612102538
11
148.309992909
21
58.6650388053
0
LINE
8
0
10
148.309992909
20
58.6650388053
11
148.515906093
21
59.8990088621
0
LINE
8
0
10
148.515906093
20
59.8990088621
11
148.114513981
21
60.149354012
0
LINE
8
0
10
148.114513981
20
60.149354012
11
147.367952399
21
60.577713785
0
LINE
8
0
10
147.367952399
20
60.577713785
11
146.690292679
21
60.9341110662
0
LINE
8
0
10
146.690292679
20
60.9341110662
11
146.085700575
21
61.2242461434
0
LINE
8
0
10
146.085700575
20
61.2242461434
11
145.558013938
21
61.4540240083
0
LINE
8
0
10
145.558013938
20
61.4540240083
11
145.110733444
21
61.6295378846
0
LINE
8
0
10
145.110733444
20
61.6295378846
11
144.747014113
21
61.7570523582
0
LINE
8
0
10
144.747014113
20
61.7570523582
11
144.362489985
21
61.8761900484
0
LINE
8
0
10
144.362489985
20
61.8761900484
11
144.074778954
21
61.9927277962
0
LINE
8
0
10
144.074778954
20
61.9927277962
11
143.888926419
21
62.1089777213
0
LINE
8
0
10
143.888926419
20
62.1089777213
11
143.804391375
21
62.2176280478
0
LINE
8
0
10
143.804391375
20
62.2176280478
11
144.257262219
21
64.9315342255
0
LINE
8
0
10
144.257262219
20
64.9315342255
11
144.372495624
21
65.0068490937
0
LINE
8
0
10
144.372495624
20
65.0068490937
11
144.586024445
21
65.0564540578
0
LINE
8
0
10
144.586024445
20
65.0564540578
11
144.895986244
21
65.0732578498
0
LINE
8
0
10
144.895986244
20
65.0732578498
11
145.298359739
21
65.0610855511
0
LINE
8
0
10
145.298359739
20
65.0610855511
11
145.683775634
21
65.0635914653
0
LINE
8
0
10
145.683775634
20
65.0635914653
11
146.1638105
21
65.0843637767
0
LINE
8
0
10
146.1638105
20
65.0843637767
11
146.737514371
21
65.1303520719
0
LINE
8
0
10
146.737514371
20
65.1303520719
11
147.403554712
21
65.2084560953
0
LINE
8
0
10
147.403554712
20
65.2084560953
11
148.160218968
21
65.3255070371
0
LINE
8
0
10
148.160218968
20
65.3255070371
11
149.005417974
21
65.4882489469
0
LINE
8
0
10
149.005417974
20
65.4882489469
11
149.466348492
21
65.5946979003
0
LINE
8
0
10
75.3189304694
20
73.6253887717
11
75.0070629332
21
73.5926101728
0
LINE
8
0
10
75.0070629332
20
73.5926101728
11
74.695195397
21
73.6253887717
0
LINE
8
0
10
74.695195397
20
73.6253887717
11
74.3969579686
21
73.7222919864
0
LINE
8
0
10
74.3969579686
20
73.7222919864
11
74.1253850548
21
73.8790846813
0
LINE
8
0
10
74.1253850548
20
73.8790846813
11
73.892345695
21
74.0889142633
0
LINE
8
0
10
73.892345695
20
74.0889142633
11
73.7080248275
21
74.3426101728
0
LINE
8
0
10
73.7080248275
20
74.3426101728
11
73.5804781587
21
74.6290846813
0
LINE
8
0
10
73.5804781587
20
74.6290846813
11
73.5152800901
21
74.9358174779
0
LINE
8
0
10
73.5152800901
20
74.9358174779
11
73.5152800901
21
75.2494028677
0
LINE
8
0
10
73.5152800901
20
75.2494028677
11
73.5804781587
21
75.5561356644
0
LINE
8
0
10
73.5804781587
20
75.5561356644
11
73.7080248275
21
75.8426101728
0
LINE
8
0
10
73.7080248275
20
75.8426101728
11
73.892345695
21
76.0963060824
0
LINE
8
0
10
73.892345695
20
76.0963060824
11
74.1253850548
21
76.3061356644
0
LINE
8
0
10
74.1253850548
20
76.3061356644
11
74.3969579686
21
76.4629283593
0
LINE
8
0
10
74.3969579686
20
76.4629283593
11
74.695195397
21
76.5598315739
0
LINE
8
0
10
74.695195397
20
76.5598315739
11
75.0070629332
21
76.5926101728
0
LINE
8
0
10
75.0070629332
20
76.5926101728
11
75.3189304694
21
76.5598315739
0
LINE
8
0
10
75.3189304694
20
76.5598315739
11
75.6171678978
21
76.4629283593
0
LINE
8
0
10
75.6171678978
20
76.4629283593
11
75.8887408116
21
76.3061356644
0
LINE
8
0
10
75.8887408116
20
76.3061356644
11
76.1217801714
21
76.0963060824
0
LINE
8
0
10
76.1217801714
20
76.0963060824
11
76.3061010389
21
75.8426101728
0
LINE
8
0
10
76.3061010389
20
75.8426101728
11
76.4336477076
21
75.5561356644
0
LINE
8
0
10
76.4336477076
20
75.5561356644
11
76.4988457762
21
75.2494028677
0
LINE
8
0
10
76.4988457762
20
75.2494028677
11
76.4988457762
21
74.9358174779
0
LINE
8
0
10
76.4988457762
20
74.9358174779
11
76.4336477076
21
74.6290846813
0
LINE
8
0
10
76.4336477076
20
74.6290846813
11
76.3061010389
21
74.3426101728
0
LINE
8
0
10
76.3061010389
20
74.3426101728
11
76.1217801714
21
74.0889142633
0
LINE
8
0
10
76.1217801714
20
74.0889142633
11
75.8887408116
21
73.8790846813
0
LINE
8
0
10
75.8887408116
20
73.8790846813
11
75.6171678978
21
73.7222919864
0
LINE
8
0
10
75.6171678978
20
73.7222919864
11
75.3189304694
21
73.6253887717
0
ENDSEC
0
EOF
