  0
SECTION
  2
BLOCKS
  0
ENDSEC
  0
SECTION
  2
ENTITIES
  0
LINE
  8
0
 10
60.294520023977995
 20
-9.533356404902609
 11
60.54626509952746
 21
-8.321892590564048
  0
LINE
  8
0
 10
60.54626509952746
 20
-8.321892590564048
 11
60.63070443975827
 21
-7.087433132203202
  0
LINE
  8
0
 10
60.63070443975827
 20
-7.087433132203202
 11
60.29401123039725
 21
-6.905349164060118
  0
LINE
  8
0
 10
60.29401123039725
 20
-6.905349164060118
 11
59.47315698406706
 21
-6.508605817625089
  0
LINE
  8
0
 10
59.47315698406706
 20
-6.508605817625089
 11
58.74337931485654
 21
-6.196016151367601
  0
LINE
  8
0
 10
58.74337931485654
 20
-6.196016151367601
 11
58.110412884908826
 21
-5.958371093225139
  0
LINE
  8
0
 10
58.110412884908826
 20
-5.958371093225139
 11
57.57933868914432
 21
-5.786124285438455
  0
LINE
  8
0
 10
57.57933868914432
 20
-5.786124285438455
 11
57.15456571216848
 21
-5.669432678030222
  0
LINE
  8
0
 10
57.15456571216848
 20
-5.669432678030222
 11
56.83981493310448
 21
-5.598198071200758
  0
LINE
  8
0
 10
56.83981493310448
 20
-5.598198071200758
 11
56.48187654984042
 21
-5.53415789511911
  0
LINE
  8
0
 10
56.48187654984042
 20
-5.53415789511911
 11
56.11075605360498
 21
-5.433196977983087
  0
LINE
  8
0
 10
56.11075605360498
 20
-5.433196977983087
 11
55.86601907689128
 21
-5.315449288687821
  0
LINE
  8
0
 10
55.86601907689128
 20
-5.315449288687821
 11
55.74817287445535
 21
-5.192210160776018
  0
LINE
  8
0
 10
55.74817287445535
 20
-5.192210160776018
 11
55.93593724292304
 21
-2.447192258405209
  0
LINE
  8
0
 10
55.93593724292304
 20
-2.447192258405209
 11
56.06946687855531
 21
-2.34114770887447
  0
LINE
  8
0
 10
56.06946687855531
 20
-2.34114770887447
 11
56.327957670151186
 21
-2.2578217419420095
  0
LINE
  8
0
 10
56.327957670151186
 20
-2.2578217419420095
 11
56.70936903983378
 21
-2.2083354146191496
  0
LINE
  8
0
 10
56.70936903983378
 20
-2.2083354146191496
 11
57.072693701861255
 21
-2.1936309824257734
  0
LINE
  8
0
 10
57.072693701861255
 20
-2.1936309824257734
 11
57.394212652898645
 21
-2.16591841745353
  0
LINE
  8
0
 10
57.394212652898645
 20
-2.16591841745353
 11
57.830918776603845
 21
-2.108153594875359
  0
LINE
  8
0
 10
57.830918776603845
 20
-2.108153594875359
 11
58.38050078928409
 21
-2.009825696810185
  0
LINE
  8
0
 10
58.38050078928409
 20
-2.009825696810185
 11
59.03993106699068
 21
-1.8605829953189357
  0
LINE
  8
0
 10
59.03993106699068
 20
-1.8605829953189357
 11
59.80547583500205
 21
-1.6502761858839579
  0
LINE
  8
0
 10
59.80547583500205
 20
-1.6502761858839579
 11
60.672707812620835
 21
-1.3690011005065832
  0
LINE
  8
0
 10
60.672707812620835
 20
-1.3690011005065832
 11
61.03105880705694
 21
-1.2344594583608464
  0
LINE
  8
0
 10
61.03105880705694
 20
-1.2344594583608464
 11
61.11549814728781
 21
2.6645352591003757e-15
  0
LINE
  8
0
 10
61.11549814728781
 20
2.6645352591003757e-15
 11
61.03105880705693
 21
1.2344594583608433
  0
LINE
  8
0
 10
61.03105880705693
 20
1.2344594583608433
 11
60.67270781262089
 21
1.369001100506573
  0
LINE
  8
0
 10
60.67270781262089
 20
1.369001100506573
 11
59.805475835002035
 21
1.650276185883972
  0
LINE
  8
0
 10
59.805475835002035
 20
1.650276185883972
 11
59.03993106698763
 21
1.8605829953197857
  0
LINE
  8
0
 10
59.03993106698763
 20
1.8605829953197857
 11
58.38050078928409
 21
2.0098256968101156
  0
LINE
  8
0
 10
58.38050078928409
 20
2.0098256968101156
 11
57.830918776603816
 21
2.108153594875268
  0
LINE
  8
0
 10
57.830918776603816
 20
2.108153594875268
 11
57.3942126528994
 21
2.1659184174535557
  0
LINE
  8
0
 10
57.3942126528994
 20
2.1659184174535557
 11
57.07269370186505
 21
2.1936309824253515
  0
LINE
  8
0
 10
57.07269370186505
 20
2.1936309824253515
 11
56.70936903983381
 21
2.208335414619137
  0
LINE
  8
0
 10
56.70936903983381
 20
2.208335414619137
 11
56.327957670151235
 21
2.2578217419414175
  0
LINE
  8
0
 10
56.327957670151235
 20
2.2578217419414175
 11
56.06946687855539
 21
2.3411477088754387
  0
LINE
  8
0
 10
56.06946687855539
 20
2.3411477088754387
 11
55.93593724292307
 21
2.4471922584050185
  0
LINE
  8
0
 10
55.93593724292307
 20
2.4471922584050185
 11
55.748172874455356
 21
5.192210160775826
  0
LINE
  8
0
 10
55.748172874455356
 20
5.192210160775826
 11
55.86601907689107
 21
5.31544928868877
  0
LINE
  8
0
 10
55.86601907689107
 20
5.31544928868877
 11
56.110756053605016
 21
5.433196977982494
  0
LINE
  8
0
 10
56.110756053605016
 20
5.433196977982494
 11
56.48187654984039
 21
5.534157895119094
  0
LINE
  8
0
 10
56.48187654984039
 20
5.534157895119094
 11
56.839814933100776
 21
5.598198071199824
  0
LINE
  8
0
 10
56.839814933100776
 20
5.598198071199824
 11
57.15456571216774
 21
5.669432678030145
  0
LINE
  8
0
 10
57.15456571216774
 20
5.669432678030145
 11
57.57933868914437
 21
5.786124285438369
  0
LINE
  8
0
 10
57.57933868914437
 20
5.786124285438369
 11
58.11041288490884
 21
5.95837109322507
  0
LINE
  8
0
 10
58.11041288490884
 20
5.95837109322507
 11
58.74337931485946
 21
6.196016151368859
  0
LINE
  8
0
 10
58.74337931485946
 20
6.196016151368859
 11
59.47315698406708
 21
6.508605817625104
  0
LINE
  8
0
 10
59.47315698406708
 20
6.508605817625104
 11
60.2940112303972
 21
6.905349164060101
  0
LINE
  8
0
 10
60.2940112303972
 20
6.905349164060101
 11
60.63070443975833
 21
7.087433132203206
  0
LINE
  8
0
 10
60.63070443975833
 20
7.087433132203206
 11
60.546265099527474
 21
8.321892590564058
  0
LINE
  8
0
 10
60.546265099527474
 20
8.321892590564058
 11
60.29452002397798
 21
9.533356404902628
  0
LINE
  8
0
 10
60.29452002397798
 20
9.533356404902628
 11
59.921186645467145
 21
9.617849464820381
  0
LINE
  8
0
 10
59.921186645467145
 20
9.617849464820381
 11
59.02373182743675
 21
9.77841666649247
  0
LINE
  8
0
 10
59.02373182743675
 20
9.77841666649247
 11
58.23668061118023
 21
9.882523001162586
  0
LINE
  8
0
 10
58.23668061118023
 20
9.882523001162586
 11
57.5630704241045
 21
9.940583236850053
  0
LINE
  8
0
 10
57.5630704241045
 20
9.940583236850053
 11
57.00521826755558
 21
9.963160562496249
  0
LINE
  8
0
 10
57.00521826755558
 20
9.963160562496249
 11
56.564714005927485
 21
9.960922550895198
  0
LINE
  8
0
 10
56.564714005927485
 20
9.960922550895198
 11
56.242416172643345
 21
9.944596841358088
  0
LINE
  8
0
 10
56.242416172643345
 20
9.944596841358088
 11
55.88047328286191
 21
9.909691613914095
  0
LINE
  8
0
 10
55.88047328286191
 20
9.909691613914095
 11
55.495876011891355
 21
9.906781514776345
  0
LINE
  8
0
 10
55.495876011891355
 20
9.906781514776345
 11
55.22844659977743
 21
9.954133554243926
  0
LINE
  8
0
 10
55.22844659977743
 20
9.954133554243926
 11
55.081720935412775
 21
10.041008116077537
  0
LINE
  8
0
 10
55.081720935412775
 20
10.041008116077537
 11
54.52192552493038
 21
12.734891528700503
  0
LINE
  8
0
 10
54.52192552493038
 20
12.734891528700503
 11
54.621893042391754
 21
12.873029523220023
  0
LINE
  8
0
 10
54.621893042391754
 20
12.873029523220023
 11
54.848317217407725
 21
13.02300551821065
  0
LINE
  8
0
 10
54.848317217407725
 20
13.02300551821065
 11
55.202233567537974
 21
13.173560314300126
  0
LINE
  8
0
 10
55.202233567537974
 20
13.173560314300126
 11
55.54811795719655
 21
13.28574328695649
  0
LINE
  8
0
 10
55.54811795719655
 20
13.28574328695649
 11
55.850237352810396
 21
13.399172969700693
  0
LINE
  8
0
 10
55.850237352810396
 20
13.399172969700693
 11
56.25516446619873
 21
13.572617618081956
  0
LINE
  8
0
 10
56.25516446619873
 20
13.572617618081956
 11
56.7578379376113
 21
13.815574703464595
  0
LINE
  8
0
 10
56.7578379376113
 20
13.815574703464595
 11
57.35254955283444
 21
14.137195240469424
  0
LINE
  8
0
 10
57.35254955283444
 20
14.137195240469424
 11
58.03296574605336
 21
14.546244809506943
  0
LINE
  8
0
 10
58.03296574605336
 20
14.546244809506943
 11
58.79215129960157
 21
15.051065839122714
  0
LINE
  8
0
 10
58.79215129960157
 20
15.051065839122714
 11
59.10091476644532
 21
15.277300253452779
  0
LINE
  8
0
 10
59.10091476644532
 20
15.277300253452779
 11
58.84916969089586
 21
16.488764067791358
  0
LINE
  8
0
 10
58.84916969089586
 20
16.488764067791358
 11
58.4348084144653
 21
17.654664959424093
  0
LINE
  8
0
 10
58.4348084144653
 20
17.654664959424093
 11
58.05344714634745
 21
17.68753549127462
  0
LINE
  8
0
 10
58.05344714634745
 20
17.68753549127462
 11
57.1424873731157
 21
17.72440374607906
  0
LINE
  8
0
 10
57.1424873731157
 20
17.72440374607906
 11
56.34859098361784
 21
17.72037030194532
  0
LINE
  8
0
 10
56.34859098361784
 20
17.72037030194532
 11
55.67334897043571
 21
17.686166519493252
  0
LINE
  8
0
 10
55.67334897043571
 20
17.686166519493252
 11
55.117618400197834
 21
17.632572699861644
  0
LINE
  8
0
 10
55.117618400197834
 20
17.632572699861644
 11
54.68152176157413
 21
17.5703735440029
  0
LINE
  8
0
 10
54.68152176157413
 20
17.5703735440029
 11
54.364448844863354
 21
17.510313677036134
  0
LINE
  8
0
 10
54.364448844863354
 20
17.510313677036134
 11
54.010630038546104
 21
17.42644900829842
  0
LINE
  8
0
 10
54.010630038546104
 20
17.42644900829842
 11
53.63001118575978
 21
17.371196692341456
  0
LINE
  8
0
 10
53.63001118575978
 20
17.371196692341456
 11
53.358624857079576
 21
17.381692725440814
  0
LINE
  8
0
 10
53.358624857079576
 20
17.381692725440814
 11
53.201436385494084
 21
17.44777899086448
  0
LINE
  8
0
 10
53.201436385494084
 20
17.44777899086448
 11
52.280037862320704
 21
20.040345962785597
  0
LINE
  8
0
 10
52.280037862320704
 20
20.040345962785597
 11
52.36026448910323
 21
20.190809574440916
  0
LINE
  8
0
 10
52.36026448910323
 20
20.190809574440916
 11
52.56415800845168
 21
20.37022010610725
  0
LINE
  8
0
 10
52.56415800845168
 20
20.37022010610725
 11
52.89427742050931
 21
20.56756423015907
  0
LINE
  8
0
 10
52.89427742050931
 20
20.56756423015907
 11
53.22166464482515
 21
20.725800242868818
  0
LINE
  8
0
 10
53.22166464482515
 20
20.725800242868818
 11
53.505524744277444
 21
20.87931202115458
  0
LINE
  8
0
 10
53.505524744277444
 20
20.87931202115458
 11
53.88306296810657
 21
21.106278764879416
  0
LINE
  8
0
 10
53.88306296810657
 20
21.106278764879416
 11
54.34797185948955
 21
21.41542029704977
  0
LINE
  8
0
 10
54.34797185948955
 20
21.41542029704977
 11
54.893350307831206
 21
21.815025130840663
  0
LINE
  8
0
 10
54.893350307831206
 20
21.815025130840663
 11
55.51173015877862
 21
22.312914783139796
  0
LINE
  8
0
 10
55.51173015877862
 20
22.312914783139796
 11
56.19510482911655
 21
22.91640963531267
  0
LINE
  8
0
 10
56.19510482911655
 20
22.91640963531267
 11
56.47018687425854
 21
23.182580176742682
  0
LINE
  8
0
 10
56.47018687425854
 20
23.182580176742682
 11
56.05582559782799
 21
24.34848106837543
  0
LINE
  8
0
 10
56.05582559782799
 20
24.34848106837543
 11
55.48656688709457
 21
25.44710050966041
  0
LINE
  8
0
 10
55.48656688709457
 20
25.44710050966041
 11
55.10428176823155
 21
25.427736197628764
  0
LINE
  8
0
 10
55.10428176823155
 20
25.427736197628764
 11
54.19678649677166
 21
25.340218719735965
  0
LINE
  8
0
 10
54.19678649677166
 20
25.340218719735965
 11
53.41083372165916
 21
25.22812063223102
  0
LINE
  8
0
 10
53.41083372165916
 20
25.22812063223102
 11
52.746538363469256
 21
25.102289983390456
  0
LINE
  8
0
 10
52.746538363469256
 20
25.102289983390456
 11
52.203281588583344
 21
24.97352336993738
  0
LINE
  8
0
 10
52.203281588583344
 20
24.97352336993738
 11
51.77971622821505
 21
24.85252172240927
  0
LINE
  8
0
 10
51.77971622821505
 20
24.85252172240927
 11
51.473774696590965
 21
24.7498464996968
  0
LINE
  8
0
 10
51.473774696590965
 20
24.7498464996968
 11
51.13467094864869
 21
24.618584629765902
  0
LINE
  8
0
 10
51.13467094864869
 20
24.618584629765902
 11
50.76512072311548
 21
24.512019343094607
  0
LINE
  8
0
 10
50.76512072311548
 20
24.512019343094607
 11
50.49483289168967
 21
24.48546384858836
  0
LINE
  8
0
 10
50.49483289168967
 20
24.48546384858836
 11
50.330109736696954
 21
24.529530755517253
  0
LINE
  8
0
 10
50.330109736696954
 20
24.529530755517253
 11
49.06427201196637
 21
26.972486669374724
  0
LINE
  8
0
 10
49.06427201196637
 20
26.972486669374724
 11
49.12326327780769
 21
27.132473045768783
  0
LINE
  8
0
 10
49.12326327780769
 20
27.132473045768783
 11
49.300827991004496
 21
27.33797603536365
  0
LINE
  8
0
 10
49.300827991004496
 20
27.33797603536365
 11
49.6010009649528
 21
27.578433339736147
  0
LINE
  8
0
 10
49.6010009649528
 20
27.578433339736147
 11
49.90379241937731
 21
27.779774754976533
  0
LINE
  8
0
 10
49.90379241937731
 20
27.779774754976533
 11
50.16410544609919
 21
27.970508994829828
  0
LINE
  8
0
 10
50.16410544609919
 20
27.970508994829828
 11
50.50722195758893
 21
28.246769872900213
  0
LINE
  8
0
 10
50.50722195758893
 20
28.246769872900213
 11
50.92570589593727
 21
28.616337130032193
  0
LINE
  8
0
 10
50.92570589593727
 20
28.616337130032193
 11
51.41159180880048
 21
29.08648237863701
  0
LINE
  8
0
 10
51.41159180880048
 20
29.08648237863701
 11
51.956416070872855
 21
29.66393737201882
  0
LINE
  8
0
 10
51.956416070872855
 20
29.66393737201882
 11
52.551249880886644
 21
30.35486407950893
  0
LINE
  8
0
 10
52.551249880886644
 20
30.35486407950893
 11
52.787526246301084
 21
30.656012494466054
  0
LINE
  8
0
 10
52.787526246301084
 20
30.656012494466054
 11
52.21826753556772
 21
31.75463193575105
  0
LINE
  8
0
 10
52.21826753556772
 20
31.75463193575105
 11
51.50471560323359
 21
32.765504725164924
  0
LINE
  8
0
 10
51.50471560323359
 20
32.765504725164924
 11
51.12862788207857
 21
32.69426628974558
  0
LINE
  8
0
 10
51.12862788207857
 20
32.69426628974558
 11
50.24150203225085
 21
32.483993364179256
  0
LINE
  8
0
 10
50.24150203225085
 20
32.483993364179256
 11
49.478133684644284
 21
32.26591880857559
  0
LINE
  8
0
 10
49.478133684644284
 20
32.26591880857559
 11
48.837159547074606
 21
32.0508052802537
  0
LINE
  8
0
 10
48.837159547074606
 20
32.0508052802537
 11
48.31649641337549
 21
31.849264551351997
  0
LINE
  8
0
 10
48.31649641337549
 20
31.849264551351997
 11
47.91335255250983
 21
31.67171444390406
  0
LINE
  8
0
 10
47.91335255250983
 20
31.67171444390406
 11
47.62424151784299
 21
31.528336510576047
  0
LINE
  8
0
 10
47.62424151784299
 20
31.528336510576047
 11
47.30616968949093
 21
31.352122599731782
  0
LINE
  8
0
 10
47.30616968949093
 20
31.352122599731782
 11
46.954572112696624
 21
31.19622945200757
  0
LINE
  8
0
 10
46.954572112696624
 20
31.19622945200757
 11
46.69041772942045
 21
31.133117108513442
  0
LINE
  8
0
 10
46.69041772942045
 20
31.133117108513442
 11
46.52122837172986
 21
31.154343773849277
  0
LINE
  8
0
 10
46.52122837172986
 20
31.154343773849277
 11
44.93453160719683
 21
33.402180983218024
  0
LINE
  8
0
 10
44.93453160719683
 20
33.402180983218024
 11
44.9711886164301
 21
33.56870988086446
  0
LINE
  8
0
 10
44.9711886164301
 20
33.56870988086446
 11
45.119116828833754
 21
33.79647719651829
  0
LINE
  8
0
 10
45.119116828833754
 20
33.79647719651829
 11
45.383751710117146
 21
34.0755684165937
  0
LINE
  8
0
 10
45.383751710117146
 20
34.0755684165937
 11
45.65630696275783
 21
34.31626462475137
  0
LINE
  8
0
 10
45.65630696275783
 20
34.31626462475137
 11
45.88822377759264
 21
34.54066830816677
  0
LINE
  8
0
 10
45.88822377759264
 20
34.54066830816677
 11
46.19052696533531
 21
34.861077103129915
  0
LINE
  8
0
 10
46.19052696533531
 20
34.861077103129915
 11
46.55479038667958
 21
35.28418574647125
  0
LINE
  8
0
 10
46.55479038667958
 20
35.28418574647125
 11
46.97213262883915
 21
35.81611349345746
  0
LINE
  8
0
 10
46.97213262883915
 20
35.81611349345746
 11
47.433252256881175
 21
36.46237693398206
  0
LINE
  8
0
 10
47.433252256881175
 20
36.46237693398206
 11
47.928464578159044
 21
37.22786483951239
  0
LINE
  8
0
 10
47.928464578159044
 20
37.22786483951239
 11
48.12153388221031
 21
37.55838130282062
  0
LINE
  8
0
 10
48.12153388221031
 20
37.55838130282062
 11
47.407981949876216
 21
38.56925409223456
  0
LINE
  8
0
 10
47.407981949876216
 20
38.56925409223456
 11
46.56342891834867
 21
39.47354958235535
  0
LINE
  8
0
 10
46.56342891834867
 20
39.47354958235535
 11
46.20054439756149
 21
39.35176406081188
  0
LINE
  8
0
 10
46.20054439756149
 20
39.35176406081188
 11
45.350313445441664
 21
39.02265267432368
  0
LINE
  8
0
 10
45.350313445441664
 20
39.02265267432368
 11
44.62374963330857
 21
38.70266396697929
  0
LINE
  8
0
 10
44.62374963330857
 20
38.70266396697929
 11
44.01803685177239
 21
38.40227471719828
  0
LINE
  8
0
 10
44.01803685177239
 20
38.40227471719828
 11
43.529666328308394
 21
38.13171419529768
  0
LINE
  8
0
 10
43.529666328308394
 20
38.13171419529768
 11
43.15445377429583
 21
37.90092305049398
  0
LINE
  8
0
 10
43.15445377429583
 20
37.90092305049398
 11
42.88755882814299
 21
37.71951326616684
  0
LINE
  8
0
 10
42.88755882814299
 20
37.71951326616684
 11
42.596443995728336
 21
37.501629846158714
  0
LINE
  8
0
 10
42.596443995728336
 20
37.501629846158714
 11
42.26934866528046
 21
37.299312831762535
  0
LINE
  8
0
 10
42.26934866528046
 20
37.299312831762535
 11
42.01624842651507
 21
37.20081930282668
  0
LINE
  8
0
 10
42.01624842651507
 20
37.20081930282668
 11
41.845744543741816
 21
37.198810313956635
  0
LINE
  8
0
 10
41.845744543741816
 20
37.198810313956635
 11
39.967745897984024
 21
39.20965586469747
  0
LINE
  8
0
 10
39.967745897984024
 20
39.20965586469747
 11
39.98138579988494
 21
39.37962516531789
  0
LINE
  8
0
 10
39.98138579988494
 20
39.37962516531789
 11
40.09692188878928
 21
39.625413932892364
  0
LINE
  8
0
 10
40.09692188878928
 20
39.625413932892364
 11
40.32108903027789
 21
39.93794012730155
  0
LINE
  8
0
 10
40.32108903027789
 20
39.93794012730155
 11
40.55833089247239
 21
40.213507413433256
  0
LINE
  8
0
 10
40.55833089247239
 20
40.213507413433256
 11
40.757531323963214
 21
40.46740032437681
  0
LINE
  8
0
 10
40.757531323963214
 20
40.46740032437681
 11
41.013389851550755
 21
40.82598842661926
  0
LINE
  8
0
 10
41.013389851550755
 20
40.82598842661926
 11
41.316647217564196
 21
41.294756742696805
  0
LINE
  8
0
 10
41.316647217564196
 20
41.294756742696805
 11
41.65767149269055
 21
41.878558180583994
  0
LINE
  8
0
 10
41.65767149269055
 20
41.878558180583994
 11
42.026496700503635
 21
42.58159140313179
  0
LINE
  8
0
 10
42.026496700503635
 20
42.58159140313179
 11
42.412862664477885
 21
43.40738091538106
  0
LINE
  8
0
 10
42.412862664477885
 20
43.40738091538106
 11
42.55912839133262
 21
43.76110853069014
  0
LINE
  8
0
 10
42.55912839133262
 20
43.76110853069014
 11
41.71457535980511
 21
44.66540402081096
  0
LINE
  8
0
 10
41.71457535980511
 20
44.66540402081096
 11
40.75475365410586
 21
45.44627689765056
  0
LINE
  8
0
 10
40.75475365410586
 20
45.44627689765056
 11
40.41183218570485
 21
45.276212923822214
  0
LINE
  8
0
 10
40.41183218570485
 20
45.276212923822214
 11
39.614334325232164
 21
44.834393798839756
  0
LINE
  8
0
 10
39.614334325232164
 20
44.834393798839756
 11
38.93810955768106
 21
44.418451723930566
  0
LINE
  8
0
 10
38.93810955768106
 20
44.418451723930566
 11
38.378941415245805
 21
44.038382436055585
  0
LINE
  8
0
 10
38.378941415245805
 20
44.038382436055585
 11
37.931960920836566
 21
43.703842151758934
  0
LINE
  8
0
 10
37.931960920836566
 20
43.703842151758934
 11
37.591669173628915
 21
43.42410917195353
  0
LINE
  8
0
 10
37.591669173628915
 20
43.42410917195353
 11
37.35196206385228
 21
43.208046857668805
  0
LINE
  8
0
 10
37.35196206385228
 20
43.208046857668805
 11
37.0932271458925
 21
42.9525526843603
  0
LINE
  8
0
 10
37.0932271458925
 20
42.9525526843603
 11
36.796727228909155
 21
42.707580586471856
  0
LINE
  8
0
 10
36.796727228909155
 20
42.707580586471856
 11
36.559395913218694
 21
42.57554062018144
  0
LINE
  8
0
 10
36.559395913218694
 20
42.57554062018144
 11
36.39075367009313
 21
42.55033340076701
  0
LINE
  8
0
 10
36.39075367009313
 20
42.55033340076701
 11
34.25643670457114
 21
44.286729044935505
  0
LINE
  8
0
 10
34.25643670457114
 20
44.286729044935505
 11
34.246805413574975
 21
44.456972542053634
  0
LINE
  8
0
 10
34.246805413574975
 20
44.456972542053634
 11
34.327797160246405
 21
44.71620418185905
  0
LINE
  8
0
 10
34.327797160246405
 20
44.71620418185905
 11
34.507320752234804
 21
45.05634357892243
  0
LINE
  8
0
 10
34.507320752234804
 20
45.05634357892243
 11
34.704829856969276
 21
45.36164864588086
  0
LINE
  8
0
 10
34.704829856969276
 20
45.36164864588086
 11
34.867603177979134
 21
45.64030123980553
  0
LINE
  8
0
 10
34.867603177979134
 20
45.64030123980553
 11
35.072250885145536
 21
46.03038883145726
  0
LINE
  8
0
 10
35.072250885145536
 20
46.03038883145726
 11
35.30885308488426
 21
46.53608455348621
  0
LINE
  8
0
 10
35.30885308488426
 20
46.53608455348621
 11
35.5672067559745
 21
47.16088456608128
  0
LINE
  8
0
 10
35.5672067559745
 20
47.16088456608128
 11
35.83686702778119
 21
47.907591391906145
  0
LINE
  8
0
 10
35.83686702778119
 20
47.907591391906145
 11
36.10718936757545
 21
48.7782996147149
  0
LINE
  8
0
 10
36.10718936757545
 20
48.7782996147149
 11
36.203926863487816
 21
49.14864910583005
  0
LINE
  8
0
 10
36.203926863487816
 20
49.14864910583005
 11
35.24410515778852
 21
49.92952198266963
  0
LINE
  8
0
 10
35.24410515778852
 20
49.92952198266963
 11
34.186894440242185
 21
50.572426062000574
  0
LINE
  8
0
 10
34.186894440242185
 20
50.572426062000574
 11
33.870324002351396
 21
50.35725160594644
  0
LINE
  8
0
 10
33.870324002351396
 20
50.35725160594644
 11
33.14041510974256
 21
49.810954996814246
  0
LINE
  8
0
 10
33.14041510974256
 20
49.810954996814246
 11
32.52712617472652
 21
49.306807768203214
  0
LINE
  8
0
 10
32.52712617472652
 20
49.306807768203214
 11
32.02491891589901
 21
48.85413841394865
  0
LINE
  8
0
 10
32.02491891589901
 20
48.85413841394865
 11
31.627654851435775
 21
48.461850219777865
  0
LINE
  8
0
 10
31.627654851435775
 20
48.461850219777865
 11
31.328622902426822
 21
48.13838630110942
  0
LINE
  8
0
 10
31.328622902426822
 20
48.13838630110942
 11
31.120568918938247
 21
47.891696288976625
  0
LINE
  8
0
 10
31.120568918938247
 20
47.891696288976625
 11
30.899033657409664
 21
47.603350735402934
  0
LINE
  8
0
 10
30.899033657409664
 20
47.603350735402934
 11
30.63865238634488
 21
47.32028692070089
  0
LINE
  8
0
 10
30.63865238634488
 20
47.32028692070089
 11
30.421511027092578
 21
47.15716017179869
  0
LINE
  8
0
 10
30.421511027092578
 20
47.15716017179869
 11
30.25787190952073
 21
47.10922428464367
  0
LINE
  8
0
 10
30.25787190952073
 20
47.10922428464367
 11
27.90699491101945
 21
48.538824256775705
  0
LINE
  8
0
 10
27.90699491101945
 20
48.538824256775705
 11
27.87427183985435
 21
48.706170636153296
  0
LINE
  8
0
 10
27.87427183985435
 20
48.706170636153296
 11
27.919210521294648
 21
48.97401615322517
  0
LINE
  8
0
 10
27.919210521294648
 20
48.97401615322517
 11
28.050746378935777
 21
49.335432599543914
  0
LINE
  8
0
 10
28.050746378935777
 20
49.335432599543914
 11
28.204843505290604
 21
49.66478819159101
  0
LINE
  8
0
 10
28.204843505290604
 20
49.66478819159101
 11
28.328157556828028
 21
49.963009697902926
  0
LINE
  8
0
 10
28.328157556828028
 20
49.963009697902926
 11
28.477782243997094
 21
50.37733018520554
  0
LINE
  8
0
 10
28.477782243997094
 20
50.37733018520554
 11
28.64332182614855
 21
50.91053315869754
  0
LINE
  8
0
 10
28.64332182614855
 20
50.91053315869754
 11
28.81419225313418
 21
51.56469290393286
  0
LINE
  8
0
 10
28.81419225313418
 20
51.56469290393286
 11
28.979664328287534
 21
52.341163597693246
  0
LINE
  8
0
 10
28.979664328287534
 20
52.341163597693246
 11
29.128907450180943
 21
53.240570884313804
  0
LINE
  8
0
 10
29.128907450180943
 20
53.240570884313804
 11
29.1743146786364
 21
53.62064334094361
  0
LINE
  8
0
 10
29.1743146786364
 20
53.62064334094361
 11
28.11710396109011
 21
54.263547420274605
  0
LINE
  8
0
 10
28.11710396109011
 20
54.263547420274605
 11
26.982198067045207
 21
54.756506615520294
  0
LINE
  8
0
 10
26.982198067045207
 20
54.756506615520294
 11
26.697875767948222
 21
54.50022997023094
  0
LINE
  8
0
 10
26.697875767948222
 20
54.50022997023094
 11
26.049152664831883
 21
53.859632349144285
  0
LINE
  8
0
 10
26.049152664831883
 20
53.859632349144285
 11
25.510223974823024
 21
53.27667127581722
  0
LINE
  8
0
 10
25.510223974823024
 20
53.27667127581722
 11
25.074332770622583
 21
52.75983422876953
  0
LINE
  8
0
 10
25.074332770622583
 20
52.75983422876953
 11
24.734185413973844
 21
52.31710571154425
  0
LINE
  8
0
 10
24.734185413973844
 20
52.31710571154425
 11
24.481983662583445
 21
51.95593637480032
  0
LINE
  8
0
 10
24.481983662583445
 20
51.95593637480032
 11
24.30945845744208
 21
51.68321403299006
  0
LINE
  8
0
 10
24.30945845744208
 20
51.68321403299006
 11
24.129249635106152
 21
51.367388431243526
  0
LINE
  8
0
 10
24.129249635106152
 20
51.367388431243526
 11
23.909837420379574
 21
51.05150584301847
  0
LINE
  8
0
 10
23.909837420379574
 20
51.05150584301847
 11
23.716930950241075
 21
50.86033105418887
  0
LINE
  8
0
 10
23.716930950241075
 20
50.86033105418887
 11
23.56134324536621
 21
50.79055945417279
  0
LINE
  8
0
 10
23.56134324536621
 20
50.79055945417279
 11
21.037698604337614
 21
51.88673301169456
  0
LINE
  8
0
 10
21.037698604337614
 20
51.88673301169456
 11
20.982493321904972
 21
52.048064926915316
  0
LINE
  8
0
 10
20.982493321904972
 20
52.048064926915316
 11
20.99054181550615
 21
52.319534866053786
  0
LINE
  8
0
 10
20.99054181550615
 20
52.319534866053786
 11
21.071639674647546
 21
52.69549585705916
  0
LINE
  8
0
 10
21.071639674647546
 20
52.69549585705916
 11
21.179454284721697
 21
53.042766702679785
  0
LINE
  8
0
 10
21.179454284721697
 20
53.042766702679785
 11
21.2610119593257
 21
53.355001818973115
  0
LINE
  8
0
 10
21.2610119593257
 20
53.355001818973115
 11
21.35282640167625
 21
53.78583719517262
  0
LINE
  8
0
 10
21.35282640167625
 20
53.78583719517262
 11
21.444219677037868
 21
54.336614857590284
  0
LINE
  8
0
 10
21.444219677037868
 20
54.336614857590284
 11
21.52442386716341
 21
55.0079485771299
  0
LINE
  8
0
 10
21.52442386716341
 20
55.0079485771299
 11
21.582625313988512
 21
55.79971895894003
  0
LINE
  8
0
 10
21.582625313988512
 20
55.79971895894003
 11
21.608009100999034
 21
56.711071053366574
  0
LINE
  8
0
 10
21.608009100999034
 20
56.711071053366574
 11
21.601240211245262
 21
57.09378644476874
  0
LINE
  8
0
 10
21.601240211245262
 20
57.09378644476874
 11
20.466334317200353
 21
57.58674564001447
  0
LINE
  8
0
 10
20.466334317200353
 20
57.58674564001447
 11
19.274874396138483
 21
57.92057705408214
  0
LINE
  8
0
 10
19.274874396138483
 20
57.92057705408214
 11
19.02809662230904
 21
57.627972168565215
  0
LINE
  8
0
 10
19.02809662230904
 20
57.627972168565215
 11
18.472643792665004
 21
56.905006657147695
  0
LINE
  8
0
 10
18.472643792665004
 20
56.905006657147695
 11
18.018114569465954
 21
56.25409120089598
  0
LINE
  8
0
 10
18.018114569465954
 20
56.25409120089598
 11
17.656659248289007
 21
55.682714157348414
  0
LINE
  8
0
 10
17.656659248289007
 20
55.682714157348414
 11
17.379964901125607
 21
55.19779251167002
  0
LINE
  8
0
 10
17.379964901125607
 20
55.19779251167002
 11
17.17929138879813
 21
54.805645658235505
  0
LINE
  8
0
 10
17.17929138879813
 20
54.805645658235505
 11
17.045508780145525
 21
54.511971287965224
  0
LINE
  8
0
 10
17.045508780145525
 20
54.511971287965224
 11
16.9099833463942
 21
54.17454887144141
  0
LINE
  8
0
 10
16.9099833463942
 20
54.17454887144141
 11
16.73562742242233
 21
53.831731804639155
  0
LINE
  8
0
 10
16.73562742242233
 20
53.831731804639155
 11
16.570549323943247
 21
53.61607020048146
  0
LINE
  8
0
 10
16.570549323943247
 20
53.61607020048146
 11
16.425911336323946
 21
53.525762600499675
  0
LINE
  8
0
 10
16.425911336323946
 20
53.525762600499675
 11
13.77650977751136
 21
54.26809010407458
  0
LINE
  8
0
 10
13.77650977751136
 20
54.26809010407458
 11
13.699850653770486
 21
54.420402246809644
  0
LINE
  8
0
 10
13.699850653770486
 20
54.420402246809644
 11
13.670859031325087
 21
54.690439636689405
  0
LINE
  8
0
 10
13.670859031325087
 20
54.690439636689405
 11
13.700008192294
 21
55.073941730464476
  0
LINE
  8
0
 10
13.700008192294
 20
55.073941730464476
 11
13.759531903894867
 21
55.4326588308664
  0
LINE
  8
0
 10
13.759531903894867
 20
55.4326588308664
 11
13.797813936400614
 21
55.753091207696144
  0
LINE
  8
0
 10
13.797813936400614
 20
55.753091207696144
 11
13.830107804591265
 21
56.19241582490577
  0
LINE
  8
0
 10
13.830107804591265
 20
56.19241582490577
 11
13.845652289365768
 21
56.75050823050962
  0
LINE
  8
0
 10
13.845652289365768
 20
56.75050823050962
 11
13.833696190321337
 21
57.426510247370686
  0
LINE
  8
0
 10
13.833696190321337
 20
57.426510247370686
 11
13.783542825985206
 21
58.21883113310453
  0
LINE
  8
0
 10
13.783542825985206
 20
58.21883113310453
 11
13.684594426188802
 21
59.125151270162284
  0
LINE
  8
0
 10
13.684594426188802
 20
59.125151270162284
 11
13.625775509834682
 21
59.50338033272034
  0
LINE
  8
0
 10
13.625775509834682
 20
59.50338033272034
 11
12.434315588772801
 21
59.837211746787986
  0
LINE
  8
0
 10
12.434315588772801
 20
59.837211746787986
 11
11.208496284694597
 21
60.00569673206674
  0
LINE
  8
0
 10
11.208496284694597
 20
60.00569673206674
 11
11.00386003913766
 21
59.6822142817098
  0
LINE
  8
0
 10
11.00386003913766
 20
59.6822142817098
 11
10.55202451822508
 21
58.89034835953583
  0
LINE
  8
0
 10
10.55202451822508
 20
58.89034835953583
 11
10.190361781261721
 21
58.18360384373009
  0
LINE
  8
0
 10
10.190361781261721
 20
58.18360384373009
 11
9.910075571842064
 21
57.56833047691706
  0
LINE
  8
0
 10
9.910075571842064
 20
57.56833047691706
 11
9.701988526325852
 21
57.050248875537555
  0
LINE
  8
0
 10
9.701988526325852
 20
57.050248875537555
 11
9.556581420907087
 21
56.6344294593216
  0
LINE
  8
0
 10
9.556581420907087
 20
56.6344294593216
 11
9.464033525616026
 21
56.32527365845619
  0
LINE
  8
0
 10
9.464033525616026
 20
56.32527365845619
 11
9.375716062856116
 21
55.97253996834719
  0
LINE
  8
0
 10
9.375716062856116
 20
55.97253996834719
 11
9.24966435060847
 21
55.60917445628747
  0
LINE
  8
0
 10
9.24966435060847
 20
55.60917445628747
 11
9.115489716423717
 21
55.37304340443972
  0
LINE
  8
0
 10
9.115489716423717
 20
55.37304340443972
 11
8.984495778103742
 21
55.263882064211344
  0
LINE
  8
0
 10
8.984495778103742
 20
55.263882064211344
 11
6.25869063968759
 21
55.63853535698536
  0
LINE
  8
0
 10
6.25869063968759
 20
55.63853535698536
 11
6.162005689069145
 21
55.77899044020121
  0
LINE
  8
0
 10
6.162005689069145
 20
55.77899044020121
 11
6.096514009649072
 21
56.04256499517918
  0
LINE
  8
0
 10
6.096514009649072
 20
56.04256499517918
 11
6.073171478728979
 21
56.42646427333075
  0
LINE
  8
0
 10
6.073171478728979
 20
56.42646427333075
 11
6.083295477732626
 21
56.789945407652304
  0
LINE
  8
0
 10
6.083295477732626
 20
56.789945407652304
 11
6.077588746306924
 21
57.11260599611944
  0
LINE
  8
0
 10
6.077588746306924
 20
57.11260599611944
 11
6.0497604666756235
 21
57.552236067954695
  0
LINE
  8
0
 10
6.0497604666756235
 20
57.552236067954695
 11
5.989166596522962
 21
58.1072470111797
  0
LINE
  8
0
 10
5.989166596522962
 20
58.1072470111797
 11
5.885272927811949
 21
58.77532468683304
  0
LINE
  8
0
 10
5.885272927811949
 20
58.77532468683304
 11
5.727699014598358
 21
59.553436637518054
  0
LINE
  8
0
 10
5.727699014598358
 20
59.553436637518054
 11
5.506261649465672
 21
60.437841787877176
  0
LINE
  8
0
 10
5.506261649465672
 20
60.437841787877176
 11
5.396488391633213
 21
60.80453882979255
  0
LINE
  8
0
 10
5.396488391633213
 20
60.80453882979255
 11
4.170669087554991
 21
60.97302381507134
  0
LINE
  8
0
 10
4.170669087554991
 20
60.97302381507134
 11
2.933325094756232
 21
60.9730238150713
  0
LINE
  8
0
 10
2.933325094756232
 20
60.9730238150713
 11
2.7746423635398845
 21
60.62468966587215
  0
LINE
  8
0
 10
2.7746423635398845
 20
60.62468966587215
 11
2.434840992207725
 21
59.77867429680398
  0
LINE
  8
0
 10
2.434840992207725
 20
59.77867429680398
 11
2.1727818339775062
 21
59.02926603456171
  0
LINE
  8
0
 10
2.1727818339775062
 20
59.02926603456171
 11
1.9788859380747539
 21
58.38155772316502
  0
LINE
  8
0
 10
1.9788859380747539
 20
58.38155772316502
 11
1.8432824621478847
 21
57.839967046070065
  0
LINE
  8
0
 10
1.8432824621478847
 20
57.839967046070065
 11
1.7558504228909753
 21
57.40822099603623
  0
LINE
  8
0
 10
1.7558504228909753
 20
57.40822099603623
 11
1.70626123314339
 21
57.08934275220056
  0
LINE
  8
0
 10
1.70626123314339
 20
57.08934275220056
 11
1.6667969286030542
 21
56.72786854975534
  0
LINE
  8
0
 10
1.6667969286030542
 20
56.72786854975534
 11
1.5913975329798111
 21
56.35072340441388
  0
LINE
  8
0
 10
1.5913975329798111
 20
56.35072340441388
 11
1.49062578265609
 21
56.09852157959488
  0
LINE
  8
0
 10
1.49062578265609
 20
56.09852157959488
 11
1.3757160628562948
 21
55.97253996834719
  0
LINE
  8
0
 10
1.3757160628562948
 20
55.97253996834719
 11
-1.3757160628561145
 21
55.97253996834718
  0
LINE
  8
0
 10
-1.3757160628561145
 20
55.97253996834718
 11
-1.490625782657063
 21
56.098521579594745
  0
LINE
  8
0
 10
-1.490625782657063
 20
56.098521579594745
 11
-1.5913975329792294
 21
56.35072340441387
  0
LINE
  8
0
 10
-1.5913975329792294
 20
56.35072340441387
 11
-1.6667969286030524
 21
56.727868549755314
  0
LINE
  8
0
 10
-1.6667969286030524
 20
56.727868549755314
 11
-1.706261233142722
 21
57.089342752196806
  0
LINE
  8
0
 10
-1.706261233142722
 20
57.089342752196806
 11
-1.755850422890962
 21
57.40822099603548
  0
LINE
  8
0
 10
-1.755850422890962
 20
57.40822099603548
 11
-1.8432824621478092
 21
57.8399670460701
  0
LINE
  8
0
 10
-1.8432824621478092
 20
57.8399670460701
 11
-1.9788859380746975
 21
58.381557723165024
  0
LINE
  8
0
 10
-1.9788859380746975
 20
58.381557723165024
 11
-2.1727818339785765
 21
59.029266034564706
  0
LINE
  8
0
 10
-2.1727818339785765
 20
59.029266034564706
 11
-2.4348409922077527
 21
59.77867429680399
  0
LINE
  8
0
 10
-2.4348409922077527
 20
59.77867429680399
 11
-2.7746423635398845
 21
60.6246896658721
  0
LINE
  8
0
 10
-2.7746423635398845
 20
60.6246896658721
 11
-2.9333250947562446
 21
60.9730238150713
  0
LINE
  8
0
 10
-2.9333250947562446
 20
60.9730238150713
 11
-4.170669087555005
 21
60.9730238150713
  0
LINE
  8
0
 10
-4.170669087555005
 20
60.9730238150713
 11
-5.396488391633209
 21
60.80453882979256
  0
LINE
  8
0
 10
-5.396488391633209
 20
60.80453882979256
 11
-5.506261649465664
 21
60.43784178787724
  0
LINE
  8
0
 10
-5.506261649465664
 20
60.43784178787724
 11
-5.727699014598372
 21
59.55343663751805
  0
LINE
  8
0
 10
-5.727699014598372
 20
59.55343663751805
 11
-5.885272927812588
 21
58.77532468682993
  0
LINE
  8
0
 10
-5.885272927812588
 20
58.77532468682993
 11
-5.989166596522892
 21
58.10724701117971
  0
LINE
  8
0
 10
-5.989166596522892
 20
58.10724701117971
 11
-6.049760466675531
 21
57.55223606795468
  0
LINE
  8
0
 10
-6.049760466675531
 20
57.55223606795468
 11
-6.077588746307001
 21
57.112605996120195
  0
LINE
  8
0
 10
-6.077588746307001
 20
57.112605996120195
 11
-6.083295477732464
 21
56.78994540765613
  0
LINE
  8
0
 10
-6.083295477732464
 20
56.78994540765613
 11
-6.07317147872897
 21
56.42646427333079
  0
LINE
  8
0
 10
-6.07317147872897
 20
56.42646427333079
 11
-6.0965140096484856
 21
56.04256499517927
  0
LINE
  8
0
 10
-6.0965140096484856
 20
56.04256499517927
 11
-6.162005689070116
 21
55.77899044020123
  0
LINE
  8
0
 10
-6.162005689070116
 20
55.77899044020123
 11
-6.258690639687403
 21
55.6385353569854
  0
LINE
  8
0
 10
-6.258690639687403
 20
55.6385353569854
 11
-8.98449577810355
 21
55.263882064211366
  0
LINE
  8
0
 10
-8.98449577810355
 20
55.263882064211366
 11
-9.11548971642465
 21
55.37304340443946
  0
LINE
  8
0
 10
-9.11548971642465
 20
55.37304340443946
 11
-9.249664350607882
 21
55.60917445628755
  0
LINE
  8
0
 10
-9.249664350607882
 20
55.60917445628755
 11
-9.375716062856096
 21
55.97253996834717
  0
LINE
  8
0
 10
-9.375716062856096
 20
55.97253996834717
 11
-9.464033525614841
 21
56.32527365845256
  0
LINE
  8
0
 10
-9.464033525614841
 20
56.32527365845256
 11
-9.55658142090696
 21
56.63442945932087
  0
LINE
  8
0
 10
-9.55658142090696
 20
56.63442945932087
 11
-9.70198852632577
 21
57.05024887553761
  0
LINE
  8
0
 10
-9.70198852632577
 20
57.05024887553761
 11
-9.910075571841997
 21
57.568330476917076
  0
LINE
  8
0
 10
-9.910075571841997
 20
57.568330476917076
 11
-10.190361781263176
 21
58.183603843732925
  0
LINE
  8
0
 10
-10.190361781263176
 20
58.183603843732925
 11
-10.552024518225098
 21
58.89034835953585
  0
LINE
  8
0
 10
-10.552024518225098
 20
58.89034835953585
 11
-11.003860039137642
 21
59.682214281709754
  0
LINE
  8
0
 10
-11.003860039137642
 20
59.682214281709754
 11
-11.208496284694604
 21
60.005696732066795
  0
LINE
  8
0
 10
-11.208496284694604
 20
60.005696732066795
 11
-12.434315588772801
 21
59.83721174678802
  0
LINE
  8
0
 10
-12.434315588772801
 20
59.83721174678802
 11
-13.625775509834671
 21
59.50338033272036
  0
LINE
  8
0
 10
-13.625775509834671
 20
59.50338033272036
 11
-13.68459442618879
 21
59.125151270162334
  0
LINE
  8
0
 10
-13.68459442618879
 20
59.125151270162334
 11
-13.783542825985204
 21
58.218831133104516
  0
LINE
  8
0
 10
-13.783542825985204
 20
58.218831133104516
 11
-13.833696190321534
 21
57.426510247367524
  0
LINE
  8
0
 10
-13.833696190321534
 20
57.426510247367524
 11
-13.845652289365688
 21
56.75050823050964
  0
LINE
  8
0
 10
-13.845652289365688
 20
56.75050823050964
 11
-13.830107804591155
 21
56.192415824905765
  0
LINE
  8
0
 10
-13.830107804591155
 20
56.192415824905765
 11
-13.79781393640078
 21
55.753091207696876
  0
LINE
  8
0
 10
-13.79781393640078
 20
55.753091207696876
 11
-13.759531903895212
 21
55.43265883087021
  0
LINE
  8
0
 10
-13.759531903895212
 20
55.43265883087021
 11
-13.700008192293984
 21
55.07394173046451
  0
LINE
  8
0
 10
-13.700008192293984
 20
55.07394173046451
 11
-13.670859031324506
 21
54.690439636689575
  0
LINE
  8
0
 10
-13.670859031324506
 20
54.690439636689575
 11
-13.699850653771438
 21
54.420402246809516
  0
LINE
  8
0
 10
-13.699850653771438
 20
54.420402246809516
 11
-13.776509777511164
 21
54.268090104074645
  0
LINE
  8
0
 10
-13.776509777511164
 20
54.268090104074645
 11
-16.425911336323743
 21
53.525762600499725
  0
LINE
  8
0
 10
-16.425911336323743
 20
53.525762600499725
 11
-16.57054932394412
 21
53.61607020048107
  0
LINE
  8
0
 10
-16.57054932394412
 20
53.61607020048107
 11
-16.735627422421743
 21
53.83173180463931
  0
LINE
  8
0
 10
-16.735627422421743
 20
53.83173180463931
 11
-16.909983346394167
 21
54.17454887144139
  0
LINE
  8
0
 10
-16.909983346394167
 20
54.17454887144139
 11
-17.045508780143848
 21
54.51197128796179
  0
LINE
  8
0
 10
-17.045508780143848
 20
54.51197128796179
 11
-17.179291388797893
 21
54.805645658234795
  0
LINE
  8
0
 10
-17.179291388797893
 20
54.805645658234795
 11
-17.379964901125526
 21
55.197792511670094
  0
LINE
  8
0
 10
-17.379964901125526
 20
55.197792511670094
 11
-17.65665924828893
 21
55.68271415734844
  0
LINE
  8
0
 10
-17.65665924828893
 20
55.68271415734844
 11
-18.018114569467766
 21
56.254091200898586
  0
LINE
  8
0
 10
-18.018114569467766
 20
56.254091200898586
 11
-18.47264379266501
 21
56.90500665714771
  0
LINE
  8
0
 10
-18.47264379266501
 20
56.90500665714771
 11
-19.028096622309
 21
57.62797216856518
  0
LINE
  8
0
 10
-19.028096622309
 20
57.62797216856518
 11
-19.274874396138486
 21
57.92057705408218
  0
LINE
  8
0
 10
-19.274874396138486
 20
57.92057705408218
 11
-20.466334317200385
 21
57.586745640014534
  0
LINE
  8
0
 10
-20.466334317200385
 20
57.586745640014534
 11
-21.60124021124527
 21
57.09378644476877
  0
LINE
  8
0
 10
-21.60124021124527
 20
57.09378644476877
 11
-21.60800910099904
 21
56.711071053366624
  0
LINE
  8
0
 10
-21.60800910099904
 20
56.711071053366624
 11
-21.58262531398852
 21
55.79971895894001
  0
LINE
  8
0
 10
-21.58262531398852
 20
55.79971895894001
 11
-21.524423867163186
 21
55.00794857712673
  0
LINE
  8
0
 10
-21.524423867163186
 20
55.00794857712673
 11
-21.444219677037804
 21
54.3366148575903
  0
LINE
  8
0
 10
-21.444219677037804
 20
54.3366148575903
 11
-21.352826401676158
 21
53.78583719517262
  0
LINE
  8
0
 10
-21.352826401676158
 20
53.78583719517262
 11
-21.261011959325977
 21
53.35500181897382
  0
LINE
  8
0
 10
-21.261011959325977
 20
53.35500181897382
 11
-21.179454284722574
 21
53.042766702683494
  0
LINE
  8
0
 10
-21.179454284722574
 20
53.042766702683494
 11
-21.07163967464755
 21
52.695495857059186
  0
LINE
  8
0
 10
-21.07163967464755
 20
52.695495857059186
 11
-20.990541815505612
 21
52.31953486605403
  0
LINE
  8
0
 10
-20.990541815505612
 20
52.31953486605403
 11
-20.982493321905913
 21
52.04806492691506
  0
LINE
  8
0
 10
-20.982493321905913
 20
52.04806492691506
 11
-21.037698604337447
 21
51.88673301169465
  0
LINE
  8
0
 10
-21.037698604337447
 20
51.88673301169465
 11
-23.561343245366032
 21
50.79055945417285
  0
LINE
  8
0
 10
-23.561343245366032
 20
50.79055945417285
 11
-23.716930950241903
 21
50.860331054188364
  0
LINE
  8
0
 10
-23.716930950241903
 20
50.860331054188364
 11
-23.90983742037903
 21
51.0515058430187
  0
LINE
  8
0
 10
-23.90983742037903
 20
51.0515058430187
 11
-24.12924963510613
 21
51.36738843124351
  0
LINE
  8
0
 10
-24.12924963510613
 20
51.36738843124351
 11
-24.309458457439963
 21
51.68321403298688
  0
LINE
  8
0
 10
-24.309458457439963
 20
51.68321403298688
 11
-24.48198366258313
 21
51.95593637479964
  0
LINE
  8
0
 10
-24.48198366258313
 20
51.95593637479964
 11
-24.73418541397378
 21
52.31710571154432
  0
LINE
  8
0
 10
-24.73418541397378
 20
52.31710571154432
 11
-25.074332770622526
 21
52.75983422876956
  0
LINE
  8
0
 10
-25.074332770622526
 20
52.75983422876956
 11
-25.51022397482519
 21
53.27667127581955
  0
LINE
  8
0
 10
-25.51022397482519
 20
53.27667127581955
 11
-26.049152664831905
 21
53.85963234914429
  0
LINE
  8
0
 10
-26.049152664831905
 20
53.85963234914429
 11
-26.697875767948194
 21
54.500229970230905
  0
LINE
  8
0
 10
-26.697875767948194
 20
54.500229970230905
 11
-26.98219806704522
 21
54.75650661552033
  0
LINE
  8
0
 10
-26.98219806704522
 20
54.75650661552033
 11
-28.117103961090148
 21
54.26354742027459
  0
LINE
  8
0
 10
-28.117103961090148
 20
54.26354742027459
 11
-29.174314678636428
 21
53.62064334094361
  0
LINE
  8
0
 10
-29.174314678636428
 20
53.62064334094361
 11
-29.128907450180982
 21
53.24057088431385
  0
LINE
  8
0
 10
-29.128907450180982
 20
53.24057088431385
 11
-28.97966432828756
 21
52.341163597693225
  0
LINE
  8
0
 10
-28.97966432828756
 20
52.341163597693225
 11
-28.814192253133548
 21
51.56469290392974
  0
LINE
  8
0
 10
-28.814192253133548
 20
51.56469290392974
 11
-28.64332182614851
 21
50.910533158697554
  0
LINE
  8
0
 10
-28.64332182614851
 20
50.910533158697554
 11
-28.47778224399702
 21
50.377330185205544
  0
LINE
  8
0
 10
-28.47778224399702
 20
50.377330185205544
 11
-28.32815755682842
 21
49.96300969790358
  0
LINE
  8
0
 10
-28.32815755682842
 20
49.96300969790358
 11
-28.204843505292
 21
49.66478819159457
  0
LINE
  8
0
 10
-28.204843505292
 20
49.66478819159457
 11
-28.0507463789358
 21
49.33543259954394
  0
LINE
  8
0
 10
-28.0507463789358
 20
49.33543259954394
 11
-27.919210521294172
 21
48.97401615322548
  0
LINE
  8
0
 10
-27.919210521294172
 20
48.97401615322548
 11
-27.874271839855272
 21
48.70617063615291
  0
LINE
  8
0
 10
-27.874271839855272
 20
48.70617063615291
 11
-27.90699491101931
 21
48.53882425677581
  0
LINE
  8
0
 10
-27.90699491101931
 20
48.53882425677581
 11
-30.25787190952058
 21
47.10922428464376
  0
LINE
  8
0
 10
-30.25787190952058
 20
47.10922428464376
 11
-30.421511027093352
 21
47.15716017179806
  0
LINE
  8
0
 10
-30.421511027093352
 20
47.15716017179806
 11
-30.638652386344393
 21
47.32028692070118
  0
LINE
  8
0
 10
-30.638652386344393
 20
47.32028692070118
 11
-30.899033657409657
 21
47.60335073540291
  0
LINE
  8
0
 10
-30.899033657409657
 20
47.60335073540291
 11
-31.120568918935742
 21
47.89169628897376
  0
LINE
  8
0
 10
-31.120568918935742
 20
47.89169628897376
 11
-31.328622902426435
 21
48.13838630110878
  0
LINE
  8
0
 10
-31.328622902426435
 20
48.13838630110878
 11
-31.627654851435743
 21
48.461850219777936
  0
LINE
  8
0
 10
-31.627654851435743
 20
48.461850219777936
 11
-32.024918915898965
 21
48.854138413948675
  0
LINE
  8
0
 10
-32.024918915898965
 20
48.854138413948675
 11
-32.527126174729
 21
49.30680776820521
  0
LINE
  8
0
 10
-32.527126174729
 20
49.30680776820521
 11
-33.1404151097426
 21
49.810954996814246
  0
LINE
  8
0
 10
-33.1404151097426
 20
49.810954996814246
 11
-33.870324002351374
 21
50.35725160594639
  0
LINE
  8
0
 10
-33.870324002351374
 20
50.35725160594639
 11
-34.18689444024223
 21
50.572426062000574
  0
LINE
  8
0
 10
-34.18689444024223
 20
50.572426062000574
 11
-35.24410515778848
 21
49.9295219826696
  0
LINE
  8
0
 10
-35.24410515778848
 20
49.9295219826696
 11
-36.203926863487766
 21
49.14864910583003
  0
LINE
  8
0
 10
-36.203926863487766
 20
49.14864910583003
 11
-36.107189367575444
 21
48.77829961471497
  0
LINE
  8
0
 10
-36.107189367575444
 20
48.77829961471497
 11
-35.83686702778117
 21
47.90759139190613
  0
LINE
  8
0
 10
-35.83686702778117
 20
47.90759139190613
 11
-35.567206755973416
 21
47.1608845660783
  0
LINE
  8
0
 10
-35.567206755973416
 20
47.1608845660783
 11
-35.308853084884184
 21
46.53608455348627
  0
LINE
  8
0
 10
-35.308853084884184
 20
46.53608455348627
 11
-35.072250885145415
 21
46.0303888314573
  0
LINE
  8
0
 10
-35.072250885145415
 20
46.0303888314573
 11
-34.86760317797957
 21
45.64030123980615
  0
LINE
  8
0
 10
-34.86760317797957
 20
45.64030123980615
 11
-34.7048298569711
 21
45.36164864588422
  0
LINE
  8
0
 10
-34.7048298569711
 20
45.36164864588422
 11
-34.50732075223478
 21
45.05634357892248
  0
LINE
  8
0
 10
-34.50732075223478
 20
45.05634357892248
 11
-34.32779716024593
 21
44.716204181859446
  0
LINE
  8
0
 10
-34.32779716024593
 20
44.716204181859446
 11
-34.246805413575785
 21
44.45697254205315
  0
LINE
  8
0
 10
-34.246805413575785
 20
44.45697254205315
 11
-34.25643670457099
 21
44.286729044935655
  0
LINE
  8
0
 10
-34.25643670457099
 20
44.286729044935655
 11
-36.39075367009295
 21
42.55033340076713
  0
LINE
  8
0
 10
-36.39075367009295
 20
42.55033340076713
 11
-36.55939591321933
 21
42.57554062018074
  0
LINE
  8
0
 10
-36.55939591321933
 20
42.57554062018074
 11
-36.796727228908665
 21
42.70758058647225
  0
LINE
  8
0
 10
-36.796727228908665
 20
42.70758058647225
 11
-37.09322714589244
 21
42.9525526843603
  0
LINE
  8
0
 10
-37.09322714589244
 20
42.9525526843603
 11
-37.351962063849356
 21
43.20804685766633
  0
LINE
  8
0
 10
-37.351962063849356
 20
43.20804685766633
 11
-37.591669173628404
 21
43.424109171952985
  0
LINE
  8
0
 10
-37.591669173628404
 20
43.424109171952985
 11
-37.931960920836495
 21
43.70384215175904
  0
LINE
  8
0
 10
-37.931960920836495
 20
43.70384215175904
 11
-38.37894141524574
 21
44.03838243605565
  0
LINE
  8
0
 10
-38.37894141524574
 20
44.03838243605565
 11
-38.938109557683745
 21
44.41845172393224
  0
LINE
  8
0
 10
-38.938109557683745
 20
44.41845172393224
 11
-39.614334325232164
 21
44.83439379883977
  0
LINE
  8
0
 10
-39.614334325232164
 20
44.83439379883977
 11
-40.41183218570479
 21
45.2762129238222
  0
LINE
  8
0
 10
-40.41183218570479
 20
45.2762129238222
 11
-40.754753654105805
 21
45.44627689765054
  0
LINE
  8
0
 10
-40.754753654105805
 20
45.44627689765054
 11
-41.71457535980511
 21
44.66540402081096
  0
LINE
  8
0
 10
-41.71457535980511
 20
44.66540402081096
 11
-42.55912839133262
 21
43.76110853069014
  0
LINE
  8
0
 10
-42.55912839133262
 20
43.76110853069014
 11
-42.41286266447791
 21
43.4073809153811
  0
LINE
  8
0
 10
-42.41286266447791
 20
43.4073809153811
 11
-42.02649670050364
 21
42.58159140313176
  0
LINE
  8
0
 10
-42.02649670050364
 20
42.58159140313176
 11
-41.65767149268909
 21
41.87855818058117
  0
LINE
  8
0
 10
-41.65767149268909
 20
41.87855818058117
 11
-41.316647217564146
 21
41.294756742696855
  0
LINE
  8
0
 10
-41.316647217564146
 20
41.294756742696855
 11
-41.01338985155068
 21
40.8259884266193
  0
LINE
  8
0
 10
-41.01338985155068
 20
40.8259884266193
 11
-40.75753132396375
 21
40.46740032437734
  0
LINE
  8
0
 10
-40.75753132396375
 20
40.46740032437734
 11
-40.55833089247468
 21
40.21350741343631
  0
LINE
  8
0
 10
-40.55833089247468
 20
40.21350741343631
 11
-40.32108903027791
 21
39.93794012730157
  0
LINE
  8
0
 10
-40.32108903027791
 20
39.93794012730157
 11
-40.09692188878889
 21
39.6254139328928
  0
LINE
  8
0
 10
-40.09692188878889
 20
39.6254139328928
 11
-39.9813857998857
 21
39.37962516531728
  0
LINE
  8
0
 10
-39.9813857998857
 20
39.37962516531728
 11
-39.96774589798391
 21
39.20965586469761
  0
LINE
  8
0
 10
-39.96774589798391
 20
39.20965586469761
 11
-41.84574454374168
 21
37.198810313956756
  0
LINE
  8
0
 10
-41.84574454374168
 20
37.198810313956756
 11
-42.016248426515624
 21
37.200819302825884
  0
LINE
  8
0
 10
-42.016248426515624
 20
37.200819302825884
 11
-42.269348665280056
 21
37.29931283176296
  0
LINE
  8
0
 10
-42.269348665280056
 20
37.29931283176296
 11
-42.59644399572831
 21
37.5016298461587
  0
LINE
  8
0
 10
-42.59644399572831
 20
37.5016298461587
 11
-42.88755882813979
 21
37.719513266164775
  0
LINE
  8
0
 10
-42.88755882813979
 20
37.719513266164775
 11
-43.15445377429526
 21
37.90092305049348
  0
LINE
  8
0
 10
-43.15445377429526
 20
37.90092305049348
 11
-43.529666328308366
 21
38.13171419529777
  0
LINE
  8
0
 10
-43.529666328308366
 20
38.13171419529777
 11
-44.01803685177235
 21
38.40227471719833
  0
LINE
  8
0
 10
-44.01803685177235
 20
38.40227471719833
 11
-44.62374963331148
 21
38.70266396698055
  0
LINE
  8
0
 10
-44.62374963331148
 20
38.70266396698055
 11
-45.35031344544169
 21
39.02265267432367
  0
LINE
  8
0
 10
-45.35031344544169
 20
39.02265267432367
 11
-46.200544397561444
 21
39.35176406081185
  0
LINE
  8
0
 10
-46.200544397561444
 20
39.35176406081185
 11
-46.56342891834868
 21
39.473549582355346
  0
LINE
  8
0
 10
-46.56342891834868
 20
39.473549582355346
 11
-47.40798194987618
 21
38.56925409223453
  0
LINE
  8
0
 10
-47.40798194987618
 20
38.56925409223453
 11
-48.12153388221028
 21
37.55838130282062
  0
LINE
  8
0
 10
-48.12153388221028
 20
37.55838130282062
 11
-47.92846457815907
 21
37.227864839512435
  0
LINE
  8
0
 10
-47.92846457815907
 20
37.227864839512435
 11
-47.43325225688117
 21
36.46237693398203
  0
LINE
  8
0
 10
-47.43325225688117
 20
36.46237693398203
 11
-46.972132628837315
 21
35.81611349345487
  0
LINE
  8
0
 10
-46.972132628837315
 20
35.81611349345487
 11
-46.554790386679535
 21
35.28418574647131
  0
LINE
  8
0
 10
-46.554790386679535
 20
35.28418574647131
 11
-46.190526965335216
 21
34.861077103129965
  0
LINE
  8
0
 10
-46.190526965335216
 20
34.861077103129965
 11
-45.88822377759323
 21
34.540668308167234
  0
LINE
  8
0
 10
-45.88822377759323
 20
34.540668308167234
 11
-45.6563069627605
 21
34.3162646247541
  0
LINE
  8
0
 10
-45.6563069627605
 20
34.3162646247541
 11
-45.38375171011716
 21
34.075568416593725
  0
LINE
  8
0
 10
-45.38375171011716
 20
34.075568416593725
 11
-45.119116828833405
 21
33.79647719651878
  0
LINE
  8
0
 10
-45.119116828833405
 20
33.79647719651878
 11
-44.971188616430766
 21
33.56870988086376
  0
LINE
  8
0
 10
-44.971188616430766
 20
33.56870988086376
 11
-44.934531607196725
 21
33.40218098321819
  0
LINE
  8
0
 10
-44.934531607196725
 20
33.40218098321819
 11
-46.52122837172974
 21
31.15434377384942
  0
LINE
  8
0
 10
-46.52122837172974
 20
31.15434377384942
 11
-46.690417729420886
 21
31.133117108512575
  0
LINE
  8
0
 10
-46.690417729420886
 20
31.133117108512575
 11
-46.954572112696276
 21
31.19622945200805
  0
LINE
  8
0
 10
-46.954572112696276
 20
31.19622945200805
 11
-47.30616968949089
 21
31.352122599731768
  0
LINE
  8
0
 10
-47.30616968949089
 20
31.352122599731768
 11
-47.62424151783953
 21
31.52833651057443
  0
LINE
  8
0
 10
-47.62424151783953
 20
31.52833651057443
 11
-47.913352552509195
 21
31.67171444390365
  0
LINE
  8
0
 10
-47.913352552509195
 20
31.67171444390365
 11
-48.31649641337546
 21
31.849264551352086
  0
LINE
  8
0
 10
-48.31649641337546
 20
31.849264551352086
 11
-48.83715954707456
 21
32.05080528025376
  0
LINE
  8
0
 10
-48.83715954707456
 20
32.05080528025376
 11
-49.47813368464734
 21
32.26591880857645
  0
LINE
  8
0
 10
-49.47813368464734
 20
32.26591880857645
 11
-50.241502032250864
 21
32.483993364179256
  0
LINE
  8
0
 10
-50.241502032250864
 20
32.483993364179256
 11
-51.12862788207851
 21
32.69426628974556
  0
LINE
  8
0
 10
-51.12862788207851
 20
32.69426628974556
 11
-51.50471560323357
 21
32.76550472516492
  0
LINE
  8
0
 10
-51.50471560323357
 20
32.76550472516492
 11
-52.218267535567655
 21
31.754631935750997
  0
LINE
  8
0
 10
-52.218267535567655
 20
31.754631935750997
 11
-52.78752624630101
 21
30.65601249446601
  0
LINE
  8
0
 10
-52.78752624630101
 20
30.65601249446601
 11
-52.55124988088669
 21
30.354864079508953
  0
LINE
  8
0
 10
-52.55124988088669
 20
30.354864079508953
 11
-51.95641607087285
 21
29.66393737201879
  0
LINE
  8
0
 10
-51.95641607087285
 20
29.66393737201879
 11
-51.411591808798306
 21
29.086482378634685
  0
LINE
  8
0
 10
-51.411591808798306
 20
29.086482378634685
 11
-50.925705895937234
 21
28.616337130032246
  0
LINE
  8
0
 10
-50.925705895937234
 20
28.616337130032246
 11
-50.50722195758886
 21
28.246769872900263
  0
LINE
  8
0
 10
-50.50722195758886
 20
28.246769872900263
 11
-50.16410544609985
 21
27.970508994830187
  0
LINE
  8
0
 10
-50.16410544609985
 20
27.970508994830187
 11
-49.90379241938033
 21
27.779774754978856
  0
LINE
  8
0
 10
-49.90379241938033
 20
27.779774754978856
 11
-49.60100096495283
 21
27.578433339736165
  0
LINE
  8
0
 10
-49.60100096495283
 20
27.578433339736165
 11
-49.30082799100423
 21
27.33797603536417
  0
LINE
  8
0
 10
-49.30082799100423
 20
27.33797603536417
 11
-49.12326327780826
 21
27.132473045767988
  0
LINE
  8
0
 10
-49.12326327780826
 20
27.132473045767988
 11
-49.06427201196629
 21
26.97248666937489
  0
LINE
  8
0
 10
-49.06427201196629
 20
26.97248666937489
 11
-50.33010973669686
 21
24.529530755517413
  0
LINE
  8
0
 10
-50.33010973669686
 20
24.529530755517413
 11
-50.49483289168998
 21
24.485463848587433
  0
LINE
  8
0
 10
-50.49483289168998
 20
24.485463848587433
 11
-50.7651207231152
 21
24.512019343095123
  0
LINE
  8
0
 10
-50.7651207231152
 20
24.512019343095123
 11
-51.13467094864866
 21
24.61858462976589
  0
LINE
  8
0
 10
-51.13467094864866
 20
24.61858462976589
 11
-51.47377469658732
 21
24.74984649969567
  0
LINE
  8
0
 10
-51.47377469658732
 20
24.74984649969567
 11
-51.779716228214376
 21
24.85252172240894
  0
LINE
  8
0
 10
-51.779716228214376
 20
24.85252172240894
 11
-52.20328158858334
 21
24.973523369937464
  0
LINE
  8
0
 10
-52.20328158858334
 20
24.973523369937464
 11
-52.74653836346923
 21
25.102289983390513
  0
LINE
  8
0
 10
-52.74653836346923
 20
25.102289983390513
 11
-53.41083372166231
 21
25.228120632231448
  0
LINE
  8
0
 10
-53.41083372166231
 20
25.228120632231448
 11
-54.19678649677168
 21
25.34021871973595
  0
LINE
  8
0
 10
-54.19678649677168
 20
25.34021871973595
 11
-55.104281768231495
 21
25.427736197628747
  0
LINE
  8
0
 10
-55.104281768231495
 20
25.427736197628747
 11
-55.48656688709457
 21
25.4471005096604
  0
LINE
  8
0
 10
-55.48656688709457
 20
25.4471005096604
 11
-56.05582559782795
 21
24.34848106837541
  0
LINE
  8
0
 10
-56.05582559782795
 20
24.34848106837541
 11
-56.47018687425851
 21
23.18258017674268
  0
LINE
  8
0
 10
-56.47018687425851
 20
23.18258017674268
 11
-56.19510482911659
 21
22.9164096353127
  0
LINE
  8
0
 10
-56.19510482911659
 20
22.9164096353127
 11
-55.511730158778605
 21
22.312914783139778
  0
LINE
  8
0
 10
-55.511730158778605
 20
22.312914783139778
 11
-54.893350307828726
 21
21.815025130838663
  0
LINE
  8
0
 10
-54.893350307828726
 20
21.815025130838663
 11
-54.34797185948951
 21
21.415420297049835
  0
LINE
  8
0
 10
-54.34797185948951
 20
21.415420297049835
 11
-53.8830629681065
 21
21.106278764879484
  0
LINE
  8
0
 10
-53.8830629681065
 20
21.106278764879484
 11
-53.505524744278134
 21
20.879312021154856
  0
LINE
  8
0
 10
-53.505524744278134
 20
20.879312021154856
 11
-53.22166464482845
 21
20.725800242870715
  0
LINE
  8
0
 10
-53.22166464482845
 20
20.725800242870715
 11
-52.89427742050932
 21
20.567564230159093
  0
LINE
  8
0
 10
-52.89427742050932
 20
20.567564230159093
 11
-52.56415800845147
 21
20.370220106107812
  0
LINE
  8
0
 10
-52.56415800845147
 20
20.370220106107812
 11
-52.36026448910367
 21
20.190809574440056
  0
LINE
  8
0
 10
-52.36026448910367
 20
20.190809574440056
 11
-52.28003786232064
 21
20.040345962785782
  0
LINE
  8
0
 10
-52.28003786232064
 20
20.040345962785782
 11
-53.20143638549399
 21
17.447778990864656
  0
LINE
  8
0
 10
-53.20143638549399
 20
17.447778990864656
 11
-53.358624857079754
 21
17.38169272543986
  0
LINE
  8
0
 10
-53.358624857079754
 20
17.38169272543986
 11
-53.63001118575956
 21
17.371196692342014
  0
LINE
  8
0
 10
-53.63001118575956
 20
17.371196692342014
 11
-54.01063003854606
 21
17.426449008298423
  0
LINE
  8
0
 10
-54.01063003854606
 20
17.426449008298423
 11
-54.36444884485958
 21
17.510313677035516
  0
LINE
  8
0
 10
-54.36444884485958
 20
17.510313677035516
 11
-54.68152176157341
 21
17.570373544002674
  0
LINE
  8
0
 10
-54.68152176157341
 20
17.570373544002674
 11
-55.117618400197834
 21
17.632572699861736
  0
LINE
  8
0
 10
-55.117618400197834
 20
17.632572699861736
 11
-55.67334897043568
 21
17.68616651949332
  0
LINE
  8
0
 10
-55.67334897043568
 20
17.68616651949332
 11
-56.348590983621015
 21
17.720370301945326
  0
LINE
  8
0
 10
-56.348590983621015
 20
17.720370301945326
 11
-57.142487373115706
 21
17.724403746079044
  0
LINE
  8
0
 10
-57.142487373115706
 20
17.724403746079044
 11
-58.053447146347395
 21
17.687535491274613
  0
LINE
  8
0
 10
-58.053447146347395
 20
17.687535491274613
 11
-58.43480841446529
 21
17.654664959424096
  0
LINE
  8
0
 10
-58.43480841446529
 20
17.654664959424096
 11
-58.849169690895835
 21
16.48876406779135
  0
LINE
  8
0
 10
-58.849169690895835
 20
16.48876406779135
 11
-59.10091476644525
 21
15.27730025345277
  0
LINE
  8
0
 10
-59.10091476644525
 20
15.27730025345277
 11
-58.79215129960162
 21
15.05106583912274
  0
LINE
  8
0
 10
-58.79215129960162
 20
15.05106583912274
 11
-58.03296574605334
 21
14.546244809506927
  0
LINE
  8
0
 10
-58.03296574605334
 20
14.546244809506927
 11
-57.352549552831725
 21
14.137195240467783
  0
LINE
  8
0
 10
-57.352549552831725
 20
14.137195240467783
 11
-56.75783793761128
 21
13.815574703464662
  0
LINE
  8
0
 10
-56.75783793761128
 20
13.815574703464662
 11
-56.25516446619867
 21
13.572617618082038
  0
LINE
  8
0
 10
-56.25516446619867
 20
13.572617618082038
 11
-55.85023735281112
 21
13.399172969700874
  0
LINE
  8
0
 10
-55.85023735281112
 20
13.399172969700874
 11
-55.54811795720009
 21
13.285743286957922
  0
LINE
  8
0
 10
-55.54811795720009
 20
13.285743286957922
 11
-55.202233567537995
 21
13.173560314300147
  0
LINE
  8
0
 10
-55.202233567537995
 20
13.173560314300147
 11
-54.84831721740761
 21
13.023005518211235
  0
LINE
  8
0
 10
-54.84831721740761
 20
13.023005518211235
 11
-54.62189304239209
 21
12.873029523219111
  0
LINE
  8
0
 10
-54.62189304239209
 20
12.873029523219111
 11
-54.52192552493036
 21
12.734891528700695
  0
LINE
  8
0
 10
-54.52192552493036
 20
12.734891528700695
 11
-55.081720935412726
 21
10.041008116077725
  0
LINE
  8
0
 10
-55.081720935412726
 20
10.041008116077725
 11
-55.22844659977749
 21
9.954133554242958
  0
LINE
  8
0
 10
-55.22844659977749
 20
9.954133554242958
 11
-55.49587601189123
 21
9.906781514776927
  0
LINE
  8
0
 10
-55.49587601189123
 20
9.906781514776927
 11
-55.88047328286187
 21
9.909691613914106
  0
LINE
  8
0
 10
-55.88047328286187
 20
9.909691613914106
 11
-56.24241617263953
 21
9.94459684135799
  0
LINE
  8
0
 10
-56.24241617263953
 20
9.94459684135799
 11
-56.564714005926746
 21
9.960922550895072
  0
LINE
  8
0
 10
-56.564714005926746
 20
9.960922550895072
 11
-57.0052182675556
 21
9.963160562496345
  0
LINE
  8
0
 10
-57.0052182675556
 20
9.963160562496345
 11
-57.563070424104495
 21
9.940583236850124
  0
LINE
  8
0
 10
-57.563070424104495
 20
9.940583236850124
 11
-58.23668061118338
 21
9.882523001162161
  0
LINE
  8
0
 10
-58.23668061118338
 20
9.882523001162161
 11
-59.02373182743677
 21
9.778416666492458
  0
LINE
  8
0
 10
-59.02373182743677
 20
9.778416666492458
 11
-59.92118664546709
 21
9.617849464820386
  0
LINE
  8
0
 10
-59.92118664546709
 20
9.617849464820386
 11
-60.29452002397798
 21
9.53335640490263
  0
LINE
  8
0
 10
-60.29452002397798
 20
9.53335640490263
 11
-60.54626509952745
 21
8.321892590564053
  0
LINE
  8
0
 10
-60.54626509952745
 20
8.321892590564053
 11
-60.63070443975828
 21
7.087433132203211
  0
LINE
  8
0
 10
-60.63070443975828
 20
7.087433132203211
 11
-60.29401123039725
 21
6.905349164060125
  0
LINE
  8
0
 10
-60.29401123039725
 20
6.905349164060125
 11
-59.47315698406706
 21
6.508605817625096
  0
LINE
  8
0
 10
-59.47315698406706
 20
6.508605817625096
 11
-58.74337931485654
 21
6.196016151367608
  0
LINE
  8
0
 10
-58.74337931485654
 20
6.196016151367608
 11
-58.110412884908826
 21
5.958371093225146
  0
LINE
  8
0
 10
-58.110412884908826
 20
5.958371093225146
 11
-57.57933868914432
 21
5.786124285438462
  0
LINE
  8
0
 10
-57.57933868914432
 20
5.786124285438462
 11
-57.15456571216848
 21
5.669432678030229
  0
LINE
  8
0
 10
-57.15456571216848
 20
5.669432678030229
 11
-56.83981493310448
 21
5.598198071200765
  0
LINE
  8
0
 10
-56.83981493310448
 20
5.598198071200765
 11
-56.48187654984042
 21
5.534157895119117
  0
LINE
  8
0
 10
-56.48187654984042
 20
5.534157895119117
 11
-56.11075605360498
 21
5.433196977983094
  0
LINE
  8
0
 10
-56.11075605360498
 20
5.433196977983094
 11
-55.86601907689128
 21
5.315449288687828
  0
LINE
  8
0
 10
-55.86601907689128
 20
5.315449288687828
 11
-55.74817287445535
 21
5.192210160776025
  0
LINE
  8
0
 10
-55.74817287445535
 20
5.192210160776025
 11
-55.93593724292304
 21
2.4471922584052157
  0
LINE
  8
0
 10
-55.93593724292304
 20
2.4471922584052157
 11
-56.06946687855531
 21
2.3411477088744768
  0
LINE
  8
0
 10
-56.06946687855531
 20
2.3411477088744768
 11
-56.327957670151186
 21
2.2578217419420166
  0
LINE
  8
0
 10
-56.327957670151186
 20
2.2578217419420166
 11
-56.70936903983378
 21
2.2083354146191567
  0
LINE
  8
0
 10
-56.70936903983378
 20
2.2083354146191567
 11
-57.072693701861255
 21
2.1936309824257805
  0
LINE
  8
0
 10
-57.072693701861255
 20
2.1936309824257805
 11
-57.394212652898645
 21
2.165918417453537
  0
LINE
  8
0
 10
-57.394212652898645
 20
2.165918417453537
 11
-57.830918776603845
 21
2.108153594875366
  0
LINE
  8
0
 10
-57.830918776603845
 20
2.108153594875366
 11
-58.38050078928409
 21
2.009825696810192
  0
LINE
  8
0
 10
-58.38050078928409
 20
2.009825696810192
 11
-59.03993106699068
 21
1.860582995318943
  0
LINE
  8
0
 10
-59.03993106699068
 20
1.860582995318943
 11
-59.80547583500205
 21
1.6502761858839652
  0
LINE
  8
0
 10
-59.80547583500205
 20
1.6502761858839652
 11
-60.672707812620835
 21
1.3690011005065905
  0
LINE
  8
0
 10
-60.672707812620835
 20
1.3690011005065905
 11
-61.031058807056944
 21
1.234459458360854
  0
LINE
  8
0
 10
-61.031058807056944
 20
1.234459458360854
 11
-61.115498147287816
 21
-1.7763568394002505e-14
  0
LINE
  8
0
 10
-61.115498147287816
 20
-1.7763568394002505e-14
 11
-61.03105880705693
 21
-1.2344594583608588
  0
LINE
  8
0
 10
-61.03105880705693
 20
-1.2344594583608588
 11
-60.67270781262089
 21
-1.3690011005065872
  0
LINE
  8
0
 10
-60.67270781262089
 20
-1.3690011005065872
 11
-59.805475835002035
 21
-1.6502761858839845
  0
LINE
  8
0
 10
-59.805475835002035
 20
-1.6502761858839845
 11
-59.03993106698763
 21
-1.860582995319799
  0
LINE
  8
0
 10
-59.03993106698763
 20
-1.860582995319799
 11
-58.38050078928409
 21
-2.009825696810128
  0
LINE
  8
0
 10
-58.38050078928409
 20
-2.009825696810128
 11
-57.830918776603816
 21
-2.108153594875281
  0
LINE
  8
0
 10
-57.830918776603816
 20
-2.108153594875281
 11
-57.3942126528994
 21
-2.165918417453568
  0
LINE
  8
0
 10
-57.3942126528994
 20
-2.165918417453568
 11
-57.07269370186505
 21
-2.193630982425364
  0
LINE
  8
0
 10
-57.07269370186505
 20
-2.193630982425364
 11
-56.70936903983381
 21
-2.2083354146191505
  0
LINE
  8
0
 10
-56.70936903983381
 20
-2.2083354146191505
 11
-56.327957670151235
 21
-2.25782174194143
  0
LINE
  8
0
 10
-56.327957670151235
 20
-2.25782174194143
 11
-56.06946687855539
 21
-2.34114770887545
  0
LINE
  8
0
 10
-56.06946687855539
 20
-2.34114770887545
 11
-55.93593724292307
 21
-2.447192258405031
  0
LINE
  8
0
 10
-55.93593724292307
 20
-2.447192258405031
 11
-55.748172874455356
 21
-5.192210160775838
  0
LINE
  8
0
 10
-55.748172874455356
 20
-5.192210160775838
 11
-55.86601907689107
 21
-5.315449288688782
  0
LINE
  8
0
 10
-55.86601907689107
 20
-5.315449288688782
 11
-56.110756053605016
 21
-5.433196977982506
  0
LINE
  8
0
 10
-56.110756053605016
 20
-5.433196977982506
 11
-56.48187654984039
 21
-5.534157895119106
  0
LINE
  8
0
 10
-56.48187654984039
 20
-5.534157895119106
 11
-56.839814933100776
 21
-5.598198071199836
  0
LINE
  8
0
 10
-56.839814933100776
 20
-5.598198071199836
 11
-57.15456571216774
 21
-5.669432678030158
  0
LINE
  8
0
 10
-57.15456571216774
 20
-5.669432678030158
 11
-57.57933868914437
 21
-5.786124285438381
  0
LINE
  8
0
 10
-57.57933868914437
 20
-5.786124285438381
 11
-58.11041288490884
 21
-5.958371093225084
  0
LINE
  8
0
 10
-58.11041288490884
 20
-5.958371093225084
 11
-58.74337931485946
 21
-6.196016151368873
  0
LINE
  8
0
 10
-58.74337931485946
 20
-6.196016151368873
 11
-59.47315698406708
 21
-6.508605817625118
  0
LINE
  8
0
 10
-59.47315698406708
 20
-6.508605817625118
 11
-60.2940112303972
 21
-6.905349164060113
  0
LINE
  8
0
 10
-60.2940112303972
 20
-6.905349164060113
 11
-60.6307044397583
 21
-7.087433132203214
  0
LINE
  8
0
 10
-60.6307044397583
 20
-7.087433132203214
 11
-60.54626509952743
 21
-8.321892590564062
  0
LINE
  8
0
 10
-60.54626509952743
 20
-8.321892590564062
 11
-60.294520023978
 21
-9.53335640490264
  0
LINE
  8
0
 10
-60.294520023978
 20
-9.53335640490264
 11
-59.921186645467145
 21
-9.617849464820388
  0
LINE
  8
0
 10
-59.921186645467145
 20
-9.617849464820388
 11
-59.02373182743675
 21
-9.778416666492477
  0
LINE
  8
0
 10
-59.02373182743675
 20
-9.778416666492477
 11
-58.23668061118023
 21
-9.882523001162593
  0
LINE
  8
0
 10
-58.23668061118023
 20
-9.882523001162593
 11
-57.5630704241045
 21
-9.94058323685006
  0
LINE
  8
0
 10
-57.5630704241045
 20
-9.94058323685006
 11
-57.00521826755558
 21
-9.963160562496252
  0
LINE
  8
0
 10
-57.00521826755558
 20
-9.963160562496252
 11
-56.564714005927485
 21
-9.960922550895205
  0
LINE
  8
0
 10
-56.564714005927485
 20
-9.960922550895205
 11
-56.242416172643345
 21
-9.944596841358093
  0
LINE
  8
0
 10
-56.242416172643345
 20
-9.944596841358093
 11
-55.88047328286191
 21
-9.909691613914102
  0
LINE
  8
0
 10
-55.88047328286191
 20
-9.909691613914102
 11
-55.495876011891355
 21
-9.906781514776352
  0
LINE
  8
0
 10
-55.495876011891355
 20
-9.906781514776352
 11
-55.22844659977743
 21
-9.954133554243931
  0
LINE
  8
0
 10
-55.22844659977743
 20
-9.954133554243931
 11
-55.081720935412775
 21
-10.041008116077544
  0
LINE
  8
0
 10
-55.081720935412775
 20
-10.041008116077544
 11
-54.52192552493038
 21
-12.734891528700508
  0
LINE
  8
0
 10
-54.52192552493038
 20
-12.734891528700508
 11
-54.621893042391754
 21
-12.873029523220028
  0
LINE
  8
0
 10
-54.621893042391754
 20
-12.873029523220028
 11
-54.848317217407725
 21
-13.023005518210656
  0
LINE
  8
0
 10
-54.848317217407725
 20
-13.023005518210656
 11
-55.202233567537974
 21
-13.173560314300133
  0
LINE
  8
0
 10
-55.202233567537974
 20
-13.173560314300133
 11
-55.54811795719655
 21
-13.285743286956498
  0
LINE
  8
0
 10
-55.54811795719655
 20
-13.285743286956498
 11
-55.850237352810396
 21
-13.3991729697007
  0
LINE
  8
0
 10
-55.850237352810396
 20
-13.3991729697007
 11
-56.25516446619873
 21
-13.572617618081964
  0
LINE
  8
0
 10
-56.25516446619873
 20
-13.572617618081964
 11
-56.7578379376113
 21
-13.8155747034646
  0
LINE
  8
0
 10
-56.7578379376113
 20
-13.8155747034646
 11
-57.35254955283444
 21
-14.13719524046943
  0
LINE
  8
0
 10
-57.35254955283444
 20
-14.13719524046943
 11
-58.03296574605336
 21
-14.54624480950695
  0
LINE
  8
0
 10
-58.03296574605336
 20
-14.54624480950695
 11
-58.79215129960157
 21
-15.051065839122721
  0
LINE
  8
0
 10
-58.79215129960157
 20
-15.051065839122721
 11
-59.10091476644531
 21
-15.277300253452784
  0
LINE
  8
0
 10
-59.10091476644531
 20
-15.277300253452784
 11
-58.84916969089584
 21
-16.488764067791358
  0
LINE
  8
0
 10
-58.84916969089584
 20
-16.488764067791358
 11
-58.434808414465294
 21
-17.654664959424103
  0
LINE
  8
0
 10
-58.434808414465294
 20
-17.654664959424103
 11
-58.053447146347445
 21
-17.687535491274623
  0
LINE
  8
0
 10
-58.053447146347445
 20
-17.687535491274623
 11
-57.14248737311569
 21
-17.724403746079062
  0
LINE
  8
0
 10
-57.14248737311569
 20
-17.724403746079062
 11
-56.34859098361784
 21
-17.720370301945323
  0
LINE
  8
0
 10
-56.34859098361784
 20
-17.720370301945323
 11
-55.67334897043571
 21
-17.68616651949326
  0
LINE
  8
0
 10
-55.67334897043571
 20
-17.68616651949326
 11
-55.11761840019783
 21
-17.632572699861647
  0
LINE
  8
0
 10
-55.11761840019783
 20
-17.632572699861647
 11
-54.681521761574125
 21
-17.570373544002905
  0
LINE
  8
0
 10
-54.681521761574125
 20
-17.570373544002905
 11
-54.36444884486335
 21
-17.510313677036134
  0
LINE
  8
0
 10
-54.36444884486335
 20
-17.510313677036134
 11
-54.0106300385461
 21
-17.426449008298423
  0
LINE
  8
0
 10
-54.0106300385461
 20
-17.426449008298423
 11
-53.63001118575977
 21
-17.37119669234146
  0
LINE
  8
0
 10
-53.63001118575977
 20
-17.37119669234146
 11
-53.35862485707957
 21
-17.381692725440818
  0
LINE
  8
0
 10
-53.35862485707957
 20
-17.381692725440818
 11
-53.20143638549408
 21
-17.447778990864485
  0
LINE
  8
0
 10
-53.20143638549408
 20
-17.447778990864485
 11
-52.2800378623207
 21
-20.0403459627856
  0
LINE
  8
0
 10
-52.2800378623207
 20
-20.0403459627856
 11
-52.36026448910323
 21
-20.19080957444092
  0
LINE
  8
0
 10
-52.36026448910323
 20
-20.19080957444092
 11
-52.56415800845167
 21
-20.370220106107254
  0
LINE
  8
0
 10
-52.56415800845167
 20
-20.370220106107254
 11
-52.894277420509304
 21
-20.567564230159075
  0
LINE
  8
0
 10
-52.894277420509304
 20
-20.567564230159075
 11
-53.22166464482514
 21
-20.72580024286882
  0
LINE
  8
0
 10
-53.22166464482514
 20
-20.72580024286882
 11
-53.50552474427744
 21
-20.879312021154583
  0
LINE
  8
0
 10
-53.50552474427744
 20
-20.879312021154583
 11
-53.883062968106564
 21
-21.10627876487942
  0
LINE
  8
0
 10
-53.883062968106564
 20
-21.10627876487942
 11
-54.34797185948955
 21
-21.415420297049774
  0
LINE
  8
0
 10
-54.34797185948955
 20
-21.415420297049774
 11
-54.8933503078312
 21
-21.815025130840667
  0
LINE
  8
0
 10
-54.8933503078312
 20
-21.815025130840667
 11
-55.51173015877861
 21
-22.3129147831398
  0
LINE
  8
0
 10
-55.51173015877861
 20
-22.3129147831398
 11
-56.195104829116545
 21
-22.916409635312675
  0
LINE
  8
0
 10
-56.195104829116545
 20
-22.916409635312675
 11
-56.47018687425852
 21
-23.182580176742686
  0
LINE
  8
0
 10
-56.47018687425852
 20
-23.182580176742686
 11
-56.055825597827976
 21
-24.34848106837543
  0
LINE
  8
0
 10
-56.055825597827976
 20
-24.34848106837543
 11
-55.4865668870946
 21
-25.447100509660416
  0
LINE
  8
0
 10
-55.4865668870946
 20
-25.447100509660416
 11
-55.10428176823155
 21
-25.427736197628764
  0
LINE
  8
0
 10
-55.10428176823155
 20
-25.427736197628764
 11
-54.196786496771665
 21
-25.340218719735965
  0
LINE
  8
0
 10
-54.196786496771665
 20
-25.340218719735965
 11
-53.41083372165916
 21
-25.22812063223102
  0
LINE
  8
0
 10
-53.41083372165916
 20
-25.22812063223102
 11
-52.74653836346926
 21
-25.102289983390456
  0
LINE
  8
0
 10
-52.74653836346926
 20
-25.102289983390456
 11
-52.203281588583344
 21
-24.973523369937375
  0
LINE
  8
0
 10
-52.203281588583344
 20
-24.973523369937375
 11
-51.77971622821506
 21
-24.85252172240927
  0
LINE
  8
0
 10
-51.77971622821506
 20
-24.85252172240927
 11
-51.47377469659097
 21
-24.7498464996968
  0
LINE
  8
0
 10
-51.47377469659097
 20
-24.7498464996968
 11
-51.1346709486487
 21
-24.618584629765902
  0
LINE
  8
0
 10
-51.1346709486487
 20
-24.618584629765902
 11
-50.76512072311548
 21
-24.512019343094607
  0
LINE
  8
0
 10
-50.76512072311548
 20
-24.512019343094607
 11
-50.494832891689676
 21
-24.485463848588356
  0
LINE
  8
0
 10
-50.494832891689676
 20
-24.485463848588356
 11
-50.33010973669696
 21
-24.529530755517253
  0
LINE
  8
0
 10
-50.33010973669696
 20
-24.529530755517253
 11
-49.064272011966374
 21
-26.972486669374724
  0
LINE
  8
0
 10
-49.064272011966374
 20
-26.972486669374724
 11
-49.123263277807695
 21
-27.132473045768783
  0
LINE
  8
0
 10
-49.123263277807695
 20
-27.132473045768783
 11
-49.3008279910045
 21
-27.33797603536365
  0
LINE
  8
0
 10
-49.3008279910045
 20
-27.33797603536365
 11
-49.60100096495281
 21
-27.578433339736147
  0
LINE
  8
0
 10
-49.60100096495281
 20
-27.578433339736147
 11
-49.90379241937732
 21
-27.779774754976533
  0
LINE
  8
0
 10
-49.90379241937732
 20
-27.779774754976533
 11
-50.1641054460992
 21
-27.970508994829828
  0
LINE
  8
0
 10
-50.1641054460992
 20
-27.970508994829828
 11
-50.50722195758894
 21
-28.246769872900213
  0
LINE
  8
0
 10
-50.50722195758894
 20
-28.246769872900213
 11
-50.92570589593727
 21
-28.616337130032193
  0
LINE
  8
0
 10
-50.92570589593727
 20
-28.616337130032193
 11
-51.41159180880049
 21
-29.08648237863701
  0
LINE
  8
0
 10
-51.41159180880049
 20
-29.08648237863701
 11
-51.95641607087286
 21
-29.66393737201882
  0
LINE
  8
0
 10
-51.95641607087286
 20
-29.66393737201882
 11
-52.55124988088665
 21
-30.35486407950893
  0
LINE
  8
0
 10
-52.55124988088665
 20
-30.35486407950893
 11
-52.7875262463011
 21
-30.656012494466054
  0
LINE
  8
0
 10
-52.7875262463011
 20
-30.656012494466054
 11
-52.21826753556774
 21
-31.754631935751025
  0
LINE
  8
0
 10
-52.21826753556774
 20
-31.754631935751025
 11
-51.504715603233606
 21
-32.765504725164895
  0
LINE
  8
0
 10
-51.504715603233606
 20
-32.765504725164895
 11
-51.12862788207858
 21
-32.694266289745556
  0
LINE
  8
0
 10
-51.12862788207858
 20
-32.694266289745556
 11
-50.241502032250864
 21
-32.483993364179234
  0
LINE
  8
0
 10
-50.241502032250864
 20
-32.483993364179234
 11
-49.478133684644305
 21
-32.26591880857556
  0
LINE
  8
0
 10
-49.478133684644305
 20
-32.26591880857556
 11
-48.83715954707462
 21
-32.05080528025368
  0
LINE
  8
0
 10
-48.83715954707462
 20
-32.05080528025368
 11
-48.3164964133755
 21
-31.849264551351975
  0
LINE
  8
0
 10
-48.3164964133755
 20
-31.849264551351975
 11
-47.91335255250985
 21
-31.671714443904047
  0
LINE
  8
0
 10
-47.91335255250985
 20
-31.671714443904047
 11
-47.624241517843004
 21
-31.52833651057603
  0
LINE
  8
0
 10
-47.624241517843004
 20
-31.52833651057603
 11
-47.30616968949094
 21
-31.352122599731757
  0
LINE
  8
0
 10
-47.30616968949094
 20
-31.352122599731757
 11
-46.954572112696646
 21
-31.196229452007554
  0
LINE
  8
0
 10
-46.954572112696646
 20
-31.196229452007554
 11
-46.69041772942047
 21
-31.133117108513428
  0
LINE
  8
0
 10
-46.69041772942047
 20
-31.133117108513428
 11
-46.52122837172988
 21
-31.154343773849252
  0
LINE
  8
0
 10
-46.52122837172988
 20
-31.154343773849252
 11
-44.934531607196845
 21
-33.40218098321801
  0
LINE
  8
0
 10
-44.934531607196845
 20
-33.40218098321801
 11
-44.97118861643011
 21
-33.56870988086444
  0
LINE
  8
0
 10
-44.97118861643011
 20
-33.56870988086444
 11
-45.11911682883377
 21
-33.79647719651827
  0
LINE
  8
0
 10
-45.11911682883377
 20
-33.79647719651827
 11
-45.38375171011717
 21
-34.075568416593676
  0
LINE
  8
0
 10
-45.38375171011717
 20
-34.075568416593676
 11
-45.656306962757846
 21
-34.316264624751355
  0
LINE
  8
0
 10
-45.656306962757846
 20
-34.316264624751355
 11
-45.88822377759266
 21
-34.54066830816676
  0
LINE
  8
0
 10
-45.88822377759266
 20
-34.54066830816676
 11
-46.19052696533532
 21
-34.861077103129894
  0
LINE
  8
0
 10
-46.19052696533532
 20
-34.861077103129894
 11
-46.5547903866796
 21
-35.28418574647124
  0
LINE
  8
0
 10
-46.5547903866796
 20
-35.28418574647124
 11
-46.97213262883917
 21
-35.816113493457436
  0
LINE
  8
0
 10
-46.97213262883917
 20
-35.816113493457436
 11
-47.43325225688119
 21
-36.46237693398203
  0
LINE
  8
0
 10
-47.43325225688119
 20
-36.46237693398203
 11
-47.928464578159065
 21
-37.22786483951237
  0
LINE
  8
0
 10
-47.928464578159065
 20
-37.22786483951237
 11
-48.121533882210315
 21
-37.55838130282061
  0
LINE
  8
0
 10
-48.121533882210315
 20
-37.55838130282061
 11
-47.4079819498762
 21
-38.56925409223458
  0
LINE
  8
0
 10
-47.4079819498762
 20
-38.56925409223458
 11
-46.56342891834867
 21
-39.47354958235538
  0
LINE
  8
0
 10
-46.56342891834867
 20
-39.47354958235538
 11
-46.20054439756148
 21
-39.351764060811895
  0
LINE
  8
0
 10
-46.20054439756148
 20
-39.351764060811895
 11
-45.35031344544165
 21
-39.022652674323695
  0
LINE
  8
0
 10
-45.35031344544165
 20
-39.022652674323695
 11
-44.623749633308556
 21
-38.7026639669793
  0
LINE
  8
0
 10
-44.623749633308556
 20
-38.7026639669793
 11
-44.01803685177238
 21
-38.402274717198296
  0
LINE
  8
0
 10
-44.01803685177238
 20
-38.402274717198296
 11
-43.52966632830838
 21
-38.1317141952977
  0
LINE
  8
0
 10
-43.52966632830838
 20
-38.1317141952977
 11
-43.15445377429582
 21
-37.900923050493994
  0
LINE
  8
0
 10
-43.15445377429582
 20
-37.900923050493994
 11
-42.88755882814298
 21
-37.71951326616686
  0
LINE
  8
0
 10
-42.88755882814298
 20
-37.71951326616686
 11
-42.59644399572833
 21
-37.50162984615873
  0
LINE
  8
0
 10
-42.59644399572833
 20
-37.50162984615873
 11
-42.26934866528045
 21
-37.29931283176255
  0
LINE
  8
0
 10
-42.26934866528045
 20
-37.29931283176255
 11
-42.016248426515055
 21
-37.200819302826694
  0
LINE
  8
0
 10
-42.016248426515055
 20
-37.200819302826694
 11
-41.845744543741816
 21
-37.19881031395664
  0
LINE
  8
0
 10
-41.845744543741816
 20
-37.19881031395664
 11
-39.96774589798402
 21
-39.209655864697474
  0
LINE
  8
0
 10
-39.96774589798402
 20
-39.209655864697474
 11
-39.981385799884926
 21
-39.379625165317904
  0
LINE
  8
0
 10
-39.981385799884926
 20
-39.379625165317904
 11
-40.09692188878928
 21
-39.62541393289238
  0
LINE
  8
0
 10
-40.09692188878928
 20
-39.62541393289238
 11
-40.32108903027788
 21
-39.937940127301566
  0
LINE
  8
0
 10
-40.32108903027788
 20
-39.937940127301566
 11
-40.55833089247238
 21
-40.21350741343327
  0
LINE
  8
0
 10
-40.55833089247238
 20
-40.21350741343327
 11
-40.7575313239632
 21
-40.467400324376825
  0
LINE
  8
0
 10
-40.7575313239632
 20
-40.467400324376825
 11
-41.01338985155075
 21
-40.825988426619276
  0
LINE
  8
0
 10
-41.01338985155075
 20
-40.825988426619276
 11
-41.31664721756418
 21
-41.29475674269682
  0
LINE
  8
0
 10
-41.31664721756418
 20
-41.29475674269682
 11
-41.65767149269053
 21
-41.87855818058401
  0
LINE
  8
0
 10
-41.65767149269053
 20
-41.87855818058401
 11
-42.02649670050362
 21
-42.5815914031318
  0
LINE
  8
0
 10
-42.02649670050362
 20
-42.5815914031318
 11
-42.41286266447787
 21
-43.40738091538107
  0
LINE
  8
0
 10
-42.41286266447787
 20
-43.40738091538107
 11
-42.5591283913326
 21
-43.76110853069016
  0
LINE
  8
0
 10
-42.5591283913326
 20
-43.76110853069016
 11
-41.714575359805096
 21
-44.66540402081097
  0
LINE
  8
0
 10
-41.714575359805096
 20
-44.66540402081097
 11
-40.75475365410585
 21
-45.44627689765054
  0
LINE
  8
0
 10
-40.75475365410585
 20
-45.44627689765054
 11
-40.41183218570485
 21
-45.276212923822214
  0
LINE
  8
0
 10
-40.41183218570485
 20
-45.276212923822214
 11
-39.614334325232164
 21
-44.834393798839756
  0
LINE
  8
0
 10
-39.614334325232164
 20
-44.834393798839756
 11
-38.93810955768106
 21
-44.418451723930566
  0
LINE
  8
0
 10
-38.93810955768106
 20
-44.418451723930566
 11
-38.378941415245805
 21
-44.038382436055585
  0
LINE
  8
0
 10
-38.378941415245805
 20
-44.038382436055585
 11
-37.931960920836566
 21
-43.703842151758934
  0
LINE
  8
0
 10
-37.931960920836566
 20
-43.703842151758934
 11
-37.591669173628915
 21
-43.42410917195353
  0
LINE
  8
0
 10
-37.591669173628915
 20
-43.42410917195353
 11
-37.35196206385228
 21
-43.208046857668805
  0
LINE
  8
0
 10
-37.35196206385228
 20
-43.208046857668805
 11
-37.0932271458925
 21
-42.9525526843603
  0
LINE
  8
0
 10
-37.0932271458925
 20
-42.9525526843603
 11
-36.796727228909155
 21
-42.707580586471856
  0
LINE
  8
0
 10
-36.796727228909155
 20
-42.707580586471856
 11
-36.559395913218694
 21
-42.57554062018144
  0
LINE
  8
0
 10
-36.559395913218694
 20
-42.57554062018144
 11
-36.39075367009313
 21
-42.55033340076701
  0
LINE
  8
0
 10
-36.39075367009313
 20
-42.55033340076701
 11
-34.25643670457114
 21
-44.286729044935505
  0
LINE
  8
0
 10
-34.25643670457114
 20
-44.286729044935505
 11
-34.246805413574975
 21
-44.456972542053634
  0
LINE
  8
0
 10
-34.246805413574975
 20
-44.456972542053634
 11
-34.327797160246405
 21
-44.71620418185905
  0
LINE
  8
0
 10
-34.327797160246405
 20
-44.71620418185905
 11
-34.507320752234804
 21
-45.05634357892243
  0
LINE
  8
0
 10
-34.507320752234804
 20
-45.05634357892243
 11
-34.704829856969276
 21
-45.36164864588086
  0
LINE
  8
0
 10
-34.704829856969276
 20
-45.36164864588086
 11
-34.867603177979134
 21
-45.64030123980553
  0
LINE
  8
0
 10
-34.867603177979134
 20
-45.64030123980553
 11
-35.072250885145536
 21
-46.03038883145726
  0
LINE
  8
0
 10
-35.072250885145536
 20
-46.03038883145726
 11
-35.30885308488426
 21
-46.53608455348621
  0
LINE
  8
0
 10
-35.30885308488426
 20
-46.53608455348621
 11
-35.5672067559745
 21
-47.16088456608128
  0
LINE
  8
0
 10
-35.5672067559745
 20
-47.16088456608128
 11
-35.83686702778119
 21
-47.907591391906145
  0
LINE
  8
0
 10
-35.83686702778119
 20
-47.907591391906145
 11
-36.10718936757545
 21
-48.7782996147149
  0
LINE
  8
0
 10
-36.10718936757545
 20
-48.7782996147149
 11
-36.203926863487794
 21
-49.14864910583003
  0
LINE
  8
0
 10
-36.203926863487794
 20
-49.14864910583003
 11
-35.24410515778854
 21
-49.92952198266957
  0
LINE
  8
0
 10
-35.24410515778854
 20
-49.92952198266957
 11
-34.18689444024225
 21
-50.572426062000574
  0
LINE
  8
0
 10
-34.18689444024225
 20
-50.572426062000574
 11
-33.87032400235144
 21
-50.35725160594641
  0
LINE
  8
0
 10
-33.87032400235144
 20
-50.35725160594641
 11
-33.140415109742605
 21
-49.81095499681423
  0
LINE
  8
0
 10
-33.140415109742605
 20
-49.81095499681423
 11
-32.527126174726554
 21
-49.306807768203186
  0
LINE
  8
0
 10
-32.527126174726554
 20
-49.306807768203186
 11
-32.02491891589904
 21
-48.854138413948625
  0
LINE
  8
0
 10
-32.02491891589904
 20
-48.854138413948625
 11
-31.62765485143581
 21
-48.461850219777844
  0
LINE
  8
0
 10
-31.62765485143581
 20
-48.461850219777844
 11
-31.32862290242686
 21
-48.1383863011094
  0
LINE
  8
0
 10
-31.32862290242686
 20
-48.1383863011094
 11
-31.12056891893829
 21
-47.8916962889766
  0
LINE
  8
0
 10
-31.12056891893829
 20
-47.8916962889766
 11
-30.899033657409703
 21
-47.60335073540292
  0
LINE
  8
0
 10
-30.899033657409703
 20
-47.60335073540292
 11
-30.638652386344916
 21
-47.320286920700866
  0
LINE
  8
0
 10
-30.638652386344916
 20
-47.320286920700866
 11
-30.421511027092617
 21
-47.15716017179867
  0
LINE
  8
0
 10
-30.421511027092617
 20
-47.15716017179867
 11
-30.257871909520766
 21
-47.10922428464365
  0
LINE
  8
0
 10
-30.257871909520766
 20
-47.10922428464365
 11
-27.90699491101949
 21
-48.53882425677569
  0
LINE
  8
0
 10
-27.90699491101949
 20
-48.53882425677569
 11
-27.874271839854394
 21
-48.706170636153274
  0
LINE
  8
0
 10
-27.874271839854394
 20
-48.706170636153274
 11
-27.91921052129469
 21
-48.97401615322515
  0
LINE
  8
0
 10
-27.91921052129469
 20
-48.97401615322515
 11
-28.050746378935813
 21
-49.3354325995439
  0
LINE
  8
0
 10
-28.050746378935813
 20
-49.3354325995439
 11
-28.204843505290643
 21
-49.66478819159099
  0
LINE
  8
0
 10
-28.204843505290643
 20
-49.66478819159099
 11
-28.32815755682807
 21
-49.96300969790291
  0
LINE
  8
0
 10
-28.32815755682807
 20
-49.96300969790291
 11
-28.477782243997137
 21
-50.377330185205516
  0
LINE
  8
0
 10
-28.477782243997137
 20
-50.377330185205516
 11
-28.643321826148593
 21
-50.91053315869751
  0
LINE
  8
0
 10
-28.643321826148593
 20
-50.91053315869751
 11
-28.81419225313422
 21
-51.56469290393284
  0
LINE
  8
0
 10
-28.81419225313422
 20
-51.56469290393284
 11
-28.979664328287576
 21
-52.34116359769323
  0
LINE
  8
0
 10
-28.979664328287576
 20
-52.34116359769323
 11
-29.128907450180986
 21
-53.24057088431378
  0
LINE
  8
0
 10
-29.128907450180986
 20
-53.24057088431378
 11
-29.174314678636463
 21
-53.62064334094361
  0
LINE
  8
0
 10
-29.174314678636463
 20
-53.62064334094361
 11
-28.117103961090113
 21
-54.26354742027465
  0
LINE
  8
0
 10
-28.117103961090113
 20
-54.26354742027465
 11
-26.982198067045186
 21
-54.756506615520344
  0
LINE
  8
0
 10
-26.982198067045186
 20
-54.756506615520344
 11
-26.697875767948194
 21
-54.500229970230954
  0
LINE
  8
0
 10
-26.697875767948194
 20
-54.500229970230954
 11
-26.049152664831855
 21
-53.8596323491443
  0
LINE
  8
0
 10
-26.049152664831855
 20
-53.8596323491443
 11
-25.510223974822996
 21
-53.276671275817236
  0
LINE
  8
0
 10
-25.510223974822996
 20
-53.276671275817236
 11
-25.074332770622558
 21
-52.75983422876955
  0
LINE
  8
0
 10
-25.074332770622558
 20
-52.75983422876955
 11
-24.734185413973815
 21
-52.317105711544265
  0
LINE
  8
0
 10
-24.734185413973815
 20
-52.317105711544265
 11
-24.48198366258342
 21
-51.955936374800324
  0
LINE
  8
0
 10
-24.48198366258342
 20
-51.955936374800324
 11
-24.30945845744205
 21
-51.68321403299007
  0
LINE
  8
0
 10
-24.30945845744205
 20
-51.68321403299007
 11
-24.129249635106127
 21
-51.36738843124355
  0
LINE
  8
0
 10
-24.129249635106127
 20
-51.36738843124355
 11
-23.90983742037955
 21
-51.05150584301848
  0
LINE
  8
0
 10
-23.90983742037955
 20
-51.05150584301848
 11
-23.716930950241046
 21
-50.86033105418888
  0
LINE
  8
0
 10
-23.716930950241046
 20
-50.86033105418888
 11
-23.561343245366185
 21
-50.7905594541728
  0
LINE
  8
0
 10
-23.561343245366185
 20
-50.7905594541728
 11
-21.037698604337585
 21
-51.886733011694574
  0
LINE
  8
0
 10
-21.037698604337585
 20
-51.886733011694574
 11
-20.982493321904947
 21
-52.04806492691533
  0
LINE
  8
0
 10
-20.982493321904947
 20
-52.04806492691533
 11
-20.99054181550612
 21
-52.3195348660538
  0
LINE
  8
0
 10
-20.99054181550612
 20
-52.3195348660538
 11
-21.07163967464752
 21
-52.695495857059164
  0
LINE
  8
0
 10
-21.07163967464752
 20
-52.695495857059164
 11
-21.17945428472167
 21
-53.0427667026798
  0
LINE
  8
0
 10
-21.17945428472167
 20
-53.0427667026798
 11
-21.26101195932567
 21
-53.35500181897313
  0
LINE
  8
0
 10
-21.26101195932567
 20
-53.35500181897313
 11
-21.352826401676225
 21
-53.78583719517263
  0
LINE
  8
0
 10
-21.352826401676225
 20
-53.78583719517263
 11
-21.44421967703784
 21
-54.33661485759029
  0
LINE
  8
0
 10
-21.44421967703784
 20
-54.33661485759029
 11
-21.524423867163378
 21
-55.007948577129916
  0
LINE
  8
0
 10
-21.524423867163378
 20
-55.007948577129916
 11
-21.582625313988483
 21
-55.79971895894004
  0
LINE
  8
0
 10
-21.582625313988483
 20
-55.79971895894004
 11
-21.608009100999002
 21
-56.71107105336659
  0
LINE
  8
0
 10
-21.608009100999002
 20
-56.71107105336659
 11
-21.60124021124524
 21
-57.09378644476877
  0
LINE
  8
0
 10
-21.60124021124524
 20
-57.09378644476877
 11
-20.466334317200356
 21
-57.586745640014485
  0
LINE
  8
0
 10
-20.466334317200356
 20
-57.586745640014485
 11
-19.27487439613848
 21
-57.92057705408211
  0
LINE
  8
0
 10
-19.27487439613848
 20
-57.92057705408211
 11
-19.028096622309036
 21
-57.627972168565215
  0
LINE
  8
0
 10
-19.028096622309036
 20
-57.627972168565215
 11
-18.472643792665
 21
-56.905006657147695
  0
LINE
  8
0
 10
-18.472643792665
 20
-56.905006657147695
 11
-18.018114569465947
 21
-56.25409120089598
  0
LINE
  8
0
 10
-18.018114569465947
 20
-56.25409120089598
 11
-17.656659248289003
 21
-55.682714157348414
  0
LINE
  8
0
 10
-17.656659248289003
 20
-55.682714157348414
 11
-17.379964901125604
 21
-55.19779251167002
  0
LINE
  8
0
 10
-17.379964901125604
 20
-55.19779251167002
 11
-17.179291388798127
 21
-54.805645658235505
  0
LINE
  8
0
 10
-17.179291388798127
 20
-54.805645658235505
 11
-17.04550878014552
 21
-54.511971287965224
  0
LINE
  8
0
 10
-17.04550878014552
 20
-54.511971287965224
 11
-16.909983346394196
 21
-54.17454887144141
  0
LINE
  8
0
 10
-16.909983346394196
 20
-54.17454887144141
 11
-16.735627422422322
 21
-53.831731804639155
  0
LINE
  8
0
 10
-16.735627422422322
 20
-53.831731804639155
 11
-16.57054932394324
 21
-53.61607020048146
  0
LINE
  8
0
 10
-16.57054932394324
 20
-53.61607020048146
 11
-16.42591133632394
 21
-53.525762600499675
  0
LINE
  8
0
 10
-16.42591133632394
 20
-53.525762600499675
 11
-13.776509777511354
 21
-54.26809010407458
  0
LINE
  8
0
 10
-13.776509777511354
 20
-54.26809010407458
 11
-13.699850653770481
 21
-54.420402246809644
  0
LINE
  8
0
 10
-13.699850653770481
 20
-54.420402246809644
 11
-13.670859031325081
 21
-54.690439636689405
  0
LINE
  8
0
 10
-13.670859031325081
 20
-54.690439636689405
 11
-13.700008192293996
 21
-55.073941730464476
  0
LINE
  8
0
 10
-13.700008192293996
 20
-55.073941730464476
 11
-13.759531903894864
 21
-55.4326588308664
  0
LINE
  8
0
 10
-13.759531903894864
 20
-55.4326588308664
 11
-13.79781393640061
 21
-55.753091207696144
  0
LINE
  8
0
 10
-13.79781393640061
 20
-55.753091207696144
 11
-13.83010780459126
 21
-56.19241582490577
  0
LINE
  8
0
 10
-13.83010780459126
 20
-56.19241582490577
 11
-13.845652289365763
 21
-56.75050823050962
  0
LINE
  8
0
 10
-13.845652289365763
 20
-56.75050823050962
 11
-13.833696190321332
 21
-57.426510247370686
  0
LINE
  8
0
 10
-13.833696190321332
 20
-57.426510247370686
 11
-13.783542825985203
 21
-58.21883113310453
  0
LINE
  8
0
 10
-13.783542825985203
 20
-58.21883113310453
 11
-13.684594426188797
 21
-59.125151270162284
  0
LINE
  8
0
 10
-13.684594426188797
 20
-59.125151270162284
 11
-13.625775509834677
 21
-59.50338033272035
  0
LINE
  8
0
 10
-13.625775509834677
 20
-59.50338033272035
 11
-12.434315588772826
 21
-59.83721174678799
  0
LINE
  8
0
 10
-12.434315588772826
 20
-59.83721174678799
 11
-11.208496284694618
 21
-60.005696732066745
  0
LINE
  8
0
 10
-11.208496284694618
 20
-60.005696732066745
 11
-11.003860039137681
 21
-59.68221428170979
  0
LINE
  8
0
 10
-11.003860039137681
 20
-59.68221428170979
 11
-10.5520245182251
 21
-58.89034835953583
  0
LINE
  8
0
 10
-10.5520245182251
 20
-58.89034835953583
 11
-10.19036178126174
 21
-58.18360384373009
  0
LINE
  8
0
 10
-10.19036178126174
 20
-58.18360384373009
 11
-9.910075571842084
 21
-57.568330476917055
  0
LINE
  8
0
 10
-9.910075571842084
 20
-57.568330476917055
 11
-9.701988526325872
 21
-57.050248875537555
  0
LINE
  8
0
 10
-9.701988526325872
 20
-57.050248875537555
 11
-9.556581420907108
 21
-56.6344294593216
  0
LINE
  8
0
 10
-9.556581420907108
 20
-56.6344294593216
 11
-9.464033525616045
 21
-56.32527365845618
  0
LINE
  8
0
 10
-9.464033525616045
 20
-56.32527365845618
 11
-9.375716062856135
 21
-55.97253996834719
  0
LINE
  8
0
 10
-9.375716062856135
 20
-55.97253996834719
 11
-9.24966435060849
 21
-55.60917445628747
  0
LINE
  8
0
 10
-9.24966435060849
 20
-55.60917445628747
 11
-9.115489716423735
 21
-55.37304340443972
  0
LINE
  8
0
 10
-9.115489716423735
 20
-55.37304340443972
 11
-8.984495778103762
 21
-55.263882064211344
  0
LINE
  8
0
 10
-8.984495778103762
 20
-55.263882064211344
 11
-6.258690639687609
 21
-55.63853535698536
  0
LINE
  8
0
 10
-6.258690639687609
 20
-55.63853535698536
 11
-6.162005689069163
 21
-55.77899044020121
  0
LINE
  8
0
 10
-6.162005689069163
 20
-55.77899044020121
 11
-6.096514009649091
 21
-56.04256499517918
  0
LINE
  8
0
 10
-6.096514009649091
 20
-56.04256499517918
 11
-6.073171478728998
 21
-56.42646427333075
  0
LINE
  8
0
 10
-6.073171478728998
 20
-56.42646427333075
 11
-6.083295477732646
 21
-56.789945407652304
  0
LINE
  8
0
 10
-6.083295477732646
 20
-56.789945407652304
 11
-6.077588746306944
 21
-57.11260599611944
  0
LINE
  8
0
 10
-6.077588746306944
 20
-57.11260599611944
 11
-6.049760466675643
 21
-57.552236067954695
  0
LINE
  8
0
 10
-6.049760466675643
 20
-57.552236067954695
 11
-5.989166596522982
 21
-58.1072470111797
  0
LINE
  8
0
 10
-5.989166596522982
 20
-58.1072470111797
 11
-5.885272927811969
 21
-58.77532468683304
  0
LINE
  8
0
 10
-5.885272927811969
 20
-58.77532468683304
 11
-5.727699014598379
 21
-59.553436637518054
  0
LINE
  8
0
 10
-5.727699014598379
 20
-59.553436637518054
 11
-5.506261649465693
 21
-60.437841787877176
  0
LINE
  8
0
 10
-5.506261649465693
 20
-60.437841787877176
 11
-5.3964883916332305
 21
-60.80453882979251
  0
LINE
  8
0
 10
-5.3964883916332305
 20
-60.80453882979251
 11
-4.170669087554993
 21
-60.97302381507129
  0
LINE
  8
0
 10
-4.170669087554993
 20
-60.97302381507129
 11
-2.93332509475624
 21
-60.9730238150713
  0
LINE
  8
0
 10
-2.93332509475624
 20
-60.9730238150713
 11
-2.7746423635398925
 21
-60.62468966587215
  0
LINE
  8
0
 10
-2.7746423635398925
 20
-60.62468966587215
 11
-2.4348409922077323
 21
-59.77867429680398
  0
LINE
  8
0
 10
-2.4348409922077323
 20
-59.77867429680398
 11
-2.1727818339775142
 21
-59.02926603456171
  0
LINE
  8
0
 10
-2.1727818339775142
 20
-59.02926603456171
 11
-1.9788859380747614
 21
-58.38155772316501
  0
LINE
  8
0
 10
-1.9788859380747614
 20
-58.38155772316501
 11
-1.8432824621478923
 21
-57.839967046070065
  0
LINE
  8
0
 10
-1.8432824621478923
 20
-57.839967046070065
 11
-1.7558504228909824
 21
-57.40822099603623
  0
LINE
  8
0
 10
-1.7558504228909824
 20
-57.40822099603623
 11
-1.706261233143397
 21
-57.08934275220056
  0
LINE
  8
0
 10
-1.706261233143397
 20
-57.08934275220056
 11
-1.6667969286030613
 21
-56.72786854975534
  0
LINE
  8
0
 10
-1.6667969286030613
 20
-56.72786854975534
 11
-1.5913975329798182
 21
-56.35072340441388
  0
LINE
  8
0
 10
-1.5913975329798182
 20
-56.35072340441388
 11
-1.4906257826560967
 21
-56.09852157959488
  0
LINE
  8
0
 10
-1.4906257826560967
 20
-56.09852157959488
 11
-1.3757160628563019
 21
-55.97253996834719
  0
LINE
  8
0
 10
-1.3757160628563019
 20
-55.97253996834719
 11
1.3757160628561074
 21
-55.97253996834718
  0
LINE
  8
0
 10
1.3757160628561074
 20
-55.97253996834718
 11
1.490625782657056
 21
-56.098521579594745
  0
LINE
  8
0
 10
1.490625782657056
 20
-56.098521579594745
 11
1.5913975329792223
 21
-56.35072340441387
  0
LINE
  8
0
 10
1.5913975329792223
 20
-56.35072340441387
 11
1.6667969286030453
 21
-56.727868549755314
  0
LINE
  8
0
 10
1.6667969286030453
 20
-56.727868549755314
 11
1.706261233142715
 21
-57.089342752196806
  0
LINE
  8
0
 10
1.706261233142715
 20
-57.089342752196806
 11
1.7558504228909548
 21
-57.40822099603548
  0
LINE
  8
0
 10
1.7558504228909548
 20
-57.40822099603548
 11
1.8432824621478021
 21
-57.8399670460701
  0
LINE
  8
0
 10
1.8432824621478021
 20
-57.8399670460701
 11
1.9788859380746904
 21
-58.381557723165024
  0
LINE
  8
0
 10
1.9788859380746904
 20
-58.381557723165024
 11
2.1727818339785685
 21
-59.029266034564706
  0
LINE
  8
0
 10
2.1727818339785685
 20
-59.029266034564706
 11
2.4348409922077456
 21
-59.77867429680399
  0
LINE
  8
0
 10
2.4348409922077456
 20
-59.77867429680399
 11
2.7746423635398765
 21
-60.6246896658721
  0
LINE
  8
0
 10
2.7746423635398765
 20
-60.6246896658721
 11
2.9333250947562375
 21
-60.97302381507137
  0
LINE
  8
0
 10
2.9333250947562375
 20
-60.97302381507137
 11
4.170669087555023
 21
-60.973023815071386
  0
LINE
  8
0
 10
4.170669087555023
 20
-60.973023815071386
 11
5.396488391633227
 21
-60.804538829792506
  0
LINE
  8
0
 10
5.396488391633227
 20
-60.804538829792506
 11
5.506261649465684
 21
-60.43784178787723
  0
LINE
  8
0
 10
5.506261649465684
 20
-60.43784178787723
 11
5.72769901459839
 21
-59.55343663751805
  0
LINE
  8
0
 10
5.72769901459839
 20
-59.55343663751805
 11
5.885272927812607
 21
-58.775324686829926
  0
LINE
  8
0
 10
5.885272927812607
 20
-58.775324686829926
 11
5.989166596522911
 21
-58.10724701117971
  0
LINE
  8
0
 10
5.989166596522911
 20
-58.10724701117971
 11
6.04976046667555
 21
-57.552236067954674
  0
LINE
  8
0
 10
6.04976046667555
 20
-57.552236067954674
 11
6.077588746307019
 21
-57.112605996120195
  0
LINE
  8
0
 10
6.077588746307019
 20
-57.112605996120195
 11
6.083295477732482
 21
-56.78994540765612
  0
LINE
  8
0
 10
6.083295477732482
 20
-56.78994540765612
 11
6.0731714787289865
 21
-56.42646427333079
  0
LINE
  8
0
 10
6.0731714787289865
 20
-56.42646427333079
 11
6.0965140096485015
 21
-56.04256499517926
  0
LINE
  8
0
 10
6.0965140096485015
 20
-56.04256499517926
 11
6.162005689070135
 21
-55.77899044020122
  0
LINE
  8
0
 10
6.162005689070135
 20
-55.77899044020122
 11
6.258690639687419
 21
-55.63853535698539
  0
LINE
  8
0
 10
6.258690639687419
 20
-55.63853535698539
 11
8.984495778103568
 21
-55.263882064211366
  0
LINE
  8
0
 10
8.984495778103568
 20
-55.263882064211366
 11
9.115489716424667
 21
-55.37304340443945
  0
LINE
  8
0
 10
9.115489716424667
 20
-55.37304340443945
 11
9.2496643506079
 21
-55.60917445628755
  0
LINE
  8
0
 10
9.2496643506079
 20
-55.60917445628755
 11
9.375716062856116
 21
-55.97253996834717
  0
LINE
  8
0
 10
9.375716062856116
 20
-55.97253996834717
 11
9.464033525614859
 21
-56.32527365845256
  0
LINE
  8
0
 10
9.464033525614859
 20
-56.32527365845256
 11
9.556581420906978
 21
-56.63442945932087
  0
LINE
  8
0
 10
9.556581420906978
 20
-56.63442945932087
 11
9.701988526325788
 21
-57.050248875537605
  0
LINE
  8
0
 10
9.701988526325788
 20
-57.050248875537605
 11
9.910075571842015
 21
-57.56833047691707
  0
LINE
  8
0
 10
9.910075571842015
 20
-57.56833047691707
 11
10.190361781263194
 21
-58.18360384373292
  0
LINE
  8
0
 10
10.190361781263194
 20
-58.18360384373292
 11
10.552024518225116
 21
-58.89034835953584
  0
LINE
  8
0
 10
10.552024518225116
 20
-58.89034835953584
 11
11.00386003913766
 21
-59.682214281709754
  0
LINE
  8
0
 10
11.00386003913766
 20
-59.682214281709754
 11
11.208496284694618
 21
-60.00569673206677
  0
LINE
  8
0
 10
11.208496284694618
 20
-60.00569673206677
 11
12.434315588772854
 21
-59.83721174678799
  0
LINE
  8
0
 10
12.434315588772854
 20
-59.83721174678799
 11
13.625775509834716
 21
-59.50338033272031
  0
LINE
  8
0
 10
13.625775509834716
 20
-59.50338033272031
 11
13.684594426188848
 21
-59.12515127016232
  0
LINE
  8
0
 10
13.684594426188848
 20
-59.12515127016232
 11
13.783542825985263
 21
-58.2188311331045
  0
LINE
  8
0
 10
13.783542825985263
 20
-58.2188311331045
 11
13.83369619032159
 21
-57.42651024736751
  0
LINE
  8
0
 10
13.83369619032159
 20
-57.42651024736751
 11
13.845652289365741
 21
-56.75050823050962
  0
LINE
  8
0
 10
13.845652289365741
 20
-56.75050823050962
 11
13.830107804591215
 21
-56.19241582490575
  0
LINE
  8
0
 10
13.830107804591215
 20
-56.19241582490575
 11
13.797813936400836
 21
-55.75309120769686
  0
LINE
  8
0
 10
13.797813936400836
 20
-55.75309120769686
 11
13.759531903895269
 21
-55.432658830870196
  0
LINE
  8
0
 10
13.759531903895269
 20
-55.432658830870196
 11
13.700008192294039
 21
-55.0739417304645
  0
LINE
  8
0
 10
13.700008192294039
 20
-55.0739417304645
 11
13.670859031324557
 21
-54.69043963668956
  0
LINE
  8
0
 10
13.670859031324557
 20
-54.69043963668956
 11
13.699850653771492
 21
-54.42040224680951
  0
LINE
  8
0
 10
13.699850653771492
 20
-54.42040224680951
 11
13.776509777511219
 21
-54.26809010407464
  0
LINE
  8
0
 10
13.776509777511219
 20
-54.26809010407464
 11
16.425911336323797
 21
-53.525762600499704
  0
LINE
  8
0
 10
16.425911336323797
 20
-53.525762600499704
 11
16.570549323944178
 21
-53.61607020048106
  0
LINE
  8
0
 10
16.570549323944178
 20
-53.61607020048106
 11
16.735627422421796
 21
-53.8317318046393
  0
LINE
  8
0
 10
16.735627422421796
 20
-53.8317318046393
 11
16.90998334639422
 21
-54.174548871441374
  0
LINE
  8
0
 10
16.90998334639422
 20
-54.174548871441374
 11
17.0455087801439
 21
-54.51197128796178
  0
LINE
  8
0
 10
17.0455087801439
 20
-54.51197128796178
 11
17.179291388797946
 21
-54.80564565823477
  0
LINE
  8
0
 10
17.179291388797946
 20
-54.80564565823477
 11
17.37996490112558
 21
-55.19779251167007
  0
LINE
  8
0
 10
17.37996490112558
 20
-55.19779251167007
 11
17.656659248288985
 21
-55.68271415734843
  0
LINE
  8
0
 10
17.656659248288985
 20
-55.68271415734843
 11
18.018114569467823
 21
-56.254091200898564
  0
LINE
  8
0
 10
18.018114569467823
 20
-56.254091200898564
 11
18.472643792665064
 21
-56.905006657147695
  0
LINE
  8
0
 10
18.472643792665064
 20
-56.905006657147695
 11
19.028096622309057
 21
-57.62797216856516
  0
LINE
  8
0
 10
19.028096622309057
 20
-57.62797216856516
 11
19.274874396138525
 21
-57.9205770540821
  0
LINE
  8
0
 10
19.274874396138525
 20
-57.9205770540821
 11
20.466334317200378
 21
-57.58674564001446
  0
LINE
  8
0
 10
20.466334317200378
 20
-57.58674564001446
 11
21.60124021124528
 21
-57.093786444768746
  0
LINE
  8
0
 10
21.60124021124528
 20
-57.093786444768746
 11
21.60800910099906
 21
-56.711071053366624
  0
LINE
  8
0
 10
21.60800910099906
 20
-56.711071053366624
 11
21.58262531398854
 21
-55.79971895894001
  0
LINE
  8
0
 10
21.58262531398854
 20
-55.79971895894001
 11
21.524423867163204
 21
-55.007948577126726
  0
LINE
  8
0
 10
21.524423867163204
 20
-55.007948577126726
 11
21.44421967703782
 21
-54.33661485759029
  0
LINE
  8
0
 10
21.44421967703782
 20
-54.33661485759029
 11
21.352826401676175
 21
-53.78583719517261
  0
LINE
  8
0
 10
21.352826401676175
 20
-53.78583719517261
 11
21.26101195932599
 21
-53.35500181897381
  0
LINE
  8
0
 10
21.26101195932599
 20
-53.35500181897381
 11
21.17945428472259
 21
-53.042766702683494
  0
LINE
  8
0
 10
21.17945428472259
 20
-53.042766702683494
 11
21.071639674647564
 21
-52.69549585705918
  0
LINE
  8
0
 10
21.071639674647564
 20
-52.69549585705918
 11
20.990541815505626
 21
-52.31953486605402
  0
LINE
  8
0
 10
20.990541815505626
 20
-52.31953486605402
 11
20.982493321905928
 21
-52.04806492691505
  0
LINE
  8
0
 10
20.982493321905928
 20
-52.04806492691505
 11
21.03769860433746
 21
-51.886733011694645
  0
LINE
  8
0
 10
21.03769860433746
 20
-51.886733011694645
 11
23.56134324536605
 21
-50.79055945417284
  0
LINE
  8
0
 10
23.56134324536605
 20
-50.79055945417284
 11
23.71693095024192
 21
-50.86033105418836
  0
LINE
  8
0
 10
23.71693095024192
 20
-50.86033105418836
 11
23.909837420379045
 21
-51.051505843018695
  0
LINE
  8
0
 10
23.909837420379045
 20
-51.051505843018695
 11
24.129249635106152
 21
-51.36738843124351
  0
LINE
  8
0
 10
24.129249635106152
 20
-51.36738843124351
 11
24.309458457439977
 21
-51.68321403298688
  0
LINE
  8
0
 10
24.309458457439977
 20
-51.68321403298688
 11
24.481983662583144
 21
-51.955936374799634
  0
LINE
  8
0
 10
24.481983662583144
 20
-51.955936374799634
 11
24.734185413973794
 21
-52.317105711544315
  0
LINE
  8
0
 10
24.734185413973794
 20
-52.317105711544315
 11
25.07433277062254
 21
-52.75983422876956
  0
LINE
  8
0
 10
25.07433277062254
 20
-52.75983422876956
 11
25.510223974825205
 21
-53.276671275819545
  0
LINE
  8
0
 10
25.510223974825205
 20
-53.276671275819545
 11
26.049152664831922
 21
-53.859632349144285
  0
LINE
  8
0
 10
26.049152664831922
 20
-53.859632349144285
 11
26.697875767948208
 21
-54.5002299702309
  0
LINE
  8
0
 10
26.697875767948208
 20
-54.5002299702309
 11
26.982198067045246
 21
-54.756506615520344
  0
LINE
  8
0
 10
26.982198067045246
 20
-54.756506615520344
 11
28.11710396109013
 21
-54.263547420274634
  0
LINE
  8
0
 10
28.11710396109013
 20
-54.263547420274634
 11
29.1743146786364
 21
-53.620643340943616
  0
LINE
  8
0
 10
29.1743146786364
 20
-53.620643340943616
 11
29.128907450180954
 21
-53.24057088431386
  0
LINE
  8
0
 10
29.128907450180954
 20
-53.24057088431386
 11
28.979664328287537
 21
-52.34116359769323
  0
LINE
  8
0
 10
28.979664328287537
 20
-52.34116359769323
 11
28.814192253133527
 21
-51.56469290392976
  0
LINE
  8
0
 10
28.814192253133527
 20
-51.56469290392976
 11
28.643321826148483
 21
-50.910533158697575
  0
LINE
  8
0
 10
28.643321826148483
 20
-50.910533158697575
 11
28.477782243996995
 21
-50.37733018520555
  0
LINE
  8
0
 10
28.477782243996995
 20
-50.37733018520555
 11
28.328157556828398
 21
-49.96300969790359
  0
LINE
  8
0
 10
28.328157556828398
 20
-49.96300969790359
 11
28.20484350529197
 21
-49.66478819159458
  0
LINE
  8
0
 10
28.20484350529197
 20
-49.66478819159458
 11
28.050746378935774
 21
-49.33543259954396
  0
LINE
  8
0
 10
28.050746378935774
 20
-49.33543259954396
 11
27.91921052129414
 21
-48.97401615322549
  0
LINE
  8
0
 10
27.91921052129414
 20
-48.97401615322549
 11
27.874271839855247
 21
-48.706170636152926
  0
LINE
  8
0
 10
27.874271839855247
 20
-48.706170636152926
 11
27.906994911019286
 21
-48.538824256775825
  0
LINE
  8
0
 10
27.906994911019286
 20
-48.538824256775825
 11
30.25787190952056
 21
-47.10922428464377
  0
LINE
  8
0
 10
30.25787190952056
 20
-47.10922428464377
 11
30.42151102709332
 21
-47.15716017179808
  0
LINE
  8
0
 10
30.42151102709332
 20
-47.15716017179808
 11
30.63865238634436
 21
-47.3202869207012
  0
LINE
  8
0
 10
30.63865238634436
 20
-47.3202869207012
 11
30.899033657409635
 21
-47.603350735402934
  0
LINE
  8
0
 10
30.899033657409635
 20
-47.603350735402934
 11
31.12056891893571
 21
-47.891696288973776
  0
LINE
  8
0
 10
31.12056891893571
 20
-47.891696288973776
 11
31.328622902426407
 21
-48.1383863011088
  0
LINE
  8
0
 10
31.328622902426407
 20
-48.1383863011088
 11
31.627654851435715
 21
-48.46185021977796
  0
LINE
  8
0
 10
31.627654851435715
 20
-48.46185021977796
 11
32.02491891589894
 21
-48.8541384139487
  0
LINE
  8
0
 10
32.02491891589894
 20
-48.8541384139487
 11
32.52712617472897
 21
-49.30680776820523
  0
LINE
  8
0
 10
32.52712617472897
 20
-49.30680776820523
 11
33.14041510974257
 21
-49.81095499681427
  0
LINE
  8
0
 10
33.14041510974257
 20
-49.81095499681427
 11
33.870324002351346
 21
-50.35725160594641
  0
LINE
  8
0
 10
33.870324002351346
 20
-50.35725160594641
 11
34.1868944402422
 21
-50.57242606200061
  0
LINE
  8
0
 10
34.1868944402422
 20
-50.57242606200061
 11
35.24410515778852
 21
-49.929521982669606
  0
LINE
  8
0
 10
35.24410515778852
 20
-49.929521982669606
 11
36.20392686348778
 21
-49.14864910583003
  0
LINE
  8
0
 10
36.20392686348778
 20
-49.14864910583003
 11
36.107189367575465
 21
-48.77829961471495
  0
LINE
  8
0
 10
36.107189367575465
 20
-48.77829961471495
 11
35.83686702778119
 21
-47.907591391906124
  0
LINE
  8
0
 10
35.83686702778119
 20
-47.907591391906124
 11
35.56720675597343
 21
-47.160884566078295
  0
LINE
  8
0
 10
35.56720675597343
 20
-47.160884566078295
 11
35.308853084884205
 21
-46.536084553486255
  0
LINE
  8
0
 10
35.308853084884205
 20
-46.536084553486255
 11
35.072250885145436
 21
-46.03038883145729
  0
LINE
  8
0
 10
35.072250885145436
 20
-46.03038883145729
 11
34.86760317797959
 21
-45.640301239806135
  0
LINE
  8
0
 10
34.86760317797959
 20
-45.640301239806135
 11
34.70482985697112
 21
-45.36164864588421
  0
LINE
  8
0
 10
34.70482985697112
 20
-45.36164864588421
 11
34.507320752234804
 21
-45.056343578922466
  0
LINE
  8
0
 10
34.507320752234804
 20
-45.056343578922466
 11
34.32779716024595
 21
-44.71620418185943
  0
LINE
  8
0
 10
34.32779716024595
 20
-44.71620418185943
 11
34.2468054135758
 21
-44.456972542053144
  0
LINE
  8
0
 10
34.2468054135758
 20
-44.456972542053144
 11
34.256436704571
 21
-44.28672904493564
  0
LINE
  8
0
 10
34.256436704571
 20
-44.28672904493564
 11
36.39075367009297
 21
-42.55033340076713
  0
LINE
  8
0
 10
36.39075367009297
 20
-42.55033340076713
 11
36.559395913219355
 21
-42.575540620180725
  0
LINE
  8
0
 10
36.559395913219355
 20
-42.575540620180725
 11
36.79672722890869
 21
-42.70758058647223
  0
LINE
  8
0
 10
36.79672722890869
 20
-42.70758058647223
 11
37.09322714589246
 21
-42.952552684360285
  0
LINE
  8
0
 10
37.09322714589246
 20
-42.952552684360285
 11
37.35196206384938
 21
-43.208046857666325
  0
LINE
  8
0
 10
37.35196206384938
 20
-43.208046857666325
 11
37.591669173628425
 21
-43.42410917195297
  0
LINE
  8
0
 10
37.591669173628425
 20
-43.42410917195297
 11
37.93196092083652
 21
-43.70384215175903
  0
LINE
  8
0
 10
37.93196092083652
 20
-43.70384215175903
 11
38.378941415245755
 21
-44.03838243605564
  0
LINE
  8
0
 10
38.378941415245755
 20
-44.03838243605564
 11
38.93810955768377
 21
-44.41845172393223
  0
LINE
  8
0
 10
38.93810955768377
 20
-44.41845172393223
 11
39.614334325232186
 21
-44.834393798839756
  0
LINE
  8
0
 10
39.614334325232186
 20
-44.834393798839756
 11
40.4118321857048
 21
-45.276212923822186
  0
LINE
  8
0
 10
40.4118321857048
 20
-45.276212923822186
 11
40.754753654105826
 21
-45.446276897650534
  0
LINE
  8
0
 10
40.754753654105826
 20
-45.446276897650534
 11
41.71457535980509
 21
-44.66540402081099
  0
LINE
  8
0
 10
41.71457535980509
 20
-44.66540402081099
 11
42.559128391332635
 21
-43.7611085306902
  0
LINE
  8
0
 10
42.559128391332635
 20
-43.7611085306902
 11
42.41286266447789
 21
-43.407380915381125
  0
LINE
  8
0
 10
42.41286266447789
 20
-43.407380915381125
 11
42.026496700503614
 21
-42.58159140313178
  0
LINE
  8
0
 10
42.026496700503614
 20
-42.58159140313178
 11
41.65767149268906
 21
-41.878558180581194
  0
LINE
  8
0
 10
41.65767149268906
 20
-41.878558180581194
 11
41.316647217564125
 21
-41.29475674269688
  0
LINE
  8
0
 10
41.316647217564125
 20
-41.29475674269688
 11
41.013389851550656
 21
-40.82598842661932
  0
LINE
  8
0
 10
41.013389851550656
 20
-40.82598842661932
 11
40.757531323963725
 21
-40.467400324377365
  0
LINE
  8
0
 10
40.757531323963725
 20
-40.467400324377365
 11
40.55833089247465
 21
-40.21350741343633
  0
LINE
  8
0
 10
40.55833089247465
 20
-40.21350741343633
 11
40.32108903027788
 21
-39.937940127301594
  0
LINE
  8
0
 10
40.32108903027788
 20
-39.937940127301594
 11
40.09692188878887
 21
-39.62541393289282
  0
LINE
  8
0
 10
40.09692188878887
 20
-39.62541393289282
 11
39.98138579988568
 21
-39.37962516531731
  0
LINE
  8
0
 10
39.98138579988568
 20
-39.37962516531731
 11
39.96774589798388
 21
-39.20965586469762
  0
LINE
  8
0
 10
39.96774589798388
 20
-39.20965586469762
 11
41.84574454374167
 21
-37.198810313956784
  0
LINE
  8
0
 10
41.84574454374167
 20
-37.198810313956784
 11
42.0162484265156
 21
-37.200819302825906
  0
LINE
  8
0
 10
42.0162484265156
 20
-37.200819302825906
 11
42.269348665280035
 21
-37.29931283176298
  0
LINE
  8
0
 10
42.269348665280035
 20
-37.29931283176298
 11
42.59644399572829
 21
-37.50162984615873
  0
LINE
  8
0
 10
42.59644399572829
 20
-37.50162984615873
 11
42.88755882813977
 21
-37.7195132661648
  0
LINE
  8
0
 10
42.88755882813977
 20
-37.7195132661648
 11
43.15445377429525
 21
-37.9009230504935
  0
LINE
  8
0
 10
43.15445377429525
 20
-37.9009230504935
 11
43.52966632830835
 21
-38.131714195297796
  0
LINE
  8
0
 10
43.52966632830835
 20
-38.131714195297796
 11
44.01803685177233
 21
-38.40227471719836
  0
LINE
  8
0
 10
44.01803685177233
 20
-38.40227471719836
 11
44.62374963331146
 21
-38.70266396698058
  0
LINE
  8
0
 10
44.62374963331146
 20
-38.70266396698058
 11
45.35031344544167
 21
-39.022652674323695
  0
LINE
  8
0
 10
45.35031344544167
 20
-39.022652674323695
 11
46.20054439756142
 21
-39.35176406081188
  0
LINE
  8
0
 10
46.20054439756142
 20
-39.35176406081188
 11
46.563428918348706
 21
-39.47354958235543
  0
LINE
  8
0
 10
46.563428918348706
 20
-39.47354958235543
 11
47.407981949876245
 21
-38.56925409223459
  0
LINE
  8
0
 10
47.407981949876245
 20
-38.56925409223459
 11
48.12153388221027
 21
-37.558381302820635
  0
LINE
  8
0
 10
48.12153388221027
 20
-37.558381302820635
 11
47.92846457815907
 21
-37.22786483951244
  0
LINE
  8
0
 10
47.92846457815907
 20
-37.22786483951244
 11
47.43325225688116
 21
-36.46237693398204
  0
LINE
  8
0
 10
47.43325225688116
 20
-36.46237693398204
 11
46.972132628837315
 21
-35.81611349345488
  0
LINE
  8
0
 10
46.972132628837315
 20
-35.81611349345488
 11
46.554790386679535
 21
-35.28418574647132
  0
LINE
  8
0
 10
46.554790386679535
 20
-35.28418574647132
 11
46.190526965335216
 21
-34.86107710312997
  0
LINE
  8
0
 10
46.190526965335216
 20
-34.86107710312997
 11
45.88822377759323
 21
-34.54066830816724
  0
LINE
  8
0
 10
45.88822377759323
 20
-34.54066830816724
 11
45.6563069627605
 21
-34.3162646247541
  0
LINE
  8
0
 10
45.6563069627605
 20
-34.3162646247541
 11
45.38375171011716
 21
-34.07556841659373
  0
LINE
  8
0
 10
45.38375171011716
 20
-34.07556841659373
 11
45.119116828833405
 21
-33.79647719651878
  0
LINE
  8
0
 10
45.119116828833405
 20
-33.79647719651878
 11
44.97118861643076
 21
-33.568709880863764
  0
LINE
  8
0
 10
44.97118861643076
 20
-33.568709880863764
 11
44.934531607196725
 21
-33.4021809832182
  0
LINE
  8
0
 10
44.934531607196725
 20
-33.4021809832182
 11
46.52122837172974
 21
-31.154343773849426
  0
LINE
  8
0
 10
46.52122837172974
 20
-31.154343773849426
 11
46.690417729420886
 21
-31.133117108512582
  0
LINE
  8
0
 10
46.690417729420886
 20
-31.133117108512582
 11
46.954572112696276
 21
-31.19622945200806
  0
LINE
  8
0
 10
46.954572112696276
 20
-31.19622945200806
 11
47.30616968949089
 21
-31.352122599731775
  0
LINE
  8
0
 10
47.30616968949089
 20
-31.352122599731775
 11
47.62424151783953
 21
-31.528336510574437
  0
LINE
  8
0
 10
47.62424151783953
 20
-31.528336510574437
 11
47.913352552509195
 21
-31.671714443903653
  0
LINE
  8
0
 10
47.913352552509195
 20
-31.671714443903653
 11
48.31649641337546
 21
-31.84926455135209
  0
LINE
  8
0
 10
48.31649641337546
 20
-31.84926455135209
 11
48.83715954707456
 21
-32.05080528025377
  0
LINE
  8
0
 10
48.83715954707456
 20
-32.05080528025377
 11
49.47813368464734
 21
-32.26591880857646
  0
LINE
  8
0
 10
49.47813368464734
 20
-32.26591880857646
 11
50.241502032250864
 21
-32.48399336417926
  0
LINE
  8
0
 10
50.241502032250864
 20
-32.48399336417926
 11
51.12862788207851
 21
-32.69426628974557
  0
LINE
  8
0
 10
51.12862788207851
 20
-32.69426628974557
 11
51.5047156032336
 21
-32.76550472516495
  0
LINE
  8
0
 10
51.5047156032336
 20
-32.76550472516495
 11
52.218267535567705
 21
-31.754631935751018
  0
LINE
  8
0
 10
52.218267535567705
 20
-31.754631935751018
 11
52.78752624630107
 21
-30.65601249446603
  0
LINE
  8
0
 10
52.78752624630107
 20
-30.65601249446603
 11
52.551249880886694
 21
-30.35486407950894
  0
LINE
  8
0
 10
52.551249880886694
 20
-30.35486407950894
 11
51.95641607087286
 21
-29.663937372018776
  0
LINE
  8
0
 10
51.95641607087286
 20
-29.663937372018776
 11
51.41159180879831
 21
-29.086482378634667
  0
LINE
  8
0
 10
51.41159180879831
 20
-29.086482378634667
 11
50.92570589593724
 21
-28.61633713003223
  0
LINE
  8
0
 10
50.92570589593724
 20
-28.61633713003223
 11
50.50722195758887
 21
-28.246769872900252
  0
LINE
  8
0
 10
50.50722195758887
 20
-28.246769872900252
 11
50.16410544609986
 21
-27.970508994830173
  0
LINE
  8
0
 10
50.16410544609986
 20
-27.970508994830173
 11
49.90379241938034
 21
-27.77977475497884
  0
LINE
  8
0
 10
49.90379241938034
 20
-27.77977475497884
 11
49.60100096495283
 21
-27.578433339736154
  0
LINE
  8
0
 10
49.60100096495283
 20
-27.578433339736154
 11
49.30082799100424
 21
-27.337976035364157
  0
LINE
  8
0
 10
49.30082799100424
 20
-27.337976035364157
 11
49.12326327780826
 21
-27.132473045767973
  0
LINE
  8
0
 10
49.12326327780826
 20
-27.132473045767973
 11
49.0642720119663
 21
-26.972486669374877
  0
LINE
  8
0
 10
49.0642720119663
 20
-26.972486669374877
 11
50.33010973669687
 21
-24.529530755517396
  0
LINE
  8
0
 10
50.33010973669687
 20
-24.529530755517396
 11
50.494832891689995
 21
-24.48546384858742
  0
LINE
  8
0
 10
50.494832891689995
 20
-24.48546384858742
 11
50.76512072311521
 21
-24.51201934309511
  0
LINE
  8
0
 10
50.76512072311521
 20
-24.51201934309511
 11
51.134670948648676
 21
-24.618584629765877
  0
LINE
  8
0
 10
51.134670948648676
 20
-24.618584629765877
 11
51.47377469658733
 21
-24.749846499695654
  0
LINE
  8
0
 10
51.47377469658733
 20
-24.749846499695654
 11
51.779716228214376
 21
-24.852521722408927
  0
LINE
  8
0
 10
51.779716228214376
 20
-24.852521722408927
 11
52.203281588583344
 21
-24.97352336993745
  0
LINE
  8
0
 10
52.203281588583344
 20
-24.97352336993745
 11
52.746538363469234
 21
-25.102289983390495
  0
LINE
  8
0
 10
52.746538363469234
 20
-25.102289983390495
 11
53.410833721662314
 21
-25.228120632231434
  0
LINE
  8
0
 10
53.410833721662314
 20
-25.228120632231434
 11
54.196786496771686
 21
-25.340218719735933
  0
LINE
  8
0
 10
54.196786496771686
 20
-25.340218719735933
 11
55.1042817682315
 21
-25.42773619762873
  0
LINE
  8
0
 10
55.1042817682315
 20
-25.42773619762873
 11
55.48656688709458
 21
-25.447100509660388
  0
LINE
  8
0
 10
55.48656688709458
 20
-25.447100509660388
 11
56.05582559782794
 21
-24.348481068375413
  0
LINE
  8
0
 10
56.05582559782794
 20
-24.348481068375413
 11
56.470186874258644
 21
-23.182580176742736
  0
LINE
  8
0
 10
56.470186874258644
 20
-23.182580176742736
 11
56.19510482911659
 21
-22.916409635312707
  0
LINE
  8
0
 10
56.19510482911659
 20
-22.916409635312707
 11
55.511730158778605
 21
-22.312914783139785
  0
LINE
  8
0
 10
55.511730158778605
 20
-22.312914783139785
 11
54.893350307828726
 21
-21.81502513083867
  0
LINE
  8
0
 10
54.893350307828726
 20
-21.81502513083867
 11
54.34797185948951
 21
-21.415420297049838
  0
LINE
  8
0
 10
54.34797185948951
 20
-21.415420297049838
 11
53.8830629681065
 21
-21.10627876487949
  0
LINE
  8
0
 10
53.8830629681065
 20
-21.10627876487949
 11
53.505524744278134
 21
-20.87931202115486
  0
LINE
  8
0
 10
53.505524744278134
 20
-20.87931202115486
 11
53.22166464482845
 21
-20.725800242870722
  0
LINE
  8
0
 10
53.22166464482845
 20
-20.725800242870722
 11
52.89427742050932
 21
-20.567564230159096
  0
LINE
  8
0
 10
52.89427742050932
 20
-20.567564230159096
 11
52.56415800845147
 21
-20.37022010610782
  0
LINE
  8
0
 10
52.56415800845147
 20
-20.37022010610782
 11
52.36026448910367
 21
-20.19080957444006
  0
LINE
  8
0
 10
52.36026448910367
 20
-20.19080957444006
 11
52.28003786232064
 21
-20.04034596278579
  0
LINE
  8
0
 10
52.28003786232064
 20
-20.04034596278579
 11
53.20143638549399
 21
-17.447778990864663
  0
LINE
  8
0
 10
53.20143638549399
 20
-17.447778990864663
 11
53.358624857079754
 21
-17.381692725439866
  0
LINE
  8
0
 10
53.358624857079754
 20
-17.381692725439866
 11
53.63001118575956
 21
-17.371196692342018
  0
LINE
  8
0
 10
53.63001118575956
 20
-17.371196692342018
 11
54.010630038546054
 21
-17.426449008298427
  0
LINE
  8
0
 10
54.010630038546054
 20
-17.426449008298427
 11
54.36444884485958
 21
-17.510313677035523
  0
LINE
  8
0
 10
54.36444884485958
 20
-17.510313677035523
 11
54.68152176157341
 21
-17.57037354400268
  0
LINE
  8
0
 10
54.68152176157341
 20
-17.57037354400268
 11
55.117618400197834
 21
-17.632572699861743
  0
LINE
  8
0
 10
55.117618400197834
 20
-17.632572699861743
 11
55.67334897043568
 21
-17.686166519493323
  0
LINE
  8
0
 10
55.67334897043568
 20
-17.686166519493323
 11
56.348590983621015
 21
-17.72037030194533
  0
LINE
  8
0
 10
56.348590983621015
 20
-17.72037030194533
 11
57.142487373115706
 21
-17.72440374607905
  0
LINE
  8
0
 10
57.142487373115706
 20
-17.72440374607905
 11
58.053447146347395
 21
-17.68753549127462
  0
LINE
  8
0
 10
58.053447146347395
 20
-17.68753549127462
 11
58.43480841446528
 21
-17.654664959424107
  0
LINE
  8
0
 10
58.43480841446528
 20
-17.654664959424107
 11
58.84916969089581
 21
-16.48876406779133
  0
LINE
  8
0
 10
58.84916969089581
 20
-16.48876406779133
 11
59.10091476644528
 21
-15.277300253452754
  0
LINE
  8
0
 10
59.10091476644528
 20
-15.277300253452754
 11
58.79215129960163
 21
-15.051065839122721
  0
LINE
  8
0
 10
58.79215129960163
 20
-15.051065839122721
 11
58.03296574605334
 21
-14.546244809506906
  0
LINE
  8
0
 10
58.03296574605334
 20
-14.546244809506906
 11
57.35254955283173
 21
-14.137195240467761
  0
LINE
  8
0
 10
57.35254955283173
 20
-14.137195240467761
 11
56.75783793761128
 21
-13.815574703464645
  0
LINE
  8
0
 10
56.75783793761128
 20
-13.815574703464645
 11
56.25516446619868
 21
-13.572617618082017
  0
LINE
  8
0
 10
56.25516446619868
 20
-13.572617618082017
 11
55.85023735281113
 21
-13.399172969700855
  0
LINE
  8
0
 10
55.85023735281113
 20
-13.399172969700855
 11
55.54811795720009
 21
-13.285743286957903
  0
LINE
  8
0
 10
55.54811795720009
 20
-13.285743286957903
 11
55.202233567537995
 21
-13.17356031430013
  0
LINE
  8
0
 10
55.202233567537995
 20
-13.17356031430013
 11
54.84831721740761
 21
-13.023005518211216
  0
LINE
  8
0
 10
54.84831721740761
 20
-13.023005518211216
 11
54.62189304239209
 21
-12.873029523219092
  0
LINE
  8
0
 10
54.62189304239209
 20
-12.873029523219092
 11
54.52192552493036
 21
-12.734891528700675
  0
LINE
  8
0
 10
54.52192552493036
 20
-12.734891528700675
 11
55.081720935412726
 21
-10.041008116077707
  0
LINE
  8
0
 10
55.081720935412726
 20
-10.041008116077707
 11
55.22844659977749
 21
-9.954133554242938
  0
LINE
  8
0
 10
55.22844659977749
 20
-9.954133554242938
 11
55.49587601189123
 21
-9.90678151477691
  0
LINE
  8
0
 10
55.49587601189123
 20
-9.90678151477691
 11
55.88047328286187
 21
-9.909691613914086
  0
LINE
  8
0
 10
55.88047328286187
 20
-9.909691613914086
 11
56.24241617263953
 21
-9.94459684135797
  0
LINE
  8
0
 10
56.24241617263953
 20
-9.94459684135797
 11
56.56471400592675
 21
-9.960922550895052
  0
LINE
  8
0
 10
56.56471400592675
 20
-9.960922550895052
 11
57.0052182675556
 21
-9.963160562496325
  0
LINE
  8
0
 10
57.0052182675556
 20
-9.963160562496325
 11
57.563070424104495
 21
-9.940583236850104
  0
LINE
  8
0
 10
57.563070424104495
 20
-9.940583236850104
 11
58.23668061118338
 21
-9.882523001162141
  0
LINE
  8
0
 10
58.23668061118338
 20
-9.882523001162141
 11
59.02373182743677
 21
-9.77841666649244
  0
LINE
  8
0
 10
59.02373182743677
 20
-9.77841666649244
 11
59.92118664546709
 21
-9.617849464820367
  0
LINE
  8
0
 10
59.92118664546709
 20
-9.617849464820367
 11
60.294520023977995
 21
-9.533356404902609
  0
LINE
  8
0
 10
0.3118675362266391
 20
-1.4672214011007085
 11
9.18454765366783e-17
 21
-1.5
  0
LINE
  8
0
 10
9.18454765366783e-17
 20
-1.5
 11
-0.3118675362266384
 21
-1.4672214011007085
  0
LINE
  8
0
 10
-0.3118675362266384
 20
-1.4672214011007085
 11
-0.6101049646137001
 21
-1.3703181864639014
  0
LINE
  8
0
 10
-0.6101049646137001
 20
-1.3703181864639014
 11
-0.8816778784387099
 21
-1.213525491562421
  0
LINE
  8
0
 10
-0.8816778784387099
 20
-1.213525491562421
 11
-1.114717238216091
 21
-1.0036959095382878
  0
LINE
  8
0
 10
-1.114717238216091
 20
-1.0036959095382878
 11
-1.299038105676658
 21
-0.7500000000000003
  0
LINE
  8
0
 10
-1.299038105676658
 20
-0.7500000000000003
 11
-1.4265847744427305
 21
-0.46352549156242095
  0
LINE
  8
0
 10
-1.4265847744427305
 20
-0.46352549156242095
 11
-1.49178284305241
 21
-0.15679269490147957
  0
LINE
  8
0
 10
-1.49178284305241
 20
-0.15679269490147957
 11
-1.4917828430524098
 21
0.15679269490148126
  0
LINE
  8
0
 10
-1.4917828430524098
 20
0.15679269490148126
 11
-1.4265847744427302
 21
0.46352549156242123
  0
LINE
  8
0
 10
-1.4265847744427302
 20
0.46352549156242123
 11
-1.2990381056766576
 21
0.7500000000000006
  0
LINE
  8
0
 10
-1.2990381056766576
 20
0.7500000000000006
 11
-1.114717238216091
 21
1.0036959095382878
  0
LINE
  8
0
 10
-1.114717238216091
 20
1.0036959095382878
 11
-0.8816778784387097
 21
1.2135254915624214
  0
LINE
  8
0
 10
-0.8816778784387097
 20
1.2135254915624214
 11
-0.6101049646137005
 21
1.3703181864639014
  0
LINE
  8
0
 10
-0.6101049646137005
 20
1.3703181864639014
 11
-0.3118675362266387
 21
1.4672214011007085
  0
LINE
  8
0
 10
-0.3118675362266387
 20
1.4672214011007085
 11
7.579792913117722e-16
 21
1.5
  0
LINE
  8
0
 10
7.579792913117722e-16
 20
1.5
 11
0.3118675362266389
 21
1.4672214011007085
  0
LINE
  8
0
 10
0.3118675362266389
 20
1.4672214011007085
 11
0.6101049646136999
 21
1.3703181864639014
  0
LINE
  8
0
 10
0.6101049646136999
 20
1.3703181864639014
 11
0.8816778784387097
 21
1.213525491562421
  0
LINE
  8
0
 10
0.8816778784387097
 20
1.213525491562421
 11
1.1147172382160917
 21
1.003695909538287
  0
LINE
  8
0
 10
1.1147172382160917
 20
1.003695909538287
 11
1.299038105676658
 21
0.7499999999999998
  0
LINE
  8
0
 10
1.299038105676658
 20
0.7499999999999998
 11
1.4265847744427305
 21
0.4635254915624211
  0
LINE
  8
0
 10
1.4265847744427305
 20
0.4635254915624211
 11
1.49178284305241
 21
0.1567926949014801
  0
LINE
  8
0
 10
1.49178284305241
 20
0.1567926949014801
 11
1.4917828430524098
 21
-0.1567926949014801
  0
LINE
  8
0
 10
1.4917828430524098
 20
-0.1567926949014801
 11
1.4265847744427302
 21
-0.46352549156242107
  0
LINE
  8
0
 10
1.4265847744427302
 20
-0.46352549156242107
 11
1.299038105676658
 21
-0.7500000000000001
  0
LINE
  8
0
 10
1.299038105676658
 20
-0.7500000000000001
 11
1.1147172382160913
 21
-1.0036959095382874
  0
LINE
  8
0
 10
1.1147172382160913
 20
-1.0036959095382874
 11
0.8816778784387098
 21
-1.2135254915624212
  0
LINE
  8
0
 10
0.8816778784387098
 20
-1.2135254915624212
 11
0.6101049646137003
 21
-1.3703181864639014
  0
LINE
  8
0
 10
0.6101049646137003
 20
-1.3703181864639014
 11
0.3118675362266391
 21
-1.4672214011007085
  0
ENDSEC
  0
SECTION
  2
OBJECTS
  0
DICTIONARY
  0
ENDSEC
  0
EOF
