  0
SECTION
  2
BLOCKS
  0
ENDSEC
  0
SECTION
  2
ENTITIES
  0
LINE
  8
0
 10
61.585337570417956
 20
-9.529504078604514
 11
61.832073440957565
 21
-8.315604896583064
  0
LINE
  8
0
 10
61.832073440957565
 20
-8.315604896583064
 11
61.914810881667265
 21
-7.0796500714263635
  0
LINE
  8
0
 10
61.914810881667265
 20
-7.0796500714263635
 11
61.5683535156089
 21
-6.894664608895305
  0
LINE
  8
0
 10
61.5683535156089
 20
-6.894664608895305
 11
60.75084960814959
 21
-6.503927615363055
  0
LINE
  8
0
 10
60.75084960814959
 20
-6.503927615363055
 11
60.02288328319859
 21
-6.195030643852214
  0
LINE
  8
0
 10
60.02288328319859
 20
-6.195030643852214
 11
59.38991217746754
 21
-5.95913127480421
  0
LINE
  8
0
 10
59.38991217746754
 20
-5.95913127480421
 11
58.856780118492196
 21
-5.787072808866212
  0
LINE
  8
0
 10
58.856780118492196
 20
-5.787072808866212
 11
58.42770038573397
 21
-5.669421556314746
  0
LINE
  8
0
 10
58.42770038573397
 20
-5.669421556314746
 11
58.10624108197054
 21
-5.596504974726063
  0
LINE
  8
0
 10
58.10624108197054
 20
-5.596504974726063
 11
57.74417150820201
 21
-5.531182566421622
  0
LINE
  8
0
 10
57.74417150820201
 20
-5.531182566421622
 11
57.38104133824107
 21
-5.4320079896873095
  0
LINE
  8
0
 10
57.38104133824107
 20
-5.4320079896873095
 11
57.1415106601751
 21
-5.316755558184061
  0
LINE
  8
0
 10
57.1415106601751
 20
-5.316755558184061
 11
57.026055039993764
 21
-5.196240306378801
  0
LINE
  8
0
 10
57.026055039993764
 20
-5.196240306378801
 11
57.209830438241156
 21
-2.4509524625636274
  0
LINE
  8
0
 10
57.209830438241156
 20
-2.4509524625636274
 11
57.340319015272854
 21
-2.3469012376151612
  0
LINE
  8
0
 10
57.340319015272854
 20
-2.3469012376151612
 11
57.59307412372096
 21
-2.264603462094328
  0
LINE
  8
0
 10
57.59307412372096
 20
-2.264603462094328
 11
57.96618293782253
 21
-2.2147142864549263
  0
LINE
  8
0
 10
57.96618293782253
 20
-2.2147142864549263
 11
58.333728566447874
 21
-2.1982338692333707
  0
LINE
  8
0
 10
58.333728566447874
 20
-2.1982338692333707
 11
58.66203847492559
 21
-2.1688142185827273
  0
LINE
  8
0
 10
58.66203847492559
 20
-2.1688142185827273
 11
59.10297111593363
 21
-2.1094034419177325
  0
LINE
  8
0
 10
59.10297111593363
 20
-2.1094034419177325
 11
59.65427944686897
 21
-2.009939718633099
  0
LINE
  8
0
 10
59.65427944686897
 20
-2.009939718633099
 11
60.31304516908346
 21
-1.860511956023059
  0
LINE
  8
0
 10
60.31304516908346
 20
-1.860511956023059
 11
61.075688142737015
 21
-1.651399536466019
  0
LINE
  8
0
 10
61.075688142737015
 20
-1.651399536466019
 11
61.93797800611798
 21
-1.373111505218452
  0
LINE
  8
0
 10
61.93797800611798
 20
-1.373111505218452
 11
62.30600025131326
 21
-1.23595482515667
  0
LINE
  8
0
 10
62.30600025131326
 20
-1.23595482515667
 11
62.388737692022985
 21
-9.769962616701378e-15
  0
LINE
  8
0
 10
62.388737692022985
 20
-9.769962616701378e-15
 11
62.30600025131323
 21
1.2359548251566905
  0
LINE
  8
0
 10
62.30600025131323
 20
1.2359548251566905
 11
61.93797800611819
 21
1.3731115052183827
  0
LINE
  8
0
 10
61.93797800611819
 20
1.3731115052183827
 11
61.075688142736894
 21
1.651399536466059
  0
LINE
  8
0
 10
61.075688142736894
 20
1.651399536466059
 11
60.31304516908632
 21
1.8605119560222836
  0
LINE
  8
0
 10
60.31304516908632
 20
1.8605119560222836
 11
59.654279446868834
 21
2.009939718633211
  0
LINE
  8
0
 10
59.654279446868834
 20
2.009939718633211
 11
59.10297111593361
 21
2.109403441917829
  0
LINE
  8
0
 10
59.10297111593361
 20
2.109403441917829
 11
58.66203847492497
 21
2.1688142185828605
  0
LINE
  8
0
 10
58.66203847492497
 20
2.1688142185828605
 11
58.3337285664509
 21
2.1982338692334036
  0
LINE
  8
0
 10
58.3337285664509
 20
2.1982338692334036
 11
57.96618293782253
 21
2.2147142864549005
  0
LINE
  8
0
 10
57.96618293782253
 20
2.2147142864549005
 11
57.593074123721024
 21
2.264603462095099
  0
LINE
  8
0
 10
57.593074123721024
 20
2.264603462095099
 11
57.340319015272904
 21
2.3469012376150395
  0
LINE
  8
0
 10
57.340319015272904
 20
2.3469012376150395
 11
57.209830438241
 21
2.4509524625637766
  0
LINE
  8
0
 10
57.209830438241
 20
2.4509524625637766
 11
57.026055039993906
 21
5.19624030637897
  0
LINE
  8
0
 10
57.026055039993906
 20
5.19624030637897
 11
57.14151066017508
 21
5.316755558183935
  0
LINE
  8
0
 10
57.14151066017508
 20
5.316755558183935
 11
57.381041338240905
 21
5.432007989688066
  0
LINE
  8
0
 10
57.381041338240905
 20
5.432007989688066
 11
57.744171508202015
 21
5.531182566421597
  0
LINE
  8
0
 10
57.744171508202015
 20
5.531182566421597
 11
58.10624108196754
 21
5.5965049747256925
  0
LINE
  8
0
 10
58.10624108196754
 20
5.5965049747256925
 11
58.427700385734575
 21
5.669421556314962
  0
LINE
  8
0
 10
58.427700385734575
 20
5.669421556314962
 11
58.85678011849221
 21
5.78707280886631
  0
LINE
  8
0
 10
58.85678011849221
 20
5.78707280886631
 11
59.38991217746766
 21
5.959131274804339
  0
LINE
  8
0
 10
59.38991217746766
 20
5.959131274804339
 11
60.02288328319586
 21
6.195030643851064
  0
LINE
  8
0
 10
60.02288328319586
 20
6.195030643851064
 11
60.75084960814972
 21
6.503927615363111
  0
LINE
  8
0
 10
60.75084960814972
 20
6.503927615363111
 11
61.5683535156087
 21
6.894664608895209
  0
LINE
  8
0
 10
61.5683535156087
 20
6.894664608895209
 11
61.91481088166734
 21
7.079650071426391
  0
LINE
  8
0
 10
61.91481088166734
 20
7.079650071426391
 11
61.832073440957636
 21
8.315604896583057
  0
LINE
  8
0
 10
61.832073440957636
 20
8.315604896583057
 11
61.58533757041795
 21
9.529504078604514
  0
LINE
  8
0
 10
61.58533757041795
 20
9.529504078604514
 11
61.20231781177037
 21
9.616384411991834
  0
LINE
  8
0
 10
61.20231781177037
 20
9.616384411991834
 11
60.31062957550713
 21
9.777257424444556
  0
LINE
  8
0
 10
60.31062957550713
 20
9.777257424444556
 11
59.52691933508914
 21
9.882853675965215
  0
LINE
  8
0
 10
59.52691933508914
 20
9.882853675965215
 11
58.854114686304634
 21
9.943143290175264
  0
LINE
  8
0
 10
58.854114686304634
 20
9.943143290175264
 11
58.2944681936358
 21
9.968237338308153
  0
LINE
  8
0
 10
58.2944681936358
 20
9.968237338308153
 11
57.84955109780143
 21
9.968347452369695
  0
LINE
  8
0
 10
57.84955109780143
 20
9.968347452369695
 11
57.520249282711255
 21
9.953745177719274
  0
LINE
  8
0
 10
57.520249282711255
 20
9.953745177719274
 11
57.15378645967324
 21
9.92108951042208
  0
LINE
  8
0
 10
57.15378645967324
 20
9.92108951042208
 11
56.77735713705792
 21
9.92080301144697
  0
LINE
  8
0
 10
56.77735713705792
 20
9.92080301144697
 11
56.51588801912578
 21
9.96867752522978
  0
LINE
  8
0
 10
56.51588801912578
 20
9.96867752522978
 11
56.37269505699178
 21
10.054407926747764
  0
LINE
  8
0
 10
56.37269505699178
 20
10.054407926747764
 11
55.824648338585625
 21
12.750706043953016
  0
LINE
  8
0
 10
55.824648338585625
 20
12.750706043953016
 11
55.92301069363895
 21
12.885534725090963
  0
LINE
  8
0
 10
55.92301069363895
 20
12.885534725090963
 11
56.145042510697834
 21
13.03168513020782
  0
LINE
  8
0
 10
56.145042510697834
 20
13.03168513020782
 11
56.49171397003281
 21
13.17837533536418
  0
LINE
  8
0
 10
56.49171397003281
 20
13.17837533536418
 11
56.841846348817086
 21
13.291374054827111
  0
LINE
  8
0
 10
56.841846348817086
 20
13.291374054827111
 11
57.1507185989822
 21
13.406486369229121
  0
LINE
  8
0
 10
57.1507185989822
 20
13.406486369229121
 11
57.56028848549328
 21
13.580278608277835
  0
LINE
  8
0
 10
57.56028848549328
 20
13.580278608277835
 11
58.065730518286294
 21
13.821861429468454
  0
LINE
  8
0
 10
58.065730518286294
 20
13.821861429468454
 11
58.66161162315112
 21
14.140022775122663
  0
LINE
  8
0
 10
58.66161162315112
 20
14.140022775122663
 11
59.341910723090635
 21
14.543192024815182
  0
LINE
  8
0
 10
59.341910723090635
 20
14.543192024815182
 11
60.100040298032006
 21
15.039405269725497
  0
LINE
  8
0
 10
60.100040298032006
 20
15.039405269725497
 11
60.41875024504893
 21
15.268918444764825
  0
LINE
  8
0
 10
60.41875024504893
 20
15.268918444764825
 11
60.17201437450934
 21
16.482817626786264
  0
LINE
  8
0
 10
60.17201437450934
 20
16.482817626786264
 11
59.765683081594844
 21
17.6529991060115
  0
LINE
  8
0
 10
59.765683081594844
 20
17.6529991060115
 11
59.37450080616168
 21
17.68805271111692
  0
LINE
  8
0
 10
59.37450080616168
 20
17.68805271111692
 11
58.469326394717115
 21
17.728639922056313
  0
LINE
  8
0
 10
58.469326394717115
 20
17.728639922056313
 11
57.678534215338395
 21
17.728835637931404
  0
LINE
  8
0
 10
57.678534215338395
 20
17.728835637931404
 11
57.00369685488347
 21
17.69891123414671
  0
LINE
  8
0
 10
57.00369685488347
 20
17.69891123414671
 11
56.445699105400976
 21
17.649187803244445
  0
LINE
  8
0
 10
56.445699105400976
 20
17.649187803244445
 11
56.00473711085632
 21
17.58999528971446
  0
LINE
  8
0
 10
56.00473711085632
 20
17.58999528971446
 11
55.68031978784163
 21
17.531631667700147
  0
LINE
  8
0
 10
55.68031978784163
 20
17.531631667700147
 11
55.321479308152746
 21
17.45042265704081
  0
LINE
  8
0
 10
55.321479308152746
 20
17.45042265704081
 11
54.94844686720346
 21
17.39996559603139
  0
LINE
  8
0
 10
54.94844686720346
 20
17.39996559603139
 11
54.68292966239111
 21
17.412562526244443
  0
LINE
  8
0
 10
54.68292966239111
 20
17.412562526244443
 11
54.5295875969566
 21
17.478442243285595
  0
LINE
  8
0
 10
54.5295875969566
 20
17.478442243285595
 11
53.62704946506482
 21
20.07763513010289
  0
LINE
  8
0
 10
53.62704946506482
 20
20.07763513010289
 11
53.70656327643412
 21
20.224371219564762
  0
LINE
  8
0
 10
53.70656327643412
 20
20.224371219564762
 11
53.90713406945061
 21
20.398811540852666
  0
LINE
  8
0
 10
53.90713406945061
 20
20.398811540852666
 11
54.231160457754825
 21
20.590399684245686
  0
LINE
  8
0
 10
54.231160457754825
 20
20.590399684245686
 11
54.563107520963655
 21
20.74905825004165
  0
LINE
  8
0
 10
54.563107520963655
 20
20.74905825004165
 11
54.85388088490534
 21
20.904312115278834
  0
LINE
  8
0
 10
54.85388088490534
 20
20.904312115278834
 11
55.23663214084218
 21
21.131144014201876
  0
LINE
  8
0
 10
55.23663214084218
 20
21.131144014201876
 11
55.70536452240343
 21
21.437940139477732
  0
LINE
  8
0
 10
55.70536452240343
 20
21.437940139477732
 11
56.253522113971876
 21
21.832685864988846
  0
LINE
  8
0
 10
56.253522113971876
 20
21.832685864988846
 11
56.874014035342036
 21
22.322932828049815
  0
LINE
  8
0
 10
56.874014035342036
 20
22.322932828049815
 11
57.559240437540545
 21
22.915767387227415
  0
LINE
  8
0
 10
57.559240437540545
 20
22.915767387227415
 11
57.84451557896087
 21
23.185712606729044
  0
LINE
  8
0
 10
57.84451557896087
 20
23.185712606729044
 11
57.43818428604645
 21
24.355894085954265
  0
LINE
  8
0
 10
57.43818428604645
 20
24.355894085954265
 11
56.879508562305325
 21
25.461475946164395
  0
LINE
  8
0
 10
56.879508562305325
 20
25.461475946164395
 11
56.48714442705899
 21
25.44407729057437
  0
LINE
  8
0
 10
56.48714442705899
 20
25.44407729057437
 11
55.58463669924931
 21
25.363654420259696
  0
LINE
  8
0
 10
55.58463669924931
 20
25.363654420259696
 11
54.8008742860851
 21
25.258446107934784
  0
LINE
  8
0
 10
54.8008742860851
 20
25.258446107934784
 11
54.136046702644265
 21
25.13884168784981
  0
LINE
  8
0
 10
54.136046702644265
 20
25.13884168784981
 11
53.58965517940684
 21
25.01518809371481
  0
LINE
  8
0
 10
53.58965517940684
 20
25.01518809371481
 11
53.160517263391135
 21
24.897749244399538
  0
LINE
  8
0
 10
53.160517263391135
 20
24.897749244399538
 11
52.8467736672667
 21
24.79666577523884
  0
LINE
  8
0
 10
52.8467736672667
 20
24.79666577523884
 11
52.50195904778809
 21
24.66835259793645
  0
LINE
  8
0
 10
52.50195904778809
 20
24.66835259793645
 11
52.13898026125088
 21
24.568625382341782
  0
LINE
  8
0
 10
52.13898026125088
 20
24.568625382341782
 11
51.87415313036843
 21
24.545719936467005
  0
LINE
  8
0
 10
51.87415313036843
 20
24.545719936467005
 11
51.71339835442382
 21
24.590573343920003
  0
LINE
  8
0
 10
51.71339835442382
 20
24.590573343920003
 11
50.472474623391555
 21
27.046278341708067
  0
LINE
  8
0
 10
50.472474623391555
 20
27.046278341708067
 11
50.53172096522922
 21
27.20230333050117
  0
LINE
  8
0
 10
50.53172096522922
 20
27.20230333050117
 11
50.70725154365032
 21
27.401920676294175
  0
LINE
  8
0
 10
50.70725154365032
 20
27.401920676294175
 11
51.00285060234816
 21
27.634987862966195
  0
LINE
  8
0
 10
51.00285060234816
 20
27.634987862966195
 11
51.31068874677461
 21
27.836475009229872
  0
LINE
  8
0
 10
51.31068874677461
 20
27.836475009229872
 11
51.57817436692478
 21
28.029099916399037
  0
LINE
  8
0
 10
51.57817436692478
 20
28.029099916399037
 11
51.92727678705764
 21
28.304923654586375
  0
LINE
  8
0
 10
51.92727678705764
 20
28.304923654586375
 11
52.35093497693368
 21
28.67145829982379
  0
LINE
  8
0
 10
52.35093497693368
 20
28.67145829982379
 11
52.84158716999813
 21
29.135744158368365
  0
LINE
  8
0
 10
52.84158716999813
 20
29.135744158368365
 11
53.39119921976236
 21
29.704320366127792
  0
LINE
  8
0
 10
53.39119921976236
 20
29.704320366127792
 11
53.99129456783745
 21
30.383197092819646
  0
LINE
  8
0
 10
53.99129456783745
 20
30.383197092819646
 11
54.23804416200421
 21
30.688757177946442
  0
LINE
  8
0
 10
54.23804416200421
 20
30.688757177946442
 11
53.67936843826318
 21
31.794339038156572
  0
LINE
  8
0
 10
53.67936843826318
 20
31.794339038156572
 11
52.97831786522093
 21
32.81559214486442
  0
LINE
  8
0
 10
52.97831786522093
 20
32.81559214486442
 11
52.59177361745015
 21
32.746051708000145
  0
LINE
  8
0
 10
52.59177361745015
 20
32.746051708000145
 11
51.70803784505891
 21
32.546053904457416
  0
LINE
  8
0
 10
51.70803784505891
 20
32.546053904457416
 11
50.9452914569398
 21
32.33731900875838
  0
LINE
  8
0
 10
50.9452914569398
 20
32.33731900875838
 11
50.30233751448962
 21
32.13016891608302
  0
LINE
  8
0
 10
50.30233751448962
 20
32.13016891608302
 11
49.77730258717368
 21
31.934791760032038
  0
LINE
  8
0
 10
49.77730258717368
 20
31.934791760032038
 11
49.36764672596469
 21
31.761202273979688
  0
LINE
  8
0
 10
49.36764672596469
 20
31.761202273979688
 11
49.0701756186361
 21
31.619202794574488
  0
LINE
  8
0
 10
49.0701756186361
 20
31.619202794574488
 11
48.74554008442115
 21
31.446075202317804
  0
LINE
  8
0
 10
48.74554008442115
 20
31.446075202317804
 11
48.3990923173409
 21
31.298857466662756
  0
LINE
  8
0
 10
48.3990923173409
 20
31.298857466662756
 11
48.139681106812816
 21
31.24085839292442
  0
LINE
  8
0
 10
48.139681106812816
 20
31.24085839292442
 11
47.97438229314321
 21
31.263885080670665
  0
LINE
  8
0
 10
47.97438229314321
 20
31.263885080670665
 11
46.41721727634874
 21
33.532280075567236
  0
LINE
  8
0
 10
46.41721727634874
 20
33.532280075567236
 11
46.45513889628111
 21
33.69480969407026
  0
LINE
  8
0
 10
46.45513889628111
 20
33.69480969407026
 11
46.602496912776516
 21
33.91604188810366
  0
LINE
  8
0
 10
46.602496912776516
 20
33.91604188810366
 11
46.86439366966264
 21
34.18642902858706
  0
LINE
  8
0
 10
46.86439366966264
 20
34.18642902858706
 11
47.14262951632659
 21
34.427149212420055
  0
LINE
  8
0
 10
47.14262951632659
 20
34.427149212420055
 11
47.38205410545681
 21
34.65370776548941
  0
LINE
  8
0
 10
47.38205410545681
 20
34.65370776548941
 11
47.691277948828045
 21
34.9736012617987
  0
LINE
  8
0
 10
47.691277948828045
 20
34.9736012617987
 11
48.06230175658388
 21
35.39333360757005
  0
LINE
  8
0
 10
48.06230175658388
 20
35.39333360757005
 11
48.48669285113532
 21
35.918874407003216
  0
LINE
  8
0
 10
48.48669285113532
 20
35.918874407003216
 11
48.95561718924503
 21
36.55563360356381
  0
LINE
  8
0
 10
48.95561718924503
 20
36.55563360356381
 11
49.45987276749379
 21
37.30843792649921
  0
LINE
  8
0
 10
49.45987276749379
 20
37.30843792649921
 11
49.66369356205348
 21
37.644160150293224
  0
LINE
  8
0
 10
49.66369356205348
 20
37.644160150293224
 11
48.96264298901128
 21
38.66541325700108
  0
LINE
  8
0
 10
48.96264298901128
 20
38.66541325700108
 11
48.131727830751984
 21
39.584113324323525
  0
LINE
  8
0
 10
48.131727830751984
 20
39.584113324323525
 11
47.757901361715646
 21
39.46367205692829
  0
LINE
  8
0
 10
47.757901361715646
 20
39.46367205692829
 11
46.908707830537274
 21
39.14766828569976
  0
LINE
  8
0
 10
46.908707830537274
 20
39.14766828569976
 11
46.18058869482904
 21
38.83913168578537
  0
LINE
  8
0
 10
46.18058869482904
 20
38.83913168578537
 11
45.570981921704394
 21
38.54813251883089
  0
LINE
  8
0
 10
45.570981921704394
 20
38.54813251883089
 11
45.07667285102622
 21
38.28451831084222
  0
LINE
  8
0
 10
45.07667285102622
 20
38.28451831084222
 11
44.693809363172136
 21
38.05787589654381
  0
LINE
  8
0
 10
44.693809363172136
 20
38.05787589654381
 11
44.417919123596874
 21
37.87749439096812
  0
LINE
  8
0
 10
44.417919123596874
 20
37.87749439096812
 11
44.119255803444425
 21
37.66264184974243
  0
LINE
  8
0
 10
44.119255803444425
 20
37.66264184974243
 11
43.79552142443219
 21
37.47056069800742
  0
LINE
  8
0
 10
43.79552142443219
 20
37.47056069800742
 11
43.5461553334559
 21
37.378502991250414
  0
LINE
  8
0
 10
43.5461553334559
 20
37.378502991250414
 11
43.379262243307224
 21
37.37929204750157
  0
LINE
  8
0
 10
43.379262243307224
 20
37.37929204750157
 11
41.53364358736518
 21
39.41989747708345
  0
LINE
  8
0
 10
41.53364358736518
 20
39.41989747708345
 11
41.549563773186186
 21
39.58603138040381
  0
LINE
  8
0
 10
41.549563773186186
 20
39.58603138040381
 11
41.66611962046055
 21
39.82493052893399
  0
LINE
  8
0
 10
41.66611962046055
 20
39.82493052893399
 11
41.889640521703875
 21
40.12781255830125
  0
LINE
  8
0
 10
41.889640521703875
 20
40.12781255830125
 11
42.13330894533009
 21
40.40347012232029
  0
LINE
  8
0
 10
42.13330894533009
 20
40.40347012232029
 11
42.34039996597525
 21
40.65991937854303
  0
LINE
  8
0
 10
42.34039996597525
 20
40.65991937854303
 11
42.604227125774244
 21
41.018174125954225
  0
LINE
  8
0
 10
42.604227125774244
 20
41.018174125954225
 11
42.915995622770765
 21
41.48361403860557
  0
LINE
  8
0
 10
42.915995622770765
 20
41.48361403860557
 11
43.26655234967291
 21
42.061031490911155
  0
LINE
  8
0
 10
43.26655234967291
 20
42.061031490911155
 11
43.646421010205515
 21
42.7546106933252
  0
LINE
  8
0
 10
43.646421010205515
 20
42.7546106933252
 11
44.04583836588805
 21
43.567908801527096
  0
LINE
  8
0
 10
44.04583836588805
 20
43.567908801527096
 11
44.203093173933134
 21
43.92780219295131
  0
LINE
  8
0
 10
44.203093173933134
 20
43.92780219295131
 11
43.37217801567389
 21
44.84650226027375
  0
LINE
  8
0
 10
43.37217801567389
 20
44.84650226027375
 11
42.42622597288143
 21
45.646255063744995
  0
LINE
  8
0
 10
42.42622597288143
 20
45.646255063744995
 11
42.07178822477565
 21
45.477062243088795
  0
LINE
  8
0
 10
42.07178822477565
 20
45.477062243088795
 11
41.27229081349178
 21
45.050691598958316
  0
LINE
  8
0
 10
41.27229081349178
 20
45.050691598958316
 11
40.5917922334206
 21
44.64785913776341
  0
LINE
  8
0
 10
40.5917922334206
 20
44.64785913776341
 11
40.02641107692976
 21
44.278203783558006
  0
LINE
  8
0
 10
40.02641107692976
 20
44.278203783558006
 11
39.571648819965986
 21
43.951056725418354
  0
LINE
  8
0
 10
39.571648819965986
 20
43.951056725418354
 11
39.22240991347779
 21
43.675405822126294
  0
LINE
  8
0
 10
39.22240991347779
 20
43.675405822126294
 11
38.97302380951703
 21
43.459861202620424
  0
LINE
  8
0
 10
38.97302380951703
 20
43.459861202620424
 11
38.70566235745068
 21
43.20711776111386
  0
LINE
  8
0
 10
38.70566235745068
 20
43.20711776111386
 11
38.41041841416932
 21
42.97360088600208
  0
LINE
  8
0
 10
38.41041841416932
 20
42.97360088600208
 11
38.175547386545894
 21
42.849127318184365
  0
LINE
  8
0
 10
38.175547386545894
 20
42.849127318184365
 11
38.01003823106562
 21
42.82766466221294
  0
LINE
  8
0
 10
38.01003823106562
 20
42.82766466221294
 11
35.90890104461481
 21
44.604065874246395
  0
LINE
  8
0
 10
35.90890104461481
 20
44.604065874246395
 11
35.90253570023132
 21
44.77083939894356
  0
LINE
  8
0
 10
35.90253570023132
 20
44.77083939894356
 11
35.986209436428766
 21
45.023142341005375
  0
LINE
  8
0
 10
35.986209436428766
 20
45.023142341005375
 11
36.16736574625131
 21
45.353114322267025
  0
LINE
  8
0
 10
36.16736574625131
 20
45.353114322267025
 11
36.37211847804756
 21
45.65879015071175
  0
LINE
  8
0
 10
36.37211847804756
 20
45.65879015071175
 11
36.54318038603818
 21
45.94055376703518
  0
LINE
  8
0
 10
36.54318038603818
 20
45.94055376703518
 11
36.75690286034813
 21
46.33077670109352
  0
LINE
  8
0
 10
36.75690286034813
 20
46.33077670109352
 11
37.0038525303705
 21
46.83361839435711
  0
LINE
  8
0
 10
37.0038525303705
 20
46.83361839435711
 11
37.27431919652694
 21
47.45260847141945
  0
LINE
  8
0
 10
37.27431919652694
 20
47.45260847141945
 11
37.558353414235974
 21
48.19063074238867
  0
LINE
  8
0
 10
37.558353414235974
 20
48.19063074238867
 11
37.84580493517776
 21
49.04990931184881
  0
LINE
  8
0
 10
37.84580493517776
 20
49.04990931184881
 11
37.95368754093325
 21
49.42755156480724
  0
LINE
  8
0
 10
37.95368754093325
 20
49.42755156480724
 11
37.007735498140875
 21
50.227304368278496
  0
LINE
  8
0
 10
37.007735498140875
 20
50.227304368278496
 11
35.96362710742896
 21
50.89383830017416
  0
LINE
  8
0
 10
35.96362710742896
 20
50.89383830017416
 11
35.63490303026538
 21
50.67891317614978
  0
LINE
  8
0
 10
35.63490303026538
 20
50.67891317614978
 11
34.899368789120814
 21
50.14978425336276
  0
LINE
  8
0
 10
34.899368789120814
 20
50.14978425336276
 11
34.278634277969374
 21
49.65984448570063
  0
LINE
  8
0
 10
34.278634277969374
 20
49.65984448570063
 11
33.767567978244045
 21
49.218129452797406
  0
LINE
  8
0
 10
33.767567978244045
 20
49.218129452797406
 11
33.3604677782437
 21
48.83328749150952
  0
LINE
  8
0
 10
33.3604677782437
 20
48.83328749150952
 11
33.05108562968129
 21
48.513547096123354
  0
LINE
  8
0
 10
33.05108562968129
 20
48.513547096123354
 11
32.832653962268296
 21
48.26668576152875
  0
LINE
  8
0
 10
32.832653962268296
 20
48.26668576152875
 11
32.60136544973406
 21
47.98056163244259
  0
LINE
  8
0
 10
32.60136544973406
 20
47.98056163244259
 11
32.33988057734591
 21
47.709776148122536
  0
LINE
  8
0
 10
32.33988057734591
 20
47.709776148122536
 11
32.12369589212749
 21
47.555107953010655
  0
LINE
  8
0
 10
32.12369589212749
 20
47.555107953010655
 11
31.96252418611614
 21
47.511776586420915
  0
LINE
  8
0
 10
31.96252418611614
 20
47.511776586420915
 11
29.643363312025645
 21
48.99227365919348
  0
LINE
  8
0
 10
29.643363312025645
 20
48.99227365919348
 11
29.614826027158976
 21
49.15671072776827
  0
LINE
  8
0
 10
29.614826027158976
 20
49.15671072776827
 11
29.6641244924748
 21
49.41791511138347
  0
LINE
  8
0
 10
29.6641244924748
 20
49.41791511138347
 11
29.799683472236094
 21
49.76908868671672
  0
LINE
  8
0
 10
29.799683472236094
 20
49.76908868671672
 11
29.961866694852795
 21
50.09932798718694
  0
LINE
  8
0
 10
29.961866694852795
 20
50.09932798718694
 11
30.09384688638825
 21
50.40137788520267
  0
LINE
  8
0
 10
30.09384688638825
 20
50.40137788520267
 11
30.25365079259192
 21
50.816605468405314
  0
LINE
  8
0
 10
30.25365079259192
 20
50.816605468405314
 11
30.43137481292824
 21
51.347875720352334
  0
LINE
  8
0
 10
30.43137481292824
 20
51.347875720352334
 11
30.616924934273946
 21
51.9973925295821
  0
LINE
  8
0
 10
30.616924934273946
 20
51.9973925295821
 11
30.800056111815493
 21
52.766687844196966
  0
LINE
  8
0
 10
30.800056111815493
 20
52.766687844196966
 11
30.970412218815472
 21
53.656613028486646
  0
LINE
  8
0
 10
30.970412218815472
 20
53.656613028486646
 11
31.02699745462593
 21
54.045265108028794
  0
LINE
  8
0
 10
31.02699745462593
 20
54.045265108028794
 11
29.98288906391404
 21
54.71179903992443
  0
LINE
  8
0
 10
29.98288906391404
 20
54.71179903992443
 11
28.859256464250223
 21
55.23321978643926
  0
LINE
  8
0
 10
28.859256464250223
 20
55.23321978643926
 11
28.562112146973476
 21
54.97639770297663
  0
LINE
  8
0
 10
28.562112146973476
 20
54.97639770297663
 11
27.903666701926582
 21
54.35395281969551
  0
LINE
  8
0
 10
27.903666701926582
 20
54.35395281969551
 11
27.353773281751845
 21
53.78564873232698
  0
LINE
  8
0
 10
27.353773281751845
 20
53.78564873232698
 11
26.906141829018
 21
53.27975643595252
  0
LINE
  8
0
 10
26.906141829018
 20
53.27975643595252
 11
26.553968398694497
 21
52.844087085432655
  0
LINE
  8
0
 10
26.553968398694497
 20
52.844087085432655
 11
26.28996393982836
 21
52.48596297288283
  0
LINE
  8
0
 10
26.28996393982836
 20
52.48596297288283
 11
26.106384627242857
 21
52.21219016956358
  0
LINE
  8
0
 10
26.106384627242857
 20
52.21219016956358
 11
25.915296403226233
 21
51.89779124475977
  0
LINE
  8
0
 10
25.915296403226233
 20
51.89779124475977
 11
25.692236805473748
 21
51.59456932461416
  0
LINE
  8
0
 10
25.692236805473748
 20
51.59456932461416
 11
25.49859628348957
 21
51.41246655981404
  0
LINE
  8
0
 10
25.49859628348957
 20
51.41246655981404
 11
25.344638139859153
 21
51.34803973186932
  0
LINE
  8
0
 10
25.344638139859153
 20
51.34803973186932
 11
22.84883905886905
 21
52.50621316004374
  0
LINE
  8
0
 10
22.84883905886905
 20
52.50621316004374
 11
22.79863908204371
 21
52.66537938911188
  0
LINE
  8
0
 10
22.79863908204371
 20
52.66537938911188
 11
22.812682544196452
 21
52.93082401586678
  0
LINE
  8
0
 10
22.812682544196452
 20
52.93082401586678
 11
22.9002251406912
 21
53.29693248450036
  0
LINE
  8
0
 10
22.9002251406912
 20
53.29693248450036
 11
23.01694469067857
 21
53.645842128855655
  0
LINE
  8
0
 10
23.01694469067857
 20
53.645842128855655
 11
23.107487976114236
 21
53.96278822097791
  0
LINE
  8
0
 10
23.107487976114236
 20
53.96278822097791
 11
23.210521609719603
 21
54.395610707265696
  0
LINE
  8
0
 10
23.210521609719603
 20
54.395610707265696
 11
23.315848491016613
 21
54.94582898766412
  0
LINE
  8
0
 10
23.315848491016613
 20
54.94582898766412
 11
23.4131709212404
 21
55.61428188621326
  0
LINE
  8
0
 10
23.4131709212404
 20
55.61428188621326
 11
23.49213107841278
 21
56.40112215135954
  0
LINE
  8
0
 10
23.49213107841278
 20
56.40112215135954
 11
23.542351762705724
 21
57.30581321448239
  0
LINE
  8
0
 10
23.542351762705724
 20
57.30581321448239
 11
23.546629863697532
 21
57.69853961504144
  0
LINE
  8
0
 10
23.546629863697532
 20
57.69853961504144
 11
22.422997264033782
 21
58.219960361556296
  0
LINE
  8
0
 10
22.422997264033782
 20
58.219960361556296
 11
21.239891705778458
 21
58.58696315711606
  0
LINE
  8
0
 10
21.239891705778458
 20
58.58696315711606
 11
20.97962969576984
 21
58.292827110378816
  0
LINE
  8
0
 10
20.97962969576984
 20
58.292827110378816
 11
20.410023021386333
 21
57.588173810291735
  0
LINE
  8
0
 10
20.410023021386333
 20
57.588173810291735
 11
19.94078355329854
 21
56.95164680311928
  0
LINE
  8
0
 10
19.94078355329854
 20
56.95164680311928
 11
19.564574941434813
 21
56.39060490328719
  0
LINE
  8
0
 10
19.564574941434813
 20
56.39060490328719
 11
19.273612823995403
 21
55.91188269341658
  0
LINE
  8
0
 10
19.273612823995403
 20
55.91188269341658
 11
19.059697220648395
 21
55.521765596975676
  0
LINE
  8
0
 10
19.059697220648395
 20
55.521765596975676
 11
18.91424624007254
 21
55.2259668070928
  0
LINE
  8
0
 10
18.91424624007254
 20
55.2259668070928
 11
18.766768278458077
 21
54.88890354283272
  0
LINE
  8
0
 10
18.766768278458077
 20
54.88890354283272
 11
18.586114459147527
 21
54.55865618921001
  0
LINE
  8
0
 10
18.586114459147527
 20
54.55865618921001
 11
18.418473620099817
 21
54.352368482873615
  0
LINE
  8
0
 10
18.418473620099817
 20
54.352368482873615
 11
18.274476425570757
 21
54.267995891844876
  0
LINE
  8
0
 10
18.274476425570757
 20
54.267995891844876
 11
15.646576731407896
 21
55.08317804315775
  0
LINE
  8
0
 10
15.646576731407896
 20
55.08317804315775
 11
15.575609882399593
 21
55.23423310759078
  0
LINE
  8
0
 10
15.575609882399593
 20
55.23423310759078
 11
15.554147735474439
 21
55.49918111183247
  0
LINE
  8
0
 10
15.554147735474439
 20
55.49918111183247
 11
15.592111748994279
 21
55.87369125947032
  0
LINE
  8
0
 10
15.592111748994279
 20
55.87369125947032
 11
15.66128476321765
 21
56.235044946841356
  0
LINE
  8
0
 10
15.66128476321765
 20
56.235044946841356
 11
15.708775395479918
 21
56.56123132254761
  0
LINE
  8
0
 10
15.708775395479918
 20
56.56123132254761
 11
15.753200118854375
 21
57.00392498439897
  0
LINE
  8
0
 10
15.753200118854375
 20
57.00392498439897
 11
15.78425030042009
 21
57.56327263500018
  0
LINE
  8
0
 10
15.78425030042009
 20
57.56327263500018
 11
15.79160831844901
 21
58.238733065058156
  0
LINE
  8
0
 10
15.79160831844901
 20
58.238733065058156
 11
15.76498840937687
 21
59.0290770975637
  0
LINE
  8
0
 10
15.76498840937687
 20
59.0290770975637
 11
15.694177481661827
 21
59.93238980606577
  0
LINE
  8
0
 10
15.694177481661827
 20
59.93238980606577
 11
15.646072105021439
 21
60.32218231571985
  0
LINE
  8
0
 10
15.646072105021439
 20
60.32218231571985
 11
14.462966546766165
 21
60.68918511127968
  0
LINE
  8
0
 10
14.462966546766165
 20
60.68918511127968
 11
13.241500576634706
 21
60.89522078230324
  0
LINE
  8
0
 10
13.241500576634706
 20
60.89522078230324
 11
13.022765255628538
 21
60.5690196370136
  0
LINE
  8
0
 10
13.022765255628538
 20
60.5690196370136
 11
12.552161996507028
 21
59.79473247495416
  0
LINE
  8
0
 10
12.552161996507028
 20
59.79473247495416
 11
12.171950069930691
 21
59.10134138750036
  0
LINE
  8
0
 10
12.171950069930691
 20
59.10134138750036
 11
11.87387775052833
 21
58.495161690204476
  0
LINE
  8
0
 10
11.87387775052833
 20
58.495161690204476
 11
11.649319171851745
 21
57.9819294301594
  0
LINE
  8
0
 10
11.649319171851745
 20
57.9819294301594
 11
11.489309753033345
 21
57.56678099865544
  0
LINE
  8
0
 10
11.489309753033345
 20
57.56678099865544
 11
11.384582680661312
 21
57.25423475862201
  0
LINE
  8
0
 10
11.384582680661312
 20
57.25423475862201
 11
11.283346729167835
 21
56.90052205684156
  0
LINE
  8
0
 10
11.283346729167835
 20
56.90052205684156
 11
11.148322459984588
 21
56.549142541590854
  0
LINE
  8
0
 10
11.148322459984588
 20
56.549142541590854
 11
11.009672858617645
 21
56.32235110272479
  0
LINE
  8
0
 10
11.009672858617645
 20
56.32235110272479
 11
10.878206246537665
 21
56.21953837949778
  0
LINE
  8
0
 10
10.878206246537665
 20
56.21953837949778
 11
8.165100871500481
 21
56.67718230914689
  0
LINE
  8
0
 10
8.165100871500481
 20
56.67718230914689
 11
8.074633555411006
 21
56.817430627741444
  0
LINE
  8
0
 10
8.074633555411006
 20
56.817430627741444
 11
8.01804879192828
 21
57.077154006057484
  0
LINE
  8
0
 10
8.01804879192828
 20
57.077154006057484
 11
8.005756753752566
 21
57.45338269024271
  0
LINE
  8
0
 10
8.005756753752566
 20
57.45338269024271
 11
8.026148838134382
 21
57.82073205551774
  0
LINE
  8
0
 10
8.026148838134382
 20
57.82073205551774
 11
8.02973934576546
 21
58.150337911206016
  0
LINE
  8
0
 10
8.02973934576546
 20
58.150337911206016
 11
8.014762398667951
 21
58.5950028697376
  0
LINE
  8
0
 10
8.014762398667951
 20
58.5950028697376
 11
7.97098178927674
 21
59.153498318465424
  0
LINE
  8
0
 10
7.97098178927674
 20
59.153498318465424
 11
7.888244091104747
 21
59.82391267265589
  0
LINE
  8
0
 10
7.888244091104747
 20
59.82391267265589
 11
7.756519148696125
 21
60.60365676453705
  0
LINE
  8
0
 10
7.756519148696125
 20
60.60365676453705
 11
7.565940231655706
 21
61.489471481735244
  0
LINE
  8
0
 10
7.565940231655706
 20
61.489471481735244
 11
7.466309818968922
 21
61.86937424391528
  0
LINE
  8
0
 10
7.466309818968922
 20
61.86937424391528
 11
6.244843848837493
 21
62.07540991493886
  0
LINE
  8
0
 10
6.244843848837493
 20
62.07540991493886
 11
5.006814556003934
 21
62.11680174999564
  0
LINE
  8
0
 10
5.006814556003934
 20
62.11680174999564
 11
4.833509260985506
 21
61.76435657331914
  0
LINE
  8
0
 10
4.833509260985506
 20
61.76435657331914
 11
4.470307343433813
 21
60.93425272203749
  0
LINE
  8
0
 10
4.470307343433813
 20
60.93425272203749
 11
4.185907849206077
 21
60.19637113468472
  0
LINE
  8
0
 10
4.185907849206077
 20
60.19637113468472
 11
3.971290929866285
 21
59.55587093098394
  0
LINE
  8
0
 10
3.971290929866285
 20
59.55587093098394
 11
3.817143143108899
 21
59.0172872626036
  0
LINE
  8
0
 10
3.817143143108899
 20
59.0172872626036
 11
3.7138952806886136
 21
58.58451582963183
  0
LINE
  8
0
 10
3.7138952806886136
 20
58.58451582963183
 11
3.6517609736079146
 21
58.2607995345056
  0
LINE
  8
0
 10
3.6517609736079146
 20
58.2607995345056
 11
3.5985735901881517
 21
57.89674940674767
  0
LINE
  8
0
 10
3.5985735901881517
 20
57.89674940674767
 11
3.5115883824145624
 21
57.53050810564294
  0
LINE
  8
0
 10
3.5115883824145624
 20
57.53050810564294
 11
3.4044042241494488
 21
57.28726003284657
  0
LINE
  8
0
 10
3.4044042241494488
 20
57.28726003284657
 11
3.2878142193256203
 21
57.16784187290293
  0
LINE
  8
0
 10
3.2878142193256203
 20
57.16784187290293
 11
0.5379185931063113
 21
57.259780914121926
  0
LINE
  8
0
 10
0.5379185931063113
 20
57.259780914121926
 11
0.4295652013344898
 21
57.38671975231015
  0
LINE
  8
0
 10
0.4295652013344898
 20
57.38671975231015
 11
0.3388675777390604
 21
57.636583734861524
  0
LINE
  8
0
 10
0.3388675777390604
 20
57.636583734861524
 11
0.27653883958023884
 21
58.00781714581181
  0
LINE
  8
0
 10
0.27653883958023884
 20
58.00781714581181
 11
0.2477860968916132
 21
58.37460683086481
  0
LINE
  8
0
 10
0.2477860968916132
 20
58.37460683086481
 11
0.2074124071977614
 21
58.70175034223185
  0
LINE
  8
0
 10
0.2074124071977614
 20
58.70175034223185
 11
0.13330105360405325
 21
59.140451540724364
  0
LINE
  8
0
 10
0.13330105360405325
 20
59.140451540724364
 11
0.015470919267681746
 21
59.68812842306525
  0
LINE
  8
0
 10
0.015470919267681746
 20
59.68812842306525
 11
-0.155886038921251
 21
60.34153314135527
  0
LINE
  8
0
 10
-0.155886038921251
 20
60.34153314135527
 11
-0.3903653799484545
 21
61.09676274081995
  0
LINE
  8
0
 10
-0.3903653799484545
 20
61.09676274081995
 11
-0.697311401024763
 21
61.94927208210052
  0
LINE
  8
0
 10
-0.697311401024763
 20
61.94927208210052
 11
-0.8466889426832722
 21
62.31250572301529
  0
LINE
  8
0
 10
-0.8466889426832722
 20
62.31250572301529
 11
-2.0847182355167946
 21
62.35389755807212
  0
LINE
  8
0
 10
-2.0847182355167946
 20
62.35389755807212
 11
-3.3172181889923706
 21
62.22990691888503
  0
LINE
  8
0
 10
-3.3172181889923706
 20
62.22990691888503
 11
-3.4420008209277726
 21
61.857507103349036
  0
LINE
  8
0
 10
-3.4420008209277726
 20
61.857507103349036
 11
-3.6913200500865253
 21
60.98639978573682
  0
LINE
  8
0
 10
-3.6913200500865253
 20
60.98639978573682
 11
-3.874831996253617
 21
60.21719521289212
  0
LINE
  8
0
 10
-3.874831996253617
 20
60.21719521289212
 11
-4.0021636715208535
 21
59.55380424409523
  0
LINE
  8
0
 10
-4.0021636715208535
 20
59.55380424409523
 11
-4.083149895452527
 21
58.999480205701154
  0
LINE
  8
0
 10
-4.083149895452527
 20
58.999480205701154
 11
-4.127793740923818
 21
58.556808587735496
  0
LINE
  8
0
 10
-4.127793740923818
 20
58.556808587735496
 11
-4.14622649453134
 21
58.227698962471976
  0
LINE
  8
0
 10
-4.14622649453134
 20
58.227698962471976
 11
-4.150416179760232
 21
57.85980789189089
  0
LINE
  8
0
 10
-4.150416179760232
 20
57.85980789189089
 11
-4.1878100730307235
 21
57.48524038962679
  0
LINE
  8
0
 10
-4.1878100730307235
 20
57.48524038962679
 11
-4.2616160843505275
 21
57.2298764505218
  0
LINE
  8
0
 10
-4.2616160843505275
 20
57.2298764505218
 11
-4.361248930520057
 21
57.09598387375483
  0
LINE
  8
0
 10
-4.361248930520057
 20
57.09598387375483
 11
-7.098862855325369
 21
56.82057737217506
  0
LINE
  8
0
 10
-7.098862855325369
 20
56.82057737217506
 11
-7.223168753936431
 21
56.93194150338224
  0
LINE
  8
0
 10
-7.223168753936431
 20
56.93194150338224
 11
-7.346360736402836
 21
57.167487261480936
  0
LINE
  8
0
 10
-7.346360736402836
 20
57.167487261480936
 11
-7.457613916735724
 21
57.52710073018321
  0
LINE
  8
0
 10
-7.457613916735724
 20
57.52710073018321
 11
-7.5349983931203495
 21
57.886785364395
  0
LINE
  8
0
 10
-7.5349983931203495
 20
57.886785364395
 11
-7.6186158106900725
 21
58.20562864773028
  0
LINE
  8
0
 10
-7.6186158106900725
 20
58.20562864773028
 11
-7.75053905191937
 21
58.630537452903596
  0
LINE
  8
0
 10
-7.75053905191937
 20
58.630537452903596
 11
-7.940316029662221
 21
59.15762246191746
  0
LINE
  8
0
 10
-7.940316029662221
 20
59.15762246191746
 11
-8.197234378889691
 21
59.7823575216297
  0
LINE
  8
0
 10
-8.197234378889691
 20
59.7823575216297
 11
-8.530283829139925
 21
60.49959553858373
  0
LINE
  8
0
 10
-8.530283829139925
 20
60.49959553858373
 11
-8.948119495234332
 21
61.30358645455521
  0
LINE
  8
0
 10
-8.948119495234332
 20
61.30358645455521
 11
-9.144578520094846
 21
61.643669061277485
  0
LINE
  8
0
 10
-9.144578520094846
 20
61.643669061277485
 11
-10.377078473570393
 21
61.519678422090394
  0
LINE
  8
0
 10
-10.377078473570393
 20
61.519678422090394
 11
-11.582055096819747
 21
61.232517924553036
  0
LINE
  8
0
 10
-11.582055096819747
 20
61.232517924553036
 11
-11.656088316649079
 21
60.84680895368812
  0
LINE
  8
0
 10
-11.656088316649079
 20
60.84680895368812
 11
-11.787075749864073
 21
59.95024310046505
  0
LINE
  8
0
 10
-11.787075749864073
 20
59.95024310046505
 11
-11.866425372943691
 21
59.16344201595362
  0
LINE
  8
0
 10
-11.866425372943691
 20
59.16344201595362
 11
-11.904199567376683
 21
58.488998509614824
  0
LINE
  8
0
 10
-11.904199567376683
 20
58.488998509614824
 11
-11.910579027397983
 21
57.92882602680434
  0
LINE
  8
0
 10
-11.910579027397983
 20
57.92882602680434
 11
-11.895822185440213
 21
57.48415370935448
  0
LINE
  8
0
 10
-11.895822185440213
 20
57.48415370935448
 11
-11.870224452649753
 21
57.155523723013246
  0
LINE
  8
0
 10
-11.870224452649753
 20
57.155523723013246
 11
-11.825341674655611
 21
56.79035673447903
  0
LINE
  8
0
 10
-11.825341674655611
 20
56.79035673447903
 11
-11.812476958511713
 21
56.414147197007125
  0
LINE
  8
0
 10
-11.812476958511713
 20
56.414147197007125
 11
-11.851587752865708
 21
56.15122436713655
  0
LINE
  8
0
 10
-11.851587752865708
 20
56.15122436713655
 11
-11.932485489880698
 21
56.0052466897506
  0
LINE
  8
0
 10
-11.932485489880698
 20
56.0052466897506
 11
-14.608964927928582
 21
55.36740928091727
  0
LINE
  8
0
 10
-14.608964927928582
 20
55.36740928091727
 11
-14.747005091673309
 21
55.46121140958375
  0
LINE
  8
0
 10
-14.747005091673309
 20
55.46121140958375
 11
-14.900493069165105
 21
55.67823562359631
  0
LINE
  8
0
 10
-14.900493069165105
 20
55.67823562359631
 11
-15.058685376033385
 21
56.019811839182154
  0
LINE
  8
0
 10
-15.058685376033385
 20
56.019811839182154
 11
-15.183320658299653
 21
56.365972841734155
  0
LINE
  8
0
 10
-15.183320658299653
 20
56.365972841734155
 11
-15.308689648947782
 21
56.67082613109302
  0
LINE
  8
0
 10
-15.308689648947782
 20
56.67082613109302
 11
-15.496070604447613
 21
57.07436003525255
  0
LINE
  8
0
 10
-15.496070604447613
 20
57.07436003525255
 11
-15.754407850933221
 21
57.57144732646667
  0
LINE
  8
0
 10
-15.754407850933221
 20
57.57144732646667
 11
-16.092302877170756
 21
58.156364315660305
  0
LINE
  8
0
 10
-16.092302877170756
 20
58.156364315660305
 11
-16.51797916131422
 21
58.82281162069947
  0
LINE
  8
0
 10
-16.51797916131422
 20
58.82281162069947
 11
-17.039248185066555
 21
59.56393687441944
  0
LINE
  8
0
 10
-17.039248185066555
 20
59.56393687441944
 11
-17.279282877176247
 21
59.87479966477554
  0
LINE
  8
0
 10
-17.279282877176247
 20
59.87479966477554
 11
-18.48425950042556
 21
59.587639167238216
  0
LINE
  8
0
 10
-18.48425950042556
 20
59.587639167238216
 11
-19.640209957060367
 21
59.14243319723209
  0
LINE
  8
0
 10
-19.640209957060367
 20
59.14243319723209
 11
-19.662172640221907
 21
58.75029805676098
  0
LINE
  8
0
 10
-19.662172640221907
 20
58.75029805676098
 11
-19.672490803644266
 21
57.84427290681787
  0
LINE
  8
0
 10
-19.672490803644266
 20
57.84427290681787
 11
-19.646262107732728
 21
57.05391579463248
  0
LINE
  8
0
 10
-19.646262107732728
 20
57.05391579463248
 11
-19.593804739936935
 21
56.380455211100255
  0
LINE
  8
0
 10
-19.593804739936935
 20
56.380455211100255
 11
-19.525463594432644
 21
55.82443057509985
  0
LINE
  8
0
 10
-19.525463594432644
 20
55.82443057509985
 11
-19.451569401240146
 21
55.38569274620516
  0
LINE
  8
0
 10
-19.451569401240146
 20
55.38569274620516
 11
-19.382397974199773
 21
55.06340680867786
  0
LINE
  8
0
 10
-19.382397974199773
 20
55.06340680867786
 11
-19.289243667219193
 21
54.70748031575188
  0
LINE
  8
0
 10
-19.289243667219193
 20
54.70748031575188
 11
-19.226349912825267
 21
54.33634221118092
  0
LINE
  8
0
 10
-19.226349912825267
 20
54.33634221118092
 11
-19.230067557161657
 21
54.07055235467254
  0
LINE
  8
0
 10
-19.230067557161657
 20
54.07055235467254
 11
-19.290786562988565
 21
53.91509455177886
  0
LINE
  8
0
 10
-19.290786562988565
 20
53.91509455177886
 11
-21.85836967530009
 21
52.92620845936324
  0
LINE
  8
0
 10
-21.85836967530009
 20
52.92620845936324
 11
-22.00768077418622
 21
53.000774684280756
  0
LINE
  8
0
 10
-22.00768077418622
 20
53.000774684280756
 11
-22.18872575010887
 21
53.19540455196673
  0
LINE
  8
0
 10
-22.18872575010887
 20
53.19540455196673
 11
-22.391034238048828
 21
53.51284807877694
  0
LINE
  8
0
 10
-22.391034238048828
 20
53.51284807877694
 11
-22.560696206632034
 21
53.83930819837789
  0
LINE
  8
0
 10
-22.560696206632034
 20
53.83930819837789
 11
-22.725579557750407
 21
54.124731379589626
  0
LINE
  8
0
 10
-22.725579557750407
 20
54.124731379589626
 11
-22.96507440993074
 21
54.49968931065574
  0
LINE
  8
0
 10
-22.96507440993074
 20
54.49968931065574
 11
-23.287361890875452
 21
54.95790834958218
  0
LINE
  8
0
 10
-23.287361890875452
 20
54.95790834958218
 11
-23.700203849374955
 21
55.49256941072813
  0
LINE
  8
0
 10
-23.700203849374955
 20
55.49256941072813
 11
-24.210910764036647
 21
56.09633323590555
  0
LINE
  8
0
 10
-24.210910764036647
 20
56.09633323590555
 11
-24.82631108736896
 21
56.76136742966381
  0
LINE
  8
0
 10
-24.82631108736896
 20
56.76136742966381
 11
-25.105638021960598
 21
57.03746304979531
  0
LINE
  8
0
 10
-25.105638021960598
 20
57.03746304979531
 11
-26.2615884785954
 21
56.59225707978927
  0
LINE
  8
0
 10
-26.2615884785954
 20
56.59225707978927
 11
-27.34788480533207
 21
55.99695034839632
  0
LINE
  8
0
 10
-27.34788480533207
 20
55.99695034839632
 11
-27.31738502722447
 21
55.60538669919055
  0
LINE
  8
0
 10
-27.31738502722447
 20
55.60538669919055
 11
-27.206849792983487
 21
54.70607029279225
  0
LINE
  8
0
 10
-27.206849792983487
 20
54.70607029279225
 11
-27.0755108297807
 21
53.92626109432376
  0
LINE
  8
0
 10
-27.0755108297807
 20
53.92626109432376
 11
-26.933758002727178
 21
53.26580135366581
  0
LINE
  8
0
 10
-26.933758002727178
 20
53.26580135366581
 11
-26.791915801057858
 21
52.72384683727737
  0
LINE
  8
0
 10
-26.791915801057858
 20
52.72384683727737
 11
-26.66020290025874
 21
52.29887278388837
  0
LINE
  8
0
 10
-26.66020290025874
 20
52.29887278388837
 11
-26.548692144722686
 21
51.988682095365284
  0
LINE
  8
0
 10
-26.548692144722686
 20
51.988682095365284
 11
-26.4089286495706
 21
51.64834761474586
  0
LINE
  8
0
 10
-26.4089286495706
 20
51.64834761474586
 11
-26.29712819746379
 21
51.288903911344335
  0
LINE
  8
0
 10
-26.29712819746379
 20
51.288903911344335
 11
-26.265386350331315
 21
51.024990054484235
  0
LINE
  8
0
 10
-26.265386350331315
 20
51.024990054484235
 11
-26.30484309287271
 21
50.86282627425831
  0
LINE
  8
0
 10
-26.30484309287271
 20
50.86282627425831
 11
-28.717711297981495
 21
49.54053819400671
  0
LINE
  8
0
 10
-28.717711297981495
 20
49.54053819400671
 11
-28.875628871912163
 21
49.5945378791251
  0
LINE
  8
0
 10
-28.875628871912163
 20
49.5945378791251
 11
-29.081000094381288
 21
49.76330022588476
  0
LINE
  8
0
 10
-29.081000094381288
 20
49.76330022588476
 11
-29.32381456363286
 21
50.05094627666303
  0
LINE
  8
0
 10
-29.32381456363286
 20
50.05094627666303
 11
-29.53547559668427
 21
50.35187982474467
  0
LINE
  8
0
 10
-29.53547559668427
 20
50.35187982474467
 11
-29.73693096096602
 21
50.61277951437875
  0
LINE
  8
0
 10
-29.73693096096602
 20
50.61277951437875
 11
-30.02426591851596
 21
50.952470339188665
  0
LINE
  8
0
 10
-30.02426591851596
 20
50.952470339188665
 11
-30.404752406187182
 21
51.36364419622237
  0
LINE
  8
0
 10
-30.404752406187182
 20
51.36364419622237
 11
-30.885174122418828
 21
51.83850829001812
  0
LINE
  8
0
 10
-30.885174122418828
 20
51.83850829001812
 11
-31.471798090607738
 21
52.36881445557008
  0
LINE
  8
0
 10
-31.471798090607738
 20
52.36881445557008
 11
-32.17034788017106
 21
52.945890038424054
  0
LINE
  8
0
 10
-32.17034788017106
 20
52.945890038424054
 11
-32.483982461479464
 21
53.1822915554489
  0
LINE
  8
0
 10
-32.483982461479464
 20
53.1822915554489
 11
-33.57027878821612
 21
52.586984824056
  0
LINE
  8
0
 10
-33.57027878821612
 20
52.586984824056
 11
-34.56753600136921
 21
51.85220059400105
  0
LINE
  8
0
 10
-34.56753600136921
 20
51.85220059400105
 11
-34.48511803125536
 21
51.46819589865697
  0
LINE
  8
0
 10
-34.48511803125536
 20
51.46819589865697
 11
-34.25570190322468
 21
50.59163655838088
  0
LINE
  8
0
 10
-34.25570190322468
 20
50.59163655838088
 11
-34.02159641964048
 21
49.836290987249996
  0
LINE
  8
0
 10
-34.02159641964048
 20
49.836290987249996
 11
-33.793077715886184
 21
49.20061800918494
  0
LINE
  8
0
 10
-33.793077715886184
 20
49.20061800918494
 11
-33.580265635500936
 21
48.68240480359257
  0
LINE
  8
0
 10
-33.580265635500936
 20
48.68240480359257
 11
-33.39308444693028
 21
48.2787781977598
  0
LINE
  8
0
 10
-33.39308444693028
 20
48.2787781977598
 11
-33.24122427497283
 21
47.98621811842617
  0
LINE
  8
0
 10
-33.24122427497283
 20
47.98621811842617
 11
-33.05734567453129
 21
47.66754892698263
  0
LINE
  8
0
 10
-33.05734567453129
 20
47.66754892698263
 11
-32.898633606428035
 21
47.32621390615313
  0
LINE
  8
0
 10
-32.898633606428035
 20
47.32621390615313
 11
-32.83199870184075
 21
47.06888559796921
  0
LINE
  8
0
 10
-32.83199870184075
 20
47.06888559796921
 11
-32.84948907459123
 21
46.90290965691089
  0
LINE
  8
0
 10
-32.84948907459123
 20
46.90290965691089
 11
-35.064584682215205
 21
45.27081585094099
  0
LINE
  8
0
 10
-35.064584682215205
 20
45.27081585094099
 11
-35.22829068834248
 21
45.303285370600044
  0
LINE
  8
0
 10
-35.22829068834248
 20
45.303285370600044
 11
-35.45432330302779
 21
45.44316862835741
  0
LINE
  8
0
 10
-35.45432330302779
 20
45.44316862835741
 11
-35.73331072363481
 21
45.695884152513145
  0
LINE
  8
0
 10
-35.73331072363481
 20
45.695884152513145
 11
-35.98319372500527
 21
45.96592096278071
  0
LINE
  8
0
 10
-35.98319372500527
 20
45.96592096278071
 11
-36.21762612670223
 21
46.19764139969478
  0
LINE
  8
0
 10
-36.21762612670223
 20
46.19764139969478
 11
-36.5476736904972
 21
46.496003327432334
  0
LINE
  8
0
 10
-36.5476736904972
 20
46.496003327432334
 11
-36.979569394508545
 21
46.85279459535365
  0
LINE
  8
0
 10
-36.979569394508545
 20
46.85279459535365
 11
-37.51899773156478
 21
47.259387760795676
  0
LINE
  8
0
 10
-37.51899773156478
 20
47.259387760795676
 11
-38.1710704346712
 21
47.70677294063472
  0
LINE
  8
0
 10
-38.1710704346712
 20
47.70677294063472
 11
-38.94030405292182
 21
48.1855919851372
  0
LINE
  8
0
 10
-38.94030405292182
 20
48.1855919851372
 11
-39.282649464413446
 21
48.37808080838367
  0
LINE
  8
0
 10
-39.282649464413446
 20
48.37808080838367
 11
-40.2799066775665
 21
47.64329657832872
  0
LINE
  8
0
 10
-40.2799066775665
 20
47.64329657832872
 11
-41.170328698541766
 21
46.78214709160434
  0
LINE
  8
0
 10
-41.170328698541766
 20
46.78214709160434
 11
-41.037463287050876
 21
46.41255392300768
  0
LINE
  8
0
 10
-41.037463287050876
 20
46.41255392300768
 11
-40.69326020147019
 21
45.574393871047086
  0
LINE
  8
0
 10
-40.69326020147019
 20
45.574393871047086
 11
-40.360565815405195
 21
44.856991086865094
  0
LINE
  8
0
 10
-40.360565815405195
 20
44.856991086865094
 11
-40.04935915663233
 21
44.257448470745885
  0
LINE
  8
0
 10
-40.04935915663233
 20
44.257448470745885
 11
-39.76937483414722
 21
43.77222410288007
  0
LINE
  8
0
 10
-39.76937483414722
 20
43.77222410288007
 11
-39.53006561054949
 21
43.39714767094672
  0
LINE
  8
0
 10
-39.53006561054949
 20
43.39714767094672
 11
-39.34056597053686
 21
43.12743894234913
  0
LINE
  8
0
 10
-39.34056597053686
 20
43.12743894234913
 11
-39.11585358278691
 21
42.83612169935219
  0
LINE
  8
0
 10
-39.11585358278691
 20
42.83612169935219
 11
-38.913062119302474
 21
42.51898649262778
  0
LINE
  8
0
 10
-38.913062119302474
 20
42.51898649262778
 11
-38.81272325871136
 21
42.27283576287581
  0
LINE
  8
0
 10
-38.81272325871136
 20
42.27283576287581
 11
-38.80793514555484
 21
42.106009505585355
  0
LINE
  8
0
 10
-38.80793514555484
 20
42.106009505585355
 11
-40.78572972209936
 21
40.19323472652969
  0
LINE
  8
0
 10
-40.78572972209936
 20
40.19323472652969
 11
-40.95230282286564
 21
40.20359466138187
  0
LINE
  8
0
 10
-40.95230282286564
 20
40.20359466138187
 11
-41.19496327240326
 21
40.312102610088374
  0
LINE
  8
0
 10
-41.19496327240326
 20
40.312102610088374
 11
-41.50514510723564
 21
40.52537789310606
  0
LINE
  8
0
 10
-41.50514510723564
 20
40.52537789310606
 11
-41.78879090884587
 21
40.759699152283034
  0
LINE
  8
0
 10
-41.78879090884587
 20
40.759699152283034
 11
-42.05201689619594
 21
40.958105279790814
  0
LINE
  8
0
 10
-42.05201689619594
 20
40.958105279790814
 11
-42.418887359641055
 21
41.20981403478719
  0
LINE
  8
0
 10
-42.418887359641055
 20
41.20981403478719
 11
-42.894485090922636
 21
41.505855764967535
  0
LINE
  8
0
 10
-42.894485090922636
 20
41.505855764967535
 11
-43.483293937349394
 21
41.83692233738615
  0
LINE
  8
0
 10
-43.483293937349394
 20
41.83692233738615
 11
-44.1891791225385
 21
42.19340293237931
  0
LINE
  8
0
 10
-44.1891791225385
 20
42.19340293237931
 11
-45.015369577335264
 21
42.56542090133772
  0
LINE
  8
0
 10
-45.015369577335264
 20
42.56542090133772
 11
-45.38031665703166
 21
42.71056206319475
  0
LINE
  8
0
 10
-45.38031665703166
 20
42.71056206319475
 11
-46.27073867800693
 21
41.84941257647044
  0
LINE
  8
0
 10
-46.27073867800693
 20
41.84941257647044
 11
-47.03843590474563
 21
40.87726506606832
  0
LINE
  8
0
 10
-47.03843590474563
 20
40.87726506606832
 11
-46.85749403829342
 21
40.528678823068496
  0
LINE
  8
0
 10
-46.85749403829342
 20
40.528678823068496
 11
-46.40464630737924
 21
39.74387504540702
  0
LINE
  8
0
 10
-46.40464630737924
 20
39.74387504540702
 11
-45.97929995803445
 21
39.07721711785323
  0
LINE
  8
0
 10
-45.97929995803445
 20
39.07721711785323
 11
-45.59095883444144
 21
38.524503715867944
  0
LINE
  8
0
 10
-45.59095883444144
 20
38.524503715867944
 11
-45.24879859672418
 21
38.08092702606843
  0
LINE
  8
0
 10
-45.24879859672418
 20
38.08092702606843
 11
-44.961631816863814
 21
37.74109401584808
  0
LINE
  8
0
 10
-44.961631816863814
 20
37.74109401584808
 11
-44.73787433436135
 21
37.49904959663786
  0
LINE
  8
0
 10
-44.73787433436135
 20
37.49904959663786
 11
-44.47633815718592
 21
37.24028286519025
  0
LINE
  8
0
 10
-44.47633815718592
 20
37.24028286519025
 11
-44.23308611679041
 21
36.95300675784801
  0
LINE
  8
0
 10
-44.23308611679041
 20
36.95300675784801
 11
-44.10083384953978
 21
36.722426172131826
  0
LINE
  8
0
 10
-44.10083384953978
 20
36.722426172131826
 11
-44.07385269446896
 21
36.557726617122746
  0
LINE
  8
0
 10
-44.07385269446896
 20
36.557726617122746
 11
-45.779052448860774
 21
34.39840437622806
  0
LINE
  8
0
 10
-45.779052448860774
 20
34.39840437622806
 11
-45.94552014333669
 21
34.3864698529905
  0
LINE
  8
0
 10
-45.94552014333669
 20
34.3864698529905
 11
-46.20047814625588
 21
34.46166616573086
  0
LINE
  8
0
 10
-46.20047814625588
 20
34.46166616573086
 11
-46.536319193122715
 21
34.631695305132475
  0
LINE
  8
0
 10
-46.536319193122715
 20
34.631695305132475
 11
-46.84866612892328
 21
34.82611954479767
  0
LINE
  8
0
 10
-46.84866612892328
 20
34.82611954479767
 11
-47.13598842794626
 21
34.98767080085345
  0
LINE
  8
0
 10
-47.13598842794626
 20
34.98767080085345
 11
-47.53313497893002
 21
35.18823463441266
  0
LINE
  8
0
 10
-47.53313497893002
 20
35.18823463441266
 11
-48.0439476847
 21
35.41824395516359
  0
LINE
  8
0
 10
-48.0439476847
 20
35.41824395516359
 11
-48.67162973268366
 21
35.66787604373088
  0
LINE
  8
0
 10
-48.67162973268366
 20
35.66787604373088
 11
-49.418730862103025
 21
35.9270906492153
  0
LINE
  8
0
 10
-49.418730862103025
 20
35.9270906492153
 11
-50.28713476520725
 21
36.1856688731603
  0
LINE
  8
0
 10
-50.28713476520725
 20
36.1856688731603
 11
-50.66817102382555
 21
36.280872326156185
  0
LINE
  8
0
 10
-50.66817102382555
 20
36.280872326156185
 11
-51.435868250564255
 21
35.30872481575412
  0
LINE
  8
0
 10
-51.435868250564255
 20
35.30872481575412
 11
-52.06714110786809
 21
34.24292727702793
  0
LINE
  8
0
 10
-52.06714110786809
 20
34.24292727702793
 11
-51.84135169834798
 21
33.92156848938943
  0
LINE
  8
0
 10
-51.84135169834798
 20
33.92156848938943
 11
-51.28794040058661
 21
33.204125828031785
  0
LINE
  8
0
 10
-51.28794040058661
 20
33.204125828031785
 11
-50.777532403642745
 21
32.60010928361683
  0
LINE
  8
0
 10
-50.777532403642745
 20
32.60010928361683
 11
-50.31898677178007
 21
32.10408827951791
  0
LINE
  8
0
 10
-50.31898677178007
 20
32.10408827951791
 11
-49.920756476378656
 21
31.710074904322695
  0
LINE
  8
0
 10
-49.920756476378656
 20
31.710074904322695
 11
-49.59085663824537
 21
31.411549643933505
  0
LINE
  8
0
 10
-49.59085663824537
 20
31.411549643933505
 11
-49.33683427082924
 21
31.20148882250562
  0
LINE
  8
0
 10
-49.33683427082924
 20
31.20148882250562
 11
-49.04314142350594
 21
30.979890301060312
  0
LINE
  8
0
 10
-49.04314142350594
 20
30.979890301060312
 11
-48.763769644622954
 21
30.72759974204146
  0
LINE
  8
0
 10
-48.763769644622954
 20
30.72759974204146
 11
-48.60196401555502
 21
30.516704016375712
  0
LINE
  8
0
 10
-48.60196401555502
 20
30.516704016375712
 11
-48.553271297921334
 21
30.357070231108967
  0
LINE
  8
0
 10
-48.553271297921334
 20
30.357070231108967
 11
-49.95544690014638
 21
27.989733684919308
  0
LINE
  8
0
 10
-49.95544690014638
 20
27.989733684919308
 11
-50.11883856838031
 21
27.955717675441914
  0
LINE
  8
0
 10
-50.11883856838031
 20
27.955717675441914
 11
-50.381544393078926
 21
27.99626047223386
  0
LINE
  8
0
 10
-50.381544393078926
 20
27.99626047223386
 11
-50.73705156054264
 21
28.1200092939987
  0
LINE
  8
0
 10
-50.73705156054264
 20
28.1200092939987
 11
-51.072525792064546
 21
28.271067008989306
  0
LINE
  8
0
 10
-51.072525792064546
 20
28.271067008989306
 11
-51.378817129527576
 21
28.39288050760155
  0
LINE
  8
0
 10
-51.378817129527576
 20
28.39288050760155
 11
-51.7991526784391
 21
28.538720353362283
  0
LINE
  8
0
 10
-51.7991526784391
 20
28.538720353362283
 11
-52.336064893861646
 21
28.698592742905973
  0
LINE
  8
0
 10
-52.336064893861646
 20
28.698592742905973
 11
-52.991419142385865
 21
28.862335657087552
  0
LINE
  8
0
 10
-52.991419142385865
 20
28.862335657087552
 11
-53.766404178681846
 21
29.01965858228747
  0
LINE
  8
0
 10
-53.766404178681846
 20
29.01965858228747
 11
-54.66152484186978
 21
29.16018272668694
  0
LINE
  8
0
 10
-54.66152484186978
 20
29.16018272668694
 11
-55.05185067834793
 21
29.203749562947475
  0
LINE
  8
0
 10
-55.05185067834793
 20
29.203749562947475
 11
-55.68312353565182
 21
28.137952024221374
  0
LINE
  8
0
 10
-55.68312353565182
 20
28.137952024221374
 11
-56.1667069444272
 21
26.99752363949898
  0
LINE
  8
0
 10
-56.1667069444272
 20
26.99752363949898
 11
-55.90009920920108
 21
26.709126962400326
  0
LINE
  8
0
 10
-55.90009920920108
 20
26.709126962400326
 11
-55.25599998231166
 21
26.071848198634978
  0
LINE
  8
0
 10
-55.25599998231166
 20
26.071848198634978
 11
-54.66963858056596
 21
25.541251726903347
  0
LINE
  8
0
 10
-54.66963858056596
 20
25.541251726903347
 11
-54.14907119809736
 21
25.110774627259904
  0
LINE
  8
0
 10
-54.14907119809736
 20
25.110774627259904
 11
-53.70187727406747
 21
24.773355744683702
  0
LINE
  8
0
 10
-53.70187727406747
 20
24.773355744683702
 11
-53.335131448088234
 21
24.521465424469515
  0
LINE
  8
0
 10
-53.335131448088234
 20
24.521465424469515
 11
-53.05537723092289
 21
24.347136741158774
  0
LINE
  8
0
 10
-53.05537723092289
 20
24.347136741158774
 11
-52.734768669269904
 21
24.16666086058072
  0
LINE
  8
0
 10
-52.734768669269904
 20
24.16666086058072
 11
-52.42426254791205
 21
23.953857980887822
  0
LINE
  8
0
 10
-52.42426254791205
 20
23.953857980887822
 11
-52.23579098231076
 21
23.76641055449324
  0
LINE
  8
0
 10
-52.23579098231076
 20
23.76641055449324
 11
-52.16625562481395
 21
23.6146912076487
  0
LINE
  8
0
 10
-52.16625562481395
 20
23.6146912076487
 11
-53.240385218032365
 21
21.081585532914072
  0
LINE
  8
0
 10
-53.240385218032365
 20
21.081585532914072
 11
-53.397785131833864
 21
21.026095053691822
  0
LINE
  8
0
 10
-53.397785131833864
 20
21.026095053691822
 11
-53.66355078664653
 21
21.03126084736612
  0
LINE
  8
0
 10
-53.66355078664653
 20
21.03126084736612
 11
-54.03238004088162
 21
21.106521050838136
  0
LINE
  8
0
 10
-54.03238004088162
 20
21.106521050838136
 11
-54.38499502251582
 21
21.21151661265151
  0
LINE
  8
0
 10
-54.38499502251582
 20
21.21151661265151
 11
-54.704789622245706
 21
21.29141858905167
  0
LINE
  8
0
 10
-54.704789622245706
 20
21.29141858905167
 11
-55.140813271256725
 21
21.37993193151132
  0
LINE
  8
0
 10
-55.140813271256725
 20
21.37993193151132
 11
-55.69424378512793
 21
21.466814463268918
  0
LINE
  8
0
 10
-55.69424378512793
 20
21.466814463268918
 11
-56.36557542210217
 21
21.541746206882078
  0
LINE
  8
0
 10
-56.36557542210217
 20
21.541746206882078
 11
-57.15461473894232
 21
21.594370020470247
  0
LINE
  8
0
 10
-57.15461473894232
 20
21.594370020470247
 11
-58.06047871277357
 21
21.614332428638296
  0
LINE
  8
0
 10
-58.06047871277357
 20
21.614332428638296
 11
-58.45312875331273
 21
21.605485196938357
  0
LINE
  8
0
 10
-58.45312875331273
 20
21.605485196938357
 11
-58.9367121620881
 21
20.465056812216005
  0
LINE
  8
0
 10
-58.9367121620881
 20
20.465056812216005
 11
-59.263976564948976
 21
19.27034855303996
  0
LINE
  8
0
 10
-59.263976564948976
 20
19.27034855303996
 11
-58.96130812536807
 21
19.02006043201623
  0
LINE
  8
0
 10
-58.96130812536807
 20
19.02006043201623
 11
-58.23801493531341
 21
18.47431782047998
  0
LINE
  8
0
 10
-58.23801493531341
 20
18.47431782047998
 11
-57.58616376187118
 21
18.026609928039793
  0
LINE
  8
0
 10
-57.58616376187118
 20
18.026609928039793
 11
-57.012864166069285
 21
17.66935860689315
  0
LINE
  8
0
 10
-57.012864166069285
 20
17.66935860689315
 11
-56.52468679957946
 21
17.394555464889134
  0
LINE
  8
0
 10
-56.52468679957946
 20
17.394555464889134
 11
-56.12763957370723
 21
17.19379507358157
  0
LINE
  8
0
 10
-56.12763957370723
 20
17.19379507358157
 11
-55.82714572742549
 21
17.058309427871574
  0
LINE
  8
0
 10
-55.82714572742549
 20
17.058309427871574
 11
-55.48534271882088
 21
16.922176784525245
  0
LINE
  8
0
 10
-55.48534271882088
 20
16.922176784525245
 11
-55.14924324407981
 21
16.752659056587813
  0
LINE
  8
0
 10
-55.14924324407981
 20
16.752659056587813
 11
-54.93746902149831
 21
16.592004933229116
  0
LINE
  8
0
 10
-54.93746902149831
 20
16.592004933229116
 11
-54.84833188424022
 21
16.45090746014553
  0
LINE
  8
0
 10
-54.84833188424022
 20
16.45090746014553
 11
-55.57524760041442
 21
13.797235987641951
  0
LINE
  8
0
 10
-55.57524760041442
 20
13.797235987641951
 11
-55.72384695459282
 21
13.721261267591165
  0
LINE
  8
0
 10
-55.72384695459282
 20
13.721261267591165
 11
-55.98792984511331
 21
13.690957874437313
  0
LINE
  8
0
 10
-55.98792984511331
 20
13.690957874437313
 11
-56.363499419340215
 21
13.7163864395026
  0
LINE
  8
0
 10
-56.363499419340215
 20
13.7163864395026
 11
-56.72696272838585
 21
13.773446199850799
  0
LINE
  8
0
 10
-56.72696272838585
 20
13.773446199850799
 11
-57.05455384817433
 21
13.810010801377096
  0
LINE
  8
0
 10
-57.05455384817433
 20
13.810010801377096
 11
-57.49848474493866
 21
13.839618117842543
  0
LINE
  8
0
 10
-57.49848474493866
 20
13.839618117842543
 11
-58.05855757662747
 21
13.851960370976553
  0
LINE
  8
0
 10
-58.05855757662747
 20
13.851960370976553
 11
-58.733886673085784
 21
13.83674378528135
  0
LINE
  8
0
 10
-58.733886673085784
 20
13.83674378528135
 11
-59.52289984516841
 21
13.783729414057609
  0
LINE
  8
0
 10
-59.52289984516841
 20
13.783729414057609
 11
-60.42334196556965
 21
13.682773856347557
  0
LINE
  8
0
 10
-60.42334196556965
 20
13.682773856347557
 11
-60.811309360894285
 21
13.621670435746406
  0
LINE
  8
0
 10
-60.811309360894285
 20
13.621670435746406
 11
-61.13857376375522
 21
12.426962176570445
  0
LINE
  8
0
 10
-61.13857376375522
 20
12.426962176570445
 11
-61.3036791196796
 21
11.199293640128948
  0
LINE
  8
0
 10
-61.3036791196796
 20
11.199293640128948
 11
-60.97035110121853
 21
10.991580472629233
  0
LINE
  8
0
 10
-60.97035110121853
 20
10.991580472629233
 11
-60.1807711321103
 21
10.54711280315383
  0
LINE
  8
0
 10
-60.1807711321103
 20
10.54711280315383
 11
-59.475062486604266
 21
10.190282847952076
  0
LINE
  8
0
 10
-59.475062486604266
 20
10.190282847952076
 11
-58.85926122233788
 21
9.91263246359154
  0
LINE
  8
0
 10
-58.85926122233788
 20
9.91263246359154
 11
-58.338811950058265
 21
9.705348930738975
  0
LINE
  8
0
 10
-58.338811950058265
 20
9.705348930738975
 11
-57.91854864144496
 21
9.559301042277019
  0
LINE
  8
0
 10
-57.91854864144496
 20
9.559301042277019
 11
-57.602677485852546
 21
9.465076178725175
  0
LINE
  8
0
 10
-57.602677485852546
 20
9.465076178725175
 11
-57.24577951308233
 21
9.375716062856132
  0
LINE
  8
0
 10
-57.24577951308233
 20
9.375716062856132
 11
-56.89008438804715
 21
9.25250853454516
  0
LINE
  8
0
 10
-56.89008438804715
 20
9.25250853454516
 11
-56.65878662450441
 21
9.121514590859654
  0
LINE
  8
0
 10
-56.65878662450441
 20
9.121514590859654
 11
-56.551638361811115
 21
8.99355687928685
  0
LINE
  8
0
 10
-56.551638361811115
 20
8.99355687928685
 11
-56.918368372765016
 21
6.266674439307798
  0
LINE
  8
0
 10
-56.918368372765016
 20
6.266674439307798
 11
-57.05551540832463
 21
6.171571249107652
  0
LINE
  8
0
 10
-57.05551540832463
 20
6.171571249107652
 11
-57.31320296911535
 21
6.106339433894384
  0
LINE
  8
0
 10
-57.31320296911535
 20
6.106339433894384
 11
-57.68881081538459
 21
6.0814825872069385
  0
LINE
  8
0
 10
-57.68881081538459
 20
6.0814825872069385
 11
-58.056636440481135
 21
6.089588313314773
  0
LINE
  8
0
 10
-58.056636440481135
 20
6.089588313314773
 11
-58.38617820903481
 21
6.0821630437867436
  0
LINE
  8
0
 10
-58.38617820903481
 20
6.0821630437867436
 11
-58.830094396182766
 21
6.052335990994253
  0
LINE
  8
0
 10
-58.830094396182766
 20
6.052335990994253
 11
-59.386815032739335
 21
5.989917717705106
  0
LINE
  8
0
 10
-59.386815032739335
 20
5.989917717705106
 11
-60.05409032495658
 21
5.884824343033759
  0
LINE
  8
0
 10
-60.05409032495658
 20
5.884824343033759
 11
-60.8289973935338
 21
5.7271178297085275
  0
LINE
  8
0
 10
-60.8289973935338
 20
5.7271178297085275
 11
-61.70794924953458
 21
5.507045860439397
  0
LINE
  8
0
 10
-61.70794924953458
 20
5.507045860439397
 11
-62.084310712284015
 21
5.394776642925223
  0
LINE
  8
0
 10
-62.084310712284015
 20
5.394776642925223
 11
-62.24941606820843
 21
4.167108106483735
  0
LINE
  8
0
 10
-62.24941606820843
 20
4.167108106483735
 11
-62.24941606820842
 21
2.928387066893577
  0
LINE
  8
0
 10
-62.24941606820842
 20
2.928387066893577
 11
-61.89137671725333
 21
2.7669554993127377
  0
LINE
  8
0
 10
-61.89137671725333
 20
2.7669554993127377
 11
-61.04960004234576
 21
2.4316943079896047
  0
LINE
  8
0
 10
-61.04960004234576
 20
2.4316943079896047
 11
-60.30262731227352
 21
2.1721099290303227
  0
LINE
  8
0
 10
-60.30262731227352
 20
2.1721099290303227
 11
-59.655313367692074
 21
1.979015159142464
  0
LINE
  8
0
 10
-59.655313367692074
 20
1.979015159142464
 11
-59.111879619216175
 21
1.8429502149957422
  0
LINE
  8
0
 10
-59.111879619216175
 20
1.8429502149957422
 11
-58.67589983656022
 21
1.754221057408937
  0
LINE
  8
0
 10
-58.67589983656022
 20
1.754221057408937
 11
-58.3502880999118
 21
1.702938420937559
  0
LINE
  8
0
 10
-58.3502880999118
 20
1.702938420937559
 11
-57.984664015755136
 21
1.6619454659304629
  0
LINE
  8
0
 10
-57.984664015755136
 20
1.6619454659304629
 11
-57.615720628358666
 21
1.587246778507501
  0
LINE
  8
0
 10
-57.615720628358666
 20
1.587246778507501
 11
-57.36902683792467
 21
1.4882506045235568
  0
LINE
  8
0
 10
-57.36902683792467
 20
1.4882506045235568
 11
-57.24577951308231
 21
1.3757160628559273
  0
LINE
  8
0
 10
-57.24577951308231
 20
1.3757160628559273
 11
-57.245779513082454
 21
-1.3757160628561267
  0
LINE
  8
0
 10
-57.245779513082454
 20
-1.3757160628561267
 11
-57.369026837924636
 21
-1.4882506045234742
  0
LINE
  8
0
 10
-57.369026837924636
 20
-1.4882506045234742
 11
-57.61572062835856
 21
-1.587246778508308
  0
LINE
  8
0
 10
-57.61572062835856
 20
-1.587246778508308
 11
-57.984664015755136
 21
-1.6619454659304784
  0
LINE
  8
0
 10
-57.984664015755136
 20
-1.6619454659304784
 11
-58.35028809990879
 21
-1.7029384209374308
  0
LINE
  8
0
 10
-58.35028809990879
 20
-1.7029384209374308
 11
-58.67589983656083
 21
-1.7542210574091532
  0
LINE
  8
0
 10
-58.67589983656083
 20
-1.7542210574091532
 11
-59.11187961921619
 21
-1.8429502149958812
  0
LINE
  8
0
 10
-59.11187961921619
 20
-1.8429502149958812
 11
-59.6553133676922
 21
-1.9790151591426262
  0
LINE
  8
0
 10
-59.6553133676922
 20
-1.9790151591426262
 11
-60.30262731227072
 21
-2.1721099290294
  0
LINE
  8
0
 10
-60.30262731227072
 20
-2.1721099290294
 11
-61.04960004234587
 21
-2.431694307989696
  0
LINE
  8
0
 10
-61.04960004234587
 20
-2.431694307989696
 11
-61.891376717253124
 21
-2.7669554993126995
  0
LINE
  8
0
 10
-61.891376717253124
 20
-2.7669554993126995
 11
-62.24941606820845
 21
-2.928387066893642
  0
LINE
  8
0
 10
-62.24941606820845
 20
-2.928387066893642
 11
-62.249416068208454
 21
-4.167108106483742
  0
LINE
  8
0
 10
-62.249416068208454
 20
-4.167108106483742
 11
-62.08431071228403
 21
-5.394776642925235
  0
LINE
  8
0
 10
-62.08431071228403
 20
-5.394776642925235
 11
-61.7079492495348
 21
-5.507045860439331
  0
LINE
  8
0
 10
-61.7079492495348
 20
-5.507045860439331
 11
-60.828997393533676
 21
-5.727117829708548
  0
LINE
  8
0
 10
-60.828997393533676
 20
-5.727117829708548
 11
-60.05409032495949
 21
-5.884824343033165
  0
LINE
  8
0
 10
-60.05409032495949
 20
-5.884824343033165
 11
-59.3868150327392
 21
-5.9899177177051985
  0
LINE
  8
0
 10
-59.3868150327392
 20
-5.9899177177051985
 11
-58.830094396182744
 21
-6.052335990994338
  0
LINE
  8
0
 10
-58.830094396182744
 20
-6.052335990994338
 11
-58.386178209034185
 21
-6.082163043786825
  0
LINE
  8
0
 10
-58.386178209034185
 20
-6.082163043786825
 11
-58.05663644048415
 21
-6.089588313314998
  0
LINE
  8
0
 10
-58.05663644048415
 20
-6.089588313314998
 11
-57.68881081538459
 21
-6.081482587206903
  0
LINE
  8
0
 10
-57.68881081538459
 20
-6.081482587206903
 11
-57.313202969115366
 21
-6.106339433895149
  0
LINE
  8
0
 10
-57.313202969115366
 20
-6.106339433895149
 11
-57.05551540832469
 21
-6.171571249107524
  0
LINE
  8
0
 10
-57.05551540832469
 20
-6.171571249107524
 11
-56.91836837276485
 21
-6.266674439307927
  0
LINE
  8
0
 10
-56.91836837276485
 20
-6.266674439307927
 11
-56.551638361811236
 21
-8.993556879287016
  0
LINE
  8
0
 10
-56.551638361811236
 20
-8.993556879287016
 11
-56.658786624504394
 21
-9.121514590859517
  0
LINE
  8
0
 10
-56.658786624504394
 20
-9.121514590859517
 11
-56.89008438804694
 21
-9.252508534545894
  0
LINE
  8
0
 10
-56.89008438804694
 20
-9.252508534545894
 11
-57.24577951308234
 21
-9.375716062856098
  0
LINE
  8
0
 10
-57.24577951308234
 20
-9.375716062856098
 11
-57.60267748584958
 21
-9.465076178724594
  0
LINE
  8
0
 10
-57.60267748584958
 20
-9.465076178724594
 11
-57.91854864144555
 21
-9.559301042277264
  0
LINE
  8
0
 10
-57.91854864144555
 20
-9.559301042277264
 11
-58.338811950058265
 21
-9.705348930739063
  0
LINE
  8
0
 10
-58.338811950058265
 20
-9.705348930739063
 11
-58.859261222338
 21
-9.912632463591667
  0
LINE
  8
0
 10
-58.859261222338
 20
-9.912632463591667
 11
-59.47506248660162
 21
-10.190282847950737
  0
LINE
  8
0
 10
-59.47506248660162
 20
-10.190282847950737
 11
-60.18077113211042
 21
-10.547112803153883
  0
LINE
  8
0
 10
-60.18077113211042
 20
-10.547112803153883
 11
-60.97035110121834
 21
-10.991580472629114
  0
LINE
  8
0
 10
-60.97035110121834
 20
-10.991580472629114
 11
-61.30367911967964
 21
-11.19929364012896
  0
LINE
  8
0
 10
-61.30367911967964
 20
-11.19929364012896
 11
-61.13857376375523
 21
-12.426962176570452
  0
LINE
  8
0
 10
-61.13857376375523
 20
-12.426962176570452
 11
-60.81130936089426
 21
-13.621670435746463
  0
LINE
  8
0
 10
-60.81130936089426
 20
-13.621670435746463
 11
-60.42334196556986
 21
-13.682773856347577
  0
LINE
  8
0
 10
-60.42334196556986
 20
-13.682773856347577
 11
-59.522899845168276
 21
-13.783729414057666
  0
LINE
  8
0
 10
-59.522899845168276
 20
-13.783729414057666
 11
-58.73388667308874
 21
-13.8367437852812
  0
LINE
  8
0
 10
-58.73388667308874
 20
-13.8367437852812
 11
-58.058557576627315
 21
-13.851960370976675
  0
LINE
  8
0
 10
-58.058557576627315
 20
-13.851960370976675
 11
-57.49848474493861
 21
-13.839618117842676
  0
LINE
  8
0
 10
-57.49848474493861
 20
-13.839618117842676
 11
-57.05455384817369
 21
-13.810010801377143
  0
LINE
  8
0
 10
-57.05455384817369
 20
-13.810010801377143
 11
-56.7269627283888
 21
-13.773446199851474
  0
LINE
  8
0
 10
-56.7269627283888
 20
-13.773446199851474
 11
-56.36349941934021
 21
-13.716386439502614
  0
LINE
  8
0
 10
-56.36349941934021
 20
-13.716386439502614
 11
-55.98792984511321
 21
-13.690957874438123
  0
LINE
  8
0
 10
-55.98792984511321
 20
-13.690957874438123
 11
-55.72384695459289
 21
-13.721261267591093
  0
LINE
  8
0
 10
-55.72384695459289
 20
-13.721261267591093
 11
-55.57524760041423
 21
-13.797235987642107
  0
LINE
  8
0
 10
-55.57524760041423
 20
-13.797235987642107
 11
-54.8483318842403
 21
-16.45090746014576
  0
LINE
  8
0
 10
-54.8483318842403
 20
-16.45090746014576
 11
-54.937469021498295
 21
-16.59200493322903
  0
LINE
  8
0
 10
-54.937469021498295
 20
-16.59200493322903
 11
-55.14924324407949
 21
-16.752659056588563
  0
LINE
  8
0
 10
-55.14924324407949
 20
-16.752659056588563
 11
-55.48534271882089
 21
-16.92217678452526
  0
LINE
  8
0
 10
-55.48534271882089
 20
-16.92217678452526
 11
-55.82714572742261
 21
-17.05830942787065
  0
LINE
  8
0
 10
-55.82714572742261
 20
-17.05830942787065
 11
-56.12763957370777
 21
-17.193795073581942
  0
LINE
  8
0
 10
-56.12763957370777
 20
-17.193795073581942
 11
-56.524686799579435
 21
-17.39455546488927
  0
LINE
  8
0
 10
-56.524686799579435
 20
-17.39455546488927
 11
-57.01286416606937
 21
-17.66935860689334
  0
LINE
  8
0
 10
-57.01286416606937
 20
-17.66935860689334
 11
-57.58616376186872
 21
-18.026609928038162
  0
LINE
  8
0
 10
-57.58616376186872
 20
-18.026609928038162
 11
-58.23801493531351
 21
-18.4743178204801
  0
LINE
  8
0
 10
-58.23801493531351
 20
-18.4743178204801
 11
-58.96130812536788
 21
-19.02006043201614
  0
LINE
  8
0
 10
-58.96130812536788
 20
-19.02006043201614
 11
-59.263976564949054
 21
-19.270348553040048
  0
LINE
  8
0
 10
-59.263976564949054
 20
-19.270348553040048
 11
-58.93671216208814
 21
-20.46505681221602
  0
LINE
  8
0
 10
-58.93671216208814
 20
-20.46505681221602
 11
-58.45312875331267
 21
-21.60548519693837
  0
LINE
  8
0
 10
-58.45312875331267
 20
-21.60548519693837
 11
-58.060478712773794
 21
-21.614332428638313
  0
LINE
  8
0
 10
-58.060478712773794
 20
-21.614332428638313
 11
-57.154614738942186
 21
-21.594370020470258
  0
LINE
  8
0
 10
-57.154614738942186
 20
-21.594370020470258
 11
-56.365575422105124
 21
-21.541746206882298
  0
LINE
  8
0
 10
-56.365575422105124
 20
-21.541746206882298
 11
-55.69424378512775
 21
-21.466814463268992
  0
LINE
  8
0
 10
-55.69424378512775
 20
-21.466814463268992
 11
-55.140813271256675
 21
-21.37993193151142
  0
LINE
  8
0
 10
-55.140813271256675
 20
-21.37993193151142
 11
-54.704789622245066
 21
-21.291418589051606
  0
LINE
  8
0
 10
-54.704789622245066
 20
-21.291418589051606
 11
-54.38499502251866
 21
-21.211516612652552
  0
LINE
  8
0
 10
-54.38499502251866
 20
-21.211516612652552
 11
-54.03238004088162
 21
-21.10652105083813
  0
LINE
  8
0
 10
-54.03238004088162
 20
-21.10652105083813
 11
-53.66355078664633
 21
-21.031260847366884
  0
LINE
  8
0
 10
-53.66355078664633
 20
-21.031260847366884
 11
-53.39778513183394
 21
-21.026095053691737
  0
LINE
  8
0
 10
-53.39778513183394
 20
-21.026095053691737
 11
-53.240385218032166
 21
-21.08158553291418
  0
LINE
  8
0
 10
-53.240385218032166
 20
-21.08158553291418
 11
-52.16625562481401
 21
-23.61469120764892
  0
LINE
  8
0
 10
-52.16625562481401
 20
-23.61469120764892
 11
-52.23579098231077
 21
-23.766410554493127
  0
LINE
  8
0
 10
-52.23579098231077
 20
-23.766410554493127
 11
-52.424262547911646
 21
-23.953857980888497
  0
LINE
  8
0
 10
-52.424262547911646
 20
-23.953857980888497
 11
-52.73476866926992
 21
-24.166660860580716
  0
LINE
  8
0
 10
-52.73476866926992
 20
-24.166660860580716
 11
-53.05537723092017
 21
-24.347136741157453
  0
LINE
  8
0
 10
-53.05537723092017
 20
-24.347136741157453
 11
-53.335131448088724
 21
-24.521465424469934
  0
LINE
  8
0
 10
-53.335131448088724
 20
-24.521465424469934
 11
-53.701877274067435
 21
-24.773355744683812
  0
LINE
  8
0
 10
-53.701877274067435
 20
-24.773355744683812
 11
-54.149071198097424
 21
-25.11077462726008
  0
LINE
  8
0
 10
-54.149071198097424
 20
-25.11077462726008
 11
-54.66963858056375
 21
-25.54125172690138
  0
LINE
  8
0
 10
-54.66963858056375
 20
-25.54125172690138
 11
-55.25599998231175
 21
-26.071848198635085
  0
LINE
  8
0
 10
-55.25599998231175
 20
-26.071848198635085
 11
-55.900099209200924
 21
-26.709126962400187
  0
LINE
  8
0
 10
-55.900099209200924
 20
-26.709126962400187
 11
-56.166706944427204
 21
-26.99752363949903
  0
LINE
  8
0
 10
-56.166706944427204
 20
-26.99752363949903
 11
-55.68312353565184
 21
-28.137952024221423
  0
LINE
  8
0
 10
-55.68312353565184
 20
-28.137952024221423
 11
-55.05185067834791
 21
-29.203749562947536
  0
LINE
  8
0
 10
-55.05185067834791
 20
-29.203749562947536
 11
-54.661524841869976
 21
-29.160182726687015
  0
LINE
  8
0
 10
-54.661524841869976
 20
-29.160182726687015
 11
-53.76640417868169
 21
-29.019658582287487
  0
LINE
  8
0
 10
-53.76640417868169
 20
-29.019658582287487
 11
-52.99141914238874
 21
-28.862335657088185
  0
LINE
  8
0
 10
-52.99141914238874
 20
-28.862335657088185
 11
-52.33606489386145
 21
-28.698592742906047
  0
LINE
  8
0
 10
-52.33606489386145
 20
-28.698592742906047
 11
-51.79915267843902
 21
-28.538720353362397
  0
LINE
  8
0
 10
-51.79915267843902
 20
-28.538720353362397
 11
-51.378817129526944
 21
-28.392880507601422
  0
LINE
  8
0
 10
-51.378817129526944
 20
-28.392880507601422
 11
-51.07252579206721
 21
-28.271067008990737
  0
LINE
  8
0
 10
-51.07252579206721
 20
-28.271067008990737
 11
-50.73705156054263
 21
-28.120009293998713
  0
LINE
  8
0
 10
-50.73705156054263
 20
-28.120009293998713
 11
-50.381544393078606
 21
-27.996260472234614
  0
LINE
  8
0
 10
-50.381544393078606
 20
-27.996260472234614
 11
-50.11883856838038
 21
-27.95571767544186
  0
LINE
  8
0
 10
-50.11883856838038
 20
-27.95571767544186
 11
-49.95544690014615
 21
-27.989733684919408
  0
LINE
  8
0
 10
-49.95544690014615
 20
-27.989733684919408
 11
-48.55327129792136
 21
-30.357070231109216
  0
LINE
  8
0
 10
-48.55327129792136
 20
-30.357070231109216
 11
-48.60196401555502
 21
-30.51670401637562
  0
LINE
  8
0
 10
-48.60196401555502
 20
-30.51670401637562
 11
-48.76376964462244
 21
-30.7275997420421
  0
LINE
  8
0
 10
-48.76376964462244
 20
-30.7275997420421
 11
-49.043141423505936
 21
-30.979890301060323
  0
LINE
  8
0
 10
-49.043141423505936
 20
-30.979890301060323
 11
-49.336834270826714
 21
-31.20148882250397
  0
LINE
  8
0
 10
-49.336834270826714
 20
-31.20148882250397
 11
-49.59085663824578
 21
-31.411549643934006
  0
LINE
  8
0
 10
-49.59085663824578
 20
-31.411549643934006
 11
-49.92075647637859
 21
-31.710074904322823
  0
LINE
  8
0
 10
-49.92075647637859
 20
-31.710074904322823
 11
-50.3189867717801
 21
-32.10408827951811
  0
LINE
  8
0
 10
-50.3189867717801
 20
-32.10408827951811
 11
-50.7775324036408
 21
-32.60010928361459
  0
LINE
  8
0
 10
-50.7775324036408
 20
-32.60010928361459
 11
-51.28794040058667
 21
-33.20412582803192
  0
LINE
  8
0
 10
-51.28794040058667
 20
-33.20412582803192
 11
-51.841351698347815
 21
-33.92156848938929
  0
LINE
  8
0
 10
-51.841351698347815
 20
-33.92156848938929
 11
-52.06714110786811
 21
-34.24292727702801
  0
LINE
  8
0
 10
-52.06714110786811
 20
-34.24292727702801
 11
-51.43586825056424
 21
-35.3087248157541
  0
LINE
  8
0
 10
-51.43586825056424
 20
-35.3087248157541
 11
-50.66817102382551
 21
-36.28087232615619
  0
LINE
  8
0
 10
-50.66817102382551
 20
-36.28087232615619
 11
-50.287134765207455
 21
-36.185668873160374
  0
LINE
  8
0
 10
-50.287134765207455
 20
-36.185668873160374
 11
-49.41873086210289
 21
-35.92709064921527
  0
LINE
  8
0
 10
-49.41873086210289
 20
-35.92709064921527
 11
-48.67162973268645
 21
-35.66787604373186
  0
LINE
  8
0
 10
-48.67162973268645
 20
-35.66787604373186
 11
-48.043947684699816
 21
-35.41824395516361
  0
LINE
  8
0
 10
-48.043947684699816
 20
-35.41824395516361
 11
-47.53313497892994
 21
-35.18823463441274
  0
LINE
  8
0
 10
-47.53313497892994
 20
-35.18823463441274
 11
-47.13598842794566
 21
-34.987670800853216
  0
LINE
  8
0
 10
-47.13598842794566
 20
-34.987670800853216
 11
-46.84866612892575
 21
-34.82611954479941
  0
LINE
  8
0
 10
-46.84866612892575
 20
-34.82611954479941
 11
-46.536319193122715
 21
-34.63169530513245
  0
LINE
  8
0
 10
-46.536319193122715
 20
-34.63169530513245
 11
-46.20047814625549
 21
-34.46166616573154
  0
LINE
  8
0
 10
-46.20047814625549
 20
-34.46166616573154
 11
-45.945520143336786
 21
-34.38646985299043
  0
LINE
  8
0
 10
-45.945520143336786
 20
-34.38646985299043
 11
-45.77905244886056
 21
-34.39840437622809
  0
LINE
  8
0
 10
-45.77905244886056
 20
-34.39840437622809
 11
-44.073852694468975
 21
-36.55772661712297
  0
LINE
  8
0
 10
-44.073852694468975
 20
-36.55772661712297
 11
-44.100833849539825
 21
-36.722426172131705
  0
LINE
  8
0
 10
-44.100833849539825
 20
-36.722426172131705
 11
-44.23308611678984
 21
-36.95300675784855
  0
LINE
  8
0
 10
-44.23308611678984
 20
-36.95300675784855
 11
-44.476338157185936
 21
-37.24028286519024
  0
LINE
  8
0
 10
-44.476338157185936
 20
-37.24028286519024
 11
-44.737874334359084
 21
-37.499049596635864
  0
LINE
  8
0
 10
-44.737874334359084
 20
-37.499049596635864
 11
-44.96163181686419
 21
-37.741094015848596
  0
LINE
  8
0
 10
-44.96163181686419
 20
-37.741094015848596
 11
-45.24879859672413
 21
-38.08092702606852
  0
LINE
  8
0
 10
-45.24879859672413
 20
-38.08092702606852
 11
-45.59095883444145
 21
-38.52450371586813
  0
LINE
  8
0
 10
-45.59095883444145
 20
-38.52450371586813
 11
-45.97929995803284
 21
-39.07721711785075
  0
LINE
  8
0
 10
-45.97929995803284
 20
-39.07721711785075
 11
-46.404646307379295
 21
-39.74387504540714
  0
LINE
  8
0
 10
-46.404646307379295
 20
-39.74387504540714
 11
-46.857494038293304
 21
-40.52867882306831
  0
LINE
  8
0
 10
-46.857494038293304
 20
-40.52867882306831
 11
-47.03843590474564
 21
-40.87726506606837
  0
LINE
  8
0
 10
-47.03843590474564
 20
-40.87726506606837
 11
-46.27073867800696
 21
-41.84941257647042
  0
LINE
  8
0
 10
-46.27073867800696
 20
-41.84941257647042
 11
-45.38031665703163
 21
-42.71056206319473
  0
LINE
  8
0
 10
-45.38031665703163
 20
-42.71056206319473
 11
-45.01536957733548
 21
-42.56542090133778
  0
LINE
  8
0
 10
-45.01536957733548
 20
-42.56542090133778
 11
-44.18917912253839
 21
-42.19340293237923
  0
LINE
  8
0
 10
-44.18917912253839
 20
-42.19340293237923
 11
-43.483293937352045
 21
-41.83692233738748
  0
LINE
  8
0
 10
-43.483293937352045
 20
-41.83692233738748
 11
-42.894485090922466
 21
-41.5058557649675
  0
LINE
  8
0
 10
-42.894485090922466
 20
-41.5058557649675
 11
-42.41888735964098
 21
-41.209814034787236
  0
LINE
  8
0
 10
-42.41888735964098
 20
-41.209814034787236
 11
-42.0520168961954
 21
-40.95810527979048
  0
LINE
  8
0
 10
-42.0520168961954
 20
-40.95810527979048
 11
-41.7887909088481
 21
-40.75969915228507
  0
LINE
  8
0
 10
-41.7887909088481
 20
-40.75969915228507
 11
-41.50514510723566
 21
-40.525377893106025
  0
LINE
  8
0
 10
-41.50514510723566
 20
-40.525377893106025
 11
-41.19496327240279
 21
-40.31210261008897
  0
LINE
  8
0
 10
-41.19496327240279
 20
-40.31210261008897
 11
-40.95230282286576
 21
-40.20359466138179
  0
LINE
  8
0
 10
-40.95230282286576
 20
-40.20359466138179
 11
-40.785729722099155
 21
-40.19323472652968
  0
LINE
  8
0
 10
-40.785729722099155
 20
-40.19323472652968
 11
-38.807935145554836
 21
-42.10600950558555
  0
LINE
  8
0
 10
-38.807935145554836
 20
-42.10600950558555
 11
-38.812723258711436
 21
-42.27283576287568
  0
LINE
  8
0
 10
-38.812723258711436
 20
-42.27283576287568
 11
-38.91306211930186
 21
-42.51898649262822
  0
LINE
  8
0
 10
-38.91306211930186
 20
-42.51898649262822
 11
-39.11585358278694
 21
-42.83612169935216
  0
LINE
  8
0
 10
-39.11585358278694
 20
-42.83612169935216
 11
-39.3405659705349
 21
-43.12743894234682
  0
LINE
  8
0
 10
-39.3405659705349
 20
-43.12743894234682
 11
-39.530065610549805
 21
-43.39714767094727
  0
LINE
  8
0
 10
-39.530065610549805
 20
-43.39714767094727
 11
-39.76937483414717
 21
-43.77222410288013
  0
LINE
  8
0
 10
-39.76937483414717
 20
-43.77222410288013
 11
-40.04935915663234
 21
-44.25744847074605
  0
LINE
  8
0
 10
-40.04935915663234
 20
-44.25744847074605
 11
-40.36056581540395
 21
-44.856991086862394
  0
LINE
  8
0
 10
-40.36056581540395
 20
-44.856991086862394
 11
-40.69326020147025
 21
-45.57439387104719
  0
LINE
  8
0
 10
-40.69326020147025
 20
-45.57439387104719
 11
-41.0374632870508
 21
-46.41255392300746
  0
LINE
  8
0
 10
-41.0374632870508
 20
-46.41255392300746
 11
-41.17032869854178
 21
-46.78214709160434
  0
LINE
  8
0
 10
-41.17032869854178
 20
-46.78214709160434
 11
-40.279906677566494
 21
-47.64329657832867
  0
LINE
  8
0
 10
-40.279906677566494
 20
-47.64329657832867
 11
-39.28264946441339
 21
-48.378080808383594
  0
LINE
  8
0
 10
-39.28264946441339
 20
-48.378080808383594
 11
-38.94030405292202
 21
-48.185591985137314
  0
LINE
  8
0
 10
-38.94030405292202
 20
-48.185591985137314
 11
-38.1710704346711
 21
-47.70677294063464
  0
LINE
  8
0
 10
-38.1710704346711
 20
-47.70677294063464
 11
-37.518997731567225
 21
-47.259387760797345
  0
LINE
  8
0
 10
-37.518997731567225
 20
-47.259387760797345
 11
-36.97956939450838
 21
-46.8527945953536
  0
LINE
  8
0
 10
-36.97956939450838
 20
-46.8527945953536
 11
-36.54767369049713
 21
-46.49600332743236
  0
LINE
  8
0
 10
-36.54767369049713
 20
-46.49600332743236
 11
-36.21762612670173
 21
-46.19764139969438
  0
LINE
  8
0
 10
-36.21762612670173
 20
-46.19764139969438
 11
-35.98319372500721
 21
-45.96592096278303
  0
LINE
  8
0
 10
-35.98319372500721
 20
-45.96592096278303
 11
-35.73331072363484
 21
-45.69588415251311
  0
LINE
  8
0
 10
-35.73331072363484
 20
-45.69588415251311
 11
-35.45432330302725
 21
-45.44316862835795
  0
LINE
  8
0
 10
-35.45432330302725
 20
-45.44316862835795
 11
-35.22829068834262
 21
-45.30328537059999
  0
LINE
  8
0
 10
-35.22829068834262
 20
-45.30328537059999
 11
-35.064584682215006
 21
-45.270815850940956
  0
LINE
  8
0
 10
-35.064584682215006
 20
-45.270815850940956
 11
-32.849489074591204
 21
-46.90290965691109
  0
LINE
  8
0
 10
-32.849489074591204
 20
-46.90290965691109
 11
-32.83199870184085
 21
-47.06888559796909
  0
LINE
  8
0
 10
-32.83199870184085
 20
-47.06888559796909
 11
-32.89863360642737
 21
-47.32621390615348
  0
LINE
  8
0
 10
-32.89863360642737
 20
-47.32621390615348
 11
-33.05734567453133
 21
-47.667548926982604
  0
LINE
  8
0
 10
-33.05734567453133
 20
-47.667548926982604
 11
-33.24122427497119
 21
-47.98621811842363
  0
LINE
  8
0
 10
-33.24122427497119
 20
-47.98621811842363
 11
-33.393084446930516
 21
-48.27877819776039
  0
LINE
  8
0
 10
-33.393084446930516
 20
-48.27877819776039
 11
-33.58026563550087
 21
-48.682404803592625
  0
LINE
  8
0
 10
-33.58026563550087
 20
-48.682404803592625
 11
-33.79307771588618
 21
-49.200618009185106
  0
LINE
  8
0
 10
-33.79307771588618
 20
-49.200618009185106
 11
-34.021596419639614
 21
-49.83629098724715
  0
LINE
  8
0
 10
-34.021596419639614
 20
-49.83629098724715
 11
-34.25570190322473
 21
-50.591636558381
  0
LINE
  8
0
 10
-34.25570190322473
 20
-50.591636558381
 11
-34.48511803125532
 21
-51.46819589865675
  0
LINE
  8
0
 10
-34.48511803125532
 20
-51.46819589865675
 11
-34.567536001369184
 21
-51.85220059400099
  0
LINE
  8
0
 10
-34.567536001369184
 20
-51.85220059400099
 11
-33.57027878821613
 21
-52.586984824055946
  0
LINE
  8
0
 10
-33.57027878821613
 20
-52.586984824055946
 11
-32.483982461479464
 21
-53.182291555448884
  0
LINE
  8
0
 10
-32.483982461479464
 20
-53.182291555448884
 11
-32.17034788017125
 21
-52.94589003842418
  0
LINE
  8
0
 10
-32.17034788017125
 20
-52.94589003842418
 11
-31.47179809060765
 21
-52.36881445556999
  0
LINE
  8
0
 10
-31.47179809060765
 20
-52.36881445556999
 11
-30.885174122421027
 21
-51.83850829002011
  0
LINE
  8
0
 10
-30.885174122421027
 20
-51.83850829002011
 11
-30.40475240618702
 21
-51.3636441962223
  0
LINE
  8
0
 10
-30.40475240618702
 20
-51.3636441962223
 11
-30.024265918515876
 21
-50.952470339188686
  0
LINE
  8
0
 10
-30.024265918515876
 20
-50.952470339188686
 11
-29.736930960965584
 21
-50.61277951437829
  0
LINE
  8
0
 10
-29.736930960965584
 20
-50.61277951437829
 11
-29.53547559668588
 21
-50.35187982474723
  0
LINE
  8
0
 10
-29.53547559668588
 20
-50.35187982474723
 11
-29.323814563632894
 21
-50.050946276663005
  0
LINE
  8
0
 10
-29.323814563632894
 20
-50.050946276663005
 11
-29.08100009438068
 21
-49.763300225885224
  0
LINE
  8
0
 10
-29.08100009438068
 20
-49.763300225885224
 11
-28.875628871912298
 21
-49.59453787912506
  0
LINE
  8
0
 10
-28.875628871912298
 20
-49.59453787912506
 11
-28.717711297981293
 21
-49.54053819400664
  0
LINE
  8
0
 10
-28.717711297981293
 20
-49.54053819400664
 11
-26.304843092872648
 21
-50.8628262742585
  0
LINE
  8
0
 10
-26.304843092872648
 20
-50.8628262742585
 11
-26.26538635033142
 21
-51.02499005448414
  0
LINE
  8
0
 10
-26.26538635033142
 20
-51.02499005448414
 11
-26.29712819746307
 21
-51.2889039113446
  0
LINE
  8
0
 10
-26.29712819746307
 20
-51.2889039113446
 11
-26.408928649570637
 21
-51.64834761474584
  0
LINE
  8
0
 10
-26.408928649570637
 20
-51.64834761474584
 11
-26.548692144721397
 21
-51.98868209536254
  0
LINE
  8
0
 10
-26.548692144721397
 20
-51.98868209536254
 11
-26.66020290025889
 21
-52.29887278388898
  0
LINE
  8
0
 10
-26.66020290025889
 20
-52.29887278388898
 11
-26.791915801057794
 21
-52.72384683727743
  0
LINE
  8
0
 10
-26.791915801057794
 20
-52.72384683727743
 11
-26.933758002727142
 21
-53.26580135366597
  0
LINE
  8
0
 10
-26.933758002727142
 20
-53.26580135366597
 11
-27.07551082978021
 21
-53.926261094320836
  0
LINE
  8
0
 10
-27.07551082978021
 20
-53.926261094320836
 11
-27.20684979298352
 21
-54.70607029279237
  0
LINE
  8
0
 10
-27.20684979298352
 20
-54.70607029279237
 11
-27.317385027224457
 21
-55.60538669919031
  0
LINE
  8
0
 10
-27.317385027224457
 20
-55.60538669919031
 11
-27.347884805332086
 21
-55.99695034839636
  0
LINE
  8
0
 10
-27.347884805332086
 20
-55.99695034839636
 11
-26.26158847859544
 21
-56.59225707978927
  0
LINE
  8
0
 10
-26.26158847859544
 20
-56.59225707978927
 11
-25.105638021960576
 21
-57.037463049795285
  0
LINE
  8
0
 10
-25.105638021960576
 20
-57.037463049795285
 11
-24.82631108736912
 21
-56.76136742966396
  0
LINE
  8
0
 10
-24.82631108736912
 20
-56.76136742966396
 11
-24.210910764036566
 21
-56.09633323590545
  0
LINE
  8
0
 10
-24.210910764036566
 20
-56.09633323590545
 11
-23.700203849376873
 21
-55.49256941073039
  0
LINE
  8
0
 10
-23.700203849376873
 20
-55.49256941073039
 11
-23.287361890875296
 21
-54.9579083495821
  0
LINE
  8
0
 10
-23.287361890875296
 20
-54.9579083495821
 11
-22.96507440993065
 21
-54.499689310655754
  0
LINE
  8
0
 10
-22.96507440993065
 20
-54.499689310655754
 11
-22.72557955775003
 21
-54.12473137958911
  0
LINE
  8
0
 10
-22.72557955775003
 20
-54.12473137958911
 11
-22.560696206633285
 21
-53.83930819838064
  0
LINE
  8
0
 10
-22.560696206633285
 20
-53.83930819838064
 11
-22.391034238048857
 21
-53.51284807877692
  0
LINE
  8
0
 10
-22.391034238048857
 20
-53.51284807877692
 11
-22.1887257501082
 21
-53.19540455196711
  0
LINE
  8
0
 10
-22.1887257501082
 20
-53.19540455196711
 11
-22.00768077418636
 21
-53.00077468428074
  0
LINE
  8
0
 10
-22.00768077418636
 20
-53.00077468428074
 11
-21.858369675299894
 21
-52.92620845936315
  0
LINE
  8
0
 10
-21.858369675299894
 20
-52.92620845936315
 11
-19.29078656298848
 21
-53.915094551779035
  0
LINE
  8
0
 10
-19.29078656298848
 20
-53.915094551779035
 11
-19.230067557161764
 21
-54.07055235467246
  0
LINE
  8
0
 10
-19.230067557161764
 20
-54.07055235467246
 11
-19.226349912824517
 21
-54.33634221118108
  0
LINE
  8
0
 10
-19.226349912824517
 20
-54.33634221118108
 11
-19.289243667219225
 21
-54.70748031575187
  0
LINE
  8
0
 10
-19.289243667219225
 20
-54.70748031575187
 11
-19.382397974198852
 21
-55.063406808674976
  0
LINE
  8
0
 10
-19.382397974198852
 20
-55.063406808674976
 11
-19.451569401240214
 21
-55.385692746205784
  0
LINE
  8
0
 10
-19.451569401240214
 20
-55.385692746205784
 11
-19.52546359443257
 21
-55.82443057509989
  0
LINE
  8
0
 10
-19.52546359443257
 20
-55.82443057509989
 11
-19.59380473993688
 21
-56.38045521110041
  0
LINE
  8
0
 10
-19.59380473993688
 20
-56.38045521110041
 11
-19.646262107732625
 21
-57.05391579462952
  0
LINE
  8
0
 10
-19.646262107732625
 20
-57.05391579462952
 11
-19.672490803644273
 21
-57.844272906818
  0
LINE
  8
0
 10
-19.672490803644273
 20
-57.844272906818
 11
-19.662172640221915
 21
-58.75029805676076
  0
LINE
  8
0
 10
-19.662172640221915
 20
-58.75029805676076
 11
-19.640209957060392
 21
-59.14243319723217
  0
LINE
  8
0
 10
-19.640209957060392
 20
-59.14243319723217
 11
-18.484259500425587
 21
-59.587639167238244
  0
LINE
  8
0
 10
-18.484259500425587
 20
-59.587639167238244
 11
-17.279282877176207
 21
-59.874799664775516
  0
LINE
  8
0
 10
-17.279282877176207
 20
-59.874799664775516
 11
-17.03924818506667
 21
-59.56393687441963
  0
LINE
  8
0
 10
-17.03924818506667
 20
-59.56393687441963
 11
-16.51797916131413
 21
-58.82281162069936
  0
LINE
  8
0
 10
-16.51797916131413
 20
-58.82281162069936
 11
-16.09230287717233
 21
-58.15636431566282
  0
LINE
  8
0
 10
-16.09230287717233
 20
-58.15636431566282
 11
-15.754407850933061
 21
-57.571447326466576
  0
LINE
  8
0
 10
-15.754407850933061
 20
-57.571447326466576
 11
-15.496070604447503
 21
-57.07436003525257
  0
LINE
  8
0
 10
-15.496070604447503
 20
-57.07436003525257
 11
-15.308689648947453
 21
-56.67082613109247
  0
LINE
  8
0
 10
-15.308689648947453
 20
-56.67082613109247
 11
-15.183320658300502
 21
-56.365972841737054
  0
LINE
  8
0
 10
-15.183320658300502
 20
-56.365972841737054
 11
-15.058685376033395
 21
-56.019811839182154
  0
LINE
  8
0
 10
-15.058685376033395
 20
-56.019811839182154
 11
-14.900493069164373
 21
-55.678235623596606
  0
LINE
  8
0
 10
-14.900493069164373
 20
-55.678235623596606
 11
-14.747005091673422
 21
-55.46121140958376
  0
LINE
  8
0
 10
-14.747005091673422
 20
-55.46121140958376
 11
-14.608964927928383
 21
-55.36740928091717
  0
LINE
  8
0
 10
-14.608964927928383
 20
-55.36740928091717
 11
-11.932485489880563
 21
-56.00524668975078
  0
LINE
  8
0
 10
-11.932485489880563
 20
-56.00524668975078
 11
-11.851587752865807
 21
-56.15122436713649
  0
LINE
  8
0
 10
-11.851587752865807
 20
-56.15122436713649
 11
-11.812476958510928
 21
-56.414147197007196
  0
LINE
  8
0
 10
-11.812476958510928
 20
-56.414147197007196
 11
-11.825341674655622
 21
-56.79035673447903
  0
LINE
  8
0
 10
-11.825341674655622
 20
-56.79035673447903
 11
-11.870224452649204
 21
-57.155523723010276
  0
LINE
  8
0
 10
-11.870224452649204
 20
-57.155523723010276
 11
-11.895822185440172
 21
-57.48415370935512
  0
LINE
  8
0
 10
-11.895822185440172
 20
-57.48415370935512
 11
-11.910579027397878
 21
-57.92882602680438
  0
LINE
  8
0
 10
-11.910579027397878
 20
-57.92882602680438
 11
-11.904199567376583
 21
-58.48899850961499
  0
LINE
  8
0
 10
-11.904199567376583
 20
-58.48899850961499
 11
-11.866425372943965
 21
-59.16344201595068
  0
LINE
  8
0
 10
-11.866425372943965
 20
-59.16344201595068
 11
-11.78707574986404
 21
-59.950243100465194
  0
LINE
  8
0
 10
-11.78707574986404
 20
-59.950243100465194
 11
-11.656088316649097
 21
-60.8468089536879
  0
LINE
  8
0
 10
-11.656088316649097
 20
-60.8468089536879
 11
-11.582055096819717
 21
-61.23251792455306
  0
LINE
  8
0
 10
-11.582055096819717
 20
-61.23251792455306
 11
-10.37707847357039
 21
-61.519678422090394
  0
LINE
  8
0
 10
-10.37707847357039
 20
-61.519678422090394
 11
-9.14457852009481
 21
-61.64366906127748
  0
LINE
  8
0
 10
-9.14457852009481
 20
-61.64366906127748
 11
-8.948119495234417
 21
-61.30358645455541
  0
LINE
  8
0
 10
-8.948119495234417
 20
-61.30358645455541
 11
-8.53028382913985
 21
-60.49959553858361
  0
LINE
  8
0
 10
-8.53028382913985
 20
-60.49959553858361
 11
-8.197234378890917
 21
-59.7823575216324
  0
LINE
  8
0
 10
-8.197234378890917
 20
-59.7823575216324
 11
-7.940316029662074
 21
-59.15762246191734
  0
LINE
  8
0
 10
-7.940316029662074
 20
-59.15762246191734
 11
-7.750539051919256
 21
-58.630537452903596
  0
LINE
  8
0
 10
-7.750539051919256
 20
-58.630537452903596
 11
-7.618615810689821
 21
-58.20562864772969
  0
LINE
  8
0
 10
-7.618615810689821
 20
-58.20562864772969
 11
-7.534998393120805
 21
-57.88678536439799
  0
LINE
  8
0
 10
-7.534998393120805
 20
-57.88678536439799
 11
-7.457613916735735
 21
-57.52710073018321
  0
LINE
  8
0
 10
-7.457613916735735
 20
-57.52710073018321
 11
-7.34636073640207
 21
-57.16748726148113
  0
LINE
  8
0
 10
-7.34636073640207
 20
-57.16748726148113
 11
-7.223168753936542
 21
-56.93194150338227
  0
LINE
  8
0
 10
-7.223168753936542
 20
-56.93194150338227
 11
-7.098862855325181
 21
-56.82057737217493
  0
LINE
  8
0
 10
-7.098862855325181
 20
-56.82057737217493
 11
-4.361248930519897
 21
-57.095983873754996
  0
LINE
  8
0
 10
-4.361248930519897
 20
-57.095983873754996
 11
-4.261616084350633
 21
-57.229876450521765
  0
LINE
  8
0
 10
-4.261616084350633
 20
-57.229876450521765
 11
-4.187810073029935
 21
-57.48524038962676
  0
LINE
  8
0
 10
-4.187810073029935
 20
-57.48524038962676
 11
-4.150416179760243
 21
-57.859807891890895
  0
LINE
  8
0
 10
-4.150416179760243
 20
-57.859807891890895
 11
-4.1462264945311915
 21
-58.22769896246896
  0
LINE
  8
0
 10
-4.1462264945311915
 20
-58.22769896246896
 11
-4.127793740923689
 21
-58.55680858773613
  0
LINE
  8
0
 10
-4.127793740923689
 20
-58.55680858773613
 11
-4.083149895452415
 21
-58.99948020570118
  0
LINE
  8
0
 10
-4.083149895452415
 20
-58.99948020570118
 11
-4.002163671520731
 21
-59.553804244095375
  0
LINE
  8
0
 10
-4.002163671520731
 20
-59.553804244095375
 11
-3.874831996254281
 21
-60.21719521288924
  0
LINE
  8
0
 10
-3.874831996254281
 20
-60.21719521288924
 11
-3.691320050086474
 21
-60.98639978573696
  0
LINE
  8
0
 10
-3.691320050086474
 20
-60.98639978573696
 11
-3.442000820927817
 21
-61.85750710334882
  0
LINE
  8
0
 10
-3.442000820927817
 20
-61.85750710334882
 11
-3.317218188992333
 21
-62.22990691888502
  0
LINE
  8
0
 10
-3.317218188992333
 20
-62.22990691888502
 11
-2.084718235516787
 21
-62.35389755807211
  0
LINE
  8
0
 10
-2.084718235516787
 20
-62.35389755807211
 11
-0.8466889426832345
 21
-62.31250572301527
  0
LINE
  8
0
 10
-0.8466889426832345
 20
-62.31250572301527
 11
-0.6973114010248211
 21
-61.94927208210073
  0
LINE
  8
0
 10
-0.6973114010248211
 20
-61.94927208210073
 11
-0.39036537994839354
 21
-61.09676274081983
  0
LINE
  8
0
 10
-0.39036537994839354
 20
-61.09676274081983
 11
-0.15588603892210603
 21
-60.3415331413581
  0
LINE
  8
0
 10
-0.15588603892210603
 20
-60.3415331413581
 11
0.015470919267813623
 21
-59.68812842306511
  0
LINE
  8
0
 10
0.015470919267813623
 20
-59.68812842306511
 11
0.13330105360416683
 21
-59.14045154072435
  0
LINE
  8
0
 10
0.13330105360416683
 20
-59.14045154072435
 11
0.207412407197932
 21
-58.70175034223122
  0
LINE
  8
0
 10
0.207412407197932
 20
-58.70175034223122
 11
0.2477860968915602
 21
-58.37460683086783
  0
LINE
  8
0
 10
0.2477860968915602
 20
-58.37460683086783
 11
0.27653883958022885
 21
-58.00781714581181
  0
LINE
  8
0
 10
0.27653883958022885
 20
-58.00781714581181
 11
0.33886757773984577
 21
-57.63658373486161
  0
LINE
  8
0
 10
0.33886757773984577
 20
-57.63658373486161
 11
0.4295652013343831
 21
-57.386719752310185
  0
LINE
  8
0
 10
0.4295652013343831
 20
-57.386719752310185
 11
0.5379185931064816
 21
-57.25978091412178
  0
LINE
  8
0
 10
0.5379185931064816
 20
-57.25978091412178
 11
3.2878142193258
 21
-57.16784187290307
  0
LINE
  8
0
 10
3.2878142193258
 20
-57.16784187290307
 11
3.4044042241493395
 21
-57.28726003284653
  0
LINE
  8
0
 10
3.4044042241493395
 20
-57.28726003284653
 11
3.51158838241534
 21
-57.5305081056428
  0
LINE
  8
0
 10
3.51158838241534
 20
-57.5305081056428
 11
3.5985735901881424
 21
-57.89674940674766
  0
LINE
  8
0
 10
3.5985735901881424
 20
-57.89674940674766
 11
3.6517609736076597
 21
-58.260799534502596
  0
LINE
  8
0
 10
3.6517609736076597
 20
-58.260799534502596
 11
3.713895280688826
 21
-58.58451582963244
  0
LINE
  8
0
 10
3.713895280688826
 20
-58.58451582963244
 11
3.8171431431090133
 21
-59.01728726260361
  0
LINE
  8
0
 10
3.8171431431090133
 20
-59.01728726260361
 11
3.9712909298664254
 21
-59.555870930984064
  0
LINE
  8
0
 10
3.9712909298664254
 20
-59.555870930984064
 11
4.1859078492050354
 21
-60.19637113468194
  0
LINE
  8
0
 10
4.1859078492050354
 20
-60.19637113468194
 11
4.4703073434338805
 21
-60.934252722037606
  0
LINE
  8
0
 10
4.4703073434338805
 20
-60.934252722037606
 11
4.8335092609854335
 21
-61.764356573318935
  0
LINE
  8
0
 10
4.8335092609854335
 20
-61.764356573318935
 11
5.00681455600397
 21
-62.11680174999566
  0
LINE
  8
0
 10
5.00681455600397
 20
-62.11680174999566
 11
6.244843848837493
 21
-62.07540991493884
  0
LINE
  8
0
 10
6.244843848837493
 20
-62.07540991493884
 11
7.466309818968949
 21
-61.86937424391523
  0
LINE
  8
0
 10
7.466309818968949
 20
-61.86937424391523
 11
7.5659402316556745
 21
-61.48947148173546
  0
LINE
  8
0
 10
7.5659402316556745
 20
-61.48947148173546
 11
7.756519148696168
 21
-60.60365676453692
  0
LINE
  8
0
 10
7.756519148696168
 20
-60.60365676453692
 11
7.888244091104276
 21
-59.823912672658814
  0
LINE
  8
0
 10
7.888244091104276
 20
-59.823912672658814
 11
7.970981789276852
 21
-59.153498318465275
  0
LINE
  8
0
 10
7.970981789276852
 20
-59.153498318465275
 11
8.014762398668061
 21
-58.59500286973756
  0
LINE
  8
0
 10
8.014762398668061
 20
-58.59500286973756
 11
8.029739345765545
 21
-58.150337911205376
  0
LINE
  8
0
 10
8.029739345765545
 20
-58.150337911205376
 11
8.026148838134734
 21
-57.820732055520736
  0
LINE
  8
0
 10
8.026148838134734
 20
-57.820732055520736
 11
8.005756753752554
 21
-57.453382690242705
  0
LINE
  8
0
 10
8.005756753752554
 20
-57.453382690242705
 11
8.01804879192907
 21
-57.07715400605747
  0
LINE
  8
0
 10
8.01804879192907
 20
-57.07715400605747
 11
8.074633555410905
 21
-56.8174306277415
  0
LINE
  8
0
 10
8.074633555410905
 20
-56.8174306277415
 11
8.16510087150063
 21
-56.677182309146716
  0
LINE
  8
0
 10
8.16510087150063
 20
-56.677182309146716
 11
10.878206246537863
 21
-56.219538379497884
  0
LINE
  8
0
 10
10.878206246537863
 20
-56.219538379497884
 11
11.009672858617533
 21
-56.32235110272477
  0
LINE
  8
0
 10
11.009672858617533
 20
-56.32235110272477
 11
11.148322459985339
 21
-56.54914254159061
  0
LINE
  8
0
 10
11.148322459985339
 20
-56.54914254159061
 11
11.283346729167828
 21
-56.90052205684157
  0
LINE
  8
0
 10
11.283346729167828
 20
-56.90052205684157
 11
11.384582680660658
 21
-57.25423475861906
  0
LINE
  8
0
 10
11.384582680660658
 20
-57.25423475861906
 11
11.489309753033634
 21
-57.566780998656014
  0
LINE
  8
0
 10
11.489309753033634
 20
-57.566780998656014
 11
11.649319171851861
 21
-57.98192943015939
  0
LINE
  8
0
 10
11.649319171851861
 20
-57.98192943015939
 11
11.873877750528488
 21
-58.495161690204576
  0
LINE
  8
0
 10
11.873877750528488
 20
-58.495161690204576
 11
12.171950069929288
 21
-59.101341387497754
  0
LINE
  8
0
 10
12.171950069929288
 20
-59.101341387497754
 11
12.55216199650711
 21
-59.79473247495426
  0
LINE
  8
0
 10
12.55216199650711
 20
-59.79473247495426
 11
13.022765255628439
 21
-60.5690196370134
  0
LINE
  8
0
 10
13.022765255628439
 20
-60.5690196370134
 11
13.241500576634742
 21
-60.89522078230323
  0
LINE
  8
0
 10
13.241500576634742
 20
-60.89522078230323
 11
14.462966546766175
 21
-60.689185111279656
  0
LINE
  8
0
 10
14.462966546766175
 20
-60.689185111279656
 11
15.646072105021466
 21
-60.322182315719814
  0
LINE
  8
0
 10
15.646072105021466
 20
-60.322182315719814
 11
15.694177481661825
 21
-59.932389806066
  0
LINE
  8
0
 10
15.694177481661825
 20
-59.932389806066
 11
15.764988409376897
 21
-59.02907709756357
  0
LINE
  8
0
 10
15.764988409376897
 20
-59.02907709756357
 11
15.791608318448935
 21
-58.23873306506112
  0
LINE
  8
0
 10
15.791608318448935
 20
-58.23873306506112
 11
15.784250300420185
 21
-57.56327263500002
  0
LINE
  8
0
 10
15.784250300420185
 20
-57.56327263500002
 11
15.753200118854483
 21
-57.00392498439893
  0
LINE
  8
0
 10
15.753200118854483
 20
-57.00392498439893
 11
15.708775395479918
 21
-56.56123132254697
  0
LINE
  8
0
 10
15.708775395479918
 20
-56.56123132254697
 11
15.661284763218397
 21
-56.23504494684429
  0
LINE
  8
0
 10
15.661284763218397
 20
-56.23504494684429
 11
15.592111748994272
 21
-55.87369125947032
  0
LINE
  8
0
 10
15.592111748994272
 20
-55.87369125947032
 11
15.554147735475219
 21
-55.49918111183235
  0
LINE
  8
0
 10
15.554147735475219
 20
-55.49918111183235
 11
15.575609882399501
 21
-55.234233107590846
  0
LINE
  8
0
 10
15.575609882399501
 20
-55.234233107590846
 11
15.646576731408022
 21
-55.08317804315756
  0
LINE
  8
0
 10
15.646576731408022
 20
-55.08317804315756
 11
18.274476425570967
 21
-54.26799589184496
  0
LINE
  8
0
 10
18.274476425570967
 20
-54.26799589184496
 11
18.418473620099707
 21
-54.352368482873615
  0
LINE
  8
0
 10
18.418473620099707
 20
-54.352368482873615
 11
18.586114459148238
 21
-54.55865618920968
  0
LINE
  8
0
 10
18.586114459148238
 20
-54.55865618920968
 11
18.76676827845807
 21
-54.888903542832736
  0
LINE
  8
0
 10
18.76676827845807
 20
-54.888903542832736
 11
18.9142462400715
 21
-55.22596680708997
  0
LINE
  8
0
 10
18.9142462400715
 20
-55.22596680708997
 11
19.059697220648758
 21
-55.52176559697621
  0
LINE
  8
0
 10
19.059697220648758
 20
-55.52176559697621
 11
19.273612823995517
 21
-55.911882693416565
  0
LINE
  8
0
 10
19.273612823995517
 20
-55.911882693416565
 11
19.56457494143498
 21
-56.39060490328728
  0
LINE
  8
0
 10
19.56457494143498
 20
-56.39060490328728
 11
19.940783553296804
 21
-56.95164680311689
  0
LINE
  8
0
 10
19.940783553296804
 20
-56.95164680311689
 11
20.410023021386433
 21
-57.58817381029184
  0
LINE
  8
0
 10
20.410023021386433
 20
-57.58817381029184
 11
20.97962969576972
 21
-58.292827110378646
  0
LINE
  8
0
 10
20.97962969576972
 20
-58.292827110378646
 11
21.239891705778504
 21
-58.586963157116095
  0
LINE
  8
0
 10
21.239891705778504
 20
-58.586963157116095
 11
22.422997264033782
 21
-58.21996036155628
  0
LINE
  8
0
 10
22.422997264033782
 20
-58.21996036155628
 11
23.546629863697568
 21
-57.69853961504139
  0
LINE
  8
0
 10
23.546629863697568
 20
-57.69853961504139
 11
23.542351762705753
 21
-57.305813214482605
  0
LINE
  8
0
 10
23.542351762705753
 20
-57.305813214482605
 11
23.492131078412786
 21
-56.4011221513594
  0
LINE
  8
0
 10
23.492131078412786
 20
-56.4011221513594
 11
23.413170921240724
 21
-55.61428188621621
  0
LINE
  8
0
 10
23.413170921240724
 20
-55.61428188621621
 11
23.315848491016684
 21
-54.94582898766395
  0
LINE
  8
0
 10
23.315848491016684
 20
-54.94582898766395
 11
23.210521609719702
 21
-54.39561070726564
  0
LINE
  8
0
 10
23.210521609719702
 20
-54.39561070726564
 11
23.107487976114154
 21
-53.962788220977274
  0
LINE
  8
0
 10
23.107487976114154
 20
-53.962788220977274
 11
23.016944690679704
 21
-53.64584212885847
  0
LINE
  8
0
 10
23.016944690679704
 20
-53.64584212885847
 11
22.900225140691195
 21
-53.29693248450037
  0
LINE
  8
0
 10
22.900225140691195
 20
-53.29693248450037
 11
22.812682544197212
 21
-52.93082401586656
  0
LINE
  8
0
 10
22.812682544197212
 20
-52.93082401586656
 11
22.798639082043632
 21
-52.66537938911196
  0
LINE
  8
0
 10
22.798639082043632
 20
-52.66537938911196
 11
22.84883905886915
 21
-52.506213160043544
  0
LINE
  8
0
 10
22.84883905886915
 20
-52.506213160043544
 11
25.344638139859377
 21
-51.34803973186938
  0
LINE
  8
0
 10
25.344638139859377
 20
-51.34803973186938
 11
25.498596283489455
 21
-51.412466559814064
  0
LINE
  8
0
 10
25.498596283489455
 20
-51.412466559814064
 11
25.692236805474412
 21
-51.59456932461373
  0
LINE
  8
0
 10
25.692236805474412
 20
-51.59456932461373
 11
25.91529640322623
 21
-51.89779124475979
  0
LINE
  8
0
 10
25.91529640322623
 20
-51.89779124475979
 11
26.10638462724145
 21
-52.21219016956091
  0
LINE
  8
0
 10
26.10638462724145
 20
-52.21219016956091
 11
26.289963939828795
 21
-52.485962972883314
  0
LINE
  8
0
 10
26.289963939828795
 20
-52.485962972883314
 11
26.55396839869461
 21
-52.844087085432626
  0
LINE
  8
0
 10
26.55396839869461
 20
-52.844087085432626
 11
26.906141829018186
 21
-53.279756435952585
  0
LINE
  8
0
 10
26.906141829018186
 20
-53.279756435952585
 11
27.353773281749806
 21
-53.78564873232484
  0
LINE
  8
0
 10
27.353773281749806
 20
-53.78564873232484
 11
27.903666701926692
 21
-54.3539528196956
  0
LINE
  8
0
 10
27.903666701926692
 20
-54.3539528196956
 11
28.562112146973334
 21
-54.97639770297646
  0
LINE
  8
0
 10
28.562112146973334
 20
-54.97639770297646
 11
28.859256464250265
 21
-55.233219786439236
  0
LINE
  8
0
 10
28.859256464250265
 20
-55.233219786439236
 11
29.98288906391402
 21
-54.71179903992439
  0
LINE
  8
0
 10
29.98288906391402
 20
-54.71179903992439
 11
31.026997454625914
 21
-54.045265108028715
  0
LINE
  8
0
 10
31.026997454625914
 20
-54.045265108028715
 11
30.97041221881553
 21
-53.65661302848686
  0
LINE
  8
0
 10
30.97041221881553
 20
-53.65661302848686
 11
30.80005611181548
 21
-52.76668784419683
  0
LINE
  8
0
 10
30.80005611181548
 20
-52.76668784419683
 11
30.616924934274653
 21
-51.99739252958498
  0
LINE
  8
0
 10
30.616924934274653
 20
-51.99739252958498
 11
30.431374812928283
 21
-51.34787572035216
  0
LINE
  8
0
 10
30.431374812928283
 20
-51.34787572035216
 11
30.253650792592005
 21
-50.81660546840525
  0
LINE
  8
0
 10
30.253650792592005
 20
-50.81660546840525
 11
30.093846886388075
 21
-50.40137788520205
  0
LINE
  8
0
 10
30.093846886388075
 20
-50.40137788520205
 11
29.96186669485429
 21
-50.09932798718957
  0
LINE
  8
0
 10
29.96186669485429
 20
-50.09932798718957
 11
29.799683472236083
 21
-49.76908868671673
  0
LINE
  8
0
 10
29.799683472236083
 20
-49.76908868671673
 11
29.66412449247552
 21
-49.41791511138315
  0
LINE
  8
0
 10
29.66412449247552
 20
-49.41791511138315
 11
29.6148260271589
 21
-49.15671072776837
  0
LINE
  8
0
 10
29.6148260271589
 20
-49.15671072776837
 11
29.64336331202571
 21
-48.992273659193266
  0
LINE
  8
0
 10
29.64336331202571
 20
-48.992273659193266
 11
31.962524186116365
 21
-47.51177658642094
  0
LINE
  8
0
 10
31.962524186116365
 20
-47.51177658642094
 11
32.12369589212737
 21
-47.55510795301068
  0
LINE
  8
0
 10
32.12369589212737
 20
-47.55510795301068
 11
32.3398805773465
 21
-47.709776148122025
  0
LINE
  8
0
 10
32.3398805773465
 20
-47.709776148122025
 11
32.60136544973404
 21
-47.980561632442594
  0
LINE
  8
0
 10
32.60136544973404
 20
-47.980561632442594
 11
32.83265396226654
 21
-48.26668576152629
  0
LINE
  8
0
 10
32.83265396226654
 20
-48.26668576152629
 11
33.05108562968177
 21
-48.51354709612377
  0
LINE
  8
0
 10
33.05108562968177
 20
-48.51354709612377
 11
33.3604677782438
 21
-48.83328749150947
  0
LINE
  8
0
 10
33.3604677782438
 20
-48.83328749150947
 11
33.767567978244216
 21
-49.21812945279745
  0
LINE
  8
0
 10
33.767567978244216
 20
-49.21812945279745
 11
34.27863427796706
 21
-49.659844485698784
  0
LINE
  8
0
 10
34.27863427796706
 20
-49.659844485698784
 11
34.89936878912093
 21
-50.14978425336283
  0
LINE
  8
0
 10
34.89936878912093
 20
-50.14978425336283
 11
35.63490303026521
 21
-50.67891317614964
  0
LINE
  8
0
 10
35.63490303026521
 20
-50.67891317614964
 11
35.963627107428984
 21
-50.89383830017413
  0
LINE
  8
0
 10
35.963627107428984
 20
-50.89383830017413
 11
37.00773549814088
 21
-50.2273043682785
  0
LINE
  8
0
 10
37.00773549814088
 20
-50.2273043682785
 11
37.9536875409333
 21
-49.427551564807224
  0
LINE
  8
0
 10
37.9536875409333
 20
-49.427551564807224
 11
37.84580493517785
 21
-49.04990931184901
  0
LINE
  8
0
 10
37.84580493517785
 20
-49.04990931184901
 11
37.55835341423595
 21
-48.19063074238853
  0
LINE
  8
0
 10
37.55835341423595
 20
-48.19063074238853
 11
37.27431919652803
 21
-47.452608471422195
  0
LINE
  8
0
 10
37.27431919652803
 20
-47.452608471422195
 11
37.00385253037052
 21
-46.83361839435692
  0
LINE
  8
0
 10
37.00385253037052
 20
-46.83361839435692
 11
36.75690286034822
 21
-46.330776701093434
  0
LINE
  8
0
 10
36.75690286034822
 20
-46.330776701093434
 11
36.54318038603794
 21
-45.94055376703459
  0
LINE
  8
0
 10
36.54318038603794
 20
-45.94055376703459
 11
36.3721184780494
 21
-45.658790150714154
  0
LINE
  8
0
 10
36.3721184780494
 20
-45.658790150714154
 11
36.167365746251306
 21
-45.353114322267025
  0
LINE
  8
0
 10
36.167365746251306
 20
-45.353114322267025
 11
35.98620943642945
 21
-45.023142341004956
  0
LINE
  8
0
 10
35.98620943642945
 20
-45.023142341004956
 11
35.90253570023127
 21
-44.77083939894365
  0
LINE
  8
0
 10
35.90253570023127
 20
-44.77083939894365
 11
35.90890104461486
 21
-44.604065874246174
  0
LINE
  8
0
 10
35.90890104461486
 20
-44.604065874246174
 11
38.010038231065856
 21
-42.82766466221294
  0
LINE
  8
0
 10
38.010038231065856
 20
-42.82766466221294
 11
38.1755473865458
 21
-42.84912731818441
  0
LINE
  8
0
 10
38.1755473865458
 20
-42.84912731818441
 11
38.41041841416985
 21
-42.97360088600149
  0
LINE
  8
0
 10
38.41041841416985
 20
-42.97360088600149
 11
38.70566235745068
 21
-43.207117761113864
  0
LINE
  8
0
 10
38.70566235745068
 20
-43.207117761113864
 11
38.97302380951498
 21
-43.459861202618214
  0
LINE
  8
0
 10
38.97302380951498
 20
-43.459861202618214
 11
39.22240991347834
 21
-43.675405822126635
  0
LINE
  8
0
 10
39.22240991347834
 20
-43.675405822126635
 11
39.57164881996608
 21
-43.95105672541828
  0
LINE
  8
0
 10
39.57164881996608
 20
-43.95105672541828
 11
40.02641107692995
 21
-44.27820378355802
  0
LINE
  8
0
 10
40.02641107692995
 20
-44.27820378355802
 11
40.59179223341807
 21
-44.64785913776187
  0
LINE
  8
0
 10
40.59179223341807
 20
-44.64785913776187
 11
41.272290813491914
 21
-45.050691598958366
  0
LINE
  8
0
 10
41.272290813491914
 20
-45.050691598958366
 11
42.071788224775474
 21
-45.477062243088675
  0
LINE
  8
0
 10
42.071788224775474
 20
-45.477062243088675
 11
42.42622597288154
 21
-45.64625506374506
  0
LINE
  8
0
 10
42.42622597288154
 20
-45.64625506374506
 11
43.37217801567394
 21
-44.8465022602738
  0
LINE
  8
0
 10
43.37217801567394
 20
-44.8465022602738
 11
44.20309317393321
 21
-43.92780219295133
  0
LINE
  8
0
 10
44.20309317393321
 20
-43.92780219295133
 11
44.04583836588817
 21
-43.56790880152728
  0
LINE
  8
0
 10
44.04583836588817
 20
-43.56790880152728
 11
43.64642101020547
 21
-42.75461069332506
  0
LINE
  8
0
 10
43.64642101020547
 20
-42.75461069332506
 11
43.26655234967436
 21
-42.061031490913734
  0
LINE
  8
0
 10
43.26655234967436
 20
-42.061031490913734
 11
42.915995622770765
 21
-41.48361403860538
  0
LINE
  8
0
 10
42.915995622770765
 20
-41.48361403860538
 11
42.604227125774315
 21
-41.01817412595413
  0
LINE
  8
0
 10
42.604227125774315
 20
-41.01817412595413
 11
42.34039996597493
 21
-40.65991937854248
  0
LINE
  8
0
 10
42.34039996597493
 20
-40.65991937854248
 11
42.13330894533223
 21
-40.40347012232243
  0
LINE
  8
0
 10
42.13330894533223
 20
-40.40347012232243
 11
41.889640521703875
 21
-40.12781255830126
  0
LINE
  8
0
 10
41.889640521703875
 20
-40.12781255830126
 11
41.66611962046117
 21
-39.824930528933486
  0
LINE
  8
0
 10
41.66611962046117
 20
-39.824930528933486
 11
41.549563773186144
 21
-39.58603138040391
  0
LINE
  8
0
 10
41.549563773186144
 20
-39.58603138040391
 11
41.5336435873652
 21
-39.419897477083225
  0
LINE
  8
0
 10
41.5336435873652
 20
-39.419897477083225
 11
43.37926224330745
 21
-37.37929204750154
  0
LINE
  8
0
 10
43.37926224330745
 20
-37.37929204750154
 11
43.54615533345581
 21
-37.37850299125047
  0
LINE
  8
0
 10
43.54615533345581
 20
-37.37850299125047
 11
43.795521424432636
 21
-37.470560698006764
  0
LINE
  8
0
 10
43.795521424432636
 20
-37.470560698006764
 11
44.11925580344443
 21
-37.66264184974244
  0
LINE
  8
0
 10
44.11925580344443
 20
-37.66264184974244
 11
44.41791912359454
 21
-37.877494390966206
  0
LINE
  8
0
 10
44.41791912359454
 20
-37.877494390966206
 11
44.693809363172726
 21
-38.057875896544076
  0
LINE
  8
0
 10
44.693809363172726
 20
-38.057875896544076
 11
45.07667285102631
 21
-38.284518310842145
  0
LINE
  8
0
 10
45.07667285102631
 20
-38.284518310842145
 11
45.570981921704586
 21
-38.548132518830876
  0
LINE
  8
0
 10
45.570981921704586
 20
-38.548132518830876
 11
46.180588694826326
 21
-38.83913168578419
  0
LINE
  8
0
 10
46.180588694826326
 20
-38.83913168578419
 11
46.90870783053741
 21
-39.147668285699794
  0
LINE
  8
0
 10
46.90870783053741
 20
-39.147668285699794
 11
47.757901361715454
 21
-39.463672056928196
  0
LINE
  8
0
 10
47.757901361715454
 20
-39.463672056928196
 11
48.13172783075207
 21
-39.58411332432356
  0
LINE
  8
0
 10
48.13172783075207
 20
-39.58411332432356
 11
48.96264298901136
 21
-38.66541325700107
  0
LINE
  8
0
 10
48.96264298901136
 20
-38.66541325700107
 11
49.66369356205354
 21
-37.64416015029315
  0
LINE
  8
0
 10
49.66369356205354
 20
-37.64416015029315
 11
49.459872767493955
 21
-37.30843792649934
  0
LINE
  8
0
 10
49.459872767493955
 20
-37.30843792649934
 11
48.955617189245
 21
-36.55563360356364
  0
LINE
  8
0
 10
48.955617189245
 20
-36.55563360356364
 11
48.48669285113712
 21
-35.91887440700553
  0
LINE
  8
0
 10
48.48669285113712
 20
-35.91887440700553
 11
48.062301756583885
 21
-35.39333360756981
  0
LINE
  8
0
 10
48.062301756583885
 20
-35.39333360756981
 11
47.69127794882812
 21
-34.97360126179855
  0
LINE
  8
0
 10
47.69127794882812
 20
-34.97360126179855
 11
47.38205410545644
 21
-34.653707765488846
  0
LINE
  8
0
 10
47.38205410545644
 20
-34.653707765488846
 11
47.14262951632902
 21
-34.427149212421845
  0
LINE
  8
0
 10
47.14262951632902
 20
-34.427149212421845
 11
46.86439366966266
 21
-34.18642902858702
  0
LINE
  8
0
 10
46.86439366966266
 20
-34.18642902858702
 11
46.602496912777085
 21
-33.91604188810304
  0
LINE
  8
0
 10
46.602496912777085
 20
-33.91604188810304
 11
46.45513889628111
 21
-33.69480969407033
  0
LINE
  8
0
 10
46.45513889628111
 20
-33.69480969407033
 11
46.41721727634875
 21
-33.532280075566966
  0
LINE
  8
0
 10
46.41721727634875
 20
-33.532280075566966
 11
47.97438229314346
 21
-31.26388508067055
  0
LINE
  8
0
 10
47.97438229314346
 20
-31.26388508067055
 11
48.139681106812745
 21
-31.24085839292443
  0
LINE
  8
0
 10
48.139681106812745
 20
-31.24085839292443
 11
48.39909231734128
 21
-31.29885746666199
  0
LINE
  8
0
 10
48.39909231734128
 20
-31.29885746666199
 11
48.74554008442118
 21
-31.446075202317754
  0
LINE
  8
0
 10
48.74554008442118
 20
-31.446075202317754
 11
49.07017561863354
 21
-31.619202794572846
  0
LINE
  8
0
 10
49.07017561863354
 20
-31.619202794572846
 11
49.36764672596533
 21
-31.76120227397982
  0
LINE
  8
0
 10
49.36764672596533
 20
-31.76120227397982
 11
49.777302587173786
 21
-31.934791760031892
  0
LINE
  8
0
 10
49.777302587173786
 20
-31.934791760031892
 11
50.302337514489835
 21
-32.13016891608292
  0
LINE
  8
0
 10
50.302337514489835
 20
-32.13016891608292
 11
50.94529145693698
 21
-32.337319008757525
  0
LINE
  8
0
 10
50.94529145693698
 20
-32.337319008757525
 11
51.70803784505908
 21
-32.54605390445738
  0
LINE
  8
0
 10
51.70803784505908
 20
-32.54605390445738
 11
52.59177361744997
 21
-32.746051708000024
  0
LINE
  8
0
 10
52.59177361744997
 20
-32.746051708000024
 11
52.97831786522099
 21
-32.815592144864354
  0
LINE
  8
0
 10
52.97831786522099
 20
-32.815592144864354
 11
53.67936843826316
 21
-31.79433903815654
  0
LINE
  8
0
 10
53.67936843826316
 20
-31.79433903815654
 11
54.23804416200422
 21
-30.6887571779464
  0
LINE
  8
0
 10
54.23804416200422
 20
-30.6887571779464
 11
53.99129456783761
 21
-30.383197092819785
  0
LINE
  8
0
 10
53.99129456783761
 20
-30.383197092819785
 11
53.391199219762285
 21
-29.704320366127668
  0
LINE
  8
0
 10
53.391199219762285
 20
-29.704320366127668
 11
52.8415871700002
 21
-29.135744158370468
  0
LINE
  8
0
 10
52.8415871700002
 20
-29.135744158370468
 11
52.35093497693363
 21
-28.6714582998236
  0
LINE
  8
0
 10
52.35093497693363
 20
-28.6714582998236
 11
51.92727678705769
 21
-28.304923654586258
  0
LINE
  8
0
 10
51.92727678705769
 20
-28.304923654586258
 11
51.57817436692432
 21
-28.02909991639858
  0
LINE
  8
0
 10
51.57817436692432
 20
-28.02909991639858
 11
51.31068874677724
 21
-27.836475009231357
  0
LINE
  8
0
 10
51.31068874677724
 20
-27.836475009231357
 11
51.00285060234817
 21
-27.634987862966188
  0
LINE
  8
0
 10
51.00285060234817
 20
-27.634987862966188
 11
50.707251543650784
 21
-27.401920676293514
  0
LINE
  8
0
 10
50.707251543650784
 20
-27.401920676293514
 11
50.531720965229205
 21
-27.202303330501273
  0
LINE
  8
0
 10
50.531720965229205
 20
-27.202303330501273
 11
50.472474623391506
 21
-27.046278341707836
  0
LINE
  8
0
 10
50.472474623391506
 20
-27.046278341707836
 11
51.71339835442404
 21
-24.5905733439199
  0
LINE
  8
0
 10
51.71339835442404
 20
-24.5905733439199
 11
51.87415313036835
 21
-24.54571993646707
  0
LINE
  8
0
 10
51.87415313036835
 20
-24.54571993646707
 11
52.138980261251135
 21
-24.568625382341022
  0
LINE
  8
0
 10
52.138980261251135
 20
-24.568625382341022
 11
52.50195904778809
 21
-24.668352597936448
  0
LINE
  8
0
 10
52.50195904778809
 20
-24.668352597936448
 11
52.846773667263946
 21
-24.7966657752376
  0
LINE
  8
0
 10
52.846773667263946
 20
-24.7966657752376
 11
53.16051726339177
 21
-24.897749244399634
  0
LINE
  8
0
 10
53.16051726339177
 20
-24.897749244399634
 11
53.589655179406904
 21
-25.015188093714702
  0
LINE
  8
0
 10
53.589655179406904
 20
-25.015188093714702
 11
54.13604670264445
 21
-25.13884168784973
  0
LINE
  8
0
 10
54.13604670264445
 20
-25.13884168784973
 11
54.80087428608217
 21
-25.258446107934358
  0
LINE
  8
0
 10
54.80087428608217
 20
-25.258446107934358
 11
55.58463669924945
 21
-25.363654420259678
  0
LINE
  8
0
 10
55.58463669924945
 20
-25.363654420259678
 11
56.48714442705879
 21
-25.444077290574324
  0
LINE
  8
0
 10
56.48714442705879
 20
-25.444077290574324
 11
56.87950856230543
 21
-25.461475946164388
  0
LINE
  8
0
 10
56.87950856230543
 20
-25.461475946164388
 11
57.43818428604646
 21
-24.355894085954315
  0
LINE
  8
0
 10
57.43818428604646
 20
-24.355894085954315
 11
57.84451557896094
 21
-23.185712606729073
  0
LINE
  8
0
 10
57.84451557896094
 20
-23.185712606729073
 11
57.5592404375407
 21
-22.91576738722758
  0
LINE
  8
0
 10
57.5592404375407
 20
-22.91576738722758
 11
56.87401403534192
 21
-22.32293282804974
  0
LINE
  8
0
 10
56.87401403534192
 20
-22.32293282804974
 11
56.2535221139742
 21
-21.832685864990694
  0
LINE
  8
0
 10
56.2535221139742
 20
-21.832685864990694
 11
55.705364522403336
 21
-21.43794013947759
  0
LINE
  8
0
 10
55.705364522403336
 20
-21.43794013947759
 11
55.23663214084219
 21
-21.13114401420179
  0
LINE
  8
0
 10
55.23663214084219
 20
-21.13114401420179
 11
54.85388088490481
 21
-20.90431211527848
  0
LINE
  8
0
 10
54.85388088490481
 20
-20.90431211527848
 11
54.56310752096644
 21
-20.74905825004281
  0
LINE
  8
0
 10
54.56310752096644
 20
-20.74905825004281
 11
54.231160457754804
 21
-20.59039968424572
  0
LINE
  8
0
 10
54.231160457754804
 20
-20.59039968424572
 11
53.90713406945096
 21
-20.39881154085199
  0
LINE
  8
0
 10
53.90713406945096
 20
-20.39881154085199
 11
53.7065632764341
 21
-20.224371219564905
  0
LINE
  8
0
 10
53.7065632764341
 20
-20.224371219564905
 11
53.62704946506473
 21
-20.07763513010271
  0
LINE
  8
0
 10
53.62704946506473
 20
-20.07763513010271
 11
54.52958759695679
 21
-17.478442243285503
  0
LINE
  8
0
 10
54.52958759695679
 20
-17.478442243285503
 11
54.68292966239103
 21
-17.41256252624456
  0
LINE
  8
0
 10
54.68292966239103
 20
-17.41256252624456
 11
54.94844686720359
 21
-17.39996559603064
  0
LINE
  8
0
 10
54.94844686720359
 20
-17.39996559603064
 11
55.32147930815273
 21
-17.45042265704085
  0
LINE
  8
0
 10
55.32147930815273
 20
-17.45042265704085
 11
55.68031978783871
 21
-17.53163166769933
  0
LINE
  8
0
 10
55.68031978783871
 20
-17.53163166769933
 11
56.00473711085695
 21
-17.589995289714512
  0
LINE
  8
0
 10
56.00473711085695
 20
-17.589995289714512
 11
56.44569910540102
 21
-17.64918780324437
  0
LINE
  8
0
 10
56.44569910540102
 20
-17.64918780324437
 11
57.00369685488363
 21
-17.698911234146653
  0
LINE
  8
0
 10
57.00369685488363
 20
-17.698911234146653
 11
57.67853421533542
 21
-17.72883563793141
  0
LINE
  8
0
 10
57.67853421533542
 20
-17.72883563793141
 11
58.469326394717235
 21
-17.72863992205632
  0
LINE
  8
0
 10
58.469326394717235
 20
-17.72863992205632
 11
59.37450080616145
 21
-17.688052711116946
  0
LINE
  8
0
 10
59.37450080616145
 20
-17.688052711116946
 11
59.76568308159487
 21
-17.652999106011514
  0
LINE
  8
0
 10
59.76568308159487
 20
-17.652999106011514
 11
60.172014374509274
 21
-16.482817626786282
  0
LINE
  8
0
 10
60.172014374509274
 20
-16.482817626786282
 11
60.41875024504889
 21
-15.268918444764815
  0
LINE
  8
0
 10
60.41875024504889
 20
-15.268918444764815
 11
60.100040298032184
 21
-15.039405269725638
  0
LINE
  8
0
 10
60.100040298032184
 20
-15.039405269725638
 11
59.341910723090514
 21
-14.543192024815127
  0
LINE
  8
0
 10
59.341910723090514
 20
-14.543192024815127
 11
58.66161162315367
 21
-14.140022775124187
  0
LINE
  8
0
 10
58.66161162315367
 20
-14.140022775124187
 11
58.06573051828619
 21
-13.821861429468326
  0
LINE
  8
0
 10
58.06573051828619
 20
-13.821861429468326
 11
57.56028848549328
 21
-13.580278608277752
  0
LINE
  8
0
 10
57.56028848549328
 20
-13.580278608277752
 11
57.15071859898163
 21
-13.406486369228844
  0
LINE
  8
0
 10
57.15071859898163
 20
-13.406486369228844
 11
56.841846348820006
 21
-13.291374054827896
  0
LINE
  8
0
 10
56.841846348820006
 20
-13.291374054827896
 11
56.4917139700328
 21
-13.178375335364219
  0
LINE
  8
0
 10
56.4917139700328
 20
-13.178375335364219
 11
56.14504251069809
 21
-13.031685130207109
  0
LINE
  8
0
 10
56.14504251069809
 20
-13.031685130207109
 11
55.92301069363896
 21
-12.885534725091109
  0
LINE
  8
0
 10
55.92301069363896
 20
-12.885534725091109
 11
55.824648338585504
 21
-12.750706043952848
  0
LINE
  8
0
 10
55.824648338585504
 20
-12.750706043952848
 11
56.37269505699195
 21
-10.054407926747652
  0
LINE
  8
0
 10
56.37269505699195
 20
-10.054407926747652
 11
56.51588801912571
 21
-9.96867752522991
  0
LINE
  8
0
 10
56.51588801912571
 20
-9.96867752522991
 11
56.777357137057955
 21
-9.920803011446214
  0
LINE
  8
0
 10
56.777357137057955
 20
-9.920803011446214
 11
57.153786459673235
 21
-9.921089510422123
  0
LINE
  8
0
 10
57.153786459673235
 20
-9.921089510422123
 11
57.52024928270826
 21
-9.953745177718854
  0
LINE
  8
0
 10
57.52024928270826
 20
-9.953745177718854
 11
57.84955109780206
 21
-9.968347452369663
  0
LINE
  8
0
 10
57.84955109780206
 20
-9.968347452369663
 11
58.29446819363583
 21
-9.968237338308075
  0
LINE
  8
0
 10
58.29446819363583
 20
-9.968237338308075
 11
58.85411468630478
 21
-9.943143290175191
  0
LINE
  8
0
 10
58.85411468630478
 20
-9.943143290175191
 11
59.52691933508619
 21
-9.882853675965622
  0
LINE
  8
0
 10
59.52691933508619
 20
-9.882853675965622
 11
60.31062957550726
 21
-9.77725742444455
  0
LINE
  8
0
 10
60.31062957550726
 20
-9.77725742444455
 11
61.20231781177014
 21
-9.616384411991893
  0
LINE
  8
0
 10
61.20231781177014
 20
-9.616384411991893
 11
61.585337570417956
 21
-9.529504078604514
  0
LINE
  8
0
 10
0.3118675362266391
 20
-1.4672214011007085
 11
9.18454765366783e-17
 21
-1.5
  0
LINE
  8
0
 10
9.18454765366783e-17
 20
-1.5
 11
-0.3118675362266384
 21
-1.4672214011007085
  0
LINE
  8
0
 10
-0.3118675362266384
 20
-1.4672214011007085
 11
-0.6101049646137001
 21
-1.3703181864639014
  0
LINE
  8
0
 10
-0.6101049646137001
 20
-1.3703181864639014
 11
-0.8816778784387099
 21
-1.213525491562421
  0
LINE
  8
0
 10
-0.8816778784387099
 20
-1.213525491562421
 11
-1.114717238216091
 21
-1.0036959095382878
  0
LINE
  8
0
 10
-1.114717238216091
 20
-1.0036959095382878
 11
-1.299038105676658
 21
-0.7500000000000003
  0
LINE
  8
0
 10
-1.299038105676658
 20
-0.7500000000000003
 11
-1.4265847744427305
 21
-0.46352549156242095
  0
LINE
  8
0
 10
-1.4265847744427305
 20
-0.46352549156242095
 11
-1.49178284305241
 21
-0.15679269490147957
  0
LINE
  8
0
 10
-1.49178284305241
 20
-0.15679269490147957
 11
-1.4917828430524098
 21
0.15679269490148126
  0
LINE
  8
0
 10
-1.4917828430524098
 20
0.15679269490148126
 11
-1.4265847744427302
 21
0.46352549156242123
  0
LINE
  8
0
 10
-1.4265847744427302
 20
0.46352549156242123
 11
-1.2990381056766576
 21
0.7500000000000006
  0
LINE
  8
0
 10
-1.2990381056766576
 20
0.7500000000000006
 11
-1.114717238216091
 21
1.0036959095382878
  0
LINE
  8
0
 10
-1.114717238216091
 20
1.0036959095382878
 11
-0.8816778784387097
 21
1.2135254915624214
  0
LINE
  8
0
 10
-0.8816778784387097
 20
1.2135254915624214
 11
-0.6101049646137005
 21
1.3703181864639014
  0
LINE
  8
0
 10
-0.6101049646137005
 20
1.3703181864639014
 11
-0.3118675362266387
 21
1.4672214011007085
  0
LINE
  8
0
 10
-0.3118675362266387
 20
1.4672214011007085
 11
7.579792913117722e-16
 21
1.5
  0
LINE
  8
0
 10
7.579792913117722e-16
 20
1.5
 11
0.3118675362266389
 21
1.4672214011007085
  0
LINE
  8
0
 10
0.3118675362266389
 20
1.4672214011007085
 11
0.6101049646136999
 21
1.3703181864639014
  0
LINE
  8
0
 10
0.6101049646136999
 20
1.3703181864639014
 11
0.8816778784387097
 21
1.213525491562421
  0
LINE
  8
0
 10
0.8816778784387097
 20
1.213525491562421
 11
1.1147172382160917
 21
1.003695909538287
  0
LINE
  8
0
 10
1.1147172382160917
 20
1.003695909538287
 11
1.299038105676658
 21
0.7499999999999998
  0
LINE
  8
0
 10
1.299038105676658
 20
0.7499999999999998
 11
1.4265847744427305
 21
0.4635254915624211
  0
LINE
  8
0
 10
1.4265847744427305
 20
0.4635254915624211
 11
1.49178284305241
 21
0.1567926949014801
  0
LINE
  8
0
 10
1.49178284305241
 20
0.1567926949014801
 11
1.4917828430524098
 21
-0.1567926949014801
  0
LINE
  8
0
 10
1.4917828430524098
 20
-0.1567926949014801
 11
1.4265847744427302
 21
-0.46352549156242107
  0
LINE
  8
0
 10
1.4265847744427302
 20
-0.46352549156242107
 11
1.299038105676658
 21
-0.7500000000000001
  0
LINE
  8
0
 10
1.299038105676658
 20
-0.7500000000000001
 11
1.1147172382160913
 21
-1.0036959095382874
  0
LINE
  8
0
 10
1.1147172382160913
 20
-1.0036959095382874
 11
0.8816778784387098
 21
-1.2135254915624212
  0
LINE
  8
0
 10
0.8816778784387098
 20
-1.2135254915624212
 11
0.6101049646137003
 21
-1.3703181864639014
  0
LINE
  8
0
 10
0.6101049646137003
 20
-1.3703181864639014
 11
0.3118675362266391
 21
-1.4672214011007085
  0
ENDSEC
  0
SECTION
  2
OBJECTS
  0
DICTIONARY
  0
ENDSEC
  0
EOF
