  0
SECTION
  2
BLOCKS
  0
ENDSEC
  0
SECTION
  2
ENTITIES
  0
LINE
  8
0
 10
43.4149268532481
 20
-9.602299347034414
 11
43.75806566128061
 21
-8.433675887350404
  0
LINE
  8
0
 10
43.75806566128061
 20
-8.433675887350404
 11
43.87384006009828
 21
-7.2212315295838145
  0
LINE
  8
0
 10
43.87384006009828
 20
-7.2212315295838145
 11
43.7109128192624
 21
-7.111100834423417
  0
LINE
  8
0
 10
43.7109128192624
 20
-7.111100834423417
 11
42.83492460423024
 21
-6.596742882061467
  0
LINE
  8
0
 10
42.83492460423024
 20
-6.596742882061467
 11
42.074688619959836
 21
-6.212986380136941
  0
LINE
  8
0
 10
42.074688619959836
 20
-6.212986380136941
 11
41.442653731399176
 21
-5.942779269167789
  0
LINE
  8
0
 10
41.442653731399176
 20
-5.942779269167789
 11
40.94955416815092
 21
-5.768054306379114
  0
LINE
  8
0
 10
40.94955416815092
 20
-5.768054306379114
 11
40.6043333262889
 21
-5.669878947622166
  0
LINE
  8
0
 10
40.6043333262889
 20
-5.669878947622166
 11
40.414079739628626
 21
-5.628610649696474
  0
LINE
  8
0
 10
40.414079739628626
 20
-5.628610649696474
 11
40.13314561825124
 21
-5.586112384426676
  0
LINE
  8
0
 10
40.13314561825124
 20
-5.586112384426676
 11
39.61344364619682
 21
-5.454943023168071
  0
LINE
  8
0
 10
39.61344364619682
 20
-5.454943023168071
 11
39.27232292270348
 21
-5.291076212148116
  0
LINE
  8
0
 10
39.27232292270348
 20
-5.291076212148116
 11
39.11115702052756
 21
-5.1166364241702444
  0
LINE
  8
0
 10
39.11115702052756
 20
-5.1166364241702444
 11
39.37269727181784
 21
-2.3776629961580027
  0
LINE
  8
0
 10
39.37269727181784
 20
-2.3776629961580027
 11
39.5639636431253
 21
-2.236876409932212
  0
LINE
  8
0
 10
39.5639636431253
 20
-2.236876409932212
 11
39.92993186864937
 21
-2.1405284070623365
  0
LINE
  8
0
 10
39.92993186864937
 20
-2.1405284070623365
 11
40.4650661138738
 21
-2.1100836919484403
  0
LINE
  8
0
 10
40.4650661138738
 20
-2.1100836919484403
 11
40.748966239279966
 21
-2.12152055775008
  0
LINE
  8
0
 10
40.748966239279966
 20
-2.12152055775008
 11
40.94359177251419
 21
-2.117003759749056
  0
LINE
  8
0
 10
40.94359177251419
 20
-2.117003759749056
 11
41.30115383284182
 21
-2.0859360315233255
  0
LINE
  8
0
 10
41.30115383284182
 20
-2.0859360315233255
 11
41.818409361231524
 21
-2.007688282371272
  0
LINE
  8
0
 10
41.818409361231524
 20
-2.007688282371272
 11
42.490159587964435
 21
-1.8619775550459332
  0
LINE
  8
0
 10
42.490159587964435
 20
-1.8619775550459332
 11
43.30928351313391
 21
-1.6290316390752557
  0
LINE
  8
0
 10
43.30928351313391
 20
-1.6290316390752557
 11
44.26678436246908
 21
-1.289750664725668
  0
LINE
  8
0
 10
44.26678436246908
 20
-1.289750664725668
 11
44.447609666913
 21
-1.2124443577665902
  0
LINE
  8
0
 10
44.447609666913
 20
-1.2124443577665902
 11
44.56338406573067
 21
2.6645352591003757e-15
  0
LINE
  8
0
 10
44.56338406573067
 20
2.6645352591003757e-15
 11
44.447609666913024
 21
1.2124443577665955
  0
LINE
  8
0
 10
44.447609666913024
 20
1.2124443577665955
 11
44.26678436246906
 21
1.2897506647256805
  0
LINE
  8
0
 10
44.26678436246906
 20
1.2897506647256805
 11
43.30928351313387
 21
1.629031639075273
  0
LINE
  8
0
 10
43.30928351313387
 20
1.629031639075273
 11
42.49015958796639
 21
1.8619775550453808
  0
LINE
  8
0
 10
42.49015958796639
 20
1.8619775550453808
 11
41.818409361231495
 21
2.0076882823711415
  0
LINE
  8
0
 10
41.818409361231495
 20
2.0076882823711415
 11
41.30115383284174
 21
2.0859360315231923
  0
LINE
  8
0
 10
41.30115383284174
 20
2.0859360315231923
 11
40.943591772513955
 21
2.117003759749166
  0
LINE
  8
0
 10
40.943591772513955
 20
2.117003759749166
 11
40.74896623928
 21
2.1215205577501024
  0
LINE
  8
0
 10
40.74896623928
 20
2.1215205577501024
 11
40.465066113873796
 21
2.1100836919484314
  0
LINE
  8
0
 10
40.465066113873796
 20
2.1100836919484314
 11
39.92993186864938
 21
2.1405284070620167
  0
LINE
  8
0
 10
39.92993186864938
 20
2.1405284070620167
 11
39.563963643125355
 21
2.236876409933197
  0
LINE
  8
0
 10
39.563963643125355
 20
2.236876409933197
 11
39.372697271817806
 21
2.3776629961578295
  0
LINE
  8
0
 10
39.372697271817806
 20
2.3776629961578295
 11
39.11115702052762
 21
5.116636424170081
  0
LINE
  8
0
 10
39.11115702052762
 20
5.116636424170081
 11
39.27232292270324
 21
5.291076212149073
  0
LINE
  8
0
 10
39.27232292270324
 20
5.291076212149073
 11
39.61344364619686
 21
5.454943023167754
  0
LINE
  8
0
 10
39.61344364619686
 20
5.454943023167754
 11
40.13314561825125
 21
5.586112384426669
  0
LINE
  8
0
 10
40.13314561825125
 20
5.586112384426669
 11
40.41407973962859
 21
5.62861064969649
  0
LINE
  8
0
 10
40.41407973962859
 20
5.62861064969649
 11
40.60433332628911
 21
5.66987894762232
  0
LINE
  8
0
 10
40.60433332628911
 20
5.66987894762232
 11
40.949554168151025
 21
5.768054306378998
  0
LINE
  8
0
 10
40.949554168151025
 20
5.768054306378998
 11
41.442653731399226
 21
5.942779269167667
  0
LINE
  8
0
 10
41.442653731399226
 20
5.942779269167667
 11
42.074688619958025
 21
6.212986380136029
  0
LINE
  8
0
 10
42.074688619958025
 20
6.212986380136029
 11
42.834924604230274
 21
6.59674288206149
  0
LINE
  8
0
 10
42.834924604230274
 20
6.59674288206149
 11
43.710912819262425
 21
7.111100834423435
  0
LINE
  8
0
 10
43.710912819262425
 20
7.111100834423435
 11
43.87384006009827
 21
7.221231529583813
  0
LINE
  8
0
 10
43.87384006009827
 20
7.221231529583813
 11
43.75806566128059
 21
8.433675887350407
  0
LINE
  8
0
 10
43.75806566128059
 20
8.433675887350407
 11
43.41492685324811
 21
9.602299347034355
  0
LINE
  8
0
 10
43.41492685324811
 20
9.602299347034355
 11
43.22273898283439
 21
9.64398721443901
  0
LINE
  8
0
 10
43.22273898283439
 20
9.64398721443901
 11
42.2183320746353
 21
9.795928712375295
  0
LINE
  8
0
 10
42.2183320746353
 20
9.795928712375295
 11
41.36992548143285
 21
9.869644770053162
  0
LINE
  8
0
 10
41.36992548143285
 20
9.869644770053162
 11
40.68273871994607
 21
9.885592748404383
  0
LINE
  8
0
 10
40.68273871994607
 20
9.885592748404383
 11
40.160022188906964
 21
9.864535206392933
  0
LINE
  8
0
 10
40.160022188906964
 20
9.864535206392933
 11
39.803042134592516
 21
9.82737243544367
  0
LINE
  8
0
 10
39.803042134592516
 20
9.82737243544367
 11
39.61107892864783
 21
9.794974484671693
  0
LINE
  8
0
 10
39.61107892864783
 20
9.794974484671693
 11
39.33447368943955
 21
9.730015845927088
  0
LINE
  8
0
 10
39.33447368943955
 20
9.730015845927088
 11
38.80324831694624
 21
9.658635563568518
  0
LINE
  8
0
 10
38.80324831694624
 20
9.658635563568518
 11
38.42565963458287
 21
9.683982490434884
  0
LINE
  8
0
 10
38.42565963458287
 20
9.683982490434884
 11
38.211205659142415
 21
9.786027480864249
  0
LINE
  8
0
 10
38.211205659142415
 20
9.786027480864249
 11
37.43603765138987
 21
12.426007272862487
  0
LINE
  8
0
 10
37.43603765138987
 20
12.426007272862487
 11
37.561278128815346
 21
12.627795554158682
  0
LINE
  8
0
 10
37.561278128815346
 20
12.627795554158682
 11
37.8652223585501
 21
12.853258599825145
  0
LINE
  8
0
 10
37.8652223585501
 20
12.853258599825145
 11
38.350708674094115
 21
13.080411804754744
  0
LINE
  8
0
 10
38.350708674094115
 20
13.080411804754744
 11
38.618523100329334
 21
13.175309203061023
  0
LINE
  8
0
 10
38.618523100329334
 20
13.175309203061023
 11
38.797528480093355
 21
13.251837457101116
  0
LINE
  8
0
 10
38.797528480093355
 20
13.251837457101116
 11
39.117930922800525
 21
13.413572133129877
  0
LINE
  8
0
 10
39.117930922800525
 20
13.413572133129877
 11
39.56905261793307
 21
13.678459294158527
  0
LINE
  8
0
 10
39.56905261793307
 20
13.678459294158527
 11
40.13852878069439
 21
14.063396799761755
  0
LINE
  8
0
 10
40.13852878069439
 20
14.063396799761755
 11
40.81239991482228
 21
14.584093927794603
  0
LINE
  8
0
 10
40.81239991482228
 20
14.584093927794603
 11
41.57521499909511
 21
15.25493862162397
  0
LINE
  8
0
 10
41.57521499909511
 20
15.25493862162397
 11
41.71435556133629
 21
15.393913294719836
  0
LINE
  8
0
 10
41.71435556133629
 20
15.393913294719836
 11
41.37121675330379
 21
16.562536754403784
  0
LINE
  8
0
 10
41.37121675330379
 20
16.562536754403784
 11
40.813115466618186
 21
17.64510221935337
  0
LINE
  8
0
 10
40.813115466618186
 20
17.64510221935337
 11
40.616511200612116
 21
17.649664939058923
  0
LINE
  8
0
 10
40.616511200612116
 20
17.649664939058923
 11
39.601500116168076
 21
17.608775398966767
  0
LINE
  8
0
 10
39.601500116168076
 20
17.608775398966767
 11
38.75447447971084
 21
17.5205973079626
  0
LINE
  8
0
 10
38.75447447971084
 20
17.5205973079626
 11
38.07668790347994
 21
17.406206135849615
  0
LINE
  8
0
 10
38.07668790347994
 20
17.406206135849615
 11
37.56740270714786
 21
17.286604377107846
  0
LINE
  8
0
 10
37.56740270714786
 20
17.286604377107846
 11
37.22390684811214
 21
17.18255426635211
  0
LINE
  8
0
 10
37.22390684811214
 20
17.18255426635211
 11
37.041544019874834
 21
17.114412513160158
  0
LINE
  8
0
 10
37.041544019874834
 20
17.114412513160158
 11
36.782230900897375
 21
16.99827987592493
  0
LINE
  8
0
 10
36.782230900897375
 20
16.99827987592493
 11
36.274114270191276
 21
16.82765446547815
  0
LINE
  8
0
 10
36.274114270191276
 20
16.82765446547815
 11
35.89855216976691
 21
16.781084212361986
  0
LINE
  8
0
 10
35.89855216976691
 20
16.781084212361986
 11
35.66866151562035
 21
16.840699435166332
  0
LINE
  8
0
 10
35.66866151562035
 20
16.840699435166332
 11
34.407882342886154
 21
19.286269843067483
  0
LINE
  8
0
 10
34.407882342886154
 20
19.286269843067483
 11
34.49267087839646
 21
19.5081134634406
  0
LINE
  8
0
 10
34.49267087839646
 20
19.5081134634406
 11
34.74845327799076
 21
19.78702392184622
  0
LINE
  8
0
 10
34.74845327799076
 20
19.78702392184622
 11
35.18217719665839
 21
20.101951061778447
  0
LINE
  8
0
 10
35.18217719665839
 20
20.101951061778447
 11
35.42719241660366
 21
20.245817753893636
  0
LINE
  8
0
 10
35.42719241660366
 20
20.245817753893636
 11
35.588479868652556
 21
20.354840033554563
  0
LINE
  8
0
 10
35.588479868652556
 20
20.354840033554563
 11
35.872483733125115
 21
20.574288514268137
  0
LINE
  8
0
 10
35.872483733125115
 20
20.574288514268137
 11
36.26532284669379
 21
20.919764161380428
  0
LINE
  8
0
 10
36.26532284669379
 20
20.919764161380428
 11
36.751657931379775
 21
21.405519417221132
  0
LINE
  8
0
 10
36.751657931379775
 20
21.405519417221132
 11
37.31480875682181
 21
22.044337820491126
  0
LINE
  8
0
 10
37.31480875682181
 20
22.044337820491126
 11
37.9368805856944
 21
22.847423180684114
  0
LINE
  8
0
 10
37.9368805856944
 20
22.847423180684114
 11
38.04720556689428
 21
23.01021892493479
  0
LINE
  8
0
 10
38.04720556689428
 20
23.01021892493479
 11
37.48910428020869
 21
24.092784389884386
  0
LINE
  8
0
 10
37.48910428020869
 20
24.092784389884386
 11
36.73621174948956
 21
25.050165123599534
  0
LINE
  8
0
 10
36.73621174948956
 20
25.050165123599534
 11
36.542296878311994
 21
25.017437787027777
  0
LINE
  8
0
 10
36.542296878311994
 20
25.017437787027777
 11
35.553366762800415
 21
24.785195063422776
  0
LINE
  8
0
 10
35.553366762800415
 20
24.785195063422776
 11
34.73833579649371
 21
24.53830980969124
  0
LINE
  8
0
 10
34.73833579649371
 20
24.53830980969124
 11
34.094446378339384
 21
24.2977138821175
  0
LINE
  8
0
 10
34.094446378339384
 20
24.2977138821175
 11
33.616999410639416
 21
24.083890625825685
  0
LINE
  8
0
 10
33.616999410639416
 20
24.083890625825685
 11
33.29940258219769
 21
23.916713817366105
  0
LINE
  8
0
 10
33.29940258219769
 20
23.916713817366105
 11
33.133231199421964
 21
23.815291082256138
  0
LINE
  8
0
 10
33.133231199421964
 20
23.815291082256138
 11
32.90058245242893
 21
23.652181782620605
  0
LINE
  8
0
 10
32.90058245242893
 20
23.652181782620605
 11
32.433939222428734
 21
23.388478090979344
  0
LINE
  8
0
 10
32.433939222428734
 20
23.388478090979344
 11
32.0739774967702
 21
23.27167382816587
  0
LINE
  8
0
 10
32.0739774967702
 20
23.27167382816587
 11
31.83695901113265
 21
23.2867046338671
  0
LINE
  8
0
 10
31.83695901113265
 20
23.2867046338671
 11
30.13613651764752
 21
25.449476371258072
  0
LINE
  8
0
 10
30.13613651764752
 20
25.449476371258072
 11
30.177408632654938
 21
25.683357324259912
  0
LINE
  8
0
 10
30.177408632654938
 20
25.683357324259912
 11
30.3757845597529
 21
26.005634644743797
  0
LINE
  8
0
 10
30.3757845597529
 20
26.005634644743797
 11
30.74207016906684
 21
26.39695343230684
  0
LINE
  8
0
 10
30.74207016906684
 20
26.39695343230684
 11
30.955430694292428
 21
26.584589701136885
  0
LINE
  8
0
 10
30.955430694292428
 20
26.584589701136885
 11
31.093170869878772
 21
26.722165657176927
  0
LINE
  8
0
 10
31.093170869878772
 20
26.722165657176927
 11
31.33051151648985
 21
26.99139650271488
  0
LINE
  8
0
 10
31.33051151648985
 20
26.99139650271488
 11
31.650869819397954
 21
27.404974245896156
  0
LINE
  8
0
 10
31.650869819397954
 20
27.404974245896156
 11
32.03648640891435
 21
27.97399079140528
  0
LINE
  8
0
 10
32.03648640891435
 20
27.97399079140528
 11
32.468563187563895
 21
28.70784190839312
  0
LINE
  8
0
 10
32.468563187563895
 20
28.70784190839312
 11
32.92740846434841
 21
29.61414233761387
  0
LINE
  8
0
 10
32.92740846434841
 20
29.61414233761387
 11
33.00493043223753
 21
29.79487529066195
  0
LINE
  8
0
 10
33.00493043223753
 20
29.79487529066195
 11
32.25203790151839
 21
30.752256024377115
  0
LINE
  8
0
 10
32.25203790151839
 20
30.752256024377115
 11
31.33156562446826
 21
31.54984979271021
  0
LINE
  8
0
 10
31.33156562446826
 20
31.54984979271021
 11
31.147348736803806
 21
31.48101525107507
  0
LINE
  8
0
 10
31.147348736803806
 20
31.48101525107507
 11
30.22024210123157
 21
31.06581320109082
  0
LINE
  8
0
 10
30.22024210123157
 20
31.06581320109082
 11
29.46666314774018
 21
30.669143860955025
  0
LINE
  8
0
 10
29.46666314774018
 20
30.669143860955025
 11
28.87994272887204
 21
30.311038941609624
  0
LINE
  8
0
 10
28.87994272887204
 20
30.311038941609624
 11
28.451590167192805
 21
30.010722317361207
  0
LINE
  8
0
 10
28.451590167192805
 20
30.010722317361207
 11
28.17137114621543
 21
29.78646101663044
  0
LINE
  8
0
 10
28.17137114621543
 20
29.78646101663044
 11
28.02739707563012
 21
29.655422981503694
  0
LINE
  8
0
 10
28.02739707563012
 20
29.655422981503694
 11
27.82982123249822
 21
29.45123221453382
  0
LINE
  8
0
 10
27.82982123249822
 20
29.45123221453382
 11
27.42151710536321
 21
29.10398118018725
  0
LINE
  8
0
 10
27.42151710536321
 20
29.10398118018725
 11
27.090165709106948
 21
28.921164518065087
  0
LINE
  8
0
 10
27.090165709106948
 20
28.921164518065087
 11
26.854585857594994
 21
28.891067654182784
  0
LINE
  8
0
 10
26.854585857594994
 20
28.891067654182784
 11
24.77519219972326
 21
30.692872515427464
  0
LINE
  8
0
 10
24.77519219972326
 20
30.692872515427464
 11
24.771456212457974
 21
30.930337734045654
  0
LINE
  8
0
 10
24.771456212457974
 20
30.930337734045654
 11
24.905255844190847
 21
31.284333974560155
  0
LINE
  8
0
 10
24.905255844190847
 20
31.284333974560155
 11
25.19086462788264
 21
31.737901129200328
  0
LINE
  8
0
 10
25.19086462788264
 20
31.737901129200328
 11
25.36485905310146
 21
31.96252531110818
  0
LINE
  8
0
 10
25.36485905310146
 20
31.96252531110818
 11
25.474073663401047
 21
32.12368259002539
  0
LINE
  8
0
 10
25.474073663401047
 20
32.12368259002539
 11
25.656172982797088
 21
32.43296509615586
  0
LINE
  8
0
 10
25.656172982797088
 20
32.43296509615586
 11
25.892471891292107
 21
32.89969715820124
  0
LINE
  8
0
 10
25.892471891292107
 20
32.89969715820124
 11
26.163432797379564
 21
33.53140925286594
  0
LINE
  8
0
 10
26.163432797379564
 20
33.53140925286594
 11
26.44881914869115
 21
34.333769792173264
  0
LINE
  8
0
 10
26.44881914869115
 20
34.333769792173264
 11
26.727854009574926
 21
35.31052923156699
  0
LINE
  8
0
 10
26.727854009574926
 20
35.31052923156699
 11
26.769771118252248
 21
35.502667233594224
  0
LINE
  8
0
 10
26.769771118252248
 20
35.502667233594224
 11
25.8492988412021
 21
36.30026100192732
  0
LINE
  8
0
 10
25.8492988412021
 20
36.30026100192732
 11
24.794515084180684
 21
36.90924068798047
  0
LINE
  8
0
 10
24.794515084180684
 20
36.90924068798047
 11
24.626654258321967
 21
36.806786800963316
  0
LINE
  8
0
 10
24.626654258321967
 20
36.806786800963316
 11
23.79487915205142
 21
36.223631908484634
  0
LINE
  8
0
 10
23.79487915205142
 20
36.223631908484634
 11
23.129988518185346
 21
35.69151514540898
  0
LINE
  8
0
 10
23.129988518185346
 20
35.69151514540898
 11
22.621642703226428
 21
35.22884407911033
  0
LINE
  8
0
 10
22.621642703226428
 20
35.22884407911033
 11
22.257866325208724
 21
34.852888312172986
  0
LINE
  8
0
 10
22.257866325208724
 20
34.852888312172986
 11
22.02515295721736
 21
34.57964790688655
  0
LINE
  8
0
 10
22.02515295721736
 20
34.57964790688655
 11
21.908579796854195
 21
34.42373062774878
  0
LINE
  8
0
 10
21.908579796854195
 20
34.42373062774878
 11
21.753217763333065
 21
34.18583837977671
  0
LINE
  8
0
 10
21.753217763333065
 20
34.18583837977671
 11
21.418009914043925
 21
33.76759055985987
  0
LINE
  8
0
 10
21.418009914043925
 20
33.76759055985987
 11
21.127244749978267
 21
33.52536896892227
  0
LINE
  8
0
 10
21.127244749978267
 20
33.52536896892227
 11
20.90161800222286
 21
33.451232214533746
  0
LINE
  8
0
 10
20.90161800222286
 20
33.451232214533746
 11
18.51880788456735
 21
34.82694827738998
  0
LINE
  8
0
 10
18.51880788456735
 20
34.82694827738998
 11
18.470198823343146
 21
35.05941514991408
  0
LINE
  8
0
 10
18.470198823343146
 20
35.05941514991408
 11
18.53458629240856
 21
35.43233596399879
  0
LINE
  8
0
 10
18.53458629240856
 20
35.43233596399879
 11
18.729195604889167
 21
35.9317583869897
  0
LINE
  8
0
 10
18.729195604889167
 20
35.9317583869897
 11
18.857535318235755
 21
36.185251978788614
  0
LINE
  8
0
 10
18.857535318235755
 20
36.185251978788614
 11
18.93427706267646
 21
36.36416593663172
  0
LINE
  8
0
 10
18.93427706267646
 20
36.36416593663172
 11
19.054553510999344
 21
36.702321827755455
  0
LINE
  8
0
 10
19.054553510999344
 20
36.702321827755455
 11
19.198252566857466
 21
37.2053392958841
  0
LINE
  8
0
 10
19.198252566857466
 20
37.2053392958841
 11
19.344764556388235
 21
37.87691521869338
  0
LINE
  8
0
 10
19.344764556388235
 20
37.87691521869338
 11
19.473145874058577
 21
38.71878577989961
  0
LINE
  8
0
 10
19.473145874058577
 20
38.71878577989961
 11
19.562285272151023
 21
39.730701598404735
  0
LINE
  8
0
 10
19.562285272151023
 20
39.730701598404735
 11
19.567082528094975
 21
39.927300281407156
  0
LINE
  8
0
 10
19.567082528094975
 20
39.927300281407156
 11
18.512298771073553
 21
40.53627996746032
  0
LINE
  8
0
 10
18.512298771073553
 20
40.53627996746032
 11
17.36132616727189
 21
40.934635458698565
  0
LINE
  8
0
 10
17.36132616727189
 20
40.934635458698565
 11
17.215888330822548
 21
40.80226517671713
  0
LINE
  8
0
 10
17.215888330822548
 20
40.80226517671713
 11
16.50950727336321
 21
40.072234178953444
  0
LINE
  8
0
 10
16.50950727336321
 20
40.072234178953444
 11
15.957335838986031
 21
39.42390207917219
  0
LINE
  8
0
 10
15.957335838986031
 20
39.42390207917219
 11
15.545737570171044
 21
38.87338700373402
  0
LINE
  8
0
 10
15.545737570171044
 20
38.87338700373402
 11
15.259685201926537
 21
38.43538011506806
  0
LINE
  8
0
 10
15.259685201926537
 20
38.43538011506806
 11
15.082888354369166
 21
38.12303622539395
  0
LINE
  8
0
 10
15.082888354369166
 20
38.12303622539395
 11
14.997929361972076
 21
37.9478749589517
  0
LINE
  8
0
 10
14.997929361972076
 20
37.9478749589517
 11
14.890396326744996
 21
37.68487927564135
  0
LINE
  8
0
 10
14.890396326744996
 20
37.68487927564135
 11
14.640400040350572
 21
37.21075123610009
  0
LINE
  8
0
 10
14.640400040350572
 20
37.21075123610009
 11
14.400730119086097
 21
36.91787923574575
  0
LINE
  8
0
 10
14.400730119086097
 20
36.91787923574575
 11
14.193211213615884
 21
36.802382086316044
  0
LINE
  8
0
 10
14.193211213615884
 20
36.802382086316044
 11
11.593105602179866
 21
37.70228738787896
  0
LINE
  8
0
 10
11.593105602179866
 20
37.70228738787896
 11
11.50138032511906
 21
37.92135395584941
  0
LINE
  8
0
 10
11.50138032511906
 20
37.92135395584941
 11
11.494028500625074
 21
38.2997210136476
  0
LINE
  8
0
 10
11.494028500625074
 20
38.2997210136476
 11
11.590604654291829
 21
38.82694827738993
  0
LINE
  8
0
 10
11.590604654291829
 20
38.82694827738993
 11
11.668651124139975
 21
39.100149360201186
  0
LINE
  8
0
 10
11.668651124139975
 20
39.100149360201186
 11
11.710146356129055
 21
39.290353580377975
  0
LINE
  8
0
 10
11.710146356129055
 20
39.290353580377975
 11
11.764252829159158
 21
39.64516102153316
  0
LINE
  8
0
 10
11.764252829159158
 20
39.64516102153316
 11
11.810158374097437
 21
40.16628353384768
  0
LINE
  8
0
 10
11.810158374097437
 20
40.16628353384768
 11
11.826926122036603
 21
40.85345078117721
  0
LINE
  8
0
 10
11.826926122036603
 20
40.85345078117721
 11
11.793662370750836
 21
41.70440396872801
  0
LINE
  8
0
 10
11.793662370750836
 20
41.70440396872801
 11
11.689684575954455
 21
42.7149028921428
  0
LINE
  8
0
 10
11.689684575954455
 20
42.7149028921428
 11
11.657188593836128
 21
42.9088566674839
  0
LINE
  8
0
 10
11.657188593836128
 20
42.9088566674839
 11
10.506215990034455
 21
43.30721215872207
  0
LINE
  8
0
 10
10.506215990034455
 20
43.30721215872207
 11
9.300653688183772
 21
43.480545849786814
  0
LINE
  8
0
 10
9.300653688183772
 20
43.480545849786814
 11
9.182895343487683
 21
43.32304337971939
  0
LINE
  8
0
 10
9.182895343487683
 20
43.32304337971939
 11
8.627438786714032
 21
42.472521499007094
  0
LINE
  8
0
 10
8.627438786714032
 20
42.472521499007094
 11
8.207943466132766
 21
41.73140647381913
  0
LINE
  8
0
 10
8.207943466132766
 20
41.73140647381913
 11
7.907968977305519
 21
41.112944438420826
  0
LINE
  8
0
 10
7.907968977305519
 20
41.112944438420826
 11
7.709979296724742
 21
40.62871713819845
  0
LINE
  8
0
 10
7.709979296724742
 20
40.62871713819845
 11
7.595488868311772
 21
40.28855868611356
  0
LINE
  8
0
 10
7.595488868311772
 20
40.28855868611356
 11
7.545214683224489
 21
40.10048421691428
  0
LINE
  8
0
 10
7.545214683224489
 20
40.10048421691428
 11
7.489397170359158
 21
39.821890447489054
  0
LINE
  8
0
 10
7.489397170359158
 20
39.821890447489054
 11
7.333647964008714
 21
39.309018411000956
  0
LINE
  8
0
 10
7.333647964008714
 20
39.309018411000956
 11
7.153735580953812
 21
38.976081158393235
  0
LINE
  8
0
 10
7.153735580953812
 20
38.976081158393235
 11
6.971824791697715
 21
38.82339798182762
  0
LINE
  8
0
 10
6.971824791697715
 20
38.82339798182762
 11
4.2483982777875795
 21
39.214967599818344
  0
LINE
  8
0
 10
4.2483982777875795
 20
39.214967599818344
 11
4.116871975391029
 21
39.412716226696325
  0
LINE
  8
0
 10
4.116871975391029
 20
39.412716226696325
 11
4.0380465714298515
 21
39.78285435691342
  0
LINE
  8
0
 10
4.0380465714298515
 20
39.78285435691342
 11
4.03309905246252
 21
40.31883109441828
  0
LINE
  8
0
 10
4.03309905246252
 20
40.31883109441828
 11
4.058031476043823
 21
40.601865469290594
  0
LINE
  8
0
 10
4.058031476043823
 20
40.601865469290594
 11
4.062780449782415
 21
40.79648547571161
  0
LINE
  8
0
 10
4.062780449782415
 20
40.79648547571161
 11
4.048761398611392
 21
41.155120801533144
  0
LINE
  8
0
 10
4.048761398611392
 20
41.155120801533144
 11
3.9952142866300253
 21
41.67551363266702
  0
LINE
  8
0
 10
3.9952142866300253
 20
41.67551363266702
 11
3.8816317628791284
 21
42.35343618980151
  0
LINE
  8
0
 10
3.8816317628791284
 20
42.35343618980151
 11
3.687925181276577
 21
43.1827163383619
  0
LINE
  8
0
 10
3.687925181276577
 20
43.1827163383619
 11
3.3945882220068144
 21
44.15527630276488
  0
LINE
  8
0
 10
3.3945882220068144
 20
44.15527630276488
 11
3.3259734912873875
 21
44.339575175662105
  0
LINE
  8
0
 10
3.3259734912873875
 20
44.339575175662105
 11
2.1204111894366946
 21
44.512908866726846
  0
LINE
  8
0
 10
2.1204111894366946
 20
44.512908866726846
 11
0.9038313521878472
 21
44.45495602640656
  0
LINE
  8
0
 10
0.9038313521878472
 20
44.45495602640656
 11
0.8180085926387024
 21
44.27801391789004
  0
LINE
  8
0
 10
0.8180085926387024
 20
44.27801391789004
 11
0.43355218374047855
 21
43.33774123101124
  0
LINE
  8
0
 10
0.43355218374047855
 20
43.33774123101124
 11
0.16189463082533534
 21
42.53062910838323
  0
LINE
  8
0
 10
0.16189463082533534
 20
42.53062910838323
 11
-0.015614218412047697
 21
41.8665729423712
  0
LINE
  8
0
 10
-0.015614218412047697
 20
41.8665729423712
 11
-0.11838534841582313
 21
41.35362646686437
  0
LINE
  8
0
 10
-0.11838534841582313
 20
41.35362646686437
 11
-0.16643137529964297
 21
40.99794766510124
  0
LINE
  8
0
 10
-0.16643137529964297
 20
40.99794766510124
 11
-0.18020371303995458
 21
40.80375749448505
  0
LINE
  8
0
 10
-0.18020371303995458
 20
40.80375749448505
 11
-0.18228831319747377
 21
40.51963474364096
  0
LINE
  8
0
 10
-0.18228831319747377
 20
40.51963474364096
 11
-0.23816125738583493
 21
39.986555241879756
  0
LINE
  8
0
 10
-0.23816125738583493
 20
39.986555241879756
 11
-0.35181359995041617
 21
39.625585956787454
  0
LINE
  8
0
 10
-0.35181359995041617
 20
39.625585956787454
 11
-0.5015415431047436
 21
39.441235120899144
  0
LINE
  8
0
 10
-0.5015415431047436
 20
39.441235120899144
 11
-3.249857229457713
 21
39.3103167090988
  0
LINE
  8
0
 10
-3.249857229457713
 20
39.3103167090988
 11
-3.416430853932958
 21
39.479600244279915
  0
LINE
  8
0
 10
-3.416430853932958
 20
39.479600244279915
 11
-3.563880881884585
 21
39.82813169050438
  0
LINE
  8
0
 10
-3.563880881884585
 20
39.82813169050438
 11
-3.6701732572598886
 21
40.35348630600458
  0
LINE
  8
0
 10
-3.6701732572598886
 20
40.35348630600458
 11
-3.6992560026944545
 21
40.6361243731912
  0
LINE
  8
0
 10
-3.6992560026944545
 20
40.6361243731912
 11
-3.731424927490593
 21
40.82812609174692
  0
LINE
  8
0
 10
-3.731424927490593
 20
40.82812609174692
 11
-3.8130628178271397
 21
41.17762728714436
  0
LINE
  8
0
 10
-3.8130628178271397
 20
41.17762728714436
 11
-3.964127254585506
 21
41.67848208431012
  0
LINE
  8
0
 10
-3.964127254585506
 20
41.67848208431012
 11
-4.20395488168173
 21
42.322658063724745
  0
LINE
  8
0
 10
-4.20395488168173
 20
42.322658063724745
 11
-4.551103233044373
 21
43.10029282805738
  0
LINE
  8
0
 10
-4.551103233044373
 20
43.10029282805738
 11
-5.023197394797517
 21
43.999762982354774
  0
LINE
  8
0
 10
-5.023197394797517
 20
43.999762982354774
 11
-5.1254509589758905
 21
44.167745911355574
  0
LINE
  8
0
 10
-5.1254509589758905
 20
44.167745911355574
 11
-6.342030796224746
 21
44.10979307103526
  0
LINE
  8
0
 10
-6.342030796224746
 20
44.10979307103526
 11
-7.525657803785751
 21
43.822648265973804
  0
LINE
  8
0
 10
-7.525657803785751
 20
43.822648265973804
 11
-7.576443120048828
 21
43.63266166782815
  0
LINE
  8
0
 10
-7.576443120048828
 20
43.63266166782815
 11
-7.776004124762641
 21
42.636622079543216
  0
LINE
  8
0
 10
-7.776004124762641
 20
42.636622079543216
 11
-7.890005498252458
 21
41.79268399449706
  0
LINE
  8
0
 10
-7.890005498252458
 20
41.79268399449706
 11
-7.938633075593744
 21
41.107034417892436
  0
LINE
  8
0
 10
-7.938633075593744
 20
41.107034417892436
 11
-7.942471238614615
 21
40.583907989194984
  0
LINE
  8
0
 10
-7.942471238614615
 20
40.583907989194984
 11
-7.922336355375002
 21
40.22556399636142
  0
LINE
  8
0
 10
-7.922336355375002
 20
40.22556399636142
 11
-7.899109077598931
 21
40.032276663051924
  0
LINE
  8
0
 10
-7.899109077598931
 20
40.032276663051924
 11
-7.847385422167572
 21
39.75289386727909
  0
LINE
  8
0
 10
-7.847385422167572
 20
39.75289386727909
 11
-7.801362710415347
 21
39.218873782363545
  0
LINE
  8
0
 10
-7.801362710415347
 20
39.218873782363545
 11
-7.844647320711034
 21
38.842918835246174
  0
LINE
  8
0
 10
-7.844647320711034
 20
38.842918835246174
 11
-7.956780859785642
 21
38.6335632595656
  0
LINE
  8
0
 10
-7.956780859785642
 20
38.6335632595656
 11
-10.630654429009972
 21
37.98488855048126
  0
LINE
  8
0
 10
-10.630654429009972
 20
37.98488855048126
 11
-10.826254970772032
 21
38.119588645940105
  0
LINE
  8
0
 10
-10.826254970772032
 20
38.119588645940105
 11
-11.037000394526634
 21
38.43391657361555
  0
LINE
  8
0
 10
-11.037000394526634
 20
38.43391657361555
 11
-11.240795942921762
 21
38.92966138250882
  0
LINE
  8
0
 10
-11.240795942921762
 20
38.92966138250882
 11
-11.322842731177838
 21
39.20168786585532
  0
LINE
  8
0
 10
-11.322842731177838
 20
39.20168786585532
 11
-11.390766885751258
 21
39.384131854181526
  0
LINE
  8
0
 10
-11.390766885751258
 20
39.384131854181526
 11
-11.537073009191118
 21
39.71186703533675
  0
LINE
  8
0
 10
-11.537073009191118
 20
39.71186703533675
 11
-11.780194908387486
 21
40.175081601200375
  0
LINE
  8
0
 10
-11.780194908387486
 20
40.175081601200375
 11
-12.137599643520991
 21
40.76222880461494
  0
LINE
  8
0
 10
-12.137599643520991
 20
40.76222880461494
 11
-12.62564291873927
 21
41.46011243822923
  0
LINE
  8
0
 10
-12.62564291873927
 20
41.46011243822923
 11
-13.259431569940697
 21
42.253983587498084
  0
LINE
  8
0
 10
-13.259431569940697
 20
42.253983587498084
 11
-13.39162825734955
 21
42.399579231873204
  0
LINE
  8
0
 10
-13.39162825734955
 20
42.399579231873204
 11
-14.57525526491056
 21
42.11243442681168
  0
LINE
  8
0
 10
-14.57525526491056
 20
42.11243442681168
 11
-15.683150078820386
 21
41.606475818412406
  0
LINE
  8
0
 10
-15.683150078820386
 20
41.606475818412406
 11
-15.697062438147789
 21
41.410311341299824
  0
LINE
  8
0
 10
-15.697062438147789
 20
41.410311341299824
 11
-15.704515384015703
 21
40.394504317485215
  0
LINE
  8
0
 10
-15.704515384015703
 20
40.394504317485215
 11
-15.656740271414593
 21
39.54424239127371
  0
LINE
  8
0
 10
-15.656740271414593
 20
39.54424239127371
 11
-15.57472904951675
 21
38.86178056621754
  0
LINE
  8
0
 10
-15.57472904951675
 20
38.86178056621754
 11
-15.479495524342905
 21
38.3473813364552
  0
LINE
  8
0
 10
-15.479495524342905
 20
38.3473813364552
 11
-15.391907458121066
 21
37.99932363810837
  0
LINE
  8
0
 10
-15.391907458121066
 20
37.99932363810837
 11
-15.332520059165521
 21
37.81392504993662
  0
LINE
  8
0
 10
-15.332520059165521
 20
37.81392504993662
 11
-15.228857575817242
 21
37.549379831399044
  0
LINE
  8
0
 10
-15.228857575817242
 20
37.549379831399044
 11
-15.082602588838167
 21
37.03372004057375
  0
LINE
  8
0
 10
-15.082602588838167
 20
37.03372004057375
 11
-15.053955048271922
 21
36.65636742276121
  0
LINE
  8
0
 10
-15.053955048271922
 20
36.65636742276121
 11
-15.12444138500357
 21
36.42957376326408
  0
LINE
  8
0
 10
-15.12444138500357
 20
36.42957376326408
 11
-17.627232079597864
 21
35.28658755098752
  0
LINE
  8
0
 10
-17.627232079597864
 20
35.28658755098752
 11
-17.844790025435213
 21
35.381835794316544
  0
LINE
  8
0
 10
-17.844790025435213
 20
35.381835794316544
 11
-18.11121395628646
 21
35.65059957316336
  0
LINE
  8
0
 10
-18.11121395628646
 20
35.65059957316336
 11
-18.405146975598285
 21
36.09881706640579
  0
LINE
  8
0
 10
-18.405146975598285
 20
36.09881706640579
 11
-18.537192421977473
 21
36.350400220045934
  0
LINE
  8
0
 10
-18.537192421977473
 20
36.350400220045934
 11
-18.638416850407236
 21
36.51669247705135
  0
LINE
  8
0
 10
-18.638416850407236
 20
36.51669247705135
 11
-18.8441033224524
 21
36.810816440611724
  0
LINE
  8
0
 10
-18.8441033224524
 20
36.810816440611724
 11
-19.170495625201884
 21
37.21964899386912
  0
LINE
  8
0
 10
-19.170495625201884
 20
37.21964899386912
 11
-19.632559930035992
 21
37.728546391555106
  0
LINE
  8
0
 10
-19.632559930035992
 20
37.728546391555106
 11
-20.243858973559174
 21
38.32145556161416
  0
LINE
  8
0
 10
-20.243858973559174
 20
38.32145556161416
 11
-21.016435341034235
 21
38.9810351341088
  0
LINE
  8
0
 10
-21.016435341034235
 20
38.9810351341088
 11
-21.173797218955517
 21
39.09898128792477
  0
LINE
  8
0
 10
-21.173797218955517
 20
39.09898128792477
 11
-22.281692032865347
 21
38.59302267952545
  0
LINE
  8
0
 10
-22.281692032865347
 20
38.59302267952545
 11
-23.273812447957493
 21
37.886536930158165
  0
LINE
  8
0
 10
-23.273812447957493
 20
37.886536930158165
 11
-23.250349021434833
 21
37.6912844693831
  0
LINE
  8
0
 10
-23.250349021434833
 20
37.6912844693831
 11
-23.065424539574725
 21
36.69242392253886
  0
LINE
  8
0
 10
-23.065424539574725
 20
36.69242392253886
 11
-22.857599657928933
 21
35.866568836511135
  0
LINE
  8
0
 10
-22.857599657928933
 20
35.866568836511135
 11
-22.6479137360295
 21
35.21196071149789
  0
LINE
  8
0
 10
-22.6479137360295
 20
35.21196071149789
 11
-22.45705051038925
 21
34.72488040908839
  0
LINE
  8
0
 10
-22.45705051038925
 20
34.72488040908839
 11
-22.305174922106925
 21
34.399688717302034
  0
LINE
  8
0
 10
-22.305174922106925
 20
34.399688717302034
 11
-22.21177381730252
 21
34.22887966229587
  0
LINE
  8
0
 10
-22.21177381730252
 20
34.22887966229587
 11
-22.059919138275497
 21
33.98873337445734
  0
LINE
  8
0
 10
-22.059919138275497
 20
33.98873337445734
 11
-21.81871791236264
 21
33.5100711661012
  0
LINE
  8
0
 10
-21.81871791236264
 20
33.5100711661012
 11
-21.719173617690963
 21
33.14495938438389
  0
LINE
  8
0
 10
-21.719173617690963
 20
33.14495938438389
 11
-21.745465192219807
 21
32.90892455482957
  0
LINE
  8
0
 10
-21.745465192219807
 20
32.90892455482957
 11
-23.986715635523872
 21
31.312937339093978
  0
LINE
  8
0
 10
-23.986715635523872
 20
31.312937339093978
 11
-24.218367874432257
 21
31.365291210612394
  0
LINE
  8
0
 10
-24.218367874432257
 20
31.365291210612394
 11
-24.530841057358394
 21
31.57877701740587
  0
LINE
  8
0
 10
-24.530841057358394
 20
31.57877701740587
 11
-24.904288042433986
 21
31.96326744697238
  0
LINE
  8
0
 10
-24.904288042433986
 20
31.96326744697238
 11
-25.081559680463087
 21
32.1853144002401
  0
LINE
  8
0
 10
-25.081559680463087
 20
32.1853144002401
 11
-25.212425868168065
 21
32.329444690486305
  0
LINE
  8
0
 10
-25.212425868168065
 20
32.329444690486305
 11
-25.470058643807953
 21
32.57932703007623
  0
LINE
  8
0
 10
-25.470058643807953
 20
32.57932703007623
 11
-25.867924681882332
 21
32.91900129704985
  0
LINE
  8
0
 10
-25.867924681882332
 20
32.91900129704985
 11
-26.417948348543536
 21
33.33125601113566
  0
LINE
  8
0
 10
-26.417948348543536
 20
33.33125601113566
 11
-27.130409220214563
 21
33.797761435423766
  0
LINE
  8
0
 10
-27.130409220214563
 20
33.797761435423766
 11
-28.013850381114622
 21
34.29921050687641
  0
LINE
  8
0
 10
-28.013850381114622
 20
34.29921050687641
 11
-28.190689981277856
 21
34.385244288828545
  0
LINE
  8
0
 10
-28.190689981277856
 20
34.385244288828545
 11
-29.182810396369987
 21
33.67875853946127
  0
LINE
  8
0
 10
-29.182810396369987
 20
33.67875853946127
 11
-30.023298595898506
 21
32.79727988483888
  0
LINE
  8
0
 10
-30.023298595898506
 20
32.79727988483888
 11
-29.9633074128937
 21
32.609996373059055
  0
LINE
  8
0
 10
-29.9633074128937
 20
32.609996373059055
 11
-29.592689155896036
 21
31.664183725853906
  0
LINE
  8
0
 10
-29.592689155896036
 20
31.664183725853906
 11
-29.232325837910683
 21
30.89258403456345
  0
LINE
  8
0
 10
-29.232325837910683
 20
30.89258403456345
 11
-28.902543811558452
 21
30.289488852795927
  0
LINE
  8
0
 10
-28.902543811558452
 20
30.289488852795927
 11
-28.622949179715725
 21
29.84733182894371
  0
LINE
  8
0
 10
-28.622949179715725
 20
29.84733182894371
 11
-28.412275248841414
 21
29.556759418737677
  0
LINE
  8
0
 10
-28.412275248841414
 20
29.556759418737677
 11
-28.28823619746999
 21
29.406713381183668
  0
LINE
  8
0
 10
-28.28823619746999
 20
29.406713381183668
 11
-28.09367774651776
 21
29.199645536581727
  0
LINE
  8
0
 10
-28.09367774651776
 20
29.199645536581727
 11
-27.76624792241927
 21
28.775281010046953
  0
LINE
  8
0
 10
-27.76624792241927
 20
28.775281010046953
 11
-27.599404663811733
 21
28.435606155505603
  0
LINE
  8
0
 10
-27.599404663811733
 20
28.435606155505603
 11
-27.580551230132272
 21
28.19886106961692
  0
LINE
  8
0
 10
-27.580551230132272
 20
28.19886106961692
 11
-29.479256791604033
 21
26.20755598670312
  0
LINE
  8
0
 10
-29.479256791604033
 20
26.20755598670312
 11
-29.716630808105275
 21
26.21512328108758
  0
LINE
  8
0
 10
-29.716630808105275
 20
26.21512328108758
 11
-30.06385964813442
 21
26.36561518253834
  0
LINE
  8
0
 10
-30.06385964813442
 20
26.36561518253834
 11
-30.503323251926517
 21
26.672482062524363
  0
LINE
  8
0
 10
-30.503323251926517
 20
26.672482062524363
 11
-30.71941402273041
 21
26.856967459990877
  0
LINE
  8
0
 10
-30.71941402273041
 20
26.856967459990877
 11
-30.875192124718417
 21
26.973726539260557
  0
LINE
  8
0
 10
-30.875192124718417
 20
26.973726539260557
 11
-31.17545968418575
 21
27.170335856065172
  0
LINE
  8
0
 10
-31.17545968418575
 20
27.170335856065172
 11
-31.63041954233917
 21
27.42857512373393
  0
LINE
  8
0
 10
-31.63041954233917
 20
27.42857512373393
 11
-32.24852328244164
 21
27.7292871947333
  0
LINE
  8
0
 10
-32.24852328244164
 20
27.7292871947333
 11
-33.03639579005963
 21
28.052528151748664
  0
LINE
  8
0
 10
-33.03639579005963
 20
28.052528151748664
 11
-33.998771879046274
 21
28.377723046204217
  0
LINE
  8
0
 10
-33.998771879046274
 20
28.377723046204217
 11
-34.1886977575505
 21
28.428734971253988
  0
LINE
  8
0
 10
-34.1886977575505
 20
28.428734971253988
 11
-35.02918595707902
 21
27.547256316631554
  0
LINE
  8
0
 10
-35.02918595707902
 20
27.547256316631554
 11
-35.68766450764228
 21
26.522643692002244
  0
LINE
  8
0
 10
-35.68766450764228
 20
26.522643692002244
 11
-35.5933138058146
 21
26.350098043295823
  0
LINE
  8
0
 10
-35.5933138058146
 20
26.350098043295823
 11
-35.05039688312372
 21
25.491517429090575
  0
LINE
  8
0
 10
-35.05039688312372
 20
25.491517429090575
 11
-34.55051959802827
 21
24.802060755764007
  0
LINE
  8
0
 10
-34.55051959802827
 20
24.802060755764007
 11
-34.1125606488943
 21
24.272275948460464
  0
LINE
  8
0
 10
-34.1125606488943
 20
24.272275948460464
 11
-33.7543398893206
 21
23.891022910036423
  0
LINE
  8
0
 10
-33.7543398893206
 20
23.891022910036423
 11
-33.49248192062168
 21
23.645571825394594
  0
LINE
  8
0
 10
-33.49248192062168
 20
23.645571825394594
 11
-33.34228801718038
 21
23.52171186003108
  0
LINE
  8
0
 10
-33.34228801718038
 20
23.52171186003108
 11
-33.11205764363747
 21
23.35520643007964
  0
LINE
  8
0
 10
-33.11205764363747
 20
23.35520643007964
 11
-32.71023338830636
 21
23.00047722502619
  0
LINE
  8
0
 10
-32.71023338830636
 20
23.00047722502619
 11
-32.48212131583491
 21
22.698516031918132
  0
LINE
  8
0
 10
-32.48212131583491
 20
22.698516031918132
 11
-32.418804286162455
 21
22.469617273932414
  0
LINE
  8
0
 10
-32.418804286162455
 20
22.469617273932414
 11
-33.90634079978123
 21
20.154965277831703
  0
LINE
  8
0
 10
-33.90634079978123
 20
20.154965277831703
 11
-34.140857278447015
 21
20.117472493346746
  0
LINE
  8
0
 10
-34.140857278447015
 20
20.117472493346746
 11
-34.510292020604595
 21
20.199531320033543
  0
LINE
  8
0
 10
-34.510292020604595
 20
20.199531320033543
 11
-34.99988888346089
 21
20.417683681862528
  0
LINE
  8
0
 10
-34.99988888346089
 20
20.417683681862528
 11
-35.246988703563716
 21
20.557939740591372
  0
LINE
  8
0
 10
-35.246988703563716
 20
20.557939740591372
 11
-35.42204849335302
 21
20.64310763154691
  0
LINE
  8
0
 10
-35.42204849335302
 20
20.64310763154691
 11
-35.75409838470915
 21
20.77933795259632
  0
LINE
  8
0
 10
-35.75409838470915
 20
20.77933795259632
 11
-36.2497086282816
 21
20.946808780990803
  0
LINE
  8
0
 10
-36.2497086282816
 20
20.946808780990803
 11
-36.91355256220445
 21
21.125109691160173
  0
LINE
  8
0
 10
-36.91355256220445
 20
21.125109691160173
 11
-37.7483609405623
 21
21.29340341052016
  0
LINE
  8
0
 10
-37.7483609405623
 20
21.29340341052016
 11
-38.754889178333094
 21
21.430590737205957
  0
LINE
  8
0
 10
-38.754889178333094
 20
21.430590737205957
 11
-38.95103691908211
 21
21.444737101471762
  0
LINE
  8
0
 10
-38.95103691908211
 20
21.444737101471762
 11
-39.60951546964537
 21
20.420124476842474
  0
LINE
  8
0
 10
-39.60951546964537
 20
20.420124476842474
 11
-40.06218524077695
 21
19.289410052062586
  0
LINE
  8
0
 10
-40.06218524077695
 20
19.289410052062586
 11
-39.93688510031879
 21
19.13783851573709
  0
LINE
  8
0
 10
-39.93688510031879
 20
19.13783851573709
 11
-39.241291944076984
 21
18.39752127493909
  0
LINE
  8
0
 10
-39.241291944076984
 20
18.39752127493909
 11
-38.61996755937235
 21
17.815126380112268
  0
LINE
  8
0
 10
-38.61996755937235
 20
17.815126380112268
 11
-38.08966066496925
 21
17.37779975054951
  0
LINE
  8
0
 10
-38.08966066496925
 20
17.37779975054951
 11
-37.66576080925064
 21
17.0712301757074
  0
LINE
  8
0
 10
-37.66576080925064
 20
17.0712301757074
 11
-37.36218303198018
 21
16.879771658345287
  0
LINE
  8
0
 10
-37.36218303198018
 20
16.879771658345287
 11
-37.19126267546579
 21
16.786574387034506
  0
LINE
  8
0
 10
-37.19126267546579
 20
16.786574387034506
 11
-36.93368150489141
 21
16.666649311797677
  0
LINE
  8
0
 10
-36.93368150489141
 20
16.666649311797677
 11
-36.47198579385824
 21
16.394376265934117
  0
LINE
  8
0
 10
-36.47198579385824
 20
16.394376265934117
 11
-36.190849472162185
 21
16.14104239853048
  0
LINE
  8
0
 10
-36.190849472162185
 20
16.14104239853048
 11
-36.08535728892003
 21
15.928262965951234
  0
LINE
  8
0
 10
-36.08535728892003
 20
15.928262965951234
 11
-37.10796130934505
 21
13.373921610569637
  0
LINE
  8
0
 10
-37.10796130934505
 20
13.373921610569637
 11
-37.33114421360967
 21
13.292723834133051
  0
LINE
  8
0
 10
-37.33114421360967
 20
13.292723834133051
 11
-37.70943252376127
 21
13.303383766257232
  0
LINE
  8
0
 10
-37.70943252376127
 20
13.303383766257232
 11
-38.23146733942596
 21
13.424937015182243
  0
LINE
  8
0
 10
-38.23146733942596
 20
13.424937015182243
 11
-38.5006453775169
 21
13.515894515777369
  0
LINE
  8
0
 10
-38.5006453775169
 20
13.515894515777369
 11
-38.68865973819069
 21
13.566393028936856
  0
LINE
  8
0
 10
-38.68865973819069
 20
13.566393028936856
 11
-39.040490813214454
 21
13.637320635483695
  0
LINE
  8
0
 10
-39.040490813214454
 20
13.637320635483695
 11
-39.55883879670332
 21
13.707970192524746
  0
LINE
  8
0
 10
-39.55883879670332
 20
13.707970192524746
 11
-40.244429875046094
 21
13.757415682412098
  0
LINE
  8
0
 10
-40.244429875046094
 20
13.757415682412098
 11
-41.09600197427792
 21
13.764679590614026
  0
LINE
  8
0
 10
-41.09600197427792
 20
13.764679590614026
 11
-42.11030380783609
 21
13.708901042105554
  0
LINE
  8
0
 10
-42.11030380783609
 20
13.708901042105554
 11
-42.30558412042128
 21
13.685670559124846
  0
LINE
  8
0
 10
-42.30558412042128
 20
13.685670559124846
 11
-42.75825389155282
 21
12.554956134344952
  0
LINE
  8
0
 10
-42.75825389155282
 20
12.554956134344952
 11
-42.988754218304436
 21
11.3590068747737
  0
LINE
  8
0
 10
-42.988754218304436
 20
11.3590068747737
 11
-42.837033312758265
 21
11.233887641067733
  0
LINE
  8
0
 10
-42.837033312758265
 20
11.233887641067733
 11
-42.0139044719824
 21
10.638590767637178
  0
LINE
  8
0
 10
-42.0139044719824
 20
10.638590767637178
 11
-41.2935892697767
 21
10.184306920224243
  0
LINE
  8
0
 10
-41.2935892697767
 20
10.184306920224243
 11
-40.69010110296934
 21
9.855244592238085
  0
LINE
  8
0
 10
-40.69010110296934
 20
9.855244592238085
 11
-40.21584299635181
 21
9.634438704171933
  0
LINE
  8
0
 10
-40.21584299635181
 20
9.634438704171933
 11
-39.881517502344536
 21
9.503892563747309
  0
LINE
  8
0
 10
-39.881517502344536
 20
9.503892563747309
 11
-39.69604819977012
 21
9.444726378697544
  0
LINE
  8
0
 10
-39.69604819977012
 20
9.444726378697544
 11
-39.42042588679003
 21
9.375716062856126
  0
LINE
  8
0
 10
-39.42042588679003
 20
9.375716062856126
 11
-38.91554560598797
 21
9.195739833460467
  0
LINE
  8
0
 10
-38.91554560598797
 20
9.195739833460467
 11
-38.591546034226965
 21
9.000189437784174
  0
LINE
  8
0
 10
-38.591546034226965
 20
9.000189437784174
 11
-38.447691459774674
 21
8.811219733696207
  0
LINE
  8
0
 10
-38.447691459774674
 20
8.811219733696207
 11
-38.968403413339004
 21
6.109509570888705
  0
LINE
  8
0
 10
-38.968403413339004
 20
6.109509570888705
 11
-39.172186331544935
 21
5.98754150169965
  0
LINE
  8
0
 10
-39.172186331544935
 20
5.98754150169965
 11
-39.54565588454111
 21
5.926417261540071
  0
LINE
  8
0
 10
-39.54565588454111
 20
5.926417261540071
 11
-40.08126095462763
 21
5.946978146441055
  0
LINE
  8
0
 10
-40.08126095462763
 20
5.946978146441055
 11
-40.36278841507354
 21
5.9853496478434955
  0
LINE
  8
0
 10
-40.36278841507354
 20
5.9853496478434955
 11
-40.5569620177704
 21
5.999353635368754
  0
LINE
  8
0
 10
-40.5569620177704
 20
5.999353635368754
 11
-40.91585818472353
 21
6.002415018912344
  0
LINE
  8
0
 10
-40.91585818472353
 20
6.002415018912344
 11
-41.43820946146304
 21
5.973689845532873
  0
LINE
  8
0
 10
-41.43820946146304
 20
5.973689845532873
 11
-42.120768636364275
 21
5.892492826304714
  0
LINE
  8
0
 10
-42.120768636364275
 20
5.892492826304714
 11
-42.95832642205439
 21
5.738464386780238
  0
LINE
  8
0
 10
-42.95832642205439
 20
5.738464386780238
 11
-43.94374234039749
 21
5.491735945150181
  0
LINE
  8
0
 10
-43.94374234039749
 20
5.491735945150181
 11
-44.13109728552415
 21
5.431968225104322
  0
LINE
  8
0
 10
-44.13109728552415
 20
5.431968225104322
 11
-44.361597612275695
 21
4.23601896553302
  0
LINE
  8
0
 10
-44.361597612275695
 20
4.23601896553302
 11
-44.361597612275695
 21
3.018059593426691
  0
LINE
  8
0
 10
-44.361597612275695
 20
3.018059593426691
 11
-44.18893953047299
 21
2.9239147974413875
  0
LINE
  8
0
 10
-44.18893953047299
 20
2.9239147974413875
 11
-43.26802502610999
 21
2.4951538714149315
  0
LINE
  8
0
 10
-43.26802502610999
 20
2.4951538714149315
 11
-42.4747530745739
 21
2.1854000732864076
  0
LINE
  8
0
 10
-42.4747530745739
 20
2.1854000732864076
 11
-41.81989527008377
 21
1.9764952167738037
  0
LINE
  8
0
 10
-41.81989527008377
 20
1.9764952167738037
 11
-41.312419836207916
 21
1.849433515582451
  0
LINE
  8
0
 10
-41.312419836207916
 20
1.849433515582451
 11
-40.95943001989383
 21
1.784518029744912
  0
LINE
  8
0
 10
-40.95943001989383
 20
1.784518029744912
 11
-40.76611511508999
 21
1.7615213510398589
  0
LINE
  8
0
 10
-40.76611511508999
 20
1.7615213510398589
 11
-40.48241336822222
 21
1.7459200072129837
  0
LINE
  8
0
 10
-40.48241336822222
 20
1.7459200072129837
 11
-39.952596206452206
 21
1.6647454041390712
  0
LINE
  8
0
 10
-39.952596206452206
 20
1.6647454041390712
 11
-39.59744357332233
 21
1.5340461809914532
  0
LINE
  8
0
 10
-39.59744357332233
 20
1.5340461809914532
 11
-39.42042588679005
 21
1.3757160628562726
  0
LINE
  8
0
 10
-39.42042588679005
 20
1.3757160628562726
 11
-39.4204258867901
 21
-1.3757160628561025
  0
LINE
  8
0
 10
-39.4204258867901
 20
-1.3757160628561025
 11
-39.59744357332218
 21
-1.5340461809924275
  0
LINE
  8
0
 10
-39.59744357332218
 20
-1.5340461809924275
 11
-39.95259620645222
 21
-1.6647454041387497
  0
LINE
  8
0
 10
-39.95259620645222
 20
-1.6647454041387497
 11
-40.48241336822223
 21
-1.7459200072129752
  0
LINE
  8
0
 10
-40.48241336822223
 20
-1.7459200072129752
 11
-40.766115115089946
 21
-1.7615213510398775
  0
LINE
  8
0
 10
-40.766115115089946
 20
-1.7615213510398775
 11
-40.95943001989406
 21
-1.784518029745043
  0
LINE
  8
0
 10
-40.95943001989406
 20
-1.784518029745043
 11
-41.31241983620801
 21
-1.849433515582325
  0
LINE
  8
0
 10
-41.31241983620801
 20
-1.849433515582325
 11
-41.81989527008381
 21
-1.976495216773676
  0
LINE
  8
0
 10
-41.81989527008381
 20
-1.976495216773676
 11
-42.47475307457201
 21
-2.1854000732856713
  0
LINE
  8
0
 10
-42.47475307457201
 20
-2.1854000732856713
 11
-43.26802502611003
 21
-2.495153871414952
  0
LINE
  8
0
 10
-43.26802502611003
 20
-2.495153871414952
 11
-44.18893953047302
 21
-2.923914797441401
  0
LINE
  8
0
 10
-44.18893953047302
 20
-2.923914797441401
 11
-44.361597612275666
 21
-3.018059593426691
  0
LINE
  8
0
 10
-44.361597612275666
 20
-3.018059593426691
 11
-44.36159761227566
 21
-4.236018965533007
  0
LINE
  8
0
 10
-44.36159761227566
 20
-4.236018965533007
 11
-44.13109728552418
 21
-5.431968225104285
  0
LINE
  8
0
 10
-44.13109728552418
 20
-5.431968225104285
 11
-43.94374234039746
 21
-5.4917359451501495
  0
LINE
  8
0
 10
-43.94374234039746
 20
-5.4917359451501495
 11
-42.95832642205435
 21
-5.73846438678021
  0
LINE
  8
0
 10
-42.95832642205435
 20
-5.73846438678021
 11
-42.120768636366286
 21
-5.89249282630431
  0
LINE
  8
0
 10
-42.120768636366286
 20
-5.89249282630431
 11
-41.43820946146303
 21
-5.973689845532703
  0
LINE
  8
0
 10
-41.43820946146303
 20
-5.973689845532703
 11
-40.915858184723476
 21
-6.002415018912166
  0
LINE
  8
0
 10
-40.915858184723476
 20
-6.002415018912166
 11
-40.55696201777016
 21
-5.999353635368804
  0
LINE
  8
0
 10
-40.55696201777016
 20
-5.999353635368804
 11
-40.362788415073574
 21
-5.985349647843483
  0
LINE
  8
0
 10
-40.362788415073574
 20
-5.985349647843483
 11
-40.08126095462762
 21
-5.946978146441008
  0
LINE
  8
0
 10
-40.08126095462762
 20
-5.946978146441008
 11
-39.54565588454116
 21
-5.926417261539716
  0
LINE
  8
0
 10
-39.54565588454116
 20
-5.926417261539716
 11
-39.17218633154491
 21
-5.9875415017006
  0
LINE
  8
0
 10
-39.17218633154491
 20
-5.9875415017006
 11
-38.96840341333898
 21
-6.109509570888493
  0
LINE
  8
0
 10
-38.96840341333898
 20
-6.109509570888493
 11
-38.44769145977477
 21
-8.811219733696014
  0
LINE
  8
0
 10
-38.44769145977477
 20
-8.811219733696014
 11
-38.59154603422664
 21
-9.000189437785064
  0
LINE
  8
0
 10
-38.59154603422664
 20
-9.000189437785064
 11
-38.91554560598805
 21
-9.195739833460115
  0
LINE
  8
0
 10
-38.91554560598805
 20
-9.195739833460115
 11
-39.420425886790056
 21
-9.375716062856082
  0
LINE
  8
0
 10
-39.420425886790056
 20
-9.375716062856082
 11
-39.69604819977009
 21
-9.444726378697519
  0
LINE
  8
0
 10
-39.69604819977009
 20
-9.444726378697519
 11
-39.881517502344735
 21
-9.50389256374744
  0
LINE
  8
0
 10
-39.881517502344735
 20
-9.50389256374744
 11
-40.21584299635193
 21
-9.634438704171787
  0
LINE
  8
0
 10
-40.21584299635193
 20
-9.634438704171787
 11
-40.690101102969415
 21
-9.855244592237927
  0
LINE
  8
0
 10
-40.690101102969415
 20
-9.855244592237927
 11
-41.29358926977499
 21
-10.18430692022312
  0
LINE
  8
0
 10
-41.29358926977499
 20
-10.18430692022312
 11
-42.01390447198245
 21
-10.638590767637165
  0
LINE
  8
0
 10
-42.01390447198245
 20
-10.638590767637165
 11
-42.837033312758294
 21
-11.233887641067712
  0
LINE
  8
0
 10
-42.837033312758294
 20
-11.233887641067712
 11
-42.98875421830442
 21
-11.359006874773652
  0
LINE
  8
0
 10
-42.98875421830442
 20
-11.359006874773652
 11
-42.758253891552876
 21
-12.55495613434492
  0
LINE
  8
0
 10
-42.758253891552876
 20
-12.55495613434492
 11
-42.305584120421315
 21
-13.685670559124816
  0
LINE
  8
0
 10
-42.305584120421315
 20
-13.685670559124816
 11
-42.110303807836075
 21
-13.708901042105522
  0
LINE
  8
0
 10
-42.110303807836075
 20
-13.708901042105522
 11
-41.09600197427789
 21
-13.764679590613992
  0
LINE
  8
0
 10
-41.09600197427789
 20
-13.764679590613992
 11
-40.24442987504814
 21
-13.757415682412082
  0
LINE
  8
0
 10
-40.24442987504814
 20
-13.757415682412082
 11
-39.558838796703355
 21
-13.707970192524575
  0
LINE
  8
0
 10
-39.558838796703355
 20
-13.707970192524575
 11
-39.04049081321443
 21
-13.63732063548351
  0
LINE
  8
0
 10
-39.04049081321443
 20
-13.63732063548351
 11
-38.688659738190445
 21
-13.566393028936861
  0
LINE
  8
0
 10
-38.688659738190445
 20
-13.566393028936861
 11
-38.500645377516946
 21
-13.515894515777363
  0
LINE
  8
0
 10
-38.500645377516946
 20
-13.515894515777363
 11
-38.231467339425976
 21
-13.424937015182197
  0
LINE
  8
0
 10
-38.231467339425976
 20
-13.424937015182197
 11
-37.70943252376139
 21
-13.303383766256898
  0
LINE
  8
0
 10
-37.70943252376139
 20
-13.303383766256898
 11
-37.33114421360946
 21
-13.292723834133978
  0
LINE
  8
0
 10
-37.33114421360946
 20
-13.292723834133978
 11
-37.107961309345086
 21
-13.373921610569427
  0
LINE
  8
0
 10
-37.107961309345086
 20
-13.373921610569427
 11
-36.08535728892015
 21
-15.928262965951062
  0
LINE
  8
0
 10
-36.08535728892015
 20
-15.928262965951062
 11
-36.1908494721617
 21
-16.1410423985313
  0
LINE
  8
0
 10
-36.1908494721617
 20
-16.1410423985313
 11
-36.47198579385839
 21
-16.394376265933797
  0
LINE
  8
0
 10
-36.47198579385839
 20
-16.394376265933797
 11
-36.93368150489143
 21
-16.666649311797645
  0
LINE
  8
0
 10
-36.93368150489143
 20
-16.666649311797645
 11
-37.191262675465765
 21
-16.786574387034477
  0
LINE
  8
0
 10
-37.191262675465765
 20
-16.786574387034477
 11
-37.36218303198035
 21
-16.879771658345465
  0
LINE
  8
0
 10
-37.36218303198035
 20
-16.879771658345465
 11
-37.66576080925079
 21
-17.07123017570729
  0
LINE
  8
0
 10
-37.66576080925079
 20
-17.07123017570729
 11
-38.08966066496935
 21
-17.37779975054938
  0
LINE
  8
0
 10
-38.08966066496935
 20
-17.37779975054938
 11
-38.61996755937088
 21
-17.81512638011085
  0
LINE
  8
0
 10
-38.61996755937088
 20
-17.81512638011085
 11
-39.24129194407703
 21
-18.39752127493909
  0
LINE
  8
0
 10
-39.24129194407703
 20
-18.39752127493909
 11
-39.936885100318825
 21
-19.137838515737084
  0
LINE
  8
0
 10
-39.936885100318825
 20
-19.137838515737084
 11
-40.062185240776934
 21
-19.289410052062532
  0
LINE
  8
0
 10
-40.062185240776934
 20
-19.289410052062532
 11
-39.60951546964537
 21
-20.420124476842453
  0
LINE
  8
0
 10
-39.60951546964537
 20
-20.420124476842453
 11
-38.95103691908217
 21
-21.444737101471777
  0
LINE
  8
0
 10
-38.95103691908217
 20
-21.444737101471777
 11
-38.75488917833308
 21
-21.430590737205943
  0
LINE
  8
0
 10
-38.75488917833308
 20
-21.430590737205943
 11
-37.74836094056227
 21
-21.29340341052014
  0
LINE
  8
0
 10
-37.74836094056227
 20
-21.29340341052014
 11
-36.91355256220646
 21
-21.125109691160564
  0
LINE
  8
0
 10
-36.91355256220646
 20
-21.125109691160564
 11
-36.24970862828165
 21
-20.946808780990665
  0
LINE
  8
0
 10
-36.24970862828165
 20
-20.946808780990665
 11
-35.75409838470916
 21
-20.779337952596155
  0
LINE
  8
0
 10
-35.75409838470916
 20
-20.779337952596155
 11
-35.422048493352776
 21
-20.64310763154689
  0
LINE
  8
0
 10
-35.422048493352776
 20
-20.64310763154689
 11
-35.24698870356375
 21
-20.557939740591397
  0
LINE
  8
0
 10
-35.24698870356375
 20
-20.557939740591397
 11
-34.9998888834609
 21
-20.417683681862503
  0
LINE
  8
0
 10
-34.9998888834609
 20
-20.417683681862503
 11
-34.51029202060477
 21
-20.199531320033252
  0
LINE
  8
0
 10
-34.51029202060477
 20
-20.199531320033252
 11
-34.14085727844663
 21
-20.117472493347638
  0
LINE
  8
0
 10
-34.14085727844663
 20
-20.117472493347638
 11
-33.9063407997813
 21
-20.15496527783152
  0
LINE
  8
0
 10
-33.9063407997813
 20
-20.15496527783152
 11
-32.41880428616261
 21
-22.46961727393229
  0
LINE
  8
0
 10
-32.41880428616261
 20
-22.46961727393229
 11
-32.48212131583426
 21
-22.698516031918857
  0
LINE
  8
0
 10
-32.48212131583426
 20
-22.698516031918857
 11
-32.71023338830656
 21
-23.00047722502592
  0
LINE
  8
0
 10
-32.71023338830656
 20
-23.00047722502592
 11
-33.1120576436375
 21
-23.35520643007963
  0
LINE
  8
0
 10
-33.1120576436375
 20
-23.35520643007963
 11
-33.34228801718036
 21
-23.52171186003107
  0
LINE
  8
0
 10
-33.34228801718036
 20
-23.52171186003107
 11
-33.492481920621806
 21
-23.64557182539481
  0
LINE
  8
0
 10
-33.492481920621806
 20
-23.64557182539481
 11
-33.754339889320754
 21
-23.891022910036355
  0
LINE
  8
0
 10
-33.754339889320754
 20
-23.891022910036355
 11
-34.11256064889442
 21
-24.272275948460365
  0
LINE
  8
0
 10
-34.11256064889442
 20
-24.272275948460365
 11
-34.550519598027094
 21
-24.802060755762348
  0
LINE
  8
0
 10
-34.550519598027094
 20
-24.802060755762348
 11
-35.05039688312376
 21
-25.4915174290906
  0
LINE
  8
0
 10
-35.05039688312376
 20
-25.4915174290906
 11
-35.59331380581464
 21
-26.35009804329584
  0
LINE
  8
0
 10
-35.59331380581464
 20
-26.35009804329584
 11
-35.68766450764232
 21
-26.522643692002248
  0
LINE
  8
0
 10
-35.68766450764232
 20
-26.522643692002248
 11
-35.029185957079044
 21
-27.547256316631536
  0
LINE
  8
0
 10
-35.029185957079044
 20
-27.547256316631536
 11
-34.188697757550536
 21
-28.428734971253952
  0
LINE
  8
0
 10
-34.188697757550536
 20
-28.428734971253952
 11
-33.998771879046274
 21
-28.377723046204178
  0
LINE
  8
0
 10
-33.998771879046274
 20
-28.377723046204178
 11
-33.036395790059615
 21
-28.052528151748618
  0
LINE
  8
0
 10
-33.036395790059615
 20
-28.052528151748618
 11
-32.24852328244355
 21
-27.72928719473404
  0
LINE
  8
0
 10
-32.24852328244355
 20
-27.72928719473404
 11
-31.630419542339258
 21
-27.42857512373378
  0
LINE
  8
0
 10
-31.630419542339258
 20
-27.42857512373378
 11
-31.1754596841858
 21
-27.17033585606499
  0
LINE
  8
0
 10
-31.1754596841858
 20
-27.17033585606499
 11
-30.87519212471819
 21
-26.973726539260472
  0
LINE
  8
0
 10
-30.87519212471819
 20
-26.973726539260472
 11
-30.71941402273045
 21
-26.856967459990887
  0
LINE
  8
0
 10
-30.71941402273045
 20
-26.856967459990887
 11
-30.50332325192654
 21
-26.672482062524324
  0
LINE
  8
0
 10
-30.50332325192654
 20
-26.672482062524324
 11
-30.06385964813466
 21
-26.365615182538072
  0
LINE
  8
0
 10
-30.06385964813466
 20
-26.365615182538072
 11
-29.716630808104743
 21
-26.215123281088363
  0
LINE
  8
0
 10
-29.716630808104743
 20
-26.215123281088363
 11
-29.47925679160414
 21
-26.20755598670294
  0
LINE
  8
0
 10
-29.47925679160414
 20
-26.20755598670294
 11
-27.580551230132457
 21
-28.198861069616807
  0
LINE
  8
0
 10
-27.580551230132457
 20
-28.198861069616807
 11
-27.59940466381098
 21
-28.43560615550617
  0
LINE
  8
0
 10
-27.59940466381098
 20
-28.43560615550617
 11
-27.766247922419534
 21
-28.7752810100467
  0
LINE
  8
0
 10
-27.766247922419534
 20
-28.7752810100467
 11
-28.093677746517795
 21
-29.199645536581695
  0
LINE
  8
0
 10
-28.093677746517795
 20
-29.199645536581695
 11
-28.288236197469967
 21
-29.406713381183625
  0
LINE
  8
0
 10
-28.288236197469967
 20
-29.406713381183625
 11
-28.412275248841507
 21
-29.556759418737894
  0
LINE
  8
0
 10
-28.412275248841507
 20
-29.556759418737894
 11
-28.6229491797159
 21
-29.847331828943645
  0
LINE
  8
0
 10
-28.6229491797159
 20
-29.847331828943645
 11
-28.902543811558594
 21
-30.289488852795834
  0
LINE
  8
0
 10
-28.902543811558594
 20
-30.289488852795834
 11
-29.232325837909844
 21
-30.892584034561583
  0
LINE
  8
0
 10
-29.232325837909844
 20
-30.892584034561583
 11
-29.59268915589607
 21
-31.664183725853917
  0
LINE
  8
0
 10
-29.59268915589607
 20
-31.664183725853917
 11
-29.963307412893734
 21
-32.609996373059055
  0
LINE
  8
0
 10
-29.963307412893734
 20
-32.609996373059055
 11
-30.023298595898535
 21
-32.797279884838844
  0
LINE
  8
0
 10
-30.023298595898535
 20
-32.797279884838844
 11
-29.18281039637002
 21
-33.67875853946128
  0
LINE
  8
0
 10
-29.18281039637002
 20
-33.67875853946128
 11
-28.190689981277913
 21
-34.385244288828595
  0
LINE
  8
0
 10
-28.190689981277913
 20
-34.385244288828595
 11
-28.01385038111461
 21
-34.29921050687639
  0
LINE
  8
0
 10
-28.01385038111461
 20
-34.29921050687639
 11
-27.13040922021454
 21
-33.79776143542373
  0
LINE
  8
0
 10
-27.13040922021454
 20
-33.79776143542373
 11
-26.417948348545245
 21
-33.33125601113675
  0
LINE
  8
0
 10
-26.417948348545245
 20
-33.33125601113675
 11
-25.867924681882428
 21
-32.91900129704973
  0
LINE
  8
0
 10
-25.867924681882428
 20
-32.91900129704973
 11
-25.470058643808017
 21
-32.579327030076065
  0
LINE
  8
0
 10
-25.470058643808017
 20
-32.579327030076065
 11
-25.21242586816784
 21
-32.329444690486184
  0
LINE
  8
0
 10
-25.21242586816784
 20
-32.329444690486184
 11
-25.08155968046311
 21
-32.18531440024013
  0
LINE
  8
0
 10
-25.08155968046311
 20
-32.18531440024013
 11
-24.904288042434
 21
-31.963267446972353
  0
LINE
  8
0
 10
-24.904288042434
 20
-31.963267446972353
 11
-24.53084105735866
 21
-31.57877701740566
  0
LINE
  8
0
 10
-24.53084105735866
 20
-31.57877701740566
 11
-24.218367874431568
 21
-31.365291210613073
  0
LINE
  8
0
 10
-24.218367874431568
 20
-31.365291210613073
 11
-23.986715635523996
 21
-31.31293733909382
  0
LINE
  8
0
 10
-23.986715635523996
 20
-31.31293733909382
 11
-21.74546519221999
 21
-32.9089245548295
  0
LINE
  8
0
 10
-21.74546519221999
 20
-32.9089245548295
 11
-21.719173617690092
 21
-33.144959384384315
  0
LINE
  8
0
 10
-21.719173617690092
 20
-33.144959384384315
 11
-21.81871791236292
 21
-33.510071166101014
  0
LINE
  8
0
 10
-21.81871791236292
 20
-33.510071166101014
 11
-22.059919138275525
 21
-33.98873337445733
  0
LINE
  8
0
 10
-22.059919138275525
 20
-33.98873337445733
 11
-22.2117738173025
 21
-34.22887966229584
  0
LINE
  8
0
 10
-22.2117738173025
 20
-34.22887966229584
 11
-22.30517492210696
 21
-34.39968871730228
  0
LINE
  8
0
 10
-22.30517492210696
 20
-34.39968871730228
 11
-22.457050510389422
 21
-34.72488040908838
  0
LINE
  8
0
 10
-22.457050510389422
 20
-34.72488040908838
 11
-22.647913736029643
 21
-35.21196071149783
  0
LINE
  8
0
 10
-22.647913736029643
 20
-35.21196071149783
 11
-22.85759965792845
 21
-35.86656883650915
  0
LINE
  8
0
 10
-22.85759965792845
 20
-35.86656883650915
 11
-23.065424539574746
 21
-36.692423922538886
  0
LINE
  8
0
 10
-23.065424539574746
 20
-36.692423922538886
 11
-23.250349021434854
 21
-37.69128446938311
  0
LINE
  8
0
 10
-23.250349021434854
 20
-37.69128446938311
 11
-23.273812447957514
 21
-37.88653693015816
  0
LINE
  8
0
 10
-23.273812447957514
 20
-37.88653693015816
 11
-22.28169203286535
 21
-38.59302267952544
  0
LINE
  8
0
 10
-22.28169203286535
 20
-38.59302267952544
 11
-21.173797218955535
 21
-39.09898128792475
  0
LINE
  8
0
 10
-21.173797218955535
 20
-39.09898128792475
 11
-21.016435341034228
 21
-38.981035134108765
  0
LINE
  8
0
 10
-21.016435341034228
 20
-38.981035134108765
 11
-20.243858973559153
 21
-38.32145556161412
  0
LINE
  8
0
 10
-20.243858973559153
 20
-38.32145556161412
 11
-19.632559930037463
 21
-37.72854639155651
  0
LINE
  8
0
 10
-19.632559930037463
 20
-37.72854639155651
 11
-19.170495625202
 21
-37.21964899386902
  0
LINE
  8
0
 10
-19.170495625202
 20
-37.21964899386902
 11
-18.844103322452494
 21
-36.810816440611575
  0
LINE
  8
0
 10
-18.844103322452494
 20
-36.810816440611575
 11
-18.638416850407037
 21
-36.516692477051194
  0
LINE
  8
0
 10
-18.638416850407037
 20
-36.516692477051194
 11
-18.537192421977487
 21
-36.35040022004597
  0
LINE
  8
0
 10
-18.537192421977487
 20
-36.35040022004597
 11
-18.405146975598303
 21
-36.098817066405765
  0
LINE
  8
0
 10
-18.405146975598303
 20
-36.098817066405765
 11
-18.111213956286758
 21
-35.65059957316321
  0
LINE
  8
0
 10
-18.111213956286758
 20
-35.65059957316321
 11
-17.844790025434403
 21
-35.381835794317084
  0
LINE
  8
0
 10
-17.844790025434403
 20
-35.381835794317084
 11
-17.627232079598006
 21
-35.28658755098739
  0
LINE
  8
0
 10
-17.627232079598006
 20
-35.28658755098739
 11
-15.12444138500376
 21
-36.42957376326405
  0
LINE
  8
0
 10
-15.12444138500376
 20
-36.42957376326405
 11
-15.053955048270987
 21
-36.65636742276146
  0
LINE
  8
0
 10
-15.053955048270987
 20
-36.65636742276146
 11
-15.08260258883848
 21
-37.03372004057361
  0
LINE
  8
0
 10
-15.08260258883848
 20
-37.03372004057361
 11
-15.228857575817276
 21
-37.549379831399044
  0
LINE
  8
0
 10
-15.228857575817276
 20
-37.549379831399044
 11
-15.332520059165509
 21
-37.813925049936586
  0
LINE
  8
0
 10
-15.332520059165509
 20
-37.813925049936586
 11
-15.391907458121056
 21
-37.99932363810862
  0
LINE
  8
0
 10
-15.391907458121056
 20
-37.99932363810862
 11
-15.479495524343076
 21
-38.34738133645522
  0
LINE
  8
0
 10
-15.479495524343076
 20
-38.34738133645522
 11
-15.574729049516902
 21
-38.86178056621751
  0
LINE
  8
0
 10
-15.574729049516902
 20
-38.86178056621751
 11
-15.656740271414497
 21
-39.54424239127168
  0
LINE
  8
0
 10
-15.656740271414497
 20
-39.54424239127168
 11
-15.704515384015723
 21
-40.39450431748525
  0
LINE
  8
0
 10
-15.704515384015723
 20
-40.39450431748525
 11
-15.697062438147807
 21
-41.41031134129984
  0
LINE
  8
0
 10
-15.697062438147807
 20
-41.41031134129984
 11
-15.6831500788204
 21
-41.60647581841239
  0
LINE
  8
0
 10
-15.6831500788204
 20
-41.60647581841239
 11
-14.575255264910576
 21
-42.11243442681171
  0
LINE
  8
0
 10
-14.575255264910576
 20
-42.11243442681171
 11
-13.391628257349574
 21
-42.39957923187323
  0
LINE
  8
0
 10
-13.391628257349574
 20
-42.39957923187323
 11
-13.25943156994069
 21
-42.25398358749806
  0
LINE
  8
0
 10
-13.25943156994069
 20
-42.25398358749806
 11
-12.625642918739254
 21
-41.46011243822919
  0
LINE
  8
0
 10
-12.625642918739254
 20
-41.46011243822919
 11
-12.137599643522163
 21
-40.762228804616605
  0
LINE
  8
0
 10
-12.137599643522163
 20
-40.762228804616605
 11
-11.780194908387612
 21
-40.175081601200304
  0
LINE
  8
0
 10
-11.780194908387612
 20
-40.175081601200304
 11
-11.53707300919123
 21
-39.711867035336624
  0
LINE
  8
0
 10
-11.53707300919123
 20
-39.711867035336624
 11
-11.39076688575109
 21
-39.38413185418134
  0
LINE
  8
0
 10
-11.39076688575109
 20
-39.38413185418134
 11
-11.322842731177838
 21
-39.20168786585535
  0
LINE
  8
0
 10
-11.322842731177838
 20
-39.20168786585535
 11
-11.24079594292178
 21
-38.929661382508804
  0
LINE
  8
0
 10
-11.24079594292178
 20
-38.929661382508804
 11
-11.037000394526954
 21
-38.43391657361546
  0
LINE
  8
0
 10
-11.037000394526954
 20
-38.43391657361546
 11
-10.826254970771132
 21
-38.119588645940475
  0
LINE
  8
0
 10
-10.826254970771132
 20
-38.119588645940475
 11
-10.630654429010136
 21
-37.98488855048116
  0
LINE
  8
0
 10
-10.630654429010136
 20
-37.98488855048116
 11
-7.956780859785827
 21
-38.6335632595656
  0
LINE
  8
0
 10
-7.956780859785827
 20
-38.6335632595656
 11
-7.844647320710059
 21
-38.84291883524625
  0
LINE
  8
0
 10
-7.844647320710059
 20
-38.84291883524625
 11
-7.80136271041567
 21
-39.218873782363474
  0
LINE
  8
0
 10
-7.80136271041567
 20
-39.218873782363474
 11
-7.847385422167592
 21
-39.75289386727909
  0
LINE
  8
0
 10
-7.847385422167592
 20
-39.75289386727909
 11
-7.899109077598913
 21
-40.03227666305189
  0
LINE
  8
0
 10
-7.899109077598913
 20
-40.03227666305189
 11
-7.922336355374934
 21
-40.22556399636166
  0
LINE
  8
0
 10
-7.922336355374934
 20
-40.22556399636166
 11
-7.942471238614766
 21
-40.58390798919504
  0
LINE
  8
0
 10
-7.942471238614766
 20
-40.58390798919504
 11
-7.938633075593887
 21
-41.10703441789244
  0
LINE
  8
0
 10
-7.938633075593887
 20
-41.10703441789244
 11
-7.890005498252737
 21
-41.79268399449504
  0
LINE
  8
0
 10
-7.890005498252737
 20
-41.79268399449504
 11
-7.776004124762641
 21
-42.63662207954326
  0
LINE
  8
0
 10
-7.776004124762641
 20
-42.63662207954326
 11
-7.576443120048832
 21
-43.632661667828174
  0
LINE
  8
0
 10
-7.576443120048832
 20
-43.632661667828174
 11
-7.525657803785766
 21
-43.8226482659738
  0
LINE
  8
0
 10
-7.525657803785766
 20
-43.8226482659738
 11
-6.342030796224786
 21
-44.10979307103531
  0
LINE
  8
0
 10
-6.342030796224786
 20
-44.10979307103531
 11
-5.125450958975932
 21
-44.16774591135564
  0
LINE
  8
0
 10
-5.125450958975932
 20
-44.16774591135564
 11
-5.023197394797539
 21
-43.99976298235474
  0
LINE
  8
0
 10
-5.023197394797539
 20
-43.99976298235474
 11
-4.5511032330443895
 21
-43.100292828057334
  0
LINE
  8
0
 10
-4.5511032330443895
 20
-43.100292828057334
 11
-4.203954881682592
 21
-42.32265806372659
  0
LINE
  8
0
 10
-4.203954881682592
 20
-42.32265806372659
 11
-3.964127254585668
 21
-41.67848208431007
  0
LINE
  8
0
 10
-3.964127254585668
 20
-41.67848208431007
 11
-3.813062817827297
 21
-41.17762728714426
  0
LINE
  8
0
 10
-3.813062817827297
 20
-41.17762728714426
 11
-3.7314249274904867
 21
-40.82812609174669
  0
LINE
  8
0
 10
-3.7314249274904867
 20
-40.82812609174669
 11
-3.6992560026944723
 21
-40.63612437319123
  0
LINE
  8
0
 10
-3.6992560026944723
 20
-40.63612437319123
 11
-3.6701732572599317
 21
-40.35348630600456
  0
LINE
  8
0
 10
-3.6701732572599317
 20
-40.35348630600456
 11
-3.5638808818849403
 21
-39.828131690504335
  0
LINE
  8
0
 10
-3.5638808818849403
 20
-39.828131690504335
 11
-3.416430853932028
 21
-39.47960024428011
  0
LINE
  8
0
 10
-3.416430853932028
 20
-39.47960024428011
 11
-3.249857229457915
 21
-39.31031670909874
  0
LINE
  8
0
 10
-3.249857229457915
 20
-39.31031670909874
 11
-0.5015415431049495
 21
-39.44123512089918
  0
LINE
  8
0
 10
-0.5015415431049495
 20
-39.44123512089918
 11
-0.3518135999494709
 21
-39.62558595678734
  0
LINE
  8
0
 10
-0.3518135999494709
 20
-39.62558595678734
 11
-0.23816125738619176
 21
-39.986555241879756
  0
LINE
  8
0
 10
-0.23816125738619176
 20
-39.986555241879756
 11
-0.182288313197519
 21
-40.519634743640964
  0
LINE
  8
0
 10
-0.182288313197519
 20
-40.519634743640964
 11
-0.18020371303997046
 21
-40.803757494485
  0
LINE
  8
0
 10
-0.18020371303997046
 20
-40.803757494485
 11
-0.16643137529955848
 21
-40.997947665101464
  0
LINE
  8
0
 10
-0.16643137529955848
 20
-40.997947665101464
 11
-0.11838534841598927
 21
-41.353626466864455
  0
LINE
  8
0
 10
-0.11838534841598927
 20
-41.353626466864455
 11
-0.015614218412214432
 21
-41.86657294237123
  0
LINE
  8
0
 10
-0.015614218412214432
 20
-41.86657294237123
 11
0.16189463082465222
 21
-42.5306291083813
  0
LINE
  8
0
 10
0.16189463082465222
 20
-42.5306291083813
 11
0.4335521837404581
 21
-43.33774123101128
  0
LINE
  8
0
 10
0.4335521837404581
 20
-43.33774123101128
 11
0.8180085926386764
 21
-44.27801391789007
  0
LINE
  8
0
 10
0.8180085926386764
 20
-44.27801391789007
 11
0.9038313521878059
 21
-44.454956026406585
  0
LINE
  8
0
 10
0.9038313521878059
 20
-44.454956026406585
 11
2.12041118943667
 21
-44.51290886672689
  0
LINE
  8
0
 10
2.12041118943667
 20
-44.51290886672689
 11
3.3259734912873493
 21
-44.33957517566212
  0
LINE
  8
0
 10
3.3259734912873493
 20
-44.33957517566212
 11
3.3945882220067842
 21
-44.15527630276486
  0
LINE
  8
0
 10
3.3945882220067842
 20
-44.15527630276486
 11
3.687925181276551
 21
-43.18271633836186
  0
LINE
  8
0
 10
3.687925181276551
 20
-43.18271633836186
 11
3.881631762878631
 21
-42.3534361898035
  0
LINE
  8
0
 10
3.881631762878631
 20
-42.3534361898035
 11
3.9952142866298557
 21
-41.675513632667
  0
LINE
  8
0
 10
3.9952142866298557
 20
-41.675513632667
 11
4.048761398611218
 21
-41.15512080153308
  0
LINE
  8
0
 10
4.048761398611218
 20
-41.15512080153308
 11
4.062780449782477
 21
-40.796485475711386
  0
LINE
  8
0
 10
4.062780449782477
 20
-40.796485475711386
 11
4.05803147604381
 21
-40.60186546929064
  0
LINE
  8
0
 10
4.05803147604381
 20
-40.60186546929064
 11
4.033099052462474
 21
-40.31883109441828
  0
LINE
  8
0
 10
4.033099052462474
 20
-40.31883109441828
 11
4.038046571429495
 21
-39.782854356913454
  0
LINE
  8
0
 10
4.038046571429495
 20
-39.782854356913454
 11
4.116871975391981
 21
-39.41271622669634
  0
LINE
  8
0
 10
4.116871975391981
 20
-39.41271622669634
 11
4.248398277787369
 21
-39.21496759981833
  0
LINE
  8
0
 10
4.248398277787369
 20
-39.21496759981833
 11
6.971824791697519
 21
-38.823397981827696
  0
LINE
  8
0
 10
6.971824791697519
 20
-38.823397981827696
 11
7.153735580954721
 21
-38.97608115839295
  0
LINE
  8
0
 10
7.153735580954721
 20
-38.97608115839295
 11
7.333647964008363
 21
-39.30901841100102
  0
LINE
  8
0
 10
7.333647964008363
 20
-39.30901841100102
 11
7.489397170359116
 21
-39.82189044748908
  0
LINE
  8
0
 10
7.489397170359116
 20
-39.82189044748908
 11
7.545214683224468
 21
-40.10048421691425
  0
LINE
  8
0
 10
7.545214683224468
 20
-40.10048421691425
 11
7.595488868311899
 21
-40.28855868611377
  0
LINE
  8
0
 10
7.595488868311899
 20
-40.28855868611377
 11
7.709979296724594
 21
-40.62871713819857
  0
LINE
  8
0
 10
7.709979296724594
 20
-40.62871713819857
 11
7.907968977305361
 21
-41.1129444384209
  0
LINE
  8
0
 10
7.907968977305361
 20
-41.1129444384209
 11
8.207943466131729
 21
-41.731406473817366
  0
LINE
  8
0
 10
8.207943466131729
 20
-41.731406473817366
 11
8.627438786714016
 21
-42.47252149900714
  0
LINE
  8
0
 10
8.627438786714016
 20
-42.47252149900714
 11
9.18289534348766
 21
-43.32304337971942
  0
LINE
  8
0
 10
9.18289534348766
 20
-43.32304337971942
 11
9.30065368818373
 21
-43.480545849786836
  0
LINE
  8
0
 10
9.30065368818373
 20
-43.480545849786836
 11
10.506215990034427
 21
-43.307212158722095
  0
LINE
  8
0
 10
10.506215990034427
 20
-43.307212158722095
 11
11.657188593836093
 21
-42.90885666748386
  0
LINE
  8
0
 10
11.657188593836093
 20
-42.90885666748386
 11
11.689684575954441
 21
-42.71490289214278
  0
LINE
  8
0
 10
11.689684575954441
 20
-42.71490289214278
 11
11.793662370750821
 21
-41.70440396872797
  0
LINE
  8
0
 10
11.793662370750821
 20
-41.70440396872797
 11
11.82692612203651
 21
-40.853450781179255
  0
LINE
  8
0
 10
11.82692612203651
 20
-40.853450781179255
 11
11.810158374097286
 21
-40.1662835338477
  0
LINE
  8
0
 10
11.810158374097286
 20
-40.1662835338477
 11
11.764252829158993
 21
-39.64516102153313
  0
LINE
  8
0
 10
11.764252829158993
 20
-39.64516102153313
 11
11.710146356129089
 21
-39.29035358037773
  0
LINE
  8
0
 10
11.710146356129089
 20
-39.29035358037773
 11
11.668651124139986
 21
-39.10014936020122
  0
LINE
  8
0
 10
11.668651124139986
 20
-39.10014936020122
 11
11.5906046542918
 21
-38.82694827738993
  0
LINE
  8
0
 10
11.5906046542918
 20
-38.82694827738993
 11
11.494028500624749
 21
-38.299721013647705
  0
LINE
  8
0
 10
11.494028500624749
 20
-38.299721013647705
 11
11.501380325120016
 21
-37.92135395584925
  0
LINE
  8
0
 10
11.501380325120016
 20
-37.92135395584925
 11
11.593105602179673
 21
-37.702287387878975
  0
LINE
  8
0
 10
11.593105602179673
 20
-37.702287387878975
 11
14.193211213615724
 21
-36.80238208631615
  0
LINE
  8
0
 10
14.193211213615724
 20
-36.80238208631615
 11
14.400730119086951
 21
-36.917879235745296
  0
LINE
  8
0
 10
14.400730119086951
 20
-36.917879235745296
 11
14.64040004035026
 21
-37.21075123610021
  0
LINE
  8
0
 10
14.64040004035026
 20
-37.21075123610021
 11
14.890396326744973
 21
-37.68487927564137
  0
LINE
  8
0
 10
14.890396326744973
 20
-37.68487927564137
 11
14.997929361972064
 21
-37.94787495895167
  0
LINE
  8
0
 10
14.997929361972064
 20
-37.94787495895167
 11
15.082888354369345
 21
-38.12303622539413
  0
LINE
  8
0
 10
15.082888354369345
 20
-38.12303622539413
 11
15.259685201926429
 21
-38.43538011506819
  0
LINE
  8
0
 10
15.259685201926429
 20
-38.43538011506819
 11
15.545737570170921
 21
-38.8733870037341
  0
LINE
  8
0
 10
15.545737570170921
 20
-38.8733870037341
 11
15.957335838984699
 21
-39.423902079170645
  0
LINE
  8
0
 10
15.957335838984699
 20
-39.423902079170645
 11
16.509507273363226
 21
-40.07223417895349
  0
LINE
  8
0
 10
16.509507273363226
 20
-40.07223417895349
 11
17.215888330822555
 21
-40.80226517671716
  0
LINE
  8
0
 10
17.215888330822555
 20
-40.80226517671716
 11
17.361326167271848
 21
-40.93463545869848
  0
LINE
  8
0
 10
17.361326167271848
 20
-40.93463545869848
 11
18.51229877107354
 21
-40.53627996746029
  0
LINE
  8
0
 10
18.51229877107354
 20
-40.53627996746029
 11
19.567082528094982
 21
-39.92730028140718
  0
LINE
  8
0
 10
19.567082528094982
 20
-39.92730028140718
 11
19.562285272151012
 21
-39.730701598404714
  0
LINE
  8
0
 10
19.562285272151012
 20
-39.730701598404714
 11
19.473145874058567
 21
-38.71878577989958
  0
LINE
  8
0
 10
19.473145874058567
 20
-38.71878577989958
 11
19.344764556388537
 21
-37.876915218695395
  0
LINE
  8
0
 10
19.344764556388537
 20
-37.876915218695395
 11
19.19825256685733
 21
-37.20533929588414
  0
LINE
  8
0
 10
19.19825256685733
 20
-37.20533929588414
 11
19.05455351099918
 21
-36.70232182775545
  0
LINE
  8
0
 10
19.05455351099918
 20
-36.70232182775545
 11
18.934277062676458
 21
-36.36416593663147
  0
LINE
  8
0
 10
18.934277062676458
 20
-36.36416593663147
 11
18.85753531823578
 21
-36.18525197878864
  0
LINE
  8
0
 10
18.85753531823578
 20
-36.18525197878864
 11
18.729195604889146
 21
-35.9317583869897
  0
LINE
  8
0
 10
18.729195604889146
 20
-35.9317583869897
 11
18.534586292408267
 21
-35.43233596399894
  0
LINE
  8
0
 10
18.534586292408267
 20
-35.43233596399894
 11
18.47019882334406
 21
-35.05941514991373
  0
LINE
  8
0
 10
18.47019882334406
 20
-35.05941514991373
 11
18.518807884567174
 21
-34.82694827739003
  0
LINE
  8
0
 10
18.518807884567174
 20
-34.82694827739003
 11
20.901618002222733
 21
-33.45123221453389
  0
LINE
  8
0
 10
20.901618002222733
 20
-33.45123221453389
 11
21.127244749979027
 21
-33.52536896892166
  0
LINE
  8
0
 10
21.127244749979027
 20
-33.52536896892166
 11
21.41800991404365
 21
-33.76759055986005
  0
LINE
  8
0
 10
21.41800991404365
 20
-33.76759055986005
 11
21.75321776333306
 21
-34.18583837977674
  0
LINE
  8
0
 10
21.75321776333306
 20
-34.18583837977674
 11
21.908579796854188
 21
-34.42373062774875
  0
LINE
  8
0
 10
21.908579796854188
 20
-34.42373062774875
 11
22.025152957217582
 21
-34.57964790688669
  0
LINE
  8
0
 10
22.025152957217582
 20
-34.57964790688669
 11
22.257866325208653
 21
-34.852888312173135
  0
LINE
  8
0
 10
22.257866325208653
 20
-34.852888312173135
 11
22.621642703226332
 21
-35.22884407911044
  0
LINE
  8
0
 10
22.621642703226332
 20
-35.22884407911044
 11
23.129988518183758
 21
-35.69151514540772
  0
LINE
  8
0
 10
23.129988518183758
 20
-35.69151514540772
 11
23.79487915205145
 21
-36.22363190848467
  0
LINE
  8
0
 10
23.79487915205145
 20
-36.22363190848467
 11
24.626654258321985
 21
-36.80678680096334
  0
LINE
  8
0
 10
24.626654258321985
 20
-36.80678680096334
 11
24.794515084180695
 21
-36.909240687980514
  0
LINE
  8
0
 10
24.794515084180695
 20
-36.909240687980514
 11
25.8492988412021
 21
-36.30026100192737
  0
LINE
  8
0
 10
25.8492988412021
 20
-36.30026100192737
 11
26.769771118252244
 21
-35.5026672335943
  0
LINE
  8
0
 10
26.769771118252244
 20
-35.5026672335943
 11
26.727854009574887
 21
-35.310529231566996
  0
LINE
  8
0
 10
26.727854009574887
 20
-35.310529231566996
 11
26.448819148691108
 21
-34.33376979217325
  0
LINE
  8
0
 10
26.448819148691108
 20
-34.33376979217325
 11
26.16343279738022
 21
-33.53140925286789
  0
LINE
  8
0
 10
26.16343279738022
 20
-33.53140925286789
 11
25.892471891291954
 21
-32.899697158201334
  0
LINE
  8
0
 10
25.892471891291954
 20
-32.899697158201334
 11
25.656172982796903
 21
-32.43296509615591
  0
LINE
  8
0
 10
25.656172982796903
 20
-32.43296509615591
 11
25.474073663400976
 21
-32.12368259002516
  0
LINE
  8
0
 10
25.474073663400976
 20
-32.12368259002516
 11
25.36485905310147
 21
-31.96252531110823
  0
LINE
  8
0
 10
25.36485905310147
 20
-31.96252531110823
 11
25.1908646278826
 21
-31.737901129200356
  0
LINE
  8
0
 10
25.1908646278826
 20
-31.737901129200356
 11
24.905255844190567
 21
-31.284333974560386
  0
LINE
  8
0
 10
24.905255844190567
 20
-31.284333974560386
 11
24.771456212458787
 21
-30.930337734045168
  0
LINE
  8
0
 10
24.771456212458787
 20
-30.930337734045168
 11
24.775192199723076
 21
-30.692872515427567
  0
LINE
  8
0
 10
24.775192199723076
 20
-30.692872515427567
 11
26.854585857594866
 21
-28.89106765418296
  0
LINE
  8
0
 10
26.854585857594866
 20
-28.89106765418296
 11
27.090165709107552
 21
-28.921164518064362
  0
LINE
  8
0
 10
27.090165709107552
 20
-28.921164518064362
 11
27.421517105362955
 21
-29.103981180187503
  0
LINE
  8
0
 10
27.421517105362955
 20
-29.103981180187503
 11
27.829821232498198
 21
-29.45123221453387
  0
LINE
  8
0
 10
27.829821232498198
 20
-29.45123221453387
 11
28.027397075630088
 21
-29.65542298150369
  0
LINE
  8
0
 10
28.027397075630088
 20
-29.65542298150369
 11
28.17137114621565
 21
-29.786461016630554
  0
LINE
  8
0
 10
28.17137114621565
 20
-29.786461016630554
 11
28.451590167192744
 21
-30.010722317361395
  0
LINE
  8
0
 10
28.451590167192744
 20
-30.010722317361395
 11
28.879942728871946
 21
-30.311038941609773
  0
LINE
  8
0
 10
28.879942728871946
 20
-30.311038941609773
 11
29.46666314773836
 21
-30.669143860954108
  0
LINE
  8
0
 10
29.46666314773836
 20
-30.669143860954108
 11
30.22024210123158
 21
-31.065813201090865
  0
LINE
  8
0
 10
30.22024210123158
 20
-31.065813201090865
 11
31.147348736803814
 21
-31.481015251075114
  0
LINE
  8
0
 10
31.147348736803814
 20
-31.481015251075114
 11
31.331565624468233
 21
-31.549849792710226
  0
LINE
  8
0
 10
31.331565624468233
 20
-31.549849792710226
 11
32.252037901518364
 21
-30.75225602437713
  0
LINE
  8
0
 10
32.252037901518364
 20
-30.75225602437713
 11
33.00493043223752
 21
-29.794875290662
  0
LINE
  8
0
 10
33.00493043223752
 20
-29.794875290662
 11
32.927408464348375
 21
-29.614142337613867
  0
LINE
  8
0
 10
32.927408464348375
 20
-29.614142337613867
 11
32.468563187563845
 21
-28.707841908393107
  0
LINE
  8
0
 10
32.468563187563845
 20
-28.707841908393107
 11
32.03648640891535
 21
-27.973990791407054
  0
LINE
  8
0
 10
32.03648640891535
 20
-27.973990791407054
 11
31.650869819397816
 21
-27.404974245896252
  0
LINE
  8
0
 10
31.650869819397816
 20
-27.404974245896252
 11
31.330511516489675
 21
-26.99139650271495
  0
LINE
  8
0
 10
31.330511516489675
 20
-26.99139650271495
 11
31.093170869878648
 21
-26.722165657176706
  0
LINE
  8
0
 10
31.093170869878648
 20
-26.722165657176706
 11
30.95543069429244
 21
-26.584589701136917
  0
LINE
  8
0
 10
30.95543069429244
 20
-26.584589701136917
 11
30.742070169066796
 21
-26.396953432306862
  0
LINE
  8
0
 10
30.742070169066796
 20
-26.396953432306862
 11
30.375784559752667
 21
-26.005634644744063
  0
LINE
  8
0
 10
30.375784559752667
 20
-26.005634644744063
 11
30.177408632655634
 21
-25.683357324259266
  0
LINE
  8
0
 10
30.177408632655634
 20
-25.683357324259266
 11
30.13613651764735
 21
-25.449476371258196
  0
LINE
  8
0
 10
30.13613651764735
 20
-25.449476371258196
 11
31.83695901113256
 21
-23.28670463386729
  0
LINE
  8
0
 10
31.83695901113256
 20
-23.28670463386729
 11
32.07397749677066
 21
-23.271673828165028
  0
LINE
  8
0
 10
32.07397749677066
 20
-23.271673828165028
 11
32.43393922242852
 21
-23.388478090979625
  0
LINE
  8
0
 10
32.43393922242852
 20
-23.388478090979625
 11
32.9005824524289
 21
-23.652181782620648
  0
LINE
  8
0
 10
32.9005824524289
 20
-23.652181782620648
 11
33.13323119942193
 21
-23.815291082256127
  0
LINE
  8
0
 10
33.13323119942193
 20
-23.815291082256127
 11
33.29940258219792
 21
-23.916713817366162
  0
LINE
  8
0
 10
33.29940258219792
 20
-23.916713817366162
 11
33.61699941063939
 21
-24.083890625825862
  0
LINE
  8
0
 10
33.61699941063939
 20
-24.083890625825862
 11
34.094446378339306
 21
-24.297713882117648
  0
LINE
  8
0
 10
34.094446378339306
 20
-24.297713882117648
 11
34.73833579649173
 21
-24.53830980969067
  0
LINE
  8
0
 10
34.73833579649173
 20
-24.53830980969067
 11
35.55336676280043
 21
-24.785195063422808
  0
LINE
  8
0
 10
35.55336676280043
 20
-24.785195063422808
 11
36.542296878311994
 21
-25.01743778702781
  0
LINE
  8
0
 10
36.542296878311994
 20
-25.01743778702781
 11
36.73621174948955
 21
-25.050165123599573
  0
LINE
  8
0
 10
36.73621174948955
 20
-25.050165123599573
 11
37.489104280208686
 21
-24.092784389884404
  0
LINE
  8
0
 10
37.489104280208686
 20
-24.092784389884404
 11
38.04720556689408
 21
-23.010218924934712
  0
LINE
  8
0
 10
38.04720556689408
 20
-23.010218924934712
 11
37.936880585694354
 21
-22.84742318068411
  0
LINE
  8
0
 10
37.936880585694354
 20
-22.84742318068411
 11
37.314808756821776
 21
-22.04433782049111
  0
LINE
  8
0
 10
37.314808756821776
 20
-22.04433782049111
 11
36.751657931381104
 21
-21.405519417222674
  0
LINE
  8
0
 10
36.751657931381104
 20
-21.405519417222674
 11
36.26532284669368
 21
-20.919764161380538
  0
LINE
  8
0
 10
36.26532284669368
 20
-20.919764161380538
 11
35.872483733124966
 21
-20.574288514268225
  0
LINE
  8
0
 10
35.872483733124966
 20
-20.574288514268225
 11
35.5884798686524
 21
-20.354840033554364
  0
LINE
  8
0
 10
35.5884798686524
 20
-20.354840033554364
 11
35.42719241660369
 21
-20.245817753893654
  0
LINE
  8
0
 10
35.42719241660369
 20
-20.245817753893654
 11
35.18217719665836
 21
-20.10195106177847
  0
LINE
  8
0
 10
35.18217719665836
 20
-20.10195106177847
 11
34.748453277990585
 21
-19.787023921846515
  0
LINE
  8
0
 10
34.748453277990585
 20
-19.787023921846515
 11
34.49267087839703
 21
-19.508113463439823
  0
LINE
  8
0
 10
34.49267087839703
 20
-19.508113463439823
 11
34.407882342886026
 21
-19.28626984306763
  0
LINE
  8
0
 10
34.407882342886026
 20
-19.28626984306763
 11
35.66866151562031
 21
-16.840699435166524
  0
LINE
  8
0
 10
35.66866151562031
 20
-16.840699435166524
 11
35.8985521697672
 21
-16.781084212361066
  0
LINE
  8
0
 10
35.8985521697672
 20
-16.781084212361066
 11
36.27411427019113
 21
-16.827654465478464
  0
LINE
  8
0
 10
36.27411427019113
 20
-16.827654465478464
 11
36.78223090089737
 21
-16.99827987592496
  0
LINE
  8
0
 10
36.78223090089737
 20
-16.99827987592496
 11
37.04154401987479
 21
-17.11441251316014
  0
LINE
  8
0
 10
37.04154401987479
 20
-17.11441251316014
 11
37.22390684811238
 21
-17.182554266352113
  0
LINE
  8
0
 10
37.22390684811238
 20
-17.182554266352113
 11
37.56740270714788
 21
-17.28660437710802
  0
LINE
  8
0
 10
37.56740270714788
 20
-17.28660437710802
 11
38.07668790347991
 21
-17.406206135849764
  0
LINE
  8
0
 10
38.07668790347991
 20
-17.406206135849764
 11
38.754474479708804
 21
-17.520597307962408
  0
LINE
  8
0
 10
38.754474479708804
 20
-17.520597307962408
 11
39.60150011616811
 21
-17.608775398966788
  0
LINE
  8
0
 10
39.60150011616811
 20
-17.608775398966788
 11
40.61651120061213
 21
-17.64966493905894
  0
LINE
  8
0
 10
40.61651120061213
 20
-17.64966493905894
 11
40.81311546661818
 21
-17.6451022193534
  0
LINE
  8
0
 10
40.81311546661818
 20
-17.6451022193534
 11
41.3712167533038
 21
-16.562536754403844
  0
LINE
  8
0
 10
41.3712167533038
 20
-16.562536754403844
 11
41.7143555613363
 21
-15.393913294719892
  0
LINE
  8
0
 10
41.7143555613363
 20
-15.393913294719892
 11
41.57521499909507
 21
-15.254938621624005
  0
LINE
  8
0
 10
41.57521499909507
 20
-15.254938621624005
 11
40.81239991482223
 21
-14.584093927794628
  0
LINE
  8
0
 10
40.81239991482223
 20
-14.584093927794628
 11
40.13852878069598
 21
-14.06339679976305
  0
LINE
  8
0
 10
40.13852878069598
 20
-14.06339679976305
 11
39.569052617932975
 21
-13.67845929415869
  0
LINE
  8
0
 10
39.569052617932975
 20
-13.67845929415869
 11
39.11793092280039
 21
-13.413572133130025
  0
LINE
  8
0
 10
39.11793092280039
 20
-13.413572133130025
 11
38.79752848009316
 21
-13.251837457100981
  0
LINE
  8
0
 10
38.79752848009316
 20
-13.251837457100981
 11
38.618523100329355
 21
-13.175309203061067
  0
LINE
  8
0
 10
38.618523100329355
 20
-13.175309203061067
 11
38.350708674094086
 21
-13.080411804754801
  0
LINE
  8
0
 10
38.350708674094086
 20
-13.080411804754801
 11
37.86522235854998
 21
-12.8532585998255
  0
LINE
  8
0
 10
37.86522235854998
 20
-12.8532585998255
 11
37.56127812881575
 21
-12.627795554157844
  0
LINE
  8
0
 10
37.56127812881575
 20
-12.627795554157844
 11
37.43603765138976
 21
-12.426007272862686
  0
LINE
  8
0
 10
37.43603765138976
 20
-12.426007272862686
 11
38.2112056591424
 21
-9.786027480864478
  0
LINE
  8
0
 10
38.2112056591424
 20
-9.786027480864478
 11
38.425659634582985
 21
-9.683982490433959
  0
LINE
  8
0
 10
38.425659634582985
 20
-9.683982490433959
 11
38.803248316946146
 21
-9.65863556356888
  0
LINE
  8
0
 10
38.803248316946146
 20
-9.65863556356888
 11
39.334473689439534
 21
-9.730015845927152
  0
LINE
  8
0
 10
39.334473689439534
 20
-9.730015845927152
 11
39.61107892864779
 21
-9.794974484671718
  0
LINE
  8
0
 10
39.61107892864779
 20
-9.794974484671718
 11
39.803042134592744
 21
-9.827372435443658
  0
LINE
  8
0
 10
39.803042134592744
 20
-9.827372435443658
 11
40.16002218890699
 21
-9.864535206393132
  0
LINE
  8
0
 10
40.16002218890699
 20
-9.864535206393132
 11
40.68273871994606
 21
-9.885592748404571
  0
LINE
  8
0
 10
40.68273871994606
 20
-9.885592748404571
 11
41.36992548143082
 21
-9.869644770053393
  0
LINE
  8
0
 10
41.36992548143082
 20
-9.869644770053393
 11
42.21833207463532
 21
-9.795928712375344
  0
LINE
  8
0
 10
42.21833207463532
 20
-9.795928712375344
 11
43.22273898283441
 21
-9.643987214439065
  0
LINE
  8
0
 10
43.22273898283441
 20
-9.643987214439065
 11
43.4149268532481
 21
-9.602299347034414
  0
LINE
  8
0
 10
0.3118675362266391
 20
-1.4672214011007085
 11
9.18454765366783e-17
 21
-1.5
  0
LINE
  8
0
 10
9.18454765366783e-17
 20
-1.5
 11
-0.3118675362266384
 21
-1.4672214011007085
  0
LINE
  8
0
 10
-0.3118675362266384
 20
-1.4672214011007085
 11
-0.6101049646137001
 21
-1.3703181864639014
  0
LINE
  8
0
 10
-0.6101049646137001
 20
-1.3703181864639014
 11
-0.8816778784387099
 21
-1.213525491562421
  0
LINE
  8
0
 10
-0.8816778784387099
 20
-1.213525491562421
 11
-1.114717238216091
 21
-1.0036959095382878
  0
LINE
  8
0
 10
-1.114717238216091
 20
-1.0036959095382878
 11
-1.299038105676658
 21
-0.7500000000000003
  0
LINE
  8
0
 10
-1.299038105676658
 20
-0.7500000000000003
 11
-1.4265847744427305
 21
-0.46352549156242095
  0
LINE
  8
0
 10
-1.4265847744427305
 20
-0.46352549156242095
 11
-1.49178284305241
 21
-0.15679269490147957
  0
LINE
  8
0
 10
-1.49178284305241
 20
-0.15679269490147957
 11
-1.4917828430524098
 21
0.15679269490148126
  0
LINE
  8
0
 10
-1.4917828430524098
 20
0.15679269490148126
 11
-1.4265847744427302
 21
0.46352549156242123
  0
LINE
  8
0
 10
-1.4265847744427302
 20
0.46352549156242123
 11
-1.2990381056766576
 21
0.7500000000000006
  0
LINE
  8
0
 10
-1.2990381056766576
 20
0.7500000000000006
 11
-1.114717238216091
 21
1.0036959095382878
  0
LINE
  8
0
 10
-1.114717238216091
 20
1.0036959095382878
 11
-0.8816778784387097
 21
1.2135254915624214
  0
LINE
  8
0
 10
-0.8816778784387097
 20
1.2135254915624214
 11
-0.6101049646137005
 21
1.3703181864639014
  0
LINE
  8
0
 10
-0.6101049646137005
 20
1.3703181864639014
 11
-0.3118675362266387
 21
1.4672214011007085
  0
LINE
  8
0
 10
-0.3118675362266387
 20
1.4672214011007085
 11
7.579792913117722e-16
 21
1.5
  0
LINE
  8
0
 10
7.579792913117722e-16
 20
1.5
 11
0.3118675362266389
 21
1.4672214011007085
  0
LINE
  8
0
 10
0.3118675362266389
 20
1.4672214011007085
 11
0.6101049646136999
 21
1.3703181864639014
  0
LINE
  8
0
 10
0.6101049646136999
 20
1.3703181864639014
 11
0.8816778784387097
 21
1.213525491562421
  0
LINE
  8
0
 10
0.8816778784387097
 20
1.213525491562421
 11
1.1147172382160917
 21
1.003695909538287
  0
LINE
  8
0
 10
1.1147172382160917
 20
1.003695909538287
 11
1.299038105676658
 21
0.7499999999999998
  0
LINE
  8
0
 10
1.299038105676658
 20
0.7499999999999998
 11
1.4265847744427305
 21
0.4635254915624211
  0
LINE
  8
0
 10
1.4265847744427305
 20
0.4635254915624211
 11
1.49178284305241
 21
0.1567926949014801
  0
LINE
  8
0
 10
1.49178284305241
 20
0.1567926949014801
 11
1.4917828430524098
 21
-0.1567926949014801
  0
LINE
  8
0
 10
1.4917828430524098
 20
-0.1567926949014801
 11
1.4265847744427302
 21
-0.46352549156242107
  0
LINE
  8
0
 10
1.4265847744427302
 20
-0.46352549156242107
 11
1.299038105676658
 21
-0.7500000000000001
  0
LINE
  8
0
 10
1.299038105676658
 20
-0.7500000000000001
 11
1.1147172382160913
 21
-1.0036959095382874
  0
LINE
  8
0
 10
1.1147172382160913
 20
-1.0036959095382874
 11
0.8816778784387098
 21
-1.2135254915624212
  0
LINE
  8
0
 10
0.8816778784387098
 20
-1.2135254915624212
 11
0.6101049646137003
 21
-1.3703181864639014
  0
LINE
  8
0
 10
0.6101049646137003
 20
-1.3703181864639014
 11
0.3118675362266391
 21
-1.4672214011007085
  0
ENDSEC
  0
SECTION
  2
OBJECTS
  0
DICTIONARY
  0
ENDSEC
  0
EOF
