0
SECTION
2
HEADER
9
$ACADVER
1
AC1009
9
$INSBASE
10
0.0
20
0.0
30
0.0
9
$EXTMIN
10
0.0
20
0.0
9
$EXTMAX
10
0.0
20
0.0
0
ENDSEC
0
SECTION
2
TABLES
0
TABLE
2
LTYPE
70
1
0
LTYPE
2
CONTINUOUS
70
64
3
Solid line
72
65
73
0
40
0.0
0
ENDTAB
0
TABLE
2
LAYER
70
0
0
ENDTAB
0
TABLE
2
STYLE
70
1
0
STYLE
2
STANDARD
70
0
40
0
41
40
50
50
71
0
42
1
3
ARIAL.TTF
4

0
ENDTAB
0
TABLE
2
VIEW
70
0
0
ENDTAB
0
ENDSEC
0
SECTION
2
BLOCKS
0
ENDSEC
0
SECTION
2
ENTITIES
0
LINE
8
0
10
113.560025372
20
47.7116607518
11
113.828130106
21
48.915222137
0
LINE
8
0
10
113.828130106
20
48.915222137
11
113.918137803
21
50.1449939739
0
LINE
8
0
10
113.918137803
20
50.1449939739
11
113.613208594
21
50.3168518158
0
LINE
8
0
10
113.613208594
20
50.3168518158
11
112.781627357
21
50.7335467107
0
LINE
8
0
10
112.781627357
20
50.7335467107
11
112.046026721
21
51.0583560739
0
LINE
8
0
10
112.046026721
20
51.0583560739
11
111.413108204
21
51.3017351291
0
LINE
8
0
10
111.413108204
20
51.3017351291
11
110.888777346
21
51.474560263
0
LINE
8
0
10
110.888777346
20
51.474560263
11
110.478119253
21
51.5880760615
0
LINE
8
0
10
110.478119253
20
51.5880760615
11
110.185377428
21
51.6538409948
0
LINE
8
0
10
110.185377428
20
51.6538409948
11
109.841006371
21
51.7137618322
0
LINE
8
0
10
109.841006371
20
51.7137618322
11
109.4436593
21
51.8204691941
0
LINE
8
0
10
109.4436593
20
51.8204691941
11
109.181850916
21
51.9463958848
0
LINE
8
0
10
109.181850916
20
51.9463958848
11
109.0562022
21
52.078596894
0
LINE
8
0
10
109.0562022
20
52.078596894
11
109.257043854
21
54.8226889793
0
LINE
8
0
10
109.257043854
20
54.8226889793
11
109.400602199
21
54.9351865711
0
LINE
8
0
10
109.400602199
20
54.9351865711
11
109.677955661
21
55.0216517011
0
LINE
8
0
10
109.677955661
20
55.0216517011
11
110.086605067
21
55.0693677244
0
LINE
8
0
10
110.086605067
20
55.0693677244
11
110.436030832
21
55.0785091795
0
LINE
8
0
10
110.436030832
20
55.0785091795
11
110.735228466
21
55.1009497285
0
LINE
8
0
10
110.735228466
20
55.1009497285
11
111.15803836
21
55.153463533
0
LINE
8
0
10
111.15803836
20
55.153463533
11
111.701945158
21
55.2481037479
0
LINE
8
0
10
111.701945158
20
55.2481037479
11
112.36355517
21
55.3967355269
0
LINE
8
0
10
112.36355517
20
55.3967355269
11
113.138609403
21
55.6109792047
0
LINE
8
0
10
113.138609403
20
55.6109792047
11
114.022000049
21
55.9021543363
0
LINE
8
0
10
114.022000049
20
55.9021543363
11
114.348702442
21
56.0277827035
0
LINE
8
0
10
114.348702442
20
56.0277827035
11
114.438710139
21
57.2575545404
0
LINE
8
0
10
114.438710139
20
57.2575545404
11
114.348702442
21
58.4873263773
0
LINE
8
0
10
114.348702442
20
58.4873263773
11
114.022000049
21
58.6129547445
0
LINE
8
0
10
114.022000049
20
58.6129547445
11
113.138609403
21
58.9041298761
0
LINE
8
0
10
113.138609403
20
58.9041298761
11
112.36355517
21
59.1183735539
0
LINE
8
0
10
112.36355517
20
59.1183735539
11
111.701945158
21
59.2670053329
0
LINE
8
0
10
111.701945158
20
59.2670053329
11
111.15803836
21
59.3616455478
0
LINE
8
0
10
111.15803836
20
59.3616455478
11
110.735228466
21
59.4141593523
0
LINE
8
0
10
110.735228466
20
59.4141593523
11
110.436030832
21
59.4365999013
0
LINE
8
0
10
110.436030832
20
59.4365999013
11
110.086605067
21
59.4457413564
0
LINE
8
0
10
110.086605067
20
59.4457413564
11
109.677955661
21
59.4934573797
0
LINE
8
0
10
109.677955661
20
59.4934573797
11
109.400602199
21
59.5799225097
0
LINE
8
0
10
109.400602199
20
59.5799225097
11
109.257043854
21
59.6924201015
0
LINE
8
0
10
109.257043854
20
59.6924201015
11
109.0562022
21
62.4365121868
0
LINE
8
0
10
109.0562022
20
62.4365121868
11
109.181850916
21
62.568713196
0
LINE
8
0
10
109.181850916
20
62.568713196
11
109.4436593
21
62.6946398867
0
LINE
8
0
10
109.4436593
20
62.6946398867
11
109.841006371
21
62.8013472486
0
LINE
8
0
10
109.841006371
20
62.8013472486
11
110.185377428
21
62.861268086
0
LINE
8
0
10
110.185377428
20
62.861268086
11
110.478119253
21
62.9270330193
0
LINE
8
0
10
110.478119253
20
62.9270330193
11
110.888777346
21
63.0405488178
0
LINE
8
0
10
110.888777346
20
63.0405488178
11
111.413108204
21
63.2133739517
0
LINE
8
0
10
111.413108204
20
63.2133739517
11
112.046026721
21
63.4567530069
0
LINE
8
0
10
112.046026721
20
63.4567530069
11
112.781627357
21
63.7815623701
0
LINE
8
0
10
112.781627357
20
63.7815623701
11
113.613208594
21
64.198257265
0
LINE
8
0
10
113.613208594
20
64.198257265
11
113.918137803
21
64.3701151069
0
LINE
8
0
10
113.918137803
20
64.3701151069
11
113.828130106
21
65.5998869438
0
LINE
8
0
10
113.828130106
20
65.5998869438
11
113.560025372
21
66.8034483291
0
LINE
8
0
10
113.560025372
20
66.8034483291
11
113.218512889
21
66.880169671
0
LINE
8
0
10
113.218512889
20
66.880169671
11
112.302140773
21
67.0396191468
0
LINE
8
0
10
112.302140773
20
67.0396191468
11
111.504151878
21
67.1387309072
0
LINE
8
0
10
111.504151878
20
67.1387309072
11
110.82795144
21
67.1894475818
0
LINE
8
0
10
110.82795144
20
67.1894475818
11
110.276061131
21
67.2038857858
0
LINE
8
0
10
110.276061131
20
67.2038857858
11
109.850110895
21
67.1942783558
0
LINE
8
0
10
109.850110895
20
67.1942783558
11
109.55083433
21
67.1729162391
0
LINE
8
0
10
109.55083433
20
67.1729162391
11
109.20380126
21
67.1310834776
0
LINE
8
0
10
109.20380126
20
67.1310834776
11
108.792559172
21
67.1187911782
0
LINE
8
0
10
108.792559172
20
67.1187911782
11
108.50557194
21
67.1639518932
0
LINE
8
0
10
108.50557194
20
67.1639518932
11
108.347163662
21
67.2543483768
0
LINE
8
0
10
108.347163662
20
67.2543483768
11
107.748919292
21
69.9399549035
0
LINE
8
0
10
107.748919292
20
69.9399549035
11
107.853980395
21
70.089041695
0
LINE
8
0
10
107.853980395
20
70.089041695
11
108.09466371
21
70.2517460378
0
LINE
8
0
10
108.09466371
20
70.2517460378
11
108.472239683
21
70.4151704561
0
LINE
8
0
10
108.472239683
20
70.4151704561
11
108.80421636
21
70.5245935672
0
LINE
8
0
10
108.80421636
20
70.5245935672
11
109.084263092
21
70.6322812195
0
LINE
8
0
10
109.084263092
20
70.6322812195
11
109.47401692
21
70.8043796197
0
LINE
8
0
10
109.47401692
20
70.8043796197
11
109.967596636
21
71.051706205
0
LINE
8
0
10
109.967596636
20
71.051706205
11
110.558334098
21
71.3846453342
0
LINE
8
0
10
110.558334098
20
71.3846453342
11
111.238803086
21
71.8130976352
0
LINE
8
0
10
111.238803086
20
71.8130976352
11
112.000851205
21
72.3464311652
0
LINE
8
0
10
112.000851205
20
72.3464311652
11
112.277508194
21
72.5608556303
0
LINE
8
0
10
112.277508194
20
72.5608556303
11
112.00940346
21
73.7644170156
0
LINE
8
0
10
112.00940346
20
73.7644170156
11
111.568915877
21
74.9161161278
0
LINE
8
0
10
111.568915877
20
74.9161161278
11
111.219872049
21
74.9422952623
0
LINE
8
0
10
111.219872049
20
74.9422952623
11
110.290049344
21
74.9666206937
0
LINE
8
0
10
110.290049344
20
74.9666206937
11
109.486133535
21
74.9484881415
0
LINE
8
0
10
109.486133535
20
74.9484881415
11
108.809754709
21
74.9002087738
0
LINE
8
0
10
108.809754709
20
74.9002087738
11
108.261643472
21
74.8341372416
0
LINE
8
0
10
108.261643472
20
74.8341372416
11
107.841631284
21
74.7626133428
0
LINE
8
0
10
107.841631284
20
74.7626133428
11
107.548654348
21
74.6979038569
0
LINE
8
0
10
107.548654348
20
74.6979038569
11
107.211410381
21
74.6059884715
0
LINE
8
0
10
107.211410381
20
74.6059884715
11
106.806340521
21
74.5339498383
0
LINE
8
0
10
106.806340521
20
74.5339498383
11
106.515836154
21
74.5368436162
0
LINE
8
0
10
106.515836154
20
74.5368436162
11
106.345954141
21
74.6032123475
0
LINE
8
0
10
106.345954141
20
74.6032123475
11
105.363057595
21
77.173094275
0
LINE
8
0
10
105.363057595
20
77.173094275
11
105.445291889
21
77.3358893227
0
LINE
8
0
10
105.445291889
20
77.3358893227
11
105.659720389
21
77.531903557
0
LINE
8
0
10
105.659720389
20
77.531903557
11
106.009477887
21
77.7485619239
0
LINE
8
0
10
106.009477887
20
77.7485619239
11
106.321984678
21
77.9051551451
0
LINE
8
0
10
106.321984678
20
77.9051551451
11
106.583367608
21
78.052470341
0
LINE
8
0
10
106.583367608
20
78.052470341
11
106.943910245
21
78.2794833643
0
LINE
8
0
10
106.943910245
20
78.2794833643
11
107.396219024
21
78.5960400643
0
LINE
8
0
10
107.396219024
20
78.5960400643
11
107.932184888
21
79.0114432481
0
LINE
8
0
10
107.932184888
20
79.0114432481
11
108.543019213
21
79.5344067698
0
LINE
8
0
10
108.543019213
20
79.5344067698
11
109.219292481
21
80.1730118567
0
LINE
8
0
10
109.219292481
20
80.1730118567
11
109.461780785
21
80.4254328598
0
LINE
8
0
10
109.461780785
20
80.4254328598
11
109.021293202
21
81.577131972
0
LINE
8
0
10
109.021293202
20
81.577131972
11
108.417810997
21
82.6524223442
0
LINE
8
0
10
108.417810997
20
82.6524223442
11
108.068675089
21
82.6275013085
0
LINE
8
0
10
108.068675089
20
82.6275013085
11
107.145219351
21
82.516184241
0
LINE
8
0
10
107.145219351
20
82.516184241
11
106.352510697
21
82.3811938402
0
LINE
8
0
10
106.352510697
20
82.3811938402
11
105.690369324
21
82.2349474211
0
LINE
8
0
10
105.690369324
20
82.2349474211
11
105.157719199
21
82.0897743527
0
LINE
8
0
10
105.157719199
20
82.0897743527
11
104.75259689
21
81.9578583928
0
LINE
8
0
10
104.75259689
20
81.9578583928
11
104.472163877
21
81.851180708
0
LINE
8
0
10
104.472163877
20
81.851180708
11
104.151896782
21
81.7111417156
0
LINE
8
0
10
104.151896782
20
81.7111417156
11
103.761632512
21
81.5808921271
0
LINE
8
0
10
103.761632512
20
81.5808921271
11
103.473802606
21
81.5414572919
0
LINE
8
0
10
103.473802606
20
81.5414572919
11
103.296067598
21
81.5823837366
0
LINE
8
0
10
103.296067598
20
81.5823837366
11
101.949467609
21
83.9817684934
0
LINE
8
0
10
101.949467609
20
83.9817684934
11
102.007122414
21
84.1548021036
0
LINE
8
0
10
102.007122414
20
84.1548021036
11
102.190725926
21
84.3799485262
0
LINE
8
0
10
102.190725926
20
84.3799485262
11
102.505210476
21
84.6452231448
0
LINE
8
0
10
102.505210476
20
84.6452231448
11
102.791586842
21
84.8456489634
0
LINE
8
0
10
102.791586842
20
84.8456489634
11
103.028735045
21
85.0294519353
0
LINE
8
0
10
103.028735045
20
85.0294519353
11
103.352382151
21
85.3065411934
0
LINE
8
0
10
103.352382151
20
85.3065411934
11
103.753779816
21
85.6855811515
0
LINE
8
0
10
103.753779816
20
85.6855811515
11
104.223550901
21
86.1745947922
0
LINE
8
0
10
104.223550901
20
86.1745947922
11
104.75173169
21
86.7809234752
0
LINE
8
0
10
104.75173169
20
86.7809234752
11
105.327816516
21
87.5111893602
0
LINE
8
0
10
105.327816516
20
87.5111893602
11
105.530967919
21
87.7962269858
0
LINE
8
0
10
105.530967919
20
87.7962269858
11
104.927485714
21
88.871517358
0
LINE
8
0
10
104.927485714
20
88.871517358
11
104.173871063
21
89.8474810428
0
LINE
8
0
10
104.173871063
20
89.8474810428
11
103.8320843
21
89.7719909854
0
LINE
8
0
10
103.8320843
20
89.7719909854
11
102.934677384
21
89.5274039491
0
LINE
8
0
10
102.934677384
20
89.5274039491
11
102.170071095
21
89.2784327857
0
LINE
8
0
10
102.170071095
20
89.2784327857
11
101.536279568
21
89.0373363037
0
LINE
8
0
10
101.536279568
20
89.0373363037
11
101.030443068
21
88.816155811
0
LINE
8
0
10
101.030443068
20
88.816155811
11
100.648845116
21
88.6266593497
0
LINE
8
0
10
100.648845116
20
88.6266593497
11
100.38693297
21
88.4802871156
0
LINE
8
0
10
100.38693297
20
88.4802871156
11
100.090468685
21
88.2951092042
0
LINE
8
0
10
100.090468685
20
88.2951092042
11
99.7233278096
21
88.1094247041
0
LINE
8
0
10
99.7233278096
20
88.1094247041
11
99.4443069585
21
88.028501741
0
LINE
8
0
10
99.4443069585
20
88.028501741
11
99.2625070694
21
88.043113623
0
LINE
8
0
10
99.2625070694
20
88.043113623
11
97.580904078
21
90.2208624887
0
LINE
8
0
10
97.580904078
20
90.2208624887
11
97.6127505813
21
90.4004467503
0
LINE
8
0
10
97.6127505813
20
90.4004467503
11
97.7616159164
21
90.6499267561
0
LINE
8
0
10
97.7616159164
20
90.6499267561
11
98.0341248264
21
90.9581637586
0
LINE
8
0
10
98.0341248264
20
90.9581637586
11
98.2882671513
21
91.1981504462
0
LINE
8
0
10
98.2882671513
20
91.1981504462
11
98.4961262262
21
91.4145237528
0
LINE
8
0
10
98.4961262262
20
91.4145237528
11
98.7759798239
21
91.7357835691
0
LINE
8
0
10
98.7759798239
20
91.7357835691
11
99.1179112817
21
92.1692282067
0
LINE
8
0
10
99.1179112817
20
92.1692282067
11
99.5114752321
21
92.7214298276
0
LINE
8
0
10
99.5114752321
20
92.7214298276
11
99.9457452287
21
93.3982008287
0
LINE
8
0
10
99.9457452287
20
93.3982008287
11
100.409363365
21
94.2045631624
0
LINE
8
0
10
100.409363365
20
94.2045631624
11
100.568848047
21
94.5161423284
0
LINE
8
0
10
100.568848047
20
94.5161423284
11
99.815233396
21
95.4921060131
0
LINE
8
0
10
99.815233396
20
95.4921060131
11
98.9275482867
21
96.3479420389
0
LINE
8
0
10
98.9275482867
20
96.3479420389
11
98.6003952594
21
96.2234918993
0
LINE
8
0
10
98.6003952594
20
96.2234918993
11
97.7481638375
21
95.8508478423
0
LINE
8
0
10
97.7481638375
20
95.8508478423
11
97.0279561681
21
95.4932023044
0
LINE
8
0
10
97.0279561681
20
95.4932023044
11
96.4360226536
21
95.1623943124
0
LINE
8
0
10
96.4360226536
20
95.1623943124
11
95.9677808044
21
94.8699204736
0
LINE
8
0
10
95.9677808044
20
94.8699204736
11
95.6178403075
21
94.626882299
0
LINE
8
0
10
95.6178403075
20
94.626882299
11
95.3800312315
21
94.4439351857
0
LINE
8
0
10
95.3800312315
20
94.4439351857
11
95.1136883768
21
94.217565101
0
LINE
8
0
10
95.1136883768
20
94.217565101
11
94.777495867
21
93.9804032322
0
LINE
8
0
10
94.777495867
20
93.9804032322
11
94.5132309163
21
93.8597168735
0
LINE
8
0
10
94.5132309163
20
93.8597168735
11
94.3312408946
21
93.847702766
0
LINE
8
0
10
94.3312408946
20
93.847702766
11
92.3504753495
21
95.7574008043
0
LINE
8
0
10
92.3504753495
20
95.7574008043
11
92.3558347981
21
95.9397081906
0
LINE
8
0
10
92.3558347981
20
95.9397081906
11
92.46678915
21
96.2082045464
0
LINE
8
0
10
92.46678915
20
96.2082045464
11
92.6915143653
21
96.5528343961
0
LINE
8
0
10
92.6915143653
20
96.5528343961
11
92.908006047
21
96.8272670532
0
LINE
8
0
10
92.908006047
20
96.8272670532
11
93.0821458382
21
97.0715990732
0
LINE
8
0
10
93.0821458382
20
97.0715990732
11
93.3122413346
21
97.4301823525
0
LINE
8
0
10
93.3122413346
20
97.4301823525
11
93.5874189094
21
97.9087935497
0
LINE
8
0
10
93.5874189094
20
97.9087935497
11
93.8963875928
21
98.5124139319
0
LINE
8
0
10
93.8963875928
20
98.5124139319
11
94.2274910858
21
99.2452030521
0
LINE
8
0
10
94.2274910858
20
99.2452030521
11
94.5687613171
21
100.110475621
0
LINE
8
0
10
94.5687613171
20
100.110475621
11
94.6811801391
21
100.441955559
0
LINE
8
0
10
94.6811801391
20
100.441955559
11
93.7934950298
21
101.297791585
0
LINE
8
0
10
93.7934950298
20
101.297791585
11
92.7906589291
21
102.015259292
0
LINE
8
0
10
92.7906589291
20
102.015259292
11
92.4851123369
21
101.844501509
0
LINE
8
0
10
92.4851123369
20
101.844501509
11
91.6962202414
21
101.351742693
0
LINE
8
0
10
91.6962202414
20
101.351742693
11
91.0357611681
21
100.893045374
0
LINE
8
0
10
91.0357611681
20
100.893045374
11
90.498301701
21
100.47957647
0
LINE
8
0
10
90.498301701
20
100.47957647
11
90.0776342653
21
100.122042857
0
LINE
8
0
10
90.0776342653
20
100.122042857
11
89.7668095976
21
99.8306429059
0
LINE
8
0
10
89.7668095976
20
99.8306429059
11
89.5581720787
21
99.6150201135
0
LINE
8
0
10
89.5581720787
20
99.6150201135
11
89.3276272904
21
99.3522825408
0
LINE
8
0
10
89.3276272904
20
99.3522825408
11
89.0295485055
21
99.0686979967
0
LINE
8
0
10
89.0295485055
20
99.0686979967
11
88.7856718039
21
98.9108204627
0
LINE
8
0
10
88.7856718039
20
98.9108204627
11
88.6073704509
21
98.8724364254
0
LINE
8
0
10
88.6073704509
20
98.8724364254
11
86.3696589308
21
100.473381738
0
LINE
8
0
10
86.3696589308
20
100.473381738
11
86.3484170973
21
100.654526684
0
LINE
8
0
10
86.3484170973
20
100.654526684
11
86.4190956666
21
100.936316856
0
LINE
8
0
10
86.4190956666
20
100.936316856
11
86.5912475594
21
101.309994366
0
LINE
8
0
10
86.5912475594
20
101.309994366
11
86.7654744536
21
101.613023937
0
LINE
8
0
10
86.7654744536
20
101.613023937
11
86.9021834738
21
101.880107158
0
LINE
8
0
10
86.9021834738
20
101.880107158
11
87.077616783
21
102.26837132
0
LINE
8
0
10
87.077616783
20
102.26837132
11
87.2801755425
21
102.78194831
0
LINE
8
0
10
87.2801755425
20
102.78194831
11
87.4979638278
21
103.424122333
0
LINE
8
0
10
87.4979638278
20
103.424122333
11
87.7188439211
21
104.197311444
0
LINE
8
0
10
87.7188439211
20
104.197311444
11
87.9304926648
21
105.103052467
0
LINE
8
0
10
87.9304926648
20
105.103052467
11
87.9934496148
21
105.447368256
0
LINE
8
0
10
87.9934496148
20
105.447368256
11
86.9906135141
21
106.164835964
0
LINE
8
0
10
86.9906135141
20
106.164835964
11
85.8940001326
21
106.728643775
0
LINE
8
0
10
85.8940001326
20
106.728643775
11
85.6165721706
21
106.515217754
0
LINE
8
0
10
85.6165721706
20
106.515217754
11
84.9078332669
21
105.912846476
0
LINE
8
0
10
84.9078332669
20
105.912846476
11
84.3211993281
21
105.362873714
0
LINE
8
0
10
84.3211993281
20
105.362873714
11
83.849668924
21
104.87555627
0
LINE
8
0
10
83.849668924
20
104.87555627
11
83.4855416978
21
104.460583091
0
LINE
8
0
10
83.4855416978
20
104.460583091
11
83.2204575473
21
104.127032048
0
LINE
8
0
10
83.2204575473
20
104.127032048
11
83.045438332
21
103.883329202
0
LINE
8
0
10
83.045438332
20
103.883329202
11
82.8556052721
21
103.589823936
0
LINE
8
0
10
82.8556052721
20
103.589823936
11
82.6019932438
21
103.265860829
0
LINE
8
0
10
82.6019932438
20
103.265860829
11
82.3837025998
21
103.074157005
0
LINE
8
0
10
82.3837025998
20
103.074157005
11
82.2128900994
21
103.010221127
0
LINE
8
0
10
82.2128900994
20
103.010221127
11
79.7659255402
21
104.268292345
0
LINE
8
0
10
79.7659255402
20
104.268292345
11
79.7185351576
21
104.44441406
0
LINE
8
0
10
79.7185351576
20
104.44441406
11
79.7474315532
21
104.73349218
0
LINE
8
0
10
79.7474315532
20
104.73349218
11
79.8633410049
21
105.128253063
0
LINE
8
0
10
79.8633410049
20
105.128253063
11
79.9915897678
21
105.453420998
0
LINE
8
0
10
79.9915897678
20
105.453420998
11
80.0879543014
21
105.737563004
0
LINE
8
0
10
80.0879543014
20
105.737563004
11
80.2049863671
21
106.147232873
0
LINE
8
0
10
80.2049863671
20
106.147232873
11
80.3306091229
21
106.684829654
0
LINE
8
0
10
80.3306091229
20
106.684829654
11
80.452575231
21
107.351870494
0
LINE
8
0
10
80.452575231
20
107.351870494
11
80.558524249
21
108.148980413
0
LINE
8
0
10
80.558524249
20
108.148980413
11
80.6360405793
21
109.07588559
0
LINE
8
0
10
80.6360405793
20
109.07588559
11
80.6481938393
21
109.425698739
0
LINE
8
0
10
80.6481938393
20
109.425698739
11
79.5515804578
21
109.98950655
0
LINE
8
0
10
79.5515804578
20
109.98950655
11
78.3845622058
21
110.38763788
0
LINE
8
0
10
78.3845622058
20
110.38763788
11
78.1411657692
21
110.136092426
0
LINE
8
0
10
78.1411657692
20
110.136092426
11
77.5276855967
21
109.436947186
0
LINE
8
0
10
77.5276855967
20
109.436947186
11
77.0273798762
21
108.807420694
0
LINE
8
0
10
77.0273798762
20
108.807420694
11
76.631828387
21
108.256641035
0
LINE
8
0
10
76.631828387
20
108.256641035
11
76.33200211
21
107.793072724
0
LINE
8
0
10
76.33200211
20
107.793072724
11
76.1183082852
21
107.424479649
0
LINE
8
0
10
76.1183082852
20
107.424479649
11
75.9806376043
21
107.157890852
0
LINE
8
0
10
75.9806376043
20
107.157890852
11
75.8355622348
21
106.839873449
0
LINE
8
0
10
75.8355622348
20
106.839873449
11
75.6318222633
21
106.48243649
0
LINE
8
0
10
75.6318222633
20
106.48243649
11
75.4437701628
21
106.260992211
0
LINE
8
0
10
75.4437701628
20
106.260992211
11
75.2840870869
21
106.172867174
0
LINE
8
0
10
75.2840870869
20
106.172867174
11
72.6800222899
21
107.061250693
0
LINE
8
0
10
72.6800222899
20
107.061250693
11
72.6074934018
21
107.228595448
0
LINE
8
0
10
72.6074934018
20
107.228595448
11
72.5939917474
21
107.518800318
0
LINE
8
0
10
72.5939917474
20
107.518800318
11
72.6511883491
21
107.926230931
0
LINE
8
0
10
72.6511883491
20
107.926230931
11
72.7307255811
21
108.266606841
0
LINE
8
0
10
72.7307255811
20
108.266606841
11
72.7846917855
21
108.561751639
0
LINE
8
0
10
72.7846917855
20
108.561751639
11
72.8408282722
21
108.984095812
0
LINE
8
0
10
72.8408282722
20
108.984095812
11
72.8868375935
21
109.534254442
0
LINE
8
0
10
72.8868375935
20
109.534254442
11
72.9103820285
21
110.211945281
0
LINE
8
0
10
72.9103820285
20
110.211945281
11
72.8991418517
21
111.015986994
0
LINE
8
0
10
72.8991418517
20
111.015986994
11
72.8408736428
21
111.944300952
0
LINE
8
0
10
72.8408736428
20
111.944300952
11
72.8019641871
21
112.2921558
0
LINE
8
0
10
72.8019641871
20
112.2921558
11
71.6349459351
21
112.69028713
0
LINE
8
0
10
71.6349459351
20
112.69028713
11
70.4223957805
21
112.9142565
0
LINE
8
0
10
70.4223957805
20
112.9142565
11
70.2182184419
21
112.629952869
0
LINE
8
0
10
70.2182184419
20
112.629952869
11
69.7130722652
21
111.848934732
0
LINE
8
0
10
69.7130722652
20
111.848934732
11
69.309757911
21
111.153271775
0
LINE
8
0
10
69.309757911
20
111.153271775
11
68.9986158299
21
110.550768814
0
LINE
8
0
10
68.9986158299
20
110.550768814
11
68.7694807787
21
110.048485523
0
LINE
8
0
10
68.7694807787
20
110.048485523
11
68.6117317924
21
109.652706338
0
LINE
8
0
10
68.6117317924
20
109.652706338
11
68.5143438574
21
109.368913469
0
LINE
8
0
10
68.5143438574
20
109.368913469
11
68.417118208
21
109.033161917
0
LINE
8
0
10
68.417118208
20
109.033161917
11
68.2675926569
21
108.649869254
0
LINE
8
0
10
68.2675926569
20
108.649869254
11
68.1137871042
21
108.403404219
0
LINE
8
0
10
68.1137871042
20
108.403404219
11
67.9686368202
21
108.292968257
0
LINE
8
0
10
67.9686368202
20
108.292968257
11
65.2629729056
21
108.792729724
0
LINE
8
0
10
65.2629729056
20
108.792729724
11
65.1668513394
21
108.947730857
0
LINE
8
0
10
65.1668513394
20
108.947730857
11
65.1112393991
21
109.232877264
0
LINE
8
0
10
65.1112393991
20
109.232877264
11
65.1085041047
21
109.644293931
0
LINE
8
0
10
65.1085041047
20
109.644293931
11
65.1376346076
21
109.992623294
0
LINE
8
0
10
65.1376346076
20
109.992623294
11
65.1480522869
21
110.292480385
0
LINE
8
0
10
65.1480522869
20
110.292480385
11
65.1420967429
21
110.718497329
0
LINE
8
0
10
65.1420967429
20
110.718497329
11
65.1075120208
21
111.269492132
0
LINE
8
0
10
65.1075120208
20
111.269492132
11
65.032132974
21
111.943389166
0
LINE
8
0
10
65.032132974
20
111.943389166
11
64.9039431673
21
112.73722592
0
LINE
8
0
10
64.9039431673
20
112.73722592
11
64.7111323049
21
113.647163259
0
LINE
8
0
10
64.7111323049
20
113.647163259
11
64.621989421
21
113.985645883
0
LINE
8
0
10
64.621989421
20
113.985645883
11
63.4094392664
21
114.209615254
0
LINE
8
0
10
63.4094392664
20
114.209615254
11
62.1772006106
21
114.254649147
0
LINE
8
0
10
62.1772006106
20
114.254649147
11
62.0165940555
21
113.943646775
0
LINE
8
0
10
62.0165940555
20
113.943646775
11
61.6305481884
21
113.097401788
0
LINE
8
0
10
61.6305481884
20
113.097401788
11
61.3328211457
21
112.350429214
0
LINE
8
0
10
61.3328211457
20
112.350429214
11
61.1127199259
21
111.709044255
0
LINE
8
0
10
61.1127199259
20
111.709044255
11
60.9591597162
21
111.178751282
0
LINE
8
0
10
60.9591597162
20
111.178751282
11
60.8607177144
21
110.764221333
0
LINE
8
0
10
60.8607177144
20
110.764221333
11
60.8056881799
21
110.469272943
0
LINE
8
0
10
60.8056881799
20
110.469272943
11
60.7583844465
21
110.122943203
0
LINE
8
0
10
60.7583844465
20
110.122943203
11
60.6662601935
21
109.721964055
0
LINE
8
0
10
60.6662601935
20
109.721964055
11
60.5499792867
21
109.455731239
0
LINE
8
0
10
60.5499792867
20
109.455731239
11
60.422455421
21
109.325338101
0
LINE
8
0
10
60.422455421
20
109.325338101
11
57.6728589177
21
109.425825969
0
LINE
8
0
10
57.6728589177
20
109.425825969
11
57.5551933376
21
109.565179899
0
LINE
8
0
10
57.5551933376
20
109.565179899
11
57.4586563835
21
109.839190443
0
LINE
8
0
10
57.4586563835
20
109.839190443
11
57.396047491
21
110.245824532
0
LINE
8
0
10
57.396047491
20
110.245824532
11
57.3741503988
21
110.594683312
0
LINE
8
0
10
57.3741503988
20
110.594683312
11
57.3407975181
21
110.892861763
0
LINE
8
0
10
57.3407975181
20
110.892861763
11
57.2728768756
21
111.313471667
0
LINE
8
0
10
57.2728768756
20
111.313471667
11
57.1584352235
21
111.853559145
0
LINE
8
0
10
57.1584352235
20
111.853559145
11
56.9857392683
21
112.50929943
0
LINE
8
0
10
56.9857392683
20
112.50929943
11
56.7433319749
21
113.276011971
0
LINE
8
0
10
56.7433319749
20
113.276011971
11
56.4200878878
21
114.148178957
0
LINE
8
0
10
56.4200878878
20
114.148178957
11
56.2826115014
21
114.470075188
0
LINE
8
0
10
56.2826115014
20
114.470075188
11
55.0503728456
21
114.515109081
0
LINE
8
0
10
55.0503728456
20
114.515109081
11
53.8247087162
21
114.380247677
0
LINE
8
0
10
53.8247087162
20
114.380247677
11
53.7110959945
21
114.049175042
0
LINE
8
0
10
53.7110959945
20
114.049175042
11
53.4523783344
21
113.155739447
0
LINE
8
0
10
53.4523783344
20
113.155739447
11
53.2665841382
21
112.37337768
0
LINE
8
0
10
53.2665841382
20
112.37337768
11
53.1422148552
21
111.706780729
0
LINE
8
0
10
53.1422148552
20
111.706780729
11
53.0675023563
21
111.159780347
0
LINE
8
0
10
53.0675023563
20
111.159780347
11
53.0304654591
21
110.735334621
0
LINE
8
0
10
53.0304654591
20
110.735334621
11
53.0189671843
21
110.435517022
0
LINE
8
0
10
53.0189671843
20
110.435517022
11
53.0225935638
21
110.085990513
0
LINE
8
0
10
53.0225935638
20
110.085990513
11
52.9898340773
21
109.675871053
0
LINE
8
0
10
52.9898340773
20
109.675871053
11
52.9135561422
21
109.395544746
0
LINE
8
0
10
52.9135561422
20
109.395544746
11
52.8063766446
21
109.247973536
0
LINE
8
0
10
52.8063766446
20
109.247973536
11
50.0714504283
21
108.94704608
0
LINE
8
0
10
50.0714504283
20
108.94704608
11
49.9347486719
21
109.067782721
0
LINE
8
0
10
49.9347486719
20
109.067782721
11
49.7993442215
21
109.324817342
0
LINE
8
0
10
49.7993442215
20
109.324817342
11
49.6781961307
21
109.718002153
0
LINE
8
0
10
49.6781961307
20
109.718002153
11
49.605738142
21
110.059955032
0
LINE
8
0
10
49.605738142
20
110.059955032
11
49.5293255601
21
110.350099686
0
LINE
8
0
10
49.5293255601
20
110.350099686
11
49.4008874296
21
110.756337981
0
LINE
8
0
10
49.4008874296
20
110.756337981
11
49.2090279725
21
111.274007107
0
LINE
8
0
10
49.2090279725
20
111.274007107
11
48.9426958235
21
111.897614676
0
LINE
8
0
10
48.9426958235
20
111.897614676
11
48.591237534
21
112.620861859
0
LINE
8
0
10
48.591237534
20
112.620861859
11
48.1444496086
21
113.436669765
0
LINE
8
0
10
48.1444496086
20
113.436669765
11
47.9615697903
21
113.735118945
0
LINE
8
0
10
47.9615697903
20
113.735118945
11
46.7359056609
21
113.600257541
0
LINE
8
0
10
46.7359056609
20
113.600257541
11
45.5429389608
21
113.288375177
0
LINE
8
0
10
45.5429389608
20
113.288375177
11
45.4787415305
21
112.944288516
0
LINE
8
0
10
45.4787415305
20
112.944288516
11
45.3528661951
21
112.022704342
0
LINE
8
0
10
45.3528661951
20
112.022704342
11
45.2829647261
21
111.221628064
0
LINE
8
0
10
45.2829647261
20
111.221628064
11
45.2569780952
21
110.544026479
0
LINE
8
0
10
45.2569780952
20
110.544026479
11
45.2627056744
21
109.991977051
0
LINE
8
0
10
45.2627056744
20
109.991977051
11
45.2878632591
21
109.566661872
0
LINE
8
0
10
45.2878632591
20
109.566661872
11
45.3201413096
21
109.268365157
0
LINE
8
0
10
45.3201413096
20
109.268365157
11
45.3746205121
21
108.923091428
0
LINE
8
0
10
45.3746205121
20
108.923091428
11
45.4019240037
21
108.51257264
0
LINE
8
0
10
45.4019240037
20
108.51257264
11
45.367274772
21
108.224127512
0
LINE
8
0
10
45.367274772
20
108.224127512
11
45.2827239873
21
108.062523454
0
LINE
8
0
10
45.2827239873
20
108.062523454
11
42.6207582622
21
107.36659442
0
LINE
8
0
10
42.6207582622
20
107.36659442
11
42.4679338901
21
107.46614048
0
LINE
8
0
10
42.4679338901
20
107.46614048
11
42.2965478542
21
107.700720931
0
LINE
8
0
10
42.2965478542
20
107.700720931
11
42.1194426264
21
108.072076413
0
LINE
8
0
10
42.1194426264
20
108.072076413
11
41.9979680573
21
108.399835258
0
LINE
8
0
10
41.9979680573
20
108.399835258
11
41.8801243757
21
108.675762186
0
LINE
8
0
10
41.8801243757
20
108.675762186
11
41.6939061929
21
109.058970607
0
LINE
8
0
10
41.6939061929
20
109.058970607
11
41.4287180822
21
109.543188163
0
LINE
8
0
10
41.4287180822
20
109.543188163
11
41.0744261466
21
110.121371904
0
LINE
8
0
10
41.0744261466
20
110.121371904
11
40.6214075843
21
110.785738971
0
LINE
8
0
10
40.6214075843
20
110.785738971
11
40.0605983296
21
111.527800269
0
LINE
8
0
10
40.0605983296
20
111.527800269
11
39.8362128452
21
111.79644147
0
LINE
8
0
10
39.8362128452
20
111.79644147
11
38.6432461452
21
111.484559106
0
LINE
8
0
10
38.6432461452
20
111.484559106
11
37.5084028885
21
111.002303013
0
LINE
8
0
10
37.5084028885
20
111.002303013
11
37.4949890062
21
110.652535936
0
LINE
8
0
10
37.4949890062
20
110.652535936
11
37.5046388099
21
109.722445149
0
LINE
8
0
10
37.5046388099
20
109.722445149
11
37.5521198966
21
108.919727911
0
LINE
8
0
10
37.5521198966
20
108.919727911
11
37.6250697777
21
108.245563593
0
LINE
8
0
10
37.6250697777
20
108.245563593
11
37.7111153615
21
107.700231095
0
LINE
8
0
10
37.7111153615
20
107.700231095
11
37.7979312378
21
107.283111317
0
LINE
8
0
10
37.7979312378
20
107.283111317
11
37.873297663
21
106.992693162
0
LINE
8
0
10
37.873297663
20
106.992693162
11
37.9774685589
21
106.659031123
0
LINE
8
0
10
37.9774685589
20
106.659031123
11
38.0642531021
21
106.256862503
0
LINE
8
0
10
38.0642531021
20
106.256862503
11
38.0719710621
21
105.96644626
0
LINE
8
0
10
38.0719710621
20
105.96644626
11
38.0118510435
21
105.794253664
0
LINE
8
0
10
38.0118510435
20
105.794253664
11
35.4795809873
21
104.718155571
0
LINE
8
0
10
35.4795809873
20
104.718155571
11
35.3138911857
21
104.794389399
0
LINE
8
0
10
35.3138911857
20
104.794389399
11
35.1101763601
21
105.001516005
0
LINE
8
0
10
35.1101763601
20
105.001516005
11
34.8808886857
21
105.343127361
0
LINE
8
0
10
34.8808886857
20
105.343127361
11
34.7129865558
21
105.649706561
0
LINE
8
0
10
34.7129865558
20
105.649706561
11
34.556223408
21
105.90553486
0
LINE
8
0
10
34.556223408
20
105.90553486
11
34.3161940903
21
106.257545985
0
LINE
8
0
10
34.3161940903
20
106.257545985
11
33.98332935
21
106.697991714
0
LINE
8
0
10
33.98332935
20
106.697991714
11
33.5486287454
21
107.218428644
0
LINE
8
0
10
33.5486287454
20
107.218428644
11
33.0037052144
21
107.809755764
0
LINE
8
0
10
33.0037052144
20
107.809755764
11
32.340827306
21
108.462254705
0
LINE
8
0
10
32.340827306
20
108.462254705
11
32.0797185426
21
108.695362307
0
LINE
8
0
10
32.0797185426
20
108.695362307
11
30.944875286
21
108.213106214
0
LINE
8
0
10
30.944875286
20
108.213106214
11
29.8923426865
21
107.570754844
0
LINE
8
0
10
29.8923426865
20
107.570754844
11
29.9299982458
21
107.222762029
0
LINE
8
0
10
29.9299982458
20
107.222762029
11
30.0749675197
21
106.3039879
0
LINE
8
0
10
30.0749675197
20
106.3039879
11
30.2388191851
21
105.516738226
0
LINE
8
0
10
30.2388191851
20
105.516738226
11
30.4091507782
21
104.860379817
0
LINE
8
0
10
30.4091507782
20
104.860379817
11
30.5736804544
21
104.333387064
0
LINE
8
0
10
30.5736804544
20
104.333387064
11
30.7203042926
21
103.933352871
0
LINE
8
0
10
30.7203042926
20
103.933352871
11
30.8371527881
21
103.657003034
0
LINE
8
0
10
30.8371527881
20
103.657003034
11
30.9887951555
21
103.342064113
0
LINE
8
0
10
30.9887951555
20
103.342064113
11
31.1332110885
21
102.956817188
0
LINE
8
0
10
31.1332110885
20
102.956817188
11
31.1831317451
21
102.670619547
0
LINE
8
0
10
31.1831317451
20
102.670619547
11
31.1487238466
21
102.491508399
0
LINE
8
0
10
31.1487238466
20
102.491508399
11
28.8001203991
21
101.058176411
0
LINE
8
0
10
28.8001203991
20
101.058176411
11
28.6250965585
21
101.109473214
0
LINE
8
0
10
28.6250965585
20
101.109473214
11
28.393394771
21
101.284731432
0
LINE
8
0
10
28.393394771
20
101.284731432
11
28.1168115187
21
101.589317807
0
LINE
8
0
10
28.1168115187
20
101.589317807
11
27.9060603704
21
101.86818316
0
LINE
8
0
10
27.9060603704
20
101.86818316
11
27.7137188908
21
102.098460294
0
LINE
8
0
10
27.7137188908
20
102.098460294
11
27.4249942462
21
102.411771617
0
LINE
8
0
10
27.4249942462
20
102.411771617
11
27.0315473104
21
102.799058183
0
LINE
8
0
10
27.0315473104
20
102.799058183
11
26.5257029256
21
103.250656092
0
LINE
8
0
10
26.5257029256
20
103.250656092
11
25.9004885248
21
103.756340154
0
LINE
8
0
10
25.9004885248
20
103.756340154
11
25.1496700545
21
104.305369857
0
LINE
8
0
10
25.1496700545
20
104.305369857
11
24.857403092
21
104.497975577
0
LINE
8
0
10
24.857403092
20
104.497975577
11
23.8048704925
21
103.855624206
0
LINE
8
0
10
23.8048704925
20
103.855624206
11
22.8570814552
21
103.066868162
0
LINE
8
0
10
22.8570814552
20
103.066868162
11
22.9450038934
21
102.728066471
0
LINE
8
0
10
22.9450038934
20
102.728066471
11
23.2222028691
21
101.840191076
0
LINE
8
0
10
23.2222028691
20
101.840191076
11
23.4989328995
21
101.085187826
0
LINE
8
0
10
23.4989328995
20
101.085187826
11
23.7630158823
21
100.460624465
0
LINE
8
0
10
23.7630158823
20
100.460624465
11
24.0025229864
21
99.9632033932
0
LINE
8
0
10
24.0025229864
20
99.9632033932
11
24.2058297541
21
99.5887808193
0
LINE
8
0
10
24.2058297541
20
99.5887808193
11
24.361669897
21
99.332389219
0
LINE
8
0
10
24.361669897
20
99.332389219
11
24.5575517422
21
99.0428857919
0
LINE
8
0
10
24.5575517422
20
99.0428857919
11
24.75652109
21
98.6827714291
0
LINE
8
0
10
24.75652109
20
98.6827714291
11
24.8475804712
21
98.4068921975
0
LINE
8
0
10
24.8475804712
20
98.4068921975
11
24.8396180373
21
98.224679941
0
LINE
8
0
10
24.8396180373
20
98.224679941
11
22.7247376036
21
96.4646630395
0
LINE
8
0
10
22.7247376036
20
96.4646630395
11
22.5441100532
21
96.4899295158
0
LINE
8
0
10
22.5441100532
20
96.4899295158
11
22.2893596252
21
96.6295840207
0
LINE
8
0
10
22.2893596252
20
96.6295840207
11
21.9713756868
21
96.8906536869
0
LINE
8
0
10
21.9713756868
20
96.8906536869
11
21.7222673149
21
97.135861661
0
LINE
8
0
10
21.7222673149
20
97.135861661
11
21.4984469281
21
97.3356796716
0
LINE
8
0
10
21.4984469281
20
97.3356796716
11
21.1671806213
21
97.603613506
0
LINE
8
0
10
21.1671806213
20
97.603613506
11
20.7215371284
21
97.9294865687
0
LINE
8
0
10
20.7215371284
20
97.9294865687
11
20.155330158
21
98.3026204319
0
LINE
8
0
10
20.155330158
20
98.3026204319
11
19.463150247
21
98.7118836584
0
LINE
8
0
10
19.463150247
20
98.7118836584
11
18.640393607
21
99.1457425076
0
LINE
8
0
10
18.640393607
20
99.1457425076
11
18.3231976083
21
99.2937412877
0
LINE
8
0
10
18.3231976083
20
99.2937412877
11
17.375408571
21
98.5049852435
0
LINE
8
0
10
17.375408571
20
98.5049852435
11
16.5525635737
21
97.5866354917
0
LINE
8
0
10
16.5525635737
20
97.5866354917
11
16.6888789765
21
97.2642458959
0
LINE
8
0
10
16.6888789765
20
97.2642458959
11
17.0923996391
21
96.4261927564
0
LINE
8
0
10
17.0923996391
20
96.4261927564
11
17.4761100143
21
95.7195275134
0
LINE
8
0
10
17.4761100143
20
95.7195275134
11
17.8283159166
21
95.1400706854
0
LINE
8
0
10
17.8283159166
20
95.1400706854
11
18.1376957706
21
94.6828229608
0
LINE
8
0
10
18.1376957706
20
94.6828229608
11
18.3933523369
21
94.3419921731
0
LINE
8
0
10
18.3933523369
20
94.3419921731
11
18.5848626652
21
94.1110233505
0
LINE
8
0
10
18.5848626652
20
94.1110233505
11
18.8208091067
21
93.8531256803
0
LINE
8
0
10
18.8208091067
20
93.8531256803
11
19.0700911832
21
93.5258190931
0
LINE
8
0
10
19.0700911832
20
93.5258190931
11
19.2003485163
21
93.2661381572
0
LINE
8
0
10
19.2003485163
20
93.2661381572
11
19.2190012524
21
93.08470833
0
LINE
8
0
10
19.2190012524
20
93.08470833
11
17.3829188371
21
91.03551822
0
LINE
8
0
10
17.3829188371
20
91.03551822
11
17.2005373396
21
91.0342158585
0
LINE
8
0
10
17.2005373396
20
91.0342158585
11
16.9281678342
21
91.1352901569
0
LINE
8
0
10
16.9281678342
20
91.1352901569
11
16.5755604853
21
91.3472788671
0
LINE
8
0
10
16.5755604853
20
91.3472788671
11
16.2934042022
21
91.5536032802
0
LINE
8
0
10
16.2934042022
20
91.5536032802
11
16.0428752513
21
91.7187033941
0
LINE
8
0
10
16.0428752513
20
91.7187033941
11
15.6761276484
21
91.9355491951
0
LINE
8
0
10
15.6761276484
20
91.9355491951
11
15.1877857157
21
92.1930633356
0
LINE
8
0
10
15.1877857157
20
92.1930633356
11
14.5732838784
21
92.4797804525
0
LINE
8
0
10
14.5732838784
20
92.4797804525
11
13.8288910703
21
92.7839001081
0
LINE
8
0
10
13.8288910703
20
92.7839001081
11
12.9517318899
21
93.0933411557
0
LINE
8
0
10
12.9517318899
20
93.0933411557
11
12.616367337
21
93.1935786594
0
LINE
8
0
10
12.616367337
20
93.1935786594
11
11.7935223396
21
92.2752289075
0
LINE
8
0
10
11.7935223396
20
92.2752289075
11
11.1131588949
21
91.2468584785
0
LINE
8
0
10
11.1131588949
20
91.2468584785
11
11.2949619362
21
90.9477521518
0
LINE
8
0
10
11.2949619362
20
90.9477521518
11
11.8162039434
21
90.1773829159
0
LINE
8
0
10
11.8162039434
20
90.1773829159
11
12.298716543
21
89.5341170229
0
LINE
8
0
10
12.298716543
20
89.5341170229
11
12.7315387074
21
89.0121168437
0
LINE
8
0
10
12.7315387074
20
89.0121168437
11
13.1041974168
21
88.6047879078
0
LINE
8
0
10
13.1041974168
20
88.6047879078
11
13.4067549058
21
88.304813123
0
LINE
8
0
10
13.4067549058
20
88.304813123
11
13.6298537094
21
88.1041897775
0
LINE
8
0
10
13.6298537094
20
88.1041897775
11
13.9008359584
21
87.8833945053
0
LINE
8
0
10
13.9008359584
20
87.8833945053
11
14.1951177488
21
87.5958716654
0
LINE
8
0
10
14.1951177488
20
87.5958716654
11
14.3617968251
21
87.3579236734
0
LINE
8
0
10
14.3617968251
20
87.3579236734
11
14.4066671805
21
87.1811431372
0
LINE
8
0
10
14.4066671805
20
87.1811431372
11
12.8885156926
21
84.8864547483
0
LINE
8
0
10
12.8885156926
20
84.8864547483
11
12.708267393
21
84.8586113065
0
LINE
8
0
10
12.708267393
20
84.8586113065
11
12.4240838932
21
84.9189511753
0
LINE
8
0
10
12.4240838932
20
84.9189511753
11
12.0443683474
21
85.0773407581
0
LINE
8
0
10
12.0443683474
20
85.0773407581
11
11.7351778244
21
85.2403841635
0
LINE
8
0
10
11.7351778244
20
85.2403841635
11
11.4632798989
21
85.3672475585
0
LINE
8
0
10
11.4632798989
20
85.3672475585
11
11.0688675884
21
85.5283836344
0
LINE
8
0
10
11.0688675884
20
85.5283836344
11
10.5482353764
21
85.7120503858
0
LINE
8
0
10
10.5482353764
20
85.7120503858
11
9.89853571198
21
85.9062398788
0
LINE
8
0
10
9.89853571198
20
85.9062398788
11
9.11779544699
21
86.0987341811
0
LINE
8
0
10
9.11779544699
20
86.0987341811
11
8.20492885121
21
86.2771622284
0
LINE
8
0
10
8.20492885121
20
86.2771622284
11
7.85854345733
21
86.3275020674
0
LINE
8
0
10
7.85854345733
20
86.3275020674
11
7.17818001254
21
85.2991316384
0
LINE
8
0
10
7.17818001254
20
85.2991316384
11
6.6547988859
21
84.1826584624
0
LINE
8
0
10
6.6547988859
20
84.1826584624
11
6.87821474959
21
83.9132103369
0
LINE
8
0
10
6.87821474959
20
83.9132103369
11
7.50606873289
21
83.2269440872
0
LINE
8
0
10
7.50606873289
20
83.2269440872
11
8.07709963848
21
82.6607876401
0
LINE
8
0
10
8.07709963848
20
82.6607876401
11
8.58131321208
21
82.2073696372
0
LINE
8
0
10
8.58131321208
20
82.2073696372
11
9.00930820354
21
81.8586409991
0
LINE
8
0
10
9.00930820354
20
81.8586409991
11
9.3523181277
21
81.6059156588
0
LINE
8
0
10
9.3523181277
20
81.6059156588
11
9.60225044277
21
81.4399137289
0
LINE
8
0
10
9.60225044277
20
81.4399137289
11
9.90249298319
21
81.2609267225
0
LINE
8
0
10
9.90249298319
20
81.2609267225
11
10.2355023821
21
81.0193156799
0
LINE
8
0
10
10.2355023821
20
81.0193156799
11
10.4350507263
21
80.8081720803
0
LINE
8
0
10
10.4350507263
20
80.8081720803
11
10.5051823674
21
80.6398086054
0
LINE
8
0
10
10.5051823674
20
80.6398086054
11
9.33731857014
21
78.1485292365
0
LINE
8
0
10
9.33731857014
20
78.1485292365
11
9.1630451479
21
78.0947381492
0
LINE
8
0
10
9.1630451479
20
78.0947381492
11
8.87310453171
21
78.1130575488
0
LINE
8
0
10
8.87310453171
20
78.1130575488
11
8.47437376648
21
78.2144722052
0
LINE
8
0
10
8.47437376648
20
78.2144722052
11
8.14473886292
21
78.3307596159
0
LINE
8
0
10
8.14473886292
20
78.3307596159
11
7.8572669951
21
78.4166824189
0
LINE
8
0
10
7.8572669951
20
78.4166824189
11
7.44359619056
21
78.518674434
0
LINE
8
0
10
7.44359619056
20
78.518674434
11
6.90177007091
21
78.6245792584
0
LINE
8
0
10
6.90177007091
20
78.6245792584
11
6.23071979974
21
78.7221023156
0
LINE
8
0
10
6.23071979974
20
78.7221023156
11
5.43027220119
21
78.7988685827
0
LINE
8
0
10
5.43027220119
20
78.7988685827
11
4.50115435668
21
78.8424807457
0
LINE
8
0
10
4.50115435668
20
78.8424807457
11
4.1511307251
21
78.8418500137
0
LINE
8
0
10
4.1511307251
20
78.8418500137
11
3.62774959846
21
77.7253768377
0
LINE
8
0
10
3.62774959846
20
77.7253768377
11
3.27250575001
21
76.5445966022
0
LINE
8
0
10
3.27250575001
20
76.5445966022
11
3.53277271479
21
76.3105494969
0
LINE
8
0
10
3.53277271479
20
76.3105494969
11
4.25385705661
21
75.7230128072
0
LINE
8
0
10
4.25385705661
20
75.7230128072
11
4.90123573585
21
75.2460324476
0
LINE
8
0
10
4.90123573585
20
75.2460324476
11
5.46609428167
21
74.8708604385
0
LINE
8
0
10
5.46609428167
20
74.8708604385
11
5.94030358498
21
74.5881646437
0
LINE
8
0
10
5.94030358498
20
74.5881646437
11
6.31645528328
21
74.3880751499
0
LINE
8
0
10
6.31645528328
20
74.3880751499
11
6.58789423651
21
74.2602326783
0
LINE
8
0
10
6.58789423651
20
74.2602326783
11
6.91099791983
21
74.1268687351
0
LINE
8
0
10
6.91099791983
20
74.1268687351
11
7.27563741012
21
73.9363190098
0
LINE
8
0
10
7.27563741012
20
73.9363190098
11
7.50380199568
21
73.7564799618
0
LINE
8
0
10
7.50380199568
20
73.7564799618
11
7.59770018827
21
73.6001219232
0
LINE
8
0
10
7.59770018827
20
73.6001219232
11
6.80501507088
21
70.965348869
0
LINE
8
0
10
6.80501507088
20
70.965348869
11
6.64043086149
21
70.8867565997
0
LINE
8
0
10
6.64043086149
20
70.8867565997
11
6.35091270976
21
70.8626650839
0
LINE
8
0
10
6.35091270976
20
70.8626650839
11
5.94166497914
21
70.9049433366
0
LINE
8
0
10
5.94166497914
20
70.9049433366
11
5.59861129062
21
70.9719962883
0
LINE
8
0
10
5.59861129062
20
70.9719962883
11
5.30169244422
21
71.015147204
0
LINE
8
0
10
5.30169244422
20
71.015147204
11
4.87757982069
21
71.0558213755
0
LINE
8
0
10
4.87757982069
20
71.0558213755
11
4.32610787647
21
71.0817070954
0
LINE
8
0
10
4.32610787647
20
71.0817070954
11
3.64800927003
21
71.0804851823
0
LINE
8
0
10
3.64800927003
20
71.0804851823
11
2.84491448877
21
71.0398872744
0
LINE
8
0
10
2.84491448877
20
71.0398872744
11
1.91934792929
21
70.9477540355
0
LINE
8
0
10
1.91934792929
20
70.9477540355
11
1.57314620603
21
70.8961661755
0
LINE
8
0
10
1.57314620603
20
70.8961661755
11
1.21790235758
21
69.71538594
0
LINE
8
0
10
1.21790235758
20
69.71538594
11
1.03836719319
21
68.4954649257
0
LINE
8
0
10
1.03836719319
20
68.4954649257
11
1.32993812057
21
68.3018071482
0
LINE
8
0
10
1.32993812057
20
68.3018071482
11
2.12888416008
21
67.825522343
0
LINE
8
0
10
2.12888416008
20
67.825522343
11
2.83881286037
21
67.4478840791
0
LINE
8
0
10
2.83881286037
20
67.4478840791
11
3.45227739919
21
67.158954204
0
LINE
8
0
10
3.45227739919
20
67.158954204
11
3.96259406634
21
66.9483164225
0
LINE
8
0
10
3.96259406634
20
66.9483164225
11
4.3638705184
21
66.8051273353
0
LINE
8
0
10
4.3638705184
20
66.8051273353
11
4.65103085976
21
66.7181690625
0
LINE
8
0
10
4.65103085976
20
66.7181690625
11
4.99010929192
21
66.6332706033
0
LINE
8
0
10
4.99010929192
20
66.6332706033
11
5.37860721589
21
66.4978434319
0
LINE
8
0
10
5.37860721589
20
66.4978434319
11
5.63052511085
21
66.3531418924
0
LINE
8
0
10
5.63052511085
20
66.3531418924
11
5.74618857795
21
66.2121217905
0
LINE
8
0
10
5.74618857795
20
66.2121217905
11
5.3455768475
21
63.4900106642
0
LINE
8
0
10
5.3455768475
20
63.4900106642
11
5.19418967765
21
63.3882922706
0
LINE
8
0
10
5.19418967765
20
63.3882922706
11
4.91126456712
21
63.3223033083
0
LINE
8
0
10
4.91126456712
20
63.3223033083
11
4.50022227596
21
63.3045440698
0
LINE
8
0
10
4.50022227596
20
63.3045440698
11
4.15106139626
21
63.3209334452
0
LINE
8
0
10
4.15106139626
20
63.3209334452
11
3.85102388102
21
63.3203927867
0
LINE
8
0
10
3.85102388102
20
63.3203927867
11
3.42550866274
21
63.2988822153
0
LINE
8
0
10
3.42550866274
20
63.2988822153
11
2.876144561
21
63.2441971216
0
LINE
8
0
10
2.876144561
20
63.2441971216
11
2.20545011379
21
63.144256281
0
LINE
8
0
10
2.20545011379
20
63.144256281
11
1.41682472081
21
62.9871594721
0
LINE
8
0
10
1.41682472081
20
62.9871594721
11
0.514536290654
21
62.7612444913
0
LINE
8
0
10
0.514536290654
20
62.7612444913
11
0.17953516439
21
62.659799009
0
LINE
8
0
10
0.17953516439
20
62.659799009
11
1.42108547152e-14
21
61.4398779947
0
LINE
8
0
10
1.42108547152e-14
20
61.4398779947
11
0.0
21
60.2068167
0
LINE
8
0
10
0.0
20
60.2068167
11
0.316660561876
21
60.0576757297
0
LINE
8
0
10
0.316660561876
20
60.0576757297
11
1.17644015133
21
59.7027939926
0
LINE
8
0
10
1.17644015133
20
59.7027939926
11
1.93378797496
21
59.4325465285
0
LINE
8
0
10
1.93378797496
20
59.4325465285
11
2.58278357521
21
59.236016826
0
LINE
8
0
10
2.58278357521
20
59.236016826
11
3.11833109242
21
59.1019264364
0
LINE
8
0
10
3.11833109242
20
59.1019264364
11
3.53617978733
21
59.0186895826
0
LINE
8
0
10
3.53617978733
20
59.0186895826
11
3.8329411927
21
58.9744688731
0
LINE
8
0
10
3.8329411927
20
58.9744688731
11
4.18076750562
21
58.9398453612
0
LINE
8
0
10
4.18076750562
20
58.9398453612
11
4.5848437045
21
58.8624271388
0
LINE
8
0
10
4.5848437045
20
58.8624271388
11
4.8551457163
21
58.75594717
0
LINE
8
0
10
4.8551457163
20
58.75594717
11
4.99010929192
21
58.6332706033
0
LINE
8
0
10
4.99010929192
20
58.6332706033
11
4.99010929192
21
55.8818384775
0
LINE
8
0
10
4.99010929192
20
55.8818384775
11
4.8551457163
21
55.7591619108
0
LINE
8
0
10
4.8551457163
20
55.7591619108
11
4.5848437045
21
55.652681942
0
LINE
8
0
10
4.5848437045
20
55.652681942
11
4.18076750562
21
55.5752637196
0
LINE
8
0
10
4.18076750562
20
55.5752637196
11
3.8329411927
21
55.5406402077
0
LINE
8
0
10
3.8329411927
20
55.5406402077
11
3.53617978733
21
55.4964194982
0
LINE
8
0
10
3.53617978733
20
55.4964194982
11
3.11833109242
21
55.4131826444
0
LINE
8
0
10
3.11833109242
20
55.4131826444
11
2.58278357521
21
55.2790922548
0
LINE
8
0
10
2.58278357521
20
55.2790922548
11
1.93378797496
21
55.0825625523
0
LINE
8
0
10
1.93378797496
20
55.0825625523
11
1.17644015133
21
54.8123150882
0
LINE
8
0
10
1.17644015133
20
54.8123150882
11
0.316660561876
21
54.4574333511
0
LINE
8
0
10
0.316660561876
20
54.4574333511
11
2.84217094304e-14
21
54.3082923808
0
LINE
8
0
10
2.84217094304e-14
20
54.3082923808
11
3.5527136788e-14
21
53.0752310861
0
LINE
8
0
10
3.5527136788e-14
20
53.0752310861
11
0.17953516439
21
51.8553100718
0
LINE
8
0
10
0.17953516439
20
51.8553100718
11
0.514536290654
21
51.7538645895
0
LINE
8
0
10
0.514536290654
20
51.7538645895
11
1.41682472081
21
51.5279496087
0
LINE
8
0
10
1.41682472081
20
51.5279496087
11
2.20545011379
21
51.3708527998
0
LINE
8
0
10
2.20545011379
20
51.3708527998
11
2.876144561
21
51.2709119592
0
LINE
8
0
10
2.876144561
20
51.2709119592
11
3.42550866274
21
51.2162268655
0
LINE
8
0
10
3.42550866274
20
51.2162268655
11
3.85102388102
21
51.1947162941
0
LINE
8
0
10
3.85102388102
20
51.1947162941
11
4.15106139626
21
51.1941756356
0
LINE
8
0
10
4.15106139626
20
51.1941756356
11
4.50022227596
21
51.210565011
0
LINE
8
0
10
4.50022227596
20
51.210565011
11
4.91126456712
21
51.1928057725
0
LINE
8
0
10
4.91126456712
20
51.1928057725
11
5.19418967765
21
51.1268168102
0
LINE
8
0
10
5.19418967765
20
51.1268168102
11
5.3455768475
21
51.0250984166
0
LINE
8
0
10
5.3455768475
20
51.0250984166
11
5.74618857795
21
48.3029872903
0
LINE
8
0
10
5.74618857795
20
48.3029872903
11
5.63052511085
21
48.1619671884
0
LINE
8
0
10
5.63052511085
20
48.1619671884
11
5.37860721589
21
48.0172656489
0
LINE
8
0
10
5.37860721589
20
48.0172656489
11
4.99010929192
21
47.8818384775
0
LINE
8
0
10
4.99010929192
20
47.8818384775
11
4.65103085976
21
47.7969400183
0
LINE
8
0
10
4.65103085976
20
47.7969400183
11
4.3638705184
21
47.7099817455
0
LINE
8
0
10
4.3638705184
20
47.7099817455
11
3.96259406634
21
47.5667926583
0
LINE
8
0
10
3.96259406634
20
47.5667926583
11
3.45227739919
21
47.3561548768
0
LINE
8
0
10
3.45227739919
20
47.3561548768
11
2.83881286037
21
47.0672250017
0
LINE
8
0
10
2.83881286037
20
47.0672250017
11
2.12888416008
21
46.6895867378
0
LINE
8
0
10
2.12888416008
20
46.6895867378
11
1.32993812057
21
46.2133019326
0
LINE
8
0
10
1.32993812057
20
46.2133019326
11
1.03836719319
21
46.0196441551
0
LINE
8
0
10
1.03836719319
20
46.0196441551
11
1.21790235758
21
44.7997231408
0
LINE
8
0
10
1.21790235758
20
44.7997231408
11
1.57314620603
21
43.6189429053
0
LINE
8
0
10
1.57314620603
20
43.6189429053
11
1.91934792929
21
43.5673550453
0
LINE
8
0
10
1.91934792929
20
43.5673550453
11
2.84491448877
21
43.4752218064
0
LINE
8
0
10
2.84491448877
20
43.4752218064
11
3.64800927003
21
43.4346238985
0
LINE
8
0
10
3.64800927003
20
43.4346238985
11
4.32610787647
21
43.4334019854
0
LINE
8
0
10
4.32610787647
20
43.4334019854
11
4.87757982069
21
43.4592877053
0
LINE
8
0
10
4.87757982069
20
43.4592877053
11
5.30169244422
21
43.4999618768
0
LINE
8
0
10
5.30169244422
20
43.4999618768
11
5.59861129062
21
43.5431127925
0
LINE
8
0
10
5.59861129062
20
43.5431127925
11
5.94166497914
21
43.6101657442
0
LINE
8
0
10
5.94166497914
20
43.6101657442
11
6.35091270976
21
43.6524439969
0
LINE
8
0
10
6.35091270976
20
43.6524439969
11
6.64043086149
21
43.6283524811
0
LINE
8
0
10
6.64043086149
20
43.6283524811
11
6.80501507088
21
43.5497602118
0
LINE
8
0
10
6.80501507088
20
43.5497602118
11
7.59770018827
21
40.9149871576
0
LINE
8
0
10
7.59770018827
20
40.9149871576
11
7.50380199568
21
40.7586291191
0
LINE
8
0
10
7.50380199568
20
40.7586291191
11
7.27563741012
21
40.578790071
0
LINE
8
0
10
7.27563741012
20
40.578790071
11
6.91099791983
21
40.3882403457
0
LINE
8
0
10
6.91099791983
20
40.3882403457
11
6.58789423651
21
40.2548764025
0
LINE
8
0
10
6.58789423651
20
40.2548764025
11
6.31645528328
21
40.1270339309
0
LINE
8
0
10
6.31645528328
20
40.1270339309
11
5.94030358498
21
39.9269444371
0
LINE
8
0
10
5.94030358498
20
39.9269444371
11
5.46609428167
21
39.6442486423
0
LINE
8
0
10
5.46609428167
20
39.6442486423
11
4.90123573585
21
39.2690766332
0
LINE
8
0
10
4.90123573585
20
39.2690766332
11
4.25385705661
21
38.7920962736
0
LINE
8
0
10
4.25385705661
20
38.7920962736
11
3.53277271479
21
38.2045595839
0
LINE
8
0
10
3.53277271479
20
38.2045595839
11
3.27250575001
21
37.9705124786
0
LINE
8
0
10
3.27250575001
20
37.9705124786
11
3.62774959846
21
36.7897322431
0
LINE
8
0
10
3.62774959846
20
36.7897322431
11
4.1511307251
21
35.6732590671
0
LINE
8
0
10
4.1511307251
20
35.6732590671
11
4.50115435668
21
35.6726283351
0
LINE
8
0
10
4.50115435668
20
35.6726283351
11
5.43027220119
21
35.7162404981
0
LINE
8
0
10
5.43027220119
20
35.7162404981
11
6.23071979974
21
35.7930067652
0
LINE
8
0
10
6.23071979974
20
35.7930067652
11
6.90177007091
21
35.8905298224
0
LINE
8
0
10
6.90177007091
20
35.8905298224
11
7.44359619056
21
35.9964346468
0
LINE
8
0
10
7.44359619056
20
35.9964346468
11
7.8572669951
21
36.0984266619
0
LINE
8
0
10
7.8572669951
20
36.0984266619
11
8.14473886292
21
36.1843494649
0
LINE
8
0
10
8.14473886292
20
36.1843494649
11
8.47437376648
21
36.3006368756
0
LINE
8
0
10
8.47437376648
20
36.3006368756
11
8.87310453171
21
36.402051532
0
LINE
8
0
10
8.87310453171
20
36.402051532
11
9.1630451479
21
36.4203709317
0
LINE
8
0
10
9.1630451479
20
36.4203709317
11
9.33731857014
21
36.3665798443
0
LINE
8
0
10
9.33731857014
20
36.3665798443
11
10.5051823674
21
33.8753004754
0
LINE
8
0
10
10.5051823674
20
33.8753004754
11
10.4350507263
21
33.7069370005
0
LINE
8
0
10
10.4350507263
20
33.7069370005
11
10.2355023821
21
33.4957934009
0
LINE
8
0
10
10.2355023821
20
33.4957934009
11
9.90249298319
21
33.2541823583
0
LINE
8
0
10
9.90249298319
20
33.2541823583
11
9.60225044277
21
33.0751953519
0
LINE
8
0
10
9.60225044277
20
33.0751953519
11
9.3523181277
21
32.909193422
0
LINE
8
0
10
9.3523181277
20
32.909193422
11
9.00930820354
21
32.6564680817
0
LINE
8
0
10
9.00930820354
20
32.6564680817
11
8.58131321208
21
32.3077394436
0
LINE
8
0
10
8.58131321208
20
32.3077394436
11
8.07709963848
21
31.8543214407
0
LINE
8
0
10
8.07709963848
20
31.8543214407
11
7.50606873289
21
31.2881649936
0
LINE
8
0
10
7.50606873289
20
31.2881649936
11
6.87821474959
21
30.6018987439
0
LINE
8
0
10
6.87821474959
20
30.6018987439
11
6.6547988859
21
30.3324506184
0
LINE
8
0
10
6.6547988859
20
30.3324506184
11
7.17818001254
21
29.2159774425
0
LINE
8
0
10
7.17818001254
20
29.2159774425
11
7.85854345733
21
28.1876070134
0
LINE
8
0
10
7.85854345733
20
28.1876070134
11
8.20492885121
21
28.2379468524
0
LINE
8
0
10
8.20492885121
20
28.2379468524
11
9.11779544699
21
28.4163748997
0
LINE
8
0
10
9.11779544699
20
28.4163748997
11
9.89853571198
21
28.608869202
0
LINE
8
0
10
9.89853571198
20
28.608869202
11
10.5482353764
21
28.803058695
0
LINE
8
0
10
10.5482353764
20
28.803058695
11
11.0688675884
21
28.9867254464
0
LINE
8
0
10
11.0688675884
20
28.9867254464
11
11.4632798989
21
29.1478615223
0
LINE
8
0
10
11.4632798989
20
29.1478615223
11
11.7351778244
21
29.2747249173
0
LINE
8
0
10
11.7351778244
20
29.2747249173
11
12.0443683474
21
29.4377683227
0
LINE
8
0
10
12.0443683474
20
29.4377683227
11
12.4240838932
21
29.5961579055
0
LINE
8
0
10
12.4240838932
20
29.5961579055
11
12.708267393
21
29.6564977743
0
LINE
8
0
10
12.708267393
20
29.6564977743
11
12.8885156926
21
29.6286543325
0
LINE
8
0
10
12.8885156926
20
29.6286543325
11
14.4066671805
21
27.3339659436
0
LINE
8
0
10
14.4066671805
20
27.3339659436
11
14.3617968251
21
27.1571854074
0
LINE
8
0
10
14.3617968251
20
27.1571854074
11
14.1951177488
21
26.9192374155
0
LINE
8
0
10
14.1951177488
20
26.9192374155
11
13.9008359584
21
26.6317145755
0
LINE
8
0
10
13.9008359584
20
26.6317145755
11
13.6298537094
21
26.4109193033
0
LINE
8
0
10
13.6298537094
20
26.4109193033
11
13.4067549058
21
26.2102959578
0
LINE
8
0
10
13.4067549058
20
26.2102959578
11
13.1041974168
21
25.910321173
0
LINE
8
0
10
13.1041974168
20
25.910321173
11
12.7315387074
21
25.5029922371
0
LINE
8
0
10
12.7315387074
20
25.5029922371
11
12.298716543
21
24.9809920579
0
LINE
8
0
10
12.298716543
20
24.9809920579
11
11.8162039434
21
24.3377261649
0
LINE
8
0
10
11.8162039434
20
24.3377261649
11
11.2949619362
21
23.567356929
0
LINE
8
0
10
11.2949619362
20
23.567356929
11
11.1131588949
21
23.2682506023
0
LINE
8
0
10
11.1131588949
20
23.2682506023
11
11.7935223396
21
22.2398801733
0
LINE
8
0
10
11.7935223396
20
22.2398801733
11
12.616367337
21
21.3215304214
0
LINE
8
0
10
12.616367337
20
21.3215304214
11
12.9517318899
21
21.4217679251
0
LINE
8
0
10
12.9517318899
20
21.4217679251
11
13.8288910703
21
21.7312089727
0
LINE
8
0
10
13.8288910703
20
21.7312089727
11
14.5732838784
21
22.0353286283
0
LINE
8
0
10
14.5732838784
20
22.0353286283
11
15.1877857157
21
22.3220457452
0
LINE
8
0
10
15.1877857157
20
22.3220457452
11
15.6761276484
21
22.5795598857
0
LINE
8
0
10
15.6761276484
20
22.5795598857
11
16.0428752513
21
22.7964056867
0
LINE
8
0
10
16.0428752513
20
22.7964056867
11
16.2934042022
21
22.9615058006
0
LINE
8
0
10
16.2934042022
20
22.9615058006
11
16.5755604853
21
23.1678302137
0
LINE
8
0
10
16.5755604853
20
23.1678302137
11
16.9281678342
21
23.3798189239
0
LINE
8
0
10
16.9281678342
20
23.3798189239
11
17.2005373396
21
23.4808932224
0
LINE
8
0
10
17.2005373396
20
23.4808932224
11
17.3829188371
21
23.4795908608
0
LINE
8
0
10
17.3829188371
20
23.4795908608
11
19.2190012524
21
21.4304007508
0
LINE
8
0
10
19.2190012524
20
21.4304007508
11
19.2003485163
21
21.2489709236
0
LINE
8
0
10
19.2003485163
20
21.2489709236
11
19.0700911832
21
20.9892899877
0
LINE
8
0
10
19.0700911832
20
20.9892899877
11
18.8208091067
21
20.6619834005
0
LINE
8
0
10
18.8208091067
20
20.6619834005
11
18.5848626652
21
20.4040857303
0
LINE
8
0
10
18.5848626652
20
20.4040857303
11
18.3933523369
21
20.1731169077
0
LINE
8
0
10
18.3933523369
20
20.1731169077
11
18.1376957706
21
19.83228612
0
LINE
8
0
10
18.1376957706
20
19.83228612
11
17.8283159166
21
19.3750383954
0
LINE
8
0
10
17.8283159166
20
19.3750383954
11
17.4761100143
21
18.7955815674
0
LINE
8
0
10
17.4761100143
20
18.7955815674
11
17.0923996391
21
18.0889163244
0
LINE
8
0
10
17.0923996391
20
18.0889163244
11
16.6888789765
21
17.2508631849
0
LINE
8
0
10
16.6888789765
20
17.2508631849
11
16.5525635737
21
16.9284735891
0
LINE
8
0
10
16.5525635737
20
16.9284735891
11
17.375408571
21
16.0101238373
0
LINE
8
0
10
17.375408571
20
16.0101238373
11
18.3231976083
21
15.2213677931
0
LINE
8
0
10
18.3231976083
20
15.2213677931
11
18.640393607
21
15.3693665732
0
LINE
8
0
10
18.640393607
20
15.3693665732
11
19.463150247
21
15.8032254224
0
LINE
8
0
10
19.463150247
20
15.8032254224
11
20.155330158
21
16.2124886489
0
LINE
8
0
10
20.155330158
20
16.2124886489
11
20.7215371284
21
16.5856225121
0
LINE
8
0
10
20.7215371284
20
16.5856225121
11
21.1671806213
21
16.9114955748
0
LINE
8
0
10
21.1671806213
20
16.9114955748
11
21.4984469281
21
17.1794294092
0
LINE
8
0
10
21.4984469281
20
17.1794294092
11
21.7222673149
21
17.3792474198
0
LINE
8
0
10
21.7222673149
20
17.3792474198
11
21.9713756868
21
17.6244553939
0
LINE
8
0
10
21.9713756868
20
17.6244553939
11
22.2893596252
21
17.8855250601
0
LINE
8
0
10
22.2893596252
20
17.8855250601
11
22.5441100532
21
18.025179565
0
LINE
8
0
10
22.5441100532
20
18.025179565
11
22.7247376036
21
18.0504460413
0
LINE
8
0
10
22.7247376036
20
18.0504460413
11
24.8396180373
21
16.2904291398
0
LINE
8
0
10
24.8396180373
20
16.2904291398
11
24.8475804712
21
16.1082168833
0
LINE
8
0
10
24.8475804712
20
16.1082168833
11
24.75652109
21
15.8323376517
0
LINE
8
0
10
24.75652109
20
15.8323376517
11
24.5575517422
21
15.4722232889
0
LINE
8
0
10
24.5575517422
20
15.4722232889
11
24.361669897
21
15.1827198618
0
LINE
8
0
10
24.361669897
20
15.1827198618
11
24.2058297541
21
14.9263282615
0
LINE
8
0
10
24.2058297541
20
14.9263282615
11
24.0025229864
21
14.5519056876
0
LINE
8
0
10
24.0025229864
20
14.5519056876
11
23.7630158823
21
14.0544846156
0
LINE
8
0
10
23.7630158823
20
14.0544846156
11
23.4989328995
21
13.4299212551
0
LINE
8
0
10
23.4989328995
20
13.4299212551
11
23.2222028691
21
12.6749180047
0
LINE
8
0
10
23.2222028691
20
12.6749180047
11
22.9450038934
21
11.7870426094
0
LINE
8
0
10
22.9450038934
20
11.7870426094
11
22.8570814552
21
11.4482409191
0
LINE
8
0
10
22.8570814552
20
11.4482409191
11
23.8048704925
21
10.659484875
0
LINE
8
0
10
23.8048704925
20
10.659484875
11
24.857403092
21
10.0171335043
0
LINE
8
0
10
24.857403092
20
10.0171335043
11
25.1496700545
21
10.2097392236
0
LINE
8
0
10
25.1496700545
20
10.2097392236
11
25.9004885248
21
10.7587689263
0
LINE
8
0
10
25.9004885248
20
10.7587689263
11
26.5257029256
21
11.2644529886
0
LINE
8
0
10
26.5257029256
20
11.2644529886
11
27.0315473104
21
11.7160508976
0
LINE
8
0
10
27.0315473104
20
11.7160508976
11
27.4249942462
21
12.103337464
0
LINE
8
0
10
27.4249942462
20
12.103337464
11
27.7137188908
21
12.4166487873
0
LINE
8
0
10
27.7137188908
20
12.4166487873
11
27.9060603704
21
12.6469259205
0
LINE
8
0
10
27.9060603704
20
12.6469259205
11
28.1168115187
21
12.9257912733
0
LINE
8
0
10
28.1168115187
20
12.9257912733
11
28.393394771
21
13.230377649
0
LINE
8
0
10
28.393394771
20
13.230377649
11
28.6250965585
21
13.405635867
0
LINE
8
0
10
28.6250965585
20
13.405635867
11
28.8001203991
21
13.45693267
0
LINE
8
0
10
28.8001203991
20
13.45693267
11
31.1487238466
21
12.0236006816
0
LINE
8
0
10
31.1487238466
20
12.0236006816
11
31.1831317451
21
11.8444895337
0
LINE
8
0
10
31.1831317451
20
11.8444895337
11
31.1332110885
21
11.5582918933
0
LINE
8
0
10
31.1332110885
20
11.5582918933
11
30.9887951555
21
11.1730449673
0
LINE
8
0
10
30.9887951555
20
11.1730449673
11
30.8371527881
21
10.8581060463
0
LINE
8
0
10
30.8371527881
20
10.8581060463
11
30.7203042926
21
10.5817562102
0
LINE
8
0
10
30.7203042926
20
10.5817562102
11
30.5736804544
21
10.181722017
0
LINE
8
0
10
30.5736804544
20
10.181722017
11
30.4091507782
21
9.65472926424
0
LINE
8
0
10
30.4091507782
20
9.65472926424
11
30.2388191851
21
8.99837085488
0
LINE
8
0
10
30.2388191851
20
8.99837085488
11
30.0749675197
21
8.21112118068
0
LINE
8
0
10
30.0749675197
20
8.21112118068
11
29.9299982458
21
7.29234705208
0
LINE
8
0
10
29.9299982458
20
7.29234705208
11
29.8923426865
21
6.94435423702
0
LINE
8
0
10
29.8923426865
20
6.94435423702
11
30.944875286
21
6.30200286634
0
LINE
8
0
10
30.944875286
20
6.30200286634
11
32.0797185426
21
5.81974677335
0
LINE
8
0
10
32.0797185426
20
5.81974677335
11
32.340827306
21
6.05285437543
0
LINE
8
0
10
32.340827306
20
6.05285437543
11
33.0037052144
21
6.70535331671
0
LINE
8
0
10
33.0037052144
20
6.70535331671
11
33.5486287454
21
7.29668043692
0
LINE
8
0
10
33.5486287454
20
7.29668043692
11
33.98332935
21
7.81711736637
0
LINE
8
0
10
33.98332935
20
7.81711736637
11
34.3161940903
21
8.25756309564
0
LINE
8
0
10
34.3161940903
20
8.25756309564
11
34.556223408
21
8.60957422087
0
LINE
8
0
10
34.556223408
20
8.60957422087
11
34.7129865558
21
8.8654025195
0
LINE
8
0
10
34.7129865558
20
8.8654025195
11
34.8808886857
21
9.17198172019
0
LINE
8
0
10
34.8808886857
20
9.17198172019
11
35.1101763601
21
9.51359307545
0
LINE
8
0
10
35.1101763601
20
9.51359307545
11
35.3138911857
21
9.72071968201
0
LINE
8
0
10
35.3138911857
20
9.72071968201
11
35.4795809873
21
9.7969535094
0
LINE
8
0
10
35.4795809873
20
9.7969535094
11
38.0118510435
21
8.72085541692
0
LINE
8
0
10
38.0118510435
20
8.72085541692
11
38.0719710621
21
8.54866282081
0
LINE
8
0
10
38.0719710621
20
8.54866282081
11
38.0642531021
21
8.25824657744
0
LINE
8
0
10
38.0642531021
20
8.25824657744
11
37.9774685589
21
7.85607795768
0
LINE
8
0
10
37.9774685589
20
7.85607795768
11
37.873297663
21
7.52241591908
0
LINE
8
0
10
37.873297663
20
7.52241591908
11
37.7979312378
21
7.23199776399
0
LINE
8
0
10
37.7979312378
20
7.23199776399
11
37.7111153615
21
6.81487798588
0
LINE
8
0
10
37.7111153615
20
6.81487798588
11
37.6250697777
21
6.26954548797
0
LINE
8
0
10
37.6250697777
20
6.26954548797
11
37.5521198966
21
5.59538116974
0
LINE
8
0
10
37.5521198966
20
5.59538116974
11
37.5046388099
21
4.79266393173
0
LINE
8
0
10
37.5046388099
20
4.79266393173
11
37.4949890062
21
3.86257314528
0
LINE
8
0
10
37.4949890062
20
3.86257314528
11
37.5084028885
21
3.51280606814
0
LINE
8
0
10
37.5084028885
20
3.51280606814
11
38.6432461452
21
3.03054997515
0
LINE
8
0
10
38.6432461452
20
3.03054997515
11
39.8362128452
21
2.7186676112
0
LINE
8
0
10
39.8362128452
20
2.7186676112
11
40.0605983296
21
2.98730881223
0
LINE
8
0
10
40.0605983296
20
2.98730881223
11
40.6214075843
21
3.72937010998
0
LINE
8
0
10
40.6214075843
20
3.72937010998
11
41.0744261466
21
4.39373717717
0
LINE
8
0
10
41.0744261466
20
4.39373717717
11
41.4287180822
21
4.97192091746
0
LINE
8
0
10
41.4287180822
20
4.97192091746
11
41.6939061929
21
5.4561384736
0
LINE
8
0
10
41.6939061929
20
5.4561384736
11
41.8801243757
21
5.83934689479
0
LINE
8
0
10
41.8801243757
20
5.83934689479
11
41.9979680573
21
6.11527382277
0
LINE
8
0
10
41.9979680573
20
6.11527382277
11
42.1194426264
21
6.44303266795
0
LINE
8
0
10
42.1194426264
20
6.44303266795
11
42.2965478542
21
6.81438814988
0
LINE
8
0
10
42.2965478542
20
6.81438814988
11
42.4679338901
21
7.04896860092
0
LINE
8
0
10
42.4679338901
20
7.04896860092
11
42.6207582622
21
7.14851466106
0
LINE
8
0
10
42.6207582622
20
7.14851466106
11
45.2827239873
21
6.45258562708
0
LINE
8
0
10
45.2827239873
20
6.45258562708
11
45.367274772
21
6.29098156899
0
LINE
8
0
10
45.367274772
20
6.29098156899
11
45.4019240037
21
6.00253644065
0
LINE
8
0
10
45.4019240037
20
6.00253644065
11
45.3746205121
21
5.592017653
0
LINE
8
0
10
45.3746205121
20
5.592017653
11
45.3201413096
21
5.24674392386
0
LINE
8
0
10
45.3201413096
20
5.24674392386
11
45.2878632591
21
4.94844720862
0
LINE
8
0
10
45.2878632591
20
4.94844720862
11
45.2627056744
21
4.52313202949
0
LINE
8
0
10
45.2627056744
20
4.52313202949
11
45.2569780952
21
3.97108260182
0
LINE
8
0
10
45.2569780952
20
3.97108260182
11
45.2829647261
21
3.2934810167
0
LINE
8
0
10
45.2829647261
20
3.2934810167
11
45.3528661951
21
2.49240473917
0
LINE
8
0
10
45.3528661951
20
2.49240473917
11
45.4787415305
21
1.5708205652
0
LINE
8
0
10
45.4787415305
20
1.5708205652
11
45.5429389608
21
1.226733904
0
LINE
8
0
10
45.5429389608
20
1.226733904
11
46.7359056609
21
0.914851540048
0
LINE
8
0
10
46.7359056609
20
0.914851540048
11
47.9615697903
21
0.779990136247
0
LINE
8
0
10
47.9615697903
20
0.779990136247
11
48.1444496086
21
1.07843931543
0
LINE
8
0
10
48.1444496086
20
1.07843931543
11
48.591237534
21
1.89424722142
0
LINE
8
0
10
48.591237534
20
1.89424722142
11
48.9426958235
21
2.617494405
0
LINE
8
0
10
48.9426958235
20
2.617494405
11
49.2090279725
21
3.24110197351
0
LINE
8
0
10
49.2090279725
20
3.24110197351
11
49.4008874296
21
3.75877109998
0
LINE
8
0
10
49.4008874296
20
3.75877109998
11
49.5293255601
21
4.16500939494
0
LINE
8
0
10
49.5293255601
20
4.16500939494
11
49.605738142
21
4.45515404886
0
LINE
8
0
10
49.605738142
20
4.45515404886
11
49.6781961307
21
4.79710692778
0
LINE
8
0
10
49.6781961307
20
4.79710692778
11
49.7993442215
21
5.190291739
0
LINE
8
0
10
49.7993442215
20
5.190291739
11
49.9347486719
21
5.44732635948
0
LINE
8
0
10
49.9347486719
20
5.44732635948
11
50.0714504283
21
5.56806300093
0
LINE
8
0
10
50.0714504283
20
5.56806300093
11
52.8063766446
21
5.26713554457
0
LINE
8
0
10
52.8063766446
20
5.26713554457
11
52.9135561422
21
5.11956433443
0
LINE
8
0
10
52.9135561422
20
5.11956433443
11
52.9898340773
21
4.83923802825
0
LINE
8
0
10
52.9898340773
20
4.83923802825
11
53.0225935638
21
4.42911856795
0
LINE
8
0
10
53.0225935638
20
4.42911856795
11
53.0189671843
21
4.07959205835
0
LINE
8
0
10
53.0189671843
20
4.07959205835
11
53.0304654591
21
3.77977445957
0
LINE
8
0
10
53.0304654591
20
3.77977445957
11
53.0675023563
21
3.35532873404
0
LINE
8
0
10
53.0675023563
20
3.35532873404
11
53.1422148552
21
2.80832835171
0
LINE
8
0
10
53.1422148552
20
2.80832835171
11
53.2665841382
21
2.14173140108
0
LINE
8
0
10
53.2665841382
20
2.14173140108
11
53.4523783344
21
1.35936963409
0
LINE
8
0
10
53.4523783344
20
1.35936963409
11
53.7110959945
21
0.465934039271
0
LINE
8
0
10
53.7110959945
20
0.465934039271
11
53.8247087162
21
0.1348614038
0
LINE
8
0
10
53.8247087162
20
0.1348614038
11
55.0503728456
21
0.0
0
LINE
8
0
10
55.0503728456
20
0.0
11
56.2826115014
21
0.0450338930348
0
LINE
8
0
10
56.2826115014
20
0.0450338930348
11
56.4200878878
21
0.366930124259
0
LINE
8
0
10
56.4200878878
20
0.366930124259
11
56.7433319749
21
1.23909710934
0
LINE
8
0
10
56.7433319749
20
1.23909710934
11
56.9857392683
21
2.00580965125
0
LINE
8
0
10
56.9857392683
20
2.00580965125
11
57.1584352235
21
2.66154993535
0
LINE
8
0
10
57.1584352235
20
2.66154993535
11
57.2728768756
21
3.20163741347
0
LINE
8
0
10
57.2728768756
20
3.20163741347
11
57.3407975181
21
3.62224731823
0
LINE
8
0
10
57.3407975181
20
3.62224731823
11
57.3741503988
21
3.92042576852
0
LINE
8
0
10
57.3741503988
20
3.92042576852
11
57.396047491
21
4.26928454925
0
LINE
8
0
10
57.396047491
20
4.26928454925
11
57.4586563835
21
4.67591863814
0
LINE
8
0
10
57.4586563835
20
4.67591863814
11
57.5551933376
21
4.94992918138
0
LINE
8
0
10
57.5551933376
20
4.94992918138
11
57.6728589177
21
5.08928311224
0
LINE
8
0
10
57.6728589177
20
5.08928311224
11
60.422455421
21
5.18977097978
0
LINE
8
0
10
60.422455421
20
5.18977097978
11
60.5499792867
21
5.05937784172
0
LINE
8
0
10
60.5499792867
20
5.05937784172
11
60.6662601935
21
4.79314502623
0
LINE
8
0
10
60.6662601935
20
4.79314502623
11
60.7583844465
21
4.39216587755
0
LINE
8
0
10
60.7583844465
20
4.39216587755
11
60.8056881799
21
4.04583613822
0
LINE
8
0
10
60.8056881799
20
4.04583613822
11
60.8607177144
21
3.75088774747
0
LINE
8
0
10
60.8607177144
20
3.75088774747
11
60.9591597162
21
3.3363577993
0
LINE
8
0
10
60.9591597162
20
3.3363577993
11
61.1127199259
21
2.80606482578
0
LINE
8
0
10
61.1127199259
20
2.80606482578
11
61.3328211457
21
2.16467986633
0
LINE
8
0
10
61.3328211457
20
2.16467986633
11
61.6305481884
21
1.41770729265
0
LINE
8
0
10
61.6305481884
20
1.41770729265
11
62.0165940555
21
0.571462305538
0
LINE
8
0
10
62.0165940555
20
0.571462305538
11
62.1772006106
21
0.26045993423
0
LINE
8
0
10
62.1772006106
20
0.26045993423
11
63.4094392664
21
0.305493827265
0
LINE
8
0
10
63.4094392664
20
0.305493827265
11
64.621989421
21
0.529463197891
0
LINE
8
0
10
64.621989421
20
0.529463197891
11
64.7111323049
21
0.867945821852
0
LINE
8
0
10
64.7111323049
20
0.867945821852
11
64.9039431673
21
1.77788316095
0
LINE
8
0
10
64.9039431673
20
1.77788316095
11
65.032132974
21
2.57171991449
0
LINE
8
0
10
65.032132974
20
2.57171991449
11
65.1075120208
21
3.24561694848
0
LINE
8
0
10
65.1075120208
20
3.24561694848
11
65.1420967429
21
3.79661175133
0
LINE
8
0
10
65.1420967429
20
3.79661175133
11
65.1480522869
21
4.22262869602
0
LINE
8
0
10
65.1480522869
20
4.22262869602
11
65.1376346076
21
4.52248578669
0
LINE
8
0
10
65.1376346076
20
4.52248578669
11
65.1085041047
21
4.87081514999
0
LINE
8
0
10
65.1085041047
20
4.87081514999
11
65.1112393991
21
5.28223181693
0
LINE
8
0
10
65.1112393991
20
5.28223181693
11
65.1668513394
21
5.56737822391
0
LINE
8
0
10
65.1668513394
20
5.56737822391
11
65.2629729056
21
5.72237935709
0
LINE
8
0
10
65.2629729056
20
5.72237935709
11
67.9686368202
21
6.22214082409
0
LINE
8
0
10
67.9686368202
20
6.22214082409
11
68.1137871042
21
6.11170486147
0
LINE
8
0
10
68.1137871042
20
6.11170486147
11
68.2675926569
21
5.86523982691
0
LINE
8
0
10
68.2675926569
20
5.86523982691
11
68.417118208
21
5.48194716424
0
LINE
8
0
10
68.417118208
20
5.48194716424
11
68.5143438574
21
5.14619561229
0
LINE
8
0
10
68.5143438574
20
5.14619561229
11
68.6117317924
21
4.86240274246
0
LINE
8
0
10
68.6117317924
20
4.86240274246
11
68.7694807787
21
4.46662355779
0
LINE
8
0
10
68.7694807787
20
4.46662355779
11
68.9986158299
21
3.96434026715
0
LINE
8
0
10
68.9986158299
20
3.96434026715
11
69.309757911
21
3.36183730575
0
LINE
8
0
10
69.309757911
20
3.36183730575
11
69.7130722652
21
2.66617434893
0
LINE
8
0
10
69.7130722652
20
2.66617434893
11
70.2182184419
21
1.88515621222
0
LINE
8
0
10
70.2182184419
20
1.88515621222
11
70.4223957805
21
1.60085258067
0
LINE
8
0
10
70.4223957805
20
1.60085258067
11
71.6349459351
21
1.8248219513
0
LINE
8
0
10
71.6349459351
20
1.8248219513
11
72.8019641871
21
2.22295328122
0
LINE
8
0
10
72.8019641871
20
2.22295328122
11
72.8408736428
21
2.57080812845
0
LINE
8
0
10
72.8408736428
20
2.57080812845
11
72.8991418517
21
3.49912208697
0
LINE
8
0
10
72.8991418517
20
3.49912208697
11
72.9103820285
21
4.30316379996
0
LINE
8
0
10
72.9103820285
20
4.30316379996
11
72.8868375935
21
4.98085463855
0
LINE
8
0
10
72.8868375935
20
4.98085463855
11
72.8408282722
21
5.53101326851
0
LINE
8
0
10
72.8408282722
20
5.53101326851
11
72.7846917855
21
5.95335744158
0
LINE
8
0
10
72.7846917855
20
5.95335744158
11
72.7307255811
21
6.24850223934
0
LINE
8
0
10
72.7307255811
20
6.24850223934
11
72.6511883491
21
6.58887814959
0
LINE
8
0
10
72.6511883491
20
6.58887814959
11
72.5939917474
21
6.9963087626
0
LINE
8
0
10
72.5939917474
20
6.9963087626
11
72.6074934018
21
7.28651363272
0
LINE
8
0
10
72.6074934018
20
7.28651363272
11
72.6800222899
21
7.45385838816
0
LINE
8
0
10
72.6800222899
20
7.45385838816
11
75.2840870869
21
8.34224190661
0
LINE
8
0
10
75.2840870869
20
8.34224190661
11
75.4437701628
21
8.25411687025
0
LINE
8
0
10
75.4437701628
20
8.25411687025
11
75.6318222633
21
8.03267259093
0
LINE
8
0
10
75.6318222633
20
8.03267259093
11
75.8355622348
21
7.67523563192
0
LINE
8
0
10
75.8355622348
20
7.67523563192
11
75.9806376043
21
7.35721822876
0
LINE
8
0
10
75.9806376043
20
7.35721822876
11
76.1183082852
21
7.09062943217
0
LINE
8
0
10
76.1183082852
20
7.09062943217
11
76.33200211
21
6.72203635719
0
LINE
8
0
10
76.33200211
20
6.72203635719
11
76.631828387
21
6.25846804573
0
LINE
8
0
10
76.631828387
20
6.25846804573
11
77.0273798762
21
5.70768838697
0
LINE
8
0
10
77.0273798762
20
5.70768838697
11
77.5276855967
21
5.07816189516
0
LINE
8
0
10
77.5276855967
20
5.07816189516
11
78.1411657692
21
4.37901665446
0
LINE
8
0
10
78.1411657692
20
4.37901665446
11
78.3845622058
21
4.12747120099
0
LINE
8
0
10
78.3845622058
20
4.12747120099
11
79.5515804578
21
4.52560253092
0
LINE
8
0
10
79.5515804578
20
4.52560253092
11
80.6481938393
21
5.08941034206
0
LINE
8
0
10
80.6481938393
20
5.08941034206
11
80.6360405793
21
5.43922349041
0
LINE
8
0
10
80.6360405793
20
5.43922349041
11
80.558524249
21
6.36612866802
0
LINE
8
0
10
80.558524249
20
6.36612866802
11
80.452575231
21
7.16323858728
0
LINE
8
0
10
80.452575231
20
7.16323858728
11
80.3306091229
21
7.83027942682
0
LINE
8
0
10
80.3306091229
20
7.83027942682
11
80.2049863671
21
8.36787620785
0
LINE
8
0
10
80.2049863671
20
8.36787620785
11
80.0879543014
21
8.77754607651
0
LINE
8
0
10
80.0879543014
20
8.77754607651
11
79.9915897678
21
9.06168808242
0
LINE
8
0
10
79.9915897678
20
9.06168808242
11
79.8633410049
21
9.38685601802
0
LINE
8
0
10
79.8633410049
20
9.38685601802
11
79.7474315532
21
9.78161690094
0
LINE
8
0
10
79.7474315532
20
9.78161690094
11
79.7185351575
21
10.0706950212
0
LINE
8
0
10
79.7185351575
20
10.0706950212
11
79.7659255402
21
10.246816736
0
LINE
8
0
10
79.7659255402
20
10.246816736
11
82.2128900994
21
11.5048879536
0
LINE
8
0
10
82.2128900994
20
11.5048879536
11
82.3837025998
21
11.4409520756
0
LINE
8
0
10
82.3837025998
20
11.4409520756
11
82.6019932438
21
11.2492482519
0
LINE
8
0
10
82.6019932438
20
11.2492482519
11
82.8556052721
21
10.9252851448
0
LINE
8
0
10
82.8556052721
20
10.9252851448
11
83.045438332
21
10.6317798792
0
LINE
8
0
10
83.045438332
20
10.6317798792
11
83.2204575473
21
10.3880770332
0
LINE
8
0
10
83.2204575473
20
10.3880770332
11
83.4855416978
21
10.0545259894
0
LINE
8
0
10
83.4855416978
20
10.0545259894
11
83.849668924
21
9.63955281087
0
LINE
8
0
10
83.849668924
20
9.63955281087
11
84.3211993281
21
9.15223536693
0
LINE
8
0
10
84.3211993281
20
9.15223536693
11
84.9078332669
21
8.60226260436
0
LINE
8
0
10
84.9078332669
20
8.60226260436
11
85.6165721706
21
7.99989132666
0
LINE
8
0
10
85.6165721706
20
7.99989132666
11
85.8940001326
21
7.78646530588
0
LINE
8
0
10
85.8940001326
20
7.78646530588
11
86.9906135141
21
8.35027311703
0
LINE
8
0
10
86.9906135141
20
8.35027311703
11
87.9934496148
21
9.06774082475
0
LINE
8
0
10
87.9934496148
20
9.06774082475
11
87.9304926648
21
9.4120566143
0
LINE
8
0
10
87.9304926648
20
9.4120566143
11
87.7188439211
21
10.3177976364
0
LINE
8
0
10
87.7188439211
20
10.3177976364
11
87.4979638278
21
11.0909867479
0
LINE
8
0
10
87.4979638278
20
11.0909867479
11
87.2801755425
21
11.733160771
0
LINE
8
0
10
87.2801755425
20
11.733160771
11
87.077616783
21
12.246737761
0
LINE
8
0
10
87.077616783
20
12.246737761
11
86.9021834738
21
12.6350019233
0
LINE
8
0
10
86.9021834738
20
12.6350019233
11
86.7654744536
21
12.9020851438
0
LINE
8
0
10
86.7654744536
20
12.9020851438
11
86.5912475594
21
13.2051147147
0
LINE
8
0
10
86.5912475594
20
13.2051147147
11
86.4190956666
21
13.5787922247
0
LINE
8
0
10
86.4190956666
20
13.5787922247
11
86.3484170973
21
13.8605823969
0
LINE
8
0
10
86.3484170973
20
13.8605823969
11
86.3696589308
21
14.0417273425
0
LINE
8
0
10
86.3696589308
20
14.0417273425
11
88.6073704509
21
15.6426726554
0
LINE
8
0
10
88.6073704509
20
15.6426726554
11
88.7856718039
21
15.6042886181
0
LINE
8
0
10
88.7856718039
20
15.6042886181
11
89.0295485055
21
15.4464110841
0
LINE
8
0
10
89.0295485055
20
15.4464110841
11
89.3276272904
21
15.16282654
0
LINE
8
0
10
89.3276272904
20
15.16282654
11
89.5581720787
21
14.9000889673
0
LINE
8
0
10
89.5581720787
20
14.9000889673
11
89.7668095976
21
14.6844661749
0
LINE
8
0
10
89.7668095976
20
14.6844661749
11
90.0776342653
21
14.3930662237
0
LINE
8
0
10
90.0776342653
20
14.3930662237
11
90.498301701
21
14.0355326109
0
LINE
8
0
10
90.498301701
20
14.0355326109
11
91.0357611681
21
13.622063707
0
LINE
8
0
10
91.0357611681
20
13.622063707
11
91.6962202414
21
13.1633663883
0
LINE
8
0
10
91.6962202414
20
13.1633663883
11
92.4851123369
21
12.6706075716
0
LINE
8
0
10
92.4851123369
20
12.6706075716
11
92.7906589291
21
12.4998497886
0
LINE
8
0
10
92.7906589291
20
12.4998497886
11
93.7934950298
21
13.2173174963
0
LINE
8
0
10
93.7934950298
20
13.2173174963
11
94.6811801391
21
14.073153522
0
LINE
8
0
10
94.6811801391
20
14.073153522
11
94.5687613171
21
14.4046334595
0
LINE
8
0
10
94.5687613171
20
14.4046334595
11
94.2274910858
21
15.2699060287
0
LINE
8
0
10
94.2274910858
20
15.2699060287
11
93.8963875928
21
16.0026951489
0
LINE
8
0
10
93.8963875928
20
16.0026951489
11
93.5874189094
21
16.6063155311
0
LINE
8
0
10
93.5874189094
20
16.6063155311
11
93.3122413346
21
17.0849267283
0
LINE
8
0
10
93.3122413346
20
17.0849267283
11
93.0821458382
21
17.4435100076
0
LINE
8
0
10
93.0821458382
20
17.4435100076
11
92.908006047
21
17.6878420276
0
LINE
8
0
10
92.908006047
20
17.6878420276
11
92.6915143653
21
17.9622746847
0
LINE
8
0
10
92.6915143653
20
17.9622746847
11
92.46678915
21
18.3069045344
0
LINE
8
0
10
92.46678915
20
18.3069045344
11
92.3558347981
21
18.5754008902
0
LINE
8
0
10
92.3558347981
20
18.5754008902
11
92.3504753495
21
18.7577082765
0
LINE
8
0
10
92.3504753495
20
18.7577082765
11
94.3312408946
21
20.6674063149
0
LINE
8
0
10
94.3312408946
20
20.6674063149
11
94.5132309163
21
20.6553922073
0
LINE
8
0
10
94.5132309163
20
20.6553922073
11
94.777495867
21
20.5347058486
0
LINE
8
0
10
94.777495867
20
20.5347058486
11
95.1136883768
21
20.2975439798
0
LINE
8
0
10
95.1136883768
20
20.2975439798
11
95.3800312315
21
20.0711738951
0
LINE
8
0
10
95.3800312315
20
20.0711738951
11
95.6178403075
21
19.8882267818
0
LINE
8
0
10
95.6178403075
20
19.8882267818
11
95.9677808044
21
19.6451886072
0
LINE
8
0
10
95.9677808044
20
19.6451886072
11
96.4360226536
21
19.3527147684
0
LINE
8
0
10
96.4360226536
20
19.3527147684
11
97.0279561681
21
19.0219067765
0
LINE
8
0
10
97.0279561681
20
19.0219067765
11
97.7481638375
21
18.6642612385
0
LINE
8
0
10
97.7481638375
20
18.6642612385
11
98.6003952594
21
18.2916171815
0
LINE
8
0
10
98.6003952594
20
18.2916171815
11
98.9275482867
21
18.1671670419
0
LINE
8
0
10
98.9275482867
20
18.1671670419
11
99.815233396
21
19.0230030677
0
LINE
8
0
10
99.815233396
20
19.0230030677
11
100.568848047
21
19.9989667524
0
LINE
8
0
10
100.568848047
20
19.9989667524
11
100.409363365
21
20.3105459184
0
LINE
8
0
10
100.409363365
20
20.3105459184
11
99.9457452287
21
21.1169082521
0
LINE
8
0
10
99.9457452287
20
21.1169082521
11
99.5114752321
21
21.7936792532
0
LINE
8
0
10
99.5114752321
20
21.7936792532
11
99.1179112817
21
22.3458808741
0
LINE
8
0
10
99.1179112817
20
22.3458808741
11
98.7759798239
21
22.7793255117
0
LINE
8
0
10
98.7759798239
20
22.7793255117
11
98.4961262262
21
23.100585328
0
LINE
8
0
10
98.4961262262
20
23.100585328
11
98.2882671513
21
23.3169586346
0
LINE
8
0
10
98.2882671513
20
23.3169586346
11
98.0341248264
21
23.5569453222
0
LINE
8
0
10
98.0341248264
20
23.5569453222
11
97.7616159164
21
23.8651823247
0
LINE
8
0
10
97.7616159164
20
23.8651823247
11
97.6127505813
21
24.1146623305
0
LINE
8
0
10
97.6127505813
20
24.1146623305
11
97.580904078
21
24.2942465921
0
LINE
8
0
10
97.580904078
20
24.2942465921
11
99.2625070694
21
26.4719954578
0
LINE
8
0
10
99.2625070694
20
26.4719954578
11
99.4443069585
21
26.4866073398
0
LINE
8
0
10
99.4443069585
20
26.4866073398
11
99.7233278096
21
26.4056843767
0
LINE
8
0
10
99.7233278096
20
26.4056843767
11
100.090468685
21
26.2199998766
0
LINE
8
0
10
100.090468685
20
26.2199998766
11
100.38693297
21
26.0348219652
0
LINE
8
0
10
100.38693297
20
26.0348219652
11
100.648845116
21
25.8884497312
0
LINE
8
0
10
100.648845116
20
25.8884497312
11
101.030443068
21
25.6989532698
0
LINE
8
0
10
101.030443068
20
25.6989532698
11
101.536279568
21
25.4777727771
0
LINE
8
0
10
101.536279568
20
25.4777727771
11
102.170071095
21
25.2366762951
0
LINE
8
0
10
102.170071095
20
25.2366762951
11
102.934677384
21
24.9877051317
0
LINE
8
0
10
102.934677384
20
24.9877051317
11
103.8320843
21
24.7431180954
0
LINE
8
0
10
103.8320843
20
24.7431180954
11
104.173871063
21
24.6676280381
0
LINE
8
0
10
104.173871063
20
24.6676280381
11
104.927485714
21
25.6435917228
0
LINE
8
0
10
104.927485714
20
25.6435917228
11
105.530967919
21
26.718882095
0
LINE
8
0
10
105.530967919
20
26.718882095
11
105.327816516
21
27.0039197206
0
LINE
8
0
10
105.327816516
20
27.0039197206
11
104.75173169
21
27.7341856056
0
LINE
8
0
10
104.75173169
20
27.7341856056
11
104.223550901
21
28.3405142886
0
LINE
8
0
10
104.223550901
20
28.3405142886
11
103.753779816
21
28.8295279293
0
LINE
8
0
10
103.753779816
20
28.8295279293
11
103.352382151
21
29.2085678875
0
LINE
8
0
10
103.352382151
20
29.2085678875
11
103.028735045
21
29.4856571455
0
LINE
8
0
10
103.028735045
20
29.4856571455
11
102.791586842
21
29.6694601174
0
LINE
8
0
10
102.791586842
20
29.6694601174
11
102.505210476
21
29.869885936
0
LINE
8
0
10
102.505210476
20
29.869885936
11
102.190725926
21
30.1351605546
0
LINE
8
0
10
102.190725926
20
30.1351605546
11
102.007122414
21
30.3603069772
0
LINE
8
0
10
102.007122414
20
30.3603069772
11
101.949467609
21
30.5333405874
0
LINE
8
0
10
101.949467609
20
30.5333405874
11
103.296067598
21
32.9327253442
0
LINE
8
0
10
103.296067598
20
32.9327253442
11
103.473802606
21
32.9736517889
0
LINE
8
0
10
103.473802606
20
32.9736517889
11
103.761632512
21
32.9342169537
0
LINE
8
0
10
103.761632512
20
32.9342169537
11
104.151896782
21
32.8039673652
0
LINE
8
0
10
104.151896782
20
32.8039673652
11
104.472163877
21
32.6639283728
0
LINE
8
0
10
104.472163877
20
32.6639283728
11
104.75259689
21
32.557250688
0
LINE
8
0
10
104.75259689
20
32.557250688
11
105.157719199
21
32.4253347281
0
LINE
8
0
10
105.157719199
20
32.4253347281
11
105.690369324
21
32.2801616597
0
LINE
8
0
10
105.690369324
20
32.2801616597
11
106.352510697
21
32.1339152406
0
LINE
8
0
10
106.352510697
20
32.1339152406
11
107.145219351
21
31.9989248398
0
LINE
8
0
10
107.145219351
20
31.9989248398
11
108.068675089
21
31.8876077723
0
LINE
8
0
10
108.068675089
20
31.8876077723
11
108.417810997
21
31.8626867366
0
LINE
8
0
10
108.417810997
20
31.8626867366
11
109.021293202
21
32.9379771088
0
LINE
8
0
10
109.021293202
20
32.9379771088
11
109.461780785
21
34.089676221
0
LINE
8
0
10
109.461780785
20
34.089676221
11
109.219292481
21
34.3420972241
0
LINE
8
0
10
109.219292481
20
34.3420972241
11
108.543019213
21
34.980702311
0
LINE
8
0
10
108.543019213
20
34.980702311
11
107.932184888
21
35.5036658327
0
LINE
8
0
10
107.932184888
20
35.5036658327
11
107.396219024
21
35.9190690165
0
LINE
8
0
10
107.396219024
20
35.9190690165
11
106.943910245
21
36.2356257165
0
LINE
8
0
10
106.943910245
20
36.2356257165
11
106.583367608
21
36.4626387398
0
LINE
8
0
10
106.583367608
20
36.4626387398
11
106.321984678
21
36.6099539357
0
LINE
8
0
10
106.321984678
20
36.6099539357
11
106.009477887
21
36.7665471569
0
LINE
8
0
10
106.009477887
20
36.7665471569
11
105.659720389
21
36.9832055238
0
LINE
8
0
10
105.659720389
20
36.9832055238
11
105.445291889
21
37.1792197581
0
LINE
8
0
10
105.445291889
20
37.1792197581
11
105.363057595
21
37.3420148058
0
LINE
8
0
10
105.363057595
20
37.3420148058
11
106.345954141
21
39.9118967333
0
LINE
8
0
10
106.345954141
20
39.9118967333
11
106.515836154
21
39.9782654646
0
LINE
8
0
10
106.515836154
20
39.9782654646
11
106.806340521
21
39.9811592425
0
LINE
8
0
10
106.806340521
20
39.9811592425
11
107.211410381
21
39.9091206093
0
LINE
8
0
10
107.211410381
20
39.9091206093
11
107.548654348
21
39.8172052239
0
LINE
8
0
10
107.548654348
20
39.8172052239
11
107.841631284
21
39.752495738
0
LINE
8
0
10
107.841631284
20
39.752495738
11
108.261643472
21
39.6809718392
0
LINE
8
0
10
108.261643472
20
39.6809718392
11
108.809754709
21
39.614900307
0
LINE
8
0
10
108.809754709
20
39.614900307
11
109.486133535
21
39.5666209393
0
LINE
8
0
10
109.486133535
20
39.5666209393
11
110.290049344
21
39.5484883871
0
LINE
8
0
10
110.290049344
20
39.5484883871
11
111.219872049
21
39.5728138185
0
LINE
8
0
10
111.219872049
20
39.5728138185
11
111.568915877
21
39.598992953
0
LINE
8
0
10
111.568915877
20
39.598992953
11
112.00940346
21
40.7506920653
0
LINE
8
0
10
112.00940346
20
40.7506920653
11
112.277508194
21
41.9542534505
0
LINE
8
0
10
112.277508194
20
41.9542534505
11
112.000851205
21
42.1686779156
0
LINE
8
0
10
112.000851205
20
42.1686779156
11
111.238803086
21
42.7020114456
0
LINE
8
0
10
111.238803086
20
42.7020114456
11
110.558334098
21
43.1304637466
0
LINE
8
0
10
110.558334098
20
43.1304637466
11
109.967596636
21
43.4634028758
0
LINE
8
0
10
109.967596636
20
43.4634028758
11
109.47401692
21
43.7107294611
0
LINE
8
0
10
109.47401692
20
43.7107294611
11
109.084263092
21
43.8828278613
0
LINE
8
0
10
109.084263092
20
43.8828278613
11
108.80421636
21
43.9905155136
0
LINE
8
0
10
108.80421636
20
43.9905155136
11
108.472239683
21
44.0999386247
0
LINE
8
0
10
108.472239683
20
44.0999386247
11
108.09466371
21
44.263363043
0
LINE
8
0
10
108.09466371
20
44.263363043
11
107.853980395
21
44.4260673858
0
LINE
8
0
10
107.853980395
20
44.4260673858
11
107.748919292
21
44.5751541773
0
LINE
8
0
10
107.748919292
20
44.5751541773
11
108.347163662
21
47.260760704
0
LINE
8
0
10
108.347163662
20
47.260760704
11
108.50557194
21
47.3511571876
0
LINE
8
0
10
108.50557194
20
47.3511571876
11
108.792559172
21
47.3963179026
0
LINE
8
0
10
108.792559172
20
47.3963179026
11
109.20380126
21
47.3840256032
0
LINE
8
0
10
109.20380126
20
47.3840256032
11
109.55083433
21
47.3421928417
0
LINE
8
0
10
109.55083433
20
47.3421928417
11
109.850110895
21
47.320830725
0
LINE
8
0
10
109.850110895
20
47.320830725
11
110.276061131
21
47.311223295
0
LINE
8
0
10
110.276061131
20
47.311223295
11
110.82795144
21
47.325661499
0
LINE
8
0
10
110.82795144
20
47.325661499
11
111.504151878
21
47.3763781736
0
LINE
8
0
10
111.504151878
20
47.3763781736
11
112.302140773
21
47.475489934
0
LINE
8
0
10
112.302140773
20
47.475489934
11
113.218512889
21
47.6349394098
0
LINE
8
0
10
113.218512889
20
47.6349394098
11
113.560025372
21
47.7116607518
0
LINE
8
0
10
57.4547981623
20
55.7903331393
11
57.1429306261
21
55.7575545404
0
LINE
8
0
10
57.1429306261
20
55.7575545404
11
56.8310630898
21
55.7903331393
0
LINE
8
0
10
56.8310630898
20
55.7903331393
11
56.5328256615
21
55.8872363539
0
LINE
8
0
10
56.5328256615
20
55.8872363539
11
56.2612527476
21
56.0440290488
0
LINE
8
0
10
56.2612527476
20
56.0440290488
11
56.0282133878
21
56.2538586309
0
LINE
8
0
10
56.0282133878
20
56.2538586309
11
55.8438925204
21
56.5075545404
0
LINE
8
0
10
55.8438925204
20
56.5075545404
11
55.7163458516
21
56.7940290488
0
LINE
8
0
10
55.7163458516
20
56.7940290488
11
55.651147783
21
57.1007618455
0
LINE
8
0
10
55.651147783
20
57.1007618455
11
55.651147783
21
57.4143472353
0
LINE
8
0
10
55.651147783
20
57.4143472353
11
55.7163458516
21
57.721080032
0
LINE
8
0
10
55.7163458516
20
57.721080032
11
55.8438925204
21
58.0075545404
0
LINE
8
0
10
55.8438925204
20
58.0075545404
11
56.0282133878
21
58.2612504499
0
LINE
8
0
10
56.0282133878
20
58.2612504499
11
56.2612527476
21
58.471080032
0
LINE
8
0
10
56.2612527476
20
58.471080032
11
56.5328256615
21
58.6278727269
0
LINE
8
0
10
56.5328256615
20
58.6278727269
11
56.8310630898
21
58.7247759415
0
LINE
8
0
10
56.8310630898
20
58.7247759415
11
57.1429306261
21
58.7575545404
0
LINE
8
0
10
57.1429306261
20
58.7575545404
11
57.4547981623
21
58.7247759415
0
LINE
8
0
10
57.4547981623
20
58.7247759415
11
57.7530355907
21
58.6278727269
0
LINE
8
0
10
57.7530355907
20
58.6278727269
11
58.0246085045
21
58.471080032
0
LINE
8
0
10
58.0246085045
20
58.471080032
11
58.2576478643
21
58.2612504499
0
LINE
8
0
10
58.2576478643
20
58.2612504499
11
58.4419687317
21
58.0075545404
0
LINE
8
0
10
58.4419687317
20
58.0075545404
11
58.5695154005
21
57.721080032
0
LINE
8
0
10
58.5695154005
20
57.721080032
11
58.6347134691
21
57.4143472353
0
LINE
8
0
10
58.6347134691
20
57.4143472353
11
58.6347134691
21
57.1007618455
0
LINE
8
0
10
58.6347134691
20
57.1007618455
11
58.5695154005
21
56.7940290488
0
LINE
8
0
10
58.5695154005
20
56.7940290488
11
58.4419687317
21
56.5075545404
0
LINE
8
0
10
58.4419687317
20
56.5075545404
11
58.2576478643
21
56.2538586309
0
LINE
8
0
10
58.2576478643
20
56.2538586309
11
58.0246085045
21
56.0440290488
0
LINE
8
0
10
58.0246085045
20
56.0440290488
11
57.7530355907
21
55.8872363539
0
LINE
8
0
10
57.7530355907
20
55.8872363539
11
57.4547981623
21
55.7903331393
0
ENDSEC
0
EOF
