  0
SECTION
  2
BLOCKS
  0
ENDSEC
  0
SECTION
  2
ENTITIES
  0
LINE
  8
0
 10
56.41709474616241
 20
-9.545893788651323
 11
56.68519947996175
 21
-8.342332403392156
  0
LINE
  8
0
 10
56.68519947996175
 20
-8.342332403392156
 11
56.77520717716118
 21
-7.1125605664982245
  0
LINE
  8
0
 10
56.77520717716118
 20
-7.1125605664982245
 11
56.470277967899186
 21
-6.940702724590629
  0
LINE
  8
0
 10
56.470277967899186
 20
-6.940702724590629
 11
55.638696730567936
 21
-6.524007829658403
  0
LINE
  8
0
 10
55.638696730567936
 20
-6.524007829658403
 11
54.90309609477591
 21
-6.199198466461236
  0
LINE
  8
0
 10
54.90309609477591
 20
-6.199198466461236
 11
54.27017757817403
 21
-5.95581941133113
  0
LINE
  8
0
 10
54.27017757817403
 20
-5.95581941133113
 11
53.74584671999726
 21
-5.782994277387475
  0
LINE
  8
0
 10
53.74584671999726
 20
-5.782994277387475
 11
53.335188627210705
 21
-5.669478478933449
  0
LINE
  8
0
 10
53.335188627210705
 20
-5.669478478933449
 11
53.04244680169518
 21
-5.60371354557339
  0
LINE
  8
0
 10
53.04244680169518
 20
-5.60371354557339
 11
52.69807574485623
 21
-5.543792708209571
  0
LINE
  8
0
 10
52.69807574485623
 20
-5.543792708209571
 11
52.300728674160375
 21
-5.437085346328637
  0
LINE
  8
0
 10
52.300728674160375
 20
-5.437085346328637
 11
52.03892029028244
 21
-5.3111586555528785
  0
LINE
  8
0
 10
52.03892029028244
 20
-5.3111586555528785
 11
51.91327157378456
 21
-5.178957646380625
  0
LINE
  8
0
 10
51.91327157378456
 20
-5.178957646380625
 11
52.11411322756906
 21
-2.4348655610988783
  0
LINE
  8
0
 10
52.11411322756906
 20
-2.4348655610988783
 11
52.25767157325478
 21
-2.3223679692695365
  0
LINE
  8
0
 10
52.25767157325478
 20
-2.3223679692695365
 11
52.53502503477681
 21
-2.235902839301849
  0
LINE
  8
0
 10
52.53502503477681
 20
-2.235902839301849
 11
52.94367444048945
 21
-2.1881868159885296
  0
LINE
  8
0
 10
52.94367444048945
 20
-2.1881868159885296
 11
53.29310020562262
 21
-2.1790453609434532
  0
LINE
  8
0
 10
53.29310020562262
 20
-2.1790453609434532
 11
53.592297840347555
 21
-2.1566048119115564
  0
LINE
  8
0
 10
53.592297840347555
 20
-2.1566048119115564
 11
54.0151077338033
 21
-2.1040910073885253
  0
LINE
  8
0
 10
54.0151077338033
 20
-2.1040910073885253
 11
54.55901453233382
 21
-2.0094507925147047
  0
LINE
  8
0
 10
54.55901453233382
 20
-2.0094507925147047
 11
55.22062454389557
 21
-1.8608190134915341
  0
LINE
  8
0
 10
55.22062454389557
 20
-1.8608190134915341
 11
55.995678777040204
 21
-1.6465753356818722
  0
LINE
  8
0
 10
55.995678777040204
 20
-1.6465753356818722
 11
56.87906942250104
 21
-1.3554002040918296
  0
LINE
  8
0
 10
56.87906942250104
 20
-1.3554002040918296
 11
57.2057718158829
 21
-1.2297718368939194
  0
LINE
  8
0
 10
57.2057718158829
 20
-1.2297718368939194
 11
57.295779513082316
 21
-3.552713678800501e-15
  0
LINE
  8
0
 10
57.295779513082316
 20
-3.552713678800501e-15
 11
57.20577181588292
 21
1.2297718368939274
  0
LINE
  8
0
 10
57.20577181588292
 20
1.2297718368939274
 11
56.879069422501
 21
1.3554002040918514
  0
LINE
  8
0
 10
56.879069422501
 20
1.3554002040918514
 11
55.99567877704028
 21
1.646575335681853
  0
LINE
  8
0
 10
55.99567877704028
 20
1.646575335681853
 11
55.22062454389484
 21
1.8608190134917402
  0
LINE
  8
0
 10
55.22062454389484
 20
1.8608190134917402
 11
54.55901453233365
 21
2.0094507925147562
  0
LINE
  8
0
 10
54.55901453233365
 20
2.0094507925147562
 11
54.01510773380318
 21
2.104091007388569
  0
LINE
  8
0
 10
54.01510773380318
 20
2.104091007388569
 11
53.59229784034714
 21
2.1566048119112584
  0
LINE
  8
0
 10
53.59229784034714
 20
2.1566048119112584
 11
53.29310020562192
 21
2.1790453609429963
  0
LINE
  8
0
 10
53.29310020562192
 20
2.1790453609429963
 11
52.94367444048946
 21
2.18818681598851
  0
LINE
  8
0
 10
52.94367444048946
 20
2.18818681598851
 11
52.53502503477665
 21
2.235902839300802
  0
LINE
  8
0
 10
52.53502503477665
 20
2.235902839300802
 11
52.2576715732546
 21
2.322367969268002
  0
LINE
  8
0
 10
52.2576715732546
 20
2.322367969268002
 11
52.11411322756906
 21
2.434865561098912
  0
LINE
  8
0
 10
52.11411322756906
 20
2.434865561098912
 11
51.91327157378457
 21
5.1789576463806615
  0
LINE
  8
0
 10
51.91327157378457
 20
5.1789576463806615
 11
52.038920290282846
 21
5.311158655551388
  0
LINE
  8
0
 10
52.038920290282846
 20
5.311158655551388
 11
52.30072867416069
 21
5.437085346327626
  0
LINE
  8
0
 10
52.30072867416069
 20
5.437085346327626
 11
52.69807574485623
 21
5.543792708209552
  0
LINE
  8
0
 10
52.69807574485623
 20
5.543792708209552
 11
53.04244680169595
 21
5.603713545573042
  0
LINE
  8
0
 10
53.04244680169595
 20
5.603713545573042
 11
53.33518862721116
 21
5.669478478933215
  0
LINE
  8
0
 10
53.33518862721116
 20
5.669478478933215
 11
53.74584671999738
 21
5.782994277387538
  0
LINE
  8
0
 10
53.74584671999738
 20
5.782994277387538
 11
54.2701775781742
 21
5.955819411331207
  0
LINE
  8
0
 10
54.2701775781742
 20
5.955819411331207
 11
54.90309609477661
 21
6.199198466461547
  0
LINE
  8
0
 10
54.90309609477661
 20
6.199198466461547
 11
55.638696730567865
 21
6.524007829658373
  0
LINE
  8
0
 10
55.638696730567865
 20
6.524007829658373
 11
56.47027796789923
 21
6.940702724590658
  0
LINE
  8
0
 10
56.47027796789923
 20
6.940702724590658
 11
56.7752071771612
 21
7.112560566498236
  0
LINE
  8
0
 10
56.7752071771612
 20
7.112560566498236
 11
56.68519947996178
 21
8.342332403392154
  0
LINE
  8
0
 10
56.68519947996178
 20
8.342332403392154
 11
56.41709474616243
 21
9.545893788651334
  0
LINE
  8
0
 10
56.41709474616243
 20
9.545893788651334
 11
56.07558226297111
 21
9.62261513060248
  0
LINE
  8
0
 10
56.07558226297111
 20
9.62261513060248
 11
55.15921014729007
 21
9.782064606444187
  0
LINE
  8
0
 10
55.15921014729007
 20
9.782064606444187
 11
54.36122125216012
 21
9.881176366833483
  0
LINE
  8
0
 10
54.36122125216012
 20
9.881176366833483
 11
53.68502081438167
 21
9.93189304142663
  0
LINE
  8
0
 10
53.68502081438167
 20
9.93189304142663
 11
53.13313050460427
 21
9.946331245360195
  0
LINE
  8
0
 10
53.13313050460427
 20
9.946331245360195
 11
52.70718026929629
 21
9.936723815379999
  0
LINE
  8
0
 10
52.70718026929629
 20
9.936723815379999
 11
52.40790370349349
 21
9.915361698740968
  0
LINE
  8
0
 10
52.40790370349349
 20
9.915361698740968
 11
52.06087063359569
 21
9.87352893722482
  0
LINE
  8
0
 10
52.06087063359569
 20
9.87352893722482
 11
51.649628545471955
 21
9.861236637773754
  0
LINE
  8
0
 10
51.649628545471955
 20
9.861236637773754
 11
51.36264131381086
 21
9.906397352803602
  0
LINE
  8
0
 10
51.36264131381086
 20
9.906397352803602
 11
51.20423303583707
 21
9.99679383643601
  0
LINE
  8
0
 10
51.20423303583707
 20
9.99679383643601
 11
50.60598866564274
 21
12.682400363076058
  0
LINE
  8
0
 10
50.60598866564274
 20
12.682400363076058
 11
50.71104976870646
 21
12.831487154598507
  0
LINE
  8
0
 10
50.71104976870646
 20
12.831487154598507
 11
50.95173308377644
 21
12.994191497397049
  0
LINE
  8
0
 10
50.95173308377644
 20
12.994191497397049
 11
51.32930905649722
 21
13.15761591568908
  0
LINE
  8
0
 10
51.32930905649722
 20
13.15761591568908
 11
51.661285733846825
 21
13.267039026754157
  0
LINE
  8
0
 10
51.661285733846825
 20
13.267039026754157
 11
51.94133246638525
 21
13.374726679065837
  0
LINE
  8
0
 10
51.94133246638525
 20
13.374726679065837
 11
52.331086294218345
 21
13.546825079287876
  0
LINE
  8
0
 10
52.331086294218345
 20
13.546825079287876
 11
52.82466601011656
 21
13.79415166462178
  0
LINE
  8
0
 10
52.82466601011656
 20
13.79415166462178
 11
53.41540347241986
 21
14.127090793841786
  0
LINE
  8
0
 10
53.41540347241986
 20
14.127090793841786
 11
54.09587246041906
 21
14.555543094767085
  0
LINE
  8
0
 10
54.09587246041906
 20
14.555543094767085
 11
54.85792057929718
 21
15.088876624801063
  0
LINE
  8
0
 10
54.85792057929718
 20
15.088876624801063
 11
55.13457756774669
 21
15.303301089889068
  0
LINE
  8
0
 10
55.13457756774669
 20
15.303301089889068
 11
54.86647283394735
 21
16.50686247514824
  0
LINE
  8
0
 10
54.86647283394735
 20
16.50686247514824
 11
54.42598525047896
 21
17.658561587409242
  0
LINE
  8
0
 10
54.42598525047896
 20
17.658561587409242
 11
54.076941423140504
 21
17.684740721909698
  0
LINE
  8
0
 10
54.076941423140504
 20
17.684740721909698
 11
53.14711871792522
 21
17.709066153253783
  0
LINE
  8
0
 10
53.14711871792522
 20
17.709066153253783
 11
52.34320290868186
 21
17.690933601122698
  0
LINE
  8
0
 10
52.34320290868186
 20
17.690933601122698
 11
51.66682408303187
 21
17.642654233418785
  0
LINE
  8
0
 10
51.66682408303187
 20
17.642654233418785
 11
51.118712845795955
 21
17.57658270116215
  0
LINE
  8
0
 10
51.118712845795955
 20
17.57658270116215
 11
50.69870065838803
 21
17.505058802369156
  0
LINE
  8
0
 10
50.69870065838803
 20
17.505058802369156
 11
50.40572372191866
 21
17.440349316487676
  0
LINE
  8
0
 10
50.40572372191866
 20
17.440349316487676
 11
50.06847975463887
 21
17.348433931093627
  0
LINE
  8
0
 10
50.06847975463887
 20
17.348433931093627
 11
49.663409895234516
 21
17.27639529790072
  0
LINE
  8
0
 10
49.663409895234516
 20
17.27639529790072
 11
49.372905528024276
 21
17.279289075758136
  0
LINE
  8
0
 10
49.372905528024276
 20
17.279289075758136
 11
49.203023515186686
 21
17.345657807085296
  0
LINE
  8
0
 10
49.203023515186686
 20
17.345657807085296
 11
48.220126968691126
 21
19.91553973458467
  0
LINE
  8
0
 10
48.220126968691126
 20
19.91553973458467
 11
48.30236126331033
 21
20.07833478233461
  0
LINE
  8
0
 10
48.30236126331033
 20
20.07833478233461
 11
48.51678976257412
 21
20.27434901656789
  0
LINE
  8
0
 10
48.51678976257412
 20
20.27434901656789
 11
48.8665472609902
 21
20.491007383523467
  0
LINE
  8
0
 10
48.8665472609902
 20
20.491007383523467
 11
49.17905405233337
 21
20.647600604652734
  0
LINE
  8
0
 10
49.17905405233337
 20
20.647600604652734
 11
49.44043698199414
 21
20.79491580056884
  0
LINE
  8
0
 10
49.44043698199414
 20
20.79491580056884
 11
49.80097961870505
 21
21.02192882394654
  0
LINE
  8
0
 10
49.80097961870505
 20
21.02192882394654
 11
50.25328839760881
 21
21.338485523900392
  0
LINE
  8
0
 10
50.25328839760881
 20
21.338485523900392
 11
50.78925426221301
 21
21.75388870770308
  0
LINE
  8
0
 10
50.78925426221301
 20
21.75388870770308
 11
51.400088587337315
 21
22.27685222942019
  0
LINE
  8
0
 10
51.400088587337315
 20
22.27685222942019
 11
52.076361855138316
 21
22.915457316310306
  0
LINE
  8
0
 10
52.076361855138316
 20
22.915457316310306
 11
52.31885015938476
 21
23.167878319378495
  0
LINE
  8
0
 10
52.31885015938476
 20
23.167878319378495
 11
51.878362575916356
 21
24.319577431639484
  0
LINE
  8
0
 10
51.878362575916356
 20
24.319577431639484
 11
51.27488037086783
 21
25.394867803847102
  0
LINE
  8
0
 10
51.27488037086783
 20
25.394867803847102
 11
50.925744462569426
 21
25.369946768095904
  0
LINE
  8
0
 10
50.925744462569426
 20
25.369946768095904
 11
50.002288724469665
 21
25.258629700605876
  0
LINE
  8
0
 10
50.002288724469665
 20
25.258629700605876
 11
49.20958007086832
 21
25.123639299822248
  0
LINE
  8
0
 10
49.20958007086832
 20
25.123639299822248
 11
48.54743869772027
 21
24.977392880723652
  0
LINE
  8
0
 10
48.54743869772027
 20
24.977392880723652
 11
48.01478857244407
 21
24.83221981227676
  0
LINE
  8
0
 10
48.01478857244407
 20
24.83221981227676
 11
47.60966626350653
 21
24.700303852397507
  0
LINE
  8
0
 10
47.60966626350653
 20
24.700303852397507
 11
47.32923325111948
 21
24.593626167619753
  0
LINE
  8
0
 10
47.32923325111948
 20
24.593626167619753
 11
47.00896615611407
 21
24.453587175208558
  0
LINE
  8
0
 10
47.00896615611407
 20
24.453587175208558
 11
46.61870188622017
 21
24.323337586670434
  0
LINE
  8
0
 10
46.61870188622017
 20
24.323337586670434
 11
46.33087197968866
 21
24.28390275150442
  0
LINE
  8
0
 10
46.33087197968866
 20
24.28390275150442
 11
46.15313697215022
 21
24.324829196244178
  0
LINE
  8
0
 10
46.15313697215022
 20
24.324829196244178
 11
44.80653698278591
 21
26.724213953019312
  0
LINE
  8
0
 10
44.80653698278591
 20
26.724213953019312
 11
44.864191787741895
 21
26.897247563190604
  0
LINE
  8
0
 10
44.864191787741895
 20
26.897247563190604
 11
45.047795300017775
 21
27.12239398576609
  0
LINE
  8
0
 10
45.047795300017775
 20
27.12239398576609
 11
45.36227985028198
 21
27.387668604445032
  0
LINE
  8
0
 10
45.36227985028198
 20
27.387668604445032
 11
45.648656215919964
 21
27.58809442299948
  0
LINE
  8
0
 10
45.648656215919964
 20
27.58809442299948
 11
45.88580441935739
 21
27.77189739488037
  0
LINE
  8
0
 10
45.88580441935739
 20
27.77189739488037
 11
46.209451524600794
 21
28.04898665294914
  0
LINE
  8
0
 10
46.209451524600794
 20
28.04898665294914
 11
46.61084919016376
 21
28.428026611053408
  0
LINE
  8
0
 10
46.61084919016376
 20
28.428026611053408
 11
47.08062027518205
 21
28.917040251778356
  0
LINE
  8
0
 10
47.08062027518205
 20
28.917040251778356
 11
47.608801064291605
 21
29.523368934765102
  0
LINE
  8
0
 10
47.608801064291605
 20
29.523368934765102
 11
48.1848858904243
 21
30.253634819798666
  0
LINE
  8
0
 10
48.1848858904243
 20
30.253634819798666
 11
48.388037293258684
 21
30.538672445407386
  0
LINE
  8
0
 10
48.388037293258684
 20
30.538672445407386
 11
47.78455508821021
 21
31.61396281761502
  0
LINE
  8
0
 10
47.78455508821021
 20
31.61396281761502
 11
47.03094043704658
 21
32.58992650235135
  0
LINE
  8
0
 10
47.03094043704658
 20
32.58992650235135
 11
46.689153673521155
 21
32.514436444958825
  0
LINE
  8
0
 10
46.689153673521155
 20
32.514436444958825
 11
45.79174675833663
 21
32.26984940866508
  0
LINE
  8
0
 10
45.79174675833663
 20
32.26984940866508
 11
45.027140469067504
 21
32.020878245258
  0
LINE
  8
0
 10
45.027140469067504
 20
32.020878245258
 11
44.39334894221315
 21
31.77978176328206
  0
LINE
  8
0
 10
44.39334894221315
 20
31.77978176328206
 11
43.88751244155632
 21
31.558601270556604
  0
LINE
  8
0
 10
43.88751244155632
 20
31.558601270556604
 11
43.50591448975099
 21
31.369104809249993
  0
LINE
  8
0
 10
43.50591448975099
 20
31.369104809249993
 11
43.24400234423145
 21
31.22273257521851
  0
LINE
  8
0
 10
43.24400234423145
 20
31.22273257521851
 11
42.94753805859866
 21
31.037554663784686
  0
LINE
  8
0
 10
42.94753805859866
 20
31.037554663784686
 11
42.580397183570604
 21
30.851870163748185
  0
LINE
  8
0
 10
42.580397183570604
 20
30.851870163748185
 11
42.30137633245959
 21
30.77094720060551
  0
LINE
  8
0
 10
42.30137633245959
 20
30.77094720060551
 11
42.119576443331304
 21
30.785559082642692
  0
LINE
  8
0
 10
42.119576443331304
 20
30.785559082642692
 11
40.43797345197168
 21
32.96330794829529
  0
LINE
  8
0
 10
40.43797345197168
 20
32.96330794829529
 11
40.469819955194204
 21
33.14289220989948
  0
LINE
  8
0
 10
40.469819955194204
 20
33.14289220989948
 11
40.61868529038129
 21
33.392372215707994
  0
LINE
  8
0
 10
40.61868529038129
 20
33.392372215707994
 11
40.89119420029715
 21
33.70060921816974
  0
LINE
  8
0
 10
40.89119420029715
 20
33.70060921816974
 11
41.145336525188775
 21
33.9405959057962
  0
LINE
  8
0
 10
41.145336525188775
 20
33.9405959057962
 11
41.3531956001715
 21
34.156969212405805
  0
LINE
  8
0
 10
41.3531956001715
 20
34.156969212405805
 11
41.63304919779913
 21
34.47822902869849
  0
LINE
  8
0
 10
41.63304919779913
 20
34.47822902869849
 11
41.97498065566648
 21
34.91167366631649
  0
LINE
  8
0
 10
41.97498065566648
 20
34.91167366631649
 11
42.36854460601487
 21
35.46387528721279
  0
LINE
  8
0
 10
42.36854460601487
 20
35.46387528721279
 11
42.802814602590985
 21
36.14064628826899
  0
LINE
  8
0
 10
42.802814602590985
 20
36.14064628826899
 11
43.266432739156144
 21
36.94700862195778
  0
LINE
  8
0
 10
43.266432739156144
 20
36.94700862195778
 11
43.425917421128446
 21
37.25858778798533
  0
LINE
  8
0
 10
43.425917421128446
 20
37.25858778798533
 11
42.672302769964745
 21
38.2345514727216
  0
LINE
  8
0
 10
42.672302769964745
 20
38.2345514727216
 11
41.784617660587195
 21
39.09038749846601
  0
LINE
  8
0
 10
41.784617660587195
 20
39.09038749846601
 11
41.45746463330621
 21
38.96593735894346
  0
LINE
  8
0
 10
41.45746463330621
 20
38.96593735894346
 11
40.60523321140087
 21
38.593293301884756
  0
LINE
  8
0
 10
40.60523321140087
 20
38.593293301884756
 11
39.88502554204835
 21
38.2356477639509
  0
LINE
  8
0
 10
39.88502554204835
 20
38.2356477639509
 11
39.293092027525304
 21
37.90483977203121
  0
LINE
  8
0
 10
39.293092027525304
 20
37.90483977203121
 11
38.82485017829117
 21
37.612365933227075
  0
LINE
  8
0
 10
38.82485017829117
 20
37.612365933227075
 11
38.47490968144942
 21
37.369327758571536
  0
LINE
  8
0
 10
38.47490968144942
 20
37.369327758571536
 11
38.2371006054603
 21
37.18638064533053
  0
LINE
  8
0
 10
38.2371006054603
 20
37.18638064533053
 11
37.97075775074187
 21
36.96001056055962
  0
LINE
  8
0
 10
37.97075775074187
 20
36.96001056055962
 11
37.63456524091919
 21
36.72284869176683
  0
LINE
  8
0
 10
37.63456524091919
 20
36.72284869176683
 11
37.370300290247975
 21
36.602162333112446
  0
LINE
  8
0
 10
37.370300290247975
 20
36.602162333112446
 11
37.18831026853469
 21
36.59014822554986
  0
LINE
  8
0
 10
37.18831026853469
 20
36.59014822554986
 11
35.20754472342518
 21
38.49984626390772
  0
LINE
  8
0
 10
35.20754472342518
 20
38.49984626390772
 11
35.21290417198837
 21
38.68215365019397
  0
LINE
  8
0
 10
35.21290417198837
 20
38.68215365019397
 11
35.32385852391974
 21
38.95065000604646
  0
LINE
  8
0
 10
35.32385852391974
 20
38.95065000604646
 11
35.54858373918881
 21
39.295279855729284
  0
LINE
  8
0
 10
35.54858373918881
 20
39.295279855729284
 11
35.76507542090825
 21
39.569712512833945
  0
LINE
  8
0
 10
35.76507542090825
 20
39.569712512833945
 11
35.93921521212759
 21
39.81404453279844
  0
LINE
  8
0
 10
35.93921521212759
 20
39.81404453279844
 11
36.16931070857391
 21
40.17262781208607
  0
LINE
  8
0
 10
36.16931070857391
 20
40.17262781208607
 11
36.44448828336556
 21
40.65123900929197
  0
LINE
  8
0
 10
36.44448828336556
 20
40.65123900929197
 11
36.75345696672853
 21
41.254859391515176
  0
LINE
  8
0
 10
36.75345696672853
 20
41.254859391515176
 11
37.08456045975213
 21
41.98764851172944
  0
LINE
  8
0
 10
37.08456045975213
 20
41.98764851172944
 11
37.4258306910796
 21
42.85292108089703
  0
LINE
  8
0
 10
37.4258306910796
 20
42.85292108089703
 11
37.53824951308298
 21
43.18440101836779
  0
LINE
  8
0
 10
37.53824951308298
 20
43.18440101836779
 11
36.650564403705374
 21
44.04023704411214
  0
LINE
  8
0
 10
36.650564403705374
 20
44.04023704411214
 11
35.64772830306555
 21
44.7577047518357
  0
LINE
  8
0
 10
35.64772830306555
 20
44.7577047518357
 11
35.34218171081871
 21
44.58694696884293
  0
LINE
  8
0
 10
35.34218171081871
 20
44.58694696884293
 11
34.5532896153487
 21
44.094188152129426
  0
LINE
  8
0
 10
34.5532896153487
 20
44.094188152129426
 11
33.89283054199634
 21
43.63549083338347
  0
LINE
  8
0
 10
33.89283054199634
 20
43.63549083338347
 11
33.35537107498114
 21
43.22202192953545
  0
LINE
  8
0
 10
33.35537107498114
 20
43.22202192953545
 11
32.93470363924795
 21
42.864488316748215
  0
LINE
  8
0
 10
32.93470363924795
 20
42.864488316748215
 11
32.62387897151069
 21
42.57308836548575
  0
LINE
  8
0
 10
32.62387897151069
 20
42.57308836548575
 11
32.41524145263442
 21
42.35746557313028
  0
LINE
  8
0
 10
32.41524145263442
 20
42.35746557313028
 11
32.184696664367465
 21
42.0947280003667
  0
LINE
  8
0
 10
32.184696664367465
 20
42.0947280003667
 11
31.886617879416306
 21
41.811143456302304
  0
LINE
  8
0
 10
31.886617879416306
 20
41.811143456302304
 11
31.64274117780481
 21
41.653265922341305
  0
LINE
  8
0
 10
31.64274117780481
 20
41.653265922341305
 11
31.46443982485734
 21
41.614881885023344
  0
LINE
  8
0
 10
31.46443982485734
 20
41.614881885023344
 11
29.226728304685412
 21
43.21582719792153
  0
LINE
  8
0
 10
29.226728304685412
 20
43.21582719792153
 11
29.205486471247944
 21
43.39697214346415
  0
LINE
  8
0
 10
29.205486471247944
 20
43.39697214346415
 11
29.276165040545603
 21
43.67876231568563
  0
LINE
  8
0
 10
29.276165040545603
 20
43.67876231568563
 11
29.448316933361145
 21
44.052439825672735
  0
LINE
  8
0
 10
29.448316933361145
 20
44.052439825672735
 11
29.62254382757465
 21
44.355469396625736
  0
LINE
  8
0
 10
29.62254382757465
 20
44.355469396625736
 11
29.759252847713608
 21
44.62255261713667
  0
LINE
  8
0
 10
29.759252847713608
 20
44.62255261713667
 11
29.934686156952193
 21
45.01081677937565
  0
LINE
  8
0
 10
29.934686156952193
 20
45.01081677937565
 11
30.13724491641108
 21
45.52439376944195
  0
LINE
  8
0
 10
30.13724491641108
 20
45.52439376944195
 11
30.355033201718776
 21
46.16656779252063
  0
LINE
  8
0
 10
30.355033201718776
 20
46.16656779252063
 11
30.57591329508148
 21
46.93975690402759
  0
LINE
  8
0
 10
30.57591329508148
 20
46.93975690402759
 11
30.787562038686904
 21
47.84549792610533
  0
LINE
  8
0
 10
30.787562038686904
 20
47.84549792610533
 11
30.850518988706263
 21
48.18981371565105
  0
LINE
  8
0
 10
30.850518988706263
 20
48.18981371565105
 11
29.847682888066462
 21
48.90728142337461
  0
LINE
  8
0
 10
29.847682888066462
 20
48.90728142337461
 11
28.75106950657545
 21
49.47108923451903
  0
LINE
  8
0
 10
28.75106950657545
 20
49.47108923451903
 11
28.473641544501678
 21
49.25766321373932
  0
LINE
  8
0
 10
28.473641544501678
 20
49.25766321373932
 11
27.764902640846756
 21
48.65529193604593
  0
LINE
  8
0
 10
27.764902640846756
 20
48.65529193604593
 11
27.17826870198689
 21
48.10531917346951
  0
LINE
  8
0
 10
27.17826870198689
 20
48.10531917346951
 11
26.706738297908608
 21
47.61800172953453
  0
LINE
  8
0
 10
26.706738297908608
 20
47.61800172953453
 11
26.34261107172715
 21
47.2030285509887
  0
LINE
  8
0
 10
26.34261107172715
 20
47.2030285509887
 11
26.07752692124887
 21
46.86947750716639
  0
LINE
  8
0
 10
26.07752692124887
 20
46.86947750716639
 11
25.902507705974234
 21
46.62577466116194
  0
LINE
  8
0
 10
25.902507705974234
 20
46.62577466116194
 11
25.71267464606028
 21
46.33226939561725
  0
LINE
  8
0
 10
25.71267464606028
 20
46.33226939561725
 11
25.459062617772343
 21
46.00830628849262
  0
LINE
  8
0
 10
25.459062617772343
 20
46.00830628849262
 11
25.24077197370882
 21
45.816602464762255
  0
LINE
  8
0
 10
25.24077197370882
 20
45.816602464762255
 11
25.069959473307296
 21
45.7526665868039
  0
LINE
  8
0
 10
25.069959473307296
 20
45.7526665868039
 11
22.62299491412207
 21
47.010737804379545
  0
LINE
  8
0
 10
22.62299491412207
 20
47.010737804379545
 11
22.575604531484657
 21
47.186859519159135
  0
LINE
  8
0
 10
22.575604531484657
 20
47.186859519159135
 11
22.604500927152635
 21
47.475937639458785
  0
LINE
  8
0
 10
22.604500927152635
 20
47.475937639458785
 11
22.72041037880084
 21
47.870698522385084
  0
LINE
  8
0
 10
22.72041037880084
 20
47.870698522385084
 11
22.8486591417423
 21
48.195866457986405
  0
LINE
  8
0
 10
22.8486591417423
 20
48.195866457986405
 11
22.945023675384007
 21
48.48000846389518
  0
LINE
  8
0
 10
22.945023675384007
 20
48.48000846389518
 11
23.06205574100702
 21
48.889678332552315
  0
LINE
  8
0
 10
23.06205574100702
 20
48.889678332552315
 11
23.18767849684771
 21
49.42727511358255
  0
LINE
  8
0
 10
23.18767849684771
 20
49.42727511358255
 11
23.309644604911984
 21
50.09431595312537
  0
LINE
  8
0
 10
23.309644604911984
 20
50.09431595312537
 11
23.415593622904787
 21
50.89142587238569
  0
LINE
  8
0
 10
23.415593622904787
 20
50.89142587238569
 11
23.49310995327222
 21
51.81833104999047
  0
LINE
  8
0
 10
23.49310995327222
 20
51.81833104999047
 11
23.505263213220672
 21
52.16814419834093
  0
LINE
  8
0
 10
23.505263213220672
 20
52.16814419834093
 11
22.408649831729655
 21
52.73195200948533
  0
LINE
  8
0
 10
22.408649831729655
 20
52.73195200948533
 11
21.24163157972836
 21
53.13008333941109
  0
LINE
  8
0
 10
21.24163157972836
 20
53.13008333941109
 11
20.998235143182633
 21
52.87853788593772
  0
LINE
  8
0
 10
20.998235143182633
 20
52.87853788593772
 11
20.384754970596994
 21
52.179392645241435
  0
LINE
  8
0
 10
20.384754970596994
 20
52.179392645241435
 11
19.884449250151782
 21
51.54986615343353
  0
LINE
  8
0
 10
19.884449250151782
 20
51.54986615343353
 11
19.488897760925727
 21
50.99908649467279
  0
LINE
  8
0
 10
19.488897760925727
 20
50.99908649467279
 11
19.18907148394249
 21
50.53551818321329
  0
LINE
  8
0
 10
19.18907148394249
 20
50.53551818321329
 11
18.975377659164746
 21
50.16692510823548
  0
LINE
  8
0
 10
18.975377659164746
 20
50.16692510823548
 11
18.837706978205663
 21
49.9003363116399
  0
LINE
  8
0
 10
18.837706978205663
 20
49.9003363116399
 11
18.692631608738065
 21
49.582318908479955
  0
LINE
  8
0
 10
18.692631608738065
 20
49.582318908479955
 11
18.488891637187724
 21
49.22488194947483
  0
LINE
  8
0
 10
18.488891637187724
 20
49.22488194947483
 11
18.300839536765043
 21
49.00343767015128
  0
LINE
  8
0
 10
18.300839536765043
 20
49.00343767015128
 11
18.141156460799365
 21
48.91531263378892
  0
LINE
  8
0
 10
18.141156460799365
 20
48.91531263378892
 11
15.537091663881814
 21
49.80369615224003
  0
LINE
  8
0
 10
15.537091663881814
 20
49.80369615224003
 11
15.464562775773548
 21
49.971040907679814
  0
LINE
  8
0
 10
15.464562775773548
 20
49.971040907679814
 11
15.451061121306667
 21
50.26124577780648
  0
LINE
  8
0
 10
15.451061121306667
 20
50.26124577780648
 11
15.508257723061867
 21
50.668676390816586
  0
LINE
  8
0
 10
15.508257723061867
 20
50.668676390816586
 11
15.587794955008306
 21
51.00905230105928
  0
LINE
  8
0
 10
15.587794955008306
 20
51.00905230105928
 11
15.641761159421495
 21
51.30419709882316
  0
LINE
  8
0
 10
15.641761159421495
 20
51.30419709882316
 11
15.69789764613543
 21
51.726541271896444
  0
LINE
  8
0
 10
15.69789764613543
 20
51.726541271896444
 11
15.743906967417152
 21
52.27669990185173
  0
LINE
  8
0
 10
15.743906967417152
 20
52.27669990185173
 11
15.767451402396105
 21
52.95439074044692
  0
LINE
  8
0
 10
15.767451402396105
 20
52.95439074044692
 11
15.756211225643895
 21
53.75843245343413
  0
LINE
  8
0
 10
15.756211225643895
 20
53.75843245343413
 11
15.697943016771559
 21
54.68674641195194
  0
LINE
  8
0
 10
15.697943016771559
 20
54.68674641195194
 11
15.659033561013151
 21
55.034601259178196
  0
LINE
  8
0
 10
15.659033561013151
 20
55.034601259178196
 11
14.492015309011855
 21
55.432732589103914
  0
LINE
  8
0
 10
14.492015309011855
 20
55.432732589103914
 11
13.279465154422692
 21
55.65670195972944
  0
LINE
  8
0
 10
13.279465154422692
 20
55.65670195972944
 11
13.075287815877221
 21
55.37239832818254
  0
LINE
  8
0
 10
13.075287815877221
 20
55.37239832818254
 11
12.570141639145795
 21
54.591380191467664
  0
LINE
  8
0
 10
12.570141639145795
 20
54.591380191467664
 11
12.166827284940638
 21
53.89571723464859
  0
LINE
  8
0
 10
12.166827284940638
 20
53.89571723464859
 11
11.855685203822857
 21
53.29321427325234
  0
LINE
  8
0
 10
11.855685203822857
 20
53.29321427325234
 11
11.62655015258829
 21
52.79093098261372
  0
LINE
  8
0
 10
11.62655015258829
 20
52.79093098261372
 11
11.468801166381628
 21
52.395151797940606
  0
LINE
  8
0
 10
11.468801166381628
 20
52.395151797940606
 11
11.37141323128576
 21
52.11135892811513
  0
LINE
  8
0
 10
11.37141323128576
 20
52.11135892811513
 11
11.27418758189209
 21
51.775607376162306
  0
LINE
  8
0
 10
11.27418758189209
 20
51.775607376162306
 11
11.124662030849743
 21
51.39231471349362
  0
LINE
  8
0
 10
11.124662030849743
 20
51.39231471349362
 11
10.970856478101712
 21
51.14584967893013
  0
LINE
  8
0
 10
10.970856478101712
 20
51.14584967893013
 11
10.825706194102287
 21
51.03541371631554
  0
LINE
  8
0
 10
10.825706194102287
 20
51.03541371631554
 11
8.120042279551033
 21
51.53517518331355
  0
LINE
  8
0
 10
8.120042279551033
 20
51.53517518331355
 11
8.0239207133009
 21
51.690176316486976
  0
LINE
  8
0
 10
8.0239207133009
 20
51.690176316486976
 11
7.968308773023219
 21
51.975322723473155
  0
LINE
  8
0
 10
7.968308773023219
 20
51.975322723473155
 11
7.9655734786209
 21
52.38673939041151
  0
LINE
  8
0
 10
7.9655734786209
 20
52.38673939041151
 11
7.99470398156196
 21
52.73506875371246
  0
LINE
  8
0
 10
7.99470398156196
 20
52.73506875371246
 11
8.005121660793002
 21
53.03492584438281
  0
LINE
  8
0
 10
8.005121660793002
 20
53.03492584438281
 11
7.999166116844924
 21
53.46094278907612
  0
LINE
  8
0
 10
7.999166116844924
 20
53.46094278907612
 11
7.964581394763653
 21
54.01193759191699
  0
LINE
  8
0
 10
7.964581394763653
 20
54.01193759191699
 11
7.889202347902381
 21
54.68583462591299
  0
LINE
  8
0
 10
7.889202347902381
 20
54.68583462591299
 11
7.761012541258
 21
55.47967137945197
  0
LINE
  8
0
 10
7.761012541258
 20
55.47967137945197
 11
7.568201678855639
 21
56.38960871854948
  0
LINE
  8
0
 10
7.568201678855639
 20
56.38960871854948
 11
7.479058794887228
 21
56.72809134251123
  0
LINE
  8
0
 10
7.479058794887228
 20
56.72809134251123
 11
6.266508640298063
 21
56.95206071313672
  0
LINE
  8
0
 10
6.266508640298063
 20
56.95206071313672
 11
5.034269984496872
 21
56.9970946061716
  0
LINE
  8
0
 10
5.034269984496872
 20
56.9970946061716
 11
4.873663429440211
 21
56.68609223486372
  0
LINE
  8
0
 10
4.873663429440211
 20
56.68609223486372
 11
4.487617562310381
 21
55.83984724774951
  0
LINE
  8
0
 10
4.487617562310381
 20
55.83984724774951
 11
4.189890519590856
 21
55.092874674068476
  0
LINE
  8
0
 10
4.189890519590856
 20
55.092874674068476
 11
3.9697892998509827
 21
54.451489714623236
  0
LINE
  8
0
 10
3.9697892998509827
 20
54.451489714623236
 11
3.816229090169277
 21
53.92119674110621
  0
LINE
  8
0
 10
3.816229090169277
 20
53.92119674110621
 11
3.7177870882987576
 21
53.506666792926985
  0
LINE
  8
0
 10
3.7177870882987576
 20
53.506666792926985
 11
3.66275755382259
 21
53.211718402184886
  0
LINE
  8
0
 10
3.66275755382259
 20
53.211718402184886
 11
3.615453820421337
 21
52.86538866285392
  0
LINE
  8
0
 10
3.615453820421337
 20
52.86538866285392
 11
3.5233295674086365
 21
52.464409514172814
  0
LINE
  8
0
 10
3.5233295674086365
 20
52.464409514172814
 11
3.407048660662538
 21
52.19817669868078
  0
LINE
  8
0
 10
3.407048660662538
 20
52.19817669868078
 11
3.2795247949301105
 21
52.06778356062366
  0
LINE
  8
0
 10
3.2795247949301105
 20
52.06778356062366
 11
0.5299282916448168
 21
52.16827142816051
  0
LINE
  8
0
 10
0.5299282916448168
 20
52.16827142816051
 11
0.4122627115559546
 21
52.30762535901922
  0
LINE
  8
0
 10
0.4122627115559546
 20
52.30762535901922
 11
0.3157257574238136
 21
52.58163590225701
  0
LINE
  8
0
 10
0.3157257574238136
 20
52.58163590225701
 11
0.2531168649152774
 21
52.98826999114897
  0
LINE
  8
0
 10
0.2531168649152774
 20
52.98826999114897
 11
0.23121977275569888
 21
53.33712877188151
  0
LINE
  8
0
 10
0.23121977275569888
 20
53.33712877188151
 11
0.19786689205844082
 21
53.63530722216765
  0
LINE
  8
0
 10
0.19786689205844082
 20
53.63530722216765
 11
0.12994624952788517
 21
54.05591712693425
  0
LINE
  8
0
 10
0.12994624952788517
 20
54.05591712693425
 11
0.015504597390509677
 21
54.596004605047895
  0
LINE
  8
0
 10
0.015504597390509677
 20
54.596004605047895
 11
-0.15719135779648813
 21
55.25174488915158
  0
LINE
  8
0
 10
-0.15719135779648813
 20
55.25174488915158
 11
-0.39959865116117765
 21
56.0184574310605
  0
LINE
  8
0
 10
-0.39959865116117765
 20
56.0184574310605
 11
-0.722842738310075
 21
56.89062441614275
  0
LINE
  8
0
 10
-0.722842738310075
 20
56.89062441614275
 11
-0.8603191246821482
 21
57.212520647366965
  0
LINE
  8
0
 10
-0.8603191246821482
 20
57.212520647366965
 11
-2.0925577804833346
 21
57.25755454040181
  0
LINE
  8
0
 10
-2.0925577804833346
 20
57.25755454040181
 11
-3.3182219098995662
 21
57.12269313660154
  0
LINE
  8
0
 10
-3.3182219098995662
 20
57.12269313660154
 11
-3.431834631583482
 21
56.79162050113031
  0
LINE
  8
0
 10
-3.431834631583482
 20
56.79162050113031
 11
-3.690552291687462
 21
55.898184906308686
  0
LINE
  8
0
 10
-3.690552291687462
 20
55.898184906308686
 11
-3.876346487904658
 21
55.1158231393171
  0
LINE
  8
0
 10
-3.876346487904658
 20
55.1158231393171
 11
-4.0007157708966465
 21
54.449226188692805
  0
LINE
  8
0
 10
-4.0007157708966465
 20
54.449226188692805
 11
-4.075428269759719
 21
53.90222580635961
  0
LINE
  8
0
 10
-4.075428269759719
 20
53.90222580635961
 11
-4.112465166934329
 21
53.477780080833455
  0
LINE
  8
0
 10
-4.112465166934329
 20
53.477780080833455
 11
-4.123963441802976
 21
53.17796248204869
  0
LINE
  8
0
 10
-4.123963441802976
 20
53.17796248204869
 11
-4.12033706226075
 21
52.82843597245297
  0
LINE
  8
0
 10
-4.12033706226075
 20
52.82843597245297
 11
-4.153096548732382
 21
52.41831651215356
  0
LINE
  8
0
 10
-4.153096548732382
 20
52.41831651215356
 11
-4.2293744838303775
 21
52.13799020597503
  0
LINE
  8
0
 10
-4.2293744838303775
 20
52.13799020597503
 11
-4.336553981498306
 21
51.990418995830986
  0
LINE
  8
0
 10
-4.336553981498306
 20
51.990418995830986
 11
-7.071480197762689
 21
51.68949153947216
  0
LINE
  8
0
 10
-7.071480197762689
 20
51.68949153947216
 11
-7.208181954135808
 21
51.81022818091927
  0
LINE
  8
0
 10
-7.208181954135808
 20
51.81022818091927
 11
-7.343586404547738
 21
52.06726280140301
  0
LINE
  8
0
 10
-7.343586404547738
 20
52.06726280140301
 11
-7.464734495317114
 21
52.46044761262169
  0
LINE
  8
0
 10
-7.464734495317114
 20
52.46044761262169
 11
-7.537192484074589
 21
52.80240049154577
  0
LINE
  8
0
 10
-7.537192484074589
 20
52.80240049154577
 11
-7.613605065953698
 21
53.092545145462424
  0
LINE
  8
0
 10
-7.613605065953698
 20
53.092545145462424
 11
-7.742043196491631
 21
53.49878344042421
  0
LINE
  8
0
 10
-7.742043196491631
 20
53.49878344042421
 11
-7.933902653557702
 21
54.01645256688762
  0
LINE
  8
0
 10
-7.933902653557702
 20
54.01645256688762
 11
-8.200234802611735
 21
54.640060135406955
  0
LINE
  8
0
 10
-8.200234802611735
 20
54.640060135406955
 11
-8.551693092094142
 21
55.363307318983175
  0
LINE
  8
0
 10
-8.551693092094142
 20
55.363307318983175
 11
-8.998481017472292
 21
56.17911522497605
  0
LINE
  8
0
 10
-8.998481017472292
 20
56.17911522497605
 11
-9.181360835752173
 21
56.47756440415432
  0
LINE
  8
0
 10
-9.181360835752173
 20
56.47756440415432
 11
-10.407024965168379
 21
56.342703000354085
  0
LINE
  8
0
 10
-10.407024965168379
 20
56.342703000354085
 11
-11.599991665218184
 21
56.03082063640107
  0
LINE
  8
0
 10
-11.599991665218184
 20
56.03082063640107
 11
-11.664189095615411
 21
55.68673397519976
  0
LINE
  8
0
 10
-11.664189095615411
 20
55.68673397519976
 11
-11.790064430941147
 21
54.765149801235935
  0
LINE
  8
0
 10
-11.790064430941147
 20
54.765149801235935
 11
-11.859965899930282
 21
53.964073523699675
  0
LINE
  8
0
 10
-11.859965899930282
 20
53.964073523699675
 11
-11.885952530831172
 21
53.286471938586445
  0
LINE
  8
0
 10
-11.885952530831172
 20
53.286471938586445
 11
-11.880224951674466
 21
52.73442251091168
  0
LINE
  8
0
 10
-11.880224951674466
 20
52.73442251091168
 11
-11.855067366991504
 21
52.309107331776644
  0
LINE
  8
0
 10
-11.855067366991504
 20
52.309107331776644
 11
-11.822789316486539
 21
52.010810616538926
  0
LINE
  8
0
 10
-11.822789316486539
 20
52.010810616538926
 11
-11.768310113984835
 21
51.66553688739995
  0
LINE
  8
0
 10
-11.768310113984835
 20
51.66553688739995
 11
-11.741006622336648
 21
51.25501809974951
  0
LINE
  8
0
 10
-11.741006622336648
 20
51.25501809974951
 11
-11.775655854029878
 21
50.96657297141211
  0
LINE
  8
0
 10
-11.775655854029878
 20
50.96657297141211
 11
-11.860206638720225
 21
50.80496891331959
  0
LINE
  8
0
 10
-11.860206638720225
 20
50.80496891331959
 11
-14.52217236390678
 21
50.10903987934209
  0
LINE
  8
0
 10
-14.52217236390678
 20
50.10903987934209
 11
-14.674996735961845
 21
50.2085859394821
  0
LINE
  8
0
 10
-14.674996735961845
 20
50.2085859394821
 11
-14.846382771875497
 21
50.4431663905269
  0
LINE
  8
0
 10
-14.846382771875497
 20
50.4431663905269
 11
-15.02348799968225
 21
50.81452187244908
  0
LINE
  8
0
 10
-15.02348799968225
 20
50.81452187244908
 11
-15.144962568805212
 21
51.14228071763199
  0
LINE
  8
0
 10
-15.144962568805212
 20
51.14228071763199
 11
-15.262806250347138
 21
51.41820764561563
  0
LINE
  8
0
 10
-15.262806250347138
 20
51.41820764561563
 11
-15.449024433127923
 21
51.8014160668062
  0
LINE
  8
0
 10
-15.449024433127923
 20
51.8014160668062
 11
-15.714212543892161
 21
52.28563362294019
  0
LINE
  8
0
 10
-15.714212543892161
 20
52.28563362294019
 11
-16.068504479448766
 21
52.863817363228584
  0
LINE
  8
0
 10
-16.068504479448766
 20
52.863817363228584
 11
-16.521523041792953
 21
53.52818443041994
  0
LINE
  8
0
 10
-16.521523041792953
 20
53.52818443041994
 11
-17.082332296461875
 21
54.27024572817228
  0
LINE
  8
0
 10
-17.082332296461875
 20
54.27024572817228
 11
-17.306717780829764
 21
54.538886929202995
  0
LINE
  8
0
 10
-17.306717780829764
 20
54.538886929202995
 11
-18.499684480879573
 21
54.22700456525001
  0
LINE
  8
0
 10
-18.499684480879573
 20
54.22700456525001
 11
-19.634527737520777
 21
53.74474847225731
  0
LINE
  8
0
 10
-19.634527737520777
 20
53.74474847225731
 11
-19.647941619858805
 21
53.394981395123274
  0
LINE
  8
0
 10
-19.647941619858805
 20
53.394981395123274
 11
-19.638291816172316
 21
52.46489060867672
  0
LINE
  8
0
 10
-19.638291816172316
 20
52.46489060867672
 11
-19.590810729481333
 21
51.66217337066272
  0
LINE
  8
0
 10
-19.590810729481333
 20
51.66217337066272
 11
-19.517860848370166
 21
50.98800905242909
  0
LINE
  8
0
 10
-19.517860848370166
 20
50.98800905242909
 11
-19.431815264599468
 21
50.44267655452292
  0
LINE
  8
0
 10
-19.431815264599468
 20
50.44267655452292
 11
-19.344999388299108
 21
50.02555677641123
  0
LINE
  8
0
 10
-19.344999388299108
 20
50.02555677641123
 11
-19.2696329630275
 21
49.73513862131792
  0
LINE
  8
0
 10
-19.2696329630275
 20
49.73513862131792
 11
-19.165462067183565
 21
49.40147658272524
  0
LINE
  8
0
 10
-19.165462067183565
 20
49.40147658272524
 11
-19.07867752393707
 21
48.999307962960266
  0
LINE
  8
0
 10
-19.07867752393707
 20
48.999307962960266
 11
-19.070959564008273
 21
48.70889171959043
  0
LINE
  8
0
 10
-19.070959564008273
 20
48.70889171959043
 11
-19.131079582538224
 21
48.53669912347874
  0
LINE
  8
0
 10
-19.131079582538224
 20
48.53669912347874
 11
-21.663349638786972
 21
47.460601031004465
  0
LINE
  8
0
 10
-21.663349638786972
 20
47.460601031004465
 11
-21.8290394403597
 21
47.536834858392396
  0
LINE
  8
0
 10
-21.8290394403597
 20
47.536834858392396
 11
-22.032754265971484
 21
47.74396146495114
  0
LINE
  8
0
 10
-22.032754265971484
 20
47.74396146495114
 11
-22.262041940366192
 21
48.08557282020855
  0
LINE
  8
0
 10
-22.262041940366192
 20
48.08557282020855
 11
-22.429944070311883
 21
48.3921520209038
  0
LINE
  8
0
 10
-22.429944070311883
 20
48.3921520209038
 11
-22.586707218038892
 21
48.64798031953507
  0
LINE
  8
0
 10
-22.586707218038892
 20
48.64798031953507
 11
-22.82673653579929
 21
48.999991444764106
  0
LINE
  8
0
 10
-22.82673653579929
 20
48.999991444764106
 11
-23.159601276087162
 21
49.440437174034095
  0
LINE
  8
0
 10
-23.159601276087162
 20
49.440437174034095
 11
-23.594301880643965
 21
49.96087410348115
  0
LINE
  8
0
 10
-23.594301880643965
 20
49.96087410348115
 11
-24.13922541170185
 21
50.55220122369148
  0
LINE
  8
0
 10
-24.13922541170185
 20
50.55220122369148
 11
-24.802103320047387
 21
51.20470016497157
  0
LINE
  8
0
 10
-24.802103320047387
 20
51.20470016497157
 11
-25.063212083470876
 21
51.43780776705628
  0
LINE
  8
0
 10
-25.063212083470876
 20
51.43780776705628
 11
-26.198055340112056
 21
50.95555167406359
  0
LINE
  8
0
 10
-26.198055340112056
 20
50.95555167406359
 11
-27.250587939587774
 21
50.31320030338435
  0
LINE
  8
0
 10
-27.250587939587774
 20
50.31320030338435
 11
-27.212932380253047
 21
49.96520748831847
  0
LINE
  8
0
 10
-27.212932380253047
 20
49.96520748831847
 11
-27.067963106366406
 21
49.04643335972498
  0
LINE
  8
0
 10
-27.067963106366406
 20
49.04643335972498
 11
-26.904111440923824
 21
48.25918368552379
  0
LINE
  8
0
 10
-26.904111440923824
 20
48.25918368552379
 11
-26.733779847864536
 21
47.60282527616238
  0
LINE
  8
0
 10
-26.733779847864536
 20
47.60282527616238
 11
-26.569250171709854
 21
47.07583252343853
  0
LINE
  8
0
 10
-26.569250171709854
 20
47.07583252343853
 11
-26.42262633347004
 21
46.67579833023803
  0
LINE
  8
0
 10
-26.42262633347004
 20
46.67579833023803
 11
-26.30577783793901
 21
46.399448494055434
  0
LINE
  8
0
 10
-26.30577783793901
 20
46.399448494055434
 11
-26.154135470541437
 21
46.084509573074214
  0
LINE
  8
0
 10
-26.154135470541437
 20
46.084509573074214
 11
-26.009719537564933
 21
45.69926264709986
  0
LINE
  8
0
 10
-26.009719537564933
 20
45.69926264709986
 11
-25.959798880930446
 21
45.41306500671879
  0
LINE
  8
0
 10
-25.959798880930446
 20
45.41306500671879
 11
-25.994206779482422
 21
45.233953858821835
  0
LINE
  8
0
 10
-25.994206779482422
 20
45.233953858821835
 11
-28.34281022694564
 21
43.80062187042393
  0
LINE
  8
0
 10
-28.34281022694564
 20
43.80062187042393
 11
-28.517834067577894
 21
43.8519186733824
  0
LINE
  8
0
 10
-28.517834067577894
 20
43.8519186733824
 11
-28.74953585505943
 21
44.02717689143919
  0
LINE
  8
0
 10
-28.74953585505943
 20
44.02717689143919
 11
-29.026119107340214
 21
44.33176326708313
  0
LINE
  8
0
 10
-29.026119107340214
 20
44.33176326708313
 11
-29.236870255712166
 21
44.61062861989547
  0
LINE
  8
0
 10
-29.236870255712166
 20
44.61062861989547
 11
-29.42921173529483
 21
44.84090575314538
  0
LINE
  8
0
 10
-29.42921173529483
 20
44.84090575314538
 11
-29.71793637985374
 21
45.154217076422846
  0
LINE
  8
0
 10
-29.71793637985374
 20
45.154217076422846
 11
-30.111383315629197
 21
45.54150364278939
  0
LINE
  8
0
 10
-30.111383315629197
 20
45.54150364278939
 11
-30.617227700505623
 21
45.99310155180062
  0
LINE
  8
0
 10
-30.617227700505623
 20
45.99310155180062
 11
-31.242442101281814
 21
46.49878561409535
  0
LINE
  8
0
 10
-31.242442101281814
 20
46.49878561409535
 11
-31.9932605715432
 21
47.047815316805995
  0
LINE
  8
0
 10
-31.9932605715432
 20
47.047815316805995
 11
-32.28552753405397
 21
47.24042103611612
  0
LINE
  8
0
 10
-32.28552753405397
 20
47.24042103611612
 11
-33.33806013352964
 21
46.59806966543683
  0
LINE
  8
0
 10
-33.33806013352964
 20
46.59806966543683
 11
-34.2858491708367
 21
45.809313621318516
  0
LINE
  8
0
 10
-34.2858491708367
 20
45.809313621318516
 11
-34.19792673270074
 21
45.47051193100615
  0
LINE
  8
0
 10
-34.19792673270074
 20
45.47051193100615
 11
-33.9207277569984
 21
44.582636535686774
  0
LINE
  8
0
 10
-33.9207277569984
 20
44.582636535686774
 11
-33.64399772658203
 21
43.8276332853203
  0
LINE
  8
0
 10
-33.64399772658203
 20
43.8276332853203
 11
-33.37991474375945
 21
43.203069924789865
  0
LINE
  8
0
 10
-33.37991474375945
 20
43.203069924789865
 11
-33.140407639619795
 21
42.70564885283406
  0
LINE
  8
0
 10
-33.140407639619795
 20
42.70564885283406
 11
-32.93710087199159
 21
42.33122627885338
  0
LINE
  8
0
 10
-32.93710087199159
 20
42.33122627885338
 11
-32.78126072901685
 21
42.07483467855487
  0
LINE
  8
0
 10
-32.78126072901685
 20
42.07483467855487
 11
-32.58537888385278
 21
41.785331251504566
  0
LINE
  8
0
 10
-32.58537888385278
 20
41.785331251504566
 11
-32.386409536029916
 21
41.42521688870142
  0
LINE
  8
0
 10
-32.386409536029916
 20
41.42521688870142
 11
-32.29535015481614
 21
41.149337657131746
  0
LINE
  8
0
 10
-32.29535015481614
 20
41.149337657131746
 11
-32.303312588769785
 21
40.9671254006031
  0
LINE
  8
0
 10
-32.303312588769785
 20
40.9671254006031
 11
-34.418193022493185
 21
39.20710849913463
  0
LINE
  8
0
 10
-34.418193022493185
 20
39.20710849913463
 11
-34.598820572889565
 21
39.23237497536752
  0
LINE
  8
0
 10
-34.598820572889565
 20
39.23237497536752
 11
-34.8535710009098
 21
39.37202948027906
  0
LINE
  8
0
 10
-34.8535710009098
 20
39.37202948027906
 11
-35.17155493924437
 21
39.633099146520415
  0
LINE
  8
0
 10
-35.17155493924437
 20
39.633099146520415
 11
-35.42066331121068
 21
39.87830712060677
  0
LINE
  8
0
 10
-35.42066331121068
 20
39.87830712060677
 11
-35.64448369794541
 21
40.0781251311758
  0
LINE
  8
0
 10
-35.64448369794541
 20
40.0781251311758
 11
-35.9757500047734
 21
40.34605896560155
  0
LINE
  8
0
 10
-35.9757500047734
 20
40.34605896560155
 11
-36.42139349768337
 21
40.6719320282902
  0
LINE
  8
0
 10
-36.42139349768337
 20
40.6719320282902
 11
-36.98760046803762
 21
41.04506589147685
  0
LINE
  8
0
 10
-36.98760046803762
 20
41.04506589147685
 11
-37.679780379045695
 21
41.45432911801167
  0
LINE
  8
0
 10
-37.679780379045695
 20
41.45432911801167
 11
-38.50253701906297
 21
41.88818796723762
  0
LINE
  8
0
 10
-38.50253701906297
 20
41.88818796723762
 11
-38.81973301777448
 21
42.036186747258526
  0
LINE
  8
0
 10
-38.81973301777448
 20
42.036186747258526
 11
-39.767522055081514
 21
41.247430703140196
  0
LINE
  8
0
 10
-39.767522055081514
 20
41.247430703140196
 11
-40.59036705239382
 21
40.32908095126416
  0
LINE
  8
0
 10
-40.59036705239382
 20
40.32908095126416
 11
-40.45405164957897
 21
40.00669135552372
  0
LINE
  8
0
 10
-40.45405164957897
 20
40.00669135552372
 11
-40.05053098696897
 21
39.16863821604465
  0
LINE
  8
0
 10
-40.05053098696897
 20
39.16863821604465
 11
-39.66682061173223
 21
38.4619729729954
  0
LINE
  8
0
 10
-39.66682061173223
 20
38.4619729729954
 11
-39.31461470943748
 21
37.88251614498981
  0
LINE
  8
0
 10
-39.31461470943748
 20
37.88251614498981
 11
-39.00523485541727
 21
37.42526842035309
  0
LINE
  8
0
 10
-39.00523485541727
 20
37.42526842035309
 11
-38.749578289181585
 21
37.08443763270278
  0
LINE
  8
0
 10
-38.749578289181585
 20
37.08443763270278
 11
-38.558067960848746
 21
36.8534688101144
  0
LINE
  8
0
 10
-38.558067960848746
 20
36.8534688101144
 11
-38.32212151936754
 21
36.59557113992114
  0
LINE
  8
0
 10
-38.32212151936754
 20
36.59557113992114
 11
-38.07283944290648
 21
36.26826455271974
  0
LINE
  8
0
 10
-38.07283944290648
 20
36.26826455271974
 11
-37.94258210973123
 21
36.00858361681458
  0
LINE
  8
0
 10
-37.94258210973123
 20
36.00858361681458
 11
-37.923929373630806
 21
35.8271537895543
  0
LINE
  8
0
 10
-37.923929373630806
 20
35.8271537895543
 11
-39.76001178891971
 21
33.77796367961631
  0
LINE
  8
0
 10
-39.76001178891971
 20
33.77796367961631
 11
-39.94239328644008
 21
33.77666131804913
  0
LINE
  8
0
 10
-39.94239328644008
 20
33.77666131804913
 11
-40.214762791910765
 21
33.87773561650444
  0
LINE
  8
0
 10
-40.214762791910765
 20
33.87773561650444
 11
-40.5673701407214
 21
34.089724326663415
  0
LINE
  8
0
 10
-40.5673701407214
 20
34.089724326663415
 11
-40.84952642382317
 21
34.29604873977402
  0
LINE
  8
0
 10
-40.84952642382317
 20
34.29604873977402
 11
-41.100055374752515
 21
34.46114885368098
  0
LINE
  8
0
 10
-41.100055374752515
 20
34.46114885368098
 11
-41.46680297764763
 21
34.6779946547476
  0
LINE
  8
0
 10
-41.46680297764763
 20
34.6779946547476
 11
-41.95514491034479
 21
34.93550879519176
  0
LINE
  8
0
 10
-41.95514491034479
 20
34.93550879519176
 11
-42.56964674762411
 21
35.22222591207643
  0
LINE
  8
0
 10
-42.56964674762411
 20
35.22222591207643
 11
-43.314039555789236
 21
35.52634556772019
  0
LINE
  8
0
 10
-43.314039555789236
 20
35.52634556772019
 11
-44.19119873620955
 21
35.83578661533434
  0
LINE
  8
0
 10
-44.19119873620955
 20
35.83578661533434
 11
-44.52656328910911
 21
35.93602411901793
  0
LINE
  8
0
 10
-44.52656328910911
 20
35.93602411901793
 11
-45.34940828642144
 21
35.01767436714197
  0
LINE
  8
0
 10
-45.34940828642144
 20
35.01767436714197
 11
-46.029771731203894
 21
33.98930393807647
  0
LINE
  8
0
 10
-46.029771731203894
 20
33.98930393807647
 11
-45.847968689857105
 21
33.69019761142435
  0
LINE
  8
0
 10
-45.847968689857105
 20
33.69019761142435
 11
-45.32672668269049
 21
32.91982837546742
  0
LINE
  8
0
 10
-45.32672668269049
 20
32.91982837546742
 11
-44.84421408310269
 21
32.27656248251396
  0
LINE
  8
0
 10
-44.84421408310269
 20
32.27656248251396
 11
-44.41139191866083
 21
31.75456230329807
  0
LINE
  8
0
 10
-44.41139191866083
 20
31.75456230329807
 11
-44.03873320921862
 21
31.347233367380316
  0
LINE
  8
0
 10
-44.03873320921862
 20
31.347233367380316
 11
-43.73617572022657
 21
31.047258582565714
  0
LINE
  8
0
 10
-43.73617572022657
 20
31.047258582565714
 11
-43.51307691669333
 21
30.84663523714436
  0
LINE
  8
0
 10
-43.51307691669333
 20
30.84663523714436
 11
-43.24209466765671
 21
30.625839964899214
  0
LINE
  8
0
 10
-43.24209466765671
 20
30.625839964899214
 11
-42.94781287722608
 21
30.33831712495235
  0
LINE
  8
0
 10
-42.94781287722608
 20
30.33831712495235
 11
-42.781133800999676
 21
30.100369133015406
  0
LINE
  8
0
 10
-42.781133800999676
 20
30.100369133015406
 11
-42.736263445531215
 21
29.92358859680211
  0
LINE
  8
0
 10
-42.736263445531215
 20
29.92358859680211
 11
-44.25441493341863
 21
27.628900207886087
  0
LINE
  8
0
 10
-44.25441493341863
 20
27.628900207886087
 11
-44.43466323308502
 21
27.60105676609453
  0
LINE
  8
0
 10
-44.43466323308502
 20
27.60105676609453
 11
-44.718846732871434
 21
27.661396634902196
  0
LINE
  8
0
 10
-44.718846732871434
 20
27.661396634902196
 11
-45.09856227869757
 21
27.819786217666
  0
LINE
  8
0
 10
-45.09856227869757
 20
27.819786217666
 11
-45.40775280162617
 21
27.982829623145584
  0
LINE
  8
0
 10
-45.40775280162617
 20
27.982829623145584
 11
-45.679650727116965
 21
28.109693018101144
  0
LINE
  8
0
 10
-45.679650727116965
 20
28.109693018101144
 11
-46.07406303765242
 21
28.270829094035797
  0
LINE
  8
0
 10
-46.07406303765242
 20
28.270829094035797
 11
-46.594695249676285
 21
28.454495845415103
  0
LINE
  8
0
 10
-46.594695249676285
 20
28.454495845415103
 11
-47.24439491408658
 21
28.648685338435406
  0
LINE
  8
0
 10
-47.24439491408658
 20
28.648685338435406
 11
-48.02513517908044
 21
28.841179640725457
  0
LINE
  8
0
 10
-48.02513517908044
 20
28.841179640725457
 11
-48.93800177485325
 21
29.019607688034053
  0
LINE
  8
0
 10
-48.93800177485325
 20
29.019607688034053
 11
-49.28438716873907
 21
29.069947527016716
  0
LINE
  8
0
 10
-49.28438716873907
 20
29.069947527016716
 11
-49.96475061352154
 21
28.041577097951205
  0
LINE
  8
0
 10
-49.96475061352154
 20
28.041577097951205
 11
-50.488131740161705
 21
26.925103921986164
  0
LINE
  8
0
 10
-50.488131740161705
 20
26.925103921986164
 11
-50.26471587647189
 21
26.655655796481444
  0
LINE
  8
0
 10
-50.26471587647189
 20
26.655655796481444
 11
-49.636861893176984
 21
25.96938954683436
  0
LINE
  8
0
 10
-49.636861893176984
 20
25.96938954683436
 11
-49.06583098758399
 21
25.403233099678783
  0
LINE
  8
0
 10
-49.06583098758399
 20
25.403233099678783
 11
-48.56161741398581
 21
24.94981509680185
  0
LINE
  8
0
 10
-48.56161741398581
 20
24.94981509680185
 11
-48.13362242252184
 21
24.601086458687938
  0
LINE
  8
0
 10
-48.13362242252184
 20
24.601086458687938
 11
-47.79061249836603
 21
24.348361118446068
  0
LINE
  8
0
 10
-47.79061249836603
 20
24.348361118446068
 11
-47.540680183296686
 21
24.182359188487126
  0
LINE
  8
0
 10
-47.540680183296686
 20
24.182359188487126
 11
-47.24043764287696
 21
24.003372182084245
  0
LINE
  8
0
 10
-47.24043764287696
 20
24.003372182084245
 11
-46.907428243922396
 21
23.761761139542546
  0
LINE
  8
0
 10
-46.907428243922396
 20
23.761761139542546
 11
-46.7078798997747
 21
23.55061753990849
  0
LINE
  8
0
 10
-46.7078798997747
 20
23.55061753990849
 11
-46.63774825866333
 21
23.382254064954
  0
LINE
  8
0
 10
-46.63774825866333
 20
23.382254064954
 11
-47.80561205592398
 21
20.890974696145925
  0
LINE
  8
0
 10
-47.80561205592398
 20
20.890974696145925
 11
-47.97988547816713
 21
20.837183608751392
  0
LINE
  8
0
 10
-47.97988547816713
 20
20.837183608751392
 11
-48.26982609435656
 21
20.855503008366856
  0
LINE
  8
0
 10
-48.26982609435656
 20
20.855503008366856
 11
-48.66855685958213
 21
20.95691766476699
  0
LINE
  8
0
 10
-48.66855685958213
 20
20.95691766476699
 11
-48.99819176314254
 21
21.073205075495597
  0
LINE
  8
0
 10
-48.99819176314254
 20
21.073205075495597
 11
-49.2856636309686
 21
21.159127878490185
  0
LINE
  8
0
 10
-49.2856636309686
 20
21.159127878490185
 11
-49.699334435504355
 21
21.26111989359076
  0
LINE
  8
0
 10
-49.699334435504355
 20
21.26111989359076
 11
-50.24116055515136
 21
21.367024717972644
  0
LINE
  8
0
 10
-50.24116055515136
 20
21.367024717972644
 11
-50.91221082632193
 21
21.464547775226965
  0
LINE
  8
0
 10
-50.91221082632193
 20
21.464547775226965
 11
-51.71265842487858
 21
21.541314042309033
  0
LINE
  8
0
 10
-51.71265842487858
 20
21.541314042309033
 11
-52.64177626938852
 21
21.58492620526158
  0
LINE
  8
0
 10
-52.64177626938852
 20
21.58492620526158
 11
-52.991799900966996
 21
21.584295473272906
  0
LINE
  8
0
 10
-52.991799900966996
 20
21.584295473272906
 11
-53.51518102760715
 21
20.467822297307883
  0
LINE
  8
0
 10
-53.51518102760715
 20
20.467822297307883
 11
-53.87042487605902
 21
19.28704206182386
  0
LINE
  8
0
 10
-53.87042487605902
 20
19.28704206182386
 11
-53.610157911277206
 21
19.05299495645925
  0
LINE
  8
0
 10
-53.610157911277206
 20
19.05299495645925
 11
-52.88907356945912
 21
18.465458266771943
  0
LINE
  8
0
 10
-52.88907356945912
 20
18.465458266771943
 11
-52.24169489021821
 21
17.98847790715272
  0
LINE
  8
0
 10
-52.24169489021821
 20
17.98847790715272
 11
-51.676836344394445
 21
17.613305898144304
  0
LINE
  8
0
 10
-51.676836344394445
 20
17.613305898144304
 11
-51.20262704108818
 21
17.330610103310327
  0
LINE
  8
0
 10
-51.20262704108818
 20
17.330610103310327
 11
-50.82647534278524
 21
17.130520609499282
  0
LINE
  8
0
 10
-50.82647534278524
 20
17.130520609499282
 11
-50.55503638955543
 21
17.00267813793555
  0
LINE
  8
0
 10
-50.55503638955543
 20
17.00267813793555
 11
-50.231932706235504
 21
16.86931419466808
  0
LINE
  8
0
 10
-50.231932706235504
 20
16.86931419466808
 11
-49.86729321594138
 21
16.67876446943025
  0
LINE
  8
0
 10
-49.86729321594138
 20
16.67876446943025
 11
-49.639128630382004
 21
16.498925421348286
  0
LINE
  8
0
 10
-49.639128630382004
 20
16.498925421348286
 11
-49.54523043779895
 21
16.34256738281697
  0
LINE
  8
0
 10
-49.54523043779895
 20
16.34256738281697
 11
-50.337915555181205
 21
13.707794328627765
  0
LINE
  8
0
 10
-50.337915555181205
 20
13.707794328627765
 11
-50.50249976457083
 21
13.629202059268655
  0
LINE
  8
0
 10
-50.50249976457083
 20
13.629202059268655
 11
-50.792017916309675
 21
13.605110543494344
  0
LINE
  8
0
 10
-50.792017916309675
 20
13.605110543494344
 11
-51.20126564693042
 21
13.647388796200715
  0
LINE
  8
0
 10
-51.20126564693042
 20
13.647388796200715
 11
-51.54431933544895
 21
13.71444174791108
  0
LINE
  8
0
 10
-51.54431933544895
 20
13.71444174791108
 11
-51.8412381818419
 21
13.757592663573764
  0
LINE
  8
0
 10
-51.8412381818419
 20
13.757592663573764
 11
-52.265350805373934
 21
13.798266835111846
  0
LINE
  8
0
 10
-52.265350805373934
 20
13.798266835111846
 11
-52.81682274959534
 21
13.824152555031295
  0
LINE
  8
0
 10
-52.81682274959534
 20
13.824152555031295
 11
-53.49492135604027
 21
13.822930641868943
  0
LINE
  8
0
 10
-53.49492135604027
 20
13.822930641868943
 11
-54.29801613729375
 21
13.782332734037933
  0
LINE
  8
0
 10
-54.29801613729375
 20
13.782332734037933
 11
-55.22358269677324
 21
13.690199495098375
  0
LINE
  8
0
 10
-55.22358269677324
 20
13.690199495098375
 11
-55.56978442003094
 21
13.638611635095693
  0
LINE
  8
0
 10
-55.56978442003094
 20
13.638611635095693
 11
-55.92502826848275
 21
12.45783139961167
  0
LINE
  8
0
 10
-55.92502826848275
 20
12.45783139961167
 11
-56.104563432873114
 21
11.237910385316095
  0
LINE
  8
0
 10
-56.104563432873114
 20
11.237910385316095
 11
-55.81299250549113
 21
11.044252607801525
  0
LINE
  8
0
 10
-55.81299250549113
 20
11.044252607801525
 11
-55.01404646598496
 21
10.567967802562722
  0
LINE
  8
0
 10
-55.01404646598496
 20
10.567967802562722
 11
-54.304117765697534
 21
10.190329538735584
  0
LINE
  8
0
 10
-54.304117765697534
 20
10.190329538735584
 11
-53.690653226873124
 21
9.901399663612729
  0
LINE
  8
0
 10
-53.690653226873124
 20
9.901399663612729
 11
-53.18033655972595
 21
9.690761882123208
  0
LINE
  8
0
 10
-53.18033655972595
 20
9.690761882123208
 11
-52.779060107669345
 21
9.547572794918159
  0
LINE
  8
0
 10
-52.779060107669345
 20
9.547572794918159
 11
-52.491899766308386
 21
9.460614522077275
  0
LINE
  8
0
 10
-52.491899766308386
 20
9.460614522077275
 11
-52.152821334141684
 21
9.375716062856117
  0
LINE
  8
0
 10
-52.152821334141684
 20
9.375716062856117
 11
-51.7643234101747
 21
9.240288891492659
  0
LINE
  8
0
 10
-51.7643234101747
 20
9.240288891492659
 11
-51.512405515216834
 21
9.095587352045044
  0
LINE
  8
0
 10
-51.512405515216834
 20
9.095587352045044
 11
-51.39674204811563
 21
8.954567250067154
  0
LINE
  8
0
 10
-51.39674204811563
 20
8.954567250067154
 11
-51.79735377856293
 21
6.232456123785047
  0
LINE
  8
0
 10
-51.79735377856293
 20
6.232456123785047
 11
-51.948740948418816
 21
6.1307377302347685
  0
LINE
  8
0
 10
-51.948740948418816
 20
6.1307377302347685
 11
-52.231666058949756
 21
6.0647487679029215
  0
LINE
  8
0
 10
-52.231666058949756
 20
6.0647487679029215
 11
-52.64270835010303
 21
6.046989529360492
  0
LINE
  8
0
 10
-52.64270835010303
 20
6.046989529360492
 11
-52.991869229801644
 21
6.063378904800903
  0
LINE
  8
0
 10
-52.991869229801644
 20
6.063378904800903
 11
-53.29190674504634
 21
6.062838246280803
  0
LINE
  8
0
 10
-53.29190674504634
 20
6.062838246280803
 11
-53.7174219633273
 21
6.041327674906533
  0
LINE
  8
0
 10
-53.7174219633273
 20
6.041327674906533
 11
-54.266786065070164
 21
5.9866425811849595
  0
LINE
  8
0
 10
-54.266786065070164
 20
5.9866425811849595
 11
-54.93748051227412
 21
5.88670174056356
  0
LINE
  8
0
 10
-54.93748051227412
 20
5.88670174056356
 11
-55.726105905255196
 21
5.729604931740833
  0
LINE
  8
0
 10
-55.726105905255196
 20
5.729604931740833
 11
-56.628394335411514
 21
5.503689950940018
  0
LINE
  8
0
 10
-56.628394335411514
 20
5.503689950940018
 11
-56.96339546167532
 21
5.4022444685949775
  0
LINE
  8
0
 10
-56.96339546167532
 20
5.4022444685949775
 11
-57.142930626065706
 21
4.182323454299405
  0
LINE
  8
0
 10
-57.142930626065706
 20
4.182323454299405
 11
-57.14293062606572
 21
2.9492621596458912
  0
LINE
  8
0
 10
-57.14293062606572
 20
2.9492621596458912
 11
-56.82627006418976
 21
2.8001211892900804
  0
LINE
  8
0
 10
-56.82627006418976
 20
2.8001211892900804
 11
-55.96649047473724
 21
2.4452394522214806
  0
LINE
  8
0
 10
-55.96649047473724
 20
2.4452394522214806
 11
-55.20914265110704
 21
2.174991988143148
  0
LINE
  8
0
 10
-55.20914265110704
 20
2.174991988143148
 11
-54.56014705086044
 21
1.9784622855684322
  0
LINE
  8
0
 10
-54.56014705086044
 20
1.9784622855684322
 11
-54.0245995336462
 21
1.844371896036985
  0
LINE
  8
0
 10
-54.0245995336462
 20
1.844371896036985
 11
-53.60675083873533
 21
1.7611350422339418
  0
LINE
  8
0
 10
-53.60675083873533
 20
1.7611350422339418
 11
-53.30998943336582
 21
1.7169143327288874
  0
LINE
  8
0
 10
-53.30998943336582
 20
1.7169143327288874
 11
-52.96216312044289
 21
1.6822908208158653
  0
LINE
  8
0
 10
-52.96216312044289
 20
1.6822908208158653
 11
-52.55808692156164
 21
1.6048725983624754
  0
LINE
  8
0
 10
-52.55808692156164
 20
1.6048725983624754
 11
-52.28778490976901
 21
1.4983926296389276
  0
LINE
  8
0
 10
-52.28778490976901
 20
1.4983926296389276
 11
-52.15282133414176
 21
1.37571606285604
  0
LINE
  8
0
 10
-52.15282133414176
 20
1.37571606285604
 11
-52.15282133414177
 21
-1.3757160628560987
  0
LINE
  8
0
 10
-52.15282133414177
 20
-1.3757160628560987
 11
-52.2877849097693
 21
-1.498392629637435
  0
LINE
  8
0
 10
-52.2877849097693
 20
-1.498392629637435
 11
-52.558086921561866
 21
-1.604872598361467
  0
LINE
  8
0
 10
-52.558086921561866
 20
-1.604872598361467
 11
-52.96216312044289
 21
-1.6822908208158707
  0
LINE
  8
0
 10
-52.96216312044289
 20
-1.6822908208158707
 11
-53.30998943336656
 21
-1.7169143327285086
  0
LINE
  8
0
 10
-53.30998943336656
 20
-1.7169143327285086
 11
-53.60675083873577
 21
-1.7611350422337002
  0
LINE
  8
0
 10
-53.60675083873577
 20
-1.7611350422337002
 11
-54.024599533646324
 21
-1.8443718960370628
  0
LINE
  8
0
 10
-54.024599533646324
 20
-1.8443718960370628
 11
-54.56014705086061
 21
-1.9784622855685214
  0
LINE
  8
0
 10
-54.56014705086061
 20
-1.9784622855685214
 11
-55.209142651107754
 21
-2.174991988143434
  0
LINE
  8
0
 10
-55.209142651107754
 20
-2.174991988143434
 11
-55.96649047473717
 21
-2.4452394522214833
  0
LINE
  8
0
 10
-55.96649047473717
 20
-2.4452394522214833
 11
-56.8262700641898
 21
-2.8001211892901314
  0
LINE
  8
0
 10
-56.8262700641898
 20
-2.8001211892901314
 11
-57.14293062606569
 21
-2.9492621596459263
  0
LINE
  8
0
 10
-57.14293062606569
 20
-2.9492621596459263
 11
-57.142930626065684
 21
-4.182323454299448
  0
LINE
  8
0
 10
-57.142930626065684
 20
-4.182323454299448
 11
-56.96339546167535
 21
-5.40224446859502
  0
LINE
  8
0
 10
-56.96339546167535
 20
-5.40224446859502
 11
-56.62839433541147
 21
-5.503689950940063
  0
LINE
  8
0
 10
-56.62839433541147
 20
-5.503689950940063
 11
-55.726105905255274
 21
-5.729604931740846
  0
LINE
  8
0
 10
-55.726105905255274
 20
-5.729604931740846
 11
-54.93748051227338
 21
-5.886701740563739
  0
LINE
  8
0
 10
-54.93748051227338
 20
-5.886701740563739
 11
-54.26678606506999
 21
-5.986642581185024
  0
LINE
  8
0
 10
-54.26678606506999
 20
-5.986642581185024
 11
-53.717421963327176
 21
-6.0413276749065945
  0
LINE
  8
0
 10
-53.717421963327176
 20
-6.0413276749065945
 11
-53.29190674504595
 21
-6.062838246280501
  0
LINE
  8
0
 10
-53.29190674504595
 20
-6.062838246280501
 11
-52.99186922980097
 21
-6.0633789048004205
  0
LINE
  8
0
 10
-52.99186922980097
 20
-6.0633789048004205
 11
-52.64270835010303
 21
-6.0469895293604985
  0
LINE
  8
0
 10
-52.64270835010303
 20
-6.0469895293604985
 11
-52.23166605894968
 21
-6.064748767901891
  0
LINE
  8
0
 10
-52.23166605894968
 20
-6.064748767901891
 11
-51.948740948418745
 21
-6.130737730233251
  0
LINE
  8
0
 10
-51.948740948418745
 20
-6.130737730233251
 11
-51.797353778562915
 21
-6.232456123785105
  0
LINE
  8
0
 10
-51.797353778562915
 20
-6.232456123785105
 11
-51.39674204811563
 21
-8.954567250067212
  0
LINE
  8
0
 10
-51.39674204811563
 20
-8.954567250067212
 11
-51.512405515217345
 21
-9.095587352043612
  0
LINE
  8
0
 10
-51.512405515217345
 20
-9.095587352043612
 11
-51.76432341017507
 21
-9.240288891491696
  0
LINE
  8
0
 10
-51.76432341017507
 20
-9.240288891491696
 11
-52.152821334141684
 21
-9.375716062856123
  0
LINE
  8
0
 10
-52.152821334141684
 20
-9.375716062856123
 11
-52.491899766309174
 21
-9.460614522077009
  0
LINE
  8
0
 10
-52.491899766309174
 20
-9.460614522077009
 11
-52.779060107669814
 21
-9.547572794917984
  0
LINE
  8
0
 10
-52.779060107669814
 20
-9.547572794917984
 11
-53.180336559726065
 21
-9.690761882123304
  0
LINE
  8
0
 10
-53.180336559726065
 20
-9.690761882123304
 11
-53.69065322687329
 21
-9.901399663612843
  0
LINE
  8
0
 10
-53.69065322687329
 20
-9.901399663612843
 11
-54.304117765698194
 21
-10.190329538735972
  0
LINE
  8
0
 10
-54.304117765698194
 20
-10.190329538735972
 11
-55.01404646598489
 21
-10.567967802562714
  0
LINE
  8
0
 10
-55.01404646598489
 20
-10.567967802562714
 11
-55.81299250549117
 21
-11.044252607801582
  0
LINE
  8
0
 10
-55.81299250549117
 20
-11.044252607801582
 11
-56.10456343287313
 21
-11.237910385316134
  0
LINE
  8
0
 10
-56.10456343287313
 20
-11.237910385316134
 11
-55.92502826848274
 21
-12.457831399611681
  0
LINE
  8
0
 10
-55.92502826848274
 20
-12.457831399611681
 11
-55.56978442003092
 21
-13.638611635095721
  0
LINE
  8
0
 10
-55.56978442003092
 20
-13.638611635095721
 11
-55.22358269677319
 21
-13.690199495098412
  0
LINE
  8
0
 10
-55.22358269677319
 20
-13.690199495098412
 11
-54.29801613729383
 21
-13.782332734037958
  0
LINE
  8
0
 10
-54.29801613729383
 20
-13.782332734037958
 11
-53.49492135603951
 21
-13.822930641869009
  0
LINE
  8
0
 10
-53.49492135603951
 20
-13.822930641869009
 11
-52.81682274959516
 21
-13.824152555031333
  0
LINE
  8
0
 10
-52.81682274959516
 20
-13.824152555031333
 11
-52.2653508053738
 21
-13.798266835111885
  0
LINE
  8
0
 10
-52.2653508053738
 20
-13.798266835111885
 11
-51.84123818184156
 21
-13.757592663573408
  0
LINE
  8
0
 10
-51.84123818184156
 20
-13.757592663573408
 11
-51.54431933544836
 21
-13.714441747910502
  0
LINE
  8
0
 10
-51.54431933544836
 20
-13.714441747910502
 11
-51.20126564693042
 21
-13.647388796200723
  0
LINE
  8
0
 10
-51.20126564693042
 20
-13.647388796200723
 11
-50.792017916309746
 21
-13.605110543493314
  0
LINE
  8
0
 10
-50.792017916309746
 20
-13.605110543493314
 11
-50.502499764570985
 21
-13.629202059267143
  0
LINE
  8
0
 10
-50.502499764570985
 20
-13.629202059267143
 11
-50.33791555518118
 21
-13.70779432862782
  0
LINE
  8
0
 10
-50.33791555518118
 20
-13.70779432862782
 11
-49.54523043779894
 21
-16.342567382817027
  0
LINE
  8
0
 10
-49.54523043779894
 20
-16.342567382817027
 11
-49.63912863038273
 21
-16.49892542134694
  0
LINE
  8
0
 10
-49.63912863038273
 20
-16.49892542134694
 11
-49.867293215941906
 21
-16.678764469429353
  0
LINE
  8
0
 10
-49.867293215941906
 20
-16.678764469429353
 11
-50.23193270623551
 21
-16.869314194668082
  0
LINE
  8
0
 10
-50.23193270623551
 20
-16.869314194668082
 11
-50.55503638955625
 21
-17.0026781379354
  0
LINE
  8
0
 10
-50.55503638955625
 20
-17.0026781379354
 11
-50.82647534278573
 21
-17.13052060949918
  0
LINE
  8
0
 10
-50.82647534278573
 20
-17.13052060949918
 11
-51.20262704108828
 21
-17.330610103310438
  0
LINE
  8
0
 10
-51.20262704108828
 20
-17.330610103310438
 11
-51.676836344394594
 21
-17.61330589814444
  0
LINE
  8
0
 10
-51.676836344394594
 20
-17.61330589814444
 11
-52.24169489021882
 21
-17.9884779071532
  0
LINE
  8
0
 10
-52.24169489021882
 20
-17.9884779071532
 11
-52.88907356945905
 21
-18.465458266771922
  0
LINE
  8
0
 10
-52.88907356945905
 20
-18.465458266771922
 11
-53.610157911277234
 21
-19.052994956459315
  0
LINE
  8
0
 10
-53.610157911277234
 20
-19.052994956459315
 11
-53.87042487605896
 21
-19.28704206182388
  0
LINE
  8
0
 10
-53.87042487605896
 20
-19.28704206182388
 11
-53.51518102760714
 21
-20.467822297307922
  0
LINE
  8
0
 10
-53.51518102760714
 20
-20.467822297307922
 11
-52.991799900967
 21
-21.584295473272974
  0
LINE
  8
0
 10
-52.991799900967
 20
-21.584295473272974
 11
-52.64177626938846
 21
-21.584926205261638
  0
LINE
  8
0
 10
-52.64177626938846
 20
-21.584926205261638
 11
-51.71265842487865
 21
-21.54131404230909
  0
LINE
  8
0
 10
-51.71265842487865
 20
-21.54131404230909
 11
-50.91221082632116
 21
-21.46454777522695
  0
LINE
  8
0
 10
-50.91221082632116
 20
-21.46454777522695
 11
-50.24116055515116
 21
-21.36702471797268
  0
LINE
  8
0
 10
-50.24116055515116
 20
-21.36702471797268
 11
-49.699334435504205
 21
-21.261119893590802
  0
LINE
  8
0
 10
-49.699334435504205
 20
-21.261119893590802
 11
-49.2856636309683
 21
-21.159127878489805
  0
LINE
  8
0
 10
-49.2856636309683
 20
-21.159127878489805
 11
-48.99819176314203
 21
-21.073205075494965
  0
LINE
  8
0
 10
-48.99819176314203
 20
-21.073205075494965
 11
-48.668556859582125
 21
-20.95691766476702
  0
LINE
  8
0
 10
-48.668556859582125
 20
-20.95691766476702
 11
-48.269826094356766
 21
-20.85550300836587
  0
LINE
  8
0
 10
-48.269826094356766
 20
-20.85550300836587
 11
-47.97988547816748
 21
-20.83718360874994
  0
LINE
  8
0
 10
-47.97988547816748
 20
-20.83718360874994
 11
-47.805612055923945
 21
-20.890974696146
  0
LINE
  8
0
 10
-47.805612055923945
 20
-20.890974696146
 11
-46.63774825866331
 21
-23.382254064954083
  0
LINE
  8
0
 10
-46.63774825866331
 20
-23.382254064954083
 11
-46.7078798997756
 21
-23.55061753990729
  0
LINE
  8
0
 10
-46.7078798997756
 20
-23.55061753990729
 11
-46.90742824392303
 21
-23.761761139541754
  0
LINE
  8
0
 10
-46.90742824392303
 20
-23.761761139541754
 11
-47.24043764287695
 21
-24.00337218208427
  0
LINE
  8
0
 10
-47.24043764287695
 20
-24.00337218208427
 11
-47.5406801832975
 21
-24.182359188487123
  0
LINE
  8
0
 10
-47.5406801832975
 20
-24.182359188487123
 11
-47.79061249836652
 21
-24.348361118446054
  0
LINE
  8
0
 10
-47.79061249836652
 20
-24.348361118446054
 11
-48.13362242252191
 21
-24.601086458688087
  0
LINE
  8
0
 10
-48.13362242252191
 20
-24.601086458688087
 11
-48.56161741398593
 21
-24.94981509680203
  0
LINE
  8
0
 10
-48.56161741398593
 20
-24.94981509680203
 11
-49.065830987584505
 21
-25.403233099679365
  0
LINE
  8
0
 10
-49.065830987584505
 20
-25.403233099679365
 11
-49.636861893176906
 21
-25.969389546834353
  0
LINE
  8
0
 10
-49.636861893176906
 20
-25.969389546834353
 11
-50.2647158764719
 21
-26.655655796481533
  0
LINE
  8
0
 10
-50.2647158764719
 20
-26.655655796481533
 11
-50.488131740161705
 21
-26.925103921986235
  0
LINE
  8
0
 10
-50.488131740161705
 20
-26.925103921986235
 11
-49.96475061352156
 21
-28.041577097951244
  0
LINE
  8
0
 10
-49.96475061352156
 20
-28.041577097951244
 11
-49.28438716873906
 21
-29.06994752701672
  0
LINE
  8
0
 10
-49.28438716873906
 20
-29.06994752701672
 11
-48.9380017748532
 21
-29.019607688034053
  0
LINE
  8
0
 10
-48.9380017748532
 20
-29.019607688034053
 11
-48.02513517908052
 21
-28.841179640725485
  0
LINE
  8
0
 10
-48.02513517908052
 20
-28.841179640725485
 11
-47.24439491408584
 21
-28.648685338435236
  0
LINE
  8
0
 10
-47.24439491408584
 20
-28.648685338435236
 11
-46.5946952496761
 21
-28.454495845415067
  0
LINE
  8
0
 10
-46.5946952496761
 20
-28.454495845415067
 11
-46.07406303765229
 21
-28.270829094035776
  0
LINE
  8
0
 10
-46.07406303765229
 20
-28.270829094035776
 11
-45.679650727116744
 21
-28.109693018100682
  0
LINE
  8
0
 10
-45.679650727116744
 20
-28.109693018100682
 11
-45.407752801625776
 21
-27.98282962314485
  0
LINE
  8
0
 10
-45.407752801625776
 20
-27.98282962314485
 11
-45.09856227869758
 21
-27.81978621766599
  0
LINE
  8
0
 10
-45.09856227869758
 20
-27.81978621766599
 11
-44.718846732871796
 21
-27.66139663490121
  0
LINE
  8
0
 10
-44.718846732871796
 20
-27.66139663490121
 11
-44.434663233085615
 21
-27.601056766093105
  0
LINE
  8
0
 10
-44.434663233085615
 20
-27.601056766093105
 11
-44.2544149334186
 21
-27.62890020788611
  0
LINE
  8
0
 10
-44.2544149334186
 20
-27.62890020788611
 11
-42.7362634455312
 21
-29.923588596802148
  0
LINE
  8
0
 10
-42.7362634455312
 20
-29.923588596802148
 11
-42.781133801000756
 21
-30.100369133014308
  0
LINE
  8
0
 10
-42.781133801000756
 20
-30.100369133014308
 11
-42.94781287722684
 21
-30.338317124951622
  0
LINE
  8
0
 10
-42.94781287722684
 20
-30.338317124951622
 11
-43.242094667656716
 21
-30.625839964899196
  0
LINE
  8
0
 10
-43.242094667656716
 20
-30.625839964899196
 11
-43.51307691669417
 21
-30.846635237144433
  0
LINE
  8
0
 10
-43.51307691669417
 20
-30.846635237144433
 11
-43.736175720227074
 21
-31.047258582565735
  0
LINE
  8
0
 10
-43.736175720227074
 20
-31.047258582565735
 11
-44.038733209218684
 21
-31.347233367380436
  0
LINE
  8
0
 10
-44.038733209218684
 20
-31.347233367380436
 11
-44.41139191866095
 21
-31.75456230329822
  0
LINE
  8
0
 10
-44.41139191866095
 20
-31.75456230329822
 11
-44.84421408310314
 21
-32.27656248251457
  0
LINE
  8
0
 10
-44.84421408310314
 20
-32.27656248251457
 11
-45.32672668269044
 21
-32.91982837546735
  0
LINE
  8
0
 10
-45.32672668269044
 20
-32.91982837546735
 11
-45.847968689857126
 21
-33.69019761142439
  0
LINE
  8
0
 10
-45.847968689857126
 20
-33.69019761142439
 11
-46.02977173120388
 21
-33.98930393807647
  0
LINE
  8
0
 10
-46.02977173120388
 20
-33.98930393807647
 11
-45.34940828642143
 21
-35.017674367141964
  0
LINE
  8
0
 10
-45.34940828642143
 20
-35.017674367141964
 11
-44.5265632891091
 21
-35.93602411901795
  0
LINE
  8
0
 10
-44.5265632891091
 20
-35.93602411901795
 11
-44.19119873620949
 21
-35.83578661533434
  0
LINE
  8
0
 10
-44.19119873620949
 20
-35.83578661533434
 11
-43.3140395557893
 21
-35.526345567720234
  0
LINE
  8
0
 10
-43.3140395557893
 20
-35.526345567720234
 11
-42.5696467476234
 21
-35.22222591207616
  0
LINE
  8
0
 10
-42.5696467476234
 20
-35.22222591207616
 11
-41.95514491034461
 21
-34.935508795191694
  0
LINE
  8
0
 10
-41.95514491034461
 20
-34.935508795191694
 11
-41.46680297764749
 21
-34.67799465474757
  0
LINE
  8
0
 10
-41.46680297764749
 20
-34.67799465474757
 11
-41.10005537475236
 21
-34.461148853680506
  0
LINE
  8
0
 10
-41.10005537475236
 20
-34.461148853680506
 11
-40.84952642382288
 21
-34.29604873977324
  0
LINE
  8
0
 10
-40.84952642382288
 20
-34.29604873977324
 11
-40.56737014072141
 21
-34.08972432666341
  0
LINE
  8
0
 10
-40.56737014072141
 20
-34.08972432666341
 11
-40.21476279191127
 21
-33.87773561650353
  0
LINE
  8
0
 10
-40.21476279191127
 20
-33.87773561650353
 11
-39.94239328644086
 21
-33.776661318047815
  0
LINE
  8
0
 10
-39.94239328644086
 20
-33.776661318047815
 11
-39.76001178891967
 21
-33.77796367961635
  0
LINE
  8
0
 10
-39.76001178891967
 20
-33.77796367961635
 11
-37.92392937363078
 21
-35.827153789554345
  0
LINE
  8
0
 10
-37.92392937363078
 20
-35.827153789554345
 11
-37.94258210973245
 21
-36.00858361681366
  0
LINE
  8
0
 10
-37.94258210973245
 20
-36.00858361681366
 11
-38.07283944290733
 21
-36.268264552719145
  0
LINE
  8
0
 10
-38.07283944290733
 20
-36.268264552719145
 11
-38.32212151936754
 21
-36.595571139921134
  0
LINE
  8
0
 10
-38.32212151936754
 20
-36.595571139921134
 11
-38.558067960849556
 21
-36.853468810114606
  0
LINE
  8
0
 10
-38.558067960849556
 20
-36.853468810114606
 11
-38.749578289182075
 21
-37.08443763270289
  0
LINE
  8
0
 10
-38.749578289182075
 20
-37.08443763270289
 11
-39.005234855417314
 21
-37.42526842035321
  0
LINE
  8
0
 10
-39.005234855417314
 20
-37.42526842035321
 11
-39.314614709437556
 21
-37.882516144989985
  0
LINE
  8
0
 10
-39.314614709437556
 20
-37.882516144989985
 11
-39.666820611732575
 21
-38.46197297299607
  0
LINE
  8
0
 10
-39.666820611732575
 20
-38.46197297299607
 11
-40.05053098696892
 21
-39.168638216044585
  0
LINE
  8
0
 10
-40.05053098696892
 20
-39.168638216044585
 11
-40.45405164957897
 21
-40.006691355523785
  0
LINE
  8
0
 10
-40.45405164957897
 20
-40.006691355523785
 11
-40.59036705239381
 21
-40.329080951264196
  0
LINE
  8
0
 10
-40.59036705239381
 20
-40.329080951264196
 11
-39.76752205508145
 21
-41.24743070314019
  0
LINE
  8
0
 10
-39.76752205508145
 20
-41.24743070314019
 11
-38.81973301777442
 21
-42.03618674725853
  0
LINE
  8
0
 10
-38.81973301777442
 20
-42.03618674725853
 11
-38.502537019062885
 21
-41.888187967237634
  0
LINE
  8
0
 10
-38.502537019062885
 20
-41.888187967237634
 11
-37.679780379045724
 21
-41.45432911801174
  0
LINE
  8
0
 10
-37.679780379045724
 20
-41.45432911801174
 11
-36.98760046803692
 21
-41.045065891476504
  0
LINE
  8
0
 10
-36.98760046803692
 20
-41.045065891476504
 11
-36.42139349768318
 21
-40.67193202829014
  0
LINE
  8
0
 10
-36.42139349768318
 20
-40.67193202829014
 11
-35.975750004773246
 21
-40.346058965601515
  0
LINE
  8
0
 10
-35.975750004773246
 20
-40.346058965601515
 11
-35.6444836979453
 21
-40.07812513117533
  0
LINE
  8
0
 10
-35.6444836979453
 20
-40.07812513117533
 11
-35.42066331121048
 21
-39.878307120605974
  0
LINE
  8
0
 10
-35.42066331121048
 20
-39.878307120605974
 11
-35.17155493924435
 21
-39.63309914652043
  0
LINE
  8
0
 10
-35.17155493924435
 20
-39.63309914652043
 11
-34.85357100091041
 21
-39.37202948027825
  0
LINE
  8
0
 10
-34.85357100091041
 20
-39.37202948027825
 11
-34.59882057289051
 21
-39.232374975366355
  0
LINE
  8
0
 10
-34.59882057289051
 20
-39.232374975366355
 11
-34.41819302249313
 21
-39.20710849913467
  0
LINE
  8
0
 10
-34.41819302249313
 20
-39.20710849913467
 11
-32.30331258876973
 21
-40.96712540060316
  0
LINE
  8
0
 10
-32.30331258876973
 20
-40.96712540060316
 11
-32.295350154817456
 21
-41.14933765713103
  0
LINE
  8
0
 10
-32.295350154817456
 20
-41.14933765713103
 11
-32.38640953603082
 21
-41.42521688870097
  0
LINE
  8
0
 10
-32.38640953603082
 20
-41.42521688870097
 11
-32.585378883852755
 21
-41.78533125150457
  0
LINE
  8
0
 10
-32.585378883852755
 20
-41.78533125150457
 11
-32.781260729017596
 21
-42.074834678555206
  0
LINE
  8
0
 10
-32.781260729017596
 20
-42.074834678555206
 11
-32.93710087199204
 21
-42.33122627885356
  0
LINE
  8
0
 10
-32.93710087199204
 20
-42.33122627885356
 11
-33.14040763961979
 21
-42.705648852834216
  0
LINE
  8
0
 10
-33.14040763961979
 20
-42.705648852834216
 11
-33.37991474375947
 21
-43.203069924790064
  0
LINE
  8
0
 10
-33.37991474375947
 20
-43.203069924790064
 11
-33.643997726582256
 21
-43.82763328532104
  0
LINE
  8
0
 10
-33.643997726582256
 20
-43.82763328532104
 11
-33.92072775699834
 21
-44.582636535686724
  0
LINE
  8
0
 10
-33.92072775699834
 20
-44.582636535686724
 11
-34.19792673270071
 21
-45.470511931006214
  0
LINE
  8
0
 10
-34.19792673270071
 20
-45.470511931006214
 11
-34.28584917083664
 21
-45.809313621318516
  0
LINE
  8
0
 10
-34.28584917083664
 20
-45.809313621318516
 11
-33.33806013352965
 21
-46.5980696654368
  0
LINE
  8
0
 10
-33.33806013352965
 20
-46.5980696654368
 11
-32.28552753405396
 21
-47.2404210361161
  0
LINE
  8
0
 10
-32.28552753405396
 20
-47.2404210361161
 11
-31.993260571543157
 21
-47.047815316805966
  0
LINE
  8
0
 10
-31.993260571543157
 20
-47.047815316805966
 11
-31.24244210128187
 21
-46.4987856140954
  0
LINE
  8
0
 10
-31.24244210128187
 20
-46.4987856140954
 11
-30.617227700505023
 21
-45.99310155180015
  0
LINE
  8
0
 10
-30.617227700505023
 20
-45.99310155180015
 11
-30.111383315629052
 21
-45.541503642789266
  0
LINE
  8
0
 10
-30.111383315629052
 20
-45.541503642789266
 11
-29.71793637985363
 21
-45.15421707642276
  0
LINE
  8
0
 10
-29.71793637985363
 20
-45.15421707642276
 11
-29.429211735294835
 21
-44.84090575314487
  0
LINE
  8
0
 10
-29.429211735294835
 20
-44.84090575314487
 11
-29.236870255712123
 21
-44.61062861989463
  0
LINE
  8
0
 10
-29.236870255712123
 20
-44.61062861989463
 11
-29.02611910734023
 21
-44.331763267083126
  0
LINE
  8
0
 10
-29.02611910734023
 20
-44.331763267083126
 11
-28.74953585506019
 21
-44.027176891438444
  0
LINE
  8
0
 10
-28.74953585506019
 20
-44.027176891438444
 11
-28.517834067579034
 21
-43.851918673381356
  0
LINE
  8
0
 10
-28.517834067579034
 20
-43.851918673381356
 11
-28.34281022694561
 21
-43.800621870423946
  0
LINE
  8
0
 10
-28.34281022694561
 20
-43.800621870423946
 11
-25.994206779482393
 21
-45.233953858821856
  0
LINE
  8
0
 10
-25.994206779482393
 20
-45.233953858821856
 11
-25.959798880931892
 21
-45.41306500671825
  0
LINE
  8
0
 10
-25.959798880931892
 20
-45.41306500671825
 11
-26.009719537565935
 21
-45.69926264709951
  0
LINE
  8
0
 10
-26.009719537565935
 20
-45.69926264709951
 11
-26.15413547054145
 21
-46.0845095730742
  0
LINE
  8
0
 10
-26.15413547054145
 20
-46.0845095730742
 11
-26.30577783793974
 21
-46.39944849405585
  0
LINE
  8
0
 10
-26.30577783793974
 20
-46.39944849405585
 11
-26.422626333470493
 21
-46.67579833023826
  0
LINE
  8
0
 10
-26.422626333470493
 20
-46.67579833023826
 11
-26.569250171709875
 21
-47.075832523438656
  0
LINE
  8
0
 10
-26.569250171709875
 20
-47.075832523438656
 11
-26.73377984786457
 21
-47.60282527616256
  0
LINE
  8
0
 10
-26.73377984786457
 20
-47.60282527616256
 11
-26.904111440923973
 21
-48.25918368552453
  0
LINE
  8
0
 10
-26.904111440923973
 20
-48.25918368552453
 11
-27.067963106366385
 21
-49.046433359724894
  0
LINE
  8
0
 10
-27.067963106366385
 20
-49.046433359724894
 11
-27.212932380253044
 21
-49.96520748831851
  0
LINE
  8
0
 10
-27.212932380253044
 20
-49.96520748831851
 11
-27.250587939587742
 21
-50.31320030338431
  0
LINE
  8
0
 10
-27.250587939587742
 20
-50.31320030338431
 11
-26.198055340112035
 21
-50.955551674063614
  0
LINE
  8
0
 10
-26.198055340112035
 20
-50.955551674063614
 11
-25.063212083470823
 21
-51.43780776705631
  0
LINE
  8
0
 10
-25.063212083470823
 20
-51.43780776705631
 11
-24.8021033200473
 21
-51.20470016497156
  0
LINE
  8
0
 10
-24.8021033200473
 20
-51.20470016497156
 11
-24.139225411701858
 21
-50.552201223691554
  0
LINE
  8
0
 10
-24.139225411701858
 20
-50.552201223691554
 11
-23.594301880643403
 21
-49.96087410348062
  0
LINE
  8
0
 10
-23.594301880643403
 20
-49.96087410348062
 11
-23.159601276086992
 21
-49.44043717403399
  0
LINE
  8
0
 10
-23.159601276086992
 20
-49.44043717403399
 11
-22.826736535799153
 21
-48.999991444764035
  0
LINE
  8
0
 10
-22.826736535799153
 20
-48.999991444764035
 11
-22.586707218038924
 21
-48.64798031953458
  0
LINE
  8
0
 10
-22.586707218038924
 20
-48.64798031953458
 11
-22.42994407031192
 21
-48.392152020902984
  0
LINE
  8
0
 10
-22.42994407031192
 20
-48.392152020902984
 11
-22.262041940366164
 21
-48.08557282020856
  0
LINE
  8
0
 10
-22.262041940366164
 20
-48.08557282020856
 11
-22.032754265972297
 21
-47.743961464950544
  0
LINE
  8
0
 10
-22.032754265972297
 20
-47.743961464950544
 11
-21.829039440360937
 21
-47.53683485839156
  0
LINE
  8
0
 10
-21.829039440360937
 20
-47.53683485839156
 11
-21.663349638786894
 21
-47.460601031004494
  0
LINE
  8
0
 10
-21.663349638786894
 20
-47.460601031004494
 11
-19.13107958253815
 21
-48.536699123478776
  0
LINE
  8
0
 10
-19.13107958253815
 20
-48.536699123478776
 11
-19.070959564009737
 21
-48.70889171959013
  0
LINE
  8
0
 10
-19.070959564009737
 20
-48.70889171959013
 11
-19.07867752393807
 21
-48.999307962960096
  0
LINE
  8
0
 10
-19.07867752393807
 20
-48.999307962960096
 11
-19.165462067183537
 21
-49.401476582725245
  0
LINE
  8
0
 10
-19.165462067183537
 20
-49.401476582725245
 11
-19.269632963028112
 21
-49.73513862131846
  0
LINE
  8
0
 10
-19.269632963028112
 20
-49.73513862131846
 11
-19.34499938829948
 21
-50.025556776411534
  0
LINE
  8
0
 10
-19.34499938829948
 20
-50.025556776411534
 11
-19.43181526459942
 21
-50.44267655452306
  0
LINE
  8
0
 10
-19.43181526459942
 20
-50.44267655452306
 11
-19.51786084837013
 21
-50.98800905242929
  0
LINE
  8
0
 10
-19.51786084837013
 20
-50.98800905242929
 11
-19.590810729481326
 21
-51.662173370663496
  0
LINE
  8
0
 10
-19.590810729481326
 20
-51.662173370663496
 11
-19.63829181617226
 21
-52.464890608676654
  0
LINE
  8
0
 10
-19.63829181617226
 20
-52.464890608676654
 11
-19.64794161985875
 21
-53.39498139512334
  0
LINE
  8
0
 10
-19.64794161985875
 20
-53.39498139512334
 11
-19.634527737520724
 21
-53.744748472257314
  0
LINE
  8
0
 10
-19.634527737520724
 20
-53.744748472257314
 11
-18.499684480879527
 21
-54.227004565250006
  0
LINE
  8
0
 10
-18.499684480879527
 20
-54.227004565250006
 11
-17.306717780829736
 21
-54.53888692920301
  0
LINE
  8
0
 10
-17.306717780829736
 20
-54.53888692920301
 11
-17.082332296461825
 21
-54.27024572817224
  0
LINE
  8
0
 10
-17.082332296461825
 20
-54.27024572817224
 11
-16.52152304179298
 21
-53.52818443042001
  0
LINE
  8
0
 10
-16.52152304179298
 20
-53.52818443042001
 11
-16.06850447944832
 21
-52.863817363227966
  0
LINE
  8
0
 10
-16.06850447944832
 20
-52.863817363227966
 11
-15.714212543892044
 21
-52.28563362294003
  0
LINE
  8
0
 10
-15.714212543892044
 20
-52.28563362294003
 11
-15.449024433127825
 21
-51.80141606680609
  0
LINE
  8
0
 10
-15.449024433127825
 20
-51.80141606680609
 11
-15.262806250347271
 21
-51.41820764561515
  0
LINE
  8
0
 10
-15.262806250347271
 20
-51.41820764561515
 11
-15.1449625688054
 21
-51.142280717631174
  0
LINE
  8
0
 10
-15.1449625688054
 20
-51.142280717631174
 11
-15.023487999682253
 21
-50.81452187244908
  0
LINE
  8
0
 10
-15.023487999682253
 20
-50.81452187244908
 11
-14.846382771876424
 21
-50.443166390526414
  0
LINE
  8
0
 10
-14.846382771876424
 20
-50.443166390526414
 11
-14.674996735963223
 21
-50.20858593948143
  0
LINE
  8
0
 10
-14.674996735963223
 20
-50.20858593948143
 11
-14.522172363906726
 21
-50.10903987934209
  0
LINE
  8
0
 10
-14.522172363906726
 20
-50.10903987934209
 11
-11.860206638720179
 21
-50.804968913319605
  0
LINE
  8
0
 10
-11.860206638720179
 20
-50.804968913319605
 11
-11.775655854031406
 21
-50.96657297141202
  0
LINE
  8
0
 10
-11.775655854031406
 20
-50.96657297141202
 11
-11.741006622337691
 21
-51.25501809974948
  0
LINE
  8
0
 10
-11.741006622337691
 20
-51.25501809974948
 11
-11.76831011398484
 21
-51.665536887399945
  0
LINE
  8
0
 10
-11.76831011398484
 20
-51.665536887399945
 11
-11.822789316487102
 21
-52.01081061653954
  0
LINE
  8
0
 10
-11.822789316487102
 20
-52.01081061653954
 11
-11.855067366991857
 21
-52.309107331777
  0
LINE
  8
0
 10
-11.855067366991857
 20
-52.309107331777
 11
-11.88022495167443
 21
-52.73442251091181
  0
LINE
  8
0
 10
-11.88022495167443
 20
-52.73442251091181
 11
-11.88595253083114
 21
-53.28647193858662
  0
LINE
  8
0
 10
-11.88595253083114
 20
-53.28647193858662
 11
-11.859965899930197
 21
-53.96407352370043
  0
LINE
  8
0
 10
-11.859965899930197
 20
-53.96407352370043
 11
-11.790064430941136
 21
-54.76514980123585
  0
LINE
  8
0
 10
-11.790064430941136
 20
-54.76514980123585
 11
-11.664189095615384
 21
-55.6867339751998
  0
LINE
  8
0
 10
-11.664189095615384
 20
-55.6867339751998
 11
-11.59999166521816
 21
-56.03082063640108
  0
LINE
  8
0
 10
-11.59999166521816
 20
-56.03082063640108
 11
-10.407024965168379
 21
-56.34270300035406
  0
LINE
  8
0
 10
-10.407024965168379
 20
-56.34270300035406
 11
-9.18136083575215
 21
-56.47756440415431
  0
LINE
  8
0
 10
-9.18136083575215
 20
-56.47756440415431
 11
-8.998481017472248
 21
-56.179115224976016
  0
LINE
  8
0
 10
-8.998481017472248
 20
-56.179115224976016
 11
-8.55169309209416
 21
-55.36330731898325
  0
LINE
  8
0
 10
-8.55169309209416
 20
-55.36330731898325
 11
-8.200234802611387
 21
-54.64006013540628
  0
LINE
  8
0
 10
-8.200234802611387
 20
-54.64006013540628
 11
-7.933902653557607
 21
-54.016452566887466
  0
LINE
  8
0
 10
-7.933902653557607
 20
-54.016452566887466
 11
-7.742043196491553
 21
-53.4987834404241
  0
LINE
  8
0
 10
-7.742043196491553
 20
-53.4987834404241
 11
-7.613605065953904
 21
-53.09254514546197
  0
LINE
  8
0
 10
-7.613605065953904
 20
-53.09254514546197
 11
-7.537192484074898
 21
-52.80240049154499
  0
LINE
  8
0
 10
-7.537192484074898
 20
-52.80240049154499
 11
-7.464734495317121
 21
-52.46044761262169
  0
LINE
  8
0
 10
-7.464734495317121
 20
-52.46044761262169
 11
-7.343586404548725
 21
-52.06726280140266
  0
LINE
  8
0
 10
-7.343586404548725
 20
-52.06726280140266
 11
-7.20818195413727
 21
-51.81022818091881
  0
LINE
  8
0
 10
-7.20818195413727
 20
-51.81022818091881
 11
-7.071480197762641
 21
-51.68949153947215
  0
LINE
  8
0
 10
-7.071480197762641
 20
-51.68949153947215
 11
-4.336553981498259
 21
-51.99041899583101
  0
LINE
  8
0
 10
-4.336553981498259
 20
-51.99041899583101
 11
-4.229374483831903
 21
-52.137990205975164
  0
LINE
  8
0
 10
-4.229374483831903
 20
-52.137990205975164
 11
-4.15309654873342
 21
-52.41831651215367
  0
LINE
  8
0
 10
-4.15309654873342
 20
-52.41831651215367
 11
-4.120337062260756
 21
-52.828435972452965
  0
LINE
  8
0
 10
-4.120337062260756
 20
-52.828435972452965
 11
-4.123963441803444
 21
-53.17796248204938
  0
LINE
  8
0
 10
-4.123963441803444
 20
-53.17796248204938
 11
-4.112465166934628
 21
-53.47778008083386
  0
LINE
  8
0
 10
-4.112465166934628
 20
-53.47778008083386
 11
-4.075428269759667
 21
-53.90222580635974
  0
LINE
  8
0
 10
-4.075428269759667
 20
-53.90222580635974
 11
-4.000715770896589
 21
-54.44922618869299
  0
LINE
  8
0
 10
-4.000715770896589
 20
-54.44922618869299
 11
-3.8763464879044642
 21
-55.11582313931784
  0
LINE
  8
0
 10
-3.8763464879044642
 20
-55.11582313931784
 11
-3.690552291687463
 21
-55.8981849063086
  0
LINE
  8
0
 10
-3.690552291687463
 20
-55.8981849063086
 11
-3.431834631583447
 21
-56.79162050113036
  0
LINE
  8
0
 10
-3.431834631583447
 20
-56.79162050113036
 11
-3.318221909899543
 21
-57.122693136601534
  0
LINE
  8
0
 10
-3.318221909899543
 20
-57.122693136601534
 11
-2.092557780483289
 21
-57.25755454040178
  0
LINE
  8
0
 10
-2.092557780483289
 20
-57.25755454040178
 11
-0.8603191246820874
 21
-57.21252064736694
  0
LINE
  8
0
 10
-0.8603191246820874
 20
-57.21252064736694
 11
-0.7228427383099999
 21
-56.8906244161427
  0
LINE
  8
0
 10
-0.7228427383099999
 20
-56.8906244161427
 11
-0.39959865116114834
 21
-56.01845743106057
  0
LINE
  8
0
 10
-0.39959865116114834
 20
-56.01845743106057
 11
-0.15719135779620536
 21
-55.25174488915085
  0
LINE
  8
0
 10
-0.15719135779620536
 20
-55.25174488915085
 11
0.015504597390616727
 21
-54.59600460504771
  0
LINE
  8
0
 10
0.015504597390616727
 20
-54.59600460504771
 11
0.12994624952798237
 21
-54.055917126934126
  0
LINE
  8
0
 10
0.12994624952798237
 20
-54.055917126934126
 11
0.197866892058206
 21
-53.635307222167214
  0
LINE
  8
0
 10
0.197866892058206
 20
-53.635307222167214
 11
0.23121977275531663
 21
-53.33712877188078
  0
LINE
  8
0
 10
0.23121977275531663
 20
-53.33712877188078
 11
0.2531168649153056
 21
-52.98826999114896
  0
LINE
  8
0
 10
0.2531168649153056
 20
-52.98826999114896
 11
0.3157257574228215
 21
-52.581635902256814
  0
LINE
  8
0
 10
0.3157257574228215
 20
-52.581635902256814
 11
0.4122627115544756
 21
-52.307625359018985
  0
LINE
  8
0
 10
0.4122627115544756
 20
-52.307625359018985
 11
0.529928291644899
 21
-52.1682714281605
  0
LINE
  8
0
 10
0.529928291644899
 20
-52.1682714281605
 11
3.279524794930192
 21
-52.06778356062366
  0
LINE
  8
0
 10
3.279524794930192
 20
-52.06778356062366
 11
3.40704866066108
 21
-52.19817669868113
  0
LINE
  8
0
 10
3.40704866066108
 20
-52.19817669868113
 11
3.5233295674076603
 21
-52.46440951417308
  0
LINE
  8
0
 10
3.5233295674076603
 20
-52.46440951417308
 11
3.6154538204213647
 21
-52.8653886628539
  0
LINE
  8
0
 10
3.6154538204213647
 20
-52.8653886628539
 11
3.662757553822261
 21
-53.21171840218563
  0
LINE
  8
0
 10
3.662757553822261
 20
-53.21171840218563
 11
3.7177870882985546
 21
-53.50666679292742
  0
LINE
  8
0
 10
3.7177870882985546
 20
-53.50666679292742
 11
3.8162290901693825
 21
-53.92119674110632
  0
LINE
  8
0
 10
3.8162290901693825
 20
-53.92119674110632
 11
3.9697892998511026
 21
-54.451489714623406
  0
LINE
  8
0
 10
3.9697892998511026
 20
-54.451489714623406
 11
4.1898905195911915
 21
-55.09287467406918
  0
LINE
  8
0
 10
4.1898905195911915
 20
-55.09287467406918
 11
4.487617562310405
 21
-55.839847247749425
  0
LINE
  8
0
 10
4.487617562310405
 20
-55.839847247749425
 11
4.873663429440288
 21
-56.68609223486376
  0
LINE
  8
0
 10
4.873663429440288
 20
-56.68609223486376
 11
5.034269984496931
 21
-56.99709460617157
  0
LINE
  8
0
 10
5.034269984496931
 20
-56.99709460617157
 11
6.266508640298106
 21
-56.952060713136724
  0
LINE
  8
0
 10
6.266508640298106
 20
-56.952060713136724
 11
7.479058794887281
 21
-56.72809134251124
  0
LINE
  8
0
 10
7.479058794887281
 20
-56.72809134251124
 11
7.568201678855698
 21
-56.38960871854943
  0
LINE
  8
0
 10
7.568201678855698
 20
-56.38960871854943
 11
7.7610125412580295
 21
-55.47967137945205
  0
LINE
  8
0
 10
7.7610125412580295
 20
-55.47967137945205
 11
7.889202347902546
 21
-54.68583462591224
  0
LINE
  8
0
 10
7.889202347902546
 20
-54.68583462591224
 11
7.964581394763724
 21
-54.011937591916805
  0
LINE
  8
0
 10
7.964581394763724
 20
-54.011937591916805
 11
7.999166116844993
 21
-53.460942789075986
  0
LINE
  8
0
 10
7.999166116844993
 20
-53.460942789075986
 11
8.0051216607927
 21
-53.03492584438243
  0
LINE
  8
0
 10
8.0051216607927
 20
-53.03492584438243
 11
7.994703981561466
 21
-52.73506875371181
  0
LINE
  8
0
 10
7.994703981561466
 20
-52.73506875371181
 11
7.965573478620919
 21
-52.38673939041151
  0
LINE
  8
0
 10
7.965573478620919
 20
-52.38673939041151
 11
7.968308773022199
 21
-51.975322723473106
  0
LINE
  8
0
 10
7.968308773022199
 20
-51.975322723473106
 11
8.023920713299393
 21
-51.69017631648695
  0
LINE
  8
0
 10
8.023920713299393
 20
-51.69017631648695
 11
8.120042279551104
 21
-51.535175183313534
  0
LINE
  8
0
 10
8.120042279551104
 20
-51.535175183313534
 11
10.82570619410236
 21
-51.03541371631553
  0
LINE
  8
0
 10
10.82570619410236
 20
-51.03541371631553
 11
10.970856478100313
 21
-51.145849678930695
  0
LINE
  8
0
 10
10.970856478100313
 20
-51.145849678930695
 11
11.124662030848807
 21
-51.39231471349403
  0
LINE
  8
0
 10
11.124662030848807
 20
-51.39231471349403
 11
11.274187581892107
 21
-51.7756073761623
  0
LINE
  8
0
 10
11.274187581892107
 20
-51.7756073761623
 11
11.371413231285535
 21
-52.111358928115926
  0
LINE
  8
0
 10
11.371413231285535
 20
-52.111358928115926
 11
11.468801166381482
 21
-52.395151797941075
  0
LINE
  8
0
 10
11.468801166381482
 20
-52.395151797941075
 11
11.6265501525884
 21
-52.79093098261383
  0
LINE
  8
0
 10
11.6265501525884
 20
-52.79093098261383
 11
11.85568520382299
 21
-53.293214273252495
  0
LINE
  8
0
 10
11.85568520382299
 20
-53.293214273252495
 11
12.16682728494106
 21
-53.89571723464924
  0
LINE
  8
0
 10
12.16682728494106
 20
-53.89571723464924
 11
12.570141639145797
 21
-54.591380191467586
  0
LINE
  8
0
 10
12.570141639145797
 20
-54.591380191467586
 11
13.075287815877292
 21
-55.37239832818257
  0
LINE
  8
0
 10
13.075287815877292
 20
-55.37239832818257
 11
13.279465154422741
 21
-55.65670195972943
  0
LINE
  8
0
 10
13.279465154422741
 20
-55.65670195972943
 11
14.492015309011842
 21
-55.43273258910395
  0
LINE
  8
0
 10
14.492015309011842
 20
-55.43273258910395
 11
15.65903356101316
 21
-55.03460125917826
  0
LINE
  8
0
 10
15.65903356101316
 20
-55.03460125917826
 11
15.697943016771546
 21
-54.6867464119519
  0
LINE
  8
0
 10
15.697943016771546
 20
-54.6867464119519
 11
15.756211225643877
 21
-53.75843245343422
  0
LINE
  8
0
 10
15.756211225643877
 20
-53.75843245343422
 11
15.767451402396098
 21
-52.954390740446165
  0
LINE
  8
0
 10
15.767451402396098
 20
-52.954390740446165
 11
15.743906967417136
 21
-52.27669990185156
  0
LINE
  8
0
 10
15.743906967417136
 20
-52.27669990185156
 11
15.69789764613542
 21
-51.726541271896316
  0
LINE
  8
0
 10
15.69789764613542
 20
-51.726541271896316
 11
15.641761159421083
 21
-51.30419709882284
  0
LINE
  8
0
 10
15.641761159421083
 20
-51.30419709882284
 11
15.587794955007665
 21
-51.009052301058716
  0
LINE
  8
0
 10
15.587794955007665
 20
-51.009052301058716
 11
15.508257723061828
 21
-50.66867639081661
  0
LINE
  8
0
 10
15.508257723061828
 20
-50.66867639081661
 11
15.451061121305592
 21
-50.26124577780659
  0
LINE
  8
0
 10
15.451061121305592
 20
-50.26124577780659
 11
15.464562775771999
 21
-49.971040907680035
  0
LINE
  8
0
 10
15.464562775771999
 20
-49.971040907680035
 11
15.537091663881823
 21
-49.803696152240015
  0
LINE
  8
0
 10
15.537091663881823
 20
-49.803696152240015
 11
18.14115646079938
 21
-48.91531263378893
  0
LINE
  8
0
 10
18.14115646079938
 20
-48.91531263378893
 11
18.300839536763682
 21
-49.00343767015206
  0
LINE
  8
0
 10
18.300839536763682
 20
-49.00343767015206
 11
18.488891637186804
 21
-49.224881949475396
  0
LINE
  8
0
 10
18.488891637186804
 20
-49.224881949475396
 11
18.692631608738026
 21
-49.58231890847997
  0
LINE
  8
0
 10
18.692631608738026
 20
-49.58231890847997
 11
18.837706978205496
 21
-49.900336311640736
  0
LINE
  8
0
 10
18.837706978205496
 20
-49.900336311640736
 11
18.97537765916461
 21
-50.16692510823598
  0
LINE
  8
0
 10
18.97537765916461
 20
-50.16692510823598
 11
19.189071483942563
 21
-50.535518183213405
  0
LINE
  8
0
 10
19.189071483942563
 20
-50.535518183213405
 11
19.48889776092582
 21
-50.99908649467294
  0
LINE
  8
0
 10
19.48889776092582
 20
-50.99908649467294
 11
19.884449250152237
 21
-51.54986615343413
  0
LINE
  8
0
 10
19.884449250152237
 20
-51.54986615343413
 11
20.384754970596926
 21
-52.179392645241386
  0
LINE
  8
0
 10
20.384754970596926
 20
-52.179392645241386
 11
20.998235143182647
 21
-52.87853788593775
  0
LINE
  8
0
 10
20.998235143182647
 20
-52.87853788593775
 11
21.24163157972834
 21
-53.13008333941108
  0
LINE
  8
0
 10
21.24163157972834
 20
-53.13008333941108
 11
22.40864983172968
 21
-52.73195200948533
  0
LINE
  8
0
 10
22.40864983172968
 20
-52.73195200948533
 11
23.505263213220704
 21
-52.168144198340954
  0
LINE
  8
0
 10
23.505263213220704
 20
-52.168144198340954
 11
23.49310995327224
 21
-51.81833104999041
  0
LINE
  8
0
 10
23.49310995327224
 20
-51.81833104999041
 11
23.41559362290482
 21
-50.89142587238576
  0
LINE
  8
0
 10
23.41559362290482
 20
-50.89142587238576
 11
23.309644604911902
 21
-50.09431595312461
  0
LINE
  8
0
 10
23.309644604911902
 20
-50.09431595312461
 11
23.187678496847703
 21
-49.42727511358237
  0
LINE
  8
0
 10
23.187678496847703
 20
-49.42727511358237
 11
23.062055741007022
 21
-48.88967833255217
  0
LINE
  8
0
 10
23.062055741007022
 20
-48.88967833255217
 11
22.945023675383585
 21
-48.48000846389491
  0
LINE
  8
0
 10
22.945023675383585
 20
-48.48000846389491
 11
22.848659141741614
 21
-48.19586645798593
  0
LINE
  8
0
 10
22.848659141741614
 20
-48.19586645798593
 11
22.720410378800835
 21
-47.870698522385084
  0
LINE
  8
0
 10
22.720410378800835
 20
-47.870698522385084
 11
22.604500927151623
 21
-47.47593763945905
  0
LINE
  8
0
 10
22.604500927151623
 20
-47.47593763945905
 11
22.575604531483187
 21
-47.18685951915957
  0
LINE
  8
0
 10
22.575604531483187
 20
-47.18685951915957
 11
22.622994914122113
 21
-47.010737804379524
  0
LINE
  8
0
 10
22.622994914122113
 20
-47.010737804379524
 11
25.069959473307346
 21
-45.75266658680388
  0
LINE
  8
0
 10
25.069959473307346
 20
-45.75266658680388
 11
25.24077197370762
 21
-45.816602464763214
  0
LINE
  8
0
 10
25.24077197370762
 20
-45.816602464763214
 11
25.459062617771544
 21
-46.008306288493294
  0
LINE
  8
0
 10
25.459062617771544
 20
-46.008306288493294
 11
25.712674646060275
 21
-46.33226939561726
  0
LINE
  8
0
 10
25.712674646060275
 20
-46.33226939561726
 11
25.902507705974223
 21
-46.62577466116278
  0
LINE
  8
0
 10
25.902507705974223
 20
-46.62577466116278
 11
26.077526921248847
 21
-46.86947750716689
  0
LINE
  8
0
 10
26.077526921248847
 20
-46.86947750716689
 11
26.342611071727266
 21
-47.20302855098878
  0
LINE
  8
0
 10
26.342611071727266
 20
-47.20302855098878
 11
26.706738297908757
 21
-47.61800172953465
  0
LINE
  8
0
 10
26.706738297908757
 20
-47.61800172953465
 11
27.17826870198746
 21
-48.10531917347002
  0
LINE
  8
0
 10
27.17826870198746
 20
-48.10531917347002
 11
27.764902640846714
 21
-48.65529193604587
  0
LINE
  8
0
 10
27.764902640846714
 20
-48.65529193604587
 11
28.47364154450173
 21
-49.25766321373934
  0
LINE
  8
0
 10
28.47364154450173
 20
-49.25766321373934
 11
28.751069506575508
 21
-49.47108923451906
  0
LINE
  8
0
 10
28.751069506575508
 20
-49.47108923451906
 11
29.847682888066547
 21
-48.907281423374656
  0
LINE
  8
0
 10
29.847682888066547
 20
-48.907281423374656
 11
30.85051898870634
 21
-48.189813715651034
  0
LINE
  8
0
 10
30.85051898870634
 20
-48.189813715651034
 11
30.787562038686946
 21
-47.84549792610525
  0
LINE
  8
0
 10
30.787562038686946
 20
-47.84549792610525
 11
30.575913295081556
 21
-46.93975690402763
  0
LINE
  8
0
 10
30.575913295081556
 20
-46.93975690402763
 11
30.355033201718616
 21
-46.16656779251988
  0
LINE
  8
0
 10
30.355033201718616
 20
-46.16656779251988
 11
30.13724491641108
 21
-45.524393769441744
  0
LINE
  8
0
 10
30.13724491641108
 20
-45.524393769441744
 11
29.934686156952214
 21
-45.010816779375496
  0
LINE
  8
0
 10
29.934686156952214
 20
-45.010816779375496
 11
29.75925284771319
 21
-44.62255261713644
  0
LINE
  8
0
 10
29.75925284771319
 20
-44.62255261713644
 11
29.62254382757394
 21
-44.35546939662534
  0
LINE
  8
0
 10
29.62254382757394
 20
-44.35546939662534
 11
29.448316933361173
 21
-44.05243982567272
  0
LINE
  8
0
 10
29.448316933361173
 20
-44.05243982567272
 11
29.27616504054468
 21
-43.678762315686015
  0
LINE
  8
0
 10
29.27616504054468
 20
-43.678762315686015
 11
29.20548647124659
 21
-43.39697214346476
  0
LINE
  8
0
 10
29.20548647124659
 20
-43.39697214346476
 11
29.226728304685487
 21
-43.21582719792147
  0
LINE
  8
0
 10
29.226728304685487
 20
-43.21582719792147
 11
31.46443982485742
 21
-41.614881885023294
  0
LINE
  8
0
 10
31.46443982485742
 20
-41.614881885023294
 11
31.642741177803796
 21
-41.6532659223424
  0
LINE
  8
0
 10
31.642741177803796
 20
-41.6532659223424
 11
31.88661787941565
 21
-41.811143456303064
  0
LINE
  8
0
 10
31.88661787941565
 20
-41.811143456303064
 11
32.18469666436749
 21
-42.09472800036668
  0
LINE
  8
0
 10
32.18469666436749
 20
-42.09472800036668
 11
32.41524145263456
 21
-42.35746557313109
  0
LINE
  8
0
 10
32.41524145263456
 20
-42.35746557313109
 11
32.62387897151076
 21
-42.57308836548623
  0
LINE
  8
0
 10
32.62387897151076
 20
-42.57308836548623
 11
32.934703639248106
 21
-42.86448831674826
  0
LINE
  8
0
 10
32.934703639248106
 20
-42.86448831674826
 11
33.355371074981335
 21
-43.222021929535515
  0
LINE
  8
0
 10
33.355371074981335
 20
-43.222021929535515
 11
33.89283054199701
 21
-43.63549083338387
  0
LINE
  8
0
 10
33.89283054199701
 20
-43.63549083338387
 11
34.55328961534868
 21
-44.09418815212934
  0
LINE
  8
0
 10
34.55328961534868
 20
-44.09418815212934
 11
35.34218171081879
 21
-44.58694696884291
  0
LINE
  8
0
 10
35.34218171081879
 20
-44.58694696884291
 11
35.64772830306558
 21
-44.75770475183564
  0
LINE
  8
0
 10
35.64772830306558
 20
-44.75770475183564
 11
36.650564403705374
 21
-44.04023704411206
  0
LINE
  8
0
 10
36.650564403705374
 20
-44.04023704411206
 11
37.53824951308302
 21
-43.18440101836778
  0
LINE
  8
0
 10
37.53824951308302
 20
-43.18440101836778
 11
37.425830691079625
 21
-42.85292108089696
  0
LINE
  8
0
 10
37.425830691079625
 20
-42.85292108089696
 11
37.0845604597522
 21
-41.98764851172948
  0
LINE
  8
0
 10
37.0845604597522
 20
-41.98764851172948
 11
36.753456966728244
 21
-41.25485939151446
  0
LINE
  8
0
 10
36.753456966728244
 20
-41.25485939151446
 11
36.44448828336552
 21
-40.65123900929177
  0
LINE
  8
0
 10
36.44448828336552
 20
-40.65123900929177
 11
36.16931070857389
 21
-40.17262781208592
  0
LINE
  8
0
 10
36.16931070857389
 20
-40.17262781208592
 11
35.93921521212713
 21
-39.81404453279829
  0
LINE
  8
0
 10
35.93921521212713
 20
-39.81404453279829
 11
35.76507542090748
 21
-39.56971251283367
  0
LINE
  8
0
 10
35.76507542090748
 20
-39.56971251283367
 11
35.54858373918882
 21
-39.29527985572927
  0
LINE
  8
0
 10
35.54858373918882
 20
-39.29527985572927
 11
35.323858523918865
 21
-38.95065000604698
  0
LINE
  8
0
 10
35.323858523918865
 20
-38.95065000604698
 11
35.212904171987105
 21
-38.68215365019478
  0
LINE
  8
0
 10
35.212904171987105
 20
-38.68215365019478
 11
35.20754472342523
 21
-38.49984626390766
  0
LINE
  8
0
 10
35.20754472342523
 20
-38.49984626390766
 11
37.18831026853475
 21
-36.59014822554982
  0
LINE
  8
0
 10
37.18831026853475
 20
-36.59014822554982
 11
37.370300290247116
 21
-36.60216233311369
  0
LINE
  8
0
 10
37.370300290247116
 20
-36.60216233311369
 11
37.63456524091863
 21
-36.72284869176768
  0
LINE
  8
0
 10
37.63456524091863
 20
-36.72284869176768
 11
37.97075775074189
 21
-36.9600105605596
  0
LINE
  8
0
 10
37.97075775074189
 20
-36.9600105605596
 11
38.237100605460554
 21
-37.18638064533131
  0
LINE
  8
0
 10
38.237100605460554
 20
-37.18638064533131
 11
38.47490968144956
 21
-37.369327758572005
  0
LINE
  8
0
 10
38.47490968144956
 20
-37.369327758572005
 11
38.82485017829133
 21
-37.612365933227096
  0
LINE
  8
0
 10
38.82485017829133
 20
-37.612365933227096
 11
39.2930920275255
 21
-37.904839772031266
  0
LINE
  8
0
 10
39.2930920275255
 20
-37.904839772031266
 11
39.885025542049064
 21
-38.2356477639512
  0
LINE
  8
0
 10
39.885025542049064
 20
-38.2356477639512
 11
40.60523321140084
 21
-38.593293301884685
  0
LINE
  8
0
 10
40.60523321140084
 20
-38.593293301884685
 11
41.45746463330628
 21
-38.965937358943435
  0
LINE
  8
0
 10
41.45746463330628
 20
-38.965937358943435
 11
41.78461766058717
 21
-39.090387498465915
  0
LINE
  8
0
 10
41.78461766058717
 20
-39.090387498465915
 11
42.672302769964745
 21
-38.23455147272157
  0
LINE
  8
0
 10
42.672302769964745
 20
-38.23455147272157
 11
43.42591742112849
 21
-37.25858778798532
  0
LINE
  8
0
 10
43.42591742112849
 20
-37.25858778798532
 11
43.266432739156144
 21
-36.947008621957714
  0
LINE
  8
0
 10
43.266432739156144
 20
-36.947008621957714
 11
42.80281460259104
 21
-36.14064628826903
  0
LINE
  8
0
 10
42.80281460259104
 20
-36.14064628826903
 11
42.368544606014474
 21
-35.463875287212126
  0
LINE
  8
0
 10
42.368544606014474
 20
-35.463875287212126
 11
41.9749806556664
 21
-34.91167366631631
  0
LINE
  8
0
 10
41.9749806556664
 20
-34.91167366631631
 11
41.63304919779908
 21
-34.47822902869835
  0
LINE
  8
0
 10
41.63304919779908
 20
-34.47822902869835
 11
41.353195600171006
 21
-34.15696921240573
  0
LINE
  8
0
 10
41.353195600171006
 20
-34.15696921240573
 11
41.14533652518796
 21
-33.94059590579605
  0
LINE
  8
0
 10
41.14533652518796
 20
-33.94059590579605
 11
40.89119420029715
 21
-33.70060921816974
  0
LINE
  8
0
 10
40.89119420029715
 20
-33.70060921816974
 11
40.61868529038049
 21
-33.39237221570864
  0
LINE
  8
0
 10
40.61868529038049
 20
-33.39237221570864
 11
40.46981995519305
 21
-33.14289220990048
  0
LINE
  8
0
 10
40.46981995519305
 20
-33.14289220990048
 11
40.43797345197171
 21
-32.96330794829524
  0
LINE
  8
0
 10
40.43797345197171
 20
-32.96330794829524
 11
42.11957644333134
 21
-30.785559082642642
  0
LINE
  8
0
 10
42.11957644333134
 20
-30.785559082642642
 11
42.30137633245891
 21
-30.77094720060686
  0
LINE
  8
0
 10
42.30137633245891
 20
-30.77094720060686
 11
42.58039718357018
 21
-30.851870163749116
  0
LINE
  8
0
 10
42.58039718357018
 20
-30.851870163749116
 11
42.94753805859865
 21
-31.037554663784675
  0
LINE
  8
0
 10
42.94753805859865
 20
-31.037554663784675
 11
43.244002344231795
 21
-31.222732575219254
  0
LINE
  8
0
 10
43.244002344231795
 20
-31.222732575219254
 11
43.505914489751184
 21
-31.36910480925044
  0
LINE
  8
0
 10
43.505914489751184
 20
-31.36910480925044
 11
43.88751244155646
 21
-31.558601270556604
  0
LINE
  8
0
 10
43.88751244155646
 20
-31.558601270556604
 11
44.39334894221334
 21
-31.77978176328208
  0
LINE
  8
0
 10
44.39334894221334
 20
-31.77978176328208
 11
45.02714046906824
 21
-32.0208782452582
  0
LINE
  8
0
 10
45.02714046906824
 20
-32.0208782452582
 11
45.79174675833657
 21
-32.26984940866503
  0
LINE
  8
0
 10
45.79174675833657
 20
-32.26984940866503
 11
46.68915367352121
 21
-32.514436444958804
  0
LINE
  8
0
 10
46.68915367352121
 20
-32.514436444958804
 11
47.030940437046524
 21
-32.58992650235127
  0
LINE
  8
0
 10
47.030940437046524
 20
-32.58992650235127
 11
47.7845550882102
 21
-31.613962817614993
  0
LINE
  8
0
 10
47.7845550882102
 20
-31.613962817614993
 11
48.38803729325871
 21
-30.538672445407375
  0
LINE
  8
0
 10
48.38803729325871
 20
-30.538672445407375
 11
48.18488589042428
 21
-30.25363481979861
  0
LINE
  8
0
 10
48.18488589042428
 20
-30.25363481979861
 11
47.60880106429167
 21
-29.523368934765145
  0
LINE
  8
0
 10
47.60880106429167
 20
-29.523368934765145
 11
47.080620275181566
 21
-28.917040251777767
  0
LINE
  8
0
 10
47.080620275181566
 20
-28.917040251777767
 11
46.610849190163655
 21
-28.42802661105325
  0
LINE
  8
0
 10
46.610849190163655
 20
-28.42802661105325
 11
46.20945152460072
 21
-28.04898665294902
  0
LINE
  8
0
 10
46.20945152460072
 20
-28.04898665294902
 11
45.885804419356894
 21
-27.771897394880373
  0
LINE
  8
0
 10
45.885804419356894
 20
-27.771897394880373
 11
45.648656215919125
 21
-27.58809442299945
  0
LINE
  8
0
 10
45.648656215919125
 20
-27.58809442299945
 11
45.36227985028197
 21
-27.387668604445036
  0
LINE
  8
0
 10
45.36227985028197
 20
-27.387668604445036
 11
45.04779530001707
 21
-27.12239398576686
  0
LINE
  8
0
 10
45.04779530001707
 20
-27.12239398576686
 11
44.8641917877409
 21
-26.897247563191765
  0
LINE
  8
0
 10
44.8641917877409
 20
-26.897247563191765
 11
44.80653698278593
 21
-26.724213953019262
  0
LINE
  8
0
 10
44.80653698278593
 20
-26.724213953019262
 11
46.15313697215024
 21
-24.324829196244135
  0
LINE
  8
0
 10
46.15313697215024
 20
-24.324829196244135
 11
46.330871979688176
 21
-24.28390275150587
  0
LINE
  8
0
 10
46.330871979688176
 20
-24.28390275150587
 11
46.618701886219874
 21
-24.323337586671432
  0
LINE
  8
0
 10
46.618701886219874
 20
-24.323337586671432
 11
47.00896615611406
 21
-24.453587175208558
  0
LINE
  8
0
 10
47.00896615611406
 20
-24.453587175208558
 11
47.32923325111994
 21
-24.59362616762045
  0
LINE
  8
0
 10
47.32923325111994
 20
-24.59362616762045
 11
47.60966626350679
 21
-24.700303852397937
  0
LINE
  8
0
 10
47.60966626350679
 20
-24.700303852397937
 11
48.01478857244422
 21
-24.832219812276758
  0
LINE
  8
0
 10
48.01478857244422
 20
-24.832219812276758
 11
48.54743869772046
 21
-24.977392880723663
  0
LINE
  8
0
 10
48.54743869772046
 20
-24.977392880723663
 11
49.20958007086907
 21
-25.12363929982235
  0
LINE
  8
0
 10
49.20958007086907
 20
-25.12363929982235
 11
50.002288724469594
 21
-25.25862970060584
  0
LINE
  8
0
 10
50.002288724469594
 20
-25.25862970060584
 11
50.925744462569476
 21
-25.369946768095886
  0
LINE
  8
0
 10
50.925744462569476
 20
-25.369946768095886
 11
51.27488037086788
 21
-25.394867803847106
  0
LINE
  8
0
 10
51.27488037086788
 20
-25.394867803847106
 11
51.87836257591638
 21
-24.319577431639445
  0
LINE
  8
0
 10
51.87836257591638
 20
-24.319577431639445
 11
52.318850159385036
 21
-23.16787831937853
  0
LINE
  8
0
 10
52.318850159385036
 20
-23.16787831937853
 11
52.076361855138316
 21
-22.915457316310214
  0
LINE
  8
0
 10
52.076361855138316
 20
-22.915457316310214
 11
51.4000885873374
 21
-22.276852229420182
  0
LINE
  8
0
 10
51.4000885873374
 20
-22.276852229420182
 11
50.78925426221245
 21
-21.75388870770253
  0
LINE
  8
0
 10
50.78925426221245
 20
-21.75388870770253
 11
50.25328839760869
 21
-21.338485523900214
  0
LINE
  8
0
 10
50.25328839760869
 20
-21.338485523900214
 11
49.80097961870498
 21
-21.021928823946393
  0
LINE
  8
0
 10
49.80097961870498
 20
-21.021928823946393
 11
49.440436981993656
 21
-20.794915800568884
  0
LINE
  8
0
 10
49.440436981993656
 20
-20.794915800568884
 11
49.17905405233256
 21
-20.647600604652798
  0
LINE
  8
0
 10
49.17905405233256
 20
-20.647600604652798
 11
48.86654726099022
 21
-20.491007383523435
  0
LINE
  8
0
 10
48.86654726099022
 20
-20.491007383523435
 11
48.51678976257355
 21
-20.274349016568717
  0
LINE
  8
0
 10
48.51678976257355
 20
-20.274349016568717
 11
48.302361263309535
 21
-20.07833478233587
  0
LINE
  8
0
 10
48.302361263309535
 20
-20.07833478233587
 11
48.22012696869115
 21
-19.915539734584588
  0
LINE
  8
0
 10
48.22012696869115
 20
-19.915539734584588
 11
49.20302351518672
 21
-17.34565780708521
  0
LINE
  8
0
 10
49.20302351518672
 20
-17.34565780708521
 11
49.37290552802402
 21
-17.279289075759603
  0
LINE
  8
0
 10
49.37290552802402
 20
-17.279289075759603
 11
49.66340989523437
 21
-17.276395297901715
  0
LINE
  8
0
 10
49.66340989523437
 20
-17.276395297901715
 11
50.06847975463887
 21
-17.348433931093588
  0
LINE
  8
0
 10
50.06847975463887
 20
-17.348433931093588
 11
50.40572372191923
 21
-17.440349316488263
  0
LINE
  8
0
 10
50.40572372191923
 20
-17.440349316488263
 11
50.69870065838835
 21
-17.505058802369504
  0
LINE
  8
0
 10
50.69870065838835
 20
-17.505058802369504
 11
51.118712845796104
 21
-17.57658270116209
  0
LINE
  8
0
 10
51.118712845796104
 20
-17.57658270116209
 11
51.666824083032076
 21
-17.64265423341873
  0
LINE
  8
0
 10
51.666824083032076
 20
-17.64265423341873
 11
52.34320290868264
 21
-17.69093360112265
  0
LINE
  8
0
 10
52.34320290868264
 20
-17.69093360112265
 11
53.14711871792515
 21
-17.709066153253723
  0
LINE
  8
0
 10
53.14711871792515
 20
-17.709066153253723
 11
54.07694142314057
 21
-17.68474072190963
  0
LINE
  8
0
 10
54.07694142314057
 20
-17.68474072190963
 11
54.425985250478995
 21
-17.65856158740918
  0
LINE
  8
0
 10
54.425985250478995
 20
-17.65856158740918
 11
54.866472833947334
 21
-16.506862475148242
  0
LINE
  8
0
 10
54.866472833947334
 20
-16.506862475148242
 11
55.134577567746675
 21
-15.303301089889061
  0
LINE
  8
0
 10
55.134577567746675
 20
-15.303301089889061
 11
54.857920579297144
 21
-15.08887662480103
  0
LINE
  8
0
 10
54.857920579297144
 20
-15.08887662480103
 11
54.09587246041912
 21
-14.555543094767126
  0
LINE
  8
0
 10
54.09587246041912
 20
-14.555543094767126
 11
53.41540347241922
 21
-14.127090793841377
  0
LINE
  8
0
 10
53.41540347241922
 20
-14.127090793841377
 11
52.824666010116395
 21
-13.79415166462168
  0
LINE
  8
0
 10
52.824666010116395
 20
-13.79415166462168
 11
52.33108629421823
 21
-13.546825079287796
  0
LINE
  8
0
 10
52.33108629421823
 20
-13.546825079287796
 11
51.94133246638476
 21
-13.374726679066004
  0
LINE
  8
0
 10
51.94133246638476
 20
-13.374726679066004
 11
51.661285733846015
 21
-13.26703902675439
  0
LINE
  8
0
 10
51.661285733846015
 20
-13.26703902675439
 11
51.329309056497216
 21
-13.1576159156891
  0
LINE
  8
0
 10
51.329309056497216
 20
-13.1576159156891
 11
50.951733083775984
 21
-12.994191497398006
  0
LINE
  8
0
 10
50.951733083775984
 20
-12.994191497398006
 11
50.711049768705834
 21
-12.831487154599923
  0
LINE
  8
0
 10
50.711049768705834
 20
-12.831487154599923
 11
50.60598866564274
 21
-12.682400363076022
  0
LINE
  8
0
 10
50.60598866564274
 20
-12.682400363076022
 11
51.20423303583707
 21
-9.996793836435977
  0
LINE
  8
0
 10
51.20423303583707
 20
-9.996793836435977
 11
51.36264131381081
 21
-9.906397352805145
  0
LINE
  8
0
 10
51.36264131381081
 20
-9.906397352805145
 11
51.649628545471955
 21
-9.861236637774814
  0
LINE
  8
0
 10
51.649628545471955
 20
-9.861236637774814
 11
52.060870633595684
 21
-9.87352893722484
  0
LINE
  8
0
 10
52.060870633595684
 20
-9.87352893722484
 11
52.407903703494114
 21
-9.915361698741524
  0
LINE
  8
0
 10
52.407903703494114
 20
-9.915361698741524
 11
52.70718026929665
 21
-9.936723815380354
  0
LINE
  8
0
 10
52.70718026929665
 20
-9.936723815380354
 11
53.133130504604395
 21
-9.94633124536017
  0
LINE
  8
0
 10
53.133130504604395
 20
-9.94633124536017
 11
53.68502081438185
 21
-9.931893041426605
  0
LINE
  8
0
 10
53.68502081438185
 20
-9.931893041426605
 11
54.36122125216086
 21
-9.881176366833387
  0
LINE
  8
0
 10
54.36122125216086
 20
-9.881176366833387
 11
55.15921014728998
 21
-9.782064606444195
  0
LINE
  8
0
 10
55.15921014728998
 20
-9.782064606444195
 11
56.07558226297115
 21
-9.622615130602465
  0
LINE
  8
0
 10
56.07558226297115
 20
-9.622615130602465
 11
56.41709474616241
 21
-9.545893788651323
  0
LINE
  8
0
 10
0.3118675362266391
 20
-1.4672214011007085
 11
9.18454765366783e-17
 21
-1.5
  0
LINE
  8
0
 10
9.18454765366783e-17
 20
-1.5
 11
-0.3118675362266384
 21
-1.4672214011007085
  0
LINE
  8
0
 10
-0.3118675362266384
 20
-1.4672214011007085
 11
-0.6101049646137001
 21
-1.3703181864639014
  0
LINE
  8
0
 10
-0.6101049646137001
 20
-1.3703181864639014
 11
-0.8816778784387099
 21
-1.213525491562421
  0
LINE
  8
0
 10
-0.8816778784387099
 20
-1.213525491562421
 11
-1.114717238216091
 21
-1.0036959095382878
  0
LINE
  8
0
 10
-1.114717238216091
 20
-1.0036959095382878
 11
-1.299038105676658
 21
-0.7500000000000003
  0
LINE
  8
0
 10
-1.299038105676658
 20
-0.7500000000000003
 11
-1.4265847744427305
 21
-0.46352549156242095
  0
LINE
  8
0
 10
-1.4265847744427305
 20
-0.46352549156242095
 11
-1.49178284305241
 21
-0.15679269490147957
  0
LINE
  8
0
 10
-1.49178284305241
 20
-0.15679269490147957
 11
-1.4917828430524098
 21
0.15679269490148126
  0
LINE
  8
0
 10
-1.4917828430524098
 20
0.15679269490148126
 11
-1.4265847744427302
 21
0.46352549156242123
  0
LINE
  8
0
 10
-1.4265847744427302
 20
0.46352549156242123
 11
-1.2990381056766576
 21
0.7500000000000006
  0
LINE
  8
0
 10
-1.2990381056766576
 20
0.7500000000000006
 11
-1.114717238216091
 21
1.0036959095382878
  0
LINE
  8
0
 10
-1.114717238216091
 20
1.0036959095382878
 11
-0.8816778784387097
 21
1.2135254915624214
  0
LINE
  8
0
 10
-0.8816778784387097
 20
1.2135254915624214
 11
-0.6101049646137005
 21
1.3703181864639014
  0
LINE
  8
0
 10
-0.6101049646137005
 20
1.3703181864639014
 11
-0.3118675362266387
 21
1.4672214011007085
  0
LINE
  8
0
 10
-0.3118675362266387
 20
1.4672214011007085
 11
7.579792913117722e-16
 21
1.5
  0
LINE
  8
0
 10
7.579792913117722e-16
 20
1.5
 11
0.3118675362266389
 21
1.4672214011007085
  0
LINE
  8
0
 10
0.3118675362266389
 20
1.4672214011007085
 11
0.6101049646136999
 21
1.3703181864639014
  0
LINE
  8
0
 10
0.6101049646136999
 20
1.3703181864639014
 11
0.8816778784387097
 21
1.213525491562421
  0
LINE
  8
0
 10
0.8816778784387097
 20
1.213525491562421
 11
1.1147172382160917
 21
1.003695909538287
  0
LINE
  8
0
 10
1.1147172382160917
 20
1.003695909538287
 11
1.299038105676658
 21
0.7499999999999998
  0
LINE
  8
0
 10
1.299038105676658
 20
0.7499999999999998
 11
1.4265847744427305
 21
0.4635254915624211
  0
LINE
  8
0
 10
1.4265847744427305
 20
0.4635254915624211
 11
1.49178284305241
 21
0.1567926949014801
  0
LINE
  8
0
 10
1.49178284305241
 20
0.1567926949014801
 11
1.4917828430524098
 21
-0.1567926949014801
  0
LINE
  8
0
 10
1.4917828430524098
 20
-0.1567926949014801
 11
1.4265847744427302
 21
-0.46352549156242107
  0
LINE
  8
0
 10
1.4265847744427302
 20
-0.46352549156242107
 11
1.299038105676658
 21
-0.7500000000000001
  0
LINE
  8
0
 10
1.299038105676658
 20
-0.7500000000000001
 11
1.1147172382160913
 21
-1.0036959095382874
  0
LINE
  8
0
 10
1.1147172382160913
 20
-1.0036959095382874
 11
0.8816778784387098
 21
-1.2135254915624212
  0
LINE
  8
0
 10
0.8816778784387098
 20
-1.2135254915624212
 11
0.6101049646137003
 21
-1.3703181864639014
  0
LINE
  8
0
 10
0.6101049646137003
 20
-1.3703181864639014
 11
0.3118675362266391
 21
-1.4672214011007085
  0
ENDSEC
  0
SECTION
  2
OBJECTS
  0
DICTIONARY
  0
ENDSEC
  0
EOF
