  0
SECTION
  2
BLOCKS
  0
ENDSEC
  0
SECTION
  2
ENTITIES
  0
LINE
  8
0
 10
55.12276054635579
 20
-9.550435067966127
 11
55.396814484131006
 21
-8.349726313827762
  0
LINE
  8
0
 10
55.396814484131006
 20
-8.349726313827762
 11
55.48885111211717
 21
-7.121582864476871
  0
LINE
  8
0
 10
55.48885111211717
 20
-7.121582864476871
 11
55.19541888866559
 21
-6.953729690196765
  0
LINE
  8
0
 10
55.19541888866559
 20
-6.953729690196765
 11
54.360021597415184
 21
-6.5296540254501565
  0
LINE
  8
0
 10
54.360021597415184
 20
-6.5296540254501565
 11
53.622340047499826
 21
-6.200341415431331
  0
LINE
  8
0
 10
53.622340047499826
 20
-6.200341415431331
 11
52.989451498007575
 21
-5.954865326977157
  0
LINE
  8
0
 10
52.989451498007575
 20
-5.954865326977157
 11
52.46758070562063
 21
-5.781844041135651
  0
LINE
  8
0
 10
52.46758070562063
 20
-5.781844041135651
 11
52.06207288504172
 21
-5.669498763945006
  0
LINE
  8
0
 10
52.06207288504172
 20
-5.669498763945006
 11
51.77737035657229
 21
-5.605713263749662
  0
LINE
  8
0
 10
51.77737035657229
 20
-5.605713263749662
 11
51.437960298203606
 21
-5.54726375041219
  0
LINE
  8
0
 10
51.437960298203606
 20
-5.54726375041219
 11
51.03102874194699
 21
-5.438500933527626
  0
LINE
  8
0
 10
51.03102874194699
 20
-5.438500933527626
 11
50.76298810187855
 21
-5.309589453564106
  0
LINE
  8
0
 10
50.76298810187855
 20
-5.309589453564106
 11
50.63450476926104
 21
-5.174105190483719
  0
LINE
  8
0
 10
50.63450476926104
 20
-5.174105190483719
 11
50.8401195495122
 21
-2.430366627037222
  0
LINE
  8
0
 10
50.8401195495122
 20
-2.430366627037222
 11
50.98736071106118
 21
-2.315545058293624
  0
LINE
  8
0
 10
50.98736071106118
 20
-2.315545058293624
 11
51.271620817751995
 21
-2.22802279747675
  0
LINE
  8
0
 10
51.271620817751995
 20
-2.22802279747675
 11
51.69021754144641
 21
-2.1811247727155463
  0
LINE
  8
0
 10
51.69021754144641
 20
-2.1811247727155463
 11
52.03454811781626
 21
-2.1739145364123074
  0
LINE
  8
0
 10
52.03454811781626
 20
-2.1739145364123074
 11
52.32557748976996
 21
-2.1532741775815687
  0
LINE
  8
0
 10
52.32557748976996
 20
-2.1532741775815687
 11
52.74330031774056
 21
-2.1026215088459836
  0
LINE
  8
0
 10
52.74330031774056
 20
-2.1026215088459836
 11
53.28512972909788
 21
-2.0093135333612895
  0
LINE
  8
0
 10
53.28512972909788
 20
-2.0093135333612895
 11
53.94753574891661
 21
-1.860906353649763
  0
LINE
  8
0
 10
53.94753574891661
 20
-1.860906353649763
 11
54.726059503087335
 21
-1.6452176233144244
  0
LINE
  8
0
 10
54.726059503087335
 20
-1.6452176233144244
 11
55.61533129492491
 21
-1.350388038806402
  0
LINE
  8
0
 10
55.61533129492491
 20
-1.350388038806402
 11
55.93050334036099
 21
-1.228143449350903
  0
LINE
  8
0
 10
55.93050334036099
 20
-1.228143449350903
 11
56.02253996834715
 21
5.329070518200751e-15
  0
LINE
  8
0
 10
56.02253996834715
 20
5.329070518200751e-15
 11
55.93050334036099
 21
1.2281434493508971
  0
LINE
  8
0
 10
55.93050334036099
 20
1.2281434493508971
 11
55.61533129492474
 21
1.3503880388064695
  0
LINE
  8
0
 10
55.61533129492474
 20
1.3503880388064695
 11
54.726059503087356
 21
1.6452176233144307
  0
LINE
  8
0
 10
54.726059503087356
 20
1.6452176233144307
 11
53.947535748915925
 21
1.8609063536499615
  0
LINE
  8
0
 10
53.947535748915925
 20
1.8609063536499615
 11
53.285129729097804
 21
2.0093135333613383
  0
LINE
  8
0
 10
53.285129729097804
 20
2.0093135333613383
 11
52.74330031774053
 21
2.102621508846022
  0
LINE
  8
0
 10
52.74330031774053
 20
2.102621508846022
 11
52.325577489770055
 21
2.153274177581697
  0
LINE
  8
0
 10
52.325577489770055
 20
2.153274177581697
 11
52.034548117816946
 21
2.1739145364118717
  0
LINE
  8
0
 10
52.034548117816946
 20
2.1739145364118717
 11
51.69021754144641
 21
2.1811247727155636
  0
LINE
  8
0
 10
51.69021754144641
 20
2.1811247727155636
 11
51.27162081775192
 21
2.2280227974750164
  0
LINE
  8
0
 10
51.27162081775192
 20
2.2280227974750164
 11
50.98736071106124
 21
2.3155450582941355
  0
LINE
  8
0
 10
50.98736071106124
 20
2.3155450582941355
 11
50.84011954951221
 21
2.430366627037237
  0
LINE
  8
0
 10
50.84011954951221
 20
2.430366627037237
 11
50.63450476926103
 21
5.174105190483732
  0
LINE
  8
0
 10
50.63450476926103
 20
5.174105190483732
 11
50.762988101878406
 21
5.309589453564602
  0
LINE
  8
0
 10
50.762988101878406
 20
5.309589453564602
 11
51.031028741947324
 21
5.438500933525923
  0
LINE
  8
0
 10
51.031028741947324
 20
5.438500933525923
 11
51.4379602982036
 21
5.547263750412208
  0
LINE
  8
0
 10
51.4379602982036
 20
5.547263750412208
 11
51.77737035657167
 21
5.605713263749129
  0
LINE
  8
0
 10
51.77737035657167
 20
5.605713263749129
 11
52.062072885041616
 21
5.66949876394512
  0
LINE
  8
0
 10
52.062072885041616
 20
5.66949876394512
 11
52.46758070562066
 21
5.781844041135695
  0
LINE
  8
0
 10
52.46758070562066
 20
5.781844041135695
 11
52.98945149800765
 21
5.954865326977217
  0
LINE
  8
0
 10
52.98945149800765
 20
5.954865326977217
 11
53.62234004750047
 21
6.2003414154316285
  0
LINE
  8
0
 10
53.62234004750047
 20
6.2003414154316285
 11
54.360021597415155
 21
6.529654025450158
  0
LINE
  8
0
 10
54.360021597415155
 20
6.529654025450158
 11
55.19541888866575
 21
6.953729690196857
  0
LINE
  8
0
 10
55.19541888866575
 20
6.953729690196857
 11
55.48885111211714
 21
7.121582864476861
  0
LINE
  8
0
 10
55.48885111211714
 20
7.121582864476861
 11
55.39681448413098
 21
8.349726313827771
  0
LINE
  8
0
 10
55.39681448413098
 20
8.349726313827771
 11
55.12276054635578
 21
9.550435067966127
  0
LINE
  8
0
 10
55.12276054635578
 20
9.550435067966127
 11
54.792889101623764
 21
9.62434033047183
  0
LINE
  8
0
 10
54.792889101623764
 20
9.62434033047183
 11
53.869607671551655
 21
9.78333782901446
  0
LINE
  8
0
 10
53.869607671551655
 20
9.78333782901446
 11
53.06763264732056
 21
9.880584549845896
  0
LINE
  8
0
 10
53.06763264732056
 20
9.880584549845896
 11
52.39050621306631
 21
9.928607649655206
  0
LINE
  8
0
 10
52.39050621306631
 20
9.928607649655206
 11
51.840821756442274
 21
9.940117968797528
  0
LINE
  8
0
 10
51.840821756442274
 20
9.940117968797528
 11
51.42021515879089
 21
9.927946532159694
  0
LINE
  8
0
 10
51.42021515879089
 20
9.927946532159694
 11
51.12936005861199
 21
9.9049806781156
  0
LINE
  8
0
 10
51.12936005861199
 20
9.9049806781156
 11
50.78780074032656
 21
9.860790572621045
  0
LINE
  8
0
 10
50.78780074032656
 20
9.860790572621045
 11
50.366889608291274
 21
9.844776180878911
  0
LINE
  8
0
 10
50.366889608291274
 20
9.844776180878911
 11
50.07275993603615
 21
9.888954119873114
  0
LINE
  8
0
 10
50.07275993603615
 20
9.888954119873114
 11
49.91005006979589
 21
9.980548070170137
  0
LINE
  8
0
 10
49.91005006979589
 20
9.980548070170137
 11
49.297798823464994
 21
12.662996048000734
  0
LINE
  8
0
 10
49.297798823464994
 20
12.662996048000734
 11
49.40465422181241
 21
12.816116510862653
  0
LINE
  8
0
 10
49.40465422181241
 20
12.816116510862653
 11
49.650487810284105
 21
12.983537540525893
  0
LINE
  8
0
 10
49.650487810284105
 20
12.983537540525893
 11
50.036664020569646
 21
13.151735567933164
  0
LINE
  8
0
 10
50.036664020569646
 20
13.151735567933164
 11
50.36357170109024
 21
13.260118692760733
  0
LINE
  8
0
 10
50.36357170109024
 20
13.260118692760733
 11
50.63558760204716
 21
13.365624471649966
  0
LINE
  8
0
 10
50.63558760204716
 20
13.365624471649966
 11
51.01982204060442
 21
13.537152749448076
  0
LINE
  8
0
 10
51.01982204060442
 20
13.537152749448076
 11
51.51007648288466
 21
13.786022336029793
  0
LINE
  8
0
 10
51.51007648288466
 20
13.786022336029793
 11
52.099309877672766
 21
14.123083803048045
  0
LINE
  8
0
 10
52.099309877672766
 20
14.123083803048045
 11
52.77967063648839
 21
14.55866399321466
  0
LINE
  8
0
 10
52.77967063648839
 20
14.55866399321466
 11
53.542532032117926
 21
15.102512588613534
  0
LINE
  8
0
 10
53.542532032117926
 20
15.102512588613534
 11
53.807669642594874
 21
15.312224785173647
  0
LINE
  8
0
 10
53.807669642594874
 20
15.312224785173647
 11
53.53361570481966
 21
16.512933539312016
  0
LINE
  8
0
 10
53.53361570481966
 20
16.512933539312016
 11
53.083666369364856
 21
17.659385748781883
  0
LINE
  8
0
 10
53.083666369364856
 20
17.659385748781883
 11
52.74646430831619
 21
17.683300762898103
  0
LINE
  8
0
 10
52.74646430831619
 20
17.683300762898103
 11
51.809797821480544
 21
17.702914434093415
  0
LINE
  8
0
 10
51.809797821480544
 20
17.702914434093415
 11
51.00228632400727
 21
17.679546814372753
  0
LINE
  8
0
 10
51.00228632400727
 20
17.679546814372753
 11
50.32556536094039
 21
17.62611307758604
  0
LINE
  8
0
 10
50.32556536094039
 20
17.62611307758604
 11
49.780304901484335
 21
17.55556861887659
  0
LINE
  8
0
 10
49.780304901484335
 20
17.55556861887659
 11
49.366210190512106
 21
17.48084496664704
  0
LINE
  8
0
 10
49.366210190512106
 20
17.48084496664704
 11
49.082026584421804
 21
17.414785918958092
  0
LINE
  8
0
 10
49.082026584421804
 20
17.414785918958092
 11
48.75086839498222
 21
17.320182605600085
  0
LINE
  8
0
 10
48.75086839498222
 20
17.320182605600085
 11
48.337045313761095
 21
17.241613532404905
  0
LINE
  8
0
 10
48.337045313761095
 20
17.241613532404905
 11
48.03961644678504
 21
17.241460287418903
  0
LINE
  8
0
 10
48.03961644678504
 20
17.241460287418903
 11
47.86507254539541
 21
17.307780561774663
  0
LINE
  8
0
 10
47.86507254539541
 20
17.307780561774663
 11
46.85986151411309
 21
19.86901649877647
  0
LINE
  8
0
 10
46.85986151411309
 20
19.86901649877647
 11
46.9427020051647
 21
20.036352703303052
  0
LINE
  8
0
 10
46.9427020051647
 20
20.036352703303052
 11
47.1608370259005
 21
20.23854337352046
  0
LINE
  8
0
 10
47.1608370259005
 20
20.23854337352046
 11
47.517631351814494
 21
20.462419345455313
  0
LINE
  8
0
 10
47.517631351814494
 20
20.462419345455313
 11
47.82473407710345
 21
20.618314981862603
  0
LINE
  8
0
 10
47.82473407710345
 20
20.618314981862603
 11
48.07798696481272
 21
20.763184214687744
  0
LINE
  8
0
 10
48.07798696481272
 20
20.763184214687744
 11
48.432364858919115
 21
20.990063834809327
  0
LINE
  8
0
 10
48.432364858919115
 20
20.990063834809327
 11
48.880051476973165
 21
21.309222386811616
  0
LINE
  8
0
 10
48.880051476973165
 20
21.309222386811616
 11
49.41246721669586
 21
21.730339836197828
  0
LINE
  8
0
 10
49.41246721669586
 20
21.730339836197828
 11
50.02030904932279
 21
22.2624574648388
  0
LINE
  8
0
 10
50.02030904932279
 20
22.2624574648388
 11
50.693593486343424
 21
22.913930311951393
  0
LINE
  8
0
 10
50.693593486343424
 20
22.913930311951393
 11
50.92451374775462
 21
23.160816906859445
  0
LINE
  8
0
 10
50.92451374775462
 20
23.160816906859445
 11
50.47456441229975
 21
24.3072691163293
  0
LINE
  8
0
 10
50.47456441229975
 20
24.3072691163293
 11
49.85877080380041
 21
25.373854933226358
  0
LINE
  8
0
 10
49.85877080380041
 20
25.373854933226358
 11
49.52177066326935
 21
25.347245477056127
  0
LINE
  8
0
 10
49.52177066326935
 20
25.347245477056127
 11
48.59264270119128
 21
25.227037183900233
  0
LINE
  8
0
 10
48.59264270119128
 20
25.227037183900233
 11
47.7976332029568
 21
25.083577217638204
  0
LINE
  8
0
 10
47.7976332029568
 20
25.083577217638204
 11
47.13643453914447
 21
24.92988026563869
  0
LINE
  8
0
 10
47.13643453914447
 20
24.92988026563869
 11
46.60777829450487
 21
24.77885687571383
  0
LINE
  8
0
 10
46.60777829450487
 20
24.77885687571383
 11
46.209445661784
 21
24.643250210806258
  0
LINE
  8
0
 10
46.209445661784
 20
24.643250210806258
 11
45.93828174194309
 21
24.535573619438534
  0
LINE
  8
0
 10
45.93828174194309
 20
24.535573619438534
 11
45.62492220807898
 21
24.392670379910225
  0
LINE
  8
0
 10
45.62492220807898
 20
24.392670379910225
 11
45.22743130148444
 21
24.253301728525685
  0
LINE
  8
0
 10
45.22743130148444
 20
24.253301728525685
 11
44.93334730918929
 21
24.208820722799242
  0
LINE
  8
0
 10
44.93334730918929
 20
24.208820722799242
 11
44.75086839498222
 21
24.248385835875585
  0
LINE
  8
0
 10
44.75086839498222
 20
24.248385835875585
 11
43.37515233212611
 21
26.63119595353097
  0
LINE
  8
0
 10
43.37515233212611
 20
26.63119595353097
 11
43.4321273962016
 21
26.809009885427844
  0
LINE
  8
0
 10
43.4321273962016
 20
26.809009885427844
 11
43.61769107329553
 21
27.041453590736783
  0
LINE
  8
0
 10
43.61769107329553
 20
27.041453590736783
 11
43.93713331918195
 21
27.3160064879301
  0
LINE
  8
0
 10
43.93713331918195
 20
27.3160064879301
 11
44.2175709218283
 21
27.51593218500956
  0
LINE
  8
0
 10
44.2175709218283
 20
27.51593218500956
 11
44.44640354526629
 21
27.696928732498495
  0
LINE
  8
0
 10
44.44640354526629
 20
27.696928732498495
 11
44.76300867835933
 21
27.97409157913732
  0
LINE
  8
0
 10
44.76300867835933
 20
27.97409157913732
 11
45.158126892919725
 21
28.35640962190208
  0
LINE
  8
0
 10
45.158126892919725
 20
28.35640962190208
 11
45.62183168974213
 21
28.852175985712602
  0
LINE
  8
0
 10
45.62183168974213
 20
28.852175985712602
 11
46.14357641406786
 21
29.468944424302013
  0
LINE
  8
0
 10
46.14357641406786
 20
29.468944424302013
 11
46.7122438307256
 21
30.213488696250295
  0
LINE
  8
0
 10
46.7122438307256
 20
30.213488696250295
 11
46.90378836601531
 21
30.492034650943847
  0
LINE
  8
0
 10
46.90378836601531
 20
30.492034650943847
 11
46.28799475751597
 21
31.558620467840896
  0
LINE
  8
0
 10
46.28799475751597
 20
31.558620467840896
 11
45.52011268761774
 21
32.521514127495664
  0
LINE
  8
0
 10
45.52011268761774
 20
32.521514127495664
 11
45.19084249386773
 21
32.444974612319015
  0
LINE
  8
0
 10
45.19084249386773
 20
32.444974612319015
 11
44.290008239882326
 21
32.18762960944279
  0
LINE
  8
0
 10
44.290008239882326
 20
32.18762960944279
 11
43.52525993936356
 21
31.927281955225233
  0
LINE
  8
0
 10
43.52525993936356
 20
31.927281955225233
 11
42.894353660357424
 21
31.676755123944023
  0
LINE
  8
0
 10
42.894353660357424
 20
31.676755123944023
 11
42.3941109374614
 21
31.448626415776033
  0
LINE
  8
0
 10
42.3941109374614
 20
31.448626415776033
 11
42.02043847578201
 21
31.2551659670012
  0
LINE
  8
0
 10
42.02043847578201
 20
31.2551659670012
 11
41.768351596074844
 21
31.108277149075647
  0
LINE
  8
0
 10
41.768351596074844
 20
31.108277149075647
 11
41.479790651961686
 21
30.920266205607604
  0
LINE
  8
0
 10
41.479790651961686
 20
30.920266205607604
 11
41.107511210013094
 21
30.723211241405874
  0
LINE
  8
0
 10
41.107511210013094
 20
30.723211241405874
 11
40.82334144282757
 21
30.635396107104263
  0
LINE
  8
0
 10
40.82334144282757
 20
30.635396107104263
 11
40.63700379320911
 21
30.647322239654446
  0
LINE
  8
0
 10
40.63700379320911
 20
30.647322239654446
 11
38.921513922321054
 21
32.79847849741018
  0
LINE
  8
0
 10
38.921513922321054
 20
32.79847849741018
 11
38.951350830637445
 21
32.98279808726745
  0
LINE
  8
0
 10
38.951350830637445
 20
32.98279808726745
 11
39.100197978177974
 21
33.240302419392975
  0
LINE
  8
0
 10
39.100197978177974
 20
33.240302419392975
 11
39.37515233212612
 21
33.55939918380646
  0
LINE
  8
0
 10
39.37515233212612
 20
33.55939918380646
 11
39.622660299495934
 21
33.79888893185261
  0
LINE
  8
0
 10
39.622660299495934
 20
33.79888893185261
 11
39.82196091598958
 21
34.01196963022222
  0
LINE
  8
0
 10
39.82196091598958
 20
34.01196963022222
 11
40.093720852570186
 21
34.33322434338219
  0
LINE
  8
0
 10
40.093720852570186
 20
34.33322434338219
 11
40.42744437563684
 21
34.77016152359562
  0
LINE
  8
0
 10
40.42744437563684
 20
34.77016152359562
 11
40.81207983064705
 21
35.32950220049217
  0
LINE
  8
0
 10
40.81207983064705
 20
35.32950220049217
 11
41.23607253168736
 21
36.01714386129109
  0
LINE
  8
0
 10
41.23607253168736
 20
36.01714386129109
 11
41.68741983758868
 21
36.838127669362116
  0
LINE
  8
0
 10
41.68741983758868
 20
36.838127669362116
 11
41.83530985835641
 21
37.14211072749666
  0
LINE
  8
0
 10
41.83530985835641
 20
37.14211072749666
 11
41.06742778845813
 21
38.10500438715143
  0
LINE
  8
0
 10
41.06742778845813
 20
38.10500438715143
 11
40.16461047371556
 21
38.9426964363411
  0
LINE
  8
0
 10
40.16461047371556
 20
38.9426964363411
 11
39.8504255787724
 21
38.81793662844934
  0
LINE
  8
0
 10
39.8504255787724
 20
38.81793662844934
 11
38.99800818152991
 21
38.42920357796723
  0
LINE
  8
0
 10
38.99800818152991
 20
38.42920357796723
 11
38.280604292051905
 21
38.05778397217781
  0
LINE
  8
0
 10
38.280604292051905
 20
38.05778397217781
 11
37.694083801583744
 21
37.716023617042595
  0
LINE
  8
0
 10
37.694083801583744
 20
37.716023617042595
 11
37.23342919623455
 21
37.415885609000604
  0
LINE
  8
0
 10
37.23342919623455
 20
37.415885609000604
 11
36.892764130915396
 21
37.168892963100376
  0
LINE
  8
0
 10
36.892764130915396
 20
37.168892963100376
 11
36.665385495673625
 21
36.98607317208298
  0
LINE
  8
0
 10
36.665385495673625
 20
36.98607317208298
 11
36.4080691159703
 21
36.75715437847355
  0
LINE
  8
0
 10
36.4080691159703
 20
36.75715437847355
 11
36.06931724622754
 21
36.506814983731374
  0
LINE
  8
0
 10
36.06931724622754
 20
36.506814983731374
 11
35.80140958717415
 21
36.37762736584476
  0
LINE
  8
0
 10
35.80140958717415
 20
36.37762736584476
 11
35.61537567732309
 21
36.36164810777494
  0
LINE
  8
0
 10
35.61537567732309
 20
36.36164810777494
 11
33.59843320735703
 21
38.23309722951147
  0
LINE
  8
0
 10
33.59843320735703
 20
38.23309722951147
 11
33.60046545268654
 21
38.41980508227068
  0
LINE
  8
0
 10
33.60046545268654
 20
38.41980508227068
 11
33.70927107136013
 21
38.69661781994622
  0
LINE
  8
0
 10
33.70927107136013
 20
38.69661781994622
 11
33.933595507451194
 21
39.05313035715441
  0
LINE
  8
0
 10
33.933595507451194
 20
39.05313035715441
 11
34.14264492054804
 21
39.32683435094078
  0
LINE
  8
0
 10
34.14264492054804
 20
39.32683435094078
 11
34.30796148365921
 21
39.56723932949476
  0
LINE
  8
0
 10
34.30796148365921
 20
39.56723932949476
 11
34.52880555581397
 21
39.925409609741315
  0
LINE
  8
0
 10
34.52880555581397
 20
39.925409609741315
 11
34.79367955534309
 21
40.407205472814375
  0
LINE
  8
0
 10
34.79367955534309
 20
40.407205472814375
 11
35.09065354806713
 21
41.01762571635775
  0
LINE
  8
0
 10
35.09065354806713
 20
41.01762571635775
 11
35.40742292950763
 21
41.76077982095757
  0
LINE
  8
0
 10
35.40742292950763
 20
41.76077982095757
 11
35.731367771667664
 21
42.63986374351394
  0
LINE
  8
0
 10
35.731367771667664
 20
42.63986374351394
 11
35.8322996592303
 21
42.9624934258876
  0
LINE
  8
0
 10
35.8322996592303
 20
42.9624934258876
 11
34.92948234448772
 21
43.800185475077264
  0
LINE
  8
0
 10
34.92948234448772
 20
43.800185475077264
 11
33.91189723185153
 21
44.493963257667446
  0
LINE
  8
0
 10
33.91189723185153
 20
44.493963257667446
 11
33.6198160070933
 21
44.323770085009464
  0
LINE
  8
0
 10
33.6198160070933
 20
44.323770085009464
 11
32.83485706267076
 21
43.81233264090721
  0
LINE
  8
0
 10
32.83485706267076
 20
43.81233264090721
 11
32.18082320165022
 21
43.33813798378684
  0
LINE
  8
0
 10
32.18082320165022
 20
43.33813798378684
 11
31.65179039828114
 21
42.912778466389355
  0
LINE
  8
0
 10
31.65179039828114
 20
42.912778466389355
 11
31.24101417315347
 21
42.54733574560989
  0
LINE
  8
0
 10
31.24101417315347
 20
42.54733574560989
 11
30.94096639882172
 21
42.252328310150624
  0
LINE
  8
0
 10
30.94096639882172
 20
42.252328310150624
 11
30.743375271024735
 21
42.03766143807211
  0
LINE
  8
0
 10
30.743375271024735
 20
42.03766143807211
 11
30.523051478451304
 21
41.7729484618936
  0
LINE
  8
0
 10
30.523051478451304
 20
41.7729484618936
 11
30.22539433791381
 21
41.474916805016115
  0
LINE
  8
0
 10
30.22539433791381
 20
41.474916805016115
 11
29.97973340139173
 21
41.30724254145196
  0
LINE
  8
0
 10
29.97973340139173
 20
41.30724254145196
 11
29.79815892144235
 21
41.26371484298251
  0
LINE
  8
0
 10
29.79815892144235
 20
41.26371484298251
 11
27.524819014280244
 21
42.81365174779682
  0
LINE
  8
0
 10
27.524819014280244
 20
42.81365174779682
 11
27.49900119962039
 21
42.99857711855277
  0
LINE
  8
0
 10
27.49900119962039
 20
42.99857711855277
 11
27.56533475170174
 21
43.28851472263792
  0
LINE
  8
0
 10
27.56533475170174
 20
43.28851472263792
 11
27.734018232718434
 21
43.67447913167882
  0
LINE
  8
0
 10
27.734018232718434
 20
43.67447913167882
 11
27.899939273097463
 21
43.976283276266464
  0
LINE
  8
0
 10
27.899939273097463
 20
43.976283276266464
 11
28.02757888398367
 21
44.23864228504118
  0
LINE
  8
0
 10
28.02757888398367
 20
44.23864228504118
 11
28.192573800074477
 21
44.625727200172186
  0
LINE
  8
0
 10
28.192573800074477
 20
44.625727200172186
 11
28.382681428607693
 21
45.141619222667536
  0
LINE
  8
0
 10
28.382681428607693
 20
45.141619222667536
 11
28.585360050782874
 21
45.78948325330606
  0
LINE
  8
0
 10
28.585360050782874
 20
45.78948325330606
 11
28.787830008087823
 21
46.57154896703521
  0
LINE
  8
0
 10
28.787830008087823
 20
46.57154896703521
 11
28.97713599403545
 21
47.48909572188947
  0
LINE
  8
0
 10
28.97713599403545
 20
47.48909572188947
 11
29.02885509680982
 21
47.82316501452756
  0
LINE
  8
0
 10
29.02885509680982
 20
47.82316501452756
 11
28.01126998417356
 21
48.51694279711767
  0
LINE
  8
0
 10
28.01126998417356
 20
48.51694279711767
 11
26.901648243551175
 21
49.05130846387849
  0
LINE
  8
0
 10
26.901648243551175
 20
49.05130846387849
 11
26.63819530088932
 21
48.83948376069576
  0
LINE
  8
0
 10
26.63819530088932
 20
48.83948376069576
 11
25.938229494999526
 21
48.216766590349664
  0
LINE
  8
0
 10
25.938229494999526
 20
48.216766590349664
 11
25.362175698133225
 21
47.65038960695533
  0
LINE
  8
0
 10
25.362175698133225
 20
47.65038960695533
 11
24.902448300490114
 21
47.15093275602879
  0
LINE
  8
0
 10
24.902448300490114
 20
47.15093275602879
 11
24.55072651766604
 21
46.72834870901816
  0
LINE
  8
0
 10
24.55072651766604
 20
46.72834870901816
 11
24.29799860578623
 21
46.391916462622895
  0
LINE
  8
0
 10
24.29799860578623
 20
46.391916462622895
 11
24.13460884471952
 21
46.15019781267915
  0
LINE
  8
0
 10
24.13460884471952
 20
46.15019781267915
 11
23.956199308727964
 21
45.855603904394385
  0
LINE
  8
0
 10
23.956199308727964
 20
45.855603904394385
 11
23.706286066051725
 21
45.516537520113744
  0
LINE
  8
0
 10
23.706286066051725
 20
45.516537520113744
 11
23.48835951144038
 21
45.3141221768467
  0
LINE
  8
0
 10
23.48835951144038
 20
45.3141221768467
 11
23.315300535231955
 21
45.24401837483406
  0
LINE
  8
0
 10
23.315300535231955
 20
45.24401837483406
 11
20.83634584781868
 21
46.43782003346623
  0
LINE
  8
0
 10
20.83634584781868
 20
46.43782003346623
 11
20.78325470048632
 21
46.6168319950162
  0
LINE
  8
0
 10
20.78325470048632
 20
46.6168319950162
 11
20.805634404034826
 21
46.91341773854318
  0
LINE
  8
0
 10
20.805634404034826
 20
46.91341773854318
 11
20.914908819752288
 21
47.320212212305805
  0
LINE
  8
0
 10
20.914908819752288
 20
47.320212212305805
 11
21.033995085547716
 21
47.64337470182097
  0
LINE
  8
0
 10
21.033995085547716
 20
47.64337470182097
 11
21.121106486219855
 21
47.921827074095596
  0
LINE
  8
0
 10
21.121106486219855
 20
47.921827074095596
 11
21.226566532467135
 21
48.3291797867456
  0
LINE
  8
0
 10
21.226566532467135
 20
48.3291797867456
 11
21.33766109972642
 21
48.867643793366604
  0
LINE
  8
0
 10
21.33766109972642
 20
48.867643793366604
 11
21.44151684584968
 21
49.53847939921888
  0
LINE
  8
0
 10
21.44151684584968
 20
49.53847939921888
 11
21.525164534744416
 21
50.34198666635734
  0
LINE
  8
0
 10
21.525164534744416
 20
50.34198666635734
 11
21.5756028815723
 21
51.277499775206415
  0
LINE
  8
0
 10
21.5756028815723
 20
51.277499775206415
 11
21.57695388026566
 21
51.61554612214429
  0
LINE
  8
0
 10
21.57695388026566
 20
51.61554612214429
 11
20.46733213964325
 21
52.14991178890506
  0
LINE
  8
0
 10
20.46733213964325
 20
52.14991178890506
 11
19.29046088712548
 21
52.512928493853785
  0
LINE
  8
0
 10
19.29046088712548
 20
52.512928493853785
 11
19.061521329956157
 21
52.264204073985596
  0
LINE
  8
0
 10
19.061521329956157
 20
52.264204073985596
 11
18.462184742044013
 21
51.544117649972044
  0
LINE
  8
0
 10
18.462184742044013
 20
51.544117649972044
 11
17.976979099253704
 21
50.898210266203
  0
LINE
  8
0
 10
17.976979099253704
 20
50.898210266203
 11
17.596826657723245
 21
50.3358131224695
  0
LINE
  8
0
 10
17.596826657723245
 20
50.3358131224695
 11
17.312016200628303
 21
49.86552757853879
  0
LINE
  8
0
 10
17.312016200628303
 20
49.86552757853879
 11
17.112253675131534
 21
49.49518586165444
  0
LINE
  8
0
 10
17.112253675131534
 20
49.49518586165444
 11
16.986715138063868
 21
49.231815029057195
  0
LINE
  8
0
 10
16.986715138063868
 20
49.231815029057195
 11
16.85420523287536
 21
48.91392092977544
  0
LINE
  8
0
 10
16.85420523287536
 20
48.91392092977544
 11
16.657618536932556
 21
48.54139400082616
  0
LINE
  8
0
 10
16.657618536932556
 20
48.54139400082616
 11
16.472294483349177
 21
48.30875920214353
  0
LINE
  8
0
 10
16.472294483349177
 20
48.30875920214353
 11
16.311616862438854
 21
48.21364529968161
  0
LINE
  8
0
 10
16.311616862438854
 20
48.21364529968161
 11
13.682423146141915
 21
49.02464415577567
  0
LINE
  8
0
 10
13.682423146141915
 20
49.02464415577567
 11
13.603244634637969
 21
49.19374387670699
  0
LINE
  8
0
 10
13.603244634637969
 20
49.19374387670699
 11
13.581170564057702
 21
49.49035252425858
  0
LINE
  8
0
 10
13.581170564057702
 20
49.49035252425858
 11
13.628594904599344
 21
49.9088899464067
  0
LINE
  8
0
 10
13.628594904599344
 20
49.9088899464067
 11
13.698186205417425
 21
50.24619186484357
  0
LINE
  8
0
 10
13.698186205417425
 20
50.24619186484357
 11
13.742823471131747
 21
50.534517434750185
  0
LINE
  8
0
 10
13.742823471131747
 20
50.534517434750185
 11
13.786392844369816
 21
50.95303835844868
  0
LINE
  8
0
 10
13.786392844369816
 20
50.95303835844868
 11
13.815992681300843
 21
51.502045953072404
  0
LINE
  8
0
 10
13.815992681300843
 20
51.502045953072404
 11
13.818705585620238
 21
52.180867775226176
  0
LINE
  8
0
 10
13.818705585620238
 20
52.180867775226176
 11
13.781662454958505
 21
52.98786757118187
  0
LINE
  8
0
 10
13.781662454958505
 20
52.98786757118187
 11
13.692106453345366
 21
53.92044921706294
  0
LINE
  8
0
 10
13.692106453345366
 20
53.92044921706294
 11
13.643059168879368
 21
54.25492122151483
  0
LINE
  8
0
 10
13.643059168879368
 20
54.25492122151483
 11
12.46618791636158
 21
54.617937926463526
  0
LINE
  8
0
 10
12.46618791636158
 20
54.617937926463526
 11
11.24835651100845
 21
54.80149647627857
  0
LINE
  8
0
 10
11.24835651100845
 20
54.80149647627857
 11
11.059044470727601
 21
54.52142843226006
  0
LINE
  8
0
 10
11.059044470727601
 20
54.52142843226006
 11
10.573725289793162
 21
53.72005829538452
  0
LINE
  8
0
 10
10.573725289793162
 20
53.72005829538452
 11
10.190206493360591
 21
53.009049014864324
  0
LINE
  8
0
 10
10.190206493360591
 20
53.009049014864324
 11
9.898120985303573
 21
52.39627460118157
  0
LINE
  8
0
 10
9.898120985303573
 20
52.39627460118157
 11
9.686584048914154
 21
51.888792962258734
  0
LINE
  8
0
 10
9.686584048914154
 20
51.888792962258734
 11
9.544249274522382
 21
51.49281459686924
  0
LINE
  8
0
 10
9.544249274522382
 20
51.49281459686924
 11
9.459366284925672
 21
51.213674850811486
  0
LINE
  8
0
 10
9.459366284925672
 20
51.213674850811486
 11
9.375716062856089
 21
50.879581789406544
  0
LINE
  8
0
 10
9.375716062856089
 20
50.879581789406544
 11
9.236847335584354
 21
50.48191595179911
  0
LINE
  8
0
 10
9.236847335584354
 20
50.48191595179911
 11
9.088265616147204
 21
50.224258374686016
  0
LINE
  8
0
 10
9.088265616147204
 20
50.224258374686016
 11
8.943558623074347
 21
50.10625905918483
  0
LINE
  8
0
 10
8.943558623074347
 20
50.10625905918483
 11
6.222857720903986
 21
50.5163387384309
  0
LINE
  8
0
 10
6.222857720903986
 20
50.5163387384309
 11
6.1193605623369
 21
50.671748810406854
  0
LINE
  8
0
 10
6.1193605623369
 20
50.671748810406854
 11
6.053325815888321
 21
50.96175461492781
  0
LINE
  8
0
 10
6.053325815888321
 20
50.96175461492781
 11
6.037840699852807
 21
51.3826855510629
  0
LINE
  8
0
 10
6.037840699852807
 20
51.3826855510629
 11
6.05638248102943
 21
51.72659213093822
  0
LINE
  8
0
 10
6.05638248102943
 20
51.72659213093822
 11
6.057548489030733
 21
52.01835018168879
  0
LINE
  8
0
 10
6.057548489030733
 20
52.01835018168879
 11
6.038253921457676
 21
52.43869025058534
  0
LINE
  8
0
 10
6.038253921457676
 20
52.43869025058534
 11
5.9856978166156605
 21
52.98597751075564
  0
LINE
  8
0
 10
5.9856978166156605
 20
52.98597751075564
 11
5.88720727733164
 21
53.65762179142329
  0
LINE
  8
0
 10
5.88720727733164
 20
53.65762179142329
 11
5.730300809440488
 21
54.450087074281576
  0
LINE
  8
0
 10
5.730300809440488
 20
54.450087074281576
 11
5.5027509924755265
 21
55.35890492427045
  0
LINE
  8
0
 10
5.5027509924755265
 20
55.35890492427045
 11
5.404401060136914
 21
55.68233103435515
  0
LINE
  8
0
 10
5.404401060136914
 20
55.68233103435515
 11
4.186569654783775
 21
55.86588958417025
  0
LINE
  8
0
 10
4.186569654783775
 20
55.86588958417025
 11
2.954982437785082
 21
55.86588958417021
  0
LINE
  8
0
 10
2.954982437785082
 20
55.86588958417021
 11
2.809526832543855
 21
55.560734173306265
  0
LINE
  8
0
 10
2.809526832543855
 20
55.560734173306265
 11
2.449066287123393
 21
54.695981608202246
  0
LINE
  8
0
 10
2.449066287123393
 20
54.695981608202246
 11
2.1758015132151294
 21
53.93575320335025
  0
LINE
  8
0
 10
2.1758015132151294
 20
53.93575320335025
 11
1.9783076462247753
 21
53.28628988754068
  0
LINE
  8
0
 10
1.9783076462247753
 20
53.28628988754068
 11
1.844769616145553
 21
52.752948454851094
  0
LINE
  8
0
 10
1.844769616145553
 20
52.752948454851094
 11
1.7630421165175583
 21
52.34017894330469
  0
LINE
  8
0
 10
1.7630421165175583
 20
52.34017894330469
 11
1.7207108201144723
 21
52.05150580444884
  0
LINE
  8
0
 10
1.7207108201144723
 20
52.05150580444884
 11
1.6877888888970198
 21
51.70867686784031
  0
LINE
  8
0
 10
1.6877888888970198
 20
51.70867686784031
 11
1.6097402281899371
 21
51.29475531926386
  0
LINE
  8
0
 10
1.6097402281899371
 20
51.29475531926386
 11
1.5012199129873478
 21
51.01783060822669
  0
LINE
  8
0
 10
1.5012199129873478
 20
51.01783060822669
 11
1.3757160628560938
 21
50.87958178940654
  0
LINE
  8
0
 10
1.3757160628560938
 20
50.87958178940654
 11
-1.3757160628561103
 21
50.87958178940653
  0
LINE
  8
0
 10
-1.3757160628561103
 20
50.87958178940653
 11
-1.5012199129878545
 21
51.01783060822659
  0
LINE
  8
0
 10
-1.5012199129878545
 20
51.01783060822659
 11
-1.6097402281882145
 21
51.294755319264056
  0
LINE
  8
0
 10
-1.6097402281882145
 20
51.294755319264056
 11
-1.687788888897038
 21
51.7086768678403
  0
LINE
  8
0
 10
-1.687788888897038
 20
51.7086768678403
 11
-1.7207108201139878
 21
52.051505804448176
  0
LINE
  8
0
 10
-1.7207108201139878
 20
52.051505804448176
 11
-1.7630421165176813
 21
52.34017894330459
  0
LINE
  8
0
 10
-1.7630421165176813
 20
52.34017894330459
 11
-1.8447696161455964
 21
52.75294845485112
  0
LINE
  8
0
 10
-1.8447696161455964
 20
52.75294845485112
 11
-1.9783076462248312
 21
53.286289887540754
  0
LINE
  8
0
 10
-1.9783076462248312
 20
53.286289887540754
 11
-2.1758015132153794
 21
53.93575320335092
  0
LINE
  8
0
 10
-2.1758015132153794
 20
53.93575320335092
 11
-2.4490662871233995
 21
54.695981608202224
  0
LINE
  8
0
 10
-2.4490662871233995
 20
54.695981608202224
 11
-2.8095268325439378
 21
55.56073417330643
  0
LINE
  8
0
 10
-2.8095268325439378
 20
55.56073417330643
 11
-2.9549824377850786
 21
55.86588958417018
  0
LINE
  8
0
 10
-2.9549824377850786
 20
55.86588958417018
 11
-4.186569654783774
 21
55.865889584170176
  0
LINE
  8
0
 10
-4.186569654783774
 20
55.865889584170176
 11
-5.404401060136894
 21
55.682331034355116
  0
LINE
  8
0
 10
-5.404401060136894
 20
55.682331034355116
 11
-5.502750992475571
 21
55.35890492427028
  0
LINE
  8
0
 10
-5.502750992475571
 20
55.35890492427028
 11
-5.730300809440484
 21
54.450087074281605
  0
LINE
  8
0
 10
-5.730300809440484
 20
54.450087074281605
 11
-5.887207277331777
 21
53.65762179142259
  0
LINE
  8
0
 10
-5.887207277331777
 20
53.65762179142259
 11
-5.985697816615693
 21
52.98597751075556
  0
LINE
  8
0
 10
-5.985697816615693
 20
52.98597751075556
 11
-6.038253921457701
 21
52.4386902505853
  0
LINE
  8
0
 10
-6.038253921457701
 20
52.4386902505853
 11
-6.057548489030858
 21
52.01835018168887
  0
LINE
  8
0
 10
-6.057548489030858
 20
52.01835018168887
 11
-6.056382481029036
 21
51.72659213093895
  0
LINE
  8
0
 10
-6.056382481029036
 20
51.72659213093895
 11
-6.037840699852814
 21
51.382685551062906
  0
LINE
  8
0
 10
-6.037840699852814
 20
51.382685551062906
 11
-6.053325815886578
 21
50.96175461492787
  0
LINE
  8
0
 10
-6.053325815886578
 20
50.96175461492787
 11
-6.119360562337403
 21
50.67174881040689
  0
LINE
  8
0
 10
-6.119360562337403
 20
50.67174881040689
 11
-6.22285772090399
 21
50.51633873843091
  0
LINE
  8
0
 10
-6.22285772090399
 20
50.51633873843091
 11
-8.94355862307435
 21
50.10625905918483
  0
LINE
  8
0
 10
-8.94355862307435
 20
50.10625905918483
 11
-9.088265616147678
 21
50.224258374685846
  0
LINE
  8
0
 10
-9.088265616147678
 20
50.224258374685846
 11
-9.23684733558267
 21
50.481915951799564
  0
LINE
  8
0
 10
-9.23684733558267
 20
50.481915951799564
 11
-9.375716062856096
 21
50.879581789406544
  0
LINE
  8
0
 10
-9.375716062856096
 20
50.879581789406544
 11
-9.459366284925085
 21
51.21367485081092
  0
LINE
  8
0
 10
-9.459366284925085
 20
51.21367485081092
 11
-9.544249274522478
 21
51.492814596869124
  0
LINE
  8
0
 10
-9.544249274522478
 20
51.492814596869124
 11
-9.686584048914192
 21
51.88879296225876
  0
LINE
  8
0
 10
-9.686584048914192
 20
51.88879296225876
 11
-9.898120985303626
 21
52.39627460118164
  0
LINE
  8
0
 10
-9.898120985303626
 20
52.39627460118164
 11
-10.190206493360925
 21
53.00904901486494
  0
LINE
  8
0
 10
-10.190206493360925
 20
53.00904901486494
 11
-10.57372528979315
 21
53.7200582953845
  0
LINE
  8
0
 10
-10.57372528979315
 20
53.7200582953845
 11
-11.059044470727695
 21
54.52142843226021
  0
LINE
  8
0
 10
-11.059044470727695
 20
54.52142843226021
 11
-11.248356511008431
 21
54.80149647627857
  0
LINE
  8
0
 10
-11.248356511008431
 20
54.80149647627857
 11
-12.46618791636157
 21
54.61793792646348
  0
LINE
  8
0
 10
-12.46618791636157
 20
54.61793792646348
 11
-13.643059168879352
 21
54.25492122151478
  0
LINE
  8
0
 10
-13.643059168879352
 20
54.25492122151478
 11
-13.692106453345396
 21
53.92044921706276
  0
LINE
  8
0
 10
-13.692106453345396
 20
53.92044921706276
 11
-13.781662454958518
 21
52.987867571181894
  0
LINE
  8
0
 10
-13.781662454958518
 20
52.987867571181894
 11
-13.818705585620283
 21
52.180867775225465
  0
LINE
  8
0
 10
-13.818705585620283
 20
52.180867775225465
 11
-13.815992681300873
 21
51.50204595307232
  0
LINE
  8
0
 10
-13.815992681300873
 20
51.50204595307232
 11
-13.786392844369848
 21
50.95303835844863
  0
LINE
  8
0
 10
-13.786392844369848
 20
50.95303835844863
 11
-13.742823471131896
 21
50.53451743475025
  0
LINE
  8
0
 10
-13.742823471131896
 20
50.53451743475025
 11
-13.698186205417157
 21
50.246191864844334
  0
LINE
  8
0
 10
-13.698186205417157
 20
50.246191864844334
 11
-13.628594904599364
 21
49.9088899464067
  0
LINE
  8
0
 10
-13.628594904599364
 20
49.9088899464067
 11
-13.581170564055999
 21
49.49035252425891
  0
LINE
  8
0
 10
-13.581170564055999
 20
49.49035252425891
 11
-13.603244634638486
 21
49.19374387670694
  0
LINE
  8
0
 10
-13.603244634638486
 20
49.19374387670694
 11
-13.682423146141932
 21
49.02464415577567
  0
LINE
  8
0
 10
-13.682423146141932
 20
49.02464415577567
 11
-16.311616862438868
 21
48.213645299681595
  0
LINE
  8
0
 10
-16.311616862438868
 20
48.213645299681595
 11
-16.47229448334963
 21
48.30875920214328
  0
LINE
  8
0
 10
-16.47229448334963
 20
48.30875920214328
 11
-16.657618536930972
 21
48.54139400082686
  0
LINE
  8
0
 10
-16.657618536930972
 20
48.54139400082686
 11
-16.854205232875376
 21
48.91392092977544
  0
LINE
  8
0
 10
-16.854205232875376
 20
48.91392092977544
 11
-16.986715138063214
 21
49.23181502905671
  0
LINE
  8
0
 10
-16.986715138063214
 20
49.23181502905671
 11
-17.112253675131623
 21
49.49518586165431
  0
LINE
  8
0
 10
-17.112253675131623
 20
49.49518586165431
 11
-17.312016200628353
 21
49.86552757853882
  0
LINE
  8
0
 10
-17.312016200628353
 20
49.86552757853882
 11
-17.59682665772332
 21
50.33581312246955
  0
LINE
  8
0
 10
-17.59682665772332
 20
50.33581312246955
 11
-17.97697909925414
 21
50.898210266203556
  0
LINE
  8
0
 10
-17.97697909925414
 20
50.898210266203556
 11
-18.462184742044013
 21
51.54411764997202
  0
LINE
  8
0
 10
-18.462184742044013
 20
51.54411764997202
 11
-19.061521329956285
 21
52.26420407398573
  0
LINE
  8
0
 10
-19.061521329956285
 20
52.26420407398573
 11
-19.290460887125466
 21
52.51292849385376
  0
LINE
  8
0
 10
-19.290460887125466
 20
52.51292849385376
 11
-20.467332139643243
 21
52.149911788905065
  0
LINE
  8
0
 10
-20.467332139643243
 20
52.149911788905065
 11
-21.57695388026564
 21
51.615546122144266
  0
LINE
  8
0
 10
-21.57695388026564
 20
51.615546122144266
 11
-21.575602881572294
 21
51.27749977520624
  0
LINE
  8
0
 10
-21.575602881572294
 20
51.27749977520624
 11
-21.525164534744423
 21
50.34198666635737
  0
LINE
  8
0
 10
-21.525164534744423
 20
50.34198666635737
 11
-21.441516845849605
 21
49.538479399218176
  0
LINE
  8
0
 10
-21.441516845849605
 20
49.538479399218176
 11
-21.337661099726432
 21
48.86764379336652
  0
LINE
  8
0
 10
-21.337661099726432
 20
48.86764379336652
 11
-21.22656653246715
 21
48.329179786745556
  0
LINE
  8
0
 10
-21.22656653246715
 20
48.329179786745556
 11
-21.12110648622
 21
47.92182707409564
  0
LINE
  8
0
 10
-21.12110648622
 20
47.92182707409564
 11
-21.03399508554755
 21
47.64337470182178
  0
LINE
  8
0
 10
-21.03399508554755
 20
47.64337470182178
 11
-20.914908819752295
 21
47.3202122123058
  0
LINE
  8
0
 10
-20.914908819752295
 20
47.3202122123058
 11
-20.805634404033174
 21
46.91341773854375
  0
LINE
  8
0
 10
-20.805634404033174
 20
46.91341773854375
 11
-20.78325470048681
 21
46.61683199501608
  0
LINE
  8
0
 10
-20.78325470048681
 20
46.61683199501608
 11
-20.836345847818688
 21
46.43782003346624
  0
LINE
  8
0
 10
-20.836345847818688
 20
46.43782003346624
 11
-23.31530053523196
 21
45.244018374834056
  0
LINE
  8
0
 10
-23.31530053523196
 20
45.244018374834056
 11
-23.48835951144078
 21
45.314122176846396
  0
LINE
  8
0
 10
-23.48835951144078
 20
45.314122176846396
 11
-23.70628606605025
 21
45.51653752011468
  0
LINE
  8
0
 10
-23.70628606605025
 20
45.51653752011468
 11
-23.95619930872797
 21
45.85560390439438
  0
LINE
  8
0
 10
-23.95619930872797
 20
45.85560390439438
 11
-24.13460884471879
 21
46.15019781267878
  0
LINE
  8
0
 10
-24.13460884471879
 20
46.15019781267878
 11
-24.297998605786287
 21
46.39191646262275
  0
LINE
  8
0
 10
-24.297998605786287
 20
46.39191646262275
 11
-24.55072651766608
 21
46.72834870901818
  0
LINE
  8
0
 10
-24.55072651766608
 20
46.72834870901818
 11
-24.90244830049018
 21
47.15093275602884
  0
LINE
  8
0
 10
-24.90244830049018
 20
47.15093275602884
 11
-25.36217569813373
 21
47.650389606955834
  0
LINE
  8
0
 10
-25.36217569813373
 20
47.650389606955834
 11
-25.938229494999508
 21
48.21676659034964
  0
LINE
  8
0
 10
-25.938229494999508
 20
48.21676659034964
 11
-26.638195300889453
 21
48.83948376069587
  0
LINE
  8
0
 10
-26.638195300889453
 20
48.83948376069587
 11
-26.90164824355113
 21
49.051308463878414
  0
LINE
  8
0
 10
-26.90164824355113
 20
49.051308463878414
 11
-28.01126998417352
 21
48.51694279711763
  0
LINE
  8
0
 10
-28.01126998417352
 20
48.51694279711763
 11
-29.02885509680981
 21
47.8231650145276
  0
LINE
  8
0
 10
-29.02885509680981
 20
47.8231650145276
 11
-28.977135994035397
 21
47.4890957218893
  0
LINE
  8
0
 10
-28.977135994035397
 20
47.4890957218893
 11
-28.787830008087813
 21
46.57154896703525
  0
LINE
  8
0
 10
-28.787830008087813
 20
46.57154896703525
 11
-28.58536005078268
 21
45.78948325330539
  0
LINE
  8
0
 10
-28.58536005078268
 20
45.78948325330539
 11
-28.382681428607672
 21
45.14161922266747
  0
LINE
  8
0
 10
-28.382681428607672
 20
45.14161922266747
 11
-28.192573800074467
 21
44.62572720017215
  0
LINE
  8
0
 10
-28.192573800074467
 20
44.62572720017215
 11
-28.0275788839838
 21
44.238642285041216
  0
LINE
  8
0
 10
-28.0275788839838
 20
44.238642285041216
 11
-27.899939273097406
 21
43.9762832762673
  0
LINE
  8
0
 10
-27.899939273097406
 20
43.9762832762673
 11
-27.73401823271842
 21
43.67447913167884
  0
LINE
  8
0
 10
-27.73401823271842
 20
43.67447913167884
 11
-27.565334751700174
 21
43.288514722638745
  0
LINE
  8
0
 10
-27.565334751700174
 20
43.288514722638745
 11
-27.499001199620842
 21
42.99857711855259
  0
LINE
  8
0
 10
-27.499001199620842
 20
42.99857711855259
 11
-27.52481901428023
 21
42.81365174779684
  0
LINE
  8
0
 10
-27.52481901428023
 20
42.81365174779684
 11
-29.798158921442333
 21
41.26371484298252
  0
LINE
  8
0
 10
-29.798158921442333
 20
41.26371484298252
 11
-29.979733401392068
 21
41.30724254145162
  0
LINE
  8
0
 10
-29.979733401392068
 20
41.30724254145162
 11
-30.225394337912473
 21
41.47491680501728
  0
LINE
  8
0
 10
-30.225394337912473
 20
41.47491680501728
 11
-30.523051478451293
 21
41.77294846189362
  0
LINE
  8
0
 10
-30.523051478451293
 20
41.77294846189362
 11
-30.74337527102394
 21
42.037661438071865
  0
LINE
  8
0
 10
-30.74337527102394
 20
42.037661438071865
 11
-30.94096639882174
 21
42.252328310150496
  0
LINE
  8
0
 10
-30.94096639882174
 20
42.252328310150496
 11
-31.241014173153495
 21
42.54733574560993
  0
LINE
  8
0
 10
-31.241014173153495
 20
42.54733574560993
 11
-31.651790398281197
 21
42.912778466389405
  0
LINE
  8
0
 10
-31.651790398281197
 20
42.912778466389405
 11
-32.18082320165077
 21
43.33813798378728
  0
LINE
  8
0
 10
-32.18082320165077
 20
43.33813798378728
 11
-32.834857062670714
 21
43.81233264090721
  0
LINE
  8
0
 10
-32.834857062670714
 20
43.81233264090721
 11
-33.619816007093426
 21
44.32377008500958
  0
LINE
  8
0
 10
-33.619816007093426
 20
44.32377008500958
 11
-33.91189723185147
 21
44.49396325766745
  0
LINE
  8
0
 10
-33.91189723185147
 20
44.49396325766745
 11
-34.92948234448775
 21
43.8001854750773
  0
LINE
  8
0
 10
-34.92948234448775
 20
43.8001854750773
 11
-35.83229965923033
 21
42.96249342588765
  0
LINE
  8
0
 10
-35.83229965923033
 20
42.96249342588765
 11
-35.7313677716676
 21
42.63986374351377
  0
LINE
  8
0
 10
-35.7313677716676
 20
42.63986374351377
 11
-35.407422929507646
 21
41.76077982095759
  0
LINE
  8
0
 10
-35.407422929507646
 20
41.76077982095759
 11
-35.09065354806686
 21
41.0176257163571
  0
LINE
  8
0
 10
-35.09065354806686
 20
41.0176257163571
 11
-34.793679555343076
 21
40.4072054728143
  0
LINE
  8
0
 10
-34.793679555343076
 20
40.4072054728143
 11
-34.52880555581397
 21
39.925409609741266
  0
LINE
  8
0
 10
-34.52880555581397
 20
39.925409609741266
 11
-34.30796148365936
 21
39.56723932949475
  0
LINE
  8
0
 10
-34.30796148365936
 20
39.56723932949475
 11
-34.142644920548115
 21
39.326834350941596
  0
LINE
  8
0
 10
-34.142644920548115
 20
39.326834350941596
 11
-33.93359550745121
 21
39.0531303571544
  0
LINE
  8
0
 10
-33.93359550745121
 20
39.0531303571544
 11
-33.70927107135872
 21
38.69661781994724
  0
LINE
  8
0
 10
-33.70927107135872
 20
38.69661781994724
 11
-33.600465452686976
 21
38.41980508227041
  0
LINE
  8
0
 10
-33.600465452686976
 20
38.41980508227041
 11
-33.59843320735704
 21
38.23309722951147
  0
LINE
  8
0
 10
-33.59843320735704
 20
38.23309722951147
 11
-35.61537567732309
 21
36.36164810777493
  0
LINE
  8
0
 10
-35.61537567732309
 20
36.36164810777493
 11
-35.80140958717444
 21
36.37762736584434
  0
LINE
  8
0
 10
-35.80140958717444
 20
36.37762736584434
 11
-36.069317246226404
 21
36.506814983732696
  0
LINE
  8
0
 10
-36.069317246226404
 20
36.506814983732696
 11
-36.40806911597031
 21
36.757154378473544
  0
LINE
  8
0
 10
-36.40806911597031
 20
36.757154378473544
 11
-36.66538549567281
 21
36.98607317208283
  0
LINE
  8
0
 10
-36.66538549567281
 20
36.98607317208283
 11
-36.89276413091541
 21
37.16889296310023
  0
LINE
  8
0
 10
-36.89276413091541
 20
37.16889296310023
 11
-37.233429196234596
 21
37.415885609000604
  0
LINE
  8
0
 10
-37.233429196234596
 20
37.415885609000604
 11
-37.694083801583815
 21
37.71602361704261
  0
LINE
  8
0
 10
-37.694083801583815
 20
37.71602361704261
 11
-38.28060429205253
 21
38.05778397217813
  0
LINE
  8
0
 10
-38.28060429205253
 20
38.05778397217813
 11
-38.99800818152989
 21
38.429203577967215
  0
LINE
  8
0
 10
-38.99800818152989
 20
38.429203577967215
 11
-39.85042557877257
 21
38.81793662844941
  0
LINE
  8
0
 10
-39.85042557877257
 20
38.81793662844941
 11
-40.16461047371559
 21
38.942696436341144
  0
LINE
  8
0
 10
-40.16461047371559
 20
38.942696436341144
 11
-41.06742778845819
 21
38.10500438715147
  0
LINE
  8
0
 10
-41.06742778845819
 20
38.10500438715147
 11
-41.83530985835642
 21
37.14211072749668
  0
LINE
  8
0
 10
-41.83530985835642
 20
37.14211072749668
 11
-41.68741983758861
 21
36.83812766936195
  0
LINE
  8
0
 10
-41.68741983758861
 20
36.83812766936195
 11
-41.23607253168739
 21
36.0171438612911
  0
LINE
  8
0
 10
-41.23607253168739
 20
36.0171438612911
 11
-40.81207983064669
 21
35.32950220049156
  0
LINE
  8
0
 10
-40.81207983064669
 20
35.32950220049156
 11
-40.42744437563682
 21
34.770161523595526
  0
LINE
  8
0
 10
-40.42744437563682
 20
34.770161523595526
 11
-40.09372085257019
 21
34.33322434338214
  0
LINE
  8
0
 10
-40.09372085257019
 20
34.33322434338214
 11
-39.821960915989735
 21
34.01196963022219
  0
LINE
  8
0
 10
-39.821960915989735
 20
34.01196963022219
 11
-39.62266029949615
 21
33.7988889318534
  0
LINE
  8
0
 10
-39.62266029949615
 20
33.7988889318534
 11
-39.375152332126135
 21
33.55939918380645
  0
LINE
  8
0
 10
-39.375152332126135
 20
33.55939918380645
 11
-39.10019797817675
 21
33.2403024193942
  0
LINE
  8
0
 10
-39.10019797817675
 20
33.2403024193942
 11
-38.95135083063784
 21
32.98279808726711
  0
LINE
  8
0
 10
-38.95135083063784
 20
32.98279808726711
 11
-38.92151392232107
 21
32.798478497410166
  0
LINE
  8
0
 10
-38.92151392232107
 20
32.798478497410166
 11
-40.63700379320912
 21
30.64732223965442
  0
LINE
  8
0
 10
-40.63700379320912
 20
30.64732223965442
 11
-40.82334144282781
 21
30.635396107103798
  0
LINE
  8
0
 10
-40.82334144282781
 20
30.635396107103798
 11
-41.107511210012184
 21
30.72321124140734
  0
LINE
  8
0
 10
-41.107511210012184
 20
30.72321124140734
 11
-41.47979065196169
 21
30.920266205607582
  0
LINE
  8
0
 10
-41.47979065196169
 20
30.920266205607582
 11
-41.768351596074034
 21
31.108277149075608
  0
LINE
  8
0
 10
-41.768351596074034
 20
31.108277149075608
 11
-42.02043847578201
 21
31.255165967001037
  0
LINE
  8
0
 10
-42.02043847578201
 20
31.255165967001037
 11
-42.394110937461456
 21
31.44862641577601
  0
LINE
  8
0
 10
-42.394110937461456
 20
31.44862641577601
 11
-42.89435366035752
 21
31.676755123944012
  0
LINE
  8
0
 10
-42.89435366035752
 20
31.676755123944012
 11
-43.52525993936423
 21
31.927281955225446
  0
LINE
  8
0
 10
-43.52525993936423
 20
31.927281955225446
 11
-44.29000823988231
 21
32.187629609442766
  0
LINE
  8
0
 10
-44.29000823988231
 20
32.187629609442766
 11
-45.19084249386791
 21
32.444974612319044
  0
LINE
  8
0
 10
-45.19084249386791
 20
32.444974612319044
 11
-45.520112687617704
 21
32.52151412749564
  0
LINE
  8
0
 10
-45.520112687617704
 20
32.52151412749564
 11
-46.28799475751595
 21
31.558620467840885
  0
LINE
  8
0
 10
-46.28799475751595
 20
31.558620467840885
 11
-46.9037883660153
 21
30.492034650943843
  0
LINE
  8
0
 10
-46.9037883660153
 20
30.492034650943843
 11
-46.712243830725484
 21
30.21348869625015
  0
LINE
  8
0
 10
-46.712243830725484
 20
30.21348869625015
 11
-46.14357641406787
 21
29.46894442430202
  0
LINE
  8
0
 10
-46.14357641406787
 20
29.46894442430202
 11
-45.62183168974166
 21
28.85217598571206
  0
LINE
  8
0
 10
-45.62183168974166
 20
28.85217598571206
 11
-45.158126892919675
 21
28.356409621902003
  0
LINE
  8
0
 10
-45.158126892919675
 20
28.356409621902003
 11
-44.76300867835931
 21
27.974091579137266
  0
LINE
  8
0
 10
-44.76300867835931
 20
27.974091579137266
 11
-44.446403545266435
 21
27.69692873249844
  0
LINE
  8
0
 10
-44.446403545266435
 20
27.69692873249844
 11
-44.21757092182862
 21
27.51593218501031
  0
LINE
  8
0
 10
-44.21757092182862
 20
27.51593218501031
 11
-43.937133319181946
 21
27.31600648793009
  0
LINE
  8
0
 10
-43.937133319181946
 20
27.31600648793009
 11
-43.61769107329449
 21
27.041453590738175
  0
LINE
  8
0
 10
-43.61769107329449
 20
27.041453590738175
 11
-43.432127396201935
 21
26.80900988542746
  0
LINE
  8
0
 10
-43.432127396201935
 20
26.80900988542746
 11
-43.37515233212611
 21
26.631195953530963
  0
LINE
  8
0
 10
-43.37515233212611
 20
26.631195953530963
 11
-44.75086839498221
 21
24.24838583587557
  0
LINE
  8
0
 10
-44.75086839498221
 20
24.24838583587557
 11
-44.93334730918944
 21
24.208820722798755
  0
LINE
  8
0
 10
-44.93334730918944
 20
24.208820722798755
 11
-45.22743130148373
 21
24.25330172852728
  0
LINE
  8
0
 10
-45.22743130148373
 20
24.25330172852728
 11
-45.62492220807897
 21
24.39267037991021
  0
LINE
  8
0
 10
-45.62492220807897
 20
24.39267037991021
 11
-45.938281741942276
 21
24.53557361943863
  0
LINE
  8
0
 10
-45.938281741942276
 20
24.53557361943863
 11
-46.20944566178397
 21
24.643250210806105
  0
LINE
  8
0
 10
-46.20944566178397
 20
24.643250210806105
 11
-46.60777829450491
 21
24.778856875713814
  0
LINE
  8
0
 10
-46.60777829450491
 20
24.778856875713814
 11
-47.13643453914454
 21
24.929880265638683
  0
LINE
  8
0
 10
-47.13643453914454
 20
24.929880265638683
 11
-47.79763320295749
 21
25.083577217638325
  0
LINE
  8
0
 10
-47.79763320295749
 20
25.083577217638325
 11
-48.592642701191245
 21
25.22703718390022
  0
LINE
  8
0
 10
-48.592642701191245
 20
25.22703718390022
 11
-49.52177066326952
 21
25.34724547705614
  0
LINE
  8
0
 10
-49.52177066326952
 20
25.34724547705614
 11
-49.85877080380038
 21
25.373854933226358
  0
LINE
  8
0
 10
-49.85877080380038
 20
25.373854933226358
 11
-50.47456441229974
 21
24.307269116329294
  0
LINE
  8
0
 10
-50.47456441229974
 20
24.307269116329294
 11
-50.92451374775461
 21
23.16081690685945
  0
LINE
  8
0
 10
-50.92451374775461
 20
23.16081690685945
 11
-50.693593486343296
 21
22.91393031195126
  0
LINE
  8
0
 10
-50.693593486343296
 20
22.91393031195126
 11
-50.02030904932282
 21
22.262457464838807
  0
LINE
  8
0
 10
-50.02030904932282
 20
22.262457464838807
 11
-49.41246721669533
 21
21.730339836197352
  0
LINE
  8
0
 10
-49.41246721669533
 20
21.730339836197352
 11
-48.88005147697312
 21
21.309222386811538
  0
LINE
  8
0
 10
-48.88005147697312
 20
21.309222386811538
 11
-48.432364858919094
 21
20.990063834809273
  0
LINE
  8
0
 10
-48.432364858919094
 20
20.990063834809273
 11
-48.077986964812865
 21
20.763184214687666
  0
LINE
  8
0
 10
-48.077986964812865
 20
20.763184214687666
 11
-47.824734077103884
 21
20.618314981863296
  0
LINE
  8
0
 10
-47.824734077103884
 20
20.618314981863296
 11
-47.51763135181451
 21
20.4624193454553
  0
LINE
  8
0
 10
-47.51763135181451
 20
20.4624193454553
 11
-47.160837025899674
 21
20.23854337352199
  0
LINE
  8
0
 10
-47.160837025899674
 20
20.23854337352199
 11
-46.942702005164975
 21
20.036352703302622
  0
LINE
  8
0
 10
-46.942702005164975
 20
20.036352703302622
 11
-46.859861514113106
 21
19.86901649877646
  0
LINE
  8
0
 10
-46.859861514113106
 20
19.86901649877646
 11
-47.86507254539541
 21
17.307780561774646
  0
LINE
  8
0
 10
-47.86507254539541
 20
17.307780561774646
 11
-48.039616446785125
 21
17.24146028741839
  0
LINE
  8
0
 10
-48.039616446785125
 20
17.24146028741839
 11
-48.33704531376065
 21
17.241613532406582
  0
LINE
  8
0
 10
-48.33704531376065
 20
17.241613532406582
 11
-48.75086839498223
 21
17.32018260560007
  0
LINE
  8
0
 10
-48.75086839498223
 20
17.32018260560007
 11
-49.08202658442102
 21
17.414785918958305
  0
LINE
  8
0
 10
-49.08202658442102
 20
17.414785918958305
 11
-49.366210190512064
 21
17.48084496664689
  0
LINE
  8
0
 10
-49.366210190512064
 20
17.48084496664689
 11
-49.78030490148438
 21
17.555568618876563
  0
LINE
  8
0
 10
-49.78030490148438
 20
17.555568618876563
 11
-50.325565360940466
 21
17.626113077586016
  0
LINE
  8
0
 10
-50.325565360940466
 20
17.626113077586016
 11
-51.002286324007976
 21
17.679546814372767
  0
LINE
  8
0
 10
-51.002286324007976
 20
17.679546814372767
 11
-51.80979782148052
 21
17.7029144340934
  0
LINE
  8
0
 10
-51.80979782148052
 20
17.7029144340934
 11
-52.746464308316376
 21
17.68330076289809
  0
LINE
  8
0
 10
-52.746464308316376
 20
17.68330076289809
 11
-53.08366636936481
 21
17.659385748781865
  0
LINE
  8
0
 10
-53.08366636936481
 20
17.659385748781865
 11
-53.53361570481967
 21
16.512933539312012
  0
LINE
  8
0
 10
-53.53361570481967
 20
16.512933539312012
 11
-53.807669642594924
 21
15.31222478517368
  0
LINE
  8
0
 10
-53.807669642594924
 20
15.31222478517368
 11
-53.542532032117784
 21
15.102512588613433
  0
LINE
  8
0
 10
-53.542532032117784
 20
15.102512588613433
 11
-52.77967063648841
 21
14.558663993214676
  0
LINE
  8
0
 10
-52.77967063648841
 20
14.558663993214676
 11
-52.09930987767217
 21
14.123083803047669
  0
LINE
  8
0
 10
-52.09930987767217
 20
14.123083803047669
 11
-51.5100764828846
 21
13.786022336029738
  0
LINE
  8
0
 10
-51.5100764828846
 20
13.786022336029738
 11
-51.01982204060439
 21
13.53715274944804
  0
LINE
  8
0
 10
-51.01982204060439
 20
13.53715274944804
 11
-50.63558760204728
 21
13.36562447164988
  0
LINE
  8
0
 10
-50.63558760204728
 20
13.36562447164988
 11
-50.36357170109077
 21
13.260118692761367
  0
LINE
  8
0
 10
-50.36357170109077
 20
13.260118692761367
 11
-50.03666402056965
 21
13.151735567933162
  0
LINE
  8
0
 10
-50.03666402056965
 20
13.151735567933162
 11
-49.65048781028352
 21
12.983537540527541
  0
LINE
  8
0
 10
-49.65048781028352
 20
12.983537540527541
 11
-49.40465422181262
 21
12.816116510862196
  0
LINE
  8
0
 10
-49.40465422181262
 20
12.816116510862196
 11
-49.297798823465
 21
12.662996048000734
  0
LINE
  8
0
 10
-49.297798823465
 20
12.662996048000734
 11
-49.910050069795886
 21
9.980548070170137
  0
LINE
  8
0
 10
-49.910050069795886
 20
9.980548070170137
 11
-50.072759936036164
 21
9.888954119872611
  0
LINE
  8
0
 10
-50.072759936036164
 20
9.888954119872611
 11
-50.36688960829109
 21
9.84477618088065
  0
LINE
  8
0
 10
-50.36688960829109
 20
9.84477618088065
 11
-50.78780074032657
 21
9.86079057262104
  0
LINE
  8
0
 10
-50.78780074032657
 20
9.86079057262104
 11
-51.12936005861123
 21
9.90498067811594
  0
LINE
  8
0
 10
-51.12936005861123
 20
9.90498067811594
 11
-51.420215158790825
 21
9.927946532159567
  0
LINE
  8
0
 10
-51.420215158790825
 20
9.927946532159567
 11
-51.84082175644231
 21
9.94011796879751
  0
LINE
  8
0
 10
-51.84082175644231
 20
9.94011796879751
 11
-52.390506213066395
 21
9.928607649655184
  0
LINE
  8
0
 10
-52.390506213066395
 20
9.928607649655184
 11
-53.06763264732126
 21
9.880584549845818
  0
LINE
  8
0
 10
-53.06763264732126
 20
9.880584549845818
 11
-53.869607671551634
 21
9.783337829014464
  0
LINE
  8
0
 10
-53.869607671551634
 20
9.783337829014464
 11
-54.792889101623935
 21
9.624340330471803
  0
LINE
  8
0
 10
-54.792889101623935
 20
9.624340330471803
 11
-55.122760546355764
 21
9.550435067966138
  0
LINE
  8
0
 10
-55.122760546355764
 20
9.550435067966138
 11
-55.396814484130964
 21
8.349726313827764
  0
LINE
  8
0
 10
-55.396814484130964
 20
8.349726313827764
 11
-55.48885111211716
 21
7.121582864476878
  0
LINE
  8
0
 10
-55.48885111211716
 20
7.121582864476878
 11
-55.19541888866559
 21
6.953729690196772
  0
LINE
  8
0
 10
-55.19541888866559
 20
6.953729690196772
 11
-54.360021597415184
 21
6.529654025450163
  0
LINE
  8
0
 10
-54.360021597415184
 20
6.529654025450163
 11
-53.622340047499826
 21
6.200341415431337
  0
LINE
  8
0
 10
-53.622340047499826
 20
6.200341415431337
 11
-52.989451498007575
 21
5.954865326977163
  0
LINE
  8
0
 10
-52.989451498007575
 20
5.954865326977163
 11
-52.46758070562063
 21
5.781844041135657
  0
LINE
  8
0
 10
-52.46758070562063
 20
5.781844041135657
 11
-52.06207288504172
 21
5.669498763945012
  0
LINE
  8
0
 10
-52.06207288504172
 20
5.669498763945012
 11
-51.77737035657229
 21
5.605713263749668
  0
LINE
  8
0
 10
-51.77737035657229
 20
5.605713263749668
 11
-51.437960298203606
 21
5.547263750412196
  0
LINE
  8
0
 10
-51.437960298203606
 20
5.547263750412196
 11
-51.03102874194699
 21
5.438500933527632
  0
LINE
  8
0
 10
-51.03102874194699
 20
5.438500933527632
 11
-50.76298810187855
 21
5.309589453564112
  0
LINE
  8
0
 10
-50.76298810187855
 20
5.309589453564112
 11
-50.63450476926104
 21
5.174105190483726
  0
LINE
  8
0
 10
-50.63450476926104
 20
5.174105190483726
 11
-50.8401195495122
 21
2.430366627037228
  0
LINE
  8
0
 10
-50.8401195495122
 20
2.430366627037228
 11
-50.98736071106118
 21
2.31554505829363
  0
LINE
  8
0
 10
-50.98736071106118
 20
2.31554505829363
 11
-51.271620817751995
 21
2.2280227974767564
  0
LINE
  8
0
 10
-51.271620817751995
 20
2.2280227974767564
 11
-51.69021754144641
 21
2.1811247727155525
  0
LINE
  8
0
 10
-51.69021754144641
 20
2.1811247727155525
 11
-52.03454811781626
 21
2.1739145364123136
  0
LINE
  8
0
 10
-52.03454811781626
 20
2.1739145364123136
 11
-52.32557748976996
 21
2.153274177581575
  0
LINE
  8
0
 10
-52.32557748976996
 20
2.153274177581575
 11
-52.74330031774056
 21
2.1026215088459903
  0
LINE
  8
0
 10
-52.74330031774056
 20
2.1026215088459903
 11
-53.28512972909788
 21
2.009313533361296
  0
LINE
  8
0
 10
-53.28512972909788
 20
2.009313533361296
 11
-53.94753574891661
 21
1.8609063536497696
  0
LINE
  8
0
 10
-53.94753574891661
 20
1.8609063536497696
 11
-54.726059503087335
 21
1.645217623314431
  0
LINE
  8
0
 10
-54.726059503087335
 20
1.645217623314431
 11
-55.61533129492491
 21
1.350388038806409
  0
LINE
  8
0
 10
-55.61533129492491
 20
1.350388038806409
 11
-55.930503340360985
 21
1.22814344935091
  0
LINE
  8
0
 10
-55.930503340360985
 20
1.22814344935091
 11
-56.02253996834714
 21
-7.105427357601002e-15
  0
LINE
  8
0
 10
-56.02253996834714
 20
-7.105427357601002e-15
 11
-55.930503340360985
 21
-1.228143449350899
  0
LINE
  8
0
 10
-55.930503340360985
 20
-1.228143449350899
 11
-55.61533129492474
 21
-1.3503880388064713
  0
LINE
  8
0
 10
-55.61533129492474
 20
-1.3503880388064713
 11
-54.726059503087356
 21
-1.6452176233144307
  0
LINE
  8
0
 10
-54.726059503087356
 20
-1.6452176233144307
 11
-53.947535748915925
 21
-1.8609063536499633
  0
LINE
  8
0
 10
-53.947535748915925
 20
-1.8609063536499633
 11
-53.285129729097804
 21
-2.009313533361339
  0
LINE
  8
0
 10
-53.285129729097804
 20
-2.009313533361339
 11
-52.74330031774053
 21
-2.1026215088460227
  0
LINE
  8
0
 10
-52.74330031774053
 20
-2.1026215088460227
 11
-52.325577489770055
 21
-2.153274177581699
  0
LINE
  8
0
 10
-52.325577489770055
 20
-2.153274177581699
 11
-52.034548117816946
 21
-2.1739145364118726
  0
LINE
  8
0
 10
-52.034548117816946
 20
-2.1739145364118726
 11
-51.69021754144641
 21
-2.1811247727155645
  0
LINE
  8
0
 10
-51.69021754144641
 20
-2.1811247727155645
 11
-51.27162081775192
 21
-2.2280227974750173
  0
LINE
  8
0
 10
-51.27162081775192
 20
-2.2280227974750173
 11
-50.98736071106124
 21
-2.3155450582941364
  0
LINE
  8
0
 10
-50.98736071106124
 20
-2.3155450582941364
 11
-50.84011954951221
 21
-2.430366627037239
  0
LINE
  8
0
 10
-50.84011954951221
 20
-2.430366627037239
 11
-50.63450476926103
 21
-5.174105190483734
  0
LINE
  8
0
 10
-50.63450476926103
 20
-5.174105190483734
 11
-50.762988101878406
 21
-5.309589453564603
  0
LINE
  8
0
 10
-50.762988101878406
 20
-5.309589453564603
 11
-51.031028741947324
 21
-5.4385009335259245
  0
LINE
  8
0
 10
-51.031028741947324
 20
-5.4385009335259245
 11
-51.4379602982036
 21
-5.54726375041221
  0
LINE
  8
0
 10
-51.4379602982036
 20
-5.54726375041221
 11
-51.77737035657167
 21
-5.605713263749131
  0
LINE
  8
0
 10
-51.77737035657167
 20
-5.605713263749131
 11
-52.062072885041616
 21
-5.669498763945121
  0
LINE
  8
0
 10
-52.062072885041616
 20
-5.669498763945121
 11
-52.46758070562066
 21
-5.781844041135697
  0
LINE
  8
0
 10
-52.46758070562066
 20
-5.781844041135697
 11
-52.98945149800765
 21
-5.9548653269772185
  0
LINE
  8
0
 10
-52.98945149800765
 20
-5.9548653269772185
 11
-53.62234004750047
 21
-6.20034141543163
  0
LINE
  8
0
 10
-53.62234004750047
 20
-6.20034141543163
 11
-54.360021597415155
 21
-6.52965402545016
  0
LINE
  8
0
 10
-54.360021597415155
 20
-6.52965402545016
 11
-55.19541888866575
 21
-6.953729690196859
  0
LINE
  8
0
 10
-55.19541888866575
 20
-6.953729690196859
 11
-55.48885111211717
 21
-7.121582864476867
  0
LINE
  8
0
 10
-55.48885111211717
 20
-7.121582864476867
 11
-55.39681448413101
 21
-8.349726313827782
  0
LINE
  8
0
 10
-55.39681448413101
 20
-8.349726313827782
 11
-55.122760546355806
 21
-9.55043506796614
  0
LINE
  8
0
 10
-55.122760546355806
 20
-9.55043506796614
 11
-54.792889101623764
 21
-9.62434033047184
  0
LINE
  8
0
 10
-54.792889101623764
 20
-9.62434033047184
 11
-53.86960767155166
 21
-9.783337829014467
  0
LINE
  8
0
 10
-53.86960767155166
 20
-9.783337829014467
 11
-53.06763264732056
 21
-9.880584549845906
  0
LINE
  8
0
 10
-53.06763264732056
 20
-9.880584549845906
 11
-52.39050621306631
 21
-9.928607649655214
  0
LINE
  8
0
 10
-52.39050621306631
 20
-9.928607649655214
 11
-51.840821756442274
 21
-9.940117968797537
  0
LINE
  8
0
 10
-51.840821756442274
 20
-9.940117968797537
 11
-51.42021515879089
 21
-9.927946532159703
  0
LINE
  8
0
 10
-51.42021515879089
 20
-9.927946532159703
 11
-51.12936005861199
 21
-9.904980678115606
  0
LINE
  8
0
 10
-51.12936005861199
 20
-9.904980678115606
 11
-50.78780074032657
 21
-9.860790572621053
  0
LINE
  8
0
 10
-50.78780074032657
 20
-9.860790572621053
 11
-50.366889608291274
 21
-9.84477618087892
  0
LINE
  8
0
 10
-50.366889608291274
 20
-9.84477618087892
 11
-50.07275993603615
 21
-9.888954119873121
  0
LINE
  8
0
 10
-50.07275993603615
 20
-9.888954119873121
 11
-49.91005006979589
 21
-9.980548070170148
  0
LINE
  8
0
 10
-49.91005006979589
 20
-9.980548070170148
 11
-49.297798823464994
 21
-12.66299604800074
  0
LINE
  8
0
 10
-49.297798823464994
 20
-12.66299604800074
 11
-49.40465422181241
 21
-12.81611651086266
  0
LINE
  8
0
 10
-49.40465422181241
 20
-12.81611651086266
 11
-49.650487810284105
 21
-12.983537540525901
  0
LINE
  8
0
 10
-49.650487810284105
 20
-12.983537540525901
 11
-50.036664020569646
 21
-13.151735567933173
  0
LINE
  8
0
 10
-50.036664020569646
 20
-13.151735567933173
 11
-50.36357170109024
 21
-13.260118692760742
  0
LINE
  8
0
 10
-50.36357170109024
 20
-13.260118692760742
 11
-50.63558760204716
 21
-13.365624471649975
  0
LINE
  8
0
 10
-50.63558760204716
 20
-13.365624471649975
 11
-51.01982204060442
 21
-13.537152749448083
  0
LINE
  8
0
 10
-51.01982204060442
 20
-13.537152749448083
 11
-51.51007648288466
 21
-13.786022336029802
  0
LINE
  8
0
 10
-51.51007648288466
 20
-13.786022336029802
 11
-52.099309877672766
 21
-14.123083803048054
  0
LINE
  8
0
 10
-52.099309877672766
 20
-14.123083803048054
 11
-52.77967063648839
 21
-14.558663993214667
  0
LINE
  8
0
 10
-52.77967063648839
 20
-14.558663993214667
 11
-53.542532032117926
 21
-15.102512588613541
  0
LINE
  8
0
 10
-53.542532032117926
 20
-15.102512588613541
 11
-53.80766964259488
 21
-15.312224785173658
  0
LINE
  8
0
 10
-53.80766964259488
 20
-15.312224785173658
 11
-53.53361570481967
 21
-16.51293353931201
  0
LINE
  8
0
 10
-53.53361570481967
 20
-16.51293353931201
 11
-53.08366636936484
 21
-17.65938574878187
  0
LINE
  8
0
 10
-53.08366636936484
 20
-17.65938574878187
 11
-52.74646430831619
 21
-17.683300762898096
  0
LINE
  8
0
 10
-52.74646430831619
 20
-17.683300762898096
 11
-51.809797821480544
 21
-17.702914434093408
  0
LINE
  8
0
 10
-51.809797821480544
 20
-17.702914434093408
 11
-51.00228632400727
 21
-17.679546814372745
  0
LINE
  8
0
 10
-51.00228632400727
 20
-17.679546814372745
 11
-50.32556536094039
 21
-17.626113077586034
  0
LINE
  8
0
 10
-50.32556536094039
 20
-17.626113077586034
 11
-49.780304901484335
 21
-17.55556861887659
  0
LINE
  8
0
 10
-49.780304901484335
 20
-17.55556861887659
 11
-49.366210190512106
 21
-17.480844966647037
  0
LINE
  8
0
 10
-49.366210190512106
 20
-17.480844966647037
 11
-49.082026584421804
 21
-17.414785918958085
  0
LINE
  8
0
 10
-49.082026584421804
 20
-17.414785918958085
 11
-48.75086839498222
 21
-17.320182605600085
  0
LINE
  8
0
 10
-48.75086839498222
 20
-17.320182605600085
 11
-48.337045313761095
 21
-17.241613532404898
  0
LINE
  8
0
 10
-48.337045313761095
 20
-17.241613532404898
 11
-48.03961644678504
 21
-17.241460287418896
  0
LINE
  8
0
 10
-48.03961644678504
 20
-17.241460287418896
 11
-47.86507254539541
 21
-17.30778056177466
  0
LINE
  8
0
 10
-47.86507254539541
 20
-17.30778056177466
 11
-46.85986151411309
 21
-19.869016498776467
  0
LINE
  8
0
 10
-46.85986151411309
 20
-19.869016498776467
 11
-46.9427020051647
 21
-20.03635270330305
  0
LINE
  8
0
 10
-46.9427020051647
 20
-20.03635270330305
 11
-47.16083702590049
 21
-20.238543373520454
  0
LINE
  8
0
 10
-47.16083702590049
 20
-20.238543373520454
 11
-47.517631351814494
 21
-20.46241934545531
  0
LINE
  8
0
 10
-47.517631351814494
 20
-20.46241934545531
 11
-47.82473407710345
 21
-20.6183149818626
  0
LINE
  8
0
 10
-47.82473407710345
 20
-20.6183149818626
 11
-48.07798696481272
 21
-20.76318421468774
  0
LINE
  8
0
 10
-48.07798696481272
 20
-20.76318421468774
 11
-48.432364858919115
 21
-20.99006383480932
  0
LINE
  8
0
 10
-48.432364858919115
 20
-20.99006383480932
 11
-48.880051476973165
 21
-21.30922238681161
  0
LINE
  8
0
 10
-48.880051476973165
 20
-21.30922238681161
 11
-49.41246721669586
 21
-21.73033983619782
  0
LINE
  8
0
 10
-49.41246721669586
 20
-21.73033983619782
 11
-50.02030904932279
 21
-22.262457464838796
  0
LINE
  8
0
 10
-50.02030904932279
 20
-22.262457464838796
 11
-50.693593486343424
 21
-22.913930311951386
  0
LINE
  8
0
 10
-50.693593486343424
 20
-22.913930311951386
 11
-50.92451374775461
 21
-23.160816906859434
  0
LINE
  8
0
 10
-50.92451374775461
 20
-23.160816906859434
 11
-50.47456441229975
 21
-24.30726911632928
  0
LINE
  8
0
 10
-50.47456441229975
 20
-24.30726911632928
 11
-49.858770803800454
 21
-25.373854933226344
  0
LINE
  8
0
 10
-49.858770803800454
 20
-25.373854933226344
 11
-49.52177066326936
 21
-25.3472454770561
  0
LINE
  8
0
 10
-49.52177066326936
 20
-25.3472454770561
 11
-48.592642701191295
 21
-25.227037183900205
  0
LINE
  8
0
 10
-48.592642701191295
 20
-25.227037183900205
 11
-47.79763320295682
 21
-25.08357721763818
  0
LINE
  8
0
 10
-47.79763320295682
 20
-25.08357721763818
 11
-47.136434539144474
 21
-24.929880265638666
  0
LINE
  8
0
 10
-47.136434539144474
 20
-24.929880265638666
 11
-46.60777829450488
 21
-24.778856875713803
  0
LINE
  8
0
 10
-46.60777829450488
 20
-24.778856875713803
 11
-46.20944566178401
 21
-24.643250210806233
  0
LINE
  8
0
 10
-46.20944566178401
 20
-24.643250210806233
 11
-45.93828174194311
 21
-24.535573619438505
  0
LINE
  8
0
 10
-45.93828174194311
 20
-24.535573619438505
 11
-45.624922208078985
 21
-24.392670379910204
  0
LINE
  8
0
 10
-45.624922208078985
 20
-24.392670379910204
 11
-45.227431301484444
 21
-24.253301728525663
  0
LINE
  8
0
 10
-45.227431301484444
 20
-24.253301728525663
 11
-44.9333473091893
 21
-24.208820722799217
  0
LINE
  8
0
 10
-44.9333473091893
 20
-24.208820722799217
 11
-44.75086839498223
 21
-24.24838583587556
  0
LINE
  8
0
 10
-44.75086839498223
 20
-24.24838583587556
 11
-43.37515233212613
 21
-26.631195953530945
  0
LINE
  8
0
 10
-43.37515233212613
 20
-26.631195953530945
 11
-43.432127396201615
 21
-26.80900988542782
  0
LINE
  8
0
 10
-43.432127396201615
 20
-26.80900988542782
 11
-43.617691073295546
 21
-27.04145359073676
  0
LINE
  8
0
 10
-43.617691073295546
 20
-27.04145359073676
 11
-43.93713331918196
 21
-27.31600648793008
  0
LINE
  8
0
 10
-43.93713331918196
 20
-27.31600648793008
 11
-44.21757092182831
 21
-27.51593218500954
  0
LINE
  8
0
 10
-44.21757092182831
 20
-27.51593218500954
 11
-44.44640354526631
 21
-27.69692873249847
  0
LINE
  8
0
 10
-44.44640354526631
 20
-27.69692873249847
 11
-44.76300867835934
 21
-27.974091579137294
  0
LINE
  8
0
 10
-44.76300867835934
 20
-27.974091579137294
 11
-45.158126892919725
 21
-28.356409621902056
  0
LINE
  8
0
 10
-45.158126892919725
 20
-28.356409621902056
 11
-45.62183168974214
 21
-28.852175985712577
  0
LINE
  8
0
 10
-45.62183168974214
 20
-28.852175985712577
 11
-46.14357641406787
 21
-29.468944424301984
  0
LINE
  8
0
 10
-46.14357641406787
 20
-29.468944424301984
 11
-46.712243830725605
 21
-30.21348869625027
  0
LINE
  8
0
 10
-46.712243830725605
 20
-30.21348869625027
 11
-46.9037883660154
 21
-30.49203465094386
  0
LINE
  8
0
 10
-46.9037883660154
 20
-30.49203465094386
 11
-46.28799475751604
 21
-31.558620467840942
  0
LINE
  8
0
 10
-46.28799475751604
 20
-31.558620467840942
 11
-45.52011268761773
 21
-32.521514127495685
  0
LINE
  8
0
 10
-45.52011268761773
 20
-32.521514127495685
 11
-45.19084249386772
 21
-32.44497461231902
  0
LINE
  8
0
 10
-45.19084249386772
 20
-32.44497461231902
 11
-44.29000823988232
 21
-32.187629609442794
  0
LINE
  8
0
 10
-44.29000823988232
 20
-32.187629609442794
 11
-43.52525993936355
 21
-31.92728195522524
  0
LINE
  8
0
 10
-43.52525993936355
 20
-31.92728195522524
 11
-42.89435366035742
 21
-31.67675512394403
  0
LINE
  8
0
 10
-42.89435366035742
 20
-31.67675512394403
 11
-42.39411093746139
 21
-31.448626415776037
  0
LINE
  8
0
 10
-42.39411093746139
 20
-31.448626415776037
 11
-42.020438475782
 21
-31.255165967001208
  0
LINE
  8
0
 10
-42.020438475782
 20
-31.255165967001208
 11
-41.76835159607484
 21
-31.108277149075647
  0
LINE
  8
0
 10
-41.76835159607484
 20
-31.108277149075647
 11
-41.47979065196168
 21
-30.920266205607614
  0
LINE
  8
0
 10
-41.47979065196168
 20
-30.920266205607614
 11
-41.10751121001309
 21
-30.72321124140588
  0
LINE
  8
0
 10
-41.10751121001309
 20
-30.72321124140588
 11
-40.82334144282757
 21
-30.63539610710427
  0
LINE
  8
0
 10
-40.82334144282757
 20
-30.63539610710427
 11
-40.637003793209104
 21
-30.647322239654457
  0
LINE
  8
0
 10
-40.637003793209104
 20
-30.647322239654457
 11
-38.92151392232105
 21
-32.79847849741018
  0
LINE
  8
0
 10
-38.92151392232105
 20
-32.79847849741018
 11
-38.95135083063744
 21
-32.98279808726745
  0
LINE
  8
0
 10
-38.95135083063744
 20
-32.98279808726745
 11
-39.10019797817797
 21
-33.24030241939298
  0
LINE
  8
0
 10
-39.10019797817797
 20
-33.24030241939298
 11
-39.37515233212611
 21
-33.55939918380647
  0
LINE
  8
0
 10
-39.37515233212611
 20
-33.55939918380647
 11
-39.622660299495934
 21
-33.798888931852616
  0
LINE
  8
0
 10
-39.622660299495934
 20
-33.798888931852616
 11
-39.82196091598958
 21
-34.011969630222225
  0
LINE
  8
0
 10
-39.82196091598958
 20
-34.011969630222225
 11
-40.093720852570186
 21
-34.3332243433822
  0
LINE
  8
0
 10
-40.093720852570186
 20
-34.3332243433822
 11
-40.42744437563684
 21
-34.770161523595625
  0
LINE
  8
0
 10
-40.42744437563684
 20
-34.770161523595625
 11
-40.81207983064704
 21
-35.32950220049218
  0
LINE
  8
0
 10
-40.81207983064704
 20
-35.32950220049218
 11
-41.236072531687356
 21
-36.0171438612911
  0
LINE
  8
0
 10
-41.236072531687356
 20
-36.0171438612911
 11
-41.68741983758867
 21
-36.83812766936212
  0
LINE
  8
0
 10
-41.68741983758867
 20
-36.83812766936212
 11
-41.83530985835642
 21
-37.14211072749669
  0
LINE
  8
0
 10
-41.83530985835642
 20
-37.14211072749669
 11
-41.067427788458154
 21
-38.105004387151446
  0
LINE
  8
0
 10
-41.067427788458154
 20
-38.105004387151446
 11
-40.16461047371557
 21
-38.9426964363411
  0
LINE
  8
0
 10
-40.16461047371557
 20
-38.9426964363411
 11
-39.85042557877241
 21
-38.81793662844933
  0
LINE
  8
0
 10
-39.85042557877241
 20
-38.81793662844933
 11
-38.99800818152991
 21
-38.42920357796722
  0
LINE
  8
0
 10
-38.99800818152991
 20
-38.42920357796722
 11
-38.28060429205191
 21
-38.05778397217781
  0
LINE
  8
0
 10
-38.28060429205191
 20
-38.05778397217781
 11
-37.694083801583744
 21
-37.71602361704259
  0
LINE
  8
0
 10
-37.694083801583744
 20
-37.71602361704259
 11
-37.23342919623456
 21
-37.4158856090006
  0
LINE
  8
0
 10
-37.23342919623456
 20
-37.4158856090006
 11
-36.8927641309154
 21
-37.16889296310037
  0
LINE
  8
0
 10
-36.8927641309154
 20
-37.16889296310037
 11
-36.66538549567363
 21
-36.986073172082975
  0
LINE
  8
0
 10
-36.66538549567363
 20
-36.986073172082975
 11
-36.40806911597031
 21
-36.75715437847355
  0
LINE
  8
0
 10
-36.40806911597031
 20
-36.75715437847355
 11
-36.06931724622754
 21
-36.50681498373137
  0
LINE
  8
0
 10
-36.06931724622754
 20
-36.50681498373137
 11
-35.801409587174156
 21
-36.37762736584475
  0
LINE
  8
0
 10
-35.801409587174156
 20
-36.37762736584475
 11
-35.61537567732309
 21
-36.36164810777494
  0
LINE
  8
0
 10
-35.61537567732309
 20
-36.36164810777494
 11
-33.59843320735703
 21
-38.233097229511465
  0
LINE
  8
0
 10
-33.59843320735703
 20
-38.233097229511465
 11
-33.60046545268655
 21
-38.41980508227067
  0
LINE
  8
0
 10
-33.60046545268655
 20
-38.41980508227067
 11
-33.709271071360135
 21
-38.69661781994621
  0
LINE
  8
0
 10
-33.709271071360135
 20
-38.69661781994621
 11
-33.9335955074512
 21
-39.0531303571544
  0
LINE
  8
0
 10
-33.9335955074512
 20
-39.0531303571544
 11
-34.14264492054804
 21
-39.32683435094078
  0
LINE
  8
0
 10
-34.14264492054804
 20
-39.32683435094078
 11
-34.30796148365922
 21
-39.567239329494754
  0
LINE
  8
0
 10
-34.30796148365922
 20
-39.567239329494754
 11
-34.528805555813975
 21
-39.92540960974131
  0
LINE
  8
0
 10
-34.528805555813975
 20
-39.92540960974131
 11
-34.7936795553431
 21
-40.40720547281437
  0
LINE
  8
0
 10
-34.7936795553431
 20
-40.40720547281437
 11
-35.09065354806714
 21
-41.01762571635775
  0
LINE
  8
0
 10
-35.09065354806714
 20
-41.01762571635775
 11
-35.40742292950764
 21
-41.760779820957566
  0
LINE
  8
0
 10
-35.40742292950764
 20
-41.760779820957566
 11
-35.73136777166767
 21
-42.639863743513935
  0
LINE
  8
0
 10
-35.73136777166767
 20
-42.639863743513935
 11
-35.83229965923031
 21
-42.9624934258876
  0
LINE
  8
0
 10
-35.83229965923031
 20
-42.9624934258876
 11
-34.92948234448773
 21
-43.80018547507725
  0
LINE
  8
0
 10
-34.92948234448773
 20
-43.80018547507725
 11
-33.91189723185153
 21
-44.493963257667424
  0
LINE
  8
0
 10
-33.91189723185153
 20
-44.493963257667424
 11
-33.61981600709331
 21
-44.32377008500945
  0
LINE
  8
0
 10
-33.61981600709331
 20
-44.32377008500945
 11
-32.83485706267078
 21
-43.81233264090719
  0
LINE
  8
0
 10
-32.83485706267078
 20
-43.81233264090719
 11
-32.180823201650234
 21
-43.33813798378683
  0
LINE
  8
0
 10
-32.180823201650234
 20
-43.33813798378683
 11
-31.651790398281157
 21
-42.91277846638934
  0
LINE
  8
0
 10
-31.651790398281157
 20
-42.91277846638934
 11
-31.241014173153488
 21
-42.547335745609885
  0
LINE
  8
0
 10
-31.241014173153488
 20
-42.547335745609885
 11
-30.940966398821732
 21
-42.25232831015061
  0
LINE
  8
0
 10
-30.940966398821732
 20
-42.25232831015061
 11
-30.74337527102475
 21
-42.03766143807209
  0
LINE
  8
0
 10
-30.74337527102475
 20
-42.03766143807209
 11
-30.52305147845132
 21
-41.77294846189359
  0
LINE
  8
0
 10
-30.52305147845132
 20
-41.77294846189359
 11
-30.225394337913823
 21
-41.47491680501611
  0
LINE
  8
0
 10
-30.225394337913823
 20
-41.47491680501611
 11
-29.979733401391744
 21
-41.307242541451956
  0
LINE
  8
0
 10
-29.979733401391744
 20
-41.307242541451956
 11
-29.79815892144236
 21
-41.2637148429825
  0
LINE
  8
0
 10
-29.79815892144236
 20
-41.2637148429825
 11
-27.524819014280254
 21
-42.81365174779681
  0
LINE
  8
0
 10
-27.524819014280254
 20
-42.81365174779681
 11
-27.499001199620405
 21
-42.99857711855275
  0
LINE
  8
0
 10
-27.499001199620405
 20
-42.99857711855275
 11
-27.565334751701755
 21
-43.28851472263791
  0
LINE
  8
0
 10
-27.565334751701755
 20
-43.28851472263791
 11
-27.734018232718448
 21
-43.67447913167881
  0
LINE
  8
0
 10
-27.734018232718448
 20
-43.67447913167881
 11
-27.89993927309748
 21
-43.97628327626646
  0
LINE
  8
0
 10
-27.89993927309748
 20
-43.97628327626646
 11
-28.027578883983686
 21
-44.23864228504116
  0
LINE
  8
0
 10
-28.027578883983686
 20
-44.23864228504116
 11
-28.192573800074495
 21
-44.62572720017217
  0
LINE
  8
0
 10
-28.192573800074495
 20
-44.62572720017217
 11
-28.38268142860771
 21
-45.14161922266753
  0
LINE
  8
0
 10
-28.38268142860771
 20
-45.14161922266753
 11
-28.585360050782892
 21
-45.789483253306045
  0
LINE
  8
0
 10
-28.585360050782892
 20
-45.789483253306045
 11
-28.78783000808784
 21
-46.5715489670352
  0
LINE
  8
0
 10
-28.78783000808784
 20
-46.5715489670352
 11
-28.977135994035468
 21
-47.489095721889456
  0
LINE
  8
0
 10
-28.977135994035468
 20
-47.489095721889456
 11
-29.02885509680985
 21
-47.823165014527554
  0
LINE
  8
0
 10
-29.02885509680985
 20
-47.823165014527554
 11
-28.01126998417361
 21
-48.516942797117665
  0
LINE
  8
0
 10
-28.01126998417361
 20
-48.516942797117665
 11
-26.901648243551207
 21
-49.051308463878435
  0
LINE
  8
0
 10
-26.901648243551207
 20
-49.051308463878435
 11
-26.638195300889354
 21
-48.83948376069574
  0
LINE
  8
0
 10
-26.638195300889354
 20
-48.83948376069574
 11
-25.938229494999565
 21
-48.21676659034964
  0
LINE
  8
0
 10
-25.938229494999565
 20
-48.21676659034964
 11
-25.36217569813326
 21
-47.650389606955315
  0
LINE
  8
0
 10
-25.36217569813326
 20
-47.650389606955315
 11
-24.902448300490146
 21
-47.15093275602878
  0
LINE
  8
0
 10
-24.902448300490146
 20
-47.15093275602878
 11
-24.550726517666074
 21
-46.72834870901814
  0
LINE
  8
0
 10
-24.550726517666074
 20
-46.72834870901814
 11
-24.297998605786265
 21
-46.39191646262287
  0
LINE
  8
0
 10
-24.297998605786265
 20
-46.39191646262287
 11
-24.134608844719555
 21
-46.150197812679146
  0
LINE
  8
0
 10
-24.134608844719555
 20
-46.150197812679146
 11
-23.956199308728
 21
-45.855603904394364
  0
LINE
  8
0
 10
-23.956199308728
 20
-45.855603904394364
 11
-23.70628606605176
 21
-45.51653752011373
  0
LINE
  8
0
 10
-23.70628606605176
 20
-45.51653752011373
 11
-23.488359511440414
 21
-45.31412217684669
  0
LINE
  8
0
 10
-23.488359511440414
 20
-45.31412217684669
 11
-23.31530053523199
 21
-45.24401837483404
  0
LINE
  8
0
 10
-23.31530053523199
 20
-45.24401837483404
 11
-20.836345847818716
 21
-46.437820033466224
  0
LINE
  8
0
 10
-20.836345847818716
 20
-46.437820033466224
 11
-20.783254700486356
 21
-46.616831995016184
  0
LINE
  8
0
 10
-20.783254700486356
 20
-46.616831995016184
 11
-20.805634404034862
 21
-46.91341773854317
  0
LINE
  8
0
 10
-20.805634404034862
 20
-46.91341773854317
 11
-20.914908819752323
 21
-47.32021221230579
  0
LINE
  8
0
 10
-20.914908819752323
 20
-47.32021221230579
 11
-21.03399508554775
 21
-47.64337470182096
  0
LINE
  8
0
 10
-21.03399508554775
 20
-47.64337470182096
 11
-21.121106486219894
 21
-47.92182707409559
  0
LINE
  8
0
 10
-21.121106486219894
 20
-47.92182707409559
 11
-21.22656653246717
 21
-48.329179786745584
  0
LINE
  8
0
 10
-21.22656653246717
 20
-48.329179786745584
 11
-21.337661099726457
 21
-48.86764379336659
  0
LINE
  8
0
 10
-21.337661099726457
 20
-48.86764379336659
 11
-21.441516845849716
 21
-49.53847939921887
  0
LINE
  8
0
 10
-21.441516845849716
 20
-49.53847939921887
 11
-21.525164534744455
 21
-50.341986666357336
  0
LINE
  8
0
 10
-21.525164534744455
 20
-50.341986666357336
 11
-21.57560288157234
 21
-51.2774997752064
  0
LINE
  8
0
 10
-21.57560288157234
 20
-51.2774997752064
 11
-21.576953880265698
 21
-51.61554612214426
  0
LINE
  8
0
 10
-21.576953880265698
 20
-51.61554612214426
 11
-20.467332139643304
 21
-52.14991178890504
  0
LINE
  8
0
 10
-20.467332139643304
 20
-52.14991178890504
 11
-19.290460887125526
 21
-52.51292849385376
  0
LINE
  8
0
 10
-19.290460887125526
 20
-52.51292849385376
 11
-19.06152132995621
 21
-52.264204073985574
  0
LINE
  8
0
 10
-19.06152132995621
 20
-52.264204073985574
 11
-18.462184742044066
 21
-51.54411764997202
  0
LINE
  8
0
 10
-18.462184742044066
 20
-51.54411764997202
 11
-17.976979099253757
 21
-50.89821026620298
  0
LINE
  8
0
 10
-17.976979099253757
 20
-50.89821026620298
 11
-17.596826657723295
 21
-50.33581312246948
  0
LINE
  8
0
 10
-17.596826657723295
 20
-50.33581312246948
 11
-17.312016200628353
 21
-49.865527578538774
  0
LINE
  8
0
 10
-17.312016200628353
 20
-49.865527578538774
 11
-17.112253675131583
 21
-49.49518586165443
  0
LINE
  8
0
 10
-17.112253675131583
 20
-49.49518586165443
 11
-16.98671513806392
 21
-49.231815029057174
  0
LINE
  8
0
 10
-16.98671513806392
 20
-49.231815029057174
 11
-16.854205232875408
 21
-48.91392092977543
  0
LINE
  8
0
 10
-16.854205232875408
 20
-48.91392092977543
 11
-16.657618536932606
 21
-48.54139400082614
  0
LINE
  8
0
 10
-16.657618536932606
 20
-48.54139400082614
 11
-16.472294483349224
 21
-48.308759202143506
  0
LINE
  8
0
 10
-16.472294483349224
 20
-48.308759202143506
 11
-16.311616862438903
 21
-48.21364529968159
  0
LINE
  8
0
 10
-16.311616862438903
 20
-48.21364529968159
 11
-13.682423146141964
 21
-49.024644155775654
  0
LINE
  8
0
 10
-13.682423146141964
 20
-49.024644155775654
 11
-13.603244634638017
 21
-49.193743876706975
  0
LINE
  8
0
 10
-13.603244634638017
 20
-49.193743876706975
 11
-13.581170564057754
 21
-49.490352524258576
  0
LINE
  8
0
 10
-13.581170564057754
 20
-49.490352524258576
 11
-13.628594904599396
 21
-49.90888994640669
  0
LINE
  8
0
 10
-13.628594904599396
 20
-49.90888994640669
 11
-13.698186205417477
 21
-50.24619186484356
  0
LINE
  8
0
 10
-13.698186205417477
 20
-50.24619186484356
 11
-13.742823471131798
 21
-50.53451743475018
  0
LINE
  8
0
 10
-13.742823471131798
 20
-50.53451743475018
 11
-13.78639284436987
 21
-50.95303835844866
  0
LINE
  8
0
 10
-13.78639284436987
 20
-50.95303835844866
 11
-13.815992681300894
 21
-51.50204595307239
  0
LINE
  8
0
 10
-13.815992681300894
 20
-51.50204595307239
 11
-13.818705585620293
 21
-52.180867775226154
  0
LINE
  8
0
 10
-13.818705585620293
 20
-52.180867775226154
 11
-13.78166245495856
 21
-52.98786757118185
  0
LINE
  8
0
 10
-13.78166245495856
 20
-52.98786757118185
 11
-13.69210645334542
 21
-53.92044921706293
  0
LINE
  8
0
 10
-13.69210645334542
 20
-53.92044921706293
 11
-13.643059168879414
 21
-54.25492122151476
  0
LINE
  8
0
 10
-13.643059168879414
 20
-54.25492122151476
 11
-12.466187916361536
 21
-54.61793792646348
  0
LINE
  8
0
 10
-12.466187916361536
 20
-54.61793792646348
 11
-11.248356511008414
 21
-54.80149647627856
  0
LINE
  8
0
 10
-11.248356511008414
 20
-54.80149647627856
 11
-11.05904447072757
 21
-54.521428432260066
  0
LINE
  8
0
 10
-11.05904447072757
 20
-54.521428432260066
 11
-10.573725289793131
 21
-53.720058295384526
  0
LINE
  8
0
 10
-10.573725289793131
 20
-53.720058295384526
 11
-10.190206493360561
 21
-53.009049014864324
  0
LINE
  8
0
 10
-10.190206493360561
 20
-53.009049014864324
 11
-9.898120985303544
 21
-52.396274601181574
  0
LINE
  8
0
 10
-9.898120985303544
 20
-52.396274601181574
 11
-9.686584048914126
 21
-51.88879296225874
  0
LINE
  8
0
 10
-9.686584048914126
 20
-51.88879296225874
 11
-9.544249274522354
 21
-51.49281459686924
  0
LINE
  8
0
 10
-9.544249274522354
 20
-51.49281459686924
 11
-9.459366284925643
 21
-51.21367485081149
  0
LINE
  8
0
 10
-9.459366284925643
 20
-51.21367485081149
 11
-9.37571606285606
 21
-50.87958178940655
  0
LINE
  8
0
 10
-9.37571606285606
 20
-50.87958178940655
 11
-9.236847335584326
 21
-50.48191595179911
  0
LINE
  8
0
 10
-9.236847335584326
 20
-50.48191595179911
 11
-9.088265616147176
 21
-50.224258374686016
  0
LINE
  8
0
 10
-9.088265616147176
 20
-50.224258374686016
 11
-8.943558623074319
 21
-50.106259059184836
  0
LINE
  8
0
 10
-8.943558623074319
 20
-50.106259059184836
 11
-6.222857720903958
 21
-50.5163387384309
  0
LINE
  8
0
 10
-6.222857720903958
 20
-50.5163387384309
 11
-6.119360562336872
 21
-50.67174881040686
  0
LINE
  8
0
 10
-6.119360562336872
 20
-50.67174881040686
 11
-6.053325815888293
 21
-50.96175461492781
  0
LINE
  8
0
 10
-6.053325815888293
 20
-50.96175461492781
 11
-6.037840699852778
 21
-51.3826855510629
  0
LINE
  8
0
 10
-6.037840699852778
 20
-51.3826855510629
 11
-6.0563824810294005
 21
-51.72659213093822
  0
LINE
  8
0
 10
-6.0563824810294005
 20
-51.72659213093822
 11
-6.0575484890307045
 21
-52.01835018168879
  0
LINE
  8
0
 10
-6.0575484890307045
 20
-52.01835018168879
 11
-6.038253921457647
 21
-52.43869025058534
  0
LINE
  8
0
 10
-6.038253921457647
 20
-52.43869025058534
 11
-5.985697816615631
 21
-52.98597751075564
  0
LINE
  8
0
 10
-5.985697816615631
 20
-52.98597751075564
 11
-5.88720727733161
 21
-53.65762179142329
  0
LINE
  8
0
 10
-5.88720727733161
 20
-53.65762179142329
 11
-5.730300809440456
 21
-54.450087074281576
  0
LINE
  8
0
 10
-5.730300809440456
 20
-54.450087074281576
 11
-5.502750992475495
 21
-55.35890492427045
  0
LINE
  8
0
 10
-5.502750992475495
 20
-55.35890492427045
 11
-5.404401060136882
 21
-55.68233103435511
  0
LINE
  8
0
 10
-5.404401060136882
 20
-55.68233103435511
 11
-4.186569654783763
 21
-55.8658895841702
  0
LINE
  8
0
 10
-4.186569654783763
 20
-55.8658895841702
 11
-2.954982437785076
 21
-55.86588958417021
  0
LINE
  8
0
 10
-2.954982437785076
 20
-55.86588958417021
 11
-2.80952683254385
 21
-55.560734173306265
  0
LINE
  8
0
 10
-2.80952683254385
 20
-55.560734173306265
 11
-2.4490662871233875
 21
-54.695981608202246
  0
LINE
  8
0
 10
-2.4490662871233875
 20
-54.695981608202246
 11
-2.175801513215124
 21
-53.93575320335025
  0
LINE
  8
0
 10
-2.175801513215124
 20
-53.93575320335025
 11
-1.97830764622477
 21
-53.28628988754068
  0
LINE
  8
0
 10
-1.97830764622477
 20
-53.28628988754068
 11
-1.844769616145548
 21
-52.752948454851094
  0
LINE
  8
0
 10
-1.844769616145548
 20
-52.752948454851094
 11
-1.7630421165175534
 21
-52.34017894330469
  0
LINE
  8
0
 10
-1.7630421165175534
 20
-52.34017894330469
 11
-1.720710820114467
 21
-52.05150580444884
  0
LINE
  8
0
 10
-1.720710820114467
 20
-52.05150580444884
 11
-1.6877888888970145
 21
-51.70867686784031
  0
LINE
  8
0
 10
-1.6877888888970145
 20
-51.70867686784031
 11
-1.6097402281899322
 21
-51.29475531926386
  0
LINE
  8
0
 10
-1.6097402281899322
 20
-51.29475531926386
 11
-1.501219912987343
 21
-51.01783060822669
  0
LINE
  8
0
 10
-1.501219912987343
 20
-51.01783060822669
 11
-1.375716062856089
 21
-50.87958178940654
  0
LINE
  8
0
 10
-1.375716062856089
 20
-50.87958178940654
 11
1.3757160628561151
 21
-50.87958178940653
  0
LINE
  8
0
 10
1.3757160628561151
 20
-50.87958178940653
 11
1.5012199129878598
 21
-51.01783060822659
  0
LINE
  8
0
 10
1.5012199129878598
 20
-51.01783060822659
 11
1.6097402281882194
 21
-51.294755319264056
  0
LINE
  8
0
 10
1.6097402281882194
 20
-51.294755319264056
 11
1.687788888897043
 21
-51.7086768678403
  0
LINE
  8
0
 10
1.687788888897043
 20
-51.7086768678403
 11
1.7207108201139927
 21
-52.051505804448176
  0
LINE
  8
0
 10
1.7207108201139927
 20
-52.051505804448176
 11
1.7630421165176862
 21
-52.34017894330459
  0
LINE
  8
0
 10
1.7630421165176862
 20
-52.34017894330459
 11
1.8447696161456013
 21
-52.75294845485112
  0
LINE
  8
0
 10
1.8447696161456013
 20
-52.75294845485112
 11
1.9783076462248366
 21
-53.286289887540754
  0
LINE
  8
0
 10
1.9783076462248366
 20
-53.286289887540754
 11
2.175801513215384
 21
-53.93575320335092
  0
LINE
  8
0
 10
2.175801513215384
 20
-53.93575320335092
 11
2.449066287123405
 21
-54.695981608202224
  0
LINE
  8
0
 10
2.449066287123405
 20
-54.695981608202224
 11
2.809526832543943
 21
-55.56073417330643
  0
LINE
  8
0
 10
2.809526832543943
 20
-55.56073417330643
 11
2.954982437785084
 21
-55.86588958417018
  0
LINE
  8
0
 10
2.954982437785084
 20
-55.86588958417018
 11
4.186569654783769
 21
-55.865889584170176
  0
LINE
  8
0
 10
4.186569654783769
 20
-55.865889584170176
 11
5.4044010601368955
 21
-55.68233103435514
  0
LINE
  8
0
 10
5.4044010601368955
 20
-55.68233103435514
 11
5.502750992475564
 21
-55.35890492427027
  0
LINE
  8
0
 10
5.502750992475564
 20
-55.35890492427027
 11
5.730300809440477
 21
-54.4500870742816
  0
LINE
  8
0
 10
5.730300809440477
 20
-54.4500870742816
 11
5.887207277331772
 21
-53.65762179142259
  0
LINE
  8
0
 10
5.887207277331772
 20
-53.65762179142259
 11
5.985697816615686
 21
-52.98597751075556
  0
LINE
  8
0
 10
5.985697816615686
 20
-52.98597751075556
 11
6.038253921457696
 21
-52.4386902505853
  0
LINE
  8
0
 10
6.038253921457696
 20
-52.4386902505853
 11
6.057548489030853
 21
-52.01835018168887
  0
LINE
  8
0
 10
6.057548489030853
 20
-52.01835018168887
 11
6.056382481029031
 21
-51.72659213093895
  0
LINE
  8
0
 10
6.056382481029031
 20
-51.72659213093895
 11
6.037840699852809
 21
-51.382685551062906
  0
LINE
  8
0
 10
6.037840699852809
 20
-51.382685551062906
 11
6.053325815886573
 21
-50.96175461492787
  0
LINE
  8
0
 10
6.053325815886573
 20
-50.96175461492787
 11
6.1193605623373974
 21
-50.67174881040689
  0
LINE
  8
0
 10
6.1193605623373974
 20
-50.67174881040689
 11
6.222857720903985
 21
-50.51633873843091
  0
LINE
  8
0
 10
6.222857720903985
 20
-50.51633873843091
 11
8.943558623074345
 21
-50.10625905918483
  0
LINE
  8
0
 10
8.943558623074345
 20
-50.10625905918483
 11
9.088265616147673
 21
-50.224258374685846
  0
LINE
  8
0
 10
9.088265616147673
 20
-50.224258374685846
 11
9.236847335582663
 21
-50.48191595179956
  0
LINE
  8
0
 10
9.236847335582663
 20
-50.48191595179956
 11
9.375716062856089
 21
-50.879581789406544
  0
LINE
  8
0
 10
9.375716062856089
 20
-50.879581789406544
 11
9.459366284925078
 21
-51.21367485081092
  0
LINE
  8
0
 10
9.459366284925078
 20
-51.21367485081092
 11
9.544249274522471
 21
-51.492814596869124
  0
LINE
  8
0
 10
9.544249274522471
 20
-51.492814596869124
 11
9.686584048914185
 21
-51.88879296225876
  0
LINE
  8
0
 10
9.686584048914185
 20
-51.88879296225876
 11
9.89812098530362
 21
-52.39627460118164
  0
LINE
  8
0
 10
9.89812098530362
 20
-52.39627460118164
 11
10.19020649336092
 21
-53.00904901486494
  0
LINE
  8
0
 10
10.19020649336092
 20
-53.00904901486494
 11
10.573725289793146
 21
-53.7200582953845
  0
LINE
  8
0
 10
10.573725289793146
 20
-53.7200582953845
 11
11.059044470727688
 21
-54.52142843226021
  0
LINE
  8
0
 10
11.059044470727688
 20
-54.52142843226021
 11
11.248356511008426
 21
-54.80149647627858
  0
LINE
  8
0
 10
11.248356511008426
 20
-54.80149647627858
 11
12.466187916361589
 21
-54.61793792646348
  0
LINE
  8
0
 10
12.466187916361589
 20
-54.61793792646348
 11
13.643059168879368
 21
-54.25492122151477
  0
LINE
  8
0
 10
13.643059168879368
 20
-54.25492122151477
 11
13.692106453345414
 21
-53.92044921706276
  0
LINE
  8
0
 10
13.692106453345414
 20
-53.92044921706276
 11
13.781662454958532
 21
-52.987867571181894
  0
LINE
  8
0
 10
13.781662454958532
 20
-52.987867571181894
 11
13.818705585620297
 21
-52.180867775225465
  0
LINE
  8
0
 10
13.818705585620297
 20
-52.180867775225465
 11
13.815992681300889
 21
-51.50204595307232
  0
LINE
  8
0
 10
13.815992681300889
 20
-51.50204595307232
 11
13.786392844369864
 21
-50.95303835844863
  0
LINE
  8
0
 10
13.786392844369864
 20
-50.95303835844863
 11
13.742823471131912
 21
-50.53451743475025
  0
LINE
  8
0
 10
13.742823471131912
 20
-50.53451743475025
 11
13.698186205417171
 21
-50.246191864844334
  0
LINE
  8
0
 10
13.698186205417171
 20
-50.246191864844334
 11
13.62859490459938
 21
-49.9088899464067
  0
LINE
  8
0
 10
13.62859490459938
 20
-49.9088899464067
 11
13.581170564056013
 21
-49.4903525242589
  0
LINE
  8
0
 10
13.581170564056013
 20
-49.4903525242589
 11
13.6032446346385
 21
-49.19374387670693
  0
LINE
  8
0
 10
13.6032446346385
 20
-49.19374387670693
 11
13.682423146141947
 21
-49.02464415577566
  0
LINE
  8
0
 10
13.682423146141947
 20
-49.02464415577566
 11
16.311616862438882
 21
-48.213645299681595
  0
LINE
  8
0
 10
16.311616862438882
 20
-48.213645299681595
 11
16.472294483349643
 21
-48.30875920214327
  0
LINE
  8
0
 10
16.472294483349643
 20
-48.30875920214327
 11
16.657618536930986
 21
-48.541394000826855
  0
LINE
  8
0
 10
16.657618536930986
 20
-48.541394000826855
 11
16.85420523287539
 21
-48.913920929775436
  0
LINE
  8
0
 10
16.85420523287539
 20
-48.913920929775436
 11
16.98671513806323
 21
-49.23181502905671
  0
LINE
  8
0
 10
16.98671513806323
 20
-49.23181502905671
 11
17.112253675131637
 21
-49.495185861654306
  0
LINE
  8
0
 10
17.112253675131637
 20
-49.495185861654306
 11
17.31201620062837
 21
-49.86552757853881
  0
LINE
  8
0
 10
17.31201620062837
 20
-49.86552757853881
 11
17.596826657723334
 21
-50.335813122469546
  0
LINE
  8
0
 10
17.596826657723334
 20
-50.335813122469546
 11
17.976979099254155
 21
-50.898210266203556
  0
LINE
  8
0
 10
17.976979099254155
 20
-50.898210266203556
 11
18.462184742044027
 21
-51.544117649972016
  0
LINE
  8
0
 10
18.462184742044027
 20
-51.544117649972016
 11
19.0615213299563
 21
-52.264204073985724
  0
LINE
  8
0
 10
19.0615213299563
 20
-52.264204073985724
 11
19.290460887125484
 21
-52.51292849385375
  0
LINE
  8
0
 10
19.290460887125484
 20
-52.51292849385375
 11
20.46733213964326
 21
-52.14991178890506
  0
LINE
  8
0
 10
20.46733213964326
 20
-52.14991178890506
 11
21.57695388026566
 21
-51.61554612214428
  0
LINE
  8
0
 10
21.57695388026566
 20
-51.61554612214428
 11
21.575602881572312
 21
-51.27749977520623
  0
LINE
  8
0
 10
21.575602881572312
 20
-51.27749977520623
 11
21.525164534744444
 21
-50.341986666357364
  0
LINE
  8
0
 10
21.525164534744444
 20
-50.341986666357364
 11
21.441516845849623
 21
-49.538479399218176
  0
LINE
  8
0
 10
21.441516845849623
 20
-49.538479399218176
 11
21.33766109972645
 21
-48.86764379336651
  0
LINE
  8
0
 10
21.33766109972645
 20
-48.86764379336651
 11
21.22656653246717
 21
-48.32917978674555
  0
LINE
  8
0
 10
21.22656653246717
 20
-48.32917978674555
 11
21.121106486220018
 21
-47.92182707409564
  0
LINE
  8
0
 10
21.121106486220018
 20
-47.92182707409564
 11
21.03399508554757
 21
-47.64337470182177
  0
LINE
  8
0
 10
21.03399508554757
 20
-47.64337470182177
 11
20.914908819752316
 21
-47.3202122123058
  0
LINE
  8
0
 10
20.914908819752316
 20
-47.3202122123058
 11
20.805634404033196
 21
-46.91341773854375
  0
LINE
  8
0
 10
20.805634404033196
 20
-46.91341773854375
 11
20.783254700486832
 21
-46.61683199501608
  0
LINE
  8
0
 10
20.783254700486832
 20
-46.61683199501608
 11
20.836345847818706
 21
-46.43782003346624
  0
LINE
  8
0
 10
20.836345847818706
 20
-46.43782003346624
 11
23.315300535231973
 21
-45.24401837483405
  0
LINE
  8
0
 10
23.315300535231973
 20
-45.24401837483405
 11
23.4883595114408
 21
-45.31412217684639
  0
LINE
  8
0
 10
23.4883595114408
 20
-45.31412217684639
 11
23.706286066050268
 21
-45.516537520114674
  0
LINE
  8
0
 10
23.706286066050268
 20
-45.516537520114674
 11
23.95619930872799
 21
-45.85560390439437
  0
LINE
  8
0
 10
23.95619930872799
 20
-45.85560390439437
 11
24.13460884471881
 21
-46.150197812678776
  0
LINE
  8
0
 10
24.13460884471881
 20
-46.150197812678776
 11
24.297998605786308
 21
-46.391916462622746
  0
LINE
  8
0
 10
24.297998605786308
 20
-46.391916462622746
 11
24.5507265176661
 21
-46.72834870901817
  0
LINE
  8
0
 10
24.5507265176661
 20
-46.72834870901817
 11
24.902448300490203
 21
-47.15093275602883
  0
LINE
  8
0
 10
24.902448300490203
 20
-47.15093275602883
 11
25.362175698133747
 21
-47.65038960695583
  0
LINE
  8
0
 10
25.362175698133747
 20
-47.65038960695583
 11
25.938229494999526
 21
-48.216766590349636
  0
LINE
  8
0
 10
25.938229494999526
 20
-48.216766590349636
 11
26.63819530088947
 21
-48.83948376069587
  0
LINE
  8
0
 10
26.63819530088947
 20
-48.83948376069587
 11
26.90164824355117
 21
-49.05130846387845
  0
LINE
  8
0
 10
26.90164824355117
 20
-49.05130846387845
 11
28.01126998417356
 21
-48.51694279711767
  0
LINE
  8
0
 10
28.01126998417356
 20
-48.51694279711767
 11
29.028855096809835
 21
-47.823165014527596
  0
LINE
  8
0
 10
29.028855096809835
 20
-47.823165014527596
 11
28.977135994035407
 21
-47.4890957218893
  0
LINE
  8
0
 10
28.977135994035407
 20
-47.4890957218893
 11
28.787830008087827
 21
-46.571548967035234
  0
LINE
  8
0
 10
28.787830008087827
 20
-46.571548967035234
 11
28.585360050782686
 21
-45.78948325330538
  0
LINE
  8
0
 10
28.585360050782686
 20
-45.78948325330538
 11
28.382681428607686
 21
-45.141619222667465
  0
LINE
  8
0
 10
28.382681428607686
 20
-45.141619222667465
 11
28.192573800074474
 21
-44.62572720017215
  0
LINE
  8
0
 10
28.192573800074474
 20
-44.62572720017215
 11
28.027578883983814
 21
-44.2386422850412
  0
LINE
  8
0
 10
28.027578883983814
 20
-44.2386422850412
 11
27.899939273097413
 21
-43.97628327626729
  0
LINE
  8
0
 10
27.899939273097413
 20
-43.97628327626729
 11
27.734018232718434
 21
-43.67447913167882
  0
LINE
  8
0
 10
27.734018232718434
 20
-43.67447913167882
 11
27.56533475170019
 21
-43.28851472263874
  0
LINE
  8
0
 10
27.56533475170019
 20
-43.28851472263874
 11
27.499001199620853
 21
-42.998577118552575
  0
LINE
  8
0
 10
27.499001199620853
 20
-42.998577118552575
 11
27.524819014280244
 21
-42.81365174779683
  0
LINE
  8
0
 10
27.524819014280244
 20
-42.81365174779683
 11
29.798158921442347
 21
-41.263714842982516
  0
LINE
  8
0
 10
29.798158921442347
 20
-41.263714842982516
 11
29.979733401392078
 21
-41.30724254145161
  0
LINE
  8
0
 10
29.979733401392078
 20
-41.30724254145161
 11
30.225394337912483
 21
-41.47491680501727
  0
LINE
  8
0
 10
30.225394337912483
 20
-41.47491680501727
 11
30.523051478451308
 21
-41.772948461893606
  0
LINE
  8
0
 10
30.523051478451308
 20
-41.772948461893606
 11
30.743375271023954
 21
-42.03766143807185
  0
LINE
  8
0
 10
30.743375271023954
 20
-42.03766143807185
 11
30.940966398821747
 21
-42.25232831015049
  0
LINE
  8
0
 10
30.940966398821747
 20
-42.25232831015049
 11
31.241014173153513
 21
-42.547335745609914
  0
LINE
  8
0
 10
31.241014173153513
 20
-42.547335745609914
 11
31.65179039828121
 21
-42.91277846638939
  0
LINE
  8
0
 10
31.65179039828121
 20
-42.91277846638939
 11
32.18082320165078
 21
-43.33813798378726
  0
LINE
  8
0
 10
32.18082320165078
 20
-43.33813798378726
 11
32.83485706267073
 21
-43.8123326409072
  0
LINE
  8
0
 10
32.83485706267073
 20
-43.8123326409072
 11
33.61981600709343
 21
-44.32377008500956
  0
LINE
  8
0
 10
33.61981600709343
 20
-44.32377008500956
 11
33.9118972318515
 21
-44.493963257667446
  0
LINE
  8
0
 10
33.9118972318515
 20
-44.493963257667446
 11
34.92948234448773
 21
-43.800185475077335
  0
LINE
  8
0
 10
34.92948234448773
 20
-43.800185475077335
 11
35.83229965923032
 21
-42.96249342588768
  0
LINE
  8
0
 10
35.83229965923032
 20
-42.96249342588768
 11
35.731367771667585
 21
-42.63986374351379
  0
LINE
  8
0
 10
35.731367771667585
 20
-42.63986374351379
 11
35.40742292950763
 21
-41.760779820957616
  0
LINE
  8
0
 10
35.40742292950763
 20
-41.760779820957616
 11
35.09065354806684
 21
-41.017625716357124
  0
LINE
  8
0
 10
35.09065354806684
 20
-41.017625716357124
 11
34.79367955534305
 21
-40.40720547281432
  0
LINE
  8
0
 10
34.79367955534305
 20
-40.40720547281432
 11
34.528805555813946
 21
-39.92540960974129
  0
LINE
  8
0
 10
34.528805555813946
 20
-39.92540960974129
 11
34.30796148365934
 21
-39.567239329494775
  0
LINE
  8
0
 10
34.30796148365934
 20
-39.567239329494775
 11
34.14264492054809
 21
-39.32683435094162
  0
LINE
  8
0
 10
34.14264492054809
 20
-39.32683435094162
 11
33.93359550745119
 21
-39.05313035715442
  0
LINE
  8
0
 10
33.93359550745119
 20
-39.05313035715442
 11
33.7092710713587
 21
-38.69661781994727
  0
LINE
  8
0
 10
33.7092710713587
 20
-38.69661781994727
 11
33.600465452686954
 21
-38.41980508227043
  0
LINE
  8
0
 10
33.600465452686954
 20
-38.41980508227043
 11
33.59843320735702
 21
-38.233097229511486
  0
LINE
  8
0
 10
33.59843320735702
 20
-38.233097229511486
 11
35.615375677323065
 21
-36.361648107774954
  0
LINE
  8
0
 10
35.615375677323065
 20
-36.361648107774954
 11
35.801409587174426
 21
-36.37762736584436
  0
LINE
  8
0
 10
35.801409587174426
 20
-36.37762736584436
 11
36.06931724622639
 21
-36.50681498373272
  0
LINE
  8
0
 10
36.06931724622639
 20
-36.50681498373272
 11
36.40806911597029
 21
-36.75715437847356
  0
LINE
  8
0
 10
36.40806911597029
 20
-36.75715437847356
 11
36.665385495672794
 21
-36.986073172082854
  0
LINE
  8
0
 10
36.665385495672794
 20
-36.986073172082854
 11
36.892764130915396
 21
-37.16889296310025
  0
LINE
  8
0
 10
36.892764130915396
 20
-37.16889296310025
 11
37.23342919623458
 21
-37.415885609000625
  0
LINE
  8
0
 10
37.23342919623458
 20
-37.415885609000625
 11
37.6940838015838
 21
-37.71602361704263
  0
LINE
  8
0
 10
37.6940838015838
 20
-37.71602361704263
 11
38.280604292052516
 21
-38.05778397217816
  0
LINE
  8
0
 10
38.280604292052516
 20
-38.05778397217816
 11
38.99800818152986
 21
-38.42920357796723
  0
LINE
  8
0
 10
38.99800818152986
 20
-38.42920357796723
 11
39.85042557877255
 21
-38.81793662844943
  0
LINE
  8
0
 10
39.85042557877255
 20
-38.81793662844943
 11
40.16461047371551
 21
-38.9426964363411
  0
LINE
  8
0
 10
40.16461047371551
 20
-38.9426964363411
 11
41.06742778845811
 21
-38.105004387151396
  0
LINE
  8
0
 10
41.06742778845811
 20
-38.105004387151396
 11
41.83530985835639
 21
-37.14211072749667
  0
LINE
  8
0
 10
41.83530985835639
 20
-37.14211072749667
 11
41.68741983758859
 21
-36.83812766936196
  0
LINE
  8
0
 10
41.68741983758859
 20
-36.83812766936196
 11
41.236072531687384
 21
-36.01714386129111
  0
LINE
  8
0
 10
41.236072531687384
 20
-36.01714386129111
 11
40.81207983064668
 21
-35.32950220049157
  0
LINE
  8
0
 10
40.81207983064668
 20
-35.32950220049157
 11
40.42744437563682
 21
-34.77016152359553
  0
LINE
  8
0
 10
40.42744437563682
 20
-34.77016152359553
 11
40.093720852570186
 21
-34.33322434338214
  0
LINE
  8
0
 10
40.093720852570186
 20
-34.33322434338214
 11
39.821960915989735
 21
-34.0119696302222
  0
LINE
  8
0
 10
39.821960915989735
 20
-34.0119696302222
 11
39.62266029949614
 21
-33.7988889318534
  0
LINE
  8
0
 10
39.62266029949614
 20
-33.7988889318534
 11
39.37515233212613
 21
-33.559399183806455
  0
LINE
  8
0
 10
39.37515233212613
 20
-33.559399183806455
 11
39.100197978176745
 21
-33.2403024193942
  0
LINE
  8
0
 10
39.100197978176745
 20
-33.2403024193942
 11
38.951350830637836
 21
-32.98279808726712
  0
LINE
  8
0
 10
38.951350830637836
 20
-32.98279808726712
 11
38.92151392232107
 21
-32.79847849741017
  0
LINE
  8
0
 10
38.92151392232107
 20
-32.79847849741017
 11
40.63700379320911
 21
-30.64732223965443
  0
LINE
  8
0
 10
40.63700379320911
 20
-30.64732223965443
 11
40.823341442827804
 21
-30.6353961071038
  0
LINE
  8
0
 10
40.823341442827804
 20
-30.6353961071038
 11
41.10751121001218
 21
-30.723211241407345
  0
LINE
  8
0
 10
41.10751121001218
 20
-30.723211241407345
 11
41.47979065196169
 21
-30.920266205607586
  0
LINE
  8
0
 10
41.47979065196169
 20
-30.920266205607586
 11
41.76835159607403
 21
-31.108277149075615
  0
LINE
  8
0
 10
41.76835159607403
 20
-31.108277149075615
 11
42.020438475782
 21
-31.255165967001044
  0
LINE
  8
0
 10
42.020438475782
 20
-31.255165967001044
 11
42.39411093746145
 21
-31.448626415776015
  0
LINE
  8
0
 10
42.39411093746145
 20
-31.448626415776015
 11
42.89435366035751
 21
-31.67675512394402
  0
LINE
  8
0
 10
42.89435366035751
 20
-31.67675512394402
 11
43.525259939364226
 21
-31.927281955225453
  0
LINE
  8
0
 10
43.525259939364226
 20
-31.927281955225453
 11
44.290008239882305
 21
-32.18762960944277
  0
LINE
  8
0
 10
44.290008239882305
 20
-32.18762960944277
 11
45.190842493867905
 21
-32.44497461231905
  0
LINE
  8
0
 10
45.190842493867905
 20
-32.44497461231905
 11
45.5201126876177
 21
-32.52151412749566
  0
LINE
  8
0
 10
45.5201126876177
 20
-32.52151412749566
 11
46.28799475751599
 21
-31.558620467840854
  0
LINE
  8
0
 10
46.28799475751599
 20
-31.558620467840854
 11
46.90378836601534
 21
-30.492034650943822
  0
LINE
  8
0
 10
46.90378836601534
 20
-30.492034650943822
 11
46.712243830725505
 21
-30.213488696250106
  0
LINE
  8
0
 10
46.712243830725505
 20
-30.213488696250106
 11
46.1435764140679
 21
-29.468944424301984
  0
LINE
  8
0
 10
46.1435764140679
 20
-29.468944424301984
 11
45.62183168974169
 21
-28.852175985712023
  0
LINE
  8
0
 10
45.62183168974169
 20
-28.852175985712023
 11
45.1581268929197
 21
-28.356409621901964
  0
LINE
  8
0
 10
45.1581268929197
 20
-28.356409621901964
 11
44.76300867835933
 21
-27.97409157913723
  0
LINE
  8
0
 10
44.76300867835933
 20
-27.97409157913723
 11
44.446403545266456
 21
-27.696928732498403
  0
LINE
  8
0
 10
44.446403545266456
 20
-27.696928732498403
 11
44.21757092182863
 21
-27.51593218501028
  0
LINE
  8
0
 10
44.21757092182863
 20
-27.51593218501028
 11
43.93713331918197
 21
-27.316006487930053
  0
LINE
  8
0
 10
43.93713331918197
 20
-27.316006487930053
 11
43.61769107329451
 21
-27.041453590738143
  0
LINE
  8
0
 10
43.61769107329451
 20
-27.041453590738143
 11
43.432127396201956
 21
-26.809009885427425
  0
LINE
  8
0
 10
43.432127396201956
 20
-26.809009885427425
 11
43.375152332126135
 21
-26.63119595353093
  0
LINE
  8
0
 10
43.375152332126135
 20
-26.63119595353093
 11
44.750868394982234
 21
-24.248385835875535
  0
LINE
  8
0
 10
44.750868394982234
 20
-24.248385835875535
 11
44.933347309189465
 21
-24.20882072279872
  0
LINE
  8
0
 10
44.933347309189465
 20
-24.20882072279872
 11
45.22743130148376
 21
-24.253301728527248
  0
LINE
  8
0
 10
45.22743130148376
 20
-24.253301728527248
 11
45.62492220807899
 21
-24.392670379910175
  0
LINE
  8
0
 10
45.62492220807899
 20
-24.392670379910175
 11
45.9382817419423
 21
-24.53557361943859
  0
LINE
  8
0
 10
45.9382817419423
 20
-24.53557361943859
 11
46.20944566178399
 21
-24.643250210806066
  0
LINE
  8
0
 10
46.20944566178399
 20
-24.643250210806066
 11
46.60777829450493
 21
-24.778856875713778
  0
LINE
  8
0
 10
46.60777829450493
 20
-24.778856875713778
 11
47.13643453914456
 21
-24.929880265638644
  0
LINE
  8
0
 10
47.13643453914456
 20
-24.929880265638644
 11
47.79763320295751
 21
-25.083577217638286
  0
LINE
  8
0
 10
47.79763320295751
 20
-25.083577217638286
 11
48.592642701191274
 21
-25.22703718390018
  0
LINE
  8
0
 10
48.592642701191274
 20
-25.22703718390018
 11
49.52177066326954
 21
-25.347245477056102
  0
LINE
  8
0
 10
49.52177066326954
 20
-25.347245477056102
 11
49.8587708038004
 21
-25.373854933226315
  0
LINE
  8
0
 10
49.8587708038004
 20
-25.373854933226315
 11
50.47456441229971
 21
-24.30726911632931
  0
LINE
  8
0
 10
50.47456441229971
 20
-24.30726911632931
 11
50.924513747754766
 21
-23.160816906859544
  0
LINE
  8
0
 10
50.924513747754766
 20
-23.160816906859544
 11
50.69359348634329
 21
-22.913930311951283
  0
LINE
  8
0
 10
50.69359348634329
 20
-22.913930311951283
 11
50.0203090493228
 21
-22.262457464838832
  0
LINE
  8
0
 10
50.0203090493228
 20
-22.262457464838832
 11
49.412467216695326
 21
-21.730339836197377
  0
LINE
  8
0
 10
49.412467216695326
 20
-21.730339836197377
 11
48.8800514769731
 21
-21.309222386811562
  0
LINE
  8
0
 10
48.8800514769731
 20
-21.309222386811562
 11
48.43236485891909
 21
-20.9900638348093
  0
LINE
  8
0
 10
48.43236485891909
 20
-20.9900638348093
 11
48.077986964812844
 21
-20.76318421468769
  0
LINE
  8
0
 10
48.077986964812844
 20
-20.76318421468769
 11
47.82473407710387
 21
-20.61831498186332
  0
LINE
  8
0
 10
47.82473407710387
 20
-20.61831498186332
 11
47.51763135181449
 21
-20.46241934545532
  0
LINE
  8
0
 10
47.51763135181449
 20
-20.46241934545532
 11
47.16083702589967
 21
-20.238543373522013
  0
LINE
  8
0
 10
47.16083702589967
 20
-20.238543373522013
 11
46.94270200516497
 21
-20.036352703302644
  0
LINE
  8
0
 10
46.94270200516497
 20
-20.036352703302644
 11
46.85986151411309
 21
-19.869016498776485
  0
LINE
  8
0
 10
46.85986151411309
 20
-19.869016498776485
 11
47.86507254539539
 21
-17.30778056177467
  0
LINE
  8
0
 10
47.86507254539539
 20
-17.30778056177467
 11
48.03961644678511
 21
-17.24146028741842
  0
LINE
  8
0
 10
48.03961644678511
 20
-17.24146028741842
 11
48.33704531376063
 21
-17.241613532406603
  0
LINE
  8
0
 10
48.33704531376063
 20
-17.241613532406603
 11
48.750868394982206
 21
-17.320182605600092
  0
LINE
  8
0
 10
48.750868394982206
 20
-17.320182605600092
 11
49.08202658442101
 21
-17.41478591895833
  0
LINE
  8
0
 10
49.08202658442101
 20
-17.41478591895833
 11
49.36621019051205
 21
-17.48084496664692
  0
LINE
  8
0
 10
49.36621019051205
 20
-17.48084496664692
 11
49.78030490148437
 21
-17.55556861887659
  0
LINE
  8
0
 10
49.78030490148437
 20
-17.55556861887659
 11
50.32556536094046
 21
-17.62611307758604
  0
LINE
  8
0
 10
50.32556536094046
 20
-17.62611307758604
 11
51.00228632400797
 21
-17.67954681437279
  0
LINE
  8
0
 10
51.00228632400797
 20
-17.67954681437279
 11
51.80979782148051
 21
-17.70291443409343
  0
LINE
  8
0
 10
51.80979782148051
 20
-17.70291443409343
 11
52.74646430831636
 21
-17.683300762898117
  0
LINE
  8
0
 10
52.74646430831636
 20
-17.683300762898117
 11
53.08366636936482
 21
-17.659385748781904
  0
LINE
  8
0
 10
53.08366636936482
 20
-17.659385748781904
 11
53.53361570481967
 21
-16.512933539312005
  0
LINE
  8
0
 10
53.53361570481967
 20
-16.512933539312005
 11
53.80766964259488
 21
-15.31222478517365
  0
LINE
  8
0
 10
53.80766964259488
 20
-15.31222478517365
 11
53.542532032117784
 21
-15.102512588613415
  0
LINE
  8
0
 10
53.542532032117784
 20
-15.102512588613415
 11
52.77967063648842
 21
-14.558663993214658
  0
LINE
  8
0
 10
52.77967063648842
 20
-14.558663993214658
 11
52.09930987767217
 21
-14.12308380304765
  0
LINE
  8
0
 10
52.09930987767217
 20
-14.12308380304765
 11
51.5100764828846
 21
-13.78602233602972
  0
LINE
  8
0
 10
51.5100764828846
 20
-13.78602233602972
 11
51.01982204060439
 21
-13.537152749448023
  0
LINE
  8
0
 10
51.01982204060439
 20
-13.537152749448023
 11
50.63558760204728
 21
-13.365624471649864
  0
LINE
  8
0
 10
50.63558760204728
 20
-13.365624471649864
 11
50.36357170109077
 21
-13.260118692761349
  0
LINE
  8
0
 10
50.36357170109077
 20
-13.260118692761349
 11
50.03666402056965
 21
-13.151735567933144
  0
LINE
  8
0
 10
50.03666402056965
 20
-13.151735567933144
 11
49.65048781028352
 21
-12.983537540527525
  0
LINE
  8
0
 10
49.65048781028352
 20
-12.983537540527525
 11
49.40465422181262
 21
-12.81611651086218
  0
LINE
  8
0
 10
49.40465422181262
 20
-12.81611651086218
 11
49.29779882346501
 21
-12.662996048000718
  0
LINE
  8
0
 10
49.29779882346501
 20
-12.662996048000718
 11
49.910050069795886
 21
-9.98054807017012
  0
LINE
  8
0
 10
49.910050069795886
 20
-9.98054807017012
 11
50.072759936036164
 21
-9.888954119872594
  0
LINE
  8
0
 10
50.072759936036164
 20
-9.888954119872594
 11
50.36688960829109
 21
-9.844776180880633
  0
LINE
  8
0
 10
50.36688960829109
 20
-9.844776180880633
 11
50.78780074032657
 21
-9.860790572621024
  0
LINE
  8
0
 10
50.78780074032657
 20
-9.860790572621024
 11
51.12936005861123
 21
-9.904980678115923
  0
LINE
  8
0
 10
51.12936005861123
 20
-9.904980678115923
 11
51.420215158790825
 21
-9.927946532159549
  0
LINE
  8
0
 10
51.420215158790825
 20
-9.927946532159549
 11
51.84082175644231
 21
-9.940117968797493
  0
LINE
  8
0
 10
51.84082175644231
 20
-9.940117968797493
 11
52.390506213066395
 21
-9.928607649655167
  0
LINE
  8
0
 10
52.390506213066395
 20
-9.928607649655167
 11
53.06763264732126
 21
-9.880584549845798
  0
LINE
  8
0
 10
53.06763264732126
 20
-9.880584549845798
 11
53.869607671551634
 21
-9.783337829014446
  0
LINE
  8
0
 10
53.869607671551634
 20
-9.783337829014446
 11
54.792889101623935
 21
-9.624340330471785
  0
LINE
  8
0
 10
54.792889101623935
 20
-9.624340330471785
 11
55.12276054635579
 21
-9.550435067966127
  0
LINE
  8
0
 10
0.3118675362266391
 20
-1.4672214011007085
 11
9.18454765366783e-17
 21
-1.5
  0
LINE
  8
0
 10
9.18454765366783e-17
 20
-1.5
 11
-0.3118675362266384
 21
-1.4672214011007085
  0
LINE
  8
0
 10
-0.3118675362266384
 20
-1.4672214011007085
 11
-0.6101049646137001
 21
-1.3703181864639014
  0
LINE
  8
0
 10
-0.6101049646137001
 20
-1.3703181864639014
 11
-0.8816778784387099
 21
-1.213525491562421
  0
LINE
  8
0
 10
-0.8816778784387099
 20
-1.213525491562421
 11
-1.114717238216091
 21
-1.0036959095382878
  0
LINE
  8
0
 10
-1.114717238216091
 20
-1.0036959095382878
 11
-1.299038105676658
 21
-0.7500000000000003
  0
LINE
  8
0
 10
-1.299038105676658
 20
-0.7500000000000003
 11
-1.4265847744427305
 21
-0.46352549156242095
  0
LINE
  8
0
 10
-1.4265847744427305
 20
-0.46352549156242095
 11
-1.49178284305241
 21
-0.15679269490147957
  0
LINE
  8
0
 10
-1.49178284305241
 20
-0.15679269490147957
 11
-1.4917828430524098
 21
0.15679269490148126
  0
LINE
  8
0
 10
-1.4917828430524098
 20
0.15679269490148126
 11
-1.4265847744427302
 21
0.46352549156242123
  0
LINE
  8
0
 10
-1.4265847744427302
 20
0.46352549156242123
 11
-1.2990381056766576
 21
0.7500000000000006
  0
LINE
  8
0
 10
-1.2990381056766576
 20
0.7500000000000006
 11
-1.114717238216091
 21
1.0036959095382878
  0
LINE
  8
0
 10
-1.114717238216091
 20
1.0036959095382878
 11
-0.8816778784387097
 21
1.2135254915624214
  0
LINE
  8
0
 10
-0.8816778784387097
 20
1.2135254915624214
 11
-0.6101049646137005
 21
1.3703181864639014
  0
LINE
  8
0
 10
-0.6101049646137005
 20
1.3703181864639014
 11
-0.3118675362266387
 21
1.4672214011007085
  0
LINE
  8
0
 10
-0.3118675362266387
 20
1.4672214011007085
 11
7.579792913117722e-16
 21
1.5
  0
LINE
  8
0
 10
7.579792913117722e-16
 20
1.5
 11
0.3118675362266389
 21
1.4672214011007085
  0
LINE
  8
0
 10
0.3118675362266389
 20
1.4672214011007085
 11
0.6101049646136999
 21
1.3703181864639014
  0
LINE
  8
0
 10
0.6101049646136999
 20
1.3703181864639014
 11
0.8816778784387097
 21
1.213525491562421
  0
LINE
  8
0
 10
0.8816778784387097
 20
1.213525491562421
 11
1.1147172382160917
 21
1.003695909538287
  0
LINE
  8
0
 10
1.1147172382160917
 20
1.003695909538287
 11
1.299038105676658
 21
0.7499999999999998
  0
LINE
  8
0
 10
1.299038105676658
 20
0.7499999999999998
 11
1.4265847744427305
 21
0.4635254915624211
  0
LINE
  8
0
 10
1.4265847744427305
 20
0.4635254915624211
 11
1.49178284305241
 21
0.1567926949014801
  0
LINE
  8
0
 10
1.49178284305241
 20
0.1567926949014801
 11
1.4917828430524098
 21
-0.1567926949014801
  0
LINE
  8
0
 10
1.4917828430524098
 20
-0.1567926949014801
 11
1.4265847744427302
 21
-0.46352549156242107
  0
LINE
  8
0
 10
1.4265847744427302
 20
-0.46352549156242107
 11
1.299038105676658
 21
-0.7500000000000001
  0
LINE
  8
0
 10
1.299038105676658
 20
-0.7500000000000001
 11
1.1147172382160913
 21
-1.0036959095382874
  0
LINE
  8
0
 10
1.1147172382160913
 20
-1.0036959095382874
 11
0.8816778784387098
 21
-1.2135254915624212
  0
LINE
  8
0
 10
0.8816778784387098
 20
-1.2135254915624212
 11
0.6101049646137003
 21
-1.3703181864639014
  0
LINE
  8
0
 10
0.6101049646137003
 20
-1.3703181864639014
 11
0.3118675362266391
 21
-1.4672214011007085
  0
ENDSEC
  0
SECTION
  2
OBJECTS
  0
DICTIONARY
  0
ENDSEC
  0
EOF
