0
SECTION
2
HEADER
9
$ACADVER
1
AC1009
9
$INSBASE
10
0.0
20
0.0
30
0.0
9
$EXTMIN
10
0.0
20
0.0
9
$EXTMAX
10
0.0
20
0.0
0
ENDSEC
0
SECTION
2
TABLES
0
TABLE
2
LTYPE
70
1
0
LTYPE
2
CONTINUOUS
70
64
3
Solid line
72
65
73
0
40
0.0
0
ENDTAB
0
TABLE
2
LAYER
70
0
0
ENDTAB
0
TABLE
2
STYLE
70
1
0
STYLE
2
STANDARD
70
0
40
0
41
40
50
50
71
0
42
1
3
ARIAL.TTF
4

0
ENDTAB
0
TABLE
2
VIEW
70
0
0
ENDTAB
0
ENDSEC
0
SECTION
2
BLOCKS
0
ENDSEC
0
SECTION
2
ENTITIES
0
LINE
8
0
10
147.022078108
20
64.3472950447
11
147.231447135
21
65.579552877
0
LINE
8
0
10
147.231447135
20
65.579552877
11
147.30153059
21
66.827504424
0
LINE
8
0
10
147.30153059
20
66.827504424
11
146.881833193
21
67.0307778084
0
LINE
8
0
10
146.881833193
20
67.0307778084
11
146.090212264
21
67.3782683563
0
LINE
8
0
10
146.090212264
20
67.3782683563
11
145.376141954
21
67.6603652251
0
LINE
8
0
10
145.376141954
20
67.6603652251
11
144.743279548
21
67.8834035539
0
LINE
8
0
10
144.743279548
20
67.8834035539
11
144.194915261
21
68.053895782
0
LINE
8
0
10
144.194915261
20
68.053895782
11
143.733964278
21
68.1785129967
0
LINE
8
0
10
143.733964278
20
68.1785129967
11
143.36295967
21
68.2640659395
0
LINE
8
0
10
143.36295967
20
68.2640659395
11
142.970444031
21
68.3392437237
0
LINE
8
0
10
142.970444031
20
68.3392437237
11
142.666268321
21
68.424721613
0
LINE
8
0
10
142.666268321
20
68.424721613
11
142.465228727
21
68.5215132211
0
LINE
8
0
10
142.465228727
20
68.5215132211
11
142.367606423
21
68.6220253315
0
LINE
8
0
10
142.367606423
20
68.6220253315
11
142.521880453
21
71.3691289455
0
LINE
8
0
10
142.521880453
20
71.3691289455
11
142.630142714
21
71.4580788266
0
LINE
8
0
10
142.630142714
20
71.4580788266
11
142.840755435
21
71.5317525367
0
LINE
8
0
10
142.840755435
20
71.5317525367
11
143.152589039
21
71.582636085
0
LINE
8
0
10
143.152589039
20
71.582636085
11
143.551053864
21
71.6133933591
0
LINE
8
0
10
143.551053864
20
71.6133933591
11
143.929304563
21
71.6568690263
0
LINE
8
0
10
143.929304563
20
71.6568690263
11
144.401309884
21
71.7290925389
0
LINE
8
0
10
144.401309884
20
71.7290925389
11
144.965315244
21
71.8371154275
0
LINE
8
0
10
144.965315244
20
71.8371154275
11
145.619170714
21
71.9878932303
0
LINE
8
0
10
145.619170714
20
71.9878932303
11
146.360335927
21
72.1882658252
0
LINE
8
0
10
146.360335927
20
72.1882658252
11
147.185885908
21
72.4449380028
0
LINE
8
0
10
147.185885908
20
72.4449380028
11
147.625703734
21
72.5999420476
0
LINE
8
0
10
147.625703734
20
72.5999420476
11
147.695787189
21
73.8478935946
0
LINE
8
0
10
147.695787189
20
73.8478935946
11
147.625703734
21
75.0958451417
0
LINE
8
0
10
147.625703734
20
75.0958451417
11
147.185885908
21
75.2508491865
0
LINE
8
0
10
147.185885908
20
75.2508491865
11
146.360335927
21
75.5075213641
0
LINE
8
0
10
146.360335927
20
75.5075213641
11
145.619170714
21
75.707893959
0
LINE
8
0
10
145.619170714
20
75.707893959
11
144.965315244
21
75.8586717618
0
LINE
8
0
10
144.965315244
20
75.8586717618
11
144.401309884
21
75.9666946504
0
LINE
8
0
10
144.401309884
20
75.9666946504
11
143.929304563
21
76.038918163
0
LINE
8
0
10
143.929304563
20
76.038918163
11
143.551053864
21
76.0823938302
0
LINE
8
0
10
143.551053864
20
76.0823938302
11
143.152589039
21
76.1131511043
0
LINE
8
0
10
143.152589039
20
76.1131511043
11
142.840755435
21
76.1640346526
0
LINE
8
0
10
142.840755435
20
76.1640346526
11
142.630142714
21
76.2377083627
0
LINE
8
0
10
142.630142714
20
76.2377083627
11
142.521880453
21
76.3266582438
0
LINE
8
0
10
142.521880453
20
76.3266582438
11
142.367606423
21
79.0737618578
0
LINE
8
0
10
142.367606423
20
79.0737618578
11
142.465228727
21
79.1742739681
0
LINE
8
0
10
142.465228727
20
79.1742739681
11
142.666268321
21
79.2710655763
0
LINE
8
0
10
142.666268321
20
79.2710655763
11
142.970444031
21
79.3565434656
0
LINE
8
0
10
142.970444031
20
79.3565434656
11
143.36295967
21
79.4317212498
0
LINE
8
0
10
143.36295967
20
79.4317212498
11
143.733964278
21
79.5172741926
0
LINE
8
0
10
143.733964278
20
79.5172741926
11
144.194915261
21
79.6418914073
0
LINE
8
0
10
144.194915261
20
79.6418914073
11
144.743279548
21
79.8123836354
0
LINE
8
0
10
144.743279548
20
79.8123836354
11
145.376141954
21
80.0354219641
0
LINE
8
0
10
145.376141954
20
80.0354219641
11
146.090212264
21
80.317518833
0
LINE
8
0
10
146.090212264
20
80.317518833
11
146.881833193
21
80.6650093809
0
LINE
8
0
10
146.881833193
20
80.6650093809
11
147.30153059
21
80.8682827653
0
LINE
8
0
10
147.30153059
20
80.8682827653
11
147.231447135
21
82.1162343123
0
LINE
8
0
10
147.231447135
20
82.1162343123
11
147.022078108
21
83.3484921445
0
LINE
8
0
10
147.022078108
20
83.3484921445
11
146.567670818
21
83.453277584
0
LINE
8
0
10
146.567670818
20
83.453277584
11
145.718573556
21
83.6159035898
0
LINE
8
0
10
145.718573556
20
83.6159035898
11
144.959634021
21
83.732032109
0
LINE
8
0
10
144.959634021
20
83.732032109
11
144.2930081
21
83.8086532675
0
LINE
8
0
10
144.2930081
20
83.8086532675
11
143.720454361
21
83.8528483662
0
LINE
8
0
10
143.720454361
20
83.8528483662
11
143.243330442
21
83.871769924
0
LINE
8
0
10
143.243330442
20
83.871769924
11
142.862590374
21
83.872621584
0
LINE
8
0
10
142.862590374
20
83.872621584
11
142.46318729
21
83.8585715574
0
LINE
8
0
10
142.46318729
20
83.8585715574
11
142.14761728
21
83.8742208746
0
LINE
8
0
10
142.14761728
20
83.8742208746
11
141.93008001
21
83.923850197
0
LINE
8
0
10
141.93008001
20
83.923850197
11
141.812539252
21
84.0001192524
0
LINE
8
0
10
141.812539252
20
84.0001192524
11
141.351657248
21
86.7126764446
0
LINE
8
0
10
141.351657248
20
86.7126764446
11
141.437411938
21
86.8234867861
0
LINE
8
0
10
141.437411938
20
86.8234867861
11
141.626350215
21
86.9421790816
0
LINE
8
0
10
141.626350215
20
86.9421790816
11
141.919042845
21
87.0611763779
0
LINE
8
0
10
141.919042845
20
87.0611763779
11
142.300673188
21
87.179829268
0
LINE
8
0
10
142.300673188
20
87.179829268
11
142.659766106
21
87.3063836083
0
LINE
8
0
10
142.659766106
20
87.3063836083
11
143.103866024
21
87.4818273915
0
LINE
8
0
10
143.103866024
20
87.4818273915
11
143.629693239
21
87.7126449203
0
LINE
8
0
10
143.629693239
20
87.7126449203
11
144.233603969
21
88.0051389386
0
LINE
8
0
10
144.233603969
20
88.0051389386
11
144.911599526
21
88.3654125497
0
LINE
8
0
10
144.911599526
20
88.3654125497
11
145.659336313
21
88.7993515727
0
LINE
8
0
10
145.659336313
20
88.7993515727
11
146.053635343
21
89.0483380158
0
LINE
8
0
10
146.053635343
20
89.0483380158
11
145.844266316
21
90.280595848
0
LINE
8
0
10
145.844266316
20
90.280595848
11
145.498244655
21
91.4816636083
0
LINE
8
0
10
145.498244655
20
91.4816636083
11
145.034962336
21
91.5349127047
0
LINE
8
0
10
145.034962336
20
91.5349127047
11
144.172995684
21
91.6014474222
0
LINE
8
0
10
144.172995684
20
91.6014474222
11
143.405825933
21
91.6318714823
0
LINE
8
0
10
143.405825933
20
91.6318714823
11
142.734812767
21
91.6333724409
0
LINE
8
0
10
142.734812767
20
91.6333724409
11
142.160910845
21
91.6131839707
0
LINE
8
0
10
142.160910845
20
91.6131839707
11
141.684668439
21
91.5785656242
0
LINE
8
0
10
141.684668439
20
91.5785656242
11
141.306227029
21
91.5367825668
0
LINE
8
0
10
141.306227029
20
91.5367825668
11
140.910908412
21
91.4781019268
0
LINE
8
0
10
140.910908412
20
91.4781019268
11
140.595570472
21
91.4583202136
0
LINE
8
0
10
140.595570472
20
91.4583202136
11
140.37384431
21
91.4832810307
0
LINE
8
0
10
140.37384431
20
91.4832810307
11
140.248503199
21
91.545910133
0
LINE
8
0
10
140.248503199
20
91.545910133
11
139.486809079
21
94.1898089227
0
LINE
8
0
10
139.486809079
20
94.1898089227
11
139.55961774
21
94.309523991
0
LINE
8
0
10
139.55961774
20
94.309523991
11
139.734078692
21
94.4486243495
0
LINE
8
0
10
139.734078692
20
94.4486243495
11
140.011607462
21
94.5996445927
0
LINE
8
0
10
140.011607462
20
94.5996445927
11
140.377553284
21
94.7602804597
0
LINE
8
0
10
140.377553284
20
94.7602804597
11
140.720218711
21
94.9262447033
0
LINE
8
0
10
140.720218711
20
94.9262447033
11
141.141882751
21
95.1503087475
0
LINE
8
0
10
141.141882751
20
95.1503087475
11
141.638560311
21
95.4385489128
0
LINE
8
0
10
141.638560311
20
95.4385489128
11
142.205924838
21
95.7968203387
0
LINE
8
0
10
142.205924838
20
95.7968203387
11
142.839319455
21
96.2307400422
0
LINE
8
0
10
142.839319455
20
96.2307400422
11
143.533768874
21
96.7456705053
0
LINE
8
0
10
143.533768874
20
96.7456705053
11
143.897710998
21
97.0372388582
0
LINE
8
0
10
143.897710998
20
97.0372388582
11
143.551689337
21
98.2383066184
0
LINE
8
0
10
143.551689337
20
98.2383066184
11
143.073366465
21
99.3930801827
0
LINE
8
0
10
143.073366465
20
99.3930801827
11
142.607035161
21
99.3941232979
0
LINE
8
0
10
142.607035161
20
99.3941232979
11
141.743038849
21
99.3637300144
0
LINE
8
0
10
141.743038849
20
99.3637300144
11
140.977286487
21
99.3080670152
0
LINE
8
0
10
140.977286487
20
99.3080670152
11
140.310324457
21
99.2344288985
0
LINE
8
0
10
140.310324457
20
99.2344288985
11
139.742291501
21
99.1501107411
0
LINE
8
0
10
139.742291501
20
99.1501107411
11
139.272919633
21
99.062387836
0
LINE
8
0
10
139.272919633
20
99.062387836
11
138.901536001
21
98.9784955075
0
LINE
8
0
10
138.901536001
20
98.9784955075
11
138.515273211
21
98.8759221972
0
LINE
8
0
10
138.515273211
20
98.8759221972
11
138.2041329
21
98.82095822
0
LINE
8
0
10
138.2041329
20
98.82095822
11
137.98100618
21
98.8209366352
0
LINE
8
0
10
137.98100618
20
98.8209366352
11
137.849440953
21
98.8691381869
0
LINE
8
0
10
137.849440953
20
98.8691381869
11
136.796513463
21
101.411130013
0
LINE
8
0
10
136.796513463
20
101.411130013
11
136.855460483
21
101.538244322
0
LINE
8
0
10
136.855460483
20
101.538244322
11
137.013250163
21
101.696003475
0
LINE
8
0
10
137.013250163
20
101.696003475
11
137.272124987
21
101.877147498
0
LINE
8
0
10
137.272124987
20
101.877147498
11
137.617784309
21
102.077746253
0
LINE
8
0
10
137.617784309
20
102.077746253
11
137.939713028
21
102.281033303
0
LINE
8
0
10
137.939713028
20
102.281033303
11
138.33363852
21
102.550899873
0
LINE
8
0
10
138.33363852
20
102.550899873
11
138.794920416
21
102.892937887
0
LINE
8
0
10
138.794920416
20
102.892937887
11
139.318603802
21
103.31248125
0
LINE
8
0
10
139.318603802
20
103.31248125
11
139.899432174
21
103.814590254
0
LINE
8
0
10
139.899432174
20
103.814590254
11
140.531861121
21
104.404036608
0
LINE
8
0
10
140.531861121
20
104.404036608
11
140.860869555
21
104.734520229
0
LINE
8
0
10
140.860869555
20
104.734520229
11
140.382546684
21
105.889293793
0
LINE
8
0
10
140.382546684
20
105.889293793
11
139.777937788
21
106.983251214
0
LINE
8
0
10
139.777937788
20
106.983251214
11
139.314421885
21
106.93207523
0
LINE
8
0
10
139.314421885
20
106.93207523
11
138.45926117
21
106.805136159
0
LINE
8
0
10
138.45926117
20
106.805136159
11
137.704555976
21
106.664086095
0
LINE
8
0
10
137.704555976
20
106.664086095
11
137.050032517
21
106.516234945
0
LINE
8
0
10
137.050032517
20
106.516234945
11
136.495011871
21
106.36884745
0
LINE
8
0
10
136.495011871
20
106.36884745
11
136.038413163
21
106.229123153
0
LINE
8
0
10
136.038413163
20
106.229123153
11
135.678757674
21
106.104176548
0
LINE
8
0
10
135.678757674
20
106.104176548
11
135.306408191
21
105.959000486
0
LINE
8
0
10
135.306408191
20
105.959000486
11
135.003378277
21
105.869545449
0
LINE
8
0
10
135.003378277
20
105.869545449
11
134.781656949
21
105.844541734
0
LINE
8
0
10
134.781656949
20
105.844541734
11
134.645522114
21
105.877709572
0
LINE
8
0
10
134.645522114
20
105.877709572
11
133.314602428
21
108.285827413
0
LINE
8
0
10
133.314602428
20
108.285827413
11
133.358946515
21
108.418742425
0
LINE
8
0
10
133.358946515
20
108.418742425
11
133.498080625
21
108.593176461
0
LINE
8
0
10
133.498080625
20
108.593176461
11
133.735046004
21
108.802166273
0
LINE
8
0
10
133.735046004
20
108.802166273
11
134.056071957
21
109.04020527
0
LINE
8
0
10
134.056071957
20
109.04020527
11
134.353215528
21
109.278258674
0
LINE
8
0
10
134.353215528
20
109.278258674
11
134.71444863
21
109.590534041
0
LINE
8
0
10
134.71444863
20
109.590534041
11
135.134533976
21
109.982068578
0
LINE
8
0
10
135.134533976
20
109.982068578
11
135.607950597
21
110.457607876
0
LINE
8
0
10
135.607950597
20
110.457607876
11
136.128908471
21
111.021591868
0
LINE
8
0
10
136.128908471
20
111.021591868
11
136.691363786
21
111.678141483
0
LINE
8
0
10
136.691363786
20
111.678141483
11
136.981301058
21
112.043384349
0
LINE
8
0
10
136.981301058
20
112.043384349
11
136.376692163
21
113.13734177
0
LINE
8
0
10
136.376692163
20
113.13734177
11
135.653400552
21
114.156725898
0
LINE
8
0
10
135.653400552
20
114.156725898
11
135.198529032
21
114.053974383
0
LINE
8
0
10
135.198529032
20
114.053974383
11
134.362958054
21
113.832085856
0
LINE
8
0
10
134.362958054
20
113.832085856
11
133.628790885
21
113.607422514
0
LINE
8
0
10
133.628790885
20
113.607422514
11
132.994937008
21
113.387217645
0
LINE
8
0
10
132.994937008
20
113.387217645
11
132.459908379
21
113.178614295
0
LINE
8
0
10
132.459908379
20
113.178614295
11
132.021824827
21
112.98864572
0
LINE
8
0
10
132.021824827
20
112.98864572
11
131.678420357
21
112.824216115
0
LINE
8
0
10
131.678420357
20
112.824216115
11
131.32466669
21
112.638262975
0
LINE
8
0
10
131.32466669
20
112.638262975
11
131.033557952
21
112.515441827
0
LINE
8
0
10
131.033557952
20
112.515441827
11
130.816030288
21
112.465770417
0
LINE
8
0
10
130.816030288
20
112.465770417
11
130.677037821
21
112.483487438
0
LINE
8
0
10
130.677037821
20
112.483487438
11
129.084863027
21
114.727447813
0
LINE
8
0
10
129.084863027
20
114.727447813
11
129.114046528
21
114.864492047
0
LINE
8
0
10
129.114046528
20
114.864492047
11
129.232775376
21
115.053407356
0
LINE
8
0
10
129.232775376
20
115.053407356
11
129.444851331
21
115.287614788
0
LINE
8
0
10
129.444851331
20
115.287614788
11
129.73720683
21
115.560100548
0
LINE
8
0
10
129.73720683
20
115.560100548
11
130.005828499
21
115.829926647
0
LINE
8
0
10
130.005828499
20
115.829926647
11
130.329826496
21
116.180683767
0
LINE
8
0
10
130.329826496
20
116.180683767
11
130.703432473
21
116.616791052
0
LINE
8
0
10
130.703432473
20
116.616791052
11
131.120628842
21
117.142346103
0
LINE
8
0
10
131.120628842
20
117.142346103
11
131.57516487
21
117.761112658
0
LINE
8
0
10
131.57516487
20
117.761112658
11
132.06057335
21
118.476509041
0
LINE
8
0
10
132.06057335
20
118.476509041
11
132.307793332
21
118.871918012
0
LINE
8
0
10
132.307793332
20
118.871918012
11
131.584501721
21
119.89130214
0
LINE
8
0
10
131.584501721
20
119.89130214
11
130.751623206
21
120.823293628
0
LINE
8
0
10
130.751623206
20
120.823293628
11
130.311116342
21
120.670258741
0
LINE
8
0
10
130.311116342
20
120.670258741
11
129.505642892
21
120.356211136
0
LINE
8
0
10
129.505642892
20
120.356211136
11
128.801246325
21
120.050759787
0
LINE
8
0
10
128.801246325
20
120.050759787
11
128.196033111
21
119.760970403
0
LINE
8
0
10
128.196033111
20
119.760970403
11
127.687724795
21
119.493774508
0
LINE
8
0
10
127.687724795
20
119.493774508
11
127.273665551
21
119.255950619
0
LINE
8
0
10
127.273665551
20
119.255950619
11
126.950830611
21
119.054105811
0
LINE
8
0
10
126.950830611
20
119.054105811
11
126.62012142
21
118.829714062
0
LINE
8
0
10
126.62012142
20
118.829714062
11
126.344594717
21
118.67507135
0
LINE
8
0
10
126.344594717
20
118.67507135
11
126.133996255
21
118.601356893
0
LINE
8
0
10
126.133996255
20
118.601356893
11
125.993894067
21
118.603400294
0
LINE
8
0
10
125.993894067
20
118.603400294
11
124.160486685
21
120.654984101
0
LINE
8
0
10
124.160486685
20
120.654984101
11
124.174142601
21
120.794434144
0
LINE
8
0
10
124.174142601
20
120.794434144
11
124.270973103
21
120.995455007
0
LINE
8
0
10
124.270973103
20
120.995455007
11
124.455492657
21
121.251934765
0
LINE
8
0
10
124.455492657
20
121.251934765
11
124.71550116
21
121.555440622
0
LINE
8
0
10
124.71550116
20
121.555440622
11
124.952222855
21
121.853646195
0
LINE
8
0
10
124.952222855
20
121.853646195
11
125.234911283
21
122.238474094
0
LINE
8
0
10
125.234911283
20
122.238474094
11
125.557339581
21
122.713669826
0
LINE
8
0
10
125.557339581
20
122.713669826
11
125.913069211
21
123.282631469
0
LINE
8
0
10
125.913069211
20
123.282631469
11
126.295467338
21
123.948399238
0
LINE
8
0
10
126.295467338
20
123.948399238
11
126.697724691
21
124.713645865
0
LINE
8
0
10
126.697724691
20
124.713645865
11
126.899118447
21
125.134248444
0
LINE
8
0
10
126.899118447
20
125.134248444
11
126.066239932
21
126.066239932
0
LINE
8
0
10
126.066239932
20
126.066239932
11
125.134248444
21
126.899118447
0
LINE
8
0
10
125.134248444
20
126.899118447
11
124.713645865
21
126.697724691
0
LINE
8
0
10
124.713645865
20
126.697724691
11
123.948399238
21
126.295467338
0
LINE
8
0
10
123.948399238
20
126.295467338
11
123.282631469
21
125.913069211
0
LINE
8
0
10
123.282631469
20
125.913069211
11
122.713669826
21
125.557339581
0
LINE
8
0
10
122.713669826
20
125.557339581
11
122.238474094
21
125.234911283
0
LINE
8
0
10
122.238474094
20
125.234911283
11
121.853646195
21
124.952222855
0
LINE
8
0
10
121.853646195
20
124.952222855
11
121.555440622
21
124.71550116
0
LINE
8
0
10
121.555440622
20
124.71550116
11
121.251934765
21
124.455492657
0
LINE
8
0
10
121.251934765
20
124.455492657
11
120.995455007
21
124.270973103
0
LINE
8
0
10
120.995455007
20
124.270973103
11
120.794434144
21
124.174142601
0
LINE
8
0
10
120.794434144
20
124.174142601
11
120.654984101
21
124.160486685
0
LINE
8
0
10
120.654984101
20
124.160486685
11
118.603400294
21
125.993894067
0
LINE
8
0
10
118.603400294
20
125.993894067
11
118.601356893
21
126.133996255
0
LINE
8
0
10
118.601356893
20
126.133996255
11
118.67507135
21
126.344594717
0
LINE
8
0
10
118.67507135
20
126.344594717
11
118.829714062
21
126.62012142
0
LINE
8
0
10
118.829714062
20
126.62012142
11
119.054105811
21
126.950830611
0
LINE
8
0
10
119.054105811
20
126.950830611
11
119.255950619
21
127.273665551
0
LINE
8
0
10
119.255950619
20
127.273665551
11
119.493774508
21
127.687724795
0
LINE
8
0
10
119.493774508
20
127.687724795
11
119.760970403
21
128.196033111
0
LINE
8
0
10
119.760970403
20
128.196033111
11
120.050759787
21
128.801246325
0
LINE
8
0
10
120.050759787
20
128.801246325
11
120.356211136
21
129.505642892
0
LINE
8
0
10
120.356211136
20
129.505642892
11
120.670258741
21
130.311116342
0
LINE
8
0
10
120.670258741
20
130.311116342
11
120.823293628
21
130.751623206
0
LINE
8
0
10
120.823293628
20
130.751623206
11
119.89130214
21
131.584501721
0
LINE
8
0
10
119.89130214
20
131.584501721
11
118.871918012
21
132.307793332
0
LINE
8
0
10
118.871918012
20
132.307793332
11
118.476509041
21
132.06057335
0
LINE
8
0
10
118.476509041
20
132.06057335
11
117.761112658
21
131.57516487
0
LINE
8
0
10
117.761112658
20
131.57516487
11
117.142346103
21
131.120628842
0
LINE
8
0
10
117.142346103
20
131.120628842
11
116.616791052
21
130.703432473
0
LINE
8
0
10
116.616791052
20
130.703432473
11
116.180683767
21
130.329826496
0
LINE
8
0
10
116.180683767
20
130.329826496
11
115.829926647
21
130.005828499
0
LINE
8
0
10
115.829926647
20
130.005828499
11
115.560100548
21
129.73720683
0
LINE
8
0
10
115.560100548
20
129.73720683
11
115.287614788
21
129.444851331
0
LINE
8
0
10
115.287614788
20
129.444851331
11
115.053407356
21
129.232775376
0
LINE
8
0
10
115.053407356
20
129.232775376
11
114.864492047
21
129.114046528
0
LINE
8
0
10
114.864492047
20
129.114046528
11
114.727447813
21
129.084863027
0
LINE
8
0
10
114.727447813
20
129.084863027
11
112.483487438
21
130.677037821
0
LINE
8
0
10
112.483487438
20
130.677037821
11
112.465770417
21
130.816030288
0
LINE
8
0
10
112.465770417
20
130.816030288
11
112.515441827
21
131.033557952
0
LINE
8
0
10
112.515441827
20
131.033557952
11
112.638262975
21
131.32466669
0
LINE
8
0
10
112.638262975
20
131.32466669
11
112.824216115
21
131.678420357
0
LINE
8
0
10
112.824216115
20
131.678420357
11
112.98864572
21
132.021824827
0
LINE
8
0
10
112.98864572
20
132.021824827
11
113.178614295
21
132.459908379
0
LINE
8
0
10
113.178614295
20
132.459908379
11
113.387217645
21
132.994937008
0
LINE
8
0
10
113.387217645
20
132.994937008
11
113.607422514
21
133.628790885
0
LINE
8
0
10
113.607422514
20
133.628790885
11
113.832085856
21
134.362958054
0
LINE
8
0
10
113.832085856
20
134.362958054
11
114.053974383
21
135.198529032
0
LINE
8
0
10
114.053974383
20
135.198529032
11
114.156725898
21
135.653400552
0
LINE
8
0
10
114.156725898
20
135.653400552
11
113.13734177
21
136.376692163
0
LINE
8
0
10
113.13734177
20
136.376692163
11
112.043384349
21
136.981301058
0
LINE
8
0
10
112.043384349
20
136.981301058
11
111.678141483
21
136.691363786
0
LINE
8
0
10
111.678141483
20
136.691363786
11
111.021591868
21
136.128908471
0
LINE
8
0
10
111.021591868
20
136.128908471
11
110.457607876
21
135.607950597
0
LINE
8
0
10
110.457607876
20
135.607950597
11
109.982068578
21
135.134533976
0
LINE
8
0
10
109.982068578
20
135.134533976
11
109.590534041
21
134.71444863
0
LINE
8
0
10
109.590534041
20
134.71444863
11
109.278258674
21
134.353215528
0
LINE
8
0
10
109.278258674
20
134.353215528
11
109.04020527
21
134.056071957
0
LINE
8
0
10
109.04020527
20
134.056071957
11
108.802166273
21
133.735046004
0
LINE
8
0
10
108.802166273
20
133.735046004
11
108.593176461
21
133.498080625
0
LINE
8
0
10
108.593176461
20
133.498080625
11
108.418742425
21
133.358946515
0
LINE
8
0
10
108.418742425
20
133.358946515
11
108.285827413
21
133.314602428
0
LINE
8
0
10
108.285827413
20
133.314602428
11
105.877709572
21
134.645522114
0
LINE
8
0
10
105.877709572
20
134.645522114
11
105.844541734
21
134.781656949
0
LINE
8
0
10
105.844541734
20
134.781656949
11
105.869545449
21
135.003378277
0
LINE
8
0
10
105.869545449
20
135.003378277
11
105.959000486
21
135.306408191
0
LINE
8
0
10
105.959000486
20
135.306408191
11
106.104176548
21
135.678757674
0
LINE
8
0
10
106.104176548
20
135.678757674
11
106.229123153
21
136.038413163
0
LINE
8
0
10
106.229123153
20
136.038413163
11
106.36884745
21
136.495011871
0
LINE
8
0
10
106.36884745
20
136.495011871
11
106.516234945
21
137.050032517
0
LINE
8
0
10
106.516234945
20
137.050032517
11
106.664086095
21
137.704555976
0
LINE
8
0
10
106.664086095
20
137.704555976
11
106.805136159
21
138.45926117
0
LINE
8
0
10
106.805136159
20
138.45926117
11
106.93207523
21
139.314421885
0
LINE
8
0
10
106.93207523
20
139.314421885
11
106.983251214
21
139.777937788
0
LINE
8
0
10
106.983251214
20
139.777937788
11
105.889293793
21
140.382546684
0
LINE
8
0
10
105.889293793
20
140.382546684
11
104.734520229
21
140.860869555
0
LINE
8
0
10
104.734520229
20
140.860869555
11
104.404036608
21
140.531861121
0
LINE
8
0
10
104.404036608
20
140.531861121
11
103.814590254
21
139.899432174
0
LINE
8
0
10
103.814590254
20
139.899432174
11
103.31248125
21
139.318603802
0
LINE
8
0
10
103.31248125
20
139.318603802
11
102.892937887
21
138.794920416
0
LINE
8
0
10
102.892937887
20
138.794920416
11
102.550899873
21
138.33363852
0
LINE
8
0
10
102.550899873
20
138.33363852
11
102.281033303
21
137.939713028
0
LINE
8
0
10
102.281033303
20
137.939713028
11
102.077746253
21
137.617784309
0
LINE
8
0
10
102.077746253
20
137.617784309
11
101.877147498
21
137.272124987
0
LINE
8
0
10
101.877147498
20
137.272124987
11
101.696003475
21
137.013250163
0
LINE
8
0
10
101.696003475
20
137.013250163
11
101.538244322
21
136.855460483
0
LINE
8
0
10
101.538244322
20
136.855460483
11
101.411130013
21
136.796513463
0
LINE
8
0
10
101.411130013
20
136.796513463
11
98.8691381869
21
137.849440953
0
LINE
8
0
10
98.8691381869
20
137.849440953
11
98.8209366352
21
137.98100618
0
LINE
8
0
10
98.8209366352
20
137.98100618
11
98.82095822
21
138.2041329
0
LINE
8
0
10
98.82095822
20
138.2041329
11
98.8759221972
21
138.515273211
0
LINE
8
0
10
98.8759221972
20
138.515273211
11
98.9784955075
21
138.901536001
0
LINE
8
0
10
98.9784955075
20
138.901536001
11
99.062387836
21
139.272919633
0
LINE
8
0
10
99.062387836
20
139.272919633
11
99.1501107411
21
139.742291501
0
LINE
8
0
10
99.1501107411
20
139.742291501
11
99.2344288985
21
140.310324457
0
LINE
8
0
10
99.2344288985
20
140.310324457
11
99.3080670152
21
140.977286487
0
LINE
8
0
10
99.3080670152
20
140.977286487
11
99.3637300144
21
141.743038849
0
LINE
8
0
10
99.3637300144
20
141.743038849
11
99.3941232979
21
142.607035161
0
LINE
8
0
10
99.3941232979
20
142.607035161
11
99.3930801827
21
143.073366465
0
LINE
8
0
10
99.3930801827
20
143.073366465
11
98.2383066184
21
143.551689337
0
LINE
8
0
10
98.2383066184
20
143.551689337
11
97.0372388582
21
143.897710998
0
LINE
8
0
10
97.0372388582
20
143.897710998
11
96.7456705053
21
143.533768874
0
LINE
8
0
10
96.7456705053
20
143.533768874
11
96.2307400422
21
142.839319455
0
LINE
8
0
10
96.2307400422
20
142.839319455
11
95.7968203387
21
142.205924838
0
LINE
8
0
10
95.7968203387
20
142.205924838
11
95.4385489128
21
141.638560311
0
LINE
8
0
10
95.4385489128
20
141.638560311
11
95.1503087475
21
141.141882751
0
LINE
8
0
10
95.1503087475
20
141.141882751
11
94.9262447033
21
140.720218711
0
LINE
8
0
10
94.9262447033
20
140.720218711
11
94.7602804597
21
140.377553284
0
LINE
8
0
10
94.7602804597
20
140.377553284
11
94.5996445927
21
140.011607462
0
LINE
8
0
10
94.5996445927
20
140.011607462
11
94.4486243495
21
139.734078692
0
LINE
8
0
10
94.4486243495
20
139.734078692
11
94.309523991
21
139.55961774
0
LINE
8
0
10
94.309523991
20
139.55961774
11
94.1898089227
21
139.486809079
0
LINE
8
0
10
94.1898089227
20
139.486809079
11
91.545910133
21
140.248503199
0
LINE
8
0
10
91.545910133
20
140.248503199
11
91.4832810307
21
140.37384431
0
LINE
8
0
10
91.4832810307
20
140.37384431
11
91.4583202136
21
140.595570472
0
LINE
8
0
10
91.4583202136
20
140.595570472
11
91.4781019268
21
140.910908412
0
LINE
8
0
10
91.4781019268
20
140.910908412
11
91.5367825668
21
141.306227029
0
LINE
8
0
10
91.5367825668
20
141.306227029
11
91.5785656242
21
141.684668439
0
LINE
8
0
10
91.5785656242
20
141.684668439
11
91.6131839707
21
142.160910845
0
LINE
8
0
10
91.6131839707
20
142.160910845
11
91.6333724409
21
142.734812767
0
LINE
8
0
10
91.6333724409
20
142.734812767
11
91.6318714823
21
143.405825933
0
LINE
8
0
10
91.6318714823
20
143.405825933
11
91.6014474222
21
144.172995684
0
LINE
8
0
10
91.6014474222
20
144.172995684
11
91.5349127047
21
145.034962336
0
LINE
8
0
10
91.5349127047
20
145.034962336
11
91.4816636083
21
145.498244655
0
LINE
8
0
10
91.4816636083
20
145.498244655
11
90.280595848
21
145.844266316
0
LINE
8
0
10
90.280595848
20
145.844266316
11
89.0483380158
21
146.053635343
0
LINE
8
0
10
89.0483380158
20
146.053635343
11
88.7993515727
21
145.659336313
0
LINE
8
0
10
88.7993515727
20
145.659336313
11
88.3654125497
21
144.911599526
0
LINE
8
0
10
88.3654125497
20
144.911599526
11
88.0051389386
21
144.233603969
0
LINE
8
0
10
88.0051389386
20
144.233603969
11
87.7126449203
21
143.629693239
0
LINE
8
0
10
87.7126449203
20
143.629693239
11
87.4818273915
21
143.103866024
0
LINE
8
0
10
87.4818273915
20
143.103866024
11
87.3063836083
21
142.659766106
0
LINE
8
0
10
87.3063836083
20
142.659766106
11
87.179829268
21
142.300673188
0
LINE
8
0
10
87.179829268
20
142.300673188
11
87.0611763779
21
141.919042845
0
LINE
8
0
10
87.0611763779
20
141.919042845
11
86.9421790816
21
141.626350215
0
LINE
8
0
10
86.9421790816
20
141.626350215
11
86.8234867861
21
141.437411938
0
LINE
8
0
10
86.8234867861
20
141.437411938
11
86.7126764446
21
141.351657248
0
LINE
8
0
10
86.7126764446
20
141.351657248
11
84.0001192524
21
141.812539252
0
LINE
8
0
10
84.0001192524
20
141.812539252
11
83.923850197
21
141.93008001
0
LINE
8
0
10
83.923850197
20
141.93008001
11
83.8742208746
21
142.14761728
0
LINE
8
0
10
83.8742208746
20
142.14761728
11
83.8585715574
21
142.46318729
0
LINE
8
0
10
83.8585715574
20
142.46318729
11
83.872621584
21
142.862590374
0
LINE
8
0
10
83.872621584
20
142.862590374
11
83.871769924
21
143.243330442
0
LINE
8
0
10
83.871769924
20
143.243330442
11
83.8528483662
21
143.720454361
0
LINE
8
0
10
83.8528483662
20
143.720454361
11
83.8086532675
21
144.2930081
0
LINE
8
0
10
83.8086532675
20
144.2930081
11
83.732032109
21
144.959634021
0
LINE
8
0
10
83.732032109
20
144.959634021
11
83.6159035898
21
145.718573556
0
LINE
8
0
10
83.6159035898
20
145.718573556
11
83.453277584
21
146.567670818
0
LINE
8
0
10
83.453277584
20
146.567670818
11
83.3484921445
21
147.022078108
0
LINE
8
0
10
83.3484921445
20
147.022078108
11
82.1162343123
21
147.231447135
0
LINE
8
0
10
82.1162343123
20
147.231447135
11
80.8682827653
21
147.30153059
0
LINE
8
0
10
80.8682827653
20
147.30153059
11
80.6650093809
21
146.881833193
0
LINE
8
0
10
80.6650093809
20
146.881833193
11
80.317518833
21
146.090212264
0
LINE
8
0
10
80.317518833
20
146.090212264
11
80.0354219641
21
145.376141954
0
LINE
8
0
10
80.0354219641
20
145.376141954
11
79.8123836354
21
144.743279548
0
LINE
8
0
10
79.8123836354
20
144.743279548
11
79.6418914073
21
144.194915261
0
LINE
8
0
10
79.6418914073
20
144.194915261
11
79.5172741926
21
143.733964278
0
LINE
8
0
10
79.5172741926
20
143.733964278
11
79.4317212498
21
143.36295967
0
LINE
8
0
10
79.4317212498
20
143.36295967
11
79.3565434656
21
142.970444031
0
LINE
8
0
10
79.3565434656
20
142.970444031
11
79.2710655763
21
142.666268321
0
LINE
8
0
10
79.2710655763
20
142.666268321
11
79.1742739681
21
142.465228727
0
LINE
8
0
10
79.1742739681
20
142.465228727
11
79.0737618578
21
142.367606423
0
LINE
8
0
10
79.0737618578
20
142.367606423
11
76.3266582438
21
142.521880453
0
LINE
8
0
10
76.3266582438
20
142.521880453
11
76.2377083627
21
142.630142714
0
LINE
8
0
10
76.2377083627
20
142.630142714
11
76.1640346526
21
142.840755435
0
LINE
8
0
10
76.1640346526
20
142.840755435
11
76.1131511043
21
143.152589039
0
LINE
8
0
10
76.1131511043
20
143.152589039
11
76.0823938302
21
143.551053864
0
LINE
8
0
10
76.0823938302
20
143.551053864
11
76.038918163
21
143.929304563
0
LINE
8
0
10
76.038918163
20
143.929304563
11
75.9666946504
21
144.401309884
0
LINE
8
0
10
75.9666946504
20
144.401309884
11
75.8586717618
21
144.965315244
0
LINE
8
0
10
75.8586717618
20
144.965315244
11
75.707893959
21
145.619170714
0
LINE
8
0
10
75.707893959
20
145.619170714
11
75.5075213641
21
146.360335927
0
LINE
8
0
10
75.5075213641
20
146.360335927
11
75.2508491865
21
147.185885908
0
LINE
8
0
10
75.2508491865
20
147.185885908
11
75.0958451417
21
147.625703734
0
LINE
8
0
10
75.0958451417
20
147.625703734
11
73.8478935946
21
147.695787189
0
LINE
8
0
10
73.8478935946
20
147.695787189
11
72.5999420476
21
147.625703734
0
LINE
8
0
10
72.5999420476
20
147.625703734
11
72.4449380028
21
147.185885908
0
LINE
8
0
10
72.4449380028
20
147.185885908
11
72.1882658252
21
146.360335927
0
LINE
8
0
10
72.1882658252
20
146.360335927
11
71.9878932303
21
145.619170714
0
LINE
8
0
10
71.9878932303
20
145.619170714
11
71.8371154275
21
144.965315244
0
LINE
8
0
10
71.8371154275
20
144.965315244
11
71.7290925389
21
144.401309884
0
LINE
8
0
10
71.7290925389
20
144.401309884
11
71.6568690263
21
143.929304563
0
LINE
8
0
10
71.6568690263
20
143.929304563
11
71.6133933591
21
143.551053864
0
LINE
8
0
10
71.6133933591
20
143.551053864
11
71.582636085
21
143.152589039
0
LINE
8
0
10
71.582636085
20
143.152589039
11
71.5317525367
21
142.840755435
0
LINE
8
0
10
71.5317525367
20
142.840755435
11
71.4580788266
21
142.630142714
0
LINE
8
0
10
71.4580788266
20
142.630142714
11
71.3691289455
21
142.521880453
0
LINE
8
0
10
71.3691289455
20
142.521880453
11
68.6220253315
21
142.367606423
0
LINE
8
0
10
68.6220253315
20
142.367606423
11
68.5215132211
21
142.465228727
0
LINE
8
0
10
68.5215132211
20
142.465228727
11
68.424721613
21
142.666268321
0
LINE
8
0
10
68.424721613
20
142.666268321
11
68.3392437237
21
142.970444031
0
LINE
8
0
10
68.3392437237
20
142.970444031
11
68.2640659395
21
143.36295967
0
LINE
8
0
10
68.2640659395
20
143.36295967
11
68.1785129967
21
143.733964278
0
LINE
8
0
10
68.1785129967
20
143.733964278
11
68.053895782
21
144.194915261
0
LINE
8
0
10
68.053895782
20
144.194915261
11
67.8834035539
21
144.743279548
0
LINE
8
0
10
67.8834035539
20
144.743279548
11
67.6603652251
21
145.376141954
0
LINE
8
0
10
67.6603652251
20
145.376141954
11
67.3782683563
21
146.090212264
0
LINE
8
0
10
67.3782683563
20
146.090212264
11
67.0307778084
21
146.881833193
0
LINE
8
0
10
67.0307778084
20
146.881833193
11
66.827504424
21
147.30153059
0
LINE
8
0
10
66.827504424
20
147.30153059
11
65.579552877
21
147.231447135
0
LINE
8
0
10
65.579552877
20
147.231447135
11
64.3472950447
21
147.022078108
0
LINE
8
0
10
64.3472950447
20
147.022078108
11
64.2425096052
21
146.567670818
0
LINE
8
0
10
64.2425096052
20
146.567670818
11
64.0798835995
21
145.718573556
0
LINE
8
0
10
64.0798835995
20
145.718573556
11
63.9637550803
21
144.959634021
0
LINE
8
0
10
63.9637550803
20
144.959634021
11
63.8871339218
21
144.2930081
0
LINE
8
0
10
63.8871339218
20
144.2930081
11
63.8429388231
21
143.720454361
0
LINE
8
0
10
63.8429388231
20
143.720454361
11
63.8240172653
21
143.243330442
0
LINE
8
0
10
63.8240172653
20
143.243330442
11
63.8231656053
21
142.862590374
0
LINE
8
0
10
63.8231656053
20
142.862590374
11
63.8372156319
21
142.46318729
0
LINE
8
0
10
63.8372156319
20
142.46318729
11
63.8215663147
21
142.14761728
0
LINE
8
0
10
63.8215663147
20
142.14761728
11
63.7719369923
21
141.93008001
0
LINE
8
0
10
63.7719369923
20
141.93008001
11
63.6956679368
21
141.812539252
0
LINE
8
0
10
63.6956679368
20
141.812539252
11
60.9831107447
21
141.351657248
0
LINE
8
0
10
60.9831107447
20
141.351657248
11
60.8723004032
21
141.437411938
0
LINE
8
0
10
60.8723004032
20
141.437411938
11
60.7536081077
21
141.626350215
0
LINE
8
0
10
60.7536081077
20
141.626350215
11
60.6346108113
21
141.919042845
0
LINE
8
0
10
60.6346108113
20
141.919042845
11
60.5159579213
21
142.300673188
0
LINE
8
0
10
60.5159579213
20
142.300673188
11
60.389403581
21
142.659766106
0
LINE
8
0
10
60.389403581
20
142.659766106
11
60.2139597978
21
143.103866024
0
LINE
8
0
10
60.2139597978
20
143.103866024
11
59.983142269
21
143.629693239
0
LINE
8
0
10
59.983142269
20
143.629693239
11
59.6906482507
21
144.233603969
0
LINE
8
0
10
59.6906482507
20
144.233603969
11
59.3303746396
21
144.911599526
0
LINE
8
0
10
59.3303746396
20
144.911599526
11
58.8964356166
21
145.659336313
0
LINE
8
0
10
58.8964356166
20
145.659336313
11
58.6474491735
21
146.053635343
0
LINE
8
0
10
58.6474491735
20
146.053635343
11
57.4151913413
21
145.844266316
0
LINE
8
0
10
57.4151913413
20
145.844266316
11
56.214123581
21
145.498244655
0
LINE
8
0
10
56.214123581
20
145.498244655
11
56.1608744845
21
145.034962336
0
LINE
8
0
10
56.1608744845
20
145.034962336
11
56.0943397671
21
144.172995684
0
LINE
8
0
10
56.0943397671
20
144.172995684
11
56.063915707
21
143.405825933
0
LINE
8
0
10
56.063915707
20
143.405825933
11
56.0624147483
21
142.734812767
0
LINE
8
0
10
56.0624147483
20
142.734812767
11
56.0826032186
21
142.160910845
0
LINE
8
0
10
56.0826032186
20
142.160910845
11
56.1172215651
21
141.684668439
0
LINE
8
0
10
56.1172215651
20
141.684668439
11
56.1590046224
21
141.306227029
0
LINE
8
0
10
56.1590046224
20
141.306227029
11
56.2176852624
21
140.910908412
0
LINE
8
0
10
56.2176852624
20
140.910908412
11
56.2374669757
21
140.595570472
0
LINE
8
0
10
56.2374669757
20
140.595570472
11
56.2125061585
21
140.37384431
0
LINE
8
0
10
56.2125061585
20
140.37384431
11
56.1498770563
21
140.248503199
0
LINE
8
0
10
56.1498770563
20
140.248503199
11
53.5059782665
21
139.486809079
0
LINE
8
0
10
53.5059782665
20
139.486809079
11
53.3862631983
21
139.55961774
0
LINE
8
0
10
53.3862631983
20
139.55961774
11
53.2471628398
21
139.734078692
0
LINE
8
0
10
53.2471628398
20
139.734078692
11
53.0961425965
21
140.011607462
0
LINE
8
0
10
53.0961425965
20
140.011607462
11
52.9355067296
21
140.377553284
0
LINE
8
0
10
52.9355067296
20
140.377553284
11
52.7695424859
21
140.720218711
0
LINE
8
0
10
52.7695424859
20
140.720218711
11
52.5454784417
21
141.141882751
0
LINE
8
0
10
52.5454784417
20
141.141882751
11
52.2572382765
21
141.638560311
0
LINE
8
0
10
52.2572382765
20
141.638560311
11
51.8989668506
21
142.205924838
0
LINE
8
0
10
51.8989668506
20
142.205924838
11
51.465047147
21
142.839319455
0
LINE
8
0
10
51.465047147
20
142.839319455
11
50.950116684
21
143.533768874
0
LINE
8
0
10
50.950116684
20
143.533768874
11
50.6585483311
21
143.897710998
0
LINE
8
0
10
50.6585483311
20
143.897710998
11
49.4574805708
21
143.551689337
0
LINE
8
0
10
49.4574805708
20
143.551689337
11
48.3027070065
21
143.073366465
0
LINE
8
0
10
48.3027070065
20
143.073366465
11
48.3016638914
21
142.607035161
0
LINE
8
0
10
48.3016638914
20
142.607035161
11
48.3320571748
21
141.743038849
0
LINE
8
0
10
48.3320571748
20
141.743038849
11
48.3877201741
21
140.977286487
0
LINE
8
0
10
48.3877201741
20
140.977286487
11
48.4613582907
21
140.310324457
0
LINE
8
0
10
48.4613582907
20
140.310324457
11
48.5456764482
21
139.742291501
0
LINE
8
0
10
48.5456764482
20
139.742291501
11
48.6333993533
21
139.272919633
0
LINE
8
0
10
48.6333993533
20
139.272919633
11
48.7172916818
21
138.901536001
0
LINE
8
0
10
48.7172916818
20
138.901536001
11
48.8198649921
21
138.515273211
0
LINE
8
0
10
48.8198649921
20
138.515273211
11
48.8748289692
21
138.2041329
0
LINE
8
0
10
48.8748289692
20
138.2041329
11
48.8748505541
21
137.98100618
0
LINE
8
0
10
48.8748505541
20
137.98100618
11
48.8266490024
21
137.849440953
0
LINE
8
0
10
48.8266490024
20
137.849440953
11
46.2846571763
21
136.796513463
0
LINE
8
0
10
46.2846571763
20
136.796513463
11
46.1575428677
21
136.855460483
0
LINE
8
0
10
46.1575428677
20
136.855460483
11
45.999783714
21
137.013250163
0
LINE
8
0
10
45.999783714
20
137.013250163
11
45.818639691
21
137.272124987
0
LINE
8
0
10
45.818639691
20
137.272124987
11
45.6180409364
21
137.617784309
0
LINE
8
0
10
45.6180409364
20
137.617784309
11
45.414753886
21
137.939713028
0
LINE
8
0
10
45.414753886
20
137.939713028
11
45.1448873162
21
138.33363852
0
LINE
8
0
10
45.1448873162
20
138.33363852
11
44.8028493018
21
138.794920416
0
LINE
8
0
10
44.8028493018
20
138.794920416
11
44.3833059394
21
139.318603802
0
LINE
8
0
10
44.3833059394
20
139.318603802
11
43.8811969354
21
139.899432174
0
LINE
8
0
10
43.8811969354
20
139.899432174
11
43.2917505816
21
140.531861121
0
LINE
8
0
10
43.2917505816
20
140.531861121
11
42.9612669601
21
140.860869555
0
LINE
8
0
10
42.9612669601
20
140.860869555
11
41.8064933958
21
140.382546684
0
LINE
8
0
10
41.8064933958
20
140.382546684
11
40.7125359751
21
139.777937788
0
LINE
8
0
10
40.7125359751
20
139.777937788
11
40.763711959
21
139.314421885
0
LINE
8
0
10
40.763711959
20
139.314421885
11
40.8906510302
21
138.45926117
0
LINE
8
0
10
40.8906510302
20
138.45926117
11
41.0317010943
21
137.704555976
0
LINE
8
0
10
41.0317010943
20
137.704555976
11
41.1795522442
21
137.050032517
0
LINE
8
0
10
41.1795522442
20
137.050032517
11
41.3269397391
21
136.495011871
0
LINE
8
0
10
41.3269397391
20
136.495011871
11
41.4666640363
21
136.038413163
0
LINE
8
0
10
41.4666640363
20
136.038413163
11
41.5916106412
21
135.678757674
0
LINE
8
0
10
41.5916106412
20
135.678757674
11
41.736786703
21
135.306408191
0
LINE
8
0
10
41.736786703
20
135.306408191
11
41.8262417402
21
135.003378277
0
LINE
8
0
10
41.8262417402
20
135.003378277
11
41.8512454555
21
134.781656949
0
LINE
8
0
10
41.8512454555
20
134.781656949
11
41.8180776168
21
134.645522114
0
LINE
8
0
10
41.8180776168
20
134.645522114
11
39.4099597766
21
133.314602428
0
LINE
8
0
10
39.4099597766
20
133.314602428
11
39.2770447638
21
133.358946515
0
LINE
8
0
10
39.2770447638
20
133.358946515
11
39.1026107278
21
133.498080625
0
LINE
8
0
10
39.1026107278
20
133.498080625
11
38.8936209162
21
133.735046004
0
LINE
8
0
10
38.8936209162
20
133.735046004
11
38.6555819197
21
134.056071957
0
LINE
8
0
10
38.6555819197
20
134.056071957
11
38.4175285153
21
134.353215528
0
LINE
8
0
10
38.4175285153
20
134.353215528
11
38.1052531484
21
134.71444863
0
LINE
8
0
10
38.1052531484
20
134.71444863
11
37.7137186115
21
135.134533976
0
LINE
8
0
10
37.7137186115
20
135.134533976
11
37.2381793137
21
135.607950597
0
LINE
8
0
10
37.2381793137
20
135.607950597
11
36.6741953213
21
136.128908471
0
LINE
8
0
10
36.6741953213
20
136.128908471
11
36.0176457067
21
136.691363786
0
LINE
8
0
10
36.0176457067
20
136.691363786
11
35.65240284
21
136.981301058
0
LINE
8
0
10
35.65240284
20
136.981301058
11
34.5584454192
21
136.376692163
0
LINE
8
0
10
34.5584454192
20
136.376692163
11
33.5390612913
21
135.653400552
0
LINE
8
0
10
33.5390612913
20
135.653400552
11
33.6418128066
21
135.198529032
0
LINE
8
0
10
33.6418128066
20
135.198529032
11
33.8637013331
21
134.362958054
0
LINE
8
0
10
33.8637013331
20
134.362958054
11
34.0883646756
21
133.628790885
0
LINE
8
0
10
34.0883646756
20
133.628790885
11
34.3085695447
21
132.994937008
0
LINE
8
0
10
34.3085695447
20
132.994937008
11
34.5171728938
21
132.459908379
0
LINE
8
0
10
34.5171728938
20
132.459908379
11
34.7071414691
21
132.021824827
0
LINE
8
0
10
34.7071414691
20
132.021824827
11
34.8715710744
21
131.678420357
0
LINE
8
0
10
34.8715710744
20
131.678420357
11
35.0575242144
21
131.32466669
0
LINE
8
0
10
35.0575242144
20
131.32466669
11
35.1803453625
21
131.033557952
0
LINE
8
0
10
35.1803453625
20
131.033557952
11
35.2300167722
21
130.816030288
0
LINE
8
0
10
35.2300167722
20
130.816030288
11
35.2122997514
21
130.677037821
0
LINE
8
0
10
35.2122997514
20
130.677037821
11
32.968339376
21
129.084863027
0
LINE
8
0
10
32.968339376
20
129.084863027
11
32.8312951425
21
129.114046528
0
LINE
8
0
10
32.8312951425
20
129.114046528
11
32.6423798333
21
129.232775376
0
LINE
8
0
10
32.6423798333
20
129.232775376
11
32.4081724013
21
129.444851331
0
LINE
8
0
10
32.4081724013
20
129.444851331
11
32.1356866413
21
129.73720683
0
LINE
8
0
10
32.1356866413
20
129.73720683
11
31.8658605425
21
130.005828499
0
LINE
8
0
10
31.8658605425
20
130.005828499
11
31.5151034226
21
130.329826496
0
LINE
8
0
10
31.5151034226
20
130.329826496
11
31.0789961371
21
130.703432473
0
LINE
8
0
10
31.0789961371
20
130.703432473
11
30.5534410866
21
131.120628842
0
LINE
8
0
10
30.5534410866
20
131.120628842
11
29.9346745317
21
131.57516487
0
LINE
8
0
10
29.9346745317
20
131.57516487
11
29.2192781487
21
132.06057335
0
LINE
8
0
10
29.2192781487
20
132.06057335
11
28.8238691776
21
132.307793332
0
LINE
8
0
10
28.8238691776
20
132.307793332
11
27.8044850496
21
131.584501721
0
LINE
8
0
10
27.8044850496
20
131.584501721
11
26.8724935614
21
130.751623206
0
LINE
8
0
10
26.8724935614
20
130.751623206
11
27.0255284482
21
130.311116342
0
LINE
8
0
10
27.0255284482
20
130.311116342
11
27.339576053
21
129.505642892
0
LINE
8
0
10
27.339576053
20
129.505642892
11
27.6450274021
21
128.801246325
0
LINE
8
0
10
27.6450274021
20
128.801246325
11
27.9348167865
21
128.196033111
0
LINE
8
0
10
27.9348167865
20
128.196033111
11
28.2020126816
21
127.687724795
0
LINE
8
0
10
28.2020126816
20
127.687724795
11
28.4398365698
21
127.273665551
0
LINE
8
0
10
28.4398365698
20
127.273665551
11
28.6416813778
21
126.950830611
0
LINE
8
0
10
28.6416813778
20
126.950830611
11
28.8660731275
21
126.62012142
0
LINE
8
0
10
28.8660731275
20
126.62012142
11
29.0207158394
21
126.344594717
0
LINE
8
0
10
29.0207158394
20
126.344594717
11
29.0944302966
21
126.133996255
0
LINE
8
0
10
29.0944302966
20
126.133996255
11
29.0923868953
21
125.993894067
0
LINE
8
0
10
29.0923868953
20
125.993894067
11
27.0408030886
21
124.160486685
0
LINE
8
0
10
27.0408030886
20
124.160486685
11
26.901353045
21
124.174142601
0
LINE
8
0
10
26.901353045
20
124.174142601
11
26.7003321824
21
124.270973103
0
LINE
8
0
10
26.7003321824
20
124.270973103
11
26.4438524243
21
124.455492657
0
LINE
8
0
10
26.4438524243
20
124.455492657
11
26.1403465674
21
124.71550116
0
LINE
8
0
10
26.1403465674
20
124.71550116
11
25.842140994
21
124.952222855
0
LINE
8
0
10
25.842140994
20
124.952222855
11
25.4573130953
21
125.234911283
0
LINE
8
0
10
25.4573130953
20
125.234911283
11
24.9821173633
21
125.557339581
0
LINE
8
0
10
24.9821173633
20
125.557339581
11
24.4131557198
21
125.913069211
0
LINE
8
0
10
24.4131557198
20
125.913069211
11
23.7473879508
21
126.295467338
0
LINE
8
0
10
23.7473879508
20
126.295467338
11
22.9821413239
21
126.697724691
0
LINE
8
0
10
22.9821413239
20
126.697724691
11
22.5615387457
21
126.899118447
0
LINE
8
0
10
22.5615387457
20
126.899118447
11
21.6295472575
21
126.066239932
0
LINE
8
0
10
21.6295472575
20
126.066239932
11
20.7966687427
21
125.134248444
0
LINE
8
0
10
20.7966687427
20
125.134248444
11
20.9980624985
21
124.713645865
0
LINE
8
0
10
20.9980624985
20
124.713645865
11
21.4003198508
21
123.948399238
0
LINE
8
0
10
21.4003198508
20
123.948399238
11
21.7827179785
21
123.282631469
0
LINE
8
0
10
21.7827179785
20
123.282631469
11
22.1384476085
21
122.713669826
0
LINE
8
0
10
22.1384476085
20
122.713669826
11
22.4608759062
21
122.238474094
0
LINE
8
0
10
22.4608759062
20
122.238474094
11
22.743564334
21
121.853646195
0
LINE
8
0
10
22.743564334
20
121.853646195
11
22.9802860292
21
121.555440622
0
LINE
8
0
10
22.9802860292
20
121.555440622
11
23.2402945319
21
121.251934765
0
LINE
8
0
10
23.2402945319
20
121.251934765
11
23.4248140858
21
120.995455007
0
LINE
8
0
10
23.4248140858
20
120.995455007
11
23.5216445885
21
120.794434144
0
LINE
8
0
10
23.5216445885
20
120.794434144
11
23.5353005038
21
120.654984101
0
LINE
8
0
10
23.5353005038
20
120.654984101
11
21.7018931224
21
118.603400294
0
LINE
8
0
10
21.7018931224
20
118.603400294
11
21.561790934
21
118.601356893
0
LINE
8
0
10
21.561790934
20
118.601356893
11
21.3511924719
21
118.67507135
0
LINE
8
0
10
21.3511924719
20
118.67507135
11
21.0756657695
21
118.829714062
0
LINE
8
0
10
21.0756657695
20
118.829714062
11
20.744956578
21
119.054105811
0
LINE
8
0
10
20.744956578
20
119.054105811
11
20.422121638
21
119.255950619
0
LINE
8
0
10
20.422121638
20
119.255950619
11
20.0080623946
21
119.493774508
0
LINE
8
0
10
20.0080623946
20
119.493774508
11
19.4997540782
21
119.760970403
0
LINE
8
0
10
19.4997540782
20
119.760970403
11
18.8945408644
21
120.050759787
0
LINE
8
0
10
18.8945408644
20
120.050759787
11
18.1901442975
21
120.356211136
0
LINE
8
0
10
18.1901442975
20
120.356211136
11
17.384670847
21
120.670258741
0
LINE
8
0
10
17.384670847
20
120.670258741
11
16.9441639832
21
120.823293628
0
LINE
8
0
10
16.9441639832
20
120.823293628
11
16.1112854684
21
119.89130214
0
LINE
8
0
10
16.1112854684
20
119.89130214
11
15.3879938576
21
118.871918012
0
LINE
8
0
10
15.3879938576
20
118.871918012
11
15.6352138391
21
118.476509041
0
LINE
8
0
10
15.6352138391
20
118.476509041
11
16.1206223192
21
117.761112658
0
LINE
8
0
10
16.1206223192
20
117.761112658
11
16.5751583472
21
117.142346103
0
LINE
8
0
10
16.5751583472
20
117.142346103
11
16.9923547162
21
116.616791052
0
LINE
8
0
10
16.9923547162
20
116.616791052
11
17.3659606937
21
116.180683767
0
LINE
8
0
10
17.3659606937
20
116.180683767
11
17.68995869
21
115.829926647
0
LINE
8
0
10
17.68995869
20
115.829926647
11
17.9585803597
21
115.560100548
0
LINE
8
0
10
17.9585803597
20
115.560100548
11
18.2509358578
21
115.287614788
0
LINE
8
0
10
18.2509358578
20
115.287614788
11
18.4630118132
21
115.053407356
0
LINE
8
0
10
18.4630118132
20
115.053407356
11
18.5817406616
21
114.864492047
0
LINE
8
0
10
18.5817406616
20
114.864492047
11
18.6109241625
21
114.727447813
0
LINE
8
0
10
18.6109241625
20
114.727447813
11
17.018749368
21
112.483487438
0
LINE
8
0
10
17.018749368
20
112.483487438
11
16.8797569011
21
112.465770417
0
LINE
8
0
10
16.8797569011
20
112.465770417
11
16.6622292373
21
112.515441827
0
LINE
8
0
10
16.6622292373
20
112.515441827
11
16.3711204988
21
112.638262975
0
LINE
8
0
10
16.3711204988
20
112.638262975
11
16.0173668325
21
112.824216115
0
LINE
8
0
10
16.0173668325
20
112.824216115
11
15.6739623627
21
112.98864572
0
LINE
8
0
10
15.6739623627
20
112.98864572
11
15.2358788099
21
113.178614295
0
LINE
8
0
10
15.2358788099
20
113.178614295
11
14.7008501811
21
113.387217645
0
LINE
8
0
10
14.7008501811
20
113.387217645
11
14.0669963044
21
113.607422514
0
LINE
8
0
10
14.0669963044
20
113.607422514
11
13.3328291349
21
113.832085856
0
LINE
8
0
10
13.3328291349
20
113.832085856
11
12.4972581569
21
114.053974383
0
LINE
8
0
10
12.4972581569
20
114.053974383
11
12.0423866368
21
114.156725898
0
LINE
8
0
10
12.0423866368
20
114.156725898
11
11.319095026
21
113.13734177
0
LINE
8
0
10
11.319095026
20
113.13734177
11
10.7144861309
21
112.043384349
0
LINE
8
0
10
10.7144861309
20
112.043384349
11
11.0044234033
21
111.678141483
0
LINE
8
0
10
11.0044234033
20
111.678141483
11
11.566878718
21
111.021591868
0
LINE
8
0
10
11.566878718
20
111.021591868
11
12.087836592
21
110.457607876
0
LINE
8
0
10
12.087836592
20
110.457607876
11
12.5612532138
21
109.982068578
0
LINE
8
0
10
12.5612532138
20
109.982068578
11
12.981338559
21
109.590534041
0
LINE
8
0
10
12.981338559
20
109.590534041
11
13.3425716611
21
109.278258674
0
LINE
8
0
10
13.3425716611
20
109.278258674
11
13.6397152319
21
109.04020527
0
LINE
8
0
10
13.6397152319
20
109.04020527
11
13.9607411854
21
108.802166273
0
LINE
8
0
10
13.9607411854
20
108.802166273
11
14.1977065641
21
108.593176461
0
LINE
8
0
10
14.1977065641
20
108.593176461
11
14.336840674
21
108.418742425
0
LINE
8
0
10
14.336840674
20
108.418742425
11
14.381184761
21
108.285827413
0
LINE
8
0
10
14.381184761
20
108.285827413
11
13.0502650752
21
105.877709572
0
LINE
8
0
10
13.0502650752
20
105.877709572
11
12.9141302407
21
105.844541734
0
LINE
8
0
10
12.9141302407
20
105.844541734
11
12.6924089119
21
105.869545449
0
LINE
8
0
10
12.6924089119
20
105.869545449
11
12.3893789985
21
105.959000486
0
LINE
8
0
10
12.3893789985
20
105.959000486
11
12.0170295151
21
106.104176548
0
LINE
8
0
10
12.0170295151
20
106.104176548
11
11.6573740259
21
106.229123153
0
LINE
8
0
10
11.6573740259
20
106.229123153
11
11.2007753186
21
106.36884745
0
LINE
8
0
10
11.2007753186
20
106.36884745
11
10.6457546728
21
106.516234945
0
LINE
8
0
10
10.6457546728
20
106.516234945
11
9.99123121338
21
106.664086095
0
LINE
8
0
10
9.99123121338
20
106.664086095
11
9.2365260195
21
106.805136159
0
LINE
8
0
10
9.2365260195
20
106.805136159
11
8.38136530382
21
106.93207523
0
LINE
8
0
10
8.38136530382
20
106.93207523
11
7.91784940083
21
106.983251214
0
LINE
8
0
10
7.91784940083
20
106.983251214
11
7.3132405057
21
105.889293793
0
LINE
8
0
10
7.3132405057
20
105.889293793
11
6.8349176339
21
104.734520229
0
LINE
8
0
10
6.8349176339
20
104.734520229
11
7.16392606781
21
104.404036608
0
LINE
8
0
10
7.16392606781
20
104.404036608
11
7.7963550152
21
103.814590254
0
LINE
8
0
10
7.7963550152
20
103.814590254
11
8.37718338771
21
103.31248125
0
LINE
8
0
10
8.37718338771
20
103.31248125
11
8.9008667734
21
102.892937887
0
LINE
8
0
10
8.9008667734
20
102.892937887
11
9.36214866951
21
102.550899873
0
LINE
8
0
10
9.36214866951
20
102.550899873
11
9.75607416152
21
102.281033303
0
LINE
8
0
10
9.75607416152
20
102.281033303
11
10.0780028806
21
102.077746253
0
LINE
8
0
10
10.0780028806
20
102.077746253
11
10.4236622018
21
101.877147498
0
LINE
8
0
10
10.4236622018
20
101.877147498
11
10.6825370267
21
101.696003475
0
LINE
8
0
10
10.6825370267
20
101.696003475
11
10.840326706
21
101.538244322
0
LINE
8
0
10
10.840326706
20
101.538244322
11
10.8992737265
21
101.411130013
0
LINE
8
0
10
10.8992737265
20
101.411130013
11
9.84634623667
21
98.8691381869
0
LINE
8
0
10
9.84634623667
20
98.8691381869
11
9.71478100916
21
98.8209366352
0
LINE
8
0
10
9.71478100916
20
98.8209366352
11
9.49165428957
21
98.82095822
0
LINE
8
0
10
9.49165428957
20
98.82095822
11
9.18051397835
21
98.8759221972
0
LINE
8
0
10
9.18051397835
20
98.8759221972
11
8.79425118867
21
98.9784955075
0
LINE
8
0
10
8.79425118867
20
98.9784955075
11
8.42286755652
21
99.062387836
0
LINE
8
0
10
8.42286755652
20
99.062387836
11
7.95349568826
21
99.1501107411
0
LINE
8
0
10
7.95349568826
20
99.1501107411
11
7.38546273214
21
99.2344288985
0
LINE
8
0
10
7.38546273214
20
99.2344288985
11
6.71850070235
21
99.3080670152
0
LINE
8
0
10
6.71850070235
20
99.3080670152
11
5.95274833979
21
99.3637300144
0
LINE
8
0
10
5.95274833979
20
99.3637300144
11
5.08875202859
21
99.3941232979
0
LINE
8
0
10
5.08875202859
20
99.3941232979
11
4.62242072408
21
99.3930801827
0
LINE
8
0
10
4.62242072408
20
99.3930801827
11
4.14409785227
21
98.2383066184
0
LINE
8
0
10
4.14409785227
20
98.2383066184
11
3.79807619144
21
97.0372388582
0
LINE
8
0
10
3.79807619144
20
97.0372388582
11
4.16201831491
21
96.7456705053
0
LINE
8
0
10
4.16201831491
20
96.7456705053
11
4.85646773402
21
96.2307400422
0
LINE
8
0
10
4.85646773402
20
96.2307400422
11
5.48986235122
21
95.7968203387
0
LINE
8
0
10
5.48986235122
20
95.7968203387
11
6.05722687847
21
95.4385489128
0
LINE
8
0
10
6.05722687847
20
95.4385489128
11
6.55390443792
21
95.1503087475
0
LINE
8
0
10
6.55390443792
20
95.1503087475
11
6.97556847823
21
94.9262447033
0
LINE
8
0
10
6.97556847823
20
94.9262447033
11
7.31823390517
21
94.7602804597
0
LINE
8
0
10
7.31823390517
20
94.7602804597
11
7.6841797276
21
94.5996445927
0
LINE
8
0
10
7.6841797276
20
94.5996445927
11
7.9617084976
21
94.4486243495
0
LINE
8
0
10
7.9617084976
20
94.4486243495
11
8.13616944948
21
94.309523991
0
LINE
8
0
10
8.13616944948
20
94.309523991
11
8.20897811041
21
94.1898089227
0
LINE
8
0
10
8.20897811041
20
94.1898089227
11
7.44728399074
21
91.545910133
0
LINE
8
0
10
7.44728399074
20
91.545910133
11
7.32194287925
21
91.4832810307
0
LINE
8
0
10
7.32194287925
20
91.4832810307
11
7.1002167169
21
91.4583202136
0
LINE
8
0
10
7.1002167169
20
91.4583202136
11
6.78487877775
21
91.4781019268
0
LINE
8
0
10
6.78487877775
20
91.4781019268
11
6.38956016046
21
91.5367825668
0
LINE
8
0
10
6.38956016046
20
91.5367825668
11
6.01111875003
21
91.5785656242
0
LINE
8
0
10
6.01111875003
20
91.5785656242
11
5.53487634445
21
91.6131839707
0
LINE
8
0
10
5.53487634445
20
91.6131839707
11
4.96097442201
21
91.6333724409
0
LINE
8
0
10
4.96097442201
20
91.6333724409
11
4.28996125632
21
91.6318714823
0
LINE
8
0
10
4.28996125632
20
91.6318714823
11
3.52279150534
21
91.6014474222
0
LINE
8
0
10
3.52279150534
20
91.6014474222
11
2.66082485354
21
91.5349127047
0
LINE
8
0
10
2.66082485354
20
91.5349127047
11
2.19754253423
21
91.4816636083
0
LINE
8
0
10
2.19754253423
20
91.4816636083
11
1.85152087339
21
90.280595848
0
LINE
8
0
10
1.85152087339
20
90.280595848
11
1.64215184667
21
89.0483380158
0
LINE
8
0
10
1.64215184667
20
89.0483380158
11
2.03645087635
21
88.7993515727
0
LINE
8
0
10
2.03645087635
20
88.7993515727
11
2.78418766279
21
88.3654125497
0
LINE
8
0
10
2.78418766279
20
88.3654125497
11
3.46218321986
21
88.0051389386
0
LINE
8
0
10
3.46218321986
20
88.0051389386
11
4.06609395056
21
87.7126449203
0
LINE
8
0
10
4.06609395056
20
87.7126449203
11
4.59192116486
21
87.4818273915
0
LINE
8
0
10
4.59192116486
20
87.4818273915
11
5.0360210835
21
87.3063836083
0
LINE
8
0
10
5.0360210835
20
87.3063836083
11
5.39511400176
21
87.179829268
0
LINE
8
0
10
5.39511400176
20
87.179829268
11
5.77674434435
21
87.0611763779
0
LINE
8
0
10
5.77674434435
20
87.0611763779
11
6.06943697411
21
86.9421790816
0
LINE
8
0
10
6.06943697411
20
86.9421790816
11
6.25837525091
21
86.8234867861
0
LINE
8
0
10
6.25837525091
20
86.8234867861
11
6.34412994116
21
86.7126764446
0
LINE
8
0
10
6.34412994116
20
86.7126764446
11
5.88324793711
21
84.0001192524
0
LINE
8
0
10
5.88324793711
20
84.0001192524
11
5.76570717884
21
83.923850197
0
LINE
8
0
10
5.76570717884
20
83.923850197
11
5.54816990888
21
83.8742208746
0
LINE
8
0
10
5.54816990888
20
83.8742208746
11
5.23259989934
21
83.8585715574
0
LINE
8
0
10
5.23259989934
20
83.8585715574
11
4.83319681542
21
83.872621584
0
LINE
8
0
10
4.83319681542
20
83.872621584
11
4.45245674703
21
83.871769924
0
LINE
8
0
10
4.45245674703
20
83.871769924
11
3.9753328287
21
83.8528483662
0
LINE
8
0
10
3.9753328287
20
83.8528483662
11
3.40277908959
21
83.8086532675
0
LINE
8
0
10
3.40277908959
20
83.8086532675
11
2.7361531679
21
83.732032109
0
LINE
8
0
10
2.7361531679
20
83.732032109
11
1.97721363324
21
83.6159035898
0
LINE
8
0
10
1.97721363324
20
83.6159035898
11
1.12811637161
21
83.453277584
0
LINE
8
0
10
1.12811637161
20
83.453277584
11
0.673709081469
21
83.3484921445
0
LINE
8
0
10
0.673709081469
20
83.3484921445
11
0.464340054749
21
82.1162343123
0
LINE
8
0
10
0.464340054749
20
82.1162343123
11
0.394256599137
21
80.8682827653
0
LINE
8
0
10
0.394256599137
20
80.8682827653
11
0.813953995934
21
80.6650093809
0
LINE
8
0
10
0.813953995934
20
80.6650093809
11
1.60557492577
21
80.317518833
0
LINE
8
0
10
1.60557492577
20
80.317518833
11
2.31964523521
21
80.0354219641
0
LINE
8
0
10
2.31964523521
20
80.0354219641
11
2.95250764151
21
79.8123836354
0
LINE
8
0
10
2.95250764151
20
79.8123836354
11
3.50087192835
21
79.6418914073
0
LINE
8
0
10
3.50087192835
20
79.6418914073
11
3.96182291118
21
79.5172741926
0
LINE
8
0
10
3.96182291118
20
79.5172741926
11
4.33282751896
21
79.4317212498
0
LINE
8
0
10
4.33282751896
20
79.4317212498
11
4.72534315873
21
79.3565434656
0
LINE
8
0
10
4.72534315873
20
79.3565434656
11
5.0295188686
21
79.2710655763
0
LINE
8
0
10
5.0295188686
20
79.2710655763
11
5.23055846186
21
79.1742739681
0
LINE
8
0
10
5.23055846186
20
79.1742739681
11
5.32818076645
21
79.0737618578
0
LINE
8
0
10
5.32818076645
20
79.0737618578
11
5.17390673662
21
76.3266582438
0
LINE
8
0
10
5.17390673662
20
76.3266582438
11
5.06564447481
21
76.2377083627
0
LINE
8
0
10
5.06564447481
20
76.2377083627
11
4.85503175462
21
76.1640346526
0
LINE
8
0
10
4.85503175462
20
76.1640346526
11
4.54319815067
21
76.1131511043
0
LINE
8
0
10
4.54319815067
20
76.1131511043
11
4.14473332565
21
76.0823938302
0
LINE
8
0
10
4.14473332565
20
76.0823938302
11
3.76648262655
21
76.038918163
0
LINE
8
0
10
3.76648262655
20
76.038918163
11
3.29447730558
21
75.9666946504
0
LINE
8
0
10
3.29447730558
20
75.9666946504
11
2.73047194529
21
75.8586717618
0
LINE
8
0
10
2.73047194529
20
75.8586717618
11
2.07661647533
21
75.707893959
0
LINE
8
0
10
2.07661647533
20
75.707893959
11
1.33545126199
21
75.5075213641
0
LINE
8
0
10
1.33545126199
20
75.5075213641
11
0.509901281253
21
75.2508491865
0
LINE
8
0
10
0.509901281253
20
75.2508491865
11
0.0700834556124
21
75.0958451417
0
LINE
8
0
10
0.0700834556124
20
75.0958451417
11
0.0
21
73.8478935946
0
LINE
8
0
10
0.0
20
73.8478935946
11
0.0700834556125
21
72.5999420476
0
LINE
8
0
10
0.0700834556125
20
72.5999420476
11
0.509901281253
21
72.4449380028
0
LINE
8
0
10
0.509901281253
20
72.4449380028
11
1.33545126199
21
72.1882658252
0
LINE
8
0
10
1.33545126199
20
72.1882658252
11
2.07661647533
21
71.9878932303
0
LINE
8
0
10
2.07661647533
20
71.9878932303
11
2.73047194529
21
71.8371154275
0
LINE
8
0
10
2.73047194529
20
71.8371154275
11
3.29447730558
21
71.7290925389
0
LINE
8
0
10
3.29447730558
20
71.7290925389
11
3.76648262655
21
71.6568690263
0
LINE
8
0
10
3.76648262655
20
71.6568690263
11
4.14473332564
21
71.6133933591
0
LINE
8
0
10
4.14473332564
20
71.6133933591
11
4.54319815067
21
71.582636085
0
LINE
8
0
10
4.54319815067
20
71.582636085
11
4.85503175462
21
71.5317525367
0
LINE
8
0
10
4.85503175462
20
71.5317525367
11
5.06564447481
21
71.4580788266
0
LINE
8
0
10
5.06564447481
20
71.4580788266
11
5.17390673662
21
71.3691289455
0
LINE
8
0
10
5.17390673662
20
71.3691289455
11
5.32818076645
21
68.6220253315
0
LINE
8
0
10
5.32818076645
20
68.6220253315
11
5.23055846186
21
68.5215132211
0
LINE
8
0
10
5.23055846186
20
68.5215132211
11
5.0295188686
21
68.424721613
0
LINE
8
0
10
5.0295188686
20
68.424721613
11
4.72534315873
21
68.3392437237
0
LINE
8
0
10
4.72534315873
20
68.3392437237
11
4.33282751897
21
68.2640659395
0
LINE
8
0
10
4.33282751897
20
68.2640659395
11
3.96182291118
21
68.1785129967
0
LINE
8
0
10
3.96182291118
20
68.1785129967
11
3.50087192835
21
68.053895782
0
LINE
8
0
10
3.50087192835
20
68.053895782
11
2.95250764151
21
67.8834035539
0
LINE
8
0
10
2.95250764151
20
67.8834035539
11
2.31964523521
21
67.6603652251
0
LINE
8
0
10
2.31964523521
20
67.6603652251
11
1.60557492577
21
67.3782683563
0
LINE
8
0
10
1.60557492577
20
67.3782683563
11
0.813953995934
21
67.0307778084
0
LINE
8
0
10
0.813953995934
20
67.0307778084
11
0.394256599137
21
66.827504424
0
LINE
8
0
10
0.394256599137
20
66.827504424
11
0.464340054749
21
65.579552877
0
LINE
8
0
10
0.464340054749
20
65.579552877
11
0.673709081469
21
64.3472950447
0
LINE
8
0
10
0.673709081469
20
64.3472950447
11
1.12811637161
21
64.2425096052
0
LINE
8
0
10
1.12811637161
20
64.2425096052
11
1.97721363324
21
64.0798835995
0
LINE
8
0
10
1.97721363324
20
64.0798835995
11
2.73615316789
21
63.9637550803
0
LINE
8
0
10
2.73615316789
20
63.9637550803
11
3.40277908959
21
63.8871339218
0
LINE
8
0
10
3.40277908959
20
63.8871339218
11
3.9753328287
21
63.8429388231
0
LINE
8
0
10
3.9753328287
20
63.8429388231
11
4.45245674702
21
63.8240172653
0
LINE
8
0
10
4.45245674702
20
63.8240172653
11
4.83319681542
21
63.8231656053
0
LINE
8
0
10
4.83319681542
20
63.8231656053
11
5.23259989934
21
63.8372156319
0
LINE
8
0
10
5.23259989934
20
63.8372156319
11
5.54816990888
21
63.8215663147
0
LINE
8
0
10
5.54816990888
20
63.8215663147
11
5.76570717884
21
63.7719369923
0
LINE
8
0
10
5.76570717884
20
63.7719369923
11
5.88324793711
21
63.6956679368
0
LINE
8
0
10
5.88324793711
20
63.6956679368
11
6.34412994116
21
60.9831107447
0
LINE
8
0
10
6.34412994116
20
60.9831107447
11
6.25837525091
21
60.8723004032
0
LINE
8
0
10
6.25837525091
20
60.8723004032
11
6.06943697411
21
60.7536081077
0
LINE
8
0
10
6.06943697411
20
60.7536081077
11
5.77674434435
21
60.6346108113
0
LINE
8
0
10
5.77674434435
20
60.6346108113
11
5.39511400177
21
60.5159579213
0
LINE
8
0
10
5.39511400177
20
60.5159579213
11
5.0360210835
21
60.389403581
0
LINE
8
0
10
5.0360210835
20
60.389403581
11
4.59192116486
21
60.2139597978
0
LINE
8
0
10
4.59192116486
20
60.2139597978
11
4.06609395056
21
59.983142269
0
LINE
8
0
10
4.06609395056
20
59.983142269
11
3.46218321986
21
59.6906482507
0
LINE
8
0
10
3.46218321986
20
59.6906482507
11
2.78418766279
21
59.3303746396
0
LINE
8
0
10
2.78418766279
20
59.3303746396
11
2.03645087635
21
58.8964356166
0
LINE
8
0
10
2.03645087635
20
58.8964356166
11
1.64215184667
21
58.6474491735
0
LINE
8
0
10
1.64215184667
20
58.6474491735
11
1.85152087339
21
57.4151913413
0
LINE
8
0
10
1.85152087339
20
57.4151913413
11
2.19754253423
21
56.214123581
0
LINE
8
0
10
2.19754253423
20
56.214123581
11
2.66082485354
21
56.1608744845
0
LINE
8
0
10
2.66082485354
20
56.1608744845
11
3.52279150534
21
56.0943397671
0
LINE
8
0
10
3.52279150534
20
56.0943397671
11
4.28996125632
21
56.063915707
0
LINE
8
0
10
4.28996125632
20
56.063915707
11
4.96097442201
21
56.0624147483
0
LINE
8
0
10
4.96097442201
20
56.0624147483
11
5.53487634445
21
56.0826032186
0
LINE
8
0
10
5.53487634445
20
56.0826032186
11
6.01111875003
21
56.1172215651
0
LINE
8
0
10
6.01111875003
20
56.1172215651
11
6.38956016045
21
56.1590046224
0
LINE
8
0
10
6.38956016045
20
56.1590046224
11
6.78487877775
21
56.2176852624
0
LINE
8
0
10
6.78487877775
20
56.2176852624
11
7.1002167169
21
56.2374669757
0
LINE
8
0
10
7.1002167169
20
56.2374669757
11
7.32194287925
21
56.2125061585
0
LINE
8
0
10
7.32194287925
20
56.2125061585
11
7.44728399074
21
56.1498770563
0
LINE
8
0
10
7.44728399074
20
56.1498770563
11
8.20897811041
21
53.5059782665
0
LINE
8
0
10
8.20897811041
20
53.5059782665
11
8.13616944948
21
53.3862631983
0
LINE
8
0
10
8.13616944948
20
53.3862631983
11
7.9617084976
21
53.2471628398
0
LINE
8
0
10
7.9617084976
20
53.2471628398
11
7.6841797276
21
53.0961425965
0
LINE
8
0
10
7.6841797276
20
53.0961425965
11
7.31823390518
21
52.9355067296
0
LINE
8
0
10
7.31823390518
20
52.9355067296
11
6.97556847823
21
52.7695424859
0
LINE
8
0
10
6.97556847823
20
52.7695424859
11
6.55390443792
21
52.5454784417
0
LINE
8
0
10
6.55390443792
20
52.5454784417
11
6.05722687847
21
52.2572382765
0
LINE
8
0
10
6.05722687847
20
52.2572382765
11
5.48986235122
21
51.8989668506
0
LINE
8
0
10
5.48986235122
20
51.8989668506
11
4.85646773402
21
51.465047147
0
LINE
8
0
10
4.85646773402
20
51.465047147
11
4.16201831491
21
50.950116684
0
LINE
8
0
10
4.16201831491
20
50.950116684
11
3.79807619144
21
50.6585483311
0
LINE
8
0
10
3.79807619144
20
50.6585483311
11
4.14409785227
21
49.4574805708
0
LINE
8
0
10
4.14409785227
20
49.4574805708
11
4.62242072408
21
48.3027070065
0
LINE
8
0
10
4.62242072408
20
48.3027070065
11
5.08875202859
21
48.3016638914
0
LINE
8
0
10
5.08875202859
20
48.3016638914
11
5.95274833979
21
48.3320571748
0
LINE
8
0
10
5.95274833979
20
48.3320571748
11
6.71850070235
21
48.3877201741
0
LINE
8
0
10
6.71850070235
20
48.3877201741
11
7.38546273214
21
48.4613582907
0
LINE
8
0
10
7.38546273214
20
48.4613582907
11
7.95349568826
21
48.5456764482
0
LINE
8
0
10
7.95349568826
20
48.5456764482
11
8.42286755651
21
48.6333993533
0
LINE
8
0
10
8.42286755651
20
48.6333993533
11
8.79425118866
21
48.7172916818
0
LINE
8
0
10
8.79425118866
20
48.7172916818
11
9.18051397835
21
48.8198649921
0
LINE
8
0
10
9.18051397835
20
48.8198649921
11
9.49165428957
21
48.8748289692
0
LINE
8
0
10
9.49165428957
20
48.8748289692
11
9.71478100916
21
48.8748505541
0
LINE
8
0
10
9.71478100916
20
48.8748505541
11
9.84634623667
21
48.8266490024
0
LINE
8
0
10
9.84634623667
20
48.8266490024
11
10.8992737265
21
46.2846571763
0
LINE
8
0
10
10.8992737265
20
46.2846571763
11
10.840326706
21
46.1575428677
0
LINE
8
0
10
10.840326706
20
46.1575428677
11
10.6825370267
21
45.999783714
0
LINE
8
0
10
10.6825370267
20
45.999783714
11
10.4236622018
21
45.818639691
0
LINE
8
0
10
10.4236622018
20
45.818639691
11
10.0780028806
21
45.6180409364
0
LINE
8
0
10
10.0780028806
20
45.6180409364
11
9.75607416152
21
45.414753886
0
LINE
8
0
10
9.75607416152
20
45.414753886
11
9.36214866952
21
45.1448873162
0
LINE
8
0
10
9.36214866952
20
45.1448873162
11
8.9008667734
21
44.8028493018
0
LINE
8
0
10
8.9008667734
20
44.8028493018
11
8.37718338771
21
44.3833059394
0
LINE
8
0
10
8.37718338771
20
44.3833059394
11
7.7963550152
21
43.8811969354
0
LINE
8
0
10
7.7963550152
20
43.8811969354
11
7.16392606781
21
43.2917505816
0
LINE
8
0
10
7.16392606781
20
43.2917505816
11
6.8349176339
21
42.9612669601
0
LINE
8
0
10
6.8349176339
20
42.9612669601
11
7.3132405057
21
41.8064933958
0
LINE
8
0
10
7.3132405057
20
41.8064933958
11
7.91784940083
21
40.7125359751
0
LINE
8
0
10
7.91784940083
20
40.7125359751
11
8.38136530382
21
40.763711959
0
LINE
8
0
10
8.38136530382
20
40.763711959
11
9.2365260195
21
40.8906510302
0
LINE
8
0
10
9.2365260195
20
40.8906510302
11
9.99123121338
21
41.0317010943
0
LINE
8
0
10
9.99123121338
20
41.0317010943
11
10.6457546728
21
41.1795522442
0
LINE
8
0
10
10.6457546728
20
41.1795522442
11
11.2007753186
21
41.3269397391
0
LINE
8
0
10
11.2007753186
20
41.3269397391
11
11.6573740259
21
41.4666640363
0
LINE
8
0
10
11.6573740259
20
41.4666640363
11
12.0170295151
21
41.5916106412
0
LINE
8
0
10
12.0170295151
20
41.5916106412
11
12.3893789985
21
41.736786703
0
LINE
8
0
10
12.3893789985
20
41.736786703
11
12.6924089119
21
41.8262417402
0
LINE
8
0
10
12.6924089119
20
41.8262417402
11
12.9141302407
21
41.8512454555
0
LINE
8
0
10
12.9141302407
20
41.8512454555
11
13.0502650752
21
41.8180776168
0
LINE
8
0
10
13.0502650752
20
41.8180776168
11
14.381184761
21
39.4099597766
0
LINE
8
0
10
14.381184761
20
39.4099597766
11
14.336840674
21
39.2770447638
0
LINE
8
0
10
14.336840674
20
39.2770447638
11
14.1977065641
21
39.1026107278
0
LINE
8
0
10
14.1977065641
20
39.1026107278
11
13.9607411854
21
38.8936209162
0
LINE
8
0
10
13.9607411854
20
38.8936209162
11
13.6397152319
21
38.6555819197
0
LINE
8
0
10
13.6397152319
20
38.6555819197
11
13.3425716611
21
38.4175285153
0
LINE
8
0
10
13.3425716611
20
38.4175285153
11
12.981338559
21
38.1052531484
0
LINE
8
0
10
12.981338559
20
38.1052531484
11
12.5612532138
21
37.7137186115
0
LINE
8
0
10
12.5612532138
20
37.7137186115
11
12.0878365921
21
37.2381793137
0
LINE
8
0
10
12.0878365921
20
37.2381793137
11
11.566878718
21
36.6741953213
0
LINE
8
0
10
11.566878718
20
36.6741953213
11
11.0044234033
21
36.0176457067
0
LINE
8
0
10
11.0044234033
20
36.0176457067
11
10.7144861309
21
35.65240284
0
LINE
8
0
10
10.7144861309
20
35.65240284
11
11.319095026
21
34.5584454192
0
LINE
8
0
10
11.319095026
20
34.5584454192
11
12.0423866368
21
33.5390612913
0
LINE
8
0
10
12.0423866368
20
33.5390612913
11
12.4972581569
21
33.6418128066
0
LINE
8
0
10
12.4972581569
20
33.6418128066
11
13.3328291349
21
33.8637013331
0
LINE
8
0
10
13.3328291349
20
33.8637013331
11
14.0669963044
21
34.0883646756
0
LINE
8
0
10
14.0669963044
20
34.0883646756
11
14.7008501811
21
34.3085695447
0
LINE
8
0
10
14.7008501811
20
34.3085695447
11
15.2358788099
21
34.5171728938
0
LINE
8
0
10
15.2358788099
20
34.5171728938
11
15.6739623627
21
34.7071414691
0
LINE
8
0
10
15.6739623627
20
34.7071414691
11
16.0173668325
21
34.8715710744
0
LINE
8
0
10
16.0173668325
20
34.8715710744
11
16.3711204988
21
35.0575242144
0
LINE
8
0
10
16.3711204988
20
35.0575242144
11
16.6622292373
21
35.1803453625
0
LINE
8
0
10
16.6622292373
20
35.1803453625
11
16.8797569011
21
35.2300167722
0
LINE
8
0
10
16.8797569011
20
35.2300167722
11
17.018749368
21
35.2122997514
0
LINE
8
0
10
17.018749368
20
35.2122997514
11
18.6109241625
21
32.968339376
0
LINE
8
0
10
18.6109241625
20
32.968339376
11
18.5817406616
21
32.8312951425
0
LINE
8
0
10
18.5817406616
20
32.8312951425
11
18.4630118132
21
32.6423798333
0
LINE
8
0
10
18.4630118132
20
32.6423798333
11
18.2509358578
21
32.4081724013
0
LINE
8
0
10
18.2509358578
20
32.4081724013
11
17.9585803597
21
32.1356866413
0
LINE
8
0
10
17.9585803597
20
32.1356866413
11
17.68995869
21
31.8658605425
0
LINE
8
0
10
17.68995869
20
31.8658605425
11
17.3659606937
21
31.5151034226
0
LINE
8
0
10
17.3659606937
20
31.5151034226
11
16.9923547162
21
31.0789961371
0
LINE
8
0
10
16.9923547162
20
31.0789961371
11
16.5751583472
21
30.5534410866
0
LINE
8
0
10
16.5751583472
20
30.5534410866
11
16.1206223192
21
29.9346745317
0
LINE
8
0
10
16.1206223192
20
29.9346745317
11
15.6352138391
21
29.2192781487
0
LINE
8
0
10
15.6352138391
20
29.2192781487
11
15.3879938576
21
28.8238691776
0
LINE
8
0
10
15.3879938576
20
28.8238691776
11
16.1112854684
21
27.8044850496
0
LINE
8
0
10
16.1112854684
20
27.8044850496
11
16.9441639832
21
26.8724935614
0
LINE
8
0
10
16.9441639832
20
26.8724935614
11
17.384670847
21
27.0255284482
0
LINE
8
0
10
17.384670847
20
27.0255284482
11
18.1901442975
21
27.339576053
0
LINE
8
0
10
18.1901442975
20
27.339576053
11
18.8945408644
21
27.6450274021
0
LINE
8
0
10
18.8945408644
20
27.6450274021
11
19.4997540782
21
27.9348167865
0
LINE
8
0
10
19.4997540782
20
27.9348167865
11
20.0080623946
21
28.2020126816
0
LINE
8
0
10
20.0080623946
20
28.2020126816
11
20.422121638
21
28.4398365698
0
LINE
8
0
10
20.422121638
20
28.4398365698
11
20.7449565779
21
28.6416813778
0
LINE
8
0
10
20.7449565779
20
28.6416813778
11
21.0756657695
21
28.8660731275
0
LINE
8
0
10
21.0756657695
20
28.8660731275
11
21.3511924719
21
29.0207158394
0
LINE
8
0
10
21.3511924719
20
29.0207158394
11
21.561790934
21
29.0944302966
0
LINE
8
0
10
21.561790934
20
29.0944302966
11
21.7018931224
21
29.0923868953
0
LINE
8
0
10
21.7018931224
20
29.0923868953
11
23.5353005038
21
27.0408030886
0
LINE
8
0
10
23.5353005038
20
27.0408030886
11
23.5216445885
21
26.901353045
0
LINE
8
0
10
23.5216445885
20
26.901353045
11
23.4248140858
21
26.7003321824
0
LINE
8
0
10
23.4248140858
20
26.7003321824
11
23.2402945319
21
26.4438524243
0
LINE
8
0
10
23.2402945319
20
26.4438524243
11
22.9802860292
21
26.1403465674
0
LINE
8
0
10
22.9802860292
20
26.1403465674
11
22.743564334
21
25.842140994
0
LINE
8
0
10
22.743564334
20
25.842140994
11
22.4608759062
21
25.4573130953
0
LINE
8
0
10
22.4608759062
20
25.4573130953
11
22.1384476085
21
24.9821173633
0
LINE
8
0
10
22.1384476085
20
24.9821173633
11
21.7827179785
21
24.4131557198
0
LINE
8
0
10
21.7827179785
20
24.4131557198
11
21.4003198508
21
23.7473879508
0
LINE
8
0
10
21.4003198508
20
23.7473879508
11
20.9980624985
21
22.9821413239
0
LINE
8
0
10
20.9980624985
20
22.9821413239
11
20.7966687427
21
22.5615387457
0
LINE
8
0
10
20.7966687427
20
22.5615387457
11
21.6295472575
21
21.6295472575
0
LINE
8
0
10
21.6295472575
20
21.6295472575
11
22.5615387457
21
20.7966687427
0
LINE
8
0
10
22.5615387457
20
20.7966687427
11
22.9821413239
21
20.9980624985
0
LINE
8
0
10
22.9821413239
20
20.9980624985
11
23.7473879508
21
21.4003198508
0
LINE
8
0
10
23.7473879508
20
21.4003198508
11
24.4131557198
21
21.7827179785
0
LINE
8
0
10
24.4131557198
20
21.7827179785
11
24.9821173633
21
22.1384476085
0
LINE
8
0
10
24.9821173633
20
22.1384476085
11
25.4573130953
21
22.4608759062
0
LINE
8
0
10
25.4573130953
20
22.4608759062
11
25.842140994
21
22.743564334
0
LINE
8
0
10
25.842140994
20
22.743564334
11
26.1403465674
21
22.9802860292
0
LINE
8
0
10
26.1403465674
20
22.9802860292
11
26.4438524243
21
23.2402945319
0
LINE
8
0
10
26.4438524243
20
23.2402945319
11
26.7003321824
21
23.4248140858
0
LINE
8
0
10
26.7003321824
20
23.4248140858
11
26.901353045
21
23.5216445885
0
LINE
8
0
10
26.901353045
20
23.5216445885
11
27.0408030886
21
23.5353005038
0
LINE
8
0
10
27.0408030886
20
23.5353005038
11
29.0923868953
21
21.7018931224
0
LINE
8
0
10
29.0923868953
20
21.7018931224
11
29.0944302966
21
21.561790934
0
LINE
8
0
10
29.0944302966
20
21.561790934
11
29.0207158394
21
21.3511924719
0
LINE
8
0
10
29.0207158394
20
21.3511924719
11
28.8660731275
21
21.0756657695
0
LINE
8
0
10
28.8660731275
20
21.0756657695
11
28.6416813778
21
20.744956578
0
LINE
8
0
10
28.6416813778
20
20.744956578
11
28.4398365698
21
20.422121638
0
LINE
8
0
10
28.4398365698
20
20.422121638
11
28.2020126816
21
20.0080623946
0
LINE
8
0
10
28.2020126816
20
20.0080623946
11
27.9348167865
21
19.4997540782
0
LINE
8
0
10
27.9348167865
20
19.4997540782
11
27.6450274021
21
18.8945408644
0
LINE
8
0
10
27.6450274021
20
18.8945408644
11
27.339576053
21
18.1901442975
0
LINE
8
0
10
27.339576053
20
18.1901442975
11
27.0255284482
21
17.384670847
0
LINE
8
0
10
27.0255284482
20
17.384670847
11
26.8724935614
21
16.9441639832
0
LINE
8
0
10
26.8724935614
20
16.9441639832
11
27.8044850496
21
16.1112854684
0
LINE
8
0
10
27.8044850496
20
16.1112854684
11
28.8238691776
21
15.3879938576
0
LINE
8
0
10
28.8238691776
20
15.3879938576
11
29.2192781487
21
15.6352138391
0
LINE
8
0
10
29.2192781487
20
15.6352138391
11
29.9346745317
21
16.1206223192
0
LINE
8
0
10
29.9346745317
20
16.1206223192
11
30.5534410866
21
16.5751583472
0
LINE
8
0
10
30.5534410866
20
16.5751583472
11
31.0789961371
21
16.9923547162
0
LINE
8
0
10
31.0789961371
20
16.9923547162
11
31.5151034226
21
17.3659606937
0
LINE
8
0
10
31.5151034226
20
17.3659606937
11
31.8658605425
21
17.68995869
0
LINE
8
0
10
31.8658605425
20
17.68995869
11
32.1356866413
21
17.9585803597
0
LINE
8
0
10
32.1356866413
20
17.9585803597
11
32.4081724013
21
18.2509358578
0
LINE
8
0
10
32.4081724013
20
18.2509358578
11
32.6423798333
21
18.4630118132
0
LINE
8
0
10
32.6423798333
20
18.4630118132
11
32.8312951425
21
18.5817406616
0
LINE
8
0
10
32.8312951425
20
18.5817406616
11
32.968339376
21
18.6109241625
0
LINE
8
0
10
32.968339376
20
18.6109241625
11
35.2122997514
21
17.018749368
0
LINE
8
0
10
35.2122997514
20
17.018749368
11
35.2300167722
21
16.8797569011
0
LINE
8
0
10
35.2300167722
20
16.8797569011
11
35.1803453625
21
16.6622292373
0
LINE
8
0
10
35.1803453625
20
16.6622292373
11
35.0575242144
21
16.3711204988
0
LINE
8
0
10
35.0575242144
20
16.3711204988
11
34.8715710744
21
16.0173668325
0
LINE
8
0
10
34.8715710744
20
16.0173668325
11
34.7071414691
21
15.6739623627
0
LINE
8
0
10
34.7071414691
20
15.6739623627
11
34.5171728938
21
15.2358788099
0
LINE
8
0
10
34.5171728938
20
15.2358788099
11
34.3085695447
21
14.7008501811
0
LINE
8
0
10
34.3085695447
20
14.7008501811
11
34.0883646756
21
14.0669963044
0
LINE
8
0
10
34.0883646756
20
14.0669963044
11
33.8637013331
21
13.3328291349
0
LINE
8
0
10
33.8637013331
20
13.3328291349
11
33.6418128066
21
12.4972581569
0
LINE
8
0
10
33.6418128066
20
12.4972581569
11
33.5390612913
21
12.0423866368
0
LINE
8
0
10
33.5390612913
20
12.0423866368
11
34.5584454192
21
11.319095026
0
LINE
8
0
10
34.5584454192
20
11.319095026
11
35.65240284
21
10.7144861309
0
LINE
8
0
10
35.65240284
20
10.7144861309
11
36.0176457067
21
11.0044234033
0
LINE
8
0
10
36.0176457067
20
11.0044234033
11
36.6741953213
21
11.566878718
0
LINE
8
0
10
36.6741953213
20
11.566878718
11
37.2381793137
21
12.087836592
0
LINE
8
0
10
37.2381793137
20
12.087836592
11
37.7137186115
21
12.5612532138
0
LINE
8
0
10
37.7137186115
20
12.5612532138
11
38.1052531484
21
12.981338559
0
LINE
8
0
10
38.1052531484
20
12.981338559
11
38.4175285153
21
13.3425716611
0
LINE
8
0
10
38.4175285153
20
13.3425716611
11
38.6555819197
21
13.6397152319
0
LINE
8
0
10
38.6555819197
20
13.6397152319
11
38.8936209162
21
13.9607411854
0
LINE
8
0
10
38.8936209162
20
13.9607411854
11
39.1026107278
21
14.1977065641
0
LINE
8
0
10
39.1026107278
20
14.1977065641
11
39.2770447638
21
14.336840674
0
LINE
8
0
10
39.2770447638
20
14.336840674
11
39.4099597766
21
14.381184761
0
LINE
8
0
10
39.4099597766
20
14.381184761
11
41.8180776168
21
13.0502650752
0
LINE
8
0
10
41.8180776168
20
13.0502650752
11
41.8512454555
21
12.9141302407
0
LINE
8
0
10
41.8512454555
20
12.9141302407
11
41.8262417402
21
12.6924089119
0
LINE
8
0
10
41.8262417402
20
12.6924089119
11
41.736786703
21
12.3893789985
0
LINE
8
0
10
41.736786703
20
12.3893789985
11
41.5916106412
21
12.0170295151
0
LINE
8
0
10
41.5916106412
20
12.0170295151
11
41.4666640363
21
11.6573740259
0
LINE
8
0
10
41.4666640363
20
11.6573740259
11
41.3269397391
21
11.2007753186
0
LINE
8
0
10
41.3269397391
20
11.2007753186
11
41.1795522442
21
10.6457546728
0
LINE
8
0
10
41.1795522442
20
10.6457546728
11
41.0317010943
21
9.99123121338
0
LINE
8
0
10
41.0317010943
20
9.99123121338
11
40.8906510302
21
9.2365260195
0
LINE
8
0
10
40.8906510302
20
9.2365260195
11
40.763711959
21
8.38136530382
0
LINE
8
0
10
40.763711959
20
8.38136530382
11
40.7125359751
21
7.91784940083
0
LINE
8
0
10
40.7125359751
20
7.91784940083
11
41.8064933958
21
7.3132405057
0
LINE
8
0
10
41.8064933958
20
7.3132405057
11
42.9612669601
21
6.8349176339
0
LINE
8
0
10
42.9612669601
20
6.8349176339
11
43.2917505816
21
7.16392606781
0
LINE
8
0
10
43.2917505816
20
7.16392606781
11
43.8811969354
21
7.7963550152
0
LINE
8
0
10
43.8811969354
20
7.7963550152
11
44.3833059394
21
8.37718338771
0
LINE
8
0
10
44.3833059394
20
8.37718338771
11
44.8028493018
21
8.9008667734
0
LINE
8
0
10
44.8028493018
20
8.9008667734
11
45.1448873162
21
9.36214866951
0
LINE
8
0
10
45.1448873162
20
9.36214866951
11
45.414753886
21
9.75607416152
0
LINE
8
0
10
45.414753886
20
9.75607416152
11
45.6180409364
21
10.0780028806
0
LINE
8
0
10
45.6180409364
20
10.0780028806
11
45.818639691
21
10.4236622018
0
LINE
8
0
10
45.818639691
20
10.4236622018
11
45.999783714
21
10.6825370267
0
LINE
8
0
10
45.999783714
20
10.6825370267
11
46.1575428677
21
10.840326706
0
LINE
8
0
10
46.1575428677
20
10.840326706
11
46.2846571763
21
10.8992737265
0
LINE
8
0
10
46.2846571763
20
10.8992737265
11
48.8266490024
21
9.84634623667
0
LINE
8
0
10
48.8266490024
20
9.84634623667
11
48.8748505541
21
9.71478100916
0
LINE
8
0
10
48.8748505541
20
9.71478100916
11
48.8748289692
21
9.49165428957
0
LINE
8
0
10
48.8748289692
20
9.49165428957
11
48.8198649921
21
9.18051397835
0
LINE
8
0
10
48.8198649921
20
9.18051397835
11
48.7172916818
21
8.79425118867
0
LINE
8
0
10
48.7172916818
20
8.79425118867
11
48.6333993533
21
8.42286755652
0
LINE
8
0
10
48.6333993533
20
8.42286755652
11
48.5456764482
21
7.95349568826
0
LINE
8
0
10
48.5456764482
20
7.95349568826
11
48.4613582907
21
7.38546273214
0
LINE
8
0
10
48.4613582907
20
7.38546273214
11
48.3877201741
21
6.71850070235
0
LINE
8
0
10
48.3877201741
20
6.71850070235
11
48.3320571748
21
5.95274833979
0
LINE
8
0
10
48.3320571748
20
5.95274833979
11
48.3016638914
21
5.08875202859
0
LINE
8
0
10
48.3016638914
20
5.08875202859
11
48.3027070065
21
4.62242072408
0
LINE
8
0
10
48.3027070065
20
4.62242072408
11
49.4574805708
21
4.14409785227
0
LINE
8
0
10
49.4574805708
20
4.14409785227
11
50.6585483311
21
3.79807619144
0
LINE
8
0
10
50.6585483311
20
3.79807619144
11
50.950116684
21
4.16201831491
0
LINE
8
0
10
50.950116684
20
4.16201831491
11
51.465047147
21
4.85646773402
0
LINE
8
0
10
51.465047147
20
4.85646773402
11
51.8989668506
21
5.48986235121
0
LINE
8
0
10
51.8989668506
20
5.48986235121
11
52.2572382765
21
6.05722687847
0
LINE
8
0
10
52.2572382765
20
6.05722687847
11
52.5454784417
21
6.55390443792
0
LINE
8
0
10
52.5454784417
20
6.55390443792
11
52.7695424859
21
6.97556847823
0
LINE
8
0
10
52.7695424859
20
6.97556847823
11
52.9355067296
21
7.31823390517
0
LINE
8
0
10
52.9355067296
20
7.31823390517
11
53.0961425965
21
7.6841797276
0
LINE
8
0
10
53.0961425965
20
7.6841797276
11
53.2471628398
21
7.9617084976
0
LINE
8
0
10
53.2471628398
20
7.9617084976
11
53.3862631983
21
8.13616944948
0
LINE
8
0
10
53.3862631983
20
8.13616944948
11
53.5059782665
21
8.20897811041
0
LINE
8
0
10
53.5059782665
20
8.20897811041
11
56.1498770563
21
7.44728399074
0
LINE
8
0
10
56.1498770563
20
7.44728399074
11
56.2125061585
21
7.32194287925
0
LINE
8
0
10
56.2125061585
20
7.32194287925
11
56.2374669757
21
7.1002167169
0
LINE
8
0
10
56.2374669757
20
7.1002167169
11
56.2176852624
21
6.78487877775
0
LINE
8
0
10
56.2176852624
20
6.78487877775
11
56.1590046224
21
6.38956016046
0
LINE
8
0
10
56.1590046224
20
6.38956016046
11
56.1172215651
21
6.01111875003
0
LINE
8
0
10
56.1172215651
20
6.01111875003
11
56.0826032186
21
5.53487634445
0
LINE
8
0
10
56.0826032186
20
5.53487634445
11
56.0624147483
21
4.96097442201
0
LINE
8
0
10
56.0624147483
20
4.96097442201
11
56.063915707
21
4.28996125632
0
LINE
8
0
10
56.063915707
20
4.28996125632
11
56.0943397671
21
3.52279150534
0
LINE
8
0
10
56.0943397671
20
3.52279150534
11
56.1608744845
21
2.66082485354
0
LINE
8
0
10
56.1608744845
20
2.66082485354
11
56.214123581
21
2.19754253423
0
LINE
8
0
10
56.214123581
20
2.19754253423
11
57.4151913413
21
1.85152087339
0
LINE
8
0
10
57.4151913413
20
1.85152087339
11
58.6474491735
21
1.64215184667
0
LINE
8
0
10
58.6474491735
20
1.64215184667
11
58.8964356166
21
2.03645087635
0
LINE
8
0
10
58.8964356166
20
2.03645087635
11
59.3303746396
21
2.78418766279
0
LINE
8
0
10
59.3303746396
20
2.78418766279
11
59.6906482507
21
3.46218321986
0
LINE
8
0
10
59.6906482507
20
3.46218321986
11
59.983142269
21
4.06609395056
0
LINE
8
0
10
59.983142269
20
4.06609395056
11
60.2139597978
21
4.59192116486
0
LINE
8
0
10
60.2139597978
20
4.59192116486
11
60.389403581
21
5.0360210835
0
LINE
8
0
10
60.389403581
20
5.0360210835
11
60.5159579213
21
5.39511400176
0
LINE
8
0
10
60.5159579213
20
5.39511400176
11
60.6346108113
21
5.77674434435
0
LINE
8
0
10
60.6346108113
20
5.77674434435
11
60.7536081077
21
6.06943697411
0
LINE
8
0
10
60.7536081077
20
6.06943697411
11
60.8723004032
21
6.25837525091
0
LINE
8
0
10
60.8723004032
20
6.25837525091
11
60.9831107447
21
6.34412994116
0
LINE
8
0
10
60.9831107447
20
6.34412994116
11
63.6956679368
21
5.88324793711
0
LINE
8
0
10
63.6956679368
20
5.88324793711
11
63.7719369923
21
5.76570717884
0
LINE
8
0
10
63.7719369923
20
5.76570717884
11
63.8215663147
21
5.54816990888
0
LINE
8
0
10
63.8215663147
20
5.54816990888
11
63.8372156319
21
5.23259989934
0
LINE
8
0
10
63.8372156319
20
5.23259989934
11
63.8231656053
21
4.83319681542
0
LINE
8
0
10
63.8231656053
20
4.83319681542
11
63.8240172653
21
4.45245674703
0
LINE
8
0
10
63.8240172653
20
4.45245674703
11
63.8429388231
21
3.9753328287
0
LINE
8
0
10
63.8429388231
20
3.9753328287
11
63.8871339218
21
3.40277908959
0
LINE
8
0
10
63.8871339218
20
3.40277908959
11
63.9637550803
21
2.7361531679
0
LINE
8
0
10
63.9637550803
20
2.7361531679
11
64.0798835995
21
1.97721363324
0
LINE
8
0
10
64.0798835995
20
1.97721363324
11
64.2425096052
21
1.12811637161
0
LINE
8
0
10
64.2425096052
20
1.12811637161
11
64.3472950447
21
0.673709081469
0
LINE
8
0
10
64.3472950447
20
0.673709081469
11
65.579552877
21
0.464340054749
0
LINE
8
0
10
65.579552877
20
0.464340054749
11
66.827504424
21
0.394256599137
0
LINE
8
0
10
66.827504424
20
0.394256599137
11
67.0307778084
21
0.813953995934
0
LINE
8
0
10
67.0307778084
20
0.813953995934
11
67.3782683563
21
1.60557492577
0
LINE
8
0
10
67.3782683563
20
1.60557492577
11
67.6603652251
21
2.31964523521
0
LINE
8
0
10
67.6603652251
20
2.31964523521
11
67.8834035539
21
2.95250764151
0
LINE
8
0
10
67.8834035539
20
2.95250764151
11
68.053895782
21
3.50087192835
0
LINE
8
0
10
68.053895782
20
3.50087192835
11
68.1785129967
21
3.96182291118
0
LINE
8
0
10
68.1785129967
20
3.96182291118
11
68.2640659395
21
4.33282751896
0
LINE
8
0
10
68.2640659395
20
4.33282751896
11
68.3392437237
21
4.72534315873
0
LINE
8
0
10
68.3392437237
20
4.72534315873
11
68.424721613
21
5.0295188686
0
LINE
8
0
10
68.424721613
20
5.0295188686
11
68.5215132211
21
5.23055846186
0
LINE
8
0
10
68.5215132211
20
5.23055846186
11
68.6220253315
21
5.32818076645
0
LINE
8
0
10
68.6220253315
20
5.32818076645
11
71.3691289455
21
5.17390673662
0
LINE
8
0
10
71.3691289455
20
5.17390673662
11
71.4580788266
21
5.06564447481
0
LINE
8
0
10
71.4580788266
20
5.06564447481
11
71.5317525367
21
4.85503175462
0
LINE
8
0
10
71.5317525367
20
4.85503175462
11
71.582636085
21
4.54319815067
0
LINE
8
0
10
71.582636085
20
4.54319815067
11
71.6133933591
21
4.14473332565
0
LINE
8
0
10
71.6133933591
20
4.14473332565
11
71.6568690263
21
3.76648262655
0
LINE
8
0
10
71.6568690263
20
3.76648262655
11
71.7290925389
21
3.29447730558
0
LINE
8
0
10
71.7290925389
20
3.29447730558
11
71.8371154275
21
2.73047194529
0
LINE
8
0
10
71.8371154275
20
2.73047194529
11
71.9878932303
21
2.07661647533
0
LINE
8
0
10
71.9878932303
20
2.07661647533
11
72.1882658252
21
1.33545126199
0
LINE
8
0
10
72.1882658252
20
1.33545126199
11
72.4449380028
21
0.509901281253
0
LINE
8
0
10
72.4449380028
20
0.509901281253
11
72.5999420476
21
0.0700834556124
0
LINE
8
0
10
72.5999420476
20
0.0700834556124
11
73.8478935946
21
0.0
0
LINE
8
0
10
73.8478935946
20
0.0
11
75.0958451417
21
0.0700834556124
0
LINE
8
0
10
75.0958451417
20
0.0700834556124
11
75.2508491865
21
0.509901281253
0
LINE
8
0
10
75.2508491865
20
0.509901281253
11
75.5075213641
21
1.33545126199
0
LINE
8
0
10
75.5075213641
20
1.33545126199
11
75.707893959
21
2.07661647533
0
LINE
8
0
10
75.707893959
20
2.07661647533
11
75.8586717618
21
2.73047194529
0
LINE
8
0
10
75.8586717618
20
2.73047194529
11
75.9666946504
21
3.29447730558
0
LINE
8
0
10
75.9666946504
20
3.29447730558
11
76.038918163
21
3.76648262655
0
LINE
8
0
10
76.038918163
20
3.76648262655
11
76.0823938302
21
4.14473332564
0
LINE
8
0
10
76.0823938302
20
4.14473332564
11
76.1131511043
21
4.54319815067
0
LINE
8
0
10
76.1131511043
20
4.54319815067
11
76.1640346526
21
4.85503175462
0
LINE
8
0
10
76.1640346526
20
4.85503175462
11
76.2377083627
21
5.06564447481
0
LINE
8
0
10
76.2377083627
20
5.06564447481
11
76.3266582438
21
5.17390673662
0
LINE
8
0
10
76.3266582438
20
5.17390673662
11
79.0737618578
21
5.32818076645
0
LINE
8
0
10
79.0737618578
20
5.32818076645
11
79.1742739681
21
5.23055846186
0
LINE
8
0
10
79.1742739681
20
5.23055846186
11
79.2710655763
21
5.0295188686
0
LINE
8
0
10
79.2710655763
20
5.0295188686
11
79.3565434656
21
4.72534315873
0
LINE
8
0
10
79.3565434656
20
4.72534315873
11
79.4317212498
21
4.33282751897
0
LINE
8
0
10
79.4317212498
20
4.33282751897
11
79.5172741926
21
3.96182291118
0
LINE
8
0
10
79.5172741926
20
3.96182291118
11
79.6418914073
21
3.50087192835
0
LINE
8
0
10
79.6418914073
20
3.50087192835
11
79.8123836354
21
2.95250764151
0
LINE
8
0
10
79.8123836354
20
2.95250764151
11
80.0354219641
21
2.31964523521
0
LINE
8
0
10
80.0354219641
20
2.31964523521
11
80.317518833
21
1.60557492577
0
LINE
8
0
10
80.317518833
20
1.60557492577
11
80.6650093809
21
0.813953995934
0
LINE
8
0
10
80.6650093809
20
0.813953995934
11
80.8682827653
21
0.394256599137
0
LINE
8
0
10
80.8682827653
20
0.394256599137
11
82.1162343123
21
0.464340054749
0
LINE
8
0
10
82.1162343123
20
0.464340054749
11
83.3484921445
21
0.673709081469
0
LINE
8
0
10
83.3484921445
20
0.673709081469
11
83.453277584
21
1.12811637161
0
LINE
8
0
10
83.453277584
20
1.12811637161
11
83.6159035898
21
1.97721363324
0
LINE
8
0
10
83.6159035898
20
1.97721363324
11
83.732032109
21
2.73615316789
0
LINE
8
0
10
83.732032109
20
2.73615316789
11
83.8086532675
21
3.40277908959
0
LINE
8
0
10
83.8086532675
20
3.40277908959
11
83.8528483662
21
3.9753328287
0
LINE
8
0
10
83.8528483662
20
3.9753328287
11
83.871769924
21
4.45245674702
0
LINE
8
0
10
83.871769924
20
4.45245674702
11
83.872621584
21
4.83319681541
0
LINE
8
0
10
83.872621584
20
4.83319681541
11
83.8585715574
21
5.23259989934
0
LINE
8
0
10
83.8585715574
20
5.23259989934
11
83.8742208746
21
5.54816990888
0
LINE
8
0
10
83.8742208746
20
5.54816990888
11
83.923850197
21
5.76570717884
0
LINE
8
0
10
83.923850197
20
5.76570717884
11
84.0001192524
21
5.88324793711
0
LINE
8
0
10
84.0001192524
20
5.88324793711
11
86.7126764446
21
6.34412994116
0
LINE
8
0
10
86.7126764446
20
6.34412994116
11
86.8234867861
21
6.25837525091
0
LINE
8
0
10
86.8234867861
20
6.25837525091
11
86.9421790816
21
6.06943697411
0
LINE
8
0
10
86.9421790816
20
6.06943697411
11
87.0611763779
21
5.77674434435
0
LINE
8
0
10
87.0611763779
20
5.77674434435
11
87.179829268
21
5.39511400177
0
LINE
8
0
10
87.179829268
20
5.39511400177
11
87.3063836083
21
5.0360210835
0
LINE
8
0
10
87.3063836083
20
5.0360210835
11
87.4818273915
21
4.59192116486
0
LINE
8
0
10
87.4818273915
20
4.59192116486
11
87.7126449203
21
4.06609395056
0
LINE
8
0
10
87.7126449203
20
4.06609395056
11
88.0051389386
21
3.46218321986
0
LINE
8
0
10
88.0051389386
20
3.46218321986
11
88.3654125497
21
2.78418766279
0
LINE
8
0
10
88.3654125497
20
2.78418766279
11
88.7993515727
21
2.03645087635
0
LINE
8
0
10
88.7993515727
20
2.03645087635
11
89.0483380158
21
1.64215184667
0
LINE
8
0
10
89.0483380158
20
1.64215184667
11
90.280595848
21
1.85152087339
0
LINE
8
0
10
90.280595848
20
1.85152087339
11
91.4816636083
21
2.19754253423
0
LINE
8
0
10
91.4816636083
20
2.19754253423
11
91.5349127047
21
2.66082485354
0
LINE
8
0
10
91.5349127047
20
2.66082485354
11
91.6014474222
21
3.52279150534
0
LINE
8
0
10
91.6014474222
20
3.52279150534
11
91.6318714823
21
4.28996125632
0
LINE
8
0
10
91.6318714823
20
4.28996125632
11
91.6333724409
21
4.96097442201
0
LINE
8
0
10
91.6333724409
20
4.96097442201
11
91.6131839707
21
5.53487634445
0
LINE
8
0
10
91.6131839707
20
5.53487634445
11
91.5785656242
21
6.01111875003
0
LINE
8
0
10
91.5785656242
20
6.01111875003
11
91.5367825668
21
6.38956016045
0
LINE
8
0
10
91.5367825668
20
6.38956016045
11
91.4781019268
21
6.78487877775
0
LINE
8
0
10
91.4781019268
20
6.78487877775
11
91.4583202136
21
7.1002167169
0
LINE
8
0
10
91.4583202136
20
7.1002167169
11
91.4832810307
21
7.32194287925
0
LINE
8
0
10
91.4832810307
20
7.32194287925
11
91.545910133
21
7.44728399074
0
LINE
8
0
10
91.545910133
20
7.44728399074
11
94.1898089227
21
8.20897811041
0
LINE
8
0
10
94.1898089227
20
8.20897811041
11
94.309523991
21
8.13616944948
0
LINE
8
0
10
94.309523991
20
8.13616944948
11
94.4486243495
21
7.9617084976
0
LINE
8
0
10
94.4486243495
20
7.9617084976
11
94.5996445927
21
7.6841797276
0
LINE
8
0
10
94.5996445927
20
7.6841797276
11
94.7602804597
21
7.31823390518
0
LINE
8
0
10
94.7602804597
20
7.31823390518
11
94.9262447033
21
6.97556847823
0
LINE
8
0
10
94.9262447033
20
6.97556847823
11
95.1503087475
21
6.55390443792
0
LINE
8
0
10
95.1503087475
20
6.55390443792
11
95.4385489128
21
6.05722687847
0
LINE
8
0
10
95.4385489128
20
6.05722687847
11
95.7968203387
21
5.48986235122
0
LINE
8
0
10
95.7968203387
20
5.48986235122
11
96.2307400422
21
4.85646773402
0
LINE
8
0
10
96.2307400422
20
4.85646773402
11
96.7456705053
21
4.16201831491
0
LINE
8
0
10
96.7456705053
20
4.16201831491
11
97.0372388582
21
3.79807619144
0
LINE
8
0
10
97.0372388582
20
3.79807619144
11
98.2383066184
21
4.14409785227
0
LINE
8
0
10
98.2383066184
20
4.14409785227
11
99.3930801827
21
4.62242072408
0
LINE
8
0
10
99.3930801827
20
4.62242072408
11
99.3941232979
21
5.08875202859
0
LINE
8
0
10
99.3941232979
20
5.08875202859
11
99.3637300144
21
5.95274833979
0
LINE
8
0
10
99.3637300144
20
5.95274833979
11
99.3080670152
21
6.71850070235
0
LINE
8
0
10
99.3080670152
20
6.71850070235
11
99.2344288985
21
7.38546273214
0
LINE
8
0
10
99.2344288985
20
7.38546273214
11
99.1501107411
21
7.95349568826
0
LINE
8
0
10
99.1501107411
20
7.95349568826
11
99.062387836
21
8.42286755651
0
LINE
8
0
10
99.062387836
20
8.42286755651
11
98.9784955075
21
8.79425118866
0
LINE
8
0
10
98.9784955075
20
8.79425118866
11
98.8759221972
21
9.18051397835
0
LINE
8
0
10
98.8759221972
20
9.18051397835
11
98.82095822
21
9.49165428957
0
LINE
8
0
10
98.82095822
20
9.49165428957
11
98.8209366352
21
9.71478100916
0
LINE
8
0
10
98.8209366352
20
9.71478100916
11
98.8691381869
21
9.84634623667
0
LINE
8
0
10
98.8691381869
20
9.84634623667
11
101.411130013
21
10.8992737265
0
LINE
8
0
10
101.411130013
20
10.8992737265
11
101.538244322
21
10.840326706
0
LINE
8
0
10
101.538244322
20
10.840326706
11
101.696003475
21
10.6825370267
0
LINE
8
0
10
101.696003475
20
10.6825370267
11
101.877147498
21
10.4236622018
0
LINE
8
0
10
101.877147498
20
10.4236622018
11
102.077746253
21
10.0780028806
0
LINE
8
0
10
102.077746253
20
10.0780028806
11
102.281033303
21
9.75607416152
0
LINE
8
0
10
102.281033303
20
9.75607416152
11
102.550899873
21
9.36214866952
0
LINE
8
0
10
102.550899873
20
9.36214866952
11
102.892937887
21
8.9008667734
0
LINE
8
0
10
102.892937887
20
8.9008667734
11
103.31248125
21
8.37718338771
0
LINE
8
0
10
103.31248125
20
8.37718338771
11
103.814590254
21
7.7963550152
0
LINE
8
0
10
103.814590254
20
7.7963550152
11
104.404036608
21
7.16392606781
0
LINE
8
0
10
104.404036608
20
7.16392606781
11
104.734520229
21
6.8349176339
0
LINE
8
0
10
104.734520229
20
6.8349176339
11
105.889293793
21
7.3132405057
0
LINE
8
0
10
105.889293793
20
7.3132405057
11
106.983251214
21
7.91784940083
0
LINE
8
0
10
106.983251214
20
7.91784940083
11
106.93207523
21
8.38136530382
0
LINE
8
0
10
106.93207523
20
8.38136530382
11
106.805136159
21
9.2365260195
0
LINE
8
0
10
106.805136159
20
9.2365260195
11
106.664086095
21
9.99123121338
0
LINE
8
0
10
106.664086095
20
9.99123121338
11
106.516234945
21
10.6457546728
0
LINE
8
0
10
106.516234945
20
10.6457546728
11
106.36884745
21
11.2007753186
0
LINE
8
0
10
106.36884745
20
11.2007753186
11
106.229123153
21
11.6573740259
0
LINE
8
0
10
106.229123153
20
11.6573740259
11
106.104176548
21
12.0170295151
0
LINE
8
0
10
106.104176548
20
12.0170295151
11
105.959000486
21
12.3893789985
0
LINE
8
0
10
105.959000486
20
12.3893789985
11
105.869545449
21
12.6924089119
0
LINE
8
0
10
105.869545449
20
12.6924089119
11
105.844541734
21
12.9141302407
0
LINE
8
0
10
105.844541734
20
12.9141302407
11
105.877709572
21
13.0502650752
0
LINE
8
0
10
105.877709572
20
13.0502650752
11
108.285827413
21
14.381184761
0
LINE
8
0
10
108.285827413
20
14.381184761
11
108.418742425
21
14.336840674
0
LINE
8
0
10
108.418742425
20
14.336840674
11
108.593176462
21
14.1977065641
0
LINE
8
0
10
108.593176462
20
14.1977065641
11
108.802166273
21
13.9607411854
0
LINE
8
0
10
108.802166273
20
13.9607411854
11
109.04020527
21
13.6397152319
0
LINE
8
0
10
109.04020527
20
13.6397152319
11
109.278258674
21
13.3425716611
0
LINE
8
0
10
109.278258674
20
13.3425716611
11
109.590534041
21
12.981338559
0
LINE
8
0
10
109.590534041
20
12.981338559
11
109.982068578
21
12.5612532138
0
LINE
8
0
10
109.982068578
20
12.5612532138
11
110.457607876
21
12.0878365921
0
LINE
8
0
10
110.457607876
20
12.0878365921
11
111.021591868
21
11.566878718
0
LINE
8
0
10
111.021591868
20
11.566878718
11
111.678141483
21
11.0044234033
0
LINE
8
0
10
111.678141483
20
11.0044234033
11
112.043384349
21
10.7144861309
0
LINE
8
0
10
112.043384349
20
10.7144861309
11
113.13734177
21
11.319095026
0
LINE
8
0
10
113.13734177
20
11.319095026
11
114.156725898
21
12.0423866368
0
LINE
8
0
10
114.156725898
20
12.0423866368
11
114.053974383
21
12.4972581569
0
LINE
8
0
10
114.053974383
20
12.4972581569
11
113.832085856
21
13.3328291349
0
LINE
8
0
10
113.832085856
20
13.3328291349
11
113.607422514
21
14.0669963044
0
LINE
8
0
10
113.607422514
20
14.0669963044
11
113.387217645
21
14.7008501811
0
LINE
8
0
10
113.387217645
20
14.7008501811
11
113.178614295
21
15.2358788099
0
LINE
8
0
10
113.178614295
20
15.2358788099
11
112.98864572
21
15.6739623627
0
LINE
8
0
10
112.98864572
20
15.6739623627
11
112.824216115
21
16.0173668325
0
LINE
8
0
10
112.824216115
20
16.0173668325
11
112.638262975
21
16.3711204988
0
LINE
8
0
10
112.638262975
20
16.3711204988
11
112.515441827
21
16.6622292373
0
LINE
8
0
10
112.515441827
20
16.6622292373
11
112.465770417
21
16.8797569011
0
LINE
8
0
10
112.465770417
20
16.8797569011
11
112.483487438
21
17.018749368
0
LINE
8
0
10
112.483487438
20
17.018749368
11
114.727447813
21
18.6109241625
0
LINE
8
0
10
114.727447813
20
18.6109241625
11
114.864492047
21
18.5817406616
0
LINE
8
0
10
114.864492047
20
18.5817406616
11
115.053407356
21
18.4630118132
0
LINE
8
0
10
115.053407356
20
18.4630118132
11
115.287614788
21
18.2509358578
0
LINE
8
0
10
115.287614788
20
18.2509358578
11
115.560100548
21
17.9585803597
0
LINE
8
0
10
115.560100548
20
17.9585803597
11
115.829926647
21
17.68995869
0
LINE
8
0
10
115.829926647
20
17.68995869
11
116.180683767
21
17.3659606937
0
LINE
8
0
10
116.180683767
20
17.3659606937
11
116.616791052
21
16.9923547162
0
LINE
8
0
10
116.616791052
20
16.9923547162
11
117.142346103
21
16.5751583472
0
LINE
8
0
10
117.142346103
20
16.5751583472
11
117.761112658
21
16.1206223192
0
LINE
8
0
10
117.761112658
20
16.1206223192
11
118.476509041
21
15.6352138391
0
LINE
8
0
10
118.476509041
20
15.6352138391
11
118.871918012
21
15.3879938576
0
LINE
8
0
10
118.871918012
20
15.3879938576
11
119.89130214
21
16.1112854684
0
LINE
8
0
10
119.89130214
20
16.1112854684
11
120.823293628
21
16.9441639832
0
LINE
8
0
10
120.823293628
20
16.9441639832
11
120.670258741
21
17.384670847
0
LINE
8
0
10
120.670258741
20
17.384670847
11
120.356211136
21
18.1901442975
0
LINE
8
0
10
120.356211136
20
18.1901442975
11
120.050759787
21
18.8945408644
0
LINE
8
0
10
120.050759787
20
18.8945408644
11
119.760970403
21
19.4997540782
0
LINE
8
0
10
119.760970403
20
19.4997540782
11
119.493774508
21
20.0080623946
0
LINE
8
0
10
119.493774508
20
20.0080623946
11
119.255950619
21
20.422121638
0
LINE
8
0
10
119.255950619
20
20.422121638
11
119.054105811
21
20.7449565779
0
LINE
8
0
10
119.054105811
20
20.7449565779
11
118.829714062
21
21.0756657695
0
LINE
8
0
10
118.829714062
20
21.0756657695
11
118.67507135
21
21.3511924719
0
LINE
8
0
10
118.67507135
20
21.3511924719
11
118.601356893
21
21.561790934
0
LINE
8
0
10
118.601356893
20
21.561790934
11
118.603400294
21
21.7018931224
0
LINE
8
0
10
118.603400294
20
21.7018931224
11
120.654984101
21
23.5353005038
0
LINE
8
0
10
120.654984101
20
23.5353005038
11
120.794434144
21
23.5216445885
0
LINE
8
0
10
120.794434144
20
23.5216445885
11
120.995455007
21
23.4248140858
0
LINE
8
0
10
120.995455007
20
23.4248140858
11
121.251934765
21
23.2402945319
0
LINE
8
0
10
121.251934765
20
23.2402945319
11
121.555440622
21
22.9802860292
0
LINE
8
0
10
121.555440622
20
22.9802860292
11
121.853646195
21
22.743564334
0
LINE
8
0
10
121.853646195
20
22.743564334
11
122.238474094
21
22.4608759062
0
LINE
8
0
10
122.238474094
20
22.4608759062
11
122.713669826
21
22.1384476085
0
LINE
8
0
10
122.713669826
20
22.1384476085
11
123.282631469
21
21.7827179785
0
LINE
8
0
10
123.282631469
20
21.7827179785
11
123.948399238
21
21.4003198508
0
LINE
8
0
10
123.948399238
20
21.4003198508
11
124.713645865
21
20.9980624985
0
LINE
8
0
10
124.713645865
20
20.9980624985
11
125.134248444
21
20.7966687427
0
LINE
8
0
10
125.134248444
20
20.7966687427
11
126.066239932
21
21.6295472575
0
LINE
8
0
10
126.066239932
20
21.6295472575
11
126.899118447
21
22.5615387457
0
LINE
8
0
10
126.899118447
20
22.5615387457
11
126.697724691
21
22.9821413239
0
LINE
8
0
10
126.697724691
20
22.9821413239
11
126.295467338
21
23.7473879508
0
LINE
8
0
10
126.295467338
20
23.7473879508
11
125.913069211
21
24.4131557198
0
LINE
8
0
10
125.913069211
20
24.4131557198
11
125.557339581
21
24.9821173633
0
LINE
8
0
10
125.557339581
20
24.9821173633
11
125.234911283
21
25.4573130953
0
LINE
8
0
10
125.234911283
20
25.4573130953
11
124.952222855
21
25.842140994
0
LINE
8
0
10
124.952222855
20
25.842140994
11
124.71550116
21
26.1403465674
0
LINE
8
0
10
124.71550116
20
26.1403465674
11
124.455492657
21
26.4438524243
0
LINE
8
0
10
124.455492657
20
26.4438524243
11
124.270973103
21
26.7003321824
0
LINE
8
0
10
124.270973103
20
26.7003321824
11
124.174142601
21
26.901353045
0
LINE
8
0
10
124.174142601
20
26.901353045
11
124.160486685
21
27.0408030886
0
LINE
8
0
10
124.160486685
20
27.0408030886
11
125.993894067
21
29.0923868953
0
LINE
8
0
10
125.993894067
20
29.0923868953
11
126.133996255
21
29.0944302966
0
LINE
8
0
10
126.133996255
20
29.0944302966
11
126.344594717
21
29.0207158394
0
LINE
8
0
10
126.344594717
20
29.0207158394
11
126.62012142
21
28.8660731275
0
LINE
8
0
10
126.62012142
20
28.8660731275
11
126.950830611
21
28.6416813778
0
LINE
8
0
10
126.950830611
20
28.6416813778
11
127.273665551
21
28.4398365698
0
LINE
8
0
10
127.273665551
20
28.4398365698
11
127.687724795
21
28.2020126816
0
LINE
8
0
10
127.687724795
20
28.2020126816
11
128.196033111
21
27.9348167865
0
LINE
8
0
10
128.196033111
20
27.9348167865
11
128.801246325
21
27.6450274021
0
LINE
8
0
10
128.801246325
20
27.6450274021
11
129.505642892
21
27.339576053
0
LINE
8
0
10
129.505642892
20
27.339576053
11
130.311116342
21
27.0255284482
0
LINE
8
0
10
130.311116342
20
27.0255284482
11
130.751623206
21
26.8724935614
0
LINE
8
0
10
130.751623206
20
26.8724935614
11
131.584501721
21
27.8044850496
0
LINE
8
0
10
131.584501721
20
27.8044850496
11
132.307793332
21
28.8238691776
0
LINE
8
0
10
132.307793332
20
28.8238691776
11
132.06057335
21
29.2192781487
0
LINE
8
0
10
132.06057335
20
29.2192781487
11
131.57516487
21
29.9346745317
0
LINE
8
0
10
131.57516487
20
29.9346745317
11
131.120628842
21
30.5534410866
0
LINE
8
0
10
131.120628842
20
30.5534410866
11
130.703432473
21
31.0789961371
0
LINE
8
0
10
130.703432473
20
31.0789961371
11
130.329826496
21
31.5151034226
0
LINE
8
0
10
130.329826496
20
31.5151034226
11
130.005828499
21
31.8658605425
0
LINE
8
0
10
130.005828499
20
31.8658605425
11
129.73720683
21
32.1356866413
0
LINE
8
0
10
129.73720683
20
32.1356866413
11
129.444851331
21
32.4081724013
0
LINE
8
0
10
129.444851331
20
32.4081724013
11
129.232775376
21
32.6423798333
0
LINE
8
0
10
129.232775376
20
32.6423798333
11
129.114046528
21
32.8312951425
0
LINE
8
0
10
129.114046528
20
32.8312951425
11
129.084863027
21
32.968339376
0
LINE
8
0
10
129.084863027
20
32.968339376
11
130.677037821
21
35.2122997514
0
LINE
8
0
10
130.677037821
20
35.2122997514
11
130.816030288
21
35.2300167722
0
LINE
8
0
10
130.816030288
20
35.2300167722
11
131.033557952
21
35.1803453625
0
LINE
8
0
10
131.033557952
20
35.1803453625
11
131.32466669
21
35.0575242144
0
LINE
8
0
10
131.32466669
20
35.0575242144
11
131.678420357
21
34.8715710744
0
LINE
8
0
10
131.678420357
20
34.8715710744
11
132.021824827
21
34.7071414691
0
LINE
8
0
10
132.021824827
20
34.7071414691
11
132.459908379
21
34.5171728938
0
LINE
8
0
10
132.459908379
20
34.5171728938
11
132.994937008
21
34.3085695447
0
LINE
8
0
10
132.994937008
20
34.3085695447
11
133.628790885
21
34.0883646756
0
LINE
8
0
10
133.628790885
20
34.0883646756
11
134.362958054
21
33.8637013331
0
LINE
8
0
10
134.362958054
20
33.8637013331
11
135.198529032
21
33.6418128066
0
LINE
8
0
10
135.198529032
20
33.6418128066
11
135.653400552
21
33.5390612913
0
LINE
8
0
10
135.653400552
20
33.5390612913
11
136.376692163
21
34.5584454192
0
LINE
8
0
10
136.376692163
20
34.5584454192
11
136.981301058
21
35.65240284
0
LINE
8
0
10
136.981301058
20
35.65240284
11
136.691363786
21
36.0176457067
0
LINE
8
0
10
136.691363786
20
36.0176457067
11
136.128908471
21
36.6741953213
0
LINE
8
0
10
136.128908471
20
36.6741953213
11
135.607950597
21
37.2381793137
0
LINE
8
0
10
135.607950597
20
37.2381793137
11
135.134533976
21
37.7137186115
0
LINE
8
0
10
135.134533976
20
37.7137186115
11
134.71444863
21
38.1052531484
0
LINE
8
0
10
134.71444863
20
38.1052531484
11
134.353215528
21
38.4175285153
0
LINE
8
0
10
134.353215528
20
38.4175285153
11
134.056071957
21
38.6555819197
0
LINE
8
0
10
134.056071957
20
38.6555819197
11
133.735046004
21
38.8936209162
0
LINE
8
0
10
133.735046004
20
38.8936209162
11
133.498080625
21
39.1026107278
0
LINE
8
0
10
133.498080625
20
39.1026107278
11
133.358946515
21
39.2770447638
0
LINE
8
0
10
133.358946515
20
39.2770447638
11
133.314602428
21
39.4099597766
0
LINE
8
0
10
133.314602428
20
39.4099597766
11
134.645522114
21
41.8180776168
0
LINE
8
0
10
134.645522114
20
41.8180776168
11
134.781656949
21
41.8512454555
0
LINE
8
0
10
134.781656949
20
41.8512454555
11
135.003378277
21
41.8262417402
0
LINE
8
0
10
135.003378277
20
41.8262417402
11
135.306408191
21
41.736786703
0
LINE
8
0
10
135.306408191
20
41.736786703
11
135.678757674
21
41.5916106412
0
LINE
8
0
10
135.678757674
20
41.5916106412
11
136.038413163
21
41.4666640363
0
LINE
8
0
10
136.038413163
20
41.4666640363
11
136.495011871
21
41.3269397391
0
LINE
8
0
10
136.495011871
20
41.3269397391
11
137.050032517
21
41.1795522442
0
LINE
8
0
10
137.050032517
20
41.1795522442
11
137.704555976
21
41.0317010943
0
LINE
8
0
10
137.704555976
20
41.0317010943
11
138.45926117
21
40.8906510302
0
LINE
8
0
10
138.45926117
20
40.8906510302
11
139.314421885
21
40.763711959
0
LINE
8
0
10
139.314421885
20
40.763711959
11
139.777937788
21
40.7125359751
0
LINE
8
0
10
139.777937788
20
40.7125359751
11
140.382546684
21
41.8064933958
0
LINE
8
0
10
140.382546684
20
41.8064933958
11
140.860869555
21
42.9612669601
0
LINE
8
0
10
140.860869555
20
42.9612669601
11
140.531861121
21
43.2917505816
0
LINE
8
0
10
140.531861121
20
43.2917505816
11
139.899432174
21
43.8811969354
0
LINE
8
0
10
139.899432174
20
43.8811969354
11
139.318603802
21
44.3833059394
0
LINE
8
0
10
139.318603802
20
44.3833059394
11
138.794920416
21
44.8028493018
0
LINE
8
0
10
138.794920416
20
44.8028493018
11
138.33363852
21
45.1448873162
0
LINE
8
0
10
138.33363852
20
45.1448873162
11
137.939713028
21
45.414753886
0
LINE
8
0
10
137.939713028
20
45.414753886
11
137.617784309
21
45.6180409364
0
LINE
8
0
10
137.617784309
20
45.6180409364
11
137.272124987
21
45.818639691
0
LINE
8
0
10
137.272124987
20
45.818639691
11
137.013250163
21
45.999783714
0
LINE
8
0
10
137.013250163
20
45.999783714
11
136.855460483
21
46.1575428677
0
LINE
8
0
10
136.855460483
20
46.1575428677
11
136.796513463
21
46.2846571763
0
LINE
8
0
10
136.796513463
20
46.2846571763
11
137.849440953
21
48.8266490024
0
LINE
8
0
10
137.849440953
20
48.8266490024
11
137.98100618
21
48.8748505541
0
LINE
8
0
10
137.98100618
20
48.8748505541
11
138.2041329
21
48.8748289692
0
LINE
8
0
10
138.2041329
20
48.8748289692
11
138.515273211
21
48.8198649921
0
LINE
8
0
10
138.515273211
20
48.8198649921
11
138.901536001
21
48.7172916818
0
LINE
8
0
10
138.901536001
20
48.7172916818
11
139.272919633
21
48.6333993533
0
LINE
8
0
10
139.272919633
20
48.6333993533
11
139.742291501
21
48.5456764482
0
LINE
8
0
10
139.742291501
20
48.5456764482
11
140.310324457
21
48.4613582907
0
LINE
8
0
10
140.310324457
20
48.4613582907
11
140.977286487
21
48.3877201741
0
LINE
8
0
10
140.977286487
20
48.3877201741
11
141.743038849
21
48.3320571748
0
LINE
8
0
10
141.743038849
20
48.3320571748
11
142.607035161
21
48.3016638914
0
LINE
8
0
10
142.607035161
20
48.3016638914
11
143.073366465
21
48.3027070065
0
LINE
8
0
10
143.073366465
20
48.3027070065
11
143.551689337
21
49.4574805708
0
LINE
8
0
10
143.551689337
20
49.4574805708
11
143.897710998
21
50.6585483311
0
LINE
8
0
10
143.897710998
20
50.6585483311
11
143.533768874
21
50.950116684
0
LINE
8
0
10
143.533768874
20
50.950116684
11
142.839319455
21
51.465047147
0
LINE
8
0
10
142.839319455
20
51.465047147
11
142.205924838
21
51.8989668506
0
LINE
8
0
10
142.205924838
20
51.8989668506
11
141.638560311
21
52.2572382765
0
LINE
8
0
10
141.638560311
20
52.2572382765
11
141.141882751
21
52.5454784417
0
LINE
8
0
10
141.141882751
20
52.5454784417
11
140.720218711
21
52.7695424859
0
LINE
8
0
10
140.720218711
20
52.7695424859
11
140.377553284
21
52.9355067296
0
LINE
8
0
10
140.377553284
20
52.9355067296
11
140.011607462
21
53.0961425965
0
LINE
8
0
10
140.011607462
20
53.0961425965
11
139.734078692
21
53.2471628398
0
LINE
8
0
10
139.734078692
20
53.2471628398
11
139.55961774
21
53.3862631983
0
LINE
8
0
10
139.55961774
20
53.3862631983
11
139.486809079
21
53.5059782665
0
LINE
8
0
10
139.486809079
20
53.5059782665
11
140.248503199
21
56.1498770563
0
LINE
8
0
10
140.248503199
20
56.1498770563
11
140.37384431
21
56.2125061585
0
LINE
8
0
10
140.37384431
20
56.2125061585
11
140.595570472
21
56.2374669757
0
LINE
8
0
10
140.595570472
20
56.2374669757
11
140.910908412
21
56.2176852624
0
LINE
8
0
10
140.910908412
20
56.2176852624
11
141.306227029
21
56.1590046224
0
LINE
8
0
10
141.306227029
20
56.1590046224
11
141.684668439
21
56.1172215651
0
LINE
8
0
10
141.684668439
20
56.1172215651
11
142.160910845
21
56.0826032186
0
LINE
8
0
10
142.160910845
20
56.0826032186
11
142.734812767
21
56.0624147483
0
LINE
8
0
10
142.734812767
20
56.0624147483
11
143.405825933
21
56.063915707
0
LINE
8
0
10
143.405825933
20
56.063915707
11
144.172995684
21
56.0943397671
0
LINE
8
0
10
144.172995684
20
56.0943397671
11
145.034962336
21
56.1608744845
0
LINE
8
0
10
145.034962336
20
56.1608744845
11
145.498244655
21
56.214123581
0
LINE
8
0
10
145.498244655
20
56.214123581
11
145.844266316
21
57.4151913413
0
LINE
8
0
10
145.844266316
20
57.4151913413
11
146.053635343
21
58.6474491735
0
LINE
8
0
10
146.053635343
20
58.6474491735
11
145.659336313
21
58.8964356166
0
LINE
8
0
10
145.659336313
20
58.8964356166
11
144.911599526
21
59.3303746396
0
LINE
8
0
10
144.911599526
20
59.3303746396
11
144.233603969
21
59.6906482507
0
LINE
8
0
10
144.233603969
20
59.6906482507
11
143.629693239
21
59.983142269
0
LINE
8
0
10
143.629693239
20
59.983142269
11
143.103866024
21
60.2139597978
0
LINE
8
0
10
143.103866024
20
60.2139597978
11
142.659766106
21
60.389403581
0
LINE
8
0
10
142.659766106
20
60.389403581
11
142.300673188
21
60.5159579213
0
LINE
8
0
10
142.300673188
20
60.5159579213
11
141.919042845
21
60.6346108113
0
LINE
8
0
10
141.919042845
20
60.6346108113
11
141.626350215
21
60.7536081077
0
LINE
8
0
10
141.626350215
20
60.7536081077
11
141.437411938
21
60.8723004032
0
LINE
8
0
10
141.437411938
20
60.8723004032
11
141.351657248
21
60.9831107447
0
LINE
8
0
10
141.351657248
20
60.9831107447
11
141.812539252
21
63.6956679368
0
LINE
8
0
10
141.812539252
20
63.6956679368
11
141.93008001
21
63.7719369923
0
LINE
8
0
10
141.93008001
20
63.7719369923
11
142.14761728
21
63.8215663147
0
LINE
8
0
10
142.14761728
20
63.8215663147
11
142.46318729
21
63.8372156319
0
LINE
8
0
10
142.46318729
20
63.8372156319
11
142.862590374
21
63.8231656053
0
LINE
8
0
10
142.862590374
20
63.8231656053
11
143.243330442
21
63.8240172653
0
LINE
8
0
10
143.243330442
20
63.8240172653
11
143.720454361
21
63.8429388231
0
LINE
8
0
10
143.720454361
20
63.8429388231
11
144.2930081
21
63.8871339218
0
LINE
8
0
10
144.2930081
20
63.8871339218
11
144.959634021
21
63.9637550803
0
LINE
8
0
10
144.959634021
20
63.9637550803
11
145.718573556
21
64.0798835995
0
LINE
8
0
10
145.718573556
20
64.0798835995
11
146.567670818
21
64.2425096052
0
LINE
8
0
10
146.567670818
20
64.2425096052
11
147.022078108
21
64.3472950447
0
LINE
8
0
10
74.1597611309
20
72.3806721935
11
73.8478935946
21
72.3478935946
0
LINE
8
0
10
73.8478935946
20
72.3478935946
11
73.5360260584
21
72.3806721935
0
LINE
8
0
10
73.5360260584
20
72.3806721935
11
73.23778863
21
72.4775754082
0
LINE
8
0
10
73.23778863
20
72.4775754082
11
72.9662157162
21
72.6343681031
0
LINE
8
0
10
72.9662157162
20
72.6343681031
11
72.7331763564
21
72.8441976851
0
LINE
8
0
10
72.7331763564
20
72.8441976851
11
72.548855489
21
73.0978935946
0
LINE
8
0
10
72.548855489
20
73.0978935946
11
72.4213088202
21
73.3843681031
0
LINE
8
0
10
72.4213088202
20
73.3843681031
11
72.3561107516
21
73.6911008997
0
LINE
8
0
10
72.3561107516
20
73.6911008997
11
72.3561107516
21
74.0046862895
0
LINE
8
0
10
72.3561107516
20
74.0046862895
11
72.4213088202
21
74.3114190862
0
LINE
8
0
10
72.4213088202
20
74.3114190862
11
72.548855489
21
74.5978935946
0
LINE
8
0
10
72.548855489
20
74.5978935946
11
72.7331763564
21
74.8515895042
0
LINE
8
0
10
72.7331763564
20
74.8515895042
11
72.9662157162
21
75.0614190862
0
LINE
8
0
10
72.9662157162
20
75.0614190862
11
73.23778863
21
75.2182117811
0
LINE
8
0
10
73.23778863
20
75.2182117811
11
73.5360260584
21
75.3151149957
0
LINE
8
0
10
73.5360260584
20
75.3151149957
11
73.8478935946
21
75.3478935946
0
LINE
8
0
10
73.8478935946
20
75.3478935946
11
74.1597611309
21
75.3151149957
0
LINE
8
0
10
74.1597611309
20
75.3151149957
11
74.4579985593
21
75.2182117811
0
LINE
8
0
10
74.4579985593
20
75.2182117811
11
74.7295714731
21
75.0614190862
0
LINE
8
0
10
74.7295714731
20
75.0614190862
11
74.9626108329
21
74.8515895042
0
LINE
8
0
10
74.9626108329
20
74.8515895042
11
75.1469317003
21
74.5978935946
0
LINE
8
0
10
75.1469317003
20
74.5978935946
11
75.2744783691
21
74.3114190862
0
LINE
8
0
10
75.2744783691
20
74.3114190862
11
75.3396764377
21
74.0046862895
0
LINE
8
0
10
75.3396764377
20
74.0046862895
11
75.3396764377
21
73.6911008997
0
LINE
8
0
10
75.3396764377
20
73.6911008997
11
75.2744783691
21
73.3843681031
0
LINE
8
0
10
75.2744783691
20
73.3843681031
11
75.1469317003
21
73.0978935946
0
LINE
8
0
10
75.1469317003
20
73.0978935946
11
74.9626108329
21
72.8441976851
0
LINE
8
0
10
74.9626108329
20
72.8441976851
11
74.7295714731
21
72.6343681031
0
LINE
8
0
10
74.7295714731
20
72.6343681031
11
74.4579985593
21
72.4775754082
0
LINE
8
0
10
74.4579985593
20
72.4775754082
11
74.1597611309
21
72.3806721935
0
ENDSEC
0
EOF
