  0
SECTION
  2
BLOCKS
  0
ENDSEC
  0
SECTION
  2
ENTITIES
  0
LINE
  8
0
 10
64.1647960834075
 20
-9.522234358806106
 11
64.40209954933268
 21
-8.303731215385469
  0
LINE
  8
0
 10
64.40209954933268
 20
-8.303731215385469
 11
64.48163603359869
 21
-7.064886272248133
  0
LINE
  8
0
 10
64.48163603359869
 20
-7.064886272248133
 11
64.1167514099378
 21
-6.8747278783217265
  0
LINE
  8
0
 10
64.1167514099378
 20
-6.8747278783217265
 11
63.30563625128397
 21
-6.495168303882158
  0
LINE
  8
0
 10
63.30563625128397
 20
-6.495168303882158
 11
62.5811152214934
 21
-6.193161399126126
  0
LINE
  8
0
 10
62.5811152214934
 20
-6.193161399126126
 11
61.94814784516287
 21
-5.960535826351493
  0
LINE
  8
0
 10
61.94814784516287
 20
-5.960535826351493
 11
61.41115035637257
 21
-5.788846110167671
  0
LINE
  8
0
 10
61.41115035637257
 20
-5.788846110167671
 11
60.97398167678041
 21
-5.669404267822569
  0
LINE
  8
0
 10
60.97398167678041
 20
-5.669404267822569
 11
60.63993110948936
 21
-5.593312122143643
  0
LINE
  8
0
 10
60.63993110948936
 20
-5.593312122143643
 11
60.27011318517802
 21
-5.5255494868533015
  0
LINE
  8
0
 10
60.27011318517802
 20
-5.5255494868533015
 11
59.92197520936007
 21
-5.429771597765237
  0
LINE
  8
0
 10
59.92197520936007
 20
-5.429771597765237
 11
59.692219773475344
 21
-5.319205339296062
  0
LINE
  8
0
 10
59.692219773475344
 20
-5.319205339296062
 11
59.581266563776005
 21
-5.203792668469055
  0
LINE
  8
0
 10
59.581266563776005
 20
-5.203792668469055
 11
59.757551425332316
 21
-2.4580136551493474
  0
LINE
  8
0
 10
59.757551425332316
 20
-2.4580136551493474
 11
59.882352355481586
 21
-2.3577369022910606
  0
LINE
  8
0
 10
59.882352355481586
 20
-2.3577369022910606
 11
60.12436040172478
 21
-2.277458864297093
  0
LINE
  8
0
 10
60.12436040172478
 20
-2.277458864297093
 11
60.48188797418235
 21
-2.226986206577176
  0
LINE
  8
0
 10
60.48188797418235
 20
-2.226986206577176
 11
60.85733499191956
 21
-2.2070711680864727
  0
LINE
  8
0
 10
60.85733499191956
 20
-2.2070711680864727
 11
61.1983734562828
 21
-2.174321176276602
  0
LINE
  8
0
 10
61.1983734562828
 20
-2.174321176276602
 11
61.64722687084469
 21
-2.111763839729508
  0
LINE
  8
0
 10
61.64722687084469
 20
-2.111763839729508
 11
62.20177081127139
 21
-2.0101534084404067
  0
LINE
  8
0
 10
62.20177081127139
 20
-2.0101534084404067
 11
62.859289032176605
 21
-1.8603797599258296
  0
LINE
  8
0
 10
62.859289032176605
 20
-1.8603797599258296
 11
63.616481540113924
 21
-1.6535020205543645
  0
LINE
  8
0
 10
63.616481540113924
 20
-1.6535020205543645
 11
64.46947445559708
 21
-1.3807817292620936
  0
LINE
  8
0
 10
64.46947445559708
 20
-1.3807817292620936
 11
64.8556802972273
 21
-1.2388449431373214
  0
LINE
  8
0
 10
64.8556802972273
 20
-1.2388449431373214
 11
64.93521678149328
 21
-5.329070518200751e-15
  0
LINE
  8
0
 10
64.93521678149328
 20
-5.329070518200751e-15
 11
64.85568029722732
 21
1.2388449431373334
  0
LINE
  8
0
 10
64.85568029722732
 20
1.2388449431373334
 11
64.46947445559698
 21
1.3807817292621372
  0
LINE
  8
0
 10
64.46947445559698
 20
1.3807817292621372
 11
63.61648154011394
 21
1.6535020205543716
  0
LINE
  8
0
 10
63.61648154011394
 20
1.6535020205543716
 11
62.859289032173386
 21
1.8603797599267182
  0
LINE
  8
0
 10
62.859289032173386
 20
1.8603797599267182
 11
62.20177081127122
 21
2.0101534084404755
  0
LINE
  8
0
 10
62.20177081127122
 20
2.0101534084404755
 11
61.64722687084483
 21
2.1117638397295266
  0
LINE
  8
0
 10
61.64722687084483
 20
2.1117638397295266
 11
61.198373456283576
 21
2.1743211762764405
  0
LINE
  8
0
 10
61.198373456283576
 20
2.1743211762764405
 11
60.85733499191641
 21
2.2070711680869053
  0
LINE
  8
0
 10
60.85733499191641
 20
2.2070711680869053
 11
60.48188797418239
 21
2.2269862065772212
  0
LINE
  8
0
 10
60.48188797418239
 20
2.2269862065772212
 11
60.12436040172479
 21
2.277458864297646
  0
LINE
  8
0
 10
60.12436040172479
 20
2.277458864297646
 11
59.8823523554816
 21
2.3577369022906485
  0
LINE
  8
0
 10
59.8823523554816
 20
2.3577369022906485
 11
59.75755142533237
 21
2.458013655149406
  0
LINE
  8
0
 10
59.75755142533237
 20
2.458013655149406
 11
59.581266563775934
 21
5.203792668469106
  0
LINE
  8
0
 10
59.581266563775934
 20
5.203792668469106
 11
59.69221977347537
 21
5.319205339295651
  0
LINE
  8
0
 10
59.69221977347537
 20
5.319205339295651
 11
59.92197520935998
 21
5.429771597765783
  0
LINE
  8
0
 10
59.92197520935998
 20
5.429771597765783
 11
60.27011318517797
 21
5.5255494868533415
  0
LINE
  8
0
 10
60.27011318517797
 20
5.5255494868533415
 11
60.63993110949242
 21
5.593312122144472
  0
LINE
  8
0
 10
60.63993110949242
 20
5.593312122144472
 11
60.973981676779665
 21
5.669404267822309
  0
LINE
  8
0
 10
60.973981676779665
 20
5.669404267822309
 11
61.411150356372424
 21
5.788846110167672
  0
LINE
  8
0
 10
61.411150356372424
 20
5.788846110167672
 11
61.94814784516303
 21
5.960535826351582
  0
LINE
  8
0
 10
61.94814784516303
 20
5.960535826351582
 11
62.58111522149647
 21
6.193161399127417
  0
LINE
  8
0
 10
62.58111522149647
 20
6.193161399127417
 11
63.30563625128396
 21
6.495168303882162
  0
LINE
  8
0
 10
63.30563625128396
 20
6.495168303882162
 11
64.11675140993789
 21
6.87472787832178
  0
LINE
  8
0
 10
64.11675140993789
 20
6.87472787832178
 11
64.48163603359872
 21
7.064886272248143
  0
LINE
  8
0
 10
64.48163603359872
 20
7.064886272248143
 11
64.40209954933273
 21
8.303731215385456
  0
LINE
  8
0
 10
64.40209954933273
 20
8.303731215385456
 11
64.16479608340747
 21
9.522234358806195
  0
LINE
  8
0
 10
64.16479608340747
 20
9.522234358806195
 11
63.76361051305008
 21
9.613618939025283
  0
LINE
  8
0
 10
63.76361051305008
 20
9.613618939025283
 11
62.8827459608278
 21
9.775021887526925
  0
LINE
  8
0
 10
62.8827459608278
 20
9.775021887526925
 11
62.10531505478394
 21
9.88337353475454
  0
LINE
  8
0
 10
62.10531505478394
 20
9.88337353475454
 11
61.43404242031927
 21
9.94783597983954
  0
LINE
  8
0
 10
61.43404242031927
 20
9.94783597983954
 11
60.87105762442741
 21
9.977698685761228
  0
LINE
  8
0
 10
60.87105762442741
 20
9.977698685761228
 11
60.41788963555492
 21
9.982344326773344
  0
LINE
  8
0
 10
60.41788963555492
 20
9.982344326773344
 11
60.07546311626804
 21
9.97121441075524
  0
LINE
  8
0
 10
60.07546311626804
 20
9.97121441075524
 11
59.70055183476274
 21
9.942954848064101
  0
LINE
  8
0
 10
59.70055183476274
 20
9.942954848064101
 11
59.33950525852087
 21
9.94729351477251
  0
LINE
  8
0
 10
59.33950525852087
 20
9.94729351477251
 11
59.08921836734785
 21
9.9959651691249
  0
LINE
  8
0
 10
59.08921836734785
 20
9.9959651691249
 11
58.952618944571476
 21
10.079459462505769
  0
LINE
  8
0
 10
58.952618944571476
 20
10.079459462505769
 11
58.42665895245538
 21
12.780152860337907
  0
LINE
  8
0
 10
58.42665895245538
 20
12.780152860337907
 11
58.5219425930692
 21
12.908806376268496
  0
LINE
  8
0
 10
58.5219425930692
 20
12.908806376268496
 11
58.735672840689915
 21
13.047845360307482
  0
LINE
  8
0
 10
58.735672840689915
 20
13.047845360307482
 11
59.06870480393018
 21
13.187355810471786
  0
LINE
  8
0
 10
59.06870480393018
 20
13.187355810471786
 11
59.426821234728806
 21
13.301853381965266
  0
LINE
  8
0
 10
59.426821234728806
 20
13.301853381965266
 11
59.748398803860525
 21
13.420038250582719
  0
LINE
  8
0
 10
59.748398803860525
 20
13.420038250582719
 11
60.16670445085142
 21
13.594403366977186
  0
LINE
  8
0
 10
60.16670445085142
 20
13.594403366977186
 11
60.67733800408609
 21
13.833353227662784
  0
LINE
  8
0
 10
60.67733800408609
 20
13.833353227662784
 11
61.275361229027695
 21
14.14501101922618
  0
LINE
  8
0
 10
61.275361229027695
 20
14.14501101922618
 11
61.955314165386696
 21
14.537188144337565
  0
LINE
  8
0
 10
61.955314165386696
 20
14.537188144337565
 11
62.711233078730814
 21
15.017354644205723
  0
LINE
  8
0
 10
62.711233078730814
 20
15.017354644205723
 11
63.04880508898938
 21
15.252612250362601
  0
LINE
  8
0
 10
63.04880508898938
 20
15.252612250362601
 11
62.81150162306415
 21
16.47111539378332
  0
LINE
  8
0
 10
62.81150162306415
 20
16.47111539378332
 11
62.42032769182968
 21
17.649268949559854
  0
LINE
  8
0
 10
62.42032769182968
 20
17.649268949559854
 11
62.010749848719044
 21
17.68860079159248
  0
LINE
  8
0
 10
62.010749848719044
 20
17.68860079159248
 11
61.11647743135221
 21
17.73603616535136
  0
LINE
  8
0
 10
61.11647743135221
 20
17.73603616535136
 11
60.33157352118904
 21
17.7440825893823
  0
LINE
  8
0
 10
60.33157352118904
 20
17.7440825893823
 11
59.657568751261444
 21
17.722175359472413
  0
LINE
  8
0
 10
59.657568751261444
 20
17.722175359472413
 11
59.095387294688095
 21
17.6797999952211
  0
LINE
  8
0
 10
59.095387294688095
 20
17.6797999952211
 11
58.64534573735316
 21
17.626457659401435
  0
LINE
  8
0
 10
58.64534573735316
 20
17.626457659401435
 11
58.30715379712637
 21
17.57163058846808
  0
LINE
  8
0
 10
58.30715379712637
 20
17.57163058846808
 11
57.93893428472712
 21
17.4956604458336
  0
LINE
  8
0
 10
57.93893428472712
 20
17.4956604458336
 11
57.5802970795012
 21
17.453793880742584
  0
LINE
  8
0
 10
57.5802970795012
 20
17.453793880742584
 11
57.325841047231854
 21
17.4700599642355
  0
LINE
  8
0
 10
57.325841047231854
 20
17.4700599642355
 11
57.17968609057383
 21
17.535400824149487
  0
LINE
  8
0
 10
57.17968609057383
 20
17.535400824149487
 11
56.31268721642767
 21
20.14666329556636
  0
LINE
  8
0
 10
56.31268721642767
 20
20.14666329556636
 11
56.39073673321124
 21
20.286445169426226
  0
LINE
  8
0
 10
56.39073673321124
 20
20.286445169426226
 11
56.58493234781104
 21
20.451673862760092
  0
LINE
  8
0
 10
56.58493234781104
 20
20.451673862760092
 11
56.89738992284435
 21
20.63262611626642
  0
LINE
  8
0
 10
56.89738992284435
 20
20.63262611626642
 11
57.237924598234095
 21
20.79197857700378
  0
LINE
  8
0
 10
57.237924598234095
 20
20.79197857700378
 11
57.541748874415624
 21
20.950315576285547
  0
LINE
  8
0
 10
57.541748874415624
 20
20.950315576285547
 11
57.93432292164576
 21
21.176740896338504
  0
LINE
  8
0
 10
57.93432292164576
 20
21.176740896338504
 11
58.4102079504976
 21
21.47902735141946
  0
LINE
  8
0
 10
58.4102079504976
 20
21.47902735141946
 11
58.963467499227065
 21
21.864599949449193
  0
LINE
  8
0
 10
58.963467499227065
 20
21.864599949449193
 11
59.587687533740876
 21
22.340507757365202
  0
LINE
  8
0
 10
59.587687533740876
 20
22.340507757365202
 11
60.275998034116576
 21
22.913396862008987
  0
LINE
  8
0
 10
60.275998034116576
 20
22.913396862008987
 11
60.58071450789731
 21
23.18989075700737
  0
LINE
  8
0
 10
60.58071450789731
 20
23.18989075700737
 11
60.18954057666274
 21
24.368044312783866
  0
LINE
  8
0
 10
60.18954057666274
 20
24.368044312783866
 11
59.65091924525507
 21
25.48650303210209
  0
LINE
  8
0
 10
59.65091924525507
 20
25.48650303210209
 11
59.239674386251764
 21
25.473136308189492
  0
LINE
  8
0
 10
59.239674386251764
 20
25.473136308189492
 11
58.346678032110034
 21
25.405825219679908
  0
LINE
  8
0
 10
58.346678032110034
 20
25.405825219679908
 11
57.567189218332594
 21
25.313434298454048
  0
LINE
  8
0
 10
57.567189218332594
 20
25.313434298454048
 11
56.90151945263042
 21
25.205517109658732
  0
LINE
  8
0
 10
56.90151945263042
 20
25.205517109658732
 11
56.34937233935017
 21
25.091599477543895
  0
LINE
  8
0
 10
56.34937233935017
 20
25.091599477543895
 11
55.90984688348216
 21
24.98114504457188
  0
LINE
  8
0
 10
55.90984688348216
 20
24.98114504457188
 11
55.58144262462415
 21
24.883521077712217
  0
LINE
  8
0
 10
55.58144262462415
 20
24.883521077712217
 11
55.22596103554458
 21
24.761087782776144
  0
LINE
  8
0
 10
55.22596103554458
 20
24.761087782776144
 11
54.875622014329345
 21
24.673703433727038
  0
LINE
  8
0
 10
54.875622014329345
 20
24.673703433727038
 11
54.621175001978735
 21
24.657296857719224
  0
LINE
  8
0
 10
54.621175001978735
 20
24.657296857719224
 11
54.46786437178671
 21
24.70341138905299
  0
LINE
  8
0
 10
54.46786437178671
 20
24.70341138905299
 11
53.274062713154485
 21
27.182366076466185
  0
LINE
  8
0
 10
53.274062713154485
 20
27.182366076466185
 11
53.33359653520002
 21
27.33098109375103
  0
LINE
  8
0
 10
53.33359653520002
 20
27.33098109375103
 11
53.50506883015599
 21
27.519686445803217
  0
LINE
  8
0
 10
53.50506883015599
 20
27.519686445803217
 11
53.79182147223866
 21
27.73910927165169
  0
LINE
  8
0
 10
53.79182147223866
 20
27.73910927165169
 11
54.10918282226421
 21
27.94070005863316
  0
LINE
  8
0
 10
54.10918282226421
 20
27.94070005863316
 11
54.390265019280335
 21
28.1365892994285
  0
LINE
  8
0
 10
54.390265019280335
 20
28.1365892994285
 11
54.75066141174748
 21
28.411356925644547
  0
LINE
  8
0
 10
54.75066141174748
 20
28.411356925644547
 11
55.1839838971993
 21
28.77201643988559
  0
LINE
  8
0
 10
55.1839838971993
 20
28.77201643988559
 11
55.683395263222174
 21
29.225172752981734
  0
LINE
  8
0
 10
55.683395263222174
 20
29.225172752981734
 11
56.241632720181585
 21
29.776996850653582
  0
LINE
  8
0
 10
56.241632720181585
 20
29.776996850653582
 11
56.85103276820206
 21
30.433201736813107
  0
LINE
  8
0
 10
56.85103276820206
 20
30.433201736813107
 11
57.11789026942969
 21
30.74639189854117
  0
LINE
  8
0
 10
57.11789026942969
 20
30.74639189854117
 11
56.579268938022054
 21
31.864850617859393
  0
LINE
  8
0
 10
56.579268938022054
 20
31.864850617859393
 11
55.90204435381213
 21
32.905249439469664
  0
LINE
  8
0
 10
55.90204435381213
 20
32.905249439469664
 11
55.49588510813143
 21
32.8394036308489
  0
LINE
  8
0
 10
55.49588510813143
 20
32.8394036308489
 11
54.61882779266159
 21
32.65845132628326
  0
LINE
  8
0
 10
54.61882779266159
 20
32.65845132628326
 11
53.85755326004198
 21
32.46714011617284
  0
LINE
  8
0
 10
53.85755326004198
 20
32.46714011617284
 11
53.21114877771463
 21
32.27498496574859
  0
LINE
  8
0
 10
53.21114877771463
 20
32.27498496574859
 11
52.6781022480626
 21
32.091395590140124
  0
LINE
  8
0
 10
52.6781022480626
 20
32.091395590140124
 11
52.25630988949553
 21
31.92564271875149
  0
LINE
  8
0
 10
52.25630988949553
 20
31.92564271875149
 11
51.94308570085753
 21
31.7868248388024
  0
LINE
  8
0
 10
51.94308570085753
 20
31.7868248388024
 11
51.6061790329625
 21
31.619938742882727
  0
LINE
  8
0
 10
51.6061790329625
 20
31.619938742882727
 11
51.26989075280067
 21
31.48847145847105
  0
LINE
  8
0
 10
51.26989075280067
 20
31.48847145847105
 11
51.01963077327701
 21
31.43966161848697
  0
LINE
  8
0
 10
51.01963077327701
 20
31.43966161848697
 11
50.861681825860245
 21
31.46579262191092
  0
LINE
  8
0
 10
50.861681825860245
 20
31.46579262191092
 11
49.36067957297227
 21
33.771735157887505
  0
LINE
  8
0
 10
49.36067957297227
 20
33.771735157887505
 11
49.40072015656769
 21
33.9267430641222
  0
LINE
  8
0
 10
49.40072015656769
 20
33.9267430641222
 11
49.54665356153726
 21
34.135826538229054
  0
LINE
  8
0
 10
49.54665356153726
 20
34.135826538229054
 11
49.802992800213985
 21
34.39011701968551
  0
LINE
  8
0
 10
49.802992800213985
 20
34.39011701968551
 11
50.091969760281856
 21
34.630636017762136
  0
LINE
  8
0
 10
50.091969760281856
 20
34.630636017762136
 11
50.345694516228505
 21
34.86086100415283
  0
LINE
  8
0
 10
50.345694516228505
 20
34.86086100415283
 11
50.667995555132045
 21
35.17945925970586
  0
LINE
  8
0
 10
50.667995555132045
 20
35.17945925970586
 11
51.05164035395257
 21
35.592569813854126
  0
LINE
  8
0
 10
51.05164035395257
 20
35.592569813854126
 11
51.48900321644574
 21
36.105869027883834
  0
LINE
  8
0
 10
51.48900321644574
 20
36.105869027883834
 11
51.97209185224078
 21
36.72454847888373
  0
LINE
  8
0
 10
51.97209185224078
 20
36.72454847888373
 11
52.492575115965295
 21
37.45329428047004
  0
LINE
  8
0
 10
52.492575115965295
 20
37.45329428047004
 11
52.71719185184743
 21
37.79803813513085
  0
LINE
  8
0
 10
52.71719185184743
 20
37.79803813513085
 11
52.039967267637465
 21
38.83843695674106
  0
LINE
  8
0
 10
52.039967267637465
 20
38.83843695674106
 11
51.235259439574975
 21
39.78369256075583
  0
LINE
  8
0
 10
51.235259439574975
 20
39.78369256075583
 11
50.84085493080213
 21
39.666448853784075
  0
LINE
  8
0
 10
50.84085493080213
 20
39.666448853784075
 11
49.994137910876645
 21
39.37482656500066
  0
LINE
  8
0
 10
49.994137910876645
 20
39.37482656500066
 11
49.26357776619391
 21
39.08773639078661
  0
LINE
  8
0
 10
49.26357776619391
 20
39.08773639078661
 11
48.647052510970354
 21
38.81449846099096
  0
LINE
  8
0
 10
48.647052510970354
 20
38.81449846099096
 11
48.14185917422658
 21
38.56425187436077
  0
LINE
  8
0
 10
48.14185917422658
 20
38.56425187436077
 11
47.744725731827046
 21
38.34592222212122
  0
LINE
  8
0
 10
47.744725731827046
 20
38.34592222212122
 11
47.45182474592694
 21
38.16818981483364
  0
LINE
  8
0
 10
47.45182474592694
 20
38.16818981483364
 11
47.139024997389
 21
37.95959118301156
  0
LINE
  8
0
 10
47.139024997389
 20
37.95959118301156
 11
46.82230930254364
 21
37.78619965241274
  0
LINE
  8
0
 10
46.82230930254364
 20
37.78619965241274
 11
46.5803456177919
 21
37.705788004675505
  0
LINE
  8
0
 10
46.5803456177919
 20
37.705788004675505
 11
46.420351870500234
 21
37.711506409835856
  0
LINE
  8
0
 10
46.420351870500234
 20
37.711506409835856
 11
44.6367954388515
 21
39.80657328168632
  0
LINE
  8
0
 10
44.6367954388515
 20
39.80657328168632
 11
44.65668531872113
 21
39.96542885133591
  0
LINE
  8
0
 10
44.65668531872113
 20
39.96542885133591
 11
44.774683611229264
 21
40.191457302633026
  0
LINE
  8
0
 10
44.774683611229264
 20
40.191457302633026
 11
44.99640036328784
 21
40.4764399970222
  0
LINE
  8
0
 10
44.99640036328784
 20
40.4764399970222
 11
45.25224793970292
 21
40.75193789089506
  0
LINE
  8
0
 10
45.25224793970292
 20
40.75193789089506
 11
45.47444910110205
 21
41.0127183349695
  0
LINE
  8
0
 10
45.47444910110205
 20
41.0127183349695
 11
45.753362612293685
 21
41.369915845311446
  0
LINE
  8
0
 10
45.753362612293685
 20
41.369915845311446
 11
46.081030287492716
 21
41.82869417548888
  0
LINE
  8
0
 10
46.081030287492716
 20
41.82869417548888
 11
46.449163160345584
 21
42.3937079315487
  0
LINE
  8
0
 10
46.449163160345584
 20
42.3937079315487
 11
46.8491706729322
 21
43.06908403639556
  0
LINE
  8
0
 10
46.8491706729322
 20
43.06908403639556
 11
47.27219083155995
 21
43.85840476749385
  0
LINE
  8
0
 10
47.27219083155995
 20
43.85840476749385
 11
47.4508786015032
 21
44.22904163052479
  0
LINE
  8
0
 10
47.4508786015032
 20
44.22904163052479
 11
46.64617077344073
 21
45.174297234539516
  0
LINE
  8
0
 10
46.64617077344073
 20
45.174297234539516
 11
45.72719298181524
 21
46.00888855007394
  0
LINE
  8
0
 10
45.72719298181524
 20
46.00888855007394
 11
45.35101932108037
 21
45.84217208317828
  0
LINE
  8
0
 10
45.35101932108037
 20
45.84217208317828
 11
44.548545666757654
 21
45.44466824009658
  0
LINE
  8
0
 10
44.548545666757654
 20
45.44466824009658
 11
43.860695687390056
 21
45.06651311450246
  0
LINE
  8
0
 10
43.860695687390056
 20
45.06651311450246
 11
43.284172986916325
 21
44.716678964588596
  0
LINE
  8
0
 10
43.284172986916325
 20
44.716678964588596
 11
42.815128103703316
 21
44.4038842089707
  0
LINE
  8
0
 10
42.815128103703316
 20
44.4038842089707
 11
42.44917449761617
 21
44.13656274273396
  0
LINE
  8
0
 10
42.44917449761617
 20
44.13656274273396
 11
42.181406140544745
 21
43.922834169321874
  0
LINE
  8
0
 10
42.181406140544745
 20
43.922834169321874
 11
41.89784947458707
 21
43.67594818536489
  0
LINE
  8
0
 10
41.89784947458707
 20
43.67594818536489
 11
41.605906828011456
 21
43.46347949271768
  0
LINE
  8
0
 10
41.605906828011456
 20
43.46347949271768
 11
41.376212475045826
 21
43.35278639426005
  0
LINE
  8
0
 10
41.376212475045826
 20
43.35278639426005
 11
41.21680102078652
 21
43.33799830510214
  0
LINE
  8
0
 10
41.21680102078652
 20
43.33799830510214
 11
39.179976357675606
 21
45.18778857271196
  0
LINE
  8
0
 10
39.179976357675606
 20
45.18778857271196
 11
39.179388942541884
 21
45.347883401714604
  0
LINE
  8
0
 10
39.179388942541884
 20
45.347883401714604
 11
39.267514593887825
 21
45.587145449280584
  0
LINE
  8
0
 10
39.267514593887825
 20
45.587145449280584
 11
39.45096827638917
 21
45.89814094863935
  0
LINE
  8
0
 10
39.45096827638917
 20
45.89814094863935
 11
39.669485459019995
 21
46.20409407050761
  0
LINE
  8
0
 10
39.669485459019995
 20
46.20409407050761
 11
39.85651448894451
 21
46.49114796458375
  0
LINE
  8
0
 10
39.85651448894451
 20
46.49114796458375
 11
40.08746072028146
 21
46.88107955647007
  0
LINE
  8
0
 10
40.08746072028146
 20
46.88107955647007
 11
40.353770977691084
 21
47.37799253517876
  0
LINE
  8
0
 10
40.353770977691084
 20
47.37799253517876
 11
40.64662912930899
 21
47.98544332301484
  0
LINE
  8
0
 10
40.64662912930899
 20
47.98544332301484
 11
40.95698740638932
 21
48.70642642473886
  0
LINE
  8
0
 10
40.95698740638932
 20
48.70642642473886
 11
41.27559848061066
 21
49.54336146076646
  0
LINE
  8
0
 10
41.27559848061066
 20
49.54336146076646
 11
41.40542323637274
 21
49.93380548512347
  0
LINE
  8
0
 10
41.40542323637274
 20
49.93380548512347
 11
40.4864454447472
 21
50.76839680065784
  0
LINE
  8
0
 10
40.4864454447472
 20
50.76839680065784
 11
39.46828727949053
 21
51.47861986138419
  0
LINE
  8
0
 10
39.46828727949053
 20
51.47861986138419
 11
39.11652122790306
 21
51.265168114341975
  0
LINE
  8
0
 10
39.11652122790306
 20
51.265168114341975
 11
38.37146753440151
 21
50.76830971907579
  0
LINE
  8
0
 10
38.37146753440151
 20
50.76830971907579
 11
37.73762219799362
 21
50.30529893880919
  0
LINE
  8
0
 10
37.73762219799362
 20
50.30529893880919
 11
37.21056853907267
 21
49.884612835847015
  0
LINE
  8
0
 10
37.21056853907267
 20
49.884612835847015
 11
36.78537381340532
 21
49.51440599248098
  0
LINE
  8
0
 10
36.78537381340532
 20
49.51440599248098
 11
36.45660899172518
 21
49.20248212333216
  0
LINE
  8
0
 10
36.45660899172518
 20
49.20248212333216
 11
36.2183700125027
 21
48.95626680106214
  0
LINE
  8
0
 10
36.2183700125027
 20
48.95626680106214
 11
35.968712421740975
 21
48.67514732600129
  0
LINE
  8
0
 10
35.968712421740975
 20
48.67514732600129
 11
35.70633651362069
 21
48.42709020136496
  0
LINE
  8
0
 10
35.70633651362069
 20
48.42709020136496
 11
35.49268306736661
 21
48.28793322980332
  0
LINE
  8
0
 10
35.49268306736661
 20
48.28793322980332
 11
35.33647143781144
 21
48.2528814663423
  0
LINE
  8
0
 10
35.33647143781144
 20
48.2528814663423
 11
33.079823147895574
 21
49.82702162465753
  0
LINE
  8
0
 10
33.079823147895574
 20
49.82702162465753
 11
33.058768083098755
 21
49.98572696034706
  0
LINE
  8
0
 10
33.058768083098755
 20
49.98572696034706
 11
33.11557407252377
 21
50.234293927975614
  0
LINE
  8
0
 10
33.11557407252377
 20
50.234293927975614
 11
33.25775238107304
 21
50.56619569480246
  0
LINE
  8
0
 10
33.25775238107304
 20
50.56619569480246
 11
33.435351123822066
 21
50.897580302863574
  0
LINE
  8
0
 10
33.435351123822066
 20
50.897580302863574
 11
33.58413701077131
 21
51.20619422993673
  0
LINE
  8
0
 10
33.58413701077131
 20
51.20619422993673
 11
33.763323831519855
 21
51.62245723740887
  0
LINE
  8
0
 10
33.763323831519855
 20
51.62245723740887
 11
33.96390386407597
 21
52.14934556727633
  0
LINE
  8
0
 10
33.96390386407597
 20
52.14934556727633
 11
34.17667857170584
 21
52.789259061746286
  0
LINE
  8
0
 10
34.17667857170584
 20
52.789259061746286
 11
34.39229153895054
 21
53.5440106377498
  0
LINE
  8
0
 10
34.39229153895054
 20
53.5440106377498
 11
34.601261943735246
 21
54.41481752855345
  0
LINE
  8
0
 10
34.601261943735246
 20
54.41481752855345
 11
34.680091966415596
 21
54.818657634150846
  0
LINE
  8
0
 10
34.680091966415596
 20
54.818657634150846
 11
33.661933801158995
 21
55.52888069487724
  0
LINE
  8
0
 10
33.661933801158995
 20
55.52888069487724
 11
32.56131339119633
 21
56.10307365777379
  0
LINE
  8
0
 10
32.56131339119633
 20
56.10307365777379
 11
32.239730937598196
 21
55.846391502370224
  0
LINE
  8
0
 10
32.239730937598196
 20
55.846391502370224
 11
31.56433096596699
 21
55.258336956033446
  0
LINE
  8
0
 10
31.56433096596699
 20
55.258336956033446
 11
30.994897995419034
 21
54.71807314530572
  0
LINE
  8
0
 10
30.994897995419034
 20
54.71807314530572
 11
30.525967584559144
 21
54.233442743475365
  0
LINE
  8
0
 10
30.525967584559144
 20
54.233442743475365
 11
30.15160470207779
 21
53.81190259849435
  0
LINE
  8
0
 10
30.15160470207779
 20
53.81190259849435
 11
29.865426974087445
 21
53.460498107741266
  0
LINE
  8
0
 10
29.865426974087445
 20
53.460498107741266
 11
29.660629250166277
 21
53.18583888539801
  0
LINE
  8
0
 10
29.660629250166277
 20
53.18583888539801
 11
29.448970105338642
 21
52.875101893241826
  0
LINE
  8
0
 10
29.448970105338642
 20
52.875101893241826
 11
29.220469140831252
 21
52.595529427744985
  0
LINE
  8
0
 10
29.220469140831252
 20
52.595529427744985
 11
29.02636478496945
 21
52.43019353670518
  0
LINE
  8
0
 10
29.02636478496945
 20
52.43019353670518
 11
28.875917970757005
 21
52.375453647928026
  0
LINE
  8
0
 10
28.875917970757005
 20
52.375453647928026
 11
26.436500156568194
 21
53.64809635906857
  0
LINE
  8
0
 10
26.436500156568194
 20
53.64809635906857
 11
26.395323165690147
 21
53.802806264220614
  0
LINE
  8
0
 10
26.395323165690147
 20
53.802806264220614
 11
26.419876740418356
 21
54.056596689175294
  0
LINE
  8
0
 10
26.419876740418356
 20
54.056596689175294
 11
26.51844511111992
 21
54.40395490563483
  0
LINE
  8
0
 10
26.51844511111992
 20
54.40395490563483
 11
26.652209247541172
 21
54.75532967378606
  0
LINE
  8
0
 10
26.652209247541172
 20
54.75532967378606
 11
26.760308931364847
 21
55.080436201705766
  0
LINE
  8
0
 10
26.760308931364847
 20
55.080436201705766
 11
26.8847940988822
 21
55.51619559768927
  0
LINE
  8
0
 10
26.8847940988822
 20
55.51619559768927
 11
27.016350387995544
 21
56.06440778690568
  0
LINE
  8
0
 10
27.016350387995544
 20
56.06440778690568
 11
27.145547896820588
 21
56.72627662612168
  0
LINE
  8
0
 10
27.145547896820588
 20
56.72627662612168
 11
27.262875195268442
 21
57.50240367639295
  0
LINE
  8
0
 10
27.262875195268442
 20
57.50240367639295
 11
27.358773642347227
 21
58.3927837969004
  0
LINE
  8
0
 10
27.358773642347227
 20
58.3927837969004
 11
27.385314545152916
 21
58.80338894036915
  0
LINE
  8
0
 10
27.385314545152916
 20
58.80338894036915
 11
26.284694135190215
 21
59.37758190326568
  0
LINE
  8
0
 10
26.284694135190215
 20
59.37758190326568
 11
25.119683637224735
 21
59.80631653575596
  0
LINE
  8
0
 10
25.119683637224735
 20
59.80631653575596
 11
24.833565156613407
 21
59.510618685886406
  0
LINE
  8
0
 10
24.833565156613407
 20
59.510618685886406
 11
24.23890895571429
 21
58.841023827872235
  0
LINE
  8
0
 10
24.23890895571429
 20
58.841023827872235
 11
23.74323842465984
 21
58.23237810351914
  0
LINE
  8
0
 10
23.74323842465984
 20
58.23237810351914
 11
23.34013108624306
 21
57.69176102062033
  0
LINE
  8
0
 10
23.34013108624306
 20
57.69176102062033
 11
23.02274707512821
 21
57.22580925155081
  0
LINE
  8
0
 10
23.02274707512821
 20
57.22580925155081
 11
22.783855471209453
 21
56.84069419121653
  0
LINE
  8
0
 10
22.783855471209453
 20
56.84069419121653
 11
22.615861775554436
 21
56.542100965637545
  0
LINE
  8
0
 10
22.615861775554436
 20
56.542100965637545
 11
22.445676513967335
 21
56.20684874920644
  0
LINE
  8
0
 10
22.445676513967335
 20
56.20684874920644
 11
22.254802472592804
 21
55.90035151500336
  0
LINE
  8
0
 10
22.254802472592804
 20
55.90035151500336
 11
22.083434395280218
 21
55.711551515245304
  0
LINE
  8
0
 10
22.083434395280218
 20
55.711551515245304
 11
21.941222728940545
 21
55.63802232861236
  0
LINE
  8
0
 10
21.941222728940545
 20
55.63802232861236
 11
19.359090563546424
 21
56.58827083444541
  0
LINE
  8
0
 10
19.359090563546424
 20
56.58827083444541
 11
19.29846777163896
 21
56.73644497669455
  0
LINE
  8
0
 10
19.29846777163896
 20
56.73644497669455
 11
19.290365762652154
 21
56.99129162721401
  0
LINE
  8
0
 10
19.290365762652154
 20
56.99129162721401
 11
19.343705705584153
 21
57.34840268099522
  0
LINE
  8
0
 10
19.343705705584153
 20
57.34840268099522
 11
19.431438832255715
 21
57.71399804525779
  0
LINE
  8
0
 10
19.431438832255715
 20
57.71399804525779
 11
19.497077319134004
 21
58.05025893382366
  0
LINE
  8
0
 10
19.497077319134004
 20
58.05025893382366
 11
19.5648167904111
 21
58.498359561083696
  0
LINE
  8
0
 10
19.5648167904111
 20
58.498359561083696
 11
19.62518918545152
 21
59.058893980658276
  0
LINE
  8
0
 10
19.62518918545152
 20
59.058893980658276
 11
19.668688075948676
 21
59.73185029657874
  0
LINE
  8
0
 10
19.668688075948676
 20
59.73185029657874
 11
19.68580319460286
 21
60.516608836409496
  0
LINE
  8
0
 10
19.68580319460286
 20
60.516608836409496
 11
19.667055034125955
 21
61.41194216965793
  0
LINE
  8
0
 10
19.667055034125955
 20
61.41194216965793
 11
19.640871016166646
 21
61.82257022589401
  0
LINE
  8
0
 10
19.640871016166646
 20
61.82257022589401
 11
18.475860518201202
 21
62.25130485838428
  0
LINE
  8
0
 10
18.475860518201202
 20
62.25130485838428
 11
17.265589372401106
 21
62.52754134965589
  0
LINE
  8
0
 10
17.265589372401106
 20
62.52754134965589
 11
17.019632922318028
 21
62.19768315584017
  0
LINE
  8
0
 10
17.019632922318028
 20
62.19768315584017
 11
16.51548473052961
 21
61.45754271520525
  0
LINE
  8
0
 10
16.51548473052961
 20
61.45754271520525
 11
16.101715535385022
 21
60.790509023193735
  0
LINE
  8
0
 10
16.101715535385022
 20
60.790509023193735
 11
15.771050280763646
 21
60.20278217678151
  0
LINE
  8
0
 10
15.771050280763646
 20
60.20278217678151
 11
15.51585657770326
 21
59.70006969878967
  0
LINE
  8
0
 10
15.51585657770326
 20
59.70006969878967
 11
15.328173691387924
 21
59.28756764751782
  0
LINE
  8
0
 10
15.328173691387924
 20
59.28756764751782
 11
15.19974247583728
 21
58.96994331121205
  0
LINE
  8
0
 10
15.19974247583728
 20
58.96994331121205
 11
15.073825534780944
 21
58.615680702631266
  0
LINE
  8
0
 10
15.073825534780944
 20
58.615680702631266
 11
14.923712563021638
 21
58.28729137583398
  0
LINE
  8
0
 10
14.923712563021638
 20
58.28729137583398
 11
14.777894623350026
 21
58.07812735813405
  0
LINE
  8
0
 10
14.777894623350026
 20
58.07812735813405
 11
14.646253216512765
 21
57.987016220857015
  0
LINE
  8
0
 10
14.646253216512765
 20
57.987016220857015
 11
11.963805238682209
 21
58.59926746718782
  0
LINE
  8
0
 10
11.963805238682209
 20
58.59926746718782
 11
11.884732070312447
 21
58.73847283121483
  0
LINE
  8
0
 10
11.884732070312447
 20
58.73847283121483
 11
11.844107512374194
 21
58.990191132343156
  0
LINE
  8
0
 10
11.844107512374194
 20
58.990191132343156
 11
11.851343187148348
 21
59.35119126981581
  0
LINE
  8
0
 10
11.851343187148348
 20
59.35119126981581
 11
11.891604728555782
 21
59.725004164415964
  0
LINE
  8
0
 10
11.891604728555782
 20
59.725004164415964
 11
11.913704236348822
 21
60.0668980191342
  0
LINE
  8
0
 10
11.913704236348822
 20
60.0668980191342
 11
11.923585731140054
 21
60.51998207775956
  0
LINE
  8
0
 10
11.923585731140054
 20
60.51998207775956
 11
11.911782919050067
 21
61.08363476801969
  0
LINE
  8
0
 10
11.911782919050067
 20
61.08363476801969
 11
11.868868940639965
 21
61.75662863654209
  0
LINE
  8
0
 10
11.868868940639965
 20
61.75662863654209
 11
11.78549084972535
 21
62.53713295240414
  0
LINE
  8
0
 10
11.78549084972535
 20
62.53713295240414
 11
11.652403925969466
 21
63.42271814981442
  0
LINE
  8
0
 10
11.652403925969466
 20
63.42271814981442
 11
11.573924928096162
 21
63.826626617486916
  0
LINE
  8
0
 10
11.573924928096162
 20
63.826626617486916
 11
10.363653782296048
 21
64.10286310875847
  0
LINE
  8
0
 10
10.363653782296048
 20
64.10286310875847
 11
9.127994607415573
 21
64.22206566326159
  0
LINE
  8
0
 10
9.127994607415573
 20
64.22206566326159
 11
8.9262387859713
 21
63.86346338792281
  0
LINE
  8
0
 10
8.9262387859713
 20
63.86346338792281
 11
8.520876702664813
 21
63.064930450240084
  0
LINE
  8
0
 10
8.520876702664813
 20
63.064930450240084
 11
8.195802922175098
 21
62.35046146535184
  0
LINE
  8
0
 10
8.195802922175098
 20
62.35046146535184
 11
7.943009265688278
 21
61.7252753139957
  0
LINE
  8
0
 10
7.943009265688278
 20
61.7252753139957
 11
7.7541961442313925
 21
61.194056652071936
  0
LINE
  8
0
 10
7.7541961442313925
 20
61.194056652071936
 11
7.620803723324001
 21
60.76094088214014
  0
LINE
  8
0
 10
7.620803723324001
 20
60.76094088214014
 11
7.534043824886396
 21
60.429500817928535
  0
LINE
  8
0
 10
7.534043824886396
 20
60.429500817928535
 11
7.454462757051812
 21
60.06204479943687
  0
LINE
  8
0
 10
7.454462757051812
 20
60.06204479943687
 11
7.3475757057539255
 21
59.71715552371258
  0
LINE
  8
0
 10
7.3475757057539255
 20
59.71715552371258
 11
7.229702230261333
 21
59.49106195545875
  0
LINE
  8
0
 10
7.229702230261333
 20
59.49106195545875
 11
7.110792631187331
 21
59.38386490989279
  0
LINE
  8
0
 10
7.110792631187331
 20
59.38386490989279
 11
4.372074562556039
 21
59.648065748183214
  0
LINE
  8
0
 10
4.372074562556039
 20
59.648065748183214
 11
4.275849396962512
 21
59.77601658575931
  0
LINE
  8
0
 10
4.275849396962512
 20
59.77601658575931
 11
4.203369344191035
 21
60.0204733299511
  0
LINE
  8
0
 10
4.203369344191035
 20
60.0204733299511
 11
4.1643819412275915
 21
60.37943493883829
  0
LINE
  8
0
 10
4.1643819412275915
 20
60.37943493883829
 11
4.156510803974078
 21
60.755327366381316
  0
LINE
  8
0
 10
4.156510803974078
 20
60.755327366381316
 11
4.134708459374884
 21
61.09724029960959
  0
LINE
  8
0
 10
4.134708459374884
 20
61.09724029960959
 11
4.086569723808968
 21
61.54786816188383
  0
LINE
  8
0
 10
4.086569723808968
 20
61.54786816188383
 11
4.0027855064367825
 21
62.10538396123848
  0
LINE
  8
0
 10
4.0027855064367825
 20
62.10538396123848
 11
3.874163305458495
 21
62.76736484164759
  0
LINE
  8
0
 10
3.874163305458495
 20
62.76736484164759
 11
3.6916610709227866
 21
63.53079907425269
  0
LINE
  8
0
 10
3.6916610709227866
 20
63.53079907425269
 11
3.446420667496606
 21
64.39209485136666
  0
LINE
  8
0
 10
3.446420667496606
 20
64.39209485136666
 11
3.3169353126847083
 21
64.78265156460297
  0
LINE
  8
0
 10
3.3169353126847083
 20
64.78265156460297
 11
2.0812761378042683
 21
64.9018541191061
  0
LINE
  8
0
 10
2.0812761378042683
 20
64.9018541191061
 11
0.8405184233333469
 21
64.86206543419145
  0
LINE
  8
0
 10
0.8405184233333469
 20
64.86206543419145
 11
0.6862760555381402
 21
64.4806073167765
  0
LINE
  8
0
 10
0.6862760555381402
 20
64.4806073167765
 11
0.3863561149146376
 21
63.63679377080608
  0
LINE
  8
0
 10
0.3863561149146376
 20
63.63679377080608
 11
0.15531545156828633
 21
62.88662105402041
  0
LINE
  8
0
 10
0.15531545156828633
 20
62.88662105402041
 11
-0.015455741933323256
 21
62.23424113704142
  0
LINE
  8
0
 10
-0.015455741933323256
 20
62.23424113704142
 11
-0.13478797555240374
 21
61.68323888692818
  0
LINE
  8
0
 10
-0.13478797555240374
 20
61.68323888692818
 11
-0.2116996311883856
 21
61.2366211473046
  0
LINE
  8
0
 10
-0.2116996311883856
 20
61.2366211473046
 11
-0.25536361737921104
 21
60.896807591878364
  0
LINE
  8
0
 10
-0.25536361737921104
 20
60.896807591878364
 11
-0.2873020930583376
 21
60.52219178114057
  0
LINE
  8
0
 10
-0.2873020930583376
 20
60.52219178114057
 11
-0.3492081414675471
 21
60.16646562886169
  0
LINE
  8
0
 10
-0.3492081414675471
 20
60.16646562886169
 11
-0.4372016735723171
 21
59.92715496019398
  0
LINE
  8
0
 10
-0.4372016735723171
 20
59.92715496019398
 11
-0.5414269725537003
 21
59.80563217886369
  0
LINE
  8
0
 10
-0.5414269725537003
 20
59.80563217886369
 11
-3.2914454570147496
 21
59.71744443865322
  0
LINE
  8
0
 10
-3.2914454570147496
 20
59.71744443865322
 11
-3.4032426052732836
 21
59.83203980056278
  0
LINE
  8
0
 10
-3.4032426052732836
 20
59.83203980056278
 11
-3.506388032415298
 21
60.065221014836794
  0
LINE
  8
0
 10
-3.506388032415298
 20
60.065221014836794
 11
-3.590958341037542
 21
60.41624995544462
  0
LINE
  8
0
 10
-3.590958341037542
 20
60.41624995544462
 11
-3.6468329130959094
 21
60.788049772662355
  0
LINE
  8
0
 10
-3.6468329130959094
 20
60.788049772662355
 11
-3.7121791161917796
 21
61.12436758348976
  0
LINE
  8
0
 10
-3.7121791161917796
 20
61.12436758348976
 11
-3.8175476454077177
 21
61.56513995237262
  0
LINE
  8
0
 10
-3.8175476454077177
 20
61.56513995237262
 11
-3.9719375335291907
 21
62.107364466809734
  0
LINE
  8
0
 10
-3.9719375335291907
 20
62.107364466809734
 11
-4.184155984091549
 21
62.7474626513507
  0
LINE
  8
0
 10
-4.184155984091549
 20
62.7474626513507
 11
-4.462785680602821
 21
63.48129123170574
  0
LINE
  8
0
 10
-4.462785680602821
 20
63.48129123170574
 11
-4.816152723055077
 21
64.304155135675
  0
LINE
  8
0
 10
-4.816152723055077
 20
64.304155135675
 11
-4.994518288859367
 21
64.67494716404133
  0
LINE
  8
0
 10
-4.994518288859367
 20
64.67494716404133
 11
-6.235276003330244
 21
64.63515847912662
  0
LINE
  8
0
 10
-6.235276003330244
 20
64.63515847912662
 11
-7.460759050022609
 21
64.43703188390039
  0
LINE
  8
0
 10
-7.460759050022609
 20
64.43703188390039
 11
-7.564955308753816
 21
64.03898145615132
  0
LINE
  8
0
 10
-7.564955308753816
 20
64.03898145615132
 11
-7.75450842956103
 21
63.16374269698956
  0
LINE
  8
0
 10
-7.75450842956103
 20
63.16374269698956
 11
-7.887722294459335
 21
62.39018406357644
  0
LINE
  8
0
 10
-7.887722294459335
 20
62.39018406357644
 11
-7.973666966699662
 21
61.72132244117538
  0
LINE
  8
0
 10
-7.973666966699662
 20
61.72132244117538
 11
-8.021558880504033
 21
61.15958404458625
  0
LINE
  8
0
 10
-8.021558880504033
 20
61.15958404458625
 11
-8.040726883609398
 21
60.706797786208085
  0
LINE
  8
0
 10
-8.040726883609398
 20
60.706797786208085
 11
-8.040577996107347
 21
60.36419046875265
  0
LINE
  8
0
 10
-8.040577996107347
 20
60.36419046875265
 11
-8.024349450743353
 21
59.988566047024236
  0
LINE
  8
0
 10
-8.024349450743353
 20
59.988566047024236
 11
-8.04025800066049
 21
59.6278440317766
  0
LINE
  8
0
 10
-8.04025800066049
 20
59.6278440317766
 11
-8.09692673801299
 21
59.379245737258465
  0
LINE
  8
0
 10
-8.09692673801299
 20
59.379245737258465
 11
-8.184756360373944
 21
59.245392620873595
  0
LINE
  8
0
 10
-8.184756360373944
 20
59.245392620873595
 11
-10.900920033178263
 21
58.8062643424184
  0
LINE
  8
0
 10
-10.900920033178263
 20
58.8062643424184
 11
-11.026453458018198
 21
58.905622575987046
  0
LINE
  8
0
 10
-11.026453458018198
 20
58.905622575987046
 11
-11.158570614468688
 21
59.123699431251524
  0
LINE
  8
0
 10
-11.158570614468688
 20
59.123699431251524
 11
-11.28733518662023
 21
59.461031818079924
  0
LINE
  8
0
 10
-11.28733518662023
 20
59.461031818079924
 11
-11.390295734554986
 21
59.822634082252634
  0
LINE
  8
0
 10
-11.390295734554986
 20
59.822634082252634
 11
-11.49811281329929
 21
60.147834441523386
  0
LINE
  8
0
 10
-11.49811281329929
 20
60.147834441523386
 11
-11.658980987828599
 21
60.57151384690361
  0
LINE
  8
0
 10
-11.658980987828599
 20
60.57151384690361
 11
-11.88144146900474
 21
61.089543764886734
  0
LINE
  8
0
 10
-11.88144146900474
 20
61.089543764886734
 11
-12.173771548060033
 21
61.697248859065866
  0
LINE
  8
0
 10
-12.173771548060033
 20
61.697248859065866
 11
-12.543953614633287
 21
62.3894223421692
  0
LINE
  8
0
 10
-12.543953614633287
 20
62.3894223421692
 11
-12.99964501904391
 21
63.16034297043989
  0
LINE
  8
0
 10
-12.99964501904391
 20
63.16034297043989
 11
-13.223962038181266
 21
63.50528191908159
  0
LINE
  8
0
 10
-13.223962038181266
 20
63.50528191908159
 11
-14.449445084873602
 21
63.30715532385534
  0
LINE
  8
0
 10
-14.449445084873602
 20
63.30715532385534
 11
-15.639531066041037
 21
62.953944051533675
  0
LINE
  8
0
 10
-15.639531066041037
 20
62.953944051533675
 11
-15.691970316020525
 21
62.54583729046935
  0
LINE
  8
0
 10
-15.691970316020525
 20
62.54583729046935
 11
-15.76804416000828
 21
61.65354471434439
  0
LINE
  8
0
 10
-15.76804416000828
 20
61.65354471434439
 11
-15.8012438584798
 21
60.86930197567829
  0
LINE
  8
0
 10
-15.8012438584798
 20
60.86930197567829
 11
-15.800950800316729
 21
60.19494133720331
  0
LINE
  8
0
 10
-15.800950800316729
 20
60.19494133720331
 11
-15.776616010405764
 21
59.63169052308018
  0
LINE
  8
0
 10
-15.776616010405764
 20
59.63169052308018
 11
-15.73772562289945
 21
59.180170483792054
  0
LINE
  8
0
 10
-15.73772562289945
 20
59.180170483792054
 11
-15.693766306433188
 21
58.84039500698816
  0
LINE
  8
0
 10
-15.693766306433188
 20
58.84039500698816
 11
-15.629637212292288
 21
58.4699297168892
  0
LINE
  8
0
 10
-15.629637212292288
 20
58.4699297168892
 11
-15.599287045767529
 21
58.110134884190465
  0
LINE
  8
0
 10
-15.599287045767529
 20
58.110134884190465
 11
-15.623700489267122
 21
57.856330940945014
  0
LINE
  8
0
 10
-15.623700489267122
 20
57.856330940945014
 11
-15.693692275036662
 21
57.71234535397604
  0
LINE
  8
0
 10
-15.693692275036662
 20
57.71234535397604
 11
-18.331401803769204
 21
56.929487011468005
  0
LINE
  8
0
 10
-18.331401803769204
 20
56.929487011468005
 11
-18.468610249825225
 21
57.01197665724744
  0
LINE
  8
0
 10
-18.468610249825225
 20
57.01197665724744
 11
-18.62752977552785
 21
57.21136833756801
  0
LINE
  8
0
 10
-18.62752977552785
 20
57.21136833756801
 11
-18.798374300493844
 21
57.52946518215132
  0
LINE
  8
0
 10
-18.798374300493844
 20
57.52946518215132
 11
-18.946730214954407
 21
57.8749323940983
  0
LINE
  8
0
 10
-18.946730214954407
 20
57.8749323940983
 11
-19.09524781589493
 21
58.18367552090384
  0
LINE
  8
0
 10
-19.09524781589493
 20
58.18367552090384
 11
-19.308974184759272
 21
58.583305158658334
  0
LINE
  8
0
 10
-19.308974184759272
 20
58.583305158658334
 11
-19.59585246403942
 21
59.0686344432559
  0
LINE
  8
0
 10
-19.59585246403942
 20
59.0686344432559
 11
-19.963494119771465
 21
59.63396794622768
  0
LINE
  8
0
 10
-19.963494119771465
 20
59.63396794622768
 11
-20.419150177107802
 21
60.27312086262293
  0
LINE
  8
0
 10
-20.419150177107802
 20
60.27312086262293
 11
-20.96968350321464
 21
60.97943971979208
  0
LINE
  8
0
 10
-20.96968350321464
 20
60.97943971979208
 11
-21.23626869643241
 21
61.292861700708784
  0
LINE
  8
0
 10
-21.23626869643241
 20
61.292861700708784
 11
-22.42635467759983
 21
60.939650428387075
  0
LINE
  8
0
 10
-22.42635467759983
 20
60.939650428387075
 11
-23.561502414333262
 21
60.43715419829645
  0
LINE
  8
0
 10
-23.561502414333262
 20
60.43715419829645
 11
-23.56132360452614
 21
60.02569220565086
  0
LINE
  8
0
 10
-23.56132360452614
 20
60.02569220565086
 11
-23.522669041279325
 21
59.13099723199394
  0
LINE
  8
0
 10
-23.522669041279325
 20
59.13099723199394
 11
-23.45530943519302
 21
58.34894763216218
  0
LINE
  8
0
 10
-23.45530943519302
 20
58.34894763216218
 11
-23.36878345863348
 21
57.680160960653325
  0
LINE
  8
0
 10
-23.36878345863348
 20
57.680160960653325
 11
-23.27262154158475
 21
57.1246462917922
  0
LINE
  8
0
 10
-23.27262154158475
 20
57.1246462917922
 11
-23.176311342554424
 21
56.68180641815628
  0
LINE
  8
0
 10
-23.176311342554424
 20
56.68180641815628
 11
-23.089263407885014
 21
56.35044188593943
  0
LINE
  8
0
 10
-23.089263407885014
 20
56.35044188593943
 11
-22.978286762920053
 21
55.99121875729129
  0
LINE
  8
0
 10
-22.978286762920053
 20
55.99121875729129
 11
-22.902176228848663
 21
55.63825892834733
  0
LINE
  8
0
 10
-22.902176228848663
 20
55.63825892834733
 11
-22.89393351042803
 21
55.38341679010584
  0
LINE
  8
0
 10
-22.89393351042803
 20
55.38341679010584
 11
-22.944938196418846
 21
55.23166297191009
  0
LINE
  8
0
 10
-22.944938196418846
 20
55.23166297191009
 11
-25.460882463541235
 21
54.117929077689915
  0
LINE
  8
0
 10
-25.460882463541235
 20
54.117929077689915
 11
-25.607512971922443
 21
54.18219565797699
  0
LINE
  8
0
 10
-25.607512971922443
 20
54.18219565797699
 11
-25.790625412658727
 21
54.35962815747527
  0
LINE
  8
0
 10
-25.790625412658727
 20
54.35962815747527
 11
-26.000744628062492
 21
54.653266318419696
  0
LINE
  8
0
 10
-26.000744628062492
 20
54.653266318419696
 11
-26.192059909034928
 21
54.97692591607174
  0
LINE
  8
0
 10
-26.192059909034928
 20
54.97692591607174
 11
-26.378839377270218
 21
55.26414225680557
  0
LINE
  8
0
 10
-26.378839377270218
 20
55.26414225680557
 11
-26.641914559401627
 21
55.63316021933078
  0
LINE
  8
0
 10
-26.641914559401627
 20
55.63316021933078
 11
-26.988500103371187
 21
56.07781977710735
  0
LINE
  8
0
 10
-26.988500103371187
 20
56.07781977710735
 11
-27.42541666995686
 21
56.59149892838245
  0
LINE
  8
0
 10
-27.42541666995686
 20
56.59149892838245
 11
-27.959064858192114
 21
57.16713640485275
  0
LINE
  8
0
 10
-27.959064858192114
 20
57.16713640485275
 11
-28.595400364000806
 21
57.79725575481289
  0
LINE
  8
0
 10
-28.595400364000806
 20
57.79725575481289
 11
-28.899876409796487
 21
58.07401438774297
  0
LINE
  8
0
 10
-28.899876409796487
 20
58.07401438774297
 11
-30.035024146529874
 21
57.57151815765231
  0
LINE
  8
0
 10
-30.035024146529874
 20
57.57151815765231
 11
-31.096594544374987
 21
56.927987943998495
  0
LINE
  8
0
 10
-31.096594544374987
 20
56.927987943998495
 11
-31.04380061083336
 21
56.519926914315434
  0
LINE
  8
0
 10
-31.04380061083336
 20
56.519926914315434
 11
-30.891052347211826
 21
55.63752040985879
  0
LINE
  8
0
 10
-30.891052347211826
 20
55.63752040985879
 11
-30.72423947943737
 21
54.870505181669685
  0
LINE
  8
0
 10
-30.72423947943737
 20
54.870505181669685
 11
-30.552901338624334
 21
54.218273935783536
  0
LINE
  8
0
 10
-30.552901338624334
 20
54.218273935783536
 11
-30.386491270457235
 21
53.67961694768908
  0
LINE
  8
0
 10
-30.386491270457235
 20
53.67961694768908
 11
-30.23434267070835
 21
53.25272865818748
  0
LINE
  8
0
 10
-30.23434267070835
 20
53.25272865818748
 11
-30.105635442516476
 21
52.93521606701563
  0
LINE
  8
0
 10
-30.105635442516476
 20
52.93521606701563
 11
-29.949633480169677
 21
52.59313353365945
  0
LINE
  8
0
 10
-29.949633480169677
 20
52.59313353365945
 11
-29.829012311416907
 21
52.2528042991034
  0
LINE
  8
0
 10
-29.829012311416907
 20
52.2528042991034
 11
-29.78824877628464
 21
52.00110846673034
  0
LINE
  8
0
 10
-29.78824877628464
 20
52.00110846673034
 11
-29.81942886696286
 21
51.84407821080713
  0
LINE
  8
0
 10
-29.81942886696286
 20
51.84407821080713
 11
-32.172296137165986
 21
50.417756244627064
  0
LINE
  8
0
 10
-32.172296137165986
 20
50.417756244627064
 11
-32.32594103897857
 21
50.46274450395021
  0
LINE
  8
0
 10
-32.32594103897857
 20
50.46274450395021
 11
-32.53023969353404
 21
50.61530438588982
  0
LINE
  8
0
 10
-32.53023969353404
 20
50.61530438588982
 11
-32.7761834476677
 21
50.879662332710716
  0
LINE
  8
0
 10
-32.7761834476677
 20
50.879662332710716
 11
-33.00731670352765
 21
51.17619983442245
  0
LINE
  8
0
 10
-33.00731670352765
 20
51.17619983442245
 11
-33.22929112535307
 21
51.437173304710235
  0
LINE
  8
0
 10
-33.22929112535307
 20
51.437173304710235
 11
-33.537395433534066
 21
51.769520327263535
  0
LINE
  8
0
 10
-33.537395433534066
 20
51.769520327263535
 11
-33.93799731714292
 21
52.16620886057369
  0
LINE
  8
0
 10
-33.93799731714292
 20
52.16620886057369
 11
-34.437014636638104
 21
52.61979906268963
  0
LINE
  8
0
 10
-34.437014636638104
 20
52.61979906268963
 11
-35.039892467274946
 21
53.12246914778568
  0
LINE
  8
0
 10
-35.039892467274946
 20
53.12246914778568
 11
-35.751581541372566
 21
53.666042448231046
  0
LINE
  8
0
 10
-35.751581541372566
 20
53.666042448231046
 11
-36.08894895149188
 21
53.901593364073186
  0
LINE
  8
0
 10
-36.08894895149188
 20
53.901593364073186
 11
-37.15051934933693
 21
53.25806315041938
  0
LINE
  8
0
 10
-37.15051934933693
 20
53.25806315041938
 11
-38.12108145170986
 21
52.484065701519334
  0
LINE
  8
0
 10
-38.12108145170986
 20
52.484065701519334
 11
-38.016539269362866
 21
52.08610598562468
  0
LINE
  8
0
 10
-38.016539269362866
 20
52.08610598562468
 11
-37.752205427632326
 21
51.23047704077606
  0
LINE
  8
0
 10
-37.752205427632326
 20
51.23047704077606
 11
-37.48867836084679
 21
50.4910905530712
  0
LINE
  8
0
 10
-37.48867836084679
 20
50.4910905530712
 11
-37.23534142331551
 21
49.86612435183329
  0
LINE
  8
0
 10
-37.23534142331551
 20
49.86612435183329
 11
-37.00141565274869
 21
49.35316977735804
  0
LINE
  8
0
 10
-37.00141565274869
 20
49.35316977735804
 11
-36.795926928082736
 21
48.94924256590243
  0
LINE
  8
0
 10
-36.795926928082736
 20
48.94924256590243
 11
-36.62767377549702
 21
48.6507954637445
  0
LINE
  8
0
 10
-36.62767377549702
 20
48.6507954637445
 11
-36.42920804367719
 21
48.3314705114206
  0
LINE
  8
0
 10
-36.42920804367719
 20
48.3314705114206
 11
-36.266056836499224
 21
48.00936006787498
  0
LINE
  8
0
 10
-36.266056836499224
 20
48.00936006787498
 11
-36.19344182077522
 21
47.76494337997938
  0
LINE
  8
0
 10
-36.19344182077522
 20
47.76494337997938
 11
-36.20428533991393
 21
47.605215118789644
  0
LINE
  8
0
 10
-36.20428533991393
 20
47.605215118789644
 11
-38.35544159766959
 21
45.889725247901566
  0
LINE
  8
0
 10
-38.35544159766959
 20
45.889725247901566
 11
-38.51357804787353
 21
45.914696480286466
  0
LINE
  8
0
 10
-38.51357804787353
 20
45.914696480286466
 11
-38.73570833798854
 21
46.03987871562371
  0
LINE
  8
0
 10
-38.73570833798854
 20
46.03987871562371
 11
-39.0134382412087
 21
46.27061569814285
  0
LINE
  8
0
 10
-39.0134382412087
 20
46.27061569814285
 11
-39.28059427028496
 21
46.53516196633436
  0
LINE
  8
0
 10
-39.28059427028496
 20
46.53516196633436
 11
-39.53411883183096
 21
46.76560738900899
  0
LINE
  8
0
 10
-39.53411883183096
 20
46.76560738900899
 11
-39.8821932018392
 21
47.0558263426683
  0
LINE
  8
0
 10
-39.8821932018392
 20
47.0558263426683
 11
-40.33023355323374
 21
47.39803023676213
  0
LINE
  8
0
 10
-40.33023355323374
 20
47.39803023676213
 11
-40.88315777504839
 21
47.78408355114033
  0
LINE
  8
0
 10
-40.88315777504839
 20
47.78408355114033
 11
-41.545366010775226
 21
48.20553241596192
  0
LINE
  8
0
 10
-41.545366010775226
 20
48.20553241596192
 11
-42.32072273824078
 21
48.653634208327105
  0
LINE
  8
0
 10
-42.32072273824078
 20
48.653634208327105
 11
-42.68544194913666
 21
48.84410966755539
  0
LINE
  8
0
 10
-42.68544194913666
 20
48.84410966755539
 11
-43.65600405150952
 21
48.07011221865526
  0
LINE
  8
0
 10
-43.65600405150952
 20
48.07011221865526
 11
-44.519621255521855
 21
47.1783565512215
  0
LINE
  8
0
 10
-44.519621255521855
 20
47.1783565512215
 11
-44.365047404113426
 21
46.79703263664806
  0
LINE
  8
0
 10
-44.365047404113426
 20
46.79703263664806
 11
-43.9934683386472
 21
45.98223065502674
  0
LINE
  8
0
 10
-43.9934683386472
 20
45.98223065502674
 11
-43.6375541800016
 21
45.282613613492806
  0
LINE
  8
0
 10
-43.6375541800016
 20
45.282613613492806
 11
-43.306378231262464
 21
44.695174384649334
  0
LINE
  8
0
 10
-43.306378231262464
 20
44.695174384649334
 11
-43.00877781298141
 21
44.21634492372477
  0
LINE
  8
0
 10
-43.00877781298141
 20
44.21634492372477
 11
-42.753323082576344
 21
43.84201126396008
  0
LINE
  8
0
 10
-42.753323082576344
 20
43.84201126396008
 11
-42.54828671771064
 21
43.56753014398249
  0
LINE
  8
0
 10
-42.54828671771064
 20
43.56753014398249
 11
-42.31061601824739
 21
43.27620607957982
  0
LINE
  8
0
 10
-42.31061601824739
 20
43.27620607957982
 11
-42.107613710955526
 21
42.977603471622416
  0
LINE
  8
0
 10
-42.107613710955526
 20
42.977603471622416
 11
-42.00433955119042
 21
42.744479243462266
  0
LINE
  8
0
 10
-42.00433955119042
 20
42.744479243462266
 11
-41.99466844850515
 21
42.58467571063881
  0
LINE
  8
0
 10
-41.99466844850515
 20
42.58467571063881
 11
-43.908791767532904
 21
40.60818623129543
  0
LINE
  8
0
 10
-43.908791767532904
 20
40.60818623129543
 11
-44.06882316998777
 21
40.61273040979669
  0
LINE
  8
0
 10
-44.06882316998777
 20
40.61273040979669
 11
-44.30513772243975
 21
40.708479509688175
  0
LINE
  8
0
 10
-44.30513772243975
 20
40.708479509688175
 11
-44.6100934574138
 21
40.90180683303165
  0
LINE
  8
0
 10
-44.6100934574138
 20
40.90180683303165
 11
-44.90888556509486
 21
41.130018025293026
  0
LINE
  8
0
 10
-44.90888556509486
 20
41.130018025293026
 11
-45.18979740006993
 21
41.326151492885195
  0
LINE
  8
0
 10
-45.18979740006993
 20
41.326151492885195
 11
-45.57212646037292
 21
41.56947699045495
  0
LINE
  8
0
 10
-45.57212646037292
 20
41.56947699045495
 11
-46.06024846936998
 21
41.851577266852175
  0
LINE
  8
0
 10
-46.06024846936998
 20
41.851577266852175
 11
-46.65800059306832
 21
42.163754708743575
  0
LINE
  8
0
 10
-46.65800059306832
 20
42.163754708743575
 11
-47.36866579296225
 21
42.49706217458191
  0
LINE
  8
0
 10
-47.36866579296225
 20
42.49706217458191
 11
-48.19495883776666
 21
42.84233463982472
  0
LINE
  8
0
 10
-48.19495883776666
 20
42.84233463982472
 11
-48.58104117007938
 21
42.984607040664585
  0
LINE
  8
0
 10
-48.58104117007938
 20
42.984607040664585
 11
-49.444658374091695
 21
42.092851373230786
  0
LINE
  8
0
 10
-49.444658374091695
 20
42.092851373230786
 11
-50.18715010912953
 21
41.09798009066863
  0
LINE
  8
0
 10
-50.18715010912953
 20
41.09798009066863
 11
-49.9850826870264
 21
40.739553305551475
  0
LINE
  8
0
 10
-49.9850826870264
 20
40.739553305551475
 11
-49.51235971580657
 21
39.97895731316926
  0
LINE
  8
0
 10
-49.51235971580657
 20
39.97895731316926
 11
-49.06990256594609
 21
39.330597410286266
  0
LINE
  8
0
 10
-49.06990256594609
 20
39.330597410286266
 11
-48.666325505921534
 21
38.79033088973422
  0
LINE
  8
0
 10
-48.666325505921534
 20
38.79033088973422
 11
-48.3099370305668
 21
38.35348890887078
  0
LINE
  8
0
 10
-48.3099370305668
 20
38.35348890887078
 11
-48.00871085403348
 21
38.01489534914133
  0
LINE
  8
0
 10
-48.00871085403348
 20
38.01489534914133
 11
-47.77025796833033
 21
37.76888718374566
  0
LINE
  8
0
 10
-47.77025796833033
 20
37.76888718374566
 11
-47.49728484753808
 21
37.51034754034763
  0
LINE
  8
0
 10
-47.49728484753808
 20
37.51034754034763
 11
-47.257764732405754
 21
37.240155814545794
  0
LINE
  8
0
 10
-47.257764732405754
 20
37.240155814545794
 11
-47.12552718744772
 21
37.022151939502415
  0
LINE
  8
0
 10
-47.12552718744772
 20
37.022151939502415
 11
-47.09550026217719
 21
36.864897104636185
  0
LINE
  8
0
 10
-47.09550026217719
 20
36.864897104636185
 11
-48.7411607904974
 21
34.65986191944531
  0
LINE
  8
0
 10
-48.7411607904974
 20
34.65986191944531
 11
-48.90045943399921
 21
34.64390442877757
  0
LINE
  8
0
 10
-48.90045943399921
 20
34.64390442877757
 11
-49.147077970370155
 21
34.70864819565021
  0
LINE
  8
0
 10
-49.147077970370155
 20
34.70864819565021
 11
-49.47425217236078
 21
34.861391430513564
  0
LINE
  8
0
 10
-49.47425217236078
 20
34.861391430513564
 11
-49.79977420049907
 21
35.0495203253771
  0
LINE
  8
0
 10
-49.79977420049907
 20
35.0495203253771
 11
-50.10346074433913
 21
35.20812133177134
  0
LINE
  8
0
 10
-50.10346074433913
 20
35.20812133177134
 11
-50.51376666233675
 21
35.400557975308544
  0
LINE
  8
0
 10
-50.51376666233675
 20
35.400557975308544
 11
-51.033955379043476
 21
35.61792255526981
  0
LINE
  8
0
 10
-51.033955379043476
 20
35.61792255526981
 11
-51.66672033128013
 21
35.851098179709155
  0
LINE
  8
0
 10
-51.66672033128013
 20
35.851098179709155
 11
-52.41417339240629
 21
36.09079134718996
  0
LINE
  8
0
 10
-52.41417339240629
 20
36.09079134718996
 11
-53.277835045597975
 21
36.32756512097667
  0
LINE
  8
0
 10
-53.277835045597975
 20
36.32756512097667
 11
-53.67894103810474
 21
36.41929835453961
  0
LINE
  8
0
 10
-53.67894103810474
 20
36.41929835453961
 11
-54.42143277314256
 21
35.42442707197753
  0
LINE
  8
0
 10
-54.42143277314256
 20
35.42442707197753
 11
-55.030607345443904
 21
34.342775933242024
  0
LINE
  8
0
 10
-55.030607345443904
 20
34.342775933242024
 11
-54.78436429413054
 21
34.01313163548352
  0
LINE
  8
0
 10
-54.78436429413054
 20
34.01313163548352
 11
-54.21825951527541
 21
33.31923059750752
  0
LINE
  8
0
 10
-54.21825951527541
 20
33.31923059750752
 11
-53.696524508368384
 21
32.732773884955925
  0
LINE
  8
0
 10
-53.696524508368384
 20
32.732773884955925
 11
-53.22717306122652
 21
32.248551234026294
  0
LINE
  8
0
 10
-53.22717306122652
 20
32.248551234026294
 11
-52.81784841771055
 21
31.86086966647259
  0
LINE
  8
0
 10
-52.81784841771055
 20
31.86086966647259
 11
-52.47579692053979
 21
31.563575903668212
  0
LINE
  8
0
 10
-52.47579692053979
 20
31.563575903668212
 11
-52.20784290379006
 21
31.35008014012902
  0
LINE
  8
0
 10
-52.20784290379006
 20
31.35008014012902
 11
-51.90404957276548
 21
31.128570131532495
  0
LINE
  8
0
 10
-51.90404957276548
 20
31.128570131532495
 11
-51.63194456346126
 21
30.89122582855403
  0
LINE
  8
0
 10
-51.63194456346126
 20
30.89122582855403
 11
-51.47291497014262
 21
30.691921924228602
  0
LINE
  8
0
 10
-51.47291497014262
 20
30.691921924228602
 11
-51.42302526356963
 21
30.539797907360555
  0
LINE
  8
0
 10
-51.42302526356963
 20
30.539797907360555
 11
-52.773201300804025
 21
28.14242363310155
  0
LINE
  8
0
 10
-52.773201300804025
 20
28.14242363310155
 11
-52.92915150603051
 21
28.106226494820405
  0
LINE
  8
0
 10
-52.92915150603051
 20
28.106226494820405
 11
-53.18202455677135
 21
28.13890183781208
  0
LINE
  8
0
 10
-53.18202455677135
 20
28.13890183781208
 11
-53.526045034427064
 21
28.248552944501657
  0
LINE
  8
0
 10
-53.526045034427064
 20
28.248552944501657
 11
-53.87295192032012
 21
28.393510470714812
  0
LINE
  8
0
 10
-53.87295192032012
 20
28.393510470714812
 11
-54.19442664837119
 21
28.511974791770896
  0
LINE
  8
0
 10
-54.19442664837119
 20
28.511974791770896
 11
-54.625972212233435
 21
28.650362776908864
  0
LINE
  8
0
 10
-54.625972212233435
 20
28.650362776908864
 11
-55.16968615230289
 21
28.799422540040567
  0
LINE
  8
0
 10
-55.16968615230289
 20
28.799422540040567
 11
-55.827073950055855
 21
28.949767609721054
  0
LINE
  8
0
 10
-55.827073950055855
 20
28.949767609721054
 11
-56.59904171381501
 21
29.091910723660977
  0
LINE
  8
0
 10
-56.59904171381501
 20
29.091910723660977
 11
-57.48589067492578
 21
29.21629798717198
  0
LINE
  8
0
 10
-57.48589067492578
 20
29.21629798717198
 11
-57.89543417831878
 21
29.255985796298987
  0
LINE
  8
0
 10
-57.89543417831878
 20
29.255985796298987
 11
-58.504608750620136
 21
28.17433465756352
  0
LINE
  8
0
 10
-58.504608750620136
 20
28.17433465756352
 11
-58.97046353054939
 21
27.02366434444885
  0
LINE
  8
0
 10
-58.97046353054939
 20
27.02366434444885
 11
-58.684088154120595
 21
26.728215284304678
  0
LINE
  8
0
 10
-58.684088154120595
 20
26.728215284304678
 11
-58.033896992448156
 21
26.112403036594525
  0
LINE
  8
0
 10
-58.033896992448156
 20
26.112403036594525
 11
-57.44145100288384
 21
25.597479117380963
  0
LINE
  8
0
 10
-57.44145100288384
 20
25.597479117380963
 11
-56.91403190641082
 21
25.17725125861495
  0
LINE
  8
0
 10
-56.91403190641082
 20
25.17725125861495
 11
-56.45849219406376
 21
24.845095824992196
  0
LINE
  8
0
 10
-56.45849219406376
 20
24.845095824992196
 11
-56.08123185238257
 21
24.593983414479005
  0
LINE
  8
0
 10
-56.08123185238257
 20
24.593983414479005
 11
-55.78817650213331
 21
24.41650564733119
  0
LINE
  8
0
 10
-55.78817650213331
 20
24.41650564733119
 11
-55.458551238972994
 21
24.23566246175336
  0
LINE
  8
0
 10
-55.458551238972994
 20
24.23566246175336
 11
-55.15832929222692
 21
24.03506276849144
  0
LINE
  8
0
 10
-55.15832929222692
 20
24.03506276849144
 11
-54.975118912073334
 21
23.857731399482926
  0
LINE
  8
0
 10
-54.975118912073334
 20
23.857731399482926
 11
-54.90618561180054
 21
23.713236072764342
  0
LINE
  8
0
 10
-54.90618561180054
 20
23.713236072764342
 11
-55.93870730474537
 21
21.162887528741543
  0
LINE
  8
0
 10
-55.93870730474537
 20
21.162887528741543
 11
-56.088748373638175
 21
21.10704509885684
  0
LINE
  8
0
 10
-56.088748373638175
 20
21.10704509885684
 11
-56.34372377024682
 21
21.107115489738998
  0
LINE
  8
0
 10
-56.34372377024682
 20
21.107115489738998
 11
-56.69894171683549
 21
21.17187400011442
  0
LINE
  8
0
 10
-56.69894171683549
 20
21.17187400011442
 11
-57.06153725900768
 21
21.271279959104334
  0
LINE
  8
0
 10
-57.06153725900768
 20
21.271279959104334
 11
-57.395521565122806
 21
21.347662413945642
  0
LINE
  8
0
 10
-57.395521565122806
 20
21.347662413945642
 11
-57.84122080862179
 21
21.429729413794355
  0
LINE
  8
0
 10
-57.84122080862179
 20
21.429729413794355
 11
-58.3995322041898
 21
21.508036802906854
  0
LINE
  8
0
 10
-58.3995322041898
 20
21.508036802906854
 11
-59.070748557994456
 21
21.57308265594084
  0
LINE
  8
0
 10
-59.070748557994456
 20
21.57308265594084
 11
-59.85455533504789
 21
21.615341730338745
  0
LINE
  8
0
 10
-59.85455533504789
 20
21.615341730338745
 11
-60.750029568654554
 21
21.625300048146062
  0
LINE
  8
0
 10
-60.750029568654554
 20
21.625300048146062
 11
-61.161285889930525
 21
21.61229076010851
  0
LINE
  8
0
 10
-61.161285889930525
 20
21.61229076010851
 11
-61.62714066985975
 21
20.46162044699385
  0
LINE
  8
0
 10
-61.62714066985975
 20
20.46162044699385
 11
-61.94202633480974
 21
19.260824934229365
  0
LINE
  8
0
 10
-61.94202633480974
 20
19.260824934229365
 11
-61.62022090902917
 21
19.004422377098955
  0
LINE
  8
0
 10
-61.62022090902917
 20
19.004422377098955
 11
-60.896619485438585
 21
18.476810539737
  0
LINE
  8
0
 10
-60.896619485438585
 20
18.476810539737
 11
-60.24319045998656
 21
18.041874450379115
  0
LINE
  8
0
 10
-60.24319045998656
 20
18.041874450379115
 11
-59.66636392116519
 21
17.692541513599835
  0
LINE
  8
0
 10
-59.66636392116519
 20
17.692541513599835
 11
-59.172089089469694
 21
17.421366196945176
  0
LINE
  8
0
 10
-59.172089089469694
 20
17.421366196945176
 11
-58.76581450765857
 21
17.22055839756143
  0
LINE
  8
0
 10
-58.76581450765857
 20
17.22055839756143
 11
-58.45246978465891
 21
17.082012806834907
  0
LINE
  8
0
 10
-58.45246978465891
 20
17.082012806834907
 11
-58.10242502707098
 21
16.944805884383282
  0
LINE
  8
0
 10
-58.10242502707098
 20
16.944805884383282
 11
-57.779015778948526
 21
16.784244642255388
  0
LINE
  8
0
 10
-57.779015778948526
 20
16.784244642255388
 11
-57.574632921337
 21
16.631797584740315
  0
LINE
  8
0
 10
-57.574632921337
 20
16.631797584740315
 11
-57.487787910249125
 21
16.497303557441132
  0
LINE
  8
0
 10
-57.487787910249125
 20
16.497303557441132
 11
-58.18570128125182
 21
13.835857396239195
  0
LINE
  8
0
 10
-58.18570128125182
 20
13.835857396239195
 11
-58.32736954360786
 21
13.761286605905806
  0
LINE
  8
0
 10
-58.32736954360786
 20
13.761286605905806
 11
-58.580260597121146
 21
13.728750888862097
  0
LINE
  8
0
 10
-58.580260597121146
 20
13.728750888862097
 11
-58.94084334378031
 21
13.747553469973356
  0
LINE
  8
0
 10
-58.94084334378031
 20
13.747553469973356
 11
-59.31317373345368
 21
13.799775618641641
  0
LINE
  8
0
 10
-59.31317373345368
 20
13.799775618641641
 11
-59.65418360455995
 21
13.832822009471379
  0
LINE
  8
0
 10
-59.65418360455995
 20
13.832822009471379
 11
-60.10671815843943
 21
13.857220486162188
  0
LINE
  8
0
 10
-60.10671815843943
 20
13.857220486162188
 11
-60.670459551826134
 21
13.863489696091182
  0
LINE
  8
0
 10
-60.670459551826134
 20
13.863489696091182
 11
-61.34448310770977
 21
13.842168281370146
  0
LINE
  8
0
 10
-61.34448310770977
 20
13.842168281370146
 11
-62.12725881244777
 21
13.783849423392724
  0
LINE
  8
0
 10
-62.12725881244777
 20
13.783849423392724
 11
-63.01665465639124
 21
13.67921528019327
  0
LINE
  8
0
 10
-63.01665465639124
 20
13.67921528019327
 11
-63.42287097812471
 21
13.613722507141109
  0
LINE
  8
0
 10
-63.42287097812471
 20
13.613722507141109
 11
-63.73775664307463
 21
12.412926994376566
  0
LINE
  8
0
 10
-63.73775664307463
 20
12.412926994376566
 11
-63.896502779132234
 21
11.18172331108402
  0
LINE
  8
0
 10
-63.896502779132234
 20
11.18172331108402
 11
-63.54455134019446
 21
10.968577379866826
  0
LINE
  8
0
 10
-63.54455134019446
 20
10.968577379866826
 11
-62.75942117005603
 21
10.537829324635938
  0
LINE
  8
0
 10
-62.75942117005603
 20
10.537829324635938
 11
-62.055738395249215
 21
10.190022703696531
  0
LINE
  8
0
 10
-62.055738395249215
 20
10.190022703696531
 11
-61.43897588989971
 21
9.917320726068068
  0
LINE
  8
0
 10
-61.43897588989971
 20
9.917320726068068
 11
-60.91408191792725
 21
9.711578217583925
  0
LINE
  8
0
 10
-60.91408191792725
 20
9.711578217583925
 11
-60.48546411338746
 21
9.56437228784387
  0
LINE
  8
0
 10
-60.48546411338746
 20
9.56437228784387
 11
-60.15697512932617
 21
9.467033788308079
  0
LINE
  8
0
 10
-60.15697512932617
 20
9.467033788308079
 11
-59.7922586025527
 21
9.375716062856025
  0
LINE
  8
0
 10
-59.7922586025527
 20
9.375716062856025
 11
-59.45097242396691
 21
9.257829683018942
  0
LINE
  8
0
 10
-59.45097242396691
 20
9.257829683018942
 11
-59.22877304976896
 21
9.132770113467087
  0
LINE
  8
0
 10
-59.22877304976896
 20
9.132770113467087
 11
-59.1254423205471
 21
9.010485773797262
  0
LINE
  8
0
 10
-59.1254423205471
 20
9.010485773797262
 11
-59.477287651350665
 21
6.281642867803477
  0
LINE
  8
0
 10
-59.477287651350665
 20
6.281642867803477
 11
-59.608256918218665
 21
6.189568167337047
  0
LINE
  8
0
 10
-59.608256918218665
 20
6.189568167337047
 11
-59.85491116452947
 21
6.124960577941835
  0
LINE
  8
0
 10
-59.85491116452947
 20
6.124960577941835
 11
-60.21493795252784
 21
6.097498491926904
  0
LINE
  8
0
 10
-60.21493795252784
 20
6.097498491926904
 11
-60.59088953499756
 21
6.101679344036188
  0
LINE
  8
0
 10
-60.59088953499756
 20
6.101679344036188
 11
-60.93332559843914
 21
6.090847050030554
  0
LINE
  8
0
 10
-60.93332559843914
 20
6.090847050030554
 11
-61.38526485783541
 21
6.057176381250722
  0
LINE
  8
0
 10
-61.38526485783541
 20
6.057176381250722
 11
-61.945179630946875
 21
5.991304471742499
  0
LINE
  8
0
 10
-61.945179630946875
 20
5.991304471742499
 11
-62.610942940756274
 21
5.883965886306692
  0
LINE
  8
0
 10
-62.610942940756274
 20
5.883965886306692
 11
-63.379834417748036
 21
5.7260266899896255
  0
LINE
  8
0
 10
-63.379834417748036
 20
5.7260266899896255
 11
-64.24854801685943
 21
5.508518175521969
  0
LINE
  8
0
 10
-64.24854801685943
 20
5.508518175521969
 11
-64.64305427827794
 21
5.391617306978047
  0
LINE
  8
0
 10
-64.64305427827794
 20
5.391617306978047
 11
-64.80180041433555
 21
4.160413623685528
  0
LINE
  8
0
 10
-64.80180041433555
 20
4.160413623685528
 11
-64.80180041433555
 21
2.919018100306156
  0
LINE
  8
0
 10
-64.80180041433555
 20
2.919018100306156
 11
-64.42548199513769
 21
2.7526286453000277
  0
LINE
  8
0
 10
-64.42548199513769
 20
2.7526286453000277
 11
-63.591714894138995
 21
2.425817243358425
  0
LINE
  8
0
 10
-63.591714894138995
 20
2.425817243358425
 11
-62.84933282168535
 21
2.1708510659376876
  0
LINE
  8
0
 10
-62.84933282168535
 20
2.1708510659376876
 11
-62.20276157309423
 21
1.9792578063934465
  0
LINE
  8
0
 10
-62.20276157309423
 20
1.9792578063934465
 11
-61.655867205353125
 21
1.8423263923810735
  0
LINE
  8
0
 10
-61.655867205353125
 20
1.8423263923810735
 11
-61.21194407058543
 21
1.7511394495813144
  0
LINE
  8
0
 10
-61.21194407058543
 20
1.7511394495813144
 11
-60.873704605499235
 21
1.6966063367075626
  0
LINE
  8
0
 10
-60.873704605499235
 20
1.6966063367075626
 11
-60.50030494482671
 21
1.6526772427823835
  0
LINE
  8
0
 10
-60.50030494482671
 20
1.6526772427823835
 11
-60.1467457453946
 21
1.5794014163338936
  0
LINE
  8
0
 10
-60.1467457453946
 20
1.5794014163338936
 11
-59.91037836219152
 21
1.4837828094198364
  0
LINE
  8
0
 10
-59.91037836219152
 20
1.4837828094198364
 11
-59.792258602552764
 21
1.375716062856017
  0
LINE
  8
0
 10
-59.792258602552764
 20
1.375716062856017
 11
-59.79225860255269
 21
-1.375716062856132
  0
LINE
  8
0
 10
-59.79225860255269
 20
-1.375716062856132
 11
-59.91037836219153
 21
-1.4837828094194851
  0
LINE
  8
0
 10
-59.91037836219153
 20
-1.4837828094194851
 11
-60.14674574539455
 21
-1.5794014163345056
  0
LINE
  8
0
 10
-60.14674574539455
 20
-1.5794014163345056
 11
-60.50030494482667
 21
-1.6526772427824887
  0
LINE
  8
0
 10
-60.50030494482667
 20
-1.6526772427824887
 11
-60.87370460550234
 21
-1.6966063367082571
  0
LINE
  8
0
 10
-60.87370460550234
 20
-1.6966063367082571
 11
-61.21194407058467
 21
-1.7511394495811665
  0
LINE
  8
0
 10
-61.21194407058467
 20
-1.7511394495811665
 11
-61.655867205352976
 21
-1.842326392381146
  0
LINE
  8
0
 10
-61.655867205352976
 20
-1.842326392381146
 11
-62.202761573094385
 21
-1.979257806393589
  0
LINE
  8
0
 10
-62.202761573094385
 20
-1.979257806393589
 11
-62.849332821688506
 21
-2.170851065938845
  0
LINE
  8
0
 10
-62.849332821688506
 20
-2.170851065938845
 11
-63.59171489413898
 21
-2.425817243358495
  0
LINE
  8
0
 10
-63.59171489413898
 20
-2.425817243358495
 11
-64.42548199513779
 21
-2.7526286453001423
  0
LINE
  8
0
 10
-64.42548199513779
 20
-2.7526286453001423
 11
-64.80180041433549
 21
-2.9190181003062308
  0
LINE
  8
0
 10
-64.80180041433549
 20
-2.9190181003062308
 11
-64.80180041433547
 21
-4.160413623685574
  0
LINE
  8
0
 10
-64.80180041433547
 20
-4.160413623685574
 11
-64.64305427827794
 21
-5.391617306978125
  0
LINE
  8
0
 10
-64.64305427827794
 20
-5.391617306978125
 11
-64.24854801685932
 21
-5.508518175522069
  0
LINE
  8
0
 10
-64.24854801685932
 20
-5.508518175522069
 11
-63.37983441774804
 21
-5.726026689989696
  0
LINE
  8
0
 10
-63.37983441774804
 20
-5.726026689989696
 11
-62.610942940753006
 21
-5.883965886307437
  0
LINE
  8
0
 10
-62.610942940753006
 20
-5.883965886307437
 11
-61.9451796309467
 21
-5.991304471742619
  0
LINE
  8
0
 10
-61.9451796309467
 20
-5.991304471742619
 11
-61.385264857835544
 21
-6.057176381250813
  0
LINE
  8
0
 10
-61.385264857835544
 20
-6.057176381250813
 11
-60.933325598439914
 21
-6.0908470500305025
  0
LINE
  8
0
 10
-60.933325598439914
 20
-6.0908470500305025
 11
-60.59088953499439
 21
-6.101679344036479
  0
LINE
  8
0
 10
-60.59088953499439
 20
-6.101679344036479
 11
-60.21493795252787
 21
-6.0974984919270145
  0
LINE
  8
0
 10
-60.21493795252787
 20
-6.0974984919270145
 11
-59.85491116452945
 21
-6.124960577942448
  0
LINE
  8
0
 10
-59.85491116452945
 20
-6.124960577942448
 11
-59.60825691821871
 21
-6.189568167336697
  0
LINE
  8
0
 10
-59.60825691821871
 20
-6.189568167336697
 11
-59.47728765135072
 21
-6.2816428678036
  0
LINE
  8
0
 10
-59.47728765135072
 20
-6.2816428678036
 11
-59.125442320547016
 21
-9.010485773797367
  0
LINE
  8
0
 10
-59.125442320547016
 20
-9.010485773797367
 11
-59.22877304976902
 21
-9.132770113466737
  0
LINE
  8
0
 10
-59.22877304976902
 20
-9.132770113466737
 11
-59.450972423966775
 21
-9.25782968301954
  0
LINE
  8
0
 10
-59.450972423966775
 20
-9.25782968301954
 11
-59.79225860255264
 21
-9.375716062856121
  0
LINE
  8
0
 10
-59.79225860255264
 20
-9.375716062856121
 11
-60.15697512932917
 21
-9.467033788309166
  0
LINE
  8
0
 10
-60.15697512932917
 20
-9.467033788309166
 11
-60.48546411338672
 21
-9.564372287843625
  0
LINE
  8
0
 10
-60.48546411338672
 20
-9.564372287843625
 11
-60.91408191792709
 21
-9.711578217583977
  0
LINE
  8
0
 10
-60.91408191792709
 20
-9.711578217583977
 11
-61.43897588989985
 21
-9.91732072606823
  0
LINE
  8
0
 10
-61.43897588989985
 20
-9.91732072606823
 11
-62.05573839525219
 21
-10.19002270369808
  0
LINE
  8
0
 10
-62.05573839525219
 20
-10.19002270369808
 11
-62.759421170056
 21
-10.537829324636006
  0
LINE
  8
0
 10
-62.759421170056
 20
-10.537829324636006
 11
-63.54455134019454
 21
-10.96857737986695
  0
LINE
  8
0
 10
-63.54455134019454
 20
-10.96857737986695
 11
-63.896502779132184
 21
-11.18172331108409
  0
LINE
  8
0
 10
-63.896502779132184
 20
-11.18172331108409
 11
-63.737756643074576
 21
-12.412926994376576
  0
LINE
  8
0
 10
-63.737756643074576
 20
-12.412926994376576
 11
-63.4228709781247
 21
-13.61372250714109
  0
LINE
  8
0
 10
-63.4228709781247
 20
-13.61372250714109
 11
-63.01665465639113
 21
-13.679215280193269
  0
LINE
  8
0
 10
-63.01665465639113
 20
-13.679215280193269
 11
-62.12725881244778
 21
-13.78384942339271
  0
LINE
  8
0
 10
-62.12725881244778
 20
-13.78384942339271
 11
-61.34448310770645
 21
-13.84216828137038
  0
LINE
  8
0
 10
-61.34448310770645
 20
-13.84216828137038
 11
-60.670459551825964
 21
-13.863489696091197
  0
LINE
  8
0
 10
-60.670459551825964
 20
-13.863489696091197
 11
-60.10671815843957
 21
-13.857220486162213
  0
LINE
  8
0
 10
-60.10671815843957
 20
-13.857220486162213
 11
-59.654183604560735
 21
-13.83282200947135
  0
LINE
  8
0
 10
-59.654183604560735
 20
-13.83282200947135
 11
-59.31317373345051
 21
-13.799775618641442
  0
LINE
  8
0
 10
-59.31317373345051
 20
-13.799775618641442
 11
-58.94084334378035
 21
-13.74755346997339
  0
LINE
  8
0
 10
-58.94084334378035
 20
-13.74755346997339
 11
-58.58026059712106
 21
-13.728750888862622
  0
LINE
  8
0
 10
-58.58026059712106
 20
-13.728750888862622
 11
-58.32736954360796
 21
-13.761286605905385
  0
LINE
  8
0
 10
-58.32736954360796
 20
-13.761286605905385
 11
-58.18570128125187
 21
-13.835857396239247
  0
LINE
  8
0
 10
-58.18570128125187
 20
-13.835857396239247
 11
-57.48778791024905
 21
-16.497303557441146
  0
LINE
  8
0
 10
-57.48778791024905
 20
-16.497303557441146
 11
-57.57463292133711
 21
-16.6317975847399
  0
LINE
  8
0
 10
-57.57463292133711
 20
-16.6317975847399
 11
-57.77901577894833
 21
-16.784244642255885
  0
LINE
  8
0
 10
-57.77901577894833
 20
-16.784244642255885
 11
-58.10242502707092
 21
-16.944805884383292
  0
LINE
  8
0
 10
-58.10242502707092
 20
-16.944805884383292
 11
-58.45246978466176
 21
-17.08201280683629
  0
LINE
  8
0
 10
-58.45246978466176
 20
-17.08201280683629
 11
-58.76581450765789
 21
-17.22055839756101
  0
LINE
  8
0
 10
-58.76581450765789
 20
-17.22055839756101
 11
-59.17208908946956
 21
-17.421366196945126
  0
LINE
  8
0
 10
-59.17208908946956
 20
-17.421366196945126
 11
-59.666363921165335
 21
-17.692541513599934
  0
LINE
  8
0
 10
-59.666363921165335
 20
-17.692541513599934
 11
-60.24319045998934
 21
-18.041874450380952
  0
LINE
  8
0
 10
-60.24319045998934
 20
-18.041874450380952
 11
-60.89661948543858
 21
-18.47681053973698
  0
LINE
  8
0
 10
-60.89661948543858
 20
-18.47681053973698
 11
-61.62022090902926
 21
-19.004422377099004
  0
LINE
  8
0
 10
-61.62022090902926
 20
-19.004422377099004
 11
-61.9420263348097
 21
-19.26082493422934
  0
LINE
  8
0
 10
-61.9420263348097
 20
-19.26082493422934
 11
-61.62714066985978
 21
-20.46162044699383
  0
LINE
  8
0
 10
-61.62714066985978
 20
-20.46162044699383
 11
-61.16128588993057
 21
-21.61229076010851
  0
LINE
  8
0
 10
-61.16128588993057
 20
-21.61229076010851
 11
-60.75002956865445
 21
-21.62530004814605
  0
LINE
  8
0
 10
-60.75002956865445
 20
-21.62530004814605
 11
-59.854555335047905
 21
-21.61534173033873
  0
LINE
  8
0
 10
-59.854555335047905
 20
-21.61534173033873
 11
-59.07074855799113
 21
-21.573082655940656
  0
LINE
  8
0
 10
-59.07074855799113
 20
-21.573082655940656
 11
-58.39953220418963
 21
-21.508036802906847
  0
LINE
  8
0
 10
-58.39953220418963
 20
-21.508036802906847
 11
-57.84122080862192
 21
-21.429729413794398
  0
LINE
  8
0
 10
-57.84122080862192
 20
-21.429729413794398
 11
-57.395521565123595
 21
-21.34766241394571
  0
LINE
  8
0
 10
-57.395521565123595
 20
-21.34766241394571
 11
-57.06153725900457
 21
-21.271279959103737
  0
LINE
  8
0
 10
-57.06153725900457
 20
-21.271279959103737
 11
-56.69894171683552
 21
-21.17187400011446
  0
LINE
  8
0
 10
-56.69894171683552
 20
-21.17187400011446
 11
-56.34372377024666
 21
-21.10711548973951
  0
LINE
  8
0
 10
-56.34372377024666
 20
-21.10711548973951
 11
-56.08874837363834
 21
-21.10704509885644
  0
LINE
  8
0
 10
-56.08874837363834
 20
-21.10704509885644
 11
-55.938707304745414
 21
-21.1628875287416
  0
LINE
  8
0
 10
-55.938707304745414
 20
-21.1628875287416
 11
-54.90618561180047
 21
-23.71323607276435
  0
LINE
  8
0
 10
-54.90618561180047
 20
-23.71323607276435
 11
-54.975118912073505
 21
-23.857731399482525
  0
LINE
  8
0
 10
-54.975118912073505
 20
-23.857731399482525
 11
-55.15832929222666
 21
-24.03506276849191
  0
LINE
  8
0
 10
-55.15832929222666
 20
-24.03506276849191
 11
-55.45855123897294
 21
-24.23566246175336
  0
LINE
  8
0
 10
-55.45855123897294
 20
-24.23566246175336
 11
-55.78817650213596
 21
-24.416505647332922
  0
LINE
  8
0
 10
-55.78817650213596
 20
-24.416505647332922
 11
-56.081231852381954
 21
-24.593983414478508
  0
LINE
  8
0
 10
-56.081231852381954
 20
-24.593983414478508
 11
-56.45849219406363
 21
-24.84509582499213
  0
LINE
  8
0
 10
-56.45849219406363
 20
-24.84509582499213
 11
-56.91403190641095
 21
-25.177251258615065
  0
LINE
  8
0
 10
-56.91403190641095
 20
-25.177251258615065
 11
-57.44145100288635
 21
-25.59747911738314
  0
LINE
  8
0
 10
-57.44145100288635
 20
-25.59747911738314
 11
-58.033896992448156
 21
-26.112403036594504
  0
LINE
  8
0
 10
-58.033896992448156
 20
-26.112403036594504
 11
-58.68408815412067
 21
-26.728215284304742
  0
LINE
  8
0
 10
-58.68408815412067
 20
-26.728215284304742
 11
-58.97046353054939
 21
-27.023664344448836
  0
LINE
  8
0
 10
-58.97046353054939
 20
-27.023664344448836
 11
-58.504608750620136
 21
-28.174334657563538
  0
LINE
  8
0
 10
-58.504608750620136
 20
-28.174334657563538
 11
-57.89543417831877
 21
-29.255985796299036
  0
LINE
  8
0
 10
-57.89543417831877
 20
-29.255985796299036
 11
-57.485890674925656
 21
-29.216297987172013
  0
LINE
  8
0
 10
-57.485890674925656
 20
-29.216297987172013
 11
-56.59904171381501
 21
-29.09191072366102
  0
LINE
  8
0
 10
-56.59904171381501
 20
-29.09191072366102
 11
-55.827073950052565
 21
-28.949767609720485
  0
LINE
  8
0
 10
-55.827073950052565
 20
-28.949767609720485
 11
-55.169686152302695
 21
-28.799422540040588
  0
LINE
  8
0
 10
-55.169686152302695
 20
-28.799422540040588
 11
-54.62597221223355
 21
-28.650362776908974
  0
LINE
  8
0
 10
-54.62597221223355
 20
-28.650362776908974
 11
-54.194426648371945
 21
-28.511974791771113
  0
LINE
  8
0
 10
-54.194426648371945
 20
-28.511974791771113
 11
-53.87295192031709
 21
-28.393510470713867
  0
LINE
  8
0
 10
-53.87295192031709
 20
-28.393510470713867
 11
-53.526045034427085
 21
-28.248552944501746
  0
LINE
  8
0
 10
-53.526045034427085
 20
-28.248552944501746
 11
-53.18202455677112
 21
-28.13890183781262
  0
LINE
  8
0
 10
-53.18202455677112
 20
-28.13890183781262
 11
-52.929151506030685
 21
-28.10622649482007
  0
LINE
  8
0
 10
-52.929151506030685
 20
-28.10622649482007
 11
-52.77320130080405
 21
-28.14242363310166
  0
LINE
  8
0
 10
-52.77320130080405
 20
-28.14242363310166
 11
-51.423025263569535
 21
-30.539797907360605
  0
LINE
  8
0
 10
-51.423025263569535
 20
-30.539797907360605
 11
-51.47291497014282
 21
-30.69192192422828
  0
LINE
  8
0
 10
-51.47291497014282
 20
-30.69192192422828
 11
-51.631944563460934
 21
-30.891225828554518
  0
LINE
  8
0
 10
-51.631944563460934
 20
-30.891225828554518
 11
-51.90404957276541
 21
-31.12857013153254
  0
LINE
  8
0
 10
-51.90404957276541
 20
-31.12857013153254
 11
-52.20784290379245
 21
-31.350080140131123
  0
LINE
  8
0
 10
-52.20784290379245
 20
-31.350080140131123
 11
-52.47579692053922
 21
-31.563575903667687
  0
LINE
  8
0
 10
-52.47579692053922
 20
-31.563575903667687
 11
-52.81784841771041
 21
-31.86086966647256
  0
LINE
  8
0
 10
-52.81784841771041
 20
-31.86086966647256
 11
-53.22717306122661
 21
-32.248551234026465
  0
LINE
  8
0
 10
-53.22717306122661
 20
-32.248551234026465
 11
-53.69652450837057
 21
-32.73277388495845
  0
LINE
  8
0
 10
-53.69652450837057
 20
-32.73277388495845
 11
-54.218259515275385
 21
-33.31923059750754
  0
LINE
  8
0
 10
-54.218259515275385
 20
-33.31923059750754
 11
-54.78436429413059
 21
-34.01313163548363
  0
LINE
  8
0
 10
-54.78436429413059
 20
-34.01313163548363
 11
-55.03060734544393
 21
-34.34277593324207
  0
LINE
  8
0
 10
-55.03060734544393
 20
-34.34277593324207
 11
-54.42143277314261
 21
-35.42442707197749
  0
LINE
  8
0
 10
-54.42143277314261
 20
-35.42442707197749
 11
-53.67894103810471
 21
-36.419298354539606
  0
LINE
  8
0
 10
-53.67894103810471
 20
-36.419298354539606
 11
-53.27783504559787
 21
-36.32756512097665
  0
LINE
  8
0
 10
-53.27783504559787
 20
-36.32756512097665
 11
-52.4141733924063
 21
-36.09079134718997
  0
LINE
  8
0
 10
-52.4141733924063
 20
-36.09079134718997
 11
-51.66672033127695
 21
-35.85109817970814
  0
LINE
  8
0
 10
-51.66672033127695
 20
-35.85109817970814
 11
-51.0339553790433
 21
-35.61792255526977
  0
LINE
  8
0
 10
-51.0339553790433
 20
-35.61792255526977
 11
-50.51376666233686
 21
-35.40055797530864
  0
LINE
  8
0
 10
-50.51376666233686
 20
-35.40055797530864
 11
-50.10346074433986
 21
-35.20812133177163
  0
LINE
  8
0
 10
-50.10346074433986
 20
-35.20812133177163
 11
-49.7997742004962
 21
-35.049520325375745
  0
LINE
  8
0
 10
-49.7997742004962
 20
-35.049520325375745
 11
-49.474252172360785
 21
-34.86139143051362
  0
LINE
  8
0
 10
-49.474252172360785
 20
-34.86139143051362
 11
-49.14707797036987
 21
-34.70864819565068
  0
LINE
  8
0
 10
-49.14707797036987
 20
-34.70864819565068
 11
-48.90045943399945
 21
-34.64390442877724
  0
LINE
  8
0
 10
-48.90045943399945
 20
-34.64390442877724
 11
-48.74116079049743
 21
-34.6598619194454
  0
LINE
  8
0
 10
-48.74116079049743
 20
-34.6598619194454
 11
-47.09550026217711
 21
-36.86489710463618
  0
LINE
  8
0
 10
-47.09550026217711
 20
-36.86489710463618
 11
-47.12552718744797
 21
-37.02215193950209
  0
LINE
  8
0
 10
-47.12552718744797
 20
-37.02215193950209
 11
-47.25776473240538
 21
-37.2401558145462
  0
LINE
  8
0
 10
-47.25776473240538
 20
-37.2401558145462
 11
-47.49728484753802
 21
-37.51034754034764
  0
LINE
  8
0
 10
-47.49728484753802
 20
-37.51034754034764
 11
-47.770257968332444
 21
-37.76888718374803
  0
LINE
  8
0
 10
-47.770257968332444
 20
-37.76888718374803
 11
-48.00871085403299
 21
-38.014895349140694
  0
LINE
  8
0
 10
-48.00871085403299
 20
-38.014895349140694
 11
-48.30993703056668
 21
-38.353488908870695
  0
LINE
  8
0
 10
-48.30993703056668
 20
-38.353488908870695
 11
-48.66632550592161
 21
-38.79033088973438
  0
LINE
  8
0
 10
-48.66632550592161
 20
-38.79033088973438
 11
-49.069902565947956
 21
-39.33059741028902
  0
LINE
  8
0
 10
-49.069902565947956
 20
-39.33059741028902
 11
-49.512359715806554
 21
-39.97895731316926
  0
LINE
  8
0
 10
-49.512359715806554
 20
-39.97895731316926
 11
-49.98508268702645
 21
-40.739553305551574
  0
LINE
  8
0
 10
-49.98508268702645
 20
-40.739553305551574
 11
-50.18715010912952
 21
-41.09798009066863
  0
LINE
  8
0
 10
-50.18715010912952
 20
-41.09798009066863
 11
-49.44465837409166
 21
-42.092851373230765
  0
LINE
  8
0
 10
-49.44465837409166
 20
-42.092851373230765
 11
-48.58104117007936
 21
-42.98460704066457
  0
LINE
  8
0
 10
-48.58104117007936
 20
-42.98460704066457
 11
-48.194958837766556
 21
-42.842334639824685
  0
LINE
  8
0
 10
-48.194958837766556
 20
-42.842334639824685
 11
-47.36866579296226
 21
-42.49706217458193
  0
LINE
  8
0
 10
-47.36866579296226
 20
-42.49706217458193
 11
-46.6580005930653
 21
-42.16375470874216
  0
LINE
  8
0
 10
-46.6580005930653
 20
-42.16375470874216
 11
-46.06024846936981
 21
-41.85157726685212
  0
LINE
  8
0
 10
-46.06024846936981
 20
-41.85157726685212
 11
-45.57212646037301
 21
-41.56947699045506
  0
LINE
  8
0
 10
-45.57212646037301
 20
-41.56947699045506
 11
-45.189797400070624
 21
-41.32615149288557
  0
LINE
  8
0
 10
-45.189797400070624
 20
-41.32615149288557
 11
-44.90888556509219
 21
-41.130018025291314
  0
LINE
  8
0
 10
-44.90888556509219
 20
-41.130018025291314
 11
-44.610093457413804
 21
-40.90180683303171
  0
LINE
  8
0
 10
-44.610093457413804
 20
-40.90180683303171
 11
-44.30513772243941
 21
-40.70847950968861
  0
LINE
  8
0
 10
-44.30513772243941
 20
-40.70847950968861
 11
-44.06882316998806
 21
-40.612730409796384
  0
LINE
  8
0
 10
-44.06882316998806
 20
-40.612730409796384
 11
-43.90879176753292
 21
-40.60818623129551
  0
LINE
  8
0
 10
-43.90879176753292
 20
-40.60818623129551
 11
-41.99466844850507
 21
-42.5846757106388
  0
LINE
  8
0
 10
-41.99466844850507
 20
-42.5846757106388
 11
-42.00433955119071
 21
-42.744479243461974
  0
LINE
  8
0
 10
-42.00433955119071
 20
-42.744479243461974
 11
-42.1076137109551
 21
-42.97760347162277
  0
LINE
  8
0
 10
-42.1076137109551
 20
-42.97760347162277
 11
-42.31061601824732
 21
-43.276206079579815
  0
LINE
  8
0
 10
-42.31061601824732
 20
-43.276206079579815
 11
-42.54828671771243
 21
-43.5675301439851
  0
LINE
  8
0
 10
-42.54828671771243
 20
-43.5675301439851
 11
-42.753323082575946
 21
-43.8420112639594
  0
LINE
  8
0
 10
-42.753323082575946
 20
-43.8420112639594
 11
-43.008777812981286
 21
-44.21634492372468
  0
LINE
  8
0
 10
-43.008777812981286
 20
-44.21634492372468
 11
-43.30637823126252
 21
-44.695174384649505
  0
LINE
  8
0
 10
-43.30637823126252
 20
-44.695174384649505
 11
-43.6375541800031
 21
-45.282613613495776
  0
LINE
  8
0
 10
-43.6375541800031
 20
-45.282613613495776
 11
-43.99346833864718
 21
-45.98223065502674
  0
LINE
  8
0
 10
-43.99346833864718
 20
-45.98223065502674
 11
-44.36504740411347
 21
-46.79703263664816
  0
LINE
  8
0
 10
-44.36504740411347
 20
-46.79703263664816
 11
-44.519621255521834
 21
-47.178356551221476
  0
LINE
  8
0
 10
-44.519621255521834
 20
-47.178356551221476
 11
-43.65600405150952
 21
-48.070112218655275
  0
LINE
  8
0
 10
-43.65600405150952
 20
-48.070112218655275
 11
-42.68544194913666
 21
-48.84410966755543
  0
LINE
  8
0
 10
-42.68544194913666
 20
-48.84410966755543
 11
-42.32072273824068
 21
-48.65363420832707
  0
LINE
  8
0
 10
-42.32072273824068
 20
-48.65363420832707
 11
-41.545366010775226
 21
-48.20553241596194
  0
LINE
  8
0
 10
-41.545366010775226
 20
-48.20553241596194
 11
-40.88315777504557
 21
-47.78408355113855
  0
LINE
  8
0
 10
-40.88315777504557
 20
-47.78408355113855
 11
-40.330233553233576
 21
-47.398030236762054
  0
LINE
  8
0
 10
-40.330233553233576
 20
-47.398030236762054
 11
-39.88219320183928
 21
-47.05582634266842
  0
LINE
  8
0
 10
-39.88219320183928
 20
-47.05582634266842
 11
-39.5341188318316
 21
-46.76560738900946
  0
LINE
  8
0
 10
-39.5341188318316
 20
-46.76560738900946
 11
-39.28059427028252
 21
-46.535161966332325
  0
LINE
  8
0
 10
-39.28059427028252
 20
-46.535161966332325
 11
-39.01343824120869
 21
-46.27061569814291
  0
LINE
  8
0
 10
-39.01343824120869
 20
-46.27061569814291
 11
-38.735708337988136
 21
-46.0398787156241
  0
LINE
  8
0
 10
-38.735708337988136
 20
-46.0398787156241
 11
-38.51357804787384
 21
-45.91469648028621
  0
LINE
  8
0
 10
-38.51357804787384
 20
-45.91469648028621
 11
-38.35544159766958
 21
-45.88972524790166
  0
LINE
  8
0
 10
-38.35544159766958
 20
-45.88972524790166
 11
-36.204285339913845
 21
-47.60521511878962
  0
LINE
  8
0
 10
-36.204285339913845
 20
-47.60521511878962
 11
-36.19344182077554
 21
-47.76494337997913
  0
LINE
  8
0
 10
-36.19344182077554
 20
-47.76494337997913
 11
-36.26605683649876
 21
-48.009360067875285
  0
LINE
  8
0
 10
-36.26605683649876
 20
-48.009360067875285
 11
-36.42920804367713
 21
-48.3314705114206
  0
LINE
  8
0
 10
-36.42920804367713
 20
-48.3314705114206
 11
-36.62767377549846
 21
-48.65079546374733
  0
LINE
  8
0
 10
-36.62767377549846
 20
-48.65079546374733
 11
-36.79592692808242
 21
-48.949242565901706
  0
LINE
  8
0
 10
-36.79592692808242
 20
-48.949242565901706
 11
-37.00141565274859
 21
-49.353169777357934
  0
LINE
  8
0
 10
-37.00141565274859
 20
-49.353169777357934
 11
-37.235341423315546
 21
-49.86612435183348
  0
LINE
  8
0
 10
-37.235341423315546
 20
-49.86612435183348
 11
-37.4886783608479
 21
-50.49109055307435
  0
LINE
  8
0
 10
-37.4886783608479
 20
-50.49109055307435
 11
-37.752205427632305
 21
-51.23047704077606
  0
LINE
  8
0
 10
-37.752205427632305
 20
-51.23047704077606
 11
-38.01653926936289
 21
-52.08610598562479
  0
LINE
  8
0
 10
-38.01653926936289
 20
-52.08610598562479
 11
-38.12108145170982
 21
-52.484065701519334
  0
LINE
  8
0
 10
-38.12108145170982
 20
-52.484065701519334
 11
-37.150519349336996
 21
-53.25806315041941
  0
LINE
  8
0
 10
-37.150519349336996
 20
-53.25806315041941
 11
-36.0889489514919
 21
-53.90159336407323
  0
LINE
  8
0
 10
-36.0889489514919
 20
-53.90159336407323
 11
-35.751581541372474
 21
-53.66604244823099
  0
LINE
  8
0
 10
-35.751581541372474
 20
-53.66604244823099
 11
-35.03989246727495
 21
-53.122469147785694
  0
LINE
  8
0
 10
-35.03989246727495
 20
-53.122469147785694
 11
-34.43701463663553
 21
-52.619799062687505
  0
LINE
  8
0
 10
-34.43701463663553
 20
-52.619799062687505
 11
-33.937997317142774
 21
-52.16620886057359
  0
LINE
  8
0
 10
-33.937997317142774
 20
-52.16620886057359
 11
-33.53739543353414
 21
-51.76952032726366
  0
LINE
  8
0
 10
-33.53739543353414
 20
-51.76952032726366
 11
-33.229291125353654
 21
-51.43717330471078
  0
LINE
  8
0
 10
-33.229291125353654
 20
-51.43717330471078
 11
-33.0073167035255
 21
-51.17619983442011
  0
LINE
  8
0
 10
-33.0073167035255
 20
-51.17619983442011
 11
-32.77618344766769
 21
-50.87966233271079
  0
LINE
  8
0
 10
-32.77618344766769
 20
-50.87966233271079
 11
-32.5302396935336
 21
-50.615304385890155
  0
LINE
  8
0
 10
-32.5302396935336
 20
-50.615304385890155
 11
-32.32594103897892
 21
-50.46274450394999
  0
LINE
  8
0
 10
-32.32594103897892
 20
-50.46274450394999
 11
-32.17229613716597
 21
-50.41775624462715
  0
LINE
  8
0
 10
-32.17229613716597
 20
-50.41775624462715
 11
-29.819428866962774
 21
-51.844078210807105
  0
LINE
  8
0
 10
-29.819428866962774
 20
-51.844078210807105
 11
-29.78824877628499
 21
-52.00110846673013
  0
LINE
  8
0
 10
-29.78824877628499
 20
-52.00110846673013
 11
-29.829012311416406
 21
-52.252804299103644
  0
LINE
  8
0
 10
-29.829012311416406
 20
-52.252804299103644
 11
-29.949633480169606
 21
-52.593133533659426
  0
LINE
  8
0
 10
-29.949633480169606
 20
-52.593133533659426
 11
-30.105635442517546
 21
-52.93521606701862
  0
LINE
  8
0
 10
-30.105635442517546
 20
-52.93521606701862
 11
-30.234342670708127
 21
-53.252728658186726
  0
LINE
  8
0
 10
-30.234342670708127
 20
-53.252728658186726
 11
-30.38649127045715
 21
-53.67961694768896
  0
LINE
  8
0
 10
-30.38649127045715
 20
-53.67961694768896
 11
-30.55290133862435
 21
-54.218273935783714
  0
LINE
  8
0
 10
-30.55290133862435
 20
-54.218273935783714
 11
-30.724239479438065
 21
-54.870505181672954
  0
LINE
  8
0
 10
-30.724239479438065
 20
-54.870505181672954
 11
-30.891052347211808
 21
-55.63752040985877
  0
LINE
  8
0
 10
-30.891052347211808
 20
-55.63752040985877
 11
-31.043800610833365
 21
-56.51992691431554
  0
LINE
  8
0
 10
-31.043800610833365
 20
-56.51992691431554
 11
-31.096594544374977
 21
-56.92798794399848
  0
LINE
  8
0
 10
-31.096594544374977
 20
-56.92798794399848
 11
-30.035024146529867
 21
-57.5715181576523
  0
LINE
  8
0
 10
-30.035024146529867
 20
-57.5715181576523
 11
-28.899876409796455
 21
-58.07401438774302
  0
LINE
  8
0
 10
-28.899876409796455
 20
-58.07401438774302
 11
-28.595400364000692
 21
-57.79725575481283
  0
LINE
  8
0
 10
-28.595400364000692
 20
-57.79725575481283
 11
-27.959064858192082
 21
-57.167136404852776
  0
LINE
  8
0
 10
-27.959064858192082
 20
-57.167136404852776
 11
-27.425416669954554
 21
-56.59149892838002
  0
LINE
  8
0
 10
-27.425416669954554
 20
-56.59149892838002
 11
-26.98850010337102
 21
-56.07781977710724
  0
LINE
  8
0
 10
-26.98850010337102
 20
-56.07781977710724
 11
-26.64191455940165
 21
-55.633160219330925
  0
LINE
  8
0
 10
-26.64191455940165
 20
-55.633160219330925
 11
-26.378839377270687
 21
-55.26414225680619
  0
LINE
  8
0
 10
-26.378839377270687
 20
-55.26414225680619
 11
-26.19205990903306
 21
-54.97692591606917
  0
LINE
  8
0
 10
-26.19205990903306
 20
-54.97692591606917
 11
-26.00074462806244
 21
-54.65326631841977
  0
LINE
  8
0
 10
-26.00074462806244
 20
-54.65326631841977
 11
-25.79062541265822
 21
-54.359628157475555
  0
LINE
  8
0
 10
-25.79062541265822
 20
-54.359628157475555
 11
-25.607512971922784
 21
-54.18219565797683
  0
LINE
  8
0
 10
-25.607512971922784
 20
-54.18219565797683
 11
-25.460882463541186
 21
-54.11792907769001
  0
LINE
  8
0
 10
-25.460882463541186
 20
-54.11792907769001
 11
-22.94493819641874
 21
-55.23166297191007
  0
LINE
  8
0
 10
-22.94493819641874
 20
-55.23166297191007
 11
-22.893933510428383
 21
-55.383416790105684
  0
LINE
  8
0
 10
-22.893933510428383
 20
-55.383416790105684
 11
-22.902176228848106
 21
-55.638258928347504
  0
LINE
  8
0
 10
-22.902176228848106
 20
-55.638258928347504
 11
-22.978286762919964
 21
-55.991218757291264
  0
LINE
  8
0
 10
-22.978286762919964
 20
-55.991218757291264
 11
-23.089263407885664
 21
-56.350441885942544
  0
LINE
  8
0
 10
-23.089263407885664
 20
-56.350441885942544
 11
-23.176311342554282
 21
-56.6818064181555
  0
LINE
  8
0
 10
-23.176311342554282
 20
-56.6818064181555
 11
-23.272621541584652
 21
-57.12464629179208
  0
LINE
  8
0
 10
-23.272621541584652
 20
-57.12464629179208
 11
-23.368783458633445
 21
-57.68016096065352
  0
LINE
  8
0
 10
-23.368783458633445
 20
-57.68016096065352
 11
-23.455309435193264
 21
-58.34894763216552
  0
LINE
  8
0
 10
-23.455309435193264
 20
-58.34894763216552
 11
-23.522669041279283
 21
-59.13099723199394
  0
LINE
  8
0
 10
-23.522669041279283
 20
-59.13099723199394
 11
-23.561323604526105
 21
-60.02569220565099
  0
LINE
  8
0
 10
-23.561323604526105
 20
-60.02569220565099
 11
-23.561502414333226
 21
-60.43715419829647
  0
LINE
  8
0
 10
-23.561502414333226
 20
-60.43715419829647
 11
-22.42635467759981
 21
-60.93965042838715
  0
LINE
  8
0
 10
-22.42635467759981
 20
-60.93965042838715
 11
-21.23626869643237
 21
-61.292861700708805
  0
LINE
  8
0
 10
-21.23626869643237
 20
-61.292861700708805
 11
-20.969683503214533
 21
-60.979439719792005
  0
LINE
  8
0
 10
-20.969683503214533
 20
-60.979439719792005
 11
-20.41915017710777
 21
-60.27312086262295
  0
LINE
  8
0
 10
-20.41915017710777
 20
-60.27312086262295
 11
-19.963494119769486
 21
-59.63396794622497
  0
LINE
  8
0
 10
-19.963494119769486
 20
-59.63396794622497
 11
-19.595852464039268
 21
-59.06863444325578
  0
LINE
  8
0
 10
-19.595852464039268
 20
-59.06863444325578
 11
-19.308974184759272
 21
-58.58330515865849
  0
LINE
  8
0
 10
-19.308974184759272
 20
-58.58330515865849
 11
-19.095247815895313
 21
-58.18367552090451
  0
LINE
  8
0
 10
-19.095247815895313
 20
-58.18367552090451
 11
-18.946730214952883
 21
-57.87493239409551
  0
LINE
  8
0
 10
-18.946730214952883
 20
-57.87493239409551
 11
-18.798374300493787
 21
-57.529465182151384
  0
LINE
  8
0
 10
-18.798374300493787
 20
-57.529465182151384
 11
-18.627529775527307
 21
-57.211368337568224
  0
LINE
  8
0
 10
-18.627529775527307
 20
-57.211368337568224
 11
-18.468610249825588
 21
-57.011976657247324
  0
LINE
  8
0
 10
-18.468610249825588
 20
-57.011976657247324
 11
-18.33140180376914
 21
-56.92948701146809
  0
LINE
  8
0
 10
-18.33140180376914
 20
-56.92948701146809
 11
-15.69369227503656
 21
-57.712345353976
  0
LINE
  8
0
 10
-15.69369227503656
 20
-57.712345353976
 11
-15.623700489267488
 21
-57.8563309409449
  0
LINE
  8
0
 10
-15.623700489267488
 20
-57.8563309409449
 11
-15.599287045766955
 21
-58.11013488419058
  0
LINE
  8
0
 10
-15.599287045766955
 20
-58.11013488419058
 11
-15.6296372122922
 21
-58.46992971688917
  0
LINE
  8
0
 10
-15.6296372122922
 20
-58.46992971688917
 11
-15.693766306433435
 21
-58.84039500699133
  0
LINE
  8
0
 10
-15.693766306433435
 20
-58.84039500699133
 11
-15.7377256228994
 21
-59.180170483791265
  0
LINE
  8
0
 10
-15.7377256228994
 20
-59.180170483791265
 11
-15.77661601040568
 21
-59.63169052308005
  0
LINE
  8
0
 10
-15.77661601040568
 20
-59.63169052308005
 11
-15.800950800316663
 21
-60.19494133720349
  0
LINE
  8
0
 10
-15.800950800316663
 20
-60.19494133720349
 11
-15.801243858479616
 21
-60.86930197568163
  0
LINE
  8
0
 10
-15.801243858479616
 20
-60.86930197568163
 11
-15.768044160008234
 21
-61.653544714344385
  0
LINE
  8
0
 10
-15.768044160008234
 20
-61.653544714344385
 11
-15.691970316020472
 21
-62.545837290469464
  0
LINE
  8
0
 10
-15.691970316020472
 20
-62.545837290469464
 11
-15.639531066040977
 21
-62.95394405153364
  0
LINE
  8
0
 10
-15.639531066040977
 20
-62.95394405153364
 11
-14.44944508487366
 21
-63.3071553238553
  0
LINE
  8
0
 10
-14.44944508487366
 20
-63.3071553238553
 11
-13.22396203818131
 21
-63.505281919081604
  0
LINE
  8
0
 10
-13.22396203818131
 20
-63.505281919081604
 11
-12.999645019043896
 21
-63.160342970439785
  0
LINE
  8
0
 10
-12.999645019043896
 20
-63.160342970439785
 11
-12.543953614633331
 21
-62.389422342169205
  0
LINE
  8
0
 10
-12.543953614633331
 20
-62.389422342169205
 11
-12.173771548058497
 21
-61.69724885906291
  0
LINE
  8
0
 10
-12.173771548058497
 20
-61.69724885906291
 11
-11.881441469004681
 21
-61.08954376488658
  0
LINE
  8
0
 10
-11.881441469004681
 20
-61.08954376488658
 11
-11.658980987828658
 21
-60.57151384690374
  0
LINE
  8
0
 10
-11.658980987828658
 20
-60.57151384690374
 11
-11.498112813299667
 21
-60.14783444152409
  0
LINE
  8
0
 10
-11.498112813299667
 20
-60.14783444152409
 11
-11.390295734553913
 21
-59.82263408224965
  0
LINE
  8
0
 10
-11.390295734553913
 20
-59.82263408224965
 11
-11.287335186620238
 21
-59.461031818079974
  0
LINE
  8
0
 10
-11.287335186620238
 20
-59.461031818079974
 11
-11.1585706144682
 21
-59.12369943125166
  0
LINE
  8
0
 10
-11.1585706144682
 20
-59.12369943125166
 11
-11.026453458018649
 21
-58.90562257598696
  0
LINE
  8
0
 10
-11.026453458018649
 20
-58.90562257598696
 11
-10.900920033178267
 21
-58.80626434241846
  0
LINE
  8
0
 10
-10.900920033178267
 20
-58.80626434241846
 11
-8.184756360373925
 21
-59.24539262087353
  0
LINE
  8
0
 10
-8.184756360373925
 20
-59.24539262087353
 11
-8.096926738013442
 21
-59.379245737258394
  0
LINE
  8
0
 10
-8.096926738013442
 20
-59.379245737258394
 11
-8.040258000659984
 21
-59.627844031776625
  0
LINE
  8
0
 10
-8.040258000659984
 20
-59.627844031776625
 11
-8.024349450743347
 21
-59.98856604702419
  0
LINE
  8
0
 10
-8.024349450743347
 20
-59.98856604702419
 11
-8.040577996107265
 21
-60.364190468755815
  0
LINE
  8
0
 10
-8.040577996107265
 20
-60.364190468755815
 11
-8.04072688360953
 21
-60.7067977862073
  0
LINE
  8
0
 10
-8.04072688360953
 20
-60.7067977862073
 11
-8.021558880504047
 21
-61.159584044586104
  0
LINE
  8
0
 10
-8.021558880504047
 20
-61.159584044586104
 11
-7.973666966699658
 21
-61.721322441175545
  0
LINE
  8
0
 10
-7.973666966699658
 20
-61.721322441175545
 11
-7.887722294458808
 21
-62.39018406357972
  0
LINE
  8
0
 10
-7.887722294458808
 20
-62.39018406357972
 11
-7.754508429561071
 21
-63.16374269698954
  0
LINE
  8
0
 10
-7.754508429561071
 20
-63.16374269698954
 11
-7.564955308753833
 21
-64.03898145615142
  0
LINE
  8
0
 10
-7.564955308753833
 20
-64.03898145615142
 11
-7.460759050022652
 21
-64.43703188390042
  0
LINE
  8
0
 10
-7.460759050022652
 20
-64.43703188390042
 11
-6.235276003330291
 21
-64.63515847912667
  0
LINE
  8
0
 10
-6.235276003330291
 20
-64.63515847912667
 11
-4.994518288859366
 21
-64.67494716404137
  0
LINE
  8
0
 10
-4.994518288859366
 20
-64.67494716404137
 11
-4.816152723055033
 21
-64.3041551356749
  0
LINE
  8
0
 10
-4.816152723055033
 20
-64.3041551356749
 11
-4.462785680602823
 21
-63.481291231705754
  0
LINE
  8
0
 10
-4.462785680602823
 20
-63.481291231705754
 11
-4.1841559840903635
 21
-62.747462651347576
  0
LINE
  8
0
 10
-4.1841559840903635
 20
-62.747462651347576
 11
-3.9719375335291116
 21
-62.107364466809564
  0
LINE
  8
0
 10
-3.9719375335291116
 20
-62.107364466809564
 11
-3.81754764540772
 21
-61.56513995237276
  0
LINE
  8
0
 10
-3.81754764540772
 20
-61.56513995237276
 11
-3.712179116192021
 21
-61.12436758349052
  0
LINE
  8
0
 10
-3.712179116192021
 20
-61.12436758349052
 11
-3.6468329130951846
 21
-60.78804977265927
  0
LINE
  8
0
 10
-3.6468329130951846
 20
-60.78804977265927
 11
-3.590958341037507
 21
-60.41624995544466
  0
LINE
  8
0
 10
-3.590958341037507
 20
-60.41624995544466
 11
-3.5063880324147565
 21
-60.065221014836865
  0
LINE
  8
0
 10
-3.5063880324147565
 20
-60.065221014836865
 11
-3.4032426052737015
 21
-59.83203980056277
  0
LINE
  8
0
 10
-3.4032426052737015
 20
-59.83203980056277
 11
-3.291445457014704
 21
-59.71744443865329
  0
LINE
  8
0
 10
-3.291445457014704
 20
-59.71744443865329
 11
-0.5414269725536504
 21
-59.80563217886363
  0
LINE
  8
0
 10
-0.5414269725536504
 20
-59.80563217886363
 11
-0.43720167357273587
 21
-59.927154960193974
  0
LINE
  8
0
 10
-0.43720167357273587
 20
-59.927154960193974
 11
-0.34920814146700196
 21
-60.166465628861644
  0
LINE
  8
0
 10
-0.34920814146700196
 20
-60.166465628861644
 11
-0.28730209305829996
 21
-60.52219178114052
  0
LINE
  8
0
 10
-0.28730209305829996
 20
-60.52219178114052
 11
-0.2553636173786858
 21
-60.89680759188149
  0
LINE
  8
0
 10
-0.2553636173786858
 20
-60.89680759188149
 11
-0.21169963118857796
 21
-61.23662114730383
  0
LINE
  8
0
 10
-0.21169963118857796
 20
-61.23662114730383
 11
-0.13478797555239708
 21
-61.68323888692804
  0
LINE
  8
0
 10
-0.13478797555239708
 20
-61.68323888692804
 11
-0.015455741933256347
 21
-62.234241137041586
  0
LINE
  8
0
 10
-0.015455741933256347
 20
-62.234241137041586
 11
0.1553154515692706
 21
-62.88662105402359
  0
LINE
  8
0
 10
0.1553154515692706
 20
-62.88662105402359
 11
0.38635611491463695
 21
-63.63679377080606
  0
LINE
  8
0
 10
0.38635611491463695
 20
-63.63679377080606
 11
0.6862760555381786
 21
-64.4806073167766
  0
LINE
  8
0
 10
0.6862760555381786
 20
-64.4806073167766
 11
0.8405184233333478
 21
-64.86206543419149
  0
LINE
  8
0
 10
0.8405184233333478
 20
-64.86206543419149
 11
2.0812761378042715
 21
-64.9018541191062
  0
LINE
  8
0
 10
2.0812761378042715
 20
-64.9018541191062
 11
3.316935312684738
 21
-64.782651564603
  0
LINE
  8
0
 10
3.316935312684738
 20
-64.782651564603
 11
3.446420667496667
 21
-64.39209485136656
  0
LINE
  8
0
 10
3.446420667496667
 20
-64.39209485136656
 11
3.6916610709228155
 21
-63.530799074252705
  0
LINE
  8
0
 10
3.6916610709228155
 20
-63.530799074252705
 11
3.874163305459302
 21
-62.76736484164436
  0
LINE
  8
0
 10
3.874163305459302
 20
-62.76736484164436
 11
4.002785506436865
 21
-62.10538396123831
  0
LINE
  8
0
 10
4.002785506436865
 20
-62.10538396123831
 11
4.086569723809011
 21
-61.54786816188397
  0
LINE
  8
0
 10
4.086569723809011
 20
-61.54786816188397
 11
4.134708459374767
 21
-61.09724029961036
  0
LINE
  8
0
 10
4.134708459374767
 20
-61.09724029961036
 11
4.156510803974429
 21
-60.75532736637816
  0
LINE
  8
0
 10
4.156510803974429
 20
-60.75532736637816
 11
4.164381941227658
 21
-60.37943493883834
  0
LINE
  8
0
 10
4.164381941227658
 20
-60.37943493883834
 11
4.203369344191607
 21
-60.0204733299511
  0
LINE
  8
0
 10
4.203369344191607
 20
-60.0204733299511
 11
4.275849396962121
 21
-59.776016585759336
  0
LINE
  8
0
 10
4.275849396962121
 20
-59.776016585759336
 11
4.3720745625561195
 21
-59.64806574818327
  0
LINE
  8
0
 10
4.3720745625561195
 20
-59.64806574818327
 11
7.110792631187399
 21
-59.38386490989272
  0
LINE
  8
0
 10
7.110792631187399
 20
-59.38386490989272
 11
7.229702230260944
 21
-59.49106195545879
  0
LINE
  8
0
 10
7.229702230260944
 20
-59.49106195545879
 11
7.347575705754488
 21
-59.71715552371247
  0
LINE
  8
0
 10
7.347575705754488
 20
-59.71715552371247
 11
7.4544627570518704
 21
-60.06204479943682
  0
LINE
  8
0
 10
7.4544627570518704
 20
-60.06204479943682
 11
7.534043824887345
 21
-60.429500817931576
  0
LINE
  8
0
 10
7.534043824887345
 20
-60.429500817931576
 11
7.620803723323739
 21
-60.7609408821394
  0
LINE
  8
0
 10
7.620803723323739
 20
-60.7609408821394
 11
7.754196144231409
 21
-61.194056652071794
  0
LINE
  8
0
 10
7.754196144231409
 20
-61.194056652071794
 11
7.943009265688392
 21
-61.72527531399586
  0
LINE
  8
0
 10
7.943009265688392
 20
-61.72527531399586
 11
8.195802922176508
 21
-62.350461465354876
  0
LINE
  8
0
 10
8.195802922176508
 20
-62.350461465354876
 11
8.52087670266484
 21
-63.06493045024007
  0
LINE
  8
0
 10
8.52087670266484
 20
-63.06493045024007
 11
8.92623878597138
 21
-63.863463387922906
  0
LINE
  8
0
 10
8.92623878597138
 20
-63.863463387922906
 11
9.127994607415607
 21
-64.22206566326163
  0
LINE
  8
0
 10
9.127994607415607
 20
-64.22206566326163
 11
10.363653782296073
 21
-64.1028631087585
  0
LINE
  8
0
 10
10.363653782296073
 20
-64.1028631087585
 11
11.57392492809618
 21
-63.82662661748687
  0
LINE
  8
0
 10
11.57392492809618
 20
-63.82662661748687
 11
11.652403925969512
 21
-63.422718149814315
  0
LINE
  8
0
 10
11.652403925969512
 20
-63.422718149814315
 11
11.785490849725377
 21
-62.53713295240416
  0
LINE
  8
0
 10
11.785490849725377
 20
-62.53713295240416
 11
11.868868940640347
 21
-61.75662863653878
  0
LINE
  8
0
 10
11.868868940640347
 20
-61.75662863653878
 11
11.911782919050125
 21
-61.083634768019515
  0
LINE
  8
0
 10
11.911782919050125
 20
-61.083634768019515
 11
11.923585731140115
 21
-60.51998207775969
  0
LINE
  8
0
 10
11.923585731140115
 20
-60.51998207775969
 11
11.913704236348803
 21
-60.06689801913499
  0
LINE
  8
0
 10
11.913704236348803
 20
-60.06689801913499
 11
11.891604728555723
 21
-59.725004164412795
  0
LINE
  8
0
 10
11.891604728555723
 20
-59.725004164412795
 11
11.851343187148418
 21
-59.35119126981585
  0
LINE
  8
0
 10
11.851343187148418
 20
-59.35119126981585
 11
11.844107512374762
 21
-58.990191132343085
  0
LINE
  8
0
 10
11.844107512374762
 20
-58.990191132343085
 11
11.88473207031206
 21
-58.738472831214914
  0
LINE
  8
0
 10
11.88473207031206
 20
-58.738472831214914
 11
11.963805238682292
 21
-58.599267467187865
  0
LINE
  8
0
 10
11.963805238682292
 20
-58.599267467187865
 11
14.64625321651282
 21
-57.98701622085693
  0
LINE
  8
0
 10
14.64625321651282
 20
-57.98701622085693
 11
14.777894623349644
 21
-58.07812735813415
  0
LINE
  8
0
 10
14.777894623349644
 20
-58.07812735813415
 11
14.92371256302218
 21
-58.2872913758338
  0
LINE
  8
0
 10
14.92371256302218
 20
-58.2872913758338
 11
15.073825534780994
 21
-58.61568070263121
  0
LINE
  8
0
 10
15.073825534780994
 20
-58.61568070263121
 11
15.199742475838605
 21
-58.969943311214934
  0
LINE
  8
0
 10
15.199742475838605
 20
-58.969943311214934
 11
15.328173691387569
 21
-59.287567647517115
  0
LINE
  8
0
 10
15.328173691387569
 20
-59.287567647517115
 11
15.515856577703257
 21
-59.70006969878953
  0
LINE
  8
0
 10
15.515856577703257
 20
-59.70006969878953
 11
15.771050280763781
 21
-60.202782176781646
  0
LINE
  8
0
 10
15.771050280763781
 20
-60.202782176781646
 11
16.10171553538681
 21
-60.79050902319656
  0
LINE
  8
0
 10
16.10171553538681
 20
-60.79050902319656
 11
16.515484730529632
 21
-61.45754271520523
  0
LINE
  8
0
 10
16.515484730529632
 20
-61.45754271520523
 11
17.019632922318117
 21
-62.197683155840245
  0
LINE
  8
0
 10
17.019632922318117
 20
-62.197683155840245
 11
17.265589372401113
 21
-62.52754134965579
  0
LINE
  8
0
 10
17.265589372401113
 20
-62.52754134965579
 11
18.475860518201223
 21
-62.251304858384216
  0
LINE
  8
0
 10
18.475860518201223
 20
-62.251304858384216
 11
19.640871016166706
 21
-61.82257022589397
  0
LINE
  8
0
 10
19.640871016166706
 20
-61.82257022589397
 11
19.667055034126033
 21
-61.4119421696578
  0
LINE
  8
0
 10
19.667055034126033
 20
-61.4119421696578
 11
19.68580319460293
 21
-60.516608836409496
  0
LINE
  8
0
 10
19.68580319460293
 20
-60.516608836409496
 11
19.668688075948673
 21
-59.73185029657539
  0
LINE
  8
0
 10
19.668688075948673
 20
-59.73185029657539
 11
19.6251891854516
 21
-59.05889398065808
  0
LINE
  8
0
 10
19.6251891854516
 20
-59.05889398065808
 11
19.564816790411225
 21
-58.49835956108382
  0
LINE
  8
0
 10
19.564816790411225
 20
-58.49835956108382
 11
19.497077319134128
 21
-58.05025893382444
  0
LINE
  8
0
 10
19.497077319134128
 20
-58.05025893382444
 11
19.431438832255292
 21
-57.713998045254634
  0
LINE
  8
0
 10
19.431438832255292
 20
-57.713998045254634
 11
19.34370570558427
 21
-57.348402680995235
  0
LINE
  8
0
 10
19.34370570558427
 20
-57.348402680995235
 11
19.29036576265275
 21
-56.99129162721385
  0
LINE
  8
0
 10
19.29036576265275
 20
-56.99129162721385
 11
19.29846777163863
 21
-56.73644497669467
  0
LINE
  8
0
 10
19.29846777163863
 20
-56.73644497669467
 11
19.359090563546555
 21
-56.58827083444544
  0
LINE
  8
0
 10
19.359090563546555
 20
-56.58827083444544
 11
21.94122272894063
 21
-55.63802232861226
  0
LINE
  8
0
 10
21.94122272894063
 20
-55.63802232861226
 11
22.08343439527989
 21
-55.711551515245425
  0
LINE
  8
0
 10
22.08343439527989
 20
-55.711551515245425
 11
22.254802472593358
 21
-55.900351515003095
  0
LINE
  8
0
 10
22.254802472593358
 20
-55.900351515003095
 11
22.445676513967413
 21
-56.20684874920636
  0
LINE
  8
0
 10
22.445676513967413
 20
-56.20684874920636
 11
22.61586177555616
 21
-56.54210096564022
  0
LINE
  8
0
 10
22.61586177555616
 20
-56.54210096564022
 11
22.78385547120905
 21
-56.840694191215874
  0
LINE
  8
0
 10
22.78385547120905
 20
-56.840694191215874
 11
23.022747075128226
 21
-57.22580925155065
  0
LINE
  8
0
 10
23.022747075128226
 20
-57.22580925155065
 11
23.340131086243247
 21
-57.69176102062044
  0
LINE
  8
0
 10
23.340131086243247
 20
-57.69176102062044
 11
23.743238424662014
 21
-58.232378103521704
  0
LINE
  8
0
 10
23.743238424662014
 20
-58.232378103521704
 11
24.238908955714354
 21
-58.8410238278722
  0
LINE
  8
0
 10
24.238908955714354
 20
-58.8410238278722
 11
24.833565156613542
 21
-59.510618685886456
  0
LINE
  8
0
 10
24.833565156613542
 20
-59.510618685886456
 11
25.11968363722479
 21
-59.80631653575589
  0
LINE
  8
0
 10
25.11968363722479
 20
-59.80631653575589
 11
26.28469413519015
 21
-59.377581903265636
  0
LINE
  8
0
 10
26.28469413519015
 20
-59.377581903265636
 11
27.38531454515288
 21
-58.80338894036918
  0
LINE
  8
0
 10
27.38531454515288
 20
-58.80338894036918
 11
27.35877364234718
 21
-58.39278379690032
  0
LINE
  8
0
 10
27.35877364234718
 20
-58.39278379690032
 11
27.262875195268403
 21
-57.50240367639298
  0
LINE
  8
0
 10
27.262875195268403
 20
-57.50240367639298
 11
27.145547896820045
 21
-56.7262766261184
  0
LINE
  8
0
 10
27.145547896820045
 20
-56.7262766261184
 11
27.01635038799549
 21
-56.06440778690553
  0
LINE
  8
0
 10
27.01635038799549
 20
-56.06440778690553
 11
26.884794098882224
 21
-55.51619559768942
  0
LINE
  8
0
 10
26.884794098882224
 20
-55.51619559768942
 11
26.760308931364964
 21
-55.08043620170656
  0
LINE
  8
0
 10
26.760308931364964
 20
-55.08043620170656
 11
26.65220924754025
 21
-54.75532967378303
  0
LINE
  8
0
 10
26.65220924754025
 20
-54.75532967378303
 11
26.518445111119934
 21
-54.403954905634876
  0
LINE
  8
0
 10
26.518445111119934
 20
-54.403954905634876
 11
26.419876740418825
 21
-54.05659668917511
  0
LINE
  8
0
 10
26.419876740418825
 20
-54.05659668917511
 11
26.395323165689735
 21
-53.80280626422083
  0
LINE
  8
0
 10
26.395323165689735
 20
-53.80280626422083
 11
26.43650015656823
 21
-53.648096359068624
  0
LINE
  8
0
 10
26.43650015656823
 20
-53.648096359068624
 11
28.87591797075698
 21
-52.37545364792796
  0
LINE
  8
0
 10
28.87591797075698
 20
-52.37545364792796
 11
29.026364784969044
 21
-52.4301935367054
  0
LINE
  8
0
 10
29.026364784969044
 20
-52.4301935367054
 11
29.22046914083167
 21
-52.59552942774471
  0
LINE
  8
0
 10
29.22046914083167
 20
-52.59552942774471
 11
29.448970105338613
 21
-52.875101893241784
  0
LINE
  8
0
 10
29.448970105338613
 20
-52.875101893241784
 11
29.66062925016823
 21
-53.1858388854005
  0
LINE
  8
0
 10
29.66062925016823
 20
-53.1858388854005
 11
29.865426974086866
 21
-53.46049810774072
  0
LINE
  8
0
 10
29.865426974086866
 20
-53.46049810774072
 11
30.151604702077687
 21
-53.811902598494235
  0
LINE
  8
0
 10
30.151604702077687
 20
-53.811902598494235
 11
30.52596758455925
 21
-54.23344274347551
  0
LINE
  8
0
 10
30.52596758455925
 20
-54.23344274347551
 11
30.994897995421418
 21
-54.71807314530803
  0
LINE
  8
0
 10
30.994897995421418
 20
-54.71807314530803
 11
31.56433096596695
 21
-55.25833695603345
  0
LINE
  8
0
 10
31.56433096596695
 20
-55.25833695603345
 11
32.23973093759823
 21
-55.84639150237032
  0
LINE
  8
0
 10
32.23973093759823
 20
-55.84639150237032
 11
32.561313391196286
 21
-56.10307365777381
  0
LINE
  8
0
 10
32.561313391196286
 20
-56.10307365777381
 11
33.661933801158995
 21
-55.52888069487729
  0
LINE
  8
0
 10
33.661933801158995
 20
-55.52888069487729
 11
34.68009196641559
 21
-54.81865763415085
  0
LINE
  8
0
 10
34.68009196641559
 20
-54.81865763415085
 11
34.60126194373521
 21
-54.41481752855334
  0
LINE
  8
0
 10
34.60126194373521
 20
-54.41481752855334
 11
34.39229153895054
 21
-53.54401063774982
  0
LINE
  8
0
 10
34.39229153895054
 20
-53.54401063774982
 11
34.17667857170492
 21
-52.78925906174308
  0
LINE
  8
0
 10
34.17667857170492
 20
-52.78925906174308
 11
33.963903864075924
 21
-52.14934556727616
  0
LINE
  8
0
 10
33.963903864075924
 20
-52.14934556727616
 11
33.76332383151994
 21
-51.622457237408995
  0
LINE
  8
0
 10
33.76332383151994
 20
-51.622457237408995
 11
33.584137010771556
 21
-51.20619422993747
  0
LINE
  8
0
 10
33.584137010771556
 20
-51.20619422993747
 11
33.435351123820794
 21
-50.89758030286067
  0
LINE
  8
0
 10
33.435351123820794
 20
-50.89758030286067
 11
33.2577523810731
 21
-50.56619569480248
  0
LINE
  8
0
 10
33.2577523810731
 20
-50.56619569480248
 11
33.11557407252424
 21
-50.23429392797535
  0
LINE
  8
0
 10
33.11557407252424
 20
-50.23429392797535
 11
33.05876808309841
 21
-49.9857269603473
  0
LINE
  8
0
 10
33.05876808309841
 20
-49.9857269603473
 11
33.07982314789565
 21
-49.827021624657554
  0
LINE
  8
0
 10
33.07982314789565
 20
-49.827021624657554
 11
35.33647143781143
 21
-48.25288146634223
  0
LINE
  8
0
 10
35.33647143781143
 20
-48.25288146634223
 11
35.492683067366265
 21
-48.28793322980357
  0
LINE
  8
0
 10
35.492683067366265
 20
-48.28793322980357
 11
35.7063365136211
 21
-48.42709020136461
  0
LINE
  8
0
 10
35.7063365136211
 20
-48.42709020136461
 11
35.96871242174097
 21
-48.67514732600123
  0
LINE
  8
0
 10
35.96871242174097
 20
-48.67514732600123
 11
36.21837001250499
 21
-48.95626680106434
  0
LINE
  8
0
 10
36.21837001250499
 20
-48.95626680106434
 11
36.456608991724565
 21
-49.20248212333166
  0
LINE
  8
0
 10
36.456608991724565
 20
-49.20248212333166
 11
36.785373813405236
 21
-49.51440599248086
  0
LINE
  8
0
 10
36.785373813405236
 20
-49.51440599248086
 11
37.21056853907281
 21
-49.884612835847115
  0
LINE
  8
0
 10
37.21056853907281
 20
-49.884612835847115
 11
37.737622197996316
 21
-50.30529893881116
  0
LINE
  8
0
 10
37.737622197996316
 20
-50.30529893881116
 11
38.371467534401496
 21
-50.76830971907579
  0
LINE
  8
0
 10
38.371467534401496
 20
-50.76830971907579
 11
39.11652122790314
 21
-51.26516811434204
  0
LINE
  8
0
 10
39.11652122790314
 20
-51.26516811434204
 11
39.468287279490504
 21
-51.47861986138417
  0
LINE
  8
0
 10
39.468287279490504
 20
-51.47861986138417
 11
40.486445444747126
 21
-50.768396800657754
  0
LINE
  8
0
 10
40.486445444747126
 20
-50.768396800657754
 11
41.40542323637269
 21
-49.933805485123415
  0
LINE
  8
0
 10
41.40542323637269
 20
-49.933805485123415
 11
41.27559848061063
 21
-49.54336146076635
  0
LINE
  8
0
 10
41.27559848061063
 20
-49.54336146076635
 11
40.95698740638933
 21
-48.706426424738865
  0
LINE
  8
0
 10
40.95698740638933
 20
-48.706426424738865
 11
40.646629129307684
 21
-47.98544332301177
  0
LINE
  8
0
 10
40.646629129307684
 20
-47.98544332301177
 11
40.35377097769103
 21
-47.37799253517859
  0
LINE
  8
0
 10
40.35377097769103
 20
-47.37799253517859
 11
40.087460720281555
 21
-46.881079556470176
  0
LINE
  8
0
 10
40.087460720281555
 20
-46.881079556470176
 11
39.85651448894487
 21
-46.49114796458446
  0
LINE
  8
0
 10
39.85651448894487
 20
-46.49114796458446
 11
39.669485459018375
 21
-46.20409407050488
  0
LINE
  8
0
 10
39.669485459018375
 20
-46.20409407050488
 11
39.450968276389226
 21
-45.89814094863936
  0
LINE
  8
0
 10
39.450968276389226
 20
-45.89814094863936
 11
39.267514593888265
 21
-45.58714544928025
  0
LINE
  8
0
 10
39.267514593888265
 20
-45.58714544928025
 11
39.17938894254157
 21
-45.347883401714874
  0
LINE
  8
0
 10
39.17938894254157
 20
-45.347883401714874
 11
39.17997635767569
 21
-45.18778857271197
  0
LINE
  8
0
 10
39.17997635767569
 20
-45.18778857271197
 11
41.21680102078651
 21
-43.337998305102055
  0
LINE
  8
0
 10
41.21680102078651
 20
-43.337998305102055
 11
41.37621247504552
 21
-43.35278639426033
  0
LINE
  8
0
 10
41.37621247504552
 20
-43.35278639426033
 11
41.605906828011825
 21
-43.463479492717276
  0
LINE
  8
0
 10
41.605906828011825
 20
-43.463479492717276
 11
41.89784947458707
 21
-43.675948185364824
  0
LINE
  8
0
 10
41.89784947458707
 20
-43.675948185364824
 11
42.1814061405473
 21
-43.92283416932374
  0
LINE
  8
0
 10
42.1814061405473
 20
-43.92283416932374
 11
42.4491744976155
 21
-44.13656274273354
  0
LINE
  8
0
 10
42.4491744976155
 20
-44.13656274273354
 11
42.815128103703216
 21
-44.40388420897059
  0
LINE
  8
0
 10
42.815128103703216
 20
-44.40388420897059
 11
43.284172986916495
 21
-44.71667896458867
  0
LINE
  8
0
 10
43.284172986916495
 20
-44.71667896458867
 11
43.86069568739298
 21
-45.066513114504055
  0
LINE
  8
0
 10
43.86069568739298
 20
-45.066513114504055
 11
44.548545666757654
 21
-45.44466824009657
  0
LINE
  8
0
 10
44.548545666757654
 20
-45.44466824009657
 11
45.35101932108047
 21
-45.842172083178326
  0
LINE
  8
0
 10
45.35101932108047
 20
-45.842172083178326
 11
45.7271929818152
 21
-46.00888855007389
  0
LINE
  8
0
 10
45.7271929818152
 20
-46.00888855007389
 11
46.64617077344071
 21
-45.17429723453955
  0
LINE
  8
0
 10
46.64617077344071
 20
-45.17429723453955
 11
47.45087860150321
 21
-44.22904163052482
  0
LINE
  8
0
 10
47.45087860150321
 20
-44.22904163052482
 11
47.272190831559904
 21
-43.85840476749377
  0
LINE
  8
0
 10
47.272190831559904
 20
-43.85840476749377
 11
46.849170672932196
 21
-43.06908403639558
  0
LINE
  8
0
 10
46.849170672932196
 20
-43.06908403639558
 11
46.44916316034387
 21
-42.39370793154584
  0
LINE
  8
0
 10
46.44916316034387
 20
-42.39370793154584
 11
46.08103028749263
 21
-41.82869417548873
  0
LINE
  8
0
 10
46.08103028749263
 20
-41.82869417548873
 11
45.75336261229379
 21
-41.369915845311546
  0
LINE
  8
0
 10
45.75336261229379
 20
-41.369915845311546
 11
45.47444910110248
 21
-41.01271833497017
  0
LINE
  8
0
 10
45.47444910110248
 20
-41.01271833497017
 11
45.25224793970095
 21
-40.75193789089257
  0
LINE
  8
0
 10
45.25224793970095
 20
-40.75193789089257
 11
44.9964003632879
 21
-40.476439997022204
  0
LINE
  8
0
 10
44.9964003632879
 20
-40.476439997022204
 11
44.77468361122965
 21
-40.19145730263266
  0
LINE
  8
0
 10
44.77468361122965
 20
-40.19145730263266
 11
44.65668531872085
 21
-39.965428851336235
  0
LINE
  8
0
 10
44.65668531872085
 20
-39.965428851336235
 11
44.63679543885157
 21
-39.80657328168634
  0
LINE
  8
0
 10
44.63679543885157
 20
-39.80657328168634
 11
46.420351870500205
 21
-37.71150640983578
  0
LINE
  8
0
 10
46.420351870500205
 20
-37.71150640983578
 11
46.58034561779163
 21
-37.70578800467584
  0
LINE
  8
0
 10
46.58034561779163
 20
-37.70578800467584
 11
46.82230930254394
 21
-37.7861996524123
  0
LINE
  8
0
 10
46.82230930254394
 20
-37.7861996524123
 11
47.13902499738898
 21
-37.95959118301151
  0
LINE
  8
0
 10
47.13902499738898
 20
-37.95959118301151
 11
47.451824745929706
 21
-38.16818981483519
  0
LINE
  8
0
 10
47.451824745929706
 20
-38.16818981483519
 11
47.74472573182633
 21
-38.345922222120905
  0
LINE
  8
0
 10
47.74472573182633
 20
-38.345922222120905
 11
48.14185917422647
 21
-38.56425187436069
  0
LINE
  8
0
 10
48.14185917422647
 20
-38.56425187436069
 11
48.647052510970525
 21
-38.814498460991025
  0
LINE
  8
0
 10
48.647052510970525
 20
-38.814498460991025
 11
49.26357776619701
 21
-39.08773639078784
  0
LINE
  8
0
 10
49.26357776619701
 20
-39.08773639078784
 11
49.994137910876624
 21
-39.37482656500067
  0
LINE
  8
0
 10
49.994137910876624
 20
-39.37482656500067
 11
50.84085493080223
 21
-39.66644885378412
  0
LINE
  8
0
 10
50.84085493080223
 20
-39.66644885378412
 11
51.23525943957497
 21
-39.78369256075584
  0
LINE
  8
0
 10
51.23525943957497
 20
-39.78369256075584
 11
52.03996726763749
 21
-38.838436956741035
  0
LINE
  8
0
 10
52.03996726763749
 20
-38.838436956741035
 11
52.71719185184749
 21
-37.798038135130795
  0
LINE
  8
0
 10
52.71719185184749
 20
-37.798038135130795
 11
52.49257511596528
 21
-37.45329428046989
  0
LINE
  8
0
 10
52.49257511596528
 20
-37.45329428046989
 11
51.97209185224082
 21
-36.72454847888369
  0
LINE
  8
0
 10
51.97209185224082
 20
-36.72454847888369
 11
51.48900321644372
 21
-36.10586902788115
  0
LINE
  8
0
 10
51.48900321644372
 20
-36.10586902788115
 11
51.05164035395251
 21
-35.59256981385392
  0
LINE
  8
0
 10
51.05164035395251
 20
-35.59256981385392
 11
50.66799555513221
 21
-35.17945925970588
  0
LINE
  8
0
 10
50.66799555513221
 20
-35.17945925970588
 11
50.34569451622906
 21
-34.86086100415338
  0
LINE
  8
0
 10
50.34569451622906
 20
-34.86086100415338
 11
50.09196976027963
 21
-34.630636017759855
  0
LINE
  8
0
 10
50.09196976027963
 20
-34.630636017759855
 11
49.80299280021408
 21
-34.39011701968545
  0
LINE
  8
0
 10
49.80299280021408
 20
-34.39011701968545
 11
49.546653561537646
 21
-34.13582653822858
  0
LINE
  8
0
 10
49.546653561537646
 20
-34.13582653822858
 11
49.40072015656749
 21
-33.92674306412249
  0
LINE
  8
0
 10
49.40072015656749
 20
-33.92674306412249
 11
49.360679572972394
 21
-33.77173515788745
  0
LINE
  8
0
 10
49.360679572972394
 20
-33.77173515788745
 11
50.861681825860245
 21
-31.465792621910783
  0
LINE
  8
0
 10
50.861681825860245
 20
-31.465792621910783
 11
51.01963077327682
 21
-31.43966161848726
  0
LINE
  8
0
 10
51.01963077327682
 20
-31.43966161848726
 11
51.269890752800954
 21
-31.488471458470503
  0
LINE
  8
0
 10
51.269890752800954
 20
-31.488471458470503
 11
51.60617903296251
 21
-31.61993874288261
  0
LINE
  8
0
 10
51.60617903296251
 20
-31.61993874288261
 11
51.94308570086051
 21
-31.786824838803508
  0
LINE
  8
0
 10
51.94308570086051
 20
-31.786824838803508
 11
52.256309889494815
 21
-31.92564271875119
  0
LINE
  8
0
 10
52.256309889494815
 20
-31.92564271875119
 11
52.678102248062515
 21
-32.09139559013999
  0
LINE
  8
0
 10
52.678102248062515
 20
-32.09139559013999
 11
53.21114877771483
 21
-32.27498496574856
  0
LINE
  8
0
 10
53.21114877771483
 20
-32.27498496574856
 11
53.85755326004525
 21
-32.467140116173596
  0
LINE
  8
0
 10
53.85755326004525
 20
-32.467140116173596
 11
54.61882779266161
 21
-32.6584513262832
  0
LINE
  8
0
 10
54.61882779266161
 20
-32.6584513262832
 11
55.495885108131574
 21
-32.83940363084886
  0
LINE
  8
0
 10
55.495885108131574
 20
-32.83940363084886
 11
55.902044353812144
 21
-32.905249439469586
  0
LINE
  8
0
 10
55.902044353812144
 20
-32.905249439469586
 11
56.57926893802207
 21
-31.86485061785944
  0
LINE
  8
0
 10
56.57926893802207
 20
-31.86485061785944
 11
57.11789026942973
 21
-30.746391898541205
  0
LINE
  8
0
 10
57.11789026942973
 20
-30.746391898541205
 11
56.851032768201975
 21
-30.433201736813047
  0
LINE
  8
0
 10
56.851032768201975
 20
-30.433201736813047
 11
56.24163272018159
 21
-29.776996850653603
  0
LINE
  8
0
 10
56.24163272018159
 20
-29.776996850653603
 11
55.6833952632198
 21
-29.225172752979407
  0
LINE
  8
0
 10
55.6833952632198
 20
-29.225172752979407
 11
55.18398389719918
 21
-28.77201643988547
  0
LINE
  8
0
 10
55.18398389719918
 20
-28.77201643988547
 11
54.75066141174761
 21
-28.41135692564462
  0
LINE
  8
0
 10
54.75066141174761
 20
-28.41135692564462
 11
54.39026501928092
 21
-28.13658929942904
  0
LINE
  8
0
 10
54.39026501928092
 20
-28.13658929942904
 11
54.10918282226167
 21
-27.940700058631265
  0
LINE
  8
0
 10
54.10918282226167
 20
-27.940700058631265
 11
53.7918214722387
 21
-27.739109271651692
  0
LINE
  8
0
 10
53.7918214722387
 20
-27.739109271651692
 11
53.505068830156276
 21
-27.51968644580277
  0
LINE
  8
0
 10
53.505068830156276
 20
-27.51968644580277
 11
53.333596535199824
 21
-27.330981093751422
  0
LINE
  8
0
 10
53.333596535199824
 20
-27.330981093751422
 11
53.274062713154564
 21
-27.182366076466185
  0
LINE
  8
0
 10
53.274062713154564
 20
-27.182366076466185
 11
54.46786437178666
 21
-24.703411389052935
  0
LINE
  8
0
 10
54.46786437178666
 20
-24.703411389052935
 11
54.62117500197855
 21
-24.65729685771962
  0
LINE
  8
0
 10
54.62117500197855
 20
-24.65729685771962
 11
54.87562201432952
 21
-24.673703433726544
  0
LINE
  8
0
 10
54.87562201432952
 20
-24.673703433726544
 11
55.22596103554454
 21
-24.76108778277611
  0
LINE
  8
0
 10
55.22596103554454
 20
-24.76108778277611
 11
55.581442624627215
 21
-24.88352107771302
  0
LINE
  8
0
 10
55.581442624627215
 20
-24.88352107771302
 11
55.90984688348138
 21
-24.98114504457176
  0
LINE
  8
0
 10
55.90984688348138
 20
-24.98114504457176
 11
56.34937233935003
 21
-25.091599477543845
  0
LINE
  8
0
 10
56.34937233935003
 20
-25.091599477543845
 11
56.901519452630595
 21
-25.205517109658754
  0
LINE
  8
0
 10
56.901519452630595
 20
-25.205517109658754
 11
57.567189218335905
 21
-25.313434298454453
  0
LINE
  8
0
 10
57.567189218335905
 20
-25.313434298454453
 11
58.346678032110006
 21
-25.405825219679922
  0
LINE
  8
0
 10
58.346678032110006
 20
-25.405825219679922
 11
59.23967438625186
 21
-25.47313630818952
  0
LINE
  8
0
 10
59.23967438625186
 20
-25.47313630818952
 11
59.650919245255075
 21
-25.48650303210211
  0
LINE
  8
0
 10
59.650919245255075
 20
-25.48650303210211
 11
60.18954057666274
 21
-24.36804431278381
  0
LINE
  8
0
 10
60.18954057666274
 20
-24.36804431278381
 11
60.580714507896964
 21
-23.189890757007188
  0
LINE
  8
0
 10
60.580714507896964
 20
-23.189890757007188
 11
60.27599803411651
 21
-22.913396862008856
  0
LINE
  8
0
 10
60.27599803411651
 20
-22.913396862008856
 11
59.58768753374091
 21
-22.340507757365152
  0
LINE
  8
0
 10
59.58768753374091
 20
-22.340507757365152
 11
58.96346749922443
 21
-21.864599949447108
  0
LINE
  8
0
 10
58.96346749922443
 20
-21.864599949447108
 11
58.41020795049748
 21
-21.479027351419283
  0
LINE
  8
0
 10
58.41020795049748
 20
-21.479027351419283
 11
57.934322921645915
 21
-21.17674089633849
  0
LINE
  8
0
 10
57.934322921645915
 20
-21.17674089633849
 11
57.54174887441629
 21
-20.950315576285938
  0
LINE
  8
0
 10
57.54174887441629
 20
-20.950315576285938
 11
57.23792459823135
 21
-20.791978577002148
  0
LINE
  8
0
 10
57.23792459823135
 20
-20.791978577002148
 11
56.89738992284442
 21
-20.632626116266344
  0
LINE
  8
0
 10
56.89738992284442
 20
-20.632626116266344
 11
56.584932347811275
 21
-20.451673862759538
  0
LINE
  8
0
 10
56.584932347811275
 20
-20.451673862759538
 11
56.390736733211114
 21
-20.28644516942657
  0
LINE
  8
0
 10
56.390736733211114
 20
-20.28644516942657
 11
56.31268721642776
 21
-20.146663295566285
  0
LINE
  8
0
 10
56.31268721642776
 20
-20.146663295566285
 11
57.179686090573796
 21
-17.535400824149367
  0
LINE
  8
0
 10
57.179686090573796
 20
-17.535400824149367
 11
57.32584104723174
 21
-17.470059964235844
  0
LINE
  8
0
 10
57.32584104723174
 20
-17.470059964235844
 11
57.58029707950133
 21
-17.453793880741998
  0
LINE
  8
0
 10
57.58029707950133
 20
-17.453793880741998
 11
57.9389342847271
 21
-17.495660445833494
  0
LINE
  8
0
 10
57.9389342847271
 20
-17.495660445833494
 11
58.30715379712952
 21
-17.57163058846841
  0
LINE
  8
0
 10
58.30715379712952
 20
-17.57163058846841
 11
58.645345737352386
 21
-17.626457659401346
  0
LINE
  8
0
 10
58.645345737352386
 20
-17.626457659401346
 11
59.09538729468797
 21
-17.679799995220996
  0
LINE
  8
0
 10
59.09538729468797
 20
-17.679799995220996
 11
59.657568751261635
 21
-17.722175359472338
  0
LINE
  8
0
 10
59.657568751261635
 20
-17.722175359472338
 11
60.33157352119239
 21
-17.74408258938221
  0
LINE
  8
0
 10
60.33157352119239
 20
-17.74408258938221
 11
61.11647743135221
 21
-17.7360361653513
  0
LINE
  8
0
 10
61.11647743135221
 20
-17.7360361653513
 11
62.010749848719165
 21
-17.688600791592417
  0
LINE
  8
0
 10
62.010749848719165
 20
-17.688600791592417
 11
62.420327691829655
 21
-17.649268949559783
  0
LINE
  8
0
 10
62.420327691829655
 20
-17.649268949559783
 11
62.81150162306437
 21
-16.471115393783297
  0
LINE
  8
0
 10
62.81150162306437
 20
-16.471115393783297
 11
63.048805088989575
 21
-15.25261225036255
  0
LINE
  8
0
 10
63.048805088989575
 20
-15.25261225036255
 11
62.71123307873074
 21
-15.017354644205582
  0
LINE
  8
0
 10
62.71123307873074
 20
-15.017354644205582
 11
61.95531416538672
 21
-14.537188144337488
  0
LINE
  8
0
 10
61.95531416538672
 20
-14.537188144337488
 11
61.275361229024824
 21
-14.145011019224434
  0
LINE
  8
0
 10
61.275361229024824
 20
-14.145011019224434
 11
60.677338004085954
 21
-13.833353227662606
  0
LINE
  8
0
 10
60.677338004085954
 20
-13.833353227662606
 11
60.166704450851576
 21
-13.594403366977133
  0
LINE
  8
0
 10
60.166704450851576
 20
-13.594403366977133
 11
59.748398803861235
 21
-13.420038250583001
  0
LINE
  8
0
 10
59.748398803861235
 20
-13.420038250583001
 11
59.42682123472589
 21
-13.301853381963982
  0
LINE
  8
0
 10
59.42682123472589
 20
-13.301853381963982
 11
59.06870480393025
 21
-13.187355810471685
  0
LINE
  8
0
 10
59.06870480393025
 20
-13.187355810471685
 11
58.735672840690086
 21
-13.047845360306884
  0
LINE
  8
0
 10
58.735672840690086
 20
-13.047845360306884
 11
58.52194259306912
 21
-12.908806376268831
  0
LINE
  8
0
 10
58.52194259306912
 20
-12.908806376268831
 11
58.42665895245547
 21
-12.7801528603378
  0
LINE
  8
0
 10
58.42665895245547
 20
-12.7801528603378
 11
58.952618944571434
 21
-10.079459462505634
  0
LINE
  8
0
 10
58.952618944571434
 20
-10.079459462505634
 11
59.08921836734779
 21
-9.995965169125238
  0
LINE
  8
0
 10
59.08921836734779
 20
-9.995965169125238
 11
59.33950525852093
 21
-9.94729351477189
  0
LINE
  8
0
 10
59.33950525852093
 20
-9.94729351477189
 11
59.70055183476271
 21
-9.942954848063982
  0
LINE
  8
0
 10
59.70055183476271
 20
-9.942954848063982
 11
60.07546311627123
 21
-9.971214410755143
  0
LINE
  8
0
 10
60.07546311627123
 20
-9.971214410755143
 11
60.41788963555415
 21
-9.982344326773335
  0
LINE
  8
0
 10
60.41788963555415
 20
-9.982344326773335
 11
60.87105762442727
 21
-9.97769868576112
  0
LINE
  8
0
 10
60.87105762442727
 20
-9.97769868576112
 11
61.43404242031945
 21
-9.947835979839423
  0
LINE
  8
0
 10
61.43404242031945
 20
-9.947835979839423
 11
62.10531505478725
 21
-9.883373534753996
  0
LINE
  8
0
 10
62.10531505478725
 20
-9.883373534753996
 11
62.8827459608278
 21
-9.775021887526846
  0
LINE
  8
0
 10
62.8827459608278
 20
-9.775021887526846
 11
63.76361051305019
 21
-9.613618939025182
  0
LINE
  8
0
 10
63.76361051305019
 20
-9.613618939025182
 11
64.1647960834075
 21
-9.522234358806106
  0
LINE
  8
0
 10
0.3118675362266391
 20
-1.4672214011007085
 11
9.18454765366783e-17
 21
-1.5
  0
LINE
  8
0
 10
9.18454765366783e-17
 20
-1.5
 11
-0.3118675362266384
 21
-1.4672214011007085
  0
LINE
  8
0
 10
-0.3118675362266384
 20
-1.4672214011007085
 11
-0.6101049646137001
 21
-1.3703181864639014
  0
LINE
  8
0
 10
-0.6101049646137001
 20
-1.3703181864639014
 11
-0.8816778784387099
 21
-1.213525491562421
  0
LINE
  8
0
 10
-0.8816778784387099
 20
-1.213525491562421
 11
-1.114717238216091
 21
-1.0036959095382878
  0
LINE
  8
0
 10
-1.114717238216091
 20
-1.0036959095382878
 11
-1.299038105676658
 21
-0.7500000000000003
  0
LINE
  8
0
 10
-1.299038105676658
 20
-0.7500000000000003
 11
-1.4265847744427305
 21
-0.46352549156242095
  0
LINE
  8
0
 10
-1.4265847744427305
 20
-0.46352549156242095
 11
-1.49178284305241
 21
-0.15679269490147957
  0
LINE
  8
0
 10
-1.49178284305241
 20
-0.15679269490147957
 11
-1.4917828430524098
 21
0.15679269490148126
  0
LINE
  8
0
 10
-1.4917828430524098
 20
0.15679269490148126
 11
-1.4265847744427302
 21
0.46352549156242123
  0
LINE
  8
0
 10
-1.4265847744427302
 20
0.46352549156242123
 11
-1.2990381056766576
 21
0.7500000000000006
  0
LINE
  8
0
 10
-1.2990381056766576
 20
0.7500000000000006
 11
-1.114717238216091
 21
1.0036959095382878
  0
LINE
  8
0
 10
-1.114717238216091
 20
1.0036959095382878
 11
-0.8816778784387097
 21
1.2135254915624214
  0
LINE
  8
0
 10
-0.8816778784387097
 20
1.2135254915624214
 11
-0.6101049646137005
 21
1.3703181864639014
  0
LINE
  8
0
 10
-0.6101049646137005
 20
1.3703181864639014
 11
-0.3118675362266387
 21
1.4672214011007085
  0
LINE
  8
0
 10
-0.3118675362266387
 20
1.4672214011007085
 11
7.579792913117722e-16
 21
1.5
  0
LINE
  8
0
 10
7.579792913117722e-16
 20
1.5
 11
0.3118675362266389
 21
1.4672214011007085
  0
LINE
  8
0
 10
0.3118675362266389
 20
1.4672214011007085
 11
0.6101049646136999
 21
1.3703181864639014
  0
LINE
  8
0
 10
0.6101049646136999
 20
1.3703181864639014
 11
0.8816778784387097
 21
1.213525491562421
  0
LINE
  8
0
 10
0.8816778784387097
 20
1.213525491562421
 11
1.1147172382160917
 21
1.003695909538287
  0
LINE
  8
0
 10
1.1147172382160917
 20
1.003695909538287
 11
1.299038105676658
 21
0.7499999999999998
  0
LINE
  8
0
 10
1.299038105676658
 20
0.7499999999999998
 11
1.4265847744427305
 21
0.4635254915624211
  0
LINE
  8
0
 10
1.4265847744427305
 20
0.4635254915624211
 11
1.49178284305241
 21
0.1567926949014801
  0
LINE
  8
0
 10
1.49178284305241
 20
0.1567926949014801
 11
1.4917828430524098
 21
-0.1567926949014801
  0
LINE
  8
0
 10
1.4917828430524098
 20
-0.1567926949014801
 11
1.4265847744427302
 21
-0.46352549156242107
  0
LINE
  8
0
 10
1.4265847744427302
 20
-0.46352549156242107
 11
1.299038105676658
 21
-0.7500000000000001
  0
LINE
  8
0
 10
1.299038105676658
 20
-0.7500000000000001
 11
1.1147172382160913
 21
-1.0036959095382874
  0
LINE
  8
0
 10
1.1147172382160913
 20
-1.0036959095382874
 11
0.8816778784387098
 21
-1.2135254915624212
  0
LINE
  8
0
 10
0.8816778784387098
 20
-1.2135254915624212
 11
0.6101049646137003
 21
-1.3703181864639014
  0
LINE
  8
0
 10
0.6101049646137003
 20
-1.3703181864639014
 11
0.3118675362266391
 21
-1.4672214011007085
  0
ENDSEC
  0
SECTION
  2
OBJECTS
  0
DICTIONARY
  0
ENDSEC
  0
EOF
