0
SECTION
2
HEADER
9
$ACADVER
1
AC1009
9
$INSBASE
10
0.0
20
0.0
30
0.0
9
$EXTMIN
10
0.0
20
0.0
9
$EXTMAX
10
0.0
20
0.0
0
ENDSEC
0
SECTION
2
TABLES
0
TABLE
2
LTYPE
70
1
0
LTYPE
2
CONTINUOUS
70
64
3
Solid line
72
65
73
0
40
0.0
0
ENDTAB
0
TABLE
2
LAYER
70
0
0
ENDTAB
0
TABLE
2
STYLE
70
1
0
STYLE
2
STANDARD
70
0
40
0
41
40
50
50
71
0
42
1
3
ARIAL.TTF
4

0
ENDTAB
0
TABLE
2
VIEW
70
0
0
ENDTAB
0
ENDSEC
0
SECTION
2
BLOCKS
0
ENDSEC
0
SECTION
2
ENTITIES
0
LINE
8
0
10
106.006936086
20
43.9159263379
11
106.29374271
21
45.1105619028
0
LINE
8
0
10
106.29374271
20
45.1105619028
11
106.390136093
21
46.3353559624
0
LINE
8
0
10
106.390136093
20
46.3353559624
11
106.121236207
21
46.4941089562
0
LINE
8
0
10
106.121236207
20
46.4941089562
11
105.277818653
21
46.9342263483
0
LINE
8
0
10
105.277818653
20
46.9342263483
11
104.535745486
21
47.2732963718
0
LINE
8
0
10
104.535745486
20
47.2732963718
11
103.902944036
21
47.5232875917
0
LINE
8
0
10
103.902944036
20
47.5232875917
11
103.386359022
21
47.6967034903
0
LINE
8
0
10
103.386359022
20
47.6967034903
11
102.991919238
21
47.8065120463
0
LINE
8
0
10
102.991919238
20
47.8065120463
11
102.724508937
21
47.8660733439
0
LINE
8
0
10
102.724508937
20
47.8660733439
11
102.395778958
21
47.9214185512
0
LINE
8
0
10
102.395778958
20
47.9214185512
11
101.968223471
21
48.0345236373
0
LINE
8
0
10
101.968223471
20
48.0345236373
11
101.686783788
21
48.169850242
0
LINE
8
0
10
101.686783788
20
48.169850242
11
101.552231315
21
48.312414158
0
LINE
8
0
10
101.552231315
20
48.312414158
11
101.768106192
21
51.0553645367
0
LINE
8
0
10
101.768106192
20
51.0553645367
11
101.92330401
21
51.1751246102
0
LINE
8
0
10
101.92330401
20
51.1751246102
11
102.222448449
21
51.2647582536
0
LINE
8
0
10
102.222448449
20
51.2647582536
11
102.662433551
21
51.3095864145
0
LINE
8
0
10
102.662433551
20
51.3095864145
11
102.995774217
21
51.312825532
0
LINE
8
0
10
102.995774217
20
51.312825532
11
103.269209693
21
51.3298213438
0
LINE
8
0
10
103.269209693
20
51.3298213438
11
103.675971111
21
51.3765739978
0
LINE
8
0
10
103.675971111
20
51.3765739978
11
104.213324331
21
51.4670431585
0
LINE
8
0
10
104.213324331
20
51.4670431585
11
104.877442188
21
51.6149646153
0
LINE
8
0
10
104.877442188
20
51.6149646153
11
105.66342144
21
51.8337743053
0
LINE
8
0
10
105.66342144
20
51.8337743053
11
106.565304653
21
52.1365335481
0
LINE
8
0
10
106.565304653
20
52.1365335481
11
106.855728375
21
52.2512668194
0
LINE
8
0
10
106.855728375
20
52.2512668194
11
106.952121758
21
53.4760608789
0
LINE
8
0
10
106.952121758
20
53.4760608789
11
106.855728375
21
54.7008549384
0
LINE
8
0
10
106.855728375
20
54.7008549384
11
106.565304653
21
54.8155882097
0
LINE
8
0
10
106.565304653
20
54.8155882097
11
105.66342144
21
55.1183474524
0
LINE
8
0
10
105.66342144
20
55.1183474524
11
104.877442188
21
55.3371571425
0
LINE
8
0
10
104.877442188
20
55.3371571425
11
104.213324331
21
55.4850785993
0
LINE
8
0
10
104.213324331
20
55.4850785993
11
103.675971111
21
55.57554776
0
LINE
8
0
10
103.675971111
20
55.57554776
11
103.269209693
21
55.622300414
0
LINE
8
0
10
103.269209693
20
55.622300414
11
102.995774217
21
55.6392962257
0
LINE
8
0
10
102.995774217
20
55.6392962257
11
102.662433551
21
55.6425353432
0
LINE
8
0
10
102.662433551
20
55.6425353432
11
102.222448449
21
55.6873635042
0
LINE
8
0
10
102.222448449
20
55.6873635042
11
101.92330401
21
55.7769971476
0
LINE
8
0
10
101.92330401
20
55.7769971476
11
101.768106192
21
55.8967572211
0
LINE
8
0
10
101.768106192
20
55.8967572211
11
101.552231315
21
58.6397075998
0
LINE
8
0
10
101.552231315
20
58.6397075998
11
101.686783788
21
58.7822715157
0
LINE
8
0
10
101.686783788
20
58.7822715157
11
101.968223471
21
58.9175981205
0
LINE
8
0
10
101.968223471
20
58.9175981205
11
102.395778958
21
59.0307032065
0
LINE
8
0
10
102.395778958
20
59.0307032065
11
102.724508937
21
59.0860484138
0
LINE
8
0
10
102.724508937
20
59.0860484138
11
102.991919238
21
59.1456097114
0
LINE
8
0
10
102.991919238
20
59.1456097114
11
103.386359022
21
59.2554182675
0
LINE
8
0
10
103.386359022
20
59.2554182675
11
103.902944036
21
59.428834166
0
LINE
8
0
10
103.902944036
20
59.428834166
11
104.535745486
21
59.678825386
0
LINE
8
0
10
104.535745486
20
59.678825386
11
105.277818653
21
60.0178954095
0
LINE
8
0
10
105.277818653
20
60.0178954095
11
106.121236207
21
60.4580128016
0
LINE
8
0
10
106.121236207
20
60.4580128016
11
106.390136093
21
60.6167657954
0
LINE
8
0
10
106.390136093
20
60.6167657954
11
106.29374271
21
61.8415598549
0
LINE
8
0
10
106.29374271
20
61.8415598549
11
106.006936086
21
63.0361954198
0
LINE
8
0
10
106.006936086
20
63.0361954198
11
105.702139724
21
63.1040838546
0
LINE
8
0
10
105.702139724
20
63.1040838546
11
104.76399821
21
63.2620300107
0
LINE
8
0
10
104.76399821
20
63.2620300107
11
103.95346629
21
63.3551915465
0
LINE
8
0
10
103.95346629
20
63.3551915465
11
103.274384811
21
63.397400923
0
LINE
8
0
10
103.274384811
20
63.397400923
11
102.729494807
21
63.4026956948
0
LINE
8
0
10
102.729494807
20
63.4026956948
11
102.320427571
21
63.3852412413
0
LINE
8
0
10
102.320427571
20
63.3852412413
11
102.047699808
21
63.3592530739
0
LINE
8
0
10
102.047699808
20
63.3592530739
11
101.71795641
21
63.3103063438
0
LINE
8
0
10
101.71795641
20
63.3103063438
11
101.276375584
21
63.2857537615
0
LINE
8
0
10
101.276375584
20
63.2857537615
11
100.966892319
21
63.3274873659
0
LINE
8
0
10
100.966892319
20
63.3274873659
11
100.794870641
21
63.4214947064
0
LINE
8
0
10
100.794870641
20
63.4214947064
11
100.152561567
21
66.0969045435
0
LINE
8
0
10
100.152561567
20
66.0969045435
11
100.263155565
21
66.2587619051
0
LINE
8
0
10
100.263155565
20
66.2587619051
11
100.519960514
21
66.436449281
0
LINE
8
0
10
100.519960514
20
66.436449281
11
100.924558549
21
66.6150462697
0
LINE
8
0
10
100.924558549
20
66.6150462697
11
101.240583419
21
66.721134784
0
LINE
8
0
10
101.240583419
20
66.721134784
11
101.495384016
21
66.8217949706
0
LINE
8
0
10
101.495384016
20
66.8217949706
11
101.867789749
21
66.9919555777
0
LINE
8
0
10
101.867789749
20
66.9919555777
11
102.350886521
21
67.2440481392
0
LINE
8
0
10
102.350886521
20
67.2440481392
11
102.936789893
21
67.5899535087
0
LINE
8
0
10
102.936789893
20
67.5899535087
11
103.616684669
21
68.0409348364
0
LINE
8
0
10
103.616684669
20
68.0409348364
11
104.380868825
21
68.6075732269
0
LINE
8
0
10
104.380868825
20
68.6075732269
11
104.621623668
21
68.8064369178
0
LINE
8
0
10
104.621623668
20
68.8064369178
11
104.334817044
21
70.0010724827
0
LINE
8
0
10
104.334817044
20
70.0010724827
11
103.86465931
21
71.1361336606
0
LINE
8
0
10
103.86465931
20
71.1361336606
11
103.552995406
21
71.1555056203
0
LINE
8
0
10
103.552995406
20
71.1555056203
11
102.601695748
21
71.1647495312
0
LINE
8
0
10
102.601695748
20
71.1647495312
11
101.786569146
21
71.1299689666
0
LINE
8
0
10
101.786569146
20
71.1299689666
11
101.109245286
21
71.0654269279
0
LINE
8
0
10
101.109245286
20
71.0654269279
11
100.570235497
21
70.9854169359
0
LINE
8
0
10
100.570235497
20
70.9854169359
11
100.168935035
21
70.9041851614
0
LINE
8
0
10
100.168935035
20
70.9041851614
11
99.9036304491
21
70.8358529298
0
LINE
8
0
10
99.9036304491
20
70.8358529298
11
99.5856036947
21
70.7359255831
0
LINE
8
0
10
99.5856036947
20
70.7359255831
11
99.153300332
21
70.6425968236
0
LINE
8
0
10
99.153300332
20
70.6425968236
11
98.8410987454
21
70.635402769
0
LINE
8
0
10
98.8410987454
20
70.635402769
11
98.656488951
21
70.7013426039
0
LINE
8
0
10
98.656488951
20
70.7013426039
11
97.6035614612
21
73.24333443
0
LINE
8
0
10
97.6035614612
20
73.24333443
11
97.6874737943
21
73.4204997719
0
LINE
8
0
10
97.6874737943
20
73.4204997719
11
97.9133206181
21
73.6361726661
0
LINE
8
0
10
97.9133206181
20
73.6361726661
11
98.2849986561
21
73.8758639067
0
LINE
8
0
10
98.2849986561
20
73.8758639067
11
98.5805368352
21
74.0300834768
0
LINE
8
0
10
98.5805368352
20
74.0300834768
11
98.8164536916
21
74.1693639646
0
LINE
8
0
10
98.8164536916
20
74.1693639646
11
99.157655508
21
74.3956867037
0
LINE
8
0
10
99.157655508
20
74.3956867037
11
99.5953685926
21
74.7202485726
0
LINE
8
0
10
99.5953685926
20
74.7202485726
11
100.119947
21
75.1535507536
0
LINE
8
0
10
100.119947
20
75.1535507536
11
100.720922121
21
75.7053387284
0
LINE
8
0
10
100.720922121
20
75.7053387284
11
101.387056128
21
76.3845455997
0
LINE
8
0
10
101.387056128
20
76.3845455997
11
101.593737744
21
76.6186233034
0
LINE
8
0
10
101.593737744
20
76.6186233034
11
101.12358001
21
77.7536844814
0
LINE
8
0
10
101.12358001
20
77.7536844814
11
100.48164801
21
78.8012222991
0
LINE
8
0
10
100.48164801
20
78.8012222991
11
100.170790764
21
78.7716007818
0
LINE
8
0
10
100.170790764
20
78.7716007818
11
99.2297571166
21
78.6319148316
0
LINE
8
0
10
99.2297571166
20
78.6319148316
11
98.4301069546
21
78.4700485796
0
LINE
8
0
10
98.4301069546
20
78.4700485796
11
97.7712186749
21
78.3003443648
0
LINE
8
0
10
97.7712186749
20
78.3003443648
11
97.2513613113
21
78.1369997207
0
LINE
8
0
10
97.2513613113
20
78.1369997207
11
96.8677089734
21
77.993990821
0
LINE
8
0
10
96.8677089734
20
77.993990821
11
96.6163602428
21
77.8849970916
0
LINE
8
0
10
96.6163602428
20
77.8849970916
11
96.3178810066
21
77.7365496711
0
LINE
8
0
10
96.3178810066
20
77.7365496711
11
95.9054998502
21
77.5767427983
0
LINE
8
0
10
95.9054998502
20
77.5767427983
11
95.5982673813
21
77.5207982262
0
LINE
8
0
10
95.5982673813
20
77.5207982262
11
95.405615177
21
77.5570468979
0
LINE
8
0
10
95.405615177
20
77.5570468979
11
93.9679958404
21
79.9030284378
0
LINE
8
0
10
93.9679958404
20
79.9030284378
11
94.0231603079
21
80.0911393613
0
LINE
8
0
10
94.0231603079
20
80.0911393613
11
94.2124879087
21
80.3394871914
0
LINE
8
0
10
94.2124879087
20
80.3394871914
11
94.5420940023
21
80.6343706901
0
LINE
8
0
10
94.5420940023
20
80.6343706901
11
94.80986836
21
80.8329239183
0
LINE
8
0
10
94.80986836
20
80.8329239183
11
95.0210924199
21
81.0073951594
0
LINE
8
0
10
95.0210924199
20
81.0073951594
11
95.3226887991
21
81.2843072137
0
LINE
8
0
10
95.3226887991
20
81.2843072137
11
95.704240247
21
81.6733465996
0
LINE
8
0
10
95.704240247
20
81.6733465996
11
96.1545768289
21
82.1833762543
0
LINE
8
0
10
96.1545768289
20
82.1833762543
11
96.6618342922
21
82.822384025
0
LINE
8
0
10
96.6618342922
20
82.822384025
11
97.2135157208
21
83.5974350497
0
LINE
8
0
10
97.2135157208
20
83.5974350497
11
97.3810349224
21
83.8609629965
0
LINE
8
0
10
97.3810349224
20
83.8609629965
11
96.7391029221
21
84.9085008142
0
LINE
8
0
10
96.7391029221
20
84.9085008142
11
95.9412031518
21
85.842721414
0
LINE
8
0
10
95.9412031518
20
85.842721414
11
95.6388069007
21
85.7648357998
0
LINE
8
0
10
95.6388069007
20
85.7648357998
11
94.7312106362
21
85.4796595203
0
LINE
8
0
10
94.7312106362
20
85.4796595203
11
93.9667269552
21
85.1946932651
0
LINE
8
0
10
93.9667269552
20
85.1946932651
11
93.3424982717
21
84.9240055552
0
LINE
8
0
10
93.3424982717
20
84.9240055552
11
92.854593947
21
84.6813483462
0
LINE
8
0
10
92.854593947
20
84.6813483462
11
92.4980365267
21
84.4800836751
0
LINE
8
0
10
92.4980365267
20
84.4800836751
11
92.2668326918
21
84.3331122352
0
LINE
8
0
10
92.2668326918
20
84.3331122352
11
91.9952505231
21
84.1398000091
0
LINE
8
0
10
91.9952505231
20
84.1398000091
11
91.6129457657
21
83.9174499985
0
LINE
8
0
10
91.6129457657
20
83.9174499985
11
91.3182474975
21
83.81413245
0
LINE
8
0
10
91.3182474975
20
83.81413245
11
91.1222966199
21
83.8197973959
0
LINE
8
0
10
91.1222966199
20
83.8197973959
11
89.3353843958
21
85.9120027983
0
LINE
8
0
10
89.3353843958
20
85.9120027983
11
89.3604426655
21
86.1064273881
0
LINE
8
0
10
89.3604426655
20
86.1064273881
11
89.5085891694
21
86.3813350062
0
LINE
8
0
10
89.5085891694
20
86.3813350062
11
89.7880073227
21
86.7241497526
0
LINE
8
0
10
89.7880073227
20
86.7241497526
11
90.0214243657
21
86.9621475996
0
LINE
8
0
10
90.0214243657
20
86.9621475996
11
90.2027545916
21
87.1675135329
0
LINE
8
0
10
90.2027545916
20
87.1675135329
11
90.4573192298
21
87.4881964086
0
LINE
8
0
10
90.4573192298
20
87.4881964086
11
90.773313978
21
87.9321338708
0
LINE
8
0
10
90.773313978
20
87.9321338708
11
91.1383199531
21
88.5063323763
0
LINE
8
0
10
91.1383199531
20
88.5063323763
11
91.5393693965
21
89.2168254509
0
LINE
8
0
10
91.5393693965
20
89.2168254509
11
91.9630140189
21
90.0686363005
0
LINE
8
0
10
91.9630140189
20
90.0686363005
11
92.0872459277
21
90.3551255577
0
LINE
8
0
10
92.0872459277
20
90.3551255577
11
91.2893461575
21
91.2893461575
0
LINE
8
0
10
91.2893461575
20
91.2893461575
11
90.3551255577
21
92.0872459277
0
LINE
8
0
10
90.3551255577
20
92.0872459277
11
90.0686363005
21
91.9630140189
0
LINE
8
0
10
90.0686363005
20
91.9630140189
11
89.2168254509
21
91.5393693965
0
LINE
8
0
10
89.2168254509
20
91.5393693965
11
88.5063323763
21
91.1383199531
0
LINE
8
0
10
88.5063323763
20
91.1383199531
11
87.9321338708
21
90.773313978
0
LINE
8
0
10
87.9321338708
20
90.773313978
11
87.4881964086
21
90.4573192298
0
LINE
8
0
10
87.4881964086
20
90.4573192298
11
87.1675135329
21
90.2027545916
0
LINE
8
0
10
87.1675135329
20
90.2027545916
11
86.9621475996
21
90.0214243657
0
LINE
8
0
10
86.9621475996
20
90.0214243657
11
86.7241497526
21
89.7880073227
0
LINE
8
0
10
86.7241497526
20
89.7880073227
11
86.3813350062
21
89.5085891694
0
LINE
8
0
10
86.3813350062
20
89.5085891694
11
86.1064273881
21
89.3604426655
0
LINE
8
0
10
86.1064273881
20
89.3604426655
11
85.9120027983
21
89.3353843958
0
LINE
8
0
10
85.9120027983
20
89.3353843958
11
83.8197973959
21
91.1222966199
0
LINE
8
0
10
83.8197973959
20
91.1222966199
11
83.81413245
21
91.3182474975
0
LINE
8
0
10
83.81413245
20
91.3182474975
11
83.9174499985
21
91.6129457657
0
LINE
8
0
10
83.9174499985
20
91.6129457657
11
84.1398000091
21
91.9952505231
0
LINE
8
0
10
84.1398000091
20
91.9952505231
11
84.3331122352
21
92.2668326918
0
LINE
8
0
10
84.3331122352
20
92.2668326918
11
84.4800836751
21
92.4980365267
0
LINE
8
0
10
84.4800836751
20
92.4980365267
11
84.6813483462
21
92.854593947
0
LINE
8
0
10
84.6813483462
20
92.854593947
11
84.9240055552
21
93.3424982717
0
LINE
8
0
10
84.9240055552
20
93.3424982717
11
85.1946932651
21
93.9667269552
0
LINE
8
0
10
85.1946932651
20
93.9667269552
11
85.4796595203
21
94.7312106362
0
LINE
8
0
10
85.4796595203
20
94.7312106362
11
85.7648357998
21
95.6388069007
0
LINE
8
0
10
85.7648357998
20
95.6388069007
11
85.842721414
21
95.9412031518
0
LINE
8
0
10
85.842721414
20
95.9412031518
11
84.9085008142
21
96.7391029221
0
LINE
8
0
10
84.9085008142
20
96.7391029221
11
83.8609629965
21
97.3810349224
0
LINE
8
0
10
83.8609629965
20
97.3810349224
11
83.5974350497
21
97.2135157208
0
LINE
8
0
10
83.5974350497
20
97.2135157208
11
82.822384025
21
96.6618342922
0
LINE
8
0
10
82.822384025
20
96.6618342922
11
82.1833762543
21
96.1545768289
0
LINE
8
0
10
82.1833762543
20
96.1545768289
11
81.6733465996
21
95.704240247
0
LINE
8
0
10
81.6733465996
20
95.704240247
11
81.2843072137
21
95.3226887991
0
LINE
8
0
10
81.2843072137
20
95.3226887991
11
81.0073951594
21
95.0210924199
0
LINE
8
0
10
81.0073951594
20
95.0210924199
11
80.8329239183
21
94.80986836
0
LINE
8
0
10
80.8329239183
20
94.80986836
11
80.6343706901
21
94.5420940023
0
LINE
8
0
10
80.6343706901
20
94.5420940023
11
80.3394871914
21
94.2124879087
0
LINE
8
0
10
80.3394871914
20
94.2124879087
11
80.0911393613
21
94.0231603079
0
LINE
8
0
10
80.0911393613
20
94.0231603079
11
79.9030284378
21
93.9679958404
0
LINE
8
0
10
79.9030284378
20
93.9679958404
11
77.5570468979
21
95.405615177
0
LINE
8
0
10
77.5570468979
20
95.405615177
11
77.5207982262
21
95.5982673813
0
LINE
8
0
10
77.5207982262
20
95.5982673813
11
77.5767427983
21
95.9054998502
0
LINE
8
0
10
77.5767427983
20
95.9054998502
11
77.7365496711
21
96.3178810066
0
LINE
8
0
10
77.7365496711
20
96.3178810066
11
77.8849970916
21
96.6163602428
0
LINE
8
0
10
77.8849970916
20
96.6163602428
11
77.993990821
21
96.8677089734
0
LINE
8
0
10
77.993990821
20
96.8677089734
11
78.1369997207
21
97.2513613113
0
LINE
8
0
10
78.1369997207
20
97.2513613113
11
78.3003443648
21
97.7712186749
0
LINE
8
0
10
78.3003443648
20
97.7712186749
11
78.4700485796
21
98.4301069546
0
LINE
8
0
10
78.4700485796
20
98.4301069546
11
78.6319148316
21
99.2297571166
0
LINE
8
0
10
78.6319148316
20
99.2297571166
11
78.7716007818
21
100.170790764
0
LINE
8
0
10
78.7716007818
20
100.170790764
11
78.8012222991
21
100.48164801
0
LINE
8
0
10
78.8012222991
20
100.48164801
11
77.7536844814
21
101.12358001
0
LINE
8
0
10
77.7536844814
20
101.12358001
11
76.6186233034
21
101.593737744
0
LINE
8
0
10
76.6186233034
20
101.593737744
11
76.3845455997
21
101.387056128
0
LINE
8
0
10
76.3845455997
20
101.387056128
11
75.7053387284
21
100.720922121
0
LINE
8
0
10
75.7053387284
20
100.720922121
11
75.1535507536
21
100.119947
0
LINE
8
0
10
75.1535507536
20
100.119947
11
74.7202485726
21
99.5953685926
0
LINE
8
0
10
74.7202485726
20
99.5953685926
11
74.3956867037
21
99.157655508
0
LINE
8
0
10
74.3956867037
20
99.157655508
11
74.1693639646
21
98.8164536916
0
LINE
8
0
10
74.1693639646
20
98.8164536916
11
74.0300834768
21
98.5805368352
0
LINE
8
0
10
74.0300834768
20
98.5805368352
11
73.8758639067
21
98.2849986561
0
LINE
8
0
10
73.8758639067
20
98.2849986561
11
73.6361726661
21
97.9133206181
0
LINE
8
0
10
73.6361726661
20
97.9133206181
11
73.4204997719
21
97.6874737943
0
LINE
8
0
10
73.4204997719
20
97.6874737943
11
73.24333443
21
97.6035614612
0
LINE
8
0
10
73.24333443
20
97.6035614612
11
70.7013426039
21
98.656488951
0
LINE
8
0
10
70.7013426039
20
98.656488951
11
70.635402769
21
98.8410987454
0
LINE
8
0
10
70.635402769
20
98.8410987454
11
70.6425968236
21
99.153300332
0
LINE
8
0
10
70.6425968236
20
99.153300332
11
70.7359255831
21
99.5856036947
0
LINE
8
0
10
70.7359255831
20
99.5856036947
11
70.8358529298
21
99.9036304491
0
LINE
8
0
10
70.8358529298
20
99.9036304491
11
70.9041851614
21
100.168935035
0
LINE
8
0
10
70.9041851614
20
100.168935035
11
70.9854169359
21
100.570235497
0
LINE
8
0
10
70.9854169359
20
100.570235497
11
71.0654269279
21
101.109245286
0
LINE
8
0
10
71.0654269279
20
101.109245286
11
71.1299689666
21
101.786569146
0
LINE
8
0
10
71.1299689666
20
101.786569146
11
71.1647495312
21
102.601695748
0
LINE
8
0
10
71.1647495312
20
102.601695748
11
71.1555056203
21
103.552995406
0
LINE
8
0
10
71.1555056203
20
103.552995406
11
71.1361336606
21
103.86465931
0
LINE
8
0
10
71.1361336606
20
103.86465931
11
70.0010724827
21
104.334817044
0
LINE
8
0
10
70.0010724827
20
104.334817044
11
68.8064369178
21
104.621623668
0
LINE
8
0
10
68.8064369178
20
104.621623668
11
68.6075732269
21
104.380868825
0
LINE
8
0
10
68.6075732269
20
104.380868825
11
68.0409348364
21
103.616684669
0
LINE
8
0
10
68.0409348364
20
103.616684669
11
67.5899535087
21
102.936789893
0
LINE
8
0
10
67.5899535087
20
102.936789893
11
67.2440481392
21
102.350886521
0
LINE
8
0
10
67.2440481392
20
102.350886521
11
66.9919555777
21
101.867789749
0
LINE
8
0
10
66.9919555777
20
101.867789749
11
66.8217949706
21
101.495384016
0
LINE
8
0
10
66.8217949706
20
101.495384016
11
66.721134784
21
101.240583419
0
LINE
8
0
10
66.721134784
20
101.240583419
11
66.6150462697
21
100.924558549
0
LINE
8
0
10
66.6150462697
20
100.924558549
11
66.436449281
21
100.519960514
0
LINE
8
0
10
66.436449281
20
100.519960514
11
66.2587619051
21
100.263155565
0
LINE
8
0
10
66.2587619051
20
100.263155565
11
66.0969045435
21
100.152561567
0
LINE
8
0
10
66.0969045435
20
100.152561567
11
63.4214947064
21
100.794870641
0
LINE
8
0
10
63.4214947064
20
100.794870641
11
63.3274873659
21
100.966892319
0
LINE
8
0
10
63.3274873659
20
100.966892319
11
63.2857537615
21
101.276375584
0
LINE
8
0
10
63.2857537615
20
101.276375584
11
63.3103063438
21
101.71795641
0
LINE
8
0
10
63.3103063438
20
101.71795641
11
63.3592530739
21
102.047699808
0
LINE
8
0
10
63.3592530739
20
102.047699808
11
63.3852412413
21
102.320427571
0
LINE
8
0
10
63.3852412413
20
102.320427571
11
63.4026956948
21
102.729494807
0
LINE
8
0
10
63.4026956948
20
102.729494807
11
63.397400923
21
103.274384811
0
LINE
8
0
10
63.397400923
20
103.274384811
11
63.3551915465
21
103.95346629
0
LINE
8
0
10
63.3551915465
20
103.95346629
11
63.2620300107
21
104.76399821
0
LINE
8
0
10
63.2620300107
20
104.76399821
11
63.1040838546
21
105.702139724
0
LINE
8
0
10
63.1040838546
20
105.702139724
11
63.0361954198
21
106.006936086
0
LINE
8
0
10
63.0361954198
20
106.006936086
11
61.8415598549
21
106.29374271
0
LINE
8
0
10
61.8415598549
20
106.29374271
11
60.6167657954
21
106.390136093
0
LINE
8
0
10
60.6167657954
20
106.390136093
11
60.4580128016
21
106.121236207
0
LINE
8
0
10
60.4580128016
20
106.121236207
11
60.0178954095
21
105.277818653
0
LINE
8
0
10
60.0178954095
20
105.277818653
11
59.678825386
21
104.535745486
0
LINE
8
0
10
59.678825386
20
104.535745486
11
59.428834166
21
103.902944036
0
LINE
8
0
10
59.428834166
20
103.902944036
11
59.2554182675
21
103.386359022
0
LINE
8
0
10
59.2554182675
20
103.386359022
11
59.1456097114
21
102.991919238
0
LINE
8
0
10
59.1456097114
20
102.991919238
11
59.0860484138
21
102.724508937
0
LINE
8
0
10
59.0860484138
20
102.724508937
11
59.0307032065
21
102.395778958
0
LINE
8
0
10
59.0307032065
20
102.395778958
11
58.9175981205
21
101.968223471
0
LINE
8
0
10
58.9175981205
20
101.968223471
11
58.7822715157
21
101.686783788
0
LINE
8
0
10
58.7822715157
20
101.686783788
11
58.6397075998
21
101.552231315
0
LINE
8
0
10
58.6397075998
20
101.552231315
11
55.8967572211
21
101.768106192
0
LINE
8
0
10
55.8967572211
20
101.768106192
11
55.7769971476
21
101.92330401
0
LINE
8
0
10
55.7769971476
20
101.92330401
11
55.6873635042
21
102.222448449
0
LINE
8
0
10
55.6873635042
20
102.222448449
11
55.6425353432
21
102.662433551
0
LINE
8
0
10
55.6425353432
20
102.662433551
11
55.6392962257
21
102.995774217
0
LINE
8
0
10
55.6392962257
20
102.995774217
11
55.622300414
21
103.269209693
0
LINE
8
0
10
55.622300414
20
103.269209693
11
55.57554776
21
103.675971111
0
LINE
8
0
10
55.57554776
20
103.675971111
11
55.4850785993
21
104.213324331
0
LINE
8
0
10
55.4850785993
20
104.213324331
11
55.3371571425
21
104.877442188
0
LINE
8
0
10
55.3371571425
20
104.877442188
11
55.1183474524
21
105.66342144
0
LINE
8
0
10
55.1183474524
20
105.66342144
11
54.8155882097
21
106.565304653
0
LINE
8
0
10
54.8155882097
20
106.565304653
11
54.7008549384
21
106.855728375
0
LINE
8
0
10
54.7008549384
20
106.855728375
11
53.4760608789
21
106.952121758
0
LINE
8
0
10
53.4760608789
20
106.952121758
11
52.2512668194
21
106.855728375
0
LINE
8
0
10
52.2512668194
20
106.855728375
11
52.1365335481
21
106.565304653
0
LINE
8
0
10
52.1365335481
20
106.565304653
11
51.8337743053
21
105.66342144
0
LINE
8
0
10
51.8337743053
20
105.66342144
11
51.6149646153
21
104.877442188
0
LINE
8
0
10
51.6149646153
20
104.877442188
11
51.4670431585
21
104.213324331
0
LINE
8
0
10
51.4670431585
20
104.213324331
11
51.3765739978
21
103.675971111
0
LINE
8
0
10
51.3765739978
20
103.675971111
11
51.3298213438
21
103.269209693
0
LINE
8
0
10
51.3298213438
20
103.269209693
11
51.312825532
21
102.995774217
0
LINE
8
0
10
51.312825532
20
102.995774217
11
51.3095864145
21
102.662433551
0
LINE
8
0
10
51.3095864145
20
102.662433551
11
51.2647582536
21
102.222448449
0
LINE
8
0
10
51.2647582536
20
102.222448449
11
51.1751246102
21
101.92330401
0
LINE
8
0
10
51.1751246102
20
101.92330401
11
51.0553645367
21
101.768106192
0
LINE
8
0
10
51.0553645367
20
101.768106192
11
48.312414158
21
101.552231315
0
LINE
8
0
10
48.312414158
20
101.552231315
11
48.169850242
21
101.686783788
0
LINE
8
0
10
48.169850242
20
101.686783788
11
48.0345236373
21
101.968223471
0
LINE
8
0
10
48.0345236373
20
101.968223471
11
47.9214185512
21
102.395778958
0
LINE
8
0
10
47.9214185512
20
102.395778958
11
47.8660733439
21
102.724508937
0
LINE
8
0
10
47.8660733439
20
102.724508937
11
47.8065120463
21
102.991919238
0
LINE
8
0
10
47.8065120463
20
102.991919238
11
47.6967034903
21
103.386359022
0
LINE
8
0
10
47.6967034903
20
103.386359022
11
47.5232875917
21
103.902944036
0
LINE
8
0
10
47.5232875917
20
103.902944036
11
47.2732963718
21
104.535745486
0
LINE
8
0
10
47.2732963718
20
104.535745486
11
46.9342263483
21
105.277818653
0
LINE
8
0
10
46.9342263483
20
105.277818653
11
46.4941089562
21
106.121236207
0
LINE
8
0
10
46.4941089562
20
106.121236207
11
46.3353559624
21
106.390136093
0
LINE
8
0
10
46.3353559624
20
106.390136093
11
45.1105619028
21
106.29374271
0
LINE
8
0
10
45.1105619028
20
106.29374271
11
43.9159263379
21
106.006936086
0
LINE
8
0
10
43.9159263379
20
106.006936086
11
43.8480379031
21
105.702139724
0
LINE
8
0
10
43.8480379031
20
105.702139724
11
43.690091747
21
104.76399821
0
LINE
8
0
10
43.690091747
20
104.76399821
11
43.5969302112
21
103.95346629
0
LINE
8
0
10
43.5969302112
20
103.95346629
11
43.5547208347
21
103.274384811
0
LINE
8
0
10
43.5547208347
20
103.274384811
11
43.5494260629
21
102.729494807
0
LINE
8
0
10
43.5494260629
20
102.729494807
11
43.5668805165
21
102.320427571
0
LINE
8
0
10
43.5668805165
20
102.320427571
11
43.5928686839
21
102.047699808
0
LINE
8
0
10
43.5928686839
20
102.047699808
11
43.6418154139
21
101.71795641
0
LINE
8
0
10
43.6418154139
20
101.71795641
11
43.6663679962
21
101.276375584
0
LINE
8
0
10
43.6663679962
20
101.276375584
11
43.6246343919
21
100.966892319
0
LINE
8
0
10
43.6246343919
20
100.966892319
11
43.5306270513
21
100.794870641
0
LINE
8
0
10
43.5306270513
20
100.794870641
11
40.8552172143
21
100.152561567
0
LINE
8
0
10
40.8552172143
20
100.152561567
11
40.6933598526
21
100.263155565
0
LINE
8
0
10
40.6933598526
20
100.263155565
11
40.5156724767
21
100.519960514
0
LINE
8
0
10
40.5156724767
20
100.519960514
11
40.3370754881
21
100.924558549
0
LINE
8
0
10
40.3370754881
20
100.924558549
11
40.2309869737
21
101.240583419
0
LINE
8
0
10
40.2309869737
20
101.240583419
11
40.1303267871
21
101.495384016
0
LINE
8
0
10
40.1303267871
20
101.495384016
11
39.9601661801
21
101.867789749
0
LINE
8
0
10
39.9601661801
20
101.867789749
11
39.7080736186
21
102.350886521
0
LINE
8
0
10
39.7080736186
20
102.350886521
11
39.362168249
21
102.936789893
0
LINE
8
0
10
39.362168249
20
102.936789893
11
38.9111869214
21
103.616684669
0
LINE
8
0
10
38.9111869214
20
103.616684669
11
38.3445485308
21
104.380868825
0
LINE
8
0
10
38.3445485308
20
104.380868825
11
38.14568484
21
104.621623668
0
LINE
8
0
10
38.14568484
20
104.621623668
11
36.9510492751
21
104.334817044
0
LINE
8
0
10
36.9510492751
20
104.334817044
11
35.8159880971
21
103.86465931
0
LINE
8
0
10
35.8159880971
20
103.86465931
11
35.7966161374
21
103.552995406
0
LINE
8
0
10
35.7966161374
20
103.552995406
11
35.7873722266
21
102.601695748
0
LINE
8
0
10
35.7873722266
20
102.601695748
11
35.8221527912
21
101.786569146
0
LINE
8
0
10
35.8221527912
20
101.786569146
11
35.8866948299
21
101.109245286
0
LINE
8
0
10
35.8866948299
20
101.109245286
11
35.9667048218
21
100.570235497
0
LINE
8
0
10
35.9667048218
20
100.570235497
11
36.0479365964
21
100.168935035
0
LINE
8
0
10
36.0479365964
20
100.168935035
11
36.116268828
21
99.9036304491
0
LINE
8
0
10
36.116268828
20
99.9036304491
11
36.2161961747
21
99.5856036947
0
LINE
8
0
10
36.2161961747
20
99.5856036947
11
36.3095249341
21
99.153300332
0
LINE
8
0
10
36.3095249341
20
99.153300332
11
36.3167189888
21
98.8410987454
0
LINE
8
0
10
36.3167189888
20
98.8410987454
11
36.2507791538
21
98.656488951
0
LINE
8
0
10
36.2507791538
20
98.656488951
11
33.7087873278
21
97.6035614612
0
LINE
8
0
10
33.7087873278
20
97.6035614612
11
33.5316219859
21
97.6874737943
0
LINE
8
0
10
33.5316219859
20
97.6874737943
11
33.3159490917
21
97.9133206181
0
LINE
8
0
10
33.3159490917
20
97.9133206181
11
33.0762578511
21
98.2849986561
0
LINE
8
0
10
33.0762578511
20
98.2849986561
11
32.922038281
21
98.5805368352
0
LINE
8
0
10
32.922038281
20
98.5805368352
11
32.7827577932
21
98.8164536916
0
LINE
8
0
10
32.7827577932
20
98.8164536916
11
32.5564350541
21
99.157655508
0
LINE
8
0
10
32.5564350541
20
99.157655508
11
32.2318731851
21
99.5953685926
0
LINE
8
0
10
32.2318731851
20
99.5953685926
11
31.7985710042
21
100.119947
0
LINE
8
0
10
31.7985710042
20
100.119947
11
31.2467830294
21
100.720922121
0
LINE
8
0
10
31.2467830294
20
100.720922121
11
30.5675761581
21
101.387056128
0
LINE
8
0
10
30.5675761581
20
101.387056128
11
30.3334984543
21
101.593737744
0
LINE
8
0
10
30.3334984543
20
101.593737744
11
29.1984372764
21
101.12358001
0
LINE
8
0
10
29.1984372764
20
101.12358001
11
28.1508994587
21
100.48164801
0
LINE
8
0
10
28.1508994587
20
100.48164801
11
28.1805209759
21
100.170790764
0
LINE
8
0
10
28.1805209759
20
100.170790764
11
28.3202069261
21
99.2297571166
0
LINE
8
0
10
28.3202069261
20
99.2297571166
11
28.4820731782
21
98.4301069546
0
LINE
8
0
10
28.4820731782
20
98.4301069546
11
28.651777393
21
97.7712186749
0
LINE
8
0
10
28.651777393
20
97.7712186749
11
28.8151220371
21
97.2513613113
0
LINE
8
0
10
28.8151220371
20
97.2513613113
11
28.9581309367
21
96.8677089734
0
LINE
8
0
10
28.9581309367
20
96.8677089734
11
29.0671246662
21
96.6163602428
0
LINE
8
0
10
29.0671246662
20
96.6163602428
11
29.2155720866
21
96.3178810066
0
LINE
8
0
10
29.2155720866
20
96.3178810066
11
29.3753789595
21
95.9054998502
0
LINE
8
0
10
29.3753789595
20
95.9054998502
11
29.4313235315
21
95.5982673813
0
LINE
8
0
10
29.4313235315
20
95.5982673813
11
29.3950748598
21
95.405615177
0
LINE
8
0
10
29.3950748598
20
95.405615177
11
27.04909332
21
93.9679958404
0
LINE
8
0
10
27.04909332
20
93.9679958404
11
26.8609823964
21
94.0231603079
0
LINE
8
0
10
26.8609823964
20
94.0231603079
11
26.6126345664
21
94.2124879087
0
LINE
8
0
10
26.6126345664
20
94.2124879087
11
26.3177510677
21
94.5420940023
0
LINE
8
0
10
26.3177510677
20
94.5420940023
11
26.1191978395
21
94.80986836
0
LINE
8
0
10
26.1191978395
20
94.80986836
11
25.9447265984
21
95.0210924199
0
LINE
8
0
10
25.9447265984
20
95.0210924199
11
25.6678145441
21
95.3226887991
0
LINE
8
0
10
25.6678145441
20
95.3226887991
11
25.2787751581
21
95.704240247
0
LINE
8
0
10
25.2787751581
20
95.704240247
11
24.7687455035
21
96.1545768289
0
LINE
8
0
10
24.7687455035
20
96.1545768289
11
24.1297377328
21
96.6618342922
0
LINE
8
0
10
24.1297377328
20
96.6618342922
11
23.3546867081
21
97.2135157208
0
LINE
8
0
10
23.3546867081
20
97.2135157208
11
23.0911587613
21
97.3810349224
0
LINE
8
0
10
23.0911587613
20
97.3810349224
11
22.0436209436
21
96.7391029221
0
LINE
8
0
10
22.0436209436
20
96.7391029221
11
21.1094003438
21
95.9412031518
0
LINE
8
0
10
21.1094003438
20
95.9412031518
11
21.187285958
21
95.6388069007
0
LINE
8
0
10
21.187285958
20
95.6388069007
11
21.4724622375
21
94.7312106362
0
LINE
8
0
10
21.4724622375
20
94.7312106362
11
21.7574284927
21
93.9667269552
0
LINE
8
0
10
21.7574284927
20
93.9667269552
11
22.0281162025
21
93.3424982717
0
LINE
8
0
10
22.0281162025
20
93.3424982717
11
22.2707734116
21
92.854593947
0
LINE
8
0
10
22.2707734116
20
92.854593947
11
22.4720380826
21
92.4980365267
0
LINE
8
0
10
22.4720380826
20
92.4980365267
11
22.6190095226
21
92.2668326918
0
LINE
8
0
10
22.6190095226
20
92.2668326918
11
22.8123217486
21
91.9952505231
0
LINE
8
0
10
22.8123217486
20
91.9952505231
11
23.0346717593
21
91.6129457657
0
LINE
8
0
10
23.0346717593
20
91.6129457657
11
23.1379893077
21
91.3182474975
0
LINE
8
0
10
23.1379893077
20
91.3182474975
11
23.1323243618
21
91.1222966199
0
LINE
8
0
10
23.1323243618
20
91.1222966199
11
21.0401189595
21
89.3353843958
0
LINE
8
0
10
21.0401189595
20
89.3353843958
11
20.8456943696
21
89.3604426655
0
LINE
8
0
10
20.8456943696
20
89.3604426655
11
20.5707867515
21
89.5085891694
0
LINE
8
0
10
20.5707867515
20
89.5085891694
11
20.2279720051
21
89.7880073227
0
LINE
8
0
10
20.2279720051
20
89.7880073227
11
19.9899741582
21
90.0214243657
0
LINE
8
0
10
19.9899741582
20
90.0214243657
11
19.7846082248
21
90.2027545916
0
LINE
8
0
10
19.7846082248
20
90.2027545916
11
19.4639253492
21
90.4573192298
0
LINE
8
0
10
19.4639253492
20
90.4573192298
11
19.019987887
21
90.773313978
0
LINE
8
0
10
19.019987887
20
90.773313978
11
18.4457893815
21
91.1383199531
0
LINE
8
0
10
18.4457893815
20
91.1383199531
11
17.7352963069
21
91.5393693965
0
LINE
8
0
10
17.7352963069
20
91.5393693965
11
16.8834854572
21
91.9630140189
0
LINE
8
0
10
16.8834854572
20
91.9630140189
11
16.5969962001
21
92.0872459277
0
LINE
8
0
10
16.5969962001
20
92.0872459277
11
15.6627756003
21
91.2893461575
0
LINE
8
0
10
15.6627756003
20
91.2893461575
11
14.86487583
21
90.3551255577
0
LINE
8
0
10
14.86487583
20
90.3551255577
11
14.9891077389
21
90.0686363005
0
LINE
8
0
10
14.9891077389
20
90.0686363005
11
15.4127523612
21
89.2168254509
0
LINE
8
0
10
15.4127523612
20
89.2168254509
11
15.8138018046
21
88.5063323763
0
LINE
8
0
10
15.8138018046
20
88.5063323763
11
16.1788077798
21
87.9321338708
0
LINE
8
0
10
16.1788077798
20
87.9321338708
11
16.4948025279
21
87.4881964086
0
LINE
8
0
10
16.4948025279
20
87.4881964086
11
16.7493671662
21
87.1675135329
0
LINE
8
0
10
16.7493671662
20
87.1675135329
11
16.9306973921
21
86.9621475996
0
LINE
8
0
10
16.9306973921
20
86.9621475996
11
17.1641144351
21
86.7241497526
0
LINE
8
0
10
17.1641144351
20
86.7241497526
11
17.4435325883
21
86.3813350062
0
LINE
8
0
10
17.4435325883
20
86.3813350062
11
17.5916790923
21
86.1064273881
0
LINE
8
0
10
17.5916790923
20
86.1064273881
11
17.616737362
21
85.9120027983
0
LINE
8
0
10
17.616737362
20
85.9120027983
11
15.8298251378
21
83.8197973959
0
LINE
8
0
10
15.8298251378
20
83.8197973959
11
15.6338742603
21
83.81413245
0
LINE
8
0
10
15.6338742603
20
83.81413245
11
15.339175992
21
83.9174499985
0
LINE
8
0
10
15.339175992
20
83.9174499985
11
14.9568712347
21
84.1398000091
0
LINE
8
0
10
14.9568712347
20
84.1398000091
11
14.6852890659
21
84.3331122352
0
LINE
8
0
10
14.6852890659
20
84.3331122352
11
14.4540852311
21
84.4800836751
0
LINE
8
0
10
14.4540852311
20
84.4800836751
11
14.0975278108
21
84.6813483462
0
LINE
8
0
10
14.0975278108
20
84.6813483462
11
13.6096234861
21
84.9240055552
0
LINE
8
0
10
13.6096234861
20
84.9240055552
11
12.9853948025
21
85.1946932651
0
LINE
8
0
10
12.9853948025
20
85.1946932651
11
12.2209111215
21
85.4796595203
0
LINE
8
0
10
12.2209111215
20
85.4796595203
11
11.3133148571
21
85.7648357998
0
LINE
8
0
10
11.3133148571
20
85.7648357998
11
11.0109186059
21
85.842721414
0
LINE
8
0
10
11.0109186059
20
85.842721414
11
10.2130188356
21
84.9085008142
0
LINE
8
0
10
10.2130188356
20
84.9085008142
11
9.57108683534
21
83.8609629965
0
LINE
8
0
10
9.57108683534
20
83.8609629965
11
9.73860603691
21
83.5974350497
0
LINE
8
0
10
9.73860603691
20
83.5974350497
11
10.2902874656
21
82.822384025
0
LINE
8
0
10
10.2902874656
20
82.822384025
11
10.7975449288
21
82.1833762543
0
LINE
8
0
10
10.7975449288
20
82.1833762543
11
11.2478815108
21
81.6733465996
0
LINE
8
0
10
11.2478815108
20
81.6733465996
11
11.6294329586
21
81.2843072137
0
LINE
8
0
10
11.6294329586
20
81.2843072137
11
11.9310293379
21
81.0073951594
0
LINE
8
0
10
11.9310293379
20
81.0073951594
11
12.1422533977
21
80.8329239183
0
LINE
8
0
10
12.1422533977
20
80.8329239183
11
12.4100277555
21
80.6343706901
0
LINE
8
0
10
12.4100277555
20
80.6343706901
11
12.739633849
21
80.3394871914
0
LINE
8
0
10
12.739633849
20
80.3394871914
11
12.9289614498
21
80.0911393613
0
LINE
8
0
10
12.9289614498
20
80.0911393613
11
12.9841259174
21
79.9030284378
0
LINE
8
0
10
12.9841259174
20
79.9030284378
11
11.5465065808
21
77.5570468979
0
LINE
8
0
10
11.5465065808
20
77.5570468979
11
11.3538543765
21
77.5207982262
0
LINE
8
0
10
11.3538543765
20
77.5207982262
11
11.0466219075
21
77.5767427983
0
LINE
8
0
10
11.0466219075
20
77.5767427983
11
10.6342407512
21
77.7365496711
0
LINE
8
0
10
10.6342407512
20
77.7365496711
11
10.3357615149
21
77.8849970916
0
LINE
8
0
10
10.3357615149
20
77.8849970916
11
10.0844127844
21
77.993990821
0
LINE
8
0
10
10.0844127844
20
77.993990821
11
9.70076044642
21
78.1369997207
0
LINE
8
0
10
9.70076044642
20
78.1369997207
11
9.18090308287
21
78.3003443648
0
LINE
8
0
10
9.18090308287
20
78.3003443648
11
8.52201480318
21
78.4700485796
0
LINE
8
0
10
8.52201480318
20
78.4700485796
11
7.7223646412
21
78.6319148316
0
LINE
8
0
10
7.7223646412
20
78.6319148316
11
6.78133099412
21
78.7716007818
0
LINE
8
0
10
6.78133099412
20
78.7716007818
11
6.4704737482
21
78.8012222991
0
LINE
8
0
10
6.4704737482
20
78.8012222991
11
5.8285417479
21
77.7536844814
0
LINE
8
0
10
5.8285417479
20
77.7536844814
11
5.35838401388
21
76.6186233034
0
LINE
8
0
10
5.35838401388
20
76.6186233034
11
5.56506562947
21
76.3845455997
0
LINE
8
0
10
5.56506562947
20
76.3845455997
11
6.23119963671
21
75.7053387284
0
LINE
8
0
10
6.23119963671
20
75.7053387284
11
6.83217475764
21
75.1535507536
0
LINE
8
0
10
6.83217475764
20
75.1535507536
11
7.35675316513
21
74.7202485726
0
LINE
8
0
10
7.35675316513
20
74.7202485726
11
7.79446624974
21
74.3956867037
0
LINE
8
0
10
7.79446624974
20
74.3956867037
11
8.13566806617
21
74.1693639646
0
LINE
8
0
10
8.13566806617
20
74.1693639646
11
8.37158492257
21
74.0300834768
0
LINE
8
0
10
8.37158492257
20
74.0300834768
11
8.66712310167
21
73.8758639067
0
LINE
8
0
10
8.66712310167
20
73.8758639067
11
9.03880113966
21
73.6361726661
0
LINE
8
0
10
9.03880113966
20
73.6361726661
11
9.26464796346
21
73.4204997719
0
LINE
8
0
10
9.26464796346
20
73.4204997719
11
9.34856029653
21
73.24333443
0
LINE
8
0
10
9.34856029653
20
73.24333443
11
8.29563280675
21
70.7013426039
0
LINE
8
0
10
8.29563280675
20
70.7013426039
11
8.11102301234
21
70.635402769
0
LINE
8
0
10
8.11102301234
20
70.635402769
11
7.79882142572
21
70.6425968236
0
LINE
8
0
10
7.79882142572
20
70.6425968236
11
7.36651806303
21
70.7359255831
0
LINE
8
0
10
7.36651806303
20
70.7359255831
11
7.04849130867
21
70.8358529298
0
LINE
8
0
10
7.04849130867
20
70.8358529298
11
6.78318672232
21
70.9041851614
0
LINE
8
0
10
6.78318672232
20
70.9041851614
11
6.38188626058
21
70.9854169359
0
LINE
8
0
10
6.38188626058
20
70.9854169359
11
5.84287647182
21
71.0654269279
0
LINE
8
0
10
5.84287647182
20
71.0654269279
11
5.16555261215
21
71.1299689666
0
LINE
8
0
10
5.16555261215
20
71.1299689666
11
4.35042601006
21
71.1647495312
0
LINE
8
0
10
4.35042601006
20
71.1647495312
11
3.39912635184
21
71.1555056203
0
LINE
8
0
10
3.39912635184
20
71.1555056203
11
3.08746244825
21
71.1361336606
0
LINE
8
0
10
3.08746244825
20
71.1361336606
11
2.61730471422
21
70.0010724827
0
LINE
8
0
10
2.61730471422
20
70.0010724827
11
2.33049809025
21
68.8064369178
0
LINE
8
0
10
2.33049809025
20
68.8064369178
11
2.57125293255
21
68.6075732269
0
LINE
8
0
10
2.57125293255
20
68.6075732269
11
3.33543708833
21
68.0409348364
0
LINE
8
0
10
3.33543708833
20
68.0409348364
11
4.01533186492
21
67.5899535087
0
LINE
8
0
10
4.01533186492
20
67.5899535087
11
4.60123523661
21
67.2440481392
0
LINE
8
0
10
4.60123523661
20
67.2440481392
11
5.08433200914
21
66.9919555777
0
LINE
8
0
10
5.08433200914
20
66.9919555777
11
5.45673774164
21
66.8217949706
0
LINE
8
0
10
5.45673774164
20
66.8217949706
11
5.71153833865
21
66.721134784
0
LINE
8
0
10
5.71153833865
20
66.721134784
11
6.0275632083
21
66.6150462697
0
LINE
8
0
10
6.0275632083
20
66.6150462697
11
6.43216124387
21
66.436449281
0
LINE
8
0
10
6.43216124387
20
66.436449281
11
6.68896619233
21
66.2587619051
0
LINE
8
0
10
6.68896619233
20
66.2587619051
11
6.79956019082
21
66.0969045435
0
LINE
8
0
10
6.79956019082
20
66.0969045435
11
6.15725111711
21
63.4214947064
0
LINE
8
0
10
6.15725111711
20
63.4214947064
11
5.98522943842
21
63.3274873659
0
LINE
8
0
10
5.98522943842
20
63.3274873659
11
5.67574617331
21
63.2857537615
0
LINE
8
0
10
5.67574617331
20
63.2857537615
11
5.23416534783
21
63.3103063438
0
LINE
8
0
10
5.23416534783
20
63.3103063438
11
4.90442194951
21
63.3592530739
0
LINE
8
0
10
4.90442194951
20
63.3592530739
11
4.63169418678
21
63.3852412413
0
LINE
8
0
10
4.63169418678
20
63.3852412413
11
4.22262695045
21
63.4026956948
0
LINE
8
0
10
4.22262695045
20
63.4026956948
11
3.67773694634
21
63.397400923
0
LINE
8
0
10
3.67773694634
20
63.397400923
11
2.99865546804
21
63.3551915465
0
LINE
8
0
10
2.99865546804
20
63.3551915465
11
2.18812354803
21
63.2620300107
0
LINE
8
0
10
2.18812354803
20
63.2620300107
11
1.24998203344
21
63.1040838546
0
LINE
8
0
10
1.24998203344
20
63.1040838546
11
0.945185671833
21
63.0361954198
0
LINE
8
0
10
0.945185671833
20
63.0361954198
11
0.658379047854
21
61.8415598549
0
LINE
8
0
10
0.658379047854
20
61.8415598549
11
0.561985664861
21
60.6167657954
0
LINE
8
0
10
0.561985664861
20
60.6167657954
11
0.83088555064
21
60.4580128016
0
LINE
8
0
10
0.83088555064
20
60.4580128016
11
1.67430310487
21
60.0178954095
0
LINE
8
0
10
1.67430310487
20
60.0178954095
11
2.41637627127
21
59.678825386
0
LINE
8
0
10
2.41637627127
20
59.678825386
11
3.04917772164
21
59.428834166
0
LINE
8
0
10
3.04917772164
20
59.428834166
11
3.56576273625
21
59.2554182675
0
LINE
8
0
10
3.56576273625
20
59.2554182675
11
3.96020251974
21
59.1456097114
0
LINE
8
0
10
3.96020251974
20
59.1456097114
11
4.22761282104
21
59.0860484138
0
LINE
8
0
10
4.22761282104
20
59.0860484138
11
4.55634280011
21
59.0307032065
0
LINE
8
0
10
4.55634280011
20
59.0307032065
11
4.98389828685
21
58.9175981205
0
LINE
8
0
10
4.98389828685
20
58.9175981205
11
5.26533796984
21
58.7822715157
0
LINE
8
0
10
5.26533796984
20
58.7822715157
11
5.39989044248
21
58.6397075998
0
LINE
8
0
10
5.39989044248
20
58.6397075998
11
5.18401556594
21
55.8967572211
0
LINE
8
0
10
5.18401556594
20
55.8967572211
11
5.02881774759
21
55.7769971476
0
LINE
8
0
10
5.02881774759
20
55.7769971476
11
4.7296733091
21
55.6873635042
0
LINE
8
0
10
4.7296733091
20
55.6873635042
11
4.28968820626
21
55.6425353432
0
LINE
8
0
10
4.28968820626
20
55.6425353432
11
3.95634754083
21
55.6392962257
0
LINE
8
0
10
3.95634754083
20
55.6392962257
11
3.68291206436
21
55.622300414
0
LINE
8
0
10
3.68291206436
20
55.622300414
11
3.27615064641
21
55.57554776
0
LINE
8
0
10
3.27615064641
20
55.57554776
11
2.73879742724
21
55.4850785993
0
LINE
8
0
10
2.73879742724
20
55.4850785993
11
2.07467957004
21
55.3371571425
0
LINE
8
0
10
2.07467957004
20
55.3371571425
11
1.28870031799
21
55.1183474524
0
LINE
8
0
10
1.28870031799
20
55.1183474524
11
0.386817104629
21
54.8155882097
0
LINE
8
0
10
0.386817104629
20
54.8155882097
11
0.0963933829929
21
54.7008549384
0
LINE
8
0
10
0.0963933829929
20
54.7008549384
11
0.0
21
53.4760608789
0
LINE
8
0
10
0.0
20
53.4760608789
11
0.096393382993
21
52.2512668194
0
LINE
8
0
10
0.096393382993
20
52.2512668194
11
0.386817104629
21
52.1365335481
0
LINE
8
0
10
0.386817104629
20
52.1365335481
11
1.28870031799
21
51.8337743053
0
LINE
8
0
10
1.28870031799
20
51.8337743053
11
2.07467957004
21
51.6149646153
0
LINE
8
0
10
2.07467957004
20
51.6149646153
11
2.73879742724
21
51.4670431585
0
LINE
8
0
10
2.73879742724
20
51.4670431585
11
3.27615064641
21
51.3765739978
0
LINE
8
0
10
3.27615064641
20
51.3765739978
11
3.68291206436
21
51.3298213438
0
LINE
8
0
10
3.68291206436
20
51.3298213438
11
3.95634754083
21
51.312825532
0
LINE
8
0
10
3.95634754083
20
51.312825532
11
4.28968820626
21
51.3095864145
0
LINE
8
0
10
4.28968820626
20
51.3095864145
11
4.7296733091
21
51.2647582536
0
LINE
8
0
10
4.7296733091
20
51.2647582536
11
5.02881774759
21
51.1751246102
0
LINE
8
0
10
5.02881774759
20
51.1751246102
11
5.18401556594
21
51.0553645367
0
LINE
8
0
10
5.18401556594
20
51.0553645367
11
5.39989044248
21
48.312414158
0
LINE
8
0
10
5.39989044248
20
48.312414158
11
5.26533796984
21
48.169850242
0
LINE
8
0
10
5.26533796984
20
48.169850242
11
4.98389828685
21
48.0345236373
0
LINE
8
0
10
4.98389828685
20
48.0345236373
11
4.55634280011
21
47.9214185512
0
LINE
8
0
10
4.55634280011
20
47.9214185512
11
4.22761282104
21
47.8660733439
0
LINE
8
0
10
4.22761282104
20
47.8660733439
11
3.96020251974
21
47.8065120463
0
LINE
8
0
10
3.96020251974
20
47.8065120463
11
3.56576273625
21
47.6967034903
0
LINE
8
0
10
3.56576273625
20
47.6967034903
11
3.04917772164
21
47.5232875917
0
LINE
8
0
10
3.04917772164
20
47.5232875917
11
2.41637627127
21
47.2732963718
0
LINE
8
0
10
2.41637627127
20
47.2732963718
11
1.67430310487
21
46.9342263483
0
LINE
8
0
10
1.67430310487
20
46.9342263483
11
0.83088555064
21
46.4941089562
0
LINE
8
0
10
0.83088555064
20
46.4941089562
11
0.561985664861
21
46.3353559624
0
LINE
8
0
10
0.561985664861
20
46.3353559624
11
0.658379047854
21
45.1105619028
0
LINE
8
0
10
0.658379047854
20
45.1105619028
11
0.945185671833
21
43.9159263379
0
LINE
8
0
10
0.945185671833
20
43.9159263379
11
1.24998203344
21
43.8480379031
0
LINE
8
0
10
1.24998203344
20
43.8480379031
11
2.18812354803
21
43.690091747
0
LINE
8
0
10
2.18812354803
20
43.690091747
11
2.99865546804
21
43.5969302112
0
LINE
8
0
10
2.99865546804
20
43.5969302112
11
3.67773694634
21
43.5547208347
0
LINE
8
0
10
3.67773694634
20
43.5547208347
11
4.22262695045
21
43.5494260629
0
LINE
8
0
10
4.22262695045
20
43.5494260629
11
4.63169418678
21
43.5668805165
0
LINE
8
0
10
4.63169418678
20
43.5668805165
11
4.90442194951
21
43.5928686839
0
LINE
8
0
10
4.90442194951
20
43.5928686839
11
5.23416534783
21
43.6418154139
0
LINE
8
0
10
5.23416534783
20
43.6418154139
11
5.67574617331
21
43.6663679962
0
LINE
8
0
10
5.67574617331
20
43.6663679962
11
5.98522943842
21
43.6246343919
0
LINE
8
0
10
5.98522943842
20
43.6246343919
11
6.15725111711
21
43.5306270513
0
LINE
8
0
10
6.15725111711
20
43.5306270513
11
6.79956019082
21
40.8552172143
0
LINE
8
0
10
6.79956019082
20
40.8552172143
11
6.68896619233
21
40.6933598526
0
LINE
8
0
10
6.68896619233
20
40.6933598526
11
6.43216124387
21
40.5156724767
0
LINE
8
0
10
6.43216124387
20
40.5156724767
11
6.0275632083
21
40.3370754881
0
LINE
8
0
10
6.0275632083
20
40.3370754881
11
5.71153833865
21
40.2309869737
0
LINE
8
0
10
5.71153833865
20
40.2309869737
11
5.45673774164
21
40.1303267871
0
LINE
8
0
10
5.45673774164
20
40.1303267871
11
5.08433200914
21
39.9601661801
0
LINE
8
0
10
5.08433200914
20
39.9601661801
11
4.60123523661
21
39.7080736186
0
LINE
8
0
10
4.60123523661
20
39.7080736186
11
4.01533186492
21
39.362168249
0
LINE
8
0
10
4.01533186492
20
39.362168249
11
3.33543708833
21
38.9111869214
0
LINE
8
0
10
3.33543708833
20
38.9111869214
11
2.57125293255
21
38.3445485308
0
LINE
8
0
10
2.57125293255
20
38.3445485308
11
2.33049809025
21
38.14568484
0
LINE
8
0
10
2.33049809025
20
38.14568484
11
2.61730471422
21
36.9510492751
0
LINE
8
0
10
2.61730471422
20
36.9510492751
11
3.08746244825
21
35.8159880971
0
LINE
8
0
10
3.08746244825
20
35.8159880971
11
3.39912635184
21
35.7966161374
0
LINE
8
0
10
3.39912635184
20
35.7966161374
11
4.35042601006
21
35.7873722266
0
LINE
8
0
10
4.35042601006
20
35.7873722266
11
5.16555261215
21
35.8221527912
0
LINE
8
0
10
5.16555261215
20
35.8221527912
11
5.84287647182
21
35.8866948299
0
LINE
8
0
10
5.84287647182
20
35.8866948299
11
6.38188626058
21
35.9667048218
0
LINE
8
0
10
6.38188626058
20
35.9667048218
11
6.78318672232
21
36.0479365964
0
LINE
8
0
10
6.78318672232
20
36.0479365964
11
7.04849130867
21
36.116268828
0
LINE
8
0
10
7.04849130867
20
36.116268828
11
7.36651806303
21
36.2161961747
0
LINE
8
0
10
7.36651806303
20
36.2161961747
11
7.79882142572
21
36.3095249341
0
LINE
8
0
10
7.79882142572
20
36.3095249341
11
8.11102301234
21
36.3167189888
0
LINE
8
0
10
8.11102301234
20
36.3167189888
11
8.29563280675
21
36.2507791538
0
LINE
8
0
10
8.29563280675
20
36.2507791538
11
9.34856029653
21
33.7087873278
0
LINE
8
0
10
9.34856029653
20
33.7087873278
11
9.26464796346
21
33.5316219859
0
LINE
8
0
10
9.26464796346
20
33.5316219859
11
9.03880113966
21
33.3159490917
0
LINE
8
0
10
9.03880113966
20
33.3159490917
11
8.66712310167
21
33.0762578511
0
LINE
8
0
10
8.66712310167
20
33.0762578511
11
8.37158492257
21
32.922038281
0
LINE
8
0
10
8.37158492257
20
32.922038281
11
8.13566806617
21
32.7827577932
0
LINE
8
0
10
8.13566806617
20
32.7827577932
11
7.79446624974
21
32.5564350541
0
LINE
8
0
10
7.79446624974
20
32.5564350541
11
7.35675316513
21
32.2318731851
0
LINE
8
0
10
7.35675316513
20
32.2318731851
11
6.83217475764
21
31.7985710042
0
LINE
8
0
10
6.83217475764
20
31.7985710042
11
6.23119963671
21
31.2467830294
0
LINE
8
0
10
6.23119963671
20
31.2467830294
11
5.56506562947
21
30.5675761581
0
LINE
8
0
10
5.56506562947
20
30.5675761581
11
5.35838401388
21
30.3334984543
0
LINE
8
0
10
5.35838401388
20
30.3334984543
11
5.8285417479
21
29.1984372764
0
LINE
8
0
10
5.8285417479
20
29.1984372764
11
6.4704737482
21
28.1508994587
0
LINE
8
0
10
6.4704737482
20
28.1508994587
11
6.78133099412
21
28.1805209759
0
LINE
8
0
10
6.78133099412
20
28.1805209759
11
7.7223646412
21
28.3202069261
0
LINE
8
0
10
7.7223646412
20
28.3202069261
11
8.52201480318
21
28.4820731782
0
LINE
8
0
10
8.52201480318
20
28.4820731782
11
9.18090308287
21
28.651777393
0
LINE
8
0
10
9.18090308287
20
28.651777393
11
9.70076044642
21
28.8151220371
0
LINE
8
0
10
9.70076044642
20
28.8151220371
11
10.0844127844
21
28.9581309367
0
LINE
8
0
10
10.0844127844
20
28.9581309367
11
10.3357615149
21
29.0671246662
0
LINE
8
0
10
10.3357615149
20
29.0671246662
11
10.6342407512
21
29.2155720866
0
LINE
8
0
10
10.6342407512
20
29.2155720866
11
11.0466219075
21
29.3753789595
0
LINE
8
0
10
11.0466219075
20
29.3753789595
11
11.3538543765
21
29.4313235315
0
LINE
8
0
10
11.3538543765
20
29.4313235315
11
11.5465065808
21
29.3950748598
0
LINE
8
0
10
11.5465065808
20
29.3950748598
11
12.9841259174
21
27.04909332
0
LINE
8
0
10
12.9841259174
20
27.04909332
11
12.9289614498
21
26.8609823964
0
LINE
8
0
10
12.9289614498
20
26.8609823964
11
12.739633849
21
26.6126345664
0
LINE
8
0
10
12.739633849
20
26.6126345664
11
12.4100277555
21
26.3177510677
0
LINE
8
0
10
12.4100277555
20
26.3177510677
11
12.1422533977
21
26.1191978395
0
LINE
8
0
10
12.1422533977
20
26.1191978395
11
11.9310293379
21
25.9447265984
0
LINE
8
0
10
11.9310293379
20
25.9447265984
11
11.6294329586
21
25.6678145441
0
LINE
8
0
10
11.6294329586
20
25.6678145441
11
11.2478815108
21
25.2787751581
0
LINE
8
0
10
11.2478815108
20
25.2787751581
11
10.7975449288
21
24.7687455035
0
LINE
8
0
10
10.7975449288
20
24.7687455035
11
10.2902874656
21
24.1297377328
0
LINE
8
0
10
10.2902874656
20
24.1297377328
11
9.73860603691
21
23.3546867081
0
LINE
8
0
10
9.73860603691
20
23.3546867081
11
9.57108683534
21
23.0911587613
0
LINE
8
0
10
9.57108683534
20
23.0911587613
11
10.2130188356
21
22.0436209436
0
LINE
8
0
10
10.2130188356
20
22.0436209436
11
11.0109186059
21
21.1094003438
0
LINE
8
0
10
11.0109186059
20
21.1094003438
11
11.3133148571
21
21.187285958
0
LINE
8
0
10
11.3133148571
20
21.187285958
11
12.2209111215
21
21.4724622375
0
LINE
8
0
10
12.2209111215
20
21.4724622375
11
12.9853948025
21
21.7574284927
0
LINE
8
0
10
12.9853948025
20
21.7574284927
11
13.6096234861
21
22.0281162025
0
LINE
8
0
10
13.6096234861
20
22.0281162025
11
14.0975278108
21
22.2707734116
0
LINE
8
0
10
14.0975278108
20
22.2707734116
11
14.4540852311
21
22.4720380826
0
LINE
8
0
10
14.4540852311
20
22.4720380826
11
14.6852890659
21
22.6190095226
0
LINE
8
0
10
14.6852890659
20
22.6190095226
11
14.9568712347
21
22.8123217486
0
LINE
8
0
10
14.9568712347
20
22.8123217486
11
15.339175992
21
23.0346717593
0
LINE
8
0
10
15.339175992
20
23.0346717593
11
15.6338742603
21
23.1379893077
0
LINE
8
0
10
15.6338742603
20
23.1379893077
11
15.8298251378
21
23.1323243618
0
LINE
8
0
10
15.8298251378
20
23.1323243618
11
17.616737362
21
21.0401189595
0
LINE
8
0
10
17.616737362
20
21.0401189595
11
17.5916790923
21
20.8456943696
0
LINE
8
0
10
17.5916790923
20
20.8456943696
11
17.4435325883
21
20.5707867515
0
LINE
8
0
10
17.4435325883
20
20.5707867515
11
17.1641144351
21
20.2279720051
0
LINE
8
0
10
17.1641144351
20
20.2279720051
11
16.9306973921
21
19.9899741582
0
LINE
8
0
10
16.9306973921
20
19.9899741582
11
16.7493671662
21
19.7846082248
0
LINE
8
0
10
16.7493671662
20
19.7846082248
11
16.4948025279
21
19.4639253492
0
LINE
8
0
10
16.4948025279
20
19.4639253492
11
16.1788077798
21
19.019987887
0
LINE
8
0
10
16.1788077798
20
19.019987887
11
15.8138018046
21
18.4457893815
0
LINE
8
0
10
15.8138018046
20
18.4457893815
11
15.4127523612
21
17.7352963069
0
LINE
8
0
10
15.4127523612
20
17.7352963069
11
14.9891077389
21
16.8834854572
0
LINE
8
0
10
14.9891077389
20
16.8834854572
11
14.86487583
21
16.5969962001
0
LINE
8
0
10
14.86487583
20
16.5969962001
11
15.6627756003
21
15.6627756003
0
LINE
8
0
10
15.6627756003
20
15.6627756003
11
16.5969962001
21
14.86487583
0
LINE
8
0
10
16.5969962001
20
14.86487583
11
16.8834854572
21
14.9891077389
0
LINE
8
0
10
16.8834854572
20
14.9891077389
11
17.7352963069
21
15.4127523612
0
LINE
8
0
10
17.7352963069
20
15.4127523612
11
18.4457893815
21
15.8138018046
0
LINE
8
0
10
18.4457893815
20
15.8138018046
11
19.019987887
21
16.1788077798
0
LINE
8
0
10
19.019987887
20
16.1788077798
11
19.4639253492
21
16.4948025279
0
LINE
8
0
10
19.4639253492
20
16.4948025279
11
19.7846082248
21
16.7493671662
0
LINE
8
0
10
19.7846082248
20
16.7493671662
11
19.9899741582
21
16.9306973921
0
LINE
8
0
10
19.9899741582
20
16.9306973921
11
20.2279720051
21
17.1641144351
0
LINE
8
0
10
20.2279720051
20
17.1641144351
11
20.5707867515
21
17.4435325883
0
LINE
8
0
10
20.5707867515
20
17.4435325883
11
20.8456943696
21
17.5916790923
0
LINE
8
0
10
20.8456943696
20
17.5916790923
11
21.0401189595
21
17.616737362
0
LINE
8
0
10
21.0401189595
20
17.616737362
11
23.1323243618
21
15.8298251378
0
LINE
8
0
10
23.1323243618
20
15.8298251378
11
23.1379893077
21
15.6338742603
0
LINE
8
0
10
23.1379893077
20
15.6338742603
11
23.0346717593
21
15.339175992
0
LINE
8
0
10
23.0346717593
20
15.339175992
11
22.8123217486
21
14.9568712347
0
LINE
8
0
10
22.8123217486
20
14.9568712347
11
22.6190095226
21
14.6852890659
0
LINE
8
0
10
22.6190095226
20
14.6852890659
11
22.4720380826
21
14.4540852311
0
LINE
8
0
10
22.4720380826
20
14.4540852311
11
22.2707734116
21
14.0975278108
0
LINE
8
0
10
22.2707734116
20
14.0975278108
11
22.0281162025
21
13.6096234861
0
LINE
8
0
10
22.0281162025
20
13.6096234861
11
21.7574284927
21
12.9853948025
0
LINE
8
0
10
21.7574284927
20
12.9853948025
11
21.4724622375
21
12.2209111215
0
LINE
8
0
10
21.4724622375
20
12.2209111215
11
21.187285958
21
11.3133148571
0
LINE
8
0
10
21.187285958
20
11.3133148571
11
21.1094003438
21
11.0109186059
0
LINE
8
0
10
21.1094003438
20
11.0109186059
11
22.0436209436
21
10.2130188356
0
LINE
8
0
10
22.0436209436
20
10.2130188356
11
23.0911587613
21
9.57108683534
0
LINE
8
0
10
23.0911587613
20
9.57108683534
11
23.3546867081
21
9.73860603691
0
LINE
8
0
10
23.3546867081
20
9.73860603691
11
24.1297377328
21
10.2902874656
0
LINE
8
0
10
24.1297377328
20
10.2902874656
11
24.7687455035
21
10.7975449288
0
LINE
8
0
10
24.7687455035
20
10.7975449288
11
25.2787751581
21
11.2478815108
0
LINE
8
0
10
25.2787751581
20
11.2478815108
11
25.6678145441
21
11.6294329586
0
LINE
8
0
10
25.6678145441
20
11.6294329586
11
25.9447265984
21
11.9310293379
0
LINE
8
0
10
25.9447265984
20
11.9310293379
11
26.1191978395
21
12.1422533977
0
LINE
8
0
10
26.1191978395
20
12.1422533977
11
26.3177510677
21
12.4100277555
0
LINE
8
0
10
26.3177510677
20
12.4100277555
11
26.6126345664
21
12.739633849
0
LINE
8
0
10
26.6126345664
20
12.739633849
11
26.8609823964
21
12.9289614498
0
LINE
8
0
10
26.8609823964
20
12.9289614498
11
27.04909332
21
12.9841259174
0
LINE
8
0
10
27.04909332
20
12.9841259174
11
29.3950748598
21
11.5465065808
0
LINE
8
0
10
29.3950748598
20
11.5465065808
11
29.4313235315
21
11.3538543765
0
LINE
8
0
10
29.4313235315
20
11.3538543765
11
29.3753789595
21
11.0466219075
0
LINE
8
0
10
29.3753789595
20
11.0466219075
11
29.2155720866
21
10.6342407512
0
LINE
8
0
10
29.2155720866
20
10.6342407512
11
29.0671246662
21
10.3357615149
0
LINE
8
0
10
29.0671246662
20
10.3357615149
11
28.9581309367
21
10.0844127844
0
LINE
8
0
10
28.9581309367
20
10.0844127844
11
28.8151220371
21
9.70076044642
0
LINE
8
0
10
28.8151220371
20
9.70076044642
11
28.651777393
21
9.18090308287
0
LINE
8
0
10
28.651777393
20
9.18090308287
11
28.4820731782
21
8.52201480318
0
LINE
8
0
10
28.4820731782
20
8.52201480318
11
28.3202069261
21
7.7223646412
0
LINE
8
0
10
28.3202069261
20
7.7223646412
11
28.1805209759
21
6.78133099412
0
LINE
8
0
10
28.1805209759
20
6.78133099412
11
28.1508994587
21
6.4704737482
0
LINE
8
0
10
28.1508994587
20
6.4704737482
11
29.1984372764
21
5.8285417479
0
LINE
8
0
10
29.1984372764
20
5.8285417479
11
30.3334984543
21
5.35838401388
0
LINE
8
0
10
30.3334984543
20
5.35838401388
11
30.5675761581
21
5.56506562947
0
LINE
8
0
10
30.5675761581
20
5.56506562947
11
31.2467830294
21
6.23119963671
0
LINE
8
0
10
31.2467830294
20
6.23119963671
11
31.7985710042
21
6.83217475764
0
LINE
8
0
10
31.7985710042
20
6.83217475764
11
32.2318731851
21
7.35675316513
0
LINE
8
0
10
32.2318731851
20
7.35675316513
11
32.5564350541
21
7.79446624974
0
LINE
8
0
10
32.5564350541
20
7.79446624974
11
32.7827577932
21
8.13566806617
0
LINE
8
0
10
32.7827577932
20
8.13566806617
11
32.922038281
21
8.37158492257
0
LINE
8
0
10
32.922038281
20
8.37158492257
11
33.0762578511
21
8.66712310167
0
LINE
8
0
10
33.0762578511
20
8.66712310167
11
33.3159490917
21
9.03880113966
0
LINE
8
0
10
33.3159490917
20
9.03880113966
11
33.5316219859
21
9.26464796346
0
LINE
8
0
10
33.5316219859
20
9.26464796346
11
33.7087873278
21
9.34856029653
0
LINE
8
0
10
33.7087873278
20
9.34856029653
11
36.2507791538
21
8.29563280675
0
LINE
8
0
10
36.2507791538
20
8.29563280675
11
36.3167189888
21
8.11102301234
0
LINE
8
0
10
36.3167189888
20
8.11102301234
11
36.3095249341
21
7.79882142572
0
LINE
8
0
10
36.3095249341
20
7.79882142572
11
36.2161961747
21
7.36651806303
0
LINE
8
0
10
36.2161961747
20
7.36651806303
11
36.116268828
21
7.04849130867
0
LINE
8
0
10
36.116268828
20
7.04849130867
11
36.0479365964
21
6.78318672232
0
LINE
8
0
10
36.0479365964
20
6.78318672232
11
35.9667048218
21
6.38188626058
0
LINE
8
0
10
35.9667048218
20
6.38188626058
11
35.8866948299
21
5.84287647182
0
LINE
8
0
10
35.8866948299
20
5.84287647182
11
35.8221527912
21
5.16555261215
0
LINE
8
0
10
35.8221527912
20
5.16555261215
11
35.7873722266
21
4.35042601006
0
LINE
8
0
10
35.7873722266
20
4.35042601006
11
35.7966161374
21
3.39912635184
0
LINE
8
0
10
35.7966161374
20
3.39912635184
11
35.8159880971
21
3.08746244825
0
LINE
8
0
10
35.8159880971
20
3.08746244825
11
36.9510492751
21
2.61730471422
0
LINE
8
0
10
36.9510492751
20
2.61730471422
11
38.14568484
21
2.33049809025
0
LINE
8
0
10
38.14568484
20
2.33049809025
11
38.3445485308
21
2.57125293255
0
LINE
8
0
10
38.3445485308
20
2.57125293255
11
38.9111869214
21
3.33543708833
0
LINE
8
0
10
38.9111869214
20
3.33543708833
11
39.362168249
21
4.01533186492
0
LINE
8
0
10
39.362168249
20
4.01533186492
11
39.7080736186
21
4.60123523661
0
LINE
8
0
10
39.7080736186
20
4.60123523661
11
39.9601661801
21
5.08433200914
0
LINE
8
0
10
39.9601661801
20
5.08433200914
11
40.1303267871
21
5.45673774164
0
LINE
8
0
10
40.1303267871
20
5.45673774164
11
40.2309869737
21
5.71153833865
0
LINE
8
0
10
40.2309869737
20
5.71153833865
11
40.3370754881
21
6.0275632083
0
LINE
8
0
10
40.3370754881
20
6.0275632083
11
40.5156724767
21
6.43216124387
0
LINE
8
0
10
40.5156724767
20
6.43216124387
11
40.6933598526
21
6.68896619233
0
LINE
8
0
10
40.6933598526
20
6.68896619233
11
40.8552172143
21
6.79956019082
0
LINE
8
0
10
40.8552172143
20
6.79956019082
11
43.5306270513
21
6.15725111711
0
LINE
8
0
10
43.5306270513
20
6.15725111711
11
43.6246343919
21
5.98522943842
0
LINE
8
0
10
43.6246343919
20
5.98522943842
11
43.6663679962
21
5.67574617331
0
LINE
8
0
10
43.6663679962
20
5.67574617331
11
43.6418154139
21
5.23416534783
0
LINE
8
0
10
43.6418154139
20
5.23416534783
11
43.5928686839
21
4.90442194951
0
LINE
8
0
10
43.5928686839
20
4.90442194951
11
43.5668805165
21
4.63169418678
0
LINE
8
0
10
43.5668805165
20
4.63169418678
11
43.5494260629
21
4.22262695045
0
LINE
8
0
10
43.5494260629
20
4.22262695045
11
43.5547208347
21
3.67773694634
0
LINE
8
0
10
43.5547208347
20
3.67773694634
11
43.5969302112
21
2.99865546804
0
LINE
8
0
10
43.5969302112
20
2.99865546804
11
43.690091747
21
2.18812354803
0
LINE
8
0
10
43.690091747
20
2.18812354803
11
43.8480379031
21
1.24998203344
0
LINE
8
0
10
43.8480379031
20
1.24998203344
11
43.9159263379
21
0.945185671833
0
LINE
8
0
10
43.9159263379
20
0.945185671833
11
45.1105619028
21
0.658379047854
0
LINE
8
0
10
45.1105619028
20
0.658379047854
11
46.3353559624
21
0.561985664861
0
LINE
8
0
10
46.3353559624
20
0.561985664861
11
46.4941089562
21
0.83088555064
0
LINE
8
0
10
46.4941089562
20
0.83088555064
11
46.9342263483
21
1.67430310487
0
LINE
8
0
10
46.9342263483
20
1.67430310487
11
47.2732963718
21
2.41637627127
0
LINE
8
0
10
47.2732963718
20
2.41637627127
11
47.5232875917
21
3.04917772164
0
LINE
8
0
10
47.5232875917
20
3.04917772164
11
47.6967034903
21
3.56576273625
0
LINE
8
0
10
47.6967034903
20
3.56576273625
11
47.8065120463
21
3.96020251974
0
LINE
8
0
10
47.8065120463
20
3.96020251974
11
47.8660733439
21
4.22761282104
0
LINE
8
0
10
47.8660733439
20
4.22761282104
11
47.9214185512
21
4.55634280011
0
LINE
8
0
10
47.9214185512
20
4.55634280011
11
48.0345236373
21
4.98389828685
0
LINE
8
0
10
48.0345236373
20
4.98389828685
11
48.169850242
21
5.26533796984
0
LINE
8
0
10
48.169850242
20
5.26533796984
11
48.312414158
21
5.39989044248
0
LINE
8
0
10
48.312414158
20
5.39989044248
11
51.0553645367
21
5.18401556594
0
LINE
8
0
10
51.0553645367
20
5.18401556594
11
51.1751246102
21
5.02881774759
0
LINE
8
0
10
51.1751246102
20
5.02881774759
11
51.2647582536
21
4.7296733091
0
LINE
8
0
10
51.2647582536
20
4.7296733091
11
51.3095864145
21
4.28968820626
0
LINE
8
0
10
51.3095864145
20
4.28968820626
11
51.312825532
21
3.95634754083
0
LINE
8
0
10
51.312825532
20
3.95634754083
11
51.3298213438
21
3.68291206436
0
LINE
8
0
10
51.3298213438
20
3.68291206436
11
51.3765739978
21
3.27615064641
0
LINE
8
0
10
51.3765739978
20
3.27615064641
11
51.4670431585
21
2.73879742724
0
LINE
8
0
10
51.4670431585
20
2.73879742724
11
51.6149646153
21
2.07467957004
0
LINE
8
0
10
51.6149646153
20
2.07467957004
11
51.8337743053
21
1.28870031799
0
LINE
8
0
10
51.8337743053
20
1.28870031799
11
52.1365335481
21
0.386817104629
0
LINE
8
0
10
52.1365335481
20
0.386817104629
11
52.2512668194
21
0.0963933829929
0
LINE
8
0
10
52.2512668194
20
0.0963933829929
11
53.4760608789
21
0.0
0
LINE
8
0
10
53.4760608789
20
0.0
11
54.7008549384
21
0.0963933829929
0
LINE
8
0
10
54.7008549384
20
0.0963933829929
11
54.8155882097
21
0.386817104629
0
LINE
8
0
10
54.8155882097
20
0.386817104629
11
55.1183474524
21
1.28870031799
0
LINE
8
0
10
55.1183474524
20
1.28870031799
11
55.3371571425
21
2.07467957004
0
LINE
8
0
10
55.3371571425
20
2.07467957004
11
55.4850785993
21
2.73879742724
0
LINE
8
0
10
55.4850785993
20
2.73879742724
11
55.57554776
21
3.27615064641
0
LINE
8
0
10
55.57554776
20
3.27615064641
11
55.622300414
21
3.68291206436
0
LINE
8
0
10
55.622300414
20
3.68291206436
11
55.6392962257
21
3.95634754083
0
LINE
8
0
10
55.6392962257
20
3.95634754083
11
55.6425353432
21
4.28968820626
0
LINE
8
0
10
55.6425353432
20
4.28968820626
11
55.6873635042
21
4.7296733091
0
LINE
8
0
10
55.6873635042
20
4.7296733091
11
55.7769971476
21
5.02881774759
0
LINE
8
0
10
55.7769971476
20
5.02881774759
11
55.8967572211
21
5.18401556594
0
LINE
8
0
10
55.8967572211
20
5.18401556594
11
58.6397075998
21
5.39989044248
0
LINE
8
0
10
58.6397075998
20
5.39989044248
11
58.7822715157
21
5.26533796984
0
LINE
8
0
10
58.7822715157
20
5.26533796984
11
58.9175981205
21
4.98389828685
0
LINE
8
0
10
58.9175981205
20
4.98389828685
11
59.0307032065
21
4.55634280011
0
LINE
8
0
10
59.0307032065
20
4.55634280011
11
59.0860484138
21
4.22761282104
0
LINE
8
0
10
59.0860484138
20
4.22761282104
11
59.1456097114
21
3.96020251974
0
LINE
8
0
10
59.1456097114
20
3.96020251974
11
59.2554182675
21
3.56576273625
0
LINE
8
0
10
59.2554182675
20
3.56576273625
11
59.428834166
21
3.04917772164
0
LINE
8
0
10
59.428834166
20
3.04917772164
11
59.678825386
21
2.41637627127
0
LINE
8
0
10
59.678825386
20
2.41637627127
11
60.0178954095
21
1.67430310487
0
LINE
8
0
10
60.0178954095
20
1.67430310487
11
60.4580128016
21
0.83088555064
0
LINE
8
0
10
60.4580128016
20
0.83088555064
11
60.6167657954
21
0.561985664861
0
LINE
8
0
10
60.6167657954
20
0.561985664861
11
61.8415598549
21
0.658379047854
0
LINE
8
0
10
61.8415598549
20
0.658379047854
11
63.0361954198
21
0.945185671833
0
LINE
8
0
10
63.0361954198
20
0.945185671833
11
63.1040838546
21
1.24998203344
0
LINE
8
0
10
63.1040838546
20
1.24998203344
11
63.2620300107
21
2.18812354803
0
LINE
8
0
10
63.2620300107
20
2.18812354803
11
63.3551915465
21
2.99865546804
0
LINE
8
0
10
63.3551915465
20
2.99865546804
11
63.397400923
21
3.67773694634
0
LINE
8
0
10
63.397400923
20
3.67773694634
11
63.4026956948
21
4.22262695045
0
LINE
8
0
10
63.4026956948
20
4.22262695045
11
63.3852412413
21
4.63169418678
0
LINE
8
0
10
63.3852412413
20
4.63169418678
11
63.3592530739
21
4.90442194951
0
LINE
8
0
10
63.3592530739
20
4.90442194951
11
63.3103063438
21
5.23416534783
0
LINE
8
0
10
63.3103063438
20
5.23416534783
11
63.2857537615
21
5.67574617331
0
LINE
8
0
10
63.2857537615
20
5.67574617331
11
63.3274873659
21
5.98522943842
0
LINE
8
0
10
63.3274873659
20
5.98522943842
11
63.4214947064
21
6.15725111711
0
LINE
8
0
10
63.4214947064
20
6.15725111711
11
66.0969045435
21
6.79956019082
0
LINE
8
0
10
66.0969045435
20
6.79956019082
11
66.2587619051
21
6.68896619233
0
LINE
8
0
10
66.2587619051
20
6.68896619233
11
66.436449281
21
6.43216124387
0
LINE
8
0
10
66.436449281
20
6.43216124387
11
66.6150462697
21
6.0275632083
0
LINE
8
0
10
66.6150462697
20
6.0275632083
11
66.721134784
21
5.71153833865
0
LINE
8
0
10
66.721134784
20
5.71153833865
11
66.8217949706
21
5.45673774164
0
LINE
8
0
10
66.8217949706
20
5.45673774164
11
66.9919555777
21
5.08433200914
0
LINE
8
0
10
66.9919555777
20
5.08433200914
11
67.2440481392
21
4.60123523661
0
LINE
8
0
10
67.2440481392
20
4.60123523661
11
67.5899535087
21
4.01533186492
0
LINE
8
0
10
67.5899535087
20
4.01533186492
11
68.0409348364
21
3.33543708833
0
LINE
8
0
10
68.0409348364
20
3.33543708833
11
68.6075732269
21
2.57125293255
0
LINE
8
0
10
68.6075732269
20
2.57125293255
11
68.8064369178
21
2.33049809025
0
LINE
8
0
10
68.8064369178
20
2.33049809025
11
70.0010724827
21
2.61730471422
0
LINE
8
0
10
70.0010724827
20
2.61730471422
11
71.1361336606
21
3.08746244825
0
LINE
8
0
10
71.1361336606
20
3.08746244825
11
71.1555056203
21
3.39912635184
0
LINE
8
0
10
71.1555056203
20
3.39912635184
11
71.1647495312
21
4.35042601006
0
LINE
8
0
10
71.1647495312
20
4.35042601006
11
71.1299689666
21
5.16555261215
0
LINE
8
0
10
71.1299689666
20
5.16555261215
11
71.0654269279
21
5.84287647182
0
LINE
8
0
10
71.0654269279
20
5.84287647182
11
70.9854169359
21
6.38188626058
0
LINE
8
0
10
70.9854169359
20
6.38188626058
11
70.9041851614
21
6.78318672232
0
LINE
8
0
10
70.9041851614
20
6.78318672232
11
70.8358529298
21
7.04849130867
0
LINE
8
0
10
70.8358529298
20
7.04849130867
11
70.7359255831
21
7.36651806303
0
LINE
8
0
10
70.7359255831
20
7.36651806303
11
70.6425968236
21
7.79882142572
0
LINE
8
0
10
70.6425968236
20
7.79882142572
11
70.635402769
21
8.11102301234
0
LINE
8
0
10
70.635402769
20
8.11102301234
11
70.7013426039
21
8.29563280675
0
LINE
8
0
10
70.7013426039
20
8.29563280675
11
73.24333443
21
9.34856029653
0
LINE
8
0
10
73.24333443
20
9.34856029653
11
73.4204997719
21
9.26464796346
0
LINE
8
0
10
73.4204997719
20
9.26464796346
11
73.6361726661
21
9.03880113966
0
LINE
8
0
10
73.6361726661
20
9.03880113966
11
73.8758639067
21
8.66712310167
0
LINE
8
0
10
73.8758639067
20
8.66712310167
11
74.0300834768
21
8.37158492257
0
LINE
8
0
10
74.0300834768
20
8.37158492257
11
74.1693639646
21
8.13566806617
0
LINE
8
0
10
74.1693639646
20
8.13566806617
11
74.3956867037
21
7.79446624974
0
LINE
8
0
10
74.3956867037
20
7.79446624974
11
74.7202485726
21
7.35675316513
0
LINE
8
0
10
74.7202485726
20
7.35675316513
11
75.1535507536
21
6.83217475764
0
LINE
8
0
10
75.1535507536
20
6.83217475764
11
75.7053387284
21
6.23119963671
0
LINE
8
0
10
75.7053387284
20
6.23119963671
11
76.3845455997
21
5.56506562947
0
LINE
8
0
10
76.3845455997
20
5.56506562947
11
76.6186233034
21
5.35838401388
0
LINE
8
0
10
76.6186233034
20
5.35838401388
11
77.7536844814
21
5.8285417479
0
LINE
8
0
10
77.7536844814
20
5.8285417479
11
78.8012222991
21
6.4704737482
0
LINE
8
0
10
78.8012222991
20
6.4704737482
11
78.7716007818
21
6.78133099412
0
LINE
8
0
10
78.7716007818
20
6.78133099412
11
78.6319148316
21
7.7223646412
0
LINE
8
0
10
78.6319148316
20
7.7223646412
11
78.4700485796
21
8.52201480318
0
LINE
8
0
10
78.4700485796
20
8.52201480318
11
78.3003443648
21
9.18090308287
0
LINE
8
0
10
78.3003443648
20
9.18090308287
11
78.1369997207
21
9.70076044642
0
LINE
8
0
10
78.1369997207
20
9.70076044642
11
77.993990821
21
10.0844127844
0
LINE
8
0
10
77.993990821
20
10.0844127844
11
77.8849970916
21
10.3357615149
0
LINE
8
0
10
77.8849970916
20
10.3357615149
11
77.7365496711
21
10.6342407512
0
LINE
8
0
10
77.7365496711
20
10.6342407512
11
77.5767427983
21
11.0466219075
0
LINE
8
0
10
77.5767427983
20
11.0466219075
11
77.5207982262
21
11.3538543765
0
LINE
8
0
10
77.5207982262
20
11.3538543765
11
77.5570468979
21
11.5465065808
0
LINE
8
0
10
77.5570468979
20
11.5465065808
11
79.9030284378
21
12.9841259174
0
LINE
8
0
10
79.9030284378
20
12.9841259174
11
80.0911393613
21
12.9289614498
0
LINE
8
0
10
80.0911393613
20
12.9289614498
11
80.3394871914
21
12.739633849
0
LINE
8
0
10
80.3394871914
20
12.739633849
11
80.6343706901
21
12.4100277555
0
LINE
8
0
10
80.6343706901
20
12.4100277555
11
80.8329239183
21
12.1422533977
0
LINE
8
0
10
80.8329239183
20
12.1422533977
11
81.0073951594
21
11.9310293379
0
LINE
8
0
10
81.0073951594
20
11.9310293379
11
81.2843072137
21
11.6294329586
0
LINE
8
0
10
81.2843072137
20
11.6294329586
11
81.6733465996
21
11.2478815108
0
LINE
8
0
10
81.6733465996
20
11.2478815108
11
82.1833762543
21
10.7975449288
0
LINE
8
0
10
82.1833762543
20
10.7975449288
11
82.822384025
21
10.2902874656
0
LINE
8
0
10
82.822384025
20
10.2902874656
11
83.5974350497
21
9.73860603691
0
LINE
8
0
10
83.5974350497
20
9.73860603691
11
83.8609629965
21
9.57108683534
0
LINE
8
0
10
83.8609629965
20
9.57108683534
11
84.9085008142
21
10.2130188356
0
LINE
8
0
10
84.9085008142
20
10.2130188356
11
85.842721414
21
11.0109186059
0
LINE
8
0
10
85.842721414
20
11.0109186059
11
85.7648357998
21
11.3133148571
0
LINE
8
0
10
85.7648357998
20
11.3133148571
11
85.4796595203
21
12.2209111215
0
LINE
8
0
10
85.4796595203
20
12.2209111215
11
85.1946932651
21
12.9853948025
0
LINE
8
0
10
85.1946932651
20
12.9853948025
11
84.9240055552
21
13.6096234861
0
LINE
8
0
10
84.9240055552
20
13.6096234861
11
84.6813483462
21
14.0975278108
0
LINE
8
0
10
84.6813483462
20
14.0975278108
11
84.4800836751
21
14.4540852311
0
LINE
8
0
10
84.4800836751
20
14.4540852311
11
84.3331122352
21
14.6852890659
0
LINE
8
0
10
84.3331122352
20
14.6852890659
11
84.1398000091
21
14.9568712347
0
LINE
8
0
10
84.1398000091
20
14.9568712347
11
83.9174499985
21
15.339175992
0
LINE
8
0
10
83.9174499985
20
15.339175992
11
83.81413245
21
15.6338742603
0
LINE
8
0
10
83.81413245
20
15.6338742603
11
83.8197973959
21
15.8298251378
0
LINE
8
0
10
83.8197973959
20
15.8298251378
11
85.9120027983
21
17.616737362
0
LINE
8
0
10
85.9120027983
20
17.616737362
11
86.1064273881
21
17.5916790923
0
LINE
8
0
10
86.1064273881
20
17.5916790923
11
86.3813350062
21
17.4435325883
0
LINE
8
0
10
86.3813350062
20
17.4435325883
11
86.7241497526
21
17.1641144351
0
LINE
8
0
10
86.7241497526
20
17.1641144351
11
86.9621475996
21
16.9306973921
0
LINE
8
0
10
86.9621475996
20
16.9306973921
11
87.1675135329
21
16.7493671662
0
LINE
8
0
10
87.1675135329
20
16.7493671662
11
87.4881964086
21
16.4948025279
0
LINE
8
0
10
87.4881964086
20
16.4948025279
11
87.9321338708
21
16.1788077798
0
LINE
8
0
10
87.9321338708
20
16.1788077798
11
88.5063323763
21
15.8138018046
0
LINE
8
0
10
88.5063323763
20
15.8138018046
11
89.2168254509
21
15.4127523612
0
LINE
8
0
10
89.2168254509
20
15.4127523612
11
90.0686363005
21
14.9891077389
0
LINE
8
0
10
90.0686363005
20
14.9891077389
11
90.3551255577
21
14.86487583
0
LINE
8
0
10
90.3551255577
20
14.86487583
11
91.2893461575
21
15.6627756003
0
LINE
8
0
10
91.2893461575
20
15.6627756003
11
92.0872459277
21
16.5969962001
0
LINE
8
0
10
92.0872459277
20
16.5969962001
11
91.9630140189
21
16.8834854572
0
LINE
8
0
10
91.9630140189
20
16.8834854572
11
91.5393693965
21
17.7352963069
0
LINE
8
0
10
91.5393693965
20
17.7352963069
11
91.1383199531
21
18.4457893815
0
LINE
8
0
10
91.1383199531
20
18.4457893815
11
90.773313978
21
19.019987887
0
LINE
8
0
10
90.773313978
20
19.019987887
11
90.4573192298
21
19.4639253492
0
LINE
8
0
10
90.4573192298
20
19.4639253492
11
90.2027545916
21
19.7846082248
0
LINE
8
0
10
90.2027545916
20
19.7846082248
11
90.0214243657
21
19.9899741582
0
LINE
8
0
10
90.0214243657
20
19.9899741582
11
89.7880073227
21
20.2279720051
0
LINE
8
0
10
89.7880073227
20
20.2279720051
11
89.5085891694
21
20.5707867515
0
LINE
8
0
10
89.5085891694
20
20.5707867515
11
89.3604426655
21
20.8456943696
0
LINE
8
0
10
89.3604426655
20
20.8456943696
11
89.3353843958
21
21.0401189595
0
LINE
8
0
10
89.3353843958
20
21.0401189595
11
91.1222966199
21
23.1323243618
0
LINE
8
0
10
91.1222966199
20
23.1323243618
11
91.3182474975
21
23.1379893077
0
LINE
8
0
10
91.3182474975
20
23.1379893077
11
91.6129457657
21
23.0346717593
0
LINE
8
0
10
91.6129457657
20
23.0346717593
11
91.9952505231
21
22.8123217486
0
LINE
8
0
10
91.9952505231
20
22.8123217486
11
92.2668326918
21
22.6190095226
0
LINE
8
0
10
92.2668326918
20
22.6190095226
11
92.4980365267
21
22.4720380826
0
LINE
8
0
10
92.4980365267
20
22.4720380826
11
92.854593947
21
22.2707734116
0
LINE
8
0
10
92.854593947
20
22.2707734116
11
93.3424982717
21
22.0281162025
0
LINE
8
0
10
93.3424982717
20
22.0281162025
11
93.9667269552
21
21.7574284927
0
LINE
8
0
10
93.9667269552
20
21.7574284927
11
94.7312106362
21
21.4724622375
0
LINE
8
0
10
94.7312106362
20
21.4724622375
11
95.6388069007
21
21.187285958
0
LINE
8
0
10
95.6388069007
20
21.187285958
11
95.9412031518
21
21.1094003438
0
LINE
8
0
10
95.9412031518
20
21.1094003438
11
96.7391029221
21
22.0436209436
0
LINE
8
0
10
96.7391029221
20
22.0436209436
11
97.3810349224
21
23.0911587613
0
LINE
8
0
10
97.3810349224
20
23.0911587613
11
97.2135157208
21
23.3546867081
0
LINE
8
0
10
97.2135157208
20
23.3546867081
11
96.6618342922
21
24.1297377328
0
LINE
8
0
10
96.6618342922
20
24.1297377328
11
96.1545768289
21
24.7687455035
0
LINE
8
0
10
96.1545768289
20
24.7687455035
11
95.704240247
21
25.2787751581
0
LINE
8
0
10
95.704240247
20
25.2787751581
11
95.3226887991
21
25.6678145441
0
LINE
8
0
10
95.3226887991
20
25.6678145441
11
95.0210924199
21
25.9447265984
0
LINE
8
0
10
95.0210924199
20
25.9447265984
11
94.80986836
21
26.1191978395
0
LINE
8
0
10
94.80986836
20
26.1191978395
11
94.5420940023
21
26.3177510677
0
LINE
8
0
10
94.5420940023
20
26.3177510677
11
94.2124879087
21
26.6126345664
0
LINE
8
0
10
94.2124879087
20
26.6126345664
11
94.0231603079
21
26.8609823964
0
LINE
8
0
10
94.0231603079
20
26.8609823964
11
93.9679958404
21
27.04909332
0
LINE
8
0
10
93.9679958404
20
27.04909332
11
95.405615177
21
29.3950748598
0
LINE
8
0
10
95.405615177
20
29.3950748598
11
95.5982673813
21
29.4313235315
0
LINE
8
0
10
95.5982673813
20
29.4313235315
11
95.9054998502
21
29.3753789595
0
LINE
8
0
10
95.9054998502
20
29.3753789595
11
96.3178810066
21
29.2155720866
0
LINE
8
0
10
96.3178810066
20
29.2155720866
11
96.6163602428
21
29.0671246662
0
LINE
8
0
10
96.6163602428
20
29.0671246662
11
96.8677089734
21
28.9581309367
0
LINE
8
0
10
96.8677089734
20
28.9581309367
11
97.2513613113
21
28.8151220371
0
LINE
8
0
10
97.2513613113
20
28.8151220371
11
97.7712186749
21
28.651777393
0
LINE
8
0
10
97.7712186749
20
28.651777393
11
98.4301069546
21
28.4820731782
0
LINE
8
0
10
98.4301069546
20
28.4820731782
11
99.2297571166
21
28.3202069261
0
LINE
8
0
10
99.2297571166
20
28.3202069261
11
100.170790764
21
28.1805209759
0
LINE
8
0
10
100.170790764
20
28.1805209759
11
100.48164801
21
28.1508994587
0
LINE
8
0
10
100.48164801
20
28.1508994587
11
101.12358001
21
29.1984372764
0
LINE
8
0
10
101.12358001
20
29.1984372764
11
101.593737744
21
30.3334984543
0
LINE
8
0
10
101.593737744
20
30.3334984543
11
101.387056128
21
30.5675761581
0
LINE
8
0
10
101.387056128
20
30.5675761581
11
100.720922121
21
31.2467830294
0
LINE
8
0
10
100.720922121
20
31.2467830294
11
100.119947
21
31.7985710042
0
LINE
8
0
10
100.119947
20
31.7985710042
11
99.5953685926
21
32.2318731851
0
LINE
8
0
10
99.5953685926
20
32.2318731851
11
99.157655508
21
32.5564350541
0
LINE
8
0
10
99.157655508
20
32.5564350541
11
98.8164536916
21
32.7827577932
0
LINE
8
0
10
98.8164536916
20
32.7827577932
11
98.5805368352
21
32.922038281
0
LINE
8
0
10
98.5805368352
20
32.922038281
11
98.2849986561
21
33.0762578511
0
LINE
8
0
10
98.2849986561
20
33.0762578511
11
97.9133206181
21
33.3159490917
0
LINE
8
0
10
97.9133206181
20
33.3159490917
11
97.6874737943
21
33.5316219859
0
LINE
8
0
10
97.6874737943
20
33.5316219859
11
97.6035614612
21
33.7087873278
0
LINE
8
0
10
97.6035614612
20
33.7087873278
11
98.656488951
21
36.2507791538
0
LINE
8
0
10
98.656488951
20
36.2507791538
11
98.8410987454
21
36.3167189888
0
LINE
8
0
10
98.8410987454
20
36.3167189888
11
99.153300332
21
36.3095249341
0
LINE
8
0
10
99.153300332
20
36.3095249341
11
99.5856036947
21
36.2161961747
0
LINE
8
0
10
99.5856036947
20
36.2161961747
11
99.9036304491
21
36.116268828
0
LINE
8
0
10
99.9036304491
20
36.116268828
11
100.168935035
21
36.0479365964
0
LINE
8
0
10
100.168935035
20
36.0479365964
11
100.570235497
21
35.9667048218
0
LINE
8
0
10
100.570235497
20
35.9667048218
11
101.109245286
21
35.8866948299
0
LINE
8
0
10
101.109245286
20
35.8866948299
11
101.786569146
21
35.8221527912
0
LINE
8
0
10
101.786569146
20
35.8221527912
11
102.601695748
21
35.7873722266
0
LINE
8
0
10
102.601695748
20
35.7873722266
11
103.552995406
21
35.7966161374
0
LINE
8
0
10
103.552995406
20
35.7966161374
11
103.86465931
21
35.8159880971
0
LINE
8
0
10
103.86465931
20
35.8159880971
11
104.334817044
21
36.9510492751
0
LINE
8
0
10
104.334817044
20
36.9510492751
11
104.621623668
21
38.14568484
0
LINE
8
0
10
104.621623668
20
38.14568484
11
104.380868825
21
38.3445485308
0
LINE
8
0
10
104.380868825
20
38.3445485308
11
103.616684669
21
38.9111869214
0
LINE
8
0
10
103.616684669
20
38.9111869214
11
102.936789893
21
39.362168249
0
LINE
8
0
10
102.936789893
20
39.362168249
11
102.350886521
21
39.7080736186
0
LINE
8
0
10
102.350886521
20
39.7080736186
11
101.867789749
21
39.9601661801
0
LINE
8
0
10
101.867789749
20
39.9601661801
11
101.495384016
21
40.1303267871
0
LINE
8
0
10
101.495384016
20
40.1303267871
11
101.240583419
21
40.2309869737
0
LINE
8
0
10
101.240583419
20
40.2309869737
11
100.924558549
21
40.3370754881
0
LINE
8
0
10
100.924558549
20
40.3370754881
11
100.519960514
21
40.5156724767
0
LINE
8
0
10
100.519960514
20
40.5156724767
11
100.263155565
21
40.6933598526
0
LINE
8
0
10
100.263155565
20
40.6933598526
11
100.152561567
21
40.8552172143
0
LINE
8
0
10
100.152561567
20
40.8552172143
11
100.794870641
21
43.5306270513
0
LINE
8
0
10
100.794870641
20
43.5306270513
11
100.966892319
21
43.6246343919
0
LINE
8
0
10
100.966892319
20
43.6246343919
11
101.276375584
21
43.6663679962
0
LINE
8
0
10
101.276375584
20
43.6663679962
11
101.71795641
21
43.6418154139
0
LINE
8
0
10
101.71795641
20
43.6418154139
11
102.047699808
21
43.5928686839
0
LINE
8
0
10
102.047699808
20
43.5928686839
11
102.320427571
21
43.5668805165
0
LINE
8
0
10
102.320427571
20
43.5668805165
11
102.729494807
21
43.5494260629
0
LINE
8
0
10
102.729494807
20
43.5494260629
11
103.274384811
21
43.5547208347
0
LINE
8
0
10
103.274384811
20
43.5547208347
11
103.95346629
21
43.5969302112
0
LINE
8
0
10
103.95346629
20
43.5969302112
11
104.76399821
21
43.690091747
0
LINE
8
0
10
104.76399821
20
43.690091747
11
105.702139724
21
43.8480379031
0
LINE
8
0
10
105.702139724
20
43.8480379031
11
106.006936086
21
43.9159263379
0
LINE
8
0
10
53.7879284151
20
52.0088394778
11
53.4760608789
21
51.9760608789
0
LINE
8
0
10
53.4760608789
20
51.9760608789
11
53.1641933427
21
52.0088394778
0
LINE
8
0
10
53.1641933427
20
52.0088394778
11
52.8659559143
21
52.1057426924
0
LINE
8
0
10
52.8659559143
20
52.1057426924
11
52.5943830004
21
52.2625353873
0
LINE
8
0
10
52.5943830004
20
52.2625353873
11
52.3613436407
21
52.4723649693
0
LINE
8
0
10
52.3613436407
20
52.4723649693
11
52.1770227732
21
52.7260608789
0
LINE
8
0
10
52.1770227732
20
52.7260608789
11
52.0494761044
21
53.0125353873
0
LINE
8
0
10
52.0494761044
20
53.0125353873
11
51.9842780358
21
53.319268184
0
LINE
8
0
10
51.9842780358
20
53.319268184
11
51.9842780358
21
53.6328535738
0
LINE
8
0
10
51.9842780358
20
53.6328535738
11
52.0494761044
21
53.9395863704
0
LINE
8
0
10
52.0494761044
20
53.9395863704
11
52.1770227732
21
54.2260608789
0
LINE
8
0
10
52.1770227732
20
54.2260608789
11
52.3613436407
21
54.4797567884
0
LINE
8
0
10
52.3613436407
20
54.4797567884
11
52.5943830004
21
54.6895863704
0
LINE
8
0
10
52.5943830004
20
54.6895863704
11
52.8659559143
21
54.8463790653
0
LINE
8
0
10
52.8659559143
20
54.8463790653
11
53.1641933427
21
54.94328228
0
LINE
8
0
10
53.1641933427
20
54.94328228
11
53.4760608789
21
54.9760608789
0
LINE
8
0
10
53.4760608789
20
54.9760608789
11
53.7879284151
21
54.94328228
0
LINE
8
0
10
53.7879284151
20
54.94328228
11
54.0861658435
21
54.8463790653
0
LINE
8
0
10
54.0861658435
20
54.8463790653
11
54.3577387573
21
54.6895863704
0
LINE
8
0
10
54.3577387573
20
54.6895863704
11
54.5907781171
21
54.4797567884
0
LINE
8
0
10
54.5907781171
20
54.4797567884
11
54.7750989846
21
54.2260608789
0
LINE
8
0
10
54.7750989846
20
54.2260608789
11
54.9026456533
21
53.9395863704
0
LINE
8
0
10
54.9026456533
20
53.9395863704
11
54.9678437219
21
53.6328535738
0
LINE
8
0
10
54.9678437219
20
53.6328535738
11
54.9678437219
21
53.319268184
0
LINE
8
0
10
54.9678437219
20
53.319268184
11
54.9026456533
21
53.0125353873
0
LINE
8
0
10
54.9026456533
20
53.0125353873
11
54.7750989846
21
52.7260608789
0
LINE
8
0
10
54.7750989846
20
52.7260608789
11
54.5907781171
21
52.4723649693
0
LINE
8
0
10
54.5907781171
20
52.4723649693
11
54.3577387573
21
52.2625353873
0
LINE
8
0
10
54.3577387573
20
52.2625353873
11
54.0861658435
21
52.1057426924
0
LINE
8
0
10
54.0861658435
20
52.1057426924
11
53.7879284151
21
52.0088394778
0
ENDSEC
0
EOF
