  0
SECTION
  2
BLOCKS
  0
ENDSEC
  0
SECTION
  2
ENTITIES
  0
LINE
  8
0
 10
4.307698073514874
 20
-9.187435127552316
 11
5.092958178940651
 21
-8.821262326748673
  0
LINE
  8
0
 10
5.092958178940651
 20
-8.821262326748673
 11
5.802703179324394
 21
-8.324293527273323
  0
LINE
  8
0
 10
5.802703179324394
 20
-8.324293527273323
 11
5.912327906520547
 21
-7.8864601323496775
  0
LINE
  8
0
 10
5.912327906520547
 20
-7.8864601323496775
 11
5.727417165940155
 21
-6.110235041238509
  0
LINE
  8
0
 10
5.727417165940155
 20
-6.110235041238509
 11
5.354248658826705
 21
-5.343199487365605
  0
LINE
  8
0
 10
5.354248658826705
 20
-5.343199487365605
 11
4.264391918323192
 21
-4.856670350500238
  0
LINE
  8
0
 10
4.264391918323192
 20
-4.856670350500238
 11
3.6794718617570727
 21
-3.712884148298006
  0
LINE
  8
0
 10
3.6794718617570727
 20
-3.712884148298006
 11
5.055187924613161
 21
-1.3300740306426415
  0
LINE
  8
0
 10
5.055187924613161
 20
-1.3300740306426415
 11
6.33819586050148
 21
-1.2647365577108027
  0
LINE
  8
0
 10
6.33819586050148
 20
-1.2647365577108027
 11
7.304470822959962
 21
-1.9653156130398708
  0
LINE
  8
0
 10
7.304470822959962
 20
-1.9653156130398708
 11
8.155327351776496
 21
-1.9049712431559853
  0
LINE
  8
0
 10
8.155327351776496
 20
-1.9049712431559853
 11
9.786038773808281
 21
-1.1769960963756179
  0
LINE
  8
0
 10
9.786038773808281
 20
-1.1769960963756179
 11
10.110401252839265
 21
-0.8631416002789909
  0
LINE
  8
0
 10
10.110401252839265
 20
-0.8631416002789909
 11
10.185916357881302
 21
-1.152669944832014e-15
  0
LINE
  8
0
 10
10.185916357881302
 20
-1.152669944832014e-15
 11
10.110401252839265
 21
0.8631416002789913
  0
LINE
  8
0
 10
10.110401252839265
 20
0.8631416002789913
 11
9.78603877380828
 21
1.1769960963756219
  0
LINE
  8
0
 10
9.78603877380828
 20
1.1769960963756219
 11
8.155327351776483
 21
1.9049712431559924
  0
LINE
  8
0
 10
8.155327351776483
 20
1.9049712431559924
 11
7.304470822959956
 21
1.9653156130398837
  0
LINE
  8
0
 10
7.304470822959956
 20
1.9653156130398837
 11
6.338195860501476
 21
1.2647365577108203
  0
LINE
  8
0
 10
6.338195860501476
 20
1.2647365577108203
 11
5.0551879246131595
 21
1.3300740306426448
  0
LINE
  8
0
 10
5.0551879246131595
 20
1.3300740306426448
 11
3.67947186175707
 21
3.7128841482980106
  0
LINE
  8
0
 10
3.67947186175707
 20
3.7128841482980106
 11
4.26439191832318
 21
4.8566703505002495
  0
LINE
  8
0
 10
4.26439191832318
 20
4.8566703505002495
 11
5.354248658826698
 21
5.343199487365616
  0
LINE
  8
0
 10
5.354248658826698
 20
5.343199487365616
 11
5.727417165940155
 21
6.110235041238523
  0
LINE
  8
0
 10
5.727417165940155
 20
6.110235041238523
 11
5.912327906520543
 21
7.886460132349678
  0
LINE
  8
0
 10
5.912327906520543
 20
7.886460132349678
 11
5.802703179324393
 21
8.324293527273323
  0
LINE
  8
0
 10
5.802703179324393
 20
8.324293527273323
 11
5.092958178940653
 21
8.82126232674867
  0
LINE
  8
0
 10
5.092958178940653
 20
8.82126232674867
 11
4.3076980735148735
 21
9.187435127552313
  0
LINE
  8
0
 10
4.3076980735148735
 20
9.187435127552313
 11
3.8737108672877354
 21
9.063456228725297
  0
LINE
  8
0
 10
3.8737108672877354
 20
9.063456228725297
 11
2.4279101858363292
 21
8.015206284394502
  0
LINE
  8
0
 10
2.4279101858363292
 20
8.015206284394502
 11
1.950222164133252
 21
7.308515100405488
  0
LINE
  8
0
 10
1.950222164133252
 20
7.308515100405488
 11
2.0738039421782846
 21
6.121406908211058
  0
LINE
  8
0
 10
2.0738039421782846
 20
6.121406908211058
 11
1.3757160628560874
 21
5.042958178940651
  0
LINE
  8
0
 10
1.3757160628560874
 20
5.042958178940651
 11
-1.3757160628560898
 21
5.042958178940653
  0
LINE
  8
0
 10
-1.3757160628560898
 20
5.042958178940653
 11
-2.073803942178299
 21
6.121406908211053
  0
LINE
  8
0
 10
-2.073803942178299
 20
6.121406908211053
 11
-1.9502221641332633
 21
7.308515100405487
  0
LINE
  8
0
 10
-1.9502221641332633
 20
7.308515100405487
 11
-2.42791018583634
 21
8.015206284394509
  0
LINE
  8
0
 10
-2.42791018583634
 20
8.015206284394509
 11
-3.8737108672877363
 21
9.063456228725299
  0
LINE
  8
0
 10
-3.8737108672877363
 20
9.063456228725299
 11
-4.307698073514871
 21
9.187435127552314
  0
LINE
  8
0
 10
-4.307698073514871
 20
9.187435127552314
 11
-5.09295817894065
 21
8.821262326748673
  0
LINE
  8
0
 10
-5.09295817894065
 20
8.821262326748673
 11
-5.802703179324393
 21
8.324293527273323
  0
LINE
  8
0
 10
-5.802703179324393
 20
8.324293527273323
 11
-5.912327906520546
 21
7.886460132349678
  0
LINE
  8
0
 10
-5.912327906520546
 20
7.886460132349678
 11
-5.727417165940154
 21
6.11023504123851
  0
LINE
  8
0
 10
-5.727417165940154
 20
6.11023504123851
 11
-5.354248658826704
 21
5.343199487365606
  0
LINE
  8
0
 10
-5.354248658826704
 20
5.343199487365606
 11
-4.2643919183231915
 21
4.856670350500239
  0
LINE
  8
0
 10
-4.2643919183231915
 20
4.856670350500239
 11
-3.6794718617570723
 21
3.7128841482980066
  0
LINE
  8
0
 10
-3.6794718617570723
 20
3.7128841482980066
 11
-5.055187924613161
 21
1.3300740306426422
  0
LINE
  8
0
 10
-5.055187924613161
 20
1.3300740306426422
 11
-6.33819586050148
 21
1.2647365577108034
  0
LINE
  8
0
 10
-6.33819586050148
 20
1.2647365577108034
 11
-7.304470822959962
 21
1.9653156130398717
  0
LINE
  8
0
 10
-7.304470822959962
 20
1.9653156130398717
 11
-8.155327351776496
 21
1.9049712431559862
  0
LINE
  8
0
 10
-8.155327351776496
 20
1.9049712431559862
 11
-9.786038773808281
 21
1.176996096375619
  0
LINE
  8
0
 10
-9.786038773808281
 20
1.176996096375619
 11
-10.110401252839265
 21
0.8631416002789921
  0
LINE
  8
0
 10
-10.110401252839265
 20
0.8631416002789921
 11
-10.185916357881302
 21
4.705383623632515e-15
  0
LINE
  8
0
 10
-10.185916357881302
 20
4.705383623632515e-15
 11
-10.110401252839265
 21
-0.8631416002789878
  0
LINE
  8
0
 10
-10.110401252839265
 20
-0.8631416002789878
 11
-9.786038773808281
 21
-1.1769960963756174
  0
LINE
  8
0
 10
-9.786038773808281
 20
-1.1769960963756174
 11
-8.155327351776485
 21
-1.9049712431559898
  0
LINE
  8
0
 10
-8.155327351776485
 20
-1.9049712431559898
 11
-7.304470822959956
 21
-1.965315613039881
  0
LINE
  8
0
 10
-7.304470822959956
 20
-1.965315613039881
 11
-6.338195860501477
 21
-1.2647365577108176
  0
LINE
  8
0
 10
-6.338195860501477
 20
-1.2647365577108176
 11
-5.0551879246131595
 21
-1.3300740306426433
  0
LINE
  8
0
 10
-5.0551879246131595
 20
-1.3300740306426433
 11
-3.679471861757072
 21
-3.7128841482980093
  0
LINE
  8
0
 10
-3.679471861757072
 20
-3.7128841482980093
 11
-4.264391918323182
 21
-4.856670350500248
  0
LINE
  8
0
 10
-4.264391918323182
 20
-4.856670350500248
 11
-5.3542486588267
 21
-5.343199487365613
  0
LINE
  8
0
 10
-5.3542486588267
 20
-5.343199487365613
 11
-5.727417165940158
 21
-6.1102350412385205
  0
LINE
  8
0
 10
-5.727417165940158
 20
-6.1102350412385205
 11
-5.912327906520547
 21
-7.886460132349677
  0
LINE
  8
0
 10
-5.912327906520547
 20
-7.886460132349677
 11
-5.802703179324396
 21
-8.32429352727332
  0
LINE
  8
0
 10
-5.802703179324396
 20
-8.32429352727332
 11
-5.092958178940649
 21
-8.821262326748673
  0
LINE
  8
0
 10
-5.092958178940649
 20
-8.821262326748673
 11
-4.30769807351487
 21
-9.187435127552316
  0
LINE
  8
0
 10
-4.30769807351487
 20
-9.187435127552316
 11
-3.8737108672877327
 21
-9.0634562287253
  0
LINE
  8
0
 10
-3.8737108672877327
 20
-9.0634562287253
 11
-2.4279101858363275
 21
-8.015206284394502
  0
LINE
  8
0
 10
-2.4279101858363275
 20
-8.015206284394502
 11
-1.9502221641332502
 21
-7.308515100405489
  0
LINE
  8
0
 10
-1.9502221641332502
 20
-7.308515100405489
 11
-2.0738039421782823
 21
-6.121406908211059
  0
LINE
  8
0
 10
-2.0738039421782823
 20
-6.121406908211059
 11
-1.3757160628560856
 21
-5.042958178940652
  0
LINE
  8
0
 10
-1.3757160628560856
 20
-5.042958178940652
 11
1.3757160628560918
 21
-5.042958178940652
  0
LINE
  8
0
 10
1.3757160628560918
 20
-5.042958178940652
 11
2.073803942178302
 21
-6.1214069082110525
  0
LINE
  8
0
 10
2.073803942178302
 20
-6.1214069082110525
 11
1.9502221641332662
 21
-7.308515100405487
  0
LINE
  8
0
 10
1.9502221641332662
 20
-7.308515100405487
 11
2.4279101858363425
 21
-8.015206284394509
  0
LINE
  8
0
 10
2.4279101858363425
 20
-8.015206284394509
 11
3.873710867287739
 21
-9.063456228725297
  0
LINE
  8
0
 10
3.873710867287739
 20
-9.063456228725297
 11
4.307698073514874
 21
-9.187435127552316
  0
LINE
  8
0
 10
0.3118675362266391
 20
-1.4672214011007085
 11
9.18454765366783e-17
 21
-1.5
  0
LINE
  8
0
 10
9.18454765366783e-17
 20
-1.5
 11
-0.3118675362266384
 21
-1.4672214011007085
  0
LINE
  8
0
 10
-0.3118675362266384
 20
-1.4672214011007085
 11
-0.6101049646137001
 21
-1.3703181864639014
  0
LINE
  8
0
 10
-0.6101049646137001
 20
-1.3703181864639014
 11
-0.8816778784387099
 21
-1.213525491562421
  0
LINE
  8
0
 10
-0.8816778784387099
 20
-1.213525491562421
 11
-1.114717238216091
 21
-1.0036959095382878
  0
LINE
  8
0
 10
-1.114717238216091
 20
-1.0036959095382878
 11
-1.299038105676658
 21
-0.7500000000000003
  0
LINE
  8
0
 10
-1.299038105676658
 20
-0.7500000000000003
 11
-1.4265847744427305
 21
-0.46352549156242095
  0
LINE
  8
0
 10
-1.4265847744427305
 20
-0.46352549156242095
 11
-1.49178284305241
 21
-0.15679269490147957
  0
LINE
  8
0
 10
-1.49178284305241
 20
-0.15679269490147957
 11
-1.4917828430524098
 21
0.15679269490148126
  0
LINE
  8
0
 10
-1.4917828430524098
 20
0.15679269490148126
 11
-1.4265847744427302
 21
0.46352549156242123
  0
LINE
  8
0
 10
-1.4265847744427302
 20
0.46352549156242123
 11
-1.2990381056766576
 21
0.7500000000000006
  0
LINE
  8
0
 10
-1.2990381056766576
 20
0.7500000000000006
 11
-1.114717238216091
 21
1.0036959095382878
  0
LINE
  8
0
 10
-1.114717238216091
 20
1.0036959095382878
 11
-0.8816778784387097
 21
1.2135254915624214
  0
LINE
  8
0
 10
-0.8816778784387097
 20
1.2135254915624214
 11
-0.6101049646137005
 21
1.3703181864639014
  0
LINE
  8
0
 10
-0.6101049646137005
 20
1.3703181864639014
 11
-0.3118675362266387
 21
1.4672214011007085
  0
LINE
  8
0
 10
-0.3118675362266387
 20
1.4672214011007085
 11
7.579792913117722e-16
 21
1.5
  0
LINE
  8
0
 10
7.579792913117722e-16
 20
1.5
 11
0.3118675362266389
 21
1.4672214011007085
  0
LINE
  8
0
 10
0.3118675362266389
 20
1.4672214011007085
 11
0.6101049646136999
 21
1.3703181864639014
  0
LINE
  8
0
 10
0.6101049646136999
 20
1.3703181864639014
 11
0.8816778784387097
 21
1.213525491562421
  0
LINE
  8
0
 10
0.8816778784387097
 20
1.213525491562421
 11
1.1147172382160917
 21
1.003695909538287
  0
LINE
  8
0
 10
1.1147172382160917
 20
1.003695909538287
 11
1.299038105676658
 21
0.7499999999999998
  0
LINE
  8
0
 10
1.299038105676658
 20
0.7499999999999998
 11
1.4265847744427305
 21
0.4635254915624211
  0
LINE
  8
0
 10
1.4265847744427305
 20
0.4635254915624211
 11
1.49178284305241
 21
0.1567926949014801
  0
LINE
  8
0
 10
1.49178284305241
 20
0.1567926949014801
 11
1.4917828430524098
 21
-0.1567926949014801
  0
LINE
  8
0
 10
1.4917828430524098
 20
-0.1567926949014801
 11
1.4265847744427302
 21
-0.46352549156242107
  0
LINE
  8
0
 10
1.4265847744427302
 20
-0.46352549156242107
 11
1.299038105676658
 21
-0.7500000000000001
  0
LINE
  8
0
 10
1.299038105676658
 20
-0.7500000000000001
 11
1.1147172382160913
 21
-1.0036959095382874
  0
LINE
  8
0
 10
1.1147172382160913
 20
-1.0036959095382874
 11
0.8816778784387098
 21
-1.2135254915624212
  0
LINE
  8
0
 10
0.8816778784387098
 20
-1.2135254915624212
 11
0.6101049646137003
 21
-1.3703181864639014
  0
LINE
  8
0
 10
0.6101049646137003
 20
-1.3703181864639014
 11
0.3118675362266391
 21
-1.4672214011007085
  0
ENDSEC
  0
SECTION
  2
OBJECTS
  0
DICTIONARY
  0
ENDSEC
  0
EOF
