  0
SECTION
  2
BLOCKS
  0
ENDSEC
  0
SECTION
  2
ENTITIES
  0
LINE
  8
0
 10
47.331662189778825
 20
-9.582430364138384
 11
47.64805465368306
 21
-8.401637613715856
  0
LINE
  8
0
 10
47.64805465368306
 20
-8.401637613715856
 11
47.754597895817426
 21
-7.183842783614658
  0
LINE
  8
0
 10
47.754597895817426
 20
-7.183842783614658
 11
47.5419065281804
 21
-7.048916455558843
  0
LINE
  8
0
 10
47.5419065281804
 20
-7.048916455558843
 11
46.6807738942255
 21
-6.57046755358933
  0
LINE
  8
0
 10
46.6807738942255
 20
-6.57046755358933
 11
45.92889783285283
 21
-6.208235769579784
  0
LINE
  8
0
 10
45.92889783285283
 20
-6.208235769579784
 11
45.29642050091859
 21
-5.947675693887433
  0
LINE
  8
0
 10
45.29642050091859
 20
-5.947675693887433
 11
44.7921501859118
 21
-5.7734827870770955
  0
LINE
  8
0
 10
44.7921501859118
 20
-5.7734827870770955
 11
44.42350893846358
 21
-5.669699934585931
  0
LINE
  8
0
 10
44.42350893846358
 20
-5.669699934585931
 11
44.19648811815995
 21
-5.619827428764309
  0
LINE
  8
0
 10
44.19648811815995
 20
-5.619827428764309
 11
43.89275021378597
 21
-5.5714117203874
  0
LINE
  8
0
 10
43.89275021378597
 20
-5.5714117203874
 11
43.41698259613214
 21
-5.448583691589363
  0
LINE
  8
0
 10
43.41698259613214
 20
-5.448583691589363
 11
43.104280216670546
 21
-5.298300041644802
  0
LINE
  8
0
 10
43.104280216670546
 20
-5.298300041644802
 11
42.955701161268436
 21
-5.139107960140624
  0
LINE
  8
0
 10
42.955701161268436
 20
-5.139107960140624
 11
43.195504271804694
 21
-2.398145864346542
  0
LINE
  8
0
 10
43.195504271804694
 20
-2.398145864346542
 11
43.36946949235197
 21
-2.2671727504716257
  0
LINE
  8
0
 10
43.36946949235197
 20
-2.2671727504716257
 11
43.7035177019773
 21
-2.173472445202221
  0
LINE
  8
0
 10
43.7035177019773
 20
-2.173472445202221
 11
44.19338620384211
 21
-2.1351266299530964
  0
LINE
  8
0
 10
44.19338620384211
 20
-2.1351266299530964
 11
44.50091694648448
 21
-2.140189998558763
  0
LINE
  8
0
 10
44.50091694648448
 20
-2.140189998558763
 11
44.73314908016515
 21
-2.130496919901681
  0
LINE
  8
0
 10
44.73314908016515
 20
-2.130496919901681
 11
45.114211541940456
 21
-2.092304642971162
  0
LINE
  8
0
 10
45.114211541940456
 20
-2.092304642971162
 11
45.64106913860318
 21
-2.0083237390770403
  0
LINE
  8
0
 10
45.64106913860318
 20
-2.0083237390770403
 11
46.30918350101239
 21
-1.861550692515875
  0
LINE
  8
0
 10
46.30918350101239
 20
-1.861550692515875
 11
47.11253776474368
 21
-1.635383931124329
  0
LINE
  8
0
 10
47.11253776474368
 20
-1.635383931124329
 11
48.04366963896796
 21
-1.31373785566039
  0
LINE
  8
0
 10
48.04366963896796
 20
-1.31373785566039
 11
48.27655945780187
 21
-1.2177948301011918
  0
LINE
  8
0
 10
48.27655945780187
 20
-1.2177948301011918
 11
48.3831026999362
 21
0
  0
LINE
  8
0
 10
48.3831026999362
 20
0
 11
48.27655945780182
 21
1.2177948301011985
  0
LINE
  8
0
 10
48.27655945780182
 20
1.2177948301011985
 11
48.04366963896799
 21
1.3137378556603825
  0
LINE
  8
0
 10
48.04366963896799
 20
1.3137378556603825
 11
47.11253776474364
 21
1.6353839311243459
  0
LINE
  8
0
 10
47.11253776474364
 20
1.6353839311243459
 11
46.30918350101325
 21
1.8615506925156373
  0
LINE
  8
0
 10
46.30918350101325
 20
1.8615506925156373
 11
45.6410691386032
 21
2.0083237390768893
  0
LINE
  8
0
 10
45.6410691386032
 20
2.0083237390768893
 11
45.114211541940485
 21
2.0923046429709844
  0
LINE
  8
0
 10
45.114211541940485
 20
2.0923046429709844
 11
44.73314908016521
 21
2.1304969199017574
  0
LINE
  8
0
 10
44.73314908016521
 20
2.1304969199017574
 11
44.5009169464834
 21
2.14018999855886
  0
LINE
  8
0
 10
44.5009169464834
 20
2.14018999855886
 11
44.193386203842124
 21
2.1351266299531053
  0
LINE
  8
0
 10
44.193386203842124
 20
2.1351266299531053
 11
43.703517701977276
 21
2.173472445202094
  0
LINE
  8
0
 10
43.703517701977276
 20
2.173472445202094
 11
43.36946949235213
 21
2.2671727504728514
  0
LINE
  8
0
 10
43.36946949235213
 20
2.2671727504728514
 11
43.195504271804694
 21
2.398145864346267
  0
LINE
  8
0
 10
43.195504271804694
 20
2.398145864346267
 11
42.95570116126848
 21
5.139107960140352
  0
LINE
  8
0
 10
42.95570116126848
 20
5.139107960140352
 11
43.10428021667017
 21
5.29830004164598
  0
LINE
  8
0
 10
43.10428021667017
 20
5.29830004164598
 11
43.41698259613217
 21
5.448583691589239
  0
LINE
  8
0
 10
43.41698259613217
 20
5.448583691589239
 11
43.89275021378595
 21
5.571411720387405
  0
LINE
  8
0
 10
43.89275021378595
 20
5.571411720387405
 11
44.19648811816099
 21
5.619827428764592
  0
LINE
  8
0
 10
44.19648811816099
 20
5.619827428764592
 11
44.4235089384635
 21
5.669699934585995
  0
LINE
  8
0
 10
44.4235089384635
 20
5.669699934585995
 11
44.7921501859118
 21
5.773482787076915
  0
LINE
  8
0
 10
44.7921501859118
 20
5.773482787076915
 11
45.29642050091859
 21
5.9476756938872795
  0
LINE
  8
0
 10
45.29642050091859
 20
5.9476756938872795
 11
45.92889783285202
 21
6.2082357695794
  0
LINE
  8
0
 10
45.92889783285202
 20
6.2082357695794
 11
46.68077389422554
 21
6.570467553589354
  0
LINE
  8
0
 10
46.68077389422554
 20
6.570467553589354
 11
47.54190652818037
 21
7.04891645555883
  0
LINE
  8
0
 10
47.54190652818037
 20
7.04891645555883
 11
47.75459789581737
 21
7.183842783614665
  0
LINE
  8
0
 10
47.75459789581737
 20
7.183842783614665
 11
47.64805465368304
 21
8.401637613715856
  0
LINE
  8
0
 10
47.64805465368304
 20
8.401637613715856
 11
47.33166218977883
 21
9.582430364138352
  0
LINE
  8
0
 10
47.33166218977883
 20
9.582430364138352
 11
47.08565015904543
 21
9.6364749069188
  0
LINE
  8
0
 10
47.08565015904543
 20
9.6364749069188
 11
46.112811015374454
 21
9.791545102635009
  0
LINE
  8
0
 10
46.112811015374454
 20
9.791545102635009
 11
45.28238806207293
 21
9.874774878809074
  0
LINE
  8
0
 10
45.28238806207293
 20
9.874774878809074
 11
44.59893698600672
 21
9.903301271490209
  0
LINE
  8
0
 10
44.59893698600672
 20
9.903301271490209
 11
44.06550040915986
 21
9.894518455199627
  0
LINE
  8
0
 10
44.06550040915986
 20
9.894518455199627
 11
43.68359512313168
 21
9.865959703561693
  0
LINE
  8
0
 10
43.68359512313168
 20
9.865959703561693
 11
43.45320793193847
 21
9.835178835764212
  0
LINE
  8
0
 10
43.45320793193847
 20
9.835178835764212
 11
43.15122851702699
 21
9.776790238068692
  0
LINE
  8
0
 10
43.15122851702699
 20
9.776790238068692
 11
42.66214353749488
 21
9.729488721576208
  0
LINE
  8
0
 10
42.66214353749488
 20
9.729488721576208
 11
42.31689938351908
 21
9.763758645812155
  0
LINE
  8
0
 10
42.31689938351908
 20
9.763758645812155
 11
42.12283384302201
 21
9.862533240265359
  0
LINE
  8
0
 10
42.12283384302201
 20
9.862533240265359
 11
41.41071080758072
 21
12.520212589772486
  0
LINE
  8
0
 10
41.41071080758072
 20
12.520212589772486
 11
41.52938919842308
 21
12.702786668067358
  0
LINE
  8
0
 10
41.52938919842308
 20
12.702786668067358
 11
41.81124444415685
 21
12.905087370028143
  0
LINE
  8
0
 10
41.81124444415685
 20
12.905087370028143
 11
42.258455219287214
 21
13.108665544874297
  0
LINE
  8
0
 10
42.258455219287214
 20
13.108665544874297
 11
42.54917136286928
 21
13.209089243434827
  0
LINE
  8
0
 10
42.54917136286928
 20
13.209089243434827
 11
42.7640829570468
 21
13.297625825567872
  0
LINE
  8
0
 10
42.7640829570468
 20
13.297625825567872
 11
43.10910201240587
 21
13.463845864162916
  0
LINE
  8
0
 10
43.10910201240587
 20
13.463845864162916
 11
43.575463047408334
 21
13.722958010561957
  0
LINE
  8
0
 10
43.575463047408334
 20
13.722958010561957
 11
44.15308584518416
 21
14.089388129334887
  0
LINE
  8
0
 10
44.15308584518416
 20
14.089388129334887
 11
44.83063833054271
 21
14.57667870650423
  0
LINE
  8
0
 10
44.83063833054271
 20
14.57667870650423
 11
45.595606644899505
 21
15.19739300719973
  0
LINE
  8
0
 10
45.595606644899505
 20
15.19739300719973
 11
45.781637041761
 21
15.367202969550231
  0
LINE
  8
0
 10
45.781637041761
 20
15.367202969550231
 11
45.465244577856765
 21
16.547995719972715
  0
LINE
  8
0
 10
45.465244577856765
 20
16.547995719972715
 11
44.94861631709608
 21
17.65590860050488
  0
LINE
  8
0
 10
44.94861631709608
 20
17.65590860050488
 11
44.69695702552889
 21
17.666412544422077
  0
LINE
  8
0
 10
44.69695702552889
 20
17.666412544422077
 11
43.71196983751139
 21
17.650195130962995
  0
LINE
  8
0
 10
43.71196983751139
 20
17.650195130962995
 11
42.8797101758605
 21
17.587959027287088
  0
LINE
  8
0
 10
42.8797101758605
 20
17.587959027287088
 11
42.201688701241466
 21
17.497372006081537
  0
LINE
  8
0
 10
42.201688701241466
 20
17.497372006081537
 11
41.67788134466604
 21
17.39609233103495
  0
LINE
  8
0
 10
41.67788134466604
 20
17.39609233103495
 11
41.30673723324751
 21
17.3016502940454
  0
LINE
  8
0
 10
41.30673723324751
 20
17.3016502940454
 11
41.08519518276577
 21
17.231330740885497
  0
LINE
  8
0
 10
41.08519518276577
 20
17.231330740885497
 11
40.79794258729721
 21
17.121391022095132
  0
LINE
  8
0
 10
40.79794258729721
 20
17.121391022095132
 11
40.32450172971196
 21
16.98987940650408
  0
LINE
  8
0
 10
40.32450172971196
 20
16.98987940650408
 11
39.978551700302106
 21
16.963677675398724
  0
LINE
  8
0
 10
39.978551700302106
 20
16.963677675398724
 11
39.77028242310149
 21
17.027252534361608
  0
LINE
  8
0
 10
39.77028242310149
 20
17.027252534361608
 11
38.60747696083538
 21
19.520896895397648
  0
LINE
  8
0
 10
38.60747696083538
 20
19.520896895397648
 11
38.69264870426682
 21
19.721305549499714
  0
LINE
  8
0
 10
38.69264870426682
 20
19.721305549499714
 11
38.935092787256366
 21
19.969476499018043
  0
LINE
  8
0
 10
38.935092787256366
 20
19.969476499018043
 11
39.340158446760555
 21
20.247619200085015
  0
LINE
  8
0
 10
39.340158446760555
 20
20.247619200085015
 11
39.60901956663638
 21
20.39699956556497
  0
LINE
  8
0
 10
39.60901956663638
 20
20.39699956556497
 11
39.80529195465036
 21
20.521510084763214
  0
LINE
  8
0
 10
39.80529195465036
 20
20.521510084763214
 11
40.11620558851115
 21
20.74511679770107
  0
LINE
  8
0
 10
40.11620558851115
 20
20.74511679770107
 11
40.530487199450825
 21
21.08127519223752
  0
LINE
  8
0
 10
40.530487199450825
 20
21.08127519223752
 11
41.035704686649865
 21
21.54244156035493
  0
LINE
  8
0
 10
41.035704686649865
 20
21.54244156035493
 11
41.61834650658393
 21
22.139984853077305
  0
LINE
  8
0
 10
41.61834650658393
 20
22.139984853077305
 11
42.26390732620361
 21
22.884104462568786
  0
LINE
  8
0
 10
42.26390732620361
 20
22.884104462568786
 11
42.41762431281692
 21
23.083638469435943
  0
LINE
  8
0
 10
42.41762431281692
 20
23.083638469435943
 11
41.900996052056215
 21
24.1915513499681
  0
LINE
  8
0
 10
41.900996052056215
 20
24.1915513499681
 11
41.199829482715714
 21
25.192920988365927
  0
LINE
  8
0
 10
41.199829482715714
 20
25.192920988365927
 11
40.950169470543244
 21
25.15956517639918
  0
LINE
  8
0
 10
40.950169470543244
 20
25.15956517639918
 11
39.98296257545955
 21
24.972552911666362
  0
LINE
  8
0
 10
39.98296257545955
 20
24.972552911666362
 11
39.174153994134855
 21
24.766741940657685
  0
LINE
  8
0
 10
39.174153994134855
 20
24.766741940657685
 11
38.522163460373875
 21
24.559793946365534
  0
LINE
  8
0
 10
38.522163460373875
 20
24.559793946365534
 11
38.0239009455401
 21
24.369094744239245
  0
LINE
  8
0
 10
38.0239009455401
 20
24.369094744239245
 11
37.67479503474869
 21
24.21163899540203
  0
LINE
  8
0
 10
37.67479503474869
 20
24.21163899540203
 11
37.46882956807663
 21
24.103917380919054
  0
LINE
  8
0
 10
37.46882956807663
 20
24.103917380919054
 11
37.20503181680747
 21
23.94576700375711
  0
LINE
  8
0
 10
37.20503181680747
 20
23.94576700375711
 11
36.76162034205419
 21
23.734041202959133
  0
LINE
  8
0
 10
36.76162034205419
 20
23.734041202959133
 11
36.425475953794724
 21
23.648163942853394
  0
LINE
  8
0
 10
36.425475953794724
 20
23.648163942853394
 11
36.20933109648898
 21
23.674607376406808
  0
LINE
  8
0
 10
36.20933109648898
 20
23.674607376406808
 11
34.631174462961035
 21
25.928448626906608
  0
LINE
  8
0
 10
34.631174462961035
 20
25.928448626906608
 11
34.68025165865638
 21
26.140602541272653
  0
LINE
  8
0
 10
34.68025165865638
 20
26.140602541272653
 11
34.87591803812269
 21
26.427103189627964
  0
LINE
  8
0
 10
34.87591803812269
 20
26.427103189627964
 11
35.22653086690978
 21
26.77135919169083
  0
LINE
  8
0
 10
35.22653086690978
 20
26.77135919169083
 11
35.46536775400222
 21
26.965157377275215
  0
LINE
  8
0
 10
35.46536775400222
 20
26.965157377275215
 11
35.63703729866147
 21
27.12185864441819
  0
LINE
  8
0
 10
35.63703729866147
 20
27.12185864441819
 11
35.904398557589026
 21
27.39605785487669
  0
LINE
  8
0
 10
35.904398557589026
 20
27.39605785487669
 11
36.25401300735411
 21
27.79904849483692
  0
LINE
  8
0
 10
36.25401300735411
 20
27.79904849483692
 11
36.671474406280204
 21
28.340938805565006
  0
LINE
  8
0
 10
36.671474406280204
 20
28.340938805565006
 11
37.14150228392207
 21
29.03057876326254
  0
LINE
  8
0
 10
37.14150228392207
 20
29.03057876326254
 11
37.64804056997003
 21
29.87549398375829
  0
LINE
  8
0
 10
37.64804056997003
 20
29.87549398375829
 11
37.76477353348145
 21
30.09868929531252
  0
LINE
  8
0
 10
37.76477353348145
 20
30.09868929531252
 11
37.063606964140966
 21
31.100058933710347
  0
LINE
  8
0
 10
37.063606964140966
 20
31.100058933710347
 11
36.19920667762269
 21
31.964459220228612
  0
LINE
  8
0
 10
36.19920667762269
 20
31.964459220228612
 11
35.959131737980734
 21
31.888257151845682
  0
LINE
  8
0
 10
35.959131737980734
 20
31.888257151845682
 11
35.03909322790767
 21
31.53613230887026
  0
LINE
  8
0
 10
35.03909322790767
 20
31.53613230887026
 11
34.27831096637581
 21
31.19299993273753
  0
LINE
  8
0
 10
34.27831096637581
 20
31.19299993273753
 11
33.6721617759181
 21
30.87597897544462
  0
LINE
  8
0
 10
33.6721617759181
 20
30.87597897544462
 11
33.214583557206204
 21
30.60165454499678
  0
LINE
  8
0
 10
33.214583557206204
 20
30.60165454499678
 11
32.8981232534852
 21
30.385969297563864
  0
LINE
  8
0
 10
32.8981232534852
 20
30.385969297563864
 11
32.71399252710408
 21
30.244118688504113
  0
LINE
  8
0
 10
32.71399252710408
 20
30.244118688504113
 11
32.481664981218536
 21
30.0425629721527
  0
LINE
  8
0
 10
32.481664981218536
 20
30.0425629721527
 11
32.081755722580574
 21
29.757056167466622
  0
LINE
  8
0
 10
32.081755722580574
 20
29.757056167466622
 11
31.76563055261149
 21
29.614112715452823
  0
LINE
  8
0
 10
31.76563055261149
 20
29.614112715452823
 11
31.548177567315268
 21
29.602621253249268
  0
LINE
  8
0
 10
31.548177567315268
 20
29.602621253249268
 11
29.60262125324946
 21
31.548177567315097
  0
LINE
  8
0
 10
29.60262125324946
 20
31.548177567315097
 11
29.614112715451764
 21
31.765630552612166
  0
LINE
  8
0
 10
29.614112715451764
 20
31.765630552612166
 11
29.75705616746672
 21
32.0817557225805
  0
LINE
  8
0
 10
29.75705616746672
 20
32.0817557225805
 11
30.04256297215267
 21
32.48166498121853
  0
LINE
  8
0
 10
30.04256297215267
 20
32.48166498121853
 11
30.24411868850472
 21
32.71399252710497
  0
LINE
  8
0
 10
30.24411868850472
 20
32.71399252710497
 11
30.385969297563747
 21
32.8981232534852
  0
LINE
  8
0
 10
30.385969297563747
 20
32.8981232534852
 11
30.60165454499688
 21
33.21458355720607
  0
LINE
  8
0
 10
30.60165454499688
 20
33.21458355720607
 11
30.875978975444706
 21
33.672161775917985
  0
LINE
  8
0
 10
30.875978975444706
 20
33.672161775917985
 11
31.19299993273715
 21
34.278310966375
  0
LINE
  8
0
 10
31.19299993273715
 20
34.278310966375
 11
31.536132308870258
 21
35.03909322790771
  0
LINE
  8
0
 10
31.536132308870258
 20
35.03909322790771
 11
31.888257151845657
 21
35.959131737980705
  0
LINE
  8
0
 10
31.888257151845657
 20
35.959131737980705
 11
31.964459220228605
 21
36.19920667762271
  0
LINE
  8
0
 10
31.964459220228605
 20
36.19920667762271
 11
31.100058933710354
 21
37.063606964140966
  0
LINE
  8
0
 10
31.100058933710354
 20
37.063606964140966
 11
30.098689295312496
 21
37.76477353348142
  0
LINE
  8
0
 10
30.098689295312496
 20
37.76477353348142
 11
29.87549398375832
 21
37.64804056997004
  0
LINE
  8
0
 10
29.87549398375832
 20
37.64804056997004
 11
29.030578763262508
 21
37.14150228392205
  0
LINE
  8
0
 10
29.030578763262508
 20
37.14150228392205
 11
28.340938805565745
 21
36.67147440628071
  0
LINE
  8
0
 10
28.340938805565745
 20
36.67147440628071
 11
27.799048494837056
 21
36.25401300735403
  0
LINE
  8
0
 10
27.799048494837056
 20
36.25401300735403
 11
27.39605785487685
 21
35.904398557588934
  0
LINE
  8
0
 10
27.39605785487685
 20
35.904398557588934
 11
27.12185864441818
 21
35.63703729866157
  0
LINE
  8
0
 10
27.12185864441818
 20
35.63703729866157
 11
26.96515737727445
 21
35.465367754001456
  0
LINE
  8
0
 10
26.96515737727445
 20
35.465367754001456
 11
26.77135919169084
 21
35.2265308669098
  0
LINE
  8
0
 10
26.77135919169084
 20
35.2265308669098
 11
26.427103189628056
 21
34.87591803812259
  0
LINE
  8
0
 10
26.427103189628056
 20
34.87591803812259
 11
26.14060254127182
 21
34.68025165865729
  0
LINE
  8
0
 10
26.14060254127182
 20
34.68025165865729
 11
25.928448626906828
 21
34.63117446296086
  0
LINE
  8
0
 10
25.928448626906828
 20
34.63117446296086
 11
23.674607376407046
 21
36.20933109648883
  0
LINE
  8
0
 10
23.674607376407046
 20
36.20933109648883
 11
23.648163942852253
 21
36.425475953795186
  0
LINE
  8
0
 10
23.648163942852253
 20
36.425475953795186
 11
23.734041202959254
 21
36.76162034205414
  0
LINE
  8
0
 10
23.734041202959254
 20
36.76162034205414
 11
23.945767003757094
 21
37.20503181680745
  0
LINE
  8
0
 10
23.945767003757094
 20
37.20503181680745
 11
24.103917380919512
 21
37.4688295680776
  0
LINE
  8
0
 10
24.103917380919512
 20
37.4688295680776
 11
24.211638995401934
 21
37.67479503474867
  0
LINE
  8
0
 10
24.211638995401934
 20
37.67479503474867
 11
24.369094744239387
 21
38.02390094553998
  0
LINE
  8
0
 10
24.369094744239387
 20
38.02390094553998
 11
24.55979394636566
 21
38.522163460373775
  0
LINE
  8
0
 10
24.55979394636566
 20
38.522163460373775
 11
24.76674194065746
 21
39.17415399413398
  0
LINE
  8
0
 10
24.76674194065746
 20
39.17415399413398
 11
24.97255291166637
 21
39.98296257545959
  0
LINE
  8
0
 10
24.97255291166637
 20
39.98296257545959
 11
25.15956517639918
 21
40.95016947054321
  0
LINE
  8
0
 10
25.15956517639918
 20
40.95016947054321
 11
25.19292098836592
 21
41.199829482715714
  0
LINE
  8
0
 10
25.19292098836592
 20
41.199829482715714
 11
24.1915513499681
 21
41.9009960520562
  0
LINE
  8
0
 10
24.1915513499681
 20
41.9009960520562
 11
23.083638469435943
 21
42.41762431281694
  0
LINE
  8
0
 10
23.083638469435943
 20
42.41762431281694
 11
22.884104462568814
 21
42.26390732620362
  0
LINE
  8
0
 10
22.884104462568814
 20
42.26390732620362
 11
22.139984853077276
 21
41.6183465065839
  0
LINE
  8
0
 10
22.139984853077276
 20
41.6183465065839
 11
21.542441560355574
 21
41.035704686650476
  0
LINE
  8
0
 10
21.542441560355574
 20
41.035704686650476
 11
21.08127519223767
 21
40.53048719945076
  0
LINE
  8
0
 10
21.08127519223767
 20
40.53048719945076
 11
20.745116797701243
 21
40.11620558851108
  0
LINE
  8
0
 10
20.745116797701243
 20
40.11620558851108
 11
20.52151008476319
 21
39.80529195465044
  0
LINE
  8
0
 10
20.52151008476319
 20
39.80529195465044
 11
20.39699956556435
 21
39.60901956663549
  0
LINE
  8
0
 10
20.39699956556435
 20
39.60901956663549
 11
20.24761920008502
 21
39.34015844676057
  0
LINE
  8
0
 10
20.24761920008502
 20
39.34015844676057
 11
19.969476499018146
 21
38.93509278725628
  0
LINE
  8
0
 10
19.969476499018146
 20
38.93509278725628
 11
19.72130554949874
 21
38.692648704267576
  0
LINE
  8
0
 10
19.72130554949874
 20
38.692648704267576
 11
19.520896895397893
 21
38.60747696083524
  0
LINE
  8
0
 10
19.520896895397893
 20
38.60747696083524
 11
17.027252534361867
 21
39.770282423101385
  0
LINE
  8
0
 10
17.027252534361867
 20
39.770282423101385
 11
16.96367767539752
 21
39.97855170030236
  0
LINE
  8
0
 10
16.96367767539752
 20
39.97855170030236
 11
16.989879406504212
 21
40.324501729711926
  0
LINE
  8
0
 10
16.989879406504212
 20
40.324501729711926
 11
17.12139102209512
 21
40.79794258729718
  0
LINE
  8
0
 10
17.12139102209512
 20
40.79794258729718
 11
17.231330740885777
 21
41.08519518276681
  0
LINE
  8
0
 10
17.231330740885777
 20
41.08519518276681
 11
17.30165029404531
 21
41.30673723324747
  0
LINE
  8
0
 10
17.30165029404531
 20
41.30673723324747
 11
17.39609233103511
 21
41.67788134466594
  0
LINE
  8
0
 10
17.39609233103511
 20
41.67788134466594
 11
17.49737200608168
 21
42.20168870124138
  0
LINE
  8
0
 10
17.49737200608168
 20
42.20168870124138
 11
17.58795902728702
 21
42.87971017585961
  0
LINE
  8
0
 10
17.58795902728702
 20
42.87971017585961
 11
17.650195130963
 21
43.711969837511425
  0
LINE
  8
0
 10
17.650195130963
 20
43.711969837511425
 11
17.666412544422077
 21
44.69695702552885
  0
LINE
  8
0
 10
17.666412544422077
 20
44.69695702552885
 11
17.6559086005049
 21
44.94861631709613
  0
LINE
  8
0
 10
17.6559086005049
 20
44.94861631709613
 11
16.547995719972747
 21
45.46524457785684
  0
LINE
  8
0
 10
16.547995719972747
 20
45.46524457785684
 11
15.367202969550231
 21
45.781637041761016
  0
LINE
  8
0
 10
15.367202969550231
 20
45.781637041761016
 11
15.19739300719975
 21
45.595606644899526
  0
LINE
  8
0
 10
15.19739300719975
 20
45.595606644899526
 11
14.576678706504204
 21
44.830638330542676
  0
LINE
  8
0
 10
14.576678706504204
 20
44.830638330542676
 11
14.089388129335408
 21
44.15308584518489
  0
LINE
  8
0
 10
14.089388129335408
 20
44.15308584518489
 11
13.72295801056211
 21
43.575463047408306
  0
LINE
  8
0
 10
13.72295801056211
 20
43.575463047408306
 11
13.463845864163098
 21
43.10910201240583
  0
LINE
  8
0
 10
13.463845864163098
 20
43.10910201240583
 11
13.29762582556783
 21
42.76408295704689
  0
LINE
  8
0
 10
13.29762582556783
 20
42.76408295704689
 11
13.209089243434372
 21
42.54917136286829
  0
LINE
  8
0
 10
13.209089243434372
 20
42.54917136286829
 11
13.1086655448743
 21
42.25845521928723
  0
LINE
  8
0
 10
13.1086655448743
 20
42.25845521928723
 11
12.90508737002826
 21
41.81124444415678
  0
LINE
  8
0
 10
12.90508737002826
 20
41.81124444415678
 11
12.702786668066267
 21
41.52938919842365
  0
LINE
  8
0
 10
12.702786668066267
 20
41.52938919842365
 11
12.520212589772752
 21
41.41071080758063
  0
LINE
  8
0
 10
12.520212589772752
 20
41.41071080758063
 11
9.862533240265632
 21
42.12283384302195
  0
LINE
  8
0
 10
9.862533240265632
 20
42.12283384302195
 11
9.763758645810922
 21
42.31689938351912
  0
LINE
  8
0
 10
9.763758645810922
 20
42.31689938351912
 11
9.729488721576342
 21
42.66214353749487
  0
LINE
  8
0
 10
9.729488721576342
 20
42.66214353749487
 11
9.776790238068685
 21
43.15122851702697
  0
LINE
  8
0
 10
9.776790238068685
 20
43.15122851702697
 11
9.835178835764308
 21
43.45320793193955
  0
LINE
  8
0
 10
9.835178835764308
 20
43.45320793193955
 11
9.865959703561606
 21
43.683595123131624
  0
LINE
  8
0
 10
9.865959703561606
 20
43.683595123131624
 11
9.894518455199798
 21
44.0655004091598
  0
LINE
  8
0
 10
9.894518455199798
 20
44.0655004091598
 11
9.903301271490355
 21
44.59893698600667
  0
LINE
  8
0
 10
9.903301271490355
 20
44.59893698600667
 11
9.874774878809161
 21
45.28238806207204
  0
LINE
  8
0
 10
9.874774878809161
 20
45.28238806207204
 11
9.791545102635
 21
46.11281101537449
  0
LINE
  8
0
 10
9.791545102635
 20
46.11281101537449
 11
9.636474906918803
 21
47.08565015904539
  0
LINE
  8
0
 10
9.636474906918803
 20
47.08565015904539
 11
9.582430364138347
 21
47.331662189778854
  0
LINE
  8
0
 10
9.582430364138347
 20
47.331662189778854
 11
8.40163761371587
 21
47.64805465368309
  0
LINE
  8
0
 10
8.40163761371587
 20
47.64805465368309
 11
7.183842783614657
 21
47.75459789581738
  0
LINE
  8
0
 10
7.183842783614657
 20
47.75459789581738
 11
7.048916455558846
 21
47.5419065281804
  0
LINE
  8
0
 10
7.048916455558846
 20
47.5419065281804
 11
6.570467553589332
 21
46.6807738942255
  0
LINE
  8
0
 10
6.570467553589332
 20
46.6807738942255
 11
6.208235769579787
 21
45.92889783285283
  0
LINE
  8
0
 10
6.208235769579787
 20
45.92889783285283
 11
5.947675693887436
 21
45.29642050091859
  0
LINE
  8
0
 10
5.947675693887436
 20
45.29642050091859
 11
5.773482787077098
 21
44.7921501859118
  0
LINE
  8
0
 10
5.773482787077098
 20
44.7921501859118
 11
5.669699934585934
 21
44.42350893846358
  0
LINE
  8
0
 10
5.669699934585934
 20
44.42350893846358
 11
5.619827428764312
 21
44.19648811815995
  0
LINE
  8
0
 10
5.619827428764312
 20
44.19648811815995
 11
5.5714117203874025
 21
43.89275021378597
  0
LINE
  8
0
 10
5.5714117203874025
 20
43.89275021378597
 11
5.4485836915893655
 21
43.41698259613214
  0
LINE
  8
0
 10
5.4485836915893655
 20
43.41698259613214
 11
5.298300041644804
 21
43.104280216670546
  0
LINE
  8
0
 10
5.298300041644804
 20
43.104280216670546
 11
5.139107960140627
 21
42.955701161268436
  0
LINE
  8
0
 10
5.139107960140627
 20
42.955701161268436
 11
2.3981458643465445
 21
43.195504271804694
  0
LINE
  8
0
 10
2.3981458643465445
 20
43.195504271804694
 11
2.2671727504716284
 21
43.36946949235197
  0
LINE
  8
0
 10
2.2671727504716284
 20
43.36946949235197
 11
2.173472445202224
 21
43.7035177019773
  0
LINE
  8
0
 10
2.173472445202224
 20
43.7035177019773
 11
2.135126629953099
 21
44.19338620384211
  0
LINE
  8
0
 10
2.135126629953099
 20
44.19338620384211
 11
2.140189998558766
 21
44.50091694648448
  0
LINE
  8
0
 10
2.140189998558766
 20
44.50091694648448
 11
2.1304969199016837
 21
44.73314908016515
  0
LINE
  8
0
 10
2.1304969199016837
 20
44.73314908016515
 11
2.0923046429711647
 21
45.114211541940456
  0
LINE
  8
0
 10
2.0923046429711647
 20
45.114211541940456
 11
2.008323739077043
 21
45.64106913860318
  0
LINE
  8
0
 10
2.008323739077043
 20
45.64106913860318
 11
1.8615506925158778
 21
46.30918350101239
  0
LINE
  8
0
 10
1.8615506925158778
 20
46.30918350101239
 11
1.635383931124332
 21
47.11253776474368
  0
LINE
  8
0
 10
1.635383931124332
 20
47.11253776474368
 11
1.313737855660393
 21
48.04366963896796
  0
LINE
  8
0
 10
1.313737855660393
 20
48.04366963896796
 11
1.2177948301011927
 21
48.276559457801866
  0
LINE
  8
0
 10
1.2177948301011927
 20
48.276559457801866
 11
-1.0658141036401503e-14
 21
48.3831026999362
  0
LINE
  8
0
 10
-1.0658141036401503e-14
 20
48.3831026999362
 11
-1.2177948301012118
 21
48.27655945780186
  0
LINE
  8
0
 10
-1.2177948301012118
 20
48.27655945780186
 11
-1.3137378556603931
 21
48.04366963896799
  0
LINE
  8
0
 10
-1.3137378556603931
 20
48.04366963896799
 11
-1.6353839311243565
 21
47.11253776474364
  0
LINE
  8
0
 10
-1.6353839311243565
 20
47.11253776474364
 11
-1.8615506925156462
 21
46.30918350101325
  0
LINE
  8
0
 10
-1.8615506925156462
 20
46.30918350101325
 11
-2.0083237390768973
 21
45.6410691386032
  0
LINE
  8
0
 10
-2.0083237390768973
 20
45.6410691386032
 11
-2.0923046429709933
 21
45.11421154194049
  0
LINE
  8
0
 10
-2.0923046429709933
 20
45.11421154194049
 11
-2.1304969199017663
 21
44.73314908016521
  0
LINE
  8
0
 10
-2.1304969199017663
 20
44.73314908016521
 11
-2.140189998558869
 21
44.5009169464834
  0
LINE
  8
0
 10
-2.140189998558869
 20
44.5009169464834
 11
-2.135126629953114
 21
44.193386203842124
  0
LINE
  8
0
 10
-2.135126629953114
 20
44.193386203842124
 11
-2.173472445202102
 21
43.70351770197728
  0
LINE
  8
0
 10
-2.173472445202102
 20
43.70351770197728
 11
-2.2671727504728603
 21
43.36946949235213
  0
LINE
  8
0
 10
-2.2671727504728603
 20
43.36946949235213
 11
-2.398145864346275
 21
43.195504271804694
  0
LINE
  8
0
 10
-2.398145864346275
 20
43.195504271804694
 11
-5.13910796014036
 21
42.95570116126848
  0
LINE
  8
0
 10
-5.13910796014036
 20
42.95570116126848
 11
-5.298300041645988
 21
43.10428021667017
  0
LINE
  8
0
 10
-5.298300041645988
 20
43.10428021667017
 11
-5.448583691589248
 21
43.41698259613217
  0
LINE
  8
0
 10
-5.448583691589248
 20
43.41698259613217
 11
-5.571411720387414
 21
43.89275021378595
  0
LINE
  8
0
 10
-5.571411720387414
 20
43.89275021378595
 11
-5.619827428764601
 21
44.19648811816099
  0
LINE
  8
0
 10
-5.619827428764601
 20
44.19648811816099
 11
-5.669699934586004
 21
44.4235089384635
  0
LINE
  8
0
 10
-5.669699934586004
 20
44.4235089384635
 11
-5.773482787076924
 21
44.7921501859118
  0
LINE
  8
0
 10
-5.773482787076924
 20
44.7921501859118
 11
-5.947675693887288
 21
45.29642050091859
  0
LINE
  8
0
 10
-5.947675693887288
 20
45.29642050091859
 11
-6.208235769579409
 21
45.92889783285202
  0
LINE
  8
0
 10
-6.208235769579409
 20
45.92889783285202
 11
-6.570467553589363
 21
46.68077389422554
  0
LINE
  8
0
 10
-6.570467553589363
 20
46.68077389422554
 11
-7.048916455558839
 21
47.54190652818037
  0
LINE
  8
0
 10
-7.048916455558839
 20
47.54190652818037
 11
-7.183842783614674
 21
47.75459789581741
  0
LINE
  8
0
 10
-7.183842783614674
 20
47.75459789581741
 11
-8.40163761371587
 21
47.64805465368308
  0
LINE
  8
0
 10
-8.40163761371587
 20
47.64805465368308
 11
-9.582430364138363
 21
47.33166218977883
  0
LINE
  8
0
 10
-9.582430364138363
 20
47.33166218977883
 11
-9.63647490691881
 21
47.08565015904543
  0
LINE
  8
0
 10
-9.63647490691881
 20
47.08565015904543
 11
-9.79154510263502
 21
46.112811015374454
  0
LINE
  8
0
 10
-9.79154510263502
 20
46.112811015374454
 11
-9.874774878809085
 21
45.282388062072926
  0
LINE
  8
0
 10
-9.874774878809085
 20
45.282388062072926
 11
-9.903301271490218
 21
44.59893698600672
  0
LINE
  8
0
 10
-9.903301271490218
 20
44.59893698600672
 11
-9.894518455199638
 21
44.06550040915987
  0
LINE
  8
0
 10
-9.894518455199638
 20
44.06550040915987
 11
-9.865959703561703
 21
43.68359512313168
  0
LINE
  8
0
 10
-9.865959703561703
 20
43.68359512313168
 11
-9.835178835764223
 21
43.45320793193848
  0
LINE
  8
0
 10
-9.835178835764223
 20
43.45320793193848
 11
-9.7767902380687
 21
43.15122851702699
  0
LINE
  8
0
 10
-9.7767902380687
 20
43.15122851702699
 11
-9.72948872157622
 21
42.66214353749487
  0
LINE
  8
0
 10
-9.72948872157622
 20
42.66214353749487
 11
-9.763758645812166
 21
42.31689938351908
  0
LINE
  8
0
 10
-9.763758645812166
 20
42.31689938351908
 11
-9.862533240265366
 21
42.12283384302201
  0
LINE
  8
0
 10
-9.862533240265366
 20
42.12283384302201
 11
-12.520212589772497
 21
41.41071080758072
  0
LINE
  8
0
 10
-12.520212589772497
 20
41.41071080758072
 11
-12.702786668067366
 21
41.529389198423075
  0
LINE
  8
0
 10
-12.702786668067366
 20
41.529389198423075
 11
-12.905087370028154
 21
41.81124444415684
  0
LINE
  8
0
 10
-12.905087370028154
 20
41.81124444415684
 11
-13.108665544874308
 21
42.25845521928721
  0
LINE
  8
0
 10
-13.108665544874308
 20
42.25845521928721
 11
-13.209089243434837
 21
42.549171362869274
  0
LINE
  8
0
 10
-13.209089243434837
 20
42.549171362869274
 11
-13.297625825567883
 21
42.7640829570468
  0
LINE
  8
0
 10
-13.297625825567883
 20
42.7640829570468
 11
-13.463845864162925
 21
43.10910201240586
  0
LINE
  8
0
 10
-13.463845864162925
 20
43.10910201240586
 11
-13.722958010561966
 21
43.575463047408334
  0
LINE
  8
0
 10
-13.722958010561966
 20
43.575463047408334
 11
-14.089388129334898
 21
44.15308584518416
  0
LINE
  8
0
 10
-14.089388129334898
 20
44.15308584518416
 11
-14.576678706504241
 21
44.830638330542705
  0
LINE
  8
0
 10
-14.576678706504241
 20
44.830638330542705
 11
-15.197393007199741
 21
45.5956066448995
  0
LINE
  8
0
 10
-15.197393007199741
 20
45.5956066448995
 11
-15.367202969550252
 21
45.78163704176104
  0
LINE
  8
0
 10
-15.367202969550252
 20
45.78163704176104
 11
-16.547995719972718
 21
45.46524457785682
  0
LINE
  8
0
 10
-16.547995719972718
 20
45.46524457785682
 11
-17.65590860050489
 21
44.94861631709611
  0
LINE
  8
0
 10
-17.65590860050489
 20
44.94861631709611
 11
-17.66641254442207
 21
44.69695702552889
  0
LINE
  8
0
 10
-17.66641254442207
 20
44.69695702552889
 11
-17.650195130962988
 21
43.71196983751139
  0
LINE
  8
0
 10
-17.650195130962988
 20
43.71196983751139
 11
-17.58795902728708
 21
42.8797101758605
  0
LINE
  8
0
 10
-17.58795902728708
 20
42.8797101758605
 11
-17.49737200608153
 21
42.201688701241466
  0
LINE
  8
0
 10
-17.49737200608153
 20
42.201688701241466
 11
-17.396092331034943
 21
41.67788134466604
  0
LINE
  8
0
 10
-17.396092331034943
 20
41.67788134466604
 11
-17.30165029404539
 21
41.30673723324751
  0
LINE
  8
0
 10
-17.30165029404539
 20
41.30673723324751
 11
-17.23133074088549
 21
41.08519518276577
  0
LINE
  8
0
 10
-17.23133074088549
 20
41.08519518276577
 11
-17.121391022095125
 21
40.79794258729721
  0
LINE
  8
0
 10
-17.121391022095125
 20
40.79794258729721
 11
-16.989879406504073
 21
40.32450172971196
  0
LINE
  8
0
 10
-16.989879406504073
 20
40.32450172971196
 11
-16.963677675398717
 21
39.978551700302106
  0
LINE
  8
0
 10
-16.963677675398717
 20
39.978551700302106
 11
-17.0272525343616
 21
39.77028242310149
  0
LINE
  8
0
 10
-17.0272525343616
 20
39.77028242310149
 11
-19.52089689539764
 21
38.60747696083538
  0
LINE
  8
0
 10
-19.52089689539764
 20
38.60747696083538
 11
-19.721305549499707
 21
38.69264870426682
  0
LINE
  8
0
 10
-19.721305549499707
 20
38.69264870426682
 11
-19.969476499018036
 21
38.935092787256366
  0
LINE
  8
0
 10
-19.969476499018036
 20
38.935092787256366
 11
-20.24761920008501
 21
39.340158446760555
  0
LINE
  8
0
 10
-20.24761920008501
 20
39.340158446760555
 11
-20.39699956556496
 21
39.60901956663638
  0
LINE
  8
0
 10
-20.39699956556496
 20
39.60901956663638
 11
-20.521510084763207
 21
39.80529195465036
  0
LINE
  8
0
 10
-20.521510084763207
 20
39.80529195465036
 11
-20.745116797701062
 21
40.11620558851115
  0
LINE
  8
0
 10
-20.745116797701062
 20
40.11620558851115
 11
-21.081275192237513
 21
40.530487199450825
  0
LINE
  8
0
 10
-21.081275192237513
 20
40.530487199450825
 11
-21.542441560354924
 21
41.035704686649865
  0
LINE
  8
0
 10
-21.542441560354924
 20
41.035704686649865
 11
-22.139984853077298
 21
41.61834650658393
  0
LINE
  8
0
 10
-22.139984853077298
 20
41.61834650658393
 11
-22.88410446256878
 21
42.26390732620361
  0
LINE
  8
0
 10
-22.88410446256878
 20
42.26390732620361
 11
-23.083638469435947
 21
42.41762431281693
  0
LINE
  8
0
 10
-23.083638469435947
 20
42.41762431281693
 11
-24.191551349968105
 21
41.90099605205622
  0
LINE
  8
0
 10
-24.191551349968105
 20
41.90099605205622
 11
-25.19292098836592
 21
41.19982948271571
  0
LINE
  8
0
 10
-25.19292098836592
 20
41.19982948271571
 11
-25.159565176399187
 21
40.950169470543244
  0
LINE
  8
0
 10
-25.159565176399187
 20
40.950169470543244
 11
-24.97255291166637
 21
39.98296257545955
  0
LINE
  8
0
 10
-24.97255291166637
 20
39.98296257545955
 11
-24.766741940657685
 21
39.174153994134855
  0
LINE
  8
0
 10
-24.766741940657685
 20
39.174153994134855
 11
-24.55979394636554
 21
38.522163460373875
  0
LINE
  8
0
 10
-24.55979394636554
 20
38.522163460373875
 11
-24.36909474423925
 21
38.0239009455401
  0
LINE
  8
0
 10
-24.36909474423925
 20
38.0239009455401
 11
-24.211638995402033
 21
37.67479503474869
  0
LINE
  8
0
 10
-24.211638995402033
 20
37.67479503474869
 11
-24.103917380919057
 21
37.46882956807663
  0
LINE
  8
0
 10
-24.103917380919057
 20
37.46882956807663
 11
-23.945767003757112
 21
37.20503181680747
  0
LINE
  8
0
 10
-23.945767003757112
 20
37.20503181680747
 11
-23.73404120295914
 21
36.76162034205419
  0
LINE
  8
0
 10
-23.73404120295914
 20
36.76162034205419
 11
-23.648163942853397
 21
36.425475953794724
  0
LINE
  8
0
 10
-23.648163942853397
 20
36.425475953794724
 11
-23.67460737640681
 21
36.20933109648898
  0
LINE
  8
0
 10
-23.67460737640681
 20
36.20933109648898
 11
-25.928448626906615
 21
34.631174462961035
  0
LINE
  8
0
 10
-25.928448626906615
 20
34.631174462961035
 11
-26.140602541272656
 21
34.68025165865639
  0
LINE
  8
0
 10
-26.140602541272656
 20
34.68025165865639
 11
-26.427103189627967
 21
34.87591803812269
  0
LINE
  8
0
 10
-26.427103189627967
 20
34.87591803812269
 11
-26.771359191690838
 21
35.22653086690978
  0
LINE
  8
0
 10
-26.771359191690838
 20
35.22653086690978
 11
-26.965157377275215
 21
35.46536775400222
  0
LINE
  8
0
 10
-26.965157377275215
 20
35.46536775400222
 11
-27.121858644418193
 21
35.63703729866147
  0
LINE
  8
0
 10
-27.121858644418193
 20
35.63703729866147
 11
-27.396057854876698
 21
35.904398557589026
  0
LINE
  8
0
 10
-27.396057854876698
 20
35.904398557589026
 11
-27.799048494836924
 21
36.25401300735411
  0
LINE
  8
0
 10
-27.799048494836924
 20
36.25401300735411
 11
-28.34093880556501
 21
36.671474406280204
  0
LINE
  8
0
 10
-28.34093880556501
 20
36.671474406280204
 11
-29.030578763262547
 21
37.14150228392207
  0
LINE
  8
0
 10
-29.030578763262547
 20
37.14150228392207
 11
-29.875493983758297
 21
37.64804056997003
  0
LINE
  8
0
 10
-29.875493983758297
 20
37.64804056997003
 11
-30.098689295312518
 21
37.76477353348144
  0
LINE
  8
0
 10
-30.098689295312518
 20
37.76477353348144
 11
-31.100058933710322
 21
37.063606964140966
  0
LINE
  8
0
 10
-31.100058933710322
 20
37.063606964140966
 11
-31.96445922022859
 21
36.19920667762269
  0
LINE
  8
0
 10
-31.96445922022859
 20
36.19920667762269
 11
-31.888257151845675
 21
35.95913173798074
  0
LINE
  8
0
 10
-31.888257151845675
 20
35.95913173798074
 11
-31.536132308870247
 21
35.03909322790768
  0
LINE
  8
0
 10
-31.536132308870247
 20
35.03909322790768
 11
-31.192999932737518
 21
34.27831096637582
  0
LINE
  8
0
 10
-31.192999932737518
 20
34.27831096637582
 11
-30.875978975444603
 21
33.672161775918106
  0
LINE
  8
0
 10
-30.875978975444603
 20
33.672161775918106
 11
-30.601654544996762
 21
33.21458355720621
  0
LINE
  8
0
 10
-30.601654544996762
 20
33.21458355720621
 11
-30.385969297563847
 21
32.89812325348521
  0
LINE
  8
0
 10
-30.385969297563847
 20
32.89812325348521
 11
-30.2441186885041
 21
32.71399252710409
  0
LINE
  8
0
 10
-30.2441186885041
 20
32.71399252710409
 11
-30.042562972152687
 21
32.48166498121854
  0
LINE
  8
0
 10
-30.042562972152687
 20
32.48166498121854
 11
-29.757056167466615
 21
32.08175572258058
  0
LINE
  8
0
 10
-29.757056167466615
 20
32.08175572258058
 11
-29.61411271545281
 21
31.7656305526115
  0
LINE
  8
0
 10
-29.61411271545281
 20
31.7656305526115
 11
-29.602621253249254
 21
31.548177567315275
  0
LINE
  8
0
 10
-29.602621253249254
 20
31.548177567315275
 11
-31.54817756731509
 21
29.60262125324947
  0
LINE
  8
0
 10
-31.54817756731509
 20
29.60262125324947
 11
-31.76563055261215
 21
29.614112715451775
  0
LINE
  8
0
 10
-31.76563055261215
 20
29.614112715451775
 11
-32.081755722580496
 21
29.757056167466725
  0
LINE
  8
0
 10
-32.081755722580496
 20
29.757056167466725
 11
-32.48166498121852
 21
30.04256297215268
  0
LINE
  8
0
 10
-32.48166498121852
 20
30.04256297215268
 11
-32.71399252710496
 21
30.244118688504727
  0
LINE
  8
0
 10
-32.71399252710496
 20
30.244118688504727
 11
-32.898123253485196
 21
30.385969297563758
  0
LINE
  8
0
 10
-32.898123253485196
 20
30.385969297563758
 11
-33.21458355720606
 21
30.60165454499689
  0
LINE
  8
0
 10
-33.21458355720606
 20
30.60165454499689
 11
-33.67216177591797
 21
30.875978975444713
  0
LINE
  8
0
 10
-33.67216177591797
 20
30.875978975444713
 11
-34.278310966374995
 21
31.19299993273716
  0
LINE
  8
0
 10
-34.278310966374995
 20
31.19299993273716
 11
-35.039093227907706
 21
31.53613230887027
  0
LINE
  8
0
 10
-35.039093227907706
 20
31.53613230887027
 11
-35.9591317379807
 21
31.888257151845668
  0
LINE
  8
0
 10
-35.9591317379807
 20
31.888257151845668
 11
-36.19920667762267
 21
31.964459220228584
  0
LINE
  8
0
 10
-36.19920667762267
 20
31.964459220228584
 11
-37.06360696414093
 21
31.100058933710315
  0
LINE
  8
0
 10
-37.06360696414093
 20
31.100058933710315
 11
-37.76477353348146
 21
30.09868929531251
  0
LINE
  8
0
 10
-37.76477353348146
 20
30.09868929531251
 11
-37.64804056997005
 21
29.875493983758314
  0
LINE
  8
0
 10
-37.64804056997005
 20
29.875493983758314
 11
-37.141502283922065
 21
29.0305787632625
  0
LINE
  8
0
 10
-37.141502283922065
 20
29.0305787632625
 11
-36.671474406280716
 21
28.340938805565738
  0
LINE
  8
0
 10
-36.671474406280716
 20
28.340938805565738
 11
-36.25401300735403
 21
27.79904849483705
  0
LINE
  8
0
 10
-36.25401300735403
 20
27.79904849483705
 11
-35.90439855758894
 21
27.396057854876844
  0
LINE
  8
0
 10
-35.90439855758894
 20
27.396057854876844
 11
-35.637037298661575
 21
27.12185864441817
  0
LINE
  8
0
 10
-35.637037298661575
 20
27.12185864441817
 11
-35.46536775400146
 21
26.965157377274444
  0
LINE
  8
0
 10
-35.46536775400146
 20
26.965157377274444
 11
-35.226530866909805
 21
26.771359191690834
  0
LINE
  8
0
 10
-35.226530866909805
 20
26.771359191690834
 11
-34.8759180381226
 21
26.42710318962805
  0
LINE
  8
0
 10
-34.8759180381226
 20
26.42710318962805
 11
-34.6802516586573
 21
26.140602541271814
  0
LINE
  8
0
 10
-34.6802516586573
 20
26.140602541271814
 11
-34.63117446296087
 21
25.92844862690682
  0
LINE
  8
0
 10
-34.63117446296087
 20
25.92844862690682
 11
-36.20933109648883
 21
23.67460737640704
  0
LINE
  8
0
 10
-36.20933109648883
 20
23.67460737640704
 11
-36.42547595379519
 21
23.648163942852246
  0
LINE
  8
0
 10
-36.42547595379519
 20
23.648163942852246
 11
-36.761620342054144
 21
23.734041202959247
  0
LINE
  8
0
 10
-36.761620342054144
 20
23.734041202959247
 11
-37.20503181680746
 21
23.945767003757087
  0
LINE
  8
0
 10
-37.20503181680746
 20
23.945767003757087
 11
-37.46882956807761
 21
24.103917380919505
  0
LINE
  8
0
 10
-37.46882956807761
 20
24.103917380919505
 11
-37.67479503474867
 21
24.211638995401927
  0
LINE
  8
0
 10
-37.67479503474867
 20
24.211638995401927
 11
-38.02390094553999
 21
24.36909474423938
  0
LINE
  8
0
 10
-38.02390094553999
 20
24.36909474423938
 11
-38.52216346037378
 21
24.55979394636565
  0
LINE
  8
0
 10
-38.52216346037378
 20
24.55979394636565
 11
-39.17415399413399
 21
24.766741940657454
  0
LINE
  8
0
 10
-39.17415399413399
 20
24.766741940657454
 11
-39.982962575459595
 21
24.972552911666366
  0
LINE
  8
0
 10
-39.982962575459595
 20
24.972552911666366
 11
-40.950169470543216
 21
25.15956517639917
  0
LINE
  8
0
 10
-40.950169470543216
 20
25.15956517639917
 11
-41.199829482715764
 21
25.192920988365934
  0
LINE
  8
0
 10
-41.199829482715764
 20
25.192920988365934
 11
-41.90099605205624
 21
24.19155134996813
  0
LINE
  8
0
 10
-41.90099605205624
 20
24.19155134996813
 11
-42.41762431281691
 21
23.083638469435936
  0
LINE
  8
0
 10
-42.41762431281691
 20
23.083638469435936
 11
-42.26390732620362
 21
22.884104462568818
  0
LINE
  8
0
 10
-42.26390732620362
 20
22.884104462568818
 11
-41.6183465065839
 21
22.13998485307728
  0
LINE
  8
0
 10
-41.6183465065839
 20
22.13998485307728
 11
-41.035704686650476
 21
21.542441560355574
  0
LINE
  8
0
 10
-41.035704686650476
 20
21.542441560355574
 11
-40.53048719945076
 21
21.08127519223767
  0
LINE
  8
0
 10
-40.53048719945076
 20
21.08127519223767
 11
-40.11620558851108
 21
20.745116797701247
  0
LINE
  8
0
 10
-40.11620558851108
 20
20.745116797701247
 11
-39.80529195465044
 21
20.52151008476319
  0
LINE
  8
0
 10
-39.80529195465044
 20
20.52151008476319
 11
-39.60901956663548
 21
20.396999565564354
  0
LINE
  8
0
 10
-39.60901956663548
 20
20.396999565564354
 11
-39.34015844676057
 21
20.247619200085023
  0
LINE
  8
0
 10
-39.34015844676057
 20
20.247619200085023
 11
-38.93509278725628
 21
19.969476499018153
  0
LINE
  8
0
 10
-38.93509278725628
 20
19.969476499018153
 11
-38.692648704267576
 21
19.721305549498744
  0
LINE
  8
0
 10
-38.692648704267576
 20
19.721305549498744
 11
-38.60747696083524
 21
19.520896895397897
  0
LINE
  8
0
 10
-38.60747696083524
 20
19.520896895397897
 11
-39.770282423101385
 21
17.027252534361875
  0
LINE
  8
0
 10
-39.770282423101385
 20
17.027252534361875
 11
-39.97855170030236
 21
16.96367767539752
  0
LINE
  8
0
 10
-39.97855170030236
 20
16.96367767539752
 11
-40.324501729711926
 21
16.989879406504212
  0
LINE
  8
0
 10
-40.324501729711926
 20
16.989879406504212
 11
-40.79794258729718
 21
17.121391022095125
  0
LINE
  8
0
 10
-40.79794258729718
 20
17.121391022095125
 11
-41.08519518276681
 21
17.23133074088578
  0
LINE
  8
0
 10
-41.08519518276681
 20
17.23133074088578
 11
-41.30673723324747
 21
17.301650294045313
  0
LINE
  8
0
 10
-41.30673723324747
 20
17.301650294045313
 11
-41.67788134466594
 21
17.396092331035113
  0
LINE
  8
0
 10
-41.67788134466594
 20
17.396092331035113
 11
-42.20168870124138
 21
17.49737200608168
  0
LINE
  8
0
 10
-42.20168870124138
 20
17.49737200608168
 11
-42.87971017585961
 21
17.587959027287024
  0
LINE
  8
0
 10
-42.87971017585961
 20
17.587959027287024
 11
-43.711969837511425
 21
17.650195130963
  0
LINE
  8
0
 10
-43.711969837511425
 20
17.650195130963
 11
-44.69695702552885
 21
17.666412544422077
  0
LINE
  8
0
 10
-44.69695702552885
 20
17.666412544422077
 11
-44.94861631709612
 21
17.655908600504894
  0
LINE
  8
0
 10
-44.94861631709612
 20
17.655908600504894
 11
-45.465244577856836
 21
16.547995719972732
  0
LINE
  8
0
 10
-45.465244577856836
 20
16.547995719972732
 11
-45.78163704176105
 21
15.367202969550231
  0
LINE
  8
0
 10
-45.78163704176105
 20
15.367202969550231
 11
-45.595606644899526
 21
15.197393007199743
  0
LINE
  8
0
 10
-45.595606644899526
 20
15.197393007199743
 11
-44.830638330542676
 21
14.576678706504197
  0
LINE
  8
0
 10
-44.830638330542676
 20
14.576678706504197
 11
-44.15308584518489
 21
14.0893881293354
  0
LINE
  8
0
 10
-44.15308584518489
 20
14.0893881293354
 11
-43.575463047408306
 21
13.722958010562103
  0
LINE
  8
0
 10
-43.575463047408306
 20
13.722958010562103
 11
-43.109102012405835
 21
13.463845864163092
  0
LINE
  8
0
 10
-43.109102012405835
 20
13.463845864163092
 11
-42.76408295704689
 21
13.297625825567822
  0
LINE
  8
0
 10
-42.76408295704689
 20
13.297625825567822
 11
-42.54917136286829
 21
13.209089243434367
  0
LINE
  8
0
 10
-42.54917136286829
 20
13.209089243434367
 11
-42.25845521928723
 21
13.108665544874295
  0
LINE
  8
0
 10
-42.25845521928723
 20
13.108665544874295
 11
-41.811244444156785
 21
12.905087370028255
  0
LINE
  8
0
 10
-41.811244444156785
 20
12.905087370028255
 11
-41.52938919842365
 21
12.702786668066262
  0
LINE
  8
0
 10
-41.52938919842365
 20
12.702786668066262
 11
-41.41071080758063
 21
12.520212589772745
  0
LINE
  8
0
 10
-41.41071080758063
 20
12.520212589772745
 11
-42.12283384302195
 21
9.862533240265625
  0
LINE
  8
0
 10
-42.12283384302195
 20
9.862533240265625
 11
-42.31689938351912
 21
9.763758645810917
  0
LINE
  8
0
 10
-42.31689938351912
 20
9.763758645810917
 11
-42.66214353749487
 21
9.729488721576336
  0
LINE
  8
0
 10
-42.66214353749487
 20
9.729488721576336
 11
-43.15122851702697
 21
9.776790238068678
  0
LINE
  8
0
 10
-43.15122851702697
 20
9.776790238068678
 11
-43.45320793193955
 21
9.835178835764301
  0
LINE
  8
0
 10
-43.45320793193955
 20
9.835178835764301
 11
-43.683595123131624
 21
9.8659597035616
  0
LINE
  8
0
 10
-43.683595123131624
 20
9.8659597035616
 11
-44.0655004091598
 21
9.894518455199792
  0
LINE
  8
0
 10
-44.0655004091598
 20
9.894518455199792
 11
-44.59893698600667
 21
9.903301271490347
  0
LINE
  8
0
 10
-44.59893698600667
 20
9.903301271490347
 11
-45.28238806207204
 21
9.874774878809154
  0
LINE
  8
0
 10
-45.28238806207204
 20
9.874774878809154
 11
-46.11281101537449
 21
9.791545102634993
  0
LINE
  8
0
 10
-46.11281101537449
 20
9.791545102634993
 11
-47.08565015904539
 21
9.636474906918796
  0
LINE
  8
0
 10
-47.08565015904539
 20
9.636474906918796
 11
-47.33166218977887
 21
9.582430364138343
  0
LINE
  8
0
 10
-47.33166218977887
 20
9.582430364138343
 11
-47.6480546536831
 21
8.40163761371587
  0
LINE
  8
0
 10
-47.6480546536831
 20
8.40163761371587
 11
-47.75459789581739
 21
7.183842783614661
  0
LINE
  8
0
 10
-47.75459789581739
 20
7.183842783614661
 11
-47.5419065281804
 21
7.0489164555588495
  0
LINE
  8
0
 10
-47.5419065281804
 20
7.0489164555588495
 11
-46.6807738942255
 21
6.570467553589335
  0
LINE
  8
0
 10
-46.6807738942255
 20
6.570467553589335
 11
-45.92889783285283
 21
6.208235769579789
  0
LINE
  8
0
 10
-45.92889783285283
 20
6.208235769579789
 11
-45.29642050091859
 21
5.947675693887438
  0
LINE
  8
0
 10
-45.29642050091859
 20
5.947675693887438
 11
-44.7921501859118
 21
5.773482787077101
  0
LINE
  8
0
 10
-44.7921501859118
 20
5.773482787077101
 11
-44.42350893846358
 21
5.669699934585936
  0
LINE
  8
0
 10
-44.42350893846358
 20
5.669699934585936
 11
-44.19648811815995
 21
5.619827428764315
  0
LINE
  8
0
 10
-44.19648811815995
 20
5.619827428764315
 11
-43.89275021378597
 21
5.571411720387405
  0
LINE
  8
0
 10
-43.89275021378597
 20
5.571411720387405
 11
-43.41698259613214
 21
5.448583691589368
  0
LINE
  8
0
 10
-43.41698259613214
 20
5.448583691589368
 11
-43.104280216670546
 21
5.298300041644807
  0
LINE
  8
0
 10
-43.104280216670546
 20
5.298300041644807
 11
-42.955701161268436
 21
5.139107960140629
  0
LINE
  8
0
 10
-42.955701161268436
 20
5.139107960140629
 11
-43.195504271804694
 21
2.398145864346547
  0
LINE
  8
0
 10
-43.195504271804694
 20
2.398145864346547
 11
-43.36946949235197
 21
2.267172750471631
  0
LINE
  8
0
 10
-43.36946949235197
 20
2.267172750471631
 11
-43.7035177019773
 21
2.1734724452022265
  0
LINE
  8
0
 10
-43.7035177019773
 20
2.1734724452022265
 11
-44.19338620384211
 21
2.1351266299531018
  0
LINE
  8
0
 10
-44.19338620384211
 20
2.1351266299531018
 11
-44.50091694648448
 21
2.1401899985587685
  0
LINE
  8
0
 10
-44.50091694648448
 20
2.1401899985587685
 11
-44.73314908016515
 21
2.1304969199016863
  0
LINE
  8
0
 10
-44.73314908016515
 20
2.1304969199016863
 11
-45.114211541940456
 21
2.0923046429711674
  0
LINE
  8
0
 10
-45.114211541940456
 20
2.0923046429711674
 11
-45.64106913860318
 21
2.008323739077046
  0
LINE
  8
0
 10
-45.64106913860318
 20
2.008323739077046
 11
-46.30918350101239
 21
1.8615506925158807
  0
LINE
  8
0
 10
-46.30918350101239
 20
1.8615506925158807
 11
-47.11253776474368
 21
1.6353839311243348
  0
LINE
  8
0
 10
-47.11253776474368
 20
1.6353839311243348
 11
-48.04366963896796
 21
1.3137378556603958
  0
LINE
  8
0
 10
-48.04366963896796
 20
1.3137378556603958
 11
-48.276559457801866
 21
1.2177948301011967
  0
LINE
  8
0
 10
-48.276559457801866
 20
1.2177948301011967
 11
-48.3831026999362
 21
-7.993605777301127e-15
  0
LINE
  8
0
 10
-48.3831026999362
 20
-7.993605777301127e-15
 11
-48.27655945780186
 21
-1.2177948301012083
  0
LINE
  8
0
 10
-48.27655945780186
 20
-1.2177948301012083
 11
-48.04366963896799
 21
-1.3137378556603896
  0
LINE
  8
0
 10
-48.04366963896799
 20
-1.3137378556603896
 11
-47.11253776474364
 21
-1.635383931124353
  0
LINE
  8
0
 10
-47.11253776474364
 20
-1.635383931124353
 11
-46.30918350101325
 21
-1.8615506925156435
  0
LINE
  8
0
 10
-46.30918350101325
 20
-1.8615506925156435
 11
-45.6410691386032
 21
-2.0083237390768955
  0
LINE
  8
0
 10
-45.6410691386032
 20
-2.0083237390768955
 11
-45.11421154194049
 21
-2.0923046429709906
  0
LINE
  8
0
 10
-45.11421154194049
 20
-2.0923046429709906
 11
-44.73314908016521
 21
-2.1304969199017636
  0
LINE
  8
0
 10
-44.73314908016521
 20
-2.1304969199017636
 11
-44.5009169464834
 21
-2.140189998558866
  0
LINE
  8
0
 10
-44.5009169464834
 20
-2.140189998558866
 11
-44.193386203842124
 21
-2.1351266299531115
  0
LINE
  8
0
 10
-44.193386203842124
 20
-2.1351266299531115
 11
-43.70351770197728
 21
-2.1734724452021004
  0
LINE
  8
0
 10
-43.70351770197728
 20
-2.1734724452021004
 11
-43.36946949235213
 21
-2.2671727504728576
  0
LINE
  8
0
 10
-43.36946949235213
 20
-2.2671727504728576
 11
-43.195504271804694
 21
-2.398145864346273
  0
LINE
  8
0
 10
-43.195504271804694
 20
-2.398145864346273
 11
-42.95570116126848
 21
-5.139107960140358
  0
LINE
  8
0
 10
-42.95570116126848
 20
-5.139107960140358
 11
-43.10428021667017
 21
-5.2983000416459864
  0
LINE
  8
0
 10
-43.10428021667017
 20
-5.2983000416459864
 11
-43.41698259613217
 21
-5.448583691589246
  0
LINE
  8
0
 10
-43.41698259613217
 20
-5.448583691589246
 11
-43.89275021378595
 21
-5.571411720387412
  0
LINE
  8
0
 10
-43.89275021378595
 20
-5.571411720387412
 11
-44.19648811816099
 21
-5.619827428764598
  0
LINE
  8
0
 10
-44.19648811816099
 20
-5.619827428764598
 11
-44.4235089384635
 21
-5.669699934586
  0
LINE
  8
0
 10
-44.4235089384635
 20
-5.669699934586
 11
-44.7921501859118
 21
-5.773482787076921
  0
LINE
  8
0
 10
-44.7921501859118
 20
-5.773482787076921
 11
-45.29642050091859
 21
-5.947675693887286
  0
LINE
  8
0
 10
-45.29642050091859
 20
-5.947675693887286
 11
-45.92889783285202
 21
-6.208235769579406
  0
LINE
  8
0
 10
-45.92889783285202
 20
-6.208235769579406
 11
-46.68077389422554
 21
-6.570467553589359
  0
LINE
  8
0
 10
-46.68077389422554
 20
-6.570467553589359
 11
-47.54190652818037
 21
-7.048916455558837
  0
LINE
  8
0
 10
-47.54190652818037
 20
-7.048916455558837
 11
-47.754597895817376
 21
-7.183842783614671
  0
LINE
  8
0
 10
-47.754597895817376
 20
-7.183842783614671
 11
-47.64805465368304
 21
-8.40163761371587
  0
LINE
  8
0
 10
-47.64805465368304
 20
-8.40163761371587
 11
-47.33166218977882
 21
-9.582430364138366
  0
LINE
  8
0
 10
-47.33166218977882
 20
-9.582430364138366
 11
-47.08565015904543
 21
-9.636474906918817
  0
LINE
  8
0
 10
-47.08565015904543
 20
-9.636474906918817
 11
-46.112811015374454
 21
-9.791545102635025
  0
LINE
  8
0
 10
-46.112811015374454
 20
-9.791545102635025
 11
-45.282388062072926
 21
-9.87477487880909
  0
LINE
  8
0
 10
-45.282388062072926
 20
-9.87477487880909
 11
-44.59893698600672
 21
-9.903301271490225
  0
LINE
  8
0
 10
-44.59893698600672
 20
-9.903301271490225
 11
-44.06550040915987
 21
-9.894518455199641
  0
LINE
  8
0
 10
-44.06550040915987
 20
-9.894518455199641
 11
-43.68359512313168
 21
-9.865959703561709
  0
LINE
  8
0
 10
-43.68359512313168
 20
-9.865959703561709
 11
-43.45320793193848
 21
-9.835178835764227
  0
LINE
  8
0
 10
-43.45320793193848
 20
-9.835178835764227
 11
-43.15122851702699
 21
-9.776790238068708
  0
LINE
  8
0
 10
-43.15122851702699
 20
-9.776790238068708
 11
-42.66214353749487
 21
-9.729488721576224
  0
LINE
  8
0
 10
-42.66214353749487
 20
-9.729488721576224
 11
-42.31689938351908
 21
-9.76375864581217
  0
LINE
  8
0
 10
-42.31689938351908
 20
-9.76375864581217
 11
-42.12283384302201
 21
-9.862533240265373
  0
LINE
  8
0
 10
-42.12283384302201
 20
-9.862533240265373
 11
-41.41071080758072
 21
-12.520212589772502
  0
LINE
  8
0
 10
-41.41071080758072
 20
-12.520212589772502
 11
-41.529389198423075
 21
-12.702786668067372
  0
LINE
  8
0
 10
-41.529389198423075
 20
-12.702786668067372
 11
-41.81124444415684
 21
-12.905087370028157
  0
LINE
  8
0
 10
-41.81124444415684
 20
-12.905087370028157
 11
-42.25845521928721
 21
-13.108665544874315
  0
LINE
  8
0
 10
-42.25845521928721
 20
-13.108665544874315
 11
-42.549171362869274
 21
-13.209089243434843
  0
LINE
  8
0
 10
-42.549171362869274
 20
-13.209089243434843
 11
-42.7640829570468
 21
-13.297625825567888
  0
LINE
  8
0
 10
-42.7640829570468
 20
-13.297625825567888
 11
-43.10910201240586
 21
-13.46384586416293
  0
LINE
  8
0
 10
-43.10910201240586
 20
-13.46384586416293
 11
-43.575463047408334
 21
-13.722958010561971
  0
LINE
  8
0
 10
-43.575463047408334
 20
-13.722958010561971
 11
-44.15308584518416
 21
-14.089388129334903
  0
LINE
  8
0
 10
-44.15308584518416
 20
-14.089388129334903
 11
-44.830638330542705
 21
-14.576678706504248
  0
LINE
  8
0
 10
-44.830638330542705
 20
-14.576678706504248
 11
-45.5956066448995
 21
-15.197393007199748
  0
LINE
  8
0
 10
-45.5956066448995
 20
-15.197393007199748
 11
-45.781637041761044
 21
-15.36720296955026
  0
LINE
  8
0
 10
-45.781637041761044
 20
-15.36720296955026
 11
-45.46524457785682
 21
-16.547995719972732
  0
LINE
  8
0
 10
-45.46524457785682
 20
-16.547995719972732
 11
-44.9486163170961
 21
-17.655908600504908
  0
LINE
  8
0
 10
-44.9486163170961
 20
-17.655908600504908
 11
-44.696957025528896
 21
-17.666412544422084
  0
LINE
  8
0
 10
-44.696957025528896
 20
-17.666412544422084
 11
-43.71196983751139
 21
-17.650195130963002
  0
LINE
  8
0
 10
-43.71196983751139
 20
-17.650195130963002
 11
-42.879710175860495
 21
-17.587959027287095
  0
LINE
  8
0
 10
-42.879710175860495
 20
-17.587959027287095
 11
-42.201688701241466
 21
-17.497372006081545
  0
LINE
  8
0
 10
-42.201688701241466
 20
-17.497372006081545
 11
-41.677881344666034
 21
-17.396092331034957
  0
LINE
  8
0
 10
-41.677881344666034
 20
-17.396092331034957
 11
-41.3067372332475
 21
-17.301650294045405
  0
LINE
  8
0
 10
-41.3067372332475
 20
-17.301650294045405
 11
-41.085195182765766
 21
-17.231330740885504
  0
LINE
  8
0
 10
-41.085195182765766
 20
-17.231330740885504
 11
-40.7979425872972
 21
-17.12139102209514
  0
LINE
  8
0
 10
-40.7979425872972
 20
-17.12139102209514
 11
-40.324501729711955
 21
-16.989879406504087
  0
LINE
  8
0
 10
-40.324501729711955
 20
-16.989879406504087
 11
-39.9785517003021
 21
-16.96367767539873
  0
LINE
  8
0
 10
-39.9785517003021
 20
-16.96367767539873
 11
-39.77028242310149
 21
-17.027252534361615
  0
LINE
  8
0
 10
-39.77028242310149
 20
-17.027252534361615
 11
-38.60747696083538
 21
-19.520896895397655
  0
LINE
  8
0
 10
-38.60747696083538
 20
-19.520896895397655
 11
-38.692648704266816
 21
-19.72130554949972
  0
LINE
  8
0
 10
-38.692648704266816
 20
-19.72130554949972
 11
-38.93509278725636
 21
-19.96947649901805
  0
LINE
  8
0
 10
-38.93509278725636
 20
-19.96947649901805
 11
-39.340158446760555
 21
-20.247619200085023
  0
LINE
  8
0
 10
-39.340158446760555
 20
-20.247619200085023
 11
-39.60901956663637
 21
-20.396999565564975
  0
LINE
  8
0
 10
-39.60901956663637
 20
-20.396999565564975
 11
-39.80529195465036
 21
-20.52151008476322
  0
LINE
  8
0
 10
-39.80529195465036
 20
-20.52151008476322
 11
-40.11620558851115
 21
-20.745116797701076
  0
LINE
  8
0
 10
-40.11620558851115
 20
-20.745116797701076
 11
-40.53048719945082
 21
-21.081275192237527
  0
LINE
  8
0
 10
-40.53048719945082
 20
-21.081275192237527
 11
-41.03570468664986
 21
-21.542441560354938
  0
LINE
  8
0
 10
-41.03570468664986
 20
-21.542441560354938
 11
-41.618346506583926
 21
-22.139984853077316
  0
LINE
  8
0
 10
-41.618346506583926
 20
-22.139984853077316
 11
-42.2639073262036
 21
-22.884104462568796
  0
LINE
  8
0
 10
-42.2639073262036
 20
-22.884104462568796
 11
-42.417624312816955
 21
-23.08363846943597
  0
LINE
  8
0
 10
-42.417624312816955
 20
-23.08363846943597
 11
-41.90099605205625
 21
-24.191551349968133
  0
LINE
  8
0
 10
-41.90099605205625
 20
-24.191551349968133
 11
-41.19982948271572
 21
-25.192920988365945
  0
LINE
  8
0
 10
-41.19982948271572
 20
-25.192920988365945
 11
-40.95016947054323
 21
-25.159565176399198
  0
LINE
  8
0
 10
-40.95016947054323
 20
-25.159565176399198
 11
-39.982962575459545
 21
-24.97255291166638
  0
LINE
  8
0
 10
-39.982962575459545
 20
-24.97255291166638
 11
-39.17415399413484
 21
-24.7667419406577
  0
LINE
  8
0
 10
-39.17415399413484
 20
-24.7667419406577
 11
-38.52216346037387
 21
-24.559793946365552
  0
LINE
  8
0
 10
-38.52216346037387
 20
-24.559793946365552
 11
-38.02390094554009
 21
-24.36909474423926
  0
LINE
  8
0
 10
-38.02390094554009
 20
-24.36909474423926
 11
-37.67479503474868
 21
-24.211638995402044
  0
LINE
  8
0
 10
-37.67479503474868
 20
-24.211638995402044
 11
-37.46882956807662
 21
-24.103917380919068
  0
LINE
  8
0
 10
-37.46882956807662
 20
-24.103917380919068
 11
-37.20503181680746
 21
-23.945767003757123
  0
LINE
  8
0
 10
-37.20503181680746
 20
-23.945767003757123
 11
-36.76162034205419
 21
-23.734041202959148
  0
LINE
  8
0
 10
-36.76162034205419
 20
-23.734041202959148
 11
-36.42547595379472
 21
-23.648163942853408
  0
LINE
  8
0
 10
-36.42547595379472
 20
-23.648163942853408
 11
-36.209331096488974
 21
-23.674607376406822
  0
LINE
  8
0
 10
-36.209331096488974
 20
-23.674607376406822
 11
-34.63117446296103
 21
-25.928448626906622
  0
LINE
  8
0
 10
-34.63117446296103
 20
-25.928448626906622
 11
-34.68025165865638
 21
-26.140602541272667
  0
LINE
  8
0
 10
-34.68025165865638
 20
-26.140602541272667
 11
-34.875918038122684
 21
-26.42710318962798
  0
LINE
  8
0
 10
-34.875918038122684
 20
-26.42710318962798
 11
-35.22653086690977
 21
-26.771359191690845
  0
LINE
  8
0
 10
-35.22653086690977
 20
-26.771359191690845
 11
-35.46536775400221
 21
-26.96515737727523
  0
LINE
  8
0
 10
-35.46536775400221
 20
-26.96515737727523
 11
-35.63703729866146
 21
-27.121858644418204
  0
LINE
  8
0
 10
-35.63703729866146
 20
-27.121858644418204
 11
-35.90439855758902
 21
-27.396057854876705
  0
LINE
  8
0
 10
-35.90439855758902
 20
-27.396057854876705
 11
-36.254013007354104
 21
-27.799048494836935
  0
LINE
  8
0
 10
-36.254013007354104
 20
-27.799048494836935
 11
-36.6714744062802
 21
-28.34093880556502
  0
LINE
  8
0
 10
-36.6714744062802
 20
-28.34093880556502
 11
-37.141502283922065
 21
-29.030578763262557
  0
LINE
  8
0
 10
-37.141502283922065
 20
-29.030578763262557
 11
-37.648040569970014
 21
-29.875493983758307
  0
LINE
  8
0
 10
-37.648040569970014
 20
-29.875493983758307
 11
-37.76477353348144
 21
-30.098689295312532
  0
LINE
  8
0
 10
-37.76477353348144
 20
-30.098689295312532
 11
-37.063606964140945
 21
-31.100058933710365
  0
LINE
  8
0
 10
-37.063606964140945
 20
-31.100058933710365
 11
-36.19920667762265
 21
-31.964459220228605
  0
LINE
  8
0
 10
-36.19920667762265
 20
-31.964459220228605
 11
-35.95913173798071
 21
-31.888257151845707
  0
LINE
  8
0
 10
-35.95913173798071
 20
-31.888257151845707
 11
-35.03909322790765
 21
-31.53613230887028
  0
LINE
  8
0
 10
-35.03909322790765
 20
-31.53613230887028
 11
-34.2783109663758
 21
-31.192999932737546
  0
LINE
  8
0
 10
-34.2783109663758
 20
-31.192999932737546
 11
-33.672161775918084
 21
-30.875978975444635
  0
LINE
  8
0
 10
-33.672161775918084
 20
-30.875978975444635
 11
-33.21458355720618
 21
-30.601654544996794
  0
LINE
  8
0
 10
-33.21458355720618
 20
-30.601654544996794
 11
-32.89812325348518
 21
-30.38596929756388
  0
LINE
  8
0
 10
-32.89812325348518
 20
-30.38596929756388
 11
-32.71399252710407
 21
-30.24411868850413
  0
LINE
  8
0
 10
-32.71399252710407
 20
-30.24411868850413
 11
-32.48166498121852
 21
-30.04256297215272
  0
LINE
  8
0
 10
-32.48166498121852
 20
-30.04256297215272
 11
-32.08175572258055
 21
-29.75705616746664
  0
LINE
  8
0
 10
-32.08175572258055
 20
-29.75705616746664
 11
-31.765630552611476
 21
-29.61411271545284
  0
LINE
  8
0
 10
-31.765630552611476
 20
-29.61411271545284
 11
-31.54817756731525
 21
-29.602621253249286
  0
LINE
  8
0
 10
-31.54817756731525
 20
-29.602621253249286
 11
-29.602621253249442
 21
-31.54817756731511
  0
LINE
  8
0
 10
-29.602621253249442
 20
-31.54817756731511
 11
-29.61411271545175
 21
-31.76563055261218
  0
LINE
  8
0
 10
-29.61411271545175
 20
-31.76563055261218
 11
-29.7570561674667
 21
-32.08175572258052
  0
LINE
  8
0
 10
-29.7570561674667
 20
-32.08175572258052
 11
-30.042562972152652
 21
-32.48166498121855
  0
LINE
  8
0
 10
-30.042562972152652
 20
-32.48166498121855
 11
-30.244118688504702
 21
-32.71399252710499
  0
LINE
  8
0
 10
-30.244118688504702
 20
-32.71399252710499
 11
-30.38596929756373
 21
-32.89812325348522
  0
LINE
  8
0
 10
-30.38596929756373
 20
-32.89812325348522
 11
-30.60165454499686
 21
-33.21458355720608
  0
LINE
  8
0
 10
-30.60165454499686
 20
-33.21458355720608
 11
-30.875978975444685
 21
-33.672161775918
  0
LINE
  8
0
 10
-30.875978975444685
 20
-33.672161775918
 11
-31.192999932737127
 21
-34.27831096637502
  0
LINE
  8
0
 10
-31.192999932737127
 20
-34.27831096637502
 11
-31.53613230887024
 21
-35.03909322790773
  0
LINE
  8
0
 10
-31.53613230887024
 20
-35.03909322790773
 11
-31.888257151845636
 21
-35.95913173798073
  0
LINE
  8
0
 10
-31.888257151845636
 20
-35.95913173798073
 11
-31.964459220228548
 21
-36.19920667762269
  0
LINE
  8
0
 10
-31.964459220228548
 20
-36.19920667762269
 11
-31.10005893371033
 21
-37.0636069641409
  0
LINE
  8
0
 10
-31.10005893371033
 20
-37.0636069641409
 11
-30.098689295312525
 21
-37.764773533481424
  0
LINE
  8
0
 10
-30.098689295312525
 20
-37.764773533481424
 11
-29.87549398375834
 21
-37.64804056997003
  0
LINE
  8
0
 10
-29.87549398375834
 20
-37.64804056997003
 11
-29.030578763262522
 21
-37.141502283922044
  0
LINE
  8
0
 10
-29.030578763262522
 20
-37.141502283922044
 11
-28.340938805565763
 21
-36.6714744062807
  0
LINE
  8
0
 10
-28.340938805565763
 20
-36.6714744062807
 11
-27.79904849483707
 21
-36.25401300735401
  0
LINE
  8
0
 10
-27.79904849483707
 20
-36.25401300735401
 11
-27.39605785487687
 21
-35.90439855758893
  0
LINE
  8
0
 10
-27.39605785487687
 20
-35.90439855758893
 11
-27.121858644418193
 21
-35.63703729866156
  0
LINE
  8
0
 10
-27.121858644418193
 20
-35.63703729866156
 11
-26.96515737727447
 21
-35.46536775400145
  0
LINE
  8
0
 10
-26.96515737727447
 20
-35.46536775400145
 11
-26.771359191690852
 21
-35.22653086690979
  0
LINE
  8
0
 10
-26.771359191690852
 20
-35.22653086690979
 11
-26.427103189628067
 21
-34.87591803812258
  0
LINE
  8
0
 10
-26.427103189628067
 20
-34.87591803812258
 11
-26.140602541271836
 21
-34.68025165865728
  0
LINE
  8
0
 10
-26.140602541271836
 20
-34.68025165865728
 11
-25.92844862690684
 21
-34.63117446296085
  0
LINE
  8
0
 10
-25.92844862690684
 20
-34.63117446296085
 11
-23.674607376407057
 21
-36.20933109648882
  0
LINE
  8
0
 10
-23.674607376407057
 20
-36.20933109648882
 11
-23.648163942852268
 21
-36.42547595379518
  0
LINE
  8
0
 10
-23.648163942852268
 20
-36.42547595379518
 11
-23.73404120295927
 21
-36.76162034205413
  0
LINE
  8
0
 10
-23.73404120295927
 20
-36.76162034205413
 11
-23.945767003757112
 21
-37.20503181680744
  0
LINE
  8
0
 10
-23.945767003757112
 20
-37.20503181680744
 11
-24.10391738091953
 21
-37.468829568077595
  0
LINE
  8
0
 10
-24.10391738091953
 20
-37.468829568077595
 11
-24.211638995401948
 21
-37.674795034748655
  0
LINE
  8
0
 10
-24.211638995401948
 20
-37.674795034748655
 11
-24.369094744239405
 21
-38.02390094553997
  0
LINE
  8
0
 10
-24.369094744239405
 20
-38.02390094553997
 11
-24.559793946365676
 21
-38.52216346037377
  0
LINE
  8
0
 10
-24.559793946365676
 20
-38.52216346037377
 11
-24.76674194065748
 21
-39.17415399413397
  0
LINE
  8
0
 10
-24.76674194065748
 20
-39.17415399413397
 11
-24.972552911666387
 21
-39.982962575459574
  0
LINE
  8
0
 10
-24.972552911666387
 20
-39.982962575459574
 11
-25.159565176399195
 21
-40.950169470543194
  0
LINE
  8
0
 10
-25.159565176399195
 20
-40.950169470543194
 11
-25.192920988365927
 21
-41.19982948271569
  0
LINE
  8
0
 10
-25.192920988365927
 20
-41.19982948271569
 11
-24.19155134996811
 21
-41.90099605205617
  0
LINE
  8
0
 10
-24.19155134996811
 20
-41.90099605205617
 11
-23.08363846943595
 21
-42.41762431281687
  0
LINE
  8
0
 10
-23.08363846943595
 20
-42.41762431281687
 11
-22.88410446256884
 21
-42.263907326203615
  0
LINE
  8
0
 10
-22.88410446256884
 20
-42.263907326203615
 11
-22.1399848530773
 21
-41.61834650658388
  0
LINE
  8
0
 10
-22.1399848530773
 20
-41.61834650658388
 11
-21.5424415603556
 21
-41.035704686650476
  0
LINE
  8
0
 10
-21.5424415603556
 20
-41.035704686650476
 11
-21.081275192237694
 21
-40.530487199450754
  0
LINE
  8
0
 10
-21.081275192237694
 20
-40.530487199450754
 11
-20.745116797701268
 21
-40.11620558851107
  0
LINE
  8
0
 10
-20.745116797701268
 20
-40.11620558851107
 11
-20.52151008476321
 21
-39.805291954650436
  0
LINE
  8
0
 10
-20.52151008476321
 20
-39.805291954650436
 11
-20.396999565564375
 21
-39.609019566635475
  0
LINE
  8
0
 10
-20.396999565564375
 20
-39.609019566635475
 11
-20.247619200085044
 21
-39.34015844676056
  0
LINE
  8
0
 10
-20.247619200085044
 20
-39.34015844676056
 11
-19.969476499018175
 21
-38.93509278725627
  0
LINE
  8
0
 10
-19.969476499018175
 20
-38.93509278725627
 11
-19.721305549498766
 21
-38.69264870426756
  0
LINE
  8
0
 10
-19.721305549498766
 20
-38.69264870426756
 11
-19.520896895397918
 21
-38.607476960835236
  0
LINE
  8
0
 10
-19.520896895397918
 20
-38.607476960835236
 11
-17.027252534361896
 21
-39.77028242310138
  0
LINE
  8
0
 10
-17.027252534361896
 20
-39.77028242310138
 11
-16.96367767539754
 21
-39.978551700302354
  0
LINE
  8
0
 10
-16.96367767539754
 20
-39.978551700302354
 11
-16.989879406504233
 21
-40.32450172971192
  0
LINE
  8
0
 10
-16.989879406504233
 20
-40.32450172971192
 11
-17.121391022095146
 21
-40.79794258729718
  0
LINE
  8
0
 10
-17.121391022095146
 20
-40.79794258729718
 11
-17.231330740885802
 21
-41.0851951827668
  0
LINE
  8
0
 10
-17.231330740885802
 20
-41.0851951827668
 11
-17.301650294045334
 21
-41.30673723324746
  0
LINE
  8
0
 10
-17.301650294045334
 20
-41.30673723324746
 11
-17.39609233103514
 21
-41.677881344665934
  0
LINE
  8
0
 10
-17.39609233103514
 20
-41.677881344665934
 11
-17.4973720060817
 21
-42.20168870124138
  0
LINE
  8
0
 10
-17.4973720060817
 20
-42.20168870124138
 11
-17.587959027287045
 21
-42.87971017585959
  0
LINE
  8
0
 10
-17.587959027287045
 20
-42.87971017585959
 11
-17.650195130963024
 21
-43.71196983751142
  0
LINE
  8
0
 10
-17.650195130963024
 20
-43.71196983751142
 11
-17.666412544422105
 21
-44.69695702552885
  0
LINE
  8
0
 10
-17.666412544422105
 20
-44.69695702552885
 11
-17.6559086005049
 21
-44.94861631709607
  0
LINE
  8
0
 10
-17.6559086005049
 20
-44.94861631709607
 11
-16.547995719972718
 21
-45.465244577856794
  0
LINE
  8
0
 10
-16.547995719972718
 20
-45.465244577856794
 11
-15.367202969550231
 21
-45.78163704176103
  0
LINE
  8
0
 10
-15.367202969550231
 20
-45.78163704176103
 11
-15.197393007199745
 21
-45.595606644899526
  0
LINE
  8
0
 10
-15.197393007199745
 20
-45.595606644899526
 11
-14.576678706504199
 21
-44.830638330542676
  0
LINE
  8
0
 10
-14.576678706504199
 20
-44.830638330542676
 11
-14.089388129335404
 21
-44.15308584518489
  0
LINE
  8
0
 10
-14.089388129335404
 20
-44.15308584518489
 11
-13.722958010562106
 21
-43.575463047408306
  0
LINE
  8
0
 10
-13.722958010562106
 20
-43.575463047408306
 11
-13.463845864163094
 21
-43.109102012405835
  0
LINE
  8
0
 10
-13.463845864163094
 20
-43.109102012405835
 11
-13.297625825567826
 21
-42.76408295704689
  0
LINE
  8
0
 10
-13.297625825567826
 20
-42.76408295704689
 11
-13.209089243434368
 21
-42.54917136286829
  0
LINE
  8
0
 10
-13.209089243434368
 20
-42.54917136286829
 11
-13.108665544874297
 21
-42.25845521928723
  0
LINE
  8
0
 10
-13.108665544874297
 20
-42.25845521928723
 11
-12.905087370028257
 21
-41.811244444156785
  0
LINE
  8
0
 10
-12.905087370028257
 20
-41.811244444156785
 11
-12.702786668066263
 21
-41.52938919842365
  0
LINE
  8
0
 10
-12.702786668066263
 20
-41.52938919842365
 11
-12.520212589772749
 21
-41.41071080758063
  0
LINE
  8
0
 10
-12.520212589772749
 20
-41.41071080758063
 11
-9.862533240265629
 21
-42.12283384302195
  0
LINE
  8
0
 10
-9.862533240265629
 20
-42.12283384302195
 11
-9.763758645810919
 21
-42.31689938351912
  0
LINE
  8
0
 10
-9.763758645810919
 20
-42.31689938351912
 11
-9.729488721576338
 21
-42.66214353749487
  0
LINE
  8
0
 10
-9.729488721576338
 20
-42.66214353749487
 11
-9.776790238068681
 21
-43.15122851702697
  0
LINE
  8
0
 10
-9.776790238068681
 20
-43.15122851702697
 11
-9.835178835764305
 21
-43.45320793193955
  0
LINE
  8
0
 10
-9.835178835764305
 20
-43.45320793193955
 11
-9.865959703561602
 21
-43.683595123131624
  0
LINE
  8
0
 10
-9.865959703561602
 20
-43.683595123131624
 11
-9.894518455199794
 21
-44.0655004091598
  0
LINE
  8
0
 10
-9.894518455199794
 20
-44.0655004091598
 11
-9.903301271490351
 21
-44.59893698600667
  0
LINE
  8
0
 10
-9.903301271490351
 20
-44.59893698600667
 11
-9.874774878809157
 21
-45.28238806207204
  0
LINE
  8
0
 10
-9.874774878809157
 20
-45.28238806207204
 11
-9.791545102634997
 21
-46.11281101537449
  0
LINE
  8
0
 10
-9.791545102634997
 20
-46.11281101537449
 11
-9.6364749069188
 21
-47.08565015904539
  0
LINE
  8
0
 10
-9.6364749069188
 20
-47.08565015904539
 11
-9.58243036413834
 21
-47.33166218977885
  0
LINE
  8
0
 10
-9.58243036413834
 20
-47.33166218977885
 11
-8.40163761371587
 21
-47.648054653683076
  0
LINE
  8
0
 10
-8.40163761371587
 20
-47.648054653683076
 11
-7.183842783614662
 21
-47.75459789581738
  0
LINE
  8
0
 10
-7.183842783614662
 20
-47.75459789581738
 11
-7.048916455558852
 21
-47.5419065281804
  0
LINE
  8
0
 10
-7.048916455558852
 20
-47.5419065281804
 11
-6.570467553589339
 21
-46.6807738942255
  0
LINE
  8
0
 10
-6.570467553589339
 20
-46.6807738942255
 11
-6.208235769579792
 21
-45.92889783285283
  0
LINE
  8
0
 10
-6.208235769579792
 20
-45.92889783285283
 11
-5.947675693887441
 21
-45.29642050091859
  0
LINE
  8
0
 10
-5.947675693887441
 20
-45.29642050091859
 11
-5.7734827870771035
 21
-44.7921501859118
  0
LINE
  8
0
 10
-5.7734827870771035
 20
-44.7921501859118
 11
-5.669699934585939
 21
-44.42350893846358
  0
LINE
  8
0
 10
-5.669699934585939
 20
-44.42350893846358
 11
-5.619827428764317
 21
-44.19648811815995
  0
LINE
  8
0
 10
-5.619827428764317
 20
-44.19648811815995
 11
-5.571411720387408
 21
-43.89275021378597
  0
LINE
  8
0
 10
-5.571411720387408
 20
-43.89275021378597
 11
-5.448583691589371
 21
-43.41698259613214
  0
LINE
  8
0
 10
-5.448583691589371
 20
-43.41698259613214
 11
-5.29830004164481
 21
-43.104280216670546
  0
LINE
  8
0
 10
-5.29830004164481
 20
-43.104280216670546
 11
-5.139107960140632
 21
-42.955701161268436
  0
LINE
  8
0
 10
-5.139107960140632
 20
-42.955701161268436
 11
-2.39814586434655
 21
-43.195504271804694
  0
LINE
  8
0
 10
-2.39814586434655
 20
-43.195504271804694
 11
-2.2671727504716337
 21
-43.36946949235197
  0
LINE
  8
0
 10
-2.2671727504716337
 20
-43.36946949235197
 11
-2.173472445202229
 21
-43.7035177019773
  0
LINE
  8
0
 10
-2.173472445202229
 20
-43.7035177019773
 11
-2.1351266299531044
 21
-44.19338620384211
  0
LINE
  8
0
 10
-2.1351266299531044
 20
-44.19338620384211
 11
-2.140189998558771
 21
-44.50091694648448
  0
LINE
  8
0
 10
-2.140189998558771
 20
-44.50091694648448
 11
-2.1304969199016894
 21
-44.73314908016515
  0
LINE
  8
0
 10
-2.1304969199016894
 20
-44.73314908016515
 11
-2.0923046429711705
 21
-45.114211541940456
  0
LINE
  8
0
 10
-2.0923046429711705
 20
-45.114211541940456
 11
-2.0083237390770488
 21
-45.64106913860318
  0
LINE
  8
0
 10
-2.0083237390770488
 20
-45.64106913860318
 11
-1.8615506925158833
 21
-46.30918350101239
  0
LINE
  8
0
 10
-1.8615506925158833
 20
-46.30918350101239
 11
-1.6353839311243377
 21
-47.11253776474368
  0
LINE
  8
0
 10
-1.6353839311243377
 20
-47.11253776474368
 11
-1.313737855660399
 21
-48.04366963896796
  0
LINE
  8
0
 10
-1.313737855660399
 20
-48.04366963896796
 11
-1.2177948301011998
 21
-48.276559457801866
  0
LINE
  8
0
 10
-1.2177948301011998
 20
-48.276559457801866
 11
-1.9539925233402755e-14
 21
-48.3831026999362
  0
LINE
  8
0
 10
-1.9539925233402755e-14
 20
-48.3831026999362
 11
1.21779483010119
 21
-48.276559457801895
  0
LINE
  8
0
 10
1.21779483010119
 20
-48.276559457801895
 11
1.3137378556603656
 21
-48.04366963896799
  0
LINE
  8
0
 10
1.3137378556603656
 20
-48.04366963896799
 11
1.635383931124329
 21
-47.112537764743635
  0
LINE
  8
0
 10
1.635383931124329
 20
-47.112537764743635
 11
1.8615506925156204
 21
-46.30918350101325
  0
LINE
  8
0
 10
1.8615506925156204
 20
-46.30918350101325
 11
2.0083237390768724
 21
-45.64106913860321
  0
LINE
  8
0
 10
2.0083237390768724
 20
-45.64106913860321
 11
2.0923046429709675
 21
-45.114211541940485
  0
LINE
  8
0
 10
2.0923046429709675
 20
-45.114211541940485
 11
2.1304969199017405
 21
-44.73314908016522
  0
LINE
  8
0
 10
2.1304969199017405
 20
-44.73314908016522
 11
2.140189998558844
 21
-44.50091694648341
  0
LINE
  8
0
 10
2.140189998558844
 20
-44.50091694648341
 11
2.1351266299530884
 21
-44.19338620384213
  0
LINE
  8
0
 10
2.1351266299530884
 20
-44.19338620384213
 11
2.1734724452020773
 21
-43.70351770197728
  0
LINE
  8
0
 10
2.1734724452020773
 20
-43.70351770197728
 11
2.2671727504728363
 21
-43.36946949235214
  0
LINE
  8
0
 10
2.2671727504728363
 20
-43.36946949235214
 11
2.398145864346252
 21
-43.1955042718047
  0
LINE
  8
0
 10
2.398145864346252
 20
-43.1955042718047
 11
5.139107960140336
 21
-42.95570116126848
  0
LINE
  8
0
 10
5.139107960140336
 20
-42.95570116126848
 11
5.298300041645964
 21
-43.10428021667017
  0
LINE
  8
0
 10
5.298300041645964
 20
-43.10428021667017
 11
5.448583691589223
 21
-43.41698259613217
  0
LINE
  8
0
 10
5.448583691589223
 20
-43.41698259613217
 11
5.571411720387389
 21
-43.89275021378596
  0
LINE
  8
0
 10
5.571411720387389
 20
-43.89275021378596
 11
5.619827428764576
 21
-44.19648811816099
  0
LINE
  8
0
 10
5.619827428764576
 20
-44.19648811816099
 11
5.669699934585978
 21
-44.4235089384635
  0
LINE
  8
0
 10
5.669699934585978
 20
-44.4235089384635
 11
5.773482787076898
 21
-44.79215018591181
  0
LINE
  8
0
 10
5.773482787076898
 20
-44.79215018591181
 11
5.947675693887263
 21
-45.29642050091859
  0
LINE
  8
0
 10
5.947675693887263
 20
-45.29642050091859
 11
6.208235769579383
 21
-45.92889783285203
  0
LINE
  8
0
 10
6.208235769579383
 20
-45.92889783285203
 11
6.570467553589336
 21
-46.68077389422554
  0
LINE
  8
0
 10
6.570467553589336
 20
-46.68077389422554
 11
7.048916455558812
 21
-47.54190652818037
  0
LINE
  8
0
 10
7.048916455558812
 20
-47.54190652818037
 11
7.183842783614651
 21
-47.754597895817426
  0
LINE
  8
0
 10
7.183842783614651
 20
-47.754597895817426
 11
8.401637613715874
 21
-47.64805465368309
  0
LINE
  8
0
 10
8.401637613715874
 20
-47.64805465368309
 11
9.582430364138363
 21
-47.33166218977881
  0
LINE
  8
0
 10
9.582430364138363
 20
-47.33166218977881
 11
9.636474906918814
 21
-47.08565015904543
  0
LINE
  8
0
 10
9.636474906918814
 20
-47.08565015904543
 11
9.791545102635022
 21
-46.112811015374454
  0
LINE
  8
0
 10
9.791545102635022
 20
-46.112811015374454
 11
9.874774878809088
 21
-45.282388062072926
  0
LINE
  8
0
 10
9.874774878809088
 20
-45.282388062072926
 11
9.903301271490221
 21
-44.59893698600672
  0
LINE
  8
0
 10
9.903301271490221
 20
-44.59893698600672
 11
9.894518455199641
 21
-44.06550040915987
  0
LINE
  8
0
 10
9.894518455199641
 20
-44.06550040915987
 11
9.865959703561705
 21
-43.68359512313168
  0
LINE
  8
0
 10
9.865959703561705
 20
-43.68359512313168
 11
9.835178835764227
 21
-43.45320793193848
  0
LINE
  8
0
 10
9.835178835764227
 20
-43.45320793193848
 11
9.776790238068704
 21
-43.15122851702699
  0
LINE
  8
0
 10
9.776790238068704
 20
-43.15122851702699
 11
9.729488721576221
 21
-42.66214353749487
  0
LINE
  8
0
 10
9.729488721576221
 20
-42.66214353749487
 11
9.763758645812166
 21
-42.31689938351908
  0
LINE
  8
0
 10
9.763758645812166
 20
-42.31689938351908
 11
9.86253324026537
 21
-42.12283384302201
  0
LINE
  8
0
 10
9.86253324026537
 20
-42.12283384302201
 11
12.520212589772498
 21
-41.41071080758072
  0
LINE
  8
0
 10
12.520212589772498
 20
-41.41071080758072
 11
12.70278666806737
 21
-41.529389198423075
  0
LINE
  8
0
 10
12.70278666806737
 20
-41.529389198423075
 11
12.905087370028154
 21
-41.81124444415684
  0
LINE
  8
0
 10
12.905087370028154
 20
-41.81124444415684
 11
13.108665544874311
 21
-42.25845521928721
  0
LINE
  8
0
 10
13.108665544874311
 20
-42.25845521928721
 11
13.209089243434839
 21
-42.549171362869274
  0
LINE
  8
0
 10
13.209089243434839
 20
-42.549171362869274
 11
13.297625825567886
 21
-42.7640829570468
  0
LINE
  8
0
 10
13.297625825567886
 20
-42.7640829570468
 11
13.463845864162929
 21
-43.10910201240586
  0
LINE
  8
0
 10
13.463845864162929
 20
-43.10910201240586
 11
13.72295801056197
 21
-43.575463047408334
  0
LINE
  8
0
 10
13.72295801056197
 20
-43.575463047408334
 11
14.0893881293349
 21
-44.15308584518416
  0
LINE
  8
0
 10
14.0893881293349
 20
-44.15308584518416
 11
14.576678706504245
 21
-44.830638330542705
  0
LINE
  8
0
 10
14.576678706504245
 20
-44.830638330542705
 11
15.197393007199745
 21
-45.5956066448995
  0
LINE
  8
0
 10
15.197393007199745
 20
-45.5956066448995
 11
15.367202969550256
 21
-45.78163704176104
  0
LINE
  8
0
 10
15.367202969550256
 20
-45.78163704176104
 11
16.547995719972736
 21
-45.465244577856815
  0
LINE
  8
0
 10
16.547995719972736
 20
-45.465244577856815
 11
17.655908600504905
 21
-44.9486163170961
  0
LINE
  8
0
 10
17.655908600504905
 20
-44.9486163170961
 11
17.666412544422084
 21
-44.696957025528896
  0
LINE
  8
0
 10
17.666412544422084
 20
-44.696957025528896
 11
17.650195130963002
 21
-43.71196983751139
  0
LINE
  8
0
 10
17.650195130963002
 20
-43.71196983751139
 11
17.587959027287095
 21
-42.879710175860495
  0
LINE
  8
0
 10
17.587959027287095
 20
-42.879710175860495
 11
17.497372006081545
 21
-42.201688701241466
  0
LINE
  8
0
 10
17.497372006081545
 20
-42.201688701241466
 11
17.396092331034957
 21
-41.677881344666034
  0
LINE
  8
0
 10
17.396092331034957
 20
-41.677881344666034
 11
17.301650294045405
 21
-41.3067372332475
  0
LINE
  8
0
 10
17.301650294045405
 20
-41.3067372332475
 11
17.231330740885504
 21
-41.085195182765766
  0
LINE
  8
0
 10
17.231330740885504
 20
-41.085195182765766
 11
17.12139102209514
 21
-40.7979425872972
  0
LINE
  8
0
 10
17.12139102209514
 20
-40.7979425872972
 11
16.989879406504087
 21
-40.324501729711955
  0
LINE
  8
0
 10
16.989879406504087
 20
-40.324501729711955
 11
16.96367767539873
 21
-39.9785517003021
  0
LINE
  8
0
 10
16.96367767539873
 20
-39.9785517003021
 11
17.027252534361615
 21
-39.77028242310149
  0
LINE
  8
0
 10
17.027252534361615
 20
-39.77028242310149
 11
19.520896895397655
 21
-38.60747696083538
  0
LINE
  8
0
 10
19.520896895397655
 20
-38.60747696083538
 11
19.72130554949972
 21
-38.692648704266816
  0
LINE
  8
0
 10
19.72130554949972
 20
-38.692648704266816
 11
19.96947649901805
 21
-38.93509278725636
  0
LINE
  8
0
 10
19.96947649901805
 20
-38.93509278725636
 11
20.247619200085023
 21
-39.340158446760555
  0
LINE
  8
0
 10
20.247619200085023
 20
-39.340158446760555
 11
20.396999565564975
 21
-39.60901956663637
  0
LINE
  8
0
 10
20.396999565564975
 20
-39.60901956663637
 11
20.52151008476322
 21
-39.80529195465036
  0
LINE
  8
0
 10
20.52151008476322
 20
-39.80529195465036
 11
20.745116797701076
 21
-40.11620558851115
  0
LINE
  8
0
 10
20.745116797701076
 20
-40.11620558851115
 11
21.081275192237527
 21
-40.53048719945082
  0
LINE
  8
0
 10
21.081275192237527
 20
-40.53048719945082
 11
21.542441560354938
 21
-41.03570468664986
  0
LINE
  8
0
 10
21.542441560354938
 20
-41.03570468664986
 11
22.139984853077316
 21
-41.618346506583926
  0
LINE
  8
0
 10
22.139984853077316
 20
-41.618346506583926
 11
22.884104462568796
 21
-42.2639073262036
  0
LINE
  8
0
 10
22.884104462568796
 20
-42.2639073262036
 11
23.08363846943597
 21
-42.417624312816955
  0
LINE
  8
0
 10
23.08363846943597
 20
-42.417624312816955
 11
24.19155134996812
 21
-41.90099605205626
  0
LINE
  8
0
 10
24.19155134996812
 20
-41.90099605205626
 11
25.192920988365913
 21
-41.19982948271571
  0
LINE
  8
0
 10
25.192920988365913
 20
-41.19982948271571
 11
25.15956517639918
 21
-40.950169470543244
  0
LINE
  8
0
 10
25.15956517639918
 20
-40.950169470543244
 11
24.972552911666362
 21
-39.98296257545956
  0
LINE
  8
0
 10
24.972552911666362
 20
-39.98296257545956
 11
24.76674194065768
 21
-39.174153994134855
  0
LINE
  8
0
 10
24.76674194065768
 20
-39.174153994134855
 11
24.559793946365534
 21
-38.52216346037388
  0
LINE
  8
0
 10
24.559793946365534
 20
-38.52216346037388
 11
24.369094744239245
 21
-38.023900945540106
  0
LINE
  8
0
 10
24.369094744239245
 20
-38.023900945540106
 11
24.21163899540203
 21
-37.6747950347487
  0
LINE
  8
0
 10
24.21163899540203
 20
-37.6747950347487
 11
24.103917380919054
 21
-37.468829568076636
  0
LINE
  8
0
 10
24.103917380919054
 20
-37.468829568076636
 11
23.94576700375711
 21
-37.20503181680748
  0
LINE
  8
0
 10
23.94576700375711
 20
-37.20503181680748
 11
23.734041202959133
 21
-36.761620342054194
  0
LINE
  8
0
 10
23.734041202959133
 20
-36.761620342054194
 11
23.648163942853394
 21
-36.42547595379473
  0
LINE
  8
0
 10
23.648163942853394
 20
-36.42547595379473
 11
23.674607376406808
 21
-36.20933109648898
  0
LINE
  8
0
 10
23.674607376406808
 20
-36.20933109648898
 11
25.928448626906608
 21
-34.63117446296104
  0
LINE
  8
0
 10
25.928448626906608
 20
-34.63117446296104
 11
26.140602541272653
 21
-34.68025165865639
  0
LINE
  8
0
 10
26.140602541272653
 20
-34.68025165865639
 11
26.427103189627964
 21
-34.8759180381227
  0
LINE
  8
0
 10
26.427103189627964
 20
-34.8759180381227
 11
26.77135919169083
 21
-35.22653086690978
  0
LINE
  8
0
 10
26.77135919169083
 20
-35.22653086690978
 11
26.96515737727521
 21
-35.46536775400222
  0
LINE
  8
0
 10
26.96515737727521
 20
-35.46536775400222
 11
27.12185864441819
 21
-35.637037298661475
  0
LINE
  8
0
 10
27.12185864441819
 20
-35.637037298661475
 11
27.39605785487669
 21
-35.90439855758903
  0
LINE
  8
0
 10
27.39605785487669
 20
-35.90439855758903
 11
27.79904849483692
 21
-36.25401300735412
  0
LINE
  8
0
 10
27.79904849483692
 20
-36.25401300735412
 11
28.340938805565006
 21
-36.67147440628021
  0
LINE
  8
0
 10
28.340938805565006
 20
-36.67147440628021
 11
29.03057876326254
 21
-37.14150228392208
  0
LINE
  8
0
 10
29.03057876326254
 20
-37.14150228392208
 11
29.87549398375829
 21
-37.64804056997003
  0
LINE
  8
0
 10
29.87549398375829
 20
-37.64804056997003
 11
30.09868929531251
 21
-37.76477353348143
  0
LINE
  8
0
 10
30.09868929531251
 20
-37.76477353348143
 11
31.10005893371032
 21
-37.06360696414096
  0
LINE
  8
0
 10
31.10005893371032
 20
-37.06360696414096
 11
31.964459220228587
 21
-36.19920667762271
  0
LINE
  8
0
 10
31.964459220228587
 20
-36.19920667762271
 11
31.888257151845664
 21
-35.95913173798074
  0
LINE
  8
0
 10
31.888257151845664
 20
-35.95913173798074
 11
31.536132308870247
 21
-35.039093227907685
  0
LINE
  8
0
 10
31.536132308870247
 20
-35.039093227907685
 11
31.19299993273751
 21
-34.27831096637583
  0
LINE
  8
0
 10
31.19299993273751
 20
-34.27831096637583
 11
30.875978975444603
 21
-33.67216177591811
  0
LINE
  8
0
 10
30.875978975444603
 20
-33.67216177591811
 11
30.601654544996755
 21
-33.21458355720622
  0
LINE
  8
0
 10
30.601654544996755
 20
-33.21458355720622
 11
30.385969297563847
 21
-32.89812325348522
  0
LINE
  8
0
 10
30.385969297563847
 20
-32.89812325348522
 11
30.2441186885041
 21
-32.7139925271041
  0
LINE
  8
0
 10
30.2441186885041
 20
-32.7139925271041
 11
30.042562972152684
 21
-32.48166498121855
  0
LINE
  8
0
 10
30.042562972152684
 20
-32.48166498121855
 11
29.757056167466608
 21
-32.08175572258058
  0
LINE
  8
0
 10
29.757056167466608
 20
-32.08175572258058
 11
29.61411271545281
 21
-31.765630552611505
  0
LINE
  8
0
 10
29.61411271545281
 20
-31.765630552611505
 11
29.60262125324925
 21
-31.548177567315282
  0
LINE
  8
0
 10
29.60262125324925
 20
-31.548177567315282
 11
31.548177567315083
 21
-29.602621253249474
  0
LINE
  8
0
 10
31.548177567315083
 20
-29.602621253249474
 11
31.76563055261215
 21
-29.61411271545178
  0
LINE
  8
0
 10
31.76563055261215
 20
-29.61411271545178
 11
32.08175572258049
 21
-29.757056167466732
  0
LINE
  8
0
 10
32.08175572258049
 20
-29.757056167466732
 11
32.481664981218515
 21
-30.042562972152684
  0
LINE
  8
0
 10
32.481664981218515
 20
-30.042562972152684
 11
32.713992527104956
 21
-30.24411868850473
  0
LINE
  8
0
 10
32.713992527104956
 20
-30.24411868850473
 11
32.89812325348519
 21
-30.38596929756376
  0
LINE
  8
0
 10
32.89812325348519
 20
-30.38596929756376
 11
33.214583557206055
 21
-30.601654544996894
  0
LINE
  8
0
 10
33.214583557206055
 20
-30.601654544996894
 11
33.67216177591797
 21
-30.87597897544472
  0
LINE
  8
0
 10
33.67216177591797
 20
-30.87597897544472
 11
34.27831096637499
 21
-31.192999932737163
  0
LINE
  8
0
 10
34.27831096637499
 20
-31.192999932737163
 11
35.0390932279077
 21
-31.536132308870275
  0
LINE
  8
0
 10
35.0390932279077
 20
-31.536132308870275
 11
35.95913173798069
 21
-31.888257151845675
  0
LINE
  8
0
 10
35.95913173798069
 20
-31.888257151845675
 11
36.19920667762269
 21
-31.964459220228623
  0
LINE
  8
0
 10
36.19920667762269
 20
-31.964459220228623
 11
37.063606964140945
 21
-31.100058933710372
  0
LINE
  8
0
 10
37.063606964140945
 20
-31.100058933710372
 11
37.76477353348143
 21
-30.098689295312532
  0
LINE
  8
0
 10
37.76477353348143
 20
-30.098689295312532
 11
37.64804056997003
 21
-29.87549398375834
  0
LINE
  8
0
 10
37.64804056997003
 20
-29.87549398375834
 11
37.141502283922044
 21
-29.030578763262522
  0
LINE
  8
0
 10
37.141502283922044
 20
-29.030578763262522
 11
36.6714744062807
 21
-28.340938805565763
  0
LINE
  8
0
 10
36.6714744062807
 20
-28.340938805565763
 11
36.25401300735401
 21
-27.79904849483707
  0
LINE
  8
0
 10
36.25401300735401
 20
-27.79904849483707
 11
35.90439855758893
 21
-27.39605785487687
  0
LINE
  8
0
 10
35.90439855758893
 20
-27.39605785487687
 11
35.63703729866156
 21
-27.121858644418193
  0
LINE
  8
0
 10
35.63703729866156
 20
-27.121858644418193
 11
35.46536775400145
 21
-26.96515737727447
  0
LINE
  8
0
 10
35.46536775400145
 20
-26.96515737727447
 11
35.22653086690979
 21
-26.771359191690852
  0
LINE
  8
0
 10
35.22653086690979
 20
-26.771359191690852
 11
34.87591803812258
 21
-26.427103189628067
  0
LINE
  8
0
 10
34.87591803812258
 20
-26.427103189628067
 11
34.68025165865728
 21
-26.140602541271836
  0
LINE
  8
0
 10
34.68025165865728
 20
-26.140602541271836
 11
34.63117446296085
 21
-25.92844862690684
  0
LINE
  8
0
 10
34.63117446296085
 20
-25.92844862690684
 11
36.20933109648882
 21
-23.674607376407057
  0
LINE
  8
0
 10
36.20933109648882
 20
-23.674607376407057
 11
36.42547595379518
 21
-23.648163942852268
  0
LINE
  8
0
 10
36.42547595379518
 20
-23.648163942852268
 11
36.76162034205413
 21
-23.73404120295927
  0
LINE
  8
0
 10
36.76162034205413
 20
-23.73404120295927
 11
37.20503181680744
 21
-23.945767003757112
  0
LINE
  8
0
 10
37.20503181680744
 20
-23.945767003757112
 11
37.468829568077595
 21
-24.10391738091953
  0
LINE
  8
0
 10
37.468829568077595
 20
-24.10391738091953
 11
37.674795034748655
 21
-24.211638995401948
  0
LINE
  8
0
 10
37.674795034748655
 20
-24.211638995401948
 11
38.02390094553997
 21
-24.369094744239405
  0
LINE
  8
0
 10
38.02390094553997
 20
-24.369094744239405
 11
38.52216346037377
 21
-24.559793946365676
  0
LINE
  8
0
 10
38.52216346037377
 20
-24.559793946365676
 11
39.17415399413397
 21
-24.76674194065748
  0
LINE
  8
0
 10
39.17415399413397
 20
-24.76674194065748
 11
39.982962575459574
 21
-24.972552911666387
  0
LINE
  8
0
 10
39.982962575459574
 20
-24.972552911666387
 11
40.950169470543194
 21
-25.159565176399195
  0
LINE
  8
0
 10
40.950169470543194
 20
-25.159565176399195
 11
41.19982948271569
 21
-25.19292098836593
  0
LINE
  8
0
 10
41.19982948271569
 20
-25.19292098836593
 11
41.90099605205619
 21
-24.191551349968076
  0
LINE
  8
0
 10
41.90099605205619
 20
-24.191551349968076
 11
42.417624312816564
 21
-23.083638469435762
  0
LINE
  8
0
 10
42.417624312816564
 20
-23.083638469435762
 11
42.26390732620362
 21
-22.884104462568803
  0
LINE
  8
0
 10
42.26390732620362
 20
-22.884104462568803
 11
41.6183465065839
 21
-22.13998485307727
  0
LINE
  8
0
 10
41.6183465065839
 20
-22.13998485307727
 11
41.03570468665049
 21
-21.542441560355563
  0
LINE
  8
0
 10
41.03570468665049
 20
-21.542441560355563
 11
40.53048719945076
 21
-21.08127519223766
  0
LINE
  8
0
 10
40.53048719945076
 20
-21.08127519223766
 11
40.116205588511086
 21
-20.745116797701233
  0
LINE
  8
0
 10
40.116205588511086
 20
-20.745116797701233
 11
39.80529195465046
 21
-20.52151008476318
  0
LINE
  8
0
 10
39.80529195465046
 20
-20.52151008476318
 11
39.60901956663549
 21
-20.39699956556434
  0
LINE
  8
0
 10
39.60901956663549
 20
-20.39699956556434
 11
39.34015844676057
 21
-20.247619200085012
  0
LINE
  8
0
 10
39.34015844676057
 20
-20.247619200085012
 11
38.93509278725629
 21
-19.96947649901814
  0
LINE
  8
0
 10
38.93509278725629
 20
-19.96947649901814
 11
38.692648704267576
 21
-19.721305549498734
  0
LINE
  8
0
 10
38.692648704267576
 20
-19.721305549498734
 11
38.60747696083524
 21
-19.520896895397886
  0
LINE
  8
0
 10
38.60747696083524
 20
-19.520896895397886
 11
39.770282423101385
 21
-17.02725253436186
  0
LINE
  8
0
 10
39.770282423101385
 20
-17.02725253436186
 11
39.97855170030237
 21
-16.96367767539751
  0
LINE
  8
0
 10
39.97855170030237
 20
-16.96367767539751
 11
40.32450172971193
 21
-16.9898794065042
  0
LINE
  8
0
 10
40.32450172971193
 20
-16.9898794065042
 11
40.797942587297186
 21
-17.12139102209511
  0
LINE
  8
0
 10
40.797942587297186
 20
-17.12139102209511
 11
41.08519518276682
 21
-17.23133074088577
  0
LINE
  8
0
 10
41.08519518276682
 20
-17.23133074088577
 11
41.30673723324747
 21
-17.3016502940453
  0
LINE
  8
0
 10
41.30673723324747
 20
-17.3016502940453
 11
41.67788134466595
 21
-17.396092331035103
  0
LINE
  8
0
 10
41.67788134466595
 20
-17.396092331035103
 11
42.201688701241395
 21
-17.49737200608167
  0
LINE
  8
0
 10
42.201688701241395
 20
-17.49737200608167
 11
42.87971017585961
 21
-17.58795902728701
  0
LINE
  8
0
 10
42.87971017585961
 20
-17.58795902728701
 11
43.71196983751143
 21
-17.650195130962988
  0
LINE
  8
0
 10
43.71196983751143
 20
-17.650195130962988
 11
44.69695702552886
 21
-17.66641254442207
  0
LINE
  8
0
 10
44.69695702552886
 20
-17.66641254442207
 11
44.94861631709607
 21
-17.655908600504855
  0
LINE
  8
0
 10
44.94861631709607
 20
-17.655908600504855
 11
45.46524457785682
 21
-16.54799571997278
  0
LINE
  8
0
 10
45.46524457785682
 20
-16.54799571997278
 11
45.781637041761044
 21
-15.36720296955028
  0
LINE
  8
0
 10
45.781637041761044
 20
-15.36720296955028
 11
45.59560664489952
 21
-15.197393007199791
  0
LINE
  8
0
 10
45.59560664489952
 20
-15.197393007199791
 11
44.83063833054266
 21
-14.576678706504243
  0
LINE
  8
0
 10
44.83063833054266
 20
-14.576678706504243
 11
44.153085845184876
 21
-14.089388129335445
  0
LINE
  8
0
 10
44.153085845184876
 20
-14.089388129335445
 11
43.57546304740829
 21
-13.722958010562147
  0
LINE
  8
0
 10
43.57546304740829
 20
-13.722958010562147
 11
43.10910201240582
 21
-13.463845864163137
  0
LINE
  8
0
 10
43.10910201240582
 20
-13.463845864163137
 11
42.76408295704688
 21
-13.297625825567865
  0
LINE
  8
0
 10
42.76408295704688
 20
-13.297625825567865
 11
42.549171362868286
 21
-13.209089243434411
  0
LINE
  8
0
 10
42.549171362868286
 20
-13.209089243434411
 11
42.25845521928722
 21
-13.108665544874338
  0
LINE
  8
0
 10
42.25845521928722
 20
-13.108665544874338
 11
41.81124444415677
 21
-12.9050873700283
  0
LINE
  8
0
 10
41.81124444415677
 20
-12.9050873700283
 11
41.52938919842364
 21
-12.702786668066304
  0
LINE
  8
0
 10
41.52938919842364
 20
-12.702786668066304
 11
41.41071080758062
 21
-12.520212589772788
  0
LINE
  8
0
 10
41.41071080758062
 20
-12.520212589772788
 11
42.122833843021944
 21
-9.862533240265668
  0
LINE
  8
0
 10
42.122833843021944
 20
-9.862533240265668
 11
42.31689938351912
 21
-9.76375864581096
  0
LINE
  8
0
 10
42.31689938351912
 20
-9.76375864581096
 11
42.662143537494856
 21
-9.729488721576379
  0
LINE
  8
0
 10
42.662143537494856
 20
-9.729488721576379
 11
43.151228517026965
 21
-9.776790238068722
  0
LINE
  8
0
 10
43.151228517026965
 20
-9.776790238068722
 11
43.453207931939545
 21
-9.835178835764347
  0
LINE
  8
0
 10
43.453207931939545
 20
-9.835178835764347
 11
43.68359512313162
 21
-9.865959703561645
  0
LINE
  8
0
 10
43.68359512313162
 20
-9.865959703561645
 11
44.065500409159796
 21
-9.894518455199837
  0
LINE
  8
0
 10
44.065500409159796
 20
-9.894518455199837
 11
44.598936986006656
 21
-9.903301271490394
  0
LINE
  8
0
 10
44.598936986006656
 20
-9.903301271490394
 11
45.28238806207203
 21
-9.8747748788092
  0
LINE
  8
0
 10
45.28238806207203
 20
-9.8747748788092
 11
46.11281101537448
 21
-9.791545102635041
  0
LINE
  8
0
 10
46.11281101537448
 20
-9.791545102635041
 11
47.085650159045386
 21
-9.636474906918844
  0
LINE
  8
0
 10
47.085650159045386
 20
-9.636474906918844
 11
47.331662189778825
 21
-9.582430364138384
  0
LINE
  8
0
 10
0.3118675362266391
 20
-1.4672214011007085
 11
9.18454765366783e-17
 21
-1.5
  0
LINE
  8
0
 10
9.18454765366783e-17
 20
-1.5
 11
-0.3118675362266384
 21
-1.4672214011007085
  0
LINE
  8
0
 10
-0.3118675362266384
 20
-1.4672214011007085
 11
-0.6101049646137001
 21
-1.3703181864639014
  0
LINE
  8
0
 10
-0.6101049646137001
 20
-1.3703181864639014
 11
-0.8816778784387099
 21
-1.213525491562421
  0
LINE
  8
0
 10
-0.8816778784387099
 20
-1.213525491562421
 11
-1.114717238216091
 21
-1.0036959095382878
  0
LINE
  8
0
 10
-1.114717238216091
 20
-1.0036959095382878
 11
-1.299038105676658
 21
-0.7500000000000003
  0
LINE
  8
0
 10
-1.299038105676658
 20
-0.7500000000000003
 11
-1.4265847744427305
 21
-0.46352549156242095
  0
LINE
  8
0
 10
-1.4265847744427305
 20
-0.46352549156242095
 11
-1.49178284305241
 21
-0.15679269490147957
  0
LINE
  8
0
 10
-1.49178284305241
 20
-0.15679269490147957
 11
-1.4917828430524098
 21
0.15679269490148126
  0
LINE
  8
0
 10
-1.4917828430524098
 20
0.15679269490148126
 11
-1.4265847744427302
 21
0.46352549156242123
  0
LINE
  8
0
 10
-1.4265847744427302
 20
0.46352549156242123
 11
-1.2990381056766576
 21
0.7500000000000006
  0
LINE
  8
0
 10
-1.2990381056766576
 20
0.7500000000000006
 11
-1.114717238216091
 21
1.0036959095382878
  0
LINE
  8
0
 10
-1.114717238216091
 20
1.0036959095382878
 11
-0.8816778784387097
 21
1.2135254915624214
  0
LINE
  8
0
 10
-0.8816778784387097
 20
1.2135254915624214
 11
-0.6101049646137005
 21
1.3703181864639014
  0
LINE
  8
0
 10
-0.6101049646137005
 20
1.3703181864639014
 11
-0.3118675362266387
 21
1.4672214011007085
  0
LINE
  8
0
 10
-0.3118675362266387
 20
1.4672214011007085
 11
7.579792913117722e-16
 21
1.5
  0
LINE
  8
0
 10
7.579792913117722e-16
 20
1.5
 11
0.3118675362266389
 21
1.4672214011007085
  0
LINE
  8
0
 10
0.3118675362266389
 20
1.4672214011007085
 11
0.6101049646136999
 21
1.3703181864639014
  0
LINE
  8
0
 10
0.6101049646136999
 20
1.3703181864639014
 11
0.8816778784387097
 21
1.213525491562421
  0
LINE
  8
0
 10
0.8816778784387097
 20
1.213525491562421
 11
1.1147172382160917
 21
1.003695909538287
  0
LINE
  8
0
 10
1.1147172382160917
 20
1.003695909538287
 11
1.299038105676658
 21
0.7499999999999998
  0
LINE
  8
0
 10
1.299038105676658
 20
0.7499999999999998
 11
1.4265847744427305
 21
0.4635254915624211
  0
LINE
  8
0
 10
1.4265847744427305
 20
0.4635254915624211
 11
1.49178284305241
 21
0.1567926949014801
  0
LINE
  8
0
 10
1.49178284305241
 20
0.1567926949014801
 11
1.4917828430524098
 21
-0.1567926949014801
  0
LINE
  8
0
 10
1.4917828430524098
 20
-0.1567926949014801
 11
1.4265847744427302
 21
-0.46352549156242107
  0
LINE
  8
0
 10
1.4265847744427302
 20
-0.46352549156242107
 11
1.299038105676658
 21
-0.7500000000000001
  0
LINE
  8
0
 10
1.299038105676658
 20
-0.7500000000000001
 11
1.1147172382160913
 21
-1.0036959095382874
  0
LINE
  8
0
 10
1.1147172382160913
 20
-1.0036959095382874
 11
0.8816778784387098
 21
-1.2135254915624212
  0
LINE
  8
0
 10
0.8816778784387098
 20
-1.2135254915624212
 11
0.6101049646137003
 21
-1.3703181864639014
  0
LINE
  8
0
 10
0.6101049646137003
 20
-1.3703181864639014
 11
0.3118675362266391
 21
-1.4672214011007085
  0
ENDSEC
  0
SECTION
  2
OBJECTS
  0
DICTIONARY
  0
ENDSEC
  0
EOF
