  0
SECTION
  2
BLOCKS
  0
ENDSEC
  0
SECTION
  2
ENTITIES
  0
LINE
  8
0
 10
75.74397468521785
 20
-9.49531249412663
 11
75.94654559826967
 21
-8.259684587718732
  0
LINE
  8
0
 10
75.94654559826967
 20
-8.259684587718732
 11
76.01433415557186
 21
-7.0093982167590365
  0
LINE
  8
0
 10
76.01433415557186
 20
-7.0093982167590365
 11
75.58126066662008
 21
-6.803425839231106
  0
LINE
  8
0
 10
75.58126066662008
 20
-6.803425839231106
 11
74.79450436886164
 21
-6.463502571659126
  0
LINE
  8
0
 10
74.79450436886164
 20
-6.463502571659126
 11
74.08302929598742
 21
-6.186137028063002
  0
LINE
  8
0
 10
74.08302929598742
 20
-6.186137028063002
 11
73.45021315342893
 21
-5.965406104295496
  0
LINE
  8
0
 10
73.45021315342893
 20
-5.965406104295496
 11
72.89910259902967
 21
-5.795228498800048
  0
LINE
  8
0
 10
72.89910259902967
 20
-5.795228498800048
 11
72.43240637425997
 21
-5.669380945551329
  0
LINE
  8
0
 10
72.43240637425997
 20
-5.669380945551329
 11
72.0524891776956
 21
-5.581514731250295
  0
LINE
  8
0
 10
72.0524891776956
 20
-5.581514731250295
 11
71.65450920241788
 21
-5.504491951065296
  0
LINE
  8
0
 10
71.65450920241788
 20
-5.504491951065296
 11
71.36092745647828
 21
-5.421572220228492
  0
LINE
  8
0
 10
71.36092745647828
 20
-5.421572220228492
 11
71.1668194962248
 21
-5.328107535630337
  0
LINE
  8
0
 10
71.1668194962248
 20
-5.328107535630337
 11
71.07243840140147
 21
-5.231172273211195
  0
LINE
  8
0
 10
71.07243840140147
 20
-5.231172273211195
 11
71.2213979337345
 21
-2.4837753597434946
  0
LINE
  8
0
 10
71.2213979337345
 20
-2.4837753597434946
 11
71.32570630795885
 21
-2.397612727311537
  0
LINE
  8
0
 10
71.32570630795885
 20
-2.397612727311537
 11
71.52878170898951
 21
-2.325682698835604
  0
LINE
  8
0
 10
71.52878170898951
 20
-2.325682698835604
 11
71.8296076660616
 21
-2.27499081720987
  0
LINE
  8
0
 10
71.8296076660616
 20
-2.27499081720987
 11
72.2335822930587
 21
-2.241448752142695
  0
LINE
  8
0
 10
72.2335822930587
 20
-2.241448752142695
 11
72.62077240758457
 21
-2.195173887728288
  0
LINE
  8
0
 10
72.62077240758457
 20
-2.195173887728288
 11
73.09833935301832
 21
-2.120522795954119
  0
LINE
  8
0
 10
73.09833935301832
 20
-2.120522795954119
 11
73.66461870939891
 21
-2.010928311058188
  0
LINE
  8
0
 10
73.66461870939891
 20
-2.010928311058188
 11
74.31759046742972
 21
-1.8599107815987672
  0
LINE
  8
0
 10
74.31759046742972
 20
-1.8599107815987672
 11
75.05488333326136
 21
-1.6610951532153784
  0
LINE
  8
0
 10
75.05488333326136
 20
-1.6610951532153784
 11
75.87377980192255
 21
-1.4082278490546496
  0
LINE
  8
0
 10
75.87377980192255
 20
-1.4082278490546496
 11
76.32658412680756
 21
-1.250286370959683
  0
LINE
  8
0
 10
76.32658412680756
 20
-1.250286370959683
 11
76.39437268410973
 21
8.881784197001252e-16
  0
LINE
  8
0
 10
76.39437268410973
 20
8.881784197001252e-16
 11
76.32658412680759
 21
1.2502863709596999
  0
LINE
  8
0
 10
76.32658412680759
 20
1.2502863709596999
 11
75.8737798019226
 21
1.4082278490546474
  0
LINE
  8
0
 10
75.8737798019226
 20
1.4082278490546474
 11
75.05488333326134
 21
1.6610951532153913
  0
LINE
  8
0
 10
75.05488333326134
 20
1.6610951532153913
 11
74.31759046742968
 21
1.8599107815987876
  0
LINE
  8
0
 10
74.31759046742968
 20
1.8599107815987876
 11
73.66461870939874
 21
2.0109283110575626
  0
LINE
  8
0
 10
73.66461870939874
 20
2.0109283110575626
 11
73.09833935301813
 21
2.120522795953505
  0
LINE
  8
0
 10
73.09833935301813
 20
2.120522795953505
 11
72.62077240758563
 21
2.195173887728801
  0
LINE
  8
0
 10
72.62077240758563
 20
2.195173887728801
 11
72.23358229306247
 21
2.241448752142003
  0
LINE
  8
0
 10
72.23358229306247
 20
2.241448752142003
 11
71.82960766606163
 21
2.274990817210057
  0
LINE
  8
0
 10
71.82960766606163
 20
2.274990817210057
 11
71.52878170898938
 21
2.325682698833768
  0
LINE
  8
0
 10
71.52878170898938
 20
2.325682698833768
 11
71.32570630795954
 21
2.3976127273153756
  0
LINE
  8
0
 10
71.32570630795954
 20
2.3976127273153756
 11
71.22139793373445
 21
2.4837753597428875
  0
LINE
  8
0
 10
71.22139793373445
 20
2.4837753597428875
 11
71.07243840140158
 21
5.231172273210595
  0
LINE
  8
0
 10
71.07243840140158
 20
5.231172273210595
 11
71.16681949622371
 21
5.328107535634079
  0
LINE
  8
0
 10
71.16681949622371
 20
5.328107535634079
 11
71.3609274564786
 21
5.421572220226682
  0
LINE
  8
0
 10
71.3609274564786
 20
5.421572220226682
 11
71.65450920241781
 21
5.504491951065476
  0
LINE
  8
0
 10
71.65450920241781
 20
5.504491951065476
 11
72.05248917769194
 21
5.581514731249201
  0
LINE
  8
0
 10
72.05248917769194
 20
5.581514731249201
 11
72.43240637425886
 21
5.669380945551724
  0
LINE
  8
0
 10
72.43240637425886
 20
5.669380945551724
 11
72.89910259902992
 21
5.795228498799457
  0
LINE
  8
0
 10
72.89910259902992
 20
5.795228498799457
 11
73.45021315342917
 21
5.9654061042948925
  0
LINE
  8
0
 10
73.45021315342917
 20
5.9654061042948925
 11
74.08302929598746
 21
6.186137028063027
  0
LINE
  8
0
 10
74.08302929598746
 20
6.186137028063027
 11
74.79450436886165
 21
6.4635025716591405
  0
LINE
  8
0
 10
74.79450436886165
 20
6.4635025716591405
 11
75.58126066662005
 21
6.803425839231097
  0
LINE
  8
0
 10
75.58126066662005
 20
6.803425839231097
 11
76.01433415557183
 21
7.009398216759049
  0
LINE
  8
0
 10
76.01433415557183
 20
7.009398216759049
 11
75.94654559826965
 21
8.259684587718736
  0
LINE
  8
0
 10
75.94654559826965
 20
8.259684587718736
 11
75.74397468521781
 21
9.495312494126656
  0
LINE
  8
0
 10
75.74397468521781
 20
9.495312494126656
 11
75.27674824110598
 21
9.603371353365231
  0
LINE
  8
0
 10
75.27674824110598
 20
9.603371353365231
 11
74.4353124139128
 21
9.76621805617224
  0
LINE
  8
0
 10
74.4353124139128
 20
9.76621805617224
 11
73.68084583986227
 21
9.884152837878974
  0
LINE
  8
0
 10
73.68084583986227
 20
9.884152837878974
 11
73.01537396320401
 21
9.963686430572759
  0
LINE
  8
0
 10
73.01537396320401
 20
9.963686430572759
 11
72.4405649125415
 21
10.011412899736982
  0
LINE
  8
0
 10
72.4405649125415
 20
10.011412899736982
 11
71.95772628223776
 21
10.033992314241935
  0
LINE
  8
0
 10
71.95772628223776
 20
10.033992314241935
 11
71.56780269983729
 21
10.038133298291573
  0
LINE
  8
0
 10
71.56780269983729
 20
10.038133298291573
 11
71.16256965425742
 21
10.027801398197559
  0
LINE
  8
0
 10
71.16256965425742
 20
10.027801398197559
 11
70.85802639535139
 21
10.04567111464417
  0
LINE
  8
0
 10
70.85802639535139
 20
10.04567111464417
 11
70.64836442694863
 21
10.095223173191535
  0
LINE
  8
0
 10
70.64836442694863
 20
10.095223173191535
 11
70.53535169363951
 21
10.16960299754145
  0
LINE
  8
0
 10
70.53535169363951
 20
10.16960299754145
 11
70.09021951096234
 21
12.884789194167713
  0
LINE
  8
0
 10
70.09021951096234
 20
12.884789194167713
 11
70.17356679433892
 21
12.99136060925956
  0
LINE
  8
0
 10
70.17356679433892
 20
12.99136060925956
 11
70.35643157545867
 21
13.10526416199756
  0
LINE
  8
0
 10
70.35643157545867
 20
13.10526416199756
 11
70.63932713271822
 21
13.219439584019565
  0
LINE
  8
0
 10
70.63932713271822
 20
13.219439584019565
 11
71.02664650493583
 21
13.339040057644784
  0
LINE
  8
0
 10
71.02664650493583
 20
13.339040057644784
 11
71.39483660177567
 21
13.467467470809572
  0
LINE
  8
0
 10
71.39483660177567
 20
13.467467470809572
 11
71.84519051935303
 21
13.643036038032553
  0
LINE
  8
0
 10
71.84519051935303
 20
13.643036038032553
 11
72.3746710044058
 21
13.871801587297929
  0
LINE
  8
0
 10
72.3746710044058
 20
13.871801587297929
 11
72.97991234080938
 21
14.159658037109805
  0
LINE
  8
0
 10
72.97991234080938
 20
14.159658037109805
 11
73.65722822600455
 21
14.512321638517715
  0
LINE
  8
0
 10
73.65722822600455
 20
14.512321638517715
 11
74.40262035460707
 21
14.935315579983426
  0
LINE
  8
0
 10
74.40262035460707
 20
14.935315579983426
 11
74.81088561693049
 21
15.186904019140183
  0
LINE
  8
0
 10
74.81088561693049
 20
15.186904019140183
 11
74.60831470387868
 21
16.422531925548085
  0
LINE
  8
0
 10
74.60831470387868
 20
16.422531925548085
 11
74.2733363938204
 21
17.629014759946976
  0
LINE
  8
0
 10
74.2733363938204
 20
17.629014759946976
 11
73.79716563334969
 21
17.68592410900377
  0
LINE
  8
0
 10
73.79716563334969
 20
17.68592410900377
 11
72.94305551336632
 21
17.75684098175879
  0
LINE
  8
0
 10
72.94305551336632
 20
17.75684098175879
 11
72.18026066186229
 21
17.79251223930215
  0
LINE
  8
0
 10
72.18026066186229
 20
17.79251223930215
 11
71.51009071588379
 21
17.799629436574865
  0
LINE
  8
0
 10
71.51009071588379
 20
17.799629436574865
 11
70.93349108150545
 21
17.78492834079315
  0
LINE
  8
0
 10
70.93349108150545
 20
17.78492834079315
 11
70.4510416078072
 21
17.75517135503724
  0
LINE
  8
0
 10
70.4510416078072
 20
17.75517135503724
 11
70.06295605502252
 21
17.717129909471474
  0
LINE
  8
0
 10
70.06295605502252
 20
17.717129909471474
 11
69.66121557781496
 21
17.663045176297448
  0
LINE
  8
0
 10
69.66121557781496
 20
17.663045176297448
 11
69.35652550833925
 21
17.64788322148006
  0
LINE
  8
0
 10
69.35652550833925
 20
17.64788322148006
 11
69.14273506744733
 21
17.674476357512592
  0
LINE
  8
0
 10
69.14273506744733
 20
17.674476357512592
 11
69.02234294602374
 21
17.73620133835053
  0
LINE
  8
0
 10
69.02234294602374
 20
17.73620133835053
 11
68.28625688085594
 21
20.387343742498313
  0
LINE
  8
0
 10
68.28625688085594
 20
20.387343742498313
 11
68.35759318209449
 21
20.502301857855752
  0
LINE
  8
0
 10
68.35759318209449
 20
20.502301857855752
 11
68.52707086171534
 21
20.635308863726305
  0
LINE
  8
0
 10
68.52707086171534
 20
20.635308863726305
 11
68.79596353854024
 21
20.779401374499898
  0
LINE
  8
0
 10
68.79596353854024
 20
20.779401374499898
 11
69.16808134219154
 21
20.94017733536511
  0
LINE
  8
0
 10
69.16808134219154
 20
20.94017733536511
 11
69.52022764705828
 21
21.10766025339511
  0
LINE
  8
0
 10
69.52022764705828
 20
21.10766025339511
 11
69.94895926952083
 21
21.33089145366652
  0
LINE
  8
0
 10
69.94895926952083
 20
21.33089145366652
 11
70.45060201064852
 21
21.61556287979904
  0
LINE
  8
0
 10
70.45060201064852
 20
21.61556287979904
 11
71.02117263960548
 21
21.96717000197027
  0
LINE
  8
0
 10
71.02117263960548
 20
21.96717000197027
 11
71.65638842764353
 21
22.39099700290687
  0
LINE
  8
0
 10
71.65638842764353
 20
22.39099700290687
 11
72.35167734590082
 21
22.892102401049705
  0
LINE
  8
0
 10
72.35167734590082
 20
22.892102401049705
 11
72.7303478446757
 21
23.18635725741567
  0
LINE
  8
0
 10
72.7303478446757
 20
23.18635725741567
 11
72.39536953461743
 21
24.392840091814538
  0
LINE
  8
0
 10
72.39536953461743
 20
24.392840091814538
 11
71.93191114196463
 21
25.556032946068886
  0
LINE
  8
0
 10
71.93191114196463
 20
25.556032946068886
 11
71.45237873193436
 21
25.561125574858867
  0
LINE
  8
0
 10
71.45237873193436
 20
25.561125574858867
 11
70.59560797939724
 21
25.53928118206876
  0
LINE
  8
0
 10
70.59560797939724
 20
25.53928118206876
 11
69.83342792264365
 21
25.492270702568593
  0
LINE
  8
0
 10
69.83342792264365
 20
25.492270702568593
 11
69.16641703721926
 21
25.426888061789533
  0
LINE
  8
0
 10
69.16641703721926
 20
25.426888061789533
 11
68.59478692264811
 21
25.349931757968577
  0
LINE
  8
0
 10
68.59478692264811
 20
25.349931757968577
 11
68.11838288452674
 21
25.268187245402725
  0
LINE
  8
0
 10
68.11838288452674
 20
25.268187245402725
 11
67.73668530963424
 21
25.18840937138918
  0
LINE
  8
0
 10
67.73668530963424
 20
25.18840937138918
 11
67.34314744057939
 21
25.091205899181467
  0
LINE
  8
0
 10
67.34314744057939
 20
25.091205899181467
 11
67.04188277301782
 21
25.043190033157607
  0
LINE
  8
0
 10
67.04188277301782
 20
25.043190033157607
 11
66.82647035708577
 21
25.04651246646966
  0
LINE
  8
0
 10
66.82647035708577
 20
25.04651246646966
 11
66.7001103350958
 21
25.094858934830988
  0
LINE
  8
0
 10
66.7001103350958
 20
25.094858934830988
 11
65.68170032354153
 21
27.650875325774276
  0
LINE
  8
0
 10
65.68170032354153
 20
27.650875325774276
 11
65.74018928973348
 21
27.772872362601944
  0
LINE
  8
0
 10
65.74018928973348
 20
27.772872362601944
 11
65.89429289701675
 21
27.92342343607069
  0
LINE
  8
0
 10
65.89429289701675
 20
27.92342343607069
 11
66.14603017262215
 21
28.09574368265208
  0
LINE
  8
0
 10
66.14603017262215
 20
28.09574368265208
 11
66.49858366668994
 21
28.295810179615007
  0
LINE
  8
0
 10
66.49858366668994
 20
28.295810179615007
 11
66.8305575861294
 21
28.500385018427412
  0
LINE
  8
0
 10
66.8305575861294
 20
28.500385018427412
 11
67.23264042719687
 21
28.768661670026304
  0
LINE
  8
0
 10
67.23264042719687
 20
28.768661670026304
 11
67.70056412191607
 21
29.10590146083212
  0
LINE
  8
0
 10
67.70056412191607
 20
29.10590146083212
 11
68.2297746244796
 21
29.517136983332712
  0
LINE
  8
0
 10
68.2297746244796
 20
29.517136983332712
 11
68.81544299102912
 21
30.007158399720748
  0
LINE
  8
0
 10
68.81544299102912
 20
30.007158399720748
 11
69.45247707208334
 21
30.580500251912508
  0
LINE
  8
0
 10
69.45247707208334
 20
30.580500251912508
 11
69.79711324193326
 21
30.913971656336553
  0
LINE
  8
0
 10
69.79711324193326
 20
30.913971656336553
 11
69.33365484928034
 21
32.07716451059083
  0
LINE
  8
0
 10
69.33365484928034
 20
32.07716451059083
 11
68.74714999994278
 21
33.183430012001836
  0
LINE
  8
0
 10
68.74714999994278
 20
33.183430012001836
 11
68.26987801941998
 21
33.13664621410872
  0
LINE
  8
0
 10
68.26987801941998
 20
33.13664621410872
 11
67.42049148804966
 21
33.022296661306434
  0
LINE
  8
0
 10
67.42049148804966
 20
33.022296661306434
 11
66.66786209034404
 21
32.893155599652786
  0
LINE
  8
0
 10
66.66786209034404
 20
32.893155599652786
 11
66.01183035825153
 21
32.756039672505175
  0
LINE
  8
0
 10
66.01183035825153
 20
32.756039672505175
 11
65.4518716039345
 21
32.61773040294546
  0
LINE
  8
0
 10
65.4518716039345
 20
32.61773040294546
 11
64.9870984031566
 21
32.48495674323978
  0
LINE
  8
0
 10
64.9870984031566
 20
32.48495674323978
 11
64.61626386123251
 21
32.36437776340966
  0
LINE
  8
0
 10
64.61626386123251
 20
32.36437776340966
 11
64.23554247202992
 21
32.22519517400591
  0
LINE
  8
0
 10
64.23554247202992
 20
32.22519517400591
 11
63.941235259160756
 21
32.14488833890338
  0
LINE
  8
0
 10
63.941235259160756
 20
32.14488833890338
 11
63.7267263818119
 21
32.12490111700211
  0
LINE
  8
0
 10
63.7267263818119
 20
32.12490111700211
 11
63.59587991498132
 21
32.15930225474888
  0
LINE
  8
0
 10
63.59587991498132
 20
32.15930225474888
 11
62.30708588328492
 21
34.59022567729194
  0
LINE
  8
0
 10
62.30708588328492
 20
34.59022567729194
 11
62.35204178477861
 21
34.717831331875985
  0
LINE
  8
0
 10
62.35204178477861
 20
34.717831331875985
 11
62.488964595827234
 21
34.884161399256655
  0
LINE
  8
0
 10
62.488964595827234
 20
34.884161399256655
 11
62.72059508082223
 21
35.08268908430859
  0
LINE
  8
0
 10
62.72059508082223
 20
35.08268908430859
 11
63.04945089793125
 21
35.31970052061488
  0
LINE
  8
0
 10
63.04945089793125
 20
35.31970052061488
 11
63.357360341264695
 21
35.55896882726917
  0
LINE
  8
0
 10
63.357360341264695
 20
35.55896882726917
 11
63.728080347253396
 21
35.86914563174323
  0
LINE
  8
0
 10
63.728080347253396
 20
35.86914563174323
 11
64.15679901807025
 21
36.25499995901643
  0
LINE
  8
0
 10
64.15679901807025
 20
36.25499995901643
 11
64.63844488495955
 21
36.72104252134128
  0
LINE
  8
0
 10
64.63844488495955
 20
36.72104252134128
 11
65.16769940390444
 21
37.27151330010446
  0
LINE
  8
0
 10
65.16769940390444
 20
37.27151330010446
 11
65.73901000560106
 21
37.910369697339654
  0
LINE
  8
0
 10
65.73901000560106
 20
37.910369697339654
 11
66.04557130253845
 21
38.279148002500776
  0
LINE
  8
0
 10
66.04557130253845
 20
38.279148002500776
 11
65.45906645320073
 21
39.3854135039117
  0
LINE
  8
0
 10
65.45906645320073
 20
39.3854135039117
 11
64.75639138029014
 21
40.42178170094344
  0
LINE
  8
0
 10
64.75639138029014
 20
40.42178170094344
 11
64.28697540687264
 21
40.32366997362272
  0
LINE
  8
0
 10
64.28697540687264
 20
40.32366997362272
 11
63.45493137714792
 21
40.11815590476406
  0
LINE
  8
0
 10
63.45493137714792
 20
40.11815590476406
 11
62.72067653004276
 21
39.90839832183002
  0
LINE
  8
0
 10
62.72067653004276
 20
39.90839832183002
 11
62.08331532352536
 21
39.70115666719336
  0
LINE
  8
0
 10
62.08331532352536
 20
39.70115666719336
 11
61.54159293388166
 21
39.503115981623104
  0
LINE
  8
0
 10
61.54159293388166
 20
39.503115981623104
 11
61.09389961128015
 21
39.32086982454153
  0
LINE
  8
0
 10
61.09389961128015
 20
39.32086982454153
 11
60.73827579827125
 21
39.16090341718694
  0
LINE
  8
0
 10
60.73827579827125
 20
39.16090341718694
 11
60.37483449911246
 21
38.98137349919205
  0
LINE
  8
0
 10
60.37483449911246
 20
38.98137349919205
 11
60.09093522391894
 21
38.8697172192272
  0
LINE
  8
0
 10
60.09093522391894
 20
38.8697172192272
 11
59.87984480561286
 21
38.8266546740149
  0
LINE
  8
0
 10
59.87984480561286
 20
38.8266546740149
 11
59.746045949131194
 21
38.8467071592603
  0
LINE
  8
0
 10
59.746045949131194
 20
38.8467071592603
 11
58.20197782895868
 21
41.124037258888286
  0
LINE
  8
0
 10
58.20197782895868
 20
41.124037258888286
 11
58.23287359891268
 21
41.25575547159967
  0
LINE
  8
0
 10
58.23287359891268
 20
41.25575547159967
 11
58.351010318956796
 21
41.43591446492927
  0
LINE
  8
0
 10
58.351010318956796
 20
41.43591446492927
 11
58.5598183576866
 21
41.6583220328601
  0
LINE
  8
0
 10
58.5598183576866
 20
41.6583220328601
 11
58.86112096405701
 21
41.929499666120684
  0
LINE
  8
0
 10
58.86112096405701
 20
41.929499666120684
 11
59.141355974585636
 21
42.20065623848644
  0
LINE
  8
0
 10
59.141355974585636
 20
42.20065623848644
 11
59.47636679237788
 21
42.549096656400565
  0
LINE
  8
0
 10
59.47636679237788
 20
42.549096656400565
 11
59.86085410485826
 21
42.97904173094385
  0
LINE
  8
0
 10
59.86085410485826
 20
42.97904173094385
 11
60.28928847865711
 21
43.49442741015648
  0
LINE
  8
0
 10
60.28928847865711
 20
43.49442741015648
 11
60.755924124664745
 21
44.09889378471403
  0
LINE
  8
0
 10
60.755924124664745
 20
44.09889378471403
 11
61.254813152553126
 21
44.79577471984705
  0
LINE
  8
0
 10
61.254813152553126
 20
44.79577471984705
 11
61.519705425662906
 21
45.19553633729436
  0
LINE
  8
0
 10
61.519705425662906
 20
45.19553633729436
 11
60.81703035275236
 21
46.23190453432609
  0
LINE
  8
0
 10
60.81703035275236
 20
46.23190453432609
 11
60.00642327903699
 21
47.18622495742897
  0
LINE
  8
0
 10
60.00642327903699
 20
47.18622495742897
 11
59.55036678582186
 21
47.03793557097904
  0
LINE
  8
0
 10
59.55036678582186
 20
47.03793557097904
 11
58.745420213246156
 21
46.743666450618065
  0
LINE
  8
0
 10
58.745420213246156
 20
46.743666450618065
 11
58.038148383488156
 21
46.45575156228036
  0
LINE
  8
0
 10
58.038148383488156
 20
46.45575156228036
 11
57.42693017994738
 21
46.18081389907241
  0
LINE
  8
0
 10
57.42693017994738
 20
46.18081389907241
 11
56.90979535469407
 21
45.9253636434596
  0
LINE
  8
0
 10
56.90979535469407
 20
45.9253636434596
 11
56.48443070514654
 21
45.69578165856466
  0
LINE
  8
0
 10
56.48443070514654
 20
45.69578165856466
 11
56.14818698511043
 21
45.49830328355314
  0
LINE
  8
0
 10
56.14818698511043
 20
45.49830328355314
 11
55.80628679293051
 21
45.28053086110985
  0
LINE
  8
0
 10
55.80628679293051
 20
45.28053086110985
 11
55.53612391484269
 21
45.13883420407694
  0
LINE
  8
0
 10
55.53612391484269
 20
45.13883420407694
 11
55.33092679773222
 21
45.07320120452377
  0
LINE
  8
0
 10
55.33092679773222
 20
45.07320120452377
 11
55.19574422085825
 21
45.07866994021245
  0
LINE
  8
0
 10
55.19574422085825
 20
45.07866994021245
 11
53.4145047991637
 21
47.17570710369
  0
LINE
  8
0
 10
53.4145047991637
 20
47.17570710369
 11
53.43097821292357
 21
47.30999359891581
  0
LINE
  8
0
 10
53.43097821292357
 20
47.30999359891581
 11
53.5289437969341
 21
47.501869318718455
  0
LINE
  8
0
 10
53.5289437969341
 20
47.501869318718455
 11
53.71248130605962
 21
47.74554924414339
  0
LINE
  8
0
 10
53.71248130605962
 20
47.74554924414339
 11
53.982698204115316
 21
48.04771376454836
  0
LINE
  8
0
 10
53.982698204115316
 20
48.04771376454836
 11
54.231973282562
 21
48.347579539735406
  0
LINE
  8
0
 10
54.231973282562
 20
48.347579539735406
 11
54.52734721662249
 21
48.73019842577167
  0
LINE
  8
0
 10
54.52734721662249
 20
48.73019842577167
 11
54.86309540856768
 21
49.19919353468855
  0
LINE
  8
0
 10
54.86309540856768
 20
49.19919353468855
 11
55.233295287964545
 21
49.75787990492182
  0
LINE
  8
0
 10
55.233295287964545
 20
49.75787990492182
 11
55.63184118473453
 21
50.409255059700925
  0
LINE
  8
0
 10
55.63184118473453
 20
50.409255059700925
 11
56.05245962110128
 21
51.15599024093166
  0
LINE
  8
0
 10
56.05245962110128
 20
51.15599024093166
 11
56.272577250674686
 21
51.58204833120618
  0
LINE
  8
0
 10
56.272577250674686
 20
51.58204833120618
 11
55.46197017695925
 21
52.536368754309
  0
LINE
  8
0
 10
55.46197017695925
 20
52.536368754309
 11
54.55293472923315
 21
53.39745286906559
  0
LINE
  8
0
 10
54.55293472923315
 20
53.39745286906559
 11
54.11558456162691
 21
53.20072438096024
  0
LINE
  8
0
 10
54.11558456162691
 20
53.20072438096024
 11
53.347172708794
 21
52.821150245480375
  0
LINE
  8
0
 10
53.347172708794
 20
52.821150245480375
 11
52.67517601192227
 21
52.45845359056166
  0
LINE
  8
0
 10
52.67517601192227
 20
52.45845359056166
 11
52.09726678595249
 21
52.11904331150565
  0
LINE
  8
0
 10
52.09726678595249
 20
52.11904331150565
 11
51.610782458094796
 21
51.809178406536944
  0
LINE
  8
0
 10
51.610782458094796
 20
51.809178406536944
 11
51.2127334932026
 21
51.53495223269273
  0
LINE
  8
0
 10
51.2127334932026
 20
51.53495223269273
 11
50.89981201632611
 21
51.3022771434151
  0
LINE
  8
0
 10
50.89981201632611
 20
51.3022771434151
 11
50.583461398276064
 21
51.04881539906532
  0
LINE
  8
0
 10
50.583461398276064
 20
51.04881539906532
 11
50.33020233002725
 21
50.878739628713575
  0
LINE
  8
0
 10
50.33020233002725
 20
50.878739628713575
 11
50.13330426269698
 21
50.791305661730455
  0
LINE
  8
0
 10
50.13330426269698
 20
50.791305661730455
 11
49.99832285754596
 21
50.78212653193659
  0
LINE
  8
0
 10
49.99832285754596
 20
50.78212653193659
 11
48.000795537946
 21
52.674284915861286
  0
LINE
  8
0
 10
48.000795537946
 20
52.674284915861286
 11
48.002653459797195
 21
52.8095653072243
  0
LINE
  8
0
 10
48.002653459797195
 20
52.8095653072243
 11
48.079299350872404
 21
53.01090818611898
  0
LINE
  8
0
 10
48.079299350872404
 20
53.01090818611898
 11
48.23541452090909
 21
53.27300354471107
  0
LINE
  8
0
 10
48.23541452090909
 20
53.27300354471107
 11
48.47137766458204
 21
53.60261234953035
  0
LINE
  8
0
 10
48.47137766458204
 20
53.60261234953035
 11
48.68677028856636
 21
53.92767167549451
  0
LINE
  8
0
 10
48.68677028856636
 20
53.92767167549451
 11
48.939044349581195
 21
54.339983173045916
  0
LINE
  8
0
 10
48.939044349581195
 20
54.339983173045916
 11
49.22211708041813
 21
54.842529777490654
  0
LINE
  8
0
 10
49.22211708041813
 20
54.842529777490654
 11
49.52974221030407
 21
55.43796675186539
  0
LINE
  8
0
 10
49.52974221030407
 20
55.43796675186539
 11
49.85552577159078
 21
56.12861390873426
  0
LINE
  8
0
 10
49.85552577159078
 20
56.12861390873426
 11
50.19294224984459
 21
56.91644854880925
  0
LINE
  8
0
 10
50.19294224984459
 20
56.91644854880925
 11
50.36570455793029
 21
57.36380797035115
  0
LINE
  8
0
 10
50.36570455793029
 20
57.36380797035115
 11
49.45666911020414
 21
58.224892085107655
  0
LINE
  8
0
 10
49.45666911020414
 20
58.224892085107655
 11
48.45986289795286
 21
58.98264446756906
  0
LINE
  8
0
 10
48.45986289795286
 20
58.98264446756906
 11
48.04634658679768
 21
58.739783339460864
  0
LINE
  8
0
 10
48.04634658679768
 20
58.739783339460864
 11
47.32347838011638
 21
58.279354348552665
  0
LINE
  8
0
 10
47.32347838011638
 20
58.279354348552665
 11
46.694635362989295
 21
57.84612821371515
  0
LINE
  8
0
 10
46.694635362989295
 20
57.84612821371515
 11
46.156810571877585
 21
57.44622459400723
  0
LINE
  8
0
 10
46.156810571877585
 20
57.44622459400723
 11
45.70668032536277
 21
57.0855779223812
  0
LINE
  8
0
 10
45.70668032536277
 20
57.0855779223812
 11
45.34061380529962
 21
56.769922610748644
  0
LINE
  8
0
 10
45.34061380529962
 20
56.769922610748644
 11
45.0546832897923
 21
56.50477870988982
  0
LINE
  8
0
 10
45.0546832897923
 20
56.50477870988982
 11
44.76759116762662
 21
56.218599250843766
  0
LINE
  8
0
 10
44.76759116762662
 20
56.218599250843766
 11
44.53420514023506
 21
56.022138350078805
  0
LINE
  8
0
 10
44.53420514023506
 20
56.022138350078805
 11
44.34791457249884
 21
55.91392849898699
  0
LINE
  8
0
 10
44.34791457249884
 20
55.91392849898699
 11
44.21471687263146
 21
55.89020912061484
  0
LINE
  8
0
 10
44.21471687263146
 20
55.89020912061484
 11
42.02432083659177
 21
57.55530489795209
  0
LINE
  8
0
 10
42.02432083659177
 20
57.55530489795209
 11
42.0115414840993
 21
57.689993146551615
  0
LINE
  8
0
 10
42.0115414840993
 20
57.689993146551615
 11
42.06596907924434
 21
57.89844262337283
  0
LINE
  8
0
 10
42.06596907924434
 20
57.89844262337283
 11
42.19283160256096
 21
58.17588058668866
  0
LINE
  8
0
 10
42.19283160256096
 20
58.17588058668866
 11
42.391774539734755
 21
58.52906931404993
  0
LINE
  8
0
 10
42.391774539734755
 20
58.52906931404993
 11
42.570759427675846
 21
58.87551116739886
  0
LINE
  8
0
 10
42.570759427675846
 20
58.87551116739886
 11
42.77697593293601
 21
59.31268130113661
  0
LINE
  8
0
 10
42.77697593293601
 20
59.31268130113661
 11
43.004054433711495
 21
59.84288750165484
  0
LINE
  8
0
 10
43.004054433711495
 20
59.84288750165484
 11
43.24549819070293
 21
60.46809412605972
  0
LINE
  8
0
 10
43.24549819070293
 20
60.46809412605972
 11
43.49469990211703
 21
61.18991607856878
  0
LINE
  8
0
 10
43.49469990211703
 20
61.18991607856878
 11
43.74495852255319
 21
62.009613536657234
  0
LINE
  8
0
 10
43.74495852255319
 20
62.009613536657234
 11
43.86834002904698
 21
62.47302940927354
  0
LINE
  8
0
 10
43.86834002904698
 20
62.47302940927354
 11
42.871533816795704
 21
63.23078179173492
  0
LINE
  8
0
 10
42.871533816795704
 20
63.23078179173492
 11
41.798643481469284
 21
63.87631848803644
  0
LINE
  8
0
 10
41.798643481469284
 20
63.87631848803644
 11
41.41380912743186
 21
63.590172044602376
  0
LINE
  8
0
 10
41.41380912743186
 20
63.590172044602376
 11
40.7449595357008
 21
63.054286307210006
  0
LINE
  8
0
 10
40.7449595357008
 20
63.054286307210006
 11
40.166642807737524
 21
62.55560987278223
  0
LINE
  8
0
 10
40.166642807737524
 20
62.55560987278223
 11
39.67520795542176
 21
62.0999014167281
  0
LINE
  8
0
 10
39.67520795542176
 20
62.0999014167281
 11
39.266709155832196
 21
61.69270123092717
  0
LINE
  8
0
 10
39.266709155832196
 20
61.69270123092717
 11
38.936916875848034
 21
61.33931755142877
  0
LINE
  8
0
 10
38.936916875848034
 20
61.33931755142877
 11
38.68132959557544
 21
61.04481340880292
  0
LINE
  8
0
 10
38.68132959557544
 20
61.04481340880292
 11
38.4268618619357
 21
60.72927142756155
  0
LINE
  8
0
 10
38.4268618619357
 20
60.72927142756155
 11
38.21608511318567
 21
60.50872872081893
  0
LINE
  8
0
 10
38.21608511318567
 20
60.50872872081893
 11
38.0425861316231
 21
60.38101164718525
  0
LINE
  8
0
 10
38.0425861316231
 20
60.38101164718525
 11
37.91273375828652
 21
60.34303010825941
  0
LINE
  8
0
 10
37.91273375828652
 20
60.34303010825941
 11
35.55514939663146
 21
61.761541553431506
  0
LINE
  8
0
 10
35.55514939663146
 20
61.761541553431506
 11
35.527882596019005
 21
61.89405856269935
  0
LINE
  8
0
 10
35.527882596019005
 20
61.89405856269935
 11
35.55945378144444
 21
62.10717075791855
  0
LINE
  8
0
 10
35.55945378144444
 20
62.10717075791855
 11
35.65557631094662
 21
62.39669861950219
  0
LINE
  8
0
 10
35.65557631094662
 20
62.39669861950219
 11
35.81516661757818
 21
62.769326454500685
  0
LINE
  8
0
 10
35.81516661757818
 20
62.769326454500685
 11
35.955645335312376
 21
63.133089121258664
  0
LINE
  8
0
 10
35.955645335312376
 20
63.133089121258664
 11
36.11338658483923
 21
63.58999247107315
  0
LINE
  8
0
 10
36.11338658483923
 20
63.58999247107315
 11
36.28180856775153
 21
64.14164208473595
  0
LINE
  8
0
 10
36.28180856775153
 20
64.14164208473595
 11
36.45424024455187
 21
64.78928838313169
  0
LINE
  8
0
 10
36.45424024455187
 20
64.78928838313169
 11
36.623938443874316
 21
65.53382242885588
  0
LINE
  8
0
 10
36.623938443874316
 20
65.53382242885588
 11
36.78410515298187
 21
66.37577250171825
  0
LINE
  8
0
 10
36.78410515298187
 20
66.37577250171825
 11
36.85665932252887
 21
66.84981169800767
  0
LINE
  8
0
 10
36.85665932252887
 20
66.84981169800767
 11
35.78376898720248
 21
67.49534839430918
  0
LINE
  8
0
 10
35.78376898720248
 20
67.49534839430918
 11
34.64737318702967
 21
68.02110107690653
  0
LINE
  8
0
 10
34.64737318702967
 20
68.02110107690653
 11
34.295732621053695
 21
67.6950241235697
  0
LINE
  8
0
 10
34.295732621053695
 20
67.6950241235697
 11
33.6887432942009
 21
67.08996440999906
  0
LINE
  8
0
 10
33.6887432942009
 20
67.08996440999906
 11
33.167733090276776
 21
66.53168420123046
  0
LINE
  8
0
 10
33.167733090276776
 20
66.53168420123046
 11
32.72844980107719
 21
66.02551367381916
  0
LINE
  8
0
 10
32.72844980107719
 20
66.02551367381916
 11
32.36637172334405
 21
65.57653402371517
  0
LINE
  8
0
 10
32.36637172334405
 20
65.57653402371517
 11
32.07672019638973
 21
65.18956507689126
  0
LINE
  8
0
 10
32.07672019638973
 20
65.18956507689126
 11
31.85447267852739
 21
64.86915348430298
  0
LINE
  8
0
 10
31.85447267852739
 20
64.86915348430298
 11
31.63561273492844
 21
64.52794842209354
  0
LINE
  8
0
 10
31.63561273492844
 20
64.52794842209354
 11
31.44991642948402
 21
64.2859095709657
  0
LINE
  8
0
 10
31.44991642948402
 20
64.2859095709657
 11
31.2912431510223
 21
64.14018264070569
  0
LINE
  8
0
 10
31.2912431510223
 20
64.14018264070569
 11
31.166258504568717
 21
64.08838424004321
  0
LINE
  8
0
 10
31.166258504568717
 20
64.08838424004321
 11
28.669126338378756
 21
65.24368060331288
  0
LINE
  8
0
 10
28.669126338378756
 20
65.24368060331288
 11
28.627691767953245
 21
65.37247273247685
  0
LINE
  8
0
 10
28.627691767953245
 20
65.37247273247685
 11
28.636036400375744
 21
65.58774910045543
  0
LINE
  8
0
 10
28.636036400375744
 20
65.58774910045543
 11
28.70029198729076
 21
65.88597241084766
  0
LINE
  8
0
 10
28.70029198729076
 20
65.88597241084766
 11
28.818658612949612
 21
66.27367063281488
  0
LINE
  8
0
 10
28.818658612949612
 20
66.27367063281488
 11
28.9189841759524
 21
66.65048932830557
  0
LINE
  8
0
 10
28.9189841759524
 20
66.65048932830557
 11
29.02640079781946
 21
67.12176912017094
  0
LINE
  8
0
 10
29.02640079781946
 20
67.12176912017094
 11
29.13419166910861
 21
67.68839455963615
  0
LINE
  8
0
 10
29.13419166910861
 20
67.68839455963615
 11
29.235589661963147
 21
68.35088747132272
  0
LINE
  8
0
 10
29.235589661963147
 20
68.35088747132272
 11
29.323794792963433
 21
69.10940462930989
  0
LINE
  8
0
 10
29.323794792963433
 20
69.10940462930989
 11
29.39199178251991
 21
69.96373622214415
  0
LINE
  8
0
 10
29.39199178251991
 20
69.96373622214415
 11
29.412867983819094
 21
70.44284106594839
  0
LINE
  8
0
 10
29.412867983819094
 20
70.44284106594839
 11
28.276472183646312
 21
70.96859374854571
  0
LINE
  8
0
 10
28.276472183646312
 20
70.96859374854571
 11
27.089894120367564
 21
71.3683984479357
  0
LINE
  8
0
 10
27.089894120367564
 20
71.3683984479357
 11
26.775570006581052
 21
71.00621393883894
  0
LINE
  8
0
 10
26.775570006581052
 20
71.00621393883894
 11
26.237557339488244
 21
70.33907402102031
  0
LINE
  8
0
 10
26.237557339488244
 20
70.33907402102031
 11
25.779962027880114
 21
69.72773536291825
  0
LINE
  8
0
 10
25.779962027880114
 20
69.72773536291825
 11
25.397980496722024
 21
69.17703715078753
  0
LINE
  8
0
 10
25.397980496722024
 20
69.17703715078753
 11
25.0865681752556
 21
68.69154191227194
  0
LINE
  8
0
 10
25.0865681752556
 20
68.69154191227194
 11
24.84045330065373
 21
68.27552455521493
  0
LINE
  8
0
 10
24.84045330065373
 20
68.27552455521493
 11
24.654151194145737
 21
67.93296204563222
  0
LINE
  8
0
 10
24.654151194145737
 20
67.93296204563222
 11
24.47346497332072
 21
67.57009421984237
  0
LINE
  8
0
 10
24.47346497332072
 20
67.57009421984237
 11
24.31502623057949
 21
67.30939690856054
  0
LINE
  8
0
 10
24.31502623057949
 20
67.30939690856054
 11
24.173038954332217
 21
67.14736863669208
  0
LINE
  8
0
 10
24.173038954332217
 20
67.14736863669208
 11
24.054387365466752
 21
67.08236066318099
  0
LINE
  8
0
 10
24.054387365466752
 20
67.08236066318099
 11
21.446983986240756
 21
67.96089715098647
  0
LINE
  8
0
 10
21.446983986240756
 20
67.96089715098647
 11
21.391867428456433
 21
68.08445443008787
  0
LINE
  8
0
 10
21.391867428456433
 20
68.08445443008787
 11
21.376887674690426
 21
68.29937105224033
  0
LINE
  8
0
 10
21.376887674690426
 20
68.29937105224033
 11
21.408522981011128
 21
68.60279341579499
  0
LINE
  8
0
 10
21.408522981011128
 20
68.60279341579499
 11
21.484278185235066
 21
69.00101661755426
  0
LINE
  8
0
 10
21.484278185235066
 20
69.00101661755426
 11
21.543274368008777
 21
69.38647348710163
  0
LINE
  8
0
 10
21.543274368008777
 20
69.38647348710163
 11
21.599107000536595
 21
69.86660439635348
  0
LINE
  8
0
 10
21.599107000536595
 20
69.86660439635348
 11
21.64500301079087
 21
70.44156249641395
  0
LINE
  8
0
 10
21.64500301079087
 20
70.44156249641395
 11
21.674178520942462
 21
71.11113489772487
  0
LINE
  8
0
 10
21.674178520942462
 20
71.11113489772487
 11
21.679856459106325
 21
71.87474224781647
  0
LINE
  8
0
 10
21.679856459106325
 20
71.87474224781647
 11
21.655284181762276
 21
72.73143910381947
  0
LINE
  8
0
 10
21.655284181762276
 20
72.73143910381947
 11
21.624237660440727
 21
73.2099925288947
  0
LINE
  8
0
 10
21.624237660440727
 20
73.2099925288947
 11
20.437659597161986
 21
73.60979722828469
  0
LINE
  8
0
 10
20.437659597161986
 20
73.60979722828469
 11
19.21481081367053
 21
73.87896659991185
  0
LINE
  8
0
 10
19.21481081367053
 20
73.87896659991185
 11
18.94148831491835
 21
73.48492081727585
  0
LINE
  8
0
 10
18.94148831491835
 20
73.48492081727585
 11
18.478760014197515
 21
72.76352230077377
  0
LINE
  8
0
 10
18.478760014197515
 20
72.76352230077377
 11
18.0899444815506
 21
72.10629258015224
  0
LINE
  8
0
 10
18.0899444815506
 20
72.10629258015224
 11
17.7697430926378
 21
71.51752311633116
  0
LINE
  8
0
 10
17.7697430926378
 20
71.51752311633116
 11
17.512647552180272
 21
71.00120427718302
  0
LINE
  8
0
 10
17.512647552180272
 20
71.00120427718302
 11
17.312954801810598
 21
70.56101593303613
  0
LINE
  8
0
 10
17.312954801810598
 20
70.56101593303613
 11
17.164782328518108
 21
70.20031873867595
  0
LINE
  8
0
 10
17.164782328518108
 20
70.20031873867595
 11
17.024388211203213
 21
69.82004244278986
  0
LINE
  8
0
 10
17.024388211203213
 20
69.82004244278986
 11
16.895064580561897
 21
69.543743108971
  0
LINE
  8
0
 10
16.895064580561897
 20
69.543743108971
 11
16.771427977522865
 21
69.36731312883789
  0
LINE
  8
0
 10
16.771427977522865
 20
69.36731312883789
 11
16.660500527640778
 21
69.28985774153027
  0
LINE
  8
0
 10
16.660500527640778
 20
69.28985774153027
 11
13.97339535602853
 21
69.88133431680558
  0
LINE
  8
0
 10
13.97339535602853
 20
69.88133431680558
 11
13.905243002131867
 21
69.99820814971645
  0
LINE
  8
0
 10
13.905243002131867
 20
69.99820814971645
 11
13.867114486094142
 21
70.2102453251482
  0
LINE
  8
0
 10
13.867114486094142
 20
70.2102453251482
 11
13.865758616778352
 21
70.5153093920743
  0
LINE
  8
0
 10
13.865758616778352
 20
70.5153093920743
 11
13.8980142390615
 21
70.91938877068392
  0
LINE
  8
0
 10
13.8980142390615
 20
70.91938877068392
 11
13.914989365303837
 21
71.30896468491912
  0
LINE
  8
0
 10
13.914989365303837
 20
71.30896468491912
 11
13.918583421924284
 21
71.79231761563435
  0
LINE
  8
0
 10
13.918583421924284
 20
71.79231761563435
 11
13.902046482386567
 21
72.3688675182561
  0
LINE
  8
0
 10
13.902046482386567
 20
72.3688675182561
 11
13.858657453654107
 21
73.03766928498187
  0
LINE
  8
0
 10
13.858657453654107
 20
73.03766928498187
 11
13.781741630347971
 21
73.79741422917095
  0
LINE
  8
0
 10
13.781741630347971
 20
73.79741422917095
 11
13.664688173588607
 21
74.64643236099145
  0
LINE
  8
0
 10
13.664688173588607
 20
74.64643236099145
 11
13.582082921722712
 21
75.11882376597421
  0
LINE
  8
0
 10
13.582082921722712
 20
75.11882376597421
 11
12.359234138231262
 21
75.3879931376014
  0
LINE
  8
0
 10
12.359234138231262
 20
75.3879931376014
 11
11.114451418452251
 21
75.52337141668735
  0
LINE
  8
0
 10
11.114451418452251
 20
75.52337141668735
 11
10.88533499113113
 21
75.10208418703402
  0
LINE
  8
0
 10
10.88533499113113
 20
75.10208418703402
 11
10.503316123031706
 21
74.33488480987354
  0
LINE
  8
0
 10
10.503316123031706
 20
74.33488480987354
 11
10.187838875968856
 21
73.63946944429597
  0
LINE
  8
0
 10
10.187838875968856
 20
73.63946944429597
 11
9.933171697823424
 21
73.01953151243076
  0
LINE
  8
0
 10
9.933171697823424
 20
73.01953151243076
 11
9.733407148521966
 21
72.4784424389643
  0
LINE
  8
0
 10
9.733407148521966
 20
72.4784424389643
 11
9.582477737301746
 21
72.0192439135946
  0
LINE
  8
0
 10
9.582477737301746
 20
72.0192439135946
 11
9.474172083998734
 21
71.64464087927223
  0
LINE
  8
0
 10
9.474172083998734
 20
71.64464087927223
 11
9.375716062855915
 21
71.25141450516921
  0
LINE
  8
0
 10
9.375716062855915
 20
71.25141450516921
 11
9.277023745642053
 21
70.96275250587946
  0
LINE
  8
0
 10
9.277023745642053
 20
70.96275250587946
 11
9.173187341939874
 21
70.77398929768731
  0
LINE
  8
0
 10
9.173187341939874
 20
70.77398929768731
 11
9.0712845539691
 21
70.68499459018116
  0
LINE
  8
0
 10
9.0712845539691
 20
70.68499459018116
 11
6.335981441264061
 21
70.98247673087342
  0
LINE
  8
0
 10
6.335981441264061
 20
70.98247673087342
 11
6.255592315292206
 21
71.09129687876164
  0
LINE
  8
0
 10
6.255592315292206
 20
71.09129687876164
 11
6.19476205897207
 21
71.29796866545817
  0
LINE
  8
0
 10
6.19476205897207
 20
71.29796866545817
 11
6.160430910347835
 21
71.60109783849376
  0
LINE
  8
0
 10
6.160430910347835
 20
71.60109783849376
 11
6.148808783010516
 21
72.00629593269284
  0
LINE
  8
0
 10
6.148808783010516
 20
72.00629593269284
 11
6.1235638348867925
 21
72.3954234702141
  0
LINE
  8
0
 10
6.1235638348867925
 20
72.3954234702141
 11
6.074877178572073
 21
72.87633155121388
  0
LINE
  8
0
 10
6.074877178572073
 20
72.87633155121388
 11
5.996101169738582
 21
73.44771373593326
  0
LINE
  8
0
 10
5.996101169738582
 20
73.44771373593326
 11
5.880656298812994
 21
74.10790377885033
  0
LINE
  8
0
 10
5.880656298812994
 20
74.10790377885033
 11
5.722048481740311
 21
74.85487900230768
  0
LINE
  8
0
 10
5.722048481740311
 20
74.85487900230768
 11
5.513886190323138
 21
75.68626444861476
  0
LINE
  8
0
 10
5.513886190323138
 20
75.68626444861476
 11
5.380690678964317
 21
76.14695547619326
  0
LINE
  8
0
 10
5.380690678964317
 20
76.14695547619326
 11
4.1359079591853485
 21
76.28233375527923
  0
LINE
  8
0
 10
4.1359079591853485
 20
76.28233375527923
 11
2.8837852423924963
 21
76.28233375527915
  0
LINE
  8
0
 10
2.8837852423924963
 20
76.28233375527915
 11
2.701561067129628
 21
75.83874428618962
  0
LINE
  8
0
 10
2.701561067129628
 20
75.83874428618962
 11
2.404730453596896
 21
75.03473875961087
  0
LINE
  8
0
 10
2.404730453596896
 20
75.03473875961087
 11
2.1662901743963268
 21
74.3092908584143
  0
LINE
  8
0
 10
2.1662901743963268
 20
74.3092908584143
 11
1.9801429468375962
 21
73.66545266394145
  0
LINE
  8
0
 10
1.9801429468375962
 20
73.66545266394145
 11
1.8400514453862975
 21
73.10593713082056
  0
LINE
  8
0
 10
1.8400514453862975
 20
73.10593713082056
 11
1.7396548826660099
 21
72.63311210708882
  0
LINE
  8
0
 10
1.7396548826660099
 20
72.63311210708882
 11
1.6724858341126505
 21
72.24899511087887
  0
LINE
  8
0
 10
1.6724858341126505
 20
72.24899511087887
 11
1.6171222159706047
 21
71.84742887826499
  0
LINE
  8
0
 10
1.6171222159706047
 20
71.84742887826499
 11
1.5502182893682863
 21
71.54978851151985
  0
LINE
  8
0
 10
1.5502182893682863
 20
71.54978851151985
 11
1.4673994718978367
 21
71.35090515129684
  0
LINE
  8
0
 10
1.4673994718978367
 20
71.35090515129684
 11
1.3757160628567284
 21
71.25141450516907
  0
LINE
  8
0
 10
1.3757160628567284
 20
71.25141450516907
 11
-1.3757160628561187
 21
71.25141450516914
  0
LINE
  8
0
 10
-1.3757160628561187
 20
71.25141450516914
 11
-1.467399471901627
 21
71.35090515129595
  0
LINE
  8
0
 10
-1.467399471901627
 20
71.35090515129595
 11
-1.550218289366455
 21
71.54978851152006
  0
LINE
  8
0
 10
-1.550218289366455
 20
71.54978851152006
 11
-1.6171222159707828
 21
71.84742887826494
  0
LINE
  8
0
 10
-1.6171222159707828
 20
71.84742887826494
 11
-1.6724858341117494
 21
72.24899511087514
  0
LINE
  8
0
 10
-1.6724858341117494
 20
72.24899511087514
 11
-1.7396548826664584
 21
72.63311210708773
  0
LINE
  8
0
 10
-1.7396548826664584
 20
72.63311210708773
 11
-1.8400514453856882
 21
73.10593713082078
  0
LINE
  8
0
 10
-1.8400514453856882
 20
73.10593713082078
 11
-1.980142946836975
 21
73.66545266394166
  0
LINE
  8
0
 10
-1.980142946836975
 20
73.66545266394166
 11
-2.1662901743963427
 21
74.30929085841436
  0
LINE
  8
0
 10
-2.1662901743963427
 20
74.30929085841436
 11
-2.404730453596904
 21
75.03473875961089
  0
LINE
  8
0
 10
-2.404730453596904
 20
75.03473875961089
 11
-2.7015610671296155
 21
75.83874428618958
  0
LINE
  8
0
 10
-2.7015610671296155
 20
75.83874428618958
 11
-2.8837852423925066
 21
76.2823337552791
  0
LINE
  8
0
 10
-2.8837852423925066
 20
76.2823337552791
 11
-4.1359079591853325
 21
76.28233375527908
  0
LINE
  8
0
 10
-4.1359079591853325
 20
76.28233375527908
 11
-5.380690678964339
 21
76.14695547619321
  0
LINE
  8
0
 10
-5.380690678964339
 20
76.14695547619321
 11
-5.513886190323147
 21
75.68626444861479
  0
LINE
  8
0
 10
-5.513886190323147
 20
75.68626444861479
 11
-5.722048481740334
 21
74.85487900230767
  0
LINE
  8
0
 10
-5.722048481740334
 20
74.85487900230767
 11
-5.8806562988130215
 21
74.10790377885029
  0
LINE
  8
0
 10
-5.8806562988130215
 20
74.10790377885029
 11
-5.996101169737959
 21
73.4477137359331
  0
LINE
  8
0
 10
-5.996101169737959
 20
73.4477137359331
 11
-6.0748771785714615
 21
72.87633155121374
  0
LINE
  8
0
 10
-6.0748771785714615
 20
72.87633155121374
 11
-6.123563834887373
 21
72.39542347021514
  0
LINE
  8
0
 10
-6.123563834887373
 20
72.39542347021514
 11
-6.148808783010039
 21
72.00629593269663
  0
LINE
  8
0
 10
-6.148808783010039
 20
72.00629593269663
 11
-6.160430910348033
 21
71.60109783849379
  0
LINE
  8
0
 10
-6.160430910348033
 20
71.60109783849379
 11
-6.19476205897024
 21
71.29796866545814
  0
LINE
  8
0
 10
-6.19476205897024
 20
71.29796866545814
 11
-6.255592315296085
 21
71.09129687876211
  0
LINE
  8
0
 10
-6.255592315296085
 20
71.09129687876211
 11
-6.335981441263463
 21
70.98247673087342
  0
LINE
  8
0
 10
-6.335981441263463
 20
70.98247673087342
 11
-9.071284553968518
 21
70.6849945901813
  0
LINE
  8
0
 10
-9.071284553968518
 20
70.6849945901813
 11
-9.17318734194356
 21
70.773989297686
  0
LINE
  8
0
 10
-9.17318734194356
 20
70.773989297686
 11
-9.277023745640271
 21
70.96275250587989
  0
LINE
  8
0
 10
-9.277023745640271
 20
70.96275250587989
 11
-9.3757160628561
 21
71.25141450516915
  0
LINE
  8
0
 10
-9.3757160628561
 20
71.25141450516915
 11
-9.47417208399745
 21
71.64464087926862
  0
LINE
  8
0
 10
-9.47417208399745
 20
71.64464087926862
 11
-9.582477737302089
 21
72.01924391359347
  0
LINE
  8
0
 10
-9.582477737302089
 20
72.01924391359347
 11
-9.733407148521398
 21
72.47844243896458
  0
LINE
  8
0
 10
-9.733407148521398
 20
72.47844243896458
 11
-9.933171697822848
 21
73.01953151243104
  0
LINE
  8
0
 10
-9.933171697822848
 20
73.01953151243104
 11
-10.187838875968895
 21
73.63946944429601
  0
LINE
  8
0
 10
-10.187838875968895
 20
73.63946944429601
 11
-10.503316123031734
 21
74.33488480987356
  0
LINE
  8
0
 10
-10.503316123031734
 20
74.33488480987356
 11
-10.885334991131133
 21
75.10208418703398
  0
LINE
  8
0
 10
-10.885334991131133
 20
75.10208418703398
 11
-11.11445141845228
 21
75.52337141668733
  0
LINE
  8
0
 10
-11.11445141845228
 20
75.52337141668733
 11
-12.359234138231283
 21
75.38799313760136
  0
LINE
  8
0
 10
-12.359234138231283
 20
75.38799313760136
 11
-13.58208292172274
 21
75.1188237659742
  0
LINE
  8
0
 10
-13.58208292172274
 20
75.1188237659742
 11
-13.66468817358862
 21
74.64643236099148
  0
LINE
  8
0
 10
-13.66468817358862
 20
74.64643236099148
 11
-13.781741630347993
 21
73.79741422917093
  0
LINE
  8
0
 10
-13.781741630347993
 20
73.79741422917093
 11
-13.858657453654132
 21
73.03766928498183
  0
LINE
  8
0
 10
-13.858657453654132
 20
73.03766928498183
 11
-13.902046482385932
 21
72.36886751825602
  0
LINE
  8
0
 10
-13.902046482385932
 20
72.36886751825602
 11
-13.918583421923657
 21
71.79231761563427
  0
LINE
  8
0
 10
-13.918583421923657
 20
71.79231761563427
 11
-13.914989365304523
 21
71.30896468492008
  0
LINE
  8
0
 10
-13.914989365304523
 20
71.30896468492008
 11
-13.898014239061435
 21
70.91938877068776
  0
LINE
  8
0
 10
-13.898014239061435
 20
70.91938877068776
 11
-13.865758616778551
 21
70.51530939207431
  0
LINE
  8
0
 10
-13.865758616778551
 20
70.51530939207431
 11
-13.86711448609232
 21
70.21024532514836
  0
LINE
  8
0
 10
-13.86711448609232
 20
70.21024532514836
 11
-13.905243002135776
 21
69.9982081497165
  0
LINE
  8
0
 10
-13.905243002135776
 20
69.9982081497165
 11
-13.973395356027929
 21
69.88133431680563
  0
LINE
  8
0
 10
-13.973395356027929
 20
69.88133431680563
 11
-16.660500527640213
 21
69.28985774153047
  0
LINE
  8
0
 10
-16.660500527640213
 20
69.28985774153047
 11
-16.77142797752639
 21
69.36731312883622
  0
LINE
  8
0
 10
-16.77142797752639
 20
69.36731312883622
 11
-16.89506458056017
 21
69.54374310897163
  0
LINE
  8
0
 10
-16.89506458056017
 20
69.54374310897163
 11
-17.02438821120339
 21
69.82004244278977
  0
LINE
  8
0
 10
-17.02438821120339
 20
69.82004244278977
 11
-17.16478232851644
 21
70.20031873867251
  0
LINE
  8
0
 10
-17.16478232851644
 20
70.20031873867251
 11
-17.312954801810818
 21
70.56101593303498
  0
LINE
  8
0
 10
-17.312954801810818
 20
70.56101593303498
 11
-17.512647552179732
 21
71.00120427718336
  0
LINE
  8
0
 10
-17.512647552179732
 20
71.00120427718336
 11
-17.769743092637253
 21
71.51752311633149
  0
LINE
  8
0
 10
-17.769743092637253
 20
71.51752311633149
 11
-18.08994448155064
 21
72.10629258015229
  0
LINE
  8
0
 10
-18.08994448155064
 20
72.10629258015229
 11
-18.478760014197544
 21
72.76352230077379
  0
LINE
  8
0
 10
-18.478760014197544
 20
72.76352230077379
 11
-18.941488314918345
 21
73.48492081727582
  0
LINE
  8
0
 10
-18.941488314918345
 20
73.48492081727582
 11
-19.214810813670546
 21
73.87896659991178
  0
LINE
  8
0
 10
-19.214810813670546
 20
73.87896659991178
 11
-20.43765959716194
 21
73.60979722828459
  0
LINE
  8
0
 10
-20.43765959716194
 20
73.60979722828459
 11
-21.624237660440727
 21
73.20999252889469
  0
LINE
  8
0
 10
-21.624237660440727
 20
73.20999252889469
 11
-21.65528418176226
 21
72.73143910381953
  0
LINE
  8
0
 10
-21.65528418176226
 20
72.73143910381953
 11
-21.67985645910631
 21
71.87474224781647
  0
LINE
  8
0
 10
-21.67985645910631
 20
71.87474224781647
 11
-21.674178520942444
 21
71.11113489772484
  0
LINE
  8
0
 10
-21.674178520942444
 20
71.11113489772484
 11
-21.645003010790195
 21
70.44156249641397
  0
LINE
  8
0
 10
-21.645003010790195
 20
70.44156249641397
 11
-21.599107000535934
 21
69.86660439635348
  0
LINE
  8
0
 10
-21.599107000535934
 20
69.86660439635348
 11
-21.543274368009538
 21
69.3864734871025
  0
LINE
  8
0
 10
-21.543274368009538
 20
69.3864734871025
 11
-21.484278185235386
 21
69.00101661755808
  0
LINE
  8
0
 10
-21.484278185235386
 20
69.00101661755808
 11
-21.408522981011295
 21
68.60279341579498
  0
LINE
  8
0
 10
-21.408522981011295
 20
68.60279341579498
 11
-21.376887674688604
 21
68.2993710522407
  0
LINE
  8
0
 10
-21.376887674688604
 20
68.2993710522407
 11
-21.391867428460294
 21
68.08445443008752
  0
LINE
  8
0
 10
-21.391867428460294
 20
68.08445443008752
 11
-21.446983986240138
 21
67.9608971509866
  0
LINE
  8
0
 10
-21.446983986240138
 20
67.9608971509866
 11
-24.05438736546618
 21
67.08236066318128
  0
LINE
  8
0
 10
-24.05438736546618
 20
67.08236066318128
 11
-24.17303895433551
 21
67.14736863669005
  0
LINE
  8
0
 10
-24.17303895433551
 20
67.14736863669005
 11
-24.31502623057781
 21
67.30939690856135
  0
LINE
  8
0
 10
-24.31502623057781
 20
67.30939690856135
 11
-24.47346497332086
 21
67.57009421984228
  0
LINE
  8
0
 10
-24.47346497332086
 20
67.57009421984228
 11
-24.654151194143676
 21
67.932962045629
  0
LINE
  8
0
 10
-24.654151194143676
 20
67.932962045629
 11
-24.840453300653795
 21
68.27552455521378
  0
LINE
  8
0
 10
-24.840453300653795
 20
68.27552455521378
 11
-25.08656817525507
 21
68.69154191227234
  0
LINE
  8
0
 10
-25.08656817525507
 20
68.69154191227234
 11
-25.397980496721487
 21
69.17703715078794
  0
LINE
  8
0
 10
-25.397980496721487
 20
69.17703715078794
 11
-25.779962027880124
 21
69.72773536291831
  0
LINE
  8
0
 10
-25.779962027880124
 20
69.72773536291831
 11
-26.23755733948824
 21
70.33907402102032
  0
LINE
  8
0
 10
-26.23755733948824
 20
70.33907402102032
 11
-26.775570006581013
 21
71.00621393883893
  0
LINE
  8
0
 10
-26.775570006581013
 20
71.00621393883893
 11
-27.089894120367557
 21
71.3683984479357
  0
LINE
  8
0
 10
-27.089894120367557
 20
71.3683984479357
 11
-28.276472183646305
 21
70.96859374854573
  0
LINE
  8
0
 10
-28.276472183646305
 20
70.96859374854573
 11
-29.412867983819147
 21
70.44284106594847
  0
LINE
  8
0
 10
-29.412867983819147
 20
70.44284106594847
 11
-29.391991782519913
 21
69.96373622214419
  0
LINE
  8
0
 10
-29.391991782519913
 20
69.96373622214419
 11
-29.32379479296343
 21
69.10940462930988
  0
LINE
  8
0
 10
-29.32379479296343
 20
69.10940462930988
 11
-29.235589661963143
 21
68.35088747132268
  0
LINE
  8
0
 10
-29.235589661963143
 20
68.35088747132268
 11
-29.134191669107953
 21
67.68839455963624
  0
LINE
  8
0
 10
-29.134191669107953
 20
67.68839455963624
 11
-29.026400797818813
 21
67.12176912017101
  0
LINE
  8
0
 10
-29.026400797818813
 20
67.12176912017101
 11
-28.918984175953266
 21
66.65048932830638
  0
LINE
  8
0
 10
-28.918984175953266
 20
66.65048932830638
 11
-28.818658612950355
 21
66.27367063281865
  0
LINE
  8
0
 10
-28.818658612950355
 20
66.27367063281865
 11
-28.70029198729094
 21
65.88597241084763
  0
LINE
  8
0
 10
-28.70029198729094
 20
65.88597241084763
 11
-28.636036400373985
 21
65.58774910045598
  0
LINE
  8
0
 10
-28.636036400373985
 20
65.58774910045598
 11
-28.627691767957057
 21
65.37247273247607
  0
LINE
  8
0
 10
-28.627691767957057
 20
65.37247273247607
 11
-28.66912633837817
 21
65.24368060331308
  0
LINE
  8
0
 10
-28.66912633837817
 20
65.24368060331308
 11
-31.166258504568187
 21
64.08838424004352
  0
LINE
  8
0
 10
-31.166258504568187
 20
64.08838424004352
 11
-31.291243151025363
 21
64.14018264070329
  0
LINE
  8
0
 10
-31.291243151025363
 20
64.14018264070329
 11
-31.44991642948245
 21
64.28590957096668
  0
LINE
  8
0
 10
-31.44991642948245
 20
64.28590957096668
 11
-31.63561273492858
 21
64.52794842209343
  0
LINE
  8
0
 10
-31.63561273492858
 20
64.52794842209343
 11
-31.854472678525013
 21
64.86915348429999
  0
LINE
  8
0
 10
-31.854472678525013
 20
64.86915348429999
 11
-32.07672019638969
 21
65.18956507689008
  0
LINE
  8
0
 10
-32.07672019638969
 20
65.18956507689008
 11
-32.3663717233436
 21
65.57653402371561
  0
LINE
  8
0
 10
-32.3663717233436
 20
65.57653402371561
 11
-32.72844980107672
 21
66.02551367381962
  0
LINE
  8
0
 10
-32.72844980107672
 20
66.02551367381962
 11
-33.16773309027682
 21
66.53168420123052
  0
LINE
  8
0
 10
-33.16773309027682
 20
66.53168420123052
 11
-33.68874329420092
 21
67.08996440999907
  0
LINE
  8
0
 10
-33.68874329420092
 20
67.08996440999907
 11
-34.29573262105367
 21
67.69502412356965
  0
LINE
  8
0
 10
-34.29573262105367
 20
67.69502412356965
 11
-34.64737318702967
 21
68.0211010769065
  0
LINE
  8
0
 10
-34.64737318702967
 20
68.0211010769065
 11
-35.78376898720246
 21
67.49534839430915
  0
LINE
  8
0
 10
-35.78376898720246
 20
67.49534839430915
 11
-36.85665932252889
 21
66.84981169800771
  0
LINE
  8
0
 10
-36.85665932252889
 20
66.84981169800771
 11
-36.78410515298188
 21
66.37577250171829
  0
LINE
  8
0
 10
-36.78410515298188
 20
66.37577250171829
 11
-36.623938443874316
 21
65.53382242885586
  0
LINE
  8
0
 10
-36.623938443874316
 20
65.53382242885586
 11
-36.45424024455186
 21
64.78928838313165
  0
LINE
  8
0
 10
-36.45424024455186
 20
64.78928838313165
 11
-36.2818085677509
 21
64.14164208473609
  0
LINE
  8
0
 10
-36.2818085677509
 20
64.14164208473609
 11
-36.113386584838615
 21
63.589992471073295
  0
LINE
  8
0
 10
-36.113386584838615
 20
63.589992471073295
 11
-35.95564533531333
 21
63.13308912125937
  0
LINE
  8
0
 10
-35.95564533531333
 20
63.13308912125937
 11
-35.81516661757933
 21
62.76932645450434
  0
LINE
  8
0
 10
-35.81516661757933
 20
62.76932645450434
 11
-35.65557631094681
 21
62.396698619502146
  0
LINE
  8
0
 10
-35.65557631094681
 20
62.396698619502146
 11
-35.55945378144275
 21
62.10717075791929
  0
LINE
  8
0
 10
-35.55945378144275
 20
62.10717075791929
 11
-35.52788259602272
 21
61.89405856269816
  0
LINE
  8
0
 10
-35.52788259602272
 20
61.89405856269816
 11
-35.5551493966309
 21
61.761541553431755
  0
LINE
  8
0
 10
-35.5551493966309
 20
61.761541553431755
 11
-37.91273375828604
 21
60.34303010825979
  0
LINE
  8
0
 10
-37.91273375828604
 20
60.34303010825979
 11
-38.042586131625896
 21
60.38101164718253
  0
LINE
  8
0
 10
-38.042586131625896
 20
60.38101164718253
 11
-38.21608511318422
 21
60.50872872082007
  0
LINE
  8
0
 10
-38.21608511318422
 20
60.50872872082007
 11
-38.426861861935826
 21
60.729271427561414
  0
LINE
  8
0
 10
-38.426861861935826
 20
60.729271427561414
 11
-38.681329595572755
 21
61.0448134088002
  0
LINE
  8
0
 10
-38.681329595572755
 20
61.0448134088002
 11
-38.93691687584786
 21
61.339317551427605
  0
LINE
  8
0
 10
-38.93691687584786
 20
61.339317551427605
 11
-39.266709155831784
 21
61.69270123092767
  0
LINE
  8
0
 10
-39.266709155831784
 20
61.69270123092767
 11
-39.67520795542134
 21
62.0999014167286
  0
LINE
  8
0
 10
-39.67520795542134
 20
62.0999014167286
 11
-40.16664280773757
 21
62.55560987278226
  0
LINE
  8
0
 10
-40.16664280773757
 20
62.55560987278226
 11
-40.744959535700815
 21
63.05428630721001
  0
LINE
  8
0
 10
-40.744959535700815
 20
63.05428630721001
 11
-41.41380912743184
 21
63.59017204460236
  0
LINE
  8
0
 10
-41.41380912743184
 20
63.59017204460236
 11
-41.79864348146927
 21
63.876318488036425
  0
LINE
  8
0
 10
-41.79864348146927
 20
63.876318488036425
 11
-42.87153381679567
 21
63.23078179173489
  0
LINE
  8
0
 10
-42.87153381679567
 20
63.23078179173489
 11
-43.86834002904698
 21
62.47302940927354
  0
LINE
  8
0
 10
-43.86834002904698
 20
62.47302940927354
 11
-43.74495852255321
 21
62.00961353665727
  0
LINE
  8
0
 10
-43.74495852255321
 20
62.00961353665727
 11
-43.49469990211703
 21
61.189916078568764
  0
LINE
  8
0
 10
-43.49469990211703
 20
61.189916078568764
 11
-43.24549819070292
 21
60.46809412605967
  0
LINE
  8
0
 10
-43.24549819070292
 20
60.46809412605967
 11
-43.004054433710884
 21
59.84288750165505
  0
LINE
  8
0
 10
-43.004054433710884
 20
59.84288750165505
 11
-42.77697593293541
 21
59.31268130113681
  0
LINE
  8
0
 10
-42.77697593293541
 20
59.31268130113681
 11
-42.57075942767687
 21
58.87551116739945
  0
LINE
  8
0
 10
-42.57075942767687
 20
58.87551116739945
 11
-42.391774539736296
 21
58.529069314053444
  0
LINE
  8
0
 10
-42.391774539736296
 20
58.529069314053444
 11
-42.192831602561135
 21
58.17588058668859
  0
LINE
  8
0
 10
-42.192831602561135
 20
58.17588058668859
 11
-42.065969079242734
 21
57.898442623373754
  0
LINE
  8
0
 10
-42.065969079242734
 20
57.898442623373754
 11
-42.01154148410284
 21
57.68999314655003
  0
LINE
  8
0
 10
-42.01154148410284
 20
57.68999314655003
 11
-42.02432083659124
 21
57.555304897952404
  0
LINE
  8
0
 10
-42.02432083659124
 20
57.555304897952404
 11
-44.214716872631016
 21
55.890209120615275
  0
LINE
  8
0
 10
-44.214716872631016
 20
55.890209120615275
 11
-44.34791457250131
 21
55.913928498983985
  0
LINE
  8
0
 10
-44.34791457250131
 20
55.913928498983985
 11
-44.53420514023373
 21
56.0221383500801
  0
LINE
  8
0
 10
-44.53420514023373
 20
56.0221383500801
 11
-44.767591167626726
 21
56.21859925084362
  0
LINE
  8
0
 10
-44.767591167626726
 20
56.21859925084362
 11
-45.054683289789324
 21
56.504778709887404
  0
LINE
  8
0
 10
-45.054683289789324
 20
56.504778709887404
 11
-45.34061380529931
 21
56.769922610747514
  0
LINE
  8
0
 10
-45.34061380529931
 20
56.769922610747514
 11
-45.70668032536239
 21
57.08557792238174
  0
LINE
  8
0
 10
-45.70668032536239
 20
57.08557792238174
 11
-46.15681057187721
 21
57.446224594007774
  0
LINE
  8
0
 10
-46.15681057187721
 20
57.446224594007774
 11
-46.69463536298933
 21
57.846128213715176
  0
LINE
  8
0
 10
-46.69463536298933
 20
57.846128213715176
 11
-47.3234783801164
 21
58.27935434855268
  0
LINE
  8
0
 10
-47.3234783801164
 20
58.27935434855268
 11
-48.04634658679765
 21
58.73978333946085
  0
LINE
  8
0
 10
-48.04634658679765
 20
58.73978333946085
 11
-48.45986289795287
 21
58.982644467569045
  0
LINE
  8
0
 10
-48.45986289795287
 20
58.982644467569045
 11
-49.456669110204146
 21
58.22489208510766
  0
LINE
  8
0
 10
-49.456669110204146
 20
58.22489208510766
 11
-50.3657045579303
 21
57.36380797035115
  0
LINE
  8
0
 10
-50.3657045579303
 20
57.36380797035115
 11
-50.1929422498446
 21
56.916448548809285
  0
LINE
  8
0
 10
-50.1929422498446
 20
56.916448548809285
 11
-49.85552577159077
 21
56.128613908734245
  0
LINE
  8
0
 10
-49.85552577159077
 20
56.128613908734245
 11
-49.52974221030404
 21
55.437966751865346
  0
LINE
  8
0
 10
-49.52974221030404
 20
55.437966751865346
 11
-49.22211708041753
 21
54.84252977749093
  0
LINE
  8
0
 10
-49.22211708041753
 20
54.84252977749093
 11
-48.9390443495806
 21
54.339983173046186
  0
LINE
  8
0
 10
-48.9390443495806
 20
54.339983173046186
 11
-48.68677028856742
 21
53.927671675495
  0
LINE
  8
0
 10
-48.68677028856742
 20
53.927671675495
 11
-48.47137766458394
 21
53.60261234953367
  0
LINE
  8
0
 10
-48.47137766458394
 20
53.60261234953367
 11
-48.235414520909245
 21
53.27300354471099
  0
LINE
  8
0
 10
-48.235414520909245
 20
53.27300354471099
 11
-48.07929935087091
 21
53.010908186120076
  0
LINE
  8
0
 10
-48.07929935087091
 20
53.010908186120076
 11
-48.002653459800555
 21
52.80956530722234
  0
LINE
  8
0
 10
-48.002653459800555
 20
52.80956530722234
 11
-48.0007955379455
 21
52.67428491586166
  0
LINE
  8
0
 10
-48.0007955379455
 20
52.67428491586166
 11
-49.99832285754555
 21
50.78212653193707
  0
LINE
  8
0
 10
-49.99832285754555
 20
50.78212653193707
 11
-50.13330426269912
 21
50.79130566172721
  0
LINE
  8
0
 10
-50.13330426269912
 20
50.79130566172721
 11
-50.33020233002607
 21
50.878739628715
  0
LINE
  8
0
 10
-50.33020233002607
 20
50.878739628715
 11
-50.58346139827615
 21
51.04881539906516
  0
LINE
  8
0
 10
-50.58346139827615
 20
51.04881539906516
 11
-50.89981201632289
 21
51.30227714341302
  0
LINE
  8
0
 10
-50.89981201632289
 20
51.30227714341302
 11
-51.21273349320217
 21
51.53495223269164
  0
LINE
  8
0
 10
-51.21273349320217
 20
51.53495223269164
 11
-51.61078245809449
 21
51.80917840653752
  0
LINE
  8
0
 10
-51.61078245809449
 20
51.80917840653752
 11
-52.09726678595218
 21
52.11904331150623
  0
LINE
  8
0
 10
-52.09726678595218
 20
52.11904331150623
 11
-52.6751760119223
 21
52.45845359056169
  0
LINE
  8
0
 10
-52.6751760119223
 20
52.45845359056169
 11
-53.34717270879401
 21
52.82115024548038
  0
LINE
  8
0
 10
-53.34717270879401
 20
52.82115024548038
 11
-54.11558456162686
 21
53.200724380960224
  0
LINE
  8
0
 10
-54.11558456162686
 20
53.200724380960224
 11
-54.55293472923311
 21
53.39745286906552
  0
LINE
  8
0
 10
-54.55293472923311
 20
53.39745286906552
 11
-55.46197017695924
 21
52.53636875430901
  0
LINE
  8
0
 10
-55.46197017695924
 20
52.53636875430901
 11
-56.272577250674686
 21
51.58204833120618
  0
LINE
  8
0
 10
-56.272577250674686
 20
51.58204833120618
 11
-56.0524596211013
 21
51.155990240931686
  0
LINE
  8
0
 10
-56.0524596211013
 20
51.155990240931686
 11
-55.63184118473453
 21
50.40925505970091
  0
LINE
  8
0
 10
-55.63184118473453
 20
50.40925505970091
 11
-55.233295287964516
 21
49.75787990492177
  0
LINE
  8
0
 10
-55.233295287964516
 20
49.75787990492177
 11
-54.86309540856711
 21
49.19919353468888
  0
LINE
  8
0
 10
-54.86309540856711
 20
49.19919353468888
 11
-54.52734721662193
 21
48.730198425772
  0
LINE
  8
0
 10
-54.52734721662193
 20
48.730198425772
 11
-54.23197328256312
 21
48.34757953973577
  0
LINE
  8
0
 10
-54.23197328256312
 20
48.34757953973577
 11
-53.982698204117575
 21
48.04771376455146
  0
LINE
  8
0
 10
-53.982698204117575
 20
48.04771376455146
 11
-53.71248130605978
 21
47.74554924414328
  0
LINE
  8
0
 10
-53.71248130605978
 20
47.74554924414328
 11
-53.528943796932744
 21
47.501869318719706
  0
LINE
  8
0
 10
-53.528943796932744
 20
47.501869318719706
 11
-53.4309782129267
 21
47.30999359891349
  0
LINE
  8
0
 10
-53.4309782129267
 20
47.30999359891349
 11
-53.41450479916325
 21
47.175707103690414
  0
LINE
  8
0
 10
-53.41450479916325
 20
47.175707103690414
 11
-55.19574422085791
 21
45.07866994021296
  0
LINE
  8
0
 10
-55.19574422085791
 20
45.07866994021296
 11
-55.33092679773399
 21
45.073201204520295
  0
LINE
  8
0
 10
-55.33092679773399
 20
45.073201204520295
 11
-55.53612391484168
 21
45.138834204078485
  0
LINE
  8
0
 10
-55.53612391484168
 20
45.138834204078485
 11
-55.806286792930585
 21
45.28053086110969
  0
LINE
  8
0
 10
-55.806286792930585
 20
45.28053086110969
 11
-56.148186985107
 21
45.49830328355142
  0
LINE
  8
0
 10
-56.148186985107
 20
45.49830328355142
 11
-56.48443070514601
 21
45.69578165856362
  0
LINE
  8
0
 10
-56.48443070514601
 20
45.69578165856362
 11
-56.909795354693834
 21
45.925363643460194
  0
LINE
  8
0
 10
-56.909795354693834
 20
45.925363643460194
 11
-57.426930179947135
 21
46.18081389907302
  0
LINE
  8
0
 10
-57.426930179947135
 20
46.18081389907302
 11
-58.03814838348819
 21
46.45575156228036
  0
LINE
  8
0
 10
-58.03814838348819
 20
46.45575156228036
 11
-58.74542021324618
 21
46.74366645061806
  0
LINE
  8
0
 10
-58.74542021324618
 20
46.74366645061806
 11
-59.55036678582182
 21
47.03793557097901
  0
LINE
  8
0
 10
-59.55036678582182
 20
47.03793557097901
 11
-60.00642327903697
 21
47.18622495742893
  0
LINE
  8
0
 10
-60.00642327903697
 20
47.18622495742893
 11
-60.81703035275239
 21
46.231904534326134
  0
LINE
  8
0
 10
-60.81703035275239
 20
46.231904534326134
 11
-61.51970542566292
 21
45.19553633729437
  0
LINE
  8
0
 10
-61.51970542566292
 20
45.19553633729437
 11
-61.25481315255313
 21
44.795774719847095
  0
LINE
  8
0
 10
-61.25481315255313
 20
44.795774719847095
 11
-60.75592412466472
 21
44.09889378471403
  0
LINE
  8
0
 10
-60.75592412466472
 20
44.09889378471403
 11
-60.28928847865707
 21
43.49442741015646
  0
LINE
  8
0
 10
-60.28928847865707
 20
43.49442741015646
 11
-59.86085410485772
 21
42.97904173094426
  0
LINE
  8
0
 10
-59.86085410485772
 20
42.97904173094426
 11
-59.47636679237735
 21
42.54909665640096
  0
LINE
  8
0
 10
-59.47636679237735
 20
42.54909665640096
 11
-59.14135597458677
 21
42.200656238486694
  0
LINE
  8
0
 10
-59.14135597458677
 20
42.200656238486694
 11
-58.861120964059566
 21
41.929499666123526
  0
LINE
  8
0
 10
-58.861120964059566
 20
41.929499666123526
 11
-58.55981835768673
 21
41.65832203285999
  0
LINE
  8
0
 10
-58.55981835768673
 20
41.65832203285999
 11
-58.35101031895556
 21
41.43591446493067
  0
LINE
  8
0
 10
-58.35101031895556
 20
41.43591446493067
 11
-58.23287359891553
 21
41.25575547159705
  0
LINE
  8
0
 10
-58.23287359891553
 20
41.25575547159705
 11
-58.201977828958256
 21
41.12403725888876
  0
LINE
  8
0
 10
-58.201977828958256
 20
41.12403725888876
 11
-59.746045949130895
 21
38.84670715926085
  0
LINE
  8
0
 10
-59.746045949130895
 20
38.84670715926085
 11
-59.87984480561423
 21
38.82665467401127
  0
LINE
  8
0
 10
-59.87984480561423
 20
38.82665467401127
 11
-60.09093522391808
 21
38.86971721922885
  0
LINE
  8
0
 10
-60.09093522391808
 20
38.86971721922885
 11
-60.374834499112495
 21
38.981373499191896
  0
LINE
  8
0
 10
-60.374834499112495
 20
38.981373499191896
 11
-60.73827579826765
 21
39.16090341718561
  0
LINE
  8
0
 10
-60.73827579826765
 20
39.16090341718561
 11
-61.09389961127948
 21
39.320869824540566
  0
LINE
  8
0
 10
-61.09389961127948
 20
39.320869824540566
 11
-61.54159293388147
 21
39.50311598162374
  0
LINE
  8
0
 10
-61.54159293388147
 20
39.50311598162374
 11
-62.08331532352517
 21
39.70115666719401
  0
LINE
  8
0
 10
-62.08331532352517
 20
39.70115666719401
 11
-62.72067653004279
 21
39.908398321830056
  0
LINE
  8
0
 10
-62.72067653004279
 20
39.908398321830056
 11
-63.45493137714793
 21
40.11815590476407
  0
LINE
  8
0
 10
-63.45493137714793
 20
40.11815590476407
 11
-64.28697540687259
 21
40.32366997362272
  0
LINE
  8
0
 10
-64.28697540687259
 20
40.32366997362272
 11
-64.75639138029007
 21
40.421781700943384
  0
LINE
  8
0
 10
-64.75639138029007
 20
40.421781700943384
 11
-65.45906645320062
 21
39.38541350391161
  0
LINE
  8
0
 10
-65.45906645320062
 20
39.38541350391161
 11
-66.04557130253845
 21
38.279148002500726
  0
LINE
  8
0
 10
-66.04557130253845
 20
38.279148002500726
 11
-65.73901000560109
 21
37.91036969733966
  0
LINE
  8
0
 10
-65.73901000560109
 20
37.91036969733966
 11
-65.16769940390444
 21
37.271513300104424
  0
LINE
  8
0
 10
-65.16769940390444
 20
37.271513300104424
 11
-64.63844488495953
 21
36.721042521341225
  0
LINE
  8
0
 10
-64.63844488495953
 20
36.721042521341225
 11
-64.15679901806976
 21
36.254999959016864
  0
LINE
  8
0
 10
-64.15679901806976
 20
36.254999959016864
 11
-63.72808034725292
 21
35.86914563174365
  0
LINE
  8
0
 10
-63.72808034725292
 20
35.86914563174365
 11
-63.35736034126587
 21
35.55896882726926
  0
LINE
  8
0
 10
-63.35736034126587
 20
35.55896882726926
 11
-63.04945089793412
 21
35.319700520617396
  0
LINE
  8
0
 10
-63.04945089793412
 20
35.319700520617396
 11
-62.72059508082235
 21
35.082689084308434
  0
LINE
  8
0
 10
-62.72059508082235
 20
35.082689084308434
 11
-62.488964595826175
 21
34.88416139925814
  0
LINE
  8
0
 10
-62.488964595826175
 20
34.88416139925814
 11
-62.35204178478117
 21
34.71783133187303
  0
LINE
  8
0
 10
-62.35204178478117
 20
34.71783133187303
 11
-62.30708588328458
 21
34.59022567729242
  0
LINE
  8
0
 10
-62.30708588328458
 20
34.59022567729242
 11
-63.5958799149811
 21
32.159302254749434
  0
LINE
  8
0
 10
-63.5958799149811
 20
32.159302254749434
 11
-63.726726381812895
 21
32.12490111699832
  0
LINE
  8
0
 10
-63.726726381812895
 20
32.12490111699832
 11
-63.9412352591601
 21
32.14488833890509
  0
LINE
  8
0
 10
-63.9412352591601
 20
32.14488833890509
 11
-64.23554247202996
 21
32.22519517400571
  0
LINE
  8
0
 10
-64.23554247202996
 20
32.22519517400571
 11
-64.61626386122879
 21
32.36437776340869
  0
LINE
  8
0
 10
-64.61626386122879
 20
32.36437776340869
 11
-64.98709840315584
 21
32.48495674323885
  0
LINE
  8
0
 10
-64.98709840315584
 20
32.48495674323885
 11
-65.4518716039344
 21
32.61773040294607
  0
LINE
  8
0
 10
-65.4518716039344
 20
32.61773040294607
 11
-66.01183035825143
 21
32.75603967250579
  0
LINE
  8
0
 10
-66.01183035825143
 20
32.75603967250579
 11
-66.6678620903441
 21
32.89315559965277
  0
LINE
  8
0
 10
-66.6678620903441
 20
32.89315559965277
 11
-67.42049148804968
 21
33.02229666130641
  0
LINE
  8
0
 10
-67.42049148804968
 20
33.02229666130641
 11
-68.26987801941995
 21
33.1366462141087
  0
LINE
  8
0
 10
-68.26987801941995
 20
33.1366462141087
 11
-68.74714999994272
 21
33.18343001200181
  0
LINE
  8
0
 10
-68.74714999994272
 20
33.18343001200181
 11
-69.33365484928042
 21
32.0771645105909
  0
LINE
  8
0
 10
-69.33365484928042
 20
32.0771645105909
 11
-69.79711324193337
 21
30.913971656336603
  0
LINE
  8
0
 10
-69.79711324193337
 20
30.913971656336603
 11
-69.45247707208337
 21
30.580500251912547
  0
LINE
  8
0
 10
-69.45247707208337
 20
30.580500251912547
 11
-68.81544299102909
 21
30.007158399720748
  0
LINE
  8
0
 10
-68.81544299102909
 20
30.007158399720748
 11
-68.22977462447956
 21
29.51713698333269
  0
LINE
  8
0
 10
-68.22977462447956
 20
29.51713698333269
 11
-67.70056412191563
 21
29.105901460832637
  0
LINE
  8
0
 10
-67.70056412191563
 20
29.105901460832637
 11
-67.23264042719644
 21
28.768661670026805
  0
LINE
  8
0
 10
-67.23264042719644
 20
28.768661670026805
 11
-66.83055758613058
 21
28.50038501842741
  0
LINE
  8
0
 10
-66.83055758613058
 20
28.50038501842741
 11
-66.49858366669305
 21
28.29581017961723
  0
LINE
  8
0
 10
-66.49858366669305
 20
28.29581017961723
 11
-66.14603017262226
 21
28.095743682651946
  0
LINE
  8
0
 10
-66.14603017262226
 20
28.095743682651946
 11
-65.89429289701586
 21
27.923423436072316
  0
LINE
  8
0
 10
-65.89429289701586
 20
27.923423436072316
 11
-65.74018928973571
 21
27.772872362598765
  0
LINE
  8
0
 10
-65.74018928973571
 20
27.772872362598765
 11
-65.68170032354124
 21
27.65087532577483
  0
LINE
  8
0
 10
-65.68170032354124
 20
27.65087532577483
 11
-66.70011033509563
 21
25.094858934831596
  0
LINE
  8
0
 10
-66.70011033509563
 20
25.094858934831596
 11
-66.82647035708635
 21
25.046512466465824
  0
LINE
  8
0
 10
-66.82647035708635
 20
25.046512466465824
 11
-67.04188277301735
 21
25.043190033159405
  0
LINE
  8
0
 10
-67.04188277301735
 20
25.043190033159405
 11
-67.34314744057939
 21
25.091205899181293
  0
LINE
  8
0
 10
-67.34314744057939
 20
25.091205899181293
 11
-67.73668530963046
 21
25.18840937138865
  0
LINE
  8
0
 10
-67.73668530963046
 20
25.18840937138865
 11
-68.11838288452587
 21
25.26818724540192
  0
LINE
  8
0
 10
-68.11838288452587
 20
25.26818724540192
 11
-68.59478692264807
 21
25.34993175796923
  0
LINE
  8
0
 10
-68.59478692264807
 20
25.34993175796923
 11
-69.16641703721922
 21
25.426888061790198
  0
LINE
  8
0
 10
-69.16641703721922
 20
25.426888061790198
 11
-69.83342792264368
 21
25.492270702568607
  0
LINE
  8
0
 10
-69.83342792264368
 20
25.492270702568607
 11
-70.59560797939724
 21
25.53928118206877
  0
LINE
  8
0
 10
-70.59560797939724
 20
25.53928118206877
 11
-71.45237873193432
 21
25.561125574858877
  0
LINE
  8
0
 10
-71.45237873193432
 20
25.561125574858877
 11
-71.93191114196456
 21
25.556032946068854
  0
LINE
  8
0
 10
-71.93191114196456
 20
25.556032946068854
 11
-72.39536953461743
 21
24.392840091814595
  0
LINE
  8
0
 10
-72.39536953461743
 20
24.392840091814595
 11
-72.73034784467575
 21
23.186357257415715
  0
LINE
  8
0
 10
-72.73034784467575
 20
23.186357257415715
 11
-72.35167734590084
 21
22.892102401049772
  0
LINE
  8
0
 10
-72.35167734590084
 20
22.892102401049772
 11
-71.65638842764349
 21
22.390997002906907
  0
LINE
  8
0
 10
-71.65638842764349
 20
22.390997002906907
 11
-71.02117263960542
 21
21.96717000197029
  0
LINE
  8
0
 10
-71.02117263960542
 20
21.96717000197029
 11
-70.45060201064814
 21
21.615562879799626
  0
LINE
  8
0
 10
-70.45060201064814
 20
21.615562879799626
 11
-69.94895926952046
 21
21.3308914536671
  0
LINE
  8
0
 10
-69.94895926952046
 20
21.3308914536671
 11
-69.52022764705941
 21
21.107660253395014
  0
LINE
  8
0
 10
-69.52022764705941
 20
21.107660253395014
 11
-69.16808134219488
 21
20.940177335367018
  0
LINE
  8
0
 10
-69.16808134219488
 20
20.940177335367018
 11
-68.7959635385403
 21
20.77940137449978
  0
LINE
  8
0
 10
-68.7959635385403
 20
20.77940137449978
 11
-68.5270708617146
 21
20.635308863728053
  0
LINE
  8
0
 10
-68.5270708617146
 20
20.635308863728053
 11
-68.35759318209635
 21
20.502301857852384
  0
LINE
  8
0
 10
-68.35759318209635
 20
20.502301857852384
 11
-68.28625688085569
 21
20.387343742498928
  0
LINE
  8
0
 10
-68.28625688085569
 20
20.387343742498928
 11
-69.02234294602364
 21
17.736201338351183
  0
LINE
  8
0
 10
-69.02234294602364
 20
17.736201338351183
 11
-69.14273506744749
 21
17.67447635750875
  0
LINE
  8
0
 10
-69.14273506744749
 20
17.67447635750875
 11
-69.35652550833896
 21
17.64788322148193
  0
LINE
  8
0
 10
-69.35652550833896
 20
17.64788322148193
 11
-69.66121557781494
 21
17.663045176297306
  0
LINE
  8
0
 10
-69.66121557781494
 20
17.663045176297306
 11
-70.0629560550187
 21
17.71712990947139
  0
LINE
  8
0
 10
-70.0629560550187
 20
17.71712990947139
 11
-70.45104160780626
 21
17.755171355036563
  0
LINE
  8
0
 10
-70.45104160780626
 20
17.755171355036563
 11
-70.93349108150547
 21
17.784928340793837
  0
LINE
  8
0
 10
-70.93349108150547
 20
17.784928340793837
 11
-71.5100907158838
 21
17.799629436575565
  0
LINE
  8
0
 10
-71.5100907158838
 20
17.799629436575565
 11
-72.18026066186232
 21
17.79251223930219
  0
LINE
  8
0
 10
-72.18026066186232
 20
17.79251223930219
 11
-72.9430555133663
 21
17.75684098175883
  0
LINE
  8
0
 10
-72.9430555133663
 20
17.75684098175883
 11
-73.79716563334964
 21
17.68592410900382
  0
LINE
  8
0
 10
-73.79716563334964
 20
17.68592410900382
 11
-74.27333639382049
 21
17.62901475994704
  0
LINE
  8
0
 10
-74.27333639382049
 20
17.62901475994704
 11
-74.60831470387879
 21
16.4225319255481
  0
LINE
  8
0
 10
-74.60831470387879
 20
16.4225319255481
 11
-74.81088561693059
 21
15.186904019140165
  0
LINE
  8
0
 10
-74.81088561693059
 20
15.186904019140165
 11
-74.4026203546071
 21
14.935315579983415
  0
LINE
  8
0
 10
-74.4026203546071
 20
14.935315579983415
 11
-73.65722822600453
 21
14.512321638517676
  0
LINE
  8
0
 10
-73.65722822600453
 20
14.512321638517676
 11
-72.97991234080934
 21
14.159658037109754
  0
LINE
  8
0
 10
-72.97991234080934
 20
14.159658037109754
 11
-72.3746710044055
 21
13.871801587298485
  0
LINE
  8
0
 10
-72.3746710044055
 20
13.871801587298485
 11
-71.84519051935271
 21
13.643036038033097
  0
LINE
  8
0
 10
-71.84519051935271
 20
13.643036038033097
 11
-71.39483660177682
 21
13.467467470809282
  0
LINE
  8
0
 10
-71.39483660177682
 20
13.467467470809282
 11
-71.02664650493936
 21
13.339040057646251
  0
LINE
  8
0
 10
-71.02664650493936
 20
13.339040057646251
 11
-70.63932713271831
 21
13.219439584019373
  0
LINE
  8
0
 10
-70.63932713271831
 20
13.219439584019373
 11
-70.35643157545815
 21
13.105264161999308
  0
LINE
  8
0
 10
-70.35643157545815
 20
13.105264161999308
 11
-70.17356679434042
 21
12.991360609255942
  0
LINE
  8
0
 10
-70.17356679434042
 20
12.991360609255942
 11
-70.09021951096217
 21
12.884789194168278
  0
LINE
  8
0
 10
-70.09021951096217
 20
12.884789194168278
 11
-70.5353516936395
 21
10.169602997542041
  0
LINE
  8
0
 10
-70.5353516936395
 20
10.169602997542041
 11
-70.64836442694836
 21
10.095223173187627
  0
LINE
  8
0
 10
-70.64836442694836
 20
10.095223173187627
 11
-70.85802639535132
 21
10.045671114645993
  0
LINE
  8
0
 10
-70.85802639535132
 20
10.045671114645993
 11
-71.1625696542574
 21
10.02780139819735
  0
LINE
  8
0
 10
-71.1625696542574
 20
10.02780139819735
 11
-71.56780269983346
 21
10.038133298291836
  0
LINE
  8
0
 10
-71.56780269983346
 20
10.038133298291836
 11
-71.95772628223675
 21
10.033992314241292
  0
LINE
  8
0
 10
-71.95772628223675
 20
10.033992314241292
 11
-72.4405649125416
 21
10.011412899737595
  0
LINE
  8
0
 10
-72.4405649125416
 20
10.011412899737595
 11
-73.01537396320411
 21
9.963686430573379
  0
LINE
  8
0
 10
-73.01537396320411
 20
9.963686430573379
 11
-73.68084583986233
 21
9.884152837878938
  0
LINE
  8
0
 10
-73.68084583986233
 20
9.884152837878938
 11
-74.43531241391281
 21
9.766218056172207
  0
LINE
  8
0
 10
-74.43531241391281
 20
9.766218056172207
 11
-75.27674824110595
 21
9.60337135336521
  0
LINE
  8
0
 10
-75.27674824110595
 20
9.60337135336521
 11
-75.74397468521781
 21
9.495312494126615
  0
LINE
  8
0
 10
-75.74397468521781
 20
9.495312494126615
 11
-75.9465455982696
 21
8.25968458771873
  0
LINE
  8
0
 10
-75.9465455982696
 20
8.25968458771873
 11
-76.01433415557186
 21
7.009398216759045
  0
LINE
  8
0
 10
-76.01433415557186
 20
7.009398216759045
 11
-75.58126066662008
 21
6.803425839231115
  0
LINE
  8
0
 10
-75.58126066662008
 20
6.803425839231115
 11
-74.79450436886164
 21
6.463502571659135
  0
LINE
  8
0
 10
-74.79450436886164
 20
6.463502571659135
 11
-74.08302929598742
 21
6.186137028063011
  0
LINE
  8
0
 10
-74.08302929598742
 20
6.186137028063011
 11
-73.45021315342893
 21
5.965406104295504
  0
LINE
  8
0
 10
-73.45021315342893
 20
5.965406104295504
 11
-72.89910259902967
 21
5.795228498800057
  0
LINE
  8
0
 10
-72.89910259902967
 20
5.795228498800057
 11
-72.43240637425997
 21
5.669380945551338
  0
LINE
  8
0
 10
-72.43240637425997
 20
5.669380945551338
 11
-72.0524891776956
 21
5.581514731250304
  0
LINE
  8
0
 10
-72.0524891776956
 20
5.581514731250304
 11
-71.65450920241788
 21
5.5044919510653045
  0
LINE
  8
0
 10
-71.65450920241788
 20
5.5044919510653045
 11
-71.36092745647828
 21
5.421572220228501
  0
LINE
  8
0
 10
-71.36092745647828
 20
5.421572220228501
 11
-71.1668194962248
 21
5.328107535630346
  0
LINE
  8
0
 10
-71.1668194962248
 20
5.328107535630346
 11
-71.07243840140147
 21
5.231172273211204
  0
LINE
  8
0
 10
-71.07243840140147
 20
5.231172273211204
 11
-71.2213979337345
 21
2.4837753597435035
  0
LINE
  8
0
 10
-71.2213979337345
 20
2.4837753597435035
 11
-71.32570630795885
 21
2.3976127273115457
  0
LINE
  8
0
 10
-71.32570630795885
 20
2.3976127273115457
 11
-71.52878170898951
 21
2.325682698835613
  0
LINE
  8
0
 10
-71.52878170898951
 20
2.325682698835613
 11
-71.8296076660616
 21
2.2749908172098787
  0
LINE
  8
0
 10
-71.8296076660616
 20
2.2749908172098787
 11
-72.2335822930587
 21
2.241448752142704
  0
LINE
  8
0
 10
-72.2335822930587
 20
2.241448752142704
 11
-72.62077240758457
 21
2.1951738877282967
  0
LINE
  8
0
 10
-72.62077240758457
 20
2.1951738877282967
 11
-73.09833935301832
 21
2.1205227959541277
  0
LINE
  8
0
 10
-73.09833935301832
 20
2.1205227959541277
 11
-73.66461870939891
 21
2.010928311058197
  0
LINE
  8
0
 10
-73.66461870939891
 20
2.010928311058197
 11
-74.31759046742972
 21
1.8599107815987763
  0
LINE
  8
0
 10
-74.31759046742972
 20
1.8599107815987763
 11
-75.05488333326136
 21
1.6610951532153875
  0
LINE
  8
0
 10
-75.05488333326136
 20
1.6610951532153875
 11
-75.87377980192255
 21
1.408227849054659
  0
LINE
  8
0
 10
-75.87377980192255
 20
1.408227849054659
 11
-76.32658412680756
 21
1.2502863709596923
  0
LINE
  8
0
 10
-76.32658412680756
 20
1.2502863709596923
 11
-76.39437268410973
 21
6.217248937900877e-15
  0
LINE
  8
0
 10
-76.39437268410973
 20
6.217248937900877e-15
 11
-76.32658412680759
 21
-1.2502863709596945
  0
LINE
  8
0
 10
-76.32658412680759
 20
-1.2502863709596945
 11
-75.8737798019226
 21
-1.4082278490546403
  0
LINE
  8
0
 10
-75.8737798019226
 20
-1.4082278490546403
 11
-75.05488333326134
 21
-1.6610951532153841
  0
LINE
  8
0
 10
-75.05488333326134
 20
-1.6610951532153841
 11
-74.31759046742968
 21
-1.8599107815987805
  0
LINE
  8
0
 10
-74.31759046742968
 20
-1.8599107815987805
 11
-73.66461870939874
 21
-2.0109283110575564
  0
LINE
  8
0
 10
-73.66461870939874
 20
-2.0109283110575564
 11
-73.09833935301813
 21
-2.120522795953499
  0
LINE
  8
0
 10
-73.09833935301813
 20
-2.120522795953499
 11
-72.62077240758563
 21
-2.195173887728795
  0
LINE
  8
0
 10
-72.62077240758563
 20
-2.195173887728795
 11
-72.23358229306247
 21
-2.241448752141997
  0
LINE
  8
0
 10
-72.23358229306247
 20
-2.241448752141997
 11
-71.82960766606163
 21
-2.2749908172100506
  0
LINE
  8
0
 10
-71.82960766606163
 20
-2.2749908172100506
 11
-71.52878170898938
 21
-2.325682698833762
  0
LINE
  8
0
 10
-71.52878170898938
 20
-2.325682698833762
 11
-71.32570630795954
 21
-2.3976127273153693
  0
LINE
  8
0
 10
-71.32570630795954
 20
-2.3976127273153693
 11
-71.22139793373445
 21
-2.4837753597428813
  0
LINE
  8
0
 10
-71.22139793373445
 20
-2.4837753597428813
 11
-71.07243840140158
 21
-5.23117227321059
  0
LINE
  8
0
 10
-71.07243840140158
 20
-5.23117227321059
 11
-71.16681949622371
 21
-5.328107535634073
  0
LINE
  8
0
 10
-71.16681949622371
 20
-5.328107535634073
 11
-71.3609274564786
 21
-5.4215722202266745
  0
LINE
  8
0
 10
-71.3609274564786
 20
-5.4215722202266745
 11
-71.65450920241781
 21
-5.504491951065471
  0
LINE
  8
0
 10
-71.65450920241781
 20
-5.504491951065471
 11
-72.05248917769194
 21
-5.581514731249194
  0
LINE
  8
0
 10
-72.05248917769194
 20
-5.581514731249194
 11
-72.43240637425886
 21
-5.669380945551718
  0
LINE
  8
0
 10
-72.43240637425886
 20
-5.669380945551718
 11
-72.89910259902992
 21
-5.7952284987994505
  0
LINE
  8
0
 10
-72.89910259902992
 20
-5.7952284987994505
 11
-73.45021315342917
 21
-5.965406104294886
  0
LINE
  8
0
 10
-73.45021315342917
 20
-5.965406104294886
 11
-74.08302929598746
 21
-6.18613702806302
  0
LINE
  8
0
 10
-74.08302929598746
 20
-6.18613702806302
 11
-74.79450436886165
 21
-6.4635025716591334
  0
LINE
  8
0
 10
-74.79450436886165
 20
-6.4635025716591334
 11
-75.58126066662005
 21
-6.803425839231092
  0
LINE
  8
0
 10
-75.58126066662005
 20
-6.803425839231092
 11
-76.01433415557183
 21
-7.009398216759043
  0
LINE
  8
0
 10
-76.01433415557183
 20
-7.009398216759043
 11
-75.94654559826965
 21
-8.259684587718729
  0
LINE
  8
0
 10
-75.94654559826965
 20
-8.259684587718729
 11
-75.74397468521786
 21
-9.49531249412666
  0
LINE
  8
0
 10
-75.74397468521786
 20
-9.49531249412666
 11
-75.27674824110598
 21
-9.603371353365228
  0
LINE
  8
0
 10
-75.27674824110598
 20
-9.603371353365228
 11
-74.4353124139128
 21
-9.766218056172237
  0
LINE
  8
0
 10
-74.4353124139128
 20
-9.766218056172237
 11
-73.68084583986227
 21
-9.88415283787897
  0
LINE
  8
0
 10
-73.68084583986227
 20
-9.88415283787897
 11
-73.01537396320401
 21
-9.963686430572755
  0
LINE
  8
0
 10
-73.01537396320401
 20
-9.963686430572755
 11
-72.4405649125415
 21
-10.011412899736978
  0
LINE
  8
0
 10
-72.4405649125415
 20
-10.011412899736978
 11
-71.95772628223776
 21
-10.033992314241932
  0
LINE
  8
0
 10
-71.95772628223776
 20
-10.033992314241932
 11
-71.56780269983729
 21
-10.03813329829157
  0
LINE
  8
0
 10
-71.56780269983729
 20
-10.03813329829157
 11
-71.16256965425742
 21
-10.027801398197555
  0
LINE
  8
0
 10
-71.16256965425742
 20
-10.027801398197555
 11
-70.85802639535139
 21
-10.045671114644167
  0
LINE
  8
0
 10
-70.85802639535139
 20
-10.045671114644167
 11
-70.64836442694863
 21
-10.095223173191531
  0
LINE
  8
0
 10
-70.64836442694863
 20
-10.095223173191531
 11
-70.53535169363951
 21
-10.169602997541446
  0
LINE
  8
0
 10
-70.53535169363951
 20
-10.169602997541446
 11
-70.09021951096234
 21
-12.884789194167709
  0
LINE
  8
0
 10
-70.09021951096234
 20
-12.884789194167709
 11
-70.17356679433892
 21
-12.991360609259557
  0
LINE
  8
0
 10
-70.17356679433892
 20
-12.991360609259557
 11
-70.35643157545867
 21
-13.105264161997557
  0
LINE
  8
0
 10
-70.35643157545867
 20
-13.105264161997557
 11
-70.63932713271822
 21
-13.219439584019561
  0
LINE
  8
0
 10
-70.63932713271822
 20
-13.219439584019561
 11
-71.02664650493583
 21
-13.33904005764478
  0
LINE
  8
0
 10
-71.02664650493583
 20
-13.33904005764478
 11
-71.39483660177567
 21
-13.467467470809568
  0
LINE
  8
0
 10
-71.39483660177567
 20
-13.467467470809568
 11
-71.84519051935303
 21
-13.643036038032548
  0
LINE
  8
0
 10
-71.84519051935303
 20
-13.643036038032548
 11
-72.3746710044058
 21
-13.871801587297925
  0
LINE
  8
0
 10
-72.3746710044058
 20
-13.871801587297925
 11
-72.97991234080938
 21
-14.159658037109802
  0
LINE
  8
0
 10
-72.97991234080938
 20
-14.159658037109802
 11
-73.65722822600455
 21
-14.512321638517712
  0
LINE
  8
0
 10
-73.65722822600455
 20
-14.512321638517712
 11
-74.40262035460707
 21
-14.935315579983422
  0
LINE
  8
0
 10
-74.40262035460707
 20
-14.935315579983422
 11
-74.81088561693048
 21
-15.186904019140178
  0
LINE
  8
0
 10
-74.81088561693048
 20
-15.186904019140178
 11
-74.60831470387865
 21
-16.42253192554809
  0
LINE
  8
0
 10
-74.60831470387865
 20
-16.42253192554809
 11
-74.2733363938204
 21
-17.629014759946976
  0
LINE
  8
0
 10
-74.2733363938204
 20
-17.629014759946976
 11
-73.79716563334969
 21
-17.68592410900377
  0
LINE
  8
0
 10
-73.79716563334969
 20
-17.68592410900377
 11
-72.94305551336632
 21
-17.75684098175879
  0
LINE
  8
0
 10
-72.94305551336632
 20
-17.75684098175879
 11
-72.18026066186229
 21
-17.79251223930215
  0
LINE
  8
0
 10
-72.18026066186229
 20
-17.79251223930215
 11
-71.51009071588379
 21
-17.799629436574865
  0
LINE
  8
0
 10
-71.51009071588379
 20
-17.799629436574865
 11
-70.93349108150545
 21
-17.78492834079315
  0
LINE
  8
0
 10
-70.93349108150545
 20
-17.78492834079315
 11
-70.4510416078072
 21
-17.75517135503724
  0
LINE
  8
0
 10
-70.4510416078072
 20
-17.75517135503724
 11
-70.06295605502252
 21
-17.717129909471474
  0
LINE
  8
0
 10
-70.06295605502252
 20
-17.717129909471474
 11
-69.66121557781496
 21
-17.663045176297448
  0
LINE
  8
0
 10
-69.66121557781496
 20
-17.663045176297448
 11
-69.35652550833925
 21
-17.64788322148006
  0
LINE
  8
0
 10
-69.35652550833925
 20
-17.64788322148006
 11
-69.14273506744733
 21
-17.674476357512592
  0
LINE
  8
0
 10
-69.14273506744733
 20
-17.674476357512592
 11
-69.02234294602374
 21
-17.73620133835053
  0
LINE
  8
0
 10
-69.02234294602374
 20
-17.73620133835053
 11
-68.28625688085594
 21
-20.387343742498313
  0
LINE
  8
0
 10
-68.28625688085594
 20
-20.387343742498313
 11
-68.35759318209449
 21
-20.502301857855752
  0
LINE
  8
0
 10
-68.35759318209449
 20
-20.502301857855752
 11
-68.52707086171534
 21
-20.635308863726305
  0
LINE
  8
0
 10
-68.52707086171534
 20
-20.635308863726305
 11
-68.79596353854024
 21
-20.779401374499898
  0
LINE
  8
0
 10
-68.79596353854024
 20
-20.779401374499898
 11
-69.16808134219154
 21
-20.94017733536511
  0
LINE
  8
0
 10
-69.16808134219154
 20
-20.94017733536511
 11
-69.52022764705828
 21
-21.10766025339511
  0
LINE
  8
0
 10
-69.52022764705828
 20
-21.10766025339511
 11
-69.94895926952083
 21
-21.33089145366652
  0
LINE
  8
0
 10
-69.94895926952083
 20
-21.33089145366652
 11
-70.45060201064852
 21
-21.61556287979904
  0
LINE
  8
0
 10
-70.45060201064852
 20
-21.61556287979904
 11
-71.02117263960548
 21
-21.96717000197027
  0
LINE
  8
0
 10
-71.02117263960548
 20
-21.96717000197027
 11
-71.65638842764353
 21
-22.39099700290687
  0
LINE
  8
0
 10
-71.65638842764353
 20
-22.39099700290687
 11
-72.35167734590082
 21
-22.892102401049705
  0
LINE
  8
0
 10
-72.35167734590082
 20
-22.892102401049705
 11
-72.7303478446757
 21
-23.18635725741567
  0
LINE
  8
0
 10
-72.7303478446757
 20
-23.18635725741567
 11
-72.39536953461743
 21
-24.392840091814538
  0
LINE
  8
0
 10
-72.39536953461743
 20
-24.392840091814538
 11
-71.93191114196458
 21
-25.556032946068864
  0
LINE
  8
0
 10
-71.93191114196458
 20
-25.556032946068864
 11
-71.45237873193436
 21
-25.561125574858867
  0
LINE
  8
0
 10
-71.45237873193436
 20
-25.561125574858867
 11
-70.59560797939724
 21
-25.53928118206876
  0
LINE
  8
0
 10
-70.59560797939724
 20
-25.53928118206876
 11
-69.83342792264365
 21
-25.492270702568593
  0
LINE
  8
0
 10
-69.83342792264365
 20
-25.492270702568593
 11
-69.16641703721926
 21
-25.426888061789533
  0
LINE
  8
0
 10
-69.16641703721926
 20
-25.426888061789533
 11
-68.59478692264811
 21
-25.349931757968577
  0
LINE
  8
0
 10
-68.59478692264811
 20
-25.349931757968577
 11
-68.11838288452674
 21
-25.268187245402725
  0
LINE
  8
0
 10
-68.11838288452674
 20
-25.268187245402725
 11
-67.73668530963424
 21
-25.18840937138918
  0
LINE
  8
0
 10
-67.73668530963424
 20
-25.18840937138918
 11
-67.34314744057939
 21
-25.091205899181467
  0
LINE
  8
0
 10
-67.34314744057939
 20
-25.091205899181467
 11
-67.04188277301782
 21
-25.043190033157607
  0
LINE
  8
0
 10
-67.04188277301782
 20
-25.043190033157607
 11
-66.82647035708577
 21
-25.04651246646966
  0
LINE
  8
0
 10
-66.82647035708577
 20
-25.04651246646966
 11
-66.7001103350958
 21
-25.094858934830988
  0
LINE
  8
0
 10
-66.7001103350958
 20
-25.094858934830988
 11
-65.68170032354153
 21
-27.650875325774276
  0
LINE
  8
0
 10
-65.68170032354153
 20
-27.650875325774276
 11
-65.74018928973348
 21
-27.772872362601944
  0
LINE
  8
0
 10
-65.74018928973348
 20
-27.772872362601944
 11
-65.89429289701675
 21
-27.92342343607069
  0
LINE
  8
0
 10
-65.89429289701675
 20
-27.92342343607069
 11
-66.14603017262215
 21
-28.09574368265208
  0
LINE
  8
0
 10
-66.14603017262215
 20
-28.09574368265208
 11
-66.49858366668994
 21
-28.295810179615007
  0
LINE
  8
0
 10
-66.49858366668994
 20
-28.295810179615007
 11
-66.8305575861294
 21
-28.500385018427412
  0
LINE
  8
0
 10
-66.8305575861294
 20
-28.500385018427412
 11
-67.23264042719687
 21
-28.768661670026304
  0
LINE
  8
0
 10
-67.23264042719687
 20
-28.768661670026304
 11
-67.70056412191607
 21
-29.10590146083212
  0
LINE
  8
0
 10
-67.70056412191607
 20
-29.10590146083212
 11
-68.2297746244796
 21
-29.517136983332712
  0
LINE
  8
0
 10
-68.2297746244796
 20
-29.517136983332712
 11
-68.81544299102912
 21
-30.007158399720748
  0
LINE
  8
0
 10
-68.81544299102912
 20
-30.007158399720748
 11
-69.45247707208334
 21
-30.580500251912508
  0
LINE
  8
0
 10
-69.45247707208334
 20
-30.580500251912508
 11
-69.79711324193325
 21
-30.91397165633655
  0
LINE
  8
0
 10
-69.79711324193325
 20
-30.91397165633655
 11
-69.33365484928032
 21
-32.07716451059086
  0
LINE
  8
0
 10
-69.33365484928032
 20
-32.07716451059086
 11
-68.74714999994265
 21
-33.18343001200184
  0
LINE
  8
0
 10
-68.74714999994265
 20
-33.18343001200184
 11
-68.26987801941996
 21
-33.136646214108765
  0
LINE
  8
0
 10
-68.26987801941996
 20
-33.136646214108765
 11
-67.42049148804965
 21
-33.02229666130647
  0
LINE
  8
0
 10
-67.42049148804965
 20
-33.02229666130647
 11
-66.66786209034403
 21
-32.89315559965282
  0
LINE
  8
0
 10
-66.66786209034403
 20
-32.89315559965282
 11
-66.01183035825152
 21
-32.7560396725052
  0
LINE
  8
0
 10
-66.01183035825152
 20
-32.7560396725052
 11
-65.45187160393448
 21
-32.61773040294549
  0
LINE
  8
0
 10
-65.45187160393448
 20
-32.61773040294549
 11
-64.98709840315658
 21
-32.48495674323981
  0
LINE
  8
0
 10
-64.98709840315658
 20
-32.48495674323981
 11
-64.61626386123248
 21
-32.3643777634097
  0
LINE
  8
0
 10
-64.61626386123248
 20
-32.3643777634097
 11
-64.23554247202989
 21
-32.22519517400595
  0
LINE
  8
0
 10
-64.23554247202989
 20
-32.22519517400595
 11
-63.94123525916074
 21
-32.14488833890342
  0
LINE
  8
0
 10
-63.94123525916074
 20
-32.14488833890342
 11
-63.72672638181188
 21
-32.12490111700214
  0
LINE
  8
0
 10
-63.72672638181188
 20
-32.12490111700214
 11
-63.595879914981296
 21
-32.159302254748916
  0
LINE
  8
0
 10
-63.595879914981296
 20
-32.159302254748916
 11
-62.3070858832849
 21
-34.59022567729197
  0
LINE
  8
0
 10
-62.3070858832849
 20
-34.59022567729197
 11
-62.35204178477859
 21
-34.71783133187601
  0
LINE
  8
0
 10
-62.35204178477859
 20
-34.71783133187601
 11
-62.488964595827206
 21
-34.88416139925669
  0
LINE
  8
0
 10
-62.488964595827206
 20
-34.88416139925669
 11
-62.7205950808222
 21
-35.082689084308626
  0
LINE
  8
0
 10
-62.7205950808222
 20
-35.082689084308626
 11
-63.04945089793123
 21
-35.31970052061491
  0
LINE
  8
0
 10
-63.04945089793123
 20
-35.31970052061491
 11
-63.35736034126467
 21
-35.558968827269204
  0
LINE
  8
0
 10
-63.35736034126467
 20
-35.558968827269204
 11
-63.72808034725337
 21
-35.869145631743265
  0
LINE
  8
0
 10
-63.72808034725337
 20
-35.869145631743265
 11
-64.15679901807022
 21
-36.254999959016466
  0
LINE
  8
0
 10
-64.15679901807022
 20
-36.254999959016466
 11
-64.63844488495954
 21
-36.72104252134132
  0
LINE
  8
0
 10
-64.63844488495954
 20
-36.72104252134132
 11
-65.16769940390441
 21
-37.271513300104495
  0
LINE
  8
0
 10
-65.16769940390441
 20
-37.271513300104495
 11
-65.73901000560103
 21
-37.91036969733969
  0
LINE
  8
0
 10
-65.73901000560103
 20
-37.91036969733969
 11
-66.04557130253838
 21
-38.27914800250079
  0
LINE
  8
0
 10
-66.04557130253838
 20
-38.27914800250079
 11
-65.4590664532007
 21
-39.38541350391166
  0
LINE
  8
0
 10
-65.4590664532007
 20
-39.38541350391166
 11
-64.7563913802902
 21
-40.42178170094342
  0
LINE
  8
0
 10
-64.7563913802902
 20
-40.42178170094342
 11
-64.28697540687266
 21
-40.3236699736227
  0
LINE
  8
0
 10
-64.28697540687266
 20
-40.3236699736227
 11
-63.454931377147936
 21
-40.11815590476404
  0
LINE
  8
0
 10
-63.454931377147936
 20
-40.11815590476404
 11
-62.72067653004278
 21
-39.908398321830006
  0
LINE
  8
0
 10
-62.72067653004278
 20
-39.908398321830006
 11
-62.08331532352538
 21
-39.701156667193345
  0
LINE
  8
0
 10
-62.08331532352538
 20
-39.701156667193345
 11
-61.541592933881674
 21
-39.50311598162308
  0
LINE
  8
0
 10
-61.541592933881674
 20
-39.50311598162308
 11
-61.093899611280165
 21
-39.32086982454152
  0
LINE
  8
0
 10
-61.093899611280165
 20
-39.32086982454152
 11
-60.73827579827127
 21
-39.16090341718692
  0
LINE
  8
0
 10
-60.73827579827127
 20
-39.16090341718692
 11
-60.374834499112474
 21
-38.98137349919204
  0
LINE
  8
0
 10
-60.374834499112474
 20
-38.98137349919204
 11
-60.090935223918954
 21
-38.869717219227184
  0
LINE
  8
0
 10
-60.090935223918954
 20
-38.869717219227184
 11
-59.879844805612876
 21
-38.826654674014875
  0
LINE
  8
0
 10
-59.879844805612876
 20
-38.826654674014875
 11
-59.74604594913121
 21
-38.84670715926027
  0
LINE
  8
0
 10
-59.74604594913121
 20
-38.84670715926027
 11
-58.2019778289587
 21
-41.124037258888265
  0
LINE
  8
0
 10
-58.2019778289587
 20
-41.124037258888265
 11
-58.23287359891269
 21
-41.255755471599656
  0
LINE
  8
0
 10
-58.23287359891269
 20
-41.255755471599656
 11
-58.35101031895681
 21
-41.43591446492924
  0
LINE
  8
0
 10
-58.35101031895681
 20
-41.43591446492924
 11
-58.559818357686616
 21
-41.65832203286008
  0
LINE
  8
0
 10
-58.559818357686616
 20
-41.65832203286008
 11
-58.86112096405702
 21
-41.92949966612067
  0
LINE
  8
0
 10
-58.86112096405702
 20
-41.92949966612067
 11
-59.14135597458565
 21
-42.200656238486424
  0
LINE
  8
0
 10
-59.14135597458565
 20
-42.200656238486424
 11
-59.476366792377895
 21
-42.54909665640055
  0
LINE
  8
0
 10
-59.476366792377895
 20
-42.54909665640055
 11
-59.86085410485828
 21
-42.979041730943834
  0
LINE
  8
0
 10
-59.86085410485828
 20
-42.979041730943834
 11
-60.289288478657134
 21
-43.49442741015647
  0
LINE
  8
0
 10
-60.289288478657134
 20
-43.49442741015647
 11
-60.75592412466476
 21
-44.098893784714015
  0
LINE
  8
0
 10
-60.75592412466476
 20
-44.098893784714015
 11
-61.25481315255315
 21
-44.79577471984703
  0
LINE
  8
0
 10
-61.25481315255315
 20
-44.79577471984703
 11
-61.51970542566298
 21
-45.19553633729437
  0
LINE
  8
0
 10
-61.51970542566298
 20
-45.19553633729437
 11
-60.81703035275243
 21
-46.231904534326105
  0
LINE
  8
0
 10
-60.81703035275243
 20
-46.231904534326105
 11
-60.006423279036994
 21
-47.18622495742894
  0
LINE
  8
0
 10
-60.006423279036994
 20
-47.18622495742894
 11
-59.55036678582187
 21
-47.03793557097902
  0
LINE
  8
0
 10
-59.55036678582187
 20
-47.03793557097902
 11
-58.74542021324617
 21
-46.74366645061805
  0
LINE
  8
0
 10
-58.74542021324617
 20
-46.74366645061805
 11
-58.03814838348816
 21
-46.45575156228035
  0
LINE
  8
0
 10
-58.03814838348816
 20
-46.45575156228035
 11
-57.42693017994739
 21
-46.1808138990724
  0
LINE
  8
0
 10
-57.42693017994739
 20
-46.1808138990724
 11
-56.90979535469408
 21
-45.92536364345958
  0
LINE
  8
0
 10
-56.90979535469408
 20
-45.92536364345958
 11
-56.48443070514656
 21
-45.69578165856465
  0
LINE
  8
0
 10
-56.48443070514656
 20
-45.69578165856465
 11
-56.14818698511044
 21
-45.49830328355313
  0
LINE
  8
0
 10
-56.14818698511044
 20
-45.49830328355313
 11
-55.80628679293052
 21
-45.28053086110984
  0
LINE
  8
0
 10
-55.80628679293052
 20
-45.28053086110984
 11
-55.536123914842705
 21
-45.13883420407693
  0
LINE
  8
0
 10
-55.536123914842705
 20
-45.13883420407693
 11
-55.33092679773223
 21
-45.07320120452374
  0
LINE
  8
0
 10
-55.33092679773223
 20
-45.07320120452374
 11
-55.195744220858266
 21
-45.07866994021243
  0
LINE
  8
0
 10
-55.195744220858266
 20
-45.07866994021243
 11
-53.41450479916371
 21
-47.17570710368999
  0
LINE
  8
0
 10
-53.41450479916371
 20
-47.17570710368999
 11
-53.430978212923584
 21
-47.30999359891579
  0
LINE
  8
0
 10
-53.430978212923584
 20
-47.30999359891579
 11
-53.528943796934115
 21
-47.50186931871844
  0
LINE
  8
0
 10
-53.528943796934115
 20
-47.50186931871844
 11
-53.71248130605964
 21
-47.74554924414337
  0
LINE
  8
0
 10
-53.71248130605964
 20
-47.74554924414337
 11
-53.98269820411534
 21
-48.04771376454835
  0
LINE
  8
0
 10
-53.98269820411534
 20
-48.04771376454835
 11
-54.231973282562016
 21
-48.34757953973539
  0
LINE
  8
0
 10
-54.231973282562016
 20
-48.34757953973539
 11
-54.5273472166225
 21
-48.730198425771654
  0
LINE
  8
0
 10
-54.5273472166225
 20
-48.730198425771654
 11
-54.86309540856769
 21
-49.19919353468853
  0
LINE
  8
0
 10
-54.86309540856769
 20
-49.19919353468853
 11
-55.233295287964566
 21
-49.7578799049218
  0
LINE
  8
0
 10
-55.233295287964566
 20
-49.7578799049218
 11
-55.631841184734554
 21
-50.40925505970091
  0
LINE
  8
0
 10
-55.631841184734554
 20
-50.40925505970091
 11
-56.0524596211013
 21
-51.15599024093164
  0
LINE
  8
0
 10
-56.0524596211013
 20
-51.15599024093164
 11
-56.27257725067469
 21
-51.58204833120617
  0
LINE
  8
0
 10
-56.27257725067469
 20
-51.58204833120617
 11
-55.461970176959234
 21
-52.53636875430901
  0
LINE
  8
0
 10
-55.461970176959234
 20
-52.53636875430901
 11
-54.55293472923311
 21
-53.39745286906554
  0
LINE
  8
0
 10
-54.55293472923311
 20
-53.39745286906554
 11
-54.115584561626896
 21
-53.20072438096025
  0
LINE
  8
0
 10
-54.115584561626896
 20
-53.20072438096025
 11
-53.347172708793984
 21
-52.82115024548038
  0
LINE
  8
0
 10
-53.347172708793984
 20
-52.82115024548038
 11
-52.67517601192225
 21
-52.458453590561675
  0
LINE
  8
0
 10
-52.67517601192225
 20
-52.458453590561675
 11
-52.09726678595248
 21
-52.11904331150566
  0
LINE
  8
0
 10
-52.09726678595248
 20
-52.11904331150566
 11
-51.61078245809478
 21
-51.80917840653696
  0
LINE
  8
0
 10
-51.61078245809478
 20
-51.80917840653696
 11
-51.212733493202585
 21
-51.53495223269274
  0
LINE
  8
0
 10
-51.212733493202585
 20
-51.53495223269274
 11
-50.899812016326095
 21
-51.302277143415104
  0
LINE
  8
0
 10
-50.899812016326095
 20
-51.302277143415104
 11
-50.58346139827604
 21
-51.048815399065326
  0
LINE
  8
0
 10
-50.58346139827604
 20
-51.048815399065326
 11
-50.330202330027234
 21
-50.87873962871358
  0
LINE
  8
0
 10
-50.330202330027234
 20
-50.87873962871358
 11
-50.13330426269697
 21
-50.79130566173046
  0
LINE
  8
0
 10
-50.13330426269697
 20
-50.79130566173046
 11
-49.998322857545936
 21
-50.7821265319366
  0
LINE
  8
0
 10
-49.998322857545936
 20
-50.7821265319366
 11
-48.00079553794598
 21
-52.6742849158613
  0
LINE
  8
0
 10
-48.00079553794598
 20
-52.6742849158613
 11
-48.00265345979718
 21
-52.809565307224304
  0
LINE
  8
0
 10
-48.00265345979718
 20
-52.809565307224304
 11
-48.07929935087239
 21
-53.01090818611899
  0
LINE
  8
0
 10
-48.07929935087239
 20
-53.01090818611899
 11
-48.235414520909075
 21
-53.273003544711074
  0
LINE
  8
0
 10
-48.235414520909075
 20
-53.273003544711074
 11
-48.47137766458203
 21
-53.602612349530354
  0
LINE
  8
0
 10
-48.47137766458203
 20
-53.602612349530354
 11
-48.68677028856634
 21
-53.927671675494516
  0
LINE
  8
0
 10
-48.68677028856634
 20
-53.927671675494516
 11
-48.93904434958118
 21
-54.33998317304592
  0
LINE
  8
0
 10
-48.93904434958118
 20
-54.33998317304592
 11
-49.222117080418116
 21
-54.84252977749066
  0
LINE
  8
0
 10
-49.222117080418116
 20
-54.84252977749066
 11
-49.52974221030405
 21
-55.437966751865396
  0
LINE
  8
0
 10
-49.52974221030405
 20
-55.437966751865396
 11
-49.85552577159076
 21
-56.128613908734266
  0
LINE
  8
0
 10
-49.85552577159076
 20
-56.128613908734266
 11
-50.19294224984457
 21
-56.91644854880926
  0
LINE
  8
0
 10
-50.19294224984457
 20
-56.91644854880926
 11
-50.365704557930265
 21
-57.36380797035114
  0
LINE
  8
0
 10
-50.365704557930265
 20
-57.36380797035114
 11
-49.456669110204146
 21
-58.224892085107626
  0
LINE
  8
0
 10
-49.456669110204146
 20
-58.224892085107626
 11
-48.459862897952846
 21
-58.98264446756905
  0
LINE
  8
0
 10
-48.459862897952846
 20
-58.98264446756905
 11
-48.04634658679769
 21
-58.73978333946086
  0
LINE
  8
0
 10
-48.04634658679769
 20
-58.73978333946086
 11
-47.323478380116384
 21
-58.27935434855266
  0
LINE
  8
0
 10
-47.323478380116384
 20
-58.27935434855266
 11
-46.6946353629893
 21
-57.84612821371514
  0
LINE
  8
0
 10
-46.6946353629893
 20
-57.84612821371514
 11
-46.15681057187759
 21
-57.44622459400721
  0
LINE
  8
0
 10
-46.15681057187759
 20
-57.44622459400721
 11
-45.70668032536277
 21
-57.08557792238119
  0
LINE
  8
0
 10
-45.70668032536277
 20
-57.08557792238119
 11
-45.340613805299625
 21
-56.76992261074864
  0
LINE
  8
0
 10
-45.340613805299625
 20
-56.76992261074864
 11
-45.05468328979231
 21
-56.5047787098898
  0
LINE
  8
0
 10
-45.05468328979231
 20
-56.5047787098898
 11
-44.76759116762663
 21
-56.21859925084376
  0
LINE
  8
0
 10
-44.76759116762663
 20
-56.21859925084376
 11
-44.534205140235066
 21
-56.0221383500788
  0
LINE
  8
0
 10
-44.534205140235066
 20
-56.0221383500788
 11
-44.347914572498844
 21
-55.913928498986984
  0
LINE
  8
0
 10
-44.347914572498844
 20
-55.913928498986984
 11
-44.21471687263147
 21
-55.890209120614834
  0
LINE
  8
0
 10
-44.21471687263147
 20
-55.890209120614834
 11
-42.02432083659178
 21
-57.555304897952084
  0
LINE
  8
0
 10
-42.02432083659178
 20
-57.555304897952084
 11
-42.011541484099304
 21
-57.68999314655161
  0
LINE
  8
0
 10
-42.011541484099304
 20
-57.68999314655161
 11
-42.06596907924435
 21
-57.898442623372816
  0
LINE
  8
0
 10
-42.06596907924435
 20
-57.898442623372816
 11
-42.192831602560965
 21
-58.175880586688656
  0
LINE
  8
0
 10
-42.192831602560965
 20
-58.175880586688656
 11
-42.39177453973477
 21
-58.52906931404992
  0
LINE
  8
0
 10
-42.39177453973477
 20
-58.52906931404992
 11
-42.57075942767585
 21
-58.875511167398855
  0
LINE
  8
0
 10
-42.57075942767585
 20
-58.875511167398855
 11
-42.77697593293602
 21
-59.3126813011366
  0
LINE
  8
0
 10
-42.77697593293602
 20
-59.3126813011366
 11
-43.0040544337115
 21
-59.842887501654836
  0
LINE
  8
0
 10
-43.0040544337115
 20
-59.842887501654836
 11
-43.24549819070294
 21
-60.46809412605971
  0
LINE
  8
0
 10
-43.24549819070294
 20
-60.46809412605971
 11
-43.494699902117034
 21
-61.18991607856877
  0
LINE
  8
0
 10
-43.494699902117034
 20
-61.18991607856877
 11
-43.7449585225532
 21
-62.00961353665723
  0
LINE
  8
0
 10
-43.7449585225532
 20
-62.00961353665723
 11
-43.868340029046955
 21
-62.473029409273515
  0
LINE
  8
0
 10
-43.868340029046955
 20
-62.473029409273515
 11
-42.871533816795655
 21
-63.230781791734906
  0
LINE
  8
0
 10
-42.871533816795655
 20
-63.230781791734906
 11
-41.79864348146927
 21
-63.876318488036475
  0
LINE
  8
0
 10
-41.79864348146927
 20
-63.876318488036475
 11
-41.41380912743184
 21
-63.59017204460239
  0
LINE
  8
0
 10
-41.41380912743184
 20
-63.59017204460239
 11
-40.74495953570078
 21
-63.054286307210006
  0
LINE
  8
0
 10
-40.74495953570078
 20
-63.054286307210006
 11
-40.1666428077375
 21
-62.55560987278224
  0
LINE
  8
0
 10
-40.1666428077375
 20
-62.55560987278224
 11
-39.67520795542174
 21
-62.09990141672811
  0
LINE
  8
0
 10
-39.67520795542174
 20
-62.09990141672811
 11
-39.266709155832174
 21
-61.692701230927184
  0
LINE
  8
0
 10
-39.266709155832174
 20
-61.692701230927184
 11
-38.93691687584801
 21
-61.33931755142878
  0
LINE
  8
0
 10
-38.93691687584801
 20
-61.33931755142878
 11
-38.68132959557542
 21
-61.04481340880294
  0
LINE
  8
0
 10
-38.68132959557542
 20
-61.04481340880294
 11
-38.426861861935684
 21
-60.72927142756156
  0
LINE
  8
0
 10
-38.426861861935684
 20
-60.72927142756156
 11
-38.21608511318565
 21
-60.50872872081894
  0
LINE
  8
0
 10
-38.21608511318565
 20
-60.50872872081894
 11
-38.04258613162308
 21
-60.381011647185254
  0
LINE
  8
0
 10
-38.04258613162308
 20
-60.381011647185254
 11
-37.9127337582865
 21
-60.34303010825942
  0
LINE
  8
0
 10
-37.9127337582865
 20
-60.34303010825942
 11
-35.55514939663144
 21
-61.76154155343151
  0
LINE
  8
0
 10
-35.55514939663144
 20
-61.76154155343151
 11
-35.527882596019
 21
-61.89405856269936
  0
LINE
  8
0
 10
-35.527882596019
 20
-61.89405856269936
 11
-35.55945378144442
 21
-62.10717075791856
  0
LINE
  8
0
 10
-35.55945378144442
 20
-62.10717075791856
 11
-35.65557631094661
 21
-62.396698619502196
  0
LINE
  8
0
 10
-35.65557631094661
 20
-62.396698619502196
 11
-35.81516661757816
 21
-62.76932645450069
  0
LINE
  8
0
 10
-35.81516661757816
 20
-62.76932645450069
 11
-35.955645335312354
 21
-63.13308912125868
  0
LINE
  8
0
 10
-35.955645335312354
 20
-63.13308912125868
 11
-36.11338658483921
 21
-63.58999247107317
  0
LINE
  8
0
 10
-36.11338658483921
 20
-63.58999247107317
 11
-36.28180856775151
 21
-64.14164208473595
  0
LINE
  8
0
 10
-36.28180856775151
 20
-64.14164208473595
 11
-36.45424024455185
 21
-64.78928838313169
  0
LINE
  8
0
 10
-36.45424024455185
 20
-64.78928838313169
 11
-36.623938443874295
 21
-65.53382242885588
  0
LINE
  8
0
 10
-36.623938443874295
 20
-65.53382242885588
 11
-36.78410515298185
 21
-66.37577250171826
  0
LINE
  8
0
 10
-36.78410515298185
 20
-66.37577250171826
 11
-36.85665932252885
 21
-66.84981169800771
  0
LINE
  8
0
 10
-36.85665932252885
 20
-66.84981169800771
 11
-35.783768987202485
 21
-67.4953483943092
  0
LINE
  8
0
 10
-35.783768987202485
 20
-67.4953483943092
 11
-34.64737318702969
 21
-68.02110107690656
  0
LINE
  8
0
 10
-34.64737318702969
 20
-68.02110107690656
 11
-34.2957326210537
 21
-67.6950241235697
  0
LINE
  8
0
 10
-34.2957326210537
 20
-67.6950241235697
 11
-33.688743294200904
 21
-67.08996440999906
  0
LINE
  8
0
 10
-33.688743294200904
 20
-67.08996440999906
 11
-33.16773309027678
 21
-66.53168420123046
  0
LINE
  8
0
 10
-33.16773309027678
 20
-66.53168420123046
 11
-32.7284498010772
 21
-66.02551367381916
  0
LINE
  8
0
 10
-32.7284498010772
 20
-66.02551367381916
 11
-32.36637172334406
 21
-65.57653402371517
  0
LINE
  8
0
 10
-32.36637172334406
 20
-65.57653402371517
 11
-32.076720196389736
 21
-65.18956507689126
  0
LINE
  8
0
 10
-32.076720196389736
 20
-65.18956507689126
 11
-31.854472678527404
 21
-64.86915348430298
  0
LINE
  8
0
 10
-31.854472678527404
 20
-64.86915348430298
 11
-31.635612734928447
 21
-64.52794842209354
  0
LINE
  8
0
 10
-31.635612734928447
 20
-64.52794842209354
 11
-31.449916429484027
 21
-64.2859095709657
  0
LINE
  8
0
 10
-31.449916429484027
 20
-64.2859095709657
 11
-31.291243151022307
 21
-64.14018264070569
  0
LINE
  8
0
 10
-31.291243151022307
 20
-64.14018264070569
 11
-31.166258504568724
 21
-64.0883842400432
  0
LINE
  8
0
 10
-31.166258504568724
 20
-64.0883842400432
 11
-28.669126338378764
 21
-65.24368060331288
  0
LINE
  8
0
 10
-28.669126338378764
 20
-65.24368060331288
 11
-28.627691767953255
 21
-65.37247273247685
  0
LINE
  8
0
 10
-28.627691767953255
 20
-65.37247273247685
 11
-28.636036400375755
 21
-65.58774910045543
  0
LINE
  8
0
 10
-28.636036400375755
 20
-65.58774910045543
 11
-28.70029198729077
 21
-65.88597241084766
  0
LINE
  8
0
 10
-28.70029198729077
 20
-65.88597241084766
 11
-28.81865861294962
 21
-66.27367063281488
  0
LINE
  8
0
 10
-28.81865861294962
 20
-66.27367063281488
 11
-28.91898417595241
 21
-66.65048932830557
  0
LINE
  8
0
 10
-28.91898417595241
 20
-66.65048932830557
 11
-29.026400797819466
 21
-67.12176912017094
  0
LINE
  8
0
 10
-29.026400797819466
 20
-67.12176912017094
 11
-29.13419166910862
 21
-67.68839455963615
  0
LINE
  8
0
 10
-29.13419166910862
 20
-67.68839455963615
 11
-29.235589661963157
 21
-68.35088747132272
  0
LINE
  8
0
 10
-29.235589661963157
 20
-68.35088747132272
 11
-29.32379479296344
 21
-69.10940462930989
  0
LINE
  8
0
 10
-29.32379479296344
 20
-69.10940462930989
 11
-29.391991782519916
 21
-69.96373622214415
  0
LINE
  8
0
 10
-29.391991782519916
 20
-69.96373622214415
 11
-29.4128679838191
 21
-70.44284106594837
  0
LINE
  8
0
 10
-29.4128679838191
 20
-70.44284106594837
 11
-28.276472183646277
 21
-70.96859374854571
  0
LINE
  8
0
 10
-28.276472183646277
 20
-70.96859374854571
 11
-27.089894120367553
 21
-71.36839844793577
  0
LINE
  8
0
 10
-27.089894120367553
 20
-71.36839844793577
 11
-26.775570006581013
 21
-71.00621393883895
  0
LINE
  8
0
 10
-26.775570006581013
 20
-71.00621393883895
 11
-26.237557339488205
 21
-70.33907402102032
  0
LINE
  8
0
 10
-26.237557339488205
 20
-70.33907402102032
 11
-25.779962027880075
 21
-69.72773536291827
  0
LINE
  8
0
 10
-25.779962027880075
 20
-69.72773536291827
 11
-25.397980496721992
 21
-69.17703715078754
  0
LINE
  8
0
 10
-25.397980496721992
 20
-69.17703715078754
 11
-25.08656817525556
 21
-68.69154191227194
  0
LINE
  8
0
 10
-25.08656817525556
 20
-68.69154191227194
 11
-24.8404533006537
 21
-68.27552455521496
  0
LINE
  8
0
 10
-24.8404533006537
 20
-68.27552455521496
 11
-24.6541511941457
 21
-67.93296204563224
  0
LINE
  8
0
 10
-24.6541511941457
 20
-67.93296204563224
 11
-24.473464973320688
 21
-67.57009421984237
  0
LINE
  8
0
 10
-24.473464973320688
 20
-67.57009421984237
 11
-24.31502623057946
 21
-67.30939690856056
  0
LINE
  8
0
 10
-24.31502623057946
 20
-67.30939690856056
 11
-24.17303895433218
 21
-67.14736863669211
  0
LINE
  8
0
 10
-24.17303895433218
 20
-67.14736863669211
 11
-24.054387365466717
 21
-67.082360663181
  0
LINE
  8
0
 10
-24.054387365466717
 20
-67.082360663181
 11
-21.44698398624072
 21
-67.96089715098648
  0
LINE
  8
0
 10
-21.44698398624072
 20
-67.96089715098648
 11
-21.391867428456397
 21
-68.08445443008789
  0
LINE
  8
0
 10
-21.391867428456397
 20
-68.08445443008789
 11
-21.37688767469039
 21
-68.29937105224033
  0
LINE
  8
0
 10
-21.37688767469039
 20
-68.29937105224033
 11
-21.408522981011092
 21
-68.60279341579499
  0
LINE
  8
0
 10
-21.408522981011092
 20
-68.60279341579499
 11
-21.48427818523503
 21
-69.00101661755427
  0
LINE
  8
0
 10
-21.48427818523503
 20
-69.00101661755427
 11
-21.543274368008742
 21
-69.38647348710163
  0
LINE
  8
0
 10
-21.543274368008742
 20
-69.38647348710163
 11
-21.59910700053656
 21
-69.86660439635348
  0
LINE
  8
0
 10
-21.59910700053656
 20
-69.86660439635348
 11
-21.64500301079083
 21
-70.44156249641397
  0
LINE
  8
0
 10
-21.64500301079083
 20
-70.44156249641397
 11
-21.674178520942423
 21
-71.11113489772488
  0
LINE
  8
0
 10
-21.674178520942423
 20
-71.11113489772488
 11
-21.67985645910629
 21
-71.87474224781649
  0
LINE
  8
0
 10
-21.67985645910629
 20
-71.87474224781649
 11
-21.655284181762237
 21
-72.73143910381947
  0
LINE
  8
0
 10
-21.655284181762237
 20
-72.73143910381947
 11
-21.624237660440684
 21
-73.20999252889469
  0
LINE
  8
0
 10
-21.624237660440684
 20
-73.20999252889469
 11
-20.437659597161957
 21
-73.60979722828463
  0
LINE
  8
0
 10
-20.437659597161957
 20
-73.60979722828463
 11
-19.21481081367053
 21
-73.87896659991189
  0
LINE
  8
0
 10
-19.21481081367053
 20
-73.87896659991189
 11
-18.94148831491834
 21
-73.48492081727585
  0
LINE
  8
0
 10
-18.94148831491834
 20
-73.48492081727585
 11
-18.478760014197512
 21
-72.76352230077377
  0
LINE
  8
0
 10
-18.478760014197512
 20
-72.76352230077377
 11
-18.089944481550592
 21
-72.10629258015224
  0
LINE
  8
0
 10
-18.089944481550592
 20
-72.10629258015224
 11
-17.769743092637793
 21
-71.51752311633116
  0
LINE
  8
0
 10
-17.769743092637793
 20
-71.51752311633116
 11
-17.512647552180265
 21
-71.00120427718302
  0
LINE
  8
0
 10
-17.512647552180265
 20
-71.00120427718302
 11
-17.31295480181059
 21
-70.56101593303613
  0
LINE
  8
0
 10
-17.31295480181059
 20
-70.56101593303613
 11
-17.1647823285181
 21
-70.20031873867596
  0
LINE
  8
0
 10
-17.1647823285181
 20
-70.20031873867596
 11
-17.02438821120321
 21
-69.82004244278986
  0
LINE
  8
0
 10
-17.02438821120321
 20
-69.82004244278986
 11
-16.89506458056189
 21
-69.543743108971
  0
LINE
  8
0
 10
-16.89506458056189
 20
-69.543743108971
 11
-16.77142797752286
 21
-69.3673131288379
  0
LINE
  8
0
 10
-16.77142797752286
 20
-69.3673131288379
 11
-16.660500527640774
 21
-69.28985774153027
  0
LINE
  8
0
 10
-16.660500527640774
 20
-69.28985774153027
 11
-13.973395356028524
 21
-69.88133431680558
  0
LINE
  8
0
 10
-13.973395356028524
 20
-69.88133431680558
 11
-13.90524300213186
 21
-69.99820814971645
  0
LINE
  8
0
 10
-13.90524300213186
 20
-69.99820814971645
 11
-13.867114486094136
 21
-70.2102453251482
  0
LINE
  8
0
 10
-13.867114486094136
 20
-70.2102453251482
 11
-13.865758616778345
 21
-70.5153093920743
  0
LINE
  8
0
 10
-13.865758616778345
 20
-70.5153093920743
 11
-13.898014239061492
 21
-70.91938877068392
  0
LINE
  8
0
 10
-13.898014239061492
 20
-70.91938877068392
 11
-13.91498936530383
 21
-71.30896468491912
  0
LINE
  8
0
 10
-13.91498936530383
 20
-71.30896468491912
 11
-13.918583421924277
 21
-71.79231761563435
  0
LINE
  8
0
 10
-13.918583421924277
 20
-71.79231761563435
 11
-13.902046482386561
 21
-72.3688675182561
  0
LINE
  8
0
 10
-13.902046482386561
 20
-72.3688675182561
 11
-13.8586574536541
 21
-73.03766928498187
  0
LINE
  8
0
 10
-13.8586574536541
 20
-73.03766928498187
 11
-13.781741630347964
 21
-73.79741422917095
  0
LINE
  8
0
 10
-13.781741630347964
 20
-73.79741422917095
 11
-13.6646881735886
 21
-74.64643236099145
  0
LINE
  8
0
 10
-13.6646881735886
 20
-74.64643236099145
 11
-13.582082921722694
 21
-75.11882376597417
  0
LINE
  8
0
 10
-13.582082921722694
 20
-75.11882376597417
 11
-12.35923413823129
 21
-75.38799313760133
  0
LINE
  8
0
 10
-12.35923413823129
 20
-75.38799313760133
 11
-11.114451418452292
 21
-75.52337141668733
  0
LINE
  8
0
 10
-11.114451418452292
 20
-75.52337141668733
 11
-10.885334991131172
 21
-75.10208418703401
  0
LINE
  8
0
 10
-10.885334991131172
 20
-75.10208418703401
 11
-10.503316123031748
 21
-74.33488480987354
  0
LINE
  8
0
 10
-10.503316123031748
 20
-74.33488480987354
 11
-10.187838875968897
 21
-73.63946944429597
  0
LINE
  8
0
 10
-10.187838875968897
 20
-73.63946944429597
 11
-9.933171697823466
 21
-73.01953151243076
  0
LINE
  8
0
 10
-9.933171697823466
 20
-73.01953151243076
 11
-9.733407148522009
 21
-72.47844243896428
  0
LINE
  8
0
 10
-9.733407148522009
 20
-72.47844243896428
 11
-9.582477737301787
 21
-72.0192439135946
  0
LINE
  8
0
 10
-9.582477737301787
 20
-72.0192439135946
 11
-9.474172083998775
 21
-71.64464087927223
  0
LINE
  8
0
 10
-9.474172083998775
 20
-71.64464087927223
 11
-9.375716062855954
 21
-71.25141450516921
  0
LINE
  8
0
 10
-9.375716062855954
 20
-71.25141450516921
 11
-9.277023745642094
 21
-70.96275250587946
  0
LINE
  8
0
 10
-9.277023745642094
 20
-70.96275250587946
 11
-9.173187341939913
 21
-70.77398929768731
  0
LINE
  8
0
 10
-9.173187341939913
 20
-70.77398929768731
 11
-9.071284553969141
 21
-70.68499459018116
  0
LINE
  8
0
 10
-9.071284553969141
 20
-70.68499459018116
 11
-6.335981441264102
 21
-70.98247673087342
  0
LINE
  8
0
 10
-6.335981441264102
 20
-70.98247673087342
 11
-6.255592315292246
 21
-71.09129687876164
  0
LINE
  8
0
 10
-6.255592315292246
 20
-71.09129687876164
 11
-6.194762058972109
 21
-71.29796866545817
  0
LINE
  8
0
 10
-6.194762058972109
 20
-71.29796866545817
 11
-6.160430910347875
 21
-71.60109783849376
  0
LINE
  8
0
 10
-6.160430910347875
 20
-71.60109783849376
 11
-6.148808783010557
 21
-72.00629593269284
  0
LINE
  8
0
 10
-6.148808783010557
 20
-72.00629593269284
 11
-6.123563834886833
 21
-72.3954234702141
  0
LINE
  8
0
 10
-6.123563834886833
 20
-72.3954234702141
 11
-6.074877178572114
 21
-72.87633155121388
  0
LINE
  8
0
 10
-6.074877178572114
 20
-72.87633155121388
 11
-5.9961011697386235
 21
-73.44771373593325
  0
LINE
  8
0
 10
-5.9961011697386235
 20
-73.44771373593325
 11
-5.880656298813036
 21
-74.10790377885033
  0
LINE
  8
0
 10
-5.880656298813036
 20
-74.10790377885033
 11
-5.722048481740353
 21
-74.85487900230768
  0
LINE
  8
0
 10
-5.722048481740353
 20
-74.85487900230768
 11
-5.513886190323181
 21
-75.68626444861476
  0
LINE
  8
0
 10
-5.513886190323181
 20
-75.68626444861476
 11
-5.380690678964349
 21
-76.14695547619314
  0
LINE
  8
0
 10
-5.380690678964349
 20
-76.14695547619314
 11
-4.135907959185328
 21
-76.2823337552791
  0
LINE
  8
0
 10
-4.135907959185328
 20
-76.2823337552791
 11
-2.8837852423924883
 21
-76.28233375527915
  0
LINE
  8
0
 10
-2.8837852423924883
 20
-76.28233375527915
 11
-2.701561067129621
 21
-75.83874428618962
  0
LINE
  8
0
 10
-2.701561067129621
 20
-75.83874428618962
 11
-2.4047304535968888
 21
-75.03473875961087
  0
LINE
  8
0
 10
-2.4047304535968888
 20
-75.03473875961087
 11
-2.1662901743963197
 21
-74.3092908584143
  0
LINE
  8
0
 10
-2.1662901743963197
 20
-74.3092908584143
 11
-1.980142946837589
 21
-73.66545266394145
  0
LINE
  8
0
 10
-1.980142946837589
 20
-73.66545266394145
 11
-1.8400514453862904
 21
-73.10593713082058
  0
LINE
  8
0
 10
-1.8400514453862904
 20
-73.10593713082058
 11
-1.7396548826660028
 21
-72.63311210708882
  0
LINE
  8
0
 10
-1.7396548826660028
 20
-72.63311210708882
 11
-1.6724858341126434
 21
-72.24899511087887
  0
LINE
  8
0
 10
-1.6724858341126434
 20
-72.24899511087887
 11
-1.617122215970598
 21
-71.84742887826499
  0
LINE
  8
0
 10
-1.617122215970598
 20
-71.84742887826499
 11
-1.5502182893682792
 21
-71.54978851151985
  0
LINE
  8
0
 10
-1.5502182893682792
 20
-71.54978851151985
 11
-1.4673994718978296
 21
-71.35090515129684
  0
LINE
  8
0
 10
-1.4673994718978296
 20
-71.35090515129684
 11
-1.3757160628567218
 21
-71.25141450516907
  0
LINE
  8
0
 10
-1.3757160628567218
 20
-71.25141450516907
 11
1.3757160628561254
 21
-71.25141450516914
  0
LINE
  8
0
 10
1.3757160628561254
 20
-71.25141450516914
 11
1.4673994719016337
 21
-71.35090515129595
  0
LINE
  8
0
 10
1.4673994719016337
 20
-71.35090515129595
 11
1.5502182893664616
 21
-71.54978851152006
  0
LINE
  8
0
 10
1.5502182893664616
 20
-71.54978851152006
 11
1.6171222159707899
 21
-71.84742887826494
  0
LINE
  8
0
 10
1.6171222159707899
 20
-71.84742887826494
 11
1.6724858341117566
 21
-72.24899511087514
  0
LINE
  8
0
 10
1.6724858341117566
 20
-72.24899511087514
 11
1.7396548826664655
 21
-72.63311210708773
  0
LINE
  8
0
 10
1.7396548826664655
 20
-72.63311210708773
 11
1.8400514453856953
 21
-73.10593713082078
  0
LINE
  8
0
 10
1.8400514453856953
 20
-73.10593713082078
 11
1.980142946836982
 21
-73.66545266394166
  0
LINE
  8
0
 10
1.980142946836982
 20
-73.66545266394166
 11
2.16629017439635
 21
-74.30929085841436
  0
LINE
  8
0
 10
2.16629017439635
 20
-74.30929085841436
 11
2.404730453596911
 21
-75.03473875961089
  0
LINE
  8
0
 10
2.404730453596911
 20
-75.03473875961089
 11
2.7015610671296235
 21
-75.83874428618958
  0
LINE
  8
0
 10
2.7015610671296235
 20
-75.83874428618958
 11
2.8837852423925137
 21
-76.2823337552791
  0
LINE
  8
0
 10
2.8837852423925137
 20
-76.2823337552791
 11
4.135907959185375
 21
-76.28233375527908
  0
LINE
  8
0
 10
4.135907959185375
 20
-76.28233375527908
 11
5.380690678964384
 21
-76.14695547619326
  0
LINE
  8
0
 10
5.380690678964384
 20
-76.14695547619326
 11
5.513886190323187
 21
-75.6862644486148
  0
LINE
  8
0
 10
5.513886190323187
 20
-75.6862644486148
 11
5.722048481740374
 21
-74.85487900230765
  0
LINE
  8
0
 10
5.722048481740374
 20
-74.85487900230765
 11
5.8806562988130615
 21
-74.10790377885029
  0
LINE
  8
0
 10
5.8806562988130615
 20
-74.10790377885029
 11
5.996101169737997
 21
-73.44771373593312
  0
LINE
  8
0
 10
5.996101169737997
 20
-73.44771373593312
 11
6.0748771785715
 21
-72.87633155121374
  0
LINE
  8
0
 10
6.0748771785715
 20
-72.87633155121374
 11
6.1235638348874115
 21
-72.39542347021514
  0
LINE
  8
0
 10
6.1235638348874115
 20
-72.39542347021514
 11
6.148808783010078
 21
-72.00629593269664
  0
LINE
  8
0
 10
6.148808783010078
 20
-72.00629593269664
 11
6.160430910348071
 21
-71.60109783849379
  0
LINE
  8
0
 10
6.160430910348071
 20
-71.60109783849379
 11
6.194762058970278
 21
-71.29796866545814
  0
LINE
  8
0
 10
6.194762058970278
 20
-71.29796866545814
 11
6.2555923152961235
 21
-71.09129687876212
  0
LINE
  8
0
 10
6.2555923152961235
 20
-71.09129687876212
 11
6.335981441263502
 21
-70.9824767308734
  0
LINE
  8
0
 10
6.335981441263502
 20
-70.9824767308734
 11
9.071284553968557
 21
-70.6849945901813
  0
LINE
  8
0
 10
9.071284553968557
 20
-70.6849945901813
 11
9.173187341943597
 21
-70.773989297686
  0
LINE
  8
0
 10
9.173187341943597
 20
-70.773989297686
 11
9.277023745640308
 21
-70.96275250587988
  0
LINE
  8
0
 10
9.277023745640308
 20
-70.96275250587988
 11
9.375716062856139
 21
-71.25141450516914
  0
LINE
  8
0
 10
9.375716062856139
 20
-71.25141450516914
 11
9.474172083997491
 21
-71.64464087926862
  0
LINE
  8
0
 10
9.474172083997491
 20
-71.64464087926862
 11
9.582477737302128
 21
-72.01924391359346
  0
LINE
  8
0
 10
9.582477737302128
 20
-72.01924391359346
 11
9.733407148521437
 21
-72.47844243896456
  0
LINE
  8
0
 10
9.733407148521437
 20
-72.47844243896456
 11
9.933171697822887
 21
-73.01953151243103
  0
LINE
  8
0
 10
9.933171697822887
 20
-73.01953151243103
 11
10.187838875968934
 21
-73.63946944429601
  0
LINE
  8
0
 10
10.187838875968934
 20
-73.63946944429601
 11
10.503316123031773
 21
-74.33488480987354
  0
LINE
  8
0
 10
10.503316123031773
 20
-74.33488480987354
 11
10.885334991131174
 21
-75.10208418703397
  0
LINE
  8
0
 10
10.885334991131174
 20
-75.10208418703397
 11
11.114451418452324
 21
-75.52337141668734
  0
LINE
  8
0
 10
11.114451418452324
 20
-75.52337141668734
 11
12.359234138231274
 21
-75.38799313760137
  0
LINE
  8
0
 10
12.359234138231274
 20
-75.38799313760137
 11
13.58208292172273
 21
-75.11882376597421
  0
LINE
  8
0
 10
13.58208292172273
 20
-75.11882376597421
 11
13.664688173588614
 21
-74.64643236099148
  0
LINE
  8
0
 10
13.664688173588614
 20
-74.64643236099148
 11
13.781741630347986
 21
-73.79741422917093
  0
LINE
  8
0
 10
13.781741630347986
 20
-73.79741422917093
 11
13.858657453654125
 21
-73.03766928498183
  0
LINE
  8
0
 10
13.858657453654125
 20
-73.03766928498183
 11
13.902046482385922
 21
-72.36886751825602
  0
LINE
  8
0
 10
13.902046482385922
 20
-72.36886751825602
 11
13.91858342192365
 21
-71.79231761563427
  0
LINE
  8
0
 10
13.91858342192365
 20
-71.79231761563427
 11
13.914989365304516
 21
-71.30896468492008
  0
LINE
  8
0
 10
13.914989365304516
 20
-71.30896468492008
 11
13.898014239061428
 21
-70.91938877068776
  0
LINE
  8
0
 10
13.898014239061428
 20
-70.91938877068776
 11
13.865758616778544
 21
-70.51530939207431
  0
LINE
  8
0
 10
13.865758616778544
 20
-70.51530939207431
 11
13.867114486092312
 21
-70.21024532514836
  0
LINE
  8
0
 10
13.867114486092312
 20
-70.21024532514836
 11
13.905243002135766
 21
-69.9982081497165
  0
LINE
  8
0
 10
13.905243002135766
 20
-69.9982081497165
 11
13.973395356027922
 21
-69.88133431680563
  0
LINE
  8
0
 10
13.973395356027922
 20
-69.88133431680563
 11
16.660500527640206
 21
-69.28985774153047
  0
LINE
  8
0
 10
16.660500527640206
 20
-69.28985774153047
 11
16.771427977526383
 21
-69.3673131288362
  0
LINE
  8
0
 10
16.771427977526383
 20
-69.3673131288362
 11
16.895064580560163
 21
-69.54374310897163
  0
LINE
  8
0
 10
16.895064580560163
 20
-69.54374310897163
 11
17.024388211203384
 21
-69.82004244278977
  0
LINE
  8
0
 10
17.024388211203384
 20
-69.82004244278977
 11
17.164782328516434
 21
-70.20031873867251
  0
LINE
  8
0
 10
17.164782328516434
 20
-70.20031873867251
 11
17.312954801810807
 21
-70.56101593303498
  0
LINE
  8
0
 10
17.312954801810807
 20
-70.56101593303498
 11
17.512647552179725
 21
-71.00120427718336
  0
LINE
  8
0
 10
17.512647552179725
 20
-71.00120427718336
 11
17.769743092637245
 21
-71.51752311633149
  0
LINE
  8
0
 10
17.769743092637245
 20
-71.51752311633149
 11
18.08994448155063
 21
-72.10629258015229
  0
LINE
  8
0
 10
18.08994448155063
 20
-72.10629258015229
 11
18.478760014197533
 21
-72.76352230077379
  0
LINE
  8
0
 10
18.478760014197533
 20
-72.76352230077379
 11
18.941488314918338
 21
-73.48492081727582
  0
LINE
  8
0
 10
18.941488314918338
 20
-73.48492081727582
 11
19.214810813670535
 21
-73.8789665999118
  0
LINE
  8
0
 10
19.214810813670535
 20
-73.8789665999118
 11
20.437659597161932
 21
-73.60979722828462
  0
LINE
  8
0
 10
20.437659597161932
 20
-73.60979722828462
 11
21.624237660440695
 21
-73.20999252889469
  0
LINE
  8
0
 10
21.624237660440695
 20
-73.20999252889469
 11
21.655284181762248
 21
-72.73143910381953
  0
LINE
  8
0
 10
21.655284181762248
 20
-72.73143910381953
 11
21.6798564591063
 21
-71.87474224781647
  0
LINE
  8
0
 10
21.6798564591063
 20
-71.87474224781647
 11
21.674178520942434
 21
-71.11113489772484
  0
LINE
  8
0
 10
21.674178520942434
 20
-71.11113489772484
 11
21.645003010790187
 21
-70.44156249641397
  0
LINE
  8
0
 10
21.645003010790187
 20
-70.44156249641397
 11
21.599107000535927
 21
-69.86660439635348
  0
LINE
  8
0
 10
21.599107000535927
 20
-69.86660439635348
 11
21.543274368009527
 21
-69.3864734871025
  0
LINE
  8
0
 10
21.543274368009527
 20
-69.3864734871025
 11
21.48427818523538
 21
-69.00101661755808
  0
LINE
  8
0
 10
21.48427818523538
 20
-69.00101661755808
 11
21.408522981011284
 21
-68.60279341579498
  0
LINE
  8
0
 10
21.408522981011284
 20
-68.60279341579498
 11
21.376887674688597
 21
-68.2993710522407
  0
LINE
  8
0
 10
21.376887674688597
 20
-68.2993710522407
 11
21.391867428460287
 21
-68.08445443008752
  0
LINE
  8
0
 10
21.391867428460287
 20
-68.08445443008752
 11
21.44698398624013
 21
-67.9608971509866
  0
LINE
  8
0
 10
21.44698398624013
 20
-67.9608971509866
 11
24.054387365466173
 21
-67.08236066318128
  0
LINE
  8
0
 10
24.054387365466173
 20
-67.08236066318128
 11
24.173038954335503
 21
-67.14736863669005
  0
LINE
  8
0
 10
24.173038954335503
 20
-67.14736863669005
 11
24.315026230577804
 21
-67.30939690856135
  0
LINE
  8
0
 10
24.315026230577804
 20
-67.30939690856135
 11
24.473464973320848
 21
-67.57009421984228
  0
LINE
  8
0
 10
24.473464973320848
 20
-67.57009421984228
 11
24.65415119414367
 21
-67.932962045629
  0
LINE
  8
0
 10
24.65415119414367
 20
-67.932962045629
 11
24.840453300653788
 21
-68.27552455521376
  0
LINE
  8
0
 10
24.840453300653788
 20
-68.27552455521376
 11
25.08656817525506
 21
-68.69154191227234
  0
LINE
  8
0
 10
25.08656817525506
 20
-68.69154191227234
 11
25.39798049672148
 21
-69.17703715078794
  0
LINE
  8
0
 10
25.39798049672148
 20
-69.17703715078794
 11
25.779962027880117
 21
-69.72773536291831
  0
LINE
  8
0
 10
25.779962027880117
 20
-69.72773536291831
 11
26.23755733948823
 21
-70.33907402102032
  0
LINE
  8
0
 10
26.23755733948823
 20
-70.33907402102032
 11
26.775570006581003
 21
-71.00621393883893
  0
LINE
  8
0
 10
26.775570006581003
 20
-71.00621393883893
 11
27.089894120367536
 21
-71.36839844793569
  0
LINE
  8
0
 10
27.089894120367536
 20
-71.36839844793569
 11
28.276472183646245
 21
-70.96859374854573
  0
LINE
  8
0
 10
28.276472183646245
 20
-70.96859374854573
 11
29.41286798381907
 21
-70.44284106594846
  0
LINE
  8
0
 10
29.41286798381907
 20
-70.44284106594846
 11
29.391991782519874
 21
-69.9637362221442
  0
LINE
  8
0
 10
29.391991782519874
 20
-69.9637362221442
 11
29.323794792963394
 21
-69.1094046293099
  0
LINE
  8
0
 10
29.323794792963394
 20
-69.1094046293099
 11
29.2355896619631
 21
-68.35088747132271
  0
LINE
  8
0
 10
29.2355896619631
 20
-68.35088747132271
 11
29.134191669107917
 21
-67.68839455963625
  0
LINE
  8
0
 10
29.134191669107917
 20
-67.68839455963625
 11
29.026400797818773
 21
-67.12176912017104
  0
LINE
  8
0
 10
29.026400797818773
 20
-67.12176912017104
 11
28.918984175953224
 21
-66.65048932830639
  0
LINE
  8
0
 10
28.918984175953224
 20
-66.65048932830639
 11
28.818658612950316
 21
-66.27367063281866
  0
LINE
  8
0
 10
28.818658612950316
 20
-66.27367063281866
 11
28.7002919872909
 21
-65.88597241084766
  0
LINE
  8
0
 10
28.7002919872909
 20
-65.88597241084766
 11
28.63603640037395
 21
-65.58774910045601
  0
LINE
  8
0
 10
28.63603640037395
 20
-65.58774910045601
 11
28.62769176795702
 21
-65.3724727324761
  0
LINE
  8
0
 10
28.62769176795702
 20
-65.3724727324761
 11
28.66912633837813
 21
-65.2436806033131
  0
LINE
  8
0
 10
28.66912633837813
 20
-65.2436806033131
 11
31.16625850456815
 21
-64.08838424004355
  0
LINE
  8
0
 10
31.16625850456815
 20
-64.08838424004355
 11
31.291243151025327
 21
-64.14018264070332
  0
LINE
  8
0
 10
31.291243151025327
 20
-64.14018264070332
 11
31.44991642948241
 21
-64.28590957096671
  0
LINE
  8
0
 10
31.44991642948241
 20
-64.28590957096671
 11
31.635612734928543
 21
-64.52794842209346
  0
LINE
  8
0
 10
31.635612734928543
 20
-64.52794842209346
 11
31.854472678524978
 21
-64.86915348430001
  0
LINE
  8
0
 10
31.854472678524978
 20
-64.86915348430001
 11
32.076720196389644
 21
-65.1895650768901
  0
LINE
  8
0
 10
32.076720196389644
 20
-65.1895650768901
 11
32.366371723343555
 21
-65.57653402371564
  0
LINE
  8
0
 10
32.366371723343555
 20
-65.57653402371564
 11
32.728449801076685
 21
-66.02551367381965
  0
LINE
  8
0
 10
32.728449801076685
 20
-66.02551367381965
 11
33.167733090276776
 21
-66.53168420123053
  0
LINE
  8
0
 10
33.167733090276776
 20
-66.53168420123053
 11
33.68874329420088
 21
-67.0899644099991
  0
LINE
  8
0
 10
33.68874329420088
 20
-67.0899644099991
 11
34.29573262105363
 21
-67.69502412356968
  0
LINE
  8
0
 10
34.29573262105363
 20
-67.69502412356968
 11
34.647373187029636
 21
-68.02110107690655
  0
LINE
  8
0
 10
34.647373187029636
 20
-68.02110107690655
 11
35.78376898720245
 21
-67.49534839430919
  0
LINE
  8
0
 10
35.78376898720245
 20
-67.49534839430919
 11
36.85665932252887
 21
-66.84981169800768
  0
LINE
  8
0
 10
36.85665932252887
 20
-66.84981169800768
 11
36.78410515298188
 21
-66.37577250171829
  0
LINE
  8
0
 10
36.78410515298188
 20
-66.37577250171829
 11
36.623938443874316
 21
-65.53382242885587
  0
LINE
  8
0
 10
36.623938443874316
 20
-65.53382242885587
 11
36.45424024455186
 21
-64.78928838313165
  0
LINE
  8
0
 10
36.45424024455186
 20
-64.78928838313165
 11
36.2818085677509
 21
-64.1416420847361
  0
LINE
  8
0
 10
36.2818085677509
 20
-64.1416420847361
 11
36.11338658483861
 21
-63.5899924710733
  0
LINE
  8
0
 10
36.11338658483861
 20
-63.5899924710733
 11
35.95564533531333
 21
-63.133089121259374
  0
LINE
  8
0
 10
35.95564533531333
 20
-63.133089121259374
 11
35.81516661757933
 21
-62.769326454504345
  0
LINE
  8
0
 10
35.81516661757933
 20
-62.769326454504345
 11
35.655576310946806
 21
-62.39669861950215
  0
LINE
  8
0
 10
35.655576310946806
 20
-62.39669861950215
 11
35.55945378144275
 21
-62.107170757919306
  0
LINE
  8
0
 10
35.55945378144275
 20
-62.107170757919306
 11
35.52788259602272
 21
-61.89405856269817
  0
LINE
  8
0
 10
35.52788259602272
 20
-61.89405856269817
 11
35.5551493966309
 21
-61.76154155343176
  0
LINE
  8
0
 10
35.5551493966309
 20
-61.76154155343176
 11
37.91273375828604
 21
-60.343030108259796
  0
LINE
  8
0
 10
37.91273375828604
 20
-60.343030108259796
 11
38.042586131625896
 21
-60.38101164718254
  0
LINE
  8
0
 10
38.042586131625896
 20
-60.38101164718254
 11
38.21608511318422
 21
-60.50872872082008
  0
LINE
  8
0
 10
38.21608511318422
 20
-60.50872872082008
 11
38.426861861935826
 21
-60.72927142756142
  0
LINE
  8
0
 10
38.426861861935826
 20
-60.72927142756142
 11
38.681329595572755
 21
-61.044813408800216
  0
LINE
  8
0
 10
38.681329595572755
 20
-61.044813408800216
 11
38.93691687584786
 21
-61.33931755142761
  0
LINE
  8
0
 10
38.93691687584786
 20
-61.33931755142761
 11
39.266709155831784
 21
-61.692701230927675
  0
LINE
  8
0
 10
39.266709155831784
 20
-61.692701230927675
 11
39.675207955421335
 21
-62.099901416728606
  0
LINE
  8
0
 10
39.675207955421335
 20
-62.099901416728606
 11
40.16664280773757
 21
-62.55560987278227
  0
LINE
  8
0
 10
40.16664280773757
 20
-62.55560987278227
 11
40.744959535700815
 21
-63.05428630721002
  0
LINE
  8
0
 10
40.744959535700815
 20
-63.05428630721002
 11
41.41380912743184
 21
-63.59017204460237
  0
LINE
  8
0
 10
41.41380912743184
 20
-63.59017204460237
 11
41.79864348146931
 21
-63.87631848803646
  0
LINE
  8
0
 10
41.79864348146931
 20
-63.87631848803646
 11
42.87153381679573
 21
-63.23078179173494
  0
LINE
  8
0
 10
42.87153381679573
 20
-63.23078179173494
 11
43.86834002904702
 21
-62.47302940927352
  0
LINE
  8
0
 10
43.86834002904702
 20
-62.47302940927352
 11
43.74495852255323
 21
-62.009613536657255
  0
LINE
  8
0
 10
43.74495852255323
 20
-62.009613536657255
 11
43.494699902117056
 21
-61.18991607856875
  0
LINE
  8
0
 10
43.494699902117056
 20
-61.18991607856875
 11
43.245498190702946
 21
-60.46809412605966
  0
LINE
  8
0
 10
43.245498190702946
 20
-60.46809412605966
 11
43.00405443371091
 21
-59.84288750165504
  0
LINE
  8
0
 10
43.00405443371091
 20
-59.84288750165504
 11
42.77697593293543
 21
-59.312681301136806
  0
LINE
  8
0
 10
42.77697593293543
 20
-59.312681301136806
 11
42.5707594276769
 21
-58.875511167399445
  0
LINE
  8
0
 10
42.5707594276769
 20
-58.875511167399445
 11
42.391774539736325
 21
-58.52906931405342
  0
LINE
  8
0
 10
42.391774539736325
 20
-58.52906931405342
 11
42.192831602561164
 21
-58.17588058668857
  0
LINE
  8
0
 10
42.192831602561164
 20
-58.17588058668857
 11
42.06596907924276
 21
-57.89844262337374
  0
LINE
  8
0
 10
42.06596907924276
 20
-57.89844262337374
 11
42.01154148410287
 21
-57.689993146550016
  0
LINE
  8
0
 10
42.01154148410287
 20
-57.689993146550016
 11
42.02432083659126
 21
-57.55530489795238
  0
LINE
  8
0
 10
42.02432083659126
 20
-57.55530489795238
 11
44.214716872631044
 21
-55.89020912061526
  0
LINE
  8
0
 10
44.214716872631044
 20
-55.89020912061526
 11
44.34791457250133
 21
-55.91392849898397
  0
LINE
  8
0
 10
44.34791457250133
 20
-55.91392849898397
 11
44.53420514023375
 21
-56.022138350080084
  0
LINE
  8
0
 10
44.53420514023375
 20
-56.022138350080084
 11
44.76759116762675
 21
-56.2185992508436
  0
LINE
  8
0
 10
44.76759116762675
 20
-56.2185992508436
 11
45.054683289789345
 21
-56.50477870988738
  0
LINE
  8
0
 10
45.054683289789345
 20
-56.50477870988738
 11
45.340613805299334
 21
-56.7699226107475
  0
LINE
  8
0
 10
45.340613805299334
 20
-56.7699226107475
 11
45.70668032536242
 21
-57.08557792238172
  0
LINE
  8
0
 10
45.70668032536242
 20
-57.08557792238172
 11
46.15681057187723
 21
-57.44622459400775
  0
LINE
  8
0
 10
46.15681057187723
 20
-57.44622459400775
 11
46.69463536298935
 21
-57.84612821371516
  0
LINE
  8
0
 10
46.69463536298935
 20
-57.84612821371516
 11
47.32347838011643
 21
-58.27935434855266
  0
LINE
  8
0
 10
47.32347838011643
 20
-58.27935434855266
 11
48.046346586797675
 21
-58.73978333946083
  0
LINE
  8
0
 10
48.046346586797675
 20
-58.73978333946083
 11
48.4598628979529
 21
-58.982644467569024
  0
LINE
  8
0
 10
48.4598628979529
 20
-58.982644467569024
 11
49.45666911020415
 21
-58.22489208510766
  0
LINE
  8
0
 10
49.45666911020415
 20
-58.22489208510766
 11
50.3657045579303
 21
-57.363807970351154
  0
LINE
  8
0
 10
50.3657045579303
 20
-57.363807970351154
 11
50.1929422498446
 21
-56.916448548809285
  0
LINE
  8
0
 10
50.1929422498446
 20
-56.916448548809285
 11
49.85552577159077
 21
-56.128613908734245
  0
LINE
  8
0
 10
49.85552577159077
 20
-56.128613908734245
 11
49.52974221030404
 21
-55.437966751865346
  0
LINE
  8
0
 10
49.52974221030404
 20
-55.437966751865346
 11
49.22211708041753
 21
-54.84252977749093
  0
LINE
  8
0
 10
49.22211708041753
 20
-54.84252977749093
 11
48.9390443495806
 21
-54.339983173046186
  0
LINE
  8
0
 10
48.9390443495806
 20
-54.339983173046186
 11
48.68677028856742
 21
-53.927671675495
  0
LINE
  8
0
 10
48.68677028856742
 20
-53.927671675495
 11
48.47137766458394
 21
-53.60261234953367
  0
LINE
  8
0
 10
48.47137766458394
 20
-53.60261234953367
 11
48.235414520909245
 21
-53.27300354471099
  0
LINE
  8
0
 10
48.235414520909245
 20
-53.27300354471099
 11
48.07929935087091
 21
-53.010908186120076
  0
LINE
  8
0
 10
48.07929935087091
 20
-53.010908186120076
 11
48.002653459800555
 21
-52.80956530722234
  0
LINE
  8
0
 10
48.002653459800555
 20
-52.80956530722234
 11
48.0007955379455
 21
-52.67428491586166
  0
LINE
  8
0
 10
48.0007955379455
 20
-52.67428491586166
 11
49.99832285754555
 21
-50.78212653193707
  0
LINE
  8
0
 10
49.99832285754555
 20
-50.78212653193707
 11
50.13330426269912
 21
-50.79130566172721
  0
LINE
  8
0
 10
50.13330426269912
 20
-50.79130566172721
 11
50.33020233002607
 21
-50.878739628715
  0
LINE
  8
0
 10
50.33020233002607
 20
-50.878739628715
 11
50.58346139827615
 21
-51.04881539906516
  0
LINE
  8
0
 10
50.58346139827615
 20
-51.04881539906516
 11
50.89981201632289
 21
-51.30227714341302
  0
LINE
  8
0
 10
50.89981201632289
 20
-51.30227714341302
 11
51.21273349320217
 21
-51.53495223269164
  0
LINE
  8
0
 10
51.21273349320217
 20
-51.53495223269164
 11
51.61078245809449
 21
-51.80917840653752
  0
LINE
  8
0
 10
51.61078245809449
 20
-51.80917840653752
 11
52.09726678595218
 21
-52.11904331150623
  0
LINE
  8
0
 10
52.09726678595218
 20
-52.11904331150623
 11
52.6751760119223
 21
-52.45845359056169
  0
LINE
  8
0
 10
52.6751760119223
 20
-52.45845359056169
 11
53.34717270879401
 21
-52.82115024548038
  0
LINE
  8
0
 10
53.34717270879401
 20
-52.82115024548038
 11
54.11558456162686
 21
-53.200724380960224
  0
LINE
  8
0
 10
54.11558456162686
 20
-53.200724380960224
 11
54.552934729233115
 21
-53.39745286906552
  0
LINE
  8
0
 10
54.552934729233115
 20
-53.39745286906552
 11
55.46197017695921
 21
-52.53636875430904
  0
LINE
  8
0
 10
55.46197017695921
 20
-52.53636875430904
 11
56.27257725067468
 21
-51.58204833120624
  0
LINE
  8
0
 10
56.27257725067468
 20
-51.58204833120624
 11
56.05245962110127
 21
-51.155990240931715
  0
LINE
  8
0
 10
56.05245962110127
 20
-51.155990240931715
 11
55.6318411847345
 21
-50.40925505970094
  0
LINE
  8
0
 10
55.6318411847345
 20
-50.40925505970094
 11
55.233295287964495
 21
-49.75787990492181
  0
LINE
  8
0
 10
55.233295287964495
 20
-49.75787990492181
 11
54.86309540856709
 21
-49.199193534688916
  0
LINE
  8
0
 10
54.86309540856709
 20
-49.199193534688916
 11
54.52734721662191
 21
-48.73019842577202
  0
LINE
  8
0
 10
54.52734721662191
 20
-48.73019842577202
 11
54.23197328256309
 21
-48.347579539735804
  0
LINE
  8
0
 10
54.23197328256309
 20
-48.347579539735804
 11
53.98269820411755
 21
-48.04771376455149
  0
LINE
  8
0
 10
53.98269820411755
 20
-48.04771376455149
 11
53.71248130605975
 21
-47.74554924414331
  0
LINE
  8
0
 10
53.71248130605975
 20
-47.74554924414331
 11
53.528943796932715
 21
-47.50186931871974
  0
LINE
  8
0
 10
53.528943796932715
 20
-47.50186931871974
 11
53.43097821292668
 21
-47.30999359891352
  0
LINE
  8
0
 10
53.43097821292668
 20
-47.30999359891352
 11
53.414504799163225
 21
-47.17570710369044
  0
LINE
  8
0
 10
53.414504799163225
 20
-47.17570710369044
 11
55.19574422085788
 21
-45.07866994021299
  0
LINE
  8
0
 10
55.19574422085788
 20
-45.07866994021299
 11
55.330926797733966
 21
-45.07320120452033
  0
LINE
  8
0
 10
55.330926797733966
 20
-45.07320120452033
 11
55.53612391484165
 21
-45.13883420407851
  0
LINE
  8
0
 10
55.53612391484165
 20
-45.13883420407851
 11
55.806286792930564
 21
-45.28053086110972
  0
LINE
  8
0
 10
55.806286792930564
 20
-45.28053086110972
 11
56.14818698510698
 21
-45.49830328355146
  0
LINE
  8
0
 10
56.14818698510698
 20
-45.49830328355146
 11
56.484430705145975
 21
-45.69578165856365
  0
LINE
  8
0
 10
56.484430705145975
 20
-45.69578165856365
 11
56.909795354693806
 21
-45.92536364346023
  0
LINE
  8
0
 10
56.909795354693806
 20
-45.92536364346023
 11
57.426930179947114
 21
-46.18081389907306
  0
LINE
  8
0
 10
57.426930179947114
 20
-46.18081389907306
 11
58.03814838348817
 21
-46.4557515622804
  0
LINE
  8
0
 10
58.03814838348817
 20
-46.4557515622804
 11
58.74542021324615
 21
-46.74366645061809
  0
LINE
  8
0
 10
58.74542021324615
 20
-46.74366645061809
 11
59.5503667858218
 21
-47.03793557097904
  0
LINE
  8
0
 10
59.5503667858218
 20
-47.03793557097904
 11
60.00642327903694
 21
-47.18622495742896
  0
LINE
  8
0
 10
60.00642327903694
 20
-47.18622495742896
 11
60.81703035275243
 21
-46.231904534326056
  0
LINE
  8
0
 10
60.81703035275243
 20
-46.231904534326056
 11
61.51970542566305
 21
-45.19553633729433
  0
LINE
  8
0
 10
61.51970542566305
 20
-45.19553633729433
 11
61.2548131525532
 21
-44.79577471984702
  0
LINE
  8
0
 10
61.2548131525532
 20
-44.79577471984702
 11
60.75592412466477
 21
-44.09889378471395
  0
LINE
  8
0
 10
60.75592412466477
 20
-44.09889378471395
 11
60.28928847865713
 21
-43.494427410156376
  0
LINE
  8
0
 10
60.28928847865713
 20
-43.494427410156376
 11
59.86085410485778
 21
-42.97904173094419
  0
LINE
  8
0
 10
59.86085410485778
 20
-42.97904173094419
 11
59.476366792377405
 21
-42.54909665640089
  0
LINE
  8
0
 10
59.476366792377405
 20
-42.54909665640089
 11
59.14135597458683
 21
-42.200656238486616
  0
LINE
  8
0
 10
59.14135597458683
 20
-42.200656238486616
 11
58.861120964059616
 21
-41.929499666123455
  0
LINE
  8
0
 10
58.861120964059616
 20
-41.929499666123455
 11
58.55981835768677
 21
-41.658322032859914
  0
LINE
  8
0
 10
58.55981835768677
 20
-41.658322032859914
 11
58.35101031895561
 21
-41.43591446493059
  0
LINE
  8
0
 10
58.35101031895561
 20
-41.43591446493059
 11
58.232873598915575
 21
-41.25575547159698
  0
LINE
  8
0
 10
58.232873598915575
 20
-41.25575547159698
 11
58.20197782895831
 21
-41.124037258888684
  0
LINE
  8
0
 10
58.20197782895831
 20
-41.124037258888684
 11
59.746045949130945
 21
-38.846707159260774
  0
LINE
  8
0
 10
59.746045949130945
 20
-38.846707159260774
 11
59.87984480561428
 21
-38.826654674011195
  0
LINE
  8
0
 10
59.87984480561428
 20
-38.826654674011195
 11
60.09093522391814
 21
-38.869717219228775
  0
LINE
  8
0
 10
60.09093522391814
 20
-38.869717219228775
 11
60.374834499112545
 21
-38.98137349919182
  0
LINE
  8
0
 10
60.374834499112545
 20
-38.98137349919182
 11
60.7382757982677
 21
-39.16090341718553
  0
LINE
  8
0
 10
60.7382757982677
 20
-39.16090341718553
 11
61.09389961127953
 21
-39.32086982454048
  0
LINE
  8
0
 10
61.09389961127953
 20
-39.32086982454048
 11
61.541592933881525
 21
-39.50311598162366
  0
LINE
  8
0
 10
61.541592933881525
 20
-39.50311598162366
 11
62.08331532352522
 21
-39.70115666719393
  0
LINE
  8
0
 10
62.08331532352522
 20
-39.70115666719393
 11
62.720676530042844
 21
-39.90839832182997
  0
LINE
  8
0
 10
62.720676530042844
 20
-39.90839832182997
 11
63.45493137714797
 21
-40.118155904763995
  0
LINE
  8
0
 10
63.45493137714797
 20
-40.118155904763995
 11
64.28697540687263
 21
-40.323669973622636
  0
LINE
  8
0
 10
64.28697540687263
 20
-40.323669973622636
 11
64.75639138029015
 21
-40.42178170094334
  0
LINE
  8
0
 10
64.75639138029015
 20
-40.42178170094334
 11
65.45906645320058
 21
-39.38541350391174
  0
LINE
  8
0
 10
65.45906645320058
 20
-39.38541350391174
 11
66.04557130253833
 21
-38.279148002500804
  0
LINE
  8
0
 10
66.04557130253833
 20
-38.279148002500804
 11
65.73901000560103
 21
-37.91036969733976
  0
LINE
  8
0
 10
65.73901000560103
 20
-37.91036969733976
 11
65.16769940390438
 21
-37.27151330010452
  0
LINE
  8
0
 10
65.16769940390438
 20
-37.27151330010452
 11
64.63844488495948
 21
-36.721042521341325
  0
LINE
  8
0
 10
64.63844488495948
 20
-36.721042521341325
 11
64.15679901806972
 21
-36.254999959016956
  0
LINE
  8
0
 10
64.15679901806972
 20
-36.254999959016956
 11
63.728080347252885
 21
-35.86914563174374
  0
LINE
  8
0
 10
63.728080347252885
 20
-35.86914563174374
 11
63.35736034126582
 21
-35.558968827269354
  0
LINE
  8
0
 10
63.35736034126582
 20
-35.558968827269354
 11
63.049450897934065
 21
-35.31970052061749
  0
LINE
  8
0
 10
63.049450897934065
 20
-35.31970052061749
 11
62.7205950808223
 21
-35.08268908430853
  0
LINE
  8
0
 10
62.7205950808223
 20
-35.08268908430853
 11
62.488964595826126
 21
-34.88416139925824
  0
LINE
  8
0
 10
62.488964595826126
 20
-34.88416139925824
 11
62.352041784781136
 21
-34.71783133187312
  0
LINE
  8
0
 10
62.352041784781136
 20
-34.71783133187312
 11
62.30708588328453
 21
-34.590225677292516
  0
LINE
  8
0
 10
62.30708588328453
 20
-34.590225677292516
 11
63.59587991498106
 21
-32.15930225474953
  0
LINE
  8
0
 10
63.59587991498106
 20
-32.15930225474953
 11
63.72672638181285
 21
-32.124901116998416
  0
LINE
  8
0
 10
63.72672638181285
 20
-32.124901116998416
 11
63.94123525916006
 21
-32.14488833890518
  0
LINE
  8
0
 10
63.94123525916006
 20
-32.14488833890518
 11
64.2355424720299
 21
-32.225195174005805
  0
LINE
  8
0
 10
64.2355424720299
 20
-32.225195174005805
 11
64.61626386122876
 21
-32.36437776340878
  0
LINE
  8
0
 10
64.61626386122876
 20
-32.36437776340878
 11
64.9870984031558
 21
-32.484956743238946
  0
LINE
  8
0
 10
64.9870984031558
 20
-32.484956743238946
 11
65.45187160393435
 21
-32.617730402946165
  0
LINE
  8
0
 10
65.45187160393435
 20
-32.617730402946165
 11
66.01183035825139
 21
-32.75603967250589
  0
LINE
  8
0
 10
66.01183035825139
 20
-32.75603967250589
 11
66.66786209034404
 21
-32.89315559965287
  0
LINE
  8
0
 10
66.66786209034404
 20
-32.89315559965287
 11
67.42049148804963
 21
-33.02229666130651
  0
LINE
  8
0
 10
67.42049148804963
 20
-33.02229666130651
 11
68.26987801941989
 21
-33.1366462141088
  0
LINE
  8
0
 10
68.26987801941989
 20
-33.1366462141088
 11
68.74714999994268
 21
-33.1834300120019
  0
LINE
  8
0
 10
68.74714999994268
 20
-33.1834300120019
 11
69.33365484928044
 21
-32.07716451059094
  0
LINE
  8
0
 10
69.33365484928044
 20
-32.07716451059094
 11
69.7971132419333
 21
-30.913971656336624
  0
LINE
  8
0
 10
69.7971132419333
 20
-30.913971656336624
 11
69.45247707208335
 21
-30.580500251912582
  0
LINE
  8
0
 10
69.45247707208335
 20
-30.580500251912582
 11
68.81544299102907
 21
-30.007158399720787
  0
LINE
  8
0
 10
68.81544299102907
 20
-30.007158399720787
 11
68.22977462447955
 21
-29.51713698333273
  0
LINE
  8
0
 10
68.22977462447955
 20
-29.51713698333273
 11
67.70056412191563
 21
-29.10590146083267
  0
LINE
  8
0
 10
67.70056412191563
 20
-29.10590146083267
 11
67.23264042719643
 21
-28.76866167002684
  0
LINE
  8
0
 10
67.23264042719643
 20
-28.76866167002684
 11
66.83055758613057
 21
-28.50038501842744
  0
LINE
  8
0
 10
66.83055758613057
 20
-28.50038501842744
 11
66.49858366669304
 21
-28.295810179617266
  0
LINE
  8
0
 10
66.49858366669304
 20
-28.295810179617266
 11
66.14603017262225
 21
-28.09574368265198
  0
LINE
  8
0
 10
66.14603017262225
 20
-28.09574368265198
 11
65.89429289701586
 21
-27.92342343607235
  0
LINE
  8
0
 10
65.89429289701586
 20
-27.92342343607235
 11
65.7401892897357
 21
-27.7728723625988
  0
LINE
  8
0
 10
65.7401892897357
 20
-27.7728723625988
 11
65.68170032354122
 21
-27.650875325774866
  0
LINE
  8
0
 10
65.68170032354122
 20
-27.650875325774866
 11
66.70011033509562
 21
-25.09485893483163
  0
LINE
  8
0
 10
66.70011033509562
 20
-25.09485893483163
 11
66.82647035708632
 21
-25.04651246646586
  0
LINE
  8
0
 10
66.82647035708632
 20
-25.04651246646586
 11
67.04188277301733
 21
-25.04319003315944
  0
LINE
  8
0
 10
67.04188277301733
 20
-25.04319003315944
 11
67.34314744057939
 21
-25.091205899181332
  0
LINE
  8
0
 10
67.34314744057939
 20
-25.091205899181332
 11
67.73668530963043
 21
-25.18840937138869
  0
LINE
  8
0
 10
67.73668530963043
 20
-25.18840937138869
 11
68.11838288452586
 21
-25.268187245401954
  0
LINE
  8
0
 10
68.11838288452586
 20
-25.268187245401954
 11
68.59478692264805
 21
-25.349931757969266
  0
LINE
  8
0
 10
68.59478692264805
 20
-25.349931757969266
 11
69.16641703721922
 21
-25.426888061790233
  0
LINE
  8
0
 10
69.16641703721922
 20
-25.426888061790233
 11
69.83342792264368
 21
-25.492270702568643
  0
LINE
  8
0
 10
69.83342792264368
 20
-25.492270702568643
 11
70.59560797939724
 21
-25.53928118206881
  0
LINE
  8
0
 10
70.59560797939724
 20
-25.53928118206881
 11
71.4523787319343
 21
-25.561125574858917
  0
LINE
  8
0
 10
71.4523787319343
 20
-25.561125574858917
 11
71.93191114196452
 21
-25.556032946068893
  0
LINE
  8
0
 10
71.93191114196452
 20
-25.556032946068893
 11
72.39536953461744
 21
-24.39284009181451
  0
LINE
  8
0
 10
72.39536953461744
 20
-24.39284009181451
 11
72.73034784467569
 21
-23.186357257415604
  0
LINE
  8
0
 10
72.73034784467569
 20
-23.186357257415604
 11
72.35167734590087
 21
-22.892102401049684
  0
LINE
  8
0
 10
72.35167734590087
 20
-22.892102401049684
 11
71.65638842764352
 21
-22.39099700290682
  0
LINE
  8
0
 10
71.65638842764352
 20
-22.39099700290682
 11
71.02117263960545
 21
-21.9671700019702
  0
LINE
  8
0
 10
71.02117263960545
 20
-21.9671700019702
 11
70.45060201064815
 21
-21.615562879799537
  0
LINE
  8
0
 10
70.45060201064815
 20
-21.615562879799537
 11
69.94895926952047
 21
-21.330891453667014
  0
LINE
  8
0
 10
69.94895926952047
 20
-21.330891453667014
 11
69.52022764705944
 21
-21.10766025339493
  0
LINE
  8
0
 10
69.52022764705944
 20
-21.10766025339493
 11
69.1680813421949
 21
-20.94017733536693
  0
LINE
  8
0
 10
69.1680813421949
 20
-20.94017733536693
 11
68.79596353854035
 21
-20.7794013744997
  0
LINE
  8
0
 10
68.79596353854035
 20
-20.7794013744997
 11
68.52707086171463
 21
-20.635308863727968
  0
LINE
  8
0
 10
68.52707086171463
 20
-20.635308863727968
 11
68.35759318209637
 21
-20.5023018578523
  0
LINE
  8
0
 10
68.35759318209637
 20
-20.5023018578523
 11
68.2862568808557
 21
-20.387343742498842
  0
LINE
  8
0
 10
68.2862568808557
 20
-20.387343742498842
 11
69.02234294602366
 21
-17.736201338351098
  0
LINE
  8
0
 10
69.02234294602366
 20
-17.736201338351098
 11
69.1427350674475
 21
-17.674476357508663
  0
LINE
  8
0
 10
69.1427350674475
 20
-17.674476357508663
 11
69.35652550833898
 21
-17.647883221481845
  0
LINE
  8
0
 10
69.35652550833898
 20
-17.647883221481845
 11
69.66121557781496
 21
-17.66304517629722
  0
LINE
  8
0
 10
69.66121557781496
 20
-17.66304517629722
 11
70.06295605501872
 21
-17.717129909471304
  0
LINE
  8
0
 10
70.06295605501872
 20
-17.717129909471304
 11
70.45104160780627
 21
-17.755171355036477
  0
LINE
  8
0
 10
70.45104160780627
 20
-17.755171355036477
 11
70.93349108150548
 21
-17.78492834079375
  0
LINE
  8
0
 10
70.93349108150548
 20
-17.78492834079375
 11
71.51009071588383
 21
-17.799629436575476
  0
LINE
  8
0
 10
71.51009071588383
 20
-17.799629436575476
 11
72.18026066186235
 21
-17.792512239302102
  0
LINE
  8
0
 10
72.18026066186235
 20
-17.792512239302102
 11
72.94305551336632
 21
-17.756840981758742
  0
LINE
  8
0
 10
72.94305551336632
 20
-17.756840981758742
 11
73.79716563334965
 21
-17.68592410900373
  0
LINE
  8
0
 10
73.79716563334965
 20
-17.68592410900373
 11
74.27333639382043
 21
-17.629014759946923
  0
LINE
  8
0
 10
74.27333639382043
 20
-17.629014759946923
 11
74.6083147038787
 21
-16.422531925548093
  0
LINE
  8
0
 10
74.6083147038787
 20
-16.422531925548093
 11
74.81088561693052
 21
-15.18690401914016
  0
LINE
  8
0
 10
74.81088561693052
 20
-15.18690401914016
 11
74.4026203546071
 21
-14.935315579983422
  0
LINE
  8
0
 10
74.4026203546071
 20
-14.935315579983422
 11
73.65722822600453
 21
-14.512321638517685
  0
LINE
  8
0
 10
73.65722822600453
 20
-14.512321638517685
 11
72.97991234080934
 21
-14.159658037109763
  0
LINE
  8
0
 10
72.97991234080934
 20
-14.159658037109763
 11
72.3746710044055
 21
-13.871801587298492
  0
LINE
  8
0
 10
72.3746710044055
 20
-13.871801587298492
 11
71.84519051935271
 21
-13.643036038033106
  0
LINE
  8
0
 10
71.84519051935271
 20
-13.643036038033106
 11
71.39483660177682
 21
-13.46746747080929
  0
LINE
  8
0
 10
71.39483660177682
 20
-13.46746747080929
 11
71.02664650493936
 21
-13.339040057646258
  0
LINE
  8
0
 10
71.02664650493936
 20
-13.339040057646258
 11
70.63932713271831
 21
-13.21943958401938
  0
LINE
  8
0
 10
70.63932713271831
 20
-13.21943958401938
 11
70.35643157545815
 21
-13.105264161999315
  0
LINE
  8
0
 10
70.35643157545815
 20
-13.105264161999315
 11
70.17356679434042
 21
-12.991360609255949
  0
LINE
  8
0
 10
70.17356679434042
 20
-12.991360609255949
 11
70.09021951096217
 21
-12.884789194168285
  0
LINE
  8
0
 10
70.09021951096217
 20
-12.884789194168285
 11
70.5353516936395
 21
-10.16960299754205
  0
LINE
  8
0
 10
70.5353516936395
 20
-10.16960299754205
 11
70.64836442694836
 21
-10.095223173187636
  0
LINE
  8
0
 10
70.64836442694836
 20
-10.095223173187636
 11
70.85802639535132
 21
-10.045671114646
  0
LINE
  8
0
 10
70.85802639535132
 20
-10.045671114646
 11
71.1625696542574
 21
-10.02780139819736
  0
LINE
  8
0
 10
71.1625696542574
 20
-10.02780139819736
 11
71.56780269983346
 21
-10.038133298291843
  0
LINE
  8
0
 10
71.56780269983346
 20
-10.038133298291843
 11
71.95772628223675
 21
-10.0339923142413
  0
LINE
  8
0
 10
71.95772628223675
 20
-10.0339923142413
 11
72.4405649125416
 21
-10.011412899737604
  0
LINE
  8
0
 10
72.4405649125416
 20
-10.011412899737604
 11
73.01537396320411
 21
-9.963686430573386
  0
LINE
  8
0
 10
73.01537396320411
 20
-9.963686430573386
 11
73.68084583986233
 21
-9.884152837878947
  0
LINE
  8
0
 10
73.68084583986233
 20
-9.884152837878947
 11
74.43531241391281
 21
-9.766218056172216
  0
LINE
  8
0
 10
74.43531241391281
 20
-9.766218056172216
 11
75.27674824110595
 21
-9.603371353365219
  0
LINE
  8
0
 10
75.27674824110595
 20
-9.603371353365219
 11
75.74397468521785
 21
-9.49531249412663
  0
LINE
  8
0
 10
0.3118675362266391
 20
-1.4672214011007085
 11
9.18454765366783e-17
 21
-1.5
  0
LINE
  8
0
 10
9.18454765366783e-17
 20
-1.5
 11
-0.3118675362266384
 21
-1.4672214011007085
  0
LINE
  8
0
 10
-0.3118675362266384
 20
-1.4672214011007085
 11
-0.6101049646137001
 21
-1.3703181864639014
  0
LINE
  8
0
 10
-0.6101049646137001
 20
-1.3703181864639014
 11
-0.8816778784387099
 21
-1.213525491562421
  0
LINE
  8
0
 10
-0.8816778784387099
 20
-1.213525491562421
 11
-1.114717238216091
 21
-1.0036959095382878
  0
LINE
  8
0
 10
-1.114717238216091
 20
-1.0036959095382878
 11
-1.299038105676658
 21
-0.7500000000000003
  0
LINE
  8
0
 10
-1.299038105676658
 20
-0.7500000000000003
 11
-1.4265847744427305
 21
-0.46352549156242095
  0
LINE
  8
0
 10
-1.4265847744427305
 20
-0.46352549156242095
 11
-1.49178284305241
 21
-0.15679269490147957
  0
LINE
  8
0
 10
-1.49178284305241
 20
-0.15679269490147957
 11
-1.4917828430524098
 21
0.15679269490148126
  0
LINE
  8
0
 10
-1.4917828430524098
 20
0.15679269490148126
 11
-1.4265847744427302
 21
0.46352549156242123
  0
LINE
  8
0
 10
-1.4265847744427302
 20
0.46352549156242123
 11
-1.2990381056766576
 21
0.7500000000000006
  0
LINE
  8
0
 10
-1.2990381056766576
 20
0.7500000000000006
 11
-1.114717238216091
 21
1.0036959095382878
  0
LINE
  8
0
 10
-1.114717238216091
 20
1.0036959095382878
 11
-0.8816778784387097
 21
1.2135254915624214
  0
LINE
  8
0
 10
-0.8816778784387097
 20
1.2135254915624214
 11
-0.6101049646137005
 21
1.3703181864639014
  0
LINE
  8
0
 10
-0.6101049646137005
 20
1.3703181864639014
 11
-0.3118675362266387
 21
1.4672214011007085
  0
LINE
  8
0
 10
-0.3118675362266387
 20
1.4672214011007085
 11
7.579792913117722e-16
 21
1.5
  0
LINE
  8
0
 10
7.579792913117722e-16
 20
1.5
 11
0.3118675362266389
 21
1.4672214011007085
  0
LINE
  8
0
 10
0.3118675362266389
 20
1.4672214011007085
 11
0.6101049646136999
 21
1.3703181864639014
  0
LINE
  8
0
 10
0.6101049646136999
 20
1.3703181864639014
 11
0.8816778784387097
 21
1.213525491562421
  0
LINE
  8
0
 10
0.8816778784387097
 20
1.213525491562421
 11
1.1147172382160917
 21
1.003695909538287
  0
LINE
  8
0
 10
1.1147172382160917
 20
1.003695909538287
 11
1.299038105676658
 21
0.7499999999999998
  0
LINE
  8
0
 10
1.299038105676658
 20
0.7499999999999998
 11
1.4265847744427305
 21
0.4635254915624211
  0
LINE
  8
0
 10
1.4265847744427305
 20
0.4635254915624211
 11
1.49178284305241
 21
0.1567926949014801
  0
LINE
  8
0
 10
1.49178284305241
 20
0.1567926949014801
 11
1.4917828430524098
 21
-0.1567926949014801
  0
LINE
  8
0
 10
1.4917828430524098
 20
-0.1567926949014801
 11
1.4265847744427302
 21
-0.46352549156242107
  0
LINE
  8
0
 10
1.4265847744427302
 20
-0.46352549156242107
 11
1.299038105676658
 21
-0.7500000000000001
  0
LINE
  8
0
 10
1.299038105676658
 20
-0.7500000000000001
 11
1.1147172382160913
 21
-1.0036959095382874
  0
LINE
  8
0
 10
1.1147172382160913
 20
-1.0036959095382874
 11
0.8816778784387098
 21
-1.2135254915624212
  0
LINE
  8
0
 10
0.8816778784387098
 20
-1.2135254915624212
 11
0.6101049646137003
 21
-1.3703181864639014
  0
LINE
  8
0
 10
0.6101049646137003
 20
-1.3703181864639014
 11
0.3118675362266391
 21
-1.4672214011007085
  0
ENDSEC
  0
SECTION
  2
OBJECTS
  0
DICTIONARY
  0
ENDSEC
  0
EOF
