  0
SECTION
  2
BLOCKS
  0
ENDSEC
  0
SECTION
  2
ENTITIES
  0
LINE
  8
0
 10
24.834934511039634
 20
-9.71765092525437
 11
25.28929019873725
 21
-8.681824291264324
  0
LINE
  8
0
 10
25.28929019873725
 20
-8.681824291264324
 11
25.56695760663964
 21
-7.585340494204338
  0
LINE
  8
0
 10
25.56695760663964
 20
-7.585340494204338
 11
24.74961009526046
 21
-6.836962252419831
  0
LINE
  8
0
 10
24.74961009526046
 20
-6.836962252419831
 11
23.94034007465462
 21
-6.245490039074035
  0
LINE
  8
0
 10
23.94034007465462
 20
-6.245490039074035
 11
23.318492979825866
 21
-5.8886885547189936
  0
LINE
  8
0
 10
23.318492979825866
 20
-5.8886885547189936
 11
22.922871526148214
 21
-5.716417652978505
  0
LINE
  8
0
 10
22.922871526148214
 20
-5.716417652978505
 11
22.850321460536865
 21
-5.693939356789649
  0
LINE
  8
0
 10
22.850321460536865
 20
-5.693939356789649
 11
22.84373576589484
 21
-5.693411445293091
  0
LINE
  8
0
 10
22.84373576589484
 20
-5.693411445293091
 11
22.843469605979298
 21
-5.691816436363731
  0
LINE
  8
0
 10
22.843469605979298
 20
-5.691816436363731
 11
22.78335038008252
 21
-5.673189605981635
  0
LINE
  8
0
 10
22.78335038008252
 20
-5.673189605981635
 11
21.931867003501818
 21
-5.509237649379328
  0
LINE
  8
0
 10
21.931867003501818
 20
-5.509237649379328
 11
21.339594687078645
 21
-5.225868603330288
  0
LINE
  8
0
 10
21.339594687078645
 20
-5.225868603330288
 11
21.074108200232107
 21
-4.911385159670357
  0
LINE
  8
0
 10
21.074108200232107
 20
-4.911385159670357
 11
21.526979043640484
 21
-2.1974789819272473
  0
LINE
  8
0
 10
21.526979043640484
 20
-2.1974789819272473
 11
21.88019334757705
 21
-1.9862384400443078
  0
LINE
  8
0
 10
21.88019334757705
 20
-1.9862384400443078
 11
22.53238449507317
 21
-1.9105336172954894
  0
LINE
  8
0
 10
22.53238449507317
 20
-1.9105336172954894
 11
23.390967266948564
 21
-2.031941230342816
  0
LINE
  8
0
 10
23.390967266948564
 20
-2.031941230342816
 11
23.453877189297412
 21
-2.033844333746924
  0
LINE
  8
0
 10
23.453877189297412
 20
-2.033844333746924
 11
23.45464682648734
 21
-2.0324221687841533
  0
LINE
  8
0
 10
23.45464682648734
 20
-2.0324221687841533
 11
23.461047102611076
 21
-2.0340612325432494
  0
LINE
  8
0
 10
23.461047102611076
 20
-2.0340612325432494
 11
23.536964896393933
 21
-2.0363578402386042
  0
LINE
  8
0
 10
23.536964896393933
 20
-2.0363578402386042
 11
23.96708675882345
 21
-2.0018791271442535
  0
LINE
  8
0
 10
23.96708675882345
 20
-2.0018791271442535
 11
24.671093715395422
 21
-1.8663235529941915
  0
LINE
  8
0
 10
24.671093715395422
 20
-1.8663235529941915
 11
25.628565967798632
 21
-1.5696684817588549
  0
LINE
  8
0
 10
25.628565967798632
 20
-1.5696684817588549
 11
26.644625354393906
 21
-1.1272317404660577
  0
LINE
  8
0
 10
26.644625354393906
 20
-1.1272317404660577
 11
26.73803043943841
 21
-1.9155355805588807e-15
  0
LINE
  8
0
 10
26.73803043943841
 20
-1.9155355805588807e-15
 11
26.644625354393902
 21
1.1272317404660581
  0
LINE
  8
0
 10
26.644625354393902
 20
1.1272317404660581
 11
25.628565967798608
 21
1.5696684817588638
  0
LINE
  8
0
 10
25.628565967798608
 20
1.5696684817588638
 11
24.671093715395475
 21
1.866323552994175
  0
LINE
  8
0
 10
24.671093715395475
 20
1.866323552994175
 11
23.967086758823466
 21
2.0018791271441807
  0
LINE
  8
0
 10
23.967086758823466
 20
2.0018791271441807
 11
23.536964896393922
 21
2.0363578402385323
  0
LINE
  8
0
 10
23.536964896393922
 20
2.0363578402385323
 11
23.461047102611044
 21
2.034061232543236
  0
LINE
  8
0
 10
23.461047102611044
 20
2.034061232543236
 11
23.45464682648733
 21
2.0324221687841626
  0
LINE
  8
0
 10
23.45464682648733
 20
2.0324221687841626
 11
23.45387718929741
 21
2.033844333746917
  0
LINE
  8
0
 10
23.45387718929741
 20
2.033844333746917
 11
23.390967266948504
 21
2.031941230342856
  0
LINE
  8
0
 10
23.390967266948504
 20
2.031941230342856
 11
22.532384495073178
 21
1.9105336172955076
  0
LINE
  8
0
 10
22.532384495073178
 20
1.9105336172955076
 11
21.880193347577006
 21
1.9862384400457187
  0
LINE
  8
0
 10
21.880193347577006
 20
1.9862384400457187
 11
21.526979043684626
 21
2.197478981934532
  0
LINE
  8
0
 10
21.526979043684626
 20
2.197478981934532
 11
21.074108200276587
 21
4.911385159677697
  0
LINE
  8
0
 10
21.074108200276587
 20
4.911385159677697
 11
21.339594687078225
 21
5.225868603331635
  0
LINE
  8
0
 10
21.339594687078225
 20
5.225868603331635
 11
21.9318670035018
 21
5.509237649379342
  0
LINE
  8
0
 10
21.9318670035018
 20
5.509237649379342
 11
22.783350380082545
 21
5.673189605981689
  0
LINE
  8
0
 10
22.783350380082545
 20
5.673189605981689
 11
22.843469605979337
 21
5.691816436363717
  0
LINE
  8
0
 10
22.843469605979337
 20
5.691816436363717
 11
22.8437357658949
 21
5.693411445293093
  0
LINE
  8
0
 10
22.8437357658949
 20
5.693411445293093
 11
22.8503214605369
 21
5.693939356789647
  0
LINE
  8
0
 10
22.8503214605369
 20
5.693939356789647
 11
22.922871526148246
 21
5.716417652978437
  0
LINE
  8
0
 10
22.922871526148246
 20
5.716417652978437
 11
23.318492979825873
 21
5.888688554718919
  0
LINE
  8
0
 10
23.318492979825873
 20
5.888688554718919
 11
23.94034007465457
 21
6.245490039074001
  0
LINE
  8
0
 10
23.94034007465457
 20
6.245490039074001
 11
24.74961009526048
 21
6.836962252419848
  0
LINE
  8
0
 10
24.74961009526048
 20
6.836962252419848
 11
25.566957606639637
 21
7.585340494204339
  0
LINE
  8
0
 10
25.566957606639637
 20
7.585340494204339
 11
25.28929019873725
 21
8.681824291264322
  0
LINE
  8
0
 10
25.28929019873725
 20
8.681824291264322
 11
24.83493451103964
 21
9.717650925254366
  0
LINE
  8
0
 10
24.83493451103964
 20
9.717650925254366
 11
23.730269049551612
 21
9.806201280023016
  0
LINE
  8
0
 10
23.730269049551612
 20
9.806201280023016
 11
22.728351540611808
 21
9.775892029101794
  0
LINE
  8
0
 10
22.728351540611808
 20
9.775892029101794
 11
22.018474799834564
 21
9.675512143226163
  0
LINE
  8
0
 10
22.018474799834564
 20
9.675512143226163
 11
21.60046290647572
 21
9.568462364118245
  0
LINE
  8
0
 10
21.60046290647572
 20
9.568462364118245
 11
21.52940425546364
 21
9.541639725618124
  0
LINE
  8
0
 10
21.52940425546364
 20
9.541639725618124
 11
21.52388296708674
 21
9.538011304594411
  0
LINE
  8
0
 10
21.52388296708674
 20
9.538011304594411
 11
21.522693254754145
 21
9.539106511949681
  0
LINE
  8
0
 10
21.522693254754145
 20
9.539106511949681
 11
21.46380990218764
 21
9.516879705542985
  0
LINE
  8
0
 10
21.46380990218764
 20
9.516879705542985
 11
20.691168500634706
 21
9.123268921552876
  0
LINE
  8
0
 10
20.691168500634706
 20
9.123268921552876
 11
20.04973355268508
 21
8.983105728777915
  0
LINE
  8
0
 10
20.04973355268508
 20
8.983105728777915
 11
19.64706768221327
 21
9.06821217844815
  0
LINE
  8
0
 10
19.64706768221327
 20
9.06821217844815
 11
18.337530734871592
 21
11.488024511243541
  0
LINE
  8
0
 10
18.337530734871592
 20
11.488024511243541
 11
18.48651982430664
 21
11.871671695830461
  0
LINE
  8
0
 10
18.48651982430664
 20
11.871671695830461
 11
18.95469141412131
 21
12.331997532114007
  0
LINE
  8
0
 10
18.95469141412131
 20
12.331997532114007
 11
19.706803959429
 21
12.763542319891439
  0
LINE
  8
0
 10
19.706803959429
 20
12.763542319891439
 11
19.757617637971926
 21
12.800680577974365
  0
LINE
  8
0
 10
19.757617637971926
 20
12.800680577974365
 11
19.75735147805637
 21
12.802275586903747
  0
LINE
  8
0
 10
19.75735147805637
 20
12.802275586903747
 11
19.76340892894457
 21
12.804913266242187
  0
LINE
  8
0
 10
19.76340892894457
 20
12.804913266242187
 11
19.824729341045167
 21
12.849730594136366
  0
LINE
  8
0
 10
19.824729341045167
 20
12.849730594136366
 11
20.142978662765593
 21
13.141125459260946
  0
LINE
  8
0
 10
20.142978662765593
 20
13.141125459260946
 11
20.615279114174488
 21
13.680507876645715
  0
LINE
  8
0
 10
20.615279114174488
 20
13.680507876645715
 11
21.18864993913227
 21
14.502702040149053
  0
LINE
  8
0
 10
21.18864993913227
 20
14.502702040149053
 11
21.718713289984024
 21
15.475923387643014
  0
LINE
  8
0
 10
21.718713289984024
 20
15.475923387643014
 11
21.100062961234713
 21
16.422838208186377
  0
LINE
  8
0
 10
21.100062961234713
 20
16.422838208186377
 11
20.33399315970092
 21
17.25501184740135
  0
LINE
  8
0
 10
20.33399315970092
 20
17.25501184740135
 11
19.26042926672309
 21
16.980080010706335
  0
LINE
  8
0
 10
19.26042926672309
 20
16.980080010706335
 11
18.322639809692184
 21
16.62609091526238
  0
LINE
  8
0
 10
18.322639809692184
 20
16.62609091526238
 11
17.68381944444546
 21
16.300653287550144
  0
LINE
  8
0
 10
17.68381944444546
 20
16.300653287550144
 11
17.323215594925557
 21
16.063675520854773
  0
LINE
  8
0
 10
17.323215594925557
 20
16.063675520854773
 11
17.264716394110007
 21
16.01523350062743
  0
LINE
  8
0
 10
17.264716394110007
 20
16.01523350062743
 11
17.260672410747183
 21
16.010008918057746
  0
LINE
  8
0
 10
17.260672410747183
 20
16.010008918057746
 11
17.259191547063423
 21
16.0106584850947
  0
LINE
  8
0
 10
17.259191547063423
 20
16.0106584850947
 11
17.210715689199258
 21
15.970516595043973
  0
LINE
  8
0
 10
17.210715689199258
 20
15.970516595043973
 11
16.607743342593576
 21
15.347356476057021
  0
LINE
  8
0
 10
16.607743342593576
 20
15.347356476057021
 11
16.04657402368953
 21
15.006514124550074
  0
LINE
  8
0
 10
16.04657402368953
 20
15.006514124550074
 11
15.638091681731114
 21
14.956263877632143
  0
LINE
  8
0
 10
15.638091681731114
 20
14.956263877632143
 11
13.61379727825566
 21
16.819758151961842
  0
LINE
  8
0
 10
13.61379727825566
 20
16.819758151961842
 11
13.630143690661399
 21
17.230994952120085
  0
LINE
  8
0
 10
13.630143690661399
 20
17.230994952120085
 11
13.923480897680038
 21
17.81839413158686
  0
LINE
  8
0
 10
13.923480897680038
 20
17.81839413158686
 11
14.494719547202022
 21
18.47076717667639
  0
LINE
  8
0
 10
14.494719547202022
 20
18.47076717667639
 11
14.530721227792668
 21
18.522392355947673
  0
LINE
  8
0
 10
14.530721227792668
 20
18.522392355947673
 11
14.529951590602742
 21
18.52381452091044
  0
LINE
  8
0
 10
14.529951590602742
 20
18.52381452091044
 11
14.53482437901521
 21
18.52827613459646
  0
LINE
  8
0
 10
14.53482437901521
 20
18.52827613459646
 11
14.578270119469726
 21
18.590575841306205
  0
LINE
  8
0
 10
14.578270119469726
 20
18.590575841306205
 11
14.784660057077513
 21
18.969517514721424
  0
LINE
  8
0
 10
14.784660057077513
 20
18.969517514721424
 11
15.056232782659867
 21
19.633030410831708
  0
LINE
  8
0
 10
15.056232782659867
 20
19.633030410831708
 11
15.331570786320329
 21
20.59684902922004
  0
LINE
  8
0
 10
15.331570786320329
 20
20.59684902922004
 11
15.516909387799576
 21
21.68944984833737
  0
LINE
  8
0
 10
15.516909387799576
 20
21.68944984833737
 11
14.624316500672228
 21
22.384182778660943
  0
LINE
  8
0
 10
14.624316500672228
 20
22.384182778660943
 11
13.629548135096153
 21
22.92252449678747
  0
LINE
  8
0
 10
13.629548135096153
 20
22.92252449678747
 11
12.703423116492804
 21
22.31390359914169
  0
LINE
  8
0
 10
12.703423116492804
 20
22.31390359914169
 11
11.931385750342796
 21
21.6745948703731
  0
LINE
  8
0
 10
11.931385750342796
 20
21.6745948703731
 11
11.432847859520344
 21
21.15936571747196
  0
LINE
  8
0
 10
11.432847859520344
 20
21.15936571747196
 11
11.168729076280096
 21
20.818140181299487
  0
LINE
  8
0
 10
11.168729076280096
 20
20.818140181299487
 11
11.129128621778056
 21
20.753328223891945
  0
LINE
  8
0
 10
11.129128621778056
 20
20.753328223891945
 11
11.127000171775544
 21
20.747073644365475
  0
LINE
  8
0
 10
11.127000171775544
 20
20.747073644365475
 11
11.12538863129872
 21
20.747207180416577
  0
LINE
  8
0
 10
11.12538863129872
 20
20.747207180416577
 11
11.092573379516908
 21
20.69350020337441
  0
LINE
  8
0
 10
11.092573379516908
 20
20.69350020337441
 11
10.724611497693155
 21
19.90831981760837
  0
LINE
  8
0
 10
10.724611497693155
 20
19.90831981760837
 11
10.30451921097709
 21
19.403733864869217
  0
LINE
  8
0
 10
10.30451921097709
 20
19.403733864869217
 11
9.934485797519633
 21
19.223572315310683
  0
LINE
  8
0
 10
9.934485797519633
 20
19.223572315310683
 11
7.414797646696186
 21
20.328810011465468
  0
LINE
  8
0
 10
7.414797646696186
 20
20.328810011465468
 11
7.296729994662699
 21
20.7230725389131
  0
LINE
  8
0
 10
7.296729994662699
 20
20.7230725389131
 11
7.383445180909107
 21
21.37389124603052
  0
LINE
  8
0
 10
7.383445180909107
 20
21.37389124603052
 11
7.711907363288773
 21
22.17639780638593
  0
LINE
  8
0
 10
7.711907363288773
 20
22.17639780638593
 11
7.729195705218579
 21
22.236915517629154
  0
LINE
  8
0
 10
7.729195705218579
 20
22.236915517629154
 11
7.728005992885961
 21
22.23801072498443
  0
LINE
  8
0
 10
7.728005992885961
 20
22.23801072498443
 11
7.731166076582025
 21
22.24381278794124
  0
LINE
  8
0
 10
7.731166076582025
 20
22.24381278794124
 11
7.752029125282099
 21
22.316843733565
  0
LINE
  8
0
 10
7.752029125282099
 20
22.316843733565
 11
7.8241941265676065
 21
22.74226800507045
  0
LINE
  8
0
 10
7.8241941265676065
 20
22.74226800507045
 11
7.8656100076215605
 21
23.458009462149338
  0
LINE
  8
0
 10
7.8656100076215605
 20
23.458009462149338
 11
7.8130780449787745
 21
24.459007832933537
  0
LINE
  8
0
 10
7.8130780449787745
 20
24.459007832933537
 11
7.633607583790529
 21
25.552587871474397
  0
LINE
  8
0
 10
7.633607583790529
 20
25.552587871474397
 11
6.563798427611057
 21
25.91985381868551
  0
LINE
  8
0
 10
6.563798427611057
 20
25.91985381868551
 11
5.448130085824424
 21
26.10602593733216
  0
LINE
  8
0
 10
5.448130085824424
 20
26.10602593733216
 11
4.76980395767152
 21
25.229669496721776
  0
LINE
  8
0
 10
4.76980395767152
 20
25.229669496721776
 11
4.247180910418779
 21
24.37432015528764
  0
LINE
  8
0
 10
4.247180910418779
 20
24.37432015528764
 11
3.9429498101036136
 21
23.72513255051846
  0
LINE
  8
0
 10
3.9429498101036136
 20
23.72513255051846
 11
3.803937461532279
 21
23.316636326372898
  0
LINE
  8
0
 10
3.803937461532279
 20
23.316636326372898
 11
3.7875270770534115
 21
23.2424778130314
  0
LINE
  8
0
 10
3.7875270770534115
 20
23.2424778130314
 11
3.7875448109952843
 21
23.23587101728963
  0
LINE
  8
0
 10
3.7875448109952843
 20
23.23587101728963
 11
3.7859772291416904
 21
23.235474051651728
  0
LINE
  8
0
 10
3.7859772291416904
 20
23.235474051651728
 11
3.772378625153885
 21
23.17402197193025
  0
LINE
  8
0
 10
3.772378625153885
 20
23.17402197193025
 11
3.6793015875245336
 21
22.311907797511846
  0
LINE
  8
0
 10
3.6793015875245336
 20
22.311907797511846
 11
3.4458098506655754
 21
21.69825796097752
  0
LINE
  8
0
 10
3.4458098506655754
 20
21.69825796097752
 11
3.1543242277224888
 21
21.40770840814656
  0
LINE
  8
0
 10
3.1543242277224888
 20
21.40770840814656
 11
0.41228963767809557
 21
21.63491987220967
  0
LINE
  8
0
 10
0.41228963767809557
 20
21.63491987220967
 11
0.17260238331092403
 21
21.96948366451383
  0
LINE
  8
0
 10
0.17260238331092403
 20
21.96948366451383
 11
0.04329861283055386
 21
22.613195593872994
  0
LINE
  8
0
 10
0.04329861283055386
 20
22.613195593872994
 11
0.093390353991183
 21
23.478871631507502
  0
LINE
  8
0
 10
0.093390353991183
 20
23.478871631507502
 11
0.09009189715605181
 21
23.54172384168996
  0
LINE
  8
0
 10
0.09009189715605181
 20
23.54172384168996
 11
0.0886110334722705
 21
23.542373408726917
  0
LINE
  8
0
 10
0.0886110334722705
 20
23.542373408726917
 11
0.08971596834945572
 21
23.548887177395333
  0
LINE
  8
0
 10
0.08971596834945572
 20
23.548887177395333
 11
0.08573549024487526
 21
23.624735325782883
  0
LINE
  8
0
 10
0.08573549024487526
 20
23.624735325782883
 11
0.015855357563448663
 21
24.050540874423234
  0
LINE
  8
0
 10
0.015855357563448663
 20
24.050540874423234
 11
-0.1773736592568009
 21
24.740949199723243
  0
LINE
  8
0
 10
-0.1773736592568009
 20
24.740949199723243
 11
-0.5520829349331033
 21
25.670653617338786
  0
LINE
  8
0
 10
-0.5520829349331033
 20
25.670653617338786
 11
-1.0769140495479659
 21
26.646706509484638
  0
LINE
  8
0
 10
-1.0769140495479659
 20
26.646706509484638
 11
-2.2080090529081158
 21
26.646706509484638
  0
LINE
  8
0
 10
-2.2080090529081158
 20
26.646706509484638
 11
-3.323677394694748
 21
26.460534390837985
  0
LINE
  8
0
 10
-3.323677394694748
 20
26.460534390837985
 11
-3.6806974710975027
 21
25.411409225674376
  0
LINE
  8
0
 10
-3.6806974710975027
 20
25.411409225674376
 11
-3.8972718829510318
 21
24.432709644831583
  0
LINE
  8
0
 10
-3.8972718829510318
 20
24.432709644831583
 11
-3.9742280324078583
 21
23.719913138354666
  0
LINE
  8
0
 10
-3.9742280324078583
 20
23.719913138354666
 11
-3.9730698013437427
 21
23.288413130594176
  0
LINE
  8
0
 10
-3.9730698013437427
 20
23.288413130594176
 11
-3.9645117960077982
 21
23.21294428692717
  0
LINE
  8
0
 10
-3.9645117960077982
 20
23.21294428692717
 11
-3.9623497998693176
 21
23.206701223803723
  0
LINE
  8
0
 10
-3.9623497998693176
 20
23.206701223803723
 11
-3.9637035512823022
 21
23.205816773863233
  0
LINE
  8
0
 10
-3.9637035512823022
 20
23.205816773863233
 11
-3.95661188772994
 21
23.143278877827537
  0
LINE
  8
0
 10
-3.95661188772994
 20
23.143278877827537
 11
-3.764717739898711
 21
22.297654362634706
  0
LINE
  8
0
 10
-3.764717739898711
 20
22.297654362634706
 11
-3.786306474214306
 21
21.64143912385198
  0
LINE
  8
0
 10
-3.786306474214306
 20
21.64143912385198
 11
-3.967657316528909
 21
21.27198712020138
  0
LINE
  8
0
 10
-3.967657316528909
 20
21.27198712020138
 11
-6.6348963509126335
 21
20.596550464502712
  0
LINE
  8
0
 10
-6.6348963509126335
 20
20.596550464502712
 11
-6.970229374474507
 21
20.83516034340214
  0
LINE
  8
0
 10
-6.970229374474507
 20
20.83516034340214
 11
-7.301540031795386
 21
21.40200931923728
  0
LINE
  8
0
 10
-7.301540031795386
 20
21.40200931923728
 11
-7.535246949261996
 21
22.237045403125478
  0
LINE
  8
0
 10
-7.535246949261996
 20
22.237045403125478
 11
-7.558774765895938
 21
22.295421099967008
  0
LINE
  8
0
 10
-7.558774765895938
 20
22.295421099967008
 11
-7.560386306372781
 21
22.29555463601811
  0
LINE
  8
0
 10
-7.560386306372781
 20
22.29555463601811
 11
-7.561456257140456
 21
22.302074242545757
  0
LINE
  8
0
 10
-7.561456257140456
 20
22.302074242545757
 11
-7.589848915483577
 21
22.372520269914027
  0
LINE
  8
0
 10
-7.589848915483577
 20
22.372520269914027
 11
-7.794201585453927
 21
22.752564457440254
  0
LINE
  8
0
 10
-7.794201585453927
 20
22.752564457440254
 11
-8.201136137918787
 21
23.342823196126187
  0
LINE
  8
0
 10
-8.201136137918787
 20
23.342823196126187
 11
-8.857417162395608
 21
24.10048576107405
  0
LINE
  8
0
 10
-8.857417162395608
 20
24.10048576107405
 11
-9.67073533557476
 21
24.853241030939817
  0
LINE
  8
0
 10
-9.67073533557476
 20
24.853241030939817
 11
-10.74054449175423
 21
24.485975083728707
  0
LINE
  8
0
 10
-10.74054449175423
 20
24.485975083728707
 11
-11.735312857330305
 21
23.94763336560218
  0
LINE
  8
0
 10
-11.735312857330305
 20
23.94763336560218
 11
-11.732338216967408
 21
22.83942846638502
  0
LINE
  8
0
 10
-11.732338216967408
 20
22.83942846638502
 11
-11.61939479539915
 21
21.843435931806567
  0
LINE
  8
0
 10
-11.61939479539915
 20
21.843435931806567
 11
-11.460736601106296
 21
21.14427308527605
  0
LINE
  8
0
 10
-11.460736601106296
 20
21.14427308527605
 11
-11.319533302714337
 21
20.736529015153955
  0
LINE
  8
0
 10
-11.319533302714337
 20
20.736529015153955
 11
-11.286934300232863
 21
20.66792806139252
  0
LINE
  8
0
 10
-11.286934300232863
 20
20.66792806139252
 11
-11.282862327726207
 21
20.66272526364793
  0
LINE
  8
0
 10
-11.282862327726207
 20
20.66272526364793
 11
-11.283855548727367
 21
20.66144917327956
  0
LINE
  8
0
 10
-11.283855548727367
 20
20.66144917327956
 11
-11.256842109419237
 21
20.60460241234055
  0
LINE
  8
0
 10
-11.256842109419237
 20
20.60460241234055
 11
-10.800771484589427
 21
19.867104093810713
  0
LINE
  8
0
 10
-10.800771484589427
 20
19.867104093810713
 11
-10.608117742014839
 21
19.23943455613024
  0
LINE
  8
0
 10
-10.608117742014839
 20
19.23943455613024
 11
-10.659681625981838
 21
18.831115958843313
  0
LINE
  8
0
 10
-10.659681625981838
 20
18.831115958843313
 11
-12.963088368846709
 21
17.326225225492127
  0
LINE
  8
0
 10
-12.963088368846709
 20
17.326225225492127
 11
-13.357728625283364
 21
17.443024108260296
  0
LINE
  8
0
 10
-13.357728625283364
 20
17.443024108260296
 11
-13.855143518909511
 21
17.871583248471577
  0
LINE
  8
0
 10
-13.855143518909511
 20
17.871583248471577
 11
-14.347323324159394
 21
18.585490262004342
  0
LINE
  8
0
 10
-14.347323324159394
 20
18.585490262004342
 11
-14.388530896585916
 21
18.633063533062657
  0
LINE
  8
0
 10
-14.388530896585916
 20
18.633063533062657
 11
-14.39009847843953
 21
18.63266656742475
  0
LINE
  8
0
 10
-14.39009847843953
 20
18.63266656742475
 11
-14.393227369086645
 21
18.638485511179468
  0
LINE
  8
0
 10
-14.393227369086645
 20
18.638485511179468
 11
-14.44295542257934
 21
18.69589549738038
  0
LINE
  8
0
 10
-14.44295542257934
 20
18.69589549738038
 11
-14.759635847188944
 21
18.98899463908085
  0
LINE
  8
0
 10
-14.759635847188944
 20
18.98899463908085
 11
-15.33617826229869
 21
19.415140098008088
  0
LINE
  8
0
 10
-15.33617826229869
 20
19.415140098008088
 11
-16.202912803324654
 21
19.918656315030177
  0
LINE
  8
0
 10
-16.202912803324654
 20
19.918656315030177
 11
-17.216582391072397
 21
20.366541248924438
  0
LINE
  8
0
 10
-17.216582391072397
 20
20.366541248924438
 11
-18.109175278199746
 21
19.671808318600867
  0
LINE
  8
0
 10
-18.109175278199746
 20
19.671808318600867
 11
-18.875245079733535
 21
18.83963467938589
  0
LINE
  8
0
 10
-18.875245079733535
 20
18.83963467938589
 11
-18.512598071044607
 21
17.792441242516094
  0
LINE
  8
0
 10
-18.512598071044607
 20
17.792441242516094
 11
-18.08237598827924
 21
16.887086999740053
  0
LINE
  8
0
 10
-18.08237598827924
 20
16.887086999740053
 11
-17.705296527423876
 21
16.27732295620686
  0
LINE
  8
0
 10
-17.705296527423876
 20
16.27732295620686
 11
-17.439349730079755
 21
15.937520220522009
  0
LINE
  8
0
 10
-17.439349730079755
 20
15.937520220522009
 11
-17.38624233819727
 21
15.883221134459673
  0
LINE
  8
0
 10
-17.38624233819727
 20
15.883221134459673
 11
-17.38070165072669
 21
15.879622405959282
  0
LINE
  8
0
 10
-17.38070165072669
 20
15.879622405959282
 11
-17.38122671040914
 21
15.878092959355035
  0
LINE
  8
0
 10
-17.38122671040914
 20
15.878092959355035
 11
-17.33721882065097
 21
15.833097562128822
  0
LINE
  8
0
 10
-17.33721882065097
 20
15.833097562128822
 11
-16.666394047687774
 21
15.283644826540163
  0
LINE
  8
0
 10
-16.666394047687774
 20
15.283644826540163
 11
-16.280374850561774
 21
14.752538723665973
  0
LINE
  8
0
 10
-16.280374850561774
 20
14.752538723665973
 11
-16.19656402928108
 21
14.34960118850612
  0
LINE
  8
0
 10
-16.19656402928108
 20
14.34960118850612
 11
-17.886528619001147
 21
12.178334639255677
  0
LINE
  8
0
 10
-17.886528619001147
 20
12.178334639255677
 11
-18.29771071302774
 21
12.16066555458271
  0
LINE
  8
0
 10
-18.29771071302774
 20
12.16066555458271
 11
-18.907327221047453
 21
12.404493826548022
  0
LINE
  8
0
 10
-18.907327221047453
 20
12.404493826548022
 11
-19.604644595225242
 21
12.919908867400418
  0
LINE
  8
0
 10
-19.604644595225242
 20
12.919908867400418
 11
-19.65906644354537
 21
12.951524410470725
  0
LINE
  8
0
 10
-19.65906644354537
 20
12.951524410470725
 11
-19.660420194958363
 21
12.950639960530223
  0
LINE
  8
0
 10
-19.660420194958363
 20
12.950639960530223
 11
-19.665268961658757
 21
12.95512766877624
  0
LINE
  8
0
 10
-19.665268961658757
 20
12.95512766877624
 11
-19.73094360409485
 21
12.9932803509972
  0
LINE
  8
0
 10
-19.73094360409485
 20
12.9932803509972
 11
-20.12563454553419
 21
13.167672606966917
  0
LINE
  8
0
 10
-20.12563454553419
 20
13.167672606966917
 11
-20.809307506634372
 21
13.383525313332607
  0
LINE
  8
0
 10
-20.809307506634372
 20
13.383525313332607
 11
-21.79257142791724
 21
13.57833138745548
  0
LINE
  8
0
 10
-21.79257142791724
 20
13.57833138745548
 11
-22.89674560169687
 21
13.672810703139996
  0
LINE
  8
0
 10
-22.89674560169687
 20
13.672810703139996
 11
-23.515395930446186
 21
12.725895882596634
  0
LINE
  8
0
 10
-23.515395930446186
 20
12.725895882596634
 11
-23.9697516181438
 21
11.690069248606589
  0
LINE
  8
0
 10
-23.9697516181438
 20
11.690069248606589
 11
-23.286730671568396
 21
10.817366931849351
  0
LINE
  8
0
 10
-23.286730671568396
 20
10.817366931849351
 11
-22.585851165856965
 21
10.100760161098998
  0
LINE
  8
0
 10
-22.585851165856965
 20
10.100760161098998
 11
-22.03121284901345
 21
9.64647231614393
  0
LINE
  8
0
 10
-22.03121284901345
 20
9.64647231614393
 11
-21.669342014799152
 21
9.41143381389048
  0
LINE
  8
0
 10
-21.669342014799152
 20
9.41143381389048
 11
-21.601481243472204
 21
9.377320744039226
  0
LINE
  8
0
 10
-21.601481243472204
 20
9.377320744039226
 11
-21.595072260497762
 21
9.375716062856082
  0
LINE
  8
0
 10
-21.595072260497762
 20
9.375716062856082
 11
-21.595072260497783
 21
9.374098999287334
  0
LINE
  8
0
 10
-21.595072260497783
 20
9.374098999287334
 11
-21.53883885799764
 21
9.34583091523891
  0
LINE
  8
0
 10
-21.53883885799764
 20
9.34583091523891
 11
-20.725954209970425
 21
9.043965492130075
  0
LINE
  8
0
 10
-20.725954209970425
 20
9.043965492130075
 11
-20.188400728006602
 21
8.666976411268864
  0
LINE
  8
0
 10
-20.188400728006602
 20
8.666976411268864
 11
-19.978297404399385
 21
8.313084472366405
  0
LINE
  8
0
 10
-19.978297404399385
 20
8.313084472366405
 11
-20.871685955176098
 21
5.710732528500491
  0
LINE
  8
0
 10
-20.871685955176098
 20
5.710732528500491
 11
-21.254851926780734
 21
5.560510195898381
  0
LINE
  8
0
 10
-21.254851926780734
 20
5.560510195898381
 11
-21.910608641375344
 21
5.593185022964829
  0
LINE
  8
0
 10
-21.910608641375344
 20
5.593185022964829
 11
-22.737498426994993
 21
5.854254873972131
  0
LINE
  8
0
 10
-22.737498426994993
 20
5.854254873972131
 11
-22.79923709953134
 21
5.8664866544638405
  0
LINE
  8
0
 10
-22.79923709953134
 20
5.8664866544638405
 11
-22.800230320532506
 21
5.865210564095459
  0
LINE
  8
0
 10
-22.800230320532506
 20
5.865210564095459
 11
-22.80627352414775
 21
5.867880723943582
  0
LINE
  8
0
 10
-22.80627352414775
 20
5.867880723943582
 11
-22.880777888972208
 21
5.882641667066083
  0
LINE
  8
0
 10
-22.880777888972208
 20
5.882641667066083
 11
-23.31070845947536
 21
5.9194289303960606
  0
LINE
  8
0
 10
-23.31070845947536
 20
5.9194289303960606
 11
-24.027425392951777
 21
5.901597894165652
  0
LINE
  8
0
 10
-24.027425392951777
 20
5.901597894165652
 11
-25.02066679170883
 21
5.766583564530416
  0
LINE
  8
0
 10
-25.02066679170883
 20
5.766583564530416
 11
-26.095691146763745
 21
5.497418962153143
  0
LINE
  8
0
 10
-26.095691146763745
 20
5.497418962153143
 11
-26.373358554666137
 21
4.400935165093162
  0
LINE
  8
0
 10
-26.373358554666137
 20
4.400935165093162
 11
-26.466763639710646
 21
3.273703424627101
  0
LINE
  8
0
 10
-26.466763639710646
 20
3.273703424627101
 11
-25.537384672972173
 21
2.6700630653747286
  0
LINE
  8
0
 10
-25.537384672972173
 20
2.6700630653747286
 11
-24.641798914024555
 21
2.2198592295605764
  0
LINE
  8
0
 10
-24.641798914024555
 20
2.2198592295605764
 11
-23.969705408923094
 21
1.970276720186715
  0
LINE
  8
0
 10
-23.969705408923094
 20
1.970276720186715
 11
-23.551124857730255
 21
1.8654725200819464
  0
LINE
  8
0
 10
-23.551124857730255
 20
1.8654725200819464
 11
-23.475864474500472
 21
1.8552421468789726
  0
LINE
  8
0
 10
-23.475864474500472
 20
1.8552421468789726
 11
-23.46928170877308
 21
1.8558054051184656
  0
LINE
  8
0
 10
-23.46928170877308
 20
1.8558054051184656
 11
-23.468756649090643
 21
1.8542759585142106
  0
LINE
  8
0
 10
-23.468756649090643
 20
1.8542759585142106
 11
-23.40639149556056
 21
1.8457984731747374
  0
LINE
  8
0
 10
-23.40639149556056
 20
1.8457984731747374
 11
-22.539535637287997
 21
1.8242321650642186
  0
LINE
  8
0
 10
-22.539535637287997
 20
1.8242321650642186
 11
-21.9087001312588
 21
1.6422127227155943
  0
LINE
  8
0
 10
-21.9087001312588
 20
1.6422127227155943
 11
-21.595072260532916
 21
1.3757160628561853
  0
LINE
  8
0
 10
-21.595072260532916
 20
1.3757160628561853
 11
-21.595072260545003
 21
-1.3757160628561
  0
LINE
  8
0
 10
-21.595072260545003
 20
-1.3757160628561
 11
-21.908700131258612
 21
-1.6422127227169874
  0
LINE
  8
0
 10
-21.908700131258612
 20
-1.6422127227169874
 11
-22.539535637287983
 21
-1.82423216506423
  0
LINE
  8
0
 10
-22.539535637287983
 20
-1.82423216506423
 11
-23.406391495560605
 21
-1.8457984731747823
  0
LINE
  8
0
 10
-23.406391495560605
 20
-1.8457984731747823
 11
-23.46875664914629
 21
-1.854275958495096
  0
LINE
  8
0
 10
-23.46875664914629
 20
-1.854275958495096
 11
-23.469281708828742
 21
-1.855805405099364
  0
LINE
  8
0
 10
-23.469281708828742
 20
-1.855805405099364
 11
-23.475864474500515
 21
-1.8552421468789604
  0
LINE
  8
0
 10
-23.475864474500515
 20
-1.8552421468789604
 11
-23.551124857730272
 21
-1.8654725200818703
  0
LINE
  8
0
 10
-23.551124857730272
 20
-1.8654725200818703
 11
-23.96970540892309
 21
-1.9702767201866356
  0
LINE
  8
0
 10
-23.96970540892309
 20
-1.9702767201866356
 11
-24.641798914024506
 21
-2.219859229560545
  0
LINE
  8
0
 10
-24.641798914024506
 20
-2.219859229560545
 11
-25.537384672972195
 21
-2.6700630653747366
  0
LINE
  8
0
 10
-25.537384672972195
 20
-2.6700630653747366
 11
-26.46676363971065
 21
-3.2737034246270964
  0
LINE
  8
0
 10
-26.46676363971065
 20
-3.2737034246270964
 11
-26.37335855466614
 21
-4.400935165093142
  0
LINE
  8
0
 10
-26.37335855466614
 20
-4.400935165093142
 11
-26.09569114676375
 21
-5.4974189621531275
  0
LINE
  8
0
 10
-26.09569114676375
 20
-5.4974189621531275
 11
-25.02066679170881
 21
-5.766583564530405
  0
LINE
  8
0
 10
-25.02066679170881
 20
-5.766583564530405
 11
-24.027425392951837
 21
-5.901597894165629
  0
LINE
  8
0
 10
-24.027425392951837
 20
-5.901597894165629
 11
-23.310708459475396
 21
-5.919428930395978
  0
LINE
  8
0
 10
-23.310708459475396
 20
-5.919428930395978
 11
-22.880777888972215
 21
-5.882641667065994
  0
LINE
  8
0
 10
-22.880777888972215
 20
-5.882641667065994
 11
-22.80627352414772
 21
-5.867880723943547
  0
LINE
  8
0
 10
-22.80627352414772
 20
-5.867880723943547
 11
-22.80023032047606
 21
-5.865210564051521
  0
LINE
  8
0
 10
-22.80023032047606
 20
-5.865210564051521
 11
-22.799237099474915
 21
-5.866486654419899
  0
LINE
  8
0
 10
-22.799237099474915
 20
-5.866486654419899
 11
-22.737498426994936
 21
-5.854254873972149
  0
LINE
  8
0
 10
-22.737498426994936
 20
-5.854254873972149
 11
-21.910608641375354
 21
-5.5931850229648346
  0
LINE
  8
0
 10
-21.910608641375354
 20
-5.5931850229648346
 11
-21.254851926780468
 21
-5.5605101958997505
  0
LINE
  8
0
 10
-21.254851926780468
 20
-5.5605101958997505
 11
-20.871685955178368
 21
-5.710732528501171
  0
LINE
  8
0
 10
-20.871685955178368
 20
-5.710732528501171
 11
-19.978297404415255
 21
-8.313084472371756
  0
LINE
  8
0
 10
-19.978297404415255
 20
-8.313084472371756
 11
-20.188400728005973
 21
-8.666976411270111
  0
LINE
  8
0
 10
-20.188400728005973
 20
-8.666976411270111
 11
-20.725954209970418
 21
-9.043965492130075
  0
LINE
  8
0
 10
-20.725954209970418
 20
-9.043965492130075
 11
-21.538838857997664
 21
-9.345830915238954
  0
LINE
  8
0
 10
-21.538838857997664
 20
-9.345830915238954
 11
-21.59507226058015
 21
-9.374098999287307
  0
LINE
  8
0
 10
-21.59507226058015
 20
-9.374098999287307
 11
-21.595072260580157
 21
-9.375716062856078
  0
LINE
  8
0
 10
-21.595072260580157
 20
-9.375716062856078
 11
-21.601481243472247
 21
-9.377320744039219
  0
LINE
  8
0
 10
-21.601481243472247
 20
-9.377320744039219
 11
-21.6693420147992
 21
-9.411433813890408
  0
LINE
  8
0
 10
-21.6693420147992
 20
-9.411433813890408
 11
-22.031212849013478
 21
-9.646472316143845
  0
LINE
  8
0
 10
-22.031212849013478
 20
-9.646472316143845
 11
-22.58585116585693
 21
-10.100760161098945
  0
LINE
  8
0
 10
-22.58585116585693
 20
-10.100760161098945
 11
-23.28673067156842
 21
-10.817366931849355
  0
LINE
  8
0
 10
-23.28673067156842
 20
-10.817366931849355
 11
-23.969751618143807
 21
-11.690069248606575
  0
LINE
  8
0
 10
-23.969751618143807
 20
-11.690069248606575
 11
-23.515395930446196
 21
-12.725895882596618
  0
LINE
  8
0
 10
-23.515395930446196
 20
-12.725895882596618
 11
-22.89674560169688
 21
-13.672810703139985
  0
LINE
  8
0
 10
-22.89674560169688
 20
-13.672810703139985
 11
-21.79257142791722
 21
-13.578331387455465
  0
LINE
  8
0
 10
-21.79257142791722
 20
-13.578331387455465
 11
-20.80930750663444
 21
-13.383525313332607
  0
LINE
  8
0
 10
-20.80930750663444
 20
-13.383525313332607
 11
-20.12563454553425
 21
-13.167672606966848
  0
LINE
  8
0
 10
-20.12563454553425
 20
-13.167672606966848
 11
-19.73094360409489
 21
-12.99328035099712
  0
LINE
  8
0
 10
-19.73094360409489
 20
-12.99328035099712
 11
-19.665268961658743
 21
-12.955127668776198
  0
LINE
  8
0
 10
-19.665268961658743
 20
-12.955127668776198
 11
-19.660420194930616
 21
-12.950639960487743
  0
LINE
  8
0
 10
-19.660420194930616
 20
-12.950639960487743
 11
-19.65906644351764
 21
-12.951524410428245
  0
LINE
  8
0
 10
-19.65906644351764
 20
-12.951524410428245
 11
-19.60464459522518
 21
-12.919908867400416
  0
LINE
  8
0
 10
-19.60464459522518
 20
-12.919908867400416
 11
-18.90732722104746
 21
-12.404493826548029
  0
LINE
  8
0
 10
-18.90732722104746
 20
-12.404493826548029
 11
-18.29771071302704
 21
-12.16066555458392
  0
LINE
  8
0
 10
-18.29771071302704
 20
-12.16066555458392
 11
-17.88652861898643
 21
-12.178334639244104
  0
LINE
  8
0
 10
-17.88652861898643
 20
-12.178334639244104
 11
-16.196564029283415
 21
-14.349601188507817
  0
LINE
  8
0
 10
-16.196564029283415
 20
-14.349601188507817
 11
-16.280374850560776
 21
-14.752538723666948
  0
LINE
  8
0
 10
-16.280374850560776
 20
-14.752538723666948
 11
-16.666394047687767
 21
-15.28364482654016
  0
LINE
  8
0
 10
-16.666394047687767
 20
-15.28364482654016
 11
-17.33721882065099
 21
-15.833097562128879
  0
LINE
  8
0
 10
-17.33721882065099
 20
-15.833097562128879
 11
-17.381226710484597
 21
-15.878092959380915
  0
LINE
  8
0
 10
-17.381226710484597
 20
-15.878092959380915
 11
-17.380701650802152
 21
-15.879622405985184
  0
LINE
  8
0
 10
-17.380701650802152
 20
-15.879622405985184
 11
-17.386242338197313
 21
-15.883221134459674
  0
LINE
  8
0
 10
-17.386242338197313
 20
-15.883221134459674
 11
-17.439349730079833
 21
-15.93752022052195
  0
LINE
  8
0
 10
-17.439349730079833
 20
-15.93752022052195
 11
-17.70529652742393
 21
-16.27732295620678
  0
LINE
  8
0
 10
-17.70529652742393
 20
-16.27732295620678
 11
-18.082375988279225
 21
-16.88708699973999
  0
LINE
  8
0
 10
-18.082375988279225
 20
-16.88708699973999
 11
-18.512598071044632
 21
-17.792441242516105
  0
LINE
  8
0
 10
-18.512598071044632
 20
-17.792441242516105
 11
-18.875245079733553
 21
-18.839634679385878
  0
LINE
  8
0
 10
-18.875245079733553
 20
-18.839634679385878
 11
-18.109175278199764
 21
-19.671808318600853
  0
LINE
  8
0
 10
-18.109175278199764
 20
-19.671808318600853
 11
-17.216582391072414
 21
-20.366541248924428
  0
LINE
  8
0
 10
-17.216582391072414
 20
-20.366541248924428
 11
-16.202912803324644
 21
-19.91865631503015
  0
LINE
  8
0
 10
-16.202912803324644
 20
-19.91865631503015
 11
-15.336178262298754
 21
-19.41514009800811
  0
LINE
  8
0
 10
-15.336178262298754
 20
-19.41514009800811
 11
-14.759635847189022
 21
-18.9889946390808
  0
LINE
  8
0
 10
-14.759635847189022
 20
-18.9889946390808
 11
-14.442955422579399
 21
-18.695895497380306
  0
LINE
  8
0
 10
-14.442955422579399
 20
-18.695895497380306
 11
-14.39322736908664
 21
-18.63848551117942
  0
LINE
  8
0
 10
-14.39322736908664
 20
-18.63848551117942
 11
-14.390098478413396
 21
-18.632666567321543
  0
LINE
  8
0
 10
-14.390098478413396
 20
-18.632666567321543
 11
-14.38853089655981
 21
-18.633063532959476
  0
LINE
  8
0
 10
-14.38853089655981
 20
-18.633063532959476
 11
-14.34732332415934
 21
-18.585490262004328
  0
LINE
  8
0
 10
-14.34732332415934
 20
-18.585490262004328
 11
-13.855143518909516
 21
-17.87158324847158
  0
LINE
  8
0
 10
-13.855143518909516
 20
-17.87158324847158
 11
-13.357728625282311
 21
-17.443024108261213
  0
LINE
  8
0
 10
-13.357728625282311
 20
-17.443024108261213
 11
-12.963088368844398
 21
-17.32622522548842
  0
LINE
  8
0
 10
-12.963088368844398
 20
-17.32622522548842
 11
-10.659681625986392
 21
-18.831115958850113
  0
LINE
  8
0
 10
-10.659681625986392
 20
-18.831115958850113
 11
-10.608117742013574
 21
-19.239434556130835
  0
LINE
  8
0
 10
-10.608117742013574
 20
-19.239434556130835
 11
-10.800771484589422
 21
-19.867104093810703
  0
LINE
  8
0
 10
-10.800771484589422
 20
-19.867104093810703
 11
-11.256842109419232
 21
-20.604602412340604
  0
LINE
  8
0
 10
-11.256842109419232
 20
-20.604602412340604
 11
-11.28385554880279
 21
-20.661449173338234
  0
LINE
  8
0
 10
-11.28385554880279
 20
-20.661449173338234
 11
-11.282862327801627
 21
-20.66272526370663
  0
LINE
  8
0
 10
-11.282862327801627
 20
-20.66272526370663
 11
-11.286934300232906
 21
-20.667928061392537
  0
LINE
  8
0
 10
-11.286934300232906
 20
-20.667928061392537
 11
-11.319533302714422
 21
-20.736529015153927
  0
LINE
  8
0
 10
-11.319533302714422
 20
-20.736529015153927
 11
-11.46073660110637
 21
-21.144273085275998
  0
LINE
  8
0
 10
-11.46073660110637
 20
-21.144273085275998
 11
-11.619394795399158
 21
-21.8434359318065
  0
LINE
  8
0
 10
-11.619394795399158
 20
-21.8434359318065
 11
-11.732338216967424
 21
-22.839428466385037
  0
LINE
  8
0
 10
-11.732338216967424
 20
-22.839428466385037
 11
-11.73531285733032
 21
-23.947633365602172
  0
LINE
  8
0
 10
-11.73531285733032
 20
-23.947633365602172
 11
-10.740544491754248
 21
-24.4859750837287
  0
LINE
  8
0
 10
-10.740544491754248
 20
-24.4859750837287
 11
-9.670735335574774
 21
-24.853241030939813
  0
LINE
  8
0
 10
-9.670735335574774
 20
-24.853241030939813
 11
-8.857417162395604
 21
-24.10048576107403
  0
LINE
  8
0
 10
-8.857417162395604
 20
-24.10048576107403
 11
-8.201136137918839
 21
-23.34282319612623
  0
LINE
  8
0
 10
-8.201136137918839
 20
-23.34282319612623
 11
-7.794201585454013
 21
-22.75256445744024
  0
LINE
  8
0
 10
-7.794201585454013
 20
-22.75256445744024
 11
-7.589848915483653
 21
-22.37252026991399
  0
LINE
  8
0
 10
-7.589848915483653
 20
-22.37252026991399
 11
-7.561456257140468
 21
-22.302074242545718
  0
LINE
  8
0
 10
-7.561456257140468
 20
-22.302074242545718
 11
-7.5603863063763
 21
-22.29555463597565
  0
LINE
  8
0
 10
-7.5603863063763
 20
-22.29555463597565
 11
-7.558774765899472
 21
-22.295421099924567
  0
LINE
  8
0
 10
-7.558774765899472
 20
-22.295421099924567
 11
-7.535246949261947
 21
-22.23704540312545
  0
LINE
  8
0
 10
-7.535246949261947
 20
-22.23704540312545
 11
-7.301540031795387
 21
-21.402009319237294
  0
LINE
  8
0
 10
-7.301540031795387
 20
-21.402009319237294
 11
-6.970229374473213
 21
-20.835160343402666
  0
LINE
  8
0
 10
-6.970229374473213
 20
-20.835160343402666
 11
-6.634896350905035
 21
-20.596550464472323
  0
LINE
  8
0
 10
-6.634896350905035
 20
-20.596550464472323
 11
-3.9676573165276112
 21
-21.271987120195874
  0
LINE
  8
0
 10
-3.9676573165276112
 20
-21.271987120195874
 11
-3.786306474212917
 21
-21.641439123852138
  0
LINE
  8
0
 10
-3.786306474212917
 20
-21.641439123852138
 11
-3.7647177398987055
 21
-22.297654362634695
  0
LINE
  8
0
 10
-3.7647177398987055
 20
-22.297654362634695
 11
-3.9566118877299163
 21
-23.14327887782759
  0
LINE
  8
0
 10
-3.9566118877299163
 20
-23.14327887782759
 11
-3.963703551307688
 21
-23.205816773902058
  0
LINE
  8
0
 10
-3.963703551307688
 20
-23.205816773902058
 11
-3.9623497998946986
 21
-23.206701223842565
  0
LINE
  8
0
 10
-3.9623497998946986
 20
-23.206701223842565
 11
-3.9645117960078284
 21
-23.212944286927197
  0
LINE
  8
0
 10
-3.9645117960078284
 20
-23.212944286927197
 11
-3.97306980134383
 21
-23.288413130594176
  0
LINE
  8
0
 10
-3.97306980134383
 20
-23.288413130594176
 11
-3.9742280324079435
 21
-23.71991313835464
  0
LINE
  8
0
 10
-3.9742280324079435
 20
-23.71991313835464
 11
-3.8972718829510593
 21
-24.432709644831526
  0
LINE
  8
0
 10
-3.8972718829510593
 20
-24.432709644831526
 11
-3.6806974710975107
 21
-25.411409225674394
  0
LINE
  8
0
 10
-3.6806974710975107
 20
-25.411409225674394
 11
-3.323677394694762
 21
-26.460534390837985
  0
LINE
  8
0
 10
-3.323677394694762
 20
-26.460534390837985
 11
-2.2080090529081335
 21
-26.646706509484638
  0
LINE
  8
0
 10
-2.2080090529081335
 20
-26.646706509484638
 11
-1.0769140495479743
 21
-26.646706509484638
  0
LINE
  8
0
 10
-1.0769140495479743
 20
-26.646706509484638
 11
-0.5520829349331022
 21
-25.670653617338765
  0
LINE
  8
0
 10
-0.5520829349331022
 20
-25.670653617338765
 11
-0.17737365925683182
 21
-24.740949199723296
  0
LINE
  8
0
 10
-0.17737365925683182
 20
-24.740949199723296
 11
0.015855357563365452
 21
-24.050540874423245
  0
LINE
  8
0
 10
0.015855357563365452
 20
-24.050540874423245
 11
0.08573549024479432
 21
-23.624735325782876
  0
LINE
  8
0
 10
0.08573549024479432
 20
-23.624735325782876
 11
0.08971596834943663
 21
-23.548887177395297
  0
LINE
  8
0
 10
0.08971596834943663
 20
-23.548887177395297
 11
0.08861103343723331
 21
-23.54237340864703
  0
LINE
  8
0
 10
0.08861103343723331
 20
-23.54237340864703
 11
0.09009189712100674
 21
-23.541723841610093
  0
LINE
  8
0
 10
0.09009189712100674
 20
-23.541723841610093
 11
0.09339035399121998
 21
-23.47887163150745
  0
LINE
  8
0
 10
0.09339035399121998
 20
-23.47887163150745
 11
0.04329861283056197
 21
-22.613195593873005
  0
LINE
  8
0
 10
0.04329861283056197
 20
-22.613195593873005
 11
0.17260238331232403
 21
-21.969483664513906
  0
LINE
  8
0
 10
0.17260238331232403
 20
-21.969483664513906
 11
0.4122896376810137
 21
-21.634919872245966
  0
LINE
  8
0
 10
0.4122896376810137
 20
-21.634919872245966
 11
3.1543242277269194
 21
-21.407708408201113
  0
LINE
  8
0
 10
3.1543242277269194
 20
-21.407708408201113
 11
3.4458098506669432
 21
-21.69825796097722
  0
LINE
  8
0
 10
3.4458098506669432
 20
-21.69825796097722
 11
3.6793015875245403
 21
-22.311907797511832
  0
LINE
  8
0
 10
3.6793015875245403
 20
-22.311907797511832
 11
3.772378625153931
 21
-23.17402197193029
  0
LINE
  8
0
 10
3.772378625153931
 20
-23.17402197193029
 11
3.7859772291273597
 21
-23.235474051708255
  0
LINE
  8
0
 10
3.7859772291273597
 20
-23.235474051708255
 11
3.7875448109809646
 21
-23.235871017346177
  0
LINE
  8
0
 10
3.7875448109809646
 20
-23.235871017346177
 11
3.787527077053401
 21
-23.242477813031442
  0
LINE
  8
0
 10
3.787527077053401
 20
-23.242477813031442
 11
3.803937461532203
 21
-23.316636326372933
  0
LINE
  8
0
 10
3.803937461532203
 20
-23.316636326372933
 11
3.9429498101035283
 21
-23.725132550518463
  0
LINE
  8
0
 10
3.9429498101035283
 20
-23.725132550518463
 11
4.24718091041874
 21
-24.37432015528759
  0
LINE
  8
0
 10
4.24718091041874
 20
-24.37432015528759
 11
4.769803957671526
 21
-25.2296694967218
  0
LINE
  8
0
 10
4.769803957671526
 20
-25.2296694967218
 11
5.448130085824416
 21
-26.10602593733216
  0
LINE
  8
0
 10
5.448130085824416
 20
-26.10602593733216
 11
6.563798427611045
 21
-25.91985381868551
  0
LINE
  8
0
 10
6.563798427611045
 20
-25.91985381868551
 11
7.63360758379052
 21
-25.5525878714744
  0
LINE
  8
0
 10
7.63360758379052
 20
-25.5525878714744
 11
7.813078044978769
 21
-24.459007832933516
  0
LINE
  8
0
 10
7.813078044978769
 20
-24.459007832933516
 11
7.865610007621548
 21
-23.4580094621494
  0
LINE
  8
0
 10
7.865610007621548
 20
-23.4580094621494
 11
7.824194126567532
 21
-22.74226800507049
  0
LINE
  8
0
 10
7.824194126567532
 20
-22.74226800507049
 11
7.752029125282019
 21
-22.316843733565015
  0
LINE
  8
0
 10
7.752029125282019
 20
-22.316843733565015
 11
7.731166076581995
 21
-22.24381278794122
  0
LINE
  8
0
 10
7.731166076581995
 20
-22.24381278794122
 11
7.7280059928359925
 21
-22.238010724930156
  0
LINE
  8
0
 10
7.7280059928359925
 20
-22.238010724930156
 11
7.729195705168609
 21
-22.236915517574904
  0
LINE
  8
0
 10
7.729195705168609
 20
-22.236915517574904
 11
7.711907363288791
 21
-22.176397806385875
  0
LINE
  8
0
 10
7.711907363288791
 20
-22.176397806385875
 11
7.383445180909118
 21
-21.373891246030528
  0
LINE
  8
0
 10
7.383445180909118
 20
-21.373891246030528
 11
7.296729994664048
 21
-20.723072538912717
  0
LINE
  8
0
 10
7.296729994664048
 20
-20.723072538912717
 11
7.414797646684375
 21
-20.328810011438772
  0
LINE
  8
0
 10
7.414797646684375
 20
-20.328810011438772
 11
9.934485797517421
 21
-19.223572315305866
  0
LINE
  8
0
 10
9.934485797517421
 20
-19.223572315305866
 11
10.304519210978286
 21
-19.403733864868485
  0
LINE
  8
0
 10
10.304519210978286
 20
-19.403733864868485
 11
10.724611497693159
 21
-19.908319817608362
  0
LINE
  8
0
 10
10.724611497693159
 20
-19.908319817608362
 11
11.092573379516963
 21
-20.69350020337444
  0
LINE
  8
0
 10
11.092573379516963
 20
-20.69350020337444
 11
11.12538863130536
 21
-20.747207180496858
  0
LINE
  8
0
 10
11.12538863130536
 20
-20.747207180496858
 11
11.127000171782202
 21
-20.747073644445766
  0
LINE
  8
0
 10
11.127000171782202
 20
-20.747073644445766
 11
11.129128621778055
 21
-20.75332822389199
  0
LINE
  8
0
 10
11.129128621778055
 20
-20.75332822389199
 11
11.168729076280032
 21
-20.818140181299547
  0
LINE
  8
0
 10
11.168729076280032
 20
-20.818140181299547
 11
11.432847859520265
 21
-21.159365717471992
  0
LINE
  8
0
 10
11.432847859520265
 20
-21.159365717471992
 11
11.931385750342743
 21
-21.67459487037307
  0
LINE
  8
0
 10
11.931385750342743
 20
-21.67459487037307
 11
12.703423116492816
 21
-22.31390359914171
  0
LINE
  8
0
 10
12.703423116492816
 20
-22.31390359914171
 11
13.629548135096144
 21
-22.922524496787478
  0
LINE
  8
0
 10
13.629548135096144
 20
-22.922524496787478
 11
14.624316500672196
 21
-22.384182778660968
  0
LINE
  8
0
 10
14.624316500672196
 20
-22.384182778660968
 11
15.516909387799549
 21
-21.689449848337397
  0
LINE
  8
0
 10
15.516909387799549
 20
-21.689449848337397
 11
15.331570786320299
 21
-20.59684902922004
  0
LINE
  8
0
 10
15.331570786320299
 20
-20.59684902922004
 11
15.056232782659858
 21
-19.633030410831786
  0
LINE
  8
0
 10
15.056232782659858
 20
-19.633030410831786
 11
14.784660057077437
 21
-18.969517514721502
  0
LINE
  8
0
 10
14.784660057077437
 20
-18.969517514721502
 11
14.578270119469634
 21
-18.590575841306254
  0
LINE
  8
0
 10
14.578270119469634
 20
-18.590575841306254
 11
14.534824379064371
 21
-18.52827613456213
  0
LINE
  8
0
 10
14.534824379064371
 20
-18.52827613456213
 11
14.529951590648473
 21
-18.52381452093522
  0
LINE
  8
0
 10
14.529951590648473
 20
-18.52381452093522
 11
14.53072122783839
 21
-18.522392355972457
  0
LINE
  8
0
 10
14.53072122783839
 20
-18.522392355972457
 11
14.494719547202008
 21
-18.47076717667635
  0
LINE
  8
0
 10
14.494719547202008
 20
-18.47076717667635
 11
13.923480897680035
 21
-17.81839413158688
  0
LINE
  8
0
 10
13.923480897680035
 20
-17.81839413158688
 11
13.630143690662537
 21
-17.2309949521193
  0
LINE
  8
0
 10
13.630143690662537
 20
-17.2309949521193
 11
13.613797278235383
 21
-16.819758151939983
  0
LINE
  8
0
 10
13.613797278235383
 20
-16.819758151939983
 11
15.638091681719393
 21
-14.956263877619577
  0
LINE
  8
0
 10
15.638091681719393
 20
-14.956263877619577
 11
16.046574023690408
 21
-15.006514124549005
  0
LINE
  8
0
 10
16.046574023690408
 20
-15.006514124549005
 11
16.607743342593558
 21
-15.34735647605702
  0
LINE
  8
0
 10
16.607743342593558
 20
-15.34735647605702
 11
17.210715689199297
 21
-15.97051659504399
  0
LINE
  8
0
 10
17.210715689199297
 20
-15.97051659504399
 11
17.259191547085432
 21
-16.010658485144987
  0
LINE
  8
0
 10
17.259191547085432
 20
-16.010658485144987
 11
17.260672410769224
 21
-16.010008918108042
  0
LINE
  8
0
 10
17.260672410769224
 20
-16.010008918108042
 11
17.264716394109996
 21
-16.015233500627485
  0
LINE
  8
0
 10
17.264716394109996
 20
-16.015233500627485
 11
17.323215594925497
 21
-16.06367552085486
  0
LINE
  8
0
 10
17.323215594925497
 20
-16.06367552085486
 11
17.683819444445383
 21
-16.300653287550215
  0
LINE
  8
0
 10
17.683819444445383
 20
-16.300653287550215
 11
18.322639809692106
 21
-16.626090915262388
  0
LINE
  8
0
 10
18.322639809692106
 20
-16.626090915262388
 11
19.26042926672309
 21
-16.980080010706374
  0
LINE
  8
0
 10
19.26042926672309
 20
-16.980080010706374
 11
20.3339931597009
 21
-17.255011847401377
  0
LINE
  8
0
 10
20.3339931597009
 20
-17.255011847401377
 11
21.100062961234702
 21
-16.422838208186388
  0
LINE
  8
0
 10
21.100062961234702
 20
-16.422838208186388
 11
21.71871328998402
 21
-15.475923387643018
  0
LINE
  8
0
 10
21.71871328998402
 20
-15.475923387643018
 11
21.188649939132254
 21
-14.502702040149035
  0
LINE
  8
0
 10
21.188649939132254
 20
-14.502702040149035
 11
20.61527911417452
 21
-13.680507876645766
  0
LINE
  8
0
 10
20.61527911417452
 20
-13.680507876645766
 11
20.14297866276556
 21
-13.141125459261017
  0
LINE
  8
0
 10
20.14297866276556
 20
-13.141125459261017
 11
19.824729341045114
 21
-12.849730594136428
  0
LINE
  8
0
 10
19.824729341045114
 20
-12.849730594136428
 11
19.763408928944514
 21
-12.80491326624221
  0
LINE
  8
0
 10
19.763408928944514
 20
-12.80491326624221
 11
19.757351477966285
 21
-12.802275586888708
  0
LINE
  8
0
 10
19.757351477966285
 20
-12.802275586888708
 11
19.757617637881843
 21
-12.800680577959348
  0
LINE
  8
0
 10
19.757617637881843
 20
-12.800680577959348
 11
19.706803959428985
 21
-12.763542319891375
  0
LINE
  8
0
 10
19.706803959428985
 20
-12.763542319891375
 11
18.954691414121324
 21
-12.331997532114
  0
LINE
  8
0
 10
18.954691414121324
 20
-12.331997532114
 11
18.486519824307475
 21
-11.871671695829326
  0
LINE
  8
0
 10
18.486519824307475
 20
-11.871671695829326
 11
18.33753073490002
 21
-11.488024511259018
  0
LINE
  8
0
 10
18.33753073490002
 20
-11.488024511259018
 11
19.647067682235758
 21
-9.068212178460415
  0
LINE
  8
0
 10
19.647067682235758
 20
-9.068212178460415
 11
20.049733552685574
 21
-8.983105728776598
  0
LINE
  8
0
 10
20.049733552685574
 20
-8.983105728776598
 11
20.691168500634703
 21
-9.123268921552858
  0
LINE
  8
0
 10
20.691168500634703
 20
-9.123268921552858
 11
21.4638099021877
 21
-9.516879705542966
  0
LINE
  8
0
 10
21.4638099021877
 20
-9.516879705542966
 11
21.52269325478137
 21
-9.539106511979277
  0
LINE
  8
0
 10
21.52269325478137
 20
-9.539106511979277
 11
21.523882967113995
 21
-9.538011304624003
  0
LINE
  8
0
 10
21.523882967113995
 20
-9.538011304624003
 11
21.529404255463664
 21
-9.54163972561815
  0
LINE
  8
0
 10
21.529404255463664
 20
-9.54163972561815
 11
21.600462906475702
 21
-9.568462364118322
  0
LINE
  8
0
 10
21.600462906475702
 20
-9.568462364118322
 11
22.018474799834525
 21
-9.675512143226229
  0
LINE
  8
0
 10
22.018474799834525
 20
-9.675512143226229
 11
22.728351540611744
 21
-9.775892029101795
  0
LINE
  8
0
 10
22.728351540611744
 20
-9.775892029101795
 11
23.730269049551637
 21
-9.806201280023021
  0
LINE
  8
0
 10
23.730269049551637
 20
-9.806201280023021
 11
24.834934511039634
 21
-9.71765092525437
  0
LINE
  8
0
 10
0.3118675362266391
 20
-1.4672214011007085
 11
9.18454765366783e-17
 21
-1.5
  0
LINE
  8
0
 10
9.18454765366783e-17
 20
-1.5
 11
-0.3118675362266384
 21
-1.4672214011007085
  0
LINE
  8
0
 10
-0.3118675362266384
 20
-1.4672214011007085
 11
-0.6101049646137001
 21
-1.3703181864639014
  0
LINE
  8
0
 10
-0.6101049646137001
 20
-1.3703181864639014
 11
-0.8816778784387099
 21
-1.213525491562421
  0
LINE
  8
0
 10
-0.8816778784387099
 20
-1.213525491562421
 11
-1.114717238216091
 21
-1.0036959095382878
  0
LINE
  8
0
 10
-1.114717238216091
 20
-1.0036959095382878
 11
-1.299038105676658
 21
-0.7500000000000003
  0
LINE
  8
0
 10
-1.299038105676658
 20
-0.7500000000000003
 11
-1.4265847744427305
 21
-0.46352549156242095
  0
LINE
  8
0
 10
-1.4265847744427305
 20
-0.46352549156242095
 11
-1.49178284305241
 21
-0.15679269490147957
  0
LINE
  8
0
 10
-1.49178284305241
 20
-0.15679269490147957
 11
-1.4917828430524098
 21
0.15679269490148126
  0
LINE
  8
0
 10
-1.4917828430524098
 20
0.15679269490148126
 11
-1.4265847744427302
 21
0.46352549156242123
  0
LINE
  8
0
 10
-1.4265847744427302
 20
0.46352549156242123
 11
-1.2990381056766576
 21
0.7500000000000006
  0
LINE
  8
0
 10
-1.2990381056766576
 20
0.7500000000000006
 11
-1.114717238216091
 21
1.0036959095382878
  0
LINE
  8
0
 10
-1.114717238216091
 20
1.0036959095382878
 11
-0.8816778784387097
 21
1.2135254915624214
  0
LINE
  8
0
 10
-0.8816778784387097
 20
1.2135254915624214
 11
-0.6101049646137005
 21
1.3703181864639014
  0
LINE
  8
0
 10
-0.6101049646137005
 20
1.3703181864639014
 11
-0.3118675362266387
 21
1.4672214011007085
  0
LINE
  8
0
 10
-0.3118675362266387
 20
1.4672214011007085
 11
7.579792913117722e-16
 21
1.5
  0
LINE
  8
0
 10
7.579792913117722e-16
 20
1.5
 11
0.3118675362266389
 21
1.4672214011007085
  0
LINE
  8
0
 10
0.3118675362266389
 20
1.4672214011007085
 11
0.6101049646136999
 21
1.3703181864639014
  0
LINE
  8
0
 10
0.6101049646136999
 20
1.3703181864639014
 11
0.8816778784387097
 21
1.213525491562421
  0
LINE
  8
0
 10
0.8816778784387097
 20
1.213525491562421
 11
1.1147172382160917
 21
1.003695909538287
  0
LINE
  8
0
 10
1.1147172382160917
 20
1.003695909538287
 11
1.299038105676658
 21
0.7499999999999998
  0
LINE
  8
0
 10
1.299038105676658
 20
0.7499999999999998
 11
1.4265847744427305
 21
0.4635254915624211
  0
LINE
  8
0
 10
1.4265847744427305
 20
0.4635254915624211
 11
1.49178284305241
 21
0.1567926949014801
  0
LINE
  8
0
 10
1.49178284305241
 20
0.1567926949014801
 11
1.4917828430524098
 21
-0.1567926949014801
  0
LINE
  8
0
 10
1.4917828430524098
 20
-0.1567926949014801
 11
1.4265847744427302
 21
-0.46352549156242107
  0
LINE
  8
0
 10
1.4265847744427302
 20
-0.46352549156242107
 11
1.299038105676658
 21
-0.7500000000000001
  0
LINE
  8
0
 10
1.299038105676658
 20
-0.7500000000000001
 11
1.1147172382160913
 21
-1.0036959095382874
  0
LINE
  8
0
 10
1.1147172382160913
 20
-1.0036959095382874
 11
0.8816778784387098
 21
-1.2135254915624212
  0
LINE
  8
0
 10
0.8816778784387098
 20
-1.2135254915624212
 11
0.6101049646137003
 21
-1.3703181864639014
  0
LINE
  8
0
 10
0.6101049646137003
 20
-1.3703181864639014
 11
0.3118675362266391
 21
-1.4672214011007085
  0
ENDSEC
  0
SECTION
  2
OBJECTS
  0
DICTIONARY
  0
ENDSEC
  0
EOF
