0
SECTION
2
HEADER
9
$ACADVER
1
AC1009
9
$INSBASE
10
0.0
20
0.0
30
0.0
9
$EXTMIN
10
0.0
20
0.0
9
$EXTMAX
10
0.0
20
0.0
0
ENDSEC
0
SECTION
2
TABLES
0
TABLE
2
LTYPE
70
1
0
LTYPE
2
CONTINUOUS
70
64
3
Solid line
72
65
73
0
40
0.0
0
ENDTAB
0
TABLE
2
LAYER
70
0
0
ENDTAB
0
TABLE
2
STYLE
70
1
0
STYLE
2
STANDARD
70
0
40
0
41
40
50
50
71
0
42
1
3
ARIAL.TTF
4

0
ENDTAB
0
TABLE
2
VIEW
70
0
0
ENDTAB
0
ENDSEC
0
SECTION
2
BLOCKS
0
ENDSEC
0
SECTION
2
ENTITIES
0
LINE
8
0
10
128.966596498
20
55.3796197603
11
129.203899964
21
56.5981229037
0
LINE
8
0
10
129.203899964
20
56.5981229037
11
129.283436448
21
57.8369678469
0
LINE
8
0
10
129.283436448
20
57.8369678469
11
128.918551824
21
58.0271262408
0
LINE
8
0
10
128.918551824
20
58.0271262408
11
128.107436666
21
58.4066858152
0
LINE
8
0
10
128.107436666
20
58.4066858152
11
127.382915636
21
58.70869272
0
LINE
8
0
10
127.382915636
20
58.70869272
11
126.749948259
21
58.9413182928
0
LINE
8
0
10
126.749948259
20
58.9413182928
11
126.212950771
21
59.1130080089
0
LINE
8
0
10
126.212950771
20
59.1130080089
11
125.775782091
21
59.2324498513
0
LINE
8
0
10
125.775782091
20
59.2324498513
11
125.441731524
21
59.308541997
0
LINE
8
0
10
125.441731524
20
59.308541997
11
125.0719136
21
59.3763046323
0
LINE
8
0
10
125.0719136
20
59.3763046323
11
124.723775624
21
59.4720825213
0
LINE
8
0
10
124.723775624
20
59.4720825213
11
124.494020188
21
59.5826487798
0
LINE
8
0
10
124.494020188
20
59.5826487798
11
124.383066978
21
59.6980614506
0
LINE
8
0
10
124.383066978
20
59.6980614506
11
124.55935184
21
62.443840464
0
LINE
8
0
10
124.55935184
20
62.443840464
11
124.68415277
21
62.5441172168
0
LINE
8
0
10
124.68415277
20
62.5441172168
11
124.926160816
21
62.6243952548
0
LINE
8
0
10
124.926160816
20
62.6243952548
11
125.283688389
21
62.6748679125
0
LINE
8
0
10
125.283688389
20
62.6748679125
11
125.659135406
21
62.694782951
0
LINE
8
0
10
125.659135406
20
62.694782951
11
126.000173871
21
62.7275329428
0
LINE
8
0
10
126.000173871
20
62.7275329428
11
126.449027285
21
62.7900902794
0
LINE
8
0
10
126.449027285
20
62.7900902794
11
127.003571226
21
62.8917007107
0
LINE
8
0
10
127.003571226
20
62.8917007107
11
127.661089447
21
63.0414743592
0
LINE
8
0
10
127.661089447
20
63.0414743592
11
128.418281954
21
63.2483520986
0
LINE
8
0
10
128.418281954
20
63.2483520986
11
129.27127487
21
63.5210723898
0
LINE
8
0
10
129.27127487
20
63.5210723898
11
129.657480712
21
63.663009176
0
LINE
8
0
10
129.657480712
20
63.663009176
11
129.737017196
21
64.9018541191
0
LINE
8
0
10
129.737017196
20
64.9018541191
11
129.657480712
21
66.1406990622
0
LINE
8
0
10
129.657480712
20
66.1406990622
11
129.27127487
21
66.2826358484
0
LINE
8
0
10
129.27127487
20
66.2826358484
11
128.418281954
21
66.5553561397
0
LINE
8
0
10
128.418281954
20
66.5553561397
11
127.661089447
21
66.762233879
0
LINE
8
0
10
127.661089447
20
66.762233879
11
127.003571226
21
66.9120075275
0
LINE
8
0
10
127.003571226
20
66.9120075275
11
126.449027285
21
67.0136179588
0
LINE
8
0
10
126.449027285
20
67.0136179588
11
126.000173871
21
67.0761752954
0
LINE
8
0
10
126.000173871
20
67.0761752954
11
125.659135406
21
67.1089252872
0
LINE
8
0
10
125.659135406
20
67.1089252872
11
125.283688389
21
67.1288403257
0
LINE
8
0
10
125.283688389
20
67.1288403257
11
124.926160816
21
67.1793129834
0
LINE
8
0
10
124.926160816
20
67.1793129834
11
124.68415277
21
67.2595910214
0
LINE
8
0
10
124.68415277
20
67.2595910214
11
124.55935184
21
67.3598677743
0
LINE
8
0
10
124.55935184
20
67.3598677743
11
124.383066978
21
70.1056467876
0
LINE
8
0
10
124.383066978
20
70.1056467876
11
124.494020188
21
70.2210594584
0
LINE
8
0
10
124.494020188
20
70.2210594584
11
124.723775624
21
70.3316257169
0
LINE
8
0
10
124.723775624
20
70.3316257169
11
125.0719136
21
70.427403606
0
LINE
8
0
10
125.0719136
20
70.427403606
11
125.441731524
21
70.4951662413
0
LINE
8
0
10
125.441731524
20
70.4951662413
11
125.775782091
21
70.5712583869
0
LINE
8
0
10
125.775782091
20
70.5712583869
11
126.212950771
21
70.6907002293
0
LINE
8
0
10
126.212950771
20
70.6907002293
11
126.749948259
21
70.8623899455
0
LINE
8
0
10
126.749948259
20
70.8623899455
11
127.382915636
21
71.0950155182
0
LINE
8
0
10
127.382915636
20
71.0950155182
11
128.107436666
21
71.397022423
0
LINE
8
0
10
128.107436666
20
71.397022423
11
128.918551824
21
71.7765819974
0
LINE
8
0
10
128.918551824
20
71.7765819974
11
129.283436448
21
71.9667403914
0
LINE
8
0
10
129.283436448
20
71.9667403914
11
129.203899964
21
73.2055853345
0
LINE
8
0
10
129.203899964
20
73.2055853345
11
128.966596498
21
74.4240884779
0
LINE
8
0
10
128.966596498
20
74.4240884779
11
128.565410927
21
74.5154730581
0
LINE
8
0
10
128.565410927
20
74.5154730581
11
127.684546375
21
74.6768760066
0
LINE
8
0
10
127.684546375
20
74.6768760066
11
126.907115469
21
74.7852276539
0
LINE
8
0
10
126.907115469
20
74.7852276539
11
126.235842835
21
74.8496900989
0
LINE
8
0
10
126.235842835
20
74.8496900989
11
125.672858039
21
74.8795528049
0
LINE
8
0
10
125.672858039
20
74.8795528049
11
125.21969005
21
74.8841984459
0
LINE
8
0
10
125.21969005
20
74.8841984459
11
124.877263531
21
74.8730685299
0
LINE
8
0
10
124.877263531
20
74.8730685299
11
124.502352249
21
74.8448089672
0
LINE
8
0
10
124.502352249
20
74.8448089672
11
124.141305673
21
74.8491476339
0
LINE
8
0
10
124.141305673
20
74.8491476339
11
123.891018782
21
74.8978192882
0
LINE
8
0
10
123.891018782
20
74.8978192882
11
123.754419359
21
74.9813135816
0
LINE
8
0
10
123.754419359
20
74.9813135816
11
123.228459367
21
77.6820069794
0
LINE
8
0
10
123.228459367
20
77.6820069794
11
123.323743007
21
77.8106604954
0
LINE
8
0
10
123.323743007
20
77.8106604954
11
123.537473255
21
77.9496994794
0
LINE
8
0
10
123.537473255
20
77.9496994794
11
123.870505218
21
78.0892099296
0
LINE
8
0
10
123.870505218
20
78.0892099296
11
124.228621649
21
78.2037075011
0
LINE
8
0
10
124.228621649
20
78.2037075011
11
124.550199218
21
78.3218923697
0
LINE
8
0
10
124.550199218
20
78.3218923697
11
124.968504865
21
78.4962574861
0
LINE
8
0
10
124.968504865
20
78.4962574861
11
125.479138418
21
78.7352073468
0
LINE
8
0
10
125.479138418
20
78.7352073468
11
126.077161643
21
79.0468651383
0
LINE
8
0
10
126.077161643
20
79.0468651383
11
126.75711458
21
79.4390422634
0
LINE
8
0
10
126.75711458
20
79.4390422634
11
127.513033493
21
79.9192087633
0
LINE
8
0
10
127.513033493
20
79.9192087633
11
127.850605503
21
80.1544663695
0
LINE
8
0
10
127.850605503
20
80.1544663695
11
127.613302037
21
81.3729695129
0
LINE
8
0
10
127.613302037
20
81.3729695129
11
127.222128106
21
82.5511230687
0
LINE
8
0
10
127.222128106
20
82.5511230687
11
126.812550263
21
82.5904549107
0
LINE
8
0
10
126.812550263
20
82.5904549107
11
125.918277846
21
82.6378902845
0
LINE
8
0
10
125.918277846
20
82.6378902845
11
125.133373936
21
82.6459367085
0
LINE
8
0
10
125.133373936
20
82.6459367085
11
124.459369166
21
82.6240294786
0
LINE
8
0
10
124.459369166
20
82.6240294786
11
123.897187709
21
82.5816541143
0
LINE
8
0
10
123.897187709
20
82.5816541143
11
123.447146152
21
82.5283117785
0
LINE
8
0
10
123.447146152
20
82.5283117785
11
123.108954211
21
82.4734847076
0
LINE
8
0
10
123.108954211
20
82.4734847076
11
122.740734699
21
82.3975145649
0
LINE
8
0
10
122.740734699
20
82.3975145649
11
122.382097494
21
82.3556479998
0
LINE
8
0
10
122.382097494
20
82.3556479998
11
122.127641462
21
82.3719140833
0
LINE
8
0
10
122.127641462
20
82.3719140833
11
121.981486505
21
82.4372549433
0
LINE
8
0
10
121.981486505
20
82.4372549433
11
121.114487631
21
85.0485174147
0
LINE
8
0
10
121.114487631
20
85.0485174147
11
121.192537148
21
85.1882992885
0
LINE
8
0
10
121.192537148
20
85.1882992885
11
121.386732762
21
85.3535279819
0
LINE
8
0
10
121.386732762
20
85.3535279819
11
121.699190337
21
85.5344802354
0
LINE
8
0
10
121.699190337
20
85.5344802354
11
122.039725013
21
85.6938326961
0
LINE
8
0
10
122.039725013
20
85.6938326961
11
122.343549289
21
85.8521696954
0
LINE
8
0
10
122.343549289
20
85.8521696954
11
122.736123336
21
86.0785950154
0
LINE
8
0
10
122.736123336
20
86.0785950154
11
123.212008365
21
86.3808814705
0
LINE
8
0
10
123.212008365
20
86.3808814705
11
123.765267914
21
86.7664540686
0
LINE
8
0
10
123.765267914
20
86.7664540686
11
124.389487948
21
87.2423618765
0
LINE
8
0
10
124.389487948
20
87.2423618765
11
125.077798448
21
87.8152509811
0
LINE
8
0
10
125.077798448
20
87.8152509811
11
125.382514922
21
88.0917448761
0
LINE
8
0
10
125.382514922
20
88.0917448761
11
124.991340991
21
89.2698984319
0
LINE
8
0
10
124.991340991
20
89.2698984319
11
124.45271966
21
90.3883571512
0
LINE
8
0
10
124.45271966
20
90.3883571512
11
124.041474801
21
90.3749904273
0
LINE
8
0
10
124.041474801
20
90.3749904273
11
123.148478446
21
90.3076793388
0
LINE
8
0
10
123.148478446
20
90.3076793388
11
122.368989633
21
90.2152884176
0
LINE
8
0
10
122.368989633
20
90.2152884176
11
121.703319867
21
90.1073712288
0
LINE
8
0
10
121.703319867
20
90.1073712288
11
121.151172754
21
89.9934535967
0
LINE
8
0
10
121.151172754
20
89.9934535967
11
120.711647298
21
89.8829991637
0
LINE
8
0
10
120.711647298
20
89.8829991637
11
120.383243039
21
89.7853751968
0
LINE
8
0
10
120.383243039
20
89.7853751968
11
120.02776145
21
89.6629419019
0
LINE
8
0
10
120.02776145
20
89.6629419019
11
119.677422429
21
89.5755575528
0
LINE
8
0
10
119.677422429
20
89.5755575528
11
119.422975416
21
89.5591509768
0
LINE
8
0
10
119.422975416
20
89.5591509768
11
119.269664786
21
89.6052655082
0
LINE
8
0
10
119.269664786
20
89.6052655082
11
118.075863127
21
92.0842201956
0
LINE
8
0
10
118.075863127
20
92.0842201956
11
118.13539695
21
92.2328352129
0
LINE
8
0
10
118.13539695
20
92.2328352129
11
118.306869244
21
92.4215405649
0
LINE
8
0
10
118.306869244
20
92.4215405649
11
118.593621887
21
92.6409633908
0
LINE
8
0
10
118.593621887
20
92.6409633908
11
118.910983237
21
92.8425541777
0
LINE
8
0
10
118.910983237
20
92.8425541777
11
119.192065434
21
93.0384434185
0
LINE
8
0
10
119.192065434
20
93.0384434185
11
119.552461826
21
93.3132110448
0
LINE
8
0
10
119.552461826
20
93.3132110448
11
119.985784312
21
93.673870559
0
LINE
8
0
10
119.985784312
20
93.673870559
11
120.485195678
21
94.1270268721
0
LINE
8
0
10
120.485195678
20
94.1270268721
11
121.043433135
21
94.6788509698
0
LINE
8
0
10
121.043433135
20
94.6788509698
11
121.652833183
21
95.3350558559
0
LINE
8
0
10
121.652833183
20
95.3350558559
11
121.919690684
21
95.6482460176
0
LINE
8
0
10
121.919690684
20
95.6482460176
11
121.381069352
21
96.766704737
0
LINE
8
0
10
121.381069352
20
96.766704737
11
120.703844768
21
97.8071035586
0
LINE
8
0
10
120.703844768
20
97.8071035586
11
120.297685522
21
97.74125775
0
LINE
8
0
10
120.297685522
20
97.74125775
11
119.420628207
21
97.5603054454
0
LINE
8
0
10
119.420628207
20
97.5603054454
11
118.659353674
21
97.3689942353
0
LINE
8
0
10
118.659353674
20
97.3689942353
11
118.012949192
21
97.1768390849
0
LINE
8
0
10
118.012949192
20
97.1768390849
11
117.479902662
21
96.9932497092
0
LINE
8
0
10
117.479902662
20
96.9932497092
11
117.058110304
21
96.8274968379
0
LINE
8
0
10
117.058110304
20
96.8274968379
11
116.744886115
21
96.6886789579
0
LINE
8
0
10
116.744886115
20
96.6886789579
11
116.407979447
21
96.521792862
0
LINE
8
0
10
116.407979447
20
96.521792862
11
116.071691167
21
96.3903255776
0
LINE
8
0
10
116.071691167
20
96.3903255776
11
115.821431188
21
96.3415157376
0
LINE
8
0
10
115.821431188
20
96.3415157376
11
115.66348224
21
96.367646741
0
LINE
8
0
10
115.66348224
20
96.367646741
11
114.162479987
21
98.673589277
0
LINE
8
0
10
114.162479987
20
98.673589277
11
114.202520571
21
98.8285971832
0
LINE
8
0
10
114.202520571
20
98.8285971832
11
114.348453976
21
99.0376806573
0
LINE
8
0
10
114.348453976
20
99.0376806573
11
114.604793215
21
99.2919711388
0
LINE
8
0
10
114.604793215
20
99.2919711388
11
114.893770175
21
99.5324901369
0
LINE
8
0
10
114.893770175
20
99.5324901369
11
115.147494931
21
99.7627151233
0
LINE
8
0
10
115.147494931
20
99.7627151233
11
115.469795969
21
100.081313379
0
LINE
8
0
10
115.469795969
20
100.081313379
11
115.853440768
21
100.494423933
0
LINE
8
0
10
115.853440768
20
100.494423933
11
116.290803631
21
101.007723147
0
LINE
8
0
10
116.290803631
20
101.007723147
11
116.773892267
21
101.626402598
0
LINE
8
0
10
116.773892267
20
101.626402598
11
117.29437553
21
102.3551484
0
LINE
8
0
10
117.29437553
20
102.3551484
11
117.518992266
21
102.699892254
0
LINE
8
0
10
117.518992266
20
102.699892254
11
116.841767682
21
103.740291076
0
LINE
8
0
10
116.841767682
20
103.740291076
11
116.037059854
21
104.68554668
0
LINE
8
0
10
116.037059854
20
104.68554668
11
115.642655345
21
104.568302973
0
LINE
8
0
10
115.642655345
20
104.568302973
11
114.795938325
21
104.276680684
0
LINE
8
0
10
114.795938325
20
104.276680684
11
114.065378181
21
103.98959051
0
LINE
8
0
10
114.065378181
20
103.98959051
11
113.448852925
21
103.71635258
0
LINE
8
0
10
113.448852925
20
103.71635258
11
112.943659589
21
103.466105993
0
LINE
8
0
10
112.943659589
20
103.466105993
11
112.546526146
21
103.247776341
0
LINE
8
0
10
112.546526146
20
103.247776341
11
112.25362516
21
103.070043934
0
LINE
8
0
10
112.25362516
20
103.070043934
11
111.940825412
21
102.861445302
0
LINE
8
0
10
111.940825412
20
102.861445302
11
111.624109717
21
102.688053772
0
LINE
8
0
10
111.624109717
20
102.688053772
11
111.382146032
21
102.607642124
0
LINE
8
0
10
111.382146032
20
102.607642124
11
111.222152285
21
102.613360529
0
LINE
8
0
10
111.222152285
20
102.613360529
11
109.438595853
21
104.708427401
0
LINE
8
0
10
109.438595853
20
104.708427401
11
109.458485733
21
104.86728297
0
LINE
8
0
10
109.458485733
20
104.86728297
11
109.576484026
21
105.093311422
0
LINE
8
0
10
109.576484026
20
105.093311422
11
109.798200778
21
105.378294116
0
LINE
8
0
10
109.798200778
20
105.378294116
11
110.054048354
21
105.65379201
0
LINE
8
0
10
110.054048354
20
105.65379201
11
110.276249515
21
105.914572454
0
LINE
8
0
10
110.276249515
20
105.914572454
11
110.555163027
21
106.271769964
0
LINE
8
0
10
110.555163027
20
106.271769964
11
110.882830702
21
106.730548295
0
LINE
8
0
10
110.882830702
20
106.730548295
11
111.250963575
21
107.295562051
0
LINE
8
0
10
111.250963575
20
107.295562051
11
111.650971087
21
107.970938156
0
LINE
8
0
10
111.650971087
20
107.970938156
11
112.073991246
21
108.760258887
0
LINE
8
0
10
112.073991246
20
108.760258887
11
112.252679016
21
109.13089575
0
LINE
8
0
10
112.252679016
20
109.13089575
11
111.447971188
21
110.076151354
0
LINE
8
0
10
111.447971188
20
110.076151354
11
110.528993396
21
110.910742669
0
LINE
8
0
10
110.528993396
20
110.910742669
11
110.152819735
21
110.744026202
0
LINE
8
0
10
110.152819735
20
110.744026202
11
109.350346081
21
110.346522359
0
LINE
8
0
10
109.350346081
20
110.346522359
11
108.662496102
21
109.968367234
0
LINE
8
0
10
108.662496102
20
109.968367234
11
108.085973401
21
109.618533084
0
LINE
8
0
10
108.085973401
20
109.618533084
11
107.616928518
21
109.305738328
0
LINE
8
0
10
107.616928518
20
109.305738328
11
107.250974912
21
109.038416862
0
LINE
8
0
10
107.250974912
20
109.038416862
11
106.983206555
21
108.824688288
0
LINE
8
0
10
106.983206555
20
108.824688288
11
106.699649889
21
108.577802304
0
LINE
8
0
10
106.699649889
20
108.577802304
11
106.407707242
21
108.365333612
0
LINE
8
0
10
106.407707242
20
108.365333612
11
106.178012889
21
108.254640513
0
LINE
8
0
10
106.178012889
20
108.254640513
11
106.018601435
21
108.239852424
0
LINE
8
0
10
106.018601435
20
108.239852424
11
103.981776772
21
110.089642692
0
LINE
8
0
10
103.981776772
20
110.089642692
11
103.981189357
21
110.249737521
0
LINE
8
0
10
103.981189357
20
110.249737521
11
104.069315008
21
110.488999568
0
LINE
8
0
10
104.069315008
20
110.488999568
11
104.252768691
21
110.799995068
0
LINE
8
0
10
104.252768691
20
110.799995068
11
104.471285873
21
111.10594819
0
LINE
8
0
10
104.471285873
20
111.10594819
11
104.658314903
21
111.393002084
0
LINE
8
0
10
104.658314903
20
111.393002084
11
104.889261135
21
111.782933676
0
LINE
8
0
10
104.889261135
20
111.782933676
11
105.155571392
21
112.279846654
0
LINE
8
0
10
105.155571392
20
112.279846654
11
105.448429544
21
112.887297442
0
LINE
8
0
10
105.448429544
20
112.887297442
11
105.758787821
21
113.608280544
0
LINE
8
0
10
105.758787821
20
113.608280544
11
106.077398895
21
114.44521558
0
LINE
8
0
10
106.077398895
20
114.44521558
11
106.207223651
21
114.835659604
0
LINE
8
0
10
106.207223651
20
114.835659604
11
105.288245859
21
115.67025092
0
LINE
8
0
10
105.288245859
20
115.67025092
11
104.270087694
21
116.38047398
0
LINE
8
0
10
104.270087694
20
116.38047398
11
103.918321642
21
116.167022233
0
LINE
8
0
10
103.918321642
20
116.167022233
11
103.173267949
21
115.670163838
0
LINE
8
0
10
103.173267949
20
115.670163838
11
102.539422612
21
115.207153058
0
LINE
8
0
10
102.539422612
20
115.207153058
11
102.012368953
21
114.786466955
0
LINE
8
0
10
102.012368953
20
114.786466955
11
101.587174228
21
114.416260112
0
LINE
8
0
10
101.587174228
20
114.416260112
11
101.258409406
21
114.104336242
0
LINE
8
0
10
101.258409406
20
114.104336242
11
101.020170427
21
113.85812092
0
LINE
8
0
10
101.020170427
20
113.85812092
11
100.770512836
21
113.577001445
0
LINE
8
0
10
100.770512836
20
113.577001445
11
100.508136928
21
113.32894432
0
LINE
8
0
10
100.508136928
20
113.32894432
11
100.294483482
21
113.189787349
0
LINE
8
0
10
100.294483482
20
113.189787349
11
100.138271852
21
113.154735585
0
LINE
8
0
10
100.138271852
20
113.154735585
11
97.8816235622
21
114.728875744
0
LINE
8
0
10
97.8816235622
20
114.728875744
11
97.8605684974
21
114.887581079
0
LINE
8
0
10
97.8605684974
20
114.887581079
11
97.9173744869
21
115.136148047
0
LINE
8
0
10
97.9173744869
20
115.136148047
11
98.0595527954
21
115.468049814
0
LINE
8
0
10
98.0595527954
20
115.468049814
11
98.2371515382
21
115.799434422
0
LINE
8
0
10
98.2371515382
20
115.799434422
11
98.3859374251
21
116.108048349
0
LINE
8
0
10
98.3859374251
20
116.108048349
11
98.5651242459
21
116.524311357
0
LINE
8
0
10
98.5651242459
20
116.524311357
11
98.7657042784
21
117.051199686
0
LINE
8
0
10
98.7657042784
20
117.051199686
11
98.978478986
21
117.691113181
0
LINE
8
0
10
98.978478986
20
117.691113181
11
99.1940919533
21
118.445864757
0
LINE
8
0
10
99.1940919533
20
118.445864757
11
99.4030623581
21
119.316671648
0
LINE
8
0
10
99.4030623581
20
119.316671648
11
99.4818923808
21
119.720511753
0
LINE
8
0
10
99.4818923808
20
119.720511753
11
98.4637342155
21
120.430734814
0
LINE
8
0
10
98.4637342155
20
120.430734814
11
97.3631138055
21
121.004927777
0
LINE
8
0
10
97.3631138055
20
121.004927777
11
97.0415313519
21
120.748245621
0
LINE
8
0
10
97.0415313519
20
120.748245621
11
96.3661313803
21
120.160191075
0
LINE
8
0
10
96.3661313803
20
120.160191075
11
95.7966984098
21
119.619927264
0
LINE
8
0
10
95.7966984098
20
119.619927264
11
95.3277679989
21
119.135296863
0
LINE
8
0
10
95.3277679989
20
119.135296863
11
94.9534051164
21
118.713756718
0
LINE
8
0
10
94.9534051164
20
118.713756718
11
94.6672273884
21
118.362352227
0
LINE
8
0
10
94.6672273884
20
118.362352227
11
94.4624296645
21
118.087693005
0
LINE
8
0
10
94.4624296645
20
118.087693005
11
94.2507705197
21
117.776956012
0
LINE
8
0
10
94.2507705197
20
117.776956012
11
94.0222695552
21
117.497383547
0
LINE
8
0
10
94.0222695552
20
117.497383547
11
93.8281651993
21
117.332047656
0
LINE
8
0
10
93.8281651993
20
117.332047656
11
93.6777183851
21
117.277307767
0
LINE
8
0
10
93.6777183851
20
117.277307767
11
91.2383005709
21
118.549950478
0
LINE
8
0
10
91.2383005709
20
118.549950478
11
91.19712358
21
118.704660383
0
LINE
8
0
10
91.19712358
20
118.704660383
11
91.2216771548
21
118.958450808
0
LINE
8
0
10
91.2216771548
20
118.958450808
11
91.3202455255
21
119.305809025
0
LINE
8
0
10
91.3202455255
20
119.305809025
11
91.4540096619
21
119.657183793
0
LINE
8
0
10
91.4540096619
20
119.657183793
11
91.5621093457
21
119.982290321
0
LINE
8
0
10
91.5621093457
20
119.982290321
11
91.6865945132
21
120.418049717
0
LINE
8
0
10
91.6865945132
20
120.418049717
11
91.8181508023
21
120.966261906
0
LINE
8
0
10
91.8181508023
20
120.966261906
11
91.9473483112
21
121.628130745
0
LINE
8
0
10
91.9473483112
20
121.628130745
11
92.0646756096
21
122.404257795
0
LINE
8
0
10
92.0646756096
20
122.404257795
11
92.1605740567
21
123.294637916
0
LINE
8
0
10
92.1605740567
20
123.294637916
11
92.1871149595
21
123.705243059
0
LINE
8
0
10
92.1871149595
20
123.705243059
11
91.0864945495
21
124.279436022
0
LINE
8
0
10
91.0864945495
20
124.279436022
11
89.9214840516
21
124.708170655
0
LINE
8
0
10
89.9214840516
20
124.708170655
11
89.6353655709
21
124.412472805
0
LINE
8
0
10
89.6353655709
20
124.412472805
11
89.04070937
21
123.742877947
0
LINE
8
0
10
89.04070937
20
123.742877947
11
88.545038839
21
123.134232223
0
LINE
8
0
10
88.545038839
20
123.134232223
11
88.1419315006
21
122.59361514
0
LINE
8
0
10
88.1419315006
20
122.59361514
11
87.8245474895
21
122.127663371
0
LINE
8
0
10
87.8245474895
20
122.127663371
11
87.5856558855
21
121.74254831
0
LINE
8
0
10
87.5856558855
20
121.74254831
11
87.4176621899
21
121.443955085
0
LINE
8
0
10
87.4176621899
20
121.443955085
11
87.2474769283
21
121.108702868
0
LINE
8
0
10
87.2474769283
20
121.108702868
11
87.0566028869
21
120.802205634
0
LINE
8
0
10
87.0566028869
20
120.802205634
11
86.8852348096
21
120.613405634
0
LINE
8
0
10
86.8852348096
20
120.613405634
11
86.7430231433
21
120.539876448
0
LINE
8
0
10
86.7430231433
20
120.539876448
11
84.1608909779
21
121.490124954
0
LINE
8
0
10
84.1608909779
20
121.490124954
11
84.100268186
21
121.638299096
0
LINE
8
0
10
84.100268186
20
121.638299096
11
84.092166177
21
121.893145746
0
LINE
8
0
10
84.092166177
20
121.893145746
11
84.1455061199
21
122.2502568
0
LINE
8
0
10
84.1455061199
20
122.2502568
11
84.2332392466
21
122.615852164
0
LINE
8
0
10
84.2332392466
20
122.615852164
11
84.2988777335
21
122.952113053
0
LINE
8
0
10
84.2988777335
20
122.952113053
11
84.3666172047
21
123.40021368
0
LINE
8
0
10
84.3666172047
20
123.40021368
11
84.4269895998
21
123.9607481
0
LINE
8
0
10
84.4269895998
20
123.9607481
11
84.4704884903
21
124.633704416
0
LINE
8
0
10
84.4704884903
20
124.633704416
11
84.4876036089
21
125.418462956
0
LINE
8
0
10
84.4876036089
20
125.418462956
11
84.4688554485
21
126.313796289
0
LINE
8
0
10
84.4688554485
20
126.313796289
11
84.4426714305
21
126.724424345
0
LINE
8
0
10
84.4426714305
20
126.724424345
11
83.2776609325
21
127.153158977
0
LINE
8
0
10
83.2776609325
20
127.153158977
11
82.0673897867
21
127.429395469
0
LINE
8
0
10
82.0673897867
20
127.429395469
11
81.8214333367
21
127.099537275
0
LINE
8
0
10
81.8214333367
20
127.099537275
11
81.3172851449
21
126.359396834
0
LINE
8
0
10
81.3172851449
20
126.359396834
11
80.9035159497
21
125.692363142
0
LINE
8
0
10
80.9035159497
20
125.692363142
11
80.5728506951
21
125.104636296
0
LINE
8
0
10
80.5728506951
20
125.104636296
11
80.317656992
21
124.601923818
0
LINE
8
0
10
80.317656992
20
124.601923818
11
80.1299741057
21
124.189421767
0
LINE
8
0
10
80.1299741057
20
124.189421767
11
80.0015428902
21
123.87179743
0
LINE
8
0
10
80.0015428902
20
123.87179743
11
79.8756259491
21
123.517534822
0
LINE
8
0
10
79.8756259491
20
123.517534822
11
79.7255129774
21
123.189145495
0
LINE
8
0
10
79.7255129774
20
123.189145495
11
79.5796950377
21
122.979981477
0
LINE
8
0
10
79.5796950377
20
122.979981477
11
79.4480536308
21
122.88887034
0
LINE
8
0
10
79.4480536308
20
122.88887034
11
76.765605653
21
123.501121586
0
LINE
8
0
10
76.765605653
20
123.501121586
11
76.6865324846
21
123.64032695
0
LINE
8
0
10
76.6865324846
20
123.64032695
11
76.6459079267
21
123.892045251
0
LINE
8
0
10
76.6459079267
20
123.892045251
11
76.6531436015
21
124.253045389
0
LINE
8
0
10
76.6531436015
20
124.253045389
11
76.6934051429
21
124.626858284
0
LINE
8
0
10
76.6934051429
20
124.626858284
11
76.7155046507
21
124.968752138
0
LINE
8
0
10
76.7155046507
20
124.968752138
11
76.7253861455
21
125.421836197
0
LINE
8
0
10
76.7253861455
20
125.421836197
11
76.7135833334
21
125.985488887
0
LINE
8
0
10
76.7135833334
20
125.985488887
11
76.670669355
21
126.658482756
0
LINE
8
0
10
76.670669355
20
126.658482756
11
76.5872912641
21
127.438987072
0
LINE
8
0
10
76.5872912641
20
127.438987072
11
76.4542043403
21
128.324572269
0
LINE
8
0
10
76.4542043403
20
128.324572269
11
76.3757253424
21
128.728480737
0
LINE
8
0
10
76.3757253424
20
128.728480737
11
75.1654541966
21
129.004717228
0
LINE
8
0
10
75.1654541966
20
129.004717228
11
73.9297950218
21
129.123919782
0
LINE
8
0
10
73.9297950218
20
129.123919782
11
73.7280392003
21
128.765317507
0
LINE
8
0
10
73.7280392003
20
128.765317507
11
73.322677117
21
127.966784569
0
LINE
8
0
10
73.322677117
20
127.966784569
11
72.9976033365
21
127.252315584
0
LINE
8
0
10
72.9976033365
20
127.252315584
11
72.74480968
21
126.627129433
0
LINE
8
0
10
72.74480968
20
126.627129433
11
72.5559965586
21
126.095910771
0
LINE
8
0
10
72.5559965586
20
126.095910771
11
72.4226041377
21
125.662795001
0
LINE
8
0
10
72.4226041377
20
125.662795001
11
72.3358442392
21
125.331354937
0
LINE
8
0
10
72.3358442392
20
125.331354937
11
72.2562631714
21
124.963898919
0
LINE
8
0
10
72.2562631714
20
124.963898919
11
72.1493761201
21
124.619009643
0
LINE
8
0
10
72.1493761201
20
124.619009643
11
72.0315026446
21
124.392916075
0
LINE
8
0
10
72.0315026446
20
124.392916075
11
71.9125930455
21
124.285719029
0
LINE
8
0
10
71.9125930455
20
124.285719029
11
69.1738749769
21
124.549919867
0
LINE
8
0
10
69.1738749769
20
124.549919867
11
69.0776498113
21
124.677870705
0
LINE
8
0
10
69.0776498113
20
124.677870705
11
69.0051697585
21
124.922327449
0
LINE
8
0
10
69.0051697585
20
124.922327449
11
68.9661823556
21
125.281289058
0
LINE
8
0
10
68.9661823556
20
125.281289058
11
68.9583112183
21
125.657181485
0
LINE
8
0
10
68.9583112183
20
125.657181485
11
68.9365088737
21
125.999094419
0
LINE
8
0
10
68.9365088737
20
125.999094419
11
68.8883701381
21
126.449722281
0
LINE
8
0
10
68.8883701381
20
126.449722281
11
68.8045859208
21
127.00723808
0
LINE
8
0
10
68.8045859208
20
127.00723808
11
68.6759637198
21
127.669218961
0
LINE
8
0
10
68.6759637198
20
127.669218961
11
68.4934614853
21
128.432653193
0
LINE
8
0
10
68.4934614853
20
128.432653193
11
68.2482210818
21
129.29394897
0
LINE
8
0
10
68.2482210818
20
129.29394897
11
68.118735727
21
129.684505684
0
LINE
8
0
10
68.118735727
20
129.684505684
11
66.8830765521
21
129.803708238
0
LINE
8
0
10
66.8830765521
20
129.803708238
11
65.6423188377
21
129.763919553
0
LINE
8
0
10
65.6423188377
20
129.763919553
11
65.4880764699
21
129.382461436
0
LINE
8
0
10
65.4880764699
20
129.382461436
11
65.1881565293
21
128.53864789
0
LINE
8
0
10
65.1881565293
20
128.53864789
11
64.9571158659
21
127.788475173
0
LINE
8
0
10
64.9571158659
20
127.788475173
11
64.7863446724
21
127.136095256
0
LINE
8
0
10
64.7863446724
20
127.136095256
11
64.6670124388
21
126.585093006
0
LINE
8
0
10
64.6670124388
20
126.585093006
11
64.5901007831
21
126.138475266
0
LINE
8
0
10
64.5901007831
20
126.138475266
11
64.546436797
21
125.798661711
0
LINE
8
0
10
64.546436797
20
125.798661711
11
64.5144983213
21
125.4240459
0
LINE
8
0
10
64.5144983213
20
125.4240459
11
64.4525922729
21
125.068319748
0
LINE
8
0
10
64.4525922729
20
125.068319748
11
64.3645987408
21
124.829009079
0
LINE
8
0
10
64.3645987408
20
124.829009079
11
64.2603734418
21
124.707486298
0
LINE
8
0
10
64.2603734418
20
124.707486298
11
61.5103549573
21
124.619298558
0
LINE
8
0
10
61.5103549573
20
124.619298558
11
61.3985578091
21
124.73389392
0
LINE
8
0
10
61.3985578091
20
124.73389392
11
61.2954123819
21
124.967075134
0
LINE
8
0
10
61.2954123819
20
124.967075134
11
61.2108420733
21
125.318104075
0
LINE
8
0
10
61.2108420733
20
125.318104075
11
61.1549675012
21
125.689903892
0
LINE
8
0
10
61.1549675012
20
125.689903892
11
61.0896212981
21
126.026221703
0
LINE
8
0
10
61.0896212981
20
126.026221703
11
60.9842527689
21
126.466994071
0
LINE
8
0
10
60.9842527689
20
126.466994071
11
60.8298628808
21
127.009218586
0
LINE
8
0
10
60.8298628808
20
127.009218586
11
60.6176444302
21
127.64931677
0
LINE
8
0
10
60.6176444302
20
127.64931677
11
60.3390147337
21
128.383145351
0
LINE
8
0
10
60.3390147337
20
128.383145351
11
59.9856476913
21
129.206009255
0
LINE
8
0
10
59.9856476913
20
129.206009255
11
59.8072821255
21
129.576801283
0
LINE
8
0
10
59.8072821255
20
129.576801283
11
58.566524411
21
129.537012598
0
LINE
8
0
10
58.566524411
20
129.537012598
11
57.3410413643
21
129.338886003
0
LINE
8
0
10
57.3410413643
20
129.338886003
11
57.2368451056
21
128.940835575
0
LINE
8
0
10
57.2368451056
20
128.940835575
11
57.0472919848
21
128.065596816
0
LINE
8
0
10
57.0472919848
20
128.065596816
11
56.9140781199
21
127.292038183
0
LINE
8
0
10
56.9140781199
20
127.292038183
11
56.8281334476
21
126.62317656
0
LINE
8
0
10
56.8281334476
20
126.62317656
11
56.7802415338
21
126.061438164
0
LINE
8
0
10
56.7802415338
20
126.061438164
11
56.7610735307
21
125.608651905
0
LINE
8
0
10
56.7610735307
20
125.608651905
11
56.7612224182
21
125.266044588
0
LINE
8
0
10
56.7612224182
20
125.266044588
11
56.7774509636
21
124.890420166
0
LINE
8
0
10
56.7774509636
20
124.890420166
11
56.7615424137
21
124.529698151
0
LINE
8
0
10
56.7615424137
20
124.529698151
11
56.7048736763
21
124.281099856
0
LINE
8
0
10
56.7048736763
20
124.281099856
11
56.617044054
21
124.14724674
0
LINE
8
0
10
56.617044054
20
124.14724674
11
53.9008803812
21
123.708118462
0
LINE
8
0
10
53.9008803812
20
123.708118462
11
53.7753469563
21
123.807476695
0
LINE
8
0
10
53.7753469563
20
123.807476695
11
53.6432297999
21
124.02555355
0
LINE
8
0
10
53.6432297999
20
124.02555355
11
53.5144652277
21
124.362885937
0
LINE
8
0
10
53.5144652277
20
124.362885937
11
53.4115046798
21
124.724488201
0
LINE
8
0
10
53.4115046798
20
124.724488201
11
53.303687601
21
125.049688561
0
LINE
8
0
10
53.303687601
20
125.049688561
11
53.1428194265
21
125.473367966
0
LINE
8
0
10
53.1428194265
20
125.473367966
11
52.9203589453
21
125.991397884
0
LINE
8
0
10
52.9203589453
20
125.991397884
11
52.6280288663
21
126.599102978
0
LINE
8
0
10
52.6280288663
20
126.599102978
11
52.2578467997
21
127.291276461
0
LINE
8
0
10
52.2578467997
20
127.291276461
11
51.8021553953
21
128.06219709
0
LINE
8
0
10
51.8021553953
20
128.06219709
11
51.5778383762
21
128.407136038
0
LINE
8
0
10
51.5778383762
20
128.407136038
11
50.3523553295
21
128.209009443
0
LINE
8
0
10
50.3523553295
20
128.209009443
11
49.1622693483
21
127.855798171
0
LINE
8
0
10
49.1622693483
20
127.855798171
11
49.1098300983
21
127.44769141
0
LINE
8
0
10
49.1098300983
20
127.44769141
11
49.0337562543
21
126.555398833
0
LINE
8
0
10
49.0337562543
20
126.555398833
11
49.0005565559
21
125.771156095
0
LINE
8
0
10
49.0005565559
20
125.771156095
11
49.000849614
21
125.096795456
0
LINE
8
0
10
49.000849614
20
125.096795456
11
49.0251844039
21
124.533544642
0
LINE
8
0
10
49.0251844039
20
124.533544642
11
49.0640747914
21
124.082024603
0
LINE
8
0
10
49.0640747914
20
124.082024603
11
49.1080341079
21
123.742249126
0
LINE
8
0
10
49.1080341079
20
123.742249126
11
49.172163202
21
123.371783836
0
LINE
8
0
10
49.172163202
20
123.371783836
11
49.2025133686
21
123.011989003
0
LINE
8
0
10
49.2025133686
20
123.011989003
11
49.1780999251
21
122.75818506
0
LINE
8
0
10
49.1780999251
20
122.75818506
11
49.1081081393
21
122.614199473
0
LINE
8
0
10
49.1081081393
20
122.614199473
11
46.4703986106
21
121.831341131
0
LINE
8
0
10
46.4703986106
20
121.831341131
11
46.3331901645
21
121.913830776
0
LINE
8
0
10
46.3331901645
20
121.913830776
11
46.1742706388
21
122.113222457
0
LINE
8
0
10
46.1742706388
20
122.113222457
11
46.0034261138
21
122.431319301
0
LINE
8
0
10
46.0034261138
20
122.431319301
11
45.8550701994
21
122.776786513
0
LINE
8
0
10
45.8550701994
20
122.776786513
11
45.7065525984
21
123.08552964
0
LINE
8
0
10
45.7065525984
20
123.08552964
11
45.4928262296
21
123.485159278
0
LINE
8
0
10
45.4928262296
20
123.485159278
11
45.2059479503
21
123.970488562
0
LINE
8
0
10
45.2059479503
20
123.970488562
11
44.8383062946
21
124.535822065
0
LINE
8
0
10
44.8383062946
20
124.535822065
11
44.3826502372
21
125.174974982
0
LINE
8
0
10
44.3826502372
20
125.174974982
11
43.8321169111
21
125.881293839
0
LINE
8
0
10
43.8321169111
20
125.881293839
11
43.5655317179
21
126.19471582
0
LINE
8
0
10
43.5655317179
20
126.19471582
11
42.3754457367
21
125.841504547
0
LINE
8
0
10
42.3754457367
20
125.841504547
11
41.240298
21
125.339008317
0
LINE
8
0
10
41.240298
20
125.339008317
11
41.2404768098
21
124.927546325
0
LINE
8
0
10
41.2404768098
20
124.927546325
11
41.2791313731
21
124.032851351
0
LINE
8
0
10
41.2791313731
20
124.032851351
11
41.3464909791
21
123.250801751
0
LINE
8
0
10
41.3464909791
20
123.250801751
11
41.4330169557
21
122.58201508
0
LINE
8
0
10
41.4330169557
20
122.58201508
11
41.5291788728
21
122.026500411
0
LINE
8
0
10
41.5291788728
20
122.026500411
11
41.6254890718
21
121.583660537
0
LINE
8
0
10
41.6254890718
20
121.583660537
11
41.7125370065
21
121.252296005
0
LINE
8
0
10
41.7125370065
20
121.252296005
11
41.8235136514
21
120.893072876
0
LINE
8
0
10
41.8235136514
20
120.893072876
11
41.8996241855
21
120.540113047
0
LINE
8
0
10
41.8996241855
20
120.540113047
11
41.9078669039
21
120.285270909
0
LINE
8
0
10
41.9078669039
20
120.285270909
11
41.8568622179
21
120.133517091
0
LINE
8
0
10
41.8568622179
20
120.133517091
11
39.3409179508
21
119.019783197
0
LINE
8
0
10
39.3409179508
20
119.019783197
11
39.1942874424
21
119.084049777
0
LINE
8
0
10
39.1942874424
20
119.084049777
11
39.0111750017
21
119.261482277
0
LINE
8
0
10
39.0111750017
20
119.261482277
11
38.8010557863
21
119.555120438
0
LINE
8
0
10
38.8010557863
20
119.555120438
11
38.6097405053
21
119.878780035
0
LINE
8
0
10
38.6097405053
20
119.878780035
11
38.4229610371
21
120.165996376
0
LINE
8
0
10
38.4229610371
20
120.165996376
11
38.1598858549
21
120.535014338
0
LINE
8
0
10
38.1598858549
20
120.535014338
11
37.813300311
21
120.979673896
0
LINE
8
0
10
37.813300311
20
120.979673896
11
37.3763837444
21
121.493353047
0
LINE
8
0
10
37.3763837444
20
121.493353047
11
36.8427355561
21
122.068990524
0
LINE
8
0
10
36.8427355561
20
122.068990524
11
36.2064000503
21
122.699109874
0
LINE
8
0
10
36.2064000503
20
122.699109874
11
35.9019240045
21
122.975868507
0
LINE
8
0
10
35.9019240045
20
122.975868507
11
34.7667762678
21
122.473372277
0
LINE
8
0
10
34.7667762678
20
122.473372277
11
33.70520587
21
121.829842063
0
LINE
8
0
10
33.70520587
20
121.829842063
11
33.7579998035
21
121.421781033
0
LINE
8
0
10
33.7579998035
20
121.421781033
11
33.9107480671
21
120.539374529
0
LINE
8
0
10
33.9107480671
20
120.539374529
11
34.0775609349
21
119.772359301
0
LINE
8
0
10
34.0775609349
20
119.772359301
11
34.2488990757
21
119.120128055
0
LINE
8
0
10
34.2488990757
20
119.120128055
11
34.4153091439
21
118.581471067
0
LINE
8
0
10
34.4153091439
20
118.581471067
11
34.5674577436
21
118.154582777
0
LINE
8
0
10
34.5674577436
20
118.154582777
11
34.6961649718
21
117.837070186
0
LINE
8
0
10
34.6961649718
20
117.837070186
11
34.8521669342
21
117.494987653
0
LINE
8
0
10
34.8521669342
20
117.494987653
11
34.9727881029
21
117.154658418
0
LINE
8
0
10
34.9727881029
20
117.154658418
11
35.0135516381
21
116.902962586
0
LINE
8
0
10
35.0135516381
20
116.902962586
11
34.9823715474
21
116.74593233
0
LINE
8
0
10
34.9823715474
20
116.74593233
11
32.6295042772
21
115.319610364
0
LINE
8
0
10
32.6295042772
20
115.319610364
11
32.4758593754
21
115.364598623
0
LINE
8
0
10
32.4758593754
20
115.364598623
11
32.2715607208
21
115.517158505
0
LINE
8
0
10
32.2715607208
20
115.517158505
11
32.0256169667
21
115.781516452
0
LINE
8
0
10
32.0256169667
20
115.781516452
11
31.7944837108
21
116.078053954
0
LINE
8
0
10
31.7944837108
20
116.078053954
11
31.572509289
21
116.339027424
0
LINE
8
0
10
31.572509289
20
116.339027424
11
31.2644049808
21
116.671374446
0
LINE
8
0
10
31.2644049808
20
116.671374446
11
30.8638030972
21
117.06806298
0
LINE
8
0
10
30.8638030972
20
117.06806298
11
30.3647857777
21
117.521653182
0
LINE
8
0
10
30.3647857777
20
117.521653182
11
29.7619079471
21
118.024323267
0
LINE
8
0
10
29.7619079471
20
118.024323267
11
29.050218873
21
118.567896567
0
LINE
8
0
10
29.050218873
20
118.567896567
11
28.7128514628
21
118.803447483
0
LINE
8
0
10
28.7128514628
20
118.803447483
11
27.651281065
21
118.15991727
0
LINE
8
0
10
27.651281065
20
118.15991727
11
26.6807189626
21
117.385919821
0
LINE
8
0
10
26.6807189626
20
117.385919821
11
26.785261145
21
116.987960105
0
LINE
8
0
10
26.785261145
20
116.987960105
11
27.0495949867
21
116.13233116
0
LINE
8
0
10
27.0495949867
20
116.13233116
11
27.3131220535
21
115.392944672
0
LINE
8
0
10
27.3131220535
20
115.392944672
11
27.566458991
21
114.767978471
0
LINE
8
0
10
27.566458991
20
114.767978471
11
27.8003847616
21
114.255023896
0
LINE
8
0
10
27.8003847616
20
114.255023896
11
28.0058734863
21
113.851096685
0
LINE
8
0
10
28.0058734863
20
113.851096685
11
28.1741266388
21
113.552649583
0
LINE
8
0
10
28.1741266388
20
113.552649583
11
28.3725923707
21
113.233324631
0
LINE
8
0
10
28.3725923707
20
113.233324631
11
28.5357435778
21
112.911214187
0
LINE
8
0
10
28.5357435778
20
112.911214187
11
28.6083585936
21
112.666797499
0
LINE
8
0
10
28.6083585936
20
112.666797499
11
28.5975150744
21
112.507069238
0
LINE
8
0
10
28.5975150744
20
112.507069238
11
26.4463588167
21
110.791579367
0
LINE
8
0
10
26.4463588167
20
110.791579367
11
26.2882223665
21
110.816550599
0
LINE
8
0
10
26.2882223665
20
110.816550599
11
26.0660920763
21
110.941732835
0
LINE
8
0
10
26.0660920763
20
110.941732835
11
25.7883621731
21
111.172469817
0
LINE
8
0
10
25.7883621731
20
111.172469817
11
25.5212061441
21
111.437016085
0
LINE
8
0
10
25.5212061441
20
111.437016085
11
25.2676815825
21
111.667461508
0
LINE
8
0
10
25.2676815825
20
111.667461508
11
24.9196072125
21
111.957680462
0
LINE
8
0
10
24.9196072125
20
111.957680462
11
24.4715668611
21
112.299884356
0
LINE
8
0
10
24.4715668611
20
112.299884356
11
23.9186426393
21
112.68593767
0
LINE
8
0
10
23.9186426393
20
112.68593767
11
23.2564344036
21
113.107386535
0
LINE
8
0
10
23.2564344036
20
113.107386535
11
22.4810776761
21
113.555488327
0
LINE
8
0
10
22.4810776761
20
113.555488327
11
22.1163584652
21
113.745963787
0
LINE
8
0
10
22.1163584652
20
113.745963787
11
21.1457963628
21
112.971966338
0
LINE
8
0
10
21.1457963628
20
112.971966338
11
20.2821791588
21
112.08021067
0
LINE
8
0
10
20.2821791588
20
112.08021067
11
20.4367530102
21
111.698886756
0
LINE
8
0
10
20.4367530102
20
111.698886756
11
20.8083320757
21
110.884084774
0
LINE
8
0
10
20.8083320757
20
110.884084774
11
21.1642462343
21
110.184467733
0
LINE
8
0
10
21.1642462343
20
110.184467733
11
21.4954221831
21
109.597028504
0
LINE
8
0
10
21.4954221831
20
109.597028504
11
21.7930226014
21
109.118199043
0
LINE
8
0
10
21.7930226014
20
109.118199043
11
22.0484773318
21
108.743865383
0
LINE
8
0
10
22.0484773318
20
108.743865383
11
22.2535136966
21
108.469384263
0
LINE
8
0
10
22.2535136966
20
108.469384263
11
22.4911843961
21
108.178060199
0
LINE
8
0
10
22.4911843961
20
108.178060199
11
22.6941867034
21
107.879457591
0
LINE
8
0
10
22.6941867034
20
107.879457591
11
22.7974608631
21
107.646333363
0
LINE
8
0
10
22.7974608631
20
107.646333363
11
22.8071319658
21
107.48652983
0
LINE
8
0
10
22.8071319658
20
107.48652983
11
20.8930086468
21
105.51004035
0
LINE
8
0
10
20.8930086468
20
105.51004035
11
20.7329772443
21
105.514584529
0
LINE
8
0
10
20.7329772443
20
105.514584529
11
20.4966626919
21
105.610333629
0
LINE
8
0
10
20.4966626919
20
105.610333629
11
20.1917069569
21
105.803660952
0
LINE
8
0
10
20.1917069569
20
105.803660952
11
19.8929148492
21
106.031872144
0
LINE
8
0
10
19.8929148492
20
106.031872144
11
19.6120030143
21
106.228005612
0
LINE
8
0
10
19.6120030143
20
106.228005612
11
19.229673954
21
106.47133111
0
LINE
8
0
10
19.229673954
20
106.47133111
11
18.741551945
21
106.753431386
0
LINE
8
0
10
18.741551945
20
106.753431386
11
18.1437998213
21
107.065608828
0
LINE
8
0
10
18.1437998213
20
107.065608828
11
17.4331346214
21
107.398916294
0
LINE
8
0
10
17.4331346214
20
107.398916294
11
16.6068415766
21
107.744188759
0
LINE
8
0
10
16.6068415766
20
107.744188759
11
16.2207592443
21
107.88646116
0
LINE
8
0
10
16.2207592443
20
107.88646116
11
15.3571420402
21
106.994705492
0
LINE
8
0
10
15.3571420402
20
106.994705492
11
14.6146503052
21
105.99983421
0
LINE
8
0
10
14.6146503052
20
105.99983421
11
14.8167177273
21
105.641407425
0
LINE
8
0
10
14.8167177273
20
105.641407425
11
15.2894406985
21
104.880811432
0
LINE
8
0
10
15.2894406985
20
104.880811432
11
15.7318978484
21
104.232451529
0
LINE
8
0
10
15.7318978484
20
104.232451529
11
16.1354749084
21
103.692185009
0
LINE
8
0
10
16.1354749084
20
103.692185009
11
16.4918633838
21
103.255343028
0
LINE
8
0
10
16.4918633838
20
103.255343028
11
16.7930895603
21
102.916749468
0
LINE
8
0
10
16.7930895603
20
102.916749468
11
17.031542446
21
102.670741303
0
LINE
8
0
10
17.031542446
20
102.670741303
11
17.3045155668
21
102.412201659
0
LINE
8
0
10
17.3045155668
20
102.412201659
11
17.5440356819
21
102.142009934
0
LINE
8
0
10
17.5440356819
20
102.142009934
11
17.6762732269
21
101.924006059
0
LINE
8
0
10
17.6762732269
20
101.924006059
11
17.7063001522
21
101.766751224
0
LINE
8
0
10
17.7063001522
20
101.766751224
11
16.0606396238
21
99.5617160386
0
LINE
8
0
10
16.0606396238
20
99.5617160386
11
15.9013409803
21
99.5457585479
0
LINE
8
0
10
15.9013409803
20
99.5457585479
11
15.654722444
21
99.6105023148
0
LINE
8
0
10
15.654722444
20
99.6105023148
11
15.327548242
21
99.7632455496
0
LINE
8
0
10
15.327548242
20
99.7632455496
11
15.0020262138
21
99.9513744445
0
LINE
8
0
10
15.0020262138
20
99.9513744445
11
14.69833967
21
100.109975451
0
LINE
8
0
10
14.69833967
20
100.109975451
11
14.288033752
21
100.302412094
0
LINE
8
0
10
14.288033752
20
100.302412094
11
13.7678450353
21
100.519776674
0
LINE
8
0
10
13.7678450353
20
100.519776674
11
13.1350800831
21
100.752952299
0
LINE
8
0
10
13.1350800831
20
100.752952299
11
12.3876270219
21
100.992645466
0
LINE
8
0
10
12.3876270219
20
100.992645466
11
11.5239653687
21
101.22941924
0
LINE
8
0
10
11.5239653687
20
101.22941924
11
11.1228593762
21
101.321152474
0
LINE
8
0
10
11.1228593762
20
101.321152474
11
10.3803676412
21
100.326281191
0
LINE
8
0
10
10.3803676412
20
100.326281191
11
9.77119306889
21
99.2446300523
0
LINE
8
0
10
9.77119306889
20
99.2446300523
11
10.0174361202
21
98.9149857546
0
LINE
8
0
10
10.0174361202
20
98.9149857546
11
10.5835408991
21
98.2210847166
0
LINE
8
0
10
10.5835408991
20
98.2210847166
11
11.105275906
21
97.6346280041
0
LINE
8
0
10
11.105275906
20
97.6346280041
11
11.5746273531
21
97.1504053531
0
LINE
8
0
10
11.5746273531
20
97.1504053531
11
11.9839519966
21
96.7627237856
0
LINE
8
0
10
11.9839519966
20
96.7627237856
11
12.3260034938
21
96.4654300228
0
LINE
8
0
10
12.3260034938
20
96.4654300228
11
12.5939575105
21
96.2519342592
0
LINE
8
0
10
12.5939575105
20
96.2519342592
11
12.8977508416
21
96.0304242506
0
LINE
8
0
10
12.8977508416
20
96.0304242506
11
13.1698558509
21
95.7930799477
0
LINE
8
0
10
13.1698558509
20
95.7930799477
11
13.3288854442
21
95.5937760433
0
LINE
8
0
10
13.3288854442
20
95.5937760433
11
13.3787751508
21
95.4416520265
0
LINE
8
0
10
13.3787751508
20
95.4416520265
11
12.0285991135
21
93.0442777522
0
LINE
8
0
10
12.0285991135
20
93.0442777522
11
11.8726489083
21
93.0080806139
0
LINE
8
0
10
11.8726489083
20
93.0080806139
11
11.6197758576
21
93.0407559569
0
LINE
8
0
10
11.6197758576
20
93.0407559569
11
11.2757553799
21
93.1504070636
0
LINE
8
0
10
11.2757553799
20
93.1504070636
11
10.928848494
21
93.2953645898
0
LINE
8
0
10
10.928848494
20
93.2953645898
11
10.607373766
21
93.4138289109
0
LINE
8
0
10
10.607373766
20
93.4138289109
11
10.1758282021
21
93.552216896
0
LINE
8
0
10
10.1758282021
20
93.552216896
11
9.63211426203
21
93.7012766591
0
LINE
8
0
10
9.63211426203
20
93.7012766591
11
8.97472646428
21
93.8516217288
0
LINE
8
0
10
8.97472646428
20
93.8516217288
11
8.20275870052
21
93.9937648428
0
LINE
8
0
10
8.20275870052
20
93.9937648428
11
7.31590973941
21
94.1181521063
0
LINE
8
0
10
7.31590973941
20
94.1181521063
11
6.90636623602
21
94.1578399154
0
LINE
8
0
10
6.90636623602
20
94.1578399154
11
6.29719166372
21
93.0761887767
0
LINE
8
0
10
6.29719166372
20
93.0761887767
11
5.83133688379
21
91.9255184636
0
LINE
8
0
10
5.83133688379
20
91.9255184636
11
6.11771226021
21
91.6300694034
0
LINE
8
0
10
6.11771226021
20
91.6300694034
11
6.76790342189
21
91.0142571557
0
LINE
8
0
10
6.76790342189
20
91.0142571557
11
7.36034941145
21
90.4993332365
0
LINE
8
0
10
7.36034941145
20
90.4993332365
11
7.88776850792
21
90.0791053777
0
LINE
8
0
10
7.88776850792
20
90.0791053777
11
8.34330822027
21
89.7469499441
0
LINE
8
0
10
8.34330822027
20
89.7469499441
11
8.72056856195
21
89.4958375336
0
LINE
8
0
10
8.72056856195
20
89.4958375336
11
9.0136239122
21
89.3183597664
0
LINE
8
0
10
9.0136239122
20
89.3183597664
11
9.34324917536
21
89.1375165809
0
LINE
8
0
10
9.34324917536
20
89.1375165809
11
9.64347112211
21
88.9369168876
0
LINE
8
0
10
9.64347112211
20
88.9369168876
11
9.82668150226
21
88.7595855186
0
LINE
8
0
10
9.82668150226
20
88.7595855186
11
9.89561480254
21
88.6150901919
0
LINE
8
0
10
9.89561480254
20
88.6150901919
11
8.86309310959
21
86.0647416478
0
LINE
8
0
10
8.86309310959
20
86.0647416478
11
8.7130520407
21
86.008899218
0
LINE
8
0
10
8.7130520407
20
86.008899218
11
8.45807664409
21
86.0089696088
0
LINE
8
0
10
8.45807664409
20
86.0089696088
11
8.1028586975
21
86.0737281192
0
LINE
8
0
10
8.1028586975
20
86.0737281192
11
7.74026315533
21
86.1731340782
0
LINE
8
0
10
7.74026315533
20
86.1731340782
11
7.40627884921
21
86.2495165331
0
LINE
8
0
10
7.40627884921
20
86.2495165331
11
6.96057960571
21
86.3315835329
0
LINE
8
0
10
6.96057960571
20
86.3315835329
11
6.40226821015
21
86.409890922
0
LINE
8
0
10
6.40226821015
20
86.409890922
11
5.73105185634
21
86.474936775
0
LINE
8
0
10
5.73105185634
20
86.474936775
11
4.94724507929
21
86.5171958494
0
LINE
8
0
10
4.94724507929
20
86.5171958494
11
4.05177084568
21
86.5271541673
0
LINE
8
0
10
4.05177084568
20
86.5271541673
11
3.64051452441
21
86.5141448792
0
LINE
8
0
10
3.64051452441
20
86.5141448792
11
3.17465974448
21
85.3634745661
0
LINE
8
0
10
3.17465974448
20
85.3634745661
11
2.85977407953
21
84.1626790533
0
LINE
8
0
10
2.85977407953
20
84.1626790533
11
3.18157950531
21
83.9062764962
0
LINE
8
0
10
3.18157950531
20
83.9062764962
11
3.9051809289
21
83.3786646588
0
LINE
8
0
10
3.9051809289
20
83.3786646588
11
4.55860995435
21
82.9437285695
0
LINE
8
0
10
4.55860995435
20
82.9437285695
11
5.13543649317
21
82.5943956327
0
LINE
8
0
10
5.13543649317
20
82.5943956327
11
5.62971132487
21
82.3232203161
0
LINE
8
0
10
5.62971132487
20
82.3232203161
11
6.03598590668
21
82.1224125167
0
LINE
8
0
10
6.03598590668
20
82.1224125167
11
6.34933062968
21
81.9838669259
0
LINE
8
0
10
6.34933062968
20
81.9838669259
11
6.69937538726
21
81.8466600035
0
LINE
8
0
10
6.69937538726
20
81.8466600035
11
7.02278463539
21
81.6860987614
0
LINE
8
0
10
7.02278463539
20
81.6860987614
11
7.227167493
21
81.5336517038
0
LINE
8
0
10
7.227167493
20
81.5336517038
11
7.31401250409
21
81.3991576765
0
LINE
8
0
10
7.31401250409
20
81.3991576765
11
6.61609913308
21
78.7377115153
0
LINE
8
0
10
6.61609913308
20
78.7377115153
11
6.47443087073
21
78.663140725
0
LINE
8
0
10
6.47443087073
20
78.663140725
11
6.22153981721
21
78.630605008
0
LINE
8
0
10
6.22153981721
20
78.630605008
11
5.86095707056
21
78.6494075891
0
LINE
8
0
10
5.86095707056
20
78.6494075891
11
5.48862668088
21
78.7016297377
0
LINE
8
0
10
5.48862668088
20
78.7016297377
11
5.14761680978
21
78.7346761286
0
LINE
8
0
10
5.14761680978
20
78.7346761286
11
4.6950822559
21
78.7590746053
0
LINE
8
0
10
4.6950822559
20
78.7590746053
11
4.13134086251
21
78.7653438152
0
LINE
8
0
10
4.13134086251
20
78.7653438152
11
3.45731730663
21
78.7440224005
0
LINE
8
0
10
3.45731730663
20
78.7440224005
11
2.67454160189
21
78.6857035425
0
LINE
8
0
10
2.67454160189
20
78.6857035425
11
1.78514575794
21
78.5810693993
0
LINE
8
0
10
1.78514575794
20
78.5810693993
11
1.37892943621
21
78.5155766262
0
LINE
8
0
10
1.37892943621
20
78.5155766262
11
1.06404377126
21
77.3147811135
0
LINE
8
0
10
1.06404377126
20
77.3147811135
11
0.905297635203
21
76.0835774302
0
LINE
8
0
10
0.905297635203
20
76.0835774302
11
1.25724907414
21
75.870431499
0
LINE
8
0
10
1.25724907414
20
75.870431499
11
2.04237924428
21
75.4396834437
0
LINE
8
0
10
2.04237924428
20
75.4396834437
11
2.74606201909
21
75.0918768228
0
LINE
8
0
10
2.74606201909
20
75.0918768228
11
3.36282452444
21
74.8191748452
0
LINE
8
0
10
3.36282452444
20
74.8191748452
11
3.88771849641
21
74.6134323367
0
LINE
8
0
10
3.88771849641
20
74.6134323367
11
4.31633630095
21
74.466226407
0
LINE
8
0
10
4.31633630095
20
74.466226407
11
4.64482528501
21
74.3688879074
0
LINE
8
0
10
4.64482528501
20
74.3688879074
11
5.00954181178
21
74.277570182
0
LINE
8
0
10
5.00954181178
20
74.277570182
11
5.35082799037
21
74.1596838021
0
LINE
8
0
10
5.35082799037
20
74.1596838021
11
5.57302736457
21
74.0346242326
0
LINE
8
0
10
5.57302736457
20
74.0346242326
11
5.67635809379
21
73.9123398929
0
LINE
8
0
10
5.67635809379
20
73.9123398929
11
5.32451276298
21
71.1834969869
0
LINE
8
0
10
5.32451276298
20
71.1834969869
11
5.19354349612
21
71.0914222864
0
LINE
8
0
10
5.19354349612
20
71.0914222864
11
4.94688924981
21
71.026814697
0
LINE
8
0
10
4.94688924981
20
71.026814697
11
4.58686246181
21
70.999352611
0
LINE
8
0
10
4.58686246181
20
70.999352611
11
4.21091087934
21
71.0035334631
0
LINE
8
0
10
4.21091087934
20
71.0035334631
11
3.8684748159
21
70.9927011691
0
LINE
8
0
10
3.8684748159
20
70.9927011691
11
3.4165355565
21
70.9590305004
0
LINE
8
0
10
3.4165355565
20
70.9590305004
11
2.85662078339
21
70.8931585908
0
LINE
8
0
10
2.85662078339
20
70.8931585908
11
2.19085747358
21
70.7858200054
0
LINE
8
0
10
2.19085747358
20
70.7858200054
11
1.42196599659
21
70.6278808091
0
LINE
8
0
10
1.42196599659
20
70.6278808091
11
0.553252397476
21
70.4103722946
0
LINE
8
0
10
0.553252397476
20
70.4103722946
11
0.158746136058
21
70.2934714261
0
LINE
8
0
10
0.158746136058
20
70.2934714261
11
0.0
21
69.0622677428
0
LINE
8
0
10
0.0
20
69.0622677428
11
0.0
21
67.8208722194
0
LINE
8
0
10
0.0
20
67.8208722194
11
0.376318419198
21
67.6544827644
0
LINE
8
0
10
0.376318419198
20
67.6544827644
11
1.2100855202
21
67.3276713625
0
LINE
8
0
10
1.2100855202
20
67.3276713625
11
1.95246759265
21
67.072705185
0
LINE
8
0
10
1.95246759265
20
67.072705185
11
2.59903884124
21
66.8811119255
0
LINE
8
0
10
2.59903884124
20
66.8811119255
11
3.14593320898
21
66.7441805115
0
LINE
8
0
10
3.14593320898
20
66.7441805115
11
3.58985634375
21
66.6529935687
0
LINE
8
0
10
3.58985634375
20
66.6529935687
11
3.92809580884
21
66.5984604558
0
LINE
8
0
10
3.92809580884
20
66.5984604558
11
4.30149546951
21
66.5545313619
0
LINE
8
0
10
4.30149546951
20
66.5545313619
11
4.65505466894
21
66.4812555354
0
LINE
8
0
10
4.65505466894
20
66.4812555354
11
4.89142205214
21
66.3856369285
0
LINE
8
0
10
4.89142205214
20
66.3856369285
11
5.00954181178
21
66.277570182
0
LINE
8
0
10
5.00954181178
20
66.277570182
11
5.00954181178
21
63.5261380563
0
LINE
8
0
10
5.00954181178
20
63.5261380563
11
4.89142205214
21
63.4180713097
0
LINE
8
0
10
4.89142205214
20
63.4180713097
11
4.65505466894
21
63.3224527028
0
LINE
8
0
10
4.65505466894
20
63.3224527028
11
4.30149546951
21
63.2491768763
0
LINE
8
0
10
4.30149546951
20
63.2491768763
11
3.92809580883
21
63.2052477824
0
LINE
8
0
10
3.92809580883
20
63.2052477824
11
3.58985634375
21
63.1507146695
0
LINE
8
0
10
3.58985634375
20
63.1507146695
11
3.14593320898
21
63.0595277267
0
LINE
8
0
10
3.14593320898
20
63.0595277267
11
2.59903884124
21
62.9225963127
0
LINE
8
0
10
2.59903884124
20
62.9225963127
11
1.95246759265
21
62.7310030532
0
LINE
8
0
10
1.95246759265
20
62.7310030532
11
1.2100855202
21
62.4760368757
0
LINE
8
0
10
1.2100855202
20
62.4760368757
11
0.376318419198
21
62.1492254738
0
LINE
8
0
10
0.376318419198
20
62.1492254738
11
5.68434188608e-14
21
61.9828360188
0
LINE
8
0
10
5.68434188608e-14
20
61.9828360188
11
7.1054273576e-14
21
60.7414404954
0
LINE
8
0
10
7.1054273576e-14
20
60.7414404954
11
0.158746136058
21
59.5102368121
0
LINE
8
0
10
0.158746136058
20
59.5102368121
11
0.553252397476
21
59.3933359436
0
LINE
8
0
10
0.553252397476
20
59.3933359436
11
1.42196599659
21
59.1758274291
0
LINE
8
0
10
1.42196599659
20
59.1758274291
11
2.19085747358
21
59.0178882328
0
LINE
8
0
10
2.19085747358
20
59.0178882328
11
2.85662078339
21
58.9105496474
0
LINE
8
0
10
2.85662078339
20
58.9105496474
11
3.4165355565
21
58.8446777379
0
LINE
8
0
10
3.4165355565
20
58.8446777379
11
3.8684748159
21
58.8110070691
0
LINE
8
0
10
3.8684748159
20
58.8110070691
11
4.21091087934
21
58.8001747751
0
LINE
8
0
10
4.21091087934
20
58.8001747751
11
4.58686246181
21
58.8043556272
0
LINE
8
0
10
4.58686246181
20
58.8043556272
11
4.94688924981
21
58.7768935412
0
LINE
8
0
10
4.94688924981
20
58.7768935412
11
5.19354349612
21
58.7122859518
0
LINE
8
0
10
5.19354349612
20
58.7122859518
11
5.32451276298
21
58.6202112513
0
LINE
8
0
10
5.32451276298
20
58.6202112513
11
5.67635809379
21
55.8913683453
0
LINE
8
0
10
5.67635809379
20
55.8913683453
11
5.57302736457
21
55.7690840056
0
LINE
8
0
10
5.57302736457
20
55.7690840056
11
5.35082799037
21
55.6440244361
0
LINE
8
0
10
5.35082799037
20
55.6440244361
11
5.00954181178
21
55.5261380563
0
LINE
8
0
10
5.00954181178
20
55.5261380563
11
4.64482528501
21
55.4348203308
0
LINE
8
0
10
4.64482528501
20
55.4348203308
11
4.31633630095
21
55.3374818313
0
LINE
8
0
10
4.31633630095
20
55.3374818313
11
3.88771849641
21
55.1902759015
0
LINE
8
0
10
3.88771849641
20
55.1902759015
11
3.36282452444
21
54.984533393
0
LINE
8
0
10
3.36282452444
20
54.984533393
11
2.74606201908
21
54.7118314154
0
LINE
8
0
10
2.74606201908
20
54.7118314154
11
2.04237924428
21
54.3640247945
0
LINE
8
0
10
2.04237924428
20
54.3640247945
11
1.25724907414
21
53.9332767392
0
LINE
8
0
10
1.25724907414
20
53.9332767392
11
0.905297635203
21
53.720130808
0
LINE
8
0
10
0.905297635203
20
53.720130808
11
1.06404377126
21
52.4889271247
0
LINE
8
0
10
1.06404377126
20
52.4889271247
11
1.37892943621
21
51.288131612
0
LINE
8
0
10
1.37892943621
20
51.288131612
11
1.78514575794
21
51.2226388389
0
LINE
8
0
10
1.78514575794
20
51.2226388389
11
2.67454160189
21
51.1180046957
0
LINE
8
0
10
2.67454160189
20
51.1180046957
11
3.45731730663
21
51.0596858377
0
LINE
8
0
10
3.45731730663
20
51.0596858377
11
4.13134086251
21
51.038364423
0
LINE
8
0
10
4.13134086251
20
51.038364423
11
4.6950822559
21
51.0446336329
0
LINE
8
0
10
4.6950822559
20
51.0446336329
11
5.14761680977
21
51.0690321096
0
LINE
8
0
10
5.14761680977
20
51.0690321096
11
5.48862668089
21
51.1020785005
0
LINE
8
0
10
5.48862668089
20
51.1020785005
11
5.86095707056
21
51.1543006491
0
LINE
8
0
10
5.86095707056
20
51.1543006491
11
6.22153981721
21
51.1731032302
0
LINE
8
0
10
6.22153981721
20
51.1731032302
11
6.47443087073
21
51.1405675132
0
LINE
8
0
10
6.47443087073
20
51.1405675132
11
6.61609913308
21
51.0659967229
0
LINE
8
0
10
6.61609913308
20
51.0659967229
11
7.31401250409
21
48.4045505617
0
LINE
8
0
10
7.31401250409
20
48.4045505617
11
7.227167493
21
48.2700565344
0
LINE
8
0
10
7.227167493
20
48.2700565344
11
7.02278463539
21
48.1176094769
0
LINE
8
0
10
7.02278463539
20
48.1176094769
11
6.69937538726
21
47.9570482347
0
LINE
8
0
10
6.69937538726
20
47.9570482347
11
6.34933062967
21
47.8198413123
0
LINE
8
0
10
6.34933062967
20
47.8198413123
11
6.03598590668
21
47.6812957215
0
LINE
8
0
10
6.03598590668
20
47.6812957215
11
5.62971132487
21
47.4804879222
0
LINE
8
0
10
5.62971132487
20
47.4804879222
11
5.13543649317
21
47.2093126055
0
LINE
8
0
10
5.13543649317
20
47.2093126055
11
4.55860995435
21
46.8599796687
0
LINE
8
0
10
4.55860995435
20
46.8599796687
11
3.9051809289
21
46.4250435794
0
LINE
8
0
10
3.9051809289
20
46.4250435794
11
3.18157950531
21
45.897431742
0
LINE
8
0
10
3.18157950531
20
45.897431742
11
2.85977407953
21
45.6410291849
0
LINE
8
0
10
2.85977407953
20
45.6410291849
11
3.17465974448
21
44.4402336721
0
LINE
8
0
10
3.17465974448
20
44.4402336721
11
3.6405145244
21
43.289563359
0
LINE
8
0
10
3.6405145244
20
43.289563359
11
4.05177084568
21
43.276554071
0
LINE
8
0
10
4.05177084568
20
43.276554071
11
4.94724507929
21
43.2865123888
0
LINE
8
0
10
4.94724507929
20
43.2865123888
11
5.73105185634
21
43.3287714632
0
LINE
8
0
10
5.73105185634
20
43.3287714632
11
6.40226821015
21
43.3938173162
0
LINE
8
0
10
6.40226821015
20
43.3938173162
11
6.96057960571
21
43.4721247053
0
LINE
8
0
10
6.96057960571
20
43.4721247053
11
7.40627884921
21
43.5541917052
0
LINE
8
0
10
7.40627884921
20
43.5541917052
11
7.74026315533
21
43.63057416
0
LINE
8
0
10
7.74026315533
20
43.63057416
11
8.1028586975
21
43.729980119
0
LINE
8
0
10
8.1028586975
20
43.729980119
11
8.45807664409
21
43.7947386294
0
LINE
8
0
10
8.45807664409
20
43.7947386294
11
8.7130520407
21
43.7948090202
0
LINE
8
0
10
8.7130520407
20
43.7948090202
11
8.86309310959
21
43.7389665904
0
LINE
8
0
10
8.86309310959
20
43.7389665904
11
9.89561480254
21
41.1886180463
0
LINE
8
0
10
9.89561480254
20
41.1886180463
11
9.82668150226
21
41.0441227196
0
LINE
8
0
10
9.82668150226
20
41.0441227196
11
9.64347112211
21
40.8667913506
0
LINE
8
0
10
9.64347112211
20
40.8667913506
11
9.34324917536
21
40.6661916574
0
LINE
8
0
10
9.34324917536
20
40.6661916574
11
9.0136239122
21
40.4853484718
0
LINE
8
0
10
9.0136239122
20
40.4853484718
11
8.72056856195
21
40.3078707046
0
LINE
8
0
10
8.72056856195
20
40.3078707046
11
8.34330822027
21
40.0567582941
0
LINE
8
0
10
8.34330822027
20
40.0567582941
11
7.88776850792
21
39.7246028605
0
LINE
8
0
10
7.88776850792
20
39.7246028605
11
7.36034941145
21
39.3043750017
0
LINE
8
0
10
7.36034941145
20
39.3043750017
11
6.76790342189
21
38.7894510825
0
LINE
8
0
10
6.76790342189
20
38.7894510825
11
6.11771226021
21
38.1736388348
0
LINE
8
0
10
6.11771226021
20
38.1736388348
11
5.83133688379
21
37.8781897747
0
LINE
8
0
10
5.83133688379
20
37.8781897747
11
6.29719166372
21
36.7275194615
0
LINE
8
0
10
6.29719166372
20
36.7275194615
11
6.90636623602
21
35.6458683228
0
LINE
8
0
10
6.90636623602
20
35.6458683228
11
7.31590973941
21
35.6855561319
0
LINE
8
0
10
7.31590973941
20
35.6855561319
11
8.20275870052
21
35.8099433954
0
LINE
8
0
10
8.20275870052
20
35.8099433954
11
8.97472646428
21
35.9520865094
0
LINE
8
0
10
8.97472646428
20
35.9520865094
11
9.63211426203
21
36.1024315791
0
LINE
8
0
10
9.63211426203
20
36.1024315791
11
10.1758282021
21
36.2514913422
0
LINE
8
0
10
10.1758282021
20
36.2514913422
11
10.607373766
21
36.3898793273
0
LINE
8
0
10
10.607373766
20
36.3898793273
11
10.928848494
21
36.5083436484
0
LINE
8
0
10
10.928848494
20
36.5083436484
11
11.2757553799
21
36.6533011746
0
LINE
8
0
10
11.2757553799
20
36.6533011746
11
11.6197758576
21
36.7629522813
0
LINE
8
0
10
11.6197758576
20
36.7629522813
11
11.8726489083
21
36.7956276243
0
LINE
8
0
10
11.8726489083
20
36.7956276243
11
12.0285991135
21
36.759430486
0
LINE
8
0
10
12.0285991135
20
36.759430486
11
13.3787751508
21
34.3620562117
0
LINE
8
0
10
13.3787751508
20
34.3620562117
11
13.3288854442
21
34.2099321949
0
LINE
8
0
10
13.3288854442
20
34.2099321949
11
13.1698558509
21
34.0106282906
0
LINE
8
0
10
13.1698558509
20
34.0106282906
11
12.8977508416
21
33.7732839876
0
LINE
8
0
10
12.8977508416
20
33.7732839876
11
12.5939575105
21
33.551773979
0
LINE
8
0
10
12.5939575105
20
33.551773979
11
12.3260034938
21
33.3382782154
0
LINE
8
0
10
12.3260034938
20
33.3382782154
11
11.9839519966
21
33.0409844526
0
LINE
8
0
10
11.9839519966
20
33.0409844526
11
11.5746273531
21
32.6533028851
0
LINE
8
0
10
11.5746273531
20
32.6533028851
11
11.105275906
21
32.1690802341
0
LINE
8
0
10
11.105275906
20
32.1690802341
11
10.5835408991
21
31.5826235216
0
LINE
8
0
10
10.5835408991
20
31.5826235216
11
10.0174361202
21
30.8887224836
0
LINE
8
0
10
10.0174361202
20
30.8887224836
11
9.77119306889
21
30.5590781859
0
LINE
8
0
10
9.77119306889
20
30.5590781859
11
10.3803676412
21
29.4774270471
0
LINE
8
0
10
10.3803676412
20
29.4774270471
11
11.1228593762
21
28.4825557646
0
LINE
8
0
10
11.1228593762
20
28.4825557646
11
11.5239653687
21
28.5742889981
0
LINE
8
0
10
11.5239653687
20
28.5742889981
11
12.3876270219
21
28.8110627719
0
LINE
8
0
10
12.3876270219
20
28.8110627719
11
13.1350800831
21
29.0507559394
0
LINE
8
0
10
13.1350800831
20
29.0507559394
11
13.7678450353
21
29.2839315638
0
LINE
8
0
10
13.7678450353
20
29.2839315638
11
14.288033752
21
29.5012961438
0
LINE
8
0
10
14.288033752
20
29.5012961438
11
14.69833967
21
29.6937327873
0
LINE
8
0
10
14.69833967
20
29.6937327873
11
15.0020262138
21
29.8523337937
0
LINE
8
0
10
15.0020262138
20
29.8523337937
11
15.327548242
21
30.0404626886
0
LINE
8
0
10
15.327548242
20
30.0404626886
11
15.654722444
21
30.1932059235
0
LINE
8
0
10
15.654722444
20
30.1932059235
11
15.9013409803
21
30.2579496903
0
LINE
8
0
10
15.9013409803
20
30.2579496903
11
16.0606396238
21
30.2419921997
0
LINE
8
0
10
16.0606396238
20
30.2419921997
11
17.7063001522
21
28.0369570145
0
LINE
8
0
10
17.7063001522
20
28.0369570145
11
17.6762732269
21
27.8797021796
0
LINE
8
0
10
17.6762732269
20
27.8797021796
11
17.5440356819
21
27.6616983046
0
LINE
8
0
10
17.5440356819
20
27.6616983046
11
17.3045155668
21
27.3915065788
0
LINE
8
0
10
17.3045155668
20
27.3915065788
11
17.031542446
21
27.1329669354
0
LINE
8
0
10
17.031542446
20
27.1329669354
11
16.7930895603
21
26.88695877
0
LINE
8
0
10
16.7930895603
20
26.88695877
11
16.4918633838
21
26.5483652102
0
LINE
8
0
10
16.4918633838
20
26.5483652102
11
16.1354749084
21
26.1115232294
0
LINE
8
0
10
16.1354749084
20
26.1115232294
11
15.7318978484
21
25.5712567088
0
LINE
8
0
10
15.7318978484
20
25.5712567088
11
15.2894406985
21
24.9228968059
0
LINE
8
0
10
15.2894406985
20
24.9228968059
11
14.8167177273
21
24.1623008136
0
LINE
8
0
10
14.8167177273
20
24.1623008136
11
14.6146503052
21
23.8038740284
0
LINE
8
0
10
14.6146503052
20
23.8038740284
11
15.3571420402
21
22.8090027459
0
LINE
8
0
10
15.3571420402
20
22.8090027459
11
16.2207592443
21
21.9172470784
0
LINE
8
0
10
16.2207592443
20
21.9172470784
11
16.6068415766
21
22.0595194793
0
LINE
8
0
10
16.6068415766
20
22.0595194793
11
17.4331346214
21
22.4047919445
0
LINE
8
0
10
17.4331346214
20
22.4047919445
11
18.1437998213
21
22.7380994104
0
LINE
8
0
10
18.1437998213
20
22.7380994104
11
18.741551945
21
23.0502768523
0
LINE
8
0
10
18.741551945
20
23.0502768523
11
19.229673954
21
23.3323771287
0
LINE
8
0
10
19.229673954
20
23.3323771287
11
19.6120030143
21
23.5757026262
0
LINE
8
0
10
19.6120030143
20
23.5757026262
11
19.8929148492
21
23.7718360938
0
LINE
8
0
10
19.8929148492
20
23.7718360938
11
20.1917069569
21
24.0000472861
0
LINE
8
0
10
20.1917069569
20
24.0000472861
11
20.4966626919
21
24.1933746094
0
LINE
8
0
10
20.4966626919
20
24.1933746094
11
20.7329772443
21
24.2891237093
0
LINE
8
0
10
20.7329772443
20
24.2891237093
11
20.8930086468
21
24.2936678878
0
LINE
8
0
10
20.8930086468
20
24.2936678878
11
22.8071319658
21
22.3171784085
0
LINE
8
0
10
22.8071319658
20
22.3171784085
11
22.7974608631
21
22.1573748756
0
LINE
8
0
10
22.7974608631
20
22.1573748756
11
22.6941867034
21
21.9242506475
0
LINE
8
0
10
22.6941867034
20
21.9242506475
11
22.4911843961
21
21.6256480395
0
LINE
8
0
10
22.4911843961
20
21.6256480395
11
22.2535136966
21
21.3343239751
0
LINE
8
0
10
22.2535136966
20
21.3343239751
11
22.0484773318
21
21.0598428551
0
LINE
8
0
10
22.0484773318
20
21.0598428551
11
21.7930226014
21
20.6855091954
0
LINE
8
0
10
21.7930226014
20
20.6855091954
11
21.4954221831
21
20.2066797345
0
LINE
8
0
10
21.4954221831
20
20.2066797345
11
21.1642462343
21
19.6192405056
0
LINE
8
0
10
21.1642462343
20
19.6192405056
11
20.8083320757
21
18.9196234641
0
LINE
8
0
10
20.8083320757
20
18.9196234641
11
20.4367530102
21
18.1048214825
0
LINE
8
0
10
20.4367530102
20
18.1048214825
11
20.2821791588
21
17.7234975679
0
LINE
8
0
10
20.2821791588
20
17.7234975679
11
21.1457963628
21
16.8317419005
0
LINE
8
0
10
21.1457963628
20
16.8317419005
11
22.1163584652
21
16.0577444516
0
LINE
8
0
10
22.1163584652
20
16.0577444516
11
22.4810776761
21
16.2482199108
0
LINE
8
0
10
22.4810776761
20
16.2482199108
11
23.2564344036
21
16.6963217031
0
LINE
8
0
10
23.2564344036
20
16.6963217031
11
23.9186426393
21
17.117770568
0
LINE
8
0
10
23.9186426393
20
17.117770568
11
24.4715668611
21
17.5038238823
0
LINE
8
0
10
24.4715668611
20
17.5038238823
11
24.9196072125
21
17.8460277764
0
LINE
8
0
10
24.9196072125
20
17.8460277764
11
25.2676815825
21
18.1362467301
0
LINE
8
0
10
25.2676815825
20
18.1362467301
11
25.5212061441
21
18.3666921528
0
LINE
8
0
10
25.5212061441
20
18.3666921528
11
25.7883621731
21
18.631238421
0
LINE
8
0
10
25.7883621731
20
18.631238421
11
26.0660920763
21
18.8619754035
0
LINE
8
0
10
26.0660920763
20
18.8619754035
11
26.2882223665
21
18.9871576388
0
LINE
8
0
10
26.2882223665
20
18.9871576388
11
26.4463588167
21
19.0121288712
0
LINE
8
0
10
26.4463588167
20
19.0121288712
11
28.5975150744
21
17.2966390003
0
LINE
8
0
10
28.5975150744
20
17.2966390003
11
28.6083585936
21
17.1369107391
0
LINE
8
0
10
28.6083585936
20
17.1369107391
11
28.5357435778
21
16.8924940512
0
LINE
8
0
10
28.5357435778
20
16.8924940512
11
28.3725923707
21
16.5703836077
0
LINE
8
0
10
28.3725923707
20
16.5703836077
11
28.1741266388
21
16.2510586554
0
LINE
8
0
10
28.1741266388
20
16.2510586554
11
28.0058734863
21
15.9526115532
0
LINE
8
0
10
28.0058734863
20
15.9526115532
11
27.8003847616
21
15.5486843417
0
LINE
8
0
10
27.8003847616
20
15.5486843417
11
27.566458991
21
15.0357297673
0
LINE
8
0
10
27.566458991
20
15.0357297673
11
27.3131220535
21
14.410763566
0
LINE
8
0
10
27.3131220535
20
14.410763566
11
27.0495949867
21
13.6713770783
0
LINE
8
0
10
27.0495949867
20
13.6713770783
11
26.785261145
21
12.8157481335
0
LINE
8
0
10
26.785261145
20
12.8157481335
11
26.6807189626
21
12.4177884176
0
LINE
8
0
10
26.6807189626
20
12.4177884176
11
27.651281065
21
11.6437909687
0
LINE
8
0
10
27.651281065
20
11.6437909687
11
28.7128514628
21
11.000260755
0
LINE
8
0
10
28.7128514628
20
11.000260755
11
29.050218873
21
11.2358116709
0
LINE
8
0
10
29.050218873
20
11.2358116709
11
29.7619079471
21
11.7793849713
0
LINE
8
0
10
29.7619079471
20
11.7793849713
11
30.3647857777
21
12.2820550564
0
LINE
8
0
10
30.3647857777
20
12.2820550564
11
30.8638030972
21
12.7356452585
0
LINE
8
0
10
30.8638030972
20
12.7356452585
11
31.2644049808
21
13.1323337918
0
LINE
8
0
10
31.2644049808
20
13.1323337918
11
31.572509289
21
13.4646808144
0
LINE
8
0
10
31.572509289
20
13.4646808144
11
31.7944837108
21
13.7256542847
0
LINE
8
0
10
31.7944837108
20
13.7256542847
11
32.0256169667
21
14.0221917864
0
LINE
8
0
10
32.0256169667
20
14.0221917864
11
32.2715607208
21
14.2865497332
0
LINE
8
0
10
32.2715607208
20
14.2865497332
11
32.4758593754
21
14.4391096152
0
LINE
8
0
10
32.4758593754
20
14.4391096152
11
32.6295042772
21
14.4840978745
0
LINE
8
0
10
32.6295042772
20
14.4840978745
11
34.9823715474
21
13.0577759083
0
LINE
8
0
10
34.9823715474
20
13.0577759083
11
35.0135516381
21
12.9007456524
0
LINE
8
0
10
35.0135516381
20
12.9007456524
11
34.9727881029
21
12.64904982
0
LINE
8
0
10
34.9727881029
20
12.64904982
11
34.8521669342
21
12.3087205854
0
LINE
8
0
10
34.8521669342
20
12.3087205854
11
34.6961649718
21
11.9666380521
0
LINE
8
0
10
34.6961649718
20
11.9666380521
11
34.5674577436
21
11.6491254609
0
LINE
8
0
10
34.5674577436
20
11.6491254609
11
34.4153091439
21
11.2222371714
0
LINE
8
0
10
34.4153091439
20
11.2222371714
11
34.2488990757
21
10.6835801833
0
LINE
8
0
10
34.2488990757
20
10.6835801833
11
34.0775609349
21
10.0313489374
0
LINE
8
0
10
34.0775609349
20
10.0313489374
11
33.9107480671
21
9.26433370925
0
LINE
8
0
10
33.9107480671
20
9.26433370925
11
33.7579998035
21
8.38192720479
0
LINE
8
0
10
33.7579998035
20
8.38192720479
11
33.70520587
21
7.97386617511
0
LINE
8
0
10
33.70520587
20
7.97386617511
11
34.7667762678
21
7.33033596145
0
LINE
8
0
10
34.7667762678
20
7.33033596145
11
35.9019240045
21
6.82783973136
0
LINE
8
0
10
35.9019240045
20
6.82783973136
11
36.2064000503
21
7.10459836429
0
LINE
8
0
10
36.2064000503
20
7.10459836429
11
36.8427355561
21
7.73471771425
0
LINE
8
0
10
36.8427355561
20
7.73471771425
11
37.3763837444
21
8.31035519073
0
LINE
8
0
10
37.3763837444
20
8.31035519073
11
37.813300311
21
8.824034342
0
LINE
8
0
10
37.813300311
20
8.824034342
11
38.1598858549
21
9.26869389978
0
LINE
8
0
10
38.1598858549
20
9.26869389978
11
38.4229610371
21
9.6377118623
0
LINE
8
0
10
38.4229610371
20
9.6377118623
11
38.6097405053
21
9.92492820304
0
LINE
8
0
10
38.6097405053
20
9.92492820304
11
38.8010557863
21
10.2485878007
0
LINE
8
0
10
38.8010557863
20
10.2485878007
11
39.0111750017
21
10.5422259616
0
LINE
8
0
10
39.0111750017
20
10.5422259616
11
39.1942874424
21
10.7196584611
0
LINE
8
0
10
39.1942874424
20
10.7196584611
11
39.3409179508
21
10.7839250414
0
LINE
8
0
10
39.3409179508
20
10.7839250414
11
41.8568622179
21
9.6701911472
0
LINE
8
0
10
41.8568622179
20
9.6701911472
11
41.9078669039
21
9.518437329
0
LINE
8
0
10
41.9078669039
20
9.518437329
11
41.8996241855
21
9.26359519076
0
LINE
8
0
10
41.8996241855
20
9.26359519076
11
41.8235136514
21
8.91063536181
0
LINE
8
0
10
41.8235136514
20
8.91063536181
11
41.7125370064
21
8.55141223316
0
LINE
8
0
10
41.7125370064
20
8.55141223316
11
41.6254890718
21
8.22004770095
0
LINE
8
0
10
41.6254890718
20
8.22004770095
11
41.5291788728
21
7.77720782731
0
LINE
8
0
10
41.5291788728
20
7.77720782731
11
41.4330169557
21
7.22169315845
0
LINE
8
0
10
41.4330169557
20
7.22169315845
11
41.3464909791
21
6.55290648694
0
LINE
8
0
10
41.3464909791
20
6.55290648694
11
41.2791313731
21
5.77085688711
0
LINE
8
0
10
41.2791313731
20
5.77085688711
11
41.2404768098
21
4.87616191346
0
LINE
8
0
10
41.2404768098
20
4.87616191346
11
41.240298
21
4.46469992081
0
LINE
8
0
10
41.240298
20
4.46469992081
11
42.3754457367
21
3.96220369072
0
LINE
8
0
10
42.3754457367
20
3.96220369072
11
43.5655317179
21
3.6089924184
0
LINE
8
0
10
43.5655317179
20
3.6089924184
11
43.8321169111
21
3.92241439931
0
LINE
8
0
10
43.8321169111
20
3.92241439931
11
44.3826502372
21
4.62873325648
0
LINE
8
0
10
44.3826502372
20
4.62873325648
11
44.8383062946
21
5.26788617288
0
LINE
8
0
10
44.8383062946
20
5.26788617288
11
45.2059479503
21
5.83321967585
0
LINE
8
0
10
45.2059479503
20
5.83321967585
11
45.4928262296
21
6.31854896045
0
LINE
8
0
10
45.4928262296
20
6.31854896045
11
45.7065525984
21
6.7181785982
0
LINE
8
0
10
45.7065525984
20
6.7181785982
11
45.8550701994
21
7.02692172501
0
LINE
8
0
10
45.8550701994
20
7.02692172501
11
46.0034261138
21
7.37238893695
0
LINE
8
0
10
46.0034261138
20
7.37238893695
11
46.1742706388
21
7.69048578154
0
LINE
8
0
10
46.1742706388
20
7.69048578154
11
46.3331901645
21
7.88987746186
0
LINE
8
0
10
46.3331901645
20
7.88987746186
11
46.4703986106
21
7.97236710764
0
LINE
8
0
10
46.4703986106
20
7.97236710764
11
49.1081081393
21
7.18950876513
0
LINE
8
0
10
49.1081081393
20
7.18950876513
11
49.1780999251
21
7.04552317816
0
LINE
8
0
10
49.1780999251
20
7.04552317816
11
49.2025133686
21
6.79171923492
0
LINE
8
0
10
49.2025133686
20
6.79171923492
11
49.172163202
21
6.43192440222
0
LINE
8
0
10
49.172163202
20
6.43192440222
11
49.1080341079
21
6.06145911211
0
LINE
8
0
10
49.1080341079
20
6.06145911211
11
49.0640747914
21
5.72168363531
0
LINE
8
0
10
49.0640747914
20
5.72168363531
11
49.0251844039
21
5.27016359603
0
LINE
8
0
10
49.0251844039
20
5.27016359603
11
49.000849614
21
4.7069127819
0
LINE
8
0
10
49.000849614
20
4.7069127819
11
49.0005565559
21
4.03255214342
0
LINE
8
0
10
49.0005565559
20
4.03255214342
11
49.0337562543
21
3.24830940476
0
LINE
8
0
10
49.0337562543
20
3.24830940476
11
49.1098300983
21
2.35601682864
0
LINE
8
0
10
49.1098300983
20
2.35601682864
11
49.1622693483
21
1.94791006757
0
LINE
8
0
10
49.1622693483
20
1.94791006757
11
50.3523553295
21
1.59469879525
0
LINE
8
0
10
50.3523553295
20
1.59469879525
11
51.5778383762
21
1.39657220002
0
LINE
8
0
10
51.5778383762
20
1.39657220002
11
51.8021553953
21
1.74151114867
0
LINE
8
0
10
51.8021553953
20
1.74151114867
11
52.2578467997
21
2.51243177694
0
LINE
8
0
10
52.2578467997
20
2.51243177694
11
52.6280288663
21
3.20460526004
0
LINE
8
0
10
52.6280288663
20
3.20460526004
11
52.9203589453
21
3.81231035422
0
LINE
8
0
10
52.9203589453
20
3.81231035422
11
53.1428194265
21
4.3303402722
0
LINE
8
0
10
53.1428194265
20
4.3303402722
11
53.303687601
21
4.75401967758
0
LINE
8
0
10
53.303687601
20
4.75401967758
11
53.4115046798
21
5.07922003686
0
LINE
8
0
10
53.4115046798
20
5.07922003686
11
53.5144652277
21
5.44082230103
0
LINE
8
0
10
53.5144652277
20
5.44082230103
11
53.6432297999
21
5.77815468785
0
LINE
8
0
10
53.6432297999
20
5.77815468785
11
53.7753469563
21
5.99623154312
0
LINE
8
0
10
53.7753469563
20
5.99623154312
11
53.9008803812
21
6.09558977669
0
LINE
8
0
10
53.9008803812
20
6.09558977669
11
56.617044054
21
5.65646149823
0
LINE
8
0
10
56.617044054
20
5.65646149823
11
56.7048736763
21
5.52260838185
0
LINE
8
0
10
56.7048736763
20
5.52260838185
11
56.7615424137
21
5.27401008733
0
LINE
8
0
10
56.7615424137
20
5.27401008733
11
56.7774509636
21
4.91328807208
0
LINE
8
0
10
56.7774509636
20
4.91328807208
11
56.7612224182
21
4.53766365035
0
LINE
8
0
10
56.7612224182
20
4.53766365035
11
56.7610735307
21
4.1950563329
0
LINE
8
0
10
56.7610735307
20
4.1950563329
11
56.7802415338
21
3.74227007452
0
LINE
8
0
10
56.7802415338
20
3.74227007452
11
56.8281334476
21
3.18053167793
0
LINE
8
0
10
56.8281334476
20
3.18053167793
11
56.9140781199
21
2.51167005553
0
LINE
8
0
10
56.9140781199
20
2.51167005553
11
57.0472919848
21
1.73811142212
0
LINE
8
0
10
57.0472919848
20
1.73811142212
11
57.2368451056
21
0.862872662955
0
LINE
8
0
10
57.2368451056
20
0.862872662955
11
57.3410413643
21
0.464822235206
0
LINE
8
0
10
57.3410413643
20
0.464822235206
11
58.566524411
21
0.26669563998
0
LINE
8
0
10
58.566524411
20
0.26669563998
11
59.8072821255
21
0.226906955065
0
LINE
8
0
10
59.8072821255
20
0.226906955065
11
59.9856476913
21
0.597698983431
0
LINE
8
0
10
59.9856476913
20
0.597698983431
11
60.3390147337
21
1.4205628874
0
LINE
8
0
10
60.3390147337
20
1.4205628874
11
60.6176444302
21
2.15439146776
0
LINE
8
0
10
60.6176444302
20
2.15439146776
11
60.8298628808
21
2.7944896523
0
LINE
8
0
10
60.8298628808
20
2.7944896523
11
60.9842527689
21
3.33671416673
0
LINE
8
0
10
60.9842527689
20
3.33671416673
11
61.0896212981
21
3.77748653562
0
LINE
8
0
10
61.0896212981
20
3.77748653562
11
61.1549675012
21
4.11380434645
0
LINE
8
0
10
61.1549675012
20
4.11380434645
11
61.2108420733
21
4.48560416366
0
LINE
8
0
10
61.2108420733
20
4.48560416366
11
61.2954123819
21
4.83663310427
0
LINE
8
0
10
61.2954123819
20
4.83663310427
11
61.3985578091
21
5.06981431854
0
LINE
8
0
10
61.3985578091
20
5.06981431854
11
61.5103549573
21
5.18440968045
0
LINE
8
0
10
61.5103549573
20
5.18440968045
11
64.2603734418
21
5.09622194024
0
LINE
8
0
10
64.2603734418
20
5.09622194024
11
64.3645987408
21
4.97469915891
0
LINE
8
0
10
64.3645987408
20
4.97469915891
11
64.4525922729
21
4.73538849024
0
LINE
8
0
10
64.4525922729
20
4.73538849024
11
64.5144983213
21
4.37966233797
0
LINE
8
0
10
64.5144983213
20
4.37966233797
11
64.546436797
21
4.00504652722
0
LINE
8
0
10
64.546436797
20
4.00504652722
11
64.5901007831
21
3.6652329718
0
LINE
8
0
10
64.5901007831
20
3.6652329718
11
64.6670124388
21
3.21861523218
0
LINE
8
0
10
64.6670124388
20
3.21861523218
11
64.7863446724
21
2.66761298206
0
LINE
8
0
10
64.7863446724
20
2.66761298206
11
64.9571158659
21
2.01523306508
0
LINE
8
0
10
64.9571158659
20
2.01523306508
11
65.1881565293
21
1.2650603483
0
LINE
8
0
10
65.1881565293
20
1.2650603483
11
65.4880764699
21
0.42124680233
0
LINE
8
0
10
65.4880764699
20
0.42124680233
11
65.6423188377
21
0.0397886849147
0
LINE
8
0
10
65.6423188377
20
0.0397886849147
11
66.8830765521
21
0.0
0
LINE
8
0
10
66.8830765521
20
0.0
11
68.118735727
21
0.119202554503
0
LINE
8
0
10
68.118735727
20
0.119202554503
11
68.2482210818
21
0.50975926774
0
LINE
8
0
10
68.2482210818
20
0.50975926774
11
68.4934614853
21
1.37105504485
0
LINE
8
0
10
68.4934614853
20
1.37105504485
11
68.6759637198
21
2.13448927746
0
LINE
8
0
10
68.6759637198
20
2.13448927746
11
68.8045859208
21
2.79647015787
0
LINE
8
0
10
68.8045859208
20
2.79647015787
11
68.8883701381
21
3.35398595722
0
LINE
8
0
10
68.8883701381
20
3.35398595722
11
68.9365088737
21
3.8046138195
0
LINE
8
0
10
68.9365088737
20
3.8046138195
11
68.9583112183
21
4.14652675273
0
LINE
8
0
10
68.9583112183
20
4.14652675273
11
68.9661823556
21
4.52241918027
0
LINE
8
0
10
68.9661823556
20
4.52241918027
11
69.0051697585
21
4.88138078916
0
LINE
8
0
10
69.0051697585
20
4.88138078916
11
69.0776498113
21
5.12583753335
0
LINE
8
0
10
69.0776498113
20
5.12583753335
11
69.1738749769
21
5.25378837092
0
LINE
8
0
10
69.1738749769
20
5.25378837092
11
71.9125930455
21
5.51798920921
0
LINE
8
0
10
71.9125930455
20
5.51798920921
11
72.0315026446
21
5.41079216365
0
LINE
8
0
10
72.0315026446
20
5.41079216365
11
72.1493761201
21
5.18469859539
0
LINE
8
0
10
72.1493761201
20
5.18469859539
11
72.2562631714
21
4.83980931967
0
LINE
8
0
10
72.2562631714
20
4.83980931967
11
72.3358442392
21
4.47235330117
0
LINE
8
0
10
72.3358442392
20
4.47235330117
11
72.4226041377
21
4.14091323697
0
LINE
8
0
10
72.4226041377
20
4.14091323697
11
72.5559965586
21
3.70779746703
0
LINE
8
0
10
72.5559965586
20
3.70779746703
11
72.74480968
21
3.17657880511
0
LINE
8
0
10
72.74480968
20
3.17657880511
11
72.9976033365
21
2.55139265375
0
LINE
8
0
10
72.9976033365
20
2.55139265375
11
73.322677117
21
1.83692366887
0
LINE
8
0
10
73.322677117
20
1.83692366887
11
73.7280392003
21
1.03839073118
0
LINE
8
0
10
73.7280392003
20
1.03839073118
11
73.9297950218
21
0.679788455845
0
LINE
8
0
10
73.9297950218
20
0.679788455845
11
75.1654541966
21
0.798991010348
0
LINE
8
0
10
75.1654541966
20
0.798991010348
11
76.3757253424
21
1.07522750162
0
LINE
8
0
10
76.3757253424
20
1.07522750162
11
76.4542043403
21
1.47913596929
0
LINE
8
0
10
76.4542043403
20
1.47913596929
11
76.5872912641
21
2.3647211667
0
LINE
8
0
10
76.5872912641
20
2.3647211667
11
76.670669355
21
3.14522548257
0
LINE
8
0
10
76.670669355
20
3.14522548257
11
76.7135833334
21
3.81821935109
0
LINE
8
0
10
76.7135833334
20
3.81821935109
11
76.7253861455
21
4.38187204135
0
LINE
8
0
10
76.7253861455
20
4.38187204135
11
76.7155046507
21
4.83495609997
0
LINE
8
0
10
76.7155046507
20
4.83495609997
11
76.6934051429
21
5.17684995469
0
LINE
8
0
10
76.6934051429
20
5.17684995469
11
76.6531436015
21
5.55066284929
0
LINE
8
0
10
76.6531436015
20
5.55066284929
11
76.6459079267
21
5.91166298676
0
LINE
8
0
10
76.6459079267
20
5.91166298676
11
76.6865324846
21
6.16338128789
0
LINE
8
0
10
76.6865324846
20
6.16338128789
11
76.765605653
21
6.30258665192
0
LINE
8
0
10
76.765605653
20
6.30258665192
11
79.4480536308
21
6.91483789825
0
LINE
8
0
10
79.4480536308
20
6.91483789825
11
79.5796950377
21
6.82372676097
0
LINE
8
0
10
79.5796950377
20
6.82372676097
11
79.7255129774
21
6.61456274327
0
LINE
8
0
10
79.7255129774
20
6.61456274327
11
79.8756259491
21
6.28617341647
0
LINE
8
0
10
79.8756259491
20
6.28617341647
11
80.0015428902
21
5.93191080789
0
LINE
8
0
10
80.0015428902
20
5.93191080789
11
80.1299741057
21
5.61428647159
0
LINE
8
0
10
80.1299741057
20
5.61428647159
11
80.317656992
21
5.20178442032
0
LINE
8
0
10
80.317656992
20
5.20178442032
11
80.5728506951
21
4.69907194232
0
LINE
8
0
10
80.5728506951
20
4.69907194232
11
80.9035159497
21
4.11134509591
0
LINE
8
0
10
80.9035159497
20
4.11134509591
11
81.3172851449
21
3.4443114039
0
LINE
8
0
10
81.3172851449
20
3.4443114039
11
81.8214333367
21
2.70417096327
0
LINE
8
0
10
81.8214333367
20
2.70417096327
11
82.0673897867
21
2.37431276945
0
LINE
8
0
10
82.0673897867
20
2.37431276945
11
83.2776609325
21
2.65054926072
0
LINE
8
0
10
83.2776609325
20
2.65054926072
11
84.4426714305
21
3.07928389321
0
LINE
8
0
10
84.4426714305
20
3.07928389321
11
84.4688554485
21
3.48991194945
0
LINE
8
0
10
84.4688554485
20
3.48991194945
11
84.4876036089
21
4.3852452827
0
LINE
8
0
10
84.4876036089
20
4.3852452827
11
84.4704884903
21
5.17000382253
0
LINE
8
0
10
84.4704884903
20
5.17000382253
11
84.4269895998
21
5.84296013845
0
LINE
8
0
10
84.4269895998
20
5.84296013845
11
84.3666172047
21
6.40349455802
0
LINE
8
0
10
84.3666172047
20
6.40349455802
11
84.2988777335
21
6.85159518528
0
LINE
8
0
10
84.2988777335
20
6.85159518528
11
84.2332392466
21
7.18785607385
0
LINE
8
0
10
84.2332392466
20
7.18785607385
11
84.1455061199
21
7.55345143811
0
LINE
8
0
10
84.1455061199
20
7.55345143811
11
84.092166177
21
7.91056249189
0
LINE
8
0
10
84.092166177
20
7.91056249189
11
84.100268186
21
8.16540914241
0
LINE
8
0
10
84.100268186
20
8.16540914241
11
84.1608909779
21
8.31358328466
0
LINE
8
0
10
84.1608909779
20
8.31358328466
11
86.7430231433
21
9.26383179049
0
LINE
8
0
10
86.7430231433
20
9.26383179049
11
86.8852348096
21
9.19030260386
0
LINE
8
0
10
86.8852348096
20
9.19030260386
11
87.0566028869
21
9.0015026041
0
LINE
8
0
10
87.0566028869
20
9.0015026041
11
87.2474769283
21
8.6950053699
0
LINE
8
0
10
87.2474769283
20
8.6950053699
11
87.4176621899
21
8.35975315347
0
LINE
8
0
10
87.4176621899
20
8.35975315347
11
87.5856558855
21
8.06115992789
0
LINE
8
0
10
87.5856558855
20
8.06115992789
11
87.8245474895
21
7.67604486756
0
LINE
8
0
10
87.8245474895
20
7.67604486756
11
88.1419315006
21
7.21009309849
0
LINE
8
0
10
88.1419315006
20
7.21009309849
11
88.545038839
21
6.66947601558
0
LINE
8
0
10
88.545038839
20
6.66947601558
11
89.04070937
21
6.06083029123
0
LINE
8
0
10
89.04070937
20
6.06083029123
11
89.6353655709
21
5.39123543322
0
LINE
8
0
10
89.6353655709
20
5.39123543322
11
89.9214840516
21
5.09553758335
0
LINE
8
0
10
89.9214840516
20
5.09553758335
11
91.0864945495
21
5.52427221584
0
LINE
8
0
10
91.0864945495
20
5.52427221584
11
92.1871149595
21
6.09846517874
0
LINE
8
0
10
92.1871149595
20
6.09846517874
11
92.1605740567
21
6.50907032221
0
LINE
8
0
10
92.1605740567
20
6.50907032221
11
92.0646756096
21
7.39945044271
0
LINE
8
0
10
92.0646756096
20
7.39945044271
11
91.9473483112
21
8.17557749299
0
LINE
8
0
10
91.9473483112
20
8.17557749299
11
91.8181508023
21
8.8374463322
0
LINE
8
0
10
91.8181508023
20
8.8374463322
11
91.6865945132
21
9.38565852142
0
LINE
8
0
10
91.6865945132
20
9.38565852142
11
91.5621093457
21
9.8214179174
0
LINE
8
0
10
91.5621093457
20
9.8214179174
11
91.4540096619
21
10.1465244453
0
LINE
8
0
10
91.4540096619
20
10.1465244453
11
91.3202455255
21
10.4978992135
0
LINE
8
0
10
91.3202455255
20
10.4978992135
11
91.2216771548
21
10.8452574299
0
LINE
8
0
10
91.2216771548
20
10.8452574299
11
91.19712358
21
11.0990478549
0
LINE
8
0
10
91.19712358
20
11.0990478549
11
91.2383005709
21
11.25375776
0
LINE
8
0
10
91.2383005709
20
11.25375776
11
93.6777183851
21
12.5264004712
0
LINE
8
0
10
93.6777183851
20
12.5264004712
11
93.8281651993
21
12.4716605824
0
LINE
8
0
10
93.8281651993
20
12.4716605824
11
94.0222695552
21
12.3063246914
0
LINE
8
0
10
94.0222695552
20
12.3063246914
11
94.2507705197
21
12.0267522259
0
LINE
8
0
10
94.2507705197
20
12.0267522259
11
94.4624296645
21
11.7160152337
0
LINE
8
0
10
94.4624296645
20
11.7160152337
11
94.6672273884
21
11.4413560114
0
LINE
8
0
10
94.6672273884
20
11.4413560114
11
94.9534051164
21
11.0899515206
0
LINE
8
0
10
94.9534051164
20
11.0899515206
11
95.3277679989
21
10.6684113756
0
LINE
8
0
10
95.3277679989
20
10.6684113756
11
95.7966984098
21
10.1837809738
0
LINE
8
0
10
95.7966984098
20
10.1837809738
11
96.3661313803
21
9.64351716307
0
LINE
8
0
10
96.3661313803
20
9.64351716307
11
97.0415313519
21
9.05546261674
0
LINE
8
0
10
97.0415313519
20
9.05546261674
11
97.3631138055
21
8.79878046133
0
LINE
8
0
10
97.3631138055
20
8.79878046133
11
98.4637342155
21
9.37297342423
0
LINE
8
0
10
98.4637342155
20
9.37297342423
11
99.4818923808
21
10.083196485
0
LINE
8
0
10
99.4818923808
20
10.083196485
11
99.4030623581
21
10.4870365906
0
LINE
8
0
10
99.4030623581
20
10.4870365906
11
99.1940919533
21
11.3578434814
0
LINE
8
0
10
99.1940919533
20
11.3578434814
11
98.978478986
21
12.1125950574
0
LINE
8
0
10
98.978478986
20
12.1125950574
11
98.7657042784
21
12.7525085518
0
LINE
8
0
10
98.7657042784
20
12.7525085518
11
98.5651242459
21
13.2793968817
0
LINE
8
0
10
98.5651242459
20
13.2793968817
11
98.3859374251
21
13.6956598892
0
LINE
8
0
10
98.3859374251
20
13.6956598892
11
98.2371515382
21
14.0042738162
0
LINE
8
0
10
98.2371515382
20
14.0042738162
11
98.0595527954
21
14.3356584243
0
LINE
8
0
10
98.0595527954
20
14.3356584243
11
97.9173744869
21
14.6675601911
0
LINE
8
0
10
97.9173744869
20
14.6675601911
11
97.8605684974
21
14.9161271588
0
LINE
8
0
10
97.8605684974
20
14.9161271588
11
97.8816235622
21
15.0748324944
0
LINE
8
0
10
97.8816235622
20
15.0748324944
11
100.138271852
21
16.6489726528
0
LINE
8
0
10
100.138271852
20
16.6489726528
11
100.294483482
21
16.6139208893
0
LINE
8
0
10
100.294483482
20
16.6139208893
11
100.508136928
21
16.4747639177
0
LINE
8
0
10
100.508136928
20
16.4747639177
11
100.770512836
21
16.2267067931
0
LINE
8
0
10
100.770512836
20
16.2267067931
11
101.020170427
21
15.945587318
0
LINE
8
0
10
101.020170427
20
15.945587318
11
101.258409406
21
15.6993719958
0
LINE
8
0
10
101.258409406
20
15.6993719958
11
101.587174228
21
15.3874481266
0
LINE
8
0
10
101.587174228
20
15.3874481266
11
102.012368953
21
15.0172412833
0
LINE
8
0
10
102.012368953
20
15.0172412833
11
102.539422612
21
14.5965551803
0
LINE
8
0
10
102.539422612
20
14.5965551803
11
103.173267949
21
14.1335444
0
LINE
8
0
10
103.173267949
20
14.1335444
11
103.918321642
21
13.6366860048
0
LINE
8
0
10
103.918321642
20
13.6366860048
11
104.270087694
21
13.4232342577
0
LINE
8
0
10
104.270087694
20
13.4232342577
11
105.288245859
21
14.1334573184
0
LINE
8
0
10
105.288245859
20
14.1334573184
11
106.207223651
21
14.968048634
0
LINE
8
0
10
106.207223651
20
14.968048634
11
106.077398895
21
15.3584926583
0
LINE
8
0
10
106.077398895
20
15.3584926583
11
105.758787821
21
16.1954276944
0
LINE
8
0
10
105.758787821
20
16.1954276944
11
105.448429544
21
16.9164107961
0
LINE
8
0
10
105.448429544
20
16.9164107961
11
105.155571392
21
17.5238615839
0
LINE
8
0
10
105.155571392
20
17.5238615839
11
104.889261135
21
18.0207745626
0
LINE
8
0
10
104.889261135
20
18.0207745626
11
104.658314903
21
18.4107061545
0
LINE
8
0
10
104.658314903
20
18.4107061545
11
104.471285873
21
18.6977600486
0
LINE
8
0
10
104.471285873
20
18.6977600486
11
104.252768691
21
19.0037131705
0
LINE
8
0
10
104.252768691
20
19.0037131705
11
104.069315008
21
19.3147086698
0
LINE
8
0
10
104.069315008
20
19.3147086698
11
103.981189357
21
19.5539707174
0
LINE
8
0
10
103.981189357
20
19.5539707174
11
103.981776772
21
19.7140655464
0
LINE
8
0
10
103.981776772
20
19.7140655464
11
106.018601435
21
21.563855814
0
LINE
8
0
10
106.018601435
20
21.563855814
11
106.178012889
21
21.5490677248
0
LINE
8
0
10
106.178012889
20
21.5490677248
11
106.407707242
21
21.4383746264
0
LINE
8
0
10
106.407707242
20
21.4383746264
11
106.699649889
21
21.2259059337
0
LINE
8
0
10
106.699649889
20
21.2259059337
11
106.983206555
21
20.9790199498
0
LINE
8
0
10
106.983206555
20
20.9790199498
11
107.250974912
21
20.7652913764
0
LINE
8
0
10
107.250974912
20
20.7652913764
11
107.616928518
21
20.4979699101
0
LINE
8
0
10
107.616928518
20
20.4979699101
11
108.085973401
21
20.1851751545
0
LINE
8
0
10
108.085973401
20
20.1851751545
11
108.662496102
21
19.8353410046
0
LINE
8
0
10
108.662496102
20
19.8353410046
11
109.350346081
21
19.457185879
0
LINE
8
0
10
109.350346081
20
19.457185879
11
110.152819735
21
19.0596820359
0
LINE
8
0
10
110.152819735
20
19.0596820359
11
110.528993396
21
18.892965569
0
LINE
8
0
10
110.528993396
20
18.892965569
11
111.447971188
21
19.7275568846
0
LINE
8
0
10
111.447971188
20
19.7275568846
11
112.252679016
21
20.6728124886
0
LINE
8
0
10
112.252679016
20
20.6728124886
11
112.073991246
21
21.0434493516
0
LINE
8
0
10
112.073991246
20
21.0434493516
11
111.650971087
21
21.8327700827
0
LINE
8
0
10
111.650971087
20
21.8327700827
11
111.250963575
21
22.5081461876
0
LINE
8
0
10
111.250963575
20
22.5081461876
11
110.882830702
21
23.0731599436
0
LINE
8
0
10
110.882830702
20
23.0731599436
11
110.555163027
21
23.5319382738
0
LINE
8
0
10
110.555163027
20
23.5319382738
11
110.276249515
21
23.8891357841
0
LINE
8
0
10
110.276249515
20
23.8891357841
11
110.054048354
21
24.1499162282
0
LINE
8
0
10
110.054048354
20
24.1499162282
11
109.798200778
21
24.4254141221
0
LINE
8
0
10
109.798200778
20
24.4254141221
11
109.576484026
21
24.7103968165
0
LINE
8
0
10
109.576484026
20
24.7103968165
11
109.458485733
21
24.9364252678
0
LINE
8
0
10
109.458485733
20
24.9364252678
11
109.438595853
21
25.0952808374
0
LINE
8
0
10
109.438595853
20
25.0952808374
11
111.222152285
21
27.1903477093
0
LINE
8
0
10
111.222152285
20
27.1903477093
11
111.382146032
21
27.1960661144
0
LINE
8
0
10
111.382146032
20
27.1960661144
11
111.624109717
21
27.1156544667
0
LINE
8
0
10
111.624109717
20
27.1156544667
11
111.940825412
21
26.9422629361
0
LINE
8
0
10
111.940825412
20
26.9422629361
11
112.25362516
21
26.7336643043
0
LINE
8
0
10
112.25362516
20
26.7336643043
11
112.546526146
21
26.555931897
0
LINE
8
0
10
112.546526146
20
26.555931897
11
112.943659589
21
26.3376022447
0
LINE
8
0
10
112.943659589
20
26.3376022447
11
113.448852925
21
26.0873556581
0
LINE
8
0
10
113.448852925
20
26.0873556581
11
114.065378181
21
25.8141177283
0
LINE
8
0
10
114.065378181
20
25.8141177283
11
114.795938325
21
25.5270275541
0
LINE
8
0
10
114.795938325
20
25.5270275541
11
115.642655345
21
25.2354052653
0
LINE
8
0
10
115.642655345
20
25.2354052653
11
116.037059854
21
25.1181615584
0
LINE
8
0
10
116.037059854
20
25.1181615584
11
116.841767682
21
26.0634171624
0
LINE
8
0
10
116.841767682
20
26.0634171624
11
117.518992266
21
27.103815984
0
LINE
8
0
10
117.518992266
20
27.103815984
11
117.29437553
21
27.4485598386
0
LINE
8
0
10
117.29437553
20
27.4485598386
11
116.773892267
21
28.1773056402
0
LINE
8
0
10
116.773892267
20
28.1773056402
11
116.290803631
21
28.7959850912
0
LINE
8
0
10
116.290803631
20
28.7959850912
11
115.853440768
21
29.3092843053
0
LINE
8
0
10
115.853440768
20
29.3092843053
11
115.469795969
21
29.7223948594
0
LINE
8
0
10
115.469795969
20
29.7223948594
11
115.147494931
21
30.040993115
0
LINE
8
0
10
115.147494931
20
30.040993115
11
114.893770175
21
30.2712181013
0
LINE
8
0
10
114.893770175
20
30.2712181013
11
114.604793215
21
30.5117370994
0
LINE
8
0
10
114.604793215
20
30.5117370994
11
114.348453976
21
30.7660275809
0
LINE
8
0
10
114.348453976
20
30.7660275809
11
114.202520571
21
30.975111055
0
LINE
8
0
10
114.202520571
20
30.975111055
11
114.162479987
21
31.1301189612
0
LINE
8
0
10
114.162479987
20
31.1301189612
11
115.66348224
21
33.4360614972
0
LINE
8
0
10
115.66348224
20
33.4360614972
11
115.821431188
21
33.4621925006
0
LINE
8
0
10
115.821431188
20
33.4621925006
11
116.071691167
21
33.4133826606
0
LINE
8
0
10
116.071691167
20
33.4133826606
11
116.407979447
21
33.2819153762
0
LINE
8
0
10
116.407979447
20
33.2819153762
11
116.744886115
21
33.1150292803
0
LINE
8
0
10
116.744886115
20
33.1150292803
11
117.058110304
21
32.9762114004
0
LINE
8
0
10
117.058110304
20
32.9762114004
11
117.479902662
21
32.810458529
0
LINE
8
0
10
117.479902662
20
32.810458529
11
118.012949192
21
32.6268691534
0
LINE
8
0
10
118.012949192
20
32.6268691534
11
118.659353674
21
32.4347140029
0
LINE
8
0
10
118.659353674
20
32.4347140029
11
119.420628207
21
32.2434027928
0
LINE
8
0
10
119.420628207
20
32.2434027928
11
120.297685522
21
32.0624504883
0
LINE
8
0
10
120.297685522
20
32.0624504883
11
120.703844768
21
31.9966046796
0
LINE
8
0
10
120.703844768
20
31.9966046796
11
121.381069352
21
33.0370035012
0
LINE
8
0
10
121.381069352
20
33.0370035012
11
121.919690684
21
34.1554622206
0
LINE
8
0
10
121.919690684
20
34.1554622206
11
121.652833183
21
34.4686523823
0
LINE
8
0
10
121.652833183
20
34.4686523823
11
121.043433135
21
35.1248572685
0
LINE
8
0
10
121.043433135
20
35.1248572685
11
120.485195678
21
35.6766813661
0
LINE
8
0
10
120.485195678
20
35.6766813661
11
119.985784312
21
36.1298376792
0
LINE
8
0
10
119.985784312
20
36.1298376792
11
119.552461826
21
36.4904971935
0
LINE
8
0
10
119.552461826
20
36.4904971935
11
119.192065434
21
36.7652648197
0
LINE
8
0
10
119.192065434
20
36.7652648197
11
118.910983237
21
36.9611540605
0
LINE
8
0
10
118.910983237
20
36.9611540605
11
118.593621887
21
37.1627448475
0
LINE
8
0
10
118.593621887
20
37.1627448475
11
118.306869244
21
37.3821676733
0
LINE
8
0
10
118.306869244
20
37.3821676733
11
118.13539695
21
37.5708730254
0
LINE
8
0
10
118.13539695
20
37.5708730254
11
118.075863127
21
37.7194880426
0
LINE
8
0
10
118.075863127
20
37.7194880426
11
119.269664786
21
40.1984427301
0
LINE
8
0
10
119.269664786
20
40.1984427301
11
119.422975416
21
40.2445572614
0
LINE
8
0
10
119.422975416
20
40.2445572614
11
119.677422429
21
40.2281506854
0
LINE
8
0
10
119.677422429
20
40.2281506854
11
120.02776145
21
40.1407663363
0
LINE
8
0
10
120.02776145
20
40.1407663363
11
120.383243039
21
40.0183330414
0
LINE
8
0
10
120.383243039
20
40.0183330414
11
120.711647298
21
39.9207090745
0
LINE
8
0
10
120.711647298
20
39.9207090745
11
121.151172754
21
39.8102546416
0
LINE
8
0
10
121.151172754
20
39.8102546416
11
121.703319867
21
39.6963370094
0
LINE
8
0
10
121.703319867
20
39.6963370094
11
122.368989633
21
39.5884198207
0
LINE
8
0
10
122.368989633
20
39.5884198207
11
123.148478446
21
39.4960288994
0
LINE
8
0
10
123.148478446
20
39.4960288994
11
124.041474801
21
39.4287178109
0
LINE
8
0
10
124.041474801
20
39.4287178109
11
124.45271966
21
39.415351087
0
LINE
8
0
10
124.45271966
20
39.415351087
11
124.991340991
21
40.5338098063
0
LINE
8
0
10
124.991340991
20
40.5338098063
11
125.382514922
21
41.7119633621
0
LINE
8
0
10
125.382514922
20
41.7119633621
11
125.077798448
21
41.9884572571
0
LINE
8
0
10
125.077798448
20
41.9884572571
11
124.389487948
21
42.5613463617
0
LINE
8
0
10
124.389487948
20
42.5613463617
11
123.765267914
21
43.0372541697
0
LINE
8
0
10
123.765267914
20
43.0372541697
11
123.212008365
21
43.4228267677
0
LINE
8
0
10
123.212008365
20
43.4228267677
11
122.736123336
21
43.7251132228
0
LINE
8
0
10
122.736123336
20
43.7251132228
11
122.343549289
21
43.9515385428
0
LINE
8
0
10
122.343549289
20
43.9515385428
11
122.039725013
21
44.1098755421
0
LINE
8
0
10
122.039725013
20
44.1098755421
11
121.699190337
21
44.2692280028
0
LINE
8
0
10
121.699190337
20
44.2692280028
11
121.386732762
21
44.4501802563
0
LINE
8
0
10
121.386732762
20
44.4501802563
11
121.192537148
21
44.6154089497
0
LINE
8
0
10
121.192537148
20
44.6154089497
11
121.114487631
21
44.7551908235
0
LINE
8
0
10
121.114487631
20
44.7551908235
11
121.981486505
21
47.366453295
0
LINE
8
0
10
121.981486505
20
47.366453295
11
122.127641462
21
47.4317941549
0
LINE
8
0
10
122.127641462
20
47.4317941549
11
122.382097494
21
47.4480602384
0
LINE
8
0
10
122.382097494
20
47.4480602384
11
122.740734699
21
47.4061936733
0
LINE
8
0
10
122.740734699
20
47.4061936733
11
123.108954211
21
47.3302235306
0
LINE
8
0
10
123.108954211
20
47.3302235306
11
123.447146152
21
47.2753964597
0
LINE
8
0
10
123.447146152
20
47.2753964597
11
123.897187709
21
47.2220541239
0
LINE
8
0
10
123.897187709
20
47.2220541239
11
124.459369166
21
47.1796787596
0
LINE
8
0
10
124.459369166
20
47.1796787596
11
125.133373936
21
47.1577715297
0
LINE
8
0
10
125.133373936
20
47.1577715297
11
125.918277846
21
47.1658179538
0
LINE
8
0
10
125.918277846
20
47.1658179538
11
126.812550263
21
47.2132533275
0
LINE
8
0
10
126.812550263
20
47.2132533275
11
127.222128106
21
47.2525851695
0
LINE
8
0
10
127.222128106
20
47.2525851695
11
127.613302037
21
48.4307387253
0
LINE
8
0
10
127.613302037
20
48.4307387253
11
127.850605503
21
49.6492418687
0
LINE
8
0
10
127.850605503
20
49.6492418687
11
127.513033493
21
49.8844994749
0
LINE
8
0
10
127.513033493
20
49.8844994749
11
126.75711458
21
50.3646659748
0
LINE
8
0
10
126.75711458
20
50.3646659748
11
126.077161643
21
50.7568430999
0
LINE
8
0
10
126.077161643
20
50.7568430999
11
125.479138418
21
51.0685008914
0
LINE
8
0
10
125.479138418
20
51.0685008914
11
124.968504865
21
51.3074507521
0
LINE
8
0
10
124.968504865
20
51.3074507521
11
124.550199218
21
51.4818158685
0
LINE
8
0
10
124.550199218
20
51.4818158685
11
124.228621649
21
51.6000007371
0
LINE
8
0
10
124.228621649
20
51.6000007371
11
123.870505218
21
51.7144983086
0
LINE
8
0
10
123.870505218
20
51.7144983086
11
123.537473255
21
51.8540087588
0
LINE
8
0
10
123.537473255
20
51.8540087588
11
123.323743007
21
51.9930477428
0
LINE
8
0
10
123.323743007
20
51.9930477428
11
123.228459367
21
52.1217012588
0
LINE
8
0
10
123.228459367
20
52.1217012588
11
123.754419359
21
54.8223946566
0
LINE
8
0
10
123.754419359
20
54.8223946566
11
123.891018782
21
54.90588895
0
LINE
8
0
10
123.891018782
20
54.90588895
11
124.141305673
21
54.9545606043
0
LINE
8
0
10
124.141305673
20
54.9545606043
11
124.502352249
21
54.958899271
0
LINE
8
0
10
124.502352249
20
54.958899271
11
124.877263531
21
54.9306397084
0
LINE
8
0
10
124.877263531
20
54.9306397084
11
125.21969005
21
54.9195097923
0
LINE
8
0
10
125.21969005
20
54.9195097923
11
125.672858039
21
54.9241554333
0
LINE
8
0
10
125.672858039
20
54.9241554333
11
126.235842835
21
54.9540181393
0
LINE
8
0
10
126.235842835
20
54.9540181393
11
126.907115469
21
55.0184805844
0
LINE
8
0
10
126.907115469
20
55.0184805844
11
127.684546375
21
55.1268322316
0
LINE
8
0
10
127.684546375
20
55.1268322316
11
128.565410927
21
55.2882351801
0
LINE
8
0
10
128.565410927
20
55.2882351801
11
128.966596498
21
55.3796197603
0
LINE
8
0
10
65.1136679506
20
63.434632718
11
64.8018004143
21
63.4018541191
0
LINE
8
0
10
64.8018004143
20
63.4018541191
11
64.4899328781
21
63.434632718
0
LINE
8
0
10
64.4899328781
20
63.434632718
11
64.1916954497
21
63.5315359326
0
LINE
8
0
10
64.1916954497
20
63.5315359326
11
63.9201225359
21
63.6883286275
0
LINE
8
0
10
63.9201225359
20
63.6883286275
11
63.6870831761
21
63.8981582096
0
LINE
8
0
10
63.6870831761
20
63.8981582096
11
63.5027623087
21
64.1518541191
0
LINE
8
0
10
63.5027623087
20
64.1518541191
11
63.3752156399
21
64.4383286275
0
LINE
8
0
10
63.3752156399
20
64.4383286275
11
63.3100175713
21
64.7450614242
0
LINE
8
0
10
63.3100175713
20
64.7450614242
11
63.3100175713
21
65.058646814
0
LINE
8
0
10
63.3100175713
20
65.058646814
11
63.3752156399
21
65.3653796107
0
LINE
8
0
10
63.3752156399
20
65.3653796107
11
63.5027623087
21
65.6518541191
0
LINE
8
0
10
63.5027623087
20
65.6518541191
11
63.6870831761
21
65.9055500286
0
LINE
8
0
10
63.6870831761
20
65.9055500286
11
63.9201225359
21
66.1153796107
0
LINE
8
0
10
63.9201225359
20
66.1153796107
11
64.1916954497
21
66.2721723056
0
LINE
8
0
10
64.1916954497
20
66.2721723056
11
64.4899328781
21
66.3690755202
0
LINE
8
0
10
64.4899328781
20
66.3690755202
11
64.8018004143
21
66.4018541191
0
LINE
8
0
10
64.8018004143
20
66.4018541191
11
65.1136679506
21
66.3690755202
0
LINE
8
0
10
65.1136679506
20
66.3690755202
11
65.4119053789
21
66.2721723056
0
LINE
8
0
10
65.4119053789
20
66.2721723056
11
65.6834782928
21
66.1153796107
0
LINE
8
0
10
65.6834782928
20
66.1153796107
11
65.9165176526
21
65.9055500286
0
LINE
8
0
10
65.9165176526
20
65.9055500286
11
66.10083852
21
65.6518541191
0
LINE
8
0
10
66.10083852
20
65.6518541191
11
66.2283851888
21
65.3653796107
0
LINE
8
0
10
66.2283851888
20
65.3653796107
11
66.2935832574
21
65.058646814
0
LINE
8
0
10
66.2935832574
20
65.058646814
11
66.2935832574
21
64.7450614242
0
LINE
8
0
10
66.2935832574
20
64.7450614242
11
66.2283851888
21
64.4383286275
0
LINE
8
0
10
66.2283851888
20
64.4383286275
11
66.10083852
21
64.1518541191
0
LINE
8
0
10
66.10083852
20
64.1518541191
11
65.9165176526
21
63.8981582096
0
LINE
8
0
10
65.9165176526
20
63.8981582096
11
65.6834782928
21
63.6883286275
0
LINE
8
0
10
65.6834782928
20
63.6883286275
11
65.4119053789
21
63.5315359326
0
LINE
8
0
10
65.4119053789
20
63.5315359326
11
65.1136679506
21
63.434632718
0
ENDSEC
0
EOF
