  0
SECTION
  2
BLOCKS
  0
ENDSEC
  0
SECTION
  2
ENTITIES
  0
LINE
  8
0
 10
69.31617384783718
 20
-9.509221762529963
 11
69.536653924038
 21
-8.282454306406704
  0
LINE
  8
0
 10
69.536653924038
 20
-8.282454306406704
 11
69.61049279473423
 21
-7.038220535534448
  0
LINE
  8
0
 10
69.61049279473423
 20
-7.038220535534448
 11
69.21263208663423
 21
-6.839771578319016
  0
LINE
  8
0
 10
69.21263208663423
 20
-6.839771578319016
 11
68.41315886645602
 21
-6.4797121457754985
  0
LINE
  8
0
 10
68.41315886645602
 20
-6.4797121457754985
 11
67.69488932974376
 21
-6.189785629804898
  0
LINE
  8
0
 10
67.69488932974376
 20
-6.189785629804898
 11
67.06196859518258
 21
-5.962953926776826
  0
LINE
  8
0
 10
67.06196859518258
 20
-5.962953926776826
 11
66.51811022325403
 21
-5.791966812788359
  0
LINE
  8
0
 10
66.51811022325403
 20
-5.791966812788359
 11
66.06658616268155
 21
-5.669385137390305
  0
LINE
  8
0
 10
66.06658616268155
 20
-5.669385137390305
 11
65.71021785878938
 21
-5.587604471137028
  0
LINE
  8
0
 10
65.71021785878938
 20
-5.587604471137028
 11
65.32668424281164
 21
-5.515408807392733
  0
LINE
  8
0
 10
65.32668424281164
 20
-5.515408807392733
 11
65.00510347918825
 21
-5.425792314672078
  0
LINE
  8
0
 10
65.00510347918825
 20
-5.425792314672078
 11
64.79268572752497
 21
-5.323541220603664
  0
LINE
  8
0
 10
64.79268572752497
 20
-5.323541220603664
 11
64.68976265292795
 21
-5.2171409195887914
  0
LINE
  8
0
 10
64.68976265292795
 20
-5.2171409195887914
 11
64.85275921966196
 21
-2.470541046721838
  0
LINE
  8
0
 10
64.85275921966196
 20
-2.470541046721838
 11
64.96754418806874
 21
-2.37706059759947
  0
LINE
  8
0
 10
64.96754418806874
 20
-2.37706059759947
 11
65.19056456105325
 21
-2.3006505151899055
  0
LINE
  8
0
 10
65.19056456105325
 20
-2.3006505151899055
 11
65.52048740693401
 21
-2.2496974086487174
  0
LINE
  8
0
 10
65.52048740693401
 20
-2.2496974086487174
 11
65.90986784736458
 21
-2.223370216253046
  0
LINE
  8
0
 10
65.90986784736458
 20
-2.223370216253046
 11
66.27340729506514
 21
-2.1843123699616287
  0
LINE
  8
0
 10
66.27340729506514
 20
-2.1843123699616287
 11
66.73626027505424
 21
-2.115994265964487
  0
LINE
  8
0
 10
66.73626027505424
 20
-2.115994265964487
 11
67.29652454544613
 21
-2.010531148292143
  0
LINE
  8
0
 10
67.29652454544613
 20
-2.010531148292143
 11
67.95183097492395
 21
-1.860149097427134
  0
LINE
  8
0
 10
67.95183097492395
 20
-1.860149097427134
 11
68.69934957509886
 21
-1.6572095635186541
  0
LINE
  8
0
 10
68.69934957509886
 20
-1.6572095635186541
 11
69.53579674031191
 21
-1.3942335863787971
  0
LINE
  8
0
 10
69.53579674031191
 20
-1.3942335863787971
 11
69.95433608973772
 21
-1.2442337708722517
  0
LINE
  8
0
 10
69.95433608973772
 20
-1.2442337708722517
 11
70.02817496043392
 21
1.1546319456101628e-14
  0
LINE
  8
0
 10
70.02817496043392
 20
1.1546319456101628e-14
 11
69.95433608973774
 21
1.244233770872266
  0
LINE
  8
0
 10
69.95433608973774
 20
1.244233770872266
 11
69.535796740312
 21
1.394233586378779
  0
LINE
  8
0
 10
69.535796740312
 20
1.394233586378779
 11
68.69934957509889
 21
1.657209563518652
  0
LINE
  8
0
 10
68.69934957509889
 20
1.657209563518652
 11
67.95183097492321
 21
1.8601490974273405
  0
LINE
  8
0
 10
67.95183097492321
 20
1.8601490974273405
 11
67.29652454544635
 21
2.0105311482923374
  0
LINE
  8
0
 10
67.29652454544635
 20
2.0105311482923374
 11
66.7362602750545
 21
2.1159942659646718
  0
LINE
  8
0
 10
66.7362602750545
 20
2.1159942659646718
 11
66.27340729506459
 21
2.184312369961407
  0
LINE
  8
0
 10
66.27340729506459
 20
2.184312369961407
 11
65.90986784736343
 21
2.2233702162531057
  0
LINE
  8
0
 10
65.90986784736343
 20
2.2233702162531057
 11
65.52048740693401
 21
2.249697408648714
  0
LINE
  8
0
 10
65.52048740693401
 20
2.249697408648714
 11
65.19056456105348
 21
2.300650515190306
  0
LINE
  8
0
 10
65.19056456105348
 20
2.300650515190306
 11
64.96754418806849
 21
2.377060597597738
  0
LINE
  8
0
 10
64.96754418806849
 20
2.377060597597738
 11
64.85275921966205
 21
2.4705410467220887
  0
LINE
  8
0
 10
64.85275921966205
 20
2.4705410467220887
 11
64.68976265292784
 21
5.217140919589029
  0
LINE
  8
0
 10
64.68976265292784
 20
5.217140919589029
 11
64.79268572752541
 21
5.323541220601972
  0
LINE
  8
0
 10
64.79268572752541
 20
5.323541220601972
 11
65.00510347918797
 21
5.425792314672448
  0
LINE
  8
0
 10
65.00510347918797
 20
5.425792314672448
 11
65.32668424281162
 21
5.515408807392729
  0
LINE
  8
0
 10
65.32668424281162
 20
5.515408807392729
 11
65.71021785879051
 21
5.587604471137223
  0
LINE
  8
0
 10
65.71021785879051
 20
5.587604471137223
 11
66.06658616268211
 21
5.66938513739015
  0
LINE
  8
0
 10
66.06658616268211
 20
5.66938513739015
 11
66.51811022325373
 21
5.7919668127885116
  0
LINE
  8
0
 10
66.51811022325373
 20
5.7919668127885116
 11
67.06196859518234
 21
5.962953926776993
  0
LINE
  8
0
 10
67.06196859518234
 20
5.962953926776993
 11
67.69488932974446
 21
6.18978562980519
  0
LINE
  8
0
 10
67.69488932974446
 20
6.18978562980519
 11
68.41315886645597
 21
6.479712145775491
  0
LINE
  8
0
 10
68.41315886645597
 20
6.479712145775491
 11
69.21263208663414
 21
6.839771578318987
  0
LINE
  8
0
 10
69.21263208663414
 20
6.839771578318987
 11
69.61049279473418
 21
7.038220535534455
  0
LINE
  8
0
 10
69.61049279473418
 20
7.038220535534455
 11
69.53665392403798
 21
8.282454306406715
  0
LINE
  8
0
 10
69.53665392403798
 20
8.282454306406715
 11
69.31617384783725
 21
9.509221762529997
  0
LINE
  8
0
 10
69.31617384783725
 20
9.509221762529997
 11
68.88283123210206
 21
9.608666767721527
  0
LINE
  8
0
 10
68.88283123210206
 20
9.608666767721527
 11
68.02115200653888
 21
9.770867683189163
  0
LINE
  8
0
 10
68.02115200653888
 20
9.770867683189163
 11
67.25487786546526
 21
9.88397140882881
  0
LINE
  8
0
 10
67.25487786546526
 20
9.88397140882881
 11
66.58638480689315
 21
9.955792773178105
  0
LINE
  8
0
 10
66.58638480689315
 20
9.955792773178105
 11
66.0175795202799
 21
9.994251423540193
  0
LINE
  8
0
 10
66.0175795202799
 20
9.994251423540193
 11
65.54989506212534
 21
10.007346919710628
  0
LINE
  8
0
 10
65.54989506212534
 20
10.007346919710628
 11
65.18428776757263
 21
10.003133659494667
  0
LINE
  8
0
 10
65.18428776757263
 20
10.003133659494667
 11
64.79452655054271
 21
9.983222804470271
  0
LINE
  8
0
 10
64.79452655054271
 20
9.983222804470271
 11
64.46089301596139
 21
9.994797254907542
  0
LINE
  8
0
 10
64.46089301596139
 20
9.994797254907542
 11
64.23040073882473
 21
10.044293695589959
  0
LINE
  8
0
 10
64.23040073882473
 20
10.044293695589959
 11
64.10536520595353
 21
10.123542032229754
  0
LINE
  8
0
 10
64.10536520595353
 20
10.123542032229754
 11
63.61866362025515
 21
12.831585663502802
  0
LINE
  8
0
 10
63.61866362025515
 20
12.831585663502802
 11
63.70827998668636
 21
12.949412189412435
  0
LINE
  8
0
 10
63.70827998668636
 20
12.949412189412435
 11
63.907113237419075
 21
13.076068913920237
  0
LINE
  8
0
 10
63.907113237419075
 20
13.076068913920237
 11
64.21583762977808
 21
13.203090773703591
  0
LINE
  8
0
 10
64.21583762977808
 20
13.203090773703591
 11
64.58814045005299
 21
13.320141439932781
  0
LINE
  8
0
 10
64.58814045005299
 20
13.320141439932781
 11
64.93233498031795
 21
13.443496904858458
  0
LINE
  8
0
 10
64.93233498031795
 20
13.443496904858458
 11
65.36619171341461
 21
13.61862137363779
  0
LINE
  8
0
 10
65.36619171341461
 20
13.61862137363779
 11
65.88600960749028
 21
13.85273219967039
  0
LINE
  8
0
 10
65.88600960749028
 20
13.85273219967039
 11
66.48765982740282
 21
14.152829334972482
  0
LINE
  8
0
 10
66.48765982740282
 20
14.152829334972482
 11
67.16659737082175
 21
14.525672900247146
  0
LINE
  8
0
 10
67.16659737082175
 20
14.525672900247146
 11
67.91787379442067
 21
14.977761343021378
  0
LINE
  8
0
 10
67.91787379442067
 20
14.977761343021378
 11
68.2894707689747
 21
15.221873653591953
  0
LINE
  8
0
 10
68.2894707689747
 20
15.221873653591953
 11
68.06899069277387
 21
16.448641109715226
  0
LINE
  8
0
 10
68.06899069277387
 20
16.448641109715226
 11
67.70496446804003
 21
17.64072112511299
  0
LINE
  8
0
 10
67.70496446804003
 20
17.64072112511299
 11
67.26290176642165
 21
17.688215330102782
  0
LINE
  8
0
 10
67.26290176642165
 20
17.688215330102782
 11
66.38808656801115
 21
17.74736423859381
  0
LINE
  8
0
 10
66.38808656801115
 20
17.74736423859381
 11
65.61381369528662
 21
17.769044427582852
  0
LINE
  8
0
 10
65.61381369528662
 20
17.769044427582852
 11
64.94151818480677
 21
17.761296890895355
  0
LINE
  8
0
 10
64.94151818480677
 20
17.761296890895355
 11
64.37215666135957
 21
17.732211198798517
  0
LINE
  8
0
 10
64.37215666135957
 20
17.732211198798517
 11
63.906205989655916
 21
17.689900255082097
  0
LINE
  8
0
 10
63.906205989655916
 20
17.689900255082097
 11
63.54366317324607
 21
17.64247503329633
  0
LINE
  8
0
 10
63.54366317324607
 20
17.64247503329633
 11
63.15899257273564
 21
17.57660563561134
  0
LINE
  8
0
 10
63.15899257273564
 20
17.57660563561134
 11
62.82633183294532
 21
17.54863895003166
  0
LINE
  8
0
 10
62.82633183294532
 20
17.54863895003166
 11
62.59160325798268
 21
17.570526927459415
  0
LINE
  8
0
 10
62.59160325798268
 20
17.570526927459415
 11
62.458072385446975
 21
17.634430678682726
  0
LINE
  8
0
 10
62.458072385446975
 20
17.634430678682726
 11
61.65449800418461
 21
20.26590307188366
  0
LINE
  8
0
 10
61.65449800418461
 20
20.26590307188366
 11
61.72954964510623
 21
20.393501796545138
  0
LINE
  8
0
 10
61.72954964510623
 20
20.393501796545138
 11
61.91200721191669
 21
20.542786168713143
  0
LINE
  8
0
 10
61.91200721191669
 20
20.542786168713143
 11
62.20354141927453
 21
20.705430287083566
  0
LINE
  8
0
 10
62.20354141927453
 20
20.705430287083566
 11
62.55938712834664
 21
20.865692821021817
  0
LINE
  8
0
 10
62.55938712834664
 20
20.865692821021817
 11
62.886576148263764
 21
21.028891444291197
  0
LINE
  8
0
 10
62.886576148263764
 20
21.028891444291197
 11
63.296675156378484
 21
21.254100342787414
  0
LINE
  8
0
 10
63.296675156378484
 20
21.254100342787414
 11
63.78515546882329
 21
21.54804847804389
  0
LINE
  8
0
 10
63.78515546882329
 20
21.54804847804389
 11
64.34708932383222
 21
21.917198339661272
  0
LINE
  8
0
 10
64.34708932383222
 20
21.917198339661272
 11
64.97716407909842
 21
22.36772504786701
  0
LINE
  8
0
 10
64.97716407909842
 20
22.36772504786701
 11
65.66969743194896
 21
22.90549617012552
  0
LINE
  8
0
 10
65.66969743194896
 20
22.90549617012552
 11
66.00981426598477
 21
23.191845032311555
  0
LINE
  8
0
 10
66.00981426598477
 20
23.191845032311555
 11
65.64578804125088
 21
24.38392504770931
  0
LINE
  8
0
 10
65.64578804125088
 20
24.38392504770931
 11
65.14332579822394
 21
25.524583432036977
  0
LINE
  8
0
 10
65.14332579822394
 20
25.524583432036977
 11
64.69874860203973
 21
25.51946012229558
  0
LINE
  8
0
 10
64.69874860203973
 20
25.51946012229558
 11
63.82307791854901
 21
25.474726702790786
  0
LINE
  8
0
 10
63.82307791854901
 20
25.474726702790786
 11
63.05167540807957
 21
25.40467901279938
  0
LINE
  8
0
 10
63.05167540807957
 20
25.40467901279938
 11
62.38501500096918
 21
25.317471333507378
  0
LINE
  8
0
 10
62.38501500096918
 20
25.317471333507378
 11
61.82308982842138
 21
25.221249598312024
  0
LINE
  8
0
 10
61.82308982842138
 20
25.221249598312024
 11
61.36541386922288
 21
25.1241261676118
  0
LINE
  8
0
 10
61.36541386922288
 20
25.1241261676118
 11
61.01102483739466
 21
25.034154730412727
  0
LINE
  8
0
 10
61.01102483739466
 20
25.034154730412727
 11
60.63684478542652
 21
24.923251452023145
  0
LINE
  8
0
 10
60.63684478542652
 20
24.923251452023145
 11
60.309826668012526
 21
24.85613622138832
  0
LINE
  8
0
 10
60.309826668012526
 20
24.85613622138832
 11
60.074156869885
 21
24.850108476337365
  0
LINE
  8
0
 10
60.074156869885
 20
24.850108476337365
 11
59.9340051384319
 21
24.897770573555768
  0
LINE
  8
0
 10
59.9340051384319
 20
24.897770573555768
 11
58.82483838446171
 21
27.41573162454267
  0
LINE
  8
0
 10
58.82483838446171
 20
27.41573162454267
 11
58.88427173935043
 21
27.551311341561608
  0
LINE
  8
0
 10
58.88427173935043
 20
27.551311341561608
 11
59.04779231795253
 21
27.721127736039946
  0
LINE
  8
0
 10
59.04779231795253
 20
27.721127736039946
 11
59.318043839088766
 21
27.91711094609582
  0
LINE
  8
0
 10
59.318043839088766
 20
27.91711094609582
 11
59.65243714322612
 21
28.118335613066453
  0
LINE
  8
0
 10
59.65243714322612
 20
28.118335613066453
 11
59.95802763616295
 21
28.319086443744634
  0
LINE
  8
0
 10
59.95802763616295
 20
28.319086443744634
 11
60.3386120281699
 21
28.591218332686832
  0
LINE
  8
0
 10
60.3386120281699
 20
28.591218332686832
 11
60.788897566159164
 21
28.940877389690446
  0
LINE
  8
0
 10
60.788897566159164
 20
28.940877389690446
 11
61.303226736714365
 21
29.373897922752487
  0
LINE
  8
0
 10
61.303226736714365
 20
29.373897922752487
 11
61.87559383540478
 21
29.89578336647282
  0
LINE
  8
0
 10
61.87559383540478
 20
29.89578336647282
 11
62.49966246728478
 21
30.51168804046793
  0
LINE
  8
0
 10
62.49966246728478
 20
30.51168804046793
 11
62.803524665997855
 21
30.83625374392881
  0
LINE
  8
0
 10
62.803524665997855
 20
30.83625374392881
 11
62.301062422970865
 21
31.976912128256476
  0
LINE
  8
0
 10
62.301062422970865
 20
31.976912128256476
 11
61.667217630132065
 21
33.0501365381521
  0
LINE
  8
0
 10
61.667217630132065
 20
33.0501365381521
 11
61.226366828691155
 21
32.99246763371783
  0
LINE
  8
0
 10
61.226366828691155
 20
32.99246763371783
 11
60.36213315702263
 21
32.8444798453702
  0
LINE
  8
0
 10
60.36213315702263
 20
32.8444798453702
 11
59.604429809120106
 21
32.683687592419396
  0
LINE
  8
0
 10
59.604429809120106
 20
32.683687592419396
 11
58.95276295615738
 21
32.51824397517856
  0
LINE
  8
0
 10
58.95276295615738
 20
32.51824397517856
 11
58.406162332176386
 21
32.35623693912619
  0
LINE
  8
0
 10
58.406162332176386
 20
32.35623693912619
 11
57.963185852712094
 21
32.20566442151199
  0
LINE
  8
0
 10
57.963185852712094
 20
32.20566442151199
 11
57.621925450642024
 21
32.07440977065807
  0
LINE
  8
0
 10
57.621925450642024
 20
32.07440977065807
 11
57.26348861493301
 21
31.920029450489498
  0
LINE
  8
0
 10
57.26348861493301
 20
31.920029450489498
 11
56.9467037374313
 21
31.814707825519243
  0
LINE
  8
0
 10
56.9467037374313
 20
31.814707825519243
 11
56.71340100351002
 21
31.780848974317113
  0
LINE
  8
0
 10
56.71340100351002
 20
31.780848974317113
 11
56.568595836232745
 21
31.81160034616227
  0
LINE
  8
0
 10
56.568595836232745
 20
31.81160034616227
 11
55.16940697945695
 21
34.18070340121797
  0
LINE
  8
0
 10
55.16940697945695
 20
34.18070340121797
 11
55.21238773428967
 21
34.32236086856182
  0
LINE
  8
0
 10
55.21238773428967
 20
34.32236086856182
 11
55.35467585420135
 21
34.51032543541416
  0
LINE
  8
0
 10
55.35467585420135
 20
34.51032543541416
 11
55.59985095015788
 21
34.736896562486784
  0
LINE
  8
0
 10
55.59985095015788
 20
34.736896562486784
 11
55.90809770036957
 21
34.976258609255446
  0
LINE
  8
0
 10
55.90809770036957
 20
34.976258609255446
 11
56.18779984566788
 21
35.21174354573095
  0
LINE
  8
0
 10
56.18779984566788
 20
35.21174354573095
 11
56.53352705095457
 21
35.526978289918844
  0
LINE
  8
0
 10
56.53352705095457
 20
35.526978289918844
 11
56.93929679257298
 21
35.92743982197136
  0
LINE
  8
0
 10
56.93929679257298
 20
35.92743982197136
 11
57.398801224543305
 21
36.41825236738659
  0
LINE
  8
0
 10
57.398801224543305
 20
36.41825236738659
 11
57.905425887236476
 21
37.00417041897868
  0
LINE
  8
0
 10
57.905425887236476
 20
37.00417041897868
 11
58.45226924252965
 21
37.68956269316721
  0
LINE
  8
0
 10
58.45226924252965
 20
37.68956269316721
 11
58.715611246724166
 21
38.047789046883096
  0
LINE
  8
0
 10
58.715611246724166
 20
38.047789046883096
 11
58.081766453885315
 21
39.121013456778726
  0
LINE
  8
0
 10
58.081766453885315
 20
39.121013456778726
 11
57.32543690272122
 21
40.111738174064286
  0
LINE
  8
0
 10
57.32543690272122
 20
40.111738174064286
 11
56.89450107491904
 21
40.002333219943644
  0
LINE
  8
0
 10
56.89450107491904
 20
40.002333219943644
 11
56.05383636139936
 21
39.75316848690835
  0
LINE
  8
0
 10
56.05383636139936
 20
39.75316848690835
 11
55.32046867016208
 21
39.503888841768614
  0
LINE
  8
0
 10
55.32046867016208
 20
39.503888841768614
 11
54.692943345491244
 21
39.26253175230811
  0
LINE
  8
0
 10
54.692943345491244
 20
39.26253175230811
 11
54.16934034467442
 21
39.0370136390611
  0
LINE
  8
0
 10
54.16934034467442
 20
39.0370136390611
 11
53.747281763699604
 21
38.83510574262122
  0
LINE
  8
0
 10
53.747281763699604
 20
38.83510574262122
 11
53.423940539380716
 21
38.6644104056967
  0
LINE
  8
0
 10
53.423940539380716
 20
38.6644104056967
 11
53.086278587400955
 21
38.46872020503846
  0
LINE
  8
0
 10
53.086278587400955
 20
38.46872020503846
 11
52.78417391509062
 21
38.3266706704795
  0
LINE
  8
0
 10
52.78417391509062
 20
38.3266706704795
 11
52.55651330435395
 21
38.26545601717756
  0
LINE
  8
0
 10
52.55651330435395
 20
38.26545601717756
 11
52.409087448384234
 21
38.27886498179661
  0
LINE
  8
0
 10
52.409087448384234
 20
38.27886498179661
 11
50.73951803329217
 21
40.46585302716608
  0
LINE
  8
0
 10
50.73951803329217
 20
40.46585302716608
 11
50.76544283248601
 21
40.61159968451033
  0
LINE
  8
0
 10
50.76544283248601
 20
40.61159968451033
 11
50.884501080403126
 21
40.81507381324146
  0
LINE
  8
0
 10
50.884501080403126
 20
40.81507381324146
 11
51.10115803026315
 21
41.06905229535679
  0
LINE
  8
0
 10
51.10115803026315
 20
41.06905229535679
 11
51.3789311178614
 21
41.343191603474914
  0
LINE
  8
0
 10
51.3789311178614
 20
41.343191603474914
 11
51.62881851051588
 21
41.61010495342897
  0
LINE
  8
0
 10
51.62881851051588
 20
41.61010495342897
 11
51.93483527696345
 21
41.96401734805725
  0
LINE
  8
0
 10
51.93483527696345
 20
41.96401734805725
 11
52.29039310449695
 21
42.40965975307117
  0
LINE
  8
0
 10
52.29039310449695
 20
42.40965975307117
 11
52.688622362903665
 21
42.95137437857631
  0
LINE
  8
0
 10
52.688622362903665
 20
42.95137437857631
 11
53.12239268987034
 21
43.59310003294402
  0
LINE
  8
0
 10
53.12239268987034
 20
43.59310003294402
 11
53.584334286563774
 21
44.33835850219474
  0
LINE
  8
0
 10
53.584334286563774
 20
44.33835850219474
 11
53.80345935175365
 21
44.72521679340133
  0
LINE
  8
0
 10
53.80345935175365
 20
44.72521679340133
 11
53.04712980058953
 21
45.715941510686896
  0
LINE
  8
0
 10
53.04712980058953
 20
45.715941510686896
 11
52.17893270010367
 21
46.610258932027115
  0
LINE
  8
0
 10
52.17893270010367
 20
46.610258932027115
 11
51.76396124033951
 21
46.450653733957274
  0
LINE
  8
0
 10
51.76396124033951
 20
46.450653733957274
 11
50.95866657478671
 21
46.103809782910304
  0
LINE
  8
0
 10
50.95866657478671
 20
46.103809782910304
 11
50.25992941503784
 21
45.76954208537167
  0
LINE
  8
0
 10
50.25992941503784
 20
45.76954208537167
 11
49.6653546986648
 21
45.455659648166275
  0
LINE
  8
0
 10
49.6653546986648
 20
45.455659648166275
 11
49.17209955939167
 21
45.1697962376928
  0
LINE
  8
0
 10
49.17209955939167
 20
45.1697962376928
 11
48.77688365421939
 21
44.91938730670569
  0
LINE
  8
0
 10
48.77688365421939
 20
44.91938730670569
 11
48.47600060966843
 21
44.71164747207219
  0
LINE
  8
0
 10
48.47600060966843
 20
44.71164747207219
 11
48.1638535750596
 21
44.47739445238332
  0
LINE
  8
0
 10
48.1638535750596
 20
44.47739445238332
 11
47.880669995318264
 21
44.30061107232446
  0
LINE
  8
0
 10
47.880669995318264
 20
44.30061107232446
 11
47.66184736370273
 21
44.21289993647088
  0
LINE
  8
0
 10
47.66184736370273
 20
44.21289993647088
 11
47.51387035489692
 21
44.20877826139337
  0
LINE
  8
0
 10
47.51387035489692
 20
44.20877826139337
 11
45.5973574763352
 21
46.182950778856544
  0
LINE
  8
0
 10
45.5973574763352
 20
46.182950778856544
 11
45.60586239253732
 21
46.330740662612705
  0
LINE
  8
0
 10
45.60586239253732
 20
46.330740662612705
 11
45.70001945163802
 21
46.54686802247604
  0
LINE
  8
0
 10
45.70001945163802
 20
46.54686802247604
 11
45.8851168667434
 21
46.824688558472864
  0
LINE
  8
0
 10
45.8851168667434
 20
46.824688558472864
 11
46.128516966464446
 21
47.129756812975245
  0
LINE
  8
0
 10
46.128516966464446
 20
47.129756812975245
 11
46.34508173524214
 21
47.42435169805578
  0
LINE
  8
0
 10
46.34508173524214
 20
47.42435169805578
 11
46.6070922582467
 21
47.811973588889394
  0
LINE
  8
0
 10
46.6070922582467
 20
47.811973588889394
 11
46.907446919189084
 21
48.29654102435851
  0
LINE
  8
0
 10
46.907446919189084
 20
48.29654102435851
 11
47.238810738173456
 21
48.88155324406459
  0
LINE
  8
0
 10
47.238810738173456
 20
48.88155324406459
 11
47.59363754485931
 21
49.57007807970058
  0
LINE
  8
0
 10
47.59363754485931
 20
49.57007807970058
 11
47.96419273552391
 21
50.36474094873192
  0
LINE
  8
0
 10
47.96419273552391
 20
50.36474094873192
 11
48.13602482612198
 21
50.77480053502456
  0
LINE
  8
0
 10
48.13602482612198
 20
50.77480053502456
 11
47.267827725636096
 21
51.669117956364744
  0
LINE
  8
0
 10
47.267827725636096
 20
51.669117956364744
 11
46.29995066000774
 21
52.454473825531934
  0
LINE
  8
0
 10
46.29995066000774
 20
52.454473825531934
 11
45.90676885794803
 21
52.24690889063489
  0
LINE
  8
0
 10
45.90676885794803
 20
52.24690889063489
 11
45.14814881223879
 21
51.80725465035763
  0
LINE
  8
0
 10
45.14814881223879
 20
51.80725465035763
 11
44.49385092205047
 21
51.39269128616971
  0
LINE
  8
0
 10
44.49385092205047
 20
51.39269128616971
 11
43.94057333966926
 21
51.01068972259898
  0
LINE
  8
0
 10
43.94057333966926
 20
51.01068972259898
 11
43.484590282866606
 21
50.668493910561786
  0
LINE
  8
0
 10
43.484590282866606
 20
50.668493910561786
 11
43.12176501848155
 21
50.37309913751534
  0
LINE
  8
0
 10
43.12176501848155
 20
50.37309913751534
 11
42.84756389210023
 21
50.131231017079784
  0
LINE
  8
0
 10
42.84756389210023
 20
50.131231017079784
 11
42.56531363499349
 21
49.861703577267775
  0
LINE
  8
0
 10
42.56531363499349
 20
49.861703577267775
 11
42.30502642453467
 21
49.65266800285108
  0
LINE
  8
0
 10
42.30502642453467
 20
49.65266800285108
 11
42.098113562123025
 21
49.539691656528085
  0
LINE
  8
0
 10
42.098113562123025
 20
49.539691656528085
 11
41.95166267331516
 21
49.51809720103728
  0
LINE
  8
0
 10
41.95166267331516
 20
49.51809720103728
 11
39.815109971050724
 21
51.25174113588849
  0
LINE
  8
0
 10
39.815109971050724
 20
51.25174113588849
 11
39.80607561388069
 21
51.399499600048046
  0
LINE
  8
0
 10
39.80607561388069
 20
51.399499600048046
 11
39.87400972545
 21
51.625246236668104
  0
LINE
  8
0
 10
39.87400972545
 20
51.625246236668104
 11
40.02494924383119
 21
51.923008835211164
  0
LINE
  8
0
 10
40.02494924383119
 20
51.923008835211164
 11
40.23055955181455
 21
52.25472354652245
  0
LINE
  8
0
 10
40.23055955181455
 20
52.25472354652245
 11
40.41076160207765
 21
52.57286450030289
  0
LINE
  8
0
 10
40.41076160207765
 20
52.57286450030289
 11
40.62508782823037
 21
52.9887545256722
  0
LINE
  8
0
 10
40.62508782823037
 20
52.9887545256722
 11
40.86602300152754
 21
53.50544472698745
  0
LINE
  8
0
 10
40.86602300152754
 20
53.50544472698745
 11
41.12586975942948
 21
54.12554225169239
  0
LINE
  8
0
 10
41.12586975942948
 20
54.12554225169239
 11
41.3967720552586
 21
54.85120088916938
  0
LINE
  8
0
 10
41.3967720552586
 20
54.85120088916938
 11
41.67073905728442
 21
55.68411283322264
  0
LINE
  8
0
 10
41.67073905728442
 20
55.68411283322264
 11
41.79286602739927
 21
56.111617376871436
  0
LINE
  8
0
 10
41.79286602739927
 20
56.111617376871436
 11
40.824988961770885
 21
56.896973246038606
  0
LINE
  8
0
 10
40.824988961770885
 20
56.896973246038606
 11
39.77101880338878
 21
57.562342888150916
  0
LINE
  8
0
 10
39.77101880338878
 20
57.562342888150916
 11
39.405146069669335
 21
57.30973197312473
  0
LINE
  8
0
 10
39.405146069669335
 20
57.30973197312473
 11
38.703850006329766
 21
56.783439225416664
  0
LINE
  8
0
 10
38.703850006329766
 20
56.783439225416664
 11
38.103176293841564
 21
56.29439975547857
  0
LINE
  8
0
 10
38.103176293841564
 20
56.29439975547857
 11
37.59896264990938
 21
55.8496415301373
  0
LINE
  8
0
 10
37.59896264990938
 20
55.8496415301373
 11
37.186652678167555
 21
55.4559169956349
  0
LINE
  8
0
 10
37.186652678167555
 20
55.4559169956349
 11
36.86131132595887
 21
55.11968307562937
  0
LINE
  8
0
 10
36.86131132595887
 20
55.11968307562937
 11
36.617641300505326
 21
54.847081967621214
  0
LINE
  8
0
 10
36.617641300505326
 20
54.847081967621214
 11
36.36924999581026
 21
54.54606368212958
  0
LINE
  8
0
 10
36.36924999581026
 20
54.54606368212958
 11
36.135513016512185
 21
54.30771031460823
  0
LINE
  8
0
 10
36.135513016512185
 20
54.30771031460823
 11
35.94341452633412
 21
54.17105469807098
  0
LINE
  8
0
 10
35.94341452633412
 20
54.17105469807098
 11
35.800545606978744
 21
54.13229060098635
  0
LINE
  8
0
 10
35.800545606978744
 20
54.13229060098635
 11
33.47394559757012
 21
55.601069392574665
  0
LINE
  8
0
 10
33.47394559757012
 20
55.601069392574665
 11
33.44749878959901
 21
55.74672223219135
  0
LINE
  8
0
 10
33.44749878959901
 20
55.74672223219135
 11
33.48825630762393
 21
55.97891915763274
  0
LINE
  8
0
 10
33.48825630762393
 20
55.97891915763274
 11
33.60291906930636
 21
56.292443884542145
  0
LINE
  8
0
 10
33.60291906930636
 20
56.292443884542145
 11
33.76785326753131
 21
56.64614850524315
  0
LINE
  8
0
 10
33.76785326753131
 20
56.64614850524315
 11
33.909162957501884
 21
56.98336952610598
  0
LINE
  8
0
 10
33.909162957501884
 20
56.98336952610598
 11
34.072796216396455
 21
57.421689501696974
  0
LINE
  8
0
 10
34.072796216396455
 20
57.421689501696974
 11
34.250929700351726
 21
57.96324927103079
  0
LINE
  8
0
 10
34.250929700351726
 20
57.96324927103079
 11
34.43561171828141
 21
58.60972729075826
  0
LINE
  8
0
 10
34.43561171828141
 20
58.60972729075826
 11
34.618786628845506
 21
59.36233307346942
  0
LINE
  8
0
 10
34.618786628845506
 20
59.36233307346942
 11
34.79231954606718
 21
60.2218018346156
  0
LINE
  8
0
 10
34.79231954606718
 20
60.2218018346156
 11
34.86302700074395
 21
60.66075010892917
  0
LINE
  8
0
 10
34.86302700074395
 20
60.66075010892917
 11
33.809056842361834
 21
61.32611975104148
  0
LINE
  8
0
 10
33.809056842361834
 20
61.32611975104148
 11
32.68378902191865
 21
61.862162834832034
  0
LINE
  8
0
 10
32.68378902191865
 20
61.862162834832034
 11
32.35036140771794
 21
61.56805204319366
  0
LINE
  8
0
 10
32.35036140771794
 20
61.56805204319366
 11
31.716233986217404
 21
60.962508784584706
  0
LINE
  8
0
 10
31.716233986217404
 20
60.962508784584706
 11
31.177616593659646
 21
60.40585825106662
  0
LINE
  8
0
 10
31.177616593659646
 20
60.40585825106662
 11
30.729544942487372
 21
59.90458679451655
  0
LINE
  8
0
 10
30.729544942487372
 20
59.90458679451655
 11
30.366695984015006
 21
59.464860566958535
  0
LINE
  8
0
 10
30.366695984015006
 20
59.464860566958535
 11
30.083405623410687
 21
59.09250748719696
  0
LINE
  8
0
 10
30.083405623410687
 20
59.09250748719696
 11
29.87368729191098
 21
58.793000113623634
  0
LINE
  8
0
 10
29.87368729191098
 20
58.793000113623634
 11
29.662641809065054
 21
58.464716619340464
  0
LINE
  8
0
 10
29.662641809065054
 20
58.464716619340464
 11
29.4587362157593
 21
58.20039141751744
  0
LINE
  8
0
 10
29.4587362157593
 20
58.20039141751744
 11
29.284148739531812
 21
58.041974876069304
  0
LINE
  8
0
 10
29.284148739531812
 20
58.041974876069304
 11
29.146867356084154
 21
57.98658530034197
  0
LINE
  8
0
 10
29.146867356084154
 20
57.98658530034197
 11
26.66288040369332
 21
59.16988051403631
  0
LINE
  8
0
 10
26.66288040369332
 20
59.16988051403631
 11
26.619392400132938
 21
59.311383082516876
  0
LINE
  8
0
 10
26.619392400132938
 20
59.311383082516876
 11
26.632401178401967
 21
59.546770760928325
  0
LINE
  8
0
 10
26.632401178401967
 20
59.546770760928325
 11
26.709177569555493
 21
59.87165641629294
  0
LINE
  8
0
 10
26.709177569555493
 20
59.87165641629294
 11
26.83112034341917
 21
60.24238570883911
  0
LINE
  8
0
 10
26.83112034341917
 20
60.24238570883911
 11
26.931553994804688
 21
60.593952952849016
  0
LINE
  8
0
 10
26.931553994804688
 20
60.593952952849016
 11
27.04219723417476
 21
61.04854982701364
  0
LINE
  8
0
 10
27.04219723417476
 20
61.04854982701364
 11
27.155028425146824
 21
61.60737685231822
  0
LINE
  8
0
 10
27.155028425146824
 20
61.60737685231822
 11
27.261953172400496
 21
62.27116023276855
  0
LINE
  8
0
 10
27.261953172400496
 20
62.27116023276855
 11
27.35482932347961
 21
63.04014822525684
  0
LINE
  8
0
 10
27.35482932347961
 20
63.04014822525684
 11
27.4254921341282
 21
63.9141087460682
  0
LINE
  8
0
 10
27.4254921341282
 20
63.9141087460682
 11
27.44378749569597
 21
64.35833887946178
  0
LINE
  8
0
 10
27.44378749569597
 20
64.35833887946178
 11
26.31851967525271
 21
64.89438196325226
  0
LINE
  8
0
 10
26.31851967525271
 20
64.89438196325226
 11
25.137750486329868
 21
65.29357361884537
  0
LINE
  8
0
 10
25.137750486329868
 20
65.29357361884537
 11
24.841448584468953
 21
64.96209162141068
  0
LINE
  8
0
 10
24.841448584468953
 20
64.96209162141068
 11
24.283391563780857
 21
64.2857983518845
  0
LINE
  8
0
 10
24.283391563780857
 20
64.2857983518845
 11
23.814391498681164
 21
63.669350908084
  0
LINE
  8
0
 10
23.814391498681164
 20
63.669350908084
 11
23.428751784066083
 21
63.1186029727745
  0
LINE
  8
0
 10
23.428751784066083
 20
63.1186029727745
 11
23.120457442865405
 21
62.63904784450401
  0
LINE
  8
0
 10
23.120457442865405
 20
62.63904784450401
 11
22.883194849548204
 21
62.23580262601823
  0
LINE
  8
0
 10
22.883194849548204
 20
62.23580262601823
 11
22.710372197668345
 21
61.91359341387645
  0
LINE
  8
0
 10
22.710372197668345
 20
61.91359341387645
 11
22.53963515263331
 21
61.562653091455175
  0
LINE
  8
0
 10
22.53963515263331
 20
61.562653091455175
 11
22.368423332883317
 21
61.276066601756085
  0
LINE
  8
0
 10
22.368423332883317
 20
61.276066601756085
 11
22.21379769607218
 21
61.09811295638567
  0
LINE
  8
0
 10
22.21379769607218
 20
61.09811295638567
 11
22.084030978231333
 21
61.02687545024338
  0
LINE
  8
0
 10
22.084030978231333
 20
61.02687545024338
 11
19.4775268147033
 21
61.908076215058564
  0
LINE
  8
0
 10
19.4775268147033
 20
61.908076215058564
 11
19.41760809179676
 21
62.04344212651901
  0
LINE
  8
0
 10
19.41760809179676
 20
62.04344212651901
 11
19.402685515578597
 21
62.27871623087178
  0
LINE
  8
0
 10
19.402685515578597
 20
62.27871623087178
 11
19.44049776396735
 21
62.61040213224843
  0
LINE
  8
0
 10
19.44049776396735
 20
62.61040213224843
 11
19.51773730422656
 21
62.99295187002104
  0
LINE
  8
0
 10
19.51773730422656
 20
62.99295187002104
 11
19.575885048714856
 21
63.353930103717026
  0
LINE
  8
0
 10
19.575885048714856
 20
63.353930103717026
 11
19.631985080012644
 21
63.818422332830636
  0
LINE
  8
0
 10
19.631985080012644
 20
63.818422332830636
 11
19.677930075409268
 21
64.38667190763465
  0
LINE
  8
0
 10
19.677930075409268
 20
64.38667190763465
 11
19.705596562917425
 21
65.05844258517743
  0
LINE
  8
0
 10
19.705596562917425
 20
65.05844258517743
 11
19.70687017693743
 21
65.8330178816708
  0
LINE
  8
0
 10
19.70687017693743
 20
65.8330178816708
 11
19.673670930046214
 21
66.70920167218023
  0
LINE
  8
0
 10
19.673670930046214
 20
66.70920167218023
 11
19.639297371732457
 21
67.15247764734539
  0
LINE
  8
0
 10
19.639297371732457
 20
67.15247764734539
 11
18.458528182809594
 21
67.55166930293854
  0
LINE
  8
0
 10
18.458528182809594
 20
67.55166930293854
 11
17.238833036541653
 21
67.80840575452866
  0
LINE
  8
0
 10
17.238833036541653
 20
67.80840575452866
 11
16.983816276220868
 21
67.44420583192411
  0
LINE
  8
0
 10
16.983816276220868
 20
67.44420583192411
 11
16.509663553639605
 21
66.70665622653173
  0
LINE
  8
0
 10
16.509663553639605
 20
66.70665622653173
 11
16.116864548851158
 21
66.0390654432903
  0
LINE
  8
0
 10
16.116864548851158
 20
66.0390654432903
 11
15.799070307053785
 21
65.44657232297875
  0
LINE
  8
0
 10
15.799070307053785
 20
65.44657232297875
 11
15.549658359885722
 21
64.93392019679891
  0
LINE
  8
0
 10
15.549658359885722
 20
64.93392019679891
 11
15.36175418057979
 21
64.50544351853203
  0
LINE
  8
0
 10
15.36175418057979
 20
64.50544351853203
 11
15.228253259520248
 21
64.16505557886897
  0
LINE
  8
0
 10
15.228253259520248
 20
64.16505557886897
 11
15.100221426148181
 21
63.79638486116572
  0
LINE
  8
0
 10
15.100221426148181
 20
63.79638486116572
 11
14.964106818602302
 21
63.4915601297006
  0
LINE
  8
0
 10
14.964106818602302
 20
63.4915601297006
 11
14.831613626204765
 21
63.29656745950969
  0
LINE
  8
0
 10
14.831613626204765
 20
63.29656745950969
 11
14.71118321423706
 21
63.21048204138417
  0
LINE
  8
0
 10
14.71118321423706
 20
63.21048204138417
 11
12.018751444500175
 21
63.777218230198095
  0
LINE
  8
0
 10
12.018751444500175
 20
63.777218230198095
 11
11.943243129773624
 21
63.90454724396724
  0
LINE
  8
0
 10
11.943243129773624
 20
63.90454724396724
 11
11.900598679327679
 21
64.1364050415634
  0
LINE
  8
0
 10
11.900598679327679
 20
64.1364050415634
 11
11.89891598386975
 21
64.47023504596123
  0
LINE
  8
0
 10
11.89891598386975
 20
64.47023504596123
 11
11.930368016690416
 21
64.85923506920133
  0
LINE
  8
0
 10
11.930368016690416
 20
64.85923506920133
 11
11.9454135874103
 21
65.22455694945634
  0
LINE
  8
0
 10
11.9454135874103
 20
65.22455694945634
 11
11.94618288916917
 21
65.69242408080173
  0
LINE
  8
0
 10
11.94618288916917
 20
65.69242408080173
 11
11.924596721967657
 21
66.26211922669336
  0
LINE
  8
0
 10
11.924596721967657
 20
66.26211922669336
 11
11.87261657289137
 21
66.93244701355538
  0
LINE
  8
0
 10
11.87261657289137
 20
66.93244701355538
 11
11.782269771103225
 21
67.70173627478103
  0
LINE
  8
0
 10
11.782269771103225
 20
67.70173627478103
 11
11.645674511324914
 21
68.56784363518832
  0
LINE
  8
0
 10
11.645674511324914
 20
68.56784363518832
 11
11.559114562540577
 21
69.00394282910662
  0
LINE
  8
0
 10
11.559114562540577
 20
69.00394282910662
 11
10.339419416272634
 21
69.26067928069678
  0
LINE
  8
0
 10
10.339419416272634
 20
69.26067928069678
 11
9.097920158908474
 21
69.37135651127697
  0
LINE
  8
0
 10
9.097920158908474
 20
69.37135651127697
 11
8.887768416439076
 21
68.97955123207977
  0
LINE
  8
0
 10
8.887768416439076
 20
68.97955123207977
 11
8.5041760568341
 21
68.19109887055224
  0
LINE
  8
0
 10
8.5041760568341
 20
68.19109887055224
 11
8.193092149358092
 21
67.48173625908956
  0
LINE
  8
0
 10
8.193092149358092
 20
67.48173625908956
 11
7.94760451491969
 21
66.8558152584242
  0
LINE
  8
0
 10
7.94760451491969
 20
66.8558152584242
 11
7.760576158804751
 21
66.31726264643923
  0
LINE
  8
0
 10
7.760576158804751
 20
66.31726264643923
 11
7.624668156296505
 21
65.86956938172167
  0
LINE
  8
0
 10
7.624668156296505
 20
65.86956938172167
 11
7.5323630263513275
 21
65.51578101507063
  0
LINE
  8
0
 10
7.5323630263513275
 20
65.51578101507063
 11
7.448833690933533
 21
65.13455523082578
  0
LINE
  8
0
 10
7.448833690933533
 20
65.13455523082578
 11
7.349727046314809
 21
64.81577132864034
  0
LINE
  8
0
 10
7.349727046314809
 20
64.81577132864034
 11
7.241226212323476
 21
64.60647690328922
  0
LINE
  8
0
 10
7.241226212323476
 20
64.60647690328922
 11
7.131822685226225
 21
64.50675202374936
  0
LINE
  8
0
 10
7.131822685226225
 20
64.50675202374936
 11
4.391259149444364
 21
64.75106790277214
  0
LINE
  8
0
 10
4.391259149444364
 20
64.75106790277214
 11
4.301221214120293
 21
64.8685725986053
  0
LINE
  8
0
 10
4.301221214120293
 20
64.8685725986053
 11
4.231453524053043
 21
65.09375931420519
  0
LINE
  8
0
 10
4.231453524053043
 20
65.09375931420519
 11
4.190299506104147
 21
65.42504718012684
  0
LINE
  8
0
 10
4.190299506104147
 20
65.42504718012684
 11
4.175522513889173
 21
65.81503678120669
  0
LINE
  8
0
 10
4.175522513889173
 20
65.81503678120669
 11
4.147254704008035
 21
66.17957398961741
  0
LINE
  8
0
 10
4.147254704008035
 20
66.17957398961741
 11
4.092682476917623
 21
66.64424819424785
  0
LINE
  8
0
 10
4.092682476917623
 20
66.64424819424785
 11
4.003868169588019
 21
67.20739164016594
  0
LINE
  8
0
 10
4.003868169588019
 20
67.20739164016594
 11
3.8729710712784304
 21
67.86686660359628
  0
LINE
  8
0
 10
3.8729710712784304
 20
67.86686660359628
 11
3.69227212473661
 21
68.62007069462948
  0
LINE
  8
0
 10
3.69227212473661
 20
68.62007069462948
 11
3.4541983500979856
 21
69.46394337612529
  0
LINE
  8
0
 10
3.4541983500979856
 20
69.46394337612529
 11
3.3166671227822695
 21
69.88674391205535
  0
LINE
  8
0
 10
3.3166671227822695
 20
69.88674391205535
 11
2.0751678654180914
 21
69.99742114263545
  0
LINE
  8
0
 10
2.0751678654180914
 20
69.99742114263545
 11
0.8292924251311509
 21
69.96048548649574
  0
LINE
  8
0
 10
0.8292924251311509
 20
69.96048548649574
 11
0.6669557703191196
 21
69.54657493797814
  0
LINE
  8
0
 10
0.6669557703191196
 20
69.54657493797814
 11
0.3793085695744598
 21
68.71828796316237
  0
LINE
  8
0
 10
0.3793085695744598
 20
68.71828796316237
 11
0.15430669556751858
 21
67.97711141960137
  0
LINE
  8
0
 10
0.15430669556751858
 20
67.97711141960137
 11
-0.015428223239924002
 21
67.32654909739578
  0
LINE
  8
0
 10
-0.015428223239924002
 20
67.32654909739578
 11
-0.13744752015309789
 21
66.76965609775608
  0
LINE
  8
0
 10
-0.13744752015309789
 20
66.76965609775608
 11
-0.2194514954224585
 21
66.30903087866874
  0
LINE
  8
0
 10
-0.2194514954224585
 20
66.30903087866874
 11
-0.2692650725641817
 21
65.94680849818381
  0
LINE
  8
0
 10
-0.2692650725641817
 20
65.94680849818381
 11
-0.307119341257001
 21
65.55837922175094
  0
LINE
  8
0
 10
-0.307119341257001
 20
65.55837922175094
 11
-0.3678267829025672
 21
65.23011117604895
  0
LINE
  8
0
 10
-0.3678267829025672
 20
65.23011117604895
 11
-0.450812144615218
 21
65.0094530304905
  0
LINE
  8
0
 10
-0.450812144615218
 20
65.0094530304905
 11
-0.5476530011370628
 21
64.89748860824542
  0
LINE
  8
0
 10
-0.5476530011370628
 20
64.89748860824542
 11
-3.297876798310877
 21
64.81595451808258
  0
LINE
  8
0
 10
-3.297876798310877
 20
64.81595451808258
 11
-3.4011804189861063
 21
64.92198538762374
  0
LINE
  8
0
 10
-3.4011804189861063
 20
64.92198538762374
 11
-3.497091963238783
 21
65.13733989335569
  0
LINE
  8
0
 10
-3.497091963238783
 20
65.13733989335569
 11
-3.5771395914773625
 21
65.46143506535557
  0
LINE
  8
0
 10
-3.5771395914773625
 20
65.46143506535557
 11
-3.6379381721488424
 21
65.84693964514378
  0
LINE
  8
0
 10
-3.6379381721488424
 20
65.84693964514378
 11
-3.709122544544074
 21
66.20557487837951
  0
LINE
  8
0
 10
-3.709122544544074
 20
66.20557487837951
 11
-3.818270226039217
 21
66.66053314904045
  0
LINE
  8
0
 10
-3.818270226039217
 20
66.66053314904045
 11
-3.973065915305365
 21
67.20921959542994
  0
LINE
  8
0
 10
-3.973065915305365
 20
67.20921959542994
 11
-4.1810424545179705
 21
67.84858415252901
  0
LINE
  8
0
 10
-4.1810424545179705
 20
67.84858415252901
 11
-4.449556928700995
 21
68.57512973897536
  0
LINE
  8
0
 10
-4.449556928700995
 20
68.57512973897536
 11
-4.785767184268155
 21
69.38492161890319
  0
LINE
  8
0
 10
-4.785767184268155
 20
69.38492161890319
 11
-4.972339053155901
 21
69.78848830411081
  0
LINE
  8
0
 10
-4.972339053155901
 20
69.78848830411081
 11
-6.218214493442869
 21
69.751552647971
  0
LINE
  8
0
 10
-6.218214493442869
 20
69.751552647971
 11
-7.4509767564636205
 21
69.56752260075965
  0
LINE
  8
0
 10
-7.4509767564636205
 20
69.56752260075965
 11
-7.563219472831054
 21
69.13731717971967
  0
LINE
  8
0
 10
-7.563219472831054
 20
69.13731717971967
 11
-7.7508835785473815
 21
68.28082292511468
  0
LINE
  8
0
 10
-7.7508835785473815
 20
68.28082292511468
 11
-7.886644885984389
 21
67.5182369434479
  0
LINE
  8
0
 10
-7.886644885984389
 20
67.5182369434479
 11
-7.978244382964349
 21
66.85216576865565
  0
LINE
  8
0
 10
-7.978244382964349
 20
66.85216576865565
 11
-8.03354173721669
 21
66.28474993835167
  0
LINE
  8
0
 10
-8.03354173721669
 20
66.28474993835167
 11
-8.060490529189316
 21
65.81765893326758
  0
LINE
  8
0
 10
-8.060490529189316
 20
65.81765893326758
 11
-8.067113280097223
 21
65.45208734716955
  0
LINE
  8
0
 10
-8.067113280097223
 20
65.45208734716955
 11
-8.058761091110199
 21
65.06190727414229
  0
LINE
  8
0
 10
-8.058761091110199
 20
65.06190727414229
 11
-8.080217130374256
 21
64.72876324871297
  0
LINE
  8
0
 10
-8.080217130374256
 20
64.72876324871297
 11
-8.136522087235939
 21
64.49983893962222
  0
LINE
  8
0
 10
-8.136522087235939
 20
64.49983893962222
 11
-8.219440839834583
 21
64.3772067097312
  0
LINE
  8
0
 10
-8.219440839834583
 20
64.3772067097312
 11
-10.940717784852945
 21
63.97096721028368
  0
LINE
  8
0
 10
-10.940717784852945
 20
63.97096721028368
 11
-11.05583693448938
 21
64.064035812547
  0
LINE
  8
0
 10
-11.05583693448938
 20
64.064035812547
 11
-11.176545945086874
 21
64.26653500321343
  0
LINE
  8
0
 10
-11.176545945086874
 20
64.26653500321343
 11
-11.294363490381233
 21
64.57888789550206
  0
LINE
  8
0
 10
-11.294363490381233
 20
64.57888789550206
 11
-11.400330180708723
 21
64.95449581473484
  0
LINE
  8
0
 10
-11.400330180708723
 20
64.95449581473484
 11
-11.513431843067691
 21
65.3021946202591
  0
LINE
  8
0
 10
-11.513431843067691
 20
65.3021946202591
 11
-11.67562278477404
 21
65.74105034011126
  0
LINE
  8
0
 10
-11.67562278477404
 20
65.74105034011126
 11
-11.89422686381577
 21
66.26757743200041
  0
LINE
  8
0
 10
-11.89422686381577
 20
66.26757743200041
 11
-12.176363309211043
 21
66.8778563058909
  0
LINE
  8
0
 10
-12.176363309211043
 20
66.8778563058909
 11
-12.528923956408729
 21
67.56754428032427
  0
LINE
  8
0
 10
-12.528923956408729
 20
67.56754428032427
 11
-12.958551037898232
 21
68.33188765577567
  0
LINE
  8
0
 10
-12.958551037898232
 20
68.33188765577567
 11
-13.191544488289415
 21
68.71055529862963
  0
LINE
  8
0
 10
-13.191544488289415
 20
68.71055529862963
 11
-14.424306751310157
 21
68.52652525141815
  0
LINE
  8
0
 10
-14.424306751310157
 20
68.52652525141815
 11
-15.62665055714009
 21
68.19798419159903
  0
LINE
  8
0
 10
-15.62665055714009
 20
68.19798419159903
 11
-15.68722369336421
 21
67.75752303912624
  0
LINE
  8
0
 10
-15.68722369336421
 20
67.75752303912624
 11
-15.77227031137274
 21
66.8848448066081
  0
LINE
  8
0
 10
-15.77227031137274
 20
66.8848448066081
 11
-15.816885261075853
 21
66.11155442240907
  0
LINE
  8
0
 10
-15.816885261075853
 20
66.11155442240907
 11
-15.829063480079308
 21
65.43932457427825
  0
LINE
  8
0
 10
-15.829063480079308
 20
65.43932457427825
 11
-15.816862638030415
 21
64.86935118777659
  0
LINE
  8
0
 10
-15.816862638030415
 20
64.86935118777659
 11
-15.788377944739487
 21
64.40235133053102
  0
LINE
  8
0
 10
-15.788377944739487
 20
64.40235133053102
 11
-15.751716900508077
 21
64.0385623625459
  0
LINE
  8
0
 10
-15.751716900508077
 20
64.0385623625459
 11
-15.697275500266368
 21
63.652108765864284
  0
LINE
  8
0
 10
-15.697275500266368
 20
63.652108765864284
 11
-15.679178941389864
 21
63.31876537256395
  0
LINE
  8
0
 10
-15.679178941389864
 20
63.31876537256395
 11
-15.708013095228226
 21
63.084788495432264
  0
LINE
  8
0
 10
-15.708013095228226
 20
63.084788495432264
 11
-15.775845746377332
 21
62.95320994558981
  0
LINE
  8
0
 10
-15.775845746377332
 20
62.95320994558981
 11
-18.429975076044816
 21
62.22796774894191
  0
LINE
  8
0
 10
-18.429975076044816
 20
62.22796774894191
 11
-18.55529373412585
 21
62.306767604760516
  0
LINE
  8
0
 10
-18.55529373412585
 20
62.306767604760516
 11
-18.699105721156787
 21
62.49356883560817
  0
LINE
  8
0
 10
-18.699105721156787
 20
62.49356883560817
 11
-18.853039283430235
 21
62.78979469826378
  0
LINE
  8
0
 10
-18.853039283430235
 20
62.78979469826378
 11
-19.002686543363392
 21
63.150233245097844
  0
LINE
  8
0
 10
-19.002686543363392
 20
63.150233245097844
 11
-19.15611779626847
 21
63.482114693846235
  0
LINE
  8
0
 10
-19.15611779626847
 20
63.482114693846235
 11
-19.3690751928914
 21
63.89870729056649
  0
LINE
  8
0
 10
-19.3690751928914
 20
63.89870729056649
 11
-19.648418939625024
 21
64.3956837417468
  0
LINE
  8
0
 10
-19.648418939625024
 20
64.3956837417468
 11
-20.000754713960323
 21
64.96830995478709
  0
LINE
  8
0
 10
-20.000754713960323
 20
64.96830995478709
 11
-20.43241235550849
 21
65.61145860986112
  0
LINE
  8
0
 10
-20.43241235550849
 20
65.61145860986112
 11
-20.949425240450395
 21
66.31962377530604
  0
LINE
  8
0
 10
-20.949425240450395
 20
66.31962377530604
 11
-21.225569555029463
 21
66.66807671215035
  0
LINE
  8
0
 10
-21.225569555029463
 20
66.66807671215035
 11
-22.427913360859407
 21
66.33953565233122
  0
LINE
  8
0
 10
-22.427913360859407
 20
66.33953565233122
 11
-23.582960438034792
 21
65.8710955762134
  0
LINE
  8
0
 10
-23.582960438034792
 20
65.8710955762134
 11
-23.59101368006097
 21
65.42656180138573
  0
LINE
  8
0
 10
-23.59101368006097
 20
65.42656180138573
 11
-23.57224894226935
 21
64.54995008040471
  0
LINE
  8
0
 10
-23.57224894226935
 20
64.54995008040471
 11
-23.52509123814192
 21
63.77681059559417
  0
LINE
  8
0
 10
-23.52509123814192
 20
63.77681059559417
 11
-23.457677223669037
 21
63.107858707646514
  0
LINE
  8
0
 10
-23.457677223669037
 20
63.107858707646514
 11
-23.3781494583967
 21
62.54332894189659
  0
LINE
  8
0
 10
-23.3781494583967
 20
62.54332894189659
 11
-23.294631142496808
 21
62.082975886808974
  0
LINE
  8
0
 10
-23.294631142496808
 20
62.082975886808974
 11
-23.215200943825092
 21
61.726076336612024
  0
LINE
  8
0
 10
-23.215200943825092
 20
61.726076336612024
 11
-23.115434570251065
 21
61.34877417765673
  0
LINE
  8
0
 10
-23.115434570251065
 20
61.34877417765673
 11
-23.058039449252483
 21
61.019910827029584
  0
LINE
  8
0
 10
-23.058039449252483
 20
61.019910827029584
 11
-23.05899803175288
 21
60.78416590432825
  0
LINE
  8
0
 10
-23.05899803175288
 20
60.78416590432825
 11
-23.110792359721323
 21
60.64548810895042
  0
LINE
  8
0
 10
-23.110792359721323
 20
60.64548810895042
 11
-25.660515916172635
 21
59.61142402579255
  0
LINE
  8
0
 10
-25.660515916172635
 20
59.61142402579255
 11
-25.7942748834407
 21
59.67484895792217
  0
LINE
  8
0
 10
-25.7942748834407
 20
59.67484895792217
 11
-25.959171041846922
 21
59.8433299491433
  0
LINE
  8
0
 10
-25.959171041846922
 20
59.8433299491433
 11
-26.147059731311675
 21
60.11927042038932
  0
LINE
  8
0
 10
-26.147059731311675
 20
60.11927042038932
 11
-26.33828684135187
 21
60.45947982771813
  0
LINE
  8
0
 10
-26.33828684135187
 20
60.45947982771813
 11
-26.529893846337735
 21
60.77088503164334
  0
LINE
  8
0
 10
-26.529893846337735
 20
60.77088503164334
 11
-26.79062824283703
 21
61.15936645835599
  0
LINE
  8
0
 10
-26.79062824283703
 20
61.15936645835599
 11
-27.12679028338744
 21
61.619815808838666
  0
LINE
  8
0
 10
-27.12679028338744
 20
61.619815808838666
 11
-27.54437936472065
 21
62.14675094420982
  0
LINE
  8
0
 10
-27.54437936472065
 20
62.14675094420982
 11
-28.04907447353717
 21
62.734331882606504
  0
LINE
  8
0
 10
-28.04907447353717
 20
62.734331882606504
 11
-28.646215434333126
 21
63.37637775143932
  0
LINE
  8
0
 10
-28.646215434333126
 20
63.37637775143932
 11
-28.961634152239164
 21
63.689724466858905
  0
LINE
  8
0
 10
-28.961634152239164
 20
63.689724466858905
 11
-30.116681229414556
 21
63.2212843907411
  0
LINE
  8
0
 10
-30.116681229414556
 20
63.2212843907411
 11
-31.20821724886633
 21
62.619521170160056
  0
LINE
  8
0
 10
-31.20821724886633
 20
62.619521170160056
 11
-31.163637546829413
 21
62.17715505274598
  0
LINE
  8
0
 10
-31.163637546829413
 20
62.17715505274598
 11
-31.041324869023423
 21
61.308915550308086
  0
LINE
  8
0
 10
-31.041324869023423
 20
61.308915550308086
 11
-30.90305650186043
 21
60.5467801485101
  0
LINE
  8
0
 10
-30.90305650186043
 20
60.5467801485101
 11
-30.756996598901072
 21
59.89049683889178
  0
LINE
  8
0
 10
-30.756996598901072
 20
59.89049683889178
 11
-30.6112583059027
 21
59.33933545434021
  0
LINE
  8
0
 10
-30.6112583059027
 20
59.33933545434021
 11
-30.473878781474674
 21
58.89209154919763
  0
LINE
  8
0
 10
-30.473878781474674
 20
58.89209154919763
 11
-30.352794454238857
 21
58.547091504140155
  0
LINE
  8
0
 10
-30.352794454238857
 20
58.547091504140155
 11
-30.209103608526906
 21
58.184237278166385
  0
LINE
  8
0
 10
-30.209103608526906
 20
58.184237278166385
 11
-30.11321562709341
 21
57.86447049077788
  0
LINE
  8
0
 10
-30.11321562709341
 20
57.86447049077788
 11
-30.086285181858774
 21
57.63026686446238
  0
LINE
  8
0
 10
-30.086285181858774
 20
57.63026686446238
 11
-30.12131410781644
 21
57.48643655581079
  0
LINE
  8
0
 10
-30.12131410781644
 20
57.48643655581079
 11
-32.53083936138197
 21
56.15806657917408
  0
LINE
  8
0
 10
-32.53083936138197
 20
56.15806657917408
 11
-32.67116095513988
 21
56.20522624059677
  0
LINE
  8
0
 10
-32.67116095513988
 20
56.20522624059677
 11
-32.85482650431422
 21
56.35302188838952
  0
LINE
  8
0
 10
-32.85482650431422
 20
56.35302188838952
 11
-33.07403277562727
 21
56.60480336887861
  0
LINE
  8
0
 10
-33.07403277562727
 20
56.60480336887861
 11
-33.30415532632454
 21
56.920007842371504
  0
LINE
  8
0
 10
-33.30415532632454
 20
56.920007842371504
 11
-33.53124834104892
 21
57.206565355019045
  0
LINE
  8
0
 10
-33.53124834104892
 20
57.206565355019045
 11
-33.83609959803457
 21
57.56148218405483
  0
LINE
  8
0
 10
-33.83609959803457
 20
57.56148218405483
 11
-34.22436095422873
 21
57.978940734276534
  0
LINE
  8
0
 10
-34.22436095422873
 20
57.978940734276534
 11
-34.701341307224496
 21
58.452787777733995
  0
LINE
  8
0
 10
-34.701341307224496
 20
58.452787777733995
 11
-35.27198907028691
 21
58.97655265107156
  0
LINE
  8
0
 10
-35.27198907028691
 20
58.97655265107156
 11
-35.94087555679646
 21
59.54346630667575
  0
LINE
  8
0
 10
-35.94087555679646
 20
59.54346630667575
 11
-36.29114089063647
 21
59.817308099650646
  0
LINE
  8
0
 10
-36.29114089063647
 20
59.817308099650646
 11
-37.38267691008822
 21
59.215544879069526
  0
LINE
  8
0
 10
-37.38267691008822
 20
59.215544879069526
 11
-38.39537909877969
 21
58.4889059505609
  0
LINE
  8
0
 10
-38.39537909877969
 20
58.4889059505609
 11
-38.298792253976366
 21
58.05491734117043
  0
LINE
  8
0
 10
-38.298792253976366
 20
58.05491734117043
 11
-38.0746486380397
 21
57.207238236685406
  0
LINE
  8
0
 10
-38.0746486380397
 20
57.207238236685406
 11
-37.84721059262811
 21
56.46680562831984
  0
LINE
  8
0
 10
-37.84721059262811
 20
56.46680562831984
 11
-37.62455516205257
 21
55.83240367610712
  0
LINE
  8
0
 10
-37.62455516205257
 20
55.83240367610712
 11
-37.41465218749959
 21
55.30234777043237
  0
LINE
  8
0
 10
-37.41465218749959
 20
55.30234777043237
 11
-37.225339961926764
 21
54.87449133929229
  0
LINE
  8
0
 10
-37.225339961926764
 20
54.87449133929229
 11
-37.06430126466112
 21
54.54623384375747
  0
LINE
  8
0
 10
-37.06430126466112
 20
54.54623384375747
 11
-36.87870305131082
 21
54.20292122871162
  0
LINE
  8
0
 10
-36.87870305131082
 20
54.20292122871162
 11
-36.745668266512695
 21
53.89673982931926
  0
LINE
  8
0
 10
-36.745668266512695
 20
53.89673982931926
 11
-36.69122683796185
 21
53.66736520492237
  0
LINE
  8
0
 10
-36.69122683796185
 20
53.66736520492237
 11
-36.70899863257265
 21
53.52040144525057
  0
LINE
  8
0
 10
-36.70899863257265
 20
53.52040144525057
 11
-38.944501130436834
 21
51.9163729777841
  0
LINE
  8
0
 10
-38.944501130436834
 20
51.9163729777841
 11
-39.089415543096976
 21
51.94660535022874
  0
LINE
  8
0
 10
-39.089415543096976
 20
51.94660535022874
 11
-39.28927222132885
 21
52.07164092767014
  0
LINE
  8
0
 10
-39.28927222132885
 20
52.07164092767014
 11
-39.53671889894705
 21
52.29572895732807
  0
LINE
  8
0
 10
-39.53671889894705
 20
52.29572895732807
 11
-39.802506474124456
 21
52.581503717113925
  0
LINE
  8
0
 10
-39.802506474124456
 20
52.581503717113925
 11
-40.06189761045464
 21
52.83919089914804
  0
LINE
  8
0
 10
-40.06189761045464
 20
52.83919089914804
 11
-40.40658628452078
 21
53.15556087621458
  0
LINE
  8
0
 10
-40.40658628452078
 20
53.15556087621458
 11
-40.8414966179971
 21
53.52416842321063
  0
LINE
  8
0
 10
-40.8414966179971
 20
53.52416842321063
 11
-41.37117248405317
 21
53.93827560094979
  0
LINE
  8
0
 10
-41.37117248405317
 20
53.93827560094979
 11
-41.99976225764341
 21
54.390871898513325
  0
LINE
  8
0
 10
-41.99976225764341
 20
54.390871898513325
 11
-42.73100456981322
 21
54.874695115854266
  0
LINE
  8
0
 10
-42.73100456981322
 20
54.874695115854266
 11
-43.111199562091166
 21
55.105187847879705
  0
LINE
  8
0
 10
-43.111199562091166
 20
55.105187847879705
 11
-44.123901750782565
 21
54.37854891937103
  0
LINE
  8
0
 10
-44.123901750782565
 20
54.37854891937103
 11
-45.04355398985505
 21
53.537234700678866
  0
LINE
  8
0
 10
-45.04355398985505
 20
53.537234700678866
 11
-44.89631586986543
 21
53.117715848073146
  0
LINE
  8
0
 10
-44.89631586986543
 20
53.117715848073146
 11
-44.573487800836986
 21
52.30249669803246
  0
LINE
  8
0
 10
-44.573487800836986
 20
52.30249669803246
 11
-44.260072808784045
 21
51.59416093387245
  0
LINE
  8
0
 10
-44.260072808784045
 20
51.59416093387245
 11
-43.96394744477088
 21
50.99054595184818
  0
LINE
  8
0
 10
-43.96394744477088
 20
50.99054595184818
 11
-43.69282636631301
 21
50.48903634806904
  0
LINE
  8
0
 10
-43.69282636631301
 20
50.48903634806904
 11
-43.45423896826492
 21
50.08657355735181
  0
LINE
  8
0
 10
-43.45423896826492
 20
50.08657355735181
 11
-43.255506531277874
 21
49.77966662702765
  0
LINE
  8
0
 10
-43.255506531277874
 20
49.77966662702765
 11
-43.03060634236837
 21
49.46071497947444
  0
LINE
  8
0
 10
-43.03060634236837
 20
49.46071497947444
 11
-42.86229227096832
 21
49.17241708376777
  0
LINE
  8
0
 10
-42.86229227096832
 20
49.17241708376777
 11
-42.78110409742105
 21
48.95109137822065
  0
LINE
  8
0
 10
-42.78110409742105
 20
48.95109137822065
 11
-42.78136928364489
 21
48.803057216565904
  0
LINE
  8
0
 10
-42.78136928364489
 20
48.803057216565904
 11
-44.81146747101963
 21
46.94588730187913
  0
LINE
  8
0
 10
-44.81146747101963
 20
46.94588730187913
 11
-44.95894042188456
 21
46.958767989106775
  0
LINE
  8
0
 10
-44.95894042188456
 20
46.958767989106775
 11
-45.172182679502846
 21
47.059288270770935
  0
LINE
  8
0
 10
-45.172182679502846
 20
47.059288270770935
 11
-45.44439615448223
 21
47.25253714486831
  0
LINE
  8
0
 10
-45.44439615448223
 20
47.25253714486831
 11
-45.742117679197825
 21
47.50487053974574
  0
LINE
  8
0
 10
-45.742117679197825
 20
47.50487053974574
 11
-46.030165654172144
 21
47.730070027987935
  0
LINE
  8
0
 10
-46.030165654172144
 20
47.730070027987935
 11
-46.40985307190175
 21
48.00345201209876
  0
LINE
  8
0
 10
-46.40985307190175
 20
48.00345201209876
 11
-46.885307194913445
 21
48.31803411390704
  0
LINE
  8
0
 10
-46.885307194913445
 20
48.31803411390704
 11
-47.460243085934216
 21
48.66658826888656
  0
LINE
  8
0
 10
-47.460243085934216
 20
48.66658826888656
 11
-48.137950847516855
 21
49.0416625307616
  0
LINE
  8
0
 10
-48.137950847516855
 20
49.0416625307616
 11
-48.92128394618699
 21
49.4356034924214
  0
LINE
  8
0
 10
-48.92128394618699
 20
49.4356034924214
 11
-49.32607149260895
 21
49.619511550786044
  0
LINE
  8
0
 10
-49.32607149260895
 20
49.619511550786044
 11
-50.24572373168144
 21
48.77819733209385
  0
LINE
  8
0
 10
-50.24572373168144
 20
48.77819733209385
 11
-51.05941611960099
 21
47.834018030665106
  0
LINE
  8
0
 10
-51.05941611960099
 20
47.834018030665106
 11
-50.86359362487972
 21
47.43485805993801
  0
LINE
  8
0
 10
-50.86359362487972
 20
47.43485805993801
 11
-50.4466129012008
 21
46.66354275422582
  0
LINE
  8
0
 10
-50.4466129012008
 20
46.66354275422582
 11
-50.05162062198079
 21
45.99724731570904
  0
LINE
  8
0
 10
-50.05162062198079
 20
45.99724731570904
 11
-49.686182275525944
 21
45.432892735080486
  0
LINE
  8
0
 10
-49.686182275525944
 20
45.432892735080486
 11
-49.3576490388
 21
44.966969528711395
  0
LINE
  8
0
 10
-49.3576490388
 20
44.966969528711395
 11
-49.073135712355196
 21
44.595550073789376
  0
LINE
  8
0
 10
-49.073135712355196
 20
44.595550073789376
 11
-48.83949930343519
 21
44.31430200922932
  0
LINE
  8
0
 10
-48.83949930343519
 20
44.31430200922932
 11
-48.57845424463147
 21
44.02418871114976
  0
LINE
  8
0
 10
-48.57845424463147
 20
44.02418871114976
 11
-48.37722364724297
 21
43.757821389627736
  0
LINE
  8
0
 10
-48.37722364724297
 20
43.757821389627736
 11
-48.2704284326892
 21
43.54765153068434
  0
LINE
  8
0
 10
-48.2704284326892
 20
43.54765153068434
 11
-48.25318328789281
 21
43.40062504218139
  0
LINE
  8
0
 10
-48.25318328789281
 20
43.40062504218139
 11
-50.04937903625747
 21
41.316384274909865
  0
LINE
  8
0
 10
-50.04937903625747
 20
41.316384274909865
 11
-50.19734032836172
 21
41.31173246030666
  0
LINE
  8
0
 10
-50.19734032836172
 20
41.31173246030666
 11
-50.420974711502254
 21
41.38632636178217
  0
LINE
  8
0
 10
-50.420974711502254
 20
41.38632636178217
 11
-50.71413370335342
 21
41.54602328973343
  0
LINE
  8
0
 10
-50.71413370335342
 20
41.54602328973343
 11
-51.03960982001383
 21
41.76137311195996
  0
LINE
  8
0
 10
-51.03960982001383
 20
41.76137311195996
 11
-51.35227107147257
 21
41.9509235992387
  0
LINE
  8
0
 10
-51.35227107147257
 20
41.9509235992387
 11
-51.76162725380582
 21
42.17747990659758
  0
LINE
  8
0
 10
-51.76162725380582
 20
42.17747990659758
 11
-52.2709508326741
 21
42.43362052008118
  0
LINE
  8
0
 10
-52.2709508326741
 20
42.43362052008118
 11
-52.883075909024654
 21
42.711728716005275
  0
LINE
  8
0
 10
-52.883075909024654
 20
42.711728716005275
 11
-53.6003881271808
 21
43.00401572172801
  0
LINE
  8
0
 10
-53.6003881271808
 20
43.00401572172801
 11
-54.42481573273325
 21
43.302544360134206
  0
LINE
  8
0
 10
-54.42481573273325
 20
43.302544360134206
 11
-54.84851350345276
 21
43.437286078830056
  0
LINE
  8
0
 10
-54.84851350345276
 20
43.437286078830056
 11
-55.662205891372295
 21
42.49310677740127
  0
LINE
  8
0
 10
-55.662205891372295
 20
42.49310677740127
 11
-56.35851597064817
 21
41.459316600961444
  0
LINE
  8
0
 10
-56.35851597064817
 20
41.459316600961444
 11
-56.116858019772984
 21
41.086118843132546
  0
LINE
  8
0
 10
-56.116858019772984
 20
41.086118843132546
 11
-55.611578136771016
 21
40.36953495789705
  0
LINE
  8
0
 10
-55.611578136771016
 20
40.36953495789705
 11
-55.14055339615043
 21
39.75463317244266
  0
LINE
  8
0
 10
-55.14055339615043
 20
39.75463317244266
 11
-54.71093202058739
 21
39.23746129444134
  0
LINE
  8
0
 10
-54.71093202058739
 20
39.23746129444134
 11
-54.32959851208328
 21
38.81366502598346
  0
LINE
  8
0
 10
-54.32959851208328
 20
38.81366502598346
 11
-54.00315320068415
 21
38.47850282184227
  0
LINE
  8
0
 10
-54.00315320068415
 20
38.47850282184227
 11
-53.737892562875096
 21
38.226861729369396
  0
LINE
  8
0
 10
-53.737892562875096
 20
38.226861729369396
 11
-53.44436713458494
 21
37.96965933553233
  0
LINE
  8
0
 10
-53.44436713458494
 20
37.96965933553233
 11
-53.2130448476924
 21
37.72896180150474
  0
LINE
  8
0
 10
-53.2130448476924
 20
37.72896180150474
 11
-53.08214176284647
 21
37.53289811328663
  0
LINE
  8
0
 10
-53.08214176284647
 20
37.53289811328663
 11
-53.04762837106096
 21
37.38894322754801
  0
LINE
  8
0
 10
-53.04762837106096
 20
37.38894322754801
 11
-54.584707029418134
 21
35.106889779352116
  0
LINE
  8
0
 10
-54.584707029418134
 20
35.106889779352116
 11
-54.73107961055574
 21
35.084770764198176
  0
LINE
  8
0
 10
-54.73107961055574
 20
35.084770764198176
 11
-54.96196678269183
 21
35.13239115062018
  0
LINE
  8
0
 10
-54.96196678269183
 20
35.13239115062018
 11
-55.27195598178161
 21
35.25629433761687
  0
LINE
  8
0
 10
-55.27195598178161
 20
35.25629433761687
 11
-55.62061771916137
 21
35.43163754774109
  0
LINE
  8
0
 10
-55.62061771916137
 20
35.43163754774109
 11
-55.95350316849598
 21
35.58287816071476
  0
LINE
  8
0
 10
-55.95350316849598
 20
35.58287816071476
 11
-56.38678165195273
 21
35.75942843738394
  0
LINE
  8
0
 10
-56.38678165195273
 20
35.75942843738394
 11
-56.922824900081324
 21
35.95353190979668
  0
LINE
  8
0
 10
-56.922824900081324
 20
35.95353190979668
 11
-57.563546267484426
 21
36.157290117215275
  0
LINE
  8
0
 10
-57.563546267484426
 20
36.157290117215275
 11
-58.31039345103894
 21
36.36268679792637
  0
LINE
  8
0
 10
-58.31039345103894
 20
36.36268679792637
 11
-59.16434240705935
 21
36.56161242537858
  0
LINE
  8
0
 10
-59.16434240705935
 20
36.56161242537858
 11
-59.60100261413241
 21
36.64529632603259
  0
LINE
  8
0
 10
-59.60100261413241
 20
36.64529632603259
 11
-60.29731269340831
 21
35.61150614959273
  0
LINE
  8
0
 10
-60.29731269340831
 20
35.61150614959273
 11
-60.8664657968581
 21
34.50261724612309
  0
LINE
  8
0
 10
-60.8664657968581
 20
34.50261724612309
 11
-60.58236473773847
 21
34.16062057965271
  0
LINE
  8
0
 10
-60.58236473773847
 20
34.16062057965271
 11
-59.99587871738364
 21
33.50882738187136
  0
LINE
  8
0
 10
-59.99587871738364
 20
33.50882738187136
 11
-59.45543367022184
 21
32.9539511226658
  0
LINE
  8
0
 10
-59.45543367022184
 20
32.9539511226658
 11
-58.96766020792184
 21
32.49122190680413
  0
LINE
  8
0
 10
-58.96766020792184
 20
32.49122190680413
 11
-58.53887951420559
 21
32.11550174689374
  0
LINE
  8
0
 10
-58.53887951420559
 20
32.11550174689374
 11
-58.17508479444724
 21
31.821301736194894
  0
LINE
  8
0
 10
-58.17508479444724
 20
31.821301736194894
 11
-57.881923605645476
 21
31.602800105143448
  0
LINE
  8
0
 10
-57.881923605645476
 20
31.602800105143448
 11
-57.560038261466396
 21
31.382119173363744
  0
LINE
  8
0
 10
-57.560038261466396
 20
31.382119173363744
 11
-57.3018715429131
 21
31.17047029259284
  0
LINE
  8
0
 10
-57.3018715429131
 20
31.17047029259284
 11
-57.14869818014314
 21
30.991265079505684
  0
LINE
  8
0
 10
-57.14869818014314
 20
30.991265079505684
 11
-57.0974010337349
 21
30.852402607574177
  0
LINE
  8
0
 10
-57.0974010337349
 20
30.852402607574177
 11
-58.35378538703922
 21
28.40457150654373
  0
LINE
  8
0
 10
-58.35378538703922
 20
28.40457150654373
 11
-58.49651450702364
 21
28.365295793326336
  0
LINE
  8
0
 10
-58.49651450702364
 20
28.365295793326336
 11
-58.73141331836944
 21
28.385274178854644
  0
LINE
  8
0
 10
-58.73141331836944
 20
28.385274178854644
 11
-59.05388115584732
 21
28.47164429575046
  0
LINE
  8
0
 10
-59.05388115584732
 20
28.47164429575046
 11
-59.42083406742958
 21
28.60451945945928
  0
LINE
  8
0
 10
-59.42083406742958
 20
28.60451945945928
 11
-59.769270732625294
 21
28.715327111445244
  0
LINE
  8
0
 10
-59.769270732625294
 20
28.715327111445244
 11
-60.22038923705596
 21
28.839392978543266
  0
LINE
  8
0
 10
-60.22038923705596
 20
28.839392978543266
 11
-60.77562728226245
 21
28.96873452261254
  0
LINE
  8
0
 10
-60.77562728226245
 20
28.96873452261254
 11
-61.4359506171983
 21
29.095282422936965
  0
LINE
  8
0
 10
-61.4359506171983
 20
29.095282422936965
 11
-62.201848668803294
 21
29.210905459474336
  0
LINE
  8
0
 10
-62.201848668803294
 20
29.210905459474336
 11
-63.07333140382834
 21
29.30743559621348
  0
LINE
  8
0
 10
-63.07333140382834
 20
29.30743559621348
 11
-63.51682429511867
 21
29.338886940297897
  0
LINE
  8
0
 10
-63.51682429511867
 20
29.338886940297897
 11
-64.08597739856839
 21
28.2299980368282
  0
LINE
  8
0
 10
-64.08597739856839
 20
28.2299980368282
 11
-64.51998386421856
 21
27.061576775818903
  0
LINE
  8
0
 10
-64.51998386421856
 20
27.061576775818903
 11
-64.19742785296738
 21
26.755582084238394
  0
LINE
  8
0
 10
-64.19742785296738
 20
26.755582084238394
 11
-63.53796867339225
 21
26.177729321659736
  0
LINE
  8
0
 10
-63.53796867339225
 20
26.177729321659736
 11
-62.93568998348122
 21
25.690667835078493
  0
LINE
  8
0
 10
-62.93568998348122
 20
25.690667835078493
 11
-62.39661170464235
 21
25.288876985232204
  0
LINE
  8
0
 10
-62.39661170464235
 20
25.288876985232204
 11
-61.926402966754864
 21
24.9665072213257
  0
LINE
  8
0
 10
-61.926402966754864
 20
24.9665072213257
 11
-61.530365719054835
 21
24.71739932732504
  0
LINE
  8
0
 10
-61.530365719054835
 20
24.71739932732504
 11
-61.21341931973388
 21
24.535104441633493
  0
LINE
  8
0
 10
-61.21341931973388
 20
24.535104441633493
 11
-60.86769262431679
 21
24.35404284845477
  0
LINE
  8
0
 10
-60.86769262431679
 20
24.35404284845477
 11
-60.58630556892279
 21
24.174413707286508
  0
LINE
  8
0
 10
-60.58630556892279
 20
24.174413707286508
 11
-60.41301214648194
 21
24.01458261769938
  0
LINE
  8
0
 10
-60.41301214648194
 20
24.01458261769938
 11
-60.3456513449418
 21
23.882761884290606
  0
LINE
  8
0
 10
-60.3456513449418
 20
23.882761884290606
 11
-61.30370451090135
 21
21.303515313372127
  0
LINE
  8
0
 10
-61.30370451090135
 20
21.303515313372127
 11
-61.44078656575412
 21
21.247634247011437
  0
LINE
  8
0
 10
-61.44078656575412
 20
21.247634247011437
 11
-61.676399551902854
 21
21.239690178906386
  0
LINE
  8
0
 10
-61.676399551902854
 20
21.239690178906386
 11
-62.006819286188865
 21
21.287314778585742
  0
LINE
  8
0
 10
-62.006819286188865
 20
21.287314778585742
 11
-62.386912157465716
 21
21.37585661984664
  0
LINE
  8
0
 10
-62.386912157465716
 20
21.37585661984664
 11
-62.74600875152578
 21
21.444675814304382
  0
LINE
  8
0
 10
-62.74600875152578
 20
21.444675814304382
 11
-63.20863456199211
 21
21.51451565901293
  0
LINE
  8
0
 10
-63.20863456199211
 20
21.51451565901293
 11
-63.77527307921858
 21
21.577279602980163
  0
LINE
  8
0
 10
-63.77527307921858
 20
21.577279602980163
 11
-64.4459288895113
 21
21.624840741086288
  0
LINE
  8
0
 10
-64.4459288895113
 20
21.624840741086288
 11
-65.22012627939148
 21
21.64906703946576
  0
LINE
  8
0
 10
-65.22012627939148
 20
21.64906703946576
 11
-66.09690908613513
 21
21.641846613968692
  0
LINE
  8
0
 10
-66.09690908613513
 20
21.641846613968692
 11
-66.54100899359742
 21
21.620623893554736
  0
LINE
  8
0
 10
-66.54100899359742
 20
21.620623893554736
 11
-66.97501545924753
 21
20.45220263254546
  0
LINE
  8
0
 10
-66.97501545924753
 20
20.45220263254546
 11
-67.26778278767418
 21
19.240651087290132
  0
LINE
  8
0
 10
-67.26778278767418
 20
19.240651087290132
 11
-66.91129980363799
 21
18.974953865320636
  0
LINE
  8
0
 10
-66.91129980363799
 20
18.974953865320636
 11
-66.18812482617146
 21
18.47915332406239
  0
LINE
  8
0
 10
-66.18812482617146
 20
18.47915332406239
 11
-65.53246716610637
 21
18.06674388572512
  0
LINE
  8
0
 10
-65.53246716610637
 20
18.06674388572512
 11
-64.94965154808936
 21
17.731531664689655
  0
LINE
  8
0
 10
-64.94965154808936
 20
17.731531664689655
 11
-64.44461546600031
 21
17.46703766162904
  0
LINE
  8
0
 10
-64.44461546600031
 20
17.46703766162904
 11
-64.02189518519197
 21
17.266518813107098
  0
LINE
  8
0
 10
-64.02189518519197
 20
17.266518813107098
 11
-63.685612808043224
 21
17.122989693375246
  0
LINE
  8
0
 10
-63.685612808043224
 20
17.122989693375246
 11
-63.3208980063495
 21
16.98408914667383
  0
LINE
  8
0
 10
-63.3208980063495
 20
16.98408914667383
 11
-63.0202406715645
 21
16.839001344498275
  0
LINE
  8
0
 10
-63.0202406715645
 20
16.839001344498275
 11
-62.82925984923997
 21
16.70078805655491
  0
LINE
  8
0
 10
-62.82925984923997
 20
16.70078805655491
 11
-62.746780990564844
 21
16.577859535811317
  0
LINE
  8
0
 10
-62.746780990564844
 20
16.577859535811317
 11
-63.393054002808
 21
13.903404463082293
  0
LINE
  8
0
 10
-63.393054002808
 20
13.903404463082293
 11
-63.52256466096653
 21
13.831702491257197
  0
LINE
  8
0
 10
-63.52256466096653
 20
13.831702491257197
 11
-63.755584332062725
 21
13.795947486821374
  0
LINE
  8
0
 10
-63.755584332062725
 20
13.795947486821374
 11
-64.0893175943765
 21
13.804158024299186
  0
LINE
  8
0
 10
-64.0893175943765
 20
13.804158024299186
 11
-64.47721475460904
 21
13.84712360974697
  0
LINE
  8
0
 10
-64.47721475460904
 20
13.84712360974697
 11
-64.84193034850229
 21
13.87298827603984
  0
LINE
  8
0
 10
-64.84193034850229
 20
13.87298827603984
 11
-65.30956921271363
 21
13.887621700030023
  0
LINE
  8
0
 10
-65.30956921271363
 20
13.887621700030023
 11
-65.87965383926519
 21
13.882926975702187
  0
LINE
  8
0
 10
-65.87965383926519
 20
13.882926975702187
 11
-66.55122758743393
 21
13.850833697466294
  0
LINE
  8
0
 10
-66.55122758743393
 20
13.850833697466294
 11
-67.32285628129698
 21
13.783323173563318
  0
LINE
  8
0
 10
-67.32285628129698
 20
13.783323173563318
 11
-68.19263105108413
 21
13.672453544776653
  0
LINE
  8
0
 10
-68.19263105108413
 20
13.672453544776653
 11
-68.63110378549656
 21
13.598854680338166
  0
LINE
  8
0
 10
-68.63110378549656
 20
13.598854680338166
 11
-68.92387111392328
 21
12.387303135082806
  0
LINE
  8
0
 10
-68.92387111392328
 20
12.387303135082806
 11
-69.0712894935894
 21
11.149628833523108
  0
LINE
  8
0
 10
-69.0712894935894
 20
11.149628833523108
 11
-68.68588377644357
 21
10.927958887745557
  0
LINE
  8
0
 10
-68.68588377644357
 20
10.927958887745557
 11
-67.90914479255015
 21
10.521170520598805
  0
LINE
  8
0
 10
-67.90914479255015
 20
10.521170520598805
 11
-67.20931215865903
 21
10.189202455007123
  0
LINE
  8
0
 10
-67.20931215865903
 20
10.189202455007123
 11
-66.59094065519325
 21
9.925274507571569
  0
LINE
  8
0
 10
-66.59094065519325
 20
9.925274507571569
 11
-66.05816682844244
 21
9.72236918138181
  0
LINE
  8
0
 10
-66.05816682844244
 20
9.72236918138181
 11
-65.61469758065402
 21
9.5732542234291
  0
LINE
  8
0
 10
-65.61469758065402
 20
9.5732542234291
 11
-65.26379989311259
 21
9.470505703878267
  0
LINE
  8
0
 10
-65.26379989311259
 20
9.470505703878267
 11
-64.88521678149333
 21
9.375716062856092
  0
LINE
  8
0
 10
-64.88521678149333
 20
9.375716062856092
 11
-64.56950973724868
 21
9.267206314379404
  0
LINE
  8
0
 10
-64.56950973724868
 20
9.267206314379404
 11
-64.36352246715077
 21
9.152551039675263
  0
LINE
  8
0
 10
-64.36352246715077
 20
9.152551039675263
 11
-64.26708337372061
 21
9.04024037856545
  0
LINE
  8
0
 10
-64.26708337372061
 20
9.04024037856545
 11
-64.59250397580337
 21
6.308120290769175
  0
LINE
  8
0
 10
-64.59250397580337
 20
6.308120290769175
 11
-64.712625191518
 21
6.221603951991435
  0
LINE
  8
0
 10
-64.712625191518
 20
6.221603951991435
 11
-64.93978046216488
 21
6.158539933111184
  0
LINE
  8
0
 10
-64.93978046216488
 20
6.158539933111184
 11
-65.27214236905583
 21
6.127221150438981
  0
LINE
  8
0
 10
-65.27214236905583
 20
6.127221150438981
 11
-65.66239859239548
 21
6.124007337435686
  0
LINE
  8
0
 10
-65.66239859239548
 20
6.124007337435686
 11
-66.0276133786501
 21
6.10655439234498
  0
LINE
  8
0
 10
-66.0276133786501
 20
6.10655439234498
 11
-66.49370067202995
 21
6.06577597442084
  0
LINE
  8
0
 10
-66.49370067202995
 20
6.06577597442084
 11
-67.0592286693907
 21
5.993688485436529
  0
LINE
  8
0
 10
-67.0592286693907
 20
5.993688485436529
 11
-67.72229293211899
 21
5.882391310135724
  0
LINE
  8
0
 10
-67.72229293211899
 20
5.882391310135724
 11
-68.48052095453403
 21
5.724091663721004
  0
LINE
  8
0
 10
-68.48052095453403
 20
5.724091663721004
 11
-69.33107795616671
 21
5.511129198203682
  0
LINE
  8
0
 10
-69.33107795616671
 20
5.511129198203682
 11
-69.75776832148226
 21
5.386187356466676
  0
LINE
  8
0
 10
-69.75776832148226
 20
5.386187356466676
 11
-69.90518670114832
 21
4.148513054906936
  0
LINE
  8
0
 10
-69.90518670114832
 20
4.148513054906936
 11
-69.90518670114838
 21
2.9020902312212256
  0
LINE
  8
0
 10
-69.90518670114838
 20
2.9020902312212256
 11
-69.49626850234196
 21
2.727559321767834
  0
LINE
  8
0
 10
-69.49626850234196
 20
2.727559321767834
 11
-68.6768692247227
 21
2.415493545716217
  0
LINE
  8
0
 10
-68.6768692247227
 20
2.415493545716217
 11
-67.94268573313327
 21
2.1686269568280587
  0
LINE
  8
0
 10
-67.94268573313327
 20
2.1686269568280587
 11
-67.29743892464033
 21
1.9796882528372153
  0
LINE
  8
0
 10
-67.29743892464033
 20
1.9796882528372153
 11
-66.7444063299007
 21
1.8412199495240573
  0
LINE
  8
0
 10
-66.7444063299007
 20
1.8412199495240573
 11
-66.2864134512746
 21
1.745602129286214
  0
LINE
  8
0
 10
-66.2864134512746
 20
1.745602129286214
 11
-65.92582628769634
 21
1.6850765739033609
  0
LINE
  8
0
 10
-65.92582628769634
 20
1.6850765739033609
 11
-65.53868934317424
 21
1.6357284773389225
  0
LINE
  8
0
 10
-65.53868934317424
 20
1.6357284773389225
 11
-65.21236442433282
 21
1.5653200215734144
  0
LINE
  8
0
 10
-65.21236442433282
 20
1.5653200215734144
 11
-64.99426231620404
 21
1.4758322688378804
  0
LINE
  8
0
 10
-64.99426231620404
 20
1.4758322688378804
 11
-64.88521678149345
 21
1.3757160628558256
  0
LINE
  8
0
 10
-64.88521678149345
 20
1.3757160628558256
 11
-64.88521678149336
 21
-1.3757160628561351
  0
LINE
  8
0
 10
-64.88521678149336
 20
-1.3757160628561351
 11
-64.99426231620438
 21
-1.4758322688362298
  0
LINE
  8
0
 10
-64.99426231620438
 20
-1.4758322688362298
 11
-65.21236442433256
 21
-1.5653200215738656
  0
LINE
  8
0
 10
-65.21236442433256
 20
-1.5653200215738656
 11
-65.53868934317424
 21
-1.6357284773389837
  0
LINE
  8
0
 10
-65.53868934317424
 20
-1.6357284773389837
 11
-65.92582628769749
 21
-1.685076573903554
  0
LINE
  8
0
 10
-65.92582628769749
 20
-1.685076573903554
 11
-66.28641345127515
 21
-1.7456021292860915
  0
LINE
  8
0
 10
-66.28641345127515
 20
-1.7456021292860915
 11
-66.74440632990041
 21
-1.8412199495242918
  0
LINE
  8
0
 10
-66.74440632990041
 20
-1.8412199495242918
 11
-67.29743892464009
 21
-1.9796882528374626
  0
LINE
  8
0
 10
-67.29743892464009
 20
-1.9796882528374626
 11
-67.942685733134
 21
-2.1686269568283754
  0
LINE
  8
0
 10
-67.942685733134
 20
-2.1686269568283754
 11
-68.67686922472265
 21
-2.4154935457162803
  0
LINE
  8
0
 10
-68.67686922472265
 20
-2.4154935457162803
 11
-69.49626850234188
 21
-2.7275593217678793
  0
LINE
  8
0
 10
-69.49626850234188
 20
-2.7275593217678793
 11
-69.90518670114832
 21
-2.9020902312213037
  0
LINE
  8
0
 10
-69.90518670114832
 20
-2.9020902312213037
 11
-69.90518670114831
 21
-4.148513054906991
  0
LINE
  8
0
 10
-69.90518670114831
 20
-4.148513054906991
 11
-69.7577683214823
 21
-5.386187356466699
  0
LINE
  8
0
 10
-69.7577683214823
 20
-5.386187356466699
 11
-69.3310779561668
 21
-5.511129198203676
  0
LINE
  8
0
 10
-69.3310779561668
 20
-5.511129198203676
 11
-68.48052095453407
 21
-5.724091663721011
  0
LINE
  8
0
 10
-68.48052095453407
 20
-5.724091663721011
 11
-67.72229293211824
 21
-5.882391310135894
  0
LINE
  8
0
 10
-67.72229293211824
 20
-5.882391310135894
 11
-67.05922866939092
 21
-5.993688485436743
  0
LINE
  8
0
 10
-67.05922866939092
 20
-5.993688485436743
 11
-66.49370067203022
 21
-6.065775974421047
  0
LINE
  8
0
 10
-66.49370067203022
 20
-6.065775974421047
 11
-66.02761337864956
 21
-6.106554392344732
  0
LINE
  8
0
 10
-66.02761337864956
 20
-6.106554392344732
 11
-65.66239859239433
 21
-6.124007337435684
  0
LINE
  8
0
 10
-65.66239859239433
 20
-6.124007337435684
 11
-65.27214236905583
 21
-6.127221150438983
  0
LINE
  8
0
 10
-65.27214236905583
 20
-6.127221150438983
 11
-64.93978046216507
 21
-6.158539933111602
  0
LINE
  8
0
 10
-64.93978046216507
 20
-6.158539933111602
 11
-64.71262519151784
 21
-6.221603951989697
  0
LINE
  8
0
 10
-64.71262519151784
 20
-6.221603951989697
 11
-64.59250397580344
 21
-6.308120290769436
  0
LINE
  8
0
 10
-64.59250397580344
 20
-6.308120290769436
 11
-64.26708337372047
 21
-9.040240378565686
  0
LINE
  8
0
 10
-64.26708337372047
 20
-9.040240378565686
 11
-64.36352246715133
 21
-9.152551039673607
  0
LINE
  8
0
 10
-64.36352246715133
 20
-9.152551039673607
 11
-64.5695097372484
 21
-9.267206314379763
  0
LINE
  8
0
 10
-64.5695097372484
 20
-9.267206314379763
 11
-64.88521678149331
 21
-9.375716062856092
  0
LINE
  8
0
 10
-64.88521678149331
 20
-9.375716062856092
 11
-65.26379989311371
 21
-9.470505703878533
  0
LINE
  8
0
 10
-65.26379989311371
 20
-9.470505703878533
 11
-65.6146975806546
 21
-9.573254223428984
  0
LINE
  8
0
 10
-65.6146975806546
 20
-9.573254223428984
 11
-66.05816682844213
 21
-9.722369181381948
  0
LINE
  8
0
 10
-66.05816682844213
 20
-9.722369181381948
 11
-66.59094065519298
 21
-9.925274507571725
  0
LINE
  8
0
 10
-66.59094065519298
 20
-9.925274507571725
 11
-67.2093121586597
 21
-10.189202455007461
  0
LINE
  8
0
 10
-67.2093121586597
 20
-10.189202455007461
 11
-67.90914479255012
 21
-10.521170520598801
  0
LINE
  8
0
 10
-67.90914479255012
 20
-10.521170520598801
 11
-68.68588377644349
 21
-10.927958887745527
  0
LINE
  8
0
 10
-68.68588377644349
 20
-10.927958887745527
 11
-69.07128949358943
 21
-11.149628833523128
  0
LINE
  8
0
 10
-69.07128949358943
 20
-11.149628833523128
 11
-68.92387111392337
 21
-12.387303135082838
  0
LINE
  8
0
 10
-68.92387111392337
 20
-12.387303135082838
 11
-68.63110378549666
 21
-13.598854680338171
  0
LINE
  8
0
 10
-68.63110378549666
 20
-13.598854680338171
 11
-68.19263105108422
 21
-13.672453544776623
  0
LINE
  8
0
 10
-68.19263105108422
 20
-13.672453544776623
 11
-67.322856281297
 21
-13.783323173563296
  0
LINE
  8
0
 10
-67.322856281297
 20
-13.783323173563296
 11
-66.55122758743317
 21
-13.850833697466346
  0
LINE
  8
0
 10
-66.55122758743317
 20
-13.850833697466346
 11
-65.87965383926536
 21
-13.88292697570239
  0
LINE
  8
0
 10
-65.87965383926536
 20
-13.88292697570239
 11
-65.30956921271387
 21
-13.887621700030229
  0
LINE
  8
0
 10
-65.30956921271387
 20
-13.887621700030229
 11
-64.84193034850179
 21
-13.872988276039498
  0
LINE
  8
0
 10
-64.84193034850179
 20
-13.872988276039498
 11
-64.47721475460789
 21
-13.847123609746799
  0
LINE
  8
0
 10
-64.47721475460789
 20
-13.847123609746799
 11
-64.0893175943765
 21
-13.804158024299158
  0
LINE
  8
0
 10
-64.0893175943765
 20
-13.804158024299158
 11
-63.75558433206288
 21
-13.795947486821785
  0
LINE
  8
0
 10
-63.75558433206288
 20
-13.795947486821785
 11
-63.522564660966594
 21
-13.83170249125542
  0
LINE
  8
0
 10
-63.522564660966594
 20
-13.83170249125542
 11
-63.393054002808036
 21
-13.903404463082532
  0
LINE
  8
0
 10
-63.393054002808036
 20
-13.903404463082532
 11
-62.74678099056469
 21
-16.577859535811506
  0
LINE
  8
0
 10
-62.74678099056469
 20
-16.577859535811506
 11
-62.829259849240714
 21
-16.700788056553304
  0
LINE
  8
0
 10
-62.829259849240714
 20
-16.700788056553304
 11
-63.02024067156417
 21
-16.839001344498566
  0
LINE
  8
0
 10
-63.02024067156417
 20
-16.839001344498566
 11
-63.320898006349495
 21
-16.984089146673803
  0
LINE
  8
0
 10
-63.320898006349495
 20
-16.984089146673803
 11
-63.685612808044304
 21
-17.122989693375615
  0
LINE
  8
0
 10
-63.685612808044304
 20
-17.122989693375615
 11
-64.02189518519256
 21
-17.266518813107023
  0
LINE
  8
0
 10
-64.02189518519256
 20
-17.266518813107023
 11
-64.444615466
 21
-17.46703766162911
  0
LINE
  8
0
 10
-64.444615466
 20
-17.46703766162911
 11
-64.9496515480891
 21
-17.731531664689754
  0
LINE
  8
0
 10
-64.9496515480891
 20
-17.731531664689754
 11
-65.53246716610701
 21
-18.066743885725504
  0
LINE
  8
0
 10
-65.53246716610701
 20
-18.066743885725504
 11
-66.18812482617142
 21
-18.479153324062352
  0
LINE
  8
0
 10
-66.18812482617142
 20
-18.479153324062352
 11
-66.9112998036379
 21
-18.974953865320565
  0
LINE
  8
0
 10
-66.9112998036379
 20
-18.974953865320565
 11
-67.26778278767428
 21
-19.240651087290136
  0
LINE
  8
0
 10
-67.26778278767428
 20
-19.240651087290136
 11
-66.97501545924756
 21
-20.452202632545493
  0
LINE
  8
0
 10
-66.97501545924756
 20
-20.452202632545493
 11
-66.54100899359742
 21
-21.6206238935548
  0
LINE
  8
0
 10
-66.54100899359742
 20
-21.6206238935548
 11
-66.0969090861352
 21
-21.641846613968735
  0
LINE
  8
0
 10
-66.0969090861352
 20
-21.641846613968735
 11
-65.22012627939151
 21
-21.649067039465802
  0
LINE
  8
0
 10
-65.22012627939151
 20
-21.649067039465802
 11
-64.44592888951053
 21
-21.624840741086306
  0
LINE
  8
0
 10
-64.44592888951053
 20
-21.624840741086306
 11
-63.77527307921873
 21
-21.57727960298045
  0
LINE
  8
0
 10
-63.77527307921873
 20
-21.57727960298045
 11
-63.20863456199231
 21
-21.514515659013217
  0
LINE
  8
0
 10
-63.20863456199231
 20
-21.514515659013217
 11
-62.7460087515253
 21
-21.444675814304045
  0
LINE
  8
0
 10
-62.7460087515253
 20
-21.444675814304045
 11
-62.38691215746458
 21
-21.375856619846395
  0
LINE
  8
0
 10
-62.38691215746458
 20
-21.375856619846395
 11
-62.006819286188865
 21
-21.287314778585777
  0
LINE
  8
0
 10
-62.006819286188865
 20
-21.287314778585777
 11
-61.676399551902946
 21
-21.239690178906866
  0
LINE
  8
0
 10
-61.676399551902946
 20
-21.239690178906866
 11
-61.440786565754365
 21
-21.24763424700974
  0
LINE
  8
0
 10
-61.440786565754365
 20
-21.24763424700974
 11
-61.303704510901355
 21
-21.30351531337243
  0
LINE
  8
0
 10
-61.303704510901355
 20
-21.30351531337243
 11
-60.3456513449416
 21
-23.88276188429083
  0
LINE
  8
0
 10
-60.3456513449416
 20
-23.88276188429083
 11
-60.413012146482856
 21
-24.01458261769793
  0
LINE
  8
0
 10
-60.413012146482856
 20
-24.01458261769793
 11
-60.58630556892241
 21
-24.174413707286813
  0
LINE
  8
0
 10
-60.58630556892241
 20
-24.174413707286813
 11
-60.867692624316774
 21
-24.3540428484548
  0
LINE
  8
0
 10
-60.867692624316774
 20
-24.3540428484548
 11
-61.2134193197349
 21
-24.535104441634044
  0
LINE
  8
0
 10
-61.2134193197349
 20
-24.535104441634044
 11
-61.53036571905541
 21
-24.717399327325094
  0
LINE
  8
0
 10
-61.53036571905541
 20
-24.717399327325094
 11
-61.92640296675452
 21
-24.966507221325788
  0
LINE
  8
0
 10
-61.92640296675452
 20
-24.966507221325788
 11
-62.396611704642055
 21
-25.288876985232324
  0
LINE
  8
0
 10
-62.396611704642055
 20
-25.288876985232324
 11
-62.93568998348179
 21
-25.690667835079008
  0
LINE
  8
0
 10
-62.93568998348179
 20
-25.690667835079008
 11
-63.53796867339221
 21
-26.177729321659754
  0
LINE
  8
0
 10
-63.53796867339221
 20
-26.177729321659754
 11
-64.1974278529673
 21
-26.755582084238377
  0
LINE
  8
0
 10
-64.1974278529673
 20
-26.755582084238377
 11
-64.51998386421849
 21
-27.06157677581894
  0
LINE
  8
0
 10
-64.51998386421849
 20
-27.06157677581894
 11
-64.08597739856835
 21
-28.22999803682824
  0
LINE
  8
0
 10
-64.08597739856835
 20
-28.22999803682824
 11
-63.51682429511864
 21
-29.338886940297932
  0
LINE
  8
0
 10
-63.51682429511864
 20
-29.338886940297932
 11
-63.073331403828405
 21
-29.307435596213534
  0
LINE
  8
0
 10
-63.073331403828405
 20
-29.307435596213534
 11
-62.20184866880332
 21
-29.210905459474386
  0
LINE
  8
0
 10
-62.20184866880332
 20
-29.210905459474386
 11
-61.435950617197534
 21
-29.0952824229369
  0
LINE
  8
0
 10
-61.435950617197534
 20
-29.0952824229369
 11
-60.775627282262555
 21
-28.968734522612845
  0
LINE
  8
0
 10
-60.775627282262555
 20
-28.968734522612845
 11
-60.220389237056125
 21
-28.83939297854358
  0
LINE
  8
0
 10
-60.220389237056125
 20
-28.83939297854358
 11
-59.76927073262487
 21
-28.715327111444854
  0
LINE
  8
0
 10
-59.76927073262487
 20
-28.715327111444854
 11
-59.42083406742849
 21
-28.60451945945891
  0
LINE
  8
0
 10
-59.42083406742849
 20
-28.60451945945891
 11
-59.053881155847314
 21
-28.471644295750497
  0
LINE
  8
0
 10
-59.053881155847314
 20
-28.471644295750497
 11
-58.73141331836947
 21
-28.38527417885514
  0
LINE
  8
0
 10
-58.73141331836947
 20
-28.38527417885514
 11
-58.4965145070241
 21
-28.365295793324687
  0
LINE
  8
0
 10
-58.4965145070241
 20
-28.365295793324687
 11
-58.35378538703918
 21
-28.404571506544034
  0
LINE
  8
0
 10
-58.35378538703918
 20
-28.404571506544034
 11
-57.09740103373467
 21
-30.85240260757438
  0
LINE
  8
0
 10
-57.09740103373467
 20
-30.85240260757438
 11
-57.14869818014422
 21
-30.991265079504355
  0
LINE
  8
0
 10
-57.14869818014422
 20
-30.991265079504355
 11
-57.301871542912686
 21
-31.17047029259311
  0
LINE
  8
0
 10
-57.301871542912686
 20
-31.17047029259311
 11
-57.560038261466374
 21
-31.382119173363776
  0
LINE
  8
0
 10
-57.560038261466374
 20
-31.382119173363776
 11
-57.88192360564641
 21
-31.60280010514412
  0
LINE
  8
0
 10
-57.88192360564641
 20
-31.60280010514412
 11
-58.17508479444781
 21
-31.821301736195025
  0
LINE
  8
0
 10
-58.17508479444781
 20
-31.821301736195025
 11
-58.53887951420524
 21
-32.1155017468938
  0
LINE
  8
0
 10
-58.53887951420524
 20
-32.1155017468938
 11
-58.96766020792153
 21
-32.49122190680422
  0
LINE
  8
0
 10
-58.96766020792153
 20
-32.49122190680422
 11
-59.455433670222334
 21
-32.953951122666396
  0
LINE
  8
0
 10
-59.455433670222334
 20
-32.953951122666396
 11
-59.99587871738359
 21
-33.508827381871384
  0
LINE
  8
0
 10
-59.99587871738359
 20
-33.508827381871384
 11
-60.582364737738395
 21
-34.160620579652694
  0
LINE
  8
0
 10
-60.582364737738395
 20
-34.160620579652694
 11
-60.86646579685803
 21
-34.50261724612312
  0
LINE
  8
0
 10
-60.86646579685803
 20
-34.50261724612312
 11
-60.29731269340831
 21
-35.611506149592806
  0
LINE
  8
0
 10
-60.29731269340831
 20
-35.611506149592806
 11
-59.601002614132426
 21
-36.64529632603264
  0
LINE
  8
0
 10
-59.601002614132426
 20
-36.64529632603264
 11
-59.164342407059436
 21
-36.56161242537862
  0
LINE
  8
0
 10
-59.164342407059436
 20
-36.56161242537862
 11
-58.310393451038976
 21
-36.36268679792641
  0
LINE
  8
0
 10
-58.310393451038976
 20
-36.36268679792641
 11
-57.563546267483694
 21
-36.157290117215084
  0
LINE
  8
0
 10
-57.563546267483694
 20
-36.157290117215084
 11
-56.92282490008142
 21
-35.95353190979696
  0
LINE
  8
0
 10
-56.92282490008142
 20
-35.95353190979696
 11
-56.38678165195287
 21
-35.759428437384244
  0
LINE
  8
0
 10
-56.38678165195287
 20
-35.759428437384244
 11
-55.953503168495615
 21
-35.58287816071429
  0
LINE
  8
0
 10
-55.953503168495615
 20
-35.58287816071429
 11
-55.62061771916035
 21
-35.43163754774056
  0
LINE
  8
0
 10
-55.62061771916035
 20
-35.43163754774056
 11
-55.271955981781616
 21
-35.25629433761687
  0
LINE
  8
0
 10
-55.271955981781616
 20
-35.25629433761687
 11
-54.961966782691825
 21
-35.13239115062064
  0
LINE
  8
0
 10
-54.961966782691825
 20
-35.13239115062064
 11
-54.7310796105564
 21
-35.08477076419656
  0
LINE
  8
0
 10
-54.7310796105564
 20
-35.08477076419656
 11
-54.58470702941808
 21
-35.10688977935238
  0
LINE
  8
0
 10
-54.58470702941808
 20
-35.10688977935238
 11
-53.04762837106074
 21
-37.38894322754816
  0
LINE
  8
0
 10
-53.04762837106074
 20
-37.38894322754816
 11
-53.08214176284772
 21
-37.532898113285405
  0
LINE
  8
0
 10
-53.08214176284772
 20
-37.532898113285405
 11
-53.21304484769198
 21
-37.728961801504916
  0
LINE
  8
0
 10
-53.21304484769198
 20
-37.728961801504916
 11
-53.44436713458494
 21
-37.96965933553232
  0
LINE
  8
0
 10
-53.44436713458494
 20
-37.96965933553232
 11
-53.73789256287597
 21
-38.22686172937014
  0
LINE
  8
0
 10
-53.73789256287597
 20
-38.22686172937014
 11
-54.00315320068473
 21
-38.478502821842426
  0
LINE
  8
0
 10
-54.00315320068473
 20
-38.478502821842426
 11
-54.32959851208295
 21
-38.81366502598345
  0
LINE
  8
0
 10
-54.32959851208295
 20
-38.81366502598345
 11
-54.7109320205871
 21
-39.23746129444136
  0
LINE
  8
0
 10
-54.7109320205871
 20
-39.23746129444136
 11
-55.140553396150885
 21
-39.75463317244326
  0
LINE
  8
0
 10
-55.140553396150885
 20
-39.75463317244326
 11
-55.61157813677099
 21
-40.369534957897024
  0
LINE
  8
0
 10
-55.61157813677099
 20
-40.369534957897024
 11
-56.11685801977293
 21
-41.08611884313248
  0
LINE
  8
0
 10
-56.11685801977293
 20
-41.08611884313248
 11
-56.35851597064814
 21
-41.45931660096142
  0
LINE
  8
0
 10
-56.35851597064814
 20
-41.45931660096142
 11
-55.66220589137223
 21
-42.49310677740128
  0
LINE
  8
0
 10
-55.66220589137223
 20
-42.49310677740128
 11
-54.848513503452736
 21
-43.43728607883005
  0
LINE
  8
0
 10
-54.848513503452736
 20
-43.43728607883005
 11
-54.42481573273332
 21
-43.30254436013424
  0
LINE
  8
0
 10
-54.42481573273332
 20
-43.30254436013424
 11
-53.600388127180835
 21
-43.00401572172804
  0
LINE
  8
0
 10
-53.600388127180835
 20
-43.00401572172804
 11
-52.88307590902395
 21
-42.711728716005
  0
LINE
  8
0
 10
-52.88307590902395
 20
-42.711728716005
 11
-52.27095083267415
 21
-42.43362052008146
  0
LINE
  8
0
 10
-52.27095083267415
 20
-42.43362052008146
 11
-51.761627253805926
 21
-42.177479906597895
  0
LINE
  8
0
 10
-51.761627253805926
 20
-42.177479906597895
 11
-51.35227107147227
 21
-41.95092359923819
  0
LINE
  8
0
 10
-51.35227107147227
 20
-41.95092359923819
 11
-51.03960982001288
 21
-41.761373111959315
  0
LINE
  8
0
 10
-51.03960982001288
 20
-41.761373111959315
 11
-50.71413370335342
 21
-41.54602328973343
  0
LINE
  8
0
 10
-50.71413370335342
 20
-41.54602328973343
 11
-50.4209747115022
 21
-41.38632636178263
  0
LINE
  8
0
 10
-50.4209747115022
 20
-41.38632636178263
 11
-50.19734032836258
 21
-41.31173246030513
  0
LINE
  8
0
 10
-50.19734032836258
 20
-41.31173246030513
 11
-50.049379036257385
 21
-41.31638427491012
  0
LINE
  8
0
 10
-50.049379036257385
 20
-41.31638427491012
 11
-48.25318328789257
 21
-43.4006250421815
  0
LINE
  8
0
 10
-48.25318328789257
 20
-43.4006250421815
 11
-48.270428432690586
 21
-43.547651530683275
  0
LINE
  8
0
 10
-48.270428432690586
 20
-43.547651530683275
 11
-48.37722364724253
 21
-43.757821389627864
  0
LINE
  8
0
 10
-48.37722364724253
 20
-43.757821389627864
 11
-48.57845424463147
 21
-44.024188711149755
  0
LINE
  8
0
 10
-48.57845424463147
 20
-44.024188711149755
 11
-48.839499303435986
 21
-44.31430200923017
  0
LINE
  8
0
 10
-48.839499303435986
 20
-44.31430200923017
 11
-49.07313571235575
 21
-44.5955500737896
  0
LINE
  8
0
 10
-49.07313571235575
 20
-44.5955500737896
 11
-49.35764903879968
 21
-44.96696952871134
  0
LINE
  8
0
 10
-49.35764903879968
 20
-44.96696952871134
 11
-49.68618227552565
 21
-45.43289273508047
  0
LINE
  8
0
 10
-49.68618227552565
 20
-45.43289273508047
 11
-50.05162062198117
 21
-45.99724731570969
  0
LINE
  8
0
 10
-50.05162062198117
 20
-45.99724731570969
 11
-50.446612901200766
 21
-46.663542754225794
  0
LINE
  8
0
 10
-50.446612901200766
 20
-46.663542754225794
 11
-50.86359362487968
 21
-47.43485805993794
  0
LINE
  8
0
 10
-50.86359362487968
 20
-47.43485805993794
 11
-51.05941611960097
 21
-47.8340180306651
  0
LINE
  8
0
 10
-51.05941611960097
 20
-47.8340180306651
 11
-50.245723731681444
 21
-48.778197332093875
  0
LINE
  8
0
 10
-50.245723731681444
 20
-48.778197332093875
 11
-49.32607149260896
 21
-49.61951155078607
  0
LINE
  8
0
 10
-49.32607149260896
 20
-49.61951155078607
 11
-48.92128394618706
 21
-49.43560349242144
  0
LINE
  8
0
 10
-48.92128394618706
 20
-49.43560349242144
 11
-48.13795084751688
 21
-49.04166253076163
  0
LINE
  8
0
 10
-48.13795084751688
 20
-49.04166253076163
 11
-47.46024308593355
 21
-48.6665882688862
  0
LINE
  8
0
 10
-47.46024308593355
 20
-48.6665882688862
 11
-46.885307194913466
 21
-48.31803411390733
  0
LINE
  8
0
 10
-46.885307194913466
 20
-48.31803411390733
 11
-46.40985307190182
 21
-48.00345201209908
  0
LINE
  8
0
 10
-46.40985307190182
 20
-48.00345201209908
 11
-46.030165654171896
 21
-47.730070027987395
  0
LINE
  8
0
 10
-46.030165654171896
 20
-47.730070027987395
 11
-45.74211767919696
 21
-47.50487053974498
  0
LINE
  8
0
 10
-45.74211767919696
 20
-47.50487053974498
 11
-45.444396154482234
 21
-47.25253714486832
  0
LINE
  8
0
 10
-45.444396154482234
 20
-47.25253714486832
 11
-45.17218267950273
 21
-47.05928827077138
  0
LINE
  8
0
 10
-45.17218267950273
 20
-47.05928827077138
 11
-44.958940421885586
 21
-46.95876798910537
  0
LINE
  8
0
 10
-44.958940421885586
 20
-46.95876798910537
 11
-44.811467471019526
 21
-46.94588730187938
  0
LINE
  8
0
 10
-44.811467471019526
 20
-46.94588730187938
 11
-42.78136928364465
 21
-48.803057216565996
  0
LINE
  8
0
 10
-42.78136928364465
 20
-48.803057216565996
 11
-42.78110409742255
 21
-48.95109137821976
  0
LINE
  8
0
 10
-42.78110409742255
 20
-48.95109137821976
 11
-42.86229227096786
 21
-49.17241708376785
  0
LINE
  8
0
 10
-42.86229227096786
 20
-49.17241708376785
 11
-43.03060634236837
 21
-49.460714979474425
  0
LINE
  8
0
 10
-43.03060634236837
 20
-49.460714979474425
 11
-43.25550653127856
 21
-49.77966662702858
  0
LINE
  8
0
 10
-43.25550653127856
 20
-49.77966662702858
 11
-43.45423896826543
 21
-50.086573557352104
  0
LINE
  8
0
 10
-43.45423896826543
 20
-50.086573557352104
 11
-43.692826366312694
 21
-50.48903634806895
  0
LINE
  8
0
 10
-43.692826366312694
 20
-50.48903634806895
 11
-43.96394744477059
 21
-50.99054595184814
  0
LINE
  8
0
 10
-43.96394744477059
 20
-50.99054595184814
 11
-44.260072808784344
 21
-51.59416093387315
  0
LINE
  8
0
 10
-44.260072808784344
 20
-51.59416093387315
 11
-44.57348780083696
 21
-52.30249669803243
  0
LINE
  8
0
 10
-44.57348780083696
 20
-52.30249669803243
 11
-44.89631586986539
 21
-53.11771584807307
  0
LINE
  8
0
 10
-44.89631586986539
 20
-53.11771584807307
 11
-45.04355398985506
 21
-53.53723470067888
  0
LINE
  8
0
 10
-45.04355398985506
 20
-53.53723470067888
 11
-44.123901750782565
 21
-54.378548919371084
  0
LINE
  8
0
 10
-44.123901750782565
 20
-54.378548919371084
 11
-43.1111995620911
 21
-55.10518784787976
  0
LINE
  8
0
 10
-43.1111995620911
 20
-55.10518784787976
 11
-42.73100456981325
 21
-54.87469511585436
  0
LINE
  8
0
 10
-42.73100456981325
 20
-54.87469511585436
 11
-41.99976225764339
 21
-54.39087189851339
  0
LINE
  8
0
 10
-41.99976225764339
 20
-54.39087189851339
 11
-41.3711724840525
 21
-53.93827560094938
  0
LINE
  8
0
 10
-41.3711724840525
 20
-53.93827560094938
 11
-40.84149661799705
 21
-53.52416842321096
  0
LINE
  8
0
 10
-40.84149661799705
 20
-53.52416842321096
 11
-40.40658628452076
 21
-53.15556087621495
  0
LINE
  8
0
 10
-40.40658628452076
 20
-53.15556087621495
 11
-40.06189761045443
 21
-52.8391908991475
  0
LINE
  8
0
 10
-40.06189761045443
 20
-52.8391908991475
 11
-39.80250647412363
 21
-52.5815037171131
  0
LINE
  8
0
 10
-39.80250647412363
 20
-52.5815037171131
 11
-39.53671889894701
 21
-52.29572895732811
  0
LINE
  8
0
 10
-39.53671889894701
 20
-52.29572895732811
 11
-39.289272221328645
 21
-52.0716409276706
  0
LINE
  8
0
 10
-39.289272221328645
 20
-52.0716409276706
 11
-39.08941554309813
 21
-51.94660535022749
  0
LINE
  8
0
 10
-39.08941554309813
 20
-51.94660535022749
 11
-38.944501130436656
 21
-51.91637297778436
  0
LINE
  8
0
 10
-38.944501130436656
 20
-51.91637297778436
 11
-36.708998632572346
 21
-53.520401445250656
  0
LINE
  8
0
 10
-36.708998632572346
 20
-53.520401445250656
 11
-36.691226837963406
 21
-53.66736520492169
  0
LINE
  8
0
 10
-36.691226837963406
 20
-53.66736520492169
 11
-36.74566826651219
 21
-53.896739829319316
  0
LINE
  8
0
 10
-36.74566826651219
 20
-53.896739829319316
 11
-36.87870305131079
 21
-54.202921228711645
  0
LINE
  8
0
 10
-36.87870305131079
 20
-54.202921228711645
 11
-37.064301264661644
 21
-54.54623384375851
  0
LINE
  8
0
 10
-37.064301264661644
 20
-54.54623384375851
 11
-37.225339961927205
 21
-54.874491339292675
  0
LINE
  8
0
 10
-37.225339961927205
 20
-54.874491339292675
 11
-37.41465218749924
 21
-55.30234777043227
  0
LINE
  8
0
 10
-37.41465218749924
 20
-55.30234777043227
 11
-37.62455516205225
 21
-55.83240367610707
  0
LINE
  8
0
 10
-37.62455516205225
 20
-55.83240367610707
 11
-37.84721059262828
 21
-56.4668056283206
  0
LINE
  8
0
 10
-37.84721059262828
 20
-56.4668056283206
 11
-38.07464863803963
 21
-57.207238236685406
  0
LINE
  8
0
 10
-38.07464863803963
 20
-57.207238236685406
 11
-38.29879225397627
 21
-58.05491734117038
  0
LINE
  8
0
 10
-38.29879225397627
 20
-58.05491734117038
 11
-38.39537909877958
 21
-58.48890595056089
  0
LINE
  8
0
 10
-38.39537909877958
 20
-58.48890595056089
 11
-37.38267691008817
 21
-59.215544879069554
  0
LINE
  8
0
 10
-37.38267691008817
 20
-59.215544879069554
 11
-36.291140890636484
 21
-59.81730809965072
  0
LINE
  8
0
 10
-36.291140890636484
 20
-59.81730809965072
 11
-35.940875556796506
 21
-59.54346630667581
  0
LINE
  8
0
 10
-35.940875556796506
 20
-59.54346630667581
 11
-35.27198907028692
 21
-58.976552651071586
  0
LINE
  8
0
 10
-35.27198907028692
 20
-58.976552651071586
 11
-34.70134130722391
 21
-58.452787777733484
  0
LINE
  8
0
 10
-34.70134130722391
 20
-58.452787777733484
 11
-34.224360954228686
 21
-57.978940734276826
  0
LINE
  8
0
 10
-34.224360954228686
 20
-57.978940734276826
 11
-33.83609959803456
 21
-57.56148218405516
  0
LINE
  8
0
 10
-33.83609959803456
 20
-57.56148218405516
 11
-33.531248341048816
 21
-57.206565355018455
  0
LINE
  8
0
 10
-33.531248341048816
 20
-57.206565355018455
 11
-33.30415532632388
 21
-56.92000784237056
  0
LINE
  8
0
 10
-33.30415532632388
 20
-56.92000784237056
 11
-33.07403277562727
 21
-56.60480336887862
  0
LINE
  8
0
 10
-33.07403277562727
 20
-56.60480336887862
 11
-32.854826504314
 21
-56.35302188838992
  0
LINE
  8
0
 10
-32.854826504314
 20
-56.35302188838992
 11
-32.67116095514122
 21
-56.20522624059563
  0
LINE
  8
0
 10
-32.67116095514122
 20
-56.20522624059563
 11
-32.5308393613818
 21
-56.158066579174296
  0
LINE
  8
0
 10
-32.5308393613818
 20
-56.158066579174296
 11
-30.121314107816165
 21
-57.48643655581081
  0
LINE
  8
0
 10
-30.121314107816165
 20
-57.48643655581081
 11
-30.086285181860436
 21
-57.630266864461845
  0
LINE
  8
0
 10
-30.086285181860436
 20
-57.630266864461845
 11
-30.113215627092945
 21
-57.86447049077785
  0
LINE
  8
0
 10
-30.113215627092945
 20
-57.86447049077785
 11
-30.209103608526902
 21
-58.18423727816638
  0
LINE
  8
0
 10
-30.209103608526902
 20
-58.18423727816638
 11
-30.352794454239294
 21
-58.547091504141214
  0
LINE
  8
0
 10
-30.352794454239294
 20
-58.547091504141214
 11
-30.4738787814751
 21
-58.89209154919803
  0
LINE
  8
0
 10
-30.4738787814751
 20
-58.89209154919803
 11
-30.611258305902407
 21
-59.339335454340045
  0
LINE
  8
0
 10
-30.611258305902407
 20
-59.339335454340045
 11
-30.75699659890079
 21
-59.89049683889166
  0
LINE
  8
0
 10
-30.75699659890079
 20
-59.89049683889166
 11
-30.903056501860547
 21
-60.54678014851085
  0
LINE
  8
0
 10
-30.903056501860547
 20
-60.54678014851085
 11
-31.0413248690234
 21
-61.30891555030804
  0
LINE
  8
0
 10
-31.0413248690234
 20
-61.30891555030804
 11
-31.163637546829385
 21
-62.177155052745896
  0
LINE
  8
0
 10
-31.163637546829385
 20
-62.177155052745896
 11
-31.20821724886632
 21
-62.61952117016007
  0
LINE
  8
0
 10
-31.20821724886632
 20
-62.61952117016007
 11
-30.116681229414603
 21
-63.221284390741154
  0
LINE
  8
0
 10
-30.116681229414603
 20
-63.221284390741154
 11
-28.961634152239203
 21
-63.68972446685894
  0
LINE
  8
0
 10
-28.961634152239203
 20
-63.68972446685894
 11
-28.646215434333204
 21
-63.37637775143939
  0
LINE
  8
0
 10
-28.646215434333204
 20
-63.37637775143939
 11
-28.049074473537214
 21
-62.73433188260654
  0
LINE
  8
0
 10
-28.049074473537214
 20
-62.73433188260654
 11
-27.544379364720175
 21
-62.146750944209245
  0
LINE
  8
0
 10
-27.544379364720175
 20
-62.146750944209245
 11
-27.126790283387383
 21
-61.619815808838936
  0
LINE
  8
0
 10
-27.126790283387383
 20
-61.619815808838936
 11
-26.790628242837
 21
-61.15936645835631
  0
LINE
  8
0
 10
-26.790628242837
 20
-61.15936645835631
 11
-26.529893846337718
 21
-60.770885031642734
  0
LINE
  8
0
 10
-26.529893846337718
 20
-60.770885031642734
 11
-26.338286841351344
 21
-60.459479827717104
  0
LINE
  8
0
 10
-26.338286841351344
 20
-60.459479827717104
 11
-26.147059731311703
 21
-60.11927042038931
  0
LINE
  8
0
 10
-26.147059731311703
 20
-60.11927042038931
 11
-25.959171041846677
 21
-59.84332994914367
  0
LINE
  8
0
 10
-25.959171041846677
 20
-59.84332994914367
 11
-25.794274883442174
 21
-59.67484895792119
  0
LINE
  8
0
 10
-25.794274883442174
 20
-59.67484895792119
 11
-25.660515916172468
 21
-59.611424025792736
  0
LINE
  8
0
 10
-25.660515916172468
 20
-59.611424025792736
 11
-23.110792359721078
 21
-60.64548810895041
  0
LINE
  8
0
 10
-23.110792359721078
 20
-60.64548810895041
 11
-23.058998031754623
 21
-60.78416590432792
  0
LINE
  8
0
 10
-23.058998031754623
 20
-60.78416590432792
 11
-23.058039449252053
 21
-61.0199108270295
  0
LINE
  8
0
 10
-23.058039449252053
 20
-61.0199108270295
 11
-23.11543457025109
 21
-61.348774177656715
  0
LINE
  8
0
 10
-23.11543457025109
 20
-61.348774177656715
 11
-23.215200943825426
 21
-61.72607633661313
  0
LINE
  8
0
 10
-23.215200943825426
 20
-61.72607633661313
 11
-23.294631142497217
 21
-62.08297588680942
  0
LINE
  8
0
 10
-23.294631142497217
 20
-62.08297588680942
 11
-23.37814945839646
 21
-62.543328941896384
  0
LINE
  8
0
 10
-23.37814945839646
 20
-62.543328941896384
 11
-23.457677223668803
 21
-63.10785870764636
  0
LINE
  8
0
 10
-23.457677223668803
 20
-63.10785870764636
 11
-23.52509123814198
 21
-63.776810595594924
  0
LINE
  8
0
 10
-23.52509123814198
 20
-63.776810595594924
 11
-23.57224894226936
 21
-64.54995008040467
  0
LINE
  8
0
 10
-23.57224894226936
 20
-64.54995008040467
 11
-23.591013680060986
 21
-65.42656180138565
  0
LINE
  8
0
 10
-23.591013680060986
 20
-65.42656180138565
 11
-23.582960438034796
 21
-65.87109557621338
  0
LINE
  8
0
 10
-23.582960438034796
 20
-65.87109557621338
 11
-22.42791336085931
 21
-66.33953565233121
  0
LINE
  8
0
 10
-22.42791336085931
 20
-66.33953565233121
 11
-21.225569555029395
 21
-66.66807671215035
  0
LINE
  8
0
 10
-21.225569555029395
 20
-66.66807671215035
 11
-20.949425240450392
 21
-66.31962377530613
  0
LINE
  8
0
 10
-20.949425240450392
 20
-66.31962377530613
 11
-20.432412355508454
 21
-65.61145860986116
  0
LINE
  8
0
 10
-20.432412355508454
 20
-65.61145860986116
 11
-20.000754713959846
 21
-64.96830995478648
  0
LINE
  8
0
 10
-20.000754713959846
 20
-64.96830995478648
 11
-19.64841893962486
 21
-64.39568374174708
  0
LINE
  8
0
 10
-19.64841893962486
 20
-64.39568374174708
 11
-19.369075192891266
 21
-63.89870729056682
  0
LINE
  8
0
 10
-19.369075192891266
 20
-63.89870729056682
 11
-19.156117796268457
 21
-63.482114693845645
  0
LINE
  8
0
 10
-19.156117796268457
 20
-63.482114693845645
 11
-19.00268654336292
 21
-63.15023324509677
  0
LINE
  8
0
 10
-19.00268654336292
 20
-63.15023324509677
 11
-18.853039283430196
 21
-62.789794698263805
  0
LINE
  8
0
 10
-18.853039283430196
 20
-62.789794698263805
 11
-18.69910572115643
 21
-62.49356883560853
  0
LINE
  8
0
 10
-18.69910572115643
 20
-62.49356883560853
 11
-18.555293734127364
 21
-62.30676760475974
  0
LINE
  8
0
 10
-18.555293734127364
 20
-62.30676760475974
 11
-18.42997507604456
 21
-62.227967748942085
  0
LINE
  8
0
 10
-18.42997507604456
 20
-62.227967748942085
 11
-15.775845746377023
 21
-62.95320994558979
  0
LINE
  8
0
 10
-15.775845746377023
 20
-62.95320994558979
 11
-15.708013095229926
 21
-63.08478849543216
  0
LINE
  8
0
 10
-15.708013095229926
 20
-63.08478849543216
 11
-15.67917894138938
 21
-63.31876537256382
  0
LINE
  8
0
 10
-15.67917894138938
 20
-63.31876537256382
 11
-15.697275500266322
 21
-63.65210876586429
  0
LINE
  8
0
 10
-15.697275500266322
 20
-63.65210876586429
 11
-15.751716900508208
 21
-64.03856236254705
  0
LINE
  8
0
 10
-15.751716900508208
 20
-64.03856236254705
 11
-15.788377944739771
 21
-64.40235133053152
  0
LINE
  8
0
 10
-15.788377944739771
 20
-64.40235133053152
 11
-15.816862638030129
 21
-64.86935118777637
  0
LINE
  8
0
 10
-15.816862638030129
 20
-64.86935118777637
 11
-15.829063480079022
 21
-65.43932457427809
  0
LINE
  8
0
 10
-15.829063480079022
 20
-65.43932457427809
 11
-15.816885261075754
 21
-66.11155442240984
  0
LINE
  8
0
 10
-15.816885261075754
 20
-66.11155442240984
 11
-15.772270311372683
 21
-66.88484480660807
  0
LINE
  8
0
 10
-15.772270311372683
 20
-66.88484480660807
 11
-15.68722369336416
 21
-67.75752303912616
  0
LINE
  8
0
 10
-15.68722369336416
 20
-67.75752303912616
 11
-15.626650557140021
 21
-68.19798419159903
  0
LINE
  8
0
 10
-15.626650557140021
 20
-68.19798419159903
 11
-14.42430675131012
 21
-68.52652525141815
  0
LINE
  8
0
 10
-14.42430675131012
 20
-68.52652525141815
 11
-13.19154448828938
 21
-68.71055529862963
  0
LINE
  8
0
 10
-13.19154448828938
 20
-68.71055529862963
 11
-12.958551037898246
 21
-68.33188765577574
  0
LINE
  8
0
 10
-12.958551037898246
 20
-68.33188765577574
 11
-12.528923956408718
 21
-67.56754428032431
  0
LINE
  8
0
 10
-12.528923956408718
 20
-67.56754428032431
 11
-12.176363309210668
 21
-66.87785630589025
  0
LINE
  8
0
 10
-12.176363309210668
 20
-66.87785630589025
 11
-11.894226863815607
 21
-66.26757743200066
  0
LINE
  8
0
 10
-11.894226863815607
 20
-66.26757743200066
 11
-11.675622784773893
 21
-65.74105034011156
  0
LINE
  8
0
 10
-11.675622784773893
 20
-65.74105034011156
 11
-11.513431843067773
 21
-65.3021946202585
  0
LINE
  8
0
 10
-11.513431843067773
 20
-65.3021946202585
 11
-11.400330180708409
 21
-64.95449581473373
  0
LINE
  8
0
 10
-11.400330180708409
 20
-64.95449581473373
 11
-11.294363490381215
 21
-64.57888789550206
  0
LINE
  8
0
 10
-11.294363490381215
 20
-64.57888789550206
 11
-11.176545945086506
 21
-64.26653500321373
  0
LINE
  8
0
 10
-11.176545945086506
 20
-64.26653500321373
 11
-11.055836934491005
 21
-64.0640358125464
  0
LINE
  8
0
 10
-11.055836934491005
 20
-64.0640358125464
 11
-10.940717784852698
 21
-63.97096721028382
  0
LINE
  8
0
 10
-10.940717784852698
 20
-63.97096721028382
 11
-8.219440839834306
 21
-64.37720670973113
  0
LINE
  8
0
 10
-8.219440839834306
 20
-64.37720670973113
 11
-8.136522087237665
 21
-64.49983893962231
  0
LINE
  8
0
 10
-8.136522087237665
 20
-64.49983893962231
 11
-8.080217130373816
 21
-64.72876324871277
  0
LINE
  8
0
 10
-8.080217130373816
 20
-64.72876324871277
 11
-8.058761091110181
 21
-65.06190727414227
  0
LINE
  8
0
 10
-8.058761091110181
 20
-65.06190727414227
 11
-8.067113280097246
 21
-65.4520873471707
  0
LINE
  8
0
 10
-8.067113280097246
 20
-65.4520873471707
 11
-8.060490529189565
 21
-65.81765893326809
  0
LINE
  8
0
 10
-8.060490529189565
 20
-65.81765893326809
 11
-8.033541737216463
 21
-66.28474993835141
  0
LINE
  8
0
 10
-8.033541737216463
 20
-66.28474993835141
 11
-7.978244382964113
 21
-66.85216576865545
  0
LINE
  8
0
 10
-7.978244382964113
 20
-66.85216576865545
 11
-7.886644885984226
 21
-67.51823694344864
  0
LINE
  8
0
 10
-7.886644885984226
 20
-67.51823694344864
 11
-7.750883578547357
 21
-68.28082292511462
  0
LINE
  8
0
 10
-7.750883578547357
 20
-68.28082292511462
 11
-7.563219472831042
 21
-69.13731717971957
  0
LINE
  8
0
 10
-7.563219472831042
 20
-69.13731717971957
 11
-7.450976756463577
 21
-69.5675226007596
  0
LINE
  8
0
 10
-7.450976756463577
 20
-69.5675226007596
 11
-6.21821449344286
 21
-69.75155264797107
  0
LINE
  8
0
 10
-6.21821449344286
 20
-69.75155264797107
 11
-4.97233905315592
 21
-69.7884883041109
  0
LINE
  8
0
 10
-4.97233905315592
 20
-69.7884883041109
 11
-4.785767184268205
 21
-69.38492161890328
  0
LINE
  8
0
 10
-4.785767184268205
 20
-69.38492161890328
 11
-4.449556928701024
 21
-68.5751297389754
  0
LINE
  8
0
 10
-4.449556928701024
 20
-68.5751297389754
 11
-4.181042454517721
 21
-67.8485841525283
  0
LINE
  8
0
 10
-4.181042454517721
 20
-67.8485841525283
 11
-3.9730659153052144
 21
-67.2092195954302
  0
LINE
  8
0
 10
-3.9730659153052144
 20
-67.2092195954302
 11
-3.8182702260390795
 21
-66.66053314904072
  0
LINE
  8
0
 10
-3.8182702260390795
 20
-66.66053314904072
 11
-3.7091225445442695
 21
-66.20557487837894
  0
LINE
  8
0
 10
-3.7091225445442695
 20
-66.20557487837894
 11
-3.637938172148703
 21
-65.84693964514263
  0
LINE
  8
0
 10
-3.637938172148703
 20
-65.84693964514263
 11
-3.5771395914773882
 21
-65.46143506535557
  0
LINE
  8
0
 10
-3.5771395914773882
 20
-65.46143506535557
 11
-3.4970919632384265
 21
-65.13733989335594
  0
LINE
  8
0
 10
-3.4970919632384265
 20
-65.13733989335594
 11
-3.4011804189878316
 21
-64.92198538762334
  0
LINE
  8
0
 10
-3.4011804189878316
 20
-64.92198538762334
 11
-3.2978767983106576
 21
-64.81595451808269
  0
LINE
  8
0
 10
-3.2978767983106576
 20
-64.81595451808269
 11
-0.5476530011368368
 21
-64.89748860824533
  0
LINE
  8
0
 10
-0.5476530011368368
 20
-64.89748860824533
 11
-0.45081214461696484
 21
-65.0094530304908
  0
LINE
  8
0
 10
-0.45081214461696484
 20
-65.0094530304908
 11
-0.3678267829021953
 21
-65.23011117604872
  0
LINE
  8
0
 10
-0.3678267829021953
 20
-65.23011117604872
 11
-0.3071193412570272
 21
-65.55837922175094
  0
LINE
  8
0
 10
-0.3071193412570272
 20
-65.55837922175094
 11
-0.26926507256411053
 21
-65.94680849818496
  0
LINE
  8
0
 10
-0.26926507256411053
 20
-65.94680849818496
 11
-0.21945149542268644
 21
-66.30903087866929
  0
LINE
  8
0
 10
-0.21945149542268644
 20
-66.30903087866929
 11
-0.13744752015294295
 21
-66.76965609775583
  0
LINE
  8
0
 10
-0.13744752015294295
 20
-66.76965609775583
 11
-0.015428223239758995
 21
-67.32654909739556
  0
LINE
  8
0
 10
-0.015428223239758995
 20
-67.32654909739556
 11
0.1543066955677243
 21
-67.97711141960208
  0
LINE
  8
0
 10
0.1543066955677243
 20
-67.97711141960208
 11
0.37930856957443293
 21
-68.71828796316234
  0
LINE
  8
0
 10
0.37930856957443293
 20
-68.71828796316234
 11
0.6669557703190747
 21
-69.54657493797805
  0
LINE
  8
0
 10
0.6669557703190747
 20
-69.54657493797805
 11
0.8292924251311393
 21
-69.96048548649563
  0
LINE
  8
0
 10
0.8292924251311393
 20
-69.96048548649563
 11
2.0751678654181247
 21
-69.9974211426354
  0
LINE
  8
0
 10
2.0751678654181247
 20
-69.9974211426354
 11
3.3166671227822966
 21
-69.88674391205546
  0
LINE
  8
0
 10
3.3166671227822966
 20
-69.88674391205546
 11
3.454198350097978
 21
-69.46394337612536
  0
LINE
  8
0
 10
3.454198350097978
 20
-69.46394337612536
 11
3.692272124736617
 21
-68.6200706946295
  0
LINE
  8
0
 10
3.692272124736617
 20
-68.6200706946295
 11
3.872971071278623
 21
-67.86686660359555
  0
LINE
  8
0
 10
3.872971071278623
 20
-67.86686660359555
 11
4.0038681695882286
 21
-67.20739164016615
  0
LINE
  8
0
 10
4.0038681695882286
 20
-67.20739164016615
 11
4.092682476917824
 21
-66.64424819424812
  0
LINE
  8
0
 10
4.092682476917824
 20
-66.64424819424812
 11
4.147254704007805
 21
-66.17957398961686
  0
LINE
  8
0
 10
4.147254704007805
 20
-66.17957398961686
 11
4.175522513889207
 21
-65.81503678120554
  0
LINE
  8
0
 10
4.175522513889207
 20
-65.81503678120554
 11
4.190299506104151
 21
-65.42504718012684
  0
LINE
  8
0
 10
4.190299506104151
 20
-65.42504718012684
 11
4.231453524053456
 21
-65.0937593142054
  0
LINE
  8
0
 10
4.231453524053456
 20
-65.0937593142054
 11
4.301221214118561
 21
-64.8685725986051
  0
LINE
  8
0
 10
4.301221214118561
 20
-64.8685725986051
 11
4.391259149444625
 21
-64.75106790277222
  0
LINE
  8
0
 10
4.391259149444625
 20
-64.75106790277222
 11
7.131822685226465
 21
-64.50675202374924
  0
LINE
  8
0
 10
7.131822685226465
 20
-64.50675202374924
 11
7.2412262123218065
 21
-64.60647690328972
  0
LINE
  8
0
 10
7.2412262123218065
 20
-64.60647690328972
 11
7.349727046315179
 21
-64.81577132864005
  0
LINE
  8
0
 10
7.349727046315179
 20
-64.81577132864005
 11
7.448833690933535
 21
-65.13455523082577
  0
LINE
  8
0
 10
7.448833690933535
 20
-65.13455523082577
 11
7.5323630263515655
 21
-65.51578101507174
  0
LINE
  8
0
 10
7.5323630263515655
 20
-65.51578101507174
 11
7.624668156296377
 21
-65.86956938172224
  0
LINE
  8
0
 10
7.624668156296377
 20
-65.86956938172224
 11
7.760576158804904
 21
-66.31726264643893
  0
LINE
  8
0
 10
7.760576158804904
 20
-66.31726264643893
 11
7.94760451491986
 21
-66.85581525842395
  0
LINE
  8
0
 10
7.94760451491986
 20
-66.85581525842395
 11
8.193092149358412
 21
-67.48173625909024
  0
LINE
  8
0
 10
8.193092149358412
 20
-67.48173625909024
 11
8.504176056834098
 21
-68.19109887055218
  0
LINE
  8
0
 10
8.504176056834098
 20
-68.19109887055218
 11
8.887768416439052
 21
-68.9795512320797
  0
LINE
  8
0
 10
8.887768416439052
 20
-68.9795512320797
 11
9.09792015890849
 21
-69.37135651127694
  0
LINE
  8
0
 10
9.09792015890849
 20
-69.37135651127694
 11
10.339419416272628
 21
-69.26067928069682
  0
LINE
  8
0
 10
10.339419416272628
 20
-69.26067928069682
 11
11.559114562540579
 21
-69.00394282910673
  0
LINE
  8
0
 10
11.559114562540579
 20
-69.00394282910673
 11
11.64567451132488
 21
-68.56784363518842
  0
LINE
  8
0
 10
11.64567451132488
 20
-68.56784363518842
 11
11.782269771103204
 21
-67.70173627478107
  0
LINE
  8
0
 10
11.782269771103204
 20
-67.70173627478107
 11
11.872616572891443
 21
-66.93244701355464
  0
LINE
  8
0
 10
11.872616572891443
 20
-66.93244701355464
 11
11.924596721967859
 21
-66.26211922669356
  0
LINE
  8
0
 10
11.924596721967859
 20
-66.26211922669356
 11
11.946182889169371
 21
-65.69242408080197
  0
LINE
  8
0
 10
11.946182889169371
 20
-65.69242408080197
 11
11.945413587409977
 21
-65.22455694945585
  0
LINE
  8
0
 10
11.945413587409977
 20
-65.22455694945585
 11
11.93036801669028
 21
-64.85923506920018
  0
LINE
  8
0
 10
11.93036801669028
 20
-64.85923506920018
 11
11.898915983869724
 21
-64.47023504596125
  0
LINE
  8
0
 10
11.898915983869724
 20
-64.47023504596125
 11
11.900598679328084
 21
-64.13640504156358
  0
LINE
  8
0
 10
11.900598679328084
 20
-64.13640504156358
 11
11.94324312977185
 21
-63.90454724396725
  0
LINE
  8
0
 10
11.94324312977185
 20
-63.90454724396725
 11
12.018751444500413
 21
-63.77721823019815
  0
LINE
  8
0
 10
12.018751444500413
 20
-63.77721823019815
 11
14.711183214237257
 21
-63.21048204138402
  0
LINE
  8
0
 10
14.711183214237257
 20
-63.21048204138402
 11
14.831613626203136
 21
-63.2965674595104
  0
LINE
  8
0
 10
14.831613626203136
 20
-63.2965674595104
 11
14.964106818602605
 21
-63.49156012970029
  0
LINE
  8
0
 10
14.964106818602605
 20
-63.49156012970029
 11
15.100221426148154
 21
-63.79638486116573
  0
LINE
  8
0
 10
15.100221426148154
 20
-63.79638486116573
 11
15.228253259520585
 21
-64.16505557887007
  0
LINE
  8
0
 10
15.228253259520585
 20
-64.16505557887007
 11
15.361754180579696
 21
-64.50544351853263
  0
LINE
  8
0
 10
15.361754180579696
 20
-64.50544351853263
 11
15.549658359885804
 21
-64.93392019679861
  0
LINE
  8
0
 10
15.549658359885804
 20
-64.93392019679861
 11
15.79907030705389
 21
-65.4465723229785
  0
LINE
  8
0
 10
15.79907030705389
 20
-65.4465723229785
 11
16.116864548851527
 21
-66.03906544329095
  0
LINE
  8
0
 10
16.116864548851527
 20
-66.03906544329095
 11
16.509663553639566
 21
-66.70665622653169
  0
LINE
  8
0
 10
16.509663553639566
 20
-66.70665622653169
 11
16.983816276220804
 21
-67.44420583192404
  0
LINE
  8
0
 10
16.983816276220804
 20
-67.44420583192404
 11
17.238833036541664
 21
-67.80840575452875
  0
LINE
  8
0
 10
17.238833036541664
 20
-67.80840575452875
 11
18.45852818280963
 21
-67.55166930293858
  0
LINE
  8
0
 10
18.45852818280963
 20
-67.55166930293858
 11
19.639297371732468
 21
-67.15247764734544
  0
LINE
  8
0
 10
19.639297371732468
 20
-67.15247764734544
 11
19.67367093004621
 21
-66.70920167218033
  0
LINE
  8
0
 10
19.67367093004621
 20
-66.70920167218033
 11
19.70687017693743
 21
-65.83301788167086
  0
LINE
  8
0
 10
19.70687017693743
 20
-65.83301788167086
 11
19.705596562917425
 21
-65.05844258517669
  0
LINE
  8
0
 10
19.705596562917425
 20
-65.05844258517669
 11
19.677930075409503
 21
-64.38667190763483
  0
LINE
  8
0
 10
19.677930075409503
 20
-64.38667190763483
 11
19.631985080012885
 21
-63.81842233283086
  0
LINE
  8
0
 10
19.631985080012885
 20
-63.81842233283086
 11
19.575885048714486
 21
-63.353930103716564
  0
LINE
  8
0
 10
19.575885048714486
 20
-63.353930103716564
 11
19.5177373042263
 21
-62.99295187001992
  0
LINE
  8
0
 10
19.5177373042263
 20
-62.99295187001992
 11
19.44049776396734
 21
-62.610402132248446
  0
LINE
  8
0
 10
19.44049776396734
 20
-62.610402132248446
 11
19.402685515579034
 21
-62.27871623087189
  0
LINE
  8
0
 10
19.402685515579034
 20
-62.27871623087189
 11
19.417608091795014
 21
-62.043442126519224
  0
LINE
  8
0
 10
19.417608091795014
 20
-62.043442126519224
 11
19.477526814703555
 21
-61.90807621505859
  0
LINE
  8
0
 10
19.477526814703555
 20
-61.90807621505859
 11
22.08403097823152
 21
-61.02687545024322
  0
LINE
  8
0
 10
22.08403097823152
 20
-61.02687545024322
 11
22.213797696070657
 21
-61.09811295638656
  0
LINE
  8
0
 10
22.213797696070657
 20
-61.09811295638656
 11
22.368423332883598
 21
-61.27606660175574
  0
LINE
  8
0
 10
22.368423332883598
 20
-61.27606660175574
 11
22.539635152633295
 21
-61.56265309145518
  0
LINE
  8
0
 10
22.539635152633295
 20
-61.56265309145518
 11
22.71037219766882
 21
-61.9135934138775
  0
LINE
  8
0
 10
22.71037219766882
 20
-61.9135934138775
 11
22.883194849548197
 21
-62.235802626018824
  0
LINE
  8
0
 10
22.883194849548197
 20
-62.235802626018824
 11
23.12045744286546
 21
-62.6390478445037
  0
LINE
  8
0
 10
23.12045744286546
 20
-62.6390478445037
 11
23.428751784066172
 21
-63.11860297277423
  0
LINE
  8
0
 10
23.428751784066172
 20
-63.11860297277423
 11
23.814391498681623
 21
-63.6693509080846
  0
LINE
  8
0
 10
23.814391498681623
 20
-63.6693509080846
 11
24.283391563780825
 21
-64.28579835188447
  0
LINE
  8
0
 10
24.283391563780825
 20
-64.28579835188447
 11
24.841448584468893
 21
-64.96209162141062
  0
LINE
  8
0
 10
24.841448584468893
 20
-64.96209162141062
 11
25.137750486329853
 21
-65.29357361884537
  0
LINE
  8
0
 10
25.137750486329853
 20
-65.29357361884537
 11
26.31851967525272
 21
-64.89438196325221
  0
LINE
  8
0
 10
26.31851967525272
 20
-64.89438196325221
 11
27.443787495695975
 21
-64.35833887946178
  0
LINE
  8
0
 10
27.443787495695975
 20
-64.35833887946178
 11
27.42549213412822
 21
-63.91410874606829
  0
LINE
  8
0
 10
27.42549213412822
 20
-63.91410874606829
 11
27.354829323479624
 21
-63.040148225256885
  0
LINE
  8
0
 10
27.354829323479624
 20
-63.040148225256885
 11
27.26195317240042
 21
-62.2711602327678
  0
LINE
  8
0
 10
27.26195317240042
 20
-62.2711602327678
 11
27.155028425147098
 21
-61.60737685231835
  0
LINE
  8
0
 10
27.155028425147098
 20
-61.60737685231835
 11
27.04219723417504
 21
-61.04854982701383
  0
LINE
  8
0
 10
27.04219723417504
 20
-61.04854982701383
 11
26.93155399480428
 21
-60.59395295284859
  0
LINE
  8
0
 10
26.93155399480428
 20
-60.59395295284859
 11
26.8311203434188
 21
-60.24238570883802
  0
LINE
  8
0
 10
26.8311203434188
 20
-60.24238570883802
 11
26.7091775695555
 21
-59.87165641629295
  0
LINE
  8
0
 10
26.7091775695555
 20
-59.87165641629295
 11
26.63240117840243
 21
-59.54677076092839
  0
LINE
  8
0
 10
26.63240117840243
 20
-59.54677076092839
 11
26.619392400131247
 21
-59.311383082517295
  0
LINE
  8
0
 10
26.619392400131247
 20
-59.311383082517295
 11
26.662880403693592
 21
-59.1698805140363
  0
LINE
  8
0
 10
26.662880403693592
 20
-59.1698805140363
 11
29.146867356084336
 21
-57.98658530034177
  0
LINE
  8
0
 10
29.146867356084336
 20
-57.98658530034177
 11
29.284148739530423
 21
-58.04197487607037
  0
LINE
  8
0
 10
29.284148739530423
 20
-58.04197487607037
 11
29.458736215759547
 21
-58.200391417517054
  0
LINE
  8
0
 10
29.458736215759547
 20
-58.200391417517054
 11
29.662641809065054
 21
-58.464716619340464
  0
LINE
  8
0
 10
29.662641809065054
 20
-58.464716619340464
 11
29.873687291911594
 21
-58.79300011362462
  0
LINE
  8
0
 10
29.873687291911594
 20
-58.79300011362462
 11
30.083405623410766
 21
-59.09250748719755
  0
LINE
  8
0
 10
30.083405623410766
 20
-59.09250748719755
 11
30.36669598401504
 21
-59.464860566958215
  0
LINE
  8
0
 10
30.36669598401504
 20
-59.464860566958215
 11
30.729544942487436
 21
-59.904586794516256
  0
LINE
  8
0
 10
30.729544942487436
 20
-59.904586794516256
 11
31.17761659366019
 21
-60.40585825106716
  0
LINE
  8
0
 10
31.17761659366019
 20
-60.40585825106716
 11
31.716233986217386
 21
-60.96250878458467
  0
LINE
  8
0
 10
31.716233986217386
 20
-60.96250878458467
 11
32.3503614077179
 21
-61.5680520431936
  0
LINE
  8
0
 10
32.3503614077179
 20
-61.5680520431936
 11
32.683789021918656
 21
-61.86216283483199
  0
LINE
  8
0
 10
32.683789021918656
 20
-61.86216283483199
 11
33.80905684236186
 21
-61.32611975104154
  0
LINE
  8
0
 10
33.80905684236186
 20
-61.32611975104154
 11
34.863027000744
 21
-60.66075010892926
  0
LINE
  8
0
 10
34.863027000744
 20
-60.66075010892926
 11
34.79231954606719
 21
-60.2218018346157
  0
LINE
  8
0
 10
34.79231954606719
 20
-60.2218018346157
 11
34.618786628845506
 21
-59.36233307346948
  0
LINE
  8
0
 10
34.618786628845506
 20
-59.36233307346948
 11
34.43561171828122
 21
-58.60972729075753
  0
LINE
  8
0
 10
34.43561171828122
 20
-58.60972729075753
 11
34.250929700351975
 21
-57.963249271030904
  0
LINE
  8
0
 10
34.250929700351975
 20
-57.963249271030904
 11
34.07279621639672
 21
-57.42168950169714
  0
LINE
  8
0
 10
34.07279621639672
 20
-57.42168950169714
 11
33.909162957501394
 21
-56.98336952610562
  0
LINE
  8
0
 10
33.909162957501394
 20
-56.98336952610562
 11
33.767853267530775
 21
-56.646148505242124
  0
LINE
  8
0
 10
33.767853267530775
 20
-56.646148505242124
 11
33.60291906930633
 21
-56.292443884542166
  0
LINE
  8
0
 10
33.60291906930633
 20
-56.292443884542166
 11
33.48825630762437
 21
-55.97891915763277
  0
LINE
  8
0
 10
33.48825630762437
 20
-55.97891915763277
 11
33.44749878959735
 21
-55.74672223219199
  0
LINE
  8
0
 10
33.44749878959735
 20
-55.74672223219199
 11
33.47394559757036
 21
-55.601069392574644
  0
LINE
  8
0
 10
33.47394559757036
 20
-55.601069392574644
 11
35.80054560697887
 21
-54.13229060098615
  0
LINE
  8
0
 10
35.80054560697887
 20
-54.13229060098615
 11
35.94341452633283
 21
-54.17105469807221
  0
LINE
  8
0
 10
35.94341452633283
 20
-54.17105469807221
 11
36.13551301651236
 21
-54.30771031460783
  0
LINE
  8
0
 10
36.13551301651236
 20
-54.30771031460783
 11
36.36924999581023
 21
-54.5460636821296
  0
LINE
  8
0
 10
36.36924999581023
 20
-54.5460636821296
 11
36.617641300506016
 21
-54.84708196762213
  0
LINE
  8
0
 10
36.617641300506016
 20
-54.84708196762213
 11
36.861311325958994
 21
-55.11968307562997
  0
LINE
  8
0
 10
36.861311325958994
 20
-55.11968307562997
 11
37.18665267816752
 21
-55.45591699563459
  0
LINE
  8
0
 10
37.18665267816752
 20
-55.45591699563459
 11
37.59896264990939
 21
-55.84964153013702
  0
LINE
  8
0
 10
37.59896264990939
 20
-55.84964153013702
 11
38.10317629384213
 21
-56.294399755479056
  0
LINE
  8
0
 10
38.10317629384213
 20
-56.294399755479056
 11
38.70385000632971
 21
-56.78343922541664
  0
LINE
  8
0
 10
38.70385000632971
 20
-56.78343922541664
 11
39.40514606966925
 21
-57.309731973124684
  0
LINE
  8
0
 10
39.40514606966925
 20
-57.309731973124684
 11
39.77101880338876
 21
-57.562342888150944
  0
LINE
  8
0
 10
39.77101880338876
 20
-57.562342888150944
 11
40.824988961770956
 21
-56.89697324603856
  0
LINE
  8
0
 10
40.824988961770956
 20
-56.89697324603856
 11
41.79286602739931
 21
-56.11161737687139
  0
LINE
  8
0
 10
41.79286602739931
 20
-56.11161737687139
 11
41.67073905728449
 21
-55.684112833222684
  0
LINE
  8
0
 10
41.67073905728449
 20
-55.684112833222684
 11
41.396772055258666
 21
-54.85120088916938
  0
LINE
  8
0
 10
41.396772055258666
 20
-54.85120088916938
 11
41.125869759429264
 21
-54.12554225169164
  0
LINE
  8
0
 10
41.125869759429264
 20
-54.12554225169164
 11
40.866023001527864
 21
-53.505444726987484
  0
LINE
  8
0
 10
40.866023001527864
 20
-53.505444726987484
 11
40.62508782823072
 21
-52.98875452567228
  0
LINE
  8
0
 10
40.62508782823072
 20
-52.98875452567228
 11
40.41076160207719
 21
-52.57286450030254
  0
LINE
  8
0
 10
40.41076160207719
 20
-52.57286450030254
 11
40.23055955181397
 21
-52.25472354652145
  0
LINE
  8
0
 10
40.23055955181397
 20
-52.25472354652145
 11
40.02494924383123
 21
-51.923008835211135
  0
LINE
  8
0
 10
40.02494924383123
 20
-51.923008835211135
 11
39.8740097254505
 21
-51.625246236668026
  0
LINE
  8
0
 10
39.8740097254505
 20
-51.625246236668026
 11
39.806075613879166
 21
-51.39949960004881
  0
LINE
  8
0
 10
39.806075613879166
 20
-51.39949960004881
 11
39.81510997105102
 21
-51.25174113588838
  0
LINE
  8
0
 10
39.81510997105102
 20
-51.25174113588838
 11
41.951662673315326
 21
-49.51809720103701
  0
LINE
  8
0
 10
41.951662673315326
 20
-49.51809720103701
 11
42.09811356212195
 21
-49.5396916565294
  0
LINE
  8
0
 10
42.09811356212195
 20
-49.5396916565294
 11
42.305026424534844
 21
-49.65266800285061
  0
LINE
  8
0
 10
42.305026424534844
 20
-49.65266800285061
 11
42.565313634993515
 21
-49.86170357726774
  0
LINE
  8
0
 10
42.565313634993515
 20
-49.86170357726774
 11
42.84756389210109
 21
-50.13123101708055
  0
LINE
  8
0
 10
42.84756389210109
 20
-50.13123101708055
 11
43.12176501848179
 21
-50.373099137515865
  0
LINE
  8
0
 10
43.12176501848179
 20
-50.373099137515865
 11
43.4845902828666
 21
-50.66849391056143
  0
LINE
  8
0
 10
43.4845902828666
 20
-50.66849391056143
 11
43.940573339669285
 21
-51.010689722598656
  0
LINE
  8
0
 10
43.940573339669285
 20
-51.010689722598656
 11
44.49385092205115
 21
-51.39269128617008
  0
LINE
  8
0
 10
44.49385092205115
 20
-51.39269128617008
 11
45.1481488122388
 21
-51.80725465035756
  0
LINE
  8
0
 10
45.1481488122388
 20
-51.80725465035756
 11
45.906768857948
 21
-52.246908890634806
  0
LINE
  8
0
 10
45.906768857948
 20
-52.246908890634806
 11
46.29995066000776
 21
-52.45447382553186
  0
LINE
  8
0
 10
46.29995066000776
 20
-52.45447382553186
 11
47.267827725636096
 21
-51.669117956364715
  0
LINE
  8
0
 10
47.267827725636096
 20
-51.669117956364715
 11
48.136024826122
 21
-50.77480053502453
  0
LINE
  8
0
 10
48.136024826122
 20
-50.77480053502453
 11
47.96419273552396
 21
-50.36474094873199
  0
LINE
  8
0
 10
47.96419273552396
 20
-50.36474094873199
 11
47.59363754485935
 21
-49.57007807970061
  0
LINE
  8
0
 10
47.59363754485935
 20
-49.57007807970061
 11
47.23881073817312
 21
-48.88155324406391
  0
LINE
  8
0
 10
47.23881073817312
 20
-48.88155324406391
 11
46.90744691918938
 21
-48.29654102435854
  0
LINE
  8
0
 10
46.90744691918938
 20
-48.29654102435854
 11
46.60709225824703
 21
-47.811973588889465
  0
LINE
  8
0
 10
46.60709225824703
 20
-47.811973588889465
 11
46.345081735241614
 21
-47.42435169805552
  0
LINE
  8
0
 10
46.345081735241614
 20
-47.42435169805552
 11
46.128516966463714
 21
-47.12975681297435
  0
LINE
  8
0
 10
46.128516966463714
 20
-47.12975681297435
 11
45.8851168667434
 21
-46.82468855847286
  0
LINE
  8
0
 10
45.8851168667434
 20
-46.82468855847286
 11
45.70001945163847
 21
-46.54686802247593
  0
LINE
  8
0
 10
45.70001945163847
 20
-46.54686802247593
 11
45.60586239253588
 21
-46.33074066261368
  0
LINE
  8
0
 10
45.60586239253588
 20
-46.33074066261368
 11
45.59735747633544
 21
-46.18295077885643
  0
LINE
  8
0
 10
45.59735747633544
 20
-46.18295077885643
 11
47.51387035489702
 21
-44.208778261393114
  0
LINE
  8
0
 10
47.51387035489702
 20
-44.208778261393114
 11
47.66184736370179
 21
-44.212899936472354
  0
LINE
  8
0
 10
47.66184736370179
 20
-44.212899936472354
 11
47.88066999531836
 21
-44.300611072324
  0
LINE
  8
0
 10
47.88066999531836
 20
-44.300611072324
 11
48.16385357505959
 21
-44.47739445238331
  0
LINE
  8
0
 10
48.16385357505959
 20
-44.47739445238331
 11
48.47600060966934
 21
-44.71164747207288
  0
LINE
  8
0
 10
48.47600060966934
 20
-44.71164747207288
 11
48.77688365421967
 21
-44.919387306706206
  0
LINE
  8
0
 10
48.77688365421967
 20
-44.919387306706206
 11
49.17209955939159
 21
-45.16979623769248
  0
LINE
  8
0
 10
49.17209955939159
 20
-45.16979623769248
 11
49.665354698664764
 21
-45.45565964816597
  0
LINE
  8
0
 10
49.665354698664764
 20
-45.45565964816597
 11
50.259929415038535
 21
-45.76954208537198
  0
LINE
  8
0
 10
50.259929415038535
 20
-45.76954208537198
 11
50.95866657478668
 21
-46.10380978291027
  0
LINE
  8
0
 10
50.95866657478668
 20
-46.10380978291027
 11
51.76396124033945
 21
-46.45065373395723
  0
LINE
  8
0
 10
51.76396124033945
 20
-46.45065373395723
 11
52.178932700103665
 21
-46.61025893202708
  0
LINE
  8
0
 10
52.178932700103665
 20
-46.61025893202708
 11
53.04712980058958
 21
-45.71594151068686
  0
LINE
  8
0
 10
53.04712980058958
 20
-45.71594151068686
 11
53.80345935175371
 21
-44.72521679340131
  0
LINE
  8
0
 10
53.80345935175371
 20
-44.72521679340131
 11
53.58433428656386
 21
-44.33835850219478
  0
LINE
  8
0
 10
53.58433428656386
 20
-44.33835850219478
 11
53.12239268987041
 21
-43.593100032944015
  0
LINE
  8
0
 10
53.12239268987041
 20
-43.593100032944015
 11
52.688622362903274
 21
-42.95137437857564
  0
LINE
  8
0
 10
52.688622362903274
 20
-42.95137437857564
 11
52.29039310449728
 21
-42.40965975307113
  0
LINE
  8
0
 10
52.29039310449728
 20
-42.40965975307113
 11
51.9348352769638
 21
-41.96401734805725
  0
LINE
  8
0
 10
51.9348352769638
 20
-41.96401734805725
 11
51.628818510515345
 21
-41.610104953428745
  0
LINE
  8
0
 10
51.628818510515345
 20
-41.610104953428745
 11
51.378931117860596
 21
-41.343191603474075
  0
LINE
  8
0
 10
51.378931117860596
 20
-41.343191603474075
 11
51.10115803026318
 21
-41.06905229535677
  0
LINE
  8
0
 10
51.10115803026318
 20
-41.06905229535677
 11
50.88450108040359
 21
-40.81507381324128
  0
LINE
  8
0
 10
50.88450108040359
 20
-40.81507381324128
 11
50.765442832484716
 21
-40.611599684511454
  0
LINE
  8
0
 10
50.765442832484716
 20
-40.611599684511454
 11
50.73951803329243
 21
-40.46585302716591
  0
LINE
  8
0
 10
50.73951803329243
 20
-40.46585302716591
 11
52.40908744838433
 21
-38.27886498179631
  0
LINE
  8
0
 10
52.40908744838433
 20
-38.27886498179631
 11
52.55651330435321
 21
-38.265456017179105
  0
LINE
  8
0
 10
52.55651330435321
 20
-38.265456017179105
 11
52.78417391509068
 21
-38.32667067047902
  0
LINE
  8
0
 10
52.78417391509068
 20
-38.32667067047902
 11
53.086278587400976
 21
-38.46872020503842
  0
LINE
  8
0
 10
53.086278587400976
 20
-38.46872020503842
 11
53.42394053938173
 21
-38.664410405697254
  0
LINE
  8
0
 10
53.42394053938173
 20
-38.664410405697254
 11
53.74728176369996
 21
-38.83510574262168
  0
LINE
  8
0
 10
53.74728176369996
 20
-38.83510574262168
 11
54.169340344674325
 21
-39.03701363906076
  0
LINE
  8
0
 10
54.169340344674325
 20
-39.03701363906076
 11
54.6929433454912
 21
-39.26253175230779
  0
LINE
  8
0
 10
54.6929433454912
 20
-39.26253175230779
 11
55.320468670162825
 21
-39.503888841768806
  0
LINE
  8
0
 10
55.320468670162825
 20
-39.503888841768806
 11
56.053836361399355
 21
-39.753168486908294
  0
LINE
  8
0
 10
56.053836361399355
 20
-39.753168486908294
 11
56.89450107491899
 21
-40.00233321994357
  0
LINE
  8
0
 10
56.89450107491899
 20
-40.00233321994357
 11
57.32543690272121
 21
-40.11173817406421
  0
LINE
  8
0
 10
57.32543690272121
 20
-40.11173817406421
 11
58.0817664538853
 21
-39.121013456778655
  0
LINE
  8
0
 10
58.0817664538853
 20
-39.121013456778655
 11
58.7156112467242
 21
-38.04778904688311
  0
LINE
  8
0
 10
58.7156112467242
 20
-38.04778904688311
 11
58.45226924252971
 21
-37.689562693167254
  0
LINE
  8
0
 10
58.45226924252971
 20
-37.689562693167254
 11
57.90542588723651
 21
-37.0041704189787
  0
LINE
  8
0
 10
57.90542588723651
 20
-37.0041704189787
 11
57.398801224542815
 21
-36.418252367386
  0
LINE
  8
0
 10
57.398801224542815
 20
-36.418252367386
 11
56.93929679257328
 21
-35.927439821971326
  0
LINE
  8
0
 10
56.93929679257328
 20
-35.927439821971326
 11
56.533527050954895
 21
-35.52697828991884
  0
LINE
  8
0
 10
56.533527050954895
 20
-35.52697828991884
 11
56.1877998456673
 21
-35.21174354573082
  0
LINE
  8
0
 10
56.1877998456673
 20
-35.21174354573082
 11
55.90809770036864
 21
-34.97625860925474
  0
LINE
  8
0
 10
55.90809770036864
 20
-34.97625860925474
 11
55.59985095015789
 21
-34.73689656248679
  0
LINE
  8
0
 10
55.59985095015789
 20
-34.73689656248679
 11
55.354675854201766
 21
-34.51032543541395
  0
LINE
  8
0
 10
55.354675854201766
 20
-34.51032543541395
 11
55.2123877342885
 21
-34.32236086856312
  0
LINE
  8
0
 10
55.2123877342885
 20
-34.32236086856312
 11
55.169406979457165
 21
-34.18070340121781
  0
LINE
  8
0
 10
55.169406979457165
 20
-34.18070340121781
 11
56.56859583623278
 21
-31.811600346161995
  0
LINE
  8
0
 10
56.56859583623278
 20
-31.811600346161995
 11
56.71340100350945
 21
-31.780848974318754
  0
LINE
  8
0
 10
56.71340100350945
 20
-31.780848974318754
 11
56.946703737431285
 21
-31.81470782551877
  0
LINE
  8
0
 10
56.946703737431285
 20
-31.81470782551877
 11
57.26348861493301
 21
-31.920029450489487
  0
LINE
  8
0
 10
57.26348861493301
 20
-31.920029450489487
 11
57.621925450643076
 21
-32.07440977065854
  0
LINE
  8
0
 10
57.621925450643076
 20
-32.07440977065854
 11
57.963185852712485
 21
-32.20566442151244
  0
LINE
  8
0
 10
57.963185852712485
 20
-32.20566442151244
 11
58.40616233217623
 21
-32.35623693912588
  0
LINE
  8
0
 10
58.40616233217623
 20
-32.35623693912588
 11
58.95276295615727
 21
-32.518243975178265
  0
LINE
  8
0
 10
58.95276295615727
 20
-32.518243975178265
 11
59.604429809120845
 21
-32.68368759241953
  0
LINE
  8
0
 10
59.604429809120845
 20
-32.68368759241953
 11
60.36213315702259
 21
-32.84447984537017
  0
LINE
  8
0
 10
60.36213315702259
 20
-32.84447984537017
 11
61.22636682869107
 21
-32.99246763371779
  0
LINE
  8
0
 10
61.22636682869107
 20
-32.99246763371779
 11
61.66721763013203
 21
-33.05013653815206
  0
LINE
  8
0
 10
61.66721763013203
 20
-33.05013653815206
 11
62.30106242297083
 21
-31.976912128256462
  0
LINE
  8
0
 10
62.30106242297083
 20
-31.976912128256462
 11
62.80352466599782
 21
-30.83625374392882
  0
LINE
  8
0
 10
62.80352466599782
 20
-30.83625374392882
 11
62.49966246728482
 21
-30.511688040468012
  0
LINE
  8
0
 10
62.49966246728482
 20
-30.511688040468012
 11
61.8755938354048
 21
-29.895783366472862
  0
LINE
  8
0
 10
61.8755938354048
 20
-29.895783366472862
 11
61.303226736713796
 21
-29.37389792275199
  0
LINE
  8
0
 10
61.303226736713796
 20
-29.37389792275199
 11
60.788897566159434
 21
-28.940877389690396
  0
LINE
  8
0
 10
60.788897566159434
 20
-28.940877389690396
 11
60.33861202817021
 21
-28.591218332686815
  0
LINE
  8
0
 10
60.33861202817021
 20
-28.591218332686815
 11
59.95802763616235
 21
-28.3190864437446
  0
LINE
  8
0
 10
59.95802763616235
 20
-28.3190864437446
 11
59.652437143225114
 21
-28.118335613065895
  0
LINE
  8
0
 10
59.652437143225114
 20
-28.118335613065895
 11
59.31804383908875
 21
-27.917110946095846
  0
LINE
  8
0
 10
59.31804383908875
 20
-27.917110946095846
 11
59.04779231795289
 21
-27.721127736039715
  0
LINE
  8
0
 10
59.04779231795289
 20
-27.721127736039715
 11
58.88427173934941
 21
-27.551311341563054
  0
LINE
  8
0
 10
58.88427173934941
 20
-27.551311341563054
 11
58.824838384461884
 21
-27.41573162454251
  0
LINE
  8
0
 10
58.824838384461884
 20
-27.41573162454251
 11
59.934005138431885
 21
-24.897770573555523
  0
LINE
  8
0
 10
59.934005138431885
 20
-24.897770573555523
 11
60.07415686988461
 21
-24.8501084763391
  0
LINE
  8
0
 10
60.07415686988461
 20
-24.8501084763391
 11
60.30982666801244
 21
-24.856136221387885
  0
LINE
  8
0
 10
60.30982666801244
 20
-24.856136221387885
 11
60.6368447854265
 21
-24.923251452023166
  0
LINE
  8
0
 10
60.6368447854265
 20
-24.923251452023166
 11
61.011024837395745
 21
-25.034154730413093
  0
LINE
  8
0
 10
61.011024837395745
 20
-25.034154730413093
 11
61.3654138692233
 21
-25.12412616761222
  0
LINE
  8
0
 10
61.3654138692233
 20
-25.12412616761222
 11
61.82308982842118
 21
-25.221249598311783
  0
LINE
  8
0
 10
61.82308982842118
 20
-25.221249598311783
 11
62.38501500096903
 21
-25.317471333507143
  0
LINE
  8
0
 10
62.38501500096903
 20
-25.317471333507143
 11
63.05167540808031
 21
-25.404679012799466
  0
LINE
  8
0
 10
63.05167540808031
 20
-25.404679012799466
 11
63.823077918548954
 21
-25.4747267027908
  0
LINE
  8
0
 10
63.823077918548954
 20
-25.4747267027908
 11
64.69874860203963
 21
-25.51946012229559
  0
LINE
  8
0
 10
64.69874860203963
 20
-25.51946012229559
 11
65.1433257982239
 21
-25.524583432036987
  0
LINE
  8
0
 10
65.1433257982239
 20
-25.524583432036987
 11
65.64578804125092
 21
-24.383925047709244
  0
LINE
  8
0
 10
65.64578804125092
 20
-24.383925047709244
 11
66.009814265985
 21
-23.19184503231157
  0
LINE
  8
0
 10
66.009814265985
 20
-23.19184503231157
 11
65.66969743194906
 21
-22.905496170125513
  0
LINE
  8
0
 10
65.66969743194906
 20
-22.905496170125513
 11
64.97716407909846
 21
-22.367725047866976
  0
LINE
  8
0
 10
64.97716407909846
 20
-22.367725047866976
 11
64.34708932383163
 21
-21.91719833966077
  0
LINE
  8
0
 10
64.34708932383163
 20
-21.91719833966077
 11
63.785155468823575
 21
-21.548048478043732
  0
LINE
  8
0
 10
63.785155468823575
 20
-21.548048478043732
 11
63.29667515637882
 21
-21.254100342787282
  0
LINE
  8
0
 10
63.29667515637882
 20
-21.254100342787282
 11
62.88657614826318
 21
-21.028891444291165
  0
LINE
  8
0
 10
62.88657614826318
 20
-21.028891444291165
 11
62.5593871283456
 21
-20.86569282102131
  0
LINE
  8
0
 10
62.5593871283456
 20
-20.86569282102131
 11
62.20354141927455
 21
-20.705430287083516
  0
LINE
  8
0
 10
62.20354141927455
 20
-20.705430287083516
 11
61.91200721191705
 21
-20.54278616871279
  0
LINE
  8
0
 10
61.91200721191705
 20
-20.54278616871279
 11
61.729549645105415
 21
-20.393501796546627
  0
LINE
  8
0
 10
61.729549645105415
 20
-20.393501796546627
 11
61.654498004184795
 21
-20.265903071883404
  0
LINE
  8
0
 10
61.654498004184795
 20
-20.265903071883404
 11
62.458072385446954
 21
-17.63443067868241
  0
LINE
  8
0
 10
62.458072385446954
 20
-17.63443067868241
 11
62.59160325798253
 21
-17.570526927461103
  0
LINE
  8
0
 10
62.59160325798253
 20
-17.570526927461103
 11
62.82633183294521
 21
-17.548638950031165
  0
LINE
  8
0
 10
62.82633183294521
 20
-17.548638950031165
 11
63.15899257273565
 21
-17.57660563561129
  0
LINE
  8
0
 10
63.15899257273565
 20
-17.57660563561129
 11
63.54366317324722
 21
-17.64247503329649
  0
LINE
  8
0
 10
63.54366317324722
 20
-17.64247503329649
 11
63.90620598965641
 21
-17.68990025508239
  0
LINE
  8
0
 10
63.90620598965641
 20
-17.68990025508239
 11
64.37215666135936
 21
-17.73221119879822
  0
LINE
  8
0
 10
64.37215666135936
 20
-17.73221119879822
 11
64.94151818480661
 21
-17.76129689089506
  0
LINE
  8
0
 10
64.94151818480661
 20
-17.76129689089506
 11
65.61381369528738
 21
-17.769044427582767
  0
LINE
  8
0
 10
65.61381369528738
 20
-17.769044427582767
 11
66.38808656801112
 21
-17.747364238593747
  0
LINE
  8
0
 10
66.38808656801112
 20
-17.747364238593747
 11
67.26290176642156
 21
-17.688215330102725
  0
LINE
  8
0
 10
67.26290176642156
 20
-17.688215330102725
 11
67.70496446803995
 21
-17.640721125112897
  0
LINE
  8
0
 10
67.70496446803995
 20
-17.640721125112897
 11
68.06899069277378
 21
-16.448641109715183
  0
LINE
  8
0
 10
68.06899069277378
 20
-16.448641109715183
 11
68.28947076897461
 21
-15.22187365359191
  0
LINE
  8
0
 10
68.28947076897461
 20
-15.22187365359191
 11
67.91787379442074
 21
-14.977761343021395
  0
LINE
  8
0
 10
67.91787379442074
 20
-14.977761343021395
 11
67.1665973708218
 21
-14.525672900247137
  0
LINE
  8
0
 10
67.1665973708218
 20
-14.525672900247137
 11
66.48765982740217
 21
-14.152829334972092
  0
LINE
  8
0
 10
66.48765982740217
 20
-14.152829334972092
 11
65.88600960749055
 21
-13.852732199670232
  0
LINE
  8
0
 10
65.88600960749055
 20
-13.852732199670232
 11
65.36619171341492
 21
-13.618621373637657
  0
LINE
  8
0
 10
65.36619171341492
 20
-13.618621373637657
 11
64.93233498031736
 21
-13.443496904858526
  0
LINE
  8
0
 10
64.93233498031736
 20
-13.443496904858526
 11
64.58814045005188
 21
-13.320141439932435
  0
LINE
  8
0
 10
64.58814045005188
 20
-13.320141439932435
 11
64.2158376297781
 21
-13.203090773703579
  0
LINE
  8
0
 10
64.2158376297781
 20
-13.203090773703579
 11
63.9071132374194
 21
-13.076068913919881
  0
LINE
  8
0
 10
63.9071132374194
 20
-13.076068913919881
 11
63.70827998668571
 21
-12.949412189414042
  0
LINE
  8
0
 10
63.70827998668571
 20
-12.949412189414042
 11
63.6186636202553
 21
-12.831585663502562
  0
LINE
  8
0
 10
63.6186636202553
 20
-12.831585663502562
 11
64.10536520595348
 21
-10.123542032229475
  0
LINE
  8
0
 10
64.10536520595348
 20
-10.123542032229475
 11
64.23040073882478
 21
-10.044293695591689
  0
LINE
  8
0
 10
64.23040073882478
 20
-10.044293695591689
 11
64.46089301596122
 21
-9.9947972549071
  0
LINE
  8
0
 10
64.46089301596122
 20
-9.9947972549071
 11
64.79452655054271
 21
-9.983222804470255
  0
LINE
  8
0
 10
64.79452655054271
 20
-9.983222804470255
 11
65.18428776757378
 21
-10.003133659494726
  0
LINE
  8
0
 10
65.18428776757378
 20
-10.003133659494726
 11
65.54989506212587
 21
-10.007346919710892
  0
LINE
  8
0
 10
65.54989506212587
 20
-10.007346919710892
 11
66.01757952027965
 21
-9.994251423539959
  0
LINE
  8
0
 10
66.01757952027965
 20
-9.994251423539959
 11
66.58638480689297
 21
-9.955792773177867
  0
LINE
  8
0
 10
66.58638480689297
 20
-9.955792773177867
 11
67.25487786546601
 21
-9.883971408828671
  0
LINE
  8
0
 10
67.25487786546601
 20
-9.883971408828671
 11
68.02115200653886
 21
-9.770867683189143
  0
LINE
  8
0
 10
68.02115200653886
 20
-9.770867683189143
 11
68.88283123210198
 21
-9.608666767721516
  0
LINE
  8
0
 10
68.88283123210198
 20
-9.608666767721516
 11
69.31617384783718
 21
-9.509221762529963
  0
LINE
  8
0
 10
0.3118675362266391
 20
-1.4672214011007085
 11
9.18454765366783e-17
 21
-1.5
  0
LINE
  8
0
 10
9.18454765366783e-17
 20
-1.5
 11
-0.3118675362266384
 21
-1.4672214011007085
  0
LINE
  8
0
 10
-0.3118675362266384
 20
-1.4672214011007085
 11
-0.6101049646137001
 21
-1.3703181864639014
  0
LINE
  8
0
 10
-0.6101049646137001
 20
-1.3703181864639014
 11
-0.8816778784387099
 21
-1.213525491562421
  0
LINE
  8
0
 10
-0.8816778784387099
 20
-1.213525491562421
 11
-1.114717238216091
 21
-1.0036959095382878
  0
LINE
  8
0
 10
-1.114717238216091
 20
-1.0036959095382878
 11
-1.299038105676658
 21
-0.7500000000000003
  0
LINE
  8
0
 10
-1.299038105676658
 20
-0.7500000000000003
 11
-1.4265847744427305
 21
-0.46352549156242095
  0
LINE
  8
0
 10
-1.4265847744427305
 20
-0.46352549156242095
 11
-1.49178284305241
 21
-0.15679269490147957
  0
LINE
  8
0
 10
-1.49178284305241
 20
-0.15679269490147957
 11
-1.4917828430524098
 21
0.15679269490148126
  0
LINE
  8
0
 10
-1.4917828430524098
 20
0.15679269490148126
 11
-1.4265847744427302
 21
0.46352549156242123
  0
LINE
  8
0
 10
-1.4265847744427302
 20
0.46352549156242123
 11
-1.2990381056766576
 21
0.7500000000000006
  0
LINE
  8
0
 10
-1.2990381056766576
 20
0.7500000000000006
 11
-1.114717238216091
 21
1.0036959095382878
  0
LINE
  8
0
 10
-1.114717238216091
 20
1.0036959095382878
 11
-0.8816778784387097
 21
1.2135254915624214
  0
LINE
  8
0
 10
-0.8816778784387097
 20
1.2135254915624214
 11
-0.6101049646137005
 21
1.3703181864639014
  0
LINE
  8
0
 10
-0.6101049646137005
 20
1.3703181864639014
 11
-0.3118675362266387
 21
1.4672214011007085
  0
LINE
  8
0
 10
-0.3118675362266387
 20
1.4672214011007085
 11
7.579792913117722e-16
 21
1.5
  0
LINE
  8
0
 10
7.579792913117722e-16
 20
1.5
 11
0.3118675362266389
 21
1.4672214011007085
  0
LINE
  8
0
 10
0.3118675362266389
 20
1.4672214011007085
 11
0.6101049646136999
 21
1.3703181864639014
  0
LINE
  8
0
 10
0.6101049646136999
 20
1.3703181864639014
 11
0.8816778784387097
 21
1.213525491562421
  0
LINE
  8
0
 10
0.8816778784387097
 20
1.213525491562421
 11
1.1147172382160917
 21
1.003695909538287
  0
LINE
  8
0
 10
1.1147172382160917
 20
1.003695909538287
 11
1.299038105676658
 21
0.7499999999999998
  0
LINE
  8
0
 10
1.299038105676658
 20
0.7499999999999998
 11
1.4265847744427305
 21
0.4635254915624211
  0
LINE
  8
0
 10
1.4265847744427305
 20
0.4635254915624211
 11
1.49178284305241
 21
0.1567926949014801
  0
LINE
  8
0
 10
1.49178284305241
 20
0.1567926949014801
 11
1.4917828430524098
 21
-0.1567926949014801
  0
LINE
  8
0
 10
1.4917828430524098
 20
-0.1567926949014801
 11
1.4265847744427302
 21
-0.46352549156242107
  0
LINE
  8
0
 10
1.4265847744427302
 20
-0.46352549156242107
 11
1.299038105676658
 21
-0.7500000000000001
  0
LINE
  8
0
 10
1.299038105676658
 20
-0.7500000000000001
 11
1.1147172382160913
 21
-1.0036959095382874
  0
LINE
  8
0
 10
1.1147172382160913
 20
-1.0036959095382874
 11
0.8816778784387098
 21
-1.2135254915624212
  0
LINE
  8
0
 10
0.8816778784387098
 20
-1.2135254915624212
 11
0.6101049646137003
 21
-1.3703181864639014
  0
LINE
  8
0
 10
0.6101049646137003
 20
-1.3703181864639014
 11
0.3118675362266391
 21
-1.4672214011007085
  0
ENDSEC
  0
SECTION
  2
OBJECTS
  0
DICTIONARY
  0
ENDSEC
  0
EOF
