0
SECTION
2
HEADER
9
$ACADVER
1
AC1009
9
$INSBASE
10
0.0
20
0.0
30
0.0
9
$EXTMIN
10
0.0
20
0.0
9
$EXTMAX
10
0.0
20
0.0
0
ENDSEC
0
SECTION
2
TABLES
0
TABLE
2
LTYPE
70
1
0
LTYPE
2
CONTINUOUS
70
64
3
Solid line
72
65
73
0
40
0.0
0
ENDTAB
0
TABLE
2
LAYER
70
0
0
ENDTAB
0
TABLE
2
STYLE
70
1
0
STYLE
2
STANDARD
70
0
40
0
41
40
50
50
71
0
42
1
3
ARIAL.TTF
4

0
ENDTAB
0
TABLE
2
VIEW
70
0
0
ENDTAB
0
ENDSEC
0
SECTION
2
BLOCKS
0
ENDSEC
0
SECTION
2
ENTITIES
0
LINE
8
0
10
152.138347369
20
66.7870212612
11
152.340918282
21
68.0226491676
0
LINE
8
0
10
152.340918282
20
68.0226491676
11
152.40870684
21
69.2729355385
0
LINE
8
0
10
152.40870684
20
69.2729355385
11
151.975633351
21
69.478907916
0
LINE
8
0
10
151.975633351
20
69.478907916
11
151.188877053
21
69.8188311836
0
LINE
8
0
10
151.188877053
20
69.8188311836
11
150.47740198
21
70.0961967272
0
LINE
8
0
10
150.47740198
20
70.0961967272
11
149.844585838
21
70.316927651
0
LINE
8
0
10
149.844585838
20
70.316927651
11
149.293475283
21
70.4871052565
0
LINE
8
0
10
149.293475283
20
70.4871052565
11
148.826779058
21
70.6129528097
0
LINE
8
0
10
148.826779058
20
70.6129528097
11
148.446861862
21
70.700819024
0
LINE
8
0
10
148.446861862
20
70.700819024
11
148.048881887
21
70.7778418042
0
LINE
8
0
10
148.048881887
20
70.7778418042
11
147.755300141
21
70.8607615351
0
LINE
8
0
10
147.755300141
20
70.8607615351
11
147.56119218
21
70.9542262196
0
LINE
8
0
10
147.56119218
20
70.9542262196
11
147.466811086
21
71.0511614821
0
LINE
8
0
10
147.466811086
20
71.0511614821
11
147.615770618
21
73.7985583955
0
LINE
8
0
10
147.615770618
20
73.7985583955
11
147.720078992
21
73.884721028
0
LINE
8
0
10
147.720078992
20
73.884721028
11
147.923154393
21
73.9566510564
0
LINE
8
0
10
147.923154393
20
73.9566510564
11
148.22398035
21
74.0073429381
0
LINE
8
0
10
148.22398035
20
74.0073429381
11
148.627954977
21
74.0408850031
0
LINE
8
0
10
148.627954977
20
74.0408850031
11
149.015145092
21
74.0871598676
0
LINE
8
0
10
149.015145092
20
74.0871598676
11
149.492712037
21
74.1618109593
0
LINE
8
0
10
149.492712037
20
74.1618109593
11
150.058991394
21
74.2714054442
0
LINE
8
0
10
150.058991394
20
74.2714054442
11
150.711963152
21
74.4224229737
0
LINE
8
0
10
150.711963152
20
74.4224229737
11
151.449256017
21
74.6212386021
0
LINE
8
0
10
151.449256017
20
74.6212386021
11
152.268152486
21
74.8741059062
0
LINE
8
0
10
152.268152486
20
74.8741059062
11
152.720956811
21
75.0320473843
0
LINE
8
0
10
152.720956811
20
75.0320473843
11
152.788745368
21
76.2823337553
0
LINE
8
0
10
152.788745368
20
76.2823337553
11
152.720956811
21
77.5326201262
0
LINE
8
0
10
152.720956811
20
77.5326201262
11
152.268152486
21
77.6905616043
0
LINE
8
0
10
152.268152486
20
77.6905616043
11
151.449256017
21
77.9434289085
0
LINE
8
0
10
151.449256017
20
77.9434289085
11
150.711963152
21
78.1422445369
0
LINE
8
0
10
150.711963152
20
78.1422445369
11
150.058991394
21
78.2932620663
0
LINE
8
0
10
150.058991394
20
78.2932620663
11
149.492712037
21
78.4028565512
0
LINE
8
0
10
149.492712037
20
78.4028565512
11
149.015145092
21
78.477507643
0
LINE
8
0
10
149.015145092
20
78.477507643
11
148.627954977
21
78.5237825074
0
LINE
8
0
10
148.627954977
20
78.5237825074
11
148.22398035
21
78.5573245725
0
LINE
8
0
10
148.22398035
20
78.5573245725
11
147.923154393
21
78.6080164541
0
LINE
8
0
10
147.923154393
20
78.6080164541
11
147.720078992
21
78.6799464826
0
LINE
8
0
10
147.720078992
20
78.6799464826
11
147.615770618
21
78.766109115
0
LINE
8
0
10
147.615770618
20
78.766109115
11
147.466811086
21
81.5135060285
0
LINE
8
0
10
147.466811086
20
81.5135060285
11
147.56119218
21
81.6104412909
0
LINE
8
0
10
147.56119218
20
81.6104412909
11
147.755300141
21
81.7039059755
0
LINE
8
0
10
147.755300141
20
81.7039059755
11
148.048881887
21
81.7868257063
0
LINE
8
0
10
148.048881887
20
81.7868257063
11
148.446861862
21
81.8638484865
0
LINE
8
0
10
148.446861862
20
81.8638484865
11
148.826779058
21
81.9517147008
0
LINE
8
0
10
148.826779058
20
81.9517147008
11
149.293475283
21
82.0775622541
0
LINE
8
0
10
149.293475283
20
82.0775622541
11
149.844585838
21
82.2477398596
0
LINE
8
0
10
149.844585838
20
82.2477398596
11
150.47740198
21
82.4684707833
0
LINE
8
0
10
150.47740198
20
82.4684707833
11
151.188877053
21
82.7458363269
0
LINE
8
0
10
151.188877053
20
82.7458363269
11
151.975633351
21
83.0857595945
0
LINE
8
0
10
151.975633351
20
83.0857595945
11
152.40870684
21
83.291731972
0
LINE
8
0
10
152.40870684
20
83.291731972
11
152.340918282
21
84.542018343
0
LINE
8
0
10
152.340918282
20
84.542018343
11
152.138347369
21
85.7776462494
0
LINE
8
0
10
152.138347369
20
85.7776462494
11
151.671120925
21
85.8857051086
0
LINE
8
0
10
151.671120925
20
85.8857051086
11
150.829685098
21
86.0485518115
0
LINE
8
0
10
150.829685098
20
86.0485518115
11
150.075218524
21
86.1664865932
0
LINE
8
0
10
150.075218524
20
86.1664865932
11
149.409746647
21
86.2460201859
0
LINE
8
0
10
149.409746647
20
86.2460201859
11
148.834937597
21
86.293746655
0
LINE
8
0
10
148.834937597
20
86.293746655
11
148.352098966
21
86.3163260695
0
LINE
8
0
10
148.352098966
20
86.3163260695
11
147.962175384
21
86.3204670536
0
LINE
8
0
10
147.962175384
20
86.3204670536
11
147.556942338
21
86.3101351535
0
LINE
8
0
10
147.556942338
20
86.3101351535
11
147.252399079
21
86.3280048699
0
LINE
8
0
10
147.252399079
20
86.3280048699
11
147.042737111
21
86.3775569285
0
LINE
8
0
10
147.042737111
20
86.3775569285
11
146.929724378
21
86.4519367528
0
LINE
8
0
10
146.929724378
20
86.4519367528
11
146.484592195
21
89.1671229494
0
LINE
8
0
10
146.484592195
20
89.1671229494
11
146.567939478
21
89.2736943645
0
LINE
8
0
10
146.567939478
20
89.2736943645
11
146.75080426
21
89.3875979173
0
LINE
8
0
10
146.75080426
20
89.3875979173
11
147.033699817
21
89.5017733393
0
LINE
8
0
10
147.033699817
20
89.5017733393
11
147.421019189
21
89.6213738129
0
LINE
8
0
10
147.421019189
20
89.6213738129
11
147.789209286
21
89.7498012261
0
LINE
8
0
10
147.789209286
20
89.7498012261
11
148.239563203
21
89.9253697933
0
LINE
8
0
10
148.239563203
20
89.9253697933
11
148.769043689
21
90.1541353426
0
LINE
8
0
10
148.769043689
20
90.1541353426
11
149.374285025
21
90.4419917924
0
LINE
8
0
10
149.374285025
20
90.4419917924
11
150.05160091
21
90.7946553938
0
LINE
8
0
10
150.05160091
20
90.7946553938
11
150.796993039
21
91.2176493353
0
LINE
8
0
10
150.796993039
20
91.2176493353
11
151.205258301
21
91.4692377744
0
LINE
8
0
10
151.205258301
20
91.4692377744
11
151.002687388
21
92.7048656808
0
LINE
8
0
10
151.002687388
20
92.7048656808
11
150.667709078
21
93.9113485152
0
LINE
8
0
10
150.667709078
20
93.9113485152
11
150.191538317
21
93.9682578643
0
LINE
8
0
10
150.191538317
20
93.9682578643
11
149.337428197
21
94.039174737
0
LINE
8
0
10
149.337428197
20
94.039174737
11
148.574633346
21
94.0748459946
0
LINE
8
0
10
148.574633346
20
94.0748459946
11
147.9044634
21
94.0819631919
0
LINE
8
0
10
147.9044634
20
94.0819631919
11
147.327863766
21
94.0672620961
0
LINE
8
0
10
147.327863766
20
94.0672620961
11
146.845414292
21
94.0375051103
0
LINE
8
0
10
146.845414292
20
94.0375051103
11
146.457328739
21
93.9994636648
0
LINE
8
0
10
146.457328739
20
93.9994636648
11
146.055588262
21
93.9453789316
0
LINE
8
0
10
146.055588262
20
93.9453789316
11
145.750898192
21
93.9302169768
0
LINE
8
0
10
145.750898192
20
93.9302169768
11
145.537107752
21
93.9568101128
0
LINE
8
0
10
145.537107752
20
93.9568101128
11
145.41671563
21
94.0185350936
0
LINE
8
0
10
145.41671563
20
94.0185350936
11
144.680629565
21
96.6696774978
0
LINE
8
0
10
144.680629565
20
96.6696774978
11
144.751965866
21
96.7846356131
0
LINE
8
0
10
144.751965866
20
96.7846356131
11
144.921443546
21
96.917642619
0
LINE
8
0
10
144.921443546
20
96.917642619
11
145.190336223
21
97.0617351298
0
LINE
8
0
10
145.190336223
20
97.0617351298
11
145.562454026
21
97.2225110906
0
LINE
8
0
10
145.562454026
20
97.2225110906
11
145.914600331
21
97.3899940087
0
LINE
8
0
10
145.914600331
20
97.3899940087
11
146.343331954
21
97.6132252089
0
LINE
8
0
10
146.343331954
20
97.6132252089
11
146.844974695
21
97.8978966351
0
LINE
8
0
10
146.844974695
20
97.8978966351
11
147.415545324
21
98.2495037572
0
LINE
8
0
10
147.415545324
20
98.2495037572
11
148.050761112
21
98.6733307582
0
LINE
8
0
10
148.050761112
20
98.6733307582
11
148.74605003
21
99.1744361563
0
LINE
8
0
10
148.74605003
20
99.1744361563
11
149.124720529
21
99.4686910127
0
LINE
8
0
10
149.124720529
20
99.4686910127
11
148.789742219
21
100.675173847
0
LINE
8
0
10
148.789742219
20
100.675173847
11
148.326283826
21
101.838366701
0
LINE
8
0
10
148.326283826
20
101.838366701
11
147.846751416
21
101.84345933
0
LINE
8
0
10
147.846751416
20
101.84345933
11
146.989980664
21
101.821614937
0
LINE
8
0
10
146.989980664
20
101.821614937
11
146.227800607
21
101.774604458
0
LINE
8
0
10
146.227800607
20
101.774604458
11
145.560789721
21
101.709221817
0
LINE
8
0
10
145.560789721
20
101.709221817
11
144.989159607
21
101.632265513
0
LINE
8
0
10
144.989159607
20
101.632265513
11
144.512755569
21
101.550521001
0
LINE
8
0
10
144.512755569
20
101.550521001
11
144.131057994
21
101.470743127
0
LINE
8
0
10
144.131057994
20
101.470743127
11
143.737520125
21
101.373539654
0
LINE
8
0
10
143.737520125
20
101.373539654
11
143.436255457
21
101.325523788
0
LINE
8
0
10
143.436255457
20
101.325523788
11
143.220843041
21
101.328846222
0
LINE
8
0
10
143.220843041
20
101.328846222
11
143.094483019
21
101.37719269
0
LINE
8
0
10
143.094483019
20
101.37719269
11
142.076073008
21
103.933209081
0
LINE
8
0
10
142.076073008
20
103.933209081
11
142.134561974
21
104.055206118
0
LINE
8
0
10
142.134561974
20
104.055206118
11
142.288665581
21
104.205757191
0
LINE
8
0
10
142.288665581
20
104.205757191
11
142.540402857
21
104.378077438
0
LINE
8
0
10
142.540402857
20
104.378077438
11
142.892956351
21
104.578143935
0
LINE
8
0
10
142.892956351
20
104.578143935
11
143.22493027
21
104.782718774
0
LINE
8
0
10
143.22493027
20
104.782718774
11
143.627013111
21
105.050995425
0
LINE
8
0
10
143.627013111
20
105.050995425
11
144.094936806
21
105.388235216
0
LINE
8
0
10
144.094936806
20
105.388235216
11
144.624147309
21
105.799470739
0
LINE
8
0
10
144.624147309
20
105.799470739
11
145.209815675
21
106.289492155
0
LINE
8
0
10
145.209815675
20
106.289492155
11
145.846849756
21
106.862834007
0
LINE
8
0
10
145.846849756
20
106.862834007
11
146.191485926
21
107.196305412
0
LINE
8
0
10
146.191485926
20
107.196305412
11
145.728027533
21
108.359498266
0
LINE
8
0
10
145.728027533
20
108.359498266
11
145.141522684
21
109.465763767
0
LINE
8
0
10
145.141522684
20
109.465763767
11
144.664250704
21
109.418979969
0
LINE
8
0
10
144.664250704
20
109.418979969
11
143.814864172
21
109.304630417
0
LINE
8
0
10
143.814864172
20
109.304630417
11
143.062234774
21
109.175489355
0
LINE
8
0
10
143.062234774
20
109.175489355
11
142.406203042
21
109.038373428
0
LINE
8
0
10
142.406203042
20
109.038373428
11
141.846244288
21
108.900064158
0
LINE
8
0
10
141.846244288
20
108.900064158
11
141.381471087
21
108.767290499
0
LINE
8
0
10
141.381471087
20
108.767290499
11
141.010636545
21
108.646711519
0
LINE
8
0
10
141.010636545
20
108.646711519
11
140.629915156
21
108.507528929
0
LINE
8
0
10
140.629915156
20
108.507528929
11
140.335607943
21
108.427222094
0
LINE
8
0
10
140.335607943
20
108.427222094
11
140.121099066
21
108.407234872
0
LINE
8
0
10
140.121099066
20
108.407234872
11
139.990252599
21
108.44163601
0
LINE
8
0
10
139.990252599
20
108.44163601
11
138.701458567
21
110.872559433
0
LINE
8
0
10
138.701458567
20
110.872559433
11
138.746414469
21
111.000165087
0
LINE
8
0
10
138.746414469
20
111.000165087
11
138.88333728
21
111.166495155
0
LINE
8
0
10
138.88333728
20
111.166495155
11
139.114967765
21
111.36502284
0
LINE
8
0
10
139.114967765
20
111.36502284
11
139.443823582
21
111.602034276
0
LINE
8
0
10
139.443823582
20
111.602034276
11
139.751733025
21
111.841302583
0
LINE
8
0
10
139.751733025
20
111.841302583
11
140.122453031
21
112.151479387
0
LINE
8
0
10
140.122453031
20
112.151479387
11
140.551171702
21
112.537333714
0
LINE
8
0
10
140.551171702
20
112.537333714
11
141.032817569
21
113.003376277
0
LINE
8
0
10
141.032817569
20
113.003376277
11
141.562072088
21
113.553847055
0
LINE
8
0
10
141.562072088
20
113.553847055
11
142.13338269
21
114.192703453
0
LINE
8
0
10
142.13338269
20
114.192703453
11
142.439943987
21
114.561481758
0
LINE
8
0
10
142.439943987
20
114.561481758
11
141.853439137
21
115.667747259
0
LINE
8
0
10
141.853439137
20
115.667747259
11
141.150764064
21
116.704115456
0
LINE
8
0
10
141.150764064
20
116.704115456
11
140.681348091
21
116.606003729
0
LINE
8
0
10
140.681348091
20
116.606003729
11
139.849304061
21
116.40048966
0
LINE
8
0
10
139.849304061
20
116.40048966
11
139.115049214
21
116.190732077
0
LINE
8
0
10
139.115049214
20
116.190732077
11
138.477688008
21
115.983490422
0
LINE
8
0
10
138.477688008
20
115.983490422
11
137.935965618
21
115.785449737
0
LINE
8
0
10
137.935965618
20
115.785449737
11
137.488272295
21
115.60320358
0
LINE
8
0
10
137.488272295
20
115.60320358
11
137.132648482
21
115.443237172
0
LINE
8
0
10
137.132648482
20
115.443237172
11
136.769207183
21
115.263707254
0
LINE
8
0
10
136.769207183
20
115.263707254
11
136.485307908
21
115.152050975
0
LINE
8
0
10
136.485307908
20
115.152050975
11
136.27421749
21
115.108988429
0
LINE
8
0
10
136.27421749
20
115.108988429
11
136.140418633
21
115.129040915
0
LINE
8
0
10
136.140418633
20
115.129040915
11
134.596350513
21
117.406371014
0
LINE
8
0
10
134.596350513
20
117.406371014
11
134.627246283
21
117.538089227
0
LINE
8
0
10
134.627246283
20
117.538089227
11
134.745383003
21
117.71824822
0
LINE
8
0
10
134.745383003
20
117.71824822
11
134.954191042
21
117.940655788
0
LINE
8
0
10
134.954191042
20
117.940655788
11
135.255493648
21
118.211833421
0
LINE
8
0
10
135.255493648
20
118.211833421
11
135.535728659
21
118.482989994
0
LINE
8
0
10
135.535728659
20
118.482989994
11
135.870739476
21
118.831430412
0
LINE
8
0
10
135.870739476
20
118.831430412
11
136.255226789
21
119.261375486
0
LINE
8
0
10
136.255226789
20
119.261375486
11
136.683661163
21
119.776761165
0
LINE
8
0
10
136.683661163
20
119.776761165
11
137.150296809
21
120.38122754
0
LINE
8
0
10
137.150296809
20
120.38122754
11
137.649185837
21
121.078108475
0
LINE
8
0
10
137.649185837
20
121.078108475
11
137.91407811
21
121.477870093
0
LINE
8
0
10
137.91407811
20
121.477870093
11
137.211403037
21
122.51423829
0
LINE
8
0
10
137.211403037
20
122.51423829
11
136.400795963
21
123.468558713
0
LINE
8
0
10
136.400795963
20
123.468558713
11
135.94473947
21
123.320269326
0
LINE
8
0
10
135.94473947
20
123.320269326
11
135.139792897
21
123.026000206
0
LINE
8
0
10
135.139792897
20
123.026000206
11
134.432521068
21
122.738085318
0
LINE
8
0
10
134.432521068
20
122.738085318
11
133.821302864
21
122.463147654
0
LINE
8
0
10
133.821302864
20
122.463147654
11
133.304168039
21
122.207697399
0
LINE
8
0
10
133.304168039
20
122.207697399
11
132.878803389
21
121.978115414
0
LINE
8
0
10
132.878803389
20
121.978115414
11
132.542559669
21
121.780637039
0
LINE
8
0
10
132.542559669
20
121.780637039
11
132.200659477
21
121.562864616
0
LINE
8
0
10
132.200659477
20
121.562864616
11
131.930496599
21
121.421167959
0
LINE
8
0
10
131.930496599
20
121.421167959
11
131.725299482
21
121.35553496
0
LINE
8
0
10
131.725299482
20
121.35553496
11
131.590116905
21
121.361003695
0
LINE
8
0
10
131.590116905
20
121.361003695
11
129.808877483
21
123.458040859
0
LINE
8
0
10
129.808877483
20
123.458040859
11
129.825350897
21
123.592327354
0
LINE
8
0
10
129.825350897
20
123.592327354
11
129.923316481
21
123.784203074
0
LINE
8
0
10
129.923316481
20
123.784203074
11
130.10685399
21
124.027882999
0
LINE
8
0
10
130.10685399
20
124.027882999
11
130.377070888
21
124.33004752
0
LINE
8
0
10
130.377070888
20
124.33004752
11
130.626345967
21
124.629913295
0
LINE
8
0
10
130.626345967
20
124.629913295
11
130.921719901
21
125.012532181
0
LINE
8
0
10
130.921719901
20
125.012532181
11
131.257468093
21
125.48152729
0
LINE
8
0
10
131.257468093
20
125.48152729
11
131.627667972
21
126.04021366
0
LINE
8
0
10
131.627667972
20
126.04021366
11
132.026213869
21
126.691588815
0
LINE
8
0
10
132.026213869
20
126.691588815
11
132.446832305
21
127.438323996
0
LINE
8
0
10
132.446832305
20
127.438323996
11
132.666949935
21
127.864382086
0
LINE
8
0
10
132.666949935
20
127.864382086
11
131.856342861
21
128.81870251
0
LINE
8
0
10
131.856342861
20
128.81870251
11
130.947307413
21
129.679786624
0
LINE
8
0
10
130.947307413
20
129.679786624
11
130.509957246
21
129.483058136
0
LINE
8
0
10
130.509957246
20
129.483058136
11
129.741545393
21
129.103484001
0
LINE
8
0
10
129.741545393
20
129.103484001
11
129.069548696
21
128.740787346
0
LINE
8
0
10
129.069548696
20
128.740787346
11
128.49163947
21
128.401377067
0
LINE
8
0
10
128.49163947
20
128.401377067
11
128.005155142
21
128.091512162
0
LINE
8
0
10
128.005155142
20
128.091512162
11
127.607106177
21
127.817285988
0
LINE
8
0
10
127.607106177
20
127.817285988
11
127.2941847
21
127.584610899
0
LINE
8
0
10
127.2941847
20
127.584610899
11
126.977834082
21
127.331149154
0
LINE
8
0
10
126.977834082
20
127.331149154
11
126.724575014
21
127.161073384
0
LINE
8
0
10
126.724575014
20
127.161073384
11
126.527676947
21
127.073639417
0
LINE
8
0
10
126.527676947
20
127.073639417
11
126.392695542
21
127.064460287
0
LINE
8
0
10
126.392695542
20
127.064460287
11
124.395168222
21
128.956618671
0
LINE
8
0
10
124.395168222
20
128.956618671
11
124.397026144
21
129.091899063
0
LINE
8
0
10
124.397026144
20
129.091899063
11
124.473672035
21
129.293241941
0
LINE
8
0
10
124.473672035
20
129.293241941
11
124.629787205
21
129.5553373
0
LINE
8
0
10
124.629787205
20
129.5553373
11
124.865750349
21
129.884946105
0
LINE
8
0
10
124.865750349
20
129.884946105
11
125.081142973
21
130.210005431
0
LINE
8
0
10
125.081142973
20
130.210005431
11
125.333417034
21
130.622316928
0
LINE
8
0
10
125.333417034
20
130.622316928
11
125.616489765
21
131.124863533
0
LINE
8
0
10
125.616489765
20
131.124863533
11
125.924114894
21
131.720300507
0
LINE
8
0
10
125.924114894
20
131.720300507
11
126.249898456
21
132.410947664
0
LINE
8
0
10
126.249898456
20
132.410947664
11
126.587314934
21
133.198782304
0
LINE
8
0
10
126.587314934
20
133.198782304
11
126.760077242
21
133.646141726
0
LINE
8
0
10
126.760077242
20
133.646141726
11
125.851041794
21
134.50722584
0
LINE
8
0
10
125.851041794
20
134.50722584
11
124.854235582
21
135.264978223
0
LINE
8
0
10
124.854235582
20
135.264978223
11
124.440719271
21
135.022117095
0
LINE
8
0
10
124.440719271
20
135.022117095
11
123.717851064
21
134.561688104
0
LINE
8
0
10
123.717851064
20
134.561688104
11
123.089008047
21
134.128461969
0
LINE
8
0
10
123.089008047
20
134.128461969
11
122.551183256
21
133.728558349
0
LINE
8
0
10
122.551183256
20
133.728558349
11
122.101053009
21
133.367911678
0
LINE
8
0
10
122.101053009
20
133.367911678
11
121.734986489
21
133.052256366
0
LINE
8
0
10
121.734986489
20
133.052256366
11
121.449055974
21
132.787112465
0
LINE
8
0
10
121.449055974
20
132.787112465
11
121.161963852
21
132.500933006
0
LINE
8
0
10
121.161963852
20
132.500933006
11
120.928577824
21
132.304472105
0
LINE
8
0
10
120.928577824
20
132.304472105
11
120.742287257
21
132.196262254
0
LINE
8
0
10
120.742287257
20
132.196262254
11
120.609089557
21
132.172542876
0
LINE
8
0
10
120.609089557
20
132.172542876
11
118.418693521
21
133.837638653
0
LINE
8
0
10
118.418693521
20
133.837638653
11
118.405914168
21
133.972326902
0
LINE
8
0
10
118.405914168
20
133.972326902
11
118.460341763
21
134.180776379
0
LINE
8
0
10
118.460341763
20
134.180776379
11
118.587204287
21
134.458214342
0
LINE
8
0
10
118.587204287
20
134.458214342
11
118.786147224
21
134.811403069
0
LINE
8
0
10
118.786147224
20
134.811403069
11
118.965132112
21
135.157844923
0
LINE
8
0
10
118.965132112
20
135.157844923
11
119.171348617
21
135.595015056
0
LINE
8
0
10
119.171348617
20
135.595015056
11
119.398427118
21
136.125221257
0
LINE
8
0
10
119.398427118
20
136.125221257
11
119.639870875
21
136.750427881
0
LINE
8
0
10
119.639870875
20
136.750427881
11
119.889072586
21
137.472249834
0
LINE
8
0
10
119.889072586
20
137.472249834
11
120.139331207
21
138.291947292
0
LINE
8
0
10
120.139331207
20
138.291947292
11
120.262712713
21
138.755363165
0
LINE
8
0
10
120.262712713
20
138.755363165
11
119.265906501
21
139.513115547
0
LINE
8
0
10
119.265906501
20
139.513115547
11
118.193016166
21
140.158652243
0
LINE
8
0
10
118.193016166
20
140.158652243
11
117.808181812
21
139.8725058
0
LINE
8
0
10
117.808181812
20
139.8725058
11
117.13933222
21
139.336620062
0
LINE
8
0
10
117.13933222
20
139.336620062
11
116.561015492
21
138.837943628
0
LINE
8
0
10
116.561015492
20
138.837943628
11
116.06958064
21
138.382235172
0
LINE
8
0
10
116.06958064
20
138.382235172
11
115.66108184
21
137.975034986
0
LINE
8
0
10
115.66108184
20
137.975034986
11
115.33128956
21
137.621651307
0
LINE
8
0
10
115.33128956
20
137.621651307
11
115.07570228
21
137.327147164
0
LINE
8
0
10
115.07570228
20
137.327147164
11
114.821234546
21
137.011605183
0
LINE
8
0
10
114.821234546
20
137.011605183
11
114.610457797
21
136.791062476
0
LINE
8
0
10
114.610457797
20
136.791062476
11
114.436958816
21
136.663345402
0
LINE
8
0
10
114.436958816
20
136.663345402
11
114.307106442
21
136.625363864
0
LINE
8
0
10
114.307106442
20
136.625363864
11
111.949522081
21
138.043875309
0
LINE
8
0
10
111.949522081
20
138.043875309
11
111.92225528
21
138.176392318
0
LINE
8
0
10
111.92225528
20
138.176392318
11
111.953826466
21
138.389504513
0
LINE
8
0
10
111.953826466
20
138.389504513
11
112.049948995
21
138.679032375
0
LINE
8
0
10
112.049948995
20
138.679032375
11
112.209539302
21
139.05166021
0
LINE
8
0
10
112.209539302
20
139.05166021
11
112.350018019
21
139.415422877
0
LINE
8
0
10
112.350018019
20
139.415422877
11
112.507759269
21
139.872326226
0
LINE
8
0
10
112.507759269
20
139.872326226
11
112.676181252
21
140.42397584
0
LINE
8
0
10
112.676181252
20
140.42397584
11
112.848612929
21
141.071622138
0
LINE
8
0
10
112.848612929
20
141.071622138
11
113.018311128
21
141.816156184
0
LINE
8
0
10
113.018311128
20
141.816156184
11
113.178477837
21
142.658106257
0
LINE
8
0
10
113.178477837
20
142.658106257
11
113.251032007
21
143.132145453
0
LINE
8
0
10
113.251032007
20
143.132145453
11
112.178141671
21
143.77768215
0
LINE
8
0
10
112.178141671
20
143.77768215
11
111.041745871
21
144.303434832
0
LINE
8
0
10
111.041745871
20
144.303434832
11
110.690105305
21
143.977357879
0
LINE
8
0
10
110.690105305
20
143.977357879
11
110.083115978
21
143.372298165
0
LINE
8
0
10
110.083115978
20
143.372298165
11
109.562105774
21
142.814017957
0
LINE
8
0
10
109.562105774
20
142.814017957
11
109.122822485
21
142.307847429
0
LINE
8
0
10
109.122822485
20
142.307847429
11
108.760744407
21
141.858867779
0
LINE
8
0
10
108.760744407
20
141.858867779
11
108.47109288
21
141.471898832
0
LINE
8
0
10
108.47109288
20
141.471898832
11
108.248845363
21
141.15148724
0
LINE
8
0
10
108.248845363
20
141.15148724
11
108.029985419
21
140.810282177
0
LINE
8
0
10
108.029985419
20
140.810282177
11
107.844289114
21
140.568243326
0
LINE
8
0
10
107.844289114
20
140.568243326
11
107.685615835
21
140.422516396
0
LINE
8
0
10
107.685615835
20
140.422516396
11
107.560631189
21
140.370717995
0
LINE
8
0
10
107.560631189
20
140.370717995
11
105.063499022
21
141.526014359
0
LINE
8
0
10
105.063499022
20
141.526014359
11
105.022064452
21
141.654806488
0
LINE
8
0
10
105.022064452
20
141.654806488
11
105.030409084
21
141.870082856
0
LINE
8
0
10
105.030409084
20
141.870082856
11
105.094664671
21
142.168306166
0
LINE
8
0
10
105.094664671
20
142.168306166
11
105.213031297
21
142.556004388
0
LINE
8
0
10
105.213031297
20
142.556004388
11
105.31335686
21
142.932823084
0
LINE
8
0
10
105.31335686
20
142.932823084
11
105.420773482
21
143.404102875
0
LINE
8
0
10
105.420773482
20
143.404102875
11
105.528564353
21
143.970728315
0
LINE
8
0
10
105.528564353
20
143.970728315
11
105.629962346
21
144.633221227
0
LINE
8
0
10
105.629962346
20
144.633221227
11
105.718167477
21
145.391738385
0
LINE
8
0
10
105.718167477
20
145.391738385
11
105.786364467
21
146.246069977
0
LINE
8
0
10
105.786364467
20
146.246069977
11
105.807240668
21
146.725174821
0
LINE
8
0
10
105.807240668
20
146.725174821
11
104.670844868
21
147.250927504
0
LINE
8
0
10
104.670844868
20
147.250927504
11
103.484266804
21
147.650732203
0
LINE
8
0
10
103.484266804
20
147.650732203
11
103.169942691
21
147.288547694
0
LINE
8
0
10
103.169942691
20
147.288547694
11
102.631930024
21
146.621407776
0
LINE
8
0
10
102.631930024
20
146.621407776
11
102.174334712
21
146.010069118
0
LINE
8
0
10
102.174334712
20
146.010069118
11
101.792353181
21
145.459370906
0
LINE
8
0
10
101.792353181
20
145.459370906
11
101.480940859
21
144.973875668
0
LINE
8
0
10
101.480940859
20
144.973875668
11
101.234825985
21
144.55785831
0
LINE
8
0
10
101.234825985
20
144.55785831
11
101.048523878
21
144.215295801
0
LINE
8
0
10
101.048523878
20
144.215295801
11
100.867837657
21
143.852427975
0
LINE
8
0
10
100.867837657
20
143.852427975
11
100.709398915
21
143.591730664
0
LINE
8
0
10
100.709398915
20
143.591730664
11
100.567411638
21
143.429702392
0
LINE
8
0
10
100.567411638
20
143.429702392
11
100.44876005
21
143.364694418
0
LINE
8
0
10
100.44876005
20
143.364694418
11
97.8413566704
21
144.243230906
0
LINE
8
0
10
97.8413566704
20
144.243230906
11
97.7862401126
21
144.366788185
0
LINE
8
0
10
97.7862401126
20
144.366788185
11
97.7712603588
21
144.581704808
0
LINE
8
0
10
97.7712603588
20
144.581704808
11
97.8028956651
21
144.885127171
0
LINE
8
0
10
97.8028956651
20
144.885127171
11
97.8786508693
21
145.283350373
0
LINE
8
0
10
97.8786508693
20
145.283350373
11
97.9376470521
21
145.668807242
0
LINE
8
0
10
97.9376470521
20
145.668807242
11
97.9934796846
21
146.148938152
0
LINE
8
0
10
97.9934796846
20
146.148938152
11
98.0393756949
21
146.723896252
0
LINE
8
0
10
98.0393756949
20
146.723896252
11
98.0685512051
21
147.393468653
0
LINE
8
0
10
98.0685512051
20
147.393468653
11
98.0742291432
21
148.157076003
0
LINE
8
0
10
98.0742291432
20
148.157076003
11
98.0496568659
21
149.013772859
0
LINE
8
0
10
98.0496568659
20
149.013772859
11
98.0186103446
21
149.492326284
0
LINE
8
0
10
98.0186103446
20
149.492326284
11
96.8320322813
21
149.892130984
0
LINE
8
0
10
96.8320322813
20
149.892130984
11
95.6091834978
21
150.161300355
0
LINE
8
0
10
95.6091834978
20
150.161300355
11
95.335860999
21
149.767254573
0
LINE
8
0
10
95.335860999
20
149.767254573
11
94.8731326983
21
149.045856056
0
LINE
8
0
10
94.8731326983
20
149.045856056
11
94.4843171657
21
148.388626335
0
LINE
8
0
10
94.4843171657
20
148.388626335
11
94.1641157767
21
147.799856872
0
LINE
8
0
10
94.1641157767
20
147.799856872
11
93.9070202363
21
147.283538032
0
LINE
8
0
10
93.9070202363
20
147.283538032
11
93.7073274859
21
146.843349688
0
LINE
8
0
10
93.7073274859
20
146.843349688
11
93.5591550126
21
146.482652494
0
LINE
8
0
10
93.5591550126
20
146.482652494
11
93.4187608953
21
146.102376198
0
LINE
8
0
10
93.4187608953
20
146.102376198
11
93.2894372647
21
145.826076864
0
LINE
8
0
10
93.2894372647
20
145.826076864
11
93.1658006616
21
145.649646884
0
LINE
8
0
10
93.1658006616
20
145.649646884
11
93.0548732118
21
145.572191497
0
LINE
8
0
10
93.0548732118
20
145.572191497
11
90.3677680401
21
146.163668072
0
LINE
8
0
10
90.3677680401
20
146.163668072
11
90.2996156862
21
146.280541905
0
LINE
8
0
10
90.2996156862
20
146.280541905
11
90.2614871702
21
146.49257908
0
LINE
8
0
10
90.2614871702
20
146.49257908
11
90.2601313009
21
146.797643147
0
LINE
8
0
10
90.2601313009
20
146.797643147
11
90.2923869232
21
147.201722526
0
LINE
8
0
10
90.2923869232
20
147.201722526
11
90.3093620494
21
147.59129844
0
LINE
8
0
10
90.3093620494
20
147.59129844
11
90.312956106
21
148.074651371
0
LINE
8
0
10
90.312956106
20
148.074651371
11
90.2964191665
21
148.651201274
0
LINE
8
0
10
90.2964191665
20
148.651201274
11
90.2530301378
21
149.32000304
0
LINE
8
0
10
90.2530301378
20
149.32000304
11
90.1761143145
21
150.079747984
0
LINE
8
0
10
90.1761143145
20
150.079747984
11
90.0590608577
21
150.928766116
0
LINE
8
0
10
90.0590608577
20
150.928766116
11
89.9764556058
21
151.401157521
0
LINE
8
0
10
89.9764556058
20
151.401157521
11
88.7536068223
21
151.670326893
0
LINE
8
0
10
88.7536068223
20
151.670326893
11
87.5088241026
21
151.805705172
0
LINE
8
0
10
87.5088241026
20
151.805705172
11
87.2797076752
21
151.384417942
0
LINE
8
0
10
87.2797076752
20
151.384417942
11
86.8976888071
21
150.617218565
0
LINE
8
0
10
86.8976888071
20
150.617218565
11
86.5822115601
21
149.9218032
0
LINE
8
0
10
86.5822115601
20
149.9218032
11
86.3275443819
21
149.301865268
0
LINE
8
0
10
86.3275443819
20
149.301865268
11
86.1277798326
21
148.760776194
0
LINE
8
0
10
86.1277798326
20
148.760776194
11
85.9768504214
21
148.301577669
0
LINE
8
0
10
85.9768504214
20
148.301577669
11
85.8685447681
21
147.926974635
0
LINE
8
0
10
85.8685447681
20
147.926974635
11
85.770088747
21
147.53374826
0
LINE
8
0
10
85.770088747
20
147.53374826
11
85.6713964298
21
147.245086261
0
LINE
8
0
10
85.6713964298
20
147.245086261
11
85.567560026
21
147.056323053
0
LINE
8
0
10
85.567560026
20
147.056323053
11
85.4656572381
21
146.967328345
0
LINE
8
0
10
85.4656572381
20
146.967328345
11
82.7303541254
21
147.264810486
0
LINE
8
0
10
82.7303541254
20
147.264810486
11
82.6499649994
21
147.373630634
0
LINE
8
0
10
82.6499649994
20
147.373630634
11
82.5891347431
21
147.580302421
0
LINE
8
0
10
82.5891347431
20
147.580302421
11
82.5548035945
21
147.883431594
0
LINE
8
0
10
82.5548035945
20
147.883431594
11
82.5431814671
21
148.288629688
0
LINE
8
0
10
82.5431814671
20
148.288629688
11
82.517936519
21
148.677757225
0
LINE
8
0
10
82.517936519
20
148.677757225
11
82.4692498627
21
149.158665306
0
LINE
8
0
10
82.4692498627
20
149.158665306
11
82.3904738538
21
149.730047491
0
LINE
8
0
10
82.3904738538
20
149.730047491
11
82.2750289829
21
150.390237534
0
LINE
8
0
10
82.2750289829
20
150.390237534
11
82.1164211659
21
151.137212758
0
LINE
8
0
10
82.1164211659
20
151.137212758
11
81.9082588744
21
151.968598204
0
LINE
8
0
10
81.9082588744
20
151.968598204
11
81.7750633631
21
152.429289231
0
LINE
8
0
10
81.7750633631
20
152.429289231
11
80.5302806433
21
152.564667511
0
LINE
8
0
10
80.5302806433
20
152.564667511
11
79.2781579265
21
152.564667511
0
LINE
8
0
10
79.2781579265
20
152.564667511
11
79.0959337512
21
152.121078041
0
LINE
8
0
10
79.0959337512
20
152.121078041
11
78.7991031377
21
151.317072515
0
LINE
8
0
10
78.7991031377
20
151.317072515
11
78.5606628585
21
150.591624614
0
LINE
8
0
10
78.5606628585
20
150.591624614
11
78.3745156309
21
149.947786419
0
LINE
8
0
10
78.3745156309
20
149.947786419
11
78.2344241295
21
149.388270886
0
LINE
8
0
10
78.2344241295
20
149.388270886
11
78.1340275668
21
148.915445862
0
LINE
8
0
10
78.1340275668
20
148.915445862
11
78.0668585182
21
148.531328866
0
LINE
8
0
10
78.0668585182
20
148.531328866
11
78.0114949001
21
148.129762634
0
LINE
8
0
10
78.0114949001
20
148.129762634
11
77.9445909735
21
147.832122267
0
LINE
8
0
10
77.9445909735
20
147.832122267
11
77.861772156
21
147.633238907
0
LINE
8
0
10
77.861772156
20
147.633238907
11
77.770088747
21
147.53374826
0
LINE
8
0
10
77.770088747
20
147.53374826
11
75.0186566213
21
147.53374826
0
LINE
8
0
10
75.0186566213
20
147.53374826
11
74.9269732122
21
147.633238907
0
LINE
8
0
10
74.9269732122
20
147.633238907
11
74.8441543947
21
147.832122267
0
LINE
8
0
10
74.8441543947
20
147.832122267
11
74.7772504681
21
148.129762634
0
LINE
8
0
10
74.7772504681
20
148.129762634
11
74.72188685
21
148.531328866
0
LINE
8
0
10
74.72188685
20
148.531328866
11
74.6547178014
21
148.915445862
0
LINE
8
0
10
74.6547178014
20
148.915445862
11
74.5543212387
21
149.388270886
0
LINE
8
0
10
74.5543212387
20
149.388270886
11
74.4142297373
21
149.947786419
0
LINE
8
0
10
74.4142297373
20
149.947786419
11
74.2280825097
21
150.591624614
0
LINE
8
0
10
74.2280825097
20
150.591624614
11
73.9896422305
21
151.317072515
0
LINE
8
0
10
73.9896422305
20
151.317072515
11
73.692811617
21
152.121078041
0
LINE
8
0
10
73.692811617
20
152.121078041
11
73.5105874417
21
152.564667511
0
LINE
8
0
10
73.5105874417
20
152.564667511
11
72.2584647249
21
152.564667511
0
LINE
8
0
10
72.2584647249
20
152.564667511
11
71.0136820051
21
152.429289231
0
LINE
8
0
10
71.0136820051
20
152.429289231
11
70.8804864938
21
151.968598204
0
LINE
8
0
10
70.8804864938
20
151.968598204
11
70.6723242024
21
151.137212758
0
LINE
8
0
10
70.6723242024
20
151.137212758
11
70.5137163853
21
150.390237534
0
LINE
8
0
10
70.5137163853
20
150.390237534
11
70.3982715144
21
149.730047491
0
LINE
8
0
10
70.3982715144
20
149.730047491
11
70.3194955055
21
149.158665306
0
LINE
8
0
10
70.3194955055
20
149.158665306
11
70.2708088492
21
148.677757225
0
LINE
8
0
10
70.2708088492
20
148.677757225
11
70.2455639011
21
148.288629688
0
LINE
8
0
10
70.2455639011
20
148.288629688
11
70.2339417738
21
147.883431594
0
LINE
8
0
10
70.2339417738
20
147.883431594
11
70.1996106251
21
147.580302421
0
LINE
8
0
10
70.1996106251
20
147.580302421
11
70.1387803688
21
147.373630634
0
LINE
8
0
10
70.1387803688
20
147.373630634
11
70.0583912428
21
147.264810486
0
LINE
8
0
10
70.0583912428
20
147.264810486
11
67.3230881301
21
146.967328345
0
LINE
8
0
10
67.3230881301
20
146.967328345
11
67.2211853422
21
147.056323053
0
LINE
8
0
10
67.2211853422
20
147.056323053
11
67.1173489385
21
147.245086261
0
LINE
8
0
10
67.1173489385
20
147.245086261
11
67.0186566213
21
147.53374826
0
LINE
8
0
10
67.0186566213
20
147.53374826
11
66.9202006001
21
147.926974635
0
LINE
8
0
10
66.9202006001
20
147.926974635
11
66.8118949468
21
148.301577669
0
LINE
8
0
10
66.8118949468
20
148.301577669
11
66.6609655356
21
148.760776194
0
LINE
8
0
10
66.6609655356
20
148.760776194
11
66.4612009863
21
149.301865268
0
LINE
8
0
10
66.4612009863
20
149.301865268
11
66.2065338081
21
149.9218032
0
LINE
8
0
10
66.2065338081
20
149.9218032
11
65.8910565611
21
150.617218565
0
LINE
8
0
10
65.8910565611
20
150.617218565
11
65.509037693
21
151.384417942
0
LINE
8
0
10
65.509037693
20
151.384417942
11
65.2799212657
21
151.805705172
0
LINE
8
0
10
65.2799212657
20
151.805705172
11
64.0351385459
21
151.670326893
0
LINE
8
0
10
64.0351385459
20
151.670326893
11
62.8122897624
21
151.401157521
0
LINE
8
0
10
62.8122897624
20
151.401157521
11
62.7296845105
21
150.928766116
0
LINE
8
0
10
62.7296845105
20
150.928766116
11
62.6126310538
21
150.079747984
0
LINE
8
0
10
62.6126310538
20
150.079747984
11
62.5357152305
21
149.32000304
0
LINE
8
0
10
62.5357152305
20
149.32000304
11
62.4923262017
21
148.651201274
0
LINE
8
0
10
62.4923262017
20
148.651201274
11
62.4757892622
21
148.074651371
0
LINE
8
0
10
62.4757892622
20
148.074651371
11
62.4793833188
21
147.59129844
0
LINE
8
0
10
62.4793833188
20
147.59129844
11
62.496358445
21
147.201722526
0
LINE
8
0
10
62.496358445
20
147.201722526
11
62.5286140673
21
146.797643147
0
LINE
8
0
10
62.5286140673
20
146.797643147
11
62.527258198
21
146.49257908
0
LINE
8
0
10
62.527258198
20
146.49257908
11
62.489129682
21
146.280541905
0
LINE
8
0
10
62.489129682
20
146.280541905
11
62.4209773281
21
146.163668072
0
LINE
8
0
10
62.4209773281
20
146.163668072
11
59.7338721565
21
145.572191497
0
LINE
8
0
10
59.7338721565
20
145.572191497
11
59.6229447066
21
145.649646884
0
LINE
8
0
10
59.6229447066
20
145.649646884
11
59.4993081035
21
145.826076864
0
LINE
8
0
10
59.4993081035
20
145.826076864
11
59.3699844729
21
146.102376198
0
LINE
8
0
10
59.3699844729
20
146.102376198
11
59.2295903556
21
146.482652494
0
LINE
8
0
10
59.2295903556
20
146.482652494
11
59.0814178823
21
146.843349688
0
LINE
8
0
10
59.0814178823
20
146.843349688
11
58.8817251319
21
147.283538032
0
LINE
8
0
10
58.8817251319
20
147.283538032
11
58.6246295915
21
147.799856872
0
LINE
8
0
10
58.6246295915
20
147.799856872
11
58.3044282026
21
148.388626335
0
LINE
8
0
10
58.3044282026
20
148.388626335
11
57.9156126699
21
149.045856056
0
LINE
8
0
10
57.9156126699
20
149.045856056
11
57.4528843692
21
149.767254573
0
LINE
8
0
10
57.4528843692
20
149.767254573
11
57.1795618704
21
150.161300355
0
LINE
8
0
10
57.1795618704
20
150.161300355
11
55.9567130869
21
149.892130984
0
LINE
8
0
10
55.9567130869
20
149.892130984
11
54.7701350237
21
149.492326284
0
LINE
8
0
10
54.7701350237
20
149.492326284
11
54.7390885023
21
149.013772859
0
LINE
8
0
10
54.7390885023
20
149.013772859
11
54.714516225
21
148.157076003
0
LINE
8
0
10
54.714516225
20
148.157076003
11
54.7201941632
21
147.393468653
0
LINE
8
0
10
54.7201941632
20
147.393468653
11
54.7493696733
21
146.723896252
0
LINE
8
0
10
54.7493696733
20
146.723896252
11
54.7952656836
21
146.148938152
0
LINE
8
0
10
54.7952656836
20
146.148938152
11
54.8510983161
21
145.668807242
0
LINE
8
0
10
54.8510983161
20
145.668807242
11
54.9100944989
21
145.283350373
0
LINE
8
0
10
54.9100944989
20
145.283350373
11
54.9858497031
21
144.885127171
0
LINE
8
0
10
54.9858497031
20
144.885127171
11
55.0174850094
21
144.581704808
0
LINE
8
0
10
55.0174850094
20
144.581704808
11
55.0025052556
21
144.366788185
0
LINE
8
0
10
55.0025052556
20
144.366788185
11
54.9473886979
21
144.243230906
0
LINE
8
0
10
54.9473886979
20
144.243230906
11
52.3399853186
21
143.364694418
0
LINE
8
0
10
52.3399853186
20
143.364694418
11
52.2213337298
21
143.429702392
0
LINE
8
0
10
52.2213337298
20
143.429702392
11
52.0793464535
21
143.591730664
0
LINE
8
0
10
52.0793464535
20
143.591730664
11
51.9209077108
21
143.852427975
0
LINE
8
0
10
51.9209077108
20
143.852427975
11
51.74022149
21
144.215295801
0
LINE
8
0
10
51.74022149
20
144.215295801
11
51.5539193835
21
144.55785831
0
LINE
8
0
10
51.5539193835
20
144.55785831
11
51.3078045089
21
144.973875668
0
LINE
8
0
10
51.3078045089
20
144.973875668
11
50.9963921874
21
145.459370906
0
LINE
8
0
10
50.9963921874
20
145.459370906
11
50.6144106562
21
146.010069118
0
LINE
8
0
10
50.6144106562
20
146.010069118
11
50.1568153446
21
146.621407776
0
LINE
8
0
10
50.1568153446
20
146.621407776
11
49.6188026775
21
147.288547694
0
LINE
8
0
10
49.6188026775
20
147.288547694
11
49.3044785637
21
147.650732203
0
LINE
8
0
10
49.3044785637
20
147.650732203
11
48.1179005005
21
147.250927504
0
LINE
8
0
10
48.1179005005
20
147.250927504
11
46.9815047003
21
146.725174821
0
LINE
8
0
10
46.9815047003
20
146.725174821
11
47.0023809016
21
146.246069977
0
LINE
8
0
10
47.0023809016
20
146.246069977
11
47.0705778911
21
145.391738385
0
LINE
8
0
10
47.0705778911
20
145.391738385
11
47.1587830221
21
144.633221227
0
LINE
8
0
10
47.1587830221
20
144.633221227
11
47.260181015
21
143.970728315
0
LINE
8
0
10
47.260181015
20
143.970728315
11
47.3679718863
21
143.404102875
0
LINE
8
0
10
47.3679718863
20
143.404102875
11
47.4753885082
21
142.932823084
0
LINE
8
0
10
47.4753885082
20
142.932823084
11
47.5757140712
21
142.556004388
0
LINE
8
0
10
47.5757140712
20
142.556004388
11
47.6940806968
21
142.168306166
0
LINE
8
0
10
47.6940806968
20
142.168306166
11
47.7583362837
21
141.870082856
0
LINE
8
0
10
47.7583362837
20
141.870082856
11
47.7666809162
21
141.654806488
0
LINE
8
0
10
47.7666809162
20
141.654806488
11
47.7252463457
21
141.526014359
0
LINE
8
0
10
47.7252463457
20
141.526014359
11
45.2281141795
21
140.370717995
0
LINE
8
0
10
45.2281141795
20
140.370717995
11
45.1031295331
21
140.422516396
0
LINE
8
0
10
45.1031295331
20
140.422516396
11
44.9444562546
21
140.568243326
0
LINE
8
0
10
44.9444562546
20
140.568243326
11
44.7587599492
21
140.810282177
0
LINE
8
0
10
44.7587599492
20
140.810282177
11
44.5399000056
21
141.15148724
0
LINE
8
0
10
44.5399000056
20
141.15148724
11
44.3176524877
21
141.471898832
0
LINE
8
0
10
44.3176524877
20
141.471898832
11
44.0280009608
21
141.858867779
0
LINE
8
0
10
44.0280009608
20
141.858867779
11
43.665922883
21
142.307847429
0
LINE
8
0
10
43.665922883
20
142.307847429
11
43.2266395938
21
142.814017957
0
LINE
8
0
10
43.2266395938
20
142.814017957
11
42.7056293899
21
143.372298165
0
LINE
8
0
10
42.7056293899
20
143.372298165
11
42.0986400631
21
143.977357879
0
LINE
8
0
10
42.0986400631
20
143.977357879
11
41.7469994971
21
144.303434832
0
LINE
8
0
10
41.7469994971
20
144.303434832
11
40.6106036969
21
143.77768215
0
LINE
8
0
10
40.6106036969
20
143.77768215
11
39.5377133616
21
143.132145453
0
LINE
8
0
10
39.5377133616
20
143.132145453
11
39.6102675311
21
142.658106257
0
LINE
8
0
10
39.6102675311
20
142.658106257
11
39.7704342402
21
141.816156184
0
LINE
8
0
10
39.7704342402
20
141.816156184
11
39.9401324396
21
141.071622138
0
LINE
8
0
10
39.9401324396
20
141.071622138
11
40.1125641164
21
140.42397584
0
LINE
8
0
10
40.1125641164
20
140.42397584
11
40.2809860993
21
139.872326226
0
LINE
8
0
10
40.2809860993
20
139.872326226
11
40.4387273488
21
139.415422877
0
LINE
8
0
10
40.4387273488
20
139.415422877
11
40.5792060665
21
139.05166021
0
LINE
8
0
10
40.5792060665
20
139.05166021
11
40.7387963732
21
138.679032375
0
LINE
8
0
10
40.7387963732
20
138.679032375
11
40.8349189027
21
138.389504513
0
LINE
8
0
10
40.8349189027
20
138.389504513
11
40.8664900881
21
138.176392318
0
LINE
8
0
10
40.8664900881
20
138.176392318
11
40.8392232875
21
138.043875309
0
LINE
8
0
10
40.8392232875
20
138.043875309
11
38.4816389258
21
136.625363864
0
LINE
8
0
10
38.4816389258
20
136.625363864
11
38.3517865525
21
136.663345402
0
LINE
8
0
10
38.3517865525
20
136.663345402
11
38.1782875709
21
136.791062476
0
LINE
8
0
10
38.1782875709
20
136.791062476
11
37.9675108222
21
137.011605183
0
LINE
8
0
10
37.9675108222
20
137.011605183
11
37.7130430885
21
137.327147164
0
LINE
8
0
10
37.7130430885
20
137.327147164
11
37.4574558083
21
137.621651307
0
LINE
8
0
10
37.4574558083
20
137.621651307
11
37.1276635283
21
137.975034986
0
LINE
8
0
10
37.1276635283
20
137.975034986
11
36.7191647287
21
138.382235172
0
LINE
8
0
10
36.7191647287
20
138.382235172
11
36.2277298764
21
138.837943628
0
LINE
8
0
10
36.2277298764
20
138.837943628
11
35.6494131484
21
139.336620062
0
LINE
8
0
10
35.6494131484
20
139.336620062
11
34.9805635567
21
139.8725058
0
LINE
8
0
10
34.9805635567
20
139.8725058
11
34.5957292026
21
140.158652243
0
LINE
8
0
10
34.5957292026
20
140.158652243
11
33.5228388673
21
139.513115547
0
LINE
8
0
10
33.5228388673
20
139.513115547
11
32.5260326551
21
138.755363165
0
LINE
8
0
10
32.5260326551
20
138.755363165
11
32.6494141616
21
138.291947292
0
LINE
8
0
10
32.6494141616
20
138.291947292
11
32.899672782
21
137.472249834
0
LINE
8
0
10
32.899672782
20
137.472249834
11
33.1488744934
21
136.750427881
0
LINE
8
0
10
33.1488744934
20
136.750427881
11
33.3903182504
21
136.125221257
0
LINE
8
0
10
33.3903182504
20
136.125221257
11
33.6173967512
21
135.595015056
0
LINE
8
0
10
33.6173967512
20
135.595015056
11
33.8236132564
21
135.157844923
0
LINE
8
0
10
33.8236132564
20
135.157844923
11
34.0025981444
21
134.811403069
0
LINE
8
0
10
34.0025981444
20
134.811403069
11
34.2015410815
21
134.458214342
0
LINE
8
0
10
34.2015410815
20
134.458214342
11
34.3284036049
21
134.180776379
0
LINE
8
0
10
34.3284036049
20
134.180776379
11
34.3828312
21
133.972326902
0
LINE
8
0
10
34.3828312
20
133.972326902
11
34.3700518475
21
133.837638653
0
LINE
8
0
10
34.3700518475
20
133.837638653
11
32.1796558115
21
132.172542876
0
LINE
8
0
10
32.1796558115
20
132.172542876
11
32.0464581116
21
132.196262254
0
LINE
8
0
10
32.0464581116
20
132.196262254
11
31.8601675439
21
132.304472105
0
LINE
8
0
10
31.8601675439
20
132.304472105
11
31.6267815165
21
132.500933006
0
LINE
8
0
10
31.6267815165
20
132.500933006
11
31.3396893943
21
132.787112465
0
LINE
8
0
10
31.3396893943
20
132.787112465
11
31.0537588788
21
133.052256366
0
LINE
8
0
10
31.0537588788
20
133.052256366
11
30.6876923587
21
133.367911678
0
LINE
8
0
10
30.6876923587
20
133.367911678
11
30.2375621122
21
133.728558349
0
LINE
8
0
10
30.2375621122
20
133.728558349
11
29.6997373211
21
134.128461969
0
LINE
8
0
10
29.6997373211
20
134.128461969
11
29.070894304
21
134.561688104
0
LINE
8
0
10
29.070894304
20
134.561688104
11
28.3480260973
21
135.022117095
0
LINE
8
0
10
28.3480260973
20
135.022117095
11
27.9345097862
21
135.264978223
0
LINE
8
0
10
27.9345097862
20
135.264978223
11
26.9377035739
21
134.50722584
0
LINE
8
0
10
26.9377035739
20
134.50722584
11
26.0286681262
21
133.646141726
0
LINE
8
0
10
26.0286681262
20
133.646141726
11
26.2014304343
21
133.198782304
0
LINE
8
0
10
26.2014304343
20
133.198782304
11
26.5388469125
21
132.410947664
0
LINE
8
0
10
26.5388469125
20
132.410947664
11
26.8646304738
21
131.720300507
0
LINE
8
0
10
26.8646304738
20
131.720300507
11
27.1722556037
21
131.124863533
0
LINE
8
0
10
27.1722556037
20
131.124863533
11
27.4553283345
21
130.622316928
0
LINE
8
0
10
27.4553283345
20
130.622316928
11
27.7076023955
21
130.210005431
0
LINE
8
0
10
27.7076023955
20
130.210005431
11
27.9229950195
21
129.884946105
0
LINE
8
0
10
27.9229950195
20
129.884946105
11
28.1589581632
21
129.5553373
0
LINE
8
0
10
28.1589581632
20
129.5553373
11
28.3150733332
21
129.293241941
0
LINE
8
0
10
28.3150733332
20
129.293241941
11
28.3917192243
21
129.091899063
0
LINE
8
0
10
28.3917192243
20
129.091899063
11
28.3935771462
21
128.956618671
0
LINE
8
0
10
28.3935771462
20
128.956618671
11
26.3960498266
21
127.064460287
0
LINE
8
0
10
26.3960498266
20
127.064460287
11
26.2610684214
21
127.073639417
0
LINE
8
0
10
26.2610684214
20
127.073639417
11
26.0641703541
21
127.161073384
0
LINE
8
0
10
26.0641703541
20
127.161073384
11
25.8109112858
21
127.331149154
0
LINE
8
0
10
25.8109112858
20
127.331149154
11
25.4945606678
21
127.584610899
0
LINE
8
0
10
25.4945606678
20
127.584610899
11
25.1816391909
21
127.817285988
0
LINE
8
0
10
25.1816391909
20
127.817285988
11
24.783590226
21
128.091512162
0
LINE
8
0
10
24.783590226
20
128.091512162
11
24.2971058982
21
128.401377067
0
LINE
8
0
10
24.2971058982
20
128.401377067
11
23.7191966722
21
128.740787346
0
LINE
8
0
10
23.7191966722
20
128.740787346
11
23.0471999753
21
129.103484001
0
LINE
8
0
10
23.0471999753
20
129.103484001
11
22.2787881225
21
129.483058136
0
LINE
8
0
10
22.2787881225
20
129.483058136
11
21.8414379549
21
129.679786624
0
LINE
8
0
10
21.8414379549
20
129.679786624
11
20.9324025072
21
128.81870251
0
LINE
8
0
10
20.9324025072
20
128.81870251
11
20.1217954334
21
127.864382086
0
LINE
8
0
10
20.1217954334
20
127.864382086
11
20.341913063
21
127.438323996
0
LINE
8
0
10
20.341913063
20
127.438323996
11
20.7625314994
21
126.691588815
0
LINE
8
0
10
20.7625314994
20
126.691588815
11
21.1610773961
21
126.04021366
0
LINE
8
0
10
21.1610773961
20
126.04021366
11
21.5312772755
21
125.48152729
0
LINE
8
0
10
21.5312772755
20
125.48152729
11
21.8670254675
21
125.012532181
0
LINE
8
0
10
21.8670254675
20
125.012532181
11
22.1623994015
21
124.629913295
0
LINE
8
0
10
22.1623994015
20
124.629913295
11
22.41167448
21
124.33004752
0
LINE
8
0
10
22.41167448
20
124.33004752
11
22.681891378
21
124.027882999
0
LINE
8
0
10
22.681891378
20
124.027882999
11
22.8654288872
21
123.784203074
0
LINE
8
0
10
22.8654288872
20
123.784203074
11
22.9633944712
21
123.592327354
0
LINE
8
0
10
22.9633944712
20
123.592327354
11
22.9798678849
21
123.458040859
0
LINE
8
0
10
22.9798678849
20
123.458040859
11
21.1986284633
21
121.361003695
0
LINE
8
0
10
21.1986284633
20
121.361003695
11
21.0634458864
21
121.35553496
0
LINE
8
0
10
21.0634458864
20
121.35553496
11
20.8582487693
21
121.421167959
0
LINE
8
0
10
20.8582487693
20
121.421167959
11
20.5880858912
21
121.562864616
0
LINE
8
0
10
20.5880858912
20
121.562864616
11
20.246185699
21
121.780637039
0
LINE
8
0
10
20.246185699
20
121.780637039
11
19.909941979
21
121.978115414
0
LINE
8
0
10
19.909941979
20
121.978115414
11
19.4845773294
21
122.207697399
0
LINE
8
0
10
19.4845773294
20
122.207697399
11
18.9674425042
21
122.463147654
0
LINE
8
0
10
18.9674425042
20
122.463147654
11
18.3562243006
21
122.738085318
0
LINE
8
0
10
18.3562243006
20
122.738085318
11
17.6489524709
21
123.026000206
0
LINE
8
0
10
17.6489524709
20
123.026000206
11
16.8440058983
21
123.320269326
0
LINE
8
0
10
16.8440058983
20
123.320269326
11
16.3879494051
21
123.468558713
0
LINE
8
0
10
16.3879494051
20
123.468558713
11
15.5773423314
21
122.51423829
0
LINE
8
0
10
15.5773423314
20
122.51423829
11
14.8746672584
21
121.477870093
0
LINE
8
0
10
14.8746672584
20
121.477870093
11
15.1395595316
21
121.078108475
0
LINE
8
0
10
15.1395595316
20
121.078108475
11
15.6384485594
21
120.38122754
0
LINE
8
0
10
15.6384485594
20
120.38122754
11
16.1050842055
21
119.776761165
0
LINE
8
0
10
16.1050842055
20
119.776761165
11
16.5335185793
21
119.261375486
0
LINE
8
0
10
16.5335185793
20
119.261375486
11
16.9180058917
21
118.831430412
0
LINE
8
0
10
16.9180058917
20
118.831430412
11
17.2530167095
21
118.482989994
0
LINE
8
0
10
17.2530167095
20
118.482989994
11
17.5332517201
21
118.211833421
0
LINE
8
0
10
17.5332517201
20
118.211833421
11
17.8345543264
21
117.940655788
0
LINE
8
0
10
17.8345543264
20
117.940655788
11
18.0433623652
21
117.71824822
0
LINE
8
0
10
18.0433623652
20
117.71824822
11
18.1614990852
21
117.538089227
0
LINE
8
0
10
18.1614990852
20
117.538089227
11
18.1923948552
21
117.406371014
0
LINE
8
0
10
18.1923948552
20
117.406371014
11
16.648326735
21
115.129040915
0
LINE
8
0
10
16.648326735
20
115.129040915
11
16.5145278785
21
115.108988429
0
LINE
8
0
10
16.5145278785
20
115.108988429
11
16.3034374602
21
115.152050975
0
LINE
8
0
10
16.3034374602
20
115.152050975
11
16.019538185
21
115.263707254
0
LINE
8
0
10
16.019538185
20
115.263707254
11
15.6560968858
21
115.443237172
0
LINE
8
0
10
15.6560968858
20
115.443237172
11
15.3004730728
21
115.60320358
0
LINE
8
0
10
15.3004730728
20
115.60320358
11
14.8527797502
21
115.785449737
0
LINE
8
0
10
14.8527797502
20
115.785449737
11
14.3110573606
21
115.983490422
0
LINE
8
0
10
14.3110573606
20
115.983490422
11
13.6736961541
21
116.190732077
0
LINE
8
0
10
13.6736961541
20
116.190732077
11
12.939441307
21
116.40048966
0
LINE
8
0
10
12.939441307
20
116.40048966
11
12.1073972772
21
116.606003729
0
LINE
8
0
10
12.1073972772
20
116.606003729
11
11.6379813038
21
116.704115456
0
LINE
8
0
10
11.6379813038
20
116.704115456
11
10.9353062309
21
115.667747259
0
LINE
8
0
10
10.9353062309
20
115.667747259
11
10.3488013816
21
114.561481758
0
LINE
8
0
10
10.3488013816
20
114.561481758
11
10.6553626785
21
114.192703453
0
LINE
8
0
10
10.6553626785
20
114.192703453
11
11.2266732802
21
113.553847055
0
LINE
8
0
10
11.2266732802
20
113.553847055
11
11.7559277992
21
113.003376277
0
LINE
8
0
10
11.7559277992
20
113.003376277
11
12.237573666
21
112.537333714
0
LINE
8
0
10
12.237573666
20
112.537333714
11
12.6662923369
21
112.151479387
0
LINE
8
0
10
12.6662923369
20
112.151479387
11
13.0370123428
21
111.841302583
0
LINE
8
0
10
13.0370123428
20
111.841302583
11
13.3449217862
21
111.602034276
0
LINE
8
0
10
13.3449217862
20
111.602034276
11
13.6737776033
21
111.36502284
0
LINE
8
0
10
13.6737776033
20
111.36502284
11
13.9054080883
21
111.166495155
0
LINE
8
0
10
13.9054080883
20
111.166495155
11
14.0423308993
21
111.000165087
0
LINE
8
0
10
14.0423308993
20
111.000165087
11
14.0872868008
21
110.872559433
0
LINE
8
0
10
14.0872868008
20
110.872559433
11
12.7984927691
21
108.44163601
0
LINE
8
0
10
12.7984927691
20
108.44163601
11
12.6676463023
21
108.407234872
0
LINE
8
0
10
12.6676463023
20
108.407234872
11
12.4531374249
21
108.427222094
0
LINE
8
0
10
12.4531374249
20
108.427222094
11
12.1588302121
21
108.507528929
0
LINE
8
0
10
12.1588302121
20
108.507528929
11
11.7781088229
21
108.646711519
0
LINE
8
0
10
11.7781088229
20
108.646711519
11
11.407274281
21
108.767290499
0
LINE
8
0
10
11.407274281
20
108.767290499
11
10.9425010802
21
108.900064158
0
LINE
8
0
10
10.9425010802
20
108.900064158
11
10.3825423259
21
109.038373428
0
LINE
8
0
10
10.3825423259
20
109.038373428
11
9.72651059377
21
109.175489355
0
LINE
8
0
10
9.72651059377
20
109.175489355
11
8.97388119606
21
109.304630417
0
LINE
8
0
10
8.97388119606
20
109.304630417
11
8.12449466469
21
109.418979969
0
LINE
8
0
10
8.12449466469
20
109.418979969
11
7.64722268417
21
109.465763767
0
LINE
8
0
10
7.64722268417
20
109.465763767
11
7.06071783483
21
108.359498266
0
LINE
8
0
10
7.06071783483
20
108.359498266
11
6.59725944218
21
107.196305412
0
LINE
8
0
10
6.59725944218
20
107.196305412
11
6.94189561203
21
106.862834007
0
LINE
8
0
10
6.94189561203
20
106.862834007
11
7.57892969308
21
106.289492155
0
LINE
8
0
10
7.57892969308
20
106.289492155
11
8.16459805963
21
105.799470739
0
LINE
8
0
10
8.16459805963
20
105.799470739
11
8.69380856219
21
105.388235216
0
LINE
8
0
10
8.69380856219
20
105.388235216
11
9.16173225691
21
105.050995425
0
LINE
8
0
10
9.16173225691
20
105.050995425
11
9.56381509798
21
104.782718774
0
LINE
8
0
10
9.56381509798
20
104.782718774
11
9.89578901742
21
104.578143935
0
LINE
8
0
10
9.89578901742
20
104.578143935
11
10.2483425115
21
104.378077438
0
LINE
8
0
10
10.2483425115
20
104.378077438
11
10.5000797871
21
104.205757191
0
LINE
8
0
10
10.5000797871
20
104.205757191
11
10.6541833944
21
104.055206118
0
LINE
8
0
10
10.6541833944
20
104.055206118
11
10.7126723606
21
103.933209081
0
LINE
8
0
10
10.7126723606
20
103.933209081
11
9.69426234901
21
101.37719269
0
LINE
8
0
10
9.69426234901
20
101.37719269
11
9.56790232702
21
101.328846222
0
LINE
8
0
10
9.56790232702
20
101.328846222
11
9.35248991109
21
101.325523788
0
LINE
8
0
10
9.35248991109
20
101.325523788
11
9.05122524353
21
101.373539654
0
LINE
8
0
10
9.05122524353
20
101.373539654
11
8.65768737448
21
101.470743127
0
LINE
8
0
10
8.65768737448
20
101.470743127
11
8.27598979958
21
101.550521001
0
LINE
8
0
10
8.27598979958
20
101.550521001
11
7.79958576146
21
101.632265513
0
LINE
8
0
10
7.79958576146
20
101.632265513
11
7.22795564689
21
101.709221817
0
LINE
8
0
10
7.22795564689
20
101.709221817
11
6.56094476147
21
101.774604458
0
LINE
8
0
10
6.56094476147
20
101.774604458
11
5.79876470471
21
101.821614937
0
LINE
8
0
10
5.79876470471
20
101.821614937
11
4.94199395218
21
101.84345933
0
LINE
8
0
10
4.94199395218
20
101.84345933
11
4.46246154215
21
101.838366701
0
LINE
8
0
10
4.46246154215
20
101.838366701
11
3.99900314949
21
100.675173847
0
LINE
8
0
10
3.99900314949
20
100.675173847
11
3.66402483943
21
99.4686910127
0
LINE
8
0
10
3.66402483943
20
99.4686910127
11
4.04269533821
21
99.1744361563
0
LINE
8
0
10
4.04269533821
20
99.1744361563
11
4.73798425647
21
98.6733307582
0
LINE
8
0
10
4.73798425647
20
98.6733307582
11
5.3732000445
21
98.2495037572
0
LINE
8
0
10
5.3732000445
20
98.2495037572
11
5.94377067346
21
97.8978966351
0
LINE
8
0
10
5.94377067346
20
97.8978966351
11
6.44541341459
21
97.6132252089
0
LINE
8
0
10
6.44541341459
20
97.6132252089
11
6.87414503705
21
97.3899940087
0
LINE
8
0
10
6.87414503705
20
97.3899940087
11
7.22629134191
21
97.2225110906
0
LINE
8
0
10
7.22629134191
20
97.2225110906
11
7.59840914557
21
97.0617351298
0
LINE
8
0
10
7.59840914557
20
97.0617351298
11
7.8673018224
21
96.917642619
0
LINE
8
0
10
7.8673018224
20
96.917642619
11
8.03677950201
21
96.7846356131
0
LINE
8
0
10
8.03677950201
20
96.7846356131
11
8.10811580325
21
96.6696774978
0
LINE
8
0
10
8.10811580325
20
96.6696774978
11
7.37202973809
21
94.0185350936
0
LINE
8
0
10
7.37202973809
20
94.0185350936
11
7.25163761666
21
93.9568101128
0
LINE
8
0
10
7.25163761666
20
93.9568101128
11
7.03784717577
21
93.9302169768
0
LINE
8
0
10
7.03784717577
20
93.9302169768
11
6.73315710629
21
93.9453789316
0
LINE
8
0
10
6.73315710629
20
93.9453789316
11
6.33141662909
21
93.9994636648
0
LINE
8
0
10
6.33141662909
20
93.9994636648
11
5.9433310763
21
94.0375051103
0
LINE
8
0
10
5.9433310763
20
94.0375051103
11
5.4608816026
21
94.0672620961
0
LINE
8
0
10
5.4608816026
20
94.0672620961
11
4.88428196823
21
94.0819631919
0
LINE
8
0
10
4.88428196823
20
94.0819631919
11
4.21411202225
21
94.0748459946
0
LINE
8
0
10
4.21411202225
20
94.0748459946
11
3.45131717074
21
94.039174737
0
LINE
8
0
10
3.45131717074
20
94.039174737
11
2.59720705076
21
93.9682578643
0
LINE
8
0
10
2.59720705076
20
93.9682578643
11
2.12103629029
21
93.9113485152
0
LINE
8
0
10
2.12103629029
20
93.9113485152
11
1.78605798023
21
92.7048656808
0
LINE
8
0
10
1.78605798023
20
92.7048656808
11
1.58348706718
21
91.4692377744
0
LINE
8
0
10
1.58348706718
20
91.4692377744
11
1.9917523295
21
91.2176493353
0
LINE
8
0
10
1.9917523295
20
91.2176493353
11
2.73714445811
21
90.7946553938
0
LINE
8
0
10
2.73714445811
20
90.7946553938
11
3.4144603433
21
90.4419917924
0
LINE
8
0
10
3.4144603433
20
90.4419917924
11
4.0197016797
21
90.1541353426
0
LINE
8
0
10
4.0197016797
20
90.1541353426
11
4.54918216476
21
89.9253697933
0
LINE
8
0
10
4.54918216476
20
89.9253697933
11
4.99953608233
21
89.7498012261
0
LINE
8
0
10
4.99953608233
20
89.7498012261
11
5.36772617917
21
89.6213738129
0
LINE
8
0
10
5.36772617917
20
89.6213738129
11
5.75504555139
21
89.5017733393
0
LINE
8
0
10
5.75504555139
20
89.5017733393
11
6.03794110865
21
89.3875979173
0
LINE
8
0
10
6.03794110865
20
89.3875979173
11
6.22080588977
21
89.2736943645
0
LINE
8
0
10
6.22080588977
20
89.2736943645
11
6.30415317315
21
89.1671229494
0
LINE
8
0
10
6.30415317315
20
89.1671229494
11
5.85902099047
21
86.4519367528
0
LINE
8
0
10
5.85902099047
20
86.4519367528
11
5.74600825716
21
86.3775569285
0
LINE
8
0
10
5.74600825716
20
86.3775569285
11
5.53634628876
21
86.3280048699
0
LINE
8
0
10
5.53634628876
20
86.3280048699
11
5.23180302985
21
86.3101351535
0
LINE
8
0
10
5.23180302985
20
86.3101351535
11
4.82656998428
21
86.3204670536
0
LINE
8
0
10
4.82656998428
20
86.3204670536
11
4.43664640187
21
86.3163260695
0
LINE
8
0
10
4.43664640187
20
86.3163260695
11
3.95380777157
21
86.293746655
0
LINE
8
0
10
3.95380777157
20
86.293746655
11
3.37899872091
21
86.2460201859
0
LINE
8
0
10
3.37899872091
20
86.2460201859
11
2.71352684425
21
86.1664865932
0
LINE
8
0
10
2.71352684425
20
86.1664865932
11
1.9590602702
21
86.0485518115
0
LINE
8
0
10
1.9590602702
20
86.0485518115
11
1.117624443
21
85.8857051086
0
LINE
8
0
10
1.117624443
20
85.8857051086
11
0.650397998892
21
85.7776462494
0
LINE
8
0
10
0.650397998892
20
85.7776462494
11
0.44782708584
21
84.542018343
0
LINE
8
0
10
0.44782708584
20
84.542018343
11
0.380038528538
21
83.291731972
0
LINE
8
0
10
0.380038528538
20
83.291731972
11
0.81311201749
21
83.0857595945
0
LINE
8
0
10
0.81311201749
20
83.0857595945
11
1.59986831525
21
82.7458363269
0
LINE
8
0
10
1.59986831525
20
82.7458363269
11
2.31134338812
21
82.4684707833
0
LINE
8
0
10
2.31134338812
20
82.4684707833
11
2.94415953068
21
82.2477398596
0
LINE
8
0
10
2.94415953068
20
82.2477398596
11
3.49527008508
21
82.0775622541
0
LINE
8
0
10
3.49527008508
20
82.0775622541
11
3.96196630985
21
81.9517147008
0
LINE
8
0
10
3.96196630985
20
81.9517147008
11
4.34188350641
21
81.8638484865
0
LINE
8
0
10
4.34188350641
20
81.8638484865
11
4.73986348169
21
81.7868257063
0
LINE
8
0
10
4.73986348169
20
81.7868257063
11
5.03344522763
21
81.7039059755
0
LINE
8
0
10
5.03344522763
20
81.7039059755
11
5.22755318788
21
81.6104412909
0
LINE
8
0
10
5.22755318788
20
81.6104412909
11
5.32193428271
21
81.5135060285
0
LINE
8
0
10
5.32193428271
20
81.5135060285
11
5.17297475038
21
78.766109115
0
LINE
8
0
10
5.17297475038
20
78.766109115
11
5.06866637615
21
78.6799464826
0
LINE
8
0
10
5.06866637615
20
78.6799464826
11
4.86559097512
21
78.6080164541
0
LINE
8
0
10
4.86559097512
20
78.6080164541
11
4.56476501805
21
78.5573245725
0
LINE
8
0
10
4.56476501805
20
78.5573245725
11
4.16079039105
21
78.5237825074
0
LINE
8
0
10
4.16079039105
20
78.5237825074
11
3.77360027653
21
78.477507643
0
LINE
8
0
10
3.77360027653
20
78.477507643
11
3.29603333109
21
78.4028565512
0
LINE
8
0
10
3.29603333109
20
78.4028565512
11
2.72975397471
21
78.2932620663
0
LINE
8
0
10
2.72975397471
20
78.2932620663
11
2.07678221668
21
78.1422445369
0
LINE
8
0
10
2.07678221668
20
78.1422445369
11
1.33948935085
21
77.9434289085
0
LINE
8
0
10
1.33948935085
20
77.9434289085
11
0.520592882187
21
77.6905616043
0
LINE
8
0
10
0.520592882187
20
77.6905616043
11
0.0677885573022
21
77.5326201262
0
LINE
8
0
10
0.0677885573022
20
77.5326201262
11
0.0
21
76.2823337553
0
LINE
8
0
10
0.0
20
76.2823337553
11
0.0677885573021
21
75.0320473843
0
LINE
8
0
10
0.0677885573021
20
75.0320473843
11
0.520592882187
21
74.8741059062
0
LINE
8
0
10
0.520592882187
20
74.8741059062
11
1.33948935085
21
74.6212386021
0
LINE
8
0
10
1.33948935085
20
74.6212386021
11
2.07678221668
21
74.4224229737
0
LINE
8
0
10
2.07678221668
20
74.4224229737
11
2.72975397471
21
74.2714054442
0
LINE
8
0
10
2.72975397471
20
74.2714054442
11
3.29603333109
21
74.1618109593
0
LINE
8
0
10
3.29603333109
20
74.1618109593
11
3.77360027652
21
74.0871598676
0
LINE
8
0
10
3.77360027652
20
74.0871598676
11
4.16079039105
21
74.0408850031
0
LINE
8
0
10
4.16079039105
20
74.0408850031
11
4.56476501805
21
74.0073429381
0
LINE
8
0
10
4.56476501805
20
74.0073429381
11
4.86559097512
21
73.9566510564
0
LINE
8
0
10
4.86559097512
20
73.9566510564
11
5.06866637615
21
73.884721028
0
LINE
8
0
10
5.06866637615
20
73.884721028
11
5.17297475038
21
73.7985583955
0
LINE
8
0
10
5.17297475038
20
73.7985583955
11
5.32193428271
21
71.0511614821
0
LINE
8
0
10
5.32193428271
20
71.0511614821
11
5.22755318789
21
70.9542262196
0
LINE
8
0
10
5.22755318789
20
70.9542262196
11
5.03344522763
21
70.8607615351
0
LINE
8
0
10
5.03344522763
20
70.8607615351
11
4.73986348169
21
70.7778418042
0
LINE
8
0
10
4.73986348169
20
70.7778418042
11
4.34188350642
21
70.700819024
0
LINE
8
0
10
4.34188350642
20
70.700819024
11
3.96196630985
21
70.6129528097
0
LINE
8
0
10
3.96196630985
20
70.6129528097
11
3.49527008508
21
70.4871052565
0
LINE
8
0
10
3.49527008508
20
70.4871052565
11
2.94415953068
21
70.316927651
0
LINE
8
0
10
2.94415953068
20
70.316927651
11
2.31134338812
21
70.0961967272
0
LINE
8
0
10
2.31134338812
20
70.0961967272
11
1.59986831525
21
69.8188311836
0
LINE
8
0
10
1.59986831525
20
69.8188311836
11
0.81311201749
21
69.478907916
0
LINE
8
0
10
0.81311201749
20
69.478907916
11
0.380038528538
21
69.2729355385
0
LINE
8
0
10
0.380038528538
20
69.2729355385
11
0.44782708584
21
68.0226491676
0
LINE
8
0
10
0.44782708584
20
68.0226491676
11
0.650397998892
21
66.7870212612
0
LINE
8
0
10
0.650397998892
20
66.7870212612
11
1.117624443
21
66.6789624019
0
LINE
8
0
10
1.117624443
20
66.6789624019
11
1.9590602702
21
66.5161156991
0
LINE
8
0
10
1.9590602702
20
66.5161156991
11
2.71352684425
21
66.3981809174
0
LINE
8
0
10
2.71352684425
20
66.3981809174
11
3.37899872091
21
66.3186473247
0
LINE
8
0
10
3.37899872091
20
66.3186473247
11
3.95380777157
21
66.2709208555
0
LINE
8
0
10
3.95380777157
20
66.2709208555
11
4.43664640187
21
66.248341441
0
LINE
8
0
10
4.43664640187
20
66.248341441
11
4.82656998427
21
66.244200457
0
LINE
8
0
10
4.82656998427
20
66.244200457
11
5.23180302985
21
66.2545323571
0
LINE
8
0
10
5.23180302985
20
66.2545323571
11
5.53634628876
21
66.2366626406
0
LINE
8
0
10
5.53634628876
20
66.2366626406
11
5.74600825716
21
66.1871105821
0
LINE
8
0
10
5.74600825716
20
66.1871105821
11
5.85902099047
21
66.1127307577
0
LINE
8
0
10
5.85902099047
20
66.1127307577
11
6.30415317315
21
63.3975445611
0
LINE
8
0
10
6.30415317315
20
63.3975445611
11
6.22080588977
21
63.290973146
0
LINE
8
0
10
6.22080588977
20
63.290973146
11
6.03794110865
21
63.1770695933
0
LINE
8
0
10
6.03794110865
20
63.1770695933
11
5.75504555139
21
63.0628941713
0
LINE
8
0
10
5.75504555139
20
63.0628941713
11
5.36772617917
21
62.9432936976
0
LINE
8
0
10
5.36772617917
20
62.9432936976
11
4.99953608233
21
62.8148662845
0
LINE
8
0
10
4.99953608233
20
62.8148662845
11
4.54918216476
21
62.6392977172
0
LINE
8
0
10
4.54918216476
20
62.6392977172
11
4.0197016797
21
62.410532168
0
LINE
8
0
10
4.0197016797
20
62.410532168
11
3.4144603433
21
62.1226757182
0
LINE
8
0
10
3.4144603433
20
62.1226757182
11
2.73714445811
21
61.7700121168
0
LINE
8
0
10
2.73714445811
20
61.7700121168
11
1.9917523295
21
61.3470181753
0
LINE
8
0
10
1.9917523295
20
61.3470181753
11
1.58348706718
21
61.0954297361
0
LINE
8
0
10
1.58348706718
20
61.0954297361
11
1.78605798023
21
59.8598018297
0
LINE
8
0
10
1.78605798023
20
59.8598018297
11
2.12103629029
21
58.6533189953
0
LINE
8
0
10
2.12103629029
20
58.6533189953
11
2.59720705076
21
58.5964096463
0
LINE
8
0
10
2.59720705076
20
58.5964096463
11
3.45131717074
21
58.5254927735
0
LINE
8
0
10
3.45131717074
20
58.5254927735
11
4.21411202225
21
58.489821516
0
LINE
8
0
10
4.21411202225
20
58.489821516
11
4.88428196823
21
58.4827043187
0
LINE
8
0
10
4.88428196823
20
58.4827043187
11
5.4608816026
21
58.4974054145
0
LINE
8
0
10
5.4608816026
20
58.4974054145
11
5.9433310763
21
58.5271624002
0
LINE
8
0
10
5.9433310763
20
58.5271624002
11
6.33141662909
21
58.5652038458
0
LINE
8
0
10
6.33141662909
20
58.5652038458
11
6.73315710629
21
58.619288579
0
LINE
8
0
10
6.73315710629
20
58.619288579
11
7.03784717577
21
58.6344505338
0
LINE
8
0
10
7.03784717577
20
58.6344505338
11
7.25163761666
21
58.6078573978
0
LINE
8
0
10
7.25163761666
20
58.6078573978
11
7.37202973809
21
58.5461324169
0
LINE
8
0
10
7.37202973809
20
58.5461324169
11
8.10811580325
21
55.8949900128
0
LINE
8
0
10
8.10811580325
20
55.8949900128
11
8.03677950202
21
55.7800318974
0
LINE
8
0
10
8.03677950202
20
55.7800318974
11
7.86730182239
21
55.6470248916
0
LINE
8
0
10
7.86730182239
20
55.6470248916
11
7.59840914557
21
55.5029323808
0
LINE
8
0
10
7.59840914557
20
55.5029323808
11
7.22629134192
21
55.3421564199
0
LINE
8
0
10
7.22629134192
20
55.3421564199
11
6.87414503705
21
55.1746735019
0
LINE
8
0
10
6.87414503705
20
55.1746735019
11
6.44541341459
21
54.9514423016
0
LINE
8
0
10
6.44541341459
20
54.9514423016
11
5.94377067346
21
54.6667708755
0
LINE
8
0
10
5.94377067346
20
54.6667708755
11
5.3732000445
21
54.3151637533
0
LINE
8
0
10
5.3732000445
20
54.3151637533
11
4.73798425647
21
53.8913367524
0
LINE
8
0
10
4.73798425647
20
53.8913367524
11
4.04269533821
21
53.3902313542
0
LINE
8
0
10
4.04269533821
20
53.3902313542
11
3.66402483943
21
53.0959764979
0
LINE
8
0
10
3.66402483943
20
53.0959764979
11
3.99900314949
21
51.8894936635
0
LINE
8
0
10
3.99900314949
20
51.8894936635
11
4.46246154215
21
50.7263008092
0
LINE
8
0
10
4.46246154215
20
50.7263008092
11
4.94199395218
21
50.7212081804
0
LINE
8
0
10
4.94199395218
20
50.7212081804
11
5.79876470471
21
50.7430525732
0
LINE
8
0
10
5.79876470471
20
50.7430525732
11
6.56094476147
21
50.7900630527
0
LINE
8
0
10
6.56094476147
20
50.7900630527
11
7.22795564689
21
50.8554456935
0
LINE
8
0
10
7.22795564689
20
50.8554456935
11
7.79958576146
21
50.9324019973
0
LINE
8
0
10
7.79958576146
20
50.9324019973
11
8.27598979958
21
51.0141465099
0
LINE
8
0
10
8.27598979958
20
51.0141465099
11
8.65768737448
21
51.0939243839
0
LINE
8
0
10
8.65768737448
20
51.0939243839
11
9.05122524353
21
51.1911278561
0
LINE
8
0
10
9.05122524353
20
51.1911278561
11
9.35248991109
21
51.2391437221
0
LINE
8
0
10
9.35248991109
20
51.2391437221
11
9.56790232702
21
51.2358212888
0
LINE
8
0
10
9.56790232702
20
51.2358212888
11
9.69426234901
21
51.1874748204
0
LINE
8
0
10
9.69426234901
20
51.1874748204
11
10.7126723606
21
48.6314584295
0
LINE
8
0
10
10.7126723606
20
48.6314584295
11
10.6541833944
21
48.5094613927
0
LINE
8
0
10
10.6541833944
20
48.5094613927
11
10.5000797871
21
48.3589103192
0
LINE
8
0
10
10.5000797871
20
48.3589103192
11
10.2483425115
21
48.1865900726
0
LINE
8
0
10
10.2483425115
20
48.1865900726
11
9.89578901742
21
47.9865235757
0
LINE
8
0
10
9.89578901742
20
47.9865235757
11
9.56381509798
21
47.7819487369
0
LINE
8
0
10
9.56381509798
20
47.7819487369
11
9.16173225691
21
47.5136720853
0
LINE
8
0
10
9.16173225691
20
47.5136720853
11
8.69380856219
21
47.1764322944
0
LINE
8
0
10
8.69380856219
20
47.1764322944
11
8.16459805963
21
46.7651967719
0
LINE
8
0
10
8.16459805963
20
46.7651967719
11
7.57892969308
21
46.2751753556
0
LINE
8
0
10
7.57892969308
20
46.2751753556
11
6.94189561203
21
45.7018335034
0
LINE
8
0
10
6.94189561203
20
45.7018335034
11
6.59725944218
21
45.3683620989
0
LINE
8
0
10
6.59725944218
20
45.3683620989
11
7.06071783483
21
44.2051692447
0
LINE
8
0
10
7.06071783483
20
44.2051692447
11
7.64722268417
21
43.0989037433
0
LINE
8
0
10
7.64722268417
20
43.0989037433
11
8.12449466469
21
43.1456875412
0
LINE
8
0
10
8.12449466469
20
43.1456875412
11
8.97388119606
21
43.260037094
0
LINE
8
0
10
8.97388119606
20
43.260037094
11
9.72651059377
21
43.3891781556
0
LINE
8
0
10
9.72651059377
20
43.3891781556
11
10.3825423259
21
43.5262940828
0
LINE
8
0
10
10.3825423259
20
43.5262940828
11
10.9425010802
21
43.6646033523
0
LINE
8
0
10
10.9425010802
20
43.6646033523
11
11.407274281
21
43.797377012
0
LINE
8
0
10
11.407274281
20
43.797377012
11
11.7781088229
21
43.9179559919
0
LINE
8
0
10
11.7781088229
20
43.9179559919
11
12.1588302121
21
44.0571385813
0
LINE
8
0
10
12.1588302121
20
44.0571385813
11
12.4531374249
21
44.1374454164
0
LINE
8
0
10
12.4531374249
20
44.1374454164
11
12.6676463023
21
44.1574326383
0
LINE
8
0
10
12.6676463023
20
44.1574326383
11
12.7984927691
21
44.1230315005
0
LINE
8
0
10
12.7984927691
20
44.1230315005
11
14.0872868008
21
41.692108078
0
LINE
8
0
10
14.0872868008
20
41.692108078
11
14.0423308993
21
41.5645024234
0
LINE
8
0
10
14.0423308993
20
41.5645024234
11
13.9054080883
21
41.398172356
0
LINE
8
0
10
13.9054080883
20
41.398172356
11
13.6737776033
21
41.199644671
0
LINE
8
0
10
13.6737776033
20
41.199644671
11
13.3449217862
21
40.9626332347
0
LINE
8
0
10
13.3449217862
20
40.9626332347
11
13.0370123428
21
40.723364928
0
LINE
8
0
10
13.0370123428
20
40.723364928
11
12.6662923369
21
40.4131881235
0
LINE
8
0
10
12.6662923369
20
40.4131881235
11
12.237573666
21
40.0273337963
0
LINE
8
0
10
12.237573666
20
40.0273337963
11
11.7559277992
21
39.5612912339
0
LINE
8
0
10
11.7559277992
20
39.5612912339
11
11.2266732802
21
39.0108204552
0
LINE
8
0
10
11.2266732802
20
39.0108204552
11
10.6553626785
21
38.3719640579
0
LINE
8
0
10
10.6553626785
20
38.3719640579
11
10.3488013816
21
38.0031857528
0
LINE
8
0
10
10.3488013816
20
38.0031857528
11
10.9353062309
21
36.8969202514
0
LINE
8
0
10
10.9353062309
20
36.8969202514
11
11.6379813038
21
35.8605520543
0
LINE
8
0
10
11.6379813038
20
35.8605520543
11
12.1073972772
21
35.9586637817
0
LINE
8
0
10
12.1073972772
20
35.9586637817
11
12.939441307
21
36.1641778505
0
LINE
8
0
10
12.939441307
20
36.1641778505
11
13.6736961541
21
36.3739354334
0
LINE
8
0
10
13.6736961541
20
36.3739354334
11
14.3110573606
21
36.5811770881
0
LINE
8
0
10
14.3110573606
20
36.5811770881
11
14.8527797502
21
36.7792177737
0
LINE
8
0
10
14.8527797502
20
36.7792177737
11
15.3004730728
21
36.9614639307
0
LINE
8
0
10
15.3004730728
20
36.9614639307
11
15.6560968858
21
37.1214303381
0
LINE
8
0
10
15.6560968858
20
37.1214303381
11
16.019538185
21
37.3009602561
0
LINE
8
0
10
16.019538185
20
37.3009602561
11
16.3034374602
21
37.4126165361
0
LINE
8
0
10
16.3034374602
20
37.4126165361
11
16.5145278785
21
37.4556790813
0
LINE
8
0
10
16.5145278785
20
37.4556790813
11
16.648326735
21
37.435626596
0
LINE
8
0
10
16.648326735
20
37.435626596
11
18.1923948552
21
35.1582964964
0
LINE
8
0
10
18.1923948552
20
35.1582964964
11
18.1614990852
21
35.0265782837
0
LINE
8
0
10
18.1614990852
20
35.0265782837
11
18.0433623652
21
34.8464192903
0
LINE
8
0
10
18.0433623652
20
34.8464192903
11
17.8345543264
21
34.6240117224
0
LINE
8
0
10
17.8345543264
20
34.6240117224
11
17.5332517201
21
34.3528340892
0
LINE
8
0
10
17.5332517201
20
34.3528340892
11
17.2530167095
21
34.0816775168
0
LINE
8
0
10
17.2530167095
20
34.0816775168
11
16.9180058917
21
33.7332370989
0
LINE
8
0
10
16.9180058917
20
33.7332370989
11
16.5335185793
21
33.3032920243
0
LINE
8
0
10
16.5335185793
20
33.3032920243
11
16.1050842055
21
32.7879063451
0
LINE
8
0
10
16.1050842055
20
32.7879063451
11
15.6384485594
21
32.1834399706
0
LINE
8
0
10
15.6384485594
20
32.1834399706
11
15.1395595316
21
31.4865590354
0
LINE
8
0
10
15.1395595316
20
31.4865590354
11
14.8746672584
21
31.086797418
0
LINE
8
0
10
14.8746672584
20
31.086797418
11
15.5773423314
21
30.050429221
0
LINE
8
0
10
15.5773423314
20
30.050429221
11
16.3879494051
21
29.0961087979
0
LINE
8
0
10
16.3879494051
20
29.0961087979
11
16.8440058983
21
29.2443981843
0
LINE
8
0
10
16.8440058983
20
29.2443981843
11
17.6489524709
21
29.5386673047
0
LINE
8
0
10
17.6489524709
20
29.5386673047
11
18.3562243006
21
29.826582193
0
LINE
8
0
10
18.3562243006
20
29.826582193
11
18.9674425042
21
30.1015198562
0
LINE
8
0
10
18.9674425042
20
30.1015198562
11
19.4845773294
21
30.3569701118
0
LINE
8
0
10
19.4845773294
20
30.3569701118
11
19.909941979
21
30.5865520967
0
LINE
8
0
10
19.909941979
20
30.5865520967
11
20.246185699
21
30.7840304717
0
LINE
8
0
10
20.246185699
20
30.7840304717
11
20.5880858912
21
31.0018028942
0
LINE
8
0
10
20.5880858912
20
31.0018028942
11
20.8582487693
21
31.1434995512
0
LINE
8
0
10
20.8582487693
20
31.1434995512
11
21.0634458864
21
31.2091325508
0
LINE
8
0
10
21.0634458864
20
31.2091325508
11
21.1986284633
21
31.2036638151
0
LINE
8
0
10
21.1986284633
20
31.2036638151
11
22.9798678849
21
29.1066266516
0
LINE
8
0
10
22.9798678849
20
29.1066266516
11
22.9633944712
21
28.9723401564
0
LINE
8
0
10
22.9633944712
20
28.9723401564
11
22.8654288872
21
28.7804644366
0
LINE
8
0
10
22.8654288872
20
28.7804644366
11
22.6818913781
21
28.5367845111
0
LINE
8
0
10
22.6818913781
20
28.5367845111
11
22.41167448
21
28.2346199907
0
LINE
8
0
10
22.41167448
20
28.2346199907
11
22.1623994015
21
27.9347542155
0
LINE
8
0
10
22.1623994015
20
27.9347542155
11
21.8670254675
21
27.5521353295
0
LINE
8
0
10
21.8670254675
20
27.5521353295
11
21.5312772755
21
27.0831402206
0
LINE
8
0
10
21.5312772755
20
27.0831402206
11
21.1610773961
21
26.5244538504
0
LINE
8
0
10
21.1610773961
20
26.5244538504
11
20.7625314994
21
25.8730786956
0
LINE
8
0
10
20.7625314994
20
25.8730786956
11
20.341913063
21
25.1263435143
0
LINE
8
0
10
20.341913063
20
25.1263435143
11
20.1217954334
21
24.7002854241
0
LINE
8
0
10
20.1217954334
20
24.7002854241
11
20.9324025072
21
23.745965001
0
LINE
8
0
10
20.9324025072
20
23.745965001
11
21.8414379549
21
22.8848808862
0
LINE
8
0
10
21.8414379549
20
22.8848808862
11
22.2787881225
21
23.0816093743
0
LINE
8
0
10
22.2787881225
20
23.0816093743
11
23.0471999753
21
23.4611835098
0
LINE
8
0
10
23.0471999753
20
23.4611835098
11
23.7191966722
21
23.8238801647
0
LINE
8
0
10
23.7191966722
20
23.8238801647
11
24.2971058982
21
24.1632904438
0
LINE
8
0
10
24.2971058982
20
24.1632904438
11
24.783590226
21
24.4731553487
0
LINE
8
0
10
24.783590226
20
24.4731553487
11
25.1816391909
21
24.7473815226
0
LINE
8
0
10
25.1816391909
20
24.7473815226
11
25.4945606678
21
24.9800566119
0
LINE
8
0
10
25.4945606678
20
24.9800566119
11
25.8109112858
21
25.2335183562
0
LINE
8
0
10
25.8109112858
20
25.2335183562
11
26.0641703541
21
25.4035941266
0
LINE
8
0
10
26.0641703541
20
25.4035941266
11
26.2610684214
21
25.4910280935
0
LINE
8
0
10
26.2610684214
20
25.4910280935
11
26.3960498266
21
25.5002072233
0
LINE
8
0
10
26.3960498266
20
25.5002072233
11
28.3935771462
21
23.6080488394
0
LINE
8
0
10
28.3935771462
20
23.6080488394
11
28.3917192243
21
23.4727684481
0
LINE
8
0
10
28.3917192243
20
23.4727684481
11
28.3150733332
21
23.2714255692
0
LINE
8
0
10
28.3150733332
20
23.2714255692
11
28.1589581632
21
23.0093302106
0
LINE
8
0
10
28.1589581632
20
23.0093302106
11
27.9229950195
21
22.6797214057
0
LINE
8
0
10
27.9229950195
20
22.6797214057
11
27.7076023955
21
22.3546620798
0
LINE
8
0
10
27.7076023955
20
22.3546620798
11
27.4553283345
21
21.9423505822
0
LINE
8
0
10
27.4553283345
20
21.9423505822
11
27.1722556037
21
21.4398039778
0
LINE
8
0
10
27.1722556037
20
21.4398039778
11
26.8646304738
21
20.8443670034
0
LINE
8
0
10
26.8646304738
20
20.8443670034
11
26.5388469125
21
20.1537198465
0
LINE
8
0
10
26.5388469125
20
20.1537198465
11
26.2014304343
21
19.3658852065
0
LINE
8
0
10
26.2014304343
20
19.3658852065
11
26.0286681262
21
18.9185257849
0
LINE
8
0
10
26.0286681262
20
18.9185257849
11
26.9377035739
21
18.0574416702
0
LINE
8
0
10
26.9377035739
20
18.0574416702
11
27.9345097862
21
17.2996892877
0
LINE
8
0
10
27.9345097862
20
17.2996892877
11
28.3480260973
21
17.5425504158
0
LINE
8
0
10
28.3480260973
20
17.5425504158
11
29.070894304
21
18.0029794067
0
LINE
8
0
10
29.070894304
20
18.0029794067
11
29.6997373211
21
18.4362055416
0
LINE
8
0
10
29.6997373211
20
18.4362055416
11
30.2375621122
21
18.8361091613
0
LINE
8
0
10
30.2375621122
20
18.8361091613
11
30.6876923587
21
19.1967558329
0
LINE
8
0
10
30.6876923587
20
19.1967558329
11
31.0537588788
21
19.5124111445
0
LINE
8
0
10
31.0537588788
20
19.5124111445
11
31.3396893943
21
19.7775550454
0
LINE
8
0
10
31.3396893943
20
19.7775550454
11
31.6267815165
21
20.0637345044
0
LINE
8
0
10
31.6267815165
20
20.0637345044
11
31.8601675439
21
20.2601954052
0
LINE
8
0
10
31.8601675439
20
20.2601954052
11
32.0464581116
21
20.3684052563
0
LINE
8
0
10
32.0464581116
20
20.3684052563
11
32.1796558115
21
20.3921246347
0
LINE
8
0
10
32.1796558115
20
20.3921246347
11
34.3700518475
21
18.7270288573
0
LINE
8
0
10
34.3700518475
20
18.7270288573
11
34.3828312
21
18.5923406087
0
LINE
8
0
10
34.3828312
20
18.5923406087
11
34.3284036049
21
18.3838911319
0
LINE
8
0
10
34.3284036049
20
18.3838911319
11
34.2015410815
21
18.1064531686
0
LINE
8
0
10
34.2015410815
20
18.1064531686
11
34.0025981444
21
17.7532644412
0
LINE
8
0
10
34.0025981444
20
17.7532644412
11
33.8236132564
21
17.4068225879
0
LINE
8
0
10
33.8236132564
20
17.4068225879
11
33.6173967512
21
16.9696524541
0
LINE
8
0
10
33.6173967512
20
16.9696524541
11
33.3903182504
21
16.4394462536
0
LINE
8
0
10
33.3903182504
20
16.4394462536
11
33.1488744934
21
15.8142396292
0
LINE
8
0
10
33.1488744934
20
15.8142396292
11
32.899672782
21
15.0924176767
0
LINE
8
0
10
32.899672782
20
15.0924176767
11
32.6494141616
21
14.2727202186
0
LINE
8
0
10
32.6494141616
20
14.2727202186
11
32.5260326551
21
13.809304346
0
LINE
8
0
10
32.5260326551
20
13.809304346
11
33.5228388673
21
13.0515519635
0
LINE
8
0
10
33.5228388673
20
13.0515519635
11
34.5957292026
21
12.4060152672
0
LINE
8
0
10
34.5957292026
20
12.4060152672
11
34.9805635567
21
12.6921617107
0
LINE
8
0
10
34.9805635567
20
12.6921617107
11
35.6494131484
21
13.2280474481
0
LINE
8
0
10
35.6494131484
20
13.2280474481
11
36.2277298764
21
13.7267238825
0
LINE
8
0
10
36.2277298764
20
13.7267238825
11
36.7191647287
21
14.1824323386
0
LINE
8
0
10
36.7191647287
20
14.1824323386
11
37.1276635283
21
14.5896325244
0
LINE
8
0
10
37.1276635283
20
14.5896325244
11
37.4574558083
21
14.9430162039
0
LINE
8
0
10
37.4574558083
20
14.9430162039
11
37.7130430885
21
15.2375203465
0
LINE
8
0
10
37.7130430885
20
15.2375203465
11
37.9675108222
21
15.5530623277
0
LINE
8
0
10
37.9675108222
20
15.5530623277
11
38.1782875709
21
15.7736050345
0
LINE
8
0
10
38.1782875709
20
15.7736050345
11
38.3517865525
21
15.9013221081
0
LINE
8
0
10
38.3517865525
20
15.9013221081
11
38.4816389258
21
15.939303647
0
LINE
8
0
10
38.4816389258
20
15.939303647
11
40.8392232875
21
14.5207922018
0
LINE
8
0
10
40.8392232875
20
14.5207922018
11
40.8664900881
21
14.3882751926
0
LINE
8
0
10
40.8664900881
20
14.3882751926
11
40.8349189027
21
14.1751629974
0
LINE
8
0
10
40.8349189027
20
14.1751629974
11
40.7387963732
21
13.8856351358
0
LINE
8
0
10
40.7387963732
20
13.8856351358
11
40.5792060665
21
13.5130073008
0
LINE
8
0
10
40.5792060665
20
13.5130073008
11
40.4387273488
21
13.149244634
0
LINE
8
0
10
40.4387273488
20
13.149244634
11
40.2809860993
21
12.6923412842
0
LINE
8
0
10
40.2809860993
20
12.6923412842
11
40.1125641164
21
12.1406916705
0
LINE
8
0
10
40.1125641164
20
12.1406916705
11
39.9401324396
21
11.4930453721
0
LINE
8
0
10
39.9401324396
20
11.4930453721
11
39.7704342402
21
10.7485113264
0
LINE
8
0
10
39.7704342402
20
10.7485113264
11
39.6102675311
21
9.90656125356
0
LINE
8
0
10
39.6102675311
20
9.90656125356
11
39.5377133616
21
9.43252205727
0
LINE
8
0
10
39.5377133616
20
9.43252205727
11
40.6106036969
21
8.78698536097
0
LINE
8
0
10
40.6106036969
20
8.78698536097
11
41.7469994971
21
8.26123267837
0
LINE
8
0
10
41.7469994971
20
8.26123267837
11
42.0986400631
21
8.58730963171
0
LINE
8
0
10
42.0986400631
20
8.58730963171
11
42.7056293899
21
9.19236934528
0
LINE
8
0
10
42.7056293899
20
9.19236934528
11
43.2266395938
21
9.75064955405
0
LINE
8
0
10
43.2266395938
20
9.75064955405
11
43.665922883
21
10.2568200815
0
LINE
8
0
10
43.665922883
20
10.2568200815
11
44.0280009608
21
10.7057997316
0
LINE
8
0
10
44.0280009608
20
10.7057997316
11
44.3176524877
21
11.0927686784
0
LINE
8
0
10
44.3176524877
20
11.0927686784
11
44.5399000056
21
11.413180271
0
LINE
8
0
10
44.5399000056
20
11.413180271
11
44.7587599492
21
11.7543853332
0
LINE
8
0
10
44.7587599492
20
11.7543853332
11
44.9444562546
21
11.9964241843
0
LINE
8
0
10
44.9444562546
20
11.9964241843
11
45.1031295331
21
12.1421511146
0
LINE
8
0
10
45.1031295331
20
12.1421511146
11
45.2281141795
21
12.1939495152
0
LINE
8
0
10
45.2281141795
20
12.1939495152
11
47.7252463457
21
11.038653152
0
LINE
8
0
10
47.7252463457
20
11.038653152
11
47.7666809162
21
10.9098610228
0
LINE
8
0
10
47.7666809162
20
10.9098610228
11
47.7583362837
21
10.6945846548
0
LINE
8
0
10
47.7583362837
20
10.6945846548
11
47.6940806968
21
10.3963613444
0
LINE
8
0
10
47.6940806968
20
10.3963613444
11
47.5757140712
21
10.0086631225
0
LINE
8
0
10
47.5757140712
20
10.0086631225
11
47.4753885082
21
9.63184442697
0
LINE
8
0
10
47.4753885082
20
9.63184442697
11
47.3679718863
21
9.16056463511
0
LINE
8
0
10
47.3679718863
20
9.16056463511
11
47.260181015
21
8.59393919564
0
LINE
8
0
10
47.260181015
20
8.59393919564
11
47.1587830221
21
7.93144628396
0
LINE
8
0
10
47.1587830221
20
7.93144628396
11
47.0705778911
21
7.17292912597
0
LINE
8
0
10
47.0705778911
20
7.17292912597
11
47.0023809016
21
6.31859753314
0
LINE
8
0
10
47.0023809016
20
6.31859753314
11
46.9815047003
21
5.83949268933
0
LINE
8
0
10
46.9815047003
20
5.83949268933
11
48.1179005005
21
5.31374000673
0
LINE
8
0
10
48.1179005005
20
5.31374000673
11
49.3044785637
21
4.91393530734
0
LINE
8
0
10
49.3044785637
20
4.91393530734
11
49.6188026775
21
5.27611981644
0
LINE
8
0
10
49.6188026775
20
5.27611981644
11
50.1568153446
21
5.94325973426
0
LINE
8
0
10
50.1568153446
20
5.94325973426
11
50.6144106562
21
6.55459839236
0
LINE
8
0
10
50.6144106562
20
6.55459839236
11
50.9963921874
21
7.10529660449
0
LINE
8
0
10
50.9963921874
20
7.10529660449
11
51.3078045089
21
7.59079184301
0
LINE
8
0
10
51.3078045089
20
7.59079184301
11
51.5539193835
21
8.00680920006
0
LINE
8
0
10
51.5539193835
20
8.00680920006
11
51.74022149
21
8.34937170965
0
LINE
8
0
10
51.74022149
20
8.34937170965
11
51.9209077108
21
8.71223953544
0
LINE
8
0
10
51.9209077108
20
8.71223953544
11
52.0793464535
21
8.97293684672
0
LINE
8
0
10
52.0793464535
20
8.97293684672
11
52.2213337298
21
9.13496511859
0
LINE
8
0
10
52.2213337298
20
9.13496511859
11
52.3399853186
21
9.1999730921
0
LINE
8
0
10
52.3399853186
20
9.1999730921
11
54.9473886979
21
8.32143660429
0
LINE
8
0
10
54.9473886979
20
8.32143660429
11
55.0025052557
21
8.19787932519
0
LINE
8
0
10
55.0025052557
20
8.19787932519
11
55.0174850094
21
7.98296270304
0
LINE
8
0
10
55.0174850094
20
7.98296270304
11
54.9858497031
21
7.67954033948
0
LINE
8
0
10
54.9858497031
20
7.67954033948
11
54.9100944989
21
7.28131713772
0
LINE
8
0
10
54.9100944989
20
7.28131713772
11
54.8510983161
21
6.89586026818
0
LINE
8
0
10
54.8510983161
20
6.89586026818
11
54.7952656836
21
6.41572935893
0
LINE
8
0
10
54.7952656836
20
6.41572935893
11
54.7493696733
21
5.84077125887
0
LINE
8
0
10
54.7493696733
20
5.84077125887
11
54.7201941632
21
5.17119885755
0
LINE
8
0
10
54.7201941632
20
5.17119885755
11
54.714516225
21
4.40759150746
0
LINE
8
0
10
54.714516225
20
4.40759150746
11
54.7390885023
21
3.55089465146
0
LINE
8
0
10
54.7390885023
20
3.55089465146
11
54.7701350237
21
3.07234122638
0
LINE
8
0
10
54.7701350237
20
3.07234122638
11
55.9567130869
21
2.67253652699
0
LINE
8
0
10
55.9567130869
20
2.67253652699
11
57.1795618704
21
2.40336715537
0
LINE
8
0
10
57.1795618704
20
2.40336715537
11
57.4528843692
21
2.797412938
0
LINE
8
0
10
57.4528843692
20
2.797412938
11
57.9156126699
21
3.51881145451
0
LINE
8
0
10
57.9156126699
20
3.51881145451
11
58.3044282026
21
4.17604117513
0
LINE
8
0
10
58.3044282026
20
4.17604117513
11
58.6246295915
21
4.76481063895
0
LINE
8
0
10
58.6246295915
20
4.76481063895
11
58.8817251319
21
5.2811294781
0
LINE
8
0
10
58.8817251319
20
5.2811294781
11
59.0814178823
21
5.72131782224
0
LINE
8
0
10
59.0814178823
20
5.72131782224
11
59.2295903556
21
6.0820150166
0
LINE
8
0
10
59.2295903556
20
6.0820150166
11
59.3699844729
21
6.46229131249
0
LINE
8
0
10
59.3699844729
20
6.46229131249
11
59.4993081035
21
6.73859064631
0
LINE
8
0
10
59.4993081035
20
6.73859064631
11
59.6229447066
21
6.91502062644
0
LINE
8
0
10
59.6229447066
20
6.91502062644
11
59.7338721565
21
6.99247601375
0
LINE
8
0
10
59.7338721565
20
6.99247601375
11
62.4209773281
21
6.40099943847
0
LINE
8
0
10
62.4209773281
20
6.40099943847
11
62.489129682
21
6.28412560556
0
LINE
8
0
10
62.489129682
20
6.28412560556
11
62.527258198
21
6.07208843013
0
LINE
8
0
10
62.527258198
20
6.07208843013
11
62.5286140673
21
5.7670243632
0
LINE
8
0
10
62.5286140673
20
5.7670243632
11
62.496358445
21
5.3629449846
0
LINE
8
0
10
62.496358445
20
5.3629449846
11
62.4793833188
21
4.97336907036
0
LINE
8
0
10
62.4793833188
20
4.97336907036
11
62.4757892622
21
4.49001613964
0
LINE
8
0
10
62.4757892622
20
4.49001613964
11
62.4923262017
21
3.91346623702
0
LINE
8
0
10
62.4923262017
20
3.91346623702
11
62.5357152305
21
3.2446644703
0
LINE
8
0
10
62.5357152305
20
3.2446644703
11
62.6126310538
21
2.48491952611
0
LINE
8
0
10
62.6126310538
20
2.48491952611
11
62.7296845105
21
1.63590139429
0
LINE
8
0
10
62.7296845105
20
1.63590139429
11
62.8122897624
21
1.1635099893
0
LINE
8
0
10
62.8122897624
20
1.1635099893
11
64.0351385459
21
0.894340617678
0
LINE
8
0
10
64.0351385459
20
0.894340617678
11
65.2799212657
21
0.758962338592
0
LINE
8
0
10
65.2799212657
20
0.758962338592
11
65.509037693
21
1.18024956825
0
LINE
8
0
10
65.509037693
20
1.18024956825
11
65.8910565611
21
1.94744894541
0
LINE
8
0
10
65.8910565611
20
1.94744894541
11
66.2065338081
21
2.64286431098
0
LINE
8
0
10
66.2065338081
20
2.64286431098
11
66.4612009863
21
3.26280224285
0
LINE
8
0
10
66.4612009863
20
3.26280224285
11
66.6609655356
21
3.80389131631
0
LINE
8
0
10
66.6609655356
20
3.80389131631
11
66.8118949468
21
4.26308984168
0
LINE
8
0
10
66.8118949468
20
4.26308984168
11
66.9202006001
21
4.63769287601
0
LINE
8
0
10
66.9202006001
20
4.63769287601
11
67.0186566213
21
5.03091925011
0
LINE
8
0
10
67.0186566213
20
5.03091925011
11
67.1173489385
21
5.3195812494
0
LINE
8
0
10
67.1173489385
20
5.3195812494
11
67.2211853422
21
5.50834445759
0
LINE
8
0
10
67.2211853422
20
5.50834445759
11
67.3230881301
21
5.5973391651
0
LINE
8
0
10
67.3230881301
20
5.5973391651
11
70.0583912428
21
5.29985702441
0
LINE
8
0
10
70.0583912428
20
5.29985702441
11
70.1387803688
21
5.19103687652
0
LINE
8
0
10
70.1387803688
20
5.19103687652
11
70.1996106251
21
4.98436508982
0
LINE
8
0
10
70.1996106251
20
4.98436508982
11
70.2339417738
21
4.68123591679
0
LINE
8
0
10
70.2339417738
20
4.68123591679
11
70.2455639011
21
4.27603782259
0
LINE
8
0
10
70.2455639011
20
4.27603782259
11
70.2708088492
21
3.88691028507
0
LINE
8
0
10
70.2708088492
20
3.88691028507
11
70.3194955055
21
3.40600220407
0
LINE
8
0
10
70.3194955055
20
3.40600220407
11
70.3982715144
21
2.83462001935
0
LINE
8
0
10
70.3982715144
20
2.83462001935
11
70.5137163853
21
2.17442997643
0
LINE
8
0
10
70.5137163853
20
2.17442997643
11
70.6723242024
21
1.42745475297
0
LINE
8
0
10
70.6723242024
20
1.42745475297
11
70.8804864938
21
0.596069306664
0
LINE
8
0
10
70.8804864938
20
0.596069306664
11
71.0136820051
21
0.135378279086
0
LINE
8
0
10
71.0136820051
20
0.135378279086
11
72.2584647249
21
5.68434188608e-14
0
LINE
8
0
10
72.2584647249
20
5.68434188608e-14
11
73.5105874417
21
0.0
0
LINE
8
0
10
73.5105874417
20
0.0
11
73.692811617
21
0.44358946909
0
LINE
8
0
10
73.692811617
20
0.44358946909
11
73.9896422305
21
1.24759499567
0
LINE
8
0
10
73.9896422305
20
1.24759499567
11
74.2280825097
21
1.97304289686
0
LINE
8
0
10
74.2280825097
20
1.97304289686
11
74.4142297373
21
2.61688109134
0
LINE
8
0
10
74.4142297373
20
2.61688109134
11
74.5543212387
21
3.17639662446
0
LINE
8
0
10
74.5543212387
20
3.17639662446
11
74.6547178014
21
3.64922164819
0
LINE
8
0
10
74.6547178014
20
3.64922164819
11
74.72188685
21
4.0333386444
0
LINE
8
0
10
74.72188685
20
4.0333386444
11
74.7772504681
21
4.43490487701
0
LINE
8
0
10
74.7772504681
20
4.43490487701
11
74.8441543947
21
4.73254524376
0
LINE
8
0
10
74.8441543947
20
4.73254524376
11
74.9269732122
21
4.93142860398
0
LINE
8
0
10
74.9269732122
20
4.93142860398
11
75.0186566213
21
5.03091925011
0
LINE
8
0
10
75.0186566213
20
5.03091925011
11
77.770088747
21
5.03091925011
0
LINE
8
0
10
77.770088747
20
5.03091925011
11
77.861772156
21
4.93142860398
0
LINE
8
0
10
77.861772156
20
4.93142860398
11
77.9445909735
21
4.73254524376
0
LINE
8
0
10
77.9445909735
20
4.73254524376
11
78.0114949001
21
4.43490487701
0
LINE
8
0
10
78.0114949001
20
4.43490487701
11
78.0668585182
21
4.0333386444
0
LINE
8
0
10
78.0668585182
20
4.0333386444
11
78.1340275668
21
3.64922164819
0
LINE
8
0
10
78.1340275668
20
3.64922164819
11
78.2344241295
21
3.17639662446
0
LINE
8
0
10
78.2344241295
20
3.17639662446
11
78.3745156309
21
2.61688109134
0
LINE
8
0
10
78.3745156309
20
2.61688109134
11
78.5606628585
21
1.97304289686
0
LINE
8
0
10
78.5606628585
20
1.97304289686
11
78.7991031377
21
1.24759499567
0
LINE
8
0
10
78.7991031377
20
1.24759499567
11
79.0959337512
21
0.44358946909
0
LINE
8
0
10
79.0959337512
20
0.44358946909
11
79.2781579265
21
5.68434188608e-14
0
LINE
8
0
10
79.2781579265
20
5.68434188608e-14
11
80.5302806433
21
7.1054273576e-14
0
LINE
8
0
10
80.5302806433
20
7.1054273576e-14
11
81.7750633631
21
0.135378279086
0
LINE
8
0
10
81.7750633631
20
0.135378279086
11
81.9082588744
21
0.596069306664
0
LINE
8
0
10
81.9082588744
20
0.596069306664
11
82.1164211659
21
1.42745475297
0
LINE
8
0
10
82.1164211659
20
1.42745475297
11
82.2750289829
21
2.17442997643
0
LINE
8
0
10
82.2750289829
20
2.17442997643
11
82.3904738538
21
2.83462001935
0
LINE
8
0
10
82.3904738538
20
2.83462001935
11
82.4692498627
21
3.40600220407
0
LINE
8
0
10
82.4692498627
20
3.40600220407
11
82.517936519
21
3.88691028506
0
LINE
8
0
10
82.517936519
20
3.88691028506
11
82.5431814671
21
4.27603782258
0
LINE
8
0
10
82.5431814671
20
4.27603782258
11
82.5548035945
21
4.68123591679
0
LINE
8
0
10
82.5548035945
20
4.68123591679
11
82.5891347431
21
4.98436508982
0
LINE
8
0
10
82.5891347431
20
4.98436508982
11
82.6499649994
21
5.19103687652
0
LINE
8
0
10
82.6499649994
20
5.19103687652
11
82.7303541254
21
5.29985702441
0
LINE
8
0
10
82.7303541254
20
5.29985702441
11
85.4656572381
21
5.5973391651
0
LINE
8
0
10
85.4656572381
20
5.5973391651
11
85.5675600261
21
5.50834445759
0
LINE
8
0
10
85.5675600261
20
5.50834445759
11
85.6713964298
21
5.3195812494
0
LINE
8
0
10
85.6713964298
20
5.3195812494
11
85.770088747
21
5.03091925011
0
LINE
8
0
10
85.770088747
20
5.03091925011
11
85.8685447681
21
4.63769287601
0
LINE
8
0
10
85.8685447681
20
4.63769287601
11
85.9768504214
21
4.26308984169
0
LINE
8
0
10
85.9768504214
20
4.26308984169
11
86.1277798326
21
3.80389131631
0
LINE
8
0
10
86.1277798326
20
3.80389131631
11
86.3275443819
21
3.26280224285
0
LINE
8
0
10
86.3275443819
20
3.26280224285
11
86.5822115601
21
2.64286431098
0
LINE
8
0
10
86.5822115601
20
2.64286431098
11
86.8976888071
21
1.94744894541
0
LINE
8
0
10
86.8976888071
20
1.94744894541
11
87.2797076752
21
1.18024956825
0
LINE
8
0
10
87.2797076752
20
1.18024956825
11
87.5088241026
21
0.758962338592
0
LINE
8
0
10
87.5088241026
20
0.758962338592
11
88.7536068223
21
0.894340617678
0
LINE
8
0
10
88.7536068223
20
0.894340617678
11
89.9764556058
21
1.1635099893
0
LINE
8
0
10
89.9764556058
20
1.1635099893
11
90.0590608577
21
1.63590139429
0
LINE
8
0
10
90.0590608577
20
1.63590139429
11
90.1761143145
21
2.48491952611
0
LINE
8
0
10
90.1761143145
20
2.48491952611
11
90.2530301378
21
3.2446644703
0
LINE
8
0
10
90.2530301378
20
3.2446644703
11
90.2964191665
21
3.91346623702
0
LINE
8
0
10
90.2964191665
20
3.91346623702
11
90.312956106
21
4.49001613964
0
LINE
8
0
10
90.312956106
20
4.49001613964
11
90.3093620494
21
4.97336907036
0
LINE
8
0
10
90.3093620494
20
4.97336907036
11
90.2923869232
21
5.36294498459
0
LINE
8
0
10
90.2923869232
20
5.36294498459
11
90.2601313009
21
5.7670243632
0
LINE
8
0
10
90.2601313009
20
5.7670243632
11
90.2614871702
21
6.07208843013
0
LINE
8
0
10
90.2614871702
20
6.07208843013
11
90.2996156862
21
6.28412560556
0
LINE
8
0
10
90.2996156862
20
6.28412560556
11
90.3677680401
21
6.40099943847
0
LINE
8
0
10
90.3677680401
20
6.40099943847
11
93.0548732117
21
6.99247601375
0
LINE
8
0
10
93.0548732117
20
6.99247601375
11
93.1658006616
21
6.91502062644
0
LINE
8
0
10
93.1658006616
20
6.91502062644
11
93.2894372647
21
6.73859064631
0
LINE
8
0
10
93.2894372647
20
6.73859064631
11
93.4187608953
21
6.46229131249
0
LINE
8
0
10
93.4187608953
20
6.46229131249
11
93.5591550126
21
6.08201501661
0
LINE
8
0
10
93.5591550126
20
6.08201501661
11
93.7073274859
21
5.72131782224
0
LINE
8
0
10
93.7073274859
20
5.72131782224
11
93.9070202363
21
5.2811294781
0
LINE
8
0
10
93.9070202363
20
5.2811294781
11
94.1641157767
21
4.76481063895
0
LINE
8
0
10
94.1641157767
20
4.76481063895
11
94.4843171657
21
4.17604117513
0
LINE
8
0
10
94.4843171657
20
4.17604117513
11
94.8731326983
21
3.51881145451
0
LINE
8
0
10
94.8731326983
20
3.51881145451
11
95.335860999
21
2.797412938
0
LINE
8
0
10
95.335860999
20
2.797412938
11
95.6091834978
21
2.40336715537
0
LINE
8
0
10
95.6091834978
20
2.40336715537
11
96.8320322813
21
2.67253652699
0
LINE
8
0
10
96.8320322813
20
2.67253652699
11
98.0186103446
21
3.07234122638
0
LINE
8
0
10
98.0186103446
20
3.07234122638
11
98.0496568659
21
3.55089465146
0
LINE
8
0
10
98.0496568659
20
3.55089465146
11
98.0742291432
21
4.40759150746
0
LINE
8
0
10
98.0742291432
20
4.40759150746
11
98.0685512051
21
5.17119885755
0
LINE
8
0
10
98.0685512051
20
5.17119885755
11
98.0393756949
21
5.84077125887
0
LINE
8
0
10
98.0393756949
20
5.84077125887
11
97.9934796846
21
6.41572935893
0
LINE
8
0
10
97.9934796846
20
6.41572935893
11
97.9376470521
21
6.89586026818
0
LINE
8
0
10
97.9376470521
20
6.89586026818
11
97.8786508693
21
7.28131713772
0
LINE
8
0
10
97.8786508693
20
7.28131713772
11
97.8028956651
21
7.67954033948
0
LINE
8
0
10
97.8028956651
20
7.67954033948
11
97.7712603588
21
7.98296270304
0
LINE
8
0
10
97.7712603588
20
7.98296270304
11
97.7862401126
21
8.19787932519
0
LINE
8
0
10
97.7862401126
20
8.19787932519
11
97.8413566703
21
8.32143660429
0
LINE
8
0
10
97.8413566703
20
8.32143660429
11
100.44876005
21
9.1999730921
0
LINE
8
0
10
100.44876005
20
9.1999730921
11
100.567411638
21
9.13496511859
0
LINE
8
0
10
100.567411638
20
9.13496511859
11
100.709398915
21
8.97293684672
0
LINE
8
0
10
100.709398915
20
8.97293684672
11
100.867837657
21
8.71223953544
0
LINE
8
0
10
100.867837657
20
8.71223953544
11
101.048523878
21
8.34937170965
0
LINE
8
0
10
101.048523878
20
8.34937170965
11
101.234825985
21
8.00680920007
0
LINE
8
0
10
101.234825985
20
8.00680920007
11
101.480940859
21
7.59079184301
0
LINE
8
0
10
101.480940859
20
7.59079184301
11
101.792353181
21
7.10529660449
0
LINE
8
0
10
101.792353181
20
7.10529660449
11
102.174334712
21
6.55459839236
0
LINE
8
0
10
102.174334712
20
6.55459839236
11
102.631930024
21
5.94325973426
0
LINE
8
0
10
102.631930024
20
5.94325973426
11
103.169942691
21
5.27611981644
0
LINE
8
0
10
103.169942691
20
5.27611981644
11
103.484266804
21
4.91393530734
0
LINE
8
0
10
103.484266804
20
4.91393530734
11
104.670844868
21
5.31374000673
0
LINE
8
0
10
104.670844868
20
5.31374000673
11
105.807240668
21
5.83949268933
0
LINE
8
0
10
105.807240668
20
5.83949268933
11
105.786364467
21
6.31859753313
0
LINE
8
0
10
105.786364467
20
6.31859753313
11
105.718167477
21
7.17292912597
0
LINE
8
0
10
105.718167477
20
7.17292912597
11
105.629962346
21
7.93144628396
0
LINE
8
0
10
105.629962346
20
7.93144628396
11
105.528564353
21
8.59393919564
0
LINE
8
0
10
105.528564353
20
8.59393919564
11
105.420773482
21
9.16056463511
0
LINE
8
0
10
105.420773482
20
9.16056463511
11
105.31335686
21
9.63184442697
0
LINE
8
0
10
105.31335686
20
9.63184442697
11
105.213031297
21
10.0086631225
0
LINE
8
0
10
105.213031297
20
10.0086631225
11
105.094664671
21
10.3963613444
0
LINE
8
0
10
105.094664671
20
10.3963613444
11
105.030409084
21
10.6945846548
0
LINE
8
0
10
105.030409084
20
10.6945846548
11
105.022064452
21
10.9098610228
0
LINE
8
0
10
105.022064452
20
10.9098610228
11
105.063499022
21
11.038653152
0
LINE
8
0
10
105.063499022
20
11.038653152
11
107.560631189
21
12.1939495152
0
LINE
8
0
10
107.560631189
20
12.1939495152
11
107.685615835
21
12.1421511146
0
LINE
8
0
10
107.685615835
20
12.1421511146
11
107.844289114
21
11.9964241843
0
LINE
8
0
10
107.844289114
20
11.9964241843
11
108.029985419
21
11.7543853332
0
LINE
8
0
10
108.029985419
20
11.7543853332
11
108.248845363
21
11.413180271
0
LINE
8
0
10
108.248845363
20
11.413180271
11
108.47109288
21
11.0927686784
0
LINE
8
0
10
108.47109288
20
11.0927686784
11
108.760744407
21
10.7057997316
0
LINE
8
0
10
108.760744407
20
10.7057997316
11
109.122822485
21
10.2568200815
0
LINE
8
0
10
109.122822485
20
10.2568200815
11
109.562105774
21
9.75064955405
0
LINE
8
0
10
109.562105774
20
9.75064955405
11
110.083115978
21
9.19236934528
0
LINE
8
0
10
110.083115978
20
9.19236934528
11
110.690105305
21
8.58730963171
0
LINE
8
0
10
110.690105305
20
8.58730963171
11
111.041745871
21
8.26123267837
0
LINE
8
0
10
111.041745871
20
8.26123267837
11
112.178141671
21
8.78698536097
0
LINE
8
0
10
112.178141671
20
8.78698536097
11
113.251032007
21
9.43252205727
0
LINE
8
0
10
113.251032007
20
9.43252205727
11
113.178477837
21
9.90656125356
0
LINE
8
0
10
113.178477837
20
9.90656125356
11
113.018311128
21
10.7485113264
0
LINE
8
0
10
113.018311128
20
10.7485113264
11
112.848612929
21
11.4930453721
0
LINE
8
0
10
112.848612929
20
11.4930453721
11
112.676181252
21
12.1406916705
0
LINE
8
0
10
112.676181252
20
12.1406916705
11
112.507759269
21
12.6923412842
0
LINE
8
0
10
112.507759269
20
12.6923412842
11
112.350018019
21
13.149244634
0
LINE
8
0
10
112.350018019
20
13.149244634
11
112.209539302
21
13.5130073008
0
LINE
8
0
10
112.209539302
20
13.5130073008
11
112.049948995
21
13.8856351358
0
LINE
8
0
10
112.049948995
20
13.8856351358
11
111.953826466
21
14.1751629974
0
LINE
8
0
10
111.953826466
20
14.1751629974
11
111.92225528
21
14.3882751926
0
LINE
8
0
10
111.92225528
20
14.3882751926
11
111.949522081
21
14.5207922018
0
LINE
8
0
10
111.949522081
20
14.5207922018
11
114.307106442
21
15.939303647
0
LINE
8
0
10
114.307106442
20
15.939303647
11
114.436958816
21
15.9013221081
0
LINE
8
0
10
114.436958816
20
15.9013221081
11
114.610457797
21
15.7736050345
0
LINE
8
0
10
114.610457797
20
15.7736050345
11
114.821234546
21
15.5530623277
0
LINE
8
0
10
114.821234546
20
15.5530623277
11
115.07570228
21
15.2375203465
0
LINE
8
0
10
115.07570228
20
15.2375203465
11
115.33128956
21
14.9430162039
0
LINE
8
0
10
115.33128956
20
14.9430162039
11
115.66108184
21
14.5896325244
0
LINE
8
0
10
115.66108184
20
14.5896325244
11
116.06958064
21
14.1824323386
0
LINE
8
0
10
116.06958064
20
14.1824323386
11
116.561015492
21
13.7267238825
0
LINE
8
0
10
116.561015492
20
13.7267238825
11
117.13933222
21
13.2280474481
0
LINE
8
0
10
117.13933222
20
13.2280474481
11
117.808181812
21
12.6921617107
0
LINE
8
0
10
117.808181812
20
12.6921617107
11
118.193016166
21
12.4060152672
0
LINE
8
0
10
118.193016166
20
12.4060152672
11
119.265906501
21
13.0515519635
0
LINE
8
0
10
119.265906501
20
13.0515519635
11
120.262712713
21
13.809304346
0
LINE
8
0
10
120.262712713
20
13.809304346
11
120.139331207
21
14.2727202186
0
LINE
8
0
10
120.139331207
20
14.2727202186
11
119.889072586
21
15.0924176767
0
LINE
8
0
10
119.889072586
20
15.0924176767
11
119.639870875
21
15.8142396292
0
LINE
8
0
10
119.639870875
20
15.8142396292
11
119.398427118
21
16.4394462536
0
LINE
8
0
10
119.398427118
20
16.4394462536
11
119.171348617
21
16.9696524541
0
LINE
8
0
10
119.171348617
20
16.9696524541
11
118.965132112
21
17.4068225879
0
LINE
8
0
10
118.965132112
20
17.4068225879
11
118.786147224
21
17.7532644412
0
LINE
8
0
10
118.786147224
20
17.7532644412
11
118.587204287
21
18.1064531686
0
LINE
8
0
10
118.587204287
20
18.1064531686
11
118.460341763
21
18.3838911319
0
LINE
8
0
10
118.460341763
20
18.3838911319
11
118.405914168
21
18.5923406087
0
LINE
8
0
10
118.405914168
20
18.5923406087
11
118.418693521
21
18.7270288573
0
LINE
8
0
10
118.418693521
20
18.7270288573
11
120.609089557
21
20.3921246347
0
LINE
8
0
10
120.609089557
20
20.3921246347
11
120.742287257
21
20.3684052563
0
LINE
8
0
10
120.742287257
20
20.3684052563
11
120.928577824
21
20.2601954052
0
LINE
8
0
10
120.928577824
20
20.2601954052
11
121.161963852
21
20.0637345044
0
LINE
8
0
10
121.161963852
20
20.0637345044
11
121.449055974
21
19.7775550454
0
LINE
8
0
10
121.449055974
20
19.7775550454
11
121.734986489
21
19.5124111445
0
LINE
8
0
10
121.734986489
20
19.5124111445
11
122.101053009
21
19.1967558329
0
LINE
8
0
10
122.101053009
20
19.1967558329
11
122.551183256
21
18.8361091613
0
LINE
8
0
10
122.551183256
20
18.8361091613
11
123.089008047
21
18.4362055416
0
LINE
8
0
10
123.089008047
20
18.4362055416
11
123.717851064
21
18.0029794067
0
LINE
8
0
10
123.717851064
20
18.0029794067
11
124.440719271
21
17.5425504158
0
LINE
8
0
10
124.440719271
20
17.5425504158
11
124.854235582
21
17.2996892877
0
LINE
8
0
10
124.854235582
20
17.2996892877
11
125.851041794
21
18.0574416702
0
LINE
8
0
10
125.851041794
20
18.0574416702
11
126.760077242
21
18.9185257849
0
LINE
8
0
10
126.760077242
20
18.9185257849
11
126.587314934
21
19.3658852065
0
LINE
8
0
10
126.587314934
20
19.3658852065
11
126.249898456
21
20.1537198465
0
LINE
8
0
10
126.249898456
20
20.1537198465
11
125.924114894
21
20.8443670034
0
LINE
8
0
10
125.924114894
20
20.8443670034
11
125.616489765
21
21.4398039778
0
LINE
8
0
10
125.616489765
20
21.4398039778
11
125.333417034
21
21.9423505822
0
LINE
8
0
10
125.333417034
20
21.9423505822
11
125.081142973
21
22.3546620798
0
LINE
8
0
10
125.081142973
20
22.3546620798
11
124.865750349
21
22.6797214057
0
LINE
8
0
10
124.865750349
20
22.6797214057
11
124.629787205
21
23.0093302106
0
LINE
8
0
10
124.629787205
20
23.0093302106
11
124.473672035
21
23.2714255692
0
LINE
8
0
10
124.473672035
20
23.2714255692
11
124.397026144
21
23.4727684481
0
LINE
8
0
10
124.397026144
20
23.4727684481
11
124.395168222
21
23.6080488394
0
LINE
8
0
10
124.395168222
20
23.6080488394
11
126.392695542
21
25.5002072233
0
LINE
8
0
10
126.392695542
20
25.5002072233
11
126.527676947
21
25.4910280936
0
LINE
8
0
10
126.527676947
20
25.4910280936
11
126.724575014
21
25.4035941266
0
LINE
8
0
10
126.724575014
20
25.4035941266
11
126.977834082
21
25.2335183562
0
LINE
8
0
10
126.977834082
20
25.2335183562
11
127.2941847
21
24.9800566119
0
LINE
8
0
10
127.2941847
20
24.9800566119
11
127.607106177
21
24.7473815226
0
LINE
8
0
10
127.607106177
20
24.7473815226
11
128.005155142
21
24.4731553487
0
LINE
8
0
10
128.005155142
20
24.4731553487
11
128.49163947
21
24.1632904438
0
LINE
8
0
10
128.49163947
20
24.1632904438
11
129.069548696
21
23.8238801647
0
LINE
8
0
10
129.069548696
20
23.8238801647
11
129.741545393
21
23.4611835098
0
LINE
8
0
10
129.741545393
20
23.4611835098
11
130.509957246
21
23.0816093743
0
LINE
8
0
10
130.509957246
20
23.0816093743
11
130.947307413
21
22.8848808862
0
LINE
8
0
10
130.947307413
20
22.8848808862
11
131.856342861
21
23.745965001
0
LINE
8
0
10
131.856342861
20
23.745965001
11
132.666949935
21
24.7002854241
0
LINE
8
0
10
132.666949935
20
24.7002854241
11
132.446832305
21
25.1263435143
0
LINE
8
0
10
132.446832305
20
25.1263435143
11
132.026213869
21
25.8730786956
0
LINE
8
0
10
132.026213869
20
25.8730786956
11
131.627667972
21
26.5244538504
0
LINE
8
0
10
131.627667972
20
26.5244538504
11
131.257468093
21
27.0831402206
0
LINE
8
0
10
131.257468093
20
27.0831402206
11
130.921719901
21
27.5521353295
0
LINE
8
0
10
130.921719901
20
27.5521353295
11
130.626345967
21
27.9347542155
0
LINE
8
0
10
130.626345967
20
27.9347542155
11
130.377070888
21
28.2346199907
0
LINE
8
0
10
130.377070888
20
28.2346199907
11
130.10685399
21
28.5367845111
0
LINE
8
0
10
130.10685399
20
28.5367845111
11
129.923316481
21
28.7804644366
0
LINE
8
0
10
129.923316481
20
28.7804644366
11
129.825350897
21
28.9723401564
0
LINE
8
0
10
129.825350897
20
28.9723401564
11
129.808877483
21
29.1066266516
0
LINE
8
0
10
129.808877483
20
29.1066266516
11
131.590116905
21
31.2036638151
0
LINE
8
0
10
131.590116905
20
31.2036638151
11
131.725299482
21
31.2091325508
0
LINE
8
0
10
131.725299482
20
31.2091325508
11
131.930496599
21
31.1434995512
0
LINE
8
0
10
131.930496599
20
31.1434995512
11
132.200659477
21
31.0018028942
0
LINE
8
0
10
132.200659477
20
31.0018028942
11
132.542559669
21
30.7840304717
0
LINE
8
0
10
132.542559669
20
30.7840304717
11
132.878803389
21
30.5865520967
0
LINE
8
0
10
132.878803389
20
30.5865520967
11
133.304168039
21
30.3569701118
0
LINE
8
0
10
133.304168039
20
30.3569701118
11
133.821302864
21
30.1015198562
0
LINE
8
0
10
133.821302864
20
30.1015198562
11
134.432521068
21
29.826582193
0
LINE
8
0
10
134.432521068
20
29.826582193
11
135.139792897
21
29.5386673047
0
LINE
8
0
10
135.139792897
20
29.5386673047
11
135.94473947
21
29.2443981843
0
LINE
8
0
10
135.94473947
20
29.2443981843
11
136.400795963
21
29.0961087979
0
LINE
8
0
10
136.400795963
20
29.0961087979
11
137.211403037
21
30.050429221
0
LINE
8
0
10
137.211403037
20
30.050429221
11
137.91407811
21
31.086797418
0
LINE
8
0
10
137.91407811
20
31.086797418
11
137.649185837
21
31.4865590354
0
LINE
8
0
10
137.649185837
20
31.4865590354
11
137.150296809
21
32.1834399706
0
LINE
8
0
10
137.150296809
20
32.1834399706
11
136.683661163
21
32.7879063451
0
LINE
8
0
10
136.683661163
20
32.7879063451
11
136.255226789
21
33.3032920243
0
LINE
8
0
10
136.255226789
20
33.3032920243
11
135.870739476
21
33.7332370989
0
LINE
8
0
10
135.870739476
20
33.7332370989
11
135.535728659
21
34.0816775168
0
LINE
8
0
10
135.535728659
20
34.0816775168
11
135.255493648
21
34.3528340892
0
LINE
8
0
10
135.255493648
20
34.3528340892
11
134.954191042
21
34.6240117224
0
LINE
8
0
10
134.954191042
20
34.6240117224
11
134.745383003
21
34.8464192903
0
LINE
8
0
10
134.745383003
20
34.8464192903
11
134.627246283
21
35.0265782837
0
LINE
8
0
10
134.627246283
20
35.0265782837
11
134.596350513
21
35.1582964964
0
LINE
8
0
10
134.596350513
20
35.1582964964
11
136.140418633
21
37.435626596
0
LINE
8
0
10
136.140418633
20
37.435626596
11
136.27421749
21
37.4556790813
0
LINE
8
0
10
136.27421749
20
37.4556790813
11
136.485307908
21
37.4126165361
0
LINE
8
0
10
136.485307908
20
37.4126165361
11
136.769207183
21
37.3009602561
0
LINE
8
0
10
136.769207183
20
37.3009602561
11
137.132648482
21
37.1214303381
0
LINE
8
0
10
137.132648482
20
37.1214303381
11
137.488272295
21
36.9614639307
0
LINE
8
0
10
137.488272295
20
36.9614639307
11
137.935965618
21
36.7792177737
0
LINE
8
0
10
137.935965618
20
36.7792177737
11
138.477688008
21
36.5811770881
0
LINE
8
0
10
138.477688008
20
36.5811770881
11
139.115049214
21
36.3739354334
0
LINE
8
0
10
139.115049214
20
36.3739354334
11
139.849304061
21
36.1641778505
0
LINE
8
0
10
139.849304061
20
36.1641778505
11
140.681348091
21
35.9586637817
0
LINE
8
0
10
140.681348091
20
35.9586637817
11
141.150764064
21
35.8605520543
0
LINE
8
0
10
141.150764064
20
35.8605520543
11
141.853439137
21
36.8969202514
0
LINE
8
0
10
141.853439137
20
36.8969202514
11
142.439943987
21
38.0031857528
0
LINE
8
0
10
142.439943987
20
38.0031857528
11
142.13338269
21
38.3719640579
0
LINE
8
0
10
142.13338269
20
38.3719640579
11
141.562072088
21
39.0108204552
0
LINE
8
0
10
141.562072088
20
39.0108204552
11
141.032817569
21
39.5612912339
0
LINE
8
0
10
141.032817569
20
39.5612912339
11
140.551171702
21
40.0273337963
0
LINE
8
0
10
140.551171702
20
40.0273337963
11
140.122453031
21
40.4131881235
0
LINE
8
0
10
140.122453031
20
40.4131881235
11
139.751733025
21
40.723364928
0
LINE
8
0
10
139.751733025
20
40.723364928
11
139.443823582
21
40.9626332347
0
LINE
8
0
10
139.443823582
20
40.9626332347
11
139.114967765
21
41.199644671
0
LINE
8
0
10
139.114967765
20
41.199644671
11
138.88333728
21
41.398172356
0
LINE
8
0
10
138.88333728
20
41.398172356
11
138.746414469
21
41.5645024234
0
LINE
8
0
10
138.746414469
20
41.5645024234
11
138.701458567
21
41.692108078
0
LINE
8
0
10
138.701458567
20
41.692108078
11
139.990252599
21
44.1230315005
0
LINE
8
0
10
139.990252599
20
44.1230315005
11
140.121099066
21
44.1574326383
0
LINE
8
0
10
140.121099066
20
44.1574326383
11
140.335607943
21
44.1374454164
0
LINE
8
0
10
140.335607943
20
44.1374454164
11
140.629915156
21
44.0571385813
0
LINE
8
0
10
140.629915156
20
44.0571385813
11
141.010636545
21
43.9179559919
0
LINE
8
0
10
141.010636545
20
43.9179559919
11
141.381471087
21
43.797377012
0
LINE
8
0
10
141.381471087
20
43.797377012
11
141.846244288
21
43.6646033523
0
LINE
8
0
10
141.846244288
20
43.6646033523
11
142.406203042
21
43.5262940828
0
LINE
8
0
10
142.406203042
20
43.5262940828
11
143.062234774
21
43.3891781556
0
LINE
8
0
10
143.062234774
20
43.3891781556
11
143.814864172
21
43.260037094
0
LINE
8
0
10
143.814864172
20
43.260037094
11
144.664250704
21
43.1456875412
0
LINE
8
0
10
144.664250704
20
43.1456875412
11
145.141522684
21
43.0989037433
0
LINE
8
0
10
145.141522684
20
43.0989037433
11
145.728027533
21
44.2051692447
0
LINE
8
0
10
145.728027533
20
44.2051692447
11
146.191485926
21
45.3683620989
0
LINE
8
0
10
146.191485926
20
45.3683620989
11
145.846849756
21
45.7018335034
0
LINE
8
0
10
145.846849756
20
45.7018335034
11
145.209815675
21
46.2751753556
0
LINE
8
0
10
145.209815675
20
46.2751753556
11
144.624147309
21
46.7651967719
0
LINE
8
0
10
144.624147309
20
46.7651967719
11
144.094936806
21
47.1764322944
0
LINE
8
0
10
144.094936806
20
47.1764322944
11
143.627013111
21
47.5136720853
0
LINE
8
0
10
143.627013111
20
47.5136720853
11
143.22493027
21
47.7819487369
0
LINE
8
0
10
143.22493027
20
47.7819487369
11
142.892956351
21
47.9865235757
0
LINE
8
0
10
142.892956351
20
47.9865235757
11
142.540402857
21
48.1865900726
0
LINE
8
0
10
142.540402857
20
48.1865900726
11
142.288665581
21
48.3589103192
0
LINE
8
0
10
142.288665581
20
48.3589103192
11
142.134561974
21
48.5094613927
0
LINE
8
0
10
142.134561974
20
48.5094613927
11
142.076073008
21
48.6314584295
0
LINE
8
0
10
142.076073008
20
48.6314584295
11
143.094483019
21
51.1874748204
0
LINE
8
0
10
143.094483019
20
51.1874748204
11
143.220843041
21
51.2358212888
0
LINE
8
0
10
143.220843041
20
51.2358212888
11
143.436255457
21
51.2391437221
0
LINE
8
0
10
143.436255457
20
51.2391437221
11
143.737520125
21
51.1911278561
0
LINE
8
0
10
143.737520125
20
51.1911278561
11
144.131057994
21
51.0939243839
0
LINE
8
0
10
144.131057994
20
51.0939243839
11
144.512755569
21
51.0141465099
0
LINE
8
0
10
144.512755569
20
51.0141465099
11
144.989159607
21
50.9324019973
0
LINE
8
0
10
144.989159607
20
50.9324019973
11
145.560789721
21
50.8554456935
0
LINE
8
0
10
145.560789721
20
50.8554456935
11
146.227800607
21
50.7900630527
0
LINE
8
0
10
146.227800607
20
50.7900630527
11
146.989980664
21
50.7430525732
0
LINE
8
0
10
146.989980664
20
50.7430525732
11
147.846751416
21
50.7212081804
0
LINE
8
0
10
147.846751416
20
50.7212081804
11
148.326283826
21
50.7263008092
0
LINE
8
0
10
148.326283826
20
50.7263008092
11
148.789742219
21
51.8894936635
0
LINE
8
0
10
148.789742219
20
51.8894936635
11
149.124720529
21
53.0959764979
0
LINE
8
0
10
149.124720529
20
53.0959764979
11
148.74605003
21
53.3902313542
0
LINE
8
0
10
148.74605003
20
53.3902313542
11
148.050761112
21
53.8913367524
0
LINE
8
0
10
148.050761112
20
53.8913367524
11
147.415545324
21
54.3151637533
0
LINE
8
0
10
147.415545324
20
54.3151637533
11
146.844974695
21
54.6667708755
0
LINE
8
0
10
146.844974695
20
54.6667708755
11
146.343331954
21
54.9514423016
0
LINE
8
0
10
146.343331954
20
54.9514423016
11
145.914600331
21
55.1746735019
0
LINE
8
0
10
145.914600331
20
55.1746735019
11
145.562454026
21
55.3421564199
0
LINE
8
0
10
145.562454026
20
55.3421564199
11
145.190336223
21
55.5029323808
0
LINE
8
0
10
145.190336223
20
55.5029323808
11
144.921443546
21
55.6470248916
0
LINE
8
0
10
144.921443546
20
55.6470248916
11
144.751965866
21
55.7800318974
0
LINE
8
0
10
144.751965866
20
55.7800318974
11
144.680629565
21
55.8949900128
0
LINE
8
0
10
144.680629565
20
55.8949900128
11
145.41671563
21
58.5461324169
0
LINE
8
0
10
145.41671563
20
58.5461324169
11
145.537107752
21
58.6078573978
0
LINE
8
0
10
145.537107752
20
58.6078573978
11
145.750898192
21
58.6344505338
0
LINE
8
0
10
145.750898192
20
58.6344505338
11
146.055588262
21
58.619288579
0
LINE
8
0
10
146.055588262
20
58.619288579
11
146.457328739
21
58.5652038458
0
LINE
8
0
10
146.457328739
20
58.5652038458
11
146.845414292
21
58.5271624002
0
LINE
8
0
10
146.845414292
20
58.5271624002
11
147.327863766
21
58.4974054145
0
LINE
8
0
10
147.327863766
20
58.4974054145
11
147.9044634
21
58.4827043187
0
LINE
8
0
10
147.9044634
20
58.4827043187
11
148.574633346
21
58.489821516
0
LINE
8
0
10
148.574633346
20
58.489821516
11
149.337428197
21
58.5254927735
0
LINE
8
0
10
149.337428197
20
58.5254927735
11
150.191538317
21
58.5964096463
0
LINE
8
0
10
150.191538317
20
58.5964096463
11
150.667709078
21
58.6533189953
0
LINE
8
0
10
150.667709078
20
58.6533189953
11
151.002687388
21
59.8598018297
0
LINE
8
0
10
151.002687388
20
59.8598018297
11
151.205258301
21
61.0954297361
0
LINE
8
0
10
151.205258301
20
61.0954297361
11
150.796993039
21
61.3470181753
0
LINE
8
0
10
150.796993039
20
61.3470181753
11
150.05160091
21
61.7700121168
0
LINE
8
0
10
150.05160091
20
61.7700121168
11
149.374285025
21
62.1226757182
0
LINE
8
0
10
149.374285025
20
62.1226757182
11
148.769043689
21
62.410532168
0
LINE
8
0
10
148.769043689
20
62.410532168
11
148.239563203
21
62.6392977172
0
LINE
8
0
10
148.239563203
20
62.6392977172
11
147.789209286
21
62.8148662845
0
LINE
8
0
10
147.789209286
20
62.8148662845
11
147.421019189
21
62.9432936976
0
LINE
8
0
10
147.421019189
20
62.9432936976
11
147.033699817
21
63.0628941713
0
LINE
8
0
10
147.033699817
20
63.0628941713
11
146.75080426
21
63.1770695933
0
LINE
8
0
10
146.75080426
20
63.1770695933
11
146.567939478
21
63.290973146
0
LINE
8
0
10
146.567939478
20
63.290973146
11
146.484592195
21
63.3975445611
0
LINE
8
0
10
146.484592195
20
63.3975445611
11
146.929724378
21
66.1127307577
0
LINE
8
0
10
146.929724378
20
66.1127307577
11
147.042737111
21
66.1871105821
0
LINE
8
0
10
147.042737111
20
66.1871105821
11
147.252399079
21
66.2366626406
0
LINE
8
0
10
147.252399079
20
66.2366626406
11
147.556942338
21
66.2545323571
0
LINE
8
0
10
147.556942338
20
66.2545323571
11
147.962175384
21
66.244200457
0
LINE
8
0
10
147.962175384
20
66.244200457
11
148.352098966
21
66.248341441
0
LINE
8
0
10
148.352098966
20
66.248341441
11
148.834937597
21
66.2709208555
0
LINE
8
0
10
148.834937597
20
66.2709208555
11
149.409746647
21
66.3186473247
0
LINE
8
0
10
149.409746647
20
66.3186473247
11
150.075218524
21
66.3981809174
0
LINE
8
0
10
150.075218524
20
66.3981809174
11
150.829685098
21
66.5161156991
0
LINE
8
0
10
150.829685098
20
66.5161156991
11
151.671120925
21
66.6789624019
0
LINE
8
0
10
151.671120925
20
66.6789624019
11
152.138347369
21
66.7870212612
0
LINE
8
0
10
76.7062402203
20
74.8151123542
11
76.3943726841
21
74.7823337553
0
LINE
8
0
10
76.3943726841
20
74.7823337553
11
76.0825051479
21
74.8151123542
0
LINE
8
0
10
76.0825051479
20
74.8151123542
11
75.7842677195
21
74.9120155688
0
LINE
8
0
10
75.7842677195
20
74.9120155688
11
75.5126948057
21
75.0688082637
0
LINE
8
0
10
75.5126948057
20
75.0688082637
11
75.2796554459
21
75.2786378457
0
LINE
8
0
10
75.2796554459
20
75.2786378457
11
75.0953345784
21
75.5323337553
0
LINE
8
0
10
75.0953345784
20
75.5323337553
11
74.9677879097
21
75.8188082637
0
LINE
8
0
10
74.9677879097
20
75.8188082637
11
74.9025898411
21
76.1255410604
0
LINE
8
0
10
74.9025898411
20
76.1255410604
11
74.9025898411
21
76.4391264502
0
LINE
8
0
10
74.9025898411
20
76.4391264502
11
74.9677879097
21
76.7458592468
0
LINE
8
0
10
74.9677879097
20
76.7458592468
11
75.0953345784
21
77.0323337553
0
LINE
8
0
10
75.0953345784
20
77.0323337553
11
75.2796554459
21
77.2860296648
0
LINE
8
0
10
75.2796554459
20
77.2860296648
11
75.5126948057
21
77.4958592468
0
LINE
8
0
10
75.5126948057
20
77.4958592468
11
75.7842677195
21
77.6526519417
0
LINE
8
0
10
75.7842677195
20
77.6526519417
11
76.0825051479
21
77.7495551564
0
LINE
8
0
10
76.0825051479
20
77.7495551564
11
76.3943726841
21
77.7823337553
0
LINE
8
0
10
76.3943726841
20
77.7823337553
11
76.7062402203
21
77.7495551564
0
LINE
8
0
10
76.7062402203
20
77.7495551564
11
77.0044776487
21
77.6526519417
0
LINE
8
0
10
77.0044776487
20
77.6526519417
11
77.2760505625
21
77.4958592468
0
LINE
8
0
10
77.2760505625
20
77.4958592468
11
77.5090899223
21
77.2860296648
0
LINE
8
0
10
77.5090899223
20
77.2860296648
11
77.6934107898
21
77.0323337553
0
LINE
8
0
10
77.6934107898
20
77.0323337553
11
77.8209574586
21
76.7458592468
0
LINE
8
0
10
77.8209574586
20
76.7458592468
11
77.8861555272
21
76.4391264502
0
LINE
8
0
10
77.8861555272
20
76.4391264502
11
77.8861555272
21
76.1255410604
0
LINE
8
0
10
77.8861555272
20
76.1255410604
11
77.8209574586
21
75.8188082637
0
LINE
8
0
10
77.8209574586
20
75.8188082637
11
77.6934107898
21
75.5323337553
0
LINE
8
0
10
77.6934107898
20
75.5323337553
11
77.5090899223
21
75.2786378457
0
LINE
8
0
10
77.5090899223
20
75.2786378457
11
77.2760505625
21
75.0688082637
0
LINE
8
0
10
77.2760505625
20
75.0688082637
11
77.0044776487
21
74.9120155688
0
LINE
8
0
10
77.0044776487
20
74.9120155688
11
76.7062402203
21
74.8151123542
0
ENDSEC
0
EOF
