0
SECTION
2
HEADER
9
$ACADVER
1
AC1009
9
$INSBASE
10
0.0
20
0.0
30
0.0
9
$EXTMIN
10
0.0
20
0.0
9
$EXTMAX
10
0.0
20
0.0
0
ENDSEC
0
SECTION
2
TABLES
0
TABLE
2
LTYPE
70
1
0
LTYPE
2
CONTINUOUS
70
64
3
Solid line
72
65
73
0
40
0.0
0
ENDTAB
0
TABLE
2
LAYER
70
0
0
ENDTAB
0
TABLE
2
STYLE
70
1
0
STYLE
2
STANDARD
70
0
40
0
41
40
50
50
71
0
42
1
3
ARIAL.TTF
4

0
ENDTAB
0
TABLE
2
VIEW
70
0
0
ENDTAB
0
ENDSEC
0
SECTION
2
BLOCKS
0
ENDSEC
0
SECTION
2
ENTITIES
0
LINE
8
0
10
154.585806645
20
68.1472925845
11
154.785143275
21
69.3845264653
0
LINE
8
0
10
154.785143275
20
69.3845264653
11
154.851840721
21
70.6359393542
0
LINE
8
0
10
154.851840721
20
70.6359393542
11
154.412400308
21
70.8431289148
0
LINE
8
0
10
154.412400308
20
70.8431289148
11
153.627973896
21
71.1794848382
0
LINE
8
0
10
153.627973896
20
71.1794848382
11
152.917740211
21
71.4546152518
0
LINE
8
0
10
152.917740211
20
71.4546152518
11
152.284948861
21
71.6742520735
0
LINE
8
0
10
152.284948861
20
71.6742520735
11
151.732534662
21
71.8442768837
0
LINE
8
0
10
151.732534662
20
71.8442768837
11
151.263111246
21
71.9707057558
0
LINE
8
0
10
151.263111246
20
71.9707057558
11
150.878965349
21
72.0596738251
0
LINE
8
0
10
150.878965349
20
72.0596738251
11
150.47839413
21
72.1375796893
0
LINE
8
0
10
150.47839413
20
72.1375796893
11
150.189837591
21
72.2192755977
0
LINE
8
0
10
150.189837591
20
72.2192755977
11
149.999019248
21
72.311161131
0
LINE
8
0
10
149.999019248
20
72.311161131
11
149.90617953
21
72.4064016183
0
LINE
8
0
10
149.90617953
20
72.4064016183
11
150.052616731
21
75.1539341273
0
LINE
8
0
10
150.052616731
20
75.1539341273
11
150.155053938
21
75.2387668009
0
LINE
8
0
10
150.155053938
20
75.2387668009
11
150.354558091
21
75.3098490374
0
LINE
8
0
10
150.354558091
20
75.3098490374
11
150.650163641
21
75.360410442
0
LINE
8
0
10
150.650163641
20
75.360410442
11
151.05674643
21
75.3952968428
0
LINE
8
0
10
151.05674643
20
75.3952968428
11
151.44817279
21
75.4429286838
0
LINE
8
0
10
151.44817279
20
75.4429286838
11
151.928375394
21
75.5187446599
0
LINE
8
0
10
151.928375394
20
75.5187446599
11
152.495732586
21
75.6290882149
0
LINE
8
0
10
152.495732586
20
75.6290882149
11
153.14828501
21
75.7802191518
0
LINE
8
0
10
153.14828501
20
75.7802191518
11
153.88373965
21
75.9782976826
0
LINE
8
0
10
153.88373965
20
75.9782976826
11
154.699474574
21
76.2293686649
0
LINE
8
0
10
154.699474574
20
76.2293686649
11
155.158448369
21
76.3886748021
0
LINE
8
0
10
155.158448369
20
76.3886748021
11
155.225145815
21
77.640087691
0
LINE
8
0
10
155.225145815
20
77.640087691
11
155.158448369
21
78.8915005799
0
LINE
8
0
10
155.158448369
20
78.8915005799
11
154.699474574
21
79.0508067171
0
LINE
8
0
10
154.699474574
20
79.0508067171
11
153.88373965
21
79.3018776994
0
LINE
8
0
10
153.88373965
20
79.3018776994
11
153.14828501
21
79.4999562302
0
LINE
8
0
10
153.14828501
20
79.4999562302
11
152.495732586
21
79.6510871671
0
LINE
8
0
10
152.495732586
20
79.6510871671
11
151.928375394
21
79.7614307221
0
LINE
8
0
10
151.928375394
20
79.7614307221
11
151.44817279
21
79.8372466982
0
LINE
8
0
10
151.44817279
20
79.8372466982
11
151.05674643
21
79.8848785392
0
LINE
8
0
10
151.05674643
20
79.8848785392
11
150.650163641
21
79.91976494
0
LINE
8
0
10
150.650163641
20
79.91976494
11
150.354558091
21
79.9703263446
0
LINE
8
0
10
150.354558091
20
79.9703263446
11
150.155053938
21
80.0414085811
0
LINE
8
0
10
150.155053938
20
80.0414085811
11
150.052616731
21
80.1262412547
0
LINE
8
0
10
150.052616731
20
80.1262412547
11
149.90617953
21
82.8737737637
0
LINE
8
0
10
149.90617953
20
82.8737737637
11
149.999019248
21
82.969014251
0
LINE
8
0
10
149.999019248
20
82.969014251
11
150.189837591
21
83.0608997843
0
LINE
8
0
10
150.189837591
20
83.0608997843
11
150.47839413
21
83.1425956927
0
LINE
8
0
10
150.47839413
20
83.1425956927
11
150.878965349
21
83.2205015569
0
LINE
8
0
10
150.878965349
20
83.2205015569
11
151.263111246
21
83.3094696262
0
LINE
8
0
10
151.263111246
20
83.3094696262
11
151.732534662
21
83.4358984983
0
LINE
8
0
10
151.732534662
20
83.4358984983
11
152.284948861
21
83.6059233085
0
LINE
8
0
10
152.284948861
20
83.6059233085
11
152.917740211
21
83.8255601302
0
LINE
8
0
10
152.917740211
20
83.8255601302
11
153.627973896
21
84.1006905438
0
LINE
8
0
10
153.627973896
20
84.1006905438
11
154.412400308
21
84.4370464672
0
LINE
8
0
10
154.412400308
20
84.4370464672
11
154.851840721
21
84.6442360278
0
LINE
8
0
10
154.851840721
20
84.6442360278
11
154.785143275
21
85.8956489167
0
LINE
8
0
10
154.785143275
20
85.8956489167
11
154.585806645
21
87.1328827975
0
LINE
8
0
10
154.585806645
20
87.1328827975
11
154.112499823
21
87.2425005091
0
LINE
8
0
10
154.112499823
20
87.2425005091
11
153.274698992
21
87.4054418158
0
LINE
8
0
10
153.274698992
20
87.4054418158
11
152.522356391
21
87.5242241549
0
LINE
8
0
10
152.522356391
20
87.5242241549
11
151.857436573
21
87.6051368331
0
LINE
8
0
10
151.857436573
20
87.6051368331
11
151.281564772
21
87.6545488963
0
LINE
8
0
10
151.281564772
20
87.6545488963
11
150.796023867
21
87.6788929511
0
LINE
8
0
10
150.796023867
20
87.6788929511
11
150.401752061
21
87.6846488761
0
LINE
8
0
10
150.401752061
20
87.6846488761
11
149.993764448
21
87.6761205367
0
LINE
8
0
10
149.993764448
20
87.6761205367
11
149.694459214
21
87.6949745564
0
LINE
8
0
10
149.694459214
20
87.6949745564
11
149.488529713
21
87.744448106
0
LINE
8
0
10
149.488529713
20
87.744448106
11
149.377655673
21
87.8179117778
0
LINE
8
0
10
149.377655673
20
87.8179117778
11
148.94000326
21
90.5343136457
0
LINE
8
0
10
148.94000326
20
90.5343136457
11
149.02219358
21
90.6388828338
0
LINE
8
0
10
149.02219358
20
90.6388828338
11
149.202164066
21
90.7505305641
0
LINE
8
0
10
149.202164066
20
90.7505305641
11
149.480402131
21
90.8624353292
0
LINE
8
0
10
149.480402131
20
90.8624353292
11
149.870423148
21
90.9824779521
0
LINE
8
0
10
149.870423148
20
90.9824779521
11
150.242936055
21
91.111774206
0
LINE
8
0
10
150.242936055
20
91.111774206
11
150.696261529
21
91.2873834843
0
LINE
8
0
10
150.696261529
20
91.2873834843
11
151.227473661
21
91.5151631008
0
LINE
8
0
10
151.227473661
20
91.5151631008
11
151.833334158
21
91.8008172342
0
LINE
8
0
10
151.833334158
20
91.8008172342
11
152.510299657
21
92.1498821932
0
LINE
8
0
10
152.510299657
20
92.1498821932
11
153.254529693
21
92.5677120106
0
LINE
8
0
10
153.254529693
20
92.5677120106
11
153.669457688
21
92.8204374542
0
LINE
8
0
10
153.669457688
20
92.8204374542
11
153.470121058
21
94.057671335
0
LINE
8
0
10
153.470121058
20
94.057671335
11
153.140403808
21
95.2667078535
0
LINE
8
0
10
153.140403808
20
95.2667078535
11
152.658126715
21
95.325395127
0
LINE
8
0
10
152.658126715
20
95.325395127
11
151.807752593
21
95.3983605679
0
LINE
8
0
10
151.807752593
20
95.3983605679
11
151.047046375
21
95.4365008639
0
LINE
8
0
10
151.047046375
20
95.4365008639
11
150.37729297
21
95.4462785105
0
LINE
8
0
10
150.37729297
20
95.4462785105
11
149.799431417
21
95.4341992235
0
LINE
8
0
10
149.799431417
20
95.4341992235
11
149.314053584
21
95.4067955291
0
LINE
8
0
10
149.314053584
20
95.4067955291
11
148.92140359
21
95.3706103211
0
LINE
8
0
10
148.92140359
20
95.3706103211
11
148.516633815
21
95.318763871
0
LINE
8
0
10
148.516633815
20
95.318763871
11
148.217020145
21
95.3056968822
0
LINE
8
0
10
148.217020145
20
95.3056968822
11
148.00699856
21
95.3330011899
0
LINE
8
0
10
148.00699856
20
95.3330011899
11
147.888943934
21
95.3942634872
0
LINE
8
0
10
147.888943934
20
95.3942634872
11
147.165035087
21
98.0487567953
0
LINE
8
0
10
147.165035087
20
98.0487567953
11
147.235644758
21
98.1614698737
0
LINE
8
0
10
147.235644758
20
98.1614698737
11
147.402728249
21
98.2916147874
0
LINE
8
0
10
147.402728249
20
98.2916147874
11
147.667495292
21
98.4324604835
0
LINE
8
0
10
147.667495292
20
98.4324604835
11
148.042547013
21
98.5932797343
0
LINE
8
0
10
148.042547013
20
98.5932797343
11
148.399206211
21
98.7614391944
0
LINE
8
0
10
148.399206211
20
98.7614391944
11
148.831297383
21
98.9842391559
0
LINE
8
0
10
148.831297383
20
98.9842391559
11
149.335288603
21
99.2671927444
0
LINE
8
0
10
149.335288603
20
99.2671927444
11
149.907353606
21
99.6156276142
0
LINE
8
0
10
149.907353606
20
99.6156276142
11
150.543380629
21
100.034672073
0
LINE
8
0
10
150.543380629
20
100.034672073
11
151.238981866
21
100.529241606
0
LINE
8
0
10
151.238981866
20
100.529241606
11
151.624696141
21
100.824639452
0
LINE
8
0
10
151.624696141
20
100.824639452
11
151.294978892
21
102.03367597
0
LINE
8
0
10
151.294978892
20
102.03367597
11
150.83861685
21
103.20081626
0
LINE
8
0
10
150.83861685
20
103.20081626
11
150.352833879
21
103.207908145
0
LINE
8
0
10
150.352833879
20
103.207908145
11
149.499521545
21
103.190070993
0
LINE
8
0
10
149.499521545
20
103.190070993
11
148.739070815
21
103.147137101
0
LINE
8
0
10
148.739070815
20
103.147137101
11
148.072072396
21
103.085668931
0
LINE
8
0
10
148.072072396
20
103.085668931
11
147.498768494
21
103.012235157
0
LINE
8
0
10
147.498768494
20
103.012235157
11
147.019053258
21
102.933394208
0
LINE
8
0
10
147.019053258
20
102.933394208
11
146.632473956
21
102.85567786
0
LINE
8
0
10
146.632473956
20
102.85567786
11
146.235508223
21
102.76110074
0
LINE
8
0
10
146.235508223
20
102.76110074
11
145.93898086
21
102.716260797
0
LINE
8
0
10
145.93898086
20
102.716260797
11
145.727246819
21
102.721086494
0
LINE
8
0
10
145.727246819
20
102.721086494
11
145.603349213
21
102.769453291
0
LINE
8
0
10
145.603349213
20
102.769453291
11
144.601386107
21
105.331961569
0
LINE
8
0
10
144.601386107
20
105.331961569
11
144.659615095
21
105.451541453
0
LINE
8
0
10
144.659615095
20
105.451541453
11
144.811918468
21
105.598708957
0
LINE
8
0
10
144.811918468
20
105.598708957
11
145.060214573
21
105.766899746
0
LINE
8
0
10
145.060214573
20
105.766899746
11
145.416047512
21
105.966673478
0
LINE
8
0
10
145.416047512
20
105.966673478
11
145.752811909
21
106.171790831
0
LINE
8
0
10
145.752811909
20
106.171790831
11
146.158773014
21
106.439257063
0
LINE
8
0
10
146.158773014
20
106.439257063
11
146.6298329
21
106.774178646
0
LINE
8
0
10
146.6298329
20
106.774178646
11
147.161620683
21
107.181446346
0
LINE
8
0
10
147.161620683
20
107.181446346
11
147.74950279
21
107.665722363
0
LINE
8
0
10
147.74950279
20
107.665722363
11
148.388593787
21
108.231427941
0
LINE
8
0
10
148.388593787
20
108.231427941
11
148.740724048
21
108.566151214
0
LINE
8
0
10
148.740724048
20
108.566151214
11
148.284362006
21
109.733291503
0
LINE
8
0
10
148.284362006
20
109.733291503
11
147.706525938
21
110.845311398
0
LINE
8
0
10
147.706525938
20
110.845311398
11
147.222741203
21
110.800727541
0
LINE
8
0
10
147.222741203
20
110.800727541
11
146.376159027
21
110.692289897
0
LINE
8
0
10
146.376159027
20
110.692289897
11
145.624579995
21
110.568768275
0
LINE
8
0
10
145.624579995
20
110.568768275
11
144.967893921
21
110.436750748
0
LINE
8
0
10
144.967893921
20
110.436750748
11
144.405643432
21
110.302794521
0
LINE
8
0
10
144.405643432
20
110.302794521
11
143.937026158
21
110.173409618
0
LINE
8
0
10
143.937026158
20
110.173409618
11
143.560897646
21
110.055042687
0
LINE
8
0
10
143.560897646
20
110.055042687
11
143.176233735
21
109.918806494
0
LINE
8
0
10
143.176233735
20
109.918806494
11
142.886152453
21
109.842701651
0
LINE
8
0
10
142.886152453
20
109.842701651
11
142.675104988
21
109.82499406
0
LINE
8
0
10
142.675104988
20
109.82499406
11
142.546768211
21
109.859917341
0
LINE
8
0
10
142.546768211
20
109.859917341
11
141.278103489
21
112.301406347
0
LINE
8
0
10
141.278103489
20
112.301406347
11
141.323292036
21
112.426498149
0
LINE
8
0
10
141.323292036
20
112.426498149
11
141.459089632
21
112.589020776
0
LINE
8
0
10
141.459089632
20
112.589020776
11
141.688101505
21
112.782650989
0
LINE
8
0
10
141.688101505
20
112.782650989
11
142.020683934
21
113.019115686
0
LINE
8
0
10
142.020683934
20
113.019115686
11
142.333737855
21
113.25886687
0
LINE
8
0
10
142.333737855
20
113.25886687
11
142.70896919
21
113.567968873
0
LINE
8
0
10
142.70896919
20
113.567968873
11
143.141760445
21
113.951063656
0
LINE
8
0
10
143.141760445
20
113.951063656
11
143.627245641
21
114.41254968
0
LINE
8
0
10
143.627245641
20
114.41254968
11
144.160321893
21
114.956570215
0
LINE
8
0
10
144.160321893
20
114.956570215
11
144.735661494
21
115.587002167
0
LINE
8
0
10
144.735661494
20
115.587002167
11
145.050217963
21
115.957258319
0
LINE
8
0
10
145.050217963
20
115.957258319
11
144.472381894
21
117.069278214
0
LINE
8
0
10
144.472381894
20
117.069278214
11
143.779618911
21
118.113578083
0
LINE
8
0
10
143.779618911
20
118.113578083
11
143.303313887
21
118.017823637
0
LINE
8
0
10
143.303313887
20
118.017823637
11
142.473053984
21
117.820014144
0
LINE
8
0
10
142.473053984
20
117.820014144
11
141.73886234
21
117.617304342
0
LINE
8
0
10
141.73886234
20
117.617304342
11
141.099929128
21
117.416233268
0
LINE
8
0
10
141.099929128
20
117.416233268
11
140.555102575
21
117.223272366
0
LINE
8
0
10
140.555102575
20
117.223272366
11
140.102892883
21
117.04480949
0
LINE
8
0
10
140.102892883
20
117.04480949
11
139.741476848
21
116.887133121
0
LINE
8
0
10
139.741476848
20
116.887133121
11
139.373473155
21
116.710781465
0
LINE
8
0
10
139.373473155
20
116.710781465
11
139.09312469
21
116.604274021
0
LINE
8
0
10
139.09312469
20
116.604274021
11
138.885155053
21
116.564233776
0
LINE
8
0
10
138.885155053
20
116.564233776
11
138.753833212
21
116.585317846
0
LINE
8
0
10
138.753833212
20
116.585317846
11
137.232841353
21
118.878124534
0
LINE
8
0
10
137.232841353
20
118.878124534
11
137.264477454
21
119.007310915
0
LINE
8
0
10
137.264477454
20
119.007310915
11
137.382230633
21
119.183347218
0
LINE
8
0
10
137.382230633
20
119.183347218
11
137.589363478
21
119.400222947
0
LINE
8
0
10
137.589363478
20
119.400222947
11
137.894927103
21
119.670699371
0
LINE
8
0
10
137.894927103
20
119.670699371
11
138.180723523
21
119.942367908
0
LINE
8
0
10
138.180723523
20
119.942367908
11
138.520973568
21
120.289603433
0
LINE
8
0
10
138.520973568
20
120.289603433
11
138.910592494
21
120.716530799
0
LINE
8
0
10
138.910592494
20
120.716530799
11
139.344274362
21
121.227006326
0
LINE
8
0
10
139.344274362
20
121.227006326
11
139.816504791
21
121.824607409
0
LINE
8
0
10
139.816504791
20
121.824607409
11
140.321574169
21
122.51262269
0
LINE
8
0
10
140.321574169
20
122.51262269
11
140.594992795
21
122.91421657
0
LINE
8
0
10
140.594992795
20
122.91421657
11
139.902229813
21
123.95851644
0
LINE
8
0
10
139.902229813
20
123.95851644
11
139.102389197
21
124.92326395
0
LINE
8
0
10
139.102389197
20
124.92326395
11
138.63896061
21
124.77742385
0
LINE
8
0
10
138.63896061
20
124.77742385
11
137.834430155
21
124.492483768
0
LINE
8
0
10
137.834430155
20
124.492483768
11
137.125944586
21
124.212882569
0
LINE
8
0
10
137.125944586
20
124.212882569
11
136.512003603
21
123.945036165
0
LINE
8
0
10
136.512003603
20
123.945036165
11
135.990774088
21
123.695256911
0
LINE
8
0
10
135.990774088
20
123.695256911
11
135.560095696
21
123.469738119
0
LINE
8
0
10
135.560095696
20
123.469738119
11
135.217487126
21
123.274538848
0
LINE
8
0
10
135.217487126
20
123.274538848
11
134.870313279
21
123.060069864
0
LINE
8
0
10
134.870313279
20
123.060069864
11
134.602874092
21
122.92436659
0
LINE
8
0
10
134.602874092
20
122.92436659
11
134.400338661
21
122.862447364
0
LINE
8
0
10
134.400338661
20
122.862447364
11
134.267519686
21
122.869453332
0
LINE
8
0
10
134.267519686
20
122.869453332
11
132.511434135
21
124.987599286
0
LINE
8
0
10
132.511434135
20
124.987599286
11
132.52915934
21
125.119416511
0
LINE
8
0
10
132.52915934
20
125.119416511
11
132.627533912
21
125.306971929
0
LINE
8
0
10
132.627533912
20
125.306971929
11
132.81044083
21
125.544635887
0
LINE
8
0
10
132.81044083
20
125.544635887
11
133.085523495
21
125.84605943
0
LINE
8
0
10
133.085523495
20
125.84605943
11
133.340824225
21
126.146567209
0
LINE
8
0
10
133.340824225
20
126.146567209
11
133.642237812
21
126.528001938
0
LINE
8
0
10
133.642237812
20
126.528001938
11
133.984269871
21
126.993924629
0
LINE
8
0
10
133.984269871
20
126.993924629
11
134.361234621
21
127.547605768
0
LINE
8
0
10
134.361234621
20
127.547605768
11
134.767268668
21
128.19201634
0
LINE
8
0
10
134.767268668
20
128.19201634
11
135.196345184
21
128.929819461
0
LINE
8
0
10
135.196345184
20
128.929819461
11
135.425528026
21
129.358200851
0
LINE
8
0
10
135.425528026
20
129.358200851
11
134.625687411
21
130.322948361
0
LINE
8
0
10
134.625687411
20
130.322948361
11
133.727831677
21
131.197212536
0
LINE
8
0
10
133.727831677
20
131.197212536
11
133.282530358
21
131.00293921
0
LINE
8
0
10
133.282530358
20
131.00293921
11
132.512845004
21
130.634097024
0
LINE
8
0
10
132.512845004
20
130.634097024
11
131.838092933
21
130.280772421
0
LINE
8
0
10
131.838092933
20
130.280772421
11
131.256100376
21
129.949185494
0
LINE
8
0
10
131.256100376
20
129.949185494
11
130.764373638
21
129.645417987
0
LINE
8
0
10
130.764373638
20
129.645417987
11
130.360106303
21
129.375398496
0
LINE
8
0
10
130.360106303
20
129.375398496
11
130.04018709
21
129.144888009
0
LINE
8
0
10
130.04018709
20
129.144888009
11
129.717776709
21
128.894731716
0
LINE
8
0
10
129.717776709
20
128.894731716
11
129.466276992
21
128.731370185
0
LINE
8
0
10
129.466276992
20
128.731370185
11
129.271470575
21
128.648273547
0
LINE
8
0
10
129.271470575
20
128.648273547
11
129.138659357
21
128.641122033
0
LINE
8
0
10
129.138659357
20
128.641122033
11
127.167377265
21
130.560607812
0
LINE
8
0
10
127.167377265
20
130.560607812
11
127.170990741
21
130.693562341
0
LINE
8
0
10
127.170990741
20
130.693562341
11
127.248872082
21
130.890511796
0
LINE
8
0
10
127.248872082
20
130.890511796
11
127.405480666
21
131.146271153
0
LINE
8
0
10
127.405480666
20
131.146271153
11
127.646965573
21
131.475226567
0
LINE
8
0
10
127.646965573
20
131.475226567
11
127.868877954
21
131.801168714
0
LINE
8
0
10
127.868877954
20
131.801168714
11
128.128039946
21
132.21248084
0
LINE
8
0
10
128.128039946
20
132.21248084
11
128.418609778
21
132.712119765
0
LINE
8
0
10
128.418609778
20
132.712119765
11
128.734586249
21
133.302733087
0
LINE
8
0
10
128.734586249
20
133.302733087
11
129.069823386
21
133.986651719
0
LINE
8
0
10
129.069823386
20
133.986651719
11
129.418045433
21
134.765883077
0
LINE
8
0
10
129.418045433
20
134.765883077
11
129.600395758
21
135.216198243
0
LINE
8
0
10
129.600395758
20
135.216198243
11
128.702540024
21
136.090462419
0
LINE
8
0
10
128.702540024
20
136.090462419
11
127.716842235
21
136.864337498
0
LINE
8
0
10
127.716842235
20
136.864337498
11
127.294713626
21
136.623832139
0
LINE
8
0
10
127.294713626
20
136.623832139
11
126.568594214
21
136.175266979
0
LINE
8
0
10
126.568594214
20
136.175266979
11
125.935220852
21
135.752222281
0
LINE
8
0
10
125.935220852
20
135.752222281
11
125.39177093
21
135.360651842
0
LINE
8
0
10
125.39177093
20
135.360651842
11
124.935118429
21
135.00633789
0
LINE
8
0
10
124.935118429
20
135.00633789
11
124.561842663
21
134.694877129
0
LINE
8
0
10
124.561842663
20
134.694877129
11
124.268237619
21
134.431667202
0
LINE
8
0
10
124.268237619
20
134.431667202
11
123.974243741
21
134.148657972
0
LINE
8
0
10
123.974243741
20
134.148657972
11
123.741533087
21
133.959489135
0
LINE
8
0
10
123.741533087
20
133.959489135
11
123.556662919
21
133.856156602
0
LINE
8
0
10
123.556662919
20
133.856156602
11
123.425364262
21
133.834928636
0
LINE
8
0
10
123.425364262
20
133.834928636
11
121.261221043
21
135.5340057
0
LINE
8
0
10
121.261221043
20
135.5340057
11
121.250681847
21
135.666591103
0
LINE
8
0
10
121.250681847
20
135.666591103
11
121.307187531
21
135.87070308
0
LINE
8
0
10
121.307187531
20
135.87070308
11
121.435723343
21
136.141659982
0
LINE
8
0
10
121.435723343
20
136.141659982
11
121.640874372
21
136.49442007
0
LINE
8
0
10
121.640874372
20
136.49442007
11
121.826884048
21
136.842103529
0
LINE
8
0
10
121.826884048
20
136.842103529
11
122.040858036
21
137.278632722
0
LINE
8
0
10
122.040858036
20
137.278632722
11
122.276673369
21
137.806326773
0
LINE
8
0
10
122.276673369
20
137.806326773
11
122.528081422
21
138.427180393
0
LINE
8
0
10
122.528081422
20
138.427180393
11
122.788723278
21
139.142858013
0
LINE
8
0
10
122.788723278
20
139.142858013
11
123.05214536
21
139.954688604
0
LINE
8
0
10
123.05214536
20
139.954688604
11
123.185597065
21
140.421835297
0
LINE
8
0
10
123.185597065
20
140.421835297
11
122.199899277
21
141.195710376
0
LINE
8
0
10
122.199899277
20
141.195710376
11
121.137527784
21
141.860428044
0
LINE
8
0
10
121.137527784
20
141.860428044
11
120.74335477
21
141.576415675
0
LINE
8
0
10
120.74335477
20
141.576415675
11
120.069028525
21
141.053209963
0
LINE
8
0
10
120.069028525
20
141.053209963
11
119.484210245
21
140.565238435
0
LINE
8
0
10
119.484210245
20
140.565238435
11
118.985460462
21
140.118121135
0
LINE
8
0
10
118.985460462
20
140.118121135
11
118.569056254
21
139.717275256
0
LINE
8
0
10
118.569056254
20
139.717275256
11
118.231001419
21
139.367902201
0
LINE
8
0
10
118.231001419
20
139.367902201
11
117.967037207
21
139.074975106
0
LINE
8
0
10
117.967037207
20
139.074975106
11
117.7047909
21
138.762319546
0
LINE
8
0
10
117.7047909
20
138.762319546
11
117.493506014
21
138.549486762
0
LINE
8
0
10
117.493506014
20
138.549486762
11
117.320666747
21
138.427089134
0
LINE
8
0
10
117.320666747
20
138.427089134
11
117.192368318
21
138.392025237
0
LINE
8
0
10
117.192368318
20
138.392025237
11
114.859884579
21
139.851442363
0
LINE
8
0
10
114.859884579
20
139.851442363
11
114.835312125
21
139.982156396
0
LINE
8
0
10
114.835312125
20
139.982156396
11
114.86980192
21
140.191118223
0
LINE
8
0
10
114.86980192
20
140.191118223
11
114.968808597
21
140.47420262
0
LINE
8
0
10
114.968808597
20
140.47420262
11
115.135301305
21
140.84677047
0
LINE
8
0
10
115.135301305
20
140.84677047
11
115.283300712
21
141.21225585
0
LINE
8
0
10
115.283300712
20
141.21225585
11
115.449662285
21
141.669056058
0
LINE
8
0
10
115.449662285
20
141.669056058
11
115.628051237
21
142.218826251
0
LINE
8
0
10
115.628051237
20
142.218826251
11
115.812042318
21
142.862885649
0
LINE
8
0
10
115.812042318
20
142.862885649
11
115.995135717
21
143.602213343
0
LINE
8
0
10
115.995135717
20
143.602213343
11
116.170773157
21
144.437444804
0
LINE
8
0
10
116.170773157
20
144.437444804
11
116.253814182
21
144.916130064
0
LINE
8
0
10
116.253814182
20
144.916130064
11
115.191442688
21
145.580847733
0
LINE
8
0
10
115.191442688
20
145.580847733
11
114.064434584
21
146.128876473
0
LINE
8
0
10
114.064434584
20
146.128876473
11
113.702683304
21
145.804575068
0
LINE
8
0
10
113.702683304
20
145.804575068
11
113.08779061
21
145.212656933
0
LINE
8
0
10
113.08779061
20
145.212656933
11
112.558153638
21
144.665287488
0
LINE
8
0
10
112.558153638
20
144.665287488
11
112.109755028
21
144.167689344
0
LINE
8
0
10
112.109755028
20
144.167689344
11
111.738317138
21
143.724853282
0
LINE
8
0
10
111.738317138
20
143.724853282
11
111.439313531
21
143.341526468
0
LINE
8
0
10
111.439313531
20
143.341526468
11
111.207980972
21
143.022201188
0
LINE
8
0
10
111.207980972
20
143.022201188
11
110.980453592
21
142.68344181
0
LINE
8
0
10
110.980453592
20
142.68344181
11
110.792988415
21
142.449356559
0
LINE
8
0
10
110.792988415
20
142.449356559
11
110.634138388
21
142.30928065
0
LINE
8
0
10
110.634138388
20
142.30928065
11
110.510293859
21
142.260778109
0
LINE
8
0
10
110.510293859
20
142.260778109
11
108.035897573
21
143.46399952
0
LINE
8
0
10
108.035897573
20
143.46399952
11
107.997570277
21
143.591361139
0
LINE
8
0
10
107.997570277
20
143.591361139
11
108.009653399
21
143.802805197
0
LINE
8
0
10
108.009653399
20
143.802805197
11
108.078009156
21
144.094809628
0
LINE
8
0
10
108.078009156
20
144.094809628
11
108.203957114
21
144.482963897
0
LINE
8
0
10
108.203957114
20
144.482963897
11
108.31226936
21
144.862110102
0
LINE
8
0
10
108.31226936
20
144.862110102
11
108.429133575
21
145.334005598
0
LINE
8
0
10
108.429133575
20
145.334005598
11
108.548074929
21
145.899622816
0
LINE
8
0
10
108.548074929
20
145.899622816
11
108.662564344
21
146.559590543
0
LINE
8
0
10
108.662564344
20
146.559590543
11
108.766034766
21
147.314191434
0
LINE
8
0
10
108.766034766
20
147.314191434
11
108.851897521
21
148.163360257
0
LINE
8
0
10
108.851897521
20
148.163360257
11
108.883586976
21
148.648160389
0
LINE
8
0
10
108.883586976
20
148.648160389
11
107.756578872
21
149.19618913
0
LINE
8
0
10
107.756578872
20
149.19618913
11
106.577703609
21
149.621319559
0
LINE
8
0
10
106.577703609
20
149.621319559
11
106.252472849
21
149.260403581
0
LINE
8
0
10
106.252472849
20
149.260403581
11
105.703980687
21
148.606479693
0
LINE
8
0
10
105.703980687
20
148.606479693
11
105.23552602
21
148.005914245
0
LINE
8
0
10
105.23552602
20
148.005914245
11
104.842559119
21
147.463473243
0
LINE
8
0
10
104.842559119
20
147.463473243
11
104.520296088
21
146.983664508
0
LINE
8
0
10
104.520296088
20
146.983664508
11
104.263731539
21
146.570727181
0
LINE
8
0
10
104.263731539
20
146.570727181
11
104.067651722
21
146.228621799
0
LINE
8
0
10
104.067651722
20
146.228621799
11
103.877421245
21
145.867596882
0
LINE
8
0
10
103.877421245
20
145.867596882
11
103.715899833
21
145.614911443
0
LINE
8
0
10
103.715899833
20
145.614911443
11
103.57283888
21
145.45874437
0
LINE
8
0
10
103.57283888
20
145.45874437
11
103.454851459
21
145.397352739
0
LINE
8
0
10
103.454851459
20
145.397352739
11
100.866578525
21
146.330745453
0
LINE
8
0
10
100.866578525
20
146.330745453
11
100.81493065
21
146.453311602
0
LINE
8
0
10
100.81493065
20
146.453311602
11
100.804470192
21
146.664842144
0
LINE
8
0
10
100.804470192
20
146.664842144
11
100.841400532
21
146.962458083
0
LINE
8
0
10
100.841400532
20
146.962458083
11
100.9253767
21
147.361800829
0
LINE
8
0
10
100.9253767
20
147.361800829
11
100.992774563
21
147.750311981
0
LINE
8
0
10
100.992774563
20
147.750311981
11
101.058817302
21
148.231955999
0
LINE
8
0
10
101.058817302
20
148.231955999
11
101.116963403
21
148.807011574
0
LINE
8
0
10
101.116963403
20
148.807011574
11
101.160653943
21
149.47540993
0
LINE
8
0
10
101.160653943
20
149.47540993
11
101.183329025
21
150.236734088
0
LINE
8
0
10
101.183329025
20
150.236734088
11
101.178444237
21
151.090218851
0
LINE
8
0
10
101.178444237
20
151.090218851
11
101.158423069
21
151.575640877
0
LINE
8
0
10
101.158423069
20
151.575640877
11
99.9795478058
21
152.000771306
0
LINE
8
0
10
99.9795478058
20
152.000771306
11
98.7621625113
21
152.298186525
0
LINE
8
0
10
98.7621625113
20
152.298186525
11
98.4771372659
21
151.904745297
0
LINE
8
0
10
98.4771372659
20
151.904745297
11
98.0012602708
21
151.196224875
0
LINE
8
0
10
98.0012602708
20
151.196224875
11
97.5992956877
21
150.549268071
0
LINE
8
0
10
97.5992956877
20
150.549268071
11
97.266212968
21
149.968130283
0
LINE
8
0
10
97.266212968
20
149.968130283
11
96.9967761642
21
149.4567853
0
LINE
8
0
10
96.9967761642
20
149.4567853
11
96.7855576529
21
149.018916206
0
LINE
8
0
10
96.7855576529
20
149.018916206
11
96.6269522404
21
148.657906911
0
LINE
8
0
10
96.6269522404
20
148.657906911
11
96.4761740545
21
148.278707012
0
LINE
8
0
10
96.4761740545
20
148.278707012
11
96.3424265094
21
148.010284413
0
LINE
8
0
10
96.3424265094
20
148.010284413
11
96.2167755672
21
147.83979561
0
LINE
8
0
10
96.2167755672
20
147.83979561
11
96.1059820993
21
147.766210481
0
LINE
8
0
10
96.1059820993
20
147.766210481
11
93.4331586831
21
148.419198787
0
LINE
8
0
10
93.4331586831
20
148.419198787
11
93.3687754208
21
148.535580741
0
LINE
8
0
10
93.3687754208
20
148.535580741
11
93.3358899054
21
148.744801042
0
LINE
8
0
10
93.3358899054
20
148.744801042
11
93.3409763912
21
149.044656382
0
LINE
8
0
10
93.3409763912
20
149.044656382
11
93.3820292851
21
149.45066289
0
LINE
8
0
10
93.3820292851
20
149.45066289
11
93.4077491218
21
149.844137003
0
LINE
8
0
10
93.4077491218
20
149.844137003
11
93.4222220937
21
150.330072325
0
LINE
8
0
10
93.4222220937
20
150.330072325
11
93.418914124
21
150.908050646
0
LINE
8
0
10
93.418914124
20
150.908050646
11
93.3913107576
21
151.577306412
0
LINE
8
0
10
93.3913107576
20
151.577306412
11
93.332933582
21
152.33672773
0
LINE
8
0
10
93.332933582
20
152.33672773
11
93.2373565966
21
153.184858111
0
LINE
8
0
10
93.2373565966
20
153.184858111
11
93.1658516535
21
153.665402004
0
LINE
8
0
10
93.1658516535
20
153.665402004
11
91.948466359
21
153.962817223
0
LINE
8
0
10
91.948466359
20
153.962817223
11
90.7063644951
21
154.129147399
0
LINE
8
0
10
90.7063644951
20
154.129147399
11
90.4647742142
21
153.707638768
0
LINE
8
0
10
90.4647742142
20
153.707638768
11
90.0669042627
21
152.952549631
0
LINE
8
0
10
90.0669042627
20
152.952549631
11
89.735984183
21
152.26653175
0
LINE
8
0
10
89.735984183
20
152.26653175
11
89.4665596046
21
151.653281701
0
LINE
8
0
10
89.4665596046
20
151.653281701
11
89.2530018546
21
151.116194212
0
LINE
8
0
10
89.2530018546
20
151.116194212
11
89.0895225707
21
150.658354581
0
LINE
8
0
10
89.0895225707
20
150.658354581
11
88.9701886259
21
150.282531755
0
LINE
8
0
10
88.9701886259
20
150.282531755
11
88.8605711075
21
149.88945336
0
LINE
8
0
10
88.8605711075
20
149.88945336
11
88.7561128426
21
149.608334936
0
LINE
8
0
10
88.7561128426
20
149.608334936
11
88.6492955873
21
149.425456109
0
LINE
8
0
10
88.6492955873
20
149.425456109
11
88.5469514065
21
149.34051123
0
LINE
8
0
10
88.5469514065
20
149.34051123
11
85.8198616657
21
149.70569651
0
LINE
8
0
10
85.8198616657
20
149.70569651
11
85.7434725039
21
149.814575616
0
LINE
8
0
10
85.7434725039
20
149.814575616
11
85.6885345364
21
150.019115126
0
LINE
8
0
10
85.6885345364
20
150.019115126
11
85.661719537
21
150.317812386
0
LINE
8
0
10
85.661719537
20
150.317812386
11
85.6593840111
21
150.725882441
0
LINE
8
0
10
85.6593840111
20
150.725882441
11
85.6431344048
21
151.119861296
0
LINE
8
0
10
85.6431344048
20
151.119861296
11
85.6058736253
21
151.604582079
0
LINE
8
0
10
85.6058736253
20
151.604582079
11
85.5411490655
21
152.178934423
0
LINE
8
0
10
85.5411490655
20
152.178934423
11
85.4425645496
21
152.841464663
0
LINE
8
0
10
85.4425645496
20
152.841464663
11
85.3037965533
21
153.590378594
0
LINE
8
0
10
85.3037965533
20
153.590378594
11
85.1186102962
21
154.423544936
0
LINE
8
0
10
85.1186102962
20
154.423544936
11
84.9964317575
21
154.893765942
0
LINE
8
0
10
84.9964317575
20
154.893765942
11
83.7543298936
21
155.060096118
0
LINE
8
0
10
83.7543298936
20
155.060096118
11
82.5015849707
21
155.093456664
0
LINE
8
0
10
82.5015849707
20
155.093456664
11
82.3061669687
21
154.64865649
0
LINE
8
0
10
82.3061669687
20
154.64865649
11
81.9908120862
21
153.8555541
0
LINE
8
0
10
81.9908120862
20
153.8555541
11
81.7346859668
21
153.138247998
0
LINE
8
0
10
81.7346859668
20
153.138247998
11
81.5319722177
21
152.499834056
0
LINE
8
0
10
81.5319722177
20
152.499834056
11
81.3767132164
21
151.943089477
0
LINE
8
0
10
81.3767132164
20
151.943089477
11
81.2628254454
21
151.470466817
0
LINE
8
0
10
81.2628254454
20
151.470466817
11
81.1841150695
21
151.084088681
0
LINE
8
0
10
81.1841150695
20
151.084088681
11
81.116900229
21
150.681585525
0
LINE
8
0
10
81.116900229
20
150.681585525
11
81.0429147982
21
150.39095646
0
LINE
8
0
10
81.0429147982
20
150.39095646
11
80.9561415119
21
150.1977597
0
LINE
8
0
10
80.9561415119
20
150.1977597
11
80.8634062185
21
150.102417531
0
LINE
8
0
10
80.8634062185
20
150.102417531
11
78.1129491698
21
150.175662089
0
LINE
8
0
10
78.1129491698
20
150.175662089
11
78.0254196281
21
150.275804703
0
LINE
8
0
10
78.0254196281
20
150.275804703
11
77.9490516777
21
150.473345908
0
LINE
8
0
10
77.9490516777
20
150.473345908
11
77.8906390177
21
150.767500728
0
LINE
8
0
10
77.8906390177
20
150.767500728
11
77.8449415344
21
151.173010734
0
LINE
8
0
10
77.8449415344
20
151.173010734
11
77.7869065997
21
151.563030392
0
LINE
8
0
10
77.7869065997
20
151.563030392
11
77.6983342483
21
152.041044558
0
LINE
8
0
10
77.6983342483
20
152.041044558
11
77.5729264535
21
152.605263281
0
LINE
8
0
10
77.5729264535
20
152.605263281
11
77.40447779
21
153.253561263
0
LINE
8
0
10
77.40447779
20
153.253561263
11
77.18689127
21
153.983482313
0
LINE
8
0
10
77.18689127
20
153.983482313
11
76.9141939754
21
154.792244509
0
LINE
8
0
10
76.9141939754
20
154.792244509
11
76.7427261728
21
155.246814836
0
LINE
8
0
10
76.7427261728
20
155.246814836
11
75.4899812499
21
155.280175382
0
LINE
8
0
10
75.4899812499
20
155.280175382
11
74.2407873686
21
155.180188309
0
LINE
8
0
10
74.2407873686
20
155.180188309
11
74.0937558095
21
154.717136356
0
LINE
8
0
10
74.0937558095
20
154.717136356
11
73.864489093
21
153.89500688
0
LINE
8
0
10
73.864489093
20
153.89500688
11
73.686058945
21
153.154539923
0
LINE
8
0
10
73.686058945
20
153.154539923
11
73.552352853
21
152.498195572
0
LINE
8
0
10
73.552352853
20
152.498195572
11
73.4571517468
21
151.928102042
0
LINE
8
0
10
73.4571517468
20
151.928102042
11
73.3941458828
21
151.446051356
0
LINE
8
0
10
73.3941458828
20
151.446051356
11
73.3569508958
21
151.053495728
0
LINE
8
0
10
73.3569508958
20
151.053495728
11
73.3329003041
21
150.646128334
0
LINE
8
0
10
73.3329003041
20
150.646128334
11
73.2902259919
21
150.349281572
0
LINE
8
0
10
73.2902259919
20
150.349281572
11
73.2244798507
21
150.147955874
0
LINE
8
0
10
73.2244798507
20
150.147955874
11
73.1424041728
21
150.043296681
0
LINE
8
0
10
73.1424041728
20
150.043296681
11
70.3997435933
21
149.823770627
0
LINE
8
0
10
70.3997435933
20
149.823770627
11
70.3020654165
21
149.914042092
0
LINE
8
0
10
70.3020654165
20
149.914042092
11
70.2051327626
21
150.102346771
0
LINE
8
0
10
70.2051327626
20
150.102346771
11
70.1157842808
21
150.388626261
0
LINE
8
0
10
70.1157842808
20
150.388626261
11
70.0272426109
21
150.786981627
0
LINE
8
0
10
70.0272426109
20
150.786981627
11
69.9280799067
21
151.16862301
0
LINE
8
0
10
69.9280799067
20
151.16862301
11
69.7891995436
21
151.634514466
0
LINE
8
0
10
69.7891995436
20
151.634514466
11
69.6045294342
21
152.182206746
0
LINE
8
0
10
69.6045294342
20
152.182206746
11
69.3681252137
21
152.808926995
0
LINE
8
0
10
69.3681252137
20
152.808926995
11
69.0741855122
21
153.511584866
0
LINE
8
0
10
69.0741855122
20
153.511584866
11
68.7170669495
21
154.286779316
0
LINE
8
0
10
68.7170669495
20
154.286779316
11
68.4982526816
21
154.720548502
0
LINE
8
0
10
68.4982526816
20
154.720548502
11
67.2490588003
21
154.620561429
0
LINE
8
0
10
67.2490588003
20
154.620561429
11
66.0175698265
21
154.388359631
0
LINE
8
0
10
66.0175698265
20
154.388359631
11
65.9205906366
21
153.912302463
0
LINE
8
0
10
65.9205906366
20
153.912302463
11
65.7800097695
21
153.070460956
0
LINE
8
0
10
65.7800097695
20
153.070460956
11
65.6812972779
21
152.31522293
0
LINE
8
0
10
65.6812972779
20
152.31522293
11
65.6181137864
21
151.648384814
0
LINE
8
0
10
65.6181137864
20
151.648384814
11
65.5840492419
21
151.071401721
0
LINE
8
0
10
65.5840492419
20
151.071401721
11
65.5726391665
21
150.585384835
0
LINE
8
0
10
65.5726391665
20
150.585384835
11
65.5773810024
21
150.191099529
0
LINE
8
0
10
65.5773810024
20
150.191099529
11
65.5967671625
21
149.783483531
0
LINE
8
0
10
65.5967671625
20
149.783483531
11
65.5858874858
21
149.483782463
0
LINE
8
0
10
65.5858874858
20
149.483782463
11
65.5419134197
21
149.27660893
0
LINE
8
0
10
65.5419134197
20
149.27660893
11
65.4714273074
21
149.163818541
0
LINE
8
0
10
65.4714273074
20
149.163818541
11
62.7676386376
21
148.654009193
0
LINE
8
0
10
62.7676386376
20
148.654009193
11
62.6609185584
21
148.733386699
0
LINE
8
0
10
62.6609185584
20
148.733386699
11
62.5445194867
21
148.910321285
0
LINE
8
0
10
62.5445194867
20
148.910321285
11
62.4252475371
21
149.185481782
0
LINE
8
0
10
62.4252475371
20
149.185481782
11
62.294864893
21
149.572168983
0
LINE
8
0
10
62.294864893
20
149.572168983
11
62.1556979725
21
149.941107942
0
LINE
8
0
10
62.1556979725
20
149.941107942
11
61.9680831676
21
150.389597951
0
LINE
8
0
10
61.9680831676
20
150.389597951
11
61.7262431298
21
150.914558216
0
LINE
8
0
10
61.7262431298
20
150.914558216
11
61.4245619066
21
151.512599741
0
LINE
8
0
10
61.4245619066
20
151.512599741
11
61.0575994778
21
152.18003304
0
LINE
8
0
10
61.0575994778
20
152.18003304
11
60.620105943
21
152.912876481
0
LINE
8
0
10
60.620105943
20
152.912876481
11
60.356424463
21
153.320929747
0
LINE
8
0
10
60.356424463
20
153.320929747
11
59.1249354891
21
153.088727949
0
LINE
8
0
10
59.1249354891
20
153.088727949
11
57.9251046848
21
152.726942365
0
LINE
8
0
10
57.9251046848
20
152.726942365
11
57.8792766771
21
152.2432739
0
LINE
8
0
10
57.8792766771
20
152.2432739
11
57.8289744969
21
151.391258763
0
LINE
8
0
10
57.8289744969
20
151.391258763
11
57.8110981136
21
150.629806816
0
LINE
8
0
10
57.8110981136
20
150.629806816
11
57.819153117
21
149.960030478
0
LINE
8
0
10
57.819153117
20
149.960030478
11
57.846611099
21
149.38269527
0
LINE
8
0
10
57.846611099
20
149.38269527
11
57.8869260929
21
148.89821895
0
LINE
8
0
10
57.8869260929
20
148.89821895
11
57.9335510248
21
148.506671375
0
LINE
8
0
10
57.9335510248
20
148.506671375
11
57.9961542836
21
148.103425226
0
LINE
8
0
10
57.9961542836
20
148.103425226
11
58.0171925137
21
147.804265586
0
LINE
8
0
10
58.0171925137
20
147.804265586
11
57.9954887664
21
147.593591575
0
LINE
8
0
10
57.9954887664
20
147.593591575
11
57.9373908556
21
147.473947952
0
LINE
8
0
10
57.9373908556
20
147.473947952
11
55.3031091014
21
146.679631654
0
LINE
8
0
10
55.3031091014
20
146.679631654
11
55.188556301
21
146.747215821
0
LINE
8
0
10
55.188556301
20
146.747215821
11
55.0540096595
21
146.910775574
0
LINE
8
0
10
55.0540096595
20
146.910775574
11
54.9061656408
21
147.171699401
0
LINE
8
0
10
54.9061656408
20
147.171699401
11
54.7354193101
21
147.542337115
0
LINE
8
0
10
54.7354193101
20
147.542337115
11
54.5578249901
21
147.894393425
0
LINE
8
0
10
54.5578249901
20
147.894393425
11
54.3236014941
21
148.320400417
0
LINE
8
0
10
54.3236014941
20
148.320400417
11
54.0273316721
21
148.816680656
0
LINE
8
0
10
54.0273316721
20
148.816680656
11
53.6637916151
21
149.379267407
0
LINE
8
0
10
53.6637916151
20
149.379267407
11
53.22796429
21
150.003913848
0
LINE
8
0
10
53.22796429
20
150.003913848
11
52.7150527596
21
150.686102872
0
LINE
8
0
10
52.7150527596
20
150.686102872
11
52.4094916839
21
151.06381681
0
LINE
8
0
10
52.4094916839
20
151.06381681
11
51.2096608796
21
150.702031226
0
LINE
8
0
10
51.2096608796
20
150.702031226
11
50.0550828074
21
150.214761032
0
LINE
8
0
10
50.0550828074
20
150.214761032
11
50.0609252315
21
149.728961426
0
LINE
8
0
10
50.0609252315
20
149.728961426
11
50.1014716819
21
148.876426331
0
LINE
8
0
10
50.1014716819
20
148.876426331
11
50.1646339535
21
148.117388019
0
LINE
8
0
10
50.1646339535
20
148.117388019
11
50.2438361852
21
147.452262292
0
LINE
8
0
10
50.2438361852
20
147.452262292
11
50.332505584
21
146.881116408
0
LINE
8
0
10
50.332505584
20
146.881116408
11
50.4240888621
21
146.403669964
0
LINE
8
0
10
50.4240888621
20
146.403669964
11
50.512068611
21
146.019296511
0
LINE
8
0
10
50.512068611
20
146.019296511
11
50.6171796486
21
145.624989151
0
LINE
8
0
10
50.6171796486
20
145.624989151
11
50.6698974138
21
145.329760536
0
LINE
8
0
10
50.6698974138
20
145.329760536
11
50.6707098976
21
145.117973069
0
LINE
8
0
10
50.6707098976
20
145.117973069
11
50.6256584607
21
144.992831822
0
LINE
8
0
10
50.6256584607
20
144.992831822
11
48.090731087
21
143.923008494
0
LINE
8
0
10
48.090731087
20
143.923008494
11
47.9696434943
21
143.978033567
0
LINE
8
0
10
47.9696434943
20
143.978033567
11
47.8184737503
21
144.12636529
0
LINE
8
0
10
47.8184737503
20
144.12636529
11
47.6437327945
21
144.370096075
0
LINE
8
0
10
47.6437327945
20
144.370096075
11
47.4345574012
21
144.72048483
0
LINE
8
0
10
47.4345574012
20
144.72048483
11
47.2205478962
21
145.051669551
0
LINE
8
0
10
47.2205478962
20
145.051669551
11
46.9423695551
21
145.450366697
0
LINE
8
0
10
46.9423695551
20
145.450366697
11
46.5950268043
21
145.912343857
0
LINE
8
0
10
46.5950268043
20
145.912343857
11
46.1737469675
21
146.433101502
0
LINE
8
0
10
46.1737469675
20
146.433101502
11
45.6739928439
21
147.00788359
0
LINE
8
0
10
45.6739928439
20
147.00788359
11
45.0914748105
21
147.631688723
0
LINE
8
0
10
45.0914748105
20
147.631688723
11
44.7474962683
21
147.974783685
0
LINE
8
0
10
44.7474962683
20
147.974783685
11
43.592918196
21
147.48751349
0
LINE
8
0
10
43.592918196
20
147.48751349
11
42.4966746867
21
146.88027965
0
LINE
8
0
10
42.4966746867
20
146.88027965
11
42.5541213457
21
146.397853209
0
LINE
8
0
10
42.5541213457
20
146.397853209
11
42.6850570192
21
145.554457719
0
LINE
8
0
10
42.6850570192
20
145.554457719
11
42.8285422919
21
144.806433248
0
LINE
8
0
10
42.8285422919
20
144.806433248
11
42.9779943591
21
144.153494272
0
LINE
8
0
10
42.9779943591
20
144.153494272
11
43.1268705148
21
143.595009023
0
LINE
8
0
10
43.1268705148
20
143.595009023
11
43.2686844021
21
143.130002115
0
LINE
8
0
10
43.2686844021
20
143.130002115
11
43.3970221222
21
142.757157889
0
LINE
8
0
10
43.3970221222
20
142.757157889
11
43.5434499886
21
142.376256976
0
LINE
8
0
10
43.5434499886
20
142.376256976
11
43.6272499756
21
142.088304446
0
LINE
8
0
10
43.6272499756
20
142.088304446
11
43.6505694845
21
141.877803159
0
LINE
8
0
10
43.6505694845
20
141.877803159
11
43.6190749724
21
141.748582188
0
LINE
8
0
10
43.6190749724
20
141.748582188
11
41.2122237192
21
140.415373357
0
LINE
8
0
10
41.2122237192
20
140.415373357
11
41.0859733052
21
140.45721588
0
LINE
8
0
10
41.0859733052
20
140.45721588
11
40.9198932721
21
140.588638914
0
LINE
8
0
10
40.9198932721
20
140.588638914
11
40.720235264
21
140.81241509
0
LINE
8
0
10
40.720235264
20
140.81241509
11
40.4750008491
21
141.138584842
0
LINE
8
0
10
40.4750008491
20
141.138584842
11
40.2270009723
21
141.445145519
0
LINE
8
0
10
40.2270009723
20
141.445145519
11
39.9080196577
21
141.81201542
0
LINE
8
0
10
39.9080196577
20
141.81201542
11
39.5135395104
21
142.234455115
0
LINE
8
0
10
39.5135395104
20
142.234455115
11
39.0392931627
21
142.707483262
0
LINE
8
0
10
39.0392931627
20
142.707483262
11
38.4812746544
21
143.225888487
0
LINE
8
0
10
38.4812746544
20
143.225888487
11
37.8357502802
21
143.784241767
0
LINE
8
0
10
37.8357502802
20
143.784241767
11
37.4572516857
21
144.088830349
0
LINE
8
0
10
37.4572516857
20
144.088830349
11
36.3610081763
21
143.481596509
0
LINE
8
0
10
36.3610081763
20
143.481596509
11
35.3355201069
21
142.761279227
0
LINE
8
0
10
35.3355201069
20
142.761279227
11
35.4439201071
21
142.287692033
0
LINE
8
0
10
35.4439201071
20
142.287692033
11
35.6637614503
21
141.462992156
0
LINE
8
0
10
35.6637614503
20
141.462992156
11
35.8859439786
21
140.734456943
0
LINE
8
0
10
35.8859439786
20
140.734456943
11
36.1039525296
21
140.101102779
0
LINE
8
0
10
36.1039525296
20
140.101102779
11
36.311348616
21
139.561606026
0
LINE
8
0
10
36.311348616
20
139.561606026
11
36.5017863044
21
139.114307367
0
LINE
8
0
10
36.5017863044
20
139.114307367
11
36.6690278781
21
138.757216841
0
LINE
8
0
10
36.6690278781
20
138.757216841
11
36.855113487
21
138.394038137
0
LINE
8
0
10
36.855113487
20
138.394038137
11
36.9690462085
21
138.116624308
0
LINE
8
0
10
36.9690462085
20
138.116624308
11
37.0146085233
21
137.909794265
0
LINE
8
0
10
37.0146085233
20
137.909794265
11
36.9970277813
21
137.777957695
0
LINE
8
0
10
36.9970277813
20
137.777957695
11
34.7455232351
21
136.196469149
0
LINE
8
0
10
34.7455232351
20
136.196469149
11
34.6155404673
21
136.224655029
0
LINE
8
0
10
34.6155404673
20
136.224655029
11
34.4364318984
21
136.3376803
0
LINE
8
0
10
34.4364318984
20
136.3376803
11
34.214119043
21
136.538966394
0
LINE
8
0
10
34.214119043
20
136.538966394
11
33.9356042102
21
136.837221508
0
LINE
8
0
10
33.9356042102
20
136.837221508
11
33.6564238994
21
137.115684686
0
LINE
8
0
10
33.6564238994
20
137.115684686
11
33.3002537971
21
137.44657056
0
LINE
8
0
10
33.3002537971
20
137.44657056
11
32.8631058709
21
137.82468638
0
LINE
8
0
10
32.8631058709
20
137.82468638
11
32.341266413
21
138.244625431
0
LINE
8
0
10
32.341266413
20
138.244625431
11
31.7313060927
21
138.700780054
0
LINE
8
0
10
31.7313060927
20
138.700780054
11
31.0300894266
21
139.187355116
0
LINE
8
0
10
31.0300894266
20
139.187355116
11
30.6213593203
21
139.449986207
0
LINE
8
0
10
30.6213593203
20
139.449986207
11
29.5958712508
21
138.729668925
0
LINE
8
0
10
29.5958712508
20
138.729668925
11
28.6527578109
21
137.904429683
0
LINE
8
0
10
28.6527578109
20
137.904429683
11
28.8108829371
21
137.445047669
0
LINE
8
0
10
28.8108829371
20
137.445047669
11
29.1171390596
21
136.648387584
0
LINE
8
0
10
29.1171390596
20
136.648387584
11
29.4155014268
21
135.947596224
0
LINE
8
0
10
29.4155014268
20
135.947596224
11
29.6995963376
21
135.341003026
0
LINE
8
0
10
29.6995963376
20
135.341003026
11
29.963162474
21
134.826607483
0
LINE
8
0
10
29.963162474
20
134.826607483
11
30.2000662285
21
134.402085146
0
LINE
8
0
10
30.2000662285
20
134.402085146
11
30.4043167419
21
134.064794299
0
LINE
8
0
10
30.4043167419
20
134.064794299
11
30.627951669
21
133.723452763
0
LINE
8
0
10
30.627951669
20
133.723452763
11
30.7707262217
21
133.459720845
0
LINE
8
0
10
30.7707262217
20
133.459720845
11
30.8380151031
21
133.258905513
0
LINE
8
0
10
30.8380151031
20
133.258905513
11
30.8345473282
21
133.125947105
0
LINE
8
0
10
30.8345473282
20
133.125947105
11
28.7638999351
21
131.314097741
0
LINE
8
0
10
28.7638999351
20
131.314097741
11
28.6316575702
21
131.328307621
0
LINE
8
0
10
28.6316575702
20
131.328307621
11
28.4415498371
21
131.421654507
0
LINE
8
0
10
28.4415498371
20
131.421654507
11
28.1991010279
21
131.598169867
0
LINE
8
0
10
28.1991010279
20
131.598169867
11
27.8904614616
21
131.865130994
0
LINE
8
0
10
27.8904614616
20
131.865130994
11
27.5832639412
21
132.112341574
0
LINE
8
0
10
27.5832639412
20
132.112341574
11
27.1939406008
21
132.403494352
0
LINE
8
0
10
27.1939406008
20
132.403494352
11
26.7190779564
21
132.733002094
0
LINE
8
0
10
26.7190779564
20
132.733002094
11
26.1555580378
21
133.095093971
0
LINE
8
0
10
26.1555580378
20
133.095093971
11
25.5005669997
21
133.483829578
0
LINE
8
0
10
25.5005669997
20
133.483829578
11
24.7516031069
21
133.893113331
0
LINE
8
0
10
24.7516031069
20
133.893113331
11
24.3172725641
21
134.110811218
0
LINE
8
0
10
24.3172725641
20
134.110811218
11
23.3741591241
21
133.285571975
0
LINE
8
0
10
23.3741591241
20
133.285571975
11
22.5241061658
21
132.364761063
0
LINE
8
0
10
22.5241061658
20
132.364761063
11
22.7301647971
21
131.924789211
0
LINE
8
0
10
22.7301647971
20
131.924789211
11
23.1193656947
21
131.165195396
0
LINE
8
0
10
23.1193656947
20
131.165195396
11
23.4905273359
21
130.500088135
0
LINE
8
0
10
23.4905273359
20
130.500088135
11
23.8374896976
21
129.927128847
0
LINE
8
0
10
23.8374896976
20
129.927128847
11
24.1542395745
21
129.44366282
0
LINE
8
0
10
24.1542395745
20
129.44366282
11
24.4349251808
21
129.046726813
0
LINE
8
0
10
24.4349251808
20
129.046726813
11
24.6738703941
21
128.733057285
0
LINE
8
0
10
24.6738703941
20
128.733057285
11
24.9325207663
21
128.417420453
0
LINE
8
0
10
24.9325207663
20
128.417420453
11
25.1025194574
21
128.170358634
0
LINE
8
0
10
25.1025194574
20
128.170358634
11
25.1907724955
21
127.97783333
0
LINE
8
0
10
25.1907724955
20
127.97783333
11
25.2014569789
21
127.845259556
0
LINE
8
0
10
25.2014569789
20
127.845259556
11
23.3351280013
21
125.823578352
0
LINE
8
0
10
23.3351280013
20
125.823578352
11
23.2021243982
21
125.823651229
0
LINE
8
0
10
23.2021243982
20
125.823651229
11
23.0031714974
21
125.896262073
0
LINE
8
0
10
23.0031714974
20
125.896262073
11
22.7433337763
21
126.046006709
0
LINE
8
0
10
22.7433337763
20
126.046006709
11
22.4080664862
21
126.278649072
0
LINE
8
0
10
22.4080664862
20
126.278649072
11
22.0763324268
21
126.491806059
0
LINE
8
0
10
22.0763324268
20
126.491806059
11
21.6582670373
21
126.739926864
0
LINE
8
0
10
21.6582670373
20
126.739926864
11
21.1510700582
21
127.017093073
0
LINE
8
0
10
21.1510700582
20
127.017093073
11
20.5522545848
21
127.317235131
0
LINE
8
0
10
20.5522545848
20
127.317235131
11
19.859654139
21
127.634147193
0
LINE
8
0
10
19.859654139
20
127.634147193
11
19.0714290796
21
127.961502289
0
LINE
8
0
10
19.0714290796
20
127.961502289
11
18.616419239
21
128.131800366
0
LINE
8
0
10
18.616419239
20
128.131800366
11
17.7663662806
21
127.210989454
0
LINE
8
0
10
17.7663662806
20
127.210989454
11
17.0190052436
21
126.205040027
0
LINE
8
0
10
17.0190052436
20
126.205040027
11
17.2706626533
21
125.789463394
0
LINE
8
0
10
17.2706626533
20
125.789463394
11
17.7383985244
21
125.075542349
0
LINE
8
0
10
17.7383985244
20
125.075542349
11
18.1781540299
21
124.453655118
0
LINE
8
0
10
18.1781540299
20
124.453655118
11
18.5840526204
21
123.920821598
0
LINE
8
0
10
18.5840526204
20
123.920821598
11
18.950397335
21
123.473762952
0
LINE
8
0
10
18.950397335
20
123.473762952
11
19.2716845131
21
123.108910718
0
LINE
8
0
10
19.2716845131
20
123.108910718
11
19.5426170814
21
122.82241651
0
LINE
8
0
10
19.5426170814
20
122.82241651
11
19.8333522867
21
122.536060673
0
LINE
8
0
10
19.8333522867
20
122.536060673
11
20.0286489631
21
122.308468262
0
LINE
8
0
10
20.0286489631
20
122.308468262
11
20.1368662158
21
122.126414376
0
LINE
8
0
10
20.1368662158
20
122.126414376
11
20.161581898
21
121.99572735
0
LINE
8
0
10
20.161581898
20
121.99572735
11
18.520717589
21
119.787120762
0
LINE
8
0
10
18.520717589
20
119.787120762
11
18.3884597316
21
119.773055808
0
LINE
8
0
10
18.3884597316
20
119.773055808
11
18.182915879
21
119.8241079
0
LINE
8
0
10
18.182915879
20
119.8241079
11
17.9086333112
21
119.945385146
0
LINE
8
0
10
17.9086333112
20
119.945385146
11
17.5505370096
21
120.141072814
0
LINE
8
0
10
17.5505370096
20
120.141072814
11
17.1980250908
21
120.317761055
0
LINE
8
0
10
17.1980250908
20
120.317761055
11
16.7559545
21
120.520038578
0
LINE
8
0
10
16.7559545
20
120.520038578
11
16.2221699307
21
120.741722851
0
LINE
8
0
10
16.2221699307
20
120.741722851
11
15.5948437211
21
120.97651436
0
LINE
8
0
10
15.5948437211
20
120.97651436
11
14.8724813074
21
121.218012137
0
LINE
8
0
10
14.8724813074
20
121.218012137
11
14.0539259863
21
121.459729511
0
LINE
8
0
10
14.0539259863
20
121.459729511
11
13.5833922911
21
121.580698234
0
LINE
8
0
10
13.5833922911
20
121.580698234
11
12.8360312541
21
120.574748808
0
LINE
8
0
10
12.8360312541
20
120.574748808
11
12.1998300375
21
119.495058676
0
LINE
8
0
10
12.1998300375
20
119.495058676
11
12.4942348467
21
119.108585911
0
LINE
8
0
10
12.4942348467
20
119.108585911
11
13.0352060569
21
118.448426647
0
LINE
8
0
10
13.0352060569
20
118.448426647
11
13.538572821
21
117.876805677
0
LINE
8
0
10
13.538572821
20
117.876805677
11
13.998808647
21
117.390135141
0
LINE
8
0
10
13.998808647
20
117.390135141
11
14.4105973675
21
116.984549228
0
LINE
8
0
10
14.4105973675
20
116.984549228
11
14.7688458052
21
116.655914689
0
LINE
8
0
10
14.7688458052
20
116.655914689
11
15.0686959543
21
116.399841896
0
LINE
8
0
10
15.0686959543
20
116.399841896
11
15.3882218466
21
116.14601158
0
LINE
8
0
10
15.3882218466
20
116.14601158
11
15.6066037191
21
115.94046729
0
LINE
8
0
10
15.6066037191
20
115.94046729
11
15.7335590415
21
115.770947564
0
LINE
8
0
10
15.7335590415
20
115.770947564
11
15.772025884
21
115.643628022
0
LINE
8
0
10
15.772025884
20
115.643628022
11
14.3752178918
21
113.273120445
0
LINE
8
0
10
14.3752178918
20
113.273120445
11
14.2452043145
21
113.245077024
0
LINE
8
0
10
14.2452043145
20
113.245077024
11
14.0353984042
21
113.273991922
0
LINE
8
0
10
14.0353984042
20
113.273991922
11
13.7497787207
21
113.365427658
0
LINE
8
0
10
13.7497787207
20
113.365427658
11
13.3729107818
21
113.521943413
0
LINE
8
0
10
13.3729107818
20
113.521943413
11
13.0036151044
21
113.660160959
0
LINE
8
0
10
13.0036151044
20
113.660160959
11
12.5425481489
21
113.814303316
0
LINE
8
0
10
12.5425481489
20
113.814303316
11
11.9882239818
21
113.97799388
0
LINE
8
0
10
11.9882239818
20
113.97799388
11
11.3394948925
21
114.144774559
0
LINE
8
0
10
11.3394948925
20
114.144774559
11
10.5955551658
21
114.308121784
0
LINE
8
0
10
10.5955551658
20
114.308121784
11
9.75594414186
21
114.461462683
0
LINE
8
0
10
9.75594414186
20
114.461462683
11
9.27521792682
21
114.531731427
0
LINE
8
0
10
9.27521792682
20
114.531731427
11
8.6390167103
21
113.452041295
0
LINE
8
0
10
8.6390167103
20
113.452041295
11
8.12118372827
21
112.310843779
0
LINE
8
0
10
8.12118372827
20
112.310843779
11
8.45500021269
21
111.957853772
0
LINE
8
0
10
8.45500021269
20
111.957853772
11
9.06307734212
21
111.358936159
0
LINE
8
0
10
9.06307734212
20
111.358936159
11
9.6243520183
21
110.844058144
0
LINE
8
0
10
9.6243520183
20
110.844058144
11
10.1337104241
21
110.409064764
0
LINE
8
0
10
10.1337104241
20
110.409064764
11
10.5862774196
21
110.049547035
0
LINE
8
0
10
10.5862774196
20
110.049547035
11
10.977428019
21
109.760853751
0
LINE
8
0
10
10.977428019
20
109.760853751
11
11.3027983269
21
109.538103778
0
LINE
8
0
10
11.3027983269
20
109.538103778
11
11.6474945502
21
109.319674983
0
LINE
8
0
10
11.6474945502
20
109.319674983
11
11.8864872647
21
109.138507713
0
LINE
8
0
10
11.8864872647
20
109.138507713
11
12.0307422025
21
108.983442874
0
LINE
8
0
10
12.0307422025
20
108.983442874
11
12.0825243605
21
108.860933397
0
LINE
8
0
10
12.0825243605
20
108.860933397
11
10.9455990778
21
106.355383629
0
LINE
8
0
10
10.9455990778
20
106.355383629
11
10.8193028864
21
106.313679483
0
LINE
8
0
10
10.8193028864
20
106.313679483
11
10.6076121031
21
106.320129571
0
LINE
8
0
10
10.6076121031
20
106.320129571
11
10.3138914891
21
106.380687794
0
LINE
8
0
10
10.3138914891
20
106.380687794
11
9.92252197721
21
106.496258249
0
LINE
8
0
10
9.92252197721
20
106.496258249
11
9.54062680883
21
106.59443904
0
LINE
8
0
10
9.54062680883
20
106.59443904
11
9.0657875614
21
106.698699736
0
LINE
8
0
10
9.0657875614
20
106.698699736
11
8.49720451081
21
106.802541912
0
LINE
8
0
10
8.49720451081
20
106.802541912
11
7.83442290176
21
106.899422069
0
LINE
8
0
10
7.83442290176
20
106.899422069
11
7.07733499637
21
106.982767952
0
LINE
8
0
10
7.07733499637
20
106.982767952
11
6.22618139795
21
107.045994962
0
LINE
8
0
10
6.22618139795
20
107.045994962
11
5.74070948323
21
107.064767555
0
LINE
8
0
10
5.74070948323
20
107.064767555
11
5.22287650119
21
105.923570039
0
LINE
8
0
10
5.22287650119
20
105.923570039
11
4.82927900825
21
104.733795362
0
LINE
8
0
10
4.82927900825
20
104.733795362
11
5.19872489382
21
104.418287632
0
LINE
8
0
10
5.19872489382
20
104.418287632
11
5.86701818556
21
103.887397644
0
LINE
8
0
10
5.86701818556
20
103.887397644
11
6.47984130749
21
103.435096357
0
LINE
8
0
10
6.47984130749
20
103.435096357
11
7.03255105871
21
103.056708782
0
LINE
8
0
10
7.03255105871
20
103.056708782
11
7.52076856436
21
102.747332716
0
LINE
8
0
10
7.52076856436
20
102.747332716
11
7.94038943289
21
102.501851698
0
LINE
8
0
10
7.94038943289
20
102.501851698
11
8.28759332398
21
102.314948393
0
LINE
8
0
10
8.28759332398
20
102.314948393
11
8.65355433229
21
102.134396004
0
LINE
8
0
10
8.65355433229
20
102.134396004
11
8.91045000598
21
101.979658451
0
LINE
8
0
10
8.91045000598
20
101.979658451
11
9.07037009295
21
101.840805445
0
LINE
8
0
10
9.07037009295
20
101.840805445
11
9.13488085398
21
101.724494116
0
LINE
8
0
10
9.13488085398
20
101.724494116
11
8.27072009858
21
99.1122910355
0
LINE
8
0
10
8.27072009858
20
99.1122910355
11
8.14957227934
21
99.0573986895
0
LINE
8
0
10
8.14957227934
20
99.0573986895
11
7.93839516424
21
99.0413108858
0
LINE
8
0
10
7.93839516424
20
99.0413108858
11
7.63990159167
21
99.0703054458
0
LINE
8
0
10
7.63990159167
20
99.0703054458
11
7.23846487977
21
99.1436211415
0
LINE
8
0
10
7.23846487977
20
99.1436211415
11
6.84829724525
21
99.2006527507
0
LINE
8
0
10
6.84829724525
20
99.2006527507
11
6.3650658243
21
99.2538504696
0
LINE
8
0
10
6.3650658243
20
99.2538504696
11
5.78866616339
21
99.2966676852
0
LINE
8
0
10
5.78866616339
20
99.2966676852
11
5.11934161499
21
99.3225496293
0
LINE
8
0
10
5.11934161499
20
99.3225496293
11
4.35768363939
21
99.3249498291
0
LINE
8
0
10
4.35768363939
20
99.3249498291
11
3.50463137689
21
99.2973465626
0
LINE
8
0
10
3.50463137689
20
99.2973465626
11
3.01991435327
21
99.2644103025
0
LINE
8
0
10
3.01991435327
20
99.2644103025
11
2.62631686032
21
98.0746356258
0
LINE
8
0
10
2.62631686032
20
98.0746356258
11
2.36141447333
21
96.8497644109
0
LINE
8
0
10
2.36141447333
20
96.8497644109
11
2.76230379054
21
96.5753137859
0
LINE
8
0
10
2.76230379054
20
96.5753137859
11
3.48324121456
21
96.1184666194
0
LINE
8
0
10
3.48324121456
20
96.1184666194
11
4.1406692514
21
95.7338668156
0
LINE
8
0
10
4.1406692514
20
95.7338668156
11
4.73046792574
21
95.4163723277
0
LINE
8
0
10
4.73046792574
20
95.4163723277
11
5.24880424211
21
95.1606432793
0
LINE
8
0
10
5.24880424211
20
95.1606432793
11
5.69214090765
21
94.9611559251
0
LINE
8
0
10
5.69214090765
20
94.9611559251
11
6.05724442312
21
94.8122169763
0
LINE
8
0
10
6.05724442312
20
94.8122169763
11
6.440323732
21
94.6715867235
0
LINE
8
0
10
6.440323732
20
94.6715867235
11
6.71221163421
21
94.5450321266
0
LINE
8
0
10
6.71221163421
20
94.5450321266
11
6.88598491189
21
94.4239642145
0
LINE
8
0
10
6.88598491189
20
94.4239642145
11
6.96249334325
21
94.3151688852
0
LINE
8
0
10
6.96249334325
20
94.3151688852
11
6.38088840178
21
91.6259097986
0
LINE
8
0
10
6.38088840178
20
91.6259097986
11
6.26626160792
21
91.5584512048
0
LINE
8
0
10
6.26626160792
20
91.5584512048
11
6.0579908821
21
91.52000779
0
LINE
8
0
10
6.0579908821
20
91.52000779
11
5.75810640241
21
91.5171101678
0
LINE
8
0
10
5.75810640241
20
91.5171101678
11
5.35115092884
21
91.547340408
0
LINE
8
0
10
5.35115092884
20
91.547340408
11
4.9571315834
21
91.5625766439
0
LINE
8
0
10
4.9571315834
20
91.5625766439
11
4.47098319402
21
91.564108635
0
LINE
8
0
10
4.47098319402
20
91.564108635
11
3.89329776126
21
91.5454157534
0
LINE
8
0
10
3.89329776126
20
91.5454157534
11
3.22501398808
21
91.5000062319
0
LINE
8
0
10
3.22501398808
20
91.5000062319
11
2.46741583149
21
91.4214335529
0
LINE
8
0
10
2.46741583149
20
91.4214335529
11
1.6221303279
21
91.303312766
0
LINE
8
0
10
1.6221303279
20
91.303312766
11
1.14366023294
21
91.2190408345
0
LINE
8
0
10
1.14366023294
20
91.2190408345
11
0.87875784595
21
89.9941696196
0
LINE
8
0
10
0.87875784595
20
89.9941696196
11
0.745552014807
21
88.7480801467
0
LINE
8
0
10
0.745552014807
20
88.7480801467
11
1.17334252751
21
88.5177962623
0
LINE
8
0
10
1.17334252751
20
88.5177962623
11
1.93875557472
21
88.140168178
0
LINE
8
0
10
1.93875557472
20
88.140168178
11
2.63333960412
21
87.8276275265
0
LINE
8
0
10
2.63333960412
20
87.8276275265
11
3.25354454693
21
87.5746234651
0
LINE
8
0
10
3.25354454693
20
87.5746234651
11
3.79612671644
21
87.3754389467
0
LINE
8
0
10
3.79612671644
20
87.3754389467
11
4.25815599742
21
87.2242055277
0
LINE
8
0
10
4.25815599742
20
87.2242055277
11
4.63702236854
21
87.1149184731
0
LINE
8
0
10
4.63702236854
20
87.1149184731
11
5.03287953635
21
87.0158037539
0
LINE
8
0
10
5.03287953635
20
87.0158037539
11
5.31667906852
21
86.9188660268
0
LINE
8
0
10
5.31667906852
20
86.9188660268
11
5.50233661623
21
86.8169549561
0
LINE
8
0
10
5.50233661623
20
86.8169549561
11
5.58997584682
21
86.7169083218
0
LINE
8
0
10
5.58997584682
20
86.7169083218
11
5.29751653565
21
83.9810636088
0
LINE
8
0
10
5.29751653565
20
83.9810636088
11
5.19070953457
21
83.9018030999
0
LINE
8
0
10
5.19070953457
20
83.9018030999
11
4.98770498857
21
83.8414396534
0
LINE
8
0
10
4.98770498857
20
83.8414396534
11
4.68982741274
21
83.8066826801
0
LINE
8
0
10
4.68982741274
20
83.8066826801
11
4.28196414563
21
83.7934849442
0
LINE
8
0
10
4.28196414563
20
83.7934849442
11
3.88855748588
21
83.7667531741
0
LINE
8
0
10
3.88855748588
20
83.7667531741
11
3.40500038358
21
83.7166020793
0
LINE
8
0
10
3.40500038358
20
83.7166020793
11
2.83257458575
21
83.6366108984
0
LINE
8
0
10
2.83257458575
20
83.6366108984
11
2.17290351
21
83.5204244192
0
LINE
8
0
10
2.17290351
20
83.5204244192
11
1.42794906224
21
83.3617691214
0
LINE
8
0
10
1.42794906224
20
83.3617691214
11
0.600007740071
21
83.1544691698
0
LINE
8
0
10
0.600007740071
20
83.1544691698
11
0.133205831143
21
83.0198164015
0
LINE
8
0
10
0.133205831143
20
83.0198164015
11
0.0
21
81.7737269286
0
LINE
8
0
10
0.0
20
81.7737269286
11
5.68434188608e-14
21
80.5205378895
0
LINE
8
0
10
5.68434188608e-14
20
80.5205378895
11
0.449844670751
21
80.337029954
0
LINE
8
0
10
0.449844670751
20
80.337029954
11
1.25106090548
21
80.042899629
0
LINE
8
0
10
1.25106090548
20
80.042899629
11
1.97493101284
21
79.8059593402
0
LINE
8
0
10
1.97493101284
20
79.8059593402
11
2.6185150543
21
79.6203123427
0
LINE
8
0
10
2.6185150543
20
79.6203123427
11
3.17919540417
21
79.4799291944
0
LINE
8
0
10
3.17919540417
20
79.4799291944
11
3.65468232421
21
79.3786632457
0
LINE
8
0
10
3.65468232421
20
79.3786632457
11
4.04301884361
21
79.3102663513
0
LINE
8
0
10
4.04301884361
20
79.3102663513
11
4.44716865048
21
79.2537901749
0
LINE
8
0
10
4.44716865048
20
79.2537901749
11
4.73966425049
21
79.1875676609
0
LINE
8
0
10
4.73966425049
20
79.1875676609
11
4.93510249404
21
79.1059681246
0
LINE
8
0
10
4.93510249404
20
79.1059681246
11
5.03287953635
21
79.0158037539
0
LINE
8
0
10
5.03287953635
20
79.0158037539
11
5.03287953635
21
76.2643716281
0
LINE
8
0
10
5.03287953635
20
76.2643716281
11
4.93510249404
21
76.1742072574
0
LINE
8
0
10
4.93510249404
20
76.1742072574
11
4.73966425049
21
76.0926077211
0
LINE
8
0
10
4.73966425049
20
76.0926077211
11
4.44716865048
21
76.0263852071
0
LINE
8
0
10
4.44716865048
20
76.0263852071
11
4.04301884361
21
75.9699090307
0
LINE
8
0
10
4.04301884361
20
75.9699090307
11
3.65468232421
21
75.9015121363
0
LINE
8
0
10
3.65468232421
20
75.9015121363
11
3.17919540417
21
75.8002461876
0
LINE
8
0
10
3.17919540417
20
75.8002461876
11
2.6185150543
21
75.6598630393
0
LINE
8
0
10
2.6185150543
20
75.6598630393
11
1.97493101284
21
75.4742160418
0
LINE
8
0
10
1.97493101284
20
75.4742160418
11
1.25106090548
21
75.237275753
0
LINE
8
0
10
1.25106090548
20
75.237275753
11
0.449844670751
21
74.943145428
0
LINE
8
0
10
0.449844670751
20
74.943145428
11
3.12638803734e-13
21
74.7596374925
0
LINE
8
0
10
3.12638803734e-13
20
74.7596374925
11
3.69482222595e-13
21
73.5064484534
0
LINE
8
0
10
3.69482222595e-13
20
73.5064484534
11
0.133205831143
21
72.2603589805
0
LINE
8
0
10
0.133205831143
20
72.2603589805
11
0.600007740071
21
72.1257062122
0
LINE
8
0
10
0.600007740071
20
72.1257062122
11
1.42794906224
21
71.9184062606
0
LINE
8
0
10
1.42794906224
20
71.9184062606
11
2.17290350999
21
71.7597509628
0
LINE
8
0
10
2.17290350999
20
71.7597509628
11
2.83257458575
21
71.6435644836
0
LINE
8
0
10
2.83257458575
20
71.6435644836
11
3.40500038358
21
71.5635733027
0
LINE
8
0
10
3.40500038358
20
71.5635733027
11
3.88855748588
21
71.5134222079
0
LINE
8
0
10
3.88855748588
20
71.5134222079
11
4.28196414563
21
71.4866904378
0
LINE
8
0
10
4.28196414563
20
71.4866904378
11
4.68982741274
21
71.4734927019
0
LINE
8
0
10
4.68982741274
20
71.4734927019
11
4.98770498857
21
71.4387357286
0
LINE
8
0
10
4.98770498857
20
71.4387357286
11
5.19070953457
21
71.3783722821
0
LINE
8
0
10
5.19070953457
20
71.3783722821
11
5.29751653565
21
71.2991117732
0
LINE
8
0
10
5.29751653565
20
71.2991117732
11
5.58997584682
21
68.5632670602
0
LINE
8
0
10
5.58997584682
20
68.5632670602
11
5.50233661623
21
68.4632204259
0
LINE
8
0
10
5.50233661623
20
68.4632204259
11
5.31667906852
21
68.3613093552
0
LINE
8
0
10
5.31667906852
20
68.3613093552
11
5.03287953635
21
68.2643716281
0
LINE
8
0
10
5.03287953635
20
68.2643716281
11
4.63702236853
21
68.1652569089
0
LINE
8
0
10
4.63702236853
20
68.1652569089
11
4.25815599742
21
68.0559698543
0
LINE
8
0
10
4.25815599742
20
68.0559698543
11
3.79612671644
21
67.9047364353
0
LINE
8
0
10
3.79612671644
20
67.9047364353
11
3.25354454693
21
67.7055519169
0
LINE
8
0
10
3.25354454693
20
67.7055519169
11
2.63333960412
21
67.4525478555
0
LINE
8
0
10
2.63333960412
20
67.4525478555
11
1.93875557472
21
67.140007204
0
LINE
8
0
10
1.93875557472
20
67.140007204
11
1.17334252751
21
66.7623791197
0
LINE
8
0
10
1.17334252751
20
66.7623791197
11
0.745552014807
21
66.5320952353
0
LINE
8
0
10
0.745552014807
20
66.5320952353
11
0.87875784595
21
65.2860057624
0
LINE
8
0
10
0.87875784595
20
65.2860057624
11
1.14366023294
21
64.0611345475
0
LINE
8
0
10
1.14366023294
20
64.0611345475
11
1.6221303279
21
63.976862616
0
LINE
8
0
10
1.6221303279
20
63.976862616
11
2.46741583149
21
63.8587418291
0
LINE
8
0
10
2.46741583149
20
63.8587418291
11
3.22501398808
21
63.7801691502
0
LINE
8
0
10
3.22501398808
20
63.7801691502
11
3.89329776126
21
63.7347596286
0
LINE
8
0
10
3.89329776126
20
63.7347596286
11
4.47098319402
21
63.716066747
0
LINE
8
0
10
4.47098319402
20
63.716066747
11
4.95713158339
21
63.7175987381
0
LINE
8
0
10
4.95713158339
20
63.7175987381
11
5.35115092885
21
63.732834974
0
LINE
8
0
10
5.35115092885
20
63.732834974
11
5.75810640241
21
63.7630652142
0
LINE
8
0
10
5.75810640241
20
63.7630652142
11
6.0579908821
21
63.760167592
0
LINE
8
0
10
6.0579908821
20
63.760167592
11
6.26626160792
21
63.7217241772
0
LINE
8
0
10
6.26626160792
20
63.7217241772
11
6.38088840178
21
63.6542655834
0
LINE
8
0
10
6.38088840178
20
63.6542655834
11
6.96249334325
21
60.9650064968
0
LINE
8
0
10
6.96249334325
20
60.9650064968
11
6.88598491189
21
60.8562111675
0
LINE
8
0
10
6.88598491189
20
60.8562111675
11
6.71221163421
21
60.7351432554
0
LINE
8
0
10
6.71221163421
20
60.7351432554
11
6.440323732
21
60.6085886585
0
LINE
8
0
10
6.440323732
20
60.6085886585
11
6.05724442311
21
60.4679584057
0
LINE
8
0
10
6.05724442311
20
60.4679584057
11
5.69214090765
21
60.3190194569
0
LINE
8
0
10
5.69214090765
20
60.3190194569
11
5.24880424211
21
60.1195321027
0
LINE
8
0
10
5.24880424211
20
60.1195321027
11
4.73046792574
21
59.8638030544
0
LINE
8
0
10
4.73046792574
20
59.8638030544
11
4.14066925141
21
59.5463085664
0
LINE
8
0
10
4.14066925141
20
59.5463085664
11
3.48324121456
21
59.1617087626
0
LINE
8
0
10
3.48324121456
20
59.1617087626
11
2.76230379054
21
58.7048615961
0
LINE
8
0
10
2.76230379054
20
58.7048615961
11
2.36141447333
21
58.4304109711
0
LINE
8
0
10
2.36141447333
20
58.4304109711
11
2.62631686032
21
57.2055397562
0
LINE
8
0
10
2.62631686032
20
57.2055397562
11
3.01991435327
21
56.0157650795
0
LINE
8
0
10
3.01991435327
20
56.0157650795
11
3.50463137689
21
55.9828288194
0
LINE
8
0
10
3.50463137689
20
55.9828288194
11
4.35768363939
21
55.9552255529
0
LINE
8
0
10
4.35768363939
20
55.9552255529
11
5.11934161498
21
55.9576257527
0
LINE
8
0
10
5.11934161498
20
55.9576257527
11
5.78866616339
21
55.9835076969
0
LINE
8
0
10
5.78866616339
20
55.9835076969
11
6.36506582431
21
56.0263249124
0
LINE
8
0
10
6.36506582431
20
56.0263249124
11
6.84829724525
21
56.0795226313
0
LINE
8
0
10
6.84829724525
20
56.0795226313
11
7.23846487977
21
56.1365542405
0
LINE
8
0
10
7.23846487977
20
56.1365542405
11
7.63990159167
21
56.2098699362
0
LINE
8
0
10
7.63990159167
20
56.2098699362
11
7.93839516424
21
56.2388644962
0
LINE
8
0
10
7.93839516424
20
56.2388644962
11
8.14957227934
21
56.2227766925
0
LINE
8
0
10
8.14957227934
20
56.2227766925
11
8.27072009858
21
56.1678843465
0
LINE
8
0
10
8.27072009858
20
56.1678843465
11
9.13488085398
21
53.5556812665
0
LINE
8
0
10
9.13488085398
20
53.5556812665
11
9.07037009295
21
53.4393699366
0
LINE
8
0
10
9.07037009295
20
53.4393699366
11
8.91045000598
21
53.300516931
0
LINE
8
0
10
8.91045000598
20
53.300516931
11
8.65355433229
21
53.1457793783
0
LINE
8
0
10
8.65355433229
20
53.1457793783
11
8.28759332398
21
52.965226989
0
LINE
8
0
10
8.28759332398
20
52.965226989
11
7.94038943289
21
52.7783236838
0
LINE
8
0
10
7.94038943289
20
52.7783236838
11
7.52076856436
21
52.5328426658
0
LINE
8
0
10
7.52076856436
20
52.5328426658
11
7.03255105871
21
52.2234665998
0
LINE
8
0
10
7.03255105871
20
52.2234665998
11
6.47984130749
21
51.8450790246
0
LINE
8
0
10
6.47984130749
20
51.8450790246
11
5.86701818556
21
51.3927777379
0
LINE
8
0
10
5.86701818556
20
51.3927777379
11
5.19872489382
21
50.8618877502
0
LINE
8
0
10
5.19872489382
20
50.8618877502
11
4.82927900825
21
50.5463800199
0
LINE
8
0
10
4.82927900825
20
50.5463800199
11
5.22287650119
21
49.3566053432
0
LINE
8
0
10
5.22287650119
20
49.3566053432
11
5.74070948323
21
48.2154078273
0
LINE
8
0
10
5.74070948323
20
48.2154078273
11
6.22618139795
21
48.2341804197
0
LINE
8
0
10
6.22618139795
20
48.2341804197
11
7.07733499637
21
48.2974074296
0
LINE
8
0
10
7.07733499637
20
48.2974074296
11
7.83442290175
21
48.3807533129
0
LINE
8
0
10
7.83442290175
20
48.3807533129
11
8.49720451081
21
48.4776334699
0
LINE
8
0
10
8.49720451081
20
48.4776334699
11
9.0657875614
21
48.5814756465
0
LINE
8
0
10
9.0657875614
20
48.5814756465
11
9.54062680883
21
48.6857363418
0
LINE
8
0
10
9.54062680883
20
48.6857363418
11
9.92252197722
21
48.7839171334
0
LINE
8
0
10
9.92252197722
20
48.7839171334
11
10.3138914891
21
48.8994875884
0
LINE
8
0
10
10.3138914891
20
48.8994875884
11
10.6076121031
21
48.9600458107
0
LINE
8
0
10
10.6076121031
20
48.9600458107
11
10.8193028864
21
48.9664958993
0
LINE
8
0
10
10.8193028864
20
48.9664958993
11
10.9455990778
21
48.9247917534
0
LINE
8
0
10
10.9455990778
20
48.9247917534
11
12.0825243605
21
46.4192419845
0
LINE
8
0
10
12.0825243605
20
46.4192419845
11
12.0307422025
21
46.2967325079
0
LINE
8
0
10
12.0307422025
20
46.2967325079
11
11.8864872647
21
46.1416676689
0
LINE
8
0
10
11.8864872647
20
46.1416676689
11
11.6474945502
21
45.9605003987
0
LINE
8
0
10
11.6474945502
20
45.9605003987
11
11.3027983269
21
45.7420716036
0
LINE
8
0
10
11.3027983269
20
45.7420716036
11
10.977428019
21
45.5193216312
0
LINE
8
0
10
10.977428019
20
45.5193216312
11
10.5862774196
21
45.2306283474
0
LINE
8
0
10
10.5862774196
20
45.2306283474
11
10.1337104241
21
44.8711106182
0
LINE
8
0
10
10.1337104241
20
44.8711106182
11
9.62435201831
21
44.4361172382
0
LINE
8
0
10
9.62435201831
20
44.4361172382
11
9.06307734212
21
43.921239223
0
LINE
8
0
10
9.06307734212
20
43.921239223
11
8.45500021269
21
43.3223216096
0
LINE
8
0
10
8.45500021269
20
43.3223216096
11
8.12118372827
21
42.9693316028
0
LINE
8
0
10
8.12118372827
20
42.9693316028
11
8.6390167103
21
41.8281340868
0
LINE
8
0
10
8.6390167103
20
41.8281340868
11
9.27521792682
21
40.7484439554
0
LINE
8
0
10
9.27521792682
20
40.7484439554
11
9.75594414186
21
40.8187126994
0
LINE
8
0
10
9.75594414186
20
40.8187126994
11
10.5955551658
21
40.9720535985
0
LINE
8
0
10
10.5955551658
20
40.9720535985
11
11.3394948925
21
41.1354008231
0
LINE
8
0
10
11.3394948925
20
41.1354008231
11
11.9882239818
21
41.3021815021
0
LINE
8
0
10
11.9882239818
20
41.3021815021
11
12.5425481489
21
41.4658720663
0
LINE
8
0
10
12.5425481489
20
41.4658720663
11
13.0036151044
21
41.6200144227
0
LINE
8
0
10
13.0036151044
20
41.6200144227
11
13.3729107818
21
41.7582319691
0
LINE
8
0
10
13.3729107818
20
41.7582319691
11
13.7497787207
21
41.9147477239
0
LINE
8
0
10
13.7497787207
20
41.9147477239
11
14.0353984042
21
42.0061834596
0
LINE
8
0
10
14.0353984042
20
42.0061834596
11
14.2452043145
21
42.0350983584
0
LINE
8
0
10
14.2452043145
20
42.0350983584
11
14.3752178918
21
42.0070549373
0
LINE
8
0
10
14.3752178918
20
42.0070549373
11
15.772025884
21
39.6365473597
0
LINE
8
0
10
15.772025884
20
39.6365473597
11
15.7335590415
21
39.5092278176
0
LINE
8
0
10
15.7335590415
20
39.5092278176
11
15.6066037191
21
39.3397080917
0
LINE
8
0
10
15.6066037191
20
39.3397080917
11
15.3882218466
21
39.1341638017
0
LINE
8
0
10
15.3882218466
20
39.1341638017
11
15.0686959543
21
38.8803334862
0
LINE
8
0
10
15.0686959543
20
38.8803334862
11
14.7688458052
21
38.6242606928
0
LINE
8
0
10
14.7688458052
20
38.6242606928
11
14.4105973675
21
38.2956261536
0
LINE
8
0
10
14.4105973675
20
38.2956261536
11
13.998808647
21
37.8900402407
0
LINE
8
0
10
13.998808647
20
37.8900402407
11
13.538572821
21
37.4033697047
0
LINE
8
0
10
13.538572821
20
37.4033697047
11
13.0352060569
21
36.8317487345
0
LINE
8
0
10
13.0352060569
20
36.8317487345
11
12.4942348467
21
36.1715894715
0
LINE
8
0
10
12.4942348467
20
36.1715894715
11
12.1998300375
21
35.7851167059
0
LINE
8
0
10
12.1998300375
20
35.7851167059
11
12.8360312541
21
34.7054265744
0
LINE
8
0
10
12.8360312541
20
34.7054265744
11
13.5833922911
21
33.6994771482
0
LINE
8
0
10
13.5833922911
20
33.6994771482
11
14.0539259863
21
33.8204458708
0
LINE
8
0
10
14.0539259863
20
33.8204458708
11
14.8724813074
21
34.0621632453
0
LINE
8
0
10
14.8724813074
20
34.0621632453
11
15.5948437211
21
34.3036610219
0
LINE
8
0
10
15.5948437211
20
34.3036610219
11
16.2221699307
21
34.5384525312
0
LINE
8
0
10
16.2221699307
20
34.5384525312
11
16.7559545
21
34.7601368036
0
LINE
8
0
10
16.7559545
20
34.7601368036
11
17.1980250908
21
34.9624143266
0
LINE
8
0
10
17.1980250908
20
34.9624143266
11
17.5505370096
21
35.1391025677
0
LINE
8
0
10
17.5505370096
20
35.1391025677
11
17.9086333112
21
35.3347902364
0
LINE
8
0
10
17.9086333112
20
35.3347902364
11
18.182915879
21
35.4560674821
0
LINE
8
0
10
18.182915879
20
35.4560674821
11
18.3884597316
21
35.5071195738
0
LINE
8
0
10
18.3884597316
20
35.5071195738
11
18.520717589
21
35.4930546205
0
LINE
8
0
10
18.520717589
20
35.4930546205
11
20.161581898
21
33.2844480322
0
LINE
8
0
10
20.161581898
20
33.2844480322
11
20.1368662158
21
33.153761006
0
LINE
8
0
10
20.1368662158
20
33.153761006
11
20.0286489631
21
32.9717071195
0
LINE
8
0
10
20.0286489631
20
32.9717071195
11
19.8333522867
21
32.7441147085
0
LINE
8
0
10
19.8333522867
20
32.7441147085
11
19.5426170814
21
32.4577588717
0
LINE
8
0
10
19.5426170814
20
32.4577588717
11
19.2716845131
21
32.1712646642
0
LINE
8
0
10
19.2716845131
20
32.1712646642
11
18.950397335
21
31.8064124301
0
LINE
8
0
10
18.950397335
20
31.8064124301
11
18.5840526204
21
31.359353784
0
LINE
8
0
10
18.5840526204
20
31.359353784
11
18.1781540299
21
30.8265202637
0
LINE
8
0
10
18.1781540299
20
30.8265202637
11
17.7383985244
21
30.2046330326
0
LINE
8
0
10
17.7383985244
20
30.2046330326
11
17.2706626533
21
29.4907119881
0
LINE
8
0
10
17.2706626533
20
29.4907119881
11
17.0190052436
21
29.0751353546
0
LINE
8
0
10
17.0190052436
20
29.0751353546
11
17.7663662806
21
28.0691859284
0
LINE
8
0
10
17.7663662806
20
28.0691859284
11
18.616419239
21
27.1483750163
0
LINE
8
0
10
18.616419239
20
27.1483750163
11
19.0714290796
21
27.3186730934
0
LINE
8
0
10
19.0714290796
20
27.3186730934
11
19.859654139
21
27.646028189
0
LINE
8
0
10
19.859654139
20
27.646028189
11
20.5522545848
21
27.9629402513
0
LINE
8
0
10
20.5522545848
20
27.9629402513
11
21.1510700582
21
28.2630823093
0
LINE
8
0
10
21.1510700582
20
28.2630823093
11
21.6582670373
21
28.5402485184
0
LINE
8
0
10
21.6582670373
20
28.5402485184
11
22.0763324268
21
28.7883693228
0
LINE
8
0
10
22.0763324268
20
28.7883693228
11
22.4080664862
21
29.0015263103
0
LINE
8
0
10
22.4080664862
20
29.0015263103
11
22.7433337763
21
29.2341686734
0
LINE
8
0
10
22.7433337763
20
29.2341686734
11
23.0031714974
21
29.3839133095
0
LINE
8
0
10
23.0031714974
20
29.3839133095
11
23.2021243982
21
29.4565241533
0
LINE
8
0
10
23.2021243982
20
29.4565241533
11
23.3351280013
21
29.4565970295
0
LINE
8
0
10
23.3351280013
20
29.4565970295
11
25.2014569789
21
27.4349158257
0
LINE
8
0
10
25.2014569789
20
27.4349158257
11
25.1907724955
21
27.3023420516
0
LINE
8
0
10
25.1907724955
20
27.3023420516
11
25.1025194574
21
27.1098167477
0
LINE
8
0
10
25.1025194574
20
27.1098167477
11
24.9325207663
21
26.8627549288
0
LINE
8
0
10
24.9325207663
20
26.8627549288
11
24.6738703941
21
26.5471180966
0
LINE
8
0
10
24.6738703941
20
26.5471180966
11
24.4349251808
21
26.233448569
0
LINE
8
0
10
24.4349251808
20
26.233448569
11
24.1542395745
21
25.8365125617
0
LINE
8
0
10
24.1542395745
20
25.8365125617
11
23.8374896976
21
25.3530465354
0
LINE
8
0
10
23.8374896976
20
25.3530465354
11
23.4905273359
21
24.7800872474
0
LINE
8
0
10
23.4905273359
20
24.7800872474
11
23.1193656947
21
24.1149799863
0
LINE
8
0
10
23.1193656947
20
24.1149799863
11
22.7301647971
21
23.355386171
0
LINE
8
0
10
22.7301647971
20
23.355386171
11
22.5241061658
21
22.9154143189
0
LINE
8
0
10
22.5241061658
20
22.9154143189
11
23.3741591241
21
21.9946034068
0
LINE
8
0
10
23.3741591241
20
21.9946034068
11
24.3172725641
21
21.1693641644
0
LINE
8
0
10
24.3172725641
20
21.1693641644
11
24.7516031069
21
21.3870620509
0
LINE
8
0
10
24.7516031069
20
21.3870620509
11
25.5005669997
21
21.7963458035
0
LINE
8
0
10
25.5005669997
20
21.7963458035
11
26.1555580378
21
22.1850814112
0
LINE
8
0
10
26.1555580378
20
22.1850814112
11
26.7190779564
21
22.5471732884
0
LINE
8
0
10
26.7190779564
20
22.5471732884
11
27.1939406008
21
22.8766810303
0
LINE
8
0
10
27.1939406008
20
22.8766810303
11
27.5832639412
21
23.1678338083
0
LINE
8
0
10
27.5832639412
20
23.1678338083
11
27.8904614616
21
23.4150443884
0
LINE
8
0
10
27.8904614616
20
23.4150443884
11
28.1991010279
21
23.6820055149
0
LINE
8
0
10
28.1991010279
20
23.6820055149
11
28.4415498371
21
23.8585208748
0
LINE
8
0
10
28.4415498371
20
23.8585208748
11
28.6316575702
21
23.951867761
0
LINE
8
0
10
28.6316575702
20
23.951867761
11
28.7638999351
21
23.9660776409
0
LINE
8
0
10
28.7638999351
20
23.9660776409
11
30.8345473282
21
22.1542282774
0
LINE
8
0
10
30.8345473282
20
22.1542282774
11
30.8380151031
21
22.0212698692
0
LINE
8
0
10
30.8380151031
20
22.0212698692
11
30.7707262217
21
21.8204545366
0
LINE
8
0
10
30.7707262217
20
21.8204545366
11
30.627951669
21
21.5567226188
0
LINE
8
0
10
30.627951669
20
21.5567226188
11
30.4043167419
21
21.2153810827
0
LINE
8
0
10
30.4043167419
20
21.2153810827
11
30.2000662285
21
20.878090236
0
LINE
8
0
10
30.2000662285
20
20.878090236
11
29.963162474
21
20.453567899
0
LINE
8
0
10
29.963162474
20
20.453567899
11
29.6995963376
21
19.9391723559
0
LINE
8
0
10
29.6995963376
20
19.9391723559
11
29.4155014268
21
19.332579158
0
LINE
8
0
10
29.4155014268
20
19.332579158
11
29.1171390596
21
18.6317877977
0
LINE
8
0
10
29.1171390596
20
18.6317877977
11
28.8108829371
21
17.8351277132
0
LINE
8
0
10
28.8108829371
20
17.8351277132
11
28.6527578109
21
17.3757456993
0
LINE
8
0
10
28.6527578109
20
17.3757456993
11
29.5958712508
21
16.5505064569
0
LINE
8
0
10
29.5958712508
20
16.5505064569
11
30.6213593203
21
15.8301891746
0
LINE
8
0
10
30.6213593203
20
15.8301891746
11
31.0300894266
21
16.0928202664
0
LINE
8
0
10
31.0300894266
20
16.0928202664
11
31.7313060927
21
16.5793953276
0
LINE
8
0
10
31.7313060927
20
16.5793953276
11
32.341266413
21
17.0355499509
0
LINE
8
0
10
32.341266413
20
17.0355499509
11
32.8631058709
21
17.4554890016
0
LINE
8
0
10
32.8631058709
20
17.4554890016
11
33.3002537971
21
17.8336048221
0
LINE
8
0
10
33.3002537971
20
17.8336048221
11
33.6564238994
21
18.1644906963
0
LINE
8
0
10
33.6564238994
20
18.1644906963
11
33.9356042102
21
18.4429538743
0
LINE
8
0
10
33.9356042102
20
18.4429538743
11
34.214119043
21
18.7412089879
0
LINE
8
0
10
34.214119043
20
18.7412089879
11
34.4364318984
21
18.9424950821
0
LINE
8
0
10
34.4364318984
20
18.9424950821
11
34.6155404673
21
19.0555203532
0
LINE
8
0
10
34.6155404673
20
19.0555203532
11
34.7455232351
21
19.0837062331
0
LINE
8
0
10
34.7455232351
20
19.0837062331
11
36.9970277813
21
17.5022176872
0
LINE
8
0
10
36.9970277813
20
17.5022176872
11
37.0146085233
21
17.3703811169
0
LINE
8
0
10
37.0146085233
20
17.3703811169
11
36.9690462085
21
17.1635510736
0
LINE
8
0
10
36.9690462085
20
17.1635510736
11
36.855113487
21
16.8861372448
0
LINE
8
0
10
36.855113487
20
16.8861372448
11
36.6690278781
21
16.5229585408
0
LINE
8
0
10
36.6690278781
20
16.5229585408
11
36.5017863044
21
16.1658680152
0
LINE
8
0
10
36.5017863044
20
16.1658680152
11
36.311348616
21
15.7185693562
0
LINE
8
0
10
36.311348616
20
15.7185693562
11
36.1039525296
21
15.1790726033
0
LINE
8
0
10
36.1039525296
20
15.1790726033
11
35.8859439787
21
14.5457184387
0
LINE
8
0
10
35.8859439787
20
14.5457184387
11
35.6637614503
21
13.8171832255
0
LINE
8
0
10
35.6637614503
20
13.8171832255
11
35.4439201071
21
12.9924833488
0
LINE
8
0
10
35.4439201071
20
12.9924833488
11
35.3355201069
21
12.5188961549
0
LINE
8
0
10
35.3355201069
20
12.5188961549
11
36.3610081763
21
11.7985788726
0
LINE
8
0
10
36.3610081763
20
11.7985788726
11
37.4572516857
21
11.191345033
0
LINE
8
0
10
37.4572516857
20
11.191345033
11
37.8357502802
21
11.4959336149
0
LINE
8
0
10
37.8357502802
20
11.4959336149
11
38.4812746544
21
12.0542868948
0
LINE
8
0
10
38.4812746544
20
12.0542868948
11
39.0392931627
21
12.5726921196
0
LINE
8
0
10
39.0392931627
20
12.5726921196
11
39.5135395104
21
13.0457202666
0
LINE
8
0
10
39.5135395104
20
13.0457202666
11
39.9080196577
21
13.4681599622
0
LINE
8
0
10
39.9080196577
20
13.4681599622
11
40.2270009723
21
13.8350298635
0
LINE
8
0
10
40.2270009723
20
13.8350298635
11
40.4750008491
21
14.1415905403
0
LINE
8
0
10
40.4750008491
20
14.1415905403
11
40.720235264
21
14.4677602915
0
LINE
8
0
10
40.720235264
20
14.4677602915
11
40.9198932721
21
14.691536468
0
LINE
8
0
10
40.9198932721
20
14.691536468
11
41.0859733052
21
14.8229595025
0
LINE
8
0
10
41.0859733052
20
14.8229595025
11
41.2122237192
21
14.8648020253
0
LINE
8
0
10
41.2122237192
20
14.8648020253
11
43.6190749724
21
13.5315931941
0
LINE
8
0
10
43.6190749724
20
13.5315931941
11
43.6505694845
21
13.4023722227
0
LINE
8
0
10
43.6505694845
20
13.4023722227
11
43.6272499756
21
13.1918709356
0
LINE
8
0
10
43.6272499756
20
13.1918709356
11
43.5434499886
21
12.9039184055
0
LINE
8
0
10
43.5434499886
20
12.9039184055
11
43.3970221222
21
12.5230174934
0
LINE
8
0
10
43.3970221222
20
12.5230174934
11
43.2686844021
21
12.1501732671
0
LINE
8
0
10
43.2686844021
20
12.1501732671
11
43.1268705148
21
11.6851663587
0
LINE
8
0
10
43.1268705148
20
11.6851663587
11
42.9779943591
21
11.1266811098
0
LINE
8
0
10
42.9779943591
20
11.1266811098
11
42.8285422919
21
10.4737421343
0
LINE
8
0
10
42.8285422919
20
10.4737421343
11
42.6850570192
21
9.72571766323
0
LINE
8
0
10
42.6850570192
20
9.72571766323
11
42.5541213457
21
8.88232217339
0
LINE
8
0
10
42.5541213457
20
8.88232217339
11
42.4966746867
21
8.39989573177
0
LINE
8
0
10
42.4966746867
20
8.39989573177
11
43.592918196
21
7.79266189217
0
LINE
8
0
10
43.592918196
20
7.79266189217
11
44.7474962683
21
7.30539169732
0
LINE
8
0
10
44.7474962683
20
7.30539169732
11
45.0914748105
21
7.64848665894
0
LINE
8
0
10
45.0914748105
20
7.64848665894
11
45.6739928439
21
8.27229179176
0
LINE
8
0
10
45.6739928439
20
8.27229179176
11
46.1737469675
21
8.84707387969
0
LINE
8
0
10
46.1737469675
20
8.84707387969
11
46.5950268043
21
9.36783152509
0
LINE
8
0
10
46.5950268043
20
9.36783152509
11
46.9423695551
21
9.82980868531
0
LINE
8
0
10
46.9423695551
20
9.82980868531
11
47.2205478962
21
10.228505831
0
LINE
8
0
10
47.2205478962
20
10.228505831
11
47.4345574012
21
10.5596905517
0
LINE
8
0
10
47.4345574012
20
10.5596905517
11
47.6437327945
21
10.9100793069
0
LINE
8
0
10
47.6437327945
20
10.9100793069
11
47.8184737503
21
11.1538100923
0
LINE
8
0
10
47.8184737503
20
11.1538100923
11
47.9696434943
21
11.3021418146
0
LINE
8
0
10
47.9696434943
20
11.3021418146
11
48.090731087
21
11.3571668877
0
LINE
8
0
10
48.090731087
20
11.3571668877
11
50.6256584607
21
10.2873435601
0
LINE
8
0
10
50.6256584607
20
10.2873435601
11
50.6707098976
21
10.1622023127
0
LINE
8
0
10
50.6707098976
20
10.1622023127
11
50.6698974138
21
9.95041484559
0
LINE
8
0
10
50.6698974138
20
9.95041484559
11
50.6171796486
21
9.65518623145
0
LINE
8
0
10
50.6171796486
20
9.65518623145
11
50.512068611
21
9.2608788708
0
LINE
8
0
10
50.512068611
20
9.2608788708
11
50.4240888621
21
8.87650541795
0
LINE
8
0
10
50.4240888621
20
8.87650541795
11
50.332505584
21
8.39905897419
0
LINE
8
0
10
50.332505584
20
8.39905897419
11
50.2438361852
21
7.82791309023
0
LINE
8
0
10
50.2438361852
20
7.82791309023
11
50.1646339535
21
7.1627873633
0
LINE
8
0
10
50.1646339535
20
7.1627873633
11
50.1014716819
21
6.40374905057
0
LINE
8
0
10
50.1014716819
20
6.40374905057
11
50.0609252315
21
5.55121395554
0
LINE
8
0
10
50.0609252315
20
5.55121395554
11
50.0550828074
21
5.06541435047
0
LINE
8
0
10
50.0550828074
20
5.06541435047
11
51.2096608796
21
4.57814415563
0
LINE
8
0
10
51.2096608796
20
4.57814415563
11
52.4094916839
21
4.21635857154
0
LINE
8
0
10
52.4094916839
20
4.21635857154
11
52.7150527596
21
4.59407250989
0
LINE
8
0
10
52.7150527596
20
4.59407250989
11
53.22796429
21
5.27626153422
0
LINE
8
0
10
53.22796429
20
5.27626153422
11
53.6637916151
21
5.90090797456
0
LINE
8
0
10
53.6637916151
20
5.90090797456
11
54.0273316721
21
6.46349472615
0
LINE
8
0
10
54.0273316721
20
6.46349472615
11
54.3236014941
21
6.95977496514
0
LINE
8
0
10
54.3236014941
20
6.95977496514
11
54.55782499
21
7.38578195741
0
LINE
8
0
10
54.55782499
20
7.38578195741
11
54.7354193101
21
7.73783826674
0
LINE
8
0
10
54.7354193101
20
7.73783826674
11
54.9061656408
21
8.10847598129
0
LINE
8
0
10
54.9061656408
20
8.10847598129
11
55.0540096595
21
8.36939980835
0
LINE
8
0
10
55.0540096595
20
8.36939980835
11
55.188556301
21
8.53295956083
0
LINE
8
0
10
55.188556301
20
8.53295956083
11
55.3031091014
21
8.60054372822
0
LINE
8
0
10
55.3031091014
20
8.60054372822
11
57.9373908556
21
7.80622742987
0
LINE
8
0
10
57.9373908556
20
7.80622742987
11
57.9954887664
21
7.68658380694
0
LINE
8
0
10
57.9954887664
20
7.68658380694
11
58.0171925137
21
7.47590979639
0
LINE
8
0
10
58.0171925137
20
7.47590979639
11
57.9961542836
21
7.17675015631
0
LINE
8
0
10
57.9961542836
20
7.17675015631
11
57.9335510248
21
6.77350400706
0
LINE
8
0
10
57.9335510248
20
6.77350400706
11
57.8869260929
21
6.38195643245
0
LINE
8
0
10
57.8869260929
20
6.38195643245
11
57.846611099
21
5.89748011232
0
LINE
8
0
10
57.846611099
20
5.89748011232
11
57.819153117
21
5.32014490443
0
LINE
8
0
10
57.819153117
20
5.32014490443
11
57.8110981136
21
4.65036856635
0
LINE
8
0
10
57.8110981136
20
4.65036856635
11
57.8289744969
21
3.8889166193
0
LINE
8
0
10
57.8289744969
20
3.8889166193
11
57.8792766771
21
3.03690148238
0
LINE
8
0
10
57.8792766771
20
3.03690148238
11
57.9251046848
21
2.5532330175
0
LINE
8
0
10
57.9251046848
20
2.5532330175
11
59.1249354891
21
2.19144743341
0
LINE
8
0
10
59.1249354891
20
2.19144743341
11
60.356424463
21
1.95924563531
0
LINE
8
0
10
60.356424463
20
1.95924563531
11
60.620105943
21
2.36729890056
0
LINE
8
0
10
60.620105943
20
2.36729890056
11
61.0575994778
21
3.10014234216
0
LINE
8
0
10
61.0575994778
20
3.10014234216
11
61.4245619066
21
3.76757564114
0
LINE
8
0
10
61.4245619066
20
3.76757564114
11
61.7262431298
21
4.36561716622
0
LINE
8
0
10
61.7262431298
20
4.36561716622
11
61.9680831676
21
4.89057743058
0
LINE
8
0
10
61.9680831676
20
4.89057743058
11
62.1556979725
21
5.33906743992
0
LINE
8
0
10
62.1556979725
20
5.33906743992
11
62.294864893
21
5.70800639924
0
LINE
8
0
10
62.294864893
20
5.70800639924
11
62.4252475371
21
6.09469359973
0
LINE
8
0
10
62.4252475371
20
6.09469359973
11
62.5445194867
21
6.36985409726
0
LINE
8
0
10
62.5445194867
20
6.36985409726
11
62.6609185584
21
6.54678868257
0
LINE
8
0
10
62.6609185584
20
6.54678868257
11
62.7676386376
21
6.62616618859
0
LINE
8
0
10
62.7676386376
20
6.62616618859
11
65.4714273074
21
6.1163568406
0
LINE
8
0
10
65.4714273074
20
6.1163568406
11
65.5419134197
21
6.00356645215
0
LINE
8
0
10
65.5419134197
20
6.00356645215
11
65.5858874859
21
5.79639291891
0
LINE
8
0
10
65.5858874859
20
5.79639291891
11
65.5967671625
21
5.49669185116
0
LINE
8
0
10
65.5967671625
20
5.49669185116
11
65.5773810024
21
5.08907585332
0
LINE
8
0
10
65.5773810024
20
5.08907585332
11
65.5726391665
21
4.69479054741
0
LINE
8
0
10
65.5726391665
20
4.69479054741
11
65.5840492419
21
4.20877366121
0
LINE
8
0
10
65.5840492419
20
4.20877366121
11
65.6181137864
21
3.63179056799
0
LINE
8
0
10
65.6181137864
20
3.63179056799
11
65.6812972779
21
2.9649524523
0
LINE
8
0
10
65.6812972779
20
2.9649524523
11
65.7800097695
21
2.20971442575
0
LINE
8
0
10
65.7800097695
20
2.20971442575
11
65.9205906366
21
1.36787291887
0
LINE
8
0
10
65.9205906366
20
1.36787291887
11
66.0175698265
21
0.89181575116
0
LINE
8
0
10
66.0175698265
20
0.89181575116
11
67.2490588003
21
0.659613953062
0
LINE
8
0
10
67.2490588003
20
0.659613953062
11
68.4982526816
21
0.559626880109
0
LINE
8
0
10
68.4982526816
20
0.559626880109
11
68.7170669495
21
0.993396065697
0
LINE
8
0
10
68.7170669495
20
0.993396065697
11
69.0741855122
21
1.76859051555
0
LINE
8
0
10
69.0741855122
20
1.76859051555
11
69.3681252137
21
2.4712483872
0
LINE
8
0
10
69.3681252137
20
2.4712483872
11
69.6045294342
21
3.09796863633
0
LINE
8
0
10
69.6045294342
20
3.09796863633
11
69.7891995436
21
3.64566091649
0
LINE
8
0
10
69.7891995436
20
3.64566091649
11
69.9280799067
21
4.1115523719
0
LINE
8
0
10
69.9280799067
20
4.1115523719
11
70.0272426109
21
4.49319375538
0
LINE
8
0
10
70.0272426109
20
4.49319375538
11
70.1157842808
21
4.89154912132
0
LINE
8
0
10
70.1157842808
20
4.89154912132
11
70.2051327626
21
5.17782861093
0
LINE
8
0
10
70.2051327626
20
5.17782861093
11
70.3020654165
21
5.36613328952
0
LINE
8
0
10
70.3020654165
20
5.36613328952
11
70.3997435933
21
5.45640475531
0
LINE
8
0
10
70.3997435933
20
5.45640475531
11
73.1424041728
21
5.2368787013
0
LINE
8
0
10
73.1424041728
20
5.2368787013
11
73.2244798507
21
5.13221950751
0
LINE
8
0
10
73.2244798507
20
5.13221950751
11
73.2902259919
21
4.93089381049
0
LINE
8
0
10
73.2902259919
20
4.93089381049
11
73.3329003041
21
4.63404704791
0
LINE
8
0
10
73.3329003041
20
4.63404704791
11
73.3569508958
21
4.22667965361
0
LINE
8
0
10
73.3569508958
20
4.22667965361
11
73.3941458828
21
3.83412402647
0
LINE
8
0
10
73.3941458828
20
3.83412402647
11
73.4571517468
21
3.35207333971
0
LINE
8
0
10
73.4571517468
20
3.35207333971
11
73.552352853
21
2.78197981017
0
LINE
8
0
10
73.552352853
20
2.78197981017
11
73.686058945
21
2.12563545917
0
LINE
8
0
10
73.686058945
20
2.12563545917
11
73.864489093
21
1.38516850174
0
LINE
8
0
10
73.864489093
20
1.38516850174
11
74.0937558095
21
0.56303902557
0
LINE
8
0
10
74.0937558095
20
0.56303902557
11
74.2407873686
21
0.0999870729532
0
LINE
8
0
10
74.2407873686
20
0.0999870729532
11
75.4899812499
21
0.0
0
LINE
8
0
10
75.4899812499
20
0.0
11
76.7427261728
21
0.0333605456814
0
LINE
8
0
10
76.7427261728
20
0.0333605456814
11
76.9141939754
21
0.487930873416
0
LINE
8
0
10
76.9141939754
20
0.487930873416
11
77.18689127
21
1.29669306865
0
LINE
8
0
10
77.18689127
20
1.29669306865
11
77.40447779
21
2.02661411852
0
LINE
8
0
10
77.40447779
20
2.02661411852
11
77.5729264535
21
2.67491210084
0
LINE
8
0
10
77.5729264535
20
2.67491210084
11
77.6983342483
21
3.23913082444
0
LINE
8
0
10
77.6983342483
20
3.23913082444
11
77.7869065997
21
3.71714498956
0
LINE
8
0
10
77.7869065997
20
3.71714498956
11
77.8449415344
21
4.10716464782
0
LINE
8
0
10
77.8449415344
20
4.10716464782
11
77.8906390177
21
4.51267465375
0
LINE
8
0
10
77.8906390177
20
4.51267465375
11
77.9490516777
21
4.80682947442
0
LINE
8
0
10
77.9490516777
20
4.80682947442
11
78.0254196281
21
5.00437067904
0
LINE
8
0
10
78.0254196281
20
5.00437067904
11
78.1129491698
21
5.10451329283
0
LINE
8
0
10
78.1129491698
20
5.10451329283
11
80.8634062185
21
5.17775785071
0
LINE
8
0
10
80.8634062185
20
5.17775785071
11
80.9561415119
21
5.08241568206
0
LINE
8
0
10
80.9561415119
20
5.08241568206
11
81.0429147982
21
4.88921892185
0
LINE
8
0
10
81.0429147982
20
4.88921892185
11
81.116900229
21
4.59858985688
0
LINE
8
0
10
81.116900229
20
4.59858985688
11
81.1841150695
21
4.19608670147
0
LINE
8
0
10
81.1841150695
20
4.19608670147
11
81.2628254454
21
3.80970856521
0
LINE
8
0
10
81.2628254454
20
3.80970856521
11
81.3767132164
21
3.33708590481
0
LINE
8
0
10
81.3767132164
20
3.33708590481
11
81.5319722177
21
2.78034132643
0
LINE
8
0
10
81.5319722177
20
2.78034132643
11
81.7346859668
21
2.14192738387
0
LINE
8
0
10
81.7346859668
20
2.14192738387
11
81.9908120862
21
1.42462128206
0
LINE
8
0
10
81.9908120862
20
1.42462128206
11
82.3061669687
21
0.631518892072
0
LINE
8
0
10
82.3061669687
20
0.631518892072
11
82.5015849707
21
0.1867187182
0
LINE
8
0
10
82.5015849707
20
0.1867187182
11
83.7543298936
21
0.220079263882
0
LINE
8
0
10
83.7543298936
20
0.220079263882
11
84.9964317575
21
0.386409439885
0
LINE
8
0
10
84.9964317575
20
0.386409439885
11
85.1186102962
21
0.856630446316
0
LINE
8
0
10
85.1186102962
20
0.856630446316
11
85.3037965533
21
1.6897967881
0
LINE
8
0
10
85.3037965533
20
1.6897967881
11
85.4425645496
21
2.43871071903
0
LINE
8
0
10
85.4425645496
20
2.43871071903
11
85.5411490655
21
3.10124095936
0
LINE
8
0
10
85.5411490655
20
3.10124095936
11
85.6058736253
21
3.6755933028
0
LINE
8
0
10
85.6058736253
20
3.6755933028
11
85.6431344048
21
4.16031408613
0
LINE
8
0
10
85.6431344048
20
4.16031408613
11
85.6593840111
21
4.55429294061
0
LINE
8
0
10
85.6593840111
20
4.55429294061
11
85.661719537
21
4.96236299612
0
LINE
8
0
10
85.661719537
20
4.96236299612
11
85.6885345364
21
5.2610602562
0
LINE
8
0
10
85.6885345364
20
5.2610602562
11
85.7434725039
21
5.46559976607
0
LINE
8
0
10
85.7434725039
20
5.46559976607
11
85.8198616657
21
5.57447887202
0
LINE
8
0
10
85.8198616657
20
5.57447887202
11
88.5469514065
21
5.93966415169
0
LINE
8
0
10
88.5469514065
20
5.93966415169
11
88.6492955873
21
5.85471927304
0
LINE
8
0
10
88.6492955873
20
5.85471927304
11
88.7561128426
21
5.67184044614
0
LINE
8
0
10
88.7561128426
20
5.67184044614
11
88.8605711075
21
5.39072202222
0
LINE
8
0
10
88.8605711075
20
5.39072202222
11
88.9701886259
21
4.99764362728
0
LINE
8
0
10
88.9701886259
20
4.99764362728
11
89.0895225707
21
4.62182080057
0
LINE
8
0
10
89.0895225707
20
4.62182080057
11
89.2530018546
21
4.16398117011
0
LINE
8
0
10
89.2530018546
20
4.16398117011
11
89.4665596046
21
3.62689368143
0
LINE
8
0
10
89.4665596046
20
3.62689368143
11
89.735984183
21
3.01364363239
0
LINE
8
0
10
89.735984183
20
3.01364363239
11
90.0669042627
21
2.32762575095
0
LINE
8
0
10
90.0669042627
20
2.32762575095
11
90.4647742142
21
1.57253661413
0
LINE
8
0
10
90.4647742142
20
1.57253661413
11
90.7063644951
21
1.15102798271
0
LINE
8
0
10
90.7063644951
20
1.15102798271
11
91.948466359
21
1.31735815871
0
LINE
8
0
10
91.948466359
20
1.31735815871
11
93.1658516535
21
1.61477337768
0
LINE
8
0
10
93.1658516535
20
1.61477337768
11
93.2373565966
21
2.09531727091
0
LINE
8
0
10
93.2373565966
20
2.09531727091
11
93.332933582
21
2.94344765167
0
LINE
8
0
10
93.332933582
20
2.94344765167
11
93.3913107576
21
3.70286896958
0
LINE
8
0
10
93.3913107576
20
3.70286896958
11
93.418914124
21
4.37212473556
0
LINE
8
0
10
93.418914124
20
4.37212473556
11
93.4222220937
21
4.95010305729
0
LINE
8
0
10
93.4222220937
20
4.95010305729
11
93.4077491218
21
5.43603837868
0
LINE
8
0
10
93.4077491218
20
5.43603837868
11
93.3820292851
21
5.82951249152
0
LINE
8
0
10
93.3820292851
20
5.82951249152
11
93.3409763912
21
6.23551899983
0
LINE
8
0
10
93.3409763912
20
6.23551899983
11
93.3358899054
21
6.53537434001
0
LINE
8
0
10
93.3358899054
20
6.53537434001
11
93.3687754208
21
6.74459464075
0
LINE
8
0
10
93.3687754208
20
6.74459464075
11
93.4331586831
21
6.86097659509
0
LINE
8
0
10
93.4331586831
20
6.86097659509
11
96.1059820993
21
7.5139649014
0
LINE
8
0
10
96.1059820993
20
7.5139649014
11
96.2167755671
21
7.44037977218
0
LINE
8
0
10
96.2167755671
20
7.44037977218
11
96.3424265094
21
7.26989096877
0
LINE
8
0
10
96.3424265094
20
7.26989096877
11
96.4761740545
21
7.00146836996
0
LINE
8
0
10
96.4761740545
20
7.00146836996
11
96.6269522404
21
6.62226847078
0
LINE
8
0
10
96.6269522404
20
6.62226847078
11
96.7855576529
21
6.26125917642
0
LINE
8
0
10
96.7855576529
20
6.26125917642
11
96.9967761642
21
5.82339008186
0
LINE
8
0
10
96.9967761642
20
5.82339008186
11
97.266212968
21
5.31204509873
0
LINE
8
0
10
97.266212968
20
5.31204509873
11
97.5992956877
21
4.7309073113
0
LINE
8
0
10
97.5992956877
20
4.7309073113
11
98.0012602708
21
4.08395050696
0
LINE
8
0
10
98.0012602708
20
4.08395050696
11
98.4771372659
21
3.37543008494
0
LINE
8
0
10
98.4771372659
20
3.37543008494
11
98.7621625113
21
2.98198885718
0
LINE
8
0
10
98.7621625113
20
2.98198885718
11
99.9795478058
21
3.27940407615
0
LINE
8
0
10
99.9795478058
20
3.27940407615
11
101.158423069
21
3.70453450481
0
LINE
8
0
10
101.158423069
20
3.70453450481
11
101.178444237
21
4.18995653052
0
LINE
8
0
10
101.178444237
20
4.18995653052
11
101.183329025
21
5.04344129415
0
LINE
8
0
10
101.183329025
20
5.04344129415
11
101.160653943
21
5.80476545205
0
LINE
8
0
10
101.160653943
20
5.80476545205
11
101.116963403
21
6.47316380844
0
LINE
8
0
10
101.116963403
20
6.47316380844
11
101.058817302
21
7.04821938312
0
LINE
8
0
10
101.058817302
20
7.04821938312
11
100.992774563
21
7.52986340121
0
LINE
8
0
10
100.992774563
20
7.52986340121
11
100.9253767
21
7.91837455349
0
LINE
8
0
10
100.9253767
20
7.91837455349
11
100.841400532
21
8.31771729862
0
LINE
8
0
10
100.841400532
20
8.31771729862
11
100.804470192
21
8.61533323809
0
LINE
8
0
10
100.804470192
20
8.61533323809
11
100.81493065
21
8.82686378009
0
LINE
8
0
10
100.81493065
20
8.82686378009
11
100.866578525
21
8.94942992877
0
LINE
8
0
10
100.866578525
20
8.94942992877
11
103.454851459
21
9.8828226433
0
LINE
8
0
10
103.454851459
20
9.8828226433
11
103.57283888
21
9.82143101241
0
LINE
8
0
10
103.57283888
20
9.82143101241
11
103.715899833
21
9.66526393876
0
LINE
8
0
10
103.715899833
20
9.66526393876
11
103.877421245
21
9.41257850037
0
LINE
8
0
10
103.877421245
20
9.41257850037
11
104.067651722
21
9.05155358332
0
LINE
8
0
10
104.067651722
20
9.05155358332
11
104.263731539
21
8.70944820088
0
LINE
8
0
10
104.263731539
20
8.70944820088
11
104.520296088
21
8.29651087401
0
LINE
8
0
10
104.520296088
20
8.29651087401
11
104.842559119
21
7.81670213942
0
LINE
8
0
10
104.842559119
20
7.81670213942
11
105.23552602
21
7.27426113694
0
LINE
8
0
10
105.23552602
20
7.27426113694
11
105.703980687
21
6.6736956888
0
LINE
8
0
10
105.703980687
20
6.6736956888
11
106.252472849
21
6.01977180107
0
LINE
8
0
10
106.252472849
20
6.01977180107
11
106.577703609
21
5.65885582331
0
LINE
8
0
10
106.577703609
20
5.65885582331
11
107.756578872
21
6.08398625197
0
LINE
8
0
10
107.756578872
20
6.08398625197
11
108.883586976
21
6.6320149927
0
LINE
8
0
10
108.883586976
20
6.6320149927
11
108.851897521
21
7.11681512537
0
LINE
8
0
10
108.851897521
20
7.11681512537
11
108.766034766
21
7.96598394845
0
LINE
8
0
10
108.766034766
20
7.96598394845
11
108.662564344
21
8.72058483943
0
LINE
8
0
10
108.662564344
20
8.72058483943
11
108.548074929
21
9.38055256576
0
LINE
8
0
10
108.548074929
20
9.38055256576
11
108.429133575
21
9.94616978396
0
LINE
8
0
10
108.429133575
20
9.94616978396
11
108.31226936
21
10.4180652796
0
LINE
8
0
10
108.31226936
20
10.4180652796
11
108.203957114
21
10.7972114847
0
LINE
8
0
10
108.203957114
20
10.7972114847
11
108.078009156
21
11.1853657538
0
LINE
8
0
10
108.078009156
20
11.1853657538
11
108.009653399
21
11.477370185
0
LINE
8
0
10
108.009653399
20
11.477370185
11
107.997570277
21
11.6888142427
0
LINE
8
0
10
107.997570277
20
11.6888142427
11
108.035897573
21
11.8161758623
0
LINE
8
0
10
108.035897573
20
11.8161758623
11
110.510293859
21
13.0193972726
0
LINE
8
0
10
110.510293859
20
13.0193972726
11
110.634138388
21
12.9708947318
0
LINE
8
0
10
110.634138388
20
12.9708947318
11
110.792988415
21
12.8308188232
0
LINE
8
0
10
110.792988415
20
12.8308188232
11
110.980453592
21
12.5967335722
0
LINE
8
0
10
110.980453592
20
12.5967335722
11
111.207980972
21
12.2579741939
0
LINE
8
0
10
111.207980972
20
12.2579741939
11
111.439313531
21
11.938648914
0
LINE
8
0
10
111.439313531
20
11.938648914
11
111.738317138
21
11.5553220998
0
LINE
8
0
10
111.738317138
20
11.5553220998
11
112.109755028
21
11.1124860384
0
LINE
8
0
10
112.109755028
20
11.1124860384
11
112.558153637
21
10.6148878942
0
LINE
8
0
10
112.558153637
20
10.6148878942
11
113.08779061
21
10.0675184488
0
LINE
8
0
10
113.08779061
20
10.0675184488
11
113.702683304
21
9.47560031427
0
LINE
8
0
10
113.702683304
20
9.47560031427
11
114.064434584
21
9.15129890874
0
LINE
8
0
10
114.064434584
20
9.15129890874
11
115.191442688
21
9.69932764947
0
LINE
8
0
10
115.191442688
20
9.69932764947
11
116.253814182
21
10.3640453176
0
LINE
8
0
10
116.253814182
20
10.3640453176
11
116.170773157
21
10.8427305781
0
LINE
8
0
10
116.170773157
20
10.8427305781
11
115.995135717
21
11.6779620385
0
LINE
8
0
10
115.995135717
20
11.6779620385
11
115.812042318
21
12.417289733
0
LINE
8
0
10
115.812042318
20
12.417289733
11
115.628051237
21
13.0613491312
0
LINE
8
0
10
115.628051237
20
13.0613491312
11
115.449662285
21
13.6111193238
0
LINE
8
0
10
115.449662285
20
13.6111193238
11
115.283300712
21
14.0679195324
0
LINE
8
0
10
115.283300712
20
14.0679195324
11
115.135301305
21
14.4334049124
0
LINE
8
0
10
115.135301305
20
14.4334049124
11
114.968808597
21
14.8059727624
0
LINE
8
0
10
114.968808597
20
14.8059727624
11
114.86980192
21
15.0890571586
0
LINE
8
0
10
114.86980192
20
15.0890571586
11
114.835312125
21
15.2980189863
0
LINE
8
0
10
114.835312125
20
15.2980189863
11
114.859884579
21
15.4287330187
0
LINE
8
0
10
114.859884579
20
15.4287330187
11
117.192368318
21
16.8881501455
0
LINE
8
0
10
117.192368318
20
16.8881501455
11
117.320666747
21
16.8530862479
0
LINE
8
0
10
117.320666747
20
16.8530862479
11
117.493506014
21
16.7306886204
0
LINE
8
0
10
117.493506014
20
16.7306886204
11
117.7047909
21
16.5178558363
0
LINE
8
0
10
117.7047909
20
16.5178558363
11
117.967037207
21
16.2052002758
0
LINE
8
0
10
117.967037207
20
16.2052002758
11
118.231001419
21
15.9122731815
0
LINE
8
0
10
118.231001419
20
15.9122731815
11
118.569056254
21
15.5629001258
0
LINE
8
0
10
118.569056254
20
15.5629001258
11
118.985460462
21
15.1620542472
0
LINE
8
0
10
118.985460462
20
15.1620542472
11
119.484210245
21
14.7149369471
0
LINE
8
0
10
119.484210245
20
14.7149369471
11
120.069028525
21
14.2269654189
0
LINE
8
0
10
120.069028525
20
14.2269654189
11
120.74335477
21
13.7037597066
0
LINE
8
0
10
120.74335477
20
13.7037597066
11
121.137527784
21
13.4197473378
0
LINE
8
0
10
121.137527784
20
13.4197473378
11
122.199899277
21
14.084465006
0
LINE
8
0
10
122.199899277
20
14.084465006
11
123.185597065
21
14.8583400848
0
LINE
8
0
10
123.185597065
20
14.8583400848
11
123.05214536
21
15.3254867777
0
LINE
8
0
10
123.05214536
20
15.3254867777
11
122.788723278
21
16.1373173694
0
LINE
8
0
10
122.788723278
20
16.1373173694
11
122.528081422
21
16.852994989
0
LINE
8
0
10
122.528081422
20
16.852994989
11
122.276673369
21
17.4738486088
0
LINE
8
0
10
122.276673369
20
17.4738486088
11
122.040858036
21
18.0015426599
0
LINE
8
0
10
122.040858036
20
18.0015426599
11
121.826884048
21
18.4380718526
0
LINE
8
0
10
121.826884048
20
18.4380718526
11
121.640874372
21
18.785755312
0
LINE
8
0
10
121.640874372
20
18.785755312
11
121.435723343
21
19.1385154005
0
LINE
8
0
10
121.435723343
20
19.1385154005
11
121.307187531
21
19.4094723022
0
LINE
8
0
10
121.307187531
20
19.4094723022
11
121.250681847
21
19.6135842789
0
LINE
8
0
10
121.250681847
20
19.6135842789
11
121.261221043
21
19.746169682
0
LINE
8
0
10
121.261221043
20
19.746169682
11
123.425364262
21
21.445246746
0
LINE
8
0
10
123.425364262
20
21.445246746
11
123.556662919
21
21.4240187796
0
LINE
8
0
10
123.556662919
20
21.4240187796
11
123.741533087
21
21.3206862473
0
LINE
8
0
10
123.741533087
20
21.3206862473
11
123.974243741
21
21.1315174104
0
LINE
8
0
10
123.974243741
20
21.1315174104
11
124.268237619
21
20.8485081802
0
LINE
8
0
10
124.268237619
20
20.8485081802
11
124.561842663
21
20.5852982525
0
LINE
8
0
10
124.561842663
20
20.5852982525
11
124.935118429
21
20.2738374918
0
LINE
8
0
10
124.935118429
20
20.2738374918
11
125.39177093
21
19.9195235399
0
LINE
8
0
10
125.39177093
20
19.9195235399
11
125.935220852
21
19.5279531015
0
LINE
8
0
10
125.935220852
20
19.5279531015
11
126.568594214
21
19.1049084029
0
LINE
8
0
10
126.568594214
20
19.1049084029
11
127.294713626
21
18.6563432426
0
LINE
8
0
10
127.294713626
20
18.6563432426
11
127.716842235
21
18.4158378842
0
LINE
8
0
10
127.716842235
20
18.4158378842
11
128.702540024
21
19.1897129631
0
LINE
8
0
10
128.702540024
20
19.1897129631
11
129.600395758
21
20.0639771387
0
LINE
8
0
10
129.600395758
20
20.0639771387
11
129.418045433
21
20.5142923053
0
LINE
8
0
10
129.418045433
20
20.5142923053
11
129.069823386
21
21.2935236632
0
LINE
8
0
10
129.069823386
20
21.2935236632
11
128.734586249
21
21.9774422947
0
LINE
8
0
10
128.734586249
20
21.9774422947
11
128.418609778
21
22.5680556165
0
LINE
8
0
10
128.418609778
20
22.5680556165
11
128.128039946
21
23.0676945416
0
LINE
8
0
10
128.128039946
20
23.0676945416
11
127.868877954
21
23.4790066682
0
LINE
8
0
10
127.868877954
20
23.4790066682
11
127.646965573
21
23.8049488146
0
LINE
8
0
10
127.646965573
20
23.8049488146
11
127.405480666
21
24.1339042286
0
LINE
8
0
10
127.405480666
20
24.1339042286
11
127.248872082
21
24.3896635859
0
LINE
8
0
10
127.248872082
20
24.3896635859
11
127.170990741
21
24.5866130414
0
LINE
8
0
10
127.170990741
20
24.5866130414
11
127.167377265
21
24.7195675696
0
LINE
8
0
10
127.167377265
20
24.7195675696
11
129.138659357
21
26.6390533487
0
LINE
8
0
10
129.138659357
20
26.6390533487
11
129.271470575
21
26.6319018348
0
LINE
8
0
10
129.271470575
20
26.6319018348
11
129.466276992
21
26.5488051966
0
LINE
8
0
10
129.466276992
20
26.5488051966
11
129.717776709
21
26.3854436656
0
LINE
8
0
10
129.717776709
20
26.3854436656
11
130.04018709
21
26.1352873732
0
LINE
8
0
10
130.04018709
20
26.1352873732
11
130.360106303
21
25.9047768859
0
LINE
8
0
10
130.360106303
20
25.9047768859
11
130.764373638
21
25.6347573949
0
LINE
8
0
10
130.764373638
20
25.6347573949
11
131.256100376
21
25.3309898884
0
LINE
8
0
10
131.256100376
20
25.3309898884
11
131.838092933
21
24.9994029612
0
LINE
8
0
10
131.838092933
20
24.9994029612
11
132.512845004
21
24.6460783578
0
LINE
8
0
10
132.512845004
20
24.6460783578
11
133.282530358
21
24.277236172
0
LINE
8
0
10
133.282530358
20
24.277236172
11
133.727831677
21
24.0829628457
0
LINE
8
0
10
133.727831677
20
24.0829628457
11
134.625687411
21
24.9572270214
0
LINE
8
0
10
134.625687411
20
24.9572270214
11
135.425528026
21
25.9219745314
0
LINE
8
0
10
135.425528026
20
25.9219745314
11
135.196345184
21
26.350355921
0
LINE
8
0
10
135.196345184
20
26.350355921
11
134.767268668
21
27.0881590424
0
LINE
8
0
10
134.767268668
20
27.0881590424
11
134.361234621
21
27.7325696144
0
LINE
8
0
10
134.361234621
20
27.7325696144
11
133.984269871
21
28.2862507533
0
LINE
8
0
10
133.984269871
20
28.2862507533
11
133.642237812
21
28.7521734437
0
LINE
8
0
10
133.642237812
20
28.7521734437
11
133.340824225
21
29.1336081735
0
LINE
8
0
10
133.340824225
20
29.1336081735
11
133.085523495
21
29.434115952
0
LINE
8
0
10
133.085523495
20
29.434115952
11
132.81044083
21
29.7355394954
0
LINE
8
0
10
132.81044083
20
29.7355394954
11
132.627533912
21
29.9732034525
0
LINE
8
0
10
132.627533912
20
29.9732034525
11
132.52915934
21
30.1607588708
0
LINE
8
0
10
132.52915934
20
30.1607588708
11
132.511434135
21
30.2925760961
0
LINE
8
0
10
132.511434135
20
30.2925760961
11
134.267519686
21
32.4107220495
0
LINE
8
0
10
134.267519686
20
32.4107220495
11
134.400338661
21
32.4177280177
0
LINE
8
0
10
134.400338661
20
32.4177280177
11
134.602874092
21
32.3558087916
0
LINE
8
0
10
134.602874092
20
32.3558087916
11
134.870313279
21
32.2201055178
0
LINE
8
0
10
134.870313279
20
32.2201055178
11
135.217487126
21
32.0056365341
0
LINE
8
0
10
135.217487126
20
32.0056365341
11
135.560095696
21
31.810437263
0
LINE
8
0
10
135.560095696
20
31.810437263
11
135.990774088
21
31.5849184706
0
LINE
8
0
10
135.990774088
20
31.5849184706
11
136.512003603
21
31.3351392166
0
LINE
8
0
10
136.512003603
20
31.3351392166
11
137.125944586
21
31.0672928131
0
LINE
8
0
10
137.125944586
20
31.0672928131
11
137.834430155
21
30.7876916137
0
LINE
8
0
10
137.834430155
20
30.7876916137
11
138.63896061
21
30.5027515318
0
LINE
8
0
10
138.63896061
20
30.5027515318
11
139.102389197
21
30.3569114321
0
LINE
8
0
10
139.102389197
20
30.3569114321
11
139.902229813
21
31.3216589421
0
LINE
8
0
10
139.902229813
20
31.3216589421
11
140.594992795
21
32.3659588116
0
LINE
8
0
10
140.594992795
20
32.3659588116
11
140.321574169
21
32.767552692
0
LINE
8
0
10
140.321574169
20
32.767552692
11
139.816504791
21
33.4555679727
0
LINE
8
0
10
139.816504791
20
33.4555679727
11
139.344274362
21
34.053169056
0
LINE
8
0
10
139.344274362
20
34.053169056
11
138.910592494
21
34.5636445833
0
LINE
8
0
10
138.910592494
20
34.5636445833
11
138.520973568
21
34.9905719488
0
LINE
8
0
10
138.520973568
20
34.9905719488
11
138.180723523
21
35.3378074739
0
LINE
8
0
10
138.180723523
20
35.3378074739
11
137.894927103
21
35.6094760113
0
LINE
8
0
10
137.894927103
20
35.6094760113
11
137.589363478
21
35.8799524349
0
LINE
8
0
10
137.589363478
20
35.8799524349
11
137.382230633
21
36.0968281643
0
LINE
8
0
10
137.382230633
20
36.0968281643
11
137.264477454
21
36.2728644675
0
LINE
8
0
10
137.264477454
20
36.2728644675
11
137.232841353
21
36.402050848
0
LINE
8
0
10
137.232841353
20
36.402050848
11
138.753833212
21
38.6948575358
0
LINE
8
0
10
138.753833212
20
38.6948575358
11
138.885155053
21
38.7159416056
0
LINE
8
0
10
138.885155053
20
38.7159416056
11
139.09312469
21
38.6759013612
0
LINE
8
0
10
139.09312469
20
38.6759013612
11
139.373473155
21
38.569393917
0
LINE
8
0
10
139.373473155
20
38.569393917
11
139.741476848
21
38.3930422612
0
LINE
8
0
10
139.741476848
20
38.3930422612
11
140.102892883
21
38.2353658921
0
LINE
8
0
10
140.102892883
20
38.2353658921
11
140.555102575
21
38.0569030162
0
LINE
8
0
10
140.555102575
20
38.0569030162
11
141.099929128
21
37.8639421136
0
LINE
8
0
10
141.099929128
20
37.8639421136
11
141.73886234
21
37.6628710405
0
LINE
8
0
10
141.73886234
20
37.6628710405
11
142.473053984
21
37.4601612384
0
LINE
8
0
10
142.473053984
20
37.4601612384
11
143.303313887
21
37.2623517454
0
LINE
8
0
10
143.303313887
20
37.2623517454
11
143.779618911
21
37.1665972989
0
LINE
8
0
10
143.779618911
20
37.1665972989
11
144.472381894
21
38.2108971684
0
LINE
8
0
10
144.472381894
20
38.2108971684
11
145.050217963
21
39.3229170627
0
LINE
8
0
10
145.050217963
20
39.3229170627
11
144.735661494
21
39.6931732146
0
LINE
8
0
10
144.735661494
20
39.6931732146
11
144.160321893
21
40.3236051667
0
LINE
8
0
10
144.160321893
20
40.3236051667
11
143.627245641
21
40.8676257021
0
LINE
8
0
10
143.627245641
20
40.8676257021
11
143.141760445
21
41.3291117262
0
LINE
8
0
10
143.141760445
20
41.3291117262
11
142.70896919
21
41.7122065092
0
LINE
8
0
10
142.70896919
20
41.7122065092
11
142.333737855
21
42.0213085123
0
LINE
8
0
10
142.333737855
20
42.0213085123
11
142.020683934
21
42.2610596956
0
LINE
8
0
10
142.020683934
20
42.2610596956
11
141.688101505
21
42.4975243933
0
LINE
8
0
10
141.688101505
20
42.4975243933
11
141.459089632
21
42.6911546064
0
LINE
8
0
10
141.459089632
20
42.6911546064
11
141.323292036
21
42.8536772328
0
LINE
8
0
10
141.323292036
20
42.8536772328
11
141.278103489
21
42.9787690353
0
LINE
8
0
10
141.278103489
20
42.9787690353
11
142.546768211
21
45.4202580414
0
LINE
8
0
10
142.546768211
20
45.4202580414
11
142.675104988
21
45.4551813219
0
LINE
8
0
10
142.675104988
20
45.4551813219
11
142.886152453
21
45.4374737312
0
LINE
8
0
10
142.886152453
20
45.4374737312
11
143.176233735
21
45.3613688885
0
LINE
8
0
10
143.176233735
20
45.3613688885
11
143.560897646
21
45.2251326954
0
LINE
8
0
10
143.560897646
20
45.2251326954
11
143.937026158
21
45.1067657644
0
LINE
8
0
10
143.937026158
20
45.1067657644
11
144.405643432
21
44.9773808608
0
LINE
8
0
10
144.405643432
20
44.9773808608
11
144.967893921
21
44.8434246337
0
LINE
8
0
10
144.967893921
20
44.8434246337
11
145.624579995
21
44.7114071066
0
LINE
8
0
10
145.624579995
20
44.7114071066
11
146.376159027
21
44.587885485
0
LINE
8
0
10
146.376159027
20
44.587885485
11
147.222741203
21
44.4794478413
0
LINE
8
0
10
147.222741203
20
44.4794478413
11
147.706525938
21
44.4348639842
0
LINE
8
0
10
147.706525938
20
44.4348639842
11
148.284362006
21
45.5468838785
0
LINE
8
0
10
148.284362006
20
45.5468838785
11
148.740724048
21
46.7140241678
0
LINE
8
0
10
148.740724048
20
46.7140241678
11
148.388593787
21
47.0487474411
0
LINE
8
0
10
148.388593787
20
47.0487474411
11
147.74950279
21
47.6144530186
0
LINE
8
0
10
147.74950279
20
47.6144530186
11
147.161620683
21
48.0987290361
0
LINE
8
0
10
147.161620683
20
48.0987290361
11
146.6298329
21
48.5059967359
0
LINE
8
0
10
146.6298329
20
48.5059967359
11
146.158773014
21
48.8409183194
0
LINE
8
0
10
146.158773014
20
48.8409183194
11
145.752811909
21
49.1083845513
0
LINE
8
0
10
145.752811909
20
49.1083845513
11
145.416047512
21
49.3135019038
0
LINE
8
0
10
145.416047512
20
49.3135019038
11
145.060214573
21
49.5132756362
0
LINE
8
0
10
145.060214573
20
49.5132756362
11
144.811918468
21
49.6814664251
0
LINE
8
0
10
144.811918468
20
49.6814664251
11
144.659615095
21
49.8286339286
0
LINE
8
0
10
144.659615095
20
49.8286339286
11
144.601386107
21
49.9482138129
0
LINE
8
0
10
144.601386107
20
49.9482138129
11
145.603349213
21
52.5107220914
0
LINE
8
0
10
145.603349213
20
52.5107220914
11
145.727246819
21
52.5590888878
0
LINE
8
0
10
145.727246819
20
52.5590888878
11
145.93898086
21
52.5639145849
0
LINE
8
0
10
145.93898086
20
52.5639145849
11
146.235508223
21
52.5190746419
0
LINE
8
0
10
146.235508223
20
52.5190746419
11
146.632473956
21
52.424497522
0
LINE
8
0
10
146.632473956
20
52.424497522
11
147.019053258
21
52.3467811739
0
LINE
8
0
10
147.019053258
20
52.3467811739
11
147.498768494
21
52.2679402251
0
LINE
8
0
10
147.498768494
20
52.2679402251
11
148.072072396
21
52.1945064511
0
LINE
8
0
10
148.072072396
20
52.1945064511
11
148.739070815
21
52.1330382814
0
LINE
8
0
10
148.739070815
20
52.1330382814
11
149.499521545
21
52.0901043895
0
LINE
8
0
10
149.499521545
20
52.0901043895
11
150.352833879
21
52.0722672371
0
LINE
8
0
10
150.352833879
20
52.0722672371
11
150.83861685
21
52.0793591223
0
LINE
8
0
10
150.83861685
20
52.0793591223
11
151.294978892
21
53.2464994116
0
LINE
8
0
10
151.294978892
20
53.2464994116
11
151.624696141
21
54.4555359301
0
LINE
8
0
10
151.624696141
20
54.4555359301
11
151.238981866
21
54.7509337763
0
LINE
8
0
10
151.238981866
20
54.7509337763
11
150.543380629
21
55.245503309
0
LINE
8
0
10
150.543380629
20
55.245503309
11
149.907353606
21
55.6645477678
0
LINE
8
0
10
149.907353606
20
55.6645477678
11
149.335288603
21
56.0129826376
0
LINE
8
0
10
149.335288603
20
56.0129826376
11
148.831297383
21
56.2959362261
0
LINE
8
0
10
148.831297383
20
56.2959362261
11
148.399206211
21
56.5187361876
0
LINE
8
0
10
148.399206211
20
56.5187361876
11
148.042547013
21
56.6868956477
0
LINE
8
0
10
148.042547013
20
56.6868956477
11
147.667495292
21
56.8477148985
0
LINE
8
0
10
147.667495292
20
56.8477148985
11
147.402728249
21
56.9885605946
0
LINE
8
0
10
147.402728249
20
56.9885605946
11
147.235644758
21
57.1187055083
0
LINE
8
0
10
147.235644758
20
57.1187055083
11
147.165035087
21
57.2314185867
0
LINE
8
0
10
147.165035087
20
57.2314185867
11
147.888943934
21
59.8859118948
0
LINE
8
0
10
147.888943934
20
59.8859118948
11
148.00699856
21
59.9471741921
0
LINE
8
0
10
148.00699856
20
59.9471741921
11
148.217020145
21
59.9744784998
0
LINE
8
0
10
148.217020145
20
59.9744784998
11
148.516633815
21
59.961411511
0
LINE
8
0
10
148.516633815
20
59.961411511
11
148.92140359
21
59.9095650609
0
LINE
8
0
10
148.92140359
20
59.9095650609
11
149.314053584
21
59.8733798529
0
LINE
8
0
10
149.314053584
20
59.8733798529
11
149.799431417
21
59.8459761585
0
LINE
8
0
10
149.799431417
20
59.8459761585
11
150.37729297
21
59.8338968715
0
LINE
8
0
10
150.37729297
20
59.8338968715
11
151.047046375
21
59.8436745181
0
LINE
8
0
10
151.047046375
20
59.8436745181
11
151.807752593
21
59.8818148141
0
LINE
8
0
10
151.807752593
20
59.8818148141
11
152.658126715
21
59.954780255
0
LINE
8
0
10
152.658126715
20
59.954780255
11
153.140403808
21
60.0134675285
0
LINE
8
0
10
153.140403808
20
60.0134675285
11
153.470121058
21
61.222504047
0
LINE
8
0
10
153.470121058
20
61.222504047
11
153.669457688
21
62.4597379278
0
LINE
8
0
10
153.669457688
20
62.4597379278
11
153.254529693
21
62.7124633714
0
LINE
8
0
10
153.254529693
20
62.7124633714
11
152.510299657
21
63.1302931888
0
LINE
8
0
10
152.510299657
20
63.1302931888
11
151.833334158
21
63.4793581478
0
LINE
8
0
10
151.833334158
20
63.4793581478
11
151.227473661
21
63.7650122812
0
LINE
8
0
10
151.227473661
20
63.7650122812
11
150.696261529
21
63.9927918977
0
LINE
8
0
10
150.696261529
20
63.9927918977
11
150.242936055
21
64.168401176
0
LINE
8
0
10
150.242936055
20
64.168401176
11
149.870423148
21
64.2976974299
0
LINE
8
0
10
149.870423148
20
64.2976974299
11
149.480402131
21
64.4177400528
0
LINE
8
0
10
149.480402131
20
64.4177400528
11
149.202164066
21
64.5296448179
0
LINE
8
0
10
149.202164066
20
64.5296448179
11
149.02219358
21
64.6412925482
0
LINE
8
0
10
149.02219358
20
64.6412925482
11
148.94000326
21
64.7458617363
0
LINE
8
0
10
148.94000326
20
64.7458617363
11
149.377655673
21
67.4622636042
0
LINE
8
0
10
149.377655673
20
67.4622636042
11
149.488529713
21
67.535727276
0
LINE
8
0
10
149.488529713
20
67.535727276
11
149.694459214
21
67.5852008257
0
LINE
8
0
10
149.694459214
20
67.5852008257
11
149.993764448
21
67.6040548453
0
LINE
8
0
10
149.993764448
20
67.6040548453
11
150.401752061
21
67.5955265059
0
LINE
8
0
10
150.401752061
20
67.5955265059
11
150.796023867
21
67.6012824309
0
LINE
8
0
10
150.796023867
20
67.6012824309
11
151.281564772
21
67.6256264857
0
LINE
8
0
10
151.281564772
20
67.6256264857
11
151.857436573
21
67.6750385489
0
LINE
8
0
10
151.857436573
20
67.6750385489
11
152.522356391
21
67.7559512271
0
LINE
8
0
10
152.522356391
20
67.7559512271
11
153.274698992
21
67.8747335662
0
LINE
8
0
10
153.274698992
20
67.8747335662
11
154.112499823
21
68.0376748729
0
LINE
8
0
10
154.112499823
20
68.0376748729
11
154.585806645
21
68.1472925845
0
LINE
8
0
10
77.8694011225
20
76.1728662899
11
77.5575335863
21
76.140087691
0
LINE
8
0
10
77.5575335863
20
76.140087691
11
77.24566605
21
76.1728662899
0
LINE
8
0
10
77.24566605
20
76.1728662899
11
76.9474286216
21
76.2697695045
0
LINE
8
0
10
76.9474286216
20
76.2697695045
11
76.6758557078
21
76.4265621994
0
LINE
8
0
10
76.6758557078
20
76.4265621994
11
76.442816348
21
76.6363917815
0
LINE
8
0
10
76.442816348
20
76.6363917815
11
76.2584954806
21
76.890087691
0
LINE
8
0
10
76.2584954806
20
76.890087691
11
76.1309488118
21
77.1765621994
0
LINE
8
0
10
76.1309488118
20
77.1765621994
11
76.0657507432
21
77.4832949961
0
LINE
8
0
10
76.0657507432
20
77.4832949961
11
76.0657507432
21
77.7968803859
0
LINE
8
0
10
76.0657507432
20
77.7968803859
11
76.1309488118
21
78.1036131826
0
LINE
8
0
10
76.1309488118
20
78.1036131826
11
76.2584954806
21
78.390087691
0
LINE
8
0
10
76.2584954806
20
78.390087691
11
76.442816348
21
78.6437836005
0
LINE
8
0
10
76.442816348
20
78.6437836005
11
76.6758557078
21
78.8536131826
0
LINE
8
0
10
76.6758557078
20
78.8536131826
11
76.9474286216
21
79.0104058775
0
LINE
8
0
10
76.9474286216
20
79.0104058775
11
77.24566605
21
79.1073090921
0
LINE
8
0
10
77.24566605
20
79.1073090921
11
77.5575335863
21
79.140087691
0
LINE
8
0
10
77.5575335863
20
79.140087691
11
77.8694011225
21
79.1073090921
0
LINE
8
0
10
77.8694011225
20
79.1073090921
11
78.1676385509
21
79.0104058775
0
LINE
8
0
10
78.1676385509
20
79.0104058775
11
78.4392114647
21
78.8536131826
0
LINE
8
0
10
78.4392114647
20
78.8536131826
11
78.6722508245
21
78.6437836005
0
LINE
8
0
10
78.6722508245
20
78.6437836005
11
78.8565716919
21
78.390087691
0
LINE
8
0
10
78.8565716919
20
78.390087691
11
78.9841183607
21
78.1036131826
0
LINE
8
0
10
78.9841183607
20
78.1036131826
11
79.0493164293
21
77.7968803859
0
LINE
8
0
10
79.0493164293
20
77.7968803859
11
79.0493164293
21
77.4832949961
0
LINE
8
0
10
79.0493164293
20
77.4832949961
11
78.9841183607
21
77.1765621994
0
LINE
8
0
10
78.9841183607
20
77.1765621994
11
78.8565716919
21
76.890087691
0
LINE
8
0
10
78.8565716919
20
76.890087691
11
78.6722508245
21
76.6363917815
0
LINE
8
0
10
78.6722508245
20
76.6363917815
11
78.4392114647
21
76.4265621994
0
LINE
8
0
10
78.4392114647
20
76.4265621994
11
78.1676385509
21
76.2697695045
0
LINE
8
0
10
78.1676385509
20
76.2697695045
11
77.8694011225
21
76.1728662899
0
ENDSEC
0
EOF
