  0
SECTION
  2
BLOCKS
  0
ENDSEC
  0
SECTION
  2
ENTITIES
  0
LINE
  8
0
 10
32.99907986992597
 20
-9.46757537394953
 11
33.2974363440662
 21
-8.549328565278508
  0
LINE
  8
0
 10
33.2974363440662
 20
-8.549328565278508
 11
33.47835334655223
 21
-7.600928425302028
  0
LINE
  8
0
 10
33.47835334655223
 20
-7.600928425302028
 11
32.78323901544398
 21
-7.007628117788712
  0
LINE
  8
0
 10
32.78323901544398
 20
-7.007628117788712
 11
31.86882629137372
 21
-6.350998166674158
  0
LINE
  8
0
 10
31.86882629137372
 20
-6.350998166674158
 11
31.084194213004825
 21
-5.881745467703322
  0
LINE
  8
0
 10
31.084194213004825
 20
-5.881745467703322
 11
30.453014255066456
 21
-5.572783246187365
  0
LINE
  8
0
 10
30.453014255066456
 20
-5.572783246187365
 11
29.99527583268833
 21
-5.394486699647302
  0
LINE
  8
0
 10
29.99527583268833
 20
-5.394486699647302
 11
29.47988050608287
 21
-5.241998482561799
  0
LINE
  8
0
 10
29.47988050608287
 20
-5.241998482561799
 11
29.049519698012578
 21
-5.026099331583043
  0
LINE
  8
0
 10
29.049519698012578
 20
-5.026099331583043
 11
28.86128774742792
 21
-4.793634048465442
  0
LINE
  8
0
 10
28.86128774742792
 20
-4.793634048465442
 11
29.14668563126924
 21
-2.5344771733838396
  0
LINE
  8
0
 10
29.14668563126924
 20
-2.5344771733838396
 11
29.386815694020218
 21
-2.3561265971606318
  0
LINE
  8
0
 10
29.386815694020218
 20
-2.3561265971606318
 11
29.857347861422653
 21
-2.2540366958194076
  0
LINE
  8
0
 10
29.857347861422653
 20
-2.2540366958194076
 11
30.394473373598082
 21
-2.234512782099202
  0
LINE
  8
0
 10
30.394473373598082
 20
-2.234512782099202
 11
30.882171649756135
 21
-2.175652666045381
  0
LINE
  8
0
 10
30.882171649756135
 20
-2.175652666045381
 11
31.570357708664055
 21
-2.0333651333805385
  0
LINE
  8
0
 10
31.570357708664055
 20
-2.0333651333805385
 11
32.44703752821281
 21
-1.7739849338785143
  0
LINE
  8
0
 10
32.44703752821281
 20
-1.7739849338785143
 11
33.49601952352041
 21
-1.365389417307522
  0
LINE
  8
0
 10
33.49601952352041
 20
-1.365389417307522
 11
34.31684334622134
 21
-0.9635966345277064
  0
LINE
  8
0
 10
34.31684334622134
 20
-0.9635966345277064
 11
34.37746770784939
 21
-1.447770409632703e-15
  0
LINE
  8
0
 10
34.37746770784939
 20
-1.447770409632703e-15
 11
34.31684334622135
 21
0.963596634527707
  0
LINE
  8
0
 10
34.31684334622135
 20
0.963596634527707
 11
33.496019523520346
 21
1.3653894173075607
  0
LINE
  8
0
 10
33.496019523520346
 20
1.3653894173075607
 11
32.447037528212384
 21
1.7739849338786915
  0
LINE
  8
0
 10
32.447037528212384
 20
1.7739849338786915
 11
31.570357708664048
 21
2.03336513338052
  0
LINE
  8
0
 10
31.570357708664048
 20
2.03336513338052
 11
30.88217164975606
 21
2.1756526660453597
  0
LINE
  8
0
 10
30.88217164975606
 20
2.1756526660453597
 11
30.39447337359809
 21
2.234512782099216
  0
LINE
  8
0
 10
30.39447337359809
 20
2.234512782099216
 11
29.857347861422692
 21
2.2540366958199574
  0
LINE
  8
0
 10
29.857347861422692
 20
2.2540366958199574
 11
29.3868156940202
 21
2.356126597160771
  0
LINE
  8
0
 10
29.3868156940202
 20
2.356126597160771
 11
29.146685631269243
 21
2.5344771733837597
  0
LINE
  8
0
 10
29.146685631269243
 20
2.5344771733837597
 11
28.861287747427937
 21
4.793634048465365
  0
LINE
  8
0
 10
28.861287747427937
 20
4.793634048465365
 11
29.04951969801256
 21
5.026099331583183
  0
LINE
  8
0
 10
29.04951969801256
 20
5.026099331583183
 11
29.479880506082697
 21
5.241998482562321
  0
LINE
  8
0
 10
29.479880506082697
 20
5.241998482562321
 11
29.995275832688314
 21
5.394486699647313
  0
LINE
  8
0
 10
29.995275832688314
 20
5.394486699647313
 11
30.45301425506653
 21
5.572783246187362
  0
LINE
  8
0
 10
30.45301425506653
 20
5.572783246187362
 11
31.084194213004835
 21
5.881745467703305
  0
LINE
  8
0
 10
31.084194213004835
 20
5.881745467703305
 11
31.868826291374088
 21
6.350998166674437
  0
LINE
  8
0
 10
31.868826291374088
 20
6.350998166674437
 11
32.78323901544404
 21
7.007628117788764
  0
LINE
  8
0
 10
32.78323901544404
 20
7.007628117788764
 11
33.478353346552225
 21
7.600928425302027
  0
LINE
  8
0
 10
33.478353346552225
 20
7.600928425302027
 11
33.297436344066206
 21
8.549328565278502
  0
LINE
  8
0
 10
33.297436344066206
 20
8.549328565278502
 11
32.99907986992598
 21
9.467575373949542
  0
LINE
  8
0
 10
32.99907986992598
 20
9.467575373949542
 11
32.10412193519138
 21
9.652614513763385
  0
LINE
  8
0
 10
32.10412193519138
 20
9.652614513763385
 11
30.98648206529683
 21
9.787502036775736
  0
LINE
  8
0
 10
30.98648206529683
 20
9.787502036775736
 11
30.072839521834123
 21
9.82071192494021
  0
LINE
  8
0
 10
30.072839521834123
 20
9.82071192494021
 11
29.370888623008987
 21
9.787384319779662
  0
LINE
  8
0
 10
29.370888623008987
 20
9.787384319779662
 11
28.883874369390973
 21
9.723109607783284
  0
LINE
  8
0
 10
28.883874369390973
 20
9.723109607783284
 11
28.358768242985057
 21
9.608442458836256
  0
LINE
  8
0
 10
28.358768242985057
 20
9.608442458836256
 11
27.877629982824526
 21
9.590308426577494
  0
LINE
  8
0
 10
27.877629982824526
 20
9.590308426577494
 11
27.600690062886507
 21
9.703337873274242
  0
LINE
  8
0
 10
27.600690062886507
 20
9.703337873274242
 11
26.762429010024327
 21
11.820543613296682
  0
LINE
  8
0
 10
26.762429010024327
 20
11.820543613296682
 11
26.88693554271867
 21
12.09251695462331
  0
LINE
  8
0
 10
26.88693554271867
 20
12.09251695462331
 11
27.250083839129125
 21
12.40865961756281
  0
LINE
  8
0
 10
27.250083839129125
 20
12.40865961756281
 11
27.71136479630288
 21
12.684530742520707
  0
LINE
  8
0
 10
27.71136479630288
 20
12.684530742520707
 11
28.110381976379077
 21
12.97106069179904
  0
LINE
  8
0
 10
28.110381976379077
 20
12.97106069179904
 11
28.644896475272994
 21
13.427284369504672
  0
LINE
  8
0
 10
28.644896475272994
 20
13.427284369504672
 11
29.28817949330388
 21
14.076924695077848
  0
LINE
  8
0
 10
29.28817949330388
 20
14.076924695077848
 11
30.010567031708106
 21
14.940330605990965
  0
LINE
  8
0
 10
30.010567031708106
 20
14.940330605990965
 11
30.536295281348345
 21
15.687859197910717
  0
LINE
  8
0
 10
30.536295281348345
 20
15.687859197910717
 11
30.125204595380634
 21
16.561471374569518
  0
LINE
  8
0
 10
30.125204595380634
 20
16.561471374569518
 11
29.607862843276813
 21
17.376671533319552
  0
LINE
  8
0
 10
29.607862843276813
 20
17.376671533319552
 11
28.695004294973035
 21
17.333330340486526
  0
LINE
  8
0
 10
28.695004294973035
 20
17.333330340486526
 11
27.5789319739093
 21
17.186034390787622
  0
LINE
  8
0
 10
27.5789319739093
 20
17.186034390787622
 11
26.6857342276802
 21
16.99098726820395
  0
LINE
  8
0
 10
26.6857342276802
 20
16.99098726820395
 11
26.014124645505923
 21
16.784138621220603
  0
LINE
  8
0
 10
26.014124645505923
 20
16.784138621220603
 11
25.558395311095815
 21
16.60076769771458
  0
LINE
  8
0
 10
25.558395311095815
 20
16.60076769771458
 11
25.07830291958672
 21
16.3591144447844
  0
LINE
  8
0
 10
25.07830291958672
 20
16.3591144447844
 11
24.616790253056777
 21
16.221895906865182
  0
LINE
  8
0
 10
24.616790253056777
 20
16.221895906865182
 11
24.320441629615175
 21
16.262502168206506
  0
LINE
  8
0
 10
24.320441629615175
 20
16.262502168206506
 11
22.981988432591947
 21
18.104724949986135
  0
LINE
  8
0
 10
22.981988432591947
 20
18.104724949986135
 11
23.034946344043835
 21
18.39911726423804
  0
LINE
  8
0
 10
23.034946344043835
 20
18.39911726423804
 11
23.30806418576513
 21
18.79563903293403
  0
LINE
  8
0
 10
23.30806418576513
 20
18.79563903293403
 11
23.68624679449511
 21
19.1775590684007
  0
LINE
  8
0
 10
23.68624679449511
 20
19.1775590684007
 11
24.00147101536256
 21
19.554318689920724
  0
LINE
  8
0
 10
24.00147101536256
 20
19.554318689920724
 11
24.405734543439767
 21
20.12913761227248
  0
LINE
  8
0
 10
24.405734543439767
 20
20.12913761227248
 11
24.86724866327996
 21
20.918346273581946
  0
LINE
  8
0
 10
24.86724866327996
 20
20.918346273581946
 11
25.352220750225
 21
21.934277175526365
  0
LINE
  8
0
 10
25.352220750225
 20
21.934277175526365
 11
25.67552947897914
 21
22.789064081204444
  0
LINE
  8
0
 10
25.67552947897914
 20
22.789064081204444
 11
25.06009544921487
 21
23.53299602856525
  0
LINE
  8
0
 10
25.06009544921487
 20
23.53299602856525
 11
24.356274904082007
 21
24.19392751332355
  0
LINE
  8
0
 10
24.356274904082007
 20
24.19392751332355
 11
23.48287400205788
 21
23.924929274387118
  0
LINE
  8
0
 10
23.48287400205788
 20
23.924929274387118
 11
22.438496158384254
 21
23.504704998213153
  0
LINE
  8
0
 10
22.438496158384254
 20
23.504704998213153
 11
21.621866108735873
 21
23.093656392926395
  0
LINE
  8
0
 10
21.621866108735873
 20
23.093656392926395
 11
21.022797543267718
 21
22.726283765346327
  0
LINE
  8
0
 10
21.022797543267718
 20
22.726283765346327
 11
20.626988278201758
 21
22.435338499845624
  0
LINE
  8
0
 10
20.626988278201758
 20
22.435338499845624
 11
20.2220755922043
 21
22.08188310555239
  0
LINE
  8
0
 10
20.2220755922043
 20
22.08188310555239
 11
19.809187057467884
 21
21.834202007364663
  0
LINE
  8
0
 10
19.809187057467884
 20
21.834202007364663
 11
19.51205040442754
 21
21.79983364261111
  0
LINE
  8
0
 10
19.51205040442754
 20
21.79983364261111
 11
17.757505000098757
 21
23.251319833547257
  0
LINE
  8
0
 10
17.757505000098757
 20
23.251319833547257
 11
17.73558674996609
 21
23.549633368920798
  0
LINE
  8
0
 10
17.73558674996609
 20
23.549633368920798
 11
17.901513138545717
 21
24.001619322341053
  0
LINE
  8
0
 10
17.901513138545717
 20
24.001619322341053
 11
18.172834794667065
 21
24.465590827884487
  0
LINE
  8
0
 10
18.172834794667065
 20
24.465590827884487
 11
18.384459359215086
 21
24.90890692900113
  0
LINE
  8
0
 10
18.384459359215086
 20
24.90890692900113
 11
18.633070552229235
 21
25.566203109071537
  0
LINE
  8
0
 10
18.633070552229235
 20
25.566203109071537
 11
18.883817144398968
 21
26.445391223420803
  0
LINE
  8
0
 10
18.883817144398968
 20
26.445391223420803
 11
19.100901200059504
 21
27.550012441494854
  0
LINE
  8
0
 10
19.100901200059504
 20
27.550012441494854
 11
19.201475731453588
 21
28.458348255961166
  0
LINE
  8
0
 10
19.201475731453588
 20
28.458348255961166
 11
18.420368341390894
 21
29.025855993780986
  0
LINE
  8
0
 10
18.420368341390894
 20
29.025855993780986
 11
17.574292636550584
 21
29.490990048624223
  0
LINE
  8
0
 10
17.574292636550584
 20
29.490990048624223
 11
16.795228371624102
 21
29.013236912243077
  0
LINE
  8
0
 10
16.795228371624102
 20
29.013236912243077
 11
15.888167106211641
 21
28.346488546342837
  0
LINE
  8
0
 10
15.888167106211641
 20
28.346488546342837
 11
15.199416622518617
 21
27.745266153954187
  0
LINE
  8
0
 10
15.199416622518617
 20
27.745266153954187
 11
14.710530754945017
 21
27.24045291907027
  0
LINE
  8
0
 10
14.710530754945017
 20
27.24045291907027
 11
14.39951171103195
 21
26.86021447262813
  0
LINE
  8
0
 10
14.39951171103195
 20
26.86021447262813
 11
14.09522088377204
 21
26.417165839313302
  0
LINE
  8
0
 10
14.09522088377204
 20
26.417165839313302
 11
13.756899785964446
 21
26.07458489516356
  0
LINE
  8
0
 10
13.756899785964446
 20
26.07458489516356
 11
13.47764529202805
 21
25.967401395070592
  0
LINE
  8
0
 10
13.47764529202805
 20
25.967401395070592
 11
11.41725222091431
 21
26.936948779593944
  0
LINE
  8
0
 10
11.41725222091431
 20
26.936948779593944
 11
11.321835013462609
 21
27.22043939954116
  0
LINE
  8
0
 10
11.321835013462609
 20
27.22043939954116
 11
11.370144183671538
 21
27.69948959794423
  0
LINE
  8
0
 10
11.370144183671538
 20
27.69948959794423
 11
11.517556749678908
 21
28.216359537503294
  0
LINE
  8
0
 10
11.517556749678908
 20
28.216359537503294
 11
11.612284508216236
 21
28.69837693718084
  0
LINE
  8
0
 10
11.612284508216236
 20
28.69837693718084
 11
11.689622210582245
 21
29.396850038609813
  0
LINE
  8
0
 10
11.689622210582245
 20
29.396850038609813
 11
11.713845944514034
 21
30.310774983346604
  0
LINE
  8
0
 10
11.713845944514034
 20
30.310774983346604
 11
11.6494017792936
 21
31.434679103906035
  0
LINE
  8
0
 10
11.6494017792936
 20
31.434679103906035
 11
11.520922645632888
 21
32.33948974731222
  0
LINE
  8
0
 10
11.520922645632888
 20
32.33948974731222
 11
10.623221745301434
 21
32.69491467727638
  0
LINE
  8
0
 10
10.623221745301434
 20
32.69491467727638
 11
9.688052928937577
 21
32.93502521889536
  0
LINE
  8
0
 10
9.688052928937577
 20
32.93502521889536
 11
9.052276774072016
 21
32.27853617168145
  0
LINE
  8
0
 10
9.052276774072016
 20
32.27853617168145
 11
8.339526082164555
 21
31.407157968013415
  0
LINE
  8
0
 10
8.339526082164555
 20
31.407157968013415
 11
7.821931890364407
 21
30.65353880257794
  0
LINE
  8
0
 10
7.821931890364407
 20
30.65353880257794
 11
7.473947217741466
 21
30.043004232511134
  0
LINE
  8
0
 10
7.473947217741466
 20
30.043004232511134
 11
7.267260865358377
 21
29.597364385136707
  0
LINE
  8
0
 10
7.267260865358377
 20
29.597364385136707
 11
7.082711608616135
 21
29.09256088785034
  0
LINE
  8
0
 10
7.082711608616135
 20
29.09256088785034
 11
6.840215906570577
 21
28.676605718384092
  0
LINE
  8
0
 10
6.840215906570577
 20
28.676605718384092
 11
6.596390158618339
 21
28.503341816455894
  0
LINE
  8
0
 10
6.596390158618339
 20
28.503341816455894
 11
4.3596114949733735
 21
28.930030166650994
  0
LINE
  8
0
 10
4.3596114949733735
 20
28.930030166650994
 11
4.1966907442667685
 21
29.180885112915036
  0
LINE
  8
0
 10
4.1966907442667685
 20
29.180885112915036
 11
4.124347253272075
 21
29.656899070511862
  0
LINE
  8
0
 10
4.124347253272075
 20
29.656899070511862
 11
4.138588255497726
 21
30.1941906048694
  0
LINE
  8
0
 10
4.138588255497726
 20
30.1941906048694
 11
4.1104671145711364
 21
30.68462237715011
  0
LINE
  8
0
 10
4.1104671145711364
 20
30.68462237715011
 11
4.011671914021172
 21
31.380384766170494
  0
LINE
  8
0
 10
4.011671914021172
 20
31.380384766170494
 11
3.807850723423426
 21
32.271621275836175
  0
LINE
  8
0
 10
3.807850723423426
 20
32.271621275836175
 11
3.465927601231878
 21
33.34418926955602
  0
LINE
  8
0
 10
3.465927601231878
 20
33.34418926955602
 11
3.116467618997476
 21
34.18862216151609
  0
LINE
  8
0
 10
3.116467618997476
 20
34.18862216151609
 11
2.1585790574780686
 21
34.30963162811348
  0
LINE
  8
0
 10
2.1585790574780686
 20
34.30963162811348
 11
1.1930772256331277
 21
34.30963162811348
  0
LINE
  8
0
 10
1.1930772256331277
 20
34.30963162811348
 11
0.7405373348598265
 21
33.51565629130109
  0
LINE
  8
0
 10
0.7405373348598265
 20
33.51565629130109
 11
0.2668819637435982
 21
32.494400147106575
  0
LINE
  8
0
 10
0.2668819637435982
 20
32.494400147106575
 11
-0.047033589514589184
 21
31.635736872406
  0
LINE
  8
0
 10
-0.047033589514589184
 20
31.635736872406
 11
-0.23225191040787252
 21
30.957843099582686
  0
LINE
  8
0
 10
-0.23225191040787252
 20
30.957843099582686
 11
-0.32161870760152145
 21
30.474803041835216
  0
LINE
  8
0
 10
-0.32161870760152145
 20
30.474803041835216
 11
-0.37483048530029
 21
29.93996334084921
  0
LINE
  8
0
 10
-0.37483048530029
 20
29.93996334084921
 11
-0.5062638947874847
 21
29.476769939140127
  0
LINE
  8
0
 10
-0.5062638947874847
 20
29.476769939140127
 11
-0.6993404282833504
 21
29.2483124435549
  0
LINE
  8
0
 10
-0.6993404282833504
 20
29.2483124435549
 11
-2.9719596547262443
 21
29.10533136112901
  0
LINE
  8
0
 10
-2.9719596547262443
 20
29.10533136112901
 11
-3.1921470387402473
 21
29.30778849485615
  0
LINE
  8
0
 10
-3.1921470387402473
 20
29.30778849485615
 11
-3.3805975833386195
 21
29.750856504034054
  0
LINE
  8
0
 10
-3.3805975833386195
 20
29.750856504034054
 11
-3.500422959439267
 21
30.274809630066343
  0
LINE
  8
0
 10
-3.500422959439267
 20
30.274809630066343
 11
-3.6496260451230342
 21
30.74284014301593
  0
LINE
  8
0
 10
-3.6496260451230342
 20
30.74284014301593
 11
-3.9183464827950854
 21
31.392174509890502
  0
LINE
  8
0
 10
-3.9183464827950854
 20
31.392174509890502
 11
-4.337405762915209
 21
32.204722916844176
  0
LINE
  8
0
 10
-4.337405762915209
 20
32.204722916844176
 11
-4.935323554805291
 21
33.15856139204987
  0
LINE
  8
0
 10
-4.935323554805291
 20
33.15856139204987
 11
-5.483806529705686
 21
33.889557708355035
  0
LINE
  8
0
 10
-5.483806529705686
 20
33.889557708355035
 11
-6.4416950912251165
 21
33.76854824175766
  0
LINE
  8
0
 10
-6.4416950912251165
 20
33.76854824175766
 11
-7.376863907588974
 21
33.528437700138674
  0
LINE
  8
0
 10
-7.376863907588974
 20
33.528437700138674
 11
-7.61773278860743
 21
32.64686446417675
  0
LINE
  8
0
 10
-7.61773278860743
 20
32.64686446417675
 11
-7.822531329982594
 21
31.539899658912866
  0
LINE
  8
0
 10
-7.822531329982594
 20
31.539899658912866
 11
-7.913043775986962
 21
30.630145246439255
  0
LINE
  8
0
 10
-7.913043775986962
 20
30.630145246439255
 11
-7.923857796863527
 21
29.927486829724817
  0
LINE
  8
0
 10
-7.923857796863527
 20
29.927486829724817
 11
-7.890289794331969
 21
29.437397744929644
  0
LINE
  8
0
 10
-7.890289794331969
 20
29.437397744929644
 11
-7.808820601295222
 21
28.90612778565978
  0
LINE
  8
0
 10
-7.808820601295222
 20
28.90612778565978
 11
-7.820933273727705
 21
28.424800296643408
  0
LINE
  8
0
 10
-7.820933273727705
 20
28.424800296643408
 11
-7.951128884081835
 21
28.155504032056676
  0
LINE
  8
0
 10
-7.951128884081835
 20
28.155504032056676
 11
-10.116791649216394
 21
27.451837544266247
  0
LINE
  8
0
 10
-10.116791649216394
 20
27.451837544266247
 11
-10.380410483407642
 21
27.593175739159157
  0
LINE
  8
0
 10
-10.380410483407642
 20
27.593175739159157
 11
-10.673127040819956
 21
27.975458207411336
  0
LINE
  8
0
 10
-10.673127040819956
 20
27.975458207411336
 11
-10.919489726179592
 21
28.453151023244963
  0
LINE
  8
0
 10
-10.919489726179592
 20
28.453151023244963
 11
-11.180399778016461
 21
28.869372198438978
  0
LINE
  8
0
 10
-11.180399778016461
 20
28.869372198438978
 11
-11.602160759427026
 21
29.43147847681226
  0
LINE
  8
0
 10
-11.602160759427026
 20
29.43147847681226
 11
-12.210127093307356
 21
30.114283376301024
  0
LINE
  8
0
 10
-12.210127093307356
 20
30.114283376301024
 11
-13.026470181043702
 21
30.88945915362286
  0
LINE
  8
0
 10
-13.026470181043702
 20
30.88945915362286
 11
-13.739512946117822
 21
31.46108770730328
  0
LINE
  8
0
 10
-13.739512946117822
 20
31.46108770730328
 11
-14.637213846449272
 21
31.105662777339134
  0
LINE
  8
0
 10
-14.637213846449272
 20
31.105662777339134
 11
-15.483289551289584
 21
30.6405287224959
  0
LINE
  8
0
 10
-15.483289551289584
 20
30.6405287224959
 11
-15.497352744905028
 21
29.726750075999497
  0
LINE
  8
0
 10
-15.497352744905028
 20
29.726750075999497
 11
-15.420426210988179
 21
28.60363127951275
  0
LINE
  8
0
 10
-15.420426210988179
 20
28.60363127951275
 11
-15.281848319874781
 21
27.699948944844493
  0
LINE
  8
0
 10
-15.281848319874781
 20
27.699948944844493
 11
-15.117578556031768
 21
27.016676496758
  0
LINE
  8
0
 10
-15.117578556031768
 20
27.016676496758
 11
-14.96318495482854
 21
26.550332484534373
  0
LINE
  8
0
 10
-14.96318495482854
 20
26.550332484534373
 11
-14.75215380007751
 21
26.05601391239581
  0
LINE
  8
0
 10
-14.75215380007751
 20
26.05601391239581
 11
-14.644184651699051
 21
25.586795912405723
  0
LINE
  8
0
 10
-14.644184651699051
 20
25.586795912405723
 11
-14.703318669886935
 21
25.293581753523846
  0
LINE
  8
0
 10
-14.703318669886935
 20
25.293581753523846
 11
-16.62594841742925
 21
24.073443813701076
  0
LINE
  8
0
 10
-16.62594841742925
 20
24.073443813701076
 11
-16.916434560923253
 21
24.14478227116911
  0
LINE
  8
0
 10
-16.916434560923253
 20
24.14478227116911
 11
-17.295024673311097
 21
24.44225898507871
  0
LINE
  8
0
 10
-17.295024673311097
 20
24.44225898507871
 11
-17.65244479435
 21
24.843676294263563
  0
LINE
  8
0
 10
-17.65244479435
 20
24.843676294263563
 11
-18.008667874223015
 21
25.181935424510165
  0
LINE
  8
0
 10
-18.008667874223015
 20
25.181935424510165
 11
-18.55696860578168
 21
25.621494409629676
  0
LINE
  8
0
 10
-18.55696860578168
 20
25.621494409629676
 11
-19.315641232720743
 21
26.13165265863789
  0
LINE
  8
0
 10
-19.315641232720743
 20
26.13165265863789
 11
-20.29911577780102
 21
26.67945859308966
  0
LINE
  8
0
 10
-20.29911577780102
 20
26.67945859308966
 11
-21.1319152337314
 21
27.055801859814835
  0
LINE
  8
0
 10
-21.1319152337314
 20
27.055801859814835
 11
-21.91302262379409
 21
26.48829412199502
  0
LINE
  8
0
 10
-21.91302262379409
 20
26.48829412199502
 11
-22.616843168926962
 21
25.827362637236718
  0
LINE
  8
0
 10
-22.616843168926962
 20
25.827362637236718
 11
-22.40321703296373
 21
24.938794653207985
  0
LINE
  8
0
 10
-22.40321703296373
 20
24.938794653207985
 11
-22.04939900079686
 21
23.870091550023638
  0
LINE
  8
0
 10
-22.04939900079686
 20
23.870091550023638
 11
-21.690438131118185
 21
23.02926297775909
  0
LINE
  8
0
 10
-21.690438131118185
 20
23.02926297775909
 11
-21.361406255959782
 21
22.40830901911409
  0
LINE
  8
0
 10
-21.361406255959782
 20
22.40830901911409
 11
-21.095888173868424
 21
21.995012188843326
  0
LINE
  8
0
 10
-21.095888173868424
 20
21.995012188843326
 11
-20.768554920974417
 21
21.56870485770007
  0
LINE
  8
0
 10
-20.768554920974417
 20
21.56870485770007
 11
-20.54728805046039
 21
21.14107903933874
  0
LINE
  8
0
 10
-20.54728805046039
 20
21.14107903933874
 11
-20.531644868639578
 21
20.84237071013051
  0
LINE
  8
0
 10
-20.531644868639578
 20
20.84237071013051
 11
-22.09043570061397
 21
19.182427072387902
  0
LINE
  8
0
 10
-22.09043570061397
 20
19.182427072387902
 11
-22.3895368406817
 21
19.179283334783854
  0
LINE
  8
0
 10
-22.3895368406817
 20
19.179283334783854
 11
-22.830212298926714
 21
19.373262738373107
  0
LINE
  8
0
 10
-22.830212298926714
 20
19.373262738373107
 11
-23.27623183494075
 21
19.67318201506351
  0
LINE
  8
0
 10
-23.27623183494075
 20
19.67318201506351
 11
-23.70538513664464
 21
19.91222503517925
  0
LINE
  8
0
 10
-23.70538513664464
 20
19.91222503517925
 11
-24.345773866878545
 21
20.20161761942507
  0
LINE
  8
0
 10
-24.345773866878545
 20
20.20161761942507
 11
-25.207482595523018
 21
20.50707409893675
  0
LINE
  8
0
 10
-25.207482595523018
 20
20.50707409893675
 11
-26.296293275313463
 21
20.793089528967545
  0
LINE
  8
0
 10
-26.296293275313463
 20
20.793089528967545
 11
-27.19652156946185
 21
20.950500477195416
  0
LINE
  8
0
 10
-27.19652156946185
 20
20.950500477195416
 11
-27.811955599226128
 21
20.2065685298346
  0
LINE
  8
0
 10
-27.811955599226128
 20
20.2065685298346
 11
-28.329297351329956
 21
19.391368371084567
  0
LINE
  8
0
 10
-28.329297351329956
 20
19.391368371084567
 11
-27.90140480157259
 21
18.583843043884485
  0
LINE
  8
0
 10
-27.90140480157259
 20
18.583843043884485
 11
-27.29292695936844
 21
17.636706180390675
  0
LINE
  8
0
 10
-27.29292695936844
 20
17.636706180390675
 11
-26.73613794273213
 21
16.911563722076398
  0
LINE
  8
0
 10
-26.73613794273213
 20
16.911563722076398
 11
-26.263018239069126
 21
16.391945073803466
  0
LINE
  8
0
 10
-26.263018239069126
 20
16.391945073803466
 11
-25.90305915369464
 21
16.0576643853309
  0
LINE
  8
0
 10
-25.90305915369464
 20
16.0576643853309
 11
-25.479991354784477
 21
15.726154752647364
  0
LINE
  8
0
 10
-25.479991354784477
 20
15.726154752647364
 11
-25.15932977337191
 21
15.366990418780185
  0
LINE
  8
0
 10
-25.15932977337191
 20
15.366990418780185
 11
-25.0698923101878
 21
15.081556862142145
  0
LINE
  8
0
 10
-25.0698923101878
 20
15.081556862142145
 11
-26.166899665789654
 21
13.086107890084728
  0
LINE
  8
0
 10
-26.166899665789654
 20
13.086107890084728
 11
-26.455822177783602
 21
13.008679490004116
  0
LINE
  8
0
 10
-26.455822177783602
 20
13.008679490004116
 11
-26.930893722153286
 21
13.086973143939169
  0
LINE
  8
0
 10
-26.930893722153286
 20
13.086973143939169
 11
-27.43748762534959
 21
13.266549356954718
  0
LINE
  8
0
 10
-27.43748762534959
 20
13.266549356954718
 11
-27.91260586862286
 21
13.391356314846995
  0
LINE
  8
0
 10
-27.91260586862286
 20
13.391356314846995
 11
-28.604844618426405
 21
13.512398897839477
  0
LINE
  8
0
 10
-28.604844618426405
 20
13.512398897839477
 11
-29.515445120212537
 21
13.593960653856561
  0
LINE
  8
0
 10
-29.515445120212537
 20
13.593960653856561
 11
-30.641177955336342
 21
13.600214178106379
  0
LINE
  8
0
 10
-30.641177955336342
 20
13.600214178106379
 11
-31.552270433173327
 21
13.528802099042808
  0
LINE
  8
0
 10
-31.552270433173327
 20
13.528802099042808
 11
-31.963361119141048
 21
12.655189922384016
  0
LINE
  8
0
 10
-31.963361119141048
 20
12.655189922384016
 11
-32.26171759328128
 21
11.736943113712979
  0
LINE
  8
0
 10
-32.26171759328128
 20
11.736943113712979
 11
-31.646444692309746
 21
11.061200229519931
  0
LINE
  8
0
 10
-31.646444692309746
 20
11.061200229519931
 11
-30.821539940718978
 21
10.295141698175707
  0
LINE
  8
0
 10
-30.821539940718978
 20
10.295141698175707
 11
-30.101907878767054
 21
9.731248721354989
  0
LINE
  8
0
 10
-30.101907878767054
 20
9.731248721354989
 11
-29.51442819759315
 21
9.345614934148829
  0
LINE
  8
0
 10
-29.51442819759315
 20
9.345614934148829
 11
-29.08264566210653
 21
9.111354472529559
  0
LINE
  8
0
 10
-29.08264566210653
 20
9.111354472529559
 11
-28.59042622292026
 21
8.895472507734405
  0
LINE
  8
0
 10
-28.59042622292026
 20
8.895472507734405
 11
-28.190518277080102
 21
8.62733727437227
  0
LINE
  8
0
 10
-28.190518277080102
 20
8.62733727437227
 11
-28.03290621727253
 21
8.373113330419175
  0
LINE
  8
0
 10
-28.03290621727253
 20
8.373113330419175
 11
-28.59920108983855
 21
6.167540421709283
  0
LINE
  8
0
 10
-28.59920108983855
 20
6.167540421709283
 11
-28.859790909747474
 21
6.020692470290911
  0
LINE
  8
0
 10
-28.859790909747474
 20
6.020692470290911
 11
-29.339408047918155
 21
5.978380896351105
  0
LINE
  8
0
 10
-29.339408047918155
 20
5.978380896351105
 11
-29.87474516023685
 21
6.026330611792923
  0
LINE
  8
0
 10
-29.87474516023685
 20
6.026330611792923
 11
-30.36597491849198
 21
6.029059427289477
  0
LINE
  8
0
 10
-30.36597491849198
 20
6.029059427289477
 11
-31.066567781338968
 21
5.974146458375726
  0
LINE
  8
0
 10
-31.066567781338968
 20
5.974146458375726
 11
-31.968843677785152
 21
5.826688665804503
  0
LINE
  8
0
 10
-31.968843677785152
 20
5.826688665804503
 11
-33.06076473405574
 21
5.5527873523458755
  0
LINE
  8
0
 10
-33.06076473405574
 20
5.5527873523458755
 11
-33.925474104435075
 21
5.2570393295536855
  0
LINE
  8
0
 10
-33.925474104435075
 20
5.2570393295536855
 11
-34.1063911069211
 21
4.3086391895772165
  0
LINE
  8
0
 10
-34.1063911069211
 20
4.3086391895772165
 11
-34.16701546854916
 21
3.3450425550495066
  0
LINE
  8
0
 10
-34.16701546854916
 20
3.3450425550495066
 11
-33.40302207554694
 21
2.8435415244858304
  0
LINE
  8
0
 10
-33.40302207554694
 20
2.8435415244858304
 11
-32.413522213899455
 21
2.3066956001817456
  0
LINE
  8
0
 10
-32.413522213899455
 20
2.3066956001817456
 11
-31.576264235705953
 21
1.939483574441535
  0
LINE
  8
0
 10
-31.576264235705953
 20
1.939483574441535
 11
-30.911338085988437
 21
1.7120654374141713
  0
LINE
  8
0
 10
-30.911338085988437
 20
1.7120654374141713
 11
-30.434862585079387
 21
1.5925446490014492
  0
LINE
  8
0
 10
-30.434862585079387
 20
1.5925446490014492
 11
-29.904419463237556
 21
1.5058550099010808
  0
LINE
  8
0
 10
-29.904419463237556
 20
1.5058550099010808
 11
-29.450392839965485
 21
1.345596799888539
  0
LINE
  8
0
 10
-29.450392839965485
 20
1.345596799888539
 11
-29.23450952890877
 21
1.1385562939892266
  0
LINE
  8
0
 10
-29.23450952890877
 20
1.1385562939892266
 11
-29.23450952890878
 21
-1.138556293989149
  0
LINE
  8
0
 10
-29.23450952890878
 20
-1.138556293989149
 11
-29.45039283996548
 21
-1.345596799888681
  0
LINE
  8
0
 10
-29.45039283996548
 20
-1.345596799888681
 11
-29.904419463237446
 21
-1.5058550099016226
  0
LINE
  8
0
 10
-29.904419463237446
 20
-1.5058550099016226
 11
-30.434862585079372
 21
-1.5925446490014634
  0
LINE
  8
0
 10
-30.434862585079372
 20
-1.5925446490014634
 11
-30.91133808598851
 21
-1.7120654374141615
  0
LINE
  8
0
 10
-30.91133808598851
 20
-1.7120654374141615
 11
-31.576264235705956
 21
-1.93948357444152
  0
LINE
  8
0
 10
-31.576264235705956
 20
-1.93948357444152
 11
-32.41352221389986
 21
-2.3066956001819765
  0
LINE
  8
0
 10
-32.41352221389986
 20
-2.3066956001819765
 11
-33.403022075547
 21
-2.843541524485879
  0
LINE
  8
0
 10
-33.403022075547
 20
-2.843541524485879
 11
-34.16701546854915
 21
-3.3450425550495093
  0
LINE
  8
0
 10
-34.16701546854915
 20
-3.3450425550495093
 11
-34.10639110692111
 21
-4.308639189577193
  0
LINE
  8
0
 10
-34.10639110692111
 20
-4.308639189577193
 11
-33.92547410443508
 21
-5.257039329553674
  0
LINE
  8
0
 10
-33.92547410443508
 20
-5.257039329553674
 11
-33.06076473405567
 21
-5.552787352345892
  0
LINE
  8
0
 10
-33.06076473405567
 20
-5.552787352345892
 11
-31.968843677784708
 21
-5.826688665804613
  0
LINE
  8
0
 10
-31.968843677784708
 20
-5.826688665804613
 11
-31.066567781338968
 21
-5.974146458375697
  0
LINE
  8
0
 10
-31.066567781338968
 20
-5.974146458375697
 11
-30.365974918491908
 21
-6.029059427289434
  0
LINE
  8
0
 10
-30.365974918491908
 20
-6.029059427289434
 11
-29.87474516023686
 21
-6.026330611792926
  0
LINE
  8
0
 10
-29.87474516023686
 20
-6.026330611792926
 11
-29.339408047918123
 21
-5.978380896351644
  0
LINE
  8
0
 10
-29.339408047918123
 20
-5.978380896351644
 11
-28.859790909747442
 21
-6.020692470291036
  0
LINE
  8
0
 10
-28.859790909747442
 20
-6.020692470291036
 11
-28.599201089838562
 21
-6.167540421709194
  0
LINE
  8
0
 10
-28.599201089838562
 20
-6.167540421709194
 11
-28.03290621727256
 21
-8.37311333041909
  0
LINE
  8
0
 10
-28.03290621727256
 20
-8.37311333041909
 11
-28.190518277080066
 21
-8.627337274372398
  0
LINE
  8
0
 10
-28.190518277080066
 20
-8.627337274372398
 11
-28.590426222920026
 21
-8.895472507734892
  0
LINE
  8
0
 10
-28.590426222920026
 20
-8.895472507734892
 11
-29.08264566210652
 21
-9.111354472529557
  0
LINE
  8
0
 10
-29.08264566210652
 20
-9.111354472529557
 11
-29.51442819759323
 21
-9.345614934148825
  0
LINE
  8
0
 10
-29.51442819759323
 20
-9.345614934148825
 11
-30.10190787876707
 21
-9.731248721354962
  0
LINE
  8
0
 10
-30.10190787876707
 20
-9.731248721354962
 11
-30.821539940719312
 21
-10.295141698176016
  0
LINE
  8
0
 10
-30.821539940719312
 20
-10.295141698176016
 11
-31.646444692309796
 21
-11.06120022951998
  0
LINE
  8
0
 10
-31.646444692309796
 20
-11.06120022951998
 11
-32.261717593281276
 21
-11.736943113712965
  0
LINE
  8
0
 10
-32.261717593281276
 20
-11.736943113712965
 11
-31.96336111914105
 21
-12.655189922384011
  0
LINE
  8
0
 10
-31.96336111914105
 20
-12.655189922384011
 11
-31.552270433173337
 21
-13.528802099042812
  0
LINE
  8
0
 10
-31.552270433173337
 20
-13.528802099042812
 11
-30.641177955336275
 21
-13.60021417810639
  0
LINE
  8
0
 10
-30.641177955336275
 20
-13.60021417810639
 11
-29.515445120212078
 21
-13.593960653856572
  0
LINE
  8
0
 10
-29.515445120212078
 20
-13.593960653856572
 11
-28.60484461842641
 21
-13.512398897839459
  0
LINE
  8
0
 10
-28.60484461842641
 20
-13.512398897839459
 11
-27.91260586862281
 21
-13.39135631484695
  0
LINE
  8
0
 10
-27.91260586862281
 20
-13.39135631484695
 11
-27.437487625349593
 21
-13.266549356954739
  0
LINE
  8
0
 10
-27.437487625349593
 20
-13.266549356954739
 11
-26.930893722153122
 21
-13.086973143939696
  0
LINE
  8
0
 10
-26.930893722153122
 20
-13.086973143939696
 11
-26.45582217778354
 21
-13.008679490004242
  0
LINE
  8
0
 10
-26.45582217778354
 20
-13.008679490004242
 11
-26.166899665789686
 21
-13.086107890084655
  0
LINE
  8
0
 10
-26.166899665789686
 20
-13.086107890084655
 11
-25.069892310187846
 21
-15.081556862142081
  0
LINE
  8
0
 10
-25.069892310187846
 20
-15.081556862142081
 11
-25.159329773371844
 21
-15.366990418780313
  0
LINE
  8
0
 10
-25.159329773371844
 20
-15.366990418780313
 11
-25.479991354784126
 21
-15.726154752647789
  0
LINE
  8
0
 10
-25.479991354784126
 20
-15.726154752647789
 11
-25.90305915369463
 21
-16.057664385330902
  0
LINE
  8
0
 10
-25.90305915369463
 20
-16.057664385330902
 11
-26.2630182390692
 21
-16.39194507380349
  0
LINE
  8
0
 10
-26.2630182390692
 20
-16.39194507380349
 11
-26.73613794273215
 21
-16.911563722076384
  0
LINE
  8
0
 10
-26.73613794273215
 20
-16.911563722076384
 11
-27.292926959368685
 21
-17.63670618039107
  0
LINE
  8
0
 10
-27.292926959368685
 20
-17.63670618039107
 11
-27.90140480157262
 21
-18.583843043884553
  0
LINE
  8
0
 10
-27.90140480157262
 20
-18.583843043884553
 11
-28.329297351329952
 21
-19.391368371084564
  0
LINE
  8
0
 10
-28.329297351329952
 20
-19.391368371084564
 11
-27.811955599226124
 21
-20.206568529834602
  0
LINE
  8
0
 10
-27.811955599226124
 20
-20.206568529834602
 11
-27.196521569461858
 21
-20.950500477195416
  0
LINE
  8
0
 10
-27.196521569461858
 20
-20.950500477195416
 11
-26.296293275313385
 21
-20.79308952896754
  0
LINE
  8
0
 10
-26.296293275313385
 20
-20.79308952896754
 11
-25.20748259552257
 21
-20.50707409893664
  0
LINE
  8
0
 10
-25.20748259552257
 20
-20.50707409893664
 11
-24.345773866878552
 21
-20.201617619425047
  0
LINE
  8
0
 10
-24.345773866878552
 20
-20.201617619425047
 11
-23.705385136644594
 21
-19.91222503517919
  0
LINE
  8
0
 10
-23.705385136644594
 20
-19.91222503517919
 11
-23.27623183494075
 21
-19.673182015063524
  0
LINE
  8
0
 10
-23.27623183494075
 20
-19.673182015063524
 11
-22.83021229892642
 21
-19.373262738373572
  0
LINE
  8
0
 10
-22.83021229892642
 20
-19.373262738373572
 11
-22.389536840681604
 21
-19.179283334783953
  0
LINE
  8
0
 10
-22.389536840681604
 20
-19.179283334783953
 11
-22.09043570061402
 21
-19.182427072387835
  0
LINE
  8
0
 10
-22.09043570061402
 20
-19.182427072387835
 11
-20.531644868639642
 21
-20.84237071013046
  0
LINE
  8
0
 10
-20.531644868639642
 20
-20.84237071013046
 11
-20.5472880504603
 21
-21.14107903933884
  0
LINE
  8
0
 10
-20.5472880504603
 20
-21.14107903933884
 11
-20.76855492097397
 21
-21.56870485770039
  0
LINE
  8
0
 10
-20.76855492097397
 20
-21.56870485770039
 11
-21.095888173868406
 21
-21.995012188843326
  0
LINE
  8
0
 10
-21.095888173868406
 20
-21.995012188843326
 11
-21.361406255959846
 21
-22.408309019114125
  0
LINE
  8
0
 10
-21.361406255959846
 20
-22.408309019114125
 11
-21.690438131118203
 21
-23.02926297775908
  0
LINE
  8
0
 10
-21.690438131118203
 20
-23.02926297775908
 11
-22.049399000796996
 21
-23.870091550024075
  0
LINE
  8
0
 10
-22.049399000796996
 20
-23.870091550024075
 11
-22.403217032963745
 21
-24.938794653208063
  0
LINE
  8
0
 10
-22.403217032963745
 20
-24.938794653208063
 11
-22.61684316892696
 21
-25.827362637236714
  0
LINE
  8
0
 10
-22.61684316892696
 20
-25.827362637236714
 11
-21.91302262379409
 21
-26.488294121995022
  0
LINE
  8
0
 10
-21.91302262379409
 20
-26.488294121995022
 11
-21.131915233731394
 21
-27.05580185981485
  0
LINE
  8
0
 10
-21.131915233731394
 20
-27.05580185981485
 11
-20.299115777800935
 21
-26.67945859308964
  0
LINE
  8
0
 10
-20.299115777800935
 20
-26.67945859308964
 11
-19.315641232720324
 21
-26.131652658637684
  0
LINE
  8
0
 10
-19.315641232720324
 20
-26.131652658637684
 11
-18.556968605781677
 21
-25.62149440962967
  0
LINE
  8
0
 10
-18.556968605781677
 20
-25.62149440962967
 11
-18.008667874222972
 21
-25.181935424510105
  0
LINE
  8
0
 10
-18.008667874222972
 20
-25.181935424510105
 11
-17.652444794349982
 21
-24.843676294263584
  0
LINE
  8
0
 10
-17.652444794349982
 20
-24.843676294263584
 11
-17.29502467331069
 21
-24.442258985079096
  0
LINE
  8
0
 10
-17.29502467331069
 20
-24.442258985079096
 11
-16.916434560923122
 21
-24.14478227116919
  0
LINE
  8
0
 10
-16.916434560923122
 20
-24.14478227116919
 11
-16.6259484174293
 21
-24.073443813701033
  0
LINE
  8
0
 10
-16.6259484174293
 20
-24.073443813701033
 11
-14.703318669886995
 21
-25.293581753523817
  0
LINE
  8
0
 10
-14.703318669886995
 20
-25.293581753523817
 11
-14.64418465169892
 21
-25.586795912405805
  0
LINE
  8
0
 10
-14.64418465169892
 20
-25.586795912405805
 11
-14.75215380007698
 21
-26.056013912396015
  0
LINE
  8
0
 10
-14.75215380007698
 20
-26.056013912396015
 11
-14.963184954828506
 21
-26.550332484534376
  0
LINE
  8
0
 10
-14.963184954828506
 20
-26.550332484534376
 11
-15.117578556031802
 21
-27.01667649675806
  0
LINE
  8
0
 10
-15.117578556031802
 20
-27.01667649675806
 11
-15.281848319874783
 21
-27.699948944844497
  0
LINE
  8
0
 10
-15.281848319874783
 20
-27.699948944844497
 11
-15.420426210988184
 21
-28.60363127951322
  0
LINE
  8
0
 10
-15.420426210988184
 20
-28.60363127951322
 11
-15.497352744905008
 21
-29.72675007599958
  0
LINE
  8
0
 10
-15.497352744905008
 20
-29.72675007599958
 11
-15.483289551289564
 21
-30.640528722495905
  0
LINE
  8
0
 10
-15.483289551289564
 20
-30.640528722495905
 11
-14.63721384644928
 21
-31.105662777339134
  0
LINE
  8
0
 10
-14.63721384644928
 20
-31.105662777339134
 11
-13.739512946117822
 21
-31.46108770730329
  0
LINE
  8
0
 10
-13.739512946117822
 20
-31.46108770730329
 11
-13.02647018104364
 21
-30.889459153622816
  0
LINE
  8
0
 10
-13.02647018104364
 20
-30.889459153622816
 11
-12.21012709330701
 21
-30.114283376300712
  0
LINE
  8
0
 10
-12.21012709330701
 20
-30.114283376300712
 11
-11.602160759427038
 21
-29.43147847681225
  0
LINE
  8
0
 10
-11.602160759427038
 20
-29.43147847681225
 11
-11.180399778016449
 21
-28.869372198438906
  0
LINE
  8
0
 10
-11.180399778016449
 20
-28.869372198438906
 11
-10.919489726179581
 21
-28.453151023244978
  0
LINE
  8
0
 10
-10.919489726179581
 20
-28.453151023244978
 11
-10.673127040819473
 21
-27.975458207411606
  0
LINE
  8
0
 10
-10.673127040819473
 20
-27.975458207411606
 11
-10.380410483407507
 21
-27.5931757391592
  0
LINE
  8
0
 10
-10.380410483407507
 20
-27.5931757391592
 11
-10.116791649216465
 21
-27.451837544266215
  0
LINE
  8
0
 10
-10.116791649216465
 20
-27.451837544266215
 11
-7.9511288840819105
 21
-28.155504032056662
  0
LINE
  8
0
 10
-7.9511288840819105
 20
-28.155504032056662
 11
-7.8209332737275705
 21
-28.42480029664345
  0
LINE
  8
0
 10
-7.8209332737275705
 20
-28.42480029664345
 11
-7.8088206012946735
 21
-28.906127785659848
  0
LINE
  8
0
 10
-7.8088206012946735
 20
-28.906127785659848
 11
-7.890289794331951
 21
-29.437397744929637
  0
LINE
  8
0
 10
-7.890289794331951
 20
-29.437397744929637
 11
-7.92385779686356
 21
-29.927486829724888
  0
LINE
  8
0
 10
-7.92385779686356
 20
-29.927486829724888
 11
-7.913043775986979
 21
-30.630145246439255
  0
LINE
  8
0
 10
-7.913043775986979
 20
-30.630145246439255
 11
-7.822531329982498
 21
-31.53989965891332
  0
LINE
  8
0
 10
-7.822531329982498
 20
-31.53989965891332
 11
-7.617732788607404
 21
-32.64686446417682
  0
LINE
  8
0
 10
-7.617732788607404
 20
-32.64686446417682
 11
-7.3768639075889695
 21
-33.528437700138674
  0
LINE
  8
0
 10
-7.3768639075889695
 20
-33.528437700138674
 11
-6.441695091225109
 21
-33.76854824175766
  0
LINE
  8
0
 10
-6.441695091225109
 20
-33.76854824175766
 11
-5.483806529705683
 21
-33.88955770835504
  0
LINE
  8
0
 10
-5.483806529705683
 20
-33.88955770835504
 11
-4.935323554805239
 21
-33.15856139204981
  0
LINE
  8
0
 10
-4.935323554805239
 20
-33.15856139204981
 11
-4.337405762914953
 21
-32.20472291684379
  0
LINE
  8
0
 10
-4.337405762914953
 20
-32.20472291684379
 11
-3.9183464827951004
 21
-31.392174509890495
  0
LINE
  8
0
 10
-3.9183464827951004
 20
-31.392174509890495
 11
-3.6496260451230396
 21
-30.74284014301585
  0
LINE
  8
0
 10
-3.6496260451230396
 20
-30.74284014301585
 11
-3.5004229594392524
 21
-30.27480963006636
  0
LINE
  8
0
 10
-3.5004229594392524
 20
-30.27480963006636
 11
-3.3805975833380852
 21
-29.750856504034196
  0
LINE
  8
0
 10
-3.3805975833380852
 20
-29.750856504034196
 11
-3.1921470387401047
 21
-29.30778849485616
  0
LINE
  8
0
 10
-3.1921470387401047
 20
-29.30778849485616
 11
-2.9719596547263203
 21
-29.105331361128997
  0
LINE
  8
0
 10
-2.9719596547263203
 20
-29.105331361128997
 11
-0.6993404282834281
 21
-29.24831244355491
  0
LINE
  8
0
 10
-0.6993404282834281
 20
-29.24831244355491
 11
-0.5062638947873419
 21
-29.476769939140134
  0
LINE
  8
0
 10
-0.5062638947873419
 20
-29.476769939140134
 11
-0.3748304852997421
 21
-29.93996334084914
  0
LINE
  8
0
 10
-0.3748304852997421
 20
-29.93996334084914
 11
-0.32161870760150524
 21
-30.474803041835205
  0
LINE
  8
0
 10
-0.32161870760150524
 20
-30.474803041835205
 11
-0.2322519104078874
 21
-30.95784309958276
  0
LINE
  8
0
 10
-0.2322519104078874
 20
-30.95784309958276
 11
-0.04703358951460441
 21
-31.635736872406007
  0
LINE
  8
0
 10
-0.04703358951460441
 20
-31.635736872406007
 11
0.26688196374380424
 21
-32.494400147106994
  0
LINE
  8
0
 10
0.26688196374380424
 20
-32.494400147106994
 11
0.7405373348598716
 21
-33.51565629130115
  0
LINE
  8
0
 10
0.7405373348598716
 20
-33.51565629130115
 11
1.1930772256331308
 21
-34.30963162811348
  0
LINE
  8
0
 10
1.1930772256331308
 20
-34.30963162811348
 11
2.1585790574780472
 21
-34.30963162811348
  0
LINE
  8
0
 10
2.1585790574780472
 20
-34.30963162811348
 11
3.1164676189974725
 21
-34.1886221615161
  0
LINE
  8
0
 10
3.1164676189974725
 20
-34.1886221615161
 11
3.465927601231907
 21
-33.344189269555955
  0
LINE
  8
0
 10
3.465927601231907
 20
-33.344189269555955
 11
3.807850723423571
 21
-32.27162127583574
  0
LINE
  8
0
 10
3.807850723423571
 20
-32.27162127583574
 11
4.011671914021149
 21
-31.38038476617049
  0
LINE
  8
0
 10
4.011671914021149
 20
-31.38038476617049
 11
4.110467114571105
 21
-30.68462237715004
  0
LINE
  8
0
 10
4.110467114571105
 20
-30.68462237715004
 11
4.138588255497735
 21
-30.194190604869412
  0
LINE
  8
0
 10
4.138588255497735
 20
-30.194190604869412
 11
4.124347253272621
 21
-29.65689907051187
  0
LINE
  8
0
 10
4.124347253272621
 20
-29.65689907051187
 11
4.196690744266902
 21
-29.180885112915007
  0
LINE
  8
0
 10
4.196690744266902
 20
-29.180885112915007
 11
4.359611494973289
 21
-28.930030166651
  0
LINE
  8
0
 10
4.359611494973289
 20
-28.930030166651
 11
6.596390158618259
 21
-28.503341816455922
  0
LINE
  8
0
 10
6.596390158618259
 20
-28.503341816455922
 11
6.840215906570711
 21
-28.676605718384067
  0
LINE
  8
0
 10
6.840215906570711
 20
-28.676605718384067
 11
7.082711608616641
 21
-29.092560887850137
  0
LINE
  8
0
 10
7.082711608616641
 20
-29.092560887850137
 11
7.267260865358383
 21
-29.597364385136693
  0
LINE
  8
0
 10
7.267260865358383
 20
-29.597364385136693
 11
7.473947217741463
 21
-30.043004232511212
  0
LINE
  8
0
 10
7.473947217741463
 20
-30.043004232511212
 11
7.821931890364388
 21
-30.653538802577952
  0
LINE
  8
0
 10
7.821931890364388
 20
-30.653538802577952
 11
8.33952608216485
 21
-31.407157968013767
  0
LINE
  8
0
 10
8.33952608216485
 20
-31.407157968013767
 11
9.052276774072066
 21
-32.2785361716815
  0
LINE
  8
0
 10
9.052276774072066
 20
-32.2785361716815
 11
9.68805292893757
 21
-32.935025218895355
  0
LINE
  8
0
 10
9.68805292893757
 20
-32.935025218895355
 11
10.623221745301466
 21
-32.69491467727637
  0
LINE
  8
0
 10
10.623221745301466
 20
-32.69491467727637
 11
11.520922645632924
 21
-32.339489747312214
  0
LINE
  8
0
 10
11.520922645632924
 20
-32.339489747312214
 11
11.649401779293646
 21
-31.434679103905953
  0
LINE
  8
0
 10
11.649401779293646
 20
-31.434679103905953
 11
11.713845944514105
 21
-30.310774983346136
  0
LINE
  8
0
 10
11.713845944514105
 20
-30.310774983346136
 11
11.689622210582257
 21
-29.396850038609806
  0
LINE
  8
0
 10
11.689622210582257
 20
-29.396850038609806
 11
11.612284508216225
 21
-28.698376937180768
  0
LINE
  8
0
 10
11.612284508216225
 20
-28.698376937180768
 11
11.517556749678954
 21
-28.21635953750329
  0
LINE
  8
0
 10
11.517556749678954
 20
-28.21635953750329
 11
11.370144183672101
 21
-27.699489597944087
  0
LINE
  8
0
 10
11.370144183672101
 20
-27.699489597944087
 11
11.321835013462765
 21
-27.22043939954109
  0
LINE
  8
0
 10
11.321835013462765
 20
-27.22043939954109
 11
11.417252220914262
 21
-26.936948779593962
  0
LINE
  8
0
 10
11.417252220914262
 20
-26.936948779593962
 11
13.47764529202801
 21
-25.967401395070624
  0
LINE
  8
0
 10
13.47764529202801
 20
-25.967401395070624
 11
13.7568997859646
 21
-26.07458489516349
  0
LINE
  8
0
 10
13.7568997859646
 20
-26.07458489516349
 11
14.09522088377251
 21
-26.417165839312965
  0
LINE
  8
0
 10
14.09522088377251
 20
-26.417165839312965
 11
14.399511711031986
 21
-26.860214472628105
  0
LINE
  8
0
 10
14.399511711031986
 20
-26.860214472628105
 11
14.710530754945069
 21
-27.240452919070332
  0
LINE
  8
0
 10
14.710530754945069
 20
-27.240452919070332
 11
15.199416622518632
 21
-27.74526615395419
  0
LINE
  8
0
 10
15.199416622518632
 20
-27.74526615395419
 11
15.88816710621205
 21
-28.34648854634309
  0
LINE
  8
0
 10
15.88816710621205
 20
-28.34648854634309
 11
16.795228371624205
 21
-29.013236912243098
  0
LINE
  8
0
 10
16.795228371624205
 20
-29.013236912243098
 11
17.57429263655062
 21
-29.490990048624205
  0
LINE
  8
0
 10
17.57429263655062
 20
-29.490990048624205
 11
18.42036834139091
 21
-29.025855993780983
  0
LINE
  8
0
 10
18.42036834139091
 20
-29.025855993780983
 11
19.201475731453606
 21
-28.458348255961162
  0
LINE
  8
0
 10
19.201475731453606
 20
-28.458348255961162
 11
19.100901200059514
 21
-27.55001244149477
  0
LINE
  8
0
 10
19.100901200059514
 20
-27.55001244149477
 11
18.883817144398904
 21
-26.445391223420337
  0
LINE
  8
0
 10
18.883817144398904
 20
-26.445391223420337
 11
18.63307055222923
 21
-25.566203109071537
  0
LINE
  8
0
 10
18.63307055222923
 20
-25.566203109071537
 11
18.38445935921504
 21
-24.908906929001077
  0
LINE
  8
0
 10
18.38445935921504
 20
-24.908906929001077
 11
18.172834794667097
 21
-24.46559082788448
  0
LINE
  8
0
 10
18.172834794667097
 20
-24.46559082788448
 11
17.90151313854621
 21
-24.001619322340783
  0
LINE
  8
0
 10
17.90151313854621
 20
-24.001619322340783
 11
17.73558674996621
 21
-23.549633368920702
  0
LINE
  8
0
 10
17.73558674996621
 20
-23.549633368920702
 11
17.757505000098703
 21
-23.251319833547296
  0
LINE
  8
0
 10
17.757505000098703
 20
-23.251319833547296
 11
19.512050404427494
 21
-21.79983364261116
  0
LINE
  8
0
 10
19.512050404427494
 20
-21.79983364261116
 11
19.809187057468005
 21
-21.834202007364567
  0
LINE
  8
0
 10
19.809187057468005
 20
-21.834202007364567
 11
20.22207559220466
 21
-22.081883105551956
  0
LINE
  8
0
 10
20.22207559220466
 20
-22.081883105551956
 11
20.626988278201775
 21
-22.4353384998456
  0
LINE
  8
0
 10
20.626988278201775
 20
-22.4353384998456
 11
21.022797543267767
 21
-22.726283765346384
  0
LINE
  8
0
 10
21.022797543267767
 20
-22.726283765346384
 11
21.621866108735876
 21
-23.093656392926402
  0
LINE
  8
0
 10
21.621866108735876
 20
-23.093656392926402
 11
22.4384961583847
 21
-23.504704998213306
  0
LINE
  8
0
 10
22.4384961583847
 20
-23.504704998213306
 11
23.482874002057965
 21
-23.92492927438712
  0
LINE
  8
0
 10
23.482874002057965
 20
-23.92492927438712
 11
24.356274904082014
 21
-24.193927513323537
  0
LINE
  8
0
 10
24.356274904082014
 20
-24.193927513323537
 11
25.060095449214867
 21
-23.532996028565258
  0
LINE
  8
0
 10
25.060095449214867
 20
-23.532996028565258
 11
25.67552947897914
 21
-22.789064081204447
  0
LINE
  8
0
 10
25.67552947897914
 20
-22.789064081204447
 11
25.352220750224976
 21
-21.934277175526297
  0
LINE
  8
0
 10
25.352220750224976
 20
-21.934277175526297
 11
24.867248663279764
 21
-20.918346273581527
  0
LINE
  8
0
 10
24.867248663279764
 20
-20.918346273581527
 11
24.405734543439745
 21
-20.129137612272494
  0
LINE
  8
0
 10
24.405734543439745
 20
-20.129137612272494
 11
24.00147101536249
 21
-19.55431868992069
  0
LINE
  8
0
 10
24.00147101536249
 20
-19.55431868992069
 11
23.68624679449512
 21
-19.1775590684007
  0
LINE
  8
0
 10
23.68624679449512
 20
-19.1775590684007
 11
23.30806418576553
 21
-18.79563903293366
  0
LINE
  8
0
 10
23.30806418576553
 20
-18.79563903293366
 11
23.034946344043913
 21
-18.39911726423793
  0
LINE
  8
0
 10
23.034946344043913
 20
-18.39911726423793
 11
22.98198843259189
 21
-18.1047249499862
  0
LINE
  8
0
 10
22.98198843259189
 20
-18.1047249499862
 11
24.320441629615132
 21
-16.26250216820658
  0
LINE
  8
0
 10
24.320441629615132
 20
-16.26250216820658
 11
24.61679025305686
 21
-16.22189590686507
  0
LINE
  8
0
 10
24.61679025305686
 20
-16.22189590686507
 11
25.078302919586946
 21
-16.359114444783902
  0
LINE
  8
0
 10
25.078302919586946
 20
-16.359114444783902
 11
25.558395311095808
 21
-16.600767697714566
  0
LINE
  8
0
 10
25.558395311095808
 20
-16.600767697714566
 11
26.01412464550597
 21
-16.78413862122066
  0
LINE
  8
0
 10
26.01412464550597
 20
-16.78413862122066
 11
26.685734227680193
 21
-16.99098726820397
  0
LINE
  8
0
 10
26.685734227680193
 20
-16.99098726820397
 11
27.578931973909754
 21
-17.186034390787675
  0
LINE
  8
0
 10
27.578931973909754
 20
-17.186034390787675
 11
28.69500429497311
 21
-17.333330340486526
  0
LINE
  8
0
 10
28.69500429497311
 20
-17.333330340486526
 11
29.6078628432768
 21
-17.376671533319545
  0
LINE
  8
0
 10
29.6078628432768
 20
-17.376671533319545
 11
30.125204595380634
 21
-16.56147137456951
  0
LINE
  8
0
 10
30.125204595380634
 20
-16.56147137456951
 11
30.536295281348355
 21
-15.687859197910711
  0
LINE
  8
0
 10
30.536295281348355
 20
-15.687859197910711
 11
30.01056703170807
 21
-14.940330605990889
  0
LINE
  8
0
 10
30.01056703170807
 20
-14.940330605990889
 11
29.288179493303595
 21
-14.076924695077475
  0
LINE
  8
0
 10
29.288179493303595
 20
-14.076924695077475
 11
28.644896475272983
 21
-13.427284369504676
  0
LINE
  8
0
 10
28.644896475272983
 20
-13.427284369504676
 11
28.110381976379006
 21
-12.971060691799016
  0
LINE
  8
0
 10
28.110381976379006
 20
-12.971060691799016
 11
27.7113647963029
 21
-12.684530742520687
  0
LINE
  8
0
 10
27.7113647963029
 20
-12.684530742520687
 11
27.250083839129427
 21
-12.408659617562337
  0
LINE
  8
0
 10
27.250083839129427
 20
-12.408659617562337
 11
26.886935542718724
 21
-12.09251695462317
  0
LINE
  8
0
 10
26.886935542718724
 20
-12.09251695462317
 11
26.76242901002429
 21
-11.820543613296742
  0
LINE
  8
0
 10
26.76242901002429
 20
-11.820543613296742
 11
27.600690062886486
 21
-9.70333787327431
  0
LINE
  8
0
 10
27.600690062886486
 20
-9.70333787327431
 11
27.877629982824583
 21
-9.590308426577353
  0
LINE
  8
0
 10
27.877629982824583
 20
-9.590308426577353
 11
28.358768242985157
 21
-9.608442458835706
  0
LINE
  8
0
 10
28.358768242985157
 20
-9.608442458835706
 11
28.883874369390963
 21
-9.723109607783258
  0
LINE
  8
0
 10
28.883874369390963
 20
-9.723109607783258
 11
29.37088862300905
 21
-9.78738431977969
  0
LINE
  8
0
 10
29.37088862300905
 20
-9.78738431977969
 11
30.072839521834126
 21
-9.820711924940221
  0
LINE
  8
0
 10
30.072839521834126
 20
-9.820711924940221
 11
30.986482065297288
 21
-9.78750203677566
  0
LINE
  8
0
 10
30.986482065297288
 20
-9.78750203677566
 11
32.10412193519145
 21
-9.652614513763353
  0
LINE
  8
0
 10
32.10412193519145
 20
-9.652614513763353
 11
32.99907986992597
 21
-9.46757537394953
  0
LINE
  8
0
 10
0.3118675362266391
 20
-1.4672214011007085
 11
9.18454765366783e-17
 21
-1.5
  0
LINE
  8
0
 10
9.18454765366783e-17
 20
-1.5
 11
-0.3118675362266384
 21
-1.4672214011007085
  0
LINE
  8
0
 10
-0.3118675362266384
 20
-1.4672214011007085
 11
-0.6101049646137001
 21
-1.3703181864639014
  0
LINE
  8
0
 10
-0.6101049646137001
 20
-1.3703181864639014
 11
-0.8816778784387099
 21
-1.213525491562421
  0
LINE
  8
0
 10
-0.8816778784387099
 20
-1.213525491562421
 11
-1.114717238216091
 21
-1.0036959095382878
  0
LINE
  8
0
 10
-1.114717238216091
 20
-1.0036959095382878
 11
-1.299038105676658
 21
-0.7500000000000003
  0
LINE
  8
0
 10
-1.299038105676658
 20
-0.7500000000000003
 11
-1.4265847744427305
 21
-0.46352549156242095
  0
LINE
  8
0
 10
-1.4265847744427305
 20
-0.46352549156242095
 11
-1.49178284305241
 21
-0.15679269490147957
  0
LINE
  8
0
 10
-1.49178284305241
 20
-0.15679269490147957
 11
-1.4917828430524098
 21
0.15679269490148126
  0
LINE
  8
0
 10
-1.4917828430524098
 20
0.15679269490148126
 11
-1.4265847744427302
 21
0.46352549156242123
  0
LINE
  8
0
 10
-1.4265847744427302
 20
0.46352549156242123
 11
-1.2990381056766576
 21
0.7500000000000006
  0
LINE
  8
0
 10
-1.2990381056766576
 20
0.7500000000000006
 11
-1.114717238216091
 21
1.0036959095382878
  0
LINE
  8
0
 10
-1.114717238216091
 20
1.0036959095382878
 11
-0.8816778784387097
 21
1.2135254915624214
  0
LINE
  8
0
 10
-0.8816778784387097
 20
1.2135254915624214
 11
-0.6101049646137005
 21
1.3703181864639014
  0
LINE
  8
0
 10
-0.6101049646137005
 20
1.3703181864639014
 11
-0.3118675362266387
 21
1.4672214011007085
  0
LINE
  8
0
 10
-0.3118675362266387
 20
1.4672214011007085
 11
7.579792913117722e-16
 21
1.5
  0
LINE
  8
0
 10
7.579792913117722e-16
 20
1.5
 11
0.3118675362266389
 21
1.4672214011007085
  0
LINE
  8
0
 10
0.3118675362266389
 20
1.4672214011007085
 11
0.6101049646136999
 21
1.3703181864639014
  0
LINE
  8
0
 10
0.6101049646136999
 20
1.3703181864639014
 11
0.8816778784387097
 21
1.213525491562421
  0
LINE
  8
0
 10
0.8816778784387097
 20
1.213525491562421
 11
1.1147172382160917
 21
1.003695909538287
  0
LINE
  8
0
 10
1.1147172382160917
 20
1.003695909538287
 11
1.299038105676658
 21
0.7499999999999998
  0
LINE
  8
0
 10
1.299038105676658
 20
0.7499999999999998
 11
1.4265847744427305
 21
0.4635254915624211
  0
LINE
  8
0
 10
1.4265847744427305
 20
0.4635254915624211
 11
1.49178284305241
 21
0.1567926949014801
  0
LINE
  8
0
 10
1.49178284305241
 20
0.1567926949014801
 11
1.4917828430524098
 21
-0.1567926949014801
  0
LINE
  8
0
 10
1.4917828430524098
 20
-0.1567926949014801
 11
1.4265847744427302
 21
-0.46352549156242107
  0
LINE
  8
0
 10
1.4265847744427302
 20
-0.46352549156242107
 11
1.299038105676658
 21
-0.7500000000000001
  0
LINE
  8
0
 10
1.299038105676658
 20
-0.7500000000000001
 11
1.1147172382160913
 21
-1.0036959095382874
  0
LINE
  8
0
 10
1.1147172382160913
 20
-1.0036959095382874
 11
0.8816778784387098
 21
-1.2135254915624212
  0
LINE
  8
0
 10
0.8816778784387098
 20
-1.2135254915624212
 11
0.6101049646137003
 21
-1.3703181864639014
  0
LINE
  8
0
 10
0.6101049646137003
 20
-1.3703181864639014
 11
0.3118675362266391
 21
-1.4672214011007085
  0
ENDSEC
  0
SECTION
  2
OBJECTS
  0
DICTIONARY
  0
ENDSEC
  0
EOF
