  0
SECTION
  2
BLOCKS
  0
ENDSEC
  0
SECTION
  2
ENTITIES
  0
LINE
  8
0
 10
30.33044595204397
 20
-9.488751033149962
 11
30.65060921400824
 21
-8.587897951974664
  0
LINE
  8
0
 10
30.65060921400824
 20
-8.587897951974664
 11
30.845124312681723
 21
-7.6518399064653675
  0
LINE
  8
0
 10
30.845124312681723
 20
-7.6518399064653675
 11
30.187278773772515
 21
-7.051986418092859
  0
LINE
  8
0
 10
30.187278773772515
 20
-7.051986418092859
 11
29.271626708864023
 21
-6.358413630221266
  0
LINE
  8
0
 10
29.271626708864023
 20
-6.358413630221266
 11
28.49184083452322
 21
-5.872563704276543
  0
LINE
  8
0
 10
28.49184083452322
 20
-5.872563704276543
 11
27.876495257294632
 21
-5.562972042869413
  0
LINE
  8
0
 10
27.876495257294632
 20
-5.562972042869413
 11
27.44948253984563
 21
-5.394849757700712
  0
LINE
  8
0
 10
27.44948253984563
 20
-5.394849757700712
 11
26.95493839219734
 21
-5.250487630447284
  0
LINE
  8
0
 10
26.95493839219734
 20
-5.250487630447284
 11
26.48717973251113
 21
-5.01597451492143
  0
LINE
  8
0
 10
26.48717973251113
 20
-5.01597451492143
 11
26.284423288381515
 21
-4.761971395143243
  0
LINE
  8
0
 10
26.284423288381515
 20
-4.761971395143243
 11
26.594490079101394
 21
-2.5060679566906936
  0
LINE
  8
0
 10
26.594490079101394
 20
-2.5060679566906936
 11
26.858256985854986
 21
-2.3161869955739087
  0
LINE
  8
0
 10
26.858256985854986
 20
-2.3161869955739087
 11
27.371940766936298
 21
-2.2165700385883245
  0
LINE
  8
0
 10
27.371940766936298
 20
-2.2165700385883245
 11
27.887094311873824
 21
-2.2109876648475177
  0
LINE
  8
0
 10
27.887094311873824
 20
-2.2109876648475177
 11
28.343631089120862
 21
-2.164306462480737
  0
LINE
  8
0
 10
28.343631089120862
 20
-2.164306462480737
 11
29.01968481375205
 21
-2.0322135495751095
  0
LINE
  8
0
 10
29.01968481375205
 20
-2.0322135495751095
 11
29.901634853871382
 21
-1.7747639679177754
  0
LINE
  8
0
 10
29.901634853871382
 20
-1.7747639679177754
 11
30.97045575509327
 21
-1.3539507110594118
  0
LINE
  8
0
 10
30.97045575509327
 20
-1.3539507110594118
 11
31.76574513124796
 21
-0.9538260195452845
  0
LINE
  8
0
 10
31.76574513124796
 20
-0.9538260195452845
 11
31.830988618379063
 21
1.7266470612548824e-16
  0
LINE
  8
0
 10
31.830988618379063
 20
1.7266470612548824e-16
 11
31.76574513124796
 21
0.9538260195452877
  0
LINE
  8
0
 10
31.76574513124796
 20
0.9538260195452877
 11
30.970455755097472
 21
1.3539507110573015
  0
LINE
  8
0
 10
30.970455755097472
 20
1.3539507110573015
 11
29.901634853871247
 21
1.774763967917294
  0
LINE
  8
0
 10
29.901634853871247
 20
1.774763967917294
 11
29.019684813752104
 21
2.0322135495751095
  0
LINE
  8
0
 10
29.019684813752104
 20
2.0322135495751095
 11
28.3436310891209
 21
2.1643064624807336
  0
LINE
  8
0
 10
28.3436310891209
 20
2.1643064624807336
 11
27.88709431187384
 21
2.210987664847365
  0
LINE
  8
0
 10
27.88709431187384
 20
2.210987664847365
 11
27.371940766936287
 21
2.216570038587882
  0
LINE
  8
0
 10
27.371940766936287
 20
2.216570038587882
 11
26.85825698585495
 21
2.3161869955734415
  0
LINE
  8
0
 10
26.85825698585495
 20
2.3161869955734415
 11
26.594490079101405
 21
2.506067956690682
  0
LINE
  8
0
 10
26.594490079101405
 20
2.506067956690682
 11
26.284423288381504
 21
4.761971395143228
  0
LINE
  8
0
 10
26.284423288381504
 20
4.761971395143228
 11
26.48717973251129
 21
5.01597451492099
  0
LINE
  8
0
 10
26.48717973251129
 20
5.01597451492099
 11
26.954938392197473
 21
5.2504876304468615
  0
LINE
  8
0
 10
26.954938392197473
 20
5.2504876304468615
 11
27.449482539845654
 21
5.39484975770056
  0
LINE
  8
0
 10
27.449482539845654
 20
5.39484975770056
 11
27.876495257294597
 21
5.562972042869399
  0
LINE
  8
0
 10
27.876495257294597
 20
5.562972042869399
 11
28.49184083452317
 21
5.872563704276529
  0
LINE
  8
0
 10
28.49184083452317
 20
5.872563704276529
 11
29.271626708864282
 21
6.35841363022084
  0
LINE
  8
0
 10
29.271626708864282
 20
6.35841363022084
 11
30.187278773769037
 21
7.051986418089693
  0
LINE
  8
0
 10
30.187278773769037
 20
7.051986418089693
 11
30.845124312681723
 21
7.651839906465372
  0
LINE
  8
0
 10
30.845124312681723
 20
7.651839906465372
 11
30.65060921400824
 21
8.587897951974659
  0
LINE
  8
0
 10
30.65060921400824
 20
8.587897951974659
 11
30.33044595204397
 21
9.488751033149965
  0
LINE
  8
0
 10
30.33044595204397
 20
9.488751033149965
 11
29.45669571347448
 21
9.659471509880701
  0
LINE
  8
0
 10
29.45669571347448
 20
9.659471509880701
 11
28.313975532644193
 21
9.77631544156034
  0
LINE
  8
0
 10
28.313975532644193
 20
9.77631544156034
 11
27.39527152656938
 21
9.786270821213156
  0
LINE
  8
0
 10
27.39527152656938
 20
9.786270821213156
 11
26.708649466551467
 21
9.73106825855193
  0
LINE
  8
0
 10
26.708649466551467
 20
9.73106825855193
 11
26.256447873757974
 21
9.652846246889252
  0
LINE
  8
0
 10
26.256447873757974
 20
9.652846246889252
 11
25.758891513288518
 21
9.519234847994186
  0
LINE
  8
0
 10
25.758891513288518
 20
9.519234847994186
 11
25.237380186907924
 21
9.476567512457086
  0
LINE
  8
0
 10
25.237380186907924
 20
9.476567512457086
 11
24.93216520235106
 21
9.58824371267491
  0
LINE
  8
0
 10
24.93216520235106
 20
9.58824371267491
 11
24.02496106559789
 21
11.676837113168958
  0
LINE
  8
0
 10
24.02496106559789
 20
11.676837113168958
 11
24.151669529191775
 21
11.976124142200735
  0
LINE
  8
0
 10
24.151669529191775
 20
11.976124142200735
 11
24.53881154754738
 21
12.328140651314458
  0
LINE
  8
0
 10
24.53881154754738
 20
12.328140651314458
 11
24.976068220864093
 21
12.60057585351543
  0
LINE
  8
0
 10
24.976068220864093
 20
12.60057585351543
 11
25.341887298714944
 21
12.87767036070363
  0
LINE
  8
0
 10
25.341887298714944
 20
12.87767036070363
 11
25.850887362096568
 21
13.341799773373308
  0
LINE
  8
0
 10
25.850887362096568
 20
13.341799773373308
 11
26.47067591964259
 21
14.020016777212822
  0
LINE
  8
0
 10
26.47067591964259
 20
14.020016777212822
 11
27.16524942340569
 21
14.934909975300313
  0
LINE
  8
0
 10
27.16524942340569
 20
14.934909975300313
 11
27.63686173089831
 21
15.69000387145183
  0
LINE
  8
0
 10
27.63686173089831
 20
15.69000387145183
 11
27.1970143414415
 21
16.53887079987032
  0
LINE
  8
0
 10
27.1970143414415
 20
16.53887079987032
 11
26.645676349134483
 21
17.319938790773488
  0
LINE
  8
0
 10
26.645676349134483
 20
17.319938790773488
 11
25.75826730619932
 21
17.248593495958044
  0
LINE
  8
0
 10
25.75826730619932
 20
17.248593495958044
 11
24.62639817398017
 21
17.052802322570074
  0
LINE
  8
0
 10
24.62639817398017
 20
17.052802322570074
 11
23.739076275289083
 21
16.81452515525187
  0
LINE
  8
0
 10
23.739076275289083
 20
16.81452515525187
 11
23.09280949698907
 21
16.57612123856146
  0
LINE
  8
0
 10
23.09280949698907
 20
16.57612123856146
 11
22.678480812102002
 21
16.378797381632594
  0
LINE
  8
0
 10
22.678480812102002
 20
16.378797381632594
 11
22.23542311518777
 21
16.115901556326516
  0
LINE
  8
0
 10
22.23542311518777
 20
16.115901556326516
 11
21.74476235283
 21
15.934114369353471
  0
LINE
  8
0
 10
21.74476235283
 20
15.934114369353471
 11
21.42073568960875
 21
15.959303295786349
  0
LINE
  8
0
 10
21.42073568960875
 20
15.959303295786349
 11
19.983677387462517
 21
17.72568524048629
  0
LINE
  8
0
 10
19.983677387462517
 20
17.72568524048629
 11
20.024940483428406
 21
18.048059428975847
  0
LINE
  8
0
 10
20.024940483428406
 20
18.048059428975847
 11
20.302753308008885
 21
18.49147187756483
  0
LINE
  8
0
 10
20.302753308008885
 20
18.49147187756483
 11
20.6502931798504
 21
18.87177488207395
  0
LINE
  8
0
 10
20.6502931798504
 20
18.87177488207395
 11
20.927787490609894
 21
19.237290779306388
  0
LINE
  8
0
 10
20.927787490609894
 20
19.237290779306388
 11
21.2926918339639
 21
19.821535587951686
  0
LINE
  8
0
 10
21.2926918339639
 20
19.821535587951686
 11
21.706516192745628
 21
20.641819417147968
  0
LINE
  8
0
 10
21.706516192745628
 20
20.641819417147968
 11
22.12849779605532
 21
21.710179582309834
  0
LINE
  8
0
 10
22.12849779605532
 20
21.710179582309834
 11
22.378899544763893
 21
22.56451202628436
  0
LINE
  8
0
 10
22.378899544763893
 20
22.56451202628436
 11
21.726341333231836
 21
23.263231260839056
  0
LINE
  8
0
 10
21.726341333231836
 20
23.263231260839056
 11
20.984718827268004
 21
23.866585921733105
  0
LINE
  8
0
 10
20.984718827268004
 20
23.866585921733105
 11
20.14946604905542
 21
23.558466209504935
  0
LINE
  8
0
 10
20.14946604905542
 20
23.558466209504935
 11
19.11239352102737
 21
23.064560866694517
  0
LINE
  8
0
 10
19.11239352102737
 20
23.064560866694517
 11
18.322262335718342
 21
22.595723079859784
  0
LINE
  8
0
 10
18.322262335718342
 20
22.595723079859784
 11
17.764281489608955
 21
22.191799137015764
  0
LINE
  8
0
 10
17.764281489608955
 20
22.191799137015764
 11
17.418554575758776
 21
21.890008042592548
  0
LINE
  8
0
 10
17.418554575758776
 20
21.890008042592548
 11
17.062855104925806
 21
21.51732557157003
  0
LINE
  8
0
 10
17.062855104925806
 20
21.51732557157003
 11
16.6394349707113
 21
21.209900857197788
  0
LINE
  8
0
 10
16.6394349707113
 20
21.209900857197788
 11
16.320628204113437
 21
21.14673436240386
  0
LINE
  8
0
 10
16.320628204113437
 20
21.14673436240386
 11
14.460295776740042
 21
22.45990038313101
  0
LINE
  8
0
 10
14.460295776740042
 20
22.45990038313101
 11
14.413053210016232
 21
22.78145271228186
  0
LINE
  8
0
 10
14.413053210016232
 20
22.78145271228186
 11
14.560932734531562
 21
23.283375227511236
  0
LINE
  8
0
 10
14.560932734531562
 20
23.283375227511236
 11
14.79298036249252
 21
23.743340700254542
  0
LINE
  8
0
 10
14.79298036249252
 20
23.743340700254542
 11
14.961569422583622
 21
24.170169345557454
  0
LINE
  8
0
 10
14.961569422583622
 20
24.170169345557454
 11
15.155314760089738
 21
24.8311987854633
  0
LINE
  8
0
 10
15.155314760089738
 20
24.8311987854633
 11
15.332483460536807
 21
25.73271274095369
  0
LINE
  8
0
 10
15.332483460536807
 20
25.73271274095369
 11
15.450576718312995
 21
26.87530448716242
  0
LINE
  8
0
 10
15.450576718312995
 20
26.87530448716242
 11
15.461196756047583
 21
27.76551354990123
  0
LINE
  8
0
 10
15.461196756047583
 20
27.76551354990123
 11
14.64432497973444
 21
28.262264281393012
  0
LINE
  8
0
 10
14.64432497973444
 20
28.262264281393012
 11
13.767420708683918
 21
28.643157557243338
  0
LINE
  8
0
 10
13.767420708683918
 20
28.643157557243338
 11
13.046271072726734
 21
28.121115257104517
  0
LINE
  8
0
 10
13.046271072726734
 20
28.121115257104517
 11
12.180910074002496
 21
27.365726444681304
  0
LINE
  8
0
 10
12.180910074002496
 20
27.365726444681304
 11
11.54657001748024
 21
26.70109959218941
  0
LINE
  8
0
 10
11.54657001748024
 20
26.70109959218941
 11
11.118257990324887
 21
26.161612814203437
  0
LINE
  8
0
 10
11.118257990324887
 20
26.161612814203437
 11
10.866773831116477
 21
25.777736947156857
  0
LINE
  8
0
 10
10.866773831116477
 20
25.777736947156857
 11
10.624813188899642
 21
25.32290798438478
  0
LINE
  8
0
 10
10.624813188899642
 20
25.32290798438478
 11
10.300036817164871
 21
24.91264602730384
  0
LINE
  8
0
 10
10.300036817164871
 20
24.91264602730384
 11
10.01009438662504
 21
24.765808881234484
  0
LINE
  8
0
 10
10.01009438662504
 20
24.765808881234484
 11
7.864460179708203
 21
25.528367461566326
  0
LINE
  8
0
 10
7.864460179708203
 20
25.528367461566326
 11
7.732215715348245
 21
25.82524986612938
  0
LINE
  8
0
 10
7.732215715348245
 20
25.82524986612938
 11
7.73919439196893
 21
26.348457151187304
  0
LINE
  8
0
 10
7.73919439196893
 20
26.348457151187304
 11
7.8385398650307305
 21
26.85397155725345
  0
LINE
  8
0
 10
7.8385398650307305
 20
26.85397155725345
 11
7.885720195110118
 21
27.310457022615843
  0
LINE
  8
0
 10
7.885720195110118
 20
27.310457022615843
 11
7.893937321411456
 21
27.999245564232893
  0
LINE
  8
0
 10
7.893937321411456
 20
27.999245564232893
 11
7.821310571504579
 21
28.915128480090587
  0
LINE
  8
0
 10
7.821310571504579
 20
28.915128480090587
 11
7.6267570470587085
 21
30.047211004539314
  0
LINE
  8
0
 10
7.6267570470587085
 20
30.047211004539314
 11
7.396807734203978
 21
30.907273952294553
  0
LINE
  8
0
 10
7.396807734203978
 20
30.907273952294553
 11
6.4762060358191675
 21
31.16521445145207
  0
LINE
  8
0
 10
6.4762060358191675
 20
31.16521445145207
 11
5.529055977895661
 21
31.295397230459645
  0
LINE
  8
0
 10
5.529055977895661
 20
31.295397230459645
 11
4.975493853652756
 21
30.598149831626852
  0
LINE
  8
0
 10
4.975493853652756
 20
30.598149831626852
 11
4.346024250744553
 21
29.637301282134402
  0
LINE
  8
0
 10
4.346024250744553
 20
29.637301282134402
 11
3.9145214230886634
 21
28.82617769716913
  0
LINE
  8
0
 10
3.9145214230886634
 20
28.82617769716913
 11
3.6476441585443133
 21
28.19113935037664
  0
LINE
  8
0
 10
3.6476441585443133
 20
28.19113935037664
 11
3.5090541836026796
 21
27.75364902765029
  0
LINE
  8
0
 10
3.5090541836026796
 20
27.75364902765029
 11
3.3987774839389187
 21
27.250406156593407
  0
LINE
  8
0
 10
3.3987774839389187
 20
27.250406156593407
 11
3.1967320524224117
 21
26.767734209336897
  0
LINE
  8
0
 10
3.1967320524224117
 20
26.767734209336897
 11
2.957157661615395
 21
26.548116651380834
  0
LINE
  8
0
 10
2.957157661615395
 20
26.548116651380834
 11
0.6853535486587717
 21
26.703512309887536
  0
LINE
  8
0
 10
0.6853535486587717
 20
26.703512309887536
 11
0.47791515360607295
 21
26.953706380062975
  0
LINE
  8
0
 10
0.47791515360607295
 20
26.953706380062975
 11
0.34347540581248015
 21
27.45939454413077
  0
LINE
  8
0
 10
0.34347540581248015
 20
27.45939454413077
 11
0.3027507247134256
 21
27.972966192596356
  0
LINE
  8
0
 10
0.3027507247134256
 20
27.972966192596356
 11
0.22502317553475806
 21
28.42525303933435
  0
LINE
  8
0
 10
0.22502317553475806
 20
28.42525303933435
 11
0.0471026639644001
 21
29.09071638752878
  0
LINE
  8
0
 10
0.0471026639644001
 20
29.09071638752878
 11
-0.2699331425011032
 21
29.95304141777016
  0
LINE
  8
0
 10
-0.2699331425011032
 20
29.95304141777016
 11
-0.7627043042840335
 21
30.990653338553457
  0
LINE
  8
0
 10
-0.7627043042840335
 20
30.990653338553457
 11
-1.2161686791417567
 21
31.756783237016304
  0
LINE
  8
0
 10
-1.2161686791417567
 20
31.756783237016304
 11
-2.172223483101549
 21
31.756783237016307
  0
LINE
  8
0
 10
-2.172223483101549
 20
31.756783237016307
 11
-3.119373541025058
 21
31.626600458008728
  0
LINE
  8
0
 10
-3.119373541025058
 20
31.626600458008728
 11
-3.4642929831768
 21
30.805859610358787
  0
LINE
  8
0
 10
-3.4642929831768
 20
30.805859610358787
 11
-3.81118630945309
 21
29.71081306512332
  0
LINE
  8
0
 10
-3.81118630945309
 20
29.71081306512332
 11
-4.007849317509464
 21
28.813350073338054
  0
LINE
  8
0
 10
-4.007849317509464
 20
28.813350073338054
 11
-4.093498753613803
 21
28.129858046813517
  0
LINE
  8
0
 10
-4.093498753613803
 20
28.129858046813517
 11
-4.108915959854185
 21
27.67119992425896
  0
LINE
  8
0
 10
-4.108915959854185
 20
27.67119992425896
 11
-4.079329998633146
 21
27.156866366480614
  0
LINE
  8
0
 10
-4.079329998633146
 20
27.156866366480614
 11
-4.143659704572156
 21
26.63758199929931
  0
LINE
  8
0
 10
-4.143659704572156
 20
26.63758199929931
 11
-4.315097919060114
 21
26.361472059046665
  0
LINE
  8
0
 10
-4.315097919060114
 20
26.361472059046665
 11
-6.544582619810807
 21
25.898179810624622
  0
LINE
  8
0
 10
-6.544582619810807
 20
25.898179810624622
 11
-6.811830188762699
 21
26.083129796789247
  0
LINE
  8
0
 10
-6.811830188762699
 20
26.083129796789247
 11
-7.077717579897643
 21
26.53379426210742
  0
LINE
  8
0
 10
-7.077717579897643
 20
26.53379426210742
 11
-7.255492051863453
 21
27.01733389323972
  0
LINE
  8
0
 10
-7.255492051863453
 20
27.01733389323972
 11
-7.452362783557473
 21
27.431878075005404
  0
LINE
  8
0
 10
-7.452362783557473
 20
27.431878075005404
 11
-7.803225382588534
 21
28.02466185753388
  0
LINE
  8
0
 10
-7.803225382588534
 20
28.02466185753388
 11
-8.341157150189424
 21
28.76947429954046
  0
LINE
  8
0
 10
-8.341157150189424
 20
28.76947429954046
 11
-9.095599366518039
 21
29.635660687252525
  0
LINE
  8
0
 10
-9.095599366518039
 20
29.635660687252525
 11
-9.738947425157038
 21
30.25103718666506
  0
LINE
  8
0
 10
-9.738947425157038
 20
30.25103718666506
 11
-10.659549123541863
 21
29.99309668750754
  0
LINE
  8
0
 10
-10.659549123541863
 20
29.99309668750754
 11
-11.536453394592384
 21
29.612203411657212
  0
LINE
  8
0
 10
-11.536453394592384
 20
29.612203411657212
 11
-11.647149057530024
 21
28.728839709220775
  0
LINE
  8
0
 10
-11.647149057530024
 20
28.728839709220775
 11
-11.68573861609586
 21
27.5808097609978
  0
LINE
  8
0
 10
-11.68573861609586
 20
27.5808097609978
 11
-11.632976208918572
 21
26.66356808687325
  0
LINE
  8
0
 10
-11.632976208918572
 20
26.66356808687325
 11
-11.531045589727139
 21
25.98231385745602
  0
LINE
  8
0
 10
-11.531045589727139
 20
25.98231385745602
 11
-11.422146603608448
 21
25.53650450980184
  0
LINE
  8
0
 10
-11.422146603608448
 20
25.53650450980184
 11
-11.254892236899602
 21
25.04922603236298
  0
LINE
  8
0
 10
-11.254892236899602
 20
25.04922603236298
 11
-11.176735177260444
 21
24.53184219120282
  0
LINE
  8
0
 10
-11.176735177260444
 20
24.53184219120282
 11
-11.267322427338415
 21
24.219717679803203
  0
LINE
  8
0
 10
-11.267322427338415
 20
24.219717679803203
 11
-13.289137034842344
 21
23.17209779109686
  0
LINE
  8
0
 10
-13.289137034842344
 20
23.17209779109686
 11
-13.596373248080548
 21
23.27808679886673
  0
LINE
  8
0
 10
-13.596373248080548
 20
23.27808679886673
 11
-13.973988631110242
 21
23.640303843695378
  0
LINE
  8
0
 10
-13.973988631110242
 20
23.640303843695378
 11
-14.2756281746212
 21
24.057949535099926
  0
LINE
  8
0
 10
-14.2756281746212
 20
24.057949535099926
 11
-14.577041087284496
 21
24.404006206345187
  0
LINE
  8
0
 10
-14.577041087284496
 20
24.404006206345187
 11
-15.074823899895712
 21
24.88014636186293
  0
LINE
  8
0
 10
-15.074823899895712
 20
24.88014636186293
 11
-15.793755690303124
 21
25.452206884101287
  0
LINE
  8
0
 10
-15.793755690303124
 20
25.452206884101287
 11
-16.753915433335816
 21
26.08272665690457
  0
LINE
  8
0
 10
-16.753915433335816
 20
26.08272665690457
 11
-17.53943299336837
 21
26.50171009746553
  0
LINE
  8
0
 10
-17.53943299336837
 20
26.50171009746553
 11
-18.35630476968151
 21
26.004959365973743
  0
LINE
  8
0
 10
-18.35630476968151
 20
26.004959365973743
 11
-19.097927275645336
 21
25.4016047050797
  0
LINE
  8
0
 10
-19.097927275645336
 20
25.4016047050797
 11
-18.96618936844775
 21
24.52113319254643
  0
LINE
  8
0
 10
-18.96618936844775
 20
24.52113319254643
 11
-18.693613148279788
 21
23.405263970708088
  0
LINE
  8
0
 10
-18.693613148279788
 20
23.405263970708088
 11
-18.39533847223723
 21
22.53627123311263
  0
LINE
  8
0
 10
-18.39533847223723
 20
22.53627123311263
 11
-18.1133875254739
 21
21.907780310467864
  0
LINE
  8
0
 10
-18.1133875254739
 20
21.907780310467864
 11
-17.888248886616847
 21
21.507883377587497
  0
LINE
  8
0
 10
-17.888248886616847
 20
21.507883377587497
 11
-17.595730605661174
 21
21.083799196009068
  0
LINE
  8
0
 10
-17.595730605661174
 20
21.083799196009068
 11
-17.380883332012523
 21
20.606687873495314
  0
LINE
  8
0
 10
-17.380883332012523
 20
20.606687873495314
 11
-17.383901175751323
 21
20.28169763808461
  0
LINE
  8
0
 10
-17.383901175751323
 20
20.28169763808461
 11
-19.04809694975631
 21
18.727447283697227
  0
LINE
  8
0
 10
-19.04809694975631
 20
18.727447283697227
 11
-19.3725355028571
 21
18.746614593233495
  0
LINE
  8
0
 10
-19.3725355028571
 20
18.746614593233495
 11
-19.83387287229766
 21
18.993520236390403
  0
LINE
  8
0
 10
-19.83387287229766
 20
18.993520236390403
 11
-20.237006262320648
 21
19.314297117737627
  0
LINE
  8
0
 10
-20.237006262320648
 20
19.314297117737627
 11
-20.620606939093307
 21
19.56620083826013
  0
LINE
  8
0
 10
-20.620606939093307
 20
19.56620083826013
 11
-21.228391691278148
 21
19.89038422962867
  0
LINE
  8
0
 10
-21.228391691278148
 20
19.89038422962867
 11
-22.07500362249166
 21
20.247265720167135
  0
LINE
  8
0
 10
-22.07500362249166
 20
20.247265720167135
 11
-23.169670236526247
 21
20.595356110948842
  0
LINE
  8
0
 10
-23.169670236526247
 20
20.595356110948842
 11
-24.039099054028462
 21
20.786872407593524
  0
LINE
  8
0
 10
-24.039099054028462
 20
20.786872407593524
 11
-24.691657265560522
 21
20.08815317303883
  0
LINE
  8
0
 10
-24.691657265560522
 20
20.08815317303883
 11
-25.24299525786753
 21
19.307085182135662
  0
LINE
  8
0
 10
-25.24299525786753
 20
19.307085182135662
 11
-24.87859417845074
 21
18.49480640370101
  0
LINE
  8
0
 10
-24.87859417845074
 20
18.49480640370101
 11
-24.315067910845602
 21
17.493856823669034
  0
LINE
  8
0
 10
-24.315067910845602
 20
17.493856823669034
 11
-23.793402634143998
 21
16.73756223857287
  0
LINE
  8
0
 10
-23.793402634143998
 20
16.73756223857287
 11
-23.352342371690455
 21
16.208446919278465
  0
LINE
  8
0
 10
-23.352342371690455
 20
16.208446919278465
 11
-23.02766158299832
 21
15.884120927276921
  0
LINE
  8
0
 10
-23.02766158299832
 20
15.884120927276921
 11
-22.63157413051222
 21
15.55468342525055
  0
LINE
  8
0
 10
-22.63157413051222
 20
15.55468342525055
 11
-22.295970882279722
 21
15.153229785534979
  0
LINE
  8
0
 10
-22.295970882279722
 20
15.153229785534979
 11
-22.211195500014952
 21
14.839476865142194
  0
LINE
  8
0
 10
-22.211195500014952
 20
14.839476865142194
 11
-23.394346653152134
 21
12.893867683636431
  0
LINE
  8
0
 10
-23.394346653152134
 20
12.893867683636431
 11
-23.71192542283964
 21
12.824791743275402
  0
LINE
  8
0
 10
-23.71192542283964
 20
12.824791743275402
 11
-24.222769496477696
 21
12.938074122725775
  0
LINE
  8
0
 10
-24.222769496477696
 20
12.938074122725775
 11
-24.69749817368726
 21
13.138191640182745
  0
LINE
  8
0
 10
-24.69749817368726
 20
13.138191640182745
 11
-25.134836707229375
 21
13.277259863414182
  0
LINE
  8
0
 10
-25.134836707229375
 20
13.277259863414182
 11
-25.807546784348524
 21
13.42544329153604
  0
LINE
  8
0
 10
-25.807546784348524
 20
13.42544329153604
 11
-26.719049522421905
 21
13.540677482845561
  0
LINE
  8
0
 10
-26.719049522421905
 20
13.540677482845561
 11
-27.867036592461982
 21
13.580522219728993
  0
LINE
  8
0
 10
-27.867036592461982
 20
13.580522219728993
 11
-28.755895109411906
 21
13.53036748486402
  0
LINE
  8
0
 10
-28.755895109411906
 20
13.53036748486402
 11
-29.19574249886872
 21
12.681500556445531
  0
LINE
  8
0
 10
-29.19574249886872
 20
12.681500556445531
 11
-29.515905760832993
 21
11.78064747527023
  0
LINE
  8
0
 10
-29.515905760832993
 20
11.78064747527023
 11
-28.945867470233324
 21
11.096804432002537
  0
LINE
  8
0
 10
-28.945867470233324
 20
11.096804432002537
 11
-28.13318532049815
 21
10.285010345088264
  0
LINE
  8
0
 10
-28.13318532049815
 20
10.285010345088264
 11
-27.42681897025062
 21
9.69750482205046
  0
LINE
  8
0
 10
-27.42681897025062
 20
9.69750482205046
 11
-26.85936081405659
 21
9.307007168796966
  0
LINE
  8
0
 10
-26.85936081405659
 20
9.307007168796966
 11
-26.459217964310906
 21
9.082305892808309
  0
LINE
  8
0
 10
-26.459217964310906
 20
9.082305892808309
 11
-25.988937334665735
 21
8.871947942783002
  0
LINE
  8
0
 10
-25.988937334665735
 20
8.871947942783002
 11
-25.557468269488094
 21
8.575925965795122
  0
LINE
  8
0
 10
-25.557468269488094
 20
8.575925965795122
 11
-25.39118706350077
 21
8.29667997920169
  0
LINE
  8
0
 10
-25.39118706350077
 20
8.29667997920169
 11
-26.005544687298325
 21
6.104008903000066
  0
LINE
  8
0
 10
-26.005544687298325
 20
6.104008903000066
 11
-26.292710309051035
 21
5.951812759236915
  0
LINE
  8
0
 10
-26.292710309051035
 20
5.951812759236915
 11
-26.815174118900984
 21
5.9230702391293235
  0
LINE
  8
0
 10
-26.815174118900984
 20
5.9230702391293235
 11
-27.326289629047675
 21
5.98768659190298
  0
LINE
  8
0
 10
-27.326289629047675
 20
5.98768659190298
 11
-27.784930621017104
 21
6.003605263921061
  0
LINE
  8
0
 10
-27.784930621017104
 20
6.003605263921061
 11
-28.47267419409446
 21
5.964798641826521
  0
LINE
  8
0
 10
-28.47267419409446
 20
5.964798641826521
 11
-29.38146575079237
 21
5.829839141099016
  0
LINE
  8
0
 10
-29.38146575079237
 20
5.829839141099016
 11
-30.49763232754446
 21
5.558483122227074
  0
LINE
  8
0
 10
-30.49763232754446
 20
5.558483122227074
 11
-31.33999797399706
 21
5.270377103094734
  0
LINE
  8
0
 10
-31.33999797399706
 20
5.270377103094734
 11
-31.534513072670542
 21
4.334319057585437
  0
LINE
  8
0
 10
-31.534513072670542
 20
4.334319057585437
 11
-31.599756559801648
 21
3.3804930380401466
  0
LINE
  8
0
 10
-31.599756559801648
 20
3.3804930380401466
 11
-30.866358190281222
 21
2.8758032400848172
  0
LINE
  8
0
 10
-30.866358190281222
 20
2.8758032400848172
 11
-29.864793075688414
 21
2.3133717000038407
  0
LINE
  8
0
 10
-29.864793075688414
 20
2.3133717000038407
 11
-29.026113612681776
 21
1.9382278360091858
  0
LINE
  8
0
 10
-29.026113612681776
 20
1.9382278360091858
 11
-28.37434333824385
 21
1.7153092733305169
  0
LINE
  8
0
 10
-28.37434333824385
 20
1.7153092733305169
 11
-27.928415192078514
 21
1.606897779054885
  0
LINE
  8
0
 10
-27.928415192078514
 20
1.606897779054885
 11
-27.418819948184336
 21
1.531220667860433
  0
LINE
  8
0
 10
-27.418819948184336
 20
1.531220667860433
 11
-26.92348515278614
 21
1.3625849494229978
  0
LINE
  8
0
 10
-26.92348515278614
 20
1.3625849494229978
 11
-26.68803043943844
 21
1.138556293989166
  0
LINE
  8
0
 10
-26.68803043943844
 20
1.138556293989166
 11
-26.68803043943843
 21
-1.1385562939891634
  0
LINE
  8
0
 10
-26.68803043943843
 20
-1.1385562939891634
 11
-26.923485152786238
 21
-1.362584949422552
  0
LINE
  8
0
 10
-26.923485152786238
 20
-1.362584949422552
 11
-27.418819948184407
 21
-1.5312206678600084
  0
LINE
  8
0
 10
-27.418819948184407
 20
-1.5312206678600084
 11
-27.92841519207852
 21
-1.6068977790547434
  0
LINE
  8
0
 10
-27.92841519207852
 20
-1.6068977790547434
 11
-28.37434333824381
 21
-1.7153092733305195
  0
LINE
  8
0
 10
-28.37434333824381
 20
-1.7153092733305195
 11
-29.026113612681726
 21
-1.938227836009192
  0
LINE
  8
0
 10
-29.026113612681726
 20
-1.938227836009192
 11
-29.864793075688613
 21
-2.3133717000033958
  0
LINE
  8
0
 10
-29.864793075688613
 20
-2.3133717000033958
 11
-30.86635819027734
 21
-2.875803240082168
  0
LINE
  8
0
 10
-30.86635819027734
 20
-2.875803240082168
 11
-31.599756559801644
 21
-3.3804930380401648
  0
LINE
  8
0
 10
-31.599756559801644
 20
-3.3804930380401648
 11
-31.534513072670542
 21
-4.334319057585441
  0
LINE
  8
0
 10
-31.534513072670542
 20
-4.334319057585441
 11
-31.339997973997058
 21
-5.270377103094739
  0
LINE
  8
0
 10
-31.339997973997058
 20
-5.270377103094739
 11
-30.497632327548914
 21
-5.558483122225556
  0
LINE
  8
0
 10
-30.497632327548914
 20
-5.558483122225556
 11
-29.381465750792298
 21
-5.82983914109852
  0
LINE
  8
0
 10
-29.381465750792298
 20
-5.82983914109852
 11
-28.47267419409451
 21
-5.964798641826528
  0
LINE
  8
0
 10
-28.47267419409451
 20
-5.964798641826528
 11
-27.784930621017146
 21
-6.003605263921063
  0
LINE
  8
0
 10
-27.784930621017146
 20
-6.003605263921063
 11
-27.326289629047714
 21
-5.98768659190283
  0
LINE
  8
0
 10
-27.326289629047714
 20
-5.98768659190283
 11
-26.815174118901034
 21
-5.923070239128884
  0
LINE
  8
0
 10
-26.815174118901034
 20
-5.923070239128884
 11
-26.29271030905106
 21
-5.951812759236449
  0
LINE
  8
0
 10
-26.29271030905106
 20
-5.951812759236449
 11
-26.005544687298343
 21
-6.104008903000056
  0
LINE
  8
0
 10
-26.005544687298343
 20
-6.104008903000056
 11
-25.391187063500762
 21
-8.296679979201674
  0
LINE
  8
0
 10
-25.391187063500762
 20
-8.296679979201674
 11
-25.557468269488314
 21
-8.575925965794708
  0
LINE
  8
0
 10
-25.557468269488314
 20
-8.575925965794708
 11
-25.988937334665923
 21
-8.871947942782601
  0
LINE
  8
0
 10
-25.988937334665923
 20
-8.871947942782601
 11
-26.45921796431095
 21
-9.082305892808161
  0
LINE
  8
0
 10
-26.45921796431095
 20
-9.082305892808161
 11
-26.859360814056554
 21
-9.307007168796948
  0
LINE
  8
0
 10
-26.859360814056554
 20
-9.307007168796948
 11
-27.42681897025057
 21
-9.69750482205044
  0
LINE
  8
0
 10
-27.42681897025057
 20
-9.69750482205044
 11
-28.133185320498466
 21
-10.285010345087876
  0
LINE
  8
0
 10
-28.133185320498466
 20
-10.285010345087876
 11
-28.945867470230304
 21
-11.096804431998926
  0
LINE
  8
0
 10
-28.945867470230304
 20
-11.096804431998926
 11
-29.515905760832993
 21
-11.780647475270234
  0
LINE
  8
0
 10
-29.515905760832993
 20
-11.780647475270234
 11
-29.195742498868736
 21
-12.68150055644551
  0
LINE
  8
0
 10
-29.195742498868736
 20
-12.68150055644551
 11
-28.75589510941191
 21
-13.53036748486401
  0
LINE
  8
0
 10
-28.75589510941191
 20
-13.53036748486401
 11
-27.86703659246669
 21
-13.580522219728719
  0
LINE
  8
0
 10
-27.86703659246669
 20
-13.580522219728719
 11
-26.719049522421983
 21
-13.54067748284505
  0
LINE
  8
0
 10
-26.719049522421983
 20
-13.54067748284505
 11
-25.807546784348585
 21
-13.42544329153605
  0
LINE
  8
0
 10
-25.807546784348585
 20
-13.42544329153605
 11
-25.134836707229425
 21
-13.277259863414182
  0
LINE
  8
0
 10
-25.134836707229425
 20
-13.277259863414182
 11
-24.697498173687343
 21
-13.1381916401826
  0
LINE
  8
0
 10
-24.697498173687343
 20
-13.1381916401826
 11
-24.22276949647787
 21
-12.938074122725352
  0
LINE
  8
0
 10
-24.22276949647787
 20
-12.938074122725352
 11
-23.7119254228398
 21
-12.824791743274947
  0
LINE
  8
0
 10
-23.7119254228398
 20
-12.824791743274947
 11
-23.39434665315216
 21
-12.893867683636415
  0
LINE
  8
0
 10
-23.39434665315216
 20
-12.893867683636415
 11
-22.211195500014963
 21
-14.839476865142169
  0
LINE
  8
0
 10
-22.211195500014963
 20
-14.839476865142169
 11
-22.295970882280052
 21
-15.153229785534633
  0
LINE
  8
0
 10
-22.295970882280052
 20
-15.153229785534633
 11
-22.631574130512515
 21
-15.554683425250204
  0
LINE
  8
0
 10
-22.631574130512515
 20
-15.554683425250204
 11
-23.027661582998416
 21
-15.884120927276781
  0
LINE
  8
0
 10
-23.027661582998416
 20
-15.884120927276781
 11
-23.352342371690433
 21
-16.208446919278426
  0
LINE
  8
0
 10
-23.352342371690433
 20
-16.208446919278426
 11
-23.79340263414397
 21
-16.73756223857282
  0
LINE
  8
0
 10
-23.79340263414397
 20
-16.73756223857282
 11
-24.31506791084602
 21
-17.493856823668736
  0
LINE
  8
0
 10
-24.31506791084602
 20
-17.493856823668736
 11
-24.878594178448818
 21
-18.494806403696707
  0
LINE
  8
0
 10
-24.878594178448818
 20
-18.494806403696707
 11
-25.24299525786754
 21
-19.307085182135648
  0
LINE
  8
0
 10
-25.24299525786754
 20
-19.307085182135648
 11
-24.691657265560526
 21
-20.08815317303882
  0
LINE
  8
0
 10
-24.691657265560526
 20
-20.08815317303882
 11
-24.03909905402846
 21
-20.786872407593528
  0
LINE
  8
0
 10
-24.03909905402846
 20
-20.786872407593528
 11
-23.16967023653084
 21
-20.595356110949858
  0
LINE
  8
0
 10
-23.16967023653084
 20
-20.595356110949858
 11
-22.07500362249186
 21
-20.247265720166673
  0
LINE
  8
0
 10
-22.07500362249186
 20
-20.247265720166673
 11
-21.22839169127819
 21
-19.8903842296287
  0
LINE
  8
0
 10
-21.22839169127819
 20
-19.8903842296287
 11
-20.620606939093342
 21
-19.566200838260155
  0
LINE
  8
0
 10
-20.620606939093342
 20
-19.566200838260155
 11
-20.23700626232076
 21
-19.31429711773752
  0
LINE
  8
0
 10
-20.23700626232076
 20
-19.31429711773752
 11
-19.83387287229793
 21
-18.99352023639005
  0
LINE
  8
0
 10
-19.83387287229793
 20
-18.99352023639005
 11
-19.372535502857367
 21
-18.74661459323311
  0
LINE
  8
0
 10
-19.372535502857367
 20
-18.74661459323311
 11
-19.04809694975633
 21
-18.727447283697227
  0
LINE
  8
0
 10
-19.04809694975633
 20
-18.727447283697227
 11
-17.383901175751326
 21
-20.28169763808459
  0
LINE
  8
0
 10
-17.383901175751326
 20
-20.28169763808459
 11
-17.38088333201293
 21
-20.606687873495076
  0
LINE
  8
0
 10
-17.38088333201293
 20
-20.606687873495076
 11
-17.595730605661544
 21
-21.083799196008822
  0
LINE
  8
0
 10
-17.595730605661544
 20
-21.083799196008822
 11
-17.88824888661696
 21
-21.507883377587397
  0
LINE
  8
0
 10
-17.88824888661696
 20
-21.507883377587397
 11
-18.113387525473883
 21
-21.907780310467828
  0
LINE
  8
0
 10
-18.113387525473883
 20
-21.907780310467828
 11
-18.395338472237203
 21
-22.536271233112586
  0
LINE
  8
0
 10
-18.395338472237203
 20
-22.536271233112586
 11
-18.693613148280264
 21
-23.405263970707924
  0
LINE
  8
0
 10
-18.693613148280264
 20
-23.405263970707924
 11
-18.96618936844705
 21
-24.52113319254178
  0
LINE
  8
0
 10
-18.96618936844705
 20
-24.52113319254178
 11
-19.097927275645336
 21
-25.4016047050797
  0
LINE
  8
0
 10
-19.097927275645336
 20
-25.4016047050797
 11
-18.356304769681497
 21
-26.00495936597375
  0
LINE
  8
0
 10
-18.356304769681497
 20
-26.00495936597375
 11
-17.539432993368344
 21
-26.501710097465544
  0
LINE
  8
0
 10
-17.539432993368344
 20
-26.501710097465544
 11
-16.75391543333994
 21
-26.0827266569068
  0
LINE
  8
0
 10
-16.75391543333994
 20
-26.0827266569068
 11
-15.793755690303414
 21
-25.452206884100907
  0
LINE
  8
0
 10
-15.793755690303414
 20
-25.452206884100907
 11
-15.074823899895717
 21
-24.880146361862984
  0
LINE
  8
0
 10
-15.074823899895717
 20
-24.880146361862984
 11
-14.577041087284497
 21
-24.40400620634523
  0
LINE
  8
0
 10
-14.577041087284497
 20
-24.40400620634523
 11
-14.275628174621312
 21
-24.057949535099862
  0
LINE
  8
0
 10
-14.275628174621312
 20
-24.057949535099862
 11
-13.973988631110576
 21
-23.64030384369513
  0
LINE
  8
0
 10
-13.973988631110576
 20
-23.64030384369513
 11
-13.596373248080885
 21
-23.27808679886644
  0
LINE
  8
0
 10
-13.596373248080885
 20
-23.27808679886644
 11
-13.289137034842343
 21
-23.172097791096874
  0
LINE
  8
0
 10
-13.289137034842343
 20
-23.172097791096874
 11
-11.2673224273384
 21
-24.219717679803196
  0
LINE
  8
0
 10
-11.2673224273384
 20
-24.219717679803196
 11
-11.176735177260872
 21
-24.531842191202706
  0
LINE
  8
0
 10
-11.176735177260872
 20
-24.531842191202706
 11
-11.2548922369
 21
-25.049226032362853
  0
LINE
  8
0
 10
-11.2548922369
 20
-25.049226032362853
 11
-11.422146603608562
 21
-25.53650450980178
  0
LINE
  8
0
 10
-11.422146603608562
 20
-25.53650450980178
 11
-11.531045589727105
 21
-25.982313857455992
  0
LINE
  8
0
 10
-11.531045589727105
 20
-25.982313857455992
 11
-11.63297620891853
 21
-26.66356808687321
  0
LINE
  8
0
 10
-11.63297620891853
 20
-26.66356808687321
 11
-11.685738616096332
 21
-27.580809760997774
  0
LINE
  8
0
 10
-11.685738616096332
 20
-27.580809760997774
 11
-11.647149057530576
 21
-28.728839709216114
  0
LINE
  8
0
 10
-11.647149057530576
 20
-28.728839709216114
 11
-11.536453394592353
 21
-29.612203411657223
  0
LINE
  8
0
 10
-11.536453394592353
 20
-29.612203411657223
 11
-10.65954912354187
 21
-29.99309668750753
  0
LINE
  8
0
 10
-10.65954912354187
 20
-29.99309668750753
 11
-9.738947425157054
 21
-30.25103718666505
  0
LINE
  8
0
 10
-9.738947425157054
 20
-30.25103718666505
 11
-9.095599366521455
 21
-29.635660687255772
  0
LINE
  8
0
 10
-9.095599366521455
 20
-29.635660687255772
 11
-8.341157150189852
 21
-28.769474299540164
  0
LINE
  8
0
 10
-8.341157150189852
 20
-28.769474299540164
 11
-7.803225382588568
 21
-28.02466185753392
  0
LINE
  8
0
 10
-7.803225382588568
 20
-28.02466185753392
 11
-7.452362783557508
 21
-27.431878075005432
  0
LINE
  8
0
 10
-7.452362783557508
 20
-27.431878075005432
 11
-7.255492051863621
 21
-27.017333893239673
  0
LINE
  8
0
 10
-7.255492051863621
 20
-27.017333893239673
 11
-7.077717579898073
 21
-26.533794262107254
  0
LINE
  8
0
 10
-7.077717579898073
 20
-26.533794262107254
 11
-6.811830188763144
 21
-26.08312979678905
  0
LINE
  8
0
 10
-6.811830188763144
 20
-26.08312979678905
 11
-6.544582619810839
 21
-25.898179810624622
  0
LINE
  8
0
 10
-6.544582619810839
 20
-25.898179810624622
 11
-4.315097919060142
 21
-26.361472059046648
  0
LINE
  8
0
 10
-4.315097919060142
 20
-26.361472059046648
 11
-4.143659704572642
 21
-26.637581999299314
  0
LINE
  8
0
 10
-4.143659704572642
 20
-26.637581999299314
 11
-4.079329998633606
 21
-27.15686636648059
  0
LINE
  8
0
 10
-4.079329998633606
 20
-27.15686636648059
 11
-4.108915959854356
 21
-27.67119992425893
  0
LINE
  8
0
 10
-4.108915959854356
 20
-27.67119992425893
 11
-4.093498753613822
 21
-28.12985804681347
  0
LINE
  8
0
 10
-4.093498753613822
 20
-28.12985804681347
 11
-4.007849317509479
 21
-28.813350073338
  0
LINE
  8
0
 10
-4.007849317509479
 20
-28.813350073338
 11
-3.8111863094536
 21
-29.710813065123418
  0
LINE
  8
0
 10
-3.8111863094536
 20
-29.710813065123418
 11
-3.4642929831786384
 21
-30.805859610354446
  0
LINE
  8
0
 10
-3.4642929831786384
 20
-30.805859610354446
 11
-3.119373541025075
 21
-31.626600458008728
  0
LINE
  8
0
 10
-3.119373541025075
 20
-31.626600458008728
 11
-2.172223483101553
 21
-31.756783237016307
  0
LINE
  8
0
 10
-2.172223483101553
 20
-31.756783237016307
 11
-1.2161686791417379
 21
-31.756783237016304
  0
LINE
  8
0
 10
-1.2161686791417379
 20
-31.756783237016304
 11
-0.7627043042864113
 21
-30.99065333855751
  0
LINE
  8
0
 10
-0.7627043042864113
 20
-30.99065333855751
 11
-0.2699331425015607
 21
-29.953041417769988
  0
LINE
  8
0
 10
-0.2699331425015607
 20
-29.953041417769988
 11
0.04710266396440944
 21
-29.090716387528833
  0
LINE
  8
0
 10
0.04710266396440944
 20
-29.090716387528833
 11
0.22502317553476378
 21
-28.42525303933439
  0
LINE
  8
0
 10
0.22502317553476378
 20
-28.42525303933439
 11
0.3027507247132845
 21
-27.972966192596363
  0
LINE
  8
0
 10
0.3027507247132845
 20
-27.972966192596363
 11
0.34347540581205205
 21
-27.459394544130728
  0
LINE
  8
0
 10
0.34347540581205205
 20
-27.459394544130728
 11
0.47791515360562176
 21
-26.953706380062904
  0
LINE
  8
0
 10
0.47791515360562176
 20
-26.953706380062904
 11
0.68535354865877
 21
-26.703512309887547
  0
LINE
  8
0
 10
0.68535354865877
 20
-26.703512309887547
 11
2.9571576616153927
 21
-26.548116651380823
  0
LINE
  8
0
 10
2.9571576616153927
 20
-26.548116651380823
 11
3.1967320524219747
 21
-26.76773420933703
  0
LINE
  8
0
 10
3.1967320524219747
 20
-26.76773420933703
 11
3.3987774839385
 21
-27.25040615659351
  0
LINE
  8
0
 10
3.3987774839385
 20
-27.25040615659351
 11
3.5090541836025397
 21
-27.753649027650308
  0
LINE
  8
0
 10
3.5090541836025397
 20
-27.753649027650308
 11
3.647644158544314
 21
-28.191139350376602
  0
LINE
  8
0
 10
3.647644158544314
 20
-28.191139350376602
 11
3.914521423088665
 21
-28.826177697169076
  0
LINE
  8
0
 10
3.914521423088665
 20
-28.826177697169076
 11
4.346024250744122
 21
-29.637301282134633
  0
LINE
  8
0
 10
4.346024250744122
 20
-29.637301282134633
 11
4.975493853649849
 21
-30.598149831623164
  0
LINE
  8
0
 10
4.975493853649849
 20
-30.598149831623164
 11
5.52905597789568
 21
-31.295397230459645
  0
LINE
  8
0
 10
5.52905597789568
 20
-31.295397230459645
 11
6.476206035819173
 21
-31.16521445145207
  0
LINE
  8
0
 10
6.476206035819173
 20
-31.16521445145207
 11
7.39680773420399
 21
-30.90727395229455
  0
LINE
  8
0
 10
7.39680773420399
 20
-30.90727395229455
 11
7.626757047057507
 21
-30.047211004543858
  0
LINE
  8
0
 10
7.626757047057507
 20
-30.047211004543858
 11
7.821310571504086
 21
-28.91512848009055
  0
LINE
  8
0
 10
7.821310571504086
 20
-28.91512848009055
 11
7.8939373214114745
 21
-27.999245564232943
  0
LINE
  8
0
 10
7.8939373214114745
 20
-27.999245564232943
 11
7.885720195110129
 21
-27.310457022615882
  0
LINE
  8
0
 10
7.885720195110129
 20
-27.310457022615882
 11
7.838539865030592
 21
-26.853971557253494
  0
LINE
  8
0
 10
7.838539865030592
 20
-26.853971557253494
 11
7.7391943919685025
 21
-26.34845715118738
  0
LINE
  8
0
 10
7.7391943919685025
 20
-26.34845715118738
 11
7.732215715347786
 21
-25.825249866129436
  0
LINE
  8
0
 10
7.732215715347786
 20
-25.825249866129436
 11
7.8644601797082005
 21
-25.52836746156634
  0
LINE
  8
0
 10
7.8644601797082005
 20
-25.52836746156634
 11
10.010094386625031
 21
-24.765808881234474
  0
LINE
  8
0
 10
10.010094386625031
 20
-24.765808881234474
 11
10.30003681716448
 21
-24.912646027304085
  0
LINE
  8
0
 10
10.30003681716448
 20
-24.912646027304085
 11
10.624813188899262
 21
-25.32290798438499
  0
LINE
  8
0
 10
10.624813188899262
 20
-25.32290798438499
 11
10.86677383111634
 21
-25.77773694715691
  0
LINE
  8
0
 10
10.86677383111634
 20
-25.77773694715691
 11
11.118257990324873
 21
-26.1616128142034
  0
LINE
  8
0
 10
11.118257990324873
 20
-26.1616128142034
 11
11.546570017480224
 21
-26.70109959218936
  0
LINE
  8
0
 10
11.546570017480224
 20
-26.70109959218936
 11
12.180910074002139
 21
-27.365726444681645
  0
LINE
  8
0
 10
12.180910074002139
 20
-27.365726444681645
 11
13.046271072722933
 21
-28.121115257101753
  0
LINE
  8
0
 10
13.046271072722933
 20
-28.121115257101753
 11
13.767420708683929
 21
-28.643157557243335
  0
LINE
  8
0
 10
13.767420708683929
 20
-28.643157557243335
 11
14.644324979734442
 21
-28.26226428139302
  0
LINE
  8
0
 10
14.644324979734442
 20
-28.26226428139302
 11
15.461196756047594
 21
-27.765513549901225
  0
LINE
  8
0
 10
15.461196756047594
 20
-27.765513549901225
 11
15.450576718313066
 21
-26.87530448716712
  0
LINE
  8
0
 10
15.450576718313066
 20
-26.87530448716712
 11
15.332483460536325
 21
-25.73271274095379
  0
LINE
  8
0
 10
15.332483460536325
 20
-25.73271274095379
 11
15.155314760089771
 21
-24.831198785463346
  0
LINE
  8
0
 10
15.155314760089771
 20
-24.831198785463346
 11
14.961569422583647
 21
-24.17016934555749
  0
LINE
  8
0
 10
14.961569422583647
 20
-24.17016934555749
 11
14.792980362492399
 21
-23.743340700254628
  0
LINE
  8
0
 10
14.792980362492399
 20
-23.743340700254628
 11
14.560932734531171
 21
-23.283375227511428
  0
LINE
  8
0
 10
14.560932734531171
 20
-23.283375227511428
 11
14.413053210015809
 21
-22.781452712282043
  0
LINE
  8
0
 10
14.413053210015809
 20
-22.781452712282043
 11
14.460295776740042
 21
-22.45990038313103
  0
LINE
  8
0
 10
14.460295776740042
 20
-22.45990038313103
 11
16.320628204113422
 21
-21.146734362403855
  0
LINE
  8
0
 10
16.320628204113422
 20
-21.146734362403855
 11
16.639434970710987
 21
-21.209900857198136
  0
LINE
  8
0
 10
16.639434970710987
 20
-21.209900857198136
 11
17.062855104925493
 21
-21.51732557157034
  0
LINE
  8
0
 10
17.062855104925493
 20
-21.51732557157034
 11
17.418554575758655
 21
-21.89000804259264
  0
LINE
  8
0
 10
17.418554575758655
 20
-21.89000804259264
 11
17.764281489608926
 21
-22.191799137015735
  0
LINE
  8
0
 10
17.764281489608926
 20
-22.191799137015735
 11
18.32226233571831
 21
-22.59572307985974
  0
LINE
  8
0
 10
18.32226233571831
 20
-22.59572307985974
 11
19.11239352102712
 21
-23.06456086669494
  0
LINE
  8
0
 10
19.11239352102712
 20
-23.06456086669494
 11
20.149466049051014
 21
-23.558466209503298
  0
LINE
  8
0
 10
20.149466049051014
 20
-23.558466209503298
 11
20.984718827268015
 21
-23.866585921733098
  0
LINE
  8
0
 10
20.984718827268015
 20
-23.866585921733098
 11
21.726341333231833
 21
-23.263231260839063
  0
LINE
  8
0
 10
21.726341333231833
 20
-23.263231260839063
 11
22.378899544763897
 21
-22.564512026284355
  0
LINE
  8
0
 10
22.378899544763897
 20
-22.564512026284355
 11
22.12849779605665
 21
-21.71017958231435
  0
LINE
  8
0
 10
22.12849779605665
 20
-21.71017958231435
 11
21.70651619274518
 21
-20.6418194171482
  0
LINE
  8
0
 10
21.70651619274518
 20
-20.6418194171482
 11
21.292691833963932
 21
-19.821535587951725
  0
LINE
  8
0
 10
21.292691833963932
 20
-19.821535587951725
 11
20.927787490609916
 21
-19.237290779306424
  0
LINE
  8
0
 10
20.927787490609916
 20
-19.237290779306424
 11
20.650293179850298
 21
-18.87177488207407
  0
LINE
  8
0
 10
20.650293179850298
 20
-18.87177488207407
 11
20.30275330800855
 21
-18.491471877565125
  0
LINE
  8
0
 10
20.30275330800855
 20
-18.491471877565125
 11
20.024940483428036
 21
-18.048059428976142
  0
LINE
  8
0
 10
20.024940483428036
 20
-18.048059428976142
 11
19.983677387462517
 21
-17.72568524048631
  0
LINE
  8
0
 10
19.983677387462517
 20
-17.72568524048631
 11
21.42073568960873
 21
-15.95930329578635
  0
LINE
  8
0
 10
21.42073568960873
 20
-15.95930329578635
 11
21.744762352829788
 21
-15.93411436935389
  0
LINE
  8
0
 10
21.744762352829788
 20
-15.93411436935389
 11
22.23542311518755
 21
-16.1159015563269
  0
LINE
  8
0
 10
22.23542311518755
 20
-16.1159015563269
 11
22.67848081210191
 21
-16.378797381632722
  0
LINE
  8
0
 10
22.67848081210191
 20
-16.378797381632722
 11
23.09280949698903
 21
-16.576121238561445
  0
LINE
  8
0
 10
23.09280949698903
 20
-16.576121238561445
 11
23.739076275289037
 21
-16.814525155251847
  0
LINE
  8
0
 10
23.739076275289037
 20
-16.814525155251847
 11
24.626398173980036
 21
-17.052802322570557
  0
LINE
  8
0
 10
24.626398173980036
 20
-17.052802322570557
 11
25.75826730619463
 21
-17.248593495957664
  0
LINE
  8
0
 10
25.75826730619463
 20
-17.248593495957664
 11
26.645676349134487
 21
-17.319938790773488
  0
LINE
  8
0
 10
26.645676349134487
 20
-17.319938790773488
 11
27.19701434144149
 21
-16.53887079987033
  0
LINE
  8
0
 10
27.19701434144149
 20
-16.53887079987033
 11
27.63686173089831
 21
-15.690003871451829
  0
LINE
  8
0
 10
27.63686173089831
 20
-15.690003871451829
 11
27.165249423408188
 21
-14.934909975304302
  0
LINE
  8
0
 10
27.165249423408188
 20
-14.934909975304302
 11
26.470675919642222
 21
-14.020016777213163
  0
LINE
  8
0
 10
26.470675919642222
 20
-14.020016777213163
 11
25.85088736209661
 21
-13.341799773373337
  0
LINE
  8
0
 10
25.85088736209661
 20
-13.341799773373337
 11
25.341887298714976
 21
-12.877670360703656
  0
LINE
  8
0
 10
25.341887298714976
 20
-12.877670360703656
 11
24.976068220864025
 21
-12.60057585351557
  0
LINE
  8
0
 10
24.976068220864025
 20
-12.60057585351557
 11
24.538811547547137
 21
-12.32814065131483
  0
LINE
  8
0
 10
24.538811547547137
 20
-12.32814065131483
 11
24.1516695291915
 21
-11.976124142201117
  0
LINE
  8
0
 10
24.1516695291915
 20
-11.976124142201117
 11
24.02496106559789
 21
-11.676837113168977
  0
LINE
  8
0
 10
24.02496106559789
 20
-11.676837113168977
 11
24.932165202351044
 21
-9.588243712674918
  0
LINE
  8
0
 10
24.932165202351044
 20
-9.588243712674918
 11
25.23738018690783
 21
-9.476567512457548
  0
LINE
  8
0
 10
25.23738018690783
 20
-9.476567512457548
 11
25.758891513288408
 21
-9.519234847994616
  0
LINE
  8
0
 10
25.758891513288408
 20
-9.519234847994616
 11
26.256447873757914
 21
-9.652846246889395
  0
LINE
  8
0
 10
26.256447873757914
 20
-9.652846246889395
 11
26.708649466551424
 21
-9.731068258551925
  0
LINE
  8
0
 10
26.708649466551424
 20
-9.731068258551925
 11
27.395271526569328
 21
-9.786270821213144
  0
LINE
  8
0
 10
27.395271526569328
 20
-9.786270821213144
 11
28.313975532644193
 21
-9.776315441560843
  0
LINE
  8
0
 10
28.313975532644193
 20
-9.776315441560843
 11
29.456695713469863
 21
-9.6594715098816
  0
LINE
  8
0
 10
29.456695713469863
 20
-9.6594715098816
 11
30.33044595204397
 21
-9.488751033149962
  0
LINE
  8
0
 10
0.3118675362266391
 20
-1.4672214011007085
 11
9.18454765366783e-17
 21
-1.5
  0
LINE
  8
0
 10
9.18454765366783e-17
 20
-1.5
 11
-0.3118675362266384
 21
-1.4672214011007085
  0
LINE
  8
0
 10
-0.3118675362266384
 20
-1.4672214011007085
 11
-0.6101049646137001
 21
-1.3703181864639014
  0
LINE
  8
0
 10
-0.6101049646137001
 20
-1.3703181864639014
 11
-0.8816778784387099
 21
-1.213525491562421
  0
LINE
  8
0
 10
-0.8816778784387099
 20
-1.213525491562421
 11
-1.114717238216091
 21
-1.0036959095382878
  0
LINE
  8
0
 10
-1.114717238216091
 20
-1.0036959095382878
 11
-1.299038105676658
 21
-0.7500000000000003
  0
LINE
  8
0
 10
-1.299038105676658
 20
-0.7500000000000003
 11
-1.4265847744427305
 21
-0.46352549156242095
  0
LINE
  8
0
 10
-1.4265847744427305
 20
-0.46352549156242095
 11
-1.49178284305241
 21
-0.15679269490147957
  0
LINE
  8
0
 10
-1.49178284305241
 20
-0.15679269490147957
 11
-1.4917828430524098
 21
0.15679269490148126
  0
LINE
  8
0
 10
-1.4917828430524098
 20
0.15679269490148126
 11
-1.4265847744427302
 21
0.46352549156242123
  0
LINE
  8
0
 10
-1.4265847744427302
 20
0.46352549156242123
 11
-1.2990381056766576
 21
0.7500000000000006
  0
LINE
  8
0
 10
-1.2990381056766576
 20
0.7500000000000006
 11
-1.114717238216091
 21
1.0036959095382878
  0
LINE
  8
0
 10
-1.114717238216091
 20
1.0036959095382878
 11
-0.8816778784387097
 21
1.2135254915624214
  0
LINE
  8
0
 10
-0.8816778784387097
 20
1.2135254915624214
 11
-0.6101049646137005
 21
1.3703181864639014
  0
LINE
  8
0
 10
-0.6101049646137005
 20
1.3703181864639014
 11
-0.3118675362266387
 21
1.4672214011007085
  0
LINE
  8
0
 10
-0.3118675362266387
 20
1.4672214011007085
 11
7.579792913117722e-16
 21
1.5
  0
LINE
  8
0
 10
7.579792913117722e-16
 20
1.5
 11
0.3118675362266389
 21
1.4672214011007085
  0
LINE
  8
0
 10
0.3118675362266389
 20
1.4672214011007085
 11
0.6101049646136999
 21
1.3703181864639014
  0
LINE
  8
0
 10
0.6101049646136999
 20
1.3703181864639014
 11
0.8816778784387097
 21
1.213525491562421
  0
LINE
  8
0
 10
0.8816778784387097
 20
1.213525491562421
 11
1.1147172382160917
 21
1.003695909538287
  0
LINE
  8
0
 10
1.1147172382160917
 20
1.003695909538287
 11
1.299038105676658
 21
0.7499999999999998
  0
LINE
  8
0
 10
1.299038105676658
 20
0.7499999999999998
 11
1.4265847744427305
 21
0.4635254915624211
  0
LINE
  8
0
 10
1.4265847744427305
 20
0.4635254915624211
 11
1.49178284305241
 21
0.1567926949014801
  0
LINE
  8
0
 10
1.49178284305241
 20
0.1567926949014801
 11
1.4917828430524098
 21
-0.1567926949014801
  0
LINE
  8
0
 10
1.4917828430524098
 20
-0.1567926949014801
 11
1.4265847744427302
 21
-0.46352549156242107
  0
LINE
  8
0
 10
1.4265847744427302
 20
-0.46352549156242107
 11
1.299038105676658
 21
-0.7500000000000001
  0
LINE
  8
0
 10
1.299038105676658
 20
-0.7500000000000001
 11
1.1147172382160913
 21
-1.0036959095382874
  0
LINE
  8
0
 10
1.1147172382160913
 20
-1.0036959095382874
 11
0.8816778784387098
 21
-1.2135254915624212
  0
LINE
  8
0
 10
0.8816778784387098
 20
-1.2135254915624212
 11
0.6101049646137003
 21
-1.3703181864639014
  0
LINE
  8
0
 10
0.6101049646137003
 20
-1.3703181864639014
 11
0.3118675362266391
 21
-1.4672214011007085
  0
ENDSEC
  0
SECTION
  2
OBJECTS
  0
DICTIONARY
  0
ENDSEC
  0
EOF
