  0
SECTION
  2
BLOCKS
  0
ENDSEC
  0
SECTION
  2
ENTITIES
  0
LINE
  8
0
 10
47.38276477247464
 20
-9.391712929119661
 11
47.64805465368307
 21
-8.401637613715858
  0
LINE
  8
0
 10
47.64805465368307
 20
-8.401637613715858
 11
47.73738941121994
 21
-7.380536662614897
  0
LINE
  8
0
 10
47.73738941121994
 20
-7.380536662614897
 11
46.95110640118605
 21
-6.8525404402743755
  0
LINE
  8
0
 10
46.95110640118605
 20
-6.8525404402743755
 11
46.05089785338045
 21
-6.32125253257959
  0
LINE
  8
0
 10
46.05089785338045
 20
-6.32125253257959
 11
45.25189913456044
 21
-5.910357544078706
  0
LINE
  8
0
 10
45.25189913456044
 20
-5.910357544078706
 11
44.56462283913903
 21
-5.606060888553132
  0
LINE
  8
0
 10
44.56462283913903
 20
-5.606060888553132
 11
43.99830739171272
 21
-5.393778920216163
  0
LINE
  8
0
 10
43.99830739171272
 20
-5.393778920216163
 11
43.41008487095768
 21
-5.211524253142297
  0
LINE
  8
0
 10
43.41008487095768
 20
-5.211524253142297
 11
43.11117794184489
 21
-5.06124060319957
  0
LINE
  8
0
 10
43.11117794184489
 20
-5.06124060319957
 11
42.976370997073964
 21
-4.902850655794567
  0
LINE
  8
0
 10
42.976370997073964
 20
-4.902850655794567
 11
43.17483443599926
 21
-2.6344031686924505
  0
LINE
  8
0
 10
43.17483443599926
 20
-2.6344031686924505
 11
43.33509748609717
 21
-2.5018285007847956
  0
LINE
  8
0
 10
43.33509748609717
 20
-2.5018285007847956
 11
43.65555982926215
 21
-2.4057326407021575
  0
LINE
  8
0
 10
43.65555982926215
 20
-2.4057326407021575
 11
44.26649411900762
 21
-2.3283906003374844
  0
LINE
  8
0
 10
44.26649411900762
 20
-2.3283906003374844
 11
44.861068339236134
 21
-2.2176733175250405
  0
LINE
  8
0
 10
44.861068339236134
 20
-2.2176733175250405
 11
45.59074392313082
 21
-2.037343888201374
  0
LINE
  8
0
 10
45.59074392313082
 20
-2.037343888201374
 11
46.448955222036886
 21
-1.7714359893338123
  0
LINE
  8
0
 10
46.448955222036886
 20
-1.7714359893338123
 11
47.42774475622343
 21
-1.404539112603883
  0
LINE
  8
0
 10
47.42774475622343
 20
-1.404539112603883
 11
48.29376794239934
 21
-1.0211009511009488
  0
LINE
  8
0
 10
48.29376794239934
 20
-1.0211009511009488
 11
48.38310269993622
 21
-1.7763568394002505e-15
  0
LINE
  8
0
 10
48.38310269993622
 20
-1.7763568394002505e-15
 11
48.29376794239928
 21
1.021100951100956
  0
LINE
  8
0
 10
48.29376794239928
 20
1.021100951100956
 11
47.42774475623172
 21
1.4045391126002127
  0
LINE
  8
0
 10
47.42774475623172
 20
1.4045391126002127
 11
46.44895522203723
 21
1.7714359893330338
  0
LINE
  8
0
 10
46.44895522203723
 20
1.7714359893330338
 11
45.59074392313081
 21
2.037343888201259
  0
LINE
  8
0
 10
45.59074392313081
 20
2.037343888201259
 11
44.861068339236134
 21
2.2176733175249232
  0
LINE
  8
0
 10
44.861068339236134
 20
2.2176733175249232
 11
44.26649411900687
 21
2.3283906003376513
  0
LINE
  8
0
 10
44.26649411900687
 20
2.3283906003376513
 11
43.65555982926225
 21
2.405732640702892
  0
LINE
  8
0
 10
43.65555982926225
 20
2.405732640702892
 11
43.33509748609722
 21
2.5018285007850096
  0
LINE
  8
0
 10
43.33509748609722
 20
2.5018285007850096
 11
43.17483443599928
 21
2.6344031686923337
  0
LINE
  8
0
 10
43.17483443599928
 20
2.6344031686923337
 11
42.976370997073964
 21
4.902850655794448
  0
LINE
  8
0
 10
42.976370997073964
 20
4.902850655794448
 11
43.1111779418448
 21
5.061240603199772
  0
LINE
  8
0
 10
43.1111779418448
 20
5.061240603199772
 11
43.410084870957455
 21
5.211524253143003
  0
LINE
  8
0
 10
43.410084870957455
 20
5.211524253143003
 11
43.998307391713425
 21
5.393778920216458
  0
LINE
  8
0
 10
43.998307391713425
 20
5.393778920216458
 11
44.56462283913904
 21
5.606060888553015
  0
LINE
  8
0
 10
44.56462283913904
 20
5.606060888553015
 11
45.25189913456047
 21
5.910357544078596
  0
LINE
  8
0
 10
45.25189913456047
 20
5.910357544078596
 11
46.05089785338025
 21
6.321252532578762
  0
LINE
  8
0
 10
46.05089785338025
 20
6.321252532578762
 11
46.95110640117852
 21
6.852540440269318
  0
LINE
  8
0
 10
46.95110640117852
 20
6.852540440269318
 11
47.73738941121991
 21
7.380536662614906
  0
LINE
  8
0
 10
47.73738941121991
 20
7.380536662614906
 11
47.64805465368304
 21
8.401637613715856
  0
LINE
  8
0
 10
47.64805465368304
 20
8.401637613715856
 11
47.38276477247467
 21
9.391712929119636
  0
LINE
  8
0
 10
47.38276477247467
 20
9.391712929119636
 11
46.46331508645615
 21
9.618942455269526
  0
LINE
  8
0
 10
46.46331508645615
 20
9.618942455269526
 11
45.43568459057786
 21
9.810300325099636
  0
LINE
  8
0
 10
45.43568459057786
 20
9.810300325099636
 11
44.544337027626426
 21
9.923141657383983
  0
LINE
  8
0
 10
44.544337027626426
 20
9.923141657383983
 11
43.794432978641474
 21
9.974024642046828
  0
LINE
  8
0
 10
43.794432978641474
 20
9.974024642046828
 11
43.18966582242184
 21
9.9798131507227
  0
LINE
  8
0
 10
43.18966582242184
 20
9.9798131507227
 11
42.574582692933866
 21
9.949892565619779
  0
LINE
  8
0
 10
42.574582692933866
 20
9.949892565619779
 11
42.24230202185189
 21
9.988880811759541
  0
LINE
  8
0
 10
42.24230202185189
 20
9.988880811759541
 11
42.06145237810714
 21
10.091611985970841
  0
LINE
  8
0
 10
42.06145237810714
 20
10.091611985970841
 11
41.47209227249562
 21
12.291133844067174
  0
LINE
  8
0
 10
41.47209227249562
 20
12.291133844067174
 11
41.57734707113814
 21
12.470526472567435
  0
LINE
  8
0
 10
41.57734707113814
 20
12.470526472567435
 11
41.84561645041157
 21
12.67043161971493
  0
LINE
  8
0
 10
41.84561645041157
 20
12.67043161971493
 11
42.39325435853984
 21
12.95206119766345
  0
LINE
  8
0
 10
42.39325435853984
 20
12.95206119766345
 11
42.91410382486197
 21
13.259457771336075
  0
LINE
  8
0
 10
42.91410382486197
 20
13.259457771336075
 11
43.53809828935234
 21
13.678475753166962
  0
LINE
  8
0
 10
43.53809828935234
 20
13.678475753166962
 11
44.25360725632735
 21
14.221872994997057
  0
LINE
  8
0
 10
44.25360725632735
 20
14.221872994997057
 11
45.047882436540014
 21
14.901409019417716
  0
LINE
  8
0
 10
45.047882436540014
 20
14.901409019417716
 11
45.73053445906524
 21
15.557920404568968
  0
LINE
  8
0
 10
45.73053445906524
 20
15.557920404568968
 11
45.46524457785681
 21
16.547995719972725
  0
LINE
  8
0
 10
45.46524457785681
 20
16.547995719972725
 11
45.032060271774164
 21
17.476962462223035
  0
LINE
  8
0
 10
45.032060271774164
 20
17.476962462223035
 11
44.08712109935049
 21
17.541079098855214
  0
LINE
  8
0
 10
44.08712109935049
 20
17.541079098855214
 11
43.04187367439954
 21
17.551083649739578
  0
LINE
  8
0
 10
43.04187367439954
 20
17.551083649739578
 11
42.14447299205975
 21
17.507429788659053
  0
LINE
  8
0
 10
42.14447299205975
 20
17.507429788659053
 11
41.397125933043164
 21
17.427320274920135
  0
LINE
  8
0
 10
41.397125933043164
 20
17.427320274920135
 11
40.800541384847946
 21
17.328004128552163
  0
LINE
  8
0
 10
40.800541384847946
 20
17.328004128552163
 11
40.19999840525903
 21
17.191730039818886
  0
LINE
  8
0
 10
40.19999840525903
 20
17.191730039818886
 11
39.8659955863088
 21
17.172426033886342
  0
LINE
  8
0
 10
39.8659955863088
 20
17.172426033886342
 11
39.6700543738281
 21
17.24219227965769
  0
LINE
  8
0
 10
39.6700543738281
 20
17.24219227965769
 11
38.707705010108775
 21
19.305957150101744
  0
LINE
  8
0
 10
38.707705010108775
 20
19.305957150101744
 11
38.78020954882771
 21
19.500901705457014
  0
LINE
  8
0
 10
38.78020954882771
 20
19.500901705457014
 11
39.00969014892355
 21
19.744354333069584
  0
LINE
  8
0
 10
39.00969014892355
 20
19.744354333069584
 11
39.5001037437038
 21
20.116801649678646
  0
LINE
  8
0
 10
39.5001037437038
 20
20.116801649678646
 11
39.959661481450794
 21
20.509972739346466
  0
LINE
  8
0
 10
39.959661481450794
 20
20.509972739346466
 11
40.501414358963004
 21
21.030980398138055
  0
LINE
  8
0
 10
40.501414358963004
 20
21.030980398138055
 11
41.11169319619671
 21
21.69036904307734
  0
LINE
  8
0
 10
41.11169319619671
 20
21.69036904307734
 11
41.77590135939564
 21
22.497505825987897
  0
LINE
  8
0
 10
41.77590135939564
 20
22.497505825987897
 11
42.33418035813884
 21
23.262584607717795
  0
LINE
  8
0
 10
42.33418035813884
 20
23.262584607717795
 11
41.90099605205623
 21
24.191551349968105
  0
LINE
  8
0
 10
41.90099605205623
 20
24.191551349968105
 11
41.31307940703789
 21
25.03118333468156
  0
LINE
  8
0
 10
41.31307940703789
 20
25.03118333468156
 11
40.37136224680077
 21
24.930238930236495
  0
LINE
  8
0
 10
40.37136224680077
 20
24.930238930236495
 11
39.34025720686358
 21
24.758586178959042
  0
LINE
  8
0
 10
39.34025720686358
 20
24.758586178959042
 11
38.464070470761676
 21
24.559763524992658
  0
LINE
  8
0
 10
38.464070470761676
 20
24.559763524992658
 11
37.74198816392581
 21
24.351095599889565
  0
LINE
  8
0
 10
37.74198816392581
 20
24.351095599889565
 11
37.17171314336557
 21
24.14969246932874
  0
LINE
  8
0
 10
37.17171314336557
 20
24.14969246932874
 11
36.603957508221114
 21
23.911205496193254
  0
LINE
  8
0
 10
36.603957508221114
 20
23.911205496193254
 11
36.27838104804285
 21
23.83419578064036
  0
LINE
  8
0
 10
36.27838104804285
 20
23.83419578064036
 11
36.073301841416395
 21
23.868877285897423
  0
LINE
  8
0
 10
36.073301841416395
 20
23.868877285897423
 11
34.7672037180336
 21
25.734178717416167
  0
LINE
  8
0
 10
34.7672037180336
 20
25.734178717416167
 11
34.80475498310905
 21
25.93875190795868
  0
LINE
  8
0
 10
34.80475498310905
 20
25.93875190795868
 11
34.988474152116176
 21
26.21835483113929
  0
LINE
  8
0
 10
34.988474152116176
 20
26.21835483113929
 11
35.406762464632244
 21
26.670303263161166
  0
LINE
  8
0
 10
35.406762464632244
 20
26.670303263161166
 11
35.791065044490104
 21
27.137302564218793
  0
LINE
  8
0
 10
35.791065044490104
 20
27.137302564218793
 11
36.234115447981125
 21
27.744469345901305
  0
LINE
  8
0
 10
36.234115447981125
 20
27.744469345901305
 11
36.72062114182019
 21
28.499814203640053
  0
LINE
  8
0
 10
36.72062114182019
 20
28.499814203640053
 11
37.234580659072115
 21
29.410027302322693
  0
LINE
  8
0
 10
37.234580659072115
 20
29.410027302322693
 11
37.65152360915931
 21
30.26042694899693
  0
LINE
  8
0
 10
37.65152360915931
 20
30.26042694899693
 11
37.06360696414099
 21
31.10005893371037
  0
LINE
  8
0
 10
37.06360696414099
 20
31.10005893371037
 11
36.338821529945605
 21
31.824844367905687
  0
LINE
  8
0
 10
36.338821529945605
 20
31.824844367905687
 11
35.42893998127702
 21
31.561906067032147
  0
LINE
  8
0
 10
35.42893998127702
 20
31.561906067032147
 11
34.44330693122777
 21
31.213811595579955
  0
LINE
  8
0
 10
34.44330693122777
 20
31.213811595579955
 11
33.614956631968305
 21
30.86586127445937
  0
LINE
  8
0
 10
33.614956631968305
 20
30.86586127445937
 11
32.9400791828151
 21
30.53497520730529
  0
LINE
  8
0
 10
32.9400791828151
 20
30.53497520730529
 11
32.41344120781649
 21
30.237604624758802
  0
LINE
  8
0
 10
32.41344120781649
 20
30.237604624758802
 11
31.89572388479213
 21
29.90415107321959
  0
LINE
  8
0
 10
31.89572388479213
 20
29.90415107321959
 11
31.58846625937871
 21
29.771775549284637
  0
LINE
  8
0
 10
31.58846625937871
 20
29.771775549284637
 11
31.380480286524747
 21
29.77031853403986
  0
LINE
  8
0
 10
31.380480286524747
 20
29.77031853403986
 11
29.770318534039927
 21
31.380480286524666
  0
LINE
  8
0
 10
29.770318534039927
 20
31.380480286524666
 11
29.77177554928443
 21
31.58846625937882
  0
LINE
  8
0
 10
29.77177554928443
 20
31.58846625937882
 11
29.90415107321895
 21
31.895723884792535
  0
LINE
  8
0
 10
29.90415107321895
 20
31.895723884792535
 11
30.237604624759143
 21
32.41344120781717
  0
LINE
  8
0
 10
30.237604624759143
 20
32.41344120781717
 11
30.534975207305365
 21
32.940079182815026
  0
LINE
  8
0
 10
30.534975207305365
 20
32.940079182815026
 11
30.86586127445945
 21
33.61495663196825
  0
LINE
  8
0
 10
30.86586127445945
 20
33.61495663196825
 11
31.21381159558032
 21
34.443306931227
  0
LINE
  8
0
 10
31.21381159558032
 20
34.443306931227
 11
31.56190606702962
 21
35.42893998126831
  0
LINE
  8
0
 10
31.56190606702962
 20
35.42893998126831
 11
31.824844367905698
 21
36.33882152994564
  0
LINE
  8
0
 10
31.824844367905698
 20
36.33882152994564
 11
31.10005893371038
 21
37.063606964140966
  0
LINE
  8
0
 10
31.10005893371038
 20
37.063606964140966
 11
30.260426948996887
 21
37.65152360915926
  0
LINE
  8
0
 10
30.260426948996887
 20
37.65152360915926
 11
29.41002730233084
 21
37.2345806590761
  0
LINE
  8
0
 10
29.41002730233084
 20
37.2345806590761
 11
28.49981420364087
 21
36.72062114181994
  0
LINE
  8
0
 10
28.49981420364087
 20
36.72062114181994
 11
27.744469345901386
 21
36.23411544798104
  0
LINE
  8
0
 10
27.744469345901386
 20
36.23411544798104
 11
27.13730256421889
 21
35.791065044490026
  0
LINE
  8
0
 10
27.13730256421889
 20
35.791065044490026
 11
26.67030326316056
 21
35.406762464631775
  0
LINE
  8
0
 10
26.67030326316056
 20
35.406762464631775
 11
26.218354831138797
 21
34.98847415211672
  0
LINE
  8
0
 10
26.218354831138797
 20
34.98847415211672
 11
25.93875190795855
 21
34.80475498310922
  0
LINE
  8
0
 10
25.93875190795855
 20
34.80475498310922
 11
25.734178717416274
 21
34.767203718033535
  0
LINE
  8
0
 10
25.734178717416274
 20
34.767203718033535
 11
23.868877285897515
 21
36.07330184141631
  0
LINE
  8
0
 10
23.868877285897515
 20
36.07330184141631
 11
23.834195780640155
 21
36.27838104804291
  0
LINE
  8
0
 10
23.834195780640155
 20
36.27838104804291
 11
23.91120549619257
 21
36.6039575082214
  0
LINE
  8
0
 10
23.91120549619257
 20
36.6039575082214
 11
24.149692469328972
 21
37.171713143366304
  0
LINE
  8
0
 10
24.149692469328972
 20
37.171713143366304
 11
24.351095599889668
 21
37.74198816392575
  0
LINE
  8
0
 10
24.351095599889668
 20
37.74198816392575
 11
24.559763524992768
 21
38.46407047076162
  0
LINE
  8
0
 10
24.559763524992768
 20
38.46407047076162
 11
24.758586178959547
 21
39.340257206862894
  0
LINE
  8
0
 10
24.758586178959547
 20
39.340257206862894
 11
24.930238930235532
 21
40.37136224679175
  0
LINE
  8
0
 10
24.930238930235532
 20
40.37136224679175
 11
25.031183334681554
 21
41.3130794070379
  0
LINE
  8
0
 10
25.031183334681554
 20
41.3130794070379
 11
24.191551349968123
 21
41.90099605205623
  0
LINE
  8
0
 10
24.191551349968123
 20
41.90099605205623
 11
23.262584607717773
 21
42.33418035813881
  0
LINE
  8
0
 10
23.262584607717773
 20
42.33418035813881
 11
22.49750582599523
 21
41.77590135940097
  0
LINE
  8
0
 10
22.49750582599523
 20
41.77590135940097
 11
21.69036904307819
 21
41.11169319619661
  0
LINE
  8
0
 10
21.69036904307819
 20
41.11169319619661
 11
21.03098039813815
 21
40.501414358962926
  0
LINE
  8
0
 10
21.03098039813815
 20
40.501414358962926
 11
20.509972739346573
 21
39.95966148145072
  0
LINE
  8
0
 10
20.509972739346573
 20
39.95966148145072
 11
20.11680164967813
 21
39.50010374370323
  0
LINE
  8
0
 10
20.11680164967813
 20
39.50010374370323
 11
19.744354333069
 21
39.00969014892401
  0
LINE
  8
0
 10
19.744354333069
 20
39.00969014892401
 11
19.500901705456858
 21
38.780209548827855
  0
LINE
  8
0
 10
19.500901705456858
 20
38.780209548827855
 11
19.305957150101857
 21
38.70770501010872
  0
LINE
  8
0
 10
19.305957150101857
 20
38.70770501010872
 11
17.242192279657797
 21
39.67005437382804
  0
LINE
  8
0
 10
17.242192279657797
 20
39.67005437382804
 11
17.17242603388613
 21
39.86599558630881
  0
LINE
  8
0
 10
17.17242603388613
 20
39.86599558630881
 11
17.191730039818164
 21
40.19999840525918
  0
LINE
  8
0
 10
17.191730039818164
 20
40.19999840525918
 11
17.328004128552266
 21
40.8005413848487
  0
LINE
  8
0
 10
17.328004128552266
 20
40.8005413848487
 11
17.427320274920252
 21
41.397125933043114
  0
LINE
  8
0
 10
17.427320274920252
 20
41.397125933043114
 11
17.50742978865917
 21
42.14447299205972
  0
LINE
  8
0
 10
17.50742978865917
 20
42.14447299205972
 11
17.551083649740196
 21
43.04187367439894
  0
LINE
  8
0
 10
17.551083649740196
 20
43.04187367439894
 11
17.541079098855832
 21
44.08712109934143
  0
LINE
  8
0
 10
17.541079098855832
 20
44.08712109934143
 11
17.476962462223053
 21
45.03206027177421
  0
LINE
  8
0
 10
17.476962462223053
 20
45.03206027177421
 11
16.547995719972743
 21
45.46524457785684
  0
LINE
  8
0
 10
16.547995719972743
 20
45.46524457785684
 11
15.557920404568955
 21
45.73053445906522
  0
LINE
  8
0
 10
15.557920404568955
 20
45.73053445906522
 11
14.901409019424003
 21
45.04788243654654
  0
LINE
  8
0
 10
14.901409019424003
 20
45.04788243654654
 11
14.221872994997906
 21
44.2536072563274
  0
LINE
  8
0
 10
14.221872994997906
 20
44.2536072563274
 11
13.678475753167067
 21
43.538098289352284
  0
LINE
  8
0
 10
13.678475753167067
 20
43.538098289352284
 11
13.259457771336193
 21
42.914103824861925
  0
LINE
  8
0
 10
13.259457771336193
 20
42.914103824861925
 11
12.952061197663042
 21
42.39325435853919
  0
LINE
  8
0
 10
12.952061197663042
 20
42.39325435853919
 11
12.67043161971428
 21
41.84561645041191
  0
LINE
  8
0
 10
12.67043161971428
 20
41.84561645041191
 11
12.470526472567256
 21
41.577347071138256
  0
LINE
  8
0
 10
12.470526472567256
 20
41.577347071138256
 11
12.291133844067295
 21
41.472092272495594
  0
LINE
  8
0
 10
12.291133844067295
 20
41.472092272495594
 11
10.091611985970959
 21
42.0614523781071
  0
LINE
  8
0
 10
10.091611985970959
 20
42.0614523781071
 11
9.988880811759326
 21
42.24230202185187
  0
LINE
  8
0
 10
9.988880811759326
 20
42.24230202185187
 11
9.949892565619043
 21
42.574582692933895
  0
LINE
  8
0
 10
9.949892565619043
 20
42.574582692933895
 11
9.97981315072267
 21
43.1896658224226
  0
LINE
  8
0
 10
9.97981315072267
 20
43.1896658224226
 11
9.974024642046945
 21
43.794432978641446
  0
LINE
  8
0
 10
9.974024642046945
 20
43.794432978641446
 11
9.923141657384098
 21
44.54433702762642
  0
LINE
  8
0
 10
9.923141657384098
 20
44.54433702762642
 11
9.810300325100346
 21
45.43568459057738
  0
LINE
  8
0
 10
9.810300325100346
 20
45.43568459057738
 11
9.618942455271705
 21
46.46331508644734
  0
LINE
  8
0
 10
9.618942455271705
 20
46.46331508644734
 11
9.391712929119622
 21
47.38276477247466
  0
LINE
  8
0
 10
9.391712929119622
 20
47.38276477247466
 11
8.401637613715867
 21
47.64805465368309
  0
LINE
  8
0
 10
8.401637613715867
 20
47.64805465368309
 11
7.380536662614901
 21
47.73738941121993
  0
LINE
  8
0
 10
7.380536662614901
 20
47.73738941121993
 11
6.852540440274378
 21
46.95110640118605
  0
LINE
  8
0
 10
6.852540440274378
 20
46.95110640118605
 11
6.321252532579592
 21
46.05089785338045
  0
LINE
  8
0
 10
6.321252532579592
 20
46.05089785338045
 11
5.910357544078709
 21
45.25189913456044
  0
LINE
  8
0
 10
5.910357544078709
 20
45.25189913456044
 11
5.6060608885531344
 21
44.56462283913903
  0
LINE
  8
0
 10
5.6060608885531344
 20
44.56462283913903
 11
5.393778920216166
 21
43.99830739171272
  0
LINE
  8
0
 10
5.393778920216166
 20
43.99830739171272
 11
5.2115242531423
 21
43.41008487095768
  0
LINE
  8
0
 10
5.2115242531423
 20
43.41008487095768
 11
5.061240603199573
 21
43.11117794184489
  0
LINE
  8
0
 10
5.061240603199573
 20
43.11117794184489
 11
4.90285065579457
 21
42.976370997073964
  0
LINE
  8
0
 10
4.90285065579457
 20
42.976370997073964
 11
2.634403168692453
 21
43.17483443599926
  0
LINE
  8
0
 10
2.634403168692453
 20
43.17483443599926
 11
2.5018285007847982
 21
43.33509748609717
  0
LINE
  8
0
 10
2.5018285007847982
 20
43.33509748609717
 11
2.40573264070216
 21
43.65555982926215
  0
LINE
  8
0
 10
2.40573264070216
 20
43.65555982926215
 11
2.328390600337487
 21
44.26649411900762
  0
LINE
  8
0
 10
2.328390600337487
 20
44.26649411900762
 11
2.217673317525043
 21
44.861068339236134
  0
LINE
  8
0
 10
2.217673317525043
 20
44.861068339236134
 11
2.037343888201377
 21
45.59074392313082
  0
LINE
  8
0
 10
2.037343888201377
 20
45.59074392313082
 11
1.7714359893338152
 21
46.448955222036886
  0
LINE
  8
0
 10
1.7714359893338152
 20
46.448955222036886
 11
1.404539112603886
 21
47.42774475622343
  0
LINE
  8
0
 10
1.404539112603886
 20
47.42774475622343
 11
1.021100951100951
 21
48.293767942399334
  0
LINE
  8
0
 10
1.021100951100951
 20
48.293767942399334
 11
-7.993605777301127e-15
 21
48.38310269993621
  0
LINE
  8
0
 10
-7.993605777301127e-15
 20
48.38310269993621
 11
-1.0211009511009688
 21
48.293767942399334
  0
LINE
  8
0
 10
-1.0211009511009688
 20
48.293767942399334
 11
-1.4045391126002216
 21
47.427744756231725
  0
LINE
  8
0
 10
-1.4045391126002216
 20
47.427744756231725
 11
-1.7714359893330427
 21
46.44895522203723
  0
LINE
  8
0
 10
-1.7714359893330427
 20
46.44895522203723
 11
-2.037343888201268
 21
45.59074392313081
  0
LINE
  8
0
 10
-2.037343888201268
 20
45.59074392313081
 11
-2.2176733175249312
 21
44.86106833923614
  0
LINE
  8
0
 10
-2.2176733175249312
 20
44.86106833923614
 11
-2.32839060033766
 21
44.26649411900687
  0
LINE
  8
0
 10
-2.32839060033766
 20
44.26649411900687
 11
-2.405732640702901
 21
43.65555982926226
  0
LINE
  8
0
 10
-2.405732640702901
 20
43.65555982926226
 11
-2.5018285007850176
 21
43.33509748609722
  0
LINE
  8
0
 10
-2.5018285007850176
 20
43.33509748609722
 11
-2.6344031686923417
 21
43.17483443599928
  0
LINE
  8
0
 10
-2.6344031686923417
 20
43.17483443599928
 11
-4.902850655794456
 21
42.976370997073964
  0
LINE
  8
0
 10
-4.902850655794456
 20
42.976370997073964
 11
-5.0612406031997805
 21
43.11117794184481
  0
LINE
  8
0
 10
-5.0612406031997805
 20
43.11117794184481
 11
-5.211524253143012
 21
43.410084870957455
  0
LINE
  8
0
 10
-5.211524253143012
 20
43.410084870957455
 11
-5.393778920216466
 21
43.998307391713425
  0
LINE
  8
0
 10
-5.393778920216466
 20
43.998307391713425
 11
-5.606060888553024
 21
44.56462283913904
  0
LINE
  8
0
 10
-5.606060888553024
 20
44.56462283913904
 11
-5.910357544078605
 21
45.25189913456047
  0
LINE
  8
0
 10
-5.910357544078605
 20
45.25189913456047
 11
-6.321252532578771
 21
46.05089785338025
  0
LINE
  8
0
 10
-6.321252532578771
 20
46.05089785338025
 11
-6.852540440269327
 21
46.95110640117852
  0
LINE
  8
0
 10
-6.852540440269327
 20
46.95110640117852
 11
-7.380536662614919
 21
47.73738941121992
  0
LINE
  8
0
 10
-7.380536662614919
 20
47.73738941121992
 11
-8.401637613715867
 21
47.64805465368305
  0
LINE
  8
0
 10
-8.401637613715867
 20
47.64805465368305
 11
-9.391712929119635
 21
47.38276477247464
  0
LINE
  8
0
 10
-9.391712929119635
 20
47.38276477247464
 11
-9.618942455269538
 21
46.46331508645614
  0
LINE
  8
0
 10
-9.618942455269538
 20
46.46331508645614
 11
-9.810300325099647
 21
45.43568459057785
  0
LINE
  8
0
 10
-9.810300325099647
 20
45.43568459057785
 11
-9.923141657383994
 21
44.54433702762642
  0
LINE
  8
0
 10
-9.923141657383994
 20
44.54433702762642
 11
-9.974024642046839
 21
43.79443297864147
  0
LINE
  8
0
 10
-9.974024642046839
 20
43.79443297864147
 11
-9.97981315072271
 21
43.18966582242184
  0
LINE
  8
0
 10
-9.97981315072271
 20
43.18966582242184
 11
-9.94989256561979
 21
42.574582692933866
  0
LINE
  8
0
 10
-9.94989256561979
 20
42.574582692933866
 11
-9.988880811759552
 21
42.242302021851884
  0
LINE
  8
0
 10
-9.988880811759552
 20
42.242302021851884
 11
-10.091611985970852
 21
42.06145237810714
  0
LINE
  8
0
 10
-10.091611985970852
 20
42.06145237810714
 11
-12.291133844067183
 21
41.472092272495615
  0
LINE
  8
0
 10
-12.291133844067183
 20
41.472092272495615
 11
-12.470526472567444
 21
41.577347071138135
  0
LINE
  8
0
 10
-12.470526472567444
 20
41.577347071138135
 11
-12.670431619714941
 21
41.84561645041157
  0
LINE
  8
0
 10
-12.670431619714941
 20
41.84561645041157
 11
-12.952061197663461
 21
42.393254358539835
  0
LINE
  8
0
 10
-12.952061197663461
 20
42.393254358539835
 11
-13.259457771336086
 21
42.91410382486197
  0
LINE
  8
0
 10
-13.259457771336086
 20
42.91410382486197
 11
-13.678475753166973
 21
43.538098289352334
  0
LINE
  8
0
 10
-13.678475753166973
 20
43.538098289352334
 11
-14.221872994997067
 21
44.25360725632734
  0
LINE
  8
0
 10
-14.221872994997067
 20
44.25360725632734
 11
-14.901409019417727
 21
45.04788243654001
  0
LINE
  8
0
 10
-14.901409019417727
 20
45.04788243654001
 11
-15.557920404568986
 21
45.73053445906526
  0
LINE
  8
0
 10
-15.557920404568986
 20
45.73053445906526
 11
-16.54799571997273
 21
45.46524457785684
  0
LINE
  8
0
 10
-16.54799571997273
 20
45.46524457785684
 11
-17.476962462223018
 21
45.03206027177416
  0
LINE
  8
0
 10
-17.476962462223018
 20
45.03206027177416
 11
-17.541079098855207
 21
44.08712109935049
  0
LINE
  8
0
 10
-17.541079098855207
 20
44.08712109935049
 11
-17.55108364973957
 21
43.04187367439954
  0
LINE
  8
0
 10
-17.55108364973957
 20
43.04187367439954
 11
-17.507429788659046
 21
42.14447299205975
  0
LINE
  8
0
 10
-17.507429788659046
 20
42.14447299205975
 11
-17.427320274920127
 21
41.397125933043164
  0
LINE
  8
0
 10
-17.427320274920127
 20
41.397125933043164
 11
-17.328004128552156
 21
40.800541384847946
  0
LINE
  8
0
 10
-17.328004128552156
 20
40.800541384847946
 11
-17.19173003981888
 21
40.19999840525903
  0
LINE
  8
0
 10
-17.19173003981888
 20
40.19999840525903
 11
-17.172426033886335
 21
39.86599558630879
  0
LINE
  8
0
 10
-17.172426033886335
 20
39.86599558630879
 11
-17.242192279657683
 21
39.6700543738281
  0
LINE
  8
0
 10
-17.242192279657683
 20
39.6700543738281
 11
-19.305957150101737
 21
38.707705010108775
  0
LINE
  8
0
 10
-19.305957150101737
 20
38.707705010108775
 11
-19.500901705457007
 21
38.78020954882771
  0
LINE
  8
0
 10
-19.500901705457007
 20
38.78020954882771
 11
-19.744354333069577
 21
39.00969014892355
  0
LINE
  8
0
 10
-19.744354333069577
 20
39.00969014892355
 11
-20.11680164967864
 21
39.5001037437038
  0
LINE
  8
0
 10
-20.11680164967864
 20
39.5001037437038
 11
-20.50997273934646
 21
39.959661481450794
  0
LINE
  8
0
 10
-20.50997273934646
 20
39.959661481450794
 11
-21.03098039813805
 21
40.501414358963004
  0
LINE
  8
0
 10
-21.03098039813805
 20
40.501414358963004
 11
-21.690369043077332
 21
41.11169319619671
  0
LINE
  8
0
 10
-21.690369043077332
 20
41.11169319619671
 11
-22.49750582598789
 21
41.77590135939564
  0
LINE
  8
0
 10
-22.49750582598789
 20
41.77590135939564
 11
-23.262584607717788
 21
42.33418035813884
  0
LINE
  8
0
 10
-23.262584607717788
 20
42.33418035813884
 11
-24.191551349968105
 21
41.90099605205622
  0
LINE
  8
0
 10
-24.191551349968105
 20
41.90099605205622
 11
-25.031183334681543
 21
41.31307940703788
  0
LINE
  8
0
 10
-25.031183334681543
 20
41.31307940703788
 11
-24.9302389302365
 21
40.37136224680077
  0
LINE
  8
0
 10
-24.9302389302365
 20
40.37136224680077
 11
-24.758586178959046
 21
39.34025720686358
  0
LINE
  8
0
 10
-24.758586178959046
 20
39.34025720686358
 11
-24.55976352499266
 21
38.464070470761676
  0
LINE
  8
0
 10
-24.55976352499266
 20
38.464070470761676
 11
-24.351095599889568
 21
37.74198816392581
  0
LINE
  8
0
 10
-24.351095599889568
 20
37.74198816392581
 11
-24.149692469328745
 21
37.17171314336558
  0
LINE
  8
0
 10
-24.149692469328745
 20
37.17171314336558
 11
-23.911205496193258
 21
36.603957508221114
  0
LINE
  8
0
 10
-23.911205496193258
 20
36.603957508221114
 11
-23.834195780640368
 21
36.27838104804285
  0
LINE
  8
0
 10
-23.834195780640368
 20
36.27838104804285
 11
-23.868877285897426
 21
36.073301841416395
  0
LINE
  8
0
 10
-23.868877285897426
 20
36.073301841416395
 11
-25.734178717416174
 21
34.7672037180336
  0
LINE
  8
0
 10
-25.734178717416174
 20
34.7672037180336
 11
-25.938751907958682
 21
34.80475498310905
  0
LINE
  8
0
 10
-25.938751907958682
 20
34.80475498310905
 11
-26.218354831139298
 21
34.988474152116176
  0
LINE
  8
0
 10
-26.218354831139298
 20
34.988474152116176
 11
-26.67030326316117
 21
35.406762464632244
  0
LINE
  8
0
 10
-26.67030326316117
 20
35.406762464632244
 11
-27.1373025642188
 21
35.791065044490104
  0
LINE
  8
0
 10
-27.1373025642188
 20
35.791065044490104
 11
-27.744469345901308
 21
36.234115447981125
  0
LINE
  8
0
 10
-27.744469345901308
 20
36.234115447981125
 11
-28.499814203640057
 21
36.72062114182019
  0
LINE
  8
0
 10
-28.499814203640057
 20
36.72062114182019
 11
-29.410027302322696
 21
37.234580659072115
  0
LINE
  8
0
 10
-29.410027302322696
 20
37.234580659072115
 11
-30.26042694899688
 21
37.65152360915925
  0
LINE
  8
0
 10
-30.26042694899688
 20
37.65152360915925
 11
-31.1000589337103
 21
37.063606964140924
  0
LINE
  8
0
 10
-31.1000589337103
 20
37.063606964140924
 11
-31.824844367905662
 21
36.33882152994562
  0
LINE
  8
0
 10
-31.824844367905662
 20
36.33882152994562
 11
-31.561906067032137
 21
35.428939981277026
  0
LINE
  8
0
 10
-31.561906067032137
 20
35.428939981277026
 11
-31.213811595579944
 21
34.443306931227774
  0
LINE
  8
0
 10
-31.213811595579944
 20
34.443306931227774
 11
-30.865861274459352
 21
33.61495663196831
  0
LINE
  8
0
 10
-30.865861274459352
 20
33.61495663196831
 11
-30.534975207305276
 21
32.94007918281511
  0
LINE
  8
0
 10
-30.534975207305276
 20
32.94007918281511
 11
-30.237604624758795
 21
32.4134412078165
  0
LINE
  8
0
 10
-30.237604624758795
 20
32.4134412078165
 11
-29.904151073219584
 21
31.895723884792133
  0
LINE
  8
0
 10
-29.904151073219584
 20
31.895723884792133
 11
-29.771775549284627
 21
31.58846625937872
  0
LINE
  8
0
 10
-29.771775549284627
 20
31.58846625937872
 11
-29.77031853403985
 21
31.380480286524758
  0
LINE
  8
0
 10
-29.77031853403985
 20
31.380480286524758
 11
-31.38048028652466
 21
29.77031853403993
  0
LINE
  8
0
 10
-31.38048028652466
 20
29.77031853403993
 11
-31.588466259378812
 21
29.771775549284442
  0
LINE
  8
0
 10
-31.588466259378812
 20
29.771775549284442
 11
-31.895723884792524
 21
29.904151073218962
  0
LINE
  8
0
 10
-31.895723884792524
 20
29.904151073218962
 11
-32.41344120781716
 21
30.237604624759154
  0
LINE
  8
0
 10
-32.41344120781716
 20
30.237604624759154
 11
-32.94007918281501
 21
30.534975207305376
  0
LINE
  8
0
 10
-32.94007918281501
 20
30.534975207305376
 11
-33.614956631968234
 21
30.865861274459462
  0
LINE
  8
0
 10
-33.614956631968234
 20
30.865861274459462
 11
-34.44330693122699
 21
31.213811595580328
  0
LINE
  8
0
 10
-34.44330693122699
 20
31.213811595580328
 11
-35.4289399812683
 21
31.561906067029632
  0
LINE
  8
0
 10
-35.4289399812683
 20
31.561906067029632
 11
-36.3388215299456
 21
31.824844367905666
  0
LINE
  8
0
 10
-36.3388215299456
 20
31.824844367905666
 11
-37.06360696414094
 21
31.100058933710322
  0
LINE
  8
0
 10
-37.06360696414094
 20
31.100058933710322
 11
-37.65152360915928
 21
30.260426948996876
  0
LINE
  8
0
 10
-37.65152360915928
 20
30.260426948996876
 11
-37.23458065907611
 21
29.410027302330832
  0
LINE
  8
0
 10
-37.23458065907611
 20
29.410027302330832
 11
-36.72062114181995
 21
28.499814203640863
  0
LINE
  8
0
 10
-36.72062114181995
 20
28.499814203640863
 11
-36.23411544798104
 21
27.74446934590138
  0
LINE
  8
0
 10
-36.23411544798104
 20
27.74446934590138
 11
-35.79106504449003
 21
27.137302564218885
  0
LINE
  8
0
 10
-35.79106504449003
 20
27.137302564218885
 11
-35.40676246463178
 21
26.67030326316055
  0
LINE
  8
0
 10
-35.40676246463178
 20
26.67030326316055
 11
-34.98847415211673
 21
26.21835483113879
  0
LINE
  8
0
 10
-34.98847415211673
 20
26.21835483113879
 11
-34.80475498310922
 21
25.938751907958544
  0
LINE
  8
0
 10
-34.80475498310922
 20
25.938751907958544
 11
-34.767203718033535
 21
25.734178717416267
  0
LINE
  8
0
 10
-34.767203718033535
 20
25.734178717416267
 11
-36.07330184141632
 21
23.868877285897508
  0
LINE
  8
0
 10
-36.07330184141632
 20
23.868877285897508
 11
-36.27838104804292
 21
23.834195780640147
  0
LINE
  8
0
 10
-36.27838104804292
 20
23.834195780640147
 11
-36.6039575082214
 21
23.91120549619256
  0
LINE
  8
0
 10
-36.6039575082214
 20
23.91120549619256
 11
-37.17171314336631
 21
24.149692469328965
  0
LINE
  8
0
 10
-37.17171314336631
 20
24.149692469328965
 11
-37.741988163925754
 21
24.35109559988966
  0
LINE
  8
0
 10
-37.741988163925754
 20
24.35109559988966
 11
-38.46407047076163
 21
24.55976352499276
  0
LINE
  8
0
 10
-38.46407047076163
 20
24.55976352499276
 11
-39.3402572068629
 21
24.75858617895954
  0
LINE
  8
0
 10
-39.3402572068629
 20
24.75858617895954
 11
-40.371362246791755
 21
24.93023893023553
  0
LINE
  8
0
 10
-40.371362246791755
 20
24.93023893023553
 11
-41.31307940703789
 21
25.03118333468154
  0
LINE
  8
0
 10
-41.31307940703789
 20
25.03118333468154
 11
-41.90099605205622
 21
24.191551349968115
  0
LINE
  8
0
 10
-41.90099605205622
 20
24.191551349968115
 11
-42.33418035813882
 21
23.262584607717784
  0
LINE
  8
0
 10
-42.33418035813882
 20
23.262584607717784
 11
-41.77590135940097
 21
22.49750582599523
  0
LINE
  8
0
 10
-41.77590135940097
 20
22.49750582599523
 11
-41.11169319619661
 21
21.690369043078192
  0
LINE
  8
0
 10
-41.11169319619661
 20
21.690369043078192
 11
-40.501414358962926
 21
21.030980398138155
  0
LINE
  8
0
 10
-40.501414358962926
 20
21.030980398138155
 11
-39.95966148145072
 21
20.509972739346576
  0
LINE
  8
0
 10
-39.95966148145072
 20
20.509972739346576
 11
-39.50010374370323
 21
20.116801649678134
  0
LINE
  8
0
 10
-39.50010374370323
 20
20.116801649678134
 11
-39.00969014892401
 21
19.744354333069005
  0
LINE
  8
0
 10
-39.00969014892401
 20
19.744354333069005
 11
-38.780209548827855
 21
19.50090170545686
  0
LINE
  8
0
 10
-38.780209548827855
 20
19.50090170545686
 11
-38.70770501010872
 21
19.30595715010186
  0
LINE
  8
0
 10
-38.70770501010872
 20
19.30595715010186
 11
-39.67005437382804
 21
17.2421922796578
  0
LINE
  8
0
 10
-39.67005437382804
 20
17.2421922796578
 11
-39.86599558630881
 21
17.17242603388613
  0
LINE
  8
0
 10
-39.86599558630881
 20
17.17242603388613
 11
-40.19999840525918
 21
17.191730039818168
  0
LINE
  8
0
 10
-40.19999840525918
 20
17.191730039818168
 11
-40.8005413848487
 21
17.32800412855227
  0
LINE
  8
0
 10
-40.8005413848487
 20
17.32800412855227
 11
-41.397125933043114
 21
17.427320274920252
  0
LINE
  8
0
 10
-41.397125933043114
 20
17.427320274920252
 11
-42.14447299205972
 21
17.507429788659174
  0
LINE
  8
0
 10
-42.14447299205972
 20
17.507429788659174
 11
-43.04187367439894
 21
17.5510836497402
  0
LINE
  8
0
 10
-43.04187367439894
 20
17.5510836497402
 11
-44.08712109934143
 21
17.541079098855835
  0
LINE
  8
0
 10
-44.08712109934143
 20
17.541079098855835
 11
-45.032060271774206
 21
17.47696246222306
  0
LINE
  8
0
 10
-45.032060271774206
 20
17.47696246222306
 11
-45.465244577856836
 21
16.547995719972743
  0
LINE
  8
0
 10
-45.465244577856836
 20
16.547995719972743
 11
-45.73053445906522
 21
15.557920404568948
  0
LINE
  8
0
 10
-45.73053445906522
 20
15.557920404568948
 11
-45.047882436546544
 21
14.901409019423996
  0
LINE
  8
0
 10
-45.047882436546544
 20
14.901409019423996
 11
-44.2536072563274
 21
14.2218729949979
  0
LINE
  8
0
 10
-44.2536072563274
 20
14.2218729949979
 11
-43.538098289352284
 21
13.67847575316706
  0
LINE
  8
0
 10
-43.538098289352284
 20
13.67847575316706
 11
-42.91410382486193
 21
13.259457771336185
  0
LINE
  8
0
 10
-42.91410382486193
 20
13.259457771336185
 11
-42.39325435853919
 21
12.952061197663037
  0
LINE
  8
0
 10
-42.39325435853919
 20
12.952061197663037
 11
-41.84561645041192
 21
12.670431619714273
  0
LINE
  8
0
 10
-41.84561645041192
 20
12.670431619714273
 11
-41.577347071138256
 21
12.470526472567249
  0
LINE
  8
0
 10
-41.577347071138256
 20
12.470526472567249
 11
-41.472092272495594
 21
12.291133844067287
  0
LINE
  8
0
 10
-41.472092272495594
 20
12.291133844067287
 11
-42.0614523781071
 21
10.091611985970951
  0
LINE
  8
0
 10
-42.0614523781071
 20
10.091611985970951
 11
-42.24230202185187
 21
9.988880811759321
  0
LINE
  8
0
 10
-42.24230202185187
 20
9.988880811759321
 11
-42.574582692933895
 21
9.949892565619036
  0
LINE
  8
0
 10
-42.574582692933895
 20
9.949892565619036
 11
-43.1896658224226
 21
9.979813150722665
  0
LINE
  8
0
 10
-43.1896658224226
 20
9.979813150722665
 11
-43.794432978641446
 21
9.97402464204694
  0
LINE
  8
0
 10
-43.794432978641446
 20
9.97402464204694
 11
-44.54433702762642
 21
9.923141657384093
  0
LINE
  8
0
 10
-44.54433702762642
 20
9.923141657384093
 11
-45.43568459057738
 21
9.81030032510034
  0
LINE
  8
0
 10
-45.43568459057738
 20
9.81030032510034
 11
-46.46331508644734
 21
9.618942455271698
  0
LINE
  8
0
 10
-46.46331508644734
 20
9.618942455271698
 11
-47.382764772474665
 21
9.39171292911962
  0
LINE
  8
0
 10
-47.382764772474665
 20
9.39171292911962
 11
-47.6480546536831
 21
8.40163761371587
  0
LINE
  8
0
 10
-47.6480546536831
 20
8.40163761371587
 11
-47.73738941121993
 21
7.3805366626149045
  0
LINE
  8
0
 10
-47.73738941121993
 20
7.3805366626149045
 11
-46.95110640118605
 21
6.852540440274381
  0
LINE
  8
0
 10
-46.95110640118605
 20
6.852540440274381
 11
-46.05089785338045
 21
6.321252532579595
  0
LINE
  8
0
 10
-46.05089785338045
 20
6.321252532579595
 11
-45.25189913456044
 21
5.910357544078711
  0
LINE
  8
0
 10
-45.25189913456044
 20
5.910357544078711
 11
-44.56462283913903
 21
5.606060888553137
  0
LINE
  8
0
 10
-44.56462283913903
 20
5.606060888553137
 11
-43.99830739171272
 21
5.393778920216168
  0
LINE
  8
0
 10
-43.99830739171272
 20
5.393778920216168
 11
-43.41008487095768
 21
5.2115242531423025
  0
LINE
  8
0
 10
-43.41008487095768
 20
5.2115242531423025
 11
-43.11117794184489
 21
5.061240603199575
  0
LINE
  8
0
 10
-43.11117794184489
 20
5.061240603199575
 11
-42.976370997073964
 21
4.902850655794572
  0
LINE
  8
0
 10
-42.976370997073964
 20
4.902850655794572
 11
-43.17483443599926
 21
2.634403168692456
  0
LINE
  8
0
 10
-43.17483443599926
 20
2.634403168692456
 11
-43.33509748609717
 21
2.501828500784801
  0
LINE
  8
0
 10
-43.33509748609717
 20
2.501828500784801
 11
-43.65555982926215
 21
2.405732640702163
  0
LINE
  8
0
 10
-43.65555982926215
 20
2.405732640702163
 11
-44.26649411900762
 21
2.3283906003374897
  0
LINE
  8
0
 10
-44.26649411900762
 20
2.3283906003374897
 11
-44.861068339236134
 21
2.217673317525046
  0
LINE
  8
0
 10
-44.861068339236134
 20
2.217673317525046
 11
-45.59074392313082
 21
2.03734388820138
  0
LINE
  8
0
 10
-45.59074392313082
 20
2.03734388820138
 11
-46.448955222036886
 21
1.771435989333818
  0
LINE
  8
0
 10
-46.448955222036886
 20
1.771435989333818
 11
-47.42774475622343
 21
1.4045391126038889
  0
LINE
  8
0
 10
-47.42774475622343
 20
1.4045391126038889
 11
-48.293767942399334
 21
1.021100951100955
  0
LINE
  8
0
 10
-48.293767942399334
 20
1.021100951100955
 11
-48.38310269993621
 21
-4.440892098500626e-15
  0
LINE
  8
0
 10
-48.38310269993621
 20
-4.440892098500626e-15
 11
-48.29376794239932
 21
-1.0211009511009665
  0
LINE
  8
0
 10
-48.29376794239932
 20
-1.0211009511009665
 11
-47.427744756231725
 21
-1.404539112600218
  0
LINE
  8
0
 10
-47.427744756231725
 20
-1.404539112600218
 11
-46.44895522203723
 21
-1.77143598933304
  0
LINE
  8
0
 10
-46.44895522203723
 20
-1.77143598933304
 11
-45.59074392313081
 21
-2.0373438882012653
  0
LINE
  8
0
 10
-45.59074392313081
 20
-2.0373438882012653
 11
-44.86106833923614
 21
-2.2176733175249295
  0
LINE
  8
0
 10
-44.86106833923614
 20
-2.2176733175249295
 11
-44.26649411900687
 21
-2.3283906003376575
  0
LINE
  8
0
 10
-44.26649411900687
 20
-2.3283906003376575
 11
-43.65555982926226
 21
-2.4057326407028983
  0
LINE
  8
0
 10
-43.65555982926226
 20
-2.4057326407028983
 11
-43.33509748609722
 21
-2.501828500785015
  0
LINE
  8
0
 10
-43.33509748609722
 20
-2.501828500785015
 11
-43.17483443599928
 21
-2.63440316869234
  0
LINE
  8
0
 10
-43.17483443599928
 20
-2.63440316869234
 11
-42.976370997073964
 21
-4.902850655794454
  0
LINE
  8
0
 10
-42.976370997073964
 20
-4.902850655794454
 11
-43.1111779418448
 21
-5.061240603199777
  0
LINE
  8
0
 10
-43.1111779418448
 20
-5.061240603199777
 11
-43.410084870957455
 21
-5.21152425314301
  0
LINE
  8
0
 10
-43.410084870957455
 20
-5.21152425314301
 11
-43.998307391713425
 21
-5.393778920216464
  0
LINE
  8
0
 10
-43.998307391713425
 20
-5.393778920216464
 11
-44.56462283913904
 21
-5.606060888553022
  0
LINE
  8
0
 10
-44.56462283913904
 20
-5.606060888553022
 11
-45.25189913456047
 21
-5.910357544078601
  0
LINE
  8
0
 10
-45.25189913456047
 20
-5.910357544078601
 11
-46.05089785338025
 21
-6.321252532578769
  0
LINE
  8
0
 10
-46.05089785338025
 20
-6.321252532578769
 11
-46.95110640117852
 21
-6.852540440269325
  0
LINE
  8
0
 10
-46.95110640117852
 20
-6.852540440269325
 11
-47.737389411219915
 21
-7.380536662614915
  0
LINE
  8
0
 10
-47.737389411219915
 20
-7.380536662614915
 11
-47.64805465368304
 21
-8.401637613715872
  0
LINE
  8
0
 10
-47.64805465368304
 20
-8.401637613715872
 11
-47.38276477247465
 21
-9.391712929119645
  0
LINE
  8
0
 10
-47.38276477247465
 20
-9.391712929119645
 11
-46.46331508645614
 21
-9.618942455269542
  0
LINE
  8
0
 10
-46.46331508645614
 20
-9.618942455269542
 11
-45.43568459057785
 21
-9.810300325099654
  0
LINE
  8
0
 10
-45.43568459057785
 20
-9.810300325099654
 11
-44.54433702762642
 21
-9.923141657383997
  0
LINE
  8
0
 10
-44.54433702762642
 20
-9.923141657383997
 11
-43.79443297864147
 21
-9.974024642046846
  0
LINE
  8
0
 10
-43.79443297864147
 20
-9.974024642046846
 11
-43.18966582242184
 21
-9.979813150722714
  0
LINE
  8
0
 10
-43.18966582242184
 20
-9.979813150722714
 11
-42.574582692933866
 21
-9.949892565619793
  0
LINE
  8
0
 10
-42.574582692933866
 20
-9.949892565619793
 11
-42.242302021851884
 21
-9.988880811759556
  0
LINE
  8
0
 10
-42.242302021851884
 20
-9.988880811759556
 11
-42.06145237810714
 21
-10.091611985970856
  0
LINE
  8
0
 10
-42.06145237810714
 20
-10.091611985970856
 11
-41.472092272495615
 21
-12.291133844067188
  0
LINE
  8
0
 10
-41.472092272495615
 20
-12.291133844067188
 11
-41.577347071138135
 21
-12.47052647256745
  0
LINE
  8
0
 10
-41.577347071138135
 20
-12.47052647256745
 11
-41.84561645041157
 21
-12.670431619714945
  0
LINE
  8
0
 10
-41.84561645041157
 20
-12.670431619714945
 11
-42.393254358539835
 21
-12.952061197663465
  0
LINE
  8
0
 10
-42.393254358539835
 20
-12.952061197663465
 11
-42.91410382486197
 21
-13.259457771336091
  0
LINE
  8
0
 10
-42.91410382486197
 20
-13.259457771336091
 11
-43.538098289352334
 21
-13.678475753166978
  0
LINE
  8
0
 10
-43.538098289352334
 20
-13.678475753166978
 11
-44.25360725632734
 21
-14.22187299499707
  0
LINE
  8
0
 10
-44.25360725632734
 20
-14.22187299499707
 11
-45.04788243654001
 21
-14.90140901941773
  0
LINE
  8
0
 10
-45.04788243654001
 20
-14.90140901941773
 11
-45.73053445906528
 21
-15.557920404569
  0
LINE
  8
0
 10
-45.73053445906528
 20
-15.557920404569
 11
-45.465244577856865
 21
-16.547995719972754
  0
LINE
  8
0
 10
-45.465244577856865
 20
-16.547995719972754
 11
-45.03206027177414
 21
-17.47696246222303
  0
LINE
  8
0
 10
-45.03206027177414
 20
-17.47696246222303
 11
-44.08712109935048
 21
-17.54107909885522
  0
LINE
  8
0
 10
-44.08712109935048
 20
-17.54107909885522
 11
-43.04187367439953
 21
-17.551083649739585
  0
LINE
  8
0
 10
-43.04187367439953
 20
-17.551083649739585
 11
-42.14447299205975
 21
-17.50742978865906
  0
LINE
  8
0
 10
-42.14447299205975
 20
-17.50742978865906
 11
-41.39712593304316
 21
-17.427320274920145
  0
LINE
  8
0
 10
-41.39712593304316
 20
-17.427320274920145
 11
-40.80054138484794
 21
-17.32800412855217
  0
LINE
  8
0
 10
-40.80054138484794
 20
-17.32800412855217
 11
-40.199998405259024
 21
-17.191730039818893
  0
LINE
  8
0
 10
-40.199998405259024
 20
-17.191730039818893
 11
-39.8659955863088
 21
-17.17242603388635
  0
LINE
  8
0
 10
-39.8659955863088
 20
-17.17242603388635
 11
-39.6700543738281
 21
-17.242192279657697
  0
LINE
  8
0
 10
-39.6700543738281
 20
-17.242192279657697
 11
-38.70770501010877
 21
-19.30595715010175
  0
LINE
  8
0
 10
-38.70770501010877
 20
-19.30595715010175
 11
-38.780209548827706
 21
-19.50090170545702
  0
LINE
  8
0
 10
-38.780209548827706
 20
-19.50090170545702
 11
-39.00969014892355
 21
-19.74435433306959
  0
LINE
  8
0
 10
-39.00969014892355
 20
-19.74435433306959
 11
-39.50010374370379
 21
-20.116801649678653
  0
LINE
  8
0
 10
-39.50010374370379
 20
-20.116801649678653
 11
-39.95966148145079
 21
-20.509972739346473
  0
LINE
  8
0
 10
-39.95966148145079
 20
-20.509972739346473
 11
-40.501414358963
 21
-21.030980398138063
  0
LINE
  8
0
 10
-40.501414358963
 20
-21.030980398138063
 11
-41.111693196196704
 21
-21.690369043077347
  0
LINE
  8
0
 10
-41.111693196196704
 20
-21.690369043077347
 11
-41.77590135939563
 21
-22.497505825987908
  0
LINE
  8
0
 10
-41.77590135939563
 20
-22.497505825987908
 11
-42.33418035813882
 21
-23.262584607717795
  0
LINE
  8
0
 10
-42.33418035813882
 20
-23.262584607717795
 11
-41.90099605205621
 21
-24.191551349968115
  0
LINE
  8
0
 10
-41.90099605205621
 20
-24.191551349968115
 11
-41.3130794070379
 21
-25.031183334681575
  0
LINE
  8
0
 10
-41.3130794070379
 20
-25.031183334681575
 11
-40.37136224680076
 21
-24.930238930236513
  0
LINE
  8
0
 10
-40.37136224680076
 20
-24.930238930236513
 11
-39.340257206863576
 21
-24.758586178959057
  0
LINE
  8
0
 10
-39.340257206863576
 20
-24.758586178959057
 11
-38.46407047076166
 21
-24.559763524992672
  0
LINE
  8
0
 10
-38.46407047076166
 20
-24.559763524992672
 11
-37.741988163925804
 21
-24.35109559988958
  0
LINE
  8
0
 10
-37.741988163925804
 20
-24.35109559988958
 11
-37.17171314336557
 21
-24.149692469328755
  0
LINE
  8
0
 10
-37.17171314336557
 20
-24.149692469328755
 11
-36.60395750822111
 21
-23.91120549619327
  0
LINE
  8
0
 10
-36.60395750822111
 20
-23.91120549619327
 11
-36.278381048042846
 21
-23.834195780640375
  0
LINE
  8
0
 10
-36.278381048042846
 20
-23.834195780640375
 11
-36.07330184141639
 21
-23.868877285897437
  0
LINE
  8
0
 10
-36.07330184141639
 20
-23.868877285897437
 11
-34.767203718033585
 21
-25.734178717416185
  0
LINE
  8
0
 10
-34.767203718033585
 20
-25.734178717416185
 11
-34.80475498310904
 21
-25.938751907958693
  0
LINE
  8
0
 10
-34.80475498310904
 20
-25.938751907958693
 11
-34.98847415211617
 21
-26.218354831139308
  0
LINE
  8
0
 10
-34.98847415211617
 20
-26.218354831139308
 11
-35.40676246463224
 21
-26.67030326316118
  0
LINE
  8
0
 10
-35.40676246463224
 20
-26.67030326316118
 11
-35.79106504449009
 21
-27.13730256421881
  0
LINE
  8
0
 10
-35.79106504449009
 20
-27.13730256421881
 11
-36.23411544798111
 21
-27.74446934590132
  0
LINE
  8
0
 10
-36.23411544798111
 20
-27.74446934590132
 11
-36.720621141820175
 21
-28.499814203640067
  0
LINE
  8
0
 10
-36.720621141820175
 20
-28.499814203640067
 11
-37.2345806590721
 21
-29.410027302322707
  0
LINE
  8
0
 10
-37.2345806590721
 20
-29.410027302322707
 11
-37.6515236091593
 21
-30.26042694899693
  0
LINE
  8
0
 10
-37.6515236091593
 20
-30.26042694899693
 11
-37.06360696414096
 21
-31.100058933710383
  0
LINE
  8
0
 10
-37.06360696414096
 20
-31.100058933710383
 11
-36.3388215299456
 21
-31.824844367905705
  0
LINE
  8
0
 10
-36.3388215299456
 20
-31.824844367905705
 11
-35.428939981277
 21
-31.561906067032172
  0
LINE
  8
0
 10
-35.428939981277
 20
-31.561906067032172
 11
-34.443306931227745
 21
-31.213811595579973
  0
LINE
  8
0
 10
-34.443306931227745
 20
-31.213811595579973
 11
-33.61495663196828
 21
-30.865861274459387
  0
LINE
  8
0
 10
-33.61495663196828
 20
-30.865861274459387
 11
-32.94007918281508
 21
-30.53497520730531
  0
LINE
  8
0
 10
-32.94007918281508
 20
-30.53497520730531
 11
-32.41344120781647
 21
-30.23760462475882
  0
LINE
  8
0
 10
-32.41344120781647
 20
-30.23760462475882
 11
-31.89572388479211
 21
-29.90415107321961
  0
LINE
  8
0
 10
-31.89572388479211
 20
-29.90415107321961
 11
-31.58846625937869
 21
-29.77177554928465
  0
LINE
  8
0
 10
-31.58846625937869
 20
-29.77177554928465
 11
-31.380480286524733
 21
-29.770318534039873
  0
LINE
  8
0
 10
-31.380480286524733
 20
-29.770318534039873
 11
-29.770318534039905
 21
-31.38048028652468
  0
LINE
  8
0
 10
-29.770318534039905
 20
-31.38048028652468
 11
-29.771775549284413
 21
-31.588466259378833
  0
LINE
  8
0
 10
-29.771775549284413
 20
-31.588466259378833
 11
-29.904151073218937
 21
-31.89572388479255
  0
LINE
  8
0
 10
-29.904151073218937
 20
-31.89572388479255
 11
-30.237604624759125
 21
-32.413441207817186
  0
LINE
  8
0
 10
-30.237604624759125
 20
-32.413441207817186
 11
-30.534975207305347
 21
-32.94007918281504
  0
LINE
  8
0
 10
-30.534975207305347
 20
-32.94007918281504
 11
-30.86586127445943
 21
-33.61495663196826
  0
LINE
  8
0
 10
-30.86586127445943
 20
-33.61495663196826
 11
-31.2138115955803
 21
-34.44330693122702
  0
LINE
  8
0
 10
-31.2138115955803
 20
-34.44330693122702
 11
-31.5619060670296
 21
-35.42893998126833
  0
LINE
  8
0
 10
-31.5619060670296
 20
-35.42893998126833
 11
-31.824844367905648
 21
-36.33882152994563
  0
LINE
  8
0
 10
-31.824844367905648
 20
-36.33882152994563
 11
-31.100058933710354
 21
-37.063606964140924
  0
LINE
  8
0
 10
-31.100058933710354
 20
-37.063606964140924
 11
-30.260426948996905
 21
-37.651523609159284
  0
LINE
  8
0
 10
-30.260426948996905
 20
-37.651523609159284
 11
-29.410027302330857
 21
-37.23458065907609
  0
LINE
  8
0
 10
-29.410027302330857
 20
-37.23458065907609
 11
-28.499814203640888
 21
-36.72062114181993
  0
LINE
  8
0
 10
-28.499814203640888
 20
-36.72062114181993
 11
-27.744469345901404
 21
-36.234115447981026
  0
LINE
  8
0
 10
-27.744469345901404
 20
-36.234115447981026
 11
-27.137302564218906
 21
-35.791065044490004
  0
LINE
  8
0
 10
-27.137302564218906
 20
-35.791065044490004
 11
-26.670303263160573
 21
-35.40676246463177
  0
LINE
  8
0
 10
-26.670303263160573
 20
-35.40676246463177
 11
-26.218354831138807
 21
-34.988474152116716
  0
LINE
  8
0
 10
-26.218354831138807
 20
-34.988474152116716
 11
-25.938751907958565
 21
-34.804754983109206
  0
LINE
  8
0
 10
-25.938751907958565
 20
-34.804754983109206
 11
-25.734178717416288
 21
-34.767203718033514
  0
LINE
  8
0
 10
-25.734178717416288
 20
-34.767203718033514
 11
-23.86887728589753
 21
-36.0733018414163
  0
LINE
  8
0
 10
-23.86887728589753
 20
-36.0733018414163
 11
-23.83419578064017
 21
-36.2783810480429
  0
LINE
  8
0
 10
-23.83419578064017
 20
-36.2783810480429
 11
-23.911205496192583
 21
-36.60395750822138
  0
LINE
  8
0
 10
-23.911205496192583
 20
-36.60395750822138
 11
-24.14969246932899
 21
-37.1717131433663
  0
LINE
  8
0
 10
-24.14969246932899
 20
-37.1717131433663
 11
-24.351095599889685
 21
-37.74198816392574
  0
LINE
  8
0
 10
-24.351095599889685
 20
-37.74198816392574
 11
-24.559763524992785
 21
-38.46407047076161
  0
LINE
  8
0
 10
-24.559763524992785
 20
-38.46407047076161
 11
-24.758586178959565
 21
-39.34025720686289
  0
LINE
  8
0
 10
-24.758586178959565
 20
-39.34025720686289
 11
-24.93023893023555
 21
-40.37136224679173
  0
LINE
  8
0
 10
-24.93023893023555
 20
-40.37136224679173
 11
-25.031183334681554
 21
-41.31307940703787
  0
LINE
  8
0
 10
-25.031183334681554
 20
-41.31307940703787
 11
-24.19155134996812
 21
-41.90099605205619
  0
LINE
  8
0
 10
-24.19155134996812
 20
-41.90099605205619
 11
-23.262584607717802
 21
-42.3341803581388
  0
LINE
  8
0
 10
-23.262584607717802
 20
-42.3341803581388
 11
-22.49750582599526
 21
-41.77590135940097
  0
LINE
  8
0
 10
-22.49750582599526
 20
-41.77590135940097
 11
-21.690369043078213
 21
-41.11169319619661
  0
LINE
  8
0
 10
-21.690369043078213
 20
-41.11169319619661
 11
-21.03098039813818
 21
-40.50141435896292
  0
LINE
  8
0
 10
-21.03098039813818
 20
-40.50141435896292
 11
-20.509972739346598
 21
-39.95966148145072
  0
LINE
  8
0
 10
-20.509972739346598
 20
-39.95966148145072
 11
-20.116801649678155
 21
-39.50010374370322
  0
LINE
  8
0
 10
-20.116801649678155
 20
-39.50010374370322
 11
-19.744354333069026
 21
-39.009690148923994
  0
LINE
  8
0
 10
-19.744354333069026
 20
-39.009690148923994
 11
-19.50090170545688
 21
-38.78020954882785
  0
LINE
  8
0
 10
-19.50090170545688
 20
-38.78020954882785
 11
-19.305957150101882
 21
-38.70770501010872
  0
LINE
  8
0
 10
-19.305957150101882
 20
-38.70770501010872
 11
-17.24219227965782
 21
-39.67005437382803
  0
LINE
  8
0
 10
-17.24219227965782
 20
-39.67005437382803
 11
-17.17242603388615
 21
-39.86599558630881
  0
LINE
  8
0
 10
-17.17242603388615
 20
-39.86599558630881
 11
-17.19173003981819
 21
-40.19999840525917
  0
LINE
  8
0
 10
-17.19173003981819
 20
-40.19999840525917
 11
-17.32800412855229
 21
-40.80054138484869
  0
LINE
  8
0
 10
-17.32800412855229
 20
-40.80054138484869
 11
-17.427320274920273
 21
-41.39712593304311
  0
LINE
  8
0
 10
-17.427320274920273
 20
-41.39712593304311
 11
-17.507429788659195
 21
-42.144472992059704
  0
LINE
  8
0
 10
-17.507429788659195
 20
-42.144472992059704
 11
-17.55108364974022
 21
-43.041873674398936
  0
LINE
  8
0
 10
-17.55108364974022
 20
-43.041873674398936
 11
-17.54107909885586
 21
-44.087121099341424
  0
LINE
  8
0
 10
-17.54107909885586
 20
-44.087121099341424
 11
-17.476962462223085
 21
-45.032060271774206
  0
LINE
  8
0
 10
-17.476962462223085
 20
-45.032060271774206
 11
-16.547995719972747
 21
-45.46524457785685
  0
LINE
  8
0
 10
-16.547995719972747
 20
-45.46524457785685
 11
-15.557920404568957
 21
-45.73053445906525
  0
LINE
  8
0
 10
-15.557920404568957
 20
-45.73053445906525
 11
-14.901409019424
 21
-45.047882436546544
  0
LINE
  8
0
 10
-14.901409019424
 20
-45.047882436546544
 11
-14.221872994997902
 21
-44.2536072563274
  0
LINE
  8
0
 10
-14.221872994997902
 20
-44.2536072563274
 11
-13.678475753167064
 21
-43.538098289352284
  0
LINE
  8
0
 10
-13.678475753167064
 20
-43.538098289352284
 11
-13.259457771336189
 21
-42.91410382486193
  0
LINE
  8
0
 10
-13.259457771336189
 20
-42.91410382486193
 11
-12.952061197663038
 21
-42.39325435853919
  0
LINE
  8
0
 10
-12.952061197663038
 20
-42.39325435853919
 11
-12.670431619714277
 21
-41.84561645041192
  0
LINE
  8
0
 10
-12.670431619714277
 20
-41.84561645041192
 11
-12.470526472567252
 21
-41.577347071138256
  0
LINE
  8
0
 10
-12.470526472567252
 20
-41.577347071138256
 11
-12.291133844067291
 21
-41.472092272495594
  0
LINE
  8
0
 10
-12.291133844067291
 20
-41.472092272495594
 11
-10.091611985970955
 21
-42.0614523781071
  0
LINE
  8
0
 10
-10.091611985970955
 20
-42.0614523781071
 11
-9.988880811759323
 21
-42.24230202185187
  0
LINE
  8
0
 10
-9.988880811759323
 20
-42.24230202185187
 11
-9.94989256561904
 21
-42.574582692933895
  0
LINE
  8
0
 10
-9.94989256561904
 20
-42.574582692933895
 11
-9.979813150722666
 21
-43.1896658224226
  0
LINE
  8
0
 10
-9.979813150722666
 20
-43.1896658224226
 11
-9.974024642046942
 21
-43.794432978641446
  0
LINE
  8
0
 10
-9.974024642046942
 20
-43.794432978641446
 11
-9.923141657384095
 21
-44.54433702762642
  0
LINE
  8
0
 10
-9.923141657384095
 20
-44.54433702762642
 11
-9.810300325100341
 21
-45.43568459057738
  0
LINE
  8
0
 10
-9.810300325100341
 20
-45.43568459057738
 11
-9.6189424552717
 21
-46.46331508644734
  0
LINE
  8
0
 10
-9.6189424552717
 20
-46.46331508644734
 11
-9.391712929119617
 21
-47.38276477247465
  0
LINE
  8
0
 10
-9.391712929119617
 20
-47.38276477247465
 11
-8.401637613715867
 21
-47.648054653683076
  0
LINE
  8
0
 10
-8.401637613715867
 20
-47.648054653683076
 11
-7.380536662614906
 21
-47.73738941121994
  0
LINE
  8
0
 10
-7.380536662614906
 20
-47.73738941121994
 11
-6.852540440274384
 21
-46.95110640118605
  0
LINE
  8
0
 10
-6.852540440274384
 20
-46.95110640118605
 11
-6.3212525325795985
 21
-46.05089785338045
  0
LINE
  8
0
 10
-6.3212525325795985
 20
-46.05089785338045
 11
-5.910357544078714
 21
-45.25189913456044
  0
LINE
  8
0
 10
-5.910357544078714
 20
-45.25189913456044
 11
-5.60606088855314
 21
-44.56462283913903
  0
LINE
  8
0
 10
-5.60606088855314
 20
-44.56462283913903
 11
-5.393778920216171
 21
-43.99830739171272
  0
LINE
  8
0
 10
-5.393778920216171
 20
-43.99830739171272
 11
-5.211524253142305
 21
-43.41008487095768
  0
LINE
  8
0
 10
-5.211524253142305
 20
-43.41008487095768
 11
-5.061240603199578
 21
-43.11117794184489
  0
LINE
  8
0
 10
-5.061240603199578
 20
-43.11117794184489
 11
-4.902850655794575
 21
-42.976370997073964
  0
LINE
  8
0
 10
-4.902850655794575
 20
-42.976370997073964
 11
-2.6344031686924585
 21
-43.17483443599926
  0
LINE
  8
0
 10
-2.6344031686924585
 20
-43.17483443599926
 11
-2.5018285007848036
 21
-43.33509748609717
  0
LINE
  8
0
 10
-2.5018285007848036
 20
-43.33509748609717
 11
-2.4057326407021655
 21
-43.65555982926215
  0
LINE
  8
0
 10
-2.4057326407021655
 20
-43.65555982926215
 11
-2.3283906003374923
 21
-44.26649411900762
  0
LINE
  8
0
 10
-2.3283906003374923
 20
-44.26649411900762
 11
-2.217673317525049
 21
-44.861068339236134
  0
LINE
  8
0
 10
-2.217673317525049
 20
-44.861068339236134
 11
-2.0373438882013826
 21
-45.59074392313082
  0
LINE
  8
0
 10
-2.0373438882013826
 20
-45.59074392313082
 11
-1.7714359893338207
 21
-46.448955222036886
  0
LINE
  8
0
 10
-1.7714359893338207
 20
-46.448955222036886
 11
-1.4045391126038917
 21
-47.42774475622343
  0
LINE
  8
0
 10
-1.4045391126038917
 20
-47.42774475622343
 11
-1.0211009511009577
 21
-48.29376794239935
  0
LINE
  8
0
 10
-1.0211009511009577
 20
-48.29376794239935
 11
-2.1316282072803006e-14
 21
-48.383102699936224
  0
LINE
  8
0
 10
-2.1316282072803006e-14
 20
-48.383102699936224
 11
1.0211009511009457
 21
-48.29376794239936
  0
LINE
  8
0
 10
1.0211009511009457
 20
-48.29376794239936
 11
1.404539112600194
 21
-47.427744756231725
  0
LINE
  8
0
 10
1.404539112600194
 20
-47.427744756231725
 11
1.771435989333017
 21
-46.448955222037235
  0
LINE
  8
0
 10
1.771435989333017
 20
-46.448955222037235
 11
2.0373438882012422
 21
-45.590743923130816
  0
LINE
  8
0
 10
2.0373438882012422
 20
-45.590743923130816
 11
2.2176733175249064
 21
-44.861068339236134
  0
LINE
  8
0
 10
2.2176733175249064
 20
-44.861068339236134
 11
2.3283906003376345
 21
-44.26649411900687
  0
LINE
  8
0
 10
2.3283906003376345
 20
-44.26649411900687
 11
2.405732640702877
 21
-43.65555982926225
  0
LINE
  8
0
 10
2.405732640702877
 20
-43.65555982926225
 11
2.5018285007849927
 21
-43.335097486097226
  0
LINE
  8
0
 10
2.5018285007849927
 20
-43.335097486097226
 11
2.6344031686923177
 21
-43.17483443599929
  0
LINE
  8
0
 10
2.6344031686923177
 20
-43.17483443599929
 11
4.902850655794432
 21
-42.97637099707397
  0
LINE
  8
0
 10
4.902850655794432
 20
-42.97637099707397
 11
5.061240603199756
 21
-43.11117794184481
  0
LINE
  8
0
 10
5.061240603199756
 20
-43.11117794184481
 11
5.211524253142987
 21
-43.410084870957455
  0
LINE
  8
0
 10
5.211524253142987
 20
-43.410084870957455
 11
5.393778920216442
 21
-43.99830739171343
  0
LINE
  8
0
 10
5.393778920216442
 20
-43.99830739171343
 11
5.606060888552999
 21
-44.56462283913905
  0
LINE
  8
0
 10
5.606060888552999
 20
-44.56462283913905
 11
5.910357544078578
 21
-45.251899134560475
  0
LINE
  8
0
 10
5.910357544078578
 20
-45.251899134560475
 11
6.321252532578746
 21
-46.05089785338025
  0
LINE
  8
0
 10
6.321252532578746
 20
-46.05089785338025
 11
6.852540440269302
 21
-46.95110640117853
  0
LINE
  8
0
 10
6.852540440269302
 20
-46.95110640117853
 11
7.380536662614896
 21
-47.73738941121997
  0
LINE
  8
0
 10
7.380536662614896
 20
-47.73738941121997
 11
8.401637613715875
 21
-47.6480546536831
  0
LINE
  8
0
 10
8.401637613715875
 20
-47.6480546536831
 11
9.391712929119638
 21
-47.38276477247463
  0
LINE
  8
0
 10
9.391712929119638
 20
-47.38276477247463
 11
9.618942455269542
 21
-46.46331508645614
  0
LINE
  8
0
 10
9.618942455269542
 20
-46.46331508645614
 11
9.81030032509965
 21
-45.43568459057785
  0
LINE
  8
0
 10
9.81030032509965
 20
-45.43568459057785
 11
9.923141657383995
 21
-44.54433702762642
  0
LINE
  8
0
 10
9.923141657383995
 20
-44.54433702762642
 11
9.974024642046842
 21
-43.79443297864147
  0
LINE
  8
0
 10
9.974024642046842
 20
-43.79443297864147
 11
9.979813150722714
 21
-43.18966582242184
  0
LINE
  8
0
 10
9.979813150722714
 20
-43.18966582242184
 11
9.949892565619793
 21
-42.574582692933866
  0
LINE
  8
0
 10
9.949892565619793
 20
-42.574582692933866
 11
9.988880811759552
 21
-42.242302021851884
  0
LINE
  8
0
 10
9.988880811759552
 20
-42.242302021851884
 11
10.091611985970856
 21
-42.06145237810714
  0
LINE
  8
0
 10
10.091611985970856
 20
-42.06145237810714
 11
12.291133844067184
 21
-41.472092272495615
  0
LINE
  8
0
 10
12.291133844067184
 20
-41.472092272495615
 11
12.470526472567446
 21
-41.577347071138135
  0
LINE
  8
0
 10
12.470526472567446
 20
-41.577347071138135
 11
12.670431619714945
 21
-41.84561645041157
  0
LINE
  8
0
 10
12.670431619714945
 20
-41.84561645041157
 11
12.952061197663463
 21
-42.393254358539835
  0
LINE
  8
0
 10
12.952061197663463
 20
-42.393254358539835
 11
13.259457771336088
 21
-42.91410382486197
  0
LINE
  8
0
 10
13.259457771336088
 20
-42.91410382486197
 11
13.678475753166975
 21
-43.538098289352334
  0
LINE
  8
0
 10
13.678475753166975
 20
-43.538098289352334
 11
14.221872994997069
 21
-44.25360725632734
  0
LINE
  8
0
 10
14.221872994997069
 20
-44.25360725632734
 11
14.901409019417727
 21
-45.04788243654001
  0
LINE
  8
0
 10
14.901409019417727
 20
-45.04788243654001
 11
15.557920404568993
 21
-45.73053445906527
  0
LINE
  8
0
 10
15.557920404568993
 20
-45.73053445906527
 11
16.547995719972747
 21
-45.46524457785685
  0
LINE
  8
0
 10
16.547995719972747
 20
-45.46524457785685
 11
17.476962462223035
 21
-45.03206027177414
  0
LINE
  8
0
 10
17.476962462223035
 20
-45.03206027177414
 11
17.54107909885522
 21
-44.08712109935048
  0
LINE
  8
0
 10
17.54107909885522
 20
-44.08712109935048
 11
17.551083649739585
 21
-43.04187367439953
  0
LINE
  8
0
 10
17.551083649739585
 20
-43.04187367439953
 11
17.50742978865906
 21
-42.14447299205975
  0
LINE
  8
0
 10
17.50742978865906
 20
-42.14447299205975
 11
17.427320274920145
 21
-41.39712593304316
  0
LINE
  8
0
 10
17.427320274920145
 20
-41.39712593304316
 11
17.32800412855217
 21
-40.80054138484794
  0
LINE
  8
0
 10
17.32800412855217
 20
-40.80054138484794
 11
17.191730039818893
 21
-40.199998405259024
  0
LINE
  8
0
 10
17.191730039818893
 20
-40.199998405259024
 11
17.17242603388635
 21
-39.8659955863088
  0
LINE
  8
0
 10
17.17242603388635
 20
-39.8659955863088
 11
17.242192279657697
 21
-39.6700543738281
  0
LINE
  8
0
 10
17.242192279657697
 20
-39.6700543738281
 11
19.30595715010175
 21
-38.70770501010877
  0
LINE
  8
0
 10
19.30595715010175
 20
-38.70770501010877
 11
19.50090170545702
 21
-38.780209548827706
  0
LINE
  8
0
 10
19.50090170545702
 20
-38.780209548827706
 11
19.74435433306959
 21
-39.00969014892355
  0
LINE
  8
0
 10
19.74435433306959
 20
-39.00969014892355
 11
20.116801649678653
 21
-39.50010374370379
  0
LINE
  8
0
 10
20.116801649678653
 20
-39.50010374370379
 11
20.509972739346473
 21
-39.95966148145079
  0
LINE
  8
0
 10
20.509972739346473
 20
-39.95966148145079
 11
21.030980398138063
 21
-40.501414358963
  0
LINE
  8
0
 10
21.030980398138063
 20
-40.501414358963
 11
21.690369043077347
 21
-41.111693196196704
  0
LINE
  8
0
 10
21.690369043077347
 20
-41.111693196196704
 11
22.497505825987908
 21
-41.77590135939563
  0
LINE
  8
0
 10
22.497505825987908
 20
-41.77590135939563
 11
23.262584607717802
 21
-42.33418035813883
  0
LINE
  8
0
 10
23.262584607717802
 20
-42.33418035813883
 11
24.191551349968105
 21
-41.90099605205622
  0
LINE
  8
0
 10
24.191551349968105
 20
-41.90099605205622
 11
25.03118333468157
 21
-41.31307940703792
  0
LINE
  8
0
 10
25.03118333468157
 20
-41.31307940703792
 11
24.930238930236495
 21
-40.37136224680077
  0
LINE
  8
0
 10
24.930238930236495
 20
-40.37136224680077
 11
24.75858617895904
 21
-39.34025720686359
  0
LINE
  8
0
 10
24.75858617895904
 20
-39.34025720686359
 11
24.559763524992658
 21
-38.46407047076168
  0
LINE
  8
0
 10
24.559763524992658
 20
-38.46407047076168
 11
24.351095599889565
 21
-37.74198816392582
  0
LINE
  8
0
 10
24.351095599889565
 20
-37.74198816392582
 11
24.149692469328738
 21
-37.17171314336558
  0
LINE
  8
0
 10
24.149692469328738
 20
-37.17171314336558
 11
23.91120549619325
 21
-36.60395750822112
  0
LINE
  8
0
 10
23.91120549619325
 20
-36.60395750822112
 11
23.83419578064036
 21
-36.27838104804285
  0
LINE
  8
0
 10
23.83419578064036
 20
-36.27838104804285
 11
23.868877285897423
 21
-36.0733018414164
  0
LINE
  8
0
 10
23.868877285897423
 20
-36.0733018414164
 11
25.734178717416167
 21
-34.7672037180336
  0
LINE
  8
0
 10
25.734178717416167
 20
-34.7672037180336
 11
25.93875190795868
 21
-34.80475498310905
  0
LINE
  8
0
 10
25.93875190795868
 20
-34.80475498310905
 11
26.21835483113929
 21
-34.98847415211618
  0
LINE
  8
0
 10
26.21835483113929
 20
-34.98847415211618
 11
26.670303263161166
 21
-35.40676246463225
  0
LINE
  8
0
 10
26.670303263161166
 20
-35.40676246463225
 11
27.137302564218793
 21
-35.79106504449011
  0
LINE
  8
0
 10
27.137302564218793
 20
-35.79106504449011
 11
27.744469345901305
 21
-36.23411544798113
  0
LINE
  8
0
 10
27.744469345901305
 20
-36.23411544798113
 11
28.499814203640053
 21
-36.72062114182019
  0
LINE
  8
0
 10
28.499814203640053
 20
-36.72062114182019
 11
29.410027302322693
 21
-37.234580659072115
  0
LINE
  8
0
 10
29.410027302322693
 20
-37.234580659072115
 11
30.260426948996912
 21
-37.651523609159305
  0
LINE
  8
0
 10
30.260426948996912
 20
-37.651523609159305
 11
31.10005893371034
 21
-37.06360696414099
  0
LINE
  8
0
 10
31.10005893371034
 20
-37.06360696414099
 11
31.824844367905673
 21
-36.33882152994562
  0
LINE
  8
0
 10
31.824844367905673
 20
-36.33882152994562
 11
31.56190606703213
 21
-35.42893998127703
  0
LINE
  8
0
 10
31.56190606703213
 20
-35.42893998127703
 11
31.213811595579937
 21
-34.44330693122778
  0
LINE
  8
0
 10
31.213811595579937
 20
-34.44330693122778
 11
30.865861274459345
 21
-33.61495663196832
  0
LINE
  8
0
 10
30.865861274459345
 20
-33.61495663196832
 11
30.534975207305276
 21
-32.94007918281511
  0
LINE
  8
0
 10
30.534975207305276
 20
-32.94007918281511
 11
30.237604624758788
 21
-32.413441207816504
  0
LINE
  8
0
 10
30.237604624758788
 20
-32.413441207816504
 11
29.904151073219577
 21
-31.89572388479214
  0
LINE
  8
0
 10
29.904151073219577
 20
-31.89572388479214
 11
29.77177554928462
 21
-31.588466259378723
  0
LINE
  8
0
 10
29.77177554928462
 20
-31.588466259378723
 11
29.77031853403984
 21
-31.38048028652476
  0
LINE
  8
0
 10
29.77031853403984
 20
-31.38048028652476
 11
31.38048028652465
 21
-29.770318534039937
  0
LINE
  8
0
 10
31.38048028652465
 20
-29.770318534039937
 11
31.588466259378805
 21
-29.771775549284445
  0
LINE
  8
0
 10
31.588466259378805
 20
-29.771775549284445
 11
31.895723884792517
 21
-29.90415107321897
  0
LINE
  8
0
 10
31.895723884792517
 20
-29.90415107321897
 11
32.41344120781716
 21
-30.237604624759157
  0
LINE
  8
0
 10
32.41344120781716
 20
-30.237604624759157
 11
32.940079182815005
 21
-30.534975207305376
  0
LINE
  8
0
 10
32.940079182815005
 20
-30.534975207305376
 11
33.61495663196823
 21
-30.865861274459466
  0
LINE
  8
0
 10
33.61495663196823
 20
-30.865861274459466
 11
34.443306931226985
 21
-31.213811595580335
  0
LINE
  8
0
 10
34.443306931226985
 20
-31.213811595580335
 11
35.42893998126829
 21
-31.561906067029636
  0
LINE
  8
0
 10
35.42893998126829
 20
-31.561906067029636
 11
36.33882152994563
 21
-31.82484436790571
  0
LINE
  8
0
 10
36.33882152994563
 20
-31.82484436790571
 11
37.063606964140966
 21
-31.100058933710383
  0
LINE
  8
0
 10
37.063606964140966
 20
-31.100058933710383
 11
37.65152360915931
 21
-30.260426948996926
  0
LINE
  8
0
 10
37.65152360915931
 20
-30.260426948996926
 11
37.23458065907609
 21
-29.410027302330857
  0
LINE
  8
0
 10
37.23458065907609
 20
-29.410027302330857
 11
36.72062114181993
 21
-28.499814203640888
  0
LINE
  8
0
 10
36.72062114181993
 20
-28.499814203640888
 11
36.234115447981026
 21
-27.744469345901404
  0
LINE
  8
0
 10
36.234115447981026
 20
-27.744469345901404
 11
35.791065044490004
 21
-27.137302564218906
  0
LINE
  8
0
 10
35.791065044490004
 20
-27.137302564218906
 11
35.40676246463177
 21
-26.670303263160573
  0
LINE
  8
0
 10
35.40676246463177
 20
-26.670303263160573
 11
34.988474152116716
 21
-26.218354831138807
  0
LINE
  8
0
 10
34.988474152116716
 20
-26.218354831138807
 11
34.804754983109206
 21
-25.938751907958565
  0
LINE
  8
0
 10
34.804754983109206
 20
-25.938751907958565
 11
34.767203718033514
 21
-25.734178717416288
  0
LINE
  8
0
 10
34.767203718033514
 20
-25.734178717416288
 11
36.0733018414163
 21
-23.86887728589753
  0
LINE
  8
0
 10
36.0733018414163
 20
-23.86887728589753
 11
36.2783810480429
 21
-23.83419578064017
  0
LINE
  8
0
 10
36.2783810480429
 20
-23.83419578064017
 11
36.60395750822138
 21
-23.911205496192583
  0
LINE
  8
0
 10
36.60395750822138
 20
-23.911205496192583
 11
37.1717131433663
 21
-24.14969246932899
  0
LINE
  8
0
 10
37.1717131433663
 20
-24.14969246932899
 11
37.74198816392574
 21
-24.351095599889685
  0
LINE
  8
0
 10
37.74198816392574
 20
-24.351095599889685
 11
38.46407047076161
 21
-24.559763524992785
  0
LINE
  8
0
 10
38.46407047076161
 20
-24.559763524992785
 11
39.34025720686289
 21
-24.758586178959565
  0
LINE
  8
0
 10
39.34025720686289
 20
-24.758586178959565
 11
40.37136224679173
 21
-24.93023893023555
  0
LINE
  8
0
 10
40.37136224679173
 20
-24.93023893023555
 11
41.313079407037876
 21
-25.031183334681565
  0
LINE
  8
0
 10
41.313079407037876
 20
-25.031183334681565
 11
41.90099605205623
 21
-24.19155134996809
  0
LINE
  8
0
 10
41.90099605205623
 20
-24.19155134996809
 11
42.33418035813817
 21
-23.262584607717468
  0
LINE
  8
0
 10
42.33418035813817
 20
-23.262584607717468
 11
41.775901359400976
 21
-22.49750582599522
  0
LINE
  8
0
 10
41.775901359400976
 20
-22.49750582599522
 11
41.11169319619662
 21
-21.69036904307818
  0
LINE
  8
0
 10
41.11169319619662
 20
-21.69036904307818
 11
40.50141435896293
 21
-21.030980398138144
  0
LINE
  8
0
 10
40.50141435896293
 20
-21.030980398138144
 11
39.95966148145074
 21
-20.509972739346566
  0
LINE
  8
0
 10
39.95966148145074
 20
-20.509972739346566
 11
39.50010374370323
 21
-20.11680164967812
  0
LINE
  8
0
 10
39.50010374370323
 20
-20.11680164967812
 11
39.009690148924015
 21
-19.744354333068994
  0
LINE
  8
0
 10
39.009690148924015
 20
-19.744354333068994
 11
38.78020954882786
 21
-19.500901705456847
  0
LINE
  8
0
 10
38.78020954882786
 20
-19.500901705456847
 11
38.70770501010873
 21
-19.30595715010185
  0
LINE
  8
0
 10
38.70770501010873
 20
-19.30595715010185
 11
39.670054373828044
 21
-17.24219227965779
  0
LINE
  8
0
 10
39.670054373828044
 20
-17.24219227965779
 11
39.86599558630882
 21
-17.17242603388612
  0
LINE
  8
0
 10
39.86599558630882
 20
-17.17242603388612
 11
40.19999840525918
 21
-17.191730039818154
  0
LINE
  8
0
 10
40.19999840525918
 20
-17.191730039818154
 11
40.80054138484871
 21
-17.328004128552255
  0
LINE
  8
0
 10
40.80054138484871
 20
-17.328004128552255
 11
41.397125933043114
 21
-17.42732027492024
  0
LINE
  8
0
 10
41.397125933043114
 20
-17.42732027492024
 11
42.144472992059725
 21
-17.50742978865916
  0
LINE
  8
0
 10
42.144472992059725
 20
-17.50742978865916
 11
43.04187367439895
 21
-17.551083649740185
  0
LINE
  8
0
 10
43.04187367439895
 20
-17.551083649740185
 11
44.08712109934144
 21
-17.54107909885582
  0
LINE
  8
0
 10
44.08712109934144
 20
-17.54107909885582
 11
45.032060271774135
 21
-17.47696246222301
  0
LINE
  8
0
 10
45.032060271774135
 20
-17.47696246222301
 11
45.46524457785685
 21
-16.54799571997279
  0
LINE
  8
0
 10
45.46524457785685
 20
-16.54799571997279
 11
45.730534459065275
 21
-15.557920404569018
  0
LINE
  8
0
 10
45.730534459065275
 20
-15.557920404569018
 11
45.04788243654654
 21
-14.901409019424044
  0
LINE
  8
0
 10
45.04788243654654
 20
-14.901409019424044
 11
44.253607256327385
 21
-14.221872994997945
  0
LINE
  8
0
 10
44.253607256327385
 20
-14.221872994997945
 11
43.53809828935227
 21
-13.678475753167106
  0
LINE
  8
0
 10
43.53809828935227
 20
-13.678475753167106
 11
42.91410382486192
 21
-13.259457771336228
  0
LINE
  8
0
 10
42.91410382486192
 20
-13.259457771336228
 11
42.393254358539174
 21
-12.95206119766308
  0
LINE
  8
0
 10
42.393254358539174
 20
-12.95206119766308
 11
41.8456164504119
 21
-12.670431619714316
  0
LINE
  8
0
 10
41.8456164504119
 20
-12.670431619714316
 11
41.57734707113824
 21
-12.470526472567292
  0
LINE
  8
0
 10
41.57734707113824
 20
-12.470526472567292
 11
41.47209227249559
 21
-12.29113384406733
  0
LINE
  8
0
 10
41.47209227249559
 20
-12.29113384406733
 11
42.06145237810709
 21
-10.091611985970996
  0
LINE
  8
0
 10
42.06145237810709
 20
-10.091611985970996
 11
42.24230202185186
 21
-9.988880811759364
  0
LINE
  8
0
 10
42.24230202185186
 20
-9.988880811759364
 11
42.57458269293388
 21
-9.949892565619079
  0
LINE
  8
0
 10
42.57458269293388
 20
-9.949892565619079
 11
43.1896658224226
 21
-9.979813150722707
  0
LINE
  8
0
 10
43.1896658224226
 20
-9.979813150722707
 11
43.79443297864143
 21
-9.974024642046984
  0
LINE
  8
0
 10
43.79443297864143
 20
-9.974024642046984
 11
44.544337027626405
 21
-9.923141657384138
  0
LINE
  8
0
 10
44.544337027626405
 20
-9.923141657384138
 11
45.435684590577374
 21
-9.810300325100386
  0
LINE
  8
0
 10
45.435684590577374
 20
-9.810300325100386
 11
46.46331508644733
 21
-9.618942455271744
  0
LINE
  8
0
 10
46.46331508644733
 20
-9.618942455271744
 11
47.38276477247464
 21
-9.391712929119661
  0
LINE
  8
0
 10
0.3118675362266391
 20
-1.4672214011007085
 11
9.18454765366783e-17
 21
-1.5
  0
LINE
  8
0
 10
9.18454765366783e-17
 20
-1.5
 11
-0.3118675362266384
 21
-1.4672214011007085
  0
LINE
  8
0
 10
-0.3118675362266384
 20
-1.4672214011007085
 11
-0.6101049646137001
 21
-1.3703181864639014
  0
LINE
  8
0
 10
-0.6101049646137001
 20
-1.3703181864639014
 11
-0.8816778784387099
 21
-1.213525491562421
  0
LINE
  8
0
 10
-0.8816778784387099
 20
-1.213525491562421
 11
-1.114717238216091
 21
-1.0036959095382878
  0
LINE
  8
0
 10
-1.114717238216091
 20
-1.0036959095382878
 11
-1.299038105676658
 21
-0.7500000000000003
  0
LINE
  8
0
 10
-1.299038105676658
 20
-0.7500000000000003
 11
-1.4265847744427305
 21
-0.46352549156242095
  0
LINE
  8
0
 10
-1.4265847744427305
 20
-0.46352549156242095
 11
-1.49178284305241
 21
-0.15679269490147957
  0
LINE
  8
0
 10
-1.49178284305241
 20
-0.15679269490147957
 11
-1.4917828430524098
 21
0.15679269490148126
  0
LINE
  8
0
 10
-1.4917828430524098
 20
0.15679269490148126
 11
-1.4265847744427302
 21
0.46352549156242123
  0
LINE
  8
0
 10
-1.4265847744427302
 20
0.46352549156242123
 11
-1.2990381056766576
 21
0.7500000000000006
  0
LINE
  8
0
 10
-1.2990381056766576
 20
0.7500000000000006
 11
-1.114717238216091
 21
1.0036959095382878
  0
LINE
  8
0
 10
-1.114717238216091
 20
1.0036959095382878
 11
-0.8816778784387097
 21
1.2135254915624214
  0
LINE
  8
0
 10
-0.8816778784387097
 20
1.2135254915624214
 11
-0.6101049646137005
 21
1.3703181864639014
  0
LINE
  8
0
 10
-0.6101049646137005
 20
1.3703181864639014
 11
-0.3118675362266387
 21
1.4672214011007085
  0
LINE
  8
0
 10
-0.3118675362266387
 20
1.4672214011007085
 11
7.579792913117722e-16
 21
1.5
  0
LINE
  8
0
 10
7.579792913117722e-16
 20
1.5
 11
0.3118675362266389
 21
1.4672214011007085
  0
LINE
  8
0
 10
0.3118675362266389
 20
1.4672214011007085
 11
0.6101049646136999
 21
1.3703181864639014
  0
LINE
  8
0
 10
0.6101049646136999
 20
1.3703181864639014
 11
0.8816778784387097
 21
1.213525491562421
  0
LINE
  8
0
 10
0.8816778784387097
 20
1.213525491562421
 11
1.1147172382160917
 21
1.003695909538287
  0
LINE
  8
0
 10
1.1147172382160917
 20
1.003695909538287
 11
1.299038105676658
 21
0.7499999999999998
  0
LINE
  8
0
 10
1.299038105676658
 20
0.7499999999999998
 11
1.4265847744427305
 21
0.4635254915624211
  0
LINE
  8
0
 10
1.4265847744427305
 20
0.4635254915624211
 11
1.49178284305241
 21
0.1567926949014801
  0
LINE
  8
0
 10
1.49178284305241
 20
0.1567926949014801
 11
1.4917828430524098
 21
-0.1567926949014801
  0
LINE
  8
0
 10
1.4917828430524098
 20
-0.1567926949014801
 11
1.4265847744427302
 21
-0.46352549156242107
  0
LINE
  8
0
 10
1.4265847744427302
 20
-0.46352549156242107
 11
1.299038105676658
 21
-0.7500000000000001
  0
LINE
  8
0
 10
1.299038105676658
 20
-0.7500000000000001
 11
1.1147172382160913
 21
-1.0036959095382874
  0
LINE
  8
0
 10
1.1147172382160913
 20
-1.0036959095382874
 11
0.8816778784387098
 21
-1.2135254915624212
  0
LINE
  8
0
 10
0.8816778784387098
 20
-1.2135254915624212
 11
0.6101049646137003
 21
-1.3703181864639014
  0
LINE
  8
0
 10
0.6101049646137003
 20
-1.3703181864639014
 11
0.3118675362266391
 21
-1.4672214011007085
  0
ENDSEC
  0
SECTION
  2
OBJECTS
  0
DICTIONARY
  0
ENDSEC
  0
EOF
