  0
SECTION
  2
BLOCKS
  0
ENDSEC
  0
SECTION
  2
ENTITIES
  0
LINE
  8
0
 10
74.49253159631907
 20
-9.298679692130744
 11
74.66519874211046
 21
-8.263942215721976
  0
LINE
  8
0
 10
74.66519874211046
 20
-8.263942215721976
 11
74.7229882863018
 21
-7.216490089416059
  0
LINE
  8
0
 10
74.7229882863018
 20
-7.216490089416059
 11
73.81161995764911
 21
-6.724631402831428
  0
LINE
  8
0
 10
73.81161995764911
 20
-6.724631402831428
 11
72.93443604498749
 21
-6.292049460433856
  0
LINE
  8
0
 10
72.93443604498749
 20
-6.292049460433856
 11
72.12656250149423
 21
-5.929910475319304
  0
LINE
  8
0
 10
72.12656250149423
 20
-5.929910475319304
 11
71.39187646674661
 21
-5.6324869792646695
  0
LINE
  8
0
 10
71.39187646674661
 20
-5.6324869792646695
 11
70.73392603944377
 21
-5.393865971807119
  0
LINE
  8
0
 10
70.73392603944377
 20
-5.393865971807119
 11
70.08525969336927
 21
-5.185238649692227
  0
LINE
  8
0
 10
70.08525969336927
 20
-5.185238649692227
 11
69.89646036483067
 21
-5.090139589552917
  0
LINE
  8
0
 10
69.89646036483067
 20
-5.090139589552917
 11
69.80919373545503
 21
-4.991768347328584
  0
LINE
  8
0
 10
69.80919373545503
 20
-4.991768347328584
 11
69.934634768005
 21
-2.7181135173941953
  0
LINE
  8
0
 10
69.934634768005
 20
-2.7181135173941953
 11
70.0321933934012
 21
-2.6299393686297368
  0
LINE
  8
0
 10
70.0321933934012
 20
-2.6299393686297368
 11
70.23030851631778
 21
-2.5561869736343166
  0
LINE
  8
0
 10
70.23030851631778
 20
-2.5561869736343166
 11
70.89798861758118
 21
-2.4201845088050455
  0
LINE
  8
0
 10
70.89798861758118
 20
-2.4201845088050455
 11
71.57819600395435
 21
-2.255391725250991
  0
LINE
  8
0
 10
71.57819600395435
 20
-2.255391725250991
 11
72.34114202176974
 21
-2.040594892038904
  0
LINE
  8
0
 10
72.34114202176974
 20
-2.040594892038904
 11
73.18395058554559
 21
-1.7695265765902728
  0
LINE
  8
0
 10
73.18395058554559
 20
-1.7695265765902728
 11
74.10339815587469
 21
-1.4360675553156104
  0
LINE
  8
0
 10
74.10339815587469
 20
-1.4360675553156104
 11
75.06334359518323
 21
-1.0474521263059153
  0
LINE
  8
0
 10
75.06334359518323
 20
-1.0474521263059153
 11
75.12113313937459
 21
-8.881784197001252e-16
  0
LINE
  8
0
 10
75.12113313937459
 20
-8.881784197001252e-16
 11
75.06334359518327
 21
1.0474521263059131
  0
LINE
  8
0
 10
75.06334359518327
 20
1.0474521263059131
 11
74.10339815590767
 21
1.4360675553022633
  0
LINE
  8
0
 10
74.10339815590767
 20
1.4360675553022633
 11
73.18395058554617
 21
1.7695265765884658
  0
LINE
  8
0
 10
73.18395058554617
 20
1.7695265765884658
 11
72.34114202176961
 21
2.0405948920387313
  0
LINE
  8
0
 10
72.34114202176961
 20
2.0405948920387313
 11
71.57819600395406
 21
2.2553917252508056
  0
LINE
  8
0
 10
71.57819600395406
 20
2.2553917252508056
 11
70.8979886175811
 21
2.4201845088055016
  0
LINE
  8
0
 10
70.8979886175811
 20
2.4201845088055016
 11
70.23030851631728
 21
2.5561869736317995
  0
LINE
  8
0
 10
70.23030851631728
 20
2.5561869736317995
 11
70.03219339340161
 21
2.629939368630957
  0
LINE
  8
0
 10
70.03219339340161
 20
2.629939368630957
 11
69.93463476800495
 21
2.7181135173938316
  0
LINE
  8
0
 10
69.93463476800495
 20
2.7181135173938316
 11
69.80919373545511
 21
4.991768347328228
  0
LINE
  8
0
 10
69.80919373545511
 20
4.991768347328228
 11
69.89646036483013
 21
5.090139589554084
  0
LINE
  8
0
 10
69.89646036483013
 20
5.090139589554084
 11
70.08525969337003
 21
5.185238649689779
  0
LINE
  8
0
 10
70.08525969337003
 20
5.185238649689779
 11
70.73392603944382
 21
5.393865971807581
  0
LINE
  8
0
 10
70.73392603944382
 20
5.393865971807581
 11
71.39187646674691
 21
5.632486979264517
  0
LINE
  8
0
 10
71.39187646674691
 20
5.632486979264517
 11
72.12656250149438
 21
5.929910475319146
  0
LINE
  8
0
 10
72.12656250149438
 20
5.929910475319146
 11
72.93443604498711
 21
6.292049460431995
  0
LINE
  8
0
 10
72.93443604498711
 20
6.292049460431995
 11
73.81161995761781
 21
6.724631402814534
  0
LINE
  8
0
 10
73.81161995761781
 20
6.724631402814534
 11
74.72298828630191
 21
7.216490089416064
  0
LINE
  8
0
 10
74.72298828630191
 20
7.216490089416064
 11
74.66519874211056
 21
8.263942215721979
  0
LINE
  8
0
 10
74.66519874211056
 20
8.263942215721979
 11
74.49253159631907
 21
9.298679692130792
  0
LINE
  8
0
 10
74.49253159631907
 20
9.298679692130792
 11
73.49566148367687
 21
9.57933459866325
  0
LINE
  8
0
 10
73.49566148367687
 20
9.57933459866325
 11
72.54511110360302
 21
9.809622958035229
  0
LINE
  8
0
 10
72.54511110360302
 20
9.809622958035229
 11
71.67759807380867
 21
9.986330201670508
  0
LINE
  8
0
 10
71.67759807380867
 20
9.986330201670508
 11
70.8956532040674
 21
10.115893029456334
  0
LINE
  8
0
 10
70.8956532040674
 20
10.115893029456334
 11
70.20144565486153
 21
10.20485722795004
  0
LINE
  8
0
 10
70.20144565486153
 20
10.20485722795004
 11
69.52285653037433
 21
10.266583949798573
  0
LINE
  8
0
 10
69.52285653037433
 20
10.266583949798573
 11
69.31783046229991
 21
10.318094425489932
  0
LINE
  8
0
 10
69.31783046229991
 20
10.318094425489932
 11
69.21116407043812
 21
10.395001166069234
  0
LINE
  8
0
 10
69.21116407043812
 20
10.395001166069234
 11
68.83636365699674
 21
12.641056906342689
  0
LINE
  8
0
 10
68.83636365699674
 20
12.641056906342689
 11
68.91227899168445
 21
12.748431148406539
  0
LINE
  8
0
 10
68.91227899168445
 20
12.748431148406539
 11
69.08947075775355
 21
12.86372249991706
  0
LINE
  8
0
 10
69.08947075775355
 20
12.86372249991706
 11
69.71124941790306
 21
13.142442226246942
  0
LINE
  8
0
 10
69.71124941790306
 20
13.142442226246942
 11
70.33895625923195
 21
13.451994921820816
  0
LINE
  8
0
 10
70.33895625923195
 20
13.451994921820816
 11
71.03646421768171
 21
13.828434762376428
  0
LINE
  8
0
 10
71.03646421768171
 20
13.828434762376428
 11
71.79959625044782
 21
14.277248540440697
  0
LINE
  8
0
 10
71.79959625044782
 20
14.277248540440697
 11
72.62386868094559
 21
14.803702445141615
  0
LINE
  8
0
 10
72.62386868094559
 20
14.803702445141615
 11
73.47559712206713
 21
15.392833891169063
  0
LINE
  8
0
 10
73.47559712206713
 20
15.392833891169063
 11
73.30292997627573
 21
16.427571367577873
  0
LINE
  8
0
 10
73.30292997627573
 20
16.427571367577873
 11
73.0174811741331
 21
17.437033882818522
  0
LINE
  8
0
 10
73.0174811741331
 20
17.437033882818522
 11
71.99578704089572
 21
17.606321496506993
  0
LINE
  8
0
 10
71.99578704089572
 20
17.606321496506993
 11
71.0256722450739
 21
17.730643805238856
  0
LINE
  8
0
 10
71.0256722450739
 20
17.730643805238856
 11
70.14398518227918
 21
17.810844990495397
  0
LINE
  8
0
 10
70.14398518227918
 20
17.810844990495397
 11
69.35253321208026
 21
17.853601095636108
  0
LINE
  8
0
 10
69.35253321208026
 20
17.853601095636108
 11
68.65275223929038
 21
17.86565680421321
  0
LINE
  8
0
 10
68.65275223929038
 20
17.86565680421321
 11
67.97149124430987
 21
17.85235850429797
  0
LINE
  8
0
 10
67.97149124430987
 20
17.85235850429797
 11
67.76204296980745
 21
17.881001793284575
  0
LINE
  8
0
 10
67.76204296980745
 20
17.881001793284575
 11
67.64756359698362
 21
17.945707582030305
  0
LINE
  8
0
 10
67.64756359698362
 20
17.945707582030305
 11
67.02795337195177
 21
20.136900158543636
  0
LINE
  8
0
 10
67.02795337195177
 20
20.136900158543636
 11
67.09159590262671
 21
20.25197402259982
  0
LINE
  8
0
 10
67.09159590262671
 20
20.25197402259982
 11
67.25502923821526
 21
20.386058184655642
  0
LINE
  8
0
 10
67.25502923821526
 20
20.386058184655642
 11
67.84237266179001
 21
20.731487035283703
  0
LINE
  8
0
 10
67.84237266179001
 20
20.731487035283703
 11
68.43221640640512
 21
21.10821386858144
  0
LINE
  8
0
 10
68.43221640640512
 20
21.10821386858144
 11
69.08407948681095
 21
21.559100583912617
  0
LINE
  8
0
 10
69.08407948681095
 20
21.559100583912617
 11
69.79320661973871
 21
22.089141163641855
  0
LINE
  8
0
 10
69.79320661973871
 20
22.089141163641855
 11
70.55456201738635
 21
22.703076593411442
  0
LINE
  8
0
 10
70.55456201738635
 20
22.703076593411442
 11
71.33631174145206
 21
23.382329541168648
  0
LINE
  8
0
 10
71.33631174145206
 20
23.382329541168648
 11
71.05086293930943
 21
24.391792056409283
  0
LINE
  8
0
 10
71.05086293930943
 20
24.391792056409283
 11
70.6560974425944
 21
25.36372610300091
  0
LINE
  8
0
 10
70.6560974425944
 20
25.36372610300091
 11
69.62198127151578
 21
25.4195915015383
  0
LINE
  8
0
 10
69.62198127151578
 20
25.4195915015383
 11
68.64407793941497
 21
25.436438655213497
  0
LINE
  8
0
 10
68.64407793941497
 20
25.436438655213497
 11
67.75891933019726
 21
25.41916024834569
  0
LINE
  8
0
 10
67.75891933019726
 20
25.41916024834569
 11
66.96756741432965
 21
25.37459062964383
  0
LINE
  8
0
 10
66.96756741432965
 20
25.37459062964383
 11
66.27070741101701
 21
25.309591508333295
  0
LINE
  8
0
 10
66.27070741101701
 20
25.309591508333295
 11
65.59504413116164
 21
25.221429610000904
  0
LINE
  8
0
 10
65.59504413116164
 20
25.221429610000904
 11
65.38371606855755
 21
25.22685802155568
  0
LINE
  8
0
 10
65.38371606855755
 20
25.22685802155568
 11
65.26281333927989
 21
25.27857741784525
  0
LINE
  8
0
 10
65.26281333927989
 20
25.27857741784525
 11
64.40591453144319
 21
27.388308720987713
  0
LINE
  8
0
 10
64.40591453144319
 20
27.388308720987713
 11
64.45651172399542
 21
27.509685366209787
  0
LINE
  8
0
 10
64.45651172399542
 20
27.509685366209787
 11
64.60420276980204
 21
27.66093473871876
  0
LINE
  8
0
 10
64.60420276980204
 20
27.66093473871876
 11
65.14998140327631
 21
28.068879675328702
  0
LINE
  8
0
 10
65.14998140327631
 20
28.068879675328702
 11
65.69480214714154
 21
28.50820769292176
  0
LINE
  8
0
 10
65.69480214714154
 20
28.50820769292176
 11
66.29310761474443
 21
29.028068129091707
  0
LINE
  8
0
 10
66.29310761474443
 20
29.028068129091707
 11
66.93962200504919
 21
29.632901535860004
  0
LINE
  8
0
 10
66.93962200504919
 20
29.632901535860004
 11
67.62881854667857
 21
30.326866146239833
  0
LINE
  8
0
 10
67.62881854667857
 20
30.326866146239833
 11
68.33110017102457
 21
31.08799538508145
  0
LINE
  8
0
 10
68.33110017102457
 20
31.08799538508145
 11
67.9363346743095
 21
32.05992943167307
  0
LINE
  8
0
 10
67.9363346743095
 20
32.05992943167307
 11
67.43704440138866
 21
32.98253704690677
  0
LINE
  8
0
 10
67.43704440138866
 20
32.98253704690677
 11
66.40305896193482
 21
32.92430210003212
  0
LINE
  8
0
 10
66.40305896193482
 20
32.92430210003212
 11
65.42923751530377
 21
32.8334695970268
  0
LINE
  8
0
 10
65.42923751530377
 20
32.8334695970268
 11
64.55135198611133
 21
32.71892133448807
  0
LINE
  8
0
 10
64.55135198611133
 20
32.71892133448807
 11
63.76970606483996
 21
32.58756700673908
  0
LINE
  8
0
 10
63.76970606483996
 20
32.58756700673908
 11
63.08422596745318
 21
32.44630205682348
  0
LINE
  8
0
 10
63.08422596745318
 20
32.44630205682348
 11
62.42236203966268
 21
32.28434672609241
  0
LINE
  8
0
 10
62.42236203966268
 20
32.28434672609241
 11
62.21171942536434
 21
32.266494366652616
  0
LINE
  8
0
 10
62.21171942536434
 20
32.266494366652616
 11
62.08586093498711
 21
32.30459956707601
  0
LINE
  8
0
 10
62.08586093498711
 20
32.30459956707601
 11
61.00207513508679
 21
34.307260316745214
  0
LINE
  8
0
 10
61.00207513508679
 20
34.307260316745214
 11
61.039012808139525
 21
34.43346639508133
  0
LINE
  8
0
 10
61.039012808139525
 20
34.43346639508133
 11
61.16916879493571
 21
34.60004501554904
  0
LINE
  8
0
 10
61.16916879493571
 20
34.60004501554904
 11
61.666757625030456
 21
35.065554139227274
  0
LINE
  8
0
 10
61.666757625030456
 20
35.065554139227274
 11
62.15994198234903
 21
35.562150494111584
  0
LINE
  8
0
 10
62.15994198234903
 20
35.562150494111584
 11
62.69742721925834
 21
36.1446742496468
  0
LINE
  8
0
 10
62.69742721925834
 20
36.1446742496468
 11
63.27348105803336
 21
36.81695862522504
  0
LINE
  8
0
 10
63.27348105803336
 20
36.81695862522504
 11
63.882152831239516
 21
37.58252862591446
  0
LINE
  8
0
 10
63.882152831239516
 20
37.58252862591446
 11
64.49644160828215
 21
38.41629507793393
  0
LINE
  8
0
 10
64.49644160828215
 20
38.41629507793393
 11
63.99715133536127
 21
39.33890269316764
  0
LINE
  8
0
 10
63.99715133536127
 20
39.33890269316764
 11
63.399396993791385
 21
40.20098467039194
  0
LINE
  8
0
 10
63.399396993791385
 20
40.20098467039194
 11
62.37809346852346
 21
40.02935627147311
  0
LINE
  8
0
 10
62.37809346852346
 20
40.02935627147311
 11
61.42017478055076
 21
39.83194669532878
  0
LINE
  8
0
 10
61.42017478055076
 20
39.83194669532878
 11
60.56021867249273
 21
39.621519037855165
  0
LINE
  8
0
 10
60.56021867249273
 20
39.621519037855165
 11
59.797766868456215
 21
39.40497446466062
  0
LINE
  8
0
 10
59.797766868456215
 20
39.40497446466062
 11
59.131987476801626
 21
39.18915845126935
  0
LINE
  8
0
 10
59.131987476801626
 20
39.18915845126935
 11
58.491957032574724
 21
38.95537560646419
  0
LINE
  8
0
 10
58.491957032574724
 20
38.95537560646419
 11
58.284556782575685
 21
38.91445917948996
  0
LINE
  8
0
 10
58.284556782575685
 20
38.91445917948996
 11
58.155270282679616
 21
38.93848763853273
  0
LINE
  8
0
 10
58.155270282679616
 20
38.93848763853273
 11
56.857753182191345
 21
40.80976824610382
  0
LINE
  8
0
 10
56.857753182191345
 20
40.80976824610382
 11
56.88058296243079
 21
40.93927178672628
  0
LINE
  8
0
 10
56.88058296243079
 20
40.93927178672628
 11
56.99162397285082
 21
41.119157616353604
  0
LINE
  8
0
 10
56.99162397285082
 20
41.119157616353604
 11
57.43498294522038
 21
41.636580276934055
  0
LINE
  8
0
 10
57.43498294522038
 20
41.636580276934055
 11
57.87054432597968
 21
42.18441696206855
  0
LINE
  8
0
 10
57.87054432597968
 20
42.18441696206855
 11
58.34068498951613
 21
42.82253298768446
  0
LINE
  8
0
 10
58.34068498951613
 20
42.82253298768446
 11
58.83928576350192
 21
43.55410771045366
  0
LINE
  8
0
 10
58.83928576350192
 20
43.55410771045366
 11
59.36004431748675
 21
44.38199011871293
  0
LINE
  8
0
 10
59.36004431748675
 20
44.38199011871293
 11
59.87888361361036
 21
45.278272988632736
  0
LINE
  8
0
 10
59.87888361361036
 20
45.278272988632736
 11
59.281129272040396
 21
46.140354965856986
  0
LINE
  8
0
 10
59.281129272040396
 20
46.140354965856986
 11
58.59216678978851
 21
46.9314467976755
  0
LINE
  8
0
 10
58.59216678978851
 20
46.9314467976755
 11
57.595942420008925
 21
46.648508282981446
  0
LINE
  8
0
 10
57.595942420008925
 20
46.648508282981446
 11
56.665554325935545
 21
46.3469179185344
  0
LINE
  8
0
 10
56.665554325935545
 20
46.3469179185344
 11
55.833966341236334
 21
46.04316517283476
  0
LINE
  8
0
 10
55.833966341236334
 20
46.04316517283476
 11
55.09996378649108
 21
45.74405891197419
  0
LINE
  8
0
 10
55.09996378649108
 20
45.74405891197419
 11
54.46196676049472
 21
45.45631154915771
  0
LINE
  8
0
 10
54.46196676049472
 20
45.45631154915771
 11
53.851538902416124
 21
45.15353899732375
  0
LINE
  8
0
 10
53.851538902416124
 20
45.15353899732375
 11
53.64989857479953
 21
45.0900551728117
  0
LINE
  8
0
 10
53.64989857479953
 20
45.0900551728117
 11
53.51875342835724
 21
45.099715217530864
  0
LINE
  8
0
 10
53.51875342835724
 20
45.099715217530864
 11
52.023255127217695
 21
46.81690087133185
  0
LINE
  8
0
 10
52.023255127217695
 20
46.81690087133185
 11
52.0316998920378
 21
46.948129876687624
  0
LINE
  8
0
 10
52.0316998920378
 20
46.948129876687624
 11
52.12227803863529
 21
47.13913934518271
  0
LINE
  8
0
 10
52.12227803863529
 20
47.13913934518271
 11
52.506025375945086
 21
47.702194732485225
  0
LINE
  8
0
 10
52.506025375945086
 20
47.702194732485225
 11
52.87867665500977
 21
48.29462175263164
  0
LINE
  8
0
 10
52.87867665500977
 20
48.29462175263164
 11
53.27576587438745
 21
48.980584184192104
  0
LINE
  8
0
 10
53.27576587438745
 20
48.980584184192104
 11
53.69086124561032
 21
49.762568928035236
  0
LINE
  8
0
 10
53.69086124561032
 20
49.762568928035236
 11
54.11738527696668
 21
50.6427143729073
  0
LINE
  8
0
 10
54.11738527696668
 20
50.6427143729073
 11
54.53447708595465
 21
51.59063400082355
  0
LINE
  8
0
 10
54.53447708595465
 20
51.59063400082355
 11
53.84551460370278
 21
52.381725832642054
  0
LINE
  8
0
 10
53.84551460370278
 20
52.381725832642054
 11
53.073707052010185
 21
53.0922247358579
  0
LINE
  8
0
 10
53.073707052010185
 20
53.0922247358579
 11
52.11465465204673
 21
52.70141059567832
  0
LINE
  8
0
 10
52.11465465204673
 20
52.70141059567832
 11
51.22309080299759
 21
52.29930034140782
  0
LINE
  8
0
 10
51.22309080299759
 20
52.29930034140782
 11
50.429965293292526
 21
51.90590965434058
  0
LINE
  8
0
 10
50.429965293292526
 20
51.90590965434058
 11
49.73332178454694
 21
51.52787245064077
  0
LINE
  8
0
 10
49.73332178454694
 20
51.52787245064077
 11
49.13085154385072
 21
51.17168660159075
  0
LINE
  8
0
 10
49.13085154385072
 20
51.17168660159075
 11
48.557436039209996
 21
50.80359959136069
  0
LINE
  8
0
 10
48.557436039209996
 20
50.80359959136069
 11
48.36400327440389
 21
50.718318976942925
  0
LINE
  8
0
 10
48.36400327440389
 20
50.718318976942925
 11
48.232591405839266
 21
50.713493347481446
  0
LINE
  8
0
 10
48.232591405839266
 20
50.713493347481446
 11
46.55726522756859
 21
52.25573973983649
  0
LINE
  8
0
 10
46.55726522756859
 20
52.25573973983649
 11
46.55122246896403
 21
52.3871012675681
  0
LINE
  8
0
 10
46.55122246896403
 20
52.3871012675681
 11
46.62023825573971
 21
52.58691577873168
  0
LINE
  8
0
 10
46.62023825573971
 20
52.58691577873168
 11
46.93971578515271
 21
53.188769163089454
  0
LINE
  8
0
 10
46.93971578515271
 20
53.188769163089454
 11
47.24493348080174
 21
53.818595256746114
  0
LINE
  8
0
 10
47.24493348080174
 20
53.818595256746114
 11
47.56415113080871
 21
54.544077439561335
  0
LINE
  8
0
 10
47.56415113080871
 20
54.544077439561335
 11
47.89070240376511
 21
55.36697996899275
  0
LINE
  8
0
 10
47.89070240376511
 20
55.36697996899275
 11
48.21781448853711
 21
56.28870467705349
  0
LINE
  8
0
 10
48.21781448853711
 20
56.28870467705349
 11
48.528095880835814
 21
57.27675460276919
  0
LINE
  8
0
 10
48.528095880835814
 20
57.27675460276919
 11
47.75628832914325
 21
57.98725350598506
  0
LINE
  8
0
 10
47.75628832914325
 20
57.98725350598506
 11
46.91100440616931
 21
58.608534986380555
  0
LINE
  8
0
 10
46.91100440616931
 20
58.608534986380555
 11
46.00076557299074
 21
58.11458917496639
  0
LINE
  8
0
 10
46.00076557299074
 20
58.11458917496639
 11
45.15884834634891
 21
57.61684010464629
  0
LINE
  8
0
 10
45.15884834634891
 20
57.61684010464629
 11
44.41381278092952
 21
57.138586706251296
  0
LINE
  8
0
 10
44.41381278092952
 20
57.138586706251296
 11
43.76298462668145
 21
56.68620741926238
  0
LINE
  8
0
 10
43.76298462668145
 20
56.68620741926238
 11
43.2033543438796
 21
56.265906697684166
  0
LINE
  8
0
 10
43.2033543438796
 20
56.265906697684166
 11
42.67391168013388
 21
55.8369733067383
  0
LINE
  8
0
 10
42.67391168013388
 20
55.8369733067383
 11
42.49103448987205
 21
55.73093109354969
  0
LINE
  8
0
 10
42.49103448987205
 20
55.73093109354969
 11
42.36095106125423
 21
55.711678366512245
  0
LINE
  8
0
 10
42.36095106125423
 20
55.711678366512245
 11
40.526133196199645
 21
57.0602647154005
  0
LINE
  8
0
 10
40.526133196199645
 20
57.0602647154005
 11
40.50567626507412
 21
57.19016421450831
  0
LINE
  8
0
 10
40.50567626507412
 20
57.19016421450831
 11
40.5522919338678
 21
57.39635829085079
  0
LINE
  8
0
 10
40.5522919338678
 20
57.39635829085079
 11
40.80362163095266
 21
58.029703987469915
  0
LINE
  8
0
 10
40.80362163095266
 20
58.029703987469915
 11
41.037700813819704
 21
58.689283919044854
  0
LINE
  8
0
 10
41.037700813819704
 20
58.689283919044854
 11
41.27517202460857
 21
59.44547948217968
  0
LINE
  8
0
 10
41.27517202460857
 20
59.44547948217968
 11
41.50921530920289
 21
60.29931087522538
  0
LINE
  8
0
 10
41.50921530920289
 20
60.29931087522538
 11
41.73294474979915
 21
61.25142635712031
  0
LINE
  8
0
 10
41.73294474979915
 20
61.25142635712031
 11
41.93264932962443
 21
62.267612992985214
  0
LINE
  8
0
 10
41.93264932962443
 20
62.267612992985214
 11
41.08736540665052
 21
62.88889447338073
  0
LINE
  8
0
 10
41.08736540665052
 20
62.88889447338073
 11
40.178865714168204
 21
63.41341701539412
  0
LINE
  8
0
 10
40.178865714168204
 20
63.41341701539412
 11
39.32848951416706
 21
62.82233536577912
  0
LINE
  8
0
 10
39.32848951416706
 20
62.82233536577912
 11
38.54643864457266
 21
62.234989478854345
  0
LINE
  8
0
 10
38.54643864457266
 20
62.234989478854345
 11
37.858536745951206
 21
61.67767871752889
  0
LINE
  8
0
 10
37.858536745951206
 20
61.67767871752889
 11
37.26142411835805
 21
61.1564486189857
  0
LINE
  8
0
 10
37.26142411835805
 20
61.1564486189857
 11
36.75142694698852
 21
60.6771349062848
  0
LINE
  8
0
 10
36.75142694698852
 20
60.6771349062848
 11
36.27238384087364
 21
60.19256180494067
  0
LINE
  8
0
 10
36.27238384087364
 20
60.19256180494067
 11
36.10228210651384
 21
60.0670452018007
  0
LINE
  8
0
 10
36.10228210651384
 20
60.0670452018007
 11
35.97510615445056
 21
60.03359907921311
  0
LINE
  8
0
 10
35.97510615445056
 20
60.03359907921311
 11
34.003068805983695
 21
61.17215537320254
  0
LINE
  8
0
 10
34.003068805983695
 20
61.17215537320254
 11
33.96844602176938
 21
61.29901603973391
  0
LINE
  8
0
 10
33.96844602176938
 20
61.29901603973391
 11
33.99209572150915
 21
61.50908676448638
  0
LINE
  8
0
 10
33.99209572150915
 20
61.50908676448638
 11
34.1722267842035
 21
62.16623681456272
  0
LINE
  8
0
 10
34.1722267842035
 20
62.16623681456272
 11
34.332326050100626
 21
62.84756417717729
  0
LINE
  8
0
 10
34.332326050100626
 20
62.84756417717729
 11
34.48516824285944
 21
63.62529393086489
  0
LINE
  8
0
 10
34.48516824285944
 20
63.62529393086489
 11
34.62386257066014
 21
64.49968983104398
  0
LINE
  8
0
 10
34.62386257066014
 20
64.49968983104398
 11
34.74149359474376
 21
65.4706386945927
  0
LINE
  8
0
 10
34.74149359474376
 20
65.4706386945927
 11
34.8281972190236
 21
66.50262691141039
  0
LINE
  8
0
 10
34.8281972190236
 20
66.50262691141039
 11
33.919697526541285
 21
67.02714945342376
  0
LINE
  8
0
 10
33.919697526541285
 20
67.02714945342376
 11
32.959010020130975
 21
67.44854606393196
  0
LINE
  8
0
 10
32.959010020130975
 20
67.44854606393196
 11
32.17881886842514
 21
66.76750350664204
  0
LINE
  8
0
 10
32.17881886842514
 20
66.76750350664204
 11
31.46612739404088
 21
66.09769038654004
  0
LINE
  8
0
 10
31.46612739404088
 20
66.09769038654004
 11
30.843709359410024
 21
65.46808725997346
  0
LINE
  8
0
 10
30.843709359410024
 20
65.46808725997346
 11
30.307560396900563
 21
64.88433337719529
  0
LINE
  8
0
 10
30.307560396900563
 20
64.88433337719529
 11
29.853387011763306
 21
64.35182489254832
  0
LINE
  8
0
 10
29.853387011763306
 20
64.35182489254832
 11
29.43055839765849
 21
63.81749414183611
  0
LINE
  8
0
 10
29.43055839765849
 20
63.81749414183611
 11
29.275296923829945
 21
63.67402675027764
  0
LINE
  8
0
 10
29.275296923829945
 20
63.67402675027764
 11
29.15257219210215
 21
63.62679322276079
  0
LINE
  8
0
 10
29.15257219210215
 20
63.62679322276079
 11
27.067253222240794
 21
64.54149893077158
  0
LINE
  8
0
 10
27.067253222240794
 20
64.54149893077158
 11
27.01888485863679
 21
64.66378084808484
  0
LINE
  8
0
 10
27.01888485863679
 20
64.66378084808484
 11
27.019281514004554
 21
64.87517824721814
  0
LINE
  8
0
 10
27.019281514004554
 20
64.87517824721814
 11
27.12602739521928
 21
65.54815573934283
  0
LINE
  8
0
 10
27.12602739521928
 20
65.54815573934283
 11
27.2102033559347
 21
66.24296014176538
  0
LINE
  8
0
 10
27.2102033559347
 20
66.24296014176538
 11
27.276561233488884
 21
67.03278350033666
  0
LINE
  8
0
 10
27.276561233488884
 20
67.03278350033666
 11
27.318223043236774
 21
67.91712992590901
  0
LINE
  8
0
 10
27.318223043236774
 20
67.91712992590901
 11
27.328327769522595
 21
68.89512616719026
  0
LINE
  8
0
 10
27.328327769522595
 20
68.89512616719026
 11
27.30097797370999
 21
69.9303890259767
  0
LINE
  8
0
 10
27.30097797370999
 20
69.9303890259767
 11
26.340290467299724
 21
70.3517856364849
  0
LINE
  8
0
 10
26.340290467299724
 20
70.3517856364849
 11
25.3390765919075
 21
70.66494113147537
  0
LINE
  8
0
 10
25.3390765919075
 20
70.66494113147537
 11
24.63854095220379
 21
69.90220460059145
  0
LINE
  8
0
 10
24.63854095220379
 20
69.90220460059145
 11
24.003859982091225
 21
69.15805487123735
  0
LINE
  8
0
 10
24.003859982091225
 20
69.15805487123735
 11
23.45448112324157
 21
68.46380190850316
  0
LINE
  8
0
 10
23.45448112324157
 20
68.46380190850316
 11
22.985803947934038
 21
67.824610222853
  0
LINE
  8
0
 10
22.985803947934038
 20
67.824610222853
 11
22.592967398685044
 21
67.24537089790846
  0
LINE
  8
0
 10
22.592967398685044
 20
67.24537089790846
 11
22.231485843186718
 21
66.66776854931821
  0
LINE
  8
0
 10
22.231485843186718
 20
66.66776854931821
 11
22.092949293858936
 21
66.50809186912865
  0
LINE
  8
0
 10
22.092949293858936
 20
66.50809186912865
 11
21.976165494462467
 21
66.44764428772235
  0
LINE
  8
0
 10
21.976165494462467
 20
66.44764428772235
 11
19.802877850652802
 21
67.12739612155248
  0
LINE
  8
0
 10
19.802877850652802
 20
67.12739612155248
 11
19.741351034071737
 21
67.2436149528189
  0
LINE
  8
0
 10
19.741351034071737
 20
67.2436149528189
 11
19.71848983020865
 21
67.45377294827408
  0
LINE
  8
0
 10
19.71848983020865
 20
67.45377294827408
 11
19.750554779547617
 21
68.1344088473322
  0
LINE
  8
0
 10
19.750554779547617
 20
68.1344088473322
 11
19.75778565294602
 21
68.83425630532429
  0
LINE
  8
0
 10
19.75778565294602
 20
68.83425630532429
 11
19.73685372055284
 21
69.62658588312925
  0
LINE
  8
0
 10
19.73685372055284
 20
69.62658588312925
 11
19.68097729431416
 21
70.51014806645586
  0
LINE
  8
0
 10
19.68097729431416
 20
70.51014806645586
 11
19.583433065113297
 21
71.48332013592926
  0
LINE
  8
0
 10
19.583433065113297
 20
71.48332013592926
 11
19.442361838680412
 21
72.50929094798308
  0
LINE
  8
0
 10
19.442361838680412
 20
72.50929094798308
 11
18.441147963288202
 21
72.82244644297357
  0
LINE
  8
0
 10
18.441147963288202
 20
72.82244644297357
 11
17.41156109908109
 21
73.02355953894889
  0
LINE
  8
0
 10
17.41156109908109
 20
73.02355953894889
 11
16.79918452507474
 21
72.18838762272546
  0
LINE
  8
0
 10
16.79918452507474
 20
72.18838762272546
 11
16.25021822644941
 21
71.37893425378168
  0
LINE
  8
0
 10
16.25021822644941
 20
71.37893425378168
 11
15.780547258519071
 21
70.62845874538748
  0
LINE
  8
0
 10
15.780547258519071
 20
70.62845874538748
 11
15.385030976434773
 21
69.94158817805709
  0
LINE
  8
0
 10
15.385030976434773
 20
69.94158817805709
 11
15.058299766631432
 21
69.32264919356146
  0
LINE
  8
0
 10
15.058299766631432
 20
69.32264919356146
 11
14.762553166147452
 21
68.70878655716416
  0
LINE
  8
0
 10
14.762553166147452
 20
68.70878655716416
 11
14.642423187362692
 21
68.53483884693728
  0
LINE
  8
0
 10
14.642423187362692
 20
68.53483884693728
 11
14.5329979174227
 21
68.46191096339535
  0
LINE
  8
0
 10
14.5329979174227
 20
68.46191096339535
 11
12.298122367647114
 21
68.89845765659832
  0
LINE
  8
0
 10
12.298122367647114
 20
68.89845765659832
 11
12.224183950295846
 21
69.00720266264055
  0
LINE
  8
0
 10
12.224183950295846
 20
69.00720266264055
 11
12.178342391248197
 21
69.21357022104033
  0
LINE
  8
0
 10
12.178342391248197
 20
69.21357022104033
 11
12.135337183662752
 21
69.89360252923112
  0
LINE
  8
0
 10
12.135337183662752
 20
69.89360252923112
 11
12.06553519673629
 21
70.58999784269123
  0
LINE
  8
0
 10
12.06553519673629
 20
70.58999784269123
 11
11.95756753969985
 21
71.37521583197343
  0
LINE
  8
0
 10
11.95756753969985
 20
71.37521583197343
 11
11.80483114159693
 21
72.24726852505374
  0
LINE
  8
0
 10
11.80483114159693
 20
72.24726852505374
 11
11.600822011714962
 21
73.20380343208973
  0
LINE
  8
0
 10
11.600822011714962
 20
73.20380343208973
 11
11.347741768250575
 21
74.20802830156957
  0
LINE
  8
0
 10
11.347741768250575
 20
74.20802830156957
 11
10.318154904043428
 21
74.40914139754483
  0
LINE
  8
0
 10
10.318154904043428
 20
74.40914139754483
 11
9.272692840837507
 21
74.49577085395468
  0
LINE
  8
0
 10
9.272692840837507
 20
74.49577085395468
 11
8.755908754589692
 21
73.59830140810092
  0
LINE
  8
0
 10
8.755908754589692
 20
73.59830140810092
 11
8.299320834667459
 21
72.73337006695188
  0
LINE
  8
0
 10
8.299320834667459
 20
72.73337006695188
 11
7.915058926973954
 21
71.93578176894852
  0
LINE
  8
0
 10
7.915058926973954
 20
71.93578176894852
 11
7.597504569996842
 21
71.20956999816578
  0
LINE
  8
0
 10
7.597504569996842
 20
71.20956999816578
 11
7.340844773924342
 21
70.55844443495384
  0
LINE
  8
0
 10
7.340844773924342
 20
70.55844443495384
 11
7.114423091555618
 21
69.91577297159499
  0
LINE
  8
0
 10
7.114423091555618
 20
69.91577297159499
 11
7.014157898523945
 21
69.72966572089712
  0
LINE
  8
0
 10
7.014157898523945
 20
69.72966572089712
 11
6.9134194325861
 21
69.64514278093502
  0
LINE
  8
0
 10
6.9134194325861
 20
69.64514278093502
 11
4.64408433857622
 21
69.83318524801719
  0
LINE
  8
0
 10
4.64408433857622
 20
69.83318524801719
 11
4.558631832681763
 21
69.93313641177176
  0
LINE
  8
0
 10
4.558631832681763
 20
69.93313641177176
 11
4.4903663728777685
 21
70.13320851051007
  0
LINE
  8
0
 10
4.4903663728777685
 20
70.13320851051007
 11
4.372813033331604
 21
70.80438255680828
  0
LINE
  8
0
 10
4.372813033331604
 20
70.80438255680828
 11
4.226825487645282
 21
71.48887242999311
  0
LINE
  8
0
 10
4.226825487645282
 20
71.48887242999311
 11
4.03313268706514
 21
72.25744734804712
  0
LINE
  8
0
 10
4.03313268706514
 20
72.25744734804712
 11
3.785390330068741
 21
73.10740501250103
  0
LINE
  8
0
 10
3.785390330068741
 20
73.10740501250103
 11
3.4773926939843456
 21
74.0356917190847
  0
LINE
  8
0
 10
3.4773926939843456
 20
74.0356917190847
 11
3.115375484812506
 21
75.00598071643402
  0
LINE
  8
0
 10
3.115375484812506
 20
75.00598071643402
 11
2.069913421606598
 21
75.09261017284392
  0
LINE
  8
0
 10
2.069913421606598
 20
75.09261017284392
 11
1.0212666526287908
 21
75.06370442543898
  0
LINE
  8
0
 10
1.0212666526287908
 20
75.06370442543898
 11
0.606348112892272
 21
74.11483151328325
  0
LINE
  8
0
 10
0.606348112892272
 20
74.11483151328325
 11
0.24768093051060355
 21
73.20492129474343
  0
LINE
  8
0
 10
0.24768093051060355
 20
73.20492129474343
 11
-0.04650749792164532
 21
72.36990184862691
  0
LINE
  8
0
 10
-0.04650749792164532
 20
72.36990184862691
 11
-0.282245250068402
 21
71.61316410153658
  0
LINE
  8
0
 10
-0.282245250068402
 20
71.61316410153658
 11
-0.4657181301663157
 21
70.93775574190768
  0
LINE
  8
0
 10
-0.4657181301663157
 20
70.93775574190768
 11
-0.6200664419147629
 21
70.27407661256663
  0
LINE
  8
0
 10
-0.6200664419147629
 20
70.27407661256663
 11
-0.699249765572774
 21
70.07806891131366
  0
LINE
  8
0
 10
-0.699249765572774
 20
70.07806891131366
 11
-0.7900785989959304
 21
69.98297690892474
  0
LINE
  8
0
 10
-0.7900785989959304
 20
69.98297690892474
 11
-3.0663265833216102
 21
69.9202325690648
  0
LINE
  8
0
 10
-3.0663265833216102
 20
69.9202325690648
 11
-3.162255900094731
 21
70.01017661880115
  0
LINE
  8
0
 10
-3.162255900094731
 20
70.01017661880115
 11
-3.252116610447892
 21
70.20152465362418
  0
LINE
  8
0
 10
-3.252116610447892
 20
70.20152465362418
 11
-3.4427911436546603
 21
70.85569329430419
  0
LINE
  8
0
 10
-3.4427911436546603
 20
70.85569329430419
 11
-3.6631921570561774
 21
71.51996894738782
  0
LINE
  8
0
 10
-3.6631921570561774
 20
71.51996894738782
 11
-3.9402589329642015
 21
72.26257133584765
  0
LINE
  8
0
 10
-3.9402589329642015
 20
72.26257133584765
 11
-4.279999992240834
 21
73.08011663701184
  0
LINE
  8
0
 10
-4.279999992240834
 20
73.08011663701184
 11
-4.688247460450247
 21
73.96888700001578
  0
LINE
  8
0
 10
-4.688247460450247
 20
73.96888700001578
 11
-5.1548072368116955
 21
74.89346213119512
  0
LINE
  8
0
 10
-5.1548072368116955
 20
74.89346213119512
 11
-6.203454005789485
 21
74.86455638379022
  0
LINE
  8
0
 10
-6.203454005789485
 20
74.86455638379022
 11
-7.2425563292983615
 21
74.72046630918723
  0
LINE
  8
0
 10
-7.2425563292983615
 20
74.72046630918723
 11
-7.550572773514724
 21
73.73170796250572
  0
LINE
  8
0
 10
-7.550572773514724
 20
73.73170796250572
 11
-7.806965484625156
 21
72.78786394403113
  0
LINE
  8
0
 10
-7.806965484625156
 20
72.78786394403113
 11
-8.007509384793185
 21
71.92554935473002
  0
LINE
  8
0
 10
-8.007509384793185
 20
71.92554935473002
 11
-8.158568995137347
 21
71.14747140247768
  0
LINE
  8
0
 10
-8.158568995137347
 20
71.14747140247768
 11
-8.266627847035238
 21
70.45597878898528
  0
LINE
  8
0
 10
-8.266627847035238
 20
70.45597878898528
 11
-8.347029208744544
 21
69.77934815924866
  0
LINE
  8
0
 10
-8.347029208744544
 20
69.77934815924866
 11
-8.404169484744262
 21
69.57581927541473
  0
LINE
  8
0
 10
-8.404169484744262
 20
69.57581927541473
 11
-8.483986146654967
 21
69.47131249869295
  0
LINE
  8
0
 10
-8.483986146654967
 20
69.47131249869295
 11
-10.739516454253968
 21
69.15854298318106
  0
LINE
  8
0
 10
-10.739516454253968
 20
69.15854298318106
 11
-10.844758129949424
 21
69.23738811997686
  0
LINE
  8
0
 10
-10.844758129949424
 20
69.23738811997686
 11
-10.955123303556608
 21
69.41768938494874
  0
LINE
  8
0
 10
-10.955123303556608
 20
69.41768938494874
 11
-11.216604499885417
 21
70.04691189887303
  0
LINE
  8
0
 10
-11.216604499885417
 20
70.04691189887303
 11
-11.508743611262561
 21
70.68290992527868
  0
LINE
  8
0
 10
-11.508743611262561
 20
70.68290992527868
 11
-11.865821147163542
 21
71.39052559710429
  0
LINE
  8
0
 10
-11.865821147163542
 20
71.39052559710429
 11
-12.293436912486225
 21
72.16573464249886
  0
LINE
  8
0
 10
-12.293436912486225
 20
72.16573464249886
 11
-12.796978641583271
 21
73.00420019367641
  0
LINE
  8
0
 10
-12.796978641583271
 20
73.00420019367641
 11
-13.362417581467922
 21
73.87183836905588
  0
LINE
  8
0
 10
-13.362417581467922
 20
73.87183836905588
 11
-14.40151990497679
 21
73.7277482944529
  0
LINE
  8
0
 10
-14.40151990497679
 20
73.7277482944529
 11
-15.418464488414644
 21
73.47022295096795
  0
LINE
  8
0
 10
-15.418464488414644
 20
73.47022295096795
 11
-15.615839934728207
 21
72.45358135668187
  0
LINE
  8
0
 10
-15.615839934728207
 20
72.45358135668187
 11
-15.766845914373292
 21
71.48726052609183
  0
LINE
  8
0
 10
-15.766845914373292
 20
71.48726052609183
 11
-15.871310954993028
 21
70.60811812459792
  0
LINE
  8
0
 10
-15.871310954993028
 20
70.60811812459792
 11
-15.935858764495787
 21
69.81814477951156
  0
LINE
  8
0
 10
-15.935858764495787
 20
69.81814477951156
 11
-15.96719190011201
 21
69.11896169576275
  0
LINE
  8
0
 10
-15.96719190011201
 20
69.11896169576275
 11
-15.9726703481656
 21
68.43759294488743
  0
LINE
  8
0
 10
-15.9726703481656
 20
68.43759294488743
 11
-16.00707397096065
 21
68.22901344341477
  0
LINE
  8
0
 10
-16.00707397096065
 20
68.22901344341477
 11
-16.07490959520583
 21
68.11636046306089
  0
LINE
  8
0
 10
-16.07490959520583
 20
68.11636046306089
 11
-18.282343143566226
 21
67.55736237012655
  0
LINE
  8
0
 10
-18.282343143566226
 20
67.55736237012655
 11
-18.395619686805226
 21
67.62415152082752
  0
LINE
  8
0
 10
-18.395619686805226
 20
67.62415152082752
 11
-18.525149639963463
 21
67.79121740283409
  0
LINE
  8
0
 10
-18.525149639963463
 20
67.79121740283409
 11
-18.8542634719027
 21
68.38785588105102
  0
LINE
  8
0
 10
-18.8542634719027
 20
68.38785588105102
 11
-19.21459450818548
 21
68.98785612628389
  0
LINE
  8
0
 10
-19.21459450818548
 20
68.98785612628389
 11
-19.647348366503632
 21
69.65189558578088
  0
LINE
  8
0
 10
-19.647348366503632
 20
69.65189558578088
 11
-20.157648161745012
 21
70.37535838772074
  0
LINE
  8
0
 10
-20.157648161745012
 20
70.37535838772074
 11
-20.750371837254153
 21
71.15334129109617
  0
LINE
  8
0
 10
-20.750371837254153
 20
71.15334129109617
 11
-21.407826277895698
 21
71.95351055856054
  0
LINE
  8
0
 10
-21.407826277895698
 20
71.95351055856054
 11
-22.424770861333545
 21
71.69598521507558
  0
LINE
  8
0
 10
-22.424770861333545
 20
71.69598521507558
 11
-23.407213375047082
 21
71.32815061152546
  0
LINE
  8
0
 10
-23.407213375047082
 20
71.32815061152546
 11
-23.491551952911454
 21
70.29596642141023
  0
LINE
  8
0
 10
-23.491551952911454
 20
70.29596642141023
 11
-23.53533819305642
 21
69.3188986045752
  0
LINE
  8
0
 10
-23.53533819305642
 20
69.3188986045752
 11
-23.542456310046834
 21
68.43359998872478
  0
LINE
  8
0
 10
-23.542456310046834
 20
68.43359998872478
 11
-23.51970879573961
 21
67.6413204570875
  0
LINE
  8
0
 10
-23.51970879573961
 20
67.6413204570875
 11
-23.473935873252778
 21
66.94293403858047
  0
LINE
  8
0
 10
-23.473935873252778
 20
66.94293403858047
 11
-23.40442490671258
 21
66.2650980601955
  0
LINE
  8
0
 10
-23.40442490671258
 20
66.2650980601955
 11
-23.41567426292662
 21
66.0539998136827
  0
LINE
  8
0
 10
-23.41567426292662
 20
66.0539998136827
 11
-23.470705416920502
 21
65.93456808427445
  0
LINE
  8
0
 10
-23.470705416920502
 20
65.93456808427445
 11
-25.603246953033928
 21
65.13612689352702
  0
LINE
  8
0
 10
-25.603246953033928
 20
65.13612689352702
 11
-25.72318334003002
 21
65.19004932831864
  0
LINE
  8
0
 10
-25.72318334003002
 20
65.19004932831864
 11
-25.870305754573902
 21
65.34185187386576
  0
LINE
  8
0
 10
-25.870305754573902
 20
65.34185187386576
 11
-26.263057226033233
 21
65.89866393347768
  0
LINE
  8
0
 10
-26.263057226033233
 20
65.89866393347768
 11
-26.687206256558532
 21
66.4553832073425
  0
LINE
  8
0
 10
-26.687206256558532
 20
66.4553832073425
 11
-27.19038339167778
 21
67.0677859150043
  0
LINE
  8
0
 10
-27.19038339167778
 20
67.0677859150043
 11
-27.777172868594057
 21
67.73072061510257
  0
LINE
  8
0
 10
-27.777172868594057
 20
67.73072061510257
 11
-28.451883628019377
 21
68.43877721211246
  0
LINE
  8
0
 10
-28.451883628019377
 20
68.43877721211246
 11
-29.1933729631198
 21
69.16176460069266
  0
LINE
  8
0
 10
-29.1933729631198
 20
69.16176460069266
 11
-30.175815476833318
 21
68.79392999714256
  0
LINE
  8
0
 10
-30.175815476833318
 20
68.79392999714256
 11
-31.111830399557963
 21
68.32025114733247
  0
LINE
  8
0
 10
-31.111830399557963
 20
68.32025114733247
 11
-31.08210835288594
 21
67.28505367922233
  0
LINE
  8
0
 10
-31.08210835288594
 20
67.28505367922233
 11
-31.018143347889843
 21
66.30909915586754
  0
LINE
  8
0
 10
-31.018143347889843
 20
66.30909915586754
 11
-30.927828136953128
 21
65.42839065159976
  0
LINE
  8
0
 10
-30.927828136953128
 20
65.42839065159976
 11
-30.818061422845012
 21
64.64342213367534
  0
LINE
  8
0
 10
-30.818061422845012
 20
64.64342213367534
 11
-30.695738063528466
 21
63.95430984547148
  0
LINE
  8
0
 10
-30.695738063528466
 20
63.95430984547148
 11
-30.55208145136623
 21
63.288234650133475
  0
LINE
  8
0
 10
-30.55208145136623
 20
63.288234650133475
 11
-30.5400399890536
 21
63.07718010533196
  0
LINE
  8
0
 10
-30.5400399890536
 20
63.07718010533196
 11
-30.581598669133882
 21
62.952419366277844
  0
LINE
  8
0
 10
-30.581598669133882
 20
62.952419366277844
 11
-32.61336202756924
 21
61.924227072175874
  0
LINE
  8
0
 10
-32.61336202756924
 20
61.924227072175874
 11
-32.73850239305443
 21
61.96462824574505
  0
LINE
  8
0
 10
-32.73850239305443
 20
61.96462824574505
 11
-32.9014314021687
 21
62.09932477756697
  0
LINE
  8
0
 10
-32.9014314021687
 20
62.09932477756697
 11
-33.35305304231984
 21
62.609551474447805
  0
LINE
  8
0
 10
-33.35305304231984
 20
62.609551474447805
 11
-33.83587147242459
 21
63.11623195911176
  0
LINE
  8
0
 10
-33.83587147242459
 20
63.11623195911176
 11
-34.40336399554641
 21
63.669564175650024
  0
LINE
  8
0
 10
-34.40336399554641
 20
63.669564175650024
 11
-35.0595203247739
 21
64.26392364468266
  0
LINE
  8
0
 10
-35.0595203247739
 20
64.26392364468266
 11
-35.8080280934834
 21
64.89345908739821
  0
LINE
  8
0
 10
-35.8080280934834
 20
64.89345908739821
 11
-36.62455164696266
 21
65.53048850958159
  0
LINE
  8
0
 10
-36.62455164696266
 20
65.53048850958159
 11
-37.56056656968731
 21
65.05680965977146
  0
LINE
  8
0
 10
-37.56056656968731
 20
65.05680965977146
 11
-38.43879194822059
 21
64.48303638327567
  0
LINE
  8
0
 10
-38.43879194822059
 20
64.48303638327567
 11
-38.29537006239623
 21
63.45739153211783
  0
LINE
  8
0
 10
-38.29537006239623
 20
63.45739153211783
 11
-38.12443026077043
 21
62.49439706809379
  0
LINE
  8
0
 10
-38.12443026077043
 20
62.49439706809379
 11
-37.93777802622313
 21
61.628969283611085
  0
LINE
  8
0
 10
-37.93777802622313
 20
61.628969283611085
 11
-37.742324531529455
 21
60.8608402338606
  0
LINE
  8
0
 10
-37.742324531529455
 20
60.8608402338606
 11
-37.54493557526169
 21
60.18936696564245
  0
LINE
  8
0
 10
-37.54493557526169
 20
60.18936696564245
 11
-37.328877114146664
 21
59.54313780393347
  0
LINE
  8
0
 10
-37.328877114146664
 20
59.54313780393347
 11
-37.29369100034804
 21
59.33468887711505
  0
LINE
  8
0
 10
-37.29369100034804
 20
59.33468887711505
 11
-37.32127274043542
 21
59.20611355478181
  0
LINE
  8
0
 10
-37.32127274043542
 20
59.20611355478181
 11
-39.22759506632088
 21
57.960651018949505
  0
LINE
  8
0
 10
-39.22759506632088
 20
57.960651018949505
 11
-39.35642037577781
 21
57.98704051577798
  0
LINE
  8
0
 10
-39.35642037577781
 20
57.98704051577798
 11
-39.533178242001306
 21
58.102996000443135
  0
LINE
  8
0
 10
-39.533178242001306
 20
58.102996000443135
 11
-40.038187975915726
 21
58.56044387366415
  0
LINE
  8
0
 10
-40.038187975915726
 20
58.56044387366415
 11
-40.573815043901625
 21
59.010935154410994
  0
LINE
  8
0
 10
-40.573815043901625
 20
59.010935154410994
 11
-41.19873436454104
 21
59.49848017628065
  0
LINE
  8
0
 10
-41.19873436454104
 20
59.49848017628065
 11
-41.916292697095855
 21
60.017049695434274
  0
LINE
  8
0
 10
-41.916292697095855
 20
60.017049695434274
 11
-42.72951160473289
 21
60.560422276372215
  0
LINE
  8
0
 10
-42.72951160473289
 20
60.560422276372215
 11
-43.61115788674389
 21
61.103761057916415
  0
LINE
  8
0
 10
-43.61115788674389
 20
61.103761057916415
 11
-44.489383265277134
 21
60.52998778142063
  0
LINE
  8
0
 10
-44.489383265277134
 20
60.52998778142063
 11
-45.29915863319925
 21
59.86308490856189
  0
LINE
  8
0
 10
-45.29915863319925
 20
59.86308490856189
 11
-45.043777855632015
 21
58.85944261347407
  0
LINE
  8
0
 10
-45.043777855632015
 20
58.85944261347407
 11
-44.767938235007044
 21
57.921097657067165
  0
LINE
  8
0
 10
-44.767938235007044
 20
57.921097657067165
 11
-44.48721468213075
 21
57.08145571333361
  0
LINE
  8
0
 10
-44.48721468213075
 20
57.08145571333361
 11
-44.20844694750879
 21
56.33949017788584
  0
LINE
  8
0
 10
-44.20844694750879
 20
56.33949017788584
 11
-43.93838842882873
 21
55.69380670552778
  0
LINE
  8
0
 10
-43.93838842882873
 20
55.69380670552778
 11
-43.65255077579829
 21
55.07526792406575
  0
LINE
  8
0
 10
-43.65255077579829
 20
55.07526792406575
 11
-43.594647122270814
 21
54.871954902829586
  0
LINE
  8
0
 10
-43.594647122270814
 20
54.871954902829586
 11
-43.60791711740386
 21
54.7411257274576
  0
LINE
  8
0
 10
-43.60791711740386
 20
54.7411257274576
 11
-45.365658240075845
 21
53.29351117793172
  0
LINE
  8
0
 10
-45.365658240075845
 20
53.29351117793172
 11
-45.496604728759095
 21
53.305568665276155
  0
LINE
  8
0
 10
-45.496604728759095
 20
53.305568665276155
 11
-45.685045851038396
 21
53.40137556027817
  0
LINE
  8
0
 10
-45.685045851038396
 20
53.40137556027817
 11
-46.23731354465069
 21
53.80049181233377
  0
LINE
  8
0
 10
-46.23731354465069
 20
53.80049181233377
 11
-46.81924746349204
 21
54.18932553526691
  0
LINE
  8
0
 10
-46.81924746349204
 20
54.18932553526691
 11
-47.49400790763465
 21
54.60516522634843
  0
LINE
  8
0
 10
-47.49400790763465
 20
54.60516522634843
 11
-48.26425805738984
 21
55.041650064133414
  0
LINE
  8
0
 10
-48.26425805738984
 20
55.041650064133414
 11
-49.13231672803123
 21
55.49226397623316
  0
LINE
  8
0
 10
-49.13231672803123
 20
55.49226397623316
 11
-50.06838374702003
 21
55.935316720356404
  0
LINE
  8
0
 10
-50.06838374702003
 20
55.935316720356404
 11
-50.878159114942186
 21
55.268413847497676
  0
LINE
  8
0
 10
-50.878159114942186
 20
55.268413847497676
 11
-51.609654896237416
 21
54.51647667574199
  0
LINE
  8
0
 10
-51.609654896237416
 20
54.51647667574199
 11
-51.24541520361898
 21
53.54701979461666
  0
LINE
  8
0
 10
-51.24541520361898
 20
53.54701979461666
 11
-50.86802408332701
 21
52.64471458248189
  0
LINE
  8
0
 10
-50.86802408332701
 20
52.64471458248189
 11
-50.49663681577543
 21
51.841050595285296
  0
LINE
  8
0
 10
-50.49663681577543
 20
51.841050595285296
 11
-50.1379387038947
 21
51.13425503064744
  0
LINE
  8
0
 10
-50.1379387038947
 20
51.13425503064744
 11
-49.79848876738816
 21
50.522199076837865
  0
LINE
  8
0
 10
-49.79848876738816
 20
50.522199076837865
 11
-49.446341604344155
 21
49.938858898534896
  0
LINE
  8
0
 10
-49.446341604344155
 20
49.938858898534896
 11
-49.36642328300329
 21
49.743149727543695
  0
LINE
  8
0
 10
-49.36642328300329
 20
49.743149727543695
 11
-49.36522045341709
 21
49.61165478809608
  0
LINE
  8
0
 10
-49.36522045341709
 20
49.61165478809608
 11
-50.953043776745574
 21
47.979460304517225
  0
LINE
  8
0
 10
-50.953043776745574
 20
47.979460304517225
 11
-51.08452193166734
 21
47.97703942081476
  0
LINE
  8
0
 10
-51.08452193166734
 20
47.97703942081476
 11
-51.28235889004711
 21
48.05153476023177
  0
LINE
  8
0
 10
-51.28235889004711
 20
48.05153476023177
 11
-51.87518076167845
 21
48.3874746604792
  0
LINE
  8
0
 10
-51.87518076167845
 20
48.3874746604792
 11
-52.49635764190911
 21
48.70993091093035
  0
LINE
  8
0
 10
-52.49635764190911
 20
48.70993091093035
 11
-53.212768531817744
 21
49.0490175406854
  0
LINE
  8
0
 10
-53.212768531817744
 20
49.0490175406854
 11
-54.02636070536378
 21
49.39811936244904
  0
LINE
  8
0
 10
-54.02636070536378
 20
49.39811936244904
 11
-54.938722082651374
 21
49.75050476323549
  0
LINE
  8
0
 10
-54.938722082651374
 20
49.75050476323549
 11
-55.917847253037465
 21
50.087893409799314
  0
LINE
  8
0
 10
-55.917847253037465
 20
50.087893409799314
 11
-56.64934303433269
 21
49.33595623804363
  0
LINE
  8
0
 10
-56.64934303433269
 20
49.33595623804363
 11
-57.29367986112644
 21
48.50811226605496
  0
LINE
  8
0
 10
-57.29367986112644
 20
48.50811226605496
 11
-56.82500262991309
 21
47.58460869216791
  0
LINE
  8
0
 10
-56.82500262991309
 20
47.58460869216791
 11
-56.350641026926866
 21
46.72929598728557
  0
LINE
  8
0
 10
-56.350641026926866
 20
46.72929598728557
 11
-55.89309818303356
 21
45.97136534875842
  0
LINE
  8
0
 10
-55.89309818303356
 20
45.97136534875842
 11
-55.45882380306696
 21
45.30831929563452
  0
LINE
  8
0
 10
-55.45882380306696
 20
45.30831929563452
 11
-55.05410291113205
 21
44.73732039053973
  0
LINE
  8
0
 10
-55.05410291113205
 20
44.73732039053973
 11
-54.63992082760266
 21
44.19625977494687
  0
LINE
  8
0
 10
-54.63992082760266
 20
44.19625977494687
 11
-54.53895793860925
 21
44.010530098421796
  0
LINE
  8
0
 10
-54.53895793860925
 20
44.010530098421796
 11
-54.52329688502558
 21
43.879965565335674
  0
LINE
  8
0
 10
-54.52329688502558
 20
43.879965565335674
 11
-55.92192838478784
 21
42.08300377770525
  0
LINE
  8
0
 10
-55.92192838478784
 20
42.08300377770525
 11
-56.05234223925241
 21
42.06613390920463
  0
LINE
  8
0
 10
-56.05234223925241
 20
42.06613390920463
 11
-56.25717356105494
 21
42.11841342053017
  0
LINE
  8
0
 10
-56.25717356105494
 20
42.11841342053017
 11
-56.883353556241524
 21
42.38709911365668
  0
LINE
  8
0
 10
-56.883353556241524
 20
42.38709911365668
 11
-57.53623315200399
 21
42.63926370955617
  0
LINE
  8
0
 10
-57.53623315200399
 20
42.63926370955617
 11
-58.28559822995106
 21
42.897481225638415
  0
LINE
  8
0
 10
-58.28559822995106
 20
42.897481225638415
 11
-59.132656520422266
 21
43.154962408170384
  0
LINE
  8
0
 10
-59.132656520422266
 20
43.154962408170384
 11
-60.07824577315327
 21
43.4048418162319
  0
LINE
  8
0
 10
-60.07824577315327
 20
43.4048418162319
 11
-61.08854384172627
 21
43.632470924105775
  0
LINE
  8
0
 10
-61.08854384172627
 20
43.632470924105775
 11
-61.73288066852008
 21
42.80462695211717
  0
LINE
  8
0
 10
-61.73288066852008
 20
42.80462695211717
 11
-62.282237164577005
 21
41.91092508428837
  0
LINE
  8
0
 10
-62.282237164577005
 20
41.91092508428837
 11
-61.714811501468546
 21
41.044584900015444
  0
LINE
  8
0
 10
-61.714811501468546
 20
41.044584900015444
 11
-61.14923752306109
 21
40.246647039985504
  0
LINE
  8
0
 10
-61.14923752306109
 20
40.246647039985504
 11
-60.61109305314696
 21
39.54365000135945
  0
LINE
  8
0
 10
-60.61109305314696
 20
39.54365000135945
 11
-60.106513907783615
 21
38.932401940648454
  0
LINE
  8
0
 10
-60.106513907783615
 20
38.932401940648454
 11
-59.64143482379898
 21
38.40939123748068
  0
LINE
  8
0
 10
-59.64143482379898
 20
38.40939123748068
 11
-59.170245429212315
 21
37.917177927531085
  0
LINE
  8
0
 10
-59.170245429212315
 20
37.917177927531085
 11
-59.049463525270795
 21
37.74368225214907
  0
LINE
  8
0
 10
-59.049463525270795
 20
37.74368225214907
 11
-59.019534351665136
 21
37.61563300198872
  0
LINE
  8
0
 10
-59.019534351665136
 20
37.61563300198872
 11
-60.211996536090496
 21
35.675716592179604
  0
LINE
  8
0
 10
-60.211996536090496
 20
35.675716592179604
 11
-60.33976304256795
 21
35.64460251623189
  0
LINE
  8
0
 10
-60.33976304256795
 20
35.64460251623189
 11
-60.54910235301844
 21
35.67403159701817
  0
LINE
  8
0
 10
-60.54910235301844
 20
35.67403159701817
 11
-61.2010394948646
 21
35.87220160268049
  0
LINE
  8
0
 10
-61.2010394948646
 20
35.87220160268049
 11
-61.87769673228045
 21
36.05101360742532
  0
LINE
  8
0
 10
-61.87769673228045
 20
36.05101360742532
 11
-62.650919721336514
 21
36.22522759898026
  0
LINE
  8
0
 10
-62.650919721336514
 20
36.22522759898026
 11
-63.52116198854214
 21
36.38796266951787
  0
LINE
  8
0
 10
-63.52116198854214
 20
36.38796266951787
 11
-64.48850094411753
 21
36.5323028873362
  0
LINE
  8
0
 10
-64.48850094411753
 20
36.5323028873362
 11
-65.517708260911
 21
36.647409347505096
  0
LINE
  8
0
 10
-65.517708260911
 20
36.647409347505096
 11
-66.06706475696792
 21
35.753707479676294
  0
LINE
  8
0
 10
-66.06706475696792
 20
35.753707479676294
 11
-66.51477247860382
 21
34.804996046042106
  0
LINE
  8
0
 10
-66.51477247860382
 20
34.804996046042106
 11
-65.85548616249538
 21
34.00633544764493
  0
LINE
  8
0
 10
-65.85548616249538
 20
34.00633544764493
 11
-65.20556511061771
 21
33.275458317172884
  0
LINE
  8
0
 10
-65.20556511061771
 20
33.275458317172884
 11
-64.5933513595577
 21
32.635928310191844
  0
LINE
  8
0
 10
-64.5933513595577
 20
32.635928310191844
 11
-64.02459235610131
 21
32.08389796533221
  0
LINE
  8
0
 10
-64.02459235610131
 20
32.08389796533221
 11
-63.5048005101337
 21
31.61522410553884
  0
LINE
  8
0
 10
-63.5048005101337
 20
31.61522410553884
 11
-62.98232340544998
 21
31.177832904045484
  0
LINE
  8
0
 10
-62.98232340544998
 20
31.177832904045484
 11
-62.84318861525869
 21
31.01867723228218
  0
LINE
  8
0
 10
-62.84318861525869
 20
31.01867723228218
 11
-62.79935462125548
 21
30.894697609484428
  0
LINE
  8
0
 10
-62.79935462125548
 20
30.894697609484428
 11
-63.77117261477709
 21
28.835374534831306
  0
LINE
  8
0
 10
-63.77117261477709
 20
28.835374534831306
 11
-63.894740860955906
 21
28.79039393417026
  0
LINE
  8
0
 10
-63.894740860955906
 20
28.79039393417026
 11
-64.10604706440401
 21
28.796615355242224
  0
LINE
  8
0
 10
-64.10604706440401
 20
28.796615355242224
 11
-64.7758277191452
 21
28.921864158019815
  0
LINE
  8
0
 10
-64.7758277191452
 20
28.921864158019815
 11
-65.46804889597638
 21
29.025153036097535
  0
LINE
  8
0
 10
-65.46804889597638
 20
29.025153036097535
 11
-66.25574391648993
 21
29.113248781264225
  0
LINE
  8
0
 10
-66.25574391648993
 20
29.113248781264225
 11
-67.13860659816751
 21
29.1792623564979
  0
LINE
  8
0
 10
-67.13860659816751
 20
29.1792623564979
 11
-68.1159530720587
 21
29.21631128935718
  0
LINE
  8
0
 10
-68.1159530720587
 20
29.21631128935718
 11
-69.15157645444785
 21
29.217497865321953
  0
LINE
  8
0
 10
-69.15157645444785
 20
29.217497865321953
 11
-69.5992841760838
 21
28.268786431687797
  0
LINE
  8
0
 10
-69.5992841760838
 20
28.268786431687797
 11
-69.93990855803902
 21
27.276581503894022
  0
LINE
  8
0
 10
-69.93990855803902
 20
27.276581503894022
 11
-69.1967644317152
 21
26.555295149142804
  0
LINE
  8
0
 10
-69.1967644317152
 20
26.555295149142804
 11
-68.47038546753076
 21
25.90035060652018
  0
LINE
  8
0
 10
-68.47038546753076
 20
25.90035060652018
 11
-67.79153388093599
 21
25.33205065913859
  0
LINE
  8
0
 10
-67.79153388093599
 20
25.33205065913859
 11
-67.16549898322714
 21
24.8459389307168
  0
LINE
  8
0
 10
-67.16549898322714
 20
24.8459389307168
 11
-66.5973039441579
 21
24.437290980073275
  0
LINE
  8
0
 10
-66.5973039441579
 20
24.437290980073275
 11
-66.02988129366175
 21
24.060031223716468
  0
LINE
  8
0
 10
-66.02988129366175
 20
24.060031223716468
 11
-65.87408252509664
 21
23.9171474898291
  0
LINE
  8
0
 10
-65.87408252509664
 20
23.9171474898291
 11
-65.81687579600398
 21
23.798742439067464
  0
LINE
  8
0
 10
-65.81687579600398
 20
23.798742439067464
 11
-66.55625304464004
 21
21.645010092063654
  0
LINE
  8
0
 10
-66.55625304464004
 20
21.645010092063654
 11
-66.67412307940157
 21
21.586708970248967
  0
LINE
  8
0
 10
-66.67412307940157
 20
21.586708970248967
 11
-66.88483120478041
 21
21.569647211982563
  0
LINE
  8
0
 10
-66.88483120478041
 20
21.569647211982563
 11
-67.56432514257698
 21
21.62045446107623
  0
LINE
  8
0
 10
-67.56432514257698
 20
21.62045446107623
 11
-68.26370763144443
 21
21.646966425425802
  0
LINE
  8
0
 10
-68.26370763144443
 20
21.646966425425802
 11
-69.05631313290637
 21
21.647874561195568
  0
LINE
  8
0
 10
-69.05631313290637
 20
21.647874561195568
 11
-69.94107947205782
 21
21.616365325746344
  0
LINE
  8
0
 10
-69.94107947205782
 20
21.616365325746344
 11
-70.91656980202039
 21
21.54567324978947
  0
LINE
  8
0
 10
-70.91656980202039
 20
21.54567324978947
 11
-71.94603818503572
 21
21.43292553812533
  0
LINE
  8
0
 10
-71.94603818503572
 20
21.43292553812533
 11
-72.286662566991
 21
20.44072061033154
  0
LINE
  8
0
 10
-72.286662566991
 20
20.44072061033154
 11
-72.51606889069062
 21
19.417066212125164
  0
LINE
  8
0
 10
-72.51606889069062
 20
19.417066212125164
 11
-71.69808771715519
 21
18.78190954028616
  0
LINE
  8
0
 10
-71.69808771715519
 20
18.78190954028616
 11
-70.90406809731014
 21
18.210847725049017
  0
LINE
  8
0
 10
-70.90406809731014
 20
18.210847725049017
 11
-70.16681901384517
 21
17.720676228788573
  0
LINE
  8
0
 10
-70.16681901384517
 20
17.720676228788573
 11
-69.4911074374927
 21
17.306383854683265
  0
LINE
  8
0
 10
-69.4911074374927
 20
17.306383854683265
 11
-68.88140632339875
 21
16.962722245741222
  0
LINE
  8
0
 10
-68.88140632339875
 20
16.962722245741222
 11
-68.27592586941608
 21
16.650173356913527
  0
LINE
  8
0
 10
-68.27592586941608
 20
16.650173356913527
 11
-68.1053543084769
 21
16.525295975876055
  0
LINE
  8
0
 10
-68.1053543084769
 20
16.525295975876055
 11
-68.0354692564917
 21
16.41390277407105
  0
LINE
  8
0
 10
-68.0354692564917
 20
16.41390277407105
 11
-68.53343072203074
 21
14.191904547886026
  0
LINE
  8
0
 10
-68.53343072203074
 20
14.191904547886026
 11
-68.64417176282394
 21
14.120990601559729
  0
LINE
  8
0
 10
-68.64417176282394
 20
14.120990601559729
 11
-68.85172409892424
 21
14.080852770587846
  0
LINE
  8
0
 10
-68.85172409892424
 20
14.080852770587846
 11
-69.5326831838382
 21
14.05660173481891
  0
LINE
  8
0
 10
-69.5326831838382
 20
14.05660173481891
 11
-70.2307374287357
 21
14.006014966107191
  0
LINE
  8
0
 10
-70.2307374287357
 20
14.006014966107191
 11
-71.01863225405016
 21
13.919724468941983
  0
LINE
  8
0
 10
-71.01863225405016
 20
13.919724468941983
 11
-71.89456238585444
 21
13.791074902244668
  0
LINE
  8
0
 10
-71.89456238585444
 20
13.791074902244668
 11
-72.85635544071681
 21
13.613499923511728
  0
LINE
  8
0
 10
-72.85635544071681
 20
13.613499923511728
 11
-73.86717247274335
 21
13.388186528706175
  0
LINE
  8
0
 10
-73.86717247274335
 20
13.388186528706175
 11
-74.096578796443
 21
12.364532130499803
  0
LINE
  8
0
 10
-74.096578796443
 20
12.364532130499803
 11
-74.21198237987933
 21
11.321854039596053
  0
LINE
  8
0
 10
-74.21198237987933
 20
11.321854039596053
 11
-73.32909334251242
 21
10.780536992259389
  0
LINE
  8
0
 10
-73.32909334251242
 20
10.780536992259389
 11
-72.47707138958421
 21
10.30028982126387
  0
LINE
  8
0
 10
-72.47707138958421
 20
10.30028982126387
 11
-71.69037401441821
 21
9.89419679408527
  0
LINE
  8
0
 10
-71.69037401441821
 20
9.89419679408527
 11
-70.97318798261588
 21
9.556752722502761
  0
LINE
  8
0
 10
-70.97318798261588
 20
9.556752722502761
 11
-70.32938173909929
 21
9.282249041658403
  0
LINE
  8
0
 10
-70.32938173909929
 20
9.282249041658403
 11
-69.6931931941359
 21
9.038204940480236
  0
LINE
  8
0
 10
-69.6931931941359
 20
9.038204940480236
 11
-69.50991934851012
 21
8.932849754535074
  0
LINE
  8
0
 10
-69.50991934851012
 20
8.932849754535074
 11
-69.42820428349467
 21
8.829820564259382
  0
LINE
  8
0
 10
-69.42820428349467
 20
8.829820564259382
 11
-69.67870538830151
 21
6.566528507360464
  0
LINE
  8
0
 10
-69.67870538830151
 20
6.566528507360464
 11
-69.78097318890497
 21
6.483862535768385
  0
LINE
  8
0
 10
-69.78097318890497
 20
6.483862535768385
 11
-69.98285033152426
 21
6.421135850986869
  0
LINE
  8
0
 10
-69.98285033152426
 20
6.421135850986869
 11
-70.65700864271642
 21
6.322120905078248
  0
LINE
  8
0
 10
-70.65700864271642
 20
6.322120905078248
 11
-71.34526121072025
 21
6.195049458150743
  0
LINE
  8
0
 10
-71.34526121072025
 20
6.195049458150743
 11
-72.11888138401851
 21
6.02260777779394
  0
LINE
  8
0
 10
-72.11888138401851
 20
6.02260777779394
 11
-72.9753427032419
 21
5.798379511314922
  0
LINE
  8
0
 10
-72.9753427032419
 20
5.798379511314922
 11
-73.9117636181975
 21
5.516077149498298
  0
LINE
  8
0
 10
-73.9117636181975
 20
5.516077149498298
 11
-74.89165934975543
 21
5.180933070946649
  0
LINE
  8
0
 10
-74.89165934975543
 20
5.180933070946649
 11
-75.00706293319179
 21
4.138254980042938
  0
LINE
  8
0
 10
-75.00706293319179
 20
4.138254980042938
 11
-75.0070629331918
 21
3.089209896016219
  0
LINE
  8
0
 10
-75.0070629331918
 20
3.089209896016219
 11
-74.06998310891383
 21
2.6483033288490425
  0
LINE
  8
0
 10
-74.06998310891383
 20
2.6483033288490425
 11
-73.17030121523146
 21
2.2647003521909683
  0
LINE
  8
0
 10
-73.17030121523146
 20
2.2647003521909683
 11
-72.34370498881046
 21
1.9476152133359692
  0
LINE
  8
0
 10
-72.34370498881046
 20
1.9476152133359692
 11
-71.5937501684584
 21
1.691115558191417
  0
LINE
  8
0
 10
-71.5937501684584
 20
1.691115558191417
 11
-70.92365373119242
 21
1.4891019082776547
  0
LINE
  8
0
 10
-70.92365373119242
 20
1.4891019082776547
 11
-70.26447956238034
 21
1.3165249595464228
  0
LINE
  8
0
 10
-70.26447956238034
 20
1.3165249595464228
 11
-70.07072812828451
 21
1.231970837933024
  0
LINE
  8
0
 10
-70.07072812828451
 20
1.231970837933024
 11
-69.97817496043393
 21
1.138556293989552
  0
LINE
  8
0
 10
-69.97817496043393
 20
1.138556293989552
 11
-69.978174960434
 21
-1.1385562939891753
  0
LINE
  8
0
 10
-69.978174960434
 20
-1.1385562939891753
 11
-70.07072812828403
 21
-1.2319708379342023
  0
LINE
  8
0
 10
-70.07072812828403
 20
-1.2319708379342023
 11
-70.26447956238097
 21
-1.3165249595439195
  0
LINE
  8
0
 10
-70.26447956238097
 20
-1.3165249595439195
 11
-70.92365373119247
 21
-1.4891019082780974
  0
LINE
  8
0
 10
-70.92365373119247
 20
-1.4891019082780974
 11
-71.59375016845871
 21
-1.6911155581912314
  0
LINE
  8
0
 10
-71.59375016845871
 20
-1.6911155581912314
 11
-72.34370498881059
 21
-1.9476152133357867
  0
LINE
  8
0
 10
-72.34370498881059
 20
-1.9476152133357867
 11
-73.17030121523099
 21
-2.2647003521891147
  0
LINE
  8
0
 10
-73.17030121523099
 20
-2.2647003521891147
 11
-74.06998310888163
 21
-2.6483033288338813
  0
LINE
  8
0
 10
-74.06998310888163
 20
-2.6483033288338813
 11
-75.00706293319189
 21
-3.089209896016202
  0
LINE
  8
0
 10
-75.00706293319189
 20
-3.089209896016202
 11
-75.0070629331919
 21
-4.138254980042954
  0
LINE
  8
0
 10
-75.0070629331919
 20
-4.138254980042954
 11
-74.89165934975534
 21
-5.18093307094669
  0
LINE
  8
0
 10
-74.89165934975534
 20
-5.18093307094669
 11
-73.91176361823116
 21
-5.516077149486837
  0
LINE
  8
0
 10
-73.91176361823116
 20
-5.516077149486837
 11
-72.97534270324257
 21
-5.798379511313197
  0
LINE
  8
0
 10
-72.97534270324257
 20
-5.798379511313197
 11
-72.11888138401838
 21
-6.022607777793807
  0
LINE
  8
0
 10
-72.11888138401838
 20
-6.022607777793807
 11
-71.34526121071995
 21
-6.195049458150589
  0
LINE
  8
0
 10
-71.34526121071995
 20
-6.195049458150589
 11
-70.6570086427163
 21
-6.322120905078745
  0
LINE
  8
0
 10
-70.6570086427163
 20
-6.322120905078745
 11
-69.98285033152392
 21
-6.421135850984375
  0
LINE
  8
0
 10
-69.98285033152392
 20
-6.421135850984375
 11
-69.7809731889053
 21
-6.483862535769671
  0
LINE
  8
0
 10
-69.7809731889053
 20
-6.483862535769671
 11
-69.67870538830147
 21
-6.566528507360143
  0
LINE
  8
0
 10
-69.67870538830147
 20
-6.566528507360143
 11
-69.42820428349476
 21
-8.829820564259077
  0
LINE
  8
0
 10
-69.42820428349476
 20
-8.829820564259077
 11
-69.50991934850951
 21
-8.932849754536251
  0
LINE
  8
0
 10
-69.50991934850951
 20
-8.932849754536251
 11
-69.6931931941368
 21
-9.038204940477879
  0
LINE
  8
0
 10
-69.6931931941368
 20
-9.038204940477879
 11
-70.32938173909929
 21
-9.282249041658911
  0
LINE
  8
0
 10
-70.32938173909929
 20
-9.282249041658911
 11
-70.9731879826162
 21
-9.55675272250267
  0
LINE
  8
0
 10
-70.9731879826162
 20
-9.55675272250267
 11
-71.69037401441835
 21
-9.894196794085165
  0
LINE
  8
0
 10
-71.69037401441835
 20
-9.894196794085165
 11
-72.47707138958391
 21
-10.300289821262036
  0
LINE
  8
0
 10
-72.47707138958391
 20
-10.300289821262036
 11
-73.32909334248208
 21
-10.780536992240846
  0
LINE
  8
0
 10
-73.32909334248208
 20
-10.780536992240846
 11
-74.21198237987933
 21
-11.321854039596108
  0
LINE
  8
0
 10
-74.21198237987933
 20
-11.321854039596108
 11
-74.09657879644298
 21
-12.364532130499816
  0
LINE
  8
0
 10
-74.09657879644298
 20
-12.364532130499816
 11
-73.8671724727433
 21
-13.388186528706182
  0
LINE
  8
0
 10
-73.8671724727433
 20
-13.388186528706182
 11
-72.85635544075154
 21
-13.61349992350401
  0
LINE
  8
0
 10
-72.85635544075154
 20
-13.61349992350401
 11
-71.89456238585531
 21
-13.791074902242999
  0
LINE
  8
0
 10
-71.89456238585531
 20
-13.791074902242999
 11
-71.01863225405006
 21
-13.919724468941803
  0
LINE
  8
0
 10
-71.01863225405006
 20
-13.919724468941803
 11
-70.23073742873544
 21
-14.006014966106974
  0
LINE
  8
0
 10
-70.23073742873544
 20
-14.006014966106974
 11
-69.53268318383805
 21
-14.05660173481936
  0
LINE
  8
0
 10
-69.53268318383805
 20
-14.05660173481936
 11
-68.85172409892415
 21
-14.080852770585295
  0
LINE
  8
0
 10
-68.85172409892415
 20
-14.080852770585295
 11
-68.64417176282416
 21
-14.120990601561012
  0
LINE
  8
0
 10
-68.64417176282416
 20
-14.120990601561012
 11
-68.53343072203074
 21
-14.191904547885674
  0
LINE
  8
0
 10
-68.53343072203074
 20
-14.191904547885674
 11
-68.03546925649184
 21
-16.41390277407073
  0
LINE
  8
0
 10
-68.03546925649184
 20
-16.41390277407073
 11
-68.10535430847617
 21
-16.525295975877132
  0
LINE
  8
0
 10
-68.10535430847617
 20
-16.525295975877132
 11
-68.27592586941724
 21
-16.650173356911253
  0
LINE
  8
0
 10
-68.27592586941724
 20
-16.650173356911253
 11
-68.8814063233987
 21
-16.9627222457417
  0
LINE
  8
0
 10
-68.8814063233987
 20
-16.9627222457417
 11
-69.49110743749303
 21
-17.306383854683183
  0
LINE
  8
0
 10
-69.49110743749303
 20
-17.306383854683183
 11
-70.16681901384533
 21
-17.720676228788456
  0
LINE
  8
0
 10
-70.16681901384533
 20
-17.720676228788456
 11
-70.90406809731006
 21
-18.210847725047138
  0
LINE
  8
0
 10
-70.90406809731006
 20
-18.210847725047138
 11
-71.69808771712708
 21
-18.78190954026436
  0
LINE
  8
0
 10
-71.69808771712708
 20
-18.78190954026436
 11
-72.51606889069066
 21
-19.41706621212518
  0
LINE
  8
0
 10
-72.51606889069066
 20
-19.41706621212518
 11
-72.28666256699103
 21
-20.440720610331553
  0
LINE
  8
0
 10
-72.28666256699103
 20
-20.440720610331553
 11
-71.94603818503575
 21
-21.43292553812532
  0
LINE
  8
0
 10
-71.94603818503575
 20
-21.43292553812532
 11
-70.91656980205575
 21
-21.54567324978558
  0
LINE
  8
0
 10
-70.91656980205575
 20
-21.54567324978558
 11
-69.94107947205889
 21
-21.61636532574475
  0
LINE
  8
0
 10
-69.94107947205889
 20
-21.61636532574475
 11
-69.05631313290631
 21
-21.647874561195348
  0
LINE
  8
0
 10
-69.05631313290631
 20
-21.647874561195348
 11
-68.2637076314442
 21
-21.64696642542553
  0
LINE
  8
0
 10
-68.2637076314442
 20
-21.64696642542553
 11
-67.56432514257678
 21
-21.620454461076626
  0
LINE
  8
0
 10
-67.56432514257678
 20
-21.620454461076626
 11
-66.88483120478064
 21
-21.56964721197999
  0
LINE
  8
0
 10
-66.88483120478064
 20
-21.56964721197999
 11
-66.67412307940164
 21
-21.586708970250232
  0
LINE
  8
0
 10
-66.67412307940164
 20
-21.586708970250232
 11
-66.55625304464009
 21
-21.645010092063277
  0
LINE
  8
0
 10
-66.55625304464009
 20
-21.645010092063277
 11
-65.81687579600415
 21
-23.79874243906713
  0
LINE
  8
0
 10
-65.81687579600415
 20
-23.79874243906713
 11
-65.8740825250958
 21
-23.917147489830057
  0
LINE
  8
0
 10
-65.8740825250958
 20
-23.917147489830057
 11
-66.02988129366315
 21
-24.060031223714304
  0
LINE
  8
0
 10
-66.02988129366315
 20
-24.060031223714304
 11
-66.59730394415782
 21
-24.43729098007371
  0
LINE
  8
0
 10
-66.59730394415782
 20
-24.43729098007371
 11
-67.16549898322748
 21
-24.84593893071672
  0
LINE
  8
0
 10
-67.16549898322748
 20
-24.84593893071672
 11
-67.79153388093619
 21
-25.332050659138456
  0
LINE
  8
0
 10
-67.79153388093619
 20
-25.332050659138456
 11
-68.47038546753089
 21
-25.900350606518273
  0
LINE
  8
0
 10
-68.47038546753089
 20
-25.900350606518273
 11
-69.19676443168966
 21
-26.555295149118006
  0
LINE
  8
0
 10
-69.19676443168966
 20
-26.555295149118006
 11
-69.93990855803904
 21
-27.27658150389401
  0
LINE
  8
0
 10
-69.93990855803904
 20
-27.27658150389401
 11
-69.59928417608376
 21
-28.268786431687804
  0
LINE
  8
0
 10
-69.59928417608376
 20
-28.268786431687804
 11
-69.15157645444782
 21
-29.217497865321956
  0
LINE
  8
0
 10
-69.15157645444782
 20
-29.217497865321956
 11
-68.11595307209427
 21
-29.21631128935724
  0
LINE
  8
0
 10
-68.11595307209427
 20
-29.21631128935724
 11
-67.13860659816872
 21
-29.179262356496462
  0
LINE
  8
0
 10
-67.13860659816872
 20
-29.179262356496462
 11
-66.25574391648988
 21
-29.11324878126403
  0
LINE
  8
0
 10
-66.25574391648988
 20
-29.11324878126403
 11
-65.46804889597618
 21
-29.025153036097272
  0
LINE
  8
0
 10
-65.46804889597618
 20
-29.025153036097272
 11
-64.77582771914494
 21
-28.921864158020217
  0
LINE
  8
0
 10
-64.77582771914494
 20
-28.921864158020217
 11
-64.10604706440449
 21
-28.796615355239727
  0
LINE
  8
0
 10
-64.10604706440449
 20
-28.796615355239727
 11
-63.894740860955814
 21
-28.79039393417156
  0
LINE
  8
0
 10
-63.894740860955814
 20
-28.79039393417156
 11
-63.77117261477717
 21
-28.835374534830965
  0
LINE
  8
0
 10
-63.77117261477717
 20
-28.835374534830965
 11
-62.799354621255695
 21
-30.894697609484155
  0
LINE
  8
0
 10
-62.799354621255695
 20
-30.894697609484155
 11
-62.84318861525774
 21
-31.01867723228307
  0
LINE
  8
0
 10
-62.84318861525774
 20
-31.01867723228307
 11
-62.9823234054516
 21
-31.17783290404352
  0
LINE
  8
0
 10
-62.9823234054516
 20
-31.17783290404352
 11
-63.50480051013354
 21
-31.615224105539294
  0
LINE
  8
0
 10
-63.50480051013354
 20
-31.615224105539294
 11
-64.02459235610164
 21
-32.08389796533221
  0
LINE
  8
0
 10
-64.02459235610164
 20
-32.08389796533221
 11
-64.59335135955789
 21
-32.63592831019177
  0
LINE
  8
0
 10
-64.59335135955789
 20
-32.63592831019177
 11
-65.20556511061807
 21
-33.27545831717104
  0
LINE
  8
0
 10
-65.20556511061807
 20
-33.27545831717104
 11
-65.85548616247272
 21
-34.006335447617516
  0
LINE
  8
0
 10
-65.85548616247272
 20
-34.006335447617516
 11
-66.5147724786038
 21
-34.804996046042135
  0
LINE
  8
0
 10
-66.5147724786038
 20
-34.804996046042135
 11
-66.06706475696788
 21
-35.75370747967625
  0
LINE
  8
0
 10
-66.06706475696788
 20
-35.75370747967625
 11
-65.51770826091098
 21
-36.647409347505054
  0
LINE
  8
0
 10
-65.51770826091098
 20
-36.647409347505054
 11
-64.4885009441529
 21
-36.532302887340144
  0
LINE
  8
0
 10
-64.4885009441529
 20
-36.532302887340144
 11
-63.52116198854353
 21
-36.38796266951654
  0
LINE
  8
0
 10
-63.52116198854353
 20
-36.38796266951654
 11
-62.6509197213365
 21
-36.225227598980034
  0
LINE
  8
0
 10
-62.6509197213365
 20
-36.225227598980034
 11
-61.87769673228029
 21
-36.051013607425006
  0
LINE
  8
0
 10
-61.87769673228029
 20
-36.051013607425006
 11
-61.201039494864325
 21
-35.87220160268084
  0
LINE
  8
0
 10
-61.201039494864325
 20
-35.87220160268084
 11
-60.549102353019215
 21
-35.67403159701571
  0
LINE
  8
0
 10
-60.549102353019215
 20
-35.67403159701571
 11
-60.339763042567746
 21
-35.64460251623316
  0
LINE
  8
0
 10
-60.339763042567746
 20
-35.64460251623316
 11
-60.21199653609064
 21
-35.67571659217925
  0
LINE
  8
0
 10
-60.21199653609064
 20
-35.67571659217925
 11
-59.0195343516654
 21
-37.615633001988435
  0
LINE
  8
0
 10
-59.0195343516654
 20
-37.615633001988435
 11
-59.04946352526978
 21
-37.74368225214983
  0
LINE
  8
0
 10
-59.04946352526978
 20
-37.74368225214983
 11
-59.17024542921417
 21
-37.91717792752929
  0
LINE
  8
0
 10
-59.17024542921417
 20
-37.91717792752929
 11
-59.641434823798804
 21
-38.409391237481096
  0
LINE
  8
0
 10
-59.641434823798804
 20
-38.409391237481096
 11
-60.10651390778397
 21
-38.93240194064847
  0
LINE
  8
0
 10
-60.10651390778397
 20
-38.93240194064847
 11
-60.61109305314717
 21
-39.543650001359374
  0
LINE
  8
0
 10
-60.61109305314717
 20
-39.543650001359374
 11
-61.14923752306166
 21
-40.24664703998367
  0
LINE
  8
0
 10
-61.14923752306166
 20
-40.24664703998367
 11
-61.71481150144907
 21
-41.04458489998567
  0
LINE
  8
0
 10
-61.71481150144907
 20
-41.04458489998567
 11
-62.28223716457692
 21
-41.910925084288294
  0
LINE
  8
0
 10
-62.28223716457692
 20
-41.910925084288294
 11
-61.73288066851997
 21
-42.80462695211709
  0
LINE
  8
0
 10
-61.73288066851997
 20
-42.80462695211709
 11
-61.08854384172622
 21
-43.632470924105746
  0
LINE
  8
0
 10
-61.08854384172622
 20
-43.632470924105746
 11
-60.078245773187966
 21
-43.40484181623974
  0
LINE
  8
0
 10
-60.078245773187966
 20
-43.40484181623974
 11
-59.13265652042378
 21
-43.15496240816925
  0
LINE
  8
0
 10
-59.13265652042378
 20
-43.15496240816925
 11
-58.28559822995105
 21
-42.89748122563822
  0
LINE
  8
0
 10
-58.28559822995105
 20
-42.89748122563822
 11
-57.53623315200385
 21
-42.639263709555856
  0
LINE
  8
0
 10
-57.53623315200385
 20
-42.639263709555856
 11
-56.88335355624119
 21
-42.38709911365701
  0
LINE
  8
0
 10
-56.88335355624119
 20
-42.38709911365701
 11
-56.257173561055964
 21
-42.118413420527816
  0
LINE
  8
0
 10
-56.257173561055964
 20
-42.118413420527816
 11
-56.05234223925204
 21
-42.06613390920587
  0
LINE
  8
0
 10
-56.05234223925204
 20
-42.06613390920587
 11
-55.921928384787996
 21
-42.083003777704924
  0
LINE
  8
0
 10
-55.921928384787996
 20
-42.083003777704924
 11
-54.52329688502586
 21
-43.87996556533544
  0
LINE
  8
0
 10
-54.52329688502586
 20
-43.87996556533544
 11
-54.538957938608135
 21
-44.01053009842244
  0
LINE
  8
0
 10
-54.538957938608135
 20
-44.01053009842244
 11
-54.639920827604676
 21
-44.1962597749453
  0
LINE
  8
0
 10
-54.639920827604676
 20
-44.1962597749453
 11
-55.05410291113181
 21
-44.737320390540134
  0
LINE
  8
0
 10
-55.05410291113181
 20
-44.737320390540134
 11
-55.4588238030673
 21
-45.308319295634575
  0
LINE
  8
0
 10
-55.4588238030673
 20
-45.308319295634575
 11
-55.893098183033764
 21
-45.971365348758376
  0
LINE
  8
0
 10
-55.893098183033764
 20
-45.971365348758376
 11
-56.35064102692761
 21
-46.729295987283834
  0
LINE
  8
0
 10
-56.35064102692761
 20
-46.729295987283834
 11
-56.82500262989697
 21
-47.58460869213619
  0
LINE
  8
0
 10
-56.82500262989697
 20
-47.58460869213619
 11
-57.29367986112648
 21
-48.508112266054994
  0
LINE
  8
0
 10
-57.29367986112648
 20
-48.508112266054994
 11
-56.649343034332674
 21
-49.33595623804362
  0
LINE
  8
0
 10
-56.649343034332674
 20
-49.33595623804362
 11
-55.91784725303743
 21
-50.087893409799285
  0
LINE
  8
0
 10
-55.91784725303743
 20
-50.087893409799285
 11
-54.938722082685
 21
-49.75050476324709
  0
LINE
  8
0
 10
-54.938722082685
 20
-49.75050476324709
 11
-54.0263607053654
 21
-49.398119362448064
  0
LINE
  8
0
 10
-54.0263607053654
 20
-49.398119362448064
 11
-53.212768531817744
 21
-49.04901754068518
  0
LINE
  8
0
 10
-53.212768531817744
 20
-49.04901754068518
 11
-52.496357641909
 21
-48.70993091093003
  0
LINE
  8
0
 10
-52.496357641909
 20
-48.70993091093003
 11
-51.87518076167808
 21
-48.3874746604795
  0
LINE
  8
0
 10
-51.87518076167808
 20
-48.3874746604795
 11
-51.28235889004838
 21
-48.05153476022955
  0
LINE
  8
0
 10
-51.28235889004838
 20
-48.05153476022955
 11
-51.08452193166685
 21
-47.977039420815956
  0
LINE
  8
0
 10
-51.08452193166685
 20
-47.977039420815956
 11
-50.953043776745766
 21
-47.97946030451692
  0
LINE
  8
0
 10
-50.953043776745766
 20
-47.97946030451692
 11
-49.36522045341738
 21
-49.611654788095876
  0
LINE
  8
0
 10
-49.36522045341738
 20
-49.611654788095876
 11
-49.366423283002106
 21
-49.74314972754422
  0
LINE
  8
0
 10
-49.366423283002106
 20
-49.74314972754422
 11
-49.44634160434633
 21
-49.93885889853355
  0
LINE
  8
0
 10
-49.44634160434633
 20
-49.93885889853355
 11
-49.798488767387866
 21
-50.52219907683824
  0
LINE
  8
0
 10
-49.798488767387866
 20
-50.52219907683824
 11
-50.137938703895024
 21
-51.13425503064753
  0
LINE
  8
0
 10
-50.137938703895024
 20
-51.13425503064753
 11
-50.49663681577563
 21
-51.84105059528528
  0
LINE
  8
0
 10
-50.49663681577563
 20
-51.84105059528528
 11
-50.868024083327924
 21
-52.64471458248024
  0
LINE
  8
0
 10
-50.868024083327924
 20
-52.64471458248024
 11
-51.245415203606456
 21
-53.54701979458335
  0
LINE
  8
0
 10
-51.245415203606456
 20
-53.54701979458335
 11
-51.609654896237394
 21
-54.516476675742
  0
LINE
  8
0
 10
-51.609654896237394
 20
-54.516476675742
 11
-50.87815911494221
 21
-55.26841384749765
  0
LINE
  8
0
 10
-50.87815911494221
 20
-55.26841384749765
 11
-50.06838374702008
 21
-55.93531672035636
  0
LINE
  8
0
 10
-50.06838374702008
 20
-55.93531672035636
 11
-49.13231672806344
 21
-55.492263976248346
  0
LINE
  8
0
 10
-49.13231672806344
 20
-55.492263976248346
 11
-48.264258057391615
 21
-55.04165006413258
  0
LINE
  8
0
 10
-48.264258057391615
 20
-55.04165006413258
 11
-47.494007907634746
 21
-54.605165226348184
  0
LINE
  8
0
 10
-47.494007907634746
 20
-54.605165226348184
 11
-46.81924746349203
 21
-54.18932553526654
  0
LINE
  8
0
 10
-46.81924746349203
 20
-54.18932553526654
 11
-46.23731354465035
 21
-53.80049181233398
  0
LINE
  8
0
 10
-46.23731354465035
 20
-53.80049181233398
 11
-45.685045851039966
 21
-53.401375560276065
  0
LINE
  8
0
 10
-45.685045851039966
 20
-53.401375560276065
 11
-45.49660472875853
 21
-53.30556866527725
  0
LINE
  8
0
 10
-45.49660472875853
 20
-53.30556866527725
 11
-45.365658240076115
 21
-53.29351117793139
  0
LINE
  8
0
 10
-45.365658240076115
 20
-53.29351117793139
 11
-43.607917117404234
 21
-54.741125727457394
  0
LINE
  8
0
 10
-43.607917117404234
 20
-54.741125727457394
 11
-43.59464712226964
 21
-54.87195490282995
  0
LINE
  8
0
 10
-43.59464712226964
 20
-54.87195490282995
 11
-43.65255077580066
 21
-55.07526792406462
  0
LINE
  8
0
 10
-43.65255077580066
 20
-55.07526792406462
 11
-43.93838842882846
 21
-55.693806705528075
  0
LINE
  8
0
 10
-43.93838842882846
 20
-55.693806705528075
 11
-44.20844694750916
 21
-56.339490177885935
  0
LINE
  8
0
 10
-44.20844694750916
 20
-56.339490177885935
 11
-44.487214682131025
 21
-57.08145571333357
  0
LINE
  8
0
 10
-44.487214682131025
 20
-57.08145571333357
 11
-44.76793823500821
 21
-57.92109765706559
  0
LINE
  8
0
 10
-44.76793823500821
 20
-57.92109765706559
 11
-45.043777855623276
 21
-58.859442613439555
  0
LINE
  8
0
 10
-45.043777855623276
 20
-58.859442613439555
 11
-45.29915863319931
 21
-59.86308490856189
  0
LINE
  8
0
 10
-45.29915863319931
 20
-59.86308490856189
 11
-44.489383265277176
 21
-60.529987781420594
  0
LINE
  8
0
 10
-44.489383265277176
 20
-60.529987781420594
 11
-43.61115788674392
 21
-61.103761057916415
  0
LINE
  8
0
 10
-43.61115788674392
 20
-61.103761057916415
 11
-42.72951160476319
 21
-60.56042227639087
  0
LINE
  8
0
 10
-42.72951160476319
 20
-60.56042227639087
 11
-41.91629269709767
 21
-60.017049695433656
  0
LINE
  8
0
 10
-41.91629269709767
 20
-60.017049695433656
 11
-41.19873436454112
 21
-59.49848017628042
  0
LINE
  8
0
 10
-41.19873436454112
 20
-59.49848017628042
 11
-40.573815043901604
 21
-59.01093515441063
  0
LINE
  8
0
 10
-40.573815043901604
 20
-59.01093515441063
 11
-40.038187975915314
 21
-58.560443873664326
  0
LINE
  8
0
 10
-40.038187975915314
 20
-58.560443873664326
 11
-39.533178242003046
 21
-58.10299600044122
  0
LINE
  8
0
 10
-39.533178242003046
 20
-58.10299600044122
 11
-39.35642037577709
 21
-57.987040515779015
  0
LINE
  8
0
 10
-39.35642037577709
 20
-57.987040515779015
 11
-39.22759506632116
 21
-57.96065101894923
  0
LINE
  8
0
 10
-39.22759506632116
 20
-57.96065101894923
 11
-37.321272740435774
 21
-59.20611355478165
  0
LINE
  8
0
 10
-37.321272740435774
 20
-59.20611355478165
 11
-37.29369100034678
 21
-59.334688877115276
  0
LINE
  8
0
 10
-37.29369100034678
 20
-59.334688877115276
 11
-37.328877114149094
 21
-59.54313780393262
  0
LINE
  8
0
 10
-37.328877114149094
 20
-59.54313780393262
 11
-37.54493557526135
 21
-60.189366965642726
  0
LINE
  8
0
 10
-37.54493557526135
 20
-60.189366965642726
 11
-37.74232453152977
 21
-60.860840233860735
  0
LINE
  8
0
 10
-37.74232453152977
 20
-60.860840233860735
 11
-37.937778026223356
 21
-61.628969283611085
  0
LINE
  8
0
 10
-37.937778026223356
 20
-61.628969283611085
 11
-38.12443026077171
 21
-62.49439706809236
  0
LINE
  8
0
 10
-38.12443026077171
 20
-62.49439706809236
 11
-38.29537006239131
 21
-63.45739153208257
  0
LINE
  8
0
 10
-38.29537006239131
 20
-63.45739153208257
 11
-38.438791948220626
 21
-64.48303638327567
  0
LINE
  8
0
 10
-38.438791948220626
 20
-64.48303638327567
 11
-37.56056656968729
 21
-65.05680965977152
  0
LINE
  8
0
 10
-37.56056656968729
 20
-65.05680965977152
 11
-36.6245516469626
 21
-65.53048850958153
  0
LINE
  8
0
 10
-36.6245516469626
 20
-65.53048850958153
 11
-35.80802809351143
 21
-64.89345908742011
  0
LINE
  8
0
 10
-35.80802809351143
 20
-64.89345908742011
 11
-35.05952032477573
 21
-64.26392364468228
  0
LINE
  8
0
 10
-35.05952032477573
 20
-64.26392364468228
 11
-34.40336399554647
 21
-63.66956417564983
  0
LINE
  8
0
 10
-34.40336399554647
 20
-63.66956417564983
 11
-33.835871472424586
 21
-63.116231959111424
  0
LINE
  8
0
 10
-33.835871472424586
 20
-63.116231959111424
 11
-33.35305304231939
 21
-62.60955147444796
  0
LINE
  8
0
 10
-33.35305304231939
 20
-62.60955147444796
 11
-32.90143140217061
 21
-62.09932477756529
  0
LINE
  8
0
 10
-32.90143140217061
 20
-62.09932477756529
 11
-32.73850239305356
 21
-61.96462824574603
  0
LINE
  8
0
 10
-32.73850239305356
 20
-61.96462824574603
 11
-32.6133620275695
 21
-61.92422707217565
  0
LINE
  8
0
 10
-32.6133620275695
 20
-61.92422707217565
 11
-30.581598669134223
 21
-62.95241936627775
  0
LINE
  8
0
 10
-30.581598669134223
 20
-62.95241936627775
 11
-30.540039989052303
 21
-63.077180105332076
  0
LINE
  8
0
 10
-30.540039989052303
 20
-63.077180105332076
 11
-30.552081451368718
 21
-63.28823465013292
  0
LINE
  8
0
 10
-30.552081451368718
 20
-63.28823465013292
 11
-30.695738063528072
 21
-63.95430984547175
  0
LINE
  8
0
 10
-30.695738063528072
 20
-63.95430984547175
 11
-30.818061422845282
 21
-64.64342213367553
  0
LINE
  8
0
 10
-30.818061422845282
 20
-64.64342213367553
 11
-30.927828136953327
 21
-65.4283906515998
  0
LINE
  8
0
 10
-30.927828136953327
 20
-65.4283906515998
 11
-31.018143347891247
 21
-66.30909915586629
  0
LINE
  8
0
 10
-31.018143347891247
 20
-66.30909915586629
 11
-31.082108352884898
 21
-67.28505367918677
  0
LINE
  8
0
 10
-31.082108352884898
 20
-67.28505367918677
 11
-31.1118303995579
 21
-68.32025114733239
  0
LINE
  8
0
 10
-31.1118303995579
 20
-68.32025114733239
 11
-30.175815476833264
 21
-68.7939299971425
  0
LINE
  8
0
 10
-30.175815476833264
 20
-68.7939299971425
 11
-29.19337296311977
 21
-69.16176460069266
  0
LINE
  8
0
 10
-29.19337296311977
 20
-69.16176460069266
 11
-28.451883628044826
 21
-68.43877721213732
  0
LINE
  8
0
 10
-28.451883628044826
 20
-68.43877721213732
 11
-27.777172868595922
 21
-67.73072061510238
  0
LINE
  8
0
 10
-27.777172868595922
 20
-67.73072061510238
 11
-27.190383391677866
 21
-67.06778591500411
  0
LINE
  8
0
 10
-27.190383391677866
 20
-67.06778591500411
 11
-26.687206256558557
 21
-66.45538320734217
  0
LINE
  8
0
 10
-26.687206256558557
 20
-66.45538320734217
 11
-26.263057226032757
 21
-65.8986639334778
  0
LINE
  8
0
 10
-26.263057226032757
 20
-65.8986639334778
 11
-25.870305754575984
 21
-65.34185187386433
  0
LINE
  8
0
 10
-25.870305754575984
 20
-65.34185187386433
 11
-25.723183340029042
 21
-65.19004932831952
  0
LINE
  8
0
 10
-25.723183340029042
 20
-65.19004932831952
 11
-25.603246953034212
 21
-65.13612689352682
  0
LINE
  8
0
 10
-25.603246953034212
 20
-65.13612689352682
 11
-23.47070541692084
 21
-65.9345680842744
  0
LINE
  8
0
 10
-23.47070541692084
 20
-65.9345680842744
 11
-23.415674262925307
 21
-66.0539998136827
  0
LINE
  8
0
 10
-23.415674262925307
 20
-66.0539998136827
 11
-23.404424906715107
 21
-66.26509806019523
  0
LINE
  8
0
 10
-23.404424906715107
 20
-66.26509806019523
 11
-23.47393587325234
 21
-66.9429340385807
  0
LINE
  8
0
 10
-23.47393587325234
 20
-66.9429340385807
 11
-23.51970879573985
 21
-67.64132045708772
  0
LINE
  8
0
 10
-23.51970879573985
 20
-67.64132045708772
 11
-23.54245631004701
 21
-68.43359998872486
  0
LINE
  8
0
 10
-23.54245631004701
 20
-68.43359998872486
 11
-23.535338193057942
 21
-69.31889860457412
  0
LINE
  8
0
 10
-23.535338193057942
 20
-69.31889860457412
 11
-23.491551952914318
 21
-70.29596642137477
  0
LINE
  8
0
 10
-23.491551952914318
 20
-70.29596642137477
 11
-23.40721337504704
 21
-71.32815061152546
  0
LINE
  8
0
 10
-23.40721337504704
 20
-71.32815061152546
 11
-22.424770861333513
 21
-71.69598521507557
  0
LINE
  8
0
 10
-22.424770861333513
 20
-71.69598521507557
 11
-21.40782627789566
 21
-71.9535105585605
  0
LINE
  8
0
 10
-21.40782627789566
 20
-71.9535105585605
 11
-20.75037183727671
 21
-71.15334129112368
  0
LINE
  8
0
 10
-20.75037183727671
 20
-71.15334129112368
 11
-20.157648161746884
 21
-70.37535838772077
  0
LINE
  8
0
 10
-20.157648161746884
 20
-70.37535838772077
 11
-19.64734836650373
 21
-69.65189558578072
  0
LINE
  8
0
 10
-19.64734836650373
 20
-69.65189558578072
 11
-19.21459450818554
 21
-68.98785612628356
  0
LINE
  8
0
 10
-19.21459450818554
 20
-68.98785612628356
 11
-18.85426347190221
 21
-68.3878558810511
  0
LINE
  8
0
 10
-18.85426347190221
 20
-68.3878558810511
 11
-18.525149639965694
 21
-67.79121740283287
  0
LINE
  8
0
 10
-18.525149639965694
 20
-67.79121740283287
 11
-18.395619686804157
 21
-67.62415152082829
  0
LINE
  8
0
 10
-18.395619686804157
 20
-67.62415152082829
 11
-18.28234314356653
 21
-67.55736237012641
  0
LINE
  8
0
 10
-18.28234314356653
 20
-67.55736237012641
 11
-16.07490959520617
 21
-68.11636046306089
  0
LINE
  8
0
 10
-16.07490959520617
 20
-68.11636046306089
 11
-16.00707397095935
 21
-68.2290134434146
  0
LINE
  8
0
 10
-16.00707397095935
 20
-68.2290134434146
 11
-15.972670348168139
 21
-68.43759294488743
  0
LINE
  8
0
 10
-15.972670348168139
 20
-68.43759294488743
 11
-15.967191900111551
 21
-69.11896169576292
  0
LINE
  8
0
 10
-15.967191900111551
 20
-69.11896169576292
 11
-15.935858764495997
 21
-69.81814477951181
  0
LINE
  8
0
 10
-15.935858764495997
 20
-69.81814477951181
 11
-15.871310954993191
 21
-70.60811812459802
  0
LINE
  8
0
 10
-15.871310954993191
 20
-70.60811812459802
 11
-15.76684591437492
 21
-71.4872605260909
  0
LINE
  8
0
 10
-15.76684591437492
 20
-71.4872605260909
 11
-15.615839934734952
 21
-72.45358135664695
  0
LINE
  8
0
 10
-15.615839934734952
 20
-72.45358135664695
 11
-15.418464488414623
 21
-73.47022295096801
  0
LINE
  8
0
 10
-15.418464488414623
 20
-73.47022295096801
 11
-14.401519904976844
 21
-73.72774829445297
  0
LINE
  8
0
 10
-14.401519904976844
 20
-73.72774829445297
 11
-13.36241758146796
 21
-73.8718383690559
  0
LINE
  8
0
 10
-13.36241758146796
 20
-73.8718383690559
 11
-12.796978641602726
 21
-73.00420019370621
  0
LINE
  8
0
 10
-12.796978641602726
 20
-73.00420019370621
 11
-12.293436912488147
 21
-72.16573464249907
  0
LINE
  8
0
 10
-12.293436912488147
 20
-72.16573464249907
 11
-11.865821147163722
 21
-71.39052559710412
  0
LINE
  8
0
 10
-11.865821147163722
 20
-71.39052559710412
 11
-11.508743611262721
 21
-70.68290992527837
  0
LINE
  8
0
 10
-11.508743611262721
 20
-70.68290992527837
 11
-11.216604499884987
 21
-70.04691189887303
  0
LINE
  8
0
 10
-11.216604499884987
 20
-70.04691189887303
 11
-10.955123303559017
 21
-69.41768938494778
  0
LINE
  8
0
 10
-10.955123303559017
 20
-69.41768938494778
 11
-10.844758129948339
 21
-69.23738811997748
  0
LINE
  8
0
 10
-10.844758129948339
 20
-69.23738811997748
 11
-10.739516454254346
 21
-69.15854298318094
  0
LINE
  8
0
 10
-10.739516454254346
 20
-69.15854298318094
 11
-8.483986146655369
 21
-69.47131249869297
  0
LINE
  8
0
 10
-8.483986146655369
 20
-69.47131249869297
 11
-8.404169484743045
 21
-69.57581927541443
  0
LINE
  8
0
 10
-8.404169484743045
 20
-69.57581927541443
 11
-8.347029208747127
 21
-69.77934815924893
  0
LINE
  8
0
 10
-8.347029208747127
 20
-69.77934815924893
 11
-8.266627847034824
 21
-70.45597878898539
  0
LINE
  8
0
 10
-8.266627847034824
 20
-70.45597878898539
 11
-8.15856899513759
 21
-71.14747140247793
  0
LINE
  8
0
 10
-8.15856899513759
 20
-71.14747140247793
 11
-8.007509384793403
 21
-71.92554935473014
  0
LINE
  8
0
 10
-8.007509384793403
 20
-71.92554935473014
 11
-7.806965484626942
 21
-72.7878639440304
  0
LINE
  8
0
 10
-7.806965484626942
 20
-72.7878639440304
 11
-7.550572773525336
 21
-73.73170796247176
  0
LINE
  8
0
 10
-7.550572773525336
 20
-73.73170796247176
 11
-7.242556329298395
 21
-74.72046630918724
  0
LINE
  8
0
 10
-7.242556329298395
 20
-74.72046630918724
 11
-6.203454005789525
 21
-74.86455638379023
  0
LINE
  8
0
 10
-6.203454005789525
 20
-74.86455638379023
 11
-5.154807236811713
 21
-74.89346213119511
  0
LINE
  8
0
 10
-5.154807236811713
 20
-74.89346213119511
 11
-4.688247460466289
 21
-73.96888700004754
  0
LINE
  8
0
 10
-4.688247460466289
 20
-73.96888700004754
 11
-4.2799999922427
 21
-73.08011663701228
  0
LINE
  8
0
 10
-4.2799999922427
 20
-73.08011663701228
 11
-3.940258932964381
 21
-72.26257133584751
  0
LINE
  8
0
 10
-3.940258932964381
 20
-72.26257133584751
 11
-3.663192157056355
 21
-71.51996894738751
  0
LINE
  8
0
 10
-3.663192157056355
 20
-71.51996894738751
 11
-3.4427911436542162
 21
-70.85569329430415
  0
LINE
  8
0
 10
-3.4427911436542162
 20
-70.85569329430415
 11
-3.2521166104503756
 21
-70.20152465362348
  0
LINE
  8
0
 10
-3.2521166104503756
 20
-70.20152465362348
 11
-3.162255900093566
 21
-70.01017661880167
  0
LINE
  8
0
 10
-3.162255900093566
 20
-70.01017661880167
 11
-3.0663265833219837
 21
-69.92023256906471
  0
LINE
  8
0
 10
-3.0663265833219837
 20
-69.92023256906471
 11
-0.790078598996309
 21
-69.98297690892481
  0
LINE
  8
0
 10
-0.790078598996309
 20
-69.98297690892481
 11
-0.6992497655715834
 21
-70.07806891131321
  0
LINE
  8
0
 10
-0.6992497655715834
 20
-70.07806891131321
 11
-0.620066441917282
 21
-70.27407661256719
  0
LINE
  8
0
 10
-0.620066441917282
 20
-70.27407661256719
 11
-0.4657181301658754
 21
-70.93775574190774
  0
LINE
  8
0
 10
-0.4657181301658754
 20
-70.93775574190774
 11
-0.2822452500685964
 21
-71.61316410153688
  0
LINE
  8
0
 10
-0.2822452500685964
 20
-71.61316410153688
 11
-0.04650749792183207
 21
-72.36990184862705
  0
LINE
  8
0
 10
-0.04650749792183207
 20
-72.36990184862705
 11
0.24768093050876352
 21
-73.20492129474289
  0
LINE
  8
0
 10
0.24768093050876352
 20
-73.20492129474289
 11
0.6063481128780038
 21
-74.11483151325064
  0
LINE
  8
0
 10
0.6063481128780038
 20
-74.11483151325064
 11
1.021266652628773
 21
-75.06370442543896
  0
LINE
  8
0
 10
1.021266652628773
 20
-75.06370442543896
 11
2.0699134216066457
 21
-75.09261017284386
  0
LINE
  8
0
 10
2.0699134216066457
 20
-75.09261017284386
 11
3.115375484812555
 21
-75.00598071643405
  0
LINE
  8
0
 10
3.115375484812555
 20
-75.00598071643405
 11
3.47739269397196
 21
-74.03569171911803
  0
LINE
  8
0
 10
3.47739269397196
 20
-74.03569171911803
 11
3.7853903300669973
 21
-73.10740501250164
  0
LINE
  8
0
 10
3.7853903300669973
 20
-73.10740501250164
 11
4.0331326870650095
 21
-72.257447348047
  0
LINE
  8
0
 10
4.0331326870650095
 20
-72.257447348047
 11
4.226825487645136
 21
-71.48887242999282
  0
LINE
  8
0
 10
4.226825487645136
 20
-71.48887242999282
 11
4.372813033332102
 21
-70.80438255680818
  0
LINE
  8
0
 10
4.372813033332102
 20
-70.80438255680818
 11
4.490366372875284
 21
-70.13320851050966
  0
LINE
  8
0
 10
4.490366372875284
 20
-70.13320851050966
 11
4.558631832683038
 21
-69.93313641177213
  0
LINE
  8
0
 10
4.558631832683038
 20
-69.93313641177213
 11
4.6440843385759
 21
-69.83318524801714
  0
LINE
  8
0
 10
4.6440843385759
 20
-69.83318524801714
 11
6.913419432585791
 21
-69.64514278093513
  0
LINE
  8
0
 10
6.913419432585791
 20
-69.64514278093513
 11
7.014157898525144
 21
-69.72966572089653
  0
LINE
  8
0
 10
7.014157898525144
 20
-69.72966572089653
 11
7.114423091553238
 21
-69.91577297159583
  0
LINE
  8
0
 10
7.114423091553238
 20
-69.91577297159583
 11
7.34084477392485
 21
-70.55844443495386
  0
LINE
  8
0
 10
7.34084477392485
 20
-70.55844443495386
 11
7.597504569996743
 21
-71.20956999816609
  0
LINE
  8
0
 10
7.597504569996743
 20
-71.20956999816609
 11
7.915058926973846
 21
-71.93578176894866
  0
LINE
  8
0
 10
7.915058926973846
 20
-71.93578176894866
 11
8.299320834665638
 21
-72.73337006695154
  0
LINE
  8
0
 10
8.299320834665638
 20
-72.73337006695154
 11
8.75590875457199
 21
-73.59830140807009
  0
LINE
  8
0
 10
8.75590875457199
 20
-73.59830140807009
 11
9.27269284083756
 21
-74.49577085395468
  0
LINE
  8
0
 10
9.27269284083756
 20
-74.49577085395468
 11
10.318154904043402
 21
-74.40914139754479
  0
LINE
  8
0
 10
10.318154904043402
 20
-74.40914139754479
 11
11.347741768250534
 21
-74.20802830156951
  0
LINE
  8
0
 10
11.347741768250534
 20
-74.20802830156951
 11
11.60082201170624
 21
-73.20380343212423
  0
LINE
  8
0
 10
11.60082201170624
 20
-73.20380343212423
 11
11.804831141595187
 21
-72.24726852505457
  0
LINE
  8
0
 10
11.804831141595187
 20
-72.24726852505457
 11
11.957567539699628
 21
-71.37521583197334
  0
LINE
  8
0
 10
11.957567539699628
 20
-71.37521583197334
 11
12.065535196736032
 21
-70.58999784269098
  0
LINE
  8
0
 10
12.065535196736032
 20
-70.58999784269098
 11
12.13533718366316
 21
-69.89360252923098
  0
LINE
  8
0
 10
12.13533718366316
 20
-69.89360252923098
 11
12.178342391245604
 21
-69.2135702210402
  0
LINE
  8
0
 10
12.178342391245604
 20
-69.2135702210402
 11
12.224183950297078
 21
-69.0072026626408
  0
LINE
  8
0
 10
12.224183950297078
 20
-69.0072026626408
 11
12.298122367646716
 21
-68.89845765659832
  0
LINE
  8
0
 10
12.298122367646716
 20
-68.89845765659832
 11
14.532997917422326
 21
-68.4619109633955
  0
LINE
  8
0
 10
14.532997917422326
 20
-68.4619109633955
 11
14.642423187363743
 21
-68.53483884693658
  0
LINE
  8
0
 10
14.642423187363743
 20
-68.53483884693658
 11
14.762553166145102
 21
-68.70878655716527
  0
LINE
  8
0
 10
14.762553166145102
 20
-68.70878655716527
 11
15.058299766631864
 21
-69.32264919356143
  0
LINE
  8
0
 10
15.058299766631864
 20
-69.32264919356143
 11
15.385030976434631
 21
-69.94158817805743
  0
LINE
  8
0
 10
15.385030976434631
 20
-69.94158817805743
 11
15.7805472585189
 21
-70.62845874538765
  0
LINE
  8
0
 10
15.7805472585189
 20
-70.62845874538765
 11
16.250218226447483
 21
-71.37893425378157
  0
LINE
  8
0
 10
16.250218226447483
 20
-71.37893425378157
 11
16.799184525053672
 21
-72.18838762269675
  0
LINE
  8
0
 10
16.799184525053672
 20
-72.18838762269675
 11
17.41156109908106
 21
-73.02355953894889
  0
LINE
  8
0
 10
17.41156109908106
 20
-73.02355953894889
 11
18.441147963288255
 21
-72.82244644297363
  0
LINE
  8
0
 10
18.441147963288255
 20
-72.82244644297363
 11
19.442361838680444
 21
-72.50929094798306
  0
LINE
  8
0
 10
19.442361838680444
 20
-72.50929094798306
 11
19.583433065108487
 21
-71.4833201359645
  0
LINE
  8
0
 10
19.583433065108487
 20
-71.4833201359645
 11
19.68097729431258
 21
-70.51014806645686
  0
LINE
  8
0
 10
19.68097729431258
 20
-70.51014806645686
 11
19.73685372055267
 21
-69.62658588312917
  0
LINE
  8
0
 10
19.73685372055267
 20
-69.62658588312917
 11
19.757785652945795
 21
-68.83425630532406
  0
LINE
  8
0
 10
19.757785652945795
 20
-68.83425630532406
 11
19.750554779548064
 21
-68.134408847332
  0
LINE
  8
0
 10
19.750554779548064
 20
-68.134408847332
 11
19.718489830206114
 21
-67.45377294827422
  0
LINE
  8
0
 10
19.718489830206114
 20
-67.45377294827422
 11
19.741351034073045
 21
-67.243614952819
  0
LINE
  8
0
 10
19.741351034073045
 20
-67.243614952819
 11
19.802877850652465
 21
-67.12739612155251
  0
LINE
  8
0
 10
19.802877850652465
 20
-67.12739612155251
 11
21.976165494462176
 21
-66.44764428772253
  0
LINE
  8
0
 10
21.976165494462176
 20
-66.44764428772253
 11
22.092949293859963
 21
-66.50809186912784
  0
LINE
  8
0
 10
22.092949293859963
 20
-66.50809186912784
 11
22.23148584318456
 21
-66.66776854931955
  0
LINE
  8
0
 10
22.23148584318456
 20
-66.66776854931955
 11
22.592967398685527
 21
-67.24537089790839
  0
LINE
  8
0
 10
22.592967398685527
 20
-67.24537089790839
 11
22.985803947933995
 21
-67.82461022285332
  0
LINE
  8
0
 10
22.985803947933995
 20
-67.82461022285332
 11
23.454481123241482
 21
-68.46380190850333
  0
LINE
  8
0
 10
23.454481123241482
 20
-68.46380190850333
 11
24.003859982089356
 21
-69.15805487123743
  0
LINE
  8
0
 10
24.003859982089356
 20
-69.15805487123743
 11
24.638540952179756
 21
-69.90220460056523
  0
LINE
  8
0
 10
24.638540952179756
 20
-69.90220460056523
 11
25.339076591907528
 21
-70.66494113147536
  0
LINE
  8
0
 10
25.339076591907528
 20
-70.66494113147536
 11
26.340290467299738
 21
-70.35178563648486
  0
LINE
  8
0
 10
26.340290467299738
 20
-70.35178563648486
 11
27.30097797371004
 21
-69.9303890259767
  0
LINE
  8
0
 10
27.30097797371004
 20
-69.9303890259767
 11
27.328327769521707
 21
-68.8951261672258
  0
LINE
  8
0
 10
27.328327769521707
 20
-68.8951261672258
 11
27.318223043235324
 21
-67.91712992591017
  0
LINE
  8
0
 10
27.318223043235324
 20
-67.91712992591017
 11
27.276561233488724
 21
-67.03278350033658
  0
LINE
  8
0
 10
27.276561233488724
 20
-67.03278350033658
 11
27.210203355934464
 21
-66.24296014176517
  0
LINE
  8
0
 10
27.210203355934464
 20
-66.24296014176517
 11
27.12602739521972
 21
-65.54815573934259
  0
LINE
  8
0
 10
27.12602739521972
 20
-65.54815573934259
 11
27.019281514002063
 21
-64.87517824721856
  0
LINE
  8
0
 10
27.019281514002063
 20
-64.87517824721856
 11
27.018884858638113
 21
-64.66378084808478
  0
LINE
  8
0
 10
27.018884858638113
 20
-64.66378084808478
 11
27.067253222240474
 21
-64.54149893077165
  0
LINE
  8
0
 10
27.067253222240474
 20
-64.54149893077165
 11
29.15257219210189
 21
-63.62679322276098
  0
LINE
  8
0
 10
29.15257219210189
 20
-63.62679322276098
 11
29.27529692383089
 21
-63.6740267502767
  0
LINE
  8
0
 10
29.27529692383089
 20
-63.6740267502767
 11
29.430558397656505
 21
-63.81749414183768
  0
LINE
  8
0
 10
29.430558397656505
 20
-63.81749414183768
 11
29.85338701176379
 21
-64.35182489254818
  0
LINE
  8
0
 10
29.85338701176379
 20
-64.35182489254818
 11
30.307560396900566
 21
-64.88433337719562
  0
LINE
  8
0
 10
30.307560396900566
 20
-64.88433337719562
 11
30.843709359409967
 21
-65.46808725997363
  0
LINE
  8
0
 10
30.843709359409967
 20
-65.46808725997363
 11
31.466127394039038
 21
-66.09769038654031
  0
LINE
  8
0
 10
31.466127394039038
 20
-66.09769038654031
 11
32.178818868398395
 21
-66.76750350661862
  0
LINE
  8
0
 10
32.178818868398395
 20
-66.76750350661862
 11
32.959010020131025
 21
-67.44854606393191
  0
LINE
  8
0
 10
32.959010020131025
 20
-67.44854606393191
 11
33.91969752654124
 21
-67.02714945342372
  0
LINE
  8
0
 10
33.91969752654124
 20
-67.02714945342372
 11
34.828197219023565
 21
-66.50262691141036
  0
LINE
  8
0
 10
34.828197219023565
 20
-66.50262691141036
 11
34.741493594746736
 21
-65.47063869462818
  0
LINE
  8
0
 10
34.741493594746736
 20
-65.47063869462818
 11
34.62386257065878
 21
-64.49968983104532
  0
LINE
  8
0
 10
34.62386257065878
 20
-64.49968983104532
 11
34.48516824285922
 21
-63.62529393086487
  0
LINE
  8
0
 10
34.48516824285922
 20
-63.62529393086487
 11
34.33232605010032
 21
-62.847564177177134
  0
LINE
  8
0
 10
34.33232605010032
 20
-62.847564177177134
 11
34.172226784203865
 21
-62.16623681456246
  0
LINE
  8
0
 10
34.172226784203865
 20
-62.16623681456246
 11
33.99209572150668
 21
-61.50908676448709
  0
LINE
  8
0
 10
33.99209572150668
 20
-61.50908676448709
 11
33.96844602177064
 21
-61.299016039733736
  0
LINE
  8
0
 10
33.96844602177064
 20
-61.299016039733736
 11
34.00306880598333
 21
-61.17215537320267
  0
LINE
  8
0
 10
34.00306880598333
 20
-61.17215537320267
 11
35.97510615445028
 21
-60.033599079213374
  0
LINE
  8
0
 10
35.97510615445028
 20
-60.033599079213374
 11
36.10228210651463
 21
-60.06704520179971
  0
LINE
  8
0
 10
36.10228210651463
 20
-60.06704520179971
 11
36.27238384087179
 21
-60.192561804942464
  0
LINE
  8
0
 10
36.27238384087179
 20
-60.192561804942464
 11
36.75142694698894
 21
-60.677134906284635
  0
LINE
  8
0
 10
36.75142694698894
 20
-60.677134906284635
 11
37.26142411835805
 21
-61.15644861898607
  0
LINE
  8
0
 10
37.26142411835805
 20
-61.15644861898607
 11
37.85853674595112
 21
-61.67767871752912
  0
LINE
  8
0
 10
37.85853674595112
 20
-61.67767871752912
 11
38.54643864457082
 21
-62.234989478854864
  0
LINE
  8
0
 10
38.54643864457082
 20
-62.234989478854864
 11
39.328489514137836
 21
-62.82233536575883
  0
LINE
  8
0
 10
39.328489514137836
 20
-62.82233536575883
 11
40.17886571416821
 21
-63.41341701539414
  0
LINE
  8
0
 10
40.17886571416821
 20
-63.41341701539414
 11
41.08736540665053
 21
-62.88889447338078
  0
LINE
  8
0
 10
41.08736540665053
 20
-62.88889447338078
 11
41.93264932962444
 21
-62.267612992985256
  0
LINE
  8
0
 10
41.93264932962444
 20
-62.267612992985256
 11
41.732944749805995
 21
-61.25142635715524
  0
LINE
  8
0
 10
41.732944749805995
 20
-61.25142635715524
 11
41.50921530920168
 21
-60.29931087522688
  0
LINE
  8
0
 10
41.50921530920168
 20
-60.29931087522688
 11
41.27517202460833
 21
-59.445479482179685
  0
LINE
  8
0
 10
41.27517202460833
 20
-59.445479482179685
 11
41.03770081381937
 21
-58.68928391904474
  0
LINE
  8
0
 10
41.03770081381937
 20
-58.68928391904474
 11
40.803621630952975
 21
-58.029703987469624
  0
LINE
  8
0
 10
40.803621630952975
 20
-58.029703987469624
 11
40.55229193386539
 21
-57.39635829085177
  0
LINE
  8
0
 10
40.55229193386539
 20
-57.39635829085177
 11
40.50567626507534
 21
-57.190164214508
  0
LINE
  8
0
 10
40.50567626507534
 20
-57.190164214508
 11
40.52613319619928
 21
-57.06026471540068
  0
LINE
  8
0
 10
40.52613319619928
 20
-57.06026471540068
 11
42.36095106125395
 21
-55.71167836651255
  0
LINE
  8
0
 10
42.36095106125395
 20
-55.71167836651255
 11
42.49103448987269
 21
-55.73093109354862
  0
LINE
  8
0
 10
42.49103448987269
 20
-55.73093109354862
 11
42.67391168013222
 21
-55.83697330674031
  0
LINE
  8
0
 10
42.67391168013222
 20
-55.83697330674031
 11
43.20335434387998
 21
-56.26590669768396
  0
LINE
  8
0
 10
43.20335434387998
 20
-56.26590669768396
 11
43.76298462668146
 21
-56.68620741926275
  0
LINE
  8
0
 10
43.76298462668146
 20
-56.68620741926275
 11
44.41381278092943
 21
-57.13858670625153
  0
LINE
  8
0
 10
44.41381278092943
 20
-57.13858670625153
 11
45.15884834634711
 21
-57.61684010464701
  0
LINE
  8
0
 10
45.15884834634711
 20
-57.61684010464701
 11
46.00076557295945
 21
-58.114589174949444
  0
LINE
  8
0
 10
46.00076557295945
 20
-58.114589174949444
 11
46.9110044061693
 21
-58.60853498638062
  0
LINE
  8
0
 10
46.9110044061693
 20
-58.60853498638062
 11
47.756288329143224
 21
-57.98725350598509
  0
LINE
  8
0
 10
47.756288329143224
 20
-57.98725350598509
 11
48.528095880835814
 21
-57.27675460276925
  0
LINE
  8
0
 10
48.528095880835814
 20
-57.27675460276925
 11
48.217814488547745
 21
-56.28870467708745
  0
LINE
  8
0
 10
48.217814488547745
 20
-56.28870467708745
 11
47.89070240376406
 21
-55.366979968994364
  0
LINE
  8
0
 10
47.89070240376406
 20
-55.366979968994364
 11
47.56415113080847
 21
-54.54407743956137
  0
LINE
  8
0
 10
47.56415113080847
 20
-54.54407743956137
 11
47.244933480801386
 21
-53.81859525674602
  0
LINE
  8
0
 10
47.244933480801386
 20
-53.81859525674602
 11
46.939715785152984
 21
-53.18876916308912
  0
LINE
  8
0
 10
46.939715785152984
 20
-53.18876916308912
 11
46.62023825573742
 21
-52.58691577873292
  0
LINE
  8
0
 10
46.62023825573742
 20
-52.58691577873292
 11
46.5512224689652
 21
-52.38710126756765
  0
LINE
  8
0
 10
46.5512224689652
 20
-52.38710126756765
 11
46.55726522756825
 21
-52.2557397398367
  0
LINE
  8
0
 10
46.55726522756825
 20
-52.2557397398367
 11
48.232591405839024
 21
-50.713493347481766
  0
LINE
  8
0
 10
48.232591405839024
 20
-50.713493347481766
 11
48.36400327440442
 21
-50.71831897694179
  0
LINE
  8
0
 10
48.36400327440442
 20
-50.71831897694179
 11
48.55743603920857
 21
-50.80359959136285
  0
LINE
  8
0
 10
48.55743603920857
 20
-50.80359959136285
 11
49.130851543851065
 21
-51.1716866015905
  0
LINE
  8
0
 10
49.130851543851065
 20
-51.1716866015905
 11
49.73332178454699
 21
-51.52787245064112
  0
LINE
  8
0
 10
49.73332178454699
 20
-51.52787245064112
 11
50.42996529329247
 21
-51.90590965434082
  0
LINE
  8
0
 10
50.42996529329247
 20
-51.90590965434082
 11
51.223090802995884
 21
-52.29930034140873
  0
LINE
  8
0
 10
51.223090802995884
 20
-52.29930034140873
 11
52.11465465201376
 21
-52.70141059566491
  0
LINE
  8
0
 10
52.11465465201376
 20
-52.70141059566491
 11
53.07370705201021
 21
-53.09222473585796
  0
LINE
  8
0
 10
53.07370705201021
 20
-53.09222473585796
 11
53.84551460370281
 21
-52.38172583264205
  0
LINE
  8
0
 10
53.84551460370281
 20
-52.38172583264205
 11
54.53447708595464
 21
-51.5906340008235
  0
LINE
  8
0
 10
54.53447708595464
 20
-51.5906340008235
 11
54.11738527698104
 21
-50.64271437293984
  0
LINE
  8
0
 10
54.11738527698104
 20
-50.64271437293984
 11
53.690861245609504
 21
-49.762568928036906
  0
LINE
  8
0
 10
53.690861245609504
 20
-49.762568928036906
 11
53.27576587438726
 21
-48.98058418419211
  0
LINE
  8
0
 10
53.27576587438726
 20
-48.98058418419211
 11
52.878676655009464
 21
-48.29462175263154
  0
LINE
  8
0
 10
52.878676655009464
 20
-48.29462175263154
 11
52.50602537594537
 21
-47.702194732484806
  0
LINE
  8
0
 10
52.50602537594537
 20
-47.702194732484806
 11
52.122278038633205
 21
-47.139139345184134
  0
LINE
  8
0
 10
52.122278038633205
 20
-47.139139345184134
 11
52.031699892038965
 21
-46.948129876687005
  0
LINE
  8
0
 10
52.031699892038965
 20
-46.948129876687005
 11
52.023255127217425
 21
-46.816900871332045
  0
LINE
  8
0
 10
52.023255127217425
 20
-46.816900871332045
 11
53.51875342835708
 21
-45.09971521753116
  0
LINE
  8
0
 10
53.51875342835708
 20
-45.09971521753116
 11
53.64989857479998
 21
-45.09005517281046
  0
LINE
  8
0
 10
53.64989857479998
 20
-45.09005517281046
 11
53.85153890241498
 21
-45.15353899732601
  0
LINE
  8
0
 10
53.85153890241498
 20
-45.15353899732601
 11
54.46196676049509
 21
-45.45631154915737
  0
LINE
  8
0
 10
54.46196676049509
 20
-45.45631154915737
 11
55.099963786491216
 21
-45.74405891197449
  0
LINE
  8
0
 10
55.099963786491216
 20
-45.74405891197449
 11
55.83396634123635
 21
-46.04316517283494
  0
LINE
  8
0
 10
55.83396634123635
 20
-46.04316517283494
 11
56.66555432593399
 21
-46.34691791853543
  0
LINE
  8
0
 10
56.66555432593399
 20
-46.34691791853543
 11
57.59594241997472
 21
-46.64850828297168
  0
LINE
  8
0
 10
57.59594241997472
 20
-46.64850828297168
 11
58.592166789788536
 21
-46.93144679767547
  0
LINE
  8
0
 10
58.592166789788536
 20
-46.93144679767547
 11
59.28112927204037
 21
-46.14035496585701
  0
LINE
  8
0
 10
59.28112927204037
 20
-46.14035496585701
 11
59.87888361361037
 21
-45.278272988632764
  0
LINE
  8
0
 10
59.87888361361037
 20
-45.278272988632764
 11
59.36004431750456
 21
-44.38199011874372
  0
LINE
  8
0
 10
59.36004431750456
 20
-44.38199011874372
 11
58.83928576350125
 21
-43.554107710455455
  0
LINE
  8
0
 10
58.83928576350125
 20
-43.554107710455455
 11
58.34068498951591
 21
-42.82253298768452
  0
LINE
  8
0
 10
58.34068498951591
 20
-42.82253298768452
 11
57.870544325979324
 21
-42.18441696206855
  0
LINE
  8
0
 10
57.870544325979324
 20
-42.18441696206855
 11
57.43498294522059
 21
-41.636580276933664
  0
LINE
  8
0
 10
57.43498294522059
 20
-41.636580276933664
 11
56.99162397284887
 21
-41.11915761635531
  0
LINE
  8
0
 10
56.99162397284887
 20
-41.11915761635531
 11
56.88058296243186
 21
-40.93927178672559
  0
LINE
  8
0
 10
56.88058296243186
 20
-40.93927178672559
 11
56.85775318219107
 21
-40.8097682461041
  0
LINE
  8
0
 10
56.85775318219107
 20
-40.8097682461041
 11
58.15527028267947
 21
-38.93848763853307
  0
LINE
  8
0
 10
58.15527028267947
 20
-38.93848763853307
 11
58.28455678257596
 21
-38.91445917948871
  0
LINE
  8
0
 10
58.28455678257596
 20
-38.91445917948871
 11
58.49195703257382
 21
-38.955375606466596
  0
LINE
  8
0
 10
58.49195703257382
 20
-38.955375606466596
 11
59.13198747680193
 21
-39.189158451269016
  0
LINE
  8
0
 10
59.13198747680193
 20
-39.189158451269016
 11
59.79776686845634
 21
-39.40497446466094
  0
LINE
  8
0
 10
59.79776686845634
 20
-39.40497446466094
 11
60.56021867249273
 21
-39.621519037855386
  0
LINE
  8
0
 10
60.56021867249273
 20
-39.621519037855386
 11
61.4201747805493
 21
-39.831946695330025
  0
LINE
  8
0
 10
61.4201747805493
 20
-39.831946695330025
 11
62.37809346848835
 21
-40.02935627146722
  0
LINE
  8
0
 10
62.37809346848835
 20
-40.02935627146722
 11
63.39939699379133
 21
-40.200984670391925
  0
LINE
  8
0
 10
63.39939699379133
 20
-40.200984670391925
 11
63.99715133536129
 21
-39.338902693167654
  0
LINE
  8
0
 10
63.99715133536129
 20
-39.338902693167654
 11
64.49644160828221
 21
-38.41629507793399
  0
LINE
  8
0
 10
64.49644160828221
 20
-38.41629507793399
 11
63.8821528312606
 21
-37.58252862594311
  0
LINE
  8
0
 10
63.8821528312606
 20
-37.58252862594311
 11
63.27348105803289
 21
-36.81695862522688
  0
LINE
  8
0
 10
63.27348105803289
 20
-36.81695862522688
 11
62.69742721925812
 21
-36.14467424964688
  0
LINE
  8
0
 10
62.69742721925812
 20
-36.14467424964688
 11
62.15994198234867
 21
-35.56215049411159
  0
LINE
  8
0
 10
62.15994198234867
 20
-35.56215049411159
 11
61.666757625030606
 21
-35.06555413922684
  0
LINE
  8
0
 10
61.666757625030606
 20
-35.06555413922684
 11
61.16916879493395
 21
-34.600045015550926
  0
LINE
  8
0
 10
61.16916879493395
 20
-34.600045015550926
 11
61.03901280814049
 21
-34.433466395080515
  0
LINE
  8
0
 10
61.03901280814049
 20
-34.433466395080515
 11
61.002075135086535
 21
-34.3072603167455
  0
LINE
  8
0
 10
61.002075135086535
 20
-34.3072603167455
 11
62.08586093498698
 21
-32.304599567076366
  0
LINE
  8
0
 10
62.08586093498698
 20
-32.304599567076366
 11
62.21171942536448
 21
-32.26649436665134
  0
LINE
  8
0
 10
62.21171942536448
 20
-32.26649436665134
 11
62.42236203966203
 21
-32.2843467260949
  0
LINE
  8
0
 10
62.42236203966203
 20
-32.2843467260949
 11
63.084225967453435
 21
-32.4463020568231
  0
LINE
  8
0
 10
63.084225967453435
 20
-32.4463020568231
 11
63.76970606484013
 21
-32.58756700673937
  0
LINE
  8
0
 10
63.76970606484013
 20
-32.58756700673937
 11
64.55135198611136
 21
-32.71892133448829
  0
LINE
  8
0
 10
64.55135198611136
 20
-32.71892133448829
 11
65.42923751530245
 21
-32.83346959702819
  0
LINE
  8
0
 10
65.42923751530245
 20
-32.83346959702819
 11
66.40305896189929
 21
-32.924302100030125
  0
LINE
  8
0
 10
66.40305896189929
 20
-32.924302100030125
 11
67.43704440138863
 21
-32.9825370469068
  0
LINE
  8
0
 10
67.43704440138863
 20
-32.9825370469068
 11
67.93633467430953
 21
-32.05992943167301
  0
LINE
  8
0
 10
67.93633467430953
 20
-32.05992943167301
 11
68.3311001710246
 21
-31.08799538508141
  0
LINE
  8
0
 10
68.3311001710246
 20
-31.08799538508141
 11
67.62881854670272
 21
-30.32686614626594
  0
LINE
  8
0
 10
67.62881854670272
 20
-30.32686614626594
 11
66.93962200504895
 21
-29.632901535861848
  0
LINE
  8
0
 10
66.93962200504895
 20
-29.632901535861848
 11
66.29310761474426
 21
-29.028068129091768
  0
LINE
  8
0
 10
66.29310761474426
 20
-29.028068129091768
 11
65.69480214714122
 21
-28.50820769292177
  0
LINE
  8
0
 10
65.69480214714122
 20
-28.50820769292177
 11
65.14998140327644
 21
-28.068879675328215
  0
LINE
  8
0
 10
65.14998140327644
 20
-28.068879675328215
 11
64.60420276980054
 21
-27.660934738720787
  0
LINE
  8
0
 10
64.60420276980054
 20
-27.660934738720787
 11
64.45651172399631
 21
-27.509685366208817
  0
LINE
  8
0
 10
64.45651172399631
 20
-27.509685366208817
 11
64.40591453144299
 21
-27.388308720987983
  0
LINE
  8
0
 10
64.40591453144299
 20
-27.388308720987983
 11
65.26281333927983
 21
-25.278577417845575
  0
LINE
  8
0
 10
65.26281333927983
 20
-25.278577417845575
 11
65.38371606855756
 21
-25.226858021554357
  0
LINE
  8
0
 10
65.38371606855756
 20
-25.226858021554357
 11
65.59504413116129
 21
-25.22142961000341
  0
LINE
  8
0
 10
65.59504413116129
 20
-25.22142961000341
 11
66.27070741101724
 21
-25.30959150833285
  0
LINE
  8
0
 10
66.27070741101724
 20
-25.30959150833285
 11
66.96756741432986
 21
-25.37459062964406
  0
LINE
  8
0
 10
66.96756741432986
 20
-25.37459062964406
 11
67.75891933019733
 21
-25.419160248345857
  0
LINE
  8
0
 10
67.75891933019733
 20
-25.419160248345857
 11
68.64407793941385
 21
-25.436438655214975
  0
LINE
  8
0
 10
68.64407793941385
 20
-25.436438655214975
 11
69.62198127148027
 21
-25.419591501540175
  0
LINE
  8
0
 10
69.62198127148027
 20
-25.419591501540175
 11
70.65609744259443
 21
-25.36372610300088
  0
LINE
  8
0
 10
70.65609744259443
 20
-25.36372610300088
 11
71.05086293930947
 21
-24.391792056409333
  0
LINE
  8
0
 10
71.05086293930947
 20
-24.391792056409333
 11
71.3363117414525
 21
-23.3823295411688
  0
LINE
  8
0
 10
71.3363117414525
 20
-23.3823295411688
 11
70.55456201741319
 21
-22.703076593434798
  0
LINE
  8
0
 10
70.55456201741319
 20
-22.703076593434798
 11
69.79320661973867
 21
-22.089141163643777
  0
LINE
  8
0
 10
69.79320661973867
 20
-22.089141163643777
 11
69.08407948681077
 21
-21.559100583912763
  0
LINE
  8
0
 10
69.08407948681077
 20
-21.559100583912763
 11
68.43221640640478
 21
-21.108213868581547
  0
LINE
  8
0
 10
68.43221640640478
 20
-21.108213868581547
 11
67.84237266179008
 21
-20.73148703528327
  0
LINE
  8
0
 10
67.84237266179008
 20
-20.73148703528327
 11
67.25502923821396
 21
-20.38605818465788
  0
LINE
  8
0
 10
67.25502923821396
 20
-20.38605818465788
 11
67.09159590262749
 21
-20.251974022598823
  0
LINE
  8
0
 10
67.09159590262749
 20
-20.251974022598823
 11
67.02795337195158
 21
-20.136900158543984
  0
LINE
  8
0
 10
67.02795337195158
 20
-20.136900158543984
 11
67.64756359698359
 21
-17.945707582030693
  0
LINE
  8
0
 10
67.64756359698359
 20
-17.945707582030693
 11
67.76204296980733
 21
-17.881001793283314
  0
LINE
  8
0
 10
67.76204296980733
 20
-17.881001793283314
 11
67.97149124430979
 21
-17.852358504300557
  0
LINE
  8
0
 10
67.97149124430979
 20
-17.852358504300557
 11
68.65275223929056
 21
-17.865656804212804
  0
LINE
  8
0
 10
68.65275223929056
 20
-17.865656804212804
 11
69.35253321208049
 21
-17.853601095636375
  0
LINE
  8
0
 10
69.35253321208049
 20
-17.853601095636375
 11
70.14398518227925
 21
-17.81084499049562
  0
LINE
  8
0
 10
70.14398518227925
 20
-17.81084499049562
 11
71.02567224507294
 21
-17.73064380524051
  0
LINE
  8
0
 10
71.02567224507294
 20
-17.73064380524051
 11
71.9957870408606
 21
-17.60632149651283
  0
LINE
  8
0
 10
71.9957870408606
 20
-17.60632149651283
 11
73.01748117413311
 21
-17.437033882818554
  0
LINE
  8
0
 10
73.01748117413311
 20
-17.437033882818554
 11
73.30292997627568
 21
-16.427571367577826
  0
LINE
  8
0
 10
73.30292997627568
 20
-16.427571367577826
 11
73.47559712206709
 21
-15.39283389116901
  0
LINE
  8
0
 10
73.47559712206709
 20
-15.39283389116901
 11
72.62386868097487
 21
-14.803702445161806
  0
LINE
  8
0
 10
72.62386868097487
 20
-14.803702445161806
 11
71.79959625044802
 21
-14.277248540442542
  0
LINE
  8
0
 10
71.79959625044802
 20
-14.277248540442542
 11
71.03646421768157
 21
-13.828434762376528
  0
LINE
  8
0
 10
71.03646421768157
 20
-13.828434762376528
 11
70.33895625923164
 21
-13.45199492182089
  0
LINE
  8
0
 10
70.33895625923164
 20
-13.45199492182089
 11
69.7112494179031
 21
-13.142442226246438
  0
LINE
  8
0
 10
69.7112494179031
 20
-13.142442226246438
 11
69.08947075775252
 21
-12.863722499919366
  0
LINE
  8
0
 10
69.08947075775252
 20
-12.863722499919366
 11
68.91227899168511
 21
-12.748431148405395
  0
LINE
  8
0
 10
68.91227899168511
 20
-12.748431148405395
 11
68.83636365699661
 21
-12.641056906342993
  0
LINE
  8
0
 10
68.83636365699661
 20
-12.641056906342993
 11
69.21116407043814
 21
-10.395001166069559
  0
LINE
  8
0
 10
69.21116407043814
 20
-10.395001166069559
 11
69.31783046229964
 21
-10.318094425488631
  0
LINE
  8
0
 10
69.31783046229964
 20
-10.318094425488631
 11
69.52285653037454
 21
-10.266583949801088
  0
LINE
  8
0
 10
69.52285653037454
 20
-10.266583949801088
 11
70.20144565486167
 21
-10.204857227949553
  0
LINE
  8
0
 10
70.20144565486167
 20
-10.204857227949553
 11
70.89565320406767
 21
-10.115893029456506
  0
LINE
  8
0
 10
70.89565320406767
 20
-10.115893029456506
 11
71.67759807380878
 21
-9.986330201670654
  0
LINE
  8
0
 10
71.67759807380878
 20
-9.986330201670654
 11
72.54511110360224
 21
-9.809622958036915
  0
LINE
  8
0
 10
72.54511110360224
 20
-9.809622958036915
 11
73.49566148364264
 21
-9.57933459867284
  0
LINE
  8
0
 10
73.49566148364264
 20
-9.57933459867284
 11
74.49253159631907
 21
-9.298679692130744
  0
LINE
  8
0
 10
0.3118675362266391
 20
-1.4672214011007085
 11
9.18454765366783e-17
 21
-1.5
  0
LINE
  8
0
 10
9.18454765366783e-17
 20
-1.5
 11
-0.3118675362266384
 21
-1.4672214011007085
  0
LINE
  8
0
 10
-0.3118675362266384
 20
-1.4672214011007085
 11
-0.6101049646137001
 21
-1.3703181864639014
  0
LINE
  8
0
 10
-0.6101049646137001
 20
-1.3703181864639014
 11
-0.8816778784387099
 21
-1.213525491562421
  0
LINE
  8
0
 10
-0.8816778784387099
 20
-1.213525491562421
 11
-1.114717238216091
 21
-1.0036959095382878
  0
LINE
  8
0
 10
-1.114717238216091
 20
-1.0036959095382878
 11
-1.299038105676658
 21
-0.7500000000000003
  0
LINE
  8
0
 10
-1.299038105676658
 20
-0.7500000000000003
 11
-1.4265847744427305
 21
-0.46352549156242095
  0
LINE
  8
0
 10
-1.4265847744427305
 20
-0.46352549156242095
 11
-1.49178284305241
 21
-0.15679269490147957
  0
LINE
  8
0
 10
-1.49178284305241
 20
-0.15679269490147957
 11
-1.4917828430524098
 21
0.15679269490148126
  0
LINE
  8
0
 10
-1.4917828430524098
 20
0.15679269490148126
 11
-1.4265847744427302
 21
0.46352549156242123
  0
LINE
  8
0
 10
-1.4265847744427302
 20
0.46352549156242123
 11
-1.2990381056766576
 21
0.7500000000000006
  0
LINE
  8
0
 10
-1.2990381056766576
 20
0.7500000000000006
 11
-1.114717238216091
 21
1.0036959095382878
  0
LINE
  8
0
 10
-1.114717238216091
 20
1.0036959095382878
 11
-0.8816778784387097
 21
1.2135254915624214
  0
LINE
  8
0
 10
-0.8816778784387097
 20
1.2135254915624214
 11
-0.6101049646137005
 21
1.3703181864639014
  0
LINE
  8
0
 10
-0.6101049646137005
 20
1.3703181864639014
 11
-0.3118675362266387
 21
1.4672214011007085
  0
LINE
  8
0
 10
-0.3118675362266387
 20
1.4672214011007085
 11
7.579792913117722e-16
 21
1.5
  0
LINE
  8
0
 10
7.579792913117722e-16
 20
1.5
 11
0.3118675362266389
 21
1.4672214011007085
  0
LINE
  8
0
 10
0.3118675362266389
 20
1.4672214011007085
 11
0.6101049646136999
 21
1.3703181864639014
  0
LINE
  8
0
 10
0.6101049646136999
 20
1.3703181864639014
 11
0.8816778784387097
 21
1.213525491562421
  0
LINE
  8
0
 10
0.8816778784387097
 20
1.213525491562421
 11
1.1147172382160917
 21
1.003695909538287
  0
LINE
  8
0
 10
1.1147172382160917
 20
1.003695909538287
 11
1.299038105676658
 21
0.7499999999999998
  0
LINE
  8
0
 10
1.299038105676658
 20
0.7499999999999998
 11
1.4265847744427305
 21
0.4635254915624211
  0
LINE
  8
0
 10
1.4265847744427305
 20
0.4635254915624211
 11
1.49178284305241
 21
0.1567926949014801
  0
LINE
  8
0
 10
1.49178284305241
 20
0.1567926949014801
 11
1.4917828430524098
 21
-0.1567926949014801
  0
LINE
  8
0
 10
1.4917828430524098
 20
-0.1567926949014801
 11
1.4265847744427302
 21
-0.46352549156242107
  0
LINE
  8
0
 10
1.4265847744427302
 20
-0.46352549156242107
 11
1.299038105676658
 21
-0.7500000000000001
  0
LINE
  8
0
 10
1.299038105676658
 20
-0.7500000000000001
 11
1.1147172382160913
 21
-1.0036959095382874
  0
LINE
  8
0
 10
1.1147172382160913
 20
-1.0036959095382874
 11
0.8816778784387098
 21
-1.2135254915624212
  0
LINE
  8
0
 10
0.8816778784387098
 20
-1.2135254915624212
 11
0.6101049646137003
 21
-1.3703181864639014
  0
LINE
  8
0
 10
0.6101049646137003
 20
-1.3703181864639014
 11
0.3118675362266391
 21
-1.4672214011007085
  0
ENDSEC
  0
SECTION
  2
OBJECTS
  0
DICTIONARY
  0
ENDSEC
  0
EOF
