  0
SECTION
  2
BLOCKS
  0
ENDSEC
  0
SECTION
  2
ENTITIES
  0
LINE
  8
0
 10
70.63757220296645
 20
-9.308217679375502
 11
70.81929984779171
 21
-8.27758899115606
  0
LINE
  8
0
 10
70.81929984779171
 20
-8.27758899115606
 11
70.8801500274978
 21
-7.232831753562312
  0
LINE
  8
0
 10
70.8801500274978
 20
-7.232831753562312
 11
69.98074023928281
 21
-6.736705183302045
  0
LINE
  8
0
 10
69.98074023928281
 20
-6.736705183302045
 11
69.10094950793923
 21
-6.294995483598028
  0
LINE
  8
0
 10
69.10094950793923
 20
-6.294995483598028
 11
68.2937985694045
 21
-5.928222200350883
  0
LINE
  8
0
 10
68.2937985694045
 20
-5.928222200350883
 11
67.56364148630118
 21
-5.63002678951556
  0
LINE
  8
0
 10
67.56364148630118
 20
-5.63002678951556
 11
66.9144462079151
 21
-5.39383100034736
  0
LINE
  8
0
 10
66.9144462079151
 20
-5.39383100034736
 11
66.27151514031856
 21
-5.187772144663391
  0
LINE
  8
0
 10
66.27151514031856
 20
-5.187772144663391
 11
66.07222824046215
 21
-5.0874080424220764
  0
LINE
  8
0
 10
66.07222824046215
 20
-5.0874080424220764
 11
65.98032552818812
 21
-4.983402161011035
  0
LINE
  8
0
 10
65.98032552818812
 20
-4.983402161011035
 11
66.11272785002629
 21
-2.710142087129233
  0
LINE
  8
0
 10
66.11272785002629
 20
-2.710142087129233
 11
66.21608349489611
 21
-2.6175087099632806
  0
LINE
  8
0
 10
66.21608349489611
 20
-2.6175087099632806
 11
66.4256744491276
 21
-2.54095903080689
  0
LINE
  8
0
 10
66.4256744491276
 20
-2.54095903080689
 11
67.08818021988945
 21
-2.410933212630477
  0
LINE
  8
0
 10
67.08818021988945
 20
-2.410933212630477
 11
67.76040652951725
 21
-2.2517014665961224
  0
LINE
  8
0
 10
67.76040652951725
 20
-2.2517014665961224
 11
68.52024492585534
 21
-2.0402884099983765
  0
LINE
  8
0
 10
68.52024492585534
 20
-2.0402884099983765
 11
69.3645179777696
 21
-1.7696996210749762
  0
LINE
  8
0
 10
69.3645179777696
 20
-1.7696996210749762
 11
70.28963924517414
 21
-1.4331140741599293
  0
LINE
  8
0
 10
70.28963924517414
 20
-1.4331140741599293
 11
71.240564325463
 21
-1.044757237593719
  0
LINE
  8
0
 10
71.240564325463
 20
-1.044757237593719
 11
71.30141450516909
 21
-1.3322676295501878e-14
  0
LINE
  8
0
 10
71.30141450516909
 20
-1.3322676295501878e-14
 11
71.24056432546304
 21
1.0447572375937342
  0
LINE
  8
0
 10
71.24056432546304
 20
1.0447572375937342
 11
70.28963924516285
 21
1.4331140741645452
  0
LINE
  8
0
 10
70.28963924516285
 20
1.4331140741645452
 11
69.36451797777055
 21
1.7696996210752063
  0
LINE
  8
0
 10
69.36451797777055
 20
1.7696996210752063
 11
68.52024492585501
 21
2.04028840999781
  0
LINE
  8
0
 10
68.52024492585501
 20
2.04028840999781
 11
67.76040652951717
 21
2.2517014665954274
  0
LINE
  8
0
 10
67.76040652951717
 20
2.2517014665954274
 11
67.08818021989052
 21
2.410933212630233
  0
LINE
  8
0
 10
67.08818021989052
 20
2.410933212630233
 11
66.42567444913198
 21
2.540959030829033
  0
LINE
  8
0
 10
66.42567444913198
 20
2.540959030829033
 11
66.21608349489637
 21
2.6175087099641288
  0
LINE
  8
0
 10
66.21608349489637
 20
2.6175087099641288
 11
66.1127278500261
 21
2.7101420871284296
  0
LINE
  8
0
 10
66.1127278500261
 20
2.7101420871284296
 11
65.9803255281884
 21
4.983402161010259
  0
LINE
  8
0
 10
65.9803255281884
 20
4.983402161010259
 11
66.0722282404618
 21
5.08740804242289
  0
LINE
  8
0
 10
66.0722282404618
 20
5.08740804242289
 11
66.27151514031164
 21
5.187772144684877
  0
LINE
  8
0
 10
66.27151514031164
 20
5.187772144684877
 11
66.91444620791408
 21
5.393831000346995
  0
LINE
  8
0
 10
66.91444620791408
 20
5.393831000346995
 11
67.56364148630135
 21
5.630026789514882
  0
LINE
  8
0
 10
67.56364148630135
 20
5.630026789514882
 11
68.2937985694049
 21
5.92822220035036
  0
LINE
  8
0
 10
68.2937985694049
 20
5.92822220035036
 11
69.10094950793827
 21
6.2949954835981465
  0
LINE
  8
0
 10
69.10094950793827
 20
6.2949954835981465
 11
69.9807402392935
 21
6.736705183307943
  0
LINE
  8
0
 10
69.9807402392935
 20
6.736705183307943
 11
70.88015002749785
 21
7.232831753562326
  0
LINE
  8
0
 10
70.88015002749785
 20
7.232831753562326
 11
70.81929984779175
 21
8.277588991156025
  0
LINE
  8
0
 10
70.81929984779175
 20
8.277588991156025
 11
70.63757220296644
 21
9.30821767937552
  0
LINE
  8
0
 10
70.63757220296644
 20
9.30821767937552
 11
69.64799146099553
 21
9.583552922262161
  0
LINE
  8
0
 10
69.64799146099553
 20
9.583552922262161
 11
68.69005033566536
 21
9.81046257426458
  0
LINE
  8
0
 10
68.69005033566536
 20
9.81046257426458
 11
67.82007251505934
 21
9.98120761968317
  0
LINE
  8
0
 10
67.82007251505934
 20
9.98120761968317
 11
67.04082831630694
 21
10.102979323128292
  0
LINE
  8
0
 10
67.04082831630694
 20
10.102979323128292
 11
66.354661683084
 21
10.183093689824078
  0
LINE
  8
0
 10
66.354661683084
 20
10.183093689824078
 11
65.68154046319503
 21
10.235328094403767
  0
LINE
  8
0
 10
65.68154046319503
 20
10.235328094403767
 11
65.46447981268633
 21
10.287028147342081
  0
LINE
  8
0
 10
65.46447981268633
 20
10.287028147342081
 11
65.35106894301177
 21
10.36703631274456
  0
LINE
  8
0
 10
65.35106894301177
 20
10.36703631274456
 11
64.95565249176698
 21
12.60955444386819
  0
LINE
  8
0
 10
64.95565249176698
 20
12.60955444386819
 11
65.0348594449181
 21
12.723526328401807
  0
LINE
  8
0
 10
65.0348594449181
 20
12.723526328401807
 11
65.22114727693926
 21
12.846347601459298
  0
LINE
  8
0
 10
65.22114727693926
 20
12.846347601459298
 11
65.83580910163087
 21
13.125652902074938
  0
LINE
  8
0
 10
65.83580910163087
 20
13.125652902074938
 11
66.45319409632145
 21
13.435618591517928
  0
LINE
  8
0
 10
66.45319409632145
 20
13.435618591517928
 11
67.14379574421422
 21
13.816563775209012
  0
LINE
  8
0
 10
67.14379574421422
 20
13.816563775209012
 11
67.90290923757745
 21
14.274561573318918
  0
LINE
  8
0
 10
67.90290923757745
 20
14.274561573318918
 11
68.72547177250861
 21
14.81542205988076
  0
LINE
  8
0
 10
68.72547177250861
 20
14.81542205988076
 11
69.56120329416582
 21
15.412609103057745
  0
LINE
  8
0
 10
69.56120329416582
 20
15.412609103057745
 11
69.37947564934055
 21
16.443237791277188
  0
LINE
  8
0
 10
69.37947564934055
 20
16.443237791277188
 11
69.07932809404171
 21
17.44580044514122
  0
LINE
  8
0
 10
69.07932809404171
 20
17.44580044514122
 11
68.06447407232528
 21
17.604390657516785
  0
LINE
  8
0
 10
68.06447407232528
 20
17.604390657516785
 11
67.08666759944478
 21
17.718555850827485
  0
LINE
  8
0
 10
67.08666759944478
 20
17.718555850827485
 11
66.20274996773907
 21
17.787148118913148
  0
LINE
  8
0
 10
66.20274996773907
 20
17.787148118913148
 11
65.41463790757935
 21
17.817631715814073
  0
LINE
  8
0
 10
65.41463790757935
 20
17.817631715814073
 11
64.72381017736667
 21
17.817545293796186
  0
LINE
  8
0
 10
64.72381017736667
 20
17.817545293796186
 11
64.04917631811765
 21
17.7912819040421
  0
LINE
  8
0
 10
64.04917631811765
 20
17.7912819040421
 11
63.82758134426995
 21
17.817433176258252
  0
LINE
  8
0
 10
63.82758134426995
 20
17.817433176258252
 11
63.70564893724891
 21
17.88373415671456
  0
LINE
  8
0
 10
63.70564893724891
 20
17.88373415671456
 11
63.052565685769586
 21
20.06518413436026
  0
LINE
  8
0
 10
63.052565685769586
 20
20.06518413436026
 11
63.11800574163529
 21
20.18758074779348
  0
LINE
  8
0
 10
63.11800574163529
 20
20.18758074779348
 11
63.288775282473495
 21
20.331198244626282
  0
LINE
  8
0
 10
63.288775282473495
 20
20.331198244626282
 11
63.86685561751775
 21
20.679972865148358
  0
LINE
  8
0
 10
63.86685561751775
 20
20.679972865148358
 11
64.44408125557247
 21
21.059516700657888
  0
LINE
  8
0
 10
64.44408125557247
 20
21.059516700657888
 11
65.0857882656827
 21
21.51806002710048
  0
LINE
  8
0
 10
65.0857882656827
 20
21.51806002710048
 11
65.78659860612501
 21
22.061088705540907
  0
LINE
  8
0
 10
65.78659860612501
 20
22.061088705540907
 11
66.54080919743994
 21
22.693785768711493
  0
LINE
  8
0
 10
66.54080919743994
 20
22.693785768711493
 11
67.30156061740375
 21
23.38395735451689
  0
LINE
  8
0
 10
67.30156061740375
 20
23.38395735451689
 11
67.00141306210472
 21
24.386520008380835
  0
LINE
  8
0
 10
67.00141306210472
 20
24.386520008380835
 11
66.5869045771191
 21
25.347458687875893
  0
LINE
  8
0
 10
66.5869045771191
 20
25.347458687875893
 11
65.56050143533533
 21
25.387159209177
  0
LINE
  8
0
 10
65.56050143533533
 20
25.387159209177
 11
64.57605277003894
 21
25.387036055405
  0
LINE
  8
0
 10
64.57605277003894
 20
25.387036055405
 11
63.69014879685588
 21
25.352547953400812
  0
LINE
  8
0
 10
63.69014879685588
 20
25.352547953400812
 11
62.90382673890899
 21
25.291331205403576
  0
LINE
  8
0
 10
62.90382673890899
 20
25.291331205403576
 11
62.21768017165385
 21
25.211045163381545
  0
LINE
  8
0
 10
62.21768017165385
 20
25.211045163381545
 11
61.55065693866759
 21
25.10663914658569
  0
LINE
  8
0
 10
61.55065693866759
 20
25.10663914658569
 11
61.327524333359584
 21
25.10688798698504
  0
LINE
  8
0
 10
61.327524333359584
 20
25.10688798698504
 11
61.19871931562396
 21
25.15858517547277
  0
LINE
  8
0
 10
61.19871931562396
 20
25.15858517547277
 11
60.296801094532555
 21
27.249466630935167
  0
LINE
  8
0
 10
60.296801094532555
 20
27.249466630935167
 11
60.34758928861862
 21
27.378632769040717
  0
LINE
  8
0
 10
60.34758928861862
 20
27.378632769040717
 11
60.50053117318642
 21
27.541104309377676
  0
LINE
  8
0
 10
60.50053117318642
 20
27.541104309377676
 11
61.03421247373936
 21
27.954631671380874
  0
LINE
  8
0
 10
61.03421247373936
 20
27.954631671380874
 11
61.563472768624806
 21
28.398620973683
  0
LINE
  8
0
 10
61.563472768624806
 20
28.398620973683
 11
62.14760715447878
 21
28.928561431010653
  0
LINE
  8
0
 10
62.14760715447878
 20
28.928561431010653
 11
62.78063708437456
 21
29.549277458462644
  0
LINE
  8
0
 10
62.78063708437456
 20
29.549277458462644
 11
63.45629632766183
 21
30.265254955844213
  0
LINE
  8
0
 10
63.45629632766183
 20
30.265254955844213
 11
64.13177978803397
 21
31.039077697558223
  0
LINE
  8
0
 10
64.13177978803397
 20
31.039077697558223
 11
63.71727130304832
 21
32.00001637705323
  0
LINE
  8
0
 10
63.71727130304832
 20
32.00001637705323
 11
63.194007404552806
 21
32.90633603501396
  0
LINE
  8
0
 10
63.194007404552806
 20
32.90633603501396
 11
62.169935484416214
 21
32.82660998379563
  0
LINE
  8
0
 10
62.169935484416214
 20
32.82660998379563
 11
61.192157606096266
 21
32.712200148384426
  0
LINE
  8
0
 10
61.192157606096266
 20
32.712200148384426
 11
60.31624762291917
 21
32.57509806870621
  0
LINE
  8
0
 10
60.31624762291917
 20
32.57509806870621
 11
59.542349224096
 21
32.42300882731113
  0
LINE
  8
0
 10
59.542349224096
 20
32.42300882731113
 11
58.87016277504716
 21
32.263608896273894
  0
LINE
  8
0
 10
58.87016277504716
 20
32.263608896273894
 11
58.2197705132822
 21
32.082472164706594
  0
LINE
  8
0
 10
58.2197705132822
 20
32.082472164706594
 11
57.99811776222029
 21
32.05681520814962
  0
LINE
  8
0
 10
57.99811776222029
 20
32.05681520814962
 11
57.86418200067201
 21
32.09320948888016
  0
LINE
  8
0
 10
57.86418200067201
 20
32.09320948888016
 11
56.72562570668262
 21
34.06524683734757
  0
LINE
  8
0
 10
56.72562570668262
 20
34.06524683734757
 11
56.76107521579037
 21
34.19943574969001
  0
LINE
  8
0
 10
56.76107521579037
 20
34.19943574969001
 11
56.894121167468306
 21
34.37856418466537
  0
LINE
  8
0
 10
56.894121167468306
 20
34.37856418466537
 11
57.37618630946162
 21
34.85125203997812
  0
LINE
  8
0
 10
57.37618630946162
 20
34.85125203997812
 11
57.85032392362699
 21
35.353682615415714
  0
LINE
  8
0
 10
57.85032392362699
 20
35.353682615415714
 11
58.368986269729156
 21
35.94785366804739
  0
LINE
  8
0
 10
58.368986269729156
 20
35.94785366804739
 11
58.92567514522921
 21
36.637862925068
  0
LINE
  8
0
 10
58.92567514522921
 20
36.637862925068
 11
59.513645908305904
 21
37.42743848925632
  0
LINE
  8
0
 10
59.513645908305904
 20
37.42743848925632
 11
60.09472665406578
 21
38.27444776177768
  0
LINE
  8
0
 10
60.09472665406578
 20
38.27444776177768
 11
59.571462755570316
 21
39.180767419738395
  0
LINE
  8
0
 10
59.571462755570316
 20
39.180767419738395
 11
58.94651969014138
 21
40.0202116375677
  0
LINE
  8
0
 10
58.94651969014138
 20
40.0202116375677
 11
57.9386278075929
 21
39.822137171903854
  0
LINE
  8
0
 10
57.9386278075929
 20
39.822137171903854
 11
56.98074348469147
 21
39.59498785160916
  0
LINE
  8
0
 10
56.98074348469147
 20
39.59498785160916
 11
56.126672671433354
 21
39.35712586468815
  0
LINE
  8
0
 10
56.126672671433354
 20
39.35712586468815
 11
55.37566357996776
 21
39.116220875978456
  0
LINE
  8
0
 10
55.37566357996776
 20
39.116220875978456
 11
54.726527417723574
 21
38.879862666545286
  0
LINE
  8
0
 10
54.726527417723574
 20
38.879862666545286
 11
54.10156156678284
 21
38.62444478376384
  0
LINE
  8
0
 10
54.10156156678284
 20
38.62444478376384
 11
53.884386143183406
 21
38.57322899657389
  0
LINE
  8
0
 10
53.884386143183406
 20
38.57322899657389
 11
53.74713088923278
 21
38.593828199334176
  0
LINE
  8
0
 10
53.74713088923278
 20
38.593828199334176
 11
52.38733354304663
 21
40.42035301866687
  0
LINE
  8
0
 10
52.38733354304663
 20
40.42035301866687
 11
52.406964973378436
 21
40.55775003040568
  0
LINE
  8
0
 10
52.406964973378436
 20
40.55775003040568
 11
52.51831577390826
 21
40.75111295522835
  0
LINE
  8
0
 10
52.51831577390826
 20
40.75111295522835
 11
52.942245653271485
 21
41.27656901149594
  0
LINE
  8
0
 10
52.942245653271485
 20
41.27656901149594
 11
53.354848688860606
 21
41.83064634844774
  0
LINE
  8
0
 10
53.354848688860606
 20
41.83064634844774
 11
53.80102497673684
 21
42.48101285218746
  0
LINE
  8
0
 10
53.80102497673684
 20
42.48101285218746
 11
54.27384453579081
 21
43.230984147275244
  0
LINE
  8
0
 10
54.27384453579081
 20
43.230984147275244
 11
54.76617552274069
 21
44.083480123268835
  0
LINE
  8
0
 10
54.76617552274069
 20
44.083480123268835
 11
55.24499543363657
 21
44.99222157921746
  0
LINE
  8
0
 10
55.24499543363657
 20
44.99222157921746
 11
54.62005236820763
 21
45.831665797046725
  0
LINE
  8
0
 10
54.62005236820763
 20
45.831665797046725
 11
53.90188141872548
 21
46.59288253175153
  0
LINE
  8
0
 10
53.90188141872548
 20
46.59288253175153
 11
52.92379958245427
 21
46.27913826899673
  0
LINE
  8
0
 10
52.92379958245427
 20
46.27913826899673
 11
51.99876255720348
 21
45.942321268704525
  0
LINE
  8
0
 10
51.99876255720348
 20
45.942321268704525
 11
51.17808075646894
 21
45.606916049865426
  0
LINE
  8
0
 10
51.17808075646894
 20
45.606916049865426
 11
50.46011708197899
 21
45.28045314054478
  0
LINE
  8
0
 10
50.46011708197899
 20
45.28045314054478
 11
49.84280965955119
 21
44.97033299202956
  0
LINE
  8
0
 10
49.84280965955119
 20
44.97033299202956
 11
49.25172181044982
 21
44.64408804673333
  0
LINE
  8
0
 10
49.25172181044982
 20
44.64408804673333
 11
49.041960639356105
 21
44.568006034572285
  0
LINE
  8
0
 10
49.041960639356105
 20
44.568006034572285
 11
48.903242034853626
 21
44.57253159048257
  0
LINE
  8
0
 10
48.903242034853626
 20
44.57253159048257
 11
47.34059256286746
 21
46.22884326587298
  0
LINE
  8
0
 10
47.34059256286746
 20
46.22884326587298
 11
47.34414043300549
 21
46.367590318126744
  0
LINE
  8
0
 10
47.34414043300549
 20
46.367590318126744
 11
47.432290253830544
 21
46.572572830949476
  0
LINE
  8
0
 10
47.432290253830544
 20
46.572572830949476
 11
47.79235194619016
 21
47.14369119642229
  0
LINE
  8
0
 10
47.79235194619016
 20
47.14369119642229
 11
48.13784065496055
 21
47.74192234941679
  0
LINE
  8
0
 10
48.13784065496055
 20
47.74192234941679
 11
48.505497115725554
 21
48.43968921299472
  0
LINE
  8
0
 10
48.505497115725554
 20
48.43968921299472
 11
48.88805328491157
 21
49.23948047094729
  0
LINE
  8
0
 10
48.88805328491157
 20
49.23948047094729
 11
49.27808656372201
 21
50.143368313113946
  0
LINE
  8
0
 10
49.27808656372201
 20
50.143368313113946
 11
49.64817042186693
 21
51.1015527832295
  0
LINE
  8
0
 10
49.64817042186693
 20
51.1015527832295
 11
48.929999472384715
 21
51.86276951793421
  0
LINE
  8
0
 10
48.929999472384715
 20
51.86276951793421
 11
48.128312668930256
 21
52.53546461903258
  0
LINE
  8
0
 10
48.128312668930256
 20
52.53546461903258
 11
47.19326775788831
 21
52.110293412117386
  0
LINE
  8
0
 10
47.19326775788831
 20
52.110293412117386
 11
46.31358756916856
 21
51.66836360395249
  0
LINE
  8
0
 10
46.31358756916856
 20
51.66836360395249
 11
45.537393094446124
 21
51.23995093339786
  0
LINE
  8
0
 10
45.537393094446124
 20
51.23995093339786
 11
44.8621840639742
 21
50.83234495427297
  0
LINE
  8
0
 10
44.8621840639742
 20
50.83234495427297
 11
44.285053405270176
 21
50.45265670967824
  0
LINE
  8
0
 10
44.285053405270176
 20
50.45265670967824
 11
43.73583700716558
 21
50.059996605084415
  0
LINE
  8
0
 10
43.73583700716558
 20
50.059996605084415
 11
43.536326748574716
 21
49.96007724664928
  0
LINE
  8
0
 10
43.536326748574716
 20
49.96007724664928
 11
43.39802072467676
 21
49.948467955329406
  0
LINE
  8
0
 10
43.39802072467676
 20
49.948467955329406
 11
41.65365128029918
 21
51.412167712743845
  0
LINE
  8
0
 10
41.65365128029918
 20
51.412167712743845
 11
41.64106761138614
 21
51.55038848964918
  0
LINE
  8
0
 10
41.64106761138614
 20
51.55038848964918
 11
41.70482437739937
 21
51.76421855363024
  0
LINE
  8
0
 10
41.70482437739937
 20
51.76421855363024
 11
41.99614866604623
 21
52.373275832159614
  0
LINE
  8
0
 10
41.99614866604623
 20
52.373275832159614
 11
42.26985090589209
 21
53.00757075110846
  0
LINE
  8
0
 10
42.26985090589209
 20
53.00757075110846
 11
42.55401561662276
 21
53.743301874702524
  0
LINE
  8
0
 10
42.55401561662276
 20
53.743301874702524
 11
42.841134980021536
 21
54.5820972907851
  0
LINE
  8
0
 10
42.841134980021536
 20
54.5820972907851
 11
43.12359601969243
 21
55.52515346666453
  0
LINE
  8
0
 10
43.12359601969243
 20
55.52515346666453
 11
43.379939075777834
 21
56.51982314973869
  0
LINE
  8
0
 10
43.379939075777834
 20
56.51982314973869
 11
42.5782522723234
 21
57.192518250837
  0
LINE
  8
0
 10
42.5782522723234
 20
57.192518250837
 11
41.703891053632624
 21
57.76759467108422
  0
LINE
  8
0
 10
41.703891053632624
 20
57.76759467108422
 11
40.82452794618729
 21
57.23674623120778
  0
LINE
  8
0
 10
40.82452794618729
 20
57.23674623120778
 11
40.00210075947383
 21
56.69567995770216
  0
LINE
  8
0
 10
40.00210075947383
 20
56.69567995770216
 11
39.28089030948501
 21
56.1800533818662
  0
LINE
  8
0
 10
39.28089030948501
 20
56.1800533818662
 11
38.65756696685802
 21
55.696816504563245
  0
LINE
  8
0
 10
38.65756696685802
 20
55.696816504563245
 11
38.128417773978406
 21
55.2526947960481
  0
LINE
  8
0
 10
38.128417773978406
 20
55.2526947960481
 11
37.62850003648307
 21
54.798929586469214
  0
LINE
  8
0
 10
37.62850003648307
 20
54.798929586469214
 11
37.441938724385864
 21
54.67652411967278
  0
LINE
  8
0
 10
37.441938724385864
 20
54.67652411967278
 11
37.305915632803895
 21
54.64893697687229
  0
LINE
  8
0
 10
37.305915632803895
 20
54.64893697687229
 11
35.40341582033245
 21
55.90023078804509
  0
LINE
  8
0
 10
35.40341582033245
 20
55.90023078804509
 11
35.3748707849033
 21
56.03605609070986
  0
LINE
  8
0
 10
35.3748707849033
 20
56.03605609070986
 11
35.41337229521806
 21
56.25584202105595
  0
LINE
  8
0
 10
35.41337229521806
 20
56.25584202105595
 11
35.63201951891036
 21
56.89460175777771
  0
LINE
  8
0
 10
35.63201951891036
 20
56.89460175777771
 11
35.830233936569556
 21
57.556382692024826
  0
LINE
  8
0
 10
35.830233936569556
 20
57.556382692024826
 11
36.02706405703323
 21
58.320128574323306
  0
LINE
  8
0
 10
36.02706405703323
 20
58.320128574323306
 11
36.214863817803426
 21
59.18658487947337
  0
LINE
  8
0
 10
36.214863817803426
 20
59.18658487947337
 11
36.38593281733059
 21
60.15605617208449
  0
LINE
  8
0
 10
36.38593281733059
 20
60.15605617208449
 11
36.52506847127529
 21
61.173759866993464
  0
LINE
  8
0
 10
36.52506847127529
 20
61.173759866993464
 11
35.65070725258451
 21
61.74883628724064
  0
LINE
  8
0
 10
35.65070725258451
 20
61.74883628724064
 11
34.71549585418769
 21
62.21851710458727
  0
LINE
  8
0
 10
34.71549585418769
 20
62.21851710458727
 11
33.9037064278339
 21
61.58917024623696
  0
LINE
  8
0
 10
33.9037064278339
 20
61.58917024623696
 11
33.149654159966445
 21
60.956284500549295
  0
LINE
  8
0
 10
33.149654159966445
 20
60.956284500549295
 11
32.49318086882243
 21
60.36041698432112
  0
LINE
  8
0
 10
32.49318086882243
 20
60.36041698432112
 11
31.93017259294826
 21
59.80808415862054
  0
LINE
  8
0
 10
31.93017259294826
 20
59.80808415862054
 11
31.45616070097984
 21
59.30553497040899
  0
LINE
  8
0
 10
31.45616070097984
 20
59.30553497040899
 11
31.012302153892556
 21
58.796801051877715
  0
LINE
  8
0
 10
31.012302153892556
 20
58.796801051877715
 11
30.84121270999221
 21
58.6535648006738
  0
LINE
  8
0
 10
30.84121270999221
 20
58.6535648006738
 11
30.709312029694445
 21
58.61037287517378
  0
LINE
  8
0
 10
30.709312029694445
 20
58.61037287517378
 11
28.67440989538504
 21
59.63233913788319
  0
LINE
  8
0
 10
28.67440989538504
 20
59.63233913788319
 11
28.63028951607541
 21
59.76393216209497
  0
LINE
  8
0
 10
28.63028951607541
 20
59.76393216209497
 11
28.64301510381343
 21
59.98670173113736
  0
LINE
  8
0
 10
28.64301510381343
 20
59.98670173113736
 11
28.786028433936504
 21
60.64652579639439
  0
LINE
  8
0
 10
28.786028433936504
 20
60.64652579639439
 11
28.906074519443838
 21
61.32684329407862
  0
LINE
  8
0
 10
28.906074519443838
 20
61.32684329407862
 11
29.012908259920152
 21
62.10827558221718
  0
LINE
  8
0
 10
29.012908259920152
 20
62.10827558221718
 11
29.098848748464825
 21
62.99067544129942
  0
LINE
  8
0
 10
29.098848748464825
 20
62.99067544129942
 11
29.156212293095763
 21
63.97345141452204
  0
LINE
  8
0
 10
29.156212293095763
 20
63.97345141452204
 11
29.176258973865156
 21
65.00042642464649
  0
LINE
  8
0
 10
29.176258973865156
 20
65.00042642464649
 11
28.2410475754683
 21
65.470107241993
  0
LINE
  8
0
 10
28.2410475754683
 20
65.470107241993
 11
27.257633127188587
 21
65.82804082911424
  0
LINE
  8
0
 10
27.257633127188587
 20
65.82804082911424
 11
26.52439544130613
 21
65.10870638891487
  0
LINE
  8
0
 10
26.52439544130613
 20
65.10870638891487
 11
25.84891535564307
 21
64.39255986505029
  0
LINE
  8
0
 10
25.84891535564307
 20
64.39255986505029
 11
25.26605689843723
 21
63.72450949438576
  0
LINE
  8
0
 10
25.26605689843723
 20
63.72450949438576
 11
24.77097741041545
 21
63.110550074237096
  0
LINE
  8
0
 10
24.77097741041545
 20
63.110550074237096
 11
24.358513017037332
 21
62.55636952198469
  0
LINE
  8
0
 10
24.358513017037332
 20
62.55636952198469
 11
23.976716085775276
 21
61.99954664802431
  0
LINE
  8
0
 10
23.976716085775276
 20
61.99954664802431
 11
23.823412201299348
 21
61.83741663699096
  0
LINE
  8
0
 10
23.823412201299348
 20
61.83741663699096
 11
23.697417662713335
 21
61.77920402548874
  0
LINE
  8
0
 10
23.697417662713335
 20
61.77920402548874
 11
21.557631767090676
 21
62.55802239919828
  0
LINE
  8
0
 10
21.557631767090676
 20
62.55802239919828
 11
21.49853269634293
 21
62.68360357505031
  0
LINE
  8
0
 10
21.49853269634293
 20
62.68360357505031
 11
21.485310269760586
 21
62.906344206525326
  0
LINE
  8
0
 10
21.485310269760586
 20
62.906344206525326
 11
21.550755696361595
 21
63.578309611752566
  0
LINE
  8
0
 10
21.550755696361595
 20
63.578309611752566
 11
21.5910100323477
 21
64.26796354579143
  0
LINE
  8
0
 10
21.5910100323477
 20
64.26796354579143
 11
21.606402649768274
 21
65.0565147086075
  0
LINE
  8
0
 10
21.606402649768274
 20
65.0565147086075
 11
21.589321668409372
 21
65.94292517727055
  0
LINE
  8
0
 10
21.589321668409372
 20
65.94292517727055
 11
21.532204014609192
 21
66.9257154720032
  0
LINE
  8
0
 10
21.532204014609192
 20
66.9257154720032
 11
21.43289062523561
 21
67.94807372209026
  0
LINE
  8
0
 10
21.43289062523561
 20
67.94807372209026
 11
20.449476176955912
 21
68.30600730921137
  0
LINE
  8
0
 10
20.449476176955912
 20
68.30600730921137
 11
19.43115767217467
 21
68.54735322837071
  0
LINE
  8
0
 10
19.43115767217467
 20
68.54735322837071
 11
18.78638750860767
 21
67.74775897061936
  0
LINE
  8
0
 10
18.78638750860767
 20
67.74775897061936
 11
18.198614314532392
 21
66.95803632177532
  0
LINE
  8
0
 10
18.198614314532392
 20
66.95803632177532
 11
17.697252852014152
 21
66.22683733190802
  0
LINE
  8
0
 10
17.697252852014152
 20
66.22683733190802
 11
17.27679725261937
 21
65.55955406523128
  0
LINE
  8
0
 10
17.27679725261937
 20
65.55955406523128
 11
16.931458231175977
 21
64.96123649021942
  0
LINE
  8
0
 10
16.931458231175977
 20
64.96123649021942
 11
16.616886064267984
 21
64.36385473497958
  0
LINE
  8
0
 10
16.616886064267984
 20
64.36385473497958
 11
16.48344091126367
 21
64.18502349438461
  0
LINE
  8
0
 10
16.48344091126367
 20
64.18502349438461
 11
16.365056374382174
 21
64.11257742258796
  0
LINE
  8
0
 10
16.365056374382174
 20
64.11257742258796
 11
14.14932365091634
 21
64.63771572484357
  0
LINE
  8
0
 10
14.14932365091634
 20
64.63771572484357
 11
14.07604510227884
 21
64.75558678236494
  0
LINE
  8
0
 10
14.07604510227884
 20
64.75558678236494
 11
14.0370534720128
 21
64.97528629133984
  0
LINE
  8
0
 10
14.0370534720128
 20
64.97528629133984
 11
14.024045957967534
 21
65.65030585717743
  0
LINE
  8
0
 10
14.024045957967534
 20
65.65030585717743
 11
13.983964173593865
 21
66.33996984120326
  0
LINE
  8
0
 10
13.983964173593865
 20
66.33996984120326
 11
13.907707509213868
 21
67.12497607696656
  0
LINE
  8
0
 10
13.907707509213868
 20
67.12497607696656
 11
13.787836048922127
 21
68.00340997424465
  0
LINE
  8
0
 10
13.787836048922127
 20
68.00340997424465
 11
13.617009614974055
 21
68.97292403771196
  0
LINE
  8
0
 10
13.617009614974055
 20
68.97292403771196
 11
13.399679198678298
 21
69.97683988626841
  0
LINE
  8
0
 10
13.399679198678298
 20
69.97683988626841
 11
12.38136069389707
 21
70.21818580542764
  0
LINE
  8
0
 10
12.38136069389707
 20
70.21818580542764
 11
11.341909143482468
 21
70.33968026709343
  0
LINE
  8
0
 10
11.341909143482468
 20
70.33968026709343
 11
10.794325912600328
 21
69.47063933243503
  0
LINE
  8
0
 10
10.794325912600328
 20
69.47063933243503
 11
10.30220823424726
 21
68.61802020268068
  0
LINE
  8
0
 10
10.30220823424726
 20
68.61802020268068
 11
9.889123820119664
 21
67.83356080558849
  0
LINE
  8
0
 10
9.889123820119664
 20
67.83356080558849
 11
9.548978050048895
 21
67.12197755385179
  0
LINE
  8
0
 10
9.548978050048895
 20
67.12197755385179
 11
9.275434518381712
 21
66.48761417487836
  0
LINE
  8
0
 10
9.275434518381712
 20
66.48761417487836
 11
9.032341164741734
 21
65.8577521017999
  0
LINE
  8
0
 10
9.032341164741734
 20
65.8577521017999
 11
8.920559359980407
 21
65.66463801739025
  0
LINE
  8
0
 10
8.920559359980407
 20
65.66463801739025
 11
8.811385772577989
 21
65.57893819414014
  0
LINE
  8
0
 10
8.811385772577989
 20
65.57893819414014
 11
6.549670205300068
 21
65.84329483027011
  0
LINE
  8
0
 10
6.549670205300068
 20
65.84329483027011
 11
6.463203145434966
 21
65.95186176561376
  0
LINE
  8
0
 10
6.463203145434966
 20
65.95186176561376
 11
6.398969606395067
 21
66.16554909312062
  0
LINE
  8
0
 10
6.398969606395067
 20
66.16554909312062
 11
6.307685056016809
 21
66.83449433792578
  0
LINE
  8
0
 10
6.307685056016809
 20
66.83449433792578
 11
6.187809188657362
 21
67.51484184966209
  0
LINE
  8
0
 10
6.187809188657362
 20
67.51484184966209
 11
6.020934483045456
 21
68.28568729569946
  0
LINE
  8
0
 10
6.020934483045456
 20
68.28568729569946
 11
5.799893599683763
 21
69.1442653100711
  0
LINE
  8
0
 10
5.799893599683763
 20
69.1442653100711
 11
5.517668520056955
 21
70.08739212775043
  0
LINE
  8
0
 10
5.517668520056955
 20
70.08739212775043
 11
5.185260097892561
 21
71.05928933512588
  0
LINE
  8
0
 10
5.185260097892561
 20
71.05928933512588
 11
4.145808547477993
 21
71.1807837967916
  0
LINE
  8
0
 10
4.145808547477993
 20
71.1807837967916
 11
3.0992807504870212
 21
71.18078379679164
  0
LINE
  8
0
 10
3.0992807504870212
 20
71.18078379679164
 11
2.6562895761172243
 21
70.25404847304186
  0
LINE
  8
0
 10
2.6562895761172243
 20
70.25404847304186
 11
2.266482460866147
 21
69.35006307345274
  0
LINE
  8
0
 10
2.266482460866147
 20
69.35006307345274
 11
1.9472613531906158
 21
68.52295173675387
  0
LINE
  8
0
 10
1.9472613531906158
 20
68.52295173675387
 11
1.692025300469474
 21
67.77669144272735
  0
LINE
  8
0
 10
1.692025300469474
 20
67.77669144272735
 11
1.4939764655847865
 21
67.1148609362528
  0
LINE
  8
0
 10
1.4939764655847865
 20
67.1148609362528
 11
1.3256493457980705
 21
66.46103634935587
  0
LINE
  8
0
 10
1.3256493457980705
 20
66.46103634935587
 11
1.2370425464292438
 21
66.25625095783906
  0
LINE
  8
0
 10
1.2370425464292438
 20
66.25625095783906
 11
1.1385562939899887
 21
66.1584563262283
  0
LINE
  8
0
 10
1.1385562939899887
 20
66.1584563262283
 11
-1.1385562939891902
 21
66.15845632622853
  0
LINE
  8
0
 10
-1.1385562939891902
 20
66.15845632622853
 11
-1.2370425464300676
 21
66.25625095783874
  0
LINE
  8
0
 10
-1.2370425464300676
 20
66.25625095783874
 11
-1.3256493458199134
 21
66.46103634935021
  0
LINE
  8
0
 10
-1.3256493458199134
 20
66.46103634935021
 11
-1.4939764655844738
 21
67.11486093625174
  0
LINE
  8
0
 10
-1.4939764655844738
 20
67.11486093625174
 11
-1.6920253004687782
 21
67.77669144272748
  0
LINE
  8
0
 10
-1.6920253004687782
 20
67.77669144272748
 11
-1.9472613531900616
 21
68.52295173675424
  0
LINE
  8
0
 10
-1.9472613531900616
 20
68.52295173675424
 11
-2.266482460866314
 21
69.35006307345178
  0
LINE
  8
0
 10
-2.266482460866314
 20
69.35006307345178
 11
-2.6562895761224814
 21
70.25404847305288
  0
LINE
  8
0
 10
-2.6562895761224814
 20
70.25404847305288
 11
-3.0992807504870257
 21
71.18078379679156
  0
LINE
  8
0
 10
-3.0992807504870257
 20
71.18078379679156
 11
-4.145808547477972
 21
71.18078379679154
  0
LINE
  8
0
 10
-4.145808547477972
 20
71.18078379679154
 11
-5.185260097892579
 21
71.05928933512588
  0
LINE
  8
0
 10
-5.185260097892579
 20
71.05928933512588
 11
-5.517668520060913
 21
70.08739212773888
  0
LINE
  8
0
 10
-5.517668520060913
 20
70.08739212773888
 11
-5.799893599684054
 21
69.14426531007203
  0
LINE
  8
0
 10
-5.799893599684054
 20
69.14426531007203
 11
-6.020934483044878
 21
68.28568729569916
  0
LINE
  8
0
 10
-6.020934483044878
 20
68.28568729569916
 11
-6.187809188656671
 21
67.51484184966205
  0
LINE
  8
0
 10
-6.187809188656671
 20
67.51484184966205
 11
-6.307685056016633
 21
66.83449433792686
  0
LINE
  8
0
 10
-6.307685056016633
 20
66.83449433792686
 11
-6.3989696064174355
 21
66.1655490931237
  0
LINE
  8
0
 10
-6.3989696064174355
 20
66.1655490931237
 11
-6.463203145435835
 21
65.95186176561397
  0
LINE
  8
0
 10
-6.463203145435835
 20
65.95186176561397
 11
-6.549670205299263
 21
65.84329483026998
  0
LINE
  8
0
 10
-6.549670205299263
 20
65.84329483026998
 11
-8.811385772577236
 21
65.57893819414046
  0
LINE
  8
0
 10
-8.811385772577236
 20
65.57893819414046
 11
-8.920559359981205
 21
65.66463801738983
  0
LINE
  8
0
 10
-8.920559359981205
 20
65.66463801738983
 11
-9.032341164762785
 21
65.85775210179173
  0
LINE
  8
0
 10
-9.032341164762785
 20
65.85775210179173
 11
-9.275434518381294
 21
66.48761417487735
  0
LINE
  8
0
 10
-9.275434518381294
 20
66.48761417487735
 11
-9.54897805004823
 21
67.121977553852
  0
LINE
  8
0
 10
-9.54897805004823
 20
67.121977553852
 11
-9.88912382011917
 21
67.83356080558892
  0
LINE
  8
0
 10
-9.88912382011917
 20
67.83356080558892
 11
-10.302208234247328
 21
68.6180202026797
  0
LINE
  8
0
 10
-10.302208234247328
 20
68.6180202026797
 11
-10.79432591260684
 21
69.47063933244537
  0
LINE
  8
0
 10
-10.79432591260684
 20
69.47063933244537
 11
-11.341909143482479
 21
70.33968026709334
  0
LINE
  8
0
 10
-11.341909143482479
 20
70.33968026709334
 11
-12.381360693897038
 21
70.21818580542761
  0
LINE
  8
0
 10
-12.381360693897038
 20
70.21818580542761
 11
-13.39967919867833
 21
69.97683988626848
  0
LINE
  8
0
 10
-13.39967919867833
 20
69.97683988626848
 11
-13.617009614976643
 21
68.97292403770003
  0
LINE
  8
0
 10
-13.617009614976643
 20
68.97292403770003
 11
-13.787836048922523
 21
68.00340997424556
  0
LINE
  8
0
 10
-13.787836048922523
 20
68.00340997424556
 11
-13.907707509213257
 21
67.12497607696633
  0
LINE
  8
0
 10
-13.907707509213257
 20
67.12497607696633
 11
-13.983964173593172
 21
66.3399698412033
  0
LINE
  8
0
 10
-13.983964173593172
 20
66.3399698412033
 11
-14.024045957967484
 21
65.65030585717851
  0
LINE
  8
0
 10
-14.024045957967484
 20
65.65030585717851
 11
-14.037053472035375
 21
64.97528629134031
  0
LINE
  8
0
 10
-14.037053472035375
 20
64.97528629134031
 11
-14.076045102279728
 21
64.75558678236506
  0
LINE
  8
0
 10
-14.076045102279728
 20
64.75558678236506
 11
-14.149323650915523
 21
64.63771572484353
  0
LINE
  8
0
 10
-14.149323650915523
 20
64.63771572484353
 11
-16.365056374381464
 21
64.11257742258836
  0
LINE
  8
0
 10
-16.365056374381464
 20
64.11257742258836
 11
-16.483440911264413
 21
64.18502349438411
  0
LINE
  8
0
 10
-16.483440911264413
 20
64.18502349438411
 11
-16.616886064287947
 21
64.36385473496902
  0
LINE
  8
0
 10
-16.616886064287947
 20
64.36385473496902
 11
-16.93145823117544
 21
64.96123649021848
  0
LINE
  8
0
 10
-16.93145823117544
 20
64.96123649021848
 11
-17.27679725261874
 21
65.55955406523157
  0
LINE
  8
0
 10
-17.27679725261874
 20
65.55955406523157
 11
-17.697252852013712
 21
66.22683733190851
  0
LINE
  8
0
 10
-17.697252852013712
 20
66.22683733190851
 11
-18.198614314532346
 21
66.95803632177436
  0
LINE
  8
0
 10
-18.198614314532346
 20
66.95803632177436
 11
-18.786387508615338
 21
67.74775897062884
  0
LINE
  8
0
 10
-18.786387508615338
 20
67.74775897062884
 11
-19.43115767217471
 21
68.54735322837081
  0
LINE
  8
0
 10
-19.43115767217471
 20
68.54735322837081
 11
-20.449476176955944
 21
68.30600730921158
  0
LINE
  8
0
 10
-20.449476176955944
 20
68.30600730921158
 11
-21.432890625235686
 21
67.94807372209037
  0
LINE
  8
0
 10
-21.432890625235686
 20
67.94807372209037
 11
-21.53220401461039
 21
66.92571547199104
  0
LINE
  8
0
 10
-21.53220401461039
 20
66.92571547199104
 11
-21.589321668409884
 21
65.9429251772714
  0
LINE
  8
0
 10
-21.589321668409884
 20
65.9429251772714
 11
-21.606402649767652
 21
65.05651470860734
  0
LINE
  8
0
 10
-21.606402649767652
 20
65.05651470860734
 11
-21.591010032347032
 21
64.26796354579155
  0
LINE
  8
0
 10
-21.591010032347032
 20
64.26796354579155
 11
-21.550755696361684
 21
63.578309611753646
  0
LINE
  8
0
 10
-21.550755696361684
 20
63.578309611753646
 11
-21.485310269783074
 21
62.906344206523165
  0
LINE
  8
0
 10
-21.485310269783074
 20
62.906344206523165
 11
-21.498532696343837
 21
62.683603575050306
  0
LINE
  8
0
 10
-21.498532696343837
 20
62.683603575050306
 11
-21.557631767089873
 21
62.55802239919833
  0
LINE
  8
0
 10
-21.557631767089873
 20
62.55802239919833
 11
-23.697417662712688
 21
61.77920402548922
  0
LINE
  8
0
 10
-23.697417662712688
 20
61.77920402548922
 11
-23.823412201300044
 21
61.837416636990376
  0
LINE
  8
0
 10
-23.823412201300044
 20
61.837416636990376
 11
-23.976716085793893
 21
61.9995466480115
  0
LINE
  8
0
 10
-23.976716085793893
 20
61.9995466480115
 11
-24.358513017036707
 21
62.556369521983804
  0
LINE
  8
0
 10
-24.358513017036707
 20
62.556369521983804
 11
-24.770977410414865
 21
63.110550074237445
  0
LINE
  8
0
 10
-24.770977410414865
 20
63.110550074237445
 11
-25.26605689843686
 21
63.72450949438629
  0
LINE
  8
0
 10
-25.26605689843686
 20
63.72450949438629
 11
-25.84891535564292
 21
64.39255986504934
  0
LINE
  8
0
 10
-25.84891535564292
 20
64.39255986504934
 11
-26.524395441314866
 21
65.10870638892341
  0
LINE
  8
0
 10
-26.524395441314866
 20
65.10870638892341
 11
-27.257633127188626
 21
65.82804082911426
  0
LINE
  8
0
 10
-27.257633127188626
 20
65.82804082911426
 11
-28.241047575468308
 21
65.47010724199313
  0
LINE
  8
0
 10
-28.241047575468308
 20
65.47010724199313
 11
-29.176258973865174
 21
65.00042642464653
  0
LINE
  8
0
 10
-29.176258973865174
 20
65.00042642464653
 11
-29.156212293095514
 21
63.97345141450984
  0
LINE
  8
0
 10
-29.156212293095514
 20
63.97345141450984
 11
-29.098848748465404
 21
62.9906754413002
  0
LINE
  8
0
 10
-29.098848748465404
 20
62.9906754413002
 11
-29.012908259919488
 21
62.1082755822171
  0
LINE
  8
0
 10
-29.012908259919488
 20
62.1082755822171
 11
-28.906074519443155
 21
61.32684329407881
  0
LINE
  8
0
 10
-28.906074519443155
 20
61.32684329407881
 11
-28.786028433936693
 21
60.646525796395466
  0
LINE
  8
0
 10
-28.786028433936693
 20
60.646525796395466
 11
-28.643015103835484
 21
59.98670173113262
  0
LINE
  8
0
 10
-28.643015103835484
 20
59.98670173113262
 11
-28.63028951607628
 21
59.763932162094875
  0
LINE
  8
0
 10
-28.63028951607628
 20
59.763932162094875
 11
-28.67440989538422
 21
59.63233913788334
  0
LINE
  8
0
 10
-28.67440989538422
 20
59.63233913788334
 11
-30.709312029693834
 21
58.61037287517434
  0
LINE
  8
0
 10
-30.709312029693834
 20
58.61037287517434
 11
-30.841212709992806
 21
58.65356480067316
  0
LINE
  8
0
 10
-30.841212709992806
 20
58.65356480067316
 11
-31.012302153909534
 21
58.79680105186284
  0
LINE
  8
0
 10
-31.012302153909534
 20
58.79680105186284
 11
-31.456160700979087
 21
59.305534970408196
  0
LINE
  8
0
 10
-31.456160700979087
 20
59.305534970408196
 11
-31.930172592947695
 21
59.808084158620964
  0
LINE
  8
0
 10
-31.930172592947695
 20
59.808084158620964
 11
-32.4931808688221
 21
60.360416984321695
  0
LINE
  8
0
 10
-32.4931808688221
 20
60.360416984321695
 11
-33.14965415996616
 21
60.95628450054836
  0
LINE
  8
0
 10
-33.14965415996616
 20
60.95628450054836
 11
-33.903706427843545
 21
61.589170246244436
  0
LINE
  8
0
 10
-33.903706427843545
 20
61.589170246244436
 11
-34.715495854187644
 21
62.21851710458718
  0
LINE
  8
0
 10
-34.715495854187644
 20
62.21851710458718
 11
-35.65070725258452
 21
61.74883628724063
  0
LINE
  8
0
 10
-35.65070725258452
 20
61.74883628724063
 11
-36.52506847127534
 21
61.17375986699349
  0
LINE
  8
0
 10
-36.52506847127534
 20
61.17375986699349
 11
-36.38593281732895
 21
60.1560561720724
  0
LINE
  8
0
 10
-36.38593281732895
 20
60.1560561720724
 11
-36.21486381780412
 21
59.18658487947408
  0
LINE
  8
0
 10
-36.21486381780412
 20
59.18658487947408
 11
-36.02706405703258
 21
58.3201285743233
  0
LINE
  8
0
 10
-36.02706405703258
 20
58.3201285743233
 11
-35.83023393656891
 21
57.556382692025096
  0
LINE
  8
0
 10
-35.83023393656891
 20
57.556382692025096
 11
-35.63201951891068
 21
56.894601757778744
  0
LINE
  8
0
 10
-35.63201951891068
 20
56.894601757778744
 11
-35.41337229523943
 21
56.25584202104867
  0
LINE
  8
0
 10
-35.41337229523943
 20
56.25584202104867
 11
-35.37487078490416
 21
56.03605609070966
  0
LINE
  8
0
 10
-35.37487078490416
 20
56.03605609070966
 11
-35.40341582033166
 21
55.900230788045334
  0
LINE
  8
0
 10
-35.40341582033166
 20
55.900230788045334
 11
-37.30591563280336
 21
54.648936976872925
  0
LINE
  8
0
 10
-37.30591563280336
 20
54.648936976872925
 11
-37.4419387243864
 21
54.67652411967207
  0
LINE
  8
0
 10
-37.4419387243864
 20
54.67652411967207
 11
-37.62850003649821
 21
54.79892958645247
  0
LINE
  8
0
 10
-37.62850003649821
 20
54.79892958645247
 11
-38.128417773977574
 21
55.252694796047386
  0
LINE
  8
0
 10
-38.128417773977574
 20
55.252694796047386
 11
-38.657566966857516
 21
55.69681650456373
  0
LINE
  8
0
 10
-38.657566966857516
 20
55.69681650456373
 11
-39.280890309484754
 21
56.18005338186681
  0
LINE
  8
0
 10
-39.280890309484754
 20
56.18005338186681
 11
-40.00210075947344
 21
56.69567995770126
  0
LINE
  8
0
 10
-40.00210075947344
 20
56.69567995770126
 11
-40.82452794619774
 21
57.236746231214084
  0
LINE
  8
0
 10
-40.82452794619774
 20
57.236746231214084
 11
-41.70389105363259
 21
57.76759467108415
  0
LINE
  8
0
 10
-41.70389105363259
 20
57.76759467108415
 11
-42.57825227232333
 21
57.19251825083696
  0
LINE
  8
0
 10
-42.57825227232333
 20
57.19251825083696
 11
-43.37993907577787
 21
56.51982314973868
  0
LINE
  8
0
 10
-43.37993907577787
 20
56.51982314973868
 11
-43.12359601968939
 21
55.5251534666527
  0
LINE
  8
0
 10
-43.12359601968939
 20
55.5251534666527
 11
-42.8411349800223
 21
54.58209729078571
  0
LINE
  8
0
 10
-42.8411349800223
 20
54.58209729078571
 11
-42.55401561662211
 21
53.74330187470258
  0
LINE
  8
0
 10
-42.55401561662211
 20
53.74330187470258
 11
-42.269850905891495
 21
53.007570751108794
  0
LINE
  8
0
 10
-42.269850905891495
 20
53.007570751108794
 11
-41.99614866604667
 21
52.3732758321606
  0
LINE
  8
0
 10
-41.99614866604667
 20
52.3732758321606
 11
-41.70482437741975
 21
51.76421855362053
  0
LINE
  8
0
 10
-41.70482437741975
 20
51.76421855362053
 11
-41.64106761138698
 21
51.55038848964887
  0
LINE
  8
0
 10
-41.64106761138698
 20
51.55038848964887
 11
-41.65365128029843
 21
51.41216771274417
  0
LINE
  8
0
 10
-41.65365128029843
 20
51.41216771274417
 11
-43.39802072467631
 21
49.948467955330074
  0
LINE
  8
0
 10
-43.39802072467631
 20
49.948467955330074
 11
-43.53632674857517
 21
49.9600772466485
  0
LINE
  8
0
 10
-43.53632674857517
 20
49.9600772466485
 11
-43.73583700717868
 21
50.05999660506602
  0
LINE
  8
0
 10
-43.73583700717868
 20
50.05999660506602
 11
-44.28505340526928
 21
50.452656709677626
  0
LINE
  8
0
 10
-44.28505340526928
 20
50.452656709677626
 11
-44.86218406397376
 21
50.832344954273495
  0
LINE
  8
0
 10
-44.86218406397376
 20
50.832344954273495
 11
-45.53739309444595
 21
51.23995093339848
  0
LINE
  8
0
 10
-45.53739309444595
 20
51.23995093339848
 11
-46.31358756916808
 21
51.66836360395163
  0
LINE
  8
0
 10
-46.31358756916808
 20
51.66836360395163
 11
-47.193267757899434
 21
52.11029341212243
  0
LINE
  8
0
 10
-47.193267757899434
 20
52.11029341212243
 11
-48.12831266893027
 21
52.53546461903257
  0
LINE
  8
0
 10
-48.12831266893027
 20
52.53546461903257
 11
-48.929999472384694
 21
51.86276951793427
  0
LINE
  8
0
 10
-48.929999472384694
 20
51.86276951793427
 11
-49.64817042186691
 21
51.1015527832295
  0
LINE
  8
0
 10
-49.64817042186691
 20
51.1015527832295
 11
-49.27808656371761
 21
50.14336831310257
  0
LINE
  8
0
 10
-49.27808656371761
 20
50.14336831310257
 11
-48.88805328491238
 21
49.23948047094785
  0
LINE
  8
0
 10
-48.88805328491238
 20
49.23948047094785
 11
-48.5054971157249
 21
48.439689212994885
  0
LINE
  8
0
 10
-48.5054971157249
 20
48.439689212994885
 11
-48.13784065495997
 21
47.74192234941722
  0
LINE
  8
0
 10
-48.13784065495997
 20
47.74192234941722
 11
-47.79235194619069
 21
47.143691196423255
  0
LINE
  8
0
 10
-47.79235194619069
 20
47.143691196423255
 11
-47.432290253849644
 21
46.572572830937496
  0
LINE
  8
0
 10
-47.432290253849644
 20
46.572572830937496
 11
-47.34414043300627
 21
46.367590318126375
  0
LINE
  8
0
 10
-47.34414043300627
 20
46.367590318126375
 11
-47.340592562866725
 21
46.228843265873415
  0
LINE
  8
0
 10
-47.340592562866725
 20
46.228843265873415
 11
-48.903242034853236
 21
44.57253159048332
  0
LINE
  8
0
 10
-48.903242034853236
 20
44.57253159048332
 11
-49.04196063935644
 21
44.56800603457149
  0
LINE
  8
0
 10
-49.04196063935644
 20
44.56800603457149
 11
-49.25172181046068
 21
44.64408804671358
  0
LINE
  8
0
 10
-49.25172181046068
 20
44.64408804671358
 11
-49.842809659550205
 21
44.970332992029086
  0
LINE
  8
0
 10
-49.842809659550205
 20
44.970332992029086
 11
-50.460117081978595
 21
45.2804531405454
  0
LINE
  8
0
 10
-50.460117081978595
 20
45.2804531405454
 11
-51.17808075646881
 21
45.6069160498661
  0
LINE
  8
0
 10
-51.17808075646881
 20
45.6069160498661
 11
-51.99876255720288
 21
45.942321268703765
  0
LINE
  8
0
 10
-51.99876255720288
 20
45.942321268703765
 11
-52.923799582465875
 21
46.27913826900048
  0
LINE
  8
0
 10
-52.923799582465875
 20
46.27913826900048
 11
-53.90188141872544
 21
46.59288253175151
  0
LINE
  8
0
 10
-53.90188141872544
 20
46.59288253175151
 11
-54.62005236820768
 21
45.831665797046774
  0
LINE
  8
0
 10
-54.62005236820768
 20
45.831665797046774
 11
-55.2449954336366
 21
44.992221579217464
  0
LINE
  8
0
 10
-55.2449954336366
 20
44.992221579217464
 11
-54.76617552273501
 21
44.083480123258035
  0
LINE
  8
0
 10
-54.76617552273501
 20
44.083480123258035
 11
-54.273844535791696
 21
43.23098414727568
  0
LINE
  8
0
 10
-54.273844535791696
 20
43.23098414727568
 11
-53.80102497673622
 21
42.481012852187675
  0
LINE
  8
0
 10
-53.80102497673622
 20
42.481012852187675
 11
-53.3548486888601
 21
41.83064634844822
  0
LINE
  8
0
 10
-53.3548486888601
 20
41.83064634844822
 11
-52.94224565327215
 21
41.276569011496804
  0
LINE
  8
0
 10
-52.94224565327215
 20
41.276569011496804
 11
-52.51831577392587
 21
40.751112955214204
  0
LINE
  8
0
 10
-52.51831577392587
 20
40.751112955214204
 11
-52.40696497337919
 21
40.55775003040519
  0
LINE
  8
0
 10
-52.40696497337919
 20
40.55775003040519
 11
-52.387333543045976
 21
40.42035301866736
  0
LINE
  8
0
 10
-52.387333543045976
 20
40.42035301866736
 11
-53.747130889232494
 21
38.59382819933494
  0
LINE
  8
0
 10
-53.747130889232494
 20
38.59382819933494
 11
-53.88438614318367
 21
38.573228996573036
  0
LINE
  8
0
 10
-53.88438614318367
 20
38.573228996573036
 11
-54.101561566791354
 21
38.62444478374293
  0
LINE
  8
0
 10
-54.101561566791354
 20
38.62444478374293
 11
-54.726527417722565
 21
38.8798626665449
  0
LINE
  8
0
 10
-54.726527417722565
 20
38.8798626665449
 11
-55.37566357996745
 21
39.116220875979074
  0
LINE
  8
0
 10
-55.37566357996745
 20
39.116220875979074
 11
-56.12667267143333
 21
39.35712586468881
  0
LINE
  8
0
 10
-56.12667267143333
 20
39.35712586468881
 11
-56.980743484690805
 21
39.594987851608444
  0
LINE
  8
0
 10
-56.980743484690805
 20
39.594987851608444
 11
-57.93862780760489
 21
39.822137171906206
  0
LINE
  8
0
 10
-57.93862780760489
 20
39.822137171906206
 11
-58.94651969014137
 21
40.02021163756765
  0
LINE
  8
0
 10
-58.94651969014137
 20
40.02021163756765
 11
-59.571462755570295
 21
39.18076741973839
  0
LINE
  8
0
 10
-59.571462755570295
 20
39.18076741973839
 11
-60.09472665406582
 21
38.274447761777665
  0
LINE
  8
0
 10
-60.09472665406582
 20
38.274447761777665
 11
-59.513645908299004
 21
37.42743848924622
  0
LINE
  8
0
 10
-59.513645908299004
 20
37.42743848924622
 11
-58.92567514523014
 21
36.6378629250683
  0
LINE
  8
0
 10
-58.92567514523014
 20
36.6378629250683
 11
-58.36898626972857
 21
35.94785366804765
  0
LINE
  8
0
 10
-58.36898626972857
 20
35.94785366804765
 11
-57.85032392362655
 21
35.353682615416226
  0
LINE
  8
0
 10
-57.85032392362655
 20
35.353682615416226
 11
-57.37618630946239
 21
34.851252039978895
  0
LINE
  8
0
 10
-57.37618630946239
 20
34.851252039978895
 11
-56.89412116748415
 21
34.37856418464927
  0
LINE
  8
0
 10
-56.89412116748415
 20
34.37856418464927
 11
-56.76107521579105
 21
34.19943574968943
  0
LINE
  8
0
 10
-56.76107521579105
 20
34.19943574968943
 11
-56.72562570668204
 21
34.065246837348134
  0
LINE
  8
0
 10
-56.72562570668204
 20
34.065246837348134
 11
-57.864182000671825
 21
32.09320948888095
  0
LINE
  8
0
 10
-57.864182000671825
 20
32.09320948888095
 11
-57.99811776222045
 21
32.056815208148734
  0
LINE
  8
0
 10
-57.99811776222045
 20
32.056815208148734
 11
-58.21977051328823
 21
32.082472164684816
  0
LINE
  8
0
 10
-58.21977051328823
 20
32.082472164684816
 11
-58.87016277504612
 21
32.26360889627361
  0
LINE
  8
0
 10
-58.87016277504612
 20
32.26360889627361
 11
-59.54234922409578
 21
32.42300882731176
  0
LINE
  8
0
 10
-59.54234922409578
 20
32.42300882731176
 11
-60.31624762291923
 21
32.57509806870684
  0
LINE
  8
0
 10
-60.31624762291923
 20
32.57509806870684
 11
-61.19215760609553
 21
32.71220014838377
  0
LINE
  8
0
 10
-61.19215760609553
 20
32.71220014838377
 11
-62.1699354844284
 21
32.82660998379655
  0
LINE
  8
0
 10
-62.1699354844284
 20
32.82660998379655
 11
-63.19400740455284
 21
32.90633603501394
  0
LINE
  8
0
 10
-63.19400740455284
 20
32.90633603501394
 11
-63.71727130304829
 21
32.00001637705326
  0
LINE
  8
0
 10
-63.71727130304829
 20
32.00001637705326
 11
-64.13177978803394
 21
31.03907769755821
  0
LINE
  8
0
 10
-64.13177978803394
 20
31.03907769755821
 11
-63.4562963276538
 21
30.265254955835022
  0
LINE
  8
0
 10
-63.4562963276538
 20
30.265254955835022
 11
-62.780637084375506
 21
29.54927745846287
  0
LINE
  8
0
 10
-62.780637084375506
 20
29.54927745846287
 11
-62.147607154478216
 21
28.928561431011016
  0
LINE
  8
0
 10
-62.147607154478216
 20
28.928561431011016
 11
-61.56347276862441
 21
28.398620973683588
  0
LINE
  8
0
 10
-61.56347276862441
 20
28.398620973683588
 11
-61.03421247374018
 21
27.954631671381573
  0
LINE
  8
0
 10
-61.03421247374018
 20
27.954631671381573
 11
-60.50053117320026
 21
27.541104309359863
  0
LINE
  8
0
 10
-60.50053117320026
 20
27.541104309359863
 11
-60.34758928861922
 21
27.37863276904008
  0
LINE
  8
0
 10
-60.34758928861922
 20
27.37863276904008
 11
-60.29680109453202
 21
27.24946663093581
  0
LINE
  8
0
 10
-60.29680109453202
 20
27.24946663093581
 11
-61.19871931562385
 21
25.158585175473593
  0
LINE
  8
0
 10
-61.19871931562385
 20
25.158585175473593
 11
-61.32752433335963
 21
25.106887986984162
  0
LINE
  8
0
 10
-61.32752433335963
 20
25.106887986984162
 11
-61.55065693867103
 21
25.10663914656339
  0
LINE
  8
0
 10
-61.55065693867103
 20
25.10663914656339
 11
-62.21768017165276
 21
25.211045163381417
  0
LINE
  8
0
 10
-62.21768017165276
 20
25.211045163381417
 11
-62.90382673890882
 21
25.291331205404266
  0
LINE
  8
0
 10
-62.90382673890882
 20
25.291331205404266
 11
-63.690148796855986
 21
25.35254795340147
  0
LINE
  8
0
 10
-63.690148796855986
 20
25.35254795340147
 11
-64.57605277003812
 21
25.387036055404465
  0
LINE
  8
0
 10
-64.57605277003812
 20
25.387036055404465
 11
-65.56050143534752
 21
25.387159209176534
  0
LINE
  8
0
 10
-65.56050143534752
 20
25.387159209176534
 11
-66.58690457711907
 21
25.34745868787588
  0
LINE
  8
0
 10
-66.58690457711907
 20
25.34745868787588
 11
-67.00141306210472
 21
24.386520008380874
  0
LINE
  8
0
 10
-67.00141306210472
 20
24.386520008380874
 11
-67.30156061740367
 21
23.383957354516866
  0
LINE
  8
0
 10
-67.30156061740367
 20
23.383957354516866
 11
-66.5408091974309
 21
22.693785768703304
  0
LINE
  8
0
 10
-66.5408091974309
 20
22.693785768703304
 11
-65.78659860612599
 21
22.061088705541028
  0
LINE
  8
0
 10
-65.78659860612599
 20
22.061088705541028
 11
-65.08578826568217
 21
21.518060027100912
  0
LINE
  8
0
 10
-65.08578826568217
 20
21.518060027100912
 11
-64.44408125557214
 21
21.05951670065852
  0
LINE
  8
0
 10
-64.44408125557214
 20
21.05951670065852
 11
-63.86685561751866
 21
20.679972865148965
  0
LINE
  8
0
 10
-63.86685561751866
 20
20.679972865148965
 11
-63.288775282485176
 21
20.331198244606988
  0
LINE
  8
0
 10
-63.288775282485176
 20
20.331198244606988
 11
-63.11800574163581
 21
20.18758074779278
  0
LINE
  8
0
 10
-63.11800574163581
 20
20.18758074779278
 11
-63.05256568576913
 21
20.065184134360965
  0
LINE
  8
0
 10
-63.05256568576913
 20
20.065184134360965
 11
-63.705648937248895
 21
17.883734156715395
  0
LINE
  8
0
 10
-63.705648937248895
 20
17.883734156715395
 11
-63.82758134426989
 21
17.817433176257378
  0
LINE
  8
0
 10
-63.82758134426989
 20
17.817433176257378
 11
-64.04917631811847
 21
17.791281904019556
  0
LINE
  8
0
 10
-64.04917631811847
 20
17.791281904019556
 11
-64.72381017736558
 21
17.81754529379619
  0
LINE
  8
0
 10
-64.72381017736558
 20
17.81754529379619
 11
-65.41463790757928
 21
17.817631715814784
  0
LINE
  8
0
 10
-65.41463790757928
 20
17.817631715814784
 11
-66.20274996773925
 21
17.78714811891379
  0
LINE
  8
0
 10
-66.20274996773925
 20
17.78714811891379
 11
-67.08666759944391
 21
17.718555850827055
  0
LINE
  8
0
 10
-67.08666759944391
 20
17.718555850827055
 11
-68.06447407233735
 21
17.604390657514916
  0
LINE
  8
0
 10
-68.06447407233735
 20
17.604390657514916
 11
-69.07932809404156
 21
17.44580044514118
  0
LINE
  8
0
 10
-69.07932809404156
 20
17.44580044514118
 11
-69.37947564934058
 21
16.443237791277227
  0
LINE
  8
0
 10
-69.37947564934058
 20
16.443237791277227
 11
-69.56120329416595
 21
15.412609103057765
  0
LINE
  8
0
 10
-69.56120329416595
 20
15.412609103057765
 11
-68.72547177249868
 21
14.815422059873672
  0
LINE
  8
0
 10
-68.72547177249868
 20
14.815422059873672
 11
-67.90290923757844
 21
14.274561573318923
  0
LINE
  8
0
 10
-67.90290923757844
 20
14.274561573318923
 11
-67.14379574421376
 21
13.816563775209495
  0
LINE
  8
0
 10
-67.14379574421376
 20
13.816563775209495
 11
-66.45319409632121
 21
13.435618591518594
  0
LINE
  8
0
 10
-66.45319409632121
 20
13.435618591518594
 11
-65.83580910163187
 21
13.12565290207543
  0
LINE
  8
0
 10
-65.83580910163187
 20
13.12565290207543
 11
-65.22114727694864
 21
12.846347601438772
  0
LINE
  8
0
 10
-65.22114727694864
 20
12.846347601438772
 11
-65.03485944491854
 21
12.72352632840105
  0
LINE
  8
0
 10
-65.03485944491854
 20
12.72352632840105
 11
-64.95565249176663
 21
12.609554443868937
  0
LINE
  8
0
 10
-64.95565249176663
 20
12.609554443868937
 11
-65.35106894301187
 21
10.36703631274539
  0
LINE
  8
0
 10
-65.35106894301187
 20
10.36703631274539
 11
-65.46447981268618
 21
10.287028147341218
  0
LINE
  8
0
 10
-65.46447981268618
 20
10.287028147341218
 11
-65.68154046319324
 21
10.235328094381273
  0
LINE
  8
0
 10
-65.68154046319324
 20
10.235328094381273
 11
-66.35466168308294
 21
10.183093689824208
  0
LINE
  8
0
 10
-66.35466168308294
 20
10.183093689824208
 11
-67.04082831630694
 21
10.102979323129002
  0
LINE
  8
0
 10
-67.04082831630694
 20
10.102979323129002
 11
-67.8200725150596
 21
9.981207619683783
  0
LINE
  8
0
 10
-67.8200725150596
 20
9.981207619683783
 11
-68.69005033566445
 21
9.810462574264253
  0
LINE
  8
0
 10
-68.69005033566445
 20
9.810462574264253
 11
-69.6479914610073
 21
9.583552922258898
  0
LINE
  8
0
 10
-69.6479914610073
 20
9.583552922258898
 11
-70.63757220296645
 21
9.308217679375524
  0
LINE
  8
0
 10
-70.63757220296645
 20
9.308217679375524
 11
-70.81929984779171
 21
8.27758899115607
  0
LINE
  8
0
 10
-70.81929984779171
 20
8.27758899115607
 11
-70.8801500274978
 21
7.232831753562321
  0
LINE
  8
0
 10
-70.8801500274978
 20
7.232831753562321
 11
-69.98074023928281
 21
6.736705183302054
  0
LINE
  8
0
 10
-69.98074023928281
 20
6.736705183302054
 11
-69.10094950793923
 21
6.294995483598037
  0
LINE
  8
0
 10
-69.10094950793923
 20
6.294995483598037
 11
-68.2937985694045
 21
5.928222200350891
  0
LINE
  8
0
 10
-68.2937985694045
 20
5.928222200350891
 11
-67.56364148630118
 21
5.630026789515568
  0
LINE
  8
0
 10
-67.56364148630118
 20
5.630026789515568
 11
-66.9144462079151
 21
5.393831000347368
  0
LINE
  8
0
 10
-66.9144462079151
 20
5.393831000347368
 11
-66.27151514031856
 21
5.187772144663399
  0
LINE
  8
0
 10
-66.27151514031856
 20
5.187772144663399
 11
-66.07222824046215
 21
5.087408042422084
  0
LINE
  8
0
 10
-66.07222824046215
 20
5.087408042422084
 11
-65.98032552818812
 21
4.983402161011043
  0
LINE
  8
0
 10
-65.98032552818812
 20
4.983402161011043
 11
-66.11272785002629
 21
2.710142087129241
  0
LINE
  8
0
 10
-66.11272785002629
 20
2.710142087129241
 11
-66.21608349489611
 21
2.6175087099632885
  0
LINE
  8
0
 10
-66.21608349489611
 20
2.6175087099632885
 11
-66.4256744491276
 21
2.540959030806898
  0
LINE
  8
0
 10
-66.4256744491276
 20
2.540959030806898
 11
-67.08818021988945
 21
2.4109332126304857
  0
LINE
  8
0
 10
-67.08818021988945
 20
2.4109332126304857
 11
-67.76040652951725
 21
2.251701466596131
  0
LINE
  8
0
 10
-67.76040652951725
 20
2.251701466596131
 11
-68.52024492585534
 21
2.040288409998385
  0
LINE
  8
0
 10
-68.52024492585534
 20
2.040288409998385
 11
-69.3645179777696
 21
1.7696996210749847
  0
LINE
  8
0
 10
-69.3645179777696
 20
1.7696996210749847
 11
-70.28963924517414
 21
1.433114074159938
  0
LINE
  8
0
 10
-70.28963924517414
 20
1.433114074159938
 11
-71.240564325463
 21
1.044757237593728
  0
LINE
  8
0
 10
-71.240564325463
 20
1.044757237593728
 11
-71.30141450516909
 21
2.220446049250313e-14
  0
LINE
  8
0
 10
-71.30141450516909
 20
2.220446049250313e-14
 11
-71.24056432546304
 21
-1.0447572375937244
  0
LINE
  8
0
 10
-71.24056432546304
 20
-1.0447572375937244
 11
-70.28963924516285
 21
-1.4331140741645363
  0
LINE
  8
0
 10
-70.28963924516285
 20
-1.4331140741645363
 11
-69.36451797777055
 21
-1.7696996210751974
  0
LINE
  8
0
 10
-69.36451797777055
 20
-1.7696996210751974
 11
-68.52024492585501
 21
-2.040288409997801
  0
LINE
  8
0
 10
-68.52024492585501
 20
-2.040288409997801
 11
-67.76040652951717
 21
-2.2517014665954194
  0
LINE
  8
0
 10
-67.76040652951717
 20
-2.2517014665954194
 11
-67.08818021989052
 21
-2.410933212630224
  0
LINE
  8
0
 10
-67.08818021989052
 20
-2.410933212630224
 11
-66.42567444913198
 21
-2.540959030829025
  0
LINE
  8
0
 10
-66.42567444913198
 20
-2.540959030829025
 11
-66.21608349489637
 21
-2.6175087099641208
  0
LINE
  8
0
 10
-66.21608349489637
 20
-2.6175087099641208
 11
-66.1127278500261
 21
-2.7101420871284216
  0
LINE
  8
0
 10
-66.1127278500261
 20
-2.7101420871284216
 11
-65.9803255281884
 21
-4.983402161010251
  0
LINE
  8
0
 10
-65.9803255281884
 20
-4.983402161010251
 11
-66.0722282404618
 21
-5.087408042422882
  0
LINE
  8
0
 10
-66.0722282404618
 20
-5.087408042422882
 11
-66.27151514031164
 21
-5.187772144684869
  0
LINE
  8
0
 10
-66.27151514031164
 20
-5.187772144684869
 11
-66.91444620791408
 21
-5.393831000346987
  0
LINE
  8
0
 10
-66.91444620791408
 20
-5.393831000346987
 11
-67.56364148630135
 21
-5.630026789514873
  0
LINE
  8
0
 10
-67.56364148630135
 20
-5.630026789514873
 11
-68.2937985694049
 21
-5.928222200350352
  0
LINE
  8
0
 10
-68.2937985694049
 20
-5.928222200350352
 11
-69.10094950793827
 21
-6.294995483598138
  0
LINE
  8
0
 10
-69.10094950793827
 20
-6.294995483598138
 11
-69.9807402392935
 21
-6.736705183307934
  0
LINE
  8
0
 10
-69.9807402392935
 20
-6.736705183307934
 11
-70.88015002749786
 21
-7.2328317535623174
  0
LINE
  8
0
 10
-70.88015002749786
 20
-7.2328317535623174
 11
-70.81929984779177
 21
-8.277588991156051
  0
LINE
  8
0
 10
-70.81929984779177
 20
-8.277588991156051
 11
-70.63757220296651
 21
-9.308217679375561
  0
LINE
  8
0
 10
-70.63757220296651
 20
-9.308217679375561
 11
-69.64799146099553
 21
-9.583552922262182
  0
LINE
  8
0
 10
-69.64799146099553
 20
-9.583552922262182
 11
-68.69005033566536
 21
-9.810462574264605
  0
LINE
  8
0
 10
-68.69005033566536
 20
-9.810462574264605
 11
-67.82007251505934
 21
-9.981207619683193
  0
LINE
  8
0
 10
-67.82007251505934
 20
-9.981207619683193
 11
-67.04082831630694
 21
-10.102979323128316
  0
LINE
  8
0
 10
-67.04082831630694
 20
-10.102979323128316
 11
-66.35466168308402
 21
-10.183093689824101
  0
LINE
  8
0
 10
-66.35466168308402
 20
-10.183093689824101
 11
-65.68154046319503
 21
-10.235328094403789
  0
LINE
  8
0
 10
-65.68154046319503
 20
-10.235328094403789
 11
-65.46447981268633
 21
-10.287028147342102
  0
LINE
  8
0
 10
-65.46447981268633
 20
-10.287028147342102
 11
-65.35106894301177
 21
-10.367036312744583
  0
LINE
  8
0
 10
-65.35106894301177
 20
-10.367036312744583
 11
-64.95565249176698
 21
-12.609554443868213
  0
LINE
  8
0
 10
-64.95565249176698
 20
-12.609554443868213
 11
-65.0348594449181
 21
-12.72352632840183
  0
LINE
  8
0
 10
-65.0348594449181
 20
-12.72352632840183
 11
-65.22114727693926
 21
-12.84634760145932
  0
LINE
  8
0
 10
-65.22114727693926
 20
-12.84634760145932
 11
-65.83580910163087
 21
-13.12565290207496
  0
LINE
  8
0
 10
-65.83580910163087
 20
-13.12565290207496
 11
-66.45319409632147
 21
-13.435618591517951
  0
LINE
  8
0
 10
-66.45319409632147
 20
-13.435618591517951
 11
-67.14379574421422
 21
-13.816563775209037
  0
LINE
  8
0
 10
-67.14379574421422
 20
-13.816563775209037
 11
-67.90290923757745
 21
-14.274561573318941
  0
LINE
  8
0
 10
-67.90290923757745
 20
-14.274561573318941
 11
-68.72547177250861
 21
-14.815422059880781
  0
LINE
  8
0
 10
-68.72547177250861
 20
-14.815422059880781
 11
-69.56120329416584
 21
-15.41260910305777
  0
LINE
  8
0
 10
-69.56120329416584
 20
-15.41260910305777
 11
-69.37947564934055
 21
-16.443237791277216
  0
LINE
  8
0
 10
-69.37947564934055
 20
-16.443237791277216
 11
-69.07932809404161
 21
-17.44580044514122
  0
LINE
  8
0
 10
-69.07932809404161
 20
-17.44580044514122
 11
-68.06447407232528
 21
-17.60439065751681
  0
LINE
  8
0
 10
-68.06447407232528
 20
-17.60439065751681
 11
-67.08666759944478
 21
-17.71855585082751
  0
LINE
  8
0
 10
-67.08666759944478
 20
-17.71855585082751
 11
-66.20274996773907
 21
-17.787148118913173
  0
LINE
  8
0
 10
-66.20274996773907
 20
-17.787148118913173
 11
-65.41463790757935
 21
-17.817631715814098
  0
LINE
  8
0
 10
-65.41463790757935
 20
-17.817631715814098
 11
-64.72381017736667
 21
-17.817545293796208
  0
LINE
  8
0
 10
-64.72381017736667
 20
-17.817545293796208
 11
-64.04917631811763
 21
-17.791281904042123
  0
LINE
  8
0
 10
-64.04917631811763
 20
-17.791281904042123
 11
-63.827581344269944
 21
-17.817433176258273
  0
LINE
  8
0
 10
-63.827581344269944
 20
-17.817433176258273
 11
-63.70564893724891
 21
-17.88373415671458
  0
LINE
  8
0
 10
-63.70564893724891
 20
-17.88373415671458
 11
-63.052565685769586
 21
-20.06518413436028
  0
LINE
  8
0
 10
-63.052565685769586
 20
-20.06518413436028
 11
-63.11800574163528
 21
-20.1875807477935
  0
LINE
  8
0
 10
-63.11800574163528
 20
-20.1875807477935
 11
-63.28877528247349
 21
-20.331198244626307
  0
LINE
  8
0
 10
-63.28877528247349
 20
-20.331198244626307
 11
-63.86685561751774
 21
-20.679972865148383
  0
LINE
  8
0
 10
-63.86685561751774
 20
-20.679972865148383
 11
-64.44408125557247
 21
-21.05951670065791
  0
LINE
  8
0
 10
-64.44408125557247
 20
-21.05951670065791
 11
-65.08578826568268
 21
-21.5180600271005
  0
LINE
  8
0
 10
-65.08578826568268
 20
-21.5180600271005
 11
-65.78659860612501
 21
-22.06108870554093
  0
LINE
  8
0
 10
-65.78659860612501
 20
-22.06108870554093
 11
-66.54080919743994
 21
-22.693785768711518
  0
LINE
  8
0
 10
-66.54080919743994
 20
-22.693785768711518
 11
-67.30156061740371
 21
-23.383957354516905
  0
LINE
  8
0
 10
-67.30156061740371
 20
-23.383957354516905
 11
-67.00141306210469
 21
-24.38652000838085
  0
LINE
  8
0
 10
-67.00141306210469
 20
-24.38652000838085
 11
-66.58690457711904
 21
-25.347458687875893
  0
LINE
  8
0
 10
-66.58690457711904
 20
-25.347458687875893
 11
-65.56050143533531
 21
-25.387159209177018
  0
LINE
  8
0
 10
-65.56050143533531
 20
-25.387159209177018
 11
-64.57605277003893
 21
-25.38703605540502
  0
LINE
  8
0
 10
-64.57605277003893
 20
-25.38703605540502
 11
-63.690148796855865
 21
-25.35254795340083
  0
LINE
  8
0
 10
-63.690148796855865
 20
-25.35254795340083
 11
-62.90382673890897
 21
-25.291331205403594
  0
LINE
  8
0
 10
-62.90382673890897
 20
-25.291331205403594
 11
-62.21768017165384
 21
-25.211045163381566
  0
LINE
  8
0
 10
-62.21768017165384
 20
-25.211045163381566
 11
-61.55065693866758
 21
-25.10663914658571
  0
LINE
  8
0
 10
-61.55065693866758
 20
-25.10663914658571
 11
-61.32752433335957
 21
-25.10688798698506
  0
LINE
  8
0
 10
-61.32752433335957
 20
-25.10688798698506
 11
-61.19871931562394
 21
-25.158585175472787
  0
LINE
  8
0
 10
-61.19871931562394
 20
-25.158585175472787
 11
-60.29680109453254
 21
-27.249466630935185
  0
LINE
  8
0
 10
-60.29680109453254
 20
-27.249466630935185
 11
-60.347589288618614
 21
-27.37863276904074
  0
LINE
  8
0
 10
-60.347589288618614
 20
-27.37863276904074
 11
-60.5005311731864
 21
-27.541104309377694
  0
LINE
  8
0
 10
-60.5005311731864
 20
-27.541104309377694
 11
-61.034212473739345
 21
-27.95463167138089
  0
LINE
  8
0
 10
-61.034212473739345
 20
-27.95463167138089
 11
-61.5634727686248
 21
-28.39862097368302
  0
LINE
  8
0
 10
-61.5634727686248
 20
-28.39862097368302
 11
-62.14760715447876
 21
-28.92856143101067
  0
LINE
  8
0
 10
-62.14760715447876
 20
-28.92856143101067
 11
-62.78063708437455
 21
-29.549277458462665
  0
LINE
  8
0
 10
-62.78063708437455
 20
-29.549277458462665
 11
-63.45629632766182
 21
-30.26525495584423
  0
LINE
  8
0
 10
-63.45629632766182
 20
-30.26525495584423
 11
-64.13177978803394
 21
-31.03907769755824
  0
LINE
  8
0
 10
-64.13177978803394
 20
-31.03907769755824
 11
-63.7172713030483
 21
-32.00001637705325
  0
LINE
  8
0
 10
-63.7172713030483
 20
-32.00001637705325
 11
-63.194007404552835
 21
-32.90633603501399
  0
LINE
  8
0
 10
-63.194007404552835
 20
-32.90633603501399
 11
-62.169935484416214
 21
-32.82660998379565
  0
LINE
  8
0
 10
-62.169935484416214
 20
-32.82660998379565
 11
-61.19215760609626
 21
-32.71220014838445
  0
LINE
  8
0
 10
-61.19215760609626
 20
-32.71220014838445
 11
-60.316247622919164
 21
-32.575098068706225
  0
LINE
  8
0
 10
-60.316247622919164
 20
-32.575098068706225
 11
-59.542349224096
 21
-32.42300882731114
  0
LINE
  8
0
 10
-59.542349224096
 20
-32.42300882731114
 11
-58.870162775047156
 21
-32.26360889627391
  0
LINE
  8
0
 10
-58.870162775047156
 20
-32.26360889627391
 11
-58.21977051328219
 21
-32.08247216470661
  0
LINE
  8
0
 10
-58.21977051328219
 20
-32.08247216470661
 11
-57.99811776222028
 21
-32.05681520814964
  0
LINE
  8
0
 10
-57.99811776222028
 20
-32.05681520814964
 11
-57.864182000672
 21
-32.09320948888018
  0
LINE
  8
0
 10
-57.864182000672
 20
-32.09320948888018
 11
-56.725625706682614
 21
-34.06524683734759
  0
LINE
  8
0
 10
-56.725625706682614
 20
-34.06524683734759
 11
-56.76107521579036
 21
-34.19943574969003
  0
LINE
  8
0
 10
-56.76107521579036
 20
-34.19943574969003
 11
-56.8941211674683
 21
-34.378564184665386
  0
LINE
  8
0
 10
-56.8941211674683
 20
-34.378564184665386
 11
-57.376186309461616
 21
-34.851252039978135
  0
LINE
  8
0
 10
-57.376186309461616
 20
-34.851252039978135
 11
-57.85032392362698
 21
-35.35368261541573
  0
LINE
  8
0
 10
-57.85032392362698
 20
-35.35368261541573
 11
-58.36898626972915
 21
-35.9478536680474
  0
LINE
  8
0
 10
-58.36898626972915
 20
-35.9478536680474
 11
-58.9256751452292
 21
-36.63786292506801
  0
LINE
  8
0
 10
-58.9256751452292
 20
-36.63786292506801
 11
-59.5136459083059
 21
-37.42743848925634
  0
LINE
  8
0
 10
-59.5136459083059
 20
-37.42743848925634
 11
-60.0947266540658
 21
-38.27444776177773
  0
LINE
  8
0
 10
-60.0947266540658
 20
-38.27444776177773
 11
-59.571462755570344
 21
-39.18076741973843
  0
LINE
  8
0
 10
-59.571462755570344
 20
-39.18076741973843
 11
-58.94651969014138
 21
-40.02021163756772
  0
LINE
  8
0
 10
-58.94651969014138
 20
-40.02021163756772
 11
-57.93862780759289
 21
-39.82213717190388
  0
LINE
  8
0
 10
-57.93862780759289
 20
-39.82213717190388
 11
-56.98074348469145
 21
-39.59498785160919
  0
LINE
  8
0
 10
-56.98074348469145
 20
-39.59498785160919
 11
-56.12667267143334
 21
-39.357125864688186
  0
LINE
  8
0
 10
-56.12667267143334
 20
-39.357125864688186
 11
-55.37566357996775
 21
-39.11622087597848
  0
LINE
  8
0
 10
-55.37566357996775
 20
-39.11622087597848
 11
-54.72652741772356
 21
-38.87986266654531
  0
LINE
  8
0
 10
-54.72652741772356
 20
-38.87986266654531
 11
-54.10156156678283
 21
-38.62444478376386
  0
LINE
  8
0
 10
-54.10156156678283
 20
-38.62444478376386
 11
-53.88438614318339
 21
-38.57322899657392
  0
LINE
  8
0
 10
-53.88438614318339
 20
-38.57322899657392
 11
-53.747130889232764
 21
-38.5938281993342
  0
LINE
  8
0
 10
-53.747130889232764
 20
-38.5938281993342
 11
-52.387333543046616
 21
-40.420353018666894
  0
LINE
  8
0
 10
-52.387333543046616
 20
-40.420353018666894
 11
-52.40696497337842
 21
-40.5577500304057
  0
LINE
  8
0
 10
-52.40696497337842
 20
-40.5577500304057
 11
-52.51831577390825
 21
-40.75111295522837
  0
LINE
  8
0
 10
-52.51831577390825
 20
-40.75111295522837
 11
-52.94224565327147
 21
-41.27656901149596
  0
LINE
  8
0
 10
-52.94224565327147
 20
-41.27656901149596
 11
-53.35484868886059
 21
-41.83064634844777
  0
LINE
  8
0
 10
-53.35484868886059
 20
-41.83064634844777
 11
-53.80102497673683
 21
-42.48101285218748
  0
LINE
  8
0
 10
-53.80102497673683
 20
-42.48101285218748
 11
-54.27384453579079
 21
-43.23098414727527
  0
LINE
  8
0
 10
-54.27384453579079
 20
-43.23098414727527
 11
-54.766175522740674
 21
-44.083480123268856
  0
LINE
  8
0
 10
-54.766175522740674
 20
-44.083480123268856
 11
-55.244995433636575
 21
-44.9922215792175
  0
LINE
  8
0
 10
-55.244995433636575
 20
-44.9922215792175
 11
-54.62005236820764
 21
-45.831665797046774
  0
LINE
  8
0
 10
-54.62005236820764
 20
-45.831665797046774
 11
-53.90188141872541
 21
-46.59288253175154
  0
LINE
  8
0
 10
-53.90188141872541
 20
-46.59288253175154
 11
-52.92379958245425
 21
-46.27913826899675
  0
LINE
  8
0
 10
-52.92379958245425
 20
-46.27913826899675
 11
-51.99876255720345
 21
-45.942321268704546
  0
LINE
  8
0
 10
-51.99876255720345
 20
-45.942321268704546
 11
-51.178080756468916
 21
-45.606916049865454
  0
LINE
  8
0
 10
-51.178080756468916
 20
-45.606916049865454
 11
-50.46011708197898
 21
-45.28045314054481
  0
LINE
  8
0
 10
-50.46011708197898
 20
-45.28045314054481
 11
-49.84280965955117
 21
-44.97033299202958
  0
LINE
  8
0
 10
-49.84280965955117
 20
-44.97033299202958
 11
-49.2517218104498
 21
-44.64408804673336
  0
LINE
  8
0
 10
-49.2517218104498
 20
-44.64408804673336
 11
-49.041960639356084
 21
-44.568006034572306
  0
LINE
  8
0
 10
-49.041960639356084
 20
-44.568006034572306
 11
-48.903242034853605
 21
-44.5725315904826
  0
LINE
  8
0
 10
-48.903242034853605
 20
-44.5725315904826
 11
-47.340592562867435
 21
-46.228843265873
  0
LINE
  8
0
 10
-47.340592562867435
 20
-46.228843265873
 11
-47.344140433005464
 21
-46.367590318126766
  0
LINE
  8
0
 10
-47.344140433005464
 20
-46.367590318126766
 11
-47.43229025383052
 21
-46.5725728309495
  0
LINE
  8
0
 10
-47.43229025383052
 20
-46.5725728309495
 11
-47.79235194619013
 21
-47.14369119642232
  0
LINE
  8
0
 10
-47.79235194619013
 20
-47.14369119642232
 11
-48.13784065496053
 21
-47.74192234941681
  0
LINE
  8
0
 10
-48.13784065496053
 20
-47.74192234941681
 11
-48.50549711572553
 21
-48.43968921299474
  0
LINE
  8
0
 10
-48.50549711572553
 20
-48.43968921299474
 11
-48.88805328491155
 21
-49.23948047094732
  0
LINE
  8
0
 10
-48.88805328491155
 20
-49.23948047094732
 11
-49.27808656372199
 21
-50.14336831311397
  0
LINE
  8
0
 10
-49.27808656372199
 20
-50.14336831311397
 11
-49.64817042186692
 21
-51.10155278322954
  0
LINE
  8
0
 10
-49.64817042186692
 20
-51.10155278322954
 11
-48.929999472384736
 21
-51.86276951793423
  0
LINE
  8
0
 10
-48.929999472384736
 20
-51.86276951793423
 11
-48.12831266893028
 21
-52.535464619032616
  0
LINE
  8
0
 10
-48.12831266893028
 20
-52.535464619032616
 11
-47.193267757888314
 21
-52.11029341211738
  0
LINE
  8
0
 10
-47.193267757888314
 20
-52.11029341211738
 11
-46.31358756916857
 21
-51.668363603952486
  0
LINE
  8
0
 10
-46.31358756916857
 20
-51.668363603952486
 11
-45.53739309444613
 21
-51.23995093339785
  0
LINE
  8
0
 10
-45.53739309444613
 20
-51.23995093339785
 11
-44.862184063974205
 21
-50.83234495427296
  0
LINE
  8
0
 10
-44.862184063974205
 20
-50.83234495427296
 11
-44.28505340527019
 21
-50.45265670967823
  0
LINE
  8
0
 10
-44.28505340527019
 20
-50.45265670967823
 11
-43.735837007165586
 21
-50.05999660508441
  0
LINE
  8
0
 10
-43.735837007165586
 20
-50.05999660508441
 11
-43.53632674857472
 21
-49.96007724664927
  0
LINE
  8
0
 10
-43.53632674857472
 20
-49.96007724664927
 11
-43.39802072467677
 21
-49.9484679553294
  0
LINE
  8
0
 10
-43.39802072467677
 20
-49.9484679553294
 11
-41.65365128029919
 21
-51.41216771274384
  0
LINE
  8
0
 10
-41.65365128029919
 20
-51.41216771274384
 11
-41.641067611386156
 21
-51.55038848964917
  0
LINE
  8
0
 10
-41.641067611386156
 20
-51.55038848964917
 11
-41.704824377399376
 21
-51.764218553630236
  0
LINE
  8
0
 10
-41.704824377399376
 20
-51.764218553630236
 11
-41.99614866604624
 21
-52.37327583215961
  0
LINE
  8
0
 10
-41.99614866604624
 20
-52.37327583215961
 11
-42.2698509058921
 21
-53.00757075110845
  0
LINE
  8
0
 10
-42.2698509058921
 20
-53.00757075110845
 11
-42.55401561662277
 21
-53.74330187470252
  0
LINE
  8
0
 10
-42.55401561662277
 20
-53.74330187470252
 11
-42.84113498002154
 21
-54.58209729078509
  0
LINE
  8
0
 10
-42.84113498002154
 20
-54.58209729078509
 11
-43.123596019692435
 21
-55.52515346666452
  0
LINE
  8
0
 10
-43.123596019692435
 20
-55.52515346666452
 11
-43.37993907577787
 21
-56.519823149738706
  0
LINE
  8
0
 10
-43.37993907577787
 20
-56.519823149738706
 11
-42.57825227232344
 21
-57.192518250837
  0
LINE
  8
0
 10
-42.57825227232344
 20
-57.192518250837
 11
-41.70389105363263
 21
-57.76759467108419
  0
LINE
  8
0
 10
-41.70389105363263
 20
-57.76759467108419
 11
-40.82452794618731
 21
-57.23674623120777
  0
LINE
  8
0
 10
-40.82452794618731
 20
-57.23674623120777
 11
-40.00210075947385
 21
-56.69567995770214
  0
LINE
  8
0
 10
-40.00210075947385
 20
-56.69567995770214
 11
-39.28089030948503
 21
-56.18005338186619
  0
LINE
  8
0
 10
-39.28089030948503
 20
-56.18005338186619
 11
-38.65756696685804
 21
-55.69681650456322
  0
LINE
  8
0
 10
-38.65756696685804
 20
-55.69681650456322
 11
-38.12841777397843
 21
-55.252694796048075
  0
LINE
  8
0
 10
-38.12841777397843
 20
-55.252694796048075
 11
-37.62850003648309
 21
-54.7989295864692
  0
LINE
  8
0
 10
-37.62850003648309
 20
-54.7989295864692
 11
-37.441938724385885
 21
-54.67652411967276
  0
LINE
  8
0
 10
-37.441938724385885
 20
-54.67652411967276
 11
-37.30591563280392
 21
-54.64893697687228
  0
LINE
  8
0
 10
-37.30591563280392
 20
-54.64893697687228
 11
-35.40341582033247
 21
-55.90023078804508
  0
LINE
  8
0
 10
-35.40341582033247
 20
-55.90023078804508
 11
-35.37487078490332
 21
-56.03605609070985
  0
LINE
  8
0
 10
-35.37487078490332
 20
-56.03605609070985
 11
-35.41337229521808
 21
-56.255842021055926
  0
LINE
  8
0
 10
-35.41337229521808
 20
-56.255842021055926
 11
-35.63201951891038
 21
-56.89460175777769
  0
LINE
  8
0
 10
-35.63201951891038
 20
-56.89460175777769
 11
-35.83023393656958
 21
-57.55638269202481
  0
LINE
  8
0
 10
-35.83023393656958
 20
-57.55638269202481
 11
-36.02706405703325
 21
-58.32012857432329
  0
LINE
  8
0
 10
-36.02706405703325
 20
-58.32012857432329
 11
-36.21486381780345
 21
-59.18658487947336
  0
LINE
  8
0
 10
-36.21486381780345
 20
-59.18658487947336
 11
-36.38593281733061
 21
-60.156056172084476
  0
LINE
  8
0
 10
-36.38593281733061
 20
-60.156056172084476
 11
-36.525068471275304
 21
-61.17375986699345
  0
LINE
  8
0
 10
-36.525068471275304
 20
-61.17375986699345
 11
-35.650707252584525
 21
-61.748836287240636
  0
LINE
  8
0
 10
-35.650707252584525
 20
-61.748836287240636
 11
-34.71549585418768
 21
-62.21851710458725
  0
LINE
  8
0
 10
-34.71549585418768
 20
-62.21851710458725
 11
-33.90370642783391
 21
-61.58917024623694
  0
LINE
  8
0
 10
-33.90370642783391
 20
-61.58917024623694
 11
-33.14965415996645
 21
-60.95628450054929
  0
LINE
  8
0
 10
-33.14965415996645
 20
-60.95628450054929
 11
-32.493180868822435
 21
-60.36041698432111
  0
LINE
  8
0
 10
-32.493180868822435
 20
-60.36041698432111
 11
-31.930172592948267
 21
-59.80808415862053
  0
LINE
  8
0
 10
-31.930172592948267
 20
-59.80808415862053
 11
-31.456160700979847
 21
-59.305534970408985
  0
LINE
  8
0
 10
-31.456160700979847
 20
-59.305534970408985
 11
-31.012302153892563
 21
-58.79680105187771
  0
LINE
  8
0
 10
-31.012302153892563
 20
-58.79680105187771
 11
-30.841212709992217
 21
-58.65356480067379
  0
LINE
  8
0
 10
-30.841212709992217
 20
-58.65356480067379
 11
-30.709312029694456
 21
-58.61037287517377
  0
LINE
  8
0
 10
-30.709312029694456
 20
-58.61037287517377
 11
-28.674409895385043
 21
-59.632339137883186
  0
LINE
  8
0
 10
-28.674409895385043
 20
-59.632339137883186
 11
-28.63028951607542
 21
-59.76393216209496
  0
LINE
  8
0
 10
-28.63028951607542
 20
-59.76393216209496
 11
-28.643015103813433
 21
-59.98670173113735
  0
LINE
  8
0
 10
-28.643015103813433
 20
-59.98670173113735
 11
-28.78602843393651
 21
-60.646525796394386
  0
LINE
  8
0
 10
-28.78602843393651
 20
-60.646525796394386
 11
-28.906074519443845
 21
-61.326843294078614
  0
LINE
  8
0
 10
-28.906074519443845
 20
-61.326843294078614
 11
-29.01290825992016
 21
-62.108275582217175
  0
LINE
  8
0
 10
-29.01290825992016
 20
-62.108275582217175
 11
-29.09884874846483
 21
-62.990675441299416
  0
LINE
  8
0
 10
-29.09884874846483
 20
-62.990675441299416
 11
-29.15621229309577
 21
-63.97345141452204
  0
LINE
  8
0
 10
-29.15621229309577
 20
-63.97345141452204
 11
-29.17625897386516
 21
-65.00042642464648
  0
LINE
  8
0
 10
-29.17625897386516
 20
-65.00042642464648
 11
-28.241047575468272
 21
-65.470107241993
  0
LINE
  8
0
 10
-28.241047575468272
 20
-65.470107241993
 11
-27.257633127188555
 21
-65.82804082911423
  0
LINE
  8
0
 10
-27.257633127188555
 20
-65.82804082911423
 11
-26.52439544130611
 21
-65.10870638891487
  0
LINE
  8
0
 10
-26.52439544130611
 20
-65.10870638891487
 11
-25.848915355643047
 21
-64.39255986505032
  0
LINE
  8
0
 10
-25.848915355643047
 20
-64.39255986505032
 11
-25.26605689843721
 21
-63.72450949438578
  0
LINE
  8
0
 10
-25.26605689843721
 20
-63.72450949438578
 11
-24.77097741041543
 21
-63.11055007423711
  0
LINE
  8
0
 10
-24.77097741041543
 20
-63.11055007423711
 11
-24.358513017037314
 21
-62.556369521984706
  0
LINE
  8
0
 10
-24.358513017037314
 20
-62.556369521984706
 11
-23.976716085775255
 21
-61.99954664802432
  0
LINE
  8
0
 10
-23.976716085775255
 20
-61.99954664802432
 11
-23.82341220129933
 21
-61.837416636990966
  0
LINE
  8
0
 10
-23.82341220129933
 20
-61.837416636990966
 11
-23.697417662713313
 21
-61.779204025488745
  0
LINE
  8
0
 10
-23.697417662713313
 20
-61.779204025488745
 11
-21.557631767090655
 21
-62.558022399198286
  0
LINE
  8
0
 10
-21.557631767090655
 20
-62.558022399198286
 11
-21.498532696342913
 21
-62.68360357505032
  0
LINE
  8
0
 10
-21.498532696342913
 20
-62.68360357505032
 11
-21.485310269760564
 21
-62.90634420652533
  0
LINE
  8
0
 10
-21.485310269760564
 20
-62.90634420652533
 11
-21.550755696361573
 21
-63.57830961175258
  0
LINE
  8
0
 10
-21.550755696361573
 20
-63.57830961175258
 11
-21.59101003234768
 21
-64.26796354579143
  0
LINE
  8
0
 10
-21.59101003234768
 20
-64.26796354579143
 11
-21.60640264976825
 21
-65.05651470860751
  0
LINE
  8
0
 10
-21.60640264976825
 20
-65.05651470860751
 11
-21.58932166840935
 21
-65.94292517727058
  0
LINE
  8
0
 10
-21.58932166840935
 20
-65.94292517727058
 11
-21.532204014609167
 21
-66.9257154720032
  0
LINE
  8
0
 10
-21.532204014609167
 20
-66.9257154720032
 11
-21.43289062523562
 21
-67.94807372209037
  0
LINE
  8
0
 10
-21.43289062523562
 20
-67.94807372209037
 11
-20.44947617695594
 21
-68.3060073092115
  0
LINE
  8
0
 10
-20.44947617695594
 20
-68.3060073092115
 11
-19.431157672174656
 21
-68.5473532283707
  0
LINE
  8
0
 10
-19.431157672174656
 20
-68.5473532283707
 11
-18.786387508607664
 21
-67.74775897061936
  0
LINE
  8
0
 10
-18.786387508607664
 20
-67.74775897061936
 11
-18.19861431453239
 21
-66.95803632177532
  0
LINE
  8
0
 10
-18.19861431453239
 20
-66.95803632177532
 11
-17.69725285201415
 21
-66.22683733190802
  0
LINE
  8
0
 10
-17.69725285201415
 20
-66.22683733190802
 11
-17.276797252619367
 21
-65.55955406523128
  0
LINE
  8
0
 10
-17.276797252619367
 20
-65.55955406523128
 11
-16.93145823117597
 21
-64.96123649021942
  0
LINE
  8
0
 10
-16.93145823117597
 20
-64.96123649021942
 11
-16.616886064267977
 21
-64.36385473497958
  0
LINE
  8
0
 10
-16.616886064267977
 20
-64.36385473497958
 11
-16.483440911263667
 21
-64.18502349438461
  0
LINE
  8
0
 10
-16.483440911263667
 20
-64.18502349438461
 11
-16.365056374382167
 21
-64.11257742258796
  0
LINE
  8
0
 10
-16.365056374382167
 20
-64.11257742258796
 11
-14.149323650916333
 21
-64.63771572484357
  0
LINE
  8
0
 10
-14.149323650916333
 20
-64.63771572484357
 11
-14.076045102278837
 21
-64.75558678236494
  0
LINE
  8
0
 10
-14.076045102278837
 20
-64.75558678236494
 11
-14.037053472012795
 21
-64.97528629133984
  0
LINE
  8
0
 10
-14.037053472012795
 20
-64.97528629133984
 11
-14.024045957967529
 21
-65.65030585717743
  0
LINE
  8
0
 10
-14.024045957967529
 20
-65.65030585717743
 11
-13.98396417359386
 21
-66.33996984120326
  0
LINE
  8
0
 10
-13.98396417359386
 20
-66.33996984120326
 11
-13.90770750921386
 21
-67.12497607696656
  0
LINE
  8
0
 10
-13.90770750921386
 20
-67.12497607696656
 11
-13.78783604892212
 21
-68.00340997424465
  0
LINE
  8
0
 10
-13.78783604892212
 20
-68.00340997424465
 11
-13.61700961497405
 21
-68.97292403771196
  0
LINE
  8
0
 10
-13.61700961497405
 20
-68.97292403771196
 11
-13.399679198678294
 21
-69.97683988626841
  0
LINE
  8
0
 10
-13.399679198678294
 20
-69.97683988626841
 11
-12.381360693897033
 21
-70.21818580542765
  0
LINE
  8
0
 10
-12.381360693897033
 20
-70.21818580542765
 11
-11.341909143482427
 21
-70.33968026709343
  0
LINE
  8
0
 10
-11.341909143482427
 20
-70.33968026709343
 11
-10.79432591260029
 21
-69.47063933243506
  0
LINE
  8
0
 10
-10.79432591260029
 20
-69.47063933243506
 11
-10.302208234247225
 21
-68.6180202026807
  0
LINE
  8
0
 10
-10.302208234247225
 20
-68.6180202026807
 11
-9.889123820119629
 21
-67.83356080558849
  0
LINE
  8
0
 10
-9.889123820119629
 20
-67.83356080558849
 11
-9.548978050048857
 21
-67.1219775538518
  0
LINE
  8
0
 10
-9.548978050048857
 20
-67.1219775538518
 11
-9.275434518381676
 21
-66.48761417487836
  0
LINE
  8
0
 10
-9.275434518381676
 20
-66.48761417487836
 11
-9.032341164741698
 21
-65.8577521017999
  0
LINE
  8
0
 10
-9.032341164741698
 20
-65.8577521017999
 11
-8.920559359980372
 21
-65.66463801739025
  0
LINE
  8
0
 10
-8.920559359980372
 20
-65.66463801739025
 11
-8.811385772577953
 21
-65.57893819414014
  0
LINE
  8
0
 10
-8.811385772577953
 20
-65.57893819414014
 11
-6.549670205300033
 21
-65.84329483027012
  0
LINE
  8
0
 10
-6.549670205300033
 20
-65.84329483027012
 11
-6.463203145434931
 21
-65.95186176561377
  0
LINE
  8
0
 10
-6.463203145434931
 20
-65.95186176561377
 11
-6.39896960639503
 21
-66.16554909312062
  0
LINE
  8
0
 10
-6.39896960639503
 20
-66.16554909312062
 11
-6.307685056016772
 21
-66.83449433792579
  0
LINE
  8
0
 10
-6.307685056016772
 20
-66.83449433792579
 11
-6.187809188657326
 21
-67.51484184966209
  0
LINE
  8
0
 10
-6.187809188657326
 20
-67.51484184966209
 11
-6.020934483045418
 21
-68.28568729569947
  0
LINE
  8
0
 10
-6.020934483045418
 20
-68.28568729569947
 11
-5.799893599683725
 21
-69.1442653100711
  0
LINE
  8
0
 10
-5.799893599683725
 20
-69.1442653100711
 11
-5.517668520056917
 21
-70.08739212775043
  0
LINE
  8
0
 10
-5.517668520056917
 20
-70.08739212775043
 11
-5.185260097892533
 21
-71.05928933512598
  0
LINE
  8
0
 10
-5.185260097892533
 20
-71.05928933512598
 11
-4.145808547477997
 21
-71.18078379679172
  0
LINE
  8
0
 10
-4.145808547477997
 20
-71.18078379679172
 11
-3.099280750487015
 21
-71.18078379679164
  0
LINE
  8
0
 10
-3.099280750487015
 20
-71.18078379679164
 11
-2.656289576117218
 21
-70.25404847304186
  0
LINE
  8
0
 10
-2.656289576117218
 20
-70.25404847304186
 11
-2.2664824608661407
 21
-69.35006307345274
  0
LINE
  8
0
 10
-2.2664824608661407
 20
-69.35006307345274
 11
-1.9472613531906091
 21
-68.52295173675387
  0
LINE
  8
0
 10
-1.9472613531906091
 20
-68.52295173675387
 11
-1.6920253004694679
 21
-67.77669144272735
  0
LINE
  8
0
 10
-1.6920253004694679
 20
-67.77669144272735
 11
-1.4939764655847803
 21
-67.1148609362528
  0
LINE
  8
0
 10
-1.4939764655847803
 20
-67.1148609362528
 11
-1.3256493457980638
 21
-66.46103634935587
  0
LINE
  8
0
 10
-1.3256493457980638
 20
-66.46103634935587
 11
-1.2370425464292376
 21
-66.25625095783906
  0
LINE
  8
0
 10
-1.2370425464292376
 20
-66.25625095783906
 11
-1.1385562939899825
 21
-66.1584563262283
  0
LINE
  8
0
 10
-1.1385562939899825
 20
-66.1584563262283
 11
1.1385562939891964
 21
-66.15845632622853
  0
LINE
  8
0
 10
1.1385562939891964
 20
-66.15845632622853
 11
1.2370425464300738
 21
-66.25625095783874
  0
LINE
  8
0
 10
1.2370425464300738
 20
-66.25625095783874
 11
1.32564934581992
 21
-66.46103634935021
  0
LINE
  8
0
 10
1.32564934581992
 20
-66.46103634935021
 11
1.4939764655844805
 21
-67.11486093625174
  0
LINE
  8
0
 10
1.4939764655844805
 20
-67.11486093625174
 11
1.6920253004687849
 21
-67.77669144272748
  0
LINE
  8
0
 10
1.6920253004687849
 20
-67.77669144272748
 11
1.9472613531900682
 21
-68.52295173675424
  0
LINE
  8
0
 10
1.9472613531900682
 20
-68.52295173675424
 11
2.266482460866321
 21
-69.35006307345178
  0
LINE
  8
0
 10
2.266482460866321
 20
-69.35006307345178
 11
2.6562895761224885
 21
-70.25404847305288
  0
LINE
  8
0
 10
2.6562895761224885
 20
-70.25404847305288
 11
3.0992807504870328
 21
-71.18078379679156
  0
LINE
  8
0
 10
3.0992807504870328
 20
-71.18078379679156
 11
4.145808547477931
 21
-71.18078379679154
  0
LINE
  8
0
 10
4.145808547477931
 20
-71.18078379679154
 11
5.1852600978925345
 21
-71.05928933512583
  0
LINE
  8
0
 10
5.1852600978925345
 20
-71.05928933512583
 11
5.517668520060873
 21
-70.08739212773888
  0
LINE
  8
0
 10
5.517668520060873
 20
-70.08739212773888
 11
5.799893599684017
 21
-69.14426531007204
  0
LINE
  8
0
 10
5.799893599684017
 20
-69.14426531007204
 11
6.020934483044838
 21
-68.28568729569918
  0
LINE
  8
0
 10
6.020934483044838
 20
-68.28568729569918
 11
6.187809188656634
 21
-67.51484184966203
  0
LINE
  8
0
 10
6.187809188656634
 20
-67.51484184966203
 11
6.307685056016596
 21
-66.83449433792687
  0
LINE
  8
0
 10
6.307685056016596
 20
-66.83449433792687
 11
6.398969606417397
 21
-66.1655490931237
  0
LINE
  8
0
 10
6.398969606417397
 20
-66.1655490931237
 11
6.4632031454357985
 21
-65.95186176561397
  0
LINE
  8
0
 10
6.4632031454357985
 20
-65.95186176561397
 11
6.549670205299226
 21
-65.84329483026998
  0
LINE
  8
0
 10
6.549670205299226
 20
-65.84329483026998
 11
8.811385772577198
 21
-65.57893819414046
  0
LINE
  8
0
 10
8.811385772577198
 20
-65.57893819414046
 11
8.920559359981166
 21
-65.66463801738985
  0
LINE
  8
0
 10
8.920559359981166
 20
-65.66463801738985
 11
9.032341164762748
 21
-65.85775210179175
  0
LINE
  8
0
 10
9.032341164762748
 20
-65.85775210179175
 11
9.275434518381257
 21
-66.48761417487736
  0
LINE
  8
0
 10
9.275434518381257
 20
-66.48761417487736
 11
9.548978050048193
 21
-67.12197755385202
  0
LINE
  8
0
 10
9.548978050048193
 20
-67.12197755385202
 11
9.889123820119131
 21
-67.83356080558893
  0
LINE
  8
0
 10
9.889123820119131
 20
-67.83356080558893
 11
10.302208234247288
 21
-68.61802020267972
  0
LINE
  8
0
 10
10.302208234247288
 20
-68.61802020267972
 11
10.794325912606801
 21
-69.47063933244537
  0
LINE
  8
0
 10
10.794325912606801
 20
-69.47063933244537
 11
11.34190914348243
 21
-70.33968026709331
  0
LINE
  8
0
 10
11.34190914348243
 20
-70.33968026709331
 11
12.381360693897026
 21
-70.21818580542758
  0
LINE
  8
0
 10
12.381360693897026
 20
-70.21818580542758
 11
13.399679198678312
 21
-69.97683988626841
  0
LINE
  8
0
 10
13.399679198678312
 20
-69.97683988626841
 11
13.617009614976636
 21
-68.97292403770004
  0
LINE
  8
0
 10
13.617009614976636
 20
-68.97292403770004
 11
13.787836048922514
 21
-68.00340997424556
  0
LINE
  8
0
 10
13.787836048922514
 20
-68.00340997424556
 11
13.90770750921325
 21
-67.12497607696633
  0
LINE
  8
0
 10
13.90770750921325
 20
-67.12497607696633
 11
13.983964173593165
 21
-66.3399698412033
  0
LINE
  8
0
 10
13.983964173593165
 20
-66.3399698412033
 11
14.024045957967477
 21
-65.65030585717852
  0
LINE
  8
0
 10
14.024045957967477
 20
-65.65030585717852
 11
14.037053472035367
 21
-64.97528629134032
  0
LINE
  8
0
 10
14.037053472035367
 20
-64.97528629134032
 11
14.076045102279721
 21
-64.75558678236506
  0
LINE
  8
0
 10
14.076045102279721
 20
-64.75558678236506
 11
14.149323650915516
 21
-64.63771572484353
  0
LINE
  8
0
 10
14.149323650915516
 20
-64.63771572484353
 11
16.365056374381457
 21
-64.11257742258837
  0
LINE
  8
0
 10
16.365056374381457
 20
-64.11257742258837
 11
16.483440911264406
 21
-64.18502349438413
  0
LINE
  8
0
 10
16.483440911264406
 20
-64.18502349438413
 11
16.616886064287936
 21
-64.36385473496904
  0
LINE
  8
0
 10
16.616886064287936
 20
-64.36385473496904
 11
16.931458231175434
 21
-64.96123649021848
  0
LINE
  8
0
 10
16.931458231175434
 20
-64.96123649021848
 11
17.276797252618728
 21
-65.55955406523158
  0
LINE
  8
0
 10
17.276797252618728
 20
-65.55955406523158
 11
17.697252852013705
 21
-66.22683733190851
  0
LINE
  8
0
 10
17.697252852013705
 20
-66.22683733190851
 11
18.198614314532335
 21
-66.95803632177436
  0
LINE
  8
0
 10
18.198614314532335
 20
-66.95803632177436
 11
18.78638750861533
 21
-67.74775897062885
  0
LINE
  8
0
 10
18.78638750861533
 20
-67.74775897062885
 11
19.431157672174653
 21
-68.5473532283706
  0
LINE
  8
0
 10
19.431157672174653
 20
-68.5473532283706
 11
20.449476176955905
 21
-68.30600730921134
  0
LINE
  8
0
 10
20.449476176955905
 20
-68.30600730921134
 11
21.432890625235693
 21
-67.94807372209031
  0
LINE
  8
0
 10
21.432890625235693
 20
-67.94807372209031
 11
21.53220401461041
 21
-66.92571547199103
  0
LINE
  8
0
 10
21.53220401461041
 20
-66.92571547199103
 11
21.5893216684099
 21
-65.94292517727139
  0
LINE
  8
0
 10
21.5893216684099
 20
-65.94292517727139
 11
21.60640264976767
 21
-65.05651470860734
  0
LINE
  8
0
 10
21.60640264976767
 20
-65.05651470860734
 11
21.591010032347047
 21
-64.26796354579153
  0
LINE
  8
0
 10
21.591010032347047
 20
-64.26796354579153
 11
21.550755696361705
 21
-63.57830961175364
  0
LINE
  8
0
 10
21.550755696361705
 20
-63.57830961175364
 11
21.485310269783096
 21
-62.90634420652316
  0
LINE
  8
0
 10
21.485310269783096
 20
-62.90634420652316
 11
21.498532696343855
 21
-62.683603575050306
  0
LINE
  8
0
 10
21.498532696343855
 20
-62.683603575050306
 11
21.55763176708989
 21
-62.55802239919832
  0
LINE
  8
0
 10
21.55763176708989
 20
-62.55802239919832
 11
23.69741766271271
 21
-61.779204025489214
  0
LINE
  8
0
 10
23.69741766271271
 20
-61.779204025489214
 11
23.823412201300062
 21
-61.83741663699037
  0
LINE
  8
0
 10
23.823412201300062
 20
-61.83741663699037
 11
23.97671608579391
 21
-61.999546648011496
  0
LINE
  8
0
 10
23.97671608579391
 20
-61.999546648011496
 11
24.358513017036724
 21
-62.5563695219838
  0
LINE
  8
0
 10
24.358513017036724
 20
-62.5563695219838
 11
24.770977410414886
 21
-63.11055007423744
  0
LINE
  8
0
 10
24.770977410414886
 20
-63.11055007423744
 11
25.266056898436883
 21
-63.72450949438628
  0
LINE
  8
0
 10
25.266056898436883
 20
-63.72450949438628
 11
25.84891535564294
 21
-64.39255986504932
  0
LINE
  8
0
 10
25.84891535564294
 20
-64.39255986504932
 11
26.524395441314883
 21
-65.10870638892341
  0
LINE
  8
0
 10
26.524395441314883
 20
-65.10870638892341
 11
27.25763312718863
 21
-65.82804082911419
  0
LINE
  8
0
 10
27.25763312718863
 20
-65.82804082911419
 11
28.241047575468308
 21
-65.47010724199306
  0
LINE
  8
0
 10
28.241047575468308
 20
-65.47010724199306
 11
29.17625897386522
 21
-65.00042642464655
  0
LINE
  8
0
 10
29.17625897386522
 20
-65.00042642464655
 11
29.15621229309554
 21
-63.97345141450983
  0
LINE
  8
0
 10
29.15621229309554
 20
-63.97345141450983
 11
29.098848748465425
 21
-62.99067544130019
  0
LINE
  8
0
 10
29.098848748465425
 20
-62.99067544130019
 11
29.01290825991951
 21
-62.10827558221709
  0
LINE
  8
0
 10
29.01290825991951
 20
-62.10827558221709
 11
28.906074519443177
 21
-61.32684329407881
  0
LINE
  8
0
 10
28.906074519443177
 20
-61.32684329407881
 11
28.786028433936714
 21
-60.64652579639546
  0
LINE
  8
0
 10
28.786028433936714
 20
-60.64652579639546
 11
28.64301510383551
 21
-59.98670173113261
  0
LINE
  8
0
 10
28.64301510383551
 20
-59.98670173113261
 11
28.630289516076303
 21
-59.76393216209486
  0
LINE
  8
0
 10
28.630289516076303
 20
-59.76393216209486
 11
28.67440989538424
 21
-59.632339137883335
  0
LINE
  8
0
 10
28.67440989538424
 20
-59.632339137883335
 11
30.709312029693855
 21
-58.610372875174335
  0
LINE
  8
0
 10
30.709312029693855
 20
-58.610372875174335
 11
30.841212709992828
 21
-58.65356480067315
  0
LINE
  8
0
 10
30.841212709992828
 20
-58.65356480067315
 11
31.012302153909555
 21
-58.796801051862836
  0
LINE
  8
0
 10
31.012302153909555
 20
-58.796801051862836
 11
31.45616070097911
 21
-59.30553497040819
  0
LINE
  8
0
 10
31.45616070097911
 20
-59.30553497040819
 11
31.930172592947716
 21
-59.80808415862096
  0
LINE
  8
0
 10
31.930172592947716
 20
-59.80808415862096
 11
32.49318086882212
 21
-60.36041698432169
  0
LINE
  8
0
 10
32.49318086882212
 20
-60.36041698432169
 11
33.14965415996618
 21
-60.95628450054835
  0
LINE
  8
0
 10
33.14965415996618
 20
-60.95628450054835
 11
33.90370642784357
 21
-61.58917024624442
  0
LINE
  8
0
 10
33.90370642784357
 20
-61.58917024624442
 11
34.71549585418771
 21
-62.218517104587264
  0
LINE
  8
0
 10
34.71549585418771
 20
-62.218517104587264
 11
35.6507072525846
 21
-61.748836287240714
  0
LINE
  8
0
 10
35.6507072525846
 20
-61.748836287240714
 11
36.52506847127538
 21
-61.17375986699352
  0
LINE
  8
0
 10
36.52506847127538
 20
-61.17375986699352
 11
36.38593281732897
 21
-60.15605617207239
  0
LINE
  8
0
 10
36.38593281732897
 20
-60.15605617207239
 11
36.21486381780414
 21
-59.186584879474076
  0
LINE
  8
0
 10
36.21486381780414
 20
-59.186584879474076
 11
36.0270640570326
 21
-58.32012857432329
  0
LINE
  8
0
 10
36.0270640570326
 20
-58.32012857432329
 11
35.83023393656893
 21
-57.556382692025096
  0
LINE
  8
0
 10
35.83023393656893
 20
-57.556382692025096
 11
35.632019518910695
 21
-56.894601757778744
  0
LINE
  8
0
 10
35.632019518910695
 20
-56.894601757778744
 11
35.41337229523945
 21
-56.255842021048664
  0
LINE
  8
0
 10
35.41337229523945
 20
-56.255842021048664
 11
35.374870784904175
 21
-56.03605609070965
  0
LINE
  8
0
 10
35.374870784904175
 20
-56.03605609070965
 11
35.40341582033168
 21
-55.900230788045334
  0
LINE
  8
0
 10
35.40341582033168
 20
-55.900230788045334
 11
37.30591563280338
 21
-54.64893697687292
  0
LINE
  8
0
 10
37.30591563280338
 20
-54.64893697687292
 11
37.44193872438641
 21
-54.67652411967206
  0
LINE
  8
0
 10
37.44193872438641
 20
-54.67652411967206
 11
37.628500036498224
 21
-54.798929586452466
  0
LINE
  8
0
 10
37.628500036498224
 20
-54.798929586452466
 11
38.12841777397759
 21
-55.25269479604738
  0
LINE
  8
0
 10
38.12841777397759
 20
-55.25269479604738
 11
38.65756696685753
 21
-55.69681650456372
  0
LINE
  8
0
 10
38.65756696685753
 20
-55.69681650456372
 11
39.28089030948477
 21
-56.180053381866806
  0
LINE
  8
0
 10
39.28089030948477
 20
-56.180053381866806
 11
40.00210075947346
 21
-56.69567995770125
  0
LINE
  8
0
 10
40.00210075947346
 20
-56.69567995770125
 11
40.82452794619776
 21
-57.23674623121408
  0
LINE
  8
0
 10
40.82452794619776
 20
-57.23674623121408
 11
41.703891053632624
 21
-57.76759467108417
  0
LINE
  8
0
 10
41.703891053632624
 20
-57.76759467108417
 11
42.5782522723234
 21
-57.19251825083696
  0
LINE
  8
0
 10
42.5782522723234
 20
-57.19251825083696
 11
43.37993907577788
 21
-56.519823149738606
  0
LINE
  8
0
 10
43.37993907577788
 20
-56.519823149738606
 11
43.12359601968944
 21
-55.52515346665266
  0
LINE
  8
0
 10
43.12359601968944
 20
-55.52515346665266
 11
42.84113498002233
 21
-54.582097290785676
  0
LINE
  8
0
 10
42.84113498002233
 20
-54.582097290785676
 11
42.55401561662216
 21
-53.74330187470255
  0
LINE
  8
0
 10
42.55401561662216
 20
-53.74330187470255
 11
42.26985090589153
 21
-53.00757075110876
  0
LINE
  8
0
 10
42.26985090589153
 20
-53.00757075110876
 11
41.99614866604672
 21
-52.37327583216057
  0
LINE
  8
0
 10
41.99614866604672
 20
-52.37327583216057
 11
41.70482437741979
 21
-51.764218553620495
  0
LINE
  8
0
 10
41.70482437741979
 20
-51.764218553620495
 11
41.64106761138703
 21
-51.55038848964884
  0
LINE
  8
0
 10
41.64106761138703
 20
-51.55038848964884
 11
41.65365128029848
 21
-51.412167712744136
  0
LINE
  8
0
 10
41.65365128029848
 20
-51.412167712744136
 11
43.39802072467635
 21
-49.948467955330045
  0
LINE
  8
0
 10
43.39802072467635
 20
-49.948467955330045
 11
43.536326748575206
 21
-49.96007724664846
  0
LINE
  8
0
 10
43.536326748575206
 20
-49.96007724664846
 11
43.73583700717872
 21
-50.05999660506598
  0
LINE
  8
0
 10
43.73583700717872
 20
-50.05999660506598
 11
44.285053405269316
 21
-50.45265670967759
  0
LINE
  8
0
 10
44.285053405269316
 20
-50.45265670967759
 11
44.8621840639738
 21
-50.83234495427346
  0
LINE
  8
0
 10
44.8621840639738
 20
-50.83234495427346
 11
45.53739309444599
 21
-51.23995093339844
  0
LINE
  8
0
 10
45.53739309444599
 20
-51.23995093339844
 11
46.31358756916812
 21
-51.6683636039516
  0
LINE
  8
0
 10
46.31358756916812
 20
-51.6683636039516
 11
47.19326775789947
 21
-52.11029341212239
  0
LINE
  8
0
 10
47.19326775789947
 20
-52.11029341212239
 11
48.12831266893027
 21
-52.535464619032474
  0
LINE
  8
0
 10
48.12831266893027
 20
-52.535464619032474
 11
48.92999947238463
 21
-51.86276951793422
  0
LINE
  8
0
 10
48.92999947238463
 20
-51.86276951793422
 11
49.64817042186693
 21
-51.10155278322952
  0
LINE
  8
0
 10
49.64817042186693
 20
-51.10155278322952
 11
49.2780865637176
 21
-50.14336831310258
  0
LINE
  8
0
 10
49.2780865637176
 20
-50.14336831310258
 11
48.88805328491237
 21
-49.23948047094785
  0
LINE
  8
0
 10
48.88805328491237
 20
-49.23948047094785
 11
48.50549711572489
 21
-48.43968921299489
  0
LINE
  8
0
 10
48.50549711572489
 20
-48.43968921299489
 11
48.13784065495996
 21
-47.74192234941723
  0
LINE
  8
0
 10
48.13784065495996
 20
-47.74192234941723
 11
47.79235194619068
 21
-47.14369119642326
  0
LINE
  8
0
 10
47.79235194619068
 20
-47.14369119642326
 11
47.43229025384964
 21
-46.5725728309375
  0
LINE
  8
0
 10
47.43229025384964
 20
-46.5725728309375
 11
47.34414043300626
 21
-46.367590318126375
  0
LINE
  8
0
 10
47.34414043300626
 20
-46.367590318126375
 11
47.34059256286672
 21
-46.22884326587342
  0
LINE
  8
0
 10
47.34059256286672
 20
-46.22884326587342
 11
48.90324203485323
 21
-44.57253159048333
  0
LINE
  8
0
 10
48.90324203485323
 20
-44.57253159048333
 11
49.04196063935643
 21
-44.568006034571496
  0
LINE
  8
0
 10
49.04196063935643
 20
-44.568006034571496
 11
49.25172181046067
 21
-44.644088046713584
  0
LINE
  8
0
 10
49.25172181046067
 20
-44.644088046713584
 11
49.8428096595502
 21
-44.97033299202909
  0
LINE
  8
0
 10
49.8428096595502
 20
-44.97033299202909
 11
50.46011708197859
 21
-45.280453140545404
  0
LINE
  8
0
 10
50.46011708197859
 20
-45.280453140545404
 11
51.1780807564688
 21
-45.60691604986611
  0
LINE
  8
0
 10
51.1780807564688
 20
-45.60691604986611
 11
51.99876255720287
 21
-45.94232126870377
  0
LINE
  8
0
 10
51.99876255720287
 20
-45.94232126870377
 11
52.92379958246587
 21
-46.279138269000484
  0
LINE
  8
0
 10
52.92379958246587
 20
-46.279138269000484
 11
53.90188141872543
 21
-46.59288253175152
  0
LINE
  8
0
 10
53.90188141872543
 20
-46.59288253175152
 11
54.620052368207666
 21
-45.83166579704678
  0
LINE
  8
0
 10
54.620052368207666
 20
-45.83166579704678
 11
55.24499543363662
 21
-44.99222157921747
  0
LINE
  8
0
 10
55.24499543363662
 20
-44.99222157921747
 11
54.766175522735004
 21
-44.08348012325804
  0
LINE
  8
0
 10
54.766175522735004
 20
-44.08348012325804
 11
54.27384453579168
 21
-43.230984147275684
  0
LINE
  8
0
 10
54.27384453579168
 20
-43.230984147275684
 11
53.801024976736215
 21
-42.48101285218768
  0
LINE
  8
0
 10
53.801024976736215
 20
-42.48101285218768
 11
53.354848688860095
 21
-41.83064634844823
  0
LINE
  8
0
 10
53.354848688860095
 20
-41.83064634844823
 11
52.942245653272145
 21
-41.27656901149681
  0
LINE
  8
0
 10
52.942245653272145
 20
-41.27656901149681
 11
52.518315773925856
 21
-40.75111295521421
  0
LINE
  8
0
 10
52.518315773925856
 20
-40.75111295521421
 11
52.40696497337918
 21
-40.557750030405195
  0
LINE
  8
0
 10
52.40696497337918
 20
-40.557750030405195
 11
52.38733354304597
 21
-40.42035301866737
  0
LINE
  8
0
 10
52.38733354304597
 20
-40.42035301866737
 11
53.74713088923249
 21
-38.59382819933495
  0
LINE
  8
0
 10
53.74713088923249
 20
-38.59382819933495
 11
53.88438614318366
 21
-38.573228996573036
  0
LINE
  8
0
 10
53.88438614318366
 20
-38.573228996573036
 11
54.10156156679135
 21
-38.62444478374294
  0
LINE
  8
0
 10
54.10156156679135
 20
-38.62444478374294
 11
54.72652741772256
 21
-38.87986266654491
  0
LINE
  8
0
 10
54.72652741772256
 20
-38.87986266654491
 11
55.375663579967444
 21
-39.11622087597908
  0
LINE
  8
0
 10
55.375663579967444
 20
-39.11622087597908
 11
56.126672671433326
 21
-39.35712586468882
  0
LINE
  8
0
 10
56.126672671433326
 20
-39.35712586468882
 11
56.9807434846908
 21
-39.59498785160845
  0
LINE
  8
0
 10
56.9807434846908
 20
-39.59498785160845
 11
57.93862780760488
 21
-39.82213717190621
  0
LINE
  8
0
 10
57.93862780760488
 20
-39.82213717190621
 11
58.94651969014136
 21
-40.02021163756766
  0
LINE
  8
0
 10
58.94651969014136
 20
-40.02021163756766
 11
59.57146275557026
 21
-39.180767419738416
  0
LINE
  8
0
 10
59.57146275557026
 20
-39.180767419738416
 11
60.09472665406584
 21
-38.27444776177772
  0
LINE
  8
0
 10
60.09472665406584
 20
-38.27444776177772
 11
59.51364590829899
 21
-37.427438489246256
  0
LINE
  8
0
 10
59.51364590829899
 20
-37.427438489246256
 11
58.925675145230116
 21
-36.63786292506833
  0
LINE
  8
0
 10
58.925675145230116
 20
-36.63786292506833
 11
58.36898626972856
 21
-35.94785366804768
  0
LINE
  8
0
 10
58.36898626972856
 20
-35.94785366804768
 11
57.85032392362652
 21
-35.35368261541626
  0
LINE
  8
0
 10
57.85032392362652
 20
-35.35368261541626
 11
57.376186309462376
 21
-34.85125203997893
  0
LINE
  8
0
 10
57.376186309462376
 20
-34.85125203997893
 11
56.89412116748413
 21
-34.378564184649306
  0
LINE
  8
0
 10
56.89412116748413
 20
-34.378564184649306
 11
56.76107521579104
 21
-34.199435749689464
  0
LINE
  8
0
 10
56.76107521579104
 20
-34.199435749689464
 11
56.72562570668202
 21
-34.06524683734816
  0
LINE
  8
0
 10
56.72562570668202
 20
-34.06524683734816
 11
57.86418200067181
 21
-32.09320948888099
  0
LINE
  8
0
 10
57.86418200067181
 20
-32.09320948888099
 11
57.99811776222043
 21
-32.05681520814876
  0
LINE
  8
0
 10
57.99811776222043
 20
-32.05681520814876
 11
58.21977051328822
 21
-32.082472164684845
  0
LINE
  8
0
 10
58.21977051328822
 20
-32.082472164684845
 11
58.870162775046104
 21
-32.263608896273645
  0
LINE
  8
0
 10
58.870162775046104
 20
-32.263608896273645
 11
59.54234922409576
 21
-32.4230088273118
  0
LINE
  8
0
 10
59.54234922409576
 20
-32.4230088273118
 11
60.316247622919214
 21
-32.57509806870687
  0
LINE
  8
0
 10
60.316247622919214
 20
-32.57509806870687
 11
61.19215760609551
 21
-32.71220014838381
  0
LINE
  8
0
 10
61.19215760609551
 20
-32.71220014838381
 11
62.16993548442838
 21
-32.82660998379659
  0
LINE
  8
0
 10
62.16993548442838
 20
-32.82660998379659
 11
63.19400740455281
 21
-32.90633603501397
  0
LINE
  8
0
 10
63.19400740455281
 20
-32.90633603501397
 11
63.71727130304829
 21
-32.00001637705322
  0
LINE
  8
0
 10
63.71727130304829
 20
-32.00001637705322
 11
64.13177978803392
 21
-31.03907769755818
  0
LINE
  8
0
 10
64.13177978803392
 20
-31.03907769755818
 11
63.4562963276538
 21
-30.265254955835
  0
LINE
  8
0
 10
63.4562963276538
 20
-30.265254955835
 11
62.78063708437551
 21
-29.549277458462853
  0
LINE
  8
0
 10
62.78063708437551
 20
-29.549277458462853
 11
62.147607154478216
 21
-28.928561431010994
  0
LINE
  8
0
 10
62.147607154478216
 20
-28.928561431010994
 11
61.563472768624415
 21
-28.39862097368357
  0
LINE
  8
0
 10
61.563472768624415
 20
-28.39862097368357
 11
61.0342124737402
 21
-27.954631671381556
  0
LINE
  8
0
 10
61.0342124737402
 20
-27.954631671381556
 11
60.500531173200265
 21
-27.541104309359845
  0
LINE
  8
0
 10
60.500531173200265
 20
-27.541104309359845
 11
60.34758928861923
 21
-27.378632769040063
  0
LINE
  8
0
 10
60.34758928861923
 20
-27.378632769040063
 11
60.29680109453203
 21
-27.249466630935792
  0
LINE
  8
0
 10
60.29680109453203
 20
-27.249466630935792
 11
61.198719315623855
 21
-25.158585175473576
  0
LINE
  8
0
 10
61.198719315623855
 20
-25.158585175473576
 11
61.327524333359634
 21
-25.106887986984145
  0
LINE
  8
0
 10
61.327524333359634
 20
-25.106887986984145
 11
61.55065693867104
 21
-25.10663914656337
  0
LINE
  8
0
 10
61.55065693867104
 20
-25.10663914656337
 11
62.217680171652766
 21
-25.2110451633814
  0
LINE
  8
0
 10
62.217680171652766
 20
-25.2110451633814
 11
62.903826738908826
 21
-25.291331205404244
  0
LINE
  8
0
 10
62.903826738908826
 20
-25.291331205404244
 11
63.69014879685601
 21
-25.352547953401448
  0
LINE
  8
0
 10
63.69014879685601
 20
-25.352547953401448
 11
64.57605277003813
 21
-25.387036055404447
  0
LINE
  8
0
 10
64.57605277003813
 20
-25.387036055404447
 11
65.56050143534752
 21
-25.387159209176517
  0
LINE
  8
0
 10
65.56050143534752
 20
-25.387159209176517
 11
66.58690457711906
 21
-25.347458687875847
  0
LINE
  8
0
 10
66.58690457711906
 20
-25.347458687875847
 11
67.00141306210469
 21
-24.386520008380874
  0
LINE
  8
0
 10
67.00141306210469
 20
-24.386520008380874
 11
67.3015606174033
 21
-23.38395735451676
  0
LINE
  8
0
 10
67.3015606174033
 20
-23.38395735451676
 11
66.5408091974309
 21
-22.693785768703314
  0
LINE
  8
0
 10
66.5408091974309
 20
-22.693785768703314
 11
65.78659860612599
 21
-22.06108870554104
  0
LINE
  8
0
 10
65.78659860612599
 20
-22.06108870554104
 11
65.08578826568217
 21
-21.51806002710092
  0
LINE
  8
0
 10
65.08578826568217
 20
-21.51806002710092
 11
64.44408125557214
 21
-21.05951670065853
  0
LINE
  8
0
 10
64.44408125557214
 20
-21.05951670065853
 11
63.86685561751866
 21
-20.679972865148972
  0
LINE
  8
0
 10
63.86685561751866
 20
-20.679972865148972
 11
63.288775282485176
 21
-20.331198244606995
  0
LINE
  8
0
 10
63.288775282485176
 20
-20.331198244606995
 11
63.11800574163581
 21
-20.187580747792786
  0
LINE
  8
0
 10
63.11800574163581
 20
-20.187580747792786
 11
63.05256568576913
 21
-20.065184134360972
  0
LINE
  8
0
 10
63.05256568576913
 20
-20.065184134360972
 11
63.705648937248895
 21
-17.883734156715402
  0
LINE
  8
0
 10
63.705648937248895
 20
-17.883734156715402
 11
63.82758134426989
 21
-17.817433176257385
  0
LINE
  8
0
 10
63.82758134426989
 20
-17.817433176257385
 11
64.04917631811847
 21
-17.791281904019563
  0
LINE
  8
0
 10
64.04917631811847
 20
-17.791281904019563
 11
64.72381017736558
 21
-17.817545293796197
  0
LINE
  8
0
 10
64.72381017736558
 20
-17.817545293796197
 11
65.41463790757926
 21
-17.817631715814795
  0
LINE
  8
0
 10
65.41463790757926
 20
-17.817631715814795
 11
66.20274996773925
 21
-17.7871481189138
  0
LINE
  8
0
 10
66.20274996773925
 20
-17.7871481189138
 11
67.08666759944391
 21
-17.718555850827062
  0
LINE
  8
0
 10
67.08666759944391
 20
-17.718555850827062
 11
68.06447407233735
 21
-17.604390657514923
  0
LINE
  8
0
 10
68.06447407233735
 20
-17.604390657514923
 11
69.07932809404156
 21
-17.44580044514119
  0
LINE
  8
0
 10
69.07932809404156
 20
-17.44580044514119
 11
69.37947564934065
 21
-16.443237791277234
  0
LINE
  8
0
 10
69.37947564934065
 20
-16.443237791277234
 11
69.56120329416592
 21
-15.412609103057733
  0
LINE
  8
0
 10
69.56120329416592
 20
-15.412609103057733
 11
68.72547177249868
 21
-14.815422059873649
  0
LINE
  8
0
 10
68.72547177249868
 20
-14.815422059873649
 11
67.90290923757844
 21
-14.274561573318902
  0
LINE
  8
0
 10
67.90290923757844
 20
-14.274561573318902
 11
67.14379574421376
 21
-13.816563775209474
  0
LINE
  8
0
 10
67.14379574421376
 20
-13.816563775209474
 11
66.45319409632121
 21
-13.435618591518573
  0
LINE
  8
0
 10
66.45319409632121
 20
-13.435618591518573
 11
65.83580910163187
 21
-13.125652902075409
  0
LINE
  8
0
 10
65.83580910163187
 20
-13.125652902075409
 11
65.22114727694864
 21
-12.846347601438751
  0
LINE
  8
0
 10
65.22114727694864
 20
-12.846347601438751
 11
65.03485944491854
 21
-12.723526328401029
  0
LINE
  8
0
 10
65.03485944491854
 20
-12.723526328401029
 11
64.95565249176663
 21
-12.609554443868918
  0
LINE
  8
0
 10
64.95565249176663
 20
-12.609554443868918
 11
65.35106894301187
 21
-10.367036312745368
  0
LINE
  8
0
 10
65.35106894301187
 20
-10.367036312745368
 11
65.46447981268618
 21
-10.287028147341196
  0
LINE
  8
0
 10
65.46447981268618
 20
-10.287028147341196
 11
65.68154046319324
 21
-10.235328094381252
  0
LINE
  8
0
 10
65.68154046319324
 20
-10.235328094381252
 11
66.35466168308294
 21
-10.183093689824185
  0
LINE
  8
0
 10
66.35466168308294
 20
-10.183093689824185
 11
67.04082831630694
 21
-10.10297932312898
  0
LINE
  8
0
 10
67.04082831630694
 20
-10.10297932312898
 11
67.8200725150596
 21
-9.981207619683762
  0
LINE
  8
0
 10
67.8200725150596
 20
-9.981207619683762
 11
68.69005033566445
 21
-9.810462574264228
  0
LINE
  8
0
 10
68.69005033566445
 20
-9.810462574264228
 11
69.6479914610073
 21
-9.583552922258875
  0
LINE
  8
0
 10
69.6479914610073
 20
-9.583552922258875
 11
70.63757220296645
 21
-9.308217679375502
  0
LINE
  8
0
 10
0.3118675362266391
 20
-1.4672214011007085
 11
9.18454765366783e-17
 21
-1.5
  0
LINE
  8
0
 10
9.18454765366783e-17
 20
-1.5
 11
-0.3118675362266384
 21
-1.4672214011007085
  0
LINE
  8
0
 10
-0.3118675362266384
 20
-1.4672214011007085
 11
-0.6101049646137001
 21
-1.3703181864639014
  0
LINE
  8
0
 10
-0.6101049646137001
 20
-1.3703181864639014
 11
-0.8816778784387099
 21
-1.213525491562421
  0
LINE
  8
0
 10
-0.8816778784387099
 20
-1.213525491562421
 11
-1.114717238216091
 21
-1.0036959095382878
  0
LINE
  8
0
 10
-1.114717238216091
 20
-1.0036959095382878
 11
-1.299038105676658
 21
-0.7500000000000003
  0
LINE
  8
0
 10
-1.299038105676658
 20
-0.7500000000000003
 11
-1.4265847744427305
 21
-0.46352549156242095
  0
LINE
  8
0
 10
-1.4265847744427305
 20
-0.46352549156242095
 11
-1.49178284305241
 21
-0.15679269490147957
  0
LINE
  8
0
 10
-1.49178284305241
 20
-0.15679269490147957
 11
-1.4917828430524098
 21
0.15679269490148126
  0
LINE
  8
0
 10
-1.4917828430524098
 20
0.15679269490148126
 11
-1.4265847744427302
 21
0.46352549156242123
  0
LINE
  8
0
 10
-1.4265847744427302
 20
0.46352549156242123
 11
-1.2990381056766576
 21
0.7500000000000006
  0
LINE
  8
0
 10
-1.2990381056766576
 20
0.7500000000000006
 11
-1.114717238216091
 21
1.0036959095382878
  0
LINE
  8
0
 10
-1.114717238216091
 20
1.0036959095382878
 11
-0.8816778784387097
 21
1.2135254915624214
  0
LINE
  8
0
 10
-0.8816778784387097
 20
1.2135254915624214
 11
-0.6101049646137005
 21
1.3703181864639014
  0
LINE
  8
0
 10
-0.6101049646137005
 20
1.3703181864639014
 11
-0.3118675362266387
 21
1.4672214011007085
  0
LINE
  8
0
 10
-0.3118675362266387
 20
1.4672214011007085
 11
7.579792913117722e-16
 21
1.5
  0
LINE
  8
0
 10
7.579792913117722e-16
 20
1.5
 11
0.3118675362266389
 21
1.4672214011007085
  0
LINE
  8
0
 10
0.3118675362266389
 20
1.4672214011007085
 11
0.6101049646136999
 21
1.3703181864639014
  0
LINE
  8
0
 10
0.6101049646136999
 20
1.3703181864639014
 11
0.8816778784387097
 21
1.213525491562421
  0
LINE
  8
0
 10
0.8816778784387097
 20
1.213525491562421
 11
1.1147172382160917
 21
1.003695909538287
  0
LINE
  8
0
 10
1.1147172382160917
 20
1.003695909538287
 11
1.299038105676658
 21
0.7499999999999998
  0
LINE
  8
0
 10
1.299038105676658
 20
0.7499999999999998
 11
1.4265847744427305
 21
0.4635254915624211
  0
LINE
  8
0
 10
1.4265847744427305
 20
0.4635254915624211
 11
1.49178284305241
 21
0.1567926949014801
  0
LINE
  8
0
 10
1.49178284305241
 20
0.1567926949014801
 11
1.4917828430524098
 21
-0.1567926949014801
  0
LINE
  8
0
 10
1.4917828430524098
 20
-0.1567926949014801
 11
1.4265847744427302
 21
-0.46352549156242107
  0
LINE
  8
0
 10
1.4265847744427302
 20
-0.46352549156242107
 11
1.299038105676658
 21
-0.7500000000000001
  0
LINE
  8
0
 10
1.299038105676658
 20
-0.7500000000000001
 11
1.1147172382160913
 21
-1.0036959095382874
  0
LINE
  8
0
 10
1.1147172382160913
 20
-1.0036959095382874
 11
0.8816778784387098
 21
-1.2135254915624212
  0
LINE
  8
0
 10
0.8816778784387098
 20
-1.2135254915624212
 11
0.6101049646137003
 21
-1.3703181864639014
  0
LINE
  8
0
 10
0.6101049646137003
 20
-1.3703181864639014
 11
0.3118675362266391
 21
-1.4672214011007085
  0
ENDSEC
  0
SECTION
  2
OBJECTS
  0
DICTIONARY
  0
ENDSEC
  0
EOF
