0
SECTION
2
HEADER
9
$ACADVER
1
AC1009
9
$INSBASE
10
0.0
20
0.0
30
0.0
9
$EXTMIN
10
0.0
20
0.0
9
$EXTMAX
10
0.0
20
0.0
0
ENDSEC
0
SECTION
2
TABLES
0
TABLE
2
LTYPE
70
1
0
LTYPE
2
CONTINUOUS
70
64
3
Solid line
72
65
73
0
40
0.0
0
ENDTAB
0
TABLE
2
LAYER
70
0
0
ENDTAB
0
TABLE
2
STYLE
70
1
0
STYLE
2
STANDARD
70
0
40
0
41
40
50
50
71
0
42
1
3
ARIAL.TTF
4

0
ENDTAB
0
TABLE
2
VIEW
70
0
0
ENDTAB
0
ENDSEC
0
SECTION
2
BLOCKS
0
ENDSEC
0
SECTION
2
ENTITIES
0
LINE
8
0
10
129.004754173
20
55.5755513558
11
129.203899964
21
56.5981229037
0
LINE
8
0
10
129.203899964
20
56.5981229037
11
129.270647223
21
57.6377653519
0
LINE
8
0
10
129.270647223
20
57.6377653519
11
128.394406321
21
58.1416695525
0
LINE
8
0
10
128.394406321
20
58.1416695525
11
127.509804858
21
58.6012449728
0
LINE
8
0
10
127.509804858
20
58.6012449728
11
126.704128141
21
58.9770095895
0
LINE
8
0
10
126.704128141
20
58.9770095895
11
125.982744164
21
59.2766310431
0
LINE
8
0
10
125.982744164
20
59.2766310431
11
125.35050642
21
59.5080749197
0
LINE
8
0
10
125.35050642
20
59.5080749197
11
124.718707578
21
59.7091881326
0
LINE
8
0
10
124.718707578
20
59.7091881326
11
124.499088233
21
59.8197543911
0
LINE
8
0
10
124.499088233
20
59.8197543911
11
124.398261857
21
59.9347339493
0
LINE
8
0
10
124.398261857
20
59.9347339493
11
124.544156961
21
62.2071679653
0
LINE
8
0
10
124.544156961
20
62.2071679653
11
124.658858814
21
62.3083101521
0
LINE
8
0
10
124.658858814
20
62.3083101521
11
124.890813987
21
62.3898843646
0
LINE
8
0
10
124.890813987
20
62.3898843646
11
125.543143555
21
62.5085537981
0
LINE
8
0
10
125.543143555
20
62.5085537981
11
126.199787022
21
62.6572487556
0
LINE
8
0
10
126.199787022
20
62.6572487556
11
126.953563188
21
62.8621617856
0
LINE
8
0
10
126.953563188
20
62.8621617856
11
127.800677023
21
63.1318137282
0
LINE
8
0
10
127.800677023
20
63.1318137282
11
128.736785121
21
63.4744957164
0
LINE
8
0
10
128.736785121
20
63.4744957164
11
129.670269936
21
63.8622116709
0
LINE
8
0
10
129.670269936
20
63.8622116709
11
129.737017196
21
64.9018541191
0
LINE
8
0
10
129.737017196
20
64.9018541191
11
129.670269936
21
65.9414965673
0
LINE
8
0
10
129.670269936
20
65.9414965673
11
128.736785121
21
66.3292125218
0
LINE
8
0
10
128.736785121
20
66.3292125218
11
127.800677023
21
66.67189451
0
LINE
8
0
10
127.800677023
20
66.67189451
11
126.953563188
21
66.9415464526
0
LINE
8
0
10
126.953563188
20
66.9415464526
11
126.199787022
21
67.1464594827
0
LINE
8
0
10
126.199787022
20
67.1464594827
11
125.543143555
21
67.2951544401
0
LINE
8
0
10
125.543143555
20
67.2951544401
11
124.890813987
21
67.4138238736
0
LINE
8
0
10
124.890813987
20
67.4138238736
11
124.658858814
21
67.4953980861
0
LINE
8
0
10
124.658858814
20
67.4953980861
11
124.544156961
21
67.5965402729
0
LINE
8
0
10
124.544156961
20
67.5965402729
11
124.398261857
21
69.8689742889
0
LINE
8
0
10
124.398261857
20
69.8689742889
11
124.499088233
21
69.9839538472
0
LINE
8
0
10
124.499088233
20
69.9839538472
11
124.718707578
21
70.0945201056
0
LINE
8
0
10
124.718707578
20
70.0945201056
11
125.35050642
21
70.2956333185
0
LINE
8
0
10
125.35050642
20
70.2956333185
11
125.982744164
21
70.5270771951
0
LINE
8
0
10
125.982744164
20
70.5270771951
11
126.704128141
21
70.8266986487
0
LINE
8
0
10
126.704128141
20
70.8266986487
11
127.509804858
21
71.2024632654
0
LINE
8
0
10
127.509804858
20
71.2024632654
11
128.394406321
21
71.6620386857
0
LINE
8
0
10
128.394406321
20
71.6620386857
11
129.270647223
21
72.1659428863
0
LINE
8
0
10
129.270647223
20
72.1659428863
11
129.203899964
21
73.2055853345
0
LINE
8
0
10
129.203899964
20
73.2055853345
11
129.004754173
21
74.2281568824
0
LINE
8
0
10
129.004754173
20
74.2281568824
11
128.029353239
21
74.4933183056
0
LINE
8
0
10
128.029353239
20
74.4933183056
11
127.057109375
21
74.7134800328
0
LINE
8
0
10
127.057109375
20
74.7134800328
11
126.182468009
21
74.8725916239
0
LINE
8
0
10
126.182468009
20
74.8725916239
11
125.408676638
21
74.9794315642
0
LINE
8
0
10
125.408676638
20
74.9794315642
11
124.738409516
21
75.0429360353
0
LINE
8
0
10
124.738409516
20
75.0429360353
11
124.076260453
21
75.0772131407
0
LINE
8
0
10
124.076260453
20
75.0772131407
11
123.835778151
21
75.1284558609
0
LINE
8
0
10
123.835778151
20
75.1284558609
11
123.709084223
21
75.2140999244
0
LINE
8
0
10
123.709084223
20
75.2140999244
11
123.273794503
21
77.4492206366
0
LINE
8
0
10
123.273794503
20
77.4492206366
11
123.359089837
21
77.5761496052
0
LINE
8
0
10
123.359089837
20
77.5761496052
11
123.562767211
21
77.7138924147
0
LINE
8
0
10
123.562767211
20
77.7138924147
11
124.163661206
21
77.9941471335
0
LINE
8
0
10
124.163661206
20
77.9941471335
11
124.7611119
21
78.3045396273
0
LINE
8
0
10
124.7611119
20
78.3045396273
11
125.438258584
21
78.6939497284
0
LINE
8
0
10
125.438258584
20
78.6939497284
11
126.189268994
21
79.1696569746
0
LINE
8
0
10
126.189268994
20
79.1696569746
11
127.007838691
21
79.7385796114
0
LINE
8
0
10
127.007838691
20
79.7385796114
11
127.812447829
21
80.3503979649
0
LINE
8
0
10
127.812447829
20
80.3503979649
11
127.613302037
21
81.3729695129
0
LINE
8
0
10
127.613302037
20
81.3729695129
11
127.285027683
21
82.361679564
0
LINE
8
0
10
127.285027683
20
82.361679564
11
126.283726687
21
82.4999325126
0
LINE
8
0
10
126.283726687
20
82.4999325126
11
125.291311276
21
82.5939589295
0
LINE
8
0
10
125.291311276
20
82.5939589295
11
124.403503964
21
82.6399175611
0
LINE
8
0
10
124.403503964
20
82.6399175611
11
123.622403021
21
82.6469301027
0
LINE
8
0
10
123.622403021
20
82.6469301027
11
122.949518012
21
82.6242013458
0
LINE
8
0
10
122.949518012
20
82.6242013458
11
122.288421925
21
82.5735232939
0
LINE
8
0
10
122.288421925
20
82.5735232939
11
122.043361205
21
82.5935931179
0
LINE
8
0
10
122.043361205
20
82.5935931179
11
121.906755513
21
82.6623327849
0
LINE
8
0
10
121.906755513
20
82.6623327849
11
121.189218623
21
84.8234395731
0
LINE
8
0
10
121.189218623
20
84.8234395731
11
121.257582367
21
84.9602337817
0
LINE
8
0
10
121.257582367
20
84.9602337817
11
121.441973393
21
85.1228914092
0
LINE
8
0
10
121.441973393
20
85.1228914092
11
122.002095879
21
85.4776858591
0
LINE
8
0
10
122.002095879
20
85.4776858591
11
122.5549494
21
85.8619303339
0
LINE
8
0
10
122.5549494
20
85.8619303339
11
123.176740061
21
86.3347349795
0
LINE
8
0
10
123.176740061
20
86.3347349795
11
123.860752593
21
86.9025737553
0
LINE
8
0
10
123.860752593
20
86.9025737553
11
124.599849632
21
87.5715019146
0
LINE
8
0
10
124.599849632
20
87.5715019146
11
125.319615345
21
88.2811883807
0
LINE
8
0
10
125.319615345
20
88.2811883807
11
124.991340991
21
89.2698984319
0
LINE
8
0
10
124.991340991
20
89.2698984319
11
124.53932833
21
90.2085123945
0
LINE
8
0
10
124.53932833
20
90.2085123945
11
123.528568606
21
90.217586759
0
LINE
8
0
10
123.528568606
20
90.217586759
11
122.532277081
21
90.1839339542
0
LINE
8
0
10
122.532277081
20
90.1839339542
11
121.645881595
21
90.1159849869
0
LINE
8
0
10
121.645881595
20
90.1159849869
11
120.870296736
21
90.0230549841
0
LINE
8
0
10
120.870296736
20
90.0230549841
11
120.205842592
21
89.9144662048
0
LINE
8
0
10
120.205842592
20
89.9144662048
11
119.556654661
21
89.7796651279
0
LINE
8
0
10
119.556654661
20
89.7796651279
11
119.311039414
21
89.7682325096
0
LINE
8
0
10
119.311039414
20
89.7682325096
11
119.166765019
21
89.8189390766
0
LINE
8
0
10
119.166765019
20
89.8189390766
11
118.178762895
21
91.8705466271
0
LINE
8
0
10
118.178762895
20
91.8705466271
11
118.229072518
21
92.0149599187
0
LINE
8
0
10
118.229072518
20
92.0149599187
11
118.391149501
21
92.1998615304
0
LINE
8
0
10
118.391149501
20
92.1998615304
11
118.901303281
21
92.6233699964
0
LINE
8
0
10
118.901303281
20
92.6233699964
11
119.40048179
21
93.0751571686
0
LINE
8
0
10
119.40048179
20
93.0751571686
11
119.956706642
21
93.6235929194
0
LINE
8
0
10
119.956706642
20
93.6235929194
11
120.56248983
21
94.2742393278
0
LINE
8
0
10
120.56248983
20
94.2742393278
11
121.209978258
21
95.0321892278
0
LINE
8
0
10
121.209978258
20
95.0321892278
11
121.833082014
21
95.8280907743
0
LINE
8
0
10
121.833082014
20
95.8280907743
11
121.381069352
21
96.766704737
0
LINE
8
0
10
121.381069352
20
96.766704737
11
120.812740419
21
97.6398105958
0
LINE
8
0
10
120.812740419
20
97.6398105958
11
119.809118615
21
97.5195573753
0
LINE
8
0
10
119.809118615
20
97.5195573753
11
118.825310055
21
97.3587779271
0
LINE
8
0
10
118.825310055
20
97.3587779271
11
117.954880985
21
97.178037081
0
LINE
8
0
10
117.954880985
20
97.178037081
11
117.197547292
21
96.9866904419
0
LINE
8
0
10
117.197547292
20
96.9866904419
11
116.552434332
21
96.7940246649
0
LINE
8
0
10
116.552434332
20
96.7940246649
11
115.925814204
21
96.5773139929
0
LINE
8
0
10
115.925814204
20
96.5773139929
11
115.683677425
21
96.5345666556
0
LINE
8
0
10
115.683677425
20
96.5345666556
11
115.534103309
21
96.5664075223
0
LINE
8
0
10
115.534103309
20
96.5664075223
11
114.291858918
21
98.4748284957
0
LINE
8
0
10
114.291858918
20
98.4748284957
11
114.323288339
21
98.6244896081
0
LINE
8
0
10
114.323288339
20
98.6244896081
11
114.460389978
21
98.8285991246
0
LINE
8
0
10
114.460389978
20
98.8285991246
11
114.912198343
21
99.3138676095
0
LINE
8
0
10
114.912198343
20
99.3138676095
11
115.349505342
21
99.8257791461
0
LINE
8
0
10
115.349505342
20
99.8257791461
11
115.831031188
21
100.440840702
0
LINE
8
0
10
115.831031188
20
100.440840702
11
116.348638088
21
101.163611147
0
LINE
8
0
10
116.348638088
20
101.163611147
11
116.893886163
21
101.998137271
0
LINE
8
0
10
116.893886163
20
101.998137271
11
117.410096615
21
102.867185217
0
LINE
8
0
10
117.410096615
20
102.867185217
11
116.841767682
21
103.740291076
0
LINE
8
0
10
116.841767682
20
103.740291076
11
116.166454423
21
104.533552457
0
LINE
8
0
10
116.166454423
20
104.533552457
11
115.18644998
21
104.285946206
0
LINE
8
0
10
115.18644998
20
104.285946206
11
114.231278494
21
104.000680108
0
LINE
8
0
10
114.231278494
20
104.000680108
11
113.391108261
21
103.710115143
0
LINE
8
0
10
113.391108261
20
103.710115143
11
112.664461132
21
103.423493774
0
LINE
8
0
10
112.664461132
20
103.423493774
11
112.049282093
21
103.149914566
0
LINE
8
0
10
112.049282093
20
103.149914566
11
111.455518853
21
102.854852683
0
LINE
8
0
10
111.455518853
20
102.854852683
11
111.220836423
21
102.781492536
0
LINE
8
0
10
111.220836423
20
102.781492536
11
111.068418588
21
102.793944876
0
LINE
8
0
10
111.068418588
20
102.793944876
11
109.59232955
21
104.527843053
0
LINE
8
0
10
109.59232955
20
104.527843053
11
109.604362697
21
104.680294555
0
LINE
8
0
10
109.604362697
20
104.680294555
11
109.714237788
21
104.900260504
0
LINE
8
0
10
109.714237788
20
104.900260504
11
110.100282055
21
105.439320912
0
LINE
8
0
10
110.100282055
20
105.439320912
11
110.468536976
21
106.00295124
0
LINE
8
0
10
110.468536976
20
106.00295124
11
110.867457175
21
106.674539308
0
LINE
8
0
10
110.867457175
20
106.674539308
11
111.288388697
21
107.457565919
0
LINE
8
0
10
111.288388697
20
107.457565919
11
111.722443461
21
108.354965371
0
LINE
8
0
10
111.722443461
20
108.354965371
11
112.123284447
21
109.282889973
0
LINE
8
0
10
112.123284447
20
109.282889973
11
111.447971188
21
110.076151354
0
LINE
8
0
10
111.447971188
20
110.076151354
11
110.676762227
21
110.776542927
0
LINE
8
0
10
110.676762227
20
110.776542927
11
109.736466792
21
110.405649333
0
LINE
8
0
10
109.736466792
20
110.405649333
11
108.825616269
21
110.000580648
0
LINE
8
0
10
108.825616269
20
110.000580648
11
108.029500445
21
109.604962632
0
LINE
8
0
10
108.029500445
20
109.604962632
11
107.345471407
21
109.227772848
0
LINE
8
0
10
107.345471407
20
109.227772848
11
106.770327512
21
108.877772373
0
LINE
8
0
10
106.770327512
20
108.877772373
11
106.219170736
21
108.509204185
0
LINE
8
0
10
106.219170736
20
108.509204185
11
105.995796132
21
108.406435801
0
LINE
8
0
10
105.995796132
20
108.406435801
11
105.843037276
21
108.399295148
0
LINE
8
0
10
105.843037276
20
108.399295148
11
104.157340931
21
109.930199968
0
LINE
8
0
10
104.157340931
20
109.930199968
11
104.14978022
21
110.08293861
0
LINE
8
0
10
104.14978022
20
110.08293861
11
104.230624618
21
110.315149156
0
LINE
8
0
10
104.230624618
20
110.315149156
11
104.544565952
21
110.899150131
0
LINE
8
0
10
104.544565952
20
110.899150131
11
104.837722058
21
111.505244456
0
LINE
8
0
10
104.837722058
20
111.505244456
11
105.147486352
21
112.222331578
0
LINE
8
0
10
105.147486352
20
112.222331578
11
105.464830811
21
113.052757079
0
LINE
8
0
10
105.464830811
20
113.052757079
11
105.780565097
21
113.998294586
0
LINE
8
0
10
105.780565097
20
113.998294586
11
106.05945482
21
114.969859347
0
LINE
8
0
10
106.05945482
20
114.969859347
11
105.288245859
21
115.67025092
0
LINE
8
0
10
105.288245859
20
115.67025092
11
104.433804427
21
116.266272275
0
LINE
8
0
10
104.433804427
20
116.266272275
11
103.548657625
21
115.778181401
0
LINE
8
0
10
103.548657625
20
115.778181401
11
102.697084205
21
115.259961344
0
LINE
8
0
10
102.697084205
20
115.259961344
11
101.95809499
21
114.765786315
0
LINE
8
0
10
101.95809499
20
114.765786315
11
101.32791578
21
114.304221563
0
LINE
8
0
10
101.32791578
20
114.304221563
11
100.802250876
21
113.883546817
0
LINE
8
0
10
100.802250876
20
113.883546817
11
100.302750543
21
113.447524205
0
LINE
8
0
10
100.302750543
20
113.447524205
11
100.094351571
21
113.317035038
0
LINE
8
0
10
100.094351571
20
113.317035038
11
99.9437599898
21
113.29041864
0
LINE
8
0
10
99.9437599898
20
113.29041864
11
98.0761354246
21
114.593192689
0
LINE
8
0
10
98.0761354246
20
114.593192689
11
98.0491050036
21
114.743710506
0
LINE
8
0
10
98.0491050036
20
114.743710506
11
98.0995912438
21
114.984352759
0
LINE
8
0
10
98.0995912438
20
114.984352759
11
98.336274737
21
115.603705021
0
LINE
8
0
10
98.336274737
20
115.603705021
11
98.5495184135
21
116.242311291
0
LINE
8
0
10
98.5495184135
20
116.242311291
11
98.7650404814
21
116.993122916
0
LINE
8
0
10
98.7650404814
20
116.993122916
11
98.9735870906
21
117.857311744
0
LINE
8
0
10
98.9735870906
20
117.857311744
11
99.1658165493
21
118.835461605
0
LINE
8
0
10
99.1658165493
20
118.835461605
11
99.3181756478
21
119.834713459
0
LINE
8
0
10
99.3181756478
20
119.834713459
11
98.4637342155
21
120.430734814
0
LINE
8
0
10
98.4637342155
20
120.430734814
11
97.5400902164
21
120.912599297
0
LINE
8
0
10
97.5400902164
20
120.912599297
11
96.7246261328
21
120.315325582
0
LINE
8
0
10
96.7246261328
20
120.315325582
11
95.9463126296
21
119.692463313
0
LINE
8
0
10
95.9463126296
20
119.692463313
11
95.2765842059
21
119.10784561
0
LINE
8
0
10
95.2765842059
20
119.10784561
11
94.7106023486
21
118.569484769
0
LINE
8
0
10
94.7106023486
20
118.569484769
11
94.2430478386
21
118.085043221
0
LINE
8
0
10
94.2430478386
20
118.085043221
11
93.8034057309
21
117.588725664
0
LINE
8
0
10
93.8034057309
20
117.588725664
11
93.6134042958
21
117.432658342
0
LINE
8
0
10
93.6134042958
20
117.432658342
11
93.4674526985
21
117.387003241
0
LINE
8
0
10
93.4674526985
20
117.387003241
11
91.4485662575
21
118.440255004
0
LINE
8
0
10
91.4485662575
20
118.440255004
11
91.4025099646
21
118.586080499
0
LINE
8
0
10
91.4025099646
20
118.586080499
11
91.4218090652
21
118.831203119
0
LINE
8
0
10
91.4218090652
20
118.831203119
11
91.5773483808
21
119.475736921
0
LINE
8
0
10
91.5773483808
20
119.475736921
11
91.7071781725
21
120.136369238
0
LINE
8
0
10
91.7071781725
20
120.136369238
11
91.8249191476
21
120.90857706
0
LINE
8
0
10
91.8249191476
20
120.90857706
11
91.9212435775
21
121.792339259
0
LINE
8
0
10
91.9212435775
20
121.792339259
11
91.9868118072
21
122.787040281
0
LINE
8
0
10
91.9868118072
20
122.787040281
11
92.0101385486
21
123.79757154
0
LINE
8
0
10
92.0101385486
20
123.79757154
11
91.0864945495
21
124.279436022
0
LINE
8
0
10
91.0864945495
20
124.279436022
11
90.1088141925
21
124.639231431
0
LINE
8
0
10
90.1088141925
20
124.639231431
11
89.3764227252
21
123.942582093
0
LINE
8
0
10
89.3764227252
20
123.942582093
11
88.6841490242
21
123.225304993
0
LINE
8
0
10
88.6841490242
20
123.225304993
11
88.0946783141
21
122.559844024
0
LINE
8
0
10
88.0946783141
20
122.559844024
11
87.6021872163
21
121.953526964
0
LINE
8
0
10
87.6021872163
20
121.953526964
11
87.2004203325
21
121.413273131
0
LINE
8
0
10
87.2004203325
20
121.413273131
11
86.8278553609
21
120.864810149
0
LINE
8
0
10
86.8278553609
20
120.864810149
11
86.6593712811
21
120.685727294
0
LINE
8
0
10
86.6593712811
20
120.685727294
11
86.5204561892
21
120.621783144
0
LINE
8
0
10
86.5204561892
20
120.621783144
11
84.3834579319
21
121.408218257
0
LINE
8
0
10
84.3834579319
20
121.408218257
11
84.3191320102
21
121.546956978
0
LINE
8
0
10
84.3191320102
20
121.546956978
11
84.3069270805
21
121.79253506
0
LINE
8
0
10
84.3069270805
20
121.79253506
11
84.3787682673
21
122.451667174
0
LINE
8
0
10
84.3787682673
20
122.451667174
11
84.4230523726
21
123.123477974
0
LINE
8
0
10
84.4230523726
20
123.123477974
11
84.4410789514
21
123.904402363
0
LINE
8
0
10
84.4410789514
20
123.904402363
11
84.4235995575
21
124.79322658
0
LINE
8
0
10
84.4235995575
20
124.79322658
11
84.3614299295
21
125.7881458
0
LINE
8
0
10
84.3614299295
20
125.7881458
11
84.2553412896
21
126.793363569
0
LINE
8
0
10
84.2553412896
20
126.793363569
11
83.2776609325
21
127.153158977
0
LINE
8
0
10
83.2776609325
20
127.153158977
11
82.261997702
21
127.384977482
0
LINE
8
0
10
82.261997702
20
127.384977482
11
81.6247046987
21
126.600391483
0
LINE
8
0
10
81.6247046987
20
126.600391483
11
81.0298379149
21
125.800477222
0
LINE
8
0
10
81.0298379149
20
125.800477222
11
80.530304011
21
125.065099837
0
LINE
8
0
10
80.530304011
20
125.065099837
11
80.1193903631
21
124.400782268
0
LINE
8
0
10
80.1193903631
20
124.400782268
11
79.7900081066
21
123.813587103
0
LINE
8
0
10
79.7900081066
20
123.813587103
11
79.4906377777
21
123.221984444
0
LINE
8
0
10
79.4906377777
20
123.221984444
11
79.346437557
21
123.02282659
0
LINE
8
0
10
79.346437557
20
123.02282659
11
79.2168399525
21
122.941643353
0
LINE
8
0
10
79.2168399525
20
122.941643353
11
76.9968193313
21
123.448348573
0
LINE
8
0
10
76.9968193313
20
123.448348573
11
76.9152800107
21
123.577722435
0
LINE
8
0
10
76.9152800107
20
123.577722435
11
76.8717714553
21
123.819723592
0
LINE
8
0
10
76.8717714553
20
123.819723592
11
76.8587348829
21
124.482631088
0
LINE
8
0
10
76.8587348829
20
124.482631088
11
76.816746158
21
125.154589256
0
LINE
8
0
10
76.816746158
20
125.154589256
11
76.7347623445
21
125.931407454
0
LINE
8
0
10
76.7347623445
20
125.931407454
11
76.603766138
21
126.810699222
0
LINE
8
0
10
76.603766138
20
126.810699222
11
76.4148794759
21
127.789500093
0
LINE
8
0
10
76.4148794759
20
127.789500093
11
76.1811174271
21
128.772898723
0
LINE
8
0
10
76.1811174271
20
128.772898723
11
75.1654541966
21
129.004717228
0
LINE
8
0
10
75.1654541966
20
129.004717228
11
74.1284852548
21
129.104752375
0
LINE
8
0
10
74.1284852548
20
129.104752375
11
73.5967550489
21
128.245112595
0
LINE
8
0
10
73.5967550489
20
128.245112595
11
73.1090628785
21
127.375695743
0
LINE
8
0
10
73.1090628785
20
127.375695743
11
72.7076681138
21
126.582476819
0
LINE
8
0
10
72.7076681138
20
126.582476819
11
72.3850791063
21
125.871066817
0
LINE
8
0
10
72.3850791063
20
125.871066817
11
72.1334899247
21
125.246572048
0
LINE
8
0
10
72.1334899247
20
125.246572048
11
71.912229891
21
124.62154381
0
LINE
8
0
10
71.912229891
20
124.62154381
11
71.7946812932
21
124.405581125
0
LINE
8
0
10
71.7946812932
20
124.405581125
11
71.6765291652
21
124.308491828
0
LINE
8
0
10
71.6765291652
20
124.308491828
11
69.4099388573
21
124.527147069
0
LINE
8
0
10
69.4099388573
20
124.527147069
11
69.312525011
21
124.645031756
0
LINE
8
0
10
69.312525011
20
124.645031756
11
69.2384272392
21
124.879482336
0
LINE
8
0
10
69.2384272392
20
124.879482336
11
69.1407269679
21
125.535280291
0
LINE
8
0
10
69.1407269679
20
125.535280291
11
69.0131548665
21
126.196352293
0
LINE
8
0
10
69.0131548665
20
126.196352293
11
68.8325068327
21
126.956308967
0
LINE
8
0
10
68.8325068327
20
126.956308967
11
68.5901447677
21
127.811630339
0
LINE
8
0
10
68.5901447677
20
127.811630339
11
68.2776425853
21
128.758240977
0
LINE
8
0
10
68.2776425853
20
128.758240977
11
67.9200454939
21
129.703673092
0
LINE
8
0
10
67.9200454939
20
129.703673092
11
66.8830765521
21
129.803708238
0
LINE
8
0
10
66.8830765521
20
129.803708238
11
65.8418289004
21
129.770317453
0
LINE
8
0
10
65.8418289004
20
129.770317453
11
65.4243924871
21
128.849739154
0
LINE
8
0
10
65.4243924871
20
128.849739154
11
65.0518828221
21
127.925095512
0
LINE
8
0
10
65.0518828221
20
127.925095512
11
64.7552180875
21
127.087059681
0
LINE
8
0
10
64.7552180875
20
127.087059681
11
64.5262506232
21
126.340238579
0
LINE
8
0
10
64.5262506232
20
126.340238579
11
64.3565856038
21
125.688698393
0
LINE
8
0
10
64.3565856038
20
125.688698393
11
64.2170689489
21
125.040507523
0
LINE
8
0
10
64.2170689489
20
125.040507523
11
64.1281021187
21
124.811286108
0
LINE
8
0
10
64.1281021187
20
124.811286108
11
64.0233355218
21
124.699884953
0
LINE
8
0
10
64.0233355218
20
124.699884953
11
61.7473928773
21
124.626899902
0
LINE
8
0
10
61.7473928773
20
124.626899902
11
61.6357040381
21
124.731359752
0
LINE
8
0
10
61.6357040381
20
124.731359752
11
61.5322337333
21
124.954410084
0
LINE
8
0
10
61.5322337333
20
124.954410084
11
61.3514739987
21
125.592330313
0
LINE
8
0
10
61.3514739987
20
125.592330313
11
61.1404132513
21
126.231661365
0
LINE
8
0
10
61.1404132513
20
126.231661365
11
60.8640672329
21
126.962278047
0
LINE
8
0
10
60.8640672329
20
126.962278047
11
60.5143188877
21
127.779584669
0
LINE
8
0
10
60.5143188877
20
127.779584669
11
60.0833324622
21
128.678461755
0
LINE
8
0
10
60.0833324622
20
128.678461755
11
59.6077720627
21
129.570403384
0
LINE
8
0
10
59.6077720627
20
129.570403384
11
58.566524411
21
129.537012598
0
LINE
8
0
10
58.566524411
20
129.537012598
11
57.538095307
21
129.370744156
0
LINE
8
0
10
57.538095307
20
129.370744156
11
57.2418069808
21
128.404343209
0
LINE
8
0
10
57.2418069808
20
128.404343209
11
56.9905964195
21
127.4396554
0
LINE
8
0
10
56.9905964195
20
127.4396554
11
56.8035329417
21
126.570563187
0
LINE
8
0
10
56.8035329417
20
126.570563187
11
56.6719466599
21
125.800593767
0
LINE
8
0
10
56.6719466599
20
125.800593767
11
56.5869916977
21
125.132706435
0
LINE
8
0
10
56.5869916977
20
125.132706435
11
56.5315092813
21
124.47199621
0
LINE
8
0
10
56.5315092813
20
124.47199621
11
56.4725850516
21
124.233279873
0
LINE
8
0
10
56.4725850516
20
124.233279873
11
56.3829242504
21
124.109396066
0
LINE
8
0
10
56.3829242504
20
124.109396066
11
54.1350001847
21
123.745969136
0
LINE
8
0
10
54.1350001847
20
123.745969136
11
54.0108702803
21
123.83528892
0
LINE
8
0
10
54.0108702803
20
123.83528892
11
53.8797264219
21
124.043276522
0
LINE
8
0
10
53.8797264219
20
124.043276522
11
53.618875294
21
124.652844393
0
LINE
8
0
10
53.618875294
20
124.652844393
11
53.3277915121
21
125.259936697
0
LINE
8
0
10
53.3277915121
20
125.259936697
11
52.960285103
21
125.949216682
0
LINE
8
0
10
52.960285103
20
125.949216682
11
52.508893336
21
126.715088402
0
LINE
8
0
10
52.508893336
20
126.715088402
11
51.9664994525
21
127.551472399
0
LINE
8
0
10
51.9664994525
20
127.551472399
11
51.3807844335
21
128.375277885
0
LINE
8
0
10
51.3807844335
20
128.375277885
11
50.3523553295
21
128.209009443
0
LINE
8
0
10
50.3523553295
20
128.209009443
11
49.3536315506
21
127.912593468
0
LINE
8
0
10
49.3536315506
20
127.912593468
11
49.1833563576
21
126.916238149
0
LINE
8
0
10
49.1833563576
20
126.916238149
11
49.0575697705
21
125.92734632
0
LINE
8
0
10
49.0575697705
20
125.92734632
11
48.9831791267
21
125.041468196
0
LINE
8
0
10
48.9831791267
20
125.041468196
11
48.9511346706
21
124.260993333
0
LINE
8
0
10
48.9511346706
20
124.260993333
11
48.9522847237
21
123.587725548
0
LINE
8
0
10
48.9522847237
20
123.587725548
11
48.9817475655
21
122.92534481
0
LINE
8
0
10
48.9817475655
20
122.92534481
11
48.9538334704
21
122.681053268
0
LINE
8
0
10
48.9538334704
20
122.681053268
11
48.8807506929
21
122.546720976
0
LINE
8
0
10
48.8807506929
20
122.546720976
11
46.697756057
21
121.898819627
0
LINE
8
0
10
46.697756057
20
121.898819627
11
46.5632232969
21
121.971532717
0
LINE
8
0
10
46.5632232969
20
121.971532717
11
46.4065592635
21
122.16104244
0
LINE
8
0
10
46.4065592635
20
122.16104244
11
46.0698999105
21
122.732248865
0
LINE
8
0
10
46.0698999105
20
122.732248865
11
45.7035726818
21
123.297133981
0
LINE
8
0
10
45.7035726818
20
123.297133981
11
45.2509403272
21
123.933759311
0
LINE
8
0
10
45.2509403272
20
123.933759311
11
44.7053169785
21
124.635620537
0
LINE
8
0
10
44.7053169785
20
124.635620537
11
44.0604217297
21
125.395778043
0
LINE
8
0
10
44.0604217297
20
125.395778043
11
43.3741695156
21
126.137920523
0
LINE
8
0
10
43.3741695156
20
126.137920523
11
42.3754457367
21
125.841504547
0
LINE
8
0
10
42.3754457367
20
125.841504547
11
41.4228262999
21
125.419808181
0
LINE
8
0
10
41.4228262999
20
125.419808181
11
41.381360154
21
124.409858618
0
LINE
8
0
10
41.381360154
20
124.409858618
11
41.3830629534
21
123.413000345
0
LINE
8
0
10
41.3830629534
20
123.413000345
11
41.4225666359
21
122.524882403
0
LINE
8
0
10
41.4225666359
20
122.524882403
11
41.4905901745
21
121.746717474
0
LINE
8
0
10
41.4905901745
20
121.746717474
11
41.5778263591
21
121.079124274
0
LINE
8
0
10
41.5778263591
20
121.079124274
11
41.6917506801
21
120.425949298
0
LINE
8
0
10
41.6917506801
20
120.425949298
11
41.6953050684
21
120.180093811
0
LINE
8
0
10
41.6953050684
20
120.180093811
11
41.6400003316
21
120.037518767
0
LINE
8
0
10
41.6400003316
20
120.037518767
11
39.5577798371
21
119.115781521
0
LINE
8
0
10
39.5577798371
20
119.115781521
11
39.4150532455
21
119.17069397
0
LINE
8
0
10
39.4150532455
20
119.17069397
11
39.2354414563
21
119.338614068
0
LINE
8
0
10
39.2354414563
20
119.338614068
11
38.8285018155
21
119.862079855
0
LINE
8
0
10
38.8285018155
20
119.862079855
11
38.392946223
21
120.375482385
0
LINE
8
0
10
38.392946223
20
120.375482385
11
37.8626201336
21
120.948999689
0
LINE
8
0
10
37.8626201336
20
120.948999689
11
37.2317243235
21
121.575325879
0
LINE
8
0
10
37.2317243235
20
121.575325879
11
36.4949168715
21
122.246775128
0
LINE
8
0
10
36.4949168715
20
122.246775128
11
35.7193957047
21
122.895068643
0
LINE
8
0
10
35.7193957047
20
122.895068643
11
34.7667762678
21
122.473372277
0
LINE
8
0
10
34.7667762678
20
122.473372277
11
33.8759031578
21
121.933319762
0
LINE
8
0
10
33.8759031578
20
121.933319762
11
33.963926932
21
120.926359297
0
LINE
8
0
10
33.963926932
20
120.926359297
11
34.0930911579
21
119.937902966
0
LINE
8
0
10
34.0930911579
20
119.937902966
11
34.2458405175
21
119.06212808
0
LINE
8
0
10
34.2458405175
20
119.06212808
11
34.4128151062
21
118.299050531
0
LINE
8
0
10
34.4128151062
20
118.299050531
11
34.5847050065
21
117.648093778
0
LINE
8
0
10
34.5847050065
20
117.648093778
11
34.7812201724
21
117.014849678
0
LINE
8
0
10
34.7812201724
20
117.014849678
11
34.8161846811
21
116.771467186
0
LINE
8
0
10
34.8161846811
20
116.771467186
11
34.7795660873
21
116.622990468
0
LINE
8
0
10
34.7795660873
20
116.622990468
11
32.8323097372
21
115.442552225
0
LINE
8
0
10
32.8323097372
20
115.442552225
11
32.6837328808
21
115.478762373
0
LINE
8
0
10
32.6837328808
20
115.478762373
11
32.4841225563
21
115.622335603
0
LINE
8
0
10
32.4841225563
20
115.622335603
11
32.0135845654
21
116.089465457
0
LINE
8
0
10
32.0135845654
20
116.089465457
11
31.5159524198
21
116.542955347
0
LINE
8
0
10
31.5159524198
20
116.542955347
11
30.9166405353
21
117.043947486
0
LINE
8
0
10
30.9166405353
20
117.043947486
11
30.2108315557
21
117.584454381
0
LINE
8
0
10
30.2108315557
20
117.584454381
11
29.3942102585
21
118.156170195
0
LINE
8
0
10
29.3942102585
20
118.156170195
11
28.5421541751
21
118.699969784
0
LINE
8
0
10
28.5421541751
20
118.699969784
11
27.651281065
21
118.15991727
0
LINE
8
0
10
27.651281065
20
118.15991727
11
26.8367823936
21
117.510376254
0
LINE
8
0
10
26.8367823936
20
117.510376254
11
27.05285074
21
116.522939151
0
LINE
8
0
10
27.05285074
20
116.522939151
11
27.3073555195
21
115.559115187
0
LINE
8
0
10
27.3073555195
20
115.559115187
11
27.5708424157
21
114.710063555
0
LINE
8
0
10
27.5708424157
20
114.710063555
11
27.8340263364
21
113.974603099
0
LINE
8
0
10
27.8340263364
20
113.974603099
11
28.087747525
21
113.350971484
0
LINE
8
0
10
28.087747525
20
113.350971484
11
28.3636267623
21
112.748056111
0
LINE
8
0
10
28.3636267623
20
112.748056111
11
28.4294272751
21
112.511142948
0
LINE
8
0
10
28.4294272751
20
112.511142948
11
28.4120961007
21
112.359202541
0
LINE
8
0
10
28.4120961007
20
112.359202541
11
26.6317777903
21
110.939446064
0
LINE
8
0
10
26.6317777903
20
110.939446064
11
26.479790297
21
110.95635934
0
LINE
8
0
10
26.479790297
20
110.95635934
11
26.2634590333
21
111.073228235
0
LINE
8
0
10
26.2634590333
20
111.073228235
11
25.737048913
21
111.476351896
0
LINE
8
0
10
25.737048913
20
111.476351896
11
25.1855113204
21
111.862482854
0
LINE
8
0
10
25.1855113204
20
111.862482854
11
24.5270543255
21
112.282723552
0
LINE
8
0
10
24.5270543255
20
112.282723552
11
23.7579215403
21
112.728536043
0
LINE
8
0
10
23.7579215403
20
112.728536043
11
22.874895297
21
113.191130865
0
LINE
8
0
10
22.874895297
20
113.191130865
11
21.9602950342
21
113.621507353
0
LINE
8
0
10
21.9602950342
20
113.621507353
11
21.1457963628
21
112.971966338
0
LINE
8
0
10
21.1457963628
20
112.971966338
11
20.4210461757
21
112.223602267
0
LINE
8
0
10
20.4210461757
20
112.223602267
11
20.7616112581
21
111.271902216
0
LINE
8
0
10
20.7616112581
20
111.271902216
11
21.1372776297
21
110.348536582
0
LINE
8
0
10
21.1372776297
20
110.348536582
11
21.507175615
21
109.540149608
0
LINE
8
0
10
21.507175615
20
109.540149608
11
21.8622473949
21
108.844382485
0
LINE
8
0
10
21.8622473949
20
108.844382485
11
22.193633777
21
108.258316023
0
LINE
8
0
10
22.193633777
20
108.258316023
11
22.5443471562
21
107.69562923
0
LINE
8
0
10
22.5443471562
20
107.69562923
11
22.6399032306
21
107.469075504
0
LINE
8
0
10
22.6399032306
20
107.469075504
11
22.6421440529
21
107.316166264
0
LINE
8
0
10
22.6421440529
20
107.316166264
11
21.0579965597
21
105.680403916
0
LINE
8
0
10
21.0579965597
20
105.680403916
11
20.9050940599
21
105.677742605
0
LINE
8
0
10
20.9050940599
20
105.677742605
11
20.6755940103
21
105.76598818
0
LINE
8
0
10
20.6755940103
20
105.76598818
11
20.1019554003
21
106.098486369
0
LINE
8
0
10
20.1019554003
20
106.098486369
11
19.5055685928
21
106.410918135
0
LINE
8
0
10
19.5055685928
20
106.410918135
11
18.798778333
21
106.743507051
0
LINE
8
0
10
18.798778333
20
106.743507051
11
17.9789508812
21
107.087304911
0
LINE
8
0
10
17.9789508812
20
107.087304911
11
17.0440189583
21
107.433182946
0
LINE
8
0
10
17.0440189583
20
107.433182946
11
16.0818922273
21
107.743069564
0
LINE
8
0
10
16.0818922273
20
107.743069564
11
15.3571420402
21
106.994705492
0
LINE
8
0
10
15.3571420402
20
106.994705492
11
14.7340407155
21
106.159806483
0
LINE
8
0
10
14.7340407155
20
106.159806483
11
15.1935104645
21
105.259470372
0
LINE
8
0
10
15.1935104645
20
105.259470372
11
15.6841699968
21
104.391724707
0
LINE
8
0
10
15.6841699968
20
104.391724707
11
16.1544053565
21
103.637276084
0
LINE
8
0
10
16.1544053565
20
103.637276084
11
16.595534727
21
102.992626771
0
LINE
8
0
10
16.595534727
20
102.992626771
11
16.9991449472
21
102.453748656
0
LINE
8
0
10
16.9991449472
20
102.453748656
11
17.4189337643
21
101.940529746
0
LINE
8
0
10
17.4189337643
20
101.940529746
11
17.5426763721
21
101.728055462
0
LINE
8
0
10
17.5426763721
20
101.728055462
11
17.564452397
21
101.576688154
0
LINE
8
0
10
17.564452397
20
101.576688154
11
16.202487379
21
99.7517791079
0
LINE
8
0
10
16.202487379
20
99.7517791079
11
16.0511805276
21
99.7295869082
0
LINE
8
0
10
16.0511805276
20
99.7295869082
11
15.8122800765
21
99.7877601732
0
LINE
8
0
10
15.8122800765
20
99.7877601732
11
15.2008321069
21
100.044173279
0
LINE
8
0
10
15.2008321069
20
100.044173279
11
14.5693887393
21
100.277775733
0
LINE
8
0
10
14.5693887393
20
100.277775733
11
13.8258706912
21
100.517251766
0
LINE
8
0
10
13.8258706912
20
100.517251766
11
12.968810117
21
100.753389843
0
LINE
8
0
10
12.968810117
20
100.753389843
11
11.9973240709
21
100.976871783
0
LINE
8
0
10
11.9973240709
20
100.976871783
11
11.0034689659
21
101.161180201
0
LINE
8
0
10
11.0034689659
20
101.161180201
11
10.3803676412
21
100.326281191
0
LINE
8
0
10
10.3803676412
20
100.326281191
11
9.86914648535
21
99.4185562621
0
LINE
8
0
10
9.86914648535
20
99.4185562621
11
10.4399764205
21
98.584367586
0
LINE
8
0
10
10.4399764205
20
98.584367586
11
11.0375724974
21
97.7864902494
0
LINE
8
0
10
11.0375724974
20
97.7864902494
11
11.60042398
21
97.0983680016
0
LINE
8
0
10
11.60042398
20
97.0983680016
11
12.1203676088
21
96.5154216223
0
LINE
8
0
10
12.1203676088
20
96.5154216223
11
12.5895743986
21
96.0325802185
0
LINE
8
0
10
12.5895743986
20
96.0325802185
11
13.0715457328
21
95.577256231
0
LINE
8
0
10
13.0715457328
20
95.577256231
11
13.2214430239
21
95.3823502117
0
LINE
8
0
10
13.2214430239
20
95.3823502117
11
13.2623966896
21
95.235010284
0
LINE
8
0
10
13.2623966896
20
95.235010284
11
12.1449775747
21
93.2509194947
0
LINE
8
0
10
12.1449775747
20
93.2509194947
11
11.997750826
21
93.209560802
0
LINE
8
0
10
11.997750826
20
93.209560802
11
11.7533727123
21
93.2367065537
0
LINE
8
0
10
11.7533727123
20
93.2367065537
11
11.1141553418
21
93.4128242809
0
LINE
8
0
10
11.1141553418
20
93.4128242809
11
10.4580236968
21
93.563761676
0
LINE
8
0
10
10.4580236968
20
93.563761676
11
9.68998640622
21
93.7061926367
0
LINE
8
0
10
9.68998640622
20
93.7061926367
11
8.80976562041
21
93.8307935493
0
LINE
8
0
10
8.80976562041
20
93.8307935493
11
7.81767722508
21
93.928209828
0
LINE
8
0
10
7.81767722508
20
93.928209828
11
6.80841281956
21
93.9839137056
0
LINE
8
0
10
6.80841281956
20
93.9839137056
11
6.29719166372
21
93.0761887767
0
LINE
8
0
10
6.29719166372
20
93.0761887767
11
5.906244914
21
92.1105427464
0
LINE
8
0
10
5.906244914
20
92.1105427464
11
6.57906202344
21
91.3561988597
0
LINE
8
0
10
6.57906202344
20
91.3561988597
11
7.27378213406
21
90.6412909751
0
LINE
8
0
10
7.27378213406
20
90.6412909751
11
7.92000773364
21
90.0307940516
0
LINE
8
0
10
7.92000773364
20
90.0307940516
11
8.51022816088
21
89.5191225695
0
LINE
8
0
10
8.51022816088
20
89.5191225695
11
9.03732715767
21
89.1002461194
0
LINE
8
0
10
9.03732715767
20
89.1002461194
11
9.57356705308
21
88.7102934618
0
LINE
8
0
10
9.57356705308
20
88.7102934618
11
9.74715771801
21
88.5361560583
0
LINE
8
0
10
9.74715771801
20
88.5361560583
11
9.80661656639
21
88.3952628279
0
LINE
8
0
10
9.80661656639
20
88.3952628279
11
8.95209134573
21
86.2845690118
0
LINE
8
0
10
8.95209134573
20
86.2845690118
11
8.81136215875
21
86.2247229346
0
LINE
8
0
10
8.81136215875
20
86.2247229346
11
8.56551906438
21
86.2203954405
0
LINE
8
0
10
8.56551906438
20
86.2203954405
11
7.9090282246
21
86.3133259405
0
LINE
8
0
10
7.9090282246
20
86.3133259405
11
7.23898196564
21
86.3791198894
0
LINE
8
0
10
7.23898196564
20
86.3791198894
11
6.45903658358
21
86.422167065
0
LINE
8
0
10
6.45903658358
20
86.422167065
11
5.5701087872
21
86.4331848701
0
LINE
8
0
10
5.5701087872
20
86.4331848701
11
4.57370810666
21
86.4029359144
0
LINE
8
0
10
4.57370810666
20
86.4029359144
11
3.56560649419
21
86.3291205963
0
LINE
8
0
10
3.56560649419
20
86.3291205963
11
3.17465974448
21
85.3634745661
0
LINE
8
0
10
3.17465974448
20
85.3634745661
11
2.91040673571
21
84.3557633157
0
LINE
8
0
10
2.91040673571
20
84.3557633157
11
3.67416338115
21
83.6936505241
0
LINE
8
0
10
3.67416338115
20
83.6936505241
11
4.45460024041
21
83.0734508593
0
LINE
8
0
10
4.45460024041
20
83.0734508593
11
5.17358895055
21
82.5506036026
0
LINE
8
0
10
5.17358895055
20
82.5506036026
11
5.82439477309
21
82.1186086493
0
LINE
8
0
10
5.82439477309
20
82.1186086493
11
6.40073102593
21
81.7705750927
0
LINE
8
0
10
6.40073102593
20
81.7705750927
11
6.98243443825
21
81.4523967769
0
LINE
8
0
10
6.98243443825
20
81.4523967769
11
7.17686812313
21
81.3018873206
0
LINE
8
0
10
7.17686812313
20
81.3018873206
11
7.25385584159
21
81.1697542504
0
LINE
8
0
10
7.25385584159
20
81.1697542504
11
6.67625579558
21
78.9671149415
0
LINE
8
0
10
6.67625579558
20
78.9671149415
11
6.54433493976
21
78.8897641508
0
LINE
8
0
10
6.54433493976
20
78.8897641508
11
6.30106360147
21
78.8540344682
0
LINE
8
0
10
6.30106360147
20
78.8540344682
11
5.63807885382
21
78.8622518249
0
LINE
8
0
10
5.63807885382
20
78.8622518249
11
4.96512012195
21
78.8418219925
0
LINE
8
0
10
4.96512012195
20
78.8418219925
11
4.18607333006
21
78.7847785497
0
LINE
8
0
10
4.18607333006
20
78.7847785497
11
3.30303469296
21
78.6820323352
0
LINE
8
0
10
3.30303469296
20
78.6820323352
11
2.31868259884
21
78.524614832
0
LINE
8
0
10
2.31868259884
20
78.524614832
11
1.32829678002
21
78.3224923639
0
LINE
8
0
10
1.32829678002
20
78.3224923639
11
1.06404377126
21
77.3147811135
0
LINE
8
0
10
1.06404377126
20
77.3147811135
11
0.930823530544
21
76.2815512338
0
LINE
8
0
10
0.930823530544
20
76.2815512338
11
1.77297884899
21
75.7225414111
0
LINE
8
0
10
1.77297884899
20
75.7225414111
11
2.62631770523
21
75.2072336274
0
LINE
8
0
10
2.62631770523
20
75.2072336274
11
3.40626375119
21
74.780621175
0
LINE
8
0
10
3.40626375119
20
74.780621175
11
4.10696875541
21
74.4353960956
0
LINE
8
0
10
4.10696875541
20
74.4353960956
11
4.72307883897
21
74.1639201339
0
LINE
8
0
10
4.72307883897
20
74.1639201339
11
5.34069421425
21
73.922740639
0
LINE
8
0
10
5.34069421425
20
73.922740639
11
5.55277832334
21
73.798330491
0
LINE
8
0
10
5.55277832334
20
73.798330491
11
5.64603077568
21
73.6771272025
0
LINE
8
0
10
5.64603077568
20
73.6771272025
11
5.35484008109
21
71.4187096774
0
LINE
8
0
10
5.35484008109
20
71.4187096774
11
5.23389369326
21
71.3251242709
0
LINE
8
0
10
5.23389369326
20
71.3251242709
11
4.99718861967
21
71.2585790803
0
LINE
8
0
10
4.99718861967
20
71.2585790803
11
4.3385961554
21
71.1819483648
0
LINE
8
0
10
4.3385961554
20
71.1819483648
11
3.6737749144
21
71.0756302085
0
LINE
8
0
10
3.6737749144
20
71.0756302085
11
2.90841863946
21
70.919432799
0
LINE
8
0
10
2.90841863946
20
70.919432799
11
2.04576863163
21
70.704609655
0
LINE
8
0
10
2.04576863163
20
70.704609655
11
1.0896281581
21
70.4226083955
0
LINE
8
0
10
1.0896281581
20
70.4226083955
11
0.133220240717
21
70.0954976225
0
LINE
8
0
10
0.133220240717
20
70.0954976225
11
8.52651282912e-14
21
69.0622677428
0
LINE
8
0
10
8.52651282912e-14
20
69.0622677428
11
0.0
21
68.0204848399
0
LINE
8
0
10
0.0
20
68.0204848399
11
0.906725824399
21
67.5737569119
0
LINE
8
0
10
0.906725824399
20
67.5737569119
11
1.8189548772
21
67.1718023489
0
LINE
8
0
10
1.8189548772
20
67.1718023489
11
2.64705156646
21
66.8484296654
0
LINE
8
0
10
2.64705156646
20
66.8484296654
11
3.38615019557
21
66.5956430463
0
LINE
8
0
10
3.38615019557
20
66.5956430463
11
4.03191759931
21
66.4051823073
0
LINE
8
0
10
4.03191759931
20
66.4051823073
11
4.67530371017
21
66.2449617939
0
LINE
8
0
10
4.67530371017
20
66.2449617939
11
4.90155582826
21
66.1486937654
0
LINE
8
0
10
4.90155582826
20
66.1486937654
11
5.00954181178
21
66.0404104131
0
LINE
8
0
10
5.00954181178
20
66.0404104131
11
5.00954181178
21
63.7632978251
0
LINE
8
0
10
5.00954181178
20
63.7632978251
11
4.90155582826
21
63.6550144728
0
LINE
8
0
10
4.90155582826
20
63.6550144728
11
4.67530371016
21
63.5587464443
0
LINE
8
0
10
4.67530371016
20
63.5587464443
11
4.03191759931
21
63.3985259309
0
LINE
8
0
10
4.03191759931
20
63.3985259309
11
3.38615019557
21
63.2080651919
0
LINE
8
0
10
3.38615019557
20
63.2080651919
11
2.64705156646
21
62.9552785728
0
LINE
8
0
10
2.64705156646
20
62.9552785728
11
1.8189548772
21
62.6319058893
0
LINE
8
0
10
1.8189548772
20
62.6319058893
11
0.906725824401
21
62.2299513263
0
LINE
8
0
10
0.906725824401
20
62.2299513263
11
8.52651282912e-14
21
61.7832233983
0
LINE
8
0
10
8.52651282912e-14
20
61.7832233983
11
9.94759830064e-14
21
60.7414404954
0
LINE
8
0
10
9.94759830064e-14
20
60.7414404954
11
0.133220240717
21
59.7082106157
0
LINE
8
0
10
0.133220240717
20
59.7082106157
11
1.0896281581
21
59.3810998428
0
LINE
8
0
10
1.0896281581
20
59.3810998428
11
2.04576863163
21
59.0990985832
0
LINE
8
0
10
2.04576863163
20
59.0990985832
11
2.90841863946
21
58.8842754392
0
LINE
8
0
10
2.90841863946
20
58.8842754392
11
3.6737749144
21
58.7280780297
0
LINE
8
0
10
3.6737749144
20
58.7280780297
11
4.3385961554
21
58.6217598734
0
LINE
8
0
10
4.3385961554
20
58.6217598734
11
4.99718861968
21
58.5451291579
0
LINE
8
0
10
4.99718861968
20
58.5451291579
11
5.23389369326
21
58.4785839673
0
LINE
8
0
10
5.23389369326
20
58.4785839673
11
5.35484008109
21
58.3849985609
0
LINE
8
0
10
5.35484008109
20
58.3849985609
11
5.64603077568
21
56.1265810358
0
LINE
8
0
10
5.64603077568
20
56.1265810358
11
5.55277832334
21
56.0053777472
0
LINE
8
0
10
5.55277832334
20
56.0053777472
11
5.34069421425
21
55.8809675992
0
LINE
8
0
10
5.34069421425
20
55.8809675992
11
4.72307883897
21
55.6397881043
0
LINE
8
0
10
4.72307883897
20
55.6397881043
11
4.10696875541
21
55.3683121426
0
LINE
8
0
10
4.10696875541
20
55.3683121426
11
3.40626375119
21
55.0230870633
0
LINE
8
0
10
3.40626375119
20
55.0230870633
11
2.62631770523
21
54.5964746108
0
LINE
8
0
10
2.62631770523
20
54.5964746108
11
1.77297884899
21
54.0811668271
0
LINE
8
0
10
1.77297884899
20
54.0811668271
11
0.930823530544
21
53.5221570044
0
LINE
8
0
10
0.930823530544
20
53.5221570044
11
1.06404377126
21
52.4889271247
0
LINE
8
0
10
1.06404377126
20
52.4889271247
11
1.32829678002
21
51.4812158743
0
LINE
8
0
10
1.32829678002
20
51.4812158743
11
2.31868259883
21
51.2790934062
0
LINE
8
0
10
2.31868259883
20
51.2790934062
11
3.30303469296
21
51.121675903
0
LINE
8
0
10
3.30303469296
20
51.121675903
11
4.18607333006
21
51.0189296886
0
LINE
8
0
10
4.18607333006
20
51.0189296886
11
4.96512012195
21
50.9618862457
0
LINE
8
0
10
4.96512012195
20
50.9618862457
11
5.63807885382
21
50.9414564133
0
LINE
8
0
10
5.63807885382
20
50.9414564133
11
6.30106360147
21
50.94967377
0
LINE
8
0
10
6.30106360147
20
50.94967377
11
6.54433493976
21
50.9139440874
0
LINE
8
0
10
6.54433493976
20
50.9139440874
11
6.67625579558
21
50.8365932967
0
LINE
8
0
10
6.67625579558
20
50.8365932967
11
7.25385584159
21
48.6339539878
0
LINE
8
0
10
7.25385584159
20
48.6339539878
11
7.17686812313
21
48.5018209177
0
LINE
8
0
10
7.17686812313
20
48.5018209177
11
6.98243443825
21
48.3513114614
0
LINE
8
0
10
6.98243443825
20
48.3513114614
11
6.40073102593
21
48.0331331455
0
LINE
8
0
10
6.40073102593
20
48.0331331455
11
5.82439477309
21
47.6850995889
0
LINE
8
0
10
5.82439477309
20
47.6850995889
11
5.17358895055
21
47.2531046356
0
LINE
8
0
10
5.17358895055
20
47.2531046356
11
4.45460024041
21
46.7302573789
0
LINE
8
0
10
4.45460024041
20
46.7302573789
11
3.67416338116
21
46.1100577141
0
LINE
8
0
10
3.67416338116
20
46.1100577141
11
2.91040673571
21
45.4479449225
0
LINE
8
0
10
2.91040673571
20
45.4479449225
11
3.17465974448
21
44.4402336721
0
LINE
8
0
10
3.17465974448
20
44.4402336721
11
3.56560649419
21
43.4745876419
0
LINE
8
0
10
3.56560649419
20
43.4745876419
11
4.57370810666
21
43.4007723239
0
LINE
8
0
10
4.57370810666
20
43.4007723239
11
5.5701087872
21
43.3705233681
0
LINE
8
0
10
5.5701087872
20
43.3705233681
11
6.45903658358
21
43.3815411732
0
LINE
8
0
10
6.45903658358
20
43.3815411732
11
7.23898196564
21
43.4245883489
0
LINE
8
0
10
7.23898196564
20
43.4245883489
11
7.9090282246
21
43.4903822977
0
LINE
8
0
10
7.9090282246
20
43.4903822977
11
8.56551906438
21
43.5833127977
0
LINE
8
0
10
8.56551906438
20
43.5833127977
11
8.81136215875
21
43.5789853036
0
LINE
8
0
10
8.81136215875
20
43.5789853036
11
8.95209134573
21
43.5191392264
0
LINE
8
0
10
8.95209134573
20
43.5191392264
11
9.80661656639
21
41.4084454103
0
LINE
8
0
10
9.80661656639
20
41.4084454103
11
9.74715771801
21
41.2675521799
0
LINE
8
0
10
9.74715771801
20
41.2675521799
11
9.57356705307
21
41.0934147764
0
LINE
8
0
10
9.57356705307
20
41.0934147764
11
9.03732715767
21
40.7034621188
0
LINE
8
0
10
9.03732715767
20
40.7034621188
11
8.51022816088
21
40.2845856687
0
LINE
8
0
10
8.51022816088
20
40.2845856687
11
7.92000773364
21
39.7729141866
0
LINE
8
0
10
7.92000773364
20
39.7729141866
11
7.27378213406
21
39.1624172631
0
LINE
8
0
10
7.27378213406
20
39.1624172631
11
6.57906202344
21
38.4475093785
0
LINE
8
0
10
6.57906202344
20
38.4475093785
11
5.906244914
21
37.6931654918
0
LINE
8
0
10
5.906244914
20
37.6931654918
11
6.29719166372
21
36.7275194615
0
LINE
8
0
10
6.29719166372
20
36.7275194615
11
6.80841281956
21
35.8197945326
0
LINE
8
0
10
6.80841281956
20
35.8197945326
11
7.81767722508
21
35.8754984102
0
LINE
8
0
10
7.81767722508
20
35.8754984102
11
8.80976562041
21
35.9729146889
0
LINE
8
0
10
8.80976562041
20
35.9729146889
11
9.68998640622
21
36.0975156015
0
LINE
8
0
10
9.68998640622
20
36.0975156015
11
10.4580236968
21
36.2399465622
0
LINE
8
0
10
10.4580236968
20
36.2399465622
11
11.1141553418
21
36.3908839574
0
LINE
8
0
10
11.1141553418
20
36.3908839574
11
11.7533727123
21
36.5670016846
0
LINE
8
0
10
11.7533727123
20
36.5670016846
11
11.997750826
21
36.5941474363
0
LINE
8
0
10
11.997750826
20
36.5941474363
11
12.1449775747
21
36.5527887435
0
LINE
8
0
10
12.1449775747
20
36.5527887435
11
13.2623966896
21
34.5686979542
0
LINE
8
0
10
13.2623966896
20
34.5686979542
11
13.2214430239
21
34.4213580265
0
LINE
8
0
10
13.2214430239
20
34.4213580265
11
13.0715457328
21
34.2264520072
0
LINE
8
0
10
13.0715457328
20
34.2264520072
11
12.5895743986
21
33.7711280197
0
LINE
8
0
10
12.5895743986
20
33.7711280197
11
12.1203676088
21
33.2882866159
0
LINE
8
0
10
12.1203676088
20
33.2882866159
11
11.60042398
21
32.7053402366
0
LINE
8
0
10
11.60042398
20
32.7053402366
11
11.0375724974
21
32.0172179889
0
LINE
8
0
10
11.0375724974
20
32.0172179889
11
10.4399764205
21
31.2193406522
0
LINE
8
0
10
10.4399764205
20
31.2193406522
11
9.86914648535
21
30.3851519761
0
LINE
8
0
10
9.86914648535
20
30.3851519761
11
10.3803676412
21
29.4774270471
0
LINE
8
0
10
10.3803676412
20
29.4774270471
11
11.0034689659
21
28.6425280377
0
LINE
8
0
10
11.0034689659
20
28.6425280377
11
11.9973240709
21
28.8268364548
0
LINE
8
0
10
11.9973240709
20
28.8268364548
11
12.968810117
21
29.0503183953
0
LINE
8
0
10
12.968810117
20
29.0503183953
11
13.8258706912
21
29.286456472
0
LINE
8
0
10
13.8258706912
20
29.286456472
11
14.5693887393
21
29.5259325052
0
LINE
8
0
10
14.5693887393
20
29.5259325052
11
15.2008321069
21
29.7595349589
0
LINE
8
0
10
15.2008321069
20
29.7595349589
11
15.8122800765
21
30.015948065
0
LINE
8
0
10
15.8122800765
20
30.015948065
11
16.0511805276
21
30.07412133
0
LINE
8
0
10
16.0511805276
20
30.07412133
11
16.202487379
21
30.0519291303
0
LINE
8
0
10
16.202487379
20
30.0519291303
11
17.564452397
21
28.2270200838
0
LINE
8
0
10
17.564452397
20
28.2270200838
11
17.5426763721
21
28.0756527763
0
LINE
8
0
10
17.5426763721
20
28.0756527763
11
17.4189337643
21
27.8631784926
0
LINE
8
0
10
17.4189337643
20
27.8631784926
11
16.9991449472
21
27.3499595826
0
LINE
8
0
10
16.9991449472
20
27.3499595826
11
16.595534727
21
26.8110814674
0
LINE
8
0
10
16.595534727
20
26.8110814674
11
16.1544053565
21
26.1664321544
0
LINE
8
0
10
16.1544053565
20
26.1664321544
11
15.6841699968
21
25.4119835307
0
LINE
8
0
10
15.6841699968
20
25.4119835307
11
15.1935104645
21
24.5442378659
0
LINE
8
0
10
15.1935104645
20
24.5442378659
11
14.7340407155
21
23.6439017553
0
LINE
8
0
10
14.7340407155
20
23.6439017553
11
15.3571420402
21
22.8090027459
0
LINE
8
0
10
15.3571420402
20
22.8090027459
11
16.0818922273
21
22.0606386746
0
LINE
8
0
10
16.0818922273
20
22.0606386746
11
17.0440189583
21
22.3705252921
0
LINE
8
0
10
17.0440189583
20
22.3705252921
11
17.9789508812
21
22.7164033272
0
LINE
8
0
10
17.9789508812
20
22.7164033272
11
18.798778333
21
23.0602011871
0
LINE
8
0
10
18.798778333
20
23.0602011871
11
19.5055685928
21
23.392790103
0
LINE
8
0
10
19.5055685928
20
23.392790103
11
20.1019554003
21
23.7052218694
0
LINE
8
0
10
20.1019554003
20
23.7052218694
11
20.6755940103
21
24.0377200584
0
LINE
8
0
10
20.6755940103
20
24.0377200584
11
20.9050940599
21
24.1259656333
0
LINE
8
0
10
20.9050940599
20
24.1259656333
11
21.0579965597
21
24.123304322
0
LINE
8
0
10
21.0579965597
20
24.123304322
11
22.6421440529
21
22.4875419743
0
LINE
8
0
10
22.6421440529
20
22.4875419743
11
22.6399032306
21
22.3346327341
0
LINE
8
0
10
22.6399032306
20
22.3346327341
11
22.5443471562
21
22.1080790078
0
LINE
8
0
10
22.5443471562
20
22.1080790078
11
22.193633777
21
21.5453922155
0
LINE
8
0
10
22.193633777
20
21.5453922155
11
21.8622473949
21
20.9593257529
0
LINE
8
0
10
21.8622473949
20
20.9593257529
11
21.507175615
21
20.2635586299
0
LINE
8
0
10
21.507175615
20
20.2635586299
11
21.1372776297
21
19.4551716559
0
LINE
8
0
10
21.1372776297
20
19.4551716559
11
20.7616112581
21
18.5318060226
0
LINE
8
0
10
20.7616112581
20
18.5318060226
11
20.4210461757
21
17.5801059717
0
LINE
8
0
10
20.4210461757
20
17.5801059717
11
21.1457963628
21
16.8317419005
0
LINE
8
0
10
21.1457963628
20
16.8317419005
11
21.9602950342
21
16.1822008847
0
LINE
8
0
10
21.9602950342
20
16.1822008847
11
22.874895297
21
16.6125773729
0
LINE
8
0
10
22.874895297
20
16.6125773729
11
23.7579215403
21
17.0751721948
0
LINE
8
0
10
23.7579215403
20
17.0751721948
11
24.5270543255
21
17.5209846866
0
LINE
8
0
10
24.5270543255
20
17.5209846866
11
25.1855113204
21
17.9412253845
0
LINE
8
0
10
25.1855113204
20
17.9412253845
11
25.737048913
21
18.3273563426
0
LINE
8
0
10
25.737048913
20
18.3273563426
11
26.2634590333
21
18.7304800033
0
LINE
8
0
10
26.2634590333
20
18.7304800033
11
26.479790297
21
18.8473488982
0
LINE
8
0
10
26.479790297
20
18.8473488982
11
26.6317777903
21
18.8642621739
0
LINE
8
0
10
26.6317777903
20
18.8642621739
11
28.4120961007
21
17.4445056976
0
LINE
8
0
10
28.4120961007
20
17.4445056976
11
28.4294272751
21
17.2925652902
0
LINE
8
0
10
28.4294272751
20
17.2925652902
11
28.3636267623
21
17.0556521273
0
LINE
8
0
10
28.3636267623
20
17.0556521273
11
28.087747525
21
16.4527367542
0
LINE
8
0
10
28.087747525
20
16.4527367542
11
27.8340263364
21
15.8291051392
0
LINE
8
0
10
27.8340263364
20
15.8291051392
11
27.5708424157
21
15.0936446833
0
LINE
8
0
10
27.5708424157
20
15.0936446833
11
27.3073555195
21
14.2445930507
0
LINE
8
0
10
27.3073555195
20
14.2445930507
11
27.05285074
21
13.2807690872
0
LINE
8
0
10
27.05285074
20
13.2807690872
11
26.8367823936
21
12.2933319844
0
LINE
8
0
10
26.8367823936
20
12.2933319844
11
27.651281065
21
11.6437909687
0
LINE
8
0
10
27.651281065
20
11.6437909687
11
28.5421541751
21
11.103738454
0
LINE
8
0
10
28.5421541751
20
11.103738454
11
29.3942102585
21
11.6475380429
0
LINE
8
0
10
29.3942102585
20
11.6475380429
11
30.2108315557
21
12.2192538573
0
LINE
8
0
10
30.2108315557
20
12.2192538573
11
30.9166405353
21
12.7597607523
0
LINE
8
0
10
30.9166405353
20
12.7597607523
11
31.5159524198
21
13.2607528914
0
LINE
8
0
10
31.5159524198
20
13.2607528914
11
32.0135845654
21
13.7142427816
0
LINE
8
0
10
32.0135845654
20
13.7142427816
11
32.4841225563
21
14.1813726347
0
LINE
8
0
10
32.4841225563
20
14.1813726347
11
32.6837328808
21
14.3249458656
0
LINE
8
0
10
32.6837328808
20
14.3249458656
11
32.8323097372
21
14.3611560128
0
LINE
8
0
10
32.8323097372
20
14.3611560128
11
34.7795660874
21
13.18071777
0
LINE
8
0
10
34.7795660874
20
13.18071777
11
34.8161846811
21
13.0322410526
0
LINE
8
0
10
34.8161846811
20
13.0322410526
11
34.7812201724
21
12.7888585606
0
LINE
8
0
10
34.7812201724
20
12.7888585606
11
34.5847050065
21
12.1556144607
0
LINE
8
0
10
34.5847050065
20
12.1556144607
11
34.4128151062
21
11.5046577071
0
LINE
8
0
10
34.4128151062
20
11.5046577071
11
34.2458405175
21
10.7415801586
0
LINE
8
0
10
34.2458405175
20
10.7415801586
11
34.0930911579
21
9.86580527176
0
LINE
8
0
10
34.0930911579
20
9.86580527176
11
33.963926932
21
8.87734894079
0
LINE
8
0
10
33.963926932
20
8.87734894079
11
33.8759031578
21
7.87038847612
0
LINE
8
0
10
33.8759031578
20
7.87038847612
11
34.7667762678
21
7.33033596145
0
LINE
8
0
10
34.7667762678
20
7.33033596145
11
35.7193957047
21
6.9086395952
0
LINE
8
0
10
35.7193957047
20
6.9086395952
11
36.4949168715
21
7.55693311051
0
LINE
8
0
10
36.4949168715
20
7.55693311051
11
37.2317243235
21
8.22838235967
0
LINE
8
0
10
37.2317243235
20
8.22838235967
11
37.8626201336
21
8.85470854951
0
LINE
8
0
10
37.8626201336
20
8.85470854951
11
38.392946223
21
9.42822585286
0
LINE
8
0
10
38.392946223
20
9.42822585286
11
38.8285018155
21
9.94162838368
0
LINE
8
0
10
38.8285018155
20
9.94162838368
11
39.2354414563
21
10.4650941699
0
LINE
8
0
10
39.2354414563
20
10.4650941699
11
39.4150532455
21
10.6330142682
0
LINE
8
0
10
39.4150532455
20
10.6330142682
11
39.5577798371
21
10.6879267173
0
LINE
8
0
10
39.5577798371
20
10.6879267173
11
41.6400003316
21
9.76618947129
0
LINE
8
0
10
41.6400003316
20
9.76618947129
11
41.6953050684
21
9.6236144275
0
LINE
8
0
10
41.6953050684
20
9.6236144275
11
41.6917506801
21
9.37775894032
0
LINE
8
0
10
41.6917506801
20
9.37775894032
11
41.5778263591
21
8.72458396403
0
LINE
8
0
10
41.5778263591
20
8.72458396403
11
41.4905901745
21
8.05699076383
0
LINE
8
0
10
41.4905901745
20
8.05699076383
11
41.422566636
21
7.27882583496
0
LINE
8
0
10
41.422566636
20
7.27882583496
11
41.3830629534
21
6.39070789332
0
LINE
8
0
10
41.3830629534
20
6.39070789332
11
41.381360154
21
5.39384962056
0
LINE
8
0
10
41.381360154
20
5.39384962056
11
41.4228262999
21
4.38390005697
0
LINE
8
0
10
41.4228262999
20
4.38390005697
11
42.3754457367
21
3.96220369072
0
LINE
8
0
10
42.3754457367
20
3.96220369072
11
43.3741695156
21
3.66578771556
0
LINE
8
0
10
43.3741695156
20
3.66578771556
11
44.0604217297
21
4.40793019571
0
LINE
8
0
10
44.0604217297
20
4.40793019571
11
44.7053169785
21
5.16808770148
0
LINE
8
0
10
44.7053169785
20
5.16808770148
11
45.2509403273
21
5.86994892747
0
LINE
8
0
10
45.2509403273
20
5.86994892747
11
45.7035726818
21
6.50657425676
0
LINE
8
0
10
45.7035726818
20
6.50657425676
11
46.0698999105
21
7.07145937284
0
LINE
8
0
10
46.0698999105
20
7.07145937284
11
46.4065592635
21
7.6426657984
0
LINE
8
0
10
46.4065592635
20
7.6426657984
11
46.5632232969
21
7.83217552088
0
LINE
8
0
10
46.5632232969
20
7.83217552088
11
46.697756057
21
7.90488861096
0
LINE
8
0
10
46.697756057
20
7.90488861096
11
48.8807506929
21
7.25698726181
0
LINE
8
0
10
48.8807506929
20
7.25698726181
11
48.9538334704
21
7.12265496993
0
LINE
8
0
10
48.9538334704
20
7.12265496993
11
48.9817475655
21
6.87836342781
0
LINE
8
0
10
48.9817475655
20
6.87836342781
11
48.9522847237
21
6.21598269024
0
LINE
8
0
10
48.9522847237
20
6.21598269024
11
48.9511346706
21
5.5427149053
0
LINE
8
0
10
48.9511346706
20
5.5427149053
11
48.9831791267
21
4.7622400427
0
LINE
8
0
10
48.9831791267
20
4.7622400427
11
49.0575697705
21
3.87636191828
0
LINE
8
0
10
49.0575697705
20
3.87636191828
11
49.1833563576
21
2.887470089
0
LINE
8
0
10
49.1833563576
20
2.887470089
11
49.3536315506
21
1.89111477041
0
LINE
8
0
10
49.3536315506
20
1.89111477041
11
50.3523553295
21
1.59469879525
0
LINE
8
0
10
50.3523553295
20
1.59469879525
11
51.3807844335
21
1.4284303533
0
LINE
8
0
10
51.3807844335
20
1.4284303533
11
51.9664994525
21
2.25223583929
0
LINE
8
0
10
51.9664994525
20
2.25223583929
11
52.5088933359
21
3.08861983645
0
LINE
8
0
10
52.5088933359
20
3.08861983645
11
52.960285103
21
3.85449155665
0
LINE
8
0
10
52.960285103
20
3.85449155665
11
53.3277915121
21
4.54377154158
0
LINE
8
0
10
53.3277915121
20
4.54377154158
11
53.618875294
21
5.15086384492
0
LINE
8
0
10
53.618875294
20
5.15086384492
11
53.8797264219
21
5.76043171614
0
LINE
8
0
10
53.8797264219
20
5.76043171614
11
54.0108702803
21
5.96841931834
0
LINE
8
0
10
54.0108702803
20
5.96841931834
11
54.1350001847
21
6.05773910247
0
LINE
8
0
10
54.1350001847
20
6.05773910247
11
56.3829242504
21
5.69431217245
0
LINE
8
0
10
56.3829242504
20
5.69431217245
11
56.4725850516
21
5.57042836499
0
LINE
8
0
10
56.4725850516
20
5.57042836499
11
56.5315092813
21
5.33171202831
0
LINE
8
0
10
56.5315092813
20
5.33171202831
11
56.5869916977
21
4.67100180285
0
LINE
8
0
10
56.5869916977
20
4.67100180285
11
56.6719466599
21
4.00311447159
0
LINE
8
0
10
56.6719466599
20
4.00311447159
11
56.8035329417
21
3.23314505092
0
LINE
8
0
10
56.8035329417
20
3.23314505092
11
56.9905964195
21
2.36405283803
0
LINE
8
0
10
56.9905964195
20
2.36405283803
11
57.2418069808
21
1.39936502874
0
LINE
8
0
10
57.2418069808
20
1.39936502874
11
57.538095307
21
0.432964081933
0
LINE
8
0
10
57.538095307
20
0.432964081933
11
58.566524411
21
0.26669563998
0
LINE
8
0
10
58.566524411
20
0.26669563998
11
59.6077720627
21
0.233304854454
0
LINE
8
0
10
59.6077720627
20
0.233304854454
11
60.0833324622
21
1.12524648298
0
LINE
8
0
10
60.0833324622
20
1.12524648298
11
60.5143188877
21
2.02412356941
0
LINE
8
0
10
60.5143188877
20
2.02412356941
11
60.8640672329
21
2.84143019136
0
LINE
8
0
10
60.8640672329
20
2.84143019136
11
61.1404132513
21
3.57204687364
0
LINE
8
0
10
61.1404132513
20
3.57204687364
11
61.3514739987
21
4.2113779254
0
LINE
8
0
10
61.3514739987
20
4.2113779254
11
61.5322337333
21
4.84929815468
0
LINE
8
0
10
61.5322337333
20
4.84929815468
11
61.6357040381
21
5.07234848592
0
LINE
8
0
10
61.6357040381
20
5.07234848592
11
61.7473928773
21
5.17680833572
0
LINE
8
0
10
61.7473928773
20
5.17680833572
11
64.0233355218
21
5.10382328497
0
LINE
8
0
10
64.0233355218
20
5.10382328497
11
64.1281021187
21
4.99242213063
0
LINE
8
0
10
64.1281021187
20
4.99242213063
11
64.2170689489
21
4.76320071503
0
LINE
8
0
10
64.2170689489
20
4.76320071503
11
64.3565856038
21
4.11500984532
0
LINE
8
0
10
64.3565856038
20
4.11500984532
11
64.5262506232
21
3.46346965926
0
LINE
8
0
10
64.5262506232
20
3.46346965926
11
64.7552180875
21
2.71664855712
0
LINE
8
0
10
64.7552180875
20
2.71664855712
11
65.0518828221
21
1.87861272587
0
LINE
8
0
10
65.0518828221
20
1.87861272587
11
65.4243924871
21
0.953969083723
0
LINE
8
0
10
65.4243924871
20
0.953969083723
11
65.8418289004
21
0.0333907855258
0
LINE
8
0
10
65.8418289004
20
0.0333907855258
11
66.8830765521
21
0.0
0
LINE
8
0
10
66.8830765521
20
0.0
11
67.9200454939
21
0.100035146677
0
LINE
8
0
10
67.9200454939
20
0.100035146677
11
68.2776425853
21
1.04546726085
0
LINE
8
0
10
68.2776425853
20
1.04546726085
11
68.5901447677
21
1.99207789965
0
LINE
8
0
10
68.5901447677
20
1.99207789965
11
68.8325068327
21
2.84739927122
0
LINE
8
0
10
68.8325068327
20
2.84739927122
11
69.0131548665
21
3.60735594511
0
LINE
8
0
10
69.0131548665
20
3.60735594511
11
69.1407269679
21
4.2684279471
0
LINE
8
0
10
69.1407269679
20
4.2684279471
11
69.2384272392
21
4.92422590191
0
LINE
8
0
10
69.2384272392
20
4.92422590191
11
69.312525011
21
5.15867648192
0
LINE
8
0
10
69.312525011
20
5.15867648192
11
69.4099388573
21
5.27656116955
0
LINE
8
0
10
69.4099388573
20
5.27656116955
11
71.6765291652
21
5.49521641058
0
LINE
8
0
10
71.6765291652
20
5.49521641058
11
71.7946812932
21
5.39812711324
0
LINE
8
0
10
71.7946812932
20
5.39812711324
11
71.912229891
21
5.18216442802
0
LINE
8
0
10
71.912229891
20
5.18216442802
11
72.1334899247
21
4.55713619022
0
LINE
8
0
10
72.1334899247
20
4.55713619022
11
72.3850791063
21
3.9326414212
0
LINE
8
0
10
72.3850791063
20
3.9326414212
11
72.7076681138
21
3.22123141945
0
LINE
8
0
10
72.7076681138
20
3.22123141945
11
73.1090628785
21
2.42801249502
0
LINE
8
0
10
73.1090628785
20
2.42801249502
11
73.5967550489
21
1.55859564305
0
LINE
8
0
10
73.5967550489
20
1.55859564305
11
74.1284852548
21
0.698955863671
0
LINE
8
0
10
74.1284852548
20
0.698955863671
11
75.1654541966
21
0.798991010348
0
LINE
8
0
10
75.1654541966
20
0.798991010348
11
76.1811174271
21
1.03080951489
0
LINE
8
0
10
76.1811174271
20
1.03080951489
11
76.4148794759
21
2.01420814554
0
LINE
8
0
10
76.4148794759
20
2.01420814554
11
76.603766138
21
2.99300901619
0
LINE
8
0
10
76.603766138
20
2.99300901619
11
76.7347623445
21
3.87230078409
0
LINE
8
0
10
76.7347623445
20
3.87230078409
11
76.816746158
21
4.64911898202
0
LINE
8
0
10
76.816746158
20
4.64911898202
11
76.8587348829
21
5.32107715024
0
LINE
8
0
10
76.8587348829
20
5.32107715024
11
76.8717714553
21
5.98398464631
0
LINE
8
0
10
76.8717714553
20
5.98398464631
11
76.9152800106
21
6.22598580304
0
LINE
8
0
10
76.9152800106
20
6.22598580304
11
76.9968193313
21
6.35535966518
0
LINE
8
0
10
76.9968193313
20
6.35535966518
11
79.2168399525
21
6.86206488498
0
LINE
8
0
10
79.2168399525
20
6.86206488498
11
79.346437557
21
6.78088164821
0
LINE
8
0
10
79.346437557
20
6.78088164821
11
79.4906377777
21
6.5817237947
0
LINE
8
0
10
79.4906377777
20
6.5817237947
11
79.7900081066
21
5.9901211352
0
LINE
8
0
10
79.7900081066
20
5.9901211352
11
80.1193903631
21
5.40292597005
0
LINE
8
0
10
80.1193903631
20
5.40292597005
11
80.530304011
21
4.73860840124
0
LINE
8
0
10
80.530304011
20
4.73860840124
11
81.0298379149
21
4.00323101644
0
LINE
8
0
10
81.0298379149
20
4.00323101644
11
81.6247046987
21
3.20331675534
0
LINE
8
0
10
81.6247046987
20
3.20331675534
11
82.261997702
21
2.41873075618
0
LINE
8
0
10
82.261997702
20
2.41873075618
11
83.2776609325
21
2.65054926072
0
LINE
8
0
10
83.2776609325
20
2.65054926072
11
84.2553412896
21
3.01034466968
0
LINE
8
0
10
84.2553412896
20
3.01034466968
11
84.3614299295
21
4.01556243849
0
LINE
8
0
10
84.3614299295
20
4.01556243849
11
84.4235995575
21
5.01048165775
0
LINE
8
0
10
84.4235995575
20
5.01048165775
11
84.4410789514
21
5.89930587546
0
LINE
8
0
10
84.4410789514
20
5.89930587546
11
84.4230523726
21
6.68023026411
0
LINE
8
0
10
84.4230523726
20
6.68023026411
11
84.3787682673
21
7.35204106401
0
LINE
8
0
10
84.3787682673
20
7.35204106401
11
84.3069270805
21
8.01117317857
0
LINE
8
0
10
84.3069270805
20
8.01117317857
11
84.3191320102
21
8.25675125972
0
LINE
8
0
10
84.3191320102
20
8.25675125972
11
84.3834579319
21
8.39548998114
0
LINE
8
0
10
84.3834579319
20
8.39548998114
11
86.5204561892
21
9.18192509401
0
LINE
8
0
10
86.5204561892
20
9.18192509401
11
86.6593712811
21
9.11798094432
0
LINE
8
0
10
86.6593712811
20
9.11798094432
11
86.8278553609
21
8.93889808896
0
LINE
8
0
10
86.8278553609
20
8.93889808896
11
87.2004203325
21
8.39043510707
0
LINE
8
0
10
87.2004203325
20
8.39043510707
11
87.6021872163
21
7.85018127418
0
LINE
8
0
10
87.6021872163
20
7.85018127418
11
88.0946783141
21
7.24386421443
0
LINE
8
0
10
88.0946783141
20
7.24386421443
11
88.6841490242
21
6.57840324559
0
LINE
8
0
10
88.6841490242
20
6.57840324559
11
89.3764227252
21
5.86112614539
0
LINE
8
0
10
89.3764227252
20
5.86112614539
11
90.1088141925
21
5.16447680688
0
LINE
8
0
10
90.1088141925
20
5.16447680688
11
91.0864945495
21
5.52427221584
0
LINE
8
0
10
91.0864945495
20
5.52427221584
11
92.0101385486
21
6.00613669856
0
LINE
8
0
10
92.0101385486
20
6.00613669856
11
91.9868118072
21
7.01666795754
0
LINE
8
0
10
91.9868118072
20
7.01666795754
11
91.9212435775
21
8.01136897933
0
LINE
8
0
10
91.9212435775
20
8.01136897933
11
91.8249191476
21
8.89513117779
0
LINE
8
0
10
91.8249191476
20
8.89513117779
11
91.7071781725
21
9.66733900027
0
LINE
8
0
10
91.7071781725
20
9.66733900027
11
91.5773483808
21
10.3279713171
0
LINE
8
0
10
91.5773483808
20
10.3279713171
11
91.4218090652
21
10.972505119
0
LINE
8
0
10
91.4218090652
20
10.972505119
11
91.4025099646
21
11.2176277393
0
LINE
8
0
10
91.4025099646
20
11.2176277393
11
91.4485662575
21
11.363453234
0
LINE
8
0
10
91.4485662575
20
11.363453234
11
93.4674526985
21
12.4167049972
0
LINE
8
0
10
93.4674526985
20
12.4167049972
11
93.6134042958
21
12.3710498957
0
LINE
8
0
10
93.6134042958
20
12.3710498957
11
93.8034057309
21
12.2149825741
0
LINE
8
0
10
93.8034057309
20
12.2149825741
11
94.2430478386
21
11.7186650168
0
LINE
8
0
10
94.2430478386
20
11.7186650168
11
94.7106023486
21
11.2342234691
0
LINE
8
0
10
94.7106023486
20
11.2342234691
11
95.2765842059
21
10.6958626278
0
LINE
8
0
10
95.2765842059
20
10.6958626278
11
95.9463126296
21
10.1112449256
0
LINE
8
0
10
95.9463126296
20
10.1112449256
11
96.7246261328
21
9.4883826565
0
LINE
8
0
10
96.7246261328
20
9.4883826565
11
97.5400902164
21
8.89110894151
0
LINE
8
0
10
97.5400902164
20
8.89110894151
11
98.4637342155
21
9.37297342423
0
LINE
8
0
10
98.4637342155
20
9.37297342423
11
99.3181756478
21
9.96899477922
0
LINE
8
0
10
99.3181756478
20
9.96899477922
11
99.1658165493
21
10.968246633
0
LINE
8
0
10
99.1658165493
20
10.968246633
11
98.9735870906
21
11.9463964941
0
LINE
8
0
10
98.9735870906
20
11.9463964941
11
98.7650404814
21
12.8105853224
0
LINE
8
0
10
98.7650404814
20
12.8105853224
11
98.5495184135
21
13.5613969476
0
LINE
8
0
10
98.5495184135
20
13.5613969476
11
98.336274737
21
14.200003217
0
LINE
8
0
10
98.336274737
20
14.200003217
11
98.0995912438
21
14.8193554791
0
LINE
8
0
10
98.0995912438
20
14.8193554791
11
98.0491050036
21
15.0599977319
0
LINE
8
0
10
98.0491050036
20
15.0599977319
11
98.0761354246
21
15.2105155493
0
LINE
8
0
10
98.0761354246
20
15.2105155493
11
99.9437599898
21
16.5132895979
0
LINE
8
0
10
99.9437599898
20
16.5132895979
11
100.094351571
21
16.4866732002
0
LINE
8
0
10
100.094351571
20
16.4866732002
11
100.302750543
21
16.3561840333
0
LINE
8
0
10
100.302750543
20
16.3561840333
11
100.802250876
21
15.9201614212
0
LINE
8
0
10
100.802250876
20
15.9201614212
11
101.32791578
21
15.4994866756
0
LINE
8
0
10
101.32791578
20
15.4994866756
11
101.95809499
21
15.0379219229
0
LINE
8
0
10
101.95809499
20
15.0379219229
11
102.697084205
21
14.5437468939
0
LINE
8
0
10
102.697084205
20
14.5437468939
11
103.548657625
21
14.025526837
0
LINE
8
0
10
103.548657625
20
14.025526837
11
104.433804427
21
13.5374359635
0
LINE
8
0
10
104.433804427
20
13.5374359635
11
105.288245859
21
14.1334573184
0
LINE
8
0
10
105.288245859
20
14.1334573184
11
106.05945482
21
14.8338488915
0
LINE
8
0
10
106.05945482
20
14.8338488915
11
105.780565097
21
15.8054136524
0
LINE
8
0
10
105.780565097
20
15.8054136524
11
105.464830811
21
16.750951159
0
LINE
8
0
10
105.464830811
20
16.750951159
11
105.147486352
21
17.5813766605
0
LINE
8
0
10
105.147486352
20
17.5813766605
11
104.837722058
21
18.2984637824
0
LINE
8
0
10
104.837722058
20
18.2984637824
11
104.544565952
21
18.904558107
0
LINE
8
0
10
104.544565952
20
18.904558107
11
104.230624617
21
19.4885590823
0
LINE
8
0
10
104.230624617
20
19.4885590823
11
104.14978022
21
19.7207696284
0
LINE
8
0
10
104.14978022
20
19.7207696284
11
104.157340931
21
19.8735082701
0
LINE
8
0
10
104.157340931
20
19.8735082701
11
105.843037276
21
21.4044130903
0
LINE
8
0
10
105.843037276
20
21.4044130903
11
105.995796132
21
21.3972724368
0
LINE
8
0
10
105.995796132
20
21.3972724368
11
106.219170736
21
21.2945040533
0
LINE
8
0
10
106.219170736
20
21.2945040533
11
106.770327512
21
20.9259358656
0
LINE
8
0
10
106.770327512
20
20.9259358656
11
107.345471407
21
20.5759353898
0
LINE
8
0
10
107.345471407
20
20.5759353898
11
108.029500445
21
20.198745606
0
LINE
8
0
10
108.029500445
20
20.198745606
11
108.825616269
21
19.8031275905
0
LINE
8
0
10
108.825616269
20
19.8031275905
11
109.736466792
21
19.398058905
0
LINE
8
0
10
109.736466792
20
19.398058905
11
110.676762227
21
19.0271653115
0
LINE
8
0
10
110.676762227
20
19.0271653115
11
111.447971188
21
19.7275568846
0
LINE
8
0
10
111.447971188
20
19.7275568846
11
112.123284447
21
20.5208182655
0
LINE
8
0
10
112.123284447
20
20.5208182655
11
111.722443461
21
21.4487428669
0
LINE
8
0
10
111.722443461
20
21.4487428669
11
111.288388697
21
22.3461423194
0
LINE
8
0
10
111.288388697
20
22.3461423194
11
110.867457175
21
23.1291689303
0
LINE
8
0
10
110.867457175
20
23.1291689303
11
110.468536976
21
23.800756998
0
LINE
8
0
10
110.468536976
20
23.800756998
11
110.100282055
21
24.3643873259
0
LINE
8
0
10
110.100282055
20
24.3643873259
11
109.714237788
21
24.9034477345
0
LINE
8
0
10
109.714237788
20
24.9034477345
11
109.604362697
21
25.1234136831
0
LINE
8
0
10
109.604362697
20
25.1234136831
11
109.59232955
21
25.2758651849
0
LINE
8
0
10
109.59232955
20
25.2758651849
11
111.068418588
21
27.0097633618
0
LINE
8
0
10
111.068418588
20
27.0097633618
11
111.220836423
21
27.0222157019
0
LINE
8
0
10
111.220836423
20
27.0222157019
11
111.455518853
21
26.9488555557
0
LINE
8
0
10
111.455518853
20
26.9488555557
11
112.049282093
21
26.6537936719
0
LINE
8
0
10
112.049282093
20
26.6537936719
11
112.664461132
21
26.380214464
0
LINE
8
0
10
112.664461132
20
26.380214464
11
113.391108261
21
26.0935930951
0
LINE
8
0
10
113.391108261
20
26.0935930951
11
114.231278494
21
25.8030281299
0
LINE
8
0
10
114.231278494
20
25.8030281299
11
115.18644998
21
25.5177620323
0
LINE
8
0
10
115.18644998
20
25.5177620323
11
116.166454423
21
25.2701557814
0
LINE
8
0
10
116.166454423
20
25.2701557814
11
116.841767682
21
26.0634171624
0
LINE
8
0
10
116.841767682
20
26.0634171624
11
117.410096615
21
26.9365230212
0
LINE
8
0
10
117.410096615
20
26.9365230212
11
116.893886163
21
27.8055709668
0
LINE
8
0
10
116.893886163
20
27.8055709668
11
116.348638088
21
28.6400970909
0
LINE
8
0
10
116.348638088
20
28.6400970909
11
115.831031188
21
29.362867536
0
LINE
8
0
10
115.831031188
20
29.362867536
11
115.349505342
21
29.9779290921
0
LINE
8
0
10
115.349505342
20
29.9779290921
11
114.912198343
21
30.4898406288
0
LINE
8
0
10
114.912198343
20
30.4898406288
11
114.460389978
21
30.9751091136
0
LINE
8
0
10
114.460389978
20
30.9751091136
11
114.323288339
21
31.1792186301
0
LINE
8
0
10
114.323288339
20
31.1792186301
11
114.291858918
21
31.3288797425
0
LINE
8
0
10
114.291858918
20
31.3288797425
11
115.534103309
21
33.2373007159
0
LINE
8
0
10
115.534103309
20
33.2373007159
11
115.683677425
21
33.2691415826
0
LINE
8
0
10
115.683677425
20
33.2691415826
11
115.925814204
21
33.2263942453
0
LINE
8
0
10
115.925814204
20
33.2263942453
11
116.552434332
21
33.0096835733
0
LINE
8
0
10
116.552434332
20
33.0096835733
11
117.197547292
21
32.8170177963
0
LINE
8
0
10
117.197547292
20
32.8170177963
11
117.954880985
21
32.6256711572
0
LINE
8
0
10
117.954880985
20
32.6256711572
11
118.825310055
21
32.4449303112
0
LINE
8
0
10
118.825310055
20
32.4449303112
11
119.809118615
21
32.2841508629
0
LINE
8
0
10
119.809118615
20
32.2841508629
11
120.812740419
21
32.1638976424
0
LINE
8
0
10
120.812740419
20
32.1638976424
11
121.381069352
21
33.0370035012
0
LINE
8
0
10
121.381069352
20
33.0370035012
11
121.833082014
21
33.9756174639
0
LINE
8
0
10
121.833082014
20
33.9756174639
11
121.209978258
21
34.7715190104
0
LINE
8
0
10
121.209978258
20
34.7715190104
11
120.56248983
21
35.5294689104
0
LINE
8
0
10
120.56248983
20
35.5294689104
11
119.956706642
21
36.1801153188
0
LINE
8
0
10
119.956706642
20
36.1801153188
11
119.40048179
21
36.7285510696
0
LINE
8
0
10
119.40048179
20
36.7285510696
11
118.901303281
21
37.1803382418
0
LINE
8
0
10
118.901303281
20
37.1803382418
11
118.391149501
21
37.6038467078
0
LINE
8
0
10
118.391149501
20
37.6038467078
11
118.229072518
21
37.7887483195
0
LINE
8
0
10
118.229072518
20
37.7887483195
11
118.178762895
21
37.9331616111
0
LINE
8
0
10
118.178762895
20
37.9331616111
11
119.166765019
21
39.9847691616
0
LINE
8
0
10
119.166765019
20
39.9847691616
11
119.311039414
21
40.0354757286
0
LINE
8
0
10
119.311039414
20
40.0354757286
11
119.556654661
21
40.0240431103
0
LINE
8
0
10
119.556654661
20
40.0240431103
11
120.205842592
21
39.8892420334
0
LINE
8
0
10
120.205842592
20
39.8892420334
11
120.870296736
21
39.7806532541
0
LINE
8
0
10
120.870296736
20
39.7806532541
11
121.645881595
21
39.6877232513
0
LINE
8
0
10
121.645881595
20
39.6877232513
11
122.532277081
21
39.619774284
0
LINE
8
0
10
122.532277081
20
39.619774284
11
123.528568606
21
39.5861214792
0
LINE
8
0
10
123.528568606
20
39.5861214792
11
124.53932833
21
39.5951958437
0
LINE
8
0
10
124.53932833
20
39.5951958437
11
124.991340991
21
40.5338098063
0
LINE
8
0
10
124.991340991
20
40.5338098063
11
125.319615345
21
41.5225198575
0
LINE
8
0
10
125.319615345
20
41.5225198575
11
124.599849632
21
42.2322063236
0
LINE
8
0
10
124.599849632
20
42.2322063236
11
123.860752593
21
42.9011344829
0
LINE
8
0
10
123.860752593
20
42.9011344829
11
123.176740061
21
43.4689732587
0
LINE
8
0
10
123.176740061
20
43.4689732587
11
122.5549494
21
43.9417779043
0
LINE
8
0
10
122.5549494
20
43.9417779043
11
122.002095879
21
44.3260223791
0
LINE
8
0
10
122.002095879
20
44.3260223791
11
121.441973393
21
44.680816829
0
LINE
8
0
10
121.441973393
20
44.680816829
11
121.257582367
21
44.8434744565
0
LINE
8
0
10
121.257582367
20
44.8434744565
11
121.189218623
21
44.9802686651
0
LINE
8
0
10
121.189218623
20
44.9802686651
11
121.906755513
21
47.1413754534
0
LINE
8
0
10
121.906755513
20
47.1413754534
11
122.043361205
21
47.2101151203
0
LINE
8
0
10
122.043361205
20
47.2101151203
11
122.288421925
21
47.2301849443
0
LINE
8
0
10
122.288421925
20
47.2301849443
11
122.949518012
21
47.1795068924
0
LINE
8
0
10
122.949518012
20
47.1795068924
11
123.622403021
21
47.1567781355
0
LINE
8
0
10
123.622403021
20
47.1567781355
11
124.403503964
21
47.1637906772
0
LINE
8
0
10
124.403503964
20
47.1637906772
11
125.291311276
21
47.2097493088
0
LINE
8
0
10
125.291311276
20
47.2097493088
11
126.283726687
21
47.3037757256
0
LINE
8
0
10
126.283726687
20
47.3037757256
11
127.285027683
21
47.4420286742
0
LINE
8
0
10
127.285027683
20
47.4420286742
11
127.613302037
21
48.4307387253
0
LINE
8
0
10
127.613302037
20
48.4307387253
11
127.812447829
21
49.4533102733
0
LINE
8
0
10
127.812447829
20
49.4533102733
11
127.007838691
21
50.0651286268
0
LINE
8
0
10
127.007838691
20
50.0651286268
11
126.189268994
21
50.6340512637
0
LINE
8
0
10
126.189268994
20
50.6340512637
11
125.438258584
21
51.1097585098
0
LINE
8
0
10
125.438258584
20
51.1097585098
11
124.7611119
21
51.4991686109
0
LINE
8
0
10
124.7611119
20
51.4991686109
11
124.163661206
21
51.8095611048
0
LINE
8
0
10
124.163661206
20
51.8095611048
11
123.562767211
21
52.0898158235
0
LINE
8
0
10
123.562767211
20
52.0898158235
11
123.359089837
21
52.227558633
0
LINE
8
0
10
123.359089837
20
52.227558633
11
123.273794503
21
52.3544876016
0
LINE
8
0
10
123.273794503
20
52.3544876016
11
123.709084223
21
54.5896083138
0
LINE
8
0
10
123.709084223
20
54.5896083138
11
123.835778151
21
54.6752523773
0
LINE
8
0
10
123.835778151
20
54.6752523773
11
124.076260453
21
54.7264950975
0
LINE
8
0
10
124.076260453
20
54.7264950975
11
124.738409516
21
54.7607722029
0
LINE
8
0
10
124.738409516
20
54.7607722029
11
125.408676638
21
54.824276674
0
LINE
8
0
10
125.408676638
20
54.824276674
11
126.182468009
21
54.9311166143
0
LINE
8
0
10
126.182468009
20
54.9311166143
11
127.057109375
21
55.0902282054
0
LINE
8
0
10
127.057109375
20
55.0902282054
11
128.029353239
21
55.3103899326
0
LINE
8
0
10
128.029353239
20
55.3103899326
11
129.004754173
21
55.5755513558
0
LINE
8
0
10
65.1136679506
20
63.434632718
11
64.8018004143
21
63.4018541191
0
LINE
8
0
10
64.8018004143
20
63.4018541191
11
64.4899328781
21
63.434632718
0
LINE
8
0
10
64.4899328781
20
63.434632718
11
64.1916954497
21
63.5315359326
0
LINE
8
0
10
64.1916954497
20
63.5315359326
11
63.9201225359
21
63.6883286275
0
LINE
8
0
10
63.9201225359
20
63.6883286275
11
63.6870831761
21
63.8981582096
0
LINE
8
0
10
63.6870831761
20
63.8981582096
11
63.5027623087
21
64.1518541191
0
LINE
8
0
10
63.5027623087
20
64.1518541191
11
63.3752156399
21
64.4383286275
0
LINE
8
0
10
63.3752156399
20
64.4383286275
11
63.3100175713
21
64.7450614242
0
LINE
8
0
10
63.3100175713
20
64.7450614242
11
63.3100175713
21
65.058646814
0
LINE
8
0
10
63.3100175713
20
65.058646814
11
63.3752156399
21
65.3653796107
0
LINE
8
0
10
63.3752156399
20
65.3653796107
11
63.5027623087
21
65.6518541191
0
LINE
8
0
10
63.5027623087
20
65.6518541191
11
63.6870831761
21
65.9055500286
0
LINE
8
0
10
63.6870831761
20
65.9055500286
11
63.9201225359
21
66.1153796107
0
LINE
8
0
10
63.9201225359
20
66.1153796107
11
64.1916954497
21
66.2721723056
0
LINE
8
0
10
64.1916954497
20
66.2721723056
11
64.4899328781
21
66.3690755202
0
LINE
8
0
10
64.4899328781
20
66.3690755202
11
64.8018004143
21
66.4018541191
0
LINE
8
0
10
64.8018004143
20
66.4018541191
11
65.1136679506
21
66.3690755202
0
LINE
8
0
10
65.1136679506
20
66.3690755202
11
65.4119053789
21
66.2721723056
0
LINE
8
0
10
65.4119053789
20
66.2721723056
11
65.6834782928
21
66.1153796107
0
LINE
8
0
10
65.6834782928
20
66.1153796107
11
65.9165176526
21
65.9055500286
0
LINE
8
0
10
65.9165176526
20
65.9055500286
11
66.10083852
21
65.6518541191
0
LINE
8
0
10
66.10083852
20
65.6518541191
11
66.2283851888
21
65.3653796107
0
LINE
8
0
10
66.2283851888
20
65.3653796107
11
66.2935832574
21
65.058646814
0
LINE
8
0
10
66.2935832574
20
65.058646814
11
66.2935832574
21
64.7450614242
0
LINE
8
0
10
66.2935832574
20
64.7450614242
11
66.2283851888
21
64.4383286275
0
LINE
8
0
10
66.2283851888
20
64.4383286275
11
66.10083852
21
64.1518541191
0
LINE
8
0
10
66.10083852
20
64.1518541191
11
65.9165176526
21
63.8981582096
0
LINE
8
0
10
65.9165176526
20
63.8981582096
11
65.6834782928
21
63.6883286275
0
LINE
8
0
10
65.6834782928
20
63.6883286275
11
65.4119053789
21
63.5315359326
0
LINE
8
0
10
65.4119053789
20
63.5315359326
11
65.1136679506
21
63.434632718
0
ENDSEC
0
EOF
