  0
SECTION
  2
BLOCKS
  0
ENDSEC
  0
SECTION
  2
ENTITIES
  0
LINE
  8
0
 10
16.451915683819205
 20
-9.6014862752145
 11
16.910964404785492
 21
-8.875558800013327
  0
LINE
  8
0
 10
16.910964404785492
 20
-8.875558800013327
 11
17.247621609271995
 21
-8.085395301653625
  0
LINE
  8
0
 10
17.247621609271995
 20
-8.085395301653625
 11
16.899621428492235
 21
-7.472301445338071
  0
LINE
  8
0
 10
16.899621428492235
 20
-7.472301445338071
 11
16.04097049678137
 21
-6.404759048241645
  0
LINE
  8
0
 10
16.04097049678137
 20
-6.404759048241645
 11
15.325134000853712
 21
-5.761151941868341
  0
LINE
  8
0
 10
15.325134000853712
 20
-5.761151941868341
 11
14.85803532644505
 21
-5.460958912546396
  0
LINE
  8
0
 10
14.85803532644505
 20
-5.460958912546396
 11
14.722433665298336
 21
-5.40200577661018
  0
LINE
  8
0
 10
14.722433665298336
 20
-5.40200577661018
 11
14.431151919440047
 21
-5.327941221395329
  0
LINE
  8
0
 10
14.431151919440047
 20
-5.327941221395329
 11
13.604187933169797
 21
-4.915845857190454
  0
LINE
  8
0
 10
13.604187933169797
 20
-4.915845857190454
 11
13.277635246726604
 21
-4.445273976013584
  0
LINE
  8
0
 10
13.277635246726604
 20
-4.445273976013584
 11
13.822583958376159
 21
-2.234330141358236
  0
LINE
  8
0
 10
13.822583958376159
 20
-2.234330141358236
 11
14.330417659575627
 21
-1.9694160339509688
  0
LINE
  8
0
 10
14.330417659575627
 20
-1.9694160339509688
 11
15.25416816905467
 21
-1.9888330374370227
  0
LINE
  8
0
 10
15.25416816905467
 20
-1.9888330374370227
 11
15.54650486112314
 21
-2.058617507628477
  0
LINE
  8
0
 10
15.54650486112314
 20
-2.058617507628477
 11
15.693971057408277
 21
-2.0694343322850592
  0
LINE
  8
0
 10
15.693971057408277
 20
-2.0694343322850592
 11
16.24707305004999
 21
-2.0206981832414908
  0
LINE
  8
0
 10
16.24707305004999
 20
-2.0206981832414908
 11
17.180013924775682
 21
-1.7834781998036122
  0
LINE
  8
0
 10
17.180013924775682
 20
-1.7834781998036122
 11
18.436423255255335
 21
-1.237251336319806
  0
LINE
  8
0
 10
18.436423255255335
 20
-1.237251336319806
 11
19.029481033928658
 21
-0.8561074348341737
  0
LINE
  8
0
 10
19.029481033928658
 20
-0.8561074348341737
 11
19.09859317102744
 21
1.1694129273154433e-15
  0
LINE
  8
0
 10
19.09859317102744
 20
1.1694129273154433e-15
 11
19.029481033928658
 21
0.856107434834174
  0
LINE
  8
0
 10
19.029481033928658
 20
0.856107434834174
 11
18.436423255261303
 21
1.2372513363159705
  0
LINE
  8
0
 10
18.436423255261303
 20
1.2372513363159705
 11
17.180013924775313
 21
1.7834781998022617
  0
LINE
  8
0
 10
17.180013924775313
 20
1.7834781998022617
 11
16.247073050049977
 21
2.0206981832415334
  0
LINE
  8
0
 10
16.247073050049977
 20
2.0206981832415334
 11
15.693971057408277
 21
2.069434332285107
  0
LINE
  8
0
 10
15.693971057408277
 20
2.069434332285107
 11
15.546504861123129
 21
2.058617507628477
  0
LINE
  8
0
 10
15.546504861123129
 20
2.058617507628477
 11
15.254168169054665
 21
1.9888330374370815
  0
LINE
  8
0
 10
15.254168169054665
 20
1.9888330374370815
 11
14.330417659575652
 21
1.969416033950572
  0
LINE
  8
0
 10
14.330417659575652
 20
1.969416033950572
 11
13.822583958376164
 21
2.2343301413583023
  0
LINE
  8
0
 10
13.822583958376164
 20
2.2343301413583023
 11
13.277635246726568
 21
4.445273976013641
  0
LINE
  8
0
 10
13.277635246726568
 20
4.445273976013641
 11
13.604187933169962
 21
4.915845857190091
  0
LINE
  8
0
 10
13.604187933169962
 20
4.915845857190091
 11
14.431151919440026
 21
5.327941221395384
  0
LINE
  8
0
 10
14.431151919440026
 20
5.327941221395384
 11
14.722433665298347
 21
5.402005776610186
  0
LINE
  8
0
 10
14.722433665298347
 20
5.402005776610186
 11
14.858035326445028
 21
5.460958912546438
  0
LINE
  8
0
 10
14.858035326445028
 20
5.460958912546438
 11
15.325134000853707
 21
5.761151941868386
  0
LINE
  8
0
 10
15.325134000853707
 20
5.761151941868386
 11
16.040970496782325
 21
6.404759048240622
  0
LINE
  8
0
 10
16.040970496782325
 20
6.404759048240622
 11
16.899621428488736
 21
7.472301445331901
  0
LINE
  8
0
 10
16.899621428488736
 20
7.472301445331901
 11
17.247621609272
 21
8.085395301653628
  0
LINE
  8
0
 10
17.247621609272
 20
8.085395301653628
 11
16.910964404785492
 21
8.87555880001333
  0
LINE
  8
0
 10
16.910964404785492
 20
8.87555880001333
 11
16.451915683819212
 21
9.601486275214492
  0
LINE
  8
0
 10
16.451915683819212
 20
9.601486275214492
 11
15.749662697235939
 21
9.663364747314999
  0
LINE
  8
0
 10
15.749662697235939
 20
9.663364747314999
 11
14.383323204215337
 21
9.56314208551375
  0
LINE
  8
0
 10
14.383323204215337
 20
9.56314208551375
 11
13.447003461935541
 21
9.33963070662376
  0
LINE
  8
0
 10
13.447003461935541
 20
9.33963070662376
 11
12.934607151973426
 21
9.125745110977345
  0
LINE
  8
0
 10
12.934607151973426
 20
9.125745110977345
 11
12.809059148958452
 21
9.047636329899834
  0
LINE
  8
0
 10
12.809059148958452
 20
9.047636329899834
 11
12.582638323793642
 21
8.849989615429008
  0
LINE
  8
0
 10
12.582638323793642
 20
8.849989615429008
 11
11.773721400427062
 21
8.403508445749614
  0
LINE
  8
0
 10
11.773721400427062
 20
8.403508445749614
 11
11.200945265356541
 21
8.402076149942179
  0
LINE
  8
0
 10
11.200945265356541
 20
8.402076149942179
 11
9.69094031290281
 21
10.106519396839596
  0
LINE
  8
0
 10
9.69094031290281
 20
10.106519396839596
 11
9.761402699512434
 21
10.67494670481364
  0
LINE
  8
0
 10
9.761402699512434
 20
10.67494670481364
 11
10.302132679315445
 21
11.424148355058355
  0
LINE
  8
0
 10
10.302132679315445
 20
11.424148355058355
 11
10.525630341313047
 21
11.62509463865435
  0
LINE
  8
0
 10
10.525630341313047
 20
11.62509463865435
 11
10.618302760929739
 21
11.740312282202748
  0
LINE
  8
0
 10
10.618302760929739
 20
11.740312282202748
 11
10.892391439947607
 21
12.223191586503598
  0
LINE
  8
0
 10
10.892391439947607
 20
12.223191586503598
 11
11.227134042626865
 21
13.125743184046764
  0
LINE
  8
0
 10
11.227134042626865
 20
13.125743184046764
 11
11.49131999497158
 21
14.470040016852451
  0
LINE
  8
0
 10
11.49131999497158
 20
14.470040016852451
 11
11.514539930304146
 21
15.174631414108886
  0
LINE
  8
0
 10
11.514539930304146
 20
15.174631414108886
 11
10.849237492621086
 21
15.717834041022346
  0
LINE
  8
0
 10
10.849237492621086
 20
15.717834041022346
 11
10.105414717623887
 21
16.14728032039635
  0
LINE
  8
0
 10
10.105414717623887
 20
16.14728032039635
 11
9.454844219284995
 21
15.87571775087377
  0
LINE
  8
0
 10
9.454844219284995
 20
15.87571775087377
 11
8.291586475404896
 21
15.152005367789643
  0
LINE
  8
0
 10
8.291586475404896
 20
15.152005367789643
 11
7.5663874346508235
 21
14.518966389869975
  0
LINE
  8
0
 10
7.5663874346508235
 20
14.518966389869975
 11
7.212080626935671
 21
14.091457661895316
  0
LINE
  8
0
 10
7.212080626935671
 20
14.091457661895316
 11
7.1372123516641475
 21
13.963950704828926
  0
LINE
  8
0
 10
7.1372123516641475
 20
13.963950704828926
 11
7.028577675781507
 21
13.683720226462816
  0
LINE
  8
0
 10
7.028577675781507
 20
13.683720226462816
 11
6.519807457164933
 21
12.912458345882701
  0
LINE
  8
0
 10
6.519807457164933
 20
12.912458345882701
 11
6.013304998067318
 21
12.645007768568544
  0
LINE
  8
0
 10
6.013304998067318
 20
12.645007768568544
 11
3.8841677418842275
 21
13.452483020611691
  0
LINE
  8
0
 10
3.8841677418842275
 20
13.452483020611691
 11
3.6823977450516256
 21
13.988545909418136
  0
LINE
  8
0
 10
3.6823977450516256
 20
13.988545909418136
 11
3.8130189965173917
 21
14.903220776489865
  0
LINE
  8
0
 10
3.8130189965173917
 20
14.903220776489865
 11
3.9175319537294353
 21
15.18501441656045
  0
LINE
  8
0
 10
3.9175319537294353
 20
15.18501441656045
 11
3.9460449973056777
 21
15.330101594107182
  0
LINE
  8
0
 10
3.9460449973056777
 20
15.330101594107182
 11
3.9643332676963983
 21
15.885045344098073
  0
LINE
  8
0
 10
3.9643332676963983
 20
15.885045344098073
 11
3.841296480938155
 21
16.83977773874089
  0
LINE
  8
0
 10
3.841296480938155
 20
16.83977773874089
 11
3.450495636024865
 21
18.15286680339825
  0
LINE
  8
0
 10
3.450495636024865
 20
18.15286680339825
 11
3.143615918552602
 21
18.787542343724777
  0
LINE
  8
0
 10
3.143615918552602
 20
18.787542343724777
 11
2.3020810183826295
 21
18.959342923667432
  0
LINE
  8
0
 10
2.3020810183826295
 20
18.959342923667432
 11
1.4438850230701854
 21
18.9939270399984
  0
LINE
  8
0
 10
1.4438850230701854
 20
18.9939270399984
 11
0.994034873920693
 21
18.451135140846617
  0
LINE
  8
0
 10
0.994034873920693
 20
18.451135140846617
 11
0.3003472095285112
 21
17.269726821764497
  0
LINE
  8
0
 10
0.3003472095285112
 20
17.269726821764497
 11
-0.04759676905893617
 21
16.372181845709846
  0
LINE
  8
0
 10
-0.04759676905893617
 20
16.372181845709846
 11
-0.16264665473949078
 21
15.828987082947256
  0
LINE
  8
0
 10
-0.16264665473949078
 20
15.828987082947256
 11
-0.16968378266338488
 21
15.681292257130488
  0
LINE
  8
0
 10
-0.16968378266338488
 20
15.681292257130488
 11
-0.13564541420891013
 21
15.382675440319407
  0
LINE
  8
0
 10
-0.13564541420891013
 20
15.382675440319407
 11
-0.22771580233622224
 21
14.463319650966222
  0
LINE
  8
0
 10
-0.22771580233622224
 20
14.463319650966222
 11
-0.551910976098001
 21
13.991120496279162
  0
LINE
  8
0
 10
-0.551910976098001
 20
13.991120496279162
 11
-2.812420849504394
 21
13.716644904356635
  0
LINE
  8
0
 10
-2.812420849504394
 20
13.716644904356635
 11
-3.240200155096928
 21
14.097537826428061
  0
LINE
  8
0
 10
-3.240200155096928
 20
14.097537826428061
 11
-3.5496113865224883
 21
14.96814492130777
  0
LINE
  8
0
 10
-3.5496113865224883
 20
14.96814492130777
 11
-3.5880257930756114
 21
15.266230390894279
  0
LINE
  8
0
 10
-3.5880257930756114
 20
15.266230390894279
 11
-3.63020412020371
 21
15.407949378553424
  0
LINE
  8
0
 10
-3.63020412020371
 20
15.407949378553424
 11
-3.8719058807891007
 21
15.907826648908612
  0
LINE
  8
0
 10
-3.8719058807891007
 20
15.907826648908612
 11
-4.424535811892549
 21
16.69602215481105
  0
LINE
  8
0
 10
-4.424535811892549
 20
16.69602215481105
 11
-5.380795690154942
 21
17.67709057104576
  0
LINE
  8
0
 10
-5.380795690154942
 20
17.67709057104576
 11
-5.947472615460649
 21
18.096453736822983
  0
LINE
  8
0
 10
-5.947472615460649
 20
18.096453736822983
 11
-6.77245447408353
 21
17.8574948273514
  0
LINE
  8
0
 10
-6.77245447408353
 20
17.8574948273514
 11
-7.548421329568045
 21
17.48929397637169
  0
LINE
  8
0
 10
-7.548421329568045
 20
17.48929397637169
 11
-7.694495881639979
 21
16.799619830334876
  0
LINE
  8
0
 10
-7.694495881639979
 20
16.799619830334876
 11
-7.7596979824745995
 21
15.431161983642813
  0
LINE
  8
0
 10
-7.7596979824745995
 20
15.431161983642813
 11
-7.650677126580541
 21
14.474727746877772
  0
LINE
  8
0
 10
-7.650677126580541
 20
14.474727746877772
 11
-7.500113547918507
 21
13.94028632326963
  0
LINE
  8
0
 10
-7.500113547918507
 20
13.94028632326963
 11
-7.437707407293991
 21
13.806238733381502
  0
LINE
  8
0
 10
-7.437707407293991
 20
13.806238733381502
 11
-7.268793774508515
 21
13.557645092134107
  0
LINE
  8
0
 10
-7.268793774508515
 20
13.557645092134107
 11
-6.923072115795057
 21
12.700808725910342
  0
LINE
  8
0
 10
-6.923072115795057
 20
12.700808725910342
 11
-6.990690796887558
 21
12.132036129572477
  0
LINE
  8
0
 10
-6.990690796887558
 20
12.132036129572477
 11
-8.864717717616994
 21
10.838488744004268
  0
LINE
  8
0
 10
-8.864717717616994
 20
10.838488744004268
 11
-9.420507248357703
 21
10.976953721151428
  0
LINE
  8
0
 10
-9.420507248357703
 20
10.976953721151428
 11
-10.099068578364554
 21
11.604047450355047
  0
LINE
  8
0
 10
-10.099068578364554
 20
11.604047450355047
 11
-10.271610071085307
 21
11.850136960694542
  0
LINE
  8
0
 10
-10.271610071085307
 20
11.850136960694542
 11
-10.374817222476644
 21
11.956021646292333
  0
LINE
  8
0
 10
-10.374817222476644
 20
11.956021646292333
 11
-10.821138053510012
 21
12.286316578547607
  0
LINE
  8
0
 10
-10.821138053510012
 20
12.286316578547607
 11
-11.676760271655503
 21
12.727409104092978
  0
LINE
  8
0
 10
-11.676760271655503
 20
12.727409104092978
 11
-12.979411569337893
 21
13.151705920901765
  0
LINE
  8
0
 10
-12.979411569337893
 20
13.151705920901765
 11
-13.676066848086773
 21
13.259685664724138
  0
LINE
  8
0
 10
-13.676066848086773
 20
13.259685664724138
 11
-14.295502263461227
 21
12.66470987223122
  0
LINE
  8
0
 10
-14.295502263461227
 20
12.66470987223122
 11
-14.811475323940659
 21
11.978074431599
  0
LINE
  8
0
 10
-14.811475323940659
 20
11.978074431599
 11
-14.620310359444542
 21
11.299514074059731
  0
LINE
  8
0
 10
-14.620310359444542
 20
11.299514074059731
 11
-14.042089881190885
 21
10.057503900730048
  0
LINE
  8
0
 10
-14.042089881190885
 20
10.057503900730048
 11
-13.501079555056908
 21
9.261287960615425
  0
LINE
  8
0
 10
-13.501079555056908
 20
9.261287960615425
 11
-13.119394813435935
 21
8.858033965592996
  0
LINE
  8
0
 10
-13.119394813435935
 20
8.858033965592996
 11
-13.001841899004566
 21
8.7683422990283
  0
LINE
  8
0
 10
-13.001841899004566
 20
8.7683422990283
 11
-12.73674907952929
 21
8.626721640676225
  0
LINE
  8
0
 10
-12.73674907952929
 20
8.626721640676225
 11
-12.032436039588674
 21
8.02869558308614
  0
LINE
  8
0
 10
-12.032436039588674
 20
8.02869558308614
 11
-11.827987603067049
 21
7.493648492465634
  0
LINE
  8
0
 10
-11.827987603067049
 20
7.493648492465634
 11
-12.886214588053077
 21
5.477365430349508
  0
LINE
  8
0
 10
-12.886214588053077
 20
5.477365430349508
 11
-13.442689660439203
 21
5.341681804991856
  0
LINE
  8
0
 10
-13.442689660439203
 20
5.341681804991856
 11
-14.334950865873289
 21
5.58160255245752
  0
LINE
  8
0
 10
-14.334950865873289
 20
5.58160255245752
 11
-14.602092268129745
 21
5.719319962431318
  0
LINE
  8
0
 10
-14.602092268129745
 20
5.719319962431318
 11
-14.74268472918157
 21
5.765113440546096
  0
LINE
  8
0
 10
-14.74268472918157
 20
5.765113440546096
 11
-15.291377907022268
 21
5.85015944620721
  0
LINE
  8
0
 10
-15.291377907022268
 20
5.85015944620721
 11
-16.253979673398202
 21
5.843100009534254
  0
LINE
  8
0
 10
-16.253979673398202
 20
5.843100009534254
 11
-17.604600676851497
 21
5.613423939517179
  0
LINE
  8
0
 10
-17.604600676851497
 20
5.613423939517179
 11
-18.27163898028842
 21
5.3852834033719725
  0
LINE
  8
0
 10
-18.27163898028842
 20
5.3852834033719725
 11
-18.54362276375817
 21
4.570592511682244
  0
LINE
  8
0
 10
-18.54362276375817
 20
4.570592511682244
 11
-18.681398819226136
 21
3.722822385992267
  0
LINE
  8
0
 10
-18.681398819226136
 20
3.722822385992267
 11
-18.196787927740466
 21
3.2108258173239945
  0
LINE
  8
0
 10
-18.196787927740466
 20
3.2108258173239945
 11
-17.10760821365428
 21
2.3797928802213426
  0
LINE
  8
0
 10
-17.10760821365428
 20
2.3797928802213426
 11
-16.258547363116463
 21
1.9261987131951295
  0
LINE
  8
0
 10
-16.258547363116463
 20
1.9261987131951295
 11
-15.733180833042141
 21
1.7465127772805955
  0
LINE
  8
0
 10
-15.733180833042141
 20
1.7465127772805955
 11
-15.587411100833949
 21
1.721724313947543
  0
LINE
  8
0
 10
-15.587411100833949
 20
1.721724313947543
 11
-15.286868664895863
 21
1.7195202246052994
  0
LINE
  8
0
 10
-15.286868664895863
 20
1.7195202246052994
 11
-14.385313873286222
 21
1.5173050384475189
  0
LINE
  8
0
 10
-14.385313873286222
 20
1.5173050384475189
 11
-13.95563499208682
 21
1.138556293989092
  0
LINE
  8
0
 10
-13.95563499208682
 20
1.138556293989092
 11
-13.955634992086798
 21
-1.1385562939891578
  0
LINE
  8
0
 10
-13.955634992086798
 20
-1.1385562939891578
 11
-14.385313873286293
 21
-1.5173050384471307
  0
LINE
  8
0
 10
-14.385313873286293
 20
-1.5173050384471307
 11
-15.286868664895858
 21
-1.7195202246053611
  0
LINE
  8
0
 10
-15.286868664895858
 20
-1.7195202246053611
 11
-15.58741110083396
 21
-1.7217243139475489
  0
LINE
  8
0
 10
-15.58741110083396
 20
-1.7217243139475489
 11
-15.733180833042129
 21
-1.7465127772806448
  0
LINE
  8
0
 10
-15.733180833042129
 20
-1.7465127772806448
 11
-16.258547363116467
 21
-1.9261987131951783
  0
LINE
  8
0
 10
-16.258547363116467
 20
-1.9261987131951783
 11
-17.10760821365496
 21
-2.3797928802201236
  0
LINE
  8
0
 10
-17.10760821365496
 20
-2.3797928802201236
 11
-18.19678792773559
 21
-3.2108258173188466
  0
LINE
  8
0
 10
-18.19678792773559
 20
-3.2108258173188466
 11
-18.681398819226136
 21
-3.722822385992273
  0
LINE
  8
0
 10
-18.681398819226136
 20
-3.722822385992273
 11
-18.54362276375817
 21
-4.57059251168225
  0
LINE
  8
0
 10
-18.54362276375817
 20
-4.57059251168225
 11
-18.27163898028842
 21
-5.38528340337197
  0
LINE
  8
0
 10
-18.27163898028842
 20
-5.38528340337197
 11
-17.60460067685821
 21
-5.613423939514878
  0
LINE
  8
0
 10
-17.60460067685821
 20
-5.613423939514878
 11
-16.253979673398167
 21
-5.84310000953285
  0
LINE
  8
0
 10
-16.253979673398167
 20
-5.84310000953285
 11
-15.291377907022245
 21
-5.850159446207245
  0
LINE
  8
0
 10
-15.291377907022245
 20
-5.850159446207245
 11
-14.742684729181562
 21
-5.7651134405461395
  0
LINE
  8
0
 10
-14.742684729181562
 20
-5.7651134405461395
 11
-14.602092268129736
 21
-5.719319962431313
  0
LINE
  8
0
 10
-14.602092268129736
 20
-5.719319962431313
 11
-14.334950865873271
 21
-5.581602552457574
  0
LINE
  8
0
 10
-14.334950865873271
 20
-5.581602552457574
 11
-13.442689660439322
 21
-5.341681804991473
  0
LINE
  8
0
 10
-13.442689660439322
 20
-5.341681804991473
 11
-12.886214588053068
 21
-5.477365430349572
  0
LINE
  8
0
 10
-12.886214588053068
 20
-5.477365430349572
 11
-11.827987603067005
 21
-7.493648492465678
  0
LINE
  8
0
 10
-11.827987603067005
 20
-7.493648492465678
 11
-12.032436039588921
 21
-8.028695583085824
  0
LINE
  8
0
 10
-12.032436039588921
 20
-8.028695583085824
 11
-12.73674907952926
 21
-8.62672164067627
  0
LINE
  8
0
 10
-12.73674907952926
 20
-8.62672164067627
 11
-13.001841899004576
 21
-8.768342299028305
  0
LINE
  8
0
 10
-13.001841899004576
 20
-8.768342299028305
 11
-13.119394813435907
 21
-8.858033965593028
  0
LINE
  8
0
 10
-13.119394813435907
 20
-8.858033965593028
 11
-13.501079555056894
 21
-9.261287960615462
  0
LINE
  8
0
 10
-13.501079555056894
 20
-9.261287960615462
 11
-14.042089881192059
 21
-10.057503900729278
  0
LINE
  8
0
 10
-14.042089881192059
 20
-10.057503900729278
 11
-14.620310359442623
 21
-11.299514074052903
  0
LINE
  8
0
 10
-14.620310359442623
 20
-11.299514074052903
 11
-14.811475323940662
 21
-11.978074431599001
  0
LINE
  8
0
 10
-14.811475323940662
 20
-11.978074431599001
 11
-14.295502263461234
 21
-12.66470987223121
  0
LINE
  8
0
 10
-14.295502263461234
 20
-12.66470987223121
 11
-13.676066848086776
 21
-13.259685664724133
  0
LINE
  8
0
 10
-13.676066848086776
 20
-13.259685664724133
 11
-12.979411569344906
 21
-13.151705920902845
  0
LINE
  8
0
 10
-12.979411569344906
 20
-13.151705920902845
 11
-11.676760271656125
 21
-12.727409104091718
  0
LINE
  8
0
 10
-11.676760271656125
 20
-12.727409104091718
 11
-10.821138053509975
 21
-12.286316578547625
  0
LINE
  8
0
 10
-10.821138053509975
 20
-12.286316578547625
 11
-10.374817222476615
 21
-11.956021646292365
  0
LINE
  8
0
 10
-10.374817222476615
 20
-11.956021646292365
 11
-10.2716100710853
 21
-11.85013696069453
  0
LINE
  8
0
 10
-10.2716100710853
 20
-11.85013696069453
 11
-10.099068578364514
 21
-11.604047450355083
  0
LINE
  8
0
 10
-10.099068578364514
 20
-11.604047450355083
 11
-9.420507248357985
 21
-10.976953721151142
  0
LINE
  8
0
 10
-9.420507248357985
 20
-10.976953721151142
 11
-8.864717717616957
 21
-10.838488744004318
  0
LINE
  8
0
 10
-8.864717717616957
 20
-10.838488744004318
 11
-6.990690796887496
 21
-12.132036129572493
  0
LINE
  8
0
 10
-6.990690796887496
 20
-12.132036129572493
 11
-6.9230721157954225
 21
-12.700808725910175
  0
LINE
  8
0
 10
-6.9230721157954225
 20
-12.700808725910175
 11
-7.268793774508464
 21
-13.55764509213413
  0
LINE
  8
0
 10
-7.268793774508464
 20
-13.55764509213413
 11
-7.437707407293998
 21
-13.80623873338151
  0
LINE
  8
0
 10
-7.437707407293998
 20
-13.80623873338151
 11
-7.500113547918466
 21
-13.940286323269643
  0
LINE
  8
0
 10
-7.500113547918466
 20
-13.940286323269643
 11
-7.650677126580509
 21
-14.474727746877797
  0
LINE
  8
0
 10
-7.650677126580509
 20
-14.474727746877797
 11
-7.759697982475996
 21
-15.431161983642678
  0
LINE
  8
0
 10
-7.759697982475996
 20
-15.431161983642678
 11
-7.694495881641454
 21
-16.799619830327934
  0
LINE
  8
0
 10
-7.694495881641454
 20
-16.799619830327934
 11
-7.548421329568049
 21
-17.489293976371687
  0
LINE
  8
0
 10
-7.548421329568049
 20
-17.489293976371687
 11
-6.772454474083525
 21
-17.8574948273514
  0
LINE
  8
0
 10
-6.772454474083525
 20
-17.8574948273514
 11
-5.9474726154606445
 21
-18.096453736822983
  0
LINE
  8
0
 10
-5.9474726154606445
 20
-18.096453736822983
 11
-5.3807956901606415
 21
-17.67709057104998
  0
LINE
  8
0
 10
-5.3807956901606415
 20
-17.67709057104998
 11
-4.424535811893678
 21
-16.696022154810226
  0
LINE
  8
0
 10
-4.424535811893678
 20
-16.696022154810226
 11
-3.8719058807890514
 21
-15.907826648908612
  0
LINE
  8
0
 10
-3.8719058807890514
 20
-15.907826648908612
 11
-3.630204120203663
 21
-15.40794937855344
  0
LINE
  8
0
 10
-3.630204120203663
 20
-15.40794937855344
 11
-3.5880257930756034
 21
-15.266230390894266
  0
LINE
  8
0
 10
-3.5880257930756034
 20
-15.266230390894266
 11
-3.549611386522429
 21
-14.968144921307784
  0
LINE
  8
0
 10
-3.549611386522429
 20
-14.968144921307784
 11
-3.2402001550973045
 21
-14.097537826427942
  0
LINE
  8
0
 10
-3.2402001550973045
 20
-14.097537826427942
 11
-2.8124208495043304
 21
-13.716644904356661
  0
LINE
  8
0
 10
-2.8124208495043304
 20
-13.716644904356661
 11
-0.5519109760979337
 21
-13.991120496279148
  0
LINE
  8
0
 10
-0.5519109760979337
 20
-13.991120496279148
 11
-0.2277158023366168
 21
-14.463319650966245
  0
LINE
  8
0
 10
-0.2277158023366168
 20
-14.463319650966245
 11
-0.13564541420884785
 21
-15.382675440319405
  0
LINE
  8
0
 10
-0.13564541420884785
 20
-15.382675440319405
 11
-0.1696837826633796
 21
-15.6812922571305
  0
LINE
  8
0
 10
-0.1696837826633796
 20
-15.6812922571305
 11
-0.16264665473944132
 21
-15.828987082947249
  0
LINE
  8
0
 10
-0.16264665473944132
 20
-15.828987082947249
 11
-0.0475967690588891
 21
-16.372181845709857
  0
LINE
  8
0
 10
-0.0475967690588891
 20
-16.372181845709857
 11
0.30034720952721855
 21
-17.269726821765023
  0
LINE
  8
0
 10
0.30034720952721855
 20
-17.269726821765023
 11
0.99403487391617
 21
-18.451135140841156
  0
LINE
  8
0
 10
0.99403487391617
 20
-18.451135140841156
 11
1.44388502307019
 21
-18.9939270399984
  0
LINE
  8
0
 10
1.44388502307019
 20
-18.9939270399984
 11
2.3020810183826437
 21
-18.95934292366743
  0
LINE
  8
0
 10
2.3020810183826437
 20
-18.95934292366743
 11
3.143615918552611
 21
-18.787542343724773
  0
LINE
  8
0
 10
3.143615918552611
 20
-18.787542343724773
 11
3.450495636021784
 21
-18.152866803404635
  0
LINE
  8
0
 10
3.450495636021784
 20
-18.152866803404635
 11
3.8412964809367764
 21
-16.839777738740683
  0
LINE
  8
0
 10
3.8412964809367764
 20
-16.839777738740683
 11
3.9643332676964453
 21
-15.88504534409805
  0
LINE
  8
0
 10
3.9643332676964453
 20
-15.88504534409805
 11
3.946044997305732
 21
-15.330101594107177
  0
LINE
  8
0
 10
3.946044997305732
 20
-15.330101594107177
 11
3.9175319537294406
 21
-15.185014416560438
  0
LINE
  8
0
 10
3.9175319537294406
 20
-15.185014416560438
 11
3.813018996517454
 21
-14.90322077648985
  0
LINE
  8
0
 10
3.813018996517454
 20
-14.90322077648985
 11
3.68239774505124
 21
-13.988545909418205
  0
LINE
  8
0
 10
3.68239774505124
 20
-13.988545909418205
 11
3.884167741884299
 21
-13.452483020611684
  0
LINE
  8
0
 10
3.884167741884299
 20
-13.452483020611684
 11
6.013304998067376
 21
-12.645007768568501
  0
LINE
  8
0
 10
6.013304998067376
 20
-12.645007768568501
 11
6.519807457164597
 21
-12.912458345882904
  0
LINE
  8
0
 10
6.519807457164597
 20
-12.912458345882904
 11
7.028577675781564
 21
-13.683720226462786
  0
LINE
  8
0
 10
7.028577675781564
 20
-13.683720226462786
 11
7.137212351664159
 21
-13.963950704828932
  0
LINE
  8
0
 10
7.137212351664159
 20
-13.963950704828932
 11
7.212080626935715
 21
-14.091457661895284
  0
LINE
  8
0
 10
7.212080626935715
 20
-14.091457661895284
 11
7.566387434650874
 21
-14.51896638986996
  0
LINE
  8
0
 10
7.566387434650874
 20
-14.51896638986996
 11
8.291586475404001
 21
-15.15200536779071
  0
LINE
  8
0
 10
8.291586475404001
 20
-15.15200536779071
 11
9.454844219278456
 21
-15.875717750871035
  0
LINE
  8
0
 10
9.454844219278456
 20
-15.875717750871035
 11
10.105414717623896
 21
-16.147280320396348
  0
LINE
  8
0
 10
10.105414717623896
 20
-16.147280320396348
 11
10.849237492621075
 21
-15.717834041022357
  0
LINE
  8
0
 10
10.849237492621075
 20
-15.717834041022357
 11
11.514539930304137
 21
-15.174631414108894
  0
LINE
  8
0
 10
11.514539930304137
 20
-15.174631414108894
 11
11.491319994971802
 21
-14.47004001685955
  0
LINE
  8
0
 10
11.491319994971802
 20
-14.47004001685955
 11
11.227134042625533
 21
-13.125743184047234
  0
LINE
  8
0
 10
11.227134042625533
 20
-13.125743184047234
 11
10.892391439947623
 21
-12.22319158650357
  0
LINE
  8
0
 10
10.892391439947623
 20
-12.22319158650357
 11
10.618302760929769
 21
-11.74031228220273
  0
LINE
  8
0
 10
10.618302760929769
 20
-11.74031228220273
 11
10.52563034131303
 21
-11.62509463865435
  0
LINE
  8
0
 10
10.52563034131303
 20
-11.62509463865435
 11
10.30213267931548
 21
-11.424148355058323
  0
LINE
  8
0
 10
10.30213267931548
 20
-11.424148355058323
 11
9.76140269951211
 21
-10.674946704813891
  0
LINE
  8
0
 10
9.76140269951211
 20
-10.674946704813891
 11
9.69094031290286
 21
-10.10651939683957
  0
LINE
  8
0
 10
9.69094031290286
 20
-10.10651939683957
 11
11.20094526535656
 21
-8.402076149942125
  0
LINE
  8
0
 10
11.20094526535656
 20
-8.402076149942125
 11
11.77372140042685
 21
-8.403508445749964
  0
LINE
  8
0
 10
11.77372140042685
 20
-8.403508445749964
 11
12.582638323793667
 21
-8.849989615428969
  0
LINE
  8
0
 10
12.582638323793667
 20
-8.849989615428969
 11
12.809059148958454
 21
-9.04763632989985
  0
LINE
  8
0
 10
12.809059148958454
 20
-9.04763632989985
 11
12.93460715197344
 21
-9.125745110977313
  0
LINE
  8
0
 10
12.93460715197344
 20
-9.125745110977313
 11
13.447003461935568
 21
-9.33963070662374
  0
LINE
  8
0
 10
13.447003461935568
 20
-9.33963070662374
 11
14.383323204215028
 21
-9.563142085515128
  0
LINE
  8
0
 10
14.383323204215028
 20
-9.563142085515128
 11
15.749662697228864
 21
-9.66336474731563
  0
LINE
  8
0
 10
15.749662697228864
 20
-9.66336474731563
 11
16.451915683819205
 21
-9.6014862752145
  0
LINE
  8
0
 10
0.3118675362266391
 20
-1.4672214011007085
 11
9.18454765366783e-17
 21
-1.5
  0
LINE
  8
0
 10
9.18454765366783e-17
 20
-1.5
 11
-0.3118675362266384
 21
-1.4672214011007085
  0
LINE
  8
0
 10
-0.3118675362266384
 20
-1.4672214011007085
 11
-0.6101049646137001
 21
-1.3703181864639014
  0
LINE
  8
0
 10
-0.6101049646137001
 20
-1.3703181864639014
 11
-0.8816778784387099
 21
-1.213525491562421
  0
LINE
  8
0
 10
-0.8816778784387099
 20
-1.213525491562421
 11
-1.114717238216091
 21
-1.0036959095382878
  0
LINE
  8
0
 10
-1.114717238216091
 20
-1.0036959095382878
 11
-1.299038105676658
 21
-0.7500000000000003
  0
LINE
  8
0
 10
-1.299038105676658
 20
-0.7500000000000003
 11
-1.4265847744427305
 21
-0.46352549156242095
  0
LINE
  8
0
 10
-1.4265847744427305
 20
-0.46352549156242095
 11
-1.49178284305241
 21
-0.15679269490147957
  0
LINE
  8
0
 10
-1.49178284305241
 20
-0.15679269490147957
 11
-1.4917828430524098
 21
0.15679269490148126
  0
LINE
  8
0
 10
-1.4917828430524098
 20
0.15679269490148126
 11
-1.4265847744427302
 21
0.46352549156242123
  0
LINE
  8
0
 10
-1.4265847744427302
 20
0.46352549156242123
 11
-1.2990381056766576
 21
0.7500000000000006
  0
LINE
  8
0
 10
-1.2990381056766576
 20
0.7500000000000006
 11
-1.114717238216091
 21
1.0036959095382878
  0
LINE
  8
0
 10
-1.114717238216091
 20
1.0036959095382878
 11
-0.8816778784387097
 21
1.2135254915624214
  0
LINE
  8
0
 10
-0.8816778784387097
 20
1.2135254915624214
 11
-0.6101049646137005
 21
1.3703181864639014
  0
LINE
  8
0
 10
-0.6101049646137005
 20
1.3703181864639014
 11
-0.3118675362266387
 21
1.4672214011007085
  0
LINE
  8
0
 10
-0.3118675362266387
 20
1.4672214011007085
 11
7.579792913117722e-16
 21
1.5
  0
LINE
  8
0
 10
7.579792913117722e-16
 20
1.5
 11
0.3118675362266389
 21
1.4672214011007085
  0
LINE
  8
0
 10
0.3118675362266389
 20
1.4672214011007085
 11
0.6101049646136999
 21
1.3703181864639014
  0
LINE
  8
0
 10
0.6101049646136999
 20
1.3703181864639014
 11
0.8816778784387097
 21
1.213525491562421
  0
LINE
  8
0
 10
0.8816778784387097
 20
1.213525491562421
 11
1.1147172382160917
 21
1.003695909538287
  0
LINE
  8
0
 10
1.1147172382160917
 20
1.003695909538287
 11
1.299038105676658
 21
0.7499999999999998
  0
LINE
  8
0
 10
1.299038105676658
 20
0.7499999999999998
 11
1.4265847744427305
 21
0.4635254915624211
  0
LINE
  8
0
 10
1.4265847744427305
 20
0.4635254915624211
 11
1.49178284305241
 21
0.1567926949014801
  0
LINE
  8
0
 10
1.49178284305241
 20
0.1567926949014801
 11
1.4917828430524098
 21
-0.1567926949014801
  0
LINE
  8
0
 10
1.4917828430524098
 20
-0.1567926949014801
 11
1.4265847744427302
 21
-0.46352549156242107
  0
LINE
  8
0
 10
1.4265847744427302
 20
-0.46352549156242107
 11
1.299038105676658
 21
-0.7500000000000001
  0
LINE
  8
0
 10
1.299038105676658
 20
-0.7500000000000001
 11
1.1147172382160913
 21
-1.0036959095382874
  0
LINE
  8
0
 10
1.1147172382160913
 20
-1.0036959095382874
 11
0.8816778784387098
 21
-1.2135254915624212
  0
LINE
  8
0
 10
0.8816778784387098
 20
-1.2135254915624212
 11
0.6101049646137003
 21
-1.3703181864639014
  0
LINE
  8
0
 10
0.6101049646137003
 20
-1.3703181864639014
 11
0.3118675362266391
 21
-1.4672214011007085
  0
ENDSEC
  0
SECTION
  2
OBJECTS
  0
DICTIONARY
  0
ENDSEC
  0
EOF
