  0
SECTION
  2
BLOCKS
  0
ENDSEC
  0
SECTION
  2
ENTITIES
  0
LINE
  8
0
 10
42.16280954442918
 20
-9.419710153941875
 11
42.45833653272097
 21
-8.445488234725751
  0
LINE
  8
0
 10
42.45833653272097
 20
-8.445488234725751
 11
42.55812378486448
 21
-7.432331261202108
  0
LINE
  8
0
 10
42.55812378486448
 20
-7.432331261202108
 11
41.813867742761154
 21
-6.896411012711481
  0
LINE
  8
0
 10
41.813867742761154
 20
-6.896411012711481
 11
40.90810431288576
 21
-6.330279453823301
  0
LINE
  8
0
 10
40.90810431288576
 20
-6.330279453823301
 11
40.11276743593999
 21
-5.902809291291364
  0
LINE
  8
0
 10
40.11276743593999
 20
-5.902809291291364
 11
39.4414931589439
 21
-5.596796873547619
  0
LINE
  8
0
 10
39.4414931589439
 20
-5.596796873547619
 11
38.90611947736539
 21
-5.393890108739827
  0
LINE
  8
0
 10
38.90611947736539
 20
-5.393890108739827
 11
38.33851615347513
 21
-5.220283547222962
  0
LINE
  8
0
 10
38.33851615347513
 20
-5.220283547222962
 11
38.002258455540996
 21
-5.051326545970899
  0
LINE
  8
0
 10
38.002258455540996
 20
-5.051326545970899
 11
37.85189918109029
 21
-4.8721519511015465
  0
LINE
  8
0
 10
37.85189918109029
 20
-4.8721519511015465
 11
38.075095245172285
 21
-2.6060042826325827
  0
LINE
  8
0
 10
38.075095245172285
 20
-2.6060042826325827
 11
38.257520637735844
 21
-2.4596061166332652
  0
LINE
  8
0
 10
38.257520637735844
 20
-2.4596061166332652
 11
38.620279114073305
 21
-2.3594961993565677
  0
LINE
  8
0
 10
38.620279114073305
 20
-2.3594961993565677
 11
39.21084505924263
 21
-2.2999593544725863
  0
LINE
  8
0
 10
39.21084505924263
 20
-2.2999593544725863
 11
39.775516831736084
 21
-2.205397610192898
  0
LINE
  8
0
 10
39.775516831736084
 20
-2.205397610192898
 11
40.493592822845756
 21
-2.0362242501095373
  0
LINE
  8
0
 10
40.493592822845756
 20
-2.0362242501095373
 11
41.35704281637565
 21
-1.7721303343217947
  0
LINE
  8
0
 10
41.35704281637565
 20
-1.7721303343217947
 11
42.35584904405267
 21
-1.3935825137970919
  0
LINE
  8
0
 10
42.35584904405267
 20
-1.3935825137970919
 11
43.190357268852125
 21
-1.0131569735236465
  0
LINE
  8
0
 10
43.190357268852125
 20
-1.0131569735236465
 11
43.29014452099556
 21
-5.329070518200751e-15
  0
LINE
  8
0
 10
43.29014452099556
 20
-5.329070518200751e-15
 11
43.19035726885212
 21
1.0131569735236479
  0
LINE
  8
0
 10
43.19035726885212
 20
1.0131569735236479
 11
42.35584904405305
 21
1.3935825137969156
  0
LINE
  8
0
 10
42.35584904405305
 20
1.3935825137969156
 11
41.357042816376726
 21
1.7721303343213533
  0
LINE
  8
0
 10
41.357042816376726
 20
1.7721303343213533
 11
40.4935928228458
 21
2.036224250109602
  0
LINE
  8
0
 10
40.4935928228458
 20
2.036224250109602
 11
39.775516831736155
 21
2.2053976101929593
  0
LINE
  8
0
 10
39.775516831736155
 20
2.2053976101929593
 11
39.210845059243056
 21
2.2999593544725703
  0
LINE
  8
0
 10
39.210845059243056
 20
2.2999593544725703
 11
38.620279114073114
 21
2.359496199354554
  0
LINE
  8
0
 10
38.620279114073114
 20
2.359496199354554
 11
38.25752063773589
 21
2.459606116633275
  0
LINE
  8
0
 10
38.25752063773589
 20
2.459606116633275
 11
38.075095245172356
 21
2.606004282632649
  0
LINE
  8
0
 10
38.075095245172356
 20
2.606004282632649
 11
37.85189918109021
 21
4.872151951101598
  0
LINE
  8
0
 10
37.85189918109021
 20
4.872151951101598
 11
38.00225845554095
 21
5.051326545970901
  0
LINE
  8
0
 10
38.00225845554095
 20
5.051326545970901
 11
38.33851615347571
 21
5.220283547221027
  0
LINE
  8
0
 10
38.33851615347571
 20
5.220283547221027
 11
38.90611947736497
 21
5.393890108739728
  0
LINE
  8
0
 10
38.90611947736497
 20
5.393890108739728
 11
39.44149315894382
 21
5.5967968735476665
  0
LINE
  8
0
 10
39.44149315894382
 20
5.5967968735476665
 11
40.11276743593993
 21
5.902809291291418
  0
LINE
  8
0
 10
40.11276743593993
 20
5.902809291291418
 11
40.90810431288479
 21
6.3302794538226586
  0
LINE
  8
0
 10
40.90810431288479
 20
6.3302794538226586
 11
41.81386774276081
 21
6.896411012711234
  0
LINE
  8
0
 10
41.81386774276081
 20
6.896411012711234
 11
42.55812378486447
 21
7.432331261202108
  0
LINE
  8
0
 10
42.55812378486447
 20
7.432331261202108
 11
42.458336532721034
 21
8.445488234725751
  0
LINE
  8
0
 10
42.458336532721034
 20
8.445488234725751
 11
42.16280954442921
 21
9.419710153941864
  0
LINE
  8
0
 10
42.16280954442921
 20
9.419710153941864
 11
41.27011882001578
 21
9.630021445830174
  0
LINE
  8
0
 10
41.27011882001578
 20
9.630021445830174
 11
40.216653357731154
 21
9.80643814754018
  0
LINE
  8
0
 10
40.216653357731154
 20
9.80643814754018
 11
39.31827214663813
 21
9.897006835506572
  0
LINE
  8
0
 10
39.31827214663813
 20
9.897006835506572
 11
38.580989699051614
 21
9.922839900575052
  0
LINE
  8
0
 10
38.580989699051614
 20
9.922839900575052
 11
38.00871985518927
 21
9.905422669524654
  0
LINE
  8
0
 10
38.00871985518927
 20
9.905422669524654
 11
37.417886406819306
 21
9.84860183021159
  0
LINE
  8
0
 10
37.417886406819306
 20
9.84860183021159
 11
37.04256775688735
 21
9.876017495538237
  0
LINE
  8
0
 10
37.04256775688735
 20
9.876017495538237
 11
36.83508675174186
 21
9.984013233249312
  0
LINE
  8
0
 10
36.83508675174186
 20
9.984013233249312
 11
36.17407585906845
 21
12.163074117689238
  0
LINE
  8
0
 10
36.17407585906845
 20
12.163074117689238
 11
36.28659079281168
 21
12.368139562229969
  0
LINE
  8
0
 10
36.28659079281168
 20
12.368139562229969
 11
36.583425517587614
 21
12.599450724647658
  0
LINE
  8
0
 10
36.583425517587614
 20
12.599450724647658
 11
37.10625354277534
 21
12.880455400001598
  0
LINE
  8
0
 10
37.10625354277534
 20
12.880455400001598
 11
37.591755023097534
 21
13.183909592157642
  0
LINE
  8
0
 10
37.591755023097534
 20
13.183909592157642
 11
38.19043089197009
 21
13.615001181961633
  0
LINE
  8
0
 10
38.19043089197009
 20
13.615001181961633
 11
38.88709030217897
 21
14.189420152618323
  0
LINE
  8
0
 10
38.88709030217897
 20
14.189420152618323
 11
39.66500295360185
 21
14.92137933155292
  0
LINE
  8
0
 10
39.66500295360185
 20
14.92137933155292
 11
40.290405470695134
 21
15.592199173659234
  0
LINE
  8
0
 10
40.290405470695134
 20
15.592199173659234
 11
39.99487848240334
 21
16.566421092875334
  0
LINE
  8
0
 10
39.99487848240334
 20
16.566421092875334
 11
39.514968694389886
 21
17.464269155778407
  0
LINE
  8
0
 10
39.514968694389886
 20
17.464269155778407
 11
38.59840107427459
 21
17.496384054278423
  0
LINE
  8
0
 10
38.59840107427459
 20
17.496384054278423
 11
37.53076046430702
 21
17.463890042262907
  0
LINE
  8
0
 10
37.53076046430702
 20
17.463890042262907
 11
36.6319723217762
 21
17.3774529985204
  0
LINE
  8
0
 10
36.6319723217762
 20
17.3774529985204
 11
35.90381676870081
 21
17.25895301837077
  0
LINE
  8
0
 10
35.90381676870081
 20
17.25895301837077
 11
35.34594086263621
 21
17.130226146411935
  0
LINE
  8
0
 10
35.34594086263621
 20
17.130226146411935
 11
34.777545309143896
 21
16.95923121589313
  0
LINE
  8
0
 10
34.777545309143896
 20
16.95923121589313
 11
34.40408977085295
 21
16.91289906062408
  0
LINE
  8
0
 10
34.40408977085295
 20
16.91289906062408
 11
34.17952653179657
 21
16.978342154411333
  0
LINE
  8
0
 10
34.17952653179657
 20
16.978342154411333
 11
33.106103088438154
 21
18.98657616706463
  0
LINE
  8
0
 10
33.106103088438154
 20
18.98657616706463
 11
33.17644979566923
 21
19.209651911245114
  0
LINE
  8
0
 10
33.17644979566923
 20
19.209651911245114
 11
33.42245435528001
 21
19.494428076579446
  0
LINE
  8
0
 10
33.42245435528001
 20
19.494428076579446
 11
33.880415093963585
 21
19.872032013684013
  0
LINE
  8
0
 10
33.880415093963585
 20
19.872032013684013
 11
34.29738682341271
 21
20.264372058762678
  0
LINE
  8
0
 10
34.29738682341271
 20
20.264372058762678
 11
34.80045750626221
 21
20.803976212589692
  0
LINE
  8
0
 10
34.80045750626221
 20
20.803976212589692
 11
35.37166721929189
 21
21.503269392467363
  0
LINE
  8
0
 10
35.37166721929189
 20
21.503269392467363
 11
35.9918343453259
 21
22.372927410688963
  0
LINE
  8
0
 10
35.9918343453259
 20
22.372927410688963
 11
36.47434946940686
 21
23.15286761607871
  0
LINE
  8
0
 10
36.47434946940686
 20
23.15286761607871
 11
35.99443968139334
 21
24.050715678981753
  0
LINE
  8
0
 10
35.99443968139334
 20
24.050715678981753
 11
35.34858975767487
 21
24.837686088033337
  0
LINE
  8
0
 10
35.34858975767487
 20
24.837686088033337
 11
34.44336842148172
 21
24.690370435605974
  0
LINE
  8
0
 10
34.44336842148172
 20
24.690370435605974
 11
33.402581493732505
 21
24.45021443652384
  0
LINE
  8
0
 10
33.402581493732505
 20
24.45021443652384
 11
32.53792634403518
 21
24.19009338818901
  0
LINE
  8
0
 10
32.53792634403518
 20
24.19009338818901
 11
31.846880295021247
 21
23.931814250602866
  0
LINE
  8
0
 10
31.846880295021247
 20
23.931814250602866
 11
31.32483718496406
 21
23.696724639234105
  0
LINE
  8
0
 10
31.32483718496406
 20
23.696724639234105
 11
30.800722648710185
 21
23.418126856794338
  0
LINE
  8
0
 10
30.800722648710185
 20
23.418126856794338
 11
30.4434819089605
 21
23.29982739967321
  0
LINE
  8
0
 10
30.4434819089605
 20
23.29982739967321
 11
30.210466275333644
 21
23.320202908143294
  0
LINE
  8
0
 10
30.210466275333644
 20
23.320202908143294
 11
28.765881342235684
 21
25.080434742134308
  0
LINE
  8
0
 10
28.765881342235684
 20
25.080434742134308
 11
28.791356438446602
 21
25.31294811020801
  0
LINE
  8
0
 10
28.791356438446602
 20
25.31294811020801
 11
28.977077015627344
 21
25.640245490129505
  0
LINE
  8
0
 10
28.977077015627344
 20
25.640245490129505
 11
29.3525712934465
 21
26.099937581444497
  0
LINE
  8
0
 10
29.3525712934465
 20
26.099937581444497
 11
29.68498928230025
 21
26.56608607154024
  0
LINE
  8
0
 10
29.68498928230025
 20
26.56608607154024
 11
30.073122054910094
 21
27.1934661043722
  0
LINE
  8
0
 10
30.073122054910094
 20
27.1934661043722
 11
30.49693080182694
 21
27.99076004873629
  0
LINE
  8
0
 10
30.49693080182694
 20
27.99076004873629
 11
30.93551972761231
 21
28.96469643631447
  0
LINE
  8
0
 10
30.93551972761231
 20
28.96469643631447
 11
31.256604673060036
 21
29.82378434029002
  0
LINE
  8
0
 10
31.256604673060036
 20
29.82378434029002
 11
30.61075474934163
 21
30.610754749341634
  0
LINE
  8
0
 10
30.61075474934163
 20
30.610754749341634
 11
29.823784340289997
 21
31.256604673060025
  0
LINE
  8
0
 10
29.823784340289997
 20
31.256604673060025
 11
28.964696436314863
 21
30.935519727612448
  0
LINE
  8
0
 10
28.964696436314863
 20
30.935519727612448
 11
27.990760048737368
 21
30.496930801827393
  0
LINE
  8
0
 10
27.990760048737368
 20
30.496930801827393
 11
27.193466104372188
 21
30.07312205491017
  0
LINE
  8
0
 10
27.193466104372188
 20
30.07312205491017
 11
26.566086071540244
 21
29.68498928230034
  0
LINE
  8
0
 10
26.566086071540244
 20
29.68498928230034
 11
26.09993758144481
 21
29.352571293446783
  0
LINE
  8
0
 10
26.09993758144481
 20
29.352571293446783
 11
25.640245490130802
 21
28.97707701562578
  0
LINE
  8
0
 10
25.640245490130802
 20
28.97707701562578
 11
25.312948110208044
 21
28.791356438446638
  0
LINE
  8
0
 10
25.312948110208044
 20
28.791356438446638
 11
25.080434742134322
 21
28.765881342235772
  0
LINE
  8
0
 10
25.080434742134322
 20
28.765881342235772
 11
23.3202029081432
 21
30.21046627533362
  0
LINE
  8
0
 10
23.3202029081432
 20
30.21046627533362
 11
23.299827399673177
 21
30.443481908960464
  0
LINE
  8
0
 10
23.299827399673177
 20
30.443481908960464
 11
23.41812685679612
 21
30.800722648709222
  0
LINE
  8
0
 10
23.41812685679612
 20
30.800722648709222
 11
23.69672463923388
 21
31.324837184963688
  0
LINE
  8
0
 10
23.69672463923388
 20
31.324837184963688
 11
23.931814250602777
 21
31.846880295021222
  0
LINE
  8
0
 10
23.931814250602777
 20
31.846880295021222
 11
24.190093388188927
 21
32.537926344035164
  0
LINE
  8
0
 10
24.190093388188927
 20
32.537926344035164
 11
24.450214436523613
 21
33.40258149373136
  0
LINE
  8
0
 10
24.450214436523613
 20
33.40258149373136
 11
24.690370435605914
 21
34.44336842148131
  0
LINE
  8
0
 10
24.690370435605914
 20
34.44336842148131
 11
24.837686088033344
 21
35.348589757674894
  0
LINE
  8
0
 10
24.837686088033344
 20
35.348589757674894
 11
24.050715678981742
 21
35.994439681393295
  0
LINE
  8
0
 10
24.050715678981742
 20
35.994439681393295
 11
23.1528676160787
 21
36.47434946940683
  0
LINE
  8
0
 10
23.1528676160787
 20
36.47434946940683
 11
22.372927410689325
 21
35.99183434532611
  0
LINE
  8
0
 10
22.372927410689325
 20
35.99183434532611
 11
21.503269392468333
 21
35.37166721929254
  0
LINE
  8
0
 10
21.503269392468333
 20
35.37166721929254
 11
20.803976212589664
 21
34.80045750626228
  0
LINE
  8
0
 10
20.803976212589664
 20
34.80045750626228
 11
20.264372058762664
 21
34.29738682341279
  0
LINE
  8
0
 10
20.264372058762664
 20
34.29738682341279
 11
19.872032013684265
 21
33.88041509396393
  0
LINE
  8
0
 10
19.872032013684265
 20
33.88041509396393
 11
19.494428076581016
 21
33.42245435527873
  0
LINE
  8
0
 10
19.494428076581016
 20
33.42245435527873
 11
19.209651911245132
 21
33.17644979566927
  0
LINE
  8
0
 10
19.209651911245132
 20
33.17644979566927
 11
18.986576167064616
 21
33.10610308843824
  0
LINE
  8
0
 10
18.986576167064616
 20
33.10610308843824
 11
16.97834215441124
 21
34.179526531796526
  0
LINE
  8
0
 10
16.97834215441124
 20
34.179526531796526
 11
16.912899060624053
 21
34.404089770852906
  0
LINE
  8
0
 10
16.912899060624053
 20
34.404089770852906
 11
16.959231215895066
 21
34.777545309143306
  0
LINE
  8
0
 10
16.959231215895066
 20
34.777545309143306
 11
17.130226146411786
 21
35.34594086263581
  0
LINE
  8
0
 10
17.130226146411786
 20
35.34594086263581
 11
17.25895301837069
 21
35.903816768700764
  0
LINE
  8
0
 10
17.25895301837069
 20
35.903816768700764
 11
17.377452998520322
 21
36.63197232177618
  0
LINE
  8
0
 10
17.377452998520322
 20
36.63197232177618
 11
17.463890042262904
 21
37.53076046430585
  0
LINE
  8
0
 10
17.463890042262904
 20
37.53076046430585
 11
17.496384054278444
 21
38.59840107427417
  0
LINE
  8
0
 10
17.496384054278444
 20
38.59840107427417
 11
17.46426915577841
 21
39.51496869438989
  0
LINE
  8
0
 10
17.46426915577841
 20
39.51496869438989
 11
16.56642109287536
 21
39.99487848240342
  0
LINE
  8
0
 10
16.56642109287536
 20
39.99487848240342
 11
15.592199173659239
 21
40.29040547069519
  0
LINE
  8
0
 10
15.592199173659239
 20
40.29040547069519
 11
14.921379331553222
 21
39.66500295360214
  0
LINE
  8
0
 10
14.921379331553222
 20
39.66500295360214
 11
14.189420152619137
 21
38.88709030217979
  0
LINE
  8
0
 10
14.189420152619137
 20
38.88709030217979
 11
13.615001181961587
 21
38.19043089197015
  0
LINE
  8
0
 10
13.615001181961587
 20
38.19043089197015
 11
13.183909592157605
 21
37.59175502309762
  0
LINE
  8
0
 10
13.183909592157605
 20
37.59175502309762
 11
12.88045540000177
 21
37.10625354277573
  0
LINE
  8
0
 10
12.88045540000177
 20
37.10625354277573
 11
12.599450724649438
 21
36.58342551758666
  0
LINE
  8
0
 10
12.599450724649438
 20
36.58342551758666
 11
12.368139562229972
 21
36.28659079281173
  0
LINE
  8
0
 10
12.368139562229972
 20
36.28659079281173
 11
12.163074117689197
 21
36.174075859068545
  0
LINE
  8
0
 10
12.163074117689197
 20
36.174075859068545
 11
9.984013233249227
 21
36.835086751741805
  0
LINE
  8
0
 10
9.984013233249227
 20
36.835086751741805
 11
9.87601749553821
 21
37.0425677568873
  0
LINE
  8
0
 10
9.87601749553821
 20
37.0425677568873
 11
9.848601830213596
 21
37.41788640681911
  0
LINE
  8
0
 10
9.848601830213596
 20
37.41788640681911
 11
9.90542266952458
 21
38.00871985518884
  0
LINE
  8
0
 10
9.90542266952458
 20
38.00871985518884
 11
9.922839900574973
 21
38.58098969905155
  0
LINE
  8
0
 10
9.922839900574973
 20
38.58098969905155
 11
9.897006835506494
 21
39.318272146638094
  0
LINE
  8
0
 10
9.897006835506494
 20
39.318272146638094
 11
9.806438147540398
 21
40.21665335773001
  0
LINE
  8
0
 10
9.806438147540398
 20
40.21665335773001
 11
9.630021445830266
 21
41.27011882001538
  0
LINE
  8
0
 10
9.630021445830266
 20
41.27011882001538
 11
9.419710153941852
 21
42.1628095444292
  0
LINE
  8
0
 10
9.419710153941852
 20
42.1628095444292
 11
8.445488234725756
 21
42.45833653272098
  0
LINE
  8
0
 10
8.445488234725756
 20
42.45833653272098
 11
7.432331261202107
 21
42.558123784864435
  0
LINE
  8
0
 10
7.432331261202107
 20
42.558123784864435
 11
6.896411012711484
 21
41.813867742761154
  0
LINE
  8
0
 10
6.896411012711484
 20
41.813867742761154
 11
6.330279453823303
 21
40.90810431288576
  0
LINE
  8
0
 10
6.330279453823303
 20
40.90810431288576
 11
5.9028092912913666
 21
40.11276743593999
  0
LINE
  8
0
 10
5.9028092912913666
 20
40.11276743593999
 11
5.596796873547621
 21
39.4414931589439
  0
LINE
  8
0
 10
5.596796873547621
 20
39.4414931589439
 11
5.393890108739829
 21
38.90611947736539
  0
LINE
  8
0
 10
5.393890108739829
 20
38.90611947736539
 11
5.220283547222965
 21
38.33851615347513
  0
LINE
  8
0
 10
5.220283547222965
 20
38.33851615347513
 11
5.051326545970902
 21
38.002258455540996
  0
LINE
  8
0
 10
5.051326545970902
 20
38.002258455540996
 11
4.872151951101549
 21
37.85189918109029
  0
LINE
  8
0
 10
4.872151951101549
 20
37.85189918109029
 11
2.606004282632585
 21
38.075095245172285
  0
LINE
  8
0
 10
2.606004282632585
 20
38.075095245172285
 11
2.4596061166332674
 21
38.257520637735844
  0
LINE
  8
0
 10
2.4596061166332674
 20
38.257520637735844
 11
2.35949619935657
 21
38.620279114073305
  0
LINE
  8
0
 10
2.35949619935657
 20
38.620279114073305
 11
2.2999593544725885
 21
39.21084505924263
  0
LINE
  8
0
 10
2.2999593544725885
 20
39.21084505924263
 11
2.2053976101929003
 21
39.775516831736084
  0
LINE
  8
0
 10
2.2053976101929003
 20
39.775516831736084
 11
2.03622425010954
 21
40.493592822845756
  0
LINE
  8
0
 10
2.03622425010954
 20
40.493592822845756
 11
1.7721303343217971
 21
41.35704281637565
  0
LINE
  8
0
 10
1.7721303343217971
 20
41.35704281637565
 11
1.3935825137970945
 21
42.35584904405267
  0
LINE
  8
0
 10
1.3935825137970945
 20
42.35584904405267
 11
1.0131569735236483
 21
43.190357268852125
  0
LINE
  8
0
 10
1.0131569735236483
 20
43.190357268852125
 11
6.217248937900877e-15
 21
43.29014452099557
  0
LINE
  8
0
 10
6.217248937900877e-15
 20
43.29014452099557
 11
-1.013156973523646
 21
43.19035726885211
  0
LINE
  8
0
 10
-1.013156973523646
 20
43.19035726885211
 11
-1.393582513796912
 21
42.35584904405305
  0
LINE
  8
0
 10
-1.393582513796912
 20
42.35584904405305
 11
-1.7721303343213515
 21
41.357042816376726
  0
LINE
  8
0
 10
-1.7721303343213515
 20
41.357042816376726
 11
-2.0362242501095995
 21
40.4935928228458
  0
LINE
  8
0
 10
-2.0362242501095995
 20
40.4935928228458
 11
-2.2053976101929575
 21
39.775516831736155
  0
LINE
  8
0
 10
-2.2053976101929575
 20
39.775516831736155
 11
-2.2999593544725685
 21
39.210845059243056
  0
LINE
  8
0
 10
-2.2999593544725685
 20
39.210845059243056
 11
-2.359496199354552
 21
38.620279114073114
  0
LINE
  8
0
 10
-2.359496199354552
 20
38.620279114073114
 11
-2.459606116633273
 21
38.25752063773589
  0
LINE
  8
0
 10
-2.459606116633273
 20
38.25752063773589
 11
-2.606004282632647
 21
38.075095245172356
  0
LINE
  8
0
 10
-2.606004282632647
 20
38.075095245172356
 11
-4.872151951101596
 21
37.85189918109021
  0
LINE
  8
0
 10
-4.872151951101596
 20
37.85189918109021
 11
-5.051326545970899
 21
38.00225845554095
  0
LINE
  8
0
 10
-5.051326545970899
 20
38.00225845554095
 11
-5.220283547221023
 21
38.33851615347571
  0
LINE
  8
0
 10
-5.220283547221023
 20
38.33851615347571
 11
-5.3938901087397255
 21
38.90611947736497
  0
LINE
  8
0
 10
-5.3938901087397255
 20
38.90611947736497
 11
-5.596796873547665
 21
39.44149315894382
  0
LINE
  8
0
 10
-5.596796873547665
 20
39.44149315894382
 11
-5.902809291291416
 21
40.11276743593993
  0
LINE
  8
0
 10
-5.902809291291416
 20
40.11276743593993
 11
-6.330279453822657
 21
40.90810431288479
  0
LINE
  8
0
 10
-6.330279453822657
 20
40.90810431288479
 11
-6.896411012711231
 21
41.81386774276081
  0
LINE
  8
0
 10
-6.896411012711231
 20
41.81386774276081
 11
-7.432331261202106
 21
42.55812378486446
  0
LINE
  8
0
 10
-7.432331261202106
 20
42.55812378486446
 11
-8.445488234725753
 21
42.45833653272103
  0
LINE
  8
0
 10
-8.445488234725753
 20
42.45833653272103
 11
-9.419710153941855
 21
42.16280954442919
  0
LINE
  8
0
 10
-9.419710153941855
 20
42.16280954442919
 11
-9.63002144583017
 21
41.27011882001578
  0
LINE
  8
0
 10
-9.63002144583017
 20
41.27011882001578
 11
-9.80643814754018
 21
40.216653357731154
  0
LINE
  8
0
 10
-9.80643814754018
 20
40.216653357731154
 11
-9.897006835506572
 21
39.31827214663813
  0
LINE
  8
0
 10
-9.897006835506572
 20
39.31827214663813
 11
-9.92283990057505
 21
38.580989699051614
  0
LINE
  8
0
 10
-9.92283990057505
 20
38.580989699051614
 11
-9.905422669524652
 21
38.00871985518927
  0
LINE
  8
0
 10
-9.905422669524652
 20
38.00871985518927
 11
-9.848601830211587
 21
37.417886406819306
  0
LINE
  8
0
 10
-9.848601830211587
 20
37.417886406819306
 11
-9.876017495538234
 21
37.04256775688735
  0
LINE
  8
0
 10
-9.876017495538234
 20
37.04256775688735
 11
-9.98401323324931
 21
36.83508675174186
  0
LINE
  8
0
 10
-9.98401323324931
 20
36.83508675174186
 11
-12.163074117689236
 21
36.17407585906845
  0
LINE
  8
0
 10
-12.163074117689236
 20
36.17407585906845
 11
-12.368139562229967
 21
36.28659079281168
  0
LINE
  8
0
 10
-12.368139562229967
 20
36.28659079281168
 11
-12.599450724647655
 21
36.583425517587614
  0
LINE
  8
0
 10
-12.599450724647655
 20
36.583425517587614
 11
-12.880455400001596
 21
37.10625354277534
  0
LINE
  8
0
 10
-12.880455400001596
 20
37.10625354277534
 11
-13.183909592157638
 21
37.591755023097534
  0
LINE
  8
0
 10
-13.183909592157638
 20
37.591755023097534
 11
-13.615001181961631
 21
38.19043089197009
  0
LINE
  8
0
 10
-13.615001181961631
 20
38.19043089197009
 11
-14.189420152618322
 21
38.88709030217897
  0
LINE
  8
0
 10
-14.189420152618322
 20
38.88709030217897
 11
-14.921379331552917
 21
39.66500295360185
  0
LINE
  8
0
 10
-14.921379331552917
 20
39.66500295360185
 11
-15.59219917365924
 21
40.29040547069516
  0
LINE
  8
0
 10
-15.59219917365924
 20
40.29040547069516
 11
-16.56642109287535
 21
39.99487848240337
  0
LINE
  8
0
 10
-16.56642109287535
 20
39.99487848240337
 11
-17.464269155778386
 21
39.514968694389836
  0
LINE
  8
0
 10
-17.464269155778386
 20
39.514968694389836
 11
-17.496384054278426
 21
38.59840107427459
  0
LINE
  8
0
 10
-17.496384054278426
 20
38.59840107427459
 11
-17.463890042262914
 21
37.530760464307015
  0
LINE
  8
0
 10
-17.463890042262914
 20
37.530760464307015
 11
-17.377452998520408
 21
36.631972321776196
  0
LINE
  8
0
 10
-17.377452998520408
 20
36.631972321776196
 11
-17.25895301837078
 21
35.90381676870081
  0
LINE
  8
0
 10
-17.25895301837078
 20
35.90381676870081
 11
-17.13022614641194
 21
35.34594086263621
  0
LINE
  8
0
 10
-17.13022614641194
 20
35.34594086263621
 11
-16.959231215893137
 21
34.77754530914389
  0
LINE
  8
0
 10
-16.959231215893137
 20
34.77754530914389
 11
-16.912899060624085
 21
34.40408977085295
  0
LINE
  8
0
 10
-16.912899060624085
 20
34.40408977085295
 11
-16.978342154411337
 21
34.17952653179656
  0
LINE
  8
0
 10
-16.978342154411337
 20
34.17952653179656
 11
-18.986576167064634
 21
33.10610308843815
  0
LINE
  8
0
 10
-18.986576167064634
 20
33.10610308843815
 11
-19.20965191124512
 21
33.17644979566923
  0
LINE
  8
0
 10
-19.20965191124512
 20
33.17644979566923
 11
-19.494428076579453
 21
33.42245435528
  0
LINE
  8
0
 10
-19.494428076579453
 20
33.42245435528
 11
-19.872032013684017
 21
33.880415093963585
  0
LINE
  8
0
 10
-19.872032013684017
 20
33.880415093963585
 11
-20.26437205876268
 21
34.2973868234127
  0
LINE
  8
0
 10
-20.26437205876268
 20
34.2973868234127
 11
-20.803976212589696
 21
34.800457506262205
  0
LINE
  8
0
 10
-20.803976212589696
 20
34.800457506262205
 11
-21.50326939246737
 21
35.371667219291886
  0
LINE
  8
0
 10
-21.50326939246737
 20
35.371667219291886
 11
-22.372927410688966
 21
35.99183434532589
  0
LINE
  8
0
 10
-22.372927410688966
 20
35.99183434532589
 11
-23.1528676160787
 21
36.47434946940681
  0
LINE
  8
0
 10
-23.1528676160787
 20
36.47434946940681
 11
-24.05071567898173
 21
35.994439681393295
  0
LINE
  8
0
 10
-24.05071567898173
 20
35.994439681393295
 11
-24.837686088033344
 21
35.348589757674894
  0
LINE
  8
0
 10
-24.837686088033344
 20
35.348589757674894
 11
-24.690370435605974
 21
34.44336842148172
  0
LINE
  8
0
 10
-24.690370435605974
 20
34.44336842148172
 11
-24.45021443652384
 21
33.402581493732505
  0
LINE
  8
0
 10
-24.45021443652384
 20
33.402581493732505
 11
-24.19009338818901
 21
32.53792634403518
  0
LINE
  8
0
 10
-24.19009338818901
 20
32.53792634403518
 11
-23.931814250602866
 21
31.846880295021247
  0
LINE
  8
0
 10
-23.931814250602866
 20
31.846880295021247
 11
-23.696724639234105
 21
31.32483718496406
  0
LINE
  8
0
 10
-23.696724639234105
 20
31.32483718496406
 11
-23.418126856794338
 21
30.800722648710185
  0
LINE
  8
0
 10
-23.418126856794338
 20
30.800722648710185
 11
-23.29982739967321
 21
30.4434819089605
  0
LINE
  8
0
 10
-23.29982739967321
 20
30.4434819089605
 11
-23.320202908143294
 21
30.210466275333644
  0
LINE
  8
0
 10
-23.320202908143294
 20
30.210466275333644
 11
-25.080434742134308
 21
28.765881342235684
  0
LINE
  8
0
 10
-25.080434742134308
 20
28.765881342235684
 11
-25.31294811020801
 21
28.791356438446602
  0
LINE
  8
0
 10
-25.31294811020801
 20
28.791356438446602
 11
-25.640245490129505
 21
28.977077015627344
  0
LINE
  8
0
 10
-25.640245490129505
 20
28.977077015627344
 11
-26.099937581444497
 21
29.3525712934465
  0
LINE
  8
0
 10
-26.099937581444497
 20
29.3525712934465
 11
-26.56608607154024
 21
29.68498928230025
  0
LINE
  8
0
 10
-26.56608607154024
 20
29.68498928230025
 11
-27.1934661043722
 21
30.073122054910094
  0
LINE
  8
0
 10
-27.1934661043722
 20
30.073122054910094
 11
-27.99076004873629
 21
30.49693080182694
  0
LINE
  8
0
 10
-27.99076004873629
 20
30.49693080182694
 11
-28.96469643631447
 21
30.93551972761231
  0
LINE
  8
0
 10
-28.96469643631447
 20
30.93551972761231
 11
-29.823784340290025
 21
31.25660467306005
  0
LINE
  8
0
 10
-29.823784340290025
 20
31.25660467306005
 11
-30.61075474934164
 21
30.610754749341645
  0
LINE
  8
0
 10
-30.61075474934164
 20
30.610754749341645
 11
-31.256604673060014
 21
29.82378434028998
  0
LINE
  8
0
 10
-31.256604673060014
 20
29.82378434028998
 11
-30.935519727612455
 21
28.96469643631486
  0
LINE
  8
0
 10
-30.935519727612455
 20
28.96469643631486
 11
-30.496930801827393
 21
27.99076004873736
  0
LINE
  8
0
 10
-30.496930801827393
 20
27.99076004873736
 11
-30.07312205491018
 21
27.19346610437218
  0
LINE
  8
0
 10
-30.07312205491018
 20
27.19346610437218
 11
-29.684989282300347
 21
26.566086071540244
  0
LINE
  8
0
 10
-29.684989282300347
 20
26.566086071540244
 11
-29.352571293446793
 21
26.09993758144481
  0
LINE
  8
0
 10
-29.352571293446793
 20
26.09993758144481
 11
-28.977077015625785
 21
25.640245490130795
  0
LINE
  8
0
 10
-28.977077015625785
 20
25.640245490130795
 11
-28.79135643844664
 21
25.31294811020804
  0
LINE
  8
0
 10
-28.79135643844664
 20
25.31294811020804
 11
-28.76588134223578
 21
25.080434742134315
  0
LINE
  8
0
 10
-28.76588134223578
 20
25.080434742134315
 11
-30.210466275333623
 21
23.320202908143198
  0
LINE
  8
0
 10
-30.210466275333623
 20
23.320202908143198
 11
-30.443481908960468
 21
23.299827399673173
  0
LINE
  8
0
 10
-30.443481908960468
 20
23.299827399673173
 11
-30.800722648709222
 21
23.418126856796114
  0
LINE
  8
0
 10
-30.800722648709222
 20
23.418126856796114
 11
-31.324837184963695
 21
23.696724639233878
  0
LINE
  8
0
 10
-31.324837184963695
 20
23.696724639233878
 11
-31.846880295021222
 21
23.931814250602773
  0
LINE
  8
0
 10
-31.846880295021222
 20
23.931814250602773
 11
-32.53792634403517
 21
24.190093388188924
  0
LINE
  8
0
 10
-32.53792634403517
 20
24.190093388188924
 11
-33.40258149373137
 21
24.450214436523606
  0
LINE
  8
0
 10
-33.40258149373137
 20
24.450214436523606
 11
-34.44336842148132
 21
24.69037043560591
  0
LINE
  8
0
 10
-34.44336842148132
 20
24.69037043560591
 11
-35.3485897576749
 21
24.837686088033344
  0
LINE
  8
0
 10
-35.3485897576749
 20
24.837686088033344
 11
-35.99443968139332
 21
24.05071567898173
  0
LINE
  8
0
 10
-35.99443968139332
 20
24.05071567898173
 11
-36.47434946940683
 21
23.152867616078684
  0
LINE
  8
0
 10
-36.47434946940683
 20
23.152867616078684
 11
-35.99183434532612
 21
22.372927410689307
  0
LINE
  8
0
 10
-35.99183434532612
 20
22.372927410689307
 11
-35.37166721929255
 21
21.503269392468315
  0
LINE
  8
0
 10
-35.37166721929255
 20
21.503269392468315
 11
-34.80045750626229
 21
20.80397621258965
  0
LINE
  8
0
 10
-34.80045750626229
 20
20.80397621258965
 11
-34.29738682341281
 21
20.26437205876265
  0
LINE
  8
0
 10
-34.29738682341281
 20
20.26437205876265
 11
-33.88041509396395
 21
19.87203201368425
  0
LINE
  8
0
 10
-33.88041509396395
 20
19.87203201368425
 11
-33.42245435527874
 21
19.494428076581002
  0
LINE
  8
0
 10
-33.42245435527874
 20
19.494428076581002
 11
-33.17644979566927
 21
19.209651911245118
  0
LINE
  8
0
 10
-33.17644979566927
 20
19.209651911245118
 11
-33.106103088438246
 21
18.9865761670646
  0
LINE
  8
0
 10
-33.106103088438246
 20
18.9865761670646
 11
-34.179526531796526
 21
16.978342154411227
  0
LINE
  8
0
 10
-34.179526531796526
 20
16.978342154411227
 11
-34.40408977085291
 21
16.91289906062404
  0
LINE
  8
0
 10
-34.40408977085291
 20
16.91289906062404
 11
-34.777545309143306
 21
16.959231215895052
  0
LINE
  8
0
 10
-34.777545309143306
 20
16.959231215895052
 11
-35.345940862635814
 21
17.13022614641177
  0
LINE
  8
0
 10
-35.345940862635814
 20
17.13022614641177
 11
-35.90381676870077
 21
17.258953018370676
  0
LINE
  8
0
 10
-35.90381676870077
 20
17.258953018370676
 11
-36.63197232177619
 21
17.377452998520308
  0
LINE
  8
0
 10
-36.63197232177619
 20
17.377452998520308
 11
-37.53076046430585
 21
17.46389004226289
  0
LINE
  8
0
 10
-37.53076046430585
 20
17.46389004226289
 11
-38.59840107427418
 21
17.496384054278426
  0
LINE
  8
0
 10
-38.59840107427418
 20
17.496384054278426
 11
-39.5149686943899
 21
17.464269155778396
  0
LINE
  8
0
 10
-39.5149686943899
 20
17.464269155778396
 11
-39.99487848240342
 21
16.566421092875366
  0
LINE
  8
0
 10
-39.99487848240342
 20
16.566421092875366
 11
-40.29040547069515
 21
15.59219917365923
  0
LINE
  8
0
 10
-40.29040547069515
 20
15.59219917365923
 11
-39.665002953602134
 21
14.921379331553226
  0
LINE
  8
0
 10
-39.665002953602134
 20
14.921379331553226
 11
-38.88709030217979
 21
14.18942015261914
  0
LINE
  8
0
 10
-38.88709030217979
 20
14.18942015261914
 11
-38.19043089197015
 21
13.615001181961588
  0
LINE
  8
0
 10
-38.19043089197015
 20
13.615001181961588
 11
-37.59175502309762
 21
13.183909592157606
  0
LINE
  8
0
 10
-37.59175502309762
 20
13.183909592157606
 11
-37.10625354277573
 21
12.880455400001772
  0
LINE
  8
0
 10
-37.10625354277573
 20
12.880455400001772
 11
-36.58342551758666
 21
12.59945072464944
  0
LINE
  8
0
 10
-36.58342551758666
 20
12.59945072464944
 11
-36.28659079281173
 21
12.368139562229972
  0
LINE
  8
0
 10
-36.28659079281173
 20
12.368139562229972
 11
-36.174075859068545
 21
12.1630741176892
  0
LINE
  8
0
 10
-36.174075859068545
 20
12.1630741176892
 11
-36.835086751741805
 21
9.984013233249229
  0
LINE
  8
0
 10
-36.835086751741805
 20
9.984013233249229
 11
-37.0425677568873
 21
9.876017495538212
  0
LINE
  8
0
 10
-37.0425677568873
 20
9.876017495538212
 11
-37.41788640681911
 21
9.848601830213598
  0
LINE
  8
0
 10
-37.41788640681911
 20
9.848601830213598
 11
-38.00871985518884
 21
9.905422669524581
  0
LINE
  8
0
 10
-38.00871985518884
 20
9.905422669524581
 11
-38.58098969905155
 21
9.922839900574974
  0
LINE
  8
0
 10
-38.58098969905155
 20
9.922839900574974
 11
-39.318272146638094
 21
9.897006835506495
  0
LINE
  8
0
 10
-39.318272146638094
 20
9.897006835506495
 11
-40.21665335773001
 21
9.8064381475404
  0
LINE
  8
0
 10
-40.21665335773001
 20
9.8064381475404
 11
-41.27011882001538
 21
9.63002144583027
  0
LINE
  8
0
 10
-41.27011882001538
 20
9.63002144583027
 11
-42.162809544429194
 21
9.419710153941853
  0
LINE
  8
0
 10
-42.162809544429194
 20
9.419710153941853
 11
-42.458336532720985
 21
8.445488234725758
  0
LINE
  8
0
 10
-42.458336532720985
 20
8.445488234725758
 11
-42.558123784864435
 21
7.432331261202108
  0
LINE
  8
0
 10
-42.558123784864435
 20
7.432331261202108
 11
-41.813867742761154
 21
6.896411012711487
  0
LINE
  8
0
 10
-41.813867742761154
 20
6.896411012711487
 11
-40.90810431288576
 21
6.330279453823306
  0
LINE
  8
0
 10
-40.90810431288576
 20
6.330279453823306
 11
-40.11276743593999
 21
5.902809291291369
  0
LINE
  8
0
 10
-40.11276743593999
 20
5.902809291291369
 11
-39.4414931589439
 21
5.596796873547623
  0
LINE
  8
0
 10
-39.4414931589439
 20
5.596796873547623
 11
-38.90611947736539
 21
5.393890108739831
  0
LINE
  8
0
 10
-38.90611947736539
 20
5.393890108739831
 11
-38.33851615347513
 21
5.220283547222967
  0
LINE
  8
0
 10
-38.33851615347513
 20
5.220283547222967
 11
-38.002258455540996
 21
5.051326545970904
  0
LINE
  8
0
 10
-38.002258455540996
 20
5.051326545970904
 11
-37.85189918109029
 21
4.872151951101551
  0
LINE
  8
0
 10
-37.85189918109029
 20
4.872151951101551
 11
-38.075095245172285
 21
2.606004282632587
  0
LINE
  8
0
 10
-38.075095245172285
 20
2.606004282632587
 11
-38.257520637735844
 21
2.45960611663327
  0
LINE
  8
0
 10
-38.257520637735844
 20
2.45960611663327
 11
-38.620279114073305
 21
2.3594961993565726
  0
LINE
  8
0
 10
-38.620279114073305
 20
2.3594961993565726
 11
-39.21084505924263
 21
2.299959354472591
  0
LINE
  8
0
 10
-39.21084505924263
 20
2.299959354472591
 11
-39.775516831736084
 21
2.205397610192903
  0
LINE
  8
0
 10
-39.775516831736084
 20
2.205397610192903
 11
-40.493592822845756
 21
2.036224250109542
  0
LINE
  8
0
 10
-40.493592822845756
 20
2.036224250109542
 11
-41.35704281637565
 21
1.7721303343217998
  0
LINE
  8
0
 10
-41.35704281637565
 20
1.7721303343217998
 11
-42.35584904405267
 21
1.393582513797097
  0
LINE
  8
0
 10
-42.35584904405267
 20
1.393582513797097
 11
-43.19035726885212
 21
1.013156973523651
  0
LINE
  8
0
 10
-43.19035726885212
 20
1.013156973523651
 11
-43.29014452099556
 21
-1.7763568394002505e-15
  0
LINE
  8
0
 10
-43.29014452099556
 20
-1.7763568394002505e-15
 11
-43.190357268852104
 21
-1.0131569735236527
  0
LINE
  8
0
 10
-43.190357268852104
 20
-1.0131569735236527
 11
-42.35584904405305
 21
-1.393582513796919
  0
LINE
  8
0
 10
-42.35584904405305
 20
-1.393582513796919
 11
-41.357042816376726
 21
-1.7721303343213577
  0
LINE
  8
0
 10
-41.357042816376726
 20
-1.7721303343213577
 11
-40.493592822845805
 21
-2.0362242501096066
  0
LINE
  8
0
 10
-40.493592822845805
 20
-2.0362242501096066
 11
-39.775516831736155
 21
-2.2053976101929638
  0
LINE
  8
0
 10
-39.775516831736155
 20
-2.2053976101929638
 11
-39.210845059243056
 21
-2.2999593544725747
  0
LINE
  8
0
 10
-39.210845059243056
 20
-2.2999593544725747
 11
-38.620279114073114
 21
-2.3594961993545582
  0
LINE
  8
0
 10
-38.620279114073114
 20
-2.3594961993545582
 11
-38.25752063773589
 21
-2.4596061166332794
  0
LINE
  8
0
 10
-38.25752063773589
 20
-2.4596061166332794
 11
-38.075095245172356
 21
-2.6060042826326533
  0
LINE
  8
0
 10
-38.075095245172356
 20
-2.6060042826326533
 11
-37.85189918109021
 21
-4.8721519511016025
  0
LINE
  8
0
 10
-37.85189918109021
 20
-4.8721519511016025
 11
-38.00225845554095
 21
-5.051326545970905
  0
LINE
  8
0
 10
-38.00225845554095
 20
-5.051326545970905
 11
-38.33851615347571
 21
-5.2202835472210305
  0
LINE
  8
0
 10
-38.33851615347571
 20
-5.2202835472210305
 11
-38.90611947736497
 21
-5.393890108739733
  0
LINE
  8
0
 10
-38.90611947736497
 20
-5.393890108739733
 11
-39.44149315894382
 21
-5.596796873547671
  0
LINE
  8
0
 10
-39.44149315894382
 20
-5.596796873547671
 11
-40.11276743593993
 21
-5.9028092912914225
  0
LINE
  8
0
 10
-40.11276743593993
 20
-5.9028092912914225
 11
-40.90810431288479
 21
-6.330279453822662
  0
LINE
  8
0
 10
-40.90810431288479
 20
-6.330279453822662
 11
-41.81386774276081
 21
-6.896411012711238
  0
LINE
  8
0
 10
-41.81386774276081
 20
-6.896411012711238
 11
-42.55812378486441
 21
-7.432331261202108
  0
LINE
  8
0
 10
-42.55812378486441
 20
-7.432331261202108
 11
-42.45833653272096
 21
-8.445488234725742
  0
LINE
  8
0
 10
-42.45833653272096
 20
-8.445488234725742
 11
-42.16280954442918
 21
-9.419710153941852
  0
LINE
  8
0
 10
-42.16280954442918
 20
-9.419710153941852
 11
-41.27011882001579
 21
-9.630021445830169
  0
LINE
  8
0
 10
-41.27011882001579
 20
-9.630021445830169
 11
-40.21665335773116
 21
-9.806438147540176
  0
LINE
  8
0
 10
-40.21665335773116
 20
-9.806438147540176
 11
-39.31827214663814
 21
-9.897006835506568
  0
LINE
  8
0
 10
-39.31827214663814
 20
-9.897006835506568
 11
-38.580989699051614
 21
-9.922839900575047
  0
LINE
  8
0
 10
-38.580989699051614
 20
-9.922839900575047
 11
-38.00871985518927
 21
-9.905422669524649
  0
LINE
  8
0
 10
-38.00871985518927
 20
-9.905422669524649
 11
-37.41788640681931
 21
-9.848601830211587
  0
LINE
  8
0
 10
-37.41788640681931
 20
-9.848601830211587
 11
-37.04256775688735
 21
-9.876017495538232
  0
LINE
  8
0
 10
-37.04256775688735
 20
-9.876017495538232
 11
-36.83508675174187
 21
-9.984013233249305
  0
LINE
  8
0
 10
-36.83508675174187
 20
-9.984013233249305
 11
-36.17407585906845
 21
-12.163074117689233
  0
LINE
  8
0
 10
-36.17407585906845
 20
-12.163074117689233
 11
-36.28659079281169
 21
-12.368139562229965
  0
LINE
  8
0
 10
-36.28659079281169
 20
-12.368139562229965
 11
-36.583425517587614
 21
-12.599450724647653
  0
LINE
  8
0
 10
-36.583425517587614
 20
-12.599450724647653
 11
-37.10625354277535
 21
-12.880455400001592
  0
LINE
  8
0
 10
-37.10625354277535
 20
-12.880455400001592
 11
-37.59175502309754
 21
-13.183909592157638
  0
LINE
  8
0
 10
-37.59175502309754
 20
-13.183909592157638
 11
-38.19043089197008
 21
-13.61500118196163
  0
LINE
  8
0
 10
-38.19043089197008
 20
-13.61500118196163
 11
-38.88709030217897
 21
-14.189420152618318
  0
LINE
  8
0
 10
-38.88709030217897
 20
-14.189420152618318
 11
-39.66500295360186
 21
-14.921379331552917
  0
LINE
  8
0
 10
-39.66500295360186
 20
-14.921379331552917
 11
-40.290405470695205
 21
-15.592199173659246
  0
LINE
  8
0
 10
-40.290405470695205
 20
-15.592199173659246
 11
-39.99487848240342
 21
-16.566421092875363
  0
LINE
  8
0
 10
-39.99487848240342
 20
-16.566421092875363
 11
-39.51496869438986
 21
-17.464269155778393
  0
LINE
  8
0
 10
-39.51496869438986
 20
-17.464269155778393
 11
-38.59840107427459
 21
-17.496384054278426
  0
LINE
  8
0
 10
-38.59840107427459
 20
-17.496384054278426
 11
-37.53076046430702
 21
-17.463890042262914
  0
LINE
  8
0
 10
-37.53076046430702
 20
-17.463890042262914
 11
-36.6319723217762
 21
-17.377452998520408
  0
LINE
  8
0
 10
-36.6319723217762
 20
-17.377452998520408
 11
-35.90381676870081
 21
-17.25895301837078
  0
LINE
  8
0
 10
-35.90381676870081
 20
-17.25895301837078
 11
-35.34594086263621
 21
-17.13022614641194
  0
LINE
  8
0
 10
-35.34594086263621
 20
-17.13022614641194
 11
-34.777545309143896
 21
-16.959231215893137
  0
LINE
  8
0
 10
-34.777545309143896
 20
-16.959231215893137
 11
-34.40408977085295
 21
-16.912899060624085
  0
LINE
  8
0
 10
-34.40408977085295
 20
-16.912899060624085
 11
-34.17952653179657
 21
-16.978342154411333
  0
LINE
  8
0
 10
-34.17952653179657
 20
-16.978342154411333
 11
-33.106103088438154
 21
-18.986576167064634
  0
LINE
  8
0
 10
-33.106103088438154
 20
-18.986576167064634
 11
-33.17644979566923
 21
-19.209651911245118
  0
LINE
  8
0
 10
-33.17644979566923
 20
-19.209651911245118
 11
-33.42245435528001
 21
-19.494428076579453
  0
LINE
  8
0
 10
-33.42245435528001
 20
-19.494428076579453
 11
-33.880415093963585
 21
-19.872032013684017
  0
LINE
  8
0
 10
-33.880415093963585
 20
-19.872032013684017
 11
-34.29738682341271
 21
-20.26437205876268
  0
LINE
  8
0
 10
-34.29738682341271
 20
-20.26437205876268
 11
-34.80045750626221
 21
-20.803976212589696
  0
LINE
  8
0
 10
-34.80045750626221
 20
-20.803976212589696
 11
-35.37166721929189
 21
-21.50326939246737
  0
LINE
  8
0
 10
-35.37166721929189
 20
-21.50326939246737
 11
-35.9918343453259
 21
-22.372927410688966
  0
LINE
  8
0
 10
-35.9918343453259
 20
-22.372927410688966
 11
-36.47434946940684
 21
-23.152867616078716
  0
LINE
  8
0
 10
-36.47434946940684
 20
-23.152867616078716
 11
-35.994439681393324
 21
-24.05071567898175
  0
LINE
  8
0
 10
-35.994439681393324
 20
-24.05071567898175
 11
-35.34858975767489
 21
-24.837686088033344
  0
LINE
  8
0
 10
-35.34858975767489
 20
-24.837686088033344
 11
-34.443368421481736
 21
-24.690370435605974
  0
LINE
  8
0
 10
-34.443368421481736
 20
-24.690370435605974
 11
-33.40258149373251
 21
-24.45021443652384
  0
LINE
  8
0
 10
-33.40258149373251
 20
-24.45021443652384
 11
-32.53792634403518
 21
-24.190093388189005
  0
LINE
  8
0
 10
-32.53792634403518
 20
-24.190093388189005
 11
-31.84688029502125
 21
-23.931814250602866
  0
LINE
  8
0
 10
-31.84688029502125
 20
-23.931814250602866
 11
-31.324837184964064
 21
-23.696724639234105
  0
LINE
  8
0
 10
-31.324837184964064
 20
-23.696724639234105
 11
-30.800722648710188
 21
-23.418126856794338
  0
LINE
  8
0
 10
-30.800722648710188
 20
-23.418126856794338
 11
-30.443481908960504
 21
-23.299827399673205
  0
LINE
  8
0
 10
-30.443481908960504
 20
-23.299827399673205
 11
-30.21046627533365
 21
-23.320202908143294
  0
LINE
  8
0
 10
-30.21046627533365
 20
-23.320202908143294
 11
-28.765881342235687
 21
-25.080434742134308
  0
LINE
  8
0
 10
-28.765881342235687
 20
-25.080434742134308
 11
-28.791356438446606
 21
-25.31294811020801
  0
LINE
  8
0
 10
-28.791356438446606
 20
-25.31294811020801
 11
-28.977077015627348
 21
-25.640245490129505
  0
LINE
  8
0
 10
-28.977077015627348
 20
-25.640245490129505
 11
-29.352571293446502
 21
-26.099937581444497
  0
LINE
  8
0
 10
-29.352571293446502
 20
-26.099937581444497
 11
-29.684989282300258
 21
-26.56608607154024
  0
LINE
  8
0
 10
-29.684989282300258
 20
-26.56608607154024
 11
-30.073122054910097
 21
-27.1934661043722
  0
LINE
  8
0
 10
-30.073122054910097
 20
-27.1934661043722
 11
-30.49693080182695
 21
-27.99076004873629
  0
LINE
  8
0
 10
-30.49693080182695
 20
-27.99076004873629
 11
-30.935519727612316
 21
-28.96469643631447
  0
LINE
  8
0
 10
-30.935519727612316
 20
-28.96469643631447
 11
-31.25660467306002
 21
-29.823784340290004
  0
LINE
  8
0
 10
-31.25660467306002
 20
-29.823784340290004
 11
-30.61075474934161
 21
-30.61075474934162
  0
LINE
  8
0
 10
-30.61075474934161
 20
-30.61075474934162
 11
-29.82378434028998
 21
-31.256604673060014
  0
LINE
  8
0
 10
-29.82378434028998
 20
-31.256604673060014
 11
-28.96469643631486
 21
-30.935519727612448
  0
LINE
  8
0
 10
-28.96469643631486
 20
-30.935519727612448
 11
-27.99076004873736
 21
-30.496930801827393
  0
LINE
  8
0
 10
-27.99076004873736
 20
-30.496930801827393
 11
-27.19346610437218
 21
-30.073122054910172
  0
LINE
  8
0
 10
-27.19346610437218
 20
-30.073122054910172
 11
-26.566086071540244
 21
-29.68498928230034
  0
LINE
  8
0
 10
-26.566086071540244
 20
-29.68498928230034
 11
-26.099937581444806
 21
-29.352571293446786
  0
LINE
  8
0
 10
-26.099937581444806
 20
-29.352571293446786
 11
-25.640245490130795
 21
-28.97707701562578
  0
LINE
  8
0
 10
-25.640245490130795
 20
-28.97707701562578
 11
-25.31294811020804
 21
-28.791356438446638
  0
LINE
  8
0
 10
-25.31294811020804
 20
-28.791356438446638
 11
-25.080434742134315
 21
-28.765881342235772
  0
LINE
  8
0
 10
-25.080434742134315
 20
-28.765881342235772
 11
-23.320202908143198
 21
-30.21046627533362
  0
LINE
  8
0
 10
-23.320202908143198
 20
-30.21046627533362
 11
-23.299827399673173
 21
-30.443481908960464
  0
LINE
  8
0
 10
-23.299827399673173
 20
-30.443481908960464
 11
-23.418126856796114
 21
-30.800722648709222
  0
LINE
  8
0
 10
-23.418126856796114
 20
-30.800722648709222
 11
-23.696724639233878
 21
-31.324837184963688
  0
LINE
  8
0
 10
-23.696724639233878
 20
-31.324837184963688
 11
-23.931814250602773
 21
-31.846880295021222
  0
LINE
  8
0
 10
-23.931814250602773
 20
-31.846880295021222
 11
-24.190093388188924
 21
-32.537926344035164
  0
LINE
  8
0
 10
-24.190093388188924
 20
-32.537926344035164
 11
-24.450214436523606
 21
-33.40258149373136
  0
LINE
  8
0
 10
-24.450214436523606
 20
-33.40258149373136
 11
-24.69037043560591
 21
-34.44336842148131
  0
LINE
  8
0
 10
-24.69037043560591
 20
-34.44336842148131
 11
-24.837686088033344
 21
-35.3485897576749
  0
LINE
  8
0
 10
-24.837686088033344
 20
-35.3485897576749
 11
-24.05071567898173
 21
-35.99443968139332
  0
LINE
  8
0
 10
-24.05071567898173
 20
-35.99443968139332
 11
-23.1528676160787
 21
-36.47434946940686
  0
LINE
  8
0
 10
-23.1528676160787
 20
-36.47434946940686
 11
-22.37292741068931
 21
-35.99183434532612
  0
LINE
  8
0
 10
-22.37292741068931
 20
-35.99183434532612
 11
-21.50326939246832
 21
-35.37166721929255
  0
LINE
  8
0
 10
-21.50326939246832
 20
-35.37166721929255
 11
-20.803976212589653
 21
-34.80045750626229
  0
LINE
  8
0
 10
-20.803976212589653
 20
-34.80045750626229
 11
-20.264372058762653
 21
-34.29738682341281
  0
LINE
  8
0
 10
-20.264372058762653
 20
-34.29738682341281
 11
-19.872032013684255
 21
-33.88041509396395
  0
LINE
  8
0
 10
-19.872032013684255
 20
-33.88041509396395
 11
-19.494428076581002
 21
-33.42245435527874
  0
LINE
  8
0
 10
-19.494428076581002
 20
-33.42245435527874
 11
-19.20965191124512
 21
-33.17644979566927
  0
LINE
  8
0
 10
-19.20965191124512
 20
-33.17644979566927
 11
-18.9865761670646
 21
-33.106103088438246
  0
LINE
  8
0
 10
-18.9865761670646
 20
-33.106103088438246
 11
-16.97834215441123
 21
-34.179526531796526
  0
LINE
  8
0
 10
-16.97834215441123
 20
-34.179526531796526
 11
-16.912899060624042
 21
-34.40408977085291
  0
LINE
  8
0
 10
-16.912899060624042
 20
-34.40408977085291
 11
-16.959231215895052
 21
-34.777545309143306
  0
LINE
  8
0
 10
-16.959231215895052
 20
-34.777545309143306
 11
-17.130226146411776
 21
-35.345940862635814
  0
LINE
  8
0
 10
-17.130226146411776
 20
-35.345940862635814
 11
-17.258953018370676
 21
-35.90381676870077
  0
LINE
  8
0
 10
-17.258953018370676
 20
-35.90381676870077
 11
-17.37745299852031
 21
-36.63197232177619
  0
LINE
  8
0
 10
-17.37745299852031
 20
-36.63197232177619
 11
-17.463890042262893
 21
-37.53076046430585
  0
LINE
  8
0
 10
-17.463890042262893
 20
-37.53076046430585
 11
-17.496384054278433
 21
-38.59840107427418
  0
LINE
  8
0
 10
-17.496384054278433
 20
-38.59840107427418
 11
-17.464269155778403
 21
-39.51496869438991
  0
LINE
  8
0
 10
-17.464269155778403
 20
-39.51496869438991
 11
-16.566421092875387
 21
-39.994878482403415
  0
LINE
  8
0
 10
-16.566421092875387
 20
-39.994878482403415
 11
-15.592199173659257
 21
-40.29040547069516
  0
LINE
  8
0
 10
-15.592199173659257
 20
-40.29040547069516
 11
-14.921379331553245
 21
-39.66500295360213
  0
LINE
  8
0
 10
-14.921379331553245
 20
-39.66500295360213
 11
-14.189420152619158
 21
-38.887090302179786
  0
LINE
  8
0
 10
-14.189420152619158
 20
-38.887090302179786
 11
-13.615001181961608
 21
-38.190430891970145
  0
LINE
  8
0
 10
-13.615001181961608
 20
-38.190430891970145
 11
-13.183909592157626
 21
-37.59175502309761
  0
LINE
  8
0
 10
-13.183909592157626
 20
-37.59175502309761
 11
-12.880455400001791
 21
-37.10625354277573
  0
LINE
  8
0
 10
-12.880455400001791
 20
-37.10625354277573
 11
-12.599450724649458
 21
-36.583425517586655
  0
LINE
  8
0
 10
-12.599450724649458
 20
-36.583425517586655
 11
-12.36813956222999
 21
-36.28659079281172
  0
LINE
  8
0
 10
-12.36813956222999
 20
-36.28659079281172
 11
-12.163074117689218
 21
-36.17407585906853
  0
LINE
  8
0
 10
-12.163074117689218
 20
-36.17407585906853
 11
-9.984013233249248
 21
-36.8350867517418
  0
LINE
  8
0
 10
-9.984013233249248
 20
-36.8350867517418
 11
-9.876017495538232
 21
-37.0425677568873
  0
LINE
  8
0
 10
-9.876017495538232
 20
-37.0425677568873
 11
-9.848601830213617
 21
-37.4178864068191
  0
LINE
  8
0
 10
-9.848601830213617
 20
-37.4178864068191
 11
-9.9054226695246
 21
-38.008719855188836
  0
LINE
  8
0
 10
-9.9054226695246
 20
-38.008719855188836
 11
-9.922839900574994
 21
-38.58098969905155
  0
LINE
  8
0
 10
-9.922839900574994
 20
-38.58098969905155
 11
-9.897006835506515
 21
-39.318272146638094
  0
LINE
  8
0
 10
-9.897006835506515
 20
-39.318272146638094
 11
-9.80643814754042
 21
-40.21665335773001
  0
LINE
  8
0
 10
-9.80643814754042
 20
-40.21665335773001
 11
-9.630021445830291
 21
-41.27011882001537
  0
LINE
  8
0
 10
-9.630021445830291
 20
-41.27011882001537
 11
-9.419710153941871
 21
-42.16280954442918
  0
LINE
  8
0
 10
-9.419710153941871
 20
-42.16280954442918
 11
-8.445488234725756
 21
-42.45833653272097
  0
LINE
  8
0
 10
-8.445488234725756
 20
-42.45833653272097
 11
-7.43233126120211
 21
-42.558123784864435
  0
LINE
  8
0
 10
-7.43233126120211
 20
-42.558123784864435
 11
-6.896411012711489
 21
-41.813867742761154
  0
LINE
  8
0
 10
-6.896411012711489
 20
-41.813867742761154
 11
-6.330279453823308
 21
-40.90810431288576
  0
LINE
  8
0
 10
-6.330279453823308
 20
-40.90810431288576
 11
-5.902809291291371
 21
-40.11276743593999
  0
LINE
  8
0
 10
-5.902809291291371
 20
-40.11276743593999
 11
-5.596796873547626
 21
-39.4414931589439
  0
LINE
  8
0
 10
-5.596796873547626
 20
-39.4414931589439
 11
-5.393890108739834
 21
-38.90611947736539
  0
LINE
  8
0
 10
-5.393890108739834
 20
-38.90611947736539
 11
-5.220283547222969
 21
-38.33851615347513
  0
LINE
  8
0
 10
-5.220283547222969
 20
-38.33851615347513
 11
-5.051326545970906
 21
-38.002258455540996
  0
LINE
  8
0
 10
-5.051326545970906
 20
-38.002258455540996
 11
-4.872151951101554
 21
-37.85189918109029
  0
LINE
  8
0
 10
-4.872151951101554
 20
-37.85189918109029
 11
-2.6060042826325898
 21
-38.075095245172285
  0
LINE
  8
0
 10
-2.6060042826325898
 20
-38.075095245172285
 11
-2.4596061166332723
 21
-38.257520637735844
  0
LINE
  8
0
 10
-2.4596061166332723
 20
-38.257520637735844
 11
-2.359496199356575
 21
-38.620279114073305
  0
LINE
  8
0
 10
-2.359496199356575
 20
-38.620279114073305
 11
-2.2999593544725934
 21
-39.21084505924263
  0
LINE
  8
0
 10
-2.2999593544725934
 20
-39.21084505924263
 11
-2.205397610192905
 21
-39.775516831736084
  0
LINE
  8
0
 10
-2.205397610192905
 20
-39.775516831736084
 11
-2.036224250109545
 21
-40.493592822845756
  0
LINE
  8
0
 10
-2.036224250109545
 20
-40.493592822845756
 11
-1.7721303343218022
 21
-41.35704281637565
  0
LINE
  8
0
 10
-1.7721303343218022
 20
-41.35704281637565
 11
-1.3935825137970996
 21
-42.35584904405267
  0
LINE
  8
0
 10
-1.3935825137970996
 20
-42.35584904405267
 11
-1.0131569735236536
 21
-43.19035726885212
  0
LINE
  8
0
 10
-1.0131569735236536
 20
-43.19035726885212
 11
-1.7763568394002505e-15
 21
-43.29014452099556
  0
LINE
  8
0
 10
-1.7763568394002505e-15
 20
-43.29014452099556
 11
1.013156973523651
 21
-43.19035726885211
  0
LINE
  8
0
 10
1.013156973523651
 20
-43.19035726885211
 11
1.3935825137969173
 21
-42.35584904405305
  0
LINE
  8
0
 10
1.3935825137969173
 20
-42.35584904405305
 11
1.772130334321356
 21
-41.357042816376726
  0
LINE
  8
0
 10
1.772130334321356
 20
-41.357042816376726
 11
2.036224250109604
 21
-40.493592822845805
  0
LINE
  8
0
 10
2.036224250109604
 20
-40.493592822845805
 11
2.205397610192962
 21
-39.775516831736155
  0
LINE
  8
0
 10
2.205397610192962
 20
-39.775516831736155
 11
2.299959354472572
 21
-39.210845059243056
  0
LINE
  8
0
 10
2.299959354472572
 20
-39.210845059243056
 11
2.3594961993545565
 21
-38.620279114073114
  0
LINE
  8
0
 10
2.3594961993545565
 20
-38.620279114073114
 11
2.4596061166332777
 21
-38.25752063773589
  0
LINE
  8
0
 10
2.4596061166332777
 20
-38.25752063773589
 11
2.6060042826326515
 21
-38.075095245172356
  0
LINE
  8
0
 10
2.6060042826326515
 20
-38.075095245172356
 11
4.872151951101601
 21
-37.85189918109021
  0
LINE
  8
0
 10
4.872151951101601
 20
-37.85189918109021
 11
5.051326545970903
 21
-38.00225845554095
  0
LINE
  8
0
 10
5.051326545970903
 20
-38.00225845554095
 11
5.220283547221029
 21
-38.33851615347571
  0
LINE
  8
0
 10
5.220283547221029
 20
-38.33851615347571
 11
5.39389010873973
 21
-38.90611947736497
  0
LINE
  8
0
 10
5.39389010873973
 20
-38.90611947736497
 11
5.596796873547669
 21
-39.44149315894382
  0
LINE
  8
0
 10
5.596796873547669
 20
-39.44149315894382
 11
5.902809291291421
 21
-40.11276743593993
  0
LINE
  8
0
 10
5.902809291291421
 20
-40.11276743593993
 11
6.33027945382266
 21
-40.90810431288479
  0
LINE
  8
0
 10
6.33027945382266
 20
-40.90810431288479
 11
6.896411012711236
 21
-41.81386774276081
  0
LINE
  8
0
 10
6.896411012711236
 20
-41.81386774276081
 11
7.432331261202108
 21
-42.55812378486442
  0
LINE
  8
0
 10
7.432331261202108
 20
-42.55812378486442
 11
8.445488234725758
 21
-42.45833653272098
  0
LINE
  8
0
 10
8.445488234725758
 20
-42.45833653272098
 11
9.419710153941876
 21
-42.1628095444292
  0
LINE
  8
0
 10
9.419710153941876
 20
-42.1628095444292
 11
9.630021445830186
 21
-41.270118820015774
  0
LINE
  8
0
 10
9.630021445830186
 20
-41.270118820015774
 11
9.806438147540192
 21
-40.216653357731154
  0
LINE
  8
0
 10
9.806438147540192
 20
-40.216653357731154
 11
9.897006835506582
 21
-39.31827214663812
  0
LINE
  8
0
 10
9.897006835506582
 20
-39.31827214663812
 11
9.922839900575061
 21
-38.58098969905161
  0
LINE
  8
0
 10
9.922839900575061
 20
-38.58098969905161
 11
9.905422669524663
 21
-38.00871985518926
  0
LINE
  8
0
 10
9.905422669524663
 20
-38.00871985518926
 11
9.8486018302116
 21
-37.41788640681931
  0
LINE
  8
0
 10
9.8486018302116
 20
-37.41788640681931
 11
9.876017495538244
 21
-37.042567756887344
  0
LINE
  8
0
 10
9.876017495538244
 20
-37.042567756887344
 11
9.984013233249321
 21
-36.83508675174186
  0
LINE
  8
0
 10
9.984013233249321
 20
-36.83508675174186
 11
12.163074117689247
 21
-36.174075859068445
  0
LINE
  8
0
 10
12.163074117689247
 20
-36.174075859068445
 11
12.368139562229977
 21
-36.28659079281168
  0
LINE
  8
0
 10
12.368139562229977
 20
-36.28659079281168
 11
12.599450724647667
 21
-36.58342551758761
  0
LINE
  8
0
 10
12.599450724647667
 20
-36.58342551758761
 11
12.880455400001606
 21
-37.10625354277534
  0
LINE
  8
0
 10
12.880455400001606
 20
-37.10625354277534
 11
13.183909592157653
 21
-37.591755023097534
  0
LINE
  8
0
 10
13.183909592157653
 20
-37.591755023097534
 11
13.615001181961642
 21
-38.19043089197008
  0
LINE
  8
0
 10
13.615001181961642
 20
-38.19043089197008
 11
14.189420152618332
 21
-38.88709030217896
  0
LINE
  8
0
 10
14.189420152618332
 20
-38.88709030217896
 11
14.92137933155293
 21
-39.66500295360185
  0
LINE
  8
0
 10
14.92137933155293
 20
-39.66500295360185
 11
15.592199173659266
 21
-40.290405470695205
  0
LINE
  8
0
 10
15.592199173659266
 20
-40.290405470695205
 11
16.566421092875345
 21
-39.99487848240343
  0
LINE
  8
0
 10
16.566421092875345
 20
-39.99487848240343
 11
17.464269155778396
 21
-39.51496869438991
  0
LINE
  8
0
 10
17.464269155778396
 20
-39.51496869438991
 11
17.49638405427841
 21
-38.5984010742746
  0
LINE
  8
0
 10
17.49638405427841
 20
-38.5984010742746
 11
17.463890042262896
 21
-37.53076046430702
  0
LINE
  8
0
 10
17.463890042262896
 20
-37.53076046430702
 11
17.377452998520386
 21
-36.63197232177621
  0
LINE
  8
0
 10
17.377452998520386
 20
-36.63197232177621
 11
17.258953018370757
 21
-35.903816768700814
  0
LINE
  8
0
 10
17.258953018370757
 20
-35.903816768700814
 11
17.130226146411918
 21
-35.345940862636226
  0
LINE
  8
0
 10
17.130226146411918
 20
-35.345940862636226
 11
16.95923121589312
 21
-34.7775453091439
  0
LINE
  8
0
 10
16.95923121589312
 20
-34.7775453091439
 11
16.912899060624067
 21
-34.404089770852956
  0
LINE
  8
0
 10
16.912899060624067
 20
-34.404089770852956
 11
16.978342154411315
 21
-34.179526531796576
  0
LINE
  8
0
 10
16.978342154411315
 20
-34.179526531796576
 11
18.986576167064616
 21
-33.10610308843816
  0
LINE
  8
0
 10
18.986576167064616
 20
-33.10610308843816
 11
19.2096519112451
 21
-33.176449795669235
  0
LINE
  8
0
 10
19.2096519112451
 20
-33.176449795669235
 11
19.494428076579435
 21
-33.42245435528002
  0
LINE
  8
0
 10
19.494428076579435
 20
-33.42245435528002
 11
19.872032013684
 21
-33.8804150939636
  0
LINE
  8
0
 10
19.872032013684
 20
-33.8804150939636
 11
20.264372058762664
 21
-34.297386823412715
  0
LINE
  8
0
 10
20.264372058762664
 20
-34.297386823412715
 11
20.803976212589678
 21
-34.80045750626222
  0
LINE
  8
0
 10
20.803976212589678
 20
-34.80045750626222
 11
21.503269392467352
 21
-35.3716672192919
  0
LINE
  8
0
 10
21.503269392467352
 20
-35.3716672192919
 11
22.37292741068895
 21
-35.991834345325906
  0
LINE
  8
0
 10
22.37292741068895
 20
-35.991834345325906
 11
23.152867616078716
 21
-36.47434946940689
  0
LINE
  8
0
 10
23.152867616078716
 20
-36.47434946940689
 11
24.050715678981806
 21
-35.994439681393345
  0
LINE
  8
0
 10
24.050715678981806
 20
-35.994439681393345
 11
24.83768608803338
 21
-35.34858975767488
  0
LINE
  8
0
 10
24.83768608803338
 20
-35.34858975767488
 11
24.690370435606003
 21
-34.44336842148171
  0
LINE
  8
0
 10
24.690370435606003
 20
-34.44336842148171
 11
24.45021443652387
 21
-33.40258149373249
  0
LINE
  8
0
 10
24.45021443652387
 20
-33.40258149373249
 11
24.19009338818903
 21
-32.53792634403516
  0
LINE
  8
0
 10
24.19009338818903
 20
-32.53792634403516
 11
23.93181425060289
 21
-31.84688029502123
  0
LINE
  8
0
 10
23.93181425060289
 20
-31.84688029502123
 11
23.69672463923413
 21
-31.324837184964043
  0
LINE
  8
0
 10
23.69672463923413
 20
-31.324837184964043
 11
23.418126856794363
 21
-30.800722648710167
  0
LINE
  8
0
 10
23.418126856794363
 20
-30.800722648710167
 11
23.29982739967323
 21
-30.443481908960482
  0
LINE
  8
0
 10
23.29982739967323
 20
-30.443481908960482
 11
23.32020290814332
 21
-30.210466275333623
  0
LINE
  8
0
 10
23.32020290814332
 20
-30.210466275333623
 11
25.080434742134333
 21
-28.765881342235662
  0
LINE
  8
0
 10
25.080434742134333
 20
-28.765881342235662
 11
25.31294811020803
 21
-28.791356438446584
  0
LINE
  8
0
 10
25.31294811020803
 20
-28.791356438446584
 11
25.64024549012953
 21
-28.977077015627323
  0
LINE
  8
0
 10
25.64024549012953
 20
-28.977077015627323
 11
26.099937581444518
 21
-29.35257129344648
  0
LINE
  8
0
 10
26.099937581444518
 20
-29.35257129344648
 11
26.566086071540262
 21
-29.684989282300233
  0
LINE
  8
0
 10
26.566086071540262
 20
-29.684989282300233
 11
27.19346610437222
 21
-30.073122054910073
  0
LINE
  8
0
 10
27.19346610437222
 20
-30.073122054910073
 11
27.990760048736316
 21
-30.496930801826924
  0
LINE
  8
0
 10
27.990760048736316
 20
-30.496930801826924
 11
28.964696436314494
 21
-30.935519727612288
  0
LINE
  8
0
 10
28.964696436314494
 20
-30.935519727612288
 11
29.823784340290043
 21
-31.25660467306002
  0
LINE
  8
0
 10
29.823784340290043
 20
-31.25660467306002
 11
30.610754749341634
 21
-30.610754749341634
  0
LINE
  8
0
 10
30.610754749341634
 20
-30.610754749341634
 11
31.256604673060014
 21
-29.823784340289983
  0
LINE
  8
0
 10
31.256604673060014
 20
-29.823784340289983
 11
30.935519727612448
 21
-28.96469643631486
  0
LINE
  8
0
 10
30.935519727612448
 20
-28.96469643631486
 11
30.496930801827393
 21
-27.99076004873736
  0
LINE
  8
0
 10
30.496930801827393
 20
-27.99076004873736
 11
30.073122054910172
 21
-27.19346610437218
  0
LINE
  8
0
 10
30.073122054910172
 20
-27.19346610437218
 11
29.68498928230034
 21
-26.566086071540244
  0
LINE
  8
0
 10
29.68498928230034
 20
-26.566086071540244
 11
29.352571293446786
 21
-26.099937581444806
  0
LINE
  8
0
 10
29.352571293446786
 20
-26.099937581444806
 11
28.97707701562578
 21
-25.640245490130795
  0
LINE
  8
0
 10
28.97707701562578
 20
-25.640245490130795
 11
28.791356438446638
 21
-25.31294811020804
  0
LINE
  8
0
 10
28.791356438446638
 20
-25.31294811020804
 11
28.765881342235772
 21
-25.080434742134315
  0
LINE
  8
0
 10
28.765881342235772
 20
-25.080434742134315
 11
30.21046627533362
 21
-23.320202908143198
  0
LINE
  8
0
 10
30.21046627533362
 20
-23.320202908143198
 11
30.443481908960464
 21
-23.299827399673173
  0
LINE
  8
0
 10
30.443481908960464
 20
-23.299827399673173
 11
30.800722648709222
 21
-23.418126856796114
  0
LINE
  8
0
 10
30.800722648709222
 20
-23.418126856796114
 11
31.324837184963688
 21
-23.696724639233878
  0
LINE
  8
0
 10
31.324837184963688
 20
-23.696724639233878
 11
31.846880295021222
 21
-23.931814250602773
  0
LINE
  8
0
 10
31.846880295021222
 20
-23.931814250602773
 11
32.537926344035164
 21
-24.190093388188924
  0
LINE
  8
0
 10
32.537926344035164
 20
-24.190093388188924
 11
33.40258149373136
 21
-24.450214436523606
  0
LINE
  8
0
 10
33.40258149373136
 20
-24.450214436523606
 11
34.44336842148131
 21
-24.69037043560591
  0
LINE
  8
0
 10
34.44336842148131
 20
-24.69037043560591
 11
35.34858975767489
 21
-24.837686088033333
  0
LINE
  8
0
 10
35.34858975767489
 20
-24.837686088033333
 11
35.994439681393295
 21
-24.050715678981724
  0
LINE
  8
0
 10
35.994439681393295
 20
-24.050715678981724
 11
36.47434946940687
 21
-23.152867616078705
  0
LINE
  8
0
 10
36.47434946940687
 20
-23.152867616078705
 11
35.99183434532612
 21
-22.37292741068931
  0
LINE
  8
0
 10
35.99183434532612
 20
-22.37292741068931
 11
35.37166721929255
 21
-21.503269392468322
  0
LINE
  8
0
 10
35.37166721929255
 20
-21.503269392468322
 11
34.80045750626229
 21
-20.803976212589653
  0
LINE
  8
0
 10
34.80045750626229
 20
-20.803976212589653
 11
34.29738682341281
 21
-20.264372058762657
  0
LINE
  8
0
 10
34.29738682341281
 20
-20.264372058762657
 11
33.88041509396395
 21
-19.872032013684255
  0
LINE
  8
0
 10
33.88041509396395
 20
-19.872032013684255
 11
33.42245435527874
 21
-19.494428076581006
  0
LINE
  8
0
 10
33.42245435527874
 20
-19.494428076581006
 11
33.17644979566927
 21
-19.20965191124512
  0
LINE
  8
0
 10
33.17644979566927
 20
-19.20965191124512
 11
33.106103088438246
 21
-18.986576167064605
  0
LINE
  8
0
 10
33.106103088438246
 20
-18.986576167064605
 11
34.179526531796526
 21
-16.978342154411234
  0
LINE
  8
0
 10
34.179526531796526
 20
-16.978342154411234
 11
34.40408977085291
 21
-16.912899060624046
  0
LINE
  8
0
 10
34.40408977085291
 20
-16.912899060624046
 11
34.777545309143306
 21
-16.959231215895056
  0
LINE
  8
0
 10
34.777545309143306
 20
-16.959231215895056
 11
35.345940862635814
 21
-17.130226146411776
  0
LINE
  8
0
 10
35.345940862635814
 20
-17.130226146411776
 11
35.90381676870077
 21
-17.25895301837068
  0
LINE
  8
0
 10
35.90381676870077
 20
-17.25895301837068
 11
36.63197232177619
 21
-17.377452998520315
  0
LINE
  8
0
 10
36.63197232177619
 20
-17.377452998520315
 11
37.53076046430585
 21
-17.463890042262893
  0
LINE
  8
0
 10
37.53076046430585
 20
-17.463890042262893
 11
38.59840107427418
 21
-17.496384054278433
  0
LINE
  8
0
 10
38.59840107427418
 20
-17.496384054278433
 11
39.51496869438989
 21
-17.464269155778393
  0
LINE
  8
0
 10
39.51496869438989
 20
-17.464269155778393
 11
39.9948784824034
 21
-16.566421092875373
  0
LINE
  8
0
 10
39.9948784824034
 20
-16.566421092875373
 11
40.290405470695184
 21
-15.592199173659264
  0
LINE
  8
0
 10
40.290405470695184
 20
-15.592199173659264
 11
39.66500295360213
 21
-14.921379331553249
  0
LINE
  8
0
 10
39.66500295360213
 20
-14.921379331553249
 11
38.887090302179786
 21
-14.189420152619162
  0
LINE
  8
0
 10
38.887090302179786
 20
-14.189420152619162
 11
38.190430891970145
 21
-13.61500118196161
  0
LINE
  8
0
 10
38.190430891970145
 20
-13.61500118196161
 11
37.59175502309761
 21
-13.183909592157628
  0
LINE
  8
0
 10
37.59175502309761
 20
-13.183909592157628
 11
37.10625354277573
 21
-12.880455400001795
  0
LINE
  8
0
 10
37.10625354277573
 20
-12.880455400001795
 11
36.583425517586655
 21
-12.59945072464946
  0
LINE
  8
0
 10
36.583425517586655
 20
-12.59945072464946
 11
36.28659079281172
 21
-12.368139562229993
  0
LINE
  8
0
 10
36.28659079281172
 20
-12.368139562229993
 11
36.17407585906853
 21
-12.16307411768922
  0
LINE
  8
0
 10
36.17407585906853
 20
-12.16307411768922
 11
36.8350867517418
 21
-9.98401323324925
  0
LINE
  8
0
 10
36.8350867517418
 20
-9.98401323324925
 11
37.0425677568873
 21
-9.876017495538234
  0
LINE
  8
0
 10
37.0425677568873
 20
-9.876017495538234
 11
37.4178864068191
 21
-9.84860183021362
  0
LINE
  8
0
 10
37.4178864068191
 20
-9.84860183021362
 11
38.008719855188836
 21
-9.905422669524603
  0
LINE
  8
0
 10
38.008719855188836
 20
-9.905422669524603
 11
38.58098969905155
 21
-9.922839900574997
  0
LINE
  8
0
 10
38.58098969905155
 20
-9.922839900574997
 11
39.318272146638094
 21
-9.897006835506518
  0
LINE
  8
0
 10
39.318272146638094
 20
-9.897006835506518
 11
40.21665335773001
 21
-9.80643814754042
  0
LINE
  8
0
 10
40.21665335773001
 20
-9.80643814754042
 11
41.27011882001537
 21
-9.630021445830293
  0
LINE
  8
0
 10
41.27011882001537
 20
-9.630021445830293
 11
42.16280954442918
 21
-9.419710153941875
  0
LINE
  8
0
 10
0.3118675362266391
 20
-1.4672214011007085
 11
9.18454765366783e-17
 21
-1.5
  0
LINE
  8
0
 10
9.18454765366783e-17
 20
-1.5
 11
-0.3118675362266384
 21
-1.4672214011007085
  0
LINE
  8
0
 10
-0.3118675362266384
 20
-1.4672214011007085
 11
-0.6101049646137001
 21
-1.3703181864639014
  0
LINE
  8
0
 10
-0.6101049646137001
 20
-1.3703181864639014
 11
-0.8816778784387099
 21
-1.213525491562421
  0
LINE
  8
0
 10
-0.8816778784387099
 20
-1.213525491562421
 11
-1.114717238216091
 21
-1.0036959095382878
  0
LINE
  8
0
 10
-1.114717238216091
 20
-1.0036959095382878
 11
-1.299038105676658
 21
-0.7500000000000003
  0
LINE
  8
0
 10
-1.299038105676658
 20
-0.7500000000000003
 11
-1.4265847744427305
 21
-0.46352549156242095
  0
LINE
  8
0
 10
-1.4265847744427305
 20
-0.46352549156242095
 11
-1.49178284305241
 21
-0.15679269490147957
  0
LINE
  8
0
 10
-1.49178284305241
 20
-0.15679269490147957
 11
-1.4917828430524098
 21
0.15679269490148126
  0
LINE
  8
0
 10
-1.4917828430524098
 20
0.15679269490148126
 11
-1.4265847744427302
 21
0.46352549156242123
  0
LINE
  8
0
 10
-1.4265847744427302
 20
0.46352549156242123
 11
-1.2990381056766576
 21
0.7500000000000006
  0
LINE
  8
0
 10
-1.2990381056766576
 20
0.7500000000000006
 11
-1.114717238216091
 21
1.0036959095382878
  0
LINE
  8
0
 10
-1.114717238216091
 20
1.0036959095382878
 11
-0.8816778784387097
 21
1.2135254915624214
  0
LINE
  8
0
 10
-0.8816778784387097
 20
1.2135254915624214
 11
-0.6101049646137005
 21
1.3703181864639014
  0
LINE
  8
0
 10
-0.6101049646137005
 20
1.3703181864639014
 11
-0.3118675362266387
 21
1.4672214011007085
  0
LINE
  8
0
 10
-0.3118675362266387
 20
1.4672214011007085
 11
7.579792913117722e-16
 21
1.5
  0
LINE
  8
0
 10
7.579792913117722e-16
 20
1.5
 11
0.3118675362266389
 21
1.4672214011007085
  0
LINE
  8
0
 10
0.3118675362266389
 20
1.4672214011007085
 11
0.6101049646136999
 21
1.3703181864639014
  0
LINE
  8
0
 10
0.6101049646136999
 20
1.3703181864639014
 11
0.8816778784387097
 21
1.213525491562421
  0
LINE
  8
0
 10
0.8816778784387097
 20
1.213525491562421
 11
1.1147172382160917
 21
1.003695909538287
  0
LINE
  8
0
 10
1.1147172382160917
 20
1.003695909538287
 11
1.299038105676658
 21
0.7499999999999998
  0
LINE
  8
0
 10
1.299038105676658
 20
0.7499999999999998
 11
1.4265847744427305
 21
0.4635254915624211
  0
LINE
  8
0
 10
1.4265847744427305
 20
0.4635254915624211
 11
1.49178284305241
 21
0.1567926949014801
  0
LINE
  8
0
 10
1.49178284305241
 20
0.1567926949014801
 11
1.4917828430524098
 21
-0.1567926949014801
  0
LINE
  8
0
 10
1.4917828430524098
 20
-0.1567926949014801
 11
1.4265847744427302
 21
-0.46352549156242107
  0
LINE
  8
0
 10
1.4265847744427302
 20
-0.46352549156242107
 11
1.299038105676658
 21
-0.7500000000000001
  0
LINE
  8
0
 10
1.299038105676658
 20
-0.7500000000000001
 11
1.1147172382160913
 21
-1.0036959095382874
  0
LINE
  8
0
 10
1.1147172382160913
 20
-1.0036959095382874
 11
0.8816778784387098
 21
-1.2135254915624212
  0
LINE
  8
0
 10
0.8816778784387098
 20
-1.2135254915624212
 11
0.6101049646137003
 21
-1.3703181864639014
  0
LINE
  8
0
 10
0.6101049646137003
 20
-1.3703181864639014
 11
0.3118675362266391
 21
-1.4672214011007085
  0
ENDSEC
  0
SECTION
  2
OBJECTS
  0
DICTIONARY
  0
ENDSEC
  0
EOF
