0
SECTION
2
HEADER
9
$ACADVER
1
AC1009
9
$INSBASE
10
0.0
20
0.0
30
0.0
9
$EXTMIN
10
0.0
20
0.0
9
$EXTMAX
10
0.0
20
0.0
0
ENDSEC
0
SECTION
2
TABLES
0
TABLE
2
LTYPE
70
1
0
LTYPE
2
CONTINUOUS
70
64
3
Solid line
72
65
73
0
40
0.0
0
ENDTAB
0
TABLE
2
LAYER
70
0
0
ENDTAB
0
TABLE
2
STYLE
70
1
0
STYLE
2
STANDARD
70
0
40
0
41
40
50
50
71
0
42
1
3
ARIAL.TTF
4

0
ENDTAB
0
TABLE
2
VIEW
70
0
0
ENDTAB
0
ENDSEC
0
SECTION
2
BLOCKS
0
ENDSEC
0
SECTION
2
ENTITIES
0
LINE
8
0
10
87.8323269357
20
35.1006552803
11
88.1196632736
21
36.0792329794
0
LINE
8
0
10
88.1196632736
20
36.0792329794
11
88.2166100222
21
37.0945052641
0
LINE
8
0
10
88.2166100222
20
37.0945052641
11
87.4609214617
21
37.6284813295
0
LINE
8
0
10
87.4609214617
20
37.6284813295
11
86.5565559758
21
38.1850463987
0
LINE
8
0
10
86.5565559758
20
38.1850463987
11
85.7601875204
21
38.6079951735
0
LINE
8
0
10
85.7601875204
20
38.6079951735
11
85.0845538
21
38.9135704865
0
LINE
8
0
10
85.0845538
20
38.9135704865
11
84.5407489749
21
39.1190561549
0
LINE
8
0
10
84.5407489749
20
39.1190561549
11
83.9675166691
21
39.2950062125
0
LINE
8
0
10
83.9675166691
20
39.2950062125
11
83.6414451244
21
39.4588730236
0
LINE
8
0
10
83.6414451244
20
39.4588730236
11
83.4952981021
21
39.6323583336
0
LINE
8
0
10
83.4952981021
20
39.6323583336
11
83.7117514148
21
41.8991599795
0
LINE
8
0
10
83.7117514148
20
41.8991599795
11
83.8880896809
21
42.0418516782
0
LINE
8
0
10
83.8880896809
20
42.0418516782
11
84.2392806859
21
42.1410477569
0
LINE
8
0
10
84.2392806859
20
42.1410477569
11
84.8354527045
21
42.2053332405
0
LINE
8
0
10
84.8354527045
20
42.2053332405
11
85.4083186864
21
42.3041897754
0
LINE
8
0
10
85.4083186864
20
42.3041897754
11
86.1295733335
21
42.476378422
0
LINE
8
0
10
86.1295733335
20
42.476378422
11
86.9915939554
21
42.7409702403
0
LINE
8
0
10
86.9915939554
20
42.7409702403
11
87.9849470108
21
43.1163251602
0
LINE
8
0
10
87.9849470108
20
43.1163251602
11
88.8280349294
21
43.497636582
0
LINE
8
0
10
88.8280349294
20
43.497636582
11
88.924981678
21
44.5129088667
0
LINE
8
0
10
88.924981678
20
44.5129088667
11
88.8280349294
21
45.5281811514
0
LINE
8
0
10
88.8280349294
20
45.5281811514
11
87.9849470108
21
45.9094925733
0
LINE
8
0
10
87.9849470108
20
45.9094925733
11
86.9915939554
21
46.2848474931
0
LINE
8
0
10
86.9915939554
20
46.2848474931
11
86.1295733335
21
46.5494393114
0
LINE
8
0
10
86.1295733335
20
46.5494393114
11
85.4083186864
21
46.7216279581
0
LINE
8
0
10
85.4083186864
20
46.7216279581
11
84.8354527045
21
46.8204844929
0
LINE
8
0
10
84.8354527045
20
46.8204844929
11
84.2392806859
21
46.8847699766
0
LINE
8
0
10
84.2392806859
20
46.8847699766
11
83.8880896809
21
46.9839660553
0
LINE
8
0
10
83.8880896809
20
46.9839660553
11
83.7117514148
21
47.126657754
0
LINE
8
0
10
83.7117514148
20
47.126657754
11
83.4952981021
21
49.3934593998
0
LINE
8
0
10
83.4952981021
20
49.3934593998
11
83.6414451244
21
49.5669447099
0
LINE
8
0
10
83.6414451244
20
49.5669447099
11
83.9675166691
21
49.7308115209
0
LINE
8
0
10
83.9675166691
20
49.7308115209
11
84.5407489749
21
49.9067615785
0
LINE
8
0
10
84.5407489749
20
49.9067615785
11
85.0845538
21
50.1122472469
0
LINE
8
0
10
85.0845538
20
50.1122472469
11
85.7601875204
21
50.4178225599
0
LINE
8
0
10
85.7601875204
20
50.4178225599
11
86.5565559758
21
50.8407713347
0
LINE
8
0
10
86.5565559758
20
50.8407713347
11
87.4609214617
21
51.397336404
0
LINE
8
0
10
87.4609214617
20
51.397336404
11
88.2166100222
21
51.9313124694
0
LINE
8
0
10
88.2166100222
20
51.9313124694
11
88.1196632736
21
52.9465847541
0
LINE
8
0
10
88.1196632736
20
52.9465847541
11
87.8323269357
21
53.9251624531
0
LINE
8
0
10
87.8323269357
20
53.9251624531
11
86.9323110531
21
54.1400276432
0
LINE
8
0
10
86.9323110531
20
54.1400276432
11
85.8858727958
21
54.3206061088
0
LINE
8
0
10
85.8858727958
20
54.3206061088
11
84.9893556787
21
54.4172779329
0
LINE
8
0
10
84.9893556787
20
54.4172779329
11
84.248548127
21
54.4498565669
0
LINE
8
0
10
84.248548127
20
54.4498565669
11
83.6673258575
21
54.4385110354
0
LINE
8
0
10
83.6673258575
20
54.4385110354
11
83.0697613361
21
54.3888085003
0
LINE
8
0
10
83.0697613361
20
54.3888085003
11
82.7061438287
21
54.4197486419
0
LINE
8
0
10
82.7061438287
20
54.4197486419
11
82.5059876434
21
54.5264894794
0
LINE
8
0
10
82.5059876434
20
54.5264894794
11
81.8644508917
21
56.7113630077
0
LINE
8
0
10
81.8644508917
20
56.7113630077
11
81.9751245361
21
56.9093717181
0
LINE
8
0
10
81.9751245361
20
56.9093717181
11
82.2642915454
21
57.1319866879
0
LINE
8
0
10
82.2642915454
20
57.1319866879
11
82.7938660293
21
57.413242026
0
LINE
8
0
10
82.7938660293
20
57.413242026
11
83.2889551743
21
57.7179300405
0
LINE
8
0
10
83.2889551743
20
57.7179300405
11
83.894548805
21
58.1458477318
0
LINE
8
0
10
83.894548805
20
58.1458477318
11
84.596482263
21
58.7118669924
0
LINE
8
0
10
84.596482263
20
58.7118669924
11
85.3791740545
21
59.4295264994
0
LINE
8
0
10
85.3791740545
20
59.4295264994
11
86.0201507034
21
60.0968679221
0
LINE
8
0
10
86.0201507034
20
60.0968679221
11
85.7328143656
21
61.0754456211
0
LINE
8
0
10
85.7328143656
20
61.0754456211
11
85.2654735224
21
61.9819603868
0
LINE
8
0
10
85.2654735224
20
61.9819603868
11
84.3410585947
21
62.0226135572
0
LINE
8
0
10
84.3410585947
20
62.0226135572
11
83.2793561407
21
62.0018889924
0
LINE
8
0
10
83.2793561407
20
62.0018889924
11
82.3807449928
21
61.9271468507
0
LINE
8
0
10
82.3807449928
20
61.9271468507
11
81.6471592516
21
61.8189379954
0
LINE
8
0
10
81.6471592516
20
61.8189379954
11
81.0785875816
21
61.6978004547
0
LINE
8
0
10
81.0785875816
20
61.6978004547
11
80.5012280962
21
61.5359062799
0
LINE
8
0
10
80.5012280962
20
61.5359062799
11
80.1383261706
21
61.4974722271
0
LINE
8
0
10
80.1383261706
20
61.4974722271
11
79.9215862319
21
61.5644043115
0
LINE
8
0
10
79.9215862319
20
61.5644043115
11
78.8781528511
21
63.5883827002
0
LINE
8
0
10
78.8781528511
20
63.5883827002
11
78.9493530838
21
63.8037582601
0
LINE
8
0
10
78.9493530838
20
63.8037582601
11
79.1911643084
21
64.0770755038
0
LINE
8
0
10
79.1911643084
20
64.0770755038
11
79.6579407688
21
64.4534708216
0
LINE
8
0
10
79.6579407688
20
64.4534708216
11
80.0864204221
21
64.8463489635
0
LINE
8
0
10
80.0864204221
20
64.8463489635
11
80.6000862314
21
65.3811429728
0
LINE
8
0
10
80.6000862314
20
65.3811429728
11
81.182214988
21
66.0697753084
0
LINE
8
0
10
81.182214988
20
66.0697753084
11
81.8149445645
21
66.9225911686
0
LINE
8
0
10
81.8149445645
20
66.9225911686
11
82.3180427356
21
67.6991784909
0
LINE
8
0
10
82.3180427356
20
67.6991784909
11
81.8507018925
21
68.6056932566
0
LINE
8
0
10
81.8507018925
20
68.6056932566
11
81.2202474598
21
69.4073812834
0
LINE
8
0
10
81.2202474598
20
69.4073812834
11
80.3048442509
21
69.2723531227
0
LINE
8
0
10
80.3048442509
20
69.2723531227
11
79.2662502931
21
69.0510745672
0
LINE
8
0
10
79.2662502931
20
69.0510745672
11
78.3980232626
21
68.8076198354
0
LINE
8
0
10
78.3980232626
20
68.8076198354
11
77.698173032
21
68.5625344408
0
LINE
8
0
10
77.698173032
20
68.5625344408
11
77.162801623
21
68.3359831172
0
LINE
8
0
10
77.162801623
20
68.3359831172
11
76.6265144497
21
68.0677485799
0
LINE
8
0
10
76.6265144497
20
68.0677485799
11
76.277444327
21
67.9613294395
0
LINE
8
0
10
76.277444327
20
67.9613294395
11
76.0519541811
21
67.9860336709
0
LINE
8
0
10
76.0519541811
20
67.9860336709
11
74.6443365722
21
69.7759650677
0
LINE
8
0
10
74.6443365722
20
69.7759650677
11
74.6734900312
21
70.0009232433
0
LINE
8
0
10
74.6734900312
20
70.0009232433
11
74.8592057835
21
70.3150643635
0
LINE
8
0
10
74.8592057835
20
70.3150643635
11
75.2463137029
21
70.7729957535
0
LINE
8
0
10
75.2463137029
20
70.7729957535
11
75.5926974934
21
71.2398643831
0
LINE
8
0
10
75.5926974934
20
71.2398643831
11
75.9958702606
21
71.8622058616
0
LINE
8
0
10
75.9958702606
20
71.8622058616
11
76.4371546658
21
72.6485623053
0
LINE
8
0
10
76.4371546658
20
72.6485623053
11
76.8970535318
21
73.6057115317
0
LINE
8
0
10
76.8970535318
20
73.6057115317
11
77.2440899465
21
74.4634768643
0
LINE
8
0
10
77.2440899465
20
74.4634768643
11
76.6136355138
21
75.2651648911
0
LINE
8
0
10
76.6136355138
20
75.2651648911
11
75.8428537573
21
75.933051085
0
LINE
8
0
10
75.8428537573
20
75.933051085
11
74.9695473245
21
75.6272218627
0
LINE
8
0
10
74.9695473245
20
75.6272218627
11
73.9915993544
21
75.2133869
0
LINE
8
0
10
73.9915993544
20
75.2133869
11
73.1851364284
21
74.8100186665
0
LINE
8
0
10
73.1851364284
20
74.8100186665
11
72.544316119
21
74.4369147572
0
LINE
8
0
10
72.544316119
20
74.4369147572
11
72.0614946888
21
74.1131378058
0
LINE
8
0
10
72.0614946888
20
74.1131378058
11
71.5856626433
21
73.7482576012
0
LINE
8
0
10
71.5856626433
20
73.7482576012
11
71.2630406272
21
73.5776996382
0
LINE
8
0
10
71.2630406272
20
73.5776996382
11
71.0369500755
21
73.5592831412
0
LINE
8
0
10
71.0369500755
20
73.5592831412
11
69.3160232064
21
75.0504747619
0
LINE
8
0
10
69.3160232064
20
75.0504747619
11
69.3020762097
21
75.2768849785
0
LINE
8
0
10
69.3020762097
20
75.2768849785
11
69.4249842385
21
75.6204960967
0
LINE
8
0
10
69.4249842385
20
75.6204960967
11
69.7184325281
21
76.1434127253
0
LINE
8
0
10
69.7184325281
20
76.1434127253
11
69.9702012432
21
76.667397994
0
LINE
8
0
10
69.9702012432
20
76.667397994
11
70.248309254
21
77.3547938991
0
LINE
8
0
10
70.248309254
20
77.3547938991
11
70.5328001397
21
78.2104534803
0
LINE
8
0
10
70.5328001397
20
78.2104534803
11
70.8032463519
21
79.2373422059
0
LINE
8
0
10
70.8032463519
20
79.2373422059
11
70.9816782099
21
80.1452836748
0
LINE
8
0
10
70.9816782099
20
80.1452836748
11
70.2108964535
21
80.8131698687
0
LINE
8
0
10
70.2108964535
20
80.8131698687
11
69.3276454342
21
81.3231150824
0
LINE
8
0
10
69.3276454342
20
81.3231150824
11
68.5279993471
21
80.8575382634
0
LINE
8
0
10
68.5279993471
20
80.8575382634
11
67.6460429525
21
80.2661039674
0
LINE
8
0
10
67.6460429525
20
80.2661039674
11
66.9304918023
21
79.7174010111
0
LINE
8
0
10
66.9304918023
20
79.7174010111
11
66.3718623299
21
79.2297635345
0
LINE
8
0
10
66.3718623299
20
79.2297635345
11
65.9590413029
21
78.8204630979
0
LINE
8
0
10
65.9590413029
20
78.8204630979
11
65.5608621951
21
78.3721249473
0
LINE
8
0
10
65.5608621951
20
78.3721249473
11
65.2763486858
21
78.1435925709
0
LINE
8
0
10
65.2763486858
20
78.1435925709
11
65.0578292299
21
78.0827209657
0
LINE
8
0
10
65.0578292299
20
78.0827209657
11
63.0857918814
21
79.2212772597
0
LINE
8
0
10
63.0857918814
20
79.2212772597
11
63.0292485099
21
79.4409564623
0
LINE
8
0
10
63.0292485099
20
79.4409564623
11
63.0849065989
21
79.8016185773
0
LINE
8
0
10
63.0849065989
20
79.8016185773
11
63.2740892729
21
80.3706208752
0
LINE
8
0
10
63.2740892729
20
80.3706208752
11
63.4221433352
21
80.9327845901
0
LINE
8
0
10
63.4221433352
20
80.9327845901
11
63.5651350416
21
81.6603906428
0
LINE
8
0
10
63.5651350416
20
81.6603906428
11
63.6825501658
21
82.5544275948
0
LINE
8
0
10
63.6825501658
20
82.5544275948
11
63.7537690935
21
83.6139413855
0
LINE
8
0
10
63.7537690935
20
83.6139413855
11
63.7571474026
21
84.5392436204
0
LINE
8
0
10
63.7571474026
20
84.5392436204
11
62.8738963833
21
85.0491888342
0
LINE
8
0
10
62.8738963833
20
85.0491888342
11
61.9100990944
21
85.3827623191
0
LINE
8
0
10
61.9100990944
20
85.3827623191
11
61.2130146462
21
84.7742650628
0
LINE
8
0
10
61.2130146462
20
84.7742650628
11
60.4589260291
21
84.0266074098
0
LINE
8
0
10
60.4589260291
20
84.0266074098
11
59.8601485376
21
83.3524012851
0
LINE
8
0
10
59.8601485376
20
83.3524012851
11
59.4039002267
21
82.7678547302
0
LINE
8
0
10
59.4039002267
20
82.7678547302
11
59.0760000304
21
82.2878239927
0
LINE
8
0
10
59.0760000304
20
82.2878239927
11
58.7698650907
21
81.7722320049
0
LINE
8
0
10
58.7698650907
20
81.7722320049
11
58.5337431478
21
81.4939849705
0
LINE
8
0
10
58.5337431478
20
81.4939849705
11
58.3306926501
21
81.3928583156
0
LINE
8
0
10
58.3306926501
20
81.3928583156
11
56.1788193902
21
82.137628892
0
LINE
8
0
10
56.1788193902
20
82.137628892
11
56.0817232686
21
82.3426373019
0
LINE
8
0
10
56.0817232686
20
82.3426373019
11
56.0681197893
21
82.7073151452
0
LINE
8
0
10
56.0681197893
20
82.7073151452
11
56.1461992931
21
83.3018378868
0
LINE
8
0
10
56.1461992931
20
83.3018378868
11
56.185187643
21
83.8818619865
0
LINE
8
0
10
56.185187643
20
83.8818619865
11
56.1878949521
21
84.6233806083
0
LINE
8
0
10
56.1878949521
20
84.6233806083
11
56.1339906264
21
85.5234821062
0
LINE
8
0
10
56.1339906264
20
85.5234821062
11
56.003408232
21
86.5773273732
0
LINE
8
0
10
56.003408232
20
86.5773273732
11
55.8316108913
21
87.4865475405
0
LINE
8
0
10
55.8316108913
20
87.4865475405
11
54.8678136023
21
87.8201210254
0
LINE
8
0
10
54.8678136023
20
87.8201210254
11
53.8583041888
21
87.9652665667
0
LINE
8
0
10
53.8583041888
20
87.9652665667
11
53.2889758277
21
87.2358415492
0
LINE
8
0
10
53.2889758277
20
87.2358415492
11
52.6900097154
21
86.3589828349
0
LINE
8
0
10
52.6900097154
20
86.3589828349
11
52.2296472613
21
85.5836411079
0
LINE
8
0
10
52.2296472613
20
85.5836411079
11
51.8922701147
21
84.9233125102
0
LINE
8
0
10
51.8922701147
20
84.9233125102
11
51.6611419165
21
84.3899010332
0
LINE
8
0
10
51.6611419165
20
84.3899010332
11
51.4581156593
21
83.825690046
0
LINE
8
0
10
51.4581156593
20
83.825690046
11
51.278919345
21
83.5077849266
0
LINE
8
0
10
51.278919345
20
83.5077849266
11
51.0986765796
21
83.3700582027
0
LINE
8
0
10
51.0986765796
20
83.3700582027
11
48.8447417144
21
83.6941251124
0
LINE
8
0
10
48.8447417144
20
83.6941251124
11
48.7106021496
21
83.8770531914
0
LINE
8
0
10
48.7106021496
20
83.8770531914
11
48.6282287673
21
84.2325663556
0
LINE
8
0
10
48.6282287673
20
84.2325663556
11
48.592383104
21
84.83112194
0
LINE
8
0
10
48.592383104
20
84.83112194
11
48.520896601
21
85.4080428424
0
LINE
8
0
10
48.520896601
20
85.4080428424
11
48.3832216636
21
86.1366736183
0
LINE
8
0
10
48.3832216636
20
86.1366736183
11
48.1599461308
21
87.0103076488
0
LINE
8
0
10
48.1599461308
20
87.0103076488
11
47.8322820022
21
88.0203956783
0
LINE
8
0
10
47.8322820022
20
88.0203956783
11
47.4915182152
21
88.8806721922
0
LINE
8
0
10
47.4915182152
20
88.8806721922
11
46.4820088017
21
89.0258177335
0
LINE
8
0
10
46.4820088017
20
89.0258177335
11
45.4632735641
21
88.977289393
0
LINE
8
0
10
45.4632735641
20
88.977289393
11
45.0422783004
21
88.153299935
0
LINE
8
0
10
45.0422783004
20
88.153299935
11
44.6200828889
21
87.178932118
0
LINE
8
0
10
44.6200828889
20
87.178932118
11
44.3147741707
21
86.3304776587
0
LINE
8
0
10
44.3147741707
20
86.3304776587
11
44.1084618775
21
85.6182330141
0
LINE
8
0
10
44.1084618775
20
85.6182330141
11
43.9824592526
21
85.0507196784
0
LINE
8
0
10
43.9824592526
20
85.0507196784
11
43.8898795758
21
84.4582817469
0
LINE
8
0
10
43.8898795758
20
84.4582817469
11
43.7740855118
21
84.1122084616
0
LINE
8
0
10
43.7740855118
20
84.1122084616
11
43.6231649219
21
83.9428594715
0
LINE
8
0
10
43.6231649219
20
83.9428594715
11
41.3486315301
21
83.834510092
0
LINE
8
0
10
41.3486315301
20
83.834510092
11
41.1822966754
21
83.9887463427
0
LINE
8
0
10
41.1822966754
20
83.9887463427
11
41.0341305786
21
84.3222456558
0
LINE
8
0
10
41.0341305786
20
84.3222456558
11
40.8856553041
21
84.9032007246
0
LINE
8
0
10
40.8856553041
20
84.9032007246
11
40.7062776567
21
85.4561670051
0
LINE
8
0
10
40.7062776567
20
85.4561670051
11
40.4331964037
21
86.1455753204
0
LINE
8
0
10
40.4331964037
20
86.1455753204
11
40.0486194232
21
86.9611664735
0
LINE
8
0
10
40.0486194232
20
86.9611664735
11
39.5357161958
21
87.8909900524
0
LINE
8
0
10
39.5357161958
20
87.8909900524
11
39.0383020536
21
88.6712302782
0
LINE
8
0
10
39.0383020536
20
88.6712302782
11
38.0195668161
21
88.6227019378
0
LINE
8
0
10
38.0195668161
20
88.6227019378
11
37.0284255002
21
88.3822536562
0
LINE
8
0
10
37.0284255002
20
88.3822536562
11
36.7709791996
21
87.4934808837
0
LINE
8
0
10
36.7709791996
20
87.4934808837
11
36.540813731
21
86.4568201554
0
LINE
8
0
10
36.540813731
20
86.4568201554
11
36.4015934013
21
85.5659183187
0
LINE
8
0
10
36.4015934013
20
85.5659183187
11
36.3338026252
21
84.8275000046
0
LINE
8
0
10
36.3338026252
20
84.8275000046
11
36.317479637
21
84.2463962205
0
LINE
8
0
10
36.317479637
20
84.2463962205
11
36.3386926112
21
83.6471435953
0
LINE
8
0
10
36.3386926112
20
83.6471435953
11
36.2904858967
21
83.2854101344
0
LINE
8
0
10
36.2904858967
20
83.2854101344
11
36.1743421456
21
83.0905595916
0
LINE
8
0
10
36.1743421456
20
83.0905595916
11
33.9614177902
21
82.5537099519
0
LINE
8
0
10
33.9614177902
20
82.5537099519
11
33.7688994206
21
82.6736798743
0
LINE
8
0
10
33.7688994206
20
82.6736798743
11
33.5602957183
21
82.9731118022
0
LINE
8
0
10
33.5602957183
20
82.9731118022
11
33.3045571157
21
83.5154691257
0
LINE
8
0
10
33.3045571157
20
83.5154691257
11
33.0237714993
21
84.0244951421
0
LINE
8
0
10
33.0237714993
20
84.0244951421
11
32.6251537988
21
84.6497639841
0
LINE
8
0
10
32.6251537988
20
84.6497639841
11
32.0931749847
21
85.3778346705
0
LINE
8
0
10
32.0931749847
20
85.3778346705
11
31.4135703175
21
86.1937875519
0
LINE
8
0
10
31.4135703175
20
86.1937875519
11
30.7774836632
21
86.8657915751
0
LINE
8
0
10
30.7774836632
20
86.8657915751
11
29.7863423474
21
86.6253432935
0
LINE
8
0
10
29.7863423474
20
86.6253432935
11
28.8586173828
21
86.2016654983
0
LINE
8
0
10
28.8586173828
20
86.2016654983
11
28.7740248253
21
85.2802319749
0
LINE
8
0
10
28.7740248253
20
85.2802319749
11
28.7442080794
21
84.2187459551
0
LINE
8
0
10
28.7442080794
20
84.2187459551
11
28.7761079237
21
83.3175962546
0
LINE
8
0
10
28.7761079237
20
83.3175962546
11
28.8492888001
21
82.5796926326
0
LINE
8
0
10
28.8492888001
20
82.5796926326
11
28.9432354037
21
82.0060010052
0
LINE
8
0
10
28.9432354037
20
82.0060010052
11
29.0774743369
21
81.4215922373
0
LINE
8
0
10
29.0774743369
20
81.4215922373
11
29.0985972881
21
81.0572725906
0
LINE
8
0
10
29.0985972881
20
81.0572725906
11
29.0214281135
21
80.8439629015
0
LINE
8
0
10
29.0214281135
20
80.8439629015
11
26.9500936465
21
79.8980161462
0
LINE
8
0
10
26.9500936465
20
79.8980161462
11
26.7383498775
21
79.9793837149
0
LINE
8
0
10
26.7383498775
20
79.9793837149
11
26.4768480509
21
80.2339260075
0
LINE
8
0
10
26.4768480509
20
80.2339260075
11
26.1230891796
21
80.7180833788
0
LINE
8
0
10
26.1230891796
20
80.7180833788
11
25.7510439181
21
81.1647716047
0
LINE
8
0
10
25.7510439181
20
81.1647716047
11
25.2412968523
21
81.7033021283
0
LINE
8
0
10
25.2412968523
20
81.7033021283
11
24.5811433051
21
82.3175379763
0
LINE
8
0
10
24.5811433051
20
82.3175379763
11
23.7593998814
21
82.9901294973
0
LINE
8
0
10
23.7593998814
20
82.9901294973
11
23.007630544
21
83.5296093415
0
LINE
8
0
10
23.007630544
20
83.5296093415
11
22.0799055794
21
83.1059315463
0
LINE
8
0
10
22.0799055794
20
83.1059315463
11
21.2491273634
21
82.5143370568
0
LINE
8
0
10
21.2491273634
20
82.5143370568
11
21.3404459446
21
81.5935457907
0
LINE
8
0
10
21.3404459446
20
81.5935457907
11
21.5120555763
21
80.5455993499
0
LINE
8
0
10
21.5120555763
20
80.5455993499
11
21.713922651
21
79.6667716836
0
LINE
8
0
10
21.713922651
20
79.6667716836
11
21.9254302323
21
78.9560525133
0
LINE
8
0
10
21.9254302323
20
78.9560525133
11
22.1262509527
21
78.4105077526
0
LINE
8
0
10
22.1262509527
20
78.4105077526
11
22.3686641001
21
77.8620648976
0
LINE
8
0
10
22.3686641001
20
77.8620648976
11
22.4583532785
21
77.5083265263
0
LINE
8
0
10
22.4583532785
20
77.5083265263
11
22.4229477755
21
77.284267259
0
LINE
8
0
10
22.4229477755
20
77.284267259
11
20.5680666213
21
75.9634123684
0
LINE
8
0
10
20.5680666213
20
75.9634123684
11
20.3447504244
21
76.0032367474
0
LINE
8
0
10
20.3447504244
20
76.0032367474
11
20.0398018309
21
76.2036895831
0
LINE
8
0
10
20.0398018309
20
76.2036895831
11
19.6008084583
21
76.6121482933
0
LINE
8
0
10
19.6008084583
20
76.6121482933
11
19.1509502368
21
76.9803542524
0
LINE
8
0
10
19.1509502368
20
76.9803542524
11
18.5484973928
21
77.4126825614
0
LINE
8
0
10
18.5484973928
20
77.4126825614
11
17.7840287816
21
77.8908834872
0
LINE
8
0
10
17.7840287816
20
77.8908834872
11
16.8498465498
21
78.3958044377
0
LINE
8
0
10
16.8498465498
20
78.3958044377
11
16.0095654319
21
78.7832618957
0
LINE
8
0
10
16.0095654319
20
78.7832618957
11
15.1787872159
21
78.1916674062
0
LINE
8
0
10
15.1787872159
20
78.1916674062
11
14.4749822379
21
77.4535379887
0
LINE
8
0
10
14.4749822379
20
77.4535379887
11
14.7389114662
21
76.5666687755
0
LINE
8
0
10
14.7389114662
20
76.5666687755
11
15.1057450562
21
75.5701374284
0
LINE
8
0
10
15.1057450562
20
75.5701374284
11
15.4702833593
21
74.745394918
0
LINE
8
0
10
15.4702833593
20
74.745394918
11
15.8124732105
21
74.0875474419
0
LINE
8
0
10
15.8124732105
20
74.0875474419
11
16.1129098637
21
73.5898669569
0
LINE
8
0
10
16.1129098637
20
73.5898669569
11
16.4547357824
21
73.0972121686
0
LINE
8
0
10
16.4547357824
20
73.0972121686
11
16.6097495875
21
72.7668400992
0
LINE
8
0
10
16.6097495875
20
72.7668400992
11
16.6173874033
21
72.5401293391
0
LINE
8
0
10
16.6173874033
20
72.5401293391
11
15.0459997995
21
70.8921054506
0
LINE
8
0
10
15.0459997995
20
70.8921054506
11
14.819182404
21
70.888947283
0
LINE
8
0
10
14.819182404
20
70.888947283
11
14.4818086802
21
71.028065774
0
LINE
8
0
10
14.4818086802
20
71.028065774
11
13.9734471706
21
71.3460630613
0
LINE
8
0
10
13.9734471706
20
71.3460630613
11
13.4620350373
21
71.6224788308
0
LINE
8
0
10
13.4620350373
20
71.6224788308
11
12.7886506305
21
71.9329794536
0
LINE
8
0
10
12.7886506305
20
71.9329794536
11
11.9474968428
21
72.2578620298
0
LINE
8
0
10
11.9474968428
20
72.2578620298
11
10.9346395828
21
72.5768632511
0
LINE
8
0
10
10.9346395828
20
72.5768632511
11
10.0362166332
21
72.7982946009
0
LINE
8
0
10
10.0362166332
20
72.7982946009
11
9.3324116552
21
72.0601651834
0
LINE
8
0
10
9.3324116552
20
72.0601651834
11
8.78101726076
21
71.2021787581
0
LINE
8
0
10
8.78101726076
20
71.2021787581
11
9.20801804631
21
70.3812853618
0
LINE
8
0
10
9.20801804631
20
70.3812853618
11
9.75681727294
21
69.4721863478
0
LINE
8
0
10
9.75681727294
20
69.4721863478
11
10.2708514404
21
68.7313373365
0
LINE
8
0
10
10.2708514404
20
68.7313373365
11
10.7313559285
21
68.1501378764
0
LINE
8
0
10
10.7313559285
20
68.1501378764
11
11.1205499512
21
67.7183091367
0
LINE
8
0
10
11.1205499512
20
67.7183091367
11
11.549434162
21
67.2992482426
0
LINE
8
0
10
11.549434162
20
67.2992482426
11
11.7641699909
21
67.0041829824
0
LINE
8
0
10
11.7641699909
20
67.0041829824
11
11.8145750748
21
66.7830146473
0
LINE
8
0
10
11.8145750748
20
66.7830146473
11
10.5834750638
21
64.867385638
0
LINE
8
0
10
10.5834750638
20
64.867385638
11
10.3613542412
21
64.8213590682
0
LINE
8
0
10
10.3613542412
20
64.8213590682
11
10.0037489526
21
64.8941151098
0
LINE
8
0
10
10.0037489526
20
64.8941151098
11
9.4443928154
21
65.1101577235
0
LINE
8
0
10
9.4443928154
20
65.1101577235
11
8.88991053722
21
65.2847929174
0
LINE
8
0
10
8.88991053722
20
65.2847929174
11
8.16993243474
21
65.4622435526
0
LINE
8
0
10
8.16993243474
20
65.4622435526
11
7.28249495994
21
65.6220656763
0
LINE
8
0
10
7.28249495994
20
65.6220656763
11
6.22756997198
21
65.7436176331
0
LINE
8
0
10
6.22756997198
20
65.7436176331
11
5.30347653707
21
65.7910197688
0
LINE
8
0
10
5.30347653707
20
65.7910197688
11
4.75208214263
21
64.9330333436
0
LINE
8
0
10
4.75208214263
20
64.9330333436
11
4.37302716184
21
63.9861997755
0
LINE
8
0
10
4.37302716184
20
63.9861997755
11
4.94766658366
21
63.2609514223
0
LINE
8
0
10
4.94766658366
20
63.2609514223
11
5.65859641297
21
62.4721419483
0
LINE
8
0
10
5.65859641297
20
62.4721419483
11
6.30354791062
21
61.8419626496
0
LINE
8
0
10
6.30354791062
20
61.8419626496
11
6.86572320382
21
61.3584172683
0
LINE
8
0
10
6.86572320382
20
61.3584172683
11
7.32960810978
21
61.0080476895
0
LINE
8
0
10
7.32960810978
20
61.0080476895
11
7.83004961983
21
60.6777266424
0
LINE
8
0
10
7.83004961983
20
60.6777266424
11
8.09674636025
21
60.4286326186
0
LINE
8
0
10
8.09674636025
20
60.4286326186
11
8.18809694127
21
60.2210003083
0
LINE
8
0
10
8.18809694127
20
60.2210003083
11
7.34177968501
21
58.1070020017
0
LINE
8
0
10
7.34177968501
20
58.1070020017
11
7.13238346068
21
58.01977055
0
LINE
8
0
10
7.13238346068
20
58.01977055
11
6.76747139407
21
58.0235345493
0
LINE
8
0
10
6.76747139407
20
58.0235345493
11
6.17733721747
21
58.1298141465
0
LINE
8
0
10
6.17733721747
20
58.1298141465
11
5.59982522867
21
58.1963569937
0
LINE
8
0
10
5.59982522867
20
58.1963569937
11
4.85927531491
21
58.234344113
0
LINE
8
0
10
4.85927531491
20
58.234344113
11
3.9576284556
21
58.2233293963
0
LINE
8
0
10
3.9576284556
20
58.2233293963
11
2.89876347737
21
58.1430388843
0
LINE
8
0
10
2.89876347737
20
58.1430388843
11
1.98239870151
21
58.0146985692
0
LINE
8
0
10
1.98239870151
20
58.0146985692
11
1.60334372072
21
57.0678650011
0
LINE
8
0
10
1.60334372072
20
57.0678650011
11
1.41032818821
21
56.0664053222
0
LINE
8
0
10
1.41032818821
20
56.0664053222
11
2.11183728038
21
55.4630143772
0
LINE
8
0
10
2.11183728038
20
55.4630143772
11
2.95920285604
21
54.8230040729
0
LINE
8
0
10
2.95920285604
20
54.8230040729
11
3.71176145638
21
54.3262708085
0
LINE
8
0
10
3.71176145638
20
54.3262708085
11
4.35528907476
21
53.9578560961
0
LINE
8
0
10
4.35528907476
20
53.9578560961
11
4.87709885493
21
53.7016089477
0
LINE
8
0
10
4.87709885493
20
53.7016089477
11
5.43101040416
21
53.4719664107
0
LINE
8
0
10
5.43101040416
20
53.4719664107
11
5.74002894102
21
53.2778465304
0
LINE
8
0
10
5.74002894102
20
53.2778465304
11
5.86902337113
21
53.0912546175
0
LINE
8
0
10
5.86902337113
20
53.0912546175
11
5.43807698031
21
50.8552924205
0
LINE
8
0
10
5.43807698031
20
50.8552924205
11
5.24897347932
21
50.7300088587
0
LINE
8
0
10
5.24897347932
20
50.7300088587
11
4.8899435076
21
50.664644775
0
LINE
8
0
10
4.8899435076
20
50.664644775
11
4.29036027833
21
50.6573201341
0
LINE
8
0
10
4.29036027833
20
50.6573201341
11
3.71069136686
21
50.6133656029
0
LINE
8
0
10
3.71069136686
20
50.6133656029
11
2.97633504521
21
50.5105162528
0
LINE
8
0
10
2.97633504521
20
50.5105162528
11
2.09306666808
21
50.3290627963
0
LINE
8
0
10
2.09306666808
20
50.3290627963
11
1.06853183875
21
50.0498317236
0
LINE
8
0
10
1.06853183875
20
50.0498317236
11
0.193015532516
21
49.7503875111
0
LINE
8
0
10
0.193015532516
20
49.7503875111
11
0.0
21
48.7489278323
0
LINE
8
0
10
0.0
20
48.7489278323
11
1.42108547152e-14
21
47.7290374048
0
LINE
8
0
10
1.42108547152e-14
20
47.7290374048
11
0.803024396175
21
47.2693119888
0
LINE
8
0
10
0.803024396175
20
47.2693119888
11
1.75619971848
21
46.8012324941
0
LINE
8
0
10
1.75619971848
20
46.8012324941
11
2.58916599293
21
46.4558984985
0
LINE
8
0
10
2.58916599293
20
46.4558984985
11
3.29078717168
21
46.2159299224
0
LINE
8
0
10
3.29078717168
20
46.2159299224
11
3.85166226103
21
46.063066644
0
LINE
8
0
10
3.85166226103
20
46.063066644
11
4.43902404285
21
45.9424024967
0
LINE
8
0
10
4.43902404285
20
45.9424024967
11
4.77919564108
21
45.8102727582
0
LINE
8
0
10
4.77919564108
20
45.8102727582
11
4.94117172549
21
45.6514651607
0
LINE
8
0
10
4.94117172549
20
45.6514651607
11
4.94117172549
21
43.3743525727
0
LINE
8
0
10
4.94117172549
20
43.3743525727
11
4.77919564108
21
43.2155449753
0
LINE
8
0
10
4.77919564108
20
43.2155449753
11
4.43902404285
21
43.0834152367
0
LINE
8
0
10
4.43902404285
20
43.0834152367
11
3.85166226103
21
42.9627510895
0
LINE
8
0
10
3.85166226103
20
42.9627510895
11
3.29078717168
21
42.8098878111
0
LINE
8
0
10
3.29078717168
20
42.8098878111
11
2.58916599293
21
42.569919235
0
LINE
8
0
10
2.58916599293
20
42.569919235
11
1.75619971848
21
42.2245852394
0
LINE
8
0
10
1.75619971848
20
42.2245852394
11
0.803024396177
21
41.7565057446
0
LINE
8
0
10
0.803024396177
20
41.7565057446
11
1.42108547152e-13
21
41.2967803287
0
LINE
8
0
10
1.42108547152e-13
20
41.2967803287
11
1.63424829225e-13
21
40.2768899012
0
LINE
8
0
10
1.63424829225e-13
20
40.2768899012
11
0.193015532516
21
39.2754302224
0
LINE
8
0
10
0.193015532516
20
39.2754302224
11
1.06853183875
21
38.9759860098
0
LINE
8
0
10
1.06853183875
20
38.9759860098
11
2.09306666808
21
38.6967549372
0
LINE
8
0
10
2.09306666808
20
38.6967549372
11
2.97633504521
21
38.5153014807
0
LINE
8
0
10
2.97633504521
20
38.5153014807
11
3.71069136686
21
38.4124521305
0
LINE
8
0
10
3.71069136686
20
38.4124521305
11
4.29036027833
21
38.3684975993
0
LINE
8
0
10
4.29036027833
20
38.3684975993
11
4.8899435076
21
38.3611729585
0
LINE
8
0
10
4.8899435076
20
38.3611729585
11
5.24897347932
21
38.2958088747
0
LINE
8
0
10
5.24897347932
20
38.2958088747
11
5.43807698031
21
38.170525313
0
LINE
8
0
10
5.43807698031
20
38.170525313
11
5.86902337113
21
35.9345631159
0
LINE
8
0
10
5.86902337113
20
35.9345631159
11
5.74002894102
21
35.7479712031
0
LINE
8
0
10
5.74002894102
20
35.7479712031
11
5.43101040416
21
35.5538513228
0
LINE
8
0
10
5.43101040416
20
35.5538513228
11
4.87709885493
21
35.3242087858
0
LINE
8
0
10
4.87709885493
20
35.3242087858
11
4.35528907476
21
35.0679616374
0
LINE
8
0
10
4.35528907476
20
35.0679616374
11
3.71176145638
21
34.6995469249
0
LINE
8
0
10
3.71176145638
20
34.6995469249
11
2.95920285604
21
34.2028136605
0
LINE
8
0
10
2.95920285604
20
34.2028136605
11
2.11183728038
21
33.5628033562
0
LINE
8
0
10
2.11183728038
20
33.5628033562
11
1.41032818821
21
32.9594124112
0
LINE
8
0
10
1.41032818821
20
32.9594124112
11
1.60334372072
21
31.9579527324
0
LINE
8
0
10
1.60334372072
20
31.9579527324
11
1.98239870151
21
31.0111191643
0
LINE
8
0
10
1.98239870151
20
31.0111191643
11
2.89876347737
21
30.8827788492
0
LINE
8
0
10
2.89876347737
20
30.8827788492
11
3.95762845559
21
30.8024883371
0
LINE
8
0
10
3.95762845559
20
30.8024883371
11
4.85927531491
21
30.7914736205
0
LINE
8
0
10
4.85927531491
20
30.7914736205
11
5.59982522867
21
30.8294607397
0
LINE
8
0
10
5.59982522867
20
30.8294607397
11
6.17733721747
21
30.896003587
0
LINE
8
0
10
6.17733721747
20
30.896003587
11
6.76747139407
21
31.0022831842
0
LINE
8
0
10
6.76747139407
20
31.0022831842
11
7.13238346068
21
31.0060471835
0
LINE
8
0
10
7.13238346068
20
31.0060471835
11
7.34177968501
21
30.9188157317
0
LINE
8
0
10
7.34177968501
20
30.9188157317
11
8.18809694127
21
28.8048174252
0
LINE
8
0
10
8.18809694127
20
28.8048174252
11
8.09674636025
21
28.5971851149
0
LINE
8
0
10
8.09674636025
20
28.5971851149
11
7.83004961983
21
28.3480910911
0
LINE
8
0
10
7.83004961983
20
28.3480910911
11
7.32960810978
21
28.0177700439
0
LINE
8
0
10
7.32960810978
20
28.0177700439
11
6.86572320382
21
27.6674004651
0
LINE
8
0
10
6.86572320382
20
27.6674004651
11
6.30354791062
21
27.1838550839
0
LINE
8
0
10
6.30354791062
20
27.1838550839
11
5.65859641297
21
26.5536757851
0
LINE
8
0
10
5.65859641297
20
26.5536757851
11
4.94766658366
21
25.7648663112
0
LINE
8
0
10
4.94766658366
20
25.7648663112
11
4.37302716184
21
25.039617958
0
LINE
8
0
10
4.37302716184
20
25.039617958
11
4.75208214263
21
24.0927843899
0
LINE
8
0
10
4.75208214263
20
24.0927843899
11
5.30347653707
21
23.2347979646
0
LINE
8
0
10
5.30347653707
20
23.2347979646
11
6.22756997198
21
23.2822001003
0
LINE
8
0
10
6.22756997198
20
23.2822001003
11
7.28249495994
21
23.4037520572
0
LINE
8
0
10
7.28249495994
20
23.4037520572
11
8.16993243474
21
23.5635741809
0
LINE
8
0
10
8.16993243474
20
23.5635741809
11
8.88991053722
21
23.7410248161
0
LINE
8
0
10
8.88991053722
20
23.7410248161
11
9.4443928154
21
23.9156600099
0
LINE
8
0
10
9.4443928154
20
23.9156600099
11
10.0037489526
21
24.1317026236
0
LINE
8
0
10
10.0037489526
20
24.1317026236
11
10.3613542412
21
24.2044586652
0
LINE
8
0
10
10.3613542412
20
24.2044586652
11
10.5834750638
21
24.1584320955
0
LINE
8
0
10
10.5834750638
20
24.1584320955
11
11.8145750748
21
22.2428030862
0
LINE
8
0
10
11.8145750748
20
22.2428030862
11
11.7641699909
21
22.0216347511
0
LINE
8
0
10
11.7641699909
20
22.0216347511
11
11.549434162
21
21.7265694908
0
LINE
8
0
10
11.549434162
20
21.7265694908
11
11.1205499512
21
21.3075085968
0
LINE
8
0
10
11.1205499512
20
21.3075085968
11
10.7313559285
21
20.875679857
0
LINE
8
0
10
10.7313559285
20
20.875679857
11
10.2708514404
21
20.294480397
0
LINE
8
0
10
10.2708514404
20
20.294480397
11
9.75681727294
21
19.5536313856
0
LINE
8
0
10
9.75681727294
20
19.5536313856
11
9.20801804631
21
18.6445323716
0
LINE
8
0
10
9.20801804631
20
18.6445323716
11
8.78101726076
21
17.8236389753
0
LINE
8
0
10
8.78101726076
20
17.8236389753
11
9.3324116552
21
16.9656525501
0
LINE
8
0
10
9.3324116552
20
16.9656525501
11
10.0362166332
21
16.2275231326
0
LINE
8
0
10
10.0362166332
20
16.2275231326
11
10.9346395828
21
16.4489544824
0
LINE
8
0
10
10.9346395828
20
16.4489544824
11
11.9474968428
21
16.7679557037
0
LINE
8
0
10
11.9474968428
20
16.7679557037
11
12.7886506305
21
17.0928382798
0
LINE
8
0
10
12.7886506305
20
17.0928382798
11
13.4620350373
21
17.4033389027
0
LINE
8
0
10
13.4620350373
20
17.4033389027
11
13.9734471706
21
17.6797546722
0
LINE
8
0
10
13.9734471706
20
17.6797546722
11
14.4818086802
21
17.9977519594
0
LINE
8
0
10
14.4818086802
20
17.9977519594
11
14.819182404
21
18.1368704504
0
LINE
8
0
10
14.819182404
20
18.1368704504
11
15.0459997995
21
18.1337122828
0
LINE
8
0
10
15.0459997995
20
18.1337122828
11
16.6173874033
21
16.4856883943
0
LINE
8
0
10
16.6173874033
20
16.4856883943
11
16.6097495875
21
16.2589776343
0
LINE
8
0
10
16.6097495875
20
16.2589776343
11
16.4547357824
21
15.9286055648
0
LINE
8
0
10
16.4547357824
20
15.9286055648
11
16.1129098637
21
15.4359507765
0
LINE
8
0
10
16.1129098637
20
15.4359507765
11
15.8124732105
21
14.9382702915
0
LINE
8
0
10
15.8124732105
20
14.9382702915
11
15.4702833593
21
14.2804228155
0
LINE
8
0
10
15.4702833593
20
14.2804228155
11
15.1057450562
21
13.4556803051
0
LINE
8
0
10
15.1057450562
20
13.4556803051
11
14.7389114662
21
12.459148958
0
LINE
8
0
10
14.7389114662
20
12.459148958
11
14.4749822379
21
11.5722797448
0
LINE
8
0
10
14.4749822379
20
11.5722797448
11
15.1787872159
21
10.8341503273
0
LINE
8
0
10
15.1787872159
20
10.8341503273
11
16.0095654319
21
10.2425558378
0
LINE
8
0
10
16.0095654319
20
10.2425558378
11
16.8498465498
21
10.6300132958
0
LINE
8
0
10
16.8498465498
20
10.6300132958
11
17.7840287816
21
11.1349342463
0
LINE
8
0
10
17.7840287816
20
11.1349342463
11
18.5484973928
21
11.6131351721
0
LINE
8
0
10
18.5484973928
20
11.6131351721
11
19.1509502368
21
12.0454634811
0
LINE
8
0
10
19.1509502368
20
12.0454634811
11
19.6008084583
21
12.4136694401
0
LINE
8
0
10
19.6008084583
20
12.4136694401
11
20.0398018309
21
12.8221281504
0
LINE
8
0
10
20.0398018309
20
12.8221281504
11
20.3447504244
21
13.0225809861
0
LINE
8
0
10
20.3447504244
20
13.0225809861
11
20.5680666213
21
13.062405365
0
LINE
8
0
10
20.5680666213
20
13.062405365
11
22.4229477755
21
11.7415504745
0
LINE
8
0
10
22.4229477755
20
11.7415504745
11
22.4583532785
21
11.5174912071
0
LINE
8
0
10
22.4583532785
20
11.5174912071
11
22.3686641001
21
11.1637528358
0
LINE
8
0
10
22.3686641001
20
11.1637528358
11
22.1262509527
21
10.6153099809
0
LINE
8
0
10
22.1262509527
20
10.6153099809
11
21.9254302323
21
10.0697652201
0
LINE
8
0
10
21.9254302323
20
10.0697652201
11
21.713922651
21
9.35904604982
0
LINE
8
0
10
21.713922651
20
9.35904604982
11
21.5120555763
21
8.48021838352
0
LINE
8
0
10
21.5120555763
20
8.48021838352
11
21.3404459446
21
7.43227194273
0
LINE
8
0
10
21.3404459446
20
7.43227194273
11
21.2491273634
21
6.51148067668
0
LINE
8
0
10
21.2491273634
20
6.51148067668
11
22.0799055794
21
5.9198861872
0
LINE
8
0
10
22.0799055794
20
5.9198861872
11
23.007630544
21
5.496208392
0
LINE
8
0
10
23.007630544
20
5.496208392
11
23.7593998814
21
6.03568823617
0
LINE
8
0
10
23.7593998814
20
6.03568823617
11
24.5811433051
21
6.70827975713
0
LINE
8
0
10
24.5811433051
20
6.70827975713
11
25.2412968523
21
7.32251560514
0
LINE
8
0
10
25.2412968523
20
7.32251560514
11
25.7510439181
21
7.86104612878
0
LINE
8
0
10
25.7510439181
20
7.86104612878
11
26.1230891796
21
8.30773435468
0
LINE
8
0
10
26.1230891796
20
8.30773435468
11
26.4768480509
21
8.79189172598
0
LINE
8
0
10
26.4768480509
20
8.79189172598
11
26.7383498775
21
9.04643401859
0
LINE
8
0
10
26.7383498775
20
9.04643401859
11
26.9500936465
21
9.12780158727
0
LINE
8
0
10
26.9500936465
20
9.12780158727
11
29.0214281135
21
8.18185483193
0
LINE
8
0
10
29.0214281135
20
8.18185483193
11
29.0985972881
21
7.9685451429
0
LINE
8
0
10
29.0985972881
20
7.9685451429
11
29.0774743369
21
7.60422549619
0
LINE
8
0
10
29.0774743369
20
7.60422549619
11
28.9432354037
21
7.0198167283
0
LINE
8
0
10
28.9432354037
20
7.0198167283
11
28.8492888001
21
6.44612510085
0
LINE
8
0
10
28.8492888001
20
6.44612510085
11
28.7761079237
21
5.70822147888
0
LINE
8
0
10
28.7761079237
20
5.70822147888
11
28.7442080794
21
4.80707177831
0
LINE
8
0
10
28.7442080794
20
4.80707177831
11
28.7740248253
21
3.74558575857
0
LINE
8
0
10
28.7740248253
20
3.74558575857
11
28.8586173828
21
2.82415223512
0
LINE
8
0
10
28.8586173828
20
2.82415223512
11
29.7863423474
21
2.40047443992
0
LINE
8
0
10
29.7863423474
20
2.40047443992
11
30.7774836632
21
2.16002615839
0
LINE
8
0
10
30.7774836632
20
2.16002615839
11
31.4135703175
21
2.83203018155
0
LINE
8
0
10
31.4135703175
20
2.83203018155
11
32.0931749847
21
3.64798306299
0
LINE
8
0
10
32.0931749847
20
3.64798306299
11
32.6251537988
21
4.37605374932
0
LINE
8
0
10
32.6251537988
20
4.37605374932
11
33.0237714993
21
5.00132259135
0
LINE
8
0
10
33.0237714993
20
5.00132259135
11
33.3045571157
21
5.51034860778
0
LINE
8
0
10
33.3045571157
20
5.51034860778
11
33.5602957183
21
6.05270593124
0
LINE
8
0
10
33.5602957183
20
6.05270593124
11
33.7688994206
21
6.35213785911
0
LINE
8
0
10
33.7688994206
20
6.35213785911
11
33.9614177902
21
6.47210778159
0
LINE
8
0
10
33.9614177902
20
6.47210778159
11
36.1743421456
21
5.93525814182
0
LINE
8
0
10
36.1743421456
20
5.93525814182
11
36.2904858967
21
5.74040759907
0
LINE
8
0
10
36.2904858967
20
5.74040759907
11
36.3386926112
21
5.37867413819
0
LINE
8
0
10
36.3386926112
20
5.37867413819
11
36.317479637
21
4.77942151291
0
LINE
8
0
10
36.317479637
20
4.77942151291
11
36.3338026252
21
4.1983177289
0
LINE
8
0
10
36.3338026252
20
4.1983177289
11
36.4015934013
21
3.45989941475
0
LINE
8
0
10
36.4015934013
20
3.45989941475
11
36.540813731
21
2.56899757802
0
LINE
8
0
10
36.540813731
20
2.56899757802
11
36.7709791996
21
1.53233684975
0
LINE
8
0
10
36.7709791996
20
1.53233684975
11
37.0284255002
21
0.643564077215
0
LINE
8
0
10
37.0284255002
20
0.643564077215
11
38.0195668161
21
0.403115795692
0
LINE
8
0
10
38.0195668161
20
0.403115795692
11
39.0383020536
21
0.354587455221
0
LINE
8
0
10
39.0383020536
20
0.354587455221
11
39.5357161958
21
1.13482768108
0
LINE
8
0
10
39.5357161958
20
1.13482768108
11
40.0486194232
21
2.06465125993
0
LINE
8
0
10
40.0486194232
20
2.06465125993
11
40.4331964037
21
2.88024241301
0
LINE
8
0
10
40.4331964037
20
2.88024241301
11
40.7062776567
21
3.56965072835
0
LINE
8
0
10
40.7062776567
20
3.56965072835
11
40.8856553041
21
4.12261700882
0
LINE
8
0
10
40.8856553041
20
4.12261700882
11
41.0341305786
21
4.70357207767
0
LINE
8
0
10
41.0341305786
20
4.70357207767
11
41.1822966754
21
5.03707139076
0
LINE
8
0
10
41.1822966754
20
5.03707139076
11
41.3486315301
21
5.19130764147
0
LINE
8
0
10
41.3486315301
20
5.19130764147
11
43.6231649219
21
5.08295826199
0
LINE
8
0
10
43.6231649219
20
5.08295826199
11
43.7740855118
21
4.91360927181
0
LINE
8
0
10
43.7740855118
20
4.91360927181
11
43.8898795758
21
4.56753598653
0
LINE
8
0
10
43.8898795758
20
4.56753598653
11
43.9824592526
21
3.97509805508
0
LINE
8
0
10
43.9824592526
20
3.97509805508
11
44.1084618775
21
3.40758471932
0
LINE
8
0
10
44.1084618775
20
3.40758471932
11
44.3147741707
21
2.6953400748
0
LINE
8
0
10
44.3147741707
20
2.6953400748
11
44.6200828889
21
1.8468856155
0
LINE
8
0
10
44.6200828889
20
1.8468856155
11
45.0422783004
21
0.872517798422
0
LINE
8
0
10
45.0422783004
20
0.872517798422
11
45.4632735641
21
0.0485283404707
0
LINE
8
0
10
45.4632735641
20
0.0485283404707
11
46.4820088017
21
0.0
0
LINE
8
0
10
46.4820088017
20
0.0
11
47.4915182152
21
0.145145541246
0
LINE
8
0
10
47.4915182152
20
0.145145541246
11
47.8322820022
21
1.00542205515
0
LINE
8
0
10
47.8322820022
20
1.00542205515
11
48.1599461308
21
2.01551008463
0
LINE
8
0
10
48.1599461308
20
2.01551008463
11
48.3832216636
21
2.88914411518
0
LINE
8
0
10
48.3832216636
20
2.88914411518
11
48.520896601
21
3.61777489109
0
LINE
8
0
10
48.520896601
20
3.61777489109
11
48.592383104
21
4.19469579349
0
LINE
8
0
10
48.592383104
20
4.19469579349
11
48.6282287673
21
4.79325137788
0
LINE
8
0
10
48.6282287673
20
4.79325137788
11
48.7106021496
21
5.14876454209
0
LINE
8
0
10
48.7106021496
20
5.14876454209
11
48.8447417144
21
5.33169262106
0
LINE
8
0
10
48.8447417144
20
5.33169262106
11
51.0986765796
21
5.65575953075
0
LINE
8
0
10
51.0986765796
20
5.65575953075
11
51.278919345
21
5.51803280688
0
LINE
8
0
10
51.278919345
20
5.51803280688
11
51.4581156593
21
5.20012768741
0
LINE
8
0
10
51.4581156593
20
5.20012768741
11
51.6611419165
21
4.63591670022
0
LINE
8
0
10
51.6611419165
20
4.63591670022
11
51.8922701147
21
4.1025052233
0
LINE
8
0
10
51.8922701147
20
4.1025052233
11
52.2296472613
21
3.4421766256
0
LINE
8
0
10
52.2296472613
20
3.4421766256
11
52.6900097154
21
2.66683489852
0
LINE
8
0
10
52.6900097154
20
2.66683489852
11
53.2889758277
21
1.78997618423
0
LINE
8
0
10
53.2889758277
20
1.78997618423
11
53.8583041888
21
1.06055116676
0
LINE
8
0
10
53.8583041888
20
1.06055116676
11
54.8678136023
21
1.205696708
0
LINE
8
0
10
54.8678136023
20
1.205696708
11
55.8316108913
21
1.53927019293
0
LINE
8
0
10
55.8316108913
20
1.53927019293
11
56.003408232
21
2.44849036024
0
LINE
8
0
10
56.003408232
20
2.44849036024
11
56.1339906264
21
3.50233562721
0
LINE
8
0
10
56.1339906264
20
3.50233562721
11
56.1878949521
21
4.40243712514
0
LINE
8
0
10
56.1878949521
20
4.40243712514
11
56.185187643
21
5.14395574693
0
LINE
8
0
10
56.185187643
20
5.14395574693
11
56.1461992931
21
5.7239798467
0
LINE
8
0
10
56.1461992931
20
5.7239798467
11
56.0681197893
21
6.31850258829
0
LINE
8
0
10
56.0681197893
20
6.31850258829
11
56.0817232686
21
6.68318043159
0
LINE
8
0
10
56.0817232686
20
6.68318043159
11
56.1788193902
21
6.88818884143
0
LINE
8
0
10
56.1788193902
20
6.88818884143
11
58.3306926501
21
7.63295941783
0
LINE
8
0
10
58.3306926501
20
7.63295941783
11
58.5337431478
21
7.53183276292
0
LINE
8
0
10
58.5337431478
20
7.53183276292
11
58.7698650907
21
7.25358572857
0
LINE
8
0
10
58.7698650907
20
7.25358572857
11
59.0760000304
21
6.73799374075
0
LINE
8
0
10
59.0760000304
20
6.73799374075
11
59.4039002267
21
6.25796300323
0
LINE
8
0
10
59.4039002267
20
6.25796300323
11
59.8601485376
21
5.67341644834
0
LINE
8
0
10
59.8601485376
20
5.67341644834
11
60.4589260291
21
4.99921032363
0
LINE
8
0
10
60.4589260291
20
4.99921032363
11
61.2130146462
21
4.2515526707
0
LINE
8
0
10
61.2130146462
20
4.2515526707
11
61.9100990944
21
3.64305541434
0
LINE
8
0
10
61.9100990944
20
3.64305541434
11
62.8738963833
21
3.97662889927
0
LINE
8
0
10
62.8738963833
20
3.97662889927
11
63.7571474026
21
4.48657411302
0
LINE
8
0
10
63.7571474026
20
4.48657411302
11
63.7537690935
21
5.41187634793
0
LINE
8
0
10
63.7537690935
20
5.41187634793
11
63.6825501658
21
6.47139013868
0
LINE
8
0
10
63.6825501658
20
6.47139013868
11
63.5651350416
21
7.36542709065
0
LINE
8
0
10
63.5651350416
20
7.36542709065
11
63.4221433352
21
8.09303314334
0
LINE
8
0
10
63.4221433352
20
8.09303314334
11
63.2740892729
21
8.65519685826
0
LINE
8
0
10
63.2740892729
20
8.65519685826
11
63.0849065989
21
9.22419915615
0
LINE
8
0
10
63.0849065989
20
9.22419915615
11
63.0292485099
21
9.58486127113
0
LINE
8
0
10
63.0292485099
20
9.58486127113
11
63.0857918814
21
9.80454047377
0
LINE
8
0
10
63.0857918814
20
9.80454047377
11
65.0578292299
21
10.9430967678
0
LINE
8
0
10
65.0578292299
20
10.9430967678
11
65.2763486858
21
10.8822251626
0
LINE
8
0
10
65.2763486858
20
10.8822251626
11
65.5608621951
21
10.6536927862
0
LINE
8
0
10
65.5608621951
20
10.6536927862
11
65.9590413029
21
10.2053546355
0
LINE
8
0
10
65.9590413029
20
10.2053546355
11
66.3718623299
21
9.79605419896
0
LINE
8
0
10
66.3718623299
20
9.79605419896
11
66.9304918023
21
9.30841672239
0
LINE
8
0
10
66.9304918023
20
9.30841672239
11
67.6460429525
21
8.75971376603
0
LINE
8
0
10
67.6460429525
20
8.75971376603
11
68.5279993471
21
8.16827947003
0
LINE
8
0
10
68.5279993471
20
8.16827947003
11
69.3276454342
21
7.70270265105
0
LINE
8
0
10
69.3276454342
20
7.70270265105
11
70.2108964535
21
8.2126478648
0
LINE
8
0
10
70.2108964535
20
8.2126478648
11
70.9816782099
21
8.8805340587
0
LINE
8
0
10
70.9816782099
20
8.8805340587
11
70.8032463519
21
9.7884755276
0
LINE
8
0
10
70.8032463519
20
9.7884755276
11
70.5328001397
21
10.8153642532
0
LINE
8
0
10
70.5328001397
20
10.8153642532
11
70.248309254
21
11.6710238344
0
LINE
8
0
10
70.248309254
20
11.6710238344
11
69.9702012432
21
12.3584197394
0
LINE
8
0
10
69.9702012432
20
12.3584197394
11
69.7184325281
21
12.8824050082
0
LINE
8
0
10
69.7184325281
20
12.8824050082
11
69.4249842385
21
13.4053216368
0
LINE
8
0
10
69.4249842385
20
13.4053216368
11
69.3020762097
21
13.7489327549
0
LINE
8
0
10
69.3020762097
20
13.7489327549
11
69.3160232064
21
13.9753429716
0
LINE
8
0
10
69.3160232064
20
13.9753429716
11
71.0369500755
21
15.4665345922
0
LINE
8
0
10
71.0369500755
20
15.4665345922
11
71.2630406272
21
15.4481180952
0
LINE
8
0
10
71.2630406272
20
15.4481180952
11
71.5856626433
21
15.2775601322
0
LINE
8
0
10
71.5856626433
20
15.2775601322
11
72.0614946888
21
14.9126799276
0
LINE
8
0
10
72.0614946888
20
14.9126799276
11
72.544316119
21
14.5889029763
0
LINE
8
0
10
72.544316119
20
14.5889029763
11
73.1851364284
21
14.215799067
0
LINE
8
0
10
73.1851364284
20
14.215799067
11
73.9915993544
21
13.8124308334
0
LINE
8
0
10
73.9915993544
20
13.8124308334
11
74.9695473245
21
13.3985958708
0
LINE
8
0
10
74.9695473245
20
13.3985958708
11
75.8428537573
21
13.0927666485
0
LINE
8
0
10
75.8428537573
20
13.0927666485
11
76.6136355138
21
13.7606528423
0
LINE
8
0
10
76.6136355138
20
13.7606528423
11
77.2440899465
21
14.5623408692
0
LINE
8
0
10
77.2440899465
20
14.5623408692
11
76.8970535318
21
15.4201062018
0
LINE
8
0
10
76.8970535318
20
15.4201062018
11
76.4371546658
21
16.3772554281
0
LINE
8
0
10
76.4371546658
20
16.3772554281
11
75.9958702606
21
17.1636118719
0
LINE
8
0
10
75.9958702606
20
17.1636118719
11
75.5926974934
21
17.7859533503
0
LINE
8
0
10
75.5926974934
20
17.7859533503
11
75.2463137029
21
18.25282198
0
LINE
8
0
10
75.2463137029
20
18.25282198
11
74.8592057835
21
18.71075337
0
LINE
8
0
10
74.8592057835
20
18.71075337
11
74.6734900312
21
19.0248944901
0
LINE
8
0
10
74.6734900312
20
19.0248944901
11
74.6443365722
21
19.2498526657
0
LINE
8
0
10
74.6443365722
20
19.2498526657
11
76.0519541811
21
21.0397840626
0
LINE
8
0
10
76.0519541811
20
21.0397840626
11
76.277444327
21
21.0644882939
0
LINE
8
0
10
76.277444327
20
21.0644882939
11
76.6265144497
21
20.9580691535
0
LINE
8
0
10
76.6265144497
20
20.9580691535
11
77.162801623
21
20.6898346163
0
LINE
8
0
10
77.162801623
20
20.6898346163
11
77.698173032
21
20.4632832927
0
LINE
8
0
10
77.698173032
20
20.4632832927
11
78.3980232626
21
20.218197898
0
LINE
8
0
10
78.3980232626
20
20.218197898
11
79.2662502931
21
19.9747431662
0
LINE
8
0
10
79.2662502931
20
19.9747431662
11
80.3048442509
21
19.7534646107
0
LINE
8
0
10
80.3048442509
20
19.7534646107
11
81.2202474598
21
19.61843645
0
LINE
8
0
10
81.2202474598
20
19.61843645
11
81.8507018925
21
20.4201244768
0
LINE
8
0
10
81.8507018925
20
20.4201244768
11
82.3180427356
21
21.3266392425
0
LINE
8
0
10
82.3180427356
20
21.3266392425
11
81.8149445645
21
22.1032265648
0
LINE
8
0
10
81.8149445645
20
22.1032265648
11
81.182214988
21
22.9560424251
0
LINE
8
0
10
81.182214988
20
22.9560424251
11
80.6000862314
21
23.6446747606
0
LINE
8
0
10
80.6000862314
20
23.6446747606
11
80.0864204221
21
24.17946877
0
LINE
8
0
10
80.0864204221
20
24.17946877
11
79.6579407688
21
24.5723469119
0
LINE
8
0
10
79.6579407688
20
24.5723469119
11
79.1911643084
21
24.9487422296
0
LINE
8
0
10
79.1911643084
20
24.9487422296
11
78.9493530838
21
25.2220594733
0
LINE
8
0
10
78.9493530838
20
25.2220594733
11
78.8781528511
21
25.4374350332
0
LINE
8
0
10
78.8781528511
20
25.4374350332
11
79.9215862319
21
27.461413422
0
LINE
8
0
10
79.9215862319
20
27.461413422
11
80.1383261706
21
27.5283455064
0
LINE
8
0
10
80.1383261706
20
27.5283455064
11
80.5012280962
21
27.4899114536
0
LINE
8
0
10
80.5012280962
20
27.4899114536
11
81.0785875816
21
27.3280172788
0
LINE
8
0
10
81.0785875816
20
27.3280172788
11
81.6471592516
21
27.2068797381
0
LINE
8
0
10
81.6471592516
20
27.2068797381
11
82.3807449928
21
27.0986708828
0
LINE
8
0
10
82.3807449928
20
27.0986708828
11
83.2793561407
21
27.023928741
0
LINE
8
0
10
83.2793561407
20
27.023928741
11
84.3410585947
21
27.0032041762
0
LINE
8
0
10
84.3410585947
20
27.0032041762
11
85.2654735224
21
27.0438573466
0
LINE
8
0
10
85.2654735224
20
27.0438573466
11
85.7328143656
21
27.9503721123
0
LINE
8
0
10
85.7328143656
20
27.9503721123
11
86.0201507034
21
28.9289498114
0
LINE
8
0
10
86.0201507034
20
28.9289498114
11
85.3791740545
21
29.5962912341
0
LINE
8
0
10
85.3791740545
20
29.5962912341
11
84.596482263
21
30.3139507411
0
LINE
8
0
10
84.596482263
20
30.3139507411
11
83.894548805
21
30.8799700017
0
LINE
8
0
10
83.894548805
20
30.8799700017
11
83.2889551743
21
31.307887693
0
LINE
8
0
10
83.2889551743
20
31.307887693
11
82.7938660293
21
31.6125757075
0
LINE
8
0
10
82.7938660293
20
31.6125757075
11
82.2642915454
21
31.8938310455
0
LINE
8
0
10
82.2642915454
20
31.8938310455
11
81.9751245361
21
32.1164460154
0
LINE
8
0
10
81.9751245361
20
32.1164460154
11
81.8644508917
21
32.3144547257
0
LINE
8
0
10
81.8644508917
20
32.3144547257
11
82.5059876434
21
34.499328254
0
LINE
8
0
10
82.5059876434
20
34.499328254
11
82.7061438287
21
34.6060690915
0
LINE
8
0
10
82.7061438287
20
34.6060690915
11
83.0697613361
21
34.6370092331
0
LINE
8
0
10
83.0697613361
20
34.6370092331
11
83.6673258575
21
34.587306698
0
LINE
8
0
10
83.6673258575
20
34.587306698
11
84.248548127
21
34.5759611665
0
LINE
8
0
10
84.248548127
20
34.5759611665
11
84.9893556787
21
34.6085398006
0
LINE
8
0
10
84.9893556787
20
34.6085398006
11
85.8858727958
21
34.7052116247
0
LINE
8
0
10
85.8858727958
20
34.7052116247
11
86.9323110531
21
34.8857900903
0
LINE
8
0
10
86.9323110531
20
34.8857900903
11
87.8323269357
21
35.1006552803
0
LINE
8
0
10
44.6734651485
20
43.0456874656
11
44.3615976123
21
43.0129088667
0
LINE
8
0
10
44.3615976123
20
43.0129088667
11
44.049730076
21
43.0456874656
0
LINE
8
0
10
44.049730076
20
43.0456874656
11
43.7514926477
21
43.1425906803
0
LINE
8
0
10
43.7514926477
20
43.1425906803
11
43.4799197338
21
43.2993833752
0
LINE
8
0
10
43.4799197338
20
43.2993833752
11
43.2468803741
21
43.5092129572
0
LINE
8
0
10
43.2468803741
20
43.5092129572
11
43.0625595066
21
43.7629088667
0
LINE
8
0
10
43.0625595066
20
43.7629088667
11
42.9350128378
21
44.0493833752
0
LINE
8
0
10
42.9350128378
20
44.0493833752
11
42.8698147692
21
44.3561161718
0
LINE
8
0
10
42.8698147692
20
44.3561161718
11
42.8698147692
21
44.6697015616
0
LINE
8
0
10
42.8698147692
20
44.6697015616
11
42.9350128378
21
44.9764343583
0
LINE
8
0
10
42.9350128378
20
44.9764343583
11
43.0625595066
21
45.2629088667
0
LINE
8
0
10
43.0625595066
20
45.2629088667
11
43.2468803741
21
45.5166047763
0
LINE
8
0
10
43.2468803741
20
45.5166047763
11
43.4799197338
21
45.7264343583
0
LINE
8
0
10
43.4799197338
20
45.7264343583
11
43.7514926477
21
45.8832270532
0
LINE
8
0
10
43.7514926477
20
45.8832270532
11
44.049730076
21
45.9801302678
0
LINE
8
0
10
44.049730076
20
45.9801302678
11
44.3615976123
21
46.0129088667
0
LINE
8
0
10
44.3615976123
20
46.0129088667
11
44.6734651485
21
45.9801302678
0
LINE
8
0
10
44.6734651485
20
45.9801302678
11
44.9717025769
21
45.8832270532
0
LINE
8
0
10
44.9717025769
20
45.8832270532
11
45.2432754907
21
45.7264343583
0
LINE
8
0
10
45.2432754907
20
45.7264343583
11
45.4763148505
21
45.5166047763
0
LINE
8
0
10
45.4763148505
20
45.5166047763
11
45.660635718
21
45.2629088667
0
LINE
8
0
10
45.660635718
20
45.2629088667
11
45.7881823867
21
44.9764343583
0
LINE
8
0
10
45.7881823867
20
44.9764343583
11
45.8533804553
21
44.6697015616
0
LINE
8
0
10
45.8533804553
20
44.6697015616
11
45.8533804553
21
44.3561161718
0
LINE
8
0
10
45.8533804553
20
44.3561161718
11
45.7881823867
21
44.0493833752
0
LINE
8
0
10
45.7881823867
20
44.0493833752
11
45.660635718
21
43.7629088667
0
LINE
8
0
10
45.660635718
20
43.7629088667
11
45.4763148505
21
43.5092129572
0
LINE
8
0
10
45.4763148505
20
43.5092129572
11
45.2432754907
21
43.2993833752
0
LINE
8
0
10
45.2432754907
20
43.2993833752
11
44.9717025769
21
43.1425906803
0
LINE
8
0
10
44.9717025769
20
43.1425906803
11
44.6734651485
21
43.0456874656
0
LINE
8
0
10
134.794817775
20
124.126473014
11
135.082154113
21
125.105050713
0
LINE
8
0
10
135.082154113
20
125.105050713
11
135.179100861
21
126.120322998
0
LINE
8
0
10
135.179100861
20
126.120322998
11
134.423412301
21
126.654299063
0
LINE
8
0
10
134.423412301
20
126.654299063
11
133.519046815
21
127.210864132
0
LINE
8
0
10
133.519046815
20
127.210864132
11
132.722678359
21
127.633812907
0
LINE
8
0
10
132.722678359
20
127.633812907
11
132.047044639
21
127.93938822
0
LINE
8
0
10
132.047044639
20
127.93938822
11
131.503239814
21
128.144873888
0
LINE
8
0
10
131.503239814
20
128.144873888
11
130.930007508
21
128.320823946
0
LINE
8
0
10
130.930007508
20
128.320823946
11
130.603935963
21
128.484690757
0
LINE
8
0
10
130.603935963
20
128.484690757
11
130.457788941
21
128.658176067
0
LINE
8
0
10
130.457788941
20
128.658176067
11
130.674242254
21
130.924977713
0
LINE
8
0
10
130.674242254
20
130.924977713
11
130.85058052
21
131.067669412
0
LINE
8
0
10
130.85058052
20
131.067669412
11
131.201771525
21
131.16686549
0
LINE
8
0
10
131.201771525
20
131.16686549
11
131.797943543
21
131.231150974
0
LINE
8
0
10
131.797943543
20
131.231150974
11
132.370809525
21
131.330007509
0
LINE
8
0
10
132.370809525
20
131.330007509
11
133.092064173
21
131.502196156
0
LINE
8
0
10
133.092064173
20
131.502196156
11
133.954084794
21
131.766787974
0
LINE
8
0
10
133.954084794
20
131.766787974
11
134.94743785
21
132.142142894
0
LINE
8
0
10
134.94743785
20
132.142142894
11
135.790525768
21
132.523454316
0
LINE
8
0
10
135.790525768
20
132.523454316
11
135.887472517
21
133.5387266
0
LINE
8
0
10
135.887472517
20
133.5387266
11
135.790525768
21
134.553998885
0
LINE
8
0
10
135.790525768
20
134.553998885
11
134.94743785
21
134.935310307
0
LINE
8
0
10
134.94743785
20
134.935310307
11
133.954084794
21
135.310665227
0
LINE
8
0
10
133.954084794
20
135.310665227
11
133.092064173
21
135.575257045
0
LINE
8
0
10
133.092064173
20
135.575257045
11
132.370809525
21
135.747445692
0
LINE
8
0
10
132.370809525
20
135.747445692
11
131.797943543
21
135.846302226
0
LINE
8
0
10
131.797943543
20
135.846302226
11
131.201771525
21
135.91058771
0
LINE
8
0
10
131.201771525
20
135.91058771
11
130.85058052
21
136.009783789
0
LINE
8
0
10
130.85058052
20
136.009783789
11
130.674242254
21
136.152475487
0
LINE
8
0
10
130.674242254
20
136.152475487
11
130.457788941
21
138.419277133
0
LINE
8
0
10
130.457788941
20
138.419277133
11
130.603935963
21
138.592762443
0
LINE
8
0
10
130.603935963
20
138.592762443
11
130.930007508
21
138.756629254
0
LINE
8
0
10
130.930007508
20
138.756629254
11
131.503239814
21
138.932579312
0
LINE
8
0
10
131.503239814
20
138.932579312
11
132.047044639
21
139.13806498
0
LINE
8
0
10
132.047044639
20
139.13806498
11
132.722678359
21
139.443640293
0
LINE
8
0
10
132.722678359
20
139.443640293
11
133.519046815
21
139.866589068
0
LINE
8
0
10
133.519046815
20
139.866589068
11
134.423412301
21
140.423154137
0
LINE
8
0
10
134.423412301
20
140.423154137
11
135.179100861
21
140.957130203
0
LINE
8
0
10
135.179100861
20
140.957130203
11
135.082154113
21
141.972402488
0
LINE
8
0
10
135.082154113
20
141.972402488
11
134.794817775
21
142.950980187
0
LINE
8
0
10
134.794817775
20
142.950980187
11
133.894801892
21
143.165845377
0
LINE
8
0
10
133.894801892
20
143.165845377
11
132.848363635
21
143.346423842
0
LINE
8
0
10
132.848363635
20
143.346423842
11
131.951846518
21
143.443095666
0
LINE
8
0
10
131.951846518
20
143.443095666
11
131.211038966
21
143.4756743
0
LINE
8
0
10
131.211038966
20
143.4756743
11
130.629816696
21
143.464328769
0
LINE
8
0
10
130.629816696
20
143.464328769
11
130.032252175
21
143.414626234
0
LINE
8
0
10
130.032252175
20
143.414626234
11
129.668634668
21
143.445566375
0
LINE
8
0
10
129.668634668
20
143.445566375
11
129.468478482
21
143.552307213
0
LINE
8
0
10
129.468478482
20
143.552307213
11
128.826941731
21
145.737180741
0
LINE
8
0
10
128.826941731
20
145.737180741
11
128.937615375
21
145.935189452
0
LINE
8
0
10
128.937615375
20
145.935189452
11
129.226782384
21
146.157804421
0
LINE
8
0
10
129.226782384
20
146.157804421
11
129.756356868
21
146.439059759
0
LINE
8
0
10
129.756356868
20
146.439059759
11
130.251446013
21
146.743747774
0
LINE
8
0
10
130.251446013
20
146.743747774
11
130.857039644
21
147.171665465
0
LINE
8
0
10
130.857039644
20
147.171665465
11
131.558973102
21
147.737684726
0
LINE
8
0
10
131.558973102
20
147.737684726
11
132.341664894
21
148.455344233
0
LINE
8
0
10
132.341664894
20
148.455344233
11
132.982641542
21
149.122685656
0
LINE
8
0
10
132.982641542
20
149.122685656
11
132.695305205
21
150.101263355
0
LINE
8
0
10
132.695305205
20
150.101263355
11
132.227964361
21
151.00777812
0
LINE
8
0
10
132.227964361
20
151.00777812
11
131.303549434
21
151.048431291
0
LINE
8
0
10
131.303549434
20
151.048431291
11
130.24184698
21
151.027706726
0
LINE
8
0
10
130.24184698
20
151.027706726
11
129.343235832
21
150.952964584
0
LINE
8
0
10
129.343235832
20
150.952964584
11
128.609650091
21
150.844755729
0
LINE
8
0
10
128.609650091
20
150.844755729
11
128.041078421
21
150.723618188
0
LINE
8
0
10
128.041078421
20
150.723618188
11
127.463718935
21
150.561724013
0
LINE
8
0
10
127.463718935
20
150.561724013
11
127.10081701
21
150.523289961
0
LINE
8
0
10
127.10081701
20
150.523289961
11
126.884077071
21
150.590222045
0
LINE
8
0
10
126.884077071
20
150.590222045
11
125.84064369
21
152.614200434
0
LINE
8
0
10
125.84064369
20
152.614200434
11
125.911843923
21
152.829575994
0
LINE
8
0
10
125.911843923
20
152.829575994
11
126.153655147
21
153.102893237
0
LINE
8
0
10
126.153655147
20
153.102893237
11
126.620431608
21
153.479288555
0
LINE
8
0
10
126.620431608
20
153.479288555
11
127.048911261
21
153.872166697
0
LINE
8
0
10
127.048911261
20
153.872166697
11
127.56257707
21
154.406960706
0
LINE
8
0
10
127.56257707
20
154.406960706
11
128.144705827
21
155.095593042
0
LINE
8
0
10
128.144705827
20
155.095593042
11
128.777435403
21
155.948408902
0
LINE
8
0
10
128.777435403
20
155.948408902
11
129.280533575
21
156.724996224
0
LINE
8
0
10
129.280533575
20
156.724996224
11
128.813192731
21
157.63151099
0
LINE
8
0
10
128.813192731
20
157.63151099
11
128.182738299
21
158.433199017
0
LINE
8
0
10
128.182738299
20
158.433199017
11
127.26733509
21
158.298170856
0
LINE
8
0
10
127.26733509
20
158.298170856
11
126.228741132
21
158.076892301
0
LINE
8
0
10
126.228741132
20
158.076892301
11
125.360514102
21
157.833437569
0
LINE
8
0
10
125.360514102
20
157.833437569
11
124.660663871
21
157.588352174
0
LINE
8
0
10
124.660663871
20
157.588352174
11
124.125292462
21
157.361800851
0
LINE
8
0
10
124.125292462
20
157.361800851
11
123.589005289
21
157.093566313
0
LINE
8
0
10
123.589005289
20
157.093566313
11
123.239935166
21
156.987147173
0
LINE
8
0
10
123.239935166
20
156.987147173
11
123.01444502
21
157.011851404
0
LINE
8
0
10
123.01444502
20
157.011851404
11
121.606827411
21
158.801782801
0
LINE
8
0
10
121.606827411
20
158.801782801
11
121.63598087
21
159.026740977
0
LINE
8
0
10
121.63598087
20
159.026740977
11
121.821696622
21
159.340882097
0
LINE
8
0
10
121.821696622
20
159.340882097
11
122.208804542
21
159.798813487
0
LINE
8
0
10
122.208804542
20
159.798813487
11
122.555188332
21
160.265682117
0
LINE
8
0
10
122.555188332
20
160.265682117
11
122.9583611
21
160.888023595
0
LINE
8
0
10
122.9583611
20
160.888023595
11
123.399645505
21
161.674380039
0
LINE
8
0
10
123.399645505
20
161.674380039
11
123.859544371
21
162.631529265
0
LINE
8
0
10
123.859544371
20
162.631529265
11
124.206580786
21
163.489294598
0
LINE
8
0
10
124.206580786
20
163.489294598
11
123.576126353
21
164.290982625
0
LINE
8
0
10
123.576126353
20
164.290982625
11
122.805344596
21
164.958868818
0
LINE
8
0
10
122.805344596
20
164.958868818
11
121.932038163
21
164.653039596
0
LINE
8
0
10
121.932038163
20
164.653039596
11
120.954090193
21
164.239204633
0
LINE
8
0
10
120.954090193
20
164.239204633
11
120.147627267
21
163.8358364
0
LINE
8
0
10
120.147627267
20
163.8358364
11
119.506806958
21
163.462732491
0
LINE
8
0
10
119.506806958
20
163.462732491
11
119.023985528
21
163.138955539
0
LINE
8
0
10
119.023985528
20
163.138955539
11
118.548153482
21
162.774075335
0
LINE
8
0
10
118.548153482
20
162.774075335
11
118.225531466
21
162.603517372
0
LINE
8
0
10
118.225531466
20
162.603517372
11
117.999440914
21
162.585100875
0
LINE
8
0
10
117.999440914
20
162.585100875
11
116.278514045
21
164.076292495
0
LINE
8
0
10
116.278514045
20
164.076292495
11
116.264567049
21
164.302702712
0
LINE
8
0
10
116.264567049
20
164.302702712
11
116.387475078
21
164.64631383
0
LINE
8
0
10
116.387475078
20
164.64631383
11
116.680923367
21
165.169230459
0
LINE
8
0
10
116.680923367
20
165.169230459
11
116.932692082
21
165.693215727
0
LINE
8
0
10
116.932692082
20
165.693215727
11
117.210800093
21
166.380611633
0
LINE
8
0
10
117.210800093
20
166.380611633
11
117.495290979
21
167.236271214
0
LINE
8
0
10
117.495290979
20
167.236271214
11
117.765737191
21
168.263159939
0
LINE
8
0
10
117.765737191
20
168.263159939
11
117.944169049
21
169.171101408
0
LINE
8
0
10
117.944169049
20
169.171101408
11
117.173387292
21
169.838987602
0
LINE
8
0
10
117.173387292
20
169.838987602
11
116.290136273
21
170.348932816
0
LINE
8
0
10
116.290136273
20
170.348932816
11
115.490490186
21
169.883355997
0
LINE
8
0
10
115.490490186
20
169.883355997
11
114.608533792
21
169.291921701
0
LINE
8
0
10
114.608533792
20
169.291921701
11
113.892982641
21
168.743218745
0
LINE
8
0
10
113.892982641
20
168.743218745
11
113.334353169
21
168.255581268
0
LINE
8
0
10
113.334353169
20
168.255581268
11
112.921532142
21
167.846280831
0
LINE
8
0
10
112.921532142
20
167.846280831
11
112.523353034
21
167.397942681
0
LINE
8
0
10
112.523353034
20
167.397942681
11
112.238839525
21
167.169410304
0
LINE
8
0
10
112.238839525
20
167.169410304
11
112.020320069
21
167.108538699
0
LINE
8
0
10
112.020320069
20
167.108538699
11
110.04828272
21
168.247094993
0
LINE
8
0
10
110.04828272
20
168.247094993
11
109.991739349
21
168.466774196
0
LINE
8
0
10
109.991739349
20
168.466774196
11
110.047397438
21
168.827436311
0
LINE
8
0
10
110.047397438
20
168.827436311
11
110.236580112
21
169.396438609
0
LINE
8
0
10
110.236580112
20
169.396438609
11
110.384634174
21
169.958602324
0
LINE
8
0
10
110.384634174
20
169.958602324
11
110.527625881
21
170.686208376
0
LINE
8
0
10
110.527625881
20
170.686208376
11
110.645041005
21
171.580245328
0
LINE
8
0
10
110.645041005
20
171.580245328
11
110.716259933
21
172.639759119
0
LINE
8
0
10
110.716259933
20
172.639759119
11
110.719638242
21
173.565061354
0
LINE
8
0
10
110.719638242
20
173.565061354
11
109.836387222
21
174.075006568
0
LINE
8
0
10
109.836387222
20
174.075006568
11
108.872589933
21
174.408580053
0
LINE
8
0
10
108.872589933
20
174.408580053
11
108.175505485
21
173.800082796
0
LINE
8
0
10
108.175505485
20
173.800082796
11
107.421416868
21
173.052425143
0
LINE
8
0
10
107.421416868
20
173.052425143
11
106.822639377
21
172.378219019
0
LINE
8
0
10
106.822639377
20
172.378219019
11
106.366391066
21
171.793672464
0
LINE
8
0
10
106.366391066
20
171.793672464
11
106.038490869
21
171.313641726
0
LINE
8
0
10
106.038490869
20
171.313641726
11
105.73235593
21
170.798049738
0
LINE
8
0
10
105.73235593
20
170.798049738
11
105.496233987
21
170.519802704
0
LINE
8
0
10
105.496233987
20
170.519802704
11
105.293183489
21
170.418676049
0
LINE
8
0
10
105.293183489
20
170.418676049
11
103.141310229
21
171.163446625
0
LINE
8
0
10
103.141310229
20
171.163446625
11
103.044214108
21
171.368455035
0
LINE
8
0
10
103.044214108
20
171.368455035
11
103.030610628
21
171.733132879
0
LINE
8
0
10
103.030610628
20
171.733132879
11
103.108690132
21
172.32765562
0
LINE
8
0
10
103.108690132
20
172.32765562
11
103.147678482
21
172.90767972
0
LINE
8
0
10
103.147678482
20
172.90767972
11
103.150385791
21
173.649198342
0
LINE
8
0
10
103.150385791
20
173.649198342
11
103.096481465
21
174.54929984
0
LINE
8
0
10
103.096481465
20
174.54929984
11
102.965899071
21
175.603145107
0
LINE
8
0
10
102.965899071
20
175.603145107
11
102.79410173
21
176.512365274
0
LINE
8
0
10
102.79410173
20
176.512365274
11
101.830304441
21
176.845938759
0
LINE
8
0
10
101.830304441
20
176.845938759
11
100.820795028
21
176.9910843
0
LINE
8
0
10
100.820795028
20
176.9910843
11
100.251466667
21
176.261659283
0
LINE
8
0
10
100.251466667
20
176.261659283
11
99.6525005544
21
175.384800568
0
LINE
8
0
10
99.6525005544
20
175.384800568
11
99.1921381003
21
174.609458841
0
LINE
8
0
10
99.1921381003
20
174.609458841
11
98.8547609537
21
173.949130244
0
LINE
8
0
10
98.8547609537
20
173.949130244
11
98.6236327555
21
173.415718767
0
LINE
8
0
10
98.6236327555
20
173.415718767
11
98.4206064983
21
172.851507779
0
LINE
8
0
10
98.4206064983
20
172.851507779
11
98.241410184
21
172.53360266
0
LINE
8
0
10
98.241410184
20
172.53360266
11
98.0611674186
21
172.395875936
0
LINE
8
0
10
98.0611674186
20
172.395875936
11
95.8072325534
21
172.719942846
0
LINE
8
0
10
95.8072325534
20
172.719942846
11
95.6730929886
21
172.902870925
0
LINE
8
0
10
95.6730929886
20
172.902870925
11
95.5907196063
21
173.258384089
0
LINE
8
0
10
95.5907196063
20
173.258384089
11
95.554873943
21
173.856939673
0
LINE
8
0
10
95.554873943
20
173.856939673
11
95.4833874401
21
174.433860576
0
LINE
8
0
10
95.4833874401
20
174.433860576
11
95.3457125026
21
175.162491352
0
LINE
8
0
10
95.3457125026
20
175.162491352
11
95.1224369698
21
176.036125382
0
LINE
8
0
10
95.1224369698
20
176.036125382
11
94.7947728412
21
177.046213412
0
LINE
8
0
10
94.7947728412
20
177.046213412
11
94.4540090542
21
177.906489926
0
LINE
8
0
10
94.4540090542
20
177.906489926
11
93.4444996407
21
178.051635467
0
LINE
8
0
10
93.4444996407
20
178.051635467
11
92.4257644031
21
178.003107126
0
LINE
8
0
10
92.4257644031
20
178.003107126
11
92.0047691394
21
177.179117668
0
LINE
8
0
10
92.0047691394
20
177.179117668
11
91.5825737279
21
176.204749851
0
LINE
8
0
10
91.5825737279
20
176.204749851
11
91.2772650097
21
175.356295392
0
LINE
8
0
10
91.2772650097
20
175.356295392
11
91.0709527165
21
174.644050748
0
LINE
8
0
10
91.0709527165
20
174.644050748
11
90.9449500916
21
174.076537412
0
LINE
8
0
10
90.9449500916
20
174.076537412
11
90.8523704148
21
173.48409948
0
LINE
8
0
10
90.8523704148
20
173.48409948
11
90.7365763508
21
173.138026195
0
LINE
8
0
10
90.7365763508
20
173.138026195
11
90.5856557609
21
172.968677205
0
LINE
8
0
10
90.5856557609
20
172.968677205
11
88.3111223691
21
172.860327825
0
LINE
8
0
10
88.3111223691
20
172.860327825
11
88.1447875144
21
173.014564076
0
LINE
8
0
10
88.1447875144
20
173.014564076
11
87.9966214177
21
173.348063389
0
LINE
8
0
10
87.9966214177
20
173.348063389
11
87.8481461431
21
173.929018458
0
LINE
8
0
10
87.8481461431
20
173.929018458
11
87.6687684957
21
174.481984739
0
LINE
8
0
10
87.6687684957
20
174.481984739
11
87.3956872427
21
175.171393054
0
LINE
8
0
10
87.3956872427
20
175.171393054
11
87.0111102622
21
175.986984207
0
LINE
8
0
10
87.0111102622
20
175.986984207
11
86.4982070348
21
176.916807786
0
LINE
8
0
10
86.4982070348
20
176.916807786
11
86.0007928926
21
177.697048012
0
LINE
8
0
10
86.0007928926
20
177.697048012
11
84.9820576551
21
177.648519671
0
LINE
8
0
10
84.9820576551
20
177.648519671
11
83.9909163392
21
177.40807139
0
LINE
8
0
10
83.9909163392
20
177.40807139
11
83.7334700386
21
176.519298617
0
LINE
8
0
10
83.7334700386
20
176.519298617
11
83.50330457
21
175.482637889
0
LINE
8
0
10
83.50330457
20
175.482637889
11
83.3640842403
21
174.591736052
0
LINE
8
0
10
83.3640842403
20
174.591736052
11
83.2962934642
21
173.853317738
0
LINE
8
0
10
83.2962934642
20
173.853317738
11
83.279970476
21
173.272213954
0
LINE
8
0
10
83.279970476
20
173.272213954
11
83.3011834502
21
172.672961329
0
LINE
8
0
10
83.3011834502
20
172.672961329
11
83.2529767357
21
172.311227868
0
LINE
8
0
10
83.2529767357
20
172.311227868
11
83.1368329846
21
172.116377325
0
LINE
8
0
10
83.1368329846
20
172.116377325
11
80.9239086292
21
171.579527685
0
LINE
8
0
10
80.9239086292
20
171.579527685
11
80.7313902596
21
171.699497608
0
LINE
8
0
10
80.7313902596
20
171.699497608
11
80.5227865573
21
171.998929536
0
LINE
8
0
10
80.5227865573
20
171.998929536
11
80.2670479547
21
172.541286859
0
LINE
8
0
10
80.2670479547
20
172.541286859
11
79.9862623383
21
173.050312876
0
LINE
8
0
10
79.9862623383
20
173.050312876
11
79.5876446378
21
173.675581718
0
LINE
8
0
10
79.5876446378
20
173.675581718
11
79.0556658238
21
174.403652404
0
LINE
8
0
10
79.0556658238
20
174.403652404
11
78.3760611565
21
175.219605285
0
LINE
8
0
10
78.3760611565
20
175.219605285
11
77.7399745022
21
175.891609309
0
LINE
8
0
10
77.7399745022
20
175.891609309
11
76.7488331864
21
175.651161027
0
LINE
8
0
10
76.7488331864
20
175.651161027
11
75.8211082218
21
175.227483232
0
LINE
8
0
10
75.8211082218
20
175.227483232
11
75.7365156643
21
174.306049708
0
LINE
8
0
10
75.7365156643
20
174.306049708
11
75.7066989184
21
173.244563689
0
LINE
8
0
10
75.7066989184
20
173.244563689
11
75.7385987627
21
172.343413988
0
LINE
8
0
10
75.7385987627
20
172.343413988
11
75.8117796391
21
171.605510366
0
LINE
8
0
10
75.8117796391
20
171.605510366
11
75.9057262427
21
171.031818739
0
LINE
8
0
10
75.9057262427
20
171.031818739
11
76.0399651759
21
170.447409971
0
LINE
8
0
10
76.0399651759
20
170.447409971
11
76.0610881271
21
170.083090324
0
LINE
8
0
10
76.0610881271
20
170.083090324
11
75.9839189525
21
169.869780635
0
LINE
8
0
10
75.9839189525
20
169.869780635
11
73.9125844855
21
168.92383388
0
LINE
8
0
10
73.9125844855
20
168.92383388
11
73.7008407165
21
169.005201448
0
LINE
8
0
10
73.7008407165
20
169.005201448
11
73.4393388899
21
169.259743741
0
LINE
8
0
10
73.4393388899
20
169.259743741
11
73.0855800186
21
169.743901112
0
LINE
8
0
10
73.0855800186
20
169.743901112
11
72.7135347571
21
170.190589338
0
LINE
8
0
10
72.7135347571
20
170.190589338
11
72.2037876913
21
170.729119862
0
LINE
8
0
10
72.2037876913
20
170.729119862
11
71.5436341441
21
171.34335571
0
LINE
8
0
10
71.5436341441
20
171.34335571
11
70.7218907204
21
172.015947231
0
LINE
8
0
10
70.7218907204
20
172.015947231
11
69.970121383
21
172.555427075
0
LINE
8
0
10
69.970121383
20
172.555427075
11
69.0423964184
21
172.13174928
0
LINE
8
0
10
69.0423964184
20
172.13174928
11
68.2116182024
21
171.54015479
0
LINE
8
0
10
68.2116182024
20
171.54015479
11
68.3029367836
21
170.619363524
0
LINE
8
0
10
68.3029367836
20
170.619363524
11
68.4745464153
21
169.571417083
0
LINE
8
0
10
68.4745464153
20
169.571417083
11
68.67641349
21
168.692589417
0
LINE
8
0
10
68.67641349
20
168.692589417
11
68.8879210713
21
167.981870247
0
LINE
8
0
10
68.8879210713
20
167.981870247
11
69.0887417917
21
167.436325486
0
LINE
8
0
10
69.0887417917
20
167.436325486
11
69.3311549391
21
166.887882631
0
LINE
8
0
10
69.3311549391
20
166.887882631
11
69.4208441175
21
166.53414426
0
LINE
8
0
10
69.4208441175
20
166.53414426
11
69.3854386145
21
166.310084992
0
LINE
8
0
10
69.3854386145
20
166.310084992
11
67.5305574603
21
164.989230102
0
LINE
8
0
10
67.5305574603
20
164.989230102
11
67.3072412634
21
165.029054481
0
LINE
8
0
10
67.3072412634
20
165.029054481
11
67.0022926699
21
165.229507317
0
LINE
8
0
10
67.0022926699
20
165.229507317
11
66.5632992973
21
165.637966027
0
LINE
8
0
10
66.5632992973
20
165.637966027
11
66.1134410758
21
166.006171986
0
LINE
8
0
10
66.1134410758
20
166.006171986
11
65.5109882318
21
166.438500295
0
LINE
8
0
10
65.5109882318
20
166.438500295
11
64.7465196206
21
166.916701221
0
LINE
8
0
10
64.7465196206
20
166.916701221
11
63.8123373888
21
167.421622171
0
LINE
8
0
10
63.8123373888
20
167.421622171
11
62.9720562709
21
167.809079629
0
LINE
8
0
10
62.9720562709
20
167.809079629
11
62.1412780549
21
167.21748514
0
LINE
8
0
10
62.1412780549
20
167.21748514
11
61.4374730769
21
166.479355722
0
LINE
8
0
10
61.4374730769
20
166.479355722
11
61.7014023052
21
165.592486509
0
LINE
8
0
10
61.7014023052
20
165.592486509
11
62.0682358952
21
164.595955162
0
LINE
8
0
10
62.0682358952
20
164.595955162
11
62.4327741983
21
163.771212651
0
LINE
8
0
10
62.4327741983
20
163.771212651
11
62.7749640495
21
163.113365175
0
LINE
8
0
10
62.7749640495
20
163.113365175
11
63.0754007027
21
162.61568469
0
LINE
8
0
10
63.0754007027
20
162.61568469
11
63.4172266214
21
162.123029902
0
LINE
8
0
10
63.4172266214
20
162.123029902
11
63.5722404265
21
161.792657833
0
LINE
8
0
10
63.5722404265
20
161.792657833
11
63.5798782423
21
161.565947073
0
LINE
8
0
10
63.5798782423
20
161.565947073
11
62.0084906385
21
159.917923184
0
LINE
8
0
10
62.0084906385
20
159.917923184
11
61.781673243
21
159.914765016
0
LINE
8
0
10
61.781673243
20
159.914765016
11
61.4442995192
21
160.053883508
0
LINE
8
0
10
61.4442995192
20
160.053883508
11
60.9359380096
21
160.371880795
0
LINE
8
0
10
60.9359380096
20
160.371880795
11
60.4245258763
21
160.648296564
0
LINE
8
0
10
60.4245258763
20
160.648296564
11
59.7511414695
21
160.958797187
0
LINE
8
0
10
59.7511414695
20
160.958797187
11
58.9099876818
21
161.283679763
0
LINE
8
0
10
58.9099876818
20
161.283679763
11
57.8971304218
21
161.602680985
0
LINE
8
0
10
57.8971304218
20
161.602680985
11
56.9987074722
21
161.824112334
0
LINE
8
0
10
56.9987074722
20
161.824112334
11
56.2949024942
21
161.085982917
0
LINE
8
0
10
56.2949024942
20
161.085982917
11
55.7435080998
21
160.227996492
0
LINE
8
0
10
55.7435080998
20
160.227996492
11
56.1705088853
21
159.407103095
0
LINE
8
0
10
56.1705088853
20
159.407103095
11
56.7193081119
21
158.498004081
0
LINE
8
0
10
56.7193081119
20
158.498004081
11
57.2333422794
21
157.75715507
0
LINE
8
0
10
57.2333422794
20
157.75715507
11
57.6938467675
21
157.17595561
0
LINE
8
0
10
57.6938467675
20
157.17595561
11
58.0830407902
21
156.74412687
0
LINE
8
0
10
58.0830407902
20
156.74412687
11
58.511925001
21
156.325065976
0
LINE
8
0
10
58.511925001
20
156.325065976
11
58.7266608299
21
156.030000716
0
LINE
8
0
10
58.7266608299
20
156.030000716
11
58.7770659138
21
155.808832381
0
LINE
8
0
10
58.7770659138
20
155.808832381
11
57.5459659028
21
153.893203371
0
LINE
8
0
10
57.5459659028
20
153.893203371
11
57.3238450802
21
153.847176802
0
LINE
8
0
10
57.3238450802
20
153.847176802
11
56.9662397916
21
153.919932843
0
LINE
8
0
10
56.9662397916
20
153.919932843
11
56.4068836544
21
154.135975457
0
LINE
8
0
10
56.4068836544
20
154.135975457
11
55.8524013762
21
154.310610651
0
LINE
8
0
10
55.8524013762
20
154.310610651
11
55.1324232737
21
154.488061286
0
LINE
8
0
10
55.1324232737
20
154.488061286
11
54.2449857989
21
154.64788341
0
LINE
8
0
10
54.2449857989
20
154.64788341
11
53.190060811
21
154.769435367
0
LINE
8
0
10
53.190060811
20
154.769435367
11
52.2659673761
21
154.816837502
0
LINE
8
0
10
52.2659673761
20
154.816837502
11
51.7145729816
21
153.958851077
0
LINE
8
0
10
51.7145729816
20
153.958851077
11
51.3355180008
21
153.012017509
0
LINE
8
0
10
51.3355180008
20
153.012017509
11
51.9101574227
21
152.286769156
0
LINE
8
0
10
51.9101574227
20
152.286769156
11
52.621087252
21
151.497959682
0
LINE
8
0
10
52.621087252
20
151.497959682
11
53.2660387496
21
150.867780383
0
LINE
8
0
10
53.2660387496
20
150.867780383
11
53.8282140428
21
150.384235002
0
LINE
8
0
10
53.8282140428
20
150.384235002
11
54.2920989488
21
150.033865423
0
LINE
8
0
10
54.2920989488
20
150.033865423
11
54.7925404588
21
149.703544376
0
LINE
8
0
10
54.7925404588
20
149.703544376
11
55.0592371993
21
149.454450352
0
LINE
8
0
10
55.0592371993
20
149.454450352
11
55.1505877803
21
149.246818042
0
LINE
8
0
10
55.1505877803
20
149.246818042
11
54.304270524
21
147.132819735
0
LINE
8
0
10
54.304270524
20
147.132819735
11
54.0948742997
21
147.045588283
0
LINE
8
0
10
54.0948742997
20
147.045588283
11
53.7299622331
21
147.049352283
0
LINE
8
0
10
53.7299622331
20
147.049352283
11
53.1398280565
21
147.15563188
0
LINE
8
0
10
53.1398280565
20
147.15563188
11
52.5623160677
21
147.222174727
0
LINE
8
0
10
52.5623160677
20
147.222174727
11
51.8217661539
21
147.260161846
0
LINE
8
0
10
51.8217661539
20
147.260161846
11
50.9201192946
21
147.24914713
0
LINE
8
0
10
50.9201192946
20
147.24914713
11
49.8612543164
21
147.168856618
0
LINE
8
0
10
49.8612543164
20
147.168856618
11
48.9448895405
21
147.040516303
0
LINE
8
0
10
48.9448895405
20
147.040516303
11
48.5658345597
21
146.093682735
0
LINE
8
0
10
48.5658345597
20
146.093682735
11
48.3728190272
21
145.092223056
0
LINE
8
0
10
48.3728190272
20
145.092223056
11
49.0743281194
21
144.488832111
0
LINE
8
0
10
49.0743281194
20
144.488832111
11
49.921693695
21
143.848821806
0
LINE
8
0
10
49.921693695
20
143.848821806
11
50.6742522954
21
143.352088542
0
LINE
8
0
10
50.6742522954
20
143.352088542
11
51.3177799138
21
142.98367383
0
LINE
8
0
10
51.3177799138
20
142.98367383
11
51.8395896939
21
142.727426681
0
LINE
8
0
10
51.8395896939
20
142.727426681
11
52.3935012432
21
142.497784144
0
LINE
8
0
10
52.3935012432
20
142.497784144
11
52.70251978
21
142.303664264
0
LINE
8
0
10
52.70251978
20
142.303664264
11
52.8315142101
21
142.117072351
0
LINE
8
0
10
52.8315142101
20
142.117072351
11
52.4005678193
21
139.881110154
0
LINE
8
0
10
52.4005678193
20
139.881110154
11
52.2114643183
21
139.755826592
0
LINE
8
0
10
52.2114643183
20
139.755826592
11
51.8524343466
21
139.690462508
0
LINE
8
0
10
51.8524343466
20
139.690462508
11
51.2528511173
21
139.683137868
0
LINE
8
0
10
51.2528511173
20
139.683137868
11
50.6731822059
21
139.639183336
0
LINE
8
0
10
50.6731822059
20
139.639183336
11
49.9388258842
21
139.536333986
0
LINE
8
0
10
49.9388258842
20
139.536333986
11
49.0555575071
21
139.35488053
0
LINE
8
0
10
49.0555575071
20
139.35488053
11
48.0310226778
21
139.075649457
0
LINE
8
0
10
48.0310226778
20
139.075649457
11
47.1555063715
21
138.776205245
0
LINE
8
0
10
47.1555063715
20
138.776205245
11
46.962490839
21
137.774745566
0
LINE
8
0
10
46.962490839
20
137.774745566
11
46.962490839
21
136.754855138
0
LINE
8
0
10
46.962490839
20
136.754855138
11
47.7655152352
21
136.295129722
0
LINE
8
0
10
47.7655152352
20
136.295129722
11
48.7186905575
21
135.827050228
0
LINE
8
0
10
48.7186905575
20
135.827050228
11
49.5516568319
21
135.481716232
0
LINE
8
0
10
49.5516568319
20
135.481716232
11
50.2532780107
21
135.241747656
0
LINE
8
0
10
50.2532780107
20
135.241747656
11
50.8141531
21
135.088884377
0
LINE
8
0
10
50.8141531
20
135.088884377
11
51.4015148819
21
134.96822023
0
LINE
8
0
10
51.4015148819
20
134.96822023
11
51.7416864801
21
134.836090492
0
LINE
8
0
10
51.7416864801
20
134.836090492
11
51.9036625645
21
134.677282894
0
LINE
8
0
10
51.9036625645
20
134.677282894
11
51.9036625645
21
132.400170306
0
LINE
8
0
10
51.9036625645
20
132.400170306
11
51.7416864801
21
132.241362709
0
LINE
8
0
10
51.7416864801
20
132.241362709
11
51.4015148819
21
132.10923297
0
LINE
8
0
10
51.4015148819
20
132.10923297
11
50.8141531
21
131.988568823
0
LINE
8
0
10
50.8141531
20
131.988568823
11
50.2532780107
21
131.835705545
0
LINE
8
0
10
50.2532780107
20
131.835705545
11
49.5516568319
21
131.595736968
0
LINE
8
0
10
49.5516568319
20
131.595736968
11
48.7186905575
21
131.250402973
0
LINE
8
0
10
48.7186905575
20
131.250402973
11
47.7655152352
21
130.782323478
0
LINE
8
0
10
47.7655152352
20
130.782323478
11
46.962490839
21
130.322598062
0
LINE
8
0
10
46.962490839
20
130.322598062
11
46.962490839
21
129.302707635
0
LINE
8
0
10
46.962490839
20
129.302707635
11
47.1555063715
21
128.301247956
0
LINE
8
0
10
47.1555063715
20
128.301247956
11
48.0310226778
21
128.001803743
0
LINE
8
0
10
48.0310226778
20
128.001803743
11
49.0555575071
21
127.722572671
0
LINE
8
0
10
49.0555575071
20
127.722572671
11
49.9388258842
21
127.541119214
0
LINE
8
0
10
49.9388258842
20
127.541119214
11
50.6731822059
21
127.438269864
0
LINE
8
0
10
50.6731822059
20
127.438269864
11
51.2528511173
21
127.394315333
0
LINE
8
0
10
51.2528511173
20
127.394315333
11
51.8524343466
21
127.386990692
0
LINE
8
0
10
51.8524343466
20
127.386990692
11
52.2114643183
21
127.321626608
0
LINE
8
0
10
52.2114643183
20
127.321626608
11
52.4005678193
21
127.196343046
0
LINE
8
0
10
52.4005678193
20
127.196343046
11
52.8315142101
21
124.960380849
0
LINE
8
0
10
52.8315142101
20
124.960380849
11
52.70251978
21
124.773788937
0
LINE
8
0
10
52.70251978
20
124.773788937
11
52.3935012432
21
124.579669056
0
LINE
8
0
10
52.3935012432
20
124.579669056
11
51.8395896939
21
124.350026519
0
LINE
8
0
10
51.8395896939
20
124.350026519
11
51.3177799138
21
124.093779371
0
LINE
8
0
10
51.3177799138
20
124.093779371
11
50.6742522954
21
123.725364658
0
LINE
8
0
10
50.6742522954
20
123.725364658
11
49.921693695
21
123.228631394
0
LINE
8
0
10
49.921693695
20
123.228631394
11
49.0743281194
21
122.58862109
0
LINE
8
0
10
49.0743281194
20
122.58862109
11
48.3728190272
21
121.985230145
0
LINE
8
0
10
48.3728190272
20
121.985230145
11
48.5658345597
21
120.983770466
0
LINE
8
0
10
48.5658345597
20
120.983770466
11
48.9448895405
21
120.036936898
0
LINE
8
0
10
48.9448895405
20
120.036936898
11
49.8612543164
21
119.908596583
0
LINE
8
0
10
49.8612543164
20
119.908596583
11
50.9201192946
21
119.828306071
0
LINE
8
0
10
50.9201192946
20
119.828306071
11
51.8217661539
21
119.817291354
0
LINE
8
0
10
51.8217661539
20
119.817291354
11
52.5623160677
21
119.855278473
0
LINE
8
0
10
52.5623160677
20
119.855278473
11
53.1398280565
21
119.92182132
0
LINE
8
0
10
53.1398280565
20
119.92182132
11
53.7299622331
21
120.028100918
0
LINE
8
0
10
53.7299622331
20
120.028100918
11
54.0948742997
21
120.031864917
0
LINE
8
0
10
54.0948742997
20
120.031864917
11
54.304270524
21
119.944633465
0
LINE
8
0
10
54.304270524
20
119.944633465
11
55.1505877803
21
117.830635159
0
LINE
8
0
10
55.1505877803
20
117.830635159
11
55.0592371993
21
117.623002848
0
LINE
8
0
10
55.0592371993
20
117.623002848
11
54.7925404588
21
117.373908825
0
LINE
8
0
10
54.7925404588
20
117.373908825
11
54.2920989488
21
117.043587777
0
LINE
8
0
10
54.2920989488
20
117.043587777
11
53.8282140428
21
116.693218199
0
LINE
8
0
10
53.8282140428
20
116.693218199
11
53.2660387496
21
116.209672817
0
LINE
8
0
10
53.2660387496
20
116.209672817
11
52.621087252
21
115.579493519
0
LINE
8
0
10
52.621087252
20
115.579493519
11
51.9101574227
21
114.790684045
0
LINE
8
0
10
51.9101574227
20
114.790684045
11
51.3355180008
21
114.065435691
0
LINE
8
0
10
51.3355180008
20
114.065435691
11
51.7145729816
21
113.118602123
0
LINE
8
0
10
51.7145729816
20
113.118602123
11
52.2659673761
21
112.260615698
0
LINE
8
0
10
52.2659673761
20
112.260615698
11
53.190060811
21
112.308017834
0
LINE
8
0
10
53.190060811
20
112.308017834
11
54.2449857989
21
112.429569791
0
LINE
8
0
10
54.2449857989
20
112.429569791
11
55.1324232737
21
112.589391914
0
LINE
8
0
10
55.1324232737
20
112.589391914
11
55.8524013762
21
112.76684255
0
LINE
8
0
10
55.8524013762
20
112.76684255
11
56.4068836544
21
112.941477743
0
LINE
8
0
10
56.4068836544
20
112.941477743
11
56.9662397916
21
113.157520357
0
LINE
8
0
10
56.9662397916
20
113.157520357
11
57.3238450802
21
113.230276399
0
LINE
8
0
10
57.3238450802
20
113.230276399
11
57.5459659028
21
113.184249829
0
LINE
8
0
10
57.5459659028
20
113.184249829
11
58.7770659138
21
111.26862082
0
LINE
8
0
10
58.7770659138
20
111.26862082
11
58.7266608299
21
111.047452485
0
LINE
8
0
10
58.7266608299
20
111.047452485
11
58.511925001
21
110.752387224
0
LINE
8
0
10
58.511925001
20
110.752387224
11
58.0830407902
21
110.33332633
0
LINE
8
0
10
58.0830407902
20
110.33332633
11
57.6938467675
21
109.90149759
0
LINE
8
0
10
57.6938467675
20
109.90149759
11
57.2333422794
21
109.32029813
0
LINE
8
0
10
57.2333422794
20
109.32029813
11
56.7193081119
21
108.579449119
0
LINE
8
0
10
56.7193081119
20
108.579449119
11
56.1705088853
21
107.670350105
0
LINE
8
0
10
56.1705088853
20
107.670350105
11
55.7435080998
21
106.849456709
0
LINE
8
0
10
55.7435080998
20
106.849456709
11
56.2949024942
21
105.991470284
0
LINE
8
0
10
56.2949024942
20
105.991470284
11
56.9987074722
21
105.253340866
0
LINE
8
0
10
56.9987074722
20
105.253340866
11
57.8971304218
21
105.474772216
0
LINE
8
0
10
57.8971304218
20
105.474772216
11
58.9099876818
21
105.793773437
0
LINE
8
0
10
58.9099876818
20
105.793773437
11
59.7511414695
21
106.118656013
0
LINE
8
0
10
59.7511414695
20
106.118656013
11
60.4245258763
21
106.429156636
0
LINE
8
0
10
60.4245258763
20
106.429156636
11
60.9359380096
21
106.705572406
0
LINE
8
0
10
60.9359380096
20
106.705572406
11
61.4442995192
21
107.023569693
0
LINE
8
0
10
61.4442995192
20
107.023569693
11
61.781673243
21
107.162688184
0
LINE
8
0
10
61.781673243
20
107.162688184
11
62.0084906385
21
107.159530016
0
LINE
8
0
10
62.0084906385
20
107.159530016
11
63.5798782423
21
105.511506128
0
LINE
8
0
10
63.5798782423
20
105.511506128
11
63.5722404265
21
105.284795368
0
LINE
8
0
10
63.5722404265
20
105.284795368
11
63.4172266214
21
104.954423298
0
LINE
8
0
10
63.4172266214
20
104.954423298
11
63.0754007027
21
104.46176851
0
LINE
8
0
10
63.0754007027
20
104.46176851
11
62.7749640495
21
103.964088025
0
LINE
8
0
10
62.7749640495
20
103.964088025
11
62.4327741983
21
103.306240549
0
LINE
8
0
10
62.4327741983
20
103.306240549
11
62.0682358952
21
102.481498039
0
LINE
8
0
10
62.0682358952
20
102.481498039
11
61.7014023052
21
101.484966691
0
LINE
8
0
10
61.7014023052
20
101.484966691
11
61.4374730769
21
100.598097478
0
LINE
8
0
10
61.4374730769
20
100.598097478
11
62.1412780549
21
99.8599680607
0
LINE
8
0
10
62.1412780549
20
99.8599680607
11
62.9720562709
21
99.2683735712
0
LINE
8
0
10
62.9720562709
20
99.2683735712
11
63.8123373888
21
99.6558310293
0
LINE
8
0
10
63.8123373888
20
99.6558310293
11
64.7465196206
21
100.16075198
0
LINE
8
0
10
64.7465196206
20
100.16075198
11
65.5109882318
21
100.638952906
0
LINE
8
0
10
65.5109882318
20
100.638952906
11
66.1134410758
21
101.071281215
0
LINE
8
0
10
66.1134410758
20
101.071281215
11
66.5632992973
21
101.439487174
0
LINE
8
0
10
66.5632992973
20
101.439487174
11
67.0022926699
21
101.847945884
0
LINE
8
0
10
67.0022926699
20
101.847945884
11
67.3072412634
21
102.04839872
0
LINE
8
0
10
67.3072412634
20
102.04839872
11
67.5305574603
21
102.088223098
0
LINE
8
0
10
67.5305574603
20
102.088223098
11
69.3854386145
21
100.767368208
0
LINE
8
0
10
69.3854386145
20
100.767368208
11
69.4208441175
21
100.543308941
0
LINE
8
0
10
69.4208441175
20
100.543308941
11
69.3311549391
21
100.189570569
0
LINE
8
0
10
69.3311549391
20
100.189570569
11
69.0887417917
21
99.6411277143
0
LINE
8
0
10
69.0887417917
20
99.6411277143
11
68.8879210713
21
99.0955829536
0
LINE
8
0
10
68.8879210713
20
99.0955829536
11
68.67641349
21
98.3848637833
0
LINE
8
0
10
68.67641349
20
98.3848637833
11
68.4745464153
21
97.506036117
0
LINE
8
0
10
68.4745464153
20
97.506036117
11
68.3029367836
21
96.4580896762
0
LINE
8
0
10
68.3029367836
20
96.4580896762
11
68.2116182024
21
95.5372984101
0
LINE
8
0
10
68.2116182024
20
95.5372984101
11
69.0423964184
21
94.9457039207
0
LINE
8
0
10
69.0423964184
20
94.9457039207
11
69.970121383
21
94.5220261255
0
LINE
8
0
10
69.970121383
20
94.5220261255
11
70.7218907204
21
95.0615059696
0
LINE
8
0
10
70.7218907204
20
95.0615059696
11
71.5436341441
21
95.7340974906
0
LINE
8
0
10
71.5436341441
20
95.7340974906
11
72.2037876913
21
96.3483333386
0
LINE
8
0
10
72.2037876913
20
96.3483333386
11
72.7135347571
21
96.8868638622
0
LINE
8
0
10
72.7135347571
20
96.8868638622
11
73.0855800186
21
97.3335520881
0
LINE
8
0
10
73.0855800186
20
97.3335520881
11
73.4393388899
21
97.8177094594
0
LINE
8
0
10
73.4393388899
20
97.8177094594
11
73.7008407165
21
98.072251752
0
LINE
8
0
10
73.7008407165
20
98.072251752
11
73.9125844855
21
98.1536193207
0
LINE
8
0
10
73.9125844855
20
98.1536193207
11
75.9839189525
21
97.2076725654
0
LINE
8
0
10
75.9839189525
20
97.2076725654
11
76.0610881271
21
96.9943628764
0
LINE
8
0
10
76.0610881271
20
96.9943628764
11
76.0399651759
21
96.6300432296
0
LINE
8
0
10
76.0399651759
20
96.6300432296
11
75.9057262427
21
96.0456344618
0
LINE
8
0
10
75.9057262427
20
96.0456344618
11
75.8117796391
21
95.4719428343
0
LINE
8
0
10
75.8117796391
20
95.4719428343
11
75.7385987627
21
94.7340392123
0
LINE
8
0
10
75.7385987627
20
94.7340392123
11
75.7066989184
21
93.8328895118
0
LINE
8
0
10
75.7066989184
20
93.8328895118
11
75.7365156643
21
92.771403492
0
LINE
8
0
10
75.7365156643
20
92.771403492
11
75.8211082218
21
91.8499699686
0
LINE
8
0
10
75.8211082218
20
91.8499699686
11
76.7488331864
21
91.4262921734
0
LINE
8
0
10
76.7488331864
20
91.4262921734
11
77.7399745022
21
91.1858438918
0
LINE
8
0
10
77.7399745022
20
91.1858438918
11
78.3760611565
21
91.857847915
0
LINE
8
0
10
78.3760611565
20
91.857847915
11
79.0556658238
21
92.6738007964
0
LINE
8
0
10
79.0556658238
20
92.6738007964
11
79.5876446378
21
93.4018714828
0
LINE
8
0
10
79.5876446378
20
93.4018714828
11
79.9862623383
21
94.0271403248
0
LINE
8
0
10
79.9862623383
20
94.0271403248
11
80.2670479547
21
94.5361663412
0
LINE
8
0
10
80.2670479547
20
94.5361663412
11
80.5227865573
21
95.0785236647
0
LINE
8
0
10
80.5227865573
20
95.0785236647
11
80.7313902596
21
95.3779555926
0
LINE
8
0
10
80.7313902596
20
95.3779555926
11
80.9239086292
21
95.497925515
0
LINE
8
0
10
80.9239086292
20
95.497925515
11
83.1368329846
21
94.9610758753
0
LINE
8
0
10
83.1368329846
20
94.9610758753
11
83.2529767357
21
94.7662253325
0
LINE
8
0
10
83.2529767357
20
94.7662253325
11
83.3011834502
21
94.4044918716
0
LINE
8
0
10
83.3011834502
20
94.4044918716
11
83.279970476
21
93.8052392464
0
LINE
8
0
10
83.279970476
20
93.8052392464
11
83.2962934642
21
93.2241354624
0
LINE
8
0
10
83.2962934642
20
93.2241354624
11
83.3640842403
21
92.4857171482
0
LINE
8
0
10
83.3640842403
20
92.4857171482
11
83.50330457
21
91.5948153115
0
LINE
8
0
10
83.50330457
20
91.5948153115
11
83.7334700386
21
90.5581545832
0
LINE
8
0
10
83.7334700386
20
90.5581545832
11
83.9909163392
21
89.6693818107
0
LINE
8
0
10
83.9909163392
20
89.6693818107
11
84.9820576551
21
89.4289335291
0
LINE
8
0
10
84.9820576551
20
89.4289335291
11
86.0007928926
21
89.3804051887
0
LINE
8
0
10
86.0007928926
20
89.3804051887
11
86.4982070348
21
90.1606454145
0
LINE
8
0
10
86.4982070348
20
90.1606454145
11
87.0111102622
21
91.0904689934
0
LINE
8
0
10
87.0111102622
20
91.0904689934
11
87.3956872427
21
91.9060601465
0
LINE
8
0
10
87.3956872427
20
91.9060601465
11
87.6687684957
21
92.5954684618
0
LINE
8
0
10
87.6687684957
20
92.5954684618
11
87.8481461431
21
93.1484347423
0
LINE
8
0
10
87.8481461431
20
93.1484347423
11
87.9966214177
21
93.7293898111
0
LINE
8
0
10
87.9966214177
20
93.7293898111
11
88.1447875144
21
94.0628891242
0
LINE
8
0
10
88.1447875144
20
94.0628891242
11
88.3111223691
21
94.2171253749
0
LINE
8
0
10
88.3111223691
20
94.2171253749
11
90.5856557609
21
94.1087759954
0
LINE
8
0
10
90.5856557609
20
94.1087759954
11
90.7365763508
21
93.9394270053
0
LINE
8
0
10
90.7365763508
20
93.9394270053
11
90.8523704148
21
93.59335372
0
LINE
8
0
10
90.8523704148
20
93.59335372
11
90.9449500916
21
93.0009157885
0
LINE
8
0
10
90.9449500916
20
93.0009157885
11
91.0709527165
21
92.4334024528
0
LINE
8
0
10
91.0709527165
20
92.4334024528
11
91.2772650097
21
91.7211578083
0
LINE
8
0
10
91.2772650097
20
91.7211578083
11
91.5825737279
21
90.872703349
0
LINE
8
0
10
91.5825737279
20
90.872703349
11
92.0047691394
21
89.8983355319
0
LINE
8
0
10
92.0047691394
20
89.8983355319
11
92.4257644031
21
89.0743460739
0
LINE
8
0
10
92.4257644031
20
89.0743460739
11
93.4444996407
21
89.0258177335
0
LINE
8
0
10
93.4444996407
20
89.0258177335
11
94.4540090542
21
89.1709632747
0
LINE
8
0
10
94.4540090542
20
89.1709632747
11
94.7947728412
21
90.0312397886
0
LINE
8
0
10
94.7947728412
20
90.0312397886
11
95.1224369698
21
91.0413278181
0
LINE
8
0
10
95.1224369698
20
91.0413278181
11
95.3457125026
21
91.9149618486
0
LINE
8
0
10
95.3457125026
20
91.9149618486
11
95.4833874401
21
92.6435926245
0
LINE
8
0
10
95.4833874401
20
92.6435926245
11
95.554873943
21
93.2205135269
0
LINE
8
0
10
95.554873943
20
93.2205135269
11
95.5907196063
21
93.8190691113
0
LINE
8
0
10
95.5907196063
20
93.8190691113
11
95.6730929886
21
94.1745822755
0
LINE
8
0
10
95.6730929886
20
94.1745822755
11
95.8072325534
21
94.3575103545
0
LINE
8
0
10
95.8072325534
20
94.3575103545
11
98.0611674186
21
94.6815772642
0
LINE
8
0
10
98.0611674186
20
94.6815772642
11
98.241410184
21
94.5438505403
0
LINE
8
0
10
98.241410184
20
94.5438505403
11
98.4206064983
21
94.2259454209
0
LINE
8
0
10
98.4206064983
20
94.2259454209
11
98.6236327555
21
93.6617344337
0
LINE
8
0
10
98.6236327555
20
93.6617344337
11
98.8547609537
21
93.1283229568
0
LINE
8
0
10
98.8547609537
20
93.1283229568
11
99.1921381003
21
92.4679943591
0
LINE
8
0
10
99.1921381003
20
92.4679943591
11
99.6525005544
21
91.692652632
0
LINE
8
0
10
99.6525005544
20
91.692652632
11
100.251466667
21
90.8157939177
0
LINE
8
0
10
100.251466667
20
90.8157939177
11
100.820795028
21
90.0863689002
0
LINE
8
0
10
100.820795028
20
90.0863689002
11
101.830304441
21
90.2315144415
0
LINE
8
0
10
101.830304441
20
90.2315144415
11
102.79410173
21
90.5650879264
0
LINE
8
0
10
102.79410173
20
90.5650879264
11
102.965899071
21
91.4743080937
0
LINE
8
0
10
102.965899071
20
91.4743080937
11
103.096481465
21
92.5281533607
0
LINE
8
0
10
103.096481465
20
92.5281533607
11
103.150385791
21
93.4282548586
0
LINE
8
0
10
103.150385791
20
93.4282548586
11
103.147678482
21
94.1697734804
0
LINE
8
0
10
103.147678482
20
94.1697734804
11
103.108690132
21
94.7497975801
0
LINE
8
0
10
103.108690132
20
94.7497975801
11
103.030610628
21
95.3443203217
0
LINE
8
0
10
103.030610628
20
95.3443203217
11
103.044214108
21
95.708998165
0
LINE
8
0
10
103.044214108
20
95.708998165
11
103.141310229
21
95.9140065749
0
LINE
8
0
10
103.141310229
20
95.9140065749
11
105.293183489
21
96.6587771513
0
LINE
8
0
10
105.293183489
20
96.6587771513
11
105.496233987
21
96.5576504964
0
LINE
8
0
10
105.496233987
20
96.5576504964
11
105.73235593
21
96.279403462
0
LINE
8
0
10
105.73235593
20
96.279403462
11
106.038490869
21
95.7638114742
0
LINE
8
0
10
106.038490869
20
95.7638114742
11
106.366391066
21
95.2837807367
0
LINE
8
0
10
106.366391066
20
95.2837807367
11
106.822639377
21
94.6992341818
0
LINE
8
0
10
106.822639377
20
94.6992341818
11
107.421416868
21
94.0250280571
0
LINE
8
0
10
107.421416868
20
94.0250280571
11
108.175505485
21
93.2773704041
0
LINE
8
0
10
108.175505485
20
93.2773704041
11
108.872589933
21
92.6688731478
0
LINE
8
0
10
108.872589933
20
92.6688731478
11
109.836387222
21
93.0024466327
0
LINE
8
0
10
109.836387222
20
93.0024466327
11
110.719638242
21
93.5123918465
0
LINE
8
0
10
110.719638242
20
93.5123918465
11
110.716259933
21
94.4376940814
0
LINE
8
0
10
110.716259933
20
94.4376940814
11
110.645041005
21
95.4972078721
0
LINE
8
0
10
110.645041005
20
95.4972078721
11
110.527625881
21
96.3912448241
0
LINE
8
0
10
110.527625881
20
96.3912448241
11
110.384634174
21
97.1188508768
0
LINE
8
0
10
110.384634174
20
97.1188508768
11
110.236580112
21
97.6810145917
0
LINE
8
0
10
110.236580112
20
97.6810145917
11
110.047397438
21
98.2500168896
0
LINE
8
0
10
110.047397438
20
98.2500168896
11
109.991739349
21
98.6106790046
0
LINE
8
0
10
109.991739349
20
98.6106790046
11
110.04828272
21
98.8303582072
0
LINE
8
0
10
110.04828272
20
98.8303582072
11
112.020320069
21
99.9689145012
0
LINE
8
0
10
112.020320069
20
99.9689145012
11
112.238839525
21
99.9080428961
0
LINE
8
0
10
112.238839525
20
99.9080428961
11
112.523353034
21
99.6795105196
0
LINE
8
0
10
112.523353034
20
99.6795105196
11
112.921532142
21
99.231172369
0
LINE
8
0
10
112.921532142
20
99.231172369
11
113.334353169
21
98.8218719324
0
LINE
8
0
10
113.334353169
20
98.8218719324
11
113.892982641
21
98.3342344558
0
LINE
8
0
10
113.892982641
20
98.3342344558
11
114.608533792
21
97.7855314995
0
LINE
8
0
10
114.608533792
20
97.7855314995
11
115.490490186
21
97.1940972035
0
LINE
8
0
10
115.490490186
20
97.1940972035
11
116.290136273
21
96.7285203845
0
LINE
8
0
10
116.290136273
20
96.7285203845
11
117.173387292
21
97.2384655983
0
LINE
8
0
10
117.173387292
20
97.2384655983
11
117.944169049
21
97.9063517921
0
LINE
8
0
10
117.944169049
20
97.9063517921
11
117.765737191
21
98.8142932611
0
LINE
8
0
10
117.765737191
20
98.8142932611
11
117.495290979
21
99.8411819866
0
LINE
8
0
10
117.495290979
20
99.8411819866
11
117.210800093
21
100.696841568
0
LINE
8
0
10
117.210800093
20
100.696841568
11
116.932692082
21
101.384237473
0
LINE
8
0
10
116.932692082
20
101.384237473
11
116.680923367
21
101.908222742
0
LINE
8
0
10
116.680923367
20
101.908222742
11
116.387475078
21
102.43113937
0
LINE
8
0
10
116.387475078
20
102.43113937
11
116.264567049
21
102.774750488
0
LINE
8
0
10
116.264567049
20
102.774750488
11
116.278514045
21
103.001160705
0
LINE
8
0
10
116.278514045
20
103.001160705
11
117.999440914
21
104.492352326
0
LINE
8
0
10
117.999440914
20
104.492352326
11
118.225531466
21
104.473935829
0
LINE
8
0
10
118.225531466
20
104.473935829
11
118.548153482
21
104.303377866
0
LINE
8
0
10
118.548153482
20
104.303377866
11
119.023985528
21
103.938497661
0
LINE
8
0
10
119.023985528
20
103.938497661
11
119.506806958
21
103.61472071
0
LINE
8
0
10
119.506806958
20
103.61472071
11
120.147627267
21
103.2416168
0
LINE
8
0
10
120.147627267
20
103.2416168
11
120.954090193
21
102.838248567
0
LINE
8
0
10
120.954090193
20
102.838248567
11
121.932038163
21
102.424413604
0
LINE
8
0
10
121.932038163
20
102.424413604
11
122.805344596
21
102.118584382
0
LINE
8
0
10
122.805344596
20
102.118584382
11
123.576126353
21
102.786470576
0
LINE
8
0
10
123.576126353
20
102.786470576
11
124.206580786
21
103.588158603
0
LINE
8
0
10
124.206580786
20
103.588158603
11
123.859544371
21
104.445923935
0
LINE
8
0
10
123.859544371
20
104.445923935
11
123.399645505
21
105.403073162
0
LINE
8
0
10
123.399645505
20
105.403073162
11
122.9583611
21
106.189429605
0
LINE
8
0
10
122.9583611
20
106.189429605
11
122.555188332
21
106.811771084
0
LINE
8
0
10
122.555188332
20
106.811771084
11
122.208804542
21
107.278639713
0
LINE
8
0
10
122.208804542
20
107.278639713
11
121.821696622
21
107.736571103
0
LINE
8
0
10
121.821696622
20
107.736571103
11
121.63598087
21
108.050712224
0
LINE
8
0
10
121.63598087
20
108.050712224
11
121.606827411
21
108.275670399
0
LINE
8
0
10
121.606827411
20
108.275670399
11
123.01444502
21
110.065601796
0
LINE
8
0
10
123.01444502
20
110.065601796
11
123.239935166
21
110.090306027
0
LINE
8
0
10
123.239935166
20
110.090306027
11
123.589005289
21
109.983886887
0
LINE
8
0
10
123.589005289
20
109.983886887
11
124.125292462
21
109.71565235
0
LINE
8
0
10
124.125292462
20
109.71565235
11
124.660663871
21
109.489101026
0
LINE
8
0
10
124.660663871
20
109.489101026
11
125.360514102
21
109.244015631
0
LINE
8
0
10
125.360514102
20
109.244015631
11
126.228741132
21
109.0005609
0
LINE
8
0
10
126.228741132
20
109.0005609
11
127.26733509
21
108.779282344
0
LINE
8
0
10
127.26733509
20
108.779282344
11
128.182738299
21
108.644254183
0
LINE
8
0
10
128.182738299
20
108.644254183
11
128.813192731
21
109.44594221
0
LINE
8
0
10
128.813192731
20
109.44594221
11
129.280533575
21
110.352456976
0
LINE
8
0
10
129.280533575
20
110.352456976
11
128.777435403
21
111.129044298
0
LINE
8
0
10
128.777435403
20
111.129044298
11
128.144705827
21
111.981860159
0
LINE
8
0
10
128.144705827
20
111.981860159
11
127.56257707
21
112.670492494
0
LINE
8
0
10
127.56257707
20
112.670492494
11
127.048911261
21
113.205286503
0
LINE
8
0
10
127.048911261
20
113.205286503
11
126.620431608
21
113.598164645
0
LINE
8
0
10
126.620431608
20
113.598164645
11
126.153655147
21
113.974559963
0
LINE
8
0
10
126.153655147
20
113.974559963
11
125.911843923
21
114.247877207
0
LINE
8
0
10
125.911843923
20
114.247877207
11
125.84064369
21
114.463252767
0
LINE
8
0
10
125.84064369
20
114.463252767
11
126.884077071
21
116.487231155
0
LINE
8
0
10
126.884077071
20
116.487231155
11
127.10081701
21
116.55416324
0
LINE
8
0
10
127.10081701
20
116.55416324
11
127.463718935
21
116.515729187
0
LINE
8
0
10
127.463718935
20
116.515729187
11
128.041078421
21
116.353835012
0
LINE
8
0
10
128.041078421
20
116.353835012
11
128.609650091
21
116.232697472
0
LINE
8
0
10
128.609650091
20
116.232697472
11
129.343235832
21
116.124488616
0
LINE
8
0
10
129.343235832
20
116.124488616
11
130.24184698
21
116.049746474
0
LINE
8
0
10
130.24184698
20
116.049746474
11
131.303549434
21
116.02902191
0
LINE
8
0
10
131.303549434
20
116.02902191
11
132.227964361
21
116.06967508
0
LINE
8
0
10
132.227964361
20
116.06967508
11
132.695305205
21
116.976189846
0
LINE
8
0
10
132.695305205
20
116.976189846
11
132.982641542
21
117.954767545
0
LINE
8
0
10
132.982641542
20
117.954767545
11
132.341664894
21
118.622108968
0
LINE
8
0
10
132.341664894
20
118.622108968
11
131.558973102
21
119.339768475
0
LINE
8
0
10
131.558973102
20
119.339768475
11
130.857039644
21
119.905787735
0
LINE
8
0
10
130.857039644
20
119.905787735
11
130.251446013
21
120.333705426
0
LINE
8
0
10
130.251446013
20
120.333705426
11
129.756356868
21
120.638393441
0
LINE
8
0
10
129.756356868
20
120.638393441
11
129.226782384
21
120.919648779
0
LINE
8
0
10
129.226782384
20
120.919648779
11
128.937615375
21
121.142263749
0
LINE
8
0
10
128.937615375
20
121.142263749
11
128.826941731
21
121.340272459
0
LINE
8
0
10
128.826941731
20
121.340272459
11
129.468478482
21
123.525145987
0
LINE
8
0
10
129.468478482
20
123.525145987
11
129.668634668
21
123.631886825
0
LINE
8
0
10
129.668634668
20
123.631886825
11
130.032252175
21
123.662826967
0
LINE
8
0
10
130.032252175
20
123.662826967
11
130.629816696
21
123.613124431
0
LINE
8
0
10
130.629816696
20
123.613124431
11
131.211038966
21
123.6017789
0
LINE
8
0
10
131.211038966
20
123.6017789
11
131.951846518
21
123.634357534
0
LINE
8
0
10
131.951846518
20
123.634357534
11
132.848363635
21
123.731029358
0
LINE
8
0
10
132.848363635
20
123.731029358
11
133.894801892
21
123.911607824
0
LINE
8
0
10
133.894801892
20
123.911607824
11
134.794817775
21
124.126473014
0
LINE
8
0
10
91.6359559875
20
132.071505199
11
91.3240884513
21
132.0387266
0
LINE
8
0
10
91.3240884513
20
132.0387266
11
91.0122209151
21
132.071505199
0
LINE
8
0
10
91.0122209151
20
132.071505199
11
90.7139834867
21
132.168408414
0
LINE
8
0
10
90.7139834867
20
132.168408414
11
90.4424105728
21
132.325201109
0
LINE
8
0
10
90.4424105728
20
132.325201109
11
90.2093712131
21
132.535030691
0
LINE
8
0
10
90.2093712131
20
132.535030691
11
90.0250503456
21
132.7887266
0
LINE
8
0
10
90.0250503456
20
132.7887266
11
89.8975036768
21
133.075201109
0
LINE
8
0
10
89.8975036768
20
133.075201109
11
89.8323056082
21
133.381933905
0
LINE
8
0
10
89.8323056082
20
133.381933905
11
89.8323056082
21
133.695519295
0
LINE
8
0
10
89.8323056082
20
133.695519295
11
89.8975036768
21
134.002252092
0
LINE
8
0
10
89.8975036768
20
134.002252092
11
90.0250503456
21
134.2887266
0
LINE
8
0
10
90.0250503456
20
134.2887266
11
90.2093712131
21
134.54242251
0
LINE
8
0
10
90.2093712131
20
134.54242251
11
90.4424105728
21
134.752252092
0
LINE
8
0
10
90.4424105728
20
134.752252092
11
90.7139834867
21
134.909044787
0
LINE
8
0
10
90.7139834867
20
134.909044787
11
91.0122209151
21
135.005948001
0
LINE
8
0
10
91.0122209151
20
135.005948001
11
91.3240884513
21
135.0387266
0
LINE
8
0
10
91.3240884513
20
135.0387266
11
91.6359559875
21
135.005948001
0
LINE
8
0
10
91.6359559875
20
135.005948001
11
91.9341934159
21
134.909044787
0
LINE
8
0
10
91.9341934159
20
134.909044787
11
92.2057663297
21
134.752252092
0
LINE
8
0
10
92.2057663297
20
134.752252092
11
92.4388056895
21
134.54242251
0
LINE
8
0
10
92.4388056895
20
134.54242251
11
92.623126557
21
134.2887266
0
LINE
8
0
10
92.623126557
20
134.2887266
11
92.7506732257
21
134.002252092
0
LINE
8
0
10
92.7506732257
20
134.002252092
11
92.8158712943
21
133.695519295
0
LINE
8
0
10
92.8158712943
20
133.695519295
11
92.8158712943
21
133.381933905
0
LINE
8
0
10
92.8158712943
20
133.381933905
11
92.7506732257
21
133.075201109
0
LINE
8
0
10
92.7506732257
20
133.075201109
11
92.623126557
21
132.7887266
0
LINE
8
0
10
92.623126557
20
132.7887266
11
92.4388056895
21
132.535030691
0
LINE
8
0
10
92.4388056895
20
132.535030691
11
92.2057663297
21
132.325201109
0
LINE
8
0
10
92.2057663297
20
132.325201109
11
91.9341934159
21
132.168408414
0
LINE
8
0
10
91.9341934159
20
132.168408414
11
91.6359559875
21
132.071505199
0
LINE
8
0
10
181.757308614
20
35.1006552803
11
182.044644952
21
36.0792329794
0
LINE
8
0
10
182.044644952
20
36.0792329794
11
182.1415917
21
37.0945052641
0
LINE
8
0
10
182.1415917
20
37.0945052641
11
181.38590314
21
37.6284813295
0
LINE
8
0
10
181.38590314
20
37.6284813295
11
180.481537654
21
38.1850463987
0
LINE
8
0
10
180.481537654
20
38.1850463987
11
179.685169198
21
38.6079951735
0
LINE
8
0
10
179.685169198
20
38.6079951735
11
179.009535478
21
38.9135704865
0
LINE
8
0
10
179.009535478
20
38.9135704865
11
178.465730653
21
39.1190561549
0
LINE
8
0
10
178.465730653
20
39.1190561549
11
177.892498347
21
39.2950062125
0
LINE
8
0
10
177.892498347
20
39.2950062125
11
177.566426802
21
39.4588730236
0
LINE
8
0
10
177.566426802
20
39.4588730236
11
177.42027978
21
39.6323583336
0
LINE
8
0
10
177.42027978
20
39.6323583336
11
177.636733093
21
41.8991599795
0
LINE
8
0
10
177.636733093
20
41.8991599795
11
177.813071359
21
42.0418516782
0
LINE
8
0
10
177.813071359
20
42.0418516782
11
178.164262364
21
42.1410477569
0
LINE
8
0
10
178.164262364
20
42.1410477569
11
178.760434382
21
42.2053332405
0
LINE
8
0
10
178.760434382
20
42.2053332405
11
179.333300364
21
42.3041897754
0
LINE
8
0
10
179.333300364
20
42.3041897754
11
180.054555012
21
42.476378422
0
LINE
8
0
10
180.054555012
20
42.476378422
11
180.916575633
21
42.7409702403
0
LINE
8
0
10
180.916575633
20
42.7409702403
11
181.909928689
21
43.1163251602
0
LINE
8
0
10
181.909928689
20
43.1163251602
11
182.753016607
21
43.497636582
0
LINE
8
0
10
182.753016607
20
43.497636582
11
182.849963356
21
44.5129088667
0
LINE
8
0
10
182.849963356
20
44.5129088667
11
182.753016607
21
45.5281811514
0
LINE
8
0
10
182.753016607
20
45.5281811514
11
181.909928689
21
45.9094925733
0
LINE
8
0
10
181.909928689
20
45.9094925733
11
180.916575633
21
46.2848474931
0
LINE
8
0
10
180.916575633
20
46.2848474931
11
180.054555012
21
46.5494393114
0
LINE
8
0
10
180.054555012
20
46.5494393114
11
179.333300364
21
46.7216279581
0
LINE
8
0
10
179.333300364
20
46.7216279581
11
178.760434383
21
46.8204844929
0
LINE
8
0
10
178.760434383
20
46.8204844929
11
178.164262364
21
46.8847699766
0
LINE
8
0
10
178.164262364
20
46.8847699766
11
177.813071359
21
46.9839660553
0
LINE
8
0
10
177.813071359
20
46.9839660553
11
177.636733093
21
47.126657754
0
LINE
8
0
10
177.636733093
20
47.126657754
11
177.42027978
21
49.3934593998
0
LINE
8
0
10
177.42027978
20
49.3934593998
11
177.566426802
21
49.5669447099
0
LINE
8
0
10
177.566426802
20
49.5669447099
11
177.892498347
21
49.7308115209
0
LINE
8
0
10
177.892498347
20
49.7308115209
11
178.465730653
21
49.9067615785
0
LINE
8
0
10
178.465730653
20
49.9067615785
11
179.009535478
21
50.1122472469
0
LINE
8
0
10
179.009535478
20
50.1122472469
11
179.685169198
21
50.4178225599
0
LINE
8
0
10
179.685169198
20
50.4178225599
11
180.481537654
21
50.8407713347
0
LINE
8
0
10
180.481537654
20
50.8407713347
11
181.38590314
21
51.397336404
0
LINE
8
0
10
181.38590314
20
51.397336404
11
182.1415917
21
51.9313124694
0
LINE
8
0
10
182.1415917
20
51.9313124694
11
182.044644952
21
52.9465847541
0
LINE
8
0
10
182.044644952
20
52.9465847541
11
181.757308614
21
53.9251624531
0
LINE
8
0
10
181.757308614
20
53.9251624531
11
180.857292731
21
54.1400276432
0
LINE
8
0
10
180.857292731
20
54.1400276432
11
179.810854474
21
54.3206061088
0
LINE
8
0
10
179.810854474
20
54.3206061088
11
178.914337357
21
54.4172779329
0
LINE
8
0
10
178.914337357
20
54.4172779329
11
178.173529805
21
54.4498565669
0
LINE
8
0
10
178.173529805
20
54.4498565669
11
177.592307535
21
54.4385110354
0
LINE
8
0
10
177.592307535
20
54.4385110354
11
176.994743014
21
54.3888085003
0
LINE
8
0
10
176.994743014
20
54.3888085003
11
176.631125507
21
54.4197486419
0
LINE
8
0
10
176.631125507
20
54.4197486419
11
176.430969321
21
54.5264894794
0
LINE
8
0
10
176.430969321
20
54.5264894794
11
175.78943257
21
56.7113630077
0
LINE
8
0
10
175.78943257
20
56.7113630077
11
175.900106214
21
56.9093717181
0
LINE
8
0
10
175.900106214
20
56.9093717181
11
176.189273223
21
57.1319866879
0
LINE
8
0
10
176.189273223
20
57.1319866879
11
176.718847707
21
57.413242026
0
LINE
8
0
10
176.718847707
20
57.413242026
11
177.213936852
21
57.7179300405
0
LINE
8
0
10
177.213936852
20
57.7179300405
11
177.819530483
21
58.1458477318
0
LINE
8
0
10
177.819530483
20
58.1458477318
11
178.521463941
21
58.7118669924
0
LINE
8
0
10
178.521463941
20
58.7118669924
11
179.304155733
21
59.4295264994
0
LINE
8
0
10
179.304155733
20
59.4295264994
11
179.945132381
21
60.0968679221
0
LINE
8
0
10
179.945132381
20
60.0968679221
11
179.657796044
21
61.0754456211
0
LINE
8
0
10
179.657796044
20
61.0754456211
11
179.1904552
21
61.9819603868
0
LINE
8
0
10
179.1904552
20
61.9819603868
11
178.266040273
21
62.0226135572
0
LINE
8
0
10
178.266040273
20
62.0226135572
11
177.204337819
21
62.0018889924
0
LINE
8
0
10
177.204337819
20
62.0018889924
11
176.305726671
21
61.9271468507
0
LINE
8
0
10
176.305726671
20
61.9271468507
11
175.57214093
21
61.8189379954
0
LINE
8
0
10
175.57214093
20
61.8189379954
11
175.00356926
21
61.6978004547
0
LINE
8
0
10
175.00356926
20
61.6978004547
11
174.426209774
21
61.5359062799
0
LINE
8
0
10
174.426209774
20
61.5359062799
11
174.063307849
21
61.4974722271
0
LINE
8
0
10
174.063307849
20
61.4974722271
11
173.84656791
21
61.5644043115
0
LINE
8
0
10
173.84656791
20
61.5644043115
11
172.803134529
21
63.5883827002
0
LINE
8
0
10
172.803134529
20
63.5883827002
11
172.874334762
21
63.8037582601
0
LINE
8
0
10
172.874334762
20
63.8037582601
11
173.116145986
21
64.0770755038
0
LINE
8
0
10
173.116145986
20
64.0770755038
11
173.582922447
21
64.4534708216
0
LINE
8
0
10
173.582922447
20
64.4534708216
11
174.0114021
21
64.8463489635
0
LINE
8
0
10
174.0114021
20
64.8463489635
11
174.525067909
21
65.3811429728
0
LINE
8
0
10
174.525067909
20
65.3811429728
11
175.107196666
21
66.0697753084
0
LINE
8
0
10
175.107196666
20
66.0697753084
11
175.739926242
21
66.9225911686
0
LINE
8
0
10
175.739926242
20
66.9225911686
11
176.243024414
21
67.6991784909
0
LINE
8
0
10
176.243024414
20
67.6991784909
11
175.77568357
21
68.6056932566
0
LINE
8
0
10
175.77568357
20
68.6056932566
11
175.145229138
21
69.4073812834
0
LINE
8
0
10
175.145229138
20
69.4073812834
11
174.229825929
21
69.2723531227
0
LINE
8
0
10
174.229825929
20
69.2723531227
11
173.191231971
21
69.0510745672
0
LINE
8
0
10
173.191231971
20
69.0510745672
11
172.323004941
21
68.8076198354
0
LINE
8
0
10
172.323004941
20
68.8076198354
11
171.62315471
21
68.5625344408
0
LINE
8
0
10
171.62315471
20
68.5625344408
11
171.087783301
21
68.3359831172
0
LINE
8
0
10
171.087783301
20
68.3359831172
11
170.551496128
21
68.0677485799
0
LINE
8
0
10
170.551496128
20
68.0677485799
11
170.202426005
21
67.9613294395
0
LINE
8
0
10
170.202426005
20
67.9613294395
11
169.976935859
21
67.9860336709
0
LINE
8
0
10
169.976935859
20
67.9860336709
11
168.56931825
21
69.7759650677
0
LINE
8
0
10
168.56931825
20
69.7759650677
11
168.598471709
21
70.0009232433
0
LINE
8
0
10
168.598471709
20
70.0009232433
11
168.784187461
21
70.3150643635
0
LINE
8
0
10
168.784187461
20
70.3150643635
11
169.171295381
21
70.7729957535
0
LINE
8
0
10
169.171295381
20
70.7729957535
11
169.517679171
21
71.2398643831
0
LINE
8
0
10
169.517679171
20
71.2398643831
11
169.920851939
21
71.8622058616
0
LINE
8
0
10
169.920851939
20
71.8622058616
11
170.362136344
21
72.6485623053
0
LINE
8
0
10
170.362136344
20
72.6485623053
11
170.82203521
21
73.6057115317
0
LINE
8
0
10
170.82203521
20
73.6057115317
11
171.169071625
21
74.4634768643
0
LINE
8
0
10
171.169071625
20
74.4634768643
11
170.538617192
21
75.2651648911
0
LINE
8
0
10
170.538617192
20
75.2651648911
11
169.767835435
21
75.933051085
0
LINE
8
0
10
169.767835435
20
75.933051085
11
168.894529002
21
75.6272218627
0
LINE
8
0
10
168.894529002
20
75.6272218627
11
167.916581032
21
75.2133869
0
LINE
8
0
10
167.916581032
20
75.2133869
11
167.110118106
21
74.8100186665
0
LINE
8
0
10
167.110118106
20
74.8100186665
11
166.469297797
21
74.4369147572
0
LINE
8
0
10
166.469297797
20
74.4369147572
11
165.986476367
21
74.1131378058
0
LINE
8
0
10
165.986476367
20
74.1131378058
11
165.510644321
21
73.7482576012
0
LINE
8
0
10
165.510644321
20
73.7482576012
11
165.188022305
21
73.5776996382
0
LINE
8
0
10
165.188022305
20
73.5776996382
11
164.961931754
21
73.5592831412
0
LINE
8
0
10
164.961931754
20
73.5592831412
11
163.241004884
21
75.0504747619
0
LINE
8
0
10
163.241004884
20
75.0504747619
11
163.227057888
21
75.2768849785
0
LINE
8
0
10
163.227057888
20
75.2768849785
11
163.349965917
21
75.6204960967
0
LINE
8
0
10
163.349965917
20
75.6204960967
11
163.643414206
21
76.1434127253
0
LINE
8
0
10
163.643414206
20
76.1434127253
11
163.895182921
21
76.667397994
0
LINE
8
0
10
163.895182921
20
76.667397994
11
164.173290932
21
77.3547938991
0
LINE
8
0
10
164.173290932
20
77.3547938991
11
164.457781818
21
78.2104534803
0
LINE
8
0
10
164.457781818
20
78.2104534803
11
164.72822803
21
79.2373422059
0
LINE
8
0
10
164.72822803
20
79.2373422059
11
164.906659888
21
80.1452836748
0
LINE
8
0
10
164.906659888
20
80.1452836748
11
164.135878131
21
80.8131698687
0
LINE
8
0
10
164.135878131
20
80.8131698687
11
163.252627112
21
81.3231150824
0
LINE
8
0
10
163.252627112
20
81.3231150824
11
162.452981025
21
80.8575382634
0
LINE
8
0
10
162.452981025
20
80.8575382634
11
161.571024631
21
80.2661039674
0
LINE
8
0
10
161.571024631
20
80.2661039674
11
160.85547348
21
79.7174010111
0
LINE
8
0
10
160.85547348
20
79.7174010111
11
160.296844008
21
79.2297635345
0
LINE
8
0
10
160.296844008
20
79.2297635345
11
159.884022981
21
78.8204630979
0
LINE
8
0
10
159.884022981
20
78.8204630979
11
159.485843873
21
78.3721249473
0
LINE
8
0
10
159.485843873
20
78.3721249473
11
159.201330364
21
78.1435925709
0
LINE
8
0
10
159.201330364
20
78.1435925709
11
158.982810908
21
78.0827209657
0
LINE
8
0
10
158.982810908
20
78.0827209657
11
157.010773559
21
79.2212772597
0
LINE
8
0
10
157.010773559
20
79.2212772597
11
156.954230188
21
79.4409564623
0
LINE
8
0
10
156.954230188
20
79.4409564623
11
157.009888277
21
79.8016185773
0
LINE
8
0
10
157.009888277
20
79.8016185773
11
157.199070951
21
80.3706208752
0
LINE
8
0
10
157.199070951
20
80.3706208752
11
157.347125013
21
80.9327845901
0
LINE
8
0
10
157.347125013
20
80.9327845901
11
157.49011672
21
81.6603906428
0
LINE
8
0
10
157.49011672
20
81.6603906428
11
157.607531844
21
82.5544275948
0
LINE
8
0
10
157.607531844
20
82.5544275948
11
157.678750772
21
83.6139413855
0
LINE
8
0
10
157.678750772
20
83.6139413855
11
157.682129081
21
84.5392436204
0
LINE
8
0
10
157.682129081
20
84.5392436204
11
156.798878061
21
85.0491888342
0
LINE
8
0
10
156.798878061
20
85.0491888342
11
155.835080772
21
85.3827623191
0
LINE
8
0
10
155.835080772
20
85.3827623191
11
155.137996324
21
84.7742650628
0
LINE
8
0
10
155.137996324
20
84.7742650628
11
154.383907707
21
84.0266074098
0
LINE
8
0
10
154.383907707
20
84.0266074098
11
153.785130216
21
83.3524012851
0
LINE
8
0
10
153.785130216
20
83.3524012851
11
153.328881905
21
82.7678547302
0
LINE
8
0
10
153.328881905
20
82.7678547302
11
153.000981708
21
82.2878239927
0
LINE
8
0
10
153.000981708
20
82.2878239927
11
152.694846769
21
81.7722320049
0
LINE
8
0
10
152.694846769
20
81.7722320049
11
152.458724826
21
81.4939849705
0
LINE
8
0
10
152.458724826
20
81.4939849705
11
152.255674328
21
81.3928583156
0
LINE
8
0
10
152.255674328
20
81.3928583156
11
150.103801068
21
82.137628892
0
LINE
8
0
10
150.103801068
20
82.137628892
11
150.006704947
21
82.3426373019
0
LINE
8
0
10
150.006704947
20
82.3426373019
11
149.993101467
21
82.7073151452
0
LINE
8
0
10
149.993101467
20
82.7073151452
11
150.071180971
21
83.3018378868
0
LINE
8
0
10
150.071180971
20
83.3018378868
11
150.110169321
21
83.8818619865
0
LINE
8
0
10
150.110169321
20
83.8818619865
11
150.11287663
21
84.6233806083
0
LINE
8
0
10
150.11287663
20
84.6233806083
11
150.058972304
21
85.5234821062
0
LINE
8
0
10
150.058972304
20
85.5234821062
11
149.92838991
21
86.5773273732
0
LINE
8
0
10
149.92838991
20
86.5773273732
11
149.756592569
21
87.4865475405
0
LINE
8
0
10
149.756592569
20
87.4865475405
11
148.79279528
21
87.8201210254
0
LINE
8
0
10
148.79279528
20
87.8201210254
11
147.783285867
21
87.9652665667
0
LINE
8
0
10
147.783285867
20
87.9652665667
11
147.213957506
21
87.2358415492
0
LINE
8
0
10
147.213957506
20
87.2358415492
11
146.614991393
21
86.3589828349
0
LINE
8
0
10
146.614991393
20
86.3589828349
11
146.154628939
21
85.5836411079
0
LINE
8
0
10
146.154628939
20
85.5836411079
11
145.817251793
21
84.9233125102
0
LINE
8
0
10
145.817251793
20
84.9233125102
11
145.586123594
21
84.3899010332
0
LINE
8
0
10
145.586123594
20
84.3899010332
11
145.383097337
21
83.825690046
0
LINE
8
0
10
145.383097337
20
83.825690046
11
145.203901023
21
83.5077849266
0
LINE
8
0
10
145.203901023
20
83.5077849266
11
145.023658258
21
83.3700582027
0
LINE
8
0
10
145.023658258
20
83.3700582027
11
142.769723392
21
83.6941251124
0
LINE
8
0
10
142.769723392
20
83.6941251124
11
142.635583828
21
83.8770531914
0
LINE
8
0
10
142.635583828
20
83.8770531914
11
142.553210445
21
84.2325663556
0
LINE
8
0
10
142.553210445
20
84.2325663556
11
142.517364782
21
84.83112194
0
LINE
8
0
10
142.517364782
20
84.83112194
11
142.445878279
21
85.4080428424
0
LINE
8
0
10
142.445878279
20
85.4080428424
11
142.308203342
21
86.1366736183
0
LINE
8
0
10
142.308203342
20
86.1366736183
11
142.084927809
21
87.0103076488
0
LINE
8
0
10
142.084927809
20
87.0103076488
11
141.75726368
21
88.0203956783
0
LINE
8
0
10
141.75726368
20
88.0203956783
11
141.416499893
21
88.8806721922
0
LINE
8
0
10
141.416499893
20
88.8806721922
11
140.40699048
21
89.0258177335
0
LINE
8
0
10
140.40699048
20
89.0258177335
11
139.388255242
21
88.977289393
0
LINE
8
0
10
139.388255242
20
88.977289393
11
138.967259978
21
88.153299935
0
LINE
8
0
10
138.967259978
20
88.153299935
11
138.545064567
21
87.178932118
0
LINE
8
0
10
138.545064567
20
87.178932118
11
138.239755849
21
86.3304776587
0
LINE
8
0
10
138.239755849
20
86.3304776587
11
138.033443555
21
85.6182330141
0
LINE
8
0
10
138.033443555
20
85.6182330141
11
137.907440931
21
85.0507196784
0
LINE
8
0
10
137.907440931
20
85.0507196784
11
137.814861254
21
84.4582817469
0
LINE
8
0
10
137.814861254
20
84.4582817469
11
137.69906719
21
84.1122084616
0
LINE
8
0
10
137.69906719
20
84.1122084616
11
137.5481466
21
83.9428594715
0
LINE
8
0
10
137.5481466
20
83.9428594715
11
135.273613208
21
83.834510092
0
LINE
8
0
10
135.273613208
20
83.834510092
11
135.107278353
21
83.9887463427
0
LINE
8
0
10
135.107278353
20
83.9887463427
11
134.959112257
21
84.3222456558
0
LINE
8
0
10
134.959112257
20
84.3222456558
11
134.810636982
21
84.9032007246
0
LINE
8
0
10
134.810636982
20
84.9032007246
11
134.631259335
21
85.4561670051
0
LINE
8
0
10
134.631259335
20
85.4561670051
11
134.358178082
21
86.1455753204
0
LINE
8
0
10
134.358178082
20
86.1455753204
11
133.973601101
21
86.9611664735
0
LINE
8
0
10
133.973601101
20
86.9611664735
11
133.460697874
21
87.8909900524
0
LINE
8
0
10
133.460697874
20
87.8909900524
11
132.963283732
21
88.6712302782
0
LINE
8
0
10
132.963283732
20
88.6712302782
11
131.944548494
21
88.6227019378
0
LINE
8
0
10
131.944548494
20
88.6227019378
11
130.953407178
21
88.3822536562
0
LINE
8
0
10
130.953407178
20
88.3822536562
11
130.695960878
21
87.4934808837
0
LINE
8
0
10
130.695960878
20
87.4934808837
11
130.465795409
21
86.4568201554
0
LINE
8
0
10
130.465795409
20
86.4568201554
11
130.326575079
21
85.5659183187
0
LINE
8
0
10
130.326575079
20
85.5659183187
11
130.258784303
21
84.8275000046
0
LINE
8
0
10
130.258784303
20
84.8275000046
11
130.242461315
21
84.2463962205
0
LINE
8
0
10
130.242461315
20
84.2463962205
11
130.263674289
21
83.6471435953
0
LINE
8
0
10
130.263674289
20
83.6471435953
11
130.215467575
21
83.2854101344
0
LINE
8
0
10
130.215467575
20
83.2854101344
11
130.099323824
21
83.0905595916
0
LINE
8
0
10
130.099323824
20
83.0905595916
11
127.886399468
21
82.5537099519
0
LINE
8
0
10
127.886399468
20
82.5537099519
11
127.693881099
21
82.6736798743
0
LINE
8
0
10
127.693881099
20
82.6736798743
11
127.485277396
21
82.9731118022
0
LINE
8
0
10
127.485277396
20
82.9731118022
11
127.229538794
21
83.5154691257
0
LINE
8
0
10
127.229538794
20
83.5154691257
11
126.948753177
21
84.0244951421
0
LINE
8
0
10
126.948753177
20
84.0244951421
11
126.550135477
21
84.6497639841
0
LINE
8
0
10
126.550135477
20
84.6497639841
11
126.018156663
21
85.3778346705
0
LINE
8
0
10
126.018156663
20
85.3778346705
11
125.338551996
21
86.1937875519
0
LINE
8
0
10
125.338551996
20
86.1937875519
11
124.702465341
21
86.8657915751
0
LINE
8
0
10
124.702465341
20
86.8657915751
11
123.711324025
21
86.6253432935
0
LINE
8
0
10
123.711324025
20
86.6253432935
11
122.783599061
21
86.2016654983
0
LINE
8
0
10
122.783599061
20
86.2016654983
11
122.699006503
21
85.2802319749
0
LINE
8
0
10
122.699006503
20
85.2802319749
11
122.669189757
21
84.2187459551
0
LINE
8
0
10
122.669189757
20
84.2187459551
11
122.701089602
21
83.3175962546
0
LINE
8
0
10
122.701089602
20
83.3175962546
11
122.774270478
21
82.5796926326
0
LINE
8
0
10
122.774270478
20
82.5796926326
11
122.868217082
21
82.0060010052
0
LINE
8
0
10
122.868217082
20
82.0060010052
11
123.002456015
21
81.4215922373
0
LINE
8
0
10
123.002456015
20
81.4215922373
11
123.023578966
21
81.0572725906
0
LINE
8
0
10
123.023578966
20
81.0572725906
11
122.946409792
21
80.8439629015
0
LINE
8
0
10
122.946409792
20
80.8439629015
11
120.875075324
21
79.8980161462
0
LINE
8
0
10
120.875075324
20
79.8980161462
11
120.663331555
21
79.9793837149
0
LINE
8
0
10
120.663331555
20
79.9793837149
11
120.401829729
21
80.2339260075
0
LINE
8
0
10
120.401829729
20
80.2339260075
11
120.048070858
21
80.7180833788
0
LINE
8
0
10
120.048070858
20
80.7180833788
11
119.676025596
21
81.1647716047
0
LINE
8
0
10
119.676025596
20
81.1647716047
11
119.16627853
21
81.7033021283
0
LINE
8
0
10
119.16627853
20
81.7033021283
11
118.506124983
21
82.3175379763
0
LINE
8
0
10
118.506124983
20
82.3175379763
11
117.684381559
21
82.9901294973
0
LINE
8
0
10
117.684381559
20
82.9901294973
11
116.932612222
21
83.5296093415
0
LINE
8
0
10
116.932612222
20
83.5296093415
11
116.004887257
21
83.1059315463
0
LINE
8
0
10
116.004887257
20
83.1059315463
11
115.174109041
21
82.5143370568
0
LINE
8
0
10
115.174109041
20
82.5143370568
11
115.265427623
21
81.5935457907
0
LINE
8
0
10
115.265427623
20
81.5935457907
11
115.437037254
21
80.5455993499
0
LINE
8
0
10
115.437037254
20
80.5455993499
11
115.638904329
21
79.6667716836
0
LINE
8
0
10
115.638904329
20
79.6667716836
11
115.85041191
21
78.9560525133
0
LINE
8
0
10
115.85041191
20
78.9560525133
11
116.051232631
21
78.4105077526
0
LINE
8
0
10
116.051232631
20
78.4105077526
11
116.293645778
21
77.8620648976
0
LINE
8
0
10
116.293645778
20
77.8620648976
11
116.383334957
21
77.5083265263
0
LINE
8
0
10
116.383334957
20
77.5083265263
11
116.347929454
21
77.284267259
0
LINE
8
0
10
116.347929454
20
77.284267259
11
114.493048299
21
75.9634123684
0
LINE
8
0
10
114.493048299
20
75.9634123684
11
114.269732102
21
76.0032367474
0
LINE
8
0
10
114.269732102
20
76.0032367474
11
113.964783509
21
76.2036895831
0
LINE
8
0
10
113.964783509
20
76.2036895831
11
113.525790136
21
76.6121482933
0
LINE
8
0
10
113.525790136
20
76.6121482933
11
113.075931915
21
76.9803542524
0
LINE
8
0
10
113.075931915
20
76.9803542524
11
112.473479071
21
77.4126825614
0
LINE
8
0
10
112.473479071
20
77.4126825614
11
111.70901046
21
77.8908834872
0
LINE
8
0
10
111.70901046
20
77.8908834872
11
110.774828228
21
78.3958044377
0
LINE
8
0
10
110.774828228
20
78.3958044377
11
109.93454711
21
78.7832618957
0
LINE
8
0
10
109.93454711
20
78.7832618957
11
109.103768894
21
78.1916674062
0
LINE
8
0
10
109.103768894
20
78.1916674062
11
108.399963916
21
77.4535379887
0
LINE
8
0
10
108.399963916
20
77.4535379887
11
108.663893144
21
76.5666687755
0
LINE
8
0
10
108.663893144
20
76.5666687755
11
109.030726734
21
75.5701374284
0
LINE
8
0
10
109.030726734
20
75.5701374284
11
109.395265037
21
74.745394918
0
LINE
8
0
10
109.395265037
20
74.745394918
11
109.737454888
21
74.0875474419
0
LINE
8
0
10
109.737454888
20
74.0875474419
11
110.037891542
21
73.5898669569
0
LINE
8
0
10
110.037891542
20
73.5898669569
11
110.37971746
21
73.0972121686
0
LINE
8
0
10
110.37971746
20
73.0972121686
11
110.534731266
21
72.7668400992
0
LINE
8
0
10
110.534731266
20
72.7668400992
11
110.542369081
21
72.5401293391
0
LINE
8
0
10
110.542369081
20
72.5401293391
11
108.970981478
21
70.8921054506
0
LINE
8
0
10
108.970981478
20
70.8921054506
11
108.744164082
21
70.888947283
0
LINE
8
0
10
108.744164082
20
70.888947283
11
108.406790358
21
71.028065774
0
LINE
8
0
10
108.406790358
20
71.028065774
11
107.898428849
21
71.3460630613
0
LINE
8
0
10
107.898428849
20
71.3460630613
11
107.387016715
21
71.6224788308
0
LINE
8
0
10
107.387016715
20
71.6224788308
11
106.713632309
21
71.9329794536
0
LINE
8
0
10
106.713632309
20
71.9329794536
11
105.872478521
21
72.2578620298
0
LINE
8
0
10
105.872478521
20
72.2578620298
11
104.859621261
21
72.5768632511
0
LINE
8
0
10
104.859621261
20
72.5768632511
11
103.961198311
21
72.7982946009
0
LINE
8
0
10
103.961198311
20
72.7982946009
11
103.257393333
21
72.0601651834
0
LINE
8
0
10
103.257393333
20
72.0601651834
11
102.705998939
21
71.2021787581
0
LINE
8
0
10
102.705998939
20
71.2021787581
11
103.132999724
21
70.3812853618
0
LINE
8
0
10
103.132999724
20
70.3812853618
11
103.681798951
21
69.4721863478
0
LINE
8
0
10
103.681798951
20
69.4721863478
11
104.195833118
21
68.7313373365
0
LINE
8
0
10
104.195833118
20
68.7313373365
11
104.656337607
21
68.1501378764
0
LINE
8
0
10
104.656337607
20
68.1501378764
11
105.045531629
21
67.7183091367
0
LINE
8
0
10
105.045531629
20
67.7183091367
11
105.47441584
21
67.2992482426
0
LINE
8
0
10
105.47441584
20
67.2992482426
11
105.689151669
21
67.0041829824
0
LINE
8
0
10
105.689151669
20
67.0041829824
11
105.739556753
21
66.7830146473
0
LINE
8
0
10
105.739556753
20
66.7830146473
11
104.508456742
21
64.867385638
0
LINE
8
0
10
104.508456742
20
64.867385638
11
104.286335919
21
64.8213590682
0
LINE
8
0
10
104.286335919
20
64.8213590682
11
103.928730631
21
64.8941151098
0
LINE
8
0
10
103.928730631
20
64.8941151098
11
103.369374493
21
65.1101577235
0
LINE
8
0
10
103.369374493
20
65.1101577235
11
102.814892215
21
65.2847929174
0
LINE
8
0
10
102.814892215
20
65.2847929174
11
102.094914113
21
65.4622435526
0
LINE
8
0
10
102.094914113
20
65.4622435526
11
101.207476638
21
65.6220656763
0
LINE
8
0
10
101.207476638
20
65.6220656763
11
100.15255165
21
65.7436176331
0
LINE
8
0
10
100.15255165
20
65.7436176331
11
99.2284582151
21
65.7910197688
0
LINE
8
0
10
99.2284582151
20
65.7910197688
11
98.6770638206
21
64.9330333436
0
LINE
8
0
10
98.6770638206
20
64.9330333436
11
98.2980088398
21
63.9861997755
0
LINE
8
0
10
98.2980088398
20
63.9861997755
11
98.8726482617
21
63.2609514223
0
LINE
8
0
10
98.8726482617
20
63.2609514223
11
99.583578091
21
62.4721419483
0
LINE
8
0
10
99.583578091
20
62.4721419483
11
100.228529589
21
61.8419626496
0
LINE
8
0
10
100.228529589
20
61.8419626496
11
100.790704882
21
61.3584172683
0
LINE
8
0
10
100.790704882
20
61.3584172683
11
101.254589788
21
61.0080476895
0
LINE
8
0
10
101.254589788
20
61.0080476895
11
101.755031298
21
60.6777266424
0
LINE
8
0
10
101.755031298
20
60.6777266424
11
102.021728038
21
60.4286326186
0
LINE
8
0
10
102.021728038
20
60.4286326186
11
102.113078619
21
60.2210003083
0
LINE
8
0
10
102.113078619
20
60.2210003083
11
101.266761363
21
58.1070020017
0
LINE
8
0
10
101.266761363
20
58.1070020017
11
101.057365139
21
58.01977055
0
LINE
8
0
10
101.057365139
20
58.01977055
11
100.692453072
21
58.0235345493
0
LINE
8
0
10
100.692453072
20
58.0235345493
11
100.102318895
21
58.1298141465
0
LINE
8
0
10
100.102318895
20
58.1298141465
11
99.5248069067
21
58.1963569937
0
LINE
8
0
10
99.5248069067
20
58.1963569937
11
98.7842569929
21
58.234344113
0
LINE
8
0
10
98.7842569929
20
58.234344113
11
97.8826101336
21
58.2233293963
0
LINE
8
0
10
97.8826101336
20
58.2233293963
11
96.8237451554
21
58.1430388843
0
LINE
8
0
10
96.8237451554
20
58.1430388843
11
95.9073803795
21
58.0146985692
0
LINE
8
0
10
95.9073803795
20
58.0146985692
11
95.5283253987
21
57.0678650011
0
LINE
8
0
10
95.5283253987
20
57.0678650011
11
95.3353098662
21
56.0664053222
0
LINE
8
0
10
95.3353098662
20
56.0664053222
11
96.0368189584
21
55.4630143772
0
LINE
8
0
10
96.0368189584
20
55.4630143772
11
96.884184534
21
54.8230040729
0
LINE
8
0
10
96.884184534
20
54.8230040729
11
97.6367431344
21
54.3262708085
0
LINE
8
0
10
97.6367431344
20
54.3262708085
11
98.2802707528
21
53.9578560961
0
LINE
8
0
10
98.2802707528
20
53.9578560961
11
98.8020805329
21
53.7016089477
0
LINE
8
0
10
98.8020805329
20
53.7016089477
11
99.3559920822
21
53.4719664107
0
LINE
8
0
10
99.3559920822
20
53.4719664107
11
99.665010619
21
53.2778465304
0
LINE
8
0
10
99.665010619
20
53.2778465304
11
99.7940050491
21
53.0912546175
0
LINE
8
0
10
99.7940050491
20
53.0912546175
11
99.3630586583
21
50.8552924205
0
LINE
8
0
10
99.3630586583
20
50.8552924205
11
99.1739551573
21
50.7300088587
0
LINE
8
0
10
99.1739551573
20
50.7300088587
11
98.8149251856
21
50.664644775
0
LINE
8
0
10
98.8149251856
20
50.664644775
11
98.2153419563
21
50.6573201341
0
LINE
8
0
10
98.2153419563
20
50.6573201341
11
97.6356730449
21
50.6133656029
0
LINE
8
0
10
97.6356730449
20
50.6133656029
11
96.9013167232
21
50.5105162528
0
LINE
8
0
10
96.9013167232
20
50.5105162528
11
96.0180483461
21
50.3290627963
0
LINE
8
0
10
96.0180483461
20
50.3290627963
11
94.9935135168
21
50.0498317236
0
LINE
8
0
10
94.9935135168
20
50.0498317236
11
94.1179972105
21
49.7503875111
0
LINE
8
0
10
94.1179972105
20
49.7503875111
11
93.924981678
21
48.7489278323
0
LINE
8
0
10
93.924981678
20
48.7489278323
11
93.924981678
21
47.7290374048
0
LINE
8
0
10
93.924981678
20
47.7290374048
11
94.7280060742
21
47.2693119888
0
LINE
8
0
10
94.7280060742
20
47.2693119888
11
95.6811813965
21
46.8012324941
0
LINE
8
0
10
95.6811813965
20
46.8012324941
11
96.5141476709
21
46.4558984985
0
LINE
8
0
10
96.5141476709
20
46.4558984985
11
97.2157688497
21
46.2159299224
0
LINE
8
0
10
97.2157688497
20
46.2159299224
11
97.776643939
21
46.063066644
0
LINE
8
0
10
97.776643939
20
46.063066644
11
98.3640057209
21
45.9424024967
0
LINE
8
0
10
98.3640057209
20
45.9424024967
11
98.7041773191
21
45.8102727582
0
LINE
8
0
10
98.7041773191
20
45.8102727582
11
98.8661534035
21
45.6514651607
0
LINE
8
0
10
98.8661534035
20
45.6514651607
11
98.8661534035
21
43.3743525727
0
LINE
8
0
10
98.8661534035
20
43.3743525727
11
98.7041773191
21
43.2155449753
0
LINE
8
0
10
98.7041773191
20
43.2155449753
11
98.3640057209
21
43.0834152367
0
LINE
8
0
10
98.3640057209
20
43.0834152367
11
97.776643939
21
42.9627510895
0
LINE
8
0
10
97.776643939
20
42.9627510895
11
97.2157688497
21
42.8098878111
0
LINE
8
0
10
97.2157688497
20
42.8098878111
11
96.5141476709
21
42.569919235
0
LINE
8
0
10
96.5141476709
20
42.569919235
11
95.6811813965
21
42.2245852394
0
LINE
8
0
10
95.6811813965
20
42.2245852394
11
94.7280060742
21
41.7565057446
0
LINE
8
0
10
94.7280060742
20
41.7565057446
11
93.924981678
21
41.2967803287
0
LINE
8
0
10
93.924981678
20
41.2967803287
11
93.924981678
21
40.2768899012
0
LINE
8
0
10
93.924981678
20
40.2768899012
11
94.1179972105
21
39.2754302224
0
LINE
8
0
10
94.1179972105
20
39.2754302224
11
94.9935135168
21
38.9759860098
0
LINE
8
0
10
94.9935135168
20
38.9759860098
11
96.0180483461
21
38.6967549372
0
LINE
8
0
10
96.0180483461
20
38.6967549372
11
96.9013167232
21
38.5153014807
0
LINE
8
0
10
96.9013167232
20
38.5153014807
11
97.6356730449
21
38.4124521305
0
LINE
8
0
10
97.6356730449
20
38.4124521305
11
98.2153419563
21
38.3684975993
0
LINE
8
0
10
98.2153419563
20
38.3684975993
11
98.8149251856
21
38.3611729585
0
LINE
8
0
10
98.8149251856
20
38.3611729585
11
99.1739551573
21
38.2958088747
0
LINE
8
0
10
99.1739551573
20
38.2958088747
11
99.3630586583
21
38.170525313
0
LINE
8
0
10
99.3630586583
20
38.170525313
11
99.7940050491
21
35.9345631159
0
LINE
8
0
10
99.7940050491
20
35.9345631159
11
99.665010619
21
35.7479712031
0
LINE
8
0
10
99.665010619
20
35.7479712031
11
99.3559920822
21
35.5538513228
0
LINE
8
0
10
99.3559920822
20
35.5538513228
11
98.8020805329
21
35.3242087858
0
LINE
8
0
10
98.8020805329
20
35.3242087858
11
98.2802707528
21
35.0679616374
0
LINE
8
0
10
98.2802707528
20
35.0679616374
11
97.6367431344
21
34.6995469249
0
LINE
8
0
10
97.6367431344
20
34.6995469249
11
96.884184534
21
34.2028136605
0
LINE
8
0
10
96.884184534
20
34.2028136605
11
96.0368189584
21
33.5628033562
0
LINE
8
0
10
96.0368189584
20
33.5628033562
11
95.3353098662
21
32.9594124112
0
LINE
8
0
10
95.3353098662
20
32.9594124112
11
95.5283253987
21
31.9579527324
0
LINE
8
0
10
95.5283253987
20
31.9579527324
11
95.9073803795
21
31.0111191643
0
LINE
8
0
10
95.9073803795
20
31.0111191643
11
96.8237451554
21
30.8827788492
0
LINE
8
0
10
96.8237451554
20
30.8827788492
11
97.8826101336
21
30.8024883371
0
LINE
8
0
10
97.8826101336
20
30.8024883371
11
98.7842569929
21
30.7914736205
0
LINE
8
0
10
98.7842569929
20
30.7914736205
11
99.5248069067
21
30.8294607397
0
LINE
8
0
10
99.5248069067
20
30.8294607397
11
100.102318895
21
30.896003587
0
LINE
8
0
10
100.102318895
20
30.896003587
11
100.692453072
21
31.0022831842
0
LINE
8
0
10
100.692453072
20
31.0022831842
11
101.057365139
21
31.0060471835
0
LINE
8
0
10
101.057365139
20
31.0060471835
11
101.266761363
21
30.9188157317
0
LINE
8
0
10
101.266761363
20
30.9188157317
11
102.113078619
21
28.8048174252
0
LINE
8
0
10
102.113078619
20
28.8048174252
11
102.021728038
21
28.5971851149
0
LINE
8
0
10
102.021728038
20
28.5971851149
11
101.755031298
21
28.3480910911
0
LINE
8
0
10
101.755031298
20
28.3480910911
11
101.254589788
21
28.0177700439
0
LINE
8
0
10
101.254589788
20
28.0177700439
11
100.790704882
21
27.6674004651
0
LINE
8
0
10
100.790704882
20
27.6674004651
11
100.228529589
21
27.1838550839
0
LINE
8
0
10
100.228529589
20
27.1838550839
11
99.583578091
21
26.5536757851
0
LINE
8
0
10
99.583578091
20
26.5536757851
11
98.8726482617
21
25.7648663112
0
LINE
8
0
10
98.8726482617
20
25.7648663112
11
98.2980088398
21
25.039617958
0
LINE
8
0
10
98.2980088398
20
25.039617958
11
98.6770638206
21
24.0927843899
0
LINE
8
0
10
98.6770638206
20
24.0927843899
11
99.2284582151
21
23.2347979646
0
LINE
8
0
10
99.2284582151
20
23.2347979646
11
100.15255165
21
23.2822001003
0
LINE
8
0
10
100.15255165
20
23.2822001003
11
101.207476638
21
23.4037520572
0
LINE
8
0
10
101.207476638
20
23.4037520572
11
102.094914113
21
23.5635741809
0
LINE
8
0
10
102.094914113
20
23.5635741809
11
102.814892215
21
23.7410248161
0
LINE
8
0
10
102.814892215
20
23.7410248161
11
103.369374493
21
23.9156600099
0
LINE
8
0
10
103.369374493
20
23.9156600099
11
103.928730631
21
24.1317026236
0
LINE
8
0
10
103.928730631
20
24.1317026236
11
104.286335919
21
24.2044586652
0
LINE
8
0
10
104.286335919
20
24.2044586652
11
104.508456742
21
24.1584320955
0
LINE
8
0
10
104.508456742
20
24.1584320955
11
105.739556753
21
22.2428030862
0
LINE
8
0
10
105.739556753
20
22.2428030862
11
105.689151669
21
22.0216347511
0
LINE
8
0
10
105.689151669
20
22.0216347511
11
105.47441584
21
21.7265694908
0
LINE
8
0
10
105.47441584
20
21.7265694908
11
105.045531629
21
21.3075085968
0
LINE
8
0
10
105.045531629
20
21.3075085968
11
104.656337607
21
20.875679857
0
LINE
8
0
10
104.656337607
20
20.875679857
11
104.195833118
21
20.294480397
0
LINE
8
0
10
104.195833118
20
20.294480397
11
103.681798951
21
19.5536313856
0
LINE
8
0
10
103.681798951
20
19.5536313856
11
103.132999724
21
18.6445323716
0
LINE
8
0
10
103.132999724
20
18.6445323716
11
102.705998939
21
17.8236389753
0
LINE
8
0
10
102.705998939
20
17.8236389753
11
103.257393333
21
16.9656525501
0
LINE
8
0
10
103.257393333
20
16.9656525501
11
103.961198311
21
16.2275231326
0
LINE
8
0
10
103.961198311
20
16.2275231326
11
104.859621261
21
16.4489544824
0
LINE
8
0
10
104.859621261
20
16.4489544824
11
105.872478521
21
16.7679557037
0
LINE
8
0
10
105.872478521
20
16.7679557037
11
106.713632309
21
17.0928382798
0
LINE
8
0
10
106.713632309
20
17.0928382798
11
107.387016715
21
17.4033389027
0
LINE
8
0
10
107.387016715
20
17.4033389027
11
107.898428849
21
17.6797546722
0
LINE
8
0
10
107.898428849
20
17.6797546722
11
108.406790358
21
17.9977519594
0
LINE
8
0
10
108.406790358
20
17.9977519594
11
108.744164082
21
18.1368704504
0
LINE
8
0
10
108.744164082
20
18.1368704504
11
108.970981478
21
18.1337122828
0
LINE
8
0
10
108.970981478
20
18.1337122828
11
110.542369081
21
16.4856883943
0
LINE
8
0
10
110.542369081
20
16.4856883943
11
110.534731266
21
16.2589776343
0
LINE
8
0
10
110.534731266
20
16.2589776343
11
110.37971746
21
15.9286055648
0
LINE
8
0
10
110.37971746
20
15.9286055648
11
110.037891542
21
15.4359507765
0
LINE
8
0
10
110.037891542
20
15.4359507765
11
109.737454888
21
14.9382702915
0
LINE
8
0
10
109.737454888
20
14.9382702915
11
109.395265037
21
14.2804228155
0
LINE
8
0
10
109.395265037
20
14.2804228155
11
109.030726734
21
13.4556803051
0
LINE
8
0
10
109.030726734
20
13.4556803051
11
108.663893144
21
12.459148958
0
LINE
8
0
10
108.663893144
20
12.459148958
11
108.399963916
21
11.5722797448
0
LINE
8
0
10
108.399963916
20
11.5722797448
11
109.103768894
21
10.8341503273
0
LINE
8
0
10
109.103768894
20
10.8341503273
11
109.93454711
21
10.2425558378
0
LINE
8
0
10
109.93454711
20
10.2425558378
11
110.774828228
21
10.6300132958
0
LINE
8
0
10
110.774828228
20
10.6300132958
11
111.70901046
21
11.1349342463
0
LINE
8
0
10
111.70901046
20
11.1349342463
11
112.473479071
21
11.6131351721
0
LINE
8
0
10
112.473479071
20
11.6131351721
11
113.075931915
21
12.0454634811
0
LINE
8
0
10
113.075931915
20
12.0454634811
11
113.525790136
21
12.4136694401
0
LINE
8
0
10
113.525790136
20
12.4136694401
11
113.964783509
21
12.8221281504
0
LINE
8
0
10
113.964783509
20
12.8221281504
11
114.269732102
21
13.0225809861
0
LINE
8
0
10
114.269732102
20
13.0225809861
11
114.493048299
21
13.062405365
0
LINE
8
0
10
114.493048299
20
13.062405365
11
116.347929454
21
11.7415504745
0
LINE
8
0
10
116.347929454
20
11.7415504745
11
116.383334957
21
11.5174912071
0
LINE
8
0
10
116.383334957
20
11.5174912071
11
116.293645778
21
11.1637528358
0
LINE
8
0
10
116.293645778
20
11.1637528358
11
116.051232631
21
10.6153099809
0
LINE
8
0
10
116.051232631
20
10.6153099809
11
115.85041191
21
10.0697652201
0
LINE
8
0
10
115.85041191
20
10.0697652201
11
115.638904329
21
9.35904604982
0
LINE
8
0
10
115.638904329
20
9.35904604982
11
115.437037254
21
8.48021838352
0
LINE
8
0
10
115.437037254
20
8.48021838352
11
115.265427623
21
7.43227194273
0
LINE
8
0
10
115.265427623
20
7.43227194273
11
115.174109041
21
6.51148067668
0
LINE
8
0
10
115.174109041
20
6.51148067668
11
116.004887257
21
5.9198861872
0
LINE
8
0
10
116.004887257
20
5.9198861872
11
116.932612222
21
5.496208392
0
LINE
8
0
10
116.932612222
20
5.496208392
11
117.684381559
21
6.03568823617
0
LINE
8
0
10
117.684381559
20
6.03568823617
11
118.506124983
21
6.70827975713
0
LINE
8
0
10
118.506124983
20
6.70827975713
11
119.16627853
21
7.32251560514
0
LINE
8
0
10
119.16627853
20
7.32251560514
11
119.676025596
21
7.86104612878
0
LINE
8
0
10
119.676025596
20
7.86104612878
11
120.048070858
21
8.30773435468
0
LINE
8
0
10
120.048070858
20
8.30773435468
11
120.401829729
21
8.79189172598
0
LINE
8
0
10
120.401829729
20
8.79189172598
11
120.663331555
21
9.04643401859
0
LINE
8
0
10
120.663331555
20
9.04643401859
11
120.875075324
21
9.12780158727
0
LINE
8
0
10
120.875075324
20
9.12780158727
11
122.946409792
21
8.18185483193
0
LINE
8
0
10
122.946409792
20
8.18185483193
11
123.023578966
21
7.9685451429
0
LINE
8
0
10
123.023578966
20
7.9685451429
11
123.002456015
21
7.60422549619
0
LINE
8
0
10
123.002456015
20
7.60422549619
11
122.868217082
21
7.0198167283
0
LINE
8
0
10
122.868217082
20
7.0198167283
11
122.774270478
21
6.44612510085
0
LINE
8
0
10
122.774270478
20
6.44612510085
11
122.701089602
21
5.70822147888
0
LINE
8
0
10
122.701089602
20
5.70822147888
11
122.669189757
21
4.80707177831
0
LINE
8
0
10
122.669189757
20
4.80707177831
11
122.699006503
21
3.74558575857
0
LINE
8
0
10
122.699006503
20
3.74558575857
11
122.783599061
21
2.82415223512
0
LINE
8
0
10
122.783599061
20
2.82415223512
11
123.711324025
21
2.40047443992
0
LINE
8
0
10
123.711324025
20
2.40047443992
11
124.702465341
21
2.16002615839
0
LINE
8
0
10
124.702465341
20
2.16002615839
11
125.338551996
21
2.83203018155
0
LINE
8
0
10
125.338551996
20
2.83203018155
11
126.018156663
21
3.64798306299
0
LINE
8
0
10
126.018156663
20
3.64798306299
11
126.550135477
21
4.37605374932
0
LINE
8
0
10
126.550135477
20
4.37605374932
11
126.948753177
21
5.00132259135
0
LINE
8
0
10
126.948753177
20
5.00132259135
11
127.229538794
21
5.51034860778
0
LINE
8
0
10
127.229538794
20
5.51034860778
11
127.485277396
21
6.05270593124
0
LINE
8
0
10
127.485277396
20
6.05270593124
11
127.693881099
21
6.35213785911
0
LINE
8
0
10
127.693881099
20
6.35213785911
11
127.886399468
21
6.47210778159
0
LINE
8
0
10
127.886399468
20
6.47210778159
11
130.099323824
21
5.93525814182
0
LINE
8
0
10
130.099323824
20
5.93525814182
11
130.215467575
21
5.74040759907
0
LINE
8
0
10
130.215467575
20
5.74040759907
11
130.263674289
21
5.37867413819
0
LINE
8
0
10
130.263674289
20
5.37867413819
11
130.242461315
21
4.77942151291
0
LINE
8
0
10
130.242461315
20
4.77942151291
11
130.258784303
21
4.1983177289
0
LINE
8
0
10
130.258784303
20
4.1983177289
11
130.326575079
21
3.45989941475
0
LINE
8
0
10
130.326575079
20
3.45989941475
11
130.465795409
21
2.56899757802
0
LINE
8
0
10
130.465795409
20
2.56899757802
11
130.695960878
21
1.53233684975
0
LINE
8
0
10
130.695960878
20
1.53233684975
11
130.953407178
21
0.643564077215
0
LINE
8
0
10
130.953407178
20
0.643564077215
11
131.944548494
21
0.403115795692
0
LINE
8
0
10
131.944548494
20
0.403115795692
11
132.963283732
21
0.354587455221
0
LINE
8
0
10
132.963283732
20
0.354587455221
11
133.460697874
21
1.13482768108
0
LINE
8
0
10
133.460697874
20
1.13482768108
11
133.973601101
21
2.06465125993
0
LINE
8
0
10
133.973601101
20
2.06465125993
11
134.358178082
21
2.88024241301
0
LINE
8
0
10
134.358178082
20
2.88024241301
11
134.631259335
21
3.56965072835
0
LINE
8
0
10
134.631259335
20
3.56965072835
11
134.810636982
21
4.12261700882
0
LINE
8
0
10
134.810636982
20
4.12261700882
11
134.959112257
21
4.70357207767
0
LINE
8
0
10
134.959112257
20
4.70357207767
11
135.107278353
21
5.03707139076
0
LINE
8
0
10
135.107278353
20
5.03707139076
11
135.273613208
21
5.19130764147
0
LINE
8
0
10
135.273613208
20
5.19130764147
11
137.5481466
21
5.08295826199
0
LINE
8
0
10
137.5481466
20
5.08295826199
11
137.69906719
21
4.91360927181
0
LINE
8
0
10
137.69906719
20
4.91360927181
11
137.814861254
21
4.56753598653
0
LINE
8
0
10
137.814861254
20
4.56753598653
11
137.907440931
21
3.97509805508
0
LINE
8
0
10
137.907440931
20
3.97509805508
11
138.033443555
21
3.40758471932
0
LINE
8
0
10
138.033443555
20
3.40758471932
11
138.239755849
21
2.6953400748
0
LINE
8
0
10
138.239755849
20
2.6953400748
11
138.545064567
21
1.8468856155
0
LINE
8
0
10
138.545064567
20
1.8468856155
11
138.967259978
21
0.872517798422
0
LINE
8
0
10
138.967259978
20
0.872517798422
11
139.388255242
21
0.0485283404707
0
LINE
8
0
10
139.388255242
20
0.0485283404707
11
140.40699048
21
0.0
0
LINE
8
0
10
140.40699048
20
0.0
11
141.416499893
21
0.145145541246
0
LINE
8
0
10
141.416499893
20
0.145145541246
11
141.75726368
21
1.00542205515
0
LINE
8
0
10
141.75726368
20
1.00542205515
11
142.084927809
21
2.01551008463
0
LINE
8
0
10
142.084927809
20
2.01551008463
11
142.308203342
21
2.88914411518
0
LINE
8
0
10
142.308203342
20
2.88914411518
11
142.445878279
21
3.61777489109
0
LINE
8
0
10
142.445878279
20
3.61777489109
11
142.517364782
21
4.19469579349
0
LINE
8
0
10
142.517364782
20
4.19469579349
11
142.553210445
21
4.79325137788
0
LINE
8
0
10
142.553210445
20
4.79325137788
11
142.635583828
21
5.14876454209
0
LINE
8
0
10
142.635583828
20
5.14876454209
11
142.769723392
21
5.33169262106
0
LINE
8
0
10
142.769723392
20
5.33169262106
11
145.023658258
21
5.65575953075
0
LINE
8
0
10
145.023658258
20
5.65575953075
11
145.203901023
21
5.51803280688
0
LINE
8
0
10
145.203901023
20
5.51803280688
11
145.383097337
21
5.20012768741
0
LINE
8
0
10
145.383097337
20
5.20012768741
11
145.586123594
21
4.63591670022
0
LINE
8
0
10
145.586123594
20
4.63591670022
11
145.817251793
21
4.1025052233
0
LINE
8
0
10
145.817251793
20
4.1025052233
11
146.154628939
21
3.4421766256
0
LINE
8
0
10
146.154628939
20
3.4421766256
11
146.614991393
21
2.66683489852
0
LINE
8
0
10
146.614991393
20
2.66683489852
11
147.213957506
21
1.78997618423
0
LINE
8
0
10
147.213957506
20
1.78997618423
11
147.783285867
21
1.06055116676
0
LINE
8
0
10
147.783285867
20
1.06055116676
11
148.79279528
21
1.205696708
0
LINE
8
0
10
148.79279528
20
1.205696708
11
149.756592569
21
1.53927019293
0
LINE
8
0
10
149.756592569
20
1.53927019293
11
149.92838991
21
2.44849036024
0
LINE
8
0
10
149.92838991
20
2.44849036024
11
150.058972304
21
3.50233562721
0
LINE
8
0
10
150.058972304
20
3.50233562721
11
150.11287663
21
4.40243712514
0
LINE
8
0
10
150.11287663
20
4.40243712514
11
150.110169321
21
5.14395574693
0
LINE
8
0
10
150.110169321
20
5.14395574693
11
150.071180971
21
5.7239798467
0
LINE
8
0
10
150.071180971
20
5.7239798467
11
149.993101467
21
6.31850258829
0
LINE
8
0
10
149.993101467
20
6.31850258829
11
150.006704947
21
6.68318043159
0
LINE
8
0
10
150.006704947
20
6.68318043159
11
150.103801068
21
6.88818884143
0
LINE
8
0
10
150.103801068
20
6.88818884143
11
152.255674328
21
7.63295941783
0
LINE
8
0
10
152.255674328
20
7.63295941783
11
152.458724826
21
7.53183276292
0
LINE
8
0
10
152.458724826
20
7.53183276292
11
152.694846769
21
7.25358572857
0
LINE
8
0
10
152.694846769
20
7.25358572857
11
153.000981708
21
6.73799374075
0
LINE
8
0
10
153.000981708
20
6.73799374075
11
153.328881905
21
6.25796300323
0
LINE
8
0
10
153.328881905
20
6.25796300323
11
153.785130216
21
5.67341644834
0
LINE
8
0
10
153.785130216
20
5.67341644834
11
154.383907707
21
4.99921032363
0
LINE
8
0
10
154.383907707
20
4.99921032363
11
155.137996324
21
4.2515526707
0
LINE
8
0
10
155.137996324
20
4.2515526707
11
155.835080772
21
3.64305541434
0
LINE
8
0
10
155.835080772
20
3.64305541434
11
156.798878061
21
3.97662889927
0
LINE
8
0
10
156.798878061
20
3.97662889927
11
157.682129081
21
4.48657411302
0
LINE
8
0
10
157.682129081
20
4.48657411302
11
157.678750772
21
5.41187634793
0
LINE
8
0
10
157.678750772
20
5.41187634793
11
157.607531844
21
6.47139013868
0
LINE
8
0
10
157.607531844
20
6.47139013868
11
157.49011672
21
7.36542709065
0
LINE
8
0
10
157.49011672
20
7.36542709065
11
157.347125013
21
8.09303314334
0
LINE
8
0
10
157.347125013
20
8.09303314334
11
157.199070951
21
8.65519685826
0
LINE
8
0
10
157.199070951
20
8.65519685826
11
157.009888277
21
9.22419915615
0
LINE
8
0
10
157.009888277
20
9.22419915615
11
156.954230188
21
9.58486127113
0
LINE
8
0
10
156.954230188
20
9.58486127113
11
157.010773559
21
9.80454047377
0
LINE
8
0
10
157.010773559
20
9.80454047377
11
158.982810908
21
10.9430967678
0
LINE
8
0
10
158.982810908
20
10.9430967678
11
159.201330364
21
10.8822251626
0
LINE
8
0
10
159.201330364
20
10.8822251626
11
159.485843873
21
10.6536927862
0
LINE
8
0
10
159.485843873
20
10.6536927862
11
159.884022981
21
10.2053546355
0
LINE
8
0
10
159.884022981
20
10.2053546355
11
160.296844008
21
9.79605419896
0
LINE
8
0
10
160.296844008
20
9.79605419896
11
160.85547348
21
9.30841672239
0
LINE
8
0
10
160.85547348
20
9.30841672239
11
161.571024631
21
8.75971376603
0
LINE
8
0
10
161.571024631
20
8.75971376603
11
162.452981025
21
8.16827947003
0
LINE
8
0
10
162.452981025
20
8.16827947003
11
163.252627112
21
7.70270265105
0
LINE
8
0
10
163.252627112
20
7.70270265105
11
164.135878131
21
8.2126478648
0
LINE
8
0
10
164.135878131
20
8.2126478648
11
164.906659888
21
8.8805340587
0
LINE
8
0
10
164.906659888
20
8.8805340587
11
164.72822803
21
9.7884755276
0
LINE
8
0
10
164.72822803
20
9.7884755276
11
164.457781818
21
10.8153642532
0
LINE
8
0
10
164.457781818
20
10.8153642532
11
164.173290932
21
11.6710238344
0
LINE
8
0
10
164.173290932
20
11.6710238344
11
163.895182921
21
12.3584197394
0
LINE
8
0
10
163.895182921
20
12.3584197394
11
163.643414206
21
12.8824050082
0
LINE
8
0
10
163.643414206
20
12.8824050082
11
163.349965917
21
13.4053216368
0
LINE
8
0
10
163.349965917
20
13.4053216368
11
163.227057888
21
13.7489327549
0
LINE
8
0
10
163.227057888
20
13.7489327549
11
163.241004884
21
13.9753429716
0
LINE
8
0
10
163.241004884
20
13.9753429716
11
164.961931754
21
15.4665345922
0
LINE
8
0
10
164.961931754
20
15.4665345922
11
165.188022305
21
15.4481180952
0
LINE
8
0
10
165.188022305
20
15.4481180952
11
165.510644321
21
15.2775601322
0
LINE
8
0
10
165.510644321
20
15.2775601322
11
165.986476367
21
14.9126799276
0
LINE
8
0
10
165.986476367
20
14.9126799276
11
166.469297797
21
14.5889029763
0
LINE
8
0
10
166.469297797
20
14.5889029763
11
167.110118106
21
14.215799067
0
LINE
8
0
10
167.110118106
20
14.215799067
11
167.916581032
21
13.8124308334
0
LINE
8
0
10
167.916581032
20
13.8124308334
11
168.894529002
21
13.3985958708
0
LINE
8
0
10
168.894529002
20
13.3985958708
11
169.767835435
21
13.0927666485
0
LINE
8
0
10
169.767835435
20
13.0927666485
11
170.538617192
21
13.7606528423
0
LINE
8
0
10
170.538617192
20
13.7606528423
11
171.169071625
21
14.5623408692
0
LINE
8
0
10
171.169071625
20
14.5623408692
11
170.82203521
21
15.4201062018
0
LINE
8
0
10
170.82203521
20
15.4201062018
11
170.362136344
21
16.3772554281
0
LINE
8
0
10
170.362136344
20
16.3772554281
11
169.920851939
21
17.1636118719
0
LINE
8
0
10
169.920851939
20
17.1636118719
11
169.517679171
21
17.7859533503
0
LINE
8
0
10
169.517679171
20
17.7859533503
11
169.171295381
21
18.25282198
0
LINE
8
0
10
169.171295381
20
18.25282198
11
168.784187461
21
18.71075337
0
LINE
8
0
10
168.784187461
20
18.71075337
11
168.598471709
21
19.0248944901
0
LINE
8
0
10
168.598471709
20
19.0248944901
11
168.56931825
21
19.2498526657
0
LINE
8
0
10
168.56931825
20
19.2498526657
11
169.976935859
21
21.0397840626
0
LINE
8
0
10
169.976935859
20
21.0397840626
11
170.202426005
21
21.0644882939
0
LINE
8
0
10
170.202426005
20
21.0644882939
11
170.551496128
21
20.9580691535
0
LINE
8
0
10
170.551496128
20
20.9580691535
11
171.087783301
21
20.6898346163
0
LINE
8
0
10
171.087783301
20
20.6898346163
11
171.62315471
21
20.4632832927
0
LINE
8
0
10
171.62315471
20
20.4632832927
11
172.323004941
21
20.218197898
0
LINE
8
0
10
172.323004941
20
20.218197898
11
173.191231971
21
19.9747431662
0
LINE
8
0
10
173.191231971
20
19.9747431662
11
174.229825929
21
19.7534646107
0
LINE
8
0
10
174.229825929
20
19.7534646107
11
175.145229138
21
19.61843645
0
LINE
8
0
10
175.145229138
20
19.61843645
11
175.77568357
21
20.4201244768
0
LINE
8
0
10
175.77568357
20
20.4201244768
11
176.243024414
21
21.3266392425
0
LINE
8
0
10
176.243024414
20
21.3266392425
11
175.739926242
21
22.1032265648
0
LINE
8
0
10
175.739926242
20
22.1032265648
11
175.107196666
21
22.9560424251
0
LINE
8
0
10
175.107196666
20
22.9560424251
11
174.525067909
21
23.6446747606
0
LINE
8
0
10
174.525067909
20
23.6446747606
11
174.0114021
21
24.17946877
0
LINE
8
0
10
174.0114021
20
24.17946877
11
173.582922447
21
24.5723469119
0
LINE
8
0
10
173.582922447
20
24.5723469119
11
173.116145986
21
24.9487422296
0
LINE
8
0
10
173.116145986
20
24.9487422296
11
172.874334762
21
25.2220594733
0
LINE
8
0
10
172.874334762
20
25.2220594733
11
172.803134529
21
25.4374350332
0
LINE
8
0
10
172.803134529
20
25.4374350332
11
173.84656791
21
27.461413422
0
LINE
8
0
10
173.84656791
20
27.461413422
11
174.063307849
21
27.5283455064
0
LINE
8
0
10
174.063307849
20
27.5283455064
11
174.426209774
21
27.4899114536
0
LINE
8
0
10
174.426209774
20
27.4899114536
11
175.00356926
21
27.3280172788
0
LINE
8
0
10
175.00356926
20
27.3280172788
11
175.57214093
21
27.2068797381
0
LINE
8
0
10
175.57214093
20
27.2068797381
11
176.305726671
21
27.0986708828
0
LINE
8
0
10
176.305726671
20
27.0986708828
11
177.204337819
21
27.023928741
0
LINE
8
0
10
177.204337819
20
27.023928741
11
178.266040273
21
27.0032041762
0
LINE
8
0
10
178.266040273
20
27.0032041762
11
179.1904552
21
27.0438573466
0
LINE
8
0
10
179.1904552
20
27.0438573466
11
179.657796044
21
27.9503721123
0
LINE
8
0
10
179.657796044
20
27.9503721123
11
179.945132381
21
28.9289498114
0
LINE
8
0
10
179.945132381
20
28.9289498114
11
179.304155733
21
29.5962912341
0
LINE
8
0
10
179.304155733
20
29.5962912341
11
178.521463941
21
30.3139507411
0
LINE
8
0
10
178.521463941
20
30.3139507411
11
177.819530483
21
30.8799700017
0
LINE
8
0
10
177.819530483
20
30.8799700017
11
177.213936852
21
31.307887693
0
LINE
8
0
10
177.213936852
20
31.307887693
11
176.718847707
21
31.6125757075
0
LINE
8
0
10
176.718847707
20
31.6125757075
11
176.189273223
21
31.8938310455
0
LINE
8
0
10
176.189273223
20
31.8938310455
11
175.900106214
21
32.1164460154
0
LINE
8
0
10
175.900106214
20
32.1164460154
11
175.78943257
21
32.3144547257
0
LINE
8
0
10
175.78943257
20
32.3144547257
11
176.430969321
21
34.499328254
0
LINE
8
0
10
176.430969321
20
34.499328254
11
176.631125507
21
34.6060690915
0
LINE
8
0
10
176.631125507
20
34.6060690915
11
176.994743014
21
34.6370092331
0
LINE
8
0
10
176.994743014
20
34.6370092331
11
177.592307535
21
34.587306698
0
LINE
8
0
10
177.592307535
20
34.587306698
11
178.173529805
21
34.5759611665
0
LINE
8
0
10
178.173529805
20
34.5759611665
11
178.914337357
21
34.6085398006
0
LINE
8
0
10
178.914337357
20
34.6085398006
11
179.810854474
21
34.7052116247
0
LINE
8
0
10
179.810854474
20
34.7052116247
11
180.857292731
21
34.8857900903
0
LINE
8
0
10
180.857292731
20
34.8857900903
11
181.757308614
21
35.1006552803
0
LINE
8
0
10
138.598446827
20
43.0456874656
11
138.28657929
21
43.0129088667
0
LINE
8
0
10
138.28657929
20
43.0129088667
11
137.974711754
21
43.0456874656
0
LINE
8
0
10
137.974711754
20
43.0456874656
11
137.676474326
21
43.1425906803
0
LINE
8
0
10
137.676474326
20
43.1425906803
11
137.404901412
21
43.2993833752
0
LINE
8
0
10
137.404901412
20
43.2993833752
11
137.171862052
21
43.5092129572
0
LINE
8
0
10
137.171862052
20
43.5092129572
11
136.987541185
21
43.7629088667
0
LINE
8
0
10
136.987541185
20
43.7629088667
11
136.859994516
21
44.0493833752
0
LINE
8
0
10
136.859994516
20
44.0493833752
11
136.794796447
21
44.3561161718
0
LINE
8
0
10
136.794796447
20
44.3561161718
11
136.794796447
21
44.6697015616
0
LINE
8
0
10
136.794796447
20
44.6697015616
11
136.859994516
21
44.9764343583
0
LINE
8
0
10
136.859994516
20
44.9764343583
11
136.987541185
21
45.2629088667
0
LINE
8
0
10
136.987541185
20
45.2629088667
11
137.171862052
21
45.5166047763
0
LINE
8
0
10
137.171862052
20
45.5166047763
11
137.404901412
21
45.7264343583
0
LINE
8
0
10
137.404901412
20
45.7264343583
11
137.676474326
21
45.8832270532
0
LINE
8
0
10
137.676474326
20
45.8832270532
11
137.974711754
21
45.9801302678
0
LINE
8
0
10
137.974711754
20
45.9801302678
11
138.28657929
21
46.0129088667
0
LINE
8
0
10
138.28657929
20
46.0129088667
11
138.598446827
21
45.9801302678
0
LINE
8
0
10
138.598446827
20
45.9801302678
11
138.896684255
21
45.8832270532
0
LINE
8
0
10
138.896684255
20
45.8832270532
11
139.168257169
21
45.7264343583
0
LINE
8
0
10
139.168257169
20
45.7264343583
11
139.401296528
21
45.5166047763
0
LINE
8
0
10
139.401296528
20
45.5166047763
11
139.585617396
21
45.2629088667
0
LINE
8
0
10
139.585617396
20
45.2629088667
11
139.713164065
21
44.9764343583
0
LINE
8
0
10
139.713164065
20
44.9764343583
11
139.778362133
21
44.6697015616
0
LINE
8
0
10
139.778362133
20
44.6697015616
11
139.778362133
21
44.3561161718
0
LINE
8
0
10
139.778362133
20
44.3561161718
11
139.713164065
21
44.0493833752
0
LINE
8
0
10
139.713164065
20
44.0493833752
11
139.585617396
21
43.7629088667
0
LINE
8
0
10
139.585617396
20
43.7629088667
11
139.401296528
21
43.5092129572
0
LINE
8
0
10
139.401296528
20
43.5092129572
11
139.168257169
21
43.2993833752
0
LINE
8
0
10
139.168257169
20
43.2993833752
11
138.896684255
21
43.1425906803
0
LINE
8
0
10
138.896684255
20
43.1425906803
11
138.598446827
21
43.0456874656
0
ENDSEC
0
EOF
