0
SECTION
2
HEADER
9
$ACADVER
1
AC1009
9
$INSBASE
10
0.0
20
0.0
30
0.0
9
$EXTMIN
10
0.0
20
0.0
9
$EXTMAX
10
0.0
20
0.0
0
ENDSEC
0
SECTION
2
TABLES
0
TABLE
2
LTYPE
70
1
0
LTYPE
2
CONTINUOUS
70
64
3
Solid line
72
65
73
0
40
0.0
0
ENDTAB
0
TABLE
2
LAYER
70
0
0
ENDTAB
0
TABLE
2
STYLE
70
1
0
STYLE
2
STANDARD
70
0
40
0
41
40
50
50
71
0
42
1
3
ARIAL.TTF
4

0
ENDTAB
0
TABLE
2
VIEW
70
0
0
ENDTAB
0
ENDSEC
0
SECTION
2
BLOCKS
0
ENDSEC
0
SECTION
2
ENTITIES
0
LINE
8
0
10
141.938986708
20
61.8725661174
11
142.120714353
21
62.9031948056
0
LINE
8
0
10
142.120714353
20
62.9031948056
11
142.181564533
21
63.9479520432
0
LINE
8
0
10
142.181564533
20
63.9479520432
11
141.282154744
21
64.4440786135
0
LINE
8
0
10
141.282154744
20
64.4440786135
11
140.402364013
21
64.8857883132
0
LINE
8
0
10
140.402364013
20
64.8857883132
11
139.595213075
21
65.2525615964
0
LINE
8
0
10
139.595213075
20
65.2525615964
11
138.865055991
21
65.5507570073
0
LINE
8
0
10
138.865055991
20
65.5507570073
11
138.215860713
21
65.7869527964
0
LINE
8
0
10
138.215860713
20
65.7869527964
11
137.572929645
21
65.9930116521
0
LINE
8
0
10
137.572929645
20
65.9930116521
11
137.373642746
21
66.0933757544
0
LINE
8
0
10
137.373642746
20
66.0933757544
11
137.281740033
21
66.1973816358
0
LINE
8
0
10
137.281740033
20
66.1973816358
11
137.414142355
21
68.4706417097
0
LINE
8
0
10
137.414142355
20
68.4706417097
11
137.517498
21
68.5632750868
0
LINE
8
0
10
137.517498
20
68.5632750868
11
137.727088954
21
68.639824766
0
LINE
8
0
10
137.727088954
20
68.639824766
11
138.389594725
21
68.7698505842
0
LINE
8
0
10
138.389594725
20
68.7698505842
11
139.061821035
21
68.9290823302
0
LINE
8
0
10
139.061821035
20
68.9290823302
11
139.821659431
21
69.1404953868
0
LINE
8
0
10
139.821659431
20
69.1404953868
11
140.665932483
21
69.4110841757
0
LINE
8
0
10
140.665932483
20
69.4110841757
11
141.59105375
21
69.7476697226
0
LINE
8
0
10
141.59105375
20
69.7476697226
11
142.541978831
21
70.1360265592
0
LINE
8
0
10
142.541978831
20
70.1360265592
11
142.60282901
21
71.1807837968
0
LINE
8
0
10
142.60282901
20
71.1807837968
11
142.541978831
21
72.2255410344
0
LINE
8
0
10
142.541978831
20
72.2255410344
11
141.59105375
21
72.613897871
0
LINE
8
0
10
141.59105375
20
72.613897871
11
140.665932483
21
72.9504834179
0
LINE
8
0
10
140.665932483
20
72.9504834179
11
139.821659431
21
73.2210722068
0
LINE
8
0
10
139.821659431
20
73.2210722068
11
139.061821035
21
73.4324852634
0
LINE
8
0
10
139.061821035
20
73.4324852634
11
138.389594725
21
73.5917170094
0
LINE
8
0
10
138.389594725
20
73.5917170094
11
137.727088954
21
73.7217428276
0
LINE
8
0
10
137.727088954
20
73.7217428276
11
137.517498
21
73.7982925068
0
LINE
8
0
10
137.517498
20
73.7982925068
11
137.414142355
21
73.8909258839
0
LINE
8
0
10
137.414142355
20
73.8909258839
11
137.281740033
21
76.1641859578
0
LINE
8
0
10
137.281740033
20
76.1641859578
11
137.373642746
21
76.2681918392
0
LINE
8
0
10
137.373642746
20
76.2681918392
11
137.572929645
21
76.3685559415
0
LINE
8
0
10
137.572929645
20
76.3685559415
11
138.215860713
21
76.5746147971
0
LINE
8
0
10
138.215860713
20
76.5746147971
11
138.865055991
21
76.8108105863
0
LINE
8
0
10
138.865055991
20
76.8108105863
11
139.595213075
21
77.1090059971
0
LINE
8
0
10
139.595213075
20
77.1090059971
11
140.402364013
21
77.4757792804
0
LINE
8
0
10
140.402364013
20
77.4757792804
11
141.282154744
21
77.9174889801
0
LINE
8
0
10
141.282154744
20
77.9174889801
11
142.181564533
21
78.4136155504
0
LINE
8
0
10
142.181564533
20
78.4136155504
11
142.120714353
21
79.4583727879
0
LINE
8
0
10
142.120714353
20
79.4583727879
11
141.938986708
21
80.4890014762
0
LINE
8
0
10
141.938986708
20
80.4890014762
11
140.949405966
21
80.7643367191
0
LINE
8
0
10
140.949405966
20
80.7643367191
11
139.991464841
21
80.9912463711
0
LINE
8
0
10
139.991464841
20
80.9912463711
11
139.12148702
21
81.1619914165
0
LINE
8
0
10
139.12148702
20
81.1619914165
11
138.342242821
21
81.2837631199
0
LINE
8
0
10
138.342242821
20
81.2837631199
11
137.656076188
21
81.3638774866
0
LINE
8
0
10
137.656076188
20
81.3638774866
11
136.982954968
21
81.4161118912
0
LINE
8
0
10
136.982954968
20
81.4161118912
11
136.765894318
21
81.4678119441
0
LINE
8
0
10
136.765894318
20
81.4678119441
11
136.652483448
21
81.5478201095
0
LINE
8
0
10
136.652483448
20
81.5478201095
11
136.257066997
21
83.7903382407
0
LINE
8
0
10
136.257066997
20
83.7903382407
11
136.33627395
21
83.9043101252
0
LINE
8
0
10
136.33627395
20
83.9043101252
11
136.522561782
21
84.0271313983
0
LINE
8
0
10
136.522561782
20
84.0271313983
11
137.137223607
21
84.3064366989
0
LINE
8
0
10
137.137223607
20
84.3064366989
11
137.754608601
21
84.6164023883
0
LINE
8
0
10
137.754608601
20
84.6164023883
11
138.445210249
21
84.997347572
0
LINE
8
0
10
138.445210249
20
84.997347572
11
139.204323743
21
85.4553453701
0
LINE
8
0
10
139.204323743
20
85.4553453701
11
140.026886278
21
85.9962058567
0
LINE
8
0
10
140.026886278
20
85.9962058567
11
140.862617799
21
86.5933928998
0
LINE
8
0
10
140.862617799
20
86.5933928998
11
140.680890155
21
87.6240215881
0
LINE
8
0
10
140.680890155
20
87.6240215881
11
140.380742599
21
88.6265842419
0
LINE
8
0
10
140.380742599
20
88.6265842419
11
139.365888577
21
88.7851744543
0
LINE
8
0
10
139.365888577
20
88.7851744543
11
138.388082105
21
88.8993396476
0
LINE
8
0
10
138.388082105
20
88.8993396476
11
137.504164473
21
88.9679319157
0
LINE
8
0
10
137.504164473
20
88.9679319157
11
136.716052413
21
88.9984155126
0
LINE
8
0
10
136.716052413
20
88.9984155126
11
136.025224683
21
88.9983290906
0
LINE
8
0
10
136.025224683
20
88.9983290906
11
135.350590823
21
88.9720657008
0
LINE
8
0
10
135.350590823
20
88.9720657008
11
135.128995849
21
88.998216973
0
LINE
8
0
10
135.128995849
20
88.998216973
11
135.007063442
21
89.0645179535
0
LINE
8
0
10
135.007063442
20
89.0645179535
11
134.353980191
21
91.2459679312
0
LINE
8
0
10
134.353980191
20
91.2459679312
11
134.419420247
21
91.3683645446
0
LINE
8
0
10
134.419420247
20
91.3683645446
11
134.590189788
21
91.5119820414
0
LINE
8
0
10
134.590189788
20
91.5119820414
11
135.168270123
21
91.8607566619
0
LINE
8
0
10
135.168270123
20
91.8607566619
11
135.745495761
21
92.2403004974
0
LINE
8
0
10
135.745495761
20
92.2403004974
11
136.387202771
21
92.6988438239
0
LINE
8
0
10
136.387202771
20
92.6988438239
11
137.088013111
21
93.2418725023
0
LINE
8
0
10
137.088013111
20
93.2418725023
11
137.842223703
21
93.8745695655
0
LINE
8
0
10
137.842223703
20
93.8745695655
11
138.602975123
21
94.5647411513
0
LINE
8
0
10
138.602975123
20
94.5647411513
11
138.302827567
21
95.5673038052
0
LINE
8
0
10
138.302827567
20
95.5673038052
11
137.888319082
21
96.5282424847
0
LINE
8
0
10
137.888319082
20
96.5282424847
11
136.861915941
21
96.567943006
0
LINE
8
0
10
136.861915941
20
96.567943006
11
135.877467275
21
96.5678198522
0
LINE
8
0
10
135.877467275
20
96.5678198522
11
134.991563302
21
96.5333317502
0
LINE
8
0
10
134.991563302
20
96.5333317502
11
134.205241244
21
96.4721150022
0
LINE
8
0
10
134.205241244
20
96.4721150022
11
133.519094677
21
96.3918289602
0
LINE
8
0
10
133.519094677
20
96.3918289602
11
132.852071444
21
96.2874229434
0
LINE
8
0
10
132.852071444
20
96.2874229434
11
132.628938839
21
96.2876717838
0
LINE
8
0
10
132.628938839
20
96.2876717838
11
132.500133821
21
96.3393689723
0
LINE
8
0
10
132.500133821
20
96.3393689723
11
131.5982156
21
98.4302504277
0
LINE
8
0
10
131.5982156
20
98.4302504277
11
131.649003794
21
98.5594165658
0
LINE
8
0
10
131.649003794
20
98.5594165658
11
131.801945678
21
98.7218881062
0
LINE
8
0
10
131.801945678
20
98.7218881062
11
132.335626979
21
99.1354154682
0
LINE
8
0
10
132.335626979
20
99.1354154682
11
132.864887274
21
99.5794047705
0
LINE
8
0
10
132.864887274
20
99.5794047705
11
133.44902166
21
100.109345228
0
LINE
8
0
10
133.44902166
20
100.109345228
11
134.08205159
21
100.730061255
0
LINE
8
0
10
134.08205159
20
100.730061255
11
134.757710833
21
101.446038753
0
LINE
8
0
10
134.757710833
20
101.446038753
11
135.433194293
21
102.219861494
0
LINE
8
0
10
135.433194293
20
102.219861494
11
135.018685808
21
103.180800174
0
LINE
8
0
10
135.018685808
20
103.180800174
11
134.49542191
21
104.087119832
0
LINE
8
0
10
134.49542191
20
104.087119832
11
133.47134999
21
104.007393781
0
LINE
8
0
10
133.47134999
20
104.007393781
11
132.493572111
21
103.892983945
0
LINE
8
0
10
132.493572111
20
103.892983945
11
131.617662128
21
103.755881865
0
LINE
8
0
10
131.617662128
20
103.755881865
11
130.843763729
21
103.603792624
0
LINE
8
0
10
130.843763729
20
103.603792624
11
130.17157728
21
103.444392693
0
LINE
8
0
10
130.17157728
20
103.444392693
11
129.521185018
21
103.263255961
0
LINE
8
0
10
129.521185018
20
103.263255961
11
129.299532267
21
103.237599005
0
LINE
8
0
10
129.299532267
20
103.237599005
11
129.165596506
21
103.273993286
0
LINE
8
0
10
129.165596506
20
103.273993286
11
128.027040212
21
105.246030634
0
LINE
8
0
10
128.027040212
20
105.246030634
11
128.062489721
21
105.380219546
0
LINE
8
0
10
128.062489721
20
105.380219546
11
128.195535673
21
105.559347981
0
LINE
8
0
10
128.195535673
20
105.559347981
11
128.677600815
21
106.032035837
0
LINE
8
0
10
128.677600815
20
106.032035837
11
129.151738429
21
106.534466412
0
LINE
8
0
10
129.151738429
20
106.534466412
11
129.670400775
21
107.128637465
0
LINE
8
0
10
129.670400775
20
107.128637465
11
130.22708965
21
107.818646722
0
LINE
8
0
10
130.22708965
20
107.818646722
11
130.815060413
21
108.608222286
0
LINE
8
0
10
130.815060413
20
108.608222286
11
131.396141159
21
109.455231559
0
LINE
8
0
10
131.396141159
20
109.455231559
11
130.872877261
21
110.361551217
0
LINE
8
0
10
130.872877261
20
110.361551217
11
130.247934195
21
111.200995434
0
LINE
8
0
10
130.247934195
20
111.200995434
11
129.240042313
21
111.002920969
0
LINE
8
0
10
129.240042313
20
111.002920969
11
128.28215799
21
110.775771648
0
LINE
8
0
10
128.28215799
20
110.775771648
11
127.428087177
21
110.537909661
0
LINE
8
0
10
127.428087177
20
110.537909661
11
126.677078085
21
110.297004673
0
LINE
8
0
10
126.677078085
20
110.297004673
11
126.027941923
21
110.060646463
0
LINE
8
0
10
126.027941923
20
110.060646463
11
125.402976072
21
109.805228581
0
LINE
8
0
10
125.402976072
20
109.805228581
11
125.185800648
21
109.754012793
0
LINE
8
0
10
125.185800648
20
109.754012793
11
125.048545394
21
109.774611996
0
LINE
8
0
10
125.048545394
20
109.774611996
11
123.688748048
21
111.601136815
0
LINE
8
0
10
123.688748048
20
111.601136815
11
123.708379479
21
111.738533827
0
LINE
8
0
10
123.708379479
20
111.738533827
11
123.819730279
21
111.931896752
0
LINE
8
0
10
123.819730279
20
111.931896752
11
124.243660158
21
112.457352808
0
LINE
8
0
10
124.243660158
20
112.457352808
11
124.656263194
21
113.011430145
0
LINE
8
0
10
124.656263194
20
113.011430145
11
125.102439482
21
113.661796649
0
LINE
8
0
10
125.102439482
20
113.661796649
11
125.575259041
21
114.411767944
0
LINE
8
0
10
125.575259041
20
114.411767944
11
126.067590028
21
115.26426392
0
LINE
8
0
10
126.067590028
20
115.26426392
11
126.546409939
21
116.173005376
0
LINE
8
0
10
126.546409939
20
116.173005376
11
125.921466873
21
117.012449594
0
LINE
8
0
10
125.921466873
20
117.012449594
11
125.203295924
21
117.773666329
0
LINE
8
0
10
125.203295924
20
117.773666329
11
124.225214088
21
117.459922066
0
LINE
8
0
10
124.225214088
20
117.459922066
11
123.300177062
21
117.123105065
0
LINE
8
0
10
123.300177062
20
117.123105065
11
122.479495262
21
116.787699847
0
LINE
8
0
10
122.479495262
20
116.787699847
11
121.761531587
21
116.461236937
0
LINE
8
0
10
121.761531587
20
116.461236937
11
121.144224165
21
116.151116789
0
LINE
8
0
10
121.144224165
20
116.151116789
11
120.553136316
21
115.824871844
0
LINE
8
0
10
120.553136316
20
115.824871844
11
120.343375145
21
115.748789831
0
LINE
8
0
10
120.343375145
20
115.748789831
11
120.20465654
21
115.753315387
0
LINE
8
0
10
120.20465654
20
115.753315387
11
118.642007068
21
117.409627063
0
LINE
8
0
10
118.642007068
20
117.409627063
11
118.645554938
21
117.548374115
0
LINE
8
0
10
118.645554938
20
117.548374115
11
118.733704759
21
117.753356628
0
LINE
8
0
10
118.733704759
20
117.753356628
11
119.093766451
21
118.324474993
0
LINE
8
0
10
119.093766451
20
118.324474993
11
119.43925516
21
118.922706146
0
LINE
8
0
10
119.43925516
20
118.922706146
11
119.806911621
21
119.62047301
0
LINE
8
0
10
119.806911621
20
119.62047301
11
120.18946779
21
120.420264268
0
LINE
8
0
10
120.18946779
20
120.420264268
11
120.579501069
21
121.32415211
0
LINE
8
0
10
120.579501069
20
121.32415211
11
120.949584927
21
122.28233658
0
LINE
8
0
10
120.949584927
20
122.28233658
11
120.231413978
21
123.043553315
0
LINE
8
0
10
120.231413978
20
123.043553315
11
119.429727174
21
123.716248416
0
LINE
8
0
10
119.429727174
20
123.716248416
11
118.494682263
21
123.291077209
0
LINE
8
0
10
118.494682263
20
123.291077209
11
117.615002074
21
122.849147401
0
LINE
8
0
10
117.615002074
20
122.849147401
11
116.8388076
21
122.42073473
0
LINE
8
0
10
116.8388076
20
122.42073473
11
116.163598569
21
122.013128751
0
LINE
8
0
10
116.163598569
20
122.013128751
11
115.58646791
21
121.633440506
0
LINE
8
0
10
115.58646791
20
121.633440506
11
115.037251512
21
121.240780402
0
LINE
8
0
10
115.037251512
20
121.240780402
11
114.837741254
21
121.140861043
0
LINE
8
0
10
114.837741254
20
121.140861043
11
114.69943523
21
121.129251752
0
LINE
8
0
10
114.69943523
20
121.129251752
11
112.955065785
21
122.59295151
0
LINE
8
0
10
112.955065785
20
122.59295151
11
112.942482117
21
122.731172286
0
LINE
8
0
10
112.942482117
20
122.731172286
11
113.006238883
21
122.94500235
0
LINE
8
0
10
113.006238883
20
122.94500235
11
113.297563171
21
123.554059629
0
LINE
8
0
10
113.297563171
20
123.554059629
11
113.571265411
21
124.188354548
0
LINE
8
0
10
113.571265411
20
124.188354548
11
113.855430122
21
124.924085671
0
LINE
8
0
10
113.855430122
20
124.924085671
11
114.142549485
21
125.762881088
0
LINE
8
0
10
114.142549485
20
125.762881088
11
114.425010525
21
126.705937263
0
LINE
8
0
10
114.425010525
20
126.705937263
11
114.681353581
21
127.700606947
0
LINE
8
0
10
114.681353581
20
127.700606947
11
113.879666777
21
128.373302048
0
LINE
8
0
10
113.879666777
20
128.373302048
11
113.005305559
21
128.948378468
0
LINE
8
0
10
113.005305559
20
128.948378468
11
112.125942451
21
128.417530028
0
LINE
8
0
10
112.125942451
20
128.417530028
11
111.303515265
21
127.876463754
0
LINE
8
0
10
111.303515265
20
127.876463754
11
110.582304815
21
127.360837179
0
LINE
8
0
10
110.582304815
20
127.360837179
11
109.958981472
21
126.877600301
0
LINE
8
0
10
109.958981472
20
126.877600301
11
109.429832279
21
126.433478593
0
LINE
8
0
10
109.429832279
20
126.433478593
11
108.929914542
21
125.979713383
0
LINE
8
0
10
108.929914542
20
125.979713383
11
108.74335323
21
125.857307916
0
LINE
8
0
10
108.74335323
20
125.857307916
11
108.607330138
21
125.829720774
0
LINE
8
0
10
108.607330138
20
125.829720774
11
106.704830326
21
127.081014585
0
LINE
8
0
10
106.704830326
20
127.081014585
11
106.67628529
21
127.216839888
0
LINE
8
0
10
106.67628529
20
127.216839888
11
106.7147868
21
127.436625818
0
LINE
8
0
10
106.7147868
20
127.436625818
11
106.933434024
21
128.075385555
0
LINE
8
0
10
106.933434024
20
128.075385555
11
107.131648442
21
128.737166489
0
LINE
8
0
10
107.131648442
20
128.737166489
11
107.328478562
21
129.500912371
0
LINE
8
0
10
107.328478562
20
129.500912371
11
107.516278323
21
130.367368676
0
LINE
8
0
10
107.516278323
20
130.367368676
11
107.687347322
21
131.336839969
0
LINE
8
0
10
107.687347322
20
131.336839969
11
107.826482976
21
132.354543664
0
LINE
8
0
10
107.826482976
20
132.354543664
11
106.952121758
21
132.929620084
0
LINE
8
0
10
106.952121758
20
132.929620084
11
106.016910359
21
133.399300901
0
LINE
8
0
10
106.016910359
20
133.399300901
11
105.205120933
21
132.769954043
0
LINE
8
0
10
105.205120933
20
132.769954043
11
104.451068665
21
132.137068297
0
LINE
8
0
10
104.451068665
20
132.137068297
11
103.794595374
21
131.541200781
0
LINE
8
0
10
103.794595374
20
131.541200781
11
103.231587098
21
130.988867955
0
LINE
8
0
10
103.231587098
20
130.988867955
11
102.757575206
21
130.486318767
0
LINE
8
0
10
102.757575206
20
130.486318767
11
102.313716659
21
129.977584849
0
LINE
8
0
10
102.313716659
20
129.977584849
11
102.142627215
21
129.834348597
0
LINE
8
0
10
102.142627215
20
129.834348597
11
102.010726535
21
129.791156672
0
LINE
8
0
10
102.010726535
20
129.791156672
11
99.9758244006
21
130.813122935
0
LINE
8
0
10
99.9758244006
20
130.813122935
11
99.9317040212
21
130.944715959
0
LINE
8
0
10
99.9317040212
20
130.944715959
11
99.944429609
21
131.167485528
0
LINE
8
0
10
99.944429609
20
131.167485528
11
100.087442939
21
131.827309593
0
LINE
8
0
10
100.087442939
20
131.827309593
11
100.207489025
21
132.507627091
0
LINE
8
0
10
100.207489025
20
132.507627091
11
100.314322765
21
133.289059379
0
LINE
8
0
10
100.314322765
20
133.289059379
11
100.400263254
21
134.171459238
0
LINE
8
0
10
100.400263254
20
134.171459238
11
100.457626798
21
135.154235211
0
LINE
8
0
10
100.457626798
20
135.154235211
11
100.477673479
21
136.181210221
0
LINE
8
0
10
100.477673479
20
136.181210221
11
99.5424620806
21
136.650891039
0
LINE
8
0
10
99.5424620806
20
136.650891039
11
98.5590476324
21
137.008824626
0
LINE
8
0
10
98.5590476324
20
137.008824626
11
97.8258099465
21
136.289490186
0
LINE
8
0
10
97.8258099465
20
136.289490186
11
97.1503298608
21
135.573343662
0
LINE
8
0
10
97.1503298608
20
135.573343662
11
96.5674714036
21
134.905293291
0
LINE
8
0
10
96.5674714036
20
134.905293291
11
96.0723919156
21
134.291333871
0
LINE
8
0
10
96.0723919156
20
134.291333871
11
95.6599275222
21
133.737153319
0
LINE
8
0
10
95.6599275222
20
133.737153319
11
95.2781305909
21
133.180330445
0
LINE
8
0
10
95.2781305909
20
133.180330445
11
95.1248267065
21
133.018200434
0
LINE
8
0
10
95.1248267065
20
133.018200434
11
94.9988321679
21
132.959987822
0
LINE
8
0
10
94.9988321679
20
132.959987822
11
92.8590462723
21
133.738806196
0
LINE
8
0
10
92.8590462723
20
133.738806196
11
92.7999472015
21
133.864387372
0
LINE
8
0
10
92.7999472015
20
133.864387372
11
92.7867247749
21
134.087128003
0
LINE
8
0
10
92.7867247749
20
134.087128003
11
92.8521702015
21
134.759093409
0
LINE
8
0
10
92.8521702015
20
134.759093409
11
92.8924245375
21
135.448747343
0
LINE
8
0
10
92.8924245375
20
135.448747343
11
92.9078171549
21
136.237298505
0
LINE
8
0
10
92.9078171549
20
136.237298505
11
92.8907361736
21
137.123708974
0
LINE
8
0
10
92.8907361736
20
137.123708974
11
92.8336185198
21
138.106499269
0
LINE
8
0
10
92.8336185198
20
138.106499269
11
92.7343051304
21
139.128857519
0
LINE
8
0
10
92.7343051304
20
139.128857519
11
91.7508906821
21
139.486791106
0
LINE
8
0
10
91.7508906821
20
139.486791106
11
90.7325721773
21
139.728137025
0
LINE
8
0
10
90.7325721773
20
139.728137025
11
90.0878020138
21
138.928542767
0
LINE
8
0
10
90.0878020138
20
138.928542767
11
89.5000288197
21
138.138820119
0
LINE
8
0
10
89.5000288197
20
138.138820119
11
88.9986673572
21
137.407621129
0
LINE
8
0
10
88.9986673572
20
137.407621129
11
88.5782117578
21
136.740337862
0
LINE
8
0
10
88.5782117578
20
136.740337862
11
88.2328727363
21
136.142020287
0
LINE
8
0
10
88.2328727363
20
136.142020287
11
87.9183005694
21
135.544638532
0
LINE
8
0
10
87.9183005694
20
135.544638532
11
87.7848554164
21
135.365807291
0
LINE
8
0
10
87.7848554164
20
135.365807291
11
87.6664708796
21
135.293361219
0
LINE
8
0
10
87.6664708796
20
135.293361219
11
85.4507381561
21
135.818499522
0
LINE
8
0
10
85.4507381561
20
135.818499522
11
85.3774596074
21
135.936370579
0
LINE
8
0
10
85.3774596074
20
135.936370579
11
85.3384679772
21
136.156070088
0
LINE
8
0
10
85.3384679772
20
136.156070088
11
85.3254604631
21
136.831089654
0
LINE
8
0
10
85.3254604631
20
136.831089654
11
85.2853786788
21
137.520753638
0
LINE
8
0
10
85.2853786788
20
137.520753638
11
85.2091220144
21
138.305759874
0
LINE
8
0
10
85.2091220144
20
138.305759874
11
85.0892505541
21
139.184193771
0
LINE
8
0
10
85.0892505541
20
139.184193771
11
84.9184241201
21
140.153707835
0
LINE
8
0
10
84.9184241201
20
140.153707835
11
84.7010937038
21
141.157623683
0
LINE
8
0
10
84.7010937038
20
141.157623683
11
83.6827751991
21
141.398969602
0
LINE
8
0
10
83.6827751991
20
141.398969602
11
82.6433236487
21
141.520464064
0
LINE
8
0
10
82.6433236487
20
141.520464064
11
82.0957404178
21
140.651423129
0
LINE
8
0
10
82.0957404178
20
140.651423129
11
81.6036227394
21
139.798803999
0
LINE
8
0
10
81.6036227394
20
139.798803999
11
81.1905383253
21
139.014344602
0
LINE
8
0
10
81.1905383253
20
139.014344602
11
80.8503925552
21
138.302761351
0
LINE
8
0
10
80.8503925552
20
138.302761351
11
80.5768490236
21
137.668397972
0
LINE
8
0
10
80.5768490236
20
137.668397972
11
80.3337556699
21
137.038535899
0
LINE
8
0
10
80.3337556699
20
137.038535899
11
80.2219738651
21
136.845421814
0
LINE
8
0
10
80.2219738651
20
136.845421814
11
80.1128002777
21
136.759721991
0
LINE
8
0
10
80.1128002777
20
136.759721991
11
77.8510847105
21
137.024078627
0
LINE
8
0
10
77.8510847105
20
137.024078627
11
77.7646176506
21
137.132645562
0
LINE
8
0
10
77.7646176506
20
137.132645562
11
77.7003841116
21
137.34633289
0
LINE
8
0
10
77.7003841116
20
137.34633289
11
77.6090995612
21
138.015278135
0
LINE
8
0
10
77.6090995612
20
138.015278135
11
77.4892236938
21
138.695625646
0
LINE
8
0
10
77.4892236938
20
138.695625646
11
77.3223489882
21
139.466471092
0
LINE
8
0
10
77.3223489882
20
139.466471092
11
77.1013081049
21
140.325049107
0
LINE
8
0
10
77.1013081049
20
140.325049107
11
76.8190830252
21
141.268175925
0
LINE
8
0
10
76.8190830252
20
141.268175925
11
76.4866746031
21
142.240073132
0
LINE
8
0
10
76.4866746031
20
142.240073132
11
75.4472230526
21
142.361567594
0
LINE
8
0
10
75.4472230526
20
142.361567594
11
74.4006952557
21
142.361567594
0
LINE
8
0
10
74.4006952557
20
142.361567594
11
73.9577040813
21
141.43483227
0
LINE
8
0
10
73.9577040813
20
141.43483227
11
73.567896966
21
140.53084687
0
LINE
8
0
10
73.567896966
20
140.53084687
11
73.2486758584
21
139.703735534
0
LINE
8
0
10
73.2486758584
20
139.703735534
11
72.9934398056
21
138.95747524
0
LINE
8
0
10
72.9934398056
20
138.95747524
11
72.7953909708
21
138.295644733
0
LINE
8
0
10
72.7953909708
20
138.295644733
11
72.627063851
21
137.641820146
0
LINE
8
0
10
72.627063851
20
137.641820146
11
72.5384570516
21
137.437034755
0
LINE
8
0
10
72.5384570516
20
137.437034755
11
72.4399707992
21
137.339240123
0
LINE
8
0
10
72.4399707992
20
137.339240123
11
70.1628582112
21
137.339240123
0
LINE
8
0
10
70.1628582112
20
137.339240123
11
70.0643719587
21
137.437034755
0
LINE
8
0
10
70.0643719587
20
137.437034755
11
69.9757651593
21
137.641820146
0
LINE
8
0
10
69.9757651593
20
137.641820146
11
69.8074380396
21
138.295644733
0
LINE
8
0
10
69.8074380396
20
138.295644733
11
69.6093892047
21
138.95747524
0
LINE
8
0
10
69.6093892047
20
138.95747524
11
69.354153152
21
139.703735534
0
LINE
8
0
10
69.354153152
20
139.703735534
11
69.0349320443
21
140.53084687
0
LINE
8
0
10
69.0349320443
20
140.53084687
11
68.645124929
21
141.43483227
0
LINE
8
0
10
68.645124929
20
141.43483227
11
68.2021337547
21
142.361567594
0
LINE
8
0
10
68.2021337547
20
142.361567594
11
67.1556059577
21
142.361567594
0
LINE
8
0
10
67.1556059577
20
142.361567594
11
66.1161544073
21
142.240073132
0
LINE
8
0
10
66.1161544073
20
142.240073132
11
65.7837459851
21
141.268175925
0
LINE
8
0
10
65.7837459851
20
141.268175925
11
65.5015209055
21
140.325049107
0
LINE
8
0
10
65.5015209055
20
140.325049107
11
65.2804800221
21
139.466471092
0
LINE
8
0
10
65.2804800221
20
139.466471092
11
65.1136053165
21
138.695625646
0
LINE
8
0
10
65.1136053165
20
138.695625646
11
64.9937294492
21
138.015278135
0
LINE
8
0
10
64.9937294492
20
138.015278135
11
64.9024448988
21
137.34633289
0
LINE
8
0
10
64.9024448988
20
137.34633289
11
64.8382113597
21
137.132645562
0
LINE
8
0
10
64.8382113597
20
137.132645562
11
64.7517442999
21
137.024078627
0
LINE
8
0
10
64.7517442999
20
137.024078627
11
62.4900287326
21
136.759721991
0
LINE
8
0
10
62.4900287326
20
136.759721991
11
62.3808551452
21
136.845421814
0
LINE
8
0
10
62.3808551452
20
136.845421814
11
62.2690733404
21
137.038535899
0
LINE
8
0
10
62.2690733404
20
137.038535899
11
62.0259799868
21
137.668397972
0
LINE
8
0
10
62.0259799868
20
137.668397972
11
61.7524364551
21
138.302761351
0
LINE
8
0
10
61.7524364551
20
138.302761351
11
61.412290685
21
139.014344602
0
LINE
8
0
10
61.412290685
20
139.014344602
11
60.9992062709
21
139.798803999
0
LINE
8
0
10
60.9992062709
20
139.798803999
11
60.5070885926
21
140.651423129
0
LINE
8
0
10
60.5070885926
20
140.651423129
11
59.9595053617
21
141.520464064
0
LINE
8
0
10
59.9595053617
20
141.520464064
11
58.9200538113
21
141.398969602
0
LINE
8
0
10
58.9200538113
20
141.398969602
11
57.9017353065
21
141.157623683
0
LINE
8
0
10
57.9017353065
20
141.157623683
11
57.6844048902
21
140.153707834
0
LINE
8
0
10
57.6844048902
20
140.153707834
11
57.5135784562
21
139.184193771
0
LINE
8
0
10
57.5135784562
20
139.184193771
11
57.393706996
21
138.305759874
0
LINE
8
0
10
57.393706996
20
138.305759874
11
57.3174503316
21
137.520753638
0
LINE
8
0
10
57.3174503316
20
137.520753638
11
57.2773685472
21
136.831089654
0
LINE
8
0
10
57.2773685472
20
136.831089654
11
57.2643610331
21
136.156070088
0
LINE
8
0
10
57.2643610331
20
136.156070088
11
57.2253694029
21
135.936370579
0
LINE
8
0
10
57.2253694029
20
135.936370579
11
57.1520908543
21
135.818499522
0
LINE
8
0
10
57.1520908543
20
135.818499522
11
54.9363581308
21
135.293361219
0
LINE
8
0
10
54.9363581308
20
135.293361219
11
54.8179735939
21
135.365807291
0
LINE
8
0
10
54.8179735939
20
135.365807291
11
54.6845284409
21
135.544638532
0
LINE
8
0
10
54.6845284409
20
135.544638532
11
54.369956274
21
136.142020287
0
LINE
8
0
10
54.369956274
20
136.142020287
11
54.0246172526
21
136.740337862
0
LINE
8
0
10
54.0246172526
20
136.740337862
11
53.6041616532
21
137.407621129
0
LINE
8
0
10
53.6041616532
20
137.407621129
11
53.1028001906
21
138.138820119
0
LINE
8
0
10
53.1028001906
20
138.138820119
11
52.5150269966
21
138.928542767
0
LINE
8
0
10
52.5150269966
20
138.928542767
11
51.870256833
21
139.728137025
0
LINE
8
0
10
51.870256833
20
139.728137025
11
50.8519383282
21
139.486791106
0
LINE
8
0
10
50.8519383282
20
139.486791106
11
49.8685238799
21
139.128857519
0
LINE
8
0
10
49.8685238799
20
139.128857519
11
49.7692104906
21
138.106499269
0
LINE
8
0
10
49.7692104906
20
138.106499269
11
49.7120928368
21
137.123708974
0
LINE
8
0
10
49.7120928368
20
137.123708974
11
49.6950118554
21
136.237298505
0
LINE
8
0
10
49.6950118554
20
136.237298505
11
49.7104044728
21
135.448747343
0
LINE
8
0
10
49.7104044728
20
135.448747343
11
49.7506588088
21
134.759093409
0
LINE
8
0
10
49.7506588088
20
134.759093409
11
49.8161042354
21
134.087128003
0
LINE
8
0
10
49.8161042354
20
134.087128003
11
49.8028818088
21
133.864387372
0
LINE
8
0
10
49.8028818088
20
133.864387372
11
49.7437827381
21
133.738806196
0
LINE
8
0
10
49.7437827381
20
133.738806196
11
47.6039968425
21
132.959987822
0
LINE
8
0
10
47.6039968425
20
132.959987822
11
47.4780023039
21
133.018200434
0
LINE
8
0
10
47.4780023039
20
133.018200434
11
47.3246984194
21
133.180330445
0
LINE
8
0
10
47.3246984194
20
133.180330445
11
46.9429014881
21
133.737153319
0
LINE
8
0
10
46.9429014881
20
133.737153319
11
46.5304370948
21
134.291333871
0
LINE
8
0
10
46.5304370948
20
134.291333871
11
46.0353576067
21
134.905293291
0
LINE
8
0
10
46.0353576067
20
134.905293291
11
45.4524991495
21
135.573343662
0
LINE
8
0
10
45.4524991495
20
135.573343662
11
44.7770190639
21
136.289490186
0
LINE
8
0
10
44.7770190639
20
136.289490186
11
44.043781378
21
137.008824626
0
LINE
8
0
10
44.043781378
20
137.008824626
11
43.0603669297
21
136.650891039
0
LINE
8
0
10
43.0603669297
20
136.650891039
11
42.1251555313
21
136.181210221
0
LINE
8
0
10
42.1251555313
20
136.181210221
11
42.1452022121
21
135.154235211
0
LINE
8
0
10
42.1452022121
20
135.154235211
11
42.2025657567
21
134.171459238
0
LINE
8
0
10
42.2025657567
20
134.171459238
11
42.2885062452
21
133.289059379
0
LINE
8
0
10
42.2885062452
20
133.289059379
11
42.3953399857
21
132.507627091
0
LINE
8
0
10
42.3953399857
20
132.507627091
11
42.5153860712
21
131.827309593
0
LINE
8
0
10
42.5153860712
20
131.827309593
11
42.6583994013
21
131.167485528
0
LINE
8
0
10
42.6583994013
20
131.167485528
11
42.6711249891
21
130.944715959
0
LINE
8
0
10
42.6711249891
20
130.944715959
11
42.6270046098
21
130.813122935
0
LINE
8
0
10
42.6270046098
20
130.813122935
11
40.5921024755
21
129.791156672
0
LINE
8
0
10
40.5921024755
20
129.791156672
11
40.4602017952
21
129.834348597
0
LINE
8
0
10
40.4602017952
20
129.834348597
11
40.2891123513
21
129.977584849
0
LINE
8
0
10
40.2891123513
20
129.977584849
11
39.8452538042
21
130.486318767
0
LINE
8
0
10
39.8452538042
20
130.486318767
11
39.3712419122
21
130.988867955
0
LINE
8
0
10
39.3712419122
20
130.988867955
11
38.8082336363
21
131.541200781
0
LINE
8
0
10
38.8082336363
20
131.541200781
11
38.1517603452
21
132.137068297
0
LINE
8
0
10
38.1517603452
20
132.137068297
11
37.3977080773
21
132.769954043
0
LINE
8
0
10
37.3977080773
20
132.769954043
11
36.585918651
21
133.399300901
0
LINE
8
0
10
36.585918651
20
133.399300901
11
35.6507072526
21
132.929620084
0
LINE
8
0
10
35.6507072526
20
132.929620084
11
34.7763460339
21
132.354543664
0
LINE
8
0
10
34.7763460339
20
132.354543664
11
34.9154816878
21
131.336839969
0
LINE
8
0
10
34.9154816878
20
131.336839969
11
35.0865506874
21
130.367368676
0
LINE
8
0
10
35.0865506874
20
130.367368676
11
35.2743504481
21
129.500912371
0
LINE
8
0
10
35.2743504481
20
129.500912371
11
35.4711805686
21
128.737166489
0
LINE
8
0
10
35.4711805686
20
128.737166489
11
35.6693949863
21
128.075385555
0
LINE
8
0
10
35.6693949863
20
128.075385555
11
35.8880422099
21
127.436625818
0
LINE
8
0
10
35.8880422099
20
127.436625818
11
35.9265437203
21
127.216839888
0
LINE
8
0
10
35.9265437203
20
127.216839888
11
35.8979986848
21
127.081014585
0
LINE
8
0
10
35.8979986848
20
127.081014585
11
33.9954988724
21
125.829720774
0
LINE
8
0
10
33.9954988724
20
125.829720774
11
33.8594757808
21
125.857307916
0
LINE
8
0
10
33.8594757808
20
125.857307916
11
33.6729144687
21
125.979713383
0
LINE
8
0
10
33.6729144687
20
125.979713383
11
33.1729967312
21
126.433478593
0
LINE
8
0
10
33.1729967312
20
126.433478593
11
32.6438475383
21
126.877600301
0
LINE
8
0
10
32.6438475383
20
126.877600301
11
32.0205241957
21
127.360837179
0
LINE
8
0
10
32.0205241957
20
127.360837179
11
31.2993137457
21
127.876463754
0
LINE
8
0
10
31.2993137457
20
127.876463754
11
30.476886559
21
128.417530028
0
LINE
8
0
10
30.476886559
20
128.417530028
11
29.5975234515
21
128.948378468
0
LINE
8
0
10
29.5975234515
20
128.948378468
11
28.7231622328
21
128.373302048
0
LINE
8
0
10
28.7231622328
20
128.373302048
11
27.9214754294
21
127.700606947
0
LINE
8
0
10
27.9214754294
20
127.700606947
11
28.1778184855
21
126.705937263
0
LINE
8
0
10
28.1778184855
20
126.705937263
11
28.4602795251
21
125.762881088
0
LINE
8
0
10
28.4602795251
20
125.762881088
11
28.7473988885
21
124.924085671
0
LINE
8
0
10
28.7473988885
20
124.924085671
11
29.0315635993
21
124.188354548
0
LINE
8
0
10
29.0315635993
20
124.188354548
11
29.3052658391
21
123.554059629
0
LINE
8
0
10
29.3052658391
20
123.554059629
11
29.5965901277
21
122.94500235
0
LINE
8
0
10
29.5965901277
20
122.94500235
11
29.6603468938
21
122.731172286
0
LINE
8
0
10
29.6603468938
20
122.731172286
11
29.6477632249
21
122.59295151
0
LINE
8
0
10
29.6477632249
20
122.59295151
11
27.9033937805
21
121.129251752
0
LINE
8
0
10
27.9033937805
20
121.129251752
11
27.7650877566
21
121.140861043
0
LINE
8
0
10
27.7650877566
20
121.140861043
11
27.565577498
21
121.240780402
0
LINE
8
0
10
27.565577498
20
121.240780402
11
27.0163610999
21
121.633440506
0
LINE
8
0
10
27.0163610999
20
121.633440506
11
26.4392304412
21
122.013128751
0
LINE
8
0
10
26.4392304412
20
122.013128751
11
25.7640214107
21
122.42073473
0
LINE
8
0
10
25.7640214107
20
122.42073473
11
24.987826936
21
122.849147401
0
LINE
8
0
10
24.987826936
20
122.849147401
11
24.1081467473
21
123.291077209
0
LINE
8
0
10
24.1081467473
20
123.291077209
11
23.1731018362
21
123.716248416
0
LINE
8
0
10
23.1731018362
20
123.716248416
11
22.3714150328
21
123.043553315
0
LINE
8
0
10
22.3714150328
20
123.043553315
11
21.6532440833
21
122.28233658
0
LINE
8
0
10
21.6532440833
20
122.28233658
11
22.0233279415
21
121.32415211
0
LINE
8
0
10
22.0233279415
20
121.32415211
11
22.4133612203
21
120.420264268
0
LINE
8
0
10
22.4133612203
20
120.420264268
11
22.7959173894
21
119.62047301
0
LINE
8
0
10
22.7959173894
20
119.62047301
11
23.1635738502
21
118.922706146
0
LINE
8
0
10
23.1635738502
20
118.922706146
11
23.509062559
21
118.324474993
0
LINE
8
0
10
23.509062559
20
118.324474993
11
23.8691242513
21
117.753356628
0
LINE
8
0
10
23.8691242513
20
117.753356628
11
23.9572740722
21
117.548374115
0
LINE
8
0
10
23.9572740722
20
117.548374115
11
23.9608219423
21
117.409627063
0
LINE
8
0
10
23.9608219423
20
117.409627063
11
22.3981724703
21
115.753315387
0
LINE
8
0
10
22.3981724703
20
115.753315387
11
22.2594538658
21
115.748789831
0
LINE
8
0
10
22.2594538658
20
115.748789831
11
22.0496926947
21
115.824871844
0
LINE
8
0
10
22.0496926947
20
115.824871844
11
21.4586048456
21
116.151116789
0
LINE
8
0
10
21.4586048456
20
116.151116789
11
20.8412974232
21
116.461236937
0
LINE
8
0
10
20.8412974232
20
116.461236937
11
20.1233337487
21
116.787699847
0
LINE
8
0
10
20.1233337487
20
116.787699847
11
19.302651948
21
117.123105065
0
LINE
8
0
10
19.302651948
20
117.123105065
11
18.3776149227
21
117.459922066
0
LINE
8
0
10
18.3776149227
20
117.459922066
11
17.3995330864
21
117.773666329
0
LINE
8
0
10
17.3995330864
20
117.773666329
11
16.681362137
21
117.012449594
0
LINE
8
0
10
16.681362137
20
117.012449594
11
16.0564190715
21
116.173005376
0
LINE
8
0
10
16.0564190715
20
116.173005376
11
16.5352389824
21
115.26426392
0
LINE
8
0
10
16.5352389824
20
115.26426392
11
17.0275699694
21
114.411767944
0
LINE
8
0
10
17.0275699694
20
114.411767944
11
17.5003895284
21
113.661796649
0
LINE
8
0
10
17.5003895284
20
113.661796649
11
17.9465658163
21
113.011430145
0
LINE
8
0
10
17.9465658163
20
113.011430145
11
18.3591688519
21
112.457352808
0
LINE
8
0
10
18.3591688519
20
112.457352808
11
18.7830987312
21
111.931896752
0
LINE
8
0
10
18.7830987312
20
111.931896752
11
18.8944495318
21
111.738533827
0
LINE
8
0
10
18.8944495318
20
111.738533827
11
18.9140809621
21
111.601136815
0
LINE
8
0
10
18.9140809621
20
111.601136815
11
17.5542836159
21
109.774611996
0
LINE
8
0
10
17.5542836159
20
109.774611996
11
17.417028362
21
109.754012793
0
LINE
8
0
10
17.417028362
20
109.754012793
11
17.1998529384
21
109.805228581
0
LINE
8
0
10
17.1998529384
20
109.805228581
11
16.5748870874
21
110.060646463
0
LINE
8
0
10
16.5748870874
20
110.060646463
11
15.9257509252
21
110.297004673
0
LINE
8
0
10
15.9257509252
20
110.297004673
11
15.1747418337
21
110.537909661
0
LINE
8
0
10
15.1747418337
20
110.537909661
11
14.3206710205
21
110.775771648
0
LINE
8
0
10
14.3206710205
20
110.775771648
11
13.3627866976
21
111.002920969
0
LINE
8
0
10
13.3627866976
20
111.002920969
11
12.354894815
21
111.200995434
0
LINE
8
0
10
12.354894815
20
111.200995434
11
11.7299517496
21
110.361551217
0
LINE
8
0
10
11.7299517496
20
110.361551217
11
11.2066878511
21
109.455231559
0
LINE
8
0
10
11.2066878511
20
109.455231559
11
11.7877685969
21
108.608222286
0
LINE
8
0
10
11.7877685969
20
108.608222286
11
12.3757393599
21
107.818646722
0
LINE
8
0
10
12.3757393599
20
107.818646722
11
12.9324282354
21
107.128637465
0
LINE
8
0
10
12.9324282354
20
107.128637465
11
13.4510905815
21
106.534466412
0
LINE
8
0
10
13.4510905815
20
106.534466412
11
13.9252281957
21
106.032035837
0
LINE
8
0
10
13.9252281957
20
106.032035837
11
14.4072933377
21
105.559347981
0
LINE
8
0
10
14.4072933377
20
105.559347981
11
14.5403392894
21
105.380219546
0
LINE
8
0
10
14.5403392894
20
105.380219546
11
14.5757887985
21
105.246030634
0
LINE
8
0
10
14.5757887985
20
105.246030634
11
13.4372325045
21
103.273993286
0
LINE
8
0
10
13.4372325045
20
103.273993286
11
13.3032967429
21
103.237599005
0
LINE
8
0
10
13.3032967429
20
103.237599005
11
13.0816439919
21
103.263255961
0
LINE
8
0
10
13.0816439919
20
103.263255961
11
12.4312517301
21
103.444392693
0
LINE
8
0
10
12.4312517301
20
103.444392693
11
11.7590652811
21
103.603792624
0
LINE
8
0
10
11.7590652811
20
103.603792624
11
10.9851668822
21
103.755881865
0
LINE
8
0
10
10.9851668822
20
103.755881865
11
10.1092568991
21
103.892983945
0
LINE
8
0
10
10.1092568991
20
103.892983945
11
9.13147902074
21
104.007393781
0
LINE
8
0
10
9.13147902074
20
104.007393781
11
8.10740710062
21
104.087119832
0
LINE
8
0
10
8.10740710062
20
104.087119832
11
7.58414320212
21
103.180800174
0
LINE
8
0
10
7.58414320212
20
103.180800174
11
7.16963471714
21
102.219861494
0
LINE
8
0
10
7.16963471714
20
102.219861494
11
7.84511817752
21
101.446038753
0
LINE
8
0
10
7.84511817752
20
101.446038753
11
8.52077742079
21
100.730061255
0
LINE
8
0
10
8.52077742079
20
100.730061255
11
9.15380735069
21
100.109345228
0
LINE
8
0
10
9.15380735069
20
100.109345228
11
9.73794173654
21
99.5794047705
0
LINE
8
0
10
9.73794173654
20
99.5794047705
11
10.2672020314
21
99.1354154682
0
LINE
8
0
10
10.2672020314
20
99.1354154682
11
10.800883332
21
98.7218881062
0
LINE
8
0
10
10.800883332
20
98.7218881062
11
10.9538252165
21
98.5594165658
0
LINE
8
0
10
10.9538252165
20
98.5594165658
11
11.0046134106
21
98.4302504277
0
LINE
8
0
10
11.0046134106
20
98.4302504277
11
10.1026951895
21
96.3393689723
0
LINE
8
0
10
10.1026951895
20
96.3393689723
11
9.97389017181
21
96.2876717838
0
LINE
8
0
10
9.97389017181
20
96.2876717838
11
9.7507575665
21
96.2874229434
0
LINE
8
0
10
9.7507575665
20
96.2874229434
11
9.08373433352
21
96.3918289602
0
LINE
8
0
10
9.08373433352
20
96.3918289602
11
8.39758776626
21
96.4721150022
0
LINE
8
0
10
8.39758776626
20
96.4721150022
11
7.61126570831
21
96.5333317502
0
LINE
8
0
10
7.61126570831
20
96.5333317502
11
6.72536173513
21
96.5678198522
0
LINE
8
0
10
6.72536173513
20
96.5678198522
11
5.74091306982
21
96.567943006
0
LINE
8
0
10
5.74091306982
20
96.567943006
11
4.71450992805
21
96.5282424847
0
LINE
8
0
10
4.71450992805
20
96.5282424847
11
4.30000144306
21
95.5673038052
0
LINE
8
0
10
4.30000144306
20
95.5673038052
11
3.99985388777
21
94.5647411513
0
LINE
8
0
10
3.99985388777
20
94.5647411513
11
4.76060530774
21
93.8745695655
0
LINE
8
0
10
4.76060530774
20
93.8745695655
11
5.51481589904
21
93.2418725023
0
LINE
8
0
10
5.51481589904
20
93.2418725023
11
6.21562623949
21
92.6988438239
0
LINE
8
0
10
6.21562623949
20
92.6988438239
11
6.8573332496
21
92.2403004975
0
LINE
8
0
10
6.8573332496
20
92.2403004975
11
7.43455888765
21
91.8607566619
0
LINE
8
0
10
7.43455888765
20
91.8607566619
11
8.01263922268
21
91.5119820414
0
LINE
8
0
10
8.01263922268
20
91.5119820414
11
8.18340876353
21
91.3683645446
0
LINE
8
0
10
8.18340876353
20
91.3683645446
11
8.2488488194
21
91.2459679312
0
LINE
8
0
10
8.2488488194
20
91.2459679312
11
7.59576556792
21
89.0645179535
0
LINE
8
0
10
7.59576556792
20
89.0645179535
11
7.4738331609
21
88.998216973
0
LINE
8
0
10
7.4738331609
20
88.998216973
11
7.25223818705
21
88.9720657008
0
LINE
8
0
10
7.25223818705
20
88.9720657008
11
6.5776043278
21
88.9983290906
0
LINE
8
0
10
6.5776043278
20
88.9983290906
11
5.88677659759
21
88.9984155126
0
LINE
8
0
10
5.88677659759
20
88.9984155126
11
5.09866453743
21
88.9679319157
0
LINE
8
0
10
5.09866453743
20
88.9679319157
11
4.21474690573
21
88.8993396476
0
LINE
8
0
10
4.21474690573
20
88.8993396476
11
3.23694043283
21
88.7851744543
0
LINE
8
0
10
3.23694043283
20
88.7851744543
11
2.22208641113
21
88.6265842419
0
LINE
8
0
10
2.22208641113
20
88.6265842419
11
1.92193885583
21
87.6240215881
0
LINE
8
0
10
1.92193885583
20
87.6240215881
11
1.740211211
21
86.5933928998
0
LINE
8
0
10
1.740211211
20
86.5933928998
11
2.57594273267
21
85.9962058567
0
LINE
8
0
10
2.57594273267
20
85.9962058567
11
3.39850526759
21
85.4553453701
0
LINE
8
0
10
3.39850526759
20
85.4553453701
11
4.15761876096
21
84.997347572
0
LINE
8
0
10
4.15761876096
20
84.997347572
11
4.84822040885
21
84.6164023883
0
LINE
8
0
10
4.84822040885
20
84.6164023883
11
5.46560540354
21
84.3064366989
0
LINE
8
0
10
5.46560540354
20
84.3064366989
11
6.08026722822
21
84.0271313982
0
LINE
8
0
10
6.08026722822
20
84.0271313982
11
6.26655506025
21
83.9043101252
0
LINE
8
0
10
6.26655506025
20
83.9043101252
11
6.3457620134
21
83.7903382407
0
LINE
8
0
10
6.3457620134
20
83.7903382407
11
5.95034556216
21
81.5478201095
0
LINE
8
0
10
5.95034556216
20
81.5478201095
11
5.83693469248
21
81.4678119441
0
LINE
8
0
10
5.83693469248
20
81.4678119441
11
5.61987404198
21
81.4161118912
0
LINE
8
0
10
5.61987404198
20
81.4161118912
11
4.94675282209
21
81.3638774866
0
LINE
8
0
10
4.94675282209
20
81.3638774866
11
4.26058618886
21
81.2837631199
0
LINE
8
0
10
4.26058618886
20
81.2837631199
11
3.48134199011
21
81.1619914165
0
LINE
8
0
10
3.48134199011
20
81.1619914165
11
2.6113641695
21
80.9912463711
0
LINE
8
0
10
2.6113641695
20
80.9912463711
11
1.65342304416
21
80.7643367191
0
LINE
8
0
10
1.65342304416
20
80.7643367191
11
0.663842302203
21
80.4890014762
0
LINE
8
0
10
0.663842302203
20
80.4890014762
11
0.482114657377
21
79.4583727879
0
LINE
8
0
10
0.482114657377
20
79.4583727879
11
0.421264477671
21
78.4136155504
0
LINE
8
0
10
0.421264477671
20
78.4136155504
11
1.32067426589
21
77.9174889801
0
LINE
8
0
10
1.32067426589
20
77.9174889801
11
2.20046499723
21
77.4757792804
0
LINE
8
0
10
2.20046499723
20
77.4757792804
11
3.00761593576
21
77.1090059971
0
LINE
8
0
10
3.00761593576
20
77.1090059971
11
3.73777301887
21
76.8108105863
0
LINE
8
0
10
3.73777301887
20
76.8108105863
11
4.38696829725
21
76.5746147971
0
LINE
8
0
10
4.38696829725
20
76.5746147971
11
5.02989936485
21
76.3685559415
0
LINE
8
0
10
5.02989936485
20
76.3685559415
11
5.22918626471
21
76.2681918392
0
LINE
8
0
10
5.22918626471
20
76.2681918392
11
5.32108897698
21
76.1641859578
0
LINE
8
0
10
5.32108897698
20
76.1641859578
11
5.18868665514
21
73.8909258839
0
LINE
8
0
10
5.18868665514
20
73.8909258839
11
5.08533101027
21
73.7982925068
0
LINE
8
0
10
5.08533101027
20
73.7982925068
11
4.87574005604
21
73.7217428276
0
LINE
8
0
10
4.87574005604
20
73.7217428276
11
4.21323428528
21
73.5917170094
0
LINE
8
0
10
4.21323428528
20
73.5917170094
11
3.54100797565
21
73.4324852634
0
LINE
8
0
10
3.54100797565
20
73.4324852634
11
2.78116957931
21
73.2210722068
0
LINE
8
0
10
2.78116957931
20
73.2210722068
11
1.9368965274
21
72.9504834179
0
LINE
8
0
10
1.9368965274
20
72.9504834179
11
1.01177525999
21
72.613897871
0
LINE
8
0
10
1.01177525999
20
72.613897871
11
0.0608501797061
21
72.2255410344
0
LINE
8
0
10
0.0608501797061
20
72.2255410344
11
0.0
21
71.1807837968
0
LINE
8
0
10
0.0
20
71.1807837968
11
0.0608501797061
21
70.1360265592
0
LINE
8
0
10
0.0608501797061
20
70.1360265592
11
1.01177526001
21
69.7476697226
0
LINE
8
0
10
1.01177526001
20
69.7476697226
11
1.9368965274
21
69.4110841757
0
LINE
8
0
10
1.9368965274
20
69.4110841757
11
2.78116957931
21
69.1404953868
0
LINE
8
0
10
2.78116957931
20
69.1404953868
11
3.54100797565
21
68.9290823302
0
LINE
8
0
10
3.54100797565
20
68.9290823302
11
4.21323428528
21
68.7698505842
0
LINE
8
0
10
4.21323428528
20
68.7698505842
11
4.87574005604
21
68.639824766
0
LINE
8
0
10
4.87574005604
20
68.639824766
11
5.08533101027
21
68.5632750868
0
LINE
8
0
10
5.08533101027
20
68.5632750868
11
5.18868665514
21
68.4706417097
0
LINE
8
0
10
5.18868665514
20
68.4706417097
11
5.32108897698
21
66.1973816358
0
LINE
8
0
10
5.32108897698
20
66.1973816358
11
5.22918626471
21
66.0933757544
0
LINE
8
0
10
5.22918626471
20
66.0933757544
11
5.02989936486
21
65.9930116521
0
LINE
8
0
10
5.02989936486
20
65.9930116521
11
4.38696829726
21
65.7869527964
0
LINE
8
0
10
4.38696829726
20
65.7869527964
11
3.73777301887
21
65.5507570073
0
LINE
8
0
10
3.73777301887
20
65.5507570073
11
3.00761593576
21
65.2525615964
0
LINE
8
0
10
3.00761593576
20
65.2525615964
11
2.20046499723
21
64.8857883132
0
LINE
8
0
10
2.20046499723
20
64.8857883132
11
1.32067426588
21
64.4440786135
0
LINE
8
0
10
1.32067426588
20
64.4440786135
11
0.421264477671
21
63.9479520432
0
LINE
8
0
10
0.421264477671
20
63.9479520432
11
0.482114657377
21
62.9031948056
0
LINE
8
0
10
0.482114657377
20
62.9031948056
11
0.663842302203
21
61.8725661174
0
LINE
8
0
10
0.663842302203
20
61.8725661174
11
1.65342304417
21
61.5972308745
0
LINE
8
0
10
1.65342304417
20
61.5972308745
11
2.6113641695
21
61.3703212225
0
LINE
8
0
10
2.6113641695
20
61.3703212225
11
3.48134199011
21
61.1995761771
0
LINE
8
0
10
3.48134199011
20
61.1995761771
11
4.26058618886
21
61.0778044737
0
LINE
8
0
10
4.26058618886
20
61.0778044737
11
4.94675282209
21
60.997690107
0
LINE
8
0
10
4.94675282209
20
60.997690107
11
5.61987404197
21
60.9454557024
0
LINE
8
0
10
5.61987404197
20
60.9454557024
11
5.83693469248
21
60.8937556494
0
LINE
8
0
10
5.83693469248
20
60.8937556494
11
5.95034556216
21
60.813747484
0
LINE
8
0
10
5.95034556216
20
60.813747484
11
6.3457620134
21
58.5712293529
0
LINE
8
0
10
6.3457620134
20
58.5712293529
11
6.26655506025
21
58.4572574684
0
LINE
8
0
10
6.26655506025
20
58.4572574684
11
6.08026722823
21
58.3344361953
0
LINE
8
0
10
6.08026722823
20
58.3344361953
11
5.46560540354
21
58.0551308947
0
LINE
8
0
10
5.46560540354
20
58.0551308947
11
4.84822040885
21
57.7451652053
0
LINE
8
0
10
4.84822040885
20
57.7451652053
11
4.15761876095
21
57.3642200216
0
LINE
8
0
10
4.15761876095
20
57.3642200216
11
3.39850526759
21
56.9062222235
0
LINE
8
0
10
3.39850526759
20
56.9062222235
11
2.57594273266
21
56.3653617369
0
LINE
8
0
10
2.57594273266
20
56.3653617369
11
1.740211211
21
55.7681746937
0
LINE
8
0
10
1.740211211
20
55.7681746937
11
1.92193885583
21
54.7375460055
0
LINE
8
0
10
1.92193885583
20
54.7375460055
11
2.22208641113
21
53.7349833517
0
LINE
8
0
10
2.22208641113
20
53.7349833517
11
3.23694043284
21
53.5763931393
0
LINE
8
0
10
3.23694043284
20
53.5763931393
11
4.21474690572
21
53.462227946
0
LINE
8
0
10
4.21474690572
20
53.462227946
11
5.09866453743
21
53.3936356779
0
LINE
8
0
10
5.09866453743
20
53.3936356779
11
5.88677659759
21
53.363152081
0
LINE
8
0
10
5.88677659759
20
53.363152081
11
6.5776043278
21
53.363238503
0
LINE
8
0
10
6.5776043278
20
53.363238503
11
7.25223818705
21
53.3895018927
0
LINE
8
0
10
7.25223818705
20
53.3895018927
11
7.4738331609
21
53.3633506205
0
LINE
8
0
10
7.4738331609
20
53.3633506205
11
7.59576556792
21
53.2970496401
0
LINE
8
0
10
7.59576556792
20
53.2970496401
11
8.2488488194
21
51.1155996624
0
LINE
8
0
10
8.2488488194
20
51.1155996624
11
8.18340876353
21
50.993203049
0
LINE
8
0
10
8.18340876353
20
50.993203049
11
8.0126392227
21
50.8495855522
0
LINE
8
0
10
8.0126392227
20
50.8495855522
11
7.43455888765
21
50.5008109316
0
LINE
8
0
10
7.43455888765
20
50.5008109316
11
6.8573332496
21
50.1212670961
0
LINE
8
0
10
6.8573332496
20
50.1212670961
11
6.21562623949
21
49.6627237697
0
LINE
8
0
10
6.21562623949
20
49.6627237697
11
5.51481589904
21
49.1196950913
0
LINE
8
0
10
5.51481589904
20
49.1196950913
11
4.76060530773
21
48.4869980281
0
LINE
8
0
10
4.76060530773
20
48.4869980281
11
3.99985388777
21
47.7968264423
0
LINE
8
0
10
3.99985388777
20
47.7968264423
11
4.30000144306
21
46.7942637884
0
LINE
8
0
10
4.30000144306
20
46.7942637884
11
4.71450992805
21
45.8333251089
0
LINE
8
0
10
4.71450992805
20
45.8333251089
11
5.74091306983
21
45.7936245876
0
LINE
8
0
10
5.74091306983
20
45.7936245876
11
6.72536173513
21
45.7937477414
0
LINE
8
0
10
6.72536173513
20
45.7937477414
11
7.61126570831
21
45.8282358434
0
LINE
8
0
10
7.61126570831
20
45.8282358434
11
8.39758776626
21
45.8894525914
0
LINE
8
0
10
8.39758776626
20
45.8894525914
11
9.08373433352
21
45.9697386334
0
LINE
8
0
10
9.08373433352
20
45.9697386334
11
9.7507575665
21
46.0741446502
0
LINE
8
0
10
9.7507575665
20
46.0741446502
11
9.97389017181
21
46.0738958098
0
LINE
8
0
10
9.97389017181
20
46.0738958098
11
10.1026951895
21
46.0221986213
0
LINE
8
0
10
10.1026951895
20
46.0221986213
11
11.0046134106
21
43.9313171659
0
LINE
8
0
10
11.0046134106
20
43.9313171659
11
10.9538252166
21
43.8021510278
0
LINE
8
0
10
10.9538252166
20
43.8021510278
11
10.800883332
21
43.6396794874
0
LINE
8
0
10
10.800883332
20
43.6396794874
11
10.2672020314
21
43.2261521254
0
LINE
8
0
10
10.2672020314
20
43.2261521254
11
9.73794173654
21
42.7821628231
0
LINE
8
0
10
9.73794173654
20
42.7821628231
11
9.15380735069
21
42.2522223658
0
LINE
8
0
10
9.15380735069
20
42.2522223658
11
8.52077742079
21
41.6315063383
0
LINE
8
0
10
8.52077742079
20
41.6315063383
11
7.84511817751
21
40.9155288409
0
LINE
8
0
10
7.84511817751
20
40.9155288409
11
7.16963471714
21
40.1417060992
0
LINE
8
0
10
7.16963471714
20
40.1417060992
11
7.58414320212
21
39.1807674197
0
LINE
8
0
10
7.58414320212
20
39.1807674197
11
8.10740710062
21
38.2744477618
0
LINE
8
0
10
8.10740710062
20
38.2744477618
11
9.13147902075
21
38.354173813
0
LINE
8
0
10
9.13147902075
20
38.354173813
11
10.1092568991
21
38.4685836484
0
LINE
8
0
10
10.1092568991
20
38.4685836484
11
10.9851668822
21
38.6056857281
0
LINE
8
0
10
10.9851668822
20
38.6056857281
11
11.7590652811
21
38.7577749695
0
LINE
8
0
10
11.7590652811
20
38.7577749695
11
12.4312517301
21
38.9171749005
0
LINE
8
0
10
12.4312517301
20
38.9171749005
11
13.0816439919
21
39.0983116321
0
LINE
8
0
10
13.0816439919
20
39.0983116321
11
13.3032967429
21
39.1239685886
0
LINE
8
0
10
13.3032967429
20
39.1239685886
11
13.4372325045
21
39.0875743079
0
LINE
8
0
10
13.4372325045
20
39.0875743079
11
14.5757887985
21
37.1155369594
0
LINE
8
0
10
14.5757887985
20
37.1155369594
11
14.5403392894
21
36.9813480471
0
LINE
8
0
10
14.5403392894
20
36.9813480471
11
14.4072933377
21
36.8022196121
0
LINE
8
0
10
14.4072933377
20
36.8022196121
11
13.9252281957
21
36.3295317568
0
LINE
8
0
10
13.9252281957
20
36.3295317568
11
13.4510905815
21
35.8271011814
0
LINE
8
0
10
13.4510905815
20
35.8271011814
11
12.9324282354
21
35.2329301287
0
LINE
8
0
10
12.9324282354
20
35.2329301287
11
12.3757393599
21
34.5429208717
0
LINE
8
0
10
12.3757393599
20
34.5429208717
11
11.7877685969
21
33.7533453075
0
LINE
8
0
10
11.7877685969
20
33.7533453075
11
11.2066878511
21
32.906336035
0
LINE
8
0
10
11.2066878511
20
32.906336035
11
11.7299517496
21
32.0000163771
0
LINE
8
0
10
11.7299517496
20
32.0000163771
11
12.354894815
21
31.1605721592
0
LINE
8
0
10
12.354894815
20
31.1605721592
11
13.3627866976
21
31.3586466249
0
LINE
8
0
10
13.3627866976
20
31.3586466249
11
14.3206710205
21
31.5857959452
0
LINE
8
0
10
14.3206710205
20
31.5857959452
11
15.1747418337
21
31.8236579321
0
LINE
8
0
10
15.1747418337
20
31.8236579321
11
15.9257509252
21
32.0645629208
0
LINE
8
0
10
15.9257509252
20
32.0645629208
11
16.5748870874
21
32.3009211302
0
LINE
8
0
10
16.5748870874
20
32.3009211302
11
17.1998529384
21
32.556339013
0
LINE
8
0
10
17.1998529384
20
32.556339013
11
17.417028362
21
32.6075548002
0
LINE
8
0
10
17.417028362
20
32.6075548002
11
17.5542836159
21
32.5869555975
0
LINE
8
0
10
17.5542836159
20
32.5869555975
11
18.9140809621
21
30.7604307781
0
LINE
8
0
10
18.9140809621
20
30.7604307781
11
18.8944495318
21
30.6230337664
0
LINE
8
0
10
18.8944495318
20
30.6230337664
11
18.7830987313
21
30.4296708416
0
LINE
8
0
10
18.7830987313
20
30.4296708416
11
18.3591688519
21
29.9042147853
0
LINE
8
0
10
18.3591688519
20
29.9042147853
11
17.9465658163
21
29.3501374483
0
LINE
8
0
10
17.9465658163
20
29.3501374483
11
17.5003895284
21
28.6997709446
0
LINE
8
0
10
17.5003895284
20
28.6997709446
11
17.0275699694
21
27.9497996495
0
LINE
8
0
10
17.0275699694
20
27.9497996495
11
16.5352389824
21
27.0973036735
0
LINE
8
0
10
16.5352389824
20
27.0973036735
11
16.0564190715
21
26.1885622176
0
LINE
8
0
10
16.0564190715
20
26.1885622176
11
16.681362137
21
25.3491179997
0
LINE
8
0
10
16.681362137
20
25.3491179997
11
17.3995330864
21
24.587901265
0
LINE
8
0
10
17.3995330864
20
24.587901265
11
18.3776149227
21
24.9016455278
0
LINE
8
0
10
18.3776149227
20
24.9016455278
11
19.302651948
21
25.2384625281
0
LINE
8
0
10
19.302651948
20
25.2384625281
11
20.1233337487
21
25.5738677469
0
LINE
8
0
10
20.1233337487
20
25.5738677469
11
20.8412974232
21
25.9003306562
0
LINE
8
0
10
20.8412974232
20
25.9003306562
11
21.4586048456
21
26.2104508048
0
LINE
8
0
10
21.4586048456
20
26.2104508048
11
22.0496926947
21
26.5366957501
0
LINE
8
0
10
22.0496926947
20
26.5366957501
11
22.2594538658
21
26.6127777622
0
LINE
8
0
10
22.2594538658
20
26.6127777622
11
22.3981724703
21
26.6082522063
0
LINE
8
0
10
22.3981724703
20
26.6082522063
11
23.9608219423
21
24.9519405309
0
LINE
8
0
10
23.9608219423
20
24.9519405309
11
23.9572740722
21
24.8131934787
0
LINE
8
0
10
23.9572740722
20
24.8131934787
11
23.8691242513
21
24.6082109658
0
LINE
8
0
10
23.8691242513
20
24.6082109658
11
23.509062559
21
24.0370926004
0
LINE
8
0
10
23.509062559
20
24.0370926004
11
23.1635738502
21
23.4388614474
0
LINE
8
0
10
23.1635738502
20
23.4388614474
11
22.7959173894
21
22.7410945838
0
LINE
8
0
10
22.7959173894
20
22.7410945838
11
22.4133612203
21
21.9413033258
0
LINE
8
0
10
22.4133612203
20
21.9413033258
11
22.0233279414
21
21.0374154837
0
LINE
8
0
10
22.0233279414
20
21.0374154837
11
21.6532440833
21
20.0792310136
0
LINE
8
0
10
21.6532440833
20
20.0792310136
11
22.3714150328
21
19.3180142789
0
LINE
8
0
10
22.3714150328
20
19.3180142789
11
23.1731018362
21
18.6453191778
0
LINE
8
0
10
23.1731018362
20
18.6453191778
11
24.1081467473
21
19.0704903847
0
LINE
8
0
10
24.1081467473
20
19.0704903847
11
24.987826936
21
19.5124201928
0
LINE
8
0
10
24.987826936
20
19.5124201928
11
25.7640214107
21
19.9408328634
0
LINE
8
0
10
25.7640214107
20
19.9408328634
11
26.4392304412
21
20.3484388425
0
LINE
8
0
10
26.4392304412
20
20.3484388425
11
27.0163610999
21
20.7281270871
0
LINE
8
0
10
27.0163610999
20
20.7281270871
11
27.565577498
21
21.1207871917
0
LINE
8
0
10
27.565577498
20
21.1207871917
11
27.7650877566
21
21.2207065501
0
LINE
8
0
10
27.7650877566
20
21.2207065501
11
27.9033937805
21
21.2323158415
0
LINE
8
0
10
27.9033937805
20
21.2323158415
11
29.6477632249
21
19.768616084
0
LINE
8
0
10
29.6477632249
20
19.768616084
11
29.6603468938
21
19.6303953071
0
LINE
8
0
10
29.6603468938
20
19.6303953071
11
29.5965901278
21
19.4165652432
0
LINE
8
0
10
29.5965901278
20
19.4165652432
11
29.3052658391
21
18.8075079646
0
LINE
8
0
10
29.3052658391
20
18.8075079646
11
29.0315635993
21
18.1732130457
0
LINE
8
0
10
29.0315635993
20
18.1732130457
11
28.7473988885
21
17.4374819221
0
LINE
8
0
10
28.7473988885
20
17.4374819221
11
28.4602795251
21
16.598686506
0
LINE
8
0
10
28.4602795251
20
16.598686506
11
28.1778184855
21
15.6556303301
0
LINE
8
0
10
28.1778184855
20
15.6556303301
11
27.9214754294
21
14.6609606471
0
LINE
8
0
10
27.9214754294
20
14.6609606471
11
28.7231622328
21
13.988265546
0
LINE
8
0
10
28.7231622328
20
13.988265546
11
29.5975234515
21
13.4131891257
0
LINE
8
0
10
29.5975234515
20
13.4131891257
11
30.476886559
21
13.9440375656
0
LINE
8
0
10
30.476886559
20
13.9440375656
11
31.2993137457
21
14.4851038391
0
LINE
8
0
10
31.2993137457
20
14.4851038391
11
32.0205241957
21
15.0007304149
0
LINE
8
0
10
32.0205241957
20
15.0007304149
11
32.6438475383
21
15.4839672922
0
LINE
8
0
10
32.6438475383
20
15.4839672922
11
33.1729967312
21
15.9280890007
0
LINE
8
0
10
33.1729967312
20
15.9280890007
11
33.6729144687
21
16.3818542103
0
LINE
8
0
10
33.6729144687
20
16.3818542103
11
33.8594757808
21
16.5042596771
0
LINE
8
0
10
33.8594757808
20
16.5042596771
11
33.9954988724
21
16.5318468199
0
LINE
8
0
10
33.9954988724
20
16.5318468199
11
35.8979986848
21
15.2805530087
0
LINE
8
0
10
35.8979986848
20
15.2805530087
11
35.9265437203
21
15.1447277061
0
LINE
8
0
10
35.9265437203
20
15.1447277061
11
35.88804221
21
14.9249417757
0
LINE
8
0
10
35.88804221
20
14.9249417757
11
35.6693949863
21
14.286182039
0
LINE
8
0
10
35.6693949863
20
14.286182039
11
35.4711805686
21
13.6244011048
0
LINE
8
0
10
35.4711805686
20
13.6244011048
11
35.2743504481
21
12.8606552225
0
LINE
8
0
10
35.2743504481
20
12.8606552225
11
35.0865506874
21
11.9941989173
0
LINE
8
0
10
35.0865506874
20
11.9941989173
11
34.9154816878
21
11.0247276247
0
LINE
8
0
10
34.9154816878
20
11.0247276247
11
34.7763460339
21
10.0070239298
0
LINE
8
0
10
34.7763460339
20
10.0070239298
11
35.6507072526
21
9.43194750955
0
LINE
8
0
10
35.6507072526
20
9.43194750955
11
36.585918651
21
8.9622666922
0
LINE
8
0
10
36.585918651
20
8.9622666922
11
37.3977080773
21
9.59161355055
0
LINE
8
0
10
37.3977080773
20
9.59161355055
11
38.1517603452
21
10.2244992962
0
LINE
8
0
10
38.1517603452
20
10.2244992962
11
38.8082336363
21
10.8203668125
0
LINE
8
0
10
38.8082336363
20
10.8203668125
11
39.3712419122
21
11.3726996382
0
LINE
8
0
10
39.3712419122
20
11.3726996382
11
39.8452538042
21
11.8752488264
0
LINE
8
0
10
39.8452538042
20
11.8752488264
11
40.2891123513
21
12.3839827449
0
LINE
8
0
10
40.2891123513
20
12.3839827449
11
40.4602017952
21
12.5272189961
0
LINE
8
0
10
40.4602017952
20
12.5272189961
11
40.5921024755
21
12.5704109216
0
LINE
8
0
10
40.5921024755
20
12.5704109216
11
42.6270046098
21
11.5484446589
0
LINE
8
0
10
42.6270046098
20
11.5484446589
11
42.6711249891
21
11.4168516347
0
LINE
8
0
10
42.6711249891
20
11.4168516347
11
42.6583994014
21
11.1940820657
0
LINE
8
0
10
42.6583994014
20
11.1940820657
11
42.5153860712
21
10.5342580004
0
LINE
8
0
10
42.5153860712
20
10.5342580004
11
42.3953399857
21
9.85394050271
0
LINE
8
0
10
42.3953399857
20
9.85394050271
11
42.2885062452
21
9.07250821457
0
LINE
8
0
10
42.2885062452
20
9.07250821457
11
42.2025657567
21
8.19010835549
0
LINE
8
0
10
42.2025657567
20
8.19010835549
11
42.1452022121
21
7.20733238227
0
LINE
8
0
10
42.1452022121
20
7.20733238227
11
42.1251555313
21
6.18035737215
0
LINE
8
0
10
42.1251555313
20
6.18035737215
11
43.0603669297
21
5.7106765548
0
LINE
8
0
10
43.0603669297
20
5.7106765548
11
44.043781378
21
5.35274296768
0
LINE
8
0
10
44.043781378
20
5.35274296768
11
44.7770190639
21
6.07207740788
0
LINE
8
0
10
44.7770190639
20
6.07207740788
11
45.4524991495
21
6.78822393174
0
LINE
8
0
10
45.4524991495
20
6.78822393174
11
46.0353576067
21
7.45627430241
0
LINE
8
0
10
46.0353576067
20
7.45627430241
11
46.5304370948
21
8.07023372255
0
LINE
8
0
10
46.5304370948
20
8.07023372255
11
46.9429014881
21
8.62441427481
0
LINE
8
0
10
46.9429014881
20
8.62441427481
11
47.3246984194
21
9.18123714877
0
LINE
8
0
10
47.3246984194
20
9.18123714877
11
47.4780023039
21
9.3433671598
0
LINE
8
0
10
47.4780023039
20
9.3433671598
11
47.6039968425
21
9.4015797713
0
LINE
8
0
10
47.6039968425
20
9.4015797713
11
49.7437827381
21
8.62276139759
0
LINE
8
0
10
49.7437827381
20
8.62276139759
11
49.8028818088
21
8.49718022174
0
LINE
8
0
10
49.8028818088
20
8.49718022174
11
49.8161042354
21
8.27443959027
0
LINE
8
0
10
49.8161042354
20
8.27443959027
11
49.7506588088
21
7.60247418504
0
LINE
8
0
10
49.7506588088
20
7.60247418504
11
49.7104044728
21
6.912820251
0
LINE
8
0
10
49.7104044728
20
6.912820251
11
49.6950118554
21
6.12426908818
0
LINE
8
0
10
49.6950118554
20
6.12426908818
11
49.7120928368
21
5.23785861952
0
LINE
8
0
10
49.7120928368
20
5.23785861952
11
49.7692104906
21
4.25506832479
0
LINE
8
0
10
49.7692104906
20
4.25506832479
11
49.8685238799
21
3.2327100747
0
LINE
8
0
10
49.8685238799
20
3.2327100747
11
50.8519383282
21
2.87477648758
0
LINE
8
0
10
50.8519383282
20
2.87477648758
11
51.870256833
21
2.63343056842
0
LINE
8
0
10
51.870256833
20
2.63343056842
11
52.5150269966
21
3.43302482617
0
LINE
8
0
10
52.5150269966
20
3.43302482617
11
53.1028001906
21
4.22274747502
0
LINE
8
0
10
53.1028001906
20
4.22274747502
11
53.6041616532
21
4.95394646488
0
LINE
8
0
10
53.6041616532
20
4.95394646488
11
54.0246172525
21
5.62122973156
0
LINE
8
0
10
54.0246172525
20
5.62122973156
11
54.369956274
21
6.21954730657
0
LINE
8
0
10
54.369956274
20
6.21954730657
11
54.6845284409
21
6.81692906181
0
LINE
8
0
10
54.6845284409
20
6.81692906181
11
54.8179735939
21
6.99576030241
0
LINE
8
0
10
54.8179735939
20
6.99576030241
11
54.9363581308
21
7.0682063742
0
LINE
8
0
10
54.9363581308
20
7.0682063742
11
57.1520908543
21
6.54306807195
0
LINE
8
0
10
57.1520908543
20
6.54306807195
11
57.2253694029
21
6.42519701443
0
LINE
8
0
10
57.2253694029
20
6.42519701443
11
57.2643610332
21
6.20549750545
0
LINE
8
0
10
57.2643610332
20
6.20549750545
11
57.2773685472
21
5.53047793961
0
LINE
8
0
10
57.2773685472
20
5.53047793961
11
57.3174503316
21
4.84081395559
0
LINE
8
0
10
57.3174503316
20
4.84081395559
11
57.393706996
21
4.05580771983
0
LINE
8
0
10
57.393706996
20
4.05580771983
11
57.5135784562
21
3.17737382255
0
LINE
8
0
10
57.5135784562
20
3.17737382255
11
57.6844048902
21
2.20785975908
0
LINE
8
0
10
57.6844048902
20
2.20785975908
11
57.9017353065
21
1.20394391052
0
LINE
8
0
10
57.9017353065
20
1.20394391052
11
58.9200538113
21
0.962597991364
0
LINE
8
0
10
58.9200538113
20
0.962597991364
11
59.9595053617
21
0.841103529698
0
LINE
8
0
10
59.9595053617
20
0.841103529698
11
60.5070885926
21
1.71014446436
0
LINE
8
0
10
60.5070885926
20
1.71014446436
11
60.9992062709
21
2.56276359411
0
LINE
8
0
10
60.9992062709
20
2.56276359411
11
61.412290685
21
3.3472229912
0
LINE
8
0
10
61.412290685
20
3.3472229912
11
61.7524364551
21
4.05880624294
0
LINE
8
0
10
61.7524364551
20
4.05880624294
11
62.0259799868
21
4.69316962191
0
LINE
8
0
10
62.0259799868
20
4.69316962191
11
62.2690733404
21
5.32303169499
0
LINE
8
0
10
62.2690733404
20
5.32303169499
11
62.3808551452
21
5.5161457794
0
LINE
8
0
10
62.3808551452
20
5.5161457794
11
62.4900287326
21
5.60184560265
0
LINE
8
0
10
62.4900287326
20
5.60184560265
11
64.7517442999
21
5.33748896652
0
LINE
8
0
10
64.7517442999
20
5.33748896652
11
64.8382113597
21
5.22892203118
0
LINE
8
0
10
64.8382113597
20
5.22892203118
11
64.9024448988
21
5.01523470367
0
LINE
8
0
10
64.9024448988
20
5.01523470367
11
64.9937294492
21
4.34628945887
0
LINE
8
0
10
64.9937294492
20
4.34628945887
11
65.1136053165
21
3.66594194713
0
LINE
8
0
10
65.1136053165
20
3.66594194713
11
65.2804800221
21
2.89509650109
0
LINE
8
0
10
65.2804800221
20
2.89509650109
11
65.5015209055
21
2.03651848672
0
LINE
8
0
10
65.5015209055
20
2.03651848672
11
65.7837459851
21
1.09339166904
0
LINE
8
0
10
65.7837459851
20
1.09339166904
11
66.1161544073
21
0.121494461666
0
LINE
8
0
10
66.1161544073
20
0.121494461666
11
67.1556059577
21
0.0
0
LINE
8
0
10
67.1556059577
20
0.0
11
68.2021337547
21
7.1054273576e-14
0
LINE
8
0
10
68.2021337547
20
7.1054273576e-14
11
68.6451249291
21
0.92673532375
0
LINE
8
0
10
68.6451249291
20
0.92673532375
11
69.0349320443
21
1.83072072334
0
LINE
8
0
10
69.0349320443
20
1.83072072334
11
69.354153152
21
2.65783206004
0
LINE
8
0
10
69.354153152
20
2.65783206004
11
69.6093892047
21
3.40409235406
0
LINE
8
0
10
69.6093892047
20
3.40409235406
11
69.8074380396
21
4.06592286054
0
LINE
8
0
10
69.8074380396
20
4.06592286054
11
69.9757651594
21
4.71974744744
0
LINE
8
0
10
69.9757651594
20
4.71974744744
11
70.0643719587
21
4.92453283895
0
LINE
8
0
10
70.0643719587
20
4.92453283895
11
70.1628582112
21
5.02232747056
0
LINE
8
0
10
70.1628582112
20
5.02232747056
11
72.4399707992
21
5.02232747056
0
LINE
8
0
10
72.4399707992
20
5.02232747056
11
72.5384570516
21
4.92453283895
0
LINE
8
0
10
72.5384570516
20
4.92453283895
11
72.627063851
21
4.71974744744
0
LINE
8
0
10
72.627063851
20
4.71974744744
11
72.7953909708
21
4.06592286054
0
LINE
8
0
10
72.7953909708
20
4.06592286054
11
72.9934398056
21
3.40409235406
0
LINE
8
0
10
72.9934398056
20
3.40409235406
11
73.2486758584
21
2.65783206004
0
LINE
8
0
10
73.2486758584
20
2.65783206004
11
73.567896966
21
1.83072072334
0
LINE
8
0
10
73.567896966
20
1.83072072334
11
73.9577040813
21
0.926735323739
0
LINE
8
0
10
73.9577040813
20
0.926735323739
11
74.4006952557
21
1.56319401867e-13
0
LINE
8
0
10
74.4006952557
20
1.56319401867e-13
11
75.4472230526
21
1.70530256582e-13
0
LINE
8
0
10
75.4472230526
20
1.70530256582e-13
11
76.4866746031
21
0.121494461666
0
LINE
8
0
10
76.4866746031
20
0.121494461666
11
76.8190830252
21
1.09339166905
0
LINE
8
0
10
76.8190830252
20
1.09339166905
11
77.1013081049
21
2.03651848672
0
LINE
8
0
10
77.1013081049
20
2.03651848672
11
77.3223489882
21
2.89509650109
0
LINE
8
0
10
77.3223489882
20
2.89509650109
11
77.4892236938
21
3.66594194713
0
LINE
8
0
10
77.4892236938
20
3.66594194713
11
77.6090995612
21
4.34628945886
0
LINE
8
0
10
77.6090995612
20
4.34628945886
11
77.7003841116
21
5.01523470367
0
LINE
8
0
10
77.7003841116
20
5.01523470367
11
77.7646176506
21
5.22892203118
0
LINE
8
0
10
77.7646176506
20
5.22892203118
11
77.8510847105
21
5.33748896652
0
LINE
8
0
10
77.8510847105
20
5.33748896652
11
80.1128002777
21
5.60184560265
0
LINE
8
0
10
80.1128002777
20
5.60184560265
11
80.2219738652
21
5.5161457794
0
LINE
8
0
10
80.2219738652
20
5.5161457794
11
80.3337556699
21
5.323031695
0
LINE
8
0
10
80.3337556699
20
5.323031695
11
80.5768490236
21
4.69316962191
0
LINE
8
0
10
80.5768490236
20
4.69316962191
11
80.8503925552
21
4.05880624294
0
LINE
8
0
10
80.8503925552
20
4.05880624294
11
81.1905383253
21
3.3472229912
0
LINE
8
0
10
81.1905383253
20
3.3472229912
11
81.6036227394
21
2.56276359411
0
LINE
8
0
10
81.6036227394
20
2.56276359411
11
82.0957404178
21
1.71014446435
0
LINE
8
0
10
82.0957404178
20
1.71014446435
11
82.6433236487
21
0.841103529698
0
LINE
8
0
10
82.6433236487
20
0.841103529698
11
83.6827751991
21
0.962597991364
0
LINE
8
0
10
83.6827751991
20
0.962597991364
11
84.7010937038
21
1.20394391052
0
LINE
8
0
10
84.7010937038
20
1.20394391052
11
84.9184241201
21
2.20785975909
0
LINE
8
0
10
84.9184241201
20
2.20785975909
11
85.0892505541
21
3.17737382255
0
LINE
8
0
10
85.0892505541
20
3.17737382255
11
85.2091220144
21
4.05580771983
0
LINE
8
0
10
85.2091220144
20
4.05580771983
11
85.2853786788
21
4.84081395559
0
LINE
8
0
10
85.2853786788
20
4.84081395559
11
85.3254604631
21
5.53047793961
0
LINE
8
0
10
85.3254604631
20
5.53047793961
11
85.3384679772
21
6.20549750545
0
LINE
8
0
10
85.3384679772
20
6.20549750545
11
85.3774596074
21
6.42519701443
0
LINE
8
0
10
85.3774596074
20
6.42519701443
11
85.4507381561
21
6.54306807195
0
LINE
8
0
10
85.4507381561
20
6.54306807195
11
87.6664708796
21
7.0682063742
0
LINE
8
0
10
87.6664708796
20
7.0682063742
11
87.7848554164
21
6.99576030241
0
LINE
8
0
10
87.7848554164
20
6.99576030241
11
87.9183005695
21
6.81692906182
0
LINE
8
0
10
87.9183005695
20
6.81692906182
11
88.2328727363
21
6.21954730657
0
LINE
8
0
10
88.2328727363
20
6.21954730657
11
88.5782117578
21
5.62122973156
0
LINE
8
0
10
88.5782117578
20
5.62122973156
11
88.9986673572
21
4.95394646488
0
LINE
8
0
10
88.9986673572
20
4.95394646488
11
89.5000288197
21
4.22274747502
0
LINE
8
0
10
89.5000288197
20
4.22274747502
11
90.0878020138
21
3.43302482616
0
LINE
8
0
10
90.0878020138
20
3.43302482616
11
90.7325721773
21
2.63343056842
0
LINE
8
0
10
90.7325721773
20
2.63343056842
11
91.7508906821
21
2.87477648758
0
LINE
8
0
10
91.7508906821
20
2.87477648758
11
92.7343051304
21
3.2327100747
0
LINE
8
0
10
92.7343051304
20
3.2327100747
11
92.8336185198
21
4.2550683248
0
LINE
8
0
10
92.8336185198
20
4.2550683248
11
92.8907361736
21
5.23785861952
0
LINE
8
0
10
92.8907361736
20
5.23785861952
11
92.9078171549
21
6.12426908818
0
LINE
8
0
10
92.9078171549
20
6.12426908818
11
92.8924245375
21
6.912820251
0
LINE
8
0
10
92.8924245375
20
6.912820251
11
92.8521702015
21
7.60247418504
0
LINE
8
0
10
92.8521702015
20
7.60247418504
11
92.786724775
21
8.27443959027
0
LINE
8
0
10
92.786724775
20
8.27443959027
11
92.7999472015
21
8.49718022174
0
LINE
8
0
10
92.7999472015
20
8.49718022174
11
92.8590462723
21
8.62276139759
0
LINE
8
0
10
92.8590462723
20
8.62276139759
11
94.9988321679
21
9.4015797713
0
LINE
8
0
10
94.9988321679
20
9.4015797713
11
95.1248267065
21
9.3433671598
0
LINE
8
0
10
95.1248267065
20
9.3433671598
11
95.278130591
21
9.18123714878
0
LINE
8
0
10
95.278130591
20
9.18123714878
11
95.6599275222
21
8.62441427481
0
LINE
8
0
10
95.6599275222
20
8.62441427481
11
96.0723919156
21
8.07023372255
0
LINE
8
0
10
96.0723919156
20
8.07023372255
11
96.5674714036
21
7.45627430241
0
LINE
8
0
10
96.5674714036
20
7.45627430241
11
97.1503298608
21
6.78822393174
0
LINE
8
0
10
97.1503298608
20
6.78822393174
11
97.8258099465
21
6.07207740787
0
LINE
8
0
10
97.8258099465
20
6.07207740787
11
98.5590476324
21
5.35274296768
0
LINE
8
0
10
98.5590476324
20
5.35274296768
11
99.5424620806
21
5.7106765548
0
LINE
8
0
10
99.5424620806
20
5.7106765548
11
100.477673479
21
6.18035737215
0
LINE
8
0
10
100.477673479
20
6.18035737215
11
100.457626798
21
7.20733238228
0
LINE
8
0
10
100.457626798
20
7.20733238228
11
100.400263254
21
8.19010835549
0
LINE
8
0
10
100.400263254
20
8.19010835549
11
100.314322765
21
9.07250821457
0
LINE
8
0
10
100.314322765
20
9.07250821457
11
100.207489025
21
9.85394050271
0
LINE
8
0
10
100.207489025
20
9.85394050271
11
100.087442939
21
10.5342580004
0
LINE
8
0
10
100.087442939
20
10.5342580004
11
99.944429609
21
11.1940820657
0
LINE
8
0
10
99.944429609
20
11.1940820657
11
99.9317040212
21
11.4168516347
0
LINE
8
0
10
99.9317040212
20
11.4168516347
11
99.9758244006
21
11.5484446589
0
LINE
8
0
10
99.9758244006
20
11.5484446589
11
102.010726535
21
12.5704109216
0
LINE
8
0
10
102.010726535
20
12.5704109216
11
102.142627215
21
12.5272189961
0
LINE
8
0
10
102.142627215
20
12.5272189961
11
102.313716659
21
12.3839827449
0
LINE
8
0
10
102.313716659
20
12.3839827449
11
102.757575206
21
11.8752488264
0
LINE
8
0
10
102.757575206
20
11.8752488264
11
103.231587098
21
11.3726996382
0
LINE
8
0
10
103.231587098
20
11.3726996382
11
103.794595374
21
10.8203668125
0
LINE
8
0
10
103.794595374
20
10.8203668125
11
104.451068665
21
10.2244992962
0
LINE
8
0
10
104.451068665
20
10.2244992962
11
105.205120933
21
9.59161355055
0
LINE
8
0
10
105.205120933
20
9.59161355055
11
106.016910359
21
8.9622666922
0
LINE
8
0
10
106.016910359
20
8.9622666922
11
106.952121758
21
9.43194750955
0
LINE
8
0
10
106.952121758
20
9.43194750955
11
107.826482976
21
10.0070239298
0
LINE
8
0
10
107.826482976
20
10.0070239298
11
107.687347322
21
11.0247276247
0
LINE
8
0
10
107.687347322
20
11.0247276247
11
107.516278323
21
11.9941989173
0
LINE
8
0
10
107.516278323
20
11.9941989173
11
107.328478562
21
12.8606552225
0
LINE
8
0
10
107.328478562
20
12.8606552225
11
107.131648442
21
13.6244011048
0
LINE
8
0
10
107.131648442
20
13.6244011048
11
106.933434024
21
14.286182039
0
LINE
8
0
10
106.933434024
20
14.286182039
11
106.7147868
21
14.9249417757
0
LINE
8
0
10
106.7147868
20
14.9249417757
11
106.67628529
21
15.1447277061
0
LINE
8
0
10
106.67628529
20
15.1447277061
11
106.704830326
21
15.2805530087
0
LINE
8
0
10
106.704830326
20
15.2805530087
11
108.607330138
21
16.5318468199
0
LINE
8
0
10
108.607330138
20
16.5318468199
11
108.74335323
21
16.5042596771
0
LINE
8
0
10
108.74335323
20
16.5042596771
11
108.929914542
21
16.3818542103
0
LINE
8
0
10
108.929914542
20
16.3818542103
11
109.429832279
21
15.9280890007
0
LINE
8
0
10
109.429832279
20
15.9280890007
11
109.958981472
21
15.4839672922
0
LINE
8
0
10
109.958981472
20
15.4839672922
11
110.582304815
21
15.0007304149
0
LINE
8
0
10
110.582304815
20
15.0007304149
11
111.303515265
21
14.4851038391
0
LINE
8
0
10
111.303515265
20
14.4851038391
11
112.125942451
21
13.9440375656
0
LINE
8
0
10
112.125942451
20
13.9440375656
11
113.005305559
21
13.4131891257
0
LINE
8
0
10
113.005305559
20
13.4131891257
11
113.879666777
21
13.988265546
0
LINE
8
0
10
113.879666777
20
13.988265546
11
114.681353581
21
14.6609606471
0
LINE
8
0
10
114.681353581
20
14.6609606471
11
114.425010525
21
15.6556303301
0
LINE
8
0
10
114.425010525
20
15.6556303301
11
114.142549485
21
16.598686506
0
LINE
8
0
10
114.142549485
20
16.598686506
11
113.855430122
21
17.4374819221
0
LINE
8
0
10
113.855430122
20
17.4374819221
11
113.571265411
21
18.1732130457
0
LINE
8
0
10
113.571265411
20
18.1732130457
11
113.297563171
21
18.8075079646
0
LINE
8
0
10
113.297563171
20
18.8075079646
11
113.006238883
21
19.4165652432
0
LINE
8
0
10
113.006238883
20
19.4165652432
11
112.942482117
21
19.6303953071
0
LINE
8
0
10
112.942482117
20
19.6303953071
11
112.955065785
21
19.768616084
0
LINE
8
0
10
112.955065785
20
19.768616084
11
114.69943523
21
21.2323158415
0
LINE
8
0
10
114.69943523
20
21.2323158415
11
114.837741254
21
21.2207065501
0
LINE
8
0
10
114.837741254
20
21.2207065501
11
115.037251512
21
21.1207871917
0
LINE
8
0
10
115.037251512
20
21.1207871917
11
115.58646791
21
20.7281270871
0
LINE
8
0
10
115.58646791
20
20.7281270871
11
116.163598569
21
20.3484388425
0
LINE
8
0
10
116.163598569
20
20.3484388425
11
116.8388076
21
19.9408328634
0
LINE
8
0
10
116.8388076
20
19.9408328634
11
117.615002074
21
19.5124201928
0
LINE
8
0
10
117.615002074
20
19.5124201928
11
118.494682263
21
19.0704903847
0
LINE
8
0
10
118.494682263
20
19.0704903847
11
119.429727174
21
18.6453191778
0
LINE
8
0
10
119.429727174
20
18.6453191778
11
120.231413978
21
19.3180142789
0
LINE
8
0
10
120.231413978
20
19.3180142789
11
120.949584927
21
20.0792310136
0
LINE
8
0
10
120.949584927
20
20.0792310136
11
120.579501069
21
21.0374154837
0
LINE
8
0
10
120.579501069
20
21.0374154837
11
120.18946779
21
21.9413033258
0
LINE
8
0
10
120.18946779
20
21.9413033258
11
119.806911621
21
22.7410945838
0
LINE
8
0
10
119.806911621
20
22.7410945838
11
119.43925516
21
23.4388614474
0
LINE
8
0
10
119.43925516
20
23.4388614474
11
119.093766451
21
24.0370926004
0
LINE
8
0
10
119.093766451
20
24.0370926004
11
118.733704759
21
24.6082109659
0
LINE
8
0
10
118.733704759
20
24.6082109659
11
118.645554938
21
24.8131934787
0
LINE
8
0
10
118.645554938
20
24.8131934787
11
118.642007068
21
24.9519405309
0
LINE
8
0
10
118.642007068
20
24.9519405309
11
120.20465654
21
26.6082522063
0
LINE
8
0
10
120.20465654
20
26.6082522063
11
120.343375145
21
26.6127777622
0
LINE
8
0
10
120.343375145
20
26.6127777622
11
120.553136316
21
26.5366957501
0
LINE
8
0
10
120.553136316
20
26.5366957501
11
121.144224165
21
26.2104508048
0
LINE
8
0
10
121.144224165
20
26.2104508048
11
121.761531587
21
25.9003306562
0
LINE
8
0
10
121.761531587
20
25.9003306562
11
122.479495262
21
25.5738677469
0
LINE
8
0
10
122.479495262
20
25.5738677469
11
123.300177062
21
25.2384625281
0
LINE
8
0
10
123.300177062
20
25.2384625281
11
124.225214088
21
24.9016455278
0
LINE
8
0
10
124.225214088
20
24.9016455278
11
125.203295924
21
24.587901265
0
LINE
8
0
10
125.203295924
20
24.587901265
11
125.921466873
21
25.3491179997
0
LINE
8
0
10
125.921466873
20
25.3491179997
11
126.546409939
21
26.1885622176
0
LINE
8
0
10
126.546409939
20
26.1885622176
11
126.067590028
21
27.0973036735
0
LINE
8
0
10
126.067590028
20
27.0973036735
11
125.575259041
21
27.9497996495
0
LINE
8
0
10
125.575259041
20
27.9497996495
11
125.102439482
21
28.6997709446
0
LINE
8
0
10
125.102439482
20
28.6997709446
11
124.656263194
21
29.3501374483
0
LINE
8
0
10
124.656263194
20
29.3501374483
11
124.243660158
21
29.9042147853
0
LINE
8
0
10
124.243660158
20
29.9042147853
11
123.819730279
21
30.4296708416
0
LINE
8
0
10
123.819730279
20
30.4296708416
11
123.708379479
21
30.6230337664
0
LINE
8
0
10
123.708379479
20
30.6230337664
11
123.688748048
21
30.7604307781
0
LINE
8
0
10
123.688748048
20
30.7604307781
11
125.048545394
21
32.5869555975
0
LINE
8
0
10
125.048545394
20
32.5869555975
11
125.185800648
21
32.6075548002
0
LINE
8
0
10
125.185800648
20
32.6075548002
11
125.402976072
21
32.556339013
0
LINE
8
0
10
125.402976072
20
32.556339013
11
126.027941923
21
32.3009211302
0
LINE
8
0
10
126.027941923
20
32.3009211302
11
126.677078085
21
32.0645629208
0
LINE
8
0
10
126.677078085
20
32.0645629208
11
127.428087177
21
31.8236579321
0
LINE
8
0
10
127.428087177
20
31.8236579321
11
128.28215799
21
31.5857959452
0
LINE
8
0
10
128.28215799
20
31.5857959452
11
129.240042313
21
31.3586466249
0
LINE
8
0
10
129.240042313
20
31.3586466249
11
130.247934195
21
31.1605721592
0
LINE
8
0
10
130.247934195
20
31.1605721592
11
130.872877261
21
32.0000163771
0
LINE
8
0
10
130.872877261
20
32.0000163771
11
131.396141159
21
32.906336035
0
LINE
8
0
10
131.396141159
20
32.906336035
11
130.815060413
21
33.7533453075
0
LINE
8
0
10
130.815060413
20
33.7533453075
11
130.22708965
21
34.5429208717
0
LINE
8
0
10
130.22708965
20
34.5429208717
11
129.670400775
21
35.2329301287
0
LINE
8
0
10
129.670400775
20
35.2329301287
11
129.151738429
21
35.8271011814
0
LINE
8
0
10
129.151738429
20
35.8271011814
11
128.677600815
21
36.3295317568
0
LINE
8
0
10
128.677600815
20
36.3295317568
11
128.195535673
21
36.8022196121
0
LINE
8
0
10
128.195535673
20
36.8022196121
11
128.062489721
21
36.9813480471
0
LINE
8
0
10
128.062489721
20
36.9813480471
11
128.027040212
21
37.1155369594
0
LINE
8
0
10
128.027040212
20
37.1155369594
11
129.165596506
21
39.0875743079
0
LINE
8
0
10
129.165596506
20
39.0875743079
11
129.299532267
21
39.1239685886
0
LINE
8
0
10
129.299532267
20
39.1239685886
11
129.521185018
21
39.0983116321
0
LINE
8
0
10
129.521185018
20
39.0983116321
11
130.17157728
21
38.9171749005
0
LINE
8
0
10
130.17157728
20
38.9171749005
11
130.843763729
21
38.7577749695
0
LINE
8
0
10
130.843763729
20
38.7577749695
11
131.617662128
21
38.6056857281
0
LINE
8
0
10
131.617662128
20
38.6056857281
11
132.493572111
21
38.4685836484
0
LINE
8
0
10
132.493572111
20
38.4685836484
11
133.47134999
21
38.354173813
0
LINE
8
0
10
133.47134999
20
38.354173813
11
134.49542191
21
38.2744477618
0
LINE
8
0
10
134.49542191
20
38.2744477618
11
135.018685808
21
39.1807674197
0
LINE
8
0
10
135.018685808
20
39.1807674197
11
135.433194293
21
40.1417060992
0
LINE
8
0
10
135.433194293
20
40.1417060992
11
134.757710833
21
40.915528841
0
LINE
8
0
10
134.757710833
20
40.915528841
11
134.08205159
21
41.6315063383
0
LINE
8
0
10
134.08205159
20
41.6315063383
11
133.44902166
21
42.2522223658
0
LINE
8
0
10
133.44902166
20
42.2522223658
11
132.864887274
21
42.7821628231
0
LINE
8
0
10
132.864887274
20
42.7821628231
11
132.335626979
21
43.2261521254
0
LINE
8
0
10
132.335626979
20
43.2261521254
11
131.801945678
21
43.6396794874
0
LINE
8
0
10
131.801945678
20
43.6396794874
11
131.649003794
21
43.8021510278
0
LINE
8
0
10
131.649003794
20
43.8021510278
11
131.5982156
21
43.9313171659
0
LINE
8
0
10
131.5982156
20
43.9313171659
11
132.500133821
21
46.0221986213
0
LINE
8
0
10
132.500133821
20
46.0221986213
11
132.628938839
21
46.0738958098
0
LINE
8
0
10
132.628938839
20
46.0738958098
11
132.852071444
21
46.0741446502
0
LINE
8
0
10
132.852071444
20
46.0741446502
11
133.519094677
21
45.9697386334
0
LINE
8
0
10
133.519094677
20
45.9697386334
11
134.205241244
21
45.8894525914
0
LINE
8
0
10
134.205241244
20
45.8894525914
11
134.991563302
21
45.8282358434
0
LINE
8
0
10
134.991563302
20
45.8282358434
11
135.877467275
21
45.7937477414
0
LINE
8
0
10
135.877467275
20
45.7937477414
11
136.861915941
21
45.7936245876
0
LINE
8
0
10
136.861915941
20
45.7936245876
11
137.888319082
21
45.8333251089
0
LINE
8
0
10
137.888319082
20
45.8333251089
11
138.302827567
21
46.7942637884
0
LINE
8
0
10
138.302827567
20
46.7942637884
11
138.602975123
21
47.7968264423
0
LINE
8
0
10
138.602975123
20
47.7968264423
11
137.842223703
21
48.4869980281
0
LINE
8
0
10
137.842223703
20
48.4869980281
11
137.088013111
21
49.1196950913
0
LINE
8
0
10
137.088013111
20
49.1196950913
11
136.387202771
21
49.6627237697
0
LINE
8
0
10
136.387202771
20
49.6627237697
11
135.745495761
21
50.1212670961
0
LINE
8
0
10
135.745495761
20
50.1212670961
11
135.168270123
21
50.5008109316
0
LINE
8
0
10
135.168270123
20
50.5008109316
11
134.590189788
21
50.8495855522
0
LINE
8
0
10
134.590189788
20
50.8495855522
11
134.419420247
21
50.993203049
0
LINE
8
0
10
134.419420247
20
50.993203049
11
134.353980191
21
51.1155996624
0
LINE
8
0
10
134.353980191
20
51.1155996624
11
135.007063442
21
53.2970496401
0
LINE
8
0
10
135.007063442
20
53.2970496401
11
135.128995849
21
53.3633506205
0
LINE
8
0
10
135.128995849
20
53.3633506205
11
135.350590823
21
53.3895018928
0
LINE
8
0
10
135.350590823
20
53.3895018928
11
136.025224683
21
53.363238503
0
LINE
8
0
10
136.025224683
20
53.363238503
11
136.716052413
21
53.363152081
0
LINE
8
0
10
136.716052413
20
53.363152081
11
137.504164473
21
53.3936356779
0
LINE
8
0
10
137.504164473
20
53.3936356779
11
138.388082105
21
53.462227946
0
LINE
8
0
10
138.388082105
20
53.462227946
11
139.365888578
21
53.5763931393
0
LINE
8
0
10
139.365888578
20
53.5763931393
11
140.380742599
21
53.7349833517
0
LINE
8
0
10
140.380742599
20
53.7349833517
11
140.680890155
21
54.7375460055
0
LINE
8
0
10
140.680890155
20
54.7375460055
11
140.862617799
21
55.7681746937
0
LINE
8
0
10
140.862617799
20
55.7681746937
11
140.026886278
21
56.3653617369
0
LINE
8
0
10
140.026886278
20
56.3653617369
11
139.204323743
21
56.9062222235
0
LINE
8
0
10
139.204323743
20
56.9062222235
11
138.445210249
21
57.3642200216
0
LINE
8
0
10
138.445210249
20
57.3642200216
11
137.754608601
21
57.7451652053
0
LINE
8
0
10
137.754608601
20
57.7451652053
11
137.137223607
21
58.0551308947
0
LINE
8
0
10
137.137223607
20
58.0551308947
11
136.522561782
21
58.3344361954
0
LINE
8
0
10
136.522561782
20
58.3344361954
11
136.33627395
21
58.4572574684
0
LINE
8
0
10
136.33627395
20
58.4572574684
11
136.257066997
21
58.5712293529
0
LINE
8
0
10
136.257066997
20
58.5712293529
11
136.652483448
21
60.813747484
0
LINE
8
0
10
136.652483448
20
60.813747484
11
136.765894318
21
60.8937556495
0
LINE
8
0
10
136.765894318
20
60.8937556495
11
136.982954968
21
60.9454557024
0
LINE
8
0
10
136.982954968
20
60.9454557024
11
137.656076188
21
60.997690107
0
LINE
8
0
10
137.656076188
20
60.997690107
11
138.342242821
21
61.0778044737
0
LINE
8
0
10
138.342242821
20
61.0778044737
11
139.12148702
21
61.1995761771
0
LINE
8
0
10
139.12148702
20
61.1995761771
11
139.991464841
21
61.3703212225
0
LINE
8
0
10
139.991464841
20
61.3703212225
11
140.949405966
21
61.5972308745
0
LINE
8
0
10
140.949405966
20
61.5972308745
11
141.938986708
21
61.8725661174
0
LINE
8
0
10
71.6132820414
20
69.7135623957
11
71.3014145052
21
69.6807837968
0
LINE
8
0
10
71.3014145052
20
69.6807837968
11
70.9895469689
21
69.7135623957
0
LINE
8
0
10
70.9895469689
20
69.7135623957
11
70.6913095406
21
69.8104656103
0
LINE
8
0
10
70.6913095406
20
69.8104656103
11
70.4197366267
21
69.9672583052
0
LINE
8
0
10
70.4197366267
20
69.9672583052
11
70.186697267
21
70.1770878873
0
LINE
8
0
10
70.186697267
20
70.1770878873
11
70.0023763995
21
70.4307837968
0
LINE
8
0
10
70.0023763995
20
70.4307837968
11
69.8748297307
21
70.7172583052
0
LINE
8
0
10
69.8748297307
20
70.7172583052
11
69.8096316621
21
71.0239911019
0
LINE
8
0
10
69.8096316621
20
71.0239911019
11
69.8096316621
21
71.3375764917
0
LINE
8
0
10
69.8096316621
20
71.3375764917
11
69.8748297307
21
71.6443092884
0
LINE
8
0
10
69.8748297307
20
71.6443092884
11
70.0023763995
21
71.9307837968
0
LINE
8
0
10
70.0023763995
20
71.9307837968
11
70.186697267
21
72.1844797063
0
LINE
8
0
10
70.186697267
20
72.1844797063
11
70.4197366267
21
72.3943092884
0
LINE
8
0
10
70.4197366267
20
72.3943092884
11
70.6913095406
21
72.5511019833
0
LINE
8
0
10
70.6913095406
20
72.5511019833
11
70.9895469689
21
72.6480051979
0
LINE
8
0
10
70.9895469689
20
72.6480051979
11
71.3014145052
21
72.6807837968
0
LINE
8
0
10
71.3014145052
20
72.6807837968
11
71.6132820414
21
72.6480051979
0
LINE
8
0
10
71.6132820414
20
72.6480051979
11
71.9115194698
21
72.5511019833
0
LINE
8
0
10
71.9115194698
20
72.5511019833
11
72.1830923836
21
72.3943092884
0
LINE
8
0
10
72.1830923836
20
72.3943092884
11
72.4161317434
21
72.1844797063
0
LINE
8
0
10
72.4161317434
20
72.1844797063
11
72.6004526108
21
71.9307837968
0
LINE
8
0
10
72.6004526108
20
71.9307837968
11
72.7279992796
21
71.6443092884
0
LINE
8
0
10
72.7279992796
20
71.6443092884
11
72.7931973482
21
71.3375764917
0
LINE
8
0
10
72.7931973482
20
71.3375764917
11
72.7931973482
21
71.0239911019
0
LINE
8
0
10
72.7931973482
20
71.0239911019
11
72.7279992796
21
70.7172583052
0
LINE
8
0
10
72.7279992796
20
70.7172583052
11
72.6004526108
21
70.4307837968
0
LINE
8
0
10
72.6004526108
20
70.4307837968
11
72.4161317434
21
70.1770878873
0
LINE
8
0
10
72.4161317434
20
70.1770878873
11
72.1830923836
21
69.9672583052
0
LINE
8
0
10
72.1830923836
20
69.9672583052
11
71.9115194698
21
69.8104656103
0
LINE
8
0
10
71.9115194698
20
69.8104656103
11
71.6132820414
21
69.7135623957
0
ENDSEC
0
EOF
