  0
SECTION
  2
BLOCKS
  0
ENDSEC
  0
SECTION
  2
ENTITIES
  0
LINE
  8
0
 10
20.74398864699938
 20
-9.574502371142382
 11
21.1737591965665
 21
-8.770458225639894
  0
LINE
  8
0
 10
21.1737591965665
 20
-8.770458225639894
 11
21.43841059427148
 21
-7.89801948802855
  0
LINE
  8
0
 10
21.43841059427148
 20
-7.89801948802855
 11
20.976836973643458
 21
-7.293613038578479
  0
LINE
  8
0
 10
20.976836973643458
 20
-7.293613038578479
 11
20.077807597285805
 21
-6.390440448154432
  0
LINE
  8
0
 10
20.077807597285805
 20
-6.390440448154432
 11
19.330523507887584
 21
-5.814294854743777
  0
LINE
  8
0
 10
19.330523507887584
 20
-5.814294854743777
 11
18.80049134673289
 21
-5.506653778133572
  0
LINE
  8
0
 10
18.80049134673289
 20
-5.506653778133572
 11
18.540124038904143
 21
-5.398104162467044
  0
LINE
  8
0
 10
18.540124038904143
 20
-5.398104162467044
 11
18.160577063376444
 21
-5.295469064507132
  0
LINE
  8
0
 10
18.160577063376444
 20
-5.295469064507132
 11
17.488421740671907
 21
-4.959639436535329
  0
LINE
  8
0
 10
17.488421740671907
 20
-4.959639436535329
 11
17.21168387660191
 21
-4.584478716958783
  0
LINE
  8
0
 10
17.21168387660191
 20
-4.584478716958783
 11
17.655926504657486
 21
-2.3511202088488963
  0
LINE
  8
0
 10
17.655926504657486
 20
-2.3511202088488963
 11
18.055166744998782
 21
-2.110419894318434
  0
LINE
  8
0
 10
18.055166744998782
 20
-2.110419894318434
 11
18.804673725036174
 21
-2.057376480598696
  0
LINE
  8
0
 10
18.804673725036174
 20
-2.057376480598696
 11
19.19460615892123
 21
-2.1078003536150804
  0
LINE
  8
0
 10
19.19460615892123
 20
-2.1078003536150804
 11
19.476694325064404
 21
-2.1071518404742284
  0
LINE
  8
0
 10
19.476694325064404
 20
-2.1071518404742284
 11
20.084109333461633
 21
-2.025763073128904
  0
LINE
  8
0
 10
20.084109333461633
 20
-2.025763073128904
 11
20.994991181856644
 21
-1.7794471919132824
  0
LINE
  8
0
 10
20.994991181856644
 20
-1.7794471919132824
 11
22.171215208719616
 21
-1.2890681688375891
  0
LINE
  8
0
 10
22.171215208719616
 20
-1.2890681688375891
 11
22.828949964185686
 21
-0.9073059983030586
  0
LINE
  8
0
 10
22.828949964185686
 20
-0.9073059983030586
 11
22.918311805232925
 21
-2.149418166021969e-15
  0
LINE
  8
0
 10
22.918311805232925
 20
-2.149418166021969e-15
 11
22.828949964185686
 21
0.9073059983030666
  0
LINE
  8
0
 10
22.828949964185686
 20
0.9073059983030666
 11
22.17121520872118
 21
1.2890681688366903
  0
LINE
  8
0
 10
22.17121520872118
 20
1.2890681688366903
 11
20.99499118185641
 21
1.7794471919130745
  0
LINE
  8
0
 10
20.99499118185641
 20
1.7794471919130745
 11
20.08410933346165
 21
2.0257630731290166
  0
LINE
  8
0
 10
20.08410933346165
 20
2.0257630731290166
 11
19.47669432506442
 21
2.107151840474357
  0
LINE
  8
0
 10
19.47669432506442
 20
2.107151840474357
 11
19.194606158921196
 21
2.107800353615066
  0
LINE
  8
0
 10
19.194606158921196
 20
2.107800353615066
 11
18.804673725036164
 21
2.057376480598791
  0
LINE
  8
0
 10
18.804673725036164
 20
2.057376480598791
 11
18.055166744998786
 21
2.110419894317782
  0
LINE
  8
0
 10
18.055166744998786
 20
2.110419894317782
 11
17.655926504657515
 21
2.3511202088490695
  0
LINE
  8
0
 10
17.655926504657515
 20
2.3511202088490695
 11
17.211683876601818
 21
4.584478716958931
  0
LINE
  8
0
 10
17.211683876601818
 20
4.584478716958931
 11
17.488421740672155
 21
4.959639436534726
  0
LINE
  8
0
 10
17.488421740672155
 20
4.959639436534726
 11
18.16057706337642
 21
5.295469064507222
  0
LINE
  8
0
 10
18.16057706337642
 20
5.295469064507222
 11
18.54012403890418
 21
5.398104162467042
  0
LINE
  8
0
 10
18.54012403890418
 20
5.398104162467042
 11
18.800491346732827
 21
5.506653778133685
  0
LINE
  8
0
 10
18.800491346732827
 20
5.506653778133685
 11
19.330523507887523
 21
5.814294854743873
  0
LINE
  8
0
 10
19.330523507887523
 20
5.814294854743873
 11
20.077807597286103
 21
6.390440448154329
  0
LINE
  8
0
 10
20.077807597286103
 20
6.390440448154329
 11
20.976836973642357
 21
7.2936130385770515
  0
LINE
  8
0
 10
20.976836973642357
 20
7.2936130385770515
 11
21.438410594271478
 21
7.898019488028555
  0
LINE
  8
0
 10
21.438410594271478
 20
7.898019488028555
 11
21.173759196566504
 21
8.77045822563989
  0
LINE
  8
0
 10
21.173759196566504
 20
8.77045822563989
 11
20.74398864699938
 21
9.574502371142394
  0
LINE
  8
0
 10
20.74398864699938
 20
9.574502371142394
 11
19.990226910837446
 21
9.675500432978522
  0
LINE
  8
0
 10
19.990226910837446
 20
9.675500432978522
 11
18.715877679058373
 21
9.678430127740777
  0
LINE
  8
0
 10
18.715877679058373
 20
9.678430127740777
 11
17.78007157592066
 21
9.557416936705902
  0
LINE
  8
0
 10
17.78007157592066
 20
9.557416936705902
 11
17.187747149078607
 21
9.400162692749063
  0
LINE
  8
0
 10
17.187747149078607
 20
9.400162692749063
 11
16.926883490780618
 21
9.292811373117065
  0
LINE
  8
0
 10
16.926883490780618
 20
9.292811373117065
 11
16.585929276850937
 21
9.097005106697784
  0
LINE
  8
0
 10
16.585929276850937
 20
9.097005106697784
 11
15.87317628289371
 21
8.859186927264991
  0
LINE
  8
0
 10
15.87317628289371
 20
8.859186927264991
 11
15.412214373751334
 21
8.928782395817416
  0
LINE
  8
0
 10
15.412214373751334
 20
8.928782395817416
 11
14.147118402636394
 21
10.822132316512818
  0
LINE
  8
0
 10
14.147118402636394
 20
10.822132316512818
 11
14.259223059266047
 21
11.27463862241892
  0
LINE
  8
0
 10
14.259223059266047
 20
11.27463862241892
 11
14.751697169858627
 21
11.842127448088522
  0
LINE
  8
0
 10
14.751697169858627
 20
11.842127448088522
 11
15.063076100606898
 21
12.082196253749645
  0
LINE
  8
0
 10
15.063076100606898
 20
12.082196253749645
 11
15.26208398773963
 21
12.282121276961545
  0
LINE
  8
0
 10
15.26208398773963
 20
12.282121276961545
 11
15.634040709869502
 21
12.769179097696004
  0
LINE
  8
0
 10
15.634040709869502
 20
12.769179097696004
 11
16.103959811807844
 21
13.587441459477358
  0
LINE
  8
0
 10
16.103959811807844
 20
13.587441459477358
 11
16.588925464828744
 21
14.76590777763517
  0
LINE
  8
0
 10
16.588925464828744
 20
14.76590777763517
 11
16.784067551055415
 21
15.500943103032766
  0
LINE
  8
0
 10
16.784067551055415
 20
15.500943103032766
 11
16.205693690827914
 21
16.205693690827907
  0
LINE
  8
0
 10
16.205693690827914
 20
16.205693690827907
 11
15.500943103032762
 21
16.784067551055415
  0
LINE
  8
0
 10
15.500943103032762
 20
16.784067551055415
 11
14.765907777636912
 21
16.58892546482921
  0
LINE
  8
0
 10
14.765907777636912
 20
16.58892546482921
 11
13.587441459477342
 21
16.103959811807528
  0
LINE
  8
0
 10
13.587441459477342
 20
16.103959811807528
 11
12.769179097695938
 21
15.634040709869591
  0
LINE
  8
0
 10
12.769179097695938
 20
15.634040709869591
 11
12.282121276961467
 21
15.262083987739729
  0
LINE
  8
0
 10
12.282121276961467
 20
15.262083987739729
 11
12.082196253749633
 21
15.063076100606864
  0
LINE
  8
0
 10
12.082196253749633
 20
15.063076100606864
 11
11.84212744808845
 21
14.751697169858684
  0
LINE
  8
0
 10
11.84212744808845
 20
14.751697169858684
 11
11.274638622419387
 21
14.259223059265587
  0
LINE
  8
0
 10
11.274638622419387
 20
14.259223059265587
 11
10.822132316512718
 21
14.147118402636533
  0
LINE
  8
0
 10
10.822132316512718
 20
14.147118402636533
 11
8.928782395817247
 21
15.412214373751373
  0
LINE
  8
0
 10
8.928782395817247
 20
15.412214373751373
 11
8.859186927265593
 21
15.873176282893457
  0
LINE
  8
0
 10
8.859186927265593
 20
15.873176282893457
 11
9.097005106697702
 21
16.58592927685098
  0
LINE
  8
0
 10
9.097005106697702
 20
16.58592927685098
 11
9.292811373117093
 21
16.92688349078064
  0
LINE
  8
0
 10
9.292811373117093
 20
16.92688349078064
 11
9.40016269274894
 21
17.18774714907864
  0
LINE
  8
0
 10
9.40016269274894
 20
17.18774714907864
 11
9.557416936705794
 21
17.780071575920683
  0
LINE
  8
0
 10
9.557416936705794
 20
17.780071575920683
 11
9.67843012774106
 21
18.715877679058508
  0
LINE
  8
0
 10
9.67843012774106
 20
18.715877679058508
 11
9.675500432978756
 21
19.99022691083566
  0
LINE
  8
0
 10
9.675500432978756
 20
19.99022691083566
 11
9.574502371142389
 21
20.74398864699938
  0
LINE
  8
0
 10
9.574502371142389
 20
20.74398864699938
 11
8.770458225639896
 21
21.1737591965665
  0
LINE
  8
0
 10
8.770458225639896
 20
21.1737591965665
 11
7.898019488028551
 21
21.43841059427148
  0
LINE
  8
0
 10
7.898019488028551
 20
21.43841059427148
 11
7.29361303857848
 21
20.976836973643458
  0
LINE
  8
0
 10
7.29361303857848
 20
20.976836973643458
 11
6.390440448154433
 21
20.077807597285805
  0
LINE
  8
0
 10
6.390440448154433
 20
20.077807597285805
 11
5.814294854743778
 21
19.330523507887584
  0
LINE
  8
0
 10
5.814294854743778
 20
19.330523507887584
 11
5.506653778133573
 21
18.80049134673289
  0
LINE
  8
0
 10
5.506653778133573
 20
18.80049134673289
 11
5.398104162467045
 21
18.540124038904143
  0
LINE
  8
0
 10
5.398104162467045
 20
18.540124038904143
 11
5.295469064507133
 21
18.160577063376444
  0
LINE
  8
0
 10
5.295469064507133
 20
18.160577063376444
 11
4.95963943653533
 21
17.488421740671907
  0
LINE
  8
0
 10
4.95963943653533
 20
17.488421740671907
 11
4.584478716958784
 21
17.21168387660191
  0
LINE
  8
0
 10
4.584478716958784
 20
17.21168387660191
 11
2.351120208848897
 21
17.655926504657486
  0
LINE
  8
0
 10
2.351120208848897
 20
17.655926504657486
 11
2.1104198943184347
 21
18.055166744998782
  0
LINE
  8
0
 10
2.1104198943184347
 20
18.055166744998782
 11
2.0573764805986974
 21
18.804673725036174
  0
LINE
  8
0
 10
2.0573764805986974
 20
18.804673725036174
 11
2.107800353615082
 21
19.19460615892123
  0
LINE
  8
0
 10
2.107800353615082
 20
19.19460615892123
 11
2.1071518404742298
 21
19.476694325064404
  0
LINE
  8
0
 10
2.1071518404742298
 20
19.476694325064404
 11
2.025763073128905
 21
20.084109333461633
  0
LINE
  8
0
 10
2.025763073128905
 20
20.084109333461633
 11
1.7794471919132837
 21
20.994991181856644
  0
LINE
  8
0
 10
1.7794471919132837
 20
20.994991181856644
 11
1.2890681688375905
 21
22.171215208719616
  0
LINE
  8
0
 10
1.2890681688375905
 20
22.171215208719616
 11
0.90730599830306
 21
22.828949964185686
  0
LINE
  8
0
 10
0.90730599830306
 20
22.828949964185686
 11
2.149418166021969e-15
 21
22.918311805232925
  0
LINE
  8
0
 10
2.149418166021969e-15
 20
22.918311805232925
 11
-0.9073059983030648
 21
22.828949964185686
  0
LINE
  8
0
 10
-0.9073059983030648
 20
22.828949964185686
 11
-1.2890681688366903
 21
22.17121520872118
  0
LINE
  8
0
 10
-1.2890681688366903
 20
22.17121520872118
 11
-1.7794471919130728
 21
20.99499118185641
  0
LINE
  8
0
 10
-1.7794471919130728
 20
20.99499118185641
 11
-2.025763073129015
 21
20.08410933346165
  0
LINE
  8
0
 10
-2.025763073129015
 20
20.08410933346165
 11
-2.1071518404743563
 21
19.47669432506442
  0
LINE
  8
0
 10
-2.1071518404743563
 20
19.47669432506442
 11
-2.107800353615064
 21
19.194606158921196
  0
LINE
  8
0
 10
-2.107800353615064
 20
19.194606158921196
 11
-2.05737648059879
 21
18.804673725036164
  0
LINE
  8
0
 10
-2.05737648059879
 20
18.804673725036164
 11
-2.110419894317781
 21
18.055166744998786
  0
LINE
  8
0
 10
-2.110419894317781
 20
18.055166744998786
 11
-2.3511202088490686
 21
17.655926504657515
  0
LINE
  8
0
 10
-2.3511202088490686
 20
17.655926504657515
 11
-4.584478716958931
 21
17.211683876601818
  0
LINE
  8
0
 10
-4.584478716958931
 20
17.211683876601818
 11
-4.959639436534725
 21
17.488421740672155
  0
LINE
  8
0
 10
-4.959639436534725
 20
17.488421740672155
 11
-5.295469064507221
 21
18.16057706337642
  0
LINE
  8
0
 10
-5.295469064507221
 20
18.16057706337642
 11
-5.398104162467042
 21
18.54012403890418
  0
LINE
  8
0
 10
-5.398104162467042
 20
18.54012403890418
 11
-5.506653778133683
 21
18.800491346732827
  0
LINE
  8
0
 10
-5.506653778133683
 20
18.800491346732827
 11
-5.814294854743872
 21
19.330523507887523
  0
LINE
  8
0
 10
-5.814294854743872
 20
19.330523507887523
 11
-6.390440448154327
 21
20.077807597286103
  0
LINE
  8
0
 10
-6.390440448154327
 20
20.077807597286103
 11
-7.29361303857705
 21
20.976836973642357
  0
LINE
  8
0
 10
-7.29361303857705
 20
20.976836973642357
 11
-7.898019488028553
 21
21.438410594271478
  0
LINE
  8
0
 10
-7.898019488028553
 20
21.438410594271478
 11
-8.77045822563989
 21
21.173759196566504
  0
LINE
  8
0
 10
-8.77045822563989
 20
21.173759196566504
 11
-9.574502371142394
 21
20.74398864699938
  0
LINE
  8
0
 10
-9.574502371142394
 20
20.74398864699938
 11
-9.675500432978522
 21
19.990226910837446
  0
LINE
  8
0
 10
-9.675500432978522
 20
19.990226910837446
 11
-9.678430127740777
 21
18.715877679058373
  0
LINE
  8
0
 10
-9.678430127740777
 20
18.715877679058373
 11
-9.557416936705902
 21
17.78007157592066
  0
LINE
  8
0
 10
-9.557416936705902
 20
17.78007157592066
 11
-9.400162692749063
 21
17.187747149078607
  0
LINE
  8
0
 10
-9.400162692749063
 20
17.187747149078607
 11
-9.292811373117065
 21
16.926883490780618
  0
LINE
  8
0
 10
-9.292811373117065
 20
16.926883490780618
 11
-9.097005106697784
 21
16.585929276850937
  0
LINE
  8
0
 10
-9.097005106697784
 20
16.585929276850937
 11
-8.859186927264991
 21
15.87317628289371
  0
LINE
  8
0
 10
-8.859186927264991
 20
15.87317628289371
 11
-8.928782395817416
 21
15.412214373751334
  0
LINE
  8
0
 10
-8.928782395817416
 20
15.412214373751334
 11
-10.822132316512818
 21
14.147118402636394
  0
LINE
  8
0
 10
-10.822132316512818
 20
14.147118402636394
 11
-11.27463862241892
 21
14.259223059266047
  0
LINE
  8
0
 10
-11.27463862241892
 20
14.259223059266047
 11
-11.842127448088522
 21
14.751697169858627
  0
LINE
  8
0
 10
-11.842127448088522
 20
14.751697169858627
 11
-12.082196253749645
 21
15.063076100606898
  0
LINE
  8
0
 10
-12.082196253749645
 20
15.063076100606898
 11
-12.282121276961545
 21
15.26208398773963
  0
LINE
  8
0
 10
-12.282121276961545
 20
15.26208398773963
 11
-12.769179097696004
 21
15.634040709869502
  0
LINE
  8
0
 10
-12.769179097696004
 20
15.634040709869502
 11
-13.587441459477358
 21
16.103959811807844
  0
LINE
  8
0
 10
-13.587441459477358
 20
16.103959811807844
 11
-14.76590777763517
 21
16.588925464828744
  0
LINE
  8
0
 10
-14.76590777763517
 20
16.588925464828744
 11
-15.500943103032766
 21
16.784067551055415
  0
LINE
  8
0
 10
-15.500943103032766
 20
16.784067551055415
 11
-16.20569369082791
 21
16.205693690827903
  0
LINE
  8
0
 10
-16.20569369082791
 20
16.205693690827903
 11
-16.784067551055422
 21
15.500943103032757
  0
LINE
  8
0
 10
-16.784067551055422
 20
15.500943103032757
 11
-16.588925464829213
 21
14.765907777636903
  0
LINE
  8
0
 10
-16.588925464829213
 20
14.765907777636903
 11
-16.103959811807535
 21
13.587441459477335
  0
LINE
  8
0
 10
-16.103959811807535
 20
13.587441459477335
 11
-15.634040709869593
 21
12.76917909769593
  0
LINE
  8
0
 10
-15.634040709869593
 20
12.76917909769593
 11
-15.262083987739732
 21
12.28212127696146
  0
LINE
  8
0
 10
-15.262083987739732
 20
12.28212127696146
 11
-15.063076100606864
 21
12.082196253749627
  0
LINE
  8
0
 10
-15.063076100606864
 20
12.082196253749627
 11
-14.751697169858689
 21
11.842127448088442
  0
LINE
  8
0
 10
-14.751697169858689
 20
11.842127448088442
 11
-14.259223059265588
 21
11.274638622419381
  0
LINE
  8
0
 10
-14.259223059265588
 20
11.274638622419381
 11
-14.147118402636536
 21
10.822132316512713
  0
LINE
  8
0
 10
-14.147118402636536
 20
10.822132316512713
 11
-15.412214373751375
 21
8.92878239581724
  0
LINE
  8
0
 10
-15.412214373751375
 20
8.92878239581724
 11
-15.873176282893459
 21
8.859186927265586
  0
LINE
  8
0
 10
-15.873176282893459
 20
8.859186927265586
 11
-16.585929276850983
 21
9.097005106697695
  0
LINE
  8
0
 10
-16.585929276850983
 20
9.097005106697695
 11
-16.926883490780643
 21
9.292811373117086
  0
LINE
  8
0
 10
-16.926883490780643
 20
9.292811373117086
 11
-17.187747149078643
 21
9.400162692748932
  0
LINE
  8
0
 10
-17.187747149078643
 20
9.400162692748932
 11
-17.780071575920687
 21
9.557416936705787
  0
LINE
  8
0
 10
-17.780071575920687
 20
9.557416936705787
 11
-18.71587767905851
 21
9.678430127741052
  0
LINE
  8
0
 10
-18.71587767905851
 20
9.678430127741052
 11
-19.990226910835663
 21
9.675500432978748
  0
LINE
  8
0
 10
-19.990226910835663
 20
9.675500432978748
 11
-20.74398864699938
 21
9.57450237114238
  0
LINE
  8
0
 10
-20.74398864699938
 20
9.57450237114238
 11
-21.1737591965665
 21
8.770458225639896
  0
LINE
  8
0
 10
-21.1737591965665
 20
8.770458225639896
 11
-21.43841059427148
 21
7.898019488028552
  0
LINE
  8
0
 10
-21.43841059427148
 20
7.898019488028552
 11
-20.976836973643458
 21
7.293613038578481
  0
LINE
  8
0
 10
-20.976836973643458
 20
7.293613038578481
 11
-20.077807597285805
 21
6.390440448154434
  0
LINE
  8
0
 10
-20.077807597285805
 20
6.390440448154434
 11
-19.330523507887584
 21
5.81429485474378
  0
LINE
  8
0
 10
-19.330523507887584
 20
5.81429485474378
 11
-18.80049134673289
 21
5.5066537781335745
  0
LINE
  8
0
 10
-18.80049134673289
 20
5.5066537781335745
 11
-18.540124038904143
 21
5.398104162467047
  0
LINE
  8
0
 10
-18.540124038904143
 20
5.398104162467047
 11
-18.160577063376444
 21
5.2954690645071345
  0
LINE
  8
0
 10
-18.160577063376444
 20
5.2954690645071345
 11
-17.488421740671907
 21
4.959639436535331
  0
LINE
  8
0
 10
-17.488421740671907
 20
4.959639436535331
 11
-17.21168387660191
 21
4.584478716958785
  0
LINE
  8
0
 10
-17.21168387660191
 20
4.584478716958785
 11
-17.655926504657486
 21
2.3511202088488985
  0
LINE
  8
0
 10
-17.655926504657486
 20
2.3511202088488985
 11
-18.055166744998782
 21
2.110419894318436
  0
LINE
  8
0
 10
-18.055166744998782
 20
2.110419894318436
 11
-18.804673725036174
 21
2.0573764805986983
  0
LINE
  8
0
 10
-18.804673725036174
 20
2.0573764805986983
 11
-19.19460615892123
 21
2.1078003536150827
  0
LINE
  8
0
 10
-19.19460615892123
 20
2.1078003536150827
 11
-19.476694325064404
 21
2.1071518404742307
  0
LINE
  8
0
 10
-19.476694325064404
 20
2.1071518404742307
 11
-20.084109333461633
 21
2.0257630731289065
  0
LINE
  8
0
 10
-20.084109333461633
 20
2.0257630731289065
 11
-20.994991181856644
 21
1.779447191913285
  0
LINE
  8
0
 10
-20.994991181856644
 20
1.779447191913285
 11
-22.171215208719616
 21
1.2890681688375918
  0
LINE
  8
0
 10
-22.171215208719616
 20
1.2890681688375918
 11
-22.828949964185686
 21
0.9073059983030614
  0
LINE
  8
0
 10
-22.828949964185686
 20
0.9073059983030614
 11
-22.91831180523293
 21
3.9257750054222194e-15
  0
LINE
  8
0
 10
-22.91831180523293
 20
3.9257750054222194e-15
 11
-22.82894996418569
 21
-0.9073059983030621
  0
LINE
  8
0
 10
-22.82894996418569
 20
-0.9073059983030621
 11
-22.17121520872118
 21
-1.2890681688366876
  0
LINE
  8
0
 10
-22.17121520872118
 20
-1.2890681688366876
 11
-20.994991181856413
 21
-1.779447191913071
  0
LINE
  8
0
 10
-20.994991181856413
 20
-1.779447191913071
 11
-20.08410933346165
 21
-2.025763073129013
  0
LINE
  8
0
 10
-20.08410933346165
 20
-2.025763073129013
 11
-19.47669432506442
 21
-2.1071518404743537
  0
LINE
  8
0
 10
-19.47669432506442
 20
-2.1071518404743537
 11
-19.194606158921196
 21
-2.1078003536150622
  0
LINE
  8
0
 10
-19.194606158921196
 20
-2.1078003536150622
 11
-18.804673725036167
 21
-2.0573764805987884
  0
LINE
  8
0
 10
-18.804673725036167
 20
-2.0573764805987884
 11
-18.055166744998786
 21
-2.110419894317779
  0
LINE
  8
0
 10
-18.055166744998786
 20
-2.110419894317779
 11
-17.655926504657515
 21
-2.351120208849067
  0
LINE
  8
0
 10
-17.655926504657515
 20
-2.351120208849067
 11
-17.211683876601818
 21
-4.584478716958929
  0
LINE
  8
0
 10
-17.211683876601818
 20
-4.584478716958929
 11
-17.488421740672155
 21
-4.959639436534724
  0
LINE
  8
0
 10
-17.488421740672155
 20
-4.959639436534724
 11
-18.160577063376415
 21
-5.295469064507219
  0
LINE
  8
0
 10
-18.160577063376415
 20
-5.295469064507219
 11
-18.540124038904178
 21
-5.398104162467039
  0
LINE
  8
0
 10
-18.540124038904178
 20
-5.398104162467039
 11
-18.80049134673283
 21
-5.506653778133681
  0
LINE
  8
0
 10
-18.80049134673283
 20
-5.506653778133681
 11
-19.330523507887527
 21
-5.8142948547438715
  0
LINE
  8
0
 10
-19.330523507887527
 20
-5.8142948547438715
 11
-20.077807597286103
 21
-6.390440448154325
  0
LINE
  8
0
 10
-20.077807597286103
 20
-6.390440448154325
 11
-20.97683697364236
 21
-7.293613038577048
  0
LINE
  8
0
 10
-20.97683697364236
 20
-7.293613038577048
 11
-21.438410594271478
 21
-7.898019488028553
  0
LINE
  8
0
 10
-21.438410594271478
 20
-7.898019488028553
 11
-21.173759196566504
 21
-8.77045822563989
  0
LINE
  8
0
 10
-21.173759196566504
 20
-8.77045822563989
 11
-20.743988646999384
 21
-9.574502371142392
  0
LINE
  8
0
 10
-20.743988646999384
 20
-9.574502371142392
 11
-19.99022691083745
 21
-9.675500432978522
  0
LINE
  8
0
 10
-19.99022691083745
 20
-9.675500432978522
 11
-18.715877679058377
 21
-9.678430127740777
  0
LINE
  8
0
 10
-18.715877679058377
 20
-9.678430127740777
 11
-17.78007157592066
 21
-9.5574169367059
  0
LINE
  8
0
 10
-17.78007157592066
 20
-9.5574169367059
 11
-17.187747149078607
 21
-9.400162692749063
  0
LINE
  8
0
 10
-17.187747149078607
 20
-9.400162692749063
 11
-16.92688349078062
 21
-9.292811373117065
  0
LINE
  8
0
 10
-16.92688349078062
 20
-9.292811373117065
 11
-16.58592927685094
 21
-9.097005106697784
  0
LINE
  8
0
 10
-16.58592927685094
 20
-9.097005106697784
 11
-15.873176282893713
 21
-8.859186927264991
  0
LINE
  8
0
 10
-15.873176282893713
 20
-8.859186927264991
 11
-15.412214373751336
 21
-8.928782395817416
  0
LINE
  8
0
 10
-15.412214373751336
 20
-8.928782395817416
 11
-14.147118402636396
 21
-10.822132316512818
  0
LINE
  8
0
 10
-14.147118402636396
 20
-10.822132316512818
 11
-14.259223059266048
 21
-11.27463862241892
  0
LINE
  8
0
 10
-14.259223059266048
 20
-11.27463862241892
 11
-14.751697169858629
 21
-11.842127448088522
  0
LINE
  8
0
 10
-14.751697169858629
 20
-11.842127448088522
 11
-15.0630761006069
 21
-12.082196253749643
  0
LINE
  8
0
 10
-15.0630761006069
 20
-12.082196253749643
 11
-15.262083987739633
 21
-12.282121276961545
  0
LINE
  8
0
 10
-15.262083987739633
 20
-12.282121276961545
 11
-15.634040709869504
 21
-12.769179097696004
  0
LINE
  8
0
 10
-15.634040709869504
 20
-12.769179097696004
 11
-16.103959811807847
 21
-13.587441459477358
  0
LINE
  8
0
 10
-16.103959811807847
 20
-13.587441459477358
 11
-16.588925464828744
 21
-14.765907777635169
  0
LINE
  8
0
 10
-16.588925464828744
 20
-14.765907777635169
 11
-16.78406755105542
 21
-15.500943103032766
  0
LINE
  8
0
 10
-16.78406755105542
 20
-15.500943103032766
 11
-16.205693690827907
 21
-16.20569369082791
  0
LINE
  8
0
 10
-16.205693690827907
 20
-16.20569369082791
 11
-15.500943103032757
 21
-16.784067551055422
  0
LINE
  8
0
 10
-15.500943103032757
 20
-16.784067551055422
 11
-14.765907777636906
 21
-16.588925464829213
  0
LINE
  8
0
 10
-14.765907777636906
 20
-16.588925464829213
 11
-13.587441459477336
 21
-16.103959811807535
  0
LINE
  8
0
 10
-13.587441459477336
 20
-16.103959811807535
 11
-12.76917909769593
 21
-15.634040709869593
  0
LINE
  8
0
 10
-12.76917909769593
 20
-15.634040709869593
 11
-12.282121276961462
 21
-15.262083987739732
  0
LINE
  8
0
 10
-12.282121276961462
 20
-15.262083987739732
 11
-12.082196253749627
 21
-15.063076100606864
  0
LINE
  8
0
 10
-12.082196253749627
 20
-15.063076100606864
 11
-11.842127448088444
 21
-14.751697169858687
  0
LINE
  8
0
 10
-11.842127448088444
 20
-14.751697169858687
 11
-11.274638622419381
 21
-14.259223059265588
  0
LINE
  8
0
 10
-11.274638622419381
 20
-14.259223059265588
 11
-10.822132316512715
 21
-14.147118402636536
  0
LINE
  8
0
 10
-10.822132316512715
 20
-14.147118402636536
 11
-8.92878239581724
 21
-15.412214373751375
  0
LINE
  8
0
 10
-8.92878239581724
 20
-15.412214373751375
 11
-8.859186927265588
 21
-15.873176282893459
  0
LINE
  8
0
 10
-8.859186927265588
 20
-15.873176282893459
 11
-9.097005106697695
 21
-16.585929276850983
  0
LINE
  8
0
 10
-9.097005106697695
 20
-16.585929276850983
 11
-9.292811373117088
 21
-16.926883490780643
  0
LINE
  8
0
 10
-9.292811373117088
 20
-16.926883490780643
 11
-9.400162692748934
 21
-17.187747149078643
  0
LINE
  8
0
 10
-9.400162692748934
 20
-17.187747149078643
 11
-9.557416936705787
 21
-17.780071575920687
  0
LINE
  8
0
 10
-9.557416936705787
 20
-17.780071575920687
 11
-9.678430127741052
 21
-18.71587767905851
  0
LINE
  8
0
 10
-9.678430127741052
 20
-18.71587767905851
 11
-9.67550043297875
 21
-19.990226910835663
  0
LINE
  8
0
 10
-9.67550043297875
 20
-19.990226910835663
 11
-9.574502371142382
 21
-20.74398864699938
  0
LINE
  8
0
 10
-9.574502371142382
 20
-20.74398864699938
 11
-8.770458225639898
 21
-21.1737591965665
  0
LINE
  8
0
 10
-8.770458225639898
 20
-21.1737591965665
 11
-7.898019488028553
 21
-21.43841059427148
  0
LINE
  8
0
 10
-7.898019488028553
 20
-21.43841059427148
 11
-7.293613038578482
 21
-20.976836973643458
  0
LINE
  8
0
 10
-7.293613038578482
 20
-20.976836973643458
 11
-6.390440448154435
 21
-20.077807597285805
  0
LINE
  8
0
 10
-6.390440448154435
 20
-20.077807597285805
 11
-5.814294854743781
 21
-19.330523507887584
  0
LINE
  8
0
 10
-5.814294854743781
 20
-19.330523507887584
 11
-5.506653778133575
 21
-18.80049134673289
  0
LINE
  8
0
 10
-5.506653778133575
 20
-18.80049134673289
 11
-5.398104162467048
 21
-18.540124038904143
  0
LINE
  8
0
 10
-5.398104162467048
 20
-18.540124038904143
 11
-5.295469064507135
 21
-18.160577063376444
  0
LINE
  8
0
 10
-5.295469064507135
 20
-18.160577063376444
 11
-4.9596394365353325
 21
-17.488421740671907
  0
LINE
  8
0
 10
-4.9596394365353325
 20
-17.488421740671907
 11
-4.584478716958786
 21
-17.21168387660191
  0
LINE
  8
0
 10
-4.584478716958786
 20
-17.21168387660191
 11
-2.3511202088488994
 21
-17.655926504657486
  0
LINE
  8
0
 10
-2.3511202088488994
 20
-17.655926504657486
 11
-2.110419894318437
 21
-18.055166744998782
  0
LINE
  8
0
 10
-2.110419894318437
 20
-18.055166744998782
 11
-2.0573764805986996
 21
-18.804673725036174
  0
LINE
  8
0
 10
-2.0573764805986996
 20
-18.804673725036174
 11
-2.107800353615084
 21
-19.19460615892123
  0
LINE
  8
0
 10
-2.107800353615084
 20
-19.19460615892123
 11
-2.107151840474232
 21
-19.476694325064404
  0
LINE
  8
0
 10
-2.107151840474232
 20
-19.476694325064404
 11
-2.0257630731289074
 21
-20.084109333461633
  0
LINE
  8
0
 10
-2.0257630731289074
 20
-20.084109333461633
 11
-1.7794471919132862
 21
-20.994991181856644
  0
LINE
  8
0
 10
-1.7794471919132862
 20
-20.994991181856644
 11
-1.2890681688375931
 21
-22.171215208719616
  0
LINE
  8
0
 10
-1.2890681688375931
 20
-22.171215208719616
 11
-0.9073059983030628
 21
-22.828949964185686
  0
LINE
  8
0
 10
-0.9073059983030628
 20
-22.828949964185686
 11
4.956009191579033e-15
 21
-22.91831180523293
  0
LINE
  8
0
 10
4.956009191579033e-15
 20
-22.91831180523293
 11
0.907305998303071
 21
-22.82894996418569
  0
LINE
  8
0
 10
0.907305998303071
 20
-22.82894996418569
 11
1.2890681688366965
 21
-22.171215208721176
  0
LINE
  8
0
 10
1.2890681688366965
 20
-22.171215208721176
 11
1.7794471919130799
 21
-20.99499118185641
  0
LINE
  8
0
 10
1.7794471919130799
 20
-20.99499118185641
 11
2.025763073129021
 21
-20.084109333461647
  0
LINE
  8
0
 10
2.025763073129021
 20
-20.084109333461647
 11
2.1071518404743625
 21
-19.476694325064418
  0
LINE
  8
0
 10
2.1071518404743625
 20
-19.476694325064418
 11
2.1078003536150693
 21
-19.194606158921196
  0
LINE
  8
0
 10
2.1078003536150693
 20
-19.194606158921196
 11
2.0573764805987955
 21
-18.804673725036167
  0
LINE
  8
0
 10
2.0573764805987955
 20
-18.804673725036167
 11
2.1104198943177863
 21
-18.055166744998782
  0
LINE
  8
0
 10
2.1104198943177863
 20
-18.055166744998782
 11
2.351120208849074
 21
-17.655926504657515
  0
LINE
  8
0
 10
2.351120208849074
 20
-17.655926504657515
 11
4.5844787169589365
 21
-17.211683876601818
  0
LINE
  8
0
 10
4.5844787169589365
 20
-17.211683876601818
 11
4.95963943653473
 21
-17.488421740672152
  0
LINE
  8
0
 10
4.95963943653473
 20
-17.488421740672152
 11
5.295469064507226
 21
-18.160577063376415
  0
LINE
  8
0
 10
5.295469064507226
 20
-18.160577063376415
 11
5.398104162467047
 21
-18.540124038904178
  0
LINE
  8
0
 10
5.398104162467047
 20
-18.540124038904178
 11
5.506653778133688
 21
-18.800491346732823
  0
LINE
  8
0
 10
5.506653778133688
 20
-18.800491346732823
 11
5.814294854743879
 21
-19.330523507887527
  0
LINE
  8
0
 10
5.814294854743879
 20
-19.330523507887527
 11
6.390440448154332
 21
-20.0778075972861
  0
LINE
  8
0
 10
6.390440448154332
 20
-20.0778075972861
 11
7.293613038577055
 21
-20.976836973642357
  0
LINE
  8
0
 10
7.293613038577055
 20
-20.976836973642357
 11
7.89801948802856
 21
-21.438410594271474
  0
LINE
  8
0
 10
7.89801948802856
 20
-21.438410594271474
 11
8.770458225639908
 21
-21.173759196566497
  0
LINE
  8
0
 10
8.770458225639908
 20
-21.173759196566497
 11
9.57450237114241
 21
-20.743988646999373
  0
LINE
  8
0
 10
9.57450237114241
 20
-20.743988646999373
 11
9.675500432978536
 21
-19.990226910837443
  0
LINE
  8
0
 10
9.675500432978536
 20
-19.990226910837443
 11
9.678430127740791
 21
-18.715877679058366
  0
LINE
  8
0
 10
9.678430127740791
 20
-18.715877679058366
 11
9.557416936705915
 21
-17.78007157592065
  0
LINE
  8
0
 10
9.557416936705915
 20
-17.78007157592065
 11
9.400162692749078
 21
-17.1877471490786
  0
LINE
  8
0
 10
9.400162692749078
 20
-17.1877471490786
 11
9.292811373117079
 21
-16.92688349078061
  0
LINE
  8
0
 10
9.292811373117079
 20
-16.92688349078061
 11
9.097005106697798
 21
-16.58592927685093
  0
LINE
  8
0
 10
9.097005106697798
 20
-16.58592927685093
 11
8.859186927265004
 21
-15.873176282893704
  0
LINE
  8
0
 10
8.859186927265004
 20
-15.873176282893704
 11
8.92878239581743
 21
-15.412214373751327
  0
LINE
  8
0
 10
8.92878239581743
 20
-15.412214373751327
 11
10.822132316512828
 21
-14.147118402636385
  0
LINE
  8
0
 10
10.822132316512828
 20
-14.147118402636385
 11
11.274638622418932
 21
-14.259223059266038
  0
LINE
  8
0
 10
11.274638622418932
 20
-14.259223059266038
 11
11.842127448088535
 21
-14.751697169858618
  0
LINE
  8
0
 10
11.842127448088535
 20
-14.751697169858618
 11
12.082196253749656
 21
-15.063076100606889
  0
LINE
  8
0
 10
12.082196253749656
 20
-15.063076100606889
 11
12.282121276961558
 21
-15.26208398773962
  0
LINE
  8
0
 10
12.282121276961558
 20
-15.26208398773962
 11
12.769179097696016
 21
-15.634040709869492
  0
LINE
  8
0
 10
12.769179097696016
 20
-15.634040709869492
 11
13.587441459477372
 21
-16.103959811807833
  0
LINE
  8
0
 10
13.587441459477372
 20
-16.103959811807833
 11
14.765907777635183
 21
-16.58892546482873
  0
LINE
  8
0
 10
14.765907777635183
 20
-16.58892546482873
 11
15.50094310303278
 21
-16.7840675510554
  0
LINE
  8
0
 10
15.50094310303278
 20
-16.7840675510554
 11
16.20569369082791
 21
-16.205693690827907
  0
LINE
  8
0
 10
16.20569369082791
 20
-16.205693690827907
 11
16.784067551055422
 21
-15.500943103032759
  0
LINE
  8
0
 10
16.784067551055422
 20
-15.500943103032759
 11
16.58892546482921
 21
-14.765907777636906
  0
LINE
  8
0
 10
16.58892546482921
 20
-14.765907777636906
 11
16.103959811807535
 21
-13.587441459477338
  0
LINE
  8
0
 10
16.103959811807535
 20
-13.587441459477338
 11
15.634040709869591
 21
-12.769179097695933
  0
LINE
  8
0
 10
15.634040709869591
 20
-12.769179097695933
 11
15.262083987739732
 21
-12.282121276961464
  0
LINE
  8
0
 10
15.262083987739732
 20
-12.282121276961464
 11
15.063076100606864
 21
-12.082196253749627
  0
LINE
  8
0
 10
15.063076100606864
 20
-12.082196253749627
 11
14.751697169858687
 21
-11.842127448088446
  0
LINE
  8
0
 10
14.751697169858687
 20
-11.842127448088446
 11
14.259223059265587
 21
-11.274638622419381
  0
LINE
  8
0
 10
14.259223059265587
 20
-11.274638622419381
 11
14.147118402636536
 21
-10.822132316512715
  0
LINE
  8
0
 10
14.147118402636536
 20
-10.822132316512715
 11
15.412214373751373
 21
-8.928782395817242
  0
LINE
  8
0
 10
15.412214373751373
 20
-8.928782395817242
 11
15.873176282893459
 21
-8.85918692726559
  0
LINE
  8
0
 10
15.873176282893459
 20
-8.85918692726559
 11
16.585929276850983
 21
-9.097005106697697
  0
LINE
  8
0
 10
16.585929276850983
 20
-9.097005106697697
 11
16.926883490780643
 21
-9.292811373117088
  0
LINE
  8
0
 10
16.926883490780643
 20
-9.292811373117088
 11
17.187747149078643
 21
-9.400162692748935
  0
LINE
  8
0
 10
17.187747149078643
 20
-9.400162692748935
 11
17.780071575920687
 21
-9.557416936705787
  0
LINE
  8
0
 10
17.780071575920687
 20
-9.557416936705787
 11
18.71587767905851
 21
-9.678430127741054
  0
LINE
  8
0
 10
18.71587767905851
 20
-9.678430127741054
 11
19.990226910835663
 21
-9.675500432978751
  0
LINE
  8
0
 10
19.990226910835663
 20
-9.675500432978751
 11
20.74398864699938
 21
-9.574502371142382
  0
LINE
  8
0
 10
0.3118675362266391
 20
-1.4672214011007085
 11
9.18454765366783e-17
 21
-1.5
  0
LINE
  8
0
 10
9.18454765366783e-17
 20
-1.5
 11
-0.3118675362266384
 21
-1.4672214011007085
  0
LINE
  8
0
 10
-0.3118675362266384
 20
-1.4672214011007085
 11
-0.6101049646137001
 21
-1.3703181864639014
  0
LINE
  8
0
 10
-0.6101049646137001
 20
-1.3703181864639014
 11
-0.8816778784387099
 21
-1.213525491562421
  0
LINE
  8
0
 10
-0.8816778784387099
 20
-1.213525491562421
 11
-1.114717238216091
 21
-1.0036959095382878
  0
LINE
  8
0
 10
-1.114717238216091
 20
-1.0036959095382878
 11
-1.299038105676658
 21
-0.7500000000000003
  0
LINE
  8
0
 10
-1.299038105676658
 20
-0.7500000000000003
 11
-1.4265847744427305
 21
-0.46352549156242095
  0
LINE
  8
0
 10
-1.4265847744427305
 20
-0.46352549156242095
 11
-1.49178284305241
 21
-0.15679269490147957
  0
LINE
  8
0
 10
-1.49178284305241
 20
-0.15679269490147957
 11
-1.4917828430524098
 21
0.15679269490148126
  0
LINE
  8
0
 10
-1.4917828430524098
 20
0.15679269490148126
 11
-1.4265847744427302
 21
0.46352549156242123
  0
LINE
  8
0
 10
-1.4265847744427302
 20
0.46352549156242123
 11
-1.2990381056766576
 21
0.7500000000000006
  0
LINE
  8
0
 10
-1.2990381056766576
 20
0.7500000000000006
 11
-1.114717238216091
 21
1.0036959095382878
  0
LINE
  8
0
 10
-1.114717238216091
 20
1.0036959095382878
 11
-0.8816778784387097
 21
1.2135254915624214
  0
LINE
  8
0
 10
-0.8816778784387097
 20
1.2135254915624214
 11
-0.6101049646137005
 21
1.3703181864639014
  0
LINE
  8
0
 10
-0.6101049646137005
 20
1.3703181864639014
 11
-0.3118675362266387
 21
1.4672214011007085
  0
LINE
  8
0
 10
-0.3118675362266387
 20
1.4672214011007085
 11
7.579792913117722e-16
 21
1.5
  0
LINE
  8
0
 10
7.579792913117722e-16
 20
1.5
 11
0.3118675362266389
 21
1.4672214011007085
  0
LINE
  8
0
 10
0.3118675362266389
 20
1.4672214011007085
 11
0.6101049646136999
 21
1.3703181864639014
  0
LINE
  8
0
 10
0.6101049646136999
 20
1.3703181864639014
 11
0.8816778784387097
 21
1.213525491562421
  0
LINE
  8
0
 10
0.8816778784387097
 20
1.213525491562421
 11
1.1147172382160917
 21
1.003695909538287
  0
LINE
  8
0
 10
1.1147172382160917
 20
1.003695909538287
 11
1.299038105676658
 21
0.7499999999999998
  0
LINE
  8
0
 10
1.299038105676658
 20
0.7499999999999998
 11
1.4265847744427305
 21
0.4635254915624211
  0
LINE
  8
0
 10
1.4265847744427305
 20
0.4635254915624211
 11
1.49178284305241
 21
0.1567926949014801
  0
LINE
  8
0
 10
1.49178284305241
 20
0.1567926949014801
 11
1.4917828430524098
 21
-0.1567926949014801
  0
LINE
  8
0
 10
1.4917828430524098
 20
-0.1567926949014801
 11
1.4265847744427302
 21
-0.46352549156242107
  0
LINE
  8
0
 10
1.4265847744427302
 20
-0.46352549156242107
 11
1.299038105676658
 21
-0.7500000000000001
  0
LINE
  8
0
 10
1.299038105676658
 20
-0.7500000000000001
 11
1.1147172382160913
 21
-1.0036959095382874
  0
LINE
  8
0
 10
1.1147172382160913
 20
-1.0036959095382874
 11
0.8816778784387098
 21
-1.2135254915624212
  0
LINE
  8
0
 10
0.8816778784387098
 20
-1.2135254915624212
 11
0.6101049646137003
 21
-1.3703181864639014
  0
LINE
  8
0
 10
0.6101049646137003
 20
-1.3703181864639014
 11
0.3118675362266391
 21
-1.4672214011007085
  0
ENDSEC
  0
SECTION
  2
OBJECTS
  0
DICTIONARY
  0
ENDSEC
  0
EOF
