  0
SECTION
  2
BLOCKS
  0
ENDSEC
  0
SECTION
  2
ENTITIES
  0
LINE
  8
0
 10
35.64934940547145
 20
-9.448200588297297
 11
35.92865703269426
 21
-8.515248141911423
  0
LINE
  8
0
 10
35.92865703269426
 20
-8.515248141911423
 11
36.09776691342066
 21
-7.556178349830102
  0
LINE
  8
0
 10
36.09776691342066
 20
-7.556178349830102
 11
35.37069513000523
 21
-6.96988825560647
  0
LINE
  8
0
 10
35.37069513000523
 20
-6.96988825560647
 11
34.45833630155046
 21
-6.34431086434166
  0
LINE
  8
0
 10
34.45833630155046
 20
-6.34431086434166
 11
33.66984165017306
 21
-5.889204775715252
  0
LINE
  8
0
 10
33.66984165017306
 20
-5.889204775715252
 11
33.025124626979704
 21
-5.581021906322735
  0
LINE
  8
0
 10
33.025124626979704
 20
-5.581021906322735
 11
32.54115146685451
 21
-5.394233935458244
  0
LINE
  8
0
 10
32.54115146685451
 20
-5.394233935458244
 11
32.00803772850778
 21
-5.234702826350109
  0
LINE
  8
0
 10
32.00803772850778
 20
-5.234702826350109
 11
31.609538872461165
 21
-5.034680884843775
  0
LINE
  8
0
 10
31.609538872461165
 20
-5.034680884843775
 11
31.43391862466936
 21
-4.820405366127039
  0
LINE
  8
0
 10
31.43391862466936
 20
-4.820405366127039
 11
31.698275260799065
 21
-2.5586897988498247
  0
LINE
  8
0
 10
31.698275260799065
 20
-2.5586897988498247
 11
31.91857697741044
 21
-2.390690920836143
  0
LINE
  8
0
 10
31.91857697741044
 20
-2.390690920836143
 11
32.35246247942667
 21
-2.28796075732812
  0
LINE
  8
0
 10
32.35246247942667
 20
-2.28796075732812
 11
32.90799647359808
 21
-2.255674318885069
  0
LINE
  8
0
 10
32.90799647359808
 20
-2.255674318885069
 11
33.42200034510132
 21
-2.185533133687619
  0
LINE
  8
0
 10
33.42200034510132
 20
-2.185533133687619
 11
34.120410798267926
 21
-2.0343393511108765
  0
LINE
  8
0
 10
34.120410798267926
 20
-2.0343393511108765
 11
34.99260616117893
 21
-1.773340086607516
  0
LINE
  8
0
 10
34.99260616117893
 20
-1.773340086607516
 11
36.02464031412877
 21
-1.3750296405437852
  0
LINE
  8
0
 10
36.02464031412877
 20
-1.3750296405437852
 11
36.8673215841213
 21
-0.9722173641076574
  0
LINE
  8
0
 10
36.8673215841213
 20
-0.9722173641076574
 11
36.923946797319715
 21
-1.2918486859906438e-15
  0
LINE
  8
0
 10
36.923946797319715
 20
-1.2918486859906438e-15
 11
36.86732158412129
 21
0.9722173641076552
  0
LINE
  8
0
 10
36.86732158412129
 20
0.9722173641076552
 11
36.024640314138544
 21
1.3750296405391143
  0
LINE
  8
0
 10
36.024640314138544
 20
1.3750296405391143
 11
34.99260616117909
 21
1.7733400866063955
  0
LINE
  8
0
 10
34.99260616117909
 20
1.7733400866063955
 11
34.12041079826791
 21
2.034339351110813
  0
LINE
  8
0
 10
34.12041079826791
 20
2.034339351110813
 11
33.422000345101274
 21
2.185533133687563
  0
LINE
  8
0
 10
33.422000345101274
 20
2.185533133687563
 11
32.90799647359801
 21
2.2556743188850272
  0
LINE
  8
0
 10
32.90799647359801
 20
2.2556743188850272
 11
32.35246247942661
 21
2.2879607573270198
  0
LINE
  8
0
 10
32.35246247942661
 20
2.2879607573270198
 11
31.91857697741045
 21
2.3906909208361187
  0
LINE
  8
0
 10
31.91857697741045
 20
2.3906909208361187
 11
31.69827526079903
 21
2.55868979884976
  0
LINE
  8
0
 10
31.69827526079903
 20
2.55868979884976
 11
31.433918624669406
 21
4.820405366126984
  0
LINE
  8
0
 10
31.433918624669406
 20
4.820405366126984
 11
31.609538872461155
 21
5.034680884843748
  0
LINE
  8
0
 10
31.609538872461155
 20
5.034680884843748
 11
32.008037728508086
 21
5.234702826349051
  0
LINE
  8
0
 10
32.008037728508086
 20
5.234702826349051
 11
32.541151466854586
 21
5.394233935458218
  0
LINE
  8
0
 10
32.541151466854586
 20
5.394233935458218
 11
33.02512462697976
 21
5.5810219063226905
  0
LINE
  8
0
 10
33.02512462697976
 20
5.5810219063226905
 11
33.66984165017308
 21
5.889204775715191
  0
LINE
  8
0
 10
33.66984165017308
 20
5.889204775715191
 11
34.45833630155056
 21
6.344310864340531
  0
LINE
  8
0
 10
34.45833630155056
 20
6.344310864340531
 11
35.370695129996804
 21
6.96988825559967
  0
LINE
  8
0
 10
35.370695129996804
 20
6.96988825559967
 11
36.097766913420664
 21
7.556178349830099
  0
LINE
  8
0
 10
36.097766913420664
 20
7.556178349830099
 11
35.92865703269427
 21
8.51524814191142
  0
LINE
  8
0
 10
35.92865703269427
 20
8.51524814191142
 11
35.64934940547145
 21
9.448200588297285
  0
LINE
  8
0
 10
35.64934940547145
 20
9.448200588297285
 11
34.73648781430605
 21
9.645819332850076
  0
LINE
  8
0
 10
34.73648781430605
 20
9.645819332850076
 11
33.64041556516005
 21
9.795389814473527
  0
LINE
  8
0
 10
33.64041556516005
 20
9.795389814473527
 11
32.73153976848901
 21
9.848211716949377
  0
LINE
  8
0
 10
32.73153976848901
 20
9.848211716949377
 11
32.01708737365608
 21
9.834265516756597
  0
LINE
  8
0
 10
32.01708737365608
 20
9.834265516756597
 11
31.500762872532448
 21
9.783978586837671
  0
LINE
  8
0
 10
31.500762872532448
 20
9.783978586837671
 11
30.952757603956776
 21
9.687279784360081
  0
LINE
  8
0
 10
30.952757603956776
 20
9.687279784360081
 11
30.50687633569183
 21
9.687179960166459
  0
LINE
  8
0
 10
30.50687633569183
 20
9.687179960166459
 11
30.253769672826287
 21
9.7998453344784
  0
LINE
  8
0
 10
30.253769672826287
 20
9.7998453344784
 11
29.474951299117254
 21
11.939631230100463
  0
LINE
  8
0
 10
29.474951299117254
 20
11.939631230100463
 11
29.59642234507332
 21
12.188631740843139
  0
LINE
  8
0
 10
29.59642234507332
 20
12.188631740843139
 11
29.938051378673876
 21
12.47516222570542
  0
LINE
  8
0
 10
29.938051378673876
 20
12.47516222570542
 11
30.42000456156985
 21
12.753337642095543
  0
LINE
  8
0
 10
30.42000456156985
 20
12.753337642095543
 11
30.847855891982835
 21
13.046702610769467
  0
LINE
  8
0
 10
30.847855891982835
 20
13.046702610769467
 11
31.404122623603737
 21
13.495260348718615
  0
LINE
  8
0
 10
31.404122623603737
 20
13.495260348718615
 11
32.0664086126977
 21
14.119938374428322
  0
LINE
  8
0
 10
32.0664086126977
 20
14.119938374428322
 11
32.80990661604352
 21
14.93905767179542
  0
LINE
  8
0
 10
32.80990661604352
 20
14.93905767179542
 11
33.38217228485881
 21
15.677218533084652
  0
LINE
  8
0
 10
33.38217228485881
 20
15.677218533084652
 11
32.99644406765002
 21
16.57143705240257
  0
LINE
  8
0
 10
32.99644406765002
 20
16.57143705240257
 11
32.50951157288247
 21
17.41482887319623
  0
LINE
  8
0
 10
32.50951157288247
 20
17.41482887319623
 11
31.575682265199575
 21
17.396600408199816
  0
LINE
  8
0
 10
31.575682265199575
 20
17.396600408199816
 11
30.474661458526207
 21
17.289367542000235
  0
LINE
  8
0
 10
30.474661458526207
 20
17.289367542000235
 11
29.578102957547554
 21
17.13116444001261
  0
LINE
  8
0
 10
29.578102957547554
 20
17.13116444001261
 11
28.886124934582917
 21
16.952830100312525
  0
LINE
  8
0
 10
28.886124934582917
 20
16.952830100312525
 11
28.395314991340097
 21
16.784826036685423
  0
LINE
  8
0
 10
28.395314991340097
 20
16.784826036685423
 11
27.884381554234942
 21
16.564355050759367
  0
LINE
  8
0
 10
27.884381554234942
 20
16.564355050759367
 11
27.450542094305444
 21
16.461430620411143
  0
LINE
  8
0
 10
27.450542094305444
 20
16.461430620411143
 11
27.17827553089508
 21
16.512688671529883
  0
LINE
  8
0
 10
27.17827553089508
 20
16.512688671529883
 11
25.926981719722907
 21
18.415188484000865
  0
LINE
  8
0
 10
25.926981719722907
 20
18.415188484000865
 11
25.98775502831419
 21
18.68549030478394
  0
LINE
  8
0
 10
25.98775502831419
 20
18.68549030478394
 11
26.254096929839584
 21
19.04308240039862
  0
LINE
  8
0
 10
26.254096929839584
 20
19.04308240039862
 11
26.658907336446184
 21
19.42490561536908
  0
LINE
  8
0
 10
26.658907336446184
 20
19.42490561536908
 11
27.007571261179226
 21
19.809032200456556
  0
LINE
  8
0
 10
27.007571261179226
 20
19.809032200456556
 11
27.445399217741745
 21
20.373782943204667
  0
LINE
  8
0
 10
27.445399217741745
 20
20.373782943204667
 11
27.945772535453795
 21
21.134356351940852
  0
LINE
  8
0
 10
27.945772535453795
 20
21.134356351940852
 11
28.48032754389154
 21
22.102858622073715
  0
LINE
  8
0
 10
28.48032754389154
 20
22.102858622073715
 11
28.86693610776699
 21
22.953095807323834
  0
LINE
  8
0
 10
28.86693610776699
 20
22.953095807323834
 11
28.285384262107552
 21
23.73425550204209
  0
LINE
  8
0
 10
28.285384262107552
 20
23.73425550204209
 11
27.61707755662597
 21
24.442619225880737
  0
LINE
  8
0
 10
27.61707755662597
 20
24.442619225880737
 11
26.712623512115464
 21
24.20952625260133
  0
LINE
  8
0
 10
26.712623512115464
 20
24.20952625260133
 11
25.666010464591107
 21
23.851270990151733
  0
LINE
  8
0
 10
25.666010464591107
 20
23.851270990151733
 11
24.83010296015813
 21
23.490571653878128
  0
LINE
  8
0
 10
24.83010296015813
 20
23.490571653878128
 11
24.197904023391633
 21
23.1574632250841
  0
LINE
  8
0
 10
24.197904023391633
 20
23.1574632250841
 11
23.759068329111265
 21
22.880799170305192
  0
LINE
  8
0
 10
23.759068329111265
 20
22.880799170305192
 11
23.31275127732115
 21
22.548441648848737
  0
LINE
  8
0
 10
23.31275127732115
 20
22.548441648848737
 11
22.91434202330706
 21
22.348241295026973
  0
LINE
  8
0
 10
22.91434202330706
 20
22.348241295026973
 11
22.637593520258903
 21
22.335328688149048
  0
LINE
  8
0
 10
22.637593520258903
 20
22.335328688149048
 11
20.981281844869216
 21
23.89797816013492
  0
LINE
  8
0
 10
20.981281844869216
 20
23.89797816013492
 11
20.97808111129897
 21
24.17500924983495
  0
LINE
  8
0
 10
20.97808111129897
 20
24.17500924983495
 11
21.154777319897935
 21
24.584385073768182
  0
LINE
  8
0
 10
21.154777319897935
 20
24.584385073768182
 11
21.460621516413735
 21
25.04927189896867
  0
LINE
  8
0
 10
21.460621516413735
 20
25.04927189896867
 11
21.711301473036183
 21
25.503451736840166
  0
LINE
  8
0
 10
21.711301473036183
 20
25.503451736840166
 11
22.00708723607449
 21
26.15394962566541
  0
LINE
  8
0
 10
22.00708723607449
 20
26.15394962566541
 11
22.31857262732997
 21
27.009415708096018
  0
LINE
  8
0
 10
22.31857262732997
 20
27.009415708096018
 11
22.615366641990352
 21
28.075088742924315
  0
LINE
  8
0
 10
22.615366641990352
 20
28.075088742924315
 11
22.795475933177535
 21
28.99156574540279
  0
LINE
  8
0
 10
22.795475933177535
 20
28.99156574540279
 11
22.04945206959604
 21
29.617554094183465
  0
LINE
  8
0
 10
22.04945206959604
 20
29.617554094183465
 11
21.235799740877674
 21
30.152701649361838
  0
LINE
  8
0
 10
21.235799740877674
 20
30.152701649361838
 11
20.40948031118833
 21
29.7173102703228
  0
LINE
  8
0
 10
20.40948031118833
 20
29.7173102703228
 11
19.47369820311071
 21
29.12734624555276
  0
LINE
  8
0
 10
19.47369820311071
 20
29.12734624555276
 11
18.74350568515398
 21
28.583596069575233
  0
LINE
  8
0
 10
18.74350568515398
 20
28.583596069575233
 11
18.205167842905304
 21
28.113671513305448
  0
LINE
  8
0
 10
18.205167842905304
 20
28.113671513305448
 11
17.841964143454426
 21
27.743262498179686
  0
LINE
  8
0
 10
17.841964143454426
 20
27.743262498179686
 11
17.48432454476623
 21
27.31693592120208
  0
LINE
  8
0
 10
17.48432454476623
 20
27.31693592120208
 11
17.142823842675835
 21
27.030252496801243
  0
LINE
  8
0
 10
17.142823842675835
 20
27.030252496801243
 11
16.876512983422884
 21
26.953865353905744
  0
LINE
  8
0
 10
16.876512983422884
 20
26.953865353905744
 11
14.90447563495624
 21
28.092421647895005
  0
LINE
  8
0
 10
14.90447563495624
 20
28.092421647895005
 11
14.837473411599722
 21
28.361247188759442
  0
LINE
  8
0
 10
14.837473411599722
 20
28.361247188759442
 11
14.914998188930582
 21
28.800337184380002
  0
LINE
  8
0
 10
14.914998188930582
 20
28.800337184380002
 11
15.105388035556585
 21
29.323225450732487
  0
LINE
  8
0
 10
15.105388035556585
 20
29.323225450732487
 11
15.244569802720838
 21
29.82297358876829
  0
LINE
  8
0
 10
15.244569802720838
 20
29.82297358876829
 11
15.382367485188249
 21
30.52415011410899
  0
LINE
  8
0
 10
15.382367485188249
 20
30.52415011410899
 11
15.488172691919585
 21
31.428390472301047
  0
LINE
  8
0
 10
15.488172691919585
 20
31.428390472301047
 11
15.531205470649994
 21
32.533783562678
  0
LINE
  8
0
 10
15.531205470649994
 20
32.533783562678
 11
15.495105750641454
 21
33.46709286995999
  0
LINE
  8
0
 10
15.495105750641454
 20
33.46709286995999
 11
14.62482820872467
 21
33.904162678889264
  0
LINE
  8
0
 10
14.62482820872467
 20
33.904162678889264
 11
13.70969446441679
 21
34.237244122189914
  0
LINE
  8
0
 10
13.70969446441679
 20
34.237244122189914
 11
13.006056743887966
 21
33.6230263993321
  0
LINE
  8
0
 10
13.006056743887966
 20
33.6230263993321
 11
12.23155383092172
 21
32.833158725523475
  0
LINE
  8
0
 10
12.23155383092172
 20
32.833158725523475
 11
11.646441167087568
 21
32.135671422573445
  0
LINE
  8
0
 10
11.646441167087568
 20
32.135671422573445
 11
11.230986351775892
 21
31.554264493291857
  0
LINE
  8
0
 10
11.230986351775892
 20
31.554264493291857
 11
10.962995052603679
 21
31.110079363701466
  0
LINE
  8
0
 10
10.962995052603679
 20
31.110079363701466
 11
10.713313350354236
 21
30.6127671073181
  0
LINE
  8
0
 10
10.713313350354236
 20
30.6127671073181
 11
10.447131591431392
 21
30.255055789952873
  0
LINE
  8
0
 10
10.447131591431392
 20
30.255055789952873
 11
10.205615263327978
 21
30.119312161685375
  0
LINE
  8
0
 10
10.205615263327978
 20
30.119312161685375
 11
8.024165285683056
 21
30.77239541316475
  0
LINE
  8
0
 10
8.024165285683056
 20
30.77239541316475
 11
7.896973679744291
 21
31.018522950702696
  0
LINE
  8
0
 10
7.896973679744291
 20
31.018522950702696
 11
7.871147644994598
 21
31.463655662692467
  0
LINE
  8
0
 10
7.871147644994598
 20
31.463655662692467
 11
7.935819175818628
 21
32.01635632841331
  0
LINE
  8
0
 10
7.935819175818628
 20
32.01635632841331
 11
7.955999428430998
 21
32.534731215136915
  0
LINE
  8
0
 10
7.955999428430998
 20
32.534731215136915
 11
7.9283803215980955
 21
33.248785769019186
  0
LINE
  8
0
 10
7.9283803215980955
 20
33.248785769019186
 11
7.822801357723744
 21
34.153052571208654
  0
LINE
  8
0
 10
7.822801357723744
 20
34.153052571208654
 11
7.609752992284205
 21
35.23857368951171
  0
LINE
  8
0
 10
7.609752992284205
 20
35.23857368951171
 11
7.359390406329668
 21
36.13840035526353
  0
LINE
  8
0
 10
7.359390406329668
 20
36.13840035526353
 11
6.411776073625259
 21
36.362989077810745
  0
LINE
  8
0
 10
6.411776073625259
 20
36.362989077810745
 11
5.4444960107570415
 21
36.476047902410414
  0
LINE
  8
0
 10
5.4444960107570415
 20
36.476047902410414
 11
4.901473291032285
 21
35.71611647215741
  0
LINE
  8
0
 10
4.901473291032285
 20
35.71611647215741
 11
4.330003225688032
 21
34.76892712005484
  0
LINE
  8
0
 10
4.330003225688032
 20
34.76892712005484
 11
3.921513991134526
 21
33.95530441117223
  0
LINE
  8
0
 10
3.921513991134526
 20
33.95530441117223
 11
3.651339479389776
 21
33.29375890692796
  0
LINE
  8
0
 10
3.651339479389776
 20
33.29375890692796
 11
3.4930080608015612
 21
32.7997437981822
  0
LINE
  8
0
 10
3.4930080608015612
 20
32.7997437981822
 11
3.364744660186841
 21
32.25825609485918
  0
LINE
  8
0
 10
3.364744660186841
 20
32.25825609485918
 11
3.1882317719536597
 21
31.84880119423885
  0
LINE
  8
0
 10
3.1882317719536597
 20
31.84880119423885
 11
2.984530182762005
 21
31.66101905473518
  0
LINE
  8
0
 10
2.984530182762005
 20
31.66101905473518
 11
0.7112701088809215
 21
31.793421376573118
  0
LINE
  8
0
 10
0.7112701088809215
 20
31.793421376573118
 11
0.5307460527583912
 21
32.00358211152816
  0
LINE
  8
0
 10
0.5307460527583912
 20
32.00358211152816
 11
0.4029614941463209
 21
32.430760320165476
  0
LINE
  8
0
 10
0.4029614941463209
 20
32.430760320165476
 11
0.33842825020205036
 21
32.98347714930442
  0
LINE
  8
0
 10
0.33842825020205036
 20
32.98347714930442
 11
0.2385190656207425
 21
33.49253306039623
  0
LINE
  8
0
 10
0.2385190656207425
 20
33.49253306039623
 11
0.04697212268582719
 21
34.18097077699414
  0
LINE
  8
0
 10
0.04697212268582719
 20
34.18097077699414
 11
-0.26429922252364885
 21
35.03651476581425
  0
LINE
  8
0
 10
-0.26429922252364885
 20
35.03651476581425
 11
-0.7219432396067755
 21
36.04364318757902
  0
LINE
  8
0
 10
-0.7219432396067755
 20
36.04364318757902
 11
-1.173071579694561
 21
36.86147732333854
  0
LINE
  8
0
 10
-1.173071579694561
 20
36.86147732333854
 11
-2.146936569229672
 21
36.86147732333853
  0
LINE
  8
0
 10
-2.146936569229672
 20
36.86147732333853
 11
-3.114216632097891
 21
36.748418498738864
  0
LINE
  8
0
 10
-3.114216632097891
 20
36.748418498738864
 11
-3.4673498556420275
 21
35.88374146119654
  0
LINE
  8
0
 10
-3.4673498556420275
 20
35.88374146119654
 11
-3.804978974222068
 21
34.830293653942704
  0
LINE
  8
0
 10
-3.804978974222068
 20
34.830293653942704
 11
-4.0148230191266485
 21
33.94439814996175
  0
LINE
  8
0
 10
-4.0148230191266485
 20
33.94439814996175
 11
-4.125152049444248
 21
33.2383781601233
  0
LINE
  8
0
 10
-4.125152049444248
 20
33.2383781601233
 11
-4.165287899689812
 21
32.7211655546057
  0
LINE
  8
0
 10
-4.165287899689812
 20
32.7211655546057
 11
-4.165218285542928
 21
32.164694146588026
  0
LINE
  8
0
 10
-4.165218285542928
 20
32.164694146588026
 11
-4.242546447593137
 21
31.725569482388487
  0
LINE
  8
0
 10
-4.242546447593137
 20
31.725569482388487
 11
-4.397451692473519
 21
31.495872215394883
  0
LINE
  8
0
 10
-4.397451692473519
 20
31.495872215394883
 11
-6.639969823596395
 21
31.10045576415004
  0
LINE
  8
0
 10
-6.639969823596395
 20
31.10045576415004
 11
-6.864094231310215
 21
31.263319876902674
  0
LINE
  8
0
 10
-6.864094231310215
 20
31.263319876902674
 11
-7.086948415154088
 21
31.649514294388926
  0
LINE
  8
0
 10
-7.086948415154088
 20
31.649514294388926
 11
-7.277207429981814
 21
32.17245017962168
  0
LINE
  8
0
 10
-7.277207429981814
 20
32.17245017962168
 11
-7.491819921755494
 21
32.644743779150524
  0
LINE
  8
0
 10
-7.491819921755494
 20
32.644743779150524
 11
-7.836968355518722
 21
33.27045080296681
  0
LINE
  8
0
 10
-7.836968355518722
 20
33.27045080296681
 11
-8.337151363273495
 21
34.03114938053097
  0
LINE
  8
0
 10
-8.337151363273495
 20
34.03114938053097
 11
-9.01471932458252
 21
34.905590551854644
  0
LINE
  8
0
 10
-9.01471932458252
 20
34.905590551854644
 11
-9.642292973219202
 21
35.59734250767459
  0
LINE
  8
0
 10
-9.642292973219202
 20
35.59734250767459
 11
-10.589907305923592
 21
35.37275378512737
  0
LINE
  8
0
 10
-10.589907305923592
 20
35.37275378512737
 11
-11.505041050231474
 21
35.03967234182673
  0
LINE
  8
0
 10
-11.505041050231474
 20
35.03967234182673
 11
-11.649247274108598
 21
34.11686465990229
  0
LINE
  8
0
 10
-11.649247274108598
 20
34.11686465990229
 11
-11.734833772749736
 21
33.01395004146105
  0
LINE
  8
0
 10
-11.734833772749736
 20
33.01395004146105
 11
-11.734719881228477
 21
32.103540598306864
  0
LINE
  8
0
 10
-11.734719881228477
 20
32.103540598306864
 11
-11.6792555635369
 21
31.391107843272874
  0
LINE
  8
0
 10
-11.6792555635369
 20
31.391107843272874
 11
-11.5990321113643
 21
30.878580806422377
  0
LINE
  8
0
 10
-11.5990321113643
 20
30.878580806422377
 11
-11.470633235372487
 21
30.337125211353552
  0
LINE
  8
0
 10
-11.470633235372487
 20
30.337125211353552
 11
-11.44460789000795
 21
29.89200410788498
  0
LINE
  8
0
 10
-11.44460789000795
 20
29.89200410788498
 11
-11.542365808729828
 21
29.632774752519992
  0
LINE
  8
0
 10
-11.542365808729828
 20
29.632774752519992
 11
-13.633247264191482
 21
28.730856531428707
  0
LINE
  8
0
 10
-13.633247264191482
 20
28.730856531428707
 11
-13.8888894186643
 21
28.837643975504637
  0
LINE
  8
0
 10
-13.8888894186643
 20
28.837643975504637
 11
-14.194799101005293
 21
29.162034760830444
  0
LINE
  8
0
 10
-14.194799101005293
 20
29.162034760830444
 11
-14.500526973980403
 21
29.6269980932272
  0
LINE
  8
0
 10
-14.500526973980403
 20
29.6269980932272
 11
-14.818272957964561
 21
30.037067910993827
  0
LINE
  8
0
 10
-14.818272957964561
 20
30.037067910993827
 11
-15.298415841153586
 21
30.566312214416342
  0
LINE
  8
0
 10
-15.298415841153586
 20
30.566312214416342
 11
-15.960545516038051
 21
31.19115592350858
  0
LINE
  8
0
 10
-15.960545516038051
 20
31.19115592350858
 11
-16.821509557396876
 21
31.88576849450443
  0
LINE
  8
0
 10
-16.821509557396876
 20
31.88576849450443
 11
-17.59169585674307
 21
32.41414574339323
  0
LINE
  8
0
 10
-17.59169585674307
 20
32.41414574339323
 11
-18.461973398659865
 21
31.977075934463933
  0
LINE
  8
0
 10
-18.461973398659865
 20
31.977075934463933
 11
-19.27562572737823
 21
31.441928379285564
  0
LINE
  8
0
 10
-19.27562572737823
 20
31.441928379285564
 11
-19.203130756732733
 21
30.510738853971436
  0
LINE
  8
0
 10
-19.203130756732733
 20
30.510738853971436
 11
-19.032060645139985
 21
29.417815836901752
  0
LINE
  8
0
 10
-19.032060645139985
 20
29.417815836901752
 11
-18.821994957114278
 21
28.531972863305484
  0
LINE
  8
0
 10
-18.821994957114278
 20
28.531972863305484
 11
-18.60372738713668
 21
27.851534777306192
  0
LINE
  8
0
 10
-18.60372738713668
 20
27.851534777306192
 11
-18.4074694996176
 21
27.371323774342084
  0
LINE
  8
0
 10
-18.4074694996176
 20
27.371323774342084
 11
-18.15766337842039
 21
26.87407400350282
  0
LINE
  8
0
 10
-18.15766337842039
 20
26.87407400350282
 11
-18.02968755874612
 21
26.44695305466851
  0
LINE
  8
0
 10
-18.02968755874612
 20
26.44695305466851
 11
-18.065027996607505
 21
26.17216673257888
  0
LINE
  8
0
 10
-18.065027996607505
 20
26.17216673257888
 11
-19.891552815939505
 21
24.812369386393016
  0
LINE
  8
0
 10
-19.891552815939505
 20
24.812369386393016
 11
-20.164930982453182
 21
24.857323223041206
  0
LINE
  8
0
 10
-20.164930982453182
 20
24.857323223041206
 11
-20.537404493134527
 21
25.102422385004232
  0
LINE
  8
0
 10
-20.537404493134527
 20
25.102422385004232
 11
-20.942119355490224
 21
25.48434687096421
  0
LINE
  8
0
 10
-20.942119355490224
 20
25.48434687096421
 11
-21.34586906344279
 21
25.81008593695021
  0
LINE
  8
0
 10
-21.34586906344279
 20
25.81008593695021
 11
-21.935121768944537
 21
26.214335822591657
  0
LINE
  8
0
 10
-21.935121768944537
 20
26.214335822591657
 11
-22.72350252879979
 21
26.669639177120036
  0
LINE
  8
0
 10
-22.72350252879979
 20
26.669639177120036
 11
-23.721447855886527
 21
27.146976404291916
  0
LINE
  8
0
 10
-23.721447855886527
 20
27.146976404291916
 11
-24.59272586318918
 21
27.483493991996625
  0
LINE
  8
0
 10
-24.59272586318918
 20
27.483493991996625
 11
-25.338749726770665
 21
26.857505643215944
  0
LINE
  8
0
 10
-25.338749726770665
 20
26.857505643215944
 11
-26.007056432252252
 21
26.149141919377296
  0
LINE
  8
0
 10
-26.007056432252252
 20
26.149141919377296
 11
-25.72176848971626
 21
25.25977121901258
  0
LINE
  8
0
 10
-25.72176848971626
 20
25.25977121901258
 11
-25.30326420188544
 21
24.235759566057272
  0
LINE
  8
0
 10
-25.30326420188544
 20
24.235759566057272
 11
-24.89457141297023
 21
23.422239086017406
  0
LINE
  8
0
 10
-24.89457141297023
 20
23.422239086017406
 11
-24.52526745190056
 21
22.810478262393858
  0
LINE
  8
0
 10
-24.52526745190056
 20
22.810478262393858
 11
-24.223555442550623
 21
22.388471592783922
  0
LINE
  8
0
 10
-24.223555442550623
 20
22.388471592783922
 11
-23.86580918880166
 21
21.962234510028473
  0
LINE
  8
0
 10
-23.86580918880166
 20
21.962234510028473
 11
-23.6427821043816
 21
21.57613991673622
  0
LINE
  8
0
 10
-23.6427821043816
 20
21.57613991673622
 11
-23.61379984922985
 21
21.300610429671586
  0
LINE
  8
0
 10
-23.61379984922985
 20
21.300610429671586
 11
-25.07749960664368
 21
19.556240985294448
  0
LINE
  8
0
 10
-25.07749960664368
 20
19.556240985294448
 11
-25.35387589748017
 21
19.53693774154533
  0
LINE
  8
0
 10
-25.35387589748017
 20
19.53693774154533
 11
-25.772833093129854
 21
19.689531920882594
  0
LINE
  8
0
 10
-25.772833093129854
 20
19.689531920882594
 11
-26.254716661880003
 21
19.96782791251022
  0
LINE
  8
0
 10
-26.254716661880003
 20
19.96782791251022
 11
-26.722703842538543
 21
20.19167554935387
  0
LINE
  8
0
 10
-26.722703842538543
 20
20.19167554935387
 11
-27.389299604477035
 21
20.449137801243136
  0
LINE
  8
0
 10
-27.389299604477035
 20
20.449137801243136
 11
-28.26142963847453
 21
20.710355279514157
  0
LINE
  8
0
 10
-28.26142963847453
 20
20.710355279514157
 11
-29.342556760397407
 21
20.944683789391096
  0
LINE
  8
0
 10
-29.342556760397407
 20
20.944683789391096
 11
-30.267955652760932
 21
21.071199965654216
  0
LINE
  8
0
 10
-30.267955652760932
 20
21.071199965654216
 11
-30.84950749842034
 21
20.29004027093597
  0
LINE
  8
0
 10
-30.84950749842034
 20
20.29004027093597
 11
-31.336439993187895
 21
19.44664845014231
  0
LINE
  8
0
 10
-31.336439993187895
 20
19.44664845014231
 11
-30.853739025587558
 21
18.64704277938869
  0
LINE
  8
0
 10
-30.853739025587558
 20
18.64704277938869
 11
-30.210362236001426
 21
17.74714722381411
  0
LINE
  8
0
 10
-30.210362236001426
 20
17.74714722381411
 11
-29.625075080233312
 21
17.04980633698152
  0
LINE
  8
0
 10
-29.625075080233312
 20
17.04980633698152
 11
-29.1246440002036
 21
16.53970296008365
  0
LINE
  8
0
 10
-29.1246440002036
 20
16.53970296008365
 11
-28.7337432415421
 21
16.198651112618922
  0
LINE
  8
0
 10
-28.7337432415421
 20
16.198651112618922
 11
-28.28734304838016
 21
15.866405269405984
  0
LINE
  8
0
 10
-28.28734304838016
 20
15.866405269405984
 11
-27.981288147063804
 21
15.542151491117034
  0
LINE
  8
0
 10
-27.981288147063804
 20
15.542151491117034
 11
-27.889545639775932
 21
15.2807327050432
  0
LINE
  8
0
 10
-27.889545639775932
 20
15.2807327050432
 11
-28.91151190248485
 21
13.24583057073436
  0
LINE
  8
0
 10
-28.91151190248485
 20
13.24583057073436
 11
-29.175986800267818
 21
13.163310889454905
  0
LINE
  8
0
 10
-29.175986800267818
 20
13.163310889454905
 11
-29.618841590025344
 21
13.215173694460807
  0
LINE
  8
0
 10
-29.618841590025344
 20
13.215173694460807
 11
-30.15191539724771
 21
13.374838182813201
  0
LINE
  8
0
 10
-30.15191539724771
 20
13.374838182813201
 11
-30.65891074056895
 21
13.484726706471465
  0
LINE
  8
0
 10
-30.65891074056895
 20
13.484726706471465
 11
-31.366913208876202
 21
13.58152146796758
  0
LINE
  8
0
 10
-31.366913208876202
 20
13.58152146796758
 11
-32.27577576114069
 21
13.634570768114026
  0
LINE
  8
0
 10
-32.27577576114069
 20
13.634570768114026
 11
-33.38180083491752
 21
13.613257850074886
  0
LINE
  8
0
 10
-33.38180083491752
 20
13.613257850074886
 11
-34.311432118524024
 21
13.522952095086586
  0
LINE
  8
0
 10
-34.311432118524024
 20
13.522952095086586
 11
-34.697160335732804
 21
12.628733575768662
  0
LINE
  8
0
 10
-34.697160335732804
 20
12.628733575768662
 11
-34.97646796295563
 21
11.695781129382802
  0
LINE
  8
0
 10
-34.97646796295563
 20
11.695781129382802
 11
-34.322376504396765
 21
11.029047436920829
  0
LINE
  8
0
 10
-34.322376504396765
 20
11.029047436920829
 11
-33.48881182231377
 21
10.301781581057282
  0
LINE
  8
0
 10
-33.48881182231377
 20
10.301781581057282
 11
-32.758483281756156
 21
9.75821411514107
  0
LINE
  8
0
 10
-32.758483281756156
 20
9.75821411514107
 11
-32.153903451822565
 21
9.377267990052786
  0
LINE
  8
0
 10
-32.153903451822565
 20
9.377267990052786
 11
-31.694887504929834
 21
9.135557158108059
  0
LINE
  8
0
 10
-31.694887504929834
 20
9.135557158108059
 11
-31.183898922314654
 21
8.915214013843876
  0
LINE
  8
0
 10
-31.183898922314654
 20
8.915214013843876
 11
-30.81131570305133
 21
8.67028165567575
  0
LINE
  8
0
 10
-30.81131570305133
 20
8.67028165567575
 11
-30.661758805941886
 21
8.43706672501569
  0
LINE
  8
0
 10
-30.661758805941886
 20
8.43706672501569
 11
-31.186897108197147
 21
6.221334001550522
  0
LINE
  8
0
 10
-31.186897108197147
 20
6.221334001550522
 11
-31.425212702730335
 21
6.080046540117929
  0
LINE
  8
0
 10
-31.425212702730335
 20
6.080046540117929
 11
-31.86809067025118
 21
6.028382033550413
  0
LINE
  8
0
 10
-31.86809067025118
 20
6.028382033550413
 11
-32.4236165690174
 21
6.060807464732887
  0
LINE
  8
0
 10
-32.4236165690174
 20
6.060807464732887
 11
-32.94228782481204
 21
6.05081275645176
  0
LINE
  8
0
 10
-32.94228782481204
 20
6.05081275645176
 11
-33.653528403162
 21
5.9817217969080785
  0
LINE
  8
0
 10
-33.653528403162
 20
5.9817217969080785
 11
-34.5501264582506
 21
5.8237430174277565
  0
LINE
  8
0
 10
-34.5501264582506
 20
5.8237430174277565
 11
-35.62142338587016
 21
5.547937656400666
  0
LINE
  8
0
 10
-35.62142338587016
 20
5.547937656400666
 11
-36.50517039759432
 21
5.2456783767871356
  0
LINE
  8
0
 10
-36.50517039759432
 20
5.2456783767871356
 11
-36.6742802783207
 21
4.286608584705812
  0
LINE
  8
0
 10
-36.6742802783207
 20
4.286608584705812
 11
-36.73090549151913
 21
3.3143912205981576
  0
LINE
  8
0
 10
-36.73090549151913
 20
3.3143912205981576
 11
-35.94068578183791
 21
2.8164732923660334
  0
LINE
  8
0
 10
-35.94068578183791
 20
2.8164732923660334
 11
-34.961870895029335
 21
2.301044226748879
  0
LINE
  8
0
 10
-34.961870895029335
 20
2.301044226748879
 11
-34.125873170342174
 21
1.9405540445337872
  0
LINE
  8
0
 10
-34.125873170342174
 20
1.9405540445337872
 11
-33.44973764562607
 21
1.7093020754628234
  0
LINE
  8
0
 10
-33.44973764562607
 20
1.7093020754628234
 11
-32.94735217901095
 21
1.5799629525527583
  0
LINE
  8
0
 10
-32.94735217901095
 20
1.5799629525527583
 11
-32.39932273369578
 21
1.4834012631783098
  0
LINE
  8
0
 10
-32.39932273369578
 20
1.4834012631783098
 11
-31.980297254275545
 21
1.3309946919582256
  0
LINE
  8
0
 10
-31.980297254275545
 20
1.3309946919582256
 11
-31.780988618379055
 21
1.138556293989258
  0
LINE
  8
0
 10
-31.780988618379055
 20
1.138556293989258
 11
-31.780988618379098
 21
-1.13855629398919
  0
LINE
  8
0
 10
-31.780988618379098
 20
-1.13855629398919
 11
-31.98029725427553
 21
-1.3309946919581932
  0
LINE
  8
0
 10
-31.98029725427553
 20
-1.3309946919581932
 11
-32.39932273369596
 21
-1.4834012631772155
  0
LINE
  8
0
 10
-32.39932273369596
 20
-1.4834012631772155
 11
-32.94735217901102
 21
-1.5799629525527161
  0
LINE
  8
0
 10
-32.94735217901102
 20
-1.5799629525527161
 11
-33.44973764562613
 21
-1.7093020754627652
  0
LINE
  8
0
 10
-33.44973764562613
 20
-1.7093020754627652
 11
-34.12587317034219
 21
-1.9405540445337157
  0
LINE
  8
0
 10
-34.12587317034219
 20
-1.9405540445337157
 11
-34.96187089502931
 21
-2.3010442267477393
  0
LINE
  8
0
 10
-34.96187089502931
 20
-2.3010442267477393
 11
-35.94068578182875
 21
-2.8164732923602505
  0
LINE
  8
0
 10
-35.94068578182875
 20
-2.8164732923602505
 11
-36.73090549151913
 21
-3.314391220598147
  0
LINE
  8
0
 10
-36.73090549151913
 20
-3.314391220598147
 11
-36.67428027832071
 21
-4.286608584705818
  0
LINE
  8
0
 10
-36.67428027832071
 20
-4.286608584705818
 11
-36.50517039759431
 21
-5.245678376787139
  0
LINE
  8
0
 10
-36.50517039759431
 20
-5.245678376787139
 11
-35.621423385880405
 21
-5.547937656397166
  0
LINE
  8
0
 10
-35.621423385880405
 20
-5.547937656397166
 11
-34.550126458250894
 21
-5.823743017426668
  0
LINE
  8
0
 10
-34.550126458250894
 20
-5.823743017426668
 11
-33.65352840316201
 21
-5.98172179690802
  0
LINE
  8
0
 10
-33.65352840316201
 20
-5.98172179690802
 11
-32.942287824812
 21
-6.050812756451704
  0
LINE
  8
0
 10
-32.942287824812
 20
-6.050812756451704
 11
-32.423616569017334
 21
-6.060807464732843
  0
LINE
  8
0
 10
-32.423616569017334
 20
-6.060807464732843
 11
-31.868090670251256
 21
-6.028382033549319
  0
LINE
  8
0
 10
-31.868090670251256
 20
-6.028382033549319
 11
-31.425212702730352
 21
-6.080046540117912
  0
LINE
  8
0
 10
-31.425212702730352
 20
-6.080046540117912
 11
-31.186897108197122
 21
-6.221334001550458
  0
LINE
  8
0
 10
-31.186897108197122
 20
-6.221334001550458
 11
-30.66175880594194
 21
-8.437066725015645
  0
LINE
  8
0
 10
-30.66175880594194
 20
-8.437066725015645
 11
-30.811315703051324
 21
-8.670281655675728
  0
LINE
  8
0
 10
-30.811315703051324
 20
-8.670281655675728
 11
-31.183898922315084
 21
-8.915214013842867
  0
LINE
  8
0
 10
-31.183898922315084
 20
-8.915214013842867
 11
-31.694887504929913
 21
-9.135557158108048
  0
LINE
  8
0
 10
-31.694887504929913
 20
-9.135557158108048
 11
-32.15390345182263
 21
-9.377267990052754
  0
LINE
  8
0
 10
-32.15390345182263
 20
-9.377267990052754
 11
-32.758483281756185
 21
-9.758214115141017
  0
LINE
  8
0
 10
-32.758483281756185
 20
-9.758214115141017
 11
-33.488811822314005
 21
-10.301781581056181
  0
LINE
  8
0
 10
-33.488811822314005
 20
-10.301781581056181
 11
-34.322376504389176
 21
-11.0290474369131
  0
LINE
  8
0
 10
-34.322376504389176
 20
-11.0290474369131
 11
-34.97646796295564
 21
-11.695781129382805
  0
LINE
  8
0
 10
-34.97646796295564
 20
-11.695781129382805
 11
-34.69716033573281
 21
-12.628733575768665
  0
LINE
  8
0
 10
-34.69716033573281
 20
-12.628733575768665
 11
-34.311432118524024
 21
-13.522952095086586
  0
LINE
  8
0
 10
-34.311432118524024
 20
-13.522952095086586
 11
-33.3818008349283
 21
-13.613257850073843
  0
LINE
  8
0
 10
-33.3818008349283
 20
-13.613257850073843
 11
-32.275775761141226
 21
-13.634570768113036
  0
LINE
  8
0
 10
-32.275775761141226
 20
-13.634570768113036
 11
-31.36691320887622
 21
-13.581521467967521
  0
LINE
  8
0
 10
-31.36691320887622
 20
-13.581521467967521
 11
-30.658910740568928
 21
-13.4847267064714
  0
LINE
  8
0
 10
-30.658910740568928
 20
-13.4847267064714
 11
-30.15191539724766
 21
-13.374838182813145
  0
LINE
  8
0
 10
-30.15191539724766
 20
-13.374838182813145
 11
-29.618841590025667
 21
-13.215173694459759
  0
LINE
  8
0
 10
-29.618841590025667
 20
-13.215173694459759
 11
-29.17598680026784
 21
-13.163310889454893
  0
LINE
  8
0
 10
-29.17598680026784
 20
-13.163310889454893
 11
-28.911511902484843
 21
-13.245830570734293
  0
LINE
  8
0
 10
-28.911511902484843
 20
-13.245830570734293
 11
-27.889545639776
 21
-15.280732705043173
  0
LINE
  8
0
 10
-27.889545639776
 20
-15.280732705043173
 11
-27.981288147063808
 21
-15.54215149111701
  0
LINE
  8
0
 10
-27.981288147063808
 20
-15.54215149111701
 11
-28.287343048380812
 21
-15.8664052694051
  0
LINE
  8
0
 10
-28.287343048380812
 20
-15.8664052694051
 11
-28.733743241542186
 21
-16.19865111261893
  0
LINE
  8
0
 10
-28.733743241542186
 20
-16.19865111261893
 11
-29.124644000203673
 21
-16.53970296008364
  0
LINE
  8
0
 10
-29.124644000203673
 20
-16.53970296008364
 11
-29.625075080233355
 21
-17.049806336981476
  0
LINE
  8
0
 10
-29.625075080233355
 20
-17.049806336981476
 11
-30.210362236001906
 21
-17.747147223813098
  0
LINE
  8
0
 10
-30.210362236001906
 20
-17.747147223813098
 11
-30.853739025581962
 21
-18.64704277937943
  0
LINE
  8
0
 10
-30.853739025581962
 20
-18.64704277937943
 11
-31.336439993187902
 21
-19.446648450142316
  0
LINE
  8
0
 10
-31.336439993187902
 20
-19.446648450142316
 11
-30.84950749842034
 21
-20.290040270935982
  0
LINE
  8
0
 10
-30.84950749842034
 20
-20.290040270935982
 11
-30.26795565276091
 21
-21.07119996565423
  0
LINE
  8
0
 10
-30.26795565276091
 20
-21.07119996565423
 11
-29.342556760408122
 21
-20.94468378939258
  0
LINE
  8
0
 10
-29.342556760408122
 20
-20.94468378939258
 11
-28.26142963847527
 21
-20.710355279513323
  0
LINE
  8
0
 10
-28.26142963847527
 20
-20.710355279513323
 11
-27.38929960447705
 21
-20.449137801243097
  0
LINE
  8
0
 10
-27.38929960447705
 20
-20.449137801243097
 11
-26.722703842538518
 21
-20.191675549353814
  0
LINE
  8
0
 10
-26.722703842538518
 20
-20.191675549353814
 11
-26.254716661879954
 21
-19.96782791251016
  0
LINE
  8
0
 10
-26.254716661879954
 20
-19.96782791251016
 11
-25.772833093130398
 21
-19.689531920881656
  0
LINE
  8
0
 10
-25.772833093130398
 20
-19.689531920881656
 11
-25.35387589748018
 21
-19.536937741545326
  0
LINE
  8
0
 10
-25.35387589748018
 20
-19.536937741545326
 11
-25.077499606643674
 21
-19.55624098529439
  0
LINE
  8
0
 10
-25.077499606643674
 20
-19.55624098529439
 11
-23.61379984922991
 21
-21.30061042967158
  0
LINE
  8
0
 10
-23.61379984922991
 20
-21.30061042967158
 11
-23.642782104381592
 21
-21.576139916736206
  0
LINE
  8
0
 10
-23.642782104381592
 20
-21.576139916736206
 11
-23.865809188802487
 21
-21.96223451002777
  0
LINE
  8
0
 10
-23.865809188802487
 20
-21.96223451002777
 11
-24.22355544255069
 21
-22.38847159278396
  0
LINE
  8
0
 10
-24.22355544255069
 20
-22.38847159278396
 11
-24.52526745190062
 21
-22.810478262393865
  0
LINE
  8
0
 10
-24.52526745190062
 20
-22.810478262393865
 11
-24.89457141297027
 21
-23.422239086017377
  0
LINE
  8
0
 10
-24.89457141297027
 20
-23.422239086017377
 11
-25.30326420188613
 21
-24.235759566056398
  0
LINE
  8
0
 10
-25.30326420188613
 20
-24.235759566056398
 11
-25.72176848971294
 21
-25.259771219002282
  0
LINE
  8
0
 10
-25.72176848971294
 20
-25.259771219002282
 11
-26.00705643225224
 21
-26.149141919377314
  0
LINE
  8
0
 10
-26.00705643225224
 20
-26.149141919377314
 11
-25.338749726770676
 21
-26.85750564321593
  0
LINE
  8
0
 10
-25.338749726770676
 20
-26.85750564321593
 11
-24.592725863189195
 21
-27.483493991996607
  0
LINE
  8
0
 10
-24.592725863189195
 20
-27.483493991996607
 11
-23.72144785589664
 21
-27.14697640429581
  0
LINE
  8
0
 10
-23.72144785589664
 20
-27.14697640429581
 11
-22.72350252880073
 21
-26.669639177119375
  0
LINE
  8
0
 10
-22.72350252880073
 20
-26.669639177119375
 11
-21.93512176894459
 21
-26.214335822591597
  0
LINE
  8
0
 10
-21.93512176894459
 20
-26.214335822591597
 11
-21.34586906344281
 21
-25.810085936950127
  0
LINE
  8
0
 10
-21.34586906344281
 20
-25.810085936950127
 11
-20.942119355490217
 21
-25.484346870964117
  0
LINE
  8
0
 10
-20.942119355490217
 20
-25.484346870964117
 11
-20.5374044931353
 21
-25.10242238500343
  0
LINE
  8
0
 10
-20.5374044931353
 20
-25.10242238500343
 11
-20.16493098245322
 21
-24.857323223041192
  0
LINE
  8
0
 10
-20.16493098245322
 20
-24.857323223041192
 11
-19.891552815939537
 21
-24.812369386392938
  0
LINE
  8
0
 10
-19.891552815939537
 20
-24.812369386392938
 11
-18.06502799660759
 21
-26.17216673257887
  0
LINE
  8
0
 10
-18.06502799660759
 20
-26.17216673257887
 11
-18.029687558746147
 21
-26.44695305466848
  0
LINE
  8
0
 10
-18.029687558746147
 20
-26.44695305466848
 11
-18.157663378421386
 21
-26.87407400350231
  0
LINE
  8
0
 10
-18.157663378421386
 20
-26.87407400350231
 11
-18.407469499617687
 21
-27.37132377434212
  0
LINE
  8
0
 10
-18.407469499617687
 20
-27.37132377434212
 11
-18.603727387136765
 21
-27.851534777306195
  0
LINE
  8
0
 10
-18.603727387136765
 20
-27.851534777306195
 11
-18.82199495711435
 21
-28.53197286330545
  0
LINE
  8
0
 10
-18.82199495711435
 20
-28.53197286330545
 11
-19.03206064514088
 21
-29.417815836901045
  0
LINE
  8
0
 10
-19.03206064514088
 20
-29.417815836901045
 11
-19.203130756731902
 21
-30.51073885396063
  0
LINE
  8
0
 10
-19.203130756731902
 20
-30.51073885396063
 11
-19.27562572737824
 21
-31.441928379285557
  0
LINE
  8
0
 10
-19.27562572737824
 20
-31.441928379285557
 11
-18.46197339865984
 21
-31.97707593446394
  0
LINE
  8
0
 10
-18.46197339865984
 20
-31.97707593446394
 11
-17.59169585674306
 21
-32.414145743393235
  0
LINE
  8
0
 10
-17.59169585674306
 20
-32.414145743393235
 11
-16.821509557405797
 21
-31.885768494510558
  0
LINE
  8
0
 10
-16.821509557405797
 20
-31.885768494510558
 11
-15.960545516039096
 21
-31.191155923508155
  0
LINE
  8
0
 10
-15.960545516039096
 20
-31.191155923508155
 11
-15.298415841153632
 21
-30.566312214416303
  0
LINE
  8
0
 10
-15.298415841153632
 20
-30.566312214416303
 11
-14.818272957964579
 21
-30.037067910993763
  0
LINE
  8
0
 10
-14.818272957964579
 20
-30.037067910993763
 11
-14.5005269739804
 21
-29.626998093227122
  0
LINE
  8
0
 10
-14.5005269739804
 20
-29.626998093227122
 11
-14.194799101006213
 21
-29.16203476082985
  0
LINE
  8
0
 10
-14.194799101006213
 20
-29.16203476082985
 11
-13.888889418664322
 21
-28.837643975504637
  0
LINE
  8
0
 10
-13.888889418664322
 20
-28.837643975504637
 11
-13.633247264191516
 21
-28.730856531428646
  0
LINE
  8
0
 10
-13.633247264191516
 20
-28.730856531428646
 11
-11.542365808729896
 21
-29.63277475252001
  0
LINE
  8
0
 10
-11.542365808729896
 20
-29.63277475252001
 11
-11.444607890007964
 21
-29.89200410788496
  0
LINE
  8
0
 10
-11.444607890007964
 20
-29.89200410788496
 11
-11.470633235373551
 21
-30.337125211353293
  0
LINE
  8
0
 10
-11.470633235373551
 20
-30.337125211353293
 11
-11.599032111364354
 21
-30.878580806422434
  0
LINE
  8
0
 10
-11.599032111364354
 20
-30.878580806422434
 11
-11.679255563536962
 21
-31.39110784327291
  0
LINE
  8
0
 10
-11.679255563536962
 20
-31.39110784327291
 11
-11.734719881228536
 21
-32.10354059830686
  0
LINE
  8
0
 10
-11.734719881228536
 20
-32.10354059830686
 11
-11.734833772750758
 21
-33.013950041460575
  0
LINE
  8
0
 10
-11.734833772750758
 20
-33.013950041460575
 11
-11.649247274110262
 21
-34.1168646598916
  0
LINE
  8
0
 10
-11.649247274110262
 20
-34.1168646598916
 11
-11.50504105023147
 21
-35.03967234182673
  0
LINE
  8
0
 10
-11.50504105023147
 20
-35.03967234182673
 11
-10.589907305923587
 21
-35.37275378512737
  0
LINE
  8
0
 10
-10.589907305923587
 20
-35.37275378512737
 11
-9.642292973219181
 21
-35.59734250767459
  0
LINE
  8
0
 10
-9.642292973219181
 20
-35.59734250767459
 11
-9.014719324589777
 21
-34.90559055186267
  0
LINE
  8
0
 10
-9.014719324589777
 20
-34.90559055186267
 11
-8.337151363274593
 21
-34.031149380530806
  0
LINE
  8
0
 10
-8.337151363274593
 20
-34.031149380530806
 11
-7.836968355518761
 21
-33.27045080296679
  0
LINE
  8
0
 10
-7.836968355518761
 20
-33.27045080296679
 11
-7.491819921755513
 21
-32.64474377915046
  0
LINE
  8
0
 10
-7.491819921755513
 20
-32.64474377915046
 11
-7.277207429981814
 21
-32.172450179621606
  0
LINE
  8
0
 10
-7.277207429981814
 20
-32.172450179621606
 11
-7.0869484151551045
 21
-31.649514294388563
  0
LINE
  8
0
 10
-7.0869484151551045
 20
-31.649514294388563
 11
-6.864094231310222
 21
-31.26331987690269
  0
LINE
  8
0
 10
-6.864094231310222
 20
-31.26331987690269
 11
-6.639969823596427
 21
-31.100455764149995
  0
LINE
  8
0
 10
-6.639969823596427
 20
-31.100455764149995
 11
-4.397451692473566
 21
-31.495872215394918
  0
LINE
  8
0
 10
-4.397451692473566
 20
-31.495872215394918
 11
-4.24254644759314
 21
-31.725569482388476
  0
LINE
  8
0
 10
-4.24254644759314
 20
-31.725569482388476
 11
-4.165218285544009
 21
-32.16469414658802
  0
LINE
  8
0
 10
-4.165218285544009
 20
-32.16469414658802
 11
-4.1652878996898375
 21
-32.72116555460577
  0
LINE
  8
0
 10
-4.1652878996898375
 20
-32.72116555460577
 11
-4.125152049444285
 21
-33.23837816012335
  0
LINE
  8
0
 10
-4.125152049444285
 20
-33.23837816012335
 11
-4.014823019126691
 21
-33.94439814996176
  0
LINE
  8
0
 10
-4.014823019126691
 20
-33.94439814996176
 11
-3.804978974223155
 21
-34.83029365394248
  0
LINE
  8
0
 10
-3.804978974223155
 20
-34.83029365394248
 11
-3.4673498556461
 21
-35.883741461186524
  0
LINE
  8
0
 10
-3.4673498556461
 20
-35.883741461186524
 11
-3.1142166320978704
 21
-36.74841849873888
  0
LINE
  8
0
 10
-3.1142166320978704
 20
-36.74841849873888
 11
-2.1469365692296827
 21
-36.86147732333853
  0
LINE
  8
0
 10
-2.1469365692296827
 20
-36.86147732333853
 11
-1.17307157969458
 21
-36.86147732333853
  0
LINE
  8
0
 10
-1.17307157969458
 20
-36.86147732333853
 11
-0.7219432396120236
 21
-36.0436431875885
  0
LINE
  8
0
 10
-0.7219432396120236
 20
-36.0436431875885
 11
-0.26429922252479227
 21
-35.036514765814346
  0
LINE
  8
0
 10
-0.26429922252479227
 20
-35.036514765814346
 11
0.04697212268574745
 21
-34.18097077699412
  0
LINE
  8
0
 10
0.04697212268574745
 20
-34.18097077699412
 11
0.23851906562067376
 21
-33.49253306039618
  0
LINE
  8
0
 10
0.23851906562067376
 20
-33.49253306039618
 11
0.3384282502019966
 21
-32.98347714930435
  0
LINE
  8
0
 10
0.3384282502019966
 20
-32.98347714930435
 11
0.40296149414521065
 21
-32.430760320165355
  0
LINE
  8
0
 10
0.40296149414521065
 20
-32.430760320165355
 11
0.5307460527583523
 21
-32.003582111528175
  0
LINE
  8
0
 10
0.5307460527583523
 20
-32.003582111528175
 11
0.7112701088808449
 21
-31.793421376573082
  0
LINE
  8
0
 10
0.7112701088808449
 20
-31.793421376573082
 11
2.9845301827619326
 21
-31.661019054735227
  0
LINE
  8
0
 10
2.9845301827619326
 20
-31.661019054735227
 11
3.1882317719536197
 21
-31.848801194238842
  0
LINE
  8
0
 10
3.1882317719536197
 20
-31.848801194238842
 11
3.364744660185752
 21
-32.258256094859426
  0
LINE
  8
0
 10
3.364744660185752
 20
-32.258256094859426
 11
3.4930080608015173
 21
-32.79974379818228
  0
LINE
  8
0
 10
3.4930080608015173
 20
-32.79974379818228
 11
3.6513394793897147
 21
-33.293758906928026
  0
LINE
  8
0
 10
3.6513394793897147
 20
-33.293758906928026
 11
3.9215139911344488
 21
-33.95530441117225
  0
LINE
  8
0
 10
3.9215139911344488
 20
-33.95530441117225
 11
4.330003225686884
 21
-34.76892712005488
  0
LINE
  8
0
 10
4.330003225686884
 20
-34.76892712005488
 11
4.901473291025971
 21
-35.716116472148606
  0
LINE
  8
0
 10
4.901473291025971
 20
-35.716116472148606
 11
5.444496010757024
 21
-36.47604790241042
  0
LINE
  8
0
 10
5.444496010757024
 20
-36.47604790241042
 11
6.411776073625276
 21
-36.36298907781074
  0
LINE
  8
0
 10
6.411776073625276
 20
-36.36298907781074
 11
7.359390406329679
 21
-36.13840035526353
  0
LINE
  8
0
 10
7.359390406329679
 20
-36.13840035526353
 11
7.609752992281317
 21
-35.23857368952214
  0
LINE
  8
0
 10
7.609752992281317
 20
-35.23857368952214
 11
7.822801357722684
 21
-34.153052571209
  0
LINE
  8
0
 10
7.822801357722684
 20
-34.153052571209
 11
7.928380321598045
 21
-33.248785769019186
  0
LINE
  8
0
 10
7.928380321598045
 20
-33.248785769019186
 11
7.955999428430947
 21
-32.53473121513688
  0
LINE
  8
0
 10
7.955999428430947
 20
-32.53473121513688
 11
7.935819175818587
 21
-32.01635632841324
  0
LINE
  8
0
 10
7.935819175818587
 20
-32.01635632841324
 11
7.871147644993519
 21
-31.463655662692602
  0
LINE
  8
0
 10
7.871147644993519
 20
-31.463655662692602
 11
7.896973679744282
 21
-31.01852295070271
  0
LINE
  8
0
 10
7.896973679744282
 20
-31.01852295070271
 11
8.024165285682999
 21
-30.772395413164723
  0
LINE
  8
0
 10
8.024165285682999
 20
-30.772395413164723
 11
10.205615263327944
 21
-30.11931216168543
  0
LINE
  8
0
 10
10.205615263327944
 20
-30.11931216168543
 11
10.44713159143138
 21
-30.255055789952866
  0
LINE
  8
0
 10
10.44713159143138
 20
-30.255055789952866
 11
10.71331335035326
 21
-30.612767107318582
  0
LINE
  8
0
 10
10.71331335035326
 20
-30.612767107318582
 11
10.962995052603679
 21
-31.110079363701544
  0
LINE
  8
0
 10
10.962995052603679
 20
-31.110079363701544
 11
11.230986351775874
 21
-31.554264493291917
  0
LINE
  8
0
 10
11.230986351775874
 20
-31.554264493291917
 11
11.646441167087525
 21
-32.13567142257347
  0
LINE
  8
0
 10
11.646441167087525
 20
-32.13567142257347
 11
12.231553830920642
 21
-32.83315872552376
  0
LINE
  8
0
 10
12.231553830920642
 20
-32.83315872552376
 11
13.00605674387982
 21
-33.623026399324964
  0
LINE
  8
0
 10
13.00605674387982
 20
-33.623026399324964
 11
13.709694464416804
 21
-34.237244122189914
  0
LINE
  8
0
 10
13.709694464416804
 20
-34.237244122189914
 11
14.624828208724683
 21
-33.904162678889264
  0
LINE
  8
0
 10
14.624828208724683
 20
-33.904162678889264
 11
15.49510575064147
 21
-33.46709286995998
  0
LINE
  8
0
 10
15.49510575064147
 20
-33.46709286995998
 11
15.531205470649594
 21
-32.53378356268882
  0
LINE
  8
0
 10
15.531205470649594
 20
-32.53378356268882
 11
15.488172691918642
 21
-31.42839047230163
  0
LINE
  8
0
 10
15.488172691918642
 20
-31.42839047230163
 11
15.382367485188206
 21
-30.524150114109005
  0
LINE
  8
0
 10
15.382367485188206
 20
-30.524150114109005
 11
15.244569802720784
 21
-29.822973588768264
  0
LINE
  8
0
 10
15.244569802720784
 20
-29.822973588768264
 11
15.105388035556539
 21
-29.323225450732433
  0
LINE
  8
0
 10
15.105388035556539
 20
-29.323225450732433
 11
14.914998188929568
 21
-28.800337184380382
  0
LINE
  8
0
 10
14.914998188929568
 20
-28.800337184380382
 11
14.837473411599722
 21
-28.361247188759457
  0
LINE
  8
0
 10
14.837473411599722
 20
-28.361247188759457
 11
14.904475634956187
 21
-28.092421647894994
  0
LINE
  8
0
 10
14.904475634956187
 20
-28.092421647894994
 11
16.876512983422867
 21
-26.953865353905805
  0
LINE
  8
0
 10
16.876512983422867
 20
-26.953865353905805
 11
17.14282384267582
 21
-27.03025249680124
  0
LINE
  8
0
 10
17.14282384267582
 20
-27.03025249680124
 11
17.484324544765396
 21
-27.316935921202774
  0
LINE
  8
0
 10
17.484324544765396
 20
-27.316935921202774
 11
17.841964143454447
 21
-27.74326249817976
  0
LINE
  8
0
 10
17.841964143454447
 20
-27.74326249817976
 11
18.205167842905304
 21
-28.113671513305512
  0
LINE
  8
0
 10
18.205167842905304
 20
-28.113671513305512
 11
18.74350568515395
 21
-28.583596069575265
  0
LINE
  8
0
 10
18.74350568515395
 20
-28.583596069575265
 11
19.473698203109738
 21
-29.12734624555329
  0
LINE
  8
0
 10
19.473698203109738
 20
-29.12734624555329
 11
20.409480311178765
 21
-29.717310270317736
  0
LINE
  8
0
 10
20.409480311178765
 20
-29.717310270317736
 11
21.2357997408777
 21
-30.15270164936183
  0
LINE
  8
0
 10
21.2357997408777
 20
-30.15270164936183
 11
22.049452069596033
 21
-29.617554094183472
  0
LINE
  8
0
 10
22.049452069596033
 20
-29.617554094183472
 11
22.795475933177517
 21
-28.991565745402795
  0
LINE
  8
0
 10
22.795475933177517
 20
-28.991565745402795
 11
22.615366641992427
 21
-28.075088742934952
  0
LINE
  8
0
 10
22.615366641992427
 20
-28.075088742934952
 11
22.31857262732916
 21
-27.009415708096824
  0
LINE
  8
0
 10
22.31857262732916
 20
-27.009415708096824
 11
22.007087236074426
 21
-26.153949625665454
  0
LINE
  8
0
 10
22.007087236074426
 20
-26.153949625665454
 11
21.711301473036098
 21
-25.50345173684017
  0
LINE
  8
0
 10
21.711301473036098
 20
-25.50345173684017
 11
21.46062151641365
 21
-25.049271898968644
  0
LINE
  8
0
 10
21.46062151641365
 20
-25.049271898968644
 11
21.154777319897015
 21
-24.5843850737688
  0
LINE
  8
0
 10
21.154777319897015
 20
-24.5843850737688
 11
20.978081111298952
 21
-24.175009249834982
  0
LINE
  8
0
 10
20.978081111298952
 20
-24.175009249834982
 11
20.981281844869134
 21
-23.897978160134937
  0
LINE
  8
0
 10
20.981281844869134
 20
-23.897978160134937
 11
22.637593520258875
 21
-22.335328688149126
  0
LINE
  8
0
 10
22.637593520258875
 20
-22.335328688149126
 11
22.91434202330703
 21
-22.34824129502699
  0
LINE
  8
0
 10
22.91434202330703
 20
-22.34824129502699
 11
23.31275127732048
 21
-22.548441648849625
  0
LINE
  8
0
 10
23.31275127732048
 20
-22.548441648849625
 11
23.75906832911128
 21
-22.88079917030528
  0
LINE
  8
0
 10
23.75906832911128
 20
-22.88079917030528
 11
24.197904023391622
 21
-23.157463225084186
  0
LINE
  8
0
 10
24.197904023391622
 20
-23.157463225084186
 11
24.83010296015808
 21
-23.490571653878188
  0
LINE
  8
0
 10
24.83010296015808
 20
-23.490571653878188
 11
25.666010464590254
 21
-23.851270990152496
  0
LINE
  8
0
 10
25.666010464590254
 20
-23.851270990152496
 11
26.712623512104965
 21
-24.209526252598636
  0
LINE
  8
0
 10
26.712623512104965
 20
-24.209526252598636
 11
27.617077556625958
 21
-24.44261922588075
  0
LINE
  8
0
 10
27.617077556625958
 20
-24.44261922588075
 11
28.28538426210754
 21
-23.734255502042103
  0
LINE
  8
0
 10
28.28538426210754
 20
-23.734255502042103
 11
28.866936107766975
 21
-22.953095807323848
  0
LINE
  8
0
 10
28.866936107766975
 20
-22.953095807323848
 11
28.480327543896017
 21
-22.102858622083588
  0
LINE
  8
0
 10
28.480327543896017
 20
-22.102858622083588
 11
27.945772535453195
 21
-21.13435635194183
  0
LINE
  8
0
 10
27.945772535453195
 20
-21.13435635194183
 11
27.445399217741695
 21
-20.373782943204727
  0
LINE
  8
0
 10
27.445399217741695
 20
-20.373782943204727
 11
27.007571261179148
 21
-19.809032200456585
  0
LINE
  8
0
 10
27.007571261179148
 20
-19.809032200456585
 11
26.658907336446095
 21
-19.42490561536908
  0
LINE
  8
0
 10
26.658907336446095
 20
-19.42490561536908
 11
26.254096929838827
 21
-19.04308240039944
  0
LINE
  8
0
 10
26.254096929838827
 20
-19.04308240039944
 11
25.987755028314176
 21
-18.68549030478398
  0
LINE
  8
0
 10
25.987755028314176
 20
-18.68549030478398
 11
25.926981719722832
 21
-18.415188484000907
  0
LINE
  8
0
 10
25.926981719722832
 20
-18.415188484000907
 11
27.178275530895075
 21
-16.512688671529972
  0
LINE
  8
0
 10
27.178275530895075
 20
-16.512688671529972
 11
27.450542094305415
 21
-16.46143062041117
  0
LINE
  8
0
 10
27.450542094305415
 20
-16.46143062041117
 11
27.88438155423449
 21
-16.564355050760394
  0
LINE
  8
0
 10
27.88438155423449
 20
-16.564355050760394
 11
28.395314991340136
 21
-16.78482603668551
  0
LINE
  8
0
 10
28.395314991340136
 20
-16.78482603668551
 11
28.88612493458293
 21
-16.952830100312614
  0
LINE
  8
0
 10
28.88612493458293
 20
-16.952830100312614
 11
29.57810295754753
 21
-17.13116444001268
  0
LINE
  8
0
 10
29.57810295754753
 20
-17.13116444001268
 11
30.474661458525553
 21
-17.289367542001173
  0
LINE
  8
0
 10
30.474661458525553
 20
-17.289367542001173
 11
31.57568226518874
 21
-17.396600408199614
  0
LINE
  8
0
 10
31.57568226518874
 20
-17.396600408199614
 11
32.509511572882474
 21
-17.414828873196246
  0
LINE
  8
0
 10
32.509511572882474
 20
-17.414828873196246
 11
32.99644406765002
 21
-16.571437052402576
  0
LINE
  8
0
 10
32.99644406765002
 20
-16.571437052402576
 11
33.382172284858804
 21
-15.677218533084659
  0
LINE
  8
0
 10
33.382172284858804
 20
-15.677218533084659
 11
32.80990661605015
 21
-14.939057671803985
  0
LINE
  8
0
 10
32.80990661605015
 20
-14.939057671803985
 11
32.06640861269734
 21
-14.119938374429404
  0
LINE
  8
0
 10
32.06640861269734
 20
-14.119938374429404
 11
31.404122623603694
 21
-13.495260348718675
  0
LINE
  8
0
 10
31.404122623603694
 20
-13.495260348718675
 11
30.847855891982768
 21
-13.046702610769506
  0
LINE
  8
0
 10
30.847855891982768
 20
-13.046702610769506
 11
30.420004561569765
 21
-12.753337642095556
  0
LINE
  8
0
 10
30.420004561569765
 20
-12.753337642095556
 11
29.938051378673325
 21
-12.475162225706386
  0
LINE
  8
0
 10
29.938051378673325
 20
-12.475162225706386
 11
29.596422345073314
 21
-12.188631740843174
  0
LINE
  8
0
 10
29.596422345073314
 20
-12.188631740843174
 11
29.47495129911719
 21
-11.939631230100513
  0
LINE
  8
0
 10
29.47495129911719
 20
-11.939631230100513
 11
30.2537696728263
 21
-9.799845334478478
  0
LINE
  8
0
 10
30.2537696728263
 20
-9.799845334478478
 11
30.506876335691807
 21
-9.687179960166485
  0
LINE
  8
0
 10
30.506876335691807
 20
-9.687179960166485
 11
30.95275760395657
 21
-9.687279784361172
  0
LINE
  8
0
 10
30.95275760395657
 20
-9.687279784361172
 11
31.500762872532505
 21
-9.783978586837735
  0
LINE
  8
0
 10
31.500762872532505
 20
-9.783978586837735
 11
32.01708737365611
 21
-9.834265516756671
  0
LINE
  8
0
 10
32.01708737365611
 20
-9.834265516756671
 11
32.731539768488986
 21
-9.848211716949452
  0
LINE
  8
0
 10
32.731539768488986
 20
-9.848211716949452
 11
33.64041556515963
 21
-9.795389814474587
  0
LINE
  8
0
 10
33.64041556515963
 20
-9.795389814474587
 11
34.73648781429546
 21
-9.645819332852378
  0
LINE
  8
0
 10
34.73648781429546
 20
-9.645819332852378
 11
35.64934940547145
 21
-9.448200588297297
  0
LINE
  8
0
 10
0.3118675362266391
 20
-1.4672214011007085
 11
9.18454765366783e-17
 21
-1.5
  0
LINE
  8
0
 10
9.18454765366783e-17
 20
-1.5
 11
-0.3118675362266384
 21
-1.4672214011007085
  0
LINE
  8
0
 10
-0.3118675362266384
 20
-1.4672214011007085
 11
-0.6101049646137001
 21
-1.3703181864639014
  0
LINE
  8
0
 10
-0.6101049646137001
 20
-1.3703181864639014
 11
-0.8816778784387099
 21
-1.213525491562421
  0
LINE
  8
0
 10
-0.8816778784387099
 20
-1.213525491562421
 11
-1.114717238216091
 21
-1.0036959095382878
  0
LINE
  8
0
 10
-1.114717238216091
 20
-1.0036959095382878
 11
-1.299038105676658
 21
-0.7500000000000003
  0
LINE
  8
0
 10
-1.299038105676658
 20
-0.7500000000000003
 11
-1.4265847744427305
 21
-0.46352549156242095
  0
LINE
  8
0
 10
-1.4265847744427305
 20
-0.46352549156242095
 11
-1.49178284305241
 21
-0.15679269490147957
  0
LINE
  8
0
 10
-1.49178284305241
 20
-0.15679269490147957
 11
-1.4917828430524098
 21
0.15679269490148126
  0
LINE
  8
0
 10
-1.4917828430524098
 20
0.15679269490148126
 11
-1.4265847744427302
 21
0.46352549156242123
  0
LINE
  8
0
 10
-1.4265847744427302
 20
0.46352549156242123
 11
-1.2990381056766576
 21
0.7500000000000006
  0
LINE
  8
0
 10
-1.2990381056766576
 20
0.7500000000000006
 11
-1.114717238216091
 21
1.0036959095382878
  0
LINE
  8
0
 10
-1.114717238216091
 20
1.0036959095382878
 11
-0.8816778784387097
 21
1.2135254915624214
  0
LINE
  8
0
 10
-0.8816778784387097
 20
1.2135254915624214
 11
-0.6101049646137005
 21
1.3703181864639014
  0
LINE
  8
0
 10
-0.6101049646137005
 20
1.3703181864639014
 11
-0.3118675362266387
 21
1.4672214011007085
  0
LINE
  8
0
 10
-0.3118675362266387
 20
1.4672214011007085
 11
7.579792913117722e-16
 21
1.5
  0
LINE
  8
0
 10
7.579792913117722e-16
 20
1.5
 11
0.3118675362266389
 21
1.4672214011007085
  0
LINE
  8
0
 10
0.3118675362266389
 20
1.4672214011007085
 11
0.6101049646136999
 21
1.3703181864639014
  0
LINE
  8
0
 10
0.6101049646136999
 20
1.3703181864639014
 11
0.8816778784387097
 21
1.213525491562421
  0
LINE
  8
0
 10
0.8816778784387097
 20
1.213525491562421
 11
1.1147172382160917
 21
1.003695909538287
  0
LINE
  8
0
 10
1.1147172382160917
 20
1.003695909538287
 11
1.299038105676658
 21
0.7499999999999998
  0
LINE
  8
0
 10
1.299038105676658
 20
0.7499999999999998
 11
1.4265847744427305
 21
0.4635254915624211
  0
LINE
  8
0
 10
1.4265847744427305
 20
0.4635254915624211
 11
1.49178284305241
 21
0.1567926949014801
  0
LINE
  8
0
 10
1.49178284305241
 20
0.1567926949014801
 11
1.4917828430524098
 21
-0.1567926949014801
  0
LINE
  8
0
 10
1.4917828430524098
 20
-0.1567926949014801
 11
1.4265847744427302
 21
-0.46352549156242107
  0
LINE
  8
0
 10
1.4265847744427302
 20
-0.46352549156242107
 11
1.299038105676658
 21
-0.7500000000000001
  0
LINE
  8
0
 10
1.299038105676658
 20
-0.7500000000000001
 11
1.1147172382160913
 21
-1.0036959095382874
  0
LINE
  8
0
 10
1.1147172382160913
 20
-1.0036959095382874
 11
0.8816778784387098
 21
-1.2135254915624212
  0
LINE
  8
0
 10
0.8816778784387098
 20
-1.2135254915624212
 11
0.6101049646137003
 21
-1.3703181864639014
  0
LINE
  8
0
 10
0.6101049646137003
 20
-1.3703181864639014
 11
0.3118675362266391
 21
-1.4672214011007085
  0
ENDSEC
  0
SECTION
  2
OBJECTS
  0
DICTIONARY
  0
ENDSEC
  0
EOF
