0
SECTION
2
HEADER
9
$ACADVER
1
AC1009
9
$INSBASE
10
0.0
20
0.0
30
0.0
9
$EXTMIN
10
0.0
20
0.0
9
$EXTMAX
10
0.0
20
0.0
0
ENDSEC
0
SECTION
2
TABLES
0
TABLE
2
LTYPE
70
1
0
LTYPE
2
CONTINUOUS
70
64
3
Solid line
72
65
73
0
40
0.0
0
ENDTAB
0
TABLE
2
LAYER
70
0
0
ENDTAB
0
TABLE
2
STYLE
70
1
0
STYLE
2
STANDARD
70
0
40
0
41
40
50
50
71
0
42
1
3
ARIAL.TTF
4

0
ENDTAB
0
TABLE
2
VIEW
70
0
0
ENDTAB
0
ENDSEC
0
SECTION
2
BLOCKS
0
ENDSEC
0
SECTION
2
ENTITIES
0
LINE
8
0
10
80.3421187175
20
31.1497492142
11
80.5969840185
21
32.1009194665
0
LINE
8
0
10
80.5969840185
20
32.1009194665
11
80.7510287759
21
33.0735197868
0
LINE
8
0
10
80.7510287759
20
33.0735197868
11
79.9838043706
21
33.6491855115
0
LINE
8
0
10
79.9838043706
20
33.6491855115
11
79.0752783886
21
34.2365262667
0
LINE
8
0
10
79.0752783886
20
34.2365262667
11
78.2822980318
21
34.6739449271
0
LINE
8
0
10
78.2822980318
20
34.6739449271
11
77.6206013762
21
34.9808377441
0
LINE
8
0
10
77.6206013762
20
34.9808377441
11
77.103756301
21
35.1780127796
0
LINE
8
0
10
77.103756301
20
35.1780127796
11
76.5485513859
21
35.3465034748
0
LINE
8
0
10
76.5485513859
20
35.3465034748
11
76.189885329
21
35.5266521494
0
LINE
8
0
10
76.189885329
20
35.5266521494
11
76.0303367451
21
35.7183974526
0
LINE
8
0
10
76.0303367451
20
35.7183974526
11
76.2683598246
21
37.9830357796
0
LINE
8
0
10
76.2683598246
20
37.9830357796
11
76.4642879793
21
38.137418972
0
LINE
8
0
10
76.4642879793
20
38.137418972
11
76.8525713379
21
38.2390600995
0
LINE
8
0
10
76.8525713379
20
38.2390600995
11
77.4306748788
21
38.2884352761
0
LINE
8
0
10
77.4306748788
20
38.2884352761
11
77.9772206442
21
38.3738434306
0
LINE
8
0
10
77.9772206442
20
38.3738434306
11
78.6882642447
21
38.5364554327
0
LINE
8
0
10
78.6882642447
20
38.5364554327
11
79.5548605314
21
38.7994455591
0
LINE
8
0
10
79.5548605314
20
38.7994455591
11
80.5656480504
21
39.1850583365
0
LINE
8
0
10
80.5656480504
20
39.1850583365
11
81.4357943958
21
39.5886294607
0
LINE
8
0
10
81.4357943958
20
39.5886294607
11
81.4873308631
21
40.5720038365
0
LINE
8
0
10
81.4873308631
20
40.5720038365
11
81.4357943958
21
41.5553782122
0
LINE
8
0
10
81.4357943958
20
41.5553782122
11
80.5656480504
21
41.9589493364
0
LINE
8
0
10
80.5656480504
20
41.9589493364
11
79.5548605314
21
42.3445621138
0
LINE
8
0
10
79.5548605314
20
42.3445621138
11
78.6882642447
21
42.6075522402
0
LINE
8
0
10
78.6882642447
20
42.6075522402
11
77.9772206442
21
42.7701642423
0
LINE
8
0
10
77.9772206442
20
42.7701642423
11
77.4306748788
21
42.8555723968
0
LINE
8
0
10
77.4306748788
20
42.8555723968
11
76.8525713379
21
42.9049475734
0
LINE
8
0
10
76.8525713379
20
42.9049475734
11
76.4642879793
21
43.0065887009
0
LINE
8
0
10
76.4642879793
20
43.0065887009
11
76.2683598246
21
43.1609718933
0
LINE
8
0
10
76.2683598246
20
43.1609718933
11
76.0303367451
21
45.4256102203
0
LINE
8
0
10
76.0303367451
20
45.4256102203
11
76.189885329
21
45.6173555235
0
LINE
8
0
10
76.189885329
20
45.6173555235
11
76.5485513859
21
45.7975041981
0
LINE
8
0
10
76.5485513859
20
45.7975041981
11
77.103756301
21
45.9659948933
0
LINE
8
0
10
77.103756301
20
45.9659948933
11
77.6206013762
21
46.1631699288
0
LINE
8
0
10
77.6206013762
20
46.1631699288
11
78.2822980318
21
46.4700627458
0
LINE
8
0
10
78.2822980318
20
46.4700627458
11
79.0752783886
21
46.9074814062
0
LINE
8
0
10
79.0752783886
20
46.9074814062
11
79.9838043706
21
47.4948221614
0
LINE
8
0
10
79.9838043706
20
47.4948221614
11
80.7510287759
21
48.0704878861
0
LINE
8
0
10
80.7510287759
20
48.0704878861
11
80.5969840185
21
49.0430882064
0
LINE
8
0
10
80.5969840185
20
49.0430882064
11
80.3421187175
21
49.9942584587
0
LINE
8
0
10
80.3421187175
20
49.9942584587
11
79.4070800027
21
50.2080969876
0
LINE
8
0
10
79.4070800027
20
50.2080969876
11
78.3382072115
21
50.3751286585
0
LINE
8
0
10
78.3382072115
20
50.3751286585
11
77.4358694111
21
50.4521963204
0
LINE
8
0
10
77.4358694111
20
50.4521963204
11
76.7065548829
21
50.4634205829
0
LINE
8
0
10
76.7065548829
20
50.4634205829
11
76.1541951
21
50.4333291101
0
LINE
8
0
10
76.1541951
20
50.4333291101
11
75.578458832
21
50.3614308359
0
LINE
8
0
10
75.578458832
20
50.3614308359
11
75.1775280178
21
50.3801222114
0
LINE
8
0
10
75.1775280178
20
50.3801222114
11
74.9537832927
21
50.4903960067
0
LINE
8
0
10
74.9537832927
20
50.4903960067
11
74.2501168049
21
52.6560587718
0
LINE
8
0
10
74.2501168049
20
52.6560587718
11
74.3663127793
21
52.8767859959
0
LINE
8
0
10
74.3663127793
20
52.8767859959
11
74.6796861067
21
53.1275688561
0
LINE
8
0
10
74.6796861067
20
53.1275688561
11
75.187727277
21
53.407811218
0
LINE
8
0
10
75.187727277
20
53.407811218
11
75.6522830524
21
53.7081356395
0
LINE
8
0
10
75.6522830524
20
53.7081356395
11
76.235713444
21
54.1458965826
0
LINE
8
0
10
76.235713444
20
54.1458965826
11
76.9204208241
21
54.7386264825
0
LINE
8
0
10
76.9204208241
20
54.7386264825
11
77.6869783241
21
55.502025606
0
LINE
8
0
10
77.6869783241
20
55.502025606
11
78.3177494012
21
56.2246265768
0
LINE
8
0
10
78.3177494012
20
56.2246265768
11
77.9648559142
21
57.1439455407
0
LINE
8
0
10
77.9648559142
20
57.1439455407
11
77.5178006162
21
58.0213409652
0
LINE
8
0
10
77.5178006162
20
58.0213409652
11
76.5587352106
21
58.0361011289
0
LINE
8
0
10
76.5587352106
20
58.0361011289
11
75.4784920173
21
57.9772516078
0
LINE
8
0
10
75.4784920173
20
57.9772516078
11
74.5798491949
21
57.8650285786
0
LINE
8
0
10
74.5798491949
20
57.8650285786
11
73.8641382835
21
57.7243745474
0
LINE
8
0
10
73.8641382835
20
57.7243745474
11
73.3301052561
21
57.580098589
0
LINE
8
0
10
73.3301052561
20
57.580098589
11
72.7818986987
21
57.3900691637
0
LINE
8
0
10
72.7818986987
20
57.3900691637
11
72.3858430292
21
57.3249938843
0
LINE
8
0
10
72.3858430292
20
57.3249938843
11
72.144060452
21
57.3863387885
0
LINE
8
0
10
72.144060452
20
57.3863387885
11
71.005504158
21
59.358376137
0
LINE
8
0
10
71.005504158
20
59.358376137
11
71.0732692011
21
59.5984384431
0
LINE
8
0
10
71.0732692011
20
59.5984384431
11
71.327653881
21
59.9088950745
0
LINE
8
0
10
71.327653881
20
59.9088950745
11
71.7663274695
21
60.2886411672
0
LINE
8
0
10
71.7663274695
20
60.2886411672
11
72.1582906283
21
60.6789893561
0
LINE
8
0
10
72.1582906283
20
60.6789893561
11
72.6379560482
21
61.2284861715
0
LINE
8
0
10
72.6379560482
20
61.2284861715
11
73.1844654536
21
61.9506221701
0
LINE
8
0
10
73.1844654536
20
61.9506221701
11
73.7755522305
21
62.8567154572
0
LINE
8
0
10
73.7755522305
20
62.8567154572
11
74.2423022565
21
63.6946705442
0
LINE
8
0
10
74.2423022565
20
63.6946705442
11
73.7059831788
21
64.5205295014
0
LINE
8
0
10
73.7059831788
20
64.5205295014
11
73.0862763454
21
65.2858037079
0
LINE
8
0
10
73.0862763454
20
65.2858037079
11
72.1451000093
21
65.1008404166
0
LINE
8
0
10
72.1451000093
20
65.1008404166
11
71.1006982251
21
64.8186817099
0
LINE
8
0
10
71.1006982251
20
64.8186817099
11
70.2450253841
21
64.5220726745
0
LINE
8
0
10
70.2450253841
20
64.5220726745
11
69.5741980908
21
64.2356876056
0
LINE
8
0
10
69.5741980908
20
64.2356876056
11
69.0818316248
21
63.9835327134
0
LINE
8
0
10
69.0818316248
20
63.9835327134
11
68.5851140351
21
63.6836773347
0
LINE
8
0
10
68.5851140351
20
63.6836773347
11
68.2112430436
21
63.5376795024
0
LINE
8
0
10
68.2112430436
20
63.5376795024
11
67.961989673
21
63.5474144488
0
LINE
8
0
10
67.961989673
20
63.5474144488
11
66.4383039462
21
65.2396388856
0
LINE
8
0
10
66.4383039462
20
65.2396388856
11
66.4546764007
21
65.4885443991
0
LINE
8
0
10
66.4546764007
20
65.4885443991
11
66.6389546018
21
65.8451063571
0
LINE
8
0
10
66.6389546018
20
65.8451063571
11
66.9890884677
21
66.307759454
0
LINE
8
0
10
66.9890884677
20
66.307759454
11
67.2913283391
21
66.7710713216
0
LINE
8
0
10
67.2913283391
20
66.7710713216
11
67.6462651067
21
67.4082883617
0
LINE
8
0
10
67.6462651067
20
67.4082883617
11
68.0306914539
21
68.2282696506
0
LINE
8
0
10
68.0306914539
20
68.2282696506
11
68.4204741792
21
69.2374564766
0
LINE
8
0
10
68.4204741792
20
69.2374564766
11
68.7028039383
21
70.1541430216
0
LINE
8
0
10
68.7028039383
20
70.1541430216
11
68.006498987
21
70.8504479729
0
LINE
8
0
10
68.006498987
20
70.8504479729
11
67.2412247806
21
71.4701548063
0
LINE
8
0
10
67.2412247806
20
71.4701548063
11
66.3590714362
21
71.0935518433
0
LINE
8
0
10
66.3590714362
20
71.0935518433
11
65.3961564305
21
70.6004156404
0
LINE
8
0
10
65.3961564305
20
70.6004156404
11
64.6208505802
21
70.132383837
0
LINE
8
0
10
64.6208505802
20
70.132383837
11
64.0242252767
21
69.7127841321
0
LINE
8
0
10
64.0242252767
20
69.7127841321
11
63.5950441493
21
69.3637706849
0
LINE
8
0
10
63.5950441493
20
69.3637706849
11
63.1715244694
21
68.9671944717
0
LINE
8
0
10
63.1715244694
20
68.9671944717
11
62.8361781122
21
68.7466548923
0
LINE
8
0
10
62.8361781122
20
68.7466548923
11
62.5903475167
21
68.704354417
0
LINE
8
0
10
62.5903475167
20
68.704354417
11
60.7481247349
21
70.0428076141
0
LINE
8
0
10
60.7481247349
20
70.0428076141
11
60.7123890457
21
70.2896779696
0
LINE
8
0
10
60.7123890457
20
70.2896779696
11
60.8185069265
21
70.6767617857
0
LINE
8
0
10
60.8185069265
20
70.6767617857
11
61.0647985397
21
71.2021017265
0
LINE
8
0
10
61.0647985397
20
71.2021017265
11
61.2641057909
21
71.7181283209
0
LINE
8
0
10
61.2641057909
20
71.7181283209
11
61.4788014664
21
72.4152161432
0
LINE
8
0
10
61.4788014664
20
72.4152161432
11
61.6843434793
21
73.2972056055
0
LINE
8
0
10
61.6843434793
20
73.2972056055
11
61.8557867776
21
74.3653796635
0
LINE
8
0
10
61.8557867776
20
74.3653796635
11
61.9413571045
21
75.3207340657
0
LINE
8
0
10
61.9413571045
20
75.3207340657
11
61.1154981473
21
75.8570531434
0
LINE
8
0
10
61.1154981473
20
75.8570531434
11
60.2381027228
21
76.3041084415
0
LINE
8
0
10
60.2381027228
20
76.3041084415
11
59.4535267044
21
75.7523251635
0
LINE
8
0
10
59.4535267044
20
75.7523251635
11
58.6141824836
21
75.0697638828
0
LINE
8
0
10
58.6141824836
20
75.0697638828
11
57.9531282099
21
74.450764547
0
LINE
8
0
10
57.9531282099
20
74.450764547
11
57.4567802848
21
73.9162887268
0
LINE
8
0
10
57.4567802848
20
73.9162887268
11
57.1095417707
21
73.4856702868
0
LINE
8
0
10
57.1095417707
20
73.4856702868
11
56.7777298429
21
73.0097055227
0
LINE
8
0
10
56.7777298429
20
73.0097055227
11
56.4955643651
21
72.7242628341
0
LINE
8
0
10
56.4955643651
20
72.7242628341
11
56.2639005212
21
72.6317756709
0
LINE
8
0
10
56.2639005212
20
72.6317756709
11
54.1836546599
21
73.5579608009
0
LINE
8
0
10
54.1836546599
20
73.5579608009
11
54.0973726483
21
73.7920065793
0
LINE
8
0
10
54.0973726483
20
73.7920065793
11
54.120692348
21
74.1926948333
0
LINE
8
0
10
54.120692348
20
74.1926948333
11
54.2523775832
21
74.7577617417
0
LINE
8
0
10
54.2523775832
20
74.7577617417
11
54.3400415311
21
75.3039502245
0
LINE
8
0
10
54.3400415311
20
75.3039502245
11
54.4051128831
21
76.0304427463
0
LINE
8
0
10
54.4051128831
20
76.0304427463
11
54.4227873896
21
76.9358932102
0
LINE
8
0
10
54.4227873896
20
76.9358932102
11
54.3683983659
21
78.0163701682
0
LINE
8
0
10
54.3683983659
20
78.0163701682
11
54.2534694268
21
78.9686388559
0
LINE
8
0
10
54.2534694268
20
78.9686388559
11
53.334150463
21
79.3215323429
0
LINE
8
0
10
53.334150463
20
79.3215323429
11
52.3829802107
21
79.5763976438
0
LINE
8
0
10
52.3829802107
20
79.5763976438
11
51.730271255
21
78.8735496277
0
LINE
8
0
10
51.730271255
20
78.8735496277
11
51.0511811892
21
78.0313944726
0
LINE
8
0
10
51.0511811892
20
78.0313944726
11
50.533269736
21
77.2884808456
0
LINE
8
0
10
50.533269736
20
77.2884808456
11
50.1588919754
21
76.6624880681
0
LINE
8
0
10
50.1588919754
20
76.6624880681
11
49.9087720638
21
76.1690847276
0
LINE
8
0
10
49.9087720638
20
76.1690847276
11
49.6831696617
21
75.6345333566
0
LINE
8
0
10
49.6831696617
20
75.6345333566
11
49.4665170486
21
75.296662774
0
LINE
8
0
10
49.4665170486
20
75.296662774
11
49.259144778
21
75.1580310558
0
LINE
8
0
10
49.259144778
20
75.1580310558
11
47.0317925635
21
75.6314693842
0
LINE
8
0
10
47.0317925635
20
75.6314693842
11
46.8987351673
21
75.8424616618
0
LINE
8
0
10
46.8987351673
20
75.8424616618
11
46.8382375032
21
76.2392423544
0
LINE
8
0
10
46.8382375032
20
76.2392423544
11
46.8495610837
21
76.819340095
0
LINE
8
0
10
46.8495610837
20
76.819340095
11
46.8217503931
21
77.3718194086
0
LINE
8
0
10
46.8217503931
20
77.3718194086
11
46.7343534914
21
78.0959654206
0
LINE
8
0
10
46.7343534914
20
78.0959654206
11
46.5633880305
21
78.9853043559
0
LINE
8
0
10
46.5633880305
20
78.9853043559
11
46.2855437463
21
80.0308621862
0
LINE
8
0
10
46.2855437463
20
80.0308621862
11
45.9751384873
21
80.9384264483
0
LINE
8
0
10
45.9751384873
20
80.9384264483
11
45.002538167
21
81.0924712057
0
LINE
8
0
10
45.002538167
20
81.0924712057
11
44.0191637912
21
81.1440076729
0
LINE
8
0
10
44.0191637912
20
81.1440076729
11
43.5268484116
21
80.3208127497
0
LINE
8
0
10
43.5268484116
20
80.3208127497
11
43.0376919953
21
79.3558699415
0
LINE
8
0
10
43.0376919953
20
79.3558699415
11
42.6855585782
21
78.5215109137
0
LINE
8
0
10
42.6855585782
20
78.5215109137
11
42.4495130867
21
77.8313600671
0
LINE
8
0
10
42.4495130867
20
77.8313600671
11
42.3074432181
21
77.2967359197
0
LINE
8
0
10
42.3074432181
20
77.2967359197
11
42.1979102492
21
76.7269604018
0
LINE
8
0
10
42.1979102492
20
76.7269604018
11
42.0562392596
21
76.351428491
0
LINE
8
0
10
42.0562392596
20
76.351428491
11
41.8822217255
21
76.172711089
0
LINE
8
0
10
41.8822217255
20
76.172711089
11
39.6051091375
21
76.172711089
0
LINE
8
0
10
39.6051091375
20
76.172711089
11
39.4310916035
21
76.351428491
0
LINE
8
0
10
39.4310916035
20
76.351428491
11
39.2894206139
21
76.7269604018
0
LINE
8
0
10
39.2894206139
20
76.7269604018
11
39.1798876449
21
77.2967359197
0
LINE
8
0
10
39.1798876449
20
77.2967359197
11
39.0378177763
21
77.8313600671
0
LINE
8
0
10
39.0378177763
20
77.8313600671
11
38.8017722849
21
78.5215109137
0
LINE
8
0
10
38.8017722849
20
78.5215109137
11
38.4496388678
21
79.3558699415
0
LINE
8
0
10
38.4496388678
20
79.3558699415
11
37.9604824515
21
80.3208127497
0
LINE
8
0
10
37.9604824515
20
80.3208127497
11
37.4681670719
21
81.1440076729
0
LINE
8
0
10
37.4681670719
20
81.1440076729
11
36.4847926961
21
81.0924712057
0
LINE
8
0
10
36.4847926961
20
81.0924712057
11
35.5121923757
21
80.9384264483
0
LINE
8
0
10
35.5121923757
20
80.9384264483
11
35.2017871167
21
80.0308621862
0
LINE
8
0
10
35.2017871167
20
80.0308621862
11
34.9239428325
21
78.9853043559
0
LINE
8
0
10
34.9239428325
20
78.9853043559
11
34.7529773717
21
78.0959654206
0
LINE
8
0
10
34.7529773717
20
78.0959654206
11
34.66558047
21
77.3718194086
0
LINE
8
0
10
34.66558047
20
77.3718194086
11
34.6377697793
21
76.819340095
0
LINE
8
0
10
34.6377697793
20
76.819340095
11
34.6490933598
21
76.2392423544
0
LINE
8
0
10
34.6490933598
20
76.2392423544
11
34.5885956958
21
75.8424616618
0
LINE
8
0
10
34.5885956958
20
75.8424616618
11
34.4555382996
21
75.6314693842
0
LINE
8
0
10
34.4555382996
20
75.6314693842
11
32.2281860851
21
75.1580310558
0
LINE
8
0
10
32.2281860851
20
75.1580310558
11
32.0208138144
21
75.296662774
0
LINE
8
0
10
32.0208138144
20
75.296662774
11
31.8041612013
21
75.6345333566
0
LINE
8
0
10
31.8041612013
20
75.6345333566
11
31.5785587992
21
76.1690847276
0
LINE
8
0
10
31.5785587992
20
76.1690847276
11
31.3284388877
21
76.6624880681
0
LINE
8
0
10
31.3284388877
20
76.6624880681
11
30.9540611271
21
77.2884808456
0
LINE
8
0
10
30.9540611271
20
77.2884808456
11
30.4361496738
21
78.0313944726
0
LINE
8
0
10
30.4361496738
20
78.0313944726
11
29.757059608
21
78.8735496277
0
LINE
8
0
10
29.757059608
20
78.8735496277
11
29.1043506523
21
79.5763976438
0
LINE
8
0
10
29.1043506523
20
79.5763976438
11
28.1531804001
21
79.3215323429
0
LINE
8
0
10
28.1531804001
20
79.3215323429
11
27.2338614362
21
78.9686388559
0
LINE
8
0
10
27.2338614362
20
78.9686388559
11
27.1189324971
21
78.0163701682
0
LINE
8
0
10
27.1189324971
20
78.0163701682
11
27.0645434735
21
76.9358932102
0
LINE
8
0
10
27.0645434735
20
76.9358932102
11
27.0822179799
21
76.0304427463
0
LINE
8
0
10
27.0822179799
20
76.0304427463
11
27.1472893319
21
75.3039502245
0
LINE
8
0
10
27.1472893319
20
75.3039502245
11
27.2349532798
21
74.7577617417
0
LINE
8
0
10
27.2349532798
20
74.7577617417
11
27.366638515
21
74.1926948333
0
LINE
8
0
10
27.366638515
20
74.1926948333
11
27.3899582148
21
73.7920065793
0
LINE
8
0
10
27.3899582148
20
73.7920065793
11
27.3036762031
21
73.5579608009
0
LINE
8
0
10
27.3036762031
20
73.5579608009
11
25.2234303418
21
72.6317756709
0
LINE
8
0
10
25.2234303418
20
72.6317756709
11
24.9917664979
21
72.7242628341
0
LINE
8
0
10
24.9917664979
20
72.7242628341
11
24.7096010201
21
73.0097055227
0
LINE
8
0
10
24.7096010201
20
73.0097055227
11
24.3777890924
21
73.4856702868
0
LINE
8
0
10
24.3777890924
20
73.4856702868
11
24.0305505783
21
73.9162887268
0
LINE
8
0
10
24.0305505783
20
73.9162887268
11
23.5342026532
21
74.450764547
0
LINE
8
0
10
23.5342026532
20
74.450764547
11
22.8731483795
21
75.0697638828
0
LINE
8
0
10
22.8731483795
20
75.0697638828
11
22.0338041587
21
75.7523251634
0
LINE
8
0
10
22.0338041587
20
75.7523251634
11
21.2492281403
21
76.3041084415
0
LINE
8
0
10
21.2492281403
20
76.3041084415
11
20.3718327158
21
75.8570531434
0
LINE
8
0
10
20.3718327158
20
75.8570531434
11
19.5459737585
21
75.3207340657
0
LINE
8
0
10
19.5459737585
20
75.3207340657
11
19.6315440855
21
74.3653796635
0
LINE
8
0
10
19.6315440855
20
74.3653796635
11
19.8029873837
21
73.2972056055
0
LINE
8
0
10
19.8029873837
20
73.2972056055
11
20.0085293967
21
72.4152161432
0
LINE
8
0
10
20.0085293967
20
72.4152161432
11
20.2232250721
21
71.7181283209
0
LINE
8
0
10
20.2232250721
20
71.7181283209
11
20.4225323234
21
71.2021017265
0
LINE
8
0
10
20.4225323234
20
71.2021017265
11
20.6688239366
21
70.6767617857
0
LINE
8
0
10
20.6688239366
20
70.6767617857
11
20.7749418173
21
70.2896779696
0
LINE
8
0
10
20.7749418173
20
70.2896779696
11
20.7392061282
21
70.0428076141
0
LINE
8
0
10
20.7392061282
20
70.0428076141
11
18.8969833464
21
68.704354417
0
LINE
8
0
10
18.8969833464
20
68.704354417
11
18.6511527508
21
68.7466548923
0
LINE
8
0
10
18.6511527508
20
68.7466548923
11
18.3158063937
21
68.9671944717
0
LINE
8
0
10
18.3158063937
20
68.9671944717
11
17.8922867138
21
69.3637706849
0
LINE
8
0
10
17.8922867138
20
69.3637706849
11
17.4631055864
21
69.7127841321
0
LINE
8
0
10
17.4631055864
20
69.7127841321
11
16.8664802828
21
70.132383837
0
LINE
8
0
10
16.8664802828
20
70.132383837
11
16.0911744325
21
70.6004156404
0
LINE
8
0
10
16.0911744325
20
70.6004156404
11
15.1282594268
21
71.0935518433
0
LINE
8
0
10
15.1282594268
20
71.0935518433
11
14.2461060825
21
71.4701548063
0
LINE
8
0
10
14.2461060825
20
71.4701548063
11
13.480831876
21
70.8504479729
0
LINE
8
0
10
13.480831876
20
70.8504479729
11
12.7845269247
21
70.1541430216
0
LINE
8
0
10
12.7845269247
20
70.1541430216
11
13.0668566838
21
69.2374564766
0
LINE
8
0
10
13.0668566838
20
69.2374564766
11
13.4566394092
21
68.2282696506
0
LINE
8
0
10
13.4566394092
20
68.2282696506
11
13.8410657564
21
67.4082883617
0
LINE
8
0
10
13.8410657564
20
67.4082883617
11
14.196002524
21
66.7710713216
0
LINE
8
0
10
14.196002524
20
66.7710713216
11
14.4982423954
21
66.307759454
0
LINE
8
0
10
14.4982423954
20
66.307759454
11
14.8483762612
21
65.8451063571
0
LINE
8
0
10
14.8483762612
20
65.8451063571
11
15.0326544624
21
65.4885443991
0
LINE
8
0
10
15.0326544624
20
65.4885443991
11
15.0490269168
21
65.2396388856
0
LINE
8
0
10
15.0490269168
20
65.2396388856
11
13.5253411901
21
63.5474144488
0
LINE
8
0
10
13.5253411901
20
63.5474144488
11
13.2760878195
21
63.5376795024
0
LINE
8
0
10
13.2760878195
20
63.5376795024
11
12.902216828
21
63.6836773347
0
LINE
8
0
10
12.902216828
20
63.6836773347
11
12.4054992382
21
63.9835327134
0
LINE
8
0
10
12.4054992382
20
63.9835327134
11
11.9131327722
21
64.2356876056
0
LINE
8
0
10
11.9131327722
20
64.2356876056
11
11.2423054789
21
64.5220726745
0
LINE
8
0
10
11.2423054789
20
64.5220726745
11
10.386632638
21
64.8186817099
0
LINE
8
0
10
10.386632638
20
64.8186817099
11
9.34223085373
21
65.1008404166
0
LINE
8
0
10
9.34223085373
20
65.1008404166
11
8.4010545177
21
65.2858037079
0
LINE
8
0
10
8.4010545177
20
65.2858037079
11
7.78134768429
21
64.5205295014
0
LINE
8
0
10
7.78134768429
20
64.5205295014
11
7.24502860655
21
63.6946705442
0
LINE
8
0
10
7.24502860655
20
63.6946705442
11
7.71177863253
21
62.8567154572
0
LINE
8
0
10
7.71177863253
20
62.8567154572
11
8.30286540949
21
61.9506221701
0
LINE
8
0
10
8.30286540949
20
61.9506221701
11
8.84937481485
21
61.2284861715
0
LINE
8
0
10
8.84937481485
20
61.2284861715
11
9.32904023474
21
60.6789893561
0
LINE
8
0
10
9.32904023474
20
60.6789893561
11
9.72100339353
21
60.2886411672
0
LINE
8
0
10
9.72100339353
20
60.2886411672
11
10.159676982
21
59.9088950745
0
LINE
8
0
10
10.159676982
20
59.9088950745
11
10.4140616619
21
59.5984384431
0
LINE
8
0
10
10.4140616619
20
59.5984384431
11
10.4818267051
21
59.358376137
0
LINE
8
0
10
10.4818267051
20
59.358376137
11
9.3432704111
21
57.3863387885
0
LINE
8
0
10
9.3432704111
20
57.3863387885
11
9.10148783388
21
57.3249938843
0
LINE
8
0
10
9.10148783388
20
57.3249938843
11
8.70543216438
21
57.3900691637
0
LINE
8
0
10
8.70543216438
20
57.3900691637
11
8.15722560692
21
57.580098589
0
LINE
8
0
10
8.15722560692
20
57.580098589
11
7.62319257956
21
57.7243745474
0
LINE
8
0
10
7.62319257956
20
57.7243745474
11
6.90748166818
21
57.8650285786
0
LINE
8
0
10
6.90748166818
20
57.8650285786
11
6.00883884575
21
57.9772516078
0
LINE
8
0
10
6.00883884575
20
57.9772516078
11
4.92859565248
21
58.0361011289
0
LINE
8
0
10
4.92859565248
20
58.0361011289
11
3.96953024689
21
58.0213409652
0
LINE
8
0
10
3.96953024689
20
58.0213409652
11
3.52247494885
21
57.1439455407
0
LINE
8
0
10
3.52247494885
20
57.1439455407
11
3.1695814619
21
56.2246265768
0
LINE
8
0
10
3.1695814619
20
56.2246265768
11
3.80035253893
21
55.502025606
0
LINE
8
0
10
3.80035253893
20
55.502025606
11
4.56691003899
21
54.7386264825
0
LINE
8
0
10
4.56691003899
20
54.7386264825
11
5.25161741909
21
54.1458965826
0
LINE
8
0
10
5.25161741909
20
54.1458965826
11
5.83504781069
21
53.7081356395
0
LINE
8
0
10
5.83504781069
20
53.7081356395
11
6.29960358602
21
53.407811218
0
LINE
8
0
10
6.29960358602
20
53.407811218
11
6.80764475631
21
53.1275688561
0
LINE
8
0
10
6.80764475631
20
53.1275688561
11
7.12101808376
21
52.8767859959
0
LINE
8
0
10
7.12101808376
20
52.8767859959
11
7.23721405813
21
52.6560587718
0
LINE
8
0
10
7.23721405813
20
52.6560587718
11
6.53354757034
21
50.4903960067
0
LINE
8
0
10
6.53354757034
20
50.4903960067
11
6.30980284529
21
50.3801222114
0
LINE
8
0
10
6.30980284529
20
50.3801222114
11
5.90887203104
21
50.3614308359
0
LINE
8
0
10
5.90887203104
20
50.3614308359
11
5.33313576304
21
50.4333291101
0
LINE
8
0
10
5.33313576304
20
50.4333291101
11
4.78077598016
21
50.4634205829
0
LINE
8
0
10
4.78077598016
20
50.4634205829
11
4.05146145192
21
50.4521963204
0
LINE
8
0
10
4.05146145192
20
50.4521963204
11
3.1491236515
21
50.3751286585
0
LINE
8
0
10
3.1491236515
20
50.3751286585
11
2.08025086035
21
50.2080969876
0
LINE
8
0
10
2.08025086035
20
50.2080969876
11
1.14521214554
21
49.9942584587
0
LINE
8
0
10
1.14521214554
20
49.9942584587
11
0.890346844578
21
49.0430882064
0
LINE
8
0
10
0.890346844578
20
49.0430882064
11
0.73630208718
21
48.0704878861
0
LINE
8
0
10
0.73630208718
20
48.0704878861
11
1.50352649241
21
47.4948221614
0
LINE
8
0
10
1.50352649241
20
47.4948221614
11
2.41205247447
21
46.9074814062
0
LINE
8
0
10
2.41205247447
20
46.9074814062
11
3.2050328312
21
46.4700627458
0
LINE
8
0
10
3.2050328312
20
46.4700627458
11
3.86672948681
21
46.1631699288
0
LINE
8
0
10
3.86672948681
20
46.1631699288
11
4.3835745621
21
45.9659948933
0
LINE
8
0
10
4.3835745621
20
45.9659948933
11
4.93877947719
21
45.7975041981
0
LINE
8
0
10
4.93877947719
20
45.7975041981
11
5.29744553407
21
45.6173555235
0
LINE
8
0
10
5.29744553407
20
45.6173555235
11
5.45699411799
21
45.4256102203
0
LINE
8
0
10
5.45699411799
20
45.4256102203
11
5.21897103848
21
43.1609718933
0
LINE
8
0
10
5.21897103848
20
43.1609718933
11
5.02304288373
21
43.0065887009
0
LINE
8
0
10
5.02304288373
20
43.0065887009
11
4.63475952519
21
42.9049475734
0
LINE
8
0
10
4.63475952519
20
42.9049475734
11
4.05665598424
21
42.8555723968
0
LINE
8
0
10
4.05665598424
20
42.8555723968
11
3.51011021888
21
42.7701642423
0
LINE
8
0
10
3.51011021888
20
42.7701642423
11
2.7990666183
21
42.6075522402
0
LINE
8
0
10
2.7990666183
20
42.6075522402
11
1.93247033167
21
42.3445621138
0
LINE
8
0
10
1.93247033167
20
42.3445621138
11
0.921682812624
21
41.9589493364
0
LINE
8
0
10
0.921682812624
20
41.9589493364
11
0.0515364672393
21
41.5553782122
0
LINE
8
0
10
0.0515364672393
20
41.5553782122
11
0.0
21
40.5720038365
0
LINE
8
0
10
0.0
20
40.5720038365
11
0.0515364672393
21
39.5886294607
0
LINE
8
0
10
0.0515364672393
20
39.5886294607
11
0.921682812616
21
39.1850583365
0
LINE
8
0
10
0.921682812616
20
39.1850583365
11
1.93247033167
21
38.7994455591
0
LINE
8
0
10
1.93247033167
20
38.7994455591
11
2.7990666183
21
38.5364554327
0
LINE
8
0
10
2.7990666183
20
38.5364554327
11
3.51011021888
21
38.3738434306
0
LINE
8
0
10
3.51011021888
20
38.3738434306
11
4.05665598424
21
38.2884352761
0
LINE
8
0
10
4.05665598424
20
38.2884352761
11
4.63475952519
21
38.2390600995
0
LINE
8
0
10
4.63475952519
20
38.2390600995
11
5.02304288373
21
38.137418972
0
LINE
8
0
10
5.02304288373
20
38.137418972
11
5.21897103848
21
37.9830357796
0
LINE
8
0
10
5.21897103848
20
37.9830357796
11
5.45699411799
21
35.7183974526
0
LINE
8
0
10
5.45699411799
20
35.7183974526
11
5.29744553407
21
35.5266521494
0
LINE
8
0
10
5.29744553407
20
35.5266521494
11
4.93877947719
21
35.3465034748
0
LINE
8
0
10
4.93877947719
20
35.3465034748
11
4.3835745621
21
35.1780127796
0
LINE
8
0
10
4.3835745621
20
35.1780127796
11
3.86672948681
21
34.9808377441
0
LINE
8
0
10
3.86672948681
20
34.9808377441
11
3.2050328312
21
34.6739449271
0
LINE
8
0
10
3.2050328312
20
34.6739449271
11
2.41205247447
21
34.2365262667
0
LINE
8
0
10
2.41205247447
20
34.2365262667
11
1.50352649242
21
33.6491855116
0
LINE
8
0
10
1.50352649242
20
33.6491855116
11
0.73630208718
21
33.0735197868
0
LINE
8
0
10
0.73630208718
20
33.0735197868
11
0.890346844578
21
32.1009194665
0
LINE
8
0
10
0.890346844578
20
32.1009194665
11
1.14521214554
21
31.1497492142
0
LINE
8
0
10
1.14521214554
20
31.1497492142
11
2.08025086034
21
30.9359106853
0
LINE
8
0
10
2.08025086034
20
30.9359106853
11
3.1491236515
21
30.7688790144
0
LINE
8
0
10
3.1491236515
20
30.7688790144
11
4.05146145192
21
30.6918113525
0
LINE
8
0
10
4.05146145192
20
30.6918113525
11
4.78077598016
21
30.68058709
0
LINE
8
0
10
4.78077598016
20
30.68058709
11
5.33313576304
21
30.7106785628
0
LINE
8
0
10
5.33313576304
20
30.7106785628
11
5.90887203104
21
30.782576837
0
LINE
8
0
10
5.90887203104
20
30.782576837
11
6.30980284529
21
30.7638854615
0
LINE
8
0
10
6.30980284529
20
30.7638854615
11
6.53354757034
21
30.6536116662
0
LINE
8
0
10
6.53354757034
20
30.6536116662
11
7.23721405813
21
28.4879489011
0
LINE
8
0
10
7.23721405813
20
28.4879489011
11
7.12101808376
21
28.267221677
0
LINE
8
0
10
7.12101808376
20
28.267221677
11
6.80764475631
21
28.0164388168
0
LINE
8
0
10
6.80764475631
20
28.0164388168
11
6.29960358602
21
27.7361964549
0
LINE
8
0
10
6.29960358602
20
27.7361964549
11
5.83504781069
21
27.4358720334
0
LINE
8
0
10
5.83504781069
20
27.4358720334
11
5.25161741909
21
26.9981110903
0
LINE
8
0
10
5.25161741909
20
26.9981110903
11
4.56691003899
21
26.4053811904
0
LINE
8
0
10
4.56691003899
20
26.4053811904
11
3.80035253893
21
25.6419820669
0
LINE
8
0
10
3.80035253893
20
25.6419820669
11
3.1695814619
21
24.9193810961
0
LINE
8
0
10
3.1695814619
20
24.9193810961
11
3.52247494885
21
24.0000621322
0
LINE
8
0
10
3.52247494885
20
24.0000621322
11
3.96953024689
21
23.1226667077
0
LINE
8
0
10
3.96953024689
20
23.1226667077
11
4.92859565247
21
23.107906544
0
LINE
8
0
10
4.92859565247
20
23.107906544
11
6.00883884575
21
23.1667560651
0
LINE
8
0
10
6.00883884575
20
23.1667560651
11
6.90748166818
21
23.2789790943
0
LINE
8
0
10
6.90748166818
20
23.2789790943
11
7.62319257956
21
23.4196331255
0
LINE
8
0
10
7.62319257956
20
23.4196331255
11
8.15722560692
21
23.5639090839
0
LINE
8
0
10
8.15722560692
20
23.5639090839
11
8.70543216438
21
23.7539385092
0
LINE
8
0
10
8.70543216438
20
23.7539385092
11
9.10148783388
21
23.8190137886
0
LINE
8
0
10
9.10148783388
20
23.8190137886
11
9.3432704111
21
23.7576688844
0
LINE
8
0
10
9.3432704111
20
23.7576688844
11
10.4818267051
21
21.7856315359
0
LINE
8
0
10
10.4818267051
20
21.7856315359
11
10.4140616619
21
21.5455692298
0
LINE
8
0
10
10.4140616619
20
21.5455692298
11
10.159676982
21
21.2351125984
0
LINE
8
0
10
10.159676982
20
21.2351125984
11
9.72100339353
21
20.8553665057
0
LINE
8
0
10
9.72100339353
20
20.8553665057
11
9.32904023474
21
20.4650183168
0
LINE
8
0
10
9.32904023474
20
20.4650183168
11
8.84937481485
21
19.9155215014
0
LINE
8
0
10
8.84937481485
20
19.9155215014
11
8.30286540949
21
19.1933855028
0
LINE
8
0
10
8.30286540949
20
19.1933855028
11
7.71177863253
21
18.2872922157
0
LINE
8
0
10
7.71177863253
20
18.2872922157
11
7.24502860655
21
17.4493371287
0
LINE
8
0
10
7.24502860655
20
17.4493371287
11
7.78134768429
21
16.6234781715
0
LINE
8
0
10
7.78134768429
20
16.6234781715
11
8.4010545177
21
15.858203965
0
LINE
8
0
10
8.4010545177
20
15.858203965
11
9.34223085372
21
16.0431672563
0
LINE
8
0
10
9.34223085372
20
16.0431672563
11
10.386632638
21
16.325325963
0
LINE
8
0
10
10.386632638
20
16.325325963
11
11.2423054789
21
16.6219349984
0
LINE
8
0
10
11.2423054789
20
16.6219349984
11
11.9131327722
21
16.9083200673
0
LINE
8
0
10
11.9131327722
20
16.9083200673
11
12.4054992382
21
17.1604749595
0
LINE
8
0
10
12.4054992382
20
17.1604749595
11
12.902216828
21
17.4603303382
0
LINE
8
0
10
12.902216828
20
17.4603303382
11
13.2760878195
21
17.6063281705
0
LINE
8
0
10
13.2760878195
20
17.6063281705
11
13.5253411901
21
17.5965932241
0
LINE
8
0
10
13.5253411901
20
17.5965932241
11
15.0490269168
21
15.9043687873
0
LINE
8
0
10
15.0490269168
20
15.9043687873
11
15.0326544624
21
15.6554632738
0
LINE
8
0
10
15.0326544624
20
15.6554632738
11
14.8483762612
21
15.2989013158
0
LINE
8
0
10
14.8483762612
20
15.2989013158
11
14.4982423954
21
14.8362482189
0
LINE
8
0
10
14.4982423954
20
14.8362482189
11
14.196002524
21
14.3729363513
0
LINE
8
0
10
14.196002524
20
14.3729363513
11
13.8410657564
21
13.7357193112
0
LINE
8
0
10
13.8410657564
20
13.7357193112
11
13.4566394092
21
12.9157380223
0
LINE
8
0
10
13.4566394092
20
12.9157380223
11
13.0668566838
21
11.9065511963
0
LINE
8
0
10
13.0668566838
20
11.9065511963
11
12.7845269247
21
10.9898646513
0
LINE
8
0
10
12.7845269247
20
10.9898646513
11
13.480831876
21
10.2935597
0
LINE
8
0
10
13.480831876
20
10.2935597
11
14.2461060825
21
9.67385286663
0
LINE
8
0
10
14.2461060825
20
9.67385286663
11
15.1282594268
21
10.0504558296
0
LINE
8
0
10
15.1282594268
20
10.0504558296
11
16.0911744325
21
10.5435920325
0
LINE
8
0
10
16.0911744325
20
10.5435920325
11
16.8664802828
21
11.0116238359
0
LINE
8
0
10
16.8664802828
20
11.0116238359
11
17.4631055864
21
11.4312235408
0
LINE
8
0
10
17.4631055864
20
11.4312235408
11
17.8922867138
21
11.780236988
0
LINE
8
0
10
17.8922867138
20
11.780236988
11
18.3158063937
21
12.1768132012
0
LINE
8
0
10
18.3158063937
20
12.1768132012
11
18.6511527508
21
12.3973527806
0
LINE
8
0
10
18.6511527508
20
12.3973527806
11
18.8969833464
21
12.4396532559
0
LINE
8
0
10
18.8969833464
20
12.4396532559
11
20.7392061282
21
11.1012000588
0
LINE
8
0
10
20.7392061282
20
11.1012000588
11
20.7749418173
21
10.8543297033
0
LINE
8
0
10
20.7749418173
20
10.8543297033
11
20.6688239366
21
10.4672458872
0
LINE
8
0
10
20.6688239366
20
10.4672458872
11
20.4225323234
21
9.94190594638
0
LINE
8
0
10
20.4225323234
20
9.94190594638
11
20.2232250721
21
9.42587935203
0
LINE
8
0
10
20.2232250721
20
9.42587935203
11
20.0085293967
21
8.72879152965
0
LINE
8
0
10
20.0085293967
20
8.72879152965
11
19.8029873837
21
7.84680206741
0
LINE
8
0
10
19.8029873837
20
7.84680206741
11
19.6315440855
21
6.77862800939
0
LINE
8
0
10
19.6315440855
20
6.77862800939
11
19.5459737585
21
5.8232736072
0
LINE
8
0
10
19.5459737585
20
5.8232736072
11
20.3718327158
21
5.28695452946
0
LINE
8
0
10
20.3718327158
20
5.28695452946
11
21.2492281403
21
4.83989923141
0
LINE
8
0
10
21.2492281403
20
4.83989923141
11
22.0338041587
21
5.39168250945
0
LINE
8
0
10
22.0338041587
20
5.39168250945
11
22.8731483795
21
6.07424379007
0
LINE
8
0
10
22.8731483795
20
6.07424379007
11
23.5342026532
21
6.69324312593
0
LINE
8
0
10
23.5342026532
20
6.69324312593
11
24.0305505783
21
7.22771894615
0
LINE
8
0
10
24.0305505783
20
7.22771894615
11
24.3777890924
21
7.65833738607
0
LINE
8
0
10
24.3777890924
20
7.65833738607
11
24.7096010201
21
8.13430215024
0
LINE
8
0
10
24.7096010201
20
8.13430215024
11
24.9917664979
21
8.41974483883
0
LINE
8
0
10
24.9917664979
20
8.41974483883
11
25.2234303418
21
8.51223200196
0
LINE
8
0
10
25.2234303418
20
8.51223200196
11
27.3036762031
21
7.58604687202
0
LINE
8
0
10
27.3036762031
20
7.58604687202
11
27.3899582148
21
7.35200109362
0
LINE
8
0
10
27.3899582148
20
7.35200109362
11
27.366638515
21
6.95131283956
0
LINE
8
0
10
27.366638515
20
6.95131283956
11
27.2349532798
21
6.38624593119
0
LINE
8
0
10
27.2349532798
20
6.38624593119
11
27.1472893319
21
5.84005744841
0
LINE
8
0
10
27.1472893319
20
5.84005744841
11
27.0822179799
21
5.11356492655
0
LINE
8
0
10
27.0822179799
20
5.11356492655
11
27.0645434735
21
4.20811446274
0
LINE
8
0
10
27.0645434735
20
4.20811446274
11
27.1189324971
21
3.1276375047
0
LINE
8
0
10
27.1189324971
20
3.1276375047
11
27.2338614362
21
2.175368817
0
LINE
8
0
10
27.2338614362
20
2.175368817
11
28.1531804001
21
1.82247533005
0
LINE
8
0
10
28.1531804001
20
1.82247533005
11
29.1043506523
21
1.56761002909
0
LINE
8
0
10
29.1043506523
20
1.56761002909
11
29.757059608
21
2.27045804519
0
LINE
8
0
10
29.757059608
20
2.27045804519
11
30.4361496738
21
3.11261320031
0
LINE
8
0
10
30.4361496738
20
3.11261320031
11
30.9540611271
21
3.85552682731
0
LINE
8
0
10
30.9540611271
20
3.85552682731
11
31.3284388877
21
4.48151960485
0
LINE
8
0
10
31.3284388877
20
4.48151960485
11
31.5785587992
21
4.97492294528
0
LINE
8
0
10
31.5785587992
20
4.97492294528
11
31.8041612013
21
5.50947431631
0
LINE
8
0
10
31.8041612013
20
5.50947431631
11
32.0208138144
21
5.84734489888
0
LINE
8
0
10
32.0208138144
20
5.84734489888
11
32.2281860851
21
5.98597661708
0
LINE
8
0
10
32.2281860851
20
5.98597661708
11
34.4555382996
21
5.51253828873
0
LINE
8
0
10
34.4555382996
20
5.51253828873
11
34.5885956958
21
5.30154601106
0
LINE
8
0
10
34.5885956958
20
5.30154601106
11
34.6490933598
21
4.90476531851
0
LINE
8
0
10
34.6490933598
20
4.90476531851
11
34.6377697793
21
4.32466757792
0
LINE
8
0
10
34.6377697793
20
4.32466757792
11
34.66558047
21
3.77218826431
0
LINE
8
0
10
34.66558047
20
3.77218826431
11
34.7529773717
21
3.04804225228
0
LINE
8
0
10
34.7529773717
20
3.04804225228
11
34.9239428325
21
2.15870331701
0
LINE
8
0
10
34.9239428325
20
2.15870331701
11
35.2017871167
21
1.11314548672
0
LINE
8
0
10
35.2017871167
20
1.11314548672
11
35.5121923757
21
0.205581224637
0
LINE
8
0
10
35.5121923757
20
0.205581224637
11
36.4847926961
21
0.0515364672392
0
LINE
8
0
10
36.4847926961
20
0.0515364672392
11
37.4681670719
21
0.0
0
LINE
8
0
10
37.4681670719
20
0.0
11
37.9604824515
21
0.823194923227
0
LINE
8
0
10
37.9604824515
20
0.823194923227
11
38.4496388678
21
1.78813773145
0
LINE
8
0
10
38.4496388678
20
1.78813773145
11
38.8017722849
21
2.62249675919
0
LINE
8
0
10
38.8017722849
20
2.62249675919
11
39.0378177763
21
3.31264760583
0
LINE
8
0
10
39.0378177763
20
3.31264760583
11
39.1798876449
21
3.84727175317
0
LINE
8
0
10
39.1798876449
20
3.84727175317
11
39.2894206139
21
4.41704727109
0
LINE
8
0
10
39.2894206139
20
4.41704727109
11
39.4310916035
21
4.7925791819
0
LINE
8
0
10
39.4310916035
20
4.7925791819
11
39.6051091375
21
4.97129658387
0
LINE
8
0
10
39.6051091375
20
4.97129658387
11
41.8822217255
21
4.97129658387
0
LINE
8
0
10
41.8822217255
20
4.97129658387
11
42.0562392596
21
4.7925791819
0
LINE
8
0
10
42.0562392596
20
4.7925791819
11
42.1979102492
21
4.41704727109
0
LINE
8
0
10
42.1979102492
20
4.41704727109
11
42.3074432181
21
3.84727175317
0
LINE
8
0
10
42.3074432181
20
3.84727175317
11
42.4495130867
21
3.31264760583
0
LINE
8
0
10
42.4495130867
20
3.31264760583
11
42.6855585782
21
2.62249675919
0
LINE
8
0
10
42.6855585782
20
2.62249675919
11
43.0376919953
21
1.78813773145
0
LINE
8
0
10
43.0376919953
20
1.78813773145
11
43.5268484116
21
0.823194923234
0
LINE
8
0
10
43.5268484116
20
0.823194923234
11
44.0191637912
21
7.1054273576e-15
0
LINE
8
0
10
44.0191637912
20
7.1054273576e-15
11
45.002538167
21
0.0515364672392
0
LINE
8
0
10
45.002538167
20
0.0515364672392
11
45.9751384873
21
0.205581224637
0
LINE
8
0
10
45.9751384873
20
0.205581224637
11
46.2855437463
21
1.11314548671
0
LINE
8
0
10
46.2855437463
20
1.11314548671
11
46.5633880305
21
2.15870331701
0
LINE
8
0
10
46.5633880305
20
2.15870331701
11
46.7343534914
21
3.04804225228
0
LINE
8
0
10
46.7343534914
20
3.04804225228
11
46.8217503931
21
3.77218826431
0
LINE
8
0
10
46.8217503931
20
3.77218826431
11
46.8495610837
21
4.32466757792
0
LINE
8
0
10
46.8495610837
20
4.32466757792
11
46.8382375032
21
4.90476531851
0
LINE
8
0
10
46.8382375032
20
4.90476531851
11
46.8987351673
21
5.30154601106
0
LINE
8
0
10
46.8987351673
20
5.30154601106
11
47.0317925635
21
5.51253828873
0
LINE
8
0
10
47.0317925635
20
5.51253828873
11
49.259144778
21
5.98597661708
0
LINE
8
0
10
49.259144778
20
5.98597661708
11
49.4665170486
21
5.84734489888
0
LINE
8
0
10
49.4665170486
20
5.84734489888
11
49.6831696617
21
5.50947431631
0
LINE
8
0
10
49.6831696617
20
5.50947431631
11
49.9087720638
21
4.97492294528
0
LINE
8
0
10
49.9087720638
20
4.97492294528
11
50.1588919754
21
4.48151960485
0
LINE
8
0
10
50.1588919754
20
4.48151960485
11
50.533269736
21
3.85552682731
0
LINE
8
0
10
50.533269736
20
3.85552682731
11
51.0511811892
21
3.11261320031
0
LINE
8
0
10
51.0511811892
20
3.11261320031
11
51.730271255
21
2.2704580452
0
LINE
8
0
10
51.730271255
20
2.2704580452
11
52.3829802107
21
1.56761002909
0
LINE
8
0
10
52.3829802107
20
1.56761002909
11
53.334150463
21
1.82247533005
0
LINE
8
0
10
53.334150463
20
1.82247533005
11
54.2534694268
21
2.175368817
0
LINE
8
0
10
54.2534694268
20
2.175368817
11
54.3683983659
21
3.1276375047
0
LINE
8
0
10
54.3683983659
20
3.1276375047
11
54.4227873896
21
4.20811446274
0
LINE
8
0
10
54.4227873896
20
4.20811446274
11
54.4051128831
21
5.11356492655
0
LINE
8
0
10
54.4051128831
20
5.11356492655
11
54.3400415311
21
5.84005744841
0
LINE
8
0
10
54.3400415311
20
5.84005744841
11
54.2523775832
21
6.38624593119
0
LINE
8
0
10
54.2523775832
20
6.38624593119
11
54.120692348
21
6.95131283956
0
LINE
8
0
10
54.120692348
20
6.95131283956
11
54.0973726483
21
7.35200109362
0
LINE
8
0
10
54.0973726483
20
7.35200109362
11
54.1836546599
21
7.58604687202
0
LINE
8
0
10
54.1836546599
20
7.58604687202
11
56.2639005212
21
8.51223200196
0
LINE
8
0
10
56.2639005212
20
8.51223200196
11
56.4955643651
21
8.41974483883
0
LINE
8
0
10
56.4955643651
20
8.41974483883
11
56.7777298429
21
8.13430215024
0
LINE
8
0
10
56.7777298429
20
8.13430215024
11
57.1095417707
21
7.65833738607
0
LINE
8
0
10
57.1095417707
20
7.65833738607
11
57.4567802848
21
7.22771894615
0
LINE
8
0
10
57.4567802848
20
7.22771894615
11
57.9531282099
21
6.69324312593
0
LINE
8
0
10
57.9531282099
20
6.69324312593
11
58.6141824836
21
6.07424379007
0
LINE
8
0
10
58.6141824836
20
6.07424379007
11
59.4535267044
21
5.39168250945
0
LINE
8
0
10
59.4535267044
20
5.39168250945
11
60.2381027228
21
4.83989923141
0
LINE
8
0
10
60.2381027228
20
4.83989923141
11
61.1154981473
21
5.28695452946
0
LINE
8
0
10
61.1154981473
20
5.28695452946
11
61.9413571045
21
5.8232736072
0
LINE
8
0
10
61.9413571045
20
5.8232736072
11
61.8557867776
21
6.77862800938
0
LINE
8
0
10
61.8557867776
20
6.77862800938
11
61.6843434793
21
7.84680206741
0
LINE
8
0
10
61.6843434793
20
7.84680206741
11
61.4788014664
21
8.72879152965
0
LINE
8
0
10
61.4788014664
20
8.72879152965
11
61.2641057909
21
9.42587935203
0
LINE
8
0
10
61.2641057909
20
9.42587935203
11
61.0647985397
21
9.94190594638
0
LINE
8
0
10
61.0647985397
20
9.94190594638
11
60.8185069265
21
10.4672458872
0
LINE
8
0
10
60.8185069265
20
10.4672458872
11
60.7123890457
21
10.8543297033
0
LINE
8
0
10
60.7123890457
20
10.8543297033
11
60.7481247349
21
11.1012000588
0
LINE
8
0
10
60.7481247349
20
11.1012000588
11
62.5903475167
21
12.4396532559
0
LINE
8
0
10
62.5903475167
20
12.4396532559
11
62.8361781122
21
12.3973527806
0
LINE
8
0
10
62.8361781122
20
12.3973527806
11
63.1715244694
21
12.1768132012
0
LINE
8
0
10
63.1715244694
20
12.1768132012
11
63.5950441493
21
11.780236988
0
LINE
8
0
10
63.5950441493
20
11.780236988
11
64.0242252767
21
11.4312235408
0
LINE
8
0
10
64.0242252767
20
11.4312235408
11
64.6208505802
21
11.0116238359
0
LINE
8
0
10
64.6208505802
20
11.0116238359
11
65.3961564305
21
10.5435920325
0
LINE
8
0
10
65.3961564305
20
10.5435920325
11
66.3590714362
21
10.0504558296
0
LINE
8
0
10
66.3590714362
20
10.0504558296
11
67.2412247806
21
9.67385286663
0
LINE
8
0
10
67.2412247806
20
9.67385286663
11
68.006498987
21
10.2935597
0
LINE
8
0
10
68.006498987
20
10.2935597
11
68.7028039383
21
10.9898646513
0
LINE
8
0
10
68.7028039383
20
10.9898646513
11
68.4204741792
21
11.9065511963
0
LINE
8
0
10
68.4204741792
20
11.9065511963
11
68.0306914539
21
12.9157380223
0
LINE
8
0
10
68.0306914539
20
12.9157380223
11
67.6462651067
21
13.7357193112
0
LINE
8
0
10
67.6462651067
20
13.7357193112
11
67.2913283391
21
14.3729363513
0
LINE
8
0
10
67.2913283391
20
14.3729363513
11
66.9890884677
21
14.8362482189
0
LINE
8
0
10
66.9890884677
20
14.8362482189
11
66.6389546018
21
15.2989013158
0
LINE
8
0
10
66.6389546018
20
15.2989013158
11
66.4546764007
21
15.6554632738
0
LINE
8
0
10
66.4546764007
20
15.6554632738
11
66.4383039462
21
15.9043687873
0
LINE
8
0
10
66.4383039462
20
15.9043687873
11
67.961989673
21
17.5965932241
0
LINE
8
0
10
67.961989673
20
17.5965932241
11
68.2112430436
21
17.6063281705
0
LINE
8
0
10
68.2112430436
20
17.6063281705
11
68.5851140351
21
17.4603303382
0
LINE
8
0
10
68.5851140351
20
17.4603303382
11
69.0818316248
21
17.1604749595
0
LINE
8
0
10
69.0818316248
20
17.1604749595
11
69.5741980908
21
16.9083200673
0
LINE
8
0
10
69.5741980908
20
16.9083200673
11
70.2450253841
21
16.6219349984
0
LINE
8
0
10
70.2450253841
20
16.6219349984
11
71.1006982251
21
16.325325963
0
LINE
8
0
10
71.1006982251
20
16.325325963
11
72.1451000093
21
16.0431672563
0
LINE
8
0
10
72.1451000093
20
16.0431672563
11
73.0862763454
21
15.858203965
0
LINE
8
0
10
73.0862763454
20
15.858203965
11
73.7059831788
21
16.6234781715
0
LINE
8
0
10
73.7059831788
20
16.6234781715
11
74.2423022565
21
17.4493371287
0
LINE
8
0
10
74.2423022565
20
17.4493371287
11
73.7755522305
21
18.2872922157
0
LINE
8
0
10
73.7755522305
20
18.2872922157
11
73.1844654536
21
19.1933855028
0
LINE
8
0
10
73.1844654536
20
19.1933855028
11
72.6379560482
21
19.9155215014
0
LINE
8
0
10
72.6379560482
20
19.9155215014
11
72.1582906283
21
20.4650183168
0
LINE
8
0
10
72.1582906283
20
20.4650183168
11
71.7663274695
21
20.8553665057
0
LINE
8
0
10
71.7663274695
20
20.8553665057
11
71.327653881
21
21.2351125984
0
LINE
8
0
10
71.327653881
20
21.2351125984
11
71.0732692011
21
21.5455692298
0
LINE
8
0
10
71.0732692011
20
21.5455692298
11
71.005504158
21
21.7856315359
0
LINE
8
0
10
71.005504158
20
21.7856315359
11
72.144060452
21
23.7576688844
0
LINE
8
0
10
72.144060452
20
23.7576688844
11
72.3858430292
21
23.8190137886
0
LINE
8
0
10
72.3858430292
20
23.8190137886
11
72.7818986987
21
23.7539385092
0
LINE
8
0
10
72.7818986987
20
23.7539385092
11
73.3301052561
21
23.5639090839
0
LINE
8
0
10
73.3301052561
20
23.5639090839
11
73.8641382835
21
23.4196331255
0
LINE
8
0
10
73.8641382835
20
23.4196331255
11
74.5798491949
21
23.2789790943
0
LINE
8
0
10
74.5798491949
20
23.2789790943
11
75.4784920173
21
23.1667560651
0
LINE
8
0
10
75.4784920173
20
23.1667560651
11
76.5587352106
21
23.107906544
0
LINE
8
0
10
76.5587352106
20
23.107906544
11
77.5178006162
21
23.1226667077
0
LINE
8
0
10
77.5178006162
20
23.1226667077
11
77.9648559142
21
24.0000621322
0
LINE
8
0
10
77.9648559142
20
24.0000621322
11
78.3177494012
21
24.9193810961
0
LINE
8
0
10
78.3177494012
20
24.9193810961
11
77.6869783241
21
25.6419820669
0
LINE
8
0
10
77.6869783241
20
25.6419820669
11
76.9204208241
21
26.4053811904
0
LINE
8
0
10
76.9204208241
20
26.4053811904
11
76.235713444
21
26.9981110903
0
LINE
8
0
10
76.235713444
20
26.9981110903
11
75.6522830524
21
27.4358720334
0
LINE
8
0
10
75.6522830524
20
27.4358720334
11
75.187727277
21
27.7361964549
0
LINE
8
0
10
75.187727277
20
27.7361964549
11
74.6796861067
21
28.0164388168
0
LINE
8
0
10
74.6796861067
20
28.0164388168
11
74.3663127793
21
28.267221677
0
LINE
8
0
10
74.3663127793
20
28.267221677
11
74.2501168049
21
28.4879489011
0
LINE
8
0
10
74.2501168049
20
28.4879489011
11
74.9537832927
21
30.6536116662
0
LINE
8
0
10
74.9537832927
20
30.6536116662
11
75.1775280178
21
30.7638854615
0
LINE
8
0
10
75.1775280178
20
30.7638854615
11
75.578458832
21
30.782576837
0
LINE
8
0
10
75.578458832
20
30.782576837
11
76.1541951
21
30.7106785628
0
LINE
8
0
10
76.1541951
20
30.7106785628
11
76.7065548829
21
30.68058709
0
LINE
8
0
10
76.7065548829
20
30.68058709
11
77.4358694111
21
30.6918113525
0
LINE
8
0
10
77.4358694111
20
30.6918113525
11
78.3382072116
21
30.7688790144
0
LINE
8
0
10
78.3382072116
20
30.7688790144
11
79.4070800027
21
30.9359106853
0
LINE
8
0
10
79.4070800027
20
30.9359106853
11
80.3421187175
21
31.1497492142
0
LINE
8
0
10
41.0555329678
20
39.1047824353
11
40.7436654315
21
39.0720038365
0
LINE
8
0
10
40.7436654315
20
39.0720038365
11
40.4317978953
21
39.1047824353
0
LINE
8
0
10
40.4317978953
20
39.1047824353
11
40.1335604669
21
39.20168565
0
LINE
8
0
10
40.1335604669
20
39.20168565
11
39.8619875531
21
39.3584783449
0
LINE
8
0
10
39.8619875531
20
39.3584783449
11
39.6289481933
21
39.5683079269
0
LINE
8
0
10
39.6289481933
20
39.5683079269
11
39.4446273258
21
39.8220038365
0
LINE
8
0
10
39.4446273258
20
39.8220038365
11
39.3170806571
21
40.1084783449
0
LINE
8
0
10
39.3170806571
20
40.1084783449
11
39.2518825885
21
40.4152111415
0
LINE
8
0
10
39.2518825885
20
40.4152111415
11
39.2518825885
21
40.7287965314
0
LINE
8
0
10
39.2518825885
20
40.7287965314
11
39.3170806571
21
41.035529328
0
LINE
8
0
10
39.3170806571
20
41.035529328
11
39.4446273258
21
41.3220038365
0
LINE
8
0
10
39.4446273258
20
41.3220038365
11
39.6289481933
21
41.575699746
0
LINE
8
0
10
39.6289481933
20
41.575699746
11
39.8619875531
21
41.785529328
0
LINE
8
0
10
39.8619875531
20
41.785529328
11
40.1335604669
21
41.9423220229
0
LINE
8
0
10
40.1335604669
20
41.9423220229
11
40.4317978953
21
42.0392252376
0
LINE
8
0
10
40.4317978953
20
42.0392252376
11
40.7436654315
21
42.0720038365
0
LINE
8
0
10
40.7436654315
20
42.0720038365
11
41.0555329678
21
42.0392252376
0
LINE
8
0
10
41.0555329678
20
42.0392252376
11
41.3537703961
21
41.9423220229
0
LINE
8
0
10
41.3537703961
20
41.9423220229
11
41.62534331
21
41.785529328
0
LINE
8
0
10
41.62534331
20
41.785529328
11
41.8583826697
21
41.575699746
0
LINE
8
0
10
41.8583826697
20
41.575699746
11
42.0427035372
21
41.3220038365
0
LINE
8
0
10
42.0427035372
20
41.3220038365
11
42.170250206
21
41.035529328
0
LINE
8
0
10
42.170250206
20
41.035529328
11
42.2354482746
21
40.7287965314
0
LINE
8
0
10
42.2354482746
20
40.7287965314
11
42.2354482746
21
40.4152111415
0
LINE
8
0
10
42.2354482746
20
40.4152111415
11
42.170250206
21
40.1084783449
0
LINE
8
0
10
42.170250206
20
40.1084783449
11
42.0427035372
21
39.8220038365
0
LINE
8
0
10
42.0427035372
20
39.8220038365
11
41.8583826697
21
39.5683079269
0
LINE
8
0
10
41.8583826697
20
39.5683079269
11
41.62534331
21
39.3584783449
0
LINE
8
0
10
41.62534331
20
39.3584783449
11
41.3537703961
21
39.20168565
0
LINE
8
0
10
41.3537703961
20
39.20168565
11
41.0555329678
21
39.1047824353
0
LINE
8
0
10
123.585784149
20
112.293756887
11
123.84064945
21
113.244927139
0
LINE
8
0
10
123.84064945
20
113.244927139
11
123.994694207
21
114.21752746
0
LINE
8
0
10
123.994694207
20
114.21752746
11
123.227469802
21
114.793193184
0
LINE
8
0
10
123.227469802
20
114.793193184
11
122.31894382
21
115.38053394
0
LINE
8
0
10
122.31894382
20
115.38053394
11
121.525963463
21
115.8179526
0
LINE
8
0
10
121.525963463
20
115.8179526
11
120.864266808
21
116.124845417
0
LINE
8
0
10
120.864266808
20
116.124845417
11
120.347421732
21
116.322020452
0
LINE
8
0
10
120.347421732
20
116.322020452
11
119.792216817
21
116.490511148
0
LINE
8
0
10
119.792216817
20
116.490511148
11
119.433550761
21
116.670659822
0
LINE
8
0
10
119.433550761
20
116.670659822
11
119.274002177
21
116.862405126
0
LINE
8
0
10
119.274002177
20
116.862405126
11
119.512025256
21
119.127043452
0
LINE
8
0
10
119.512025256
20
119.127043452
11
119.707953411
21
119.281426645
0
LINE
8
0
10
119.707953411
20
119.281426645
11
120.096236769
21
119.383067772
0
LINE
8
0
10
120.096236769
20
119.383067772
11
120.67434031
21
119.432442949
0
LINE
8
0
10
120.67434031
20
119.432442949
11
121.220886076
21
119.517851103
0
LINE
8
0
10
121.220886076
20
119.517851103
11
121.931929676
21
119.680463106
0
LINE
8
0
10
121.931929676
20
119.680463106
11
122.798525963
21
119.943453232
0
LINE
8
0
10
122.798525963
20
119.943453232
11
123.809313482
21
120.329066009
0
LINE
8
0
10
123.809313482
20
120.329066009
11
124.679459827
21
120.732637134
0
LINE
8
0
10
124.679459827
20
120.732637134
11
124.730996295
21
121.716011509
0
LINE
8
0
10
124.730996295
20
121.716011509
11
124.679459827
21
122.699385885
0
LINE
8
0
10
124.679459827
20
122.699385885
11
123.809313482
21
123.102957009
0
LINE
8
0
10
123.809313482
20
123.102957009
11
122.798525963
21
123.488569787
0
LINE
8
0
10
122.798525963
20
123.488569787
11
121.931929676
21
123.751559913
0
LINE
8
0
10
121.931929676
20
123.751559913
11
121.220886076
21
123.914171915
0
LINE
8
0
10
121.220886076
20
123.914171915
11
120.67434031
21
123.99958007
0
LINE
8
0
10
120.67434031
20
123.99958007
11
120.096236769
21
124.048955246
0
LINE
8
0
10
120.096236769
20
124.048955246
11
119.707953411
21
124.150596374
0
LINE
8
0
10
119.707953411
20
124.150596374
11
119.512025256
21
124.304979566
0
LINE
8
0
10
119.512025256
20
124.304979566
11
119.274002177
21
126.569617893
0
LINE
8
0
10
119.274002177
20
126.569617893
11
119.433550761
21
126.761363196
0
LINE
8
0
10
119.433550761
20
126.761363196
11
119.792216817
21
126.941511871
0
LINE
8
0
10
119.792216817
20
126.941511871
11
120.347421732
21
127.110002566
0
LINE
8
0
10
120.347421732
20
127.110002566
11
120.864266808
21
127.307177602
0
LINE
8
0
10
120.864266808
20
127.307177602
11
121.525963463
21
127.614070419
0
LINE
8
0
10
121.525963463
20
127.614070419
11
122.31894382
21
128.051489079
0
LINE
8
0
10
122.31894382
20
128.051489079
11
123.227469802
21
128.638829834
0
LINE
8
0
10
123.227469802
20
128.638829834
11
123.994694207
21
129.214495559
0
LINE
8
0
10
123.994694207
20
129.214495559
11
123.84064945
21
130.187095879
0
LINE
8
0
10
123.84064945
20
130.187095879
11
123.585784149
21
131.138266132
0
LINE
8
0
10
123.585784149
20
131.138266132
11
122.650745434
21
131.35210466
0
LINE
8
0
10
122.650745434
20
131.35210466
11
121.581872643
21
131.519136331
0
LINE
8
0
10
121.581872643
20
131.519136331
11
120.679534843
21
131.596203993
0
LINE
8
0
10
120.679534843
20
131.596203993
11
119.950220314
21
131.607428256
0
LINE
8
0
10
119.950220314
20
131.607428256
11
119.397860532
21
131.577336783
0
LINE
8
0
10
119.397860532
20
131.577336783
11
118.822124264
21
131.505438509
0
LINE
8
0
10
118.822124264
20
131.505438509
11
118.421193449
21
131.524129884
0
LINE
8
0
10
118.421193449
20
131.524129884
11
118.197448724
21
131.63440368
0
LINE
8
0
10
118.197448724
20
131.63440368
11
117.493782236
21
133.800066445
0
LINE
8
0
10
117.493782236
20
133.800066445
11
117.609978211
21
134.020793669
0
LINE
8
0
10
117.609978211
20
134.020793669
11
117.923351538
21
134.271576529
0
LINE
8
0
10
117.923351538
20
134.271576529
11
118.431392709
21
134.551818891
0
LINE
8
0
10
118.431392709
20
134.551818891
11
118.895948484
21
134.852143312
0
LINE
8
0
10
118.895948484
20
134.852143312
11
119.479378875
21
135.289904255
0
LINE
8
0
10
119.479378875
20
135.289904255
11
120.164086256
21
135.882634155
0
LINE
8
0
10
120.164086256
20
135.882634155
11
120.930643756
21
136.646033279
0
LINE
8
0
10
120.930643756
20
136.646033279
11
121.561414833
21
137.36863425
0
LINE
8
0
10
121.561414833
20
137.36863425
11
121.208521346
21
138.287953214
0
LINE
8
0
10
121.208521346
20
138.287953214
11
120.761466048
21
139.165348638
0
LINE
8
0
10
120.761466048
20
139.165348638
11
119.802400642
21
139.180108802
0
LINE
8
0
10
119.802400642
20
139.180108802
11
118.722157449
21
139.121259281
0
LINE
8
0
10
118.722157449
20
139.121259281
11
117.823514626
21
139.009036252
0
LINE
8
0
10
117.823514626
20
139.009036252
11
117.107803715
21
138.86838222
0
LINE
8
0
10
117.107803715
20
138.86838222
11
116.573770688
21
138.724106262
0
LINE
8
0
10
116.573770688
20
138.724106262
11
116.02556413
21
138.534076837
0
LINE
8
0
10
116.02556413
20
138.534076837
11
115.629508461
21
138.469001557
0
LINE
8
0
10
115.629508461
20
138.469001557
11
115.387725883
21
138.530346461
0
LINE
8
0
10
115.387725883
20
138.530346461
11
114.249169589
21
140.50238381
0
LINE
8
0
10
114.249169589
20
140.50238381
11
114.316934633
21
140.742446116
0
LINE
8
0
10
114.316934633
20
140.742446116
11
114.571319313
21
141.052902747
0
LINE
8
0
10
114.571319313
20
141.052902747
11
115.009992901
21
141.43264884
0
LINE
8
0
10
115.009992901
20
141.43264884
11
115.40195606
21
141.822997029
0
LINE
8
0
10
115.40195606
20
141.822997029
11
115.88162148
21
142.372493844
0
LINE
8
0
10
115.88162148
20
142.372493844
11
116.428130885
21
143.094629843
0
LINE
8
0
10
116.428130885
20
143.094629843
11
117.019217662
21
144.00072313
0
LINE
8
0
10
117.019217662
20
144.00072313
11
117.485967688
21
144.838678217
0
LINE
8
0
10
117.485967688
20
144.838678217
11
116.94964861
21
145.664537174
0
LINE
8
0
10
116.94964861
20
145.664537174
11
116.329941777
21
146.429811381
0
LINE
8
0
10
116.329941777
20
146.429811381
11
115.388765441
21
146.24484809
0
LINE
8
0
10
115.388765441
20
146.24484809
11
114.344363657
21
145.962689383
0
LINE
8
0
10
114.344363657
20
145.962689383
11
113.488690816
21
145.666080347
0
LINE
8
0
10
113.488690816
20
145.666080347
11
112.817863522
21
145.379695278
0
LINE
8
0
10
112.817863522
20
145.379695278
11
112.325497056
21
145.127540386
0
LINE
8
0
10
112.325497056
20
145.127540386
11
111.828779467
21
144.827685008
0
LINE
8
0
10
111.828779467
20
144.827685008
11
111.454908475
21
144.681687175
0
LINE
8
0
10
111.454908475
20
144.681687175
11
111.205655105
21
144.691422122
0
LINE
8
0
10
111.205655105
20
144.691422122
11
109.681969378
21
146.383646558
0
LINE
8
0
10
109.681969378
20
146.383646558
11
109.698341832
21
146.632552072
0
LINE
8
0
10
109.698341832
20
146.632552072
11
109.882620033
21
146.98911403
0
LINE
8
0
10
109.882620033
20
146.98911403
11
110.232753899
21
147.451767127
0
LINE
8
0
10
110.232753899
20
147.451767127
11
110.534993771
21
147.915078994
0
LINE
8
0
10
110.534993771
20
147.915078994
11
110.889930538
21
148.552296035
0
LINE
8
0
10
110.889930538
20
148.552296035
11
111.274356885
21
149.372277323
0
LINE
8
0
10
111.274356885
20
149.372277323
11
111.664139611
21
150.381464149
0
LINE
8
0
10
111.664139611
20
150.381464149
11
111.94646937
21
151.298150694
0
LINE
8
0
10
111.94646937
20
151.298150694
11
111.250164419
21
151.994455646
0
LINE
8
0
10
111.250164419
20
151.994455646
11
110.484890212
21
152.614162479
0
LINE
8
0
10
110.484890212
20
152.614162479
11
109.602736868
21
152.237559516
0
LINE
8
0
10
109.602736868
20
152.237559516
11
108.639821862
21
151.744423313
0
LINE
8
0
10
108.639821862
20
151.744423313
11
107.864516012
21
151.27639151
0
LINE
8
0
10
107.864516012
20
151.27639151
11
107.267890708
21
150.856791805
0
LINE
8
0
10
107.267890708
20
150.856791805
11
106.838709581
21
150.507778358
0
LINE
8
0
10
106.838709581
20
150.507778358
11
106.415189901
21
150.111202145
0
LINE
8
0
10
106.415189901
20
150.111202145
11
106.079843544
21
149.890662565
0
LINE
8
0
10
106.079843544
20
149.890662565
11
105.834012948
21
149.84836209
0
LINE
8
0
10
105.834012948
20
149.84836209
11
103.991790166
21
151.186815287
0
LINE
8
0
10
103.991790166
20
151.186815287
11
103.956054477
21
151.433685643
0
LINE
8
0
10
103.956054477
20
151.433685643
11
104.062172358
21
151.820769459
0
LINE
8
0
10
104.062172358
20
151.820769459
11
104.308463971
21
152.346109399
0
LINE
8
0
10
104.308463971
20
152.346109399
11
104.507771222
21
152.862135994
0
LINE
8
0
10
104.507771222
20
152.862135994
11
104.722466898
21
153.559223816
0
LINE
8
0
10
104.722466898
20
153.559223816
11
104.928008911
21
154.441213278
0
LINE
8
0
10
104.928008911
20
154.441213278
11
105.099452209
21
155.509387336
0
LINE
8
0
10
105.099452209
20
155.509387336
11
105.185022536
21
156.464741739
0
LINE
8
0
10
105.185022536
20
156.464741739
11
104.359163579
21
157.001060816
0
LINE
8
0
10
104.359163579
20
157.001060816
11
103.481768154
21
157.448116114
0
LINE
8
0
10
103.481768154
20
157.448116114
11
102.697192136
21
156.896332836
0
LINE
8
0
10
102.697192136
20
156.896332836
11
101.857847915
21
156.213771556
0
LINE
8
0
10
101.857847915
20
156.213771556
11
101.196793641
21
155.59477222
0
LINE
8
0
10
101.196793641
20
155.59477222
11
100.700445716
21
155.0602964
0
LINE
8
0
10
100.700445716
20
155.0602964
11
100.353207202
21
154.62967796
0
LINE
8
0
10
100.353207202
20
154.62967796
11
100.021395274
21
154.153713196
0
LINE
8
0
10
100.021395274
20
154.153713196
11
99.7392297966
21
153.868270507
0
LINE
8
0
10
99.7392297966
20
153.868270507
11
99.5075659527
21
153.775783344
0
LINE
8
0
10
99.5075659527
20
153.775783344
11
97.4273200914
21
154.701968474
0
LINE
8
0
10
97.4273200914
20
154.701968474
11
97.3410380798
21
154.936014252
0
LINE
8
0
10
97.3410380798
20
154.936014252
11
97.3643577795
21
155.336702506
0
LINE
8
0
10
97.3643577795
20
155.336702506
11
97.4960430147
21
155.901769415
0
LINE
8
0
10
97.4960430147
20
155.901769415
11
97.5837069626
21
156.447957897
0
LINE
8
0
10
97.5837069626
20
156.447957897
11
97.6487783147
21
157.174450419
0
LINE
8
0
10
97.6487783147
20
157.174450419
11
97.6664528211
21
158.079900883
0
LINE
8
0
10
97.6664528211
20
158.079900883
11
97.6120637975
21
159.160377841
0
LINE
8
0
10
97.6120637975
20
159.160377841
11
97.4971348584
21
160.112646529
0
LINE
8
0
10
97.4971348584
20
160.112646529
11
96.5778158945
21
160.465540016
0
LINE
8
0
10
96.5778158945
20
160.465540016
11
95.6266456423
21
160.720405317
0
LINE
8
0
10
95.6266456423
20
160.720405317
11
94.9739366865
21
160.017557301
0
LINE
8
0
10
94.9739366865
20
160.017557301
11
94.2948466207
21
159.175402145
0
LINE
8
0
10
94.2948466207
20
159.175402145
11
93.7769351675
21
158.432488518
0
LINE
8
0
10
93.7769351675
20
158.432488518
11
93.4025574069
21
157.806495741
0
LINE
8
0
10
93.4025574069
20
157.806495741
11
93.1524374954
21
157.313092401
0
LINE
8
0
10
93.1524374954
20
157.313092401
11
92.9268350933
21
156.778541029
0
LINE
8
0
10
92.9268350933
20
156.778541029
11
92.7101824801
21
156.440670447
0
LINE
8
0
10
92.7101824801
20
156.440670447
11
92.5028102095
21
156.302038729
0
LINE
8
0
10
92.5028102095
20
156.302038729
11
90.275457995
21
156.775477057
0
LINE
8
0
10
90.275457995
20
156.775477057
11
90.1424005988
21
156.986469335
0
LINE
8
0
10
90.1424005988
20
156.986469335
11
90.0819029347
21
157.383250027
0
LINE
8
0
10
90.0819029347
20
157.383250027
11
90.0932265153
21
157.963347768
0
LINE
8
0
10
90.0932265153
20
157.963347768
11
90.0654158246
21
158.515827081
0
LINE
8
0
10
90.0654158246
20
158.515827081
11
89.9780189229
21
159.239973094
0
LINE
8
0
10
89.9780189229
20
159.239973094
11
89.807053462
21
160.129312029
0
LINE
8
0
10
89.807053462
20
160.129312029
11
89.5292091778
21
161.174869859
0
LINE
8
0
10
89.5292091778
20
161.174869859
11
89.2188039188
21
162.082434121
0
LINE
8
0
10
89.2188039188
20
162.082434121
11
88.2462035985
21
162.236478879
0
LINE
8
0
10
88.2462035985
20
162.236478879
11
87.2628292227
21
162.288015346
0
LINE
8
0
10
87.2628292227
20
162.288015346
11
86.7705138431
21
161.464820423
0
LINE
8
0
10
86.7705138431
20
161.464820423
11
86.2813574268
21
160.499877614
0
LINE
8
0
10
86.2813574268
20
160.499877614
11
85.9292240097
21
159.665518587
0
LINE
8
0
10
85.9292240097
20
159.665518587
11
85.6931785182
21
158.97536774
0
LINE
8
0
10
85.6931785182
20
158.97536774
11
85.5511086497
21
158.440743593
0
LINE
8
0
10
85.5511086497
20
158.440743593
11
85.4415756807
21
157.870968075
0
LINE
8
0
10
85.4415756807
20
157.870968075
11
85.2999046911
21
157.495436164
0
LINE
8
0
10
85.2999046911
20
157.495436164
11
85.125887157
21
157.316718762
0
LINE
8
0
10
85.125887157
20
157.316718762
11
82.8487745691
21
157.316718762
0
LINE
8
0
10
82.8487745691
20
157.316718762
11
82.674757035
21
157.495436164
0
LINE
8
0
10
82.674757035
20
157.495436164
11
82.5330860454
21
157.870968075
0
LINE
8
0
10
82.5330860454
20
157.870968075
11
82.4235530764
21
158.440743593
0
LINE
8
0
10
82.4235530764
20
158.440743593
11
82.2814832079
21
158.97536774
0
LINE
8
0
10
82.2814832079
20
158.97536774
11
82.0454377164
21
159.665518587
0
LINE
8
0
10
82.0454377164
20
159.665518587
11
81.6933042993
21
160.499877614
0
LINE
8
0
10
81.6933042993
20
160.499877614
11
81.204147883
21
161.464820423
0
LINE
8
0
10
81.204147883
20
161.464820423
11
80.7118325034
21
162.288015346
0
LINE
8
0
10
80.7118325034
20
162.288015346
11
79.7284581276
21
162.236478879
0
LINE
8
0
10
79.7284581276
20
162.236478879
11
78.7558578073
21
162.082434121
0
LINE
8
0
10
78.7558578073
20
162.082434121
11
78.4454525483
21
161.174869859
0
LINE
8
0
10
78.4454525483
20
161.174869859
11
78.1676082641
21
160.129312029
0
LINE
8
0
10
78.1676082641
20
160.129312029
11
77.9966428032
21
159.239973094
0
LINE
8
0
10
77.9966428032
20
159.239973094
11
77.9092459015
21
158.515827081
0
LINE
8
0
10
77.9092459015
20
158.515827081
11
77.8814352108
21
157.963347768
0
LINE
8
0
10
77.8814352108
20
157.963347768
11
77.8927587914
21
157.383250027
0
LINE
8
0
10
77.8927587914
20
157.383250027
11
77.8322611273
21
156.986469335
0
LINE
8
0
10
77.8322611273
20
156.986469335
11
77.6992037311
21
156.775477057
0
LINE
8
0
10
77.6992037311
20
156.775477057
11
75.4718515166
21
156.302038729
0
LINE
8
0
10
75.4718515166
20
156.302038729
11
75.264479246
21
156.440670447
0
LINE
8
0
10
75.264479246
20
156.440670447
11
75.0478266328
21
156.778541029
0
LINE
8
0
10
75.0478266328
20
156.778541029
11
74.8222242307
21
157.313092401
0
LINE
8
0
10
74.8222242307
20
157.313092401
11
74.5721043192
21
157.806495741
0
LINE
8
0
10
74.5721043192
20
157.806495741
11
74.1977265586
21
158.432488518
0
LINE
8
0
10
74.1977265586
20
158.432488518
11
73.6798151054
21
159.175402145
0
LINE
8
0
10
73.6798151054
20
159.175402145
11
73.0007250396
21
160.017557301
0
LINE
8
0
10
73.0007250396
20
160.017557301
11
72.3480160838
21
160.720405317
0
LINE
8
0
10
72.3480160838
20
160.720405317
11
71.3968458316
21
160.465540016
0
LINE
8
0
10
71.3968458316
20
160.465540016
11
70.4775268677
21
160.112646529
0
LINE
8
0
10
70.4775268677
20
160.112646529
11
70.3625979286
21
159.160377841
0
LINE
8
0
10
70.3625979286
20
159.160377841
11
70.308208905
21
158.079900883
0
LINE
8
0
10
70.308208905
20
158.079900883
11
70.3258834114
21
157.174450419
0
LINE
8
0
10
70.3258834114
20
157.174450419
11
70.3909547635
21
156.447957897
0
LINE
8
0
10
70.3909547635
20
156.447957897
11
70.4786187114
21
155.901769415
0
LINE
8
0
10
70.4786187114
20
155.901769415
11
70.6103039466
21
155.336702506
0
LINE
8
0
10
70.6103039466
20
155.336702506
11
70.6336236463
21
154.936014252
0
LINE
8
0
10
70.6336236463
20
154.936014252
11
70.5473416347
21
154.701968474
0
LINE
8
0
10
70.5473416347
20
154.701968474
11
68.4670957734
21
153.775783344
0
LINE
8
0
10
68.4670957734
20
153.775783344
11
68.2354319295
21
153.868270507
0
LINE
8
0
10
68.2354319295
20
153.868270507
11
67.9532664516
21
154.153713196
0
LINE
8
0
10
67.9532664516
20
154.153713196
11
67.6214545239
21
154.62967796
0
LINE
8
0
10
67.6214545239
20
154.62967796
11
67.2742160098
21
155.0602964
0
LINE
8
0
10
67.2742160098
20
155.0602964
11
66.7778680847
21
155.59477222
0
LINE
8
0
10
66.7778680847
20
155.59477222
11
66.116813811
21
156.213771556
0
LINE
8
0
10
66.116813811
20
156.213771556
11
65.2774695902
21
156.896332836
0
LINE
8
0
10
65.2774695902
20
156.896332836
11
64.4928935718
21
157.448116114
0
LINE
8
0
10
64.4928935718
20
157.448116114
11
63.6154981473
21
157.001060816
0
LINE
8
0
10
63.6154981473
20
157.001060816
11
62.78963919
21
156.464741739
0
LINE
8
0
10
62.78963919
20
156.464741739
11
62.875209517
21
155.509387336
0
LINE
8
0
10
62.875209517
20
155.509387336
11
63.0466528153
21
154.441213278
0
LINE
8
0
10
63.0466528153
20
154.441213278
11
63.2521948282
21
153.559223816
0
LINE
8
0
10
63.2521948282
20
153.559223816
11
63.4668905036
21
152.862135994
0
LINE
8
0
10
63.4668905036
20
152.862135994
11
63.6661977549
21
152.346109399
0
LINE
8
0
10
63.6661977549
20
152.346109399
11
63.9124893681
21
151.820769459
0
LINE
8
0
10
63.9124893681
20
151.820769459
11
64.0186072489
21
151.433685643
0
LINE
8
0
10
64.0186072489
20
151.433685643
11
63.9828715597
21
151.186815287
0
LINE
8
0
10
63.9828715597
20
151.186815287
11
62.1406487779
21
149.84836209
0
LINE
8
0
10
62.1406487779
20
149.84836209
11
61.8948181823
21
149.890662565
0
LINE
8
0
10
61.8948181823
20
149.890662565
11
61.5594718252
21
150.111202145
0
LINE
8
0
10
61.5594718252
20
150.111202145
11
61.1359521453
21
150.507778358
0
LINE
8
0
10
61.1359521453
20
150.507778358
11
60.7067710179
21
150.856791805
0
LINE
8
0
10
60.7067710179
20
150.856791805
11
60.1101457144
21
151.27639151
0
LINE
8
0
10
60.1101457144
20
151.27639151
11
59.334839864
21
151.744423313
0
LINE
8
0
10
59.334839864
20
151.744423313
11
58.3719248583
21
152.237559516
0
LINE
8
0
10
58.3719248583
20
152.237559516
11
57.489771514
21
152.614162479
0
LINE
8
0
10
57.489771514
20
152.614162479
11
56.7244973076
21
151.994455646
0
LINE
8
0
10
56.7244973076
20
151.994455646
11
56.0281923563
21
151.298150694
0
LINE
8
0
10
56.0281923563
20
151.298150694
11
56.3105221154
21
150.381464149
0
LINE
8
0
10
56.3105221154
20
150.381464149
11
56.7003048407
21
149.372277323
0
LINE
8
0
10
56.7003048407
20
149.372277323
11
57.0847311879
21
148.552296035
0
LINE
8
0
10
57.0847311879
20
148.552296035
11
57.4396679555
21
147.915078994
0
LINE
8
0
10
57.4396679555
20
147.915078994
11
57.7419078269
21
147.451767127
0
LINE
8
0
10
57.7419078269
20
147.451767127
11
58.0920416928
21
146.98911403
0
LINE
8
0
10
58.0920416928
20
146.98911403
11
58.2763198939
21
146.632552072
0
LINE
8
0
10
58.2763198939
20
146.632552072
11
58.2926923483
21
146.383646558
0
LINE
8
0
10
58.2926923483
20
146.383646558
11
56.7690066216
21
144.691422122
0
LINE
8
0
10
56.7690066216
20
144.691422122
11
56.519753251
21
144.681687175
0
LINE
8
0
10
56.519753251
20
144.681687175
11
56.1458822595
21
144.827685008
0
LINE
8
0
10
56.1458822595
20
144.827685008
11
55.6491646698
21
145.127540386
0
LINE
8
0
10
55.6491646698
20
145.127540386
11
55.1567982038
21
145.379695278
0
LINE
8
0
10
55.1567982038
20
145.379695278
11
54.4859709104
21
145.666080347
0
LINE
8
0
10
54.4859709104
20
145.666080347
11
53.6302980695
21
145.962689383
0
LINE
8
0
10
53.6302980695
20
145.962689383
11
52.5858962853
21
146.24484809
0
LINE
8
0
10
52.5858962853
20
146.24484809
11
51.6447199492
21
146.429811381
0
LINE
8
0
10
51.6447199492
20
146.429811381
11
51.0250131158
21
145.664537174
0
LINE
8
0
10
51.0250131158
20
145.664537174
11
50.4886940381
21
144.838678217
0
LINE
8
0
10
50.4886940381
20
144.838678217
11
50.9554440641
21
144.00072313
0
LINE
8
0
10
50.9554440641
20
144.00072313
11
51.546530841
21
143.094629843
0
LINE
8
0
10
51.546530841
20
143.094629843
11
52.0930402464
21
142.372493844
0
LINE
8
0
10
52.0930402464
20
142.372493844
11
52.5727056663
21
141.822997029
0
LINE
8
0
10
52.5727056663
20
141.822997029
11
52.9646688251
21
141.43264884
0
LINE
8
0
10
52.9646688251
20
141.43264884
11
53.4033424136
21
141.052902747
0
LINE
8
0
10
53.4033424136
20
141.052902747
11
53.6577270934
21
140.742446116
0
LINE
8
0
10
53.6577270934
20
140.742446116
11
53.7254921366
21
140.50238381
0
LINE
8
0
10
53.7254921366
20
140.50238381
11
52.5869358426
21
138.530346461
0
LINE
8
0
10
52.5869358426
20
138.530346461
11
52.3451532654
21
138.469001557
0
LINE
8
0
10
52.3451532654
20
138.469001557
11
51.9490975959
21
138.534076837
0
LINE
8
0
10
51.9490975959
20
138.534076837
11
51.4008910384
21
138.724106262
0
LINE
8
0
10
51.4008910384
20
138.724106262
11
50.8668580111
21
138.86838222
0
LINE
8
0
10
50.8668580111
20
138.86838222
11
50.1511470997
21
139.009036252
0
LINE
8
0
10
50.1511470997
20
139.009036252
11
49.2525042773
21
139.121259281
0
LINE
8
0
10
49.2525042773
20
139.121259281
11
48.172261084
21
139.180108802
0
LINE
8
0
10
48.172261084
20
139.180108802
11
47.2131956784
21
139.165348638
0
LINE
8
0
10
47.2131956784
20
139.165348638
11
46.7661403804
21
138.287953214
0
LINE
8
0
10
46.7661403804
20
138.287953214
11
46.4132468934
21
137.36863425
0
LINE
8
0
10
46.4132468934
20
137.36863425
11
47.0440179705
21
136.646033279
0
LINE
8
0
10
47.0440179705
20
136.646033279
11
47.8105754705
21
135.882634155
0
LINE
8
0
10
47.8105754705
20
135.882634155
11
48.4952828506
21
135.289904255
0
LINE
8
0
10
48.4952828506
20
135.289904255
11
49.0787132422
21
134.852143312
0
LINE
8
0
10
49.0787132422
20
134.852143312
11
49.5432690175
21
134.551818891
0
LINE
8
0
10
49.5432690175
20
134.551818891
11
50.0513101878
21
134.271576529
0
LINE
8
0
10
50.0513101878
20
134.271576529
11
50.3646835153
21
134.020793669
0
LINE
8
0
10
50.3646835153
20
134.020793669
11
50.4808794897
21
133.800066445
0
LINE
8
0
10
50.4808794897
20
133.800066445
11
49.7772130019
21
131.63440368
0
LINE
8
0
10
49.7772130019
20
131.63440368
11
49.5534682768
21
131.524129884
0
LINE
8
0
10
49.5534682768
20
131.524129884
11
49.1525374626
21
131.505438509
0
LINE
8
0
10
49.1525374626
20
131.505438509
11
48.5768011946
21
131.577336783
0
LINE
8
0
10
48.5768011946
20
131.577336783
11
48.0244414117
21
131.607428256
0
LINE
8
0
10
48.0244414117
20
131.607428256
11
47.2951268834
21
131.596203993
0
LINE
8
0
10
47.2951268834
20
131.596203993
11
46.392789083
21
131.519136331
0
LINE
8
0
10
46.392789083
20
131.519136331
11
45.3239162919
21
131.35210466
0
LINE
8
0
10
45.3239162919
20
131.35210466
11
44.3888775771
21
131.138266132
0
LINE
8
0
10
44.3888775771
20
131.138266132
11
44.1340122761
21
130.187095879
0
LINE
8
0
10
44.1340122761
20
130.187095879
11
43.9799675187
21
129.214495559
0
LINE
8
0
10
43.9799675187
20
129.214495559
11
44.7471919239
21
128.638829834
0
LINE
8
0
10
44.7471919239
20
128.638829834
11
45.655717906
21
128.051489079
0
LINE
8
0
10
45.655717906
20
128.051489079
11
46.4486982627
21
127.614070419
0
LINE
8
0
10
46.4486982627
20
127.614070419
11
47.1103949183
21
127.307177602
0
LINE
8
0
10
47.1103949183
20
127.307177602
11
47.6272399936
21
127.110002566
0
LINE
8
0
10
47.6272399936
20
127.110002566
11
48.1824449087
21
126.941511871
0
LINE
8
0
10
48.1824449087
20
126.941511871
11
48.5411109656
21
126.761363196
0
LINE
8
0
10
48.5411109656
20
126.761363196
11
48.7006595495
21
126.569617893
0
LINE
8
0
10
48.7006595495
20
126.569617893
11
48.46263647
21
124.304979566
0
LINE
8
0
10
48.46263647
20
124.304979566
11
48.2667083153
21
124.150596374
0
LINE
8
0
10
48.2667083153
20
124.150596374
11
47.8784249567
21
124.048955246
0
LINE
8
0
10
47.8784249567
20
124.048955246
11
47.3003214158
21
123.99958007
0
LINE
8
0
10
47.3003214158
20
123.99958007
11
46.7537756504
21
123.914171915
0
LINE
8
0
10
46.7537756504
20
123.914171915
11
46.0427320498
21
123.751559913
0
LINE
8
0
10
46.0427320498
20
123.751559913
11
45.1761357632
21
123.488569787
0
LINE
8
0
10
45.1761357632
20
123.488569787
11
44.1653482441
21
123.102957009
0
LINE
8
0
10
44.1653482441
20
123.102957009
11
43.2952018988
21
122.699385885
0
LINE
8
0
10
43.2952018988
20
122.699385885
11
43.2436654315
21
121.716011509
0
LINE
8
0
10
43.2436654315
20
121.716011509
11
43.2952018988
21
120.732637134
0
LINE
8
0
10
43.2952018988
20
120.732637134
11
44.1653482441
21
120.329066009
0
LINE
8
0
10
44.1653482441
20
120.329066009
11
45.1761357632
21
119.943453232
0
LINE
8
0
10
45.1761357632
20
119.943453232
11
46.0427320498
21
119.680463106
0
LINE
8
0
10
46.0427320498
20
119.680463106
11
46.7537756504
21
119.517851103
0
LINE
8
0
10
46.7537756504
20
119.517851103
11
47.3003214158
21
119.432442949
0
LINE
8
0
10
47.3003214158
20
119.432442949
11
47.8784249567
21
119.383067772
0
LINE
8
0
10
47.8784249567
20
119.383067772
11
48.2667083153
21
119.281426645
0
LINE
8
0
10
48.2667083153
20
119.281426645
11
48.46263647
21
119.127043452
0
LINE
8
0
10
48.46263647
20
119.127043452
11
48.7006595495
21
116.862405126
0
LINE
8
0
10
48.7006595495
20
116.862405126
11
48.5411109656
21
116.670659822
0
LINE
8
0
10
48.5411109656
20
116.670659822
11
48.1824449087
21
116.490511148
0
LINE
8
0
10
48.1824449087
20
116.490511148
11
47.6272399936
21
116.322020452
0
LINE
8
0
10
47.6272399936
20
116.322020452
11
47.1103949183
21
116.124845417
0
LINE
8
0
10
47.1103949183
20
116.124845417
11
46.4486982627
21
115.8179526
0
LINE
8
0
10
46.4486982627
20
115.8179526
11
45.655717906
21
115.38053394
0
LINE
8
0
10
45.655717906
20
115.38053394
11
44.7471919239
21
114.793193184
0
LINE
8
0
10
44.7471919239
20
114.793193184
11
43.9799675187
21
114.21752746
0
LINE
8
0
10
43.9799675187
20
114.21752746
11
44.1340122761
21
113.244927139
0
LINE
8
0
10
44.1340122761
20
113.244927139
11
44.3888775771
21
112.293756887
0
LINE
8
0
10
44.3888775771
20
112.293756887
11
45.3239162919
21
112.079918358
0
LINE
8
0
10
45.3239162919
20
112.079918358
11
46.392789083
21
111.912886687
0
LINE
8
0
10
46.392789083
20
111.912886687
11
47.2951268834
21
111.835819025
0
LINE
8
0
10
47.2951268834
20
111.835819025
11
48.0244414117
21
111.824594763
0
LINE
8
0
10
48.0244414117
20
111.824594763
11
48.5768011946
21
111.854686236
0
LINE
8
0
10
48.5768011946
20
111.854686236
11
49.1525374626
21
111.92658451
0
LINE
8
0
10
49.1525374626
20
111.92658451
11
49.5534682768
21
111.907893134
0
LINE
8
0
10
49.5534682768
20
111.907893134
11
49.7772130019
21
111.797619339
0
LINE
8
0
10
49.7772130019
20
111.797619339
11
50.4808794897
21
109.631956574
0
LINE
8
0
10
50.4808794897
20
109.631956574
11
50.3646835153
21
109.41122935
0
LINE
8
0
10
50.3646835153
20
109.41122935
11
50.0513101878
21
109.16044649
0
LINE
8
0
10
50.0513101878
20
109.16044649
11
49.5432690175
21
108.880204128
0
LINE
8
0
10
49.5432690175
20
108.880204128
11
49.0787132422
21
108.579879706
0
LINE
8
0
10
49.0787132422
20
108.579879706
11
48.4952828506
21
108.142118763
0
LINE
8
0
10
48.4952828506
20
108.142118763
11
47.8105754705
21
107.549388863
0
LINE
8
0
10
47.8105754705
20
107.549388863
11
47.0440179705
21
106.78598974
0
LINE
8
0
10
47.0440179705
20
106.78598974
11
46.4132468934
21
106.063388769
0
LINE
8
0
10
46.4132468934
20
106.063388769
11
46.7661403804
21
105.144069805
0
LINE
8
0
10
46.7661403804
20
105.144069805
11
47.2131956784
21
104.266674381
0
LINE
8
0
10
47.2131956784
20
104.266674381
11
48.172261084
21
104.251914217
0
LINE
8
0
10
48.172261084
20
104.251914217
11
49.2525042773
21
104.310763738
0
LINE
8
0
10
49.2525042773
20
104.310763738
11
50.1511470997
21
104.422986767
0
LINE
8
0
10
50.1511470997
20
104.422986767
11
50.8668580111
21
104.563640798
0
LINE
8
0
10
50.8668580111
20
104.563640798
11
51.4008910384
21
104.707916757
0
LINE
8
0
10
51.4008910384
20
104.707916757
11
51.9490975959
21
104.897946182
0
LINE
8
0
10
51.9490975959
20
104.897946182
11
52.3451532654
21
104.963021461
0
LINE
8
0
10
52.3451532654
20
104.963021461
11
52.5869358426
21
104.901676557
0
LINE
8
0
10
52.5869358426
20
104.901676557
11
53.7254921366
21
102.929639209
0
LINE
8
0
10
53.7254921366
20
102.929639209
11
53.6577270934
21
102.689576903
0
LINE
8
0
10
53.6577270934
20
102.689576903
11
53.4033424136
21
102.379120271
0
LINE
8
0
10
53.4033424136
20
102.379120271
11
52.9646688251
21
101.999374179
0
LINE
8
0
10
52.9646688251
20
101.999374179
11
52.5727056663
21
101.60902599
0
LINE
8
0
10
52.5727056663
20
101.60902599
11
52.0930402464
21
101.059529174
0
LINE
8
0
10
52.0930402464
20
101.059529174
11
51.546530841
21
100.337393176
0
LINE
8
0
10
51.546530841
20
100.337393176
11
50.9554440641
21
99.4312998886
0
LINE
8
0
10
50.9554440641
20
99.4312998886
11
50.4886940381
21
98.5933448016
0
LINE
8
0
10
50.4886940381
20
98.5933448016
11
51.0250131158
21
97.7674858444
0
LINE
8
0
10
51.0250131158
20
97.7674858444
11
51.6447199492
21
97.0022116379
0
LINE
8
0
10
51.6447199492
20
97.0022116379
11
52.5858962852
21
97.1871749292
0
LINE
8
0
10
52.5858962852
20
97.1871749292
11
53.6302980695
21
97.4693336359
0
LINE
8
0
10
53.6302980695
20
97.4693336359
11
54.4859709104
21
97.7659426713
0
LINE
8
0
10
54.4859709104
20
97.7659426713
11
55.1567982038
21
98.0523277402
0
LINE
8
0
10
55.1567982038
20
98.0523277402
11
55.6491646698
21
98.3044826324
0
LINE
8
0
10
55.6491646698
20
98.3044826324
11
56.1458822595
21
98.6043380111
0
LINE
8
0
10
56.1458822595
20
98.6043380111
11
56.519753251
21
98.7503358434
0
LINE
8
0
10
56.519753251
20
98.7503358434
11
56.7690066216
21
98.740600897
0
LINE
8
0
10
56.7690066216
20
98.740600897
11
58.2926923483
21
97.0483764602
0
LINE
8
0
10
58.2926923483
20
97.0483764602
11
58.2763198939
21
96.7994709467
0
LINE
8
0
10
58.2763198939
20
96.7994709467
11
58.0920416928
21
96.4429089887
0
LINE
8
0
10
58.0920416928
20
96.4429089887
11
57.7419078269
21
95.9802558918
0
LINE
8
0
10
57.7419078269
20
95.9802558918
11
57.4396679555
21
95.5169440242
0
LINE
8
0
10
57.4396679555
20
95.5169440242
11
57.0847311879
21
94.8797269841
0
LINE
8
0
10
57.0847311879
20
94.8797269841
11
56.7003048407
21
94.0597456952
0
LINE
8
0
10
56.7003048407
20
94.0597456952
11
56.3105221154
21
93.0505588692
0
LINE
8
0
10
56.3105221154
20
93.0505588692
11
56.0281923563
21
92.1338723242
0
LINE
8
0
10
56.0281923563
20
92.1338723242
11
56.7244973076
21
91.4375673729
0
LINE
8
0
10
56.7244973076
20
91.4375673729
11
57.489771514
21
90.8178605395
0
LINE
8
0
10
57.489771514
20
90.8178605395
11
58.3719248583
21
91.1944635025
0
LINE
8
0
10
58.3719248583
20
91.1944635025
11
59.334839864
21
91.6875997054
0
LINE
8
0
10
59.334839864
20
91.6875997054
11
60.1101457144
21
92.1556315088
0
LINE
8
0
10
60.1101457144
20
92.1556315088
11
60.7067710179
21
92.5752312137
0
LINE
8
0
10
60.7067710179
20
92.5752312137
11
61.1359521453
21
92.9242446609
0
LINE
8
0
10
61.1359521453
20
92.9242446609
11
61.5594718252
21
93.3208208741
0
LINE
8
0
10
61.5594718252
20
93.3208208741
11
61.8948181823
21
93.5413604535
0
LINE
8
0
10
61.8948181823
20
93.5413604535
11
62.1406487779
21
93.5836609288
0
LINE
8
0
10
62.1406487779
20
93.5836609288
11
63.9828715597
21
92.2452077317
0
LINE
8
0
10
63.9828715597
20
92.2452077317
11
64.0186072489
21
91.9983373762
0
LINE
8
0
10
64.0186072489
20
91.9983373762
11
63.9124893681
21
91.6112535601
0
LINE
8
0
10
63.9124893681
20
91.6112535601
11
63.6661977549
21
91.0859136193
0
LINE
8
0
10
63.6661977549
20
91.0859136193
11
63.4668905036
21
90.5698870249
0
LINE
8
0
10
63.4668905036
20
90.5698870249
11
63.2521948282
21
89.8727992026
0
LINE
8
0
10
63.2521948282
20
89.8727992026
11
63.0466528153
21
88.9908097403
0
LINE
8
0
10
63.0466528153
20
88.9908097403
11
62.875209517
21
87.9226356823
0
LINE
8
0
10
62.875209517
20
87.9226356823
11
62.78963919
21
86.9672812801
0
LINE
8
0
10
62.78963919
20
86.9672812801
11
63.6154981473
21
86.4309622024
0
LINE
8
0
10
63.6154981473
20
86.4309622024
11
64.4928935718
21
85.9839069043
0
LINE
8
0
10
64.4928935718
20
85.9839069043
11
65.2774695902
21
86.5356901823
0
LINE
8
0
10
65.2774695902
20
86.5356901823
11
66.116813811
21
87.218251463
0
LINE
8
0
10
66.116813811
20
87.218251463
11
66.7778680847
21
87.8372507988
0
LINE
8
0
10
66.7778680847
20
87.8372507988
11
67.2742160098
21
88.371726619
0
LINE
8
0
10
67.2742160098
20
88.371726619
11
67.6214545239
21
88.802345059
0
LINE
8
0
10
67.6214545239
20
88.802345059
11
67.9532664516
21
89.2783098231
0
LINE
8
0
10
67.9532664516
20
89.2783098231
11
68.2354319295
21
89.5637525117
0
LINE
8
0
10
68.2354319295
20
89.5637525117
11
68.4670957734
21
89.6562396749
0
LINE
8
0
10
68.4670957734
20
89.6562396749
11
70.5473416347
21
88.7300545449
0
LINE
8
0
10
70.5473416347
20
88.7300545449
11
70.6336236463
21
88.4960087665
0
LINE
8
0
10
70.6336236463
20
88.4960087665
11
70.6103039466
21
88.0953205125
0
LINE
8
0
10
70.6103039466
20
88.0953205125
11
70.4786187114
21
87.5302536041
0
LINE
8
0
10
70.4786187114
20
87.5302536041
11
70.3909547635
21
86.9840651213
0
LINE
8
0
10
70.3909547635
20
86.9840651213
11
70.3258834114
21
86.2575725995
0
LINE
8
0
10
70.3258834114
20
86.2575725995
11
70.308208905
21
85.3521221356
0
LINE
8
0
10
70.308208905
20
85.3521221356
11
70.3625979286
21
84.2716451776
0
LINE
8
0
10
70.3625979286
20
84.2716451776
11
70.4775268677
21
83.3193764899
0
LINE
8
0
10
70.4775268677
20
83.3193764899
11
71.3968458316
21
82.9664830029
0
LINE
8
0
10
71.3968458316
20
82.9664830029
11
72.3480160838
21
82.711617702
0
LINE
8
0
10
72.3480160838
20
82.711617702
11
73.0007250396
21
83.4144657181
0
LINE
8
0
10
73.0007250396
20
83.4144657181
11
73.6798151054
21
84.2566208732
0
LINE
8
0
10
73.6798151054
20
84.2566208732
11
74.1977265586
21
84.9995345002
0
LINE
8
0
10
74.1977265586
20
84.9995345002
11
74.5721043192
21
85.6255272777
0
LINE
8
0
10
74.5721043192
20
85.6255272777
11
74.8222242307
21
86.1189306182
0
LINE
8
0
10
74.8222242307
20
86.1189306182
11
75.0478266328
21
86.6534819892
0
LINE
8
0
10
75.0478266328
20
86.6534819892
11
75.264479246
21
86.9913525718
0
LINE
8
0
10
75.264479246
20
86.9913525718
11
75.4718515166
21
87.12998429
0
LINE
8
0
10
75.4718515166
20
87.12998429
11
77.6992037311
21
86.6565459616
0
LINE
8
0
10
77.6992037311
20
86.6565459616
11
77.8322611273
21
86.445553684
0
LINE
8
0
10
77.8322611273
20
86.445553684
11
77.8927587914
21
86.0487729914
0
LINE
8
0
10
77.8927587914
20
86.0487729914
11
77.8814352108
21
85.4686752508
0
LINE
8
0
10
77.8814352108
20
85.4686752508
11
77.9092459015
21
84.9161959372
0
LINE
8
0
10
77.9092459015
20
84.9161959372
11
77.9966428032
21
84.1920499252
0
LINE
8
0
10
77.9966428032
20
84.1920499252
11
78.1676082641
21
83.3027109899
0
LINE
8
0
10
78.1676082641
20
83.3027109899
11
78.4454525483
21
82.2571531596
0
LINE
8
0
10
78.4454525483
20
82.2571531596
11
78.7558578073
21
81.3495888975
0
LINE
8
0
10
78.7558578073
20
81.3495888975
11
79.7284581276
21
81.1955441401
0
LINE
8
0
10
79.7284581276
20
81.1955441401
11
80.7118325034
21
81.1440076729
0
LINE
8
0
10
80.7118325034
20
81.1440076729
11
81.204147883
21
81.9672025961
0
LINE
8
0
10
81.204147883
20
81.9672025961
11
81.6933042993
21
82.9321454043
0
LINE
8
0
10
81.6933042993
20
82.9321454043
11
82.0454377164
21
83.7665044321
0
LINE
8
0
10
82.0454377164
20
83.7665044321
11
82.2814832079
21
84.4566552787
0
LINE
8
0
10
82.2814832079
20
84.4566552787
11
82.4235530764
21
84.9912794261
0
LINE
8
0
10
82.4235530764
20
84.9912794261
11
82.5330860454
21
85.561054944
0
LINE
8
0
10
82.5330860454
20
85.561054944
11
82.674757035
21
85.9365868548
0
LINE
8
0
10
82.674757035
20
85.9365868548
11
82.8487745691
21
86.1153042568
0
LINE
8
0
10
82.8487745691
20
86.1153042568
11
85.125887157
21
86.1153042568
0
LINE
8
0
10
85.125887157
20
86.1153042568
11
85.2999046911
21
85.9365868548
0
LINE
8
0
10
85.2999046911
20
85.9365868548
11
85.4415756807
21
85.561054944
0
LINE
8
0
10
85.4415756807
20
85.561054944
11
85.5511086497
21
84.9912794261
0
LINE
8
0
10
85.5511086497
20
84.9912794261
11
85.6931785182
21
84.4566552787
0
LINE
8
0
10
85.6931785182
20
84.4566552787
11
85.9292240097
21
83.7665044321
0
LINE
8
0
10
85.9292240097
20
83.7665044321
11
86.2813574268
21
82.9321454043
0
LINE
8
0
10
86.2813574268
20
82.9321454043
11
86.7705138431
21
81.9672025961
0
LINE
8
0
10
86.7705138431
20
81.9672025961
11
87.2628292227
21
81.1440076729
0
LINE
8
0
10
87.2628292227
20
81.1440076729
11
88.2462035985
21
81.1955441401
0
LINE
8
0
10
88.2462035985
20
81.1955441401
11
89.2188039188
21
81.3495888975
0
LINE
8
0
10
89.2188039188
20
81.3495888975
11
89.5292091778
21
82.2571531596
0
LINE
8
0
10
89.5292091778
20
82.2571531596
11
89.807053462
21
83.3027109899
0
LINE
8
0
10
89.807053462
20
83.3027109899
11
89.9780189229
21
84.1920499252
0
LINE
8
0
10
89.9780189229
20
84.1920499252
11
90.0654158246
21
84.9161959372
0
LINE
8
0
10
90.0654158246
20
84.9161959372
11
90.0932265153
21
85.4686752508
0
LINE
8
0
10
90.0932265153
20
85.4686752508
11
90.0819029347
21
86.0487729914
0
LINE
8
0
10
90.0819029347
20
86.0487729914
11
90.1424005988
21
86.445553684
0
LINE
8
0
10
90.1424005988
20
86.445553684
11
90.275457995
21
86.6565459616
0
LINE
8
0
10
90.275457995
20
86.6565459616
11
92.5028102095
21
87.12998429
0
LINE
8
0
10
92.5028102095
20
87.12998429
11
92.7101824801
21
86.9913525718
0
LINE
8
0
10
92.7101824801
20
86.9913525718
11
92.9268350933
21
86.6534819892
0
LINE
8
0
10
92.9268350933
20
86.6534819892
11
93.1524374954
21
86.1189306182
0
LINE
8
0
10
93.1524374954
20
86.1189306182
11
93.4025574069
21
85.6255272777
0
LINE
8
0
10
93.4025574069
20
85.6255272777
11
93.7769351675
21
84.9995345002
0
LINE
8
0
10
93.7769351675
20
84.9995345002
11
94.2948466207
21
84.2566208732
0
LINE
8
0
10
94.2948466207
20
84.2566208732
11
94.9739366865
21
83.4144657181
0
LINE
8
0
10
94.9739366865
20
83.4144657181
11
95.6266456423
21
82.711617702
0
LINE
8
0
10
95.6266456423
20
82.711617702
11
96.5778158945
21
82.9664830029
0
LINE
8
0
10
96.5778158945
20
82.9664830029
11
97.4971348584
21
83.3193764899
0
LINE
8
0
10
97.4971348584
20
83.3193764899
11
97.6120637975
21
84.2716451776
0
LINE
8
0
10
97.6120637975
20
84.2716451776
11
97.6664528211
21
85.3521221356
0
LINE
8
0
10
97.6664528211
20
85.3521221356
11
97.6487783147
21
86.2575725995
0
LINE
8
0
10
97.6487783147
20
86.2575725995
11
97.5837069626
21
86.9840651213
0
LINE
8
0
10
97.5837069626
20
86.9840651213
11
97.4960430147
21
87.5302536041
0
LINE
8
0
10
97.4960430147
20
87.5302536041
11
97.3643577795
21
88.0953205125
0
LINE
8
0
10
97.3643577795
20
88.0953205125
11
97.3410380798
21
88.4960087665
0
LINE
8
0
10
97.3410380798
20
88.4960087665
11
97.4273200914
21
88.7300545449
0
LINE
8
0
10
97.4273200914
20
88.7300545449
11
99.5075659527
21
89.6562396749
0
LINE
8
0
10
99.5075659527
20
89.6562396749
11
99.7392297966
21
89.5637525117
0
LINE
8
0
10
99.7392297966
20
89.5637525117
11
100.021395274
21
89.2783098231
0
LINE
8
0
10
100.021395274
20
89.2783098231
11
100.353207202
21
88.802345059
0
LINE
8
0
10
100.353207202
20
88.802345059
11
100.700445716
21
88.371726619
0
LINE
8
0
10
100.700445716
20
88.371726619
11
101.196793641
21
87.8372507988
0
LINE
8
0
10
101.196793641
20
87.8372507988
11
101.857847915
21
87.218251463
0
LINE
8
0
10
101.857847915
20
87.218251463
11
102.697192136
21
86.5356901824
0
LINE
8
0
10
102.697192136
20
86.5356901824
11
103.481768154
21
85.9839069043
0
LINE
8
0
10
103.481768154
20
85.9839069043
11
104.359163579
21
86.4309622024
0
LINE
8
0
10
104.359163579
20
86.4309622024
11
105.185022536
21
86.9672812801
0
LINE
8
0
10
105.185022536
20
86.9672812801
11
105.099452209
21
87.9226356823
0
LINE
8
0
10
105.099452209
20
87.9226356823
11
104.928008911
21
88.9908097403
0
LINE
8
0
10
104.928008911
20
88.9908097403
11
104.722466898
21
89.8727992026
0
LINE
8
0
10
104.722466898
20
89.8727992026
11
104.507771222
21
90.5698870249
0
LINE
8
0
10
104.507771222
20
90.5698870249
11
104.308463971
21
91.0859136193
0
LINE
8
0
10
104.308463971
20
91.0859136193
11
104.062172358
21
91.6112535601
0
LINE
8
0
10
104.062172358
20
91.6112535601
11
103.956054477
21
91.9983373762
0
LINE
8
0
10
103.956054477
20
91.9983373762
11
103.991790166
21
92.2452077317
0
LINE
8
0
10
103.991790166
20
92.2452077317
11
105.834012948
21
93.5836609288
0
LINE
8
0
10
105.834012948
20
93.5836609288
11
106.079843544
21
93.5413604535
0
LINE
8
0
10
106.079843544
20
93.5413604535
11
106.415189901
21
93.3208208741
0
LINE
8
0
10
106.415189901
20
93.3208208741
11
106.838709581
21
92.9242446609
0
LINE
8
0
10
106.838709581
20
92.9242446609
11
107.267890708
21
92.5752312137
0
LINE
8
0
10
107.267890708
20
92.5752312137
11
107.864516012
21
92.1556315088
0
LINE
8
0
10
107.864516012
20
92.1556315088
11
108.639821862
21
91.6875997054
0
LINE
8
0
10
108.639821862
20
91.6875997054
11
109.602736868
21
91.1944635025
0
LINE
8
0
10
109.602736868
20
91.1944635025
11
110.484890212
21
90.8178605395
0
LINE
8
0
10
110.484890212
20
90.8178605395
11
111.250164419
21
91.4375673729
0
LINE
8
0
10
111.250164419
20
91.4375673729
11
111.94646937
21
92.1338723242
0
LINE
8
0
10
111.94646937
20
92.1338723242
11
111.664139611
21
93.0505588692
0
LINE
8
0
10
111.664139611
20
93.0505588692
11
111.274356885
21
94.0597456952
0
LINE
8
0
10
111.274356885
20
94.0597456952
11
110.889930538
21
94.8797269841
0
LINE
8
0
10
110.889930538
20
94.8797269841
11
110.534993771
21
95.5169440242
0
LINE
8
0
10
110.534993771
20
95.5169440242
11
110.232753899
21
95.9802558918
0
LINE
8
0
10
110.232753899
20
95.9802558918
11
109.882620033
21
96.4429089887
0
LINE
8
0
10
109.882620033
20
96.4429089887
11
109.698341832
21
96.7994709467
0
LINE
8
0
10
109.698341832
20
96.7994709467
11
109.681969378
21
97.0483764602
0
LINE
8
0
10
109.681969378
20
97.0483764602
11
111.205655105
21
98.740600897
0
LINE
8
0
10
111.205655105
20
98.740600897
11
111.454908475
21
98.7503358434
0
LINE
8
0
10
111.454908475
20
98.7503358434
11
111.828779467
21
98.6043380111
0
LINE
8
0
10
111.828779467
20
98.6043380111
11
112.325497056
21
98.3044826324
0
LINE
8
0
10
112.325497056
20
98.3044826324
11
112.817863522
21
98.0523277402
0
LINE
8
0
10
112.817863522
20
98.0523277402
11
113.488690816
21
97.7659426713
0
LINE
8
0
10
113.488690816
20
97.7659426713
11
114.344363657
21
97.4693336359
0
LINE
8
0
10
114.344363657
20
97.4693336359
11
115.388765441
21
97.1871749292
0
LINE
8
0
10
115.388765441
20
97.1871749292
11
116.329941777
21
97.0022116379
0
LINE
8
0
10
116.329941777
20
97.0022116379
11
116.94964861
21
97.7674858444
0
LINE
8
0
10
116.94964861
20
97.7674858444
11
117.485967688
21
98.5933448016
0
LINE
8
0
10
117.485967688
20
98.5933448016
11
117.019217662
21
99.4312998886
0
LINE
8
0
10
117.019217662
20
99.4312998886
11
116.428130885
21
100.337393176
0
LINE
8
0
10
116.428130885
20
100.337393176
11
115.88162148
21
101.059529174
0
LINE
8
0
10
115.88162148
20
101.059529174
11
115.40195606
21
101.60902599
0
LINE
8
0
10
115.40195606
20
101.60902599
11
115.009992901
21
101.999374179
0
LINE
8
0
10
115.009992901
20
101.999374179
11
114.571319313
21
102.379120271
0
LINE
8
0
10
114.571319313
20
102.379120271
11
114.316934633
21
102.689576903
0
LINE
8
0
10
114.316934633
20
102.689576903
11
114.249169589
21
102.929639209
0
LINE
8
0
10
114.249169589
20
102.929639209
11
115.387725883
21
104.901676557
0
LINE
8
0
10
115.387725883
20
104.901676557
11
115.629508461
21
104.963021461
0
LINE
8
0
10
115.629508461
20
104.963021461
11
116.02556413
21
104.897946182
0
LINE
8
0
10
116.02556413
20
104.897946182
11
116.573770688
21
104.707916757
0
LINE
8
0
10
116.573770688
20
104.707916757
11
117.107803715
21
104.563640798
0
LINE
8
0
10
117.107803715
20
104.563640798
11
117.823514626
21
104.422986767
0
LINE
8
0
10
117.823514626
20
104.422986767
11
118.722157449
21
104.310763738
0
LINE
8
0
10
118.722157449
20
104.310763738
11
119.802400642
21
104.251914217
0
LINE
8
0
10
119.802400642
20
104.251914217
11
120.761466048
21
104.266674381
0
LINE
8
0
10
120.761466048
20
104.266674381
11
121.208521346
21
105.144069805
0
LINE
8
0
10
121.208521346
20
105.144069805
11
121.561414833
21
106.063388769
0
LINE
8
0
10
121.561414833
20
106.063388769
11
120.930643756
21
106.78598974
0
LINE
8
0
10
120.930643756
20
106.78598974
11
120.164086256
21
107.549388863
0
LINE
8
0
10
120.164086256
20
107.549388863
11
119.479378875
21
108.142118763
0
LINE
8
0
10
119.479378875
20
108.142118763
11
118.895948484
21
108.579879706
0
LINE
8
0
10
118.895948484
20
108.579879706
11
118.431392709
21
108.880204128
0
LINE
8
0
10
118.431392709
20
108.880204128
11
117.923351538
21
109.16044649
0
LINE
8
0
10
117.923351538
20
109.16044649
11
117.609978211
21
109.41122935
0
LINE
8
0
10
117.609978211
20
109.41122935
11
117.493782236
21
109.631956574
0
LINE
8
0
10
117.493782236
20
109.631956574
11
118.197448724
21
111.797619339
0
LINE
8
0
10
118.197448724
20
111.797619339
11
118.421193449
21
111.907893134
0
LINE
8
0
10
118.421193449
20
111.907893134
11
118.822124264
21
111.92658451
0
LINE
8
0
10
118.822124264
20
111.92658451
11
119.397860532
21
111.854686236
0
LINE
8
0
10
119.397860532
20
111.854686236
11
119.950220314
21
111.824594763
0
LINE
8
0
10
119.950220314
20
111.824594763
11
120.679534843
21
111.835819025
0
LINE
8
0
10
120.679534843
20
111.835819025
11
121.581872643
21
111.912886687
0
LINE
8
0
10
121.581872643
20
111.912886687
11
122.650745434
21
112.079918358
0
LINE
8
0
10
122.650745434
20
112.079918358
11
123.585784149
21
112.293756887
0
LINE
8
0
10
84.2991983993
20
120.248790108
11
83.9873308631
21
120.216011509
0
LINE
8
0
10
83.9873308631
20
120.216011509
11
83.6754633268
21
120.248790108
0
LINE
8
0
10
83.6754633268
20
120.248790108
11
83.3772258984
21
120.345693323
0
LINE
8
0
10
83.3772258984
20
120.345693323
11
83.1056529846
21
120.502486018
0
LINE
8
0
10
83.1056529846
20
120.502486018
11
82.8726136248
21
120.7123156
0
LINE
8
0
10
82.8726136248
20
120.7123156
11
82.6882927574
21
120.966011509
0
LINE
8
0
10
82.6882927574
20
120.966011509
11
82.5607460886
21
121.252486018
0
LINE
8
0
10
82.5607460886
20
121.252486018
11
82.49554802
21
121.559218814
0
LINE
8
0
10
82.49554802
20
121.559218814
11
82.49554802
21
121.872804204
0
LINE
8
0
10
82.49554802
20
121.872804204
11
82.5607460886
21
122.179537001
0
LINE
8
0
10
82.5607460886
20
122.179537001
11
82.6882927574
21
122.466011509
0
LINE
8
0
10
82.6882927574
20
122.466011509
11
82.8726136248
21
122.719707419
0
LINE
8
0
10
82.8726136248
20
122.719707419
11
83.1056529846
21
122.929537001
0
LINE
8
0
10
83.1056529846
20
122.929537001
11
83.3772258984
21
123.086329696
0
LINE
8
0
10
83.3772258984
20
123.086329696
11
83.6754633268
21
123.18323291
0
LINE
8
0
10
83.6754633268
20
123.18323291
11
83.9873308631
21
123.216011509
0
LINE
8
0
10
83.9873308631
20
123.216011509
11
84.2991983993
21
123.18323291
0
LINE
8
0
10
84.2991983993
20
123.18323291
11
84.5974358277
21
123.086329696
0
LINE
8
0
10
84.5974358277
20
123.086329696
11
84.8690087415
21
122.929537001
0
LINE
8
0
10
84.8690087415
20
122.929537001
11
85.1020481013
21
122.719707419
0
LINE
8
0
10
85.1020481013
20
122.719707419
11
85.2863689687
21
122.466011509
0
LINE
8
0
10
85.2863689687
20
122.466011509
11
85.4139156375
21
122.179537001
0
LINE
8
0
10
85.4139156375
20
122.179537001
11
85.4791137061
21
121.872804204
0
LINE
8
0
10
85.4791137061
20
121.872804204
11
85.4791137061
21
121.559218814
0
LINE
8
0
10
85.4791137061
20
121.559218814
11
85.4139156375
21
121.252486018
0
LINE
8
0
10
85.4139156375
20
121.252486018
11
85.2863689687
21
120.966011509
0
LINE
8
0
10
85.2863689687
20
120.966011509
11
85.1020481013
21
120.7123156
0
LINE
8
0
10
85.1020481013
20
120.7123156
11
84.8690087415
21
120.502486018
0
LINE
8
0
10
84.8690087415
20
120.502486018
11
84.5974358277
21
120.345693323
0
LINE
8
0
10
84.5974358277
20
120.345693323
11
84.2991983993
21
120.248790108
0
LINE
8
0
10
166.829449581
20
31.1497492142
11
167.084314882
21
32.1009194665
0
LINE
8
0
10
167.084314882
20
32.1009194665
11
167.238359639
21
33.0735197868
0
LINE
8
0
10
167.238359639
20
33.0735197868
11
166.471135234
21
33.6491855115
0
LINE
8
0
10
166.471135234
20
33.6491855115
11
165.562609252
21
34.2365262667
0
LINE
8
0
10
165.562609252
20
34.2365262667
11
164.769628895
21
34.6739449271
0
LINE
8
0
10
164.769628895
20
34.6739449271
11
164.107932239
21
34.9808377441
0
LINE
8
0
10
164.107932239
20
34.9808377441
11
163.591087164
21
35.1780127796
0
LINE
8
0
10
163.591087164
20
35.1780127796
11
163.035882249
21
35.3465034748
0
LINE
8
0
10
163.035882249
20
35.3465034748
11
162.677216192
21
35.5266521494
0
LINE
8
0
10
162.677216192
20
35.5266521494
11
162.517667608
21
35.7183974526
0
LINE
8
0
10
162.517667608
20
35.7183974526
11
162.755690688
21
37.9830357796
0
LINE
8
0
10
162.755690688
20
37.9830357796
11
162.951618842
21
38.137418972
0
LINE
8
0
10
162.951618842
20
38.137418972
11
163.339902201
21
38.2390600995
0
LINE
8
0
10
163.339902201
20
38.2390600995
11
163.918005742
21
38.2884352761
0
LINE
8
0
10
163.918005742
20
38.2884352761
11
164.464551507
21
38.3738434306
0
LINE
8
0
10
164.464551507
20
38.3738434306
11
165.175595108
21
38.5364554327
0
LINE
8
0
10
165.175595108
20
38.5364554327
11
166.042191394
21
38.7994455591
0
LINE
8
0
10
166.042191394
20
38.7994455591
11
167.052978913
21
39.1850583365
0
LINE
8
0
10
167.052978913
20
39.1850583365
11
167.923125259
21
39.5886294607
0
LINE
8
0
10
167.923125259
20
39.5886294607
11
167.974661726
21
40.5720038365
0
LINE
8
0
10
167.974661726
20
40.5720038365
11
167.923125259
21
41.5553782122
0
LINE
8
0
10
167.923125259
20
41.5553782122
11
167.052978913
21
41.9589493364
0
LINE
8
0
10
167.052978913
20
41.9589493364
11
166.042191394
21
42.3445621138
0
LINE
8
0
10
166.042191394
20
42.3445621138
11
165.175595108
21
42.6075522402
0
LINE
8
0
10
165.175595108
20
42.6075522402
11
164.464551507
21
42.7701642423
0
LINE
8
0
10
164.464551507
20
42.7701642423
11
163.918005742
21
42.8555723968
0
LINE
8
0
10
163.918005742
20
42.8555723968
11
163.339902201
21
42.9049475734
0
LINE
8
0
10
163.339902201
20
42.9049475734
11
162.951618842
21
43.0065887009
0
LINE
8
0
10
162.951618842
20
43.0065887009
11
162.755690688
21
43.1609718933
0
LINE
8
0
10
162.755690688
20
43.1609718933
11
162.517667608
21
45.4256102203
0
LINE
8
0
10
162.517667608
20
45.4256102203
11
162.677216192
21
45.6173555235
0
LINE
8
0
10
162.677216192
20
45.6173555235
11
163.035882249
21
45.7975041981
0
LINE
8
0
10
163.035882249
20
45.7975041981
11
163.591087164
21
45.9659948933
0
LINE
8
0
10
163.591087164
20
45.9659948933
11
164.107932239
21
46.1631699288
0
LINE
8
0
10
164.107932239
20
46.1631699288
11
164.769628895
21
46.4700627458
0
LINE
8
0
10
164.769628895
20
46.4700627458
11
165.562609252
21
46.9074814062
0
LINE
8
0
10
165.562609252
20
46.9074814062
11
166.471135234
21
47.4948221614
0
LINE
8
0
10
166.471135234
20
47.4948221614
11
167.238359639
21
48.0704878861
0
LINE
8
0
10
167.238359639
20
48.0704878861
11
167.084314882
21
49.0430882064
0
LINE
8
0
10
167.084314882
20
49.0430882064
11
166.829449581
21
49.9942584587
0
LINE
8
0
10
166.829449581
20
49.9942584587
11
165.894410866
21
50.2080969876
0
LINE
8
0
10
165.894410866
20
50.2080969876
11
164.825538075
21
50.3751286585
0
LINE
8
0
10
164.825538075
20
50.3751286585
11
163.923200274
21
50.4521963204
0
LINE
8
0
10
163.923200274
20
50.4521963204
11
163.193885746
21
50.4634205829
0
LINE
8
0
10
163.193885746
20
50.4634205829
11
162.641525963
21
50.4333291101
0
LINE
8
0
10
162.641525963
20
50.4333291101
11
162.065789695
21
50.3614308359
0
LINE
8
0
10
162.065789695
20
50.3614308359
11
161.664858881
21
50.3801222114
0
LINE
8
0
10
161.664858881
20
50.3801222114
11
161.441114156
21
50.4903960067
0
LINE
8
0
10
161.441114156
20
50.4903960067
11
160.737447668
21
52.6560587718
0
LINE
8
0
10
160.737447668
20
52.6560587718
11
160.853643642
21
52.8767859959
0
LINE
8
0
10
160.853643642
20
52.8767859959
11
161.16701697
21
53.1275688561
0
LINE
8
0
10
161.16701697
20
53.1275688561
11
161.67505814
21
53.407811218
0
LINE
8
0
10
161.67505814
20
53.407811218
11
162.139613915
21
53.7081356395
0
LINE
8
0
10
162.139613915
20
53.7081356395
11
162.723044307
21
54.1458965826
0
LINE
8
0
10
162.723044307
20
54.1458965826
11
163.407751687
21
54.7386264825
0
LINE
8
0
10
163.407751687
20
54.7386264825
11
164.174309187
21
55.502025606
0
LINE
8
0
10
164.174309187
20
55.502025606
11
164.805080264
21
56.2246265768
0
LINE
8
0
10
164.805080264
20
56.2246265768
11
164.452186777
21
57.1439455407
0
LINE
8
0
10
164.452186777
20
57.1439455407
11
164.005131479
21
58.0213409652
0
LINE
8
0
10
164.005131479
20
58.0213409652
11
163.046066074
21
58.0361011289
0
LINE
8
0
10
163.046066074
20
58.0361011289
11
161.96582288
21
57.9772516078
0
LINE
8
0
10
161.96582288
20
57.9772516078
11
161.067180058
21
57.8650285786
0
LINE
8
0
10
161.067180058
20
57.8650285786
11
160.351469147
21
57.7243745474
0
LINE
8
0
10
160.351469147
20
57.7243745474
11
159.817436119
21
57.580098589
0
LINE
8
0
10
159.817436119
20
57.580098589
11
159.269229562
21
57.3900691637
0
LINE
8
0
10
159.269229562
20
57.3900691637
11
158.873173892
21
57.3249938843
0
LINE
8
0
10
158.873173892
20
57.3249938843
11
158.631391315
21
57.3863387885
0
LINE
8
0
10
158.631391315
20
57.3863387885
11
157.492835021
21
59.358376137
0
LINE
8
0
10
157.492835021
20
59.358376137
11
157.560600064
21
59.5984384431
0
LINE
8
0
10
157.560600064
20
59.5984384431
11
157.814984744
21
59.9088950745
0
LINE
8
0
10
157.814984744
20
59.9088950745
11
158.253658333
21
60.2886411672
0
LINE
8
0
10
158.253658333
20
60.2886411672
11
158.645621491
21
60.6789893561
0
LINE
8
0
10
158.645621491
20
60.6789893561
11
159.125286911
21
61.2284861715
0
LINE
8
0
10
159.125286911
20
61.2284861715
11
159.671796317
21
61.9506221701
0
LINE
8
0
10
159.671796317
20
61.9506221701
11
160.262883094
21
62.8567154572
0
LINE
8
0
10
160.262883094
20
62.8567154572
11
160.72963312
21
63.6946705442
0
LINE
8
0
10
160.72963312
20
63.6946705442
11
160.193314042
21
64.5205295014
0
LINE
8
0
10
160.193314042
20
64.5205295014
11
159.573607208
21
65.2858037079
0
LINE
8
0
10
159.573607208
20
65.2858037079
11
158.632430872
21
65.1008404166
0
LINE
8
0
10
158.632430872
20
65.1008404166
11
157.588029088
21
64.8186817099
0
LINE
8
0
10
157.588029088
20
64.8186817099
11
156.732356247
21
64.5220726745
0
LINE
8
0
10
156.732356247
20
64.5220726745
11
156.061528954
21
64.2356876056
0
LINE
8
0
10
156.061528954
20
64.2356876056
11
155.569162488
21
63.9835327134
0
LINE
8
0
10
155.569162488
20
63.9835327134
11
155.072444898
21
63.6836773347
0
LINE
8
0
10
155.072444898
20
63.6836773347
11
154.698573907
21
63.5376795024
0
LINE
8
0
10
154.698573907
20
63.5376795024
11
154.449320536
21
63.5474144488
0
LINE
8
0
10
154.449320536
20
63.5474144488
11
152.925634809
21
65.2396388856
0
LINE
8
0
10
152.925634809
20
65.2396388856
11
152.942007264
21
65.4885443991
0
LINE
8
0
10
152.942007264
20
65.4885443991
11
153.126285465
21
65.8451063571
0
LINE
8
0
10
153.126285465
20
65.8451063571
11
153.476419331
21
66.307759454
0
LINE
8
0
10
153.476419331
20
66.307759454
11
153.778659202
21
66.7710713216
0
LINE
8
0
10
153.778659202
20
66.7710713216
11
154.13359597
21
67.4082883617
0
LINE
8
0
10
154.13359597
20
67.4082883617
11
154.518022317
21
68.2282696506
0
LINE
8
0
10
154.518022317
20
68.2282696506
11
154.907805042
21
69.2374564766
0
LINE
8
0
10
154.907805042
20
69.2374564766
11
155.190134801
21
70.1541430216
0
LINE
8
0
10
155.190134801
20
70.1541430216
11
154.49382985
21
70.8504479729
0
LINE
8
0
10
154.49382985
20
70.8504479729
11
153.728555644
21
71.4701548063
0
LINE
8
0
10
153.728555644
20
71.4701548063
11
152.846402299
21
71.0935518433
0
LINE
8
0
10
152.846402299
20
71.0935518433
11
151.883487294
21
70.6004156404
0
LINE
8
0
10
151.883487294
20
70.6004156404
11
151.108181443
21
70.132383837
0
LINE
8
0
10
151.108181443
20
70.132383837
11
150.51155614
21
69.7127841321
0
LINE
8
0
10
150.51155614
20
69.7127841321
11
150.082375012
21
69.3637706849
0
LINE
8
0
10
150.082375012
20
69.3637706849
11
149.658855332
21
68.9671944717
0
LINE
8
0
10
149.658855332
20
68.9671944717
11
149.323508975
21
68.7466548923
0
LINE
8
0
10
149.323508975
20
68.7466548923
11
149.07767838
21
68.704354417
0
LINE
8
0
10
149.07767838
20
68.704354417
11
147.235455598
21
70.0428076141
0
LINE
8
0
10
147.235455598
20
70.0428076141
11
147.199719909
21
70.2896779696
0
LINE
8
0
10
147.199719909
20
70.2896779696
11
147.30583779
21
70.6767617857
0
LINE
8
0
10
147.30583779
20
70.6767617857
11
147.552129403
21
71.2021017265
0
LINE
8
0
10
147.552129403
20
71.2021017265
11
147.751436654
21
71.7181283209
0
LINE
8
0
10
147.751436654
20
71.7181283209
11
147.966132329
21
72.4152161432
0
LINE
8
0
10
147.966132329
20
72.4152161432
11
148.171674342
21
73.2972056055
0
LINE
8
0
10
148.171674342
20
73.2972056055
11
148.343117641
21
74.3653796635
0
LINE
8
0
10
148.343117641
20
74.3653796635
11
148.428687968
21
75.3207340657
0
LINE
8
0
10
148.428687968
20
75.3207340657
11
147.60282901
21
75.8570531434
0
LINE
8
0
10
147.60282901
20
75.8570531434
11
146.725433586
21
76.3041084415
0
LINE
8
0
10
146.725433586
20
76.3041084415
11
145.940857567
21
75.7523251635
0
LINE
8
0
10
145.940857567
20
75.7523251635
11
145.101513347
21
75.0697638828
0
LINE
8
0
10
145.101513347
20
75.0697638828
11
144.440459073
21
74.450764547
0
LINE
8
0
10
144.440459073
20
74.450764547
11
143.944111148
21
73.9162887268
0
LINE
8
0
10
143.944111148
20
73.9162887268
11
143.596872634
21
73.4856702868
0
LINE
8
0
10
143.596872634
20
73.4856702868
11
143.265060706
21
73.0097055227
0
LINE
8
0
10
143.265060706
20
73.0097055227
11
142.982895228
21
72.7242628341
0
LINE
8
0
10
142.982895228
20
72.7242628341
11
142.751231384
21
72.6317756709
0
LINE
8
0
10
142.751231384
20
72.6317756709
11
140.670985523
21
73.5579608009
0
LINE
8
0
10
140.670985523
20
73.5579608009
11
140.584703511
21
73.7920065793
0
LINE
8
0
10
140.584703511
20
73.7920065793
11
140.608023211
21
74.1926948333
0
LINE
8
0
10
140.608023211
20
74.1926948333
11
140.739708446
21
74.7577617417
0
LINE
8
0
10
140.739708446
20
74.7577617417
11
140.827372394
21
75.3039502245
0
LINE
8
0
10
140.827372394
20
75.3039502245
11
140.892443746
21
76.0304427463
0
LINE
8
0
10
140.892443746
20
76.0304427463
11
140.910118253
21
76.9358932102
0
LINE
8
0
10
140.910118253
20
76.9358932102
11
140.855729229
21
78.0163701682
0
LINE
8
0
10
140.855729229
20
78.0163701682
11
140.74080029
21
78.9686388559
0
LINE
8
0
10
140.74080029
20
78.9686388559
11
139.821481326
21
79.3215323429
0
LINE
8
0
10
139.821481326
20
79.3215323429
11
138.870311074
21
79.5763976438
0
LINE
8
0
10
138.870311074
20
79.5763976438
11
138.217602118
21
78.8735496277
0
LINE
8
0
10
138.217602118
20
78.8735496277
11
137.538512052
21
78.0313944726
0
LINE
8
0
10
137.538512052
20
78.0313944726
11
137.020600599
21
77.2884808456
0
LINE
8
0
10
137.020600599
20
77.2884808456
11
136.646222838
21
76.6624880681
0
LINE
8
0
10
136.646222838
20
76.6624880681
11
136.396102927
21
76.1690847276
0
LINE
8
0
10
136.396102927
20
76.1690847276
11
136.170500525
21
75.6345333566
0
LINE
8
0
10
136.170500525
20
75.6345333566
11
135.953847912
21
75.296662774
0
LINE
8
0
10
135.953847912
20
75.296662774
11
135.746475641
21
75.1580310558
0
LINE
8
0
10
135.746475641
20
75.1580310558
11
133.519123427
21
75.6314693842
0
LINE
8
0
10
133.519123427
20
75.6314693842
11
133.38606603
21
75.8424616618
0
LINE
8
0
10
133.38606603
20
75.8424616618
11
133.325568366
21
76.2392423544
0
LINE
8
0
10
133.325568366
20
76.2392423544
11
133.336891947
21
76.819340095
0
LINE
8
0
10
133.336891947
20
76.819340095
11
133.309081256
21
77.3718194086
0
LINE
8
0
10
133.309081256
20
77.3718194086
11
133.221684354
21
78.0959654206
0
LINE
8
0
10
133.221684354
20
78.0959654206
11
133.050718894
21
78.9853043559
0
LINE
8
0
10
133.050718894
20
78.9853043559
11
132.772874609
21
80.0308621862
0
LINE
8
0
10
132.772874609
20
80.0308621862
11
132.46246935
21
80.9384264483
0
LINE
8
0
10
132.46246935
20
80.9384264483
11
131.48986903
21
81.0924712057
0
LINE
8
0
10
131.48986903
20
81.0924712057
11
130.506494654
21
81.1440076729
0
LINE
8
0
10
130.506494654
20
81.1440076729
11
130.014179275
21
80.3208127497
0
LINE
8
0
10
130.014179275
20
80.3208127497
11
129.525022858
21
79.3558699415
0
LINE
8
0
10
129.525022858
20
79.3558699415
11
129.172889441
21
78.5215109137
0
LINE
8
0
10
129.172889441
20
78.5215109137
11
128.93684395
21
77.8313600671
0
LINE
8
0
10
128.93684395
20
77.8313600671
11
128.794774081
21
77.2967359197
0
LINE
8
0
10
128.794774081
20
77.2967359197
11
128.685241112
21
76.7269604018
0
LINE
8
0
10
128.685241112
20
76.7269604018
11
128.543570123
21
76.351428491
0
LINE
8
0
10
128.543570123
20
76.351428491
11
128.369552589
21
76.172711089
0
LINE
8
0
10
128.369552589
20
76.172711089
11
126.092440001
21
76.172711089
0
LINE
8
0
10
126.092440001
20
76.172711089
11
125.918422467
21
76.351428491
0
LINE
8
0
10
125.918422467
20
76.351428491
11
125.776751477
21
76.7269604018
0
LINE
8
0
10
125.776751477
20
76.7269604018
11
125.667218508
21
77.2967359197
0
LINE
8
0
10
125.667218508
20
77.2967359197
11
125.525148639
21
77.8313600671
0
LINE
8
0
10
125.525148639
20
77.8313600671
11
125.289103148
21
78.5215109137
0
LINE
8
0
10
125.289103148
20
78.5215109137
11
124.936969731
21
79.3558699415
0
LINE
8
0
10
124.936969731
20
79.3558699415
11
124.447813315
21
80.3208127497
0
LINE
8
0
10
124.447813315
20
80.3208127497
11
123.955497935
21
81.1440076729
0
LINE
8
0
10
123.955497935
20
81.1440076729
11
122.972123559
21
81.0924712057
0
LINE
8
0
10
122.972123559
20
81.0924712057
11
121.999523239
21
80.9384264483
0
LINE
8
0
10
121.999523239
20
80.9384264483
11
121.68911798
21
80.0308621862
0
LINE
8
0
10
121.68911798
20
80.0308621862
11
121.411273696
21
78.9853043559
0
LINE
8
0
10
121.411273696
20
78.9853043559
11
121.240308235
21
78.0959654206
0
LINE
8
0
10
121.240308235
20
78.0959654206
11
121.152911333
21
77.3718194086
0
LINE
8
0
10
121.152911333
20
77.3718194086
11
121.125100642
21
76.819340095
0
LINE
8
0
10
121.125100642
20
76.819340095
11
121.136424223
21
76.2392423544
0
LINE
8
0
10
121.136424223
20
76.2392423544
11
121.075926559
21
75.8424616618
0
LINE
8
0
10
121.075926559
20
75.8424616618
11
120.942869163
21
75.6314693842
0
LINE
8
0
10
120.942869163
20
75.6314693842
11
118.715516948
21
75.1580310558
0
LINE
8
0
10
118.715516948
20
75.1580310558
11
118.508144677
21
75.296662774
0
LINE
8
0
10
118.508144677
20
75.296662774
11
118.291492064
21
75.6345333566
0
LINE
8
0
10
118.291492064
20
75.6345333566
11
118.065889662
21
76.1690847276
0
LINE
8
0
10
118.065889662
20
76.1690847276
11
117.815769751
21
76.6624880681
0
LINE
8
0
10
117.815769751
20
76.6624880681
11
117.44139199
21
77.2884808456
0
LINE
8
0
10
117.44139199
20
77.2884808456
11
116.923480537
21
78.0313944726
0
LINE
8
0
10
116.923480537
20
78.0313944726
11
116.244390471
21
78.8735496277
0
LINE
8
0
10
116.244390471
20
78.8735496277
11
115.591681515
21
79.5763976438
0
LINE
8
0
10
115.591681515
20
79.5763976438
11
114.640511263
21
79.3215323429
0
LINE
8
0
10
114.640511263
20
79.3215323429
11
113.721192299
21
78.9686388559
0
LINE
8
0
10
113.721192299
20
78.9686388559
11
113.60626336
21
78.0163701682
0
LINE
8
0
10
113.60626336
20
78.0163701682
11
113.551874337
21
76.9358932102
0
LINE
8
0
10
113.551874337
20
76.9358932102
11
113.569548843
21
76.0304427463
0
LINE
8
0
10
113.569548843
20
76.0304427463
11
113.634620195
21
75.3039502245
0
LINE
8
0
10
113.634620195
20
75.3039502245
11
113.722284143
21
74.7577617417
0
LINE
8
0
10
113.722284143
20
74.7577617417
11
113.853969378
21
74.1926948333
0
LINE
8
0
10
113.853969378
20
74.1926948333
11
113.877289078
21
73.7920065793
0
LINE
8
0
10
113.877289078
20
73.7920065793
11
113.791007066
21
73.5579608009
0
LINE
8
0
10
113.791007066
20
73.5579608009
11
111.710761205
21
72.6317756709
0
LINE
8
0
10
111.710761205
20
72.6317756709
11
111.479097361
21
72.7242628341
0
LINE
8
0
10
111.479097361
20
72.7242628341
11
111.196931883
21
73.0097055227
0
LINE
8
0
10
111.196931883
20
73.0097055227
11
110.865119955
21
73.4856702868
0
LINE
8
0
10
110.865119955
20
73.4856702868
11
110.517881441
21
73.9162887268
0
LINE
8
0
10
110.517881441
20
73.9162887268
11
110.021533516
21
74.450764547
0
LINE
8
0
10
110.021533516
20
74.450764547
11
109.360479243
21
75.0697638828
0
LINE
8
0
10
109.360479243
20
75.0697638828
11
108.521135022
21
75.7523251634
0
LINE
8
0
10
108.521135022
20
75.7523251634
11
107.736559003
21
76.3041084415
0
LINE
8
0
10
107.736559003
20
76.3041084415
11
106.859163579
21
75.8570531434
0
LINE
8
0
10
106.859163579
20
75.8570531434
11
106.033304622
21
75.3207340657
0
LINE
8
0
10
106.033304622
20
75.3207340657
11
106.118874949
21
74.3653796635
0
LINE
8
0
10
106.118874949
20
74.3653796635
11
106.290318247
21
73.2972056055
0
LINE
8
0
10
106.290318247
20
73.2972056055
11
106.49586026
21
72.4152161432
0
LINE
8
0
10
106.49586026
20
72.4152161432
11
106.710555935
21
71.7181283209
0
LINE
8
0
10
106.710555935
20
71.7181283209
11
106.909863186
21
71.2021017265
0
LINE
8
0
10
106.909863186
20
71.2021017265
11
107.1561548
21
70.6767617857
0
LINE
8
0
10
107.1561548
20
70.6767617857
11
107.26227268
21
70.2896779696
0
LINE
8
0
10
107.26227268
20
70.2896779696
11
107.226536991
21
70.0428076141
0
LINE
8
0
10
107.226536991
20
70.0428076141
11
105.384314209
21
68.704354417
0
LINE
8
0
10
105.384314209
20
68.704354417
11
105.138483614
21
68.7466548923
0
LINE
8
0
10
105.138483614
20
68.7466548923
11
104.803137257
21
68.9671944717
0
LINE
8
0
10
104.803137257
20
68.9671944717
11
104.379617577
21
69.3637706849
0
LINE
8
0
10
104.379617577
20
69.3637706849
11
103.950436449
21
69.7127841321
0
LINE
8
0
10
103.950436449
20
69.7127841321
11
103.353811146
21
70.132383837
0
LINE
8
0
10
103.353811146
20
70.132383837
11
102.578505296
21
70.6004156404
0
LINE
8
0
10
102.578505296
20
70.6004156404
11
101.61559029
21
71.0935518433
0
LINE
8
0
10
101.61559029
20
71.0935518433
11
100.733436946
21
71.4701548063
0
LINE
8
0
10
100.733436946
20
71.4701548063
11
99.9681627391
21
70.8504479729
0
LINE
8
0
10
99.9681627391
20
70.8504479729
11
99.2718577878
21
70.1541430216
0
LINE
8
0
10
99.2718577878
20
70.1541430216
11
99.5541875469
21
69.2374564766
0
LINE
8
0
10
99.5541875469
20
69.2374564766
11
99.9439702722
21
68.2282696506
0
LINE
8
0
10
99.9439702722
20
68.2282696506
11
100.328396619
21
67.4082883617
0
LINE
8
0
10
100.328396619
20
67.4082883617
11
100.683333387
21
66.7710713216
0
LINE
8
0
10
100.683333387
20
66.7710713216
11
100.985573258
21
66.307759454
0
LINE
8
0
10
100.985573258
20
66.307759454
11
101.335707124
21
65.8451063571
0
LINE
8
0
10
101.335707124
20
65.8451063571
11
101.519985325
21
65.4885443991
0
LINE
8
0
10
101.519985325
20
65.4885443991
11
101.53635778
21
65.2396388856
0
LINE
8
0
10
101.53635778
20
65.2396388856
11
100.012672053
21
63.5474144488
0
LINE
8
0
10
100.012672053
20
63.5474144488
11
99.7634186825
21
63.5376795024
0
LINE
8
0
10
99.7634186825
20
63.5376795024
11
99.389547691
21
63.6836773347
0
LINE
8
0
10
99.389547691
20
63.6836773347
11
98.8928301013
21
63.9835327134
0
LINE
8
0
10
98.8928301013
20
63.9835327134
11
98.4004636353
21
64.2356876056
0
LINE
8
0
10
98.4004636353
20
64.2356876056
11
97.729636342
21
64.5220726745
0
LINE
8
0
10
97.729636342
20
64.5220726745
11
96.873963501
21
64.8186817099
0
LINE
8
0
10
96.873963501
20
64.8186817099
11
95.8295617168
21
65.1008404166
0
LINE
8
0
10
95.8295617168
20
65.1008404166
11
94.8883853807
21
65.2858037079
0
LINE
8
0
10
94.8883853807
20
65.2858037079
11
94.2686785473
21
64.5205295014
0
LINE
8
0
10
94.2686785473
20
64.5205295014
11
93.7323594696
21
63.6946705442
0
LINE
8
0
10
93.7323594696
20
63.6946705442
11
94.1991094956
21
62.8567154572
0
LINE
8
0
10
94.1991094956
20
62.8567154572
11
94.7901962725
21
61.9506221701
0
LINE
8
0
10
94.7901962725
20
61.9506221701
11
95.3367056779
21
61.2284861715
0
LINE
8
0
10
95.3367056779
20
61.2284861715
11
95.8163710978
21
60.6789893561
0
LINE
8
0
10
95.8163710978
20
60.6789893561
11
96.2083342566
21
60.2886411672
0
LINE
8
0
10
96.2083342566
20
60.2886411672
11
96.6470078451
21
59.9088950745
0
LINE
8
0
10
96.6470078451
20
59.9088950745
11
96.901392525
21
59.5984384431
0
LINE
8
0
10
96.901392525
20
59.5984384431
11
96.9691575681
21
59.358376137
0
LINE
8
0
10
96.9691575681
20
59.358376137
11
95.8306012741
21
57.3863387885
0
LINE
8
0
10
95.8306012741
20
57.3863387885
11
95.5888186969
21
57.3249938843
0
LINE
8
0
10
95.5888186969
20
57.3249938843
11
95.1927630274
21
57.3900691637
0
LINE
8
0
10
95.1927630274
20
57.3900691637
11
94.64455647
21
57.580098589
0
LINE
8
0
10
94.64455647
20
57.580098589
11
94.1105234426
21
57.7243745474
0
LINE
8
0
10
94.1105234426
20
57.7243745474
11
93.3948125312
21
57.8650285786
0
LINE
8
0
10
93.3948125312
20
57.8650285786
11
92.4961697088
21
57.9772516078
0
LINE
8
0
10
92.4961697088
20
57.9772516078
11
91.4159265155
21
58.0361011289
0
LINE
8
0
10
91.4159265155
20
58.0361011289
11
90.4568611099
21
58.0213409652
0
LINE
8
0
10
90.4568611099
20
58.0213409652
11
90.0098058119
21
57.1439455407
0
LINE
8
0
10
90.0098058119
20
57.1439455407
11
89.6569123249
21
56.2246265768
0
LINE
8
0
10
89.6569123249
20
56.2246265768
11
90.287683402
21
55.502025606
0
LINE
8
0
10
90.287683402
20
55.502025606
11
91.054240902
21
54.7386264825
0
LINE
8
0
10
91.054240902
20
54.7386264825
11
91.7389482821
21
54.1458965826
0
LINE
8
0
10
91.7389482821
20
54.1458965826
11
92.3223786737
21
53.7081356395
0
LINE
8
0
10
92.3223786737
20
53.7081356395
11
92.7869344491
21
53.407811218
0
LINE
8
0
10
92.7869344491
20
53.407811218
11
93.2949756194
21
53.1275688561
0
LINE
8
0
10
93.2949756194
20
53.1275688561
11
93.6083489468
21
52.8767859959
0
LINE
8
0
10
93.6083489468
20
52.8767859959
11
93.7245449212
21
52.6560587718
0
LINE
8
0
10
93.7245449212
20
52.6560587718
11
93.0208784334
21
50.4903960067
0
LINE
8
0
10
93.0208784334
20
50.4903960067
11
92.7971337083
21
50.3801222114
0
LINE
8
0
10
92.7971337083
20
50.3801222114
11
92.3962028941
21
50.3614308359
0
LINE
8
0
10
92.3962028941
20
50.3614308359
11
91.8204666261
21
50.4333291101
0
LINE
8
0
10
91.8204666261
20
50.4333291101
11
91.2681068432
21
50.4634205829
0
LINE
8
0
10
91.2681068432
20
50.4634205829
11
90.538792315
21
50.4521963204
0
LINE
8
0
10
90.538792315
20
50.4521963204
11
89.6364545146
21
50.3751286585
0
LINE
8
0
10
89.6364545146
20
50.3751286585
11
88.5675817234
21
50.2080969876
0
LINE
8
0
10
88.5675817234
20
50.2080969876
11
87.6325430086
21
49.9942584587
0
LINE
8
0
10
87.6325430086
20
49.9942584587
11
87.3776777076
21
49.0430882064
0
LINE
8
0
10
87.3776777076
20
49.0430882064
11
87.2236329502
21
48.0704878861
0
LINE
8
0
10
87.2236329502
20
48.0704878861
11
87.9908573555
21
47.4948221614
0
LINE
8
0
10
87.9908573555
20
47.4948221614
11
88.8993833375
21
46.9074814062
0
LINE
8
0
10
88.8993833375
20
46.9074814062
11
89.6923636943
21
46.4700627458
0
LINE
8
0
10
89.6923636943
20
46.4700627458
11
90.3540603499
21
46.1631699288
0
LINE
8
0
10
90.3540603499
20
46.1631699288
11
90.8709054251
21
45.9659948933
0
LINE
8
0
10
90.8709054251
20
45.9659948933
11
91.4261103402
21
45.7975041981
0
LINE
8
0
10
91.4261103402
20
45.7975041981
11
91.7847763971
21
45.6173555235
0
LINE
8
0
10
91.7847763971
20
45.6173555235
11
91.944324981
21
45.4256102203
0
LINE
8
0
10
91.944324981
20
45.4256102203
11
91.7063019015
21
43.1609718933
0
LINE
8
0
10
91.7063019015
20
43.1609718933
11
91.5103737468
21
43.0065887009
0
LINE
8
0
10
91.5103737468
20
43.0065887009
11
91.1220903882
21
42.9049475734
0
LINE
8
0
10
91.1220903882
20
42.9049475734
11
90.5439868473
21
42.8555723968
0
LINE
8
0
10
90.5439868473
20
42.8555723968
11
89.9974410819
21
42.7701642423
0
LINE
8
0
10
89.9974410819
20
42.7701642423
11
89.2863974814
21
42.6075522402
0
LINE
8
0
10
89.2863974814
20
42.6075522402
11
88.4198011947
21
42.3445621138
0
LINE
8
0
10
88.4198011947
20
42.3445621138
11
87.4090136757
21
41.9589493364
0
LINE
8
0
10
87.4090136757
20
41.9589493364
11
86.5388673303
21
41.5553782122
0
LINE
8
0
10
86.5388673303
20
41.5553782122
11
86.4873308631
21
40.5720038365
0
LINE
8
0
10
86.4873308631
20
40.5720038365
11
86.5388673303
21
39.5886294607
0
LINE
8
0
10
86.5388673303
20
39.5886294607
11
87.4090136757
21
39.1850583365
0
LINE
8
0
10
87.4090136757
20
39.1850583365
11
88.4198011947
21
38.7994455591
0
LINE
8
0
10
88.4198011947
20
38.7994455591
11
89.2863974814
21
38.5364554327
0
LINE
8
0
10
89.2863974814
20
38.5364554327
11
89.9974410819
21
38.3738434306
0
LINE
8
0
10
89.9974410819
20
38.3738434306
11
90.5439868473
21
38.2884352761
0
LINE
8
0
10
90.5439868473
20
38.2884352761
11
91.1220903882
21
38.2390600995
0
LINE
8
0
10
91.1220903882
20
38.2390600995
11
91.5103737468
21
38.137418972
0
LINE
8
0
10
91.5103737468
20
38.137418972
11
91.7063019015
21
37.9830357796
0
LINE
8
0
10
91.7063019015
20
37.9830357796
11
91.944324981
21
35.7183974526
0
LINE
8
0
10
91.944324981
20
35.7183974526
11
91.7847763971
21
35.5266521494
0
LINE
8
0
10
91.7847763971
20
35.5266521494
11
91.4261103402
21
35.3465034748
0
LINE
8
0
10
91.4261103402
20
35.3465034748
11
90.8709054251
21
35.1780127796
0
LINE
8
0
10
90.8709054251
20
35.1780127796
11
90.3540603499
21
34.9808377441
0
LINE
8
0
10
90.3540603499
20
34.9808377441
11
89.6923636943
21
34.6739449271
0
LINE
8
0
10
89.6923636943
20
34.6739449271
11
88.8993833375
21
34.2365262667
0
LINE
8
0
10
88.8993833375
20
34.2365262667
11
87.9908573555
21
33.6491855116
0
LINE
8
0
10
87.9908573555
20
33.6491855116
11
87.2236329502
21
33.0735197868
0
LINE
8
0
10
87.2236329502
20
33.0735197868
11
87.3776777076
21
32.1009194665
0
LINE
8
0
10
87.3776777076
20
32.1009194665
11
87.6325430086
21
31.1497492142
0
LINE
8
0
10
87.6325430086
20
31.1497492142
11
88.5675817234
21
30.9359106853
0
LINE
8
0
10
88.5675817234
20
30.9359106853
11
89.6364545146
21
30.7688790144
0
LINE
8
0
10
89.6364545146
20
30.7688790144
11
90.538792315
21
30.6918113525
0
LINE
8
0
10
90.538792315
20
30.6918113525
11
91.2681068432
21
30.68058709
0
LINE
8
0
10
91.2681068432
20
30.68058709
11
91.8204666261
21
30.7106785628
0
LINE
8
0
10
91.8204666261
20
30.7106785628
11
92.3962028941
21
30.782576837
0
LINE
8
0
10
92.3962028941
20
30.782576837
11
92.7971337083
21
30.7638854615
0
LINE
8
0
10
92.7971337083
20
30.7638854615
11
93.0208784334
21
30.6536116662
0
LINE
8
0
10
93.0208784334
20
30.6536116662
11
93.7245449212
21
28.4879489011
0
LINE
8
0
10
93.7245449212
20
28.4879489011
11
93.6083489468
21
28.267221677
0
LINE
8
0
10
93.6083489468
20
28.267221677
11
93.2949756194
21
28.0164388168
0
LINE
8
0
10
93.2949756194
20
28.0164388168
11
92.7869344491
21
27.7361964549
0
LINE
8
0
10
92.7869344491
20
27.7361964549
11
92.3223786737
21
27.4358720334
0
LINE
8
0
10
92.3223786737
20
27.4358720334
11
91.7389482821
21
26.9981110903
0
LINE
8
0
10
91.7389482821
20
26.9981110903
11
91.054240902
21
26.4053811904
0
LINE
8
0
10
91.054240902
20
26.4053811904
11
90.287683402
21
25.6419820669
0
LINE
8
0
10
90.287683402
20
25.6419820669
11
89.6569123249
21
24.9193810961
0
LINE
8
0
10
89.6569123249
20
24.9193810961
11
90.0098058119
21
24.0000621322
0
LINE
8
0
10
90.0098058119
20
24.0000621322
11
90.4568611099
21
23.1226667077
0
LINE
8
0
10
90.4568611099
20
23.1226667077
11
91.4159265155
21
23.107906544
0
LINE
8
0
10
91.4159265155
20
23.107906544
11
92.4961697088
21
23.1667560651
0
LINE
8
0
10
92.4961697088
20
23.1667560651
11
93.3948125312
21
23.2789790943
0
LINE
8
0
10
93.3948125312
20
23.2789790943
11
94.1105234426
21
23.4196331255
0
LINE
8
0
10
94.1105234426
20
23.4196331255
11
94.64455647
21
23.5639090839
0
LINE
8
0
10
94.64455647
20
23.5639090839
11
95.1927630274
21
23.7539385092
0
LINE
8
0
10
95.1927630274
20
23.7539385092
11
95.5888186969
21
23.8190137886
0
LINE
8
0
10
95.5888186969
20
23.8190137886
11
95.8306012741
21
23.7576688844
0
LINE
8
0
10
95.8306012741
20
23.7576688844
11
96.9691575681
21
21.7856315359
0
LINE
8
0
10
96.9691575681
20
21.7856315359
11
96.901392525
21
21.5455692298
0
LINE
8
0
10
96.901392525
20
21.5455692298
11
96.6470078451
21
21.2351125984
0
LINE
8
0
10
96.6470078451
20
21.2351125984
11
96.2083342566
21
20.8553665057
0
LINE
8
0
10
96.2083342566
20
20.8553665057
11
95.8163710978
21
20.4650183168
0
LINE
8
0
10
95.8163710978
20
20.4650183168
11
95.3367056779
21
19.9155215014
0
LINE
8
0
10
95.3367056779
20
19.9155215014
11
94.7901962725
21
19.1933855028
0
LINE
8
0
10
94.7901962725
20
19.1933855028
11
94.1991094956
21
18.2872922157
0
LINE
8
0
10
94.1991094956
20
18.2872922157
11
93.7323594696
21
17.4493371287
0
LINE
8
0
10
93.7323594696
20
17.4493371287
11
94.2686785473
21
16.6234781715
0
LINE
8
0
10
94.2686785473
20
16.6234781715
11
94.8883853807
21
15.858203965
0
LINE
8
0
10
94.8883853807
20
15.858203965
11
95.8295617168
21
16.0431672563
0
LINE
8
0
10
95.8295617168
20
16.0431672563
11
96.873963501
21
16.325325963
0
LINE
8
0
10
96.873963501
20
16.325325963
11
97.729636342
21
16.6219349984
0
LINE
8
0
10
97.729636342
20
16.6219349984
11
98.4004636353
21
16.9083200673
0
LINE
8
0
10
98.4004636353
20
16.9083200673
11
98.8928301013
21
17.1604749595
0
LINE
8
0
10
98.8928301013
20
17.1604749595
11
99.389547691
21
17.4603303382
0
LINE
8
0
10
99.389547691
20
17.4603303382
11
99.7634186825
21
17.6063281705
0
LINE
8
0
10
99.7634186825
20
17.6063281705
11
100.012672053
21
17.5965932241
0
LINE
8
0
10
100.012672053
20
17.5965932241
11
101.53635778
21
15.9043687873
0
LINE
8
0
10
101.53635778
20
15.9043687873
11
101.519985325
21
15.6554632738
0
LINE
8
0
10
101.519985325
20
15.6554632738
11
101.335707124
21
15.2989013158
0
LINE
8
0
10
101.335707124
20
15.2989013158
11
100.985573258
21
14.8362482189
0
LINE
8
0
10
100.985573258
20
14.8362482189
11
100.683333387
21
14.3729363513
0
LINE
8
0
10
100.683333387
20
14.3729363513
11
100.328396619
21
13.7357193112
0
LINE
8
0
10
100.328396619
20
13.7357193112
11
99.9439702722
21
12.9157380223
0
LINE
8
0
10
99.9439702722
20
12.9157380223
11
99.5541875469
21
11.9065511963
0
LINE
8
0
10
99.5541875469
20
11.9065511963
11
99.2718577878
21
10.9898646513
0
LINE
8
0
10
99.2718577878
20
10.9898646513
11
99.9681627391
21
10.2935597
0
LINE
8
0
10
99.9681627391
20
10.2935597
11
100.733436946
21
9.67385286663
0
LINE
8
0
10
100.733436946
20
9.67385286663
11
101.61559029
21
10.0504558296
0
LINE
8
0
10
101.61559029
20
10.0504558296
11
102.578505296
21
10.5435920325
0
LINE
8
0
10
102.578505296
20
10.5435920325
11
103.353811146
21
11.0116238359
0
LINE
8
0
10
103.353811146
20
11.0116238359
11
103.950436449
21
11.4312235408
0
LINE
8
0
10
103.950436449
20
11.4312235408
11
104.379617577
21
11.780236988
0
LINE
8
0
10
104.379617577
20
11.780236988
11
104.803137257
21
12.1768132012
0
LINE
8
0
10
104.803137257
20
12.1768132012
11
105.138483614
21
12.3973527806
0
LINE
8
0
10
105.138483614
20
12.3973527806
11
105.384314209
21
12.4396532559
0
LINE
8
0
10
105.384314209
20
12.4396532559
11
107.226536991
21
11.1012000588
0
LINE
8
0
10
107.226536991
20
11.1012000588
11
107.26227268
21
10.8543297033
0
LINE
8
0
10
107.26227268
20
10.8543297033
11
107.1561548
21
10.4672458872
0
LINE
8
0
10
107.1561548
20
10.4672458872
11
106.909863186
21
9.94190594638
0
LINE
8
0
10
106.909863186
20
9.94190594638
11
106.710555935
21
9.42587935203
0
LINE
8
0
10
106.710555935
20
9.42587935203
11
106.49586026
21
8.72879152965
0
LINE
8
0
10
106.49586026
20
8.72879152965
11
106.290318247
21
7.84680206741
0
LINE
8
0
10
106.290318247
20
7.84680206741
11
106.118874949
21
6.77862800939
0
LINE
8
0
10
106.118874949
20
6.77862800939
11
106.033304622
21
5.8232736072
0
LINE
8
0
10
106.033304622
20
5.8232736072
11
106.859163579
21
5.28695452946
0
LINE
8
0
10
106.859163579
20
5.28695452946
11
107.736559003
21
4.83989923141
0
LINE
8
0
10
107.736559003
20
4.83989923141
11
108.521135022
21
5.39168250945
0
LINE
8
0
10
108.521135022
20
5.39168250945
11
109.360479243
21
6.07424379007
0
LINE
8
0
10
109.360479243
20
6.07424379007
11
110.021533516
21
6.69324312593
0
LINE
8
0
10
110.021533516
20
6.69324312593
11
110.517881441
21
7.22771894615
0
LINE
8
0
10
110.517881441
20
7.22771894615
11
110.865119955
21
7.65833738607
0
LINE
8
0
10
110.865119955
20
7.65833738607
11
111.196931883
21
8.13430215024
0
LINE
8
0
10
111.196931883
20
8.13430215024
11
111.479097361
21
8.41974483883
0
LINE
8
0
10
111.479097361
20
8.41974483883
11
111.710761205
21
8.51223200196
0
LINE
8
0
10
111.710761205
20
8.51223200196
11
113.791007066
21
7.58604687202
0
LINE
8
0
10
113.791007066
20
7.58604687202
11
113.877289078
21
7.35200109362
0
LINE
8
0
10
113.877289078
20
7.35200109362
11
113.853969378
21
6.95131283956
0
LINE
8
0
10
113.853969378
20
6.95131283956
11
113.722284143
21
6.38624593119
0
LINE
8
0
10
113.722284143
20
6.38624593119
11
113.634620195
21
5.84005744841
0
LINE
8
0
10
113.634620195
20
5.84005744841
11
113.569548843
21
5.11356492655
0
LINE
8
0
10
113.569548843
20
5.11356492655
11
113.551874337
21
4.20811446274
0
LINE
8
0
10
113.551874337
20
4.20811446274
11
113.60626336
21
3.1276375047
0
LINE
8
0
10
113.60626336
20
3.1276375047
11
113.721192299
21
2.175368817
0
LINE
8
0
10
113.721192299
20
2.175368817
11
114.640511263
21
1.82247533005
0
LINE
8
0
10
114.640511263
20
1.82247533005
11
115.591681515
21
1.56761002909
0
LINE
8
0
10
115.591681515
20
1.56761002909
11
116.244390471
21
2.27045804519
0
LINE
8
0
10
116.244390471
20
2.27045804519
11
116.923480537
21
3.11261320031
0
LINE
8
0
10
116.923480537
20
3.11261320031
11
117.44139199
21
3.85552682731
0
LINE
8
0
10
117.44139199
20
3.85552682731
11
117.815769751
21
4.48151960485
0
LINE
8
0
10
117.815769751
20
4.48151960485
11
118.065889662
21
4.97492294528
0
LINE
8
0
10
118.065889662
20
4.97492294528
11
118.291492064
21
5.50947431631
0
LINE
8
0
10
118.291492064
20
5.50947431631
11
118.508144677
21
5.84734489888
0
LINE
8
0
10
118.508144677
20
5.84734489888
11
118.715516948
21
5.98597661708
0
LINE
8
0
10
118.715516948
20
5.98597661708
11
120.942869163
21
5.51253828873
0
LINE
8
0
10
120.942869163
20
5.51253828873
11
121.075926559
21
5.30154601106
0
LINE
8
0
10
121.075926559
20
5.30154601106
11
121.136424223
21
4.90476531851
0
LINE
8
0
10
121.136424223
20
4.90476531851
11
121.125100642
21
4.32466757792
0
LINE
8
0
10
121.125100642
20
4.32466757792
11
121.152911333
21
3.77218826431
0
LINE
8
0
10
121.152911333
20
3.77218826431
11
121.240308235
21
3.04804225228
0
LINE
8
0
10
121.240308235
20
3.04804225228
11
121.411273696
21
2.15870331701
0
LINE
8
0
10
121.411273696
20
2.15870331701
11
121.68911798
21
1.11314548672
0
LINE
8
0
10
121.68911798
20
1.11314548672
11
121.999523239
21
0.205581224637
0
LINE
8
0
10
121.999523239
20
0.205581224637
11
122.972123559
21
0.0515364672392
0
LINE
8
0
10
122.972123559
20
0.0515364672392
11
123.955497935
21
0.0
0
LINE
8
0
10
123.955497935
20
0.0
11
124.447813315
21
0.823194923227
0
LINE
8
0
10
124.447813315
20
0.823194923227
11
124.936969731
21
1.78813773145
0
LINE
8
0
10
124.936969731
20
1.78813773145
11
125.289103148
21
2.62249675919
0
LINE
8
0
10
125.289103148
20
2.62249675919
11
125.525148639
21
3.31264760583
0
LINE
8
0
10
125.525148639
20
3.31264760583
11
125.667218508
21
3.84727175317
0
LINE
8
0
10
125.667218508
20
3.84727175317
11
125.776751477
21
4.41704727109
0
LINE
8
0
10
125.776751477
20
4.41704727109
11
125.918422467
21
4.7925791819
0
LINE
8
0
10
125.918422467
20
4.7925791819
11
126.092440001
21
4.97129658387
0
LINE
8
0
10
126.092440001
20
4.97129658387
11
128.369552589
21
4.97129658387
0
LINE
8
0
10
128.369552589
20
4.97129658387
11
128.543570123
21
4.7925791819
0
LINE
8
0
10
128.543570123
20
4.7925791819
11
128.685241112
21
4.41704727109
0
LINE
8
0
10
128.685241112
20
4.41704727109
11
128.794774081
21
3.84727175317
0
LINE
8
0
10
128.794774081
20
3.84727175317
11
128.93684395
21
3.31264760583
0
LINE
8
0
10
128.93684395
20
3.31264760583
11
129.172889441
21
2.62249675919
0
LINE
8
0
10
129.172889441
20
2.62249675919
11
129.525022858
21
1.78813773145
0
LINE
8
0
10
129.525022858
20
1.78813773145
11
130.014179275
21
0.823194923234
0
LINE
8
0
10
130.014179275
20
0.823194923234
11
130.506494654
21
7.1054273576e-15
0
LINE
8
0
10
130.506494654
20
7.1054273576e-15
11
131.48986903
21
0.0515364672392
0
LINE
8
0
10
131.48986903
20
0.0515364672392
11
132.46246935
21
0.205581224637
0
LINE
8
0
10
132.46246935
20
0.205581224637
11
132.772874609
21
1.11314548671
0
LINE
8
0
10
132.772874609
20
1.11314548671
11
133.050718894
21
2.15870331701
0
LINE
8
0
10
133.050718894
20
2.15870331701
11
133.221684354
21
3.04804225228
0
LINE
8
0
10
133.221684354
20
3.04804225228
11
133.309081256
21
3.77218826431
0
LINE
8
0
10
133.309081256
20
3.77218826431
11
133.336891947
21
4.32466757792
0
LINE
8
0
10
133.336891947
20
4.32466757792
11
133.325568366
21
4.90476531851
0
LINE
8
0
10
133.325568366
20
4.90476531851
11
133.38606603
21
5.30154601106
0
LINE
8
0
10
133.38606603
20
5.30154601106
11
133.519123427
21
5.51253828873
0
LINE
8
0
10
133.519123427
20
5.51253828873
11
135.746475641
21
5.98597661708
0
LINE
8
0
10
135.746475641
20
5.98597661708
11
135.953847912
21
5.84734489888
0
LINE
8
0
10
135.953847912
20
5.84734489888
11
136.170500525
21
5.50947431631
0
LINE
8
0
10
136.170500525
20
5.50947431631
11
136.396102927
21
4.97492294528
0
LINE
8
0
10
136.396102927
20
4.97492294528
11
136.646222838
21
4.48151960485
0
LINE
8
0
10
136.646222838
20
4.48151960485
11
137.020600599
21
3.85552682731
0
LINE
8
0
10
137.020600599
20
3.85552682731
11
137.538512052
21
3.11261320031
0
LINE
8
0
10
137.538512052
20
3.11261320031
11
138.217602118
21
2.2704580452
0
LINE
8
0
10
138.217602118
20
2.2704580452
11
138.870311074
21
1.56761002909
0
LINE
8
0
10
138.870311074
20
1.56761002909
11
139.821481326
21
1.82247533005
0
LINE
8
0
10
139.821481326
20
1.82247533005
11
140.74080029
21
2.175368817
0
LINE
8
0
10
140.74080029
20
2.175368817
11
140.855729229
21
3.1276375047
0
LINE
8
0
10
140.855729229
20
3.1276375047
11
140.910118253
21
4.20811446274
0
LINE
8
0
10
140.910118253
20
4.20811446274
11
140.892443746
21
5.11356492655
0
LINE
8
0
10
140.892443746
20
5.11356492655
11
140.827372394
21
5.84005744841
0
LINE
8
0
10
140.827372394
20
5.84005744841
11
140.739708446
21
6.38624593119
0
LINE
8
0
10
140.739708446
20
6.38624593119
11
140.608023211
21
6.95131283956
0
LINE
8
0
10
140.608023211
20
6.95131283956
11
140.584703511
21
7.35200109362
0
LINE
8
0
10
140.584703511
20
7.35200109362
11
140.670985523
21
7.58604687202
0
LINE
8
0
10
140.670985523
20
7.58604687202
11
142.751231384
21
8.51223200196
0
LINE
8
0
10
142.751231384
20
8.51223200196
11
142.982895228
21
8.41974483883
0
LINE
8
0
10
142.982895228
20
8.41974483883
11
143.265060706
21
8.13430215024
0
LINE
8
0
10
143.265060706
20
8.13430215024
11
143.596872634
21
7.65833738607
0
LINE
8
0
10
143.596872634
20
7.65833738607
11
143.944111148
21
7.22771894615
0
LINE
8
0
10
143.944111148
20
7.22771894615
11
144.440459073
21
6.69324312593
0
LINE
8
0
10
144.440459073
20
6.69324312593
11
145.101513347
21
6.07424379007
0
LINE
8
0
10
145.101513347
20
6.07424379007
11
145.940857567
21
5.39168250945
0
LINE
8
0
10
145.940857567
20
5.39168250945
11
146.725433586
21
4.83989923141
0
LINE
8
0
10
146.725433586
20
4.83989923141
11
147.60282901
21
5.28695452946
0
LINE
8
0
10
147.60282901
20
5.28695452946
11
148.428687968
21
5.8232736072
0
LINE
8
0
10
148.428687968
20
5.8232736072
11
148.343117641
21
6.77862800938
0
LINE
8
0
10
148.343117641
20
6.77862800938
11
148.171674342
21
7.84680206741
0
LINE
8
0
10
148.171674342
20
7.84680206741
11
147.966132329
21
8.72879152965
0
LINE
8
0
10
147.966132329
20
8.72879152965
11
147.751436654
21
9.42587935203
0
LINE
8
0
10
147.751436654
20
9.42587935203
11
147.552129403
21
9.94190594638
0
LINE
8
0
10
147.552129403
20
9.94190594638
11
147.30583779
21
10.4672458872
0
LINE
8
0
10
147.30583779
20
10.4672458872
11
147.199719909
21
10.8543297033
0
LINE
8
0
10
147.199719909
20
10.8543297033
11
147.235455598
21
11.1012000588
0
LINE
8
0
10
147.235455598
20
11.1012000588
11
149.07767838
21
12.4396532559
0
LINE
8
0
10
149.07767838
20
12.4396532559
11
149.323508975
21
12.3973527806
0
LINE
8
0
10
149.323508975
20
12.3973527806
11
149.658855332
21
12.1768132012
0
LINE
8
0
10
149.658855332
20
12.1768132012
11
150.082375012
21
11.780236988
0
LINE
8
0
10
150.082375012
20
11.780236988
11
150.51155614
21
11.4312235408
0
LINE
8
0
10
150.51155614
20
11.4312235408
11
151.108181443
21
11.0116238359
0
LINE
8
0
10
151.108181443
20
11.0116238359
11
151.883487294
21
10.5435920325
0
LINE
8
0
10
151.883487294
20
10.5435920325
11
152.846402299
21
10.0504558296
0
LINE
8
0
10
152.846402299
20
10.0504558296
11
153.728555644
21
9.67385286663
0
LINE
8
0
10
153.728555644
20
9.67385286663
11
154.49382985
21
10.2935597
0
LINE
8
0
10
154.49382985
20
10.2935597
11
155.190134801
21
10.9898646513
0
LINE
8
0
10
155.190134801
20
10.9898646513
11
154.907805042
21
11.9065511963
0
LINE
8
0
10
154.907805042
20
11.9065511963
11
154.518022317
21
12.9157380223
0
LINE
8
0
10
154.518022317
20
12.9157380223
11
154.13359597
21
13.7357193112
0
LINE
8
0
10
154.13359597
20
13.7357193112
11
153.778659202
21
14.3729363513
0
LINE
8
0
10
153.778659202
20
14.3729363513
11
153.476419331
21
14.8362482189
0
LINE
8
0
10
153.476419331
20
14.8362482189
11
153.126285465
21
15.2989013158
0
LINE
8
0
10
153.126285465
20
15.2989013158
11
152.942007264
21
15.6554632738
0
LINE
8
0
10
152.942007264
20
15.6554632738
11
152.925634809
21
15.9043687873
0
LINE
8
0
10
152.925634809
20
15.9043687873
11
154.449320536
21
17.5965932241
0
LINE
8
0
10
154.449320536
20
17.5965932241
11
154.698573907
21
17.6063281705
0
LINE
8
0
10
154.698573907
20
17.6063281705
11
155.072444898
21
17.4603303382
0
LINE
8
0
10
155.072444898
20
17.4603303382
11
155.569162488
21
17.1604749595
0
LINE
8
0
10
155.569162488
20
17.1604749595
11
156.061528954
21
16.9083200673
0
LINE
8
0
10
156.061528954
20
16.9083200673
11
156.732356247
21
16.6219349984
0
LINE
8
0
10
156.732356247
20
16.6219349984
11
157.588029088
21
16.325325963
0
LINE
8
0
10
157.588029088
20
16.325325963
11
158.632430872
21
16.0431672563
0
LINE
8
0
10
158.632430872
20
16.0431672563
11
159.573607208
21
15.858203965
0
LINE
8
0
10
159.573607208
20
15.858203965
11
160.193314042
21
16.6234781715
0
LINE
8
0
10
160.193314042
20
16.6234781715
11
160.72963312
21
17.4493371287
0
LINE
8
0
10
160.72963312
20
17.4493371287
11
160.262883094
21
18.2872922157
0
LINE
8
0
10
160.262883094
20
18.2872922157
11
159.671796317
21
19.1933855028
0
LINE
8
0
10
159.671796317
20
19.1933855028
11
159.125286911
21
19.9155215014
0
LINE
8
0
10
159.125286911
20
19.9155215014
11
158.645621491
21
20.4650183168
0
LINE
8
0
10
158.645621491
20
20.4650183168
11
158.253658333
21
20.8553665057
0
LINE
8
0
10
158.253658333
20
20.8553665057
11
157.814984744
21
21.2351125984
0
LINE
8
0
10
157.814984744
20
21.2351125984
11
157.560600064
21
21.5455692298
0
LINE
8
0
10
157.560600064
20
21.5455692298
11
157.492835021
21
21.7856315359
0
LINE
8
0
10
157.492835021
20
21.7856315359
11
158.631391315
21
23.7576688844
0
LINE
8
0
10
158.631391315
20
23.7576688844
11
158.873173892
21
23.8190137886
0
LINE
8
0
10
158.873173892
20
23.8190137886
11
159.269229562
21
23.7539385092
0
LINE
8
0
10
159.269229562
20
23.7539385092
11
159.817436119
21
23.5639090839
0
LINE
8
0
10
159.817436119
20
23.5639090839
11
160.351469147
21
23.4196331255
0
LINE
8
0
10
160.351469147
20
23.4196331255
11
161.067180058
21
23.2789790943
0
LINE
8
0
10
161.067180058
20
23.2789790943
11
161.96582288
21
23.1667560651
0
LINE
8
0
10
161.96582288
20
23.1667560651
11
163.046066074
21
23.107906544
0
LINE
8
0
10
163.046066074
20
23.107906544
11
164.005131479
21
23.1226667077
0
LINE
8
0
10
164.005131479
20
23.1226667077
11
164.452186777
21
24.0000621322
0
LINE
8
0
10
164.452186777
20
24.0000621322
11
164.805080264
21
24.9193810961
0
LINE
8
0
10
164.805080264
20
24.9193810961
11
164.174309187
21
25.6419820669
0
LINE
8
0
10
164.174309187
20
25.6419820669
11
163.407751687
21
26.4053811904
0
LINE
8
0
10
163.407751687
20
26.4053811904
11
162.723044307
21
26.9981110903
0
LINE
8
0
10
162.723044307
20
26.9981110903
11
162.139613915
21
27.4358720334
0
LINE
8
0
10
162.139613915
20
27.4358720334
11
161.67505814
21
27.7361964549
0
LINE
8
0
10
161.67505814
20
27.7361964549
11
161.16701697
21
28.0164388168
0
LINE
8
0
10
161.16701697
20
28.0164388168
11
160.853643642
21
28.267221677
0
LINE
8
0
10
160.853643642
20
28.267221677
11
160.737447668
21
28.4879489011
0
LINE
8
0
10
160.737447668
20
28.4879489011
11
161.441114156
21
30.6536116662
0
LINE
8
0
10
161.441114156
20
30.6536116662
11
161.664858881
21
30.7638854615
0
LINE
8
0
10
161.664858881
20
30.7638854615
11
162.065789695
21
30.782576837
0
LINE
8
0
10
162.065789695
20
30.782576837
11
162.641525963
21
30.7106785628
0
LINE
8
0
10
162.641525963
20
30.7106785628
11
163.193885746
21
30.68058709
0
LINE
8
0
10
163.193885746
20
30.68058709
11
163.923200274
21
30.6918113525
0
LINE
8
0
10
163.923200274
20
30.6918113525
11
164.825538075
21
30.7688790144
0
LINE
8
0
10
164.825538075
20
30.7688790144
11
165.894410866
21
30.9359106853
0
LINE
8
0
10
165.894410866
20
30.9359106853
11
166.829449581
21
31.1497492142
0
LINE
8
0
10
127.542863831
20
39.1047824353
11
127.230996295
21
39.0720038365
0
LINE
8
0
10
127.230996295
20
39.0720038365
11
126.919128758
21
39.1047824353
0
LINE
8
0
10
126.919128758
20
39.1047824353
11
126.62089133
21
39.20168565
0
LINE
8
0
10
126.62089133
20
39.20168565
11
126.349318416
21
39.3584783449
0
LINE
8
0
10
126.349318416
20
39.3584783449
11
126.116279056
21
39.5683079269
0
LINE
8
0
10
126.116279056
20
39.5683079269
11
125.931958189
21
39.8220038365
0
LINE
8
0
10
125.931958189
20
39.8220038365
11
125.80441152
21
40.1084783449
0
LINE
8
0
10
125.80441152
20
40.1084783449
11
125.739213452
21
40.4152111415
0
LINE
8
0
10
125.739213452
20
40.4152111415
11
125.739213452
21
40.7287965314
0
LINE
8
0
10
125.739213452
20
40.7287965314
11
125.80441152
21
41.035529328
0
LINE
8
0
10
125.80441152
20
41.035529328
11
125.931958189
21
41.3220038365
0
LINE
8
0
10
125.931958189
20
41.3220038365
11
126.116279056
21
41.575699746
0
LINE
8
0
10
126.116279056
20
41.575699746
11
126.349318416
21
41.785529328
0
LINE
8
0
10
126.349318416
20
41.785529328
11
126.62089133
21
41.9423220229
0
LINE
8
0
10
126.62089133
20
41.9423220229
11
126.919128758
21
42.0392252376
0
LINE
8
0
10
126.919128758
20
42.0392252376
11
127.230996295
21
42.0720038365
0
LINE
8
0
10
127.230996295
20
42.0720038365
11
127.542863831
21
42.0392252376
0
LINE
8
0
10
127.542863831
20
42.0392252376
11
127.841101259
21
41.9423220229
0
LINE
8
0
10
127.841101259
20
41.9423220229
11
128.112674173
21
41.785529328
0
LINE
8
0
10
128.112674173
20
41.785529328
11
128.345713533
21
41.575699746
0
LINE
8
0
10
128.345713533
20
41.575699746
11
128.5300344
21
41.3220038365
0
LINE
8
0
10
128.5300344
20
41.3220038365
11
128.657581069
21
41.035529328
0
LINE
8
0
10
128.657581069
20
41.035529328
11
128.722779138
21
40.7287965314
0
LINE
8
0
10
128.722779138
20
40.7287965314
11
128.722779138
21
40.4152111415
0
LINE
8
0
10
128.722779138
20
40.4152111415
11
128.657581069
21
40.1084783449
0
LINE
8
0
10
128.657581069
20
40.1084783449
11
128.5300344
21
39.8220038365
0
LINE
8
0
10
128.5300344
20
39.8220038365
11
128.345713533
21
39.5683079269
0
LINE
8
0
10
128.345713533
20
39.5683079269
11
128.112674173
21
39.3584783449
0
LINE
8
0
10
128.112674173
20
39.3584783449
11
127.841101259
21
39.20168565
0
LINE
8
0
10
127.841101259
20
39.20168565
11
127.542863831
21
39.1047824353
0
ENDSEC
0
EOF
