  0
SECTION
  2
BLOCKS
  0
ENDSEC
  0
SECTION
  2
ENTITIES
  0
LINE
  8
0
 10
64.20295375820614
 20
-9.326302763342593
 11
64.40209954933272
 21
-8.303731215385472
  0
LINE
  8
0
 10
64.40209954933272
 20
-8.303731215385472
 11
64.46884680909487
 21
-7.264088767171043
  0
LINE
  8
0
 10
64.46884680909487
 20
-7.264088767171043
 11
63.59260590676326
 21
-6.76018456663369
  0
LINE
  8
0
 10
63.59260590676326
 20
-6.76018456663369
 11
62.70800444366431
 21
-6.3006091462887674
  0
LINE
  8
0
 10
62.70800444366431
 20
-6.3006091462887674
 11
61.90232772682659
 21
-5.924844529596994
  0
LINE
  8
0
 10
61.90232772682659
 20
-5.924844529596994
 11
61.18094374941238
 21
-5.625223076003681
  0
LINE
  8
0
 10
61.18094374941238
 20
-5.625223076003681
 11
60.548706005510645
 21
-5.393779199359528
  0
LINE
  8
0
 10
60.548706005510645
 20
-5.393779199359528
 11
59.916907163962684
 21
-5.192665986526554
  0
LINE
  8
0
 10
59.916907163962684
 20
-5.192665986526554
 11
59.697287818869725
 21
-5.082099728049552
  0
LINE
  8
0
 10
59.697287818869725
 20
-5.082099728049552
 11
59.59646144233829
 21
-4.967120169781476
  0
LINE
  8
0
 10
59.59646144233829
 20
-4.967120169781476
 11
59.742356546770495
 21
-2.69468615383582
  0
LINE
  8
0
 10
59.742356546770495
 20
-2.69468615383582
 11
59.85705839970781
 21
-2.5935439670078018
  0
LINE
  8
0
 10
59.85705839970781
 20
-2.5935439670078018
 11
60.08901357232693
 21
-2.511969754493159
  0
LINE
  8
0
 10
60.08901357232693
 20
-2.511969754493159
 11
60.74134314095267
 21
-2.3933003209616874
  0
LINE
  8
0
 10
60.74134314095267
 20
-2.3933003209616874
 11
61.39798660775022
 21
-2.2446053635447485
  0
LINE
  8
0
 10
61.39798660775022
 20
-2.2446053635447485
 11
62.15176277374722
 21
-2.0396923334601493
  0
LINE
  8
0
 10
62.15176277374722
 20
-2.0396923334601493
 11
62.99887660851876
 21
-1.7700403908634372
  0
LINE
  8
0
 10
62.99887660851876
 20
-1.7700403908634372
 11
63.93498470616765
 21
-1.4273584026896802
  0
LINE
  8
0
 10
63.93498470616765
 20
-1.4273584026896802
 11
64.86846952173104
 21
-1.0396424482144107
  0
LINE
  8
0
 10
64.86846952173104
 20
-1.0396424482144107
 11
64.93521678149322
 21
-2.6645352591003757e-15
  0
LINE
  8
0
 10
64.93521678149322
 20
-2.6645352591003757e-15
 11
64.86846952173111
 21
1.0396424482144222
  0
LINE
  8
0
 10
64.86846952173111
 20
1.0396424482144222
 11
63.93498470616949
 21
1.4273584026889172
  0
LINE
  8
0
 10
63.93498470616949
 20
1.4273584026889172
 11
62.998876608520845
 21
1.7700403908625761
  0
LINE
  8
0
 10
62.998876608520845
 20
1.7700403908625761
 11
62.151762773747286
 21
2.039692333461098
  0
LINE
  8
0
 10
62.151762773747286
 20
2.039692333461098
 11
61.397986607750475
 21
2.244605363545742
  0
LINE
  8
0
 10
61.397986607750475
 20
2.244605363545742
 11
60.74134314095209
 21
2.3933003209619814
  0
LINE
  8
0
 10
60.74134314095209
 20
2.3933003209619814
 11
60.08901357232539
 21
2.511969754484923
  0
LINE
  8
0
 10
60.08901357232539
 20
2.511969754484923
 11
59.85705839970768
 21
2.593543967006716
  0
LINE
  8
0
 10
59.85705839970768
 20
2.593543967006716
 11
59.74235654677076
 21
2.6946861538370284
  0
LINE
  8
0
 10
59.74235654677076
 20
2.6946861538370284
 11
59.59646144233787
 21
4.967120169782639
  0
LINE
  8
0
 10
59.59646144233787
 20
4.967120169782639
 11
59.69728781886999
 21
5.082099728048491
  0
LINE
  8
0
 10
59.69728781886999
 20
5.082099728048491
 11
59.91690716396525
 21
5.1926659865185805
  0
LINE
  8
0
 10
59.91690716396525
 20
5.1926659865185805
 11
60.54870600551118
 21
5.393779199359894
  0
LINE
  8
0
 10
60.54870600551118
 20
5.393779199359894
 11
61.18094374941199
 21
5.625223076004632
  0
LINE
  8
0
 10
61.18094374941199
 20
5.625223076004632
 11
61.9023277268264
 21
5.924844529597925
  0
LINE
  8
0
 10
61.9023277268264
 20
5.924844529597925
 11
62.70800444366235
 21
6.300609146287646
  0
LINE
  8
0
 10
62.70800444366235
 20
6.300609146287646
 11
63.59260590676153
 21
6.760184566632695
  0
LINE
  8
0
 10
63.59260590676153
 20
6.760184566632695
 11
64.46884680909486
 21
7.264088767171048
  0
LINE
  8
0
 10
64.46884680909486
 20
7.264088767171048
 11
64.40209954933266
 21
8.30373121538545
  0
LINE
  8
0
 10
64.40209954933266
 20
8.30373121538545
 11
64.20295375820608
 21
9.32630276334266
  0
LINE
  8
0
 10
64.20295375820608
 20
9.32630276334266
 11
63.22755282427849
 21
9.59146418650082
  0
LINE
  8
0
 10
63.22755282427849
 20
9.59146418650082
 11
62.25530896116343
 21
9.811625913731362
  0
LINE
  8
0
 10
62.25530896116343
 20
9.811625913731362
 11
61.38066759420129
 21
9.970737504794096
  0
LINE
  8
0
 10
61.38066759420129
 20
9.970737504794096
 11
60.60687622342829
 21
10.077577445081207
  0
LINE
  8
0
 10
60.60687622342829
 20
10.077577445081207
 11
59.93660910130418
 21
10.141081916179655
  0
LINE
  8
0
 10
59.93660910130418
 20
10.141081916179655
 11
59.27446003908098
 21
10.17535902157491
  0
LINE
  8
0
 10
59.27446003908098
 20
10.17535902157491
 11
59.033977736460145
 21
10.226601741827125
  0
LINE
  8
0
 10
59.033977736460145
 20
10.226601741827125
 11
58.90728380837186
 21
10.312245805308146
  0
LINE
  8
0
 10
58.90728380837186
 20
10.312245805308146
 11
58.471994088655165
 21
12.547366517536718
  0
LINE
  8
0
 10
58.471994088655165
 20
12.547366517536718
 11
58.55728942246693
 21
12.674295486072458
  0
LINE
  8
0
 10
58.55728942246693
 20
12.674295486072458
 11
58.760966796463585
 21
12.812038295590686
  0
LINE
  8
0
 10
58.760966796463585
 20
12.812038295590686
 11
59.361860791418536
 21
13.09229301434706
  0
LINE
  8
0
 10
59.361860791418536
 20
13.09229301434706
 11
59.9593114861469
 21
13.402685508163703
  0
LINE
  8
0
 10
59.9593114861469
 20
13.402685508163703
 11
60.63645817001331
 21
13.79209560928117
  0
LINE
  8
0
 10
60.63645817001331
 20
13.79209560928117
 11
61.387468579497366
 21
14.267802855446426
  0
LINE
  8
0
 10
61.387468579497366
 20
14.267802855446426
 11
62.20603827647887
 21
14.836725492266352
  0
LINE
  8
0
 10
62.20603827647887
 20
14.836725492266352
 11
63.010647414190714
 21
15.44854384582612
  0
LINE
  8
0
 10
63.010647414190714
 20
15.44854384582612
 11
62.81150162306411
 21
16.47111539378331
  0
LINE
  8
0
 10
62.81150162306411
 20
16.47111539378331
 11
62.483227268957805
 21
17.459825444936385
  0
LINE
  8
0
 10
62.483227268957805
 20
17.459825444936385
 11
61.48192627303286
 21
17.598078393540728
  0
LINE
  8
0
 10
61.48192627303286
 20
17.598078393540728
 11
60.489510861804625
 21
17.692104810353722
  0
LINE
  8
0
 10
60.489510861804625
 20
17.692104810353722
 11
59.60170354971865
 21
17.738063441954292
  0
LINE
  8
0
 10
59.60170354971865
 20
17.738063441954292
 11
58.82060260708492
 21
17.745075983578108
  0
LINE
  8
0
 10
58.82060260708492
 20
17.745075983578108
 11
58.147717597249844
 21
17.722347226699004
  0
LINE
  8
0
 10
58.147717597249844
 20
17.722347226699004
 11
57.48662151072573
 21
17.671669174843622
  0
LINE
  8
0
 10
57.48662151072573
 20
17.671669174843622
 11
57.24156079086233
 21
17.6917389987764
  0
LINE
  8
0
 10
57.24156079086233
 20
17.6917389987764
 11
57.104955098419246
 21
17.760478665753535
  0
LINE
  8
0
 10
57.104955098419246
 20
17.760478665753535
 11
56.387418208582275
 21
19.921585453963516
  0
LINE
  8
0
 10
56.387418208582275
 20
19.921585453963516
 11
56.455781952650604
 21
20.05837966261493
  0
LINE
  8
0
 10
56.455781952650604
 20
20.05837966261493
 11
56.64017297869859
 21
20.221037290057108
  0
LINE
  8
0
 10
56.64017297869859
 20
20.221037290057108
 11
57.20029546427801
 21
20.57583173999463
  0
LINE
  8
0
 10
57.20029546427801
 20
20.57583173999463
 11
57.75314898594392
 21
20.960076214815967
  0
LINE
  8
0
 10
57.75314898594392
 20
20.960076214815967
 11
58.37493964643398
 21
21.432880860363085
  0
LINE
  8
0
 10
58.37493964643398
 20
21.432880860363085
 11
59.05895217840519
 21
22.000719636173482
  0
LINE
  8
0
 10
59.05895217840519
 20
22.000719636173482
 11
59.798049217475175
 21
22.669647795500413
  0
LINE
  8
0
 10
59.798049217475175
 20
22.669647795500413
 11
60.5178149307691
 21
23.379334261630817
  0
LINE
  8
0
 10
60.5178149307691
 20
23.379334261630817
 11
60.18954057666272
 21
24.36804431278385
  0
LINE
  8
0
 10
60.18954057666272
 20
24.36804431278385
 11
59.73752791539534
 21
25.306658275427186
  0
LINE
  8
0
 10
59.73752791539534
 20
25.306658275427186
 11
58.72676819214364
 21
25.31573263988383
  0
LINE
  8
0
 10
58.72676819214364
 20
25.31573263988383
 11
57.73047666641777
 21
25.28207983511471
  0
LINE
  8
0
 10
57.73047666641777
 20
25.28207983511471
 11
56.844081180727656
 21
25.214130867792836
  0
LINE
  8
0
 10
56.844081180727656
 20
25.214130867792836
 11
56.06849632211656
 21
25.12120086501376
  0
LINE
  8
0
 10
56.06849632211656
 20
25.12120086501376
 11
55.40404217782908
 21
25.012612085716686
  0
LINE
  8
0
 10
55.40404217782908
 20
25.012612085716686
 11
54.75485424646781
 21
24.877811008821066
  0
LINE
  8
0
 10
54.75485424646781
 20
24.877811008821066
 11
54.50923899960692
 21
24.866378390480293
  0
LINE
  8
0
 10
54.50923899960692
 20
24.866378390480293
 11
54.36496460450229
 21
24.917084957522178
  0
LINE
  8
0
 10
54.36496460450229
 20
24.917084957522178
 11
53.37696248043877
 21
26.96869250799819
  0
LINE
  8
0
 10
53.37696248043877
 20
26.96869250799819
 11
53.427272103976094
 21
27.113105799641097
  0
LINE
  8
0
 10
53.427272103976094
 20
27.113105799641097
 11
53.589349086525466
 21
27.298007411261544
  0
LINE
  8
0
 10
53.589349086525466
 20
27.298007411261544
 11
54.09950286700157
 21
27.721515877321053
  0
LINE
  8
0
 10
54.09950286700157
 20
27.721515877321053
 11
54.59868137606372
 21
28.173303049493537
  0
LINE
  8
0
 10
54.59868137606372
 20
28.173303049493537
 11
55.1549062277225
 21
28.721738800261807
  0
LINE
  8
0
 10
55.1549062277225
 20
28.721738800261807
 11
55.76068941531647
 21
29.37238520871729
  0
LINE
  8
0
 10
55.76068941531647
 20
29.37238520871729
 11
56.408177843526836
 21
30.130335108668596
  0
LINE
  8
0
 10
56.408177843526836
 20
30.130335108668596
 11
57.03128159928941
 21
30.926236655216066
  0
LINE
  8
0
 10
57.03128159928941
 20
30.926236655216066
 11
56.57926893802202
 21
31.86485061785938
  0
LINE
  8
0
 10
56.57926893802202
 20
31.86485061785938
 11
56.01094000499517
 21
32.737956476675805
  0
LINE
  8
0
 10
56.01094000499517
 20
32.737956476675805
 11
55.00731820112856
 21
32.61770325617124
  0
LINE
  8
0
 10
55.00731820112856
 20
32.61770325617124
 11
54.02350964021352
 21
32.45692380794394
  0
LINE
  8
0
 10
54.02350964021352
 20
32.45692380794394
 11
53.15308057028857
 21
32.276182961864485
  0
LINE
  8
0
 10
53.15308057028857
 20
32.276182961864485
 11
52.39574687763629
 21
32.08483632275897
  0
LINE
  8
0
 10
52.39574687763629
 20
32.08483632275897
 11
51.7506339175758
 21
31.892170545797885
  0
LINE
  8
0
 10
51.7506339175758
 20
31.892170545797885
 11
51.12401378926255
 21
31.675459873817875
  0
LINE
  8
0
 10
51.12401378926255
 20
31.675459873817875
 11
50.881877010967216
 21
31.632712536480636
  0
LINE
  8
0
 10
50.881877010967216
 20
31.632712536480636
 11
50.73230289477998
 21
31.66455340315831
  0
LINE
  8
0
 10
50.73230289477998
 20
31.66455340315831
 11
49.49005850405225
 21
33.57297437664128
  0
LINE
  8
0
 10
49.49005850405225
 20
33.57297437664128
 11
49.521487924430964
 21
33.72263548901943
  0
LINE
  8
0
 10
49.521487924430964
 20
33.72263548901943
 11
49.65858956390912
 21
33.92674500546722
  0
LINE
  8
0
 10
49.65858956390912
 20
33.92674500546722
 11
50.11039792831044
 21
34.41201349034454
  0
LINE
  8
0
 10
50.11039792831044
 20
34.41201349034454
 11
50.547704927450575
 21
34.92392502699142
  0
LINE
  8
0
 10
50.547704927450575
 20
34.92392502699142
 11
51.029230773591514
 21
35.53898658311556
  0
LINE
  8
0
 10
51.029230773591514
 20
35.53898658311556
 11
51.54683767361573
 21
36.26175702817738
  0
LINE
  8
0
 10
51.54683767361573
 20
36.26175702817738
 11
52.092085748876045
 21
37.09628315235052
  0
LINE
  8
0
 10
52.092085748876045
 20
37.09628315235052
 11
52.60829620066437
 21
37.96533109792467
  0
LINE
  8
0
 10
52.60829620066437
 20
37.96533109792467
 11
52.03996726763744
 21
38.838436956741035
  0
LINE
  8
0
 10
52.03996726763744
 20
38.838436956741035
 11
51.364654008219006
 21
39.631698337667075
  0
LINE
  8
0
 10
51.364654008219006
 20
39.631698337667075
 11
50.38464956601035
 21
39.384092086757406
  0
LINE
  8
0
 10
50.38464956601035
 20
39.384092086757406
 11
49.429478079277494
 21
39.09882598916681
  0
LINE
  8
0
 10
49.429478079277494
 20
39.09882598916681
 11
48.58930784638157
 21
38.80826102402556
  0
LINE
  8
0
 10
48.58930784638157
 20
38.80826102402556
 11
47.86266071798384
 21
38.521639655117646
  0
LINE
  8
0
 10
47.86266071798384
 20
38.521639655117646
 11
47.24748167911942
 21
38.24806044722372
  0
LINE
  8
0
 10
47.24748167911942
 20
38.24806044722372
 11
46.65371843903723
 21
37.95299856340195
  0
LINE
  8
0
 10
46.65371843903723
 20
37.95299856340195
 11
46.419036008512855
 21
37.8796384171655
  0
LINE
  8
0
 10
46.419036008512855
 20
37.8796384171655
 11
46.26661817409559
 21
37.8920907573284
  0
LINE
  8
0
 10
46.26661817409559
 20
37.8920907573284
 11
44.7905291352557
 21
39.625988934194886
  0
LINE
  8
0
 10
44.7905291352557
 20
39.625988934194886
 11
44.8025622822621
 21
39.778440435980635
  0
LINE
  8
0
 10
44.8025622822621
 20
39.778440435980635
 11
44.91243737353919
 21
39.998406384638606
  0
LINE
  8
0
 10
44.91243737353919
 20
39.998406384638606
 11
45.298481641013176
 21
40.53746679322803
  0
LINE
  8
0
 10
45.298481641013176
 20
40.53746679322803
 11
45.666736561395425
 21
41.10109712107013
  0
LINE
  8
0
 10
45.666736561395425
 20
41.10109712107013
 11
46.06565676093739
 21
41.772685188802875
  0
LINE
  8
0
 10
46.06565676093739
 20
41.772685188802875
 11
46.486588282403446
 21
42.555711799745175
  0
LINE
  8
0
 10
46.486588282403446
 20
42.555711799745175
 11
46.92064304639215
 21
43.453111252252945
  0
LINE
  8
0
 10
46.92064304639215
 20
43.453111252252945
 11
47.321484032859225
 21
44.38103585361357
  0
LINE
  8
0
 10
47.321484032859225
 20
44.38103585361357
 11
46.64617077344075
 21
45.17429723453952
  0
LINE
  8
0
 10
46.64617077344075
 20
45.17429723453952
 11
45.874961812680326
 21
45.874688807631244
  0
LINE
  8
0
 10
45.874961812680326
 20
45.874688807631244
 11
44.934666377977074
 21
45.503795214111
  0
LINE
  8
0
 10
44.934666377977074
 20
45.503795214111
 11
44.023815854831426
 21
45.098726528592955
  0
LINE
  8
0
 10
44.023815854831426
 20
45.098726528592955
 11
43.227700030960925
 21
44.70310851308443
  0
LINE
  8
0
 10
43.227700030960925
 20
44.70310851308443
 11
42.54367099257678
 21
44.32591872932751
  0
LINE
  8
0
 10
42.54367099257678
 20
44.32591872932751
 11
41.96852709771903
 21
43.97591825353086
  0
LINE
  8
0
 10
41.96852709771903
 20
43.97591825353086
 11
41.4173703218546
 21
43.607350065842226
  0
LINE
  8
0
 10
41.4173703218546
 20
43.607350065842226
 11
41.19399571812223
 21
43.504581682279635
  0
LINE
  8
0
 10
41.19399571812223
 20
43.504581682279635
 11
41.04123686210226
 21
43.497441028846545
  0
LINE
  8
0
 10
41.04123686210226
 20
43.497441028846545
 11
39.355540516359284
 21
45.02834584896861
  0
LINE
  8
0
 10
39.355540516359284
 20
45.02834584896861
 11
39.347979806052194
 21
45.18108449071738
  0
LINE
  8
0
 10
39.347979806052194
 20
45.18108449071738
 11
39.42882420316712
 21
45.413295036789854
  0
LINE
  8
0
 10
39.42882420316712
 20
45.413295036789854
 11
39.742765537514614
 21
45.99729601208547
  0
LINE
  8
0
 10
39.742765537514614
 20
45.99729601208547
 11
40.03592164352725
 21
46.60339033672203
  0
LINE
  8
0
 10
40.03592164352725
 20
46.60339033672203
 11
40.345685937822495
 21
47.320477458558244
  0
LINE
  8
0
 10
40.345685937822495
 20
47.320477458558244
 11
40.66303039678523
 21
48.15090296007731
  0
LINE
  8
0
 10
40.66303039678523
 20
48.15090296007731
 11
40.9787646822777
 21
49.09644046671948
  0
LINE
  8
0
 10
40.9787646822777
 20
49.09644046671948
 11
41.25765440550756
 21
50.06800522756607
  0
LINE
  8
0
 10
41.25765440550756
 20
50.06800522756607
 11
40.486445444747126
 21
50.76839680065775
  0
LINE
  8
0
 10
40.486445444747126
 20
50.76839680065775
 11
39.632004012459205
 21
51.36441815564835
  0
LINE
  8
0
 10
39.632004012459205
 20
51.36441815564835
 11
38.746857210303304
 21
50.87632728206923
  0
LINE
  8
0
 10
38.746857210303304
 20
50.87632728206923
 11
37.89528379115308
 21
50.358107225241206
  0
LINE
  8
0
 10
37.89528379115308
 20
50.358107225241206
 11
37.15629457612614
 21
49.86393219624259
  0
LINE
  8
0
 10
37.15629457612614
 20
49.86393219624259
 11
36.52611536565486
 21
49.40236744345798
  0
LINE
  8
0
 10
36.52611536565486
 20
49.40236744345798
 11
36.00045046165664
 21
48.9816926978949
  0
LINE
  8
0
 10
36.00045046165664
 20
48.9816926978949
 11
35.50095012903211
 21
48.54567008579166
  0
LINE
  8
0
 10
35.50095012903211
 20
48.54567008579166
 11
35.29255115690951
 21
48.41518091891982
  0
LINE
  8
0
 10
35.29255115690951
 20
48.41518091891982
 11
35.14195957547943
 21
48.38856452122271
  0
LINE
  8
0
 10
35.14195957547943
 20
48.38856452122271
 11
33.27433501022688
 21
49.6913385697781
  0
LINE
  8
0
 10
33.27433501022688
 20
49.6913385697781
 11
33.24730458926051
 21
49.84185638721506
  0
LINE
  8
0
 10
33.24730458926051
 20
49.84185638721506
 11
33.29779082944769
 21
50.082498639955325
  0
LINE
  8
0
 10
33.29779082944769
 20
50.082498639955325
 11
33.534474322638104
 21
50.70185090208837
  0
LINE
  8
0
 10
33.534474322638104
 20
50.70185090208837
 11
33.74771799912513
 21
51.340457171465225
  0
LINE
  8
0
 10
33.74771799912513
 20
51.340457171465225
 11
33.96324006702523
 21
52.09126879668933
  0
LINE
  8
0
 10
33.96324006702523
 20
52.09126879668933
 11
34.17178667624192
 21
52.95545762500854
  0
LINE
  8
0
 10
34.17178667624192
 20
52.95545762500854
 11
34.36401613499933
 21
53.93360748606684
  0
LINE
  8
0
 10
34.36401613499933
 20
53.93360748606684
 11
34.51637523344687
 21
54.93285933988667
  0
LINE
  8
0
 10
34.51637523344687
 20
54.93285933988667
 11
33.661933801158995
 21
55.52888069487723
  0
LINE
  8
0
 10
33.661933801158995
 20
55.52888069487723
 11
32.73828980203949
 21
56.01074517759571
  0
LINE
  8
0
 10
32.73828980203949
 20
56.01074517759571
 11
31.922825718451058
 21
55.41347146260784
  0
LINE
  8
0
 10
31.922825718451058
 20
55.41347146260784
 11
31.14451221529571
 21
54.790609193475994
  0
LINE
  8
0
 10
31.14451221529571
 20
54.790609193475994
 11
30.474783791592607
 21
54.205991491301255
  0
LINE
  8
0
 10
30.474783791592607
 20
54.205991491301255
 11
29.90880193424788
 21
53.667630649969034
  0
LINE
  8
0
 10
29.90880193424788
 20
53.667630649969034
 11
29.441247424300048
 21
53.18318910233148
  0
LINE
  8
0
 10
29.441247424300048
 20
53.18318910233148
 11
29.001605316567673
 21
52.68687154504987
  0
LINE
  8
0
 10
29.001605316567673
 20
52.68687154504987
 11
28.811603881415593
 21
52.53080422338126
  0
LINE
  8
0
 10
28.811603881415593
 20
52.53080422338126
 11
28.66565228417917
 21
52.485149121934455
  0
LINE
  8
0
 10
28.66565228417917
 20
52.485149121934455
 11
26.646765843145204
 21
53.53840088506301
  0
LINE
  8
0
 10
26.646765843145204
 20
53.53840088506301
 11
26.60070955028454
 21
53.68422637978715
  0
LINE
  8
0
 10
26.60070955028454
 20
53.68422637978715
 11
26.620008650875874
 21
53.92934900005814
  0
LINE
  8
0
 10
26.620008650875874
 20
53.92934900005814
 11
26.775547966494482
 21
54.57388280200728
  0
LINE
  8
0
 10
26.775547966494482
 20
54.57388280200728
 11
26.905377758183423
 21
55.2345151188365
  0
LINE
  8
0
 10
26.905377758183423
 20
55.2345151188365
 11
27.023118733291895
 21
56.0067229413196
  0
LINE
  8
0
 10
27.023118733291895
 20
56.0067229413196
 11
27.11944316320478
 21
56.89048513976977
  0
LINE
  8
0
 10
27.11944316320478
 20
56.89048513976977
 11
27.1850113928288
 21
57.885186161568036
  0
LINE
  8
0
 10
27.1850113928288
 20
57.885186161568036
 11
27.20833813430973
 21
58.89571742054718
  0
LINE
  8
0
 10
27.20833813430973
 20
58.89571742054718
 11
26.284694135190183
 21
59.37758190326562
  0
LINE
  8
0
 10
26.284694135190183
 20
59.37758190326562
 11
25.307013778169082
 21
59.73737731222761
  0
LINE
  8
0
 10
25.307013778169082
 20
59.73737731222761
 11
24.57462231085596
 21
59.04072797371857
  0
LINE
  8
0
 10
24.57462231085596
 20
59.04072797371857
 11
23.88234860989965
 21
58.323450873522084
  0
LINE
  8
0
 10
23.88234860989965
 20
58.323450873522084
 11
23.292877899721955
 21
57.657989904678296
  0
LINE
  8
0
 10
23.292877899721955
 20
57.657989904678296
 11
22.800386801953966
 21
57.05167284492935
  0
LINE
  8
0
 10
22.800386801953966
 20
57.05167284492935
 11
22.39861991818363
 21
56.51141901203643
  0
LINE
  8
0
 10
22.39861991818363
 20
56.51141901203643
 11
22.026054946597814
 21
55.96295603014557
  0
LINE
  8
0
 10
22.026054946597814
 20
55.96295603014557
 11
21.85757086672858
 21
55.78387317478727
  0
LINE
  8
0
 10
21.85757086672858
 20
55.78387317478727
 11
21.71865577487738
 21
55.71992902509433
  0
LINE
  8
0
 10
21.71865577487738
 20
55.71992902509433
 11
19.581657517608658
 21
56.5063641379642
  0
LINE
  8
0
 10
19.581657517608658
 20
56.5063641379642
 11
19.517331595909173
 21
56.6451028593837
  0
LINE
  8
0
 10
19.517331595909173
 20
56.6451028593837
 11
19.505126666206504
 21
56.89068094053734
  0
LINE
  8
0
 10
19.505126666206504
 20
56.89068094053734
 11
19.576967852990958
 21
57.549813055093686
  0
LINE
  8
0
 10
19.576967852990958
 20
57.549813055093686
 11
19.621251958291626
 21
58.22162385499709
  0
LINE
  8
0
 10
19.621251958291626
 20
58.22162385499709
 11
19.639278537052302
 21
59.00254824364287
  0
LINE
  8
0
 10
19.639278537052302
 20
59.00254824364287
 11
19.621799143185257
 21
59.891372461358365
  0
LINE
  8
0
 10
19.621799143185257
 20
59.891372461358365
 11
19.55962951515819
 21
60.886291680618655
  0
LINE
  8
0
 10
19.55962951515819
 20
60.886291680618655
 11
19.4535408752223
 21
61.89150944942236
  0
LINE
  8
0
 10
19.4535408752223
 20
61.89150944942236
 11
18.475860518201202
 21
62.25130485838427
  0
LINE
  8
0
 10
18.475860518201202
 20
62.25130485838427
 11
17.460197287711335
 21
62.48312336292159
  0
LINE
  8
0
 10
17.460197287711335
 20
62.48312336292159
 11
16.82290428431876
 21
61.69853736376984
  0
LINE
  8
0
 10
16.82290428431876
 20
61.69853736376984
 11
16.228037500592247
 21
60.89862310266375
  0
LINE
  8
0
 10
16.228037500592247
 20
60.89862310266375
 11
15.728503596704279
 21
60.16324571786166
  0
LINE
  8
0
 10
15.728503596704279
 20
60.16324571786166
 11
15.31758994872273
 21
59.49892814905453
  0
LINE
  8
0
 10
15.31758994872273
 20
59.49892814905453
 11
14.988207692253948
 21
58.91173298390622
  0
LINE
  8
0
 10
14.988207692253948
 20
58.91173298390622
 11
14.688837363348016
 21
58.32013032440569
  0
LINE
  8
0
 10
14.688837363348016
 20
58.32013032440569
 11
14.544637142695091
 21
58.120972470891665
  0
LINE
  8
0
 10
14.544637142695091
 20
58.120972470891665
 11
14.415039538196792
 21
58.039789234122715
  0
LINE
  8
0
 10
14.415039538196792
 20
58.039789234122715
 11
12.195018916997164
 21
58.54649445392274
  0
LINE
  8
0
 10
12.195018916997164
 20
58.54649445392274
 11
12.113479596314772
 21
58.67586831606755
  0
LINE
  8
0
 10
12.113479596314772
 20
58.67586831606755
 11
12.069971040926399
 21
58.91786947280065
  0
LINE
  8
0
 10
12.069971040926399
 20
58.91786947280065
 11
12.056934468575855
 21
59.58077696886589
  0
LINE
  8
0
 10
12.056934468575855
 20
59.58077696886589
 11
12.01494574370351
 21
60.25273513708228
  0
LINE
  8
0
 10
12.01494574370351
 20
60.25273513708228
 11
11.93296193019152
 21
61.02955333501898
  0
LINE
  8
0
 10
11.93296193019152
 20
61.02955333501898
 11
11.801965723708589
 21
61.90884510291779
  0
LINE
  8
0
 10
11.801965723708589
 20
61.90884510291779
 11
11.613079061603868
 21
62.88764597356588
  0
LINE
  8
0
 10
11.613079061603868
 20
62.88764597356588
 11
11.379317012785904
 21
63.87104460422108
  0
LINE
  8
0
 10
11.379317012785904
 20
63.87104460422108
 11
10.36365378229603
 21
64.10286310875841
  0
LINE
  8
0
 10
10.36365378229603
 20
64.10286310875841
 11
9.326684840502551
 21
64.20289825543571
  0
LINE
  8
0
 10
9.326684840502551
 20
64.20289825543571
 11
8.794954634527295
 21
63.343258476056164
  0
LINE
  8
0
 10
8.794954634527295
 20
63.343258476056164
 11
8.307262464173393
 21
62.47384162409301
  0
LINE
  8
0
 10
8.307262464173393
 20
62.47384162409301
 11
7.905867699466629
 21
61.68062269966046
  0
LINE
  8
0
 10
7.905867699466629
 20
61.68062269966046
 11
7.583278692011058
 21
60.969212697908915
  0
LINE
  8
0
 10
7.583278692011058
 20
60.969212697908915
 11
7.331689510388782
 21
60.34471792888305
  0
LINE
  8
0
 10
7.331689510388782
 20
60.34471792888305
 11
7.110429476686831
 21
59.7196896910861
  0
LINE
  8
0
 10
7.110429476686831
 20
59.7196896910861
 11
6.992880878886703
 21
59.50372700586505
  0
LINE
  8
0
 10
6.992880878886703
 20
59.50372700586505
 11
6.874728750824252
 21
59.406637708523405
  0
LINE
  8
0
 10
6.874728750824252
 20
59.406637708523405
 11
4.608138442918027
 21
59.625292949553106
  0
LINE
  8
0
 10
4.608138442918027
 20
59.625292949553106
 11
4.510724596644061
 21
59.74317763718351
  0
LINE
  8
0
 10
4.510724596644061
 20
59.74317763718351
 11
4.4366268248465985
 21
59.977628217193036
  0
LINE
  8
0
 10
4.4366268248465985
 20
59.977628217193036
 11
4.338926553518641
 21
60.633426172008825
  0
LINE
  8
0
 10
4.338926553518641
 20
60.633426172008825
 11
4.211354452174844
 21
61.29449817399337
  0
LINE
  8
0
 10
4.211354452174844
 20
61.29449817399337
 11
4.030706418341489
 21
62.05445484788717
  0
LINE
  8
0
 10
4.030706418341489
 20
62.05445484788717
 11
3.7883443533315373
 21
62.909776219449725
  0
LINE
  8
0
 10
3.7883443533315373
 20
62.909776219449725
 11
3.475842170918867
 21
63.85638685824999
  0
LINE
  8
0
 10
3.475842170918867
 20
63.85638685824999
 11
3.118245079597732
 21
64.80181897242888
  0
LINE
  8
0
 10
3.118245079597732
 20
64.80181897242888
 11
2.081276137804264
 21
64.90185411910606
  0
LINE
  8
0
 10
2.081276137804264
 20
64.90185411910606
 11
1.0400284860628495
 21
64.8684633335804
  0
LINE
  8
0
 10
1.0400284860628495
 20
64.8684633335804
 11
0.6225920727865631
 21
63.94788503538454
  0
LINE
  8
0
 10
0.6225920727865631
 20
63.94788503538454
 11
0.25008240775950397
 21
63.02324139323722
  0
LINE
  8
0
 10
0.25008240775950397
 20
63.02324139323722
 11
-0.04658232682672495
 21
62.185205561983686
  0
LINE
  8
0
 10
-0.04658232682672495
 20
62.185205561983686
 11
-0.27554979117235434
 21
61.438384459848486
  0
LINE
  8
0
 10
-0.27554979117235434
 20
61.438384459848486
 11
-0.4452148105414448
 21
60.786844273787395
  0
LINE
  8
0
 10
-0.4452148105414448
 20
60.786844273787395
 11
-0.584731465403091
 21
60.138653404078816
  0
LINE
  8
0
 10
-0.584731465403091
 20
60.138653404078816
 11
-0.6736982956243517
 21
59.909431988471454
  0
LINE
  8
0
 10
-0.6736982956243517
 20
59.909431988471454
 11
-0.7784648925746637
 21
59.798030834135275
  0
LINE
  8
0
 10
-0.7784648925746637
 20
59.798030834135275
 11
-3.054407536994932
 21
59.72504578338199
  0
LINE
  8
0
 10
-3.054407536994932
 20
59.72504578338199
 11
-3.1660963761978063
 21
59.829505633186216
  0
LINE
  8
0
 10
-3.1660963761978063
 20
59.829505633186216
 11
-3.269566681039987
 21
60.05255596443012
  0
LINE
  8
0
 10
-3.269566681039987
 20
60.05255596443012
 11
-3.4503264155912237
 21
60.6904761937089
  0
LINE
  8
0
 10
-3.4503264155912237
 20
60.6904761937089
 11
-3.6613871630293264
 21
61.32980724546535
  0
LINE
  8
0
 10
-3.6613871630293264
 20
61.32980724546535
 11
-3.9377331814627903
 21
62.060423927741056
  0
LINE
  8
0
 10
-3.9377331814627903
 20
62.060423927741056
 11
-4.2874815265927575
 21
62.87773054969292
  0
LINE
  8
0
 10
-4.2874815265927575
 20
62.87773054969292
 11
-4.718467952117749
 21
63.77660763612673
  0
LINE
  8
0
 10
-4.718467952117749
 20
63.77660763612673
 11
-5.194028351588867
 21
64.66854926465236
  0
LINE
  8
0
 10
-5.194028351588867
 20
64.66854926465236
 11
-6.2352760033302435
 21
64.6351584791266
  0
LINE
  8
0
 10
-6.2352760033302435
 20
64.6351584791266
 11
-7.263705107364844
 21
64.46889003717315
  0
LINE
  8
0
 10
-7.263705107364844
 20
64.46889003717315
 11
-7.559993433576824
 21
63.5024890903666
  0
LINE
  8
0
 10
-7.559993433576824
 20
63.5024890903666
 11
-7.811203994875881
 21
62.537801281076035
  0
LINE
  8
0
 10
-7.811203994875881
 20
62.537801281076035
 11
-7.998267472601409
 21
61.66870906818195
  0
LINE
  8
0
 10
-7.998267472601409
 20
61.66870906818195
 11
-8.12985375440269
 21
60.89873964751315
  0
LINE
  8
0
 10
-8.12985375440269
 20
60.89873964751315
 11
-8.214808716591195
 21
60.23085231625916
  0
LINE
  8
0
 10
-8.214808716591195
 20
60.23085231625916
 11
-8.270291132996855
 21
59.570142090799365
  0
LINE
  8
0
 10
-8.270291132996855
 20
59.570142090799365
 11
-8.329215362746634
 21
59.33142575411279
  0
LINE
  8
0
 10
-8.329215362746634
 20
59.33142575411279
 11
-8.418876163959311
 21
59.20754194665644
  0
LINE
  8
0
 10
-8.418876163959311
 20
59.20754194665644
 11
-10.666800229594076
 21
58.844115016635755
  0
LINE
  8
0
 10
-10.666800229594076
 20
58.844115016635755
 11
-10.790930134073951
 21
58.93343480076796
  0
LINE
  8
0
 10
-10.790930134073951
 20
58.93343480076796
 11
-10.922073992415932
 21
59.14142240297378
  0
LINE
  8
0
 10
-10.922073992415932
 20
59.14142240297378
 11
-11.18292512034649
 21
59.75099027418707
  0
LINE
  8
0
 10
-11.18292512034649
 20
59.75099027418707
 11
-11.474008902241053
 21
60.35808257752082
  0
LINE
  8
0
 10
-11.474008902241053
 20
60.35808257752082
 11
-11.841515311291946
 21
61.04736256245446
  0
LINE
  8
0
 10
-11.841515311291946
 20
61.04736256245446
 11
-12.29290707838421
 21
61.81323428265886
  0
LINE
  8
0
 10
-12.29290707838421
 20
61.81323428265886
 11
-12.835300961829667
 21
62.64961827981775
  0
LINE
  8
0
 10
-12.835300961829667
 20
62.64961827981775
 11
-13.42101598083903
 21
63.47342376580879
  0
LINE
  8
0
 10
-13.42101598083903
 20
63.47342376580879
 11
-14.449445084873595
 21
63.30715532385529
  0
LINE
  8
0
 10
-14.449445084873595
 20
63.30715532385529
 11
-15.448168863745591
 21
63.01073934869425
  0
LINE
  8
0
 10
-15.448168863745591
 20
63.01073934869425
 11
-15.61844405676819
 21
62.01438403010592
  0
LINE
  8
0
 10
-15.61844405676819
 20
62.01438403010592
 11
-15.744230643867809
 21
61.02549220083042
  0
LINE
  8
0
 10
-15.744230643867809
 20
61.02549220083042
 11
-15.818621287600031
 21
60.13961407640414
  0
LINE
  8
0
 10
-15.818621287600031
 20
60.13961407640414
 11
-15.850665743747685
 21
59.3591392138022
  0
LINE
  8
0
 10
-15.850665743747685
 20
59.3591392138022
 11
-15.849515690625173
 21
58.685871428869746
  0
LINE
  8
0
 10
-15.849515690625173
 20
58.685871428869746
 11
-15.820052848831363
 21
58.02349069129446
  0
LINE
  8
0
 10
-15.820052848831363
 20
58.02349069129446
 11
-15.847966943886219
 21
57.7791991491774
  0
LINE
  8
0
 10
-15.847966943886219
 20
57.7791991491774
 11
-15.921049721484156
 21
57.64486685729436
  0
LINE
  8
0
 10
-15.921049721484156
 20
57.64486685729436
 11
-18.10404435732291
 21
56.996965508149735
  0
LINE
  8
0
 10
-18.10404435732291
 20
56.996965508149735
 11
-18.23857711747998
 21
57.06967859822385
  0
LINE
  8
0
 10
-18.23857711747998
 20
57.06967859822385
 11
-18.395241150793456
 21
57.2591883207135
  0
LINE
  8
0
 10
-18.395241150793456
 20
57.2591883207135
 11
-18.731900503794336
 21
57.83039474626836
  0
LINE
  8
0
 10
-18.731900503794336
 20
57.83039474626836
 11
-19.098227732494095
 21
58.39527986234266
  0
LINE
  8
0
 10
-19.098227732494095
 20
58.39527986234266
 11
-19.55086008708606
 21
59.03190519163779
  0
LINE
  8
0
 10
-19.55086008708606
 20
59.03190519163779
 11
-20.09648343580437
 21
59.73376641762263
  0
LINE
  8
0
 10
-20.09648343580437
 20
59.73376641762263
 11
-20.7413786845994
 21
60.49392392339635
  0
LINE
  8
0
 10
-20.7413786845994
 20
60.49392392339635
 11
-21.42763089872782
 21
61.23606640354815
  0
LINE
  8
0
 10
-21.42763089872782
 20
61.23606640354815
 11
-22.4263546775998
 21
60.939650428387026
  0
LINE
  8
0
 10
-22.4263546775998
 20
60.939650428387026
 11
-23.37897411447136
 21
60.51795406213573
  0
LINE
  8
0
 10
-23.37897411447136
 20
60.51795406213573
 11
-23.420440260342644
 21
59.50800449855108
  0
LINE
  8
0
 10
-23.420440260342644
 20
59.50800449855108
 11
-23.4187374609602
 21
58.511146225787954
  0
LINE
  8
0
 10
-23.4187374609602
 20
58.511146225787954
 11
-23.37923377838568
 21
57.62302828414115
  0
LINE
  8
0
 10
-23.37923377838568
 20
57.62302828414115
 11
-23.311210239795674
 21
56.84486335527259
  0
LINE
  8
0
 10
-23.311210239795674
 20
56.84486335527259
 11
-23.22397405520263
 21
56.17727015507678
  0
LINE
  8
0
 10
-23.22397405520263
 20
56.17727015507678
 11
-23.110049734257057
 21
55.524095178784485
  0
LINE
  8
0
 10
-23.110049734257057
 20
55.524095178784485
 11
-23.106495345947916
 21
55.278239691604696
  0
LINE
  8
0
 10
-23.106495345947916
 20
55.278239691604696
 11
-23.161800082743433
 21
55.135664647813854
  0
LINE
  8
0
 10
-23.161800082743433
 20
55.135664647813854
 11
-25.244020577217842
 21
54.213927401786044
  0
LINE
  8
0
 10
-25.244020577217842
 20
54.213927401786044
 11
-25.386747168849695
 21
54.26883985087332
  0
LINE
  8
0
 10
-25.386747168849695
 20
54.26883985087332
 11
-25.566358958038865
 21
54.4367599492428
  0
LINE
  8
0
 10
-25.566358958038865
 20
54.4367599492428
 11
-25.973298598841236
 21
54.960225735423485
  0
LINE
  8
0
 10
-25.973298598841236
 20
54.960225735423485
 11
-26.408854191378612
 21
55.473628266249484
  0
LINE
  8
0
 10
-26.408854191378612
 20
55.473628266249484
 11
-26.93918028076295
 21
56.04714556959953
  0
LINE
  8
0
 10
-26.93918028076295
 20
56.04714556959953
 11
-27.570076090805916
 21
56.673471759438144
  0
LINE
  8
0
 10
-27.570076090805916
 20
56.673471759438144
 11
-28.306883542794406
 21
57.34492100859758
  0
LINE
  8
0
 10
-28.306883542794406
 20
57.34492100859758
 11
-29.082404709658405
 21
57.99321452390374
  0
LINE
  8
0
 10
-29.082404709658405
 20
57.99321452390374
 11
-30.035024146529885
 21
57.57151815765229
  0
LINE
  8
0
 10
-30.035024146529885
 20
57.57151815765229
 11
-30.925897256584065
 21
57.03146564298598
  0
LINE
  8
0
 10
-30.925897256584065
 20
57.03146564298598
 11
-30.837873482335265
 21
56.02450517831762
  0
LINE
  8
0
 10
-30.837873482335265
 20
56.02450517831762
 11
-30.708709256389547
 21
55.036048847346
  0
LINE
  8
0
 10
-30.708709256389547
 20
55.036048847346
 11
-30.55595989688401
 21
54.16027396052716
  0
LINE
  8
0
 10
-30.55595989688401
 20
54.16027396052716
 11
-30.38898530817939
 21
53.397196412010466
  0
LINE
  8
0
 10
-30.38898530817939
 20
53.397196412010466
 11
-30.217095407855048
 21
52.74623965844191
  0
LINE
  8
0
 10
-30.217095407855048
 20
52.74623965844191
 11
-30.020580241958026
 21
52.11299555848533
  0
LINE
  8
0
 10
-30.020580241958026
 20
52.11299555848533
 11
-29.985615733242664
 21
51.86961306654526
  0
LINE
  8
0
 10
-29.985615733242664
 20
51.86961306654526
 11
-30.022234326986567
 21
51.72113634912398
  0
LINE
  8
0
 10
-30.022234326986567
 20
51.72113634912398
 11
-31.969490677143458
 21
50.54069810630996
  0
LINE
  8
0
 10
-31.969490677143458
 20
50.54069810630996
 11
-32.11806753356138
 21
50.57690825351452
  0
LINE
  8
0
 10
-32.11806753356138
 20
50.57690825351452
 11
-32.3176778580134
 21
50.72048148439099
  0
LINE
  8
0
 10
-32.3176778580134
 20
50.72048148439099
 11
-32.78821584896574
 21
51.1876113374604
  0
LINE
  8
0
 10
-32.78821584896574
 20
51.1876113374604
 11
-33.285847994552846
 21
51.641101227675726
  0
LINE
  8
0
 10
-33.285847994552846
 20
51.641101227675726
 11
-33.885159879003524
 21
52.142093366815416
  0
LINE
  8
0
 10
-33.885159879003524
 20
52.142093366815416
 11
-34.59096885861229
 21
52.682600261786384
  0
LINE
  8
0
 10
-34.59096885861229
 20
52.682600261786384
 11
-35.40759015580273
 21
53.254316076223546
  0
LINE
  8
0
 10
-35.40759015580273
 20
53.254316076223546
 11
-36.25964623928279
 21
53.798115665085696
  0
LINE
  8
0
 10
-36.25964623928279
 20
53.798115665085696
 11
-37.15051934933692
 21
53.25806315041936
  0
LINE
  8
0
 10
-37.15051934933692
 20
53.25806315041936
 11
-37.96501802073627
 21
52.60852213469847
  0
LINE
  8
0
 10
-37.96501802073627
 20
52.60852213469847
 11
-37.74894967430695
 21
51.62108503193724
  0
LINE
  8
0
 10
-37.74894967430695
 20
51.62108503193724
 11
-37.49444489481704
 21
50.65726106838435
  0
LINE
  8
0
 10
-37.49444489481704
 20
50.65726106838435
 11
-37.23095799864059
 21
49.808209435822924
  0
LINE
  8
0
 10
-37.23095799864059
 20
49.808209435822924
 11
-36.96777407795162
 21
49.07274897990833
  0
LINE
  8
0
 10
-36.96777407795162
 20
49.07274897990833
 11
-36.714052889307155
 21
48.449117364863945
  0
LINE
  8
0
 10
-36.714052889307155
 20
48.449117364863945
 11
-36.43817365204977
 21
47.84620199185739
  0
LINE
  8
0
 10
-36.43817365204977
 20
47.84620199185739
 11
-36.372373139194636
 21
47.609288828946035
  0
LINE
  8
0
 10
-36.372373139194636
 20
47.609288828946035
 11
-36.389704313590016
 21
47.457348421489506
  0
LINE
  8
0
 10
-36.389704313590016
 20
47.457348421489506
 11
-38.170022623994626
 21
46.0375919452013
  0
LINE
  8
0
 10
-38.170022623994626
 20
46.0375919452013
 11
-38.32201011732387
 21
46.05450522090712
  0
LINE
  8
0
 10
-38.32201011732387
 20
46.05450522090712
 11
-38.53834138102976
 21
46.171374115808895
  0
LINE
  8
0
 10
-38.53834138102976
 20
46.171374115808895
 11
-39.06475150132936
 21
46.574497776494155
  0
LINE
  8
0
 10
-39.06475150132936
 20
46.574497776494155
 11
-39.61628909389345
 21
46.96062873463885
  0
LINE
  8
0
 10
-39.61628909389345
 20
46.96062873463885
 11
-40.27474608883665
 21
47.38086943249421
  0
LINE
  8
0
 10
-40.27474608883665
 20
47.38086943249421
 11
-41.0438788740792
 21
47.82668192432521
  0
LINE
  8
0
 10
-41.0438788740792
 20
47.82668192432521
 11
-41.926905117348426
 21
48.28927674617297
  0
LINE
  8
0
 10
-41.926905117348426
 20
48.28927674617297
 11
-42.84150538011024
 21
48.71965323437626
  0
LINE
  8
0
 10
-42.84150538011024
 20
48.71965323437626
 11
-43.65600405150951
 21
48.07011221865526
  0
LINE
  8
0
 10
-43.65600405150951
 20
48.07011221865526
 11
-44.38075423858754
 21
47.32174814740024
  0
LINE
  8
0
 10
-44.38075423858754
 20
47.32174814740024
 11
-44.040189156252595
 21
46.370048096474356
  0
LINE
  8
0
 10
-44.040189156252595
 20
46.370048096474356
 11
-43.66452278466157
 21
45.446682463175364
  0
LINE
  8
0
 10
-43.66452278466157
 20
45.446682463175364
 11
-43.294624799364925
 21
44.63829548920473
  0
LINE
  8
0
 10
-43.294624799364925
 20
44.63829548920473
 11
-42.9395530193932
 21
43.942528366245455
  0
LINE
  8
0
 10
-42.9395530193932
 20
43.942528366245455
 11
-42.608166637331664
 21
43.35646190360304
  0
LINE
  8
0
 10
-42.608166637331664
 20
43.35646190360304
 11
-42.25745325816258
 21
42.793775111302786
  0
LINE
  8
0
 10
-42.25745325816258
 20
42.793775111302786
 11
-42.161897183769604
 21
42.56722138500532
  0
LINE
  8
0
 10
-42.161897183769604
 20
42.56722138500532
 11
-42.15965636141205
 21
42.414312144803354
  0
LINE
  8
0
 10
-42.15965636141205
 20
42.414312144803354
 11
-43.74380385462708
 21
40.77854979713034
  0
LINE
  8
0
 10
-43.74380385462708
 20
40.77854979713034
 11
-43.8967063544291
 21
40.77588848581792
  0
LINE
  8
0
 10
-43.8967063544291
 20
40.77588848581792
 11
-44.1262064040196
 21
40.86413406072173
  0
LINE
  8
0
 10
-44.1262064040196
 20
40.86413406072173
 11
-44.69984501404454
 21
41.196632249659324
  0
LINE
  8
0
 10
-44.69984501404454
 20
41.196632249659324
 11
-45.29623182156377
 21
41.50906401607584
  0
LINE
  8
0
 10
-45.29623182156377
 20
41.50906401607584
 11
-46.00302208134657
 21
41.84165293200624
  0
LINE
  8
0
 10
-46.00302208134657
 20
41.84165293200624
 11
-46.82284953315303
 21
42.185450791906575
  0
LINE
  8
0
 10
-46.82284953315303
 20
42.185450791906575
 11
-47.75778145599915
 21
42.53132882697933
  0
LINE
  8
0
 10
-47.75778145599915
 20
42.53132882697933
 11
-48.719908187013615
 21
42.84121544448578
  0
LINE
  8
0
 10
-48.719908187013615
 20
42.84121544448578
 11
-49.444658374091645
 21
42.09285137323075
  0
LINE
  8
0
 10
-49.444658374091645
 20
42.09285137323075
 11
-50.06775969881346
 21
41.257952363802076
  0
LINE
  8
0
 10
-50.06775969881346
 20
41.257952363802076
 11
-49.608289949809325
 21
40.357616253236536
  0
LINE
  8
0
 10
-49.608289949809325
 20
40.357616253236536
 11
-49.11763041755284
 21
39.48987058836239
  0
LINE
  8
0
 10
-49.11763041755284
 20
39.48987058836239
 11
-48.6473950578282
 21
38.73542196474607
  0
LINE
  8
0
 10
-48.6473950578282
 20
38.73542196474607
 11
-48.206265687384374
 21
38.09077265166558
  0
LINE
  8
0
 10
-48.206265687384374
 20
38.09077265166558
 11
-47.802655467137534
 21
37.55189453653905
  0
LINE
  8
0
 10
-47.802655467137534
 20
37.55189453653905
 11
-47.382866650046715
 21
37.03867562651834
  0
LINE
  8
0
 10
-47.382866650046715
 20
37.03867562651834
 11
-47.25912404221564
 21
36.826201342757166
  0
LINE
  8
0
 10
-47.25912404221564
 20
36.826201342757166
 11
-47.23734801734631
 21
36.674834035306475
  0
LINE
  8
0
 10
-47.23734801734631
 20
36.674834035306475
 11
-48.59931303532929
 21
34.84992498877435
  0
LINE
  8
0
 10
-48.59931303532929
 20
34.84992498877435
 11
-48.75061988678455
 21
34.827732789101866
  0
LINE
  8
0
 10
-48.75061988678455
 20
34.827732789101866
 11
-48.989520337790275
 21
34.885906054107465
  0
LINE
  8
0
 10
-48.989520337790275
 20
34.885906054107465
 11
-49.60096830742304
 21
35.14231916022745
  0
LINE
  8
0
 10
-49.60096830742304
 20
35.14231916022745
 11
-50.23241167500596
 21
35.37592161394887
  0
LINE
  8
0
 10
-50.23241167500596
 20
35.37592161394887
 11
-50.97592972310298
 21
35.61539764714966
  0
LINE
  8
0
 10
-50.97592972310298
 20
35.61539764714966
 11
-51.83299029738005
 21
35.85153572376456
  0
LINE
  8
0
 10
-51.83299029738005
 20
35.85153572376456
 11
-52.80447634347751
 21
36.07501766428873
  0
LINE
  8
0
 10
-52.80447634347751
 20
36.07501766428873
 11
-53.7983314484208
 21
36.25932608140617
  0
LINE
  8
0
 10
-53.7983314484208
 20
36.25932608140617
 11
-54.42143277314252
 21
35.42442707197751
  0
LINE
  8
0
 10
-54.42143277314252
 20
35.42442707197751
 11
-54.932653928982674
 21
34.51670214302793
  0
LINE
  8
0
 10
-54.932653928982674
 20
34.51670214302793
 11
-54.361823993885345
 21
33.68251346686713
  0
LINE
  8
0
 10
-54.361823993885345
 20
33.68251346686713
 11
-53.76422791691804
 21
32.88463613024494
  0
LINE
  8
0
 10
-53.76422791691804
 20
32.88463613024494
 11
-53.201376434371724
 21
32.19651388252487
  0
LINE
  8
0
 10
-53.201376434371724
 20
32.19651388252487
 11
-52.6814328055228
 21
31.613567503221645
  0
LINE
  8
0
 10
-52.6814328055228
 20
31.613567503221645
 11
-52.212226015748705
 21
31.130726099363283
  0
LINE
  8
0
 10
-52.212226015748705
 20
31.130726099363283
 11
-51.73025468150709
 21
30.675402111935966
  0
LINE
  8
0
 10
-51.73025468150709
 20
30.675402111935966
 11
-51.58035739043746
 21
30.480496092576253
  0
LINE
  8
0
 10
-51.58035739043746
 20
30.480496092576253
 11
-51.53940372478266
 21
30.33315616488041
  0
LINE
  8
0
 10
-51.53940372478266
 20
30.33315616488041
 11
-52.65682283959189
 21
28.3490653755809
  0
LINE
  8
0
 10
-52.65682283959189
 20
28.3490653755809
 11
-52.8040495883826
 21
28.30770668285344
  0
LINE
  8
0
 10
-52.8040495883826
 20
28.30770668285344
 11
-53.048427702002776
 21
28.33485243455773
  0
LINE
  8
0
 10
-53.048427702002776
 20
28.33485243455773
 11
-53.68764507248639
 21
28.510970161746542
  0
LINE
  8
0
 10
-53.68764507248639
 20
28.510970161746542
 11
-54.34377671749448
 21
28.661907556941042
  0
LINE
  8
0
 10
-54.34377671749448
 20
28.661907556941042
 11
-55.11181400811164
 21
28.80433851756774
  0
LINE
  8
0
 10
-55.11181400811164
 20
28.80433851756774
 11
-55.992034793924404
 21
28.92893943020758
  0
LINE
  8
0
 10
-55.992034793924404
 20
28.92893943020758
 11
-56.984123189254476
 21
29.026355708898247
  0
LINE
  8
0
 10
-56.984123189254476
 20
29.026355708898247
 11
-57.99338759477995
 21
29.082059586513054
  0
LINE
  8
0
 10
-57.99338759477995
 20
29.082059586513054
 11
-58.504608750620065
 21
28.17433465756348
  0
LINE
  8
0
 10
-58.504608750620065
 20
28.17433465756348
 11
-58.895555500333266
 21
27.20868862733102
  0
LINE
  8
0
 10
-58.895555500333266
 20
27.20868862733102
 11
-58.222738390895536
 21
26.454344740575092
  0
LINE
  8
0
 10
-58.222738390895536
 20
26.454344740575092
 11
-57.528018280279774
 21
25.739436856013697
  0
LINE
  8
0
 10
-57.528018280279774
 20
25.739436856013697
 11
-56.88179268069433
 21
25.128939932473255
  0
LINE
  8
0
 10
-56.88179268069433
 20
25.128939932473255
 11
-56.29157225345139
 21
24.617268450379047
  0
LINE
  8
0
 10
-56.29157225345139
 20
24.617268450379047
 11
-55.76447325666621
 21
24.198392000291335
  0
LINE
  8
0
 10
-55.76447325666621
 20
24.198392000291335
 11
-55.22823336125723
 21
23.808439342742854
  0
LINE
  8
0
 10
-55.22823336125723
 20
23.808439342742854
 11
-55.05464269632427
 21
23.63430193923403
  0
LINE
  8
0
 10
-55.05464269632427
 20
23.63430193923403
 11
-54.995183847941846
 21
23.493408708832366
  0
LINE
  8
0
 10
-54.995183847941846
 20
23.493408708832366
 11
-55.84970906860485
 21
21.38271489267261
  0
LINE
  8
0
 10
-55.84970906860485
 20
21.38271489267261
 11
-55.99043825558617
 21
21.32286881548134
  0
LINE
  8
0
 10
-55.99043825558617
 20
21.32286881548134
 11
-56.23628134995136
 21
21.318541321391816
  0
LINE
  8
0
 10
-56.23628134995136
 20
21.318541321391816
 11
-56.89277218973459
 21
21.411471821438052
  0
LINE
  8
0
 10
-56.89277218973459
 20
21.411471821438052
 11
-57.56281844869657
 21
21.477265770249428
  0
LINE
  8
0
 10
-57.56281844869657
 20
21.477265770249428
 11
-58.342763830755466
 21
21.52031294586626
  0
LINE
  8
0
 10
-58.342763830755466
 20
21.52031294586626
 11
-59.2316916271359
 21
21.531330750990275
  0
LINE
  8
0
 10
-59.2316916271359
 20
21.531330750990275
 11
-60.22809230767502
 21
21.501081795244552
  0
LINE
  8
0
 10
-60.22809230767502
 20
21.501081795244552
 11
-61.236193920146725
 21
21.42726647722637
  0
LINE
  8
0
 10
-61.236193920146725
 20
21.42726647722637
 11
-61.62714066985979
 21
20.46162044699387
  0
LINE
  8
0
 10
-61.62714066985979
 20
20.46162044699387
 11
-61.89139367862388
 21
19.45390919659812
  0
LINE
  8
0
 10
-61.89139367862388
 20
19.45390919659812
 11
-61.127637033181706
 21
18.791796405012644
  0
LINE
  8
0
 10
-61.127637033181706
 20
18.791796405012644
 11
-60.347200173927234
 21
18.171596740211843
  0
LINE
  8
0
 10
-60.347200173927234
 20
18.171596740211843
 11
-59.628211463781966
 21
17.648749483457472
  0
LINE
  8
0
 10
-59.628211463781966
 20
17.648749483457472
 11
-58.977405641242825
 21
17.21675453016234
  0
LINE
  8
0
 10
-58.977405641242825
 20
17.21675453016234
 11
-58.40106938840133
 21
16.868720973575257
  0
LINE
  8
0
 10
-58.40106938840133
 20
16.868720973575257
 11
-57.81936597608246
 21
16.550542657761735
  0
LINE
  8
0
 10
-57.81936597608246
 20
16.550542657761735
 11
-57.62493229120519
 21
16.400033201455127
  0
LINE
  8
0
 10
-57.62493229120519
 20
16.400033201455127
 11
-57.54794457274174
 21
16.267900131295633
  0
LINE
  8
0
 10
-57.54794457274174
 20
16.267900131295633
 11
-58.12554461875987
 21
14.065260822383696
  0
LINE
  8
0
 10
-58.12554461875987
 20
14.065260822383696
 11
-58.257465474572236
 21
13.98791003166156
  0
LINE
  8
0
 10
-58.257465474572236
 20
13.98791003166156
 11
-58.50073681286966
 21
13.952180349111536
  0
LINE
  8
0
 10
-58.50073681286966
 20
13.952180349111536
 11
-59.16372156051294
 21
13.960397705773634
  0
LINE
  8
0
 10
-59.16372156051294
 20
13.960397705773634
 11
-59.83668029238107
 21
13.939967873381374
  0
LINE
  8
0
 10
-59.83668029238107
 20
13.939967873381374
 11
-60.61572708427105
 21
13.882924430554816
  0
LINE
  8
0
 10
-60.61572708427105
 20
13.882924430554816
 11
-61.49876572137833
 21
13.780178216107474
  0
LINE
  8
0
 10
-61.49876572137833
 20
13.780178216107474
 11
-62.48311781549903
 21
13.622760712942428
  0
LINE
  8
0
 10
-62.48311781549903
 20
13.622760712942428
 11
-63.47350363431056
 21
13.420638244772357
  0
LINE
  8
0
 10
-63.47350363431056
 20
13.420638244772357
 11
-63.737756643074604
 21
12.412926994376559
  0
LINE
  8
0
 10
-63.737756643074604
 20
12.412926994376559
 11
-63.870976883791414
 21
11.379697114689371
  0
LINE
  8
0
 10
-63.870976883791414
 20
11.379697114689371
 11
-63.02882156534778
 21
10.82068729200709
  0
LINE
  8
0
 10
-63.02882156534778
 20
10.82068729200709
 11
-62.1754827091072
 21
10.305379508316566
  0
LINE
  8
0
 10
-62.1754827091072
 20
10.305379508316566
 11
-61.3955366631452
 21
9.878767055849282
  0
LINE
  8
0
 10
-61.3955366631452
 20
9.878767055849282
 11
-60.694831658923434
 21
9.533541976543187
  0
LINE
  8
0
 10
-60.694831658923434
 20
9.533541976543187
 11
-60.07872157536361
 21
9.262066014833984
  0
LINE
  8
0
 10
-60.07872157536361
 20
9.262066014833984
 11
-59.461106200083066
 21
9.020886519904563
  0
LINE
  8
0
 10
-59.461106200083066
 20
9.020886519904563
 11
-59.249022090991765
 21
8.896476371911671
  0
LINE
  8
0
 10
-59.249022090991765
 20
8.896476371911671
 11
-59.155769638656025
 21
8.775273083353348
  0
LINE
  8
0
 10
-59.155769638656025
 20
8.775273083353348
 11
-59.446960333242274
 21
6.516855558246316
  0
LINE
  8
0
 10
-59.446960333242274
 20
6.516855558246316
 11
-59.56790672108039
 21
6.423270151838491
  0
LINE
  8
0
 10
-59.56790672108039
 20
6.423270151838491
 11
-59.804611794660815
 21
6.356724961227638
  0
LINE
  8
0
 10
-59.804611794660815
 20
6.356724961227638
 11
-60.46320425893704
 21
6.280094245736388
  0
LINE
  8
0
 10
-60.46320425893704
 20
6.280094245736388
 11
-61.12802549993898
 21
6.173776089423562
  0
LINE
  8
0
 10
-61.12802549993898
 20
6.173776089423562
 11
-61.893381774875145
 21
6.017578679907772
  0
LINE
  8
0
 10
-61.893381774875145
 20
6.017578679907772
 11
-62.756031782700866
 21
5.802755535889722
  0
LINE
  8
0
 10
-62.756031782700866
 20
5.802755535889722
 11
-63.71217225623157
 21
5.520754276355286
  0
LINE
  8
0
 10
-63.71217225623157
 20
5.520754276355286
 11
-64.66858017361871
 21
5.193643503372691
  0
LINE
  8
0
 10
-64.66858017361871
 20
5.193643503372691
 11
-64.80180041433546
 21
4.160413623685519
  0
LINE
  8
0
 10
-64.80180041433546
 20
4.160413623685519
 11
-64.80180041433555
 21
3.118630720766189
  0
LINE
  8
0
 10
-64.80180041433555
 20
3.118630720766189
 11
-63.89507458993666
 21
2.6719027928208807
  0
LINE
  8
0
 10
-63.89507458993666
 20
2.6719027928208807
 11
-62.98284553713763
 21
2.269948229802377
  0
LINE
  8
0
 10
-62.98284553713763
 20
2.269948229802377
 11
-62.154748847870806
 21
1.9465755462973575
  0
LINE
  8
0
 10
-62.154748847870806
 20
1.9465755462973575
 11
-61.41565021876371
 21
1.693788927238242
  0
LINE
  8
0
 10
-61.41565021876371
 20
1.693788927238242
 11
-60.76988281502433
 21
1.5033281881928267
  0
LINE
  8
0
 10
-60.76988281502433
 20
1.5033281881928267
 11
-60.126496704169305
 21
1.3431076747864805
  0
LINE
  8
0
 10
-60.126496704169305
 20
1.3431076747864805
 11
-59.90024458607188
 21
1.246839646297839
  0
LINE
  8
0
 10
-59.90024458607188
 20
1.246839646297839
 11
-59.7922586025531
 21
1.1385562939879725
  0
LINE
  8
0
 10
-59.7922586025531
 20
1.1385562939879725
 11
-59.79225860255276
 21
-1.1385562939892209
  0
LINE
  8
0
 10
-59.79225860255276
 20
-1.1385562939892209
 11
-59.90024458607207
 21
-1.2468396462968248
  0
LINE
  8
0
 10
-59.90024458607207
 20
-1.2468396462968248
 11
-60.126496704171366
 21
-1.3431076747784203
  0
LINE
  8
0
 10
-60.126496704171366
 20
-1.3431076747784203
 11
-60.76988281502489
 21
-1.5033281881932201
  0
LINE
  8
0
 10
-60.76988281502489
 20
-1.5033281881932201
 11
-61.41565021876338
 21
-1.693788927239279
  0
LINE
  8
0
 10
-61.41565021876338
 20
-1.693788927239279
 11
-62.15474884787068
 21
-1.946575546298362
  0
LINE
  8
0
 10
-62.15474884787068
 20
-1.946575546298362
 11
-62.9828455371356
 21
-2.269948229801448
  0
LINE
  8
0
 10
-62.9828455371356
 20
-2.269948229801448
 11
-63.895074589934865
 21
-2.6719027928200654
  0
LINE
  8
0
 10
-63.895074589934865
 20
-2.6719027928200654
 11
-64.80180041433546
 21
-3.1186307207662622
  0
LINE
  8
0
 10
-64.80180041433546
 20
-3.1186307207662622
 11
-64.80180041433545
 21
-4.160413623685574
  0
LINE
  8
0
 10
-64.80180041433545
 20
-4.160413623685574
 11
-64.66858017361872
 21
-5.193643503372764
  0
LINE
  8
0
 10
-64.66858017361872
 20
-5.193643503372764
 11
-63.71217225623346
 21
-5.520754276354707
  0
LINE
  8
0
 10
-63.71217225623346
 20
-5.520754276354707
 11
-62.756031782703
 21
-5.802755535889059
  0
LINE
  8
0
 10
-62.756031782703
 20
-5.802755535889059
 11
-61.893381774875145
 21
-6.017578679908786
  0
LINE
  8
0
 10
-61.893381774875145
 20
-6.017578679908786
 11
-61.12802549993918
 21
-6.173776089424631
  0
LINE
  8
0
 10
-61.12802549993918
 20
-6.173776089424631
 11
-60.463204258936436
 21
-6.280094245736706
  0
LINE
  8
0
 10
-60.463204258936436
 20
-6.280094245736706
 11
-59.804611794659806
 21
-6.356724961219381
  0
LINE
  8
0
 10
-59.804611794659806
 20
-6.356724961219381
 11
-59.56790672108033
 21
-6.4232701518374595
  0
LINE
  8
0
 10
-59.56790672108033
 20
-6.4232701518374595
 11
-59.44696033324245
 21
-6.516855558247599
  0
LINE
  8
0
 10
-59.44696033324245
 20
-6.516855558247599
 11
-59.15576963865553
 21
-8.775273083354541
  0
LINE
  8
0
 10
-59.15576963865553
 20
-8.775273083354541
 11
-59.249022090992085
 21
-8.896476371910687
  0
LINE
  8
0
 10
-59.249022090992085
 20
-8.896476371910687
 11
-59.46110620008613
 21
-9.020886519896832
  0
LINE
  8
0
 10
-59.46110620008613
 20
-9.020886519896832
 11
-60.07872157536412
 21
-9.262066014834446
  0
LINE
  8
0
 10
-60.07872157536412
 20
-9.262066014834446
 11
-60.69483165892298
 21
-9.533541976544173
  0
LINE
  8
0
 10
-60.69483165892298
 20
-9.533541976544173
 11
-61.39553666314494
 21
-9.878767055850263
  0
LINE
  8
0
 10
-61.39553666314494
 20
-9.878767055850263
 11
-62.17548270910531
 21
-10.305379508315383
  0
LINE
  8
0
 10
-62.17548270910531
 20
-10.305379508315383
 11
-63.0288215653461
 21
-10.820687292006049
  0
LINE
  8
0
 10
-63.0288215653461
 20
-10.820687292006049
 11
-63.87097688379128
 21
-11.379697114689428
  0
LINE
  8
0
 10
-63.87097688379128
 20
-11.379697114689428
 11
-63.737756643074505
 21
-12.412926994376566
  0
LINE
  8
0
 10
-63.737756643074505
 20
-12.412926994376566
 11
-63.47350363431058
 21
-13.420638244772345
  0
LINE
  8
0
 10
-63.47350363431058
 20
-13.420638244772345
 11
-62.48311781550099
 21
-13.622760712942013
  0
LINE
  8
0
 10
-62.48311781550099
 20
-13.622760712942013
 11
-61.498765721380536
 21
-13.780178216107007
  0
LINE
  8
0
 10
-61.498765721380536
 20
-13.780178216107007
 11
-60.615727084270944
 21
-13.88292443055574
  0
LINE
  8
0
 10
-60.615727084270944
 20
-13.88292443055574
 11
-59.83668029238113
 21
-13.939967873382379
  0
LINE
  8
0
 10
-59.83668029238113
 20
-13.939967873382379
 11
-59.163721560512315
 21
-13.96039770577379
  0
LINE
  8
0
 10
-59.163721560512315
 20
-13.96039770577379
 11
-58.50073681286973
 21
-13.952180349103138
  0
LINE
  8
0
 10
-58.50073681286973
 20
-13.952180349103138
 11
-58.25746547457232
 21
-13.987910031660448
  0
LINE
  8
0
 10
-58.25746547457232
 20
-13.987910031660448
 11
-58.1255446187599
 21
-14.065260822384914
  0
LINE
  8
0
 10
-58.1255446187599
 20
-14.065260822384914
 11
-57.547944572741116
 21
-16.267900131296674
  0
LINE
  8
0
 10
-57.547944572741116
 20
-16.267900131296674
 11
-57.62493229120565
 21
-16.400033201454114
  0
LINE
  8
0
 10
-57.62493229120565
 20
-16.400033201454114
 11
-57.81936597608651
 21
-16.55054265775438
  0
LINE
  8
0
 10
-57.81936597608651
 20
-16.55054265775438
 11
-58.40106938840179
 21
-16.868720973575698
  0
LINE
  8
0
 10
-58.40106938840179
 20
-16.868720973575698
 11
-58.977405641242264
 21
-17.21675453016318
  0
LINE
  8
0
 10
-58.977405641242264
 20
-17.21675453016318
 11
-59.628211463781604
 21
-17.64874948345833
  0
LINE
  8
0
 10
-59.628211463781604
 20
-17.64874948345833
 11
-60.34720017392553
 21
-18.171596740210347
  0
LINE
  8
0
 10
-60.34720017392553
 20
-18.171596740210347
 11
-61.1276370331802
 21
-18.791796405011315
  0
LINE
  8
0
 10
-61.1276370331802
 20
-18.791796405011315
 11
-61.89139367862383
 21
-19.45390919659809
  0
LINE
  8
0
 10
-61.89139367862383
 20
-19.45390919659809
 11
-61.627140669859784
 21
-20.461620446993837
  0
LINE
  8
0
 10
-61.627140669859784
 20
-20.461620446993837
 11
-61.236193920146704
 21
-21.427266477226347
  0
LINE
  8
0
 10
-61.236193920146704
 20
-21.427266477226347
 11
-60.22809230767702
 21
-21.501081795244385
  0
LINE
  8
0
 10
-60.22809230767702
 20
-21.501081795244385
 11
-59.23169162713816
 21
-21.531330750990097
  0
LINE
  8
0
 10
-59.23169162713816
 20
-21.531330750990097
 11
-58.34276383075524
 21
-21.520312945867165
  0
LINE
  8
0
 10
-58.34276383075524
 20
-21.520312945867165
 11
-57.56281844869651
 21
-21.477265770250433
  0
LINE
  8
0
 10
-57.56281844869651
 20
-21.477265770250433
 11
-56.89277218973396
 21
-21.41147182143813
  0
LINE
  8
0
 10
-56.89277218973396
 20
-21.41147182143813
 11
-56.23628134995251
 21
-21.318541321383503
  0
LINE
  8
0
 10
-56.23628134995251
 20
-21.318541321383503
 11
-55.9904382555864
 21
-21.322868815480252
  0
LINE
  8
0
 10
-55.9904382555864
 20
-21.322868815480252
 11
-55.849709068604724
 21
-21.382714892673825
  0
LINE
  8
0
 10
-55.849709068604724
 20
-21.382714892673825
 11
-54.99518384794109
 21
-23.49340870883332
  0
LINE
  8
0
 10
-54.99518384794109
 20
-23.49340870883332
 11
-55.05464269632487
 21
-23.63430193923309
  0
LINE
  8
0
 10
-55.05464269632487
 20
-23.63430193923309
 11
-55.2282333612622
 21
-23.80843934273608
  0
LINE
  8
0
 10
-55.2282333612622
 20
-23.80843934273608
 11
-55.76447325666661
 21
-24.198392000291832
  0
LINE
  8
0
 10
-55.76447325666661
 20
-24.198392000291832
 11
-56.29157225345073
 21
-24.617268450379807
  0
LINE
  8
0
 10
-56.29157225345073
 20
-24.617268450379807
 11
-56.881792680693856
 21
-25.12893993247406
  0
LINE
  8
0
 10
-56.881792680693856
 20
-25.12893993247406
 11
-57.52801828027828
 21
-25.739436856012
  0
LINE
  8
0
 10
-57.52801828027828
 20
-25.739436856012
 11
-58.222738390894214
 21
-26.45434474057358
  0
LINE
  8
0
 10
-58.222738390894214
 20
-26.45434474057358
 11
-58.8955555003332
 21
-27.20868862733098
  0
LINE
  8
0
 10
-58.8955555003332
 20
-27.20868862733098
 11
-58.50460875062011
 21
-28.174334657563527
  0
LINE
  8
0
 10
-58.50460875062011
 20
-28.174334657563527
 11
-57.993387594779975
 21
-29.082059586513104
  0
LINE
  8
0
 10
-57.993387594779975
 20
-29.082059586513104
 11
-56.984123189256465
 21
-29.026355708898393
  0
LINE
  8
0
 10
-56.984123189256465
 20
-29.026355708898393
 11
-55.99203479392665
 21
-28.928939430207745
  0
LINE
  8
0
 10
-55.99203479392665
 20
-28.928939430207745
 11
-55.111814008111274
 21
-28.804338517568656
  0
LINE
  8
0
 10
-55.111814008111274
 20
-28.804338517568656
 11
-54.34377671749427
 21
-28.66190755694208
  0
LINE
  8
0
 10
-54.34377671749427
 20
-28.66190755694208
 11
-53.68764507248572
 21
-28.510970161746584
  0
LINE
  8
0
 10
-53.68764507248572
 20
-28.510970161746584
 11
-53.04842770200496
 21
-28.334852434549678
  0
LINE
  8
0
 10
-53.04842770200496
 20
-28.334852434549678
 11
-52.804049588382945
 21
-28.307706682852437
  0
LINE
  8
0
 10
-52.804049588382945
 20
-28.307706682852437
 11
-52.65682283959159
 21
-28.349065375582132
  0
LINE
  8
0
 10
-52.65682283959159
 20
-28.349065375582132
 11
-51.53940372478177
 21
-30.33315616488131
  0
LINE
  8
0
 10
-51.53940372478177
 20
-30.33315616488131
 11
-51.580357390438145
 21
-30.480496092575443
  0
LINE
  8
0
 10
-51.580357390438145
 20
-30.480496092575443
 11
-51.73025468151286
 21
-30.67540211192993
  0
LINE
  8
0
 10
-51.73025468151286
 20
-30.67540211192993
 11
-52.21222601574902
 21
-31.13072609936388
  0
LINE
  8
0
 10
-52.21222601574902
 20
-31.13072609936388
 11
-52.68143280552203
 21
-31.613567503222367
  0
LINE
  8
0
 10
-52.68143280552203
 20
-31.613567503222367
 11
-53.20137643437114
 21
-32.19651388252565
  0
LINE
  8
0
 10
-53.20137643437114
 20
-32.19651388252565
 11
-53.764227916916745
 21
-32.884636130243116
  0
LINE
  8
0
 10
-53.764227916916745
 20
-32.884636130243116
 11
-54.361823993884194
 21
-33.68251346686551
  0
LINE
  8
0
 10
-54.361823993884194
 20
-33.68251346686551
 11
-54.932653928982646
 21
-34.51670214302795
  0
LINE
  8
0
 10
-54.932653928982646
 20
-34.51670214302795
 11
-54.42143277314256
 21
-35.42442707197746
  0
LINE
  8
0
 10
-54.42143277314256
 20
-35.42442707197746
 11
-53.7983314484208
 21
-36.259326081406165
  0
LINE
  8
0
 10
-53.7983314484208
 20
-36.259326081406165
 11
-52.80447634347948
 21
-36.07501766428909
  0
LINE
  8
0
 10
-52.80447634347948
 20
-36.07501766428909
 11
-51.83299029738227
 21
-35.851535723764975
  0
LINE
  8
0
 10
-51.83299029738227
 20
-35.851535723764975
 11
-50.975929723102524
 21
-35.615397647150495
  0
LINE
  8
0
 10
-50.975929723102524
 20
-35.615397647150495
 11
-50.232411675005636
 21
-35.37592161394984
  0
LINE
  8
0
 10
-50.232411675005636
 20
-35.37592161394984
 11
-49.60096830742239
 21
-35.14231916022738
  0
LINE
  8
0
 10
-49.60096830742239
 20
-35.14231916022738
 11
-48.98952033779347
 21
-34.88590605409973
  0
LINE
  8
0
 10
-48.98952033779347
 20
-34.88590605409973
 11
-48.75061988678504
 21
-34.827732789100885
  0
LINE
  8
0
 10
-48.75061988678504
 20
-34.827732789100885
 11
-48.59931303532886
 21
-34.849924988775506
  0
LINE
  8
0
 10
-48.59931303532886
 20
-34.849924988775506
 11
-47.23734801734532
 21
-36.674834035307214
  0
LINE
  8
0
 10
-47.23734801734532
 20
-36.674834035307214
 11
-47.25912404221644
 21
-36.82620134275641
  0
LINE
  8
0
 10
-47.25912404221644
 20
-36.82620134275641
 11
-47.38286665005322
 21
-37.03867562651306
  0
LINE
  8
0
 10
-47.38286665005322
 20
-37.03867562651306
 11
-47.80265546713778
 21
-37.55189453653964
  0
LINE
  8
0
 10
-47.80265546713778
 20
-37.55189453653964
 11
-48.20626568738353
 21
-38.090772651666164
  0
LINE
  8
0
 10
-48.20626568738353
 20
-38.090772651666164
 11
-48.64739505782754
 21
-38.73542196474674
  0
LINE
  8
0
 10
-48.64739505782754
 20
-38.73542196474674
 11
-49.11763041755181
 21
-39.48987058836038
  0
LINE
  8
0
 10
-49.11763041755181
 20
-39.48987058836038
 11
-49.60828994980841
 21
-40.35761625323475
  0
LINE
  8
0
 10
-49.60828994980841
 20
-40.35761625323475
 11
-50.06775969881343
 21
-41.257952363802055
  0
LINE
  8
0
 10
-50.06775969881343
 20
-41.257952363802055
 11
-49.444658374091674
 21
-42.092851373230765
  0
LINE
  8
0
 10
-49.444658374091674
 20
-42.092851373230765
 11
-48.719908187013594
 21
-42.84121544448577
  0
LINE
  8
0
 10
-48.719908187013594
 20
-42.84121544448577
 11
-47.757781456001055
 21
-42.531328826979944
  0
LINE
  8
0
 10
-47.757781456001055
 20
-42.531328826979944
 11
-46.82284953315518
 21
-42.18545079190727
  0
LINE
  8
0
 10
-46.82284953315518
 20
-42.18545079190727
 11
-46.00302208134601
 21
-41.84165293200701
  0
LINE
  8
0
 10
-46.00302208134601
 20
-41.84165293200701
 11
-45.29623182156333
 21
-41.50906401607676
  0
LINE
  8
0
 10
-45.29623182156333
 20
-41.50906401607676
 11
-44.69984501404391
 21
-41.196632249659174
  0
LINE
  8
0
 10
-44.69984501404391
 20
-41.196632249659174
 11
-44.12620640402377
 21
-40.86413406071446
  0
LINE
  8
0
 10
-44.12620640402377
 20
-40.86413406071446
 11
-43.8967063544297
 21
-40.775888485817
  0
LINE
  8
0
 10
-43.8967063544297
 20
-40.775888485817
 11
-43.7438038546265
 21
-40.77854979713143
  0
LINE
  8
0
 10
-43.7438038546265
 20
-40.77854979713143
 11
-42.159656361410974
 21
-42.41431214480396
  0
LINE
  8
0
 10
-42.159656361410974
 20
-42.41431214480396
 11
-42.161897183770485
 21
-42.56722138500468
  0
LINE
  8
0
 10
-42.161897183770485
 20
-42.56722138500468
 11
-42.257453258169704
 21
-42.79377511129837
  0
LINE
  8
0
 10
-42.257453258169704
 20
-42.79377511129837
 11
-42.608166637331834
 21
-43.356461903603666
  0
LINE
  8
0
 10
-42.608166637331834
 20
-43.356461903603666
 11
-42.93955301939229
 21
-43.942528366245924
  0
LINE
  8
0
 10
-42.93955301939229
 20
-43.942528366245924
 11
-43.29462479936418
 21
-44.63829548920531
  0
LINE
  8
0
 10
-43.29462479936418
 20
-44.63829548920531
 11
-43.6645227846608
 21
-45.446682463173246
  0
LINE
  8
0
 10
-43.6645227846608
 20
-45.446682463173246
 11
-44.04018915625192
 21
-46.37004809647248
  0
LINE
  8
0
 10
-44.04018915625192
 20
-46.37004809647248
 11
-44.38075423858751
 21
-47.32174814740021
  0
LINE
  8
0
 10
-44.38075423858751
 20
-47.32174814740021
 11
-43.65600405150947
 21
-48.07011221865523
  0
LINE
  8
0
 10
-43.65600405150947
 20
-48.07011221865523
 11
-42.84150538011025
 21
-48.719653234376295
  0
LINE
  8
0
 10
-42.84150538011025
 20
-48.719653234376295
 11
-41.92690511735023
 21
-48.28927674617384
  0
LINE
  8
0
 10
-41.92690511735023
 20
-48.28927674617384
 11
-41.04387887408124
 21
-47.82668192432618
  0
LINE
  8
0
 10
-41.04387887408124
 20
-47.82668192432618
 11
-40.27474608883599
 21
-47.380869432494904
  0
LINE
  8
0
 10
-40.27474608883599
 20
-47.380869432494904
 11
-39.61628909389288
 21
-46.96062873463973
  0
LINE
  8
0
 10
-39.61628909389288
 20
-46.96062873463973
 11
-39.06475150132875
 21
-46.57449777649392
  0
LINE
  8
0
 10
-39.06475150132875
 20
-46.57449777649392
 11
-38.53834138103482
 21
-46.17137411580222
  0
LINE
  8
0
 10
-38.53834138103482
 20
-46.17137411580222
 11
-38.32201011732458
 21
-46.05450522090629
  0
LINE
  8
0
 10
-38.32201011732458
 20
-46.05450522090629
 11
-38.17002262399391
 21
-46.037591945202315
  0
LINE
  8
0
 10
-38.17002262399391
 20
-46.037591945202315
 11
-36.38970431358887
 21
-47.45734842148998
  0
LINE
  8
0
 10
-36.38970431358887
 20
-47.45734842148998
 11
-36.37237313919559
 21
-47.60928882894552
  0
LINE
  8
0
 10
-36.37237313919559
 20
-47.60928882894552
 11
-36.4381736520574
 21
-47.84620199185394
  0
LINE
  8
0
 10
-36.4381736520574
 20
-47.84620199185394
 11
-36.71405288930724
 21
-48.4491173648646
  0
LINE
  8
0
 10
-36.71405288930724
 20
-48.4491173648646
 11
-36.96777407795065
 21
-49.07274897990869
  0
LINE
  8
0
 10
-36.96777407795065
 20
-49.07274897990869
 11
-37.230957998639774
 21
-49.808209435823414
  0
LINE
  8
0
 10
-37.230957998639774
 20
-49.808209435823414
 11
-37.49444489481655
 21
-50.65726106838215
  0
LINE
  8
0
 10
-37.49444489481655
 20
-50.65726106838215
 11
-37.748949674306516
 21
-51.6210850319353
  0
LINE
  8
0
 10
-37.748949674306516
 20
-51.6210850319353
 11
-37.9650180207362
 21
-52.60852213469843
  0
LINE
  8
0
 10
-37.9650180207362
 20
-52.60852213469843
 11
-37.150519349336975
 21
-53.25806315041938
  0
LINE
  8
0
 10
-37.150519349336975
 20
-53.25806315041938
 11
-36.25964623928283
 21
-53.79811566508577
  0
LINE
  8
0
 10
-36.25964623928283
 20
-53.79811566508577
 11
-35.407590155804414
 21
-53.25431607622462
  0
LINE
  8
0
 10
-35.407590155804414
 20
-53.25431607622462
 11
-34.5909688586142
 21
-52.6826002617876
  0
LINE
  8
0
 10
-34.5909688586142
 20
-52.6826002617876
 11
-33.885159879002785
 21
-52.14209336681602
  0
LINE
  8
0
 10
-33.885159879002785
 20
-52.14209336681602
 11
-33.28584799455218
 21
-51.64110122767651
  0
LINE
  8
0
 10
-33.28584799455218
 20
-51.64110122767651
 11
-32.788215848965166
 21
-51.1876113374601
  0
LINE
  8
0
 10
-32.788215848965166
 20
-51.1876113374601
 11
-32.31767785801927
 21
-50.72048148438501
  0
LINE
  8
0
 10
-32.31767785801927
 20
-50.72048148438501
 11
-32.1180675335622
 21
-50.57690825351378
  0
LINE
  8
0
 10
-32.1180675335622
 20
-50.57690825351378
 11
-31.969490677142613
 21
-50.54069810631087
  0
LINE
  8
0
 10
-31.969490677142613
 20
-50.54069810631087
 11
-30.022234326985366
 21
-51.7211363491243
  0
LINE
  8
0
 10
-30.022234326985366
 20
-51.7211363491243
 11
-29.985615733243677
 21
-51.86961306654487
  0
LINE
  8
0
 10
-29.985615733243677
 20
-51.86961306654487
 11
-30.020580241966034
 21
-52.11299555848288
  0
LINE
  8
0
 10
-30.020580241966034
 20
-52.11299555848288
 11
-30.21709540785505
 21
-52.746239658442555
  0
LINE
  8
0
 10
-30.21709540785505
 20
-52.746239658442555
 11
-30.388985308178377
 21
-53.39719641201069
  0
LINE
  8
0
 10
-30.388985308178377
 20
-53.39719641201069
 11
-30.55595989688313
 21
-54.160273960527526
  0
LINE
  8
0
 10
-30.55595989688313
 20
-54.160273960527526
 11
-30.70870925638934
 21
-55.03604884734375
  0
LINE
  8
0
 10
-30.70870925638934
 20
-55.03604884734375
 11
-30.837873482335084
 21
-56.02450517831562
  0
LINE
  8
0
 10
-30.837873482335084
 20
-56.02450517831562
 11
-30.925897256584015
 21
-57.03146564298593
  0
LINE
  8
0
 10
-30.925897256584015
 20
-57.03146564298593
 11
-30.03502414652983
 21
-57.57151815765227
  0
LINE
  8
0
 10
-30.03502414652983
 20
-57.57151815765227
 11
-29.082404709658384
 21
-57.99321452390379
  0
LINE
  8
0
 10
-29.082404709658384
 20
-57.99321452390379
 11
-28.306883542795905
 21
-57.344921008598874
  0
LINE
  8
0
 10
-28.306883542795905
 20
-57.344921008598874
 11
-27.570076090807614
 21
-56.67347175943961
  0
LINE
  8
0
 10
-27.570076090807614
 20
-56.67347175943961
 11
-26.939180280762113
 21
-56.04714556960004
  0
LINE
  8
0
 10
-26.939180280762113
 20
-56.04714556960004
 11
-26.408854191377824
 21
-55.473628266250195
  0
LINE
  8
0
 10
-26.408854191377824
 20
-55.473628266250195
 11
-25.97329859884068
 21
-54.960225735423116
  0
LINE
  8
0
 10
-25.97329859884068
 20
-54.960225735423116
 11
-25.566358958045427
 21
-54.43675994923764
  0
LINE
  8
0
 10
-25.566358958045427
 20
-54.43675994923764
 11
-25.386747168850572
 21
-54.268839850872716
  0
LINE
  8
0
 10
-25.386747168850572
 20
-54.268839850872716
 11
-25.244020577216865
 21
-54.213927401786854
  0
LINE
  8
0
 10
-25.244020577216865
 20
-54.213927401786854
 11
-23.16180008274218
 21
-55.13566464781404
  0
LINE
  8
0
 10
-23.16180008274218
 20
-55.13566464781404
 11
-23.106495345948947
 21
-55.278239691604455
  0
LINE
  8
0
 10
-23.106495345948947
 20
-55.278239691604455
 11
-23.11004973426528
 21
-55.524095178783085
  0
LINE
  8
0
 10
-23.11004973426528
 20
-55.524095178783085
 11
-23.223974055202522
 21
-56.17727015507744
  0
LINE
  8
0
 10
-23.223974055202522
 20
-56.17727015507744
 11
-23.311210239794622
 21
-56.844863355272686
  0
LINE
  8
0
 10
-23.311210239794622
 20
-56.844863355272686
 11
-23.379233778384734
 21
-57.62302828414142
  0
LINE
  8
0
 10
-23.379233778384734
 20
-57.62302828414142
 11
-23.41873746096026
 21
-58.511146225785716
  0
LINE
  8
0
 10
-23.41873746096026
 20
-58.511146225785716
 11
-23.420440260342694
 21
-59.50800449854909
  0
LINE
  8
0
 10
-23.420440260342694
 20
-59.50800449854909
 11
-23.378974114471294
 21
-60.51795406213567
  0
LINE
  8
0
 10
-23.378974114471294
 20
-60.51795406213567
 11
-22.426354677599786
 21
-60.93965042838711
  0
LINE
  8
0
 10
-22.426354677599786
 20
-60.93965042838711
 11
-21.427630898727806
 21
-61.236066403548215
  0
LINE
  8
0
 10
-21.427630898727806
 20
-61.236066403548215
 11
-20.741378684600722
 21
-60.49392392339783
  0
LINE
  8
0
 10
-20.741378684600722
 20
-60.49392392339783
 11
-20.09648343580586
 21
-59.7337664176243
  0
LINE
  8
0
 10
-20.09648343580586
 20
-59.7337664176243
 11
-19.550860087085162
 21
-59.03190519163818
  0
LINE
  8
0
 10
-19.550860087085162
 20
-59.03190519163818
 11
-19.09822773249322
 21
-58.39527986234326
  0
LINE
  8
0
 10
-19.09822773249322
 20
-58.39527986234326
 11
-18.731900503793824
 21
-57.83039474626792
  0
LINE
  8
0
 10
-18.731900503793824
 20
-57.83039474626792
 11
-18.395241150800622
 21
-57.25918832070922
  0
LINE
  8
0
 10
-18.395241150800622
 20
-57.25918832070922
 11
-18.238577117480926
 21
-57.06967859822337
  0
LINE
  8
0
 10
-18.238577117480926
 20
-57.06967859822337
 11
-18.104044357321836
 21
-56.99696550815041
  0
LINE
  8
0
 10
-18.104044357321836
 20
-56.99696550815041
 11
-15.921049721482888
 21
-57.64486685729437
  0
LINE
  8
0
 10
-15.921049721482888
 20
-57.64486685729437
 11
-15.847966943887274
 21
-57.77919914917729
  0
LINE
  8
0
 10
-15.847966943887274
 20
-57.77919914917729
 11
-15.820052848839701
 21
-58.02349069129413
  0
LINE
  8
0
 10
-15.820052848839701
 20
-58.02349069129413
 11
-15.849515690624985
 21
-58.68587142887039
  0
LINE
  8
0
 10
-15.849515690624985
 20
-58.68587142887039
 11
-15.850665743746625
 21
-59.359139213802166
  0
LINE
  8
0
 10
-15.850665743746625
 20
-59.359139213802166
 11
-15.818621287599058
 21
-60.13961407640429
  0
LINE
  8
0
 10
-15.818621287599058
 20
-60.13961407640429
 11
-15.74423064386815
 21
-61.025492200828204
  0
LINE
  8
0
 10
-15.74423064386815
 20
-61.025492200828204
 11
-15.61844405676849
 21
-62.014384030103955
  0
LINE
  8
0
 10
-15.61844405676849
 20
-62.014384030103955
 11
-15.448168863745536
 21
-63.01073934869421
  0
LINE
  8
0
 10
-15.448168863745536
 20
-63.01073934869421
 11
-14.449445084873657
 21
-63.307155323855284
  0
LINE
  8
0
 10
-14.449445084873657
 20
-63.307155323855284
 11
-13.421015980839073
 21
-63.47342376580882
  0
LINE
  8
0
 10
-13.421015980839073
 20
-63.47342376580882
 11
-12.83530096183087
 21
-62.64961827981937
  0
LINE
  8
0
 10
-12.83530096183087
 20
-62.64961827981937
 11
-12.29290707838556
 21
-61.81323428266068
  0
LINE
  8
0
 10
-12.29290707838556
 20
-61.81323428266068
 11
-11.841515311291083
 21
-61.047362562454715
  0
LINE
  8
0
 10
-11.841515311291083
 20
-61.047362562454715
 11
-11.47400890224019
 21
-60.35808257752129
  0
LINE
  8
0
 10
-11.47400890224019
 20
-60.35808257752129
 11
-11.18292512034612
 21
-59.750990274186556
  0
LINE
  8
0
 10
-11.18292512034612
 20
-59.750990274186556
 11
-10.922073992423666
 21
-59.14142240297045
  0
LINE
  8
0
 10
-10.922073992423666
 20
-59.14142240297045
 11
-10.790930134075026
 21
-58.93343480076759
  0
LINE
  8
0
 10
-10.790930134075026
 20
-58.93343480076759
 11
-10.666800229593004
 21
-58.84411501663627
  0
LINE
  8
0
 10
-10.666800229593004
 20
-58.84411501663627
 11
-8.41887616395813
 21
-59.207541946656285
  0
LINE
  8
0
 10
-8.41887616395813
 20
-59.207541946656285
 11
-8.329215362747775
 21
-59.33142575411281
  0
LINE
  8
0
 10
-8.329215362747775
 20
-59.33142575411281
 11
-8.270291133005246
 21
-59.57014209080009
  0
LINE
  8
0
 10
-8.270291133005246
 20
-59.57014209080009
 11
-8.214808716591003
 21
-60.230852316259764
  0
LINE
  8
0
 10
-8.214808716591003
 20
-60.230852316259764
 11
-8.129853754401722
 21
-60.898739647512976
  0
LINE
  8
0
 10
-8.129853754401722
 20
-60.898739647512976
 11
-7.9982674726005065
 21
-61.66870906818196
  0
LINE
  8
0
 10
-7.9982674726005065
 20
-61.66870906818196
 11
-7.811203994876586
 21
-62.53780128107387
  0
LINE
  8
0
 10
-7.811203994876586
 20
-62.53780128107387
 11
-7.559993433577455
 21
-63.50248909036468
  0
LINE
  8
0
 10
-7.559993433577455
 20
-63.50248909036468
 11
-7.263705107364878
 21
-64.46889003717311
  0
LINE
  8
0
 10
-7.263705107364878
 20
-64.46889003717311
 11
-6.235276003330281
 21
-64.6351584791266
  0
LINE
  8
0
 10
-6.235276003330281
 20
-64.6351584791266
 11
-5.194028351588868
 21
-64.66854926465241
  0
LINE
  8
0
 10
-5.194028351588868
 20
-64.66854926465241
 11
-4.718467952118694
 21
-63.77660763612849
  0
LINE
  8
0
 10
-4.718467952118694
 20
-63.77660763612849
 11
-4.287481526593822
 21
-62.87773054969492
  0
LINE
  8
0
 10
-4.287481526593822
 20
-62.87773054969492
 11
-3.9377331814618595
 21
-62.06042392774121
  0
LINE
  8
0
 10
-3.9377331814618595
 20
-62.06042392774121
 11
-3.66138716302837
 21
-61.3298072454657
  0
LINE
  8
0
 10
-3.66138716302837
 20
-61.3298072454657
 11
-3.450326415590882
 21
-60.690476193708356
  0
LINE
  8
0
 10
-3.450326415590882
 20
-60.690476193708356
 11
-3.2695666810480444
 21
-60.052555964427796
  0
LINE
  8
0
 10
-3.2695666810480444
 20
-60.052555964427796
 11
-3.166096376198882
 21
-59.82950563318598
  0
LINE
  8
0
 10
-3.166096376198882
 20
-59.82950563318598
 11
-3.0544075369937627
 21
-59.72504578338237
  0
LINE
  8
0
 10
-3.0544075369937627
 20
-59.72504578338237
 11
-0.7784648925734713
 21
-59.79803083413497
  0
LINE
  8
0
 10
-0.7784648925734713
 20
-59.79803083413497
 11
-0.6736982956254393
 21
-59.90943198847161
  0
LINE
  8
0
 10
-0.6736982956254393
 20
-59.90943198847161
 11
-0.5847314654112804
 21
-60.13865340408061
  0
LINE
  8
0
 10
-0.5847314654112804
 20
-60.13865340408061
 11
-0.44521481054113826
 21
-60.78684427378796
  0
LINE
  8
0
 10
-0.44521481054113826
 20
-60.78684427378796
 11
-0.27554979117137757
 21
-61.43838445984819
  0
LINE
  8
0
 10
-0.27554979117137757
 20
-61.43838445984819
 11
-0.046582326825786745
 21
-62.185205561983594
  0
LINE
  8
0
 10
-0.046582326825786745
 20
-62.185205561983594
 11
0.2500824077585687
 21
-63.02324139323517
  0
LINE
  8
0
 10
0.2500824077585687
 20
-63.02324139323517
 11
0.6225920727857331
 21
-63.94788503538271
  0
LINE
  8
0
 10
0.6225920727857331
 20
-63.94788503538271
 11
1.0400284860628477
 21
-64.86846333358045
  0
LINE
  8
0
 10
1.0400284860628477
 20
-64.86846333358045
 11
2.081276137804271
 21
-64.9018541191062
  0
LINE
  8
0
 10
2.081276137804271
 20
-64.9018541191062
 11
3.118245079597767
 21
-64.80181897242889
  0
LINE
  8
0
 10
3.118245079597767
 20
-64.80181897242889
 11
3.475842170918185
 21
-63.85638685825187
  0
LINE
  8
0
 10
3.475842170918185
 20
-63.85638685825187
 11
3.7883443533307646
 21
-62.909776219451835
  0
LINE
  8
0
 10
3.7883443533307646
 20
-62.909776219451835
 11
4.030706418342459
 21
-62.054454847887214
  0
LINE
  8
0
 10
4.030706418342459
 20
-62.054454847887214
 11
4.211354452175865
 21
-61.2944981739936
  0
LINE
  8
0
 10
4.211354452175865
 20
-61.2944981739936
 11
4.338926553518936
 21
-60.633426172008235
  0
LINE
  8
0
 10
4.338926553518936
 20
-60.633426172008235
 11
4.436626824838338
 21
-59.977628217191764
  0
LINE
  8
0
 10
4.436626824838338
 20
-59.977628217191764
 11
4.5107245966429925
 21
-59.74317763718342
  0
LINE
  8
0
 10
4.5107245966429925
 20
-59.74317763718342
 11
4.6081384429192624
 21
-59.62529294955333
  0
LINE
  8
0
 10
4.6081384429192624
 20
-59.62529294955333
 11
6.874728750825421
 21
-59.40663770852295
  0
LINE
  8
0
 10
6.874728750825421
 20
-59.40663770852295
 11
6.992880878885671
 21
-59.50372700586535
  0
LINE
  8
0
 10
6.992880878885671
 20
-59.50372700586535
 11
7.110429476678966
 21
-59.71968969108893
  0
LINE
  8
0
 10
7.110429476678966
 20
-59.71968969108893
 11
7.331689510389185
 21
-60.344717928883576
  0
LINE
  8
0
 10
7.331689510389185
 20
-60.344717928883576
 11
7.583278692012017
 21
-60.969212697908496
  0
LINE
  8
0
 10
7.583278692012017
 20
-60.969212697908496
 11
7.905867699467576
 21
-61.68062269966025
  0
LINE
  8
0
 10
7.905867699467576
 20
-61.68062269966025
 11
8.30726246417223
 21
-62.473841624091094
  0
LINE
  8
0
 10
8.30726246417223
 20
-62.473841624091094
 11
8.794954634526267
 21
-63.343258476054466
  0
LINE
  8
0
 10
8.794954634526267
 20
-63.343258476054466
 11
9.32668484050257
 21
-64.20289825543557
  0
LINE
  8
0
 10
9.32668484050257
 20
-64.20289825543557
 11
10.363653782296064
 21
-64.10286310875836
  0
LINE
  8
0
 10
10.363653782296064
 20
-64.10286310875836
 11
11.379317012785933
 21
-63.871044604221076
  0
LINE
  8
0
 10
11.379317012785933
 20
-63.871044604221076
 11
11.613079061603429
 21
-62.88764597356783
  0
LINE
  8
0
 10
11.613079061603429
 20
-62.88764597356783
 11
11.801965723708092
 21
-61.908845102919976
  0
LINE
  8
0
 10
11.801965723708092
 20
-61.908845102919976
 11
11.932961930192487
 21
-61.029553335018896
  0
LINE
  8
0
 10
11.932961930192487
 20
-61.029553335018896
 11
12.014945743704551
 21
-60.252735137082375
  0
LINE
  8
0
 10
12.014945743704551
 20
-60.252735137082375
 11
12.056934468576072
 21
-59.58077696886527
  0
LINE
  8
0
 10
12.056934468576072
 20
-59.58077696886527
 11
12.069971040918041
 21
-58.917869472800454
  0
LINE
  8
0
 10
12.069971040918041
 20
-58.917869472800454
 11
12.113479596313699
 21
-58.675868316067586
  0
LINE
  8
0
 10
12.113479596313699
 20
-58.675868316067586
 11
12.195018916998416
 21
-58.54649445392282
  0
LINE
  8
0
 10
12.195018916998416
 20
-58.54649445392282
 11
14.415039538197892
 21
-58.03978923412211
  0
LINE
  8
0
 10
14.415039538197892
 20
-58.03978923412211
 11
14.544637142694103
 21
-58.1209724708921
  0
LINE
  8
0
 10
14.544637142694103
 20
-58.1209724708921
 11
14.688837363340575
 21
-58.3201303244095
  0
LINE
  8
0
 10
14.688837363340575
 20
-58.3201303244095
 11
14.988207692254413
 21
-58.91173298390669
  0
LINE
  8
0
 10
14.988207692254413
 20
-58.91173298390669
 11
15.317589948723628
 21
-59.498928149053995
  0
LINE
  8
0
 10
15.317589948723628
 20
-59.498928149053995
 11
15.728503596705186
 21
-60.16324571786133
  0
LINE
  8
0
 10
15.728503596705186
 20
-60.16324571786133
 11
16.228037500590847
 21
-60.898623102662
  0
LINE
  8
0
 10
16.228037500590847
 20
-60.898623102662
 11
16.822904284317524
 21
-61.69853736376828
  0
LINE
  8
0
 10
16.822904284317524
 20
-61.69853736376828
 11
17.460197287711352
 21
-62.48312336292153
  0
LINE
  8
0
 10
17.460197287711352
 20
-62.48312336292153
 11
18.47586051820122
 21
-62.251304858384195
  0
LINE
  8
0
 10
18.47586051820122
 20
-62.251304858384195
 11
19.453540875222377
 21
-61.89150944942239
  0
LINE
  8
0
 10
19.453540875222377
 20
-61.89150944942239
 11
19.559629515158047
 21
-60.88629168062062
  0
LINE
  8
0
 10
19.559629515158047
 20
-60.88629168062062
 11
19.621799143185086
 21
-59.891372461360596
  0
LINE
  8
0
 10
19.621799143185086
 20
-59.891372461360596
 11
19.639278537053297
 21
-59.00254824364264
  0
LINE
  8
0
 10
19.639278537053297
 20
-59.00254824364264
 11
19.62125195829271
 21
-58.22162385499704
  0
LINE
  8
0
 10
19.62125195829271
 20
-58.22162385499704
 11
19.57696785299113
 21
-57.54981305509303
  0
LINE
  8
0
 10
19.57696785299113
 20
-57.54981305509303
 11
19.505126666198233
 21
-56.89068094053819
  0
LINE
  8
0
 10
19.505126666198233
 20
-56.89068094053819
 11
19.51733159590815
 21
-56.64510285938387
  0
LINE
  8
0
 10
19.51733159590815
 20
-56.64510285938387
 11
19.58165751760995
 21
-56.50636413796409
  0
LINE
  8
0
 10
19.58165751760995
 20
-56.50636413796409
 11
21.718655774878435
 21
-55.71992902509358
  0
LINE
  8
0
 10
21.718655774878435
 20
-55.71992902509358
 11
21.857570866727695
 21
-55.783873174787814
  0
LINE
  8
0
 10
21.857570866727695
 20
-55.783873174787814
 11
22.02605494659096
 21
-55.96295603015029
  0
LINE
  8
0
 10
22.02605494659096
 20
-55.96295603015029
 11
22.39861991818419
 21
-56.51141901203682
  0
LINE
  8
0
 10
22.39861991818419
 20
-56.51141901203682
 11
22.80038680195483
 21
-57.05167284492869
  0
LINE
  8
0
 10
22.80038680195483
 20
-57.05167284492869
 11
23.292877899722853
 21
-57.65798990467783
  0
LINE
  8
0
 10
23.292877899722853
 20
-57.65798990467783
 11
23.882348609898077
 21
-58.32345087352051
  0
LINE
  8
0
 10
23.882348609898077
 20
-58.32345087352051
 11
24.574622310854576
 21
-59.04072797371716
  0
LINE
  8
0
 10
24.574622310854576
 20
-59.04072797371716
 11
25.307013778169125
 21
-59.73737731222752
  0
LINE
  8
0
 10
25.307013778169125
 20
-59.73737731222752
 11
26.284694135190147
 21
-59.37758190326562
  0
LINE
  8
0
 10
26.284694135190147
 20
-59.37758190326562
 11
27.20833813430972
 21
-58.895717420547264
  0
LINE
  8
0
 10
27.20833813430972
 20
-58.895717420547264
 11
27.1850113928288
 21
-57.88518616157006
  0
LINE
  8
0
 10
27.1850113928288
 20
-57.88518616157006
 11
27.11944316320479
 21
-56.89048513977206
  0
LINE
  8
0
 10
27.11944316320479
 20
-56.89048513977206
 11
27.023118733292744
 21
-56.0067229413193
  0
LINE
  8
0
 10
27.023118733292744
 20
-56.0067229413193
 11
26.90537775818439
 21
-55.234515118836356
  0
LINE
  8
0
 10
26.90537775818439
 20
-55.234515118836356
 11
26.775547966494468
 21
-54.57388280200666
  0
LINE
  8
0
 10
26.775547966494468
 20
-54.57388280200666
 11
26.62000865086768
 21
-53.92934900006009
  0
LINE
  8
0
 10
26.62000865086768
 20
-53.92934900006009
 11
26.60070955028345
 21
-53.684226379787496
  0
LINE
  8
0
 10
26.60070955028345
 20
-53.684226379787496
 11
26.646765843146373
 21
-53.53840088506279
  0
LINE
  8
0
 10
26.646765843146373
 20
-53.53840088506279
 11
28.665652284180023
 21
-52.485149121933624
  0
LINE
  8
0
 10
28.665652284180023
 20
-52.485149121933624
 11
28.811603881414687
 21
-52.53080422338196
  0
LINE
  8
0
 10
28.811603881414687
 20
-52.53080422338196
 11
29.001605316561378
 21
-52.686871545055475
  0
LINE
  8
0
 10
29.001605316561378
 20
-52.686871545055475
 11
29.441247424300556
 21
-53.18318910233185
  0
LINE
  8
0
 10
29.441247424300556
 20
-53.18318910233185
 11
29.908801934248547
 21
-53.667630649968324
  0
LINE
  8
0
 10
29.908801934248547
 20
-53.667630649968324
 11
30.474783791593335
 21
-54.20599149130073
  0
LINE
  8
0
 10
30.474783791593335
 20
-54.20599149130073
 11
31.144512215293847
 21
-54.79060919347469
  0
LINE
  8
0
 10
31.144512215293847
 20
-54.79060919347469
 11
31.922825718449403
 21
-55.41347146260669
  0
LINE
  8
0
 10
31.922825718449403
 20
-55.41347146260669
 11
32.738289802039446
 21
-56.010745177595744
  0
LINE
  8
0
 10
32.738289802039446
 20
-56.010745177595744
 11
33.66193380115899
 21
-55.528880694877294
  0
LINE
  8
0
 10
33.66193380115899
 20
-55.528880694877294
 11
34.51637523344691
 21
-54.932859339886704
  0
LINE
  8
0
 10
34.51637523344691
 20
-54.932859339886704
 11
34.36401613499962
 21
-53.93360748606882
  0
LINE
  8
0
 10
34.36401613499962
 20
-53.93360748606882
 11
34.17178667624225
 21
-52.95545762501078
  0
LINE
  8
0
 10
34.17178667624225
 20
-52.95545762501078
 11
33.96324006702607
 21
-52.0912687966889
  0
LINE
  8
0
 10
33.96324006702607
 20
-52.0912687966889
 11
33.7477179991261
 21
-51.34045717146494
  0
LINE
  8
0
 10
33.7477179991261
 20
-51.34045717146494
 11
33.53447432263805
 21
-50.70185090208773
  0
LINE
  8
0
 10
33.53447432263805
 20
-50.70185090208773
 11
33.29779082943985
 21
-50.08249863995829
  0
LINE
  8
0
 10
33.29779082943985
 20
-50.08249863995829
 11
33.24730458925951
 21
-49.84185638721552
  0
LINE
  8
0
 10
33.24730458925951
 20
-49.84185638721552
 11
33.274335010228036
 21
-49.6913385697777
  0
LINE
  8
0
 10
33.274335010228036
 20
-49.6913385697777
 11
35.1419595754802
 21
-48.38856452122176
  0
LINE
  8
0
 10
35.1419595754802
 20
-48.38856452122176
 11
35.29255115690873
 21
-48.415180918920605
  0
LINE
  8
0
 10
35.29255115690873
 20
-48.415180918920605
 11
35.50095012902661
 21
-48.545670085798
  0
LINE
  8
0
 10
35.50095012902661
 20
-48.545670085798
 11
36.00045046165722
 21
-48.98169269789518
  0
LINE
  8
0
 10
36.00045046165722
 20
-48.98169269789518
 11
36.526115365655464
 21
-49.40236744345717
  0
LINE
  8
0
 10
36.526115365655464
 20
-49.40236744345717
 11
37.15629457612683
 21
-49.863932196241954
  0
LINE
  8
0
 10
37.15629457612683
 20
-49.863932196241954
 11
37.8952837911511
 21
-50.35810722524012
  0
LINE
  8
0
 10
37.8952837911511
 20
-50.35810722524012
 11
38.74685721030154
 21
-50.87632728206826
  0
LINE
  8
0
 10
38.74685721030154
 20
-50.87632728206826
 11
39.63200401245923
 21
-51.36441815564836
  0
LINE
  8
0
 10
39.63200401245923
 20
-51.36441815564836
 11
40.48644544474715
 21
-50.76839680065776
  0
LINE
  8
0
 10
40.48644544474715
 20
-50.76839680065776
 11
41.257654405507566
 21
-50.06800522756606
  0
LINE
  8
0
 10
41.257654405507566
 20
-50.06800522756606
 11
40.97876468227826
 21
-49.09644046672139
  0
LINE
  8
0
 10
40.97876468227826
 20
-49.09644046672139
 11
40.66303039678586
 21
-48.15090296007948
  0
LINE
  8
0
 10
40.66303039678586
 20
-48.15090296007948
 11
40.345685937823276
 21
-47.32047745855771
  0
LINE
  8
0
 10
40.345685937823276
 20
-47.32047745855771
 11
40.03592164352819
 21
-46.60339033672161
  0
LINE
  8
0
 10
40.03592164352819
 20
-46.60339033672161
 11
39.74276553751448
 21
-45.99729601208483
  0
LINE
  8
0
 10
39.74276553751448
 20
-45.99729601208483
 11
39.428824203159714
 21
-45.413295036793784
  0
LINE
  8
0
 10
39.428824203159714
 20
-45.413295036793784
 11
39.34797980605127
 21
-45.18108449071796
  0
LINE
  8
0
 10
39.34797980605127
 20
-45.18108449071796
 11
39.35554051636039
 21
-45.028345848968065
  0
LINE
  8
0
 10
39.35554051636039
 20
-45.028345848968065
 11
41.04123686210291
 21
-43.49744102884549
  0
LINE
  8
0
 10
41.04123686210291
 20
-43.49744102884549
 11
41.19399571812156
 21
-43.5045816822805
  0
LINE
  8
0
 10
41.19399571812156
 20
-43.5045816822805
 11
41.41737032184997
 21
-43.60735006584921
  0
LINE
  8
0
 10
41.41737032184997
 20
-43.60735006584921
 11
41.96852709771965
 21
-43.97591825353105
  0
LINE
  8
0
 10
41.96852709771965
 20
-43.97591825353105
 11
42.543670992577276
 21
-44.32591872932661
  0
LINE
  8
0
 10
42.543670992577276
 20
-44.32591872932661
 11
43.22770003096153
 21
-44.7031085130837
  0
LINE
  8
0
 10
43.22770003096153
 20
-44.7031085130837
 11
44.02381585482932
 21
-45.09872652859212
  0
LINE
  8
0
 10
44.02381585482932
 20
-45.09872652859212
 11
44.93466637797521
 21
-45.50379521411026
  0
LINE
  8
0
 10
44.93466637797521
 20
-45.50379521411026
 11
45.874961812680276
 21
-45.87468880763118
  0
LINE
  8
0
 10
45.874961812680276
 20
-45.87468880763118
 11
46.64617077344067
 21
-45.174297234539516
  0
LINE
  8
0
 10
46.64617077344067
 20
-45.174297234539516
 11
47.321484032859196
 21
-44.38103585361357
  0
LINE
  8
0
 10
47.321484032859196
 20
-44.38103585361357
 11
46.92064304639294
 21
-43.45311125225479
  0
LINE
  8
0
 10
46.92064304639294
 20
-43.45311125225479
 11
46.486588282404334
 21
-42.555711799747264
  0
LINE
  8
0
 10
46.486588282404334
 20
-42.555711799747264
 11
46.06565676093808
 21
-41.77268518880226
  0
LINE
  8
0
 10
46.06565676093808
 20
-41.77268518880226
 11
45.66673656139629
 21
-41.101097121069614
  0
LINE
  8
0
 10
45.66673656139629
 20
-41.101097121069614
 11
45.29848164101296
 21
-40.53746679322743
  0
LINE
  8
0
 10
45.29848164101296
 20
-40.53746679322743
 11
44.91243737353235
 21
-39.99840638464347
  0
LINE
  8
0
 10
44.91243737353235
 20
-39.99840638464347
 11
44.80256228226124
 21
-39.77844043598134
  0
LINE
  8
0
 10
44.80256228226124
 20
-39.77844043598134
 11
44.790529135256726
 21
-39.625988934194226
  0
LINE
  8
0
 10
44.790529135256726
 20
-39.625988934194226
 11
46.26661817409608
 21
-37.89209075732728
  0
LINE
  8
0
 10
46.26661817409608
 20
-37.89209075732728
 11
46.41903600851229
 21
-37.87963841716646
  0
LINE
  8
0
 10
46.41903600851229
 20
-37.87963841716646
 11
46.65371843903352
 21
-37.95299856340947
  0
LINE
  8
0
 10
46.65371843903352
 20
-37.95299856340947
 11
47.24748167912004
 21
-38.24806044722385
  0
LINE
  8
0
 10
47.24748167912004
 20
-38.24806044722385
 11
47.86266071798421
 21
-38.521639655116715
  0
LINE
  8
0
 10
47.86266071798421
 20
-38.521639655116715
 11
48.58930784638207
 21
-38.80826102402478
  0
LINE
  8
0
 10
48.58930784638207
 20
-38.80826102402478
 11
49.42947807927529
 21
-39.09882598916627
  0
LINE
  8
0
 10
49.42947807927529
 20
-39.09882598916627
 11
50.3846495660084
 21
-39.38409208675693
  0
LINE
  8
0
 10
50.3846495660084
 20
-39.38409208675693
 11
51.36465400821894
 21
-39.63169833766706
  0
LINE
  8
0
 10
51.36465400821894
 20
-39.63169833766706
 11
52.03996726763748
 21
-38.83843695674102
  0
LINE
  8
0
 10
52.03996726763748
 20
-38.83843695674102
 11
52.60829620066442
 21
-37.96533109792462
  0
LINE
  8
0
 10
52.60829620066442
 20
-37.96533109792462
 11
52.0920857488771
 21
-37.096283152352186
  0
LINE
  8
0
 10
52.0920857488771
 20
-37.096283152352186
 11
51.54683767361692
 21
-36.26175702817927
  0
LINE
  8
0
 10
51.54683767361692
 20
-36.26175702817927
 11
51.029230773592175
 21
-35.53898658311479
  0
LINE
  8
0
 10
51.029230773592175
 20
-35.53898658311479
 11
50.54770492745142
 21
-34.92392502699074
  0
LINE
  8
0
 10
50.54770492745142
 20
-34.92392502699074
 11
50.11039792831018
 21
-34.41201349034391
  0
LINE
  8
0
 10
50.11039792831018
 20
-34.41201349034391
 11
49.658589563903
 21
-33.92674500547285
  0
LINE
  8
0
 10
49.658589563903
 20
-33.92674500547285
 11
49.52148792443025
 21
-33.72263548902017
  0
LINE
  8
0
 10
49.52148792443025
 20
-33.72263548902017
 11
49.490058504053216
 21
-33.57297437664042
  0
LINE
  8
0
 10
49.490058504053216
 20
-33.57297437664042
 11
50.73230289478036
 21
-31.66455340315707
  0
LINE
  8
0
 10
50.73230289478036
 20
-31.66455340315707
 11
50.881877010966825
 21
-31.632712536481588
  0
LINE
  8
0
 10
50.881877010966825
 20
-31.632712536481588
 11
51.12401378925987
 21
-31.675459873825748
  0
LINE
  8
0
 10
51.12401378925987
 20
-31.675459873825748
 11
51.75063391757648
 21
-31.892170545797857
  0
LINE
  8
0
 10
51.75063391757648
 20
-31.892170545797857
 11
52.39574687763658
 21
-32.08483632275792
  0
LINE
  8
0
 10
52.39574687763658
 20
-32.08483632275792
 11
53.153080570289006
 21
-32.276182961863576
  0
LINE
  8
0
 10
53.153080570289006
 20
-32.276182961863576
 11
54.0235096402113
 21
-32.45692380794361
  0
LINE
  8
0
 10
54.0235096402113
 20
-32.45692380794361
 11
55.00731820112661
 21
-32.61770325617095
  0
LINE
  8
0
 10
55.00731820112661
 20
-32.61770325617095
 11
56.010940004995135
 21
-32.7379564766757
  0
LINE
  8
0
 10
56.010940004995135
 20
-32.7379564766757
 11
56.579268938022004
 21
-31.864850617859396
  0
LINE
  8
0
 10
56.579268938022004
 20
-31.864850617859396
 11
57.031281599289436
 21
-30.9262366552161
  0
LINE
  8
0
 10
57.031281599289436
 20
-30.9262366552161
 11
56.40817784352806
 21
-30.130335108670195
  0
LINE
  8
0
 10
56.40817784352806
 20
-30.130335108670195
 11
55.760689415317856
 21
-29.372385208719088
  0
LINE
  8
0
 10
55.760689415317856
 20
-29.372385208719088
 11
55.15490622772302
 21
-28.72173880026104
  0
LINE
  8
0
 10
55.15490622772302
 20
-28.72173880026104
 11
54.59868137606443
 21
-28.173303049492823
  0
LINE
  8
0
 10
54.59868137606443
 20
-28.173303049492823
 11
54.09950286700119
 21
-27.721515877320538
  0
LINE
  8
0
 10
54.09950286700119
 20
-27.721515877320538
 11
53.58934908652008
 21
-27.298007411267992
  0
LINE
  8
0
 10
53.58934908652008
 20
-27.298007411267992
 11
53.42727210397544
 21
-27.113105799642003
  0
LINE
  8
0
 10
53.42727210397544
 20
-27.113105799642003
 11
53.37696248043959
 21
-26.968692507997286
  0
LINE
  8
0
 10
53.37696248043959
 20
-26.968692507997286
 11
54.36496460450248
 21
-24.91708495752098
  0
LINE
  8
0
 10
54.36496460450248
 20
-24.91708495752098
 11
54.509238999606616
 21
-24.86637839048137
  0
LINE
  8
0
 10
54.509238999606616
 20
-24.86637839048137
 11
54.75485424646613
 21
-24.877811008829298
  0
LINE
  8
0
 10
54.75485424646613
 20
-24.877811008829298
 11
55.40404217782972
 21
-25.01261208571665
  0
LINE
  8
0
 10
55.40404217782972
 20
-25.01261208571665
 11
56.06849632211668
 21
-25.121200865012764
  0
LINE
  8
0
 10
56.06849632211668
 20
-25.121200865012764
 11
56.84408118072794
 21
-25.214130867791955
  0
LINE
  8
0
 10
56.84408118072794
 20
-25.214130867791955
 11
57.730476666415505
 21
-25.28207983511475
  0
LINE
  8
0
 10
57.730476666415505
 20
-25.28207983511475
 11
58.726768192141634
 21
-25.31573263988387
  0
LINE
  8
0
 10
58.726768192141634
 20
-25.31573263988387
 11
59.73752791539528
 21
-25.306658275427182
  0
LINE
  8
0
 10
59.73752791539528
 20
-25.306658275427182
 11
60.189540576662694
 21
-24.368044312783795
  0
LINE
  8
0
 10
60.189540576662694
 20
-24.368044312783795
 11
60.51781493076874
 21
-23.379334261630625
  0
LINE
  8
0
 10
60.51781493076874
 20
-23.379334261630625
 11
59.79804921747662
 21
-22.669647795501767
  0
LINE
  8
0
 10
59.79804921747662
 20
-22.669647795501767
 11
59.05895217840681
 21
-22.000719636175013
  0
LINE
  8
0
 10
59.05895217840681
 20
-22.000719636175013
 11
58.374939646434406
 21
-21.432880860362182
  0
LINE
  8
0
 10
58.374939646434406
 20
-21.432880860362182
 11
57.75314898594455
 21
-20.960076214815096
  0
LINE
  8
0
 10
57.75314898594455
 20
-20.960076214815096
 11
57.200295464277595
 21
-20.57583173999409
  0
LINE
  8
0
 10
57.200295464277595
 20
-20.57583173999409
 11
56.64017297869409
 21
-20.22103729006412
  0
LINE
  8
0
 10
56.64017297869409
 20
-20.22103729006412
 11
56.45578195265009
 21
-20.058379662615838
  0
LINE
  8
0
 10
56.45578195265009
 20
-20.058379662615838
 11
56.387418208582986
 21
-19.921585453962447
  0
LINE
  8
0
 10
56.387418208582986
 20
-19.921585453962447
 11
57.1049550984193
 21
-17.76047866575225
  0
LINE
  8
0
 10
57.1049550984193
 20
-17.76047866575225
 11
57.24156079086218
 21
-17.691738998777435
  0
LINE
  8
0
 10
57.24156079086218
 20
-17.691738998777435
 11
57.48662151072513
 21
-17.671669174851928
  0
LINE
  8
0
 10
57.48662151072513
 20
-17.671669174851928
 11
58.147717597250484
 21
-17.722347226698815
  0
LINE
  8
0
 10
58.147717597250484
 20
-17.722347226698815
 11
58.82060260708493
 21
-17.74507598357703
  0
LINE
  8
0
 10
58.82060260708493
 20
-17.74507598357703
 11
59.60170354971883
 21
-17.738063441953308
  0
LINE
  8
0
 10
59.60170354971883
 20
-17.738063441953308
 11
60.489510861802394
 21
-17.692104810353978
  0
LINE
  8
0
 10
60.489510861802394
 20
-17.692104810353978
 11
61.48192627303089
 21
-17.59807839354095
  0
LINE
  8
0
 10
61.48192627303089
 20
-17.59807839354095
 11
62.483227268957755
 21
-17.459825444936303
  0
LINE
  8
0
 10
62.483227268957755
 20
-17.459825444936303
 11
62.81150162306422
 21
-16.471115393783272
  0
LINE
  8
0
 10
62.81150162306422
 20
-16.471115393783272
 11
63.010647414190814
 21
-15.448543845826055
  0
LINE
  8
0
 10
63.010647414190814
 20
-15.448543845826055
 11
62.20603827648048
 21
-14.836725492267487
  0
LINE
  8
0
 10
62.20603827648048
 20
-14.836725492267487
 11
61.38746857949918
 21
-14.26780285544772
  0
LINE
  8
0
 10
61.38746857949918
 20
-14.26780285544772
 11
60.63645817001364
 21
-13.7920956092802
  0
LINE
  8
0
 10
60.63645817001364
 20
-13.7920956092802
 11
59.95931148614743
 21
-13.402685508162737
  0
LINE
  8
0
 10
59.95931148614743
 20
-13.402685508162737
 11
59.36186079141806
 21
-13.09229301434656
  0
LINE
  8
0
 10
59.36186079141806
 20
-13.09229301434656
 11
58.760966796460025
 21
-12.812038295598194
  0
LINE
  8
0
 10
58.760966796460025
 20
-12.812038295598194
 11
58.557289422466546
 21
-12.674295486073408
  0
LINE
  8
0
 10
58.557289422466546
 20
-12.674295486073408
 11
58.47199408865575
 21
-12.547366517535549
  0
LINE
  8
0
 10
58.47199408865575
 20
-12.547366517535549
 11
58.90728380837175
 21
-10.312245805306846
  0
LINE
  8
0
 10
58.90728380837175
 20
-10.312245805306846
 11
59.03397773646014
 21
-10.22660174182815
  0
LINE
  8
0
 10
59.03397773646014
 20
-10.22660174182815
 11
59.27446003908145
 21
-10.175359021583205
  0
LINE
  8
0
 10
59.27446003908145
 20
-10.175359021583205
 11
59.936609101304796
 21
-10.141081916179367
  0
LINE
  8
0
 10
59.936609101304796
 20
-10.141081916179367
 11
60.60687622342816
 21
-10.077577445080117
  0
LINE
  8
0
 10
60.60687622342816
 20
-10.077577445080117
 11
61.38066759420135
 21
-9.970737504793075
  0
LINE
  8
0
 10
61.38066759420135
 20
-9.970737504793075
 11
62.25530896116126
 21
-9.811625913731879
  0
LINE
  8
0
 10
62.25530896116126
 20
-9.811625913731879
 11
63.227552824276565
 21
-9.59146418650127
  0
LINE
  8
0
 10
63.227552824276565
 20
-9.59146418650127
 11
64.20295375820614
 21
-9.326302763342593
  0
LINE
  8
0
 10
0.3118675362266391
 20
-1.4672214011007085
 11
9.18454765366783e-17
 21
-1.5
  0
LINE
  8
0
 10
9.18454765366783e-17
 20
-1.5
 11
-0.3118675362266384
 21
-1.4672214011007085
  0
LINE
  8
0
 10
-0.3118675362266384
 20
-1.4672214011007085
 11
-0.6101049646137001
 21
-1.3703181864639014
  0
LINE
  8
0
 10
-0.6101049646137001
 20
-1.3703181864639014
 11
-0.8816778784387099
 21
-1.213525491562421
  0
LINE
  8
0
 10
-0.8816778784387099
 20
-1.213525491562421
 11
-1.114717238216091
 21
-1.0036959095382878
  0
LINE
  8
0
 10
-1.114717238216091
 20
-1.0036959095382878
 11
-1.299038105676658
 21
-0.7500000000000003
  0
LINE
  8
0
 10
-1.299038105676658
 20
-0.7500000000000003
 11
-1.4265847744427305
 21
-0.46352549156242095
  0
LINE
  8
0
 10
-1.4265847744427305
 20
-0.46352549156242095
 11
-1.49178284305241
 21
-0.15679269490147957
  0
LINE
  8
0
 10
-1.49178284305241
 20
-0.15679269490147957
 11
-1.4917828430524098
 21
0.15679269490148126
  0
LINE
  8
0
 10
-1.4917828430524098
 20
0.15679269490148126
 11
-1.4265847744427302
 21
0.46352549156242123
  0
LINE
  8
0
 10
-1.4265847744427302
 20
0.46352549156242123
 11
-1.2990381056766576
 21
0.7500000000000006
  0
LINE
  8
0
 10
-1.2990381056766576
 20
0.7500000000000006
 11
-1.114717238216091
 21
1.0036959095382878
  0
LINE
  8
0
 10
-1.114717238216091
 20
1.0036959095382878
 11
-0.8816778784387097
 21
1.2135254915624214
  0
LINE
  8
0
 10
-0.8816778784387097
 20
1.2135254915624214
 11
-0.6101049646137005
 21
1.3703181864639014
  0
LINE
  8
0
 10
-0.6101049646137005
 20
1.3703181864639014
 11
-0.3118675362266387
 21
1.4672214011007085
  0
LINE
  8
0
 10
-0.3118675362266387
 20
1.4672214011007085
 11
7.579792913117722e-16
 21
1.5
  0
LINE
  8
0
 10
7.579792913117722e-16
 20
1.5
 11
0.3118675362266389
 21
1.4672214011007085
  0
LINE
  8
0
 10
0.3118675362266389
 20
1.4672214011007085
 11
0.6101049646136999
 21
1.3703181864639014
  0
LINE
  8
0
 10
0.6101049646136999
 20
1.3703181864639014
 11
0.8816778784387097
 21
1.213525491562421
  0
LINE
  8
0
 10
0.8816778784387097
 20
1.213525491562421
 11
1.1147172382160917
 21
1.003695909538287
  0
LINE
  8
0
 10
1.1147172382160917
 20
1.003695909538287
 11
1.299038105676658
 21
0.7499999999999998
  0
LINE
  8
0
 10
1.299038105676658
 20
0.7499999999999998
 11
1.4265847744427305
 21
0.4635254915624211
  0
LINE
  8
0
 10
1.4265847744427305
 20
0.4635254915624211
 11
1.49178284305241
 21
0.1567926949014801
  0
LINE
  8
0
 10
1.49178284305241
 20
0.1567926949014801
 11
1.4917828430524098
 21
-0.1567926949014801
  0
LINE
  8
0
 10
1.4917828430524098
 20
-0.1567926949014801
 11
1.4265847744427302
 21
-0.46352549156242107
  0
LINE
  8
0
 10
1.4265847744427302
 20
-0.46352549156242107
 11
1.299038105676658
 21
-0.7500000000000001
  0
LINE
  8
0
 10
1.299038105676658
 20
-0.7500000000000001
 11
1.1147172382160913
 21
-1.0036959095382874
  0
LINE
  8
0
 10
1.1147172382160913
 20
-1.0036959095382874
 11
0.8816778784387098
 21
-1.2135254915624212
  0
LINE
  8
0
 10
0.8816778784387098
 20
-1.2135254915624212
 11
0.6101049646137003
 21
-1.3703181864639014
  0
LINE
  8
0
 10
0.6101049646137003
 20
-1.3703181864639014
 11
0.3118675362266391
 21
-1.4672214011007085
  0
ENDSEC
  0
SECTION
  2
OBJECTS
  0
DICTIONARY
  0
ENDSEC
  0
EOF
