0
SECTION
2
HEADER
9
$ACADVER
1
AC1009
9
$INSBASE
10
0.0
20
0.0
30
0.0
9
$EXTMIN
10
0.0
20
0.0
9
$EXTMAX
10
0.0
20
0.0
0
ENDSEC
0
SECTION
2
TABLES
0
TABLE
2
LTYPE
70
1
0
LTYPE
2
CONTINUOUS
70
64
3
Solid line
72
65
73
0
40
0.0
0
ENDTAB
0
TABLE
2
LAYER
70
0
0
ENDTAB
0
TABLE
2
STYLE
70
1
0
STYLE
2
STANDARD
70
0
40
0
41
40
50
50
71
0
42
1
3
ARIAL.TTF
4

0
ENDTAB
0
TABLE
2
VIEW
70
0
0
ENDTAB
0
ENDSEC
0
SECTION
2
BLOCKS
0
ENDSEC
0
SECTION
2
ENTITIES
0
LINE
8
0
10
131.699439345
20
56.7553672348
11
131.894839199
21
57.7796891409
0
LINE
8
0
10
131.894839199
20
57.7796891409
11
131.96031669
21
58.8204240584
0
LINE
8
0
10
131.96031669
20
58.8204240584
11
131.079073523
21
59.3227037489
0
LINE
8
0
10
131.079073523
20
59.3227037489
11
130.195483807
21
59.778401486
0
LINE
8
0
10
130.195483807
20
59.778401486
11
129.389480463
21
60.1522232887
0
LINE
8
0
10
129.389480463
20
60.1522232887
11
128.666202362
21
60.4515445905
0
LINE
8
0
10
128.666202362
20
60.4515445905
11
128.030303662
21
60.6840204608
0
LINE
8
0
10
128.030303662
20
60.6840204608
11
127.396098831
21
60.8861981292
0
LINE
8
0
10
127.396098831
20
60.8861981292
11
127.180871224
21
60.9945613466
0
LINE
8
0
10
127.180871224
20
60.9945613466
11
127.081965121
21
61.1071650943
0
LINE
8
0
10
127.081965121
20
61.1071650943
11
127.224946203
21
63.3797843208
0
LINE
8
0
10
127.224946203
20
63.3797843208
11
127.337185394
21
63.4791039327
0
LINE
8
0
10
127.337185394
20
63.4791039327
11
127.564297379
21
63.5596375018
0
LINE
8
0
10
127.564297379
20
63.5596375018
11
128.218840897
21
63.6807339966
0
LINE
8
0
10
128.218840897
20
63.6807339966
11
128.878862298
21
63.831677485
0
LINE
8
0
10
128.878862298
20
63.831677485
11
129.633952042
21
64.0379877657
0
LINE
8
0
10
129.633952042
20
64.0379877657
11
130.480452104
21
64.3078428665
0
LINE
8
0
10
130.480452104
20
64.3078428665
11
131.414188522
21
64.6492041346
0
LINE
8
0
10
131.414188522
20
64.6492041346
11
132.351435161
21
65.0370741441
0
LINE
8
0
10
132.351435161
20
65.0370741441
11
132.416912652
21
66.0778090616
0
LINE
8
0
10
132.416912652
20
66.0778090616
11
132.351435161
21
67.118543979
0
LINE
8
0
10
132.351435161
20
67.118543979
11
131.414188522
21
67.5064139885
0
LINE
8
0
10
131.414188522
20
67.5064139885
11
130.480452104
21
67.8477752566
0
LINE
8
0
10
130.480452104
20
67.8477752566
11
129.633952042
21
68.1176303574
0
LINE
8
0
10
129.633952042
20
68.1176303574
11
128.878862298
21
68.3239406381
0
LINE
8
0
10
128.878862298
20
68.3239406381
11
128.218840897
21
68.4748841265
0
LINE
8
0
10
128.218840897
20
68.4748841265
11
127.564297379
21
68.5959806213
0
LINE
8
0
10
127.564297379
20
68.5959806213
11
127.337185394
21
68.6765141904
0
LINE
8
0
10
127.337185394
20
68.6765141904
11
127.224946203
21
68.7758338023
0
LINE
8
0
10
127.224946203
20
68.7758338023
11
127.081965121
21
71.0484530288
0
LINE
8
0
10
127.081965121
20
71.0484530288
11
127.180871224
21
71.1610567765
0
LINE
8
0
10
127.180871224
20
71.1610567765
11
127.396098831
21
71.2694199939
0
LINE
8
0
10
127.396098831
20
71.2694199939
11
128.030303662
21
71.4715976623
0
LINE
8
0
10
128.030303662
20
71.4715976623
11
128.666202362
21
71.7040735326
0
LINE
8
0
10
128.666202362
20
71.7040735326
11
129.389480463
21
72.0033948344
0
LINE
8
0
10
129.389480463
20
72.0033948344
11
130.195483807
21
72.3772166371
0
LINE
8
0
10
130.195483807
20
72.3772166371
11
131.079073523
21
72.8329143743
0
LINE
8
0
10
131.079073523
20
72.8329143743
11
131.96031669
21
73.3351940648
0
LINE
8
0
10
131.96031669
20
73.3351940648
11
131.894839199
21
74.3759289822
0
LINE
8
0
10
131.894839199
20
74.3759289822
11
131.699439345
21
75.4002508883
0
LINE
8
0
10
131.699439345
20
75.4002508883
11
130.720970173
21
75.667594275
0
LINE
8
0
10
130.720970173
20
75.667594275
11
129.751812634
21
75.889235603
0
LINE
8
0
10
129.751812634
20
75.889235603
11
128.878165666
21
76.0508682257
0
LINE
8
0
10
128.878165666
20
76.0508682257
11
128.103172495
21
76.160913849
0
LINE
8
0
10
128.103172495
20
76.160913849
11
127.429437324
21
76.2279444865
0
LINE
8
0
10
127.429437324
20
76.2279444865
11
126.764877662
21
76.2660500436
0
LINE
8
0
10
126.764877662
20
76.2660500436
11
126.52946299
21
76.317483902
0
LINE
8
0
10
126.52946299
20
76.317483902
11
126.405660791
21
76.4019530484
0
LINE
8
0
10
126.405660791
20
76.4019530484
11
125.978972441
21
78.638731712
0
LINE
8
0
10
125.978972441
20
78.638731712
11
126.062985647
21
78.7628437673
0
LINE
8
0
10
126.062985647
20
78.7628437673
11
126.262934608
21
78.8973276803
0
LINE
8
0
10
126.262934608
20
78.8973276803
11
126.866798964
21
79.1773980597
0
LINE
8
0
10
126.866798964
20
79.1773980597
11
127.46854646
21
79.4877400285
0
LINE
8
0
10
127.46854646
20
79.4877400285
11
128.148606391
21
79.8753518757
0
LINE
8
0
10
128.148606391
20
79.8753518757
11
128.901401862
21
80.3472449872
0
LINE
8
0
10
128.901401862
20
80.3472449872
11
129.720910139
21
80.9100925678
0
LINE
8
0
10
129.720910139
20
80.9100925678
11
130.532252102
21
81.5188606886
0
LINE
8
0
10
130.532252102
20
81.5188606886
11
130.336852248
21
82.5431825947
0
LINE
8
0
10
130.336852248
20
82.5431825947
11
130.014611604
21
83.5349373211
0
LINE
8
0
10
130.014611604
20
83.5349373211
11
129.010350942
21
83.6775379201
0
LINE
8
0
10
129.010350942
20
83.6775379201
11
128.021056476
21
83.7759638917
0
LINE
8
0
10
128.021056476
20
83.7759638917
11
127.134040535
21
83.8268249935
0
LINE
8
0
10
127.134040535
20
83.8268249935
11
126.351366043
21
83.838870474
0
LINE
8
0
10
126.351366043
20
83.838870474
11
125.674542309
21
83.8209311474
0
LINE
8
0
10
125.674542309
20
83.8209311474
11
125.010447006
21
83.7754448195
0
LINE
8
0
10
125.010447006
20
83.7754448195
11
124.770442277
21
83.7969678245
0
LINE
8
0
10
124.770442277
20
83.7969678245
11
124.637029504
21
83.8652543765
0
LINE
8
0
10
124.637029504
20
83.8652543765
11
123.933363016
21
86.0309171416
0
LINE
8
0
10
123.933363016
20
86.0309171416
11
124.001158389
21
86.1645801831
0
LINE
8
0
10
124.001158389
20
86.1645801831
11
124.182675388
21
86.3230639001
0
LINE
8
0
10
124.182675388
20
86.3230639001
11
124.746675967
21
86.6766101132
0
LINE
8
0
10
124.746675967
20
86.6766101132
11
125.304782342
21
87.0599239024
0
LINE
8
0
10
125.304782342
20
87.0599239024
11
125.930899151
21
87.5297134246
0
LINE
8
0
10
125.930899151
20
87.5297134246
11
126.618614716
21
88.0922358085
0
LINE
8
0
10
126.618614716
20
88.0922358085
11
127.361117417
21
88.7533567901
0
LINE
8
0
10
127.361117417
20
88.7533567901
11
128.08976283
21
89.4590127042
0
LINE
8
0
10
128.08976283
20
89.4590127042
11
127.767522185
21
90.4507674306
0
LINE
8
0
10
127.767522185
20
90.4507674306
11
127.323522678
21
91.3943144128
0
LINE
8
0
10
127.323522678
20
91.3943144128
11
126.309308318
21
91.4099233275
0
LINE
8
0
10
126.309308318
20
91.4099233275
11
125.315478688
21
91.3835817064
0
LINE
8
0
10
125.315478688
20
91.3835817064
11
124.429082547
21
91.3228691772
0
LINE
8
0
10
124.429082547
20
91.3228691772
11
123.651069978
21
91.2367245506
0
LINE
8
0
10
123.651069978
20
91.2367245506
11
122.981831595
21
91.1340981739
0
LINE
8
0
10
122.981831595
20
91.1340981739
11
122.32867383
21
91.0057373075
0
LINE
8
0
10
122.32867383
20
91.0057373075
11
122.087864062
21
90.9970100283
0
LINE
8
0
10
122.087864062
20
90.9970100283
11
121.946944714
21
91.0480370662
0
LINE
8
0
10
121.946944714
20
91.0480370662
11
120.97739733
21
93.1084301373
0
LINE
8
0
10
120.97739733
20
93.1084301373
11
121.027905694
21
93.2495362191
0
LINE
8
0
10
121.027905694
20
93.2495362191
11
121.188128102
21
93.4295203571
0
LINE
8
0
10
121.188128102
20
93.4295203571
11
121.703370277
21
93.8509667691
0
LINE
8
0
10
121.703370277
20
93.8509667691
11
122.20903386
21
94.3012072911
0
LINE
8
0
10
122.20903386
20
94.3012072911
11
122.771333311
21
94.8457656269
0
LINE
8
0
10
122.771333311
20
94.8457656269
11
123.383123284
21
95.4900459693
0
LINE
8
0
10
123.383123284
20
95.4900459693
11
124.036910699
21
96.239014079
0
LINE
8
0
10
124.036910699
20
96.239014079
11
124.671368388
21
97.0304291711
0
LINE
8
0
10
124.671368388
20
97.0304291711
11
124.22736888
21
97.9739761533
0
LINE
8
0
10
124.22736888
20
97.9739761533
11
123.668612647
21
98.8544350918
0
LINE
8
0
10
123.668612647
20
98.8544350918
11
122.660439355
21
98.7428061602
0
LINE
8
0
10
122.660439355
20
98.7428061602
11
121.677747849
21
98.5921123696
0
LINE
8
0
10
121.677747849
20
98.5921123696
11
120.805950504
21
98.4207836822
0
LINE
8
0
10
120.805950504
20
98.4207836822
11
120.044869581
21
98.2378075007
0
LINE
8
0
10
120.044869581
20
98.2378075007
11
119.393770838
21
98.0521125531
0
LINE
8
0
10
119.393770838
20
98.0521125531
11
118.7618513
21
97.8429014757
0
LINE
8
0
10
118.7618513
20
97.8429014757
11
118.524034207
21
97.8040615469
0
LINE
8
0
10
118.524034207
20
97.8040615469
11
118.377830667
21
97.8370243438
0
LINE
8
0
10
118.377830667
20
97.8370243438
11
117.157692727
21
99.7596540914
0
LINE
8
0
10
117.157692727
20
99.7596540914
11
117.190117536
21
99.9059778862
0
LINE
8
0
10
117.190117536
20
99.9059778862
11
117.326518548
21
100.104623988
0
LINE
8
0
10
117.326518548
20
100.104623988
11
117.784876644
21
100.587324137
0
LINE
8
0
10
117.784876644
20
100.587324137
11
118.230122817
21
101.09739083
0
LINE
8
0
10
118.230122817
20
101.09739083
11
118.719737112
21
101.708129969
0
LINE
8
0
10
118.719737112
20
101.708129969
11
119.2459532
21
102.424007584
0
LINE
8
0
10
119.2459532
20
102.424007584
11
119.800714711
21
103.249011147
0
LINE
8
0
10
119.800714711
20
103.249011147
11
120.330978899
21
104.113704329
0
LINE
8
0
10
120.330978899
20
104.113704329
11
119.772222665
21
104.994163267
0
LINE
8
0
10
119.772222665
20
104.994163267
11
119.107521626
21
105.797648798
0
LINE
8
0
10
119.107521626
20
105.797648798
11
118.121288896
21
105.560542476
0
LINE
8
0
10
118.121288896
20
105.560542476
11
117.165233147
21
105.287873047
0
LINE
8
0
10
117.165233147
20
105.287873047
11
116.321783362
21
105.008630157
0
LINE
8
0
10
116.321783362
20
105.008630157
11
115.589636786
21
104.731708064
0
LINE
8
0
10
115.589636786
20
104.731708064
11
114.9669459
21
104.465873066
0
LINE
8
0
10
114.9669459
20
104.465873066
11
114.366230337
21
104.179111161
0
LINE
8
0
10
114.366230337
20
104.179111161
11
114.135156437
21
104.110771111
0
LINE
8
0
10
114.135156437
20
104.110771111
11
113.985974421
21
104.125149824
0
LINE
8
0
10
113.985974421
20
104.125149824
11
112.53448823
21
105.879695229
0
LINE
8
0
10
112.53448823
20
105.879695229
11
112.548318126
21
106.028929123
0
LINE
8
0
10
112.548318126
20
106.028929123
11
112.658746616
21
106.243104421
0
LINE
8
0
10
112.658746616
20
106.243104421
11
113.052992051
21
106.779445837
0
LINE
8
0
10
113.052992051
20
106.779445837
11
113.430799018
21
107.341294645
0
LINE
8
0
10
113.430799018
20
107.341294645
11
113.840006647
21
108.008582866
0
LINE
8
0
10
113.840006647
20
108.008582866
11
114.272350107
21
108.784767936
0
LINE
8
0
10
114.272350107
20
108.784767936
11
114.719336794
21
109.672796154
0
LINE
8
0
10
114.719336794
20
109.672796154
11
115.137044897
21
110.597130696
0
LINE
8
0
10
115.137044897
20
110.597130696
11
114.472343858
21
111.400616228
0
LINE
8
0
10
114.472343858
20
111.400616228
11
113.712180745
21
112.114456905
0
LINE
8
0
10
113.712180745
20
112.114456905
11
112.763442057
21
111.755612499
0
LINE
8
0
10
112.763442057
20
111.755612499
11
111.849099634
21
111.365267591
0
LINE
8
0
10
111.849099634
20
111.365267591
11
111.047299117
21
110.982514326
0
LINE
8
0
10
111.047299117
20
110.982514326
11
110.355633277
21
110.616013549
0
LINE
8
0
10
110.355633277
20
110.616013549
11
109.771170454
21
110.274230877
0
LINE
8
0
10
109.771170454
20
110.274230877
11
109.211132509
21
109.914440552
0
LINE
8
0
10
109.211132509
20
109.914440552
11
108.990445975
21
109.817678145
0
LINE
8
0
10
108.990445975
20
109.817678145
11
108.840638174
21
109.813246013
0
LINE
8
0
10
108.840638174
20
109.813246013
11
107.180694536
21
111.372036845
0
LINE
8
0
10
107.180694536
20
111.372036845
11
107.175711413
21
111.521827331
0
LINE
8
0
10
107.175711413
20
111.521827331
11
107.258425859
21
111.748154152
0
LINE
8
0
10
107.258425859
20
111.748154152
11
107.582341147
21
112.329678411
0
LINE
8
0
10
107.582341147
20
112.329678411
11
107.886750665
21
112.934448642
0
LINE
8
0
10
107.886750665
20
112.934448642
11
108.209098179
21
113.647762412
0
LINE
8
0
10
108.209098179
20
113.647762412
11
108.540750697
21
114.472014034
0
LINE
8
0
10
108.540750697
20
114.472014034
11
108.872913312
21
115.409062171
0
LINE
8
0
10
108.872913312
20
115.409062171
11
109.171477825
21
116.378460767
0
LINE
8
0
10
109.171477825
20
116.378460767
11
108.411314713
21
117.092301445
0
LINE
8
0
10
108.411314713
20
117.092301445
11
107.567677753
21
117.705239574
0
LINE
8
0
10
107.567677753
20
117.705239574
11
106.671395282
21
117.230316276
0
LINE
8
0
10
106.671395282
20
117.230316276
11
105.813185912
21
116.728451862
0
LINE
8
0
10
105.813185912
20
116.728451862
11
105.065679536
21
116.248224469
0
LINE
8
0
10
105.065679536
20
116.248224469
11
104.425402415
21
115.797924944
0
LINE
8
0
10
104.425402415
20
115.797924944
11
103.888384984
21
115.385584715
0
LINE
8
0
10
103.888384984
20
115.385584715
11
103.37785679
21
114.958440077
0
LINE
8
0
10
103.37785679
20
114.958440077
11
103.171037981
21
114.834781314
0
LINE
8
0
10
103.171037981
20
114.834781314
11
103.022966952
21
114.811608234
0
LINE
8
0
10
103.022966952
20
114.811608234
11
101.18074417
21
116.150061431
0
LINE
8
0
10
101.18074417
20
116.150061431
11
101.157026614
21
116.298046223
0
LINE
8
0
10
101.157026614
20
116.298046223
11
101.21072256
21
116.532955259
0
LINE
8
0
10
101.21072256
20
116.532955259
11
101.459199363
21
117.150491377
0
LINE
8
0
10
101.459199363
20
117.150491377
11
101.685410713
21
117.788645442
0
LINE
8
0
10
101.685410713
20
117.788645442
11
101.915814499
21
118.536735376
0
LINE
8
0
10
101.915814499
20
118.536735376
11
102.141545717
21
119.396054611
0
LINE
8
0
10
102.141545717
20
119.396054611
11
102.353645858
21
120.367344858
0
LINE
8
0
10
102.353645858
20
120.367344858
11
102.52835824
21
121.366519513
0
LINE
8
0
10
102.52835824
20
121.366519513
11
101.68472128
21
121.979457642
0
LINE
8
0
10
101.68472128
20
121.979457642
11
100.770915132
21
122.481826823
0
LINE
8
0
10
100.770915132
20
122.481826823
11
99.9412237889
21
121.898314457
0
LINE
8
0
10
99.9412237889
20
121.898314457
11
99.1526819452
21
121.292845238
0
LINE
8
0
10
99.1526819452
20
121.292845238
11
98.4712583327
21
120.722717191
0
LINE
8
0
10
98.4712583327
20
120.722717191
11
97.8924674837
21
120.19572041
0
LINE
8
0
10
97.8924674837
20
120.19572041
11
97.4113645294
21
119.719325475
0
LINE
8
0
10
97.4113645294
20
119.719325475
11
96.9583974218
21
119.231562851
0
LINE
8
0
10
96.9583974218
20
119.231562851
11
96.7687079932
21
119.082957904
0
LINE
8
0
10
96.7687079932
20
119.082957904
11
96.6247089056
21
119.04140933
0
LINE
8
0
10
96.6247089056
20
119.04140933
11
94.6292599335
21
120.138416686
0
LINE
8
0
10
94.6292599335
20
120.138416686
11
94.5871819849
21
120.282261976
0
LINE
8
0
10
94.5871819849
20
120.282261976
11
94.6110126131
21
120.52204857
0
LINE
8
0
10
94.6110126131
20
120.52204857
11
94.7801323041
21
121.165857632
0
LINE
8
0
10
94.7801323041
20
121.165857632
11
94.9245779969
21
121.827331462
0
LINE
8
0
10
94.9245779969
20
121.827331462
11
95.0594044501
21
122.598399735
0
LINE
8
0
10
95.0594044501
20
122.598399735
11
95.1756544513
21
123.479234605
0
LINE
8
0
10
95.1756544513
20
123.479234605
11
95.2643471719
21
124.469449135
0
LINE
8
0
10
95.2643471719
20
124.469449135
11
95.3124521045
21
125.482642266
0
LINE
8
0
10
95.3124521045
20
125.482642266
11
94.3986459564
21
125.985011448
0
LINE
8
0
10
94.3986459564
20
125.985011448
11
93.4290818889
21
126.368889018
0
LINE
8
0
10
93.4290818889
20
126.368889018
11
92.6790664015
21
125.685989922
0
LINE
8
0
10
92.6790664015
20
125.685989922
11
91.9726278608
21
124.98646451
0
LINE
8
0
10
91.9726278608
20
124.98646451
11
91.3680334688
21
124.335427068
0
LINE
8
0
10
91.3680334688
20
124.335427068
11
90.8598567691
21
123.740044085
0
LINE
8
0
10
90.8598567691
20
123.740044085
11
90.442255573
21
123.207107478
0
LINE
8
0
10
90.442255573
20
123.207107478
11
90.0539931132
21
122.666419176
0
LINE
8
0
10
90.0539931132
20
122.666419176
11
89.8844245809
21
122.495211633
0
LINE
8
0
10
89.8844245809
20
122.495211633
11
89.7467683862
21
122.435942812
0
LINE
8
0
10
89.7467683862
20
122.435942812
11
87.6295626462
21
123.274203864
0
LINE
8
0
10
87.6295626462
20
123.274203864
11
87.5697878994
21
123.411641126
0
LINE
8
0
10
87.5697878994
20
123.411641126
11
87.5633773868
21
123.652523701
0
LINE
8
0
10
87.5633773868
20
123.652523701
11
87.650472847
21
124.312452454
0
LINE
8
0
10
87.650472847
20
124.312452454
11
87.7108748883
21
124.986814211
0
LINE
8
0
10
87.7108748883
20
124.986814211
11
87.7479977147
21
125.768700616
0
LINE
8
0
10
87.7479977147
20
125.768700616
11
87.7529331674
21
126.657159828
0
LINE
8
0
10
87.7529331674
20
126.657159828
11
87.7168197305
21
127.650682366
0
LINE
8
0
10
87.7168197305
20
127.650682366
11
87.6375585699
21
128.661915314
0
LINE
8
0
10
87.6375585699
20
128.661915314
11
86.6679945024
21
129.045792884
0
LINE
8
0
10
86.6679945024
20
129.045792884
11
85.6579631199
21
129.305124866
0
LINE
8
0
10
85.6579631199
20
129.305124866
11
84.9994516806
21
128.533608767
0
LINE
8
0
10
84.9994516806
20
128.533608767
11
84.3862574006
21
127.751059095
0
LINE
8
0
10
84.3862574006
20
127.751059095
11
83.8680270437
21
127.029379508
0
LINE
8
0
10
83.8680270437
20
127.029379508
11
83.4384787435
21
126.374999869
0
LINE
8
0
10
83.4384787435
20
126.374999869
11
83.0909651258
21
125.793926318
0
LINE
8
0
10
83.0909651258
20
125.793926318
11
82.7735304447
21
125.208839314
0
LINE
8
0
10
82.7735304447
20
125.208839314
11
82.6267570059
21
125.017729222
0
LINE
8
0
10
82.6267570059
20
125.017729222
11
82.4976146245
21
124.941674857
0
LINE
8
0
10
82.4976146245
20
124.941674857
11
80.2920417158
21
125.507969729
0
LINE
8
0
10
80.2920417158
20
125.507969729
11
80.2155128544
21
125.636831495
0
LINE
8
0
10
80.2155128544
20
125.636831495
11
80.1789622985
21
125.875011188
0
LINE
8
0
10
80.1789622985
20
125.875011188
11
80.1826599805
21
126.540652162
0
LINE
8
0
10
80.1826599805
20
126.540652162
11
80.158065794
21
127.217266758
0
LINE
8
0
10
80.158065794
20
127.217266758
11
80.0968995445
21
127.997640479
0
LINE
8
0
10
80.0968995445
20
127.997640479
11
79.9904426138
21
128.879712501
0
LINE
8
0
10
79.9904426138
20
128.879712501
11
79.8300925497
21
129.860874603
0
LINE
8
0
10
79.8300925497
20
129.860874603
11
79.6247152918
21
130.85419962
0
LINE
8
0
10
79.6247152918
20
130.85419962
11
78.6146839093
21
131.113531601
0
LINE
8
0
10
78.6146839093
20
131.113531601
11
77.5801140102
21
131.244228174
0
LINE
8
0
10
77.5801140102
20
131.244228174
11
77.0234917376
21
130.396262342
0
LINE
8
0
10
77.0234917376
20
130.396262342
11
76.5132121586
21
129.543029686
0
LINE
8
0
10
76.5132121586
20
129.543029686
11
76.0895186391
21
128.762089271
0
LINE
8
0
10
76.0895186391
20
128.762089271
11
75.7453729717
21
128.059032933
0
LINE
8
0
10
75.7453729717
20
128.059032933
11
75.4734274297
21
127.438986315
0
LINE
8
0
10
75.4734274297
20
127.438986315
11
75.231826662
21
126.818727783
0
LINE
8
0
10
75.231826662
20
126.818727783
11
75.1101630214
21
126.610729061
0
LINE
8
0
10
75.1101630214
20
126.610729061
11
74.9915711058
21
126.519088575
0
LINE
8
0
10
74.9915711058
20
126.519088575
11
72.7324142307
21
126.804486458
0
LINE
8
0
10
72.7324142307
20
126.804486458
11
72.6403381605
21
126.922740501
0
LINE
8
0
10
72.6403381605
20
126.922740501
11
72.5742239855
21
127.154461077
0
LINE
8
0
10
72.5742239855
20
127.154461077
11
72.4944655745
21
127.815316715
0
LINE
8
0
10
72.4944655745
20
127.815316715
11
72.3852630253
21
128.483513534
0
LINE
8
0
10
72.3852630253
20
128.483513534
11
72.2267723281
21
129.250067611
0
LINE
8
0
10
72.2267723281
20
129.250067611
11
72.0106019034
21
130.11184164
0
LINE
8
0
10
72.0106019034
20
130.11184164
11
71.7285440286
21
131.065169795
0
LINE
8
0
10
71.7285440286
20
131.065169795
11
71.4002895953
21
132.024921551
0
LINE
8
0
10
71.4002895953
20
132.024921551
11
70.3657196962
21
132.155618123
0
LINE
8
0
10
70.3657196962
20
132.155618123
11
69.3229270657
21
132.155618123
0
LINE
8
0
10
69.3229270657
20
132.155618123
11
68.8769722257
21
131.244575486
0
LINE
8
0
10
68.8769722257
20
131.244575486
11
68.4776547613
21
130.334115834
0
LINE
8
0
10
68.4776547613
20
130.334115834
11
68.1551799792
21
129.506230489
0
LINE
8
0
10
68.1551799792
20
129.506230489
11
67.9018643273
21
128.765585071
0
LINE
8
0
10
67.9018643273
20
128.765585071
11
67.7097756048
21
128.116343892
0
LINE
8
0
10
67.7097756048
20
128.116343892
11
67.5478189387
21
127.470695678
0
LINE
8
0
10
67.5478189387
20
127.470695678
11
67.4531838046
21
127.249088591
0
LINE
8
0
10
67.4531838046
20
127.249088591
11
67.3470126202
21
127.143307209
0
LINE
8
0
10
67.3470126202
20
127.143307209
11
65.0699000322
21
127.143307209
0
LINE
8
0
10
65.0699000322
20
127.143307209
11
64.9637288478
21
127.249088591
0
LINE
8
0
10
64.9637288478
20
127.249088591
11
64.8690937137
21
127.470695678
0
LINE
8
0
10
64.8690937137
20
127.470695678
11
64.7071370477
21
128.116343892
0
LINE
8
0
10
64.7071370477
20
128.116343892
11
64.5150483251
21
128.765585071
0
LINE
8
0
10
64.5150483251
20
128.765585071
11
64.2617326733
21
129.506230489
0
LINE
8
0
10
64.2617326733
20
129.506230489
11
63.9392578912
21
130.334115834
0
LINE
8
0
10
63.9392578912
20
130.334115834
11
63.5399404268
21
131.244575486
0
LINE
8
0
10
63.5399404268
20
131.244575486
11
63.0939855868
21
132.155618123
0
LINE
8
0
10
63.0939855868
20
132.155618123
11
62.0511929563
21
132.155618123
0
LINE
8
0
10
62.0511929563
20
132.155618123
11
61.0166230571
21
132.024921551
0
LINE
8
0
10
61.0166230571
20
132.024921551
11
60.6883686239
21
131.065169795
0
LINE
8
0
10
60.6883686239
20
131.065169795
11
60.4063107491
21
130.11184164
0
LINE
8
0
10
60.4063107491
20
130.11184164
11
60.1901403243
21
129.250067611
0
LINE
8
0
10
60.1901403243
20
129.250067611
11
60.0316496271
21
128.483513534
0
LINE
8
0
10
60.0316496271
20
128.483513534
11
59.9224470779
21
127.815316715
0
LINE
8
0
10
59.9224470779
20
127.815316715
11
59.842688667
21
127.154461077
0
LINE
8
0
10
59.842688667
20
127.154461077
11
59.776574492
21
126.922740501
0
LINE
8
0
10
59.776574492
20
126.922740501
11
59.6844984218
21
126.804486458
0
LINE
8
0
10
59.6844984218
20
126.804486458
11
57.4253415467
21
126.519088575
0
LINE
8
0
10
57.4253415467
20
126.519088575
11
57.3067496311
21
126.610729061
0
LINE
8
0
10
57.3067496311
20
126.610729061
11
57.1850859905
21
126.818727783
0
LINE
8
0
10
57.1850859905
20
126.818727783
11
56.9434852227
21
127.438986315
0
LINE
8
0
10
56.9434852227
20
127.438986315
11
56.6715396808
21
128.059032933
0
LINE
8
0
10
56.6715396808
20
128.059032933
11
56.3273940133
21
128.762089271
0
LINE
8
0
10
56.3273940133
20
128.762089271
11
55.9037004939
21
129.543029686
0
LINE
8
0
10
55.9037004939
20
129.543029686
11
55.3934209148
21
130.396262342
0
LINE
8
0
10
55.3934209148
20
130.396262342
11
54.8367986423
21
131.244228174
0
LINE
8
0
10
54.8367986423
20
131.244228174
11
53.8022287431
21
131.113531601
0
LINE
8
0
10
53.8022287431
20
131.113531601
11
52.7921973607
21
130.85419962
0
LINE
8
0
10
52.7921973607
20
130.85419962
11
52.5868201027
21
129.860874603
0
LINE
8
0
10
52.5868201027
20
129.860874603
11
52.4264700387
21
128.879712501
0
LINE
8
0
10
52.4264700387
20
128.879712501
11
52.320013108
21
127.997640479
0
LINE
8
0
10
52.320013108
20
127.997640479
11
52.2588468585
21
127.217266758
0
LINE
8
0
10
52.2588468585
20
127.217266758
11
52.234252672
21
126.540652162
0
LINE
8
0
10
52.234252672
20
126.540652162
11
52.2379503539
21
125.875011188
0
LINE
8
0
10
52.2379503539
20
125.875011188
11
52.2013997981
21
125.636831495
0
LINE
8
0
10
52.2013997981
20
125.636831495
11
52.1248709367
21
125.507969729
0
LINE
8
0
10
52.1248709367
20
125.507969729
11
49.919298028
21
124.941674857
0
LINE
8
0
10
49.919298028
20
124.941674857
11
49.7901556466
21
125.017729222
0
LINE
8
0
10
49.7901556466
20
125.017729222
11
49.6433822077
21
125.208839314
0
LINE
8
0
10
49.6433822077
20
125.208839314
11
49.3259475267
21
125.793926318
0
LINE
8
0
10
49.3259475267
20
125.793926318
11
48.9784339089
21
126.374999869
0
LINE
8
0
10
48.9784339089
20
126.374999869
11
48.5488856087
21
127.029379508
0
LINE
8
0
10
48.5488856087
20
127.029379508
11
48.0306552518
21
127.751059095
0
LINE
8
0
10
48.0306552518
20
127.751059095
11
47.4174609719
21
128.533608767
0
LINE
8
0
10
47.4174609719
20
128.533608767
11
46.7589495326
21
129.305124866
0
LINE
8
0
10
46.7589495326
20
129.305124866
11
45.7489181501
21
129.045792884
0
LINE
8
0
10
45.7489181501
20
129.045792884
11
44.7793540826
21
128.661915314
0
LINE
8
0
10
44.7793540826
20
128.661915314
11
44.700092922
21
127.650682366
0
LINE
8
0
10
44.700092922
20
127.650682366
11
44.663979485
21
126.657159828
0
LINE
8
0
10
44.663979485
20
126.657159828
11
44.6689149378
21
125.768700616
0
LINE
8
0
10
44.6689149378
20
125.768700616
11
44.7060377642
21
124.986814211
0
LINE
8
0
10
44.7060377642
20
124.986814211
11
44.7664398055
21
124.312452454
0
LINE
8
0
10
44.7664398055
20
124.312452454
11
44.8535352656
21
123.652523701
0
LINE
8
0
10
44.8535352656
20
123.652523701
11
44.8471247531
21
123.411641126
0
LINE
8
0
10
44.8471247531
20
123.411641126
11
44.7873500063
21
123.274203864
0
LINE
8
0
10
44.7873500063
20
123.274203864
11
42.6701442663
21
122.435942812
0
LINE
8
0
10
42.6701442663
20
122.435942812
11
42.5324880716
21
122.495211633
0
LINE
8
0
10
42.5324880716
20
122.495211633
11
42.3629195393
21
122.666419176
0
LINE
8
0
10
42.3629195393
20
122.666419176
11
41.9746570795
21
123.207107478
0
LINE
8
0
10
41.9746570795
20
123.207107478
11
41.5570558834
21
123.740044085
0
LINE
8
0
10
41.5570558834
20
123.740044085
11
41.0488791837
21
124.335427068
0
LINE
8
0
10
41.0488791837
20
124.335427068
11
40.4442847916
21
124.98646451
0
LINE
8
0
10
40.4442847916
20
124.98646451
11
39.7378462509
21
125.685989922
0
LINE
8
0
10
39.7378462509
20
125.685989922
11
38.9878307635
21
126.368889018
0
LINE
8
0
10
38.9878307635
20
126.368889018
11
38.018266696
21
125.985011448
0
LINE
8
0
10
38.018266696
20
125.985011448
11
37.104460548
21
125.482642266
0
LINE
8
0
10
37.104460548
20
125.482642266
11
37.1525654806
21
124.469449135
0
LINE
8
0
10
37.1525654806
20
124.469449135
11
37.2412582012
21
123.479234605
0
LINE
8
0
10
37.2412582012
20
123.479234605
11
37.3575082023
21
122.598399735
0
LINE
8
0
10
37.3575082023
20
122.598399735
11
37.4923346556
21
121.827331462
0
LINE
8
0
10
37.4923346556
20
121.827331462
11
37.6367803484
21
121.165857632
0
LINE
8
0
10
37.6367803484
20
121.165857632
11
37.8059000393
21
120.52204857
0
LINE
8
0
10
37.8059000393
20
120.52204857
11
37.8297306676
21
120.282261976
0
LINE
8
0
10
37.8297306676
20
120.282261976
11
37.7876527189
21
120.138416686
0
LINE
8
0
10
37.7876527189
20
120.138416686
11
35.7922037469
21
119.04140933
0
LINE
8
0
10
35.7922037469
20
119.04140933
11
35.6482046593
21
119.082957904
0
LINE
8
0
10
35.6482046593
20
119.082957904
11
35.4585152306
21
119.231562851
0
LINE
8
0
10
35.4585152306
20
119.231562851
11
35.005548123
21
119.719325475
0
LINE
8
0
10
35.005548123
20
119.719325475
11
34.5244451688
21
120.19572041
0
LINE
8
0
10
34.5244451688
20
120.19572041
11
33.9456543198
21
120.722717191
0
LINE
8
0
10
33.9456543198
20
120.722717191
11
33.2642307073
21
121.292845238
0
LINE
8
0
10
33.2642307073
20
121.292845238
11
32.4756888636
21
121.898314457
0
LINE
8
0
10
32.4756888636
20
121.898314457
11
31.6459975205
21
122.481826823
0
LINE
8
0
10
31.6459975205
20
122.481826823
11
30.7321913724
21
121.979457642
0
LINE
8
0
10
30.7321913724
20
121.979457642
11
29.8885544127
21
121.366519513
0
LINE
8
0
10
29.8885544127
20
121.366519513
11
30.0632667949
21
120.367344858
0
LINE
8
0
10
30.0632667949
20
120.367344858
11
30.2753669359
21
119.396054611
0
LINE
8
0
10
30.2753669359
20
119.396054611
11
30.5010981535
21
118.536735376
0
LINE
8
0
10
30.5010981535
20
118.536735376
11
30.7315019399
21
117.788645442
0
LINE
8
0
10
30.7315019399
20
117.788645442
11
30.9577132893
21
117.150491377
0
LINE
8
0
10
30.9577132893
20
117.150491377
11
31.2061900925
21
116.532955259
0
LINE
8
0
10
31.2061900925
20
116.532955259
11
31.2598860384
21
116.298046223
0
LINE
8
0
10
31.2598860384
20
116.298046223
11
31.2361684822
21
116.150061431
0
LINE
8
0
10
31.2361684822
20
116.150061431
11
29.3939457005
21
114.811608234
0
LINE
8
0
10
29.3939457005
20
114.811608234
11
29.2458746716
21
114.834781314
0
LINE
8
0
10
29.2458746716
20
114.834781314
11
29.0390558622
21
114.958440077
0
LINE
8
0
10
29.0390558622
20
114.958440077
11
28.5285276686
21
115.385584715
0
LINE
8
0
10
28.5285276686
20
115.385584715
11
27.9915102373
21
115.797924944
0
LINE
8
0
10
27.9915102373
20
115.797924944
11
27.3512331163
21
116.248224469
0
LINE
8
0
10
27.3512331163
20
116.248224469
11
26.6037267408
21
116.728451862
0
LINE
8
0
10
26.6037267408
20
116.728451862
11
25.7455173701
21
117.230316276
0
LINE
8
0
10
25.7455173701
20
117.230316276
11
24.8492348994
21
117.705239574
0
LINE
8
0
10
24.8492348994
20
117.705239574
11
24.0055979397
21
117.092301445
0
LINE
8
0
10
24.0055979397
20
117.092301445
11
23.2454348271
21
116.378460767
0
LINE
8
0
10
23.2454348271
20
116.378460767
11
23.5439993403
21
115.409062171
0
LINE
8
0
10
23.5439993403
20
115.409062171
11
23.8761619558
21
114.472014034
0
LINE
8
0
10
23.8761619558
20
114.472014034
11
24.2078144737
21
113.647762412
0
LINE
8
0
10
24.2078144737
20
113.647762412
11
24.5301619877
21
112.934448642
0
LINE
8
0
10
24.5301619877
20
112.934448642
11
24.8345715057
21
112.329678411
0
LINE
8
0
10
24.8345715057
20
112.329678411
11
25.1584867935
21
111.748154152
0
LINE
8
0
10
25.1584867935
20
111.748154152
11
25.2412012399
21
111.521827331
0
LINE
8
0
10
25.2412012399
20
111.521827331
11
25.2362181163
21
111.372036845
0
LINE
8
0
10
25.2362181163
20
111.372036845
11
23.5762744785
21
109.813246013
0
LINE
8
0
10
23.5762744785
20
109.813246013
11
23.426466677
21
109.817678145
0
LINE
8
0
10
23.426466677
20
109.817678145
11
23.205780143
21
109.914440552
0
LINE
8
0
10
23.205780143
20
109.914440552
11
22.6457421981
21
110.274230877
0
LINE
8
0
10
22.6457421981
20
110.274230877
11
22.0612793753
21
110.616013549
0
LINE
8
0
10
22.0612793753
20
110.616013549
11
21.3696135351
21
110.982514326
0
LINE
8
0
10
21.3696135351
20
110.982514326
11
20.5678130187
21
111.365267591
0
LINE
8
0
10
20.5678130187
20
111.365267591
11
19.6534705954
21
111.755612499
0
LINE
8
0
10
19.6534705954
20
111.755612499
11
18.704731907
21
112.114456905
0
LINE
8
0
10
18.704731907
20
112.114456905
11
17.9445687944
21
111.400616228
0
LINE
8
0
10
17.9445687944
20
111.400616228
11
17.2798677554
21
110.597130696
0
LINE
8
0
10
17.2798677554
20
110.597130696
11
17.6975758589
21
109.672796154
0
LINE
8
0
10
17.6975758589
20
109.672796154
11
18.1445625459
21
108.784767936
0
LINE
8
0
10
18.1445625459
20
108.784767936
11
18.5769060058
21
108.008582866
0
LINE
8
0
10
18.5769060058
20
108.008582866
11
18.9861136347
21
107.341294645
0
LINE
8
0
10
18.9861136347
20
107.341294645
11
19.3639206013
21
106.779445837
0
LINE
8
0
10
19.3639206013
20
106.779445837
11
19.7581660361
21
106.243104421
0
LINE
8
0
10
19.7581660361
20
106.243104421
11
19.8685945267
21
106.028929123
0
LINE
8
0
10
19.8685945267
20
106.028929123
11
19.8824244225
21
105.879695229
0
LINE
8
0
10
19.8824244225
20
105.879695229
11
18.4309382316
21
104.125149824
0
LINE
8
0
10
18.4309382316
20
104.125149824
11
18.2817562159
21
104.110771111
0
LINE
8
0
10
18.2817562159
20
104.110771111
11
18.0506823157
21
104.179111161
0
LINE
8
0
10
18.0506823157
20
104.179111161
11
17.4499667524
21
104.465873066
0
LINE
8
0
10
17.4499667524
20
104.465873066
11
16.8272758661
21
104.731708064
0
LINE
8
0
10
16.8272758661
20
104.731708064
11
16.0951292902
21
105.008630157
0
LINE
8
0
10
16.0951292902
20
105.008630157
11
15.2516795059
21
105.287873047
0
LINE
8
0
10
15.2516795059
20
105.287873047
11
14.2956237562
21
105.560542476
0
LINE
8
0
10
14.2956237562
20
105.560542476
11
13.309391026
21
105.797648798
0
LINE
8
0
10
13.309391026
20
105.797648798
11
12.644689987
21
104.994163267
0
LINE
8
0
10
12.644689987
20
104.994163267
11
12.0859337539
21
104.113704329
0
LINE
8
0
10
12.0859337539
20
104.113704329
11
12.6161979414
21
103.249011147
0
LINE
8
0
10
12.6161979414
20
103.249011147
11
13.1709594529
21
102.424007584
0
LINE
8
0
10
13.1709594529
20
102.424007584
11
13.6971755401
21
101.708129969
0
LINE
8
0
10
13.6971755401
20
101.708129969
11
14.1867898352
21
101.09739083
0
LINE
8
0
10
14.1867898352
20
101.09739083
11
14.6320360088
21
100.587324137
0
LINE
8
0
10
14.6320360088
20
100.587324137
11
15.0903941046
21
100.104623988
0
LINE
8
0
10
15.0903941046
20
100.104623988
11
15.2267951163
21
99.9059778862
0
LINE
8
0
10
15.2267951163
20
99.9059778862
11
15.2592199257
21
99.7596540914
0
LINE
8
0
10
15.2592199257
20
99.7596540914
11
14.0390819859
21
97.8370243438
0
LINE
8
0
10
14.0390819859
20
97.8370243438
11
13.8928784455
21
97.8040615469
0
LINE
8
0
10
13.8928784455
20
97.8040615469
11
13.6550613527
21
97.8429014757
0
LINE
8
0
10
13.6550613527
20
97.8429014757
11
13.0231418143
21
98.0521125531
0
LINE
8
0
10
13.0231418143
20
98.0521125531
11
12.3720430716
21
98.2378075007
0
LINE
8
0
10
12.3720430716
20
98.2378075007
11
11.6109621488
21
98.4207836822
0
LINE
8
0
10
11.6109621488
20
98.4207836822
11
10.7391648037
21
98.5921123696
0
LINE
8
0
10
10.7391648037
20
98.5921123696
11
9.75647329791
21
98.7428061602
0
LINE
8
0
10
9.75647329791
20
98.7428061602
11
8.7483000052
21
98.8544350918
0
LINE
8
0
10
8.7483000052
20
98.8544350918
11
8.18954377216
21
97.9739761533
0
LINE
8
0
10
8.18954377216
20
97.9739761533
11
7.74554426469
21
97.0304291711
0
LINE
8
0
10
7.74554426469
20
97.0304291711
11
8.38000195312
21
96.239014079
0
LINE
8
0
10
8.38000195312
20
96.239014079
11
9.03378936872
21
95.4900459693
0
LINE
8
0
10
9.03378936872
20
95.4900459693
11
9.64557934123
21
94.8457656269
0
LINE
8
0
10
9.64557934123
20
94.8457656269
11
10.2078787925
21
94.3012072911
0
LINE
8
0
10
10.2078787925
20
94.3012072911
11
10.713542375
21
93.8509667691
0
LINE
8
0
10
10.713542375
20
93.8509667691
11
11.2287845509
21
93.4295203571
0
LINE
8
0
10
11.2287845509
20
93.4295203571
11
11.389006958
21
93.2495362191
0
LINE
8
0
10
11.389006958
20
93.2495362191
11
11.4395153225
21
93.1084301373
0
LINE
8
0
10
11.4395153225
20
93.1084301373
11
10.469967938
21
91.0480370662
0
LINE
8
0
10
10.469967938
20
91.0480370662
11
10.3290485901
21
90.9970100283
0
LINE
8
0
10
10.3290485901
20
90.9970100283
11
10.0882388223
21
91.0057373074
0
LINE
8
0
10
10.0882388223
20
91.0057373074
11
9.43508105731
21
91.1340981739
0
LINE
8
0
10
9.43508105731
20
91.1340981739
11
8.76584267448
21
91.2367245506
0
LINE
8
0
10
8.76584267448
20
91.2367245506
11
7.98783010557
21
91.3228691772
0
LINE
8
0
10
7.98783010557
20
91.3228691772
11
7.10143396455
21
91.3835817064
0
LINE
8
0
10
7.10143396455
20
91.3835817064
11
6.10760433473
21
91.4099233275
0
LINE
8
0
10
6.10760433473
20
91.4099233275
11
5.09338997461
21
91.3943144128
0
LINE
8
0
10
5.09338997461
20
91.3943144128
11
4.64939046714
21
90.4507674306
0
LINE
8
0
10
4.64939046714
20
90.4507674306
11
4.3271498227
21
89.4590127042
0
LINE
8
0
10
4.3271498227
20
89.4590127042
11
5.05579523535
21
88.7533567901
0
LINE
8
0
10
5.05579523535
20
88.7533567901
11
5.79829793692
21
88.0922358085
0
LINE
8
0
10
5.79829793692
20
88.0922358085
11
6.48601350139
21
87.5297134246
0
LINE
8
0
10
6.48601350139
20
87.5297134246
11
7.11213031068
21
87.0599239024
0
LINE
8
0
10
7.11213031068
20
87.0599239024
11
7.67023668523
21
86.6766101132
0
LINE
8
0
10
7.67023668523
20
86.6766101132
11
8.23423726424
21
86.3230639001
0
LINE
8
0
10
8.23423726424
20
86.3230639001
11
8.41575426389
21
86.1645801831
0
LINE
8
0
10
8.41575426389
20
86.1645801831
11
8.48354963634
21
86.0309171416
0
LINE
8
0
10
8.48354963634
20
86.0309171416
11
7.77988314855
21
83.8652543765
0
LINE
8
0
10
7.77988314855
20
83.8652543765
11
7.64647037551
21
83.7969678245
0
LINE
8
0
10
7.64647037551
20
83.7969678245
11
7.40646564646
21
83.7754448195
0
LINE
8
0
10
7.40646564646
20
83.7754448195
11
6.74237034312
21
83.8209311474
0
LINE
8
0
10
6.74237034312
20
83.8209311474
11
6.06554660919
21
83.838870474
0
LINE
8
0
10
6.06554660919
20
83.838870474
11
5.28287211716
21
83.8268249935
0
LINE
8
0
10
5.28287211716
20
83.8268249935
11
4.39585617686
21
83.7759638917
0
LINE
8
0
10
4.39585617686
20
83.7759638917
11
3.40656170997
21
83.6775379201
0
LINE
8
0
10
3.40656170997
20
83.6775379201
11
2.40230104876
21
83.5349373211
0
LINE
8
0
10
2.40230104876
20
83.5349373211
11
2.08006040432
21
82.5431825947
0
LINE
8
0
10
2.08006040432
20
82.5431825947
11
1.88466055038
21
81.5188606886
0
LINE
8
0
10
1.88466055038
20
81.5188606886
11
2.69600251381
21
80.9100925678
0
LINE
8
0
10
2.69600251381
20
80.9100925678
11
3.51551079019
21
80.3472449872
0
LINE
8
0
10
3.51551079019
20
80.3472449872
11
4.26830626136
21
79.8753518757
0
LINE
8
0
10
4.26830626136
20
79.8753518757
11
4.94836619251
21
79.4877400285
0
LINE
8
0
10
4.94836619251
20
79.4877400285
11
5.55011368826
21
79.1773980597
0
LINE
8
0
10
5.55011368826
20
79.1773980597
11
6.15397804436
21
78.8973276803
0
LINE
8
0
10
6.15397804436
20
78.8973276803
11
6.35392700496
21
78.7628437673
0
LINE
8
0
10
6.35392700496
20
78.7628437673
11
6.43794021185
21
78.638731712
0
LINE
8
0
10
6.43794021185
20
78.638731712
11
6.01125186165
21
76.4019530484
0
LINE
8
0
10
6.01125186165
20
76.4019530484
11
5.88744966256
21
76.317483902
0
LINE
8
0
10
5.88744966256
20
76.317483902
11
5.65203499029
21
76.2660500436
0
LINE
8
0
10
5.65203499029
20
76.2660500436
11
4.98747532821
21
76.2279444865
0
LINE
8
0
10
4.98747532821
20
76.2279444865
11
4.31374015777
21
76.160913849
0
LINE
8
0
10
4.31374015777
20
76.160913849
11
3.53874698691
21
76.0508682257
0
LINE
8
0
10
3.53874698691
20
76.0508682257
11
2.66510001858
21
75.889235603
0
LINE
8
0
10
2.66510001858
20
75.889235603
11
1.69594247935
21
75.667594275
0
LINE
8
0
10
1.69594247935
20
75.667594275
11
0.717473307587
21
75.4002508883
0
LINE
8
0
10
0.717473307587
20
75.4002508883
11
0.52207345364
21
74.3759289822
0
LINE
8
0
10
0.52207345364
20
74.3759289822
11
0.456595962608
21
73.3351940648
0
LINE
8
0
10
0.456595962608
20
73.3351940648
11
1.33783912939
21
72.8329143743
0
LINE
8
0
10
1.33783912939
20
72.8329143743
11
2.22142884553
21
72.3772166371
0
LINE
8
0
10
2.22142884553
20
72.3772166371
11
3.02743218911
21
72.0033948344
0
LINE
8
0
10
3.02743218911
20
72.0033948344
11
3.75071029076
21
71.7040735326
0
LINE
8
0
10
3.75071029076
20
71.7040735326
11
4.38660899023
21
71.4715976623
0
LINE
8
0
10
4.38660899023
20
71.4715976623
11
5.02081382178
21
71.2694199939
0
LINE
8
0
10
5.02081382178
20
71.2694199939
11
5.23604142879
21
71.1610567765
0
LINE
8
0
10
5.23604142879
20
71.1610567765
11
5.33494753166
21
71.0484530288
0
LINE
8
0
10
5.33494753166
20
71.0484530288
11
5.19196644924
21
68.7758338023
0
LINE
8
0
10
5.19196644924
20
68.7758338023
11
5.07972725871
21
68.6765141904
0
LINE
8
0
10
5.07972725871
20
68.6765141904
11
4.85261527323
21
68.5959806213
0
LINE
8
0
10
4.85261527323
20
68.5959806213
11
4.19807175527
21
68.4748841265
0
LINE
8
0
10
4.19807175527
20
68.4748841265
11
3.53805035443
21
68.3239406381
0
LINE
8
0
10
3.53805035443
20
68.3239406381
11
2.78296061001
21
68.1176303574
0
LINE
8
0
10
2.78296061001
20
68.1176303574
11
1.93646054823
21
67.8477752566
0
LINE
8
0
10
1.93646054823
20
67.8477752566
11
1.00272412999
21
67.5064139885
0
LINE
8
0
10
1.00272412999
20
67.5064139885
11
0.0654774910317
21
67.118543979
0
LINE
8
0
10
0.0654774910317
20
67.118543979
11
0.0
21
66.0778090616
0
LINE
8
0
10
0.0
20
66.0778090616
11
0.0654774910318
21
65.0370741441
0
LINE
8
0
10
0.0654774910318
20
65.0370741441
11
1.00272412999
21
64.6492041346
0
LINE
8
0
10
1.00272412999
20
64.6492041346
11
1.93646054823
21
64.3078428665
0
LINE
8
0
10
1.93646054823
20
64.3078428665
11
2.78296061001
21
64.0379877657
0
LINE
8
0
10
2.78296061001
20
64.0379877657
11
3.53805035443
21
63.831677485
0
LINE
8
0
10
3.53805035443
20
63.831677485
11
4.19807175528
21
63.6807339966
0
LINE
8
0
10
4.19807175528
20
63.6807339966
11
4.85261527323
21
63.5596375018
0
LINE
8
0
10
4.85261527323
20
63.5596375018
11
5.07972725871
21
63.4791039327
0
LINE
8
0
10
5.07972725871
20
63.4791039327
11
5.19196644923
21
63.3797843208
0
LINE
8
0
10
5.19196644923
20
63.3797843208
11
5.33494753166
21
61.1071650943
0
LINE
8
0
10
5.33494753166
20
61.1071650943
11
5.23604142879
21
60.9945613466
0
LINE
8
0
10
5.23604142879
20
60.9945613466
11
5.02081382179
21
60.8861981292
0
LINE
8
0
10
5.02081382179
20
60.8861981292
11
4.38660899023
21
60.6840204608
0
LINE
8
0
10
4.38660899023
20
60.6840204608
11
3.75071029076
21
60.4515445905
0
LINE
8
0
10
3.75071029076
20
60.4515445905
11
3.02743218911
21
60.1522232887
0
LINE
8
0
10
3.02743218911
20
60.1522232887
11
2.22142884553
21
59.778401486
0
LINE
8
0
10
2.22142884553
20
59.778401486
11
1.33783912939
21
59.3227037489
0
LINE
8
0
10
1.33783912939
20
59.3227037489
11
0.456595962608
21
58.8204240584
0
LINE
8
0
10
0.456595962608
20
58.8204240584
11
0.52207345364
21
57.7796891409
0
LINE
8
0
10
0.52207345364
20
57.7796891409
11
0.717473307587
21
56.7553672348
0
LINE
8
0
10
0.717473307587
20
56.7553672348
11
1.69594247934
21
56.4880238481
0
LINE
8
0
10
1.69594247934
20
56.4880238481
11
2.66510001857
21
56.2663825201
0
LINE
8
0
10
2.66510001857
20
56.2663825201
11
3.53874698691
21
56.1047498974
0
LINE
8
0
10
3.53874698691
20
56.1047498974
11
4.31374015777
21
55.9947042741
0
LINE
8
0
10
4.31374015777
20
55.9947042741
11
4.98747532821
21
55.9276736366
0
LINE
8
0
10
4.98747532821
20
55.9276736366
11
5.65203499029
21
55.8895680795
0
LINE
8
0
10
5.65203499029
20
55.8895680795
11
5.88744966256
21
55.8381342211
0
LINE
8
0
10
5.88744966256
20
55.8381342211
11
6.01125186165
21
55.7536650747
0
LINE
8
0
10
6.01125186165
20
55.7536650747
11
6.43794021185
21
53.5168864111
0
LINE
8
0
10
6.43794021185
20
53.5168864111
11
6.35392700496
21
53.3927743558
0
LINE
8
0
10
6.35392700496
20
53.3927743558
11
6.15397804436
21
53.2582904428
0
LINE
8
0
10
6.15397804436
20
53.2582904428
11
5.55011368826
21
52.9782200634
0
LINE
8
0
10
5.55011368826
20
52.9782200634
11
4.94836619251
21
52.6678780946
0
LINE
8
0
10
4.94836619251
20
52.6678780946
11
4.26830626136
21
52.2802662474
0
LINE
8
0
10
4.26830626136
20
52.2802662474
11
3.5155107902
21
51.8083731359
0
LINE
8
0
10
3.5155107902
20
51.8083731359
11
2.69600251381
21
51.2455255553
0
LINE
8
0
10
2.69600251381
20
51.2455255553
11
1.88466055038
21
50.6367574345
0
LINE
8
0
10
1.88466055038
20
50.6367574345
11
2.08006040432
21
49.6124355284
0
LINE
8
0
10
2.08006040432
20
49.6124355284
11
2.40230104876
21
48.620680802
0
LINE
8
0
10
2.40230104876
20
48.620680802
11
3.40656170997
21
48.478080203
0
LINE
8
0
10
3.40656170997
20
48.478080203
11
4.39585617685
21
48.3796542314
0
LINE
8
0
10
4.39585617685
20
48.3796542314
11
5.28287211716
21
48.3287931296
0
LINE
8
0
10
5.28287211716
20
48.3287931296
11
6.06554660919
21
48.3167476491
0
LINE
8
0
10
6.06554660919
20
48.3167476491
11
6.74237034313
21
48.3346869757
0
LINE
8
0
10
6.74237034313
20
48.3346869757
11
7.40646564646
21
48.3801733036
0
LINE
8
0
10
7.40646564646
20
48.3801733036
11
7.64647037551
21
48.3586502987
0
LINE
8
0
10
7.64647037551
20
48.3586502987
11
7.77988314855
21
48.2903637466
0
LINE
8
0
10
7.77988314855
20
48.2903637466
11
8.48354963634
21
46.1247009815
0
LINE
8
0
10
8.48354963634
20
46.1247009815
11
8.41575426389
21
45.99103794
0
LINE
8
0
10
8.41575426389
20
45.99103794
11
8.23423726425
21
45.832554223
0
LINE
8
0
10
8.23423726425
20
45.832554223
11
7.67023668523
21
45.4790080099
0
LINE
8
0
10
7.67023668523
20
45.4790080099
11
7.11213031068
21
45.0956942207
0
LINE
8
0
10
7.11213031068
20
45.0956942207
11
6.48601350139
21
44.6259046985
0
LINE
8
0
10
6.48601350139
20
44.6259046985
11
5.79829793692
21
44.0633823146
0
LINE
8
0
10
5.79829793692
20
44.0633823146
11
5.05579523535
21
43.402261333
0
LINE
8
0
10
5.05579523535
20
43.402261333
11
4.3271498227
21
42.6966054189
0
LINE
8
0
10
4.3271498227
20
42.6966054189
11
4.64939046714
21
41.7048506925
0
LINE
8
0
10
4.64939046714
20
41.7048506925
11
5.09338997461
21
40.7613037103
0
LINE
8
0
10
5.09338997461
20
40.7613037103
11
6.10760433473
21
40.7456947956
0
LINE
8
0
10
6.10760433473
20
40.7456947956
11
7.10143396455
21
40.7720364167
0
LINE
8
0
10
7.10143396455
20
40.7720364167
11
7.98783010557
21
40.8327489459
0
LINE
8
0
10
7.98783010557
20
40.8327489459
11
8.76584267448
21
40.9188935725
0
LINE
8
0
10
8.76584267448
20
40.9188935725
11
9.43508105731
21
41.0215199493
0
LINE
8
0
10
9.43508105731
20
41.0215199493
11
10.0882388223
21
41.1498808157
0
LINE
8
0
10
10.0882388223
20
41.1498808157
11
10.3290485901
21
41.1586080948
0
LINE
8
0
10
10.3290485901
20
41.1586080948
11
10.469967938
21
41.1075810569
0
LINE
8
0
10
10.469967938
20
41.1075810569
11
11.4395153225
21
39.0471879858
0
LINE
8
0
10
11.4395153225
20
39.0471879858
11
11.389006958
21
38.906081904
0
LINE
8
0
10
11.389006958
20
38.906081904
11
11.2287845509
21
38.726097766
0
LINE
8
0
10
11.2287845509
20
38.726097766
11
10.713542375
21
38.304651354
0
LINE
8
0
10
10.713542375
20
38.304651354
11
10.2078787925
21
37.854410832
0
LINE
8
0
10
10.2078787925
20
37.854410832
11
9.64557934123
21
37.3098524962
0
LINE
8
0
10
9.64557934123
20
37.3098524962
11
9.03378936872
21
36.6655721538
0
LINE
8
0
10
9.03378936872
20
36.6655721538
11
8.38000195313
21
35.9166040441
0
LINE
8
0
10
8.38000195313
20
35.9166040441
11
7.74554426469
21
35.125188952
0
LINE
8
0
10
7.74554426469
20
35.125188952
11
8.18954377216
21
34.1816419698
0
LINE
8
0
10
8.18954377216
20
34.1816419698
11
8.7483000052
21
33.3011830313
0
LINE
8
0
10
8.7483000052
20
33.3011830313
11
9.7564732979
21
33.4128119629
0
LINE
8
0
10
9.7564732979
20
33.4128119629
11
10.7391648037
21
33.5635057535
0
LINE
8
0
10
10.7391648037
20
33.5635057535
11
11.6109621488
21
33.7348344409
0
LINE
8
0
10
11.6109621488
20
33.7348344409
11
12.3720430716
21
33.9178106224
0
LINE
8
0
10
12.3720430716
20
33.9178106224
11
13.0231418143
21
34.10350557
0
LINE
8
0
10
13.0231418143
20
34.10350557
11
13.6550613527
21
34.3127166474
0
LINE
8
0
10
13.6550613527
20
34.3127166474
11
13.8928784455
21
34.3515565762
0
LINE
8
0
10
13.8928784455
20
34.3515565762
11
14.0390819859
21
34.3185937793
0
LINE
8
0
10
14.0390819859
20
34.3185937793
11
15.2592199257
21
32.3959640317
0
LINE
8
0
10
15.2592199257
20
32.3959640317
11
15.2267951163
21
32.2496402369
0
LINE
8
0
10
15.2267951163
20
32.2496402369
11
15.0903941046
21
32.0509941352
0
LINE
8
0
10
15.0903941046
20
32.0509941352
11
14.6320360088
21
31.5682939861
0
LINE
8
0
10
14.6320360088
20
31.5682939861
11
14.1867898352
21
31.0582272932
0
LINE
8
0
10
14.1867898352
20
31.0582272932
11
13.6971755401
21
30.447488154
0
LINE
8
0
10
13.6971755401
20
30.447488154
11
13.1709594529
21
29.7316105391
0
LINE
8
0
10
13.1709594529
20
29.7316105391
11
12.6161979414
21
28.9066069758
0
LINE
8
0
10
12.6161979414
20
28.9066069758
11
12.0859337539
21
28.0419137944
0
LINE
8
0
10
12.0859337539
20
28.0419137944
11
12.644689987
21
27.1614548559
0
LINE
8
0
10
12.644689987
20
27.1614548559
11
13.309391026
21
26.3579693247
0
LINE
8
0
10
13.309391026
20
26.3579693247
11
14.2956237562
21
26.5950756475
0
LINE
8
0
10
14.2956237562
20
26.5950756475
11
15.2516795059
21
26.8677450766
0
LINE
8
0
10
15.2516795059
20
26.8677450766
11
16.0951292902
21
27.1469879664
0
LINE
8
0
10
16.0951292902
20
27.1469879664
11
16.8272758661
21
27.4239100591
0
LINE
8
0
10
16.8272758661
20
27.4239100591
11
17.4499667524
21
27.6897450574
0
LINE
8
0
10
17.4499667524
20
27.6897450574
11
18.0506823157
21
27.976506962
0
LINE
8
0
10
18.0506823157
20
27.976506962
11
18.2817562159
21
28.0448470117
0
LINE
8
0
10
18.2817562159
20
28.0448470117
11
18.4309382316
21
28.0304682987
0
LINE
8
0
10
18.4309382316
20
28.0304682987
11
19.8824244225
21
26.2759228944
0
LINE
8
0
10
19.8824244225
20
26.2759228944
11
19.8685945267
21
26.1266890002
0
LINE
8
0
10
19.8685945267
20
26.1266890002
11
19.7581660361
21
25.9125137024
0
LINE
8
0
10
19.7581660361
20
25.9125137024
11
19.3639206013
21
25.3761722859
0
LINE
8
0
10
19.3639206013
20
25.3761722859
11
18.9861136347
21
24.8143234786
0
LINE
8
0
10
18.9861136347
20
24.8143234786
11
18.5769060058
21
24.1470352571
0
LINE
8
0
10
18.5769060058
20
24.1470352571
11
18.1445625459
21
23.3708501872
0
LINE
8
0
10
18.1445625459
20
23.3708501872
11
17.6975758589
21
22.4828219694
0
LINE
8
0
10
17.6975758589
20
22.4828219694
11
17.2798677554
21
21.5584874267
0
LINE
8
0
10
17.2798677554
20
21.5584874267
11
17.9445687944
21
20.7550018954
0
LINE
8
0
10
17.9445687944
20
20.7550018954
11
18.704731907
21
20.0411612181
0
LINE
8
0
10
18.704731907
20
20.0411612181
11
19.6534705954
21
20.4000056239
0
LINE
8
0
10
19.6534705954
20
20.4000056239
11
20.5678130187
21
20.7903505317
0
LINE
8
0
10
20.5678130187
20
20.7903505317
11
21.3696135351
21
21.1731037967
0
LINE
8
0
10
21.3696135351
20
21.1731037967
11
22.0612793753
21
21.5396045738
0
LINE
8
0
10
22.0612793753
20
21.5396045738
11
22.6457421981
21
21.881387246
0
LINE
8
0
10
22.6457421981
20
21.881387246
11
23.205780143
21
22.2411775714
0
LINE
8
0
10
23.205780143
20
22.2411775714
11
23.426466677
21
22.3379399784
0
LINE
8
0
10
23.426466677
20
22.3379399784
11
23.5762744785
21
22.3423721103
0
LINE
8
0
10
23.5762744785
20
22.3423721103
11
25.2362181163
21
20.7835812783
0
LINE
8
0
10
25.2362181163
20
20.7835812783
11
25.2412012399
21
20.6337907924
0
LINE
8
0
10
25.2412012399
20
20.6337907924
11
25.1584867935
21
20.407463971
0
LINE
8
0
10
25.1584867935
20
20.407463971
11
24.8345715057
21
19.8259397116
0
LINE
8
0
10
24.8345715057
20
19.8259397116
11
24.5301619877
21
19.2211694812
0
LINE
8
0
10
24.5301619877
20
19.2211694812
11
24.2078144737
21
18.5078557114
0
LINE
8
0
10
24.2078144737
20
18.5078557114
11
23.8761619558
21
17.6836040887
0
LINE
8
0
10
23.8761619558
20
17.6836040887
11
23.5439993403
21
16.7465559518
0
LINE
8
0
10
23.5439993403
20
16.7465559518
11
23.2454348271
21
15.7771573558
0
LINE
8
0
10
23.2454348271
20
15.7771573558
11
24.0055979397
21
15.0633166785
0
LINE
8
0
10
24.0055979397
20
15.0633166785
11
24.8492348994
21
14.450378549
0
LINE
8
0
10
24.8492348994
20
14.450378549
11
25.7455173701
21
14.9253018472
0
LINE
8
0
10
25.7455173701
20
14.9253018472
11
26.6037267408
21
15.4271662612
0
LINE
8
0
10
26.6037267408
20
15.4271662612
11
27.3512331163
21
15.9073936538
0
LINE
8
0
10
27.3512331163
20
15.9073936538
11
27.9915102373
21
16.3576931791
0
LINE
8
0
10
27.9915102373
20
16.3576931791
11
28.5285276686
21
16.7700334084
0
LINE
8
0
10
28.5285276686
20
16.7700334084
11
29.0390558622
21
17.1971780461
0
LINE
8
0
10
29.0390558622
20
17.1971780461
11
29.2458746716
21
17.3208368095
0
LINE
8
0
10
29.2458746716
20
17.3208368095
11
29.3939457005
21
17.3440098889
0
LINE
8
0
10
29.3939457005
20
17.3440098889
11
31.2361684822
21
16.0055566919
0
LINE
8
0
10
31.2361684822
20
16.0055566919
11
31.2598860384
21
15.8575718997
0
LINE
8
0
10
31.2598860384
20
15.8575718997
11
31.2061900925
21
15.6226628639
0
LINE
8
0
10
31.2061900925
20
15.6226628639
11
30.9577132893
21
15.0051267466
0
LINE
8
0
10
30.9577132893
20
15.0051267466
11
30.7315019399
21
14.3669726808
0
LINE
8
0
10
30.7315019399
20
14.3669726808
11
30.5010981535
21
13.6188827468
0
LINE
8
0
10
30.5010981535
20
13.6188827468
11
30.2753669359
21
12.7595635119
0
LINE
8
0
10
30.2753669359
20
12.7595635119
11
30.0632667949
21
11.7882732648
0
LINE
8
0
10
30.0632667949
20
11.7882732648
11
29.8885544127
21
10.7890986104
0
LINE
8
0
10
29.8885544127
20
10.7890986104
11
30.7321913724
21
10.1761604809
0
LINE
8
0
10
30.7321913724
20
10.1761604809
11
31.6459975205
21
9.67379129986
0
LINE
8
0
10
31.6459975205
20
9.67379129986
11
32.4756888636
21
10.2573036662
0
LINE
8
0
10
32.4756888636
20
10.2573036662
11
33.2642307073
21
10.8627728849
0
LINE
8
0
10
33.2642307073
20
10.8627728849
11
33.9456543198
21
11.4329009323
0
LINE
8
0
10
33.9456543198
20
11.4329009323
11
34.5244451688
21
11.9598977132
0
LINE
8
0
10
34.5244451688
20
11.9598977132
11
35.005548123
21
12.4362926478
0
LINE
8
0
10
35.005548123
20
12.4362926478
11
35.4585152307
21
12.9240552718
0
LINE
8
0
10
35.4585152307
20
12.9240552718
11
35.6482046593
21
13.0726602191
0
LINE
8
0
10
35.6482046593
20
13.0726602191
11
35.7922037469
21
13.1142087927
0
LINE
8
0
10
35.7922037469
20
13.1142087927
11
37.7876527189
21
12.0172014371
0
LINE
8
0
10
37.7876527189
20
12.0172014371
11
37.8297306676
21
11.8733561472
0
LINE
8
0
10
37.8297306676
20
11.8733561472
11
37.8059000393
21
11.6335695527
0
LINE
8
0
10
37.8059000393
20
11.6335695527
11
37.6367803484
21
10.9897604909
0
LINE
8
0
10
37.6367803484
20
10.9897604909
11
37.4923346556
21
10.3282866607
0
LINE
8
0
10
37.4923346556
20
10.3282866607
11
37.3575082023
21
9.55721838771
0
LINE
8
0
10
37.3575082023
20
9.55721838771
11
37.2412582012
21
8.67638351825
0
LINE
8
0
10
37.2412582012
20
8.67638351825
11
37.1525654806
21
7.68616898826
0
LINE
8
0
10
37.1525654806
20
7.68616898826
11
37.104460548
21
6.67297585664
0
LINE
8
0
10
37.104460548
20
6.67297585664
11
38.018266696
21
6.17060667557
0
LINE
8
0
10
38.018266696
20
6.17060667557
11
38.9878307635
21
5.78672910491
0
LINE
8
0
10
38.9878307635
20
5.78672910491
11
39.7378462509
21
6.46962820082
0
LINE
8
0
10
39.7378462509
20
6.46962820082
11
40.4442847916
21
7.16915361301
0
LINE
8
0
10
40.4442847916
20
7.16915361301
11
41.0488791837
21
7.82019105519
0
LINE
8
0
10
41.0488791837
20
7.82019105519
11
41.5570558834
21
8.4155740378
0
LINE
8
0
10
41.5570558834
20
8.4155740378
11
41.9746570795
21
8.94851064494
0
LINE
8
0
10
41.9746570795
20
8.94851064494
11
42.3629195393
21
9.48919894725
0
LINE
8
0
10
42.3629195393
20
9.48919894725
11
42.5324880716
21
9.66040648964
0
LINE
8
0
10
42.5324880716
20
9.66040648964
11
42.6701442663
21
9.71967531158
0
LINE
8
0
10
42.6701442663
20
9.71967531158
11
44.7873500063
21
8.88141425872
0
LINE
8
0
10
44.7873500063
20
8.88141425872
11
44.8471247531
21
8.74397699724
0
LINE
8
0
10
44.8471247531
20
8.74397699724
11
44.8535352657
21
8.50309442204
0
LINE
8
0
10
44.8535352657
20
8.50309442204
11
44.7664398055
21
7.84316566924
0
LINE
8
0
10
44.7664398055
20
7.84316566924
11
44.7060377642
21
7.16880391198
0
LINE
8
0
10
44.7060377642
20
7.16880391198
11
44.6689149378
21
6.38691750729
0
LINE
8
0
10
44.6689149378
20
6.38691750729
11
44.663979485
21
5.49845829533
0
LINE
8
0
10
44.663979485
20
5.49845829533
11
44.700092922
21
4.5049357572
0
LINE
8
0
10
44.700092922
20
4.5049357572
11
44.7793540826
21
3.4937028093
0
LINE
8
0
10
44.7793540826
20
3.4937028093
11
45.7489181501
21
3.10982523865
0
LINE
8
0
10
45.7489181501
20
3.10982523865
11
46.7589495326
21
2.85049325703
0
LINE
8
0
10
46.7589495326
20
2.85049325703
11
47.4174609719
21
3.62200935585
0
LINE
8
0
10
47.4174609719
20
3.62200935585
11
48.0306552518
21
4.40455902785
0
LINE
8
0
10
48.0306552518
20
4.40455902785
11
48.5488856087
21
5.12623861549
0
LINE
8
0
10
48.5488856087
20
5.12623861549
11
48.9784339089
21
5.78061825445
0
LINE
8
0
10
48.9784339089
20
5.78061825445
11
49.3259475267
21
6.36169180551
0
LINE
8
0
10
49.3259475267
20
6.36169180551
11
49.6433822077
21
6.94677880862
0
LINE
8
0
10
49.6433822077
20
6.94677880862
11
49.7901556466
21
7.13788890086
0
LINE
8
0
10
49.7901556466
20
7.13788890086
11
49.919298028
21
7.21394326644
0
LINE
8
0
10
49.919298028
20
7.21394326644
11
52.1248709367
21
6.64764839387
0
LINE
8
0
10
52.1248709367
20
6.64764839387
11
52.2013997981
21
6.51878662855
0
LINE
8
0
10
52.2013997981
20
6.51878662855
11
52.2379503539
21
6.28060693467
0
LINE
8
0
10
52.2379503539
20
6.28060693467
11
52.234252672
21
5.61496596155
0
LINE
8
0
10
52.234252672
20
5.61496596155
11
52.2588468585
21
4.93835136502
0
LINE
8
0
10
52.2588468585
20
4.93835136502
11
52.320013108
21
4.1579776443
0
LINE
8
0
10
52.320013108
20
4.1579776443
11
52.4264700387
21
3.27590562233
0
LINE
8
0
10
52.4264700387
20
3.27590562233
11
52.5868201027
21
2.29474351999
0
LINE
8
0
10
52.5868201027
20
2.29474351999
11
52.7921973607
21
1.30141850349
0
LINE
8
0
10
52.7921973607
20
1.30141850349
11
53.8022287431
21
1.04208652187
0
LINE
8
0
10
53.8022287431
20
1.04208652187
11
54.8367986423
21
0.911389949551
0
LINE
8
0
10
54.8367986423
20
0.911389949551
11
55.3934209148
21
1.75935578153
0
LINE
8
0
10
55.3934209148
20
1.75935578153
11
55.9037004939
21
2.61258843753
0
LINE
8
0
10
55.9037004939
20
2.61258843753
11
56.3273940133
21
3.39352885243
0
LINE
8
0
10
56.3273940133
20
3.39352885243
11
56.6715396808
21
4.09658518991
0
LINE
8
0
10
56.6715396808
20
4.09658518991
11
56.9434852227
21
4.71663180789
0
LINE
8
0
10
56.9434852227
20
4.71663180789
11
57.1850859905
21
5.33689034024
0
LINE
8
0
10
57.1850859905
20
5.33689034024
11
57.3067496311
21
5.54488906201
0
LINE
8
0
10
57.3067496311
20
5.54488906201
11
57.4253415467
21
5.63652954846
0
LINE
8
0
10
57.4253415467
20
5.63652954846
11
59.6844984218
21
5.35113166462
0
LINE
8
0
10
59.6844984218
20
5.35113166462
11
59.776574492
21
5.23287762247
0
LINE
8
0
10
59.776574492
20
5.23287762247
11
59.842688667
21
5.00115704597
0
LINE
8
0
10
59.842688667
20
5.00115704597
11
59.9224470779
21
4.3403014083
0
LINE
8
0
10
59.9224470779
20
4.3403014083
11
60.0316496271
21
3.67210458887
0
LINE
8
0
10
60.0316496271
20
3.67210458887
11
60.1901403243
21
2.90555051187
0
LINE
8
0
10
60.1901403243
20
2.90555051187
11
60.4063107491
21
2.04377648262
0
LINE
8
0
10
60.4063107491
20
2.04377648262
11
60.6883686239
21
1.09044832854
0
LINE
8
0
10
60.6883686239
20
1.09044832854
11
61.0166230571
21
0.13069657232
0
LINE
8
0
10
61.0166230571
20
0.13069657232
11
62.0511929563
21
9.94759830064e-14
0
LINE
8
0
10
62.0511929563
20
9.94759830064e-14
11
63.0939855868
21
9.94759830064e-14
0
LINE
8
0
10
63.0939855868
20
9.94759830064e-14
11
63.5399404268
21
0.911042637406
0
LINE
8
0
10
63.5399404268
20
0.911042637406
11
63.9392578912
21
1.82150228874
0
LINE
8
0
10
63.9392578912
20
1.82150228874
11
64.2617326733
21
2.64938763404
0
LINE
8
0
10
64.2617326733
20
2.64938763404
11
64.5150483251
21
3.39003305162
0
LINE
8
0
10
64.5150483251
20
3.39003305162
11
64.7071370477
21
4.03927423095
0
LINE
8
0
10
64.7071370477
20
4.03927423095
11
64.8690937137
21
4.68492244496
0
LINE
8
0
10
64.8690937137
20
4.68492244496
11
64.9637288478
21
4.90652953217
0
LINE
8
0
10
64.9637288478
20
4.90652953217
11
65.0699000322
21
5.01231091426
0
LINE
8
0
10
65.0699000322
20
5.01231091426
11
67.3470126202
21
5.01231091426
0
LINE
8
0
10
67.3470126202
20
5.01231091426
11
67.4531838046
21
4.90652953217
0
LINE
8
0
10
67.4531838046
20
4.90652953217
11
67.5478189387
21
4.68492244497
0
LINE
8
0
10
67.5478189387
20
4.68492244497
11
67.7097756048
21
4.03927423094
0
LINE
8
0
10
67.7097756048
20
4.03927423094
11
67.9018643273
21
3.39003305162
0
LINE
8
0
10
67.9018643273
20
3.39003305162
11
68.1551799792
21
2.64938763404
0
LINE
8
0
10
68.1551799792
20
2.64938763404
11
68.4776547612
21
1.82150228874
0
LINE
8
0
10
68.4776547612
20
1.82150228874
11
68.8769722257
21
0.911042637409
0
LINE
8
0
10
68.8769722257
20
0.911042637409
11
69.3229270657
21
1.42108547152e-14
0
LINE
8
0
10
69.3229270657
20
1.42108547152e-14
11
70.3657196962
21
0.0
0
LINE
8
0
10
70.3657196962
20
0.0
11
71.4002895953
21
0.13069657232
0
LINE
8
0
10
71.4002895953
20
0.13069657232
11
71.7285440286
21
1.09044832853
0
LINE
8
0
10
71.7285440286
20
1.09044832853
11
72.0106019034
21
2.04377648261
0
LINE
8
0
10
72.0106019034
20
2.04377648261
11
72.2267723281
21
2.90555051187
0
LINE
8
0
10
72.2267723281
20
2.90555051187
11
72.3852630253
21
3.67210458887
0
LINE
8
0
10
72.3852630253
20
3.67210458887
11
72.4944655745
21
4.34030140831
0
LINE
8
0
10
72.4944655745
20
4.34030140831
11
72.5742239855
21
5.00115704596
0
LINE
8
0
10
72.5742239855
20
5.00115704596
11
72.6403381605
21
5.23287762247
0
LINE
8
0
10
72.6403381605
20
5.23287762247
11
72.7324142307
21
5.35113166461
0
LINE
8
0
10
72.7324142307
20
5.35113166461
11
74.9915711058
21
5.63652954846
0
LINE
8
0
10
74.9915711058
20
5.63652954846
11
75.1101630214
21
5.54488906201
0
LINE
8
0
10
75.1101630214
20
5.54488906201
11
75.231826662
21
5.33689034024
0
LINE
8
0
10
75.231826662
20
5.33689034024
11
75.4734274297
21
4.71663180789
0
LINE
8
0
10
75.4734274297
20
4.71663180789
11
75.7453729717
21
4.09658518991
0
LINE
8
0
10
75.7453729717
20
4.09658518991
11
76.0895186391
21
3.39352885243
0
LINE
8
0
10
76.0895186391
20
3.39352885243
11
76.5132121585
21
2.61258843754
0
LINE
8
0
10
76.5132121585
20
2.61258843754
11
77.0234917376
21
1.75935578153
0
LINE
8
0
10
77.0234917376
20
1.75935578153
11
77.5801140102
21
0.911389949551
0
LINE
8
0
10
77.5801140102
20
0.911389949551
11
78.6146839093
21
1.04208652187
0
LINE
8
0
10
78.6146839093
20
1.04208652187
11
79.6247152918
21
1.30141850349
0
LINE
8
0
10
79.6247152918
20
1.30141850349
11
79.8300925497
21
2.29474351999
0
LINE
8
0
10
79.8300925497
20
2.29474351999
11
79.9904426138
21
3.27590562233
0
LINE
8
0
10
79.9904426138
20
3.27590562233
11
80.0968995445
21
4.1579776443
0
LINE
8
0
10
80.0968995445
20
4.1579776443
11
80.158065794
21
4.93835136502
0
LINE
8
0
10
80.158065794
20
4.93835136502
11
80.1826599805
21
5.61496596156
0
LINE
8
0
10
80.1826599805
20
5.61496596156
11
80.1789622985
21
6.28060693467
0
LINE
8
0
10
80.1789622985
20
6.28060693467
11
80.2155128544
21
6.51878662855
0
LINE
8
0
10
80.2155128544
20
6.51878662855
11
80.2920417158
21
6.64764839387
0
LINE
8
0
10
80.2920417158
20
6.64764839387
11
82.4976146245
21
7.21394326644
0
LINE
8
0
10
82.4976146245
20
7.21394326644
11
82.6267570059
21
7.13788890086
0
LINE
8
0
10
82.6267570059
20
7.13788890086
11
82.7735304447
21
6.94677880862
0
LINE
8
0
10
82.7735304447
20
6.94677880862
11
83.0909651258
21
6.36169180551
0
LINE
8
0
10
83.0909651258
20
6.36169180551
11
83.4384787435
21
5.78061825445
0
LINE
8
0
10
83.4384787435
20
5.78061825445
11
83.8680270437
21
5.12623861549
0
LINE
8
0
10
83.8680270437
20
5.12623861549
11
84.3862574006
21
4.40455902785
0
LINE
8
0
10
84.3862574006
20
4.40455902785
11
84.9994516806
21
3.62200935585
0
LINE
8
0
10
84.9994516806
20
3.62200935585
11
85.6579631199
21
2.85049325703
0
LINE
8
0
10
85.6579631199
20
2.85049325703
11
86.6679945024
21
3.10982523865
0
LINE
8
0
10
86.6679945024
20
3.10982523865
11
87.6375585699
21
3.4937028093
0
LINE
8
0
10
87.6375585699
20
3.4937028093
11
87.7168197305
21
4.50493575719
0
LINE
8
0
10
87.7168197305
20
4.50493575719
11
87.7529331674
21
5.49845829532
0
LINE
8
0
10
87.7529331674
20
5.49845829532
11
87.7479977147
21
6.38691750729
0
LINE
8
0
10
87.7479977147
20
6.38691750729
11
87.7108748883
21
7.16880391198
0
LINE
8
0
10
87.7108748883
20
7.16880391198
11
87.650472847
21
7.84316566925
0
LINE
8
0
10
87.650472847
20
7.84316566925
11
87.5633773868
21
8.50309442204
0
LINE
8
0
10
87.5633773868
20
8.50309442204
11
87.5697878994
21
8.74397699724
0
LINE
8
0
10
87.5697878994
20
8.74397699724
11
87.6295626462
21
8.88141425872
0
LINE
8
0
10
87.6295626462
20
8.88141425872
11
89.7467683862
21
9.71967531158
0
LINE
8
0
10
89.7467683862
20
9.71967531158
11
89.8844245809
21
9.66040648964
0
LINE
8
0
10
89.8844245809
20
9.66040648964
11
90.0539931132
21
9.48919894726
0
LINE
8
0
10
90.0539931132
20
9.48919894726
11
90.442255573
21
8.94851064494
0
LINE
8
0
10
90.442255573
20
8.94851064494
11
90.8598567691
21
8.4155740378
0
LINE
8
0
10
90.8598567691
20
8.4155740378
11
91.3680334688
21
7.82019105519
0
LINE
8
0
10
91.3680334688
20
7.82019105519
11
91.9726278608
21
7.16915361302
0
LINE
8
0
10
91.9726278608
20
7.16915361302
11
92.6790664015
21
6.46962820083
0
LINE
8
0
10
92.6790664015
20
6.46962820083
11
93.4290818889
21
5.78672910491
0
LINE
8
0
10
93.4290818889
20
5.78672910491
11
94.3986459564
21
6.17060667557
0
LINE
8
0
10
94.3986459564
20
6.17060667557
11
95.3124521045
21
6.67297585664
0
LINE
8
0
10
95.3124521045
20
6.67297585664
11
95.2643471719
21
7.68616898826
0
LINE
8
0
10
95.2643471719
20
7.68616898826
11
95.1756544513
21
8.67638351825
0
LINE
8
0
10
95.1756544513
20
8.67638351825
11
95.0594044501
21
9.55721838771
0
LINE
8
0
10
95.0594044501
20
9.55721838771
11
94.9245779969
21
10.3282866607
0
LINE
8
0
10
94.9245779969
20
10.3282866607
11
94.7801323041
21
10.9897604909
0
LINE
8
0
10
94.7801323041
20
10.9897604909
11
94.6110126132
21
11.6335695527
0
LINE
8
0
10
94.6110126132
20
11.6335695527
11
94.5871819849
21
11.8733561472
0
LINE
8
0
10
94.5871819849
20
11.8733561472
11
94.6292599335
21
12.0172014371
0
LINE
8
0
10
94.6292599335
20
12.0172014371
11
96.6247089056
21
13.1142087927
0
LINE
8
0
10
96.6247089056
20
13.1142087927
11
96.7687079932
21
13.0726602191
0
LINE
8
0
10
96.7687079932
20
13.0726602191
11
96.9583974218
21
12.9240552718
0
LINE
8
0
10
96.9583974218
20
12.9240552718
11
97.4113645294
21
12.4362926478
0
LINE
8
0
10
97.4113645294
20
12.4362926478
11
97.8924674837
21
11.9598977132
0
LINE
8
0
10
97.8924674837
20
11.9598977132
11
98.4712583327
21
11.4329009323
0
LINE
8
0
10
98.4712583327
20
11.4329009323
11
99.1526819452
21
10.8627728849
0
LINE
8
0
10
99.1526819452
20
10.8627728849
11
99.9412237889
21
10.2573036662
0
LINE
8
0
10
99.9412237889
20
10.2573036662
11
100.770915132
21
9.67379129986
0
LINE
8
0
10
100.770915132
20
9.67379129986
11
101.68472128
21
10.1761604809
0
LINE
8
0
10
101.68472128
20
10.1761604809
11
102.52835824
21
10.7890986104
0
LINE
8
0
10
102.52835824
20
10.7890986104
11
102.353645858
21
11.7882732648
0
LINE
8
0
10
102.353645858
20
11.7882732648
11
102.141545717
21
12.7595635119
0
LINE
8
0
10
102.141545717
20
12.7595635119
11
101.915814499
21
13.6188827468
0
LINE
8
0
10
101.915814499
20
13.6188827468
11
101.685410713
21
14.3669726808
0
LINE
8
0
10
101.685410713
20
14.3669726808
11
101.459199363
21
15.0051267466
0
LINE
8
0
10
101.459199363
20
15.0051267466
11
101.21072256
21
15.6226628639
0
LINE
8
0
10
101.21072256
20
15.6226628639
11
101.157026614
21
15.8575718997
0
LINE
8
0
10
101.157026614
20
15.8575718997
11
101.18074417
21
16.0055566919
0
LINE
8
0
10
101.18074417
20
16.0055566919
11
103.022966952
21
17.3440098889
0
LINE
8
0
10
103.022966952
20
17.3440098889
11
103.171037981
21
17.3208368095
0
LINE
8
0
10
103.171037981
20
17.3208368095
11
103.37785679
21
17.1971780461
0
LINE
8
0
10
103.37785679
20
17.1971780461
11
103.888384984
21
16.7700334084
0
LINE
8
0
10
103.888384984
20
16.7700334084
11
104.425402415
21
16.3576931791
0
LINE
8
0
10
104.425402415
20
16.3576931791
11
105.065679536
21
15.9073936538
0
LINE
8
0
10
105.065679536
20
15.9073936538
11
105.813185912
21
15.4271662612
0
LINE
8
0
10
105.813185912
20
15.4271662612
11
106.671395282
21
14.9253018472
0
LINE
8
0
10
106.671395282
20
14.9253018472
11
107.567677753
21
14.450378549
0
LINE
8
0
10
107.567677753
20
14.450378549
11
108.411314713
21
15.0633166785
0
LINE
8
0
10
108.411314713
20
15.0633166785
11
109.171477825
21
15.7771573558
0
LINE
8
0
10
109.171477825
20
15.7771573558
11
108.872913312
21
16.7465559518
0
LINE
8
0
10
108.872913312
20
16.7465559518
11
108.540750697
21
17.6836040887
0
LINE
8
0
10
108.540750697
20
17.6836040887
11
108.209098179
21
18.5078557114
0
LINE
8
0
10
108.209098179
20
18.5078557114
11
107.886750665
21
19.2211694812
0
LINE
8
0
10
107.886750665
20
19.2211694812
11
107.582341147
21
19.8259397117
0
LINE
8
0
10
107.582341147
20
19.8259397117
11
107.258425859
21
20.407463971
0
LINE
8
0
10
107.258425859
20
20.407463971
11
107.175711413
21
20.6337907924
0
LINE
8
0
10
107.175711413
20
20.6337907924
11
107.180694536
21
20.7835812783
0
LINE
8
0
10
107.180694536
20
20.7835812783
11
108.840638174
21
22.3423721103
0
LINE
8
0
10
108.840638174
20
22.3423721103
11
108.990445975
21
22.3379399784
0
LINE
8
0
10
108.990445975
20
22.3379399784
11
109.211132509
21
22.2411775714
0
LINE
8
0
10
109.211132509
20
22.2411775714
11
109.771170454
21
21.881387246
0
LINE
8
0
10
109.771170454
20
21.881387246
11
110.355633277
21
21.5396045738
0
LINE
8
0
10
110.355633277
20
21.5396045738
11
111.047299117
21
21.1731037967
0
LINE
8
0
10
111.047299117
20
21.1731037967
11
111.849099634
21
20.7903505317
0
LINE
8
0
10
111.849099634
20
20.7903505317
11
112.763442057
21
20.4000056239
0
LINE
8
0
10
112.763442057
20
20.4000056239
11
113.712180745
21
20.0411612181
0
LINE
8
0
10
113.712180745
20
20.0411612181
11
114.472343858
21
20.7550018954
0
LINE
8
0
10
114.472343858
20
20.7550018954
11
115.137044897
21
21.5584874267
0
LINE
8
0
10
115.137044897
20
21.5584874267
11
114.719336794
21
22.4828219694
0
LINE
8
0
10
114.719336794
20
22.4828219694
11
114.272350107
21
23.3708501872
0
LINE
8
0
10
114.272350107
20
23.3708501872
11
113.840006647
21
24.1470352571
0
LINE
8
0
10
113.840006647
20
24.1470352571
11
113.430799018
21
24.8143234786
0
LINE
8
0
10
113.430799018
20
24.8143234786
11
113.052992051
21
25.3761722859
0
LINE
8
0
10
113.052992051
20
25.3761722859
11
112.658746616
21
25.9125137024
0
LINE
8
0
10
112.658746616
20
25.9125137024
11
112.548318126
21
26.1266890002
0
LINE
8
0
10
112.548318126
20
26.1266890002
11
112.53448823
21
26.2759228944
0
LINE
8
0
10
112.53448823
20
26.2759228944
11
113.985974421
21
28.0304682987
0
LINE
8
0
10
113.985974421
20
28.0304682987
11
114.135156437
21
28.0448470117
0
LINE
8
0
10
114.135156437
20
28.0448470117
11
114.366230337
21
27.976506962
0
LINE
8
0
10
114.366230337
20
27.976506962
11
114.9669459
21
27.6897450574
0
LINE
8
0
10
114.9669459
20
27.6897450574
11
115.589636786
21
27.4239100591
0
LINE
8
0
10
115.589636786
20
27.4239100591
11
116.321783362
21
27.1469879664
0
LINE
8
0
10
116.321783362
20
27.1469879664
11
117.165233147
21
26.8677450766
0
LINE
8
0
10
117.165233147
20
26.8677450766
11
118.121288896
21
26.5950756475
0
LINE
8
0
10
118.121288896
20
26.5950756475
11
119.107521626
21
26.3579693247
0
LINE
8
0
10
119.107521626
20
26.3579693247
11
119.772222665
21
27.1614548559
0
LINE
8
0
10
119.772222665
20
27.1614548559
11
120.330978899
21
28.0419137944
0
LINE
8
0
10
120.330978899
20
28.0419137944
11
119.800714711
21
28.9066069758
0
LINE
8
0
10
119.800714711
20
28.9066069758
11
119.2459532
21
29.7316105391
0
LINE
8
0
10
119.2459532
20
29.7316105391
11
118.719737112
21
30.447488154
0
LINE
8
0
10
118.719737112
20
30.447488154
11
118.230122817
21
31.0582272932
0
LINE
8
0
10
118.230122817
20
31.0582272932
11
117.784876644
21
31.5682939861
0
LINE
8
0
10
117.784876644
20
31.5682939861
11
117.326518548
21
32.0509941352
0
LINE
8
0
10
117.326518548
20
32.0509941352
11
117.190117536
21
32.2496402369
0
LINE
8
0
10
117.190117536
20
32.2496402369
11
117.157692727
21
32.3959640317
0
LINE
8
0
10
117.157692727
20
32.3959640317
11
118.377830667
21
34.3185937793
0
LINE
8
0
10
118.377830667
20
34.3185937793
11
118.524034207
21
34.3515565762
0
LINE
8
0
10
118.524034207
20
34.3515565762
11
118.7618513
21
34.3127166474
0
LINE
8
0
10
118.7618513
20
34.3127166474
11
119.393770838
21
34.10350557
0
LINE
8
0
10
119.393770838
20
34.10350557
11
120.044869581
21
33.9178106224
0
LINE
8
0
10
120.044869581
20
33.9178106224
11
120.805950504
21
33.7348344409
0
LINE
8
0
10
120.805950504
20
33.7348344409
11
121.677747849
21
33.5635057535
0
LINE
8
0
10
121.677747849
20
33.5635057535
11
122.660439355
21
33.4128119629
0
LINE
8
0
10
122.660439355
20
33.4128119629
11
123.668612647
21
33.3011830313
0
LINE
8
0
10
123.668612647
20
33.3011830313
11
124.22736888
21
34.1816419698
0
LINE
8
0
10
124.22736888
20
34.1816419698
11
124.671368388
21
35.125188952
0
LINE
8
0
10
124.671368388
20
35.125188952
11
124.036910699
21
35.9166040441
0
LINE
8
0
10
124.036910699
20
35.9166040441
11
123.383123284
21
36.6655721538
0
LINE
8
0
10
123.383123284
20
36.6655721538
11
122.771333311
21
37.3098524962
0
LINE
8
0
10
122.771333311
20
37.3098524962
11
122.20903386
21
37.854410832
0
LINE
8
0
10
122.20903386
20
37.854410832
11
121.703370277
21
38.304651354
0
LINE
8
0
10
121.703370277
20
38.304651354
11
121.188128102
21
38.726097766
0
LINE
8
0
10
121.188128102
20
38.726097766
11
121.027905694
21
38.906081904
0
LINE
8
0
10
121.027905694
20
38.906081904
11
120.97739733
21
39.0471879858
0
LINE
8
0
10
120.97739733
20
39.0471879858
11
121.946944714
21
41.1075810569
0
LINE
8
0
10
121.946944714
20
41.1075810569
11
122.087864062
21
41.1586080948
0
LINE
8
0
10
122.087864062
20
41.1586080948
11
122.32867383
21
41.1498808157
0
LINE
8
0
10
122.32867383
20
41.1498808157
11
122.981831595
21
41.0215199493
0
LINE
8
0
10
122.981831595
20
41.0215199493
11
123.651069978
21
40.9188935725
0
LINE
8
0
10
123.651069978
20
40.9188935725
11
124.429082547
21
40.8327489459
0
LINE
8
0
10
124.429082547
20
40.8327489459
11
125.315478688
21
40.7720364167
0
LINE
8
0
10
125.315478688
20
40.7720364167
11
126.309308318
21
40.7456947956
0
LINE
8
0
10
126.309308318
20
40.7456947956
11
127.323522678
21
40.7613037103
0
LINE
8
0
10
127.323522678
20
40.7613037103
11
127.767522185
21
41.7048506925
0
LINE
8
0
10
127.767522185
20
41.7048506925
11
128.08976283
21
42.6966054189
0
LINE
8
0
10
128.08976283
20
42.6966054189
11
127.361117417
21
43.402261333
0
LINE
8
0
10
127.361117417
20
43.402261333
11
126.618614716
21
44.0633823146
0
LINE
8
0
10
126.618614716
20
44.0633823146
11
125.930899151
21
44.6259046985
0
LINE
8
0
10
125.930899151
20
44.6259046985
11
125.304782342
21
45.0956942207
0
LINE
8
0
10
125.304782342
20
45.0956942207
11
124.746675967
21
45.4790080099
0
LINE
8
0
10
124.746675967
20
45.4790080099
11
124.182675388
21
45.832554223
0
LINE
8
0
10
124.182675388
20
45.832554223
11
124.001158389
21
45.99103794
0
LINE
8
0
10
124.001158389
20
45.99103794
11
123.933363016
21
46.1247009815
0
LINE
8
0
10
123.933363016
20
46.1247009815
11
124.637029504
21
48.2903637466
0
LINE
8
0
10
124.637029504
20
48.2903637466
11
124.770442277
21
48.3586502986
0
LINE
8
0
10
124.770442277
20
48.3586502986
11
125.010447006
21
48.3801733036
0
LINE
8
0
10
125.010447006
20
48.3801733036
11
125.674542309
21
48.3346869757
0
LINE
8
0
10
125.674542309
20
48.3346869757
11
126.351366043
21
48.3167476491
0
LINE
8
0
10
126.351366043
20
48.3167476491
11
127.134040535
21
48.3287931296
0
LINE
8
0
10
127.134040535
20
48.3287931296
11
128.021056476
21
48.3796542314
0
LINE
8
0
10
128.021056476
20
48.3796542314
11
129.010350942
21
48.478080203
0
LINE
8
0
10
129.010350942
20
48.478080203
11
130.014611604
21
48.620680802
0
LINE
8
0
10
130.014611604
20
48.620680802
11
130.336852248
21
49.6124355284
0
LINE
8
0
10
130.336852248
20
49.6124355284
11
130.532252102
21
50.6367574345
0
LINE
8
0
10
130.532252102
20
50.6367574345
11
129.720910139
21
51.2455255553
0
LINE
8
0
10
129.720910139
20
51.2455255553
11
128.901401862
21
51.8083731359
0
LINE
8
0
10
128.901401862
20
51.8083731359
11
128.148606391
21
52.2802662474
0
LINE
8
0
10
128.148606391
20
52.2802662474
11
127.46854646
21
52.6678780946
0
LINE
8
0
10
127.46854646
20
52.6678780946
11
126.866798964
21
52.9782200634
0
LINE
8
0
10
126.866798964
20
52.9782200634
11
126.262934608
21
53.2582904428
0
LINE
8
0
10
126.262934608
20
53.2582904428
11
126.062985647
21
53.3927743558
0
LINE
8
0
10
126.062985647
20
53.3927743558
11
125.978972441
21
53.5168864111
0
LINE
8
0
10
125.978972441
20
53.5168864111
11
126.405660791
21
55.7536650747
0
LINE
8
0
10
126.405660791
20
55.7536650747
11
126.52946299
21
55.8381342211
0
LINE
8
0
10
126.52946299
20
55.8381342211
11
126.764877662
21
55.8895680795
0
LINE
8
0
10
126.764877662
20
55.8895680795
11
127.429437324
21
55.9276736366
0
LINE
8
0
10
127.429437324
20
55.9276736366
11
128.103172495
21
55.9947042741
0
LINE
8
0
10
128.103172495
20
55.9947042741
11
128.878165666
21
56.1047498974
0
LINE
8
0
10
128.878165666
20
56.1047498974
11
129.751812634
21
56.2663825201
0
LINE
8
0
10
129.751812634
20
56.2663825201
11
130.720970173
21
56.4880238481
0
LINE
8
0
10
130.720970173
20
56.4880238481
11
131.699439345
21
56.7553672348
0
LINE
8
0
10
66.5203238625
20
64.6105876605
11
66.2084563262
21
64.5778090616
0
LINE
8
0
10
66.2084563262
20
64.5778090616
11
65.89658879
21
64.6105876605
0
LINE
8
0
10
65.89658879
20
64.6105876605
11
65.5983513616
21
64.7074908751
0
LINE
8
0
10
65.5983513616
20
64.7074908751
11
65.3267784478
21
64.86428357
0
LINE
8
0
10
65.3267784478
20
64.86428357
11
65.093739088
21
65.074113152
0
LINE
8
0
10
65.093739088
20
65.074113152
11
64.9094182206
21
65.3278090616
0
LINE
8
0
10
64.9094182206
20
65.3278090616
11
64.7818715518
21
65.61428357
0
LINE
8
0
10
64.7818715518
20
65.61428357
11
64.7166734832
21
65.9210163667
0
LINE
8
0
10
64.7166734832
20
65.9210163667
11
64.7166734832
21
66.2346017565
0
LINE
8
0
10
64.7166734832
20
66.2346017565
11
64.7818715518
21
66.5413345531
0
LINE
8
0
10
64.7818715518
20
66.5413345531
11
64.9094182206
21
66.8278090616
0
LINE
8
0
10
64.9094182206
20
66.8278090616
11
65.093739088
21
67.0815049711
0
LINE
8
0
10
65.093739088
20
67.0815049711
11
65.3267784478
21
67.2913345531
0
LINE
8
0
10
65.3267784478
20
67.2913345531
11
65.5983513616
21
67.448127248
0
LINE
8
0
10
65.5983513616
20
67.448127248
11
65.89658879
21
67.5450304627
0
LINE
8
0
10
65.89658879
20
67.5450304627
11
66.2084563262
21
67.5778090616
0
LINE
8
0
10
66.2084563262
20
67.5778090616
11
66.5203238625
21
67.5450304627
0
LINE
8
0
10
66.5203238625
20
67.5450304627
11
66.8185612908
21
67.448127248
0
LINE
8
0
10
66.8185612908
20
67.448127248
11
67.0901342047
21
67.2913345531
0
LINE
8
0
10
67.0901342047
20
67.2913345531
11
67.3231735644
21
67.0815049711
0
LINE
8
0
10
67.3231735644
20
67.0815049711
11
67.5074944319
21
66.8278090616
0
LINE
8
0
10
67.5074944319
20
66.8278090616
11
67.6350411007
21
66.5413345531
0
LINE
8
0
10
67.6350411007
20
66.5413345531
11
67.7002391693
21
66.2346017565
0
LINE
8
0
10
67.7002391693
20
66.2346017565
11
67.7002391693
21
65.9210163667
0
LINE
8
0
10
67.7002391693
20
65.9210163667
11
67.6350411007
21
65.61428357
0
LINE
8
0
10
67.6350411007
20
65.61428357
11
67.5074944319
21
65.3278090616
0
LINE
8
0
10
67.5074944319
20
65.3278090616
11
67.3231735644
21
65.074113152
0
LINE
8
0
10
67.3231735644
20
65.074113152
11
67.0901342047
21
64.86428357
0
LINE
8
0
10
67.0901342047
20
64.86428357
11
66.8185612908
21
64.7074908751
0
LINE
8
0
10
66.8185612908
20
64.7074908751
11
66.5203238625
21
64.6105876605
0
ENDSEC
0
EOF
