0
SECTION
2
HEADER
9
$ACADVER
1
AC1009
9
$INSBASE
10
0.0
20
0.0
30
0.0
9
$EXTMIN
10
0.0
20
0.0
9
$EXTMAX
10
0.0
20
0.0
0
ENDSEC
0
SECTION
2
TABLES
0
TABLE
2
LTYPE
70
1
0
LTYPE
2
CONTINUOUS
70
64
3
Solid line
72
65
73
0
40
0.0
0
ENDTAB
0
TABLE
2
LAYER
70
0
0
ENDTAB
0
TABLE
2
STYLE
70
1
0
STYLE
2
STANDARD
70
0
40
0
41
40
50
50
71
0
42
1
3
ARIAL.TTF
4

0
ENDTAB
0
TABLE
2
VIEW
70
0
0
ENDTAB
0
ENDSEC
0
SECTION
2
BLOCKS
0
ENDSEC
0
SECTION
2
ENTITIES
0
LINE
8
0
10
93.0007496238
20
37.6641551825
11
93.2730009694
21
38.6506357784
0
LINE
8
0
10
93.2730009694
20
38.6506357784
11
93.3647342119
21
39.6698755801
0
LINE
8
0
10
93.3647342119
20
39.6698755801
11
92.5880824441
21
40.1998759615
0
LINE
8
0
10
92.5880824441
20
40.1998759615
11
91.6865006005
21
40.7390709869
0
LINE
8
0
10
91.6865006005
20
40.7390709869
11
90.888309654
21
41.1537537057
0
LINE
8
0
10
90.888309654
20
41.1537537057
11
90.2046951133
21
41.4584699596
0
LINE
8
0
10
90.2046951133
20
41.4584699596
11
89.6454587485
21
41.6686286103
0
LINE
8
0
10
89.6454587485
20
41.6686286103
11
89.0619442358
21
41.8488931653
0
LINE
8
0
10
89.0619442358
20
41.8488931653
11
88.7544996219
21
42.003447266
0
LINE
8
0
10
88.7544996219
20
42.003447266
11
88.6161118518
21
42.1665694978
0
LINE
8
0
10
88.6161118518
20
42.1665694978
11
88.8202306505
21
44.4345150999
0
LINE
8
0
10
88.8202306505
20
44.4345150999
11
88.9855210714
21
44.5703057999
0
LINE
8
0
10
88.9855210714
20
44.5703057999
11
89.3156216242
21
44.6674797969
0
LINE
8
0
10
89.3156216242
20
44.6674797969
11
89.9219462977
21
44.7406568869
0
LINE
8
0
10
89.9219462977
20
44.7406568869
11
90.5097207801
21
44.8475826929
0
LINE
8
0
10
90.5097207801
20
44.8475826929
11
91.236758542
21
45.0253379417
0
LINE
8
0
10
91.236758542
20
45.0253379417
11
92.0961666902
21
45.2908340417
0
LINE
8
0
10
92.0961666902
20
45.2908340417
11
93.0795367321
21
45.6603803268
0
LINE
8
0
10
93.0795367321
20
45.6603803268
11
93.9383426089
21
46.043186856
0
LINE
8
0
10
93.9383426089
20
46.043186856
11
94.0300758514
21
47.0624266578
0
LINE
8
0
10
94.0300758514
20
47.0624266578
11
93.9383426089
21
48.0816664595
0
LINE
8
0
10
93.9383426089
20
48.0816664595
11
93.0795367321
21
48.4644729887
0
LINE
8
0
10
93.0795367321
20
48.4644729887
11
92.0961666902
21
48.8340192738
0
LINE
8
0
10
92.0961666902
20
48.8340192738
11
91.236758542
21
49.0995153739
0
LINE
8
0
10
91.236758542
20
49.0995153739
11
90.5097207801
21
49.2772706226
0
LINE
8
0
10
90.5097207801
20
49.2772706226
11
89.9219462977
21
49.3841964286
0
LINE
8
0
10
89.9219462977
20
49.3841964286
11
89.3156216242
21
49.4573735186
0
LINE
8
0
10
89.3156216242
20
49.4573735186
11
88.9855210714
21
49.5545475157
0
LINE
8
0
10
88.9855210714
20
49.5545475157
11
88.8202306505
21
49.6903382156
0
LINE
8
0
10
88.8202306505
20
49.6903382156
11
88.6161118518
21
51.9582838177
0
LINE
8
0
10
88.6161118518
20
51.9582838177
11
88.7544996219
21
52.1214060495
0
LINE
8
0
10
88.7544996219
20
52.1214060495
11
89.0619442358
21
52.2759601502
0
LINE
8
0
10
89.0619442358
20
52.2759601502
11
89.6454587485
21
52.4562247052
0
LINE
8
0
10
89.6454587485
20
52.4562247052
11
90.2046951133
21
52.6663833559
0
LINE
8
0
10
90.2046951133
20
52.6663833559
11
90.888309654
21
52.9710996098
0
LINE
8
0
10
90.888309654
20
52.9710996098
11
91.6865006005
21
53.3857823286
0
LINE
8
0
10
91.6865006005
20
53.3857823286
11
92.5880824441
21
53.924977354
0
LINE
8
0
10
92.5880824441
20
53.924977354
11
93.3647342119
21
54.4549777354
0
LINE
8
0
10
93.3647342119
20
54.4549777354
11
93.2730009694
21
55.4742175371
0
LINE
8
0
10
93.2730009694
20
55.4742175371
11
93.0007496238
21
56.460698133
0
LINE
8
0
10
93.0007496238
20
56.460698133
11
92.0873923656
21
56.6840070932
0
LINE
8
0
10
92.0873923656
20
56.6840070932
11
91.0538404477
21
56.8720271164
0
LINE
8
0
10
91.0538404477
20
56.8720271164
11
90.1608371828
21
56.9798033346
0
LINE
8
0
10
90.1608371828
20
56.9798033346
11
89.4137437916
21
57.0248843782
0
LINE
8
0
10
89.4137437916
20
57.0248843782
11
88.8163227471
21
57.025140656
0
LINE
8
0
10
88.8163227471
20
57.025140656
11
88.2066756865
21
56.9888783091
0
LINE
8
0
10
88.2066756865
20
56.9888783091
11
87.8645288982
21
57.0255489504
0
LINE
8
0
10
87.8645288982
20
57.0255489504
11
87.6776483966
21
57.1296436936
0
LINE
8
0
10
87.6776483966
20
57.1296436936
11
87.0718525467
21
59.3246956581
0
LINE
8
0
10
87.0718525467
20
59.3246956581
11
87.1788897693
21
59.509906539
0
LINE
8
0
10
87.1788897693
20
59.509906539
11
87.4537969215
21
59.7168732472
0
LINE
8
0
10
87.4537969215
20
59.7168732472
11
87.9957466367
21
59.9984314162
0
LINE
8
0
10
87.9957466367
20
59.9984314162
11
88.5084705669
21
60.3050682396
0
LINE
8
0
10
88.5084705669
20
60.3050682396
11
89.1266899526
21
60.7269516676
0
LINE
8
0
10
89.1266899526
20
60.7269516676
11
89.8380091836
21
61.2774927614
0
LINE
8
0
10
89.8380091836
20
61.2774927614
11
90.6288252467
21
61.9690063553
0
LINE
8
0
10
90.6288252467
20
61.9690063553
11
91.2983606788
21
62.6291659406
0
LINE
8
0
10
91.2983606788
20
62.6291659406
11
91.0261093332
21
63.6156465364
0
LINE
8
0
10
91.0261093332
20
63.6156465364
11
90.5820902667
21
64.5376616284
0
LINE
8
0
10
90.5820902667
20
64.5376616284
11
89.6435376809
21
64.5942956859
0
LINE
8
0
10
89.6435376809
20
64.5942956859
11
88.593023096
21
64.5947463288
0
LINE
8
0
10
88.593023096
20
64.5947463288
11
87.6951265741
21
64.5413386488
0
LINE
8
0
10
87.6951265741
20
64.5413386488
11
86.9519897499
21
64.4522965455
0
LINE
8
0
10
86.9519897499
20
64.4522965455
11
86.3641237472
21
64.3458750582
0
LINE
8
0
10
86.3641237472
20
64.3458750582
11
85.7707488577
21
64.2013387761
0
LINE
8
0
10
85.7707488577
20
64.2013387761
11
85.4275527132
21
64.176327437
0
LINE
8
0
10
85.4275527132
20
64.176327437
11
85.2250886241
21
64.2453805328
0
LINE
8
0
10
85.2250886241
20
64.2453805328
11
84.2370865
21
66.2969880833
0
LINE
8
0
10
84.2370865
20
66.2969880833
11
84.3093329106
21
66.4983347832
0
LINE
8
0
10
84.3093329106
20
66.4983347832
11
84.542866859
21
66.7510620188
0
LINE
8
0
10
84.542866859
20
66.7510620188
11
85.025833067
21
67.1248642904
0
LINE
8
0
10
85.025833067
20
67.1248642904
11
85.4755651937
21
67.5181237268
0
LINE
8
0
10
85.4755651937
20
67.5181237268
11
86.0085193446
21
68.0436146484
0
LINE
8
0
10
86.0085193446
20
68.0436146484
11
86.6101044748
21
68.7123192734
0
LINE
8
0
10
86.6101044748
20
68.7123192734
11
87.2647372783
21
69.53392562
0
LINE
8
0
10
87.2647372783
20
69.53392562
11
87.805636955
21
70.3030263368
0
LINE
8
0
10
87.805636955
20
70.3030263368
11
87.3616178885
21
71.2250414287
0
LINE
8
0
10
87.3616178885
20
71.2250414287
11
86.7601022394
21
72.0529566931
0
LINE
8
0
10
86.7601022394
20
72.0529566931
11
85.8265201783
21
71.9410955827
0
LINE
8
0
10
85.8265201783
20
71.9410955827
11
84.7928073295
21
71.7539623614
0
LINE
8
0
10
84.7928073295
20
71.7539623614
11
83.9188766836
21
71.54108735
0
LINE
8
0
10
83.9188766836
20
71.54108735
11
83.2035814554
21
71.3207839861
0
LINE
8
0
10
83.2035814554
20
71.3207839861
11
82.6441649915
21
71.111105208
0
LINE
8
0
10
82.6441649915
20
71.111105208
11
82.0861338303
21
70.8629405056
0
LINE
8
0
10
82.0861338303
20
70.8629405056
11
81.7529189361
21
70.7770510712
0
LINE
8
0
10
81.7529189361
20
70.7770510712
11
81.5413786218
21
70.8088430963
0
LINE
8
0
10
81.5413786218
20
70.8088430963
11
80.2029254248
21
72.6510658781
0
LINE
8
0
10
80.2029254248
20
72.6510658781
11
80.2380589643
21
72.8620769484
0
LINE
8
0
10
80.2380589643
20
72.8620769484
11
80.4227137357
21
73.15244185
0
LINE
8
0
10
80.4227137357
20
73.15244185
11
80.8311735051
21
73.6064739117
0
LINE
8
0
10
80.8311735051
20
73.6064739117
11
81.2034590677
21
74.0737162792
0
LINE
8
0
10
81.2034590677
20
74.0737162792
11
81.634018399
21
74.6859249838
0
LINE
8
0
10
81.634018399
20
74.6859249838
11
82.1065339873
21
75.4513004231
0
LINE
8
0
10
82.1065339873
20
75.4513004231
11
82.6039430943
21
76.3765924183
0
LINE
8
0
10
82.6039430943
20
76.3765924183
11
82.9988220549
21
77.2299147369
0
LINE
8
0
10
82.9988220549
20
77.2299147369
11
82.3973064057
21
78.0578300013
0
LINE
8
0
10
82.3973064057
20
78.0578300013
11
81.6576273818
21
78.7650355603
0
LINE
8
0
10
81.6576273818
20
78.7650355603
11
80.759021941
21
78.48827459
0
LINE
8
0
10
80.759021941
20
78.48827459
11
79.7753352099
21
78.1195721202
0
LINE
8
0
10
79.7753352099
20
78.1195721202
11
78.95345929
21
77.7540717554
0
LINE
8
0
10
78.95345929
20
77.7540717554
11
78.2889958349
21
77.4095878624
0
LINE
8
0
10
78.2889958349
20
77.4095878624
11
77.7760090153
21
77.1033910418
0
LINE
8
0
10
77.7760090153
20
77.1033910418
11
77.2712571631
21
76.759574137
0
LINE
8
0
10
77.2712571631
20
76.759574137
11
76.95873332
21
76.6155671643
0
LINE
8
0
10
76.95873332
20
76.6155671643
11
76.7449158604
21
76.6090762968
0
LINE
8
0
10
76.7449158604
20
76.6090762968
11
75.0990305774
21
78.1827037539
0
LINE
8
0
10
75.0990305774
20
78.1827037539
11
75.095922025
21
78.3965971253
0
LINE
8
0
10
75.095922025
20
78.3965971253
11
75.2257626631
21
78.715267126
0
LINE
8
0
10
75.2257626631
20
78.715267126
11
75.5465877609
21
79.2349360138
0
LINE
8
0
10
75.5465877609
20
79.2349360138
11
75.8294611951
21
79.7611437583
0
LINE
8
0
10
75.8294611951
20
79.7611437583
11
76.1437871755
21
80.4403933543
0
LINE
8
0
10
76.1437871755
20
80.4403933543
11
76.4720461821
21
81.2778398116
0
LINE
8
0
10
76.4720461821
20
81.2778398116
11
76.7962444547
21
82.2770778094
0
LINE
8
0
10
76.7962444547
20
82.2770778094
11
77.0324109644
21
83.1871952483
0
LINE
8
0
10
77.0324109644
20
83.1871952483
11
76.2927319404
21
83.8944008073
0
LINE
8
0
10
76.2927319404
20
83.8944008073
11
75.4386634341
21
84.4581664923
0
LINE
8
0
10
75.4386634341
20
84.4581664923
11
74.6039165319
21
84.0254009875
0
LINE
8
0
10
74.6039165319
20
84.0254009875
11
73.7018724194
21
83.48697967
0
LINE
8
0
10
73.7018724194
20
83.48697967
11
72.9584669938
21
82.9806014342
0
LINE
8
0
10
72.9584669938
20
82.9806014342
11
72.3661917141
21
82.5230090079
0
LINE
8
0
10
72.3661917141
20
82.5230090079
11
71.9161223572
21
82.1301355625
0
LINE
8
0
10
71.9161223572
20
82.1301355625
11
71.4808729538
21
81.7017170135
0
LINE
8
0
10
71.4808729538
20
81.7017170135
11
71.1990849353
21
81.5042210051
0
LINE
8
0
10
71.1990849353
20
81.5042210051
11
70.9898625993
21
81.4596558668
0
LINE
8
0
10
70.9898625993
20
81.4596558668
11
69.0894453377
21
82.714110318
0
LINE
8
0
10
69.0894453377
20
82.714110318
11
69.0481946048
21
82.9240112814
0
LINE
8
0
10
69.0481946048
20
82.9240112814
11
69.1190479246
21
83.2607440653
0
LINE
8
0
10
69.1190479246
20
83.2607440653
11
69.3419267682
21
83.8293471935
0
LINE
8
0
10
69.3419267682
20
83.8293471935
11
69.526296289
21
84.3976075651
0
LINE
8
0
10
69.526296289
20
84.3976075651
11
69.714286223
21
85.1220664117
0
LINE
8
0
10
69.714286223
20
85.1220664117
11
69.8877381333
21
86.0046676688
0
LINE
8
0
10
69.8877381333
20
86.0046676688
11
70.0283055722
21
87.0457353377
0
LINE
8
0
10
70.0283055722
20
87.0457353377
11
70.0981690452
21
87.9833959736
0
LINE
8
0
10
70.0981690452
20
87.9833959736
11
69.2441005389
21
88.5471616586
0
LINE
8
0
10
69.2441005389
20
88.5471616586
11
68.3030930147
21
88.9493675767
0
LINE
8
0
10
68.3030930147
20
88.9493675767
11
67.5590341033
21
88.3745069769
0
LINE
8
0
10
67.5590341033
20
88.3745069769
11
66.7676250493
21
87.6836721157
0
LINE
8
0
10
66.7676250493
20
87.6836721157
11
66.1265837802
21
87.0526914221
0
LINE
8
0
10
66.1265837802
20
87.0526914221
11
65.6255328906
21
86.4966978595
0
LINE
8
0
10
65.6255328906
20
86.4966978595
11
65.2528465958
21
86.0297750652
0
LINE
8
0
10
65.2528465958
20
86.0297750652
11
64.9010889152
21
85.5305245966
0
LINE
8
0
10
64.9010889152
20
85.5305245966
11
64.6590936201
21
85.2858872367
0
LINE
8
0
10
64.6590936201
20
85.2858872367
11
64.4611909859
21
85.204680188
0
LINE
8
0
10
64.4611909859
20
85.204680188
11
62.36732272
21
86.0996424349
0
LINE
8
0
10
62.36732272
20
86.0996424349
11
62.2892556391
21
86.2988046008
0
LINE
8
0
10
62.2892556391
20
86.2988046008
11
62.2988443566
21
86.6427772991
0
LINE
8
0
10
62.2988443566
20
86.6427772991
11
62.4166134365
21
87.2420392953
0
LINE
8
0
10
62.4166134365
20
87.2420392953
11
62.4965532559
21
87.834087938
0
LINE
8
0
10
62.4965532559
20
87.834087938
11
62.5521649923
21
88.5804713318
0
LINE
8
0
10
62.5521649923
20
88.5804713318
11
62.5652349192
21
89.4798598581
0
LINE
8
0
10
62.5652349192
20
89.4798598581
11
62.5176535713
21
90.5292964267
0
LINE
8
0
10
62.5176535713
20
90.5292964267
11
62.418968538
21
91.4643630752
0
LINE
8
0
10
62.418968538
20
91.4643630752
11
61.4779610138
21
91.8665689933
0
LINE
8
0
10
61.4779610138
20
91.8665689933
11
60.4802592279
21
92.0942879153
0
LINE
8
0
10
60.4802592279
20
92.0942879153
11
59.850802973
21
91.395808713
0
LINE
8
0
10
59.850802973
20
91.395808713
11
59.1954655157
21
90.5747643091
0
LINE
8
0
10
59.1954655157
20
90.5747643091
11
58.6773919968
21
89.8394613964
0
LINE
8
0
10
58.6773919968
20
89.8394613964
11
58.2836696852
21
89.2029367881
0
LINE
8
0
10
58.2836696852
20
89.2029367881
11
58.0003448968
21
88.6769719277
0
LINE
8
0
10
58.0003448968
20
88.6769719277
11
57.7433847203
21
88.1229358603
0
LINE
8
0
10
57.7433847203
20
88.1229358603
11
57.5489600765
21
87.839019995
0
LINE
8
0
10
57.5489600765
20
87.839019995
11
57.3687378974
21
87.7237810971
0
LINE
8
0
10
57.3687378974
20
87.7237810971
11
55.1487172762
21
88.2304863169
0
LINE
8
0
10
55.1487172762
20
88.2304863169
11
55.0363429875
21
88.4125084492
0
LINE
8
0
10
55.0363429875
20
88.4125084492
11
54.9843589135
21
88.7526654964
0
LINE
8
0
10
54.9843589135
20
88.7526654964
11
54.9932330346
21
89.363325587
0
LINE
8
0
10
54.9932330346
20
89.363325587
11
54.966173821
21
89.9601335704
0
LINE
8
0
10
54.966173821
20
89.9601335704
11
54.8876199528
21
90.7044521349
0
LINE
8
0
10
54.8876199528
20
90.7044521349
11
54.7398878181
21
91.5917208432
0
LINE
8
0
10
54.7398878181
20
91.5917208432
11
54.5056869871
21
92.6157965567
0
LINE
8
0
10
54.5056869871
20
92.6157965567
11
54.2416252657
21
93.5182154063
0
LINE
8
0
10
54.2416252657
20
93.5182154063
11
53.2439234798
21
93.7459343283
0
LINE
8
0
10
53.2439234798
20
93.7459343283
11
52.2215943883
21
93.7918471808
0
LINE
8
0
10
52.2215943883
20
93.7918471808
11
51.7269720319
21
92.9921990723
0
LINE
8
0
10
51.7269720319
20
92.9921990723
11
51.2287692564
21
92.0673341683
0
LINE
8
0
10
51.2287692564
20
92.0673341683
11
50.8503147969
21
91.2513422772
0
LINE
8
0
10
50.8503147969
20
91.2513422772
11
50.5765756224
21
90.5547450478
0
LINE
8
0
10
50.5765756224
20
90.5547450478
11
50.3917186321
21
89.9866430646
0
LINE
8
0
10
50.3917186321
20
89.9866430646
11
50.2378148711
21
89.3956285736
0
LINE
8
0
10
50.2378148711
20
89.3956285736
11
50.0972098466
21
89.0815594924
0
LINE
8
0
10
50.0972098466
20
89.0815594924
11
49.9404606119
21
88.9359926183
0
LINE
8
0
10
49.9404606119
20
88.9359926183
11
47.6656409247
21
89.0381548882
0
LINE
8
0
10
47.6656409247
20
89.0381548882
11
47.5225712304
21
89.197186646
0
LINE
8
0
10
47.5225712304
20
89.197186646
11
47.4106851757
21
89.5225951146
0
LINE
8
0
10
47.4106851757
20
89.5225951146
11
47.3103791165
21
90.1250261818
0
LINE
8
0
10
47.3103791165
20
90.1250261818
11
47.1771905753
21
90.7074116063
0
LINE
8
0
10
47.1771905753
20
90.7074116063
11
46.9669958884
21
91.4257423304
0
LINE
8
0
10
46.9669958884
20
91.4257423304
11
46.6632099245
21
92.2723736743
0
LINE
8
0
10
46.6632099245
20
92.2723736743
11
46.2499170178
21
93.2381738966
0
LINE
8
0
10
46.2499170178
20
93.2381738966
11
45.8289657693
21
94.0789404631
0
LINE
8
0
10
45.8289657693
20
94.0789404631
11
44.8066366779
21
94.1248533155
0
LINE
8
0
10
44.8066366779
20
94.1248533155
11
43.7925387792
21
93.9874844215
0
LINE
8
0
10
43.7925387792
20
93.9874844215
11
43.4486478907
21
93.1123687551
0
LINE
8
0
10
43.4486478907
20
93.1123687551
11
43.1235924442
21
92.11340927
0
LINE
8
0
10
43.1235924442
20
92.11340927
11
42.8969208818
21
91.2429550511
0
LINE
8
0
10
42.8969208818
20
91.2429550511
11
42.7519630466
21
90.5086744088
0
LINE
8
0
10
42.7519630466
20
90.5086744088
11
42.6715153103
21
89.9166945681
0
LINE
8
0
10
42.6715153103
20
89.9166945681
11
42.6256145583
21
89.3076973454
0
LINE
8
0
10
42.6256145583
20
89.3076973454
11
42.5433483143
21
88.9735694869
0
LINE
8
0
10
42.5433483143
20
88.9735694869
11
42.4151100733
21
88.8023532758
0
LINE
8
0
10
42.4151100733
20
88.8023532758
11
40.1586058967
21
88.4966890165
0
LINE
8
0
10
40.1586058967
20
88.4966890165
11
39.9894391743
21
88.6276189881
0
LINE
8
0
10
39.9894391743
20
88.6276189881
11
39.8212472489
21
88.9278199822
0
LINE
8
0
10
39.8212472489
20
88.9278199822
11
39.6149849287
21
89.5026593959
0
LINE
8
0
10
39.6149849287
20
89.5026593959
11
39.3799478492
21
90.0519039147
0
LINE
8
0
10
39.3799478492
20
90.0519039147
11
39.0448681738
21
90.721159058
0
LINE
8
0
10
39.0448681738
20
90.721159058
11
38.5947923115
21
91.4999416095
0
LINE
8
0
10
38.5947923115
20
91.4999416095
11
38.0156909031
21
92.3764247268
0
LINE
8
0
10
38.0156909031
20
92.3764247268
11
37.4513798471
21
93.1285160808
0
LINE
8
0
10
37.4513798471
20
93.1285160808
11
36.4372819484
21
92.9911471868
0
LINE
8
0
10
36.4372819484
20
92.9911471868
11
35.4640091833
21
92.6749116956
0
LINE
8
0
10
35.4640091833
20
92.6749116956
11
35.2819026988
21
91.7524554088
0
LINE
8
0
10
35.2819026988
20
91.7524554088
11
35.1404421307
21
90.7115087224
0
LINE
8
0
10
35.1404421307
20
90.7115087224
11
35.072838876
21
89.8145692907
0
LINE
8
0
10
35.072838876
20
89.8145692907
11
35.0613214442
21
89.0662056194
0
LINE
8
0
10
35.0613214442
20
89.0662056194
11
35.0878686182
21
88.4693746403
0
LINE
8
0
10
35.0878686182
20
88.4693746403
11
35.1514461633
21
87.8619683577
0
LINE
8
0
10
35.1514461633
20
87.8619683577
11
35.1301628045
21
87.5185208664
0
LINE
8
0
10
35.1301628045
20
87.5185208664
11
35.0345572398
21
87.3271583481
0
LINE
8
0
10
35.0345572398
20
87.3271583481
11
32.8688944747
21
86.6234918603
0
LINE
8
0
10
32.8688944747
20
86.6234918603
11
32.6790678819
21
86.7221118487
0
LINE
8
0
10
32.6790678819
20
86.7221118487
11
32.4599759126
21
86.9874566615
0
LINE
8
0
10
32.4599759126
20
86.9874566615
11
32.154386772
21
87.5162286099
0
LINE
8
0
10
32.154386772
20
87.5162286099
11
31.8250554393
21
88.0146790522
0
LINE
8
0
10
31.8250554393
20
88.0146790522
11
31.375860512
21
88.6133482036
0
LINE
8
0
10
31.375860512
20
88.6133482036
11
30.7939605599
21
89.2992512508
0
LINE
8
0
10
30.7939605599
20
89.2992512508
11
30.0676634456
21
90.0582463746
0
LINE
8
0
10
30.0676634456
20
90.0582463746
11
29.3781300035
21
90.6974896812
0
LINE
8
0
10
29.3781300035
20
90.6974896812
11
28.4048572384
21
90.3812541901
0
LINE
8
0
10
28.4048572384
20
90.3812541901
11
27.5036913944
21
89.8963161706
0
LINE
8
0
10
27.5036913944
20
89.8963161706
11
27.4892223662
21
88.9561677674
0
LINE
8
0
10
27.4892223662
20
88.9561677674
11
27.5359033356
21
87.9066907627
0
LINE
8
0
10
27.5359033356
20
87.9066907627
11
27.6295412128
21
87.0120944894
0
LINE
8
0
10
27.6295412128
20
87.0120944894
11
27.7518343642
21
86.2737008134
0
LINE
8
0
10
27.7518343642
20
86.2737008134
11
27.8845232006
21
85.6912013346
0
LINE
8
0
10
27.8845232006
20
85.6912013346
11
28.055535608
21
85.1049085299
0
LINE
8
0
10
28.055535608
20
85.1049085299
11
28.0959191991
21
84.7631800906
0
LINE
8
0
10
28.0959191991
20
84.7631800906
11
28.0360191522
21
84.5578218139
0
LINE
8
0
10
28.0360191522
20
84.5578218139
11
26.0308039817
21
83.4787695175
0
LINE
8
0
10
26.0308039817
20
83.4787695175
11
25.8264187015
21
83.5419097952
0
LINE
8
0
10
25.8264187015
20
83.5419097952
11
25.5634684845
21
83.763870026
0
LINE
8
0
10
25.5634684845
20
83.763870026
11
25.1683744099
21
84.2295793436
0
LINE
8
0
10
25.1683744099
20
84.2295793436
11
24.755333804
21
84.6612151021
0
LINE
8
0
10
24.755333804
20
84.6612151021
11
24.2064611193
21
85.1700565426
0
LINE
8
0
10
24.2064611193
20
85.1700565426
11
23.5114398206
21
85.7410345971
0
LINE
8
0
10
23.5114398206
20
85.7410345971
11
22.6612907872
21
86.3581469995
0
LINE
8
0
10
22.6612907872
20
86.3581469995
11
21.8686971314
21
86.863996453
0
LINE
8
0
10
21.8686971314
20
86.863996453
11
20.9675312874
21
86.3790584336
0
LINE
8
0
10
20.9675312874
20
86.3790584336
11
20.1674365761
21
85.7410041928
0
LINE
8
0
10
20.1674365761
20
85.7410041928
11
20.3210700507
21
84.8133808164
0
LINE
8
0
10
20.3210700507
20
84.8133808164
11
20.5543921928
21
83.7891045479
0
LINE
8
0
10
20.5543921928
20
83.7891045479
11
20.8062616035
21
82.9256044933
0
LINE
8
0
10
20.8062616035
20
82.9256044933
11
21.0584347356
21
82.2209133928
0
LINE
8
0
10
21.0584347356
20
82.2209133928
11
21.2930005059
21
81.6714674269
0
LINE
8
0
10
21.2930005059
20
81.6714674269
11
21.5659512962
21
81.1251320332
0
LINE
8
0
10
21.5659512962
20
81.1251320332
11
21.6667038754
21
80.7961060792
0
LINE
8
0
10
21.6667038754
20
80.7961060792
11
21.6444345831
21
80.5833524281
0
LINE
8
0
10
21.6444345831
20
80.5833524281
11
19.8641162727
21
79.1635959518
0
LINE
8
0
10
19.8641162727
20
79.1635959518
11
19.6517414162
21
79.1892271383
0
LINE
8
0
10
19.6517414162
20
79.1892271383
11
19.3533843877
21
79.3606688026
0
LINE
8
0
10
19.3533843877
20
79.3606688026
11
18.8814840278
21
79.7483472088
0
LINE
8
0
10
18.8814840278
20
79.7483472088
11
18.3980096137
21
80.099295155
0
LINE
8
0
10
18.3980096137
20
80.099295155
11
17.7671003912
21
80.501954302
0
LINE
8
0
10
17.7671003912
20
80.501954302
11
16.9812963023
21
80.9396556593
0
LINE
8
0
10
16.9812963023
20
80.9396556593
11
16.0346198394
21
81.3950508401
0
LINE
8
0
10
16.0346198394
20
81.3950508401
11
15.164440582
21
81.7512480227
0
LINE
8
0
10
15.164440582
20
81.7512480227
11
14.3643458708
21
81.1131937819
0
LINE
8
0
10
14.3643458708
20
81.1131937819
11
13.6910379946
21
80.3425309081
0
LINE
8
0
10
13.6910379946
20
80.3425309081
11
14.0078360657
21
79.4572471372
0
LINE
8
0
10
14.0078360657
20
79.4572471372
11
14.4203002149
21
78.4910926869
0
LINE
8
0
10
14.4203002149
20
78.4910926869
11
14.8223058689
21
77.6864424533
0
LINE
8
0
10
14.8223058689
20
77.6864424533
11
15.1962539297
21
77.0381032801
0
LINE
8
0
10
15.1962539297
20
77.0381032801
11
15.5251574972
21
76.5393704725
0
LINE
8
0
10
15.5251574972
20
76.5393704725
11
15.8912738074
21
76.0505521589
0
LINE
8
0
10
15.8912738074
20
76.0505521589
11
16.0491571039
21
75.744803855
0
LINE
8
0
10
16.0491571039
20
75.744803855
11
16.0652343196
21
75.5314929069
0
LINE
8
0
10
16.0652343196
20
75.5314929069
11
14.5670337646
21
73.816664392
0
LINE
8
0
10
14.5670337646
20
73.816664392
11
14.3534952343
21
73.8039626799
0
LINE
8
0
10
14.3534952343
20
73.8039626799
11
14.0293208348
21
73.9193755015
0
LINE
8
0
10
14.0293208348
20
73.9193755015
11
13.4957814555
21
74.2165626934
0
LINE
8
0
10
13.4957814555
20
74.2165626934
11
12.9574124986
21
74.4755430716
0
LINE
8
0
10
12.9574124986
20
74.4755430716
11
12.2647446799
21
74.7590781288
0
LINE
8
0
10
12.2647446799
20
74.7590781288
11
11.4134141908
21
75.0494347072
0
LINE
8
0
10
11.4134141908
20
75.0494347072
11
10.4006372587
21
75.3284758905
0
LINE
8
0
10
10.4006372587
20
75.3284758905
11
9.4808406771
21
75.5235723317
0
LINE
8
0
10
9.4808406771
20
75.5235723317
11
8.80753280098
21
74.7529094579
0
LINE
8
0
10
8.80753280098
20
74.7529094579
11
8.28265242911
21
73.8744076899
0
LINE
8
0
10
8.28265242911
20
73.8744076899
11
8.75243294596
21
73.0599172732
0
LINE
8
0
10
8.75243294596
20
73.0599172732
11
9.33078216516
21
72.1829376402
0
LINE
8
0
10
9.33078216516
20
72.1829376402
11
9.87000327003
21
71.4629993481
0
LINE
8
0
10
9.87000327003
20
71.4629993481
11
10.3537072612
21
70.8918502567
0
LINE
8
0
10
10.3537072612
20
70.8918502567
11
10.7663773945
21
70.4598602901
0
LINE
8
0
10
10.7663773945
20
70.4598602901
11
11.2138919452
21
70.0442700795
0
LINE
8
0
10
11.2138919452
20
70.0442700795
11
11.4238314599
21
69.7716264277
0
LINE
8
0
10
11.4238314599
20
69.7716264277
11
11.4777384486
21
69.5646141721
0
LINE
8
0
10
11.4777384486
20
69.5646141721
11
10.3098090477
21
67.609829618
0
LINE
8
0
10
10.3098090477
20
67.609829618
11
10.1019701477
21
67.5592032507
0
LINE
8
0
10
10.1019701477
20
67.5592032507
11
9.7623976091
21
67.6148777667
0
LINE
8
0
10
9.7623976091
20
67.6148777667
11
9.18436760493
21
67.8120219033
0
LINE
8
0
10
9.18436760493
20
67.8120219033
11
8.60840772646
21
67.9707108711
0
LINE
8
0
10
8.60840772646
20
67.9707108711
11
7.87624422523
21
68.1260087885
0
LINE
8
0
10
7.87624422523
20
68.1260087885
11
6.98674979827
21
68.2596882886
0
LINE
8
0
10
6.98674979827
20
68.2596882886
11
5.94042388093
21
68.3534068611
0
LINE
8
0
10
5.94042388093
20
68.3534068611
11
5.0005729941
21
68.3811320009
0
LINE
8
0
10
5.0005729941
20
68.3811320009
11
4.47569262223
21
67.5026302329
0
LINE
8
0
10
4.47569262223
20
67.5026302329
11
4.11610984165
21
66.5445253403
0
LINE
8
0
10
4.11610984165
20
66.5445253403
11
4.72377367197
21
65.8270066701
0
LINE
8
0
10
4.72377367197
20
65.8270066701
11
5.44941934136
21
65.0673887012
0
LINE
8
0
10
5.44941934136
20
65.0673887012
11
6.10852488712
21
64.4553017597
0
LINE
8
0
10
6.10852488712
20
64.4553017597
11
6.68643816439
21
63.9796999519
0
LINE
8
0
10
6.68643816439
20
63.9796999519
11
7.16961130587
21
63.6283373394
0
LINE
8
0
10
7.16961130587
20
63.6283373394
11
7.68414061117
21
63.299332643
0
LINE
8
0
10
7.68414061117
20
63.299332643
11
7.93938871533
21
63.0685566347
0
LINE
8
0
10
7.93938871533
20
63.0685566347
11
8.02939286212
21
62.8744966156
0
LINE
8
0
10
8.02939286212
20
62.8744966156
11
7.22927282711
21
60.7425844064
0
LINE
8
0
10
7.22927282711
20
60.7425844064
11
7.03381367066
21
60.6556605571
0
LINE
8
0
10
7.03381367066
20
60.6556605571
11
6.6897571338
21
60.6498073426
0
LINE
8
0
10
6.6897571338
20
60.6498073426
11
6.08581486476
21
60.7405720492
0
LINE
8
0
10
6.08581486476
20
60.7405720492
11
5.49077588915
21
60.7938692126
0
LINE
8
0
10
5.49077588915
20
60.7938692126
11
4.74264904271
21
60.8159385872
0
LINE
8
0
10
4.74264904271
20
60.8159385872
11
3.84357976069
21
60.78864444
0
LINE
8
0
10
3.84357976069
20
60.78864444
11
2.797334634
21
60.6940282097
0
LINE
8
0
10
2.797334634
20
60.6940282097
11
1.86763702272
21
60.5534909392
0
LINE
8
0
10
1.86763702272
20
60.5534909392
11
1.50805424214
21
59.5953860466
0
LINE
8
0
10
1.50805424214
20
59.5953860466
11
1.32532633927
21
58.5884723092
0
LINE
8
0
10
1.32532633927
20
58.5884723092
11
2.05134266756
21
57.9909870258
0
LINE
8
0
10
2.05134266756
20
57.9909870258
11
2.90096193827
21
57.3731454676
0
LINE
8
0
10
2.90096193827
20
57.3731454676
11
3.65876773036
21
56.8885828547
0
LINE
8
0
10
3.65876773036
20
56.8885828547
11
4.31231568548
21
56.5238145638
0
LINE
8
0
10
4.31231568548
20
56.5238145638
11
4.85046225284
21
56.2643723889
0
LINE
8
0
10
4.85046225284
20
56.2643723889
11
5.4154689175
21
56.0325276883
0
LINE
8
0
10
5.4154689175
20
56.0325276883
11
5.70782172704
21
55.8510366543
0
LINE
8
0
10
5.70782172704
20
55.8510366543
11
5.83103022457
21
55.6761661206
0
LINE
8
0
10
5.83103022457
20
55.6761661206
11
5.42443607176
21
53.4356476687
0
LINE
8
0
10
5.42443607176
20
53.4356476687
11
5.24763887699
21
53.3152201413
0
LINE
8
0
10
5.24763887699
20
53.3152201413
11
4.91015660202
21
53.2480273236
0
LINE
8
0
10
4.91015660202
20
53.2480273236
11
4.29971326955
21
53.2294953478
0
LINE
8
0
10
4.29971326955
20
53.2294953478
11
3.70472023907
21
53.1756876921
0
LINE
8
0
10
3.70472023907
20
53.1756876921
11
2.96467545982
21
53.0638191962
0
LINE
8
0
10
2.96467545982
20
53.0638191962
11
2.08492814923
21
52.8764286579
0
LINE
8
0
10
2.08492814923
20
52.8764286579
11
1.07239099242
21
52.5965186684
0
LINE
8
0
10
1.07239099242
20
52.5965186684
11
0.182727902864
21
52.292235971
0
LINE
8
0
10
0.182727902864
20
52.292235971
11
0.0
21
51.2853222335
0
LINE
8
0
10
0.0
20
51.2853222335
11
5.68434188608e-14
21
50.2619626871
0
LINE
8
0
10
5.68434188608e-14
20
50.2619626871
11
0.821034064106
21
49.8037144592
0
LINE
8
0
10
0.821034064106
20
49.8037144592
11
1.7673194737
21
49.3475072478
0
LINE
8
0
10
1.7673194737
20
49.3475072478
11
2.59946901045
21
49.0060432045
0
LINE
8
0
10
2.59946901045
20
49.0060432045
11
3.30764607439
21
48.7638323836
0
LINE
8
0
10
3.30764607439
20
48.7638323836
11
3.88346959417
21
48.6046493311
0
LINE
8
0
10
3.88346959417
20
48.6046493311
11
4.48079383909
21
48.4774163059
0
LINE
8
0
10
4.48079383909
20
48.4774163059
11
4.80085489418
21
48.3510435173
0
LINE
8
0
10
4.80085489418
20
48.3510435173
11
4.95330771995
21
48.2009829517
0
LINE
8
0
10
4.95330771995
20
48.2009829517
11
4.95330771995
21
45.9238703638
0
LINE
8
0
10
4.95330771995
20
45.9238703638
11
4.80085489418
21
45.7738097982
0
LINE
8
0
10
4.80085489418
20
45.7738097982
11
4.48079383909
21
45.6474370096
0
LINE
8
0
10
4.48079383909
20
45.6474370096
11
3.88346959417
21
45.5202039844
0
LINE
8
0
10
3.88346959417
20
45.5202039844
11
3.30764607439
21
45.3610209319
0
LINE
8
0
10
3.30764607439
20
45.3610209319
11
2.59946901045
21
45.118810111
0
LINE
8
0
10
2.59946901045
20
45.118810111
11
1.7673194737
21
44.7773460677
0
LINE
8
0
10
1.7673194737
20
44.7773460677
11
0.821034064107
21
44.3211388563
0
LINE
8
0
10
0.821034064107
20
44.3211388563
11
9.94759830064e-14
21
43.8628906284
0
LINE
8
0
10
9.94759830064e-14
20
43.8628906284
11
1.06581410364e-13
21
42.839531082
0
LINE
8
0
10
1.06581410364e-13
20
42.839531082
11
0.182727902864
21
41.8326173445
0
LINE
8
0
10
0.182727902864
20
41.8326173445
11
1.07239099242
21
41.5283346471
0
LINE
8
0
10
1.07239099242
20
41.5283346471
11
2.08492814923
21
41.2484246576
0
LINE
8
0
10
2.08492814923
20
41.2484246576
11
2.96467545982
21
41.0610341193
0
LINE
8
0
10
2.96467545982
20
41.0610341193
11
3.70472023907
21
40.9491656235
0
LINE
8
0
10
3.70472023907
20
40.9491656235
11
4.29971326955
21
40.8953579678
0
LINE
8
0
10
4.29971326955
20
40.8953579678
11
4.91015660202
21
40.8768259919
0
LINE
8
0
10
4.91015660202
20
40.8768259919
11
5.24763887699
21
40.8096331742
0
LINE
8
0
10
5.24763887699
20
40.8096331742
11
5.42443607176
21
40.6892056468
0
LINE
8
0
10
5.42443607176
20
40.6892056468
11
5.83103022457
21
38.4486871949
0
LINE
8
0
10
5.83103022457
20
38.4486871949
11
5.70782172704
21
38.2738166612
0
LINE
8
0
10
5.70782172704
20
38.2738166612
11
5.4154689175
21
38.0923256272
0
LINE
8
0
10
5.4154689175
20
38.0923256272
11
4.85046225284
21
37.8604809267
0
LINE
8
0
10
4.85046225284
20
37.8604809267
11
4.31231568548
21
37.6010387517
0
LINE
8
0
10
4.31231568548
20
37.6010387517
11
3.65876773036
21
37.2362704608
0
LINE
8
0
10
3.65876773036
20
37.2362704608
11
2.90096193827
21
36.7517078479
0
LINE
8
0
10
2.90096193827
20
36.7517078479
11
2.05134266756
21
36.1338662897
0
LINE
8
0
10
2.05134266756
20
36.1338662897
11
1.32532633927
21
35.5363810063
0
LINE
8
0
10
1.32532633927
20
35.5363810063
11
1.50805424214
21
34.5294672689
0
LINE
8
0
10
1.50805424214
20
34.5294672689
11
1.86763702272
21
33.5713623763
0
LINE
8
0
10
1.86763702272
20
33.5713623763
11
2.797334634
21
33.4308251058
0
LINE
8
0
10
2.797334634
20
33.4308251058
11
3.84357976069
21
33.3362088755
0
LINE
8
0
10
3.84357976069
20
33.3362088755
11
4.74264904271
21
33.3089147283
0
LINE
8
0
10
4.74264904271
20
33.3089147283
11
5.49077588915
21
33.3309841029
0
LINE
8
0
10
5.49077588915
20
33.3309841029
11
6.08581486476
21
33.3842812664
0
LINE
8
0
10
6.08581486476
20
33.3842812664
11
6.6897571338
21
33.4750459729
0
LINE
8
0
10
6.6897571338
20
33.4750459729
11
7.03381367066
21
33.4691927585
0
LINE
8
0
10
7.03381367066
20
33.4691927585
11
7.22927282711
21
33.3822689091
0
LINE
8
0
10
7.22927282711
20
33.3822689091
11
8.02939286212
21
31.2503566999
0
LINE
8
0
10
8.02939286212
20
31.2503566999
11
7.93938871533
21
31.0562966808
0
LINE
8
0
10
7.93938871533
20
31.0562966808
11
7.68414061117
21
30.8255206726
0
LINE
8
0
10
7.68414061117
20
30.8255206726
11
7.16961130587
21
30.4965159761
0
LINE
8
0
10
7.16961130587
20
30.4965159761
11
6.68643816439
21
30.1451533636
0
LINE
8
0
10
6.68643816439
20
30.1451533636
11
6.10852488712
21
29.6695515558
0
LINE
8
0
10
6.10852488712
20
29.6695515558
11
5.44941934136
21
29.0574646143
0
LINE
8
0
10
5.44941934136
20
29.0574646143
11
4.72377367197
21
28.2978466454
0
LINE
8
0
10
4.72377367197
20
28.2978466454
11
4.11610984165
21
27.5803279752
0
LINE
8
0
10
4.11610984165
20
27.5803279752
11
4.47569262223
21
26.6222230827
0
LINE
8
0
10
4.47569262223
20
26.6222230827
11
5.0005729941
21
25.7437213147
0
LINE
8
0
10
5.0005729941
20
25.7437213147
11
5.94042388093
21
25.7714464544
0
LINE
8
0
10
5.94042388093
20
25.7714464544
11
6.98674979827
21
25.8651650269
0
LINE
8
0
10
6.98674979827
20
25.8651650269
11
7.87624422523
21
25.998844527
0
LINE
8
0
10
7.87624422523
20
25.998844527
11
8.60840772646
21
26.1541424444
0
LINE
8
0
10
8.60840772646
20
26.1541424444
11
9.18436760493
21
26.3128314122
0
LINE
8
0
10
9.18436760493
20
26.3128314122
11
9.7623976091
21
26.5099755488
0
LINE
8
0
10
9.7623976091
20
26.5099755488
11
10.1019701477
21
26.5656500648
0
LINE
8
0
10
10.1019701477
20
26.5656500648
11
10.3098090477
21
26.5150236975
0
LINE
8
0
10
10.3098090477
20
26.5150236975
11
11.4777384486
21
24.5602391434
0
LINE
8
0
10
11.4777384486
20
24.5602391434
11
11.4238314599
21
24.3532268878
0
LINE
8
0
10
11.4238314599
20
24.3532268878
11
11.2138919452
21
24.080583236
0
LINE
8
0
10
11.2138919452
20
24.080583236
11
10.7663773945
21
23.6649930254
0
LINE
8
0
10
10.7663773945
20
23.6649930254
11
10.3537072612
21
23.2330030588
0
LINE
8
0
10
10.3537072612
20
23.2330030588
11
9.87000327003
21
22.6618539674
0
LINE
8
0
10
9.87000327003
20
22.6618539674
11
9.33078216516
21
21.9419156753
0
LINE
8
0
10
9.33078216516
20
21.9419156753
11
8.75243294596
21
21.0649360423
0
LINE
8
0
10
8.75243294596
20
21.0649360423
11
8.28265242911
21
20.2504456256
0
LINE
8
0
10
8.28265242911
20
20.2504456256
11
8.80753280098
21
19.3719438576
0
LINE
8
0
10
8.80753280098
20
19.3719438576
11
9.4808406771
21
18.6012809838
0
LINE
8
0
10
9.4808406771
20
18.6012809838
11
10.4006372587
21
18.796377425
0
LINE
8
0
10
10.4006372587
20
18.796377425
11
11.4134141908
21
19.0754186083
0
LINE
8
0
10
11.4134141908
20
19.0754186083
11
12.2647446799
21
19.3657751867
0
LINE
8
0
10
12.2647446799
20
19.3657751867
11
12.9574124986
21
19.6493102439
0
LINE
8
0
10
12.9574124986
20
19.6493102439
11
13.4957814555
21
19.9082906222
0
LINE
8
0
10
13.4957814555
20
19.9082906222
11
14.0293208348
21
20.205477814
0
LINE
8
0
10
14.0293208348
20
20.205477814
11
14.3534952343
21
20.3208906356
0
LINE
8
0
10
14.3534952343
20
20.3208906356
11
14.5670337646
21
20.3081889235
0
LINE
8
0
10
14.5670337646
20
20.3081889235
11
16.0652343196
21
18.5933604086
0
LINE
8
0
10
16.0652343196
20
18.5933604086
11
16.0491571039
21
18.3800494605
0
LINE
8
0
10
16.0491571039
20
18.3800494605
11
15.8912738074
21
18.0743011566
0
LINE
8
0
10
15.8912738074
20
18.0743011566
11
15.5251574972
21
17.5854828431
0
LINE
8
0
10
15.5251574972
20
17.5854828431
11
15.1962539297
21
17.0867500354
0
LINE
8
0
10
15.1962539297
20
17.0867500354
11
14.8223058689
21
16.4384108622
0
LINE
8
0
10
14.8223058689
20
16.4384108622
11
14.4203002149
21
15.6337606286
0
LINE
8
0
10
14.4203002149
20
15.6337606286
11
14.0078360657
21
14.6676061783
0
LINE
8
0
10
14.0078360657
20
14.6676061783
11
13.6910379946
21
13.7823224074
0
LINE
8
0
10
13.6910379946
20
13.7823224074
11
14.3643458708
21
13.0116595336
0
LINE
8
0
10
14.3643458708
20
13.0116595336
11
15.164440582
21
12.3736052928
0
LINE
8
0
10
15.164440582
20
12.3736052928
11
16.0346198394
21
12.7298024754
0
LINE
8
0
10
16.0346198394
20
12.7298024754
11
16.9812963023
21
13.1851976562
0
LINE
8
0
10
16.9812963023
20
13.1851976562
11
17.7671003912
21
13.6228990135
0
LINE
8
0
10
17.7671003912
20
13.6228990135
11
18.3980096137
21
14.0255581605
0
LINE
8
0
10
18.3980096137
20
14.0255581605
11
18.8814840278
21
14.3765061067
0
LINE
8
0
10
18.8814840278
20
14.3765061067
11
19.3533843877
21
14.7641845129
0
LINE
8
0
10
19.3533843877
20
14.7641845129
11
19.6517414162
21
14.9356261772
0
LINE
8
0
10
19.6517414162
20
14.9356261772
11
19.8641162727
21
14.9612573637
0
LINE
8
0
10
19.8641162727
20
14.9612573637
11
21.6444345831
21
13.5415008874
0
LINE
8
0
10
21.6444345831
20
13.5415008874
11
21.6667038754
21
13.3287472364
0
LINE
8
0
10
21.6667038754
20
13.3287472364
11
21.5659512962
21
12.9997212823
0
LINE
8
0
10
21.5659512962
20
12.9997212823
11
21.2930005059
21
12.4533858886
0
LINE
8
0
10
21.2930005059
20
12.4533858886
11
21.0584347356
21
11.9039399227
0
LINE
8
0
10
21.0584347356
20
11.9039399227
11
20.8062616035
21
11.1992488222
0
LINE
8
0
10
20.8062616035
20
11.1992488222
11
20.5543921928
21
10.3357487676
0
LINE
8
0
10
20.5543921928
20
10.3357487676
11
20.3210700507
21
9.31147249911
0
LINE
8
0
10
20.3210700507
20
9.31147249911
11
20.1674365761
21
8.38384912276
0
LINE
8
0
10
20.1674365761
20
8.38384912276
11
20.9675312874
21
7.74579488195
0
LINE
8
0
10
20.9675312874
20
7.74579488195
11
21.8686971314
21
7.26085686248
0
LINE
8
0
10
21.8686971314
20
7.26085686248
11
22.6612907872
21
7.76670631597
0
LINE
8
0
10
22.6612907872
20
7.76670631597
11
23.5114398206
21
8.38381871845
0
LINE
8
0
10
23.5114398206
20
8.38381871845
11
24.2064611193
21
8.95479677289
0
LINE
8
0
10
24.2064611193
20
8.95479677289
11
24.755333804
21
9.46363821342
0
LINE
8
0
10
24.755333804
20
9.46363821342
11
25.1683744099
21
9.8952739719
0
LINE
8
0
10
25.1683744099
20
9.8952739719
11
25.5634684845
21
10.3609832895
0
LINE
8
0
10
25.5634684845
20
10.3609832895
11
25.8264187015
21
10.5829435203
0
LINE
8
0
10
25.8264187015
20
10.5829435203
11
26.0308039817
21
10.646083798
0
LINE
8
0
10
26.0308039817
20
10.646083798
11
28.0360191522
21
9.56703150162
0
LINE
8
0
10
28.0360191522
20
9.56703150162
11
28.0959191991
21
9.36167322493
0
LINE
8
0
10
28.0959191991
20
9.36167322493
11
28.055535608
21
9.01994478561
0
LINE
8
0
10
28.055535608
20
9.01994478561
11
27.8845232006
21
8.43365198096
0
LINE
8
0
10
27.8845232006
20
8.43365198096
11
27.7518343642
21
7.85115250214
0
LINE
8
0
10
27.7518343642
20
7.85115250214
11
27.6295412128
21
7.11275882612
0
LINE
8
0
10
27.6295412128
20
7.11275882612
11
27.5359033356
21
6.21816255277
0
LINE
8
0
10
27.5359033356
20
6.21816255277
11
27.4892223662
21
5.16868554814
0
LINE
8
0
10
27.4892223662
20
5.16868554814
11
27.5036913944
21
4.22853714492
0
LINE
8
0
10
27.5036913944
20
4.22853714492
11
28.4048572384
21
3.74359912545
0
LINE
8
0
10
28.4048572384
20
3.74359912545
11
29.3781300035
21
3.42736363426
0
LINE
8
0
10
29.3781300035
20
3.42736363426
11
30.0676634456
21
4.06660694095
0
LINE
8
0
10
30.0676634456
20
4.06660694095
11
30.7939605598
21
4.82560206474
0
LINE
8
0
10
30.7939605598
20
4.82560206474
11
31.375860512
21
5.51150511186
0
LINE
8
0
10
31.375860512
20
5.51150511186
11
31.8250554393
21
6.11017426334
0
LINE
8
0
10
31.8250554393
20
6.11017426334
11
32.154386772
21
6.60862470562
0
LINE
8
0
10
32.154386772
20
6.60862470562
11
32.4599759126
21
7.13739665404
0
LINE
8
0
10
32.4599759126
20
7.13739665404
11
32.6790678819
21
7.4027414668
0
LINE
8
0
10
32.6790678819
20
7.4027414668
11
32.8688944747
21
7.50136145524
0
LINE
8
0
10
32.8688944747
20
7.50136145524
11
35.0345572398
21
6.79769496745
0
LINE
8
0
10
35.0345572398
20
6.79769496745
11
35.1301628045
21
6.60633244912
0
LINE
8
0
10
35.1301628045
20
6.60633244912
11
35.1514461633
21
6.26288495778
0
LINE
8
0
10
35.1514461633
20
6.26288495778
11
35.0878686182
21
5.65547867525
0
LINE
8
0
10
35.0878686182
20
5.65547867525
11
35.0613214442
21
5.0586476961
0
LINE
8
0
10
35.0613214442
20
5.0586476961
11
35.072838876
21
4.31028402486
0
LINE
8
0
10
35.072838876
20
4.31028402486
11
35.1404421307
21
3.41334459307
0
LINE
8
0
10
35.1404421307
20
3.41334459307
11
35.2819026988
21
2.37239790672
0
LINE
8
0
10
35.2819026988
20
2.37239790672
11
35.4640091833
21
1.44994161987
0
LINE
8
0
10
35.4640091833
20
1.44994161987
11
36.4372819484
21
1.13370612868
0
LINE
8
0
10
36.4372819484
20
1.13370612868
11
37.4513798471
21
0.996337234668
0
LINE
8
0
10
37.4513798471
20
0.996337234668
11
38.0156909031
21
1.7484285887
0
LINE
8
0
10
38.0156909031
20
1.7484285887
11
38.5947923115
21
2.62491170603
0
LINE
8
0
10
38.5947923115
20
2.62491170603
11
39.0448681738
21
3.40369425754
0
LINE
8
0
10
39.0448681738
20
3.40369425754
11
39.3799478492
21
4.07294940084
0
LINE
8
0
10
39.3799478492
20
4.07294940084
11
39.6149849287
21
4.62219391958
0
LINE
8
0
10
39.6149849287
20
4.62219391958
11
39.8212472489
21
5.19703333328
0
LINE
8
0
10
39.8212472489
20
5.19703333328
11
39.9894391743
21
5.49723432745
0
LINE
8
0
10
39.9894391743
20
5.49723432745
11
40.1586058967
21
5.62816429905
0
LINE
8
0
10
40.1586058967
20
5.62816429905
11
42.4151100733
21
5.32250003973
0
LINE
8
0
10
42.4151100733
20
5.32250003973
11
42.5433483143
21
5.15128382856
0
LINE
8
0
10
42.5433483143
20
5.15128382856
11
42.6256145583
21
4.81715597015
0
LINE
8
0
10
42.6256145583
20
4.81715597015
11
42.6715153103
21
4.20815874745
0
LINE
8
0
10
42.6715153103
20
4.20815874745
11
42.7519630466
21
3.61617890671
0
LINE
8
0
10
42.7519630466
20
3.61617890671
11
42.8969208818
21
2.8818982644
0
LINE
8
0
10
42.8969208818
20
2.8818982644
11
43.1235924442
21
2.01144404552
0
LINE
8
0
10
43.1235924442
20
2.01144404552
11
43.4486478907
21
1.01248456044
0
LINE
8
0
10
43.4486478907
20
1.01248456044
11
43.7925387792
21
0.137368894016
0
LINE
8
0
10
43.7925387792
20
0.137368894016
11
44.8066366779
21
0.0
0
LINE
8
0
10
44.8066366779
20
0.0
11
45.8289657693
21
0.0459128524358
0
LINE
8
0
10
45.8289657693
20
0.0459128524358
11
46.2499170178
21
0.886679418877
0
LINE
8
0
10
46.2499170178
20
0.886679418877
11
46.6632099245
21
1.85247964118
0
LINE
8
0
10
46.6632099245
20
1.85247964118
11
46.9669958884
21
2.69911098508
0
LINE
8
0
10
46.9669958884
20
2.69911098508
11
47.1771905753
21
3.41744170924
0
LINE
8
0
10
47.1771905753
20
3.41744170924
11
47.3103791165
21
3.99982713369
0
LINE
8
0
10
47.3103791165
20
3.99982713369
11
47.4106851757
21
4.60225820094
0
LINE
8
0
10
47.4106851757
20
4.60225820094
11
47.5225712304
21
4.92766666956
0
LINE
8
0
10
47.5225712304
20
4.92766666956
11
47.6656409247
21
5.0866984273
0
LINE
8
0
10
47.6656409247
20
5.0866984273
11
49.9404606119
21
5.18886069725
0
LINE
8
0
10
49.9404606119
20
5.18886069725
11
50.0972098466
21
5.04329382314
0
LINE
8
0
10
50.0972098466
20
5.04329382314
11
50.2378148711
21
4.72922474196
0
LINE
8
0
10
50.2378148711
20
4.72922474196
11
50.3917186321
21
4.1382102509
0
LINE
8
0
10
50.3917186321
20
4.1382102509
11
50.5765756224
21
3.57010826773
0
LINE
8
0
10
50.5765756224
20
3.57010826773
11
50.8503147969
21
2.87351103836
0
LINE
8
0
10
50.8503147969
20
2.87351103836
11
51.2287692564
21
2.0575191472
0
LINE
8
0
10
51.2287692564
20
2.0575191472
11
51.7269720319
21
1.13265424319
0
LINE
8
0
10
51.7269720319
20
1.13265424319
11
52.2215943883
21
0.333006134754
0
LINE
8
0
10
52.2215943883
20
0.333006134754
11
53.2439234798
21
0.37891898719
0
LINE
8
0
10
53.2439234798
20
0.37891898719
11
54.2416252657
21
0.606637909223
0
LINE
8
0
10
54.2416252657
20
0.606637909223
11
54.5056869871
21
1.50905675884
0
LINE
8
0
10
54.5056869871
20
1.50905675884
11
54.7398878181
21
2.5331324723
0
LINE
8
0
10
54.7398878181
20
2.5331324723
11
54.8876199528
21
3.4204011806
0
LINE
8
0
10
54.8876199528
20
3.4204011806
11
54.966173821
21
4.1647197451
0
LINE
8
0
10
54.966173821
20
4.1647197451
11
54.9932330346
21
4.76152772852
0
LINE
8
0
10
54.9932330346
20
4.76152772852
11
54.9843589135
21
5.37218781913
0
LINE
8
0
10
54.9843589135
20
5.37218781913
11
55.0363429875
21
5.71234486628
0
LINE
8
0
10
55.0363429875
20
5.71234486628
11
55.1487172762
21
5.89436699862
0
LINE
8
0
10
55.1487172762
20
5.89436699862
11
57.3687378974
21
6.40107221842
0
LINE
8
0
10
57.3687378974
20
6.40107221842
11
57.5489600765
21
6.28583332048
0
LINE
8
0
10
57.5489600765
20
6.28583332048
11
57.7433847203
21
6.00191745521
0
LINE
8
0
10
57.7433847203
20
6.00191745521
11
58.0003448968
21
5.44788138783
0
LINE
8
0
10
58.0003448968
20
5.44788138783
11
58.2836696852
21
4.92191652741
0
LINE
8
0
10
58.2836696852
20
4.92191652741
11
58.6773919968
21
4.28539191909
0
LINE
8
0
10
58.6773919968
20
4.28539191909
11
59.1954655157
21
3.55008900642
0
LINE
8
0
10
59.1954655157
20
3.55008900642
11
59.850802973
21
2.72904460248
0
LINE
8
0
10
59.850802973
20
2.72904460248
11
60.4802592279
21
2.0305654002
0
LINE
8
0
10
60.4802592279
20
2.0305654002
11
61.4779610138
21
2.25828432223
0
LINE
8
0
10
61.4779610138
20
2.25828432223
11
62.418968538
21
2.66049024034
0
LINE
8
0
10
62.418968538
20
2.66049024034
11
62.5176535713
21
3.59555688879
0
LINE
8
0
10
62.5176535713
20
3.59555688879
11
62.5652349192
21
4.64499345738
0
LINE
8
0
10
62.5652349192
20
4.64499345738
11
62.5521649923
21
5.54438198374
0
LINE
8
0
10
62.5521649923
20
5.54438198374
11
62.4965532559
21
6.29076537748
0
LINE
8
0
10
62.4965532559
20
6.29076537748
11
62.4166134365
21
6.88281402024
0
LINE
8
0
10
62.4166134365
20
6.88281402024
11
62.2988443566
21
7.48207601645
0
LINE
8
0
10
62.2988443566
20
7.48207601645
11
62.2892556391
21
7.82604871473
0
LINE
8
0
10
62.2892556391
20
7.82604871473
11
62.36732272
21
8.02521088057
0
LINE
8
0
10
62.36732272
20
8.02521088057
11
64.4611909859
21
8.92017312754
0
LINE
8
0
10
64.4611909859
20
8.92017312754
11
64.6590936201
21
8.83896607877
0
LINE
8
0
10
64.6590936201
20
8.83896607877
11
64.9010889152
21
8.59432871893
0
LINE
8
0
10
64.9010889152
20
8.59432871893
11
65.2528465958
21
8.09507825029
0
LINE
8
0
10
65.2528465958
20
8.09507825029
11
65.6255328906
21
7.62815545601
0
LINE
8
0
10
65.6255328906
20
7.62815545601
11
66.1265837802
21
7.07216189338
0
LINE
8
0
10
66.1265837802
20
7.07216189338
11
66.7676250493
21
6.44118119984
0
LINE
8
0
10
66.7676250493
20
6.44118119984
11
67.5590341033
21
5.75034633865
0
LINE
8
0
10
67.5590341033
20
5.75034633865
11
68.3030930147
21
5.1754857388
0
LINE
8
0
10
68.3030930147
20
5.1754857388
11
69.2441005389
21
5.5776916569
0
LINE
8
0
10
69.2441005389
20
5.5776916569
11
70.0981690452
21
6.14145734194
0
LINE
8
0
10
70.0981690452
20
6.14145734194
11
70.0283055722
21
7.07911797778
0
LINE
8
0
10
70.0283055722
20
7.07911797778
11
69.8877381333
21
8.12018564669
0
LINE
8
0
10
69.8877381333
20
8.12018564669
11
69.714286223
21
9.00278690386
0
LINE
8
0
10
69.714286223
20
9.00278690386
11
69.526296289
21
9.72724575044
0
LINE
8
0
10
69.526296289
20
9.72724575044
11
69.3419267682
21
10.295506122
0
LINE
8
0
10
69.3419267682
20
10.295506122
11
69.1190479246
21
10.8641092502
0
LINE
8
0
10
69.1190479246
20
10.8641092502
11
69.0481946048
21
11.2008420341
0
LINE
8
0
10
69.0481946048
20
11.2008420341
11
69.0894453377
21
11.4107429975
0
LINE
8
0
10
69.0894453377
20
11.4107429975
11
70.9898625993
21
12.6651974487
0
LINE
8
0
10
70.9898625993
20
12.6651974487
11
71.1990849353
21
12.6206323104
0
LINE
8
0
10
71.1990849353
20
12.6206323104
11
71.4808729538
21
12.4231363021
0
LINE
8
0
10
71.4808729538
20
12.4231363021
11
71.9161223572
21
11.994717753
0
LINE
8
0
10
71.9161223572
20
11.994717753
11
72.3661917141
21
11.6018443077
0
LINE
8
0
10
72.3661917141
20
11.6018443077
11
72.9584669938
21
11.1442518813
0
LINE
8
0
10
72.9584669938
20
11.1442518813
11
73.7018724194
21
10.6378736455
0
LINE
8
0
10
73.7018724194
20
10.6378736455
11
74.6039165319
21
10.099452328
0
LINE
8
0
10
74.6039165319
20
10.099452328
11
75.4386634341
21
9.66668682322
0
LINE
8
0
10
75.4386634341
20
9.66668682322
11
76.2927319404
21
10.2304525083
0
LINE
8
0
10
76.2927319404
20
10.2304525083
11
77.0324109644
21
10.9376580672
0
LINE
8
0
10
77.0324109644
20
10.9376580672
11
76.7962444547
21
11.8477755061
0
LINE
8
0
10
76.7962444547
20
11.8477755061
11
76.4720461821
21
12.8470135039
0
LINE
8
0
10
76.4720461821
20
12.8470135039
11
76.1437871755
21
13.6844599612
0
LINE
8
0
10
76.1437871755
20
13.6844599612
11
75.8294611951
21
14.3637095573
0
LINE
8
0
10
75.8294611951
20
14.3637095573
11
75.5465877609
21
14.8899173017
0
LINE
8
0
10
75.5465877609
20
14.8899173017
11
75.2257626631
21
15.4095861895
0
LINE
8
0
10
75.2257626631
20
15.4095861895
11
75.095922025
21
15.7282561902
0
LINE
8
0
10
75.095922025
20
15.7282561902
11
75.0990305774
21
15.9421495616
0
LINE
8
0
10
75.0990305774
20
15.9421495616
11
76.7449158604
21
17.5157770187
0
LINE
8
0
10
76.7449158604
20
17.5157770187
11
76.95873332
21
17.5092861512
0
LINE
8
0
10
76.95873332
20
17.5092861512
11
77.2712571631
21
17.3652791785
0
LINE
8
0
10
77.2712571631
20
17.3652791785
11
77.7760090153
21
17.0214622737
0
LINE
8
0
10
77.7760090153
20
17.0214622737
11
78.2889958349
21
16.7152654531
0
LINE
8
0
10
78.2889958349
20
16.7152654531
11
78.95345929
21
16.3707815601
0
LINE
8
0
10
78.95345929
20
16.3707815601
11
79.7753352099
21
16.0052811953
0
LINE
8
0
10
79.7753352099
20
16.0052811953
11
80.759021941
21
15.6365787255
0
LINE
8
0
10
80.759021941
20
15.6365787255
11
81.6576273818
21
15.3598177552
0
LINE
8
0
10
81.6576273818
20
15.3598177552
11
82.3973064057
21
16.0670233142
0
LINE
8
0
10
82.3973064057
20
16.0670233142
11
82.9988220549
21
16.8949385786
0
LINE
8
0
10
82.9988220549
20
16.8949385786
11
82.6039430943
21
17.7482608972
0
LINE
8
0
10
82.6039430943
20
17.7482608972
11
82.1065339873
21
18.6735528924
0
LINE
8
0
10
82.1065339873
20
18.6735528924
11
81.634018399
21
19.4389283317
0
LINE
8
0
10
81.634018399
20
19.4389283317
11
81.2034590677
21
20.0511370363
0
LINE
8
0
10
81.2034590677
20
20.0511370363
11
80.8311735051
21
20.5183794038
0
LINE
8
0
10
80.8311735051
20
20.5183794038
11
80.4227137357
21
20.9724114655
0
LINE
8
0
10
80.4227137357
20
20.9724114655
11
80.2380589643
21
21.2627763671
0
LINE
8
0
10
80.2380589643
20
21.2627763671
11
80.2029254248
21
21.4737874375
0
LINE
8
0
10
80.2029254248
20
21.4737874375
11
81.5413786218
21
23.3160102192
0
LINE
8
0
10
81.5413786218
20
23.3160102192
11
81.7529189361
21
23.3478022443
0
LINE
8
0
10
81.7529189361
20
23.3478022443
11
82.0861338303
21
23.2619128099
0
LINE
8
0
10
82.0861338303
20
23.2619128099
11
82.6441649915
21
23.0137481076
0
LINE
8
0
10
82.6441649915
20
23.0137481076
11
83.2035814554
21
22.8040693294
0
LINE
8
0
10
83.2035814554
20
22.8040693294
11
83.9188766836
21
22.5837659655
0
LINE
8
0
10
83.9188766836
20
22.5837659655
11
84.7928073295
21
22.3708909541
0
LINE
8
0
10
84.7928073295
20
22.3708909541
11
85.8265201783
21
22.1837577328
0
LINE
8
0
10
85.8265201783
20
22.1837577328
11
86.7601022394
21
22.0718966224
0
LINE
8
0
10
86.7601022394
20
22.0718966224
11
87.3616178885
21
22.8998118868
0
LINE
8
0
10
87.3616178885
20
22.8998118868
11
87.805636955
21
23.8218269787
0
LINE
8
0
10
87.805636955
20
23.8218269787
11
87.2647372783
21
24.5909276956
0
LINE
8
0
10
87.2647372783
20
24.5909276956
11
86.6101044748
21
25.4125340421
0
LINE
8
0
10
86.6101044748
20
25.4125340421
11
86.0085193446
21
26.0812386671
0
LINE
8
0
10
86.0085193446
20
26.0812386671
11
85.4755651937
21
26.6067295887
0
LINE
8
0
10
85.4755651937
20
26.6067295887
11
85.025833067
21
26.9999890251
0
LINE
8
0
10
85.025833067
20
26.9999890251
11
84.542866859
21
27.3737912967
0
LINE
8
0
10
84.542866859
20
27.3737912967
11
84.3093329106
21
27.6265185323
0
LINE
8
0
10
84.3093329106
20
27.6265185323
11
84.2370865
21
27.8278652322
0
LINE
8
0
10
84.2370865
20
27.8278652322
11
85.2250886241
21
29.8794727827
0
LINE
8
0
10
85.2250886241
20
29.8794727827
11
85.4275527132
21
29.9485258785
0
LINE
8
0
10
85.4275527132
20
29.9485258785
11
85.7707488577
21
29.9235145394
0
LINE
8
0
10
85.7707488577
20
29.9235145394
11
86.3641237472
21
29.7789782573
0
LINE
8
0
10
86.3641237472
20
29.7789782573
11
86.9519897499
21
29.67255677
0
LINE
8
0
10
86.9519897499
20
29.67255677
11
87.6951265741
21
29.5835146667
0
LINE
8
0
10
87.6951265741
20
29.5835146667
11
88.593023096
21
29.5301069867
0
LINE
8
0
10
88.593023096
20
29.5301069867
11
89.6435376809
21
29.5305576297
0
LINE
8
0
10
89.6435376809
20
29.5305576297
11
90.5820902667
21
29.5871916871
0
LINE
8
0
10
90.5820902667
20
29.5871916871
11
91.0261093332
21
30.5092067791
0
LINE
8
0
10
91.0261093332
20
30.5092067791
11
91.2983606788
21
31.4956873749
0
LINE
8
0
10
91.2983606788
20
31.4956873749
11
90.6288252467
21
32.1558469602
0
LINE
8
0
10
90.6288252467
20
32.1558469602
11
89.8380091836
21
32.8473605541
0
LINE
8
0
10
89.8380091836
20
32.8473605541
11
89.1266899526
21
33.3979016479
0
LINE
8
0
10
89.1266899526
20
33.3979016479
11
88.5084705669
21
33.8197850759
0
LINE
8
0
10
88.5084705669
20
33.8197850759
11
87.9957466367
21
34.1264218994
0
LINE
8
0
10
87.9957466367
20
34.1264218994
11
87.4537969215
21
34.4079800683
0
LINE
8
0
10
87.4537969215
20
34.4079800683
11
87.1788897693
21
34.6149467765
0
LINE
8
0
10
87.1788897693
20
34.6149467765
11
87.0718525467
21
34.8001576575
0
LINE
8
0
10
87.0718525467
20
34.8001576575
11
87.6776483966
21
36.9952096219
0
LINE
8
0
10
87.6776483966
20
36.9952096219
11
87.8645288982
21
37.0993043651
0
LINE
8
0
10
87.8645288982
20
37.0993043651
11
88.2066756865
21
37.1359750064
0
LINE
8
0
10
88.2066756865
20
37.1359750064
11
88.8163227471
21
37.0997126595
0
LINE
8
0
10
88.8163227471
20
37.0997126595
11
89.4137437916
21
37.0999689373
0
LINE
8
0
10
89.4137437916
20
37.0999689373
11
90.1608371828
21
37.145049981
0
LINE
8
0
10
90.1608371828
20
37.145049981
11
91.0538404477
21
37.2528261991
0
LINE
8
0
10
91.0538404477
20
37.2528261991
11
92.0873923656
21
37.4408462223
0
LINE
8
0
10
92.0873923656
20
37.4408462223
11
93.0007496238
21
37.6641551825
0
LINE
8
0
10
47.2320802324
20
45.5952052567
11
46.9202126962
21
45.5624266578
0
LINE
8
0
10
46.9202126962
20
45.5624266578
11
46.60834516
21
45.5952052567
0
LINE
8
0
10
46.60834516
20
45.5952052567
11
46.3101077316
21
45.6921084713
0
LINE
8
0
10
46.3101077316
20
45.6921084713
11
46.0385348178
21
45.8489011662
0
LINE
8
0
10
46.0385348178
20
45.8489011662
11
45.805495458
21
46.0587307482
0
LINE
8
0
10
45.805495458
20
46.0587307482
11
45.6211745905
21
46.3124266578
0
LINE
8
0
10
45.6211745905
20
46.3124266578
11
45.4936279218
21
46.5989011662
0
LINE
8
0
10
45.4936279218
20
46.5989011662
11
45.4284298532
21
46.9056339629
0
LINE
8
0
10
45.4284298532
20
46.9056339629
11
45.4284298532
21
47.2192193527
0
LINE
8
0
10
45.4284298532
20
47.2192193527
11
45.4936279218
21
47.5259521493
0
LINE
8
0
10
45.4936279218
20
47.5259521493
11
45.6211745905
21
47.8124266578
0
LINE
8
0
10
45.6211745905
20
47.8124266578
11
45.805495458
21
48.0661225673
0
LINE
8
0
10
45.805495458
20
48.0661225673
11
46.0385348178
21
48.2759521493
0
LINE
8
0
10
46.0385348178
20
48.2759521493
11
46.3101077316
21
48.4327448442
0
LINE
8
0
10
46.3101077316
20
48.4327448442
11
46.60834516
21
48.5296480589
0
LINE
8
0
10
46.60834516
20
48.5296480589
11
46.9202126962
21
48.5624266578
0
LINE
8
0
10
46.9202126962
20
48.5624266578
11
47.2320802324
21
48.5296480589
0
LINE
8
0
10
47.2320802324
20
48.5296480589
11
47.5303176608
21
48.4327448442
0
LINE
8
0
10
47.5303176608
20
48.4327448442
11
47.8018905747
21
48.2759521493
0
LINE
8
0
10
47.8018905747
20
48.2759521493
11
48.0349299344
21
48.0661225673
0
LINE
8
0
10
48.0349299344
20
48.0661225673
11
48.2192508019
21
47.8124266578
0
LINE
8
0
10
48.2192508019
20
47.8124266578
11
48.3467974707
21
47.5259521493
0
LINE
8
0
10
48.3467974707
20
47.5259521493
11
48.4119955393
21
47.2192193527
0
LINE
8
0
10
48.4119955393
20
47.2192193527
11
48.4119955393
21
46.9056339629
0
LINE
8
0
10
48.4119955393
20
46.9056339629
11
48.3467974707
21
46.5989011662
0
LINE
8
0
10
48.3467974707
20
46.5989011662
11
48.2192508019
21
46.3124266578
0
LINE
8
0
10
48.2192508019
20
46.3124266578
11
48.0349299344
21
46.0587307482
0
LINE
8
0
10
48.0349299344
20
46.0587307482
11
47.8018905747
21
45.8489011662
0
LINE
8
0
10
47.8018905747
20
45.8489011662
11
47.5303176608
21
45.6921084713
0
LINE
8
0
10
47.5303176608
20
45.6921084713
11
47.2320802324
21
45.5952052567
0
LINE
8
0
10
142.51578755
20
131.789008498
11
142.788038895
21
132.775489094
0
LINE
8
0
10
142.788038895
20
132.775489094
11
142.879772138
21
133.794728896
0
LINE
8
0
10
142.879772138
20
133.794728896
11
142.10312037
21
134.324729277
0
LINE
8
0
10
142.10312037
20
134.324729277
11
141.201538526
21
134.863924302
0
LINE
8
0
10
141.201538526
20
134.863924302
11
140.40334758
21
135.278607021
0
LINE
8
0
10
140.40334758
20
135.278607021
11
139.719733039
21
135.583323275
0
LINE
8
0
10
139.719733039
20
135.583323275
11
139.160496674
21
135.793481926
0
LINE
8
0
10
139.160496674
20
135.793481926
11
138.576982162
21
135.973746481
0
LINE
8
0
10
138.576982162
20
135.973746481
11
138.269537548
21
136.128300582
0
LINE
8
0
10
138.269537548
20
136.128300582
11
138.131149777
21
136.291422813
0
LINE
8
0
10
138.131149777
20
136.291422813
11
138.335268576
21
138.559368415
0
LINE
8
0
10
138.335268576
20
138.559368415
11
138.500558997
21
138.695159115
0
LINE
8
0
10
138.500558997
20
138.695159115
11
138.83065955
21
138.792333112
0
LINE
8
0
10
138.83065955
20
138.792333112
11
139.436984223
21
138.865510202
0
LINE
8
0
10
139.436984223
20
138.865510202
11
140.024758706
21
138.972436008
0
LINE
8
0
10
140.024758706
20
138.972436008
11
140.751796468
21
139.150191257
0
LINE
8
0
10
140.751796468
20
139.150191257
11
141.611204616
21
139.415687357
0
LINE
8
0
10
141.611204616
20
139.415687357
11
142.594574658
21
139.785233642
0
LINE
8
0
10
142.594574658
20
139.785233642
11
143.453380535
21
140.168040172
0
LINE
8
0
10
143.453380535
20
140.168040172
11
143.545113777
21
141.187279973
0
LINE
8
0
10
143.545113777
20
141.187279973
11
143.453380535
21
142.206519775
0
LINE
8
0
10
143.453380535
20
142.206519775
11
142.594574658
21
142.589326304
0
LINE
8
0
10
142.594574658
20
142.589326304
11
141.611204616
21
142.958872589
0
LINE
8
0
10
141.611204616
20
142.958872589
11
140.751796468
21
143.224368689
0
LINE
8
0
10
140.751796468
20
143.224368689
11
140.024758706
21
143.402123938
0
LINE
8
0
10
140.024758706
20
143.402123938
11
139.436984223
21
143.509049744
0
LINE
8
0
10
139.436984223
20
143.509049744
11
138.83065955
21
143.582226834
0
LINE
8
0
10
138.83065955
20
143.582226834
11
138.500558997
21
143.679400831
0
LINE
8
0
10
138.500558997
20
143.679400831
11
138.335268576
21
143.815191531
0
LINE
8
0
10
138.335268576
20
143.815191531
11
138.131149777
21
146.083137133
0
LINE
8
0
10
138.131149777
20
146.083137133
11
138.269537548
21
146.246259365
0
LINE
8
0
10
138.269537548
20
146.246259365
11
138.576982162
21
146.400813466
0
LINE
8
0
10
138.576982162
20
146.400813466
11
139.160496674
21
146.581078021
0
LINE
8
0
10
139.160496674
20
146.581078021
11
139.719733039
21
146.791236671
0
LINE
8
0
10
139.719733039
20
146.791236671
11
140.40334758
21
147.095952925
0
LINE
8
0
10
140.40334758
20
147.095952925
11
141.201538526
21
147.510635644
0
LINE
8
0
10
141.201538526
20
147.510635644
11
142.10312037
21
148.04983067
0
LINE
8
0
10
142.10312037
20
148.04983067
11
142.879772138
21
148.579831051
0
LINE
8
0
10
142.879772138
20
148.579831051
11
142.788038895
21
149.599070853
0
LINE
8
0
10
142.788038895
20
149.599070853
11
142.51578755
21
150.585551448
0
LINE
8
0
10
142.51578755
20
150.585551448
11
141.602430291
21
150.808860409
0
LINE
8
0
10
141.602430291
20
150.808860409
11
140.568878373
21
150.996880432
0
LINE
8
0
10
140.568878373
20
150.996880432
11
139.675875109
21
151.10465665
0
LINE
8
0
10
139.675875109
20
151.10465665
11
138.928781717
21
151.149737694
0
LINE
8
0
10
138.928781717
20
151.149737694
11
138.331360673
21
151.149993972
0
LINE
8
0
10
138.331360673
20
151.149993972
11
137.721713612
21
151.113731625
0
LINE
8
0
10
137.721713612
20
151.113731625
11
137.379566824
21
151.150402266
0
LINE
8
0
10
137.379566824
20
151.150402266
11
137.192686322
21
151.254497009
0
LINE
8
0
10
137.192686322
20
151.254497009
11
136.586890472
21
153.449548974
0
LINE
8
0
10
136.586890472
20
153.449548974
11
136.693927695
21
153.634759854
0
LINE
8
0
10
136.693927695
20
153.634759854
11
136.968834847
21
153.841726563
0
LINE
8
0
10
136.968834847
20
153.841726563
11
137.510784562
21
154.123284732
0
LINE
8
0
10
137.510784562
20
154.123284732
11
138.023508493
21
154.429921555
0
LINE
8
0
10
138.023508493
20
154.429921555
11
138.641727878
21
154.851804983
0
LINE
8
0
10
138.641727878
20
154.851804983
11
139.353047109
21
155.402346077
0
LINE
8
0
10
139.353047109
20
155.402346077
11
140.143863172
21
156.093859671
0
LINE
8
0
10
140.143863172
20
156.093859671
11
140.813398604
21
156.754019256
0
LINE
8
0
10
140.813398604
20
156.754019256
11
140.541147259
21
157.740499852
0
LINE
8
0
10
140.541147259
20
157.740499852
11
140.097128192
21
158.662514944
0
LINE
8
0
10
140.097128192
20
158.662514944
11
139.158575607
21
158.719149001
0
LINE
8
0
10
139.158575607
20
158.719149001
11
138.108061022
21
158.719599644
0
LINE
8
0
10
138.108061022
20
158.719599644
11
137.2101645
21
158.666191964
0
LINE
8
0
10
137.2101645
20
158.666191964
11
136.467027676
21
158.577149861
0
LINE
8
0
10
136.467027676
20
158.577149861
11
135.879161673
21
158.470728374
0
LINE
8
0
10
135.879161673
20
158.470728374
11
135.285786783
21
158.326192092
0
LINE
8
0
10
135.285786783
20
158.326192092
11
134.942590639
21
158.301180753
0
LINE
8
0
10
134.942590639
20
158.301180753
11
134.74012655
21
158.370233848
0
LINE
8
0
10
134.74012655
20
158.370233848
11
133.752124426
21
160.421841399
0
LINE
8
0
10
133.752124426
20
160.421841399
11
133.824370836
21
160.623188099
0
LINE
8
0
10
133.824370836
20
160.623188099
11
134.057904785
21
160.875915334
0
LINE
8
0
10
134.057904785
20
160.875915334
11
134.540870993
21
161.249717606
0
LINE
8
0
10
134.540870993
20
161.249717606
11
134.990603119
21
161.642977042
0
LINE
8
0
10
134.990603119
20
161.642977042
11
135.52355727
21
162.168467964
0
LINE
8
0
10
135.52355727
20
162.168467964
11
136.125142401
21
162.837172589
0
LINE
8
0
10
136.125142401
20
162.837172589
11
136.779775204
21
163.658778935
0
LINE
8
0
10
136.779775204
20
163.658778935
11
137.320674881
21
164.427879652
0
LINE
8
0
10
137.320674881
20
164.427879652
11
136.876655814
21
165.349894744
0
LINE
8
0
10
136.876655814
20
165.349894744
11
136.275140165
21
166.177810009
0
LINE
8
0
10
136.275140165
20
166.177810009
11
135.341558104
21
166.065948898
0
LINE
8
0
10
135.341558104
20
166.065948898
11
134.307845255
21
165.878815677
0
LINE
8
0
10
134.307845255
20
165.878815677
11
133.433914609
21
165.665940666
0
LINE
8
0
10
133.433914609
20
165.665940666
11
132.718619381
21
165.445637302
0
LINE
8
0
10
132.718619381
20
165.445637302
11
132.159202917
21
165.235958523
0
LINE
8
0
10
132.159202917
20
165.235958523
11
131.601171756
21
164.987793821
0
LINE
8
0
10
131.601171756
20
164.987793821
11
131.267956862
21
164.901904387
0
LINE
8
0
10
131.267956862
20
164.901904387
11
131.056416548
21
164.933696412
0
LINE
8
0
10
131.056416548
20
164.933696412
11
129.717963351
21
166.775919194
0
LINE
8
0
10
129.717963351
20
166.775919194
11
129.75309689
21
166.986930264
0
LINE
8
0
10
129.75309689
20
166.986930264
11
129.937751661
21
167.277295166
0
LINE
8
0
10
129.937751661
20
167.277295166
11
130.346211431
21
167.731327227
0
LINE
8
0
10
130.346211431
20
167.731327227
11
130.718496993
21
168.198569595
0
LINE
8
0
10
130.718496993
20
168.198569595
11
131.149056325
21
168.810778299
0
LINE
8
0
10
131.149056325
20
168.810778299
11
131.621571913
21
169.576153739
0
LINE
8
0
10
131.621571913
20
169.576153739
11
132.11898102
21
170.501445734
0
LINE
8
0
10
132.11898102
20
170.501445734
11
132.513859981
21
171.354768052
0
LINE
8
0
10
132.513859981
20
171.354768052
11
131.912344331
21
172.182683317
0
LINE
8
0
10
131.912344331
20
172.182683317
11
131.172665307
21
172.889888876
0
LINE
8
0
10
131.172665307
20
172.889888876
11
130.274059867
21
172.613127906
0
LINE
8
0
10
130.274059867
20
172.613127906
11
129.290373136
21
172.244425436
0
LINE
8
0
10
129.290373136
20
172.244425436
11
128.468497216
21
171.878925071
0
LINE
8
0
10
128.468497216
20
171.878925071
11
127.804033761
21
171.534441178
0
LINE
8
0
10
127.804033761
20
171.534441178
11
127.291046941
21
171.228244357
0
LINE
8
0
10
127.291046941
20
171.228244357
11
126.786295089
21
170.884427453
0
LINE
8
0
10
126.786295089
20
170.884427453
11
126.473771246
21
170.74042048
0
LINE
8
0
10
126.473771246
20
170.74042048
11
126.259953786
21
170.733929612
0
LINE
8
0
10
126.259953786
20
170.733929612
11
124.614068503
21
172.307557069
0
LINE
8
0
10
124.614068503
20
172.307557069
11
124.610959951
21
172.521450441
0
LINE
8
0
10
124.610959951
20
172.521450441
11
124.740800589
21
172.840120442
0
LINE
8
0
10
124.740800589
20
172.840120442
11
125.061625687
21
173.359789329
0
LINE
8
0
10
125.061625687
20
173.359789329
11
125.344499121
21
173.885997074
0
LINE
8
0
10
125.344499121
20
173.885997074
11
125.658825101
21
174.56524667
0
LINE
8
0
10
125.658825101
20
174.56524667
11
125.987084108
21
175.402693127
0
LINE
8
0
10
125.987084108
20
175.402693127
11
126.31128238
21
176.401931125
0
LINE
8
0
10
126.31128238
20
176.401931125
11
126.54744889
21
177.312048564
0
LINE
8
0
10
126.54744889
20
177.312048564
11
125.807769866
21
178.019254123
0
LINE
8
0
10
125.807769866
20
178.019254123
11
124.95370136
21
178.583019808
0
LINE
8
0
10
124.95370136
20
178.583019808
11
124.118954458
21
178.150254303
0
LINE
8
0
10
124.118954458
20
178.150254303
11
123.216910345
21
177.611832985
0
LINE
8
0
10
123.216910345
20
177.611832985
11
122.47350492
21
177.10545475
0
LINE
8
0
10
122.47350492
20
177.10545475
11
121.88122964
21
176.647862323
0
LINE
8
0
10
121.88122964
20
176.647862323
11
121.431160283
21
176.254988878
0
LINE
8
0
10
121.431160283
20
176.254988878
11
120.99591088
21
175.826570329
0
LINE
8
0
10
120.99591088
20
175.826570329
11
120.714122861
21
175.629074321
0
LINE
8
0
10
120.714122861
20
175.629074321
11
120.504900525
21
175.584509182
0
LINE
8
0
10
120.504900525
20
175.584509182
11
118.604483263
21
176.838963633
0
LINE
8
0
10
118.604483263
20
176.838963633
11
118.56323253
21
177.048864597
0
LINE
8
0
10
118.56323253
20
177.048864597
11
118.63408585
21
177.385597381
0
LINE
8
0
10
118.63408585
20
177.385597381
11
118.856964694
21
177.954200509
0
LINE
8
0
10
118.856964694
20
177.954200509
11
119.041334215
21
178.522460881
0
LINE
8
0
10
119.041334215
20
178.522460881
11
119.229324149
21
179.246919727
0
LINE
8
0
10
119.229324149
20
179.246919727
11
119.402776059
21
180.129520984
0
LINE
8
0
10
119.402776059
20
180.129520984
11
119.543343498
21
181.170588653
0
LINE
8
0
10
119.543343498
20
181.170588653
11
119.613206971
21
182.108249289
0
LINE
8
0
10
119.613206971
20
182.108249289
11
118.759138465
21
182.672014974
0
LINE
8
0
10
118.759138465
20
182.672014974
11
117.81813094
21
183.074220892
0
LINE
8
0
10
117.81813094
20
183.074220892
11
117.074072029
21
182.499360292
0
LINE
8
0
10
117.074072029
20
182.499360292
11
116.282662975
21
181.808525431
0
LINE
8
0
10
116.282662975
20
181.808525431
11
115.641621706
21
181.177544738
0
LINE
8
0
10
115.641621706
20
181.177544738
11
115.140570816
21
180.621551175
0
LINE
8
0
10
115.140570816
20
180.621551175
11
114.767884522
21
180.154628381
0
LINE
8
0
10
114.767884522
20
180.154628381
11
114.416126841
21
179.655377912
0
LINE
8
0
10
114.416126841
20
179.655377912
11
114.174131546
21
179.410740552
0
LINE
8
0
10
114.174131546
20
179.410740552
11
113.976228912
21
179.329533503
0
LINE
8
0
10
113.976228912
20
179.329533503
11
111.882360646
21
180.22449575
0
LINE
8
0
10
111.882360646
20
180.22449575
11
111.804293565
21
180.423657916
0
LINE
8
0
10
111.804293565
20
180.423657916
11
111.813882282
21
180.767630615
0
LINE
8
0
10
111.813882282
20
180.767630615
11
111.931651362
21
181.366892611
0
LINE
8
0
10
111.931651362
20
181.366892611
11
112.011591182
21
181.958941254
0
LINE
8
0
10
112.011591182
20
181.958941254
11
112.067202918
21
182.705324647
0
LINE
8
0
10
112.067202918
20
182.705324647
11
112.080272845
21
183.604713174
0
LINE
8
0
10
112.080272845
20
183.604713174
11
112.032691497
21
184.654149742
0
LINE
8
0
10
112.032691497
20
184.654149742
11
111.934006464
21
185.589216391
0
LINE
8
0
10
111.934006464
20
185.589216391
11
110.99299894
21
185.991422309
0
LINE
8
0
10
110.99299894
20
185.991422309
11
109.995297154
21
186.219141231
0
LINE
8
0
10
109.995297154
20
186.219141231
11
109.365840899
21
185.520662029
0
LINE
8
0
10
109.365840899
20
185.520662029
11
108.710503441
21
184.699617625
0
LINE
8
0
10
108.710503441
20
184.699617625
11
108.192429923
21
183.964314712
0
LINE
8
0
10
108.192429923
20
183.964314712
11
107.798707611
21
183.327790104
0
LINE
8
0
10
107.798707611
20
183.327790104
11
107.515382823
21
182.801825243
0
LINE
8
0
10
107.515382823
20
182.801825243
11
107.258422646
21
182.247789176
0
LINE
8
0
10
107.258422646
20
182.247789176
11
107.063998002
21
181.963873311
0
LINE
8
0
10
107.063998002
20
181.963873311
11
106.883775823
21
181.848634413
0
LINE
8
0
10
106.883775823
20
181.848634413
11
104.663755202
21
182.355339632
0
LINE
8
0
10
104.663755202
20
182.355339632
11
104.551380913
21
182.537361765
0
LINE
8
0
10
104.551380913
20
182.537361765
11
104.499396839
21
182.877518812
0
LINE
8
0
10
104.499396839
20
182.877518812
11
104.50827096
21
183.488178902
0
LINE
8
0
10
104.50827096
20
183.488178902
11
104.481211747
21
184.084986886
0
LINE
8
0
10
104.481211747
20
184.084986886
11
104.402657878
21
184.82930545
0
LINE
8
0
10
104.402657878
20
184.82930545
11
104.254925744
21
185.716574159
0
LINE
8
0
10
104.254925744
20
185.716574159
11
104.020724913
21
186.740649872
0
LINE
8
0
10
104.020724913
20
186.740649872
11
103.756663191
21
187.643068722
0
LINE
8
0
10
103.756663191
20
187.643068722
11
102.758961405
21
187.870787644
0
LINE
8
0
10
102.758961405
20
187.870787644
11
101.736632314
21
187.916700496
0
LINE
8
0
10
101.736632314
20
187.916700496
11
101.242009958
21
187.117052388
0
LINE
8
0
10
101.242009958
20
187.117052388
11
100.743807182
21
186.192187484
0
LINE
8
0
10
100.743807182
20
186.192187484
11
100.365352723
21
185.376195593
0
LINE
8
0
10
100.365352723
20
185.376195593
11
100.091613548
21
184.679598363
0
LINE
8
0
10
100.091613548
20
184.679598363
11
99.9067565578
21
184.11149638
0
LINE
8
0
10
99.9067565578
20
184.11149638
11
99.7528527968
21
183.520481889
0
LINE
8
0
10
99.7528527968
20
183.520481889
11
99.6122477723
21
183.206412808
0
LINE
8
0
10
99.6122477723
20
183.206412808
11
99.4554985376
21
183.060845934
0
LINE
8
0
10
99.4554985376
20
183.060845934
11
97.1806788505
21
183.163008204
0
LINE
8
0
10
97.1806788505
20
183.163008204
11
97.0376091561
21
183.322039961
0
LINE
8
0
10
97.0376091561
20
183.322039961
11
96.9257231014
21
183.64744843
0
LINE
8
0
10
96.9257231014
20
183.64744843
11
96.8254170423
21
184.249879497
0
LINE
8
0
10
96.8254170423
20
184.249879497
11
96.692228501
21
184.832264922
0
LINE
8
0
10
96.692228501
20
184.832264922
11
96.4820338141
21
185.550595646
0
LINE
8
0
10
96.4820338141
20
185.550595646
11
96.1782478503
21
186.39722699
0
LINE
8
0
10
96.1782478503
20
186.39722699
11
95.7649549435
21
187.363027212
0
LINE
8
0
10
95.7649549435
20
187.363027212
11
95.344003695
21
188.203793779
0
LINE
8
0
10
95.344003695
20
188.203793779
11
94.3216746036
21
188.249706631
0
LINE
8
0
10
94.3216746036
20
188.249706631
11
93.3075767049
21
188.112337737
0
LINE
8
0
10
93.3075767049
20
188.112337737
11
92.9636858164
21
187.237222071
0
LINE
8
0
10
92.9636858164
20
187.237222071
11
92.6386303699
21
186.238262586
0
LINE
8
0
10
92.6386303699
20
186.238262586
11
92.4119588075
21
185.367808367
0
LINE
8
0
10
92.4119588075
20
185.367808367
11
92.2670009723
21
184.633527724
0
LINE
8
0
10
92.2670009723
20
184.633527724
11
92.186553236
21
184.041547884
0
LINE
8
0
10
92.186553236
20
184.041547884
11
92.140652484
21
183.432550661
0
LINE
8
0
10
92.140652484
20
183.432550661
11
92.05838624
21
183.098422802
0
LINE
8
0
10
92.05838624
20
183.098422802
11
91.930147999
21
182.927206591
0
LINE
8
0
10
91.930147999
20
182.927206591
11
89.6736438224
21
182.621542332
0
LINE
8
0
10
89.6736438224
20
182.621542332
11
89.5044771
21
182.752472304
0
LINE
8
0
10
89.5044771
20
182.752472304
11
89.3362851746
21
183.052673298
0
LINE
8
0
10
89.3362851746
20
183.052673298
11
89.1300228544
21
183.627512711
0
LINE
8
0
10
89.1300228544
20
183.627512711
11
88.8949857749
21
184.17675723
0
LINE
8
0
10
88.8949857749
20
184.17675723
11
88.5599060995
21
184.846012373
0
LINE
8
0
10
88.5599060995
20
184.846012373
11
88.1098302372
21
185.624794925
0
LINE
8
0
10
88.1098302372
20
185.624794925
11
87.5307288289
21
186.501278042
0
LINE
8
0
10
87.5307288289
20
186.501278042
11
86.9664177728
21
187.253369396
0
LINE
8
0
10
86.9664177728
20
187.253369396
11
85.9523198741
21
187.116000502
0
LINE
8
0
10
85.9523198741
20
187.116000502
11
84.979047109
21
186.799765011
0
LINE
8
0
10
84.979047109
20
186.799765011
11
84.7969406245
21
185.877308724
0
LINE
8
0
10
84.7969406245
20
185.877308724
11
84.6554800564
21
184.836362038
0
LINE
8
0
10
84.6554800564
20
184.836362038
11
84.5878768017
21
183.939422606
0
LINE
8
0
10
84.5878768017
20
183.939422606
11
84.5763593699
21
183.191058935
0
LINE
8
0
10
84.5763593699
20
183.191058935
11
84.6029065439
21
182.594227956
0
LINE
8
0
10
84.6029065439
20
182.594227956
11
84.666484089
21
181.986821673
0
LINE
8
0
10
84.666484089
20
181.986821673
11
84.6452007302
21
181.643374182
0
LINE
8
0
10
84.6452007302
20
181.643374182
11
84.5495951655
21
181.452011664
0
LINE
8
0
10
84.5495951655
20
181.452011664
11
82.3839324004
21
180.748345176
0
LINE
8
0
10
82.3839324004
20
180.748345176
11
82.1941058076
21
180.846965164
0
LINE
8
0
10
82.1941058076
20
180.846965164
11
81.9750138383
21
181.112309977
0
LINE
8
0
10
81.9750138383
20
181.112309977
11
81.6694246977
21
181.641081925
0
LINE
8
0
10
81.6694246977
20
181.641081925
11
81.340093365
21
182.139532368
0
LINE
8
0
10
81.340093365
20
182.139532368
11
80.8908984377
21
182.738201519
0
LINE
8
0
10
80.8908984377
20
182.738201519
11
80.3089984856
21
183.424104566
0
LINE
8
0
10
80.3089984856
20
183.424104566
11
79.5827013713
21
184.18309969
0
LINE
8
0
10
79.5827013713
20
184.18309969
11
78.8931679292
21
184.822342997
0
LINE
8
0
10
78.8931679292
20
184.822342997
11
77.9198951641
21
184.506107506
0
LINE
8
0
10
77.9198951641
20
184.506107506
11
77.0187293201
21
184.021169486
0
LINE
8
0
10
77.0187293201
20
184.021169486
11
77.0042602919
21
183.081021083
0
LINE
8
0
10
77.0042602919
20
183.081021083
11
77.0509412613
21
182.031544078
0
LINE
8
0
10
77.0509412613
20
182.031544078
11
77.1445791385
21
181.136947805
0
LINE
8
0
10
77.1445791385
20
181.136947805
11
77.2668722899
21
180.398554129
0
LINE
8
0
10
77.2668722899
20
180.398554129
11
77.3995611263
21
179.81605465
0
LINE
8
0
10
77.3995611263
20
179.81605465
11
77.5705735337
21
179.229761845
0
LINE
8
0
10
77.5705735337
20
179.229761845
11
77.6109571248
21
178.888033406
0
LINE
8
0
10
77.6109571248
20
178.888033406
11
77.5510570779
21
178.682675129
0
LINE
8
0
10
77.5510570779
20
178.682675129
11
75.5458419074
21
177.603622833
0
LINE
8
0
10
75.5458419074
20
177.603622833
11
75.3414566272
21
177.666763111
0
LINE
8
0
10
75.3414566272
20
177.666763111
11
75.0785064102
21
177.888723341
0
LINE
8
0
10
75.0785064102
20
177.888723341
11
74.6834123356
21
178.354432659
0
LINE
8
0
10
74.6834123356
20
178.354432659
11
74.2703717297
21
178.786068418
0
LINE
8
0
10
74.2703717297
20
178.786068418
11
73.721499045
21
179.294909858
0
LINE
8
0
10
73.721499045
20
179.294909858
11
73.0264777463
21
179.865887913
0
LINE
8
0
10
73.0264777463
20
179.865887913
11
72.1763287129
21
180.483000315
0
LINE
8
0
10
72.1763287129
20
180.483000315
11
71.3837350571
21
180.988849769
0
LINE
8
0
10
71.3837350571
20
180.988849769
11
70.4825692131
21
180.503911749
0
LINE
8
0
10
70.4825692131
20
180.503911749
11
69.6824745019
21
179.865857508
0
LINE
8
0
10
69.6824745019
20
179.865857508
11
69.8361079764
21
178.938234132
0
LINE
8
0
10
69.8361079764
20
178.938234132
11
70.0694301185
21
177.913957863
0
LINE
8
0
10
70.0694301185
20
177.913957863
11
70.3212995292
21
177.050457809
0
LINE
8
0
10
70.3212995292
20
177.050457809
11
70.5734726613
21
176.345766708
0
LINE
8
0
10
70.5734726613
20
176.345766708
11
70.8080384316
21
175.796320742
0
LINE
8
0
10
70.8080384316
20
175.796320742
11
71.080989222
21
175.249985349
0
LINE
8
0
10
71.080989222
20
175.249985349
11
71.1817418012
21
174.920959395
0
LINE
8
0
10
71.1817418012
20
174.920959395
11
71.1594725089
21
174.708205744
0
LINE
8
0
10
71.1594725089
20
174.708205744
11
69.3791541984
21
173.288449267
0
LINE
8
0
10
69.3791541984
20
173.288449267
11
69.1667793419
21
173.314080454
0
LINE
8
0
10
69.1667793419
20
173.314080454
11
68.8684223134
21
173.485522118
0
LINE
8
0
10
68.8684223134
20
173.485522118
11
68.3965219536
21
173.873200524
0
LINE
8
0
10
68.3965219536
20
173.873200524
11
67.9130475394
21
174.224148471
0
LINE
8
0
10
67.9130475394
20
174.224148471
11
67.2821383169
21
174.626807618
0
LINE
8
0
10
67.2821383169
20
174.626807618
11
66.496334228
21
175.064508975
0
LINE
8
0
10
66.496334228
20
175.064508975
11
65.5496577651
21
175.519904156
0
LINE
8
0
10
65.5496577651
20
175.519904156
11
64.6794785077
21
175.876101338
0
LINE
8
0
10
64.6794785077
20
175.876101338
11
63.8793837965
21
175.238047097
0
LINE
8
0
10
63.8793837965
20
175.238047097
11
63.2060759204
21
174.467384224
0
LINE
8
0
10
63.2060759204
20
174.467384224
11
63.5228739914
21
173.582100453
0
LINE
8
0
10
63.5228739914
20
173.582100453
11
63.9353381406
21
172.615946002
0
LINE
8
0
10
63.9353381406
20
172.615946002
11
64.3373437946
21
171.811295769
0
LINE
8
0
10
64.3373437946
20
171.811295769
11
64.7112918554
21
171.162956596
0
LINE
8
0
10
64.7112918554
20
171.162956596
11
65.0401954229
21
170.664223788
0
LINE
8
0
10
65.0401954229
20
170.664223788
11
65.4063117331
21
170.175405474
0
LINE
8
0
10
65.4063117331
20
170.175405474
11
65.5641950296
21
169.86965717
0
LINE
8
0
10
65.5641950296
20
169.86965717
11
65.5802722453
21
169.656346222
0
LINE
8
0
10
65.5802722453
20
169.656346222
11
64.0820716903
21
167.941517708
0
LINE
8
0
10
64.0820716903
20
167.941517708
11
63.86853316
21
167.928815995
0
LINE
8
0
10
63.86853316
20
167.928815995
11
63.5443587605
21
168.044228817
0
LINE
8
0
10
63.5443587605
20
168.044228817
11
63.0108193812
21
168.341416009
0
LINE
8
0
10
63.0108193812
20
168.341416009
11
62.4724504243
21
168.600396387
0
LINE
8
0
10
62.4724504243
20
168.600396387
11
61.7797826056
21
168.883931444
0
LINE
8
0
10
61.7797826056
20
168.883931444
11
60.9284521165
21
169.174288023
0
LINE
8
0
10
60.9284521165
20
169.174288023
11
59.9156751844
21
169.453329206
0
LINE
8
0
10
59.9156751844
20
169.453329206
11
58.9958786028
21
169.648425647
0
LINE
8
0
10
58.9958786028
20
169.648425647
11
58.3225707267
21
168.877762773
0
LINE
8
0
10
58.3225707267
20
168.877762773
11
57.7976903548
21
167.999261005
0
LINE
8
0
10
57.7976903548
20
167.999261005
11
58.2674708717
21
167.184770589
0
LINE
8
0
10
58.2674708717
20
167.184770589
11
58.8458200909
21
166.307790956
0
LINE
8
0
10
58.8458200909
20
166.307790956
11
59.3850411957
21
165.587852664
0
LINE
8
0
10
59.3850411957
20
165.587852664
11
59.8687451869
21
165.016703572
0
LINE
8
0
10
59.8687451869
20
165.016703572
11
60.2814153202
21
164.584713606
0
LINE
8
0
10
60.2814153202
20
164.584713606
11
60.7289298709
21
164.169123395
0
LINE
8
0
10
60.7289298709
20
164.169123395
11
60.9388693856
21
163.896479743
0
LINE
8
0
10
60.9388693856
20
163.896479743
11
60.9927763743
21
163.689467488
0
LINE
8
0
10
60.9927763743
20
163.689467488
11
59.8248469734
21
161.734682934
0
LINE
8
0
10
59.8248469734
20
161.734682934
11
59.6170080734
21
161.684056566
0
LINE
8
0
10
59.6170080734
20
161.684056566
11
59.2774355348
21
161.739731082
0
LINE
8
0
10
59.2774355348
20
161.739731082
11
58.6994055306
21
161.936875219
0
LINE
8
0
10
58.6994055306
20
161.936875219
11
58.1234456522
21
162.095564187
0
LINE
8
0
10
58.1234456522
20
162.095564187
11
57.3912821509
21
162.250862104
0
LINE
8
0
10
57.3912821509
20
162.250862104
11
56.501787724
21
162.384541604
0
LINE
8
0
10
56.501787724
20
162.384541604
11
55.4554618066
21
162.478260177
0
LINE
8
0
10
55.4554618066
20
162.478260177
11
54.5156109198
21
162.505985316
0
LINE
8
0
10
54.5156109198
20
162.505985316
11
53.9907305479
21
161.627483548
0
LINE
8
0
10
53.9907305479
20
161.627483548
11
53.6311477674
21
160.669378656
0
LINE
8
0
10
53.6311477674
20
160.669378656
11
54.2388115977
21
159.951859986
0
LINE
8
0
10
54.2388115977
20
159.951859986
11
54.9644572671
21
159.192242017
0
LINE
8
0
10
54.9644572671
20
159.192242017
11
55.6235628128
21
158.580155075
0
LINE
8
0
10
55.6235628128
20
158.580155075
11
56.2014760901
21
158.104553267
0
LINE
8
0
10
56.2014760901
20
158.104553267
11
56.6846492316
21
157.753190655
0
LINE
8
0
10
56.6846492316
20
157.753190655
11
57.1991785369
21
157.424185958
0
LINE
8
0
10
57.1991785369
20
157.424185958
11
57.454426641
21
157.19340995
0
LINE
8
0
10
57.454426641
20
157.19340995
11
57.5444307878
21
156.999349931
0
LINE
8
0
10
57.5444307878
20
156.999349931
11
56.7443107528
21
154.867437722
0
LINE
8
0
10
56.7443107528
20
154.867437722
11
56.5488515964
21
154.780513873
0
LINE
8
0
10
56.5488515964
20
154.780513873
11
56.2047950595
21
154.774660658
0
LINE
8
0
10
56.2047950595
20
154.774660658
11
55.6008527905
21
154.865425365
0
LINE
8
0
10
55.6008527905
20
154.865425365
11
55.0058138149
21
154.918722528
0
LINE
8
0
10
55.0058138149
20
154.918722528
11
54.2576869684
21
154.940791903
0
LINE
8
0
10
54.2576869684
20
154.940791903
11
53.3586176864
21
154.913497755
0
LINE
8
0
10
53.3586176864
20
154.913497755
11
52.3123725597
21
154.818881525
0
LINE
8
0
10
52.3123725597
20
154.818881525
11
51.3826749484
21
154.678344255
0
LINE
8
0
10
51.3826749484
20
154.678344255
11
51.0230921678
21
153.720239362
0
LINE
8
0
10
51.0230921678
20
153.720239362
11
50.840364265
21
152.713325625
0
LINE
8
0
10
50.840364265
20
152.713325625
11
51.5663805933
21
152.115840341
0
LINE
8
0
10
51.5663805933
20
152.115840341
11
52.415999864
21
151.497998783
0
LINE
8
0
10
52.415999864
20
151.497998783
11
53.1738056561
21
151.01343617
0
LINE
8
0
10
53.1738056561
20
151.01343617
11
53.8273536112
21
150.648667879
0
LINE
8
0
10
53.8273536112
20
150.648667879
11
54.3655001786
21
150.389225704
0
LINE
8
0
10
54.3655001786
20
150.389225704
11
54.9305068432
21
150.157381004
0
LINE
8
0
10
54.9305068432
20
150.157381004
11
55.2228596528
21
149.97588997
0
LINE
8
0
10
55.2228596528
20
149.97588997
11
55.3460681503
21
149.801019436
0
LINE
8
0
10
55.3460681503
20
149.801019436
11
54.9394739975
21
147.560500984
0
LINE
8
0
10
54.9394739975
20
147.560500984
11
54.7626768027
21
147.440073457
0
LINE
8
0
10
54.7626768027
20
147.440073457
11
54.4251945277
21
147.372880639
0
LINE
8
0
10
54.4251945277
20
147.372880639
11
53.8147511953
21
147.354348663
0
LINE
8
0
10
53.8147511953
20
147.354348663
11
53.2197581648
21
147.300541008
0
LINE
8
0
10
53.2197581648
20
147.300541008
11
52.4797133855
21
147.188672512
0
LINE
8
0
10
52.4797133855
20
147.188672512
11
51.5999660749
21
147.001281973
0
LINE
8
0
10
51.5999660749
20
147.001281973
11
50.5874289181
21
146.721371984
0
LINE
8
0
10
50.5874289181
20
146.721371984
11
49.6977658286
21
146.417089286
0
LINE
8
0
10
49.6977658286
20
146.417089286
11
49.5150379257
21
145.410175549
0
LINE
8
0
10
49.5150379257
20
145.410175549
11
49.5150379257
21
144.386816003
0
LINE
8
0
10
49.5150379257
20
144.386816003
11
50.3360719898
21
143.928567775
0
LINE
8
0
10
50.3360719898
20
143.928567775
11
51.2823573994
21
143.472360563
0
LINE
8
0
10
51.2823573994
20
143.472360563
11
52.1145069362
21
143.13089652
0
LINE
8
0
10
52.1145069362
20
143.13089652
11
52.8226840001
21
142.888685699
0
LINE
8
0
10
52.8226840001
20
142.888685699
11
53.3985075199
21
142.729502647
0
LINE
8
0
10
53.3985075199
20
142.729502647
11
53.9958317648
21
142.602269621
0
LINE
8
0
10
53.9958317648
20
142.602269621
11
54.3158928199
21
142.475896833
0
LINE
8
0
10
54.3158928199
20
142.475896833
11
54.4683456457
21
142.325836267
0
LINE
8
0
10
54.4683456457
20
142.325836267
11
54.4683456457
21
140.048723679
0
LINE
8
0
10
54.4683456457
20
140.048723679
11
54.3158928199
21
139.898663114
0
LINE
8
0
10
54.3158928199
20
139.898663114
11
53.9958317648
21
139.772290325
0
LINE
8
0
10
53.9958317648
20
139.772290325
11
53.3985075199
21
139.6450573
0
LINE
8
0
10
53.3985075199
20
139.6450573
11
52.8226840001
21
139.485874247
0
LINE
8
0
10
52.8226840001
20
139.485874247
11
52.1145069362
21
139.243663426
0
LINE
8
0
10
52.1145069362
20
139.243663426
11
51.2823573994
21
138.902199383
0
LINE
8
0
10
51.2823573994
20
138.902199383
11
50.3360719898
21
138.445992172
0
LINE
8
0
10
50.3360719898
20
138.445992172
11
49.5150379257
21
137.987743944
0
LINE
8
0
10
49.5150379257
20
137.987743944
11
49.5150379257
21
136.964384398
0
LINE
8
0
10
49.5150379257
20
136.964384398
11
49.6977658286
21
135.95747066
0
LINE
8
0
10
49.6977658286
20
135.95747066
11
50.5874289181
21
135.653187963
0
LINE
8
0
10
50.5874289181
20
135.653187963
11
51.5999660749
21
135.373277973
0
LINE
8
0
10
51.5999660749
20
135.373277973
11
52.4797133855
21
135.185887435
0
LINE
8
0
10
52.4797133855
20
135.185887435
11
53.2197581648
21
135.074018939
0
LINE
8
0
10
53.2197581648
20
135.074018939
11
53.8147511953
21
135.020211283
0
LINE
8
0
10
53.8147511953
20
135.020211283
11
54.4251945277
21
135.001679307
0
LINE
8
0
10
54.4251945277
20
135.001679307
11
54.7626768027
21
134.93448649
0
LINE
8
0
10
54.7626768027
20
134.93448649
11
54.9394739975
21
134.814058962
0
LINE
8
0
10
54.9394739975
20
134.814058962
11
55.3460681503
21
132.57354051
0
LINE
8
0
10
55.3460681503
20
132.57354051
11
55.2228596528
21
132.398669977
0
LINE
8
0
10
55.2228596528
20
132.398669977
11
54.9305068432
21
132.217178943
0
LINE
8
0
10
54.9305068432
20
132.217178943
11
54.3655001786
21
131.985334242
0
LINE
8
0
10
54.3655001786
20
131.985334242
11
53.8273536112
21
131.725892067
0
LINE
8
0
10
53.8273536112
20
131.725892067
11
53.1738056561
21
131.361123776
0
LINE
8
0
10
53.1738056561
20
131.361123776
11
52.415999864
21
130.876561163
0
LINE
8
0
10
52.415999864
20
130.876561163
11
51.5663805933
21
130.258719605
0
LINE
8
0
10
51.5663805933
20
130.258719605
11
50.840364265
21
129.661234322
0
LINE
8
0
10
50.840364265
20
129.661234322
11
51.0230921678
21
128.654320584
0
LINE
8
0
10
51.0230921678
20
128.654320584
11
51.3826749484
21
127.696215692
0
LINE
8
0
10
51.3826749484
20
127.696215692
11
52.3123725597
21
127.555678421
0
LINE
8
0
10
52.3123725597
20
127.555678421
11
53.3586176864
21
127.461062191
0
LINE
8
0
10
53.3586176864
20
127.461062191
11
54.2576869684
21
127.433768044
0
LINE
8
0
10
54.2576869684
20
127.433768044
11
55.0058138149
21
127.455837418
0
LINE
8
0
10
55.0058138149
20
127.455837418
11
55.6008527905
21
127.509134582
0
LINE
8
0
10
55.6008527905
20
127.509134582
11
56.2047950595
21
127.599899288
0
LINE
8
0
10
56.2047950595
20
127.599899288
11
56.5488515964
21
127.594046074
0
LINE
8
0
10
56.5488515964
20
127.594046074
11
56.7443107528
21
127.507122225
0
LINE
8
0
10
56.7443107528
20
127.507122225
11
57.5444307878
21
125.375210015
0
LINE
8
0
10
57.5444307878
20
125.375210015
11
57.454426641
21
125.181149996
0
LINE
8
0
10
57.454426641
20
125.181149996
11
57.1991785369
21
124.950373988
0
LINE
8
0
10
57.1991785369
20
124.950373988
11
56.6846492316
21
124.621369292
0
LINE
8
0
10
56.6846492316
20
124.621369292
11
56.2014760901
21
124.270006679
0
LINE
8
0
10
56.2014760901
20
124.270006679
11
55.6235628128
21
123.794404871
0
LINE
8
0
10
55.6235628128
20
123.794404871
11
54.9644572671
21
123.18231793
0
LINE
8
0
10
54.9644572671
20
123.18231793
11
54.2388115977
21
122.422699961
0
LINE
8
0
10
54.2388115977
20
122.422699961
11
53.6311477674
21
121.705181291
0
LINE
8
0
10
53.6311477674
20
121.705181291
11
53.9907305479
21
120.747076398
0
LINE
8
0
10
53.9907305479
20
120.747076398
11
54.5156109198
21
119.86857463
0
LINE
8
0
10
54.5156109198
20
119.86857463
11
55.4554618066
21
119.89629977
0
LINE
8
0
10
55.4554618066
20
119.89629977
11
56.501787724
21
119.990018342
0
LINE
8
0
10
56.501787724
20
119.990018342
11
57.3912821509
21
120.123697843
0
LINE
8
0
10
57.3912821509
20
120.123697843
11
58.1234456522
21
120.27899576
0
LINE
8
0
10
58.1234456522
20
120.27899576
11
58.6994055306
21
120.437684728
0
LINE
8
0
10
58.6994055306
20
120.437684728
11
59.2774355348
21
120.634828864
0
LINE
8
0
10
59.2774355348
20
120.634828864
11
59.6170080734
21
120.69050338
0
LINE
8
0
10
59.6170080734
20
120.69050338
11
59.8248469734
21
120.639877013
0
LINE
8
0
10
59.8248469734
20
120.639877013
11
60.9927763743
21
118.685092459
0
LINE
8
0
10
60.9927763743
20
118.685092459
11
60.9388693856
21
118.478080203
0
LINE
8
0
10
60.9388693856
20
118.478080203
11
60.7289298709
21
118.205436552
0
LINE
8
0
10
60.7289298709
20
118.205436552
11
60.2814153202
21
117.789846341
0
LINE
8
0
10
60.2814153202
20
117.789846341
11
59.8687451869
21
117.357856374
0
LINE
8
0
10
59.8687451869
20
117.357856374
11
59.3850411957
21
116.786707283
0
LINE
8
0
10
59.3850411957
20
116.786707283
11
58.8458200909
21
116.066768991
0
LINE
8
0
10
58.8458200909
20
116.066768991
11
58.2674708717
21
115.189789358
0
LINE
8
0
10
58.2674708717
20
115.189789358
11
57.7976903548
21
114.375298941
0
LINE
8
0
10
57.7976903548
20
114.375298941
11
58.3225707267
21
113.496797173
0
LINE
8
0
10
58.3225707267
20
113.496797173
11
58.9958786028
21
112.726134299
0
LINE
8
0
10
58.9958786028
20
112.726134299
11
59.9156751844
21
112.921230741
0
LINE
8
0
10
59.9156751844
20
112.921230741
11
60.9284521165
21
113.200271924
0
LINE
8
0
10
60.9284521165
20
113.200271924
11
61.7797826056
21
113.490628502
0
LINE
8
0
10
61.7797826056
20
113.490628502
11
62.4724504243
21
113.774163559
0
LINE
8
0
10
62.4724504243
20
113.774163559
11
63.0108193812
21
114.033143938
0
LINE
8
0
10
63.0108193812
20
114.033143938
11
63.5443587605
21
114.330331129
0
LINE
8
0
10
63.5443587605
20
114.330331129
11
63.86853316
21
114.445743951
0
LINE
8
0
10
63.86853316
20
114.445743951
11
64.0820716903
21
114.433042239
0
LINE
8
0
10
64.0820716903
20
114.433042239
11
65.5802722453
21
112.718213724
0
LINE
8
0
10
65.5802722453
20
112.718213724
11
65.5641950296
21
112.504902776
0
LINE
8
0
10
65.5641950296
20
112.504902776
11
65.4063117331
21
112.199154472
0
LINE
8
0
10
65.4063117331
20
112.199154472
11
65.0401954229
21
111.710336159
0
LINE
8
0
10
65.0401954229
20
111.710336159
11
64.7112918554
21
111.211603351
0
LINE
8
0
10
64.7112918554
20
111.211603351
11
64.3373437946
21
110.563264178
0
LINE
8
0
10
64.3373437946
20
110.563264178
11
63.9353381406
21
109.758613944
0
LINE
8
0
10
63.9353381406
20
109.758613944
11
63.5228739914
21
108.792459494
0
LINE
8
0
10
63.5228739914
20
108.792459494
11
63.2060759204
21
107.907175723
0
LINE
8
0
10
63.2060759204
20
107.907175723
11
63.8793837965
21
107.136512849
0
LINE
8
0
10
63.8793837965
20
107.136512849
11
64.6794785077
21
106.498458608
0
LINE
8
0
10
64.6794785077
20
106.498458608
11
65.5496577651
21
106.854655791
0
LINE
8
0
10
65.5496577651
20
106.854655791
11
66.496334228
21
107.310050972
0
LINE
8
0
10
66.496334228
20
107.310050972
11
67.2821383169
21
107.747752329
0
LINE
8
0
10
67.2821383169
20
107.747752329
11
67.9130475394
21
108.150411476
0
LINE
8
0
10
67.9130475394
20
108.150411476
11
68.3965219536
21
108.501359422
0
LINE
8
0
10
68.3965219536
20
108.501359422
11
68.8684223134
21
108.889037828
0
LINE
8
0
10
68.8684223134
20
108.889037828
11
69.1667793419
21
109.060479493
0
LINE
8
0
10
69.1667793419
20
109.060479493
11
69.3791541984
21
109.086110679
0
LINE
8
0
10
69.3791541984
20
109.086110679
11
71.1594725089
21
107.666354203
0
LINE
8
0
10
71.1594725089
20
107.666354203
11
71.1817418012
21
107.453600552
0
LINE
8
0
10
71.1817418012
20
107.453600552
11
71.080989222
21
107.124574598
0
LINE
8
0
10
71.080989222
20
107.124574598
11
70.8080384316
21
106.578239204
0
LINE
8
0
10
70.8080384316
20
106.578239204
11
70.5734726613
21
106.028793238
0
LINE
8
0
10
70.5734726613
20
106.028793238
11
70.3212995292
21
105.324102138
0
LINE
8
0
10
70.3212995292
20
105.324102138
11
70.0694301185
21
104.460602083
0
LINE
8
0
10
70.0694301185
20
104.460602083
11
69.8361079764
21
103.436325815
0
LINE
8
0
10
69.8361079764
20
103.436325815
11
69.6824745019
21
102.508702438
0
LINE
8
0
10
69.6824745019
20
102.508702438
11
70.4825692131
21
101.870648197
0
LINE
8
0
10
70.4825692131
20
101.870648197
11
71.3837350571
21
101.385710178
0
LINE
8
0
10
71.3837350571
20
101.385710178
11
72.1763287129
21
101.891559631
0
LINE
8
0
10
72.1763287129
20
101.891559631
11
73.0264777463
21
102.508672034
0
LINE
8
0
10
73.0264777463
20
102.508672034
11
73.721499045
21
103.079650088
0
LINE
8
0
10
73.721499045
20
103.079650088
11
74.2703717297
21
103.588491529
0
LINE
8
0
10
74.2703717297
20
103.588491529
11
74.6834123356
21
104.020127287
0
LINE
8
0
10
74.6834123356
20
104.020127287
11
75.0785064102
21
104.485836605
0
LINE
8
0
10
75.0785064102
20
104.485836605
11
75.3414566272
21
104.707796836
0
LINE
8
0
10
75.3414566272
20
104.707796836
11
75.5458419074
21
104.770937113
0
LINE
8
0
10
75.5458419074
20
104.770937113
11
77.5510570779
21
103.691884817
0
LINE
8
0
10
77.5510570779
20
103.691884817
11
77.6109571248
21
103.48652654
0
LINE
8
0
10
77.6109571248
20
103.48652654
11
77.5705735337
21
103.144798101
0
LINE
8
0
10
77.5705735337
20
103.144798101
11
77.3995611263
21
102.558505296
0
LINE
8
0
10
77.3995611263
20
102.558505296
11
77.2668722899
21
101.976005818
0
LINE
8
0
10
77.2668722899
20
101.976005818
11
77.1445791385
21
101.237612142
0
LINE
8
0
10
77.1445791385
20
101.237612142
11
77.0509412613
21
100.343015868
0
LINE
8
0
10
77.0509412613
20
100.343015868
11
77.0042602919
21
99.2935388637
0
LINE
8
0
10
77.0042602919
20
99.2935388637
11
77.0187293201
21
98.3533904604
0
LINE
8
0
10
77.0187293201
20
98.3533904604
11
77.9198951641
21
97.868452441
0
LINE
8
0
10
77.9198951641
20
97.868452441
11
78.8931679292
21
97.5522169498
0
LINE
8
0
10
78.8931679292
20
97.5522169498
11
79.5827013713
21
98.1914602565
0
LINE
8
0
10
79.5827013713
20
98.1914602565
11
80.3089984856
21
98.9504553803
0
LINE
8
0
10
80.3089984856
20
98.9504553803
11
80.8908984377
21
99.6363584274
0
LINE
8
0
10
80.8908984377
20
99.6363584274
11
81.340093365
21
100.235027579
0
LINE
8
0
10
81.340093365
20
100.235027579
11
81.6694246977
21
100.733478021
0
LINE
8
0
10
81.6694246977
20
100.733478021
11
81.9750138383
21
101.26224997
0
LINE
8
0
10
81.9750138383
20
101.26224997
11
82.1941058076
21
101.527594782
0
LINE
8
0
10
82.1941058076
20
101.527594782
11
82.3839324004
21
101.626214771
0
LINE
8
0
10
82.3839324004
20
101.626214771
11
84.5495951655
21
100.922548283
0
LINE
8
0
10
84.5495951655
20
100.922548283
11
84.6452007302
21
100.731185765
0
LINE
8
0
10
84.6452007302
20
100.731185765
11
84.666484089
21
100.387738273
0
LINE
8
0
10
84.666484089
20
100.387738273
11
84.6029065439
21
99.7803319908
0
LINE
8
0
10
84.6029065439
20
99.7803319908
11
84.5763593699
21
99.1835010116
0
LINE
8
0
10
84.5763593699
20
99.1835010116
11
84.5878768017
21
98.4351373404
0
LINE
8
0
10
84.5878768017
20
98.4351373404
11
84.6554800564
21
97.5381979086
0
LINE
8
0
10
84.6554800564
20
97.5381979086
11
84.7969406245
21
96.4972512222
0
LINE
8
0
10
84.7969406245
20
96.4972512222
11
84.979047109
21
95.5747949354
0
LINE
8
0
10
84.979047109
20
95.5747949354
11
85.9523198741
21
95.2585594442
0
LINE
8
0
10
85.9523198741
20
95.2585594442
11
86.9664177728
21
95.1211905502
0
LINE
8
0
10
86.9664177728
20
95.1211905502
11
87.5307288289
21
95.8732819042
0
LINE
8
0
10
87.5307288289
20
95.8732819042
11
88.1098302372
21
96.7497650215
0
LINE
8
0
10
88.1098302372
20
96.7497650215
11
88.5599060995
21
97.5285475731
0
LINE
8
0
10
88.5599060995
20
97.5285475731
11
88.8949857749
21
98.1978027164
0
LINE
8
0
10
88.8949857749
20
98.1978027164
11
89.1300228544
21
98.7470472351
0
LINE
8
0
10
89.1300228544
20
98.7470472351
11
89.3362851746
21
99.3218866488
0
LINE
8
0
10
89.3362851746
20
99.3218866488
11
89.5044771
21
99.622087643
0
LINE
8
0
10
89.5044771
20
99.622087643
11
89.6736438224
21
99.7530176146
0
LINE
8
0
10
89.6736438224
20
99.7530176146
11
91.930147999
21
99.4473533552
0
LINE
8
0
10
91.930147999
20
99.4473533552
11
92.05838624
21
99.2761371441
0
LINE
8
0
10
92.05838624
20
99.2761371441
11
92.140652484
21
98.9420092857
0
LINE
8
0
10
92.140652484
20
98.9420092857
11
92.186553236
21
98.333012063
0
LINE
8
0
10
92.186553236
20
98.333012063
11
92.2670009723
21
97.7410322222
0
LINE
8
0
10
92.2670009723
20
97.7410322222
11
92.4119588075
21
97.0067515799
0
LINE
8
0
10
92.4119588075
20
97.0067515799
11
92.6386303699
21
96.136297361
0
LINE
8
0
10
92.6386303699
20
96.136297361
11
92.9636858164
21
95.137337876
0
LINE
8
0
10
92.9636858164
20
95.137337876
11
93.3075767049
21
94.2622222095
0
LINE
8
0
10
93.3075767049
20
94.2622222095
11
94.3216746036
21
94.1248533155
0
LINE
8
0
10
94.3216746036
20
94.1248533155
11
95.344003695
21
94.1707661679
0
LINE
8
0
10
95.344003695
20
94.1707661679
11
95.7649549435
21
95.0115327344
0
LINE
8
0
10
95.7649549435
20
95.0115327344
11
96.1782478503
21
95.9773329567
0
LINE
8
0
10
96.1782478503
20
95.9773329567
11
96.4820338141
21
96.8239643006
0
LINE
8
0
10
96.4820338141
20
96.8239643006
11
96.692228501
21
97.5422950247
0
LINE
8
0
10
96.692228501
20
97.5422950247
11
96.8254170423
21
98.1246804492
0
LINE
8
0
10
96.8254170423
20
98.1246804492
11
96.9257231014
21
98.7271115164
0
LINE
8
0
10
96.9257231014
20
98.7271115164
11
97.0376091561
21
99.0525199851
0
LINE
8
0
10
97.0376091561
20
99.0525199851
11
97.1806788505
21
99.2115517428
0
LINE
8
0
10
97.1806788505
20
99.2115517428
11
99.4554985376
21
99.3137140128
0
LINE
8
0
10
99.4554985376
20
99.3137140128
11
99.6122477723
21
99.1681471387
0
LINE
8
0
10
99.6122477723
20
99.1681471387
11
99.7528527968
21
98.8540780575
0
LINE
8
0
10
99.7528527968
20
98.8540780575
11
99.9067565578
21
98.2630635664
0
LINE
8
0
10
99.9067565578
20
98.2630635664
11
100.091613548
21
97.6949615832
0
LINE
8
0
10
100.091613548
20
97.6949615832
11
100.365352723
21
96.9983643539
0
LINE
8
0
10
100.365352723
20
96.9983643539
11
100.743807182
21
96.1823724627
0
LINE
8
0
10
100.743807182
20
96.1823724627
11
101.242009958
21
95.2575075587
0
LINE
8
0
10
101.242009958
20
95.2575075587
11
101.736632314
21
94.4578594503
0
LINE
8
0
10
101.736632314
20
94.4578594503
11
102.758961405
21
94.5037723027
0
LINE
8
0
10
102.758961405
20
94.5037723027
11
103.756663191
21
94.7314912247
0
LINE
8
0
10
103.756663191
20
94.7314912247
11
104.020724913
21
95.6339100744
0
LINE
8
0
10
104.020724913
20
95.6339100744
11
104.254925744
21
96.6579857878
0
LINE
8
0
10
104.254925744
20
96.6579857878
11
104.402657878
21
97.5452544961
0
LINE
8
0
10
104.402657878
20
97.5452544961
11
104.481211747
21
98.2895730606
0
LINE
8
0
10
104.481211747
20
98.2895730606
11
104.50827096
21
98.886381044
0
LINE
8
0
10
104.50827096
20
98.886381044
11
104.499396839
21
99.4970411346
0
LINE
8
0
10
104.499396839
20
99.4970411346
11
104.551380913
21
99.8371981818
0
LINE
8
0
10
104.551380913
20
99.8371981818
11
104.663755202
21
100.019220314
0
LINE
8
0
10
104.663755202
20
100.019220314
11
106.883775823
21
100.525925534
0
LINE
8
0
10
106.883775823
20
100.525925534
11
107.063998002
21
100.410686636
0
LINE
8
0
10
107.063998002
20
100.410686636
11
107.258422646
21
100.126770771
0
LINE
8
0
10
107.258422646
20
100.126770771
11
107.515382823
21
99.5727347033
0
LINE
8
0
10
107.515382823
20
99.5727347033
11
107.798707611
21
99.0467698429
0
LINE
8
0
10
107.798707611
20
99.0467698429
11
108.192429923
21
98.4102452346
0
LINE
8
0
10
108.192429923
20
98.4102452346
11
108.710503441
21
97.6749423219
0
LINE
8
0
10
108.710503441
20
97.6749423219
11
109.365840899
21
96.853897918
0
LINE
8
0
10
109.365840899
20
96.853897918
11
109.995297154
21
96.1554187157
0
LINE
8
0
10
109.995297154
20
96.1554187157
11
110.99299894
21
96.3831376377
0
LINE
8
0
10
110.99299894
20
96.3831376377
11
111.934006464
21
96.7853435558
0
LINE
8
0
10
111.934006464
20
96.7853435558
11
112.032691497
21
97.7204102043
0
LINE
8
0
10
112.032691497
20
97.7204102043
11
112.080272845
21
98.7698467729
0
LINE
8
0
10
112.080272845
20
98.7698467729
11
112.067202918
21
99.6692352992
0
LINE
8
0
10
112.067202918
20
99.6692352992
11
112.011591182
21
100.415618693
0
LINE
8
0
10
112.011591182
20
100.415618693
11
111.931651362
21
101.007667336
0
LINE
8
0
10
111.931651362
20
101.007667336
11
111.813882282
21
101.606929332
0
LINE
8
0
10
111.813882282
20
101.606929332
11
111.804293565
21
101.95090203
0
LINE
8
0
10
111.804293565
20
101.95090203
11
111.882360646
21
102.150064196
0
LINE
8
0
10
111.882360646
20
102.150064196
11
113.976228912
21
103.045026443
0
LINE
8
0
10
113.976228912
20
103.045026443
11
114.174131546
21
102.963819394
0
LINE
8
0
10
114.174131546
20
102.963819394
11
114.416126841
21
102.719182034
0
LINE
8
0
10
114.416126841
20
102.719182034
11
114.767884522
21
102.219931566
0
LINE
8
0
10
114.767884522
20
102.219931566
11
115.140570816
21
101.753008772
0
LINE
8
0
10
115.140570816
20
101.753008772
11
115.641621706
21
101.197015209
0
LINE
8
0
10
115.641621706
20
101.197015209
11
116.282662975
21
100.566034515
0
LINE
8
0
10
116.282662975
20
100.566034515
11
117.074072029
21
99.8751996542
0
LINE
8
0
10
117.074072029
20
99.8751996542
11
117.81813094
21
99.3003390543
0
LINE
8
0
10
117.81813094
20
99.3003390543
11
118.759138465
21
99.7025449724
0
LINE
8
0
10
118.759138465
20
99.7025449724
11
119.613206971
21
100.266310657
0
LINE
8
0
10
119.613206971
20
100.266310657
11
119.543343498
21
101.203971293
0
LINE
8
0
10
119.543343498
20
101.203971293
11
119.402776059
21
102.245038962
0
LINE
8
0
10
119.402776059
20
102.245038962
11
119.229324149
21
103.127640219
0
LINE
8
0
10
119.229324149
20
103.127640219
11
119.041334215
21
103.852099066
0
LINE
8
0
10
119.041334215
20
103.852099066
11
118.856964694
21
104.420359438
0
LINE
8
0
10
118.856964694
20
104.420359438
11
118.63408585
21
104.988962566
0
LINE
8
0
10
118.63408585
20
104.988962566
11
118.56323253
21
105.32569535
0
LINE
8
0
10
118.56323253
20
105.32569535
11
118.604483263
21
105.535596313
0
LINE
8
0
10
118.604483263
20
105.535596313
11
120.504900525
21
106.790050764
0
LINE
8
0
10
120.504900525
20
106.790050764
11
120.714122861
21
106.745485626
0
LINE
8
0
10
120.714122861
20
106.745485626
11
120.99591088
21
106.547989618
0
LINE
8
0
10
120.99591088
20
106.547989618
11
121.431160283
21
106.119571069
0
LINE
8
0
10
121.431160283
20
106.119571069
11
121.88122964
21
105.726697623
0
LINE
8
0
10
121.88122964
20
105.726697623
11
122.47350492
21
105.269105197
0
LINE
8
0
10
122.47350492
20
105.269105197
11
123.216910345
21
104.762726961
0
LINE
8
0
10
123.216910345
20
104.762726961
11
124.118954458
21
104.224305643
0
LINE
8
0
10
124.118954458
20
104.224305643
11
124.95370136
21
103.791540139
0
LINE
8
0
10
124.95370136
20
103.791540139
11
125.807769866
21
104.355305824
0
LINE
8
0
10
125.807769866
20
104.355305824
11
126.54744889
21
105.062511383
0
LINE
8
0
10
126.54744889
20
105.062511383
11
126.31128238
21
105.972628822
0
LINE
8
0
10
126.31128238
20
105.972628822
11
125.987084108
21
106.971866819
0
LINE
8
0
10
125.987084108
20
106.971866819
11
125.658825101
21
107.809313277
0
LINE
8
0
10
125.658825101
20
107.809313277
11
125.344499121
21
108.488562873
0
LINE
8
0
10
125.344499121
20
108.488562873
11
125.061625687
21
109.014770617
0
LINE
8
0
10
125.061625687
20
109.014770617
11
124.740800589
21
109.534439505
0
LINE
8
0
10
124.740800589
20
109.534439505
11
124.610959951
21
109.853109506
0
LINE
8
0
10
124.610959951
20
109.853109506
11
124.614068503
21
110.067002877
0
LINE
8
0
10
124.614068503
20
110.067002877
11
126.259953786
21
111.640630334
0
LINE
8
0
10
126.259953786
20
111.640630334
11
126.473771246
21
111.634139467
0
LINE
8
0
10
126.473771246
20
111.634139467
11
126.786295089
21
111.490132494
0
LINE
8
0
10
126.786295089
20
111.490132494
11
127.291046941
21
111.146315589
0
LINE
8
0
10
127.291046941
20
111.146315589
11
127.804033761
21
110.840118769
0
LINE
8
0
10
127.804033761
20
110.840118769
11
128.468497216
21
110.495634876
0
LINE
8
0
10
128.468497216
20
110.495634876
11
129.290373136
21
110.130134511
0
LINE
8
0
10
129.290373136
20
110.130134511
11
130.274059867
21
109.761432041
0
LINE
8
0
10
130.274059867
20
109.761432041
11
131.172665307
21
109.484671071
0
LINE
8
0
10
131.172665307
20
109.484671071
11
131.912344331
21
110.19187663
0
LINE
8
0
10
131.912344331
20
110.19187663
11
132.513859981
21
111.019791894
0
LINE
8
0
10
132.513859981
20
111.019791894
11
132.11898102
21
111.873114213
0
LINE
8
0
10
132.11898102
20
111.873114213
11
131.621571913
21
112.798406208
0
LINE
8
0
10
131.621571913
20
112.798406208
11
131.149056325
21
113.563781647
0
LINE
8
0
10
131.149056325
20
113.563781647
11
130.718496993
21
114.175990352
0
LINE
8
0
10
130.718496993
20
114.175990352
11
130.346211431
21
114.643232719
0
LINE
8
0
10
130.346211431
20
114.643232719
11
129.937751661
21
115.097264781
0
LINE
8
0
10
129.937751661
20
115.097264781
11
129.75309689
21
115.387629683
0
LINE
8
0
10
129.75309689
20
115.387629683
11
129.717963351
21
115.598640753
0
LINE
8
0
10
129.717963351
20
115.598640753
11
131.056416548
21
117.440863535
0
LINE
8
0
10
131.056416548
20
117.440863535
11
131.267956862
21
117.47265556
0
LINE
8
0
10
131.267956862
20
117.47265556
11
131.601171756
21
117.386766125
0
LINE
8
0
10
131.601171756
20
117.386766125
11
132.159202917
21
117.138601423
0
LINE
8
0
10
132.159202917
20
117.138601423
11
132.718619381
21
116.928922645
0
LINE
8
0
10
132.718619381
20
116.928922645
11
133.433914609
21
116.708619281
0
LINE
8
0
10
133.433914609
20
116.708619281
11
134.307845255
21
116.49574427
0
LINE
8
0
10
134.307845255
20
116.49574427
11
135.341558104
21
116.308611048
0
LINE
8
0
10
135.341558104
20
116.308611048
11
136.275140165
21
116.196749938
0
LINE
8
0
10
136.275140165
20
116.196749938
11
136.876655814
21
117.024665202
0
LINE
8
0
10
136.876655814
20
117.024665202
11
137.320674881
21
117.946680294
0
LINE
8
0
10
137.320674881
20
117.946680294
11
136.779775204
21
118.715781011
0
LINE
8
0
10
136.779775204
20
118.715781011
11
136.125142401
21
119.537387358
0
LINE
8
0
10
136.125142401
20
119.537387358
11
135.52355727
21
120.206091983
0
LINE
8
0
10
135.52355727
20
120.206091983
11
134.990603119
21
120.731582904
0
LINE
8
0
10
134.990603119
20
120.731582904
11
134.540870993
21
121.124842341
0
LINE
8
0
10
134.540870993
20
121.124842341
11
134.057904785
21
121.498644612
0
LINE
8
0
10
134.057904785
20
121.498644612
11
133.824370836
21
121.751371848
0
LINE
8
0
10
133.824370836
20
121.751371848
11
133.752124426
21
121.952718548
0
LINE
8
0
10
133.752124426
20
121.952718548
11
134.74012655
21
124.004326098
0
LINE
8
0
10
134.74012655
20
124.004326098
11
134.942590639
21
124.073379194
0
LINE
8
0
10
134.942590639
20
124.073379194
11
135.285786783
21
124.048367855
0
LINE
8
0
10
135.285786783
20
124.048367855
11
135.879161673
21
123.903831573
0
LINE
8
0
10
135.879161673
20
123.903831573
11
136.467027676
21
123.797410086
0
LINE
8
0
10
136.467027676
20
123.797410086
11
137.2101645
21
123.708367982
0
LINE
8
0
10
137.2101645
20
123.708367982
11
138.108061022
21
123.654960302
0
LINE
8
0
10
138.108061022
20
123.654960302
11
139.158575607
21
123.655410945
0
LINE
8
0
10
139.158575607
20
123.655410945
11
140.097128192
21
123.712045003
0
LINE
8
0
10
140.097128192
20
123.712045003
11
140.541147259
21
124.634060095
0
LINE
8
0
10
140.541147259
20
124.634060095
11
140.813398604
21
125.62054069
0
LINE
8
0
10
140.813398604
20
125.62054069
11
140.143863172
21
126.280700276
0
LINE
8
0
10
140.143863172
20
126.280700276
11
139.353047109
21
126.97221387
0
LINE
8
0
10
139.353047109
20
126.97221387
11
138.641727878
21
127.522754963
0
LINE
8
0
10
138.641727878
20
127.522754963
11
138.023508493
21
127.944638391
0
LINE
8
0
10
138.023508493
20
127.944638391
11
137.510784562
21
128.251275215
0
LINE
8
0
10
137.510784562
20
128.251275215
11
136.968834847
21
128.532833384
0
LINE
8
0
10
136.968834847
20
128.532833384
11
136.693927695
21
128.739800092
0
LINE
8
0
10
136.693927695
20
128.739800092
11
136.586890472
21
128.925010973
0
LINE
8
0
10
136.586890472
20
128.925010973
11
137.192686322
21
131.120062937
0
LINE
8
0
10
137.192686322
20
131.120062937
11
137.379566824
21
131.224157681
0
LINE
8
0
10
137.379566824
20
131.224157681
11
137.721713612
21
131.260828322
0
LINE
8
0
10
137.721713612
20
131.260828322
11
138.331360673
21
131.224565975
0
LINE
8
0
10
138.331360673
20
131.224565975
11
138.928781717
21
131.224822253
0
LINE
8
0
10
138.928781717
20
131.224822253
11
139.675875109
21
131.269903296
0
LINE
8
0
10
139.675875109
20
131.269903296
11
140.568878373
21
131.377679515
0
LINE
8
0
10
140.568878373
20
131.377679515
11
141.602430291
21
131.565699538
0
LINE
8
0
10
141.602430291
20
131.565699538
11
142.51578755
21
131.789008498
0
LINE
8
0
10
96.7471181581
20
139.720058572
11
96.4352506219
21
139.687279973
0
LINE
8
0
10
96.4352506219
20
139.687279973
11
96.1233830857
21
139.720058572
0
LINE
8
0
10
96.1233830857
20
139.720058572
11
95.8251456573
21
139.816961787
0
LINE
8
0
10
95.8251456573
20
139.816961787
11
95.5535727435
21
139.973754482
0
LINE
8
0
10
95.5535727435
20
139.973754482
11
95.3205333837
21
140.183584064
0
LINE
8
0
10
95.3205333837
20
140.183584064
11
95.1362125162
21
140.437279973
0
LINE
8
0
10
95.1362125162
20
140.437279973
11
95.0086658475
21
140.723754482
0
LINE
8
0
10
95.0086658475
20
140.723754482
11
94.9434677789
21
141.030487278
0
LINE
8
0
10
94.9434677789
20
141.030487278
11
94.9434677789
21
141.344072668
0
LINE
8
0
10
94.9434677789
20
141.344072668
11
95.0086658475
21
141.650805465
0
LINE
8
0
10
95.0086658475
20
141.650805465
11
95.1362125162
21
141.937279973
0
LINE
8
0
10
95.1362125162
20
141.937279973
11
95.3205333837
21
142.190975883
0
LINE
8
0
10
95.3205333837
20
142.190975883
11
95.5535727435
21
142.400805465
0
LINE
8
0
10
95.5535727435
20
142.400805465
11
95.8251456573
21
142.55759816
0
LINE
8
0
10
95.8251456573
20
142.55759816
11
96.1233830857
21
142.654501374
0
LINE
8
0
10
96.1233830857
20
142.654501374
11
96.4352506219
21
142.687279973
0
LINE
8
0
10
96.4352506219
20
142.687279973
11
96.7471181581
21
142.654501374
0
LINE
8
0
10
96.7471181581
20
142.654501374
11
97.0453555865
21
142.55759816
0
LINE
8
0
10
97.0453555865
20
142.55759816
11
97.3169285004
21
142.400805465
0
LINE
8
0
10
97.3169285004
20
142.400805465
11
97.5499678601
21
142.190975883
0
LINE
8
0
10
97.5499678601
20
142.190975883
11
97.7342887276
21
141.937279973
0
LINE
8
0
10
97.7342887276
20
141.937279973
11
97.8618353964
21
141.650805465
0
LINE
8
0
10
97.8618353964
20
141.650805465
11
97.927033465
21
141.344072668
0
LINE
8
0
10
97.927033465
20
141.344072668
11
97.927033465
21
141.030487278
0
LINE
8
0
10
97.927033465
20
141.030487278
11
97.8618353964
21
140.723754482
0
LINE
8
0
10
97.8618353964
20
140.723754482
11
97.7342887276
21
140.437279973
0
LINE
8
0
10
97.7342887276
20
140.437279973
11
97.5499678601
21
140.183584064
0
LINE
8
0
10
97.5499678601
20
140.183584064
11
97.3169285004
21
139.973754482
0
LINE
8
0
10
97.3169285004
20
139.973754482
11
97.0453555865
21
139.816961787
0
LINE
8
0
10
97.0453555865
20
139.816961787
11
96.7471181581
21
139.720058572
0
LINE
8
0
10
192.030825475
20
37.6641551825
11
192.303076821
21
38.6506357784
0
LINE
8
0
10
192.303076821
20
38.6506357784
11
192.394810063
21
39.6698755801
0
LINE
8
0
10
192.394810063
20
39.6698755801
11
191.618158295
21
40.1998759615
0
LINE
8
0
10
191.618158295
20
40.1998759615
11
190.716576452
21
40.7390709869
0
LINE
8
0
10
190.716576452
20
40.7390709869
11
189.918385505
21
41.1537537057
0
LINE
8
0
10
189.918385505
20
41.1537537057
11
189.234770965
21
41.4584699596
0
LINE
8
0
10
189.234770965
20
41.4584699596
11
188.6755346
21
41.6686286103
0
LINE
8
0
10
188.6755346
20
41.6686286103
11
188.092020087
21
41.8488931653
0
LINE
8
0
10
188.092020087
20
41.8488931653
11
187.784575473
21
42.003447266
0
LINE
8
0
10
187.784575473
20
42.003447266
11
187.646187703
21
42.1665694978
0
LINE
8
0
10
187.646187703
20
42.1665694978
11
187.850306502
21
44.4345150999
0
LINE
8
0
10
187.850306502
20
44.4345150999
11
188.015596923
21
44.5703057999
0
LINE
8
0
10
188.015596923
20
44.5703057999
11
188.345697476
21
44.6674797969
0
LINE
8
0
10
188.345697476
20
44.6674797969
11
188.952022149
21
44.7406568869
0
LINE
8
0
10
188.952022149
20
44.7406568869
11
189.539796632
21
44.8475826929
0
LINE
8
0
10
189.539796632
20
44.8475826929
11
190.266834393
21
45.0253379417
0
LINE
8
0
10
190.266834393
20
45.0253379417
11
191.126242542
21
45.2908340417
0
LINE
8
0
10
191.126242542
20
45.2908340417
11
192.109612584
21
45.6603803268
0
LINE
8
0
10
192.109612584
20
45.6603803268
11
192.96841846
21
46.043186856
0
LINE
8
0
10
192.96841846
20
46.043186856
11
193.060151703
21
47.0624266578
0
LINE
8
0
10
193.060151703
20
47.0624266578
11
192.96841846
21
48.0816664595
0
LINE
8
0
10
192.96841846
20
48.0816664595
11
192.109612584
21
48.4644729887
0
LINE
8
0
10
192.109612584
20
48.4644729887
11
191.126242542
21
48.8340192738
0
LINE
8
0
10
191.126242542
20
48.8340192738
11
190.266834393
21
49.0995153739
0
LINE
8
0
10
190.266834393
20
49.0995153739
11
189.539796632
21
49.2772706226
0
LINE
8
0
10
189.539796632
20
49.2772706226
11
188.952022149
21
49.3841964286
0
LINE
8
0
10
188.952022149
20
49.3841964286
11
188.345697476
21
49.4573735186
0
LINE
8
0
10
188.345697476
20
49.4573735186
11
188.015596923
21
49.5545475157
0
LINE
8
0
10
188.015596923
20
49.5545475157
11
187.850306502
21
49.6903382156
0
LINE
8
0
10
187.850306502
20
49.6903382156
11
187.646187703
21
51.9582838177
0
LINE
8
0
10
187.646187703
20
51.9582838177
11
187.784575473
21
52.1214060495
0
LINE
8
0
10
187.784575473
20
52.1214060495
11
188.092020087
21
52.2759601502
0
LINE
8
0
10
188.092020087
20
52.2759601502
11
188.6755346
21
52.4562247052
0
LINE
8
0
10
188.6755346
20
52.4562247052
11
189.234770965
21
52.6663833559
0
LINE
8
0
10
189.234770965
20
52.6663833559
11
189.918385505
21
52.9710996098
0
LINE
8
0
10
189.918385505
20
52.9710996098
11
190.716576452
21
53.3857823286
0
LINE
8
0
10
190.716576452
20
53.3857823286
11
191.618158295
21
53.924977354
0
LINE
8
0
10
191.618158295
20
53.924977354
11
192.394810063
21
54.4549777354
0
LINE
8
0
10
192.394810063
20
54.4549777354
11
192.303076821
21
55.4742175371
0
LINE
8
0
10
192.303076821
20
55.4742175371
11
192.030825475
21
56.460698133
0
LINE
8
0
10
192.030825475
20
56.460698133
11
191.117468217
21
56.6840070932
0
LINE
8
0
10
191.117468217
20
56.6840070932
11
190.083916299
21
56.8720271164
0
LINE
8
0
10
190.083916299
20
56.8720271164
11
189.190913034
21
56.9798033346
0
LINE
8
0
10
189.190913034
20
56.9798033346
11
188.443819643
21
57.0248843782
0
LINE
8
0
10
188.443819643
20
57.0248843782
11
187.846398598
21
57.025140656
0
LINE
8
0
10
187.846398598
20
57.025140656
11
187.236751538
21
56.9888783091
0
LINE
8
0
10
187.236751538
20
56.9888783091
11
186.89460475
21
57.0255489504
0
LINE
8
0
10
186.89460475
20
57.0255489504
11
186.707724248
21
57.1296436936
0
LINE
8
0
10
186.707724248
20
57.1296436936
11
186.101928398
21
59.3246956581
0
LINE
8
0
10
186.101928398
20
59.3246956581
11
186.208965621
21
59.509906539
0
LINE
8
0
10
186.208965621
20
59.509906539
11
186.483872773
21
59.7168732472
0
LINE
8
0
10
186.483872773
20
59.7168732472
11
187.025822488
21
59.9984314162
0
LINE
8
0
10
187.025822488
20
59.9984314162
11
187.538546418
21
60.3050682396
0
LINE
8
0
10
187.538546418
20
60.3050682396
11
188.156765804
21
60.7269516676
0
LINE
8
0
10
188.156765804
20
60.7269516676
11
188.868085035
21
61.2774927614
0
LINE
8
0
10
188.868085035
20
61.2774927614
11
189.658901098
21
61.9690063553
0
LINE
8
0
10
189.658901098
20
61.9690063553
11
190.32843653
21
62.6291659406
0
LINE
8
0
10
190.32843653
20
62.6291659406
11
190.056185185
21
63.6156465364
0
LINE
8
0
10
190.056185185
20
63.6156465364
11
189.612166118
21
64.5376616284
0
LINE
8
0
10
189.612166118
20
64.5376616284
11
188.673613532
21
64.5942956859
0
LINE
8
0
10
188.673613532
20
64.5942956859
11
187.623098947
21
64.5947463288
0
LINE
8
0
10
187.623098947
20
64.5947463288
11
186.725202426
21
64.5413386488
0
LINE
8
0
10
186.725202426
20
64.5413386488
11
185.982065601
21
64.4522965455
0
LINE
8
0
10
185.982065601
20
64.4522965455
11
185.394199599
21
64.3458750582
0
LINE
8
0
10
185.394199599
20
64.3458750582
11
184.800824709
21
64.2013387761
0
LINE
8
0
10
184.800824709
20
64.2013387761
11
184.457628565
21
64.176327437
0
LINE
8
0
10
184.457628565
20
64.176327437
11
184.255164475
21
64.2453805328
0
LINE
8
0
10
184.255164475
20
64.2453805328
11
183.267162351
21
66.2969880833
0
LINE
8
0
10
183.267162351
20
66.2969880833
11
183.339408762
21
66.4983347832
0
LINE
8
0
10
183.339408762
20
66.4983347832
11
183.57294271
21
66.7510620188
0
LINE
8
0
10
183.57294271
20
66.7510620188
11
184.055908918
21
67.1248642904
0
LINE
8
0
10
184.055908918
20
67.1248642904
11
184.505641045
21
67.5181237268
0
LINE
8
0
10
184.505641045
20
67.5181237268
11
185.038595196
21
68.0436146484
0
LINE
8
0
10
185.038595196
20
68.0436146484
11
185.640180326
21
68.7123192734
0
LINE
8
0
10
185.640180326
20
68.7123192734
11
186.29481313
21
69.53392562
0
LINE
8
0
10
186.29481313
20
69.53392562
11
186.835712806
21
70.3030263368
0
LINE
8
0
10
186.835712806
20
70.3030263368
11
186.39169374
21
71.2250414287
0
LINE
8
0
10
186.39169374
20
71.2250414287
11
185.790178091
21
72.0529566931
0
LINE
8
0
10
185.790178091
20
72.0529566931
11
184.85659603
21
71.9410955827
0
LINE
8
0
10
184.85659603
20
71.9410955827
11
183.822883181
21
71.7539623614
0
LINE
8
0
10
183.822883181
20
71.7539623614
11
182.948952535
21
71.54108735
0
LINE
8
0
10
182.948952535
20
71.54108735
11
182.233657307
21
71.3207839861
0
LINE
8
0
10
182.233657307
20
71.3207839861
11
181.674240843
21
71.111105208
0
LINE
8
0
10
181.674240843
20
71.111105208
11
181.116209682
21
70.8629405056
0
LINE
8
0
10
181.116209682
20
70.8629405056
11
180.782994788
21
70.7770510712
0
LINE
8
0
10
180.782994788
20
70.7770510712
11
180.571454473
21
70.8088430963
0
LINE
8
0
10
180.571454473
20
70.8088430963
11
179.233001276
21
72.6510658781
0
LINE
8
0
10
179.233001276
20
72.6510658781
11
179.268134816
21
72.8620769484
0
LINE
8
0
10
179.268134816
20
72.8620769484
11
179.452789587
21
73.15244185
0
LINE
8
0
10
179.452789587
20
73.15244185
11
179.861249357
21
73.6064739117
0
LINE
8
0
10
179.861249357
20
73.6064739117
11
180.233534919
21
74.0737162792
0
LINE
8
0
10
180.233534919
20
74.0737162792
11
180.66409425
21
74.6859249838
0
LINE
8
0
10
180.66409425
20
74.6859249838
11
181.136609839
21
75.4513004231
0
LINE
8
0
10
181.136609839
20
75.4513004231
11
181.634018946
21
76.3765924183
0
LINE
8
0
10
181.634018946
20
76.3765924183
11
182.028897906
21
77.2299147369
0
LINE
8
0
10
182.028897906
20
77.2299147369
11
181.427382257
21
78.0578300013
0
LINE
8
0
10
181.427382257
20
78.0578300013
11
180.687703233
21
78.7650355603
0
LINE
8
0
10
180.687703233
20
78.7650355603
11
179.789097792
21
78.48827459
0
LINE
8
0
10
179.789097792
20
78.48827459
11
178.805411061
21
78.1195721202
0
LINE
8
0
10
178.805411061
20
78.1195721202
11
177.983535141
21
77.7540717554
0
LINE
8
0
10
177.983535141
20
77.7540717554
11
177.319071686
21
77.4095878624
0
LINE
8
0
10
177.319071686
20
77.4095878624
11
176.806084867
21
77.1033910418
0
LINE
8
0
10
176.806084867
20
77.1033910418
11
176.301333015
21
76.759574137
0
LINE
8
0
10
176.301333015
20
76.759574137
11
175.988809171
21
76.6155671643
0
LINE
8
0
10
175.988809171
20
76.6155671643
11
175.774991712
21
76.6090762968
0
LINE
8
0
10
175.774991712
20
76.6090762968
11
174.129106429
21
78.1827037539
0
LINE
8
0
10
174.129106429
20
78.1827037539
11
174.125997876
21
78.3965971253
0
LINE
8
0
10
174.125997876
20
78.3965971253
11
174.255838514
21
78.715267126
0
LINE
8
0
10
174.255838514
20
78.715267126
11
174.576663612
21
79.2349360138
0
LINE
8
0
10
174.576663612
20
79.2349360138
11
174.859537046
21
79.7611437583
0
LINE
8
0
10
174.859537046
20
79.7611437583
11
175.173863027
21
80.4403933543
0
LINE
8
0
10
175.173863027
20
80.4403933543
11
175.502122033
21
81.2778398116
0
LINE
8
0
10
175.502122033
20
81.2778398116
11
175.826320306
21
82.2770778094
0
LINE
8
0
10
175.826320306
20
82.2770778094
11
176.062486816
21
83.1871952483
0
LINE
8
0
10
176.062486816
20
83.1871952483
11
175.322807792
21
83.8944008073
0
LINE
8
0
10
175.322807792
20
83.8944008073
11
174.468739286
21
84.4581664923
0
LINE
8
0
10
174.468739286
20
84.4581664923
11
173.633992383
21
84.0254009875
0
LINE
8
0
10
173.633992383
20
84.0254009875
11
172.731948271
21
83.48697967
0
LINE
8
0
10
172.731948271
20
83.48697967
11
171.988542845
21
82.9806014342
0
LINE
8
0
10
171.988542845
20
82.9806014342
11
171.396267566
21
82.5230090079
0
LINE
8
0
10
171.396267566
20
82.5230090079
11
170.946198209
21
82.1301355625
0
LINE
8
0
10
170.946198209
20
82.1301355625
11
170.510948805
21
81.7017170135
0
LINE
8
0
10
170.510948805
20
81.7017170135
11
170.229160787
21
81.5042210051
0
LINE
8
0
10
170.229160787
20
81.5042210051
11
170.019938451
21
81.4596558668
0
LINE
8
0
10
170.019938451
20
81.4596558668
11
168.119521189
21
82.714110318
0
LINE
8
0
10
168.119521189
20
82.714110318
11
168.078270456
21
82.9240112814
0
LINE
8
0
10
168.078270456
20
82.9240112814
11
168.149123776
21
83.2607440653
0
LINE
8
0
10
168.149123776
20
83.2607440653
11
168.37200262
21
83.8293471935
0
LINE
8
0
10
168.37200262
20
83.8293471935
11
168.55637214
21
84.3976075651
0
LINE
8
0
10
168.55637214
20
84.3976075651
11
168.744362074
21
85.1220664117
0
LINE
8
0
10
168.744362074
20
85.1220664117
11
168.917813985
21
86.0046676688
0
LINE
8
0
10
168.917813985
20
86.0046676688
11
169.058381424
21
87.0457353377
0
LINE
8
0
10
169.058381424
20
87.0457353377
11
169.128244897
21
87.9833959736
0
LINE
8
0
10
169.128244897
20
87.9833959736
11
168.27417639
21
88.5471616586
0
LINE
8
0
10
168.27417639
20
88.5471616586
11
167.333168866
21
88.9493675767
0
LINE
8
0
10
167.333168866
20
88.9493675767
11
166.589109955
21
88.3745069769
0
LINE
8
0
10
166.589109955
20
88.3745069769
11
165.797700901
21
87.6836721157
0
LINE
8
0
10
165.797700901
20
87.6836721157
11
165.156659632
21
87.0526914221
0
LINE
8
0
10
165.156659632
20
87.0526914221
11
164.655608742
21
86.4966978595
0
LINE
8
0
10
164.655608742
20
86.4966978595
11
164.282922447
21
86.0297750652
0
LINE
8
0
10
164.282922447
20
86.0297750652
11
163.931164767
21
85.5305245966
0
LINE
8
0
10
163.931164767
20
85.5305245966
11
163.689169472
21
85.2858872367
0
LINE
8
0
10
163.689169472
20
85.2858872367
11
163.491266837
21
85.204680188
0
LINE
8
0
10
163.491266837
20
85.204680188
11
161.397398571
21
86.0996424349
0
LINE
8
0
10
161.397398571
20
86.0996424349
11
161.31933149
21
86.2988046008
0
LINE
8
0
10
161.31933149
20
86.2988046008
11
161.328920208
21
86.6427772991
0
LINE
8
0
10
161.328920208
20
86.6427772991
11
161.446689288
21
87.2420392953
0
LINE
8
0
10
161.446689288
20
87.2420392953
11
161.526629107
21
87.834087938
0
LINE
8
0
10
161.526629107
20
87.834087938
11
161.582240844
21
88.5804713318
0
LINE
8
0
10
161.582240844
20
88.5804713318
11
161.595310771
21
89.4798598581
0
LINE
8
0
10
161.595310771
20
89.4798598581
11
161.547729423
21
90.5292964267
0
LINE
8
0
10
161.547729423
20
90.5292964267
11
161.449044389
21
91.4643630752
0
LINE
8
0
10
161.449044389
20
91.4643630752
11
160.508036865
21
91.8665689933
0
LINE
8
0
10
160.508036865
20
91.8665689933
11
159.510335079
21
92.0942879153
0
LINE
8
0
10
159.510335079
20
92.0942879153
11
158.880878824
21
91.395808713
0
LINE
8
0
10
158.880878824
20
91.395808713
11
158.225541367
21
90.5747643091
0
LINE
8
0
10
158.225541367
20
90.5747643091
11
157.707467848
21
89.8394613964
0
LINE
8
0
10
157.707467848
20
89.8394613964
11
157.313745537
21
89.2029367881
0
LINE
8
0
10
157.313745537
20
89.2029367881
11
157.030420748
21
88.6769719277
0
LINE
8
0
10
157.030420748
20
88.6769719277
11
156.773460572
21
88.1229358603
0
LINE
8
0
10
156.773460572
20
88.1229358603
11
156.579035928
21
87.839019995
0
LINE
8
0
10
156.579035928
20
87.839019995
11
156.398813749
21
87.7237810971
0
LINE
8
0
10
156.398813749
20
87.7237810971
11
154.178793128
21
88.2304863169
0
LINE
8
0
10
154.178793128
20
88.2304863169
11
154.066418839
21
88.4125084492
0
LINE
8
0
10
154.066418839
20
88.4125084492
11
154.014434765
21
88.7526654964
0
LINE
8
0
10
154.014434765
20
88.7526654964
11
154.023308886
21
89.363325587
0
LINE
8
0
10
154.023308886
20
89.363325587
11
153.996249672
21
89.9601335704
0
LINE
8
0
10
153.996249672
20
89.9601335704
11
153.917695804
21
90.7044521349
0
LINE
8
0
10
153.917695804
20
90.7044521349
11
153.76996367
21
91.5917208432
0
LINE
8
0
10
153.76996367
20
91.5917208432
11
153.535762839
21
92.6157965567
0
LINE
8
0
10
153.535762839
20
92.6157965567
11
153.271701117
21
93.5182154063
0
LINE
8
0
10
153.271701117
20
93.5182154063
11
152.273999331
21
93.7459343283
0
LINE
8
0
10
152.273999331
20
93.7459343283
11
151.25167024
21
93.7918471808
0
LINE
8
0
10
151.25167024
20
93.7918471808
11
150.757047883
21
92.9921990723
0
LINE
8
0
10
150.757047883
20
92.9921990723
11
150.258845108
21
92.0673341683
0
LINE
8
0
10
150.258845108
20
92.0673341683
11
149.880390648
21
91.2513422772
0
LINE
8
0
10
149.880390648
20
91.2513422772
11
149.606651474
21
90.5547450478
0
LINE
8
0
10
149.606651474
20
90.5547450478
11
149.421794484
21
89.9866430646
0
LINE
8
0
10
149.421794484
20
89.9866430646
11
149.267890723
21
89.3956285736
0
LINE
8
0
10
149.267890723
20
89.3956285736
11
149.127285698
21
89.0815594924
0
LINE
8
0
10
149.127285698
20
89.0815594924
11
148.970536463
21
88.9359926183
0
LINE
8
0
10
148.970536463
20
88.9359926183
11
146.695716776
21
89.0381548882
0
LINE
8
0
10
146.695716776
20
89.0381548882
11
146.552647082
21
89.197186646
0
LINE
8
0
10
146.552647082
20
89.197186646
11
146.440761027
21
89.5225951146
0
LINE
8
0
10
146.440761027
20
89.5225951146
11
146.340454968
21
90.1250261818
0
LINE
8
0
10
146.340454968
20
90.1250261818
11
146.207266427
21
90.7074116063
0
LINE
8
0
10
146.207266427
20
90.7074116063
11
145.99707174
21
91.4257423304
0
LINE
8
0
10
145.99707174
20
91.4257423304
11
145.693285776
21
92.2723736743
0
LINE
8
0
10
145.693285776
20
92.2723736743
11
145.279992869
21
93.2381738966
0
LINE
8
0
10
145.279992869
20
93.2381738966
11
144.859041621
21
94.0789404631
0
LINE
8
0
10
144.859041621
20
94.0789404631
11
143.836712529
21
94.1248533155
0
LINE
8
0
10
143.836712529
20
94.1248533155
11
142.822614631
21
93.9874844215
0
LINE
8
0
10
142.822614631
20
93.9874844215
11
142.478723742
21
93.1123687551
0
LINE
8
0
10
142.478723742
20
93.1123687551
11
142.153668296
21
92.11340927
0
LINE
8
0
10
142.153668296
20
92.11340927
11
141.926996733
21
91.2429550511
0
LINE
8
0
10
141.926996733
20
91.2429550511
11
141.782038898
21
90.5086744088
0
LINE
8
0
10
141.782038898
20
90.5086744088
11
141.701591162
21
89.9166945681
0
LINE
8
0
10
141.701591162
20
89.9166945681
11
141.65569041
21
89.3076973454
0
LINE
8
0
10
141.65569041
20
89.3076973454
11
141.573424166
21
88.9735694869
0
LINE
8
0
10
141.573424166
20
88.9735694869
11
141.445185925
21
88.8023532758
0
LINE
8
0
10
141.445185925
20
88.8023532758
11
139.188681748
21
88.4966890165
0
LINE
8
0
10
139.188681748
20
88.4966890165
11
139.019515026
21
88.6276189881
0
LINE
8
0
10
139.019515026
20
88.6276189881
11
138.8513231
21
88.9278199822
0
LINE
8
0
10
138.8513231
20
88.9278199822
11
138.64506078
21
89.5026593959
0
LINE
8
0
10
138.64506078
20
89.5026593959
11
138.410023701
21
90.0519039147
0
LINE
8
0
10
138.410023701
20
90.0519039147
11
138.074944025
21
90.721159058
0
LINE
8
0
10
138.074944025
20
90.721159058
11
137.624868163
21
91.4999416095
0
LINE
8
0
10
137.624868163
20
91.4999416095
11
137.045766755
21
92.3764247268
0
LINE
8
0
10
137.045766755
20
92.3764247268
11
136.481455698
21
93.1285160808
0
LINE
8
0
10
136.481455698
20
93.1285160808
11
135.4673578
21
92.9911471868
0
LINE
8
0
10
135.4673578
20
92.9911471868
11
134.494085035
21
92.6749116956
0
LINE
8
0
10
134.494085035
20
92.6749116956
11
134.31197855
21
91.7524554088
0
LINE
8
0
10
134.31197855
20
91.7524554088
11
134.170517982
21
90.7115087224
0
LINE
8
0
10
134.170517982
20
90.7115087224
11
134.102914727
21
89.8145692907
0
LINE
8
0
10
134.102914727
20
89.8145692907
11
134.091397296
21
89.0662056194
0
LINE
8
0
10
134.091397296
20
89.0662056194
11
134.11794447
21
88.4693746403
0
LINE
8
0
10
134.11794447
20
88.4693746403
11
134.181522015
21
87.8619683577
0
LINE
8
0
10
134.181522015
20
87.8619683577
11
134.160238656
21
87.5185208664
0
LINE
8
0
10
134.160238656
20
87.5185208664
11
134.064633091
21
87.3271583481
0
LINE
8
0
10
134.064633091
20
87.3271583481
11
131.898970326
21
86.6234918603
0
LINE
8
0
10
131.898970326
20
86.6234918603
11
131.709143733
21
86.7221118487
0
LINE
8
0
10
131.709143733
20
86.7221118487
11
131.490051764
21
86.9874566615
0
LINE
8
0
10
131.490051764
20
86.9874566615
11
131.184462623
21
87.5162286099
0
LINE
8
0
10
131.184462623
20
87.5162286099
11
130.855131291
21
88.0146790522
0
LINE
8
0
10
130.855131291
20
88.0146790522
11
130.405936363
21
88.6133482036
0
LINE
8
0
10
130.405936363
20
88.6133482036
11
129.824036411
21
89.2992512508
0
LINE
8
0
10
129.824036411
20
89.2992512508
11
129.097739297
21
90.0582463746
0
LINE
8
0
10
129.097739297
20
90.0582463746
11
128.408205855
21
90.6974896812
0
LINE
8
0
10
128.408205855
20
90.6974896812
11
127.43493309
21
90.3812541901
0
LINE
8
0
10
127.43493309
20
90.3812541901
11
126.533767246
21
89.8963161706
0
LINE
8
0
10
126.533767246
20
89.8963161706
11
126.519298218
21
88.9561677674
0
LINE
8
0
10
126.519298218
20
88.9561677674
11
126.565979187
21
87.9066907627
0
LINE
8
0
10
126.565979187
20
87.9066907627
11
126.659617064
21
87.0120944894
0
LINE
8
0
10
126.659617064
20
87.0120944894
11
126.781910216
21
86.2737008134
0
LINE
8
0
10
126.781910216
20
86.2737008134
11
126.914599052
21
85.6912013346
0
LINE
8
0
10
126.914599052
20
85.6912013346
11
127.085611459
21
85.1049085299
0
LINE
8
0
10
127.085611459
20
85.1049085299
11
127.125995051
21
84.7631800906
0
LINE
8
0
10
127.125995051
20
84.7631800906
11
127.066095004
21
84.5578218139
0
LINE
8
0
10
127.066095004
20
84.5578218139
11
125.060879833
21
83.4787695175
0
LINE
8
0
10
125.060879833
20
83.4787695175
11
124.856494553
21
83.5419097952
0
LINE
8
0
10
124.856494553
20
83.5419097952
11
124.593544336
21
83.763870026
0
LINE
8
0
10
124.593544336
20
83.763870026
11
124.198450261
21
84.2295793436
0
LINE
8
0
10
124.198450261
20
84.2295793436
11
123.785409655
21
84.6612151021
0
LINE
8
0
10
123.785409655
20
84.6612151021
11
123.236536971
21
85.1700565426
0
LINE
8
0
10
123.236536971
20
85.1700565426
11
122.541515672
21
85.7410345971
0
LINE
8
0
10
122.541515672
20
85.7410345971
11
121.691366639
21
86.3581469995
0
LINE
8
0
10
121.691366639
20
86.3581469995
11
120.898772983
21
86.863996453
0
LINE
8
0
10
120.898772983
20
86.863996453
11
119.997607139
21
86.3790584336
0
LINE
8
0
10
119.997607139
20
86.3790584336
11
119.197512428
21
85.7410041928
0
LINE
8
0
10
119.197512428
20
85.7410041928
11
119.351145902
21
84.8133808164
0
LINE
8
0
10
119.351145902
20
84.8133808164
11
119.584468044
21
83.7891045479
0
LINE
8
0
10
119.584468044
20
83.7891045479
11
119.836337455
21
82.9256044933
0
LINE
8
0
10
119.836337455
20
82.9256044933
11
120.088510587
21
82.2209133928
0
LINE
8
0
10
120.088510587
20
82.2209133928
11
120.323076357
21
81.6714674269
0
LINE
8
0
10
120.323076357
20
81.6714674269
11
120.596027148
21
81.1251320332
0
LINE
8
0
10
120.596027148
20
81.1251320332
11
120.696779727
21
80.7961060792
0
LINE
8
0
10
120.696779727
20
80.7961060792
11
120.674510435
21
80.5833524281
0
LINE
8
0
10
120.674510435
20
80.5833524281
11
118.894192124
21
79.1635959518
0
LINE
8
0
10
118.894192124
20
79.1635959518
11
118.681817268
21
79.1892271383
0
LINE
8
0
10
118.681817268
20
79.1892271383
11
118.383460239
21
79.3606688026
0
LINE
8
0
10
118.383460239
20
79.3606688026
11
117.911559879
21
79.7483472088
0
LINE
8
0
10
117.911559879
20
79.7483472088
11
117.428085465
21
80.099295155
0
LINE
8
0
10
117.428085465
20
80.099295155
11
116.797176243
21
80.501954302
0
LINE
8
0
10
116.797176243
20
80.501954302
11
116.011372154
21
80.9396556593
0
LINE
8
0
10
116.011372154
20
80.9396556593
11
115.064695691
21
81.3950508401
0
LINE
8
0
10
115.064695691
20
81.3950508401
11
114.194516433
21
81.7512480227
0
LINE
8
0
10
114.194516433
20
81.7512480227
11
113.394421722
21
81.1131937819
0
LINE
8
0
10
113.394421722
20
81.1131937819
11
112.721113846
21
80.3425309081
0
LINE
8
0
10
112.721113846
20
80.3425309081
11
113.037911917
21
79.4572471372
0
LINE
8
0
10
113.037911917
20
79.4572471372
11
113.450376066
21
78.4910926869
0
LINE
8
0
10
113.450376066
20
78.4910926869
11
113.85238172
21
77.6864424533
0
LINE
8
0
10
113.85238172
20
77.6864424533
11
114.226329781
21
77.0381032801
0
LINE
8
0
10
114.226329781
20
77.0381032801
11
114.555233349
21
76.5393704725
0
LINE
8
0
10
114.555233349
20
76.5393704725
11
114.921349659
21
76.0505521589
0
LINE
8
0
10
114.921349659
20
76.0505521589
11
115.079232955
21
75.744803855
0
LINE
8
0
10
115.079232955
20
75.744803855
11
115.095310171
21
75.5314929069
0
LINE
8
0
10
115.095310171
20
75.5314929069
11
113.597109616
21
73.816664392
0
LINE
8
0
10
113.597109616
20
73.816664392
11
113.383571086
21
73.8039626799
0
LINE
8
0
10
113.383571086
20
73.8039626799
11
113.059396686
21
73.9193755015
0
LINE
8
0
10
113.059396686
20
73.9193755015
11
112.525857307
21
74.2165626934
0
LINE
8
0
10
112.525857307
20
74.2165626934
11
111.98748835
21
74.4755430716
0
LINE
8
0
10
111.98748835
20
74.4755430716
11
111.294820531
21
74.7590781288
0
LINE
8
0
10
111.294820531
20
74.7590781288
11
110.443490042
21
75.0494347072
0
LINE
8
0
10
110.443490042
20
75.0494347072
11
109.43071311
21
75.3284758905
0
LINE
8
0
10
109.43071311
20
75.3284758905
11
108.510916529
21
75.5235723317
0
LINE
8
0
10
108.510916529
20
75.5235723317
11
107.837608652
21
74.7529094579
0
LINE
8
0
10
107.837608652
20
74.7529094579
11
107.312728281
21
73.8744076899
0
LINE
8
0
10
107.312728281
20
73.8744076899
11
107.782508797
21
73.0599172732
0
LINE
8
0
10
107.782508797
20
73.0599172732
11
108.360858017
21
72.1829376402
0
LINE
8
0
10
108.360858017
20
72.1829376402
11
108.900079121
21
71.4629993481
0
LINE
8
0
10
108.900079121
20
71.4629993481
11
109.383783113
21
70.8918502567
0
LINE
8
0
10
109.383783113
20
70.8918502567
11
109.796453246
21
70.4598602901
0
LINE
8
0
10
109.796453246
20
70.4598602901
11
110.243967797
21
70.0442700795
0
LINE
8
0
10
110.243967797
20
70.0442700795
11
110.453907311
21
69.7716264277
0
LINE
8
0
10
110.453907311
20
69.7716264277
11
110.5078143
21
69.5646141721
0
LINE
8
0
10
110.5078143
20
69.5646141721
11
109.339884899
21
67.609829618
0
LINE
8
0
10
109.339884899
20
67.609829618
11
109.132045999
21
67.5592032507
0
LINE
8
0
10
109.132045999
20
67.5592032507
11
108.792473461
21
67.6148777667
0
LINE
8
0
10
108.792473461
20
67.6148777667
11
108.214443456
21
67.8120219033
0
LINE
8
0
10
108.214443456
20
67.8120219033
11
107.638483578
21
67.9707108711
0
LINE
8
0
10
107.638483578
20
67.9707108711
11
106.906320077
21
68.1260087885
0
LINE
8
0
10
106.906320077
20
68.1260087885
11
106.01682565
21
68.2596882886
0
LINE
8
0
10
106.01682565
20
68.2596882886
11
104.970499732
21
68.3534068611
0
LINE
8
0
10
104.970499732
20
68.3534068611
11
104.030648846
21
68.3811320009
0
LINE
8
0
10
104.030648846
20
68.3811320009
11
103.505768474
21
67.5026302329
0
LINE
8
0
10
103.505768474
20
67.5026302329
11
103.146185693
21
66.5445253403
0
LINE
8
0
10
103.146185693
20
66.5445253403
11
103.753849523
21
65.8270066701
0
LINE
8
0
10
103.753849523
20
65.8270066701
11
104.479495193
21
65.0673887012
0
LINE
8
0
10
104.479495193
20
65.0673887012
11
105.138600739
21
64.4553017597
0
LINE
8
0
10
105.138600739
20
64.4553017597
11
105.716514016
21
63.9796999519
0
LINE
8
0
10
105.716514016
20
63.9796999519
11
106.199687157
21
63.6283373394
0
LINE
8
0
10
106.199687157
20
63.6283373394
11
106.714216463
21
63.299332643
0
LINE
8
0
10
106.714216463
20
63.299332643
11
106.969464567
21
63.0685566347
0
LINE
8
0
10
106.969464567
20
63.0685566347
11
107.059468714
21
62.8744966156
0
LINE
8
0
10
107.059468714
20
62.8744966156
11
106.259348679
21
60.7425844064
0
LINE
8
0
10
106.259348679
20
60.7425844064
11
106.063889522
21
60.6556605571
0
LINE
8
0
10
106.063889522
20
60.6556605571
11
105.719832985
21
60.6498073426
0
LINE
8
0
10
105.719832985
20
60.6498073426
11
105.115890716
21
60.7405720492
0
LINE
8
0
10
105.115890716
20
60.7405720492
11
104.520851741
21
60.7938692126
0
LINE
8
0
10
104.520851741
20
60.7938692126
11
103.772724894
21
60.8159385872
0
LINE
8
0
10
103.772724894
20
60.8159385872
11
102.873655612
21
60.78864444
0
LINE
8
0
10
102.873655612
20
60.78864444
11
101.827410485
21
60.6940282097
0
LINE
8
0
10
101.827410485
20
60.6940282097
11
100.897712874
21
60.5534909392
0
LINE
8
0
10
100.897712874
20
60.5534909392
11
100.538130094
21
59.5953860466
0
LINE
8
0
10
100.538130094
20
59.5953860466
11
100.355402191
21
58.5884723092
0
LINE
8
0
10
100.355402191
20
58.5884723092
11
101.081418519
21
57.9909870258
0
LINE
8
0
10
101.081418519
20
57.9909870258
11
101.93103779
21
57.3731454676
0
LINE
8
0
10
101.93103779
20
57.3731454676
11
102.688843582
21
56.8885828547
0
LINE
8
0
10
102.688843582
20
56.8885828547
11
103.342391537
21
56.5238145638
0
LINE
8
0
10
103.342391537
20
56.5238145638
11
103.880538104
21
56.2643723889
0
LINE
8
0
10
103.880538104
20
56.2643723889
11
104.445544769
21
56.0325276883
0
LINE
8
0
10
104.445544769
20
56.0325276883
11
104.737897578
21
55.8510366543
0
LINE
8
0
10
104.737897578
20
55.8510366543
11
104.861106076
21
55.6761661206
0
LINE
8
0
10
104.861106076
20
55.6761661206
11
104.454511923
21
53.4356476687
0
LINE
8
0
10
104.454511923
20
53.4356476687
11
104.277714728
21
53.3152201413
0
LINE
8
0
10
104.277714728
20
53.3152201413
11
103.940232453
21
53.2480273236
0
LINE
8
0
10
103.940232453
20
53.2480273236
11
103.329789121
21
53.2294953478
0
LINE
8
0
10
103.329789121
20
53.2294953478
11
102.73479609
21
53.1756876921
0
LINE
8
0
10
102.73479609
20
53.1756876921
11
101.994751311
21
53.0638191962
0
LINE
8
0
10
101.994751311
20
53.0638191962
11
101.115004001
21
52.8764286579
0
LINE
8
0
10
101.115004001
20
52.8764286579
11
100.102466844
21
52.5965186684
0
LINE
8
0
10
100.102466844
20
52.5965186684
11
99.2128037543
21
52.292235971
0
LINE
8
0
10
99.2128037543
20
52.292235971
11
99.0300758514
21
51.2853222335
0
LINE
8
0
10
99.0300758514
20
51.2853222335
11
99.0300758514
21
50.2619626871
0
LINE
8
0
10
99.0300758514
20
50.2619626871
11
99.8511099155
21
49.8037144592
0
LINE
8
0
10
99.8511099155
20
49.8037144592
11
100.797395325
21
49.3475072478
0
LINE
8
0
10
100.797395325
20
49.3475072478
11
101.629544862
21
49.0060432045
0
LINE
8
0
10
101.629544862
20
49.0060432045
11
102.337721926
21
48.7638323836
0
LINE
8
0
10
102.337721926
20
48.7638323836
11
102.913545446
21
48.6046493311
0
LINE
8
0
10
102.913545446
20
48.6046493311
11
103.510869691
21
48.4774163059
0
LINE
8
0
10
103.510869691
20
48.4774163059
11
103.830930746
21
48.3510435173
0
LINE
8
0
10
103.830930746
20
48.3510435173
11
103.983383571
21
48.2009829517
0
LINE
8
0
10
103.983383571
20
48.2009829517
11
103.983383571
21
45.9238703638
0
LINE
8
0
10
103.983383571
20
45.9238703638
11
103.830930746
21
45.7738097982
0
LINE
8
0
10
103.830930746
20
45.7738097982
11
103.510869691
21
45.6474370096
0
LINE
8
0
10
103.510869691
20
45.6474370096
11
102.913545446
21
45.5202039844
0
LINE
8
0
10
102.913545446
20
45.5202039844
11
102.337721926
21
45.3610209319
0
LINE
8
0
10
102.337721926
20
45.3610209319
11
101.629544862
21
45.118810111
0
LINE
8
0
10
101.629544862
20
45.118810111
11
100.797395325
21
44.7773460677
0
LINE
8
0
10
100.797395325
20
44.7773460677
11
99.8511099155
21
44.3211388563
0
LINE
8
0
10
99.8511099155
20
44.3211388563
11
99.0300758514
21
43.8628906284
0
LINE
8
0
10
99.0300758514
20
43.8628906284
11
99.0300758514
21
42.839531082
0
LINE
8
0
10
99.0300758514
20
42.839531082
11
99.2128037543
21
41.8326173445
0
LINE
8
0
10
99.2128037543
20
41.8326173445
11
100.102466844
21
41.5283346471
0
LINE
8
0
10
100.102466844
20
41.5283346471
11
101.115004001
21
41.2484246576
0
LINE
8
0
10
101.115004001
20
41.2484246576
11
101.994751311
21
41.0610341193
0
LINE
8
0
10
101.994751311
20
41.0610341193
11
102.73479609
21
40.9491656235
0
LINE
8
0
10
102.73479609
20
40.9491656235
11
103.329789121
21
40.8953579678
0
LINE
8
0
10
103.329789121
20
40.8953579678
11
103.940232453
21
40.8768259919
0
LINE
8
0
10
103.940232453
20
40.8768259919
11
104.277714728
21
40.8096331742
0
LINE
8
0
10
104.277714728
20
40.8096331742
11
104.454511923
21
40.6892056468
0
LINE
8
0
10
104.454511923
20
40.6892056468
11
104.861106076
21
38.4486871949
0
LINE
8
0
10
104.861106076
20
38.4486871949
11
104.737897578
21
38.2738166612
0
LINE
8
0
10
104.737897578
20
38.2738166612
11
104.445544769
21
38.0923256272
0
LINE
8
0
10
104.445544769
20
38.0923256272
11
103.880538104
21
37.8604809267
0
LINE
8
0
10
103.880538104
20
37.8604809267
11
103.342391537
21
37.6010387517
0
LINE
8
0
10
103.342391537
20
37.6010387517
11
102.688843582
21
37.2362704608
0
LINE
8
0
10
102.688843582
20
37.2362704608
11
101.93103779
21
36.7517078479
0
LINE
8
0
10
101.93103779
20
36.7517078479
11
101.081418519
21
36.1338662897
0
LINE
8
0
10
101.081418519
20
36.1338662897
11
100.355402191
21
35.5363810063
0
LINE
8
0
10
100.355402191
20
35.5363810063
11
100.538130094
21
34.5294672689
0
LINE
8
0
10
100.538130094
20
34.5294672689
11
100.897712874
21
33.5713623763
0
LINE
8
0
10
100.897712874
20
33.5713623763
11
101.827410485
21
33.4308251058
0
LINE
8
0
10
101.827410485
20
33.4308251058
11
102.873655612
21
33.3362088755
0
LINE
8
0
10
102.873655612
20
33.3362088755
11
103.772724894
21
33.3089147283
0
LINE
8
0
10
103.772724894
20
33.3089147283
11
104.520851741
21
33.3309841029
0
LINE
8
0
10
104.520851741
20
33.3309841029
11
105.115890716
21
33.3842812664
0
LINE
8
0
10
105.115890716
20
33.3842812664
11
105.719832985
21
33.4750459729
0
LINE
8
0
10
105.719832985
20
33.4750459729
11
106.063889522
21
33.4691927585
0
LINE
8
0
10
106.063889522
20
33.4691927585
11
106.259348679
21
33.3822689091
0
LINE
8
0
10
106.259348679
20
33.3822689091
11
107.059468714
21
31.2503566999
0
LINE
8
0
10
107.059468714
20
31.2503566999
11
106.969464567
21
31.0562966808
0
LINE
8
0
10
106.969464567
20
31.0562966808
11
106.714216463
21
30.8255206726
0
LINE
8
0
10
106.714216463
20
30.8255206726
11
106.199687157
21
30.4965159761
0
LINE
8
0
10
106.199687157
20
30.4965159761
11
105.716514016
21
30.1451533636
0
LINE
8
0
10
105.716514016
20
30.1451533636
11
105.138600739
21
29.6695515558
0
LINE
8
0
10
105.138600739
20
29.6695515558
11
104.479495193
21
29.0574646143
0
LINE
8
0
10
104.479495193
20
29.0574646143
11
103.753849523
21
28.2978466454
0
LINE
8
0
10
103.753849523
20
28.2978466454
11
103.146185693
21
27.5803279752
0
LINE
8
0
10
103.146185693
20
27.5803279752
11
103.505768474
21
26.6222230827
0
LINE
8
0
10
103.505768474
20
26.6222230827
11
104.030648846
21
25.7437213147
0
LINE
8
0
10
104.030648846
20
25.7437213147
11
104.970499732
21
25.7714464544
0
LINE
8
0
10
104.970499732
20
25.7714464544
11
106.01682565
21
25.8651650269
0
LINE
8
0
10
106.01682565
20
25.8651650269
11
106.906320077
21
25.998844527
0
LINE
8
0
10
106.906320077
20
25.998844527
11
107.638483578
21
26.1541424444
0
LINE
8
0
10
107.638483578
20
26.1541424444
11
108.214443456
21
26.3128314122
0
LINE
8
0
10
108.214443456
20
26.3128314122
11
108.792473461
21
26.5099755488
0
LINE
8
0
10
108.792473461
20
26.5099755488
11
109.132045999
21
26.5656500648
0
LINE
8
0
10
109.132045999
20
26.5656500648
11
109.339884899
21
26.5150236975
0
LINE
8
0
10
109.339884899
20
26.5150236975
11
110.5078143
21
24.5602391434
0
LINE
8
0
10
110.5078143
20
24.5602391434
11
110.453907311
21
24.3532268878
0
LINE
8
0
10
110.453907311
20
24.3532268878
11
110.243967797
21
24.080583236
0
LINE
8
0
10
110.243967797
20
24.080583236
11
109.796453246
21
23.6649930254
0
LINE
8
0
10
109.796453246
20
23.6649930254
11
109.383783113
21
23.2330030588
0
LINE
8
0
10
109.383783113
20
23.2330030588
11
108.900079121
21
22.6618539674
0
LINE
8
0
10
108.900079121
20
22.6618539674
11
108.360858017
21
21.9419156753
0
LINE
8
0
10
108.360858017
20
21.9419156753
11
107.782508797
21
21.0649360423
0
LINE
8
0
10
107.782508797
20
21.0649360423
11
107.312728281
21
20.2504456256
0
LINE
8
0
10
107.312728281
20
20.2504456256
11
107.837608652
21
19.3719438576
0
LINE
8
0
10
107.837608652
20
19.3719438576
11
108.510916529
21
18.6012809838
0
LINE
8
0
10
108.510916529
20
18.6012809838
11
109.43071311
21
18.796377425
0
LINE
8
0
10
109.43071311
20
18.796377425
11
110.443490042
21
19.0754186083
0
LINE
8
0
10
110.443490042
20
19.0754186083
11
111.294820531
21
19.3657751867
0
LINE
8
0
10
111.294820531
20
19.3657751867
11
111.98748835
21
19.6493102439
0
LINE
8
0
10
111.98748835
20
19.6493102439
11
112.525857307
21
19.9082906222
0
LINE
8
0
10
112.525857307
20
19.9082906222
11
113.059396686
21
20.205477814
0
LINE
8
0
10
113.059396686
20
20.205477814
11
113.383571086
21
20.3208906356
0
LINE
8
0
10
113.383571086
20
20.3208906356
11
113.597109616
21
20.3081889235
0
LINE
8
0
10
113.597109616
20
20.3081889235
11
115.095310171
21
18.5933604086
0
LINE
8
0
10
115.095310171
20
18.5933604086
11
115.079232955
21
18.3800494605
0
LINE
8
0
10
115.079232955
20
18.3800494605
11
114.921349659
21
18.0743011566
0
LINE
8
0
10
114.921349659
20
18.0743011566
11
114.555233349
21
17.5854828431
0
LINE
8
0
10
114.555233349
20
17.5854828431
11
114.226329781
21
17.0867500354
0
LINE
8
0
10
114.226329781
20
17.0867500354
11
113.85238172
21
16.4384108622
0
LINE
8
0
10
113.85238172
20
16.4384108622
11
113.450376066
21
15.6337606286
0
LINE
8
0
10
113.450376066
20
15.6337606286
11
113.037911917
21
14.6676061783
0
LINE
8
0
10
113.037911917
20
14.6676061783
11
112.721113846
21
13.7823224074
0
LINE
8
0
10
112.721113846
20
13.7823224074
11
113.394421722
21
13.0116595336
0
LINE
8
0
10
113.394421722
20
13.0116595336
11
114.194516433
21
12.3736052928
0
LINE
8
0
10
114.194516433
20
12.3736052928
11
115.064695691
21
12.7298024754
0
LINE
8
0
10
115.064695691
20
12.7298024754
11
116.011372154
21
13.1851976562
0
LINE
8
0
10
116.011372154
20
13.1851976562
11
116.797176243
21
13.6228990135
0
LINE
8
0
10
116.797176243
20
13.6228990135
11
117.428085465
21
14.0255581605
0
LINE
8
0
10
117.428085465
20
14.0255581605
11
117.911559879
21
14.3765061067
0
LINE
8
0
10
117.911559879
20
14.3765061067
11
118.383460239
21
14.7641845129
0
LINE
8
0
10
118.383460239
20
14.7641845129
11
118.681817268
21
14.9356261772
0
LINE
8
0
10
118.681817268
20
14.9356261772
11
118.894192124
21
14.9612573637
0
LINE
8
0
10
118.894192124
20
14.9612573637
11
120.674510435
21
13.5415008874
0
LINE
8
0
10
120.674510435
20
13.5415008874
11
120.696779727
21
13.3287472364
0
LINE
8
0
10
120.696779727
20
13.3287472364
11
120.596027148
21
12.9997212823
0
LINE
8
0
10
120.596027148
20
12.9997212823
11
120.323076357
21
12.4533858886
0
LINE
8
0
10
120.323076357
20
12.4533858886
11
120.088510587
21
11.9039399227
0
LINE
8
0
10
120.088510587
20
11.9039399227
11
119.836337455
21
11.1992488222
0
LINE
8
0
10
119.836337455
20
11.1992488222
11
119.584468044
21
10.3357487676
0
LINE
8
0
10
119.584468044
20
10.3357487676
11
119.351145902
21
9.31147249911
0
LINE
8
0
10
119.351145902
20
9.31147249911
11
119.197512428
21
8.38384912276
0
LINE
8
0
10
119.197512428
20
8.38384912276
11
119.997607139
21
7.74579488195
0
LINE
8
0
10
119.997607139
20
7.74579488195
11
120.898772983
21
7.26085686248
0
LINE
8
0
10
120.898772983
20
7.26085686248
11
121.691366639
21
7.76670631597
0
LINE
8
0
10
121.691366639
20
7.76670631597
11
122.541515672
21
8.38381871845
0
LINE
8
0
10
122.541515672
20
8.38381871845
11
123.236536971
21
8.95479677289
0
LINE
8
0
10
123.236536971
20
8.95479677289
11
123.785409655
21
9.46363821342
0
LINE
8
0
10
123.785409655
20
9.46363821342
11
124.198450261
21
9.8952739719
0
LINE
8
0
10
124.198450261
20
9.8952739719
11
124.593544336
21
10.3609832895
0
LINE
8
0
10
124.593544336
20
10.3609832895
11
124.856494553
21
10.5829435203
0
LINE
8
0
10
124.856494553
20
10.5829435203
11
125.060879833
21
10.646083798
0
LINE
8
0
10
125.060879833
20
10.646083798
11
127.066095004
21
9.56703150162
0
LINE
8
0
10
127.066095004
20
9.56703150162
11
127.125995051
21
9.36167322493
0
LINE
8
0
10
127.125995051
20
9.36167322493
11
127.085611459
21
9.01994478561
0
LINE
8
0
10
127.085611459
20
9.01994478561
11
126.914599052
21
8.43365198096
0
LINE
8
0
10
126.914599052
20
8.43365198096
11
126.781910216
21
7.85115250214
0
LINE
8
0
10
126.781910216
20
7.85115250214
11
126.659617064
21
7.11275882612
0
LINE
8
0
10
126.659617064
20
7.11275882612
11
126.565979187
21
6.21816255277
0
LINE
8
0
10
126.565979187
20
6.21816255277
11
126.519298218
21
5.16868554814
0
LINE
8
0
10
126.519298218
20
5.16868554814
11
126.533767246
21
4.22853714492
0
LINE
8
0
10
126.533767246
20
4.22853714492
11
127.43493309
21
3.74359912545
0
LINE
8
0
10
127.43493309
20
3.74359912545
11
128.408205855
21
3.42736363426
0
LINE
8
0
10
128.408205855
20
3.42736363426
11
129.097739297
21
4.06660694095
0
LINE
8
0
10
129.097739297
20
4.06660694095
11
129.824036411
21
4.82560206474
0
LINE
8
0
10
129.824036411
20
4.82560206474
11
130.405936363
21
5.51150511186
0
LINE
8
0
10
130.405936363
20
5.51150511186
11
130.855131291
21
6.11017426334
0
LINE
8
0
10
130.855131291
20
6.11017426334
11
131.184462623
21
6.60862470562
0
LINE
8
0
10
131.184462623
20
6.60862470562
11
131.490051764
21
7.13739665404
0
LINE
8
0
10
131.490051764
20
7.13739665404
11
131.709143733
21
7.4027414668
0
LINE
8
0
10
131.709143733
20
7.4027414668
11
131.898970326
21
7.50136145524
0
LINE
8
0
10
131.898970326
20
7.50136145524
11
134.064633091
21
6.79769496745
0
LINE
8
0
10
134.064633091
20
6.79769496745
11
134.160238656
21
6.60633244912
0
LINE
8
0
10
134.160238656
20
6.60633244912
11
134.181522015
21
6.26288495778
0
LINE
8
0
10
134.181522015
20
6.26288495778
11
134.11794447
21
5.65547867525
0
LINE
8
0
10
134.11794447
20
5.65547867525
11
134.091397296
21
5.0586476961
0
LINE
8
0
10
134.091397296
20
5.0586476961
11
134.102914727
21
4.31028402486
0
LINE
8
0
10
134.102914727
20
4.31028402486
11
134.170517982
21
3.41334459307
0
LINE
8
0
10
134.170517982
20
3.41334459307
11
134.31197855
21
2.37239790672
0
LINE
8
0
10
134.31197855
20
2.37239790672
11
134.494085035
21
1.44994161987
0
LINE
8
0
10
134.494085035
20
1.44994161987
11
135.4673578
21
1.13370612868
0
LINE
8
0
10
135.4673578
20
1.13370612868
11
136.481455698
21
0.996337234668
0
LINE
8
0
10
136.481455698
20
0.996337234668
11
137.045766755
21
1.7484285887
0
LINE
8
0
10
137.045766755
20
1.7484285887
11
137.624868163
21
2.62491170603
0
LINE
8
0
10
137.624868163
20
2.62491170603
11
138.074944025
21
3.40369425754
0
LINE
8
0
10
138.074944025
20
3.40369425754
11
138.410023701
21
4.07294940084
0
LINE
8
0
10
138.410023701
20
4.07294940084
11
138.64506078
21
4.62219391958
0
LINE
8
0
10
138.64506078
20
4.62219391958
11
138.8513231
21
5.19703333328
0
LINE
8
0
10
138.8513231
20
5.19703333328
11
139.019515026
21
5.49723432745
0
LINE
8
0
10
139.019515026
20
5.49723432745
11
139.188681748
21
5.62816429905
0
LINE
8
0
10
139.188681748
20
5.62816429905
11
141.445185925
21
5.32250003973
0
LINE
8
0
10
141.445185925
20
5.32250003973
11
141.573424166
21
5.15128382856
0
LINE
8
0
10
141.573424166
20
5.15128382856
11
141.65569041
21
4.81715597015
0
LINE
8
0
10
141.65569041
20
4.81715597015
11
141.701591162
21
4.20815874745
0
LINE
8
0
10
141.701591162
20
4.20815874745
11
141.782038898
21
3.61617890671
0
LINE
8
0
10
141.782038898
20
3.61617890671
11
141.926996733
21
2.8818982644
0
LINE
8
0
10
141.926996733
20
2.8818982644
11
142.153668296
21
2.01144404552
0
LINE
8
0
10
142.153668296
20
2.01144404552
11
142.478723742
21
1.01248456044
0
LINE
8
0
10
142.478723742
20
1.01248456044
11
142.822614631
21
0.137368894016
0
LINE
8
0
10
142.822614631
20
0.137368894016
11
143.836712529
21
0.0
0
LINE
8
0
10
143.836712529
20
0.0
11
144.859041621
21
0.0459128524358
0
LINE
8
0
10
144.859041621
20
0.0459128524358
11
145.279992869
21
0.886679418877
0
LINE
8
0
10
145.279992869
20
0.886679418877
11
145.693285776
21
1.85247964118
0
LINE
8
0
10
145.693285776
20
1.85247964118
11
145.99707174
21
2.69911098508
0
LINE
8
0
10
145.99707174
20
2.69911098508
11
146.207266427
21
3.41744170924
0
LINE
8
0
10
146.207266427
20
3.41744170924
11
146.340454968
21
3.99982713369
0
LINE
8
0
10
146.340454968
20
3.99982713369
11
146.440761027
21
4.60225820094
0
LINE
8
0
10
146.440761027
20
4.60225820094
11
146.552647082
21
4.92766666956
0
LINE
8
0
10
146.552647082
20
4.92766666956
11
146.695716776
21
5.0866984273
0
LINE
8
0
10
146.695716776
20
5.0866984273
11
148.970536463
21
5.18886069725
0
LINE
8
0
10
148.970536463
20
5.18886069725
11
149.127285698
21
5.04329382314
0
LINE
8
0
10
149.127285698
20
5.04329382314
11
149.267890723
21
4.72922474196
0
LINE
8
0
10
149.267890723
20
4.72922474196
11
149.421794484
21
4.1382102509
0
LINE
8
0
10
149.421794484
20
4.1382102509
11
149.606651474
21
3.57010826773
0
LINE
8
0
10
149.606651474
20
3.57010826773
11
149.880390648
21
2.87351103836
0
LINE
8
0
10
149.880390648
20
2.87351103836
11
150.258845108
21
2.0575191472
0
LINE
8
0
10
150.258845108
20
2.0575191472
11
150.757047883
21
1.13265424319
0
LINE
8
0
10
150.757047883
20
1.13265424319
11
151.25167024
21
0.333006134754
0
LINE
8
0
10
151.25167024
20
0.333006134754
11
152.273999331
21
0.37891898719
0
LINE
8
0
10
152.273999331
20
0.37891898719
11
153.271701117
21
0.606637909223
0
LINE
8
0
10
153.271701117
20
0.606637909223
11
153.535762839
21
1.50905675884
0
LINE
8
0
10
153.535762839
20
1.50905675884
11
153.76996367
21
2.5331324723
0
LINE
8
0
10
153.76996367
20
2.5331324723
11
153.917695804
21
3.4204011806
0
LINE
8
0
10
153.917695804
20
3.4204011806
11
153.996249672
21
4.1647197451
0
LINE
8
0
10
153.996249672
20
4.1647197451
11
154.023308886
21
4.76152772852
0
LINE
8
0
10
154.023308886
20
4.76152772852
11
154.014434765
21
5.37218781913
0
LINE
8
0
10
154.014434765
20
5.37218781913
11
154.066418839
21
5.71234486628
0
LINE
8
0
10
154.066418839
20
5.71234486628
11
154.178793128
21
5.89436699862
0
LINE
8
0
10
154.178793128
20
5.89436699862
11
156.398813749
21
6.40107221842
0
LINE
8
0
10
156.398813749
20
6.40107221842
11
156.579035928
21
6.28583332048
0
LINE
8
0
10
156.579035928
20
6.28583332048
11
156.773460572
21
6.00191745521
0
LINE
8
0
10
156.773460572
20
6.00191745521
11
157.030420748
21
5.44788138783
0
LINE
8
0
10
157.030420748
20
5.44788138783
11
157.313745537
21
4.92191652741
0
LINE
8
0
10
157.313745537
20
4.92191652741
11
157.707467848
21
4.28539191909
0
LINE
8
0
10
157.707467848
20
4.28539191909
11
158.225541367
21
3.55008900642
0
LINE
8
0
10
158.225541367
20
3.55008900642
11
158.880878824
21
2.72904460248
0
LINE
8
0
10
158.880878824
20
2.72904460248
11
159.510335079
21
2.0305654002
0
LINE
8
0
10
159.510335079
20
2.0305654002
11
160.508036865
21
2.25828432223
0
LINE
8
0
10
160.508036865
20
2.25828432223
11
161.449044389
21
2.66049024034
0
LINE
8
0
10
161.449044389
20
2.66049024034
11
161.547729423
21
3.59555688879
0
LINE
8
0
10
161.547729423
20
3.59555688879
11
161.595310771
21
4.64499345738
0
LINE
8
0
10
161.595310771
20
4.64499345738
11
161.582240844
21
5.54438198374
0
LINE
8
0
10
161.582240844
20
5.54438198374
11
161.526629107
21
6.29076537748
0
LINE
8
0
10
161.526629107
20
6.29076537748
11
161.446689288
21
6.88281402024
0
LINE
8
0
10
161.446689288
20
6.88281402024
11
161.328920208
21
7.48207601645
0
LINE
8
0
10
161.328920208
20
7.48207601645
11
161.31933149
21
7.82604871473
0
LINE
8
0
10
161.31933149
20
7.82604871473
11
161.397398571
21
8.02521088057
0
LINE
8
0
10
161.397398571
20
8.02521088057
11
163.491266837
21
8.92017312754
0
LINE
8
0
10
163.491266837
20
8.92017312754
11
163.689169472
21
8.83896607877
0
LINE
8
0
10
163.689169472
20
8.83896607877
11
163.931164767
21
8.59432871893
0
LINE
8
0
10
163.931164767
20
8.59432871893
11
164.282922447
21
8.09507825029
0
LINE
8
0
10
164.282922447
20
8.09507825029
11
164.655608742
21
7.62815545601
0
LINE
8
0
10
164.655608742
20
7.62815545601
11
165.156659632
21
7.07216189338
0
LINE
8
0
10
165.156659632
20
7.07216189338
11
165.797700901
21
6.44118119984
0
LINE
8
0
10
165.797700901
20
6.44118119984
11
166.589109955
21
5.75034633865
0
LINE
8
0
10
166.589109955
20
5.75034633865
11
167.333168866
21
5.1754857388
0
LINE
8
0
10
167.333168866
20
5.1754857388
11
168.27417639
21
5.5776916569
0
LINE
8
0
10
168.27417639
20
5.5776916569
11
169.128244897
21
6.14145734194
0
LINE
8
0
10
169.128244897
20
6.14145734194
11
169.058381424
21
7.07911797778
0
LINE
8
0
10
169.058381424
20
7.07911797778
11
168.917813985
21
8.12018564669
0
LINE
8
0
10
168.917813985
20
8.12018564669
11
168.744362074
21
9.00278690386
0
LINE
8
0
10
168.744362074
20
9.00278690386
11
168.55637214
21
9.72724575044
0
LINE
8
0
10
168.55637214
20
9.72724575044
11
168.37200262
21
10.295506122
0
LINE
8
0
10
168.37200262
20
10.295506122
11
168.149123776
21
10.8641092502
0
LINE
8
0
10
168.149123776
20
10.8641092502
11
168.078270456
21
11.2008420341
0
LINE
8
0
10
168.078270456
20
11.2008420341
11
168.119521189
21
11.4107429975
0
LINE
8
0
10
168.119521189
20
11.4107429975
11
170.019938451
21
12.6651974487
0
LINE
8
0
10
170.019938451
20
12.6651974487
11
170.229160787
21
12.6206323104
0
LINE
8
0
10
170.229160787
20
12.6206323104
11
170.510948805
21
12.4231363021
0
LINE
8
0
10
170.510948805
20
12.4231363021
11
170.946198209
21
11.994717753
0
LINE
8
0
10
170.946198209
20
11.994717753
11
171.396267566
21
11.6018443077
0
LINE
8
0
10
171.396267566
20
11.6018443077
11
171.988542845
21
11.1442518813
0
LINE
8
0
10
171.988542845
20
11.1442518813
11
172.731948271
21
10.6378736455
0
LINE
8
0
10
172.731948271
20
10.6378736455
11
173.633992383
21
10.099452328
0
LINE
8
0
10
173.633992383
20
10.099452328
11
174.468739286
21
9.66668682322
0
LINE
8
0
10
174.468739286
20
9.66668682322
11
175.322807792
21
10.2304525083
0
LINE
8
0
10
175.322807792
20
10.2304525083
11
176.062486816
21
10.9376580672
0
LINE
8
0
10
176.062486816
20
10.9376580672
11
175.826320306
21
11.8477755061
0
LINE
8
0
10
175.826320306
20
11.8477755061
11
175.502122033
21
12.8470135039
0
LINE
8
0
10
175.502122033
20
12.8470135039
11
175.173863027
21
13.6844599612
0
LINE
8
0
10
175.173863027
20
13.6844599612
11
174.859537046
21
14.3637095573
0
LINE
8
0
10
174.859537046
20
14.3637095573
11
174.576663612
21
14.8899173017
0
LINE
8
0
10
174.576663612
20
14.8899173017
11
174.255838514
21
15.4095861895
0
LINE
8
0
10
174.255838514
20
15.4095861895
11
174.125997876
21
15.7282561902
0
LINE
8
0
10
174.125997876
20
15.7282561902
11
174.129106429
21
15.9421495616
0
LINE
8
0
10
174.129106429
20
15.9421495616
11
175.774991712
21
17.5157770187
0
LINE
8
0
10
175.774991712
20
17.5157770187
11
175.988809171
21
17.5092861512
0
LINE
8
0
10
175.988809171
20
17.5092861512
11
176.301333015
21
17.3652791785
0
LINE
8
0
10
176.301333015
20
17.3652791785
11
176.806084867
21
17.0214622737
0
LINE
8
0
10
176.806084867
20
17.0214622737
11
177.319071686
21
16.7152654531
0
LINE
8
0
10
177.319071686
20
16.7152654531
11
177.983535141
21
16.3707815601
0
LINE
8
0
10
177.983535141
20
16.3707815601
11
178.805411061
21
16.0052811953
0
LINE
8
0
10
178.805411061
20
16.0052811953
11
179.789097792
21
15.6365787255
0
LINE
8
0
10
179.789097792
20
15.6365787255
11
180.687703233
21
15.3598177552
0
LINE
8
0
10
180.687703233
20
15.3598177552
11
181.427382257
21
16.0670233142
0
LINE
8
0
10
181.427382257
20
16.0670233142
11
182.028897906
21
16.8949385786
0
LINE
8
0
10
182.028897906
20
16.8949385786
11
181.634018946
21
17.7482608972
0
LINE
8
0
10
181.634018946
20
17.7482608972
11
181.136609839
21
18.6735528924
0
LINE
8
0
10
181.136609839
20
18.6735528924
11
180.66409425
21
19.4389283317
0
LINE
8
0
10
180.66409425
20
19.4389283317
11
180.233534919
21
20.0511370363
0
LINE
8
0
10
180.233534919
20
20.0511370363
11
179.861249357
21
20.5183794038
0
LINE
8
0
10
179.861249357
20
20.5183794038
11
179.452789587
21
20.9724114655
0
LINE
8
0
10
179.452789587
20
20.9724114655
11
179.268134816
21
21.2627763671
0
LINE
8
0
10
179.268134816
20
21.2627763671
11
179.233001276
21
21.4737874375
0
LINE
8
0
10
179.233001276
20
21.4737874375
11
180.571454473
21
23.3160102192
0
LINE
8
0
10
180.571454473
20
23.3160102192
11
180.782994788
21
23.3478022443
0
LINE
8
0
10
180.782994788
20
23.3478022443
11
181.116209682
21
23.2619128099
0
LINE
8
0
10
181.116209682
20
23.2619128099
11
181.674240843
21
23.0137481076
0
LINE
8
0
10
181.674240843
20
23.0137481076
11
182.233657307
21
22.8040693294
0
LINE
8
0
10
182.233657307
20
22.8040693294
11
182.948952535
21
22.5837659655
0
LINE
8
0
10
182.948952535
20
22.5837659655
11
183.822883181
21
22.3708909541
0
LINE
8
0
10
183.822883181
20
22.3708909541
11
184.85659603
21
22.1837577328
0
LINE
8
0
10
184.85659603
20
22.1837577328
11
185.790178091
21
22.0718966224
0
LINE
8
0
10
185.790178091
20
22.0718966224
11
186.39169374
21
22.8998118868
0
LINE
8
0
10
186.39169374
20
22.8998118868
11
186.835712806
21
23.8218269787
0
LINE
8
0
10
186.835712806
20
23.8218269787
11
186.29481313
21
24.5909276956
0
LINE
8
0
10
186.29481313
20
24.5909276956
11
185.640180326
21
25.4125340421
0
LINE
8
0
10
185.640180326
20
25.4125340421
11
185.038595196
21
26.0812386671
0
LINE
8
0
10
185.038595196
20
26.0812386671
11
184.505641045
21
26.6067295887
0
LINE
8
0
10
184.505641045
20
26.6067295887
11
184.055908918
21
26.9999890251
0
LINE
8
0
10
184.055908918
20
26.9999890251
11
183.57294271
21
27.3737912967
0
LINE
8
0
10
183.57294271
20
27.3737912967
11
183.339408762
21
27.6265185323
0
LINE
8
0
10
183.339408762
20
27.6265185323
11
183.267162351
21
27.8278652322
0
LINE
8
0
10
183.267162351
20
27.8278652322
11
184.255164475
21
29.8794727827
0
LINE
8
0
10
184.255164475
20
29.8794727827
11
184.457628565
21
29.9485258785
0
LINE
8
0
10
184.457628565
20
29.9485258785
11
184.800824709
21
29.9235145394
0
LINE
8
0
10
184.800824709
20
29.9235145394
11
185.394199599
21
29.7789782573
0
LINE
8
0
10
185.394199599
20
29.7789782573
11
185.982065601
21
29.67255677
0
LINE
8
0
10
185.982065601
20
29.67255677
11
186.725202426
21
29.5835146667
0
LINE
8
0
10
186.725202426
20
29.5835146667
11
187.623098947
21
29.5301069867
0
LINE
8
0
10
187.623098947
20
29.5301069867
11
188.673613532
21
29.5305576297
0
LINE
8
0
10
188.673613532
20
29.5305576297
11
189.612166118
21
29.5871916871
0
LINE
8
0
10
189.612166118
20
29.5871916871
11
190.056185185
21
30.5092067791
0
LINE
8
0
10
190.056185185
20
30.5092067791
11
190.32843653
21
31.4956873749
0
LINE
8
0
10
190.32843653
20
31.4956873749
11
189.658901098
21
32.1558469602
0
LINE
8
0
10
189.658901098
20
32.1558469602
11
188.868085035
21
32.8473605541
0
LINE
8
0
10
188.868085035
20
32.8473605541
11
188.156765804
21
33.3979016479
0
LINE
8
0
10
188.156765804
20
33.3979016479
11
187.538546418
21
33.8197850759
0
LINE
8
0
10
187.538546418
20
33.8197850759
11
187.025822488
21
34.1264218994
0
LINE
8
0
10
187.025822488
20
34.1264218994
11
186.483872773
21
34.4079800683
0
LINE
8
0
10
186.483872773
20
34.4079800683
11
186.208965621
21
34.6149467765
0
LINE
8
0
10
186.208965621
20
34.6149467765
11
186.101928398
21
34.8001576575
0
LINE
8
0
10
186.101928398
20
34.8001576575
11
186.707724248
21
36.9952096219
0
LINE
8
0
10
186.707724248
20
36.9952096219
11
186.89460475
21
37.0993043651
0
LINE
8
0
10
186.89460475
20
37.0993043651
11
187.236751538
21
37.1359750064
0
LINE
8
0
10
187.236751538
20
37.1359750064
11
187.846398598
21
37.0997126595
0
LINE
8
0
10
187.846398598
20
37.0997126595
11
188.443819643
21
37.0999689373
0
LINE
8
0
10
188.443819643
20
37.0999689373
11
189.190913034
21
37.145049981
0
LINE
8
0
10
189.190913034
20
37.145049981
11
190.083916299
21
37.2528261991
0
LINE
8
0
10
190.083916299
20
37.2528261991
11
191.117468217
21
37.4408462223
0
LINE
8
0
10
191.117468217
20
37.4408462223
11
192.030825475
21
37.6641551825
0
LINE
8
0
10
146.262156084
20
45.5952052567
11
145.950288548
21
45.5624266578
0
LINE
8
0
10
145.950288548
20
45.5624266578
11
145.638421011
21
45.5952052567
0
LINE
8
0
10
145.638421011
20
45.5952052567
11
145.340183583
21
45.6921084713
0
LINE
8
0
10
145.340183583
20
45.6921084713
11
145.068610669
21
45.8489011662
0
LINE
8
0
10
145.068610669
20
45.8489011662
11
144.835571309
21
46.0587307482
0
LINE
8
0
10
144.835571309
20
46.0587307482
11
144.651250442
21
46.3124266578
0
LINE
8
0
10
144.651250442
20
46.3124266578
11
144.523703773
21
46.5989011662
0
LINE
8
0
10
144.523703773
20
46.5989011662
11
144.458505705
21
46.9056339629
0
LINE
8
0
10
144.458505705
20
46.9056339629
11
144.458505705
21
47.2192193527
0
LINE
8
0
10
144.458505705
20
47.2192193527
11
144.523703773
21
47.5259521493
0
LINE
8
0
10
144.523703773
20
47.5259521493
11
144.651250442
21
47.8124266578
0
LINE
8
0
10
144.651250442
20
47.8124266578
11
144.835571309
21
48.0661225673
0
LINE
8
0
10
144.835571309
20
48.0661225673
11
145.068610669
21
48.2759521493
0
LINE
8
0
10
145.068610669
20
48.2759521493
11
145.340183583
21
48.4327448442
0
LINE
8
0
10
145.340183583
20
48.4327448442
11
145.638421011
21
48.5296480589
0
LINE
8
0
10
145.638421011
20
48.5296480589
11
145.950288548
21
48.5624266578
0
LINE
8
0
10
145.950288548
20
48.5624266578
11
146.262156084
21
48.5296480589
0
LINE
8
0
10
146.262156084
20
48.5296480589
11
146.560393512
21
48.4327448442
0
LINE
8
0
10
146.560393512
20
48.4327448442
11
146.831966426
21
48.2759521493
0
LINE
8
0
10
146.831966426
20
48.2759521493
11
147.065005786
21
48.0661225673
0
LINE
8
0
10
147.065005786
20
48.0661225673
11
147.249326653
21
47.8124266578
0
LINE
8
0
10
147.249326653
20
47.8124266578
11
147.376873322
21
47.5259521493
0
LINE
8
0
10
147.376873322
20
47.5259521493
11
147.442071391
21
47.2192193527
0
LINE
8
0
10
147.442071391
20
47.2192193527
11
147.442071391
21
46.9056339629
0
LINE
8
0
10
147.442071391
20
46.9056339629
11
147.376873322
21
46.5989011662
0
LINE
8
0
10
147.376873322
20
46.5989011662
11
147.249326653
21
46.3124266578
0
LINE
8
0
10
147.249326653
20
46.3124266578
11
147.065005786
21
46.0587307482
0
LINE
8
0
10
147.065005786
20
46.0587307482
11
146.831966426
21
45.8489011662
0
LINE
8
0
10
146.831966426
20
45.8489011662
11
146.560393512
21
45.6921084713
0
LINE
8
0
10
146.560393512
20
45.6921084713
11
146.262156084
21
45.5952052567
0
ENDSEC
0
EOF
