  0
SECTION
  2
BLOCKS
  0
ENDSEC
  0
SECTION
  2
ENTITIES
  0
LINE
  8
0
 10
17.919188667012893
 20
-9.592792677717764
 11
18.354387059018098
 21
-8.83900695139248
  0
LINE
  8
0
 10
18.354387059018098
 20
-8.83900695139248
 11
18.672378711693682
 21
-8.028777434252842
  0
LINE
  8
0
 10
18.672378711693682
 20
-8.028777434252842
 11
18.274247975177314
 21
-7.404963582574623
  0
LINE
  8
0
 10
18.274247975177314
 20
-7.404963582574623
 11
17.397298722835252
 21
-6.400344943329776
  0
LINE
  8
0
 10
17.397298722835252
 20
-6.400344943329776
 11
16.668788626137097
 21
-5.782298424692482
  0
LINE
  8
0
 10
16.668788626137097
 20
-5.782298424692482
 11
16.17791743681621
 21
-5.478670038866374
  0
LINE
  8
0
 10
16.17791743681621
 20
-5.478670038866374
 11
15.994950230545994
 21
-5.4003732578453
  0
LINE
  8
0
 10
15.994950230545994
 20
-5.4003732578453
 11
15.669936432445418
 21
-5.3157376919510275
  0
LINE
  8
0
 10
15.669936432445418
 20
-5.3157376919510275
 11
14.901926846947582
 21
-4.932638004839737
  0
LINE
  8
0
 10
14.901926846947582
 20
-4.932638004839737
 11
14.59370224716249
 21
-4.498753695637453
  0
LINE
  8
0
 10
14.59370224716249
 20
-4.498753695637453
 11
15.100407466963086
 21
-2.278733074436837
  0
LINE
  8
0
 10
15.100407466963086
 20
-2.278733074436837
 11
15.566363582112263
 21
-2.021550461417159
  0
LINE
  8
0
 10
15.566363582112263
 20
-2.021550461417159
 11
16.424537033595037
 21
-2.0096164406606976
  0
LINE
  8
0
 10
16.424537033595037
 20
-2.0096164406606976
 11
16.754086343114974
 21
-2.0743806326571606
  0
LINE
  8
0
 10
16.754086343114974
 20
-2.0743806326571606
 11
16.952905799921783
 21
-2.0832241660925934
  0
LINE
  8
0
 10
16.952905799921783
 20
-2.0832241660925934
 11
17.526904878994593
 21
-2.02264547009944
  0
LINE
  8
0
 10
17.526904878994593
 20
-2.02264547009944
 11
18.451430130527104
 21
-1.7818934826316453
  0
LINE
  8
0
 10
18.451430130527104
 20
-1.7818934826316453
 11
19.677421797202385
 21
-1.257257385179279
  0
LINE
  8
0
 10
19.677421797202385
 20
-1.257257385179279
 11
20.306787882636183
 21
-0.8679629780694774
  0
LINE
  8
0
 10
20.306787882636183
 20
-0.8679629780694774
 11
20.371832715762604
 21
-4.081696729064278e-15
  0
LINE
  8
0
 10
20.371832715762604
 20
-4.081696729064278e-15
 11
20.306787882636186
 21
0.867962978069475
  0
LINE
  8
0
 10
20.306787882636186
 20
0.867962978069475
 11
19.677421797200406
 21
1.2572573851804985
  0
LINE
  8
0
 10
19.677421797200406
 20
1.2572573851804985
 11
18.451430130527157
 21
1.781893482632077
  0
LINE
  8
0
 10
18.451430130527157
 20
1.781893482632077
 11
17.5269048789946
 21
2.0226454700994614
  0
LINE
  8
0
 10
17.5269048789946
 20
2.0226454700994614
 11
16.952905799921787
 21
2.083224166092619
  0
LINE
  8
0
 10
16.952905799921787
 20
2.083224166092619
 11
16.75408634311495
 21
2.0743806326571654
  0
LINE
  8
0
 10
16.75408634311495
 20
2.0743806326571654
 11
16.424537033595072
 21
2.0096164406605315
  0
LINE
  8
0
 10
16.424537033595072
 20
2.0096164406605315
 11
15.566363582112267
 21
2.0215504614170348
  0
LINE
  8
0
 10
15.566363582112267
 20
2.0215504614170348
 11
15.100407466963091
 21
2.278733074436871
  0
LINE
  8
0
 10
15.100407466963091
 20
2.278733074436871
 11
14.593702247162472
 21
4.498753695637482
  0
LINE
  8
0
 10
14.593702247162472
 20
4.498753695637482
 11
14.901926846947633
 21
4.932638004839624
  0
LINE
  8
0
 10
14.901926846947633
 20
4.932638004839624
 11
15.669936432445459
 21
5.315737691950863
  0
LINE
  8
0
 10
15.669936432445459
 20
5.315737691950863
 11
15.994950230546015
 21
5.400373257845315
  0
LINE
  8
0
 10
15.994950230546015
 20
5.400373257845315
 11
16.177917436816198
 21
5.478670038866396
  0
LINE
  8
0
 10
16.177917436816198
 20
5.478670038866396
 11
16.66878862613708
 21
5.782298424692498
  0
LINE
  8
0
 10
16.66878862613708
 20
5.782298424692498
 11
17.397298722835018
 21
6.40034494333014
  0
LINE
  8
0
 10
17.397298722835018
 20
6.40034494333014
 11
18.274247975178568
 21
7.404963582576579
  0
LINE
  8
0
 10
18.274247975178568
 20
7.404963582576579
 11
18.672378711693682
 21
8.02877743425284
  0
LINE
  8
0
 10
18.672378711693682
 20
8.02877743425284
 11
18.354387059018105
 21
8.839006951392475
  0
LINE
  8
0
 10
18.354387059018105
 20
8.839006951392475
 11
17.919188667012897
 21
9.592792677717776
  0
LINE
  8
0
 10
17.919188667012897
 20
9.592792677717776
 11
17.183240904546757
 21
9.670463108550683
  0
LINE
  8
0
 10
17.183240904546757
 20
9.670463108550683
 11
15.851029508928027
 21
9.61120605086922
  0
LINE
  8
0
 10
15.851029508928027
 20
9.61120605086922
 11
14.913602667185208
 21
9.426979623419419
  0
LINE
  8
0
 10
14.913602667185208
 20
9.426979623419419
 11
14.370163255607567
 21
9.232510275889227
  0
LINE
  8
0
 10
14.370163255607567
 20
9.232510275889227
 11
14.194870180045323
 21
9.13827799825296
  0
LINE
  8
0
 10
14.194870180045323
 20
9.13827799825296
 11
13.9260566415136
 21
8.936941390871043
  0
LINE
  8
0
 10
13.9260566415136
 20
8.936941390871043
 11
13.147691100918689
 21
8.575346066100773
  0
LINE
  8
0
 10
13.147691100918689
 20
8.575346066100773
 11
12.616291793587454
 21
8.604888812291826
  0
LINE
  8
0
 10
12.616291793587454
 20
8.604888812291826
 11
11.196535317298839
 21
10.385207122697489
  0
LINE
  8
0
 10
11.196535317298839
 20
10.385207122697489
 11
11.28598073960589
 21
10.909857019402764
  0
LINE
  8
0
 10
11.28598073960589
 20
10.909857019402764
 11
11.811712741691482
 21
11.588244781427072
  0
LINE
  8
0
 10
11.811712741691482
 20
11.588244781427072
 11
12.067818059626187
 21
11.805516993399944
  0
LINE
  8
0
 10
12.067818059626187
 20
11.805516993399944
 11
12.198694116212407
 21
11.955446451149312
  0
LINE
  8
0
 10
12.198694116212407
 20
11.955446451149312
 11
12.509214356596301
 21
12.441987201237723
  0
LINE
  8
0
 10
12.509214356596301
 20
12.441987201237723
 11
12.897418939218632
 21
13.314916558185903
  0
LINE
  8
0
 10
12.897418939218632
 20
13.314916558185903
 11
13.251635222727034
 21
14.600540696884604
  0
LINE
  8
0
 10
13.251635222727034
 20
14.600540696884604
 11
13.339675935203589
 21
15.335320009228015
  0
LINE
  8
0
 10
13.339675935203589
 20
15.335320009228015
 11
12.701629943450095
 21
15.927340172755384
  0
LINE
  8
0
 10
12.701629943450095
 20
15.927340172755384
 11
11.982474371460743
 21
16.417652139662525
  0
LINE
  8
0
 10
11.982474371460743
 20
16.417652139662525
 11
11.285708412127658
 21
16.168315012825538
  0
LINE
  8
0
 10
11.285708412127658
 20
16.168315012825538
 11
10.111138092966286
 21
15.536901387024963
  0
LINE
  8
0
 10
10.111138092966286
 20
15.536901387024963
 11
9.346478543806107
 21
14.96418484800327
  0
LINE
  8
0
 10
9.346478543806107
 20
14.96418484800327
 11
8.941233640033591
 21
14.553184496238122
  0
LINE
  8
0
 10
8.941233640033591
 20
14.553184496238122
 11
8.824185889159534
 21
14.392227332669943
  0
LINE
  8
0
 10
8.824185889159534
 20
14.392227332669943
 11
8.669349939703874
 21
14.09419549422618
  0
LINE
  8
0
 10
8.669349939703874
 20
14.09419549422618
 11
8.124957151338574
 21
13.430689212675523
  0
LINE
  8
0
 10
8.124957151338574
 20
13.430689212675523
 11
7.633364801827047
 21
13.226740788836647
  0
LINE
  8
0
 10
7.633364801827047
 20
13.226740788836647
 11
5.581757251349904
 21
14.214742912900313
  0
LINE
  8
0
 10
5.581757251349904
 20
14.214742912900313
 11
5.434707733314814
 21
14.726245050657516
  0
LINE
  8
0
 10
5.434707733314814
 20
14.726245050657516
 11
5.614034481295243
 21
15.565557871446071
  0
LINE
  8
0
 10
5.614034481295243
 20
15.565557871446071
 11
5.750506519921533
 21
15.872433303247323
  0
LINE
  8
0
 10
5.750506519921533
 20
15.872433303247323
 11
5.803369818727388
 21
16.064300069853587
  0
LINE
  8
0
 10
5.803369818727388
 20
16.064300069853587
 11
5.872036768285432
 21
16.637387821618578
  0
LINE
  8
0
 10
5.872036768285432
 20
16.637387821618578
 11
5.843047158227042
 21
17.59230565195772
  0
LINE
  8
0
 10
5.843047158227042
 20
17.59230565195772
 11
5.604373593773828
 21
18.904301662294063
  0
LINE
  8
0
 10
5.604373593773828
 20
18.904301662294063
 11
5.364886739357367
 21
19.604514381018124
  0
LINE
  8
0
 10
5.364886739357367
 20
19.604514381018124
 11
4.5331592423133005
 21
19.861068336895805
  0
LINE
  8
0
 10
4.5331592423133005
 20
19.861068336895805
 11
3.6724840712365823
 21
19.990794246057174
  0
LINE
  8
0
 10
3.6724840712365823
 20
19.990794246057174
 11
3.152902958556172
 21
19.463833837439537
  0
LINE
  8
0
 10
3.152902958556172
 20
19.463833837439537
 11
2.3686117727216947
 21
18.385322855889594
  0
LINE
  8
0
 10
2.3686117727216947
 20
18.385322855889594
 11
1.9281697177892727
 21
17.537549739756663
  0
LINE
  8
0
 10
1.9281697177892727
 20
17.537549739756663
 11
1.741383045016619
 21
16.991422044012168
  0
LINE
  8
0
 10
1.741383045016619
 20
16.991422044012168
 11
1.7057633613878116
 21
16.795619534766825
  0
LINE
  8
0
 10
1.7057633613878116
 20
16.795619534766825
 11
1.6955721597362106
 21
16.45992132598563
  0
LINE
  8
0
 10
1.6955721597362106
 20
16.45992132598563
 11
1.4929757918756708
 21
15.625919644086222
  0
LINE
  8
0
 10
1.4929757918756708
 20
15.625919644086222
 11
1.1385562939891245
 21
15.22887453682198
  0
LINE
  8
0
 10
1.1385562939891245
 20
15.22887453682198
 11
-1.1385562939891551
 21
15.22887453682197
  0
LINE
  8
0
 10
-1.1385562939891551
 20
15.22887453682197
 11
-1.4929757918755464
 21
15.625919644086245
  0
LINE
  8
0
 10
-1.4929757918755464
 20
15.625919644086245
 11
-1.6955721597360387
 21
16.459921325985636
  0
LINE
  8
0
 10
-1.6955721597360387
 20
16.459921325985636
 11
-1.7057633613878191
 21
16.795619534766846
  0
LINE
  8
0
 10
-1.7057633613878191
 20
16.795619534766846
 11
-1.7413830450166412
 21
16.99142204401216
  0
LINE
  8
0
 10
-1.7413830450166412
 20
16.99142204401216
 11
-1.9281697177892891
 21
17.537549739756653
  0
LINE
  8
0
 10
-1.9281697177892891
 20
17.537549739756653
 11
-2.3686117727221014
 21
18.385322855889445
  0
LINE
  8
0
 10
-2.3686117727221014
 20
18.385322855889445
 11
-3.1529029585577995
 21
19.463833837441197
  0
LINE
  8
0
 10
-3.1529029585577995
 20
19.463833837441197
 11
-3.6724840712365774
 21
19.990794246057174
  0
LINE
  8
0
 10
-3.6724840712365774
 20
19.990794246057174
 11
-4.5331592423133
 21
19.86106833689581
  0
LINE
  8
0
 10
-4.5331592423133
 20
19.86106833689581
 11
-5.364886739357371
 21
19.604514381018127
  0
LINE
  8
0
 10
-5.364886739357371
 20
19.604514381018127
 11
-5.604373593774583
 21
18.904301662291857
  0
LINE
  8
0
 10
-5.604373593774583
 20
18.904301662291857
 11
-5.84304715822748
 21
17.592305651957673
  0
LINE
  8
0
 10
-5.84304715822748
 20
17.592305651957673
 11
-5.872036768285459
 21
16.63738782161858
  0
LINE
  8
0
 10
-5.872036768285459
 20
16.63738782161858
 11
-5.803369818727419
 21
16.06430006985358
  0
LINE
  8
0
 10
-5.803369818727419
 20
16.06430006985358
 11
-5.7505065199215375
 21
15.872433303247297
  0
LINE
  8
0
 10
-5.7505065199215375
 20
15.872433303247297
 11
-5.614034481295095
 21
15.565557871446138
  0
LINE
  8
0
 10
-5.614034481295095
 20
15.565557871446138
 11
-5.434707733314698
 21
14.726245050657546
  0
LINE
  8
0
 10
-5.434707733314698
 20
14.726245050657546
 11
-5.581757251349942
 21
14.214742912900306
  0
LINE
  8
0
 10
-5.581757251349942
 20
14.214742912900306
 11
-7.633364801827075
 21
13.22674078883662
  0
LINE
  8
0
 10
-7.633364801827075
 20
13.22674078883662
 11
-8.124957151338478
 21
13.430689212675595
  0
LINE
  8
0
 10
-8.124957151338478
 20
13.430689212675595
 11
-8.669349939703727
 21
14.094195494226252
  0
LINE
  8
0
 10
-8.669349939703727
 20
14.094195494226252
 11
-8.824185889159555
 21
14.392227332669957
  0
LINE
  8
0
 10
-8.824185889159555
 20
14.392227332669957
 11
-8.941233640033616
 21
14.553184496238103
  0
LINE
  8
0
 10
-8.941233640033616
 20
14.553184496238103
 11
-9.346478543806125
 21
14.96418484800325
  0
LINE
  8
0
 10
-9.346478543806125
 20
14.96418484800325
 11
-10.111138092966597
 21
15.536901387024649
  0
LINE
  8
0
 10
-10.111138092966597
 20
15.536901387024649
 11
-11.285708412129852
 21
16.16831501282632
  0
LINE
  8
0
 10
-11.285708412129852
 20
16.16831501282632
 11
-11.982474371460746
 21
16.417652139662522
  0
LINE
  8
0
 10
-11.982474371460746
 20
16.417652139662522
 11
-12.701629943450088
 21
15.927340172755393
  0
LINE
  8
0
 10
-12.701629943450088
 20
15.927340172755393
 11
-13.339675935203589
 21
15.335320009228022
  0
LINE
  8
0
 10
-13.339675935203589
 20
15.335320009228022
 11
-13.251635222726753
 21
14.600540696882302
  0
LINE
  8
0
 10
-13.251635222726753
 20
14.600540696882302
 11
-12.897418939218998
 21
13.314916558185681
  0
LINE
  8
0
 10
-12.897418939218998
 20
13.314916558185681
 11
-12.509214356596317
 21
12.441987201237717
  0
LINE
  8
0
 10
-12.509214356596317
 20
12.441987201237717
 11
-12.198694116212424
 21
11.9554464511493
  0
LINE
  8
0
 10
-12.198694116212424
 20
11.9554464511493
 11
-12.067818059626173
 21
11.805516993399925
  0
LINE
  8
0
 10
-12.067818059626173
 20
11.805516993399925
 11
-11.811712741691368
 21
11.588244781427205
  0
LINE
  8
0
 10
-11.811712741691368
 20
11.588244781427205
 11
-11.28598073960579
 21
10.909857019402848
  0
LINE
  8
0
 10
-11.28598073960579
 20
10.909857019402848
 11
-11.196535317298865
 21
10.385207122697473
  0
LINE
  8
0
 10
-11.196535317298865
 20
10.385207122697473
 11
-12.616291793587463
 21
8.604888812291797
  0
LINE
  8
0
 10
-12.616291793587463
 20
8.604888812291797
 11
-13.147691100918628
 21
8.575346066100888
  0
LINE
  8
0
 10
-13.147691100918628
 20
8.575346066100888
 11
-13.926056641513494
 21
8.93694139087118
  0
LINE
  8
0
 10
-13.926056641513494
 20
8.93694139087118
 11
-14.194870180045342
 21
9.138277998252969
  0
LINE
  8
0
 10
-14.194870180045342
 20
9.138277998252969
 11
-14.370163255607572
 21
9.232510275889208
  0
LINE
  8
0
 10
-14.370163255607572
 20
9.232510275889208
 11
-14.913602667185206
 21
9.426979623419395
  0
LINE
  8
0
 10
-14.913602667185206
 20
9.426979623419395
 11
-15.85102950892816
 21
9.611206050868807
  0
LINE
  8
0
 10
-15.85102950892816
 20
9.611206050868807
 11
-17.183240904549066
 21
9.670463108550443
  0
LINE
  8
0
 10
-17.183240904549066
 20
9.670463108550443
 11
-17.919188667012886
 21
9.592792677717778
  0
LINE
  8
0
 10
-17.919188667012886
 20
9.592792677717778
 11
-18.354387059018098
 21
8.839006951392482
  0
LINE
  8
0
 10
-18.354387059018098
 20
8.839006951392482
 11
-18.672378711693682
 21
8.028777434252843
  0
LINE
  8
0
 10
-18.672378711693682
 20
8.028777434252843
 11
-18.274247975177314
 21
7.404963582574625
  0
LINE
  8
0
 10
-18.274247975177314
 20
7.404963582574625
 11
-17.397298722835252
 21
6.400344943329777
  0
LINE
  8
0
 10
-17.397298722835252
 20
6.400344943329777
 11
-16.668788626137097
 21
5.782298424692484
  0
LINE
  8
0
 10
-16.668788626137097
 20
5.782298424692484
 11
-16.17791743681621
 21
5.478670038866376
  0
LINE
  8
0
 10
-16.17791743681621
 20
5.478670038866376
 11
-15.994950230545994
 21
5.400373257845302
  0
LINE
  8
0
 10
-15.994950230545994
 20
5.400373257845302
 11
-15.669936432445418
 21
5.315737691951029
  0
LINE
  8
0
 10
-15.669936432445418
 20
5.315737691951029
 11
-14.901926846947582
 21
4.932638004839739
  0
LINE
  8
0
 10
-14.901926846947582
 20
4.932638004839739
 11
-14.59370224716249
 21
4.498753695637455
  0
LINE
  8
0
 10
-14.59370224716249
 20
4.498753695637455
 11
-15.100407466963086
 21
2.278733074436839
  0
LINE
  8
0
 10
-15.100407466963086
 20
2.278733074436839
 11
-15.566363582112263
 21
2.021550461417161
  0
LINE
  8
0
 10
-15.566363582112263
 20
2.021550461417161
 11
-16.424537033595037
 21
2.0096164406606998
  0
LINE
  8
0
 10
-16.424537033595037
 20
2.0096164406606998
 11
-16.754086343114974
 21
2.0743806326571628
  0
LINE
  8
0
 10
-16.754086343114974
 20
2.0743806326571628
 11
-16.952905799921783
 21
2.0832241660925956
  0
LINE
  8
0
 10
-16.952905799921783
 20
2.0832241660925956
 11
-17.526904878994593
 21
2.0226454700994423
  0
LINE
  8
0
 10
-17.526904878994593
 20
2.0226454700994423
 11
-18.451430130527104
 21
1.7818934826316475
  0
LINE
  8
0
 10
-18.451430130527104
 20
1.7818934826316475
 11
-19.677421797202385
 21
1.2572573851792814
  0
LINE
  8
0
 10
-19.677421797202385
 20
1.2572573851792814
 11
-20.306787882636183
 21
0.8679629780694799
  0
LINE
  8
0
 10
-20.306787882636183
 20
0.8679629780694799
 11
-20.371832715762604
 21
5.858053568464529e-15
  0
LINE
  8
0
 10
-20.371832715762604
 20
5.858053568464529e-15
 11
-20.306787882636183
 21
-0.8679629780694732
  0
LINE
  8
0
 10
-20.306787882636183
 20
-0.8679629780694732
 11
-19.677421797200402
 21
-1.2572573851804967
  0
LINE
  8
0
 10
-19.677421797200402
 20
-1.2572573851804967
 11
-18.451430130527157
 21
-1.7818934826320751
  0
LINE
  8
0
 10
-18.451430130527157
 20
-1.7818934826320751
 11
-17.5269048789946
 21
-2.0226454700994596
  0
LINE
  8
0
 10
-17.5269048789946
 20
-2.0226454700994596
 11
-16.952905799921787
 21
-2.0832241660926174
  0
LINE
  8
0
 10
-16.952905799921787
 20
-2.0832241660926174
 11
-16.75408634311495
 21
-2.0743806326571637
  0
LINE
  8
0
 10
-16.75408634311495
 20
-2.0743806326571637
 11
-16.424537033595072
 21
-2.0096164406605297
  0
LINE
  8
0
 10
-16.424537033595072
 20
-2.0096164406605297
 11
-15.566363582112265
 21
-2.021550461417033
  0
LINE
  8
0
 10
-15.566363582112265
 20
-2.021550461417033
 11
-15.100407466963091
 21
-2.278733074436869
  0
LINE
  8
0
 10
-15.100407466963091
 20
-2.278733074436869
 11
-14.593702247162472
 21
-4.49875369563748
  0
LINE
  8
0
 10
-14.593702247162472
 20
-4.49875369563748
 11
-14.901926846947633
 21
-4.932638004839622
  0
LINE
  8
0
 10
-14.901926846947633
 20
-4.932638004839622
 11
-15.669936432445459
 21
-5.315737691950861
  0
LINE
  8
0
 10
-15.669936432445459
 20
-5.315737691950861
 11
-15.994950230546014
 21
-5.400373257845313
  0
LINE
  8
0
 10
-15.994950230546014
 20
-5.400373257845313
 11
-16.177917436816198
 21
-5.478670038866394
  0
LINE
  8
0
 10
-16.177917436816198
 20
-5.478670038866394
 11
-16.66878862613708
 21
-5.782298424692496
  0
LINE
  8
0
 10
-16.66878862613708
 20
-5.782298424692496
 11
-17.397298722835018
 21
-6.400344943330138
  0
LINE
  8
0
 10
-17.397298722835018
 20
-6.400344943330138
 11
-18.274247975178568
 21
-7.404963582576578
  0
LINE
  8
0
 10
-18.274247975178568
 20
-7.404963582576578
 11
-18.672378711693682
 21
-8.028777434252838
  0
LINE
  8
0
 10
-18.672378711693682
 20
-8.028777434252838
 11
-18.354387059018094
 21
-8.83900695139249
  0
LINE
  8
0
 10
-18.354387059018094
 20
-8.83900695139249
 11
-17.919188667012886
 21
-9.59279267771779
  0
LINE
  8
0
 10
-17.919188667012886
 20
-9.59279267771779
 11
-17.18324090454675
 21
-9.670463108550697
  0
LINE
  8
0
 10
-17.18324090454675
 20
-9.670463108550697
 11
-15.851029508928018
 21
-9.61120605086923
  0
LINE
  8
0
 10
-15.851029508928018
 20
-9.61120605086923
 11
-14.913602667185199
 21
-9.42697962341943
  0
LINE
  8
0
 10
-14.913602667185199
 20
-9.42697962341943
 11
-14.370163255607558
 21
-9.23251027588924
  0
LINE
  8
0
 10
-14.370163255607558
 20
-9.23251027588924
 11
-14.194870180045314
 21
-9.13827799825297
  0
LINE
  8
0
 10
-14.194870180045314
 20
-9.13827799825297
 11
-13.926056641513593
 21
-8.936941390871054
  0
LINE
  8
0
 10
-13.926056641513593
 20
-8.936941390871054
 11
-13.147691100918681
 21
-8.575346066100783
  0
LINE
  8
0
 10
-13.147691100918681
 20
-8.575346066100783
 11
-12.616291793587447
 21
-8.604888812291836
  0
LINE
  8
0
 10
-12.616291793587447
 20
-8.604888812291836
 11
-11.196535317298832
 21
-10.385207122697498
  0
LINE
  8
0
 10
-11.196535317298832
 20
-10.385207122697498
 11
-11.28598073960588
 21
-10.909857019402773
  0
LINE
  8
0
 10
-11.28598073960588
 20
-10.909857019402773
 11
-11.811712741691471
 21
-11.588244781427079
  0
LINE
  8
0
 10
-11.811712741691471
 20
-11.588244781427079
 11
-12.067818059626177
 21
-11.805516993399953
  0
LINE
  8
0
 10
-12.067818059626177
 20
-11.805516993399953
 11
-12.198694116212396
 21
-11.955446451149319
  0
LINE
  8
0
 10
-12.198694116212396
 20
-11.955446451149319
 11
-12.50921435659629
 21
-12.44198720123773
  0
LINE
  8
0
 10
-12.50921435659629
 20
-12.44198720123773
 11
-12.897418939218621
 21
-13.314916558185914
  0
LINE
  8
0
 10
-12.897418939218621
 20
-13.314916558185914
 11
-13.251635222727021
 21
-14.600540696884615
  0
LINE
  8
0
 10
-13.251635222727021
 20
-14.600540696884615
 11
-13.339675935203578
 21
-15.335320009228026
  0
LINE
  8
0
 10
-13.339675935203578
 20
-15.335320009228026
 11
-12.701629943450083
 21
-15.927340172755395
  0
LINE
  8
0
 10
-12.701629943450083
 20
-15.927340172755395
 11
-11.98247437146073
 21
-16.417652139662536
  0
LINE
  8
0
 10
-11.98247437146073
 20
-16.417652139662536
 11
-11.285708412127644
 21
-16.16831501282554
  0
LINE
  8
0
 10
-11.285708412127644
 20
-16.16831501282554
 11
-10.111138092966273
 21
-15.536901387024969
  0
LINE
  8
0
 10
-10.111138092966273
 20
-15.536901387024969
 11
-9.346478543806095
 21
-14.964184848003278
  0
LINE
  8
0
 10
-9.346478543806095
 20
-14.964184848003278
 11
-8.941233640033579
 21
-14.553184496238128
  0
LINE
  8
0
 10
-8.941233640033579
 20
-14.553184496238128
 11
-8.824185889159523
 21
-14.392227332669949
  0
LINE
  8
0
 10
-8.824185889159523
 20
-14.392227332669949
 11
-8.669349939703864
 21
-14.094195494226184
  0
LINE
  8
0
 10
-8.669349939703864
 20
-14.094195494226184
 11
-8.124957151338563
 21
-13.430689212675528
  0
LINE
  8
0
 10
-8.124957151338563
 20
-13.430689212675528
 11
-7.633364801827037
 21
-13.22674078883665
  0
LINE
  8
0
 10
-7.633364801827037
 20
-13.22674078883665
 11
-5.5817572513498925
 21
-14.214742912900316
  0
LINE
  8
0
 10
-5.5817572513498925
 20
-14.214742912900316
 11
-5.434707733314803
 21
-14.72624505065752
  0
LINE
  8
0
 10
-5.434707733314803
 20
-14.72624505065752
 11
-5.614034481295231
 21
-15.565557871446073
  0
LINE
  8
0
 10
-5.614034481295231
 20
-15.565557871446073
 11
-5.75050651992152
 21
-15.872433303247329
  0
LINE
  8
0
 10
-5.75050651992152
 20
-15.872433303247329
 11
-5.803369818727375
 21
-16.064300069853587
  0
LINE
  8
0
 10
-5.803369818727375
 20
-16.064300069853587
 11
-5.872036768285419
 21
-16.637387821618585
  0
LINE
  8
0
 10
-5.872036768285419
 20
-16.637387821618585
 11
-5.843047158227027
 21
-17.592305651957723
  0
LINE
  8
0
 10
-5.843047158227027
 20
-17.592305651957723
 11
-5.604373593773813
 21
-18.904301662294063
  0
LINE
  8
0
 10
-5.604373593773813
 20
-18.904301662294063
 11
-5.364886739357352
 21
-19.604514381018127
  0
LINE
  8
0
 10
-5.364886739357352
 20
-19.604514381018127
 11
-4.533159242313285
 21
-19.86106833689581
  0
LINE
  8
0
 10
-4.533159242313285
 20
-19.86106833689581
 11
-3.6724840712365663
 21
-19.990794246057177
  0
LINE
  8
0
 10
-3.6724840712365663
 20
-19.990794246057177
 11
-3.152902958556156
 21
-19.46383383743954
  0
LINE
  8
0
 10
-3.152902958556156
 20
-19.46383383743954
 11
-2.368611772721681
 21
-18.385322855889598
  0
LINE
  8
0
 10
-2.368611772721681
 20
-18.385322855889598
 11
-1.9281697177892585
 21
-17.537549739756663
  0
LINE
  8
0
 10
-1.9281697177892585
 20
-17.537549739756663
 11
-1.7413830450166052
 21
-16.991422044012168
  0
LINE
  8
0
 10
-1.7413830450166052
 20
-16.991422044012168
 11
-1.7057633613877978
 21
-16.795619534766825
  0
LINE
  8
0
 10
-1.7057633613877978
 20
-16.795619534766825
 11
-1.6955721597361968
 21
-16.459921325985633
  0
LINE
  8
0
 10
-1.6955721597361968
 20
-16.459921325985633
 11
-1.4929757918756588
 21
-15.625919644086222
  0
LINE
  8
0
 10
-1.4929757918756588
 20
-15.625919644086222
 11
-1.1385562939891125
 21
-15.22887453682198
  0
LINE
  8
0
 10
-1.1385562939891125
 20
-15.22887453682198
 11
1.1385562939891667
 21
-15.228874536821968
  0
LINE
  8
0
 10
1.1385562939891667
 20
-15.228874536821968
 11
1.4929757918755588
 21
-15.625919644086244
  0
LINE
  8
0
 10
1.4929757918755588
 20
-15.625919644086244
 11
1.6955721597360516
 21
-16.459921325985633
  0
LINE
  8
0
 10
1.6955721597360516
 20
-16.459921325985633
 11
1.7057633613878325
 21
-16.795619534766846
  0
LINE
  8
0
 10
1.7057633613878325
 20
-16.795619534766846
 11
1.741383045016654
 21
-16.99142204401216
  0
LINE
  8
0
 10
1.741383045016654
 20
-16.99142204401216
 11
1.928169717789303
 21
-17.53754973975665
  0
LINE
  8
0
 10
1.928169717789303
 20
-17.53754973975665
 11
2.3686117727221165
 21
-18.385322855889445
  0
LINE
  8
0
 10
2.3686117727221165
 20
-18.385322855889445
 11
3.152902958557814
 21
-19.46383383744119
  0
LINE
  8
0
 10
3.152902958557814
 20
-19.46383383744119
 11
3.6724840712365925
 21
-19.99079424605717
  0
LINE
  8
0
 10
3.6724840712365925
 20
-19.99079424605717
 11
4.533159242313288
 21
-19.86106833689581
  0
LINE
  8
0
 10
4.533159242313288
 20
-19.86106833689581
 11
5.36488673935736
 21
-19.604514381018127
  0
LINE
  8
0
 10
5.36488673935736
 20
-19.604514381018127
 11
5.604373593774572
 21
-18.90430166229186
  0
LINE
  8
0
 10
5.604373593774572
 20
-18.90430166229186
 11
5.843047158227469
 21
-17.592305651957677
  0
LINE
  8
0
 10
5.843047158227469
 20
-17.592305651957677
 11
5.872036768285449
 21
-16.637387821618585
  0
LINE
  8
0
 10
5.872036768285449
 20
-16.637387821618585
 11
5.80336981872741
 21
-16.06430006985358
  0
LINE
  8
0
 10
5.80336981872741
 20
-16.06430006985358
 11
5.750506519921529
 21
-15.8724333032473
  0
LINE
  8
0
 10
5.750506519921529
 20
-15.8724333032473
 11
5.614034481295086
 21
-15.56555787144614
  0
LINE
  8
0
 10
5.614034481295086
 20
-15.56555787144614
 11
5.434707733314689
 21
-14.726245050657548
  0
LINE
  8
0
 10
5.434707733314689
 20
-14.726245050657548
 11
5.581757251349934
 21
-14.21474291290031
  0
LINE
  8
0
 10
5.581757251349934
 20
-14.21474291290031
 11
7.633364801827069
 21
-13.226740788836624
  0
LINE
  8
0
 10
7.633364801827069
 20
-13.226740788836624
 11
8.12495715133847
 21
-13.430689212675599
  0
LINE
  8
0
 10
8.12495715133847
 20
-13.430689212675599
 11
8.669349939703718
 21
-14.094195494226257
  0
LINE
  8
0
 10
8.669349939703718
 20
-14.094195494226257
 11
8.824185889159548
 21
-14.392227332669963
  0
LINE
  8
0
 10
8.824185889159548
 20
-14.392227332669963
 11
8.941233640033609
 21
-14.553184496238107
  0
LINE
  8
0
 10
8.941233640033609
 20
-14.553184496238107
 11
9.346478543806118
 21
-14.964184848003255
  0
LINE
  8
0
 10
9.346478543806118
 20
-14.964184848003255
 11
10.111138092966588
 21
-15.536901387024653
  0
LINE
  8
0
 10
10.111138092966588
 20
-15.536901387024653
 11
11.285708412129841
 21
-16.168315012826323
  0
LINE
  8
0
 10
11.285708412129841
 20
-16.168315012826323
 11
11.982474371460738
 21
-16.41765213966253
  0
LINE
  8
0
 10
11.982474371460738
 20
-16.41765213966253
 11
12.701629943450099
 21
-15.927340172755382
  0
LINE
  8
0
 10
12.701629943450099
 20
-15.927340172755382
 11
13.339675935203603
 21
-15.335320009228013
  0
LINE
  8
0
 10
13.339675935203603
 20
-15.335320009228013
 11
13.251635222726765
 21
-14.60054069688229
  0
LINE
  8
0
 10
13.251635222726765
 20
-14.60054069688229
 11
12.897418939219008
 21
-13.31491655818567
  0
LINE
  8
0
 10
12.897418939219008
 20
-13.31491655818567
 11
12.509214356596328
 21
-12.441987201237708
  0
LINE
  8
0
 10
12.509214356596328
 20
-12.441987201237708
 11
12.198694116212433
 21
-11.95544645114929
  0
LINE
  8
0
 10
12.198694116212433
 20
-11.95544645114929
 11
12.067818059626182
 21
-11.805516993399916
  0
LINE
  8
0
 10
12.067818059626182
 20
-11.805516993399916
 11
11.811712741691377
 21
-11.588244781427196
  0
LINE
  8
0
 10
11.811712741691377
 20
-11.588244781427196
 11
11.285980739605797
 21
-10.909857019402839
  0
LINE
  8
0
 10
11.285980739605797
 20
-10.909857019402839
 11
11.196535317298874
 21
-10.385207122697466
  0
LINE
  8
0
 10
11.196535317298874
 20
-10.385207122697466
 11
12.61629179358747
 21
-8.604888812291787
  0
LINE
  8
0
 10
12.61629179358747
 20
-8.604888812291787
 11
13.147691100918633
 21
-8.575346066100877
  0
LINE
  8
0
 10
13.147691100918633
 20
-8.575346066100877
 11
13.9260566415135
 21
-8.93694139087117
  0
LINE
  8
0
 10
13.9260566415135
 20
-8.93694139087117
 11
14.19487018004535
 21
-9.138277998252958
  0
LINE
  8
0
 10
14.19487018004535
 20
-9.138277998252958
 11
14.370163255607578
 21
-9.232510275889197
  0
LINE
  8
0
 10
14.370163255607578
 20
-9.232510275889197
 11
14.913602667185213
 21
-9.426979623419383
  0
LINE
  8
0
 10
14.913602667185213
 20
-9.426979623419383
 11
15.85102950892817
 21
-9.611206050868795
  0
LINE
  8
0
 10
15.85102950892817
 20
-9.611206050868795
 11
17.183240904549073
 21
-9.67046310855043
  0
LINE
  8
0
 10
17.183240904549073
 20
-9.67046310855043
 11
17.919188667012893
 21
-9.592792677717764
  0
LINE
  8
0
 10
0.3118675362266391
 20
-1.4672214011007085
 11
9.18454765366783e-17
 21
-1.5
  0
LINE
  8
0
 10
9.18454765366783e-17
 20
-1.5
 11
-0.3118675362266384
 21
-1.4672214011007085
  0
LINE
  8
0
 10
-0.3118675362266384
 20
-1.4672214011007085
 11
-0.6101049646137001
 21
-1.3703181864639014
  0
LINE
  8
0
 10
-0.6101049646137001
 20
-1.3703181864639014
 11
-0.8816778784387099
 21
-1.213525491562421
  0
LINE
  8
0
 10
-0.8816778784387099
 20
-1.213525491562421
 11
-1.114717238216091
 21
-1.0036959095382878
  0
LINE
  8
0
 10
-1.114717238216091
 20
-1.0036959095382878
 11
-1.299038105676658
 21
-0.7500000000000003
  0
LINE
  8
0
 10
-1.299038105676658
 20
-0.7500000000000003
 11
-1.4265847744427305
 21
-0.46352549156242095
  0
LINE
  8
0
 10
-1.4265847744427305
 20
-0.46352549156242095
 11
-1.49178284305241
 21
-0.15679269490147957
  0
LINE
  8
0
 10
-1.49178284305241
 20
-0.15679269490147957
 11
-1.4917828430524098
 21
0.15679269490148126
  0
LINE
  8
0
 10
-1.4917828430524098
 20
0.15679269490148126
 11
-1.4265847744427302
 21
0.46352549156242123
  0
LINE
  8
0
 10
-1.4265847744427302
 20
0.46352549156242123
 11
-1.2990381056766576
 21
0.7500000000000006
  0
LINE
  8
0
 10
-1.2990381056766576
 20
0.7500000000000006
 11
-1.114717238216091
 21
1.0036959095382878
  0
LINE
  8
0
 10
-1.114717238216091
 20
1.0036959095382878
 11
-0.8816778784387097
 21
1.2135254915624214
  0
LINE
  8
0
 10
-0.8816778784387097
 20
1.2135254915624214
 11
-0.6101049646137005
 21
1.3703181864639014
  0
LINE
  8
0
 10
-0.6101049646137005
 20
1.3703181864639014
 11
-0.3118675362266387
 21
1.4672214011007085
  0
LINE
  8
0
 10
-0.3118675362266387
 20
1.4672214011007085
 11
7.579792913117722e-16
 21
1.5
  0
LINE
  8
0
 10
7.579792913117722e-16
 20
1.5
 11
0.3118675362266389
 21
1.4672214011007085
  0
LINE
  8
0
 10
0.3118675362266389
 20
1.4672214011007085
 11
0.6101049646136999
 21
1.3703181864639014
  0
LINE
  8
0
 10
0.6101049646136999
 20
1.3703181864639014
 11
0.8816778784387097
 21
1.213525491562421
  0
LINE
  8
0
 10
0.8816778784387097
 20
1.213525491562421
 11
1.1147172382160917
 21
1.003695909538287
  0
LINE
  8
0
 10
1.1147172382160917
 20
1.003695909538287
 11
1.299038105676658
 21
0.7499999999999998
  0
LINE
  8
0
 10
1.299038105676658
 20
0.7499999999999998
 11
1.4265847744427305
 21
0.4635254915624211
  0
LINE
  8
0
 10
1.4265847744427305
 20
0.4635254915624211
 11
1.49178284305241
 21
0.1567926949014801
  0
LINE
  8
0
 10
1.49178284305241
 20
0.1567926949014801
 11
1.4917828430524098
 21
-0.1567926949014801
  0
LINE
  8
0
 10
1.4917828430524098
 20
-0.1567926949014801
 11
1.4265847744427302
 21
-0.46352549156242107
  0
LINE
  8
0
 10
1.4265847744427302
 20
-0.46352549156242107
 11
1.299038105676658
 21
-0.7500000000000001
  0
LINE
  8
0
 10
1.299038105676658
 20
-0.7500000000000001
 11
1.1147172382160913
 21
-1.0036959095382874
  0
LINE
  8
0
 10
1.1147172382160913
 20
-1.0036959095382874
 11
0.8816778784387098
 21
-1.2135254915624212
  0
LINE
  8
0
 10
0.8816778784387098
 20
-1.2135254915624212
 11
0.6101049646137003
 21
-1.3703181864639014
  0
LINE
  8
0
 10
0.6101049646137003
 20
-1.3703181864639014
 11
0.3118675362266391
 21
-1.4672214011007085
  0
ENDSEC
  0
SECTION
  2
OBJECTS
  0
DICTIONARY
  0
ENDSEC
  0
EOF
