0
SECTION
2
HEADER
9
$ACADVER
1
AC1009
9
$INSBASE
10
0.0
20
0.0
30
0.0
9
$EXTMIN
10
0.0
20
0.0
9
$EXTMAX
10
0.0
20
0.0
0
ENDSEC
0
SECTION
2
TABLES
0
TABLE
2
LTYPE
70
1
0
LTYPE
2
CONTINUOUS
70
64
3
Solid line
72
65
73
0
40
0.0
0
ENDTAB
0
TABLE
2
LAYER
70
0
0
ENDTAB
0
TABLE
2
STYLE
70
1
0
STYLE
2
STANDARD
70
0
40
0
41
40
50
50
71
0
42
1
3
ARIAL.TTF
4

0
ENDTAB
0
TABLE
2
VIEW
70
0
0
ENDTAB
0
ENDSEC
0
SECTION
2
BLOCKS
0
ENDSEC
0
SECTION
2
ENTITIES
0
LINE
8
0
10
121.450464305
20
51.6343048924
11
121.661763247
21
52.6511312245
0
LINE
8
0
10
121.661763247
20
52.6511312245
11
121.732636304
21
53.6872586501
0
LINE
8
0
10
121.732636304
20
53.6872586501
11
120.872696534
21
54.1962481191
0
LINE
8
0
10
120.872696534
20
54.1962481191
11
119.984901613
21
54.6685386877
0
LINE
8
0
10
119.984901613
20
54.6685386877
11
119.180321407
21
55.0506410081
0
LINE
8
0
10
119.180321407
20
55.0506410081
11
118.465110469
21
55.3512111071
0
LINE
8
0
10
118.465110469
20
55.3512111071
11
117.844803446
21
55.5792684292
0
LINE
8
0
10
117.844803446
20
55.5792684292
11
117.220855686
21
55.7769251543
0
LINE
8
0
10
117.220855686
20
55.7769251543
11
116.986915739
21
55.8946728436
0
LINE
8
0
10
116.986915739
20
55.8946728436
11
116.879855377
21
56.017420549
0
LINE
8
0
10
116.879855377
20
56.017420549
11
117.035251035
21
58.289224662
0
LINE
8
0
10
117.035251035
20
58.289224662
11
117.158028375
21
58.3962510379
0
LINE
8
0
10
117.158028375
20
58.3962510379
11
117.405822701
21
58.4810472001
0
LINE
8
0
10
117.405822701
20
58.4810472001
11
118.050873232
21
58.5919020641
0
LINE
8
0
10
118.050873232
20
58.5919020641
11
118.696456483
21
58.7333701193
0
LINE
8
0
10
118.696456483
20
58.7333701193
11
119.445933531
21
58.9337528153
0
LINE
8
0
10
119.445933531
20
58.9337528153
11
120.295049426
21
59.2027392236
0
LINE
8
0
10
120.295049426
20
59.2027392236
11
121.238885602
21
59.5497427927
0
LINE
8
0
10
121.238885602
20
59.5497427927
11
122.160123237
21
59.9368963894
0
LINE
8
0
10
122.160123237
20
59.9368963894
11
122.230996295
21
60.9730238151
0
LINE
8
0
10
122.230996295
20
60.9730238151
11
122.160123237
21
62.0091512407
0
LINE
8
0
10
122.160123237
20
62.0091512407
11
121.238885602
21
62.3963048374
0
LINE
8
0
10
121.238885602
20
62.3963048374
11
120.295049426
21
62.7433084065
0
LINE
8
0
10
120.295049426
20
62.7433084065
11
119.445933531
21
63.0122948148
0
LINE
8
0
10
119.445933531
20
63.0122948148
11
118.696456483
21
63.2126775108
0
LINE
8
0
10
118.696456483
20
63.2126775108
11
118.050873232
21
63.3541455661
0
LINE
8
0
10
118.050873232
20
63.3541455661
11
117.405822701
21
63.46500043
0
LINE
8
0
10
117.405822701
20
63.46500043
11
117.158028375
21
63.5497965923
0
LINE
8
0
10
117.158028375
20
63.5497965923
11
117.035251035
21
63.6568229682
0
LINE
8
0
10
117.035251035
20
63.6568229682
11
116.879855377
21
65.9286270811
0
LINE
8
0
10
116.879855377
20
65.9286270811
11
116.986915739
21
66.0513747866
0
LINE
8
0
10
116.986915739
20
66.0513747866
11
117.220855686
21
66.1691224759
0
LINE
8
0
10
117.220855686
20
66.1691224759
11
117.844803446
21
66.3667792009
0
LINE
8
0
10
117.844803446
20
66.3667792009
11
118.465110469
21
66.5948365231
0
LINE
8
0
10
118.465110469
20
66.5948365231
11
119.180321407
21
66.8954066221
0
LINE
8
0
10
119.180321407
20
66.8954066221
11
119.984901613
21
67.2775089425
0
LINE
8
0
10
119.984901613
20
67.2775089425
11
120.872696534
21
67.749799511
0
LINE
8
0
10
120.872696534
20
67.749799511
11
121.732636304
21
68.25878898
0
LINE
8
0
10
121.732636304
20
68.25878898
11
121.661763247
21
69.2949164056
0
LINE
8
0
10
121.661763247
20
69.2949164056
11
121.450464305
21
70.3117427378
0
LINE
8
0
10
121.450464305
20
70.3117427378
11
120.485089719
21
70.5698485232
0
LINE
8
0
10
120.485089719
20
70.5698485232
11
119.502794171
21
70.785101073
0
LINE
8
0
10
119.502794171
20
70.785101073
11
118.62496001
21
70.9359608612
0
LINE
8
0
10
118.62496001
20
70.9359608612
11
117.855178191
21
71.0324234038
0
LINE
8
0
10
117.855178191
20
71.0324234038
11
117.196344706
21
71.0846669099
0
LINE
8
0
10
117.196344706
20
71.0846669099
11
116.542207476
21
71.1066548964
0
LINE
8
0
10
116.542207476
20
71.1066548964
11
116.28517471
21
71.1569199396
0
LINE
8
0
10
116.28517471
20
71.1569199396
11
116.148967502
21
71.2462312871
0
LINE
8
0
10
116.148967502
20
71.2462312871
11
115.685675253
21
73.4757159878
0
LINE
8
0
10
115.685675253
20
73.4757159878
11
115.775024306
21
73.6118984653
0
LINE
8
0
10
115.775024306
20
73.6118984653
11
115.990752015
21
73.760404265
0
LINE
8
0
10
115.990752015
20
73.760404265
11
116.581974038
21
74.0411808803
0
LINE
8
0
10
116.581974038
20
74.0411808803
11
117.165449687
21
74.351579193
0
LINE
8
0
10
117.165449687
20
74.351579193
11
117.833071488
21
74.7467376427
0
LINE
8
0
10
117.833071488
20
74.7467376427
11
118.578128198
21
75.234838032
0
LINE
8
0
10
118.578128198
20
75.234838032
11
119.393343926
21
75.8236177202
0
LINE
8
0
10
119.393343926
20
75.8236177202
11
120.17596678
21
76.4449615507
0
LINE
8
0
10
120.17596678
20
76.4449615507
11
119.964667838
21
77.4617878829
0
LINE
8
0
10
119.964667838
20
77.4617878829
11
119.616879112
21
78.4403715708
0
LINE
8
0
10
119.616879112
20
78.4403715708
11
118.625350677
21
78.5646215226
0
LINE
8
0
10
118.625350677
20
78.5646215226
11
117.622894064
21
78.6441133053
0
LINE
8
0
10
117.622894064
20
78.6441133053
11
116.732694026
21
78.6740362411
0
LINE
8
0
10
116.732694026
20
78.6740362411
11
115.956947015
21
78.6647817156
0
LINE
8
0
10
115.956947015
20
78.6647817156
11
115.297136118
21
78.6268274749
0
LINE
8
0
10
115.297136118
20
78.6268274749
11
114.646097526
21
78.5595389893
0
LINE
8
0
10
114.646097526
20
78.5595389893
11
114.384614355
21
78.5743365708
0
LINE
8
0
10
114.384614355
20
78.5743365708
11
114.237514561
21
78.6442691884
0
LINE
8
0
10
114.237514561
20
78.6442691884
11
113.474955981
21
80.7899033954
0
LINE
8
0
10
113.474955981
20
80.7899033954
11
113.54492932
21
80.9369838229
0
LINE
8
0
10
113.54492932
20
80.9369838229
11
113.738426193
21
81.1134813509
0
LINE
8
0
10
113.738426193
20
81.1134813509
11
114.285909131
21
81.4721475195
0
LINE
8
0
10
114.285909131
20
81.4721475195
11
114.821684358
21
81.8591046893
0
LINE
8
0
10
114.821684358
20
81.8591046893
11
115.429280492
21
82.3414904355
0
LINE
8
0
10
115.429280492
20
82.3414904355
11
116.100934709
21
82.926496507
0
LINE
8
0
10
116.100934709
20
82.926496507
11
116.828385316
21
83.6207974634
0
LINE
8
0
10
116.828385316
20
83.6207974634
11
117.519112471
21
84.3429211955
0
LINE
8
0
10
117.519112471
20
84.3429211955
11
117.171323745
21
85.3215048834
0
LINE
8
0
10
117.171323745
20
85.3215048834
11
116.69352388
21
86.2436167647
0
LINE
8
0
10
116.69352388
20
86.2436167647
11
115.694311895
21
86.2316963412
0
LINE
8
0
10
115.694311895
20
86.2316963412
11
114.690368088
21
86.1739465753
0
LINE
8
0
10
114.690368088
20
86.1739465753
11
113.804384915
21
86.0823752511
0
LINE
8
0
10
113.804384915
20
86.0823752511
11
113.037123411
21
85.9675760517
0
LINE
8
0
10
113.037123411
20
85.9675760517
11
112.38862613
21
85.84013108
0
LINE
8
0
10
112.38862613
20
85.84013108
11
111.752813794
21
85.6848195795
0
LINE
8
0
10
111.752813794
20
85.6848195795
11
111.491751155
21
85.6638740483
0
LINE
8
0
10
111.491751155
20
85.6638740483
11
111.336498966
21
85.7131252238
0
LINE
8
0
10
111.336498966
20
85.7131252238
11
110.288879077
21
87.7349398313
0
LINE
8
0
10
110.288879077
20
87.7349398313
11
110.338173232
21
87.8901783789
0
LINE
8
0
10
110.338173232
20
87.8901783789
11
110.505834788
21
88.0913798202
0
LINE
8
0
10
110.505834788
20
88.0913798202
11
110.99938007
21
88.5212542699
0
LINE
8
0
10
110.99938007
20
88.5212542699
11
111.477474396
21
88.977562017
0
LINE
8
0
10
111.477474396
20
88.977562017
11
112.013726496
21
89.538189126
0
LINE
8
0
10
112.013726496
20
89.538189126
11
112.599466573
21
90.2092033233
0
LINE
8
0
10
112.599466573
20
90.2092033233
11
113.225601031
21
90.9960920347
0
LINE
8
0
10
113.225601031
20
90.9960920347
11
113.811565548
21
91.8055438696
0
LINE
8
0
10
113.811565548
20
91.8055438696
11
113.333765683
21
92.7276557508
0
LINE
8
0
10
113.333765683
20
92.7276557508
11
112.734855187
21
93.5761186257
0
LINE
8
0
10
112.734855187
20
93.5761186257
11
111.74657308
21
93.428249882
0
LINE
8
0
10
111.74657308
20
93.428249882
11
110.759843652
21
93.2343343363
0
LINE
8
0
10
110.759843652
20
93.2343343363
11
109.894581534
21
93.0229745525
0
LINE
8
0
10
109.894581534
20
93.0229745525
11
109.150098168
21
92.8047691712
0
LINE
8
0
10
109.150098168
20
92.8047691712
11
108.52499478
21
92.5902075271
0
LINE
8
0
10
108.52499478
20
92.5902075271
11
107.916252682
21
92.3497661711
0
LINE
8
0
10
107.916252682
20
92.3497661711
11
107.660473676
21
92.2934677028
0
LINE
8
0
10
107.660473676
20
92.2934677028
11
107.499961147
21
92.3211199799
0
LINE
8
0
10
107.499961147
20
92.3211199799
11
106.186795126
21
94.1814524073
0
LINE
8
0
10
106.186795126
20
94.1814524073
11
106.21449184
21
94.3419572746
0
LINE
8
0
10
106.21449184
20
94.3419572746
11
106.353194861
21
94.564114627
0
LINE
8
0
10
106.353194861
20
94.564114627
11
106.783608672
21
95.0571896101
0
LINE
8
0
10
106.783608672
20
95.0571896101
11
107.195116105
21
95.5743477846
0
LINE
8
0
10
107.195116105
20
95.5743477846
11
107.65003481
21
96.202772834
0
LINE
8
0
10
107.65003481
20
96.202772834
11
108.138949517
21
96.9472954324
0
LINE
8
0
10
108.138949517
20
96.9472954324
11
108.652104126
21
97.8121136509
0
LINE
8
0
10
108.652104126
20
97.8121136509
11
109.122390593
21
98.6938150325
0
LINE
8
0
10
109.122390593
20
98.6938150325
11
108.523480097
21
99.5422779073
0
LINE
8
0
10
108.523480097
20
99.5422779073
11
107.814615539
21
100.301286518
0
LINE
8
0
10
107.814615539
20
100.301286518
11
106.855673137
21
100.020223969
0
LINE
8
0
10
106.855673137
20
100.020223969
11
105.904538989
21
99.6937549231
0
LINE
8
0
10
105.904538989
20
99.6937549231
11
105.076116123
21
99.3665439126
0
LINE
8
0
10
105.076116123
20
99.3665439126
11
104.368279211
21
99.0489971027
0
LINE
8
0
10
104.368279211
20
99.0489971027
11
103.77821421
21
98.7513156637
0
LINE
8
0
10
103.77821421
20
98.7513156637
11
103.207882062
21
98.4302234197
0
LINE
8
0
10
103.207882062
20
98.4302234197
11
102.96215137
21
98.3396207483
0
LINE
8
0
10
102.96215137
20
98.3396207483
11
102.799368545
21
98.3451590174
0
LINE
8
0
10
102.799368545
20
98.3451590174
11
101.245118191
21
100.009354791
0
LINE
8
0
10
101.245118191
20
100.009354791
11
101.250701526
21
100.172136076
0
LINE
8
0
10
101.250701526
20
100.172136076
11
101.357862237
21
100.411110969
0
LINE
8
0
10
101.357862237
20
100.411110969
11
101.717126783
21
100.958201431
0
LINE
8
0
10
101.717126783
20
100.958201431
11
102.054381717
21
101.526576355
0
LINE
8
0
10
102.054381717
20
101.526576355
11
102.419492752
21
102.211092975
0
LINE
8
0
10
102.419492752
20
102.211092975
11
102.802474533
21
103.015254927
0
LINE
8
0
10
102.802474533
20
103.015254927
11
103.193090194
21
103.941892726
0
LINE
8
0
10
103.193090194
20
103.941892726
11
103.538938065
21
104.879419225
0
LINE
8
0
10
103.538938065
20
104.879419225
11
102.830073507
21
105.638427836
0
LINE
8
0
10
102.830073507
20
105.638427836
11
102.024459693
21
106.293843288
0
LINE
8
0
10
102.024459693
20
106.293843288
11
101.112720277
21
105.884822597
0
LINE
8
0
10
101.112720277
20
105.884822597
11
100.21489924
21
105.431881552
0
LINE
8
0
10
100.21489924
20
105.431881552
11
99.4387475765
21
104.994914637
0
LINE
8
0
10
99.4387475765
20
104.994914637
11
98.7807427807
21
104.583941694
0
LINE
8
0
10
98.7807427807
20
104.583941694
11
98.2367079609
21
104.208685702
0
LINE
8
0
10
98.2367079609
20
104.208685702
11
97.7154099722
21
103.812923911
0
LINE
8
0
10
97.7154099722
20
103.812923911
11
97.4843050909
21
103.689704793
0
LINE
8
0
10
97.4843050909
20
103.689704793
11
97.322284307
21
103.673025887
0
LINE
8
0
10
97.322284307
20
103.673025887
11
95.5559023623
21
105.110084189
0
LINE
8
0
10
95.5559023623
20
105.110084189
11
95.5392683113
21
105.272109584
0
LINE
8
0
10
95.5392683113
20
105.272109584
11
95.6128905116
21
105.523450367
0
LINE
8
0
10
95.6128905116
20
105.523450367
11
95.8943133732
21
106.114365048
0
LINE
8
0
10
95.8943133732
20
106.114365048
11
96.1510333884
21
106.723368972
0
LINE
8
0
10
96.1510333884
20
106.723368972
11
96.4195354242
21
107.451225913
0
LINE
8
0
10
96.4195354242
20
107.451225913
11
96.6894500546
21
108.300047203
0
LINE
8
0
10
96.6894500546
20
108.300047203
11
96.9502503359
21
109.271243073
0
LINE
8
0
10
96.9502503359
20
109.271243073
11
97.1652171195
21
110.247130346
0
LINE
8
0
10
97.1652171195
20
110.247130346
11
96.3596033051
21
110.902545798
0
LINE
8
0
10
96.3596033051
20
110.902545798
11
95.4722472954
21
111.442158941
0
LINE
8
0
10
95.4722472954
20
111.442158941
11
94.6246948468
21
110.91279939
0
LINE
8
0
10
94.6246948468
20
110.91279939
11
93.7969116281
21
110.34182378
0
LINE
8
0
10
93.7969116281
20
110.34182378
11
93.0874894033
21
109.803240827
0
LINE
8
0
10
93.0874894033
20
109.803240827
11
92.491574108
21
109.306497401
0
LINE
8
0
10
92.491574108
20
109.306497401
11
92.0037038089
21
108.860657165
0
LINE
8
0
10
92.0037038089
20
108.860657165
11
91.5411507746
21
108.397598121
0
LINE
8
0
10
91.5411507746
20
108.397598121
11
91.3289767511
21
108.244057895
0
LINE
8
0
10
91.3289767511
20
108.244057895
11
91.1707361483
21
108.205472509
0
LINE
8
0
10
91.1707361483
20
108.205472509
11
89.2251269668
21
109.388623662
0
LINE
8
0
10
89.2251269668
20
109.388623662
11
89.1865853912
21
109.546874941
0
LINE
8
0
10
89.1865853912
20
109.546874941
11
89.2252976382
21
109.80589961
0
LINE
8
0
10
89.2252976382
20
109.80589961
11
89.4236364399
21
110.429630889
0
LINE
8
0
10
89.4236364399
20
110.429630889
11
89.5950393275
21
111.067919221
0
LINE
8
0
10
89.5950393275
20
111.067919221
11
89.7619306801
21
111.825557886
0
LINE
8
0
10
89.7619306801
20
111.825557886
11
89.9137501604
21
112.70322658
0
LINE
8
0
10
89.9137501604
20
112.70322658
11
90.0398768466
21
113.700888979
0
LINE
8
0
10
90.0398768466
20
113.700888979
11
90.1199581181
21
114.696958092
0
LINE
8
0
10
90.1199581181
20
114.696958092
11
89.2326021084
21
115.236571235
0
LINE
8
0
10
89.2326021084
20
115.236571235
11
88.2800336669
21
115.650330098
0
LINE
8
0
10
88.2800336669
20
115.650330098
11
87.5124564838
21
115.010492654
0
LINE
8
0
10
87.5124564838
20
115.010492654
11
86.7701311181
21
114.332118675
0
LINE
8
0
10
86.7701311181
20
114.332118675
11
86.1406535262
21
113.701952465
0
LINE
8
0
10
86.1406535262
20
113.701952465
11
85.617928506
21
113.128691945
0
LINE
8
0
10
85.617928506
20
113.128691945
11
85.1953108281
21
112.620572625
0
LINE
8
0
10
85.1953108281
20
112.620572625
11
84.8001192362
21
112.098842241
0
LINE
8
0
10
84.8001192362
20
112.098842241
11
84.6108284711
21
111.917841071
0
LINE
8
0
10
84.6108284711
20
111.917841071
11
84.4593157724
21
111.85806798
0
LINE
8
0
10
84.4593157724
20
111.85806798
11
82.3707223719
21
112.765272116
0
LINE
8
0
10
82.3707223719
20
112.765272116
11
82.3109912282
21
112.916801357
0
LINE
8
0
10
82.3109912282
20
112.916801357
11
82.314072386
21
113.178684773
0
LINE
8
0
10
82.314072386
20
113.178684773
11
82.4256324513
21
113.823613715
0
LINE
8
0
10
82.4256324513
20
113.823613715
11
82.5085252999
21
114.479296352
0
LINE
8
0
10
82.5085252999
20
114.479296352
11
82.5706970991
21
115.252603366
0
LINE
8
0
10
82.5706970991
20
115.252603366
11
82.6015933195
21
116.142770156
0
LINE
8
0
10
82.6015933195
20
116.142770156
11
82.5906969091
21
117.148314522
0
LINE
8
0
10
82.5906969091
20
117.148314522
11
82.534400906
21
118.146010592
0
LINE
8
0
10
82.534400906
20
118.146010592
11
81.5818324645
21
118.559769455
0
LINE
8
0
10
81.5818324645
20
118.559769455
11
80.581796139
21
118.839966493
0
LINE
8
0
10
80.581796139
20
118.839966493
11
79.908492732
21
118.101570116
0
LINE
8
0
10
79.908492732
20
118.101570116
11
79.2654533364
21
117.328434591
0
LINE
8
0
10
79.2654533364
20
117.328434591
11
78.7276463538
21
116.618423929
0
LINE
8
0
10
78.7276463538
20
116.618423929
11
78.2878489867
21
115.979325074
0
LINE
8
0
10
78.2878489867
20
115.979325074
11
77.9383564978
21
115.418391972
0
LINE
8
0
10
77.9383564978
20
115.418391972
11
77.6178880199
21
114.847709098
0
LINE
8
0
10
77.6178880199
20
114.847709098
11
77.455006642
21
114.642618694
0
LINE
8
0
10
77.455006642
20
114.642618694
11
77.3130442423
21
114.562771355
0
LINE
8
0
10
77.3130442423
20
114.562771355
11
75.1203731661
21
115.177128979
0
LINE
8
0
10
75.1203731661
20
115.177128979
11
75.0405651326
21
115.319113479
0
LINE
8
0
10
75.0405651326
20
115.319113479
11
75.0079578051
21
115.57897725
0
LINE
8
0
10
75.0079578051
20
115.57897725
11
75.030660981
21
116.233090049
0
LINE
8
0
10
75.030660981
20
116.233090049
11
75.0234996535
21
116.893952864
0
LINE
8
0
10
75.0234996535
20
116.893952864
11
74.9797937565
21
117.66852298
0
LINE
8
0
10
74.9797937565
20
117.66852298
11
74.8891911789
21
118.554605743
0
LINE
8
0
10
74.8891911789
20
118.554605743
11
74.7414746513
21
119.549300687
0
LINE
8
0
10
74.7414746513
20
119.549300687
11
74.5498500616
21
120.530038524
0
LINE
8
0
10
74.5498500616
20
120.530038524
11
73.5498137361
21
120.810235562
0
LINE
8
0
10
73.5498137361
20
120.810235562
11
72.5209383111
21
120.951651234
0
LINE
8
0
10
72.5209383111
20
120.951651234
11
71.9544510488
21
120.128450852
0
LINE
8
0
10
71.9544510488
20
120.128450852
11
71.4226762305
21
119.274955833
0
LINE
8
0
10
71.4226762305
20
119.274955833
11
70.9865581839
21
118.498326874
0
LINE
8
0
10
70.9865581839
20
118.498326874
11
70.6378810627
21
117.805294887
0
LINE
8
0
10
70.6378810627
20
117.805294887
11
70.3680241465
21
117.201997125
0
LINE
8
0
10
70.3680241465
20
117.201997125
11
70.128248504
21
116.592992503
0
LINE
8
0
10
70.128248504
20
116.592992503
11
69.9948106851
21
116.36763331
0
LINE
8
0
10
69.9948106851
20
116.36763331
11
69.8650430754
21
116.26919913
0
LINE
8
0
10
69.8650430754
20
116.26919913
11
67.609139637
21
116.579265921
0
LINE
8
0
10
67.609139637
20
116.579265921
11
67.5107413862
21
116.709060777
0
LINE
8
0
10
67.5107413862
20
116.709060777
11
67.4430529862
21
116.962064132
0
LINE
8
0
10
67.4430529862
20
116.962064132
11
67.3764763555
21
117.613175905
0
LINE
8
0
10
67.3764763555
20
117.613175905
11
67.279394254
21
118.266908274
0
LINE
8
0
10
67.279394254
20
118.266908274
11
67.1306248189
21
119.028312717
0
LINE
8
0
10
67.1306248189
20
119.028312717
11
66.9202111979
21
119.893805408
0
LINE
8
0
10
66.9202111979
20
119.893805408
11
66.6384262326
21
120.859121645
0
LINE
8
0
10
66.6384262326
20
120.859121645
11
66.3150426598
21
121.804631958
0
LINE
8
0
10
66.3150426598
20
121.804631958
11
65.2861672348
21
121.94604763
0
LINE
8
0
10
65.2861672348
20
121.94604763
11
64.2476187129
21
121.94604763
0
LINE
8
0
10
64.2476187129
20
121.94604763
11
63.7985001811
21
121.053377909
0
LINE
8
0
10
63.7985001811
20
121.053377909
11
63.3878958989
21
120.135422393
0
LINE
8
0
10
63.3878958989
20
120.135422393
11
63.0615908422
21
119.306642266
0
LINE
8
0
10
63.0615908422
20
119.306642266
11
62.8105291619
21
118.57258702
0
LINE
8
0
10
62.8105291619
20
118.57258702
11
62.6253347423
21
117.938162894
0
LINE
8
0
10
62.6253347423
20
117.938162894
11
62.4707185017
21
117.302181129
0
LINE
8
0
10
62.4707185017
20
117.302181129
11
62.369209936
21
117.060751163
0
LINE
8
0
10
62.369209936
20
117.060751163
11
62.2540544413
21
116.945563783
0
LINE
8
0
10
62.2540544413
20
116.945563783
11
59.9769418533
21
116.945563783
0
LINE
8
0
10
59.9769418533
20
116.945563783
11
59.8617863586
21
117.060751163
0
LINE
8
0
10
59.8617863586
20
117.060751163
11
59.7602777929
21
117.302181129
0
LINE
8
0
10
59.7602777929
20
117.302181129
11
59.6056615523
21
117.938162894
0
LINE
8
0
10
59.6056615523
20
117.938162894
11
59.4204671326
21
118.57258702
0
LINE
8
0
10
59.4204671326
20
118.57258702
11
59.1694054524
21
119.306642266
0
LINE
8
0
10
59.1694054524
20
119.306642266
11
58.8431003957
21
120.135422393
0
LINE
8
0
10
58.8431003957
20
120.135422393
11
58.4324961135
21
121.053377909
0
LINE
8
0
10
58.4324961135
20
121.053377909
11
57.9833775817
21
121.94604763
0
LINE
8
0
10
57.9833775817
20
121.94604763
11
56.9448290597
21
121.94604763
0
LINE
8
0
10
56.9448290597
20
121.94604763
11
55.9159536348
21
121.804631958
0
LINE
8
0
10
55.9159536348
20
121.804631958
11
55.5925700619
21
120.859121645
0
LINE
8
0
10
55.5925700619
20
120.859121645
11
55.3107850967
21
119.893805408
0
LINE
8
0
10
55.3107850967
20
119.893805408
11
55.1003714757
21
119.028312717
0
LINE
8
0
10
55.1003714757
20
119.028312717
11
54.9516020405
21
118.266908274
0
LINE
8
0
10
54.9516020405
20
118.266908274
11
54.8545199391
21
117.613175905
0
LINE
8
0
10
54.8545199391
20
117.613175905
11
54.7879433084
21
116.962064132
0
LINE
8
0
10
54.7879433084
20
116.962064132
11
54.7202549084
21
116.709060777
0
LINE
8
0
10
54.7202549084
20
116.709060777
11
54.6218566576
21
116.579265921
0
LINE
8
0
10
54.6218566576
20
116.579265921
11
52.3659532192
21
116.26919913
0
LINE
8
0
10
52.3659532192
20
116.26919913
11
52.2361856095
21
116.36763331
0
LINE
8
0
10
52.2361856095
20
116.36763331
11
52.1027477906
21
116.592992503
0
LINE
8
0
10
52.1027477906
20
116.592992503
11
51.8629721481
21
117.201997125
0
LINE
8
0
10
51.8629721481
20
117.201997125
11
51.5931152319
21
117.805294887
0
LINE
8
0
10
51.5931152319
20
117.805294887
11
51.2444381107
21
118.498326874
0
LINE
8
0
10
51.2444381107
20
118.498326874
11
50.808320064
21
119.274955833
0
LINE
8
0
10
50.808320064
20
119.274955833
11
50.2765452458
21
120.128450852
0
LINE
8
0
10
50.2765452458
20
120.128450852
11
49.7100579835
21
120.951651234
0
LINE
8
0
10
49.7100579835
20
120.951651234
11
48.6811825585
21
120.810235562
0
LINE
8
0
10
48.6811825585
20
120.810235562
11
47.681146233
21
120.530038524
0
LINE
8
0
10
47.681146233
20
120.530038524
11
47.4895216432
21
119.549300687
0
LINE
8
0
10
47.4895216432
20
119.549300687
11
47.3418051157
21
118.554605743
0
LINE
8
0
10
47.3418051157
20
118.554605743
11
47.2512025381
21
117.66852298
0
LINE
8
0
10
47.2512025381
20
117.66852298
11
47.2074966411
21
116.893952864
0
LINE
8
0
10
47.2074966411
20
116.893952864
11
47.2003353136
21
116.233090049
0
LINE
8
0
10
47.2003353136
20
116.233090049
11
47.2230384895
21
115.57897725
0
LINE
8
0
10
47.2230384895
20
115.57897725
11
47.190431162
21
115.319113479
0
LINE
8
0
10
47.190431162
20
115.319113479
11
47.1106231285
21
115.177128979
0
LINE
8
0
10
47.1106231285
20
115.177128979
11
44.9179520523
21
114.562771355
0
LINE
8
0
10
44.9179520523
20
114.562771355
11
44.7759896526
21
114.642618694
0
LINE
8
0
10
44.7759896526
20
114.642618694
11
44.6131082747
21
114.847709098
0
LINE
8
0
10
44.6131082747
20
114.847709098
11
44.2926397968
21
115.418391972
0
LINE
8
0
10
44.2926397968
20
115.418391972
11
43.9431473079
21
115.979325074
0
LINE
8
0
10
43.9431473079
20
115.979325074
11
43.5033499407
21
116.618423929
0
LINE
8
0
10
43.5033499407
20
116.618423929
11
42.9655429582
21
117.328434591
0
LINE
8
0
10
42.9655429582
20
117.328434591
11
42.3225035626
21
118.101570116
0
LINE
8
0
10
42.3225035626
20
118.101570116
11
41.6492001556
21
118.839966493
0
LINE
8
0
10
41.6492001556
20
118.839966493
11
40.6491638301
21
118.559769455
0
LINE
8
0
10
40.6491638301
20
118.559769455
11
39.6965953886
21
118.146010592
0
LINE
8
0
10
39.6965953886
20
118.146010592
11
39.6402993855
21
117.148314522
0
LINE
8
0
10
39.6402993855
20
117.148314522
11
39.629402975
21
116.142770156
0
LINE
8
0
10
39.629402975
20
116.142770156
11
39.6602991954
21
115.252603366
0
LINE
8
0
10
39.6602991954
20
115.252603366
11
39.7224709947
21
114.479296352
0
LINE
8
0
10
39.7224709947
20
114.479296352
11
39.8053638433
21
113.823613715
0
LINE
8
0
10
39.8053638433
20
113.823613715
11
39.9169239085
21
113.178684773
0
LINE
8
0
10
39.9169239085
20
113.178684773
11
39.9200050664
21
112.916801357
0
LINE
8
0
10
39.9200050664
20
112.916801357
11
39.8602739227
21
112.765272116
0
LINE
8
0
10
39.8602739227
20
112.765272116
11
37.7716805222
21
111.85806798
0
LINE
8
0
10
37.7716805222
20
111.85806798
11
37.6201678235
21
111.917841071
0
LINE
8
0
10
37.6201678235
20
111.917841071
11
37.4308770584
21
112.098842241
0
LINE
8
0
10
37.4308770584
20
112.098842241
11
37.0356854665
21
112.620572625
0
LINE
8
0
10
37.0356854665
20
112.620572625
11
36.6130677886
21
113.128691945
0
LINE
8
0
10
36.6130677886
20
113.128691945
11
36.0903427684
21
113.701952465
0
LINE
8
0
10
36.0903427684
20
113.701952465
11
35.4608651764
21
114.332118675
0
LINE
8
0
10
35.4608651764
20
114.332118675
11
34.7185398108
21
115.010492654
0
LINE
8
0
10
34.7185398108
20
115.010492654
11
33.9509626277
21
115.650330098
0
LINE
8
0
10
33.9509626277
20
115.650330098
11
32.9983941862
21
115.236571235
0
LINE
8
0
10
32.9983941862
20
115.236571235
11
32.1110381765
21
114.696958092
0
LINE
8
0
10
32.1110381765
20
114.696958092
11
32.191119448
21
113.700888979
0
LINE
8
0
10
32.191119448
20
113.700888979
11
32.3172461342
21
112.70322658
0
LINE
8
0
10
32.3172461342
20
112.70322658
11
32.4690656144
21
111.825557886
0
LINE
8
0
10
32.4690656144
20
111.825557886
11
32.635956967
21
111.067919221
0
LINE
8
0
10
32.635956967
20
111.067919221
11
32.8073598547
21
110.429630889
0
LINE
8
0
10
32.8073598547
20
110.429630889
11
33.0056986564
21
109.80589961
0
LINE
8
0
10
33.0056986564
20
109.80589961
11
33.0444109034
21
109.546874941
0
LINE
8
0
10
33.0444109034
20
109.546874941
11
33.0058693278
21
109.388623662
0
LINE
8
0
10
33.0058693278
20
109.388623662
11
31.0602601463
21
108.205472509
0
LINE
8
0
10
31.0602601463
20
108.205472509
11
30.9020195434
21
108.244057895
0
LINE
8
0
10
30.9020195434
20
108.244057895
11
30.68984552
21
108.397598121
0
LINE
8
0
10
30.68984552
20
108.397598121
11
30.2272924857
21
108.860657165
0
LINE
8
0
10
30.2272924857
20
108.860657165
11
29.7394221866
21
109.306497401
0
LINE
8
0
10
29.7394221866
20
109.306497401
11
29.1435068913
21
109.803240827
0
LINE
8
0
10
29.1435068913
20
109.803240827
11
28.4340846665
21
110.34182378
0
LINE
8
0
10
28.4340846665
20
110.34182378
11
27.6063014478
21
110.91279939
0
LINE
8
0
10
27.6063014478
20
110.91279939
11
26.7587489992
21
111.442158941
0
LINE
8
0
10
26.7587489992
20
111.442158941
11
25.8713929895
21
110.902545798
0
LINE
8
0
10
25.8713929895
20
110.902545798
11
25.0657791751
21
110.247130346
0
LINE
8
0
10
25.0657791751
20
110.247130346
11
25.2807459587
21
109.271243073
0
LINE
8
0
10
25.2807459587
20
109.271243073
11
25.5415462399
21
108.300047203
0
LINE
8
0
10
25.5415462399
20
108.300047203
11
25.8114608704
21
107.451225913
0
LINE
8
0
10
25.8114608704
20
107.451225913
11
26.0799629062
21
106.723368972
0
LINE
8
0
10
26.0799629062
20
106.723368972
11
26.3366829214
21
106.114365048
0
LINE
8
0
10
26.3366829214
20
106.114365048
11
26.618105783
21
105.523450367
0
LINE
8
0
10
26.618105783
20
105.523450367
11
26.6917279832
21
105.272109584
0
LINE
8
0
10
26.6917279832
20
105.272109584
11
26.6750939323
21
105.110084189
0
LINE
8
0
10
26.6750939323
20
105.110084189
11
24.9087119876
21
103.673025887
0
LINE
8
0
10
24.9087119876
20
103.673025887
11
24.7466912037
21
103.689704793
0
LINE
8
0
10
24.7466912037
20
103.689704793
11
24.5155863224
21
103.812923911
0
LINE
8
0
10
24.5155863224
20
103.812923911
11
23.9942883336
21
104.208685702
0
LINE
8
0
10
23.9942883336
20
104.208685702
11
23.4502535139
21
104.583941694
0
LINE
8
0
10
23.4502535139
20
104.583941694
11
22.792248718
21
104.994914637
0
LINE
8
0
10
22.792248718
20
104.994914637
11
22.0160970541
21
105.431881552
0
LINE
8
0
10
22.0160970541
20
105.431881552
11
21.1182760175
21
105.884822597
0
LINE
8
0
10
21.1182760175
20
105.884822597
11
20.2065366019
21
106.293843288
0
LINE
8
0
10
20.2065366019
20
106.293843288
11
19.4009227875
21
105.638427836
0
LINE
8
0
10
19.4009227875
20
105.638427836
11
18.6920582294
21
104.879419225
0
LINE
8
0
10
18.6920582294
20
104.879419225
11
19.0379061007
21
103.941892726
0
LINE
8
0
10
19.0379061007
20
103.941892726
11
19.4285217612
21
103.015254927
0
LINE
8
0
10
19.4285217612
20
103.015254927
11
19.811503543
21
102.211092975
0
LINE
8
0
10
19.811503543
20
102.211092975
11
20.1766145771
21
101.526576355
0
LINE
8
0
10
20.1766145771
20
101.526576355
11
20.5138695117
21
100.958201431
0
LINE
8
0
10
20.5138695117
20
100.958201431
11
20.8731340578
21
100.411110969
0
LINE
8
0
10
20.8731340578
20
100.411110969
11
20.980294769
21
100.172136076
0
LINE
8
0
10
20.980294769
20
100.172136076
11
20.9858781036
21
100.009354791
0
LINE
8
0
10
20.9858781036
20
100.009354791
11
19.4316277492
21
98.3451590174
0
LINE
8
0
10
19.4316277492
20
98.3451590174
11
19.2688449248
21
98.3396207483
0
LINE
8
0
10
19.2688449248
20
98.3396207483
11
19.0231142325
21
98.4302234197
0
LINE
8
0
10
19.0231142325
20
98.4302234197
11
18.4527820844
21
98.7513156637
0
LINE
8
0
10
18.4527820844
20
98.7513156637
11
17.8627170833
21
99.0489971027
0
LINE
8
0
10
17.8627170833
20
99.0489971027
11
17.1548801712
21
99.3665439126
0
LINE
8
0
10
17.1548801712
20
99.3665439126
11
16.3264573052
21
99.6937549231
0
LINE
8
0
10
16.3264573052
20
99.6937549231
11
15.3753231578
21
100.020223969
0
LINE
8
0
10
15.3753231578
20
100.020223969
11
14.4163807554
21
100.301286518
0
LINE
8
0
10
14.4163807554
20
100.301286518
11
13.7075161974
21
99.5422779073
0
LINE
8
0
10
13.7075161974
20
99.5422779073
11
13.1086057012
21
98.6938150325
0
LINE
8
0
10
13.1086057012
20
98.6938150325
11
13.5788921686
21
97.8121136509
0
LINE
8
0
10
13.5788921686
20
97.8121136509
11
14.0920467778
21
96.9472954324
0
LINE
8
0
10
14.0920467778
20
96.9472954324
11
14.580961485
21
96.202772834
0
LINE
8
0
10
14.580961485
20
96.202772834
11
15.0358801896
21
95.5743477846
0
LINE
8
0
10
15.0358801896
20
95.5743477846
11
15.4473876223
21
95.0571896101
0
LINE
8
0
10
15.4473876223
20
95.0571896101
11
15.877801434
21
94.564114627
0
LINE
8
0
10
15.877801434
20
94.564114627
11
16.0165044549
21
94.3419572746
0
LINE
8
0
10
16.0165044549
20
94.3419572746
11
16.0442011682
21
94.1814524073
0
LINE
8
0
10
16.0442011682
20
94.1814524073
11
14.7310351475
21
92.3211199799
0
LINE
8
0
10
14.7310351475
20
92.3211199799
11
14.5705226186
21
92.2934677028
0
LINE
8
0
10
14.5705226186
20
92.2934677028
11
14.314743613
21
92.3497661711
0
LINE
8
0
10
14.314743613
20
92.3497661711
11
13.7060015144
21
92.5902075271
0
LINE
8
0
10
13.7060015144
20
92.5902075271
11
13.0808981266
21
92.8047691712
0
LINE
8
0
10
13.0808981266
20
92.8047691712
11
12.3364147607
21
93.0229745525
0
LINE
8
0
10
12.3364147607
20
93.0229745525
11
11.4711526431
21
93.2343343363
0
LINE
8
0
10
11.4711526431
20
93.2343343363
11
10.4844232145
21
93.428249882
0
LINE
8
0
10
10.4844232145
20
93.428249882
11
9.49614110788
21
93.5761186257
0
LINE
8
0
10
9.49614110788
20
93.5761186257
11
8.89723061172
21
92.7276557508
0
LINE
8
0
10
8.89723061172
20
92.7276557508
11
8.41943074679
21
91.8055438696
0
LINE
8
0
10
8.41943074679
20
91.8055438696
11
9.00539526325
21
90.9960920347
0
LINE
8
0
10
9.00539526325
20
90.9960920347
11
9.63152972163
21
90.2092033233
0
LINE
8
0
10
9.63152972163
20
90.2092033233
11
10.2172697982
21
89.538189126
0
LINE
8
0
10
10.2172697982
20
89.538189126
11
10.7535218987
21
88.977562017
0
LINE
8
0
10
10.7535218987
20
88.977562017
11
11.2316162246
21
88.5212542699
0
LINE
8
0
10
11.2316162246
20
88.5212542699
11
11.7251615071
21
88.0913798202
0
LINE
8
0
10
11.7251615071
20
88.0913798202
11
11.8928230628
21
87.8901783789
0
LINE
8
0
10
11.8928230628
20
87.8901783789
11
11.9421172173
21
87.7349398313
0
LINE
8
0
10
11.9421172173
20
87.7349398313
11
10.8944973286
21
85.7131252238
0
LINE
8
0
10
10.8944973286
20
85.7131252238
11
10.73924514
21
85.6638740483
0
LINE
8
0
10
10.73924514
20
85.6638740483
11
10.4781825001
21
85.6848195795
0
LINE
8
0
10
10.4781825001
20
85.6848195795
11
9.84237016452
21
85.84013108
0
LINE
8
0
10
9.84237016452
20
85.84013108
11
9.19387288324
21
85.9675760517
0
LINE
8
0
10
9.19387288324
20
85.9675760517
11
8.42661138
21
86.0823752511
0
LINE
8
0
10
8.42661138
20
86.0823752511
11
7.54062820695
21
86.1739465753
0
LINE
8
0
10
7.54062820695
20
86.1739465753
11
6.53668439944
21
86.2316963412
0
LINE
8
0
10
6.53668439944
20
86.2316963412
11
5.53747241439
21
86.2436167647
0
LINE
8
0
10
5.53747241439
20
86.2436167647
11
5.05967254946
21
85.3215048834
0
LINE
8
0
10
5.05967254946
20
85.3215048834
11
4.71188382321
21
84.3429211955
0
LINE
8
0
10
4.71188382321
20
84.3429211955
11
5.40261097851
21
83.6207974634
0
LINE
8
0
10
5.40261097851
20
83.6207974634
11
6.1300615858
21
82.926496507
0
LINE
8
0
10
6.1300615858
20
82.926496507
11
6.80171580244
21
82.3414904355
0
LINE
8
0
10
6.80171580244
20
82.3414904355
11
7.40931193672
21
81.8591046893
0
LINE
8
0
10
7.40931193672
20
81.8591046893
11
7.94508716322
21
81.4721475195
0
LINE
8
0
10
7.94508716322
20
81.4721475195
11
8.49257010159
21
81.1134813509
0
LINE
8
0
10
8.49257010159
20
81.1134813509
11
8.68606697459
21
80.9369838229
0
LINE
8
0
10
8.68606697459
20
80.9369838229
11
8.75604031355
21
80.7899033954
0
LINE
8
0
10
8.75604031355
20
80.7899033954
11
7.99348173321
21
78.6442691884
0
LINE
8
0
10
7.99348173321
20
78.6442691884
11
7.84638193944
21
78.5743365707
0
LINE
8
0
10
7.84638193944
20
78.5743365707
11
7.58489876822
21
78.5595389893
0
LINE
8
0
10
7.58489876822
20
78.5595389893
11
6.93386017645
21
78.6268274749
0
LINE
8
0
10
6.93386017645
20
78.6268274749
11
6.27404927911
21
78.6647817156
0
LINE
8
0
10
6.27404927911
20
78.6647817156
11
5.49830226861
21
78.6740362411
0
LINE
8
0
10
5.49830226861
20
78.6740362411
11
4.60810223027
21
78.6441133053
0
LINE
8
0
10
4.60810223027
20
78.6441133053
11
3.60564561745
21
78.5646215226
0
LINE
8
0
10
3.60564561745
20
78.5646215226
11
2.61411718264
21
78.4403715708
0
LINE
8
0
10
2.61411718264
20
78.4403715708
11
2.26632845639
21
77.4617878829
0
LINE
8
0
10
2.26632845639
20
77.4617878829
11
2.05502951476
21
76.4449615507
0
LINE
8
0
10
2.05502951476
20
76.4449615507
11
2.83765236889
21
75.8236177202
0
LINE
8
0
10
2.83765236889
20
75.8236177202
11
3.65286809666
21
75.234838032
0
LINE
8
0
10
3.65286809666
20
75.234838032
11
4.39792480613
21
74.7467376427
0
LINE
8
0
10
4.39792480613
20
74.7467376427
11
5.06554660786
21
74.351579193
0
LINE
8
0
10
5.06554660786
20
74.351579193
11
5.64902225616
21
74.0411808803
0
LINE
8
0
10
5.64902225616
20
74.0411808803
11
6.24024427921
21
73.760404265
0
LINE
8
0
10
6.24024427921
20
73.760404265
11
6.45597198885
21
73.6118984653
0
LINE
8
0
10
6.45597198885
20
73.6118984653
11
6.54532104133
21
73.4757159878
0
LINE
8
0
10
6.54532104133
20
73.4757159878
11
6.08202879291
21
71.2462312871
0
LINE
8
0
10
6.08202879291
20
71.2462312871
11
5.94582158476
21
71.1569199396
0
LINE
8
0
10
5.94582158476
20
71.1569199396
11
5.68878881899
21
71.1066548964
0
LINE
8
0
10
5.68878881899
20
71.1066548964
11
5.03465158819
21
71.0846669099
0
LINE
8
0
10
5.03465158819
20
71.0846669099
11
4.37581810338
21
71.0324234038
0
LINE
8
0
10
4.37581810338
20
71.0324234038
11
3.60603628467
21
70.9359608612
0
LINE
8
0
10
3.60603628467
20
70.9359608612
11
2.72820212343
21
70.785101073
0
LINE
8
0
10
2.72820212343
20
70.785101073
11
1.74590657528
21
70.5698485232
0
LINE
8
0
10
1.74590657528
20
70.5698485232
11
0.780531989396
21
70.3117427378
0
LINE
8
0
10
0.780531989396
20
70.3117427378
11
0.56923304776
21
69.2949164056
0
LINE
8
0
10
0.56923304776
20
69.2949164056
11
0.498359990227
21
68.25878898
0
LINE
8
0
10
0.498359990227
20
68.25878898
11
1.3582997602
21
67.749799511
0
LINE
8
0
10
1.3582997602
20
67.749799511
11
2.2460946819
21
67.2775089425
0
LINE
8
0
10
2.2460946819
20
67.2775089425
11
3.0506748874
21
66.8954066221
0
LINE
8
0
10
3.0506748874
20
66.8954066221
11
3.76588582561
21
66.5948365231
0
LINE
8
0
10
3.76588582561
20
66.5948365231
11
4.38619284834
21
66.3667792009
0
LINE
8
0
10
4.38619284834
20
66.3667792009
11
5.01014060843
21
66.1691224759
0
LINE
8
0
10
5.01014060843
20
66.1691224759
11
5.24408055565
21
66.0513747866
0
LINE
8
0
10
5.24408055565
20
66.0513747866
11
5.35114091785
21
65.9286270811
0
LINE
8
0
10
5.35114091785
20
65.9286270811
11
5.19574525935
21
63.6568229682
0
LINE
8
0
10
5.19574525935
20
63.6568229682
11
5.0729679194
21
63.5497965923
0
LINE
8
0
10
5.0729679194
20
63.5497965923
11
4.82517359318
21
63.46500043
0
LINE
8
0
10
4.82517359318
20
63.46500043
11
4.18012306228
21
63.3541455661
0
LINE
8
0
10
4.18012306228
20
63.3541455661
11
3.53453981127
21
63.2126775108
0
LINE
8
0
10
3.53453981127
20
63.2126775108
11
2.78506276314
21
63.0122948148
0
LINE
8
0
10
2.78506276314
20
63.0122948148
11
1.93594686851
21
62.7433084065
0
LINE
8
0
10
1.93594686851
20
62.7433084065
11
0.992110692511
21
62.3963048374
0
LINE
8
0
10
0.992110692511
20
62.3963048374
11
0.0708730575334
21
62.0091512407
0
LINE
8
0
10
0.0708730575334
20
62.0091512407
11
0.0
21
60.9730238151
0
LINE
8
0
10
0.0
20
60.9730238151
11
0.0708730575334
21
59.9368963894
0
LINE
8
0
10
0.0708730575334
20
59.9368963894
11
0.992110692505
21
59.5497427927
0
LINE
8
0
10
0.992110692505
20
59.5497427927
11
1.93594686851
21
59.2027392236
0
LINE
8
0
10
1.93594686851
20
59.2027392236
11
2.78506276314
21
58.9337528153
0
LINE
8
0
10
2.78506276314
20
58.9337528153
11
3.53453981127
21
58.7333701193
0
LINE
8
0
10
3.53453981127
20
58.7333701193
11
4.18012306228
21
58.5919020641
0
LINE
8
0
10
4.18012306228
20
58.5919020641
11
4.82517359318
21
58.4810472001
0
LINE
8
0
10
4.82517359318
20
58.4810472001
11
5.0729679194
21
58.3962510379
0
LINE
8
0
10
5.0729679194
20
58.3962510379
11
5.19574525935
21
58.289224662
0
LINE
8
0
10
5.19574525935
20
58.289224662
11
5.35114091785
21
56.017420549
0
LINE
8
0
10
5.35114091785
20
56.017420549
11
5.24408055565
21
55.8946728436
0
LINE
8
0
10
5.24408055565
20
55.8946728436
11
5.01014060842
21
55.7769251543
0
LINE
8
0
10
5.01014060842
20
55.7769251543
11
4.38619284835
21
55.5792684292
0
LINE
8
0
10
4.38619284835
20
55.5792684292
11
3.76588582561
21
55.3512111071
0
LINE
8
0
10
3.76588582561
20
55.3512111071
11
3.0506748874
21
55.0506410081
0
LINE
8
0
10
3.0506748874
20
55.0506410081
11
2.2460946819
21
54.6685386877
0
LINE
8
0
10
2.2460946819
20
54.6685386877
11
1.35829976021
21
54.1962481191
0
LINE
8
0
10
1.35829976021
20
54.1962481191
11
0.498359990227
21
53.6872586501
0
LINE
8
0
10
0.498359990227
20
53.6872586501
11
0.56923304776
21
52.6511312245
0
LINE
8
0
10
0.56923304776
20
52.6511312245
11
0.780531989396
21
51.6343048924
0
LINE
8
0
10
0.780531989396
20
51.6343048924
11
1.74590657527
21
51.3761991069
0
LINE
8
0
10
1.74590657527
20
51.3761991069
11
2.72820212344
21
51.1609465572
0
LINE
8
0
10
2.72820212344
20
51.1609465572
11
3.60603628467
21
51.0100867689
0
LINE
8
0
10
3.60603628467
20
51.0100867689
11
4.37581810338
21
50.9136242263
0
LINE
8
0
10
4.37581810338
20
50.9136242263
11
5.03465158819
21
50.8613807202
0
LINE
8
0
10
5.03465158819
20
50.8613807202
11
5.68878881899
21
50.8393927337
0
LINE
8
0
10
5.68878881899
20
50.8393927337
11
5.94582158476
21
50.7891276906
0
LINE
8
0
10
5.94582158476
20
50.7891276906
11
6.08202879291
21
50.6998163431
0
LINE
8
0
10
6.08202879291
20
50.6998163431
11
6.54532104133
21
48.4703316423
0
LINE
8
0
10
6.54532104133
20
48.4703316423
11
6.45597198886
21
48.3341491648
0
LINE
8
0
10
6.45597198886
20
48.3341491648
11
6.24024427921
21
48.1856433652
0
LINE
8
0
10
6.24024427921
20
48.1856433652
11
5.64902225616
21
47.9048667498
0
LINE
8
0
10
5.64902225616
20
47.9048667498
11
5.06554660786
21
47.5944684372
0
LINE
8
0
10
5.06554660786
20
47.5944684372
11
4.39792480613
21
47.1993099875
0
LINE
8
0
10
4.39792480613
20
47.1993099875
11
3.65286809666
21
46.7112095982
0
LINE
8
0
10
3.65286809666
20
46.7112095982
11
2.83765236889
21
46.1224299099
0
LINE
8
0
10
2.83765236889
20
46.1224299099
11
2.05502951476
21
45.5010860794
0
LINE
8
0
10
2.05502951476
20
45.5010860794
11
2.26632845639
21
44.4842597473
0
LINE
8
0
10
2.26632845639
20
44.4842597473
11
2.61411718264
21
43.5056760593
0
LINE
8
0
10
2.61411718264
20
43.5056760593
11
3.60564561745
21
43.3814261076
0
LINE
8
0
10
3.60564561745
20
43.3814261076
11
4.60810223028
21
43.3019343249
0
LINE
8
0
10
4.60810223028
20
43.3019343249
11
5.49830226861
21
43.272011389
0
LINE
8
0
10
5.49830226861
20
43.272011389
11
6.27404927911
21
43.2812659146
0
LINE
8
0
10
6.27404927911
20
43.2812659146
11
6.93386017645
21
43.3192201552
0
LINE
8
0
10
6.93386017645
20
43.3192201552
11
7.58489876822
21
43.3865086408
0
LINE
8
0
10
7.58489876822
20
43.3865086408
11
7.84638193944
21
43.3717110594
0
LINE
8
0
10
7.84638193944
20
43.3717110594
11
7.99348173321
21
43.3017784417
0
LINE
8
0
10
7.99348173321
20
43.3017784417
11
8.75604031355
21
41.1561442348
0
LINE
8
0
10
8.75604031355
20
41.1561442348
11
8.68606697459
21
41.0090638072
0
LINE
8
0
10
8.68606697459
20
41.0090638072
11
8.49257010159
21
40.8325662792
0
LINE
8
0
10
8.49257010159
20
40.8325662792
11
7.94508716322
21
40.4739001107
0
LINE
8
0
10
7.94508716322
20
40.4739001107
11
7.40931193672
21
40.0869429408
0
LINE
8
0
10
7.40931193672
20
40.0869429408
11
6.80171580243
21
39.6045571946
0
LINE
8
0
10
6.80171580243
20
39.6045571946
11
6.13006158579
21
39.0195511232
0
LINE
8
0
10
6.13006158579
20
39.0195511232
11
5.40261097851
21
38.3252501668
0
LINE
8
0
10
5.40261097851
20
38.3252501668
11
4.71188382321
21
37.6031264346
0
LINE
8
0
10
4.71188382321
20
37.6031264346
11
5.05967254946
21
36.6245427467
0
LINE
8
0
10
5.05967254946
20
36.6245427467
11
5.53747241439
21
35.7024308655
0
LINE
8
0
10
5.53747241439
20
35.7024308655
11
6.53668439943
21
35.7143512889
0
LINE
8
0
10
6.53668439943
20
35.7143512889
11
7.54062820695
21
35.7721010548
0
LINE
8
0
10
7.54062820695
20
35.7721010548
11
8.42661138
21
35.863672379
0
LINE
8
0
10
8.42661138
20
35.863672379
11
9.19387288324
21
35.9784715784
0
LINE
8
0
10
9.19387288324
20
35.9784715784
11
9.84237016452
21
36.1059165501
0
LINE
8
0
10
9.84237016452
20
36.1059165501
11
10.4781825001
21
36.2612280506
0
LINE
8
0
10
10.4781825001
20
36.2612280506
11
10.73924514
21
36.2821735819
0
LINE
8
0
10
10.73924514
20
36.2821735819
11
10.8944973286
21
36.2329224064
0
LINE
8
0
10
10.8944973286
20
36.2329224064
11
11.9421172173
21
34.2111077989
0
LINE
8
0
10
11.9421172173
20
34.2111077989
11
11.8928230628
21
34.0558692512
0
LINE
8
0
10
11.8928230628
20
34.0558692512
11
11.7251615071
21
33.8546678099
0
LINE
8
0
10
11.7251615071
20
33.8546678099
11
11.2316162246
21
33.4247933603
0
LINE
8
0
10
11.2316162246
20
33.4247933603
11
10.7535218987
21
32.9684856131
0
LINE
8
0
10
10.7535218987
20
32.9684856131
11
10.2172697982
21
32.4078585042
0
LINE
8
0
10
10.2172697982
20
32.4078585042
11
9.63152972163
21
31.7368443068
0
LINE
8
0
10
9.63152972163
20
31.7368443068
11
9.00539526326
21
30.9499555954
0
LINE
8
0
10
9.00539526326
20
30.9499555954
11
8.41943074679
21
30.1405037605
0
LINE
8
0
10
8.41943074679
20
30.1405037605
11
8.89723061172
21
29.2183918793
0
LINE
8
0
10
8.89723061172
20
29.2183918793
11
9.49614110788
21
28.3699290045
0
LINE
8
0
10
9.49614110788
20
28.3699290045
11
10.4844232145
21
28.5177977482
0
LINE
8
0
10
10.4844232145
20
28.5177977482
11
11.4711526431
21
28.7117132938
0
LINE
8
0
10
11.4711526431
20
28.7117132938
11
12.3364147607
21
28.9230730776
0
LINE
8
0
10
12.3364147607
20
28.9230730776
11
13.0808981266
21
29.1412784589
0
LINE
8
0
10
13.0808981266
20
29.1412784589
11
13.7060015144
21
29.355840103
0
LINE
8
0
10
13.7060015144
20
29.355840103
11
14.314743613
21
29.596281459
0
LINE
8
0
10
14.314743613
20
29.596281459
11
14.5705226186
21
29.6525799273
0
LINE
8
0
10
14.5705226186
20
29.6525799273
11
14.7310351475
21
29.6249276502
0
LINE
8
0
10
14.7310351475
20
29.6249276502
11
16.0442011682
21
27.7645952229
0
LINE
8
0
10
16.0442011682
20
27.7645952229
11
16.0165044549
21
27.6040903556
0
LINE
8
0
10
16.0165044549
20
27.6040903556
11
15.877801434
21
27.3819330031
0
LINE
8
0
10
15.877801434
20
27.3819330031
11
15.4473876223
21
26.88885802
0
LINE
8
0
10
15.4473876223
20
26.88885802
11
15.0358801896
21
26.3716998455
0
LINE
8
0
10
15.0358801896
20
26.3716998455
11
14.580961485
21
25.7432747961
0
LINE
8
0
10
14.580961485
20
25.7432747961
11
14.0920467778
21
24.9987521978
0
LINE
8
0
10
14.0920467778
20
24.9987521978
11
13.5788921686
21
24.1339339792
0
LINE
8
0
10
13.5788921686
20
24.1339339792
11
13.1086057012
21
23.2522325977
0
LINE
8
0
10
13.1086057012
20
23.2522325977
11
13.7075161974
21
22.4037697228
0
LINE
8
0
10
13.7075161974
20
22.4037697228
11
14.4163807554
21
21.6447611124
0
LINE
8
0
10
14.4163807554
20
21.6447611124
11
15.3753231578
21
21.9258236614
0
LINE
8
0
10
15.3753231578
20
21.9258236614
11
16.3264573052
21
22.2522927071
0
LINE
8
0
10
16.3264573052
20
22.2522927071
11
17.1548801712
21
22.5795037176
0
LINE
8
0
10
17.1548801712
20
22.5795037176
11
17.8627170833
21
22.8970505274
0
LINE
8
0
10
17.8627170833
20
22.8970505274
11
18.4527820844
21
23.1947319665
0
LINE
8
0
10
18.4527820844
20
23.1947319665
11
19.0231142325
21
23.5158242104
0
LINE
8
0
10
19.0231142325
20
23.5158242104
11
19.2688449248
21
23.6064268819
0
LINE
8
0
10
19.2688449248
20
23.6064268819
11
19.4316277492
21
23.6008886127
0
LINE
8
0
10
19.4316277492
20
23.6008886127
11
20.9858781036
21
21.9366928387
0
LINE
8
0
10
20.9858781036
20
21.9366928387
11
20.980294769
21
21.7739115538
0
LINE
8
0
10
20.980294769
20
21.7739115538
11
20.8731340577
21
21.5349366614
0
LINE
8
0
10
20.8731340577
20
21.5349366614
11
20.5138695117
21
20.9878461988
0
LINE
8
0
10
20.5138695117
20
20.9878461988
11
20.1766145771
21
20.4194712753
0
LINE
8
0
10
20.1766145771
20
20.4194712753
11
19.811503543
21
19.7349546551
0
LINE
8
0
10
19.811503543
20
19.7349546551
11
19.4285217612
21
18.930792703
0
LINE
8
0
10
19.4285217612
20
18.930792703
11
19.0379061007
21
18.0041549044
0
LINE
8
0
10
19.0379061007
20
18.0041549044
11
18.6920582294
21
17.0666284047
0
LINE
8
0
10
18.6920582294
20
17.0666284047
11
19.4009227875
21
16.3076197943
0
LINE
8
0
10
19.4009227875
20
16.3076197943
11
20.2065366019
21
15.6522043425
0
LINE
8
0
10
20.2065366019
20
15.6522043425
11
21.1182760175
21
16.0612250334
0
LINE
8
0
10
21.1182760175
20
16.0612250334
11
22.0160970541
21
16.5141660784
0
LINE
8
0
10
22.0160970541
20
16.5141660784
11
22.792248718
21
16.9511329936
0
LINE
8
0
10
22.792248718
20
16.9511329936
11
23.4502535139
21
17.3621059358
0
LINE
8
0
10
23.4502535139
20
17.3621059358
11
23.9942883336
21
17.7373619278
0
LINE
8
0
10
23.9942883336
20
17.7373619278
11
24.5155863224
21
18.1331237187
0
LINE
8
0
10
24.5155863224
20
18.1331237187
11
24.7466912037
21
18.256342837
0
LINE
8
0
10
24.7466912037
20
18.256342837
11
24.9087119876
21
18.2730217433
0
LINE
8
0
10
24.9087119876
20
18.2730217433
11
26.6750939323
21
16.8359634411
0
LINE
8
0
10
26.6750939323
20
16.8359634411
11
26.6917279832
21
16.6739380459
0
LINE
8
0
10
26.6917279832
20
16.6739380459
11
26.618105783
21
16.4225972636
0
LINE
8
0
10
26.618105783
20
16.4225972636
11
26.3366829214
21
15.8316825817
0
LINE
8
0
10
26.3366829214
20
15.8316825817
11
26.0799629062
21
15.2226786585
0
LINE
8
0
10
26.0799629062
20
15.2226786585
11
25.8114608704
21
14.494821717
0
LINE
8
0
10
25.8114608704
20
14.494821717
11
25.5415462399
21
13.6460004269
0
LINE
8
0
10
25.5415462399
20
13.6460004269
11
25.2807459587
21
12.6748045571
0
LINE
8
0
10
25.2807459587
20
12.6748045571
11
25.0657791751
21
11.6989172842
0
LINE
8
0
10
25.0657791751
20
11.6989172842
11
25.8713929895
21
11.0435018324
0
LINE
8
0
10
25.8713929895
20
11.0435018324
11
26.7587489992
21
10.5038886891
0
LINE
8
0
10
26.7587489992
20
10.5038886891
11
27.6063014478
21
11.0332482403
0
LINE
8
0
10
27.6063014478
20
11.0332482403
11
28.4340846665
21
11.60422385
0
LINE
8
0
10
28.4340846665
20
11.60422385
11
29.1435068913
21
12.142806803
0
LINE
8
0
10
29.1435068913
20
12.142806803
11
29.7394221866
21
12.6395502292
0
LINE
8
0
10
29.7394221866
20
12.6395502292
11
30.2272924857
21
13.085390465
0
LINE
8
0
10
30.2272924857
20
13.085390465
11
30.68984552
21
13.5484495096
0
LINE
8
0
10
30.68984552
20
13.5484495096
11
30.9020195434
21
13.7019897356
0
LINE
8
0
10
30.9020195434
20
13.7019897356
11
31.0602601463
21
13.7405751209
0
LINE
8
0
10
31.0602601463
20
13.7405751209
11
33.0058693278
21
12.5574239678
0
LINE
8
0
10
33.0058693278
20
12.5574239678
11
33.0444109034
21
12.3991726888
0
LINE
8
0
10
33.0444109034
20
12.3991726888
11
33.0056986564
21
12.1401480198
0
LINE
8
0
10
33.0056986564
20
12.1401480198
11
32.8073598547
21
11.5164167411
0
LINE
8
0
10
32.8073598547
20
11.5164167411
11
32.635956967
21
10.8781284091
0
LINE
8
0
10
32.635956967
20
10.8781284091
11
32.4690656144
21
10.1204897439
0
LINE
8
0
10
32.4690656144
20
10.1204897439
11
32.3172461342
21
9.24282105032
0
LINE
8
0
10
32.3172461342
20
9.24282105032
11
32.191119448
21
8.24515865095
0
LINE
8
0
10
32.191119448
20
8.24515865095
11
32.1110381765
21
7.24908953813
0
LINE
8
0
10
32.1110381765
20
7.24908953813
11
32.9983941862
21
6.7094763948
0
LINE
8
0
10
32.9983941862
20
6.7094763948
11
33.9509626277
21
6.2957175318
0
LINE
8
0
10
33.9509626277
20
6.2957175318
11
34.7185398108
21
6.93555497644
0
LINE
8
0
10
34.7185398108
20
6.93555497644
11
35.4608651764
21
7.6139289556
0
LINE
8
0
10
35.4608651764
20
7.6139289556
11
36.0903427684
21
8.24409516508
0
LINE
8
0
10
36.0903427684
20
8.24409516508
11
36.6130677886
21
8.81735568504
0
LINE
8
0
10
36.6130677886
20
8.81735568504
11
37.0356854665
21
9.32547500469
0
LINE
8
0
10
37.0356854665
20
9.32547500469
11
37.4308770584
21
9.84720538903
0
LINE
8
0
10
37.4308770584
20
9.84720538903
11
37.6201678235
21
10.0282065589
0
LINE
8
0
10
37.6201678235
20
10.0282065589
11
37.7716805222
21
10.0879796505
0
LINE
8
0
10
37.7716805222
20
10.0879796505
11
39.8602739227
21
9.18077551376
0
LINE
8
0
10
39.8602739227
20
9.18077551376
11
39.9200050664
21
9.02924627295
0
LINE
8
0
10
39.9200050664
20
9.02924627295
11
39.9169239085
21
8.7673628567
0
LINE
8
0
10
39.9169239085
20
8.7673628567
11
39.8053638433
21
8.12243391479
0
LINE
8
0
10
39.8053638433
20
8.12243391479
11
39.7224709947
21
7.46675127792
0
LINE
8
0
10
39.7224709947
20
7.46675127792
11
39.6602991954
21
6.69344426392
0
LINE
8
0
10
39.6602991954
20
6.69344426392
11
39.629402975
21
5.80327747397
0
LINE
8
0
10
39.629402975
20
5.80327747397
11
39.6402993855
21
4.7977331078
0
LINE
8
0
10
39.6402993855
20
4.7977331078
11
39.6965953886
21
3.80003703806
0
LINE
8
0
10
39.6965953886
20
3.80003703806
11
40.6491638301
21
3.38627817506
0
LINE
8
0
10
40.6491638301
20
3.38627817506
11
41.6492001556
21
3.10608113715
0
LINE
8
0
10
41.6492001556
20
3.10608113715
11
42.3225035626
21
3.84447751425
0
LINE
8
0
10
42.3225035626
20
3.84447751425
11
42.9655429582
21
4.61761303913
0
LINE
8
0
10
42.9655429582
20
4.61761303913
11
43.5033499407
21
5.32762370092
0
LINE
8
0
10
43.5033499407
20
5.32762370092
11
43.9431473079
21
5.96672255586
0
LINE
8
0
10
43.9431473079
20
5.96672255586
11
44.2926397968
21
6.52765565779
0
LINE
8
0
10
44.2926397968
20
6.52765565779
11
44.6131082747
21
7.098338532
0
LINE
8
0
10
44.6131082747
20
7.098338532
11
44.7759896526
21
7.30342893639
0
LINE
8
0
10
44.7759896526
20
7.30342893639
11
44.9179520523
21
7.38327627468
0
LINE
8
0
10
44.9179520523
20
7.38327627468
11
47.1106231285
21
6.76891865089
0
LINE
8
0
10
47.1106231285
20
6.76891865089
11
47.190431162
21
6.62693415128
0
LINE
8
0
10
47.190431162
20
6.62693415128
11
47.2230384895
21
6.36707038036
0
LINE
8
0
10
47.2230384895
20
6.36707038036
11
47.2003353136
21
5.71295758117
0
LINE
8
0
10
47.2003353136
20
5.71295758117
11
47.2074966411
21
5.05209476633
0
LINE
8
0
10
47.2074966411
20
5.05209476633
11
47.2512025381
21
4.27752465001
0
LINE
8
0
10
47.2512025381
20
4.27752465001
11
47.3418051157
21
3.39144188679
0
LINE
8
0
10
47.3418051157
20
3.39144188679
11
47.4895216432
21
2.3967469428
0
LINE
8
0
10
47.4895216432
20
2.3967469428
11
47.681146233
21
1.41600910619
0
LINE
8
0
10
47.681146233
20
1.41600910619
11
48.6811825585
21
1.13581206828
0
LINE
8
0
10
48.6811825585
20
1.13581206828
11
49.7100579835
21
0.994396396127
0
LINE
8
0
10
49.7100579835
20
0.994396396127
11
50.2765452458
21
1.81759677827
0
LINE
8
0
10
50.2765452458
20
1.81759677827
11
50.808320064
21
2.6710917969
0
LINE
8
0
10
50.808320064
20
2.6710917969
11
51.2444381107
21
3.44772075574
0
LINE
8
0
10
51.2444381107
20
3.44772075574
11
51.5931152319
21
4.14075274322
0
LINE
8
0
10
51.5931152319
20
4.14075274322
11
51.8629721481
21
4.74405050507
0
LINE
8
0
10
51.8629721481
20
4.74405050507
11
52.1027477906
21
5.35305512698
0
LINE
8
0
10
52.1027477906
20
5.35305512698
11
52.2361856095
21
5.5784143197
0
LINE
8
0
10
52.2361856095
20
5.5784143197
11
52.3659532192
21
5.67684849983
0
LINE
8
0
10
52.3659532192
20
5.67684849983
11
54.6218566576
21
5.36678170911
0
LINE
8
0
10
54.6218566576
20
5.36678170911
11
54.7202549084
21
5.2369868533
0
LINE
8
0
10
54.7202549084
20
5.2369868533
11
54.7879433084
21
4.98398349809
0
LINE
8
0
10
54.7879433084
20
4.98398349809
11
54.8545199391
21
4.33287172542
0
LINE
8
0
10
54.8545199391
20
4.33287172542
11
54.9516020405
21
3.67913935646
0
LINE
8
0
10
54.9516020405
20
3.67913935646
11
55.1003714757
21
2.91773491355
0
LINE
8
0
10
55.1003714757
20
2.91773491355
11
55.3107850967
21
2.05224222239
0
LINE
8
0
10
55.3107850967
20
2.05224222239
11
55.5925700619
21
1.08692598536
0
LINE
8
0
10
55.5925700619
20
1.08692598536
11
55.9159536348
21
0.141415672156
0
LINE
8
0
10
55.9159536348
20
0.141415672156
11
56.9448290597
21
0.0
0
LINE
8
0
10
56.9448290597
20
0.0
11
57.9833775817
21
0.0
0
LINE
8
0
10
57.9833775817
20
0.0
11
58.4324961135
21
0.892669721631
0
LINE
8
0
10
58.4324961135
20
0.892669721631
11
58.8431003957
21
1.81062523666
0
LINE
8
0
10
58.8431003957
20
1.81062523666
11
59.1694054524
21
2.6394053645
0
LINE
8
0
10
59.1694054524
20
2.6394053645
11
59.4204671326
21
3.37346060987
0
LINE
8
0
10
59.4204671326
20
3.37346060987
11
59.6056615523
21
4.00788473581
0
LINE
8
0
10
59.6056615523
20
4.00788473581
11
59.7602777929
21
4.64386650159
0
LINE
8
0
10
59.7602777929
20
4.64386650159
11
59.8617863586
21
4.88529646729
0
LINE
8
0
10
59.8617863586
20
4.88529646729
11
59.9769418533
21
5.00048384672
0
LINE
8
0
10
59.9769418533
20
5.00048384672
11
62.2540544413
21
5.00048384672
0
LINE
8
0
10
62.2540544413
20
5.00048384672
11
62.369209936
21
4.88529646729
0
LINE
8
0
10
62.369209936
20
4.88529646729
11
62.4707185017
21
4.64386650158
0
LINE
8
0
10
62.4707185017
20
4.64386650158
11
62.6253347423
21
4.00788473581
0
LINE
8
0
10
62.6253347423
20
4.00788473581
11
62.8105291619
21
3.37346060987
0
LINE
8
0
10
62.8105291619
20
3.37346060987
11
63.0615908422
21
2.6394053645
0
LINE
8
0
10
63.0615908422
20
2.6394053645
11
63.3878958989
21
1.81062523666
0
LINE
8
0
10
63.3878958989
20
1.81062523666
11
63.7985001811
21
0.892669721637
0
LINE
8
0
10
63.7985001811
20
0.892669721637
11
64.2476187129
21
0.0
0
LINE
8
0
10
64.2476187129
20
0.0
11
65.2861672348
21
0.0
0
LINE
8
0
10
65.2861672348
20
0.0
11
66.3150426598
21
0.141415672156
0
LINE
8
0
10
66.3150426598
20
0.141415672156
11
66.6384262326
21
1.08692598535
0
LINE
8
0
10
66.6384262326
20
1.08692598535
11
66.9202111979
21
2.05224222239
0
LINE
8
0
10
66.9202111979
20
2.05224222239
11
67.1306248189
21
2.91773491355
0
LINE
8
0
10
67.1306248189
20
2.91773491355
11
67.279394254
21
3.67913935646
0
LINE
8
0
10
67.279394254
20
3.67913935646
11
67.3764763555
21
4.33287172541
0
LINE
8
0
10
67.3764763555
20
4.33287172541
11
67.4430529862
21
4.98398349809
0
LINE
8
0
10
67.4430529862
20
4.98398349809
11
67.5107413862
21
5.2369868533
0
LINE
8
0
10
67.5107413862
20
5.2369868533
11
67.609139637
21
5.36678170911
0
LINE
8
0
10
67.609139637
20
5.36678170911
11
69.8650430754
21
5.67684849983
0
LINE
8
0
10
69.8650430754
20
5.67684849983
11
69.9948106851
21
5.5784143197
0
LINE
8
0
10
69.9948106851
20
5.5784143197
11
70.1282485039
21
5.35305512697
0
LINE
8
0
10
70.1282485039
20
5.35305512697
11
70.3680241465
21
4.74405050507
0
LINE
8
0
10
70.3680241465
20
4.74405050507
11
70.6378810627
21
4.14075274322
0
LINE
8
0
10
70.6378810627
20
4.14075274322
11
70.9865581839
21
3.44772075574
0
LINE
8
0
10
70.9865581839
20
3.44772075574
11
71.4226762305
21
2.67109179689
0
LINE
8
0
10
71.4226762305
20
2.67109179689
11
71.9544510488
21
1.81759677828
0
LINE
8
0
10
71.9544510488
20
1.81759677828
11
72.5209383111
21
0.994396396127
0
LINE
8
0
10
72.5209383111
20
0.994396396127
11
73.5498137361
21
1.13581206828
0
LINE
8
0
10
73.5498137361
20
1.13581206828
11
74.5498500616
21
1.41600910619
0
LINE
8
0
10
74.5498500616
20
1.41600910619
11
74.7414746513
21
2.3967469428
0
LINE
8
0
10
74.7414746513
20
2.3967469428
11
74.8891911789
21
3.39144188679
0
LINE
8
0
10
74.8891911789
20
3.39144188679
11
74.9797937565
21
4.27752465001
0
LINE
8
0
10
74.9797937565
20
4.27752465001
11
75.0234996535
21
5.05209476633
0
LINE
8
0
10
75.0234996535
20
5.05209476633
11
75.030660981
21
5.71295758117
0
LINE
8
0
10
75.030660981
20
5.71295758117
11
75.0079578051
21
6.36707038036
0
LINE
8
0
10
75.0079578051
20
6.36707038036
11
75.0405651326
21
6.62693415128
0
LINE
8
0
10
75.0405651326
20
6.62693415128
11
75.1203731661
21
6.76891865089
0
LINE
8
0
10
75.1203731661
20
6.76891865089
11
77.3130442423
21
7.38327627468
0
LINE
8
0
10
77.3130442423
20
7.38327627468
11
77.455006642
21
7.3034289364
0
LINE
8
0
10
77.455006642
20
7.3034289364
11
77.6178880199
21
7.098338532
0
LINE
8
0
10
77.6178880199
20
7.098338532
11
77.9383564978
21
6.52765565779
0
LINE
8
0
10
77.9383564978
20
6.52765565779
11
78.2878489867
21
5.96672255586
0
LINE
8
0
10
78.2878489867
20
5.96672255586
11
78.7276463538
21
5.32762370092
0
LINE
8
0
10
78.7276463538
20
5.32762370092
11
79.2654533364
21
4.61761303913
0
LINE
8
0
10
79.2654533364
20
4.61761303913
11
79.908492732
21
3.84447751425
0
LINE
8
0
10
79.908492732
20
3.84447751425
11
80.581796139
21
3.10608113715
0
LINE
8
0
10
80.581796139
20
3.10608113715
11
81.5818324645
21
3.38627817506
0
LINE
8
0
10
81.5818324645
20
3.38627817506
11
82.534400906
21
3.80003703806
0
LINE
8
0
10
82.534400906
20
3.80003703806
11
82.5906969091
21
4.79773310779
0
LINE
8
0
10
82.5906969091
20
4.79773310779
11
82.6015933195
21
5.80327747398
0
LINE
8
0
10
82.6015933195
20
5.80327747398
11
82.5706970991
21
6.69344426392
0
LINE
8
0
10
82.5706970991
20
6.69344426392
11
82.5085252999
21
7.46675127792
0
LINE
8
0
10
82.5085252999
20
7.46675127792
11
82.4256324513
21
8.12243391479
0
LINE
8
0
10
82.4256324513
20
8.12243391479
11
82.314072386
21
8.7673628567
0
LINE
8
0
10
82.314072386
20
8.7673628567
11
82.3109912282
21
9.02924627295
0
LINE
8
0
10
82.3109912282
20
9.02924627295
11
82.3707223719
21
9.18077551376
0
LINE
8
0
10
82.3707223719
20
9.18077551376
11
84.4593157724
21
10.0879796505
0
LINE
8
0
10
84.4593157724
20
10.0879796505
11
84.6108284711
21
10.0282065589
0
LINE
8
0
10
84.6108284711
20
10.0282065589
11
84.8001192362
21
9.84720538903
0
LINE
8
0
10
84.8001192362
20
9.84720538903
11
85.1953108281
21
9.32547500469
0
LINE
8
0
10
85.1953108281
20
9.32547500469
11
85.617928506
21
8.81735568504
0
LINE
8
0
10
85.617928506
20
8.81735568504
11
86.1406535262
21
8.24409516508
0
LINE
8
0
10
86.1406535262
20
8.24409516508
11
86.7701311181
21
7.61392895559
0
LINE
8
0
10
86.7701311181
20
7.61392895559
11
87.5124564838
21
6.93555497645
0
LINE
8
0
10
87.5124564838
20
6.93555497645
11
88.2800336669
21
6.2957175318
0
LINE
8
0
10
88.2800336669
20
6.2957175318
11
89.2326021084
21
6.7094763948
0
LINE
8
0
10
89.2326021084
20
6.7094763948
11
90.1199581181
21
7.24908953813
0
LINE
8
0
10
90.1199581181
20
7.24908953813
11
90.0398768466
21
8.24515865094
0
LINE
8
0
10
90.0398768466
20
8.24515865094
11
89.9137501604
21
9.24282105033
0
LINE
8
0
10
89.9137501604
20
9.24282105033
11
89.7619306801
21
10.1204897439
0
LINE
8
0
10
89.7619306801
20
10.1204897439
11
89.5950393275
21
10.8781284091
0
LINE
8
0
10
89.5950393275
20
10.8781284091
11
89.4236364399
21
11.5164167411
0
LINE
8
0
10
89.4236364399
20
11.5164167411
11
89.2252976382
21
12.1401480198
0
LINE
8
0
10
89.2252976382
20
12.1401480198
11
89.1865853912
21
12.3991726888
0
LINE
8
0
10
89.1865853912
20
12.3991726888
11
89.2251269668
21
12.5574239678
0
LINE
8
0
10
89.2251269668
20
12.5574239678
11
91.1707361483
21
13.7405751209
0
LINE
8
0
10
91.1707361483
20
13.7405751209
11
91.3289767511
21
13.7019897356
0
LINE
8
0
10
91.3289767511
20
13.7019897356
11
91.5411507746
21
13.5484495096
0
LINE
8
0
10
91.5411507746
20
13.5484495096
11
92.0037038089
21
13.085390465
0
LINE
8
0
10
92.0037038089
20
13.085390465
11
92.491574108
21
12.6395502292
0
LINE
8
0
10
92.491574108
20
12.6395502292
11
93.0874894033
21
12.142806803
0
LINE
8
0
10
93.0874894033
20
12.142806803
11
93.7969116281
21
11.60422385
0
LINE
8
0
10
93.7969116281
20
11.60422385
11
94.6246948468
21
11.0332482403
0
LINE
8
0
10
94.6246948468
20
11.0332482403
11
95.4722472954
21
10.5038886891
0
LINE
8
0
10
95.4722472954
20
10.5038886891
11
96.3596033051
21
11.0435018324
0
LINE
8
0
10
96.3596033051
20
11.0435018324
11
97.1652171195
21
11.6989172842
0
LINE
8
0
10
97.1652171195
20
11.6989172842
11
96.9502503359
21
12.6748045571
0
LINE
8
0
10
96.9502503359
20
12.6748045571
11
96.6894500546
21
13.6460004269
0
LINE
8
0
10
96.6894500546
20
13.6460004269
11
96.4195354242
21
14.494821717
0
LINE
8
0
10
96.4195354242
20
14.494821717
11
96.1510333884
21
15.2226786585
0
LINE
8
0
10
96.1510333884
20
15.2226786585
11
95.8943133732
21
15.8316825817
0
LINE
8
0
10
95.8943133732
20
15.8316825817
11
95.6128905116
21
16.4225972636
0
LINE
8
0
10
95.6128905116
20
16.4225972636
11
95.5392683113
21
16.6739380459
0
LINE
8
0
10
95.5392683113
20
16.6739380459
11
95.5559023623
21
16.8359634411
0
LINE
8
0
10
95.5559023623
20
16.8359634411
11
97.322284307
21
18.2730217433
0
LINE
8
0
10
97.322284307
20
18.2730217433
11
97.4843050909
21
18.256342837
0
LINE
8
0
10
97.4843050909
20
18.256342837
11
97.7154099722
21
18.1331237187
0
LINE
8
0
10
97.7154099722
20
18.1331237187
11
98.2367079609
21
17.7373619278
0
LINE
8
0
10
98.2367079609
20
17.7373619278
11
98.7807427807
21
17.3621059358
0
LINE
8
0
10
98.7807427807
20
17.3621059358
11
99.4387475765
21
16.9511329936
0
LINE
8
0
10
99.4387475765
20
16.9511329936
11
100.21489924
21
16.5141660784
0
LINE
8
0
10
100.21489924
20
16.5141660784
11
101.112720277
21
16.0612250334
0
LINE
8
0
10
101.112720277
20
16.0612250334
11
102.024459693
21
15.6522043425
0
LINE
8
0
10
102.024459693
20
15.6522043425
11
102.830073507
21
16.3076197943
0
LINE
8
0
10
102.830073507
20
16.3076197943
11
103.538938065
21
17.0666284047
0
LINE
8
0
10
103.538938065
20
17.0666284047
11
103.193090194
21
18.0041549044
0
LINE
8
0
10
103.193090194
20
18.0041549044
11
102.802474533
21
18.930792703
0
LINE
8
0
10
102.802474533
20
18.930792703
11
102.419492752
21
19.7349546551
0
LINE
8
0
10
102.419492752
20
19.7349546551
11
102.054381717
21
20.4194712753
0
LINE
8
0
10
102.054381717
20
20.4194712753
11
101.717126783
21
20.9878461988
0
LINE
8
0
10
101.717126783
20
20.9878461988
11
101.357862237
21
21.5349366614
0
LINE
8
0
10
101.357862237
20
21.5349366614
11
101.250701526
21
21.7739115538
0
LINE
8
0
10
101.250701526
20
21.7739115538
11
101.245118191
21
21.9366928387
0
LINE
8
0
10
101.245118191
20
21.9366928387
11
102.799368545
21
23.6008886127
0
LINE
8
0
10
102.799368545
20
23.6008886127
11
102.96215137
21
23.6064268819
0
LINE
8
0
10
102.96215137
20
23.6064268819
11
103.207882062
21
23.5158242104
0
LINE
8
0
10
103.207882062
20
23.5158242104
11
103.77821421
21
23.1947319665
0
LINE
8
0
10
103.77821421
20
23.1947319665
11
104.368279211
21
22.8970505274
0
LINE
8
0
10
104.368279211
20
22.8970505274
11
105.076116123
21
22.5795037176
0
LINE
8
0
10
105.076116123
20
22.5795037176
11
105.904538989
21
22.2522927071
0
LINE
8
0
10
105.904538989
20
22.2522927071
11
106.855673137
21
21.9258236614
0
LINE
8
0
10
106.855673137
20
21.9258236614
11
107.814615539
21
21.6447611124
0
LINE
8
0
10
107.814615539
20
21.6447611124
11
108.523480097
21
22.4037697228
0
LINE
8
0
10
108.523480097
20
22.4037697228
11
109.122390593
21
23.2522325977
0
LINE
8
0
10
109.122390593
20
23.2522325977
11
108.652104126
21
24.1339339792
0
LINE
8
0
10
108.652104126
20
24.1339339792
11
108.138949517
21
24.9987521978
0
LINE
8
0
10
108.138949517
20
24.9987521978
11
107.65003481
21
25.7432747961
0
LINE
8
0
10
107.65003481
20
25.7432747961
11
107.195116105
21
26.3716998455
0
LINE
8
0
10
107.195116105
20
26.3716998455
11
106.783608672
21
26.88885802
0
LINE
8
0
10
106.783608672
20
26.88885802
11
106.353194861
21
27.3819330031
0
LINE
8
0
10
106.353194861
20
27.3819330031
11
106.21449184
21
27.6040903556
0
LINE
8
0
10
106.21449184
20
27.6040903556
11
106.186795126
21
27.7645952229
0
LINE
8
0
10
106.186795126
20
27.7645952229
11
107.499961147
21
29.6249276502
0
LINE
8
0
10
107.499961147
20
29.6249276502
11
107.660473676
21
29.6525799273
0
LINE
8
0
10
107.660473676
20
29.6525799273
11
107.916252682
21
29.596281459
0
LINE
8
0
10
107.916252682
20
29.596281459
11
108.52499478
21
29.355840103
0
LINE
8
0
10
108.52499478
20
29.355840103
11
109.150098168
21
29.1412784589
0
LINE
8
0
10
109.150098168
20
29.1412784589
11
109.894581534
21
28.9230730776
0
LINE
8
0
10
109.894581534
20
28.9230730776
11
110.759843652
21
28.7117132938
0
LINE
8
0
10
110.759843652
20
28.7117132938
11
111.74657308
21
28.5177977482
0
LINE
8
0
10
111.74657308
20
28.5177977482
11
112.734855187
21
28.3699290045
0
LINE
8
0
10
112.734855187
20
28.3699290045
11
113.333765683
21
29.2183918793
0
LINE
8
0
10
113.333765683
20
29.2183918793
11
113.811565548
21
30.1405037605
0
LINE
8
0
10
113.811565548
20
30.1405037605
11
113.225601031
21
30.9499555954
0
LINE
8
0
10
113.225601031
20
30.9499555954
11
112.599466573
21
31.7368443068
0
LINE
8
0
10
112.599466573
20
31.7368443068
11
112.013726496
21
32.4078585042
0
LINE
8
0
10
112.013726496
20
32.4078585042
11
111.477474396
21
32.9684856131
0
LINE
8
0
10
111.477474396
20
32.9684856131
11
110.99938007
21
33.4247933603
0
LINE
8
0
10
110.99938007
20
33.4247933603
11
110.505834788
21
33.8546678099
0
LINE
8
0
10
110.505834788
20
33.8546678099
11
110.338173232
21
34.0558692512
0
LINE
8
0
10
110.338173232
20
34.0558692512
11
110.288879077
21
34.2111077989
0
LINE
8
0
10
110.288879077
20
34.2111077989
11
111.336498966
21
36.2329224064
0
LINE
8
0
10
111.336498966
20
36.2329224064
11
111.491751155
21
36.2821735819
0
LINE
8
0
10
111.491751155
20
36.2821735819
11
111.752813794
21
36.2612280506
0
LINE
8
0
10
111.752813794
20
36.2612280506
11
112.38862613
21
36.1059165501
0
LINE
8
0
10
112.38862613
20
36.1059165501
11
113.037123411
21
35.9784715784
0
LINE
8
0
10
113.037123411
20
35.9784715784
11
113.804384915
21
35.863672379
0
LINE
8
0
10
113.804384915
20
35.863672379
11
114.690368088
21
35.7721010548
0
LINE
8
0
10
114.690368088
20
35.7721010548
11
115.694311895
21
35.7143512889
0
LINE
8
0
10
115.694311895
20
35.7143512889
11
116.69352388
21
35.7024308655
0
LINE
8
0
10
116.69352388
20
35.7024308655
11
117.171323745
21
36.6245427467
0
LINE
8
0
10
117.171323745
20
36.6245427467
11
117.519112471
21
37.6031264346
0
LINE
8
0
10
117.519112471
20
37.6031264346
11
116.828385316
21
38.3252501668
0
LINE
8
0
10
116.828385316
20
38.3252501668
11
116.100934709
21
39.0195511232
0
LINE
8
0
10
116.100934709
20
39.0195511232
11
115.429280492
21
39.6045571946
0
LINE
8
0
10
115.429280492
20
39.6045571946
11
114.821684358
21
40.0869429408
0
LINE
8
0
10
114.821684358
20
40.0869429408
11
114.285909131
21
40.4739001107
0
LINE
8
0
10
114.285909131
20
40.4739001107
11
113.738426193
21
40.8325662792
0
LINE
8
0
10
113.738426193
20
40.8325662792
11
113.54492932
21
41.0090638072
0
LINE
8
0
10
113.54492932
20
41.0090638072
11
113.474955981
21
41.1561442348
0
LINE
8
0
10
113.474955981
20
41.1561442348
11
114.237514561
21
43.3017784417
0
LINE
8
0
10
114.237514561
20
43.3017784417
11
114.384614355
21
43.3717110594
0
LINE
8
0
10
114.384614355
20
43.3717110594
11
114.646097526
21
43.3865086408
0
LINE
8
0
10
114.646097526
20
43.3865086408
11
115.297136118
21
43.3192201552
0
LINE
8
0
10
115.297136118
20
43.3192201552
11
115.956947015
21
43.2812659146
0
LINE
8
0
10
115.956947015
20
43.2812659146
11
116.732694026
21
43.272011389
0
LINE
8
0
10
116.732694026
20
43.272011389
11
117.622894064
21
43.3019343249
0
LINE
8
0
10
117.622894064
20
43.3019343249
11
118.625350677
21
43.3814261076
0
LINE
8
0
10
118.625350677
20
43.3814261076
11
119.616879112
21
43.5056760593
0
LINE
8
0
10
119.616879112
20
43.5056760593
11
119.964667838
21
44.4842597473
0
LINE
8
0
10
119.964667838
20
44.4842597473
11
120.17596678
21
45.5010860794
0
LINE
8
0
10
120.17596678
20
45.5010860794
11
119.393343926
21
46.1224299099
0
LINE
8
0
10
119.393343926
20
46.1224299099
11
118.578128198
21
46.7112095982
0
LINE
8
0
10
118.578128198
20
46.7112095982
11
117.833071488
21
47.1993099875
0
LINE
8
0
10
117.833071488
20
47.1993099875
11
117.165449687
21
47.5944684372
0
LINE
8
0
10
117.165449687
20
47.5944684372
11
116.581974038
21
47.9048667498
0
LINE
8
0
10
116.581974038
20
47.9048667498
11
115.990752015
21
48.1856433652
0
LINE
8
0
10
115.990752015
20
48.1856433652
11
115.775024306
21
48.3341491648
0
LINE
8
0
10
115.775024306
20
48.3341491648
11
115.685675253
21
48.4703316423
0
LINE
8
0
10
115.685675253
20
48.4703316423
11
116.148967502
21
50.6998163431
0
LINE
8
0
10
116.148967502
20
50.6998163431
11
116.28517471
21
50.7891276906
0
LINE
8
0
10
116.28517471
20
50.7891276906
11
116.542207476
21
50.8393927337
0
LINE
8
0
10
116.542207476
20
50.8393927337
11
117.196344706
21
50.8613807202
0
LINE
8
0
10
117.196344706
20
50.8613807202
11
117.855178191
21
50.9136242263
0
LINE
8
0
10
117.855178191
20
50.9136242263
11
118.62496001
21
51.0100867689
0
LINE
8
0
10
118.62496001
20
51.0100867689
11
119.502794171
21
51.1609465572
0
LINE
8
0
10
119.502794171
20
51.1609465572
11
120.485089719
21
51.3761991069
0
LINE
8
0
10
120.485089719
20
51.3761991069
11
121.450464305
21
51.6343048924
0
LINE
8
0
10
61.4273656835
20
59.505802414
11
61.1154981473
21
59.4730238151
0
LINE
8
0
10
61.1154981473
20
59.4730238151
11
60.8036306111
21
59.505802414
0
LINE
8
0
10
60.8036306111
20
59.505802414
11
60.5053931827
21
59.6027056286
0
LINE
8
0
10
60.5053931827
20
59.6027056286
11
60.2338202688
21
59.7594983235
0
LINE
8
0
10
60.2338202688
20
59.7594983235
11
60.0007809091
21
59.9693279055
0
LINE
8
0
10
60.0007809091
20
59.9693279055
11
59.8164600416
21
60.2230238151
0
LINE
8
0
10
59.8164600416
20
60.2230238151
11
59.6889133728
21
60.5094983235
0
LINE
8
0
10
59.6889133728
20
60.5094983235
11
59.6237153042
21
60.8162311202
0
LINE
8
0
10
59.6237153042
20
60.8162311202
11
59.6237153042
21
61.12981651
0
LINE
8
0
10
59.6237153042
20
61.12981651
11
59.6889133728
21
61.4365493066
0
LINE
8
0
10
59.6889133728
20
61.4365493066
11
59.8164600416
21
61.7230238151
0
LINE
8
0
10
59.8164600416
20
61.7230238151
11
60.0007809091
21
61.9767197246
0
LINE
8
0
10
60.0007809091
20
61.9767197246
11
60.2338202688
21
62.1865493066
0
LINE
8
0
10
60.2338202688
20
62.1865493066
11
60.5053931827
21
62.3433420015
0
LINE
8
0
10
60.5053931827
20
62.3433420015
11
60.8036306111
21
62.4402452162
0
LINE
8
0
10
60.8036306111
20
62.4402452162
11
61.1154981473
21
62.4730238151
0
LINE
8
0
10
61.1154981473
20
62.4730238151
11
61.4273656835
21
62.4402452162
0
LINE
8
0
10
61.4273656835
20
62.4402452162
11
61.7256031119
21
62.3433420015
0
LINE
8
0
10
61.7256031119
20
62.3433420015
11
61.9971760257
21
62.1865493066
0
LINE
8
0
10
61.9971760257
20
62.1865493066
11
62.2302153855
21
61.9767197246
0
LINE
8
0
10
62.2302153855
20
61.9767197246
11
62.414536253
21
61.7230238151
0
LINE
8
0
10
62.414536253
20
61.7230238151
11
62.5420829217
21
61.4365493066
0
LINE
8
0
10
62.5420829217
20
61.4365493066
11
62.6072809903
21
61.12981651
0
LINE
8
0
10
62.6072809903
20
61.12981651
11
62.6072809903
21
60.8162311202
0
LINE
8
0
10
62.6072809903
20
60.8162311202
11
62.5420829217
21
60.5094983235
0
LINE
8
0
10
62.5420829217
20
60.5094983235
11
62.414536253
21
60.2230238151
0
LINE
8
0
10
62.414536253
20
60.2230238151
11
62.2302153855
21
59.9693279055
0
LINE
8
0
10
62.2302153855
20
59.9693279055
11
61.9971760257
21
59.7594983235
0
LINE
8
0
10
61.9971760257
20
59.7594983235
11
61.7256031119
21
59.6027056286
0
LINE
8
0
10
61.7256031119
20
59.6027056286
11
61.4273656835
21
59.505802414
0
ENDSEC
0
EOF
