0
SECTION
2
HEADER
9
$ACADVER
1
AC1009
9
$INSBASE
10
0.0
20
0.0
30
0.0
9
$EXTMIN
10
0.0
20
0.0
9
$EXTMAX
10
0.0
20
0.0
0
ENDSEC
0
SECTION
2
TABLES
0
TABLE
2
LTYPE
70
1
0
LTYPE
2
CONTINUOUS
70
64
3
Solid line
72
65
73
0
40
0.0
0
ENDTAB
0
TABLE
2
LAYER
70
0
0
ENDTAB
0
TABLE
2
STYLE
70
1
0
STYLE
2
STANDARD
70
0
40
0
41
40
50
50
71
0
42
1
3
ARIAL.TTF
4

0
ENDTAB
0
TABLE
2
VIEW
70
0
0
ENDTAB
0
ENDSEC
0
SECTION
2
BLOCKS
0
ENDSEC
0
SECTION
2
ENTITIES
0
LINE
8
0
10
103.313956934
20
42.7868985116
11
103.560352178
21
43.786563316
0
LINE
8
0
10
103.560352178
20
43.786563316
11
103.643199158
21
44.8128073005
0
LINE
8
0
10
103.643199158
20
44.8128073005
11
102.830921958
21
45.3348382258
0
LINE
8
0
10
102.830921958
20
45.3348382258
11
101.934711826
21
45.8450111515
0
LINE
8
0
10
101.934711826
20
45.8450111515
11
101.133624184
21
46.2457118893
0
LINE
8
0
10
101.133624184
20
46.2457118893
11
100.436477727
21
46.5487979247
0
LINE
8
0
10
100.436477727
20
46.5487979247
11
99.8510835947
21
46.7667388102
0
LINE
8
0
10
99.8510835947
20
46.7667388102
11
99.2502002929
21
46.954390928
0
LINE
8
0
10
99.2502002929
20
46.954390928
11
98.9742804481
21
47.0931705999
0
LINE
8
0
10
98.9742804481
20
47.0931705999
11
98.8491904715
21
47.2388747315
0
LINE
8
0
10
98.8491904715
20
47.2388747315
11
99.032421908
21
49.508603345
0
LINE
8
0
10
99.032421908
20
49.508603345
11
99.1792645886
21
49.6323548029
0
LINE
8
0
10
99.1792645886
20
49.6323548029
11
99.4738731689
21
49.7250766588
0
LINE
8
0
10
99.4738731689
20
49.7250766588
11
100.097076706
21
49.8139102709
0
LINE
8
0
10
100.097076706
20
49.8139102709
11
100.709850314
21
49.9351250567
0
LINE
8
0
10
100.709850314
20
49.9351250567
11
101.446587327
21
50.1224560513
0
LINE
8
0
10
101.446587327
20
50.1224560513
11
102.301578014
21
50.389464325
0
LINE
8
0
10
102.301578014
20
50.389464325
11
103.268019952
21
50.7492684301
0
LINE
8
0
10
103.268019952
20
50.7492684301
11
104.153518025
21
51.1342407661
0
LINE
8
0
10
104.153518025
20
51.1342407661
11
104.236365004
21
52.1604847506
0
LINE
8
0
10
104.236365004
20
52.1604847506
11
104.153518025
21
53.1867287351
0
LINE
8
0
10
104.153518025
20
53.1867287351
11
103.268019952
21
53.571701071
0
LINE
8
0
10
103.268019952
20
53.571701071
11
102.301578014
21
53.9315051762
0
LINE
8
0
10
102.301578014
20
53.9315051762
11
101.446587327
21
54.1985134499
0
LINE
8
0
10
101.446587327
20
54.1985134499
11
100.709850314
21
54.3858444445
0
LINE
8
0
10
100.709850314
20
54.3858444445
11
100.097076706
21
54.5070592303
0
LINE
8
0
10
100.097076706
20
54.5070592303
11
99.4738731689
21
54.5958928424
0
LINE
8
0
10
99.4738731689
20
54.5958928424
11
99.1792645886
21
54.6886146982
0
LINE
8
0
10
99.1792645886
20
54.6886146982
11
99.032421908
21
54.8123661562
0
LINE
8
0
10
99.032421908
20
54.8123661562
11
98.8491904715
21
57.0820947697
0
LINE
8
0
10
98.8491904715
20
57.0820947697
11
98.9742804481
21
57.2277989013
0
LINE
8
0
10
98.9742804481
20
57.2277989013
11
99.2502002929
21
57.3665785732
0
LINE
8
0
10
99.2502002929
20
57.3665785732
11
99.8510835947
21
57.554230691
0
LINE
8
0
10
99.8510835947
20
57.554230691
11
100.436477727
21
57.7721715765
0
LINE
8
0
10
100.436477727
20
57.7721715765
11
101.133624184
21
58.0752576118
0
LINE
8
0
10
101.133624184
20
58.0752576118
11
101.934711826
21
58.4759583497
0
LINE
8
0
10
101.934711826
20
58.4759583497
11
102.830921958
21
58.9861312753
0
LINE
8
0
10
102.830921958
20
58.9861312753
11
103.643199158
21
59.5081622007
0
LINE
8
0
10
103.643199158
20
59.5081622007
11
103.560352178
21
60.5344061852
0
LINE
8
0
10
103.560352178
20
60.5344061852
11
103.313956934
21
61.5340709896
0
LINE
8
0
10
103.313956934
20
61.5340709896
11
102.378171923
21
61.7720141548
0
LINE
8
0
10
102.378171923
20
61.7720141548
11
101.366528517
21
61.9721307021
0
LINE
8
0
10
101.366528517
20
61.9721307021
11
100.479778596
21
62.0985311377
0
LINE
8
0
10
100.479778596
20
62.0985311377
11
99.7225321288
21
62.1652553172
0
LINE
8
0
10
99.7225321288
20
62.1652553172
11
99.0982495588
21
62.186604604
0
LINE
8
0
10
99.0982495588
20
62.186604604
11
98.4688664301
21
62.1743189665
0
LINE
8
0
10
98.4688664301
20
62.1743189665
11
98.1631993219
21
62.2185815589
0
LINE
8
0
10
98.1631993219
20
62.2185815589
11
97.9984070856
21
62.3171752455
0
LINE
8
0
10
97.9984070856
20
62.3171752455
11
97.4534583739
21
64.5281190802
0
LINE
8
0
10
97.4534583739
20
64.5281190802
11
97.5535558818
21
64.6920022249
0
LINE
8
0
10
97.5535558818
20
64.6920022249
11
97.8036408122
21
64.8732453922
0
LINE
8
0
10
97.8036408122
20
64.8732453922
11
98.3666413164
21
65.1548559245
0
LINE
8
0
10
98.3666413164
20
65.1548559245
11
98.9094945714
21
65.4638783552
0
LINE
8
0
10
98.9094945714
20
65.4638783552
11
99.548994746
21
65.8748696622
0
LINE
8
0
10
99.548994746
20
65.8748696622
11
100.275431596
21
66.3988849256
0
LINE
8
0
10
100.275431596
20
66.3988849256
11
101.078198549
21
67.0462134609
0
LINE
8
0
10
101.078198549
20
67.0462134609
11
101.796217323
21
67.6917826489
0
LINE
8
0
10
101.796217323
20
67.6917826489
11
101.549822078
21
68.6914474532
0
LINE
8
0
10
101.549822078
20
68.6914474532
11
101.146260075
21
69.6386422842
0
LINE
8
0
10
101.146260075
20
69.6386422842
11
100.184424467
21
69.7233936758
0
LINE
8
0
10
100.184424467
20
69.7233936758
11
99.1537806252
21
69.7586397517
0
LINE
8
0
10
99.1537806252
20
69.7586397517
11
98.258237827
21
69.7411586442
0
LINE
8
0
10
98.258237827
20
69.7411586442
11
97.5000941919
21
69.6855478875
0
LINE
8
0
10
97.5000941919
20
69.6855478875
11
96.8804712508
21
69.6064787399
0
LINE
8
0
10
96.8804712508
20
69.6064787399
11
96.2612092232
21
69.4933920444
0
LINE
8
0
10
96.2612092232
20
69.4933920444
11
95.9524002046
21
69.4880489955
0
LINE
8
0
10
95.9524002046
20
69.4880489955
11
95.7739264449
21
69.5589313861
0
LINE
8
0
10
95.7739264449
20
69.5589313861
11
94.8813743435
21
71.6538281579
0
LINE
8
0
10
94.8813743435
20
71.6538281579
11
94.9538869098
21
71.8316458284
0
LINE
8
0
10
94.9538869098
20
71.8316458284
11
95.1716598574
21
72.0506583883
0
LINE
8
0
10
95.1716598574
20
72.0506583883
11
95.6821961468
21
72.4189337701
0
LINE
8
0
10
95.6821961468
20
72.4189337701
11
96.1684489108
21
72.8110342275
0
LINE
8
0
10
96.1684489108
20
72.8110342275
11
96.7337400841
21
73.3192863471
0
LINE
8
0
10
96.7337400841
20
73.3192863471
11
97.3667118076
21
73.953044416
0
LINE
8
0
10
97.3667118076
20
73.953044416
11
98.0552443401
21
74.720763092
0
LINE
8
0
10
98.0552443401
20
74.720763092
11
98.6604083792
21
75.4731506397
0
LINE
8
0
10
98.6604083792
20
75.4731506397
11
98.2568463764
21
76.4203454706
0
LINE
8
0
10
98.2568463764
20
76.4203454706
11
97.7065696596
21
77.2905384795
0
LINE
8
0
10
97.7065696596
20
77.2905384795
11
96.7435944904
21
77.2199030809
0
LINE
8
0
10
96.7435944904
20
77.2199030809
11
95.7206433478
21
77.0893658307
0
LINE
8
0
10
95.7206433478
20
77.0893658307
11
94.8395017604
21
76.9284559316
0
LINE
8
0
10
94.8395017604
20
76.9284559316
11
94.100096479
21
76.751950528
0
LINE
8
0
10
94.100096479
20
76.751950528
11
93.5011810755
21
76.5745107955
0
LINE
8
0
10
93.5011810755
20
76.5745107955
11
92.9080787101
21
76.3635519279
0
LINE
8
0
10
92.9080787101
20
76.3635519279
11
92.6041257726
21
76.30874162
0
LINE
8
0
10
92.6041257726
20
76.30874162
11
92.4165928661
21
76.3500768978
0
LINE
8
0
10
92.4165928661
20
76.3500768978
11
91.1995540056
21
78.2746698808
0
LINE
8
0
10
91.1995540056
20
78.2746698808
11
91.2426035929
21
78.4618166928
0
LINE
8
0
10
91.2426035929
20
78.4618166928
11
91.4224243528
21
78.712926335
0
LINE
8
0
10
91.4224243528
20
78.712926335
11
91.8672738056
21
79.1583284275
0
LINE
8
0
10
91.8672738056
20
79.1583284275
11
92.2843323874
21
79.6233517156
0
LINE
8
0
10
92.2843323874
20
79.6233517156
11
92.760773815
21
80.2157011849
0
LINE
8
0
10
92.760773815
20
80.2157011849
11
93.2838867773
21
80.9427880581
0
LINE
8
0
10
93.2838867773
20
80.9427880581
11
93.8403522582
21
81.8110133644
0
LINE
8
0
10
93.8403522582
20
81.8110133644
11
94.3169881317
21
82.6507328296
0
LINE
8
0
10
94.3169881317
20
82.6507328296
11
93.7667114149
21
83.5209258385
0
LINE
8
0
10
93.7667114149
20
83.5209258385
11
93.0839718618
21
84.2915794834
0
LINE
8
0
10
93.0839718618
20
84.2915794834
11
92.1447976829
21
84.0673867144
0
LINE
8
0
10
92.1447976829
20
84.0673867144
11
91.1560331364
21
83.7744469843
0
LINE
8
0
10
91.1560331364
20
83.7744469843
11
90.3121138642
21
83.4742757754
0
LINE
8
0
10
90.3121138642
20
83.4742757754
11
89.6105971449
21
83.1814471222
0
LINE
8
0
10
89.6105971449
20
83.1814471222
11
89.0479008733
21
82.9102324006
0
LINE
8
0
10
89.0479008733
20
82.9102324006
11
88.49631921
21
82.6068650849
0
LINE
8
0
10
88.49631921
20
82.6068650849
11
88.2050945748
21
82.504007076
0
LINE
8
0
10
88.2050945748
20
82.504007076
11
88.0133595254
21
82.5147246791
0
LINE
8
0
10
88.0133595254
20
82.5147246791
11
86.5033545729
21
84.219167926
0
LINE
8
0
10
86.5033545729
20
84.219167926
11
86.5158262196
21
84.4107968753
0
LINE
8
0
10
86.5158262196
20
84.4107968753
11
86.6530375285
21
84.687499992
0
LINE
8
0
10
86.6530375285
20
84.687499992
11
87.0206787776
21
85.1984931149
0
LINE
8
0
10
87.0206787776
20
85.1984931149
11
87.357741579
21
85.7243953749
0
LINE
8
0
10
87.357741579
20
85.7243953749
11
87.7329936782
21
86.3855006538
0
LINE
8
0
10
87.7329936782
20
86.3855006538
11
88.1326995284
21
87.1870851633
0
LINE
8
0
10
88.1326995284
20
87.1870851633
11
88.542685794
21
88.1333305204
0
LINE
8
0
10
88.542685794
20
88.1333305204
11
88.8784488831
21
89.0386336101
0
LINE
8
0
10
88.8784488831
20
89.0386336101
11
88.1957093301
21
89.809287255
0
LINE
8
0
10
88.1957093301
20
89.809287255
11
87.3981895367
21
90.4604420115
0
LINE
8
0
10
87.3981895367
20
90.4604420115
11
86.5071404659
21
90.0884983469
0
LINE
8
0
10
86.5071404659
20
90.0884983469
11
85.578170998
21
89.640743122
0
LINE
8
0
10
85.578170998
20
89.640743122
11
84.7933311068
21
89.2090848801
0
LINE
8
0
10
84.7933311068
20
89.2090848801
11
84.1478718641
21
88.8075170855
0
LINE
8
0
10
84.1478718641
20
88.8075170855
11
83.6359682623
21
88.4495516937
0
LINE
8
0
10
83.6359682623
20
88.4495516937
11
83.1401929763
21
88.0616329839
0
LINE
8
0
10
83.1401929763
20
88.0616329839
11
82.8692392087
21
87.9133912424
0
LINE
8
0
10
82.8692392087
20
87.9133912424
11
82.6782678533
21
87.8932135905
0
LINE
8
0
10
82.6782678533
20
87.8932135905
11
80.914405144
21
89.3333629165
0
LINE
8
0
10
80.914405144
20
89.3333629165
11
80.8959758409
21
89.5245109141
0
LINE
8
0
10
80.8959758409
20
89.5245109141
11
80.9870239981
21
89.81964104
0
LINE
8
0
10
80.9870239981
20
89.81964104
11
81.2679353282
21
90.3829907398
0
LINE
8
0
10
81.2679353282
20
90.3829907398
11
81.5162725997
21
90.9561513793
0
LINE
8
0
10
81.5162725997
20
90.9561513793
11
81.7806165382
21
91.6688901884
0
LINE
8
0
10
81.7806165382
20
91.6688901884
11
82.0465631048
21
92.5242117164
0
LINE
8
0
10
82.0465631048
20
92.5242117164
11
82.2994517262
21
93.5239698667
0
LINE
8
0
10
82.2994517262
20
93.5239698667
11
82.4856459433
21
94.4714097062
0
LINE
8
0
10
82.4856459433
20
94.4714097062
11
81.6881261499
21
95.1225644627
0
LINE
8
0
10
81.6881261499
20
95.1225644627
11
80.7964814598
21
95.6373557645
0
LINE
8
0
10
80.7964814598
20
95.6373557645
11
79.9766352001
21
95.12729435
0
LINE
8
0
10
79.9766352001
20
95.12729435
11
79.1315206319
21
94.5363202554
0
LINE
8
0
10
79.1315206319
20
94.5363202554
11
78.4260870627
21
93.9843547022
0
LINE
8
0
10
78.4260870627
20
93.9843547022
11
77.8534023519
21
93.4844481612
0
LINE
8
0
10
77.8534023519
20
93.4844481612
11
77.4055494544
21
93.0490032147
0
LINE
8
0
10
77.4055494544
20
93.0490032147
11
76.9784208652
21
92.5865800017
0
LINE
8
0
10
76.9784208652
20
92.5865800017
11
76.7347555253
21
92.3967939109
0
LINE
8
0
10
76.7347555253
20
92.3967939109
11
76.5494939219
21
92.3462435946
0
LINE
8
0
10
76.5494939219
20
92.3462435946
11
74.5774565734
21
93.4847998886
0
LINE
8
0
10
74.5774565734
20
93.4847998886
11
74.5286036298
21
93.6705163017
0
LINE
8
0
10
74.5286036298
20
93.6705163017
11
74.5711305357
21
93.9764297215
0
LINE
8
0
10
74.5711305357
20
93.9764297215
11
74.7580364909
21
94.5775455369
0
LINE
8
0
10
74.7580364909
20
94.5775455369
11
74.9112164277
21
95.1831199965
0
LINE
8
0
10
74.9112164277
20
95.1831199965
11
75.0578058363
21
95.9290327749
0
LINE
8
0
10
75.0578058363
20
95.9290327749
11
75.1831052429
21
96.8159389432
0
LINE
8
0
10
75.1831052429
20
96.8159389432
11
75.2723465376
21
97.8433166756
0
LINE
8
0
10
75.2723465376
20
97.8433166756
11
75.3041495503
21
98.808355071
0
LINE
8
0
10
75.3041495503
20
98.808355071
11
74.4125048602
21
99.3231463728
0
LINE
8
0
10
74.4125048602
20
99.3231463728
11
73.4498284026
21
99.6882413957
0
LINE
8
0
10
73.4498284026
20
99.6882413957
11
72.7224185415
21
99.0532725539
0
LINE
8
0
10
72.7224185415
20
99.0532725539
11
71.9830468965
21
98.3343855082
0
LINE
8
0
10
71.9830468965
20
98.3343855082
11
71.3752900081
21
97.6764082615
0
LINE
8
0
10
71.3752900081
20
97.6764082615
11
70.8902120624
21
97.091110291
0
LINE
8
0
10
70.8902120624
20
97.091110291
11
70.5180090239
21
96.5894635853
0
LINE
8
0
10
70.5180090239
20
96.5894635853
11
70.1705895377
21
96.0645123873
0
LINE
8
0
10
70.1705895377
20
96.0645123873
11
69.9605234299
21
95.8380973073
0
LINE
8
0
10
69.9605234299
20
95.8380973073
11
69.7857697565
21
95.7584835532
0
LINE
8
0
10
69.7857697565
20
95.7584835532
11
67.6566325003
21
96.5659588053
0
LINE
8
0
10
67.6566325003
20
96.5659588053
11
67.5786211818
21
96.7414336763
0
LINE
8
0
10
67.5786211818
20
96.7414336763
11
67.571525412
21
97.0502073931
0
LINE
8
0
10
67.571525412
20
97.0502073931
11
67.6595852263
21
97.6735207403
0
LINE
8
0
10
67.6595852263
20
97.6735207403
11
67.7136405484
21
98.2958249596
0
LINE
8
0
10
67.7136405484
20
98.2958249596
11
67.7386788385
21
99.0555929582
0
LINE
8
0
10
67.7386788385
20
99.0555929582
11
67.7200858961
21
99.9511133628
0
LINE
8
0
10
67.7200858961
20
99.9511133628
11
67.6433685616
21
100.979502134
0
LINE
8
0
10
67.6433685616
20
100.979502134
11
67.5199566885
21
101.937145097
0
LINE
8
0
10
67.5199566885
20
101.937145097
11
66.5572802309
21
102.30224012
0
LINE
8
0
10
66.5572802309
20
102.30224012
11
65.5485048203
21
102.508183095
0
LINE
8
0
10
65.5485048203
20
102.508183095
11
64.9323708911
21
101.764752185
0
LINE
8
0
10
64.9323708911
20
101.764752185
11
64.3178915065
21
100.936570985
0
LINE
8
0
10
64.3178915065
20
100.936570985
11
63.8235518831
21
100.18962331
0
LINE
8
0
10
63.8235518831
20
100.18962331
11
63.4386439666
21
99.5340928202
0
LINE
8
0
10
63.4386439666
20
99.5340928202
11
63.1517306502
21
98.9792367415
0
LINE
8
0
10
63.1517306502
20
98.9792367415
11
62.8930182492
21
98.4053535189
0
LINE
8
0
10
62.8930182492
20
98.4053535189
11
62.7219919752
21
98.1481734813
0
LINE
8
0
10
62.7219919752
20
98.1481734813
11
62.5622722603
21
98.0415582438
0
LINE
8
0
10
62.5622722603
20
98.0415582438
11
60.331178633
21
98.4970392691
0
LINE
8
0
10
60.331178633
20
98.4970392691
11
60.2260293917
21
98.6577278911
0
LINE
8
0
10
60.2260293917
20
98.6577278911
11
60.1694947228
21
98.9613648278
0
LINE
8
0
10
60.1694947228
20
98.9613648278
11
60.1564276933
21
99.5907322184
0
LINE
8
0
10
60.1564276933
20
99.5907322184
11
60.1099583963
21
100.213648845
0
LINE
8
0
10
60.1099583963
20
100.213648845
11
60.0127970893
21
100.967594472
0
LINE
8
0
10
60.0127970893
20
100.967594472
11
59.8507933455
21
101.848535605
0
LINE
8
0
10
59.8507933455
20
101.848535605
11
59.6101043203
21
102.851300685
0
LINE
8
0
10
59.6101043203
20
102.851300685
11
59.3346738642
21
103.776745767
0
LINE
8
0
10
59.3346738642
20
103.776745767
11
58.3258984536
21
103.982688742
0
LINE
8
0
10
58.3258984536
20
103.982688742
11
57.2971508433
21
104.024145853
0
LINE
8
0
10
57.2971508433
20
104.024145853
11
56.8082503911
21
103.191507346
0
LINE
8
0
10
56.8082503911
20
103.191507346
11
56.3345779601
21
102.27548145
0
LINE
8
0
10
56.3345779601
20
102.27548145
11
55.9664587383
21
101.458908899
0
LINE
8
0
10
55.9664587383
20
101.458908899
11
55.6916897638
21
100.750123785
0
LINE
8
0
10
55.6916897638
20
100.750123785
11
55.4974970738
21
100.156428814
0
LINE
8
0
10
55.4974970738
20
100.156428814
11
55.3341922732
21
99.5484768407
0
LINE
8
0
10
55.3341922732
20
99.5484768407
11
55.2066353239
21
99.2671926734
0
LINE
8
0
10
55.2066353239
20
99.2671926734
11
55.0660862242
21
99.1363372312
0
LINE
8
0
10
55.0660862242
20
99.1363372312
11
52.7908203786
21
99.2280273103
0
LINE
8
0
10
52.7908203786
20
99.2280273103
11
52.6612565247
21
99.3697679324
0
LINE
8
0
10
52.6612565247
20
99.3697679324
11
52.5567471751
21
99.6604040519
0
LINE
8
0
10
52.5567471751
20
99.6604040519
11
52.4428917308
21
100.279525201
0
LINE
8
0
10
52.4428917308
20
100.279525201
11
52.2971013451
21
100.886921022
0
LINE
8
0
10
52.2971013451
20
100.886921022
11
52.0802568678
21
101.615517481
0
LINE
8
0
10
52.0802568678
20
101.615517481
11
51.7790381345
21
102.459063429
0
LINE
8
0
10
51.7790381345
20
102.459063429
11
51.380611138
21
103.410233731
0
LINE
8
0
10
51.380611138
20
103.410233731
11
50.9602956029
21
104.27951239
0
LINE
8
0
10
50.9602956029
20
104.27951239
11
49.9315479926
21
104.320969501
0
LINE
8
0
10
49.9315479926
20
104.320969501
11
48.9094722054
21
104.196867032
0
LINE
8
0
10
48.9094722054
20
104.196867032
11
48.5604674951
21
103.296585827
0
LINE
8
0
10
48.5604674951
20
103.296585827
11
48.2398698849
21
102.316439824
0
LINE
8
0
10
48.2398698849
20
102.316439824
11
48.0075051592
21
101.451391198
0
LINE
8
0
10
48.0075051592
20
101.451391198
11
47.8499914988
21
100.707708621
0
LINE
8
0
10
47.8499914988
20
100.707708621
11
47.7535489239
21
100.090551146
0
LINE
8
0
10
47.7535489239
20
100.090551146
11
47.6898812323
21
99.4642760591
0
LINE
8
0
10
47.6898812323
20
99.4642760591
11
47.6090972655
21
99.1661728743
0
LINE
8
0
10
47.6090972655
20
99.1661728743
11
47.4913589287
21
99.0144663146
0
LINE
8
0
10
47.4913589287
20
99.0144663146
11
45.2308490553
21
98.7399907226
0
LINE
8
0
10
45.2308490553
20
98.7399907226
11
45.0802262246
21
98.8591123372
0
LINE
8
0
10
45.0802262246
20
98.8591123372
11
44.9304489313
21
99.1292203166
0
LINE
8
0
10
44.9304489313
20
99.1292203166
11
44.7187538686
21
99.7220603119
0
LINE
8
0
10
44.7187538686
20
99.7220603119
11
44.4774182886
21
100.298204093
0
LINE
8
0
10
44.4774182886
20
100.298204093
11
44.1465067991
21
100.98258112
0
LINE
8
0
10
44.1465067991
20
100.98258112
11
43.7138744832
21
101.766884487
0
LINE
8
0
10
43.7138744832
20
101.766884487
11
43.1680285652
21
102.641825198
0
LINE
8
0
10
43.1680285652
20
102.641825198
11
42.6137139029
21
103.432423573
0
LINE
8
0
10
42.6137139029
20
103.432423573
11
41.5916381156
21
103.308321104
0
LINE
8
0
10
41.5916381156
20
103.308321104
11
40.6027053774
21
103.021873243
0
LINE
8
0
10
40.6027053774
20
103.021873243
11
40.4026354476
21
102.077266151
0
LINE
8
0
10
40.4026354476
20
102.077266151
11
40.2434159681
21
101.058385308
0
LINE
8
0
10
40.2434159681
20
101.058385308
11
40.1528238627
21
100.16726491
0
LINE
8
0
10
40.1528238627
20
100.16726491
11
40.1166450375
21
99.4079458601
0
LINE
8
0
10
40.1166450375
20
99.4079458601
11
40.1204503896
21
98.7833099353
0
LINE
8
0
10
40.1204503896
20
98.7833099353
11
40.1580687668
21
98.1549319302
0
LINE
8
0
10
40.1580687668
20
98.1549319302
11
40.1261500449
21
97.8477304437
0
LINE
8
0
10
40.1261500449
20
97.8477304437
11
40.0342718322
21
97.6791018867
0
LINE
8
0
10
40.0342718322
20
97.6791018867
11
37.8470639492
21
97.0455693974
0
LINE
8
0
10
37.8470639492
20
97.0455693974
11
37.6792831938
21
97.1389868171
0
LINE
8
0
10
37.6792831938
20
97.1389868171
11
37.4881171102
21
97.3815710017
0
LINE
8
0
10
37.4881171102
20
97.3815710017
11
37.18406522
21
97.9327755986
0
LINE
8
0
10
37.18406522
20
97.9327755986
11
36.8534349104
21
98.46274552
0
LINE
8
0
10
36.8534349104
20
98.46274552
11
36.4170268424
21
99.0851781074
0
LINE
8
0
10
36.4170268424
20
99.0851781074
11
35.8641858937
21
99.7899258481
0
LINE
8
0
10
35.8641858937
20
99.7899258481
11
35.1850581769
21
100.565976464
0
LINE
8
0
10
35.1850581769
20
100.565976464
11
34.5111008458
21
101.257418473
0
LINE
8
0
10
34.5111008458
20
101.257418473
11
33.5221681075
21
100.970970612
0
LINE
8
0
10
33.5221681075
20
100.970970612
11
32.5919912568
21
100.529596208
0
LINE
8
0
10
32.5919912568
20
100.529596208
11
32.5460378137
21
99.565128056
0
LINE
8
0
10
32.5460378137
20
99.565128056
11
32.5523201656
21
98.5339008522
0
LINE
8
0
10
32.5523201656
20
98.5339008522
11
32.6058469686
21
97.639788234
0
LINE
8
0
10
32.6058469686
20
97.639788234
11
32.6919399911
21
96.8844986742
0
LINE
8
0
10
32.6919399911
20
96.8844986742
11
32.7958947137
21
96.268562042
0
LINE
8
0
10
32.7958947137
20
96.268562042
11
32.9338248634
21
95.6543557791
0
LINE
8
0
10
32.9338248634
20
95.6543557791
11
32.9515980645
21
95.3460123481
0
LINE
8
0
10
32.9515980645
20
95.3460123481
11
32.8879595734
21
95.1648291848
0
LINE
8
0
10
32.8879595734
20
95.1648291848
11
30.8307012161
21
94.1886479569
0
LINE
8
0
10
30.8307012161
20
94.1886479569
11
30.6501079695
21
94.2539417197
0
LINE
8
0
10
30.6501079695
20
94.2539417197
11
30.4225041967
21
94.4627193064
0
LINE
8
0
10
30.4225041967
20
94.4627193064
11
30.0339702632
21
94.9580125954
0
LINE
8
0
10
30.0339702632
20
94.9580125954
11
29.6226083753
21
95.428082714
0
LINE
8
0
10
29.6226083753
20
95.428082714
11
29.0920064686
21
95.9724501858
0
LINE
8
0
10
29.0920064686
20
95.9724501858
11
28.4332751772
21
96.5793897036
0
LINE
8
0
10
28.4332751772
20
96.5793897036
11
27.6384547127
21
97.2364509208
0
LINE
8
0
10
27.6384547127
20
97.2364509208
11
26.8623098537
21
97.8108285787
0
LINE
8
0
10
26.8623098537
20
97.8108285787
11
25.932133003
21
97.3694541752
0
LINE
8
0
10
25.932133003
20
97.3694541752
11
25.0848031315
21
96.7845845942
0
LINE
8
0
10
25.0848031315
20
96.7845845942
11
25.1941563452
21
95.8252346003
0
LINE
8
0
10
25.1941563452
20
95.8252346003
11
25.3657778189
21
94.808369278
0
LINE
8
0
10
25.3657778189
20
94.808369278
11
25.5620372141
21
93.9344214865
0
LINE
8
0
10
25.5620372141
20
93.9344214865
11
25.7681723203
21
93.2027230201
0
LINE
8
0
10
25.7681723203
20
93.2027230201
11
25.9695840406
21
92.6114381158
0
LINE
8
0
10
25.9695840406
20
92.6114381158
11
26.2042536445
21
92.0273112146
0
LINE
8
0
10
26.2042536445
20
92.0273112146
11
26.271258452
21
91.725811772
0
LINE
8
0
10
26.271258452
20
91.725811772
11
26.2375078859
21
91.5367665513
0
LINE
8
0
10
26.2375078859
20
91.5367665513
11
24.3634809652
21
90.2432191657
0
LINE
8
0
10
24.3634809652
20
90.2432191657
11
24.1747524975
21
90.2786981974
0
LINE
8
0
10
24.1747524975
20
90.2786981974
11
23.9166058538
21
90.4482619565
0
LINE
8
0
10
23.9166058538
20
90.4482619565
11
23.4536527018
21
90.8748161016
0
LINE
8
0
10
23.4536527018
20
90.8748161016
11
22.9722132925
21
91.2728118483
0
LINE
8
0
10
22.9722132925
20
91.2728118483
11
22.3611598577
21
91.7250153728
0
LINE
8
0
10
22.3611598577
20
91.7250153728
11
21.613599018
21
92.218427253
0
LINE
8
0
10
21.613599018
20
92.218427253
11
20.7236712384
21
92.7394815312
0
LINE
8
0
10
20.7236712384
20
92.7394815312
11
19.8654405956
21
93.1819187584
0
LINE
8
0
10
19.8654405956
20
93.1819187584
11
19.0181107242
21
92.5970491774
0
LINE
8
0
10
19.0181107242
20
92.5970491774
11
18.2755732307
21
91.8838322339
0
LINE
8
0
10
18.2755732307
20
91.8838322339
11
18.5374009103
21
90.9544470596
0
LINE
8
0
10
18.5374009103
20
90.9544470596
11
18.8699165997
21
89.9782798966
0
LINE
8
0
10
18.8699165997
20
89.9782798966
11
19.203825572
21
89.1471317204
0
LINE
8
0
10
19.203825572
20
89.1471317204
11
19.5246639709
21
88.4579749534
0
LINE
8
0
10
19.5246639709
20
88.4579749534
11
19.8183162312
21
87.9066557453
0
LINE
8
0
10
19.8183162312
20
87.9066557453
11
20.1436474698
21
87.3677367858
0
LINE
8
0
10
20.1436474698
20
87.3677367858
11
20.2581484944
21
87.0808900088
0
LINE
8
0
10
20.2581484944
20
87.0808900088
11
20.2551599753
21
86.8888789025
0
LINE
8
0
10
20.2551599753
20
86.8888789025
11
18.6129008039
21
85.3114675571
0
LINE
8
0
10
18.6129008039
20
85.3114675571
11
18.4209250834
21
85.3162129694
0
LINE
8
0
10
18.4209250834
20
85.3162129694
11
18.1389214311
21
85.4421712886
0
LINE
8
0
10
18.1389214311
20
85.4421712886
11
17.6135393041
21
85.7889387614
0
LINE
8
0
10
17.6135393041
20
85.7889387614
11
17.0744914012
21
86.1045522555
0
LINE
8
0
10
17.0744914012
20
86.1045522555
11
16.3988124013
21
86.4528799989
0
LINE
8
0
10
16.3988124013
20
86.4528799989
11
15.5817834465
21
86.8199851331
0
LINE
8
0
10
15.5817834465
20
86.8199851331
11
14.6197970137
21
87.1915374402
0
LINE
8
0
10
14.6197970137
20
87.1915374402
11
13.7017083101
21
87.4905753449
0
LINE
8
0
10
13.7017083101
20
87.4905753449
11
12.9591708166
21
86.7773584014
0
LINE
8
0
10
12.9591708166
20
86.7773584014
11
12.340657032
21
85.9542660395
0
LINE
8
0
10
12.340657032
20
85.9542660395
11
12.7481779781
21
85.0789162725
0
LINE
8
0
10
12.7481779781
20
85.0789162725
11
13.2329759017
21
84.1687294856
0
LINE
8
0
10
13.2329759017
20
84.1687294856
11
13.695886384
21
83.4019072259
0
LINE
8
0
10
13.695886384
20
83.4019072259
11
14.1231185296
21
82.7731409565
0
LINE
8
0
10
14.1231185296
20
82.7731409565
11
14.5014058906
21
82.2760663226
0
LINE
8
0
10
14.5014058906
20
82.2760663226
11
14.9089728556
21
81.7963130228
0
LINE
8
0
10
14.9089728556
20
81.7963130228
11
15.0680045809
21
81.5315480922
0
LINE
8
0
10
15.0680045809
20
81.5315480922
11
15.0958555099
21
81.3415440871
0
LINE
8
0
10
15.0958555099
20
81.3415440871
11
13.7278977378
21
79.5211229072
0
LINE
8
0
10
13.7278977378
20
79.5211229072
11
13.5376468348
21
79.4950117965
0
LINE
8
0
10
13.5376468348
20
79.4950117965
11
13.2390899204
21
79.5741024214
0
LINE
8
0
10
13.2390899204
20
79.5741024214
11
12.6648859395
21
79.8321021266
0
LINE
8
0
10
12.6648859395
20
79.8321021266
11
12.0821906005
21
80.0571591442
0
LINE
8
0
10
12.0821906005
20
80.0571591442
11
11.3593857668
21
80.2925896011
0
LINE
8
0
10
11.3593857668
20
80.2925896011
11
10.4940493175
21
80.5238801591
0
LINE
8
0
10
10.4940493175
20
80.5238801591
11
9.48491917488
21
80.7363074856
0
LINE
8
0
10
9.48491917488
20
80.7363074856
11
8.53075042554
21
80.884201143
0
LINE
8
0
10
8.53075042554
20
80.884201143
11
7.912236641
21
80.0611087811
0
LINE
8
0
10
7.912236641
20
80.0611087811
11
7.43376574755
21
79.1494586608
0
LINE
8
0
10
7.43376574755
20
79.1494586608
11
7.97642538176
21
78.3508154004
0
LINE
8
0
10
7.97642538176
20
78.3508154004
11
8.60094952785
21
77.5301823491
0
LINE
8
0
10
8.60094952785
20
77.5301823491
11
9.18087238187
21
76.8475462997
0
LINE
8
0
10
9.18087238187
20
76.8475462997
11
9.70343318601
21
76.2954552441
0
LINE
8
0
10
9.70343318601
20
76.2954552441
11
10.1565582037
21
75.8654991562
0
LINE
8
0
10
10.1565582037
20
75.8654991562
11
10.6358051249
21
75.4573368745
0
LINE
8
0
10
10.6358051249
20
75.4573368745
11
10.8352487128
21
75.221511063
0
LINE
8
0
10
10.8352487128
20
75.221511063
11
10.8932177653
21
75.0384351631
0
LINE
8
0
10
10.8932177653
20
75.0384351631
11
9.83499078035
21
73.022152101
0
LINE
8
0
10
9.83499078035
20
73.022152101
11
9.65139209331
21
72.9658607312
0
LINE
8
0
10
9.65139209331
20
72.9658607312
11
9.34401438405
21
72.9960352563
0
LINE
8
0
10
9.34401438405
20
72.9960352563
11
8.73586013067
21
73.158585137
0
LINE
8
0
10
8.73586013067
20
73.158585137
11
8.12460885886
21
73.2872568197
0
LINE
8
0
10
8.12460885886
20
73.2872568197
11
7.37339845674
21
73.4036924648
0
LINE
8
0
10
7.37339845674
20
73.4036924648
11
6.4821662726
21
73.4931781426
0
LINE
8
0
10
6.4821662726
20
73.4931781426
11
5.45202836073
21
73.5409787322
0
LINE
8
0
10
5.45202836073
20
73.5409787322
11
4.48649203508
21
73.5338977744
0
LINE
8
0
10
4.48649203508
20
73.5338977744
11
4.00802114163
21
72.6222476541
0
LINE
8
0
10
4.00802114163
20
72.6222476541
11
3.68198528407
21
71.6456510345
0
LINE
8
0
10
3.68198528407
20
71.6456510345
11
4.34572900691
21
70.9443987215
0
LINE
8
0
10
4.34572900691
20
70.9443987215
11
5.09380452819
21
70.2345733709
0
LINE
8
0
10
5.09380452819
20
70.2345733709
11
5.77572005661
21
69.6538034469
0
LINE
8
0
10
5.77572005661
20
69.6538034469
11
6.38007546896
21
69.1926864734
0
LINE
8
0
10
6.38007546896
20
69.1926864734
11
6.8963024435
21
68.8409845684
0
LINE
8
0
10
6.8963024435
20
68.8409845684
11
7.4348170773
21
68.5149844935
0
LINE
8
0
10
7.4348170773
20
68.5149844935
11
7.66950704358
21
68.3142055657
0
LINE
8
0
10
7.66950704358
20
68.3142055657
11
7.75609285173
21
68.1427993406
0
LINE
8
0
10
7.75609285173
20
68.1427993406
11
7.03500417683
21
65.9828750685
0
LINE
8
0
10
7.03500417683
20
65.9828750685
11
6.86281281529
21
65.8978613566
0
LINE
8
0
10
6.86281281529
20
65.8978613566
11
6.55457523242
21
65.8783382775
0
LINE
8
0
10
6.55457523242
20
65.8783382775
11
5.92822158232
21
65.9412283772
0
LINE
8
0
10
5.92822158232
20
65.9412283772
11
5.30424546452
21
65.9701821959
0
LINE
8
0
10
5.30424546452
20
65.9701821959
11
4.54408544885
21
65.9646074072
0
LINE
8
0
10
4.54408544885
20
65.9646074072
11
3.65003997522
21
65.9099705728
0
LINE
8
0
10
3.65003997522
20
65.9099705728
11
2.62557432495
21
65.7919064154
0
LINE
8
0
10
2.62557432495
20
65.7919064154
11
1.67367730664
21
65.6300342354
0
LINE
8
0
10
1.67367730664
20
65.6300342354
11
1.34764144909
21
64.6534376159
0
LINE
8
0
10
1.34764144909
20
64.6534376159
11
1.18248478489
21
63.6371878365
0
LINE
8
0
10
1.18248478489
20
63.6371878365
11
1.95012198258
21
63.0514885375
0
LINE
8
0
10
1.95012198258
20
63.0514885375
11
2.802374116
21
62.4708549914
0
LINE
8
0
10
2.802374116
20
62.4708549914
11
3.56862106482
21
62.0069928286
0
LINE
8
0
10
3.56862106482
20
62.0069928286
11
4.23911859766
21
61.6487926246
0
LINE
8
0
10
4.23911859766
20
61.6487926246
11
4.80507752151
21
61.3844537971
0
LINE
8
0
10
4.80507752151
20
61.3844537971
11
5.38891262181
21
61.1490591598
0
LINE
8
0
10
5.38891262181
20
61.1490591598
11
5.65277061964
21
60.9885271845
0
LINE
8
0
10
5.65277061964
20
60.9885271845
11
5.76573065643
21
60.8332299653
0
LINE
8
0
10
5.76573065643
20
60.8332299653
11
5.40045610954
21
58.5856053873
0
LINE
8
0
10
5.40045610954
20
58.5856053873
11
5.24413173932
21
58.4740711438
0
LINE
8
0
10
5.24413173932
20
58.4740711438
11
4.94301747432
21
58.405356098
0
LINE
8
0
10
4.94301747432
20
58.405356098
11
4.31468665804
21
58.3669575961
0
LINE
8
0
10
4.31468665804
20
58.3669575961
11
3.69414634793
21
58.2954436622
0
LINE
8
0
10
3.69414634793
20
58.2954436622
11
2.94472446382
21
58.1680028238
0
LINE
8
0
10
2.94472446382
20
58.1680028238
11
2.07102100886
21
57.9706585424
0
LINE
8
0
10
2.07102100886
20
57.9706585424
11
1.07876074239
21
57.6897874378
0
LINE
8
0
10
1.07876074239
20
57.6897874378
11
0.165156664201
21
57.37731644
0
LINE
8
0
10
0.165156664201
20
57.37731644
11
3.48165940522e-13
21
56.3610666607
0
LINE
8
0
10
3.48165940522e-13
20
56.3610666607
11
2.98427949019e-13
21
55.331484057
0
LINE
8
0
10
2.98427949019e-13
20
55.331484057
11
0.851649272335
21
54.8765070762
0
LINE
8
0
10
0.851649272335
20
54.8765070762
11
1.78600513531
21
54.4401034383
0
LINE
8
0
10
1.78600513531
20
54.4401034383
11
2.61673811106
21
54.1051628233
0
LINE
8
0
10
2.61673811106
20
54.1051628233
11
3.33601223047
21
53.8591565859
0
LINE
8
0
10
3.33601223047
20
53.8591565859
11
3.9370450648
21
53.6890270727
0
LINE
8
0
10
3.9370450648
20
53.6890270727
11
4.55107960917
21
53.5503344703
0
LINE
8
0
10
4.55107960917
20
53.5503344703
11
4.837271855
21
53.4342071414
0
LINE
8
0
10
4.837271855
20
53.4342071414
11
4.97368051483
21
53.2990410446
0
LINE
8
0
10
4.97368051483
20
53.2990410446
11
4.97368051483
21
51.0219284566
0
LINE
8
0
10
4.97368051483
20
51.0219284566
11
4.837271855
21
50.8867623598
0
LINE
8
0
10
4.837271855
20
50.8867623598
11
4.55107960917
21
50.7706350308
0
LINE
8
0
10
4.55107960917
20
50.7706350308
11
3.9370450648
21
50.6319424285
0
LINE
8
0
10
3.9370450648
20
50.6319424285
11
3.33601223047
21
50.4618129153
0
LINE
8
0
10
3.33601223047
20
50.4618129153
11
2.61673811106
21
50.2158066779
0
LINE
8
0
10
2.61673811106
20
50.2158066779
11
1.78600513531
21
49.8808660628
0
LINE
8
0
10
1.78600513531
20
49.8808660628
11
0.85164927234
21
49.4444624249
0
LINE
8
0
10
0.85164927234
20
49.4444624249
11
4.26325641456e-14
21
48.9894854442
0
LINE
8
0
10
4.26325641456e-14
20
48.9894854442
11
0.0
21
47.9599028405
0
LINE
8
0
10
0.0
20
47.9599028405
11
0.165156664201
21
46.9436530612
0
LINE
8
0
10
0.165156664201
20
46.9436530612
11
1.07876074238
21
46.6311820634
0
LINE
8
0
10
1.07876074238
20
46.6311820634
11
2.07102100886
21
46.3503109588
0
LINE
8
0
10
2.07102100886
20
46.3503109588
11
2.94472446382
21
46.1529666774
0
LINE
8
0
10
2.94472446382
20
46.1529666774
11
3.69414634793
21
46.025525839
0
LINE
8
0
10
3.69414634793
20
46.025525839
11
4.31468665804
21
45.9540119051
0
LINE
8
0
10
4.31468665804
20
45.9540119051
11
4.94301747432
21
45.9156134032
0
LINE
8
0
10
4.94301747432
20
45.9156134032
11
5.24413173932
21
45.8468983574
0
LINE
8
0
10
5.24413173932
20
45.8468983574
11
5.40045610954
21
45.7353641139
0
LINE
8
0
10
5.40045610954
20
45.7353641139
11
5.76573065643
21
43.4877395359
0
LINE
8
0
10
5.76573065643
20
43.4877395359
11
5.65277061964
21
43.3324423167
0
LINE
8
0
10
5.65277061964
20
43.3324423167
11
5.38891262181
21
43.1719103414
0
LINE
8
0
10
5.38891262181
20
43.1719103414
11
4.80507752151
21
42.936515704
0
LINE
8
0
10
4.80507752151
20
42.936515704
11
4.23911859766
21
42.6721768766
0
LINE
8
0
10
4.23911859766
20
42.6721768766
11
3.56862106482
21
42.3139766725
0
LINE
8
0
10
3.56862106482
20
42.3139766725
11
2.802374116
21
41.8501145098
0
LINE
8
0
10
2.802374116
20
41.8501145098
11
1.95012198258
21
41.2694809637
0
LINE
8
0
10
1.95012198258
20
41.2694809637
11
1.18248478489
21
40.6837816647
0
LINE
8
0
10
1.18248478489
20
40.6837816647
11
1.34764144909
21
39.6675318853
0
LINE
8
0
10
1.34764144909
20
39.6675318853
11
1.67367730664
21
38.6909352658
0
LINE
8
0
10
1.67367730664
20
38.6909352658
11
2.62557432494
21
38.5290630857
0
LINE
8
0
10
2.62557432494
20
38.5290630857
11
3.65003997522
21
38.4109989284
0
LINE
8
0
10
3.65003997522
20
38.4109989284
11
4.54408544885
21
38.356362094
0
LINE
8
0
10
4.54408544885
20
38.356362094
11
5.30424546452
21
38.3507873053
0
LINE
8
0
10
5.30424546452
20
38.3507873053
11
5.92822158232
21
38.379741124
0
LINE
8
0
10
5.92822158232
20
38.379741124
11
6.55457523242
21
38.4426312237
0
LINE
8
0
10
6.55457523242
20
38.4426312237
11
6.86281281529
21
38.4231081446
0
LINE
8
0
10
6.86281281529
20
38.4231081446
11
7.03500417683
21
38.3380944327
0
LINE
8
0
10
7.03500417683
20
38.3380944327
11
7.75609285172
21
36.1781701606
0
LINE
8
0
10
7.75609285172
20
36.1781701606
11
7.66950704358
21
36.0067639355
0
LINE
8
0
10
7.66950704358
20
36.0067639355
11
7.4348170773
21
35.8059850077
0
LINE
8
0
10
7.4348170773
20
35.8059850077
11
6.8963024435
21
35.4799849328
0
LINE
8
0
10
6.8963024435
20
35.4799849328
11
6.38007546896
21
35.1282830278
0
LINE
8
0
10
6.38007546896
20
35.1282830278
11
5.77572005661
21
34.6671660543
0
LINE
8
0
10
5.77572005661
20
34.6671660543
11
5.09380452819
21
34.0863961303
0
LINE
8
0
10
5.09380452819
20
34.0863961303
11
4.34572900691
21
33.3765707797
0
LINE
8
0
10
4.34572900691
20
33.3765707797
11
3.68198528407
21
32.6753184667
0
LINE
8
0
10
3.68198528407
20
32.6753184667
11
4.00802114163
21
31.6987218471
0
LINE
8
0
10
4.00802114163
20
31.6987218471
11
4.48649203508
21
30.7870717268
0
LINE
8
0
10
4.48649203508
20
30.7870717268
11
5.45202836073
21
30.7799907689
0
LINE
8
0
10
5.45202836073
20
30.7799907689
11
6.4821662726
21
30.8277913586
0
LINE
8
0
10
6.4821662726
20
30.8277913586
11
7.37339845674
21
30.9172770364
0
LINE
8
0
10
7.37339845674
20
30.9172770364
11
8.12460885886
21
31.0337126815
0
LINE
8
0
10
8.12460885886
20
31.0337126815
11
8.73586013067
21
31.1623843642
0
LINE
8
0
10
8.73586013067
20
31.1623843642
11
9.34401438405
21
31.3249342449
0
LINE
8
0
10
9.34401438405
20
31.3249342449
11
9.65139209331
21
31.35510877
0
LINE
8
0
10
9.65139209331
20
31.35510877
11
9.83499078035
21
31.2988174002
0
LINE
8
0
10
9.83499078035
20
31.2988174002
11
10.8932177653
21
29.2825343381
0
LINE
8
0
10
10.8932177653
20
29.2825343381
11
10.8352487128
21
29.0994584382
0
LINE
8
0
10
10.8352487128
20
29.0994584382
11
10.6358051249
21
28.8636326267
0
LINE
8
0
10
10.6358051249
20
28.8636326267
11
10.1565582038
21
28.455470345
0
LINE
8
0
10
10.1565582038
20
28.455470345
11
9.70343318601
21
28.0255142571
0
LINE
8
0
10
9.70343318601
20
28.0255142571
11
9.18087238187
21
27.4734232015
0
LINE
8
0
10
9.18087238187
20
27.4734232015
11
8.60094952785
21
26.7907871521
0
LINE
8
0
10
8.60094952785
20
26.7907871521
11
7.97642538177
21
25.9701541008
0
LINE
8
0
10
7.97642538177
20
25.9701541008
11
7.43376574755
21
25.1715108403
0
LINE
8
0
10
7.43376574755
20
25.1715108403
11
7.912236641
21
24.25986072
0
LINE
8
0
10
7.912236641
20
24.25986072
11
8.53075042554
21
23.4367683582
0
LINE
8
0
10
8.53075042554
20
23.4367683582
11
9.48491917488
21
23.5846620156
0
LINE
8
0
10
9.48491917488
20
23.5846620156
11
10.4940493175
21
23.7970893421
0
LINE
8
0
10
10.4940493175
20
23.7970893421
11
11.3593857668
21
24.0283799001
0
LINE
8
0
10
11.3593857668
20
24.0283799001
11
12.0821906005
21
24.2638103569
0
LINE
8
0
10
12.0821906005
20
24.2638103569
11
12.6648859395
21
24.4888673745
0
LINE
8
0
10
12.6648859395
20
24.4888673745
11
13.2390899204
21
24.7468670797
0
LINE
8
0
10
13.2390899204
20
24.7468670797
11
13.5376468348
21
24.8259577047
0
LINE
8
0
10
13.5376468348
20
24.8259577047
11
13.7278977378
21
24.799846594
0
LINE
8
0
10
13.7278977378
20
24.799846594
11
15.0958555099
21
22.979425414
0
LINE
8
0
10
15.0958555099
20
22.979425414
11
15.0680045809
21
22.789421409
0
LINE
8
0
10
15.0680045809
20
22.789421409
11
14.9089728556
21
22.5246564784
0
LINE
8
0
10
14.9089728556
20
22.5246564784
11
14.5014058906
21
22.0449031786
0
LINE
8
0
10
14.5014058906
20
22.0449031786
11
14.1231185296
21
21.5478285446
0
LINE
8
0
10
14.1231185296
20
21.5478285446
11
13.695886384
21
20.9190622753
0
LINE
8
0
10
13.695886384
20
20.9190622753
11
13.2329759017
21
20.1522400156
0
LINE
8
0
10
13.2329759017
20
20.1522400156
11
12.7481779781
21
19.2420532287
0
LINE
8
0
10
12.7481779781
20
19.2420532287
11
12.340657032
21
18.3667034616
0
LINE
8
0
10
12.340657032
20
18.3667034616
11
12.9591708166
21
17.5436110998
0
LINE
8
0
10
12.9591708166
20
17.5436110998
11
13.7017083101
21
16.8303941563
0
LINE
8
0
10
13.7017083101
20
16.8303941563
11
14.6197970137
21
17.1294320609
0
LINE
8
0
10
14.6197970137
20
17.1294320609
11
15.5817834465
21
17.5009843681
0
LINE
8
0
10
15.5817834465
20
17.5009843681
11
16.3988124013
21
17.8680895023
0
LINE
8
0
10
16.3988124013
20
17.8680895023
11
17.0744914012
21
18.2164172457
0
LINE
8
0
10
17.0744914012
20
18.2164172457
11
17.6135393041
21
18.5320307397
0
LINE
8
0
10
17.6135393041
20
18.5320307397
11
18.1389214311
21
18.8787982126
0
LINE
8
0
10
18.1389214311
20
18.8787982126
11
18.4209250834
21
19.0047565318
0
LINE
8
0
10
18.4209250834
20
19.0047565318
11
18.6129008039
21
19.0095019441
0
LINE
8
0
10
18.6129008039
20
19.0095019441
11
20.2551599753
21
17.4320905987
0
LINE
8
0
10
20.2551599753
20
17.4320905987
11
20.2581484944
21
17.2400794924
0
LINE
8
0
10
20.2581484944
20
17.2400794924
11
20.1436474698
21
16.9532327154
0
LINE
8
0
10
20.1436474698
20
16.9532327154
11
19.8183162312
21
16.4143137559
0
LINE
8
0
10
19.8183162312
20
16.4143137559
11
19.5246639709
21
15.8629945478
0
LINE
8
0
10
19.5246639709
20
15.8629945478
11
19.203825572
21
15.1738377808
0
LINE
8
0
10
19.203825572
20
15.1738377808
11
18.8699165997
21
14.3426896046
0
LINE
8
0
10
18.8699165997
20
14.3426896046
11
18.5374009103
21
13.3665224416
0
LINE
8
0
10
18.5374009103
20
13.3665224416
11
18.2755732307
21
12.4371372673
0
LINE
8
0
10
18.2755732307
20
12.4371372673
11
19.0181107242
21
11.7239203238
0
LINE
8
0
10
19.0181107242
20
11.7239203238
11
19.8654405956
21
11.1390507428
0
LINE
8
0
10
19.8654405956
20
11.1390507428
11
20.7236712384
21
11.58148797
0
LINE
8
0
10
20.7236712384
20
11.58148797
11
21.613599018
21
12.1025422482
0
LINE
8
0
10
21.613599018
20
12.1025422482
11
22.3611598577
21
12.5959541284
0
LINE
8
0
10
22.3611598577
20
12.5959541284
11
22.9722132925
21
13.0481576529
0
LINE
8
0
10
22.9722132925
20
13.0481576529
11
23.4536527018
21
13.4461533996
0
LINE
8
0
10
23.4536527018
20
13.4461533996
11
23.9166058538
21
13.8727075447
0
LINE
8
0
10
23.9166058538
20
13.8727075447
11
24.1747524975
21
14.0422713038
0
LINE
8
0
10
24.1747524975
20
14.0422713038
11
24.3634809652
21
14.0777503355
0
LINE
8
0
10
24.3634809652
20
14.0777503355
11
26.2375078859
21
12.7842029499
0
LINE
8
0
10
26.2375078859
20
12.7842029499
11
26.271258452
21
12.5951577292
0
LINE
8
0
10
26.271258452
20
12.5951577292
11
26.2042536445
21
12.2936582866
0
LINE
8
0
10
26.2042536445
20
12.2936582866
11
25.9695840406
21
11.7095313854
0
LINE
8
0
10
25.9695840406
20
11.7095313854
11
25.7681723203
21
11.1182464811
0
LINE
8
0
10
25.7681723203
20
11.1182464811
11
25.5620372141
21
10.3865480147
0
LINE
8
0
10
25.5620372141
20
10.3865480147
11
25.3657778189
21
9.51260022315
0
LINE
8
0
10
25.3657778189
20
9.51260022315
11
25.1941563452
21
8.49573490088
0
LINE
8
0
10
25.1941563452
20
8.49573490088
11
25.0848031315
21
7.53638490699
0
LINE
8
0
10
25.0848031315
20
7.53638490699
11
25.932133003
21
6.951515326
0
LINE
8
0
10
25.932133003
20
6.951515326
11
26.8623098537
21
6.51014092247
0
LINE
8
0
10
26.8623098537
20
6.51014092247
11
27.6384547127
21
7.08451858042
0
LINE
8
0
10
27.6384547127
20
7.08451858042
11
28.4332751772
21
7.74157979757
0
LINE
8
0
10
28.4332751772
20
7.74157979757
11
29.0920064686
21
8.34851931539
0
LINE
8
0
10
29.0920064686
20
8.34851931539
11
29.6226083753
21
8.89288678714
0
LINE
8
0
10
29.6226083753
20
8.89288678714
11
30.0339702632
21
9.36295690574
0
LINE
8
0
10
30.0339702632
20
9.36295690574
11
30.4225041967
21
9.85825019476
0
LINE
8
0
10
30.4225041967
20
9.85825019476
11
30.6501079695
21
10.0670277815
0
LINE
8
0
10
30.6501079695
20
10.0670277815
11
30.8307012161
21
10.1323215443
0
LINE
8
0
10
30.8307012161
20
10.1323215443
11
32.8879595734
21
9.15614031635
0
LINE
8
0
10
32.8879595734
20
9.15614031635
11
32.9515980645
21
8.9749571531
0
LINE
8
0
10
32.9515980645
20
8.9749571531
11
32.9338248634
21
8.66661372211
0
LINE
8
0
10
32.9338248634
20
8.66661372211
11
32.7958947137
21
8.05240745918
0
LINE
8
0
10
32.7958947137
20
8.05240745918
11
32.6919399911
21
7.436470827
0
LINE
8
0
10
32.6919399911
20
7.436470827
11
32.6058469686
21
6.68118126717
0
LINE
8
0
10
32.6058469686
20
6.68118126717
11
32.5523201656
21
5.78706864902
0
LINE
8
0
10
32.5523201656
20
5.78706864902
11
32.5460378137
21
4.7558414452
0
LINE
8
0
10
32.5460378137
20
4.7558414452
11
32.5919912568
21
3.7913732927
0
LINE
8
0
10
32.5919912568
20
3.7913732927
11
33.5221681075
21
3.34999888916
0
LINE
8
0
10
33.5221681075
20
3.34999888916
11
34.5111008458
21
3.06355102828
0
LINE
8
0
10
34.5111008458
20
3.06355102828
11
35.1850581769
21
3.75499303738
0
LINE
8
0
10
35.1850581769
20
3.75499303738
11
35.8641858937
21
4.5310436531
0
LINE
8
0
10
35.8641858937
20
4.5310436531
11
36.4170268424
21
5.23579139376
0
LINE
8
0
10
36.4170268424
20
5.23579139376
11
36.8534349104
21
5.85822398121
0
LINE
8
0
10
36.8534349104
20
5.85822398121
11
37.18406522
21
6.38819390256
0
LINE
8
0
10
37.18406522
20
6.38819390256
11
37.4881171102
21
6.9393984995
0
LINE
8
0
10
37.4881171102
20
6.9393984995
11
37.6792831938
21
7.18198268407
0
LINE
8
0
10
37.6792831938
20
7.18198268407
11
37.8470639492
21
7.27540010377
0
LINE
8
0
10
37.8470639492
20
7.27540010377
11
40.0342718322
21
6.64186761449
0
LINE
8
0
10
40.0342718322
20
6.64186761449
11
40.1261500449
21
6.47323905749
0
LINE
8
0
10
40.1261500449
20
6.47323905749
11
40.1580687668
21
6.16603757099
0
LINE
8
0
10
40.1580687668
20
6.16603757099
11
40.1204503896
21
5.53765956587
0
LINE
8
0
10
40.1204503896
20
5.53765956587
11
40.1166450375
21
4.9130236411
0
LINE
8
0
10
40.1166450375
20
4.9130236411
11
40.1528238627
21
4.1537045907
0
LINE
8
0
10
40.1528238627
20
4.1537045907
11
40.2434159681
21
3.2625841931
0
LINE
8
0
10
40.2434159681
20
3.2625841931
11
40.4026354476
21
2.24370335062
0
LINE
8
0
10
40.4026354476
20
2.24370335062
11
40.6027053774
21
1.29909625805
0
LINE
8
0
10
40.6027053774
20
1.29909625805
11
41.5916381156
21
1.01264839717
0
LINE
8
0
10
41.5916381156
20
1.01264839717
11
42.6137139029
21
0.888545928073
0
LINE
8
0
10
42.6137139029
20
0.888545928073
11
43.1680285652
21
1.67914430348
0
LINE
8
0
10
43.1680285652
20
1.67914430348
11
43.7138744832
21
2.55408501446
0
LINE
8
0
10
43.7138744832
20
2.55408501446
11
44.1465067991
21
3.33838838167
0
LINE
8
0
10
44.1465067991
20
3.33838838167
11
44.4774182886
21
4.02276540774
0
LINE
8
0
10
44.4774182886
20
4.02276540774
11
44.7187538686
21
4.59890918927
0
LINE
8
0
10
44.7187538686
20
4.59890918927
11
44.9304489313
21
5.1917491846
0
LINE
8
0
10
44.9304489313
20
5.1917491846
11
45.0802262246
21
5.46185716402
0
LINE
8
0
10
45.0802262246
20
5.46185716402
11
45.2308490553
21
5.58097877854
0
LINE
8
0
10
45.2308490553
20
5.58097877854
11
47.4913589287
21
5.30650318662
0
LINE
8
0
10
47.4913589287
20
5.30650318662
11
47.6090972655
21
5.15479662692
0
LINE
8
0
10
47.6090972655
20
5.15479662692
11
47.6898812322
21
4.85669344206
0
LINE
8
0
10
47.6898812322
20
4.85669344206
11
47.7535489239
21
4.230418355
0
LINE
8
0
10
47.7535489239
20
4.230418355
11
47.8499914988
21
3.61326088
0
LINE
8
0
10
47.8499914988
20
3.61326088
11
48.0075051592
21
2.86957830357
0
LINE
8
0
10
48.0075051592
20
2.86957830357
11
48.2398698849
21
2.00452967672
0
LINE
8
0
10
48.2398698849
20
2.00452967672
11
48.5604674951
21
1.02438367422
0
LINE
8
0
10
48.5604674951
20
1.02438367422
11
48.9094722054
21
0.124102469093
0
LINE
8
0
10
48.9094722054
20
0.124102469093
11
49.9315479926
21
0.0
0
LINE
8
0
10
49.9315479926
20
0.0
11
50.9602956029
21
0.0414571114563
0
LINE
8
0
10
50.9602956029
20
0.0414571114563
11
51.380611138
21
0.910735770534
0
LINE
8
0
10
51.380611138
20
0.910735770534
11
51.7790381345
21
1.86190607194
0
LINE
8
0
10
51.7790381345
20
1.86190607194
11
52.0802568678
21
2.70545202047
0
LINE
8
0
10
52.0802568678
20
2.70545202047
11
52.2971013451
21
3.43404847968
0
LINE
8
0
10
52.2971013451
20
3.43404847968
11
52.4428917308
21
4.04144430007
0
LINE
8
0
10
52.4428917308
20
4.04144430007
11
52.5567471751
21
4.66056544932
0
LINE
8
0
10
52.5567471751
20
4.66056544932
11
52.6612565247
21
4.9512015688
0
LINE
8
0
10
52.6612565247
20
4.9512015688
11
52.7908203786
21
5.09294219091
0
LINE
8
0
10
52.7908203786
20
5.09294219091
11
55.0660862241
21
5.18463227
0
LINE
8
0
10
55.0660862241
20
5.18463227
11
55.2066353239
21
5.0537768278
0
LINE
8
0
10
55.2066353239
20
5.0537768278
11
55.3341922732
21
4.77249266048
0
LINE
8
0
10
55.3341922732
20
4.77249266048
11
55.4974970738
21
4.16454068727
0
LINE
8
0
10
55.4974970738
20
4.16454068727
11
55.6916897638
21
3.57084571645
0
LINE
8
0
10
55.6916897638
20
3.57084571645
11
55.9664587383
21
2.86206060209
0
LINE
8
0
10
55.9664587383
20
2.86206060209
11
56.3345779601
21
2.04548805105
0
LINE
8
0
10
56.3345779601
20
2.04548805105
11
56.8082503911
21
1.12946215514
0
LINE
8
0
10
56.8082503911
20
1.12946215514
11
57.2971508433
21
0.296823647776
0
LINE
8
0
10
57.2971508433
20
0.296823647776
11
58.3258984536
21
0.338280759233
0
LINE
8
0
10
58.3258984536
20
0.338280759233
11
59.3346738642
21
0.544223733828
0
LINE
8
0
10
59.3346738642
20
0.544223733828
11
59.6101043203
21
1.46966881591
0
LINE
8
0
10
59.6101043203
20
1.46966881591
11
59.8507933455
21
2.47243389658
0
LINE
8
0
10
59.8507933455
20
2.47243389658
11
60.0127970893
21
3.35337502945
0
LINE
8
0
10
60.0127970893
20
3.35337502945
11
60.1099583963
21
4.10732065622
0
LINE
8
0
10
60.1099583963
20
4.10732065622
11
60.1564276933
21
4.73023728277
0
LINE
8
0
10
60.1564276933
20
4.73023728277
11
60.1694947228
21
5.35960467339
0
LINE
8
0
10
60.1694947228
20
5.35960467339
11
60.2260293917
21
5.66324161009
0
LINE
8
0
10
60.2260293917
20
5.66324161009
11
60.331178633
21
5.82393023213
0
LINE
8
0
10
60.331178633
20
5.82393023213
11
62.5622722603
21
6.27941125734
0
LINE
8
0
10
62.5622722603
20
6.27941125734
11
62.7219919752
21
6.17279601987
0
LINE
8
0
10
62.7219919752
20
6.17279601987
11
62.8930182492
21
5.91561598226
0
LINE
8
0
10
62.8930182492
20
5.91561598226
11
63.1517306502
21
5.34173275967
0
LINE
8
0
10
63.1517306502
20
5.34173275967
11
63.4386439665
21
4.78687668093
0
LINE
8
0
10
63.4386439665
20
4.78687668093
11
63.8235518831
21
4.13134619079
0
LINE
8
0
10
63.8235518831
20
4.13134619079
11
64.3178915065
21
3.3843985157
0
LINE
8
0
10
64.3178915065
20
3.3843985157
11
64.9323708911
21
2.55621731592
0
LINE
8
0
10
64.9323708911
20
2.55621731592
11
65.5485048203
21
1.8127864063
0
LINE
8
0
10
65.5485048203
20
1.8127864063
11
66.5572802309
21
2.01872938089
0
LINE
8
0
10
66.5572802309
20
2.01872938089
11
67.5199566885
21
2.38382440376
0
LINE
8
0
10
67.5199566885
20
2.38382440376
11
67.6433685616
21
3.34146736734
0
LINE
8
0
10
67.6433685616
20
3.34146736734
11
67.7200858961
21
4.3698561384
0
LINE
8
0
10
67.7200858961
20
4.3698561384
11
67.7386788385
21
5.26537654301
0
LINE
8
0
10
67.7386788385
20
5.26537654301
11
67.7136405484
21
6.02514454163
0
LINE
8
0
10
67.7136405484
20
6.02514454163
11
67.6595852263
21
6.64744876093
0
LINE
8
0
10
67.6595852263
20
6.64744876093
11
67.571525412
21
7.27076210808
0
LINE
8
0
10
67.571525412
20
7.27076210808
11
67.5786211818
21
7.57953582484
0
LINE
8
0
10
67.5786211818
20
7.57953582484
11
67.6566325003
21
7.7550106959
0
LINE
8
0
10
67.6566325003
20
7.7550106959
11
69.7857697565
21
8.56248594795
0
LINE
8
0
10
69.7857697565
20
8.56248594795
11
69.9605234299
21
8.48287219385
0
LINE
8
0
10
69.9605234299
20
8.48287219385
11
70.1705895377
21
8.25645711384
0
LINE
8
0
10
70.1705895377
20
8.25645711384
11
70.5180090239
21
7.73150591588
0
LINE
8
0
10
70.5180090239
20
7.73150591588
11
70.8902120624
21
7.22985921021
0
LINE
8
0
10
70.8902120624
20
7.22985921021
11
71.3752900081
21
6.64456123964
0
LINE
8
0
10
71.3752900081
20
6.64456123964
11
71.9830468965
21
5.98658399294
0
LINE
8
0
10
71.9830468965
20
5.98658399294
11
72.7224185415
21
5.26769694733
0
LINE
8
0
10
72.7224185415
20
5.26769694733
11
73.4498284026
21
4.6327281055
0
LINE
8
0
10
73.4498284026
20
4.6327281055
11
74.4125048602
21
4.99782312837
0
LINE
8
0
10
74.4125048602
20
4.99782312837
11
75.3041495503
21
5.5126144302
0
LINE
8
0
10
75.3041495503
20
5.5126144302
11
75.2723465376
21
6.47765282555
0
LINE
8
0
10
75.2723465376
20
6.47765282555
11
75.1831052429
21
7.50503055801
0
LINE
8
0
10
75.1831052429
20
7.50503055801
11
75.0578058363
21
8.39193672628
0
LINE
8
0
10
75.0578058363
20
8.39193672628
11
74.9112164277
21
9.13784950468
0
LINE
8
0
10
74.9112164277
20
9.13784950468
11
74.7580364909
21
9.74342396432
0
LINE
8
0
10
74.7580364909
20
9.74342396432
11
74.5711305357
21
10.3445397797
0
LINE
8
0
10
74.5711305357
20
10.3445397797
11
74.5286036298
21
10.6504531995
0
LINE
8
0
10
74.5286036298
20
10.6504531995
11
74.5774565734
21
10.8361696126
0
LINE
8
0
10
74.5774565734
20
10.8361696126
11
76.5494939219
21
11.9747259066
0
LINE
8
0
10
76.5494939219
20
11.9747259066
11
76.7347555253
21
11.9241755902
0
LINE
8
0
10
76.7347555253
20
11.9241755902
11
76.9784208652
21
11.7343894995
0
LINE
8
0
10
76.9784208652
20
11.7343894995
11
77.4055494544
21
11.2719662864
0
LINE
8
0
10
77.4055494544
20
11.2719662864
11
77.8534023519
21
10.83652134
0
LINE
8
0
10
77.8534023519
20
10.83652134
11
78.4260870627
21
10.336614799
0
LINE
8
0
10
78.4260870627
20
10.336614799
11
79.1315206319
21
9.78464924577
0
LINE
8
0
10
79.1315206319
20
9.78464924577
11
79.9766352001
21
9.1936751512
0
LINE
8
0
10
79.9766352001
20
9.1936751512
11
80.7964814598
21
8.68361373664
0
LINE
8
0
10
80.7964814598
20
8.68361373664
11
81.6881261499
21
9.19840503846
0
LINE
8
0
10
81.6881261499
20
9.19840503846
11
82.4856459433
21
9.84955979494
0
LINE
8
0
10
82.4856459433
20
9.84955979494
11
82.2994517262
21
10.7969996345
0
LINE
8
0
10
82.2994517262
20
10.7969996345
11
82.0465631048
21
11.7967577848
0
LINE
8
0
10
82.0465631048
20
11.7967577848
11
81.7806165382
21
12.6520793128
0
LINE
8
0
10
81.7806165382
20
12.6520793128
11
81.5162725997
21
13.3648181218
0
LINE
8
0
10
81.5162725997
20
13.3648181218
11
81.2679353282
21
13.9379787614
0
LINE
8
0
10
81.2679353282
20
13.9379787614
11
80.9870239981
21
14.5013284612
0
LINE
8
0
10
80.9870239981
20
14.5013284612
11
80.8959758409
21
14.7964585871
0
LINE
8
0
10
80.8959758409
20
14.7964585871
11
80.914405144
21
14.9876065847
0
LINE
8
0
10
80.914405144
20
14.9876065847
11
82.6782678533
21
16.4277559106
0
LINE
8
0
10
82.6782678533
20
16.4277559106
11
82.8692392087
21
16.4075782587
0
LINE
8
0
10
82.8692392087
20
16.4075782587
11
83.1401929763
21
16.2593365173
0
LINE
8
0
10
83.1401929763
20
16.2593365173
11
83.6359682623
21
15.8714178075
0
LINE
8
0
10
83.6359682623
20
15.8714178075
11
84.1478718641
21
15.5134524157
0
LINE
8
0
10
84.1478718641
20
15.5134524157
11
84.7933311068
21
15.1118846211
0
LINE
8
0
10
84.7933311068
20
15.1118846211
11
85.578170998
21
14.6802263792
0
LINE
8
0
10
85.578170998
20
14.6802263792
11
86.5071404659
21
14.2324711543
0
LINE
8
0
10
86.5071404659
20
14.2324711543
11
87.3981895367
21
13.8605274897
0
LINE
8
0
10
87.3981895367
20
13.8605274897
11
88.1957093301
21
14.5116822462
0
LINE
8
0
10
88.1957093301
20
14.5116822462
11
88.8784488831
21
15.2823358911
0
LINE
8
0
10
88.8784488831
20
15.2823358911
11
88.542685794
21
16.1876389808
0
LINE
8
0
10
88.542685794
20
16.1876389808
11
88.1326995284
21
17.1338843379
0
LINE
8
0
10
88.1326995284
20
17.1338843379
11
87.7329936782
21
17.9354688474
0
LINE
8
0
10
87.7329936782
20
17.9354688474
11
87.357741579
21
18.5965741263
0
LINE
8
0
10
87.357741579
20
18.5965741263
11
87.0206787776
21
19.1224763863
0
LINE
8
0
10
87.0206787776
20
19.1224763863
11
86.6530375285
21
19.6334695092
0
LINE
8
0
10
86.6530375285
20
19.6334695092
11
86.5158262196
21
19.9101726259
0
LINE
8
0
10
86.5158262196
20
19.9101726259
11
86.5033545729
21
20.1018015752
0
LINE
8
0
10
86.5033545729
20
20.1018015752
11
88.0133595254
21
21.8062448221
0
LINE
8
0
10
88.0133595254
20
21.8062448221
11
88.2050945748
21
21.8169624252
0
LINE
8
0
10
88.2050945748
20
21.8169624252
11
88.4963192099
21
21.7141044163
0
LINE
8
0
10
88.4963192099
20
21.7141044163
11
89.0479008733
21
21.4107371006
0
LINE
8
0
10
89.0479008733
20
21.4107371006
11
89.6105971449
21
21.139522379
0
LINE
8
0
10
89.6105971449
20
21.139522379
11
90.3121138642
21
20.8466937257
0
LINE
8
0
10
90.3121138642
20
20.8466937257
11
91.1560331364
21
20.5465225169
0
LINE
8
0
10
91.1560331364
20
20.5465225169
11
92.1447976829
21
20.2535827868
0
LINE
8
0
10
92.1447976829
20
20.2535827868
11
93.0839718618
21
20.0293900177
0
LINE
8
0
10
93.0839718618
20
20.0293900177
11
93.7667114149
21
20.8000436627
0
LINE
8
0
10
93.7667114149
20
20.8000436627
11
94.3169881317
21
21.6702366716
0
LINE
8
0
10
94.3169881317
20
21.6702366716
11
93.8403522583
21
22.5099561368
0
LINE
8
0
10
93.8403522583
20
22.5099561368
11
93.2838867773
21
23.378181443
0
LINE
8
0
10
93.2838867773
20
23.378181443
11
92.760773815
21
24.1052683163
0
LINE
8
0
10
92.760773815
20
24.1052683163
11
92.2843323874
21
24.6976177855
0
LINE
8
0
10
92.2843323874
20
24.6976177855
11
91.8672738056
21
25.1626410737
0
LINE
8
0
10
91.8672738056
20
25.1626410737
11
91.4224243528
21
25.6080431662
0
LINE
8
0
10
91.4224243528
20
25.6080431662
11
91.2426035929
21
25.8591528084
0
LINE
8
0
10
91.2426035929
20
25.8591528084
11
91.1995540056
21
26.0462996204
0
LINE
8
0
10
91.1995540056
20
26.0462996204
11
92.4165928661
21
27.9708926034
0
LINE
8
0
10
92.4165928661
20
27.9708926034
11
92.6041257726
21
28.0122278812
0
LINE
8
0
10
92.6041257726
20
28.0122278812
11
92.9080787101
21
27.9574175732
0
LINE
8
0
10
92.9080787101
20
27.9574175732
11
93.5011810755
21
27.7464587057
0
LINE
8
0
10
93.5011810755
20
27.7464587057
11
94.100096479
21
27.5690189732
0
LINE
8
0
10
94.100096479
20
27.5690189732
11
94.8395017604
21
27.3925135696
0
LINE
8
0
10
94.8395017604
20
27.3925135696
11
95.7206433478
21
27.2316036705
0
LINE
8
0
10
95.7206433478
20
27.2316036705
11
96.7435944904
21
27.1010664203
0
LINE
8
0
10
96.7435944904
20
27.1010664203
11
97.7065696596
21
27.0304310217
0
LINE
8
0
10
97.7065696596
20
27.0304310217
11
98.2568463764
21
27.9006240306
0
LINE
8
0
10
98.2568463764
20
27.9006240306
11
98.6604083792
21
28.8478188615
0
LINE
8
0
10
98.6604083792
20
28.8478188615
11
98.0552443401
21
29.6002064092
0
LINE
8
0
10
98.0552443401
20
29.6002064092
11
97.3667118076
21
30.3679250852
0
LINE
8
0
10
97.3667118076
20
30.3679250852
11
96.7337400841
21
31.0016831541
0
LINE
8
0
10
96.7337400841
20
31.0016831541
11
96.1684489108
21
31.5099352736
0
LINE
8
0
10
96.1684489108
20
31.5099352736
11
95.6821961468
21
31.902035731
0
LINE
8
0
10
95.6821961468
20
31.902035731
11
95.1716598574
21
32.2703111129
0
LINE
8
0
10
95.1716598574
20
32.2703111129
11
94.9538869098
21
32.4893236728
0
LINE
8
0
10
94.9538869098
20
32.4893236728
11
94.8813743435
21
32.6671413432
0
LINE
8
0
10
94.8813743435
20
32.6671413432
11
95.7739264449
21
34.7620381151
0
LINE
8
0
10
95.7739264449
20
34.7620381151
11
95.9524002046
21
34.8329205057
0
LINE
8
0
10
95.9524002046
20
34.8329205057
11
96.2612092232
21
34.8275774568
0
LINE
8
0
10
96.2612092232
20
34.8275774568
11
96.8804712508
21
34.7144907613
0
LINE
8
0
10
96.8804712508
20
34.7144907613
11
97.5000941919
21
34.6354216137
0
LINE
8
0
10
97.5000941919
20
34.6354216137
11
98.258237827
21
34.579810857
0
LINE
8
0
10
98.258237827
20
34.579810857
11
99.1537806252
21
34.5623297494
0
LINE
8
0
10
99.1537806252
20
34.5623297494
11
100.184424467
21
34.5975758254
0
LINE
8
0
10
100.184424467
20
34.5975758254
11
101.146260075
21
34.682327217
0
LINE
8
0
10
101.146260075
20
34.682327217
11
101.549822078
21
35.6295220479
0
LINE
8
0
10
101.549822078
20
35.6295220479
11
101.796217323
21
36.6291868523
0
LINE
8
0
10
101.796217323
20
36.6291868523
11
101.078198549
21
37.2747560403
0
LINE
8
0
10
101.078198549
20
37.2747560403
11
100.275431596
21
37.9220845756
0
LINE
8
0
10
100.275431596
20
37.9220845756
11
99.548994746
21
38.446099839
0
LINE
8
0
10
99.548994746
20
38.446099839
11
98.9094945714
21
38.857091146
0
LINE
8
0
10
98.9094945714
20
38.857091146
11
98.3666413164
21
39.1661135767
0
LINE
8
0
10
98.3666413164
20
39.1661135767
11
97.8036408122
21
39.447724109
0
LINE
8
0
10
97.8036408122
20
39.447724109
11
97.5535558818
21
39.6289672763
0
LINE
8
0
10
97.5535558818
20
39.6289672763
11
97.4534583739
21
39.792850421
0
LINE
8
0
10
97.4534583739
20
39.792850421
11
97.9984070856
21
42.0037942556
0
LINE
8
0
10
97.9984070856
20
42.0037942556
11
98.1631993219
21
42.1023879423
0
LINE
8
0
10
98.1631993219
20
42.1023879423
11
98.4688664301
21
42.1466505347
0
LINE
8
0
10
98.4688664301
20
42.1466505347
11
99.0982495588
21
42.1343648972
0
LINE
8
0
10
99.0982495588
20
42.1343648972
11
99.7225321288
21
42.155714184
0
LINE
8
0
10
99.7225321288
20
42.155714184
11
100.479778596
21
42.2224383635
0
LINE
8
0
10
100.479778596
20
42.2224383635
11
101.366528517
21
42.3488387991
0
LINE
8
0
10
101.366528517
20
42.3488387991
11
102.378171923
21
42.5489553463
0
LINE
8
0
10
102.378171923
20
42.5489553463
11
103.313956934
21
42.7868985116
0
LINE
8
0
10
52.3454112063
20
50.6932633495
11
52.03354367
21
50.6604847506
0
LINE
8
0
10
52.03354367
20
50.6604847506
11
51.7216761338
21
50.6932633495
0
LINE
8
0
10
51.7216761338
20
50.6932633495
11
51.4234387054
21
50.7901665641
0
LINE
8
0
10
51.4234387054
20
50.7901665641
11
51.1518657916
21
50.946959259
0
LINE
8
0
10
51.1518657916
20
50.946959259
11
50.9188264318
21
51.1567888411
0
LINE
8
0
10
50.9188264318
20
51.1567888411
11
50.7345055644
21
51.4104847506
0
LINE
8
0
10
50.7345055644
20
51.4104847506
11
50.6069588956
21
51.696959259
0
LINE
8
0
10
50.6069588956
20
51.696959259
11
50.541760827
21
52.0036920557
0
LINE
8
0
10
50.541760827
20
52.0036920557
11
50.541760827
21
52.3172774455
0
LINE
8
0
10
50.541760827
20
52.3172774455
11
50.6069588956
21
52.6240102422
0
LINE
8
0
10
50.6069588956
20
52.6240102422
11
50.7345055644
21
52.9104847506
0
LINE
8
0
10
50.7345055644
20
52.9104847506
11
50.9188264318
21
53.1641806601
0
LINE
8
0
10
50.9188264318
20
53.1641806601
11
51.1518657916
21
53.3740102422
0
LINE
8
0
10
51.1518657916
20
53.3740102422
11
51.4234387054
21
53.5308029371
0
LINE
8
0
10
51.4234387054
20
53.5308029371
11
51.7216761338
21
53.6277061517
0
LINE
8
0
10
51.7216761338
20
53.6277061517
11
52.03354367
21
53.6604847506
0
LINE
8
0
10
52.03354367
20
53.6604847506
11
52.3454112063
21
53.6277061517
0
LINE
8
0
10
52.3454112063
20
53.6277061517
11
52.6436486346
21
53.5308029371
0
LINE
8
0
10
52.6436486346
20
53.5308029371
11
52.9152215485
21
53.3740102422
0
LINE
8
0
10
52.9152215485
20
53.3740102422
11
53.1482609082
21
53.1641806601
0
LINE
8
0
10
53.1482609082
20
53.1641806601
11
53.3325817757
21
52.9104847506
0
LINE
8
0
10
53.3325817757
20
52.9104847506
11
53.4601284445
21
52.6240102422
0
LINE
8
0
10
53.4601284445
20
52.6240102422
11
53.5253265131
21
52.3172774455
0
LINE
8
0
10
53.5253265131
20
52.3172774455
11
53.5253265131
21
52.0036920557
0
LINE
8
0
10
53.5253265131
20
52.0036920557
11
53.4601284445
21
51.696959259
0
LINE
8
0
10
53.4601284445
20
51.696959259
11
53.3325817757
21
51.4104847506
0
LINE
8
0
10
53.3325817757
20
51.4104847506
11
53.1482609082
21
51.1567888411
0
LINE
8
0
10
53.1482609082
20
51.1567888411
11
52.9152215485
21
50.946959259
0
LINE
8
0
10
52.9152215485
20
50.946959259
11
52.6436486346
21
50.7901665641
0
LINE
8
0
10
52.6436486346
20
50.7901665641
11
52.3454112063
21
50.6932633495
0
LINE
8
0
10
157.932139436
20
147.107868013
11
158.17853468
21
148.107532817
0
LINE
8
0
10
158.17853468
20
148.107532817
11
158.26138166
21
149.133776802
0
LINE
8
0
10
158.26138166
20
149.133776802
11
157.44910446
21
149.655807727
0
LINE
8
0
10
157.44910446
20
149.655807727
11
156.552894329
21
150.165980653
0
LINE
8
0
10
156.552894329
20
150.165980653
11
155.751806686
21
150.566681391
0
LINE
8
0
10
155.751806686
20
150.566681391
11
155.054660229
21
150.869767426
0
LINE
8
0
10
155.054660229
20
150.869767426
11
154.469266097
21
151.087708311
0
LINE
8
0
10
154.469266097
20
151.087708311
11
153.868382795
21
151.275360429
0
LINE
8
0
10
153.868382795
20
151.275360429
11
153.59246295
21
151.414140101
0
LINE
8
0
10
153.59246295
20
151.414140101
11
153.467372974
21
151.559844233
0
LINE
8
0
10
153.467372974
20
151.559844233
11
153.65060441
21
153.829572846
0
LINE
8
0
10
153.65060441
20
153.829572846
11
153.797447091
21
153.953324304
0
LINE
8
0
10
153.797447091
20
153.953324304
11
154.092055671
21
154.04604616
0
LINE
8
0
10
154.092055671
20
154.04604616
11
154.715259208
21
154.134879772
0
LINE
8
0
10
154.715259208
20
154.134879772
11
155.328032817
21
154.256094558
0
LINE
8
0
10
155.328032817
20
154.256094558
11
156.064769829
21
154.443425552
0
LINE
8
0
10
156.064769829
20
154.443425552
11
156.919760516
21
154.710433826
0
LINE
8
0
10
156.919760516
20
154.710433826
11
157.886202454
21
155.070237931
0
LINE
8
0
10
157.886202454
20
155.070237931
11
158.771700527
21
155.455210267
0
LINE
8
0
10
158.771700527
20
155.455210267
11
158.854547506
21
156.481454252
0
LINE
8
0
10
158.854547506
20
156.481454252
11
158.771700527
21
157.507698236
0
LINE
8
0
10
158.771700527
20
157.507698236
11
157.886202454
21
157.892670572
0
LINE
8
0
10
157.886202454
20
157.892670572
11
156.919760516
21
158.252474677
0
LINE
8
0
10
156.919760516
20
158.252474677
11
156.064769829
21
158.519482951
0
LINE
8
0
10
156.064769829
20
158.519482951
11
155.328032817
21
158.706813946
0
LINE
8
0
10
155.328032817
20
158.706813946
11
154.715259208
21
158.828028731
0
LINE
8
0
10
154.715259208
20
158.828028731
11
154.092055671
21
158.916862344
0
LINE
8
0
10
154.092055671
20
158.916862344
11
153.797447091
21
159.009584199
0
LINE
8
0
10
153.797447091
20
159.009584199
11
153.65060441
21
159.133335657
0
LINE
8
0
10
153.65060441
20
159.133335657
11
153.467372974
21
161.403064271
0
LINE
8
0
10
153.467372974
20
161.403064271
11
153.59246295
21
161.548768402
0
LINE
8
0
10
153.59246295
20
161.548768402
11
153.868382795
21
161.687548074
0
LINE
8
0
10
153.868382795
20
161.687548074
11
154.469266097
21
161.875200192
0
LINE
8
0
10
154.469266097
20
161.875200192
11
155.054660229
21
162.093141078
0
LINE
8
0
10
155.054660229
20
162.093141078
11
155.751806686
21
162.396227113
0
LINE
8
0
10
155.751806686
20
162.396227113
11
156.552894329
21
162.796927851
0
LINE
8
0
10
156.552894329
20
162.796927851
11
157.44910446
21
163.307100777
0
LINE
8
0
10
157.44910446
20
163.307100777
11
158.26138166
21
163.829131702
0
LINE
8
0
10
158.26138166
20
163.829131702
11
158.17853468
21
164.855375686
0
LINE
8
0
10
158.17853468
20
164.855375686
11
157.932139436
21
165.855040491
0
LINE
8
0
10
157.932139436
20
165.855040491
11
156.996354425
21
166.092983656
0
LINE
8
0
10
156.996354425
20
166.092983656
11
155.984711019
21
166.293100203
0
LINE
8
0
10
155.984711019
20
166.293100203
11
155.097961098
21
166.419500639
0
LINE
8
0
10
155.097961098
20
166.419500639
11
154.340714631
21
166.486224818
0
LINE
8
0
10
154.340714631
20
166.486224818
11
153.716432061
21
166.507574105
0
LINE
8
0
10
153.716432061
20
166.507574105
11
153.087048932
21
166.495288468
0
LINE
8
0
10
153.087048932
20
166.495288468
11
152.781381824
21
166.53955106
0
LINE
8
0
10
152.781381824
20
166.53955106
11
152.616589588
21
166.638144747
0
LINE
8
0
10
152.616589588
20
166.638144747
11
152.071640876
21
168.849088581
0
LINE
8
0
10
152.071640876
20
168.849088581
11
152.171738384
21
169.012971726
0
LINE
8
0
10
152.171738384
20
169.012971726
11
152.421823314
21
169.194214893
0
LINE
8
0
10
152.421823314
20
169.194214893
11
152.984823818
21
169.475825426
0
LINE
8
0
10
152.984823818
20
169.475825426
11
153.527677074
21
169.784847856
0
LINE
8
0
10
153.527677074
20
169.784847856
11
154.167177248
21
170.195839163
0
LINE
8
0
10
154.167177248
20
170.195839163
11
154.893614098
21
170.719854427
0
LINE
8
0
10
154.893614098
20
170.719854427
11
155.696381051
21
171.367182962
0
LINE
8
0
10
155.696381051
20
171.367182962
11
156.414399825
21
172.01275215
0
LINE
8
0
10
156.414399825
20
172.01275215
11
156.16800458
21
173.012416954
0
LINE
8
0
10
156.16800458
20
173.012416954
11
155.764442577
21
173.959611785
0
LINE
8
0
10
155.764442577
20
173.959611785
11
154.802606969
21
174.044363177
0
LINE
8
0
10
154.802606969
20
174.044363177
11
153.771963127
21
174.079609253
0
LINE
8
0
10
153.771963127
20
174.079609253
11
152.876420329
21
174.062128145
0
LINE
8
0
10
152.876420329
20
174.062128145
11
152.118276694
21
174.006517389
0
LINE
8
0
10
152.118276694
20
174.006517389
11
151.498653753
21
173.927448241
0
LINE
8
0
10
151.498653753
20
173.927448241
11
150.879391725
21
173.814361546
0
LINE
8
0
10
150.879391725
20
173.814361546
11
150.570582707
21
173.809018497
0
LINE
8
0
10
150.570582707
20
173.809018497
11
150.392108947
21
173.879900887
0
LINE
8
0
10
150.392108947
20
173.879900887
11
149.499556846
21
175.974797659
0
LINE
8
0
10
149.499556846
20
175.974797659
11
149.572069412
21
176.15261533
0
LINE
8
0
10
149.572069412
20
176.15261533
11
149.78984236
21
176.371627889
0
LINE
8
0
10
149.78984236
20
176.371627889
11
150.300378649
21
176.739903271
0
LINE
8
0
10
150.300378649
20
176.739903271
11
150.786631413
21
177.132003729
0
LINE
8
0
10
150.786631413
20
177.132003729
11
151.351922586
21
177.640255848
0
LINE
8
0
10
151.351922586
20
177.640255848
11
151.98489431
21
178.274013917
0
LINE
8
0
10
151.98489431
20
178.274013917
11
152.673426842
21
179.041732593
0
LINE
8
0
10
152.673426842
20
179.041732593
11
153.278590881
21
179.794120141
0
LINE
8
0
10
153.278590881
20
179.794120141
11
152.875028879
21
180.741314972
0
LINE
8
0
10
152.875028879
20
180.741314972
11
152.324752162
21
181.611507981
0
LINE
8
0
10
152.324752162
20
181.611507981
11
151.361776992
21
181.540872582
0
LINE
8
0
10
151.361776992
20
181.540872582
11
150.33882585
21
181.410335332
0
LINE
8
0
10
150.33882585
20
181.410335332
11
149.457684263
21
181.249425433
0
LINE
8
0
10
149.457684263
20
181.249425433
11
148.718278981
21
181.072920029
0
LINE
8
0
10
148.718278981
20
181.072920029
11
148.119363578
21
180.895480297
0
LINE
8
0
10
148.119363578
20
180.895480297
11
147.526261212
21
180.684521429
0
LINE
8
0
10
147.526261212
20
180.684521429
11
147.222308275
21
180.629711121
0
LINE
8
0
10
147.222308275
20
180.629711121
11
147.034775368
21
180.671046399
0
LINE
8
0
10
147.034775368
20
180.671046399
11
145.817736508
21
182.595639382
0
LINE
8
0
10
145.817736508
20
182.595639382
11
145.860786095
21
182.782786194
0
LINE
8
0
10
145.860786095
20
182.782786194
11
146.040606855
21
183.033895836
0
LINE
8
0
10
146.040606855
20
183.033895836
11
146.485456308
21
183.479297929
0
LINE
8
0
10
146.485456308
20
183.479297929
11
146.90251489
21
183.944321217
0
LINE
8
0
10
146.90251489
20
183.944321217
11
147.378956317
21
184.536670686
0
LINE
8
0
10
147.378956317
20
184.536670686
11
147.902069279
21
185.263757559
0
LINE
8
0
10
147.902069279
20
185.263757559
11
148.45853476
21
186.131982866
0
LINE
8
0
10
148.45853476
20
186.131982866
11
148.935170634
21
186.971702331
0
LINE
8
0
10
148.935170634
20
186.971702331
11
148.384893917
21
187.84189534
0
LINE
8
0
10
148.384893917
20
187.84189534
11
147.702154364
21
188.612548985
0
LINE
8
0
10
147.702154364
20
188.612548985
11
146.762980185
21
188.388356216
0
LINE
8
0
10
146.762980185
20
188.388356216
11
145.774215638
21
188.095416485
0
LINE
8
0
10
145.774215638
20
188.095416485
11
144.930296366
21
187.795245277
0
LINE
8
0
10
144.930296366
20
187.795245277
11
144.228779647
21
187.502416623
0
LINE
8
0
10
144.228779647
20
187.502416623
11
143.666083375
21
187.231201902
0
LINE
8
0
10
143.666083375
20
187.231201902
11
143.114501712
21
186.927834586
0
LINE
8
0
10
143.114501712
20
186.927834586
11
142.823277077
21
186.824976577
0
LINE
8
0
10
142.823277077
20
186.824976577
11
142.631542027
21
186.83569418
0
LINE
8
0
10
142.631542027
20
186.83569418
11
141.121537075
21
188.540137427
0
LINE
8
0
10
141.121537075
20
188.540137427
11
141.134008722
21
188.731766376
0
LINE
8
0
10
141.134008722
20
188.731766376
11
141.271220031
21
189.008469493
0
LINE
8
0
10
141.271220031
20
189.008469493
11
141.63886128
21
189.519462616
0
LINE
8
0
10
141.63886128
20
189.519462616
11
141.975924081
21
190.045364876
0
LINE
8
0
10
141.975924081
20
190.045364876
11
142.35117618
21
190.706470155
0
LINE
8
0
10
142.35117618
20
190.706470155
11
142.75088203
21
191.508054664
0
LINE
8
0
10
142.75088203
20
191.508054664
11
143.160868296
21
192.454300022
0
LINE
8
0
10
143.160868296
20
192.454300022
11
143.496631385
21
193.359603111
0
LINE
8
0
10
143.496631385
20
193.359603111
11
142.813891832
21
194.130256756
0
LINE
8
0
10
142.813891832
20
194.130256756
11
142.016372039
21
194.781411513
0
LINE
8
0
10
142.016372039
20
194.781411513
11
141.125322968
21
194.409467848
0
LINE
8
0
10
141.125322968
20
194.409467848
11
140.1963535
21
193.961712623
0
LINE
8
0
10
140.1963535
20
193.961712623
11
139.411513609
21
193.530054381
0
LINE
8
0
10
139.411513609
20
193.530054381
11
138.766054366
21
193.128486587
0
LINE
8
0
10
138.766054366
20
193.128486587
11
138.254150764
21
192.770521195
0
LINE
8
0
10
138.254150764
20
192.770521195
11
137.758375478
21
192.382602485
0
LINE
8
0
10
137.758375478
20
192.382602485
11
137.487421711
21
192.234360744
0
LINE
8
0
10
137.487421711
20
192.234360744
11
137.296450355
21
192.214183092
0
LINE
8
0
10
137.296450355
20
192.214183092
11
135.532587646
21
193.654332418
0
LINE
8
0
10
135.532587646
20
193.654332418
11
135.514158343
21
193.845480415
0
LINE
8
0
10
135.514158343
20
193.845480415
11
135.6052065
21
194.140610541
0
LINE
8
0
10
135.6052065
20
194.140610541
11
135.88611783
21
194.703960241
0
LINE
8
0
10
135.88611783
20
194.703960241
11
136.134455102
21
195.277120881
0
LINE
8
0
10
136.134455102
20
195.277120881
11
136.39879904
21
195.98985969
0
LINE
8
0
10
136.39879904
20
195.98985969
11
136.664745607
21
196.845181218
0
LINE
8
0
10
136.664745607
20
196.845181218
11
136.917634228
21
197.844939368
0
LINE
8
0
10
136.917634228
20
197.844939368
11
137.103828445
21
198.792379207
0
LINE
8
0
10
137.103828445
20
198.792379207
11
136.306308652
21
199.443533964
0
LINE
8
0
10
136.306308652
20
199.443533964
11
135.414663962
21
199.958325266
0
LINE
8
0
10
135.414663962
20
199.958325266
11
134.594817702
21
199.448263851
0
LINE
8
0
10
134.594817702
20
199.448263851
11
133.749703134
21
198.857289757
0
LINE
8
0
10
133.749703134
20
198.857289757
11
133.044269565
21
198.305324203
0
LINE
8
0
10
133.044269565
20
198.305324203
11
132.471584854
21
197.805417662
0
LINE
8
0
10
132.471584854
20
197.805417662
11
132.023731956
21
197.369972716
0
LINE
8
0
10
132.023731956
20
197.369972716
11
131.596603367
21
196.907549503
0
LINE
8
0
10
131.596603367
20
196.907549503
11
131.352938027
21
196.717763412
0
LINE
8
0
10
131.352938027
20
196.717763412
11
131.167676424
21
196.667213096
0
LINE
8
0
10
131.167676424
20
196.667213096
11
129.195639075
21
197.80576939
0
LINE
8
0
10
129.195639075
20
197.80576939
11
129.146786132
21
197.991485803
0
LINE
8
0
10
129.146786132
20
197.991485803
11
129.189313038
21
198.297399223
0
LINE
8
0
10
129.189313038
20
198.297399223
11
129.376218993
21
198.898515038
0
LINE
8
0
10
129.376218993
20
198.898515038
11
129.52939893
21
199.504089498
0
LINE
8
0
10
129.52939893
20
199.504089498
11
129.675988338
21
200.250002276
0
LINE
8
0
10
129.675988338
20
200.250002276
11
129.801287745
21
201.136908444
0
LINE
8
0
10
129.801287745
20
201.136908444
11
129.89052904
21
202.164286177
0
LINE
8
0
10
129.89052904
20
202.164286177
11
129.922332052
21
203.129324572
0
LINE
8
0
10
129.922332052
20
203.129324572
11
129.030687362
21
203.644115874
0
LINE
8
0
10
129.030687362
20
203.644115874
11
128.068010905
21
204.009210897
0
LINE
8
0
10
128.068010905
20
204.009210897
11
127.340601044
21
203.374242055
0
LINE
8
0
10
127.340601044
20
203.374242055
11
126.601229399
21
202.655355009
0
LINE
8
0
10
126.601229399
20
202.655355009
11
125.99347251
21
201.997377763
0
LINE
8
0
10
125.99347251
20
201.997377763
11
125.508394565
21
201.412079792
0
LINE
8
0
10
125.508394565
20
201.412079792
11
125.136191526
21
200.910433086
0
LINE
8
0
10
125.136191526
20
200.910433086
11
124.78877204
21
200.385481889
0
LINE
8
0
10
124.78877204
20
200.385481889
11
124.578705932
21
200.159066809
0
LINE
8
0
10
124.578705932
20
200.159066809
11
124.403952259
21
200.079453054
0
LINE
8
0
10
124.403952259
20
200.079453054
11
122.274815002
21
200.886928306
0
LINE
8
0
10
122.274815002
20
200.886928306
11
122.196803684
21
201.062403178
0
LINE
8
0
10
122.196803684
20
201.062403178
11
122.189707914
21
201.371176894
0
LINE
8
0
10
122.189707914
20
201.371176894
11
122.277767728
21
201.994490241
0
LINE
8
0
10
122.277767728
20
201.994490241
11
122.33182305
21
202.616794461
0
LINE
8
0
10
122.33182305
20
202.616794461
11
122.356861341
21
203.376562459
0
LINE
8
0
10
122.356861341
20
203.376562459
11
122.338268398
21
204.272082864
0
LINE
8
0
10
122.338268398
20
204.272082864
11
122.261551064
21
205.300471635
0
LINE
8
0
10
122.261551064
20
205.300471635
11
122.138139191
21
206.258114599
0
LINE
8
0
10
122.138139191
20
206.258114599
11
121.175462733
21
206.623209621
0
LINE
8
0
10
121.175462733
20
206.623209621
11
120.166687322
21
206.829152596
0
LINE
8
0
10
120.166687322
20
206.829152596
11
119.550553393
21
206.085721686
0
LINE
8
0
10
119.550553393
20
206.085721686
11
118.936074009
21
205.257540487
0
LINE
8
0
10
118.936074009
20
205.257540487
11
118.441734385
21
204.510592812
0
LINE
8
0
10
118.441734385
20
204.510592812
11
118.056826469
21
203.855062321
0
LINE
8
0
10
118.056826469
20
203.855062321
11
117.769913152
21
203.300206243
0
LINE
8
0
10
117.769913152
20
203.300206243
11
117.511200751
21
202.72632302
0
LINE
8
0
10
117.511200751
20
202.72632302
11
117.340174477
21
202.469142982
0
LINE
8
0
10
117.340174477
20
202.469142982
11
117.180454762
21
202.362527745
0
LINE
8
0
10
117.180454762
20
202.362527745
11
114.949361135
21
202.81800877
0
LINE
8
0
10
114.949361135
20
202.81800877
11
114.844211894
21
202.978697392
0
LINE
8
0
10
114.844211894
20
202.978697392
11
114.787677225
21
203.282334329
0
LINE
8
0
10
114.787677225
20
203.282334329
11
114.774610195
21
203.91170172
0
LINE
8
0
10
114.774610195
20
203.91170172
11
114.728140898
21
204.534618346
0
LINE
8
0
10
114.728140898
20
204.534618346
11
114.630979591
21
205.288563973
0
LINE
8
0
10
114.630979591
20
205.288563973
11
114.468975848
21
206.169505106
0
LINE
8
0
10
114.468975848
20
206.169505106
11
114.228286822
21
207.172270186
0
LINE
8
0
10
114.228286822
20
207.172270186
11
113.952856366
21
208.097715269
0
LINE
8
0
10
113.952856366
20
208.097715269
11
112.944080956
21
208.303658243
0
LINE
8
0
10
112.944080956
20
208.303658243
11
111.915333345
21
208.345115355
0
LINE
8
0
10
111.915333345
20
208.345115355
11
111.426432893
21
207.512476847
0
LINE
8
0
10
111.426432893
20
207.512476847
11
110.952760462
21
206.596450951
0
LINE
8
0
10
110.952760462
20
206.596450951
11
110.58464124
21
205.7798784
0
LINE
8
0
10
110.58464124
20
205.7798784
11
110.309872266
21
205.071093286
0
LINE
8
0
10
110.309872266
20
205.071093286
11
110.115679576
21
204.477398315
0
LINE
8
0
10
110.115679576
20
204.477398315
11
109.952374775
21
203.869446342
0
LINE
8
0
10
109.952374775
20
203.869446342
11
109.824817826
21
203.588162175
0
LINE
8
0
10
109.824817826
20
203.588162175
11
109.684268726
21
203.457306732
0
LINE
8
0
10
109.684268726
20
203.457306732
11
107.409002881
21
203.548996811
0
LINE
8
0
10
107.409002881
20
203.548996811
11
107.279439027
21
203.690737434
0
LINE
8
0
10
107.279439027
20
203.690737434
11
107.174929677
21
203.981373553
0
LINE
8
0
10
107.174929677
20
203.981373553
11
107.061074233
21
204.600494702
0
LINE
8
0
10
107.061074233
20
204.600494702
11
106.915283847
21
205.207890523
0
LINE
8
0
10
106.915283847
20
205.207890523
11
106.69843937
21
205.936486982
0
LINE
8
0
10
106.69843937
20
205.936486982
11
106.397220637
21
206.78003293
0
LINE
8
0
10
106.397220637
20
206.78003293
11
105.99879364
21
207.731203232
0
LINE
8
0
10
105.99879364
20
207.731203232
11
105.578478105
21
208.600481891
0
LINE
8
0
10
105.578478105
20
208.600481891
11
104.549730495
21
208.641939002
0
LINE
8
0
10
104.549730495
20
208.641939002
11
103.527654707
21
208.517836533
0
LINE
8
0
10
103.527654707
20
208.517836533
11
103.178649997
21
207.617555328
0
LINE
8
0
10
103.178649997
20
207.617555328
11
102.858052387
21
206.637409326
0
LINE
8
0
10
102.858052387
20
206.637409326
11
102.625687661
21
205.772360699
0
LINE
8
0
10
102.625687661
20
205.772360699
11
102.468174001
21
205.028678122
0
LINE
8
0
10
102.468174001
20
205.028678122
11
102.371731426
21
204.411520647
0
LINE
8
0
10
102.371731426
20
204.411520647
11
102.308063734
21
203.78524556
0
LINE
8
0
10
102.308063734
20
203.78524556
11
102.227279768
21
203.487142375
0
LINE
8
0
10
102.227279768
20
203.487142375
11
102.109541431
21
203.335435816
0
LINE
8
0
10
102.109541431
20
203.335435816
11
99.8490315574
21
203.060960224
0
LINE
8
0
10
99.8490315574
20
203.060960224
11
99.6984087267
21
203.180081838
0
LINE
8
0
10
99.6984087267
20
203.180081838
11
99.5486314334
21
203.450189818
0
LINE
8
0
10
99.5486314334
20
203.450189818
11
99.3369363707
21
204.043029813
0
LINE
8
0
10
99.3369363707
20
204.043029813
11
99.0956007907
21
204.619173595
0
LINE
8
0
10
99.0956007907
20
204.619173595
11
98.7646893011
21
205.303550621
0
LINE
8
0
10
98.7646893011
20
205.303550621
11
98.3320569852
21
206.087853988
0
LINE
8
0
10
98.3320569852
20
206.087853988
11
97.7862110673
21
206.962794699
0
LINE
8
0
10
97.7862110673
20
206.962794699
11
97.231896405
21
207.753393074
0
LINE
8
0
10
97.231896405
20
207.753393074
11
96.2098206177
21
207.629290605
0
LINE
8
0
10
96.2098206177
20
207.629290605
11
95.2208878795
21
207.342842744
0
LINE
8
0
10
95.2208878795
20
207.342842744
11
95.0208179497
21
206.398235652
0
LINE
8
0
10
95.0208179497
20
206.398235652
11
94.8615984701
21
205.379354809
0
LINE
8
0
10
94.8615984701
20
205.379354809
11
94.7710063648
21
204.488234412
0
LINE
8
0
10
94.7710063648
20
204.488234412
11
94.7348275396
21
203.728915361
0
LINE
8
0
10
94.7348275396
20
203.728915361
11
94.7386328917
21
203.104279436
0
LINE
8
0
10
94.7386328917
20
203.104279436
11
94.7762512689
21
202.475901431
0
LINE
8
0
10
94.7762512689
20
202.475901431
11
94.7443325469
21
202.168699945
0
LINE
8
0
10
94.7443325469
20
202.168699945
11
94.6524543343
21
202.000071388
0
LINE
8
0
10
94.6524543343
20
202.000071388
11
92.4652464513
21
201.366538899
0
LINE
8
0
10
92.4652464513
20
201.366538899
11
92.2974656959
21
201.459956318
0
LINE
8
0
10
92.2974656959
20
201.459956318
11
92.1062996123
21
201.702540503
0
LINE
8
0
10
92.1062996123
20
201.702540503
11
91.8022477221
21
202.2537451
0
LINE
8
0
10
91.8022477221
20
202.2537451
11
91.4716174125
21
202.783715021
0
LINE
8
0
10
91.4716174125
20
202.783715021
11
91.0352093445
21
203.406147609
0
LINE
8
0
10
91.0352093445
20
203.406147609
11
90.4823683957
21
204.110895349
0
LINE
8
0
10
90.4823683957
20
204.110895349
11
89.803240679
21
204.886945965
0
LINE
8
0
10
89.803240679
20
204.886945965
11
89.1292833479
21
205.578387974
0
LINE
8
0
10
89.1292833479
20
205.578387974
11
88.1403506096
21
205.291940113
0
LINE
8
0
10
88.1403506096
20
205.291940113
11
87.2101737589
21
204.85056571
0
LINE
8
0
10
87.2101737589
20
204.85056571
11
87.1642203158
21
203.886097557
0
LINE
8
0
10
87.1642203158
20
203.886097557
11
87.1705026677
21
202.854870353
0
LINE
8
0
10
87.1705026677
20
202.854870353
11
87.2240294707
21
201.960757735
0
LINE
8
0
10
87.2240294707
20
201.960757735
11
87.3101224932
21
201.205468175
0
LINE
8
0
10
87.3101224932
20
201.205468175
11
87.4140772158
21
200.589531543
0
LINE
8
0
10
87.4140772158
20
200.589531543
11
87.5520073655
21
199.97532528
0
LINE
8
0
10
87.5520073655
20
199.97532528
11
87.5697805666
21
199.666981849
0
LINE
8
0
10
87.5697805666
20
199.666981849
11
87.5061420755
21
199.485798686
0
LINE
8
0
10
87.5061420755
20
199.485798686
11
85.4488837182
21
198.509617458
0
LINE
8
0
10
85.4488837182
20
198.509617458
11
85.2682904715
21
198.574911221
0
LINE
8
0
10
85.2682904715
20
198.574911221
11
85.0406866988
21
198.783688808
0
LINE
8
0
10
85.0406866988
20
198.783688808
11
84.6521527653
21
199.278982097
0
LINE
8
0
10
84.6521527653
20
199.278982097
11
84.2407908774
21
199.749052215
0
LINE
8
0
10
84.2407908774
20
199.749052215
11
83.7101889707
21
200.293419687
0
LINE
8
0
10
83.7101889707
20
200.293419687
11
83.0514576793
21
200.900359205
0
LINE
8
0
10
83.0514576793
20
200.900359205
11
82.2566372148
21
201.557420422
0
LINE
8
0
10
82.2566372148
20
201.557420422
11
81.4804923558
21
202.13179808
0
LINE
8
0
10
81.4804923558
20
202.13179808
11
80.550315505
21
201.690423676
0
LINE
8
0
10
80.550315505
20
201.690423676
11
79.7029856336
21
201.105554095
0
LINE
8
0
10
79.7029856336
20
201.105554095
11
79.8123388473
21
200.146204101
0
LINE
8
0
10
79.8123388473
20
200.146204101
11
79.9839603209
21
199.129338779
0
LINE
8
0
10
79.9839603209
20
199.129338779
11
80.1802197162
21
198.255390988
0
LINE
8
0
10
80.1802197162
20
198.255390988
11
80.3863548224
21
197.523692521
0
LINE
8
0
10
80.3863548224
20
197.523692521
11
80.5877665427
21
196.932407617
0
LINE
8
0
10
80.5877665427
20
196.932407617
11
80.8224361466
21
196.348280716
0
LINE
8
0
10
80.8224361466
20
196.348280716
11
80.8894409541
21
196.046781273
0
LINE
8
0
10
80.8894409541
20
196.046781273
11
80.855690388
21
195.857736052
0
LINE
8
0
10
80.855690388
20
195.857736052
11
78.9816634673
21
194.564188667
0
LINE
8
0
10
78.9816634673
20
194.564188667
11
78.7929349996
21
194.599667699
0
LINE
8
0
10
78.7929349996
20
194.599667699
11
78.5347883558
21
194.769231458
0
LINE
8
0
10
78.5347883558
20
194.769231458
11
78.0718352038
21
195.195785603
0
LINE
8
0
10
78.0718352038
20
195.195785603
11
77.5903957945
21
195.593781349
0
LINE
8
0
10
77.5903957945
20
195.593781349
11
76.9793423598
21
196.045984874
0
LINE
8
0
10
76.9793423598
20
196.045984874
11
76.2317815201
21
196.539396754
0
LINE
8
0
10
76.2317815201
20
196.539396754
11
75.3418537405
21
197.060451032
0
LINE
8
0
10
75.3418537405
20
197.060451032
11
74.4836230977
21
197.50288826
0
LINE
8
0
10
74.4836230977
20
197.50288826
11
73.6362932263
21
196.918018679
0
LINE
8
0
10
73.6362932263
20
196.918018679
11
72.8937557328
21
196.204801735
0
LINE
8
0
10
72.8937557328
20
196.204801735
11
73.1555834124
21
195.275416561
0
LINE
8
0
10
73.1555834124
20
195.275416561
11
73.4880991018
21
194.299249398
0
LINE
8
0
10
73.4880991018
20
194.299249398
11
73.8220080741
21
193.468101222
0
LINE
8
0
10
73.8220080741
20
193.468101222
11
74.142846473
21
192.778944455
0
LINE
8
0
10
74.142846473
20
192.778944455
11
74.4364987333
21
192.227625246
0
LINE
8
0
10
74.4364987333
20
192.227625246
11
74.7618299718
21
191.688706287
0
LINE
8
0
10
74.7618299718
20
191.688706287
11
74.8763309964
21
191.40185951
0
LINE
8
0
10
74.8763309964
20
191.40185951
11
74.8733424773
21
191.209848404
0
LINE
8
0
10
74.8733424773
20
191.209848404
11
73.231083306
21
189.632437058
0
LINE
8
0
10
73.231083306
20
189.632437058
11
73.0391075855
21
189.637182471
0
LINE
8
0
10
73.0391075855
20
189.637182471
11
72.7571039332
21
189.76314079
0
LINE
8
0
10
72.7571039332
20
189.76314079
11
72.2317218062
21
190.109908263
0
LINE
8
0
10
72.2317218062
20
190.109908263
11
71.6926739033
21
190.425521757
0
LINE
8
0
10
71.6926739033
20
190.425521757
11
71.0169949034
21
190.7738495
0
LINE
8
0
10
71.0169949034
20
190.7738495
11
70.1999659486
21
191.140954634
0
LINE
8
0
10
70.1999659486
20
191.140954634
11
69.2379795158
21
191.512506941
0
LINE
8
0
10
69.2379795158
20
191.512506941
11
68.3198908122
21
191.811544846
0
LINE
8
0
10
68.3198908122
20
191.811544846
11
67.5773533187
21
191.098327903
0
LINE
8
0
10
67.5773533187
20
191.098327903
11
66.9588395341
21
190.275235541
0
LINE
8
0
10
66.9588395341
20
190.275235541
11
67.3663604802
21
189.399885774
0
LINE
8
0
10
67.3663604802
20
189.399885774
11
67.8511584038
21
188.489698987
0
LINE
8
0
10
67.8511584038
20
188.489698987
11
68.3140688861
21
187.722876727
0
LINE
8
0
10
68.3140688861
20
187.722876727
11
68.7413010317
21
187.094110458
0
LINE
8
0
10
68.7413010317
20
187.094110458
11
69.1195883927
21
186.597035824
0
LINE
8
0
10
69.1195883927
20
186.597035824
11
69.5271553577
21
186.117282524
0
LINE
8
0
10
69.5271553577
20
186.117282524
11
69.686187083
21
185.852517593
0
LINE
8
0
10
69.686187083
20
185.852517593
11
69.7140380119
21
185.662513588
0
LINE
8
0
10
69.7140380119
20
185.662513588
11
68.3460802399
21
183.842092408
0
LINE
8
0
10
68.3460802399
20
183.842092408
11
68.1558293369
21
183.815981298
0
LINE
8
0
10
68.1558293369
20
183.815981298
11
67.8572724225
21
183.895071923
0
LINE
8
0
10
67.8572724225
20
183.895071923
11
67.2830684415
21
184.153071628
0
LINE
8
0
10
67.2830684415
20
184.153071628
11
66.7003731026
21
184.378128645
0
LINE
8
0
10
66.7003731026
20
184.378128645
11
65.9775682688
21
184.613559102
0
LINE
8
0
10
65.9775682688
20
184.613559102
11
65.1122318196
21
184.84484966
0
LINE
8
0
10
65.1122318196
20
184.84484966
11
64.103101677
21
185.057276987
0
LINE
8
0
10
64.103101677
20
185.057276987
11
63.1489329276
21
185.205170644
0
LINE
8
0
10
63.1489329276
20
185.205170644
11
62.5304191431
21
184.382078282
0
LINE
8
0
10
62.5304191431
20
184.382078282
11
62.0519482496
21
183.470428162
0
LINE
8
0
10
62.0519482496
20
183.470428162
11
62.5946078838
21
182.671784902
0
LINE
8
0
10
62.5946078838
20
182.671784902
11
63.2191320299
21
181.85115185
0
LINE
8
0
10
63.2191320299
20
181.85115185
11
63.799054884
21
181.168515801
0
LINE
8
0
10
63.799054884
20
181.168515801
11
64.3216156881
21
180.616424745
0
LINE
8
0
10
64.3216156881
20
180.616424745
11
64.7747407058
21
180.186468657
0
LINE
8
0
10
64.7747407058
20
180.186468657
11
65.253987627
21
179.778306376
0
LINE
8
0
10
65.253987627
20
179.778306376
11
65.4534312149
21
179.542480564
0
LINE
8
0
10
65.4534312149
20
179.542480564
11
65.5114002674
21
179.359404664
0
LINE
8
0
10
65.5114002674
20
179.359404664
11
64.4531732824
21
177.343121602
0
LINE
8
0
10
64.4531732824
20
177.343121602
11
64.2695745954
21
177.286830232
0
LINE
8
0
10
64.2695745954
20
177.286830232
11
63.9621968861
21
177.317004757
0
LINE
8
0
10
63.9621968861
20
177.317004757
11
63.3540426328
21
177.479554638
0
LINE
8
0
10
63.3540426328
20
177.479554638
11
62.7427913609
21
177.608226321
0
LINE
8
0
10
62.7427913609
20
177.608226321
11
61.9915809588
21
177.724661966
0
LINE
8
0
10
61.9915809588
20
177.724661966
11
61.1003487747
21
177.814147644
0
LINE
8
0
10
61.1003487747
20
177.814147644
11
60.0702108628
21
177.861948233
0
LINE
8
0
10
60.0702108628
20
177.861948233
11
59.1046745372
21
177.854867276
0
LINE
8
0
10
59.1046745372
20
177.854867276
11
58.6262036437
21
176.943217155
0
LINE
8
0
10
58.6262036437
20
176.943217155
11
58.3001677862
21
175.966620536
0
LINE
8
0
10
58.3001677862
20
175.966620536
11
58.963911509
21
175.265368223
0
LINE
8
0
10
58.963911509
20
175.265368223
11
59.7119870303
21
174.555542872
0
LINE
8
0
10
59.7119870303
20
174.555542872
11
60.3939025587
21
173.974772948
0
LINE
8
0
10
60.3939025587
20
173.974772948
11
60.998257971
21
173.513655975
0
LINE
8
0
10
60.998257971
20
173.513655975
11
61.5144849456
21
173.16195407
0
LINE
8
0
10
61.5144849456
20
173.16195407
11
62.0529995794
21
172.835953995
0
LINE
8
0
10
62.0529995794
20
172.835953995
11
62.2876895457
21
172.635175067
0
LINE
8
0
10
62.2876895457
20
172.635175067
11
62.3742753538
21
172.463768842
0
LINE
8
0
10
62.3742753538
20
172.463768842
11
61.6531866789
21
170.30384457
0
LINE
8
0
10
61.6531866789
20
170.30384457
11
61.4809953174
21
170.218830858
0
LINE
8
0
10
61.4809953174
20
170.218830858
11
61.1727577345
21
170.199307779
0
LINE
8
0
10
61.1727577345
20
170.199307779
11
60.5464040844
21
170.262197878
0
LINE
8
0
10
60.5464040844
20
170.262197878
11
59.9224279666
21
170.291151697
0
LINE
8
0
10
59.9224279666
20
170.291151697
11
59.1622679509
21
170.285576908
0
LINE
8
0
10
59.1622679509
20
170.285576908
11
58.2682224773
21
170.230940074
0
LINE
8
0
10
58.2682224773
20
170.230940074
11
57.243756827
21
170.112875917
0
LINE
8
0
10
57.243756827
20
170.112875917
11
56.2918598087
21
169.951003737
0
LINE
8
0
10
56.2918598087
20
169.951003737
11
55.9658239512
21
168.974407117
0
LINE
8
0
10
55.9658239512
20
168.974407117
11
55.800667287
21
167.958157338
0
LINE
8
0
10
55.800667287
20
167.958157338
11
56.5683044847
21
167.372458039
0
LINE
8
0
10
56.5683044847
20
167.372458039
11
57.4205566181
21
166.791824493
0
LINE
8
0
10
57.4205566181
20
166.791824493
11
58.1868035669
21
166.32796233
0
LINE
8
0
10
58.1868035669
20
166.32796233
11
58.8573010997
21
165.969762126
0
LINE
8
0
10
58.8573010997
20
165.969762126
11
59.4232600236
21
165.705423298
0
LINE
8
0
10
59.4232600236
20
165.705423298
11
60.0070951239
21
165.470028661
0
LINE
8
0
10
60.0070951239
20
165.470028661
11
60.2709531217
21
165.309496686
0
LINE
8
0
10
60.2709531217
20
165.309496686
11
60.3839131585
21
165.154199467
0
LINE
8
0
10
60.3839131585
20
165.154199467
11
60.0186386116
21
162.906574888
0
LINE
8
0
10
60.0186386116
20
162.906574888
11
59.8623142414
21
162.795040645
0
LINE
8
0
10
59.8623142414
20
162.795040645
11
59.5611999764
21
162.726325599
0
LINE
8
0
10
59.5611999764
20
162.726325599
11
58.9328691601
21
162.687927097
0
LINE
8
0
10
58.9328691601
20
162.687927097
11
58.31232885
21
162.616413163
0
LINE
8
0
10
58.31232885
20
162.616413163
11
57.5629069659
21
162.488972325
0
LINE
8
0
10
57.5629069659
20
162.488972325
11
56.6892035109
21
162.291628044
0
LINE
8
0
10
56.6892035109
20
162.291628044
11
55.6969432445
21
162.010756939
0
LINE
8
0
10
55.6969432445
20
162.010756939
11
54.7833391663
21
161.698285941
0
LINE
8
0
10
54.7833391663
20
161.698285941
11
54.6181825021
21
160.682036162
0
LINE
8
0
10
54.6181825021
20
160.682036162
11
54.6181825021
21
159.652453558
0
LINE
8
0
10
54.6181825021
20
159.652453558
11
55.4698317744
21
159.197476577
0
LINE
8
0
10
55.4698317744
20
159.197476577
11
56.4041876374
21
158.76107294
0
LINE
8
0
10
56.4041876374
20
158.76107294
11
57.2349206131
21
158.426132325
0
LINE
8
0
10
57.2349206131
20
158.426132325
11
57.9541947326
21
158.180126087
0
LINE
8
0
10
57.9541947326
20
158.180126087
11
58.5552275669
21
158.009996574
0
LINE
8
0
10
58.5552275669
20
158.009996574
11
59.1692621113
21
157.871303972
0
LINE
8
0
10
59.1692621113
20
157.871303972
11
59.4554543571
21
157.755176643
0
LINE
8
0
10
59.4554543571
20
157.755176643
11
59.5918630169
21
157.620010546
0
LINE
8
0
10
59.5918630169
20
157.620010546
11
59.5918630169
21
155.342897958
0
LINE
8
0
10
59.5918630169
20
155.342897958
11
59.4554543571
21
155.207731861
0
LINE
8
0
10
59.4554543571
20
155.207731861
11
59.1692621113
21
155.091604532
0
LINE
8
0
10
59.1692621113
20
155.091604532
11
58.5552275669
21
154.95291193
0
LINE
8
0
10
58.5552275669
20
154.95291193
11
57.9541947326
21
154.782782416
0
LINE
8
0
10
57.9541947326
20
154.782782416
11
57.2349206131
21
154.536776179
0
LINE
8
0
10
57.2349206131
20
154.536776179
11
56.4041876374
21
154.201835564
0
LINE
8
0
10
56.4041876374
20
154.201835564
11
55.4698317744
21
153.765431926
0
LINE
8
0
10
55.4698317744
20
153.765431926
11
54.6181825021
21
153.310454945
0
LINE
8
0
10
54.6181825021
20
153.310454945
11
54.6181825021
21
152.280872342
0
LINE
8
0
10
54.6181825021
20
152.280872342
11
54.7833391663
21
151.264622562
0
LINE
8
0
10
54.7833391663
20
151.264622562
11
55.6969432445
21
150.952151565
0
LINE
8
0
10
55.6969432445
20
150.952151565
11
56.6892035109
21
150.67128046
0
LINE
8
0
10
56.6892035109
20
150.67128046
11
57.5629069659
21
150.473936179
0
LINE
8
0
10
57.5629069659
20
150.473936179
11
58.31232885
21
150.34649534
0
LINE
8
0
10
58.31232885
20
150.34649534
11
58.9328691601
21
150.274981406
0
LINE
8
0
10
58.9328691601
20
150.274981406
11
59.5611999764
21
150.236582904
0
LINE
8
0
10
59.5611999764
20
150.236582904
11
59.8623142414
21
150.167867859
0
LINE
8
0
10
59.8623142414
20
150.167867859
11
60.0186386116
21
150.056333615
0
LINE
8
0
10
60.0186386116
20
150.056333615
11
60.3839131585
21
147.808709037
0
LINE
8
0
10
60.3839131585
20
147.808709037
11
60.2709531217
21
147.653411818
0
LINE
8
0
10
60.2709531217
20
147.653411818
11
60.0070951239
21
147.492879843
0
LINE
8
0
10
60.0070951239
20
147.492879843
11
59.4232600236
21
147.257485205
0
LINE
8
0
10
59.4232600236
20
147.257485205
11
58.8573010997
21
146.993146378
0
LINE
8
0
10
58.8573010997
20
146.993146378
11
58.1868035669
21
146.634946174
0
LINE
8
0
10
58.1868035669
20
146.634946174
11
57.4205566181
21
146.171084011
0
LINE
8
0
10
57.4205566181
20
146.171084011
11
56.5683044847
21
145.590450465
0
LINE
8
0
10
56.5683044847
20
145.590450465
11
55.800667287
21
145.004751166
0
LINE
8
0
10
55.800667287
20
145.004751166
11
55.9658239512
21
143.988501387
0
LINE
8
0
10
55.9658239512
20
143.988501387
11
56.2918598087
21
143.011904767
0
LINE
8
0
10
56.2918598087
20
143.011904767
11
57.243756827
21
142.850032587
0
LINE
8
0
10
57.243756827
20
142.850032587
11
58.2682224773
21
142.73196843
0
LINE
8
0
10
58.2682224773
20
142.73196843
11
59.1622679509
21
142.677331595
0
LINE
8
0
10
59.1622679509
20
142.677331595
11
59.9224279666
21
142.671756806
0
LINE
8
0
10
59.9224279666
20
142.671756806
11
60.5464040844
21
142.700710625
0
LINE
8
0
10
60.5464040844
20
142.700710625
11
61.1727577345
21
142.763600725
0
LINE
8
0
10
61.1727577345
20
142.763600725
11
61.4809953174
21
142.744077646
0
LINE
8
0
10
61.4809953174
20
142.744077646
11
61.6531866789
21
142.659063934
0
LINE
8
0
10
61.6531866789
20
142.659063934
11
62.3742753538
21
140.499139662
0
LINE
8
0
10
62.3742753538
20
140.499139662
11
62.2876895457
21
140.327733437
0
LINE
8
0
10
62.2876895457
20
140.327733437
11
62.0529995794
21
140.126954509
0
LINE
8
0
10
62.0529995794
20
140.126954509
11
61.5144849456
21
139.800954434
0
LINE
8
0
10
61.5144849456
20
139.800954434
11
60.998257971
21
139.449252529
0
LINE
8
0
10
60.998257971
20
139.449252529
11
60.3939025587
21
138.988135555
0
LINE
8
0
10
60.3939025587
20
138.988135555
11
59.7119870303
21
138.407365631
0
LINE
8
0
10
59.7119870303
20
138.407365631
11
58.963911509
21
137.697540281
0
LINE
8
0
10
58.963911509
20
137.697540281
11
58.3001677862
21
136.996287968
0
LINE
8
0
10
58.3001677862
20
136.996287968
11
58.6262036437
21
136.019691348
0
LINE
8
0
10
58.6262036437
20
136.019691348
11
59.1046745372
21
135.108041228
0
LINE
8
0
10
59.1046745372
20
135.108041228
11
60.0702108628
21
135.10096027
0
LINE
8
0
10
60.0702108628
20
135.10096027
11
61.1003487747
21
135.14876086
0
LINE
8
0
10
61.1003487747
20
135.14876086
11
61.9915809588
21
135.238246538
0
LINE
8
0
10
61.9915809588
20
135.238246538
11
62.7427913609
21
135.354682183
0
LINE
8
0
10
62.7427913609
20
135.354682183
11
63.3540426328
21
135.483353865
0
LINE
8
0
10
63.3540426328
20
135.483353865
11
63.9621968861
21
135.645903746
0
LINE
8
0
10
63.9621968861
20
135.645903746
11
64.2695745954
21
135.676078271
0
LINE
8
0
10
64.2695745954
20
135.676078271
11
64.4531732824
21
135.619786901
0
LINE
8
0
10
64.4531732824
20
135.619786901
11
65.5114002674
21
133.603503839
0
LINE
8
0
10
65.5114002674
20
133.603503839
11
65.4534312149
21
133.420427939
0
LINE
8
0
10
65.4534312149
20
133.420427939
11
65.253987627
21
133.184602128
0
LINE
8
0
10
65.253987627
20
133.184602128
11
64.7747407058
21
132.776439846
0
LINE
8
0
10
64.7747407058
20
132.776439846
11
64.3216156881
21
132.346483758
0
LINE
8
0
10
64.3216156881
20
132.346483758
11
63.799054884
21
131.794392703
0
LINE
8
0
10
63.799054884
20
131.794392703
11
63.2191320299
21
131.111756653
0
LINE
8
0
10
63.2191320299
20
131.111756653
11
62.5946078839
21
130.291123602
0
LINE
8
0
10
62.5946078839
20
130.291123602
11
62.0519482496
21
129.492480342
0
LINE
8
0
10
62.0519482496
20
129.492480342
11
62.5304191431
21
128.580830221
0
LINE
8
0
10
62.5304191431
20
128.580830221
11
63.1489329276
21
127.757737859
0
LINE
8
0
10
63.1489329276
20
127.757737859
11
64.103101677
21
127.905631517
0
LINE
8
0
10
64.103101677
20
127.905631517
11
65.1122318196
21
128.118058843
0
LINE
8
0
10
65.1122318196
20
128.118058843
11
65.9775682688
21
128.349349401
0
LINE
8
0
10
65.9775682688
20
128.349349401
11
66.7003731026
21
128.584779858
0
LINE
8
0
10
66.7003731026
20
128.584779858
11
67.2830684415
21
128.809836876
0
LINE
8
0
10
67.2830684415
20
128.809836876
11
67.8572724225
21
129.067836581
0
LINE
8
0
10
67.8572724225
20
129.067836581
11
68.1558293369
21
129.146927206
0
LINE
8
0
10
68.1558293369
20
129.146927206
11
68.3460802399
21
129.120816095
0
LINE
8
0
10
68.3460802399
20
129.120816095
11
69.7140380119
21
127.300394915
0
LINE
8
0
10
69.7140380119
20
127.300394915
11
69.686187083
21
127.11039091
0
LINE
8
0
10
69.686187083
20
127.11039091
11
69.5271553577
21
126.84562598
0
LINE
8
0
10
69.5271553577
20
126.84562598
11
69.1195883927
21
126.36587268
0
LINE
8
0
10
69.1195883927
20
126.36587268
11
68.7413010317
21
125.868798046
0
LINE
8
0
10
68.7413010317
20
125.868798046
11
68.3140688861
21
125.240031776
0
LINE
8
0
10
68.3140688861
20
125.240031776
11
67.8511584038
21
124.473209517
0
LINE
8
0
10
67.8511584038
20
124.473209517
11
67.3663604802
21
123.56302273
0
LINE
8
0
10
67.3663604802
20
123.56302273
11
66.9588395341
21
122.687672963
0
LINE
8
0
10
66.9588395341
20
122.687672963
11
67.5773533187
21
121.864580601
0
LINE
8
0
10
67.5773533187
20
121.864580601
11
68.3198908122
21
121.151363658
0
LINE
8
0
10
68.3198908122
20
121.151363658
11
69.2379795158
21
121.450401562
0
LINE
8
0
10
69.2379795158
20
121.450401562
11
70.1999659486
21
121.821953869
0
LINE
8
0
10
70.1999659486
20
121.821953869
11
71.0169949034
21
122.189059003
0
LINE
8
0
10
71.0169949034
20
122.189059003
11
71.6926739033
21
122.537386747
0
LINE
8
0
10
71.6926739033
20
122.537386747
11
72.2317218061
21
122.853000241
0
LINE
8
0
10
72.2317218061
20
122.853000241
11
72.7571039332
21
123.199767714
0
LINE
8
0
10
72.7571039332
20
123.199767714
11
73.0391075855
21
123.325726033
0
LINE
8
0
10
73.0391075855
20
123.325726033
11
73.231083306
21
123.330471445
0
LINE
8
0
10
73.231083306
20
123.330471445
11
74.8733424773
21
121.7530601
0
LINE
8
0
10
74.8733424773
20
121.7530601
11
74.8763309964
21
121.561048994
0
LINE
8
0
10
74.8763309964
20
121.561048994
11
74.7618299718
21
121.274202217
0
LINE
8
0
10
74.7618299718
20
121.274202217
11
74.4364987333
21
120.735283257
0
LINE
8
0
10
74.4364987333
20
120.735283257
11
74.142846473
21
120.183964049
0
LINE
8
0
10
74.142846473
20
120.183964049
11
73.8220080741
21
119.494807282
0
LINE
8
0
10
73.8220080741
20
119.494807282
11
73.4880991018
21
118.663659106
0
LINE
8
0
10
73.4880991018
20
118.663659106
11
73.1555834124
21
117.687491943
0
LINE
8
0
10
73.1555834124
20
117.687491943
11
72.8937557328
21
116.758106768
0
LINE
8
0
10
72.8937557328
20
116.758106768
11
73.6362932263
21
116.044889825
0
LINE
8
0
10
73.6362932263
20
116.044889825
11
74.4836230977
21
115.460020244
0
LINE
8
0
10
74.4836230977
20
115.460020244
11
75.3418537405
21
115.902457471
0
LINE
8
0
10
75.3418537405
20
115.902457471
11
76.2317815201
21
116.423511749
0
LINE
8
0
10
76.2317815201
20
116.423511749
11
76.9793423598
21
116.91692363
0
LINE
8
0
10
76.9793423598
20
116.91692363
11
77.5903957945
21
117.369127154
0
LINE
8
0
10
77.5903957945
20
117.369127154
11
78.0718352038
21
117.767122901
0
LINE
8
0
10
78.0718352038
20
117.767122901
11
78.5347883558
21
118.193677046
0
LINE
8
0
10
78.5347883558
20
118.193677046
11
78.7929349996
21
118.363240805
0
LINE
8
0
10
78.7929349996
20
118.363240805
11
78.9816634673
21
118.398719837
0
LINE
8
0
10
78.9816634673
20
118.398719837
11
80.855690388
21
117.105172451
0
LINE
8
0
10
80.855690388
20
117.105172451
11
80.8894409541
21
116.91612723
0
LINE
8
0
10
80.8894409541
20
116.91612723
11
80.8224361466
21
116.614627788
0
LINE
8
0
10
80.8224361466
20
116.614627788
11
80.5877665427
21
116.030500887
0
LINE
8
0
10
80.5877665427
20
116.030500887
11
80.3863548224
21
115.439215982
0
LINE
8
0
10
80.3863548224
20
115.439215982
11
80.1802197162
21
114.707517516
0
LINE
8
0
10
80.1802197162
20
114.707517516
11
79.9839603209
21
113.833569724
0
LINE
8
0
10
79.9839603209
20
113.833569724
11
79.8123388473
21
112.816704402
0
LINE
8
0
10
79.8123388473
20
112.816704402
11
79.7029856336
21
111.857354408
0
LINE
8
0
10
79.7029856336
20
111.857354408
11
80.550315505
21
111.272484827
0
LINE
8
0
10
80.550315505
20
111.272484827
11
81.4804923558
21
110.831110424
0
LINE
8
0
10
81.4804923558
20
110.831110424
11
82.2566372148
21
111.405488082
0
LINE
8
0
10
82.2566372148
20
111.405488082
11
83.0514576793
21
112.062549299
0
LINE
8
0
10
83.0514576793
20
112.062549299
11
83.7101889707
21
112.669488817
0
LINE
8
0
10
83.7101889707
20
112.669488817
11
84.2407908774
21
113.213856288
0
LINE
8
0
10
84.2407908774
20
113.213856288
11
84.6521527653
21
113.683926407
0
LINE
8
0
10
84.6521527653
20
113.683926407
11
85.0406866988
21
114.179219696
0
LINE
8
0
10
85.0406866988
20
114.179219696
11
85.2682904716
21
114.387997283
0
LINE
8
0
10
85.2682904716
20
114.387997283
11
85.4488837182
21
114.453291045
0
LINE
8
0
10
85.4488837182
20
114.453291045
11
87.5061420755
21
113.477109818
0
LINE
8
0
10
87.5061420755
20
113.477109818
11
87.5697805666
21
113.295926654
0
LINE
8
0
10
87.5697805666
20
113.295926654
11
87.5520073655
21
112.987583223
0
LINE
8
0
10
87.5520073655
20
112.987583223
11
87.4140772158
21
112.37337696
0
LINE
8
0
10
87.4140772158
20
112.37337696
11
87.3101224932
21
111.757440328
0
LINE
8
0
10
87.3101224932
20
111.757440328
11
87.2240294707
21
111.002150768
0
LINE
8
0
10
87.2240294707
20
111.002150768
11
87.1705026677
21
110.10803815
0
LINE
8
0
10
87.1705026677
20
110.10803815
11
87.1642203158
21
109.076810946
0
LINE
8
0
10
87.1642203158
20
109.076810946
11
87.2101737589
21
108.112342794
0
LINE
8
0
10
87.2101737589
20
108.112342794
11
88.1403506096
21
107.67096839
0
LINE
8
0
10
88.1403506096
20
107.67096839
11
89.1292833479
21
107.384520529
0
LINE
8
0
10
89.1292833479
20
107.384520529
11
89.803240679
21
108.075962539
0
LINE
8
0
10
89.803240679
20
108.075962539
11
90.4823683957
21
108.852013154
0
LINE
8
0
10
90.4823683957
20
108.852013154
11
91.0352093445
21
109.556760895
0
LINE
8
0
10
91.0352093445
20
109.556760895
11
91.4716174125
21
110.179193482
0
LINE
8
0
10
91.4716174125
20
110.179193482
11
91.8022477221
21
110.709163404
0
LINE
8
0
10
91.8022477221
20
110.709163404
11
92.1062996123
21
111.260368001
0
LINE
8
0
10
92.1062996123
20
111.260368001
11
92.2974656959
21
111.502952185
0
LINE
8
0
10
92.2974656959
20
111.502952185
11
92.4652464513
21
111.596369605
0
LINE
8
0
10
92.4652464513
20
111.596369605
11
94.6524543343
21
110.962837116
0
LINE
8
0
10
94.6524543343
20
110.962837116
11
94.7443325469
21
110.794208559
0
LINE
8
0
10
94.7443325469
20
110.794208559
11
94.7762512689
21
110.487007072
0
LINE
8
0
10
94.7762512689
20
110.487007072
11
94.7386328917
21
109.858629067
0
LINE
8
0
10
94.7386328917
20
109.858629067
11
94.7348275396
21
109.233993142
0
LINE
8
0
10
94.7348275396
20
109.233993142
11
94.7710063648
21
108.474674092
0
LINE
8
0
10
94.7710063648
20
108.474674092
11
94.8615984701
21
107.583553694
0
LINE
8
0
10
94.8615984701
20
107.583553694
11
95.0208179497
21
106.564672852
0
LINE
8
0
10
95.0208179497
20
106.564672852
11
95.2208878795
21
105.620065759
0
LINE
8
0
10
95.2208878795
20
105.620065759
11
96.2098206177
21
105.333617898
0
LINE
8
0
10
96.2098206177
20
105.333617898
11
97.231896405
21
105.209515429
0
LINE
8
0
10
97.231896405
20
105.209515429
11
97.7862110673
21
106.000113805
0
LINE
8
0
10
97.7862110673
20
106.000113805
11
98.3320569852
21
106.875054516
0
LINE
8
0
10
98.3320569852
20
106.875054516
11
98.7646893011
21
107.659357883
0
LINE
8
0
10
98.7646893011
20
107.659357883
11
99.0956007907
21
108.343734909
0
LINE
8
0
10
99.0956007907
20
108.343734909
11
99.3369363707
21
108.91987869
0
LINE
8
0
10
99.3369363707
20
108.91987869
11
99.5486314334
21
109.512718686
0
LINE
8
0
10
99.5486314334
20
109.512718686
11
99.6984087267
21
109.782826665
0
LINE
8
0
10
99.6984087267
20
109.782826665
11
99.8490315574
21
109.90194828
0
LINE
8
0
10
99.8490315574
20
109.90194828
11
102.109541431
21
109.627472688
0
LINE
8
0
10
102.109541431
20
109.627472688
11
102.227279768
21
109.475766128
0
LINE
8
0
10
102.227279768
20
109.475766128
11
102.308063734
21
109.177662943
0
LINE
8
0
10
102.308063734
20
109.177662943
11
102.371731426
21
108.551387856
0
LINE
8
0
10
102.371731426
20
108.551387856
11
102.468174001
21
107.934230381
0
LINE
8
0
10
102.468174001
20
107.934230381
11
102.625687661
21
107.190547805
0
LINE
8
0
10
102.625687661
20
107.190547805
11
102.858052387
21
106.325499178
0
LINE
8
0
10
102.858052387
20
106.325499178
11
103.178649997
21
105.345353175
0
LINE
8
0
10
103.178649997
20
105.345353175
11
103.527654707
21
104.44507197
0
LINE
8
0
10
103.527654707
20
104.44507197
11
104.549730495
21
104.320969501
0
LINE
8
0
10
104.549730495
20
104.320969501
11
105.578478105
21
104.362426613
0
LINE
8
0
10
105.578478105
20
104.362426613
11
105.99879364
21
105.231705272
0
LINE
8
0
10
105.99879364
20
105.231705272
11
106.397220637
21
106.182875573
0
LINE
8
0
10
106.397220637
20
106.182875573
11
106.69843937
21
107.026421522
0
LINE
8
0
10
106.69843937
20
107.026421522
11
106.915283847
21
107.755017981
0
LINE
8
0
10
106.915283847
20
107.755017981
11
107.061074233
21
108.362413801
0
LINE
8
0
10
107.061074233
20
108.362413801
11
107.174929677
21
108.981534951
0
LINE
8
0
10
107.174929677
20
108.981534951
11
107.279439027
21
109.27217107
0
LINE
8
0
10
107.279439027
20
109.27217107
11
107.409002881
21
109.413911692
0
LINE
8
0
10
107.409002881
20
109.413911692
11
109.684268726
21
109.505601771
0
LINE
8
0
10
109.684268726
20
109.505601771
11
109.824817826
21
109.374746329
0
LINE
8
0
10
109.824817826
20
109.374746329
11
109.952374775
21
109.093462162
0
LINE
8
0
10
109.952374775
20
109.093462162
11
110.115679576
21
108.485510188
0
LINE
8
0
10
110.115679576
20
108.485510188
11
110.309872266
21
107.891815218
0
LINE
8
0
10
110.309872266
20
107.891815218
11
110.58464124
21
107.183030103
0
LINE
8
0
10
110.58464124
20
107.183030103
11
110.952760462
21
106.366457552
0
LINE
8
0
10
110.952760462
20
106.366457552
11
111.426432893
21
105.450431656
0
LINE
8
0
10
111.426432893
20
105.450431656
11
111.915333345
21
104.617793149
0
LINE
8
0
10
111.915333345
20
104.617793149
11
112.944080956
21
104.65925026
0
LINE
8
0
10
112.944080956
20
104.65925026
11
113.952856366
21
104.865193235
0
LINE
8
0
10
113.952856366
20
104.865193235
11
114.228286822
21
105.790638317
0
LINE
8
0
10
114.228286822
20
105.790638317
11
114.468975848
21
106.793403398
0
LINE
8
0
10
114.468975848
20
106.793403398
11
114.630979591
21
107.674344531
0
LINE
8
0
10
114.630979591
20
107.674344531
11
114.728140898
21
108.428290157
0
LINE
8
0
10
114.728140898
20
108.428290157
11
114.774610195
21
109.051206784
0
LINE
8
0
10
114.774610195
20
109.051206784
11
114.787677225
21
109.680574175
0
LINE
8
0
10
114.787677225
20
109.680574175
11
114.844211894
21
109.984211111
0
LINE
8
0
10
114.844211894
20
109.984211111
11
114.949361135
21
110.144899733
0
LINE
8
0
10
114.949361135
20
110.144899733
11
117.180454762
21
110.600380759
0
LINE
8
0
10
117.180454762
20
110.600380759
11
117.340174477
21
110.493765521
0
LINE
8
0
10
117.340174477
20
110.493765521
11
117.511200751
21
110.236585483
0
LINE
8
0
10
117.511200751
20
110.236585483
11
117.769913152
21
109.662702261
0
LINE
8
0
10
117.769913152
20
109.662702261
11
118.056826469
21
109.107846182
0
LINE
8
0
10
118.056826469
20
109.107846182
11
118.441734385
21
108.452315692
0
LINE
8
0
10
118.441734385
20
108.452315692
11
118.936074009
21
107.705368017
0
LINE
8
0
10
118.936074009
20
107.705368017
11
119.550553393
21
106.877186817
0
LINE
8
0
10
119.550553393
20
106.877186817
11
120.166687322
21
106.133755907
0
LINE
8
0
10
120.166687322
20
106.133755907
11
121.175462733
21
106.339698882
0
LINE
8
0
10
121.175462733
20
106.339698882
11
122.138139191
21
106.704793905
0
LINE
8
0
10
122.138139191
20
106.704793905
11
122.261551064
21
107.662436869
0
LINE
8
0
10
122.261551064
20
107.662436869
11
122.338268398
21
108.69082564
0
LINE
8
0
10
122.338268398
20
108.69082564
11
122.356861341
21
109.586346044
0
LINE
8
0
10
122.356861341
20
109.586346044
11
122.33182305
21
110.346114043
0
LINE
8
0
10
122.33182305
20
110.346114043
11
122.277767728
21
110.968418262
0
LINE
8
0
10
122.277767728
20
110.968418262
11
122.189707914
21
111.591731609
0
LINE
8
0
10
122.189707914
20
111.591731609
11
122.196803684
21
111.900505326
0
LINE
8
0
10
122.196803684
20
111.900505326
11
122.274815002
21
112.075980197
0
LINE
8
0
10
122.274815002
20
112.075980197
11
124.403952259
21
112.883455449
0
LINE
8
0
10
124.403952259
20
112.883455449
11
124.578705932
21
112.803841695
0
LINE
8
0
10
124.578705932
20
112.803841695
11
124.78877204
21
112.577426615
0
LINE
8
0
10
124.78877204
20
112.577426615
11
125.136191526
21
112.052475417
0
LINE
8
0
10
125.136191526
20
112.052475417
11
125.508394565
21
111.550828711
0
LINE
8
0
10
125.508394565
20
111.550828711
11
125.99347251
21
110.965530741
0
LINE
8
0
10
125.99347251
20
110.965530741
11
126.601229399
21
110.307553494
0
LINE
8
0
10
126.601229399
20
110.307553494
11
127.340601044
21
109.588666449
0
LINE
8
0
10
127.340601044
20
109.588666449
11
128.068010905
21
108.953697607
0
LINE
8
0
10
128.068010905
20
108.953697607
11
129.030687362
21
109.31879263
0
LINE
8
0
10
129.030687362
20
109.31879263
11
129.922332052
21
109.833583931
0
LINE
8
0
10
129.922332052
20
109.833583931
11
129.89052904
21
110.798622327
0
LINE
8
0
10
129.89052904
20
110.798622327
11
129.801287745
21
111.826000059
0
LINE
8
0
10
129.801287745
20
111.826000059
11
129.675988338
21
112.712906227
0
LINE
8
0
10
129.675988338
20
112.712906227
11
129.52939893
21
113.458819006
0
LINE
8
0
10
129.52939893
20
113.458819006
11
129.376218993
21
114.064393465
0
LINE
8
0
10
129.376218993
20
114.064393465
11
129.189313038
21
114.665509281
0
LINE
8
0
10
129.189313038
20
114.665509281
11
129.146786132
21
114.971422701
0
LINE
8
0
10
129.146786132
20
114.971422701
11
129.195639075
21
115.157139114
0
LINE
8
0
10
129.195639075
20
115.157139114
11
131.167676424
21
116.295695408
0
LINE
8
0
10
131.167676424
20
116.295695408
11
131.352938027
21
116.245145091
0
LINE
8
0
10
131.352938027
20
116.245145091
11
131.596603367
21
116.055359001
0
LINE
8
0
10
131.596603367
20
116.055359001
11
132.023731956
21
115.592935788
0
LINE
8
0
10
132.023731956
20
115.592935788
11
132.471584854
21
115.157490841
0
LINE
8
0
10
132.471584854
20
115.157490841
11
133.044269565
21
114.6575843
0
LINE
8
0
10
133.044269565
20
114.6575843
11
133.749703134
21
114.105618747
0
LINE
8
0
10
133.749703134
20
114.105618747
11
134.594817702
21
113.514644652
0
LINE
8
0
10
134.594817702
20
113.514644652
11
135.414663962
21
113.004583238
0
LINE
8
0
10
135.414663962
20
113.004583238
11
136.306308652
21
113.51937454
0
LINE
8
0
10
136.306308652
20
113.51937454
11
137.103828445
21
114.170529296
0
LINE
8
0
10
137.103828445
20
114.170529296
11
136.917634228
21
115.117969136
0
LINE
8
0
10
136.917634228
20
115.117969136
11
136.664745607
21
116.117727286
0
LINE
8
0
10
136.664745607
20
116.117727286
11
136.39879904
21
116.973048814
0
LINE
8
0
10
136.39879904
20
116.973048814
11
136.134455102
21
117.685787623
0
LINE
8
0
10
136.134455102
20
117.685787623
11
135.88611783
21
118.258948263
0
LINE
8
0
10
135.88611783
20
118.258948263
11
135.6052065
21
118.822297962
0
LINE
8
0
10
135.6052065
20
118.822297962
11
135.514158343
21
119.117428088
0
LINE
8
0
10
135.514158343
20
119.117428088
11
135.532587646
21
119.308576086
0
LINE
8
0
10
135.532587646
20
119.308576086
11
137.296450355
21
120.748725412
0
LINE
8
0
10
137.296450355
20
120.748725412
11
137.487421711
21
120.72854776
0
LINE
8
0
10
137.487421711
20
120.72854776
11
137.758375478
21
120.580306018
0
LINE
8
0
10
137.758375478
20
120.580306018
11
138.254150764
21
120.192387309
0
LINE
8
0
10
138.254150764
20
120.192387309
11
138.766054366
21
119.834421917
0
LINE
8
0
10
138.766054366
20
119.834421917
11
139.411513609
21
119.432854122
0
LINE
8
0
10
139.411513609
20
119.432854122
11
140.1963535
21
119.00119588
0
LINE
8
0
10
140.1963535
20
119.00119588
11
141.125322968
21
118.553440655
0
LINE
8
0
10
141.125322968
20
118.553440655
11
142.016372039
21
118.181496991
0
LINE
8
0
10
142.016372039
20
118.181496991
11
142.813891832
21
118.832651747
0
LINE
8
0
10
142.813891832
20
118.832651747
11
143.496631385
21
119.603305392
0
LINE
8
0
10
143.496631385
20
119.603305392
11
143.160868296
21
120.508608482
0
LINE
8
0
10
143.160868296
20
120.508608482
11
142.75088203
21
121.454853839
0
LINE
8
0
10
142.75088203
20
121.454853839
11
142.35117618
21
122.256438349
0
LINE
8
0
10
142.35117618
20
122.256438349
11
141.975924081
21
122.917543627
0
LINE
8
0
10
141.975924081
20
122.917543627
11
141.63886128
21
123.443445887
0
LINE
8
0
10
141.63886128
20
123.443445887
11
141.271220031
21
123.95443901
0
LINE
8
0
10
141.271220031
20
123.95443901
11
141.134008722
21
124.231142127
0
LINE
8
0
10
141.134008722
20
124.231142127
11
141.121537075
21
124.422771076
0
LINE
8
0
10
141.121537075
20
124.422771076
11
142.631542027
21
126.127214323
0
LINE
8
0
10
142.631542027
20
126.127214323
11
142.823277077
21
126.137931926
0
LINE
8
0
10
142.823277077
20
126.137931926
11
143.114501712
21
126.035073917
0
LINE
8
0
10
143.114501712
20
126.035073917
11
143.666083375
21
125.731706602
0
LINE
8
0
10
143.666083375
20
125.731706602
11
144.228779647
21
125.46049188
0
LINE
8
0
10
144.228779647
20
125.46049188
11
144.930296366
21
125.167663227
0
LINE
8
0
10
144.930296366
20
125.167663227
11
145.774215638
21
124.867492018
0
LINE
8
0
10
145.774215638
20
124.867492018
11
146.762980185
21
124.574552288
0
LINE
8
0
10
146.762980185
20
124.574552288
11
147.702154364
21
124.350359519
0
LINE
8
0
10
147.702154364
20
124.350359519
11
148.384893917
21
125.121013164
0
LINE
8
0
10
148.384893917
20
125.121013164
11
148.935170634
21
125.991206173
0
LINE
8
0
10
148.935170634
20
125.991206173
11
148.45853476
21
126.830925638
0
LINE
8
0
10
148.45853476
20
126.830925638
11
147.902069279
21
127.699150944
0
LINE
8
0
10
147.902069279
20
127.699150944
11
147.378956317
21
128.426237817
0
LINE
8
0
10
147.378956317
20
128.426237817
11
146.90251489
21
129.018587287
0
LINE
8
0
10
146.90251489
20
129.018587287
11
146.485456308
21
129.483610575
0
LINE
8
0
10
146.485456308
20
129.483610575
11
146.040606855
21
129.929012667
0
LINE
8
0
10
146.040606855
20
129.929012667
11
145.860786095
21
130.18012231
0
LINE
8
0
10
145.860786095
20
130.18012231
11
145.817736508
21
130.367269122
0
LINE
8
0
10
145.817736508
20
130.367269122
11
147.034775368
21
132.291862105
0
LINE
8
0
10
147.034775368
20
132.291862105
11
147.222308275
21
132.333197382
0
LINE
8
0
10
147.222308275
20
132.333197382
11
147.526261212
21
132.278387074
0
LINE
8
0
10
147.526261212
20
132.278387074
11
148.119363578
21
132.067428207
0
LINE
8
0
10
148.119363578
20
132.067428207
11
148.718278981
21
131.889988474
0
LINE
8
0
10
148.718278981
20
131.889988474
11
149.457684263
21
131.713483071
0
LINE
8
0
10
149.457684263
20
131.713483071
11
150.33882585
21
131.552573172
0
LINE
8
0
10
150.33882585
20
131.552573172
11
151.361776992
21
131.422035921
0
LINE
8
0
10
151.361776992
20
131.422035921
11
152.324752162
21
131.351400523
0
LINE
8
0
10
152.324752162
20
131.351400523
11
152.875028879
21
132.221593532
0
LINE
8
0
10
152.875028879
20
132.221593532
11
153.278590881
21
133.168788363
0
LINE
8
0
10
153.278590881
20
133.168788363
11
152.673426842
21
133.92117591
0
LINE
8
0
10
152.673426842
20
133.92117591
11
151.98489431
21
134.688894586
0
LINE
8
0
10
151.98489431
20
134.688894586
11
151.351922586
21
135.322652655
0
LINE
8
0
10
151.351922586
20
135.322652655
11
150.786631413
21
135.830904775
0
LINE
8
0
10
150.786631413
20
135.830904775
11
150.300378649
21
136.223005232
0
LINE
8
0
10
150.300378649
20
136.223005232
11
149.78984236
21
136.591280614
0
LINE
8
0
10
149.78984236
20
136.591280614
11
149.572069412
21
136.810293174
0
LINE
8
0
10
149.572069412
20
136.810293174
11
149.499556846
21
136.988110844
0
LINE
8
0
10
149.499556846
20
136.988110844
11
150.392108947
21
139.083007616
0
LINE
8
0
10
150.392108947
20
139.083007616
11
150.570582707
21
139.153890007
0
LINE
8
0
10
150.570582707
20
139.153890007
11
150.879391725
21
139.148546958
0
LINE
8
0
10
150.879391725
20
139.148546958
11
151.498653753
21
139.035460262
0
LINE
8
0
10
151.498653753
20
139.035460262
11
152.118276694
21
138.956391115
0
LINE
8
0
10
152.118276694
20
138.956391115
11
152.876420329
21
138.900780358
0
LINE
8
0
10
152.876420329
20
138.900780358
11
153.771963127
21
138.883299251
0
LINE
8
0
10
153.771963127
20
138.883299251
11
154.802606969
21
138.918545327
0
LINE
8
0
10
154.802606969
20
138.918545327
11
155.764442577
21
139.003296718
0
LINE
8
0
10
155.764442577
20
139.003296718
11
156.16800458
21
139.950491549
0
LINE
8
0
10
156.16800458
20
139.950491549
11
156.414399825
21
140.950156353
0
LINE
8
0
10
156.414399825
20
140.950156353
11
155.696381051
21
141.595725541
0
LINE
8
0
10
155.696381051
20
141.595725541
11
154.893614098
21
142.243054077
0
LINE
8
0
10
154.893614098
20
142.243054077
11
154.167177248
21
142.76706934
0
LINE
8
0
10
154.167177248
20
142.76706934
11
153.527677074
21
143.178060647
0
LINE
8
0
10
153.527677074
20
143.178060647
11
152.984823818
21
143.487083078
0
LINE
8
0
10
152.984823818
20
143.487083078
11
152.421823314
21
143.76869361
0
LINE
8
0
10
152.421823314
20
143.76869361
11
152.171738384
21
143.949936777
0
LINE
8
0
10
152.171738384
20
143.949936777
11
152.071640876
21
144.113819922
0
LINE
8
0
10
152.071640876
20
144.113819922
11
152.616589588
21
146.324763757
0
LINE
8
0
10
152.616589588
20
146.324763757
11
152.781381824
21
146.423357443
0
LINE
8
0
10
152.781381824
20
146.423357443
11
153.087048932
21
146.467620036
0
LINE
8
0
10
153.087048932
20
146.467620036
11
153.716432061
21
146.455334398
0
LINE
8
0
10
153.716432061
20
146.455334398
11
154.340714631
21
146.476683685
0
LINE
8
0
10
154.340714631
20
146.476683685
11
155.097961098
21
146.543407865
0
LINE
8
0
10
155.097961098
20
146.543407865
11
155.984711019
21
146.6698083
0
LINE
8
0
10
155.984711019
20
146.6698083
11
156.996354425
21
146.869924848
0
LINE
8
0
10
156.996354425
20
146.869924848
11
157.932139436
21
147.107868013
0
LINE
8
0
10
106.963593708
20
155.014232851
11
106.651726172
21
154.981454252
0
LINE
8
0
10
106.651726172
20
154.981454252
11
106.339858636
21
155.014232851
0
LINE
8
0
10
106.339858636
20
155.014232851
11
106.041621208
21
155.111136065
0
LINE
8
0
10
106.041621208
20
155.111136065
11
105.770048294
21
155.26792876
0
LINE
8
0
10
105.770048294
20
155.26792876
11
105.537008934
21
155.477758342
0
LINE
8
0
10
105.537008934
20
155.477758342
11
105.352688066
21
155.731454252
0
LINE
8
0
10
105.352688066
20
155.731454252
11
105.225141398
21
156.01792876
0
LINE
8
0
10
105.225141398
20
156.01792876
11
105.159943329
21
156.324661557
0
LINE
8
0
10
105.159943329
20
156.324661557
11
105.159943329
21
156.638246947
0
LINE
8
0
10
105.159943329
20
156.638246947
11
105.225141398
21
156.944979743
0
LINE
8
0
10
105.225141398
20
156.944979743
11
105.352688066
21
157.231454252
0
LINE
8
0
10
105.352688066
20
157.231454252
11
105.537008934
21
157.485150161
0
LINE
8
0
10
105.537008934
20
157.485150161
11
105.770048294
21
157.694979743
0
LINE
8
0
10
105.770048294
20
157.694979743
11
106.041621208
21
157.851772438
0
LINE
8
0
10
106.041621208
20
157.851772438
11
106.339858636
21
157.948675653
0
LINE
8
0
10
106.339858636
20
157.948675653
11
106.651726172
21
157.981454252
0
LINE
8
0
10
106.651726172
20
157.981454252
11
106.963593708
21
157.948675653
0
LINE
8
0
10
106.963593708
20
157.948675653
11
107.261831137
21
157.851772438
0
LINE
8
0
10
107.261831137
20
157.851772438
11
107.533404051
21
157.694979743
0
LINE
8
0
10
107.533404051
20
157.694979743
11
107.76644341
21
157.485150161
0
LINE
8
0
10
107.76644341
20
157.485150161
11
107.950764278
21
157.231454252
0
LINE
8
0
10
107.950764278
20
157.231454252
11
108.078310947
21
156.944979743
0
LINE
8
0
10
108.078310947
20
156.944979743
11
108.143509015
21
156.638246947
0
LINE
8
0
10
108.143509015
20
156.638246947
11
108.143509015
21
156.324661557
0
LINE
8
0
10
108.143509015
20
156.324661557
11
108.078310947
21
156.01792876
0
LINE
8
0
10
108.078310947
20
156.01792876
11
107.950764278
21
155.731454252
0
LINE
8
0
10
107.950764278
20
155.731454252
11
107.76644341
21
155.477758342
0
LINE
8
0
10
107.76644341
20
155.477758342
11
107.533404051
21
155.26792876
0
LINE
8
0
10
107.533404051
20
155.26792876
11
107.261831137
21
155.111136065
0
LINE
8
0
10
107.261831137
20
155.111136065
11
106.963593708
21
155.014232851
0
LINE
8
0
10
212.550321938
20
42.7868985116
11
212.796717183
21
43.786563316
0
LINE
8
0
10
212.796717183
20
43.786563316
11
212.879564162
21
44.8128073005
0
LINE
8
0
10
212.879564162
20
44.8128073005
11
212.067286962
21
45.3348382258
0
LINE
8
0
10
212.067286962
20
45.3348382258
11
211.171076831
21
45.8450111515
0
LINE
8
0
10
211.171076831
20
45.8450111515
11
210.369989188
21
46.2457118893
0
LINE
8
0
10
210.369989188
20
46.2457118893
11
209.672842731
21
46.5487979247
0
LINE
8
0
10
209.672842731
20
46.5487979247
11
209.087448599
21
46.7667388102
0
LINE
8
0
10
209.087448599
20
46.7667388102
11
208.486565297
21
46.954390928
0
LINE
8
0
10
208.486565297
20
46.954390928
11
208.210645452
21
47.0931705999
0
LINE
8
0
10
208.210645452
20
47.0931705999
11
208.085555476
21
47.2388747315
0
LINE
8
0
10
208.085555476
20
47.2388747315
11
208.268786912
21
49.508603345
0
LINE
8
0
10
208.268786912
20
49.508603345
11
208.415629593
21
49.6323548029
0
LINE
8
0
10
208.415629593
20
49.6323548029
11
208.710238173
21
49.7250766588
0
LINE
8
0
10
208.710238173
20
49.7250766588
11
209.33344171
21
49.8139102709
0
LINE
8
0
10
209.33344171
20
49.8139102709
11
209.946215319
21
49.9351250567
0
LINE
8
0
10
209.946215319
20
49.9351250567
11
210.682952332
21
50.1224560513
0
LINE
8
0
10
210.682952332
20
50.1224560513
11
211.537943018
21
50.389464325
0
LINE
8
0
10
211.537943018
20
50.389464325
11
212.504384956
21
50.7492684301
0
LINE
8
0
10
212.504384956
20
50.7492684301
11
213.389883029
21
51.1342407661
0
LINE
8
0
10
213.389883029
20
51.1342407661
11
213.472730008
21
52.1604847506
0
LINE
8
0
10
213.472730008
20
52.1604847506
11
213.389883029
21
53.1867287351
0
LINE
8
0
10
213.389883029
20
53.1867287351
11
212.504384956
21
53.571701071
0
LINE
8
0
10
212.504384956
20
53.571701071
11
211.537943018
21
53.9315051762
0
LINE
8
0
10
211.537943018
20
53.9315051762
11
210.682952332
21
54.1985134499
0
LINE
8
0
10
210.682952332
20
54.1985134499
11
209.946215319
21
54.3858444445
0
LINE
8
0
10
209.946215319
20
54.3858444445
11
209.33344171
21
54.5070592303
0
LINE
8
0
10
209.33344171
20
54.5070592303
11
208.710238173
21
54.5958928424
0
LINE
8
0
10
208.710238173
20
54.5958928424
11
208.415629593
21
54.6886146982
0
LINE
8
0
10
208.415629593
20
54.6886146982
11
208.268786912
21
54.8123661562
0
LINE
8
0
10
208.268786912
20
54.8123661562
11
208.085555476
21
57.0820947697
0
LINE
8
0
10
208.085555476
20
57.0820947697
11
208.210645452
21
57.2277989013
0
LINE
8
0
10
208.210645452
20
57.2277989013
11
208.486565297
21
57.3665785732
0
LINE
8
0
10
208.486565297
20
57.3665785732
11
209.087448599
21
57.554230691
0
LINE
8
0
10
209.087448599
20
57.554230691
11
209.672842731
21
57.7721715765
0
LINE
8
0
10
209.672842731
20
57.7721715765
11
210.369989188
21
58.0752576118
0
LINE
8
0
10
210.369989188
20
58.0752576118
11
211.171076831
21
58.4759583497
0
LINE
8
0
10
211.171076831
20
58.4759583497
11
212.067286962
21
58.9861312753
0
LINE
8
0
10
212.067286962
20
58.9861312753
11
212.879564162
21
59.5081622007
0
LINE
8
0
10
212.879564162
20
59.5081622007
11
212.796717183
21
60.5344061852
0
LINE
8
0
10
212.796717183
20
60.5344061852
11
212.550321938
21
61.5340709896
0
LINE
8
0
10
212.550321938
20
61.5340709896
11
211.614536927
21
61.7720141548
0
LINE
8
0
10
211.614536927
20
61.7720141548
11
210.602893521
21
61.9721307021
0
LINE
8
0
10
210.602893521
20
61.9721307021
11
209.7161436
21
62.0985311377
0
LINE
8
0
10
209.7161436
20
62.0985311377
11
208.958897133
21
62.1652553172
0
LINE
8
0
10
208.958897133
20
62.1652553172
11
208.334614563
21
62.186604604
0
LINE
8
0
10
208.334614563
20
62.186604604
11
207.705231434
21
62.1743189665
0
LINE
8
0
10
207.705231434
20
62.1743189665
11
207.399564326
21
62.2185815589
0
LINE
8
0
10
207.399564326
20
62.2185815589
11
207.23477209
21
62.3171752455
0
LINE
8
0
10
207.23477209
20
62.3171752455
11
206.689823378
21
64.5281190802
0
LINE
8
0
10
206.689823378
20
64.5281190802
11
206.789920886
21
64.6920022249
0
LINE
8
0
10
206.789920886
20
64.6920022249
11
207.040005816
21
64.8732453922
0
LINE
8
0
10
207.040005816
20
64.8732453922
11
207.603006321
21
65.1548559245
0
LINE
8
0
10
207.603006321
20
65.1548559245
11
208.145859576
21
65.4638783552
0
LINE
8
0
10
208.145859576
20
65.4638783552
11
208.78535975
21
65.8748696622
0
LINE
8
0
10
208.78535975
20
65.8748696622
11
209.5117966
21
66.3988849256
0
LINE
8
0
10
209.5117966
20
66.3988849256
11
210.314563553
21
67.0462134609
0
LINE
8
0
10
210.314563553
20
67.0462134609
11
211.032582327
21
67.6917826489
0
LINE
8
0
10
211.032582327
20
67.6917826489
11
210.786187082
21
68.6914474532
0
LINE
8
0
10
210.786187082
20
68.6914474532
11
210.382625079
21
69.6386422842
0
LINE
8
0
10
210.382625079
20
69.6386422842
11
209.420789471
21
69.7233936758
0
LINE
8
0
10
209.420789471
20
69.7233936758
11
208.390145629
21
69.7586397517
0
LINE
8
0
10
208.390145629
20
69.7586397517
11
207.494602831
21
69.7411586442
0
LINE
8
0
10
207.494602831
20
69.7411586442
11
206.736459196
21
69.6855478875
0
LINE
8
0
10
206.736459196
20
69.6855478875
11
206.116836255
21
69.6064787399
0
LINE
8
0
10
206.116836255
20
69.6064787399
11
205.497574227
21
69.4933920444
0
LINE
8
0
10
205.497574227
20
69.4933920444
11
205.188765209
21
69.4880489955
0
LINE
8
0
10
205.188765209
20
69.4880489955
11
205.010291449
21
69.5589313861
0
LINE
8
0
10
205.010291449
20
69.5589313861
11
204.117739348
21
71.6538281579
0
LINE
8
0
10
204.117739348
20
71.6538281579
11
204.190251914
21
71.8316458284
0
LINE
8
0
10
204.190251914
20
71.8316458284
11
204.408024862
21
72.0506583883
0
LINE
8
0
10
204.408024862
20
72.0506583883
11
204.918561151
21
72.4189337701
0
LINE
8
0
10
204.918561151
20
72.4189337701
11
205.404813915
21
72.8110342275
0
LINE
8
0
10
205.404813915
20
72.8110342275
11
205.970105088
21
73.3192863471
0
LINE
8
0
10
205.970105088
20
73.3192863471
11
206.603076812
21
73.953044416
0
LINE
8
0
10
206.603076812
20
73.953044416
11
207.291609344
21
74.720763092
0
LINE
8
0
10
207.291609344
20
74.720763092
11
207.896773383
21
75.4731506397
0
LINE
8
0
10
207.896773383
20
75.4731506397
11
207.493211381
21
76.4203454706
0
LINE
8
0
10
207.493211381
20
76.4203454706
11
206.942934664
21
77.2905384795
0
LINE
8
0
10
206.942934664
20
77.2905384795
11
205.979959495
21
77.2199030809
0
LINE
8
0
10
205.979959495
20
77.2199030809
11
204.957008352
21
77.0893658307
0
LINE
8
0
10
204.957008352
20
77.0893658307
11
204.075866765
21
76.9284559316
0
LINE
8
0
10
204.075866765
20
76.9284559316
11
203.336461483
21
76.751950528
0
LINE
8
0
10
203.336461483
20
76.751950528
11
202.73754608
21
76.5745107955
0
LINE
8
0
10
202.73754608
20
76.5745107955
11
202.144443714
21
76.3635519279
0
LINE
8
0
10
202.144443714
20
76.3635519279
11
201.840490777
21
76.30874162
0
LINE
8
0
10
201.840490777
20
76.30874162
11
201.65295787
21
76.3500768978
0
LINE
8
0
10
201.65295787
20
76.3500768978
11
200.43591901
21
78.2746698808
0
LINE
8
0
10
200.43591901
20
78.2746698808
11
200.478968597
21
78.4618166928
0
LINE
8
0
10
200.478968597
20
78.4618166928
11
200.658789357
21
78.712926335
0
LINE
8
0
10
200.658789357
20
78.712926335
11
201.10363881
21
79.1583284275
0
LINE
8
0
10
201.10363881
20
79.1583284275
11
201.520697392
21
79.6233517156
0
LINE
8
0
10
201.520697392
20
79.6233517156
11
201.997138819
21
80.2157011849
0
LINE
8
0
10
201.997138819
20
80.2157011849
11
202.520251782
21
80.9427880581
0
LINE
8
0
10
202.520251782
20
80.9427880581
11
203.076717262
21
81.8110133644
0
LINE
8
0
10
203.076717262
20
81.8110133644
11
203.553353136
21
82.6507328296
0
LINE
8
0
10
203.553353136
20
82.6507328296
11
203.003076419
21
83.5209258385
0
LINE
8
0
10
203.003076419
20
83.5209258385
11
202.320336866
21
84.2915794834
0
LINE
8
0
10
202.320336866
20
84.2915794834
11
201.381162687
21
84.0673867144
0
LINE
8
0
10
201.381162687
20
84.0673867144
11
200.392398141
21
83.7744469843
0
LINE
8
0
10
200.392398141
20
83.7744469843
11
199.548478868
21
83.4742757754
0
LINE
8
0
10
199.548478868
20
83.4742757754
11
198.846962149
21
83.1814471222
0
LINE
8
0
10
198.846962149
20
83.1814471222
11
198.284265877
21
82.9102324006
0
LINE
8
0
10
198.284265877
20
82.9102324006
11
197.732684214
21
82.6068650849
0
LINE
8
0
10
197.732684214
20
82.6068650849
11
197.441459579
21
82.504007076
0
LINE
8
0
10
197.441459579
20
82.504007076
11
197.24972453
21
82.5147246791
0
LINE
8
0
10
197.24972453
20
82.5147246791
11
195.739719577
21
84.219167926
0
LINE
8
0
10
195.739719577
20
84.219167926
11
195.752191224
21
84.4107968753
0
LINE
8
0
10
195.752191224
20
84.4107968753
11
195.889402533
21
84.687499992
0
LINE
8
0
10
195.889402533
20
84.687499992
11
196.257043782
21
85.1984931149
0
LINE
8
0
10
196.257043782
20
85.1984931149
11
196.594106583
21
85.7243953749
0
LINE
8
0
10
196.594106583
20
85.7243953749
11
196.969358682
21
86.3855006538
0
LINE
8
0
10
196.969358682
20
86.3855006538
11
197.369064533
21
87.1870851633
0
LINE
8
0
10
197.369064533
20
87.1870851633
11
197.779050798
21
88.1333305204
0
LINE
8
0
10
197.779050798
20
88.1333305204
11
198.114813887
21
89.0386336101
0
LINE
8
0
10
198.114813887
20
89.0386336101
11
197.432074334
21
89.809287255
0
LINE
8
0
10
197.432074334
20
89.809287255
11
196.634554541
21
90.4604420115
0
LINE
8
0
10
196.634554541
20
90.4604420115
11
195.74350547
21
90.0884983469
0
LINE
8
0
10
195.74350547
20
90.0884983469
11
194.814536002
21
89.640743122
0
LINE
8
0
10
194.814536002
20
89.640743122
11
194.029696111
21
89.2090848801
0
LINE
8
0
10
194.029696111
20
89.2090848801
11
193.384236868
21
88.8075170855
0
LINE
8
0
10
193.384236868
20
88.8075170855
11
192.872333266
21
88.4495516937
0
LINE
8
0
10
192.872333266
20
88.4495516937
11
192.37655798
21
88.0616329839
0
LINE
8
0
10
192.37655798
20
88.0616329839
11
192.105604213
21
87.9133912424
0
LINE
8
0
10
192.105604213
20
87.9133912424
11
191.914632858
21
87.8932135905
0
LINE
8
0
10
191.914632858
20
87.8932135905
11
190.150770148
21
89.3333629165
0
LINE
8
0
10
190.150770148
20
89.3333629165
11
190.132340845
21
89.5245109141
0
LINE
8
0
10
190.132340845
20
89.5245109141
11
190.223389002
21
89.81964104
0
LINE
8
0
10
190.223389002
20
89.81964104
11
190.504300332
21
90.3829907398
0
LINE
8
0
10
190.504300332
20
90.3829907398
11
190.752637604
21
90.9561513793
0
LINE
8
0
10
190.752637604
20
90.9561513793
11
191.016981542
21
91.6688901884
0
LINE
8
0
10
191.016981542
20
91.6688901884
11
191.282928109
21
92.5242117164
0
LINE
8
0
10
191.282928109
20
92.5242117164
11
191.53581673
21
93.5239698667
0
LINE
8
0
10
191.53581673
20
93.5239698667
11
191.722010947
21
94.4714097062
0
LINE
8
0
10
191.722010947
20
94.4714097062
11
190.924491154
21
95.1225644627
0
LINE
8
0
10
190.924491154
20
95.1225644627
11
190.032846464
21
95.6373557645
0
LINE
8
0
10
190.032846464
20
95.6373557645
11
189.213000204
21
95.12729435
0
LINE
8
0
10
189.213000204
20
95.12729435
11
188.367885636
21
94.5363202554
0
LINE
8
0
10
188.367885636
20
94.5363202554
11
187.662452067
21
93.9843547022
0
LINE
8
0
10
187.662452067
20
93.9843547022
11
187.089767356
21
93.4844481612
0
LINE
8
0
10
187.089767356
20
93.4844481612
11
186.641914459
21
93.0490032147
0
LINE
8
0
10
186.641914459
20
93.0490032147
11
186.214785869
21
92.5865800017
0
LINE
8
0
10
186.214785869
20
92.5865800017
11
185.971120529
21
92.3967939109
0
LINE
8
0
10
185.971120529
20
92.3967939109
11
185.785858926
21
92.3462435946
0
LINE
8
0
10
185.785858926
20
92.3462435946
11
183.813821578
21
93.4847998886
0
LINE
8
0
10
183.813821578
20
93.4847998886
11
183.764968634
21
93.6705163017
0
LINE
8
0
10
183.764968634
20
93.6705163017
11
183.80749554
21
93.9764297215
0
LINE
8
0
10
183.80749554
20
93.9764297215
11
183.994401495
21
94.5775455369
0
LINE
8
0
10
183.994401495
20
94.5775455369
11
184.147581432
21
95.1831199965
0
LINE
8
0
10
184.147581432
20
95.1831199965
11
184.294170841
21
95.9290327749
0
LINE
8
0
10
184.294170841
20
95.9290327749
11
184.419470247
21
96.8159389432
0
LINE
8
0
10
184.419470247
20
96.8159389432
11
184.508711542
21
97.8433166756
0
LINE
8
0
10
184.508711542
20
97.8433166756
11
184.540514554
21
98.808355071
0
LINE
8
0
10
184.540514554
20
98.808355071
11
183.648869864
21
99.3231463728
0
LINE
8
0
10
183.648869864
20
99.3231463728
11
182.686193407
21
99.6882413957
0
LINE
8
0
10
182.686193407
20
99.6882413957
11
181.958783546
21
99.0532725539
0
LINE
8
0
10
181.958783546
20
99.0532725539
11
181.219411901
21
98.3343855082
0
LINE
8
0
10
181.219411901
20
98.3343855082
11
180.611655012
21
97.6764082615
0
LINE
8
0
10
180.611655012
20
97.6764082615
11
180.126577067
21
97.091110291
0
LINE
8
0
10
180.126577067
20
97.091110291
11
179.754374028
21
96.5894635853
0
LINE
8
0
10
179.754374028
20
96.5894635853
11
179.406954542
21
96.0645123873
0
LINE
8
0
10
179.406954542
20
96.0645123873
11
179.196888434
21
95.8380973073
0
LINE
8
0
10
179.196888434
20
95.8380973073
11
179.022134761
21
95.7584835532
0
LINE
8
0
10
179.022134761
20
95.7584835532
11
176.892997504
21
96.5659588053
0
LINE
8
0
10
176.892997504
20
96.5659588053
11
176.814986186
21
96.7414336763
0
LINE
8
0
10
176.814986186
20
96.7414336763
11
176.807890416
21
97.0502073931
0
LINE
8
0
10
176.807890416
20
97.0502073931
11
176.89595023
21
97.6735207403
0
LINE
8
0
10
176.89595023
20
97.6735207403
11
176.950005553
21
98.2958249596
0
LINE
8
0
10
176.950005553
20
98.2958249596
11
176.975043843
21
99.0555929582
0
LINE
8
0
10
176.975043843
20
99.0555929582
11
176.9564509
21
99.9511133628
0
LINE
8
0
10
176.9564509
20
99.9511133628
11
176.879733566
21
100.979502134
0
LINE
8
0
10
176.879733566
20
100.979502134
11
176.756321693
21
101.937145097
0
LINE
8
0
10
176.756321693
20
101.937145097
11
175.793645235
21
102.30224012
0
LINE
8
0
10
175.793645235
20
102.30224012
11
174.784869825
21
102.508183095
0
LINE
8
0
10
174.784869825
20
102.508183095
11
174.168735895
21
101.764752185
0
LINE
8
0
10
174.168735895
20
101.764752185
11
173.554256511
21
100.936570985
0
LINE
8
0
10
173.554256511
20
100.936570985
11
173.059916887
21
100.18962331
0
LINE
8
0
10
173.059916887
20
100.18962331
11
172.675008971
21
99.5340928202
0
LINE
8
0
10
172.675008971
20
99.5340928202
11
172.388095654
21
98.9792367415
0
LINE
8
0
10
172.388095654
20
98.9792367415
11
172.129383253
21
98.4053535189
0
LINE
8
0
10
172.129383253
20
98.4053535189
11
171.958356979
21
98.1481734813
0
LINE
8
0
10
171.958356979
20
98.1481734813
11
171.798637265
21
98.0415582438
0
LINE
8
0
10
171.798637265
20
98.0415582438
11
169.567543637
21
98.4970392691
0
LINE
8
0
10
169.567543637
20
98.4970392691
11
169.462394396
21
98.6577278911
0
LINE
8
0
10
169.462394396
20
98.6577278911
11
169.405859727
21
98.9613648278
0
LINE
8
0
10
169.405859727
20
98.9613648278
11
169.392792697
21
99.5907322184
0
LINE
8
0
10
169.392792697
20
99.5907322184
11
169.3463234
21
100.213648845
0
LINE
8
0
10
169.3463234
20
100.213648845
11
169.249162093
21
100.967594472
0
LINE
8
0
10
169.249162093
20
100.967594472
11
169.08715835
21
101.848535605
0
LINE
8
0
10
169.08715835
20
101.848535605
11
168.846469324
21
102.851300685
0
LINE
8
0
10
168.846469324
20
102.851300685
11
168.571038868
21
103.776745767
0
LINE
8
0
10
168.571038868
20
103.776745767
11
167.562263458
21
103.982688742
0
LINE
8
0
10
167.562263458
20
103.982688742
11
166.533515848
21
104.024145853
0
LINE
8
0
10
166.533515848
20
104.024145853
11
166.044615395
21
103.191507346
0
LINE
8
0
10
166.044615395
20
103.191507346
11
165.570942964
21
102.27548145
0
LINE
8
0
10
165.570942964
20
102.27548145
11
165.202823743
21
101.458908899
0
LINE
8
0
10
165.202823743
20
101.458908899
11
164.928054768
21
100.750123785
0
LINE
8
0
10
164.928054768
20
100.750123785
11
164.733862078
21
100.156428814
0
LINE
8
0
10
164.733862078
20
100.156428814
11
164.570557277
21
99.5484768407
0
LINE
8
0
10
164.570557277
20
99.5484768407
11
164.443000328
21
99.2671926734
0
LINE
8
0
10
164.443000328
20
99.2671926734
11
164.302451228
21
99.1363372312
0
LINE
8
0
10
164.302451228
20
99.1363372312
11
162.027185383
21
99.2280273103
0
LINE
8
0
10
162.027185383
20
99.2280273103
11
161.897621529
21
99.3697679324
0
LINE
8
0
10
161.897621529
20
99.3697679324
11
161.793112179
21
99.6604040519
0
LINE
8
0
10
161.793112179
20
99.6604040519
11
161.679256735
21
100.279525201
0
LINE
8
0
10
161.679256735
20
100.279525201
11
161.533466349
21
100.886921022
0
LINE
8
0
10
161.533466349
20
100.886921022
11
161.316621872
21
101.615517481
0
LINE
8
0
10
161.316621872
20
101.615517481
11
161.015403139
21
102.459063429
0
LINE
8
0
10
161.015403139
20
102.459063429
11
160.616976142
21
103.410233731
0
LINE
8
0
10
160.616976142
20
103.410233731
11
160.196660607
21
104.27951239
0
LINE
8
0
10
160.196660607
20
104.27951239
11
159.167912997
21
104.320969501
0
LINE
8
0
10
159.167912997
20
104.320969501
11
158.14583721
21
104.196867032
0
LINE
8
0
10
158.14583721
20
104.196867032
11
157.796832499
21
103.296585827
0
LINE
8
0
10
157.796832499
20
103.296585827
11
157.476234889
21
102.316439824
0
LINE
8
0
10
157.476234889
20
102.316439824
11
157.243870163
21
101.451391198
0
LINE
8
0
10
157.243870163
20
101.451391198
11
157.086356503
21
100.707708621
0
LINE
8
0
10
157.086356503
20
100.707708621
11
156.989913928
21
100.090551146
0
LINE
8
0
10
156.989913928
20
100.090551146
11
156.926246236
21
99.4642760591
0
LINE
8
0
10
156.926246236
20
99.4642760591
11
156.84546227
21
99.1661728743
0
LINE
8
0
10
156.84546227
20
99.1661728743
11
156.727723933
21
99.0144663146
0
LINE
8
0
10
156.727723933
20
99.0144663146
11
154.46721406
21
98.7399907226
0
LINE
8
0
10
154.46721406
20
98.7399907226
11
154.316591229
21
98.8591123372
0
LINE
8
0
10
154.316591229
20
98.8591123372
11
154.166813936
21
99.1292203166
0
LINE
8
0
10
154.166813936
20
99.1292203166
11
153.955118873
21
99.7220603119
0
LINE
8
0
10
153.955118873
20
99.7220603119
11
153.713783293
21
100.298204093
0
LINE
8
0
10
153.713783293
20
100.298204093
11
153.382871803
21
100.98258112
0
LINE
8
0
10
153.382871803
20
100.98258112
11
152.950239487
21
101.766884487
0
LINE
8
0
10
152.950239487
20
101.766884487
11
152.404393569
21
102.641825198
0
LINE
8
0
10
152.404393569
20
102.641825198
11
151.850078907
21
103.432423573
0
LINE
8
0
10
151.850078907
20
103.432423573
11
150.82800312
21
103.308321104
0
LINE
8
0
10
150.82800312
20
103.308321104
11
149.839070382
21
103.021873243
0
LINE
8
0
10
149.839070382
20
103.021873243
11
149.639000452
21
102.077266151
0
LINE
8
0
10
149.639000452
20
102.077266151
11
149.479780972
21
101.058385308
0
LINE
8
0
10
149.479780972
20
101.058385308
11
149.389188867
21
100.16726491
0
LINE
8
0
10
149.389188867
20
100.16726491
11
149.353010042
21
99.4079458601
0
LINE
8
0
10
149.353010042
20
99.4079458601
11
149.356815394
21
98.7833099353
0
LINE
8
0
10
149.356815394
20
98.7833099353
11
149.394433771
21
98.1549319302
0
LINE
8
0
10
149.394433771
20
98.1549319302
11
149.362515049
21
97.8477304437
0
LINE
8
0
10
149.362515049
20
97.8477304437
11
149.270636836
21
97.6791018867
0
LINE
8
0
10
149.270636836
20
97.6791018867
11
147.083428953
21
97.0455693974
0
LINE
8
0
10
147.083428953
20
97.0455693974
11
146.915648198
21
97.1389868171
0
LINE
8
0
10
146.915648198
20
97.1389868171
11
146.724482114
21
97.3815710017
0
LINE
8
0
10
146.724482114
20
97.3815710017
11
146.420430224
21
97.9327755986
0
LINE
8
0
10
146.420430224
20
97.9327755986
11
146.089799915
21
98.46274552
0
LINE
8
0
10
146.089799915
20
98.46274552
11
145.653391847
21
99.0851781074
0
LINE
8
0
10
145.653391847
20
99.0851781074
11
145.100550898
21
99.7899258481
0
LINE
8
0
10
145.100550898
20
99.7899258481
11
144.421423181
21
100.565976464
0
LINE
8
0
10
144.421423181
20
100.565976464
11
143.74746585
21
101.257418473
0
LINE
8
0
10
143.74746585
20
101.257418473
11
142.758533112
21
100.970970612
0
LINE
8
0
10
142.758533112
20
100.970970612
11
141.828356261
21
100.529596208
0
LINE
8
0
10
141.828356261
20
100.529596208
11
141.782402818
21
99.565128056
0
LINE
8
0
10
141.782402818
20
99.565128056
11
141.78868517
21
98.5339008522
0
LINE
8
0
10
141.78868517
20
98.5339008522
11
141.842211973
21
97.639788234
0
LINE
8
0
10
141.842211973
20
97.639788234
11
141.928304995
21
96.8844986742
0
LINE
8
0
10
141.928304995
20
96.8844986742
11
142.032259718
21
96.268562042
0
LINE
8
0
10
142.032259718
20
96.268562042
11
142.170189868
21
95.6543557791
0
LINE
8
0
10
142.170189868
20
95.6543557791
11
142.187963069
21
95.3460123481
0
LINE
8
0
10
142.187963069
20
95.3460123481
11
142.124324578
21
95.1648291848
0
LINE
8
0
10
142.124324578
20
95.1648291848
11
140.06706622
21
94.1886479569
0
LINE
8
0
10
140.06706622
20
94.1886479569
11
139.886472974
21
94.2539417197
0
LINE
8
0
10
139.886472974
20
94.2539417197
11
139.658869201
21
94.4627193064
0
LINE
8
0
10
139.658869201
20
94.4627193064
11
139.270335267
21
94.9580125954
0
LINE
8
0
10
139.270335267
20
94.9580125954
11
138.858973379
21
95.428082714
0
LINE
8
0
10
138.858973379
20
95.428082714
11
138.328371473
21
95.9724501858
0
LINE
8
0
10
138.328371473
20
95.9724501858
11
137.669640181
21
96.5793897036
0
LINE
8
0
10
137.669640181
20
96.5793897036
11
136.874819717
21
97.2364509208
0
LINE
8
0
10
136.874819717
20
97.2364509208
11
136.098674858
21
97.8108285787
0
LINE
8
0
10
136.098674858
20
97.8108285787
11
135.168498007
21
97.3694541752
0
LINE
8
0
10
135.168498007
20
97.3694541752
11
134.321168136
21
96.7845845942
0
LINE
8
0
10
134.321168136
20
96.7845845942
11
134.430521349
21
95.8252346003
0
LINE
8
0
10
134.430521349
20
95.8252346003
11
134.602142823
21
94.808369278
0
LINE
8
0
10
134.602142823
20
94.808369278
11
134.798402218
21
93.9344214865
0
LINE
8
0
10
134.798402218
20
93.9344214865
11
135.004537324
21
93.2027230201
0
LINE
8
0
10
135.004537324
20
93.2027230201
11
135.205949045
21
92.6114381158
0
LINE
8
0
10
135.205949045
20
92.6114381158
11
135.440618649
21
92.0273112146
0
LINE
8
0
10
135.440618649
20
92.0273112146
11
135.507623456
21
91.725811772
0
LINE
8
0
10
135.507623456
20
91.725811772
11
135.47387289
21
91.5367665513
0
LINE
8
0
10
135.47387289
20
91.5367665513
11
133.599845969
21
90.2432191657
0
LINE
8
0
10
133.599845969
20
90.2432191657
11
133.411117502
21
90.2786981974
0
LINE
8
0
10
133.411117502
20
90.2786981974
11
133.152970858
21
90.4482619565
0
LINE
8
0
10
133.152970858
20
90.4482619565
11
132.690017706
21
90.8748161016
0
LINE
8
0
10
132.690017706
20
90.8748161016
11
132.208578297
21
91.2728118483
0
LINE
8
0
10
132.208578297
20
91.2728118483
11
131.597524862
21
91.7250153728
0
LINE
8
0
10
131.597524862
20
91.7250153728
11
130.849964022
21
92.218427253
0
LINE
8
0
10
130.849964022
20
92.218427253
11
129.960036243
21
92.7394815312
0
LINE
8
0
10
129.960036243
20
92.7394815312
11
129.1018056
21
93.1819187584
0
LINE
8
0
10
129.1018056
20
93.1819187584
11
128.254475728
21
92.5970491774
0
LINE
8
0
10
128.254475728
20
92.5970491774
11
127.511938235
21
91.8838322339
0
LINE
8
0
10
127.511938235
20
91.8838322339
11
127.773765914
21
90.9544470596
0
LINE
8
0
10
127.773765914
20
90.9544470596
11
128.106281604
21
89.9782798966
0
LINE
8
0
10
128.106281604
20
89.9782798966
11
128.440190576
21
89.1471317204
0
LINE
8
0
10
128.440190576
20
89.1471317204
11
128.761028975
21
88.4579749534
0
LINE
8
0
10
128.761028975
20
88.4579749534
11
129.054681235
21
87.9066557453
0
LINE
8
0
10
129.054681235
20
87.9066557453
11
129.380012474
21
87.3677367858
0
LINE
8
0
10
129.380012474
20
87.3677367858
11
129.494513499
21
87.0808900088
0
LINE
8
0
10
129.494513499
20
87.0808900088
11
129.491524979
21
86.8888789025
0
LINE
8
0
10
129.491524979
20
86.8888789025
11
127.849265808
21
85.3114675571
0
LINE
8
0
10
127.849265808
20
85.3114675571
11
127.657290088
21
85.3162129694
0
LINE
8
0
10
127.657290088
20
85.3162129694
11
127.375286435
21
85.4421712886
0
LINE
8
0
10
127.375286435
20
85.4421712886
11
126.849904308
21
85.7889387614
0
LINE
8
0
10
126.849904308
20
85.7889387614
11
126.310856405
21
86.1045522555
0
LINE
8
0
10
126.310856405
20
86.1045522555
11
125.635177405
21
86.4528799989
0
LINE
8
0
10
125.635177405
20
86.4528799989
11
124.818148451
21
86.8199851331
0
LINE
8
0
10
124.818148451
20
86.8199851331
11
123.856162018
21
87.1915374402
0
LINE
8
0
10
123.856162018
20
87.1915374402
11
122.938073314
21
87.4905753449
0
LINE
8
0
10
122.938073314
20
87.4905753449
11
122.195535821
21
86.7773584014
0
LINE
8
0
10
122.195535821
20
86.7773584014
11
121.577022036
21
85.9542660395
0
LINE
8
0
10
121.577022036
20
85.9542660395
11
121.984542982
21
85.0789162725
0
LINE
8
0
10
121.984542982
20
85.0789162725
11
122.469340906
21
84.1687294856
0
LINE
8
0
10
122.469340906
20
84.1687294856
11
122.932251388
21
83.4019072259
0
LINE
8
0
10
122.932251388
20
83.4019072259
11
123.359483534
21
82.7731409565
0
LINE
8
0
10
123.359483534
20
82.7731409565
11
123.737770895
21
82.2760663226
0
LINE
8
0
10
123.737770895
20
82.2760663226
11
124.14533786
21
81.7963130228
0
LINE
8
0
10
124.14533786
20
81.7963130228
11
124.304369585
21
81.5315480922
0
LINE
8
0
10
124.304369585
20
81.5315480922
11
124.332220514
21
81.3415440871
0
LINE
8
0
10
124.332220514
20
81.3415440871
11
122.964262742
21
79.5211229072
0
LINE
8
0
10
122.964262742
20
79.5211229072
11
122.774011839
21
79.4950117965
0
LINE
8
0
10
122.774011839
20
79.4950117965
11
122.475454925
21
79.5741024214
0
LINE
8
0
10
122.475454925
20
79.5741024214
11
121.901250944
21
79.8321021266
0
LINE
8
0
10
121.901250944
20
79.8321021266
11
121.318555605
21
80.0571591442
0
LINE
8
0
10
121.318555605
20
80.0571591442
11
120.595750771
21
80.2925896011
0
LINE
8
0
10
120.595750771
20
80.2925896011
11
119.730414322
21
80.5238801591
0
LINE
8
0
10
119.730414322
20
80.5238801591
11
118.721284179
21
80.7363074856
0
LINE
8
0
10
118.721284179
20
80.7363074856
11
117.76711543
21
80.884201143
0
LINE
8
0
10
117.76711543
20
80.884201143
11
117.148601645
21
80.0611087811
0
LINE
8
0
10
117.148601645
20
80.0611087811
11
116.670130752
21
79.1494586608
0
LINE
8
0
10
116.670130752
20
79.1494586608
11
117.212790386
21
78.3508154004
0
LINE
8
0
10
117.212790386
20
78.3508154004
11
117.837314532
21
77.5301823491
0
LINE
8
0
10
117.837314532
20
77.5301823491
11
118.417237386
21
76.8475462997
0
LINE
8
0
10
118.417237386
20
76.8475462997
11
118.93979819
21
76.2954552441
0
LINE
8
0
10
118.93979819
20
76.2954552441
11
119.392923208
21
75.8654991562
0
LINE
8
0
10
119.392923208
20
75.8654991562
11
119.872170129
21
75.4573368745
0
LINE
8
0
10
119.872170129
20
75.4573368745
11
120.071613717
21
75.221511063
0
LINE
8
0
10
120.071613717
20
75.221511063
11
120.12958277
21
75.0384351631
0
LINE
8
0
10
120.12958277
20
75.0384351631
11
119.071355785
21
73.022152101
0
LINE
8
0
10
119.071355785
20
73.022152101
11
118.887757097
21
72.9658607312
0
LINE
8
0
10
118.887757097
20
72.9658607312
11
118.580379388
21
72.9960352563
0
LINE
8
0
10
118.580379388
20
72.9960352563
11
117.972225135
21
73.158585137
0
LINE
8
0
10
117.972225135
20
73.158585137
11
117.360973863
21
73.2872568197
0
LINE
8
0
10
117.360973863
20
73.2872568197
11
116.609763461
21
73.4036924648
0
LINE
8
0
10
116.609763461
20
73.4036924648
11
115.718531277
21
73.4931781426
0
LINE
8
0
10
115.718531277
20
73.4931781426
11
114.688393365
21
73.5409787322
0
LINE
8
0
10
114.688393365
20
73.5409787322
11
113.722857039
21
73.5338977744
0
LINE
8
0
10
113.722857039
20
73.5338977744
11
113.244386146
21
72.6222476541
0
LINE
8
0
10
113.244386146
20
72.6222476541
11
112.918350288
21
71.6456510345
0
LINE
8
0
10
112.918350288
20
71.6456510345
11
113.582094011
21
70.9443987215
0
LINE
8
0
10
113.582094011
20
70.9443987215
11
114.330169532
21
70.2345733709
0
LINE
8
0
10
114.330169532
20
70.2345733709
11
115.012085061
21
69.6538034469
0
LINE
8
0
10
115.012085061
20
69.6538034469
11
115.616440473
21
69.1926864734
0
LINE
8
0
10
115.616440473
20
69.1926864734
11
116.132667448
21
68.8409845684
0
LINE
8
0
10
116.132667448
20
68.8409845684
11
116.671182081
21
68.5149844935
0
LINE
8
0
10
116.671182081
20
68.5149844935
11
116.905872048
21
68.3142055657
0
LINE
8
0
10
116.905872048
20
68.3142055657
11
116.992457856
21
68.1427993406
0
LINE
8
0
10
116.992457856
20
68.1427993406
11
116.271369181
21
65.9828750685
0
LINE
8
0
10
116.271369181
20
65.9828750685
11
116.099177819
21
65.8978613566
0
LINE
8
0
10
116.099177819
20
65.8978613566
11
115.790940237
21
65.8783382775
0
LINE
8
0
10
115.790940237
20
65.8783382775
11
115.164586586
21
65.9412283772
0
LINE
8
0
10
115.164586586
20
65.9412283772
11
114.540610469
21
65.9701821959
0
LINE
8
0
10
114.540610469
20
65.9701821959
11
113.780450453
21
65.9646074072
0
LINE
8
0
10
113.780450453
20
65.9646074072
11
112.886404979
21
65.9099705728
0
LINE
8
0
10
112.886404979
20
65.9099705728
11
111.861939329
21
65.7919064154
0
LINE
8
0
10
111.861939329
20
65.7919064154
11
110.910042311
21
65.6300342354
0
LINE
8
0
10
110.910042311
20
65.6300342354
11
110.584006453
21
64.6534376159
0
LINE
8
0
10
110.584006453
20
64.6534376159
11
110.418849789
21
63.6371878365
0
LINE
8
0
10
110.418849789
20
63.6371878365
11
111.186486987
21
63.0514885375
0
LINE
8
0
10
111.186486987
20
63.0514885375
11
112.03873912
21
62.4708549914
0
LINE
8
0
10
112.03873912
20
62.4708549914
11
112.804986069
21
62.0069928286
0
LINE
8
0
10
112.804986069
20
62.0069928286
11
113.475483602
21
61.6487926246
0
LINE
8
0
10
113.475483602
20
61.6487926246
11
114.041442526
21
61.3844537971
0
LINE
8
0
10
114.041442526
20
61.3844537971
11
114.625277626
21
61.1490591598
0
LINE
8
0
10
114.625277626
20
61.1490591598
11
114.889135624
21
60.9885271845
0
LINE
8
0
10
114.889135624
20
60.9885271845
11
115.002095661
21
60.8332299653
0
LINE
8
0
10
115.002095661
20
60.8332299653
11
114.636821114
21
58.5856053873
0
LINE
8
0
10
114.636821114
20
58.5856053873
11
114.480496743
21
58.4740711438
0
LINE
8
0
10
114.480496743
20
58.4740711438
11
114.179382478
21
58.405356098
0
LINE
8
0
10
114.179382478
20
58.405356098
11
113.551051662
21
58.3669575961
0
LINE
8
0
10
113.551051662
20
58.3669575961
11
112.930511352
21
58.2954436622
0
LINE
8
0
10
112.930511352
20
58.2954436622
11
112.181089468
21
58.1680028238
0
LINE
8
0
10
112.181089468
20
58.1680028238
11
111.307386013
21
57.9706585424
0
LINE
8
0
10
111.307386013
20
57.9706585424
11
110.315125747
21
57.6897874378
0
LINE
8
0
10
110.315125747
20
57.6897874378
11
109.401521668
21
57.37731644
0
LINE
8
0
10
109.401521668
20
57.37731644
11
109.236365004
21
56.3610666607
0
LINE
8
0
10
109.236365004
20
56.3610666607
11
109.236365004
21
55.331484057
0
LINE
8
0
10
109.236365004
20
55.331484057
11
110.088014277
21
54.8765070762
0
LINE
8
0
10
110.088014277
20
54.8765070762
11
111.022370139
21
54.4401034383
0
LINE
8
0
10
111.022370139
20
54.4401034383
11
111.853103115
21
54.1051628233
0
LINE
8
0
10
111.853103115
20
54.1051628233
11
112.572377235
21
53.8591565859
0
LINE
8
0
10
112.572377235
20
53.8591565859
11
113.173410069
21
53.6890270727
0
LINE
8
0
10
113.173410069
20
53.6890270727
11
113.787444613
21
53.5503344703
0
LINE
8
0
10
113.787444613
20
53.5503344703
11
114.073636859
21
53.4342071414
0
LINE
8
0
10
114.073636859
20
53.4342071414
11
114.210045519
21
53.2990410446
0
LINE
8
0
10
114.210045519
20
53.2990410446
11
114.210045519
21
51.0219284566
0
LINE
8
0
10
114.210045519
20
51.0219284566
11
114.073636859
21
50.8867623598
0
LINE
8
0
10
114.073636859
20
50.8867623598
11
113.787444613
21
50.7706350308
0
LINE
8
0
10
113.787444613
20
50.7706350308
11
113.173410069
21
50.6319424285
0
LINE
8
0
10
113.173410069
20
50.6319424285
11
112.572377235
21
50.4618129153
0
LINE
8
0
10
112.572377235
20
50.4618129153
11
111.853103115
21
50.2158066779
0
LINE
8
0
10
111.853103115
20
50.2158066779
11
111.022370139
21
49.8808660628
0
LINE
8
0
10
111.022370139
20
49.8808660628
11
110.088014277
21
49.4444624249
0
LINE
8
0
10
110.088014277
20
49.4444624249
11
109.236365004
21
48.9894854442
0
LINE
8
0
10
109.236365004
20
48.9894854442
11
109.236365004
21
47.9599028405
0
LINE
8
0
10
109.236365004
20
47.9599028405
11
109.401521668
21
46.9436530612
0
LINE
8
0
10
109.401521668
20
46.9436530612
11
110.315125747
21
46.6311820634
0
LINE
8
0
10
110.315125747
20
46.6311820634
11
111.307386013
21
46.3503109588
0
LINE
8
0
10
111.307386013
20
46.3503109588
11
112.181089468
21
46.1529666774
0
LINE
8
0
10
112.181089468
20
46.1529666774
11
112.930511352
21
46.025525839
0
LINE
8
0
10
112.930511352
20
46.025525839
11
113.551051662
21
45.9540119051
0
LINE
8
0
10
113.551051662
20
45.9540119051
11
114.179382478
21
45.9156134032
0
LINE
8
0
10
114.179382478
20
45.9156134032
11
114.480496743
21
45.8468983574
0
LINE
8
0
10
114.480496743
20
45.8468983574
11
114.636821114
21
45.7353641139
0
LINE
8
0
10
114.636821114
20
45.7353641139
11
115.002095661
21
43.4877395359
0
LINE
8
0
10
115.002095661
20
43.4877395359
11
114.889135624
21
43.3324423167
0
LINE
8
0
10
114.889135624
20
43.3324423167
11
114.625277626
21
43.1719103414
0
LINE
8
0
10
114.625277626
20
43.1719103414
11
114.041442526
21
42.936515704
0
LINE
8
0
10
114.041442526
20
42.936515704
11
113.475483602
21
42.6721768766
0
LINE
8
0
10
113.475483602
20
42.6721768766
11
112.804986069
21
42.3139766725
0
LINE
8
0
10
112.804986069
20
42.3139766725
11
112.03873912
21
41.8501145098
0
LINE
8
0
10
112.03873912
20
41.8501145098
11
111.186486987
21
41.2694809637
0
LINE
8
0
10
111.186486987
20
41.2694809637
11
110.418849789
21
40.6837816647
0
LINE
8
0
10
110.418849789
20
40.6837816647
11
110.584006453
21
39.6675318853
0
LINE
8
0
10
110.584006453
20
39.6675318853
11
110.910042311
21
38.6909352658
0
LINE
8
0
10
110.910042311
20
38.6909352658
11
111.861939329
21
38.5290630857
0
LINE
8
0
10
111.861939329
20
38.5290630857
11
112.886404979
21
38.4109989284
0
LINE
8
0
10
112.886404979
20
38.4109989284
11
113.780450453
21
38.356362094
0
LINE
8
0
10
113.780450453
20
38.356362094
11
114.540610469
21
38.3507873053
0
LINE
8
0
10
114.540610469
20
38.3507873053
11
115.164586586
21
38.379741124
0
LINE
8
0
10
115.164586586
20
38.379741124
11
115.790940237
21
38.4426312237
0
LINE
8
0
10
115.790940237
20
38.4426312237
11
116.099177819
21
38.4231081446
0
LINE
8
0
10
116.099177819
20
38.4231081446
11
116.271369181
21
38.3380944327
0
LINE
8
0
10
116.271369181
20
38.3380944327
11
116.992457856
21
36.1781701606
0
LINE
8
0
10
116.992457856
20
36.1781701606
11
116.905872048
21
36.0067639355
0
LINE
8
0
10
116.905872048
20
36.0067639355
11
116.671182081
21
35.8059850077
0
LINE
8
0
10
116.671182081
20
35.8059850077
11
116.132667448
21
35.4799849328
0
LINE
8
0
10
116.132667448
20
35.4799849328
11
115.616440473
21
35.1282830278
0
LINE
8
0
10
115.616440473
20
35.1282830278
11
115.012085061
21
34.6671660543
0
LINE
8
0
10
115.012085061
20
34.6671660543
11
114.330169532
21
34.0863961303
0
LINE
8
0
10
114.330169532
20
34.0863961303
11
113.582094011
21
33.3765707797
0
LINE
8
0
10
113.582094011
20
33.3765707797
11
112.918350288
21
32.6753184667
0
LINE
8
0
10
112.918350288
20
32.6753184667
11
113.244386146
21
31.6987218471
0
LINE
8
0
10
113.244386146
20
31.6987218471
11
113.722857039
21
30.7870717268
0
LINE
8
0
10
113.722857039
20
30.7870717268
11
114.688393365
21
30.7799907689
0
LINE
8
0
10
114.688393365
20
30.7799907689
11
115.718531277
21
30.8277913586
0
LINE
8
0
10
115.718531277
20
30.8277913586
11
116.609763461
21
30.9172770364
0
LINE
8
0
10
116.609763461
20
30.9172770364
11
117.360973863
21
31.0337126815
0
LINE
8
0
10
117.360973863
20
31.0337126815
11
117.972225135
21
31.1623843642
0
LINE
8
0
10
117.972225135
20
31.1623843642
11
118.580379388
21
31.3249342449
0
LINE
8
0
10
118.580379388
20
31.3249342449
11
118.887757097
21
31.35510877
0
LINE
8
0
10
118.887757097
20
31.35510877
11
119.071355785
21
31.2988174002
0
LINE
8
0
10
119.071355785
20
31.2988174002
11
120.12958277
21
29.2825343381
0
LINE
8
0
10
120.12958277
20
29.2825343381
11
120.071613717
21
29.0994584382
0
LINE
8
0
10
120.071613717
20
29.0994584382
11
119.872170129
21
28.8636326267
0
LINE
8
0
10
119.872170129
20
28.8636326267
11
119.392923208
21
28.455470345
0
LINE
8
0
10
119.392923208
20
28.455470345
11
118.93979819
21
28.0255142571
0
LINE
8
0
10
118.93979819
20
28.0255142571
11
118.417237386
21
27.4734232015
0
LINE
8
0
10
118.417237386
20
27.4734232015
11
117.837314532
21
26.7907871521
0
LINE
8
0
10
117.837314532
20
26.7907871521
11
117.212790386
21
25.9701541008
0
LINE
8
0
10
117.212790386
20
25.9701541008
11
116.670130752
21
25.1715108403
0
LINE
8
0
10
116.670130752
20
25.1715108403
11
117.148601645
21
24.25986072
0
LINE
8
0
10
117.148601645
20
24.25986072
11
117.76711543
21
23.4367683582
0
LINE
8
0
10
117.76711543
20
23.4367683582
11
118.721284179
21
23.5846620156
0
LINE
8
0
10
118.721284179
20
23.5846620156
11
119.730414322
21
23.7970893421
0
LINE
8
0
10
119.730414322
20
23.7970893421
11
120.595750771
21
24.0283799001
0
LINE
8
0
10
120.595750771
20
24.0283799001
11
121.318555605
21
24.2638103569
0
LINE
8
0
10
121.318555605
20
24.2638103569
11
121.901250944
21
24.4888673745
0
LINE
8
0
10
121.901250944
20
24.4888673745
11
122.475454925
21
24.7468670797
0
LINE
8
0
10
122.475454925
20
24.7468670797
11
122.774011839
21
24.8259577047
0
LINE
8
0
10
122.774011839
20
24.8259577047
11
122.964262742
21
24.799846594
0
LINE
8
0
10
122.964262742
20
24.799846594
11
124.332220514
21
22.979425414
0
LINE
8
0
10
124.332220514
20
22.979425414
11
124.304369585
21
22.789421409
0
LINE
8
0
10
124.304369585
20
22.789421409
11
124.14533786
21
22.5246564784
0
LINE
8
0
10
124.14533786
20
22.5246564784
11
123.737770895
21
22.0449031786
0
LINE
8
0
10
123.737770895
20
22.0449031786
11
123.359483534
21
21.5478285446
0
LINE
8
0
10
123.359483534
20
21.5478285446
11
122.932251388
21
20.9190622753
0
LINE
8
0
10
122.932251388
20
20.9190622753
11
122.469340906
21
20.1522400156
0
LINE
8
0
10
122.469340906
20
20.1522400156
11
121.984542982
21
19.2420532287
0
LINE
8
0
10
121.984542982
20
19.2420532287
11
121.577022036
21
18.3667034616
0
LINE
8
0
10
121.577022036
20
18.3667034616
11
122.195535821
21
17.5436110998
0
LINE
8
0
10
122.195535821
20
17.5436110998
11
122.938073314
21
16.8303941563
0
LINE
8
0
10
122.938073314
20
16.8303941563
11
123.856162018
21
17.1294320609
0
LINE
8
0
10
123.856162018
20
17.1294320609
11
124.818148451
21
17.5009843681
0
LINE
8
0
10
124.818148451
20
17.5009843681
11
125.635177405
21
17.8680895023
0
LINE
8
0
10
125.635177405
20
17.8680895023
11
126.310856405
21
18.2164172457
0
LINE
8
0
10
126.310856405
20
18.2164172457
11
126.849904308
21
18.5320307397
0
LINE
8
0
10
126.849904308
20
18.5320307397
11
127.375286435
21
18.8787982126
0
LINE
8
0
10
127.375286435
20
18.8787982126
11
127.657290088
21
19.0047565318
0
LINE
8
0
10
127.657290088
20
19.0047565318
11
127.849265808
21
19.0095019441
0
LINE
8
0
10
127.849265808
20
19.0095019441
11
129.491524979
21
17.4320905987
0
LINE
8
0
10
129.491524979
20
17.4320905987
11
129.494513499
21
17.2400794924
0
LINE
8
0
10
129.494513499
20
17.2400794924
11
129.380012474
21
16.9532327154
0
LINE
8
0
10
129.380012474
20
16.9532327154
11
129.054681235
21
16.4143137559
0
LINE
8
0
10
129.054681235
20
16.4143137559
11
128.761028975
21
15.8629945478
0
LINE
8
0
10
128.761028975
20
15.8629945478
11
128.440190576
21
15.1738377808
0
LINE
8
0
10
128.440190576
20
15.1738377808
11
128.106281604
21
14.3426896046
0
LINE
8
0
10
128.106281604
20
14.3426896046
11
127.773765914
21
13.3665224416
0
LINE
8
0
10
127.773765914
20
13.3665224416
11
127.511938235
21
12.4371372673
0
LINE
8
0
10
127.511938235
20
12.4371372673
11
128.254475728
21
11.7239203238
0
LINE
8
0
10
128.254475728
20
11.7239203238
11
129.1018056
21
11.1390507428
0
LINE
8
0
10
129.1018056
20
11.1390507428
11
129.960036243
21
11.58148797
0
LINE
8
0
10
129.960036243
20
11.58148797
11
130.849964022
21
12.1025422482
0
LINE
8
0
10
130.849964022
20
12.1025422482
11
131.597524862
21
12.5959541284
0
LINE
8
0
10
131.597524862
20
12.5959541284
11
132.208578297
21
13.0481576529
0
LINE
8
0
10
132.208578297
20
13.0481576529
11
132.690017706
21
13.4461533996
0
LINE
8
0
10
132.690017706
20
13.4461533996
11
133.152970858
21
13.8727075447
0
LINE
8
0
10
133.152970858
20
13.8727075447
11
133.411117502
21
14.0422713038
0
LINE
8
0
10
133.411117502
20
14.0422713038
11
133.599845969
21
14.0777503355
0
LINE
8
0
10
133.599845969
20
14.0777503355
11
135.47387289
21
12.7842029499
0
LINE
8
0
10
135.47387289
20
12.7842029499
11
135.507623456
21
12.5951577292
0
LINE
8
0
10
135.507623456
20
12.5951577292
11
135.440618649
21
12.2936582866
0
LINE
8
0
10
135.440618649
20
12.2936582866
11
135.205949045
21
11.7095313854
0
LINE
8
0
10
135.205949045
20
11.7095313854
11
135.004537324
21
11.1182464811
0
LINE
8
0
10
135.004537324
20
11.1182464811
11
134.798402218
21
10.3865480147
0
LINE
8
0
10
134.798402218
20
10.3865480147
11
134.602142823
21
9.51260022315
0
LINE
8
0
10
134.602142823
20
9.51260022315
11
134.430521349
21
8.49573490088
0
LINE
8
0
10
134.430521349
20
8.49573490088
11
134.321168136
21
7.53638490699
0
LINE
8
0
10
134.321168136
20
7.53638490699
11
135.168498007
21
6.951515326
0
LINE
8
0
10
135.168498007
20
6.951515326
11
136.098674858
21
6.51014092247
0
LINE
8
0
10
136.098674858
20
6.51014092247
11
136.874819717
21
7.08451858042
0
LINE
8
0
10
136.874819717
20
7.08451858042
11
137.669640181
21
7.74157979757
0
LINE
8
0
10
137.669640181
20
7.74157979757
11
138.328371473
21
8.34851931539
0
LINE
8
0
10
138.328371473
20
8.34851931539
11
138.858973379
21
8.89288678714
0
LINE
8
0
10
138.858973379
20
8.89288678714
11
139.270335267
21
9.36295690574
0
LINE
8
0
10
139.270335267
20
9.36295690574
11
139.658869201
21
9.85825019476
0
LINE
8
0
10
139.658869201
20
9.85825019476
11
139.886472974
21
10.0670277815
0
LINE
8
0
10
139.886472974
20
10.0670277815
11
140.06706622
21
10.1323215443
0
LINE
8
0
10
140.06706622
20
10.1323215443
11
142.124324578
21
9.15614031635
0
LINE
8
0
10
142.124324578
20
9.15614031635
11
142.187963069
21
8.9749571531
0
LINE
8
0
10
142.187963069
20
8.9749571531
11
142.170189868
21
8.66661372211
0
LINE
8
0
10
142.170189868
20
8.66661372211
11
142.032259718
21
8.05240745918
0
LINE
8
0
10
142.032259718
20
8.05240745918
11
141.928304995
21
7.436470827
0
LINE
8
0
10
141.928304995
20
7.436470827
11
141.842211973
21
6.68118126717
0
LINE
8
0
10
141.842211973
20
6.68118126717
11
141.78868517
21
5.78706864902
0
LINE
8
0
10
141.78868517
20
5.78706864902
11
141.782402818
21
4.7558414452
0
LINE
8
0
10
141.782402818
20
4.7558414452
11
141.828356261
21
3.7913732927
0
LINE
8
0
10
141.828356261
20
3.7913732927
11
142.758533112
21
3.34999888916
0
LINE
8
0
10
142.758533112
20
3.34999888916
11
143.74746585
21
3.06355102828
0
LINE
8
0
10
143.74746585
20
3.06355102828
11
144.421423181
21
3.75499303738
0
LINE
8
0
10
144.421423181
20
3.75499303738
11
145.100550898
21
4.5310436531
0
LINE
8
0
10
145.100550898
20
4.5310436531
11
145.653391847
21
5.23579139376
0
LINE
8
0
10
145.653391847
20
5.23579139376
11
146.089799915
21
5.85822398121
0
LINE
8
0
10
146.089799915
20
5.85822398121
11
146.420430224
21
6.38819390256
0
LINE
8
0
10
146.420430224
20
6.38819390256
11
146.724482114
21
6.9393984995
0
LINE
8
0
10
146.724482114
20
6.9393984995
11
146.915648198
21
7.18198268407
0
LINE
8
0
10
146.915648198
20
7.18198268407
11
147.083428953
21
7.27540010377
0
LINE
8
0
10
147.083428953
20
7.27540010377
11
149.270636836
21
6.64186761449
0
LINE
8
0
10
149.270636836
20
6.64186761449
11
149.362515049
21
6.47323905749
0
LINE
8
0
10
149.362515049
20
6.47323905749
11
149.394433771
21
6.16603757099
0
LINE
8
0
10
149.394433771
20
6.16603757099
11
149.356815394
21
5.53765956587
0
LINE
8
0
10
149.356815394
20
5.53765956587
11
149.353010042
21
4.9130236411
0
LINE
8
0
10
149.353010042
20
4.9130236411
11
149.389188867
21
4.1537045907
0
LINE
8
0
10
149.389188867
20
4.1537045907
11
149.479780972
21
3.2625841931
0
LINE
8
0
10
149.479780972
20
3.2625841931
11
149.639000452
21
2.24370335062
0
LINE
8
0
10
149.639000452
20
2.24370335062
11
149.839070382
21
1.29909625805
0
LINE
8
0
10
149.839070382
20
1.29909625805
11
150.82800312
21
1.01264839717
0
LINE
8
0
10
150.82800312
20
1.01264839717
11
151.850078907
21
0.888545928073
0
LINE
8
0
10
151.850078907
20
0.888545928073
11
152.404393569
21
1.67914430348
0
LINE
8
0
10
152.404393569
20
1.67914430348
11
152.950239487
21
2.55408501446
0
LINE
8
0
10
152.950239487
20
2.55408501446
11
153.382871803
21
3.33838838167
0
LINE
8
0
10
153.382871803
20
3.33838838167
11
153.713783293
21
4.02276540774
0
LINE
8
0
10
153.713783293
20
4.02276540774
11
153.955118873
21
4.59890918927
0
LINE
8
0
10
153.955118873
20
4.59890918927
11
154.166813936
21
5.1917491846
0
LINE
8
0
10
154.166813936
20
5.1917491846
11
154.316591229
21
5.46185716402
0
LINE
8
0
10
154.316591229
20
5.46185716402
11
154.467214059
21
5.58097877854
0
LINE
8
0
10
154.467214059
20
5.58097877854
11
156.727723933
21
5.30650318662
0
LINE
8
0
10
156.727723933
20
5.30650318662
11
156.84546227
21
5.15479662692
0
LINE
8
0
10
156.84546227
20
5.15479662692
11
156.926246236
21
4.85669344206
0
LINE
8
0
10
156.926246236
20
4.85669344206
11
156.989913928
21
4.230418355
0
LINE
8
0
10
156.989913928
20
4.230418355
11
157.086356503
21
3.61326088
0
LINE
8
0
10
157.086356503
20
3.61326088
11
157.243870163
21
2.86957830357
0
LINE
8
0
10
157.243870163
20
2.86957830357
11
157.476234889
21
2.00452967672
0
LINE
8
0
10
157.476234889
20
2.00452967672
11
157.796832499
21
1.02438367422
0
LINE
8
0
10
157.796832499
20
1.02438367422
11
158.14583721
21
0.124102469093
0
LINE
8
0
10
158.14583721
20
0.124102469093
11
159.167912997
21
0.0
0
LINE
8
0
10
159.167912997
20
0.0
11
160.196660607
21
0.0414571114563
0
LINE
8
0
10
160.196660607
20
0.0414571114563
11
160.616976142
21
0.910735770534
0
LINE
8
0
10
160.616976142
20
0.910735770534
11
161.015403139
21
1.86190607194
0
LINE
8
0
10
161.015403139
20
1.86190607194
11
161.316621872
21
2.70545202047
0
LINE
8
0
10
161.316621872
20
2.70545202047
11
161.533466349
21
3.43404847968
0
LINE
8
0
10
161.533466349
20
3.43404847968
11
161.679256735
21
4.04144430007
0
LINE
8
0
10
161.679256735
20
4.04144430007
11
161.793112179
21
4.66056544932
0
LINE
8
0
10
161.793112179
20
4.66056544932
11
161.897621529
21
4.9512015688
0
LINE
8
0
10
161.897621529
20
4.9512015688
11
162.027185383
21
5.09294219091
0
LINE
8
0
10
162.027185383
20
5.09294219091
11
164.302451228
21
5.18463227
0
LINE
8
0
10
164.302451228
20
5.18463227
11
164.443000328
21
5.0537768278
0
LINE
8
0
10
164.443000328
20
5.0537768278
11
164.570557277
21
4.77249266048
0
LINE
8
0
10
164.570557277
20
4.77249266048
11
164.733862078
21
4.16454068727
0
LINE
8
0
10
164.733862078
20
4.16454068727
11
164.928054768
21
3.57084571645
0
LINE
8
0
10
164.928054768
20
3.57084571645
11
165.202823743
21
2.86206060209
0
LINE
8
0
10
165.202823743
20
2.86206060209
11
165.570942964
21
2.04548805105
0
LINE
8
0
10
165.570942964
20
2.04548805105
11
166.044615395
21
1.12946215514
0
LINE
8
0
10
166.044615395
20
1.12946215514
11
166.533515848
21
0.296823647776
0
LINE
8
0
10
166.533515848
20
0.296823647776
11
167.562263458
21
0.338280759233
0
LINE
8
0
10
167.562263458
20
0.338280759233
11
168.571038868
21
0.544223733828
0
LINE
8
0
10
168.571038868
20
0.544223733828
11
168.846469324
21
1.46966881591
0
LINE
8
0
10
168.846469324
20
1.46966881591
11
169.08715835
21
2.47243389658
0
LINE
8
0
10
169.08715835
20
2.47243389658
11
169.249162093
21
3.35337502945
0
LINE
8
0
10
169.249162093
20
3.35337502945
11
169.3463234
21
4.10732065622
0
LINE
8
0
10
169.3463234
20
4.10732065622
11
169.392792697
21
4.73023728277
0
LINE
8
0
10
169.392792697
20
4.73023728277
11
169.405859727
21
5.35960467339
0
LINE
8
0
10
169.405859727
20
5.35960467339
11
169.462394396
21
5.66324161009
0
LINE
8
0
10
169.462394396
20
5.66324161009
11
169.567543637
21
5.82393023213
0
LINE
8
0
10
169.567543637
20
5.82393023213
11
171.798637265
21
6.27941125734
0
LINE
8
0
10
171.798637265
20
6.27941125734
11
171.958356979
21
6.17279601987
0
LINE
8
0
10
171.958356979
20
6.17279601987
11
172.129383253
21
5.91561598226
0
LINE
8
0
10
172.129383253
20
5.91561598226
11
172.388095654
21
5.34173275967
0
LINE
8
0
10
172.388095654
20
5.34173275967
11
172.675008971
21
4.78687668093
0
LINE
8
0
10
172.675008971
20
4.78687668093
11
173.059916887
21
4.13134619079
0
LINE
8
0
10
173.059916887
20
4.13134619079
11
173.554256511
21
3.3843985157
0
LINE
8
0
10
173.554256511
20
3.3843985157
11
174.168735895
21
2.55621731592
0
LINE
8
0
10
174.168735895
20
2.55621731592
11
174.784869825
21
1.8127864063
0
LINE
8
0
10
174.784869825
20
1.8127864063
11
175.793645235
21
2.01872938089
0
LINE
8
0
10
175.793645235
20
2.01872938089
11
176.756321693
21
2.38382440376
0
LINE
8
0
10
176.756321693
20
2.38382440376
11
176.879733566
21
3.34146736734
0
LINE
8
0
10
176.879733566
20
3.34146736734
11
176.9564509
21
4.3698561384
0
LINE
8
0
10
176.9564509
20
4.3698561384
11
176.975043843
21
5.26537654301
0
LINE
8
0
10
176.975043843
20
5.26537654301
11
176.950005553
21
6.02514454163
0
LINE
8
0
10
176.950005553
20
6.02514454163
11
176.89595023
21
6.64744876093
0
LINE
8
0
10
176.89595023
20
6.64744876093
11
176.807890416
21
7.27076210808
0
LINE
8
0
10
176.807890416
20
7.27076210808
11
176.814986186
21
7.57953582484
0
LINE
8
0
10
176.814986186
20
7.57953582484
11
176.892997504
21
7.7550106959
0
LINE
8
0
10
176.892997504
20
7.7550106959
11
179.022134761
21
8.56248594795
0
LINE
8
0
10
179.022134761
20
8.56248594795
11
179.196888434
21
8.48287219385
0
LINE
8
0
10
179.196888434
20
8.48287219385
11
179.406954542
21
8.25645711384
0
LINE
8
0
10
179.406954542
20
8.25645711384
11
179.754374028
21
7.73150591588
0
LINE
8
0
10
179.754374028
20
7.73150591588
11
180.126577067
21
7.22985921021
0
LINE
8
0
10
180.126577067
20
7.22985921021
11
180.611655012
21
6.64456123964
0
LINE
8
0
10
180.611655012
20
6.64456123964
11
181.219411901
21
5.98658399294
0
LINE
8
0
10
181.219411901
20
5.98658399294
11
181.958783546
21
5.26769694733
0
LINE
8
0
10
181.958783546
20
5.26769694733
11
182.686193407
21
4.6327281055
0
LINE
8
0
10
182.686193407
20
4.6327281055
11
183.648869864
21
4.99782312837
0
LINE
8
0
10
183.648869864
20
4.99782312837
11
184.540514554
21
5.5126144302
0
LINE
8
0
10
184.540514554
20
5.5126144302
11
184.508711542
21
6.47765282555
0
LINE
8
0
10
184.508711542
20
6.47765282555
11
184.419470247
21
7.50503055801
0
LINE
8
0
10
184.419470247
20
7.50503055801
11
184.294170841
21
8.39193672628
0
LINE
8
0
10
184.294170841
20
8.39193672628
11
184.147581432
21
9.13784950468
0
LINE
8
0
10
184.147581432
20
9.13784950468
11
183.994401495
21
9.74342396432
0
LINE
8
0
10
183.994401495
20
9.74342396432
11
183.80749554
21
10.3445397797
0
LINE
8
0
10
183.80749554
20
10.3445397797
11
183.764968634
21
10.6504531995
0
LINE
8
0
10
183.764968634
20
10.6504531995
11
183.813821578
21
10.8361696126
0
LINE
8
0
10
183.813821578
20
10.8361696126
11
185.785858926
21
11.9747259066
0
LINE
8
0
10
185.785858926
20
11.9747259066
11
185.971120529
21
11.9241755902
0
LINE
8
0
10
185.971120529
20
11.9241755902
11
186.214785869
21
11.7343894995
0
LINE
8
0
10
186.214785869
20
11.7343894995
11
186.641914459
21
11.2719662864
0
LINE
8
0
10
186.641914459
20
11.2719662864
11
187.089767356
21
10.83652134
0
LINE
8
0
10
187.089767356
20
10.83652134
11
187.662452067
21
10.336614799
0
LINE
8
0
10
187.662452067
20
10.336614799
11
188.367885636
21
9.78464924577
0
LINE
8
0
10
188.367885636
20
9.78464924577
11
189.213000204
21
9.1936751512
0
LINE
8
0
10
189.213000204
20
9.1936751512
11
190.032846464
21
8.68361373664
0
LINE
8
0
10
190.032846464
20
8.68361373664
11
190.924491154
21
9.19840503846
0
LINE
8
0
10
190.924491154
20
9.19840503846
11
191.722010947
21
9.84955979494
0
LINE
8
0
10
191.722010947
20
9.84955979494
11
191.53581673
21
10.7969996345
0
LINE
8
0
10
191.53581673
20
10.7969996345
11
191.282928109
21
11.7967577848
0
LINE
8
0
10
191.282928109
20
11.7967577848
11
191.016981542
21
12.6520793128
0
LINE
8
0
10
191.016981542
20
12.6520793128
11
190.752637604
21
13.3648181218
0
LINE
8
0
10
190.752637604
20
13.3648181218
11
190.504300332
21
13.9379787614
0
LINE
8
0
10
190.504300332
20
13.9379787614
11
190.223389002
21
14.5013284612
0
LINE
8
0
10
190.223389002
20
14.5013284612
11
190.132340845
21
14.7964585871
0
LINE
8
0
10
190.132340845
20
14.7964585871
11
190.150770148
21
14.9876065847
0
LINE
8
0
10
190.150770148
20
14.9876065847
11
191.914632858
21
16.4277559106
0
LINE
8
0
10
191.914632858
20
16.4277559106
11
192.105604213
21
16.4075782587
0
LINE
8
0
10
192.105604213
20
16.4075782587
11
192.37655798
21
16.2593365173
0
LINE
8
0
10
192.37655798
20
16.2593365173
11
192.872333266
21
15.8714178075
0
LINE
8
0
10
192.872333266
20
15.8714178075
11
193.384236868
21
15.5134524157
0
LINE
8
0
10
193.384236868
20
15.5134524157
11
194.029696111
21
15.1118846211
0
LINE
8
0
10
194.029696111
20
15.1118846211
11
194.814536002
21
14.6802263792
0
LINE
8
0
10
194.814536002
20
14.6802263792
11
195.74350547
21
14.2324711543
0
LINE
8
0
10
195.74350547
20
14.2324711543
11
196.634554541
21
13.8605274897
0
LINE
8
0
10
196.634554541
20
13.8605274897
11
197.432074334
21
14.5116822462
0
LINE
8
0
10
197.432074334
20
14.5116822462
11
198.114813887
21
15.2823358911
0
LINE
8
0
10
198.114813887
20
15.2823358911
11
197.779050798
21
16.1876389808
0
LINE
8
0
10
197.779050798
20
16.1876389808
11
197.369064533
21
17.1338843379
0
LINE
8
0
10
197.369064533
20
17.1338843379
11
196.969358682
21
17.9354688474
0
LINE
8
0
10
196.969358682
20
17.9354688474
11
196.594106583
21
18.5965741263
0
LINE
8
0
10
196.594106583
20
18.5965741263
11
196.257043782
21
19.1224763863
0
LINE
8
0
10
196.257043782
20
19.1224763863
11
195.889402533
21
19.6334695092
0
LINE
8
0
10
195.889402533
20
19.6334695092
11
195.752191224
21
19.9101726259
0
LINE
8
0
10
195.752191224
20
19.9101726259
11
195.739719577
21
20.1018015752
0
LINE
8
0
10
195.739719577
20
20.1018015752
11
197.24972453
21
21.8062448221
0
LINE
8
0
10
197.24972453
20
21.8062448221
11
197.441459579
21
21.8169624252
0
LINE
8
0
10
197.441459579
20
21.8169624252
11
197.732684214
21
21.7141044163
0
LINE
8
0
10
197.732684214
20
21.7141044163
11
198.284265877
21
21.4107371006
0
LINE
8
0
10
198.284265877
20
21.4107371006
11
198.846962149
21
21.139522379
0
LINE
8
0
10
198.846962149
20
21.139522379
11
199.548478868
21
20.8466937257
0
LINE
8
0
10
199.548478868
20
20.8466937257
11
200.392398141
21
20.5465225169
0
LINE
8
0
10
200.392398141
20
20.5465225169
11
201.381162687
21
20.2535827868
0
LINE
8
0
10
201.381162687
20
20.2535827868
11
202.320336866
21
20.0293900177
0
LINE
8
0
10
202.320336866
20
20.0293900177
11
203.003076419
21
20.8000436627
0
LINE
8
0
10
203.003076419
20
20.8000436627
11
203.553353136
21
21.6702366716
0
LINE
8
0
10
203.553353136
20
21.6702366716
11
203.076717262
21
22.5099561368
0
LINE
8
0
10
203.076717262
20
22.5099561368
11
202.520251782
21
23.378181443
0
LINE
8
0
10
202.520251782
20
23.378181443
11
201.997138819
21
24.1052683163
0
LINE
8
0
10
201.997138819
20
24.1052683163
11
201.520697392
21
24.6976177855
0
LINE
8
0
10
201.520697392
20
24.6976177855
11
201.10363881
21
25.1626410737
0
LINE
8
0
10
201.10363881
20
25.1626410737
11
200.658789357
21
25.6080431662
0
LINE
8
0
10
200.658789357
20
25.6080431662
11
200.478968597
21
25.8591528084
0
LINE
8
0
10
200.478968597
20
25.8591528084
11
200.43591901
21
26.0462996204
0
LINE
8
0
10
200.43591901
20
26.0462996204
11
201.65295787
21
27.9708926034
0
LINE
8
0
10
201.65295787
20
27.9708926034
11
201.840490777
21
28.0122278812
0
LINE
8
0
10
201.840490777
20
28.0122278812
11
202.144443714
21
27.9574175732
0
LINE
8
0
10
202.144443714
20
27.9574175732
11
202.73754608
21
27.7464587057
0
LINE
8
0
10
202.73754608
20
27.7464587057
11
203.336461483
21
27.5690189732
0
LINE
8
0
10
203.336461483
20
27.5690189732
11
204.075866765
21
27.3925135696
0
LINE
8
0
10
204.075866765
20
27.3925135696
11
204.957008352
21
27.2316036705
0
LINE
8
0
10
204.957008352
20
27.2316036705
11
205.979959495
21
27.1010664203
0
LINE
8
0
10
205.979959495
20
27.1010664203
11
206.942934664
21
27.0304310217
0
LINE
8
0
10
206.942934664
20
27.0304310217
11
207.493211381
21
27.9006240306
0
LINE
8
0
10
207.493211381
20
27.9006240306
11
207.896773383
21
28.8478188615
0
LINE
8
0
10
207.896773383
20
28.8478188615
11
207.291609344
21
29.6002064092
0
LINE
8
0
10
207.291609344
20
29.6002064092
11
206.603076812
21
30.3679250852
0
LINE
8
0
10
206.603076812
20
30.3679250852
11
205.970105088
21
31.0016831541
0
LINE
8
0
10
205.970105088
20
31.0016831541
11
205.404813915
21
31.5099352736
0
LINE
8
0
10
205.404813915
20
31.5099352736
11
204.918561151
21
31.902035731
0
LINE
8
0
10
204.918561151
20
31.902035731
11
204.408024862
21
32.2703111129
0
LINE
8
0
10
204.408024862
20
32.2703111129
11
204.190251914
21
32.4893236728
0
LINE
8
0
10
204.190251914
20
32.4893236728
11
204.117739348
21
32.6671413432
0
LINE
8
0
10
204.117739348
20
32.6671413432
11
205.010291449
21
34.7620381151
0
LINE
8
0
10
205.010291449
20
34.7620381151
11
205.188765209
21
34.8329205057
0
LINE
8
0
10
205.188765209
20
34.8329205057
11
205.497574227
21
34.8275774568
0
LINE
8
0
10
205.497574227
20
34.8275774568
11
206.116836255
21
34.7144907613
0
LINE
8
0
10
206.116836255
20
34.7144907613
11
206.736459196
21
34.6354216137
0
LINE
8
0
10
206.736459196
20
34.6354216137
11
207.494602831
21
34.579810857
0
LINE
8
0
10
207.494602831
20
34.579810857
11
208.390145629
21
34.5623297494
0
LINE
8
0
10
208.390145629
20
34.5623297494
11
209.420789471
21
34.5975758254
0
LINE
8
0
10
209.420789471
20
34.5975758254
11
210.382625079
21
34.682327217
0
LINE
8
0
10
210.382625079
20
34.682327217
11
210.786187082
21
35.6295220479
0
LINE
8
0
10
210.786187082
20
35.6295220479
11
211.032582327
21
36.6291868523
0
LINE
8
0
10
211.032582327
20
36.6291868523
11
210.314563553
21
37.2747560403
0
LINE
8
0
10
210.314563553
20
37.2747560403
11
209.5117966
21
37.9220845756
0
LINE
8
0
10
209.5117966
20
37.9220845756
11
208.78535975
21
38.446099839
0
LINE
8
0
10
208.78535975
20
38.446099839
11
208.145859576
21
38.857091146
0
LINE
8
0
10
208.145859576
20
38.857091146
11
207.603006321
21
39.1661135767
0
LINE
8
0
10
207.603006321
20
39.1661135767
11
207.040005816
21
39.447724109
0
LINE
8
0
10
207.040005816
20
39.447724109
11
206.789920886
21
39.6289672763
0
LINE
8
0
10
206.789920886
20
39.6289672763
11
206.689823378
21
39.792850421
0
LINE
8
0
10
206.689823378
20
39.792850421
11
207.23477209
21
42.0037942556
0
LINE
8
0
10
207.23477209
20
42.0037942556
11
207.399564326
21
42.1023879423
0
LINE
8
0
10
207.399564326
20
42.1023879423
11
207.705231434
21
42.1466505347
0
LINE
8
0
10
207.705231434
20
42.1466505347
11
208.334614563
21
42.1343648972
0
LINE
8
0
10
208.334614563
20
42.1343648972
11
208.958897133
21
42.155714184
0
LINE
8
0
10
208.958897133
20
42.155714184
11
209.7161436
21
42.2224383635
0
LINE
8
0
10
209.7161436
20
42.2224383635
11
210.602893521
21
42.3488387991
0
LINE
8
0
10
210.602893521
20
42.3488387991
11
211.614536927
21
42.5489553463
0
LINE
8
0
10
211.614536927
20
42.5489553463
11
212.550321938
21
42.7868985116
0
LINE
8
0
10
161.58177621
20
50.6932633495
11
161.269908674
21
50.6604847506
0
LINE
8
0
10
161.269908674
20
50.6604847506
11
160.958041138
21
50.6932633495
0
LINE
8
0
10
160.958041138
20
50.6932633495
11
160.65980371
21
50.7901665641
0
LINE
8
0
10
160.65980371
20
50.7901665641
11
160.388230796
21
50.946959259
0
LINE
8
0
10
160.388230796
20
50.946959259
11
160.155191436
21
51.1567888411
0
LINE
8
0
10
160.155191436
20
51.1567888411
11
159.970870569
21
51.4104847506
0
LINE
8
0
10
159.970870569
20
51.4104847506
11
159.8433239
21
51.696959259
0
LINE
8
0
10
159.8433239
20
51.696959259
11
159.778125831
21
52.0036920557
0
LINE
8
0
10
159.778125831
20
52.0036920557
11
159.778125831
21
52.3172774455
0
LINE
8
0
10
159.778125831
20
52.3172774455
11
159.8433239
21
52.6240102422
0
LINE
8
0
10
159.8433239
20
52.6240102422
11
159.970870569
21
52.9104847506
0
LINE
8
0
10
159.970870569
20
52.9104847506
11
160.155191436
21
53.1641806601
0
LINE
8
0
10
160.155191436
20
53.1641806601
11
160.388230796
21
53.3740102422
0
LINE
8
0
10
160.388230796
20
53.3740102422
11
160.65980371
21
53.5308029371
0
LINE
8
0
10
160.65980371
20
53.5308029371
11
160.958041138
21
53.6277061517
0
LINE
8
0
10
160.958041138
20
53.6277061517
11
161.269908674
21
53.6604847506
0
LINE
8
0
10
161.269908674
20
53.6604847506
11
161.58177621
21
53.6277061517
0
LINE
8
0
10
161.58177621
20
53.6277061517
11
161.880013639
21
53.5308029371
0
LINE
8
0
10
161.880013639
20
53.5308029371
11
162.151586553
21
53.3740102422
0
LINE
8
0
10
162.151586553
20
53.3740102422
11
162.384625912
21
53.1641806601
0
LINE
8
0
10
162.384625912
20
53.1641806601
11
162.56894678
21
52.9104847506
0
LINE
8
0
10
162.56894678
20
52.9104847506
11
162.696493449
21
52.6240102422
0
LINE
8
0
10
162.696493449
20
52.6240102422
11
162.761691517
21
52.3172774455
0
LINE
8
0
10
162.761691517
20
52.3172774455
11
162.761691517
21
52.0036920557
0
LINE
8
0
10
162.761691517
20
52.0036920557
11
162.696493449
21
51.696959259
0
LINE
8
0
10
162.696493449
20
51.696959259
11
162.56894678
21
51.4104847506
0
LINE
8
0
10
162.56894678
20
51.4104847506
11
162.384625912
21
51.1567888411
0
LINE
8
0
10
162.384625912
20
51.1567888411
11
162.151586553
21
50.946959259
0
LINE
8
0
10
162.151586553
20
50.946959259
11
161.880013639
21
50.7901665641
0
LINE
8
0
10
161.880013639
20
50.7901665641
11
161.58177621
21
50.6932633495
0
ENDSEC
0
EOF
