0
SECTION
2
HEADER
9
$ACADVER
1
AC1009
9
$INSBASE
10
0.0
20
0.0
30
0.0
9
$EXTMIN
10
0.0
20
0.0
9
$EXTMAX
10
0.0
20
0.0
0
ENDSEC
0
SECTION
2
TABLES
0
TABLE
2
LTYPE
70
1
0
LTYPE
2
CONTINUOUS
70
64
3
Solid line
72
65
73
0
40
0.0
0
ENDTAB
0
TABLE
2
LAYER
70
0
0
ENDTAB
0
TABLE
2
STYLE
70
1
0
STYLE
2
STANDARD
70
0
40
0
41
40
50
50
71
0
42
1
3
ARIAL.TTF
4

0
ENDTAB
0
TABLE
2
VIEW
70
0
0
ENDTAB
0
ENDSEC
0
SECTION
2
BLOCKS
0
ENDSEC
0
SECTION
2
ENTITIES
0
LINE
8
0
10
118.740676834
20
50.462644583
11
118.956363724
21
51.4773716173
0
LINE
8
0
10
118.956363724
20
51.4773716173
11
119.028728855
21
52.5122412112
0
LINE
8
0
10
119.028728855
20
52.5122412112
11
118.174701226
21
53.0229962276
0
LINE
8
0
10
118.174701226
20
53.0229962276
11
117.285787465
21
53.4999283611
0
LINE
8
0
10
117.285787465
20
53.4999283611
11
116.481617164
21
53.8843319088
0
LINE
8
0
10
116.481617164
20
53.8843319088
11
115.768645467
21
54.1852349389
0
LINE
8
0
10
115.768645467
20
54.1852349389
11
115.152666134
21
54.4120549822
0
LINE
8
0
10
115.152666134
20
54.4120549822
11
114.531570091
21
54.6084626446
0
LINE
8
0
10
114.531570091
20
54.6084626446
11
114.292432407
21
54.7288160173
0
LINE
8
0
10
114.292432407
20
54.7288160173
11
114.183119873
21
54.8543911736
0
LINE
8
0
10
114.183119873
20
54.8543911736
11
114.341963217
21
57.1259568298
0
LINE
8
0
10
114.341963217
20
57.1259568298
11
114.467688613
21
57.235096533
0
LINE
8
0
10
114.467688613
20
57.235096533
11
114.721248978
21
57.3209971018
0
LINE
8
0
10
114.721248978
20
57.3209971018
11
115.36363522
21
57.4290534761
0
LINE
8
0
10
115.36363522
20
57.4290534761
11
116.005187134
21
57.5679383684
0
LINE
8
0
10
116.005187134
20
57.5679383684
11
116.753097846
21
57.766686549
0
LINE
8
0
10
116.753097846
20
57.766686549
11
117.602940651
21
58.0354302332
0
LINE
8
0
10
117.602940651
20
58.0354302332
11
118.549579689
21
58.3840080114
0
LINE
8
0
10
118.549579689
20
58.3840080114
11
119.466379339
21
58.7709347216
0
LINE
8
0
10
119.466379339
20
58.7709347216
11
119.538744471
21
59.8058043155
0
LINE
8
0
10
119.538744471
20
59.8058043155
11
119.466379339
21
60.8406739094
0
LINE
8
0
10
119.466379339
20
60.8406739094
11
118.549579689
21
61.2276006196
0
LINE
8
0
10
118.549579689
20
61.2276006196
11
117.602940651
21
61.5761783977
0
LINE
8
0
10
117.602940651
20
61.5761783977
11
116.753097846
21
61.844922082
0
LINE
8
0
10
116.753097846
20
61.844922082
11
116.005187134
21
62.0436702626
0
LINE
8
0
10
116.005187134
20
62.0436702626
11
115.36363522
21
62.1825551549
0
LINE
8
0
10
115.36363522
20
62.1825551549
11
114.721248978
21
62.2906115292
0
LINE
8
0
10
114.721248978
20
62.2906115292
11
114.467688613
21
62.376512098
0
LINE
8
0
10
114.467688613
20
62.376512098
11
114.341963217
21
62.4856518012
0
LINE
8
0
10
114.341963217
20
62.4856518012
11
114.183119873
21
64.7572174574
0
LINE
8
0
10
114.183119873
20
64.7572174574
11
114.292432407
21
64.8827926137
0
LINE
8
0
10
114.292432407
20
64.8827926137
11
114.531570091
21
65.0031459864
0
LINE
8
0
10
114.531570091
20
65.0031459864
11
115.152666134
21
65.1995536488
0
LINE
8
0
10
115.152666134
20
65.1995536488
11
115.768645467
21
65.4263736921
0
LINE
8
0
10
115.768645467
20
65.4263736921
11
116.481617164
21
65.7272767222
0
LINE
8
0
10
116.481617164
20
65.7272767222
11
117.285787465
21
66.1116802699
0
LINE
8
0
10
117.285787465
20
66.1116802699
11
118.174701226
21
66.5886124034
0
LINE
8
0
10
118.174701226
20
66.5886124034
11
119.028728855
21
67.0993674198
0
LINE
8
0
10
119.028728855
20
67.0993674198
11
118.956363724
21
68.1342370137
0
LINE
8
0
10
118.956363724
20
68.1342370137
11
118.740676834
21
69.148964048
0
LINE
8
0
10
118.740676834
20
69.148964048
11
117.778949625
21
69.4045313638
0
LINE
8
0
10
117.778949625
20
69.4045313638
11
116.793010563
21
69.6179701166
0
LINE
8
0
10
116.793010563
20
69.6179701166
11
115.914036478
21
69.7658231473
0
LINE
8
0
10
115.914036478
20
69.7658231473
11
115.145743981
21
69.8585480712
0
LINE
8
0
10
115.145743981
20
69.8585480712
11
114.491106565
21
69.906794576
0
LINE
8
0
10
114.491106565
20
69.906794576
11
113.839933441
21
69.9243964678
0
LINE
8
0
10
113.839933441
20
69.9243964678
11
113.576885659
21
69.9741722759
0
LINE
8
0
10
113.576885659
20
69.9741722759
11
113.437194504
21
70.0647522459
0
LINE
8
0
10
113.437194504
20
70.0647522459
11
112.963756175
21
72.2921044604
0
LINE
8
0
10
112.963756175
20
72.2921044604
11
113.054528203
21
72.4316708922
0
LINE
8
0
10
113.054528203
20
72.4316708922
11
113.274588664
21
72.5841345272
0
LINE
8
0
10
113.274588664
20
72.5841345272
11
113.862305579
21
72.8650706261
0
LINE
8
0
10
113.862305579
20
72.8650706261
11
114.440722995
21
73.1754110262
0
LINE
8
0
10
114.440722995
20
73.1754110262
11
115.104878492
21
73.5726121706
0
LINE
8
0
10
115.104878492
20
73.5726121706
11
115.84772403
21
74.0651936039
0
LINE
8
0
10
115.84772403
20
74.0651936039
11
116.661610819
21
74.6611971513
0
LINE
8
0
10
116.661610819
20
74.6611971513
11
117.436243751
21
75.2858392085
0
LINE
8
0
10
117.436243751
20
75.2858392085
11
117.220556861
21
76.3005662428
0
LINE
8
0
10
117.220556861
20
76.3005662428
11
116.865746314
21
77.2754002102
0
LINE
8
0
10
116.865746314
20
77.2754002102
11
115.877810472
21
77.3946338044
0
LINE
8
0
10
115.877810472
20
77.3946338044
11
114.871761568
21
77.4687791894
0
LINE
8
0
10
114.871761568
20
77.4687791894
11
113.980764433
21
77.4928637754
0
LINE
8
0
10
113.980764433
20
77.4928637754
11
113.207044091
21
77.4777606575
0
LINE
8
0
10
113.207044091
20
77.4777606575
11
112.552062946
21
77.4344297115
0
LINE
8
0
10
112.552062946
20
77.4344297115
11
111.904777284
21
77.3612345199
0
LINE
8
0
10
111.904777284
20
77.3612345199
11
111.637362012
21
77.3739167378
0
LINE
8
0
10
111.637362012
20
77.3739167378
11
111.486424025
21
77.4441739384
0
LINE
8
0
10
111.486424025
20
77.4441739384
11
110.707605652
21
79.583959834
0
LINE
8
0
10
110.707605652
20
79.583959834
11
110.778070399
21
79.7348010395
0
LINE
8
0
10
110.778070399
20
79.7348010395
11
110.97477041
21
79.9164074056
0
LINE
8
0
10
110.97477041
20
79.9164074056
11
111.517668957
21
80.2764038393
0
LINE
8
0
10
111.517668957
20
80.2764038393
11
112.047266218
21
80.6642241734
0
LINE
8
0
10
112.047266218
20
80.6642241734
11
112.649678485
21
81.1499923636
0
LINE
8
0
10
112.649678485
20
81.1499923636
11
113.316740615
21
81.7411641452
0
LINE
8
0
10
113.316740615
20
81.7411641452
11
114.039759052
21
82.4446385754
0
LINE
8
0
10
114.039759052
20
82.4446385754
11
114.719919937
21
83.1710097262
0
LINE
8
0
10
114.719919937
20
83.1710097262
11
114.36510939
21
84.1458436936
0
LINE
8
0
10
114.36510939
20
84.1458436936
11
113.878081168
21
85.0618105596
0
LINE
8
0
10
113.878081168
20
85.0618105596
11
112.88316574
21
85.0423896859
0
LINE
8
0
10
112.88316574
20
85.0423896859
11
111.876588592
21
84.9757985476
0
LINE
8
0
10
111.876588592
20
84.9757985476
11
110.990910654
21
84.8756459099
0
LINE
8
0
10
110.990910654
20
84.8756459099
11
110.226822052
21
84.7530087151
0
LINE
8
0
10
110.226822052
20
84.7530087151
11
109.584245641
21
84.6189437058
0
LINE
8
0
10
109.584245641
20
84.6189437058
11
108.95344612
21
84.456376092
0
LINE
8
0
10
108.95344612
20
84.456376092
11
108.686868292
21
84.4317178748
0
LINE
8
0
10
108.686868292
20
84.4317178748
11
108.527621311
21
84.4802848296
0
LINE
8
0
10
108.527621311
20
84.4802848296
11
107.458581706
21
86.4908559078
0
LINE
8
0
10
107.458581706
20
86.4908559078
11
107.507367657
21
86.6500359344
0
LINE
8
0
10
107.507367657
20
86.6500359344
11
107.676878675
21
86.8572502704
0
LINE
8
0
10
107.676878675
20
86.8572502704
11
108.164391951
21
87.2893001177
0
LINE
8
0
10
108.164391951
20
87.2893001177
11
108.63486105
21
87.7470519042
0
LINE
8
0
10
108.63486105
20
87.7470519042
11
109.163804816
21
88.3119322149
0
LINE
8
0
10
109.163804816
20
88.3119322149
11
109.742099933
21
88.9901878586
0
LINE
8
0
10
109.742099933
20
88.9901878586
11
110.360177287
21
89.7874408419
0
LINE
8
0
10
110.360177287
20
89.7874408419
11
110.932627568
21
90.6014030981
0
LINE
8
0
10
110.932627568
20
90.6014030981
11
110.445599346
21
91.5173699642
0
LINE
8
0
10
110.445599346
20
91.5173699642
11
109.8358329
21
92.3566414758
0
LINE
8
0
10
109.8358329
20
92.3566414758
11
108.853302784
21
92.1989441395
0
LINE
8
0
10
108.853302784
20
92.1989441395
11
107.865789271
21
91.9929125985
0
LINE
8
0
10
107.865789271
20
91.9929125985
11
107.002669243
21
91.7704720943
0
LINE
8
0
10
107.002669243
20
91.7704720943
11
106.263084497
21
91.542687816
0
LINE
8
0
10
106.263084497
20
91.542687816
11
105.645419839
21
91.3204981665
0
LINE
8
0
10
105.645419839
20
91.3204981665
11
105.043384255
21
91.0717223242
0
LINE
8
0
10
105.043384255
20
91.0717223242
11
104.782832504
21
91.0102036159
0
LINE
8
0
10
104.782832504
20
91.0102036159
11
104.61837609
21
91.0361350243
0
LINE
8
0
10
104.61837609
20
91.0361350243
11
103.279922893
21
92.8783578061
0
LINE
8
0
10
103.279922893
20
92.8783578061
11
103.306080485
21
93.0427783958
0
LINE
8
0
10
103.306080485
20
93.0427783958
11
103.445103172
21
93.2715675101
0
LINE
8
0
10
103.445103172
20
93.2715675101
11
103.867742285
21
93.7672614124
0
LINE
8
0
10
103.867742285
20
93.7672614124
11
104.269926075
21
94.2860350333
0
LINE
8
0
10
104.269926075
20
94.2860350333
11
104.715106052
21
94.9190327119
0
LINE
8
0
10
104.715106052
20
94.9190327119
11
105.1933783
21
95.671170743
0
LINE
8
0
10
105.1933783
20
95.671170743
11
105.694484398
21
96.546684657
0
LINE
8
0
10
105.694484398
20
96.546684657
11
106.14808198
21
97.4323951693
0
LINE
8
0
10
106.14808198
20
97.4323951693
11
105.538315534
21
98.2716666809
0
LINE
8
0
10
105.538315534
20
98.2716666809
11
104.817679275
21
99.0179073727
0
LINE
8
0
10
104.817679275
20
99.0179073727
11
103.866658302
21
98.725002973
0
LINE
8
0
10
103.866658302
20
98.725002973
11
102.917429251
21
98.3835411989
0
LINE
8
0
10
102.917429251
20
98.3835411989
11
102.093666782
21
98.0431423796
0
LINE
8
0
10
102.093666782
20
98.0431423796
11
101.392981069
21
97.7146445798
0
LINE
8
0
10
101.392981069
20
97.7146445798
11
100.812250303
21
97.4086549587
0
LINE
8
0
10
100.812250303
20
97.4086549587
11
100.250696593
21
97.0785130267
0
LINE
8
0
10
100.250696593
20
97.0785130267
11
100.001242263
21
96.9813312191
0
LINE
8
0
10
100.001242263
20
96.9813312191
11
99.8347773735
21
96.9841223558
0
LINE
8
0
10
99.8347773735
20
96.9841223558
11
98.2529620538
21
98.6221400702
0
LINE
8
0
10
98.2529620538
20
98.6221400702
11
98.2559821583
21
98.7886009632
0
LINE
8
0
10
98.2559821583
20
98.7886009632
11
98.3618105959
21
99.0345117361
0
LINE
8
0
10
98.3618105959
20
99.0345117361
11
98.7113493562
21
99.5842015752
0
LINE
8
0
10
98.7113493562
20
99.5842015752
11
99.0374197881
21
100.153899692
0
LINE
8
0
10
99.0374197881
20
100.153899692
11
99.3901710546
21
100.842694159
0
LINE
8
0
10
99.3901710546
20
100.842694159
11
99.7591114078
21
101.654075066
0
LINE
8
0
10
99.7591114078
20
101.654075066
11
100.133492789
21
102.590809028
0
LINE
8
0
10
100.133492789
20
102.590809028
11
100.459408912
21
103.531028449
0
LINE
8
0
10
100.459408912
20
103.531028449
11
99.7387726529
21
104.277269141
0
LINE
8
0
10
99.7387726529
20
104.277269141
11
98.9212929448
21
104.915954287
0
LINE
8
0
10
98.9212929448
20
104.915954287
11
98.0202916562
21
104.493543875
0
LINE
8
0
10
98.0202916562
20
104.493543875
11
97.127822731
21
104.023298032
0
LINE
8
0
10
97.127822731
20
104.023298032
11
96.3594514213
21
103.571566374
0
LINE
8
0
10
96.3594514213
20
103.571566374
11
95.7113027907
21
103.148748889
0
LINE
8
0
10
95.7113027907
20
103.148748889
11
95.1788091807
21
102.764915036
0
LINE
8
0
10
95.1788091807
20
102.764915036
11
94.6686673495
21
102.359832851
0
LINE
8
0
10
94.6686673495
20
102.359832851
11
94.4351657855
21
102.228879478
0
LINE
8
0
10
94.4351657855
20
102.228879478
11
94.2699324696
21
102.208476016
0
LINE
8
0
10
94.2699324696
20
102.208476016
11
92.4755432631
21
103.610406512
0
LINE
8
0
10
92.4755432631
20
103.610406512
11
92.4553670975
21
103.775667736
0
LINE
8
0
10
92.4553670975
20
103.775667736
11
92.5259414551
21
104.033913794
0
LINE
8
0
10
92.5259414551
20
104.033913794
11
92.7955764888
21
104.626900483
0
LINE
8
0
10
92.7955764888
20
104.626900483
11
93.0391869722
21
105.23643457
0
LINE
8
0
10
93.0391869722
20
105.23643457
11
93.2926436258
21
105.967619224
0
LINE
8
0
10
93.2926436258
20
105.967619224
11
93.5450710798
21
106.822450401
0
LINE
8
0
10
93.5450710798
20
106.822450401
11
93.7854408366
21
107.80217195
0
LINE
8
0
10
93.7854408366
20
107.80217195
11
93.9773319145
21
108.778599978
0
LINE
8
0
10
93.9773319145
20
108.778599978
11
93.1598522065
21
109.417285124
0
LINE
8
0
10
93.1598522065
20
109.417285124
11
92.2614403625
21
109.935983444
0
LINE
8
0
10
92.2614403625
20
109.935983444
11
91.4279957234
21
109.392288757
0
LINE
8
0
10
91.4279957234
20
109.392288757
11
90.6096578165
21
108.802411647
0
LINE
8
0
10
90.6096578165
20
108.802411647
11
89.9116331392
21
108.248139592
0
LINE
8
0
10
89.9116331392
20
108.248139592
11
89.3286370671
21
107.739232083
0
LINE
8
0
10
89.3286370671
20
107.739232083
11
88.8547449959
21
107.285024888
0
LINE
8
0
10
88.8547449959
20
107.285024888
11
88.4059443737
21
106.812886915
0
LINE
8
0
10
88.4059443737
20
106.812886915
11
88.1929404179
21
106.650710834
0
LINE
8
0
10
88.1929404179
20
106.650710834
11
88.0321547543
21
106.607509905
0
LINE
8
0
10
88.0321547543
20
106.607509905
11
86.0601174058
21
107.746066199
0
LINE
8
0
10
86.0601174058
20
107.746066199
11
86.0171376762
21
107.906911132
0
LINE
8
0
10
86.0171376762
20
107.906911132
11
86.0510843044
21
108.17246601
0
LINE
8
0
10
86.0510843044
20
108.17246601
11
86.2355674722
21
108.797207736
0
LINE
8
0
10
86.2355674722
20
108.797207736
11
86.391976406
21
109.434713906
0
LINE
8
0
10
86.391976406
20
109.434713906
11
86.5412052012
21
110.19405707
0
LINE
8
0
10
86.5412052012
20
110.19405707
11
86.6722065429
21
111.0757002
0
LINE
8
0
10
86.6722065429
20
111.0757002
11
86.7738861516
21
112.079340171
0
LINE
8
0
10
86.7738861516
20
112.079340171
11
86.8280172423
21
113.072971745
0
LINE
8
0
10
86.8280172423
20
113.072971745
11
85.9296053983
21
113.591670065
0
LINE
8
0
10
85.9296053983
20
113.591670065
11
84.967747983
21
113.980285686
0
LINE
8
0
10
84.967747983
20
113.980285686
11
84.2180820453
21
113.325889124
0
LINE
8
0
10
84.2180820453
20
113.325889124
11
83.4898031732
21
112.627862034
0
LINE
8
0
10
83.4898031732
20
112.627862034
11
82.8757113848
21
111.981837857
0
LINE
8
0
10
82.8757113848
20
111.981837857
11
82.3692152266
21
111.396745629
0
LINE
8
0
10
82.3692152266
20
111.396745629
11
81.9631484642
21
110.881005719
0
LINE
8
0
10
81.9631484642
20
110.881005719
11
81.5844244446
21
110.351001585
0
LINE
8
0
10
81.5844244446
20
110.351001585
11
81.3960639768
21
110.16075937
0
LINE
8
0
10
81.3960639768
20
110.16075937
11
81.2428554755
21
110.09560183
0
LINE
8
0
10
81.2428554755
20
110.09560183
11
79.1315534489
21
110.948623219
0
LINE
8
0
10
79.1315534489
20
110.948623219
11
79.0666067068
21
111.101921199
0
LINE
8
0
10
79.0666067068
20
111.101921199
11
79.063264873
21
111.369616172
0
LINE
8
0
10
79.063264873
20
111.369616172
11
79.1590054199
21
112.01395305
0
LINE
8
0
10
79.1590054199
20
112.01395305
11
79.2251684821
21
112.667022969
0
LINE
8
0
10
79.2251684821
20
112.667022969
11
79.2672648502
21
113.439744892
0
LINE
8
0
10
79.2672648502
20
113.439744892
11
79.2742902874
21
114.331039795
0
LINE
8
0
10
79.2742902874
20
114.331039795
11
79.2353006702
21
115.339063477
0
LINE
8
0
10
79.2353006702
20
115.339063477
11
79.1506181736
21
116.330558688
0
LINE
8
0
10
79.1506181736
20
116.330558688
11
78.1887607582
21
116.719174309
0
LINE
8
0
10
78.1887607582
20
116.719174309
11
77.182179232
21
116.970143271
0
LINE
8
0
10
77.182179232
20
116.970143271
11
76.5308833905
21
116.217781918
0
LINE
8
0
10
76.5308833905
20
116.217781918
11
75.906838673
21
115.42519115
0
LINE
8
0
10
75.906838673
20
115.42519115
11
75.3886323717
21
114.699988978
0
LINE
8
0
10
75.3886323717
20
114.699988978
11
74.9684944989
21
114.050100187
0
LINE
8
0
10
74.9684944989
20
114.050100187
11
74.638156673
21
113.482865851
0
LINE
8
0
10
74.638156673
20
113.482865851
11
74.3368806883
21
112.905311485
0
LINE
8
0
10
74.3368806883
20
112.905311485
11
74.1768299307
21
112.690705984
0
LINE
8
0
10
74.1768299307
20
112.690705984
11
74.0341806209
21
112.60486005
0
LINE
8
0
10
74.0341806209
20
112.60486005
11
71.8247080085
21
113.155743444
0
LINE
8
0
10
71.8247080085
20
113.155743444
11
71.7390583685
21
113.298510699
0
LINE
8
0
10
71.7390583685
20
113.298510699
11
71.6984931176
21
113.563135389
0
LINE
8
0
10
71.6984931176
20
113.563135389
11
71.7036275628
21
114.214526133
0
LINE
8
0
10
71.7036275628
20
114.214526133
11
71.6782569648
21
114.87044854
0
LINE
8
0
10
71.6782569648
20
114.87044854
11
71.6124015478
21
115.641509068
0
LINE
8
0
10
71.6124015478
20
115.641509068
11
71.4953143384
21
116.525107702
0
LINE
8
0
10
71.4953143384
20
116.525107702
11
71.3164143837
21
117.517895061
0
LINE
8
0
10
71.3164143837
20
117.517895061
11
71.0945665483
21
118.487955583
0
LINE
8
0
10
71.0945665483
20
118.487955583
11
70.0879850221
21
118.738924545
0
LINE
8
0
10
70.0879850221
20
118.738924545
11
69.0562713495
21
118.847362022
0
LINE
8
0
10
69.0562713495
20
118.847362022
11
68.5160223368
21
118.011679736
0
LINE
8
0
10
68.5160223368
20
118.011679736
11
68.0083580946
21
117.139952169
0
LINE
8
0
10
68.0083580946
20
117.139952169
11
67.5961235764
21
116.349687236
0
LINE
8
0
10
67.5961235764
20
116.349687236
11
67.2705214949
21
115.647651228
0
LINE
8
0
10
67.2705214949
20
115.647651228
11
67.0223422555
21
115.039963037
0
LINE
8
0
10
67.0223422555
20
115.039963037
11
66.8043783
21
114.426099878
0
LINE
8
0
10
66.8043783
20
114.426099878
11
66.6757524586
21
114.191308142
0
LINE
8
0
10
66.6757524586
20
114.191308142
11
66.5464388468
21
114.086444708
0
LINE
8
0
10
66.5464388468
20
114.086444708
11
64.2818005199
21
114.324467788
0
LINE
8
0
10
64.2818005199
20
114.324467788
11
64.1771150546
21
114.453925516
0
LINE
8
0
10
64.1771150546
20
114.453925516
11
64.1001159433
21
114.710329305
0
LINE
8
0
10
64.1001159433
20
114.710329305
11
64.0145443505
21
115.356095336
0
LINE
8
0
10
64.0145443505
20
115.356095336
11
63.8981339021
21
116.002103446
0
LINE
8
0
10
63.8981339021
20
116.002103446
11
63.7256085009
21
116.756494763
0
LINE
8
0
10
63.7256085009
20
116.756494763
11
63.4866876142
21
117.615198886
0
LINE
8
0
10
63.4866876142
20
117.615198886
11
63.1713594062
21
118.573426446
0
LINE
8
0
10
63.1713594062
20
118.573426446
11
62.8166642476
21
119.503171154
0
LINE
8
0
10
62.8166642476
20
119.503171154
11
61.784950575
21
119.611608631
0
LINE
8
0
10
61.784950575
20
119.611608631
11
60.7481858891
21
119.57540401
0
LINE
8
0
10
60.7481858891
20
119.57540401
11
60.3294990378
21
118.672666397
0
LINE
8
0
10
60.3294990378
20
118.672666397
11
59.9480963778
21
117.738769215
0
LINE
8
0
10
59.9480963778
20
117.738769215
11
59.6498573188
21
116.898823131
0
LINE
8
0
10
59.6498573188
20
116.898823131
11
59.4251285027
21
116.158304237
0
LINE
8
0
10
59.4251285027
20
116.158304237
11
59.2639383765
21
115.521990152
0
LINE
8
0
10
59.2639383765
20
115.521990152
11
59.1335288707
21
114.883766348
0
LINE
8
0
10
59.1335288707
20
114.883766348
11
59.0388315011
21
114.633358331
0
LINE
8
0
10
59.0388315011
20
114.633358331
11
58.9253705298
21
114.511518445
0
LINE
8
0
10
58.9253705298
20
114.511518445
11
56.6496450972
21
114.432048362
0
LINE
8
0
10
56.6496450972
20
114.432048362
11
56.5279613903
21
114.545676815
0
LINE
8
0
10
56.5279613903
20
114.545676815
11
56.4160271185
21
114.788869095
0
LINE
8
0
10
56.4160271185
20
114.788869095
11
56.2414150416
21
115.416441312
0
LINE
8
0
10
56.2414150416
20
115.416441312
11
56.0362305397
21
116.039961312
0
LINE
8
0
10
56.0362305397
20
116.039961312
11
55.7603931649
21
116.76300005
0
LINE
8
0
10
55.7603931649
20
116.76300005
11
55.4042889243
21
117.580095963
0
LINE
8
0
10
55.4042889243
20
117.580095963
11
54.9586699678
21
118.485112913
0
LINE
8
0
10
54.9586699678
20
118.485112913
11
54.478031224
21
119.356445385
0
LINE
8
0
10
54.478031224
20
119.356445385
11
53.4412665381
21
119.320240764
0
LINE
8
0
10
53.4412665381
20
119.320240764
11
52.4196302841
21
119.140098728
0
LINE
8
0
10
52.4196302841
20
119.140098728
11
52.1306548575
21
118.187876547
0
LINE
8
0
10
52.1306548575
20
118.187876547
11
51.8829373487
21
117.209986998
0
LINE
8
0
10
51.8829373487
20
117.209986998
11
51.7044986329
21
116.336708357
0
LINE
8
0
10
51.7044986329
20
116.336708357
11
51.585017173
21
115.572119935
0
LINE
8
0
10
51.585017173
20
115.572119935
11
51.5139535424
21
114.919565086
0
LINE
8
0
10
51.5139535424
20
114.919565086
11
51.4736367589
21
114.269402936
0
LINE
8
0
10
51.4736367589
20
114.269402936
11
51.4147110377
21
114.008252547
0
LINE
8
0
10
51.4147110377
20
114.008252547
11
51.3193110956
21
113.871807683
0
LINE
8
0
10
51.3193110956
20
113.871807683
11
49.0767929645
21
113.476391231
0
LINE
8
0
10
49.0767929645
20
113.476391231
11
48.9404794508
21
113.571978762
0
LINE
8
0
10
48.9404794508
20
113.571978762
11
48.7957886919
21
113.797226072
0
LINE
8
0
10
48.7957886919
20
113.797226072
11
48.5355347563
21
114.394389494
0
LINE
8
0
10
48.5355347563
20
114.394389494
11
48.2455698838
21
114.983285278
0
LINE
8
0
10
48.2455698838
20
114.983285278
11
47.8717893962
21
115.660898309
0
LINE
8
0
10
47.8717893962
20
115.660898309
11
47.4054329656
21
116.420482169
0
LINE
8
0
10
47.4054329656
20
116.420482169
11
46.8381967268
21
117.254673385
0
LINE
8
0
10
46.8381967268
20
117.254673385
11
46.2409694841
21
118.050634124
0
LINE
8
0
10
46.2409694841
20
118.050634124
11
45.2193332302
21
117.870492088
0
LINE
8
0
10
45.2193332302
20
117.870492088
11
44.2327103958
21
117.549918897
0
LINE
8
0
10
44.2327103958
20
117.549918897
11
44.0790709718
21
116.566746071
0
LINE
8
0
10
44.0790709718
20
116.566746071
11
43.9698601538
21
115.563897661
0
LINE
8
0
10
43.9698601538
20
115.563897661
11
43.9146948878
21
114.674283838
0
LINE
8
0
10
43.9146948878
20
114.674283838
11
43.9027863548
21
113.900507734
0
LINE
8
0
10
43.9027863548
20
113.900507734
11
43.9232323925
21
113.244413357
0
LINE
8
0
10
43.9232323925
20
113.244413357
11
43.9737930517
21
112.594967529
0
LINE
8
0
10
43.9737930517
20
112.594967529
11
43.9517859011
21
112.328157762
0
LINE
8
0
10
43.9517859011
20
112.328157762
11
43.8763038395
21
112.179763664
0
LINE
8
0
10
43.8763038395
20
112.179763664
11
41.7106410744
21
111.476097176
0
LINE
8
0
10
41.7106410744
20
111.476097176
11
41.5623509415
21
111.551783281
0
LINE
8
0
10
41.5623509415
20
111.551783281
11
41.3877199364
21
111.754701438
0
LINE
8
0
10
41.3877199364
20
111.754701438
11
41.0468896889
21
112.30983296
0
LINE
8
0
10
41.0468896889
20
112.30983296
11
40.6777882823
21
112.85264234
0
LINE
8
0
10
40.6777882823
20
112.85264234
11
40.2133398939
21
113.471640698
0
LINE
8
0
10
40.2133398939
20
113.471640698
11
39.6458083708
21
114.15892807
0
LINE
8
0
10
39.6458083708
20
114.15892807
11
38.9679954578
21
114.906056967
0
LINE
8
0
10
38.9679954578
20
114.906056967
11
38.2658040652
21
115.611153504
0
LINE
8
0
10
38.2658040652
20
115.611153504
11
37.2791812308
21
115.290580313
0
LINE
8
0
10
37.2791812308
20
115.290580313
11
36.3467753072
21
114.835815558
0
LINE
8
0
10
36.3467753072
20
114.835815558
11
36.3314623026
21
113.840828427
0
LINE
8
0
10
36.3314623026
20
113.840828427
11
36.3628838396
21
112.832540462
0
LINE
8
0
10
36.3628838396
20
112.832540462
11
36.4320657527
21
111.943906778
0
LINE
8
0
10
36.4320657527
20
111.943906778
11
36.5279619326
21
111.176003662
0
LINE
8
0
10
36.5279619326
20
111.176003662
11
36.6395196797
21
110.529139889
0
LINE
8
0
10
36.6395196797
20
110.529139889
11
36.7799736759
21
109.893051107
0
LINE
8
0
10
36.7799736759
20
109.893051107
11
36.79531344
21
109.625775111
0
LINE
8
0
10
36.79531344
20
109.625775111
11
36.7412184314
21
109.468320101
0
LINE
8
0
10
36.7412184314
20
109.468320101
11
34.6945631946
21
108.470099645
0
LINE
8
0
10
34.6945631946
20
108.470099645
11
34.5371827412
21
108.52441118
0
LINE
8
0
10
34.5371827412
20
108.52441118
11
34.3360104839
21
108.701050613
0
LINE
8
0
10
34.3360104839
20
108.701050613
11
33.9212377976
21
109.20334523
0
LINE
8
0
10
33.9212377976
20
109.20334523
11
33.4801839959
21
109.689503039
0
LINE
8
0
10
33.4801839959
20
109.689503039
11
32.9341076663
21
110.237838626
0
LINE
8
0
10
32.9341076663
20
110.237838626
11
32.2764474061
21
110.839452242
0
LINE
8
0
10
32.2764474061
20
110.839452242
11
31.5012506763
21
111.484976807
0
LINE
8
0
10
31.5012506763
20
111.484976807
11
30.7077624906
21
112.08548524
0
LINE
8
0
10
30.7077624906
20
112.08548524
11
29.775356567
21
111.630720485
0
LINE
8
0
10
29.775356567
20
111.630720485
11
28.9153157748
21
111.050615646
0
LINE
8
0
10
28.9153157748
20
111.050615646
11
29.0386272397
21
110.063180503
0
LINE
8
0
10
29.0386272397
20
110.063180503
11
29.2100695473
21
109.06907816
0
LINE
8
0
10
29.2100695473
20
109.06907816
11
29.4022520921
21
108.198720859
0
LINE
8
0
10
29.4022520921
20
108.198720859
11
29.604086475
21
107.451637092
0
LINE
8
0
10
29.604086475
20
107.451637092
11
29.8045845869
21
106.826594391
0
LINE
8
0
10
29.8045845869
20
106.826594391
11
30.0321981428
21
106.216243399
0
LINE
8
0
10
30.0321981428
20
106.216243399
11
30.0845862505
21
105.953703397
0
LINE
8
0
10
30.0845862505
20
105.953703397
11
30.0529311927
21
105.790252159
0
LINE
8
0
10
30.0529311927
20
105.790252159
11
28.1651193004
21
104.516906959
0
LINE
8
0
10
28.1651193004
20
104.516906959
11
28.001711758
21
104.548786812
0
LINE
8
0
10
28.001711758
20
104.548786812
11
27.7779138377
21
104.695709436
0
LINE
8
0
10
27.7779138377
20
104.695709436
11
27.2972717911
21
105.135390556
0
LINE
8
0
10
27.2972717911
20
105.135390556
11
26.7928502049
21
105.555434285
0
LINE
8
0
10
26.7928502049
20
105.555434285
11
26.1757746886
21
106.022434371
0
LINE
8
0
10
26.1757746886
20
106.022434371
11
25.4407863003
21
106.526664507
0
LINE
8
0
10
25.4407863003
20
106.526664507
11
24.5832940763
21
107.058020339
0
LINE
8
0
10
24.5832940763
20
107.058020339
11
23.7139534423
21
107.542252454
0
LINE
8
0
10
23.7139534423
20
107.542252454
11
22.8539126502
21
106.962147614
0
LINE
8
0
10
22.8539126502
20
106.962147614
11
22.0829767052
21
106.267993772
0
LINE
8
0
10
22.0829767052
20
106.267993772
11
22.3425125222
21
105.307329919
0
LINE
8
0
10
22.3425125222
20
105.307329919
11
22.6506386709
21
104.346762268
0
LINE
8
0
10
22.6506386709
20
104.346762268
11
22.9620812329
21
103.511621866
0
LINE
8
0
10
22.9620812329
20
103.511621866
11
23.2659253419
21
102.799898584
0
LINE
8
0
10
23.2659253419
20
102.799898584
11
23.5514613509
21
102.208842699
0
LINE
8
0
10
23.5514613509
20
102.208842699
11
23.8618042276
21
101.636109286
0
LINE
8
0
10
23.8618042276
20
101.636109286
11
23.9502210041
21
101.38341532
0
LINE
8
0
10
23.9502210041
20
101.38341532
11
23.9416220268
21
101.217149246
0
LINE
8
0
10
23.9416220268
20
101.217149246
11
22.24939759
21
99.6934635192
0
LINE
8
0
10
22.24939759
20
99.6934635192
11
22.0831435006
21
99.7022911853
0
LINE
8
0
10
22.0831435006
20
99.7022911853
11
21.8410758891
21
99.8166373172
0
LINE
8
0
10
21.8410758891
20
99.8166373172
11
21.303919633
21
100.185147047
0
LINE
8
0
10
21.303919633
20
100.185147047
11
20.7459482547
21
100.530901023
0
LINE
8
0
10
20.7459482547
20
100.530901023
11
20.0698842247
21
100.907475983
0
LINE
8
0
10
20.0698842247
20
100.907475983
11
19.2718734213
21
101.304508373
0
LINE
8
0
10
19.2718734213
20
101.304508373
11
18.3487758138
21
101.711353235
0
LINE
8
0
10
18.3487758138
20
101.711353235
11
17.4205034582
21
102.069884004
0
LINE
8
0
10
17.4205034582
20
102.069884004
11
16.6495675133
21
101.375730161
0
LINE
8
0
10
16.6495675133
20
101.375730161
11
15.9827418068
21
100.58103823
0
LINE
8
0
10
15.9827418068
20
100.58103823
11
16.3734504064
21
99.6658438958
0
LINE
8
0
10
16.3734504064
20
99.6658438958
11
16.8122630712
21
98.7575072953
0
LINE
8
0
10
16.8122630712
20
98.7575072953
11
17.2369037751
21
97.9738388491
0
LINE
8
0
10
17.2369037751
20
97.9738388491
11
17.6368436304
21
97.3113289357
0
LINE
8
0
10
17.6368436304
20
97.3113289357
11
18.0018599029
21
96.7657640982
0
LINE
8
0
10
18.0018599029
20
96.7657640982
11
18.3888916292
21
96.2417958673
0
LINE
8
0
10
18.3888916292
20
96.2417958673
11
18.5116161424
21
96.0038663393
0
LINE
8
0
10
18.5116161424
20
96.0038663393
11
18.526240615
21
95.8380216085
0
LINE
8
0
10
18.526240615
20
95.8380216085
11
17.0625408575
21
94.0936521641
0
LINE
8
0
10
17.0625408575
20
94.0936521641
11
16.8966761679
21
94.0792558228
0
LINE
8
0
10
16.8966761679
20
94.0792558228
11
16.641050436
21
94.158799846
0
LINE
8
0
10
16.641050436
20
94.158799846
11
16.0578351058
21
94.4489655622
0
LINE
8
0
10
16.0578351058
20
94.4489655622
11
15.4571742135
21
94.7137000775
0
LINE
8
0
10
15.4571742135
20
94.7137000775
11
14.7352804873
21
94.9925203086
0
LINE
8
0
10
14.7352804873
20
94.9925203086
11
13.8897796413
21
95.2746271685
0
LINE
8
0
10
13.8897796413
20
95.2746271685
11
12.9190436952
21
95.5490422875
0
LINE
8
0
10
12.9190436952
20
95.5490422875
11
11.9499073835
21
95.7748933173
0
LINE
8
0
10
11.9499073835
20
95.7748933173
11
11.283081677
21
94.9802013859
0
LINE
8
0
10
11.283081677
20
94.9802013859
11
10.7333452129
21
94.1004391405
0
LINE
8
0
10
10.7333452129
20
94.1004391405
11
11.2476218967
21
93.2485275424
0
LINE
8
0
10
11.2476218967
20
93.2485275424
11
11.8085800881
21
92.4101017306
0
LINE
8
0
10
11.8085800881
20
92.4101017306
11
12.3381537857
21
91.6931584554
0
LINE
8
0
10
12.3381537857
20
91.6931584554
11
12.8264050128
21
91.0927569128
0
LINE
8
0
10
12.8264050128
20
91.0927569128
11
13.2637969223
21
90.6033019213
0
LINE
8
0
10
13.2637969223
20
90.6033019213
11
13.719984366
21
90.1382973187
0
LINE
8
0
10
13.719984366
20
90.1382973187
11
13.8746279229
21
89.9197632556
0
LINE
8
0
10
13.8746279229
20
89.9197632556
11
13.9121911965
21
89.7575678475
0
LINE
8
0
10
13.9121911965
20
89.7575678475
11
12.7055053693
21
87.8264668526
0
LINE
8
0
10
12.7055053693
20
87.8264668526
11
12.5432584469
21
87.7891267123
0
LINE
8
0
10
12.5432584469
20
87.7891267123
11
12.2790500587
21
87.8323203926
0
LINE
8
0
10
12.2790500587
20
87.8323203926
11
11.6611272775
21
88.0384943501
0
LINE
8
0
10
11.6611272775
20
88.0384943501
11
11.0294680523
21
88.2170566483
0
LINE
8
0
10
11.0294680523
20
88.2170566483
11
10.27579547
21
88.3926952316
0
LINE
8
0
10
10.27579547
20
88.3926952316
11
9.39926129363
21
88.5543856723
0
LINE
8
0
10
9.39926129363
20
88.5543856723
11
8.39978127999
21
88.6910298704
0
LINE
8
0
10
8.39978127999
20
88.6910298704
11
7.40864414805
21
88.7798052277
0
LINE
8
0
10
7.40864414805
20
88.7798052277
11
6.85890768389
21
87.9000429823
0
LINE
8
0
10
6.85890768389
20
87.9000429823
11
6.43696045702
21
86.9523339941
0
LINE
8
0
10
6.43696045702
20
86.9523339941
11
7.06479541434
21
86.1802866219
0
LINE
8
0
10
7.06479541434
20
86.1802866219
11
7.73698071941
21
85.4280906035
0
LINE
8
0
10
7.73698071941
20
85.4280906035
11
8.36117986096
21
84.7918269847
0
LINE
8
0
10
8.36117986096
20
84.7918269847
11
8.92823920525
21
84.2652199459
0
LINE
8
0
10
8.92823920525
20
84.2652199459
11
9.42949341565
21
83.8414014852
0
LINE
8
0
10
9.42949341565
20
83.8414014852
11
9.94595740697
21
83.4444112965
0
LINE
8
0
10
9.94595740697
20
83.4444112965
11
10.1295100466
21
83.2495262152
0
LINE
8
0
10
10.1295100466
20
83.2495262152
11
10.189280995
21
83.094137079
0
LINE
8
0
10
10.189280995
20
83.094137079
11
9.26309586507
21
81.0138912177
0
LINE
8
0
10
9.26309586507
20
81.0138912177
11
9.10762466164
21
80.9543340618
0
LINE
8
0
10
9.10762466164
20
80.9543340618
11
8.83997613284
21
80.9603366836
0
LINE
8
0
10
8.83997613284
20
80.9603366836
11
8.19937306471
21
81.0785059406
0
LINE
8
0
10
8.19937306471
20
81.0785059406
11
7.54901003489
21
81.1674205097
0
LINE
8
0
10
7.54901003489
20
81.1674205097
11
6.77822797611
21
81.23645884
0
LINE
8
0
10
6.77822797611
20
81.23645884
11
5.88772121005
21
81.274585741
0
LINE
8
0
10
5.88772121005
20
81.274585741
11
4.87895087042
21
81.2707993943
0
LINE
8
0
10
4.87895087042
20
81.2707993943
11
3.88510427515
21
81.2207711679
0
LINE
8
0
10
3.88510427515
20
81.2207711679
11
3.46315704828
21
80.2730621797
0
LINE
8
0
10
3.46315704828
20
80.2730621797
11
3.17721178151
21
79.2758525262
0
LINE
8
0
10
3.17721178151
20
79.2758525262
11
3.90638491904
21
78.5986964039
0
LINE
8
0
10
3.90638491904
20
78.5986964039
11
4.67671401535
21
77.9473708188
0
LINE
8
0
10
4.67671401535
20
77.9473708188
11
5.38338927463
21
77.4041710039
0
LINE
8
0
10
5.38338927463
20
77.4041710039
11
6.01821957093
21
76.961608276
0
LINE
8
0
10
6.01821957093
20
76.961608276
11
6.57357973923
21
76.6116754902
0
LINE
8
0
10
6.57357973923
20
76.6116754902
11
7.1402678941
21
76.290426678
0
LINE
8
0
10
7.1402678941
20
76.290426678
11
7.3491569732
21
76.122983795
0
LINE
8
0
10
7.3491569732
20
76.122983795
11
7.42997222274
21
75.9774254034
0
LINE
8
0
10
7.42997222274
20
75.9774254034
11
6.80231493009
21
73.7885242952
0
LINE
8
0
10
6.80231493009
20
73.7885242952
11
6.65664551581
21
73.7079093359
0
LINE
8
0
10
6.65664551581
20
73.7079093359
11
6.3907663206
21
73.6766040649
0
LINE
8
0
10
6.3907663206
20
73.6766040649
11
5.73995157555
21
73.7044685914
0
LINE
8
0
10
5.73995157555
20
73.7044685914
11
5.08354331774
21
73.7020048103
0
LINE
8
0
10
5.08354331774
20
73.7020048103
11
4.31065417846
21
73.6630991351
0
LINE
8
0
10
4.31065417846
20
73.6630991351
11
3.42350752398
21
73.5769203997
0
LINE
8
0
10
3.42350752398
20
73.5769203997
11
2.42508142556
21
73.4327772051
0
LINE
8
0
10
2.42508142556
20
73.4327772051
11
1.44786946045
21
73.2449191374
0
LINE
8
0
10
1.44786946045
20
73.2449191374
11
1.16192419368
21
72.2477094839
0
LINE
8
0
10
1.16192419368
20
72.2477094839
11
1.01754648637
21
71.2204087168
0
LINE
8
0
10
1.01754648637
20
71.2204087168
11
1.83386527843
21
70.651323918
0
LINE
8
0
10
1.83386527843
20
70.651323918
11
2.68734458634
21
70.1135460778
0
LINE
8
0
10
2.68734458634
20
70.1135460778
11
3.46274133326
21
69.6739828333
0
LINE
8
0
10
3.46274133326
20
69.6739828333
11
4.15298633195
21
69.3240783964
0
LINE
8
0
10
4.15298633195
20
69.3240783964
11
4.75164300421
21
69.0548423292
0
LINE
8
0
10
4.75164300421
20
69.0548423292
11
5.35752538229
21
68.8155876361
0
LINE
8
0
10
5.35752538229
20
68.8155876361
11
5.58768511249
21
68.6788460366
0
LINE
8
0
10
5.58768511249
20
68.6788460366
11
5.6879716863
21
68.5459515182
0
LINE
8
0
10
5.6879716863
20
68.5459515182
11
5.3710588662
21
66.2909996334
0
LINE
8
0
10
5.3710588662
20
66.2909996334
11
5.23802653051
21
66.1908959492
0
LINE
8
0
10
5.23802653051
20
66.1908959492
11
4.979091705
21
66.1228921069
0
LINE
8
0
10
4.979091705
20
66.1228921069
11
4.33073265175
21
66.0599095515
0
LINE
8
0
10
4.33073265175
20
66.0599095515
11
3.68105540603
21
65.9661153751
0
LINE
8
0
10
3.68105540603
20
65.9661153751
11
2.9211025942
21
65.8200229489
0
LINE
8
0
10
2.9211025942
20
65.8200229489
11
2.05458335182
21
65.6112159482
0
LINE
8
0
10
2.05458335182
20
65.6112159482
11
1.08593472292
21
65.3295214891
0
LINE
8
0
10
1.08593472292
20
65.3295214891
11
0.144377707306
21
65.0074900236
0
LINE
8
0
10
0.144377707306
20
65.0074900236
11
0.0
21
63.9801892565
0
LINE
8
0
10
0.0
20
63.9801892565
11
4.26325641456e-14
21
62.9427926166
0
LINE
8
0
10
4.26325641456e-14
20
62.9427926166
11
0.887575729837
21
62.4928557296
0
LINE
8
0
10
0.887575729837
20
62.4928557296
11
1.80759324545
21
62.0790928682
0
LINE
8
0
10
1.80759324545
20
62.0790928682
11
2.63661926432
21
61.7517217928
0
LINE
8
0
10
2.63661926432
20
61.7517217928
11
3.36884413166
21
61.5012861387
0
LINE
8
0
10
3.36884413166
20
61.5012861387
11
3.99914513671
21
61.3179871639
0
LINE
8
0
10
3.99914513671
20
61.3179871639
11
4.63242892668
21
61.1653834104
0
LINE
8
0
10
4.63242892668
20
61.1653834104
11
4.87937951064
21
61.0620046141
0
LINE
8
0
10
4.87937951064
20
61.0620046141
11
4.99718544465
21
60.9443606095
0
LINE
8
0
10
4.99718544465
20
60.9443606095
11
4.99718544465
21
58.6672480215
0
LINE
8
0
10
4.99718544465
20
58.6672480215
11
4.87937951064
21
58.5496040168
0
LINE
8
0
10
4.87937951064
20
58.5496040168
11
4.63242892668
21
58.4462252206
0
LINE
8
0
10
4.63242892668
20
58.4462252206
11
3.9991451367
21
58.2936214671
0
LINE
8
0
10
3.9991451367
20
58.2936214671
11
3.36884413166
21
58.1103224923
0
LINE
8
0
10
3.36884413166
20
58.1103224923
11
2.63661926432
21
57.8598868382
0
LINE
8
0
10
2.63661926432
20
57.8598868382
11
1.80759324545
21
57.5325157628
0
LINE
8
0
10
1.80759324545
20
57.5325157628
11
0.88757572981
21
57.1187529014
0
LINE
8
0
10
0.88757572981
20
57.1187529014
11
2.13162820728e-13
21
56.6688160144
0
LINE
8
0
10
2.13162820728e-13
20
56.6688160144
11
2.41584530158e-13
21
55.6314193745
0
LINE
8
0
10
2.41584530158e-13
20
55.6314193745
11
0.144377707306
21
54.6041186073
0
LINE
8
0
10
0.144377707306
20
54.6041186073
11
1.08593472295
21
54.2820871419
0
LINE
8
0
10
1.08593472295
20
54.2820871419
11
2.05458335182
21
54.0003926828
0
LINE
8
0
10
2.05458335182
20
54.0003926828
11
2.9211025942
21
53.791585682
0
LINE
8
0
10
2.9211025942
20
53.791585682
11
3.68105540603
21
53.6454932559
0
LINE
8
0
10
3.68105540603
20
53.6454932559
11
4.33073265175
21
53.5516990795
0
LINE
8
0
10
4.33073265175
20
53.5516990795
11
4.979091705
21
53.4887165241
0
LINE
8
0
10
4.979091705
20
53.4887165241
11
5.23802653051
21
53.4207126817
0
LINE
8
0
10
5.23802653051
20
53.4207126817
11
5.3710588662
21
53.3206089976
0
LINE
8
0
10
5.3710588662
20
53.3206089976
11
5.68797168631
21
51.0656571128
0
LINE
8
0
10
5.68797168631
20
51.0656571128
11
5.58768511249
21
50.9327625944
0
LINE
8
0
10
5.58768511249
20
50.9327625944
11
5.35752538229
21
50.7960209949
0
LINE
8
0
10
5.35752538229
20
50.7960209949
11
4.75164300421
21
50.5567663018
0
LINE
8
0
10
4.75164300421
20
50.5567663018
11
4.15298633195
21
50.2875302346
0
LINE
8
0
10
4.15298633195
20
50.2875302346
11
3.46274133326
21
49.9376257977
0
LINE
8
0
10
3.46274133326
20
49.9376257977
11
2.68734458634
21
49.4980625532
0
LINE
8
0
10
2.68734458634
20
49.4980625532
11
1.8338652784
21
48.960284713
0
LINE
8
0
10
1.8338652784
20
48.960284713
11
1.01754648637
21
48.3911999142
0
LINE
8
0
10
1.01754648637
20
48.3911999142
11
1.16192419368
21
47.3638991471
0
LINE
8
0
10
1.16192419368
20
47.3638991471
11
1.44786946045
21
46.3666894936
0
LINE
8
0
10
1.44786946045
20
46.3666894936
11
2.42508142559
21
46.1788314259
0
LINE
8
0
10
2.42508142559
20
46.1788314259
11
3.42350752398
21
46.0346882313
0
LINE
8
0
10
3.42350752398
20
46.0346882313
11
4.31065417846
21
45.9485094959
0
LINE
8
0
10
4.31065417846
20
45.9485094959
11
5.08354331774
21
45.9096038207
0
LINE
8
0
10
5.08354331774
20
45.9096038207
11
5.73995157555
21
45.9071400396
0
LINE
8
0
10
5.73995157555
20
45.9071400396
11
6.3907663206
21
45.9350045661
0
LINE
8
0
10
6.3907663206
20
45.9350045661
11
6.65664551581
21
45.9036992951
0
LINE
8
0
10
6.65664551581
20
45.9036992951
11
6.80231493009
21
45.8230843358
0
LINE
8
0
10
6.80231493009
20
45.8230843358
11
7.42997222274
21
43.6341832276
0
LINE
8
0
10
7.42997222274
20
43.6341832276
11
7.3491569732
21
43.488624836
0
LINE
8
0
10
7.3491569732
20
43.488624836
11
7.1402678941
21
43.321181953
0
LINE
8
0
10
7.1402678941
20
43.321181953
11
6.57357973923
21
42.9999331408
0
LINE
8
0
10
6.57357973923
20
42.9999331408
11
6.01821957093
21
42.650000355
0
LINE
8
0
10
6.01821957093
20
42.650000355
11
5.38338927463
21
42.2074376271
0
LINE
8
0
10
5.38338927463
20
42.2074376271
11
4.67671401535
21
41.6642378122
0
LINE
8
0
10
4.67671401535
20
41.6642378122
11
3.90638491902
21
41.012912227
0
LINE
8
0
10
3.90638491902
20
41.012912227
11
3.17721178151
21
40.3357561048
0
LINE
8
0
10
3.17721178151
20
40.3357561048
11
3.46315704828
21
39.3385464513
0
LINE
8
0
10
3.46315704828
20
39.3385464513
11
3.88510427515
21
38.3908374631
0
LINE
8
0
10
3.88510427515
20
38.3908374631
11
4.87895087045
21
38.3408092367
0
LINE
8
0
10
4.87895087045
20
38.3408092367
11
5.88772121005
21
38.33702289
0
LINE
8
0
10
5.88772121005
20
38.33702289
11
6.77822797611
21
38.375149791
0
LINE
8
0
10
6.77822797611
20
38.375149791
11
7.54901003489
21
38.4441881213
0
LINE
8
0
10
7.54901003489
20
38.4441881213
11
8.19937306471
21
38.5331026904
0
LINE
8
0
10
8.19937306471
20
38.5331026904
11
8.83997613284
21
38.6512719474
0
LINE
8
0
10
8.83997613284
20
38.6512719474
11
9.10762466164
21
38.6572745692
0
LINE
8
0
10
9.10762466164
20
38.6572745692
11
9.26309586507
21
38.5977174132
0
LINE
8
0
10
9.26309586507
20
38.5977174132
11
10.189280995
21
36.517471552
0
LINE
8
0
10
10.189280995
20
36.517471552
11
10.1295100466
21
36.3620824157
0
LINE
8
0
10
10.1295100466
20
36.3620824157
11
9.94595740697
21
36.1671973345
0
LINE
8
0
10
9.94595740697
20
36.1671973345
11
9.42949341564
21
35.7702071458
0
LINE
8
0
10
9.42949341564
20
35.7702071458
11
8.92823920525
21
35.346388685
0
LINE
8
0
10
8.92823920525
20
35.346388685
11
8.36117986096
21
34.8197816463
0
LINE
8
0
10
8.36117986096
20
34.8197816463
11
7.73698071941
21
34.1835180275
0
LINE
8
0
10
7.73698071941
20
34.1835180275
11
7.06479541432
21
33.431322009
0
LINE
8
0
10
7.06479541432
20
33.431322009
11
6.43696045702
21
32.6592746369
0
LINE
8
0
10
6.43696045702
20
32.6592746369
11
6.85890768389
21
31.7115656487
0
LINE
8
0
10
6.85890768389
20
31.7115656487
11
7.40864414805
21
30.8318034033
0
LINE
8
0
10
7.40864414805
20
30.8318034033
11
8.39978128002
21
30.9205787606
0
LINE
8
0
10
8.39978128002
20
30.9205787606
11
9.39926129363
21
31.0572229587
0
LINE
8
0
10
9.39926129363
20
31.0572229587
11
10.27579547
21
31.2189133994
0
LINE
8
0
10
10.27579547
20
31.2189133994
11
11.0294680523
21
31.3945519827
0
LINE
8
0
10
11.0294680523
20
31.3945519827
11
11.6611272775
21
31.5731142809
0
LINE
8
0
10
11.6611272775
20
31.5731142809
11
12.2790500587
21
31.7792882383
0
LINE
8
0
10
12.2790500587
20
31.7792882383
11
12.5432584469
21
31.8224819187
0
LINE
8
0
10
12.5432584469
20
31.8224819187
11
12.7055053693
21
31.7851417784
0
LINE
8
0
10
12.7055053693
20
31.7851417784
11
13.9121911965
21
29.8540407835
0
LINE
8
0
10
13.9121911965
20
29.8540407835
11
13.8746279229
21
29.6918453754
0
LINE
8
0
10
13.8746279229
20
29.6918453754
11
13.719984366
21
29.4733113123
0
LINE
8
0
10
13.719984366
20
29.4733113123
11
13.2637969223
21
29.0083067097
0
LINE
8
0
10
13.2637969223
20
29.0083067097
11
12.8264050128
21
28.5188517182
0
LINE
8
0
10
12.8264050128
20
28.5188517182
11
12.3381537857
21
27.9184501756
0
LINE
8
0
10
12.3381537857
20
27.9184501756
11
11.8085800881
21
27.2015069004
0
LINE
8
0
10
11.8085800881
20
27.2015069004
11
11.2476218966
21
26.3630810886
0
LINE
8
0
10
11.2476218966
20
26.3630810886
11
10.7333452129
21
25.5111694905
0
LINE
8
0
10
10.7333452129
20
25.5111694905
11
11.283081677
21
24.631407245
0
LINE
8
0
10
11.283081677
20
24.631407245
11
11.9499073835
21
23.8367153137
0
LINE
8
0
10
11.9499073835
20
23.8367153137
11
12.9190436953
21
24.0625663435
0
LINE
8
0
10
12.9190436953
20
24.0625663435
11
13.8897796413
21
24.3369814625
0
LINE
8
0
10
13.8897796413
20
24.3369814625
11
14.7352804873
21
24.6190883224
0
LINE
8
0
10
14.7352804873
20
24.6190883224
11
15.4571742135
21
24.8979085535
0
LINE
8
0
10
15.4571742135
20
24.8979085535
11
16.0578351058
21
25.1626430688
0
LINE
8
0
10
16.0578351058
20
25.1626430688
11
16.641050436
21
25.452808785
0
LINE
8
0
10
16.641050436
20
25.452808785
11
16.8966761679
21
25.5323528082
0
LINE
8
0
10
16.8966761679
20
25.5323528082
11
17.0625408575
21
25.5179564669
0
LINE
8
0
10
17.0625408575
20
25.5179564669
11
18.526240615
21
23.7735870225
0
LINE
8
0
10
18.526240615
20
23.7735870225
11
18.5116161424
21
23.6077422917
0
LINE
8
0
10
18.5116161424
20
23.6077422917
11
18.3888916292
21
23.3698127637
0
LINE
8
0
10
18.3888916292
20
23.3698127637
11
18.0018599029
21
22.8458445328
0
LINE
8
0
10
18.0018599029
20
22.8458445328
11
17.6368436304
21
22.3002796952
0
LINE
8
0
10
17.6368436304
20
22.3002796952
11
17.2369037751
21
21.6377697819
0
LINE
8
0
10
17.2369037751
20
21.6377697819
11
16.8122630712
21
20.8541013357
0
LINE
8
0
10
16.8122630712
20
20.8541013357
11
16.3734504064
21
19.9457647352
0
LINE
8
0
10
16.3734504064
20
19.9457647352
11
15.9827418068
21
19.0305704014
0
LINE
8
0
10
15.9827418068
20
19.0305704014
11
16.6495675133
21
18.2358784701
0
LINE
8
0
10
16.6495675133
20
18.2358784701
11
17.4205034582
21
17.5417246273
0
LINE
8
0
10
17.4205034582
20
17.5417246273
11
18.3487758139
21
17.9002553962
0
LINE
8
0
10
18.3487758139
20
17.9002553962
11
19.2718734213
21
18.307100258
0
LINE
8
0
10
19.2718734213
20
18.307100258
11
20.0698842247
21
18.7041326479
0
LINE
8
0
10
20.0698842247
20
18.7041326479
11
20.7459482547
21
19.0807076081
0
LINE
8
0
10
20.7459482547
20
19.0807076081
11
21.303919633
21
19.4264615843
0
LINE
8
0
10
21.303919633
20
19.4264615843
11
21.8410758891
21
19.7949713138
0
LINE
8
0
10
21.8410758891
20
19.7949713138
11
22.0831435006
21
19.9093174457
0
LINE
8
0
10
22.0831435006
20
19.9093174457
11
22.24939759
21
19.9181451118
0
LINE
8
0
10
22.24939759
20
19.9181451118
11
23.9416220268
21
18.3944593851
0
LINE
8
0
10
23.9416220268
20
18.3944593851
11
23.9502210041
21
18.2281933106
0
LINE
8
0
10
23.9502210041
20
18.2281933106
11
23.8618042276
21
17.9754993454
0
LINE
8
0
10
23.8618042276
20
17.9754993454
11
23.5514613509
21
17.4027659317
0
LINE
8
0
10
23.5514613509
20
17.4027659317
11
23.2659253419
21
16.8117100471
0
LINE
8
0
10
23.2659253419
20
16.8117100471
11
22.9620812329
21
16.0999867648
0
LINE
8
0
10
22.9620812329
20
16.0999867648
11
22.6506386709
21
15.2648463625
0
LINE
8
0
10
22.6506386709
20
15.2648463625
11
22.3425125222
21
14.3042787121
0
LINE
8
0
10
22.3425125222
20
14.3042787121
11
22.0829767052
21
13.3436148593
0
LINE
8
0
10
22.0829767052
20
13.3436148593
11
22.8539126502
21
12.6494610166
0
LINE
8
0
10
22.8539126502
20
12.6494610166
11
23.7139534423
21
12.0693561774
0
LINE
8
0
10
23.7139534423
20
12.0693561774
11
24.5832940763
21
12.5535882918
0
LINE
8
0
10
24.5832940763
20
12.5535882918
11
25.4407863003
21
13.0849441238
0
LINE
8
0
10
25.4407863003
20
13.0849441238
11
26.1757746886
21
13.5891742599
0
LINE
8
0
10
26.1757746886
20
13.5891742599
11
26.7928502049
21
14.056174346
0
LINE
8
0
10
26.7928502049
20
14.056174346
11
27.2972717911
21
14.4762180752
0
LINE
8
0
10
27.2972717911
20
14.4762180752
11
27.7779138377
21
14.9158991952
0
LINE
8
0
10
27.7779138377
20
14.9158991952
11
28.001711758
21
15.0628218186
0
LINE
8
0
10
28.001711758
20
15.0628218186
11
28.1651193004
21
15.0947016716
0
LINE
8
0
10
28.1651193004
20
15.0947016716
11
30.0529311927
21
13.821356472
0
LINE
8
0
10
30.0529311927
20
13.821356472
11
30.0845862505
21
13.6579052339
0
LINE
8
0
10
30.0845862505
20
13.6579052339
11
30.0321981428
21
13.395365232
0
LINE
8
0
10
30.0321981428
20
13.395365232
11
29.8045845869
21
12.7850142401
0
LINE
8
0
10
29.8045845869
20
12.7850142401
11
29.604086475
21
12.1599715389
0
LINE
8
0
10
29.604086475
20
12.1599715389
11
29.4022520921
21
11.4128877718
0
LINE
8
0
10
29.4022520921
20
11.4128877718
11
29.2100695473
21
10.5425304714
0
LINE
8
0
10
29.2100695473
20
10.5425304714
11
29.0386272397
21
9.54842812767
0
LINE
8
0
10
29.0386272397
20
9.54842812767
11
28.9153157748
21
8.56099298499
0
LINE
8
0
10
28.9153157748
20
8.56099298499
11
29.775356567
21
7.98088814585
0
LINE
8
0
10
29.775356567
20
7.98088814585
11
30.7077624906
21
7.52612339112
0
LINE
8
0
10
30.7077624906
20
7.52612339112
11
31.5012506764
21
8.12663182362
0
LINE
8
0
10
31.5012506764
20
8.12663182362
11
32.2764474061
21
8.7721563891
0
LINE
8
0
10
32.2764474061
20
8.7721563891
11
32.9341076663
21
9.37377000534
0
LINE
8
0
10
32.9341076663
20
9.37377000534
11
33.4801839959
21
9.92210559178
0
LINE
8
0
10
33.4801839959
20
9.92210559178
11
33.9212377976
21
10.4082634007
0
LINE
8
0
10
33.9212377976
20
10.4082634007
11
34.3360104839
21
10.9105580183
0
LINE
8
0
10
34.3360104839
20
10.9105580183
11
34.5371827412
21
11.0871974514
0
LINE
8
0
10
34.5371827412
20
11.0871974514
11
34.6945631946
21
11.1415089863
0
LINE
8
0
10
34.6945631946
20
11.1415089863
11
36.7412184314
21
10.1432885297
0
LINE
8
0
10
36.7412184314
20
10.1432885297
11
36.79531344
21
9.9858335204
0
LINE
8
0
10
36.79531344
20
9.9858335204
11
36.7799736759
21
9.71855752433
0
LINE
8
0
10
36.7799736759
20
9.71855752433
11
36.6395196797
21
9.08246874188
0
LINE
8
0
10
36.6395196797
20
9.08246874188
11
36.5279619326
21
8.43560496936
0
LINE
8
0
10
36.5279619326
20
8.43560496936
11
36.4320657527
21
7.66770185317
0
LINE
8
0
10
36.4320657527
20
7.66770185317
11
36.3628838396
21
6.77906816942
0
LINE
8
0
10
36.3628838396
20
6.77906816942
11
36.3314623026
21
5.77078020383
0
LINE
8
0
10
36.3314623026
20
5.77078020383
11
36.3467753072
21
4.77579307313
0
LINE
8
0
10
36.3467753072
20
4.77579307313
11
37.2791812308
21
4.3210283184
0
LINE
8
0
10
37.2791812308
20
4.3210283184
11
38.2658040652
21
4.00045512675
0
LINE
8
0
10
38.2658040652
20
4.00045512675
11
38.9679954578
21
4.70555166385
0
LINE
8
0
10
38.9679954578
20
4.70555166385
11
39.6458083708
21
5.45268056137
0
LINE
8
0
10
39.6458083708
20
5.45268056137
11
40.2133398939
21
6.13996793303
0
LINE
8
0
10
40.2133398939
20
6.13996793303
11
40.6777882823
21
6.7589662914
0
LINE
8
0
10
40.6777882823
20
6.7589662914
11
41.0468896889
21
7.30177567119
0
LINE
8
0
10
41.0468896889
20
7.30177567119
11
41.3877199364
21
7.85690719309
0
LINE
8
0
10
41.3877199364
20
7.85690719309
11
41.5623509415
21
8.05982535026
0
LINE
8
0
10
41.5623509415
20
8.05982535026
11
41.7106410744
21
8.13551145473
0
LINE
8
0
10
41.7106410744
20
8.13551145473
11
43.8763038395
21
7.43184496694
0
LINE
8
0
10
43.8763038395
20
7.43184496694
11
43.9517859011
21
7.28345086902
0
LINE
8
0
10
43.9517859011
20
7.28345086902
11
43.9737930517
21
7.01664110203
0
LINE
8
0
10
43.9737930517
20
7.01664110203
11
43.9232323925
21
6.36719527369
0
LINE
8
0
10
43.9232323925
20
6.36719527369
11
43.9027863548
21
5.71110089733
0
LINE
8
0
10
43.9027863548
20
5.71110089733
11
43.9146948878
21
4.93732479275
0
LINE
8
0
10
43.9146948878
20
4.93732479275
11
43.9698601538
21
4.04771096955
0
LINE
8
0
10
43.9698601538
20
4.04771096955
11
44.0790709718
21
3.04486256039
0
LINE
8
0
10
44.0790709718
20
3.04486256039
11
44.2327103958
21
2.06168973439
0
LINE
8
0
10
44.2327103958
20
2.06168973439
11
45.2193332302
21
1.74111654274
0
LINE
8
0
10
45.2193332302
20
1.74111654274
11
46.2409694841
21
1.56097450669
0
LINE
8
0
10
46.2409694841
20
1.56097450669
11
46.8381967268
21
2.35693524634
0
LINE
8
0
10
46.8381967268
20
2.35693524634
11
47.4054329656
21
3.19112646175
0
LINE
8
0
10
47.4054329656
20
3.19112646175
11
47.8717893962
21
3.95071032192
0
LINE
8
0
10
47.8717893962
20
3.95071032192
11
48.2455698838
21
4.62832335328
0
LINE
8
0
10
48.2455698838
20
4.62832335328
11
48.5355347563
21
5.21721913682
0
LINE
8
0
10
48.5355347563
20
5.21721913682
11
48.7957886919
21
5.81438255935
0
LINE
8
0
10
48.7957886919
20
5.81438255935
11
48.9404794508
21
6.03962986946
0
LINE
8
0
10
48.9404794508
20
6.03962986946
11
49.0767929645
21
6.1352173996
0
LINE
8
0
10
49.0767929645
20
6.1352173996
11
51.3193110956
21
5.73980094836
0
LINE
8
0
10
51.3193110956
20
5.73980094836
11
51.4147110377
21
5.60335608417
0
LINE
8
0
10
51.4147110377
20
5.60335608417
11
51.4736367589
21
5.3422056949
0
LINE
8
0
10
51.4736367589
20
5.3422056949
11
51.5139535424
21
4.69204354498
0
LINE
8
0
10
51.5139535424
20
4.69204354498
11
51.585017173
21
4.03948869553
0
LINE
8
0
10
51.585017173
20
4.03948869553
11
51.7044986329
21
3.27490027427
0
LINE
8
0
10
51.7044986329
20
3.27490027427
11
51.8829373487
21
2.40162163277
0
LINE
8
0
10
51.8829373487
20
2.40162163277
11
52.1306548575
21
1.42373208359
0
LINE
8
0
10
52.1306548575
20
1.42373208359
11
52.4196302841
21
0.471509903011
0
LINE
8
0
10
52.4196302841
20
0.471509903011
11
53.4412665381
21
0.291367866967
0
LINE
8
0
10
53.4412665381
20
0.291367866967
11
54.478031224
21
0.255163246352
0
LINE
8
0
10
54.478031224
20
0.255163246352
11
54.9586699678
21
1.12649571813
0
LINE
8
0
10
54.9586699678
20
1.12649571813
11
55.4042889243
21
2.03151266831
0
LINE
8
0
10
55.4042889243
20
2.03151266831
11
55.7603931649
21
2.84860858117
0
LINE
8
0
10
55.7603931649
20
2.84860858117
11
56.0362305397
21
3.57164731862
0
LINE
8
0
10
56.0362305397
20
3.57164731862
11
56.2414150416
21
4.19516731936
0
LINE
8
0
10
56.2414150416
20
4.19516731936
11
56.4160271185
21
4.82273953577
0
LINE
8
0
10
56.4160271185
20
4.82273953577
11
56.5279613903
21
5.06593181614
0
LINE
8
0
10
56.5279613903
20
5.06593181614
11
56.6496450972
21
5.1795602694
0
LINE
8
0
10
56.6496450972
20
5.1795602694
11
58.9253705298
21
5.10009018615
0
LINE
8
0
10
58.9253705298
20
5.10009018615
11
59.0388315011
21
4.97825029978
0
LINE
8
0
10
59.0388315011
20
4.97825029978
11
59.1335288707
21
4.72784228348
0
LINE
8
0
10
59.1335288707
20
4.72784228348
11
59.2639383765
21
4.08961847869
0
LINE
8
0
10
59.2639383765
20
4.08961847869
11
59.4251285027
21
3.45330439403
0
LINE
8
0
10
59.4251285027
20
3.45330439403
11
59.6498573188
21
2.7127855
0
LINE
8
0
10
59.6498573188
20
2.7127855
11
59.9480963778
21
1.87283941561
0
LINE
8
0
10
59.9480963778
20
1.87283941561
11
60.3294990378
21
0.938942234174
0
LINE
8
0
10
60.3294990378
20
0.938942234174
11
60.7481858891
21
0.0362046206149
0
LINE
8
0
10
60.7481858891
20
0.0362046206149
11
61.784950575
21
0.0
0
LINE
8
0
10
61.784950575
20
0.0
11
62.8166642476
21
0.108437476572
0
LINE
8
0
10
62.8166642476
20
0.108437476572
11
63.1713594062
21
1.03818218505
0
LINE
8
0
10
63.1713594062
20
1.03818218505
11
63.4866876142
21
1.99640974451
0
LINE
8
0
10
63.4866876142
20
1.99640974451
11
63.7256085009
21
2.85511386754
0
LINE
8
0
10
63.7256085009
20
2.85511386754
11
63.8981339021
21
3.60950518451
0
LINE
8
0
10
63.8981339021
20
3.60950518451
11
64.0145443505
21
4.25551329486
0
LINE
8
0
10
64.0145443505
20
4.25551329486
11
64.1001159433
21
4.90127932581
0
LINE
8
0
10
64.1001159433
20
4.90127932581
11
64.1771150546
21
5.15768311534
0
LINE
8
0
10
64.1771150546
20
5.15768311534
11
64.2818005199
21
5.28714084313
0
LINE
8
0
10
64.2818005199
20
5.28714084313
11
66.5464388468
21
5.52516392264
0
LINE
8
0
10
66.5464388468
20
5.52516392264
11
66.6757524586
21
5.42030048889
0
LINE
8
0
10
66.6757524586
20
5.42030048889
11
66.8043783
21
5.18550875277
0
LINE
8
0
10
66.8043783
20
5.18550875277
11
67.0223422555
21
4.5716455935
0
LINE
8
0
10
67.0223422555
20
4.5716455935
11
67.2705214949
21
3.96395740347
0
LINE
8
0
10
67.2705214949
20
3.96395740347
11
67.5961235764
21
3.26192139464
0
LINE
8
0
10
67.5961235764
20
3.26192139464
11
68.0083580946
21
2.47165646247
0
LINE
8
0
10
68.0083580946
20
2.47165646247
11
68.5160223368
21
1.5999288951
0
LINE
8
0
10
68.5160223368
20
1.5999288951
11
69.0562713495
21
0.764246609368
0
LINE
8
0
10
69.0562713495
20
0.764246609368
11
70.0879850221
21
0.87268408594
0
LINE
8
0
10
70.0879850221
20
0.87268408594
11
71.0945665483
21
1.12365304756
0
LINE
8
0
10
71.0945665483
20
1.12365304756
11
71.3164143837
21
2.09371356956
0
LINE
8
0
10
71.3164143837
20
2.09371356956
11
71.4953143384
21
3.08650092881
0
LINE
8
0
10
71.4953143384
20
3.08650092881
11
71.6124015478
21
3.97009956302
0
LINE
8
0
10
71.6124015478
20
3.97009956302
11
71.6782569648
21
4.74116009064
0
LINE
8
0
10
71.6782569648
20
4.74116009064
11
71.7036275628
21
5.39708249756
0
LINE
8
0
10
71.7036275628
20
5.39708249756
11
71.6984931176
21
6.0484732418
0
LINE
8
0
10
71.6984931176
20
6.0484732418
11
71.7390583685
21
6.31309793238
0
LINE
8
0
10
71.7390583685
20
6.31309793238
11
71.8247080085
21
6.45586518729
0
LINE
8
0
10
71.8247080085
20
6.45586518729
11
74.0341806209
21
7.00674858107
0
LINE
8
0
10
74.0341806209
20
7.00674858107
11
74.1768299307
21
6.92090264738
0
LINE
8
0
10
74.1768299307
20
6.92090264738
11
74.3368806883
21
6.70629714553
0
LINE
8
0
10
74.3368806883
20
6.70629714553
11
74.638156673
21
6.12874277991
0
LINE
8
0
10
74.638156673
20
6.12874277991
11
74.9684944989
21
5.5615084439
0
LINE
8
0
10
74.9684944989
20
5.5615084439
11
75.3886323717
21
4.91161965261
0
LINE
8
0
10
75.3886323717
20
4.91161965261
11
75.906838673
21
4.18641748065
0
LINE
8
0
10
75.906838673
20
4.18641748065
11
76.5308833905
21
3.39382671289
0
LINE
8
0
10
76.5308833905
20
3.39382671289
11
77.182179232
21
2.64146536009
0
LINE
8
0
10
77.182179232
20
2.64146536009
11
78.1887607582
21
2.89243432172
0
LINE
8
0
10
78.1887607582
20
2.89243432172
11
79.1506181736
21
3.28104994303
0
LINE
8
0
10
79.1506181736
20
3.28104994303
11
79.2353006702
21
4.27254515391
0
LINE
8
0
10
79.2353006702
20
4.27254515391
11
79.2742902874
21
5.28056883629
0
LINE
8
0
10
79.2742902874
20
5.28056883629
11
79.2672648502
21
6.17186373935
0
LINE
8
0
10
79.2672648502
20
6.17186373935
11
79.2251684821
21
6.9445856615
0
LINE
8
0
10
79.2251684821
20
6.9445856615
11
79.1590054199
21
7.59765558144
0
LINE
8
0
10
79.1590054199
20
7.59765558144
11
79.063264873
21
8.24199245909
0
LINE
8
0
10
79.063264873
20
8.24199245909
11
79.0666067068
21
8.50968743212
0
LINE
8
0
10
79.0666067068
20
8.50968743212
11
79.1315534489
21
8.66298541192
0
LINE
8
0
10
79.1315534489
20
8.66298541192
11
81.2428554755
21
9.51600680133
0
LINE
8
0
10
81.2428554755
20
9.51600680133
11
81.3960639768
21
9.45084926117
0
LINE
8
0
10
81.3960639768
20
9.45084926117
11
81.5844244446
21
9.26060704555
0
LINE
8
0
10
81.5844244446
20
9.26060704555
11
81.9631484642
21
8.73060291235
0
LINE
8
0
10
81.9631484642
20
8.73060291235
11
82.3692152266
21
8.2148630015
0
LINE
8
0
10
82.3692152266
20
8.2148630015
11
82.8757113848
21
7.62977077384
0
LINE
8
0
10
82.8757113848
20
7.62977077384
11
83.4898031732
21
6.98374659746
0
LINE
8
0
10
83.4898031732
20
6.98374659746
11
84.2180820453
21
6.28571950703
0
LINE
8
0
10
84.2180820453
20
6.28571950703
11
84.967747983
21
5.63132294512
0
LINE
8
0
10
84.967747983
20
5.63132294512
11
85.9296053983
21
6.01993856643
0
LINE
8
0
10
85.9296053983
20
6.01993856643
11
86.8280172423
21
6.5386368864
0
LINE
8
0
10
86.8280172423
20
6.5386368864
11
86.7738861516
21
7.53226845969
0
LINE
8
0
10
86.7738861516
20
7.53226845969
11
86.6722065429
21
8.53590843083
0
LINE
8
0
10
86.6722065429
20
8.53590843083
11
86.5412052012
21
9.41755156128
0
LINE
8
0
10
86.5412052012
20
9.41755156128
11
86.391976406
21
10.1768947247
0
LINE
8
0
10
86.391976406
20
10.1768947247
11
86.2355674722
21
10.8144008945
0
LINE
8
0
10
86.2355674722
20
10.8144008945
11
86.0510843044
21
11.4391426212
0
LINE
8
0
10
86.0510843044
20
11.4391426212
11
86.0171376762
21
11.7046974985
0
LINE
8
0
10
86.0171376762
20
11.7046974985
11
86.0601174058
21
11.8655424324
0
LINE
8
0
10
86.0601174058
20
11.8655424324
11
88.0321547543
21
13.0040987264
0
LINE
8
0
10
88.0321547543
20
13.0040987264
11
88.1929404179
21
12.9608977972
0
LINE
8
0
10
88.1929404179
20
12.9608977972
11
88.4059443737
21
12.7987217161
0
LINE
8
0
10
88.4059443737
20
12.7987217161
11
88.8547449959
21
12.3265837429
0
LINE
8
0
10
88.8547449959
20
12.3265837429
11
89.3286370671
21
11.872376548
0
LINE
8
0
10
89.3286370671
20
11.872376548
11
89.9116331392
21
11.3634690386
0
LINE
8
0
10
89.9116331392
20
11.3634690386
11
90.6096578165
21
10.8091969836
0
LINE
8
0
10
90.6096578165
20
10.8091969836
11
91.4279957234
21
10.2193198738
0
LINE
8
0
10
91.4279957234
20
10.2193198738
11
92.2614403625
21
9.67562518745
0
LINE
8
0
10
92.2614403625
20
9.67562518745
11
93.1598522065
21
10.1943235074
0
LINE
8
0
10
93.1598522065
20
10.1943235074
11
93.9773319145
21
10.8330086533
0
LINE
8
0
10
93.9773319145
20
10.8330086533
11
93.7854408366
21
11.8094366806
0
LINE
8
0
10
93.7854408366
20
11.8094366806
11
93.5450710798
21
12.7891582301
0
LINE
8
0
10
93.5450710798
20
12.7891582301
11
93.2926436258
21
13.6439894073
0
LINE
8
0
10
93.2926436258
20
13.6439894073
11
93.0391869722
21
14.3751740611
0
LINE
8
0
10
93.0391869722
20
14.3751740611
11
92.7955764888
21
14.9847081483
0
LINE
8
0
10
92.7955764888
20
14.9847081483
11
92.5259414551
21
15.5776948369
0
LINE
8
0
10
92.5259414551
20
15.5776948369
11
92.4553670975
21
15.8359408949
0
LINE
8
0
10
92.4553670975
20
15.8359408949
11
92.4755432631
21
16.0012021192
0
LINE
8
0
10
92.4755432631
20
16.0012021192
11
94.2699324696
21
17.4031326146
0
LINE
8
0
10
94.2699324696
20
17.4031326146
11
94.4351657855
21
17.3827291533
0
LINE
8
0
10
94.4351657855
20
17.3827291533
11
94.6686673495
21
17.2517757797
0
LINE
8
0
10
94.6686673495
20
17.2517757797
11
95.1788091807
21
16.8466935951
0
LINE
8
0
10
95.1788091807
20
16.8466935951
11
95.7113027907
21
16.4628597424
0
LINE
8
0
10
95.7113027907
20
16.4628597424
11
96.3594514213
21
16.0400422572
0
LINE
8
0
10
96.3594514213
20
16.0400422572
11
97.127822731
21
15.5883105985
0
LINE
8
0
10
97.127822731
20
15.5883105985
11
98.0202916562
21
15.1180647564
0
LINE
8
0
10
98.0202916562
20
15.1180647564
11
98.9212929448
21
14.6956543443
0
LINE
8
0
10
98.9212929448
20
14.6956543443
11
99.7387726529
21
15.3343394901
0
LINE
8
0
10
99.7387726529
20
15.3343394901
11
100.459408912
21
16.080580182
0
LINE
8
0
10
100.459408912
20
16.080580182
11
100.133492789
21
17.0207996025
0
LINE
8
0
10
100.133492789
20
17.0207996025
11
99.7591114078
21
17.9575335648
0
LINE
8
0
10
99.7591114078
20
17.9575335648
11
99.3901710546
21
18.7689144722
0
LINE
8
0
10
99.3901710546
20
18.7689144722
11
99.0374197881
21
19.4577089387
0
LINE
8
0
10
99.0374197881
20
19.4577089387
11
98.7113493562
21
20.0274070558
0
LINE
8
0
10
98.7113493562
20
20.0274070558
11
98.3618105959
21
20.5770968949
0
LINE
8
0
10
98.3618105959
20
20.5770968949
11
98.2559821583
21
20.8230076678
0
LINE
8
0
10
98.2559821583
20
20.8230076678
11
98.2529620538
21
20.9894685608
0
LINE
8
0
10
98.2529620538
20
20.9894685608
11
99.8347773735
21
22.6274862752
0
LINE
8
0
10
99.8347773735
20
22.6274862752
11
100.001242263
21
22.6302774119
0
LINE
8
0
10
100.001242263
20
22.6302774119
11
100.250696593
21
22.5330956043
0
LINE
8
0
10
100.250696593
20
22.5330956043
11
100.812250303
21
22.2029536722
0
LINE
8
0
10
100.812250303
20
22.2029536722
11
101.392981069
21
21.8969640512
0
LINE
8
0
10
101.392981069
20
21.8969640512
11
102.093666782
21
21.5684662514
0
LINE
8
0
10
102.093666782
20
21.5684662514
11
102.917429251
21
21.2280674321
0
LINE
8
0
10
102.917429251
20
21.2280674321
11
103.866658302
21
20.886605658
0
LINE
8
0
10
103.866658302
20
20.886605658
11
104.817679275
21
20.5937012583
0
LINE
8
0
10
104.817679275
20
20.5937012583
11
105.538315534
21
21.3399419501
0
LINE
8
0
10
105.538315534
20
21.3399419501
11
106.14808198
21
22.1792134617
0
LINE
8
0
10
106.14808198
20
22.1792134617
11
105.694484398
21
23.064923974
0
LINE
8
0
10
105.694484398
20
23.064923974
11
105.1933783
21
23.940437888
0
LINE
8
0
10
105.1933783
20
23.940437888
11
104.715106052
21
24.6925759191
0
LINE
8
0
10
104.715106052
20
24.6925759191
11
104.269926075
21
25.3255735977
0
LINE
8
0
10
104.269926075
20
25.3255735977
11
103.867742285
21
25.8443472186
0
LINE
8
0
10
103.867742285
20
25.8443472186
11
103.445103172
21
26.3400411209
0
LINE
8
0
10
103.445103172
20
26.3400411209
11
103.306080485
21
26.5688302352
0
LINE
8
0
10
103.306080485
20
26.5688302352
11
103.279922893
21
26.7332508249
0
LINE
8
0
10
103.279922893
20
26.7332508249
11
104.61837609
21
28.5754736067
0
LINE
8
0
10
104.61837609
20
28.5754736067
11
104.782832504
21
28.6014050151
0
LINE
8
0
10
104.782832504
20
28.6014050151
11
105.043384255
21
28.5398863068
0
LINE
8
0
10
105.043384255
20
28.5398863068
11
105.645419839
21
28.2911104645
0
LINE
8
0
10
105.645419839
20
28.2911104645
11
106.263084497
21
28.068920815
0
LINE
8
0
10
106.263084497
20
28.068920815
11
107.002669243
21
27.8411365367
0
LINE
8
0
10
107.002669243
20
27.8411365367
11
107.865789271
21
27.6186960325
0
LINE
8
0
10
107.865789271
20
27.6186960325
11
108.853302784
21
27.4126644915
0
LINE
8
0
10
108.853302784
20
27.4126644915
11
109.8358329
21
27.2549671552
0
LINE
8
0
10
109.8358329
20
27.2549671552
11
110.445599346
21
28.0942386668
0
LINE
8
0
10
110.445599346
20
28.0942386668
11
110.932627568
21
29.0102055329
0
LINE
8
0
10
110.932627568
20
29.0102055329
11
110.360177287
21
29.8241677891
0
LINE
8
0
10
110.360177287
20
29.8241677891
11
109.742099933
21
30.6214207724
0
LINE
8
0
10
109.742099933
20
30.6214207724
11
109.163804816
21
31.2996764161
0
LINE
8
0
10
109.163804816
20
31.2996764161
11
108.63486105
21
31.8645567268
0
LINE
8
0
10
108.63486105
20
31.8645567268
11
108.164391951
21
32.3223085133
0
LINE
8
0
10
108.164391951
20
32.3223085133
11
107.676878675
21
32.7543583606
0
LINE
8
0
10
107.676878675
20
32.7543583606
11
107.507367657
21
32.9615726965
0
LINE
8
0
10
107.507367657
20
32.9615726965
11
107.458581706
21
33.1207527232
0
LINE
8
0
10
107.458581706
20
33.1207527232
11
108.527621311
21
35.1313238014
0
LINE
8
0
10
108.527621311
20
35.1313238014
11
108.686868292
21
35.1798907562
0
LINE
8
0
10
108.686868292
20
35.1798907562
11
108.95344612
21
35.155232539
0
LINE
8
0
10
108.95344612
20
35.155232539
11
109.584245641
21
34.9926649252
0
LINE
8
0
10
109.584245641
20
34.9926649252
11
110.226822052
21
34.8585999159
0
LINE
8
0
10
110.226822052
20
34.8585999159
11
110.990910654
21
34.7359627211
0
LINE
8
0
10
110.990910654
20
34.7359627211
11
111.876588592
21
34.6358100834
0
LINE
8
0
10
111.876588592
20
34.6358100834
11
112.88316574
21
34.569218945
0
LINE
8
0
10
112.88316574
20
34.569218945
11
113.878081168
21
34.5497980713
0
LINE
8
0
10
113.878081168
20
34.5497980713
11
114.36510939
21
35.4657649374
0
LINE
8
0
10
114.36510939
20
35.4657649374
11
114.719919937
21
36.4405989048
0
LINE
8
0
10
114.719919937
20
36.4405989048
11
114.039759052
21
37.1669700556
0
LINE
8
0
10
114.039759052
20
37.1669700556
11
113.316740615
21
37.8704444858
0
LINE
8
0
10
113.316740615
20
37.8704444858
11
112.649678485
21
38.4616162674
0
LINE
8
0
10
112.649678485
20
38.4616162674
11
112.047266218
21
38.9473844576
0
LINE
8
0
10
112.047266218
20
38.9473844576
11
111.517668957
21
39.3352047917
0
LINE
8
0
10
111.517668957
20
39.3352047917
11
110.97477041
21
39.6952012254
0
LINE
8
0
10
110.97477041
20
39.6952012254
11
110.778070399
21
39.8768075915
0
LINE
8
0
10
110.778070399
20
39.8768075915
11
110.707605652
21
40.027648797
0
LINE
8
0
10
110.707605652
20
40.027648797
11
111.486424025
21
42.1674346926
0
LINE
8
0
10
111.486424025
20
42.1674346926
11
111.637362012
21
42.2376918932
0
LINE
8
0
10
111.637362012
20
42.2376918932
11
111.904777284
21
42.2503741111
0
LINE
8
0
10
111.904777284
20
42.2503741111
11
112.552062946
21
42.1771789195
0
LINE
8
0
10
112.552062946
20
42.1771789195
11
113.207044091
21
42.1338479735
0
LINE
8
0
10
113.207044091
20
42.1338479735
11
113.980764433
21
42.1187448556
0
LINE
8
0
10
113.980764433
20
42.1187448556
11
114.871761568
21
42.1428294416
0
LINE
8
0
10
114.871761568
20
42.1428294416
11
115.877810472
21
42.2169748266
0
LINE
8
0
10
115.877810472
20
42.2169748266
11
116.865746314
21
42.3362084208
0
LINE
8
0
10
116.865746314
20
42.3362084208
11
117.220556861
21
43.3110423882
0
LINE
8
0
10
117.220556861
20
43.3110423882
11
117.436243751
21
44.3257694225
0
LINE
8
0
10
117.436243751
20
44.3257694225
11
116.661610819
21
44.9504114797
0
LINE
8
0
10
116.661610819
20
44.9504114797
11
115.84772403
21
45.5464150271
0
LINE
8
0
10
115.84772403
20
45.5464150271
11
115.104878492
21
46.0389964604
0
LINE
8
0
10
115.104878492
20
46.0389964604
11
114.440722995
21
46.4361976048
0
LINE
8
0
10
114.440722995
20
46.4361976048
11
113.862305579
21
46.7465380049
0
LINE
8
0
10
113.862305579
20
46.7465380049
11
113.274588664
21
47.0274741038
0
LINE
8
0
10
113.274588664
20
47.0274741038
11
113.054528203
21
47.1799377388
0
LINE
8
0
10
113.054528203
20
47.1799377388
11
112.963756175
21
47.3195041706
0
LINE
8
0
10
112.963756175
20
47.3195041706
11
113.437194504
21
49.5468563851
0
LINE
8
0
10
113.437194504
20
49.5468563851
11
113.576885659
21
49.6374363551
0
LINE
8
0
10
113.576885659
20
49.6374363551
11
113.839933441
21
49.6872121632
0
LINE
8
0
10
113.839933441
20
49.6872121632
11
114.491106565
21
49.704814055
0
LINE
8
0
10
114.491106565
20
49.704814055
11
115.145743981
21
49.7530605598
0
LINE
8
0
10
115.145743981
20
49.7530605598
11
115.914036478
21
49.8457854837
0
LINE
8
0
10
115.914036478
20
49.8457854837
11
116.793010563
21
49.9936385143
0
LINE
8
0
10
116.793010563
20
49.9936385143
11
117.778949625
21
50.2070772672
0
LINE
8
0
10
117.778949625
20
50.2070772672
11
118.740676834
21
50.462644583
0
LINE
8
0
10
60.0083534045
20
58.3385829144
11
59.6964858683
21
58.3058043155
0
LINE
8
0
10
59.6964858683
20
58.3058043155
11
59.384618332
21
58.3385829144
0
LINE
8
0
10
59.384618332
20
58.3385829144
11
59.0863809036
21
58.435486129
0
LINE
8
0
10
59.0863809036
20
58.435486129
11
58.8148079898
21
58.5922788239
0
LINE
8
0
10
58.8148079898
20
58.5922788239
11
58.58176863
21
58.802108406
0
LINE
8
0
10
58.58176863
20
58.802108406
11
58.3974477626
21
59.0558043155
0
LINE
8
0
10
58.3974477626
20
59.0558043155
11
58.2699010938
21
59.3422788239
0
LINE
8
0
10
58.2699010938
20
59.3422788239
11
58.2047030252
21
59.6490116206
0
LINE
8
0
10
58.2047030252
20
59.6490116206
11
58.2047030252
21
59.9625970104
0
LINE
8
0
10
58.2047030252
20
59.9625970104
11
58.2699010938
21
60.2693298071
0
LINE
8
0
10
58.2699010938
20
60.2693298071
11
58.3974477626
21
60.5558043155
0
LINE
8
0
10
58.3974477626
20
60.5558043155
11
58.58176863
21
60.809500225
0
LINE
8
0
10
58.58176863
20
60.809500225
11
58.8148079898
21
61.0193298071
0
LINE
8
0
10
58.8148079898
20
61.0193298071
11
59.0863809036
21
61.176122502
0
LINE
8
0
10
59.0863809036
20
61.176122502
11
59.384618332
21
61.2730257166
0
LINE
8
0
10
59.384618332
20
61.2730257166
11
59.6964858683
21
61.3058043155
0
LINE
8
0
10
59.6964858683
20
61.3058043155
11
60.0083534045
21
61.2730257166
0
LINE
8
0
10
60.0083534045
20
61.2730257166
11
60.3065908329
21
61.176122502
0
LINE
8
0
10
60.3065908329
20
61.176122502
11
60.5781637467
21
61.0193298071
0
LINE
8
0
10
60.5781637467
20
61.0193298071
11
60.8112031065
21
60.809500225
0
LINE
8
0
10
60.8112031065
20
60.809500225
11
60.9955239739
21
60.5558043155
0
LINE
8
0
10
60.9955239739
20
60.5558043155
11
61.1230706427
21
60.2693298071
0
LINE
8
0
10
61.1230706427
20
60.2693298071
11
61.1882687113
21
59.9625970104
0
LINE
8
0
10
61.1882687113
20
59.9625970104
11
61.1882687113
21
59.6490116206
0
LINE
8
0
10
61.1882687113
20
59.6490116206
11
61.1230706427
21
59.3422788239
0
LINE
8
0
10
61.1230706427
20
59.3422788239
11
60.9955239739
21
59.0558043155
0
LINE
8
0
10
60.9955239739
20
59.0558043155
11
60.8112031065
21
58.802108406
0
LINE
8
0
10
60.8112031065
20
58.802108406
11
60.5781637467
21
58.5922788239
0
LINE
8
0
10
60.5781637467
20
58.5922788239
11
60.3065908329
21
58.435486129
0
LINE
8
0
10
60.3065908329
20
58.435486129
11
60.0083534045
21
58.3385829144
0
ENDSEC
0
EOF
