  0
SECTION
  2
BLOCKS
  0
ENDSEC
  0
SECTION
  2
ENTITIES
  0
LINE
  8
0
 10
49.98258243482279
 20
-9.37938437340325
 11
50.234968675554555
 21
-8.38273364779649
  0
LINE
  8
0
 10
50.234968675554555
 20
-8.38273364779649
 11
50.319869379089425
 21
-7.35813452916403
  0
LINE
  8
0
 10
50.319869379089425
 20
-7.35813452916403
 11
49.51581031149939
 21
-6.834130030878902
  0
LINE
  8
0
 10
49.51581031149939
 20
-6.834130030878902
 11
48.61829034980823
 21
-6.317316856419761
  0
LINE
  8
0
 10
48.61829034980823
 20
-6.317316856419761
 11
47.817848856304906
 21
-5.913397486748734
  0
LINE
  8
0
 10
47.817848856304906
 20
-5.913397486748734
 11
47.12382107826642
 21
-5.609916389848095
  0
LINE
  8
0
 10
47.12382107826642
 20
-5.609916389848095
 11
46.54445488093757
 21
-5.393753437966494
  0
LINE
  8
0
 10
46.54445488093757
 20
-5.393753437966494
 11
45.947567413690976
 21
-5.207811993447633
  0
LINE
  8
0
 10
45.947567413690976
 20
-5.207811993447633
 11
45.664388334884606
 21
-5.065398447074474
  0
LINE
  8
0
 10
45.664388334884606
 20
-5.065398447074474
 11
45.53621784378242
 21
-4.91569695614484
  0
LINE
  8
0
 10
45.53621784378242
 20
-4.91569695614484
 11
45.72426031086444
 21
-2.646361862135563
  0
LINE
  8
0
 10
45.72426031086444
 20
-2.646361862135563
 11
45.87532277908976
 21
-2.519798273890502
  0
LINE
  8
0
 10
45.87532277908976
 20
-2.519798273890502
 11
46.17808016367286
 21
-2.4259368071162717
  0
LINE
  8
0
 10
46.17808016367286
 20
-2.4259368071162717
 11
46.797431819728196
 21
-2.3407758096624964
  0
LINE
  8
0
 10
46.797431819728196
 20
-2.3407758096624964
 11
47.40447546977185
 21
-2.2229215805688036
  0
LINE
  8
0
 10
47.40447546977185
 20
-2.2229215805688036
 11
48.13898896031772
 21
-2.037812788041561
  0
LINE
  8
0
 10
48.13898896031772
 20
-2.037812788041561
 11
48.9949964183049
 21
-1.7711506917701687
  0
LINE
  8
0
 10
48.9949964183049
 20
-1.7711506917701687
 11
49.96534003025109
 21
-1.4091131057580237
  0
LINE
  8
0
 10
49.96534003025109
 20
-1.4091131057580237
 11
50.844681085871684
 21
-1.0245991186324588
  0
LINE
  8
0
 10
50.844681085871684
 20
-1.0245991186324588
 11
50.92958178940655
 21
-2.6645352591003757e-15
  0
LINE
  8
0
 10
50.92958178940655
 20
-2.6645352591003757e-15
 11
50.84468108587163
 21
1.0245991186324623
  0
LINE
  8
0
 10
50.84468108587163
 20
1.0245991186324623
 11
49.965340030250275
 21
1.4091131057583808
  0
LINE
  8
0
 10
49.965340030250275
 20
1.4091131057583808
 11
48.99499641830483
 21
1.7711506917702606
  0
LINE
  8
0
 10
48.99499641830483
 20
1.7711506917702606
 11
48.13898896031781
 21
2.0378127880417023
  0
LINE
  8
0
 10
48.13898896031781
 20
2.0378127880417023
 11
47.40447546977177
 21
2.2229215805690115
  0
LINE
  8
0
 10
47.40447546977177
 20
2.2229215805690115
 11
46.79743181972818
 21
2.3407758096624782
  0
LINE
  8
0
 10
46.79743181972818
 20
2.3407758096624782
 11
46.178080163673286
 21
2.4259368071195295
  0
LINE
  8
0
 10
46.178080163673286
 20
2.4259368071195295
 11
45.875322779089736
 21
2.519798273890152
  0
LINE
  8
0
 10
45.875322779089736
 20
2.519798273890152
 11
45.72426031086444
 21
2.646361862135792
  0
LINE
  8
0
 10
45.72426031086444
 20
2.646361862135792
 11
45.53621784378238
 21
4.915696956145065
  0
LINE
  8
0
 10
45.53621784378238
 20
4.915696956145065
 11
45.664388334884684
 21
5.065398447074132
  0
LINE
  8
0
 10
45.664388334884684
 20
5.065398447074132
 11
45.94756741369001
 21
5.2078119934507745
  0
LINE
  8
0
 10
45.94756741369001
 20
5.2078119934507745
 11
46.54445488093759
 21
5.393753437966478
  0
LINE
  8
0
 10
46.54445488093759
 20
5.393753437966478
 11
47.12382107826647
 21
5.609916389848313
  0
LINE
  8
0
 10
47.12382107826647
 20
5.609916389848313
 11
47.817848856304785
 21
5.913397486748857
  0
LINE
  8
0
 10
47.817848856304785
 20
5.913397486748857
 11
48.618290349808284
 21
6.317316856419862
  0
LINE
  8
0
 10
48.618290349808284
 20
6.317316856419862
 11
49.51581031150014
 21
6.834130030879387
  0
LINE
  8
0
 10
49.51581031150014
 20
6.834130030879387
 11
50.319869379089404
 21
7.358134529164034
  0
LINE
  8
0
 10
50.319869379089404
 20
7.358134529164034
 11
50.23496867555455
 21
8.38273364779649
  0
LINE
  8
0
 10
50.23496867555455
 20
8.38273364779649
 11
49.98258243482276
 21
9.379384373403216
  0
LINE
  8
0
 10
49.98258243482276
 20
9.379384373403216
 11
49.05194552289637
 21
9.613919310154287
  0
LINE
  8
0
 10
49.05194552289637
 20
9.613919310154287
 11
48.0352467049335
 21
9.811305866134052
  0
LINE
  8
0
 10
48.0352467049335
 20
9.811305866134052
 11
47.14702293447178
 21
9.93343684215583
  0
LINE
  8
0
 10
47.14702293447178
 20
9.93343684215583
 11
46.3920593447065
 21
9.995124044992274
  0
LINE
  8
0
 10
46.3920593447065
 20
9.995124044992274
 11
45.77389681027667
 21
10.011454795150984
  0
LINE
  8
0
 10
45.77389681027667
 20
10.011454795150984
 11
45.14897526406139
 21
9.993512375533747
  0
LINE
  8
0
 10
45.14897526406139
 20
9.993512375533747
 11
44.834898005922504
 21
10.036261466566913
  0
LINE
  8
0
 10
44.834898005922504
 20
10.036261466566913
 11
44.66506415091682
 21
10.136234827367868
  0
LINE
  8
0
 10
44.66506415091682
 20
10.136234827367868
 11
44.106066057982545
 21
12.343668375727646
  0
LINE
  8
0
 10
44.106066057982545
 20
12.343668375727646
 11
44.20784841508009
 21
12.512424302910834
  0
LINE
  8
0
 10
44.20784841508009
 20
12.512424302910834
 11
44.463724801030615
 21
12.699505258589143
  0
LINE
  8
0
 10
44.463724801030615
 20
12.699505258589143
 11
45.02186654533341
 21
12.981155152273558
  0
LINE
  8
0
 10
45.02186654533341
 20
12.981155152273558
 11
45.557751690379334
 21
13.289730465110956
  0
LINE
  8
0
 10
45.557751690379334
 20
13.289730465110956
 11
46.192362487320615
 21
13.703305693177532
  0
LINE
  8
0
 10
46.192362487320615
 20
13.703305693177532
 11
46.9154040589929
 21
14.233464468782737
  0
LINE
  8
0
 10
46.9154040589929
 20
14.233464468782737
 11
47.715618365535384
 21
14.890955915521783
  0
LINE
  8
0
 10
47.715618365535384
 20
14.890955915521783
 11
48.422462809755075
 21
15.54015744823008
  0
LINE
  8
0
 10
48.422462809755075
 20
15.54015744823008
 11
48.170076569023315
 21
16.536808173836796
  0
LINE
  8
0
 10
48.170076569023315
 20
16.536808173836796
 11
47.757089229819975
 21
17.478324472697775
  0
LINE
  8
0
 10
47.757089229819975
 20
17.478324472697775
 11
46.80054181055651
 21
17.556482857386396
  0
LINE
  8
0
 10
46.80054181055651
 20
17.556482857386396
 11
45.765220679994236
 21
17.583834192635262
  0
LINE
  8
0
 10
45.765220679994236
 20
17.583834192635262
 11
44.869009026089444
 21
17.558102633753194
  0
LINE
  8
0
 10
44.869009026089444
 20
17.558102633753194
 11
44.11418877579054
 21
17.49468558081193
  0
LINE
  8
0
 10
44.11418877579054
 20
17.49468558081193
 11
43.50176921948425
 21
17.409047391742643
  0
LINE
  8
0
 10
43.50176921948425
 20
17.409047391742643
 11
42.888324013840446
 21
17.28849097748588
  0
LINE
  8
0
 10
42.888324013840446
 20
17.28849097748588
 11
42.571494091009946
 21
17.278961609016765
  0
LINE
  8
0
 10
42.571494091009946
 20
17.278961609016765
 11
42.3875214740646
 21
17.34961772970149
  0
LINE
  8
0
 10
42.3875214740646
 20
17.34961772970149
 11
41.47281576605409
 21
19.434936699562307
  0
LINE
  8
0
 10
41.47281576605409
 20
19.434936699562307
 11
41.54543363177206
 21
19.61814384121993
  0
LINE
  8
0
 10
41.54543363177206
 20
19.61814384121993
 11
41.767027684079004
 21
19.844789125412653
  0
LINE
  8
0
 10
41.767027684079004
 20
19.844789125412653
 11
42.271199053619384
 21
20.214464793372542
  0
LINE
  8
0
 10
42.271199053619384
 20
20.214464793372542
 11
42.748985596573824
 21
20.607035337027114
  0
LINE
  8
0
 10
42.748985596573824
 20
20.607035337027114
 11
43.30686888418438
 21
21.119423442148214
  0
LINE
  8
0
 10
43.30686888418438
 20
21.119423442148214
 11
43.932787844778936
 21
21.761360274309894
  0
LINE
  8
0
 10
43.932787844778936
 20
21.761360274309894
 11
44.61386873589258
 21
22.541595340613704
  0
LINE
  8
0
 10
44.61386873589258
 20
22.541595340613704
 11
45.20421768291039
 21
23.29828538227548
  0
LINE
  8
0
 10
45.20421768291039
 20
23.29828538227548
 11
44.79123034370707
 21
24.23980168113646
  0
LINE
  8
0
 10
44.79123034370707
 20
24.23980168113646
 11
44.22890712406797
 21
25.100501442968586
  0
LINE
  8
0
 10
44.22890712406797
 20
25.100501442968586
 11
43.27254131753188
 21
25.020151318604103
  0
LINE
  8
0
 10
43.27254131753188
 20
25.020151318604103
 11
42.24683873593118
 21
24.876721359996097
  0
LINE
  8
0
 10
42.24683873593118
 20
24.876721359996097
 11
41.367085516252416
 21
24.703829156059317
  0
LINE
  8
0
 10
41.367085516252416
 20
24.703829156059317
 11
40.6329981341785
 21
24.517037699228663
  0
LINE
  8
0
 10
40.6329981341785
 20
24.517037699228663
 11
40.043026765033154
 21
24.33176655748709
  0
LINE
  8
0
 10
40.043026765033154
 20
24.33176655748709
 11
39.45779108603848
 21
24.111884613304607
  0
LINE
  8
0
 10
39.45779108603848
 20
24.111884613304607
 11
39.14685079289722
 21
24.050336721663847
  0
LINE
  8
0
 10
39.14685079289722
 20
24.050336721663847
 11
38.95375770742167
 21
24.089748287446817
  0
LINE
  8
0
 10
38.95375770742167
 20
24.089748287446817
 11
37.70829517158963
 21
25.996070613331714
  0
LINE
  8
0
 10
37.70829517158963
 20
25.996070613331714
 11
37.749767719851896
 21
26.188731556224727
  0
LINE
  8
0
 10
37.749767719851896
 20
26.188731556224727
 11
37.9310349304209
 21
26.448758876399253
  0
LINE
  8
0
 10
37.9310349304209
 20
26.448758876399253
 11
38.36748344451446
 21
26.896376530085217
  0
LINE
  8
0
 10
38.36748344451446
 20
26.896376530085217
 11
38.774138613982174
 21
27.362234003481085
  0
LINE
  8
0
 10
38.774138613982174
 20
27.362234003481085
 11
39.240076790469196
 21
27.959458373845116
  0
LINE
  8
0
 10
39.240076790469196
 20
27.959458373845116
 11
39.751799702389945
 21
28.695662899186328
  0
LINE
  8
0
 10
39.751799702389945
 20
28.695662899186328
 11
40.295169066810566
 21
29.57735880636715
  0
LINE
  8
0
 10
40.295169066810566
 20
29.57735880636715
 11
40.75291933627664
 21
30.42089682518958
  0
LINE
  8
0
 10
40.75291933627664
 20
30.42089682518958
 11
40.19059611663757
 21
31.281596587021696
  0
LINE
  8
0
 10
40.19059611663757
 20
31.281596587021696
 11
39.494275728127235
 21
32.03800216599897
  0
LINE
  8
0
 10
39.494275728127235
 20
32.03800216599897
 11
38.5641787004613
 21
31.801335274516973
  0
LINE
  8
0
 10
38.5641787004613
 20
31.801335274516973
 11
37.57607316044116
 21
31.49103641742892
  0
LINE
  8
0
 10
37.57607316044116
 20
31.49103641742892
 11
36.73677574947578
 21
31.175699617064488
  0
LINE
  8
0
 10
36.73677574947578
 20
31.175699617064488
 11
36.04344522578684
 21
30.870628940357797
  0
LINE
  8
0
 10
36.04344522578684
 20
30.870628940357797
 11
35.49201492481215
 21
30.590778559724825
  0
LINE
  8
0
 10
35.49201492481215
 20
30.590778559724825
 11
34.95095247619405
 21
30.27756889186448
  0
LINE
  8
0
 10
34.95095247619405
 20
30.27756889186448
 11
34.654383453378045
 21
30.165681343092647
  0
LINE
  8
0
 10
34.654383453378045
 20
30.165681343092647
 11
34.457436975387964
 21
30.17277330919759
  0
LINE
  8
0
 10
34.457436975387964
 20
30.17277330919759
 11
32.91519058303337
 21
31.848099487467845
  0
LINE
  8
0
 10
32.91519058303337
 20
31.848099487467845
 11
32.9243865508342
 21
32.04495894330372
  0
LINE
  8
0
 10
32.9243865508342
 20
32.04495894330372
 11
33.06038242268929
 21
32.33127543200632
  0
LINE
  8
0
 10
33.06038242268929
 20
32.33127543200632
 11
33.41720290360794
 21
32.84462522867794
  0
LINE
  8
0
 10
33.41720290360794
 20
32.84462522867794
 11
33.74163420663675
 21
33.371062254340664
  0
LINE
  8
0
 10
33.74163420663675
 20
33.371062254340664
 11
34.10291769315584
 21
34.03683216597184
  0
LINE
  8
0
 10
34.10291769315584
 20
34.03683216597184
 11
34.48648608932767
 21
34.84722264418323
  0
LINE
  8
0
 10
34.48648608932767
 20
34.84722264418323
 11
34.87732222725207
 21
35.806329026302876
  0
LINE
  8
0
 10
34.87732222725207
 20
35.806329026302876
 11
35.189987585081305
 21
36.71370550407199
  0
LINE
  8
0
 10
35.189987585081305
 20
36.71370550407199
 11
34.49366719657102
 21
37.470111083049304
  0
LINE
  8
0
 10
34.49366719657102
 20
37.470111083049304
 11
33.682343444216215
 21
38.101589706779414
  0
LINE
  8
0
 10
33.682343444216215
 20
38.101589706779414
 11
32.80388581775315
 21
37.71506170403496
  0
LINE
  8
0
 10
32.80388581775315
 20
37.71506170403496
 11
31.880330262646417
 21
37.24635809239948
  0
LINE
  8
0
 10
31.880330262646417
 20
37.24635809239948
 11
31.104382505880498
 21
36.797178261499646
  0
LINE
  8
0
 10
31.104382505880498
 20
36.797178261499646
 11
30.470721089884986
 21
36.382149897717575
  0
LINE
  8
0
 10
30.470721089884986
 20
36.382149897717575
 11
29.972873438220027
 21
36.01535386706138
  0
LINE
  8
0
 10
29.972873438220027
 20
36.01535386706138
 11
29.49074299313224
 21
35.617360018785725
  0
LINE
  8
0
 10
29.49074299313224
 20
35.617360018785725
 11
29.216634870486192
 21
35.45818481354425
  0
LINE
  8
0
 10
29.216634870486192
 20
35.45818481354425
 11
29.021207186499993
 21
35.4327637296232
  0
LINE
  8
0
 10
29.021207186499993
 20
35.4327637296232
 11
27.224245398869993
 21
36.83139522938501
  0
LINE
  8
0
 10
27.224245398869993
 20
36.83139522938501
 11
27.20091394417987
 21
37.027083385382845
  0
LINE
  8
0
 10
27.20091394417987
 20
37.027083385382845
 11
27.287928864451626
 21
37.33187907517309
  0
LINE
  8
0
 10
27.287928864451626
 20
37.33187907517309
 11
27.555388179637465
 21
37.896958170580206
  0
LINE
  8
0
 10
27.555388179637465
 20
37.896958170580206
 11
27.788745976010045
 21
38.46961491876863
  0
LINE
  8
0
 10
27.788745976010045
 20
38.46961491876863
 11
28.035519900844722
 21
39.185769904010264
  0
LINE
  8
0
 10
28.035519900844722
 20
39.185769904010264
 11
28.280471035308246
 21
40.04824099537655
  0
LINE
  8
0
 10
28.280471035308246
 20
40.04824099537655
 11
28.508112955727626
 21
41.05859593053452
  0
LINE
  8
0
 10
28.508112955727626
 20
41.05859593053452
 11
28.667164706016138
 21
42.00506000229069
  0
LINE
  8
0
 10
28.667164706016138
 20
42.00506000229069
 11
27.855840953661403
 21
42.63653862602087
  0
LINE
  8
0
 10
27.855840953661403
 20
42.63653862602087
 11
26.95164463446327
 21
43.12586520379047
  0
LINE
  8
0
 10
26.95164463446327
 20
43.12586520379047
 11
26.14878844328484
 21
42.600019566095085
  0
LINE
  8
0
 10
26.14878844328484
 20
42.600019566095085
 11
25.31497506110518
 21
41.98569621261846
  0
LINE
  8
0
 10
25.31497506110518
 20
41.98569621261846
 11
24.623542790598457
 21
41.41492580604574
  0
LINE
  8
0
 10
24.623542790598457
 20
41.41492580604574
 11
24.066835113892704
 21
40.901260647054066
  0
LINE
  8
0
 10
24.066835113892704
 20
40.901260647054066
 11
23.636150097682926
 21
40.457524205925054
  0
LINE
  8
0
 10
23.636150097682926
 20
40.457524205925054
 11
23.22610291784719
 21
39.98560241192252
  0
LINE
  8
0
 10
23.22610291784719
 20
39.98560241192252
 11
22.981932650410332
 21
39.7834814348716
  0
LINE
  8
0
 10
22.981932650410332
 20
39.7834814348716
 11
22.793354518205206
 21
39.726240721826095
  0
LINE
  8
0
 10
22.793354518205206
 20
39.726240721826095
 11
20.790693768536567
 21
40.810026521726165
  0
LINE
  8
0
 10
20.790693768536567
 20
40.810026521726165
 11
20.73547131261888
 21
40.99920551511129
  0
LINE
  8
0
 10
20.73547131261888
 20
40.99920551511129
 11
20.77113174111325
 21
41.31416637411477
  0
LINE
  8
0
 10
20.77113174111325
 20
41.31416637411477
 11
20.941934297662417
 21
41.91556088358595
  0
LINE
  8
0
 10
20.941934297662417
 20
41.91556088358595
 11
21.077853195012093
 21
42.518816771014194
  0
LINE
  8
0
 10
21.077853195012093
 20
42.518816771014194
 11
21.203386208784476
 21
43.26582198874563
  0
LINE
  8
0
 10
21.203386208784476
 20
43.26582198874563
 11
21.30303845313148
 21
44.15684773018868
  0
LINE
  8
0
 10
21.30303845313148
 20
44.15684773018868
 11
21.361276677874994
 21
45.19089136955261
  0
LINE
  8
0
 10
21.361276677874994
 20
45.19089136955261
 11
21.362376303491928
 21
46.150625962666076
  0
LINE
  8
0
 10
21.362376303491928
 20
46.150625962666076
 11
20.458179984293814
 21
46.63995254043567
  0
LINE
  8
0
 10
20.458179984293814
 20
46.63995254043567
 11
19.48577521677614
 21
46.97377951878231
  0
LINE
  8
0
 10
19.48577521677614
 20
46.97377951878231
 11
18.78042028488781
 21
46.32295994435508
  0
LINE
  8
0
 10
18.78042028488781
 20
46.32295994435508
 11
18.05909333111182
 21
45.57977398869868
  0
LINE
  8
0
 10
18.05909333111182
 20
45.57977398869868
 11
17.471037016774307
 21
44.90298213525699
  0
LINE
  8
0
 10
17.471037016774307
 20
44.90298213525699
 11
17.006468613550243
 21
44.30469162756787
  0
LINE
  8
0
 10
17.006468613550243
 20
44.30469162756787
 11
16.654694197325806
 21
43.79611874934548
  0
LINE
  8
0
 10
16.654694197325806
 20
43.79611874934548
 11
16.327915300894812
 21
43.26314180594815
  0
LINE
  8
0
 10
16.327915300894812
 20
43.26314180594815
 11
16.120343217058444
 21
43.023588390451664
  0
LINE
  8
0
 10
16.120343217058444
 20
43.023588390451664
 11
15.943758556494446
 21
42.936089425718194
  0
LINE
  8
0
 10
15.943758556494446
 20
42.936089425718194
 11
13.790026209491185
 21
43.67546667435397
  0
LINE
  8
0
 10
13.790026209491185
 20
43.67546667435397
 11
13.70441907698917
 21
43.85297619533967
  0
LINE
  8
0
 10
13.70441907698917
 20
43.85297619533967
 11
13.687752290176633
 21
44.16951091236445
  0
LINE
  8
0
 10
13.687752290176633
 20
44.16951091236445
 11
13.75723903959549
 21
44.7908163613998
  0
LINE
  8
0
 10
13.75723903959549
 20
44.7908163613998
 11
13.792011524716687
 21
45.408216140029566
  0
LINE
  8
0
 10
13.792011524716687
 20
45.408216140029566
 11
13.792879414051209
 21
46.16569523520835
  0
LINE
  8
0
 10
13.792879414051209
 20
46.16569523520835
 11
13.744514514829921
 21
47.06097076723235
  0
LINE
  8
0
 10
13.744514514829921
 20
47.06097076723235
 11
13.631760456942288
 21
48.09049709587098
  0
LINE
  8
0
 10
13.631760456942288
 20
48.09049709587098
 11
13.47487796296728
 21
49.037323152482884
  0
LINE
  8
0
 10
13.47487796296728
 20
49.037323152482884
 11
12.502473195449625
 21
49.37115013082953
  0
LINE
  8
0
 10
12.502473195449625
 20
49.37115013082953
 11
11.488384646800274
 21
49.54037158000598
  0
LINE
  8
0
 10
11.488384646800274
 20
49.54037158000598
 11
10.899771218020895
 21
48.782330730277266
  0
LINE
  8
0
 10
10.899771218020895
 20
48.782330730277266
 11
10.310606611588554
 21
47.93055434797022
  0
LINE
  8
0
 10
10.310606611588554
 20
47.93055434797022
 11
9.84196689672698
 21
47.16620216515675
  0
LINE
  8
0
 10
9.84196689672698
 20
47.16620216515675
 11
9.482209981985113
 21
46.49960611419299
  0
LINE
  8
0
 10
9.482209981985113
 20
46.49960611419299
 11
9.218941654813152
 21
45.94006934124457
  0
LINE
  8
0
 10
9.218941654813152
 20
45.94006934124457
 11
8.984344718232533
 21
45.36057547010114
  0
LINE
  8
0
 10
8.984344718232533
 20
45.36057547010114
 11
8.819032843343669
 21
45.090124008864684
  0
LINE
  8
0
 10
8.819032843343669
 20
45.090124008864684
 11
8.65925842363913
 21
44.974753536108395
  0
LINE
  8
0
 10
8.65925842363913
 20
44.974753536108395
 11
6.413202683366287
 21
45.34955394954974
  0
LINE
  8
0
 10
6.413202683366287
 20
45.34955394954974
 11
6.299546013693461
 21
45.510552001136304
  0
LINE
  8
0
 10
6.299546013693461
 20
45.510552001136304
 11
6.2310066380711895
 21
45.82002633424637
  0
LINE
  8
0
 10
6.2310066380711895
 20
45.82002633424637
 11
6.197282162974031
 21
46.44429512981863
  0
LINE
  8
0
 10
6.197282162974031
 20
46.44429512981863
 11
6.129959733117743
 21
47.05899774313001
  0
LINE
  8
0
 10
6.129959733117743
 20
47.05899774313001
 11
6.00613882425578
 21
47.80628866064029
  0
LINE
  8
0
 10
6.00613882425578
 20
47.80628866064029
 11
5.811076049839076
 21
48.68139320054075
  0
LINE
  8
0
 10
5.811076049839076
 20
48.68139320054075
 11
5.5304053460915785
 21
49.678319423983666
  0
LINE
  8
0
 10
5.5304053460915785
 20
49.678319423983666
 11
5.219820077998168
 21
50.58640999746103
  0
LINE
  8
0
 10
5.219820077998168
 20
50.58640999746103
 11
4.205731529348813
 21
50.75563144663742
  0
LINE
  8
0
 10
4.205731529348813
 20
50.75563144663742
 11
3.1776208916433437
 21
50.755631446637416
  0
LINE
  8
0
 10
3.1776208916433437
 20
50.755631446637416
 11
2.721804805909326
 21
49.91104669992285
  0
LINE
  8
0
 10
2.721804805909326
 20
49.91104669992285
 11
2.280873421446605
 21
48.973914130259175
  0
LINE
  8
0
 10
2.280873421446605
 20
48.973914130259175
 11
1.9444335758298317
 21
48.142851153103635
  0
LINE
  8
0
 10
1.9444335758298317
 20
48.142851153103635
 11
1.6993013803880357
 21
47.42613256144933
  0
LINE
  8
0
 10
1.6993013803880357
 20
47.42613256144933
 11
1.531720415944496
 21
46.8308945983374
  0
LINE
  8
0
 10
1.531720415944496
 20
46.8308945983374
 11
1.3957046320956008
 21
46.220690881624876
  0
LINE
  8
0
 10
1.3957046320956008
 20
46.220690881624876
 11
1.2771622431653122
 21
45.92671858549664
  0
LINE
  8
0
 10
1.2771622431653122
 20
45.92671858549664
 11
1.1385562939889462
 21
45.78662361046595
  0
LINE
  8
0
 10
1.1385562939889462
 20
45.78662361046595
 11
-1.1385562939891687
 21
45.78662361046593
  0
LINE
  8
0
 10
-1.1385562939891687
 20
45.78662361046593
 11
-1.2771622431649596
 21
45.92671858549669
  0
LINE
  8
0
 10
-1.2771622431649596
 20
45.92671858549669
 11
-1.3957046320988062
 21
46.22069088162417
  0
LINE
  8
0
 10
-1.3957046320988062
 20
46.22069088162417
 11
-1.5317204159444737
 21
46.83089459833742
  0
LINE
  8
0
 10
-1.5317204159444737
 20
46.83089459833742
 11
-1.6993013803882435
 21
47.42613256144939
  0
LINE
  8
0
 10
-1.6993013803882435
 20
47.42613256144939
 11
-1.9444335758299582
 21
48.142851153103535
  0
LINE
  8
0
 10
-1.9444335758299582
 20
48.142851153103535
 11
-2.2808734214466964
 21
48.97391413025924
  0
LINE
  8
0
 10
-2.2808734214466964
 20
48.97391413025924
 11
-2.7218048059097444
 21
49.91104669992363
  0
LINE
  8
0
 10
-2.7218048059097444
 20
49.91104669992363
 11
-3.1776208916433464
 21
50.75563144663746
  0
LINE
  8
0
 10
-3.1776208916433464
 20
50.75563144663746
 11
-4.205731529348792
 21
50.755631446637466
  0
LINE
  8
0
 10
-4.205731529348792
 20
50.755631446637466
 11
-5.219820077998151
 21
50.58640999746097
  0
LINE
  8
0
 10
-5.219820077998151
 20
50.58640999746097
 11
-5.530405346091849
 21
49.67831942398282
  0
LINE
  8
0
 10
-5.530405346091849
 20
49.67831942398282
 11
-5.811076049839144
 21
48.68139320054067
  0
LINE
  8
0
 10
-5.811076049839144
 20
48.68139320054067
 11
-6.0061388242559115
 21
47.80628866064038
  0
LINE
  8
0
 10
-6.0061388242559115
 20
47.80628866064038
 11
-6.129959733117927
 21
47.05899774312991
  0
LINE
  8
0
 10
-6.129959733117927
 20
47.05899774312991
 11
-6.197282162973997
 21
46.44429512981862
  0
LINE
  8
0
 10
-6.197282162973997
 20
46.44429512981862
 11
-6.231006638074456
 21
45.820026334246535
  0
LINE
  8
0
 10
-6.231006638074456
 20
45.820026334246535
 11
-6.299546013693096
 21
45.510552001136325
  0
LINE
  8
0
 10
-6.299546013693096
 20
45.510552001136325
 11
-6.413202683366501
 21
45.34955394954972
  0
LINE
  8
0
 10
-6.413202683366501
 20
45.34955394954972
 11
-8.659258423639338
 21
44.974753536108345
  0
LINE
  8
0
 10
-8.659258423639338
 20
44.974753536108345
 11
-8.81903284334332
 21
45.09012400886479
  0
LINE
  8
0
 10
-8.81903284334332
 20
45.09012400886479
 11
-8.984344718235572
 21
45.36057547009993
  0
LINE
  8
0
 10
-8.984344718235572
 20
45.36057547009993
 11
-9.218941654813124
 21
45.940069341244595
  0
LINE
  8
0
 10
-9.218941654813124
 20
45.940069341244595
 11
-9.48220998198532
 21
46.499606114193035
  0
LINE
  8
0
 10
-9.48220998198532
 20
46.499606114193035
 11
-9.84196689672708
 21
47.166202165156626
  0
LINE
  8
0
 10
-9.84196689672708
 20
47.166202165156626
 11
-10.310606611588646
 21
47.93055434797028
  0
LINE
  8
0
 10
-10.310606611588646
 20
47.93055434797028
 11
-10.899771218021426
 21
48.78233073027798
  0
LINE
  8
0
 10
-10.899771218021426
 20
48.78233073027798
 11
-11.488384646800265
 21
49.54037158000595
  0
LINE
  8
0
 10
-11.488384646800265
 20
49.54037158000595
 11
-12.502473195449623
 21
49.37115013082957
  0
LINE
  8
0
 10
-12.502473195449623
 20
49.37115013082957
 11
-13.474877962967271
 21
49.03732315248288
  0
LINE
  8
0
 10
-13.474877962967271
 20
49.03732315248288
 11
-13.63176045694242
 21
48.090497095870106
  0
LINE
  8
0
 10
-13.63176045694242
 20
48.090497095870106
 11
-13.74451451482998
 21
47.060970767232256
  0
LINE
  8
0
 10
-13.74451451482998
 20
47.060970767232256
 11
-13.792879414051356
 21
46.16569523520842
  0
LINE
  8
0
 10
-13.792879414051356
 20
46.16569523520842
 11
-13.792011524716852
 21
45.40821614002944
  0
LINE
  8
0
 10
-13.792011524716852
 20
45.40821614002944
 11
-13.757239039595456
 21
44.79081636139979
  0
LINE
  8
0
 10
-13.757239039595456
 20
44.79081636139979
 11
-13.687752290179885
 21
44.169510912364075
  0
LINE
  8
0
 10
-13.687752290179885
 20
44.169510912364075
 11
-13.704419076988815
 21
43.85297619533975
  0
LINE
  8
0
 10
-13.704419076988815
 20
43.85297619533975
 11
-13.790026209491394
 21
43.67546667435393
  0
LINE
  8
0
 10
-13.790026209491394
 20
43.67546667435393
 11
-15.943758556494641
 21
42.93608942571811
  0
LINE
  8
0
 10
-15.943758556494641
 20
42.93608942571811
 11
-16.12034321705812
 21
43.023588390451835
  0
LINE
  8
0
 10
-16.12034321705812
 20
43.023588390451835
 11
-16.32791530089761
 21
43.26314180594646
  0
LINE
  8
0
 10
-16.32791530089761
 20
43.26314180594646
 11
-16.654694197325785
 21
43.79611874934551
  0
LINE
  8
0
 10
-16.654694197325785
 20
43.79611874934551
 11
-17.006468613550457
 21
44.30469162756788
  0
LINE
  8
0
 10
-17.006468613550457
 20
44.30469162756788
 11
-17.471037016774385
 21
44.902982135256856
  0
LINE
  8
0
 10
-17.471037016774385
 20
44.902982135256856
 11
-18.05909333111192
 21
45.579773988698726
  0
LINE
  8
0
 10
-18.05909333111192
 20
45.579773988698726
 11
-18.780420284888454
 21
46.32295994435569
  0
LINE
  8
0
 10
-18.780420284888454
 20
46.32295994435569
 11
-19.485775216776144
 21
46.97377951878235
  0
LINE
  8
0
 10
-19.485775216776144
 20
46.97377951878235
 11
-20.458179984293803
 21
46.639952540435715
  0
LINE
  8
0
 10
-20.458179984293803
 20
46.639952540435715
 11
-21.36237630349189
 21
46.15062596266601
  0
LINE
  8
0
 10
-21.36237630349189
 20
46.15062596266601
 11
-21.36127667787498
 21
45.19089136955173
  0
LINE
  8
0
 10
-21.36127667787498
 20
45.19089136955173
 11
-21.303038453131524
 21
44.15684773018859
  0
LINE
  8
0
 10
-21.303038453131524
 20
44.15684773018859
 11
-21.203386208784632
 21
43.26582198874567
  0
LINE
  8
0
 10
-21.203386208784632
 20
43.26582198874567
 11
-21.077853195012235
 21
42.518816771014045
  0
LINE
  8
0
 10
-21.077853195012235
 20
42.518816771014045
 11
-20.941934297662385
 21
41.91556088358595
  0
LINE
  8
0
 10
-20.941934297662385
 20
41.91556088358595
 11
-20.7711317411164
 21
41.31416637411387
  0
LINE
  8
0
 10
-20.7711317411164
 20
41.31416637411387
 11
-20.735471312618543
 21
40.99920551511143
  0
LINE
  8
0
 10
-20.735471312618543
 20
40.99920551511143
 11
-20.790693768536766
 21
40.81002652172609
  0
LINE
  8
0
 10
-20.790693768536766
 20
40.81002652172609
 11
-22.793354518205387
 21
39.726240721825974
  0
LINE
  8
0
 10
-22.793354518205387
 20
39.726240721825974
 11
-22.98193265041004
 21
39.78348143487181
  0
LINE
  8
0
 10
-22.98193265041004
 20
39.78348143487181
 11
-23.22610291784967
 21
39.98560241192039
  0
LINE
  8
0
 10
-23.22610291784967
 20
39.98560241192039
 11
-23.63615009768291
 21
40.45752420592509
  0
LINE
  8
0
 10
-23.63615009768291
 20
40.45752420592509
 11
-24.066835113892918
 21
40.90126064705403
  0
LINE
  8
0
 10
-24.066835113892918
 20
40.90126064705403
 11
-24.62354279059851
 21
41.41492580604559
  0
LINE
  8
0
 10
-24.62354279059851
 20
41.41492580604559
 11
-25.314975061105287
 21
41.98569621261848
  0
LINE
  8
0
 10
-25.314975061105287
 20
41.98569621261848
 11
-26.14878844328557
 21
42.600019566095575
  0
LINE
  8
0
 10
-26.14878844328557
 20
42.600019566095575
 11
-26.95164463446327
 21
43.12586520379046
  0
LINE
  8
0
 10
-26.95164463446327
 20
43.12586520379046
 11
-27.855840953661385
 21
42.63653862602087
  0
LINE
  8
0
 10
-27.855840953661385
 20
42.63653862602087
 11
-28.667164706016113
 21
42.0050600022907
  0
LINE
  8
0
 10
-28.667164706016113
 20
42.0050600022907
 11
-28.508112955727462
 21
41.058595930533656
  0
LINE
  8
0
 10
-28.508112955727462
 20
41.058595930533656
 11
-28.280471035308263
 21
40.04824099537646
  0
LINE
  8
0
 10
-28.280471035308263
 20
40.04824099537646
 11
-28.035519900844875
 21
39.18576990401028
  0
LINE
  8
0
 10
-28.035519900844875
 20
39.18576990401028
 11
-27.78874597601016
 21
38.46961491876845
  0
LINE
  8
0
 10
-27.78874597601016
 20
38.46961491876845
 11
-27.55538817963743
 21
37.89695817058022
  0
LINE
  8
0
 10
-27.55538817963743
 20
37.89695817058022
 11
-27.287928864454575
 21
37.33187907517168
  0
LINE
  8
0
 10
-27.287928864454575
 20
37.33187907517168
 11
-27.200913944179554
 21
37.02708338538304
  0
LINE
  8
0
 10
-27.200913944179554
 20
37.02708338538304
 11
-27.22424539887017
 21
36.831395229384896
  0
LINE
  8
0
 10
-27.22424539887017
 20
36.831395229384896
 11
-29.021207186500146
 21
35.432763729623055
  0
LINE
  8
0
 10
-29.021207186500146
 20
35.432763729623055
 11
-29.216634870485933
 21
35.45818481354451
  0
LINE
  8
0
 10
-29.216634870485933
 20
35.45818481354451
 11
-29.49074299313433
 21
35.61736001878321
  0
LINE
  8
0
 10
-29.49074299313433
 20
35.61736001878321
 11
-29.97287343822001
 21
36.015353867061414
  0
LINE
  8
0
 10
-29.97287343822001
 20
36.015353867061414
 11
-30.47072108988518
 21
36.38214989771752
  0
LINE
  8
0
 10
-30.47072108988518
 20
36.38214989771752
 11
-31.104382505880523
 21
36.797178261499496
  0
LINE
  8
0
 10
-31.104382505880523
 20
36.797178261499496
 11
-31.88033026264652
 21
37.24635809239949
  0
LINE
  8
0
 10
-31.88033026264652
 20
37.24635809239949
 11
-32.803885817753944
 21
37.715061704035335
  0
LINE
  8
0
 10
-32.803885817753944
 20
37.715061704035335
 11
-33.68234344421621
 21
38.10158970677946
  0
LINE
  8
0
 10
-33.68234344421621
 20
38.10158970677946
 11
-34.493667196570954
 21
37.470111083049275
  0
LINE
  8
0
 10
-34.493667196570954
 20
37.470111083049275
 11
-35.189987585081276
 21
36.71370550407199
  0
LINE
  8
0
 10
-35.189987585081276
 20
36.71370550407199
 11
-34.87732222725177
 21
35.80632902630204
  0
LINE
  8
0
 10
-34.87732222725177
 20
35.80632902630204
 11
-34.48648608932768
 21
34.847222644183134
  0
LINE
  8
0
 10
-34.48648608932768
 20
34.847222644183134
 11
-34.102917693155995
 21
34.03683216597182
  0
LINE
  8
0
 10
-34.102917693155995
 20
34.03683216597182
 11
-33.74163420663683
 21
33.37106225434047
  0
LINE
  8
0
 10
-33.74163420663683
 20
33.37106225434047
 11
-33.4172029036079
 21
32.84462522867795
  0
LINE
  8
0
 10
-33.4172029036079
 20
32.84462522867795
 11
-33.060382422691966
 21
32.33127543200444
  0
LINE
  8
0
 10
-33.060382422691966
 20
32.33127543200444
 11
-32.924386550833916
 21
32.04495894330395
  0
LINE
  8
0
 10
-32.924386550833916
 20
32.04495894330395
 11
-32.91519058303353
 21
31.848099487467696
  0
LINE
  8
0
 10
-32.91519058303353
 20
31.848099487467696
 11
-34.45743697538809
 21
30.17277330919741
  0
LINE
  8
0
 10
-34.45743697538809
 20
30.17277330919741
 11
-34.65438345337783
 21
30.16568134309294
  0
LINE
  8
0
 10
-34.65438345337783
 20
30.16568134309294
 11
-34.950952476195695
 21
30.277568891861645
  0
LINE
  8
0
 10
-34.950952476195695
 20
30.277568891861645
 11
-35.492014924812146
 21
30.590778559724853
  0
LINE
  8
0
 10
-35.492014924812146
 20
30.590778559724853
 11
-36.04344522578703
 21
30.87062894035769
  0
LINE
  8
0
 10
-36.04344522578703
 20
30.87062894035769
 11
-36.73677574947578
 21
31.175699617064325
  0
LINE
  8
0
 10
-36.73677574947578
 20
31.175699617064325
 11
-37.57607316044126
 21
31.4910364174289
  0
LINE
  8
0
 10
-37.57607316044126
 20
31.4910364174289
 11
-38.56417870046215
 21
31.8013352745172
  0
LINE
  8
0
 10
-38.56417870046215
 20
31.8013352745172
 11
-39.494275728127285
 21
32.038002165999025
  0
LINE
  8
0
 10
-39.494275728127285
 20
32.038002165999025
 11
-40.19059611663757
 21
31.281596587021728
  0
LINE
  8
0
 10
-40.19059611663757
 20
31.281596587021728
 11
-40.75291933627662
 21
30.42089682518957
  0
LINE
  8
0
 10
-40.75291933627662
 20
30.42089682518957
 11
-40.29516906681013
 21
29.577358806366373
  0
LINE
  8
0
 10
-40.29516906681013
 20
29.577358806366373
 11
-39.75179970238993
 21
28.695662899186214
  0
LINE
  8
0
 10
-39.75179970238993
 20
28.695662899186214
 11
-39.24007679046935
 21
27.959458373845067
  0
LINE
  8
0
 10
-39.24007679046935
 20
27.959458373845067
 11
-38.774138613982224
 21
27.362234003480868
  0
LINE
  8
0
 10
-38.774138613982224
 20
27.362234003480868
 11
-38.367483444514434
 21
26.896376530085224
  0
LINE
  8
0
 10
-38.367483444514434
 20
26.896376530085224
 11
-37.93103493042322
 21
26.44875887639695
  0
LINE
  8
0
 10
-37.93103493042322
 20
26.44875887639695
 11
-37.74976771985166
 21
26.188731556224997
  0
LINE
  8
0
 10
-37.74976771985166
 20
26.188731556224997
 11
-37.70829517158977
 21
25.996070613331536
  0
LINE
  8
0
 10
-37.70829517158977
 20
25.996070613331536
 11
-38.95375770742177
 21
24.089748287446618
  0
LINE
  8
0
 10
-38.95375770742177
 20
24.089748287446618
 11
-39.146850792897055
 21
24.050336721664166
  0
LINE
  8
0
 10
-39.146850792897055
 20
24.050336721664166
 11
-39.457791086039656
 21
24.11188461330154
  0
LINE
  8
0
 10
-39.457791086039656
 20
24.11188461330154
 11
-40.043026765033154
 21
24.331766557487114
  0
LINE
  8
0
 10
-40.043026765033154
 20
24.331766557487114
 11
-40.63299813417866
 21
24.517037699228524
  0
LINE
  8
0
 10
-40.63299813417866
 20
24.517037699228524
 11
-41.367085516252395
 21
24.703829156059154
  0
LINE
  8
0
 10
-41.367085516252395
 20
24.703829156059154
 11
-42.24683873593128
 21
24.876721359996058
  0
LINE
  8
0
 10
-42.24683873593128
 20
24.876721359996058
 11
-43.27254131753277
 21
25.02015131860418
  0
LINE
  8
0
 10
-43.27254131753277
 20
25.02015131860418
 11
-44.22890712406797
 21
25.100501442968582
  0
LINE
  8
0
 10
-44.22890712406797
 20
25.100501442968582
 11
-44.791230343707035
 21
24.239801681136484
  0
LINE
  8
0
 10
-44.791230343707035
 20
24.239801681136484
 11
-45.20421768291034
 21
23.29828538227548
  0
LINE
  8
0
 10
-45.20421768291034
 20
23.29828538227548
 11
-44.61386873589202
 21
22.541595340613032
  0
LINE
  8
0
 10
-44.61386873589202
 20
22.541595340613032
 11
-43.93278784477889
 21
21.761360274309805
  0
LINE
  8
0
 10
-43.93278784477889
 20
21.761360274309805
 11
-43.30686888418452
 21
21.119423442148165
  0
LINE
  8
0
 10
-43.30686888418452
 20
21.119423442148165
 11
-42.74898559657383
 21
20.607035337026915
  0
LINE
  8
0
 10
-42.74898559657383
 20
20.607035337026915
 11
-42.27119905361935
 21
20.214464793372578
  0
LINE
  8
0
 10
-42.27119905361935
 20
20.214464793372578
 11
-41.767027684080915
 21
19.84478912541002
  0
LINE
  8
0
 10
-41.767027684080915
 20
19.84478912541002
 11
-41.54543363177188
 21
19.618143841220256
  0
LINE
  8
0
 10
-41.54543363177188
 20
19.618143841220256
 11
-41.47281576605419
 21
19.43493669956213
  0
LINE
  8
0
 10
-41.47281576605419
 20
19.43493669956213
 11
-42.38752147406466
 21
17.349617729701297
  0
LINE
  8
0
 10
-42.38752147406466
 20
17.349617729701297
 11
-42.57149409100983
 21
17.27896160901713
  0
LINE
  8
0
 10
-42.57149409100983
 20
17.27896160901713
 11
-42.888324013841086
 21
17.288490977482684
  0
LINE
  8
0
 10
-42.888324013841086
 20
17.288490977482684
 11
-43.50176921948425
 21
17.40904739174269
  0
LINE
  8
0
 10
-43.50176921948425
 20
17.40904739174269
 11
-44.11418877579068
 21
17.494685580811787
  0
LINE
  8
0
 10
-44.11418877579068
 20
17.494685580811787
 11
-44.86900902608939
 21
17.558102633753055
  0
LINE
  8
0
 10
-44.86900902608939
 20
17.558102633753055
 11
-45.76522067999433
 21
17.58383419263523
  0
LINE
  8
0
 10
-45.76522067999433
 20
17.58383419263523
 11
-46.80054181055739
 21
17.55648285738635
  0
LINE
  8
0
 10
-46.80054181055739
 20
17.55648285738635
 11
-47.75708922982
 21
17.478324472697814
  0
LINE
  8
0
 10
-47.75708922982
 20
17.478324472697814
 11
-48.170076569023344
 21
16.536808173836818
  0
LINE
  8
0
 10
-48.170076569023344
 20
16.536808173836818
 11
-48.42246280975508
 21
15.54015744823008
  0
LINE
  8
0
 10
-48.42246280975508
 20
15.54015744823008
 11
-47.71561836553472
 21
14.890955915521188
  0
LINE
  8
0
 10
-47.71561836553472
 20
14.890955915521188
 11
-46.915404058992856
 21
14.233464468782634
  0
LINE
  8
0
 10
-46.915404058992856
 20
14.233464468782634
 11
-46.19236248732075
 21
13.703305693177436
  0
LINE
  8
0
 10
-46.19236248732075
 20
13.703305693177436
 11
-45.55775169037932
 21
13.28973046511074
  0
LINE
  8
0
 10
-45.55775169037932
 20
13.28973046511074
 11
-45.02186654533339
 21
12.981155152273576
  0
LINE
  8
0
 10
-45.02186654533339
 20
12.981155152273576
 11
-44.46372480103207
 21
12.699505258586207
  0
LINE
  8
0
 10
-44.46372480103207
 20
12.699505258586207
 11
-44.20784841507996
 21
12.512424302911164
  0
LINE
  8
0
 10
-44.20784841507996
 20
12.512424302911164
 11
-44.106066057982616
 21
12.343668375727436
  0
LINE
  8
0
 10
-44.106066057982616
 20
12.343668375727436
 11
-44.66506415091685
 21
10.136234827367648
  0
LINE
  8
0
 10
-44.66506415091685
 20
10.136234827367648
 11
-44.83489800592246
 21
10.036261466567268
  0
LINE
  8
0
 10
-44.83489800592246
 20
10.036261466567268
 11
-45.148975264061505
 21
9.99351237553047
  0
LINE
  8
0
 10
-45.148975264061505
 20
9.99351237553047
 11
-45.77389681027668
 21
10.01145479515101
  0
LINE
  8
0
 10
-45.77389681027668
 20
10.01145479515101
 11
-46.39205934470662
 21
9.995124044992089
  0
LINE
  8
0
 10
-46.39205934470662
 20
9.995124044992089
 11
-47.1470229344717
 21
9.933436842155682
  0
LINE
  8
0
 10
-47.1470229344717
 20
9.933436842155682
 11
-48.03524670493358
 21
9.811305866133983
  0
LINE
  8
0
 10
-48.03524670493358
 20
9.811305866133983
 11
-49.051945522897235
 21
9.61391931015408
  0
LINE
  8
0
 10
-49.051945522897235
 20
9.61391931015408
 11
-49.9825824348228
 21
9.379384373403223
  0
LINE
  8
0
 10
-49.9825824348228
 20
9.379384373403223
 11
-50.23496867555457
 21
8.382733647796496
  0
LINE
  8
0
 10
-50.23496867555457
 20
8.382733647796496
 11
-50.31986937908942
 21
7.358134529164035
  0
LINE
  8
0
 10
-50.31986937908942
 20
7.358134529164035
 11
-49.51581031149939
 21
6.834130030878908
  0
LINE
  8
0
 10
-49.51581031149939
 20
6.834130030878908
 11
-48.61829034980823
 21
6.317316856419767
  0
LINE
  8
0
 10
-48.61829034980823
 20
6.317316856419767
 11
-47.817848856304906
 21
5.913397486748741
  0
LINE
  8
0
 10
-47.817848856304906
 20
5.913397486748741
 11
-47.12382107826642
 21
5.609916389848101
  0
LINE
  8
0
 10
-47.12382107826642
 20
5.609916389848101
 11
-46.54445488093757
 21
5.3937534379665
  0
LINE
  8
0
 10
-46.54445488093757
 20
5.3937534379665
 11
-45.947567413690976
 21
5.207811993447638
  0
LINE
  8
0
 10
-45.947567413690976
 20
5.207811993447638
 11
-45.664388334884606
 21
5.06539844707448
  0
LINE
  8
0
 10
-45.664388334884606
 20
5.06539844707448
 11
-45.53621784378242
 21
4.915696956144846
  0
LINE
  8
0
 10
-45.53621784378242
 20
4.915696956144846
 11
-45.72426031086444
 21
2.646361862135569
  0
LINE
  8
0
 10
-45.72426031086444
 20
2.646361862135569
 11
-45.87532277908976
 21
2.519798273890508
  0
LINE
  8
0
 10
-45.87532277908976
 20
2.519798273890508
 11
-46.17808016367286
 21
2.4259368071162775
  0
LINE
  8
0
 10
-46.17808016367286
 20
2.4259368071162775
 11
-46.797431819728196
 21
2.340775809662502
  0
LINE
  8
0
 10
-46.797431819728196
 20
2.340775809662502
 11
-47.40447546977185
 21
2.2229215805688094
  0
LINE
  8
0
 10
-47.40447546977185
 20
2.2229215805688094
 11
-48.13898896031772
 21
2.037812788041567
  0
LINE
  8
0
 10
-48.13898896031772
 20
2.037812788041567
 11
-48.9949964183049
 21
1.7711506917701747
  0
LINE
  8
0
 10
-48.9949964183049
 20
1.7711506917701747
 11
-49.96534003025109
 21
1.40911310575803
  0
LINE
  8
0
 10
-49.96534003025109
 20
1.40911310575803
 11
-50.844681085871684
 21
1.024599118632465
  0
LINE
  8
0
 10
-50.844681085871684
 20
1.024599118632465
 11
-50.92958178940655
 21
7.993605777301127e-15
  0
LINE
  8
0
 10
-50.92958178940655
 20
7.993605777301127e-15
 11
-50.84468108587163
 21
-1.0245991186324543
  0
LINE
  8
0
 10
-50.84468108587163
 20
-1.0245991186324543
 11
-49.965340030250275
 21
-1.4091131057583746
  0
LINE
  8
0
 10
-49.965340030250275
 20
-1.4091131057583746
 11
-48.99499641830483
 21
-1.7711506917702544
  0
LINE
  8
0
 10
-48.99499641830483
 20
-1.7711506917702544
 11
-48.13898896031781
 21
-2.037812788041696
  0
LINE
  8
0
 10
-48.13898896031781
 20
-2.037812788041696
 11
-47.404475469771775
 21
-2.2229215805690052
  0
LINE
  8
0
 10
-47.404475469771775
 20
-2.2229215805690052
 11
-46.79743181972819
 21
-2.340775809662473
  0
LINE
  8
0
 10
-46.79743181972819
 20
-2.340775809662473
 11
-46.17808016367329
 21
-2.4259368071195233
  0
LINE
  8
0
 10
-46.17808016367329
 20
-2.4259368071195233
 11
-45.87532277908974
 21
-2.519798273890146
  0
LINE
  8
0
 10
-45.87532277908974
 20
-2.519798273890146
 11
-45.724260310864445
 21
-2.6463618621357856
  0
LINE
  8
0
 10
-45.724260310864445
 20
-2.6463618621357856
 11
-45.53621784378238
 21
-4.91569695614506
  0
LINE
  8
0
 10
-45.53621784378238
 20
-4.91569695614506
 11
-45.664388334884684
 21
-5.065398447074126
  0
LINE
  8
0
 10
-45.664388334884684
 20
-5.065398447074126
 11
-45.94756741369002
 21
-5.20781199345077
  0
LINE
  8
0
 10
-45.94756741369002
 20
-5.20781199345077
 11
-46.544454880937586
 21
-5.393753437966473
  0
LINE
  8
0
 10
-46.544454880937586
 20
-5.393753437966473
 11
-47.123821078266474
 21
-5.6099163898483075
  0
LINE
  8
0
 10
-47.123821078266474
 20
-5.6099163898483075
 11
-47.81784885630479
 21
-5.913397486748851
  0
LINE
  8
0
 10
-47.81784885630479
 20
-5.913397486748851
 11
-48.618290349808284
 21
-6.317316856419857
  0
LINE
  8
0
 10
-48.618290349808284
 20
-6.317316856419857
 11
-49.51581031150014
 21
-6.834130030879382
  0
LINE
  8
0
 10
-49.51581031150014
 20
-6.834130030879382
 11
-50.31986937908945
 21
-7.358134529164032
  0
LINE
  8
0
 10
-50.31986937908945
 20
-7.358134529164032
 11
-50.2349686755546
 21
-8.38273364779647
  0
LINE
  8
0
 10
-50.2349686755546
 20
-8.38273364779647
 11
-49.98258243482282
 21
-9.379384373403202
  0
LINE
  8
0
 10
-49.98258243482282
 20
-9.379384373403202
 11
-49.051945522896375
 21
-9.613919310154266
  0
LINE
  8
0
 10
-49.051945522896375
 20
-9.613919310154266
 11
-48.035246704933506
 21
-9.811305866134031
  0
LINE
  8
0
 10
-48.035246704933506
 20
-9.811305866134031
 11
-47.147022934471785
 21
-9.933436842155807
  0
LINE
  8
0
 10
-47.147022934471785
 20
-9.933436842155807
 11
-46.39205934470651
 21
-9.99512404499225
  0
LINE
  8
0
 10
-46.39205934470651
 20
-9.99512404499225
 11
-45.77389681027668
 21
-10.01145479515096
  0
LINE
  8
0
 10
-45.77389681027668
 20
-10.01145479515096
 11
-45.148975264061406
 21
-9.993512375533726
  0
LINE
  8
0
 10
-45.148975264061406
 20
-9.993512375533726
 11
-44.83489800592251
 21
-10.036261466566893
  0
LINE
  8
0
 10
-44.83489800592251
 20
-10.036261466566893
 11
-44.66506415091682
 21
-10.136234827367847
  0
LINE
  8
0
 10
-44.66506415091682
 20
-10.136234827367847
 11
-44.10606605798255
 21
-12.343668375727624
  0
LINE
  8
0
 10
-44.10606605798255
 20
-12.343668375727624
 11
-44.20784841508009
 21
-12.512424302910814
  0
LINE
  8
0
 10
-44.20784841508009
 20
-12.512424302910814
 11
-44.46372480103062
 21
-12.699505258589124
  0
LINE
  8
0
 10
-44.46372480103062
 20
-12.699505258589124
 11
-45.02186654533342
 21
-12.981155152273537
  0
LINE
  8
0
 10
-45.02186654533342
 20
-12.981155152273537
 11
-45.55775169037935
 21
-13.289730465110937
  0
LINE
  8
0
 10
-45.55775169037935
 20
-13.289730465110937
 11
-46.19236248732063
 21
-13.70330569317751
  0
LINE
  8
0
 10
-46.19236248732063
 20
-13.70330569317751
 11
-46.915404058992905
 21
-14.233464468782715
  0
LINE
  8
0
 10
-46.915404058992905
 20
-14.233464468782715
 11
-47.7156183655354
 21
-14.89095591552176
  0
LINE
  8
0
 10
-47.7156183655354
 20
-14.89095591552176
 11
-48.42246280975514
 21
-15.540157448230067
  0
LINE
  8
0
 10
-48.42246280975514
 20
-15.540157448230067
 11
-48.17007656902338
 21
-16.536808173836793
  0
LINE
  8
0
 10
-48.17007656902338
 20
-16.536808173836793
 11
-47.75708922982001
 21
-17.478324472697768
  0
LINE
  8
0
 10
-47.75708922982001
 20
-17.478324472697768
 11
-46.800541810556524
 21
-17.556482857386367
  0
LINE
  8
0
 10
-46.800541810556524
 20
-17.556482857386367
 11
-45.76522067999424
 21
-17.58383419263524
  0
LINE
  8
0
 10
-45.76522067999424
 20
-17.58383419263524
 11
-44.86900902608945
 21
-17.55810263375317
  0
LINE
  8
0
 10
-44.86900902608945
 20
-17.55810263375317
 11
-44.114188775790545
 21
-17.494685580811904
  0
LINE
  8
0
 10
-44.114188775790545
 20
-17.494685580811904
 11
-43.50176921948426
 21
-17.409047391742618
  0
LINE
  8
0
 10
-43.50176921948426
 20
-17.409047391742618
 11
-42.88832401384045
 21
-17.288490977485857
  0
LINE
  8
0
 10
-42.88832401384045
 20
-17.288490977485857
 11
-42.57149409100995
 21
-17.278961609016743
  0
LINE
  8
0
 10
-42.57149409100995
 20
-17.278961609016743
 11
-42.38752147406461
 21
-17.349617729701468
  0
LINE
  8
0
 10
-42.38752147406461
 20
-17.349617729701468
 11
-41.4728157660541
 21
-19.434936699562286
  0
LINE
  8
0
 10
-41.4728157660541
 20
-19.434936699562286
 11
-41.54543363177208
 21
-19.618143841219908
  0
LINE
  8
0
 10
-41.54543363177208
 20
-19.618143841219908
 11
-41.76702768407902
 21
-19.844789125412632
  0
LINE
  8
0
 10
-41.76702768407902
 20
-19.844789125412632
 11
-42.27119905361939
 21
-20.21446479337252
  0
LINE
  8
0
 10
-42.27119905361939
 20
-20.21446479337252
 11
-42.74898559657383
 21
-20.607035337027092
  0
LINE
  8
0
 10
-42.74898559657383
 20
-20.607035337027092
 11
-43.30686888418439
 21
-21.119423442148193
  0
LINE
  8
0
 10
-43.30686888418439
 20
-21.119423442148193
 11
-43.932787844778936
 21
-21.761360274309872
  0
LINE
  8
0
 10
-43.932787844778936
 20
-21.761360274309872
 11
-44.613868735892595
 21
-22.541595340613682
  0
LINE
  8
0
 10
-44.613868735892595
 20
-22.541595340613682
 11
-45.204217682910404
 21
-23.29828538227545
  0
LINE
  8
0
 10
-45.204217682910404
 20
-23.29828538227545
 11
-44.79123034370707
 21
-24.239801681136452
  0
LINE
  8
0
 10
-44.79123034370707
 20
-24.239801681136452
 11
-44.22890712406797
 21
-25.100501442968568
  0
LINE
  8
0
 10
-44.22890712406797
 20
-25.100501442968568
 11
-43.27254131753189
 21
-25.020151318604103
  0
LINE
  8
0
 10
-43.27254131753189
 20
-25.020151318604103
 11
-42.246838735931185
 21
-24.876721359996093
  0
LINE
  8
0
 10
-42.246838735931185
 20
-24.876721359996093
 11
-41.36708551625242
 21
-24.703829156059317
  0
LINE
  8
0
 10
-41.36708551625242
 20
-24.703829156059317
 11
-40.63299813417851
 21
-24.51703769922866
  0
LINE
  8
0
 10
-40.63299813417851
 20
-24.51703769922866
 11
-40.04302676503316
 21
-24.33176655748709
  0
LINE
  8
0
 10
-40.04302676503316
 20
-24.33176655748709
 11
-39.4577910860385
 21
-24.111884613304607
  0
LINE
  8
0
 10
-39.4577910860385
 20
-24.111884613304607
 11
-39.146850792897226
 21
-24.050336721663847
  0
LINE
  8
0
 10
-39.146850792897226
 20
-24.050336721663847
 11
-38.95375770742168
 21
-24.089748287446813
  0
LINE
  8
0
 10
-38.95375770742168
 20
-24.089748287446813
 11
-37.70829517158963
 21
-25.996070613331714
  0
LINE
  8
0
 10
-37.70829517158963
 20
-25.996070613331714
 11
-37.7497677198519
 21
-26.188731556224727
  0
LINE
  8
0
 10
-37.7497677198519
 20
-26.188731556224727
 11
-37.9310349304209
 21
-26.448758876399253
  0
LINE
  8
0
 10
-37.9310349304209
 20
-26.448758876399253
 11
-38.36748344451446
 21
-26.896376530085217
  0
LINE
  8
0
 10
-38.36748344451446
 20
-26.896376530085217
 11
-38.774138613982174
 21
-27.36223400348108
  0
LINE
  8
0
 10
-38.774138613982174
 20
-27.36223400348108
 11
-39.240076790469196
 21
-27.959458373845116
  0
LINE
  8
0
 10
-39.240076790469196
 20
-27.959458373845116
 11
-39.75179970238995
 21
-28.695662899186328
  0
LINE
  8
0
 10
-39.75179970238995
 20
-28.695662899186328
 11
-40.29516906681057
 21
-29.57735880636715
  0
LINE
  8
0
 10
-40.29516906681057
 20
-29.57735880636715
 11
-40.75291933627662
 21
-30.420896825189555
  0
LINE
  8
0
 10
-40.75291933627662
 20
-30.420896825189555
 11
-40.19059611663756
 21
-31.28159658702165
  0
LINE
  8
0
 10
-40.19059611663756
 20
-31.28159658702165
 11
-39.49427572812725
 21
-32.03800216599896
  0
LINE
  8
0
 10
-39.49427572812725
 20
-32.03800216599896
 11
-38.56417870046132
 21
-31.801335274516955
  0
LINE
  8
0
 10
-38.56417870046132
 20
-31.801335274516955
 11
-37.57607316044117
 21
-31.491036417428905
  0
LINE
  8
0
 10
-37.57607316044117
 20
-31.491036417428905
 11
-36.7367757494758
 21
-31.17569961706447
  0
LINE
  8
0
 10
-36.7367757494758
 20
-31.17569961706447
 11
-36.043445225786854
 21
-30.87062894035778
  0
LINE
  8
0
 10
-36.043445225786854
 20
-30.87062894035778
 11
-35.49201492481217
 21
-30.59077855972481
  0
LINE
  8
0
 10
-35.49201492481217
 20
-30.59077855972481
 11
-34.950952476194054
 21
-30.277568891864462
  0
LINE
  8
0
 10
-34.950952476194054
 20
-30.277568891864462
 11
-34.65438345337806
 21
-30.16568134309263
  0
LINE
  8
0
 10
-34.65438345337806
 20
-30.16568134309263
 11
-34.45743697538798
 21
-30.172773309197574
  0
LINE
  8
0
 10
-34.45743697538798
 20
-30.172773309197574
 11
-32.915190583033386
 21
-31.84809948746783
  0
LINE
  8
0
 10
-32.915190583033386
 20
-31.84809948746783
 11
-32.924386550834214
 21
-32.044958943303705
  0
LINE
  8
0
 10
-32.924386550834214
 20
-32.044958943303705
 11
-33.06038242268931
 21
-32.33127543200631
  0
LINE
  8
0
 10
-33.06038242268931
 20
-32.33127543200631
 11
-33.41720290360795
 21
-32.84462522867793
  0
LINE
  8
0
 10
-33.41720290360795
 20
-32.84462522867793
 11
-33.74163420663677
 21
-33.37106225434065
  0
LINE
  8
0
 10
-33.74163420663677
 20
-33.37106225434065
 11
-34.10291769315585
 21
-34.036832165971816
  0
LINE
  8
0
 10
-34.10291769315585
 20
-34.036832165971816
 11
-34.48648608932769
 21
-34.84722264418322
  0
LINE
  8
0
 10
-34.48648608932769
 20
-34.84722264418322
 11
-34.87732222725209
 21
-35.80632902630286
  0
LINE
  8
0
 10
-34.87732222725209
 20
-35.80632902630286
 11
-35.189987585081276
 21
-36.713705504071946
  0
LINE
  8
0
 10
-35.189987585081276
 20
-36.713705504071946
 11
-34.493667196570996
 21
-37.47011108304924
  0
LINE
  8
0
 10
-34.493667196570996
 20
-37.47011108304924
 11
-33.68234344421626
 21
-38.101589706779414
  0
LINE
  8
0
 10
-33.68234344421626
 20
-38.101589706779414
 11
-32.80388581775318
 21
-37.71506170403494
  0
LINE
  8
0
 10
-32.80388581775318
 20
-37.71506170403494
 11
-31.88033026264644
 21
-37.246358092399454
  0
LINE
  8
0
 10
-31.88033026264644
 20
-37.246358092399454
 11
-31.10438250588052
 21
-36.79717826149962
  0
LINE
  8
0
 10
-31.10438250588052
 20
-36.79717826149962
 11
-30.47072108988501
 21
-36.38214989771755
  0
LINE
  8
0
 10
-30.47072108988501
 20
-36.38214989771755
 11
-29.972873438220052
 21
-36.01535386706136
  0
LINE
  8
0
 10
-29.972873438220052
 20
-36.01535386706136
 11
-29.49074299313226
 21
-35.617360018785696
  0
LINE
  8
0
 10
-29.49074299313226
 20
-35.617360018785696
 11
-29.216634870486217
 21
-35.45818481354423
  0
LINE
  8
0
 10
-29.216634870486217
 20
-35.45818481354423
 11
-29.021207186500018
 21
-35.43276372962317
  0
LINE
  8
0
 10
-29.021207186500018
 20
-35.43276372962317
 11
-27.224245398870014
 21
-36.83139522938499
  0
LINE
  8
0
 10
-27.224245398870014
 20
-36.83139522938499
 11
-27.200913944179895
 21
-37.027083385382824
  0
LINE
  8
0
 10
-27.200913944179895
 20
-37.027083385382824
 11
-27.28792886445165
 21
-37.33187907517306
  0
LINE
  8
0
 10
-27.28792886445165
 20
-37.33187907517306
 11
-27.55538817963749
 21
-37.896958170580184
  0
LINE
  8
0
 10
-27.55538817963749
 20
-37.896958170580184
 11
-27.788745976010073
 21
-38.469614918768606
  0
LINE
  8
0
 10
-27.788745976010073
 20
-38.469614918768606
 11
-28.035519900844747
 21
-39.185769904010236
  0
LINE
  8
0
 10
-28.035519900844747
 20
-39.185769904010236
 11
-28.280471035308274
 21
-40.04824099537653
  0
LINE
  8
0
 10
-28.280471035308274
 20
-40.04824099537653
 11
-28.508112955727654
 21
-41.058595930534494
  0
LINE
  8
0
 10
-28.508112955727654
 20
-41.058595930534494
 11
-28.66716470601617
 21
-42.005060002290676
  0
LINE
  8
0
 10
-28.66716470601617
 20
-42.005060002290676
 11
-27.85584095366142
 21
-42.636538626020865
  0
LINE
  8
0
 10
-27.85584095366142
 20
-42.636538626020865
 11
-26.9516446344633
 21
-43.12586520379047
  0
LINE
  8
0
 10
-26.9516446344633
 20
-43.12586520379047
 11
-26.148788443284854
 21
-42.60001956609507
  0
LINE
  8
0
 10
-26.148788443284854
 20
-42.60001956609507
 11
-25.314975061105194
 21
-41.98569621261845
  0
LINE
  8
0
 10
-25.314975061105194
 20
-41.98569621261845
 11
-24.62354279059847
 21
-41.41492580604573
  0
LINE
  8
0
 10
-24.62354279059847
 20
-41.41492580604573
 11
-24.06683511389272
 21
-40.90126064705406
  0
LINE
  8
0
 10
-24.06683511389272
 20
-40.90126064705406
 11
-23.63615009768294
 21
-40.45752420592505
  0
LINE
  8
0
 10
-23.63615009768294
 20
-40.45752420592505
 11
-23.2261029178472
 21
-39.985602411922514
  0
LINE
  8
0
 10
-23.2261029178472
 20
-39.985602411922514
 11
-22.981932650410346
 21
-39.7834814348716
  0
LINE
  8
0
 10
-22.981932650410346
 20
-39.7834814348716
 11
-22.79335451820522
 21
-39.72624072182609
  0
LINE
  8
0
 10
-22.79335451820522
 20
-39.72624072182609
 11
-20.79069376853658
 21
-40.81002652172616
  0
LINE
  8
0
 10
-20.79069376853658
 20
-40.81002652172616
 11
-20.735471312618895
 21
-40.999205515111285
  0
LINE
  8
0
 10
-20.735471312618895
 20
-40.999205515111285
 11
-20.77113174111327
 21
-41.31416637411476
  0
LINE
  8
0
 10
-20.77113174111327
 20
-41.31416637411476
 11
-20.94193429766243
 21
-41.91556088358594
  0
LINE
  8
0
 10
-20.94193429766243
 20
-41.91556088358594
 11
-21.077853195012107
 21
-42.518816771014194
  0
LINE
  8
0
 10
-21.077853195012107
 20
-42.518816771014194
 11
-21.203386208784494
 21
-43.26582198874562
  0
LINE
  8
0
 10
-21.203386208784494
 20
-43.26582198874562
 11
-21.3030384531315
 21
-44.15684773018867
  0
LINE
  8
0
 10
-21.3030384531315
 20
-44.15684773018867
 11
-21.361276677875008
 21
-45.19089136955261
  0
LINE
  8
0
 10
-21.361276677875008
 20
-45.19089136955261
 11
-21.36237630349192
 21
-46.15062596266602
  0
LINE
  8
0
 10
-21.36237630349192
 20
-46.15062596266602
 11
-20.458179984293782
 21
-46.63995254043562
  0
LINE
  8
0
 10
-20.458179984293782
 20
-46.63995254043562
 11
-19.485775216776133
 21
-46.97377951878231
  0
LINE
  8
0
 10
-19.485775216776133
 20
-46.97377951878231
 11
-18.780420284887803
 21
-46.32295994435508
  0
LINE
  8
0
 10
-18.780420284887803
 20
-46.32295994435508
 11
-18.059093331111814
 21
-45.57977398869868
  0
LINE
  8
0
 10
-18.059093331111814
 20
-45.57977398869868
 11
-17.471037016774304
 21
-44.90298213525699
  0
LINE
  8
0
 10
-17.471037016774304
 20
-44.90298213525699
 11
-17.00646861355024
 21
-44.30469162756787
  0
LINE
  8
0
 10
-17.00646861355024
 20
-44.30469162756787
 11
-16.654694197325803
 21
-43.79611874934548
  0
LINE
  8
0
 10
-16.654694197325803
 20
-43.79611874934548
 11
-16.327915300894805
 21
-43.26314180594815
  0
LINE
  8
0
 10
-16.327915300894805
 20
-43.26314180594815
 11
-16.120343217058437
 21
-43.023588390451664
  0
LINE
  8
0
 10
-16.120343217058437
 20
-43.023588390451664
 11
-15.943758556494442
 21
-42.936089425718194
  0
LINE
  8
0
 10
-15.943758556494442
 20
-42.936089425718194
 11
-13.79002620949118
 21
-43.67546667435397
  0
LINE
  8
0
 10
-13.79002620949118
 20
-43.67546667435397
 11
-13.704419076989165
 21
-43.85297619533967
  0
LINE
  8
0
 10
-13.704419076989165
 20
-43.85297619533967
 11
-13.687752290176627
 21
-44.16951091236445
  0
LINE
  8
0
 10
-13.687752290176627
 20
-44.16951091236445
 11
-13.757239039595484
 21
-44.7908163613998
  0
LINE
  8
0
 10
-13.757239039595484
 20
-44.7908163613998
 11
-13.792011524716681
 21
-45.408216140029566
  0
LINE
  8
0
 10
-13.792011524716681
 20
-45.408216140029566
 11
-13.792879414051203
 21
-46.16569523520835
  0
LINE
  8
0
 10
-13.792879414051203
 20
-46.16569523520835
 11
-13.744514514829916
 21
-47.06097076723235
  0
LINE
  8
0
 10
-13.744514514829916
 20
-47.06097076723235
 11
-13.631760456942283
 21
-48.09049709587098
  0
LINE
  8
0
 10
-13.631760456942283
 20
-48.09049709587098
 11
-13.474877962967277
 21
-49.037323152482884
  0
LINE
  8
0
 10
-13.474877962967277
 20
-49.037323152482884
 11
-12.50247319544964
 21
-49.37115013082952
  0
LINE
  8
0
 10
-12.50247319544964
 20
-49.37115013082952
 11
-11.488384646800284
 21
-49.54037158000596
  0
LINE
  8
0
 10
-11.488384646800284
 20
-49.54037158000596
 11
-10.899771218020911
 21
-48.782330730277266
  0
LINE
  8
0
 10
-10.899771218020911
 20
-48.782330730277266
 11
-10.310606611588572
 21
-47.93055434797022
  0
LINE
  8
0
 10
-10.310606611588572
 20
-47.93055434797022
 11
-9.841966896726996
 21
-47.16620216515674
  0
LINE
  8
0
 10
-9.841966896726996
 20
-47.16620216515674
 11
-9.482209981985129
 21
-46.49960611419299
  0
LINE
  8
0
 10
-9.482209981985129
 20
-46.49960611419299
 11
-9.218941654813168
 21
-45.940069341244566
  0
LINE
  8
0
 10
-9.218941654813168
 20
-45.940069341244566
 11
-8.984344718232549
 21
-45.36057547010114
  0
LINE
  8
0
 10
-8.984344718232549
 20
-45.36057547010114
 11
-8.819032843343685
 21
-45.09012400886468
  0
LINE
  8
0
 10
-8.819032843343685
 20
-45.09012400886468
 11
-8.659258423639146
 21
-44.974753536108395
  0
LINE
  8
0
 10
-8.659258423639146
 20
-44.974753536108395
 11
-6.413202683366303
 21
-45.34955394954974
  0
LINE
  8
0
 10
-6.413202683366303
 20
-45.34955394954974
 11
-6.299546013693477
 21
-45.510552001136304
  0
LINE
  8
0
 10
-6.299546013693477
 20
-45.510552001136304
 11
-6.2310066380712055
 21
-45.82002633424637
  0
LINE
  8
0
 10
-6.2310066380712055
 20
-45.82002633424637
 11
-6.197282162974048
 21
-46.44429512981863
  0
LINE
  8
0
 10
-6.197282162974048
 20
-46.44429512981863
 11
-6.12995973311776
 21
-47.05899774313001
  0
LINE
  8
0
 10
-6.12995973311776
 20
-47.05899774313001
 11
-6.006138824255797
 21
-47.80628866064029
  0
LINE
  8
0
 10
-6.006138824255797
 20
-47.80628866064029
 11
-5.811076049839093
 21
-48.68139320054074
  0
LINE
  8
0
 10
-5.811076049839093
 20
-48.68139320054074
 11
-5.530405346091595
 21
-49.678319423983666
  0
LINE
  8
0
 10
-5.530405346091595
 20
-49.678319423983666
 11
-5.2198200779981905
 21
-50.586409997461075
  0
LINE
  8
0
 10
-5.2198200779981905
 20
-50.586409997461075
 11
-4.205731529348812
 21
-50.75563144663748
  0
LINE
  8
0
 10
-4.205731529348812
 20
-50.75563144663748
 11
-3.1776208916433393
 21
-50.755631446637416
  0
LINE
  8
0
 10
-3.1776208916433393
 20
-50.755631446637416
 11
-2.7218048059093216
 21
-49.91104669992285
  0
LINE
  8
0
 10
-2.7218048059093216
 20
-49.91104669992285
 11
-2.2808734214466004
 21
-48.97391413025918
  0
LINE
  8
0
 10
-2.2808734214466004
 20
-48.97391413025918
 11
-1.9444335758298272
 21
-48.142851153103635
  0
LINE
  8
0
 10
-1.9444335758298272
 20
-48.142851153103635
 11
-1.6993013803880312
 21
-47.42613256144933
  0
LINE
  8
0
 10
-1.6993013803880312
 20
-47.42613256144933
 11
-1.5317204159444915
 21
-46.8308945983374
  0
LINE
  8
0
 10
-1.5317204159444915
 20
-46.8308945983374
 11
-1.395704632095596
 21
-46.220690881624876
  0
LINE
  8
0
 10
-1.395704632095596
 20
-46.220690881624876
 11
-1.2771622431653078
 21
-45.92671858549664
  0
LINE
  8
0
 10
-1.2771622431653078
 20
-45.92671858549664
 11
-1.1385562939889418
 21
-45.78662361046595
  0
LINE
  8
0
 10
-1.1385562939889418
 20
-45.78662361046595
 11
1.1385562939891731
 21
-45.78662361046593
  0
LINE
  8
0
 10
1.1385562939891731
 20
-45.78662361046593
 11
1.277162243164964
 21
-45.92671858549669
  0
LINE
  8
0
 10
1.277162243164964
 20
-45.92671858549669
 11
1.3957046320988107
 21
-46.22069088162417
  0
LINE
  8
0
 10
1.3957046320988107
 20
-46.22069088162417
 11
1.5317204159444782
 21
-46.83089459833742
  0
LINE
  8
0
 10
1.5317204159444782
 20
-46.83089459833742
 11
1.6993013803882484
 21
-47.42613256144939
  0
LINE
  8
0
 10
1.6993013803882484
 20
-47.42613256144939
 11
1.9444335758299631
 21
-48.142851153103535
  0
LINE
  8
0
 10
1.9444335758299631
 20
-48.142851153103535
 11
2.280873421446701
 21
-48.97391413025924
  0
LINE
  8
0
 10
2.280873421446701
 20
-48.97391413025924
 11
2.721804805909749
 21
-49.91104669992363
  0
LINE
  8
0
 10
2.721804805909749
 20
-49.91104669992363
 11
3.1776208916433517
 21
-50.75563144663746
  0
LINE
  8
0
 10
3.1776208916433517
 20
-50.75563144663746
 11
4.205731529348786
 21
-50.755631446637466
  0
LINE
  8
0
 10
4.205731529348786
 20
-50.755631446637466
 11
5.219820077998158
 21
-50.586409997461054
  0
LINE
  8
0
 10
5.219820077998158
 20
-50.586409997461054
 11
5.530405346091844
 21
-49.67831942398282
  0
LINE
  8
0
 10
5.530405346091844
 20
-49.67831942398282
 11
5.811076049839137
 21
-48.68139320054066
  0
LINE
  8
0
 10
5.811076049839137
 20
-48.68139320054066
 11
6.006138824255906
 21
-47.80628866064037
  0
LINE
  8
0
 10
6.006138824255906
 20
-47.80628866064037
 11
6.129959733117921
 21
-47.0589977431299
  0
LINE
  8
0
 10
6.129959733117921
 20
-47.0589977431299
 11
6.197282162973992
 21
-46.44429512981862
  0
LINE
  8
0
 10
6.197282162973992
 20
-46.44429512981862
 11
6.231006638074451
 21
-45.820026334246535
  0
LINE
  8
0
 10
6.231006638074451
 20
-45.820026334246535
 11
6.2995460136930905
 21
-45.510552001136325
  0
LINE
  8
0
 10
6.2995460136930905
 20
-45.510552001136325
 11
6.413202683366496
 21
-45.34955394954972
  0
LINE
  8
0
 10
6.413202683366496
 20
-45.34955394954972
 11
8.659258423639333
 21
-44.974753536108345
  0
LINE
  8
0
 10
8.659258423639333
 20
-44.974753536108345
 11
8.819032843343315
 21
-45.09012400886479
  0
LINE
  8
0
 10
8.819032843343315
 20
-45.09012400886479
 11
8.984344718235567
 21
-45.360575470099924
  0
LINE
  8
0
 10
8.984344718235567
 20
-45.360575470099924
 11
9.218941654813118
 21
-45.940069341244595
  0
LINE
  8
0
 10
9.218941654813118
 20
-45.940069341244595
 11
9.482209981985315
 21
-46.499606114193035
  0
LINE
  8
0
 10
9.482209981985315
 20
-46.499606114193035
 11
9.841966896727074
 21
-47.16620216515662
  0
LINE
  8
0
 10
9.841966896727074
 20
-47.16620216515662
 11
10.310606611588641
 21
-47.93055434797028
  0
LINE
  8
0
 10
10.310606611588641
 20
-47.93055434797028
 11
10.89977121802142
 21
-48.78233073027798
  0
LINE
  8
0
 10
10.89977121802142
 20
-48.78233073027798
 11
11.488384646800263
 21
-49.540371580005974
  0
LINE
  8
0
 10
11.488384646800263
 20
-49.540371580005974
 11
12.5024731954496
 21
-49.371150130829584
  0
LINE
  8
0
 10
12.5024731954496
 20
-49.371150130829584
 11
13.474877962967238
 21
-49.03732315248287
  0
LINE
  8
0
 10
13.474877962967238
 20
-49.03732315248287
 11
13.631760456942391
 21
-48.09049709587012
  0
LINE
  8
0
 10
13.631760456942391
 20
-48.09049709587012
 11
13.74451451482995
 21
-47.06097076723226
  0
LINE
  8
0
 10
13.74451451482995
 20
-47.06097076723226
 11
13.79287941405133
 21
-46.16569523520842
  0
LINE
  8
0
 10
13.79287941405133
 20
-46.16569523520842
 11
13.792011524716825
 21
-45.408216140029445
  0
LINE
  8
0
 10
13.792011524716825
 20
-45.408216140029445
 11
13.75723903959543
 21
-44.7908163613998
  0
LINE
  8
0
 10
13.75723903959543
 20
-44.7908163613998
 11
13.687752290179859
 21
-44.16951091236409
  0
LINE
  8
0
 10
13.687752290179859
 20
-44.16951091236409
 11
13.704419076988788
 21
-43.852976195339764
  0
LINE
  8
0
 10
13.704419076988788
 20
-43.852976195339764
 11
13.790026209491367
 21
-43.67546667435393
  0
LINE
  8
0
 10
13.790026209491367
 20
-43.67546667435393
 11
15.943758556494613
 21
-42.936089425718116
  0
LINE
  8
0
 10
15.943758556494613
 20
-42.936089425718116
 11
16.12034321705809
 21
-43.023588390451835
  0
LINE
  8
0
 10
16.12034321705809
 20
-43.023588390451835
 11
16.327915300897583
 21
-43.26314180594647
  0
LINE
  8
0
 10
16.327915300897583
 20
-43.26314180594647
 11
16.65469419732576
 21
-43.79611874934551
  0
LINE
  8
0
 10
16.65469419732576
 20
-43.79611874934551
 11
17.00646861355043
 21
-44.30469162756789
  0
LINE
  8
0
 10
17.00646861355043
 20
-44.30469162756789
 11
17.47103701677436
 21
-44.902982135256856
  0
LINE
  8
0
 10
17.47103701677436
 20
-44.902982135256856
 11
18.059093331111896
 21
-45.57977398869873
  0
LINE
  8
0
 10
18.059093331111896
 20
-45.57977398869873
 11
18.78042028488842
 21
-46.3229599443557
  0
LINE
  8
0
 10
18.78042028488842
 20
-46.3229599443557
 11
19.48577521677609
 21
-46.9737795187823
  0
LINE
  8
0
 10
19.48577521677609
 20
-46.9737795187823
 11
20.458179984293768
 21
-46.63995254043565
  0
LINE
  8
0
 10
20.458179984293768
 20
-46.63995254043565
 11
21.362376303491892
 21
-46.15062596266605
  0
LINE
  8
0
 10
21.362376303491892
 20
-46.15062596266605
 11
21.361276677874976
 21
-45.190891369551736
  0
LINE
  8
0
 10
21.361276677874976
 20
-45.190891369551736
 11
21.30303845313152
 21
-44.15684773018859
  0
LINE
  8
0
 10
21.30303845313152
 20
-44.15684773018859
 11
21.203386208784625
 21
-43.26582198874568
  0
LINE
  8
0
 10
21.203386208784625
 20
-43.26582198874568
 11
21.07785319501223
 21
-42.51881677101405
  0
LINE
  8
0
 10
21.07785319501223
 20
-42.51881677101405
 11
20.941934297662375
 21
-41.915560883585954
  0
LINE
  8
0
 10
20.941934297662375
 20
-41.915560883585954
 11
20.771131741116395
 21
-41.31416637411387
  0
LINE
  8
0
 10
20.771131741116395
 20
-41.31416637411387
 11
20.73547131261854
 21
-40.99920551511143
  0
LINE
  8
0
 10
20.73547131261854
 20
-40.99920551511143
 11
20.79069376853676
 21
-40.81002652172609
  0
LINE
  8
0
 10
20.79069376853676
 20
-40.81002652172609
 11
22.79335451820538
 21
-39.72624072182598
  0
LINE
  8
0
 10
22.79335451820538
 20
-39.72624072182598
 11
22.981932650410034
 21
-39.78348143487182
  0
LINE
  8
0
 10
22.981932650410034
 20
-39.78348143487182
 11
23.226102917849662
 21
-39.98560241192039
  0
LINE
  8
0
 10
23.226102917849662
 20
-39.98560241192039
 11
23.636150097682904
 21
-40.4575242059251
  0
LINE
  8
0
 10
23.636150097682904
 20
-40.4575242059251
 11
24.066835113892907
 21
-40.90126064705404
  0
LINE
  8
0
 10
24.066835113892907
 20
-40.90126064705404
 11
24.623542790598503
 21
-41.414925806045595
  0
LINE
  8
0
 10
24.623542790598503
 20
-41.414925806045595
 11
25.31497506110528
 21
-41.985696212618485
  0
LINE
  8
0
 10
25.31497506110528
 20
-41.985696212618485
 11
26.148788443285568
 21
-42.60001956609558
  0
LINE
  8
0
 10
26.148788443285568
 20
-42.60001956609558
 11
26.951644634463275
 21
-43.12586520379048
  0
LINE
  8
0
 10
26.951644634463275
 20
-43.12586520379048
 11
27.85584095366137
 21
-42.6365386260209
  0
LINE
  8
0
 10
27.85584095366137
 20
-42.6365386260209
 11
28.667164706016067
 21
-42.005060002290676
  0
LINE
  8
0
 10
28.667164706016067
 20
-42.005060002290676
 11
28.508112955727437
 21
-41.05859593053367
  0
LINE
  8
0
 10
28.508112955727437
 20
-41.05859593053367
 11
28.28047103530825
 21
-40.04824099537647
  0
LINE
  8
0
 10
28.28047103530825
 20
-40.04824099537647
 11
28.035519900844857
 21
-39.18576990401029
  0
LINE
  8
0
 10
28.035519900844857
 20
-39.18576990401029
 11
27.78874597601014
 21
-38.469614918768464
  0
LINE
  8
0
 10
27.78874597601014
 20
-38.469614918768464
 11
27.555388179637408
 21
-37.896958170580234
  0
LINE
  8
0
 10
27.555388179637408
 20
-37.896958170580234
 11
27.287928864454557
 21
-37.33187907517169
  0
LINE
  8
0
 10
27.287928864454557
 20
-37.33187907517169
 11
27.200913944179536
 21
-37.02708338538305
  0
LINE
  8
0
 10
27.200913944179536
 20
-37.02708338538305
 11
27.224245398870153
 21
-36.83139522938491
  0
LINE
  8
0
 10
27.224245398870153
 20
-36.83139522938491
 11
29.02120718650013
 21
-35.43276372962307
  0
LINE
  8
0
 10
29.02120718650013
 20
-35.43276372962307
 11
29.21663487048592
 21
-35.45818481354453
  0
LINE
  8
0
 10
29.21663487048592
 20
-35.45818481354453
 11
29.490742993134315
 21
-35.61736001878322
  0
LINE
  8
0
 10
29.490742993134315
 20
-35.61736001878322
 11
29.972873438219995
 21
-36.015353867061435
  0
LINE
  8
0
 10
29.972873438219995
 20
-36.015353867061435
 11
30.470721089885167
 21
-36.38214989771753
  0
LINE
  8
0
 10
30.470721089885167
 20
-36.38214989771753
 11
31.1043825058805
 21
-36.79717826149951
  0
LINE
  8
0
 10
31.1043825058805
 20
-36.79717826149951
 11
31.8803302626465
 21
-37.246358092399504
  0
LINE
  8
0
 10
31.8803302626465
 20
-37.246358092399504
 11
32.80388581775393
 21
-37.71506170403535
  0
LINE
  8
0
 10
32.80388581775393
 20
-37.71506170403535
 11
33.68234344421622
 21
-38.10158970677951
  0
LINE
  8
0
 10
33.68234344421622
 20
-38.10158970677951
 11
34.49366719657095
 21
-37.47011108304936
  0
LINE
  8
0
 10
34.49366719657095
 20
-37.47011108304936
 11
35.18998758508122
 21
-36.713705504072
  0
LINE
  8
0
 10
35.18998758508122
 20
-36.713705504072
 11
34.87732222725173
 21
-35.80632902630208
  0
LINE
  8
0
 10
34.87732222725173
 20
-35.80632902630208
 11
34.48648608932764
 21
-34.84722264418317
  0
LINE
  8
0
 10
34.48648608932764
 20
-34.84722264418317
 11
34.102917693155966
 21
-34.03683216597186
  0
LINE
  8
0
 10
34.102917693155966
 20
-34.03683216597186
 11
33.74163420663681
 21
-33.37106225434051
  0
LINE
  8
0
 10
33.74163420663681
 20
-33.37106225434051
 11
33.41720290360787
 21
-32.84462522867799
  0
LINE
  8
0
 10
33.41720290360787
 20
-32.84462522867799
 11
33.06038242269194
 21
-32.331275432004475
  0
LINE
  8
0
 10
33.06038242269194
 20
-32.331275432004475
 11
32.924386550833894
 21
-32.044958943303996
  0
LINE
  8
0
 10
32.924386550833894
 20
-32.044958943303996
 11
32.91519058303351
 21
-31.84809948746774
  0
LINE
  8
0
 10
32.91519058303351
 20
-31.84809948746774
 11
34.45743697538806
 21
-30.17277330919745
  0
LINE
  8
0
 10
34.45743697538806
 20
-30.17277330919745
 11
34.654383453377804
 21
-30.165681343092977
  0
LINE
  8
0
 10
34.654383453377804
 20
-30.165681343092977
 11
34.95095247619567
 21
-30.277568891861687
  0
LINE
  8
0
 10
34.95095247619567
 20
-30.277568891861687
 11
35.49201492481211
 21
-30.590778559724896
  0
LINE
  8
0
 10
35.49201492481211
 20
-30.590778559724896
 11
36.043445225786996
 21
-30.870628940357733
  0
LINE
  8
0
 10
36.043445225786996
 20
-30.870628940357733
 11
36.736775749475754
 21
-31.175699617064367
  0
LINE
  8
0
 10
36.736775749475754
 20
-31.175699617064367
 11
37.57607316044124
 21
-31.491036417428944
  0
LINE
  8
0
 10
37.57607316044124
 20
-31.491036417428944
 11
38.56417870046212
 21
-31.80133527451724
  0
LINE
  8
0
 10
38.56417870046212
 20
-31.80133527451724
 11
39.49427572812722
 21
-32.03800216599905
  0
LINE
  8
0
 10
39.49427572812722
 20
-32.03800216599905
 11
40.190596116637565
 21
-31.281596587021696
  0
LINE
  8
0
 10
40.190596116637565
 20
-31.281596587021696
 11
40.75291933627661
 21
-30.42089682518954
  0
LINE
  8
0
 10
40.75291933627661
 20
-30.42089682518954
 11
40.29516906681014
 21
-29.57735880636636
  0
LINE
  8
0
 10
40.29516906681014
 20
-29.57735880636636
 11
39.751799702389945
 21
-28.6956628991862
  0
LINE
  8
0
 10
39.751799702389945
 20
-28.6956628991862
 11
39.24007679046936
 21
-27.959458373845056
  0
LINE
  8
0
 10
39.24007679046936
 20
-27.959458373845056
 11
38.77413861398224
 21
-27.36223400348086
  0
LINE
  8
0
 10
38.77413861398224
 20
-27.36223400348086
 11
38.36748344451445
 21
-26.896376530085213
  0
LINE
  8
0
 10
38.36748344451445
 20
-26.896376530085213
 11
37.931034930423245
 21
-26.448758876396937
  0
LINE
  8
0
 10
37.931034930423245
 20
-26.448758876396937
 11
37.749767719851675
 21
-26.188731556224987
  0
LINE
  8
0
 10
37.749767719851675
 20
-26.188731556224987
 11
37.708295171589775
 21
-25.99607061333153
  0
LINE
  8
0
 10
37.708295171589775
 20
-25.99607061333153
 11
38.95375770742178
 21
-24.089748287446604
  0
LINE
  8
0
 10
38.95375770742178
 20
-24.089748287446604
 11
39.14685079289707
 21
-24.050336721664156
  0
LINE
  8
0
 10
39.14685079289707
 20
-24.050336721664156
 11
39.45779108603966
 21
-24.11188461330153
  0
LINE
  8
0
 10
39.45779108603966
 20
-24.11188461330153
 11
40.04302676503316
 21
-24.331766557487104
  0
LINE
  8
0
 10
40.04302676503316
 20
-24.331766557487104
 11
40.63299813417867
 21
-24.51703769922851
  0
LINE
  8
0
 10
40.63299813417867
 20
-24.51703769922851
 11
41.3670855162524
 21
-24.70382915605914
  0
LINE
  8
0
 10
41.3670855162524
 20
-24.70382915605914
 11
42.246838735931284
 21
-24.876721359996044
  0
LINE
  8
0
 10
42.246838735931284
 20
-24.876721359996044
 11
43.27254131753278
 21
-25.020151318604167
  0
LINE
  8
0
 10
43.27254131753278
 20
-25.020151318604167
 11
44.228907124068
 21
-25.10050144296858
  0
LINE
  8
0
 10
44.228907124068
 20
-25.10050144296858
 11
44.79123034370707
 21
-24.239801681136477
  0
LINE
  8
0
 10
44.79123034370707
 20
-24.239801681136477
 11
45.20421768291024
 21
-23.298285382275417
  0
LINE
  8
0
 10
45.20421768291024
 20
-23.298285382275417
 11
44.613868735892034
 21
-22.541595340613014
  0
LINE
  8
0
 10
44.613868735892034
 20
-22.541595340613014
 11
43.9327878447789
 21
-21.76136027430979
  0
LINE
  8
0
 10
43.9327878447789
 20
-21.76136027430979
 11
43.306868884184524
 21
-21.11942344214815
  0
LINE
  8
0
 10
43.306868884184524
 20
-21.11942344214815
 11
42.74898559657384
 21
-20.607035337026897
  0
LINE
  8
0
 10
42.74898559657384
 20
-20.607035337026897
 11
42.271199053619355
 21
-20.214464793372564
  0
LINE
  8
0
 10
42.271199053619355
 20
-20.214464793372564
 11
41.76702768408093
 21
-19.844789125410006
  0
LINE
  8
0
 10
41.76702768408093
 20
-19.844789125410006
 11
41.54543363177188
 21
-19.61814384122024
  0
LINE
  8
0
 10
41.54543363177188
 20
-19.61814384122024
 11
41.4728157660542
 21
-19.434936699562115
  0
LINE
  8
0
 10
41.4728157660542
 20
-19.434936699562115
 11
42.38752147406467
 21
-17.349617729701283
  0
LINE
  8
0
 10
42.38752147406467
 20
-17.349617729701283
 11
42.57149409100984
 21
-17.278961609017113
  0
LINE
  8
0
 10
42.57149409100984
 20
-17.278961609017113
 11
42.88832401384109
 21
-17.28849097748267
  0
LINE
  8
0
 10
42.88832401384109
 20
-17.28849097748267
 11
43.50176921948426
 21
-17.40904739174267
  0
LINE
  8
0
 10
43.50176921948426
 20
-17.40904739174267
 11
44.11418877579068
 21
-17.494685580811772
  0
LINE
  8
0
 10
44.11418877579068
 20
-17.494685580811772
 11
44.869009026089394
 21
-17.55810263375304
  0
LINE
  8
0
 10
44.869009026089394
 20
-17.55810263375304
 11
45.765220679994336
 21
-17.583834192635212
  0
LINE
  8
0
 10
45.765220679994336
 20
-17.583834192635212
 11
46.8005418105574
 21
-17.55648285738633
  0
LINE
  8
0
 10
46.8005418105574
 20
-17.55648285738633
 11
47.75708922982001
 21
-17.4783244726978
  0
LINE
  8
0
 10
47.75708922982001
 20
-17.4783244726978
 11
48.17007656902336
 21
-16.536808173836853
  0
LINE
  8
0
 10
48.17007656902336
 20
-16.536808173836853
 11
48.42246280975512
 21
-15.540157448230115
  0
LINE
  8
0
 10
48.42246280975512
 20
-15.540157448230115
 11
47.715618365534716
 21
-14.890955915521214
  0
LINE
  8
0
 10
47.715618365534716
 20
-14.890955915521214
 11
46.91540405899285
 21
-14.23346446878266
  0
LINE
  8
0
 10
46.91540405899285
 20
-14.23346446878266
 11
46.19236248732074
 21
-13.703305693177462
  0
LINE
  8
0
 10
46.19236248732074
 20
-13.703305693177462
 11
45.55775169037931
 21
-13.289730465110765
  0
LINE
  8
0
 10
45.55775169037931
 20
-13.289730465110765
 11
45.02186654533338
 21
-12.981155152273601
  0
LINE
  8
0
 10
45.02186654533338
 20
-12.981155152273601
 11
44.46372480103207
 21
-12.699505258586234
  0
LINE
  8
0
 10
44.46372480103207
 20
-12.699505258586234
 11
44.20784841507995
 21
-12.51242430291119
  0
LINE
  8
0
 10
44.20784841507995
 20
-12.51242430291119
 11
44.1060660579826
 21
-12.34366837572746
  0
LINE
  8
0
 10
44.1060660579826
 20
-12.34366837572746
 11
44.66506415091684
 21
-10.136234827367675
  0
LINE
  8
0
 10
44.66506415091684
 20
-10.136234827367675
 11
44.834898005922454
 21
-10.036261466567293
  0
LINE
  8
0
 10
44.834898005922454
 20
-10.036261466567293
 11
45.14897526406149
 21
-9.993512375530495
  0
LINE
  8
0
 10
45.14897526406149
 20
-9.993512375530495
 11
45.773896810276675
 21
-10.011454795151035
  0
LINE
  8
0
 10
45.773896810276675
 20
-10.011454795151035
 11
46.39205934470661
 21
-9.995124044992115
  0
LINE
  8
0
 10
46.39205934470661
 20
-9.995124044992115
 11
47.1470229344717
 21
-9.933436842155709
  0
LINE
  8
0
 10
47.1470229344717
 20
-9.933436842155709
 11
48.03524670493358
 21
-9.81130586613401
  0
LINE
  8
0
 10
48.03524670493358
 20
-9.81130586613401
 11
49.05194552289723
 21
-9.613919310154108
  0
LINE
  8
0
 10
49.05194552289723
 20
-9.613919310154108
 11
49.98258243482279
 21
-9.37938437340325
  0
LINE
  8
0
 10
0.3118675362266391
 20
-1.4672214011007085
 11
9.18454765366783e-17
 21
-1.5
  0
LINE
  8
0
 10
9.18454765366783e-17
 20
-1.5
 11
-0.3118675362266384
 21
-1.4672214011007085
  0
LINE
  8
0
 10
-0.3118675362266384
 20
-1.4672214011007085
 11
-0.6101049646137001
 21
-1.3703181864639014
  0
LINE
  8
0
 10
-0.6101049646137001
 20
-1.3703181864639014
 11
-0.8816778784387099
 21
-1.213525491562421
  0
LINE
  8
0
 10
-0.8816778784387099
 20
-1.213525491562421
 11
-1.114717238216091
 21
-1.0036959095382878
  0
LINE
  8
0
 10
-1.114717238216091
 20
-1.0036959095382878
 11
-1.299038105676658
 21
-0.7500000000000003
  0
LINE
  8
0
 10
-1.299038105676658
 20
-0.7500000000000003
 11
-1.4265847744427305
 21
-0.46352549156242095
  0
LINE
  8
0
 10
-1.4265847744427305
 20
-0.46352549156242095
 11
-1.49178284305241
 21
-0.15679269490147957
  0
LINE
  8
0
 10
-1.49178284305241
 20
-0.15679269490147957
 11
-1.4917828430524098
 21
0.15679269490148126
  0
LINE
  8
0
 10
-1.4917828430524098
 20
0.15679269490148126
 11
-1.4265847744427302
 21
0.46352549156242123
  0
LINE
  8
0
 10
-1.4265847744427302
 20
0.46352549156242123
 11
-1.2990381056766576
 21
0.7500000000000006
  0
LINE
  8
0
 10
-1.2990381056766576
 20
0.7500000000000006
 11
-1.114717238216091
 21
1.0036959095382878
  0
LINE
  8
0
 10
-1.114717238216091
 20
1.0036959095382878
 11
-0.8816778784387097
 21
1.2135254915624214
  0
LINE
  8
0
 10
-0.8816778784387097
 20
1.2135254915624214
 11
-0.6101049646137005
 21
1.3703181864639014
  0
LINE
  8
0
 10
-0.6101049646137005
 20
1.3703181864639014
 11
-0.3118675362266387
 21
1.4672214011007085
  0
LINE
  8
0
 10
-0.3118675362266387
 20
1.4672214011007085
 11
7.579792913117722e-16
 21
1.5
  0
LINE
  8
0
 10
7.579792913117722e-16
 20
1.5
 11
0.3118675362266389
 21
1.4672214011007085
  0
LINE
  8
0
 10
0.3118675362266389
 20
1.4672214011007085
 11
0.6101049646136999
 21
1.3703181864639014
  0
LINE
  8
0
 10
0.6101049646136999
 20
1.3703181864639014
 11
0.8816778784387097
 21
1.213525491562421
  0
LINE
  8
0
 10
0.8816778784387097
 20
1.213525491562421
 11
1.1147172382160917
 21
1.003695909538287
  0
LINE
  8
0
 10
1.1147172382160917
 20
1.003695909538287
 11
1.299038105676658
 21
0.7499999999999998
  0
LINE
  8
0
 10
1.299038105676658
 20
0.7499999999999998
 11
1.4265847744427305
 21
0.4635254915624211
  0
LINE
  8
0
 10
1.4265847744427305
 20
0.4635254915624211
 11
1.49178284305241
 21
0.1567926949014801
  0
LINE
  8
0
 10
1.49178284305241
 20
0.1567926949014801
 11
1.4917828430524098
 21
-0.1567926949014801
  0
LINE
  8
0
 10
1.4917828430524098
 20
-0.1567926949014801
 11
1.4265847744427302
 21
-0.46352549156242107
  0
LINE
  8
0
 10
1.4265847744427302
 20
-0.46352549156242107
 11
1.299038105676658
 21
-0.7500000000000001
  0
LINE
  8
0
 10
1.299038105676658
 20
-0.7500000000000001
 11
1.1147172382160913
 21
-1.0036959095382874
  0
LINE
  8
0
 10
1.1147172382160913
 20
-1.0036959095382874
 11
0.8816778784387098
 21
-1.2135254915624212
  0
LINE
  8
0
 10
0.8816778784387098
 20
-1.2135254915624212
 11
0.6101049646137003
 21
-1.3703181864639014
  0
LINE
  8
0
 10
0.6101049646137003
 20
-1.3703181864639014
 11
0.3118675362266391
 21
-1.4672214011007085
  0
ENDSEC
  0
SECTION
  2
OBJECTS
  0
DICTIONARY
  0
ENDSEC
  0
EOF
