0
SECTION
2
HEADER
9
$ACADVER
1
AC1009
9
$INSBASE
10
0.0
20
0.0
30
0.0
9
$EXTMIN
10
0.0
20
0.0
9
$EXTMAX
10
0.0
20
0.0
0
ENDSEC
0
SECTION
2
TABLES
0
TABLE
2
LTYPE
70
1
0
LTYPE
2
CONTINUOUS
70
64
3
Solid line
72
65
73
0
40
0.0
0
ENDTAB
0
TABLE
2
LAYER
70
0
0
ENDTAB
0
TABLE
2
STYLE
70
1
0
STYLE
2
STANDARD
70
0
40
0
41
40
50
50
71
0
42
1
3
ARIAL.TTF
4

0
ENDTAB
0
TABLE
2
VIEW
70
0
0
ENDTAB
0
ENDSEC
0
SECTION
2
BLOCKS
0
ENDSEC
0
SECTION
2
ENTITIES
0
LINE
8
0
10
106.053059956
20
44.1080460847
11
106.29374271
21
45.1105619028
0
LINE
8
0
10
106.29374271
20
45.1105619028
11
106.374634234
21
46.1383861654
0
LINE
8
0
10
106.374634234
20
46.1383861654
11
105.554542401
21
46.658465344
0
LINE
8
0
10
105.554542401
20
46.658465344
11
104.659616661
21
47.1623539995
0
LINE
8
0
10
104.659616661
20
47.1623539995
11
103.857926714
21
47.5599976138
0
LINE
8
0
10
103.857926714
20
47.5599976138
11
103.157816026
21
47.8626974204
0
LINE
8
0
10
103.157816026
20
47.8626974204
11
102.566692721
21
48.0823195671
0
LINE
8
0
10
102.566692721
20
48.0823195671
11
101.962015352
21
48.2716021374
0
LINE
8
0
10
101.962015352
20
48.2716021374
11
101.692991907
21
48.4069287422
0
LINE
8
0
10
101.692991907
20
48.4069287422
11
101.570838656
21
48.5488428424
0
LINE
8
0
10
101.570838656
20
48.5488428424
11
101.749498851
21
50.8189358522
0
LINE
8
0
10
101.749498851
20
50.8189358522
11
101.892348449
21
50.939993776
0
LINE
8
0
10
101.892348449
20
50.939993776
11
102.179229514
21
51.031569747
0
LINE
8
0
10
102.179229514
20
51.031569747
11
102.806072619
21
51.123929554
0
LINE
8
0
10
102.806072619
20
51.123929554
11
103.424274688
21
51.2483757296
0
LINE
8
0
10
103.424274688
20
51.2483757296
11
104.163118533
21
51.4378273585
0
LINE
8
0
10
104.163118533
20
51.4378273585
11
105.017143513
21
51.7051633819
0
LINE
8
0
10
105.017143513
20
51.7051633819
11
105.979876784
21
52.0628511026
0
LINE
8
0
10
105.979876784
20
52.0628511026
11
106.871230234
21
52.4482366163
0
LINE
8
0
10
106.871230234
20
52.4482366163
11
106.952121758
21
53.4760608789
0
LINE
8
0
10
106.952121758
20
53.4760608789
11
106.871230234
21
54.5038851415
0
LINE
8
0
10
106.871230234
20
54.5038851415
11
105.979876784
21
54.8892706552
0
LINE
8
0
10
105.979876784
20
54.8892706552
11
105.017143513
21
55.2469583759
0
LINE
8
0
10
105.017143513
20
55.2469583759
11
104.163118533
21
55.5142943993
0
LINE
8
0
10
104.163118533
20
55.5142943993
11
103.424274688
21
55.7037460281
0
LINE
8
0
10
103.424274688
20
55.7037460281
11
102.806072619
21
55.8281922038
0
LINE
8
0
10
102.806072619
20
55.8281922038
11
102.179229514
21
55.9205520108
0
LINE
8
0
10
102.179229514
20
55.9205520108
11
101.892348449
21
56.0121279818
0
LINE
8
0
10
101.892348449
20
56.0121279818
11
101.749498851
21
56.1331859055
0
LINE
8
0
10
101.749498851
20
56.1331859055
11
101.570838656
21
58.4032789153
0
LINE
8
0
10
101.570838656
20
58.4032789153
11
101.692991907
21
58.5451930156
0
LINE
8
0
10
101.692991907
20
58.5451930156
11
101.962015352
21
58.6805196203
0
LINE
8
0
10
101.962015352
20
58.6805196203
11
102.566692721
21
58.8698021906
0
LINE
8
0
10
102.566692721
20
58.8698021906
11
103.157816026
21
59.0894243374
0
LINE
8
0
10
103.157816026
20
59.0894243374
11
103.857926714
21
59.392124144
0
LINE
8
0
10
103.857926714
20
59.392124144
11
104.659616661
21
59.7897677583
0
LINE
8
0
10
104.659616661
20
59.7897677583
11
105.554542401
21
60.2936564137
0
LINE
8
0
10
105.554542401
20
60.2936564137
11
106.374634234
21
60.8137355923
0
LINE
8
0
10
106.374634234
20
60.8137355923
11
106.29374271
21
61.8415598549
0
LINE
8
0
10
106.29374271
20
61.8415598549
11
106.053059956
21
62.844075673
0
LINE
8
0
10
106.053059956
20
62.844075673
11
105.11239297
21
63.0852780515
0
LINE
8
0
10
105.11239297
20
63.0852780515
11
104.105557856
21
63.2879573786
0
LINE
8
0
10
104.105557856
20
63.2879573786
11
103.220226773
21
63.418403111
0
LINE
8
0
10
103.220226773
20
63.418403111
11
102.460842557
21
63.4899416343
0
LINE
8
0
10
102.460842557
20
63.4899416343
11
101.83078391
21
63.516147561
0
LINE
8
0
10
101.83078391
20
63.516147561
11
101.197210027
21
63.5093103997
0
LINE
8
0
10
101.197210027
20
63.5093103997
11
100.899535306
21
63.5548808326
0
LINE
8
0
10
100.899535306
20
63.5548808326
11
100.739506792
21
63.652101732
0
LINE
8
0
10
100.739506792
20
63.652101732
11
100.207925415
21
65.8662975179
0
LINE
8
0
10
100.207925415
20
65.8662975179
11
100.306374501
21
66.0255733985
0
LINE
8
0
10
100.306374501
20
66.0255733985
11
100.550916075
21
66.2013184469
0
LINE
8
0
10
100.550916075
20
66.2013184469
11
101.118538545
21
66.4828630154
0
LINE
8
0
10
101.118538545
20
66.4828630154
11
101.668027669
21
66.7922533071
0
LINE
8
0
10
101.668027669
20
66.7922533071
11
102.312166149
21
67.2007478176
0
LINE
8
0
10
102.312166149
20
67.2007478176
11
103.041780797
21
67.7189077172
0
LINE
8
0
10
103.041780797
20
67.7189077172
11
103.846862963
21
68.3565898965
0
LINE
8
0
10
103.846862963
20
68.3565898965
11
104.575499797
21
68.9985566646
0
LINE
8
0
10
104.575499797
20
68.9985566646
11
104.334817044
21
70.0010724827
0
LINE
8
0
10
104.334817044
20
70.0010724827
11
103.940269468
21
70.9535945897
0
LINE
8
0
10
103.940269468
20
70.9535945897
11
102.973451288
21
71.0446746298
0
LINE
8
0
10
102.973451288
20
71.0446746298
11
101.947305954
21
71.0873549256
0
LINE
8
0
10
101.947305954
20
71.0873549256
11
101.052468557
21
71.0776983603
0
LINE
8
0
10
101.052468557
20
71.0776983603
11
100.29124253
21
71.029562262
0
LINE
8
0
10
100.29124253
20
71.029562262
11
99.6648414405
21
70.9568826629
0
LINE
8
0
10
99.6648414405
20
70.9568826629
11
99.0401374707
21
70.8510168869
0
LINE
8
0
10
99.0401374707
20
70.8510168869
11
98.7389988332
21
70.8494596864
0
LINE
8
0
10
98.7389988332
20
70.8494596864
11
98.5657318366
21
70.9204496603
0
LINE
8
0
10
98.5657318366
20
70.9204496603
11
97.6943185756
21
73.0242273736
0
LINE
8
0
10
97.6943185756
20
73.0242273736
11
97.7666393519
21
73.1969431337
0
LINE
8
0
10
97.7666393519
20
73.1969431337
11
97.9806776316
21
73.4087791994
0
LINE
8
0
10
97.9806776316
20
73.4087791994
11
98.4972684529
21
73.7756532045
0
LINE
8
0
10
98.4972684529
20
73.7756532045
11
98.9915931486
21
74.1671934254
0
LINE
8
0
10
98.9915931486
20
74.1671934254
11
99.5638985954
21
74.6714241492
0
LINE
8
0
10
99.5638985954
20
74.6714241492
11
100.20347241
21
75.2973415178
0
LINE
8
0
10
100.20347241
20
75.2973415178
11
100.898887208
21
76.0531153692
0
LINE
8
0
10
100.898887208
20
76.0531153692
11
101.518127585
21
76.8011623744
0
LINE
8
0
10
101.518127585
20
76.8011623744
11
101.12358001
21
77.7536844814
0
LINE
8
0
10
101.12358001
20
77.7536844814
11
100.584882684
21
78.6327586218
0
LINE
8
0
10
100.584882684
20
78.6327586218
11
99.6157195827
21
78.5714736307
0
LINE
8
0
10
99.6157195827
20
78.5714736307
11
98.5955311303
21
78.4531039647
0
LINE
8
0
10
98.5955311303
20
78.4531039647
11
97.7132212863
21
78.3035828782
0
LINE
8
0
10
97.7132212863
20
78.3035828782
11
96.9688973602
21
78.136957429
0
LINE
8
0
10
96.9688973602
20
78.136957429
11
96.3615779016
21
77.967181917
0
LINE
8
0
10
96.3615779016
20
77.967181917
11
95.7611261304
21
77.7648942931
0
LINE
8
0
10
95.7611261304
20
77.7648942931
11
95.4639386091
21
77.7162478026
0
LINE
8
0
10
95.4639386091
20
77.7162478026
11
95.2816995382
21
77.7592588422
0
LINE
8
0
10
95.2816995382
20
77.7592588422
11
94.0919114792
21
79.7008164935
0
LINE
8
0
10
94.0919114792
20
79.7008164935
11
94.1363231692
21
79.882719298
0
LINE
8
0
10
94.1363231692
20
79.882719298
11
94.3145878209
21
80.1254302739
0
LINE
8
0
10
94.3145878209
20
80.1254302739
11
94.7674268133
21
80.5686000601
0
LINE
8
0
10
94.7674268133
20
80.5686000601
11
95.1944151666
21
81.0326491904
0
LINE
8
0
10
95.1944151666
20
81.0326491904
11
95.6807955202
21
81.6202002937
0
LINE
8
0
10
95.6807955202
20
81.6202002937
11
96.2145800708
21
82.3384629683
0
LINE
8
0
10
96.2145800708
20
82.3384629683
11
96.7832040807
21
83.1937188314
0
LINE
8
0
10
96.7832040807
20
83.1937188314
11
97.2778002482
21
84.0294266738
0
LINE
8
0
10
97.2778002482
20
84.0294266738
11
96.7391029221
21
84.9085008142
0
LINE
8
0
10
96.7391029221
20
84.9085008142
11
96.0695203612
21
85.6924812651
0
LINE
8
0
10
96.0695203612
20
85.6924812651
11
95.1218763509
21
85.4803402827
0
LINE
8
0
10
95.1218763509
20
85.4803402827
11
94.1327652067
21
85.203835309
0
LINE
8
0
10
94.1327652067
20
85.203835309
11
93.2847083121
21
84.9181314067
0
LINE
8
0
10
93.2847083121
20
84.9181314067
11
92.5756142117
21
84.6371194781
0
LINE
8
0
10
92.5756142117
20
84.6371194781
11
92.0023306048
21
84.3744284898
0
LINE
8
0
10
92.0023306048
20
84.3744284898
11
91.4409161475
21
84.0807000106
0
LINE
8
0
10
91.4409161475
20
84.0807000106
11
91.1549974854
21
83.9861620682
0
LINE
8
0
10
91.1549974854
20
83.9861620682
11
90.9682736709
21
84.000135099
0
LINE
8
0
10
90.9682736709
20
84.000135099
11
89.4894073448
21
85.7316650952
0
LINE
8
0
10
89.4894073448
20
85.7316650952
11
89.5048163853
21
85.9182758933
0
LINE
8
0
10
89.5048163853
20
85.9182758933
11
89.6429179416
21
86.1858854298
0
LINE
8
0
10
89.6429179416
20
86.1858854298
11
90.0208547062
21
86.694438686
0
LINE
8
0
10
90.0208547062
20
86.694438686
11
90.3699928469
21
87.2195702961
0
LINE
8
0
10
90.3699928469
20
87.2195702961
11
90.7584718086
21
87.8759743207
0
LINE
8
0
10
90.7584718086
20
87.8759743207
11
91.1733235484
21
88.6688962906
0
LINE
8
0
10
91.1733235484
20
88.6688962906
11
91.6011553597
21
89.6025749276
0
LINE
8
0
10
91.6011553597
20
89.6025749276
11
91.9589287184
21
90.5053657065
0
LINE
8
0
10
91.9589287184
20
90.5053657065
11
91.2893461575
21
91.2893461575
0
LINE
8
0
10
91.2893461575
20
91.2893461575
11
90.5053657065
21
91.9589287184
0
LINE
8
0
10
90.5053657065
20
91.9589287184
11
89.6025749276
21
91.6011553597
0
LINE
8
0
10
89.6025749276
20
91.6011553597
11
88.6688962906
21
91.1733235484
0
LINE
8
0
10
88.6688962906
20
91.1733235484
11
87.8759743207
21
90.7584718086
0
LINE
8
0
10
87.8759743207
20
90.7584718086
11
87.2195702961
21
90.3699928469
0
LINE
8
0
10
87.2195702961
20
90.3699928469
11
86.694438686
21
90.0208547062
0
LINE
8
0
10
86.694438686
20
90.0208547062
11
86.1858854298
21
89.6429179416
0
LINE
8
0
10
86.1858854298
20
89.6429179416
11
85.9182758933
21
89.5048163853
0
LINE
8
0
10
85.9182758933
20
89.5048163853
11
85.7316650952
21
89.4894073448
0
LINE
8
0
10
85.7316650952
20
89.4894073448
11
84.000135099
21
90.9682736709
0
LINE
8
0
10
84.000135099
20
90.9682736709
11
83.9861620682
21
91.1549974854
0
LINE
8
0
10
83.9861620682
20
91.1549974854
11
84.0807000106
21
91.4409161475
0
LINE
8
0
10
84.0807000106
20
91.4409161475
11
84.3744284898
21
92.0023306048
0
LINE
8
0
10
84.3744284898
20
92.0023306048
11
84.6371194781
21
92.5756142117
0
LINE
8
0
10
84.6371194781
20
92.5756142117
11
84.9181314067
21
93.2847083121
0
LINE
8
0
10
84.9181314067
20
93.2847083121
11
85.203835309
21
94.1327652067
0
LINE
8
0
10
85.203835309
20
94.1327652067
11
85.4803402827
21
95.1218763509
0
LINE
8
0
10
85.4803402827
20
95.1218763509
11
85.6924812651
21
96.0695203612
0
LINE
8
0
10
85.6924812651
20
96.0695203612
11
84.9085008142
21
96.7391029221
0
LINE
8
0
10
84.9085008142
20
96.7391029221
11
84.0294266738
21
97.2778002482
0
LINE
8
0
10
84.0294266738
20
97.2778002482
11
83.1937188314
21
96.7832040807
0
LINE
8
0
10
83.1937188314
20
96.7832040807
11
82.3384629683
21
96.2145800708
0
LINE
8
0
10
82.3384629683
20
96.2145800708
11
81.6202002937
21
95.6807955202
0
LINE
8
0
10
81.6202002937
20
95.6807955202
11
81.0326491904
21
95.1944151667
0
LINE
8
0
10
81.0326491904
20
95.1944151667
11
80.5686000601
21
94.7674268133
0
LINE
8
0
10
80.5686000601
20
94.7674268133
11
80.1254302739
21
94.3145878209
0
LINE
8
0
10
80.1254302739
20
94.3145878209
11
79.882719298
21
94.1363231692
0
LINE
8
0
10
79.882719298
20
94.1363231692
11
79.7008164935
21
94.0919114792
0
LINE
8
0
10
79.7008164935
20
94.0919114792
11
77.7592588422
21
95.2816995382
0
LINE
8
0
10
77.7592588422
20
95.2816995382
11
77.7162478026
21
95.4639386091
0
LINE
8
0
10
77.7162478026
20
95.4639386091
11
77.7648942931
21
95.7611261304
0
LINE
8
0
10
77.7648942931
20
95.7611261304
11
77.967181917
21
96.3615779016
0
LINE
8
0
10
77.967181917
20
96.3615779016
11
78.136957429
21
96.9688973602
0
LINE
8
0
10
78.136957429
20
96.9688973602
11
78.3035828782
21
97.7132212863
0
LINE
8
0
10
78.3035828782
20
97.7132212863
11
78.4531039647
21
98.5955311303
0
LINE
8
0
10
78.4531039647
20
98.5955311303
11
78.5714736307
21
99.6157195827
0
LINE
8
0
10
78.5714736307
20
99.6157195827
11
78.6327586218
21
100.584882684
0
LINE
8
0
10
78.6327586218
20
100.584882684
11
77.7536844814
21
101.12358001
0
LINE
8
0
10
77.7536844814
20
101.12358001
11
76.8011623744
21
101.518127585
0
LINE
8
0
10
76.8011623744
20
101.518127585
11
76.0531153692
21
100.898887208
0
LINE
8
0
10
76.0531153692
20
100.898887208
11
75.2973415178
21
100.20347241
0
LINE
8
0
10
75.2973415178
20
100.20347241
11
74.6714241492
21
99.5638985954
0
LINE
8
0
10
74.6714241492
20
99.5638985954
11
74.1671934254
21
98.9915931486
0
LINE
8
0
10
74.1671934254
20
98.9915931486
11
73.7756532045
21
98.4972684529
0
LINE
8
0
10
73.7756532045
20
98.4972684529
11
73.4087791994
21
97.9806776316
0
LINE
8
0
10
73.4087791994
20
97.9806776316
11
73.1969431337
21
97.7666393519
0
LINE
8
0
10
73.1969431337
20
97.7666393519
11
73.0242273736
21
97.6943185756
0
LINE
8
0
10
73.0242273736
20
97.6943185756
11
70.9204496603
21
98.5657318366
0
LINE
8
0
10
70.9204496603
20
98.5657318366
11
70.8494596864
21
98.7389988332
0
LINE
8
0
10
70.8494596864
20
98.7389988332
11
70.8510168869
21
99.0401374707
0
LINE
8
0
10
70.8510168869
20
99.0401374707
11
70.9568826629
21
99.6648414405
0
LINE
8
0
10
70.9568826629
20
99.6648414405
11
71.029562262
21
100.29124253
0
LINE
8
0
10
71.029562262
20
100.29124253
11
71.0776983603
21
101.052468557
0
LINE
8
0
10
71.0776983603
20
101.052468557
11
71.0873549256
21
101.947305954
0
LINE
8
0
10
71.0873549256
20
101.947305954
11
71.0446746298
21
102.973451288
0
LINE
8
0
10
71.0446746298
20
102.973451288
11
70.9535945897
21
103.940269468
0
LINE
8
0
10
70.9535945897
20
103.940269468
11
70.0010724827
21
104.334817044
0
LINE
8
0
10
70.0010724827
20
104.334817044
11
68.9985566646
21
104.575499797
0
LINE
8
0
10
68.9985566646
20
104.575499797
11
68.3565898965
21
103.846862963
0
LINE
8
0
10
68.3565898965
20
103.846862963
11
67.7189077172
21
103.041780797
0
LINE
8
0
10
67.7189077172
20
103.041780797
11
67.2007478176
21
102.312166149
0
LINE
8
0
10
67.2007478176
20
102.312166149
11
66.7922533071
21
101.668027669
0
LINE
8
0
10
66.7922533071
20
101.668027669
11
66.4828630154
21
101.118538545
0
LINE
8
0
10
66.4828630154
20
101.118538545
11
66.2013184469
21
100.550916075
0
LINE
8
0
10
66.2013184469
20
100.550916075
11
66.0255733985
21
100.306374501
0
LINE
8
0
10
66.0255733985
20
100.306374501
11
65.8662975179
21
100.207925415
0
LINE
8
0
10
65.8662975179
20
100.207925415
11
63.652101732
21
100.739506792
0
LINE
8
0
10
63.652101732
20
100.739506792
11
63.5548808326
21
100.899535306
0
LINE
8
0
10
63.5548808326
20
100.899535306
11
63.5093103997
21
101.197210027
0
LINE
8
0
10
63.5093103997
20
101.197210027
11
63.516147561
21
101.83078391
0
LINE
8
0
10
63.516147561
20
101.83078391
11
63.4899416343
21
102.460842557
0
LINE
8
0
10
63.4899416343
20
102.460842557
11
63.418403111
21
103.220226773
0
LINE
8
0
10
63.418403111
20
103.220226773
11
63.2879573786
21
104.105557856
0
LINE
8
0
10
63.2879573786
20
104.105557856
11
63.0852780515
21
105.11239297
0
LINE
8
0
10
63.0852780515
20
105.11239297
11
62.844075673
21
106.053059956
0
LINE
8
0
10
62.844075673
20
106.053059956
11
61.8415598549
21
106.29374271
0
LINE
8
0
10
61.8415598549
20
106.29374271
11
60.8137355923
21
106.374634234
0
LINE
8
0
10
60.8137355923
20
106.374634234
11
60.2936564137
21
105.554542401
0
LINE
8
0
10
60.2936564137
20
105.554542401
11
59.7897677583
21
104.659616661
0
LINE
8
0
10
59.7897677583
20
104.659616661
11
59.392124144
21
103.857926714
0
LINE
8
0
10
59.392124144
20
103.857926714
11
59.0894243374
21
103.157816026
0
LINE
8
0
10
59.0894243374
20
103.157816026
11
58.8698021906
21
102.566692721
0
LINE
8
0
10
58.8698021906
20
102.566692721
11
58.6805196203
21
101.962015352
0
LINE
8
0
10
58.6805196203
20
101.962015352
11
58.5451930156
21
101.692991907
0
LINE
8
0
10
58.5451930156
20
101.692991907
11
58.4032789153
21
101.570838656
0
LINE
8
0
10
58.4032789153
20
101.570838656
11
56.1331859055
21
101.749498851
0
LINE
8
0
10
56.1331859055
20
101.749498851
11
56.0121279818
21
101.892348449
0
LINE
8
0
10
56.0121279818
20
101.892348449
11
55.9205520108
21
102.179229514
0
LINE
8
0
10
55.9205520108
20
102.179229514
11
55.8281922038
21
102.806072619
0
LINE
8
0
10
55.8281922038
20
102.806072619
11
55.7037460281
21
103.424274688
0
LINE
8
0
10
55.7037460281
20
103.424274688
11
55.5142943993
21
104.163118533
0
LINE
8
0
10
55.5142943993
20
104.163118533
11
55.2469583759
21
105.017143513
0
LINE
8
0
10
55.2469583759
20
105.017143513
11
54.8892706552
21
105.979876784
0
LINE
8
0
10
54.8892706552
20
105.979876784
11
54.5038851415
21
106.871230234
0
LINE
8
0
10
54.5038851415
20
106.871230234
11
53.4760608789
21
106.952121758
0
LINE
8
0
10
53.4760608789
20
106.952121758
11
52.4482366163
21
106.871230234
0
LINE
8
0
10
52.4482366163
20
106.871230234
11
52.0628511026
21
105.979876784
0
LINE
8
0
10
52.0628511026
20
105.979876784
11
51.7051633819
21
105.017143513
0
LINE
8
0
10
51.7051633819
20
105.017143513
11
51.4378273585
21
104.163118533
0
LINE
8
0
10
51.4378273585
20
104.163118533
11
51.2483757296
21
103.424274688
0
LINE
8
0
10
51.2483757296
20
103.424274688
11
51.123929554
21
102.806072619
0
LINE
8
0
10
51.123929554
20
102.806072619
11
51.031569747
21
102.179229514
0
LINE
8
0
10
51.031569747
20
102.179229514
11
50.939993776
21
101.892348449
0
LINE
8
0
10
50.939993776
20
101.892348449
11
50.8189358522
21
101.749498851
0
LINE
8
0
10
50.8189358522
20
101.749498851
11
48.5488428424
21
101.570838656
0
LINE
8
0
10
48.5488428424
20
101.570838656
11
48.4069287422
21
101.692991907
0
LINE
8
0
10
48.4069287422
20
101.692991907
11
48.2716021374
21
101.962015352
0
LINE
8
0
10
48.2716021374
20
101.962015352
11
48.0823195671
21
102.566692721
0
LINE
8
0
10
48.0823195671
20
102.566692721
11
47.8626974204
21
103.157816026
0
LINE
8
0
10
47.8626974204
20
103.157816026
11
47.5599976138
21
103.857926714
0
LINE
8
0
10
47.5599976138
20
103.857926714
11
47.1623539995
21
104.659616661
0
LINE
8
0
10
47.1623539995
20
104.659616661
11
46.658465344
21
105.554542401
0
LINE
8
0
10
46.658465344
20
105.554542401
11
46.1383861654
21
106.374634234
0
LINE
8
0
10
46.1383861654
20
106.374634234
11
45.1105619028
21
106.29374271
0
LINE
8
0
10
45.1105619028
20
106.29374271
11
44.1080460847
21
106.053059956
0
LINE
8
0
10
44.1080460847
20
106.053059956
11
43.8668437063
21
105.11239297
0
LINE
8
0
10
43.8668437063
20
105.11239297
11
43.6641643792
21
104.105557856
0
LINE
8
0
10
43.6641643792
20
104.105557856
11
43.5337186467
21
103.220226773
0
LINE
8
0
10
43.5337186467
20
103.220226773
11
43.4621801235
21
102.460842557
0
LINE
8
0
10
43.4621801235
20
102.460842557
11
43.4359741968
21
101.83078391
0
LINE
8
0
10
43.4359741968
20
101.83078391
11
43.4428113581
21
101.197210027
0
LINE
8
0
10
43.4428113581
20
101.197210027
11
43.3972409252
21
100.899535306
0
LINE
8
0
10
43.3972409252
20
100.899535306
11
43.3000200258
21
100.739506792
0
LINE
8
0
10
43.3000200258
20
100.739506792
11
41.0858242399
21
100.207925415
0
LINE
8
0
10
41.0858242399
20
100.207925415
11
40.9265483592
21
100.306374501
0
LINE
8
0
10
40.9265483592
20
100.306374501
11
40.7508033109
21
100.550916075
0
LINE
8
0
10
40.7508033109
20
100.550916075
11
40.4692587423
21
101.118538545
0
LINE
8
0
10
40.4692587423
20
101.118538545
11
40.1598684506
21
101.668027669
0
LINE
8
0
10
40.1598684506
20
101.668027669
11
39.7513739401
21
102.312166149
0
LINE
8
0
10
39.7513739401
20
102.312166149
11
39.2332140405
21
103.041780797
0
LINE
8
0
10
39.2332140405
20
103.041780797
11
38.5955318613
21
103.846862963
0
LINE
8
0
10
38.5955318613
20
103.846862963
11
37.9535650932
21
104.575499797
0
LINE
8
0
10
37.9535650932
20
104.575499797
11
36.9510492751
21
104.334817044
0
LINE
8
0
10
36.9510492751
20
104.334817044
11
35.9985271681
21
103.940269468
0
LINE
8
0
10
35.9985271681
20
103.940269468
11
35.907447128
21
102.973451288
0
LINE
8
0
10
35.907447128
20
102.973451288
11
35.8647668321
21
101.947305954
0
LINE
8
0
10
35.8647668321
20
101.947305954
11
35.8744233975
21
101.052468557
0
LINE
8
0
10
35.8744233975
20
101.052468557
11
35.9225594957
21
100.29124253
0
LINE
8
0
10
35.9225594957
20
100.29124253
11
35.9952390948
21
99.6648414405
0
LINE
8
0
10
35.9952390948
20
99.6648414405
11
36.1011048708
21
99.0401374707
0
LINE
8
0
10
36.1011048708
20
99.0401374707
11
36.1026620713
21
98.7389988332
0
LINE
8
0
10
36.1026620713
20
98.7389988332
11
36.0316720974
21
98.5657318366
0
LINE
8
0
10
36.0316720974
20
98.5657318366
11
33.9278943842
21
97.6943185756
0
LINE
8
0
10
33.9278943842
20
97.6943185756
11
33.755178624
21
97.7666393519
0
LINE
8
0
10
33.755178624
20
97.7666393519
11
33.5433425584
21
97.9806776316
0
LINE
8
0
10
33.5433425584
20
97.9806776316
11
33.1764685532
21
98.4972684529
0
LINE
8
0
10
33.1764685532
20
98.4972684529
11
32.7849283324
21
98.9915931486
0
LINE
8
0
10
32.7849283324
20
98.9915931486
11
32.2806976086
21
99.5638985954
0
LINE
8
0
10
32.2806976086
20
99.5638985954
11
31.65478024
21
100.20347241
0
LINE
8
0
10
31.65478024
20
100.20347241
11
30.8990063886
21
100.898887208
0
LINE
8
0
10
30.8990063886
20
100.898887208
11
30.1509593834
21
101.518127585
0
LINE
8
0
10
30.1509593834
20
101.518127585
11
29.1984372764
21
101.12358001
0
LINE
8
0
10
29.1984372764
20
101.12358001
11
28.319363136
21
100.584882684
0
LINE
8
0
10
28.319363136
20
100.584882684
11
28.3806481271
21
99.6157195827
0
LINE
8
0
10
28.3806481271
20
99.6157195827
11
28.499017793
21
98.5955311303
0
LINE
8
0
10
28.499017793
20
98.5955311303
11
28.6485388795
21
97.7132212863
0
LINE
8
0
10
28.6485388795
20
97.7132212863
11
28.8151643287
21
96.9688973602
0
LINE
8
0
10
28.8151643287
20
96.9688973602
11
28.9849398407
21
96.3615779016
0
LINE
8
0
10
28.9849398407
20
96.3615779016
11
29.1872274647
21
95.7611261304
0
LINE
8
0
10
29.1872274647
20
95.7611261304
11
29.2358739551
21
95.4639386091
0
LINE
8
0
10
29.2358739551
20
95.4639386091
11
29.1928629155
21
95.2816995382
0
LINE
8
0
10
29.1928629155
20
95.2816995382
11
27.2513052643
21
94.0919114792
0
LINE
8
0
10
27.2513052643
20
94.0919114792
11
27.0694024598
21
94.1363231692
0
LINE
8
0
10
27.0694024598
20
94.1363231692
11
26.8266914838
21
94.3145878209
0
LINE
8
0
10
26.8266914838
20
94.3145878209
11
26.3835216977
21
94.7674268133
0
LINE
8
0
10
26.3835216977
20
94.7674268133
11
25.9194725674
21
95.1944151666
0
LINE
8
0
10
25.9194725674
20
95.1944151666
11
25.3319214641
21
95.6807955202
0
LINE
8
0
10
25.3319214641
20
95.6807955202
11
24.6136587895
21
96.2145800708
0
LINE
8
0
10
24.6136587895
20
96.2145800708
11
23.7584029263
21
96.7832040807
0
LINE
8
0
10
23.7584029263
20
96.7832040807
11
22.9226950839
21
97.2778002482
0
LINE
8
0
10
22.9226950839
20
97.2778002482
11
22.0436209436
21
96.7391029221
0
LINE
8
0
10
22.0436209436
20
96.7391029221
11
21.2596404926
21
96.0695203612
0
LINE
8
0
10
21.2596404926
20
96.0695203612
11
21.471781475
21
95.1218763509
0
LINE
8
0
10
21.471781475
20
95.1218763509
11
21.7482864487
21
94.1327652067
0
LINE
8
0
10
21.7482864487
20
94.1327652067
11
22.033990351
21
93.2847083121
0
LINE
8
0
10
22.033990351
20
93.2847083121
11
22.3150022796
21
92.5756142117
0
LINE
8
0
10
22.3150022796
20
92.5756142117
11
22.577693268
21
92.0023306048
0
LINE
8
0
10
22.577693268
20
92.0023306048
11
22.8714217472
21
91.4409161475
0
LINE
8
0
10
22.8714217472
20
91.4409161475
11
22.9659596896
21
91.1549974854
0
LINE
8
0
10
22.9659596896
20
91.1549974854
11
22.9519866588
21
90.9682736709
0
LINE
8
0
10
22.9519866588
20
90.9682736709
11
21.2204566625
21
89.4894073448
0
LINE
8
0
10
21.2204566625
20
89.4894073448
11
21.0338458644
21
89.5048163853
0
LINE
8
0
10
21.0338458644
20
89.5048163853
11
20.766236328
21
89.6429179416
0
LINE
8
0
10
20.766236328
20
89.6429179416
11
20.2576830718
21
90.0208547062
0
LINE
8
0
10
20.2576830718
20
90.0208547062
11
19.7325514616
21
90.3699928469
0
LINE
8
0
10
19.7325514616
20
90.3699928469
11
19.076147437
21
90.7584718086
0
LINE
8
0
10
19.076147437
20
90.7584718086
11
18.2832254672
21
91.1733235484
0
LINE
8
0
10
18.2832254672
20
91.1733235484
11
17.3495468302
21
91.6011553597
0
LINE
8
0
10
17.3495468302
20
91.6011553597
11
16.4467560512
21
91.9589287184
0
LINE
8
0
10
16.4467560512
20
91.9589287184
11
15.6627756003
21
91.2893461575
0
LINE
8
0
10
15.6627756003
20
91.2893461575
11
14.9931930393
21
90.5053657065
0
LINE
8
0
10
14.9931930393
20
90.5053657065
11
15.350966398
21
89.6025749276
0
LINE
8
0
10
15.350966398
20
89.6025749276
11
15.7787982094
21
88.6688962906
0
LINE
8
0
10
15.7787982094
20
88.6688962906
11
16.1936499492
21
87.8759743207
0
LINE
8
0
10
16.1936499492
20
87.8759743207
11
16.5821289109
21
87.2195702961
0
LINE
8
0
10
16.5821289109
20
87.2195702961
11
16.9312670516
21
86.694438686
0
LINE
8
0
10
16.9312670516
20
86.694438686
11
17.3092038161
21
86.1858854298
0
LINE
8
0
10
17.3092038161
20
86.1858854298
11
17.4473053725
21
85.9182758933
0
LINE
8
0
10
17.4473053725
20
85.9182758933
11
17.4627144129
21
85.7316650952
0
LINE
8
0
10
17.4627144129
20
85.7316650952
11
15.9838480868
21
84.000135099
0
LINE
8
0
10
15.9838480868
20
84.000135099
11
15.7971242723
21
83.9861620682
0
LINE
8
0
10
15.7971242723
20
83.9861620682
11
15.5112056102
21
84.0807000106
0
LINE
8
0
10
15.5112056102
20
84.0807000106
11
14.9497911529
21
84.3744284898
0
LINE
8
0
10
14.9497911529
20
84.3744284898
11
14.3765075461
21
84.6371194781
0
LINE
8
0
10
14.3765075461
20
84.6371194781
11
13.6674134457
21
84.9181314067
0
LINE
8
0
10
13.6674134457
20
84.9181314067
11
12.8193565511
21
85.203835309
0
LINE
8
0
10
12.8193565511
20
85.203835309
11
11.8302454069
21
85.4803402827
0
LINE
8
0
10
11.8302454069
20
85.4803402827
11
10.8826013966
21
85.6924812651
0
LINE
8
0
10
10.8826013966
20
85.6924812651
11
10.2130188356
21
84.9085008142
0
LINE
8
0
10
10.2130188356
20
84.9085008142
11
9.67432150958
21
84.0294266738
0
LINE
8
0
10
9.67432150958
20
84.0294266738
11
10.1689176771
21
83.1937188314
0
LINE
8
0
10
10.1689176771
20
83.1937188314
11
10.737541687
21
82.3384629683
0
LINE
8
0
10
10.737541687
20
82.3384629683
11
11.2713262376
21
81.6202002937
0
LINE
8
0
10
11.2713262376
20
81.6202002937
11
11.7577065911
21
81.0326491904
0
LINE
8
0
10
11.7577065911
20
81.0326491904
11
12.1846949445
21
80.5686000601
0
LINE
8
0
10
12.1846949445
20
80.5686000601
11
12.6375339368
21
80.1254302739
0
LINE
8
0
10
12.6375339368
20
80.1254302739
11
12.8157985885
21
79.882719298
0
LINE
8
0
10
12.8157985885
20
79.882719298
11
12.8602102785
21
79.7008164935
0
LINE
8
0
10
12.8602102785
20
79.7008164935
11
11.6704222196
21
77.7592588422
0
LINE
8
0
10
11.6704222196
20
77.7592588422
11
11.4881831487
21
77.7162478026
0
LINE
8
0
10
11.4881831487
20
77.7162478026
11
11.1909956273
21
77.7648942931
0
LINE
8
0
10
11.1909956273
20
77.7648942931
11
10.5905438561
21
77.967181917
0
LINE
8
0
10
10.5905438561
20
77.967181917
11
9.98322439752
21
78.136957429
0
LINE
8
0
10
9.98322439752
20
78.136957429
11
9.23890047144
21
78.3035828782
0
LINE
8
0
10
9.23890047144
20
78.3035828782
11
8.35659062741
21
78.4531039647
0
LINE
8
0
10
8.35659062741
20
78.4531039647
11
7.33640217509
21
78.5714736307
0
LINE
8
0
10
7.33640217509
20
78.5714736307
11
6.36723907396
21
78.6327586218
0
LINE
8
0
10
6.36723907396
20
78.6327586218
11
5.8285417479
21
77.7536844814
0
LINE
8
0
10
5.8285417479
20
77.7536844814
11
5.43399417273
21
76.8011623744
0
LINE
8
0
10
5.43399417273
20
76.8011623744
11
6.05323454992
21
76.0531153692
0
LINE
8
0
10
6.05323454992
20
76.0531153692
11
6.74864934812
21
75.2973415178
0
LINE
8
0
10
6.74864934812
20
75.2973415178
11
7.3882231624
21
74.6714241492
0
LINE
8
0
10
7.3882231624
20
74.6714241492
11
7.96052860918
21
74.1671934254
0
LINE
8
0
10
7.96052860918
20
74.1671934254
11
8.45485330481
21
73.7756532045
0
LINE
8
0
10
8.45485330481
20
73.7756532045
11
8.97144412616
21
73.4087791994
0
LINE
8
0
10
8.97144412616
20
73.4087791994
11
9.18548240588
21
73.1969431337
0
LINE
8
0
10
9.18548240588
20
73.1969431337
11
9.25780318216
21
73.0242273736
0
LINE
8
0
10
9.25780318216
20
73.0242273736
11
8.38638992111
21
70.9204496603
0
LINE
8
0
10
8.38638992111
20
70.9204496603
11
8.21312292455
21
70.8494596864
0
LINE
8
0
10
8.21312292455
20
70.8494596864
11
7.91198428701
21
70.8510168869
0
LINE
8
0
10
7.91198428701
20
70.8510168869
11
7.28728031726
21
70.9568826629
0
LINE
8
0
10
7.28728031726
20
70.9568826629
11
6.6608792276
21
71.029562262
0
LINE
8
0
10
6.6608792276
20
71.029562262
11
5.89965320117
21
71.0776983603
0
LINE
8
0
10
5.89965320117
20
71.0776983603
11
5.00481580425
21
71.0873549256
0
LINE
8
0
10
5.00481580425
20
71.0873549256
11
3.97867046931
21
71.0446746298
0
LINE
8
0
10
3.97867046931
20
71.0446746298
11
3.0118522894
21
70.9535945897
0
LINE
8
0
10
3.0118522894
20
70.9535945897
11
2.61730471422
21
70.0010724827
0
LINE
8
0
10
2.61730471422
20
70.0010724827
11
2.37662196066
21
68.9985566646
0
LINE
8
0
10
2.37662196066
20
68.9985566646
11
3.10525879432
21
68.3565898965
0
LINE
8
0
10
3.10525879432
20
68.3565898965
11
3.91034096052
21
67.7189077172
0
LINE
8
0
10
3.91034096052
20
67.7189077172
11
4.63995560855
21
67.2007478176
0
LINE
8
0
10
4.63995560855
20
67.2007478176
11
5.28409408913
21
66.7922533071
0
LINE
8
0
10
5.28409408913
20
66.7922533071
11
5.83358321246
21
66.4828630154
0
LINE
8
0
10
5.83358321246
20
66.4828630154
11
6.40120568229
21
66.2013184469
0
LINE
8
0
10
6.40120568229
20
66.2013184469
11
6.64574725722
21
66.0255733985
0
LINE
8
0
10
6.64574725722
20
66.0255733985
11
6.74419634229
21
65.8662975179
0
LINE
8
0
10
6.74419634229
20
65.8662975179
11
6.21261496565
21
63.652101732
0
LINE
8
0
10
6.21261496565
20
63.652101732
11
6.05258645192
21
63.5548808326
0
LINE
8
0
10
6.05258645192
20
63.5548808326
11
5.75491173089
21
63.5093103997
0
LINE
8
0
10
5.75491173089
20
63.5093103997
11
5.12133784761
21
63.516147561
0
LINE
8
0
10
5.12133784761
20
63.516147561
11
4.49127920061
21
63.4899416343
0
LINE
8
0
10
4.49127920061
20
63.4899416343
11
3.73189498498
21
63.418403111
0
LINE
8
0
10
3.73189498498
20
63.418403111
11
2.84656390167
21
63.2879573786
0
LINE
8
0
10
2.84656390167
20
63.2879573786
11
1.83972878784
21
63.0852780515
0
LINE
8
0
10
1.83972878784
20
63.0852780515
11
0.899061801418
21
62.844075673
0
LINE
8
0
10
0.899061801418
20
62.844075673
11
0.658379047854
21
61.8415598549
0
LINE
8
0
10
0.658379047854
20
61.8415598549
11
0.577487524074
21
60.8137355923
0
LINE
8
0
10
0.577487524074
20
60.8137355923
11
1.39757935715
21
60.2936564137
0
LINE
8
0
10
1.39757935715
20
60.2936564137
11
2.2925050965
21
59.7897677583
0
LINE
8
0
10
2.2925050965
20
59.7897677583
11
3.09419504419
21
59.392124144
0
LINE
8
0
10
3.09419504419
20
59.392124144
11
3.79430573141
21
59.0894243374
0
LINE
8
0
10
3.79430573141
20
59.0894243374
11
4.38542903658
21
58.8698021906
0
LINE
8
0
10
4.38542903658
20
58.8698021906
11
4.99010640586
21
58.6805196203
0
LINE
8
0
10
4.99010640586
20
58.6805196203
11
5.25912985083
21
58.5451930156
0
LINE
8
0
10
5.25912985083
20
58.5451930156
11
5.38128310147
21
58.4032789153
0
LINE
8
0
10
5.38128310147
20
58.4032789153
11
5.20262290695
21
56.1331859055
0
LINE
8
0
10
5.20262290695
20
56.1331859055
11
5.05977330917
21
56.0121279818
0
LINE
8
0
10
5.05977330917
20
56.0121279818
11
4.77289224421
21
55.9205520108
0
LINE
8
0
10
4.77289224421
20
55.9205520108
11
4.14604913912
21
55.8281922038
0
LINE
8
0
10
4.14604913912
20
55.8281922038
11
3.52784706971
21
55.7037460281
0
LINE
8
0
10
3.52784706971
20
55.7037460281
11
2.78900322451
21
55.5142943993
0
LINE
8
0
10
2.78900322451
20
55.5142943993
11
1.93497824433
21
55.2469583759
0
LINE
8
0
10
1.93497824433
20
55.2469583759
11
0.972244973617
21
54.8892706552
0
LINE
8
0
10
0.972244973617
20
54.8892706552
11
0.0808915237807
21
54.5038851415
0
LINE
8
0
10
0.0808915237807
20
54.5038851415
11
0.0
21
53.4760608789
0
LINE
8
0
10
0.0
20
53.4760608789
11
0.0808915237808
21
52.4482366163
0
LINE
8
0
10
0.0808915237808
20
52.4482366163
11
0.972244973612
21
52.0628511026
0
LINE
8
0
10
0.972244973612
20
52.0628511026
11
1.93497824433
21
51.7051633819
0
LINE
8
0
10
1.93497824433
20
51.7051633819
11
2.78900322451
21
51.4378273585
0
LINE
8
0
10
2.78900322451
20
51.4378273585
11
3.52784706971
21
51.2483757296
0
LINE
8
0
10
3.52784706971
20
51.2483757296
11
4.14604913912
21
51.123929554
0
LINE
8
0
10
4.14604913912
20
51.123929554
11
4.77289224421
21
51.031569747
0
LINE
8
0
10
4.77289224421
20
51.031569747
11
5.05977330917
21
50.939993776
0
LINE
8
0
10
5.05977330917
20
50.939993776
11
5.20262290694
21
50.8189358522
0
LINE
8
0
10
5.20262290694
20
50.8189358522
11
5.38128310147
21
48.5488428424
0
LINE
8
0
10
5.38128310147
20
48.5488428424
11
5.25912985083
21
48.4069287422
0
LINE
8
0
10
5.25912985083
20
48.4069287422
11
4.99010640586
21
48.2716021374
0
LINE
8
0
10
4.99010640586
20
48.2716021374
11
4.38542903658
21
48.0823195671
0
LINE
8
0
10
4.38542903658
20
48.0823195671
11
3.79430573141
21
47.8626974204
0
LINE
8
0
10
3.79430573141
20
47.8626974204
11
3.09419504419
21
47.5599976138
0
LINE
8
0
10
3.09419504419
20
47.5599976138
11
2.2925050965
21
47.1623539995
0
LINE
8
0
10
2.2925050965
20
47.1623539995
11
1.39757935715
21
46.658465344
0
LINE
8
0
10
1.39757935715
20
46.658465344
11
0.577487524074
21
46.1383861654
0
LINE
8
0
10
0.577487524074
20
46.1383861654
11
0.658379047854
21
45.1105619028
0
LINE
8
0
10
0.658379047854
20
45.1105619028
11
0.899061801418
21
44.1080460847
0
LINE
8
0
10
0.899061801418
20
44.1080460847
11
1.83972878784
21
43.8668437063
0
LINE
8
0
10
1.83972878784
20
43.8668437063
11
2.84656390166
21
43.6641643792
0
LINE
8
0
10
2.84656390166
20
43.6641643792
11
3.73189498498
21
43.5337186467
0
LINE
8
0
10
3.73189498498
20
43.5337186467
11
4.49127920061
21
43.4621801235
0
LINE
8
0
10
4.49127920061
20
43.4621801235
11
5.12133784761
21
43.4359741968
0
LINE
8
0
10
5.12133784761
20
43.4359741968
11
5.75491173089
21
43.4428113581
0
LINE
8
0
10
5.75491173089
20
43.4428113581
11
6.05258645192
21
43.3972409252
0
LINE
8
0
10
6.05258645192
20
43.3972409252
11
6.21261496565
21
43.3000200258
0
LINE
8
0
10
6.21261496565
20
43.3000200258
11
6.74419634229
21
41.0858242399
0
LINE
8
0
10
6.74419634229
20
41.0858242399
11
6.64574725722
21
40.9265483592
0
LINE
8
0
10
6.64574725722
20
40.9265483592
11
6.4012056823
21
40.7508033109
0
LINE
8
0
10
6.4012056823
20
40.7508033109
11
5.83358321246
21
40.4692587423
0
LINE
8
0
10
5.83358321246
20
40.4692587423
11
5.28409408913
21
40.1598684506
0
LINE
8
0
10
5.28409408913
20
40.1598684506
11
4.63995560855
21
39.7513739401
0
LINE
8
0
10
4.63995560855
20
39.7513739401
11
3.91034096052
21
39.2332140405
0
LINE
8
0
10
3.91034096052
20
39.2332140405
11
3.10525879432
21
38.5955318613
0
LINE
8
0
10
3.10525879432
20
38.5955318613
11
2.37662196066
21
37.9535650932
0
LINE
8
0
10
2.37662196066
20
37.9535650932
11
2.61730471422
21
36.9510492751
0
LINE
8
0
10
2.61730471422
20
36.9510492751
11
3.0118522894
21
35.9985271681
0
LINE
8
0
10
3.0118522894
20
35.9985271681
11
3.97867046931
21
35.907447128
0
LINE
8
0
10
3.97867046931
20
35.907447128
11
5.00481580425
21
35.8647668321
0
LINE
8
0
10
5.00481580425
20
35.8647668321
11
5.89965320117
21
35.8744233975
0
LINE
8
0
10
5.89965320117
20
35.8744233975
11
6.6608792276
21
35.9225594957
0
LINE
8
0
10
6.6608792276
20
35.9225594957
11
7.28728031726
21
35.9952390948
0
LINE
8
0
10
7.28728031726
20
35.9952390948
11
7.91198428701
21
36.1011048708
0
LINE
8
0
10
7.91198428701
20
36.1011048708
11
8.21312292455
21
36.1026620713
0
LINE
8
0
10
8.21312292455
20
36.1026620713
11
8.38638992112
21
36.0316720974
0
LINE
8
0
10
8.38638992112
20
36.0316720974
11
9.25780318216
21
33.9278943842
0
LINE
8
0
10
9.25780318216
20
33.9278943842
11
9.18548240588
21
33.755178624
0
LINE
8
0
10
9.18548240588
20
33.755178624
11
8.97144412616
21
33.5433425584
0
LINE
8
0
10
8.97144412616
20
33.5433425584
11
8.45485330481
21
33.1764685532
0
LINE
8
0
10
8.45485330481
20
33.1764685532
11
7.96052860918
21
32.7849283324
0
LINE
8
0
10
7.96052860918
20
32.7849283324
11
7.3882231624
21
32.2806976086
0
LINE
8
0
10
7.3882231624
20
32.2806976086
11
6.74864934812
21
31.65478024
0
LINE
8
0
10
6.74864934812
20
31.65478024
11
6.05323454992
21
30.8990063886
0
LINE
8
0
10
6.05323454992
20
30.8990063886
11
5.43399417273
21
30.1509593834
0
LINE
8
0
10
5.43399417273
20
30.1509593834
11
5.8285417479
21
29.1984372764
0
LINE
8
0
10
5.8285417479
20
29.1984372764
11
6.36723907396
21
28.319363136
0
LINE
8
0
10
6.36723907396
20
28.319363136
11
7.33640217508
21
28.3806481271
0
LINE
8
0
10
7.33640217508
20
28.3806481271
11
8.3565906274
21
28.499017793
0
LINE
8
0
10
8.3565906274
20
28.499017793
11
9.23890047144
21
28.6485388795
0
LINE
8
0
10
9.23890047144
20
28.6485388795
11
9.98322439752
21
28.8151643287
0
LINE
8
0
10
9.98322439752
20
28.8151643287
11
10.5905438561
21
28.9849398407
0
LINE
8
0
10
10.5905438561
20
28.9849398407
11
11.1909956273
21
29.1872274647
0
LINE
8
0
10
11.1909956273
20
29.1872274647
11
11.4881831487
21
29.2358739551
0
LINE
8
0
10
11.4881831487
20
29.2358739551
11
11.6704222196
21
29.1928629155
0
LINE
8
0
10
11.6704222196
20
29.1928629155
11
12.8602102785
21
27.2513052643
0
LINE
8
0
10
12.8602102785
20
27.2513052643
11
12.8157985885
21
27.0694024598
0
LINE
8
0
10
12.8157985885
20
27.0694024598
11
12.6375339368
21
26.8266914838
0
LINE
8
0
10
12.6375339368
20
26.8266914838
11
12.1846949445
21
26.3835216977
0
LINE
8
0
10
12.1846949445
20
26.3835216977
11
11.7577065911
21
25.9194725674
0
LINE
8
0
10
11.7577065911
20
25.9194725674
11
11.2713262376
21
25.3319214641
0
LINE
8
0
10
11.2713262376
20
25.3319214641
11
10.737541687
21
24.6136587895
0
LINE
8
0
10
10.737541687
20
24.6136587895
11
10.1689176771
21
23.7584029263
0
LINE
8
0
10
10.1689176771
20
23.7584029263
11
9.67432150958
21
22.9226950839
0
LINE
8
0
10
9.67432150958
20
22.9226950839
11
10.2130188356
21
22.0436209436
0
LINE
8
0
10
10.2130188356
20
22.0436209436
11
10.8826013966
21
21.2596404926
0
LINE
8
0
10
10.8826013966
20
21.2596404926
11
11.8302454069
21
21.471781475
0
LINE
8
0
10
11.8302454069
20
21.471781475
11
12.8193565511
21
21.7482864487
0
LINE
8
0
10
12.8193565511
20
21.7482864487
11
13.6674134457
21
22.033990351
0
LINE
8
0
10
13.6674134457
20
22.033990351
11
14.3765075461
21
22.3150022796
0
LINE
8
0
10
14.3765075461
20
22.3150022796
11
14.9497911529
21
22.577693268
0
LINE
8
0
10
14.9497911529
20
22.577693268
11
15.5112056102
21
22.8714217472
0
LINE
8
0
10
15.5112056102
20
22.8714217472
11
15.7971242723
21
22.9659596896
0
LINE
8
0
10
15.7971242723
20
22.9659596896
11
15.9838480868
21
22.9519866588
0
LINE
8
0
10
15.9838480868
20
22.9519866588
11
17.4627144129
21
21.2204566625
0
LINE
8
0
10
17.4627144129
20
21.2204566625
11
17.4473053725
21
21.0338458644
0
LINE
8
0
10
17.4473053725
20
21.0338458644
11
17.3092038161
21
20.766236328
0
LINE
8
0
10
17.3092038161
20
20.766236328
11
16.9312670516
21
20.2576830718
0
LINE
8
0
10
16.9312670516
20
20.2576830718
11
16.5821289109
21
19.7325514616
0
LINE
8
0
10
16.5821289109
20
19.7325514616
11
16.1936499492
21
19.076147437
0
LINE
8
0
10
16.1936499492
20
19.076147437
11
15.7787982094
21
18.2832254672
0
LINE
8
0
10
15.7787982094
20
18.2832254672
11
15.350966398
21
17.3495468302
0
LINE
8
0
10
15.350966398
20
17.3495468302
11
14.9931930393
21
16.4467560512
0
LINE
8
0
10
14.9931930393
20
16.4467560512
11
15.6627756003
21
15.6627756003
0
LINE
8
0
10
15.6627756003
20
15.6627756003
11
16.4467560512
21
14.9931930393
0
LINE
8
0
10
16.4467560512
20
14.9931930393
11
17.3495468302
21
15.350966398
0
LINE
8
0
10
17.3495468302
20
15.350966398
11
18.2832254672
21
15.7787982094
0
LINE
8
0
10
18.2832254672
20
15.7787982094
11
19.076147437
21
16.1936499492
0
LINE
8
0
10
19.076147437
20
16.1936499492
11
19.7325514616
21
16.5821289109
0
LINE
8
0
10
19.7325514616
20
16.5821289109
11
20.2576830718
21
16.9312670516
0
LINE
8
0
10
20.2576830718
20
16.9312670516
11
20.766236328
21
17.3092038161
0
LINE
8
0
10
20.766236328
20
17.3092038161
11
21.0338458644
21
17.4473053725
0
LINE
8
0
10
21.0338458644
20
17.4473053725
11
21.2204566625
21
17.4627144129
0
LINE
8
0
10
21.2204566625
20
17.4627144129
11
22.9519866588
21
15.9838480868
0
LINE
8
0
10
22.9519866588
20
15.9838480868
11
22.9659596895
21
15.7971242723
0
LINE
8
0
10
22.9659596895
20
15.7971242723
11
22.8714217472
21
15.5112056102
0
LINE
8
0
10
22.8714217472
20
15.5112056102
11
22.577693268
21
14.9497911529
0
LINE
8
0
10
22.577693268
20
14.9497911529
11
22.3150022796
21
14.3765075461
0
LINE
8
0
10
22.3150022796
20
14.3765075461
11
22.033990351
21
13.6674134457
0
LINE
8
0
10
22.033990351
20
13.6674134457
11
21.7482864488
21
12.8193565511
0
LINE
8
0
10
21.7482864488
20
12.8193565511
11
21.471781475
21
11.8302454069
0
LINE
8
0
10
21.471781475
20
11.8302454069
11
21.2596404926
21
10.8826013966
0
LINE
8
0
10
21.2596404926
20
10.8826013966
11
22.0436209436
21
10.2130188356
0
LINE
8
0
10
22.0436209436
20
10.2130188356
11
22.9226950839
21
9.67432150958
0
LINE
8
0
10
22.9226950839
20
9.67432150958
11
23.7584029263
21
10.1689176771
0
LINE
8
0
10
23.7584029263
20
10.1689176771
11
24.6136587895
21
10.737541687
0
LINE
8
0
10
24.6136587895
20
10.737541687
11
25.3319214641
21
11.2713262376
0
LINE
8
0
10
25.3319214641
20
11.2713262376
11
25.9194725674
21
11.7577065911
0
LINE
8
0
10
25.9194725674
20
11.7577065911
11
26.3835216977
21
12.1846949445
0
LINE
8
0
10
26.3835216977
20
12.1846949445
11
26.8266914838
21
12.6375339368
0
LINE
8
0
10
26.8266914838
20
12.6375339368
11
27.0694024598
21
12.8157985885
0
LINE
8
0
10
27.0694024598
20
12.8157985885
11
27.2513052643
21
12.8602102785
0
LINE
8
0
10
27.2513052643
20
12.8602102785
11
29.1928629155
21
11.6704222196
0
LINE
8
0
10
29.1928629155
20
11.6704222196
11
29.2358739551
21
11.4881831487
0
LINE
8
0
10
29.2358739551
20
11.4881831487
11
29.1872274647
21
11.1909956273
0
LINE
8
0
10
29.1872274647
20
11.1909956273
11
28.9849398407
21
10.5905438561
0
LINE
8
0
10
28.9849398407
20
10.5905438561
11
28.8151643287
21
9.98322439752
0
LINE
8
0
10
28.8151643287
20
9.98322439752
11
28.6485388795
21
9.23890047144
0
LINE
8
0
10
28.6485388795
20
9.23890047144
11
28.499017793
21
8.35659062741
0
LINE
8
0
10
28.499017793
20
8.35659062741
11
28.3806481271
21
7.33640217509
0
LINE
8
0
10
28.3806481271
20
7.33640217509
11
28.319363136
21
6.36723907396
0
LINE
8
0
10
28.319363136
20
6.36723907396
11
29.1984372764
21
5.8285417479
0
LINE
8
0
10
29.1984372764
20
5.8285417479
11
30.1509593834
21
5.43399417273
0
LINE
8
0
10
30.1509593834
20
5.43399417273
11
30.8990063885
21
6.05323454992
0
LINE
8
0
10
30.8990063885
20
6.05323454992
11
31.65478024
21
6.74864934812
0
LINE
8
0
10
31.65478024
20
6.74864934812
11
32.2806976086
21
7.3882231624
0
LINE
8
0
10
32.2806976086
20
7.3882231624
11
32.7849283324
21
7.96052860918
0
LINE
8
0
10
32.7849283324
20
7.96052860918
11
33.1764685532
21
8.45485330481
0
LINE
8
0
10
33.1764685532
20
8.45485330481
11
33.5433425584
21
8.97144412616
0
LINE
8
0
10
33.5433425584
20
8.97144412616
11
33.755178624
21
9.18548240588
0
LINE
8
0
10
33.755178624
20
9.18548240588
11
33.9278943842
21
9.25780318216
0
LINE
8
0
10
33.9278943842
20
9.25780318216
11
36.0316720974
21
8.38638992111
0
LINE
8
0
10
36.0316720974
20
8.38638992111
11
36.1026620713
21
8.21312292455
0
LINE
8
0
10
36.1026620713
20
8.21312292455
11
36.1011048708
21
7.91198428701
0
LINE
8
0
10
36.1011048708
20
7.91198428701
11
35.9952390948
21
7.28728031726
0
LINE
8
0
10
35.9952390948
20
7.28728031726
11
35.9225594957
21
6.6608792276
0
LINE
8
0
10
35.9225594957
20
6.6608792276
11
35.8744233975
21
5.89965320117
0
LINE
8
0
10
35.8744233975
20
5.89965320117
11
35.8647668321
21
5.00481580425
0
LINE
8
0
10
35.8647668321
20
5.00481580425
11
35.907447128
21
3.97867046931
0
LINE
8
0
10
35.907447128
20
3.97867046931
11
35.9985271681
21
3.0118522894
0
LINE
8
0
10
35.9985271681
20
3.0118522894
11
36.9510492751
21
2.61730471422
0
LINE
8
0
10
36.9510492751
20
2.61730471422
11
37.9535650932
21
2.37662196066
0
LINE
8
0
10
37.9535650932
20
2.37662196066
11
38.5955318613
21
3.10525879432
0
LINE
8
0
10
38.5955318613
20
3.10525879432
11
39.2332140405
21
3.91034096052
0
LINE
8
0
10
39.2332140405
20
3.91034096052
11
39.7513739401
21
4.63995560855
0
LINE
8
0
10
39.7513739401
20
4.63995560855
11
40.1598684506
21
5.28409408913
0
LINE
8
0
10
40.1598684506
20
5.28409408913
11
40.4692587423
21
5.83358321246
0
LINE
8
0
10
40.4692587423
20
5.83358321246
11
40.7508033109
21
6.40120568229
0
LINE
8
0
10
40.7508033109
20
6.40120568229
11
40.9265483592
21
6.64574725722
0
LINE
8
0
10
40.9265483592
20
6.64574725722
11
41.0858242399
21
6.74419634229
0
LINE
8
0
10
41.0858242399
20
6.74419634229
11
43.3000200258
21
6.21261496565
0
LINE
8
0
10
43.3000200258
20
6.21261496565
11
43.3972409252
21
6.05258645192
0
LINE
8
0
10
43.3972409252
20
6.05258645192
11
43.4428113581
21
5.75491173089
0
LINE
8
0
10
43.4428113581
20
5.75491173089
11
43.4359741968
21
5.12133784761
0
LINE
8
0
10
43.4359741968
20
5.12133784761
11
43.4621801235
21
4.49127920061
0
LINE
8
0
10
43.4621801235
20
4.49127920061
11
43.5337186467
21
3.73189498498
0
LINE
8
0
10
43.5337186467
20
3.73189498498
11
43.6641643792
21
2.84656390167
0
LINE
8
0
10
43.6641643792
20
2.84656390167
11
43.8668437063
21
1.83972878784
0
LINE
8
0
10
43.8668437063
20
1.83972878784
11
44.1080460847
21
0.899061801418
0
LINE
8
0
10
44.1080460847
20
0.899061801418
11
45.1105619028
21
0.658379047854
0
LINE
8
0
10
45.1105619028
20
0.658379047854
11
46.1383861654
21
0.577487524074
0
LINE
8
0
10
46.1383861654
20
0.577487524074
11
46.658465344
21
1.39757935715
0
LINE
8
0
10
46.658465344
20
1.39757935715
11
47.1623539995
21
2.2925050965
0
LINE
8
0
10
47.1623539995
20
2.2925050965
11
47.5599976138
21
3.09419504419
0
LINE
8
0
10
47.5599976138
20
3.09419504419
11
47.8626974204
21
3.79430573141
0
LINE
8
0
10
47.8626974204
20
3.79430573141
11
48.0823195671
21
4.38542903658
0
LINE
8
0
10
48.0823195671
20
4.38542903658
11
48.2716021374
21
4.99010640586
0
LINE
8
0
10
48.2716021374
20
4.99010640586
11
48.4069287422
21
5.25912985083
0
LINE
8
0
10
48.4069287422
20
5.25912985083
11
48.5488428424
21
5.38128310147
0
LINE
8
0
10
48.5488428424
20
5.38128310147
11
50.8189358522
21
5.20262290695
0
LINE
8
0
10
50.8189358522
20
5.20262290695
11
50.939993776
21
5.05977330917
0
LINE
8
0
10
50.939993776
20
5.05977330917
11
51.031569747
21
4.77289224421
0
LINE
8
0
10
51.031569747
20
4.77289224421
11
51.123929554
21
4.14604913912
0
LINE
8
0
10
51.123929554
20
4.14604913912
11
51.2483757296
21
3.52784706971
0
LINE
8
0
10
51.2483757296
20
3.52784706971
11
51.4378273585
21
2.78900322451
0
LINE
8
0
10
51.4378273585
20
2.78900322451
11
51.7051633819
21
1.93497824433
0
LINE
8
0
10
51.7051633819
20
1.93497824433
11
52.0628511026
21
0.972244973617
0
LINE
8
0
10
52.0628511026
20
0.972244973617
11
52.4482366163
21
0.0808915237807
0
LINE
8
0
10
52.4482366163
20
0.0808915237807
11
53.4760608789
21
0.0
0
LINE
8
0
10
53.4760608789
20
0.0
11
54.5038851415
21
0.0808915237807
0
LINE
8
0
10
54.5038851415
20
0.0808915237807
11
54.8892706552
21
0.972244973612
0
LINE
8
0
10
54.8892706552
20
0.972244973612
11
55.2469583759
21
1.93497824433
0
LINE
8
0
10
55.2469583759
20
1.93497824433
11
55.5142943993
21
2.78900322451
0
LINE
8
0
10
55.5142943993
20
2.78900322451
11
55.7037460281
21
3.52784706971
0
LINE
8
0
10
55.7037460281
20
3.52784706971
11
55.8281922038
21
4.14604913912
0
LINE
8
0
10
55.8281922038
20
4.14604913912
11
55.9205520108
21
4.77289224421
0
LINE
8
0
10
55.9205520108
20
4.77289224421
11
56.0121279818
21
5.05977330917
0
LINE
8
0
10
56.0121279818
20
5.05977330917
11
56.1331859055
21
5.20262290694
0
LINE
8
0
10
56.1331859055
20
5.20262290694
11
58.4032789153
21
5.38128310147
0
LINE
8
0
10
58.4032789153
20
5.38128310147
11
58.5451930156
21
5.25912985083
0
LINE
8
0
10
58.5451930156
20
5.25912985083
11
58.6805196203
21
4.99010640586
0
LINE
8
0
10
58.6805196203
20
4.99010640586
11
58.8698021906
21
4.38542903658
0
LINE
8
0
10
58.8698021906
20
4.38542903658
11
59.0894243374
21
3.79430573141
0
LINE
8
0
10
59.0894243374
20
3.79430573141
11
59.392124144
21
3.09419504419
0
LINE
8
0
10
59.392124144
20
3.09419504419
11
59.7897677583
21
2.2925050965
0
LINE
8
0
10
59.7897677583
20
2.2925050965
11
60.2936564137
21
1.39757935715
0
LINE
8
0
10
60.2936564137
20
1.39757935715
11
60.8137355923
21
0.577487524074
0
LINE
8
0
10
60.8137355923
20
0.577487524074
11
61.8415598549
21
0.658379047854
0
LINE
8
0
10
61.8415598549
20
0.658379047854
11
62.844075673
21
0.899061801418
0
LINE
8
0
10
62.844075673
20
0.899061801418
11
63.0852780515
21
1.83972878784
0
LINE
8
0
10
63.0852780515
20
1.83972878784
11
63.2879573786
21
2.84656390166
0
LINE
8
0
10
63.2879573786
20
2.84656390166
11
63.418403111
21
3.73189498498
0
LINE
8
0
10
63.418403111
20
3.73189498498
11
63.4899416343
21
4.49127920061
0
LINE
8
0
10
63.4899416343
20
4.49127920061
11
63.516147561
21
5.12133784761
0
LINE
8
0
10
63.516147561
20
5.12133784761
11
63.5093103997
21
5.75491173089
0
LINE
8
0
10
63.5093103997
20
5.75491173089
11
63.5548808326
21
6.05258645192
0
LINE
8
0
10
63.5548808326
20
6.05258645192
11
63.652101732
21
6.21261496565
0
LINE
8
0
10
63.652101732
20
6.21261496565
11
65.8662975179
21
6.74419634229
0
LINE
8
0
10
65.8662975179
20
6.74419634229
11
66.0255733985
21
6.64574725722
0
LINE
8
0
10
66.0255733985
20
6.64574725722
11
66.2013184469
21
6.4012056823
0
LINE
8
0
10
66.2013184469
20
6.4012056823
11
66.4828630154
21
5.83358321246
0
LINE
8
0
10
66.4828630154
20
5.83358321246
11
66.7922533071
21
5.28409408913
0
LINE
8
0
10
66.7922533071
20
5.28409408913
11
67.2007478176
21
4.63995560855
0
LINE
8
0
10
67.2007478176
20
4.63995560855
11
67.7189077172
21
3.91034096052
0
LINE
8
0
10
67.7189077172
20
3.91034096052
11
68.3565898965
21
3.10525879432
0
LINE
8
0
10
68.3565898965
20
3.10525879432
11
68.9985566646
21
2.37662196066
0
LINE
8
0
10
68.9985566646
20
2.37662196066
11
70.0010724827
21
2.61730471422
0
LINE
8
0
10
70.0010724827
20
2.61730471422
11
70.9535945897
21
3.0118522894
0
LINE
8
0
10
70.9535945897
20
3.0118522894
11
71.0446746298
21
3.97867046931
0
LINE
8
0
10
71.0446746298
20
3.97867046931
11
71.0873549256
21
5.00481580425
0
LINE
8
0
10
71.0873549256
20
5.00481580425
11
71.0776983603
21
5.89965320117
0
LINE
8
0
10
71.0776983603
20
5.89965320117
11
71.029562262
21
6.6608792276
0
LINE
8
0
10
71.029562262
20
6.6608792276
11
70.9568826629
21
7.28728031726
0
LINE
8
0
10
70.9568826629
20
7.28728031726
11
70.8510168869
21
7.91198428701
0
LINE
8
0
10
70.8510168869
20
7.91198428701
11
70.8494596864
21
8.21312292455
0
LINE
8
0
10
70.8494596864
20
8.21312292455
11
70.9204496603
21
8.38638992112
0
LINE
8
0
10
70.9204496603
20
8.38638992112
11
73.0242273736
21
9.25780318216
0
LINE
8
0
10
73.0242273736
20
9.25780318216
11
73.1969431337
21
9.18548240588
0
LINE
8
0
10
73.1969431337
20
9.18548240588
11
73.4087791994
21
8.97144412616
0
LINE
8
0
10
73.4087791994
20
8.97144412616
11
73.7756532045
21
8.45485330481
0
LINE
8
0
10
73.7756532045
20
8.45485330481
11
74.1671934254
21
7.96052860918
0
LINE
8
0
10
74.1671934254
20
7.96052860918
11
74.6714241492
21
7.3882231624
0
LINE
8
0
10
74.6714241492
20
7.3882231624
11
75.2973415178
21
6.74864934812
0
LINE
8
0
10
75.2973415178
20
6.74864934812
11
76.0531153692
21
6.05323454992
0
LINE
8
0
10
76.0531153692
20
6.05323454992
11
76.8011623744
21
5.43399417273
0
LINE
8
0
10
76.8011623744
20
5.43399417273
11
77.7536844814
21
5.8285417479
0
LINE
8
0
10
77.7536844814
20
5.8285417479
11
78.6327586218
21
6.36723907396
0
LINE
8
0
10
78.6327586218
20
6.36723907396
11
78.5714736307
21
7.33640217508
0
LINE
8
0
10
78.5714736307
20
7.33640217508
11
78.4531039647
21
8.3565906274
0
LINE
8
0
10
78.4531039647
20
8.3565906274
11
78.3035828782
21
9.23890047144
0
LINE
8
0
10
78.3035828782
20
9.23890047144
11
78.136957429
21
9.98322439752
0
LINE
8
0
10
78.136957429
20
9.98322439752
11
77.967181917
21
10.5905438561
0
LINE
8
0
10
77.967181917
20
10.5905438561
11
77.7648942931
21
11.1909956273
0
LINE
8
0
10
77.7648942931
20
11.1909956273
11
77.7162478026
21
11.4881831487
0
LINE
8
0
10
77.7162478026
20
11.4881831487
11
77.7592588422
21
11.6704222196
0
LINE
8
0
10
77.7592588422
20
11.6704222196
11
79.7008164935
21
12.8602102785
0
LINE
8
0
10
79.7008164935
20
12.8602102785
11
79.882719298
21
12.8157985885
0
LINE
8
0
10
79.882719298
20
12.8157985885
11
80.1254302739
21
12.6375339368
0
LINE
8
0
10
80.1254302739
20
12.6375339368
11
80.5686000601
21
12.1846949445
0
LINE
8
0
10
80.5686000601
20
12.1846949445
11
81.0326491904
21
11.7577065911
0
LINE
8
0
10
81.0326491904
20
11.7577065911
11
81.6202002937
21
11.2713262376
0
LINE
8
0
10
81.6202002937
20
11.2713262376
11
82.3384629683
21
10.737541687
0
LINE
8
0
10
82.3384629683
20
10.737541687
11
83.1937188314
21
10.1689176771
0
LINE
8
0
10
83.1937188314
20
10.1689176771
11
84.0294266738
21
9.67432150958
0
LINE
8
0
10
84.0294266738
20
9.67432150958
11
84.9085008142
21
10.2130188356
0
LINE
8
0
10
84.9085008142
20
10.2130188356
11
85.6924812651
21
10.8826013966
0
LINE
8
0
10
85.6924812651
20
10.8826013966
11
85.4803402827
21
11.8302454069
0
LINE
8
0
10
85.4803402827
20
11.8302454069
11
85.203835309
21
12.8193565511
0
LINE
8
0
10
85.203835309
20
12.8193565511
11
84.9181314067
21
13.6674134457
0
LINE
8
0
10
84.9181314067
20
13.6674134457
11
84.6371194781
21
14.3765075461
0
LINE
8
0
10
84.6371194781
20
14.3765075461
11
84.3744284898
21
14.9497911529
0
LINE
8
0
10
84.3744284898
20
14.9497911529
11
84.0807000106
21
15.5112056102
0
LINE
8
0
10
84.0807000106
20
15.5112056102
11
83.9861620682
21
15.7971242723
0
LINE
8
0
10
83.9861620682
20
15.7971242723
11
84.000135099
21
15.9838480868
0
LINE
8
0
10
84.000135099
20
15.9838480868
11
85.7316650952
21
17.4627144129
0
LINE
8
0
10
85.7316650952
20
17.4627144129
11
85.9182758933
21
17.4473053725
0
LINE
8
0
10
85.9182758933
20
17.4473053725
11
86.1858854298
21
17.3092038161
0
LINE
8
0
10
86.1858854298
20
17.3092038161
11
86.694438686
21
16.9312670516
0
LINE
8
0
10
86.694438686
20
16.9312670516
11
87.2195702961
21
16.5821289109
0
LINE
8
0
10
87.2195702961
20
16.5821289109
11
87.8759743207
21
16.1936499492
0
LINE
8
0
10
87.8759743207
20
16.1936499492
11
88.6688962906
21
15.7787982094
0
LINE
8
0
10
88.6688962906
20
15.7787982094
11
89.6025749276
21
15.350966398
0
LINE
8
0
10
89.6025749276
20
15.350966398
11
90.5053657065
21
14.9931930393
0
LINE
8
0
10
90.5053657065
20
14.9931930393
11
91.2893461575
21
15.6627756003
0
LINE
8
0
10
91.2893461575
20
15.6627756003
11
91.9589287184
21
16.4467560512
0
LINE
8
0
10
91.9589287184
20
16.4467560512
11
91.6011553597
21
17.3495468302
0
LINE
8
0
10
91.6011553597
20
17.3495468302
11
91.1733235484
21
18.2832254672
0
LINE
8
0
10
91.1733235484
20
18.2832254672
11
90.7584718086
21
19.076147437
0
LINE
8
0
10
90.7584718086
20
19.076147437
11
90.3699928469
21
19.7325514616
0
LINE
8
0
10
90.3699928469
20
19.7325514616
11
90.0208547062
21
20.2576830718
0
LINE
8
0
10
90.0208547062
20
20.2576830718
11
89.6429179416
21
20.766236328
0
LINE
8
0
10
89.6429179416
20
20.766236328
11
89.5048163853
21
21.0338458644
0
LINE
8
0
10
89.5048163853
20
21.0338458644
11
89.4894073448
21
21.2204566625
0
LINE
8
0
10
89.4894073448
20
21.2204566625
11
90.9682736709
21
22.9519866588
0
LINE
8
0
10
90.9682736709
20
22.9519866588
11
91.1549974854
21
22.9659596895
0
LINE
8
0
10
91.1549974854
20
22.9659596895
11
91.4409161475
21
22.8714217472
0
LINE
8
0
10
91.4409161475
20
22.8714217472
11
92.0023306048
21
22.577693268
0
LINE
8
0
10
92.0023306048
20
22.577693268
11
92.5756142117
21
22.3150022796
0
LINE
8
0
10
92.5756142117
20
22.3150022796
11
93.2847083121
21
22.033990351
0
LINE
8
0
10
93.2847083121
20
22.033990351
11
94.1327652067
21
21.7482864488
0
LINE
8
0
10
94.1327652067
20
21.7482864488
11
95.1218763509
21
21.471781475
0
LINE
8
0
10
95.1218763509
20
21.471781475
11
96.0695203612
21
21.2596404926
0
LINE
8
0
10
96.0695203612
20
21.2596404926
11
96.7391029221
21
22.0436209436
0
LINE
8
0
10
96.7391029221
20
22.0436209436
11
97.2778002482
21
22.9226950839
0
LINE
8
0
10
97.2778002482
20
22.9226950839
11
96.7832040807
21
23.7584029263
0
LINE
8
0
10
96.7832040807
20
23.7584029263
11
96.2145800708
21
24.6136587895
0
LINE
8
0
10
96.2145800708
20
24.6136587895
11
95.6807955202
21
25.3319214641
0
LINE
8
0
10
95.6807955202
20
25.3319214641
11
95.1944151667
21
25.9194725674
0
LINE
8
0
10
95.1944151667
20
25.9194725674
11
94.7674268133
21
26.3835216977
0
LINE
8
0
10
94.7674268133
20
26.3835216977
11
94.3145878209
21
26.8266914838
0
LINE
8
0
10
94.3145878209
20
26.8266914838
11
94.1363231692
21
27.0694024598
0
LINE
8
0
10
94.1363231692
20
27.0694024598
11
94.0919114792
21
27.2513052643
0
LINE
8
0
10
94.0919114792
20
27.2513052643
11
95.2816995382
21
29.1928629155
0
LINE
8
0
10
95.2816995382
20
29.1928629155
11
95.4639386091
21
29.2358739551
0
LINE
8
0
10
95.4639386091
20
29.2358739551
11
95.7611261304
21
29.1872274647
0
LINE
8
0
10
95.7611261304
20
29.1872274647
11
96.3615779016
21
28.9849398407
0
LINE
8
0
10
96.3615779016
20
28.9849398407
11
96.9688973602
21
28.8151643287
0
LINE
8
0
10
96.9688973602
20
28.8151643287
11
97.7132212863
21
28.6485388795
0
LINE
8
0
10
97.7132212863
20
28.6485388795
11
98.5955311303
21
28.499017793
0
LINE
8
0
10
98.5955311303
20
28.499017793
11
99.6157195827
21
28.3806481271
0
LINE
8
0
10
99.6157195827
20
28.3806481271
11
100.584882684
21
28.319363136
0
LINE
8
0
10
100.584882684
20
28.319363136
11
101.12358001
21
29.1984372764
0
LINE
8
0
10
101.12358001
20
29.1984372764
11
101.518127585
21
30.1509593834
0
LINE
8
0
10
101.518127585
20
30.1509593834
11
100.898887208
21
30.8990063885
0
LINE
8
0
10
100.898887208
20
30.8990063885
11
100.20347241
21
31.65478024
0
LINE
8
0
10
100.20347241
20
31.65478024
11
99.5638985954
21
32.2806976086
0
LINE
8
0
10
99.5638985954
20
32.2806976086
11
98.9915931486
21
32.7849283324
0
LINE
8
0
10
98.9915931486
20
32.7849283324
11
98.4972684529
21
33.1764685532
0
LINE
8
0
10
98.4972684529
20
33.1764685532
11
97.9806776316
21
33.5433425584
0
LINE
8
0
10
97.9806776316
20
33.5433425584
11
97.7666393519
21
33.755178624
0
LINE
8
0
10
97.7666393519
20
33.755178624
11
97.6943185756
21
33.9278943842
0
LINE
8
0
10
97.6943185756
20
33.9278943842
11
98.5657318366
21
36.0316720974
0
LINE
8
0
10
98.5657318366
20
36.0316720974
11
98.7389988332
21
36.1026620713
0
LINE
8
0
10
98.7389988332
20
36.1026620713
11
99.0401374707
21
36.1011048708
0
LINE
8
0
10
99.0401374707
20
36.1011048708
11
99.6648414405
21
35.9952390948
0
LINE
8
0
10
99.6648414405
20
35.9952390948
11
100.29124253
21
35.9225594957
0
LINE
8
0
10
100.29124253
20
35.9225594957
11
101.052468557
21
35.8744233975
0
LINE
8
0
10
101.052468557
20
35.8744233975
11
101.947305954
21
35.8647668321
0
LINE
8
0
10
101.947305954
20
35.8647668321
11
102.973451288
21
35.907447128
0
LINE
8
0
10
102.973451288
20
35.907447128
11
103.940269468
21
35.9985271681
0
LINE
8
0
10
103.940269468
20
35.9985271681
11
104.334817044
21
36.9510492751
0
LINE
8
0
10
104.334817044
20
36.9510492751
11
104.575499797
21
37.9535650932
0
LINE
8
0
10
104.575499797
20
37.9535650932
11
103.846862963
21
38.5955318613
0
LINE
8
0
10
103.846862963
20
38.5955318613
11
103.041780797
21
39.2332140405
0
LINE
8
0
10
103.041780797
20
39.2332140405
11
102.312166149
21
39.7513739401
0
LINE
8
0
10
102.312166149
20
39.7513739401
11
101.668027669
21
40.1598684506
0
LINE
8
0
10
101.668027669
20
40.1598684506
11
101.118538545
21
40.4692587423
0
LINE
8
0
10
101.118538545
20
40.4692587423
11
100.550916075
21
40.7508033109
0
LINE
8
0
10
100.550916075
20
40.7508033109
11
100.306374501
21
40.9265483592
0
LINE
8
0
10
100.306374501
20
40.9265483592
11
100.207925415
21
41.0858242399
0
LINE
8
0
10
100.207925415
20
41.0858242399
11
100.739506792
21
43.3000200258
0
LINE
8
0
10
100.739506792
20
43.3000200258
11
100.899535306
21
43.3972409252
0
LINE
8
0
10
100.899535306
20
43.3972409252
11
101.197210027
21
43.4428113581
0
LINE
8
0
10
101.197210027
20
43.4428113581
11
101.83078391
21
43.4359741968
0
LINE
8
0
10
101.83078391
20
43.4359741968
11
102.460842557
21
43.4621801235
0
LINE
8
0
10
102.460842557
20
43.4621801235
11
103.220226773
21
43.5337186467
0
LINE
8
0
10
103.220226773
20
43.5337186467
11
104.105557856
21
43.6641643792
0
LINE
8
0
10
104.105557856
20
43.6641643792
11
105.11239297
21
43.8668437063
0
LINE
8
0
10
105.11239297
20
43.8668437063
11
106.053059956
21
44.1080460847
0
LINE
8
0
10
53.7879284151
20
52.0088394778
11
53.4760608789
21
51.9760608789
0
LINE
8
0
10
53.4760608789
20
51.9760608789
11
53.1641933427
21
52.0088394778
0
LINE
8
0
10
53.1641933427
20
52.0088394778
11
52.8659559143
21
52.1057426924
0
LINE
8
0
10
52.8659559143
20
52.1057426924
11
52.5943830004
21
52.2625353873
0
LINE
8
0
10
52.5943830004
20
52.2625353873
11
52.3613436407
21
52.4723649693
0
LINE
8
0
10
52.3613436407
20
52.4723649693
11
52.1770227732
21
52.7260608789
0
LINE
8
0
10
52.1770227732
20
52.7260608789
11
52.0494761044
21
53.0125353873
0
LINE
8
0
10
52.0494761044
20
53.0125353873
11
51.9842780358
21
53.319268184
0
LINE
8
0
10
51.9842780358
20
53.319268184
11
51.9842780358
21
53.6328535738
0
LINE
8
0
10
51.9842780358
20
53.6328535738
11
52.0494761044
21
53.9395863704
0
LINE
8
0
10
52.0494761044
20
53.9395863704
11
52.1770227732
21
54.2260608789
0
LINE
8
0
10
52.1770227732
20
54.2260608789
11
52.3613436407
21
54.4797567884
0
LINE
8
0
10
52.3613436407
20
54.4797567884
11
52.5943830004
21
54.6895863704
0
LINE
8
0
10
52.5943830004
20
54.6895863704
11
52.8659559143
21
54.8463790653
0
LINE
8
0
10
52.8659559143
20
54.8463790653
11
53.1641933427
21
54.94328228
0
LINE
8
0
10
53.1641933427
20
54.94328228
11
53.4760608789
21
54.9760608789
0
LINE
8
0
10
53.4760608789
20
54.9760608789
11
53.7879284151
21
54.94328228
0
LINE
8
0
10
53.7879284151
20
54.94328228
11
54.0861658435
21
54.8463790653
0
LINE
8
0
10
54.0861658435
20
54.8463790653
11
54.3577387573
21
54.6895863704
0
LINE
8
0
10
54.3577387573
20
54.6895863704
11
54.5907781171
21
54.4797567884
0
LINE
8
0
10
54.5907781171
20
54.4797567884
11
54.7750989846
21
54.2260608789
0
LINE
8
0
10
54.7750989846
20
54.2260608789
11
54.9026456533
21
53.9395863704
0
LINE
8
0
10
54.9026456533
20
53.9395863704
11
54.9678437219
21
53.6328535738
0
LINE
8
0
10
54.9678437219
20
53.6328535738
11
54.9678437219
21
53.319268184
0
LINE
8
0
10
54.9678437219
20
53.319268184
11
54.9026456533
21
53.0125353873
0
LINE
8
0
10
54.9026456533
20
53.0125353873
11
54.7750989846
21
52.7260608789
0
LINE
8
0
10
54.7750989846
20
52.7260608789
11
54.5907781171
21
52.4723649693
0
LINE
8
0
10
54.5907781171
20
52.4723649693
11
54.3577387573
21
52.2625353873
0
LINE
8
0
10
54.3577387573
20
52.2625353873
11
54.0861658435
21
52.1057426924
0
LINE
8
0
10
54.0861658435
20
52.1057426924
11
53.7879284151
21
52.0088394778
0
ENDSEC
0
EOF
