  0
SECTION
  2
BLOCKS
  0
ENDSEC
  0
SECTION
  2
ENTITIES
  0
LINE
  8
0
 10
2.0135347886124406
 20
-8.645504195281914
 11
2.7541686006337054
 21
-8.476459360775358
  0
LINE
  8
0
 10
2.7541686006337054
 20
-8.476459360775358
 11
3.4527160018667806
 21
-8.177885872647208
  0
LINE
  8
0
 10
3.4527160018667806
 20
-8.177885872647208
 11
3.9212956991171732
 21
-6.1289559618127925
  0
LINE
  8
0
 10
3.9212956991171732
 20
-6.1289559618127925
 11
3.702760557111018
 21
-5.016950964392296
  0
LINE
  8
0
 10
3.702760557111018
 20
-5.016950964392296
 11
3.6678748853769085
 21
-4.967347320138028
  0
LINE
  8
0
 10
3.6678748853769085
 20
-4.967347320138028
 11
2.8961908978011115
 21
-4.505838284367559
  0
LINE
  8
0
 10
2.8961908978011115
 20
-4.505838284367559
 11
2.380539840572558
 21
-3.1368964093678984
  0
LINE
  8
0
 10
2.380539840572558
 20
-3.1368964093678984
 11
3.718993037595757
 21
-1.294673627588326
  0
LINE
  8
0
 10
3.718993037595757
 20
-1.294673627588326
 11
5.180279068094522
 21
-1.3620606220136218
  0
LINE
  8
0
 10
5.180279068094522
 20
-1.3620606220136218
 11
5.857663710341065
 21
-1.9533615718075528
  0
LINE
  8
0
 10
5.857663710341065
 20
-1.9533615718075528
 11
5.915619844867102
 21
-1.9712114481781147
  0
LINE
  8
0
 10
5.915619844867102
 20
-1.9712114481781147
 11
7.040730516564669
 21
-1.8354222769897528
  0
LINE
  8
0
 10
7.040730516564669
 20
-1.8354222769897528
 11
8.844579570026363
 21
-0.756622339785167
  0
LINE
  8
0
 10
8.844579570026363
 20
-0.756622339785167
 11
8.91267681314614
 21
5.457260327472069e-16
  0
LINE
  8
0
 10
8.91267681314614
 20
5.457260327472069e-16
 11
8.844579570026363
 21
0.7566223397851669
  0
LINE
  8
0
 10
8.844579570026363
 20
0.7566223397851669
 11
7.040730516564683
 21
1.835422276989743
  0
LINE
  8
0
 10
7.040730516564683
 20
1.835422276989743
 11
5.915619844867101
 21
1.9712114481781051
  0
LINE
  8
0
 10
5.915619844867101
 20
1.9712114481781051
 11
5.8576637103410665
 21
1.9533615718075448
  0
LINE
  8
0
 10
5.8576637103410665
 20
1.9533615718075448
 11
5.180279068094522
 21
1.362060622013625
  0
LINE
  8
0
 10
5.180279068094522
 20
1.362060622013625
 11
3.718993037595758
 21
1.2946736275883246
  0
LINE
  8
0
 10
3.718993037595758
 20
1.2946736275883246
 11
2.3805398405725593
 21
3.136896409367897
  0
LINE
  8
0
 10
2.3805398405725593
 20
3.136896409367897
 11
2.8961908978011075
 21
4.505838284367559
  0
LINE
  8
0
 10
2.8961908978011075
 20
4.505838284367559
 11
3.6678748853769148
 21
4.967347320138023
  0
LINE
  8
0
 10
3.6678748853769148
 20
4.967347320138023
 11
3.7027605571110267
 21
5.0169509643922945
  0
LINE
  8
0
 10
3.7027605571110267
 20
5.0169509643922945
 11
3.9212956991171777
 21
6.128955961812776
  0
LINE
  8
0
 10
3.9212956991171777
 20
6.128955961812776
 11
3.452716001866781
 21
8.177885872647208
  0
LINE
  8
0
 10
3.452716001866781
 20
8.177885872647208
 11
2.754168600633706
 21
8.476459360775358
  0
LINE
  8
0
 10
2.754168600633706
 20
8.476459360775358
 11
2.0135347886124437
 21
8.645504195281912
  0
LINE
  8
0
 10
2.0135347886124437
 20
8.645504195281912
 11
0.43011506574840697
 21
7.263309312701178
  0
LINE
  8
0
 10
0.43011506574840697
 20
7.263309312701178
 11
-0.046706428459768405
 21
6.235226638379267
  0
LINE
  8
0
 10
-0.046706428459768405
 20
6.235226638379267
 11
-0.04763961771930918
 21
6.17459116383301
  0
LINE
  8
0
 10
-0.04763961771930918
 20
6.17459116383301
 11
0.30539763749093496
 21
5.347638043509802
  0
LINE
  8
0
 10
0.30539763749093496
 20
5.347638043509802
 11
-0.08207573941416381
 21
3.9370487155556066
  0
LINE
  8
0
 10
-0.08207573941416381
 20
3.9370487155556066
 11
-2.247738504548659
 21
3.2333822277651905
  0
LINE
  8
0
 10
-2.247738504548659
 20
3.2333822277651905
 11
-3.3903346553453635
 21
4.146821829563288
  0
LINE
  8
0
 10
-3.3903346553453635
 20
4.146821829563288
 11
-3.5907923646960063
 21
5.023351049578557
  0
LINE
  8
0
 10
-3.5907923646960063
 20
5.023351049578557
 11
-3.627187968369991
 21
5.071857664064117
  0
LINE
  8
0
 10
-3.627187968369991
 20
5.071857664064117
 11
-4.617236494571471
 21
5.623325376941351
  0
LINE
  8
0
 10
-4.617236494571471
 20
5.623325376941351
 11
-6.7106837273720465
 21
5.810833765198737
  0
LINE
  8
0
 10
-6.7106837273720465
 20
5.810833765198737
 11
-7.210507007206774
 21
5.23873998921638
  0
LINE
  8
0
 10
-7.210507007206774
 20
5.23873998921638
 11
-7.600146633133539
 21
4.586593102778864
  0
LINE
  8
0
 10
-7.600146633133539
 20
4.586593102778864
 11
-6.774904786858773
 21
2.653549749063224
  0
LINE
  8
0
 10
-6.774904786858773
 20
2.653549749063224
 11
-5.944486005148353
 21
1.8823705418990326
  0
LINE
  8
0
 10
-5.944486005148353
 20
1.8823705418990326
 11
-5.887106613302652
 21
1.8627456340760262
  0
LINE
  8
0
 10
-5.887106613302652
 20
1.8627456340760262
 11
-4.991532948041206
 21
1.9429614484074225
  0
LINE
  8
0
 10
-4.991532948041206
 20
1.9429614484074225
 11
-3.769718634205491
 21
1.1385562939891576
  0
LINE
  8
0
 10
-3.769718634205491
 20
1.1385562939891576
 11
-3.7697186342054914
 21
-1.1385562939891551
  0
LINE
  8
0
 10
-3.7697186342054914
 20
-1.1385562939891551
 11
-4.991532948041204
 21
-1.9429614484074238
  0
LINE
  8
0
 10
-4.991532948041204
 20
-1.9429614484074238
 11
-5.887106613302656
 21
-1.8627456340760167
  0
LINE
  8
0
 10
-5.887106613302656
 20
-1.8627456340760167
 11
-5.944486005148361
 21
-1.8823705418990238
  0
LINE
  8
0
 10
-5.944486005148361
 20
-1.8823705418990238
 11
-6.774904786858768
 21
-2.653549749063206
  0
LINE
  8
0
 10
-6.774904786858768
 20
-2.653549749063206
 11
-7.600146633133541
 21
-4.5865931027788625
  0
LINE
  8
0
 10
-7.600146633133541
 20
-4.5865931027788625
 11
-7.210507007206775
 21
-5.238739989216377
  0
LINE
  8
0
 10
-7.210507007206775
 20
-5.238739989216377
 11
-6.710683727372048
 21
-5.810833765198733
  0
LINE
  8
0
 10
-6.710683727372048
 20
-5.810833765198733
 11
-4.6172364945714905
 21
-5.6233253769413505
  0
LINE
  8
0
 10
-4.6172364945714905
 20
-5.6233253769413505
 11
-3.6271879683699964
 21
-5.071857664064106
  0
LINE
  8
0
 10
-3.6271879683699964
 20
-5.071857664064106
 11
-3.590792364696014
 21
-5.023351049578551
  0
LINE
  8
0
 10
-3.590792364696014
 20
-5.023351049578551
 11
-3.390334655345362
 21
-4.14682182956329
  0
LINE
  8
0
 10
-3.390334655345362
 20
-4.14682182956329
 11
-2.2477385045486615
 21
-3.2333822277651896
  0
LINE
  8
0
 10
-2.2477385045486615
 20
-3.2333822277651896
 11
-0.08207573941416645
 21
-3.937048715555606
  0
LINE
  8
0
 10
-0.08207573941416645
 20
-3.937048715555606
 11
0.3053976374909365
 21
-5.347638043509801
  0
LINE
  8
0
 10
0.3053976374909365
 20
-5.347638043509801
 11
-0.04763961771931953
 21
-6.17459116383301
  0
LINE
  8
0
 10
-0.04763961771931953
 20
-6.17459116383301
 11
-0.046706428459778966
 21
-6.235226638379272
  0
LINE
  8
0
 10
-0.046706428459778966
 20
-6.235226638379272
 11
0.430115065748391
 21
-7.263309312701168
  0
LINE
  8
0
 10
0.430115065748391
 20
-7.263309312701168
 11
2.0135347886124406
 21
-8.645504195281914
  0
LINE
  8
0
 10
0.3118675362266391
 20
-1.4672214011007085
 11
9.18454765366783e-17
 21
-1.5
  0
LINE
  8
0
 10
9.18454765366783e-17
 20
-1.5
 11
-0.3118675362266384
 21
-1.4672214011007085
  0
LINE
  8
0
 10
-0.3118675362266384
 20
-1.4672214011007085
 11
-0.6101049646137001
 21
-1.3703181864639014
  0
LINE
  8
0
 10
-0.6101049646137001
 20
-1.3703181864639014
 11
-0.8816778784387099
 21
-1.213525491562421
  0
LINE
  8
0
 10
-0.8816778784387099
 20
-1.213525491562421
 11
-1.114717238216091
 21
-1.0036959095382878
  0
LINE
  8
0
 10
-1.114717238216091
 20
-1.0036959095382878
 11
-1.299038105676658
 21
-0.7500000000000003
  0
LINE
  8
0
 10
-1.299038105676658
 20
-0.7500000000000003
 11
-1.4265847744427305
 21
-0.46352549156242095
  0
LINE
  8
0
 10
-1.4265847744427305
 20
-0.46352549156242095
 11
-1.49178284305241
 21
-0.15679269490147957
  0
LINE
  8
0
 10
-1.49178284305241
 20
-0.15679269490147957
 11
-1.4917828430524098
 21
0.15679269490148126
  0
LINE
  8
0
 10
-1.4917828430524098
 20
0.15679269490148126
 11
-1.4265847744427302
 21
0.46352549156242123
  0
LINE
  8
0
 10
-1.4265847744427302
 20
0.46352549156242123
 11
-1.2990381056766576
 21
0.7500000000000006
  0
LINE
  8
0
 10
-1.2990381056766576
 20
0.7500000000000006
 11
-1.114717238216091
 21
1.0036959095382878
  0
LINE
  8
0
 10
-1.114717238216091
 20
1.0036959095382878
 11
-0.8816778784387097
 21
1.2135254915624214
  0
LINE
  8
0
 10
-0.8816778784387097
 20
1.2135254915624214
 11
-0.6101049646137005
 21
1.3703181864639014
  0
LINE
  8
0
 10
-0.6101049646137005
 20
1.3703181864639014
 11
-0.3118675362266387
 21
1.4672214011007085
  0
LINE
  8
0
 10
-0.3118675362266387
 20
1.4672214011007085
 11
7.579792913117722e-16
 21
1.5
  0
LINE
  8
0
 10
7.579792913117722e-16
 20
1.5
 11
0.3118675362266389
 21
1.4672214011007085
  0
LINE
  8
0
 10
0.3118675362266389
 20
1.4672214011007085
 11
0.6101049646136999
 21
1.3703181864639014
  0
LINE
  8
0
 10
0.6101049646136999
 20
1.3703181864639014
 11
0.8816778784387097
 21
1.213525491562421
  0
LINE
  8
0
 10
0.8816778784387097
 20
1.213525491562421
 11
1.1147172382160917
 21
1.003695909538287
  0
LINE
  8
0
 10
1.1147172382160917
 20
1.003695909538287
 11
1.299038105676658
 21
0.7499999999999998
  0
LINE
  8
0
 10
1.299038105676658
 20
0.7499999999999998
 11
1.4265847744427305
 21
0.4635254915624211
  0
LINE
  8
0
 10
1.4265847744427305
 20
0.4635254915624211
 11
1.49178284305241
 21
0.1567926949014801
  0
LINE
  8
0
 10
1.49178284305241
 20
0.1567926949014801
 11
1.4917828430524098
 21
-0.1567926949014801
  0
LINE
  8
0
 10
1.4917828430524098
 20
-0.1567926949014801
 11
1.4265847744427302
 21
-0.46352549156242107
  0
LINE
  8
0
 10
1.4265847744427302
 20
-0.46352549156242107
 11
1.299038105676658
 21
-0.7500000000000001
  0
LINE
  8
0
 10
1.299038105676658
 20
-0.7500000000000001
 11
1.1147172382160913
 21
-1.0036959095382874
  0
LINE
  8
0
 10
1.1147172382160913
 20
-1.0036959095382874
 11
0.8816778784387098
 21
-1.2135254915624212
  0
LINE
  8
0
 10
0.8816778784387098
 20
-1.2135254915624212
 11
0.6101049646137003
 21
-1.3703181864639014
  0
LINE
  8
0
 10
0.6101049646137003
 20
-1.3703181864639014
 11
0.3118675362266391
 21
-1.4672214011007085
  0
ENDSEC
  0
SECTION
  2
OBJECTS
  0
DICTIONARY
  0
ENDSEC
  0
EOF
