  0
SECTION
  2
BLOCKS
  0
ENDSEC
  0
SECTION
  2
ENTITIES
  0
LINE
  8
0
 10
22.148191987911208
 20
-9.561900976351712
 11
22.5579498200547
 21
-8.73899631731454
  0
LINE
  8
0
 10
22.5579498200547
 20
-8.73899631731454
 11
22.80952241212945
 21
-7.854810369798519
  0
LINE
  8
0
 10
22.80952241212945
 20
-7.854810369798519
 11
22.3112820739302
 21
-7.247239569450388
  0
LINE
  8
0
 10
22.3112820739302
 20
-7.247239569450388
 11
21.405864606251235
 21
-6.385395632236613
  0
LINE
  8
0
 10
21.405864606251235
 20
-6.385395632236613
 11
20.651504675724226
 21
-5.826612034152578
  0
LINE
  8
0
 10
20.651504675724226
 20
-5.826612034152578
 11
20.105170866690685
 21
-5.517889299412971
  0
LINE
  8
0
 10
20.105170866690685
 20
-5.517889299412971
 11
19.812779229380585
 21
-5.3973076921197745
  0
LINE
  8
0
 10
19.812779229380585
 20
-5.3973076921197745
 11
19.410879641617147
 21
-5.286965924063732
  0
LINE
  8
0
 10
19.410879641617147
 20
-5.286965924063732
 11
18.778211278260592
 21
-4.970654359802428
  0
LINE
  8
0
 10
18.778211278260592
 20
-4.970654359802428
 11
18.51504550391493
 21
-4.619340019727455
  0
LINE
  8
0
 10
18.51504550391493
 20
-4.619340019727455
 11
18.93346384396999
 21
-2.3809996007931633
  0
LINE
  8
0
 10
18.93346384396999
 20
-2.3809996007931633
 11
19.30576799784114
 21
-2.148475177689716
  0
LINE
  8
0
 10
19.30576799784114
 20
-2.148475177689716
 11
20.009978593601883
 21
-2.082069601899176
  0
LINE
  8
0
 10
20.009978593601883
 20
-2.082069601899176
 11
20.424598842342885
 21
-2.1243618441674426
  0
LINE
  8
0
 10
20.424598842342885
 20
-2.1243618441674426
 11
20.740805024974794
 21
-2.1175468862306905
  0
LINE
  8
0
 10
20.740805024974794
 20
-2.1175468862306905
 11
21.36176964497044
 21
-2.027030044969895
  0
LINE
  8
0
 10
21.36176964497044
 20
-2.027030044969895
 11
22.267045249172327
 21
-1.7784860957182413
  0
LINE
  8
0
 10
22.267045249172327
 20
-1.7784860957182413
 11
23.422655833672845
 21
-1.3019150728052415
  0
LINE
  8
0
 10
23.422655833672845
 20
-1.3019150728052415
 11
24.106731000857113
 21
-0.9153573440163696
  0
LINE
  8
0
 10
24.106731000857113
 20
-0.9153573440163696
 11
24.19155134996809
 21
1.4812563745995616e-15
  0
LINE
  8
0
 10
24.19155134996809
 20
1.4812563745995616e-15
 11
24.106731000857113
 21
0.9153573440163717
  0
LINE
  8
0
 10
24.106731000857113
 20
0.9153573440163717
 11
23.422655833672856
 21
1.3019150728052353
  0
LINE
  8
0
 10
23.422655833672856
 20
1.3019150728052353
 11
22.267045249172206
 21
1.7784860957182898
  0
LINE
  8
0
 10
22.267045249172206
 20
1.7784860957182898
 11
21.36176964497044
 21
2.0270300449698966
  0
LINE
  8
0
 10
21.36176964497044
 20
2.0270300449698966
 11
20.74080502497477
 21
2.117546886230697
  0
LINE
  8
0
 10
20.74080502497477
 20
2.117546886230697
 11
20.424598842342913
 21
2.124361844167454
  0
LINE
  8
0
 10
20.424598842342913
 20
2.124361844167454
 11
20.009978593601847
 21
2.0820696018994966
  0
LINE
  8
0
 10
20.009978593601847
 20
2.0820696018994966
 11
19.305767997841137
 21
2.1484751776897926
  0
LINE
  8
0
 10
19.305767997841137
 20
2.1484751776897926
 11
18.933463843969992
 21
2.3809996007931633
  0
LINE
  8
0
 10
18.933463843969992
 20
2.3809996007931633
 11
18.515045503914926
 21
4.619340019727453
  0
LINE
  8
0
 10
18.515045503914926
 20
4.619340019727453
 11
18.77821127826057
 21
4.9706543598024995
  0
LINE
  8
0
 10
18.77821127826057
 20
4.9706543598024995
 11
19.410879641617065
 21
5.2869659240640425
  0
LINE
  8
0
 10
19.410879641617065
 20
5.2869659240640425
 11
19.812779229380556
 21
5.3973076921197745
  0
LINE
  8
0
 10
19.812779229380556
 20
5.3973076921197745
 11
20.105170866690703
 21
5.5178892994129844
  0
LINE
  8
0
 10
20.105170866690703
 20
5.5178892994129844
 11
20.651504675724226
 21
5.8266120341525784
  0
LINE
  8
0
 10
20.651504675724226
 20
5.8266120341525784
 11
21.40586460625133
 21
6.3853956322367
  0
LINE
  8
0
 10
21.40586460625133
 20
6.3853956322367
 11
22.31128207393019
 21
7.247239569450379
  0
LINE
  8
0
 10
22.31128207393019
 20
7.247239569450379
 11
22.80952241212945
 21
7.854810369798523
  0
LINE
  8
0
 10
22.80952241212945
 20
7.854810369798523
 11
22.557949820054695
 21
8.738996317314545
  0
LINE
  8
0
 10
22.557949820054695
 20
8.738996317314545
 11
22.148191987911204
 21
9.561900976351714
  0
LINE
  8
0
 10
22.148191987911204
 20
9.561900976351714
 11
21.370670133661537
 21
9.675238870318053
  0
LINE
  8
0
 10
21.370670133661537
 20
9.675238870318053
 11
20.120938045235317
 21
9.702173421514779
  0
LINE
  8
0
 10
20.120938045235317
 20
9.702173421514779
 11
19.187009254011535
 21
9.606910484357961
  0
LINE
  8
0
 10
19.187009254011535
 20
9.606910484357961
 11
18.575278535867895
 21
9.466996631156553
  0
LINE
  8
0
 10
18.575278535867895
 20
9.466996631156553
 11
18.277963205037658
 21
9.359124541904524
  0
LINE
  8
0
 10
18.277963205037658
 20
9.359124541904524
 11
17.906619057401553
 21
9.16991009098026
  0
LINE
  8
0
 10
17.906619057401553
 20
9.16991009098026
 11
17.225973772359794
 21
8.977441237323069
  0
LINE
  8
0
 10
17.225973772359794
 20
8.977441237323069
 11
16.794812977951995
 21
9.05977203165242
  0
LINE
  8
0
 10
16.794812977951995
 20
9.05977203165242
 11
15.596067673147306
 21
10.995812173937205
  0
LINE
  8
0
 10
15.596067673147306
 20
10.995812173937205
 11
15.714553071890158
 21
11.418469482656754
  0
LINE
  8
0
 10
15.714553071890158
 20
11.418469482656754
 11
16.190233834634693
 21
11.941967405892894
  0
LINE
  8
0
 10
16.190233834634693
 20
11.941967405892894
 11
16.525133995090716
 21
12.190040917071855
  0
LINE
  8
0
 10
16.525133995090716
 20
12.190040917071855
 11
16.754221976262375
 21
12.408103959490822
  0
LINE
  8
0
 10
16.754221976262375
 20
12.408103959490822
 11
17.15213956608365
 21
12.893337871690903
  0
LINE
  8
0
 10
17.15213956608365
 20
12.893337871690903
 11
17.653703334265614
 21
13.686894297359432
  0
LINE
  8
0
 10
17.653703334265614
 20
13.686894297359432
 11
18.186646039021408
 21
14.81761434951096
  0
LINE
  8
0
 10
18.186646039021408
 20
14.81761434951096
 11
18.431761429716826
 21
15.56414241816533
  0
LINE
  8
0
 10
18.431761429716826
 20
15.56414241816533
 11
17.87777216902789
 21
16.297742757525494
  0
LINE
  8
0
 10
17.87777216902789
 20
16.297742757525494
 11
17.198416919629395
 21
16.917056897508367
  0
LINE
  8
0
 10
17.198416919629395
 20
16.917056897508367
 11
16.432457013128055
 21
16.741868046045077
  0
LINE
  8
0
 10
16.432457013128055
 20
16.741868046045077
 11
15.257386664322786
 21
16.315528465136854
  0
LINE
  8
0
 10
15.257386664322786
 20
16.315528465136854
 11
14.42093694440984
 21
15.889324429104796
  0
LINE
  8
0
 10
14.42093694440984
 20
15.889324429104796
 11
13.901057751320456
 21
15.53787602260545
  0
LINE
  8
0
 10
13.901057751320456
 20
15.53787602260545
 11
13.66278735520158
 21
15.329885609558008
  0
LINE
  8
0
 10
13.66278735520158
 20
15.329885609558008
 11
13.384871393497653
 21
15.019303410048225
  0
LINE
  8
0
 10
13.384871393497653
 20
15.019303410048225
 11
12.819716336505453
 21
14.593954112136688
  0
LINE
  8
0
 10
12.819716336505453
 20
14.593954112136688
 11
12.387929555990212
 21
14.514972047707161
  0
LINE
  8
0
 10
12.387929555990212
 20
14.514972047707161
 11
10.570754482326812
 21
15.887238964158108
  0
LINE
  8
0
 10
10.570754482326812
 20
15.887238964158108
 11
10.528557395816396
 21
16.324157029954588
  0
LINE
  8
0
 10
10.528557395816396
 20
16.324157029954588
 11
10.783007235102218
 21
16.98414001683015
  0
LINE
  8
0
 10
10.783007235102218
 20
16.98414001683015
 11
11.00567784583534
 21
17.336441568824842
  0
LINE
  8
0
 10
11.00567784583534
 20
17.336441568824842
 11
11.140522569590951
 21
17.622535424161857
  0
LINE
  8
0
 10
11.140522569590951
 20
17.622535424161857
 11
11.336282964757137
 21
18.21874698520588
  0
LINE
  8
0
 10
11.336282964757137
 20
18.21874698520588
 11
11.517311604440204
 21
19.13990204592432
  0
LINE
  8
0
 10
11.517311604440204
 20
19.13990204592432
 11
11.605802680858178
 21
20.386788204434538
  0
LINE
  8
0
 10
11.605802680858178
 20
20.386788204434538
 11
11.56468893230507
 21
21.171450789068533
  0
LINE
  8
0
 10
11.56468893230507
 20
21.171450789068533
 11
10.783102322418468
 21
21.655388729422434
  0
LINE
  8
0
 10
10.783102322418468
 20
21.655388729422434
 11
9.925900346633627
 21
21.987470544008204
  0
LINE
  8
0
 10
9.925900346633627
 20
21.987470544008204
 11
9.27494951758398
 21
21.54741517226034
  0
LINE
  8
0
 10
9.27494951758398
 20
21.54741517226034
 11
8.333240670295396
 21
20.725380982077997
  0
LINE
  8
0
 10
8.333240670295396
 20
20.725380982077997
 11
7.707237191295437
 21
20.025797063914926
  0
LINE
  8
0
 10
7.707237191295437
 20
20.025797063914926
 11
7.349422089037083
 21
19.510279158858232
  0
LINE
  8
0
 10
7.349422089037083
 20
19.510279158858232
 11
7.202376364927269
 21
19.23026067981209
  0
LINE
  8
0
 10
7.202376364927269
 20
19.23026067981209
 11
7.055422679769137
 21
18.840256578755962
  0
LINE
  8
0
 10
7.055422679769137
 20
18.840256578755962
 11
6.682085172905574
 21
18.239472616214854
  0
LINE
  8
0
 10
6.682085172905574
 20
18.239472616214854
 11
6.307987603604622
 21
18.009844658482383
  0
LINE
  8
0
 10
6.307987603604622
 20
18.009844658482383
 11
4.117802324095441
 21
18.63300609803931
  0
LINE
  8
0
 10
4.117802324095441
 20
18.63300609803931
 11
3.920621702687116
 21
19.025176715080327
  0
LINE
  8
0
 10
3.920621702687116
 20
19.025176715080327
 11
3.9194757577634434
 21
19.732510406125797
  0
LINE
  8
0
 10
3.9194757577634434
 20
19.732510406125797
 11
3.999843918933704
 21
20.141459722169042
  0
LINE
  8
0
 10
3.999843918933704
 20
20.141459722169042
 11
4.022233858129667
 21
20.45694582996006
  0
LINE
  8
0
 10
4.022233858129667
 20
20.45694582996006
 11
3.989398532527771
 21
21.083613364806716
  0
LINE
  8
0
 10
3.989398532527771
 20
21.083613364806716
 11
3.8254431228084185
 21
22.007959965328652
  0
LINE
  8
0
 10
3.8254431228084185
 20
22.007959965328652
 11
3.4575313606723515
 21
23.20261334525603
  0
LINE
  8
0
 10
3.4575313606723515
 20
23.20261334525603
 11
3.1357411124319605
 21
23.919437415849355
  0
LINE
  8
0
 10
3.1357411124319605
 20
23.919437415849355
 11
2.2321147559337873
 21
24.088354456759507
  0
LINE
  8
0
 10
2.2321147559337873
 20
24.088354456759507
 11
1.3128359305124626
 21
24.088354456759504
  0
LINE
  8
0
 10
1.3128359305124626
 20
24.088354456759504
 11
0.8648086954207276
 21
23.44286448111261
  0
LINE
  8
0
 10
0.8648086954207276
 20
23.44286448111261
 11
0.2836443476640124
 21
22.33615595408897
  0
LINE
  8
0
 10
0.2836443476640124
 20
22.33615595408897
 11
-0.04736765177899691
 21
21.45767483847111
  0
LINE
  8
0
 10
-0.04736765177899691
 20
21.45767483847111
 11
-0.19479375092440104
 21
20.847710984518297
  0
LINE
  8
0
 10
-0.19479375092440104
 20
20.847710984518297
 11
-0.23075546317563891
 21
20.533482486704603
  0
LINE
  8
0
 10
-0.23075546317563891
 20
20.533482486704603
 11
-0.22689996230888754
 21
20.116728699037086
  0
LINE
  8
0
 10
-0.22689996230888754
 20
20.116728699037086
 11
-0.3579986200073509
 21
19.421649275066446
  0
LINE
  8
0
 10
-0.3579986200073509
 20
19.421649275066446
 11
-0.6238830284137288
 21
19.07238795213524
  0
LINE
  8
0
 10
-0.6238830284137288
 20
19.07238795213524
 11
-2.8912818555353854
 21
18.862282509329244
  0
LINE
  8
0
 10
-2.8912818555353854
 20
18.862282509329244
 11
-3.2168156763048827
 21
19.156740862691002
  0
LINE
  8
0
 10
-3.2168156763048827
 20
19.156740862691002
 11
-3.473402639226208
 21
19.815895923459394
  0
LINE
  8
0
 10
-3.473402639226208
 20
19.815895923459394
 11
-3.5461910931202056
 21
20.226262132353167
  0
LINE
  8
0
 10
-3.5461910931202056
 20
20.226262132353167
 11
-3.6392798238392454
 21
20.52853234557214
  0
LINE
  8
0
 10
-3.6392798238392454
 20
20.52853234557214
 11
-3.8962762775398647
 21
21.101020931155706
  0
LINE
  8
0
 10
-3.8962762775398647
 20
21.101020931155706
 11
-4.3830726500707495
 21
21.90372094109932
  0
LINE
  8
0
 10
-4.3830726500707495
 20
21.90372094109932
 11
-5.157698728614932
 21
22.884796983681767
  0
LINE
  8
0
 10
-5.157698728614932
 20
22.884796983681767
 11
-5.71670592041642
 21
23.436971477441492
  0
LINE
  8
0
 10
-5.71670592041642
 20
23.436971477441492
 11
-6.620332276914611
 21
23.268054436531333
  0
LINE
  8
0
 10
-6.620332276914611
 20
23.268054436531333
 11
-7.477534252699451
 21
22.935972621945563
  0
LINE
  8
0
 10
-7.477534252699451
 20
22.935972621945563
 11
-7.66212933312952
 21
22.17222504039418
  0
LINE
  8
0
 10
-7.66212933312952
 20
22.17222504039418
 11
-7.804259715847
 21
20.930309295587428
  0
LINE
  8
0
 10
-7.804259715847
 20
20.930309295587428
 11
-7.795575231007472
 21
19.991574725010885
  0
LINE
  8
0
 10
-7.795575231007472
 20
19.991574725010885
 11
-7.712701615434122
 21
19.36954392056467
  0
LINE
  8
0
 10
-7.712701615434122
 20
19.36954392056467
 11
-7.632722487316528
 21
19.063543703813377
  0
LINE
  8
0
 10
-7.632722487316528
 20
19.063543703813377
 11
-7.478578507181018
 21
18.67632513787143
  0
LINE
  8
0
 10
-7.478578507181018
 20
18.67632513787143
 11
-7.349732715549461
 21
17.980824580246537
  0
LINE
  8
0
 10
-7.349732715549461
 20
17.980824580246537
 11
-7.471494800389615
 21
17.559099569102255
  0
LINE
  8
0
 10
-7.471494800389615
 20
17.559099569102255
 11
-9.50988239943034
 21
16.544103148218735
  0
LINE
  8
0
 10
-9.50988239943034
 20
16.544103148218735
 11
-9.91980427322092
 21
16.701081005629664
  0
LINE
  8
0
 10
-9.91980427322092
 20
16.701081005629664
 11
-10.397178762999928
 21
17.223034892659932
  0
LINE
  8
0
 10
-10.397178762999928
 20
17.223034892659932
 11
-10.613293347925053
 21
17.57939576397547
  0
LINE
  8
0
 10
-10.613293347925053
 20
17.57939576397547
 11
-10.809288599653025
 21
17.827626815390097
  0
LINE
  8
0
 10
-10.809288599653025
 20
17.827626815390097
 11
-11.255737386313589
 21
18.268618695958754
  0
LINE
  8
0
 10
-11.255737386313589
 20
18.268618695958754
 11
-11.999630174113891
 21
18.841263031066852
  0
LINE
  8
0
 10
-11.999630174113891
 20
18.841263031066852
 11
-13.07635302480752
 21
19.476261980423587
  0
LINE
  8
0
 10
-13.07635302480752
 20
19.476261980423587
 11
-13.797080141351532
 21
19.789212672262966
  0
LINE
  8
0
 10
-13.797080141351532
 20
19.789212672262966
 11
-14.578666751238126
 21
19.305274731909073
  0
LINE
  8
0
 10
-14.578666751238126
 20
19.305274731909073
 11
-15.25802200063662
 21
18.685960591926204
  0
LINE
  8
0
 10
-15.25802200063662
 20
18.685960591926204
 11
-15.154254337916292
 21
17.907103747430288
  0
LINE
  8
0
 10
-15.154254337916292
 20
17.907103747430288
 11
-14.838155259836906
 21
16.697708387869284
  0
LINE
  8
0
 10
-14.838155259836906
 20
16.697708387869284
 11
-14.49094717851481
 21
15.82550166779824
  0
LINE
  8
0
 10
-14.49094717851481
 20
15.82550166779824
 11
-14.188966389224447
 21
15.275412619790767
  0
LINE
  8
0
 10
-14.188966389224447
 20
15.275412619790767
 11
-14.003848045169947
 21
15.018967708979865
  0
LINE
  8
0
 10
-14.003848045169947
 20
15.018967708979865
 11
-13.720233584424257
 21
14.71358037774609
  0
LINE
  8
0
 10
-13.720233584424257
 20
14.71358037774609
 11
-13.348844681581701
 21
14.111589890675823
  0
LINE
  8
0
 10
-13.348844681581701
 20
14.111589890675823
 11
-13.310039798590967
 21
13.67435749093246
  0
LINE
  8
0
 10
-13.310039798590967
 20
13.67435749093246
 11
-14.844120629204705
 21
11.991550982901058
  0
LINE
  8
0
 10
-14.844120629204705
 20
11.991550982901058
 11
-15.283068335505428
 21
11.989847614873478
  0
LINE
  8
0
 10
-15.283068335505428
 20
11.989847614873478
 11
-15.916758282074102
 21
12.30410756347585
  0
LINE
  8
0
 10
-15.916758282074102
 20
12.30410756347585
 11
-16.24701152580396
 21
12.558334586878232
  0
LINE
  8
0
 10
-16.24701152580396
 20
12.558334586878232
 11
-16.51944305374782
 21
12.719001497499237
  0
LINE
  8
0
 10
-16.51944305374782
 20
12.719001497499237
 11
-17.095048790871694
 21
12.968938275961813
  0
LINE
  8
0
 10
-17.095048790871694
 20
12.968938275961813
 11
-17.995571150896744
 21
13.23418814564625
  0
LINE
  8
0
 10
-17.995571150896744
 20
13.23418814564625
 11
-19.228973386426368
 21
13.437349875016002
  0
LINE
  8
0
 10
-19.228973386426368
 20
13.437349875016002
 11
-20.014082236936815
 21
13.468811039882485
  0
LINE
  8
0
 10
-20.014082236936815
 20
13.468811039882485
 11
-20.568071497625752
 21
12.735210700522318
  0
LINE
  8
0
 10
-20.568071497625752
 20
12.735210700522318
 11
-20.97782932976924
 21
11.912306041485147
  0
LINE
  8
0
 10
-20.97782932976924
 20
11.912306041485147
 11
-20.599713321745366
 21
11.223528866688637
  0
LINE
  8
0
 10
-20.599713321745366
 20
11.223528866688637
 11
-19.868075714929187
 21
10.209989437173125
  0
LINE
  8
0
 10
-19.868075714929187
 20
10.209989437173125
 11
-19.22923641245347
 21
9.522106918217458
  0
LINE
  8
0
 10
-19.22923641245347
 20
9.522106918217458
 11
-18.748932628373076
 21
9.11825220073077
  0
LINE
  8
0
 10
-18.748932628373076
 20
9.11825220073077
 11
-18.483676326522385
 21
8.945996902075583
  0
LINE
  8
0
 10
-18.483676326522385
 20
8.945996902075583
 11
-18.1088950896522
 21
8.763685056842723
  0
LINE
  8
0
 10
-18.1088950896522
 20
8.763685056842723
 11
-17.54512120486449
 21
8.33650679135036
  0
LINE
  8
0
 10
-17.54512120486449
 20
8.33650679135036
 11
-17.35099016851604
 21
7.94281766138162
  0
LINE
  8
0
 10
-17.35099016851604
 20
7.94281766138162
 11
-18.173578113893072
 21
5.8194734098647425
  0
LINE
  8
0
 10
-18.173578113893072
 20
5.8194734098647425
 11
-18.582269332674827
 21
5.659318865689467
  0
LINE
  8
0
 10
-18.582269332674827
 20
5.659318865689467
 11
-19.286691397351852
 21
5.723442328430702
  0
LINE
  8
0
 10
-19.286691397351852
 20
5.723442328430702
 11
-19.686480769324326
 21
5.841200735688868
  0
LINE
  8
0
 10
-19.686480769324326
 20
5.841200735688868
 11
-19.99855518604005
 21
5.892604548950795
  0
LINE
  8
0
 10
-19.99855518604005
 20
5.892604548950795
 11
-20.625579129287157
 21
5.917730878428425
  0
LINE
  8
0
 10
-20.625579129287157
 20
5.917730878428425
 11
-21.56111052684892
 21
5.83976281798805
  0
LINE
  8
0
 10
-21.56111052684892
 20
5.83976281798805
 11
-22.784614340788533
 21
5.5836492100614254
  0
LINE
  8
0
 10
-22.784614340788533
 20
5.5836492100614254
 11
-23.528071624565662
 21
5.329371843307457
  0
LINE
  8
0
 10
-23.528071624565662
 20
5.329371843307457
 11
-23.779644216640417
 21
4.445185895791431
  0
LINE
  8
0
 10
-23.779644216640417
 20
4.445185895791431
 11
-23.86446456575139
 21
3.529828551775059
  0
LINE
  8
0
 10
-23.86446456575139
 20
3.529828551775059
 11
-23.263066874520725
 21
3.024154220780305
  0
LINE
  8
0
 10
-23.263066874520725
 20
3.024154220780305
 11
-22.214702451912213
 21
2.3433548374822126
  0
LINE
  8
0
 10
-22.214702451912213
 20
2.3433548374822126
 11
-21.370510716012998
 21
1.932698865515504
  0
LINE
  8
0
 10
-21.370510716012998
 20
1.932698865515504
 11
-20.77675162463777
 21
1.729621295982425
  0
LINE
  8
0
 10
-20.77675162463777
 20
1.729621295982425
 11
-20.467181698391734
 21
1.6648196420658934
  0
LINE
  8
0
 10
-20.467181698391734
 20
1.6648196420658934
 11
-20.0518499681709
 21
1.630205507757453
  0
LINE
  8
0
 10
-20.0518499681709
 20
1.630205507757453
 11
-19.371831888557548
 21
1.4355322556742218
  0
LINE
  8
0
 10
-19.371831888557548
 20
1.4355322556742218
 11
-19.048593171027456
 21
1.1385562939891607
  0
LINE
  8
0
 10
-19.048593171027456
 20
1.1385562939891607
 11
-19.048593171027456
 21
-1.1385562939891696
  0
LINE
  8
0
 10
-19.048593171027456
 20
-1.1385562939891696
 11
-19.371831888557537
 21
-1.4355322556743062
  0
LINE
  8
0
 10
-19.371831888557537
 20
-1.4355322556743062
 11
-20.051849968170878
 21
-1.6302055077577844
  0
LINE
  8
0
 10
-20.051849968170878
 20
-1.6302055077577844
 11
-20.467181698391705
 21
-1.6648196420659094
  0
LINE
  8
0
 10
-20.467181698391705
 20
-1.6648196420659094
 11
-20.77675162463779
 21
-1.729621295982446
  0
LINE
  8
0
 10
-20.77675162463779
 20
-1.729621295982446
 11
-21.370510716012998
 21
-1.9326988655155157
  0
LINE
  8
0
 10
-21.370510716012998
 20
-1.9326988655155157
 11
-22.214702451912324
 21
-2.3433548374822935
  0
LINE
  8
0
 10
-22.214702451912324
 20
-2.3433548374822935
 11
-23.26306687452071
 21
-3.024154220780308
  0
LINE
  8
0
 10
-23.26306687452071
 20
-3.024154220780308
 11
-23.86446456575139
 21
-3.529828551775074
  0
LINE
  8
0
 10
-23.86446456575139
 20
-3.529828551775074
 11
-23.779644216640413
 21
-4.4451858957914325
  0
LINE
  8
0
 10
-23.779644216640413
 20
-4.4451858957914325
 11
-23.528071624565662
 21
-5.3293718433074515
  0
LINE
  8
0
 10
-23.528071624565662
 20
-5.3293718433074515
 11
-22.784614340788547
 21
-5.583649210061413
  0
LINE
  8
0
 10
-22.784614340788547
 20
-5.583649210061413
 11
-21.561110526848793
 21
-5.839762817988067
  0
LINE
  8
0
 10
-21.561110526848793
 20
-5.839762817988067
 11
-20.625579129287157
 21
-5.9177308784284195
  0
LINE
  8
0
 10
-20.625579129287157
 20
-5.9177308784284195
 11
-19.99855518604003
 21
-5.892604548950788
  0
LINE
  8
0
 10
-19.99855518604003
 20
-5.892604548950788
 11
-19.68648076932436
 21
-5.8412007356888775
  0
LINE
  8
0
 10
-19.68648076932436
 20
-5.8412007356888775
 11
-19.28669139735176
 21
-5.723442328431002
  0
LINE
  8
0
 10
-19.28669139735176
 20
-5.723442328431002
 11
-18.582269332674812
 21
-5.659318865689533
  0
LINE
  8
0
 10
-18.582269332674812
 20
-5.659318865689533
 11
-18.173578113893075
 21
-5.819473409864736
  0
LINE
  8
0
 10
-18.173578113893075
 20
-5.819473409864736
 11
-17.35099016851604
 21
-7.9428176613816115
  0
LINE
  8
0
 10
-17.35099016851604
 20
-7.9428176613816115
 11
-17.545121204864454
 21
-8.33650679135042
  0
LINE
  8
0
 10
-17.545121204864454
 20
-8.33650679135042
 11
-18.10889508965207
 21
-8.76368505684301
  0
LINE
  8
0
 10
-18.10889508965207
 20
-8.76368505684301
 11
-18.483676326522357
 21
-8.945996902075573
  0
LINE
  8
0
 10
-18.483676326522357
 20
-8.945996902075573
 11
-18.74893262837309
 21
-9.118252200730783
  0
LINE
  8
0
 10
-18.74893262837309
 20
-9.118252200730783
 11
-19.229236412453474
 21
-9.522106918217451
  0
LINE
  8
0
 10
-19.229236412453474
 20
-9.522106918217451
 11
-19.868075714929272
 21
-10.209989437173224
  0
LINE
  8
0
 10
-19.868075714929272
 20
-10.209989437173224
 11
-20.599713321745362
 21
-11.22352886668862
  0
LINE
  8
0
 10
-20.599713321745362
 20
-11.22352886668862
 11
-20.977829329769243
 21
-11.912306041485142
  0
LINE
  8
0
 10
-20.977829329769243
 20
-11.912306041485142
 11
-20.568071497625752
 21
-12.735210700522318
  0
LINE
  8
0
 10
-20.568071497625752
 20
-12.735210700522318
 11
-20.014082236936822
 21
-13.46881103988248
  0
LINE
  8
0
 10
-20.014082236936822
 20
-13.46881103988248
 11
-19.22897338642639
 21
-13.437349875015995
  0
LINE
  8
0
 10
-19.22897338642639
 20
-13.437349875015995
 11
-17.995571150896623
 21
-13.234188145646222
  0
LINE
  8
0
 10
-17.995571150896623
 20
-13.234188145646222
 11
-17.0950487908717
 21
-12.968938275961811
  0
LINE
  8
0
 10
-17.0950487908717
 20
-12.968938275961811
 11
-16.519443053747807
 21
-12.719001497499226
  0
LINE
  8
0
 10
-16.519443053747807
 20
-12.719001497499226
 11
-16.247011525803984
 21
-12.558334586878251
  0
LINE
  8
0
 10
-16.247011525803984
 20
-12.558334586878251
 11
-15.91675828207391
 21
-12.304107563476098
  0
LINE
  8
0
 10
-15.91675828207391
 20
-12.304107563476098
 11
-15.283068335505394
 21
-11.989847614873538
  0
LINE
  8
0
 10
-15.283068335505394
 20
-11.989847614873538
 11
-14.844120629204713
 21
-11.991550982901057
  0
LINE
  8
0
 10
-14.844120629204713
 20
-11.991550982901057
 11
-13.310039798590973
 21
-13.67435749093245
  0
LINE
  8
0
 10
-13.310039798590973
 20
-13.67435749093245
 11
-13.348844681581651
 21
-14.111589890675868
  0
LINE
  8
0
 10
-13.348844681581651
 20
-14.111589890675868
 11
-13.72023358442403
 21
-14.713580377746306
  0
LINE
  8
0
 10
-13.72023358442403
 20
-14.713580377746306
 11
-14.003848045169926
 21
-15.018967708979845
  0
LINE
  8
0
 10
-14.003848045169926
 20
-15.018967708979845
 11
-14.188966389224461
 21
-15.275412619790785
  0
LINE
  8
0
 10
-14.188966389224461
 20
-15.275412619790785
 11
-14.490947178514816
 21
-15.825501667798235
  0
LINE
  8
0
 10
-14.490947178514816
 20
-15.825501667798235
 11
-14.838155259836947
 21
-16.6977083878694
  0
LINE
  8
0
 10
-14.838155259836947
 20
-16.6977083878694
 11
-15.154254337916296
 21
-17.90710374743027
  0
LINE
  8
0
 10
-15.154254337916296
 20
-17.90710374743027
 11
-15.258022000636624
 21
-18.6859605919262
  0
LINE
  8
0
 10
-15.258022000636624
 20
-18.6859605919262
 11
-14.578666751238115
 21
-19.30527473190908
  0
LINE
  8
0
 10
-14.578666751238115
 20
-19.30527473190908
 11
-13.797080141351511
 21
-19.789212672262984
  0
LINE
  8
0
 10
-13.797080141351511
 20
-19.789212672262984
 11
-13.076353024807512
 21
-19.476261980423605
  0
LINE
  8
0
 10
-13.076353024807512
 20
-19.476261980423605
 11
-11.99963017411376
 21
-18.841263031066795
  0
LINE
  8
0
 10
-11.99963017411376
 20
-18.841263031066795
 11
-11.255737386313571
 21
-18.268618695958768
  0
LINE
  8
0
 10
-11.255737386313571
 20
-18.268618695958768
 11
-10.809288599652987
 21
-17.827626815390094
  0
LINE
  8
0
 10
-10.809288599652987
 20
-17.827626815390094
 11
-10.613293347925042
 21
-17.57939576397551
  0
LINE
  8
0
 10
-10.613293347925042
 20
-17.57939576397551
 11
-10.397178762999634
 21
-17.223034892660106
  0
LINE
  8
0
 10
-10.397178762999634
 20
-17.223034892660106
 11
-9.919804273220839
 21
-16.701081005629717
  0
LINE
  8
0
 10
-9.919804273220839
 20
-16.701081005629717
 11
-9.509882399430326
 21
-16.544103148218746
  0
LINE
  8
0
 10
-9.509882399430326
 20
-16.544103148218746
 11
-7.471494800389598
 21
-17.559099569102262
  0
LINE
  8
0
 10
-7.471494800389598
 20
-17.559099569102262
 11
-7.349732715549373
 21
-17.98082458024657
  0
LINE
  8
0
 10
-7.349732715549373
 20
-17.98082458024657
 11
-7.4785785071807025
 21
-18.676325137871558
  0
LINE
  8
0
 10
-7.4785785071807025
 20
-18.676325137871558
 11
-7.632722487316491
 21
-19.06354370381336
  0
LINE
  8
0
 10
-7.632722487316491
 20
-19.06354370381336
 11
-7.7127016154341055
 21
-19.369543920564706
  0
LINE
  8
0
 10
-7.7127016154341055
 20
-19.369543920564706
 11
-7.795575231007453
 21
-19.991574725010892
  0
LINE
  8
0
 10
-7.795575231007453
 20
-19.991574725010892
 11
-7.8042597158469675
 21
-20.930309295587566
  0
LINE
  8
0
 10
-7.8042597158469675
 20
-20.930309295587566
 11
-7.662129333129501
 21
-22.172225040394174
  0
LINE
  8
0
 10
-7.662129333129501
 20
-22.172225040394174
 11
-7.477534252699426
 21
-22.935972621945574
  0
LINE
  8
0
 10
-7.477534252699426
 20
-22.935972621945574
 11
-6.620332276914587
 21
-23.26805443653134
  0
LINE
  8
0
 10
-6.620332276914587
 20
-23.26805443653134
 11
-5.716705920416411
 21
-23.436971477441492
  0
LINE
  8
0
 10
-5.716705920416411
 20
-23.436971477441492
 11
-5.157698728614935
 21
-22.884796983681774
  0
LINE
  8
0
 10
-5.157698728614935
 20
-22.884796983681774
 11
-4.3830726500706625
 21
-21.903720941099213
  0
LINE
  8
0
 10
-4.3830726500706625
 20
-21.903720941099213
 11
-3.8962762775398576
 21
-21.10102093115571
  0
LINE
  8
0
 10
-3.8962762775398576
 20
-21.10102093115571
 11
-3.6392798238392277
 21
-20.52853234557212
  0
LINE
  8
0
 10
-3.6392798238392277
 20
-20.52853234557212
 11
-3.546191093120197
 21
-20.2262621323532
  0
LINE
  8
0
 10
-3.546191093120197
 20
-20.2262621323532
 11
-3.473402639225885
 21
-19.815895923459447
  0
LINE
  8
0
 10
-3.473402639225885
 20
-19.815895923459447
 11
-3.216815676304805
 21
-19.156740862691017
  0
LINE
  8
0
 10
-3.216815676304805
 20
-19.156740862691017
 11
-2.8912818555353805
 21
-18.862282509329244
  0
LINE
  8
0
 10
-2.8912818555353805
 20
-18.862282509329244
 11
-0.6238830284137237
 21
-19.072387952135237
  0
LINE
  8
0
 10
-0.6238830284137237
 20
-19.072387952135237
 11
-0.3579986200072706
 21
-19.421649275066443
  0
LINE
  8
0
 10
-0.3579986200072706
 20
-19.421649275066443
 11
-0.22689996230856113
 21
-20.116728699037093
  0
LINE
  8
0
 10
-0.22689996230856113
 20
-20.116728699037093
 11
-0.23075546317562487
 21
-20.533482486704575
  0
LINE
  8
0
 10
-0.23075546317562487
 20
-20.533482486704575
 11
-0.19479375092438783
 21
-20.84771098451832
  0
LINE
  8
0
 10
-0.19479375092438783
 20
-20.84771098451832
 11
-0.04736765177899007
 21
-21.457674838471107
  0
LINE
  8
0
 10
-0.04736765177899007
 20
-21.457674838471107
 11
0.28364434766407826
 21
-22.336155954089083
  0
LINE
  8
0
 10
0.28364434766407826
 20
-22.336155954089083
 11
0.8648086954207267
 21
-23.4428644811126
  0
LINE
  8
0
 10
0.8648086954207267
 20
-23.4428644811126
 11
1.3128359305124704
 21
-24.088354456759507
  0
LINE
  8
0
 10
1.3128359305124704
 20
-24.088354456759507
 11
2.2321147559337713
 21
-24.088354456759507
  0
LINE
  8
0
 10
2.2321147559337713
 20
-24.088354456759507
 11
3.135741112431949
 21
-23.919437415849355
  0
LINE
  8
0
 10
3.135741112431949
 20
-23.919437415849355
 11
3.457531360672331
 21
-23.202613345256047
  0
LINE
  8
0
 10
3.457531360672331
 20
-23.202613345256047
 11
3.825443122808442
 21
-22.007959965328528
  0
LINE
  8
0
 10
3.825443122808442
 20
-22.007959965328528
 11
3.9893985325277597
 21
-21.083613364806723
  0
LINE
  8
0
 10
3.9893985325277597
 20
-21.083613364806723
 11
4.022233858129658
 21
-20.45694582996004
  0
LINE
  8
0
 10
4.022233858129658
 20
-20.45694582996004
 11
3.999843918933706
 21
-20.14145972216907
  0
LINE
  8
0
 10
3.999843918933706
 20
-20.14145972216907
 11
3.9194757577637467
 21
-19.732510406125733
  0
LINE
  8
0
 10
3.9194757577637467
 20
-19.732510406125733
 11
3.9206217026871797
 21
-19.02517671508032
  0
LINE
  8
0
 10
3.9206217026871797
 20
-19.02517671508032
 11
4.117802324095431
 21
-18.633006098039317
  0
LINE
  8
0
 10
4.117802324095431
 20
-18.633006098039317
 11
6.3079876036046105
 21
-18.00984465848239
  0
LINE
  8
0
 10
6.3079876036046105
 20
-18.00984465848239
 11
6.68208517290563
 21
-18.239472616214833
  0
LINE
  8
0
 10
6.68208517290563
 20
-18.239472616214833
 11
7.055422679769428
 21
-18.84025657875586
  0
LINE
  8
0
 10
7.055422679769428
 20
-18.84025657875586
 11
7.202376364927255
 21
-19.230260679812066
  0
LINE
  8
0
 10
7.202376364927255
 20
-19.230260679812066
 11
7.349422089037085
 21
-19.510279158858253
  0
LINE
  8
0
 10
7.349422089037085
 20
-19.510279158858253
 11
7.707237191295426
 21
-20.02579706391493
  0
LINE
  8
0
 10
7.707237191295426
 20
-20.02579706391493
 11
8.333240670295483
 21
-20.725380982078093
  0
LINE
  8
0
 10
8.333240670295483
 20
-20.725380982078093
 11
9.274949517583957
 21
-21.54741517226034
  0
LINE
  8
0
 10
9.274949517583957
 20
-21.54741517226034
 11
9.925900346633618
 21
-21.98747054400821
  0
LINE
  8
0
 10
9.925900346633618
 20
-21.98747054400821
 11
10.783102322418477
 21
-21.655388729422434
  0
LINE
  8
0
 10
10.783102322418477
 20
-21.655388729422434
 11
11.56468893230508
 21
-21.17145078906853
  0
LINE
  8
0
 10
11.56468893230508
 20
-21.17145078906853
 11
11.605802680858186
 21
-20.386788204434545
  0
LINE
  8
0
 10
11.605802680858186
 20
-20.386788204434545
 11
11.5173116044402
 21
-19.139902045924188
  0
LINE
  8
0
 10
11.5173116044402
 20
-19.139902045924188
 11
11.336282964757146
 21
-18.218746985205875
  0
LINE
  8
0
 10
11.336282964757146
 20
-18.218746985205875
 11
11.140522569590955
 21
-17.622535424161832
  0
LINE
  8
0
 10
11.140522569590955
 20
-17.622535424161832
 11
11.00567784583537
 21
-17.33644156882486
  0
LINE
  8
0
 10
11.00567784583537
 20
-17.33644156882486
 11
10.783007235102495
 21
-16.984140016829976
  0
LINE
  8
0
 10
10.783007235102495
 20
-16.984140016829976
 11
10.528557395816469
 21
-16.32415702995455
  0
LINE
  8
0
 10
10.528557395816469
 20
-16.32415702995455
 11
10.570754482326821
 21
-15.887238964158106
  0
LINE
  8
0
 10
10.570754482326821
 20
-15.887238964158106
 11
12.387929555990215
 21
-14.514972047707158
  0
LINE
  8
0
 10
12.387929555990215
 20
-14.514972047707158
 11
12.819716336505511
 21
-14.593954112136633
  0
LINE
  8
0
 10
12.819716336505511
 20
-14.593954112136633
 11
13.384871393497901
 21
-15.01930341004801
  0
LINE
  8
0
 10
13.384871393497901
 20
-15.01930341004801
 11
13.662787355201573
 21
-15.32988560955798
  0
LINE
  8
0
 10
13.662787355201573
 20
-15.32988560955798
 11
13.901057751320481
 21
-15.537876022605461
  0
LINE
  8
0
 10
13.901057751320481
 20
-15.537876022605461
 11
14.420936944409847
 21
-15.889324429104793
  0
LINE
  8
0
 10
14.420936944409847
 20
-15.889324429104793
 11
15.257386664322913
 21
-16.315528465136897
  0
LINE
  8
0
 10
15.257386664322913
 20
-16.315528465136897
 11
16.432457013128044
 21
-16.74186804604507
  0
LINE
  8
0
 10
16.432457013128044
 20
-16.74186804604507
 11
17.1984169196294
 21
-16.917056897508363
  0
LINE
  8
0
 10
17.1984169196294
 20
-16.917056897508363
 11
17.877772169027892
 21
-16.297742757525494
  0
LINE
  8
0
 10
17.877772169027892
 20
-16.297742757525494
 11
18.431761429716826
 21
-15.56414241816533
  0
LINE
  8
0
 10
18.431761429716826
 20
-15.56414241816533
 11
18.186646039021408
 21
-14.81761434951097
  0
LINE
  8
0
 10
18.186646039021408
 20
-14.81761434951097
 11
17.653703334265558
 21
-13.686894297359313
  0
LINE
  8
0
 10
17.653703334265558
 20
-13.686894297359313
 11
17.15213956608365
 21
-12.893337871690902
  0
LINE
  8
0
 10
17.15213956608365
 20
-12.893337871690902
 11
16.75422197626236
 21
-12.4081039594908
  0
LINE
  8
0
 10
16.75422197626236
 20
-12.4081039594908
 11
16.525133995090744
 21
-12.190040917071864
  0
LINE
  8
0
 10
16.525133995090744
 20
-12.190040917071864
 11
16.190233834634878
 21
-11.941967405892632
  0
LINE
  8
0
 10
16.190233834634878
 20
-11.941967405892632
 11
15.714553071890206
 21
-11.418469482656695
  0
LINE
  8
0
 10
15.714553071890206
 20
-11.418469482656695
 11
15.596067673147306
 21
-10.995812173937205
  0
LINE
  8
0
 10
15.596067673147306
 20
-10.995812173937205
 11
16.79481297795199
 21
-9.05977203165242
  0
LINE
  8
0
 10
16.79481297795199
 20
-9.05977203165242
 11
17.225973772359822
 21
-8.977441237323
  0
LINE
  8
0
 10
17.225973772359822
 20
-8.977441237323
 11
17.906619057401706
 21
-9.169910090979974
  0
LINE
  8
0
 10
17.906619057401706
 20
-9.169910090979974
 11
18.277963205037633
 21
-9.359124541904505
  0
LINE
  8
0
 10
18.277963205037633
 20
-9.359124541904505
 11
18.57527853586792
 21
-9.466996631156555
  0
LINE
  8
0
 10
18.57527853586792
 20
-9.466996631156555
 11
19.187009254011535
 21
-9.60691048435796
  0
LINE
  8
0
 10
19.187009254011535
 20
-9.60691048435796
 11
20.120938045235444
 21
-9.702173421514779
  0
LINE
  8
0
 10
20.120938045235444
 20
-9.702173421514779
 11
21.370670133661523
 21
-9.675238870318056
  0
LINE
  8
0
 10
21.370670133661523
 20
-9.675238870318056
 11
22.148191987911208
 21
-9.561900976351712
  0
LINE
  8
0
 10
0.3118675362266391
 20
-1.4672214011007085
 11
9.18454765366783e-17
 21
-1.5
  0
LINE
  8
0
 10
9.18454765366783e-17
 20
-1.5
 11
-0.3118675362266384
 21
-1.4672214011007085
  0
LINE
  8
0
 10
-0.3118675362266384
 20
-1.4672214011007085
 11
-0.6101049646137001
 21
-1.3703181864639014
  0
LINE
  8
0
 10
-0.6101049646137001
 20
-1.3703181864639014
 11
-0.8816778784387099
 21
-1.213525491562421
  0
LINE
  8
0
 10
-0.8816778784387099
 20
-1.213525491562421
 11
-1.114717238216091
 21
-1.0036959095382878
  0
LINE
  8
0
 10
-1.114717238216091
 20
-1.0036959095382878
 11
-1.299038105676658
 21
-0.7500000000000003
  0
LINE
  8
0
 10
-1.299038105676658
 20
-0.7500000000000003
 11
-1.4265847744427305
 21
-0.46352549156242095
  0
LINE
  8
0
 10
-1.4265847744427305
 20
-0.46352549156242095
 11
-1.49178284305241
 21
-0.15679269490147957
  0
LINE
  8
0
 10
-1.49178284305241
 20
-0.15679269490147957
 11
-1.4917828430524098
 21
0.15679269490148126
  0
LINE
  8
0
 10
-1.4917828430524098
 20
0.15679269490148126
 11
-1.4265847744427302
 21
0.46352549156242123
  0
LINE
  8
0
 10
-1.4265847744427302
 20
0.46352549156242123
 11
-1.2990381056766576
 21
0.7500000000000006
  0
LINE
  8
0
 10
-1.2990381056766576
 20
0.7500000000000006
 11
-1.114717238216091
 21
1.0036959095382878
  0
LINE
  8
0
 10
-1.114717238216091
 20
1.0036959095382878
 11
-0.8816778784387097
 21
1.2135254915624214
  0
LINE
  8
0
 10
-0.8816778784387097
 20
1.2135254915624214
 11
-0.6101049646137005
 21
1.3703181864639014
  0
LINE
  8
0
 10
-0.6101049646137005
 20
1.3703181864639014
 11
-0.3118675362266387
 21
1.4672214011007085
  0
LINE
  8
0
 10
-0.3118675362266387
 20
1.4672214011007085
 11
7.579792913117722e-16
 21
1.5
  0
LINE
  8
0
 10
7.579792913117722e-16
 20
1.5
 11
0.3118675362266389
 21
1.4672214011007085
  0
LINE
  8
0
 10
0.3118675362266389
 20
1.4672214011007085
 11
0.6101049646136999
 21
1.3703181864639014
  0
LINE
  8
0
 10
0.6101049646136999
 20
1.3703181864639014
 11
0.8816778784387097
 21
1.213525491562421
  0
LINE
  8
0
 10
0.8816778784387097
 20
1.213525491562421
 11
1.1147172382160917
 21
1.003695909538287
  0
LINE
  8
0
 10
1.1147172382160917
 20
1.003695909538287
 11
1.299038105676658
 21
0.7499999999999998
  0
LINE
  8
0
 10
1.299038105676658
 20
0.7499999999999998
 11
1.4265847744427305
 21
0.4635254915624211
  0
LINE
  8
0
 10
1.4265847744427305
 20
0.4635254915624211
 11
1.49178284305241
 21
0.1567926949014801
  0
LINE
  8
0
 10
1.49178284305241
 20
0.1567926949014801
 11
1.4917828430524098
 21
-0.1567926949014801
  0
LINE
  8
0
 10
1.4917828430524098
 20
-0.1567926949014801
 11
1.4265847744427302
 21
-0.46352549156242107
  0
LINE
  8
0
 10
1.4265847744427302
 20
-0.46352549156242107
 11
1.299038105676658
 21
-0.7500000000000001
  0
LINE
  8
0
 10
1.299038105676658
 20
-0.7500000000000001
 11
1.1147172382160913
 21
-1.0036959095382874
  0
LINE
  8
0
 10
1.1147172382160913
 20
-1.0036959095382874
 11
0.8816778784387098
 21
-1.2135254915624212
  0
LINE
  8
0
 10
0.8816778784387098
 20
-1.2135254915624212
 11
0.6101049646137003
 21
-1.3703181864639014
  0
LINE
  8
0
 10
0.6101049646137003
 20
-1.3703181864639014
 11
0.3118675362266391
 21
-1.4672214011007085
  0
ENDSEC
  0
SECTION
  2
OBJECTS
  0
DICTIONARY
  0
ENDSEC
  0
EOF
