  0
SECTION
  2
BLOCKS
  0
ENDSEC
  0
SECTION
  2
ENTITIES
  0
LINE
  8
0
 10
77.0604968823299
 20
-9.292789686032409
 11
77.22760968836695
 21
-8.255561225711865
  0
LINE
  8
0
 10
77.22760968836695
 20
-8.255561225711865
 11
77.28352513851026
 21
-7.206445869196742
  0
LINE
  8
0
 10
77.28352513851026
 20
-7.206445869196742
 11
76.36485822754658
 21
-6.717277093015455
  0
LINE
  8
0
 10
76.36485822754658
 20
-6.717277093015455
 11
75.4893064568141
 21
-6.29023505128951
  0
LINE
  8
0
 10
75.4893064568141
 20
-6.29023505128951
 11
74.68100460893433
 21
-5.930922578038654
  0
LINE
  8
0
 10
74.68100460893433
 20
-5.930922578038654
 11
73.94355390903853
 21
-5.633982254514602
  0
LINE
  8
0
 10
73.94355390903853
 20
-5.633982254514602
 11
73.28025847661924
 21
-5.393890069412448
  0
LINE
  8
0
 10
73.28025847661924
 20
-5.393890069412448
 11
72.62809485115723
 21
-5.1836896798082615
  0
LINE
  8
0
 10
72.62809485115723
 20
-5.1836896798082615
 11
72.44569481599714
 21
-5.091804146470423
  0
LINE
  8
0
 10
72.44569481599714
 20
-5.091804146470423
 11
72.36126810203133
 21
-4.996862431444916
  0
LINE
  8
0
 10
72.36126810203133
 20
-4.996862431444916
 11
72.48246098632438
 21
-2.7229772049810856
  0
LINE
  8
0
 10
72.48246098632438
 20
-2.7229772049810856
 11
72.57650109191108
 21
-2.637547363447938
  0
LINE
  8
0
 10
72.57650109191108
 20
-2.637547363447938
 11
72.76763462805707
 21
-2.5655703155703105
  0
LINE
  8
0
 10
72.76763462805707
 20
-2.5655703155703105
 11
73.43844654837079
 21
-2.4258814980961665
  0
LINE
  8
0
 10
73.43844654837079
 20
-2.4258814980961665
 11
74.12350451487949
 21
-2.2576534667159933
  0
LINE
  8
0
 10
74.12350451487949
 20
-2.2576534667159933
 11
74.88834023124173
 21
-2.0407815748352887
  0
LINE
  8
0
 10
74.88834023124173
 20
-2.0407815748352887
 11
75.73025546287799
 21
-1.7694218993995785
  0
LINE
  8
0
 10
75.73025546287799
 20
-1.7694218993995785
 11
76.64623884503106
 21
-1.4378645857362689
  0
LINE
  8
0
 10
76.64623884503106
 20
-1.4378645857362689
 11
77.6116967787016
 21
-1.0491153565151285
  0
LINE
  8
0
 10
77.6116967787016
 20
-1.0491153565151285
 11
77.66761222884487
 21
1.0658141036401503e-14
  0
LINE
  8
0
 10
77.66761222884487
 20
1.0658141036401503e-14
 11
77.61169677870167
 21
1.0491153565151334
  0
LINE
  8
0
 10
77.61169677870167
 20
1.0491153565151334
 11
76.6462388450388
 21
1.4378645857331638
  0
LINE
  8
0
 10
76.6462388450388
 20
1.4378645857331638
 11
75.73025546288086
 21
1.7694218993981823
  0
LINE
  8
0
 10
75.73025546288086
 20
1.7694218993981823
 11
74.88834023124143
 21
2.0407815748347344
  0
LINE
  8
0
 10
74.88834023124143
 20
2.0407815748347344
 11
74.12350451487909
 21
2.2576534667153423
  0
LINE
  8
0
 10
74.12350451487909
 20
2.2576534667153423
 11
73.43844654837295
 21
2.4258814980950847
  0
LINE
  8
0
 10
73.43844654837295
 20
2.4258814980950847
 11
72.76763462804941
 21
2.565570315533477
  0
LINE
  8
0
 10
72.76763462804941
 20
2.565570315533477
 11
72.57650109191113
 21
2.6375473634477906
  0
LINE
  8
0
 10
72.57650109191113
 20
2.6375473634477906
 11
72.48246098632414
 21
2.722977204980107
  0
LINE
  8
0
 10
72.48246098632414
 20
2.722977204980107
 11
72.36126810203169
 21
4.996862431443969
  0
LINE
  8
0
 10
72.36126810203169
 20
4.996862431443969
 11
72.4456948159971
 21
5.091804146470271
  0
LINE
  8
0
 10
72.4456948159971
 20
5.091804146470271
 11
72.62809485116875
 21
5.183689679772451
  0
LINE
  8
0
 10
72.62809485116875
 20
5.183689679772451
 11
73.2802584766172
 21
5.3938900694111425
  0
LINE
  8
0
 10
73.2802584766172
 20
5.3938900694111425
 11
73.943553909039
 21
5.633982254513997
  0
LINE
  8
0
 10
73.943553909039
 20
5.633982254513997
 11
74.68100460893469
 21
5.930922578038134
  0
LINE
  8
0
 10
74.68100460893469
 20
5.930922578038134
 11
75.4893064568114
 21
6.290235051287817
  0
LINE
  8
0
 10
75.4893064568114
 20
6.290235051287817
 11
76.36485822753923
 21
6.717277093011545
  0
LINE
  8
0
 10
76.36485822753923
 20
6.717277093011545
 11
77.28352513851016
 21
7.206445869196736
  0
LINE
  8
0
 10
77.28352513851016
 20
7.206445869196736
 11
77.22760968836685
 21
8.255561225711872
  0
LINE
  8
0
 10
77.22760968836685
 20
8.255561225711872
 11
77.06049688232986
 21
9.292789686032457
  0
LINE
  8
0
 10
77.06049688232986
 20
9.292789686032457
 11
76.05918695013362
 21
9.576714684183887
  0
LINE
  8
0
 10
76.05918695013362
 20
9.576714684183887
 11
75.11315041427848
 21
9.809030592940577
  0
LINE
  8
0
 10
75.11315041427848
 20
9.809030592940577
 11
74.24716103486612
 21
9.989362857010304
  0
LINE
  8
0
 10
74.24716103486612
 20
9.989362857010304
 11
73.46360619631648
 21
10.123709072054849
  0
LINE
  8
0
 10
73.46360619631648
 20
10.123709072054849
 11
72.76454767621928
 21
10.218166858896138
  0
LINE
  8
0
 10
72.76454767621928
 20
10.218166858896138
 11
72.0826880281343
 21
10.285761374050336
  0
LINE
  8
0
 10
72.0826880281343
 20
10.285761374050336
 11
71.88498661035538
 21
10.337014407827688
  0
LINE
  8
0
 10
71.88498661035538
 20
10.337014407827688
 11
71.78239862512002
 21
10.41196442162622
  0
LINE
  8
0
 10
71.78239862512002
 20
10.41196442162622
 11
71.42019313604729
 21
12.660085619875842
  0
LINE
  8
0
 10
71.42019313604729
 20
12.660085619875842
 11
71.49404986998702
 21
12.763463480827268
  0
LINE
  8
0
 10
71.49404986998702
 20
12.763463480827268
 11
71.6656497389025
 21
12.874216399746087
  0
LINE
  8
0
 10
71.6656497389025
 20
12.874216399746087
 11
72.29177579501795
 21
13.152546707142907
  0
LINE
  8
0
 10
72.29177579501795
 20
13.152546707142907
 11
72.9257932910641
 21
13.461782705575258
  0
LINE
  8
0
 10
72.9257932910641
 20
13.461782705575258
 11
73.62750336339307
 21
13.835427008225968
  0
LINE
  8
0
 10
73.62750336339307
 20
13.835427008225968
 11
74.39303344459276
 21
14.278621125393723
  0
LINE
  8
0
 10
74.39303344459276
 20
14.278621125393723
 11
75.21823325248027
 21
14.796309338207802
  0
LINE
  8
0
 10
75.21823325248027
 20
14.796309338207802
 11
76.07970027756953
 21
15.380355183660921
  0
LINE
  8
0
 10
76.07970027756953
 20
15.380355183660921
 11
75.91258747153245
 21
16.417583643981512
  0
LINE
  8
0
 10
75.91258747153245
 20
16.417583643981512
 11
75.63617076446911
 21
17.431172995196693
  0
LINE
  8
0
 10
75.63617076446911
 20
17.431172995196693
 11
74.61035407537436
 21
17.60705677860178
  0
LINE
  8
0
 10
74.61035407537436
 20
17.60705677860178
 11
73.64498335779027
 21
17.737499050375195
  0
LINE
  8
0
 10
73.64498335779027
 20
17.737499050375195
 11
72.76473183630553
 21
17.824760666469075
  0
LINE
  8
0
 10
72.76473183630553
 20
17.824760666469075
 11
71.97133586498197
 21
17.87505900837908
  0
LINE
  8
0
 10
71.97133586498197
 20
17.87505900837908
 11
71.26619740365604
 21
17.894676306213583
  0
LINE
  8
0
 10
71.26619740365604
 20
17.894676306213583
 11
70.58101577007972
 21
17.8894106462175
  0
LINE
  8
0
 10
70.58101577007972
 20
17.8894106462175
 11
70.37898650672106
 21
17.919358948505515
  0
LINE
  8
0
 10
70.37898650672106
 20
17.919358948505515
 11
70.26901300470213
 21
17.98297992096542
  0
LINE
  8
0
 10
70.26901300470213
 20
17.98297992096542
 11
69.6698988437703
 21
20.179864979520982
  0
LINE
  8
0
 10
69.6698988437703
 20
20.179864979520982
 11
69.73234877137713
 21
20.29050767392525
  0
LINE
  8
0
 10
69.73234877137713
 20
20.29050767392525
 11
69.89120417895379
 21
20.41887310363475
  0
LINE
  8
0
 10
69.89120417895379
 20
20.41887310363475
 11
70.48419840733321
 21
20.76217973519174
  0
LINE
  8
0
 10
70.48419840733321
 20
20.76217973519174
 11
71.08175429543296
 21
21.13705577952691
  0
LINE
  8
0
 10
71.08175429543296
 20
21.13705577952691
 11
71.7397730846866
 21
21.583170522054473
  0
LINE
  8
0
 10
71.7397730846866
 20
21.583170522054473
 11
72.45385763749898
 21
22.105224716701404
  0
LINE
  8
0
 10
72.45385763749898
 20
22.105224716701404
 11
73.2193556389897
 21
22.707693486296932
  0
LINE
  8
0
 10
73.2193556389897
 20
22.707693486296932
 11
74.0138620125785
 21
23.379998928216164
  0
LINE
  8
0
 10
74.0138620125785
 20
23.379998928216164
 11
73.73744530551495
 21
24.393588279431317
  0
LINE
  8
0
 10
73.73744530551495
 20
24.393588279431317
 11
73.3548566091665
 21
25.372054149182006
  0
LINE
  8
0
 10
73.3548566091665
 20
25.372054149182006
 11
72.3161560761563
 21
25.437903884295192
  0
LINE
  8
0
 10
72.3161560761563
 20
25.437903884295192
 11
71.34238921281606
 21
25.46499455602406
  0
LINE
  8
0
 10
71.34238921281606
 20
25.46499455602406
 11
70.45784915072801
 21
25.45819681516377
  0
LINE
  8
0
 10
70.45784915072801
 20
25.45819681516377
 11
69.66360154001057
 21
25.423877383627197
  0
LINE
  8
0
 10
69.66360154001057
 20
25.423877383627197
 11
68.96037263798176
 21
25.368431920631778
  0
LINE
  8
0
 10
68.96037263798176
 20
25.368431920631778
 11
68.27963240060721
 21
25.290365747517214
  0
LINE
  8
0
 10
68.27963240060721
 20
25.290365747517214
 11
68.07556436394947
 21
25.298669992084243
  0
LINE
  8
0
 10
68.07556436394947
 20
25.298669992084243
 11
67.95945138886803
 21
25.350241072165897
  0
LINE
  8
0
 10
67.95945138886803
 20
25.350241072165897
 11
67.13021675891433
 21
27.470998405483236
  0
LINE
  8
0
 10
67.13021675891433
 20
27.470998405483236
 11
67.18055229755475
 21
27.587652307402173
  0
LINE
  8
0
 10
67.18055229755475
 20
27.587652307402173
 11
67.32486334854934
 21
27.732175816291505
  0
LINE
  8
0
 10
67.32486334854934
 20
27.732175816291505
 11
67.8780068876367
 21
28.13656897069476
  0
LINE
  8
0
 10
67.8780068876367
 20
28.13656897069476
 11
68.4323306208067
 21
28.572837565557574
  0
LINE
  8
0
 10
68.4323306208067
 20
28.572837565557574
 11
69.03920251117181
 21
29.08636808967074
  0
LINE
  8
0
 10
69.03920251117181
 20
29.08636808967074
 11
69.69375067227979
 21
29.68136727916923
  0
LINE
  8
0
 10
69.69375067227979
 20
29.68136727916923
 11
70.39087346913932
 21
30.361790393652385
  0
LINE
  8
0
 10
70.39087346913932
 20
30.361790393652385
 11
71.10941711654607
 21
31.114737942741108
  0
LINE
  8
0
 10
71.10941711654607
 20
31.114737942741108
 11
70.72682842019758
 21
32.093203812491794
  0
LINE
  8
0
 10
70.72682842019758
 20
32.093203812491794
 11
70.24240261736855
 21
33.02545979149865
  0
LINE
  8
0
 10
70.24240261736855
 20
33.02545979149865
 11
69.20258713252557
 21
32.9805293745089
  0
LINE
  8
0
 10
69.20258713252557
 20
32.9805293745089
 11
68.2314572910883
 21
32.90396149805764
  0
LINE
  8
0
 10
68.2314572910883
 20
32.90396149805764
 11
67.3526508807447
 21
32.80318142136336
  0
LINE
  8
0
 10
67.3526508807447
 20
32.80318142136336
 11
66.56655077342805
 21
32.68463306925287
  0
LINE
  8
0
 10
66.56655077342805
 20
32.68463306925287
 11
65.87319929515235
 21
32.554753064678145
  0
LINE
  8
0
 10
65.87319929515235
 20
32.554753064678145
 11
65.20461351287904
 21
32.40477089938016
  0
LINE
  8
0
 10
65.20461351287904
 20
32.40477089938016
 11
65.00081887531897
 21
32.39133699581704
  0
LINE
  8
0
 10
65.00081887531897
 20
32.39133699581704
 11
64.8798820335791
 21
32.430273862576364
  0
LINE
  8
0
 10
64.8798820335791
 20
32.430273862576364
 11
63.82992249430624
 21
34.45087444265736
  0
LINE
  8
0
 10
63.82992249430624
 20
34.45087444265736
 11
63.86757332221441
 21
34.57221781676969
  0
LINE
  8
0
 10
63.86757332221441
 20
34.57221781676969
 11
63.99570491475539
 21
34.73126189573448
  0
LINE
  8
0
 10
63.99570491475539
 20
34.73126189573448
 11
64.5027304272279
 21
35.19215963695731
  0
LINE
  8
0
 10
64.5027304272279
 20
35.19215963695731
 11
65.00754129607476
 21
35.68487768484387
  0
LINE
  8
0
 10
65.00754129607476
 20
35.68487768484387
 11
65.5563901865398
 21
36.260005484508056
  0
LINE
  8
0
 10
65.5563901865398
 20
36.260005484508056
 11
66.14398566373387
 21
36.92120809029147
  0
LINE
  8
0
 10
66.14398566373387
 20
36.92120809029147
 11
66.76483457611766
 21
37.67187608389188
  0
LINE
  8
0
 10
66.76483457611766
 20
37.67187608389188
 11
67.39927411070182
 21
38.49693454355634
  0
LINE
  8
0
 10
67.39927411070182
 20
38.49693454355634
 11
66.9148483078727
 21
39.42919052256318
  0
LINE
  8
0
 10
66.9148483078727
 20
39.42919052256318
 11
66.33407413647586
 21
40.304673778073465
  0
LINE
  8
0
 10
66.33407413647586
 20
40.304673778073465
 11
65.30492522473256
 21
40.14947228855852
  0
LINE
  8
0
 10
65.30492522473256
 20
40.14947228855852
 11
64.34743569434555
 21
39.970113408562305
  0
LINE
  8
0
 10
64.34743569434555
 20
39.970113408562305
 11
63.48432016352879
 21
39.77649287457268
  0
LINE
  8
0
 10
63.48432016352879
 20
39.77649287457268
 11
62.71527438793849
 21
39.57505880208719
  0
LINE
  8
0
 10
62.71527438793849
 20
39.57505880208719
 11
62.03965628271397
 21
39.37221584828242
  0
LINE
  8
0
 10
62.03965628271397
 20
39.37221584828242
 11
61.39080029960836
 21
39.15201704866365
  0
LINE
  8
0
 10
61.39080029960836
 20
39.15201704866365
 11
61.189588135821744
 21
39.11699720846568
  0
LINE
  8
0
 10
61.189588135821744
 20
39.11699720846568
 11
61.06519769016425
 21
39.1428586916439
  0
LINE
  8
0
 10
61.06519769016425
 20
39.1428586916439
 11
59.806409702694744
 21
41.04040830652521
  0
LINE
  8
0
 10
59.806409702694744
 20
41.04040830652521
 11
59.83094922094595
 21
41.16506628391589
  0
LINE
  8
0
 10
59.83094922094595
 20
41.16506628391589
 11
59.94144957289105
 21
41.336828899990685
  0
LINE
  8
0
 10
59.94144957289105
 20
41.336828899990685
 11
60.39661225709528
 21
41.84900907245962
  0
LINE
  8
0
 10
60.39661225709528
 20
41.84900907245962
 11
60.846190552762806
 21
42.39259388100726
  0
LINE
  8
0
 10
60.846190552762806
 20
42.39259388100726
 11
61.3307977660899
 21
43.02280252844285
  0
LINE
  8
0
 10
61.3307977660899
 20
43.02280252844285
 11
61.84478286782221
 21
43.74271686078452
  0
LINE
  8
0
 10
61.84478286782221
 20
43.74271686078452
 11
62.38232342947434
 21
44.55512436518297
  0
LINE
  8
0
 10
62.38232342947434
 20
44.55512436518297
 11
62.925470397799906
 21
45.44294549339857
  0
LINE
  8
0
 10
62.925470397799906
 20
45.44294549339857
 11
62.344696226402945
 21
46.31842874890881
  0
LINE
  8
0
 10
62.344696226402945
 20
46.31842874890881
 11
61.67415408986575
 21
47.1272197058122
  0
LINE
  8
0
 10
61.67415408986575
 20
47.1272197058122
 11
60.667332419619186
 21
46.86350563866366
  0
LINE
  8
0
 10
60.667332419619186
 20
46.86350563866366
 11
59.734331939255135
 21
46.583387962901014
  0
LINE
  8
0
 10
59.734331939255135
 20
46.583387962901014
 11
58.896686731812856
 21
46.29912076963297
  0
LINE
  8
0
 10
58.896686731812856
 20
46.29912076963297
 11
58.153408883881454
 21
46.01708330530272
  0
LINE
  8
0
 10
58.153408883881454
 20
46.01708330530272
 11
57.503179174803584
 21
45.743575693986436
  0
LINE
  8
0
 10
57.503179174803584
 20
45.743575693986436
 11
56.88140478842396
 21
45.455655200433554
  0
LINE
  8
0
 10
56.88140478842396
 20
45.455655200433554
 11
56.68505491262681
 21
45.39944621238338
  0
LINE
  8
0
 10
56.68505491262681
 20
45.39944621238338
 11
56.55862025650488
 21
45.411939291042366
  0
LINE
  8
0
 10
56.55862025650488
 20
45.411939291042366
 11
55.10526639172293
 21
47.16493794536503
  0
LINE
  8
0
 10
55.10526639172293
 20
47.16493794536503
 11
55.116416557769895
 21
47.29149810133942
  0
LINE
  8
0
 10
55.116416557769895
 20
47.29149810133942
 11
55.20803365597787
 21
47.47403311545122
  0
LINE
  8
0
 10
55.20803365597787
 20
47.47403311545122
 11
55.60617633682799
 21
48.031692513155406
  0
LINE
  8
0
 10
55.60617633682799
 20
48.031692513155406
 11
55.995428157583895
 21
48.61998504927777
  0
LINE
  8
0
 10
55.995428157583895
 20
48.61998504927777
 11
56.41030290040683
 21
49.29813402869075
  0
LINE
  8
0
 10
56.41030290040683
 20
49.29813402869075
 11
56.844853970096736
 21
50.068603170542055
  0
LINE
  8
0
 10
56.844853970096736
 20
50.068603170542055
 11
57.29299563166336
 21
50.933545284092155
  0
LINE
  8
0
 10
57.29299563166336
 20
50.933545284092155
 11
57.73869596154872
 21
51.874069712720896
  0
LINE
  8
0
 10
57.73869596154872
 20
51.874069712720896
 11
57.06815382501144
 21
52.68286066962423
  0
LINE
  8
0
 10
57.06815382501144
 20
52.68286066962423
 11
56.315441233675976
 21
53.41579540320261
  0
LINE
  8
0
 10
56.315441233675976
 20
53.41579540320261
 11
55.34235449675551
 21
53.04655674417599
  0
LINE
  8
0
 10
55.34235449675551
 20
53.04655674417599
 11
54.444414334665
 21
52.668854117842656
  0
LINE
  8
0
 10
54.444414334665
 20
52.668854117842656
 11
53.64173030550356
 21
52.29716112618332
  0
LINE
  8
0
 10
53.64173030550356
 20
52.29716112618332
 11
52.93264202024687
 21
51.93771586717563
  0
LINE
  8
0
 10
52.93264202024687
 20
51.93771586717563
 11
52.315168069738135
 21
51.59664254887214
  0
LINE
  8
0
 10
52.315168069738135
 20
51.59664254887214
 11
51.727520232330605
 21
51.24426261562429
  0
LINE
  8
0
 10
51.727520232330605
 20
51.24426261562429
 11
51.53825736707313
 21
51.16750135001651
  0
LINE
  8
0
 10
51.53825736707313
 20
51.16750135001651
 11
51.41121105566136
 21
51.16648447258308
  0
LINE
  8
0
 10
51.41121105566136
 20
51.16648447258308
 11
49.77975839358567
 21
52.755069991130895
  0
LINE
  8
0
 10
49.77975839358567
 20
52.755069991130895
 11
49.7773928715917
 21
52.88209834855093
  0
LINE
  8
0
 10
49.7773928715917
 20
52.88209834855093
 11
49.84908865773153
 21
53.07333756605257
  0
LINE
  8
0
 10
49.84908865773153
 20
53.07333756605257
 11
50.18570021956377
 21
53.67015768518661
  0
LINE
  8
0
 10
50.18570021956377
 20
53.67015768518661
 11
50.510215186741746
 21
54.29649235937969
  0
LINE
  8
0
 10
50.510215186741746
 20
54.29649235937969
 11
50.85065676244883
 21
55.0148979718587
  0
LINE
  8
0
 10
50.85065676244883
 20
55.0148979718587
 11
51.20085016283892
 21
55.827192199978626
  0
LINE
  8
0
 10
51.20085016283892
 20
55.827192199978626
 11
51.554515300226164
 21
56.73486878292052
  0
LINE
  8
0
 10
51.554515300226164
 20
56.73486878292052
 11
51.897719028840925
 21
57.717439994371595
  0
LINE
  8
0
 10
51.897719028840925
 20
57.717439994371595
 11
51.14500643750533
 21
58.45037472794986
  0
LINE
  8
0
 10
51.14500643750533
 20
58.45037472794986
 11
50.318651925799955
 21
59.09914879480577
  0
LINE
  8
0
 10
50.318651925799955
 20
59.09914879480577
 11
49.39032558376074
 21
58.628569165448226
  0
LINE
  8
0
 10
49.39032558376074
 20
58.628569165448226
 11
48.53761976077896
 21
58.157561110222865
  0
LINE
  8
0
 10
48.53761976077896
 20
58.157561110222865
 11
47.778991640685014
 21
57.70265375028873
  0
LINE
  8
0
 10
47.778991640685014
 20
57.70265375028873
 11
47.11212717171231
 21
57.2698733550152
  0
LINE
  8
0
 10
47.11212717171231
 20
57.2698733550152
 11
46.534405206362024
 21
56.86509882670686
  0
LINE
  8
0
 10
46.534405206362024
 20
56.86509882670686
 11
45.98754220273659
 21
56.45225205921162
  0
LINE
  8
0
 10
45.98754220273659
 20
56.45225205921162
 11
45.80751077190776
 21
56.355808251857795
  0
LINE
  8
0
 10
45.80751077190776
 20
56.355808251857795
 11
45.68129229067958
 21
56.341292939959594
  0
LINE
  8
0
 10
45.68129229067958
 20
56.341292939959594
 11
43.89022584186688
 21
57.74746601404086
  0
LINE
  8
0
 10
43.89022584186688
 20
57.74746601404086
 11
43.874371434141366
 21
57.87352329085902
  0
LINE
  8
0
 10
43.874371434141366
 20
57.87352329085902
 11
43.9253335663079
 21
58.071299895000884
  0
LINE
  8
0
 10
43.9253335663079
 20
58.071299895000884
 11
44.19660006562356
 21
58.70051852513777
  0
LINE
  8
0
 10
44.19660006562356
 20
58.70051852513777
 11
44.452701294975874
 21
59.35779871527232
  0
LINE
  8
0
 10
44.452701294975874
 20
59.35779871527232
 11
44.71485236448077
 21
60.10832113816766
  0
LINE
  8
0
 10
44.71485236448077
 20
60.10832113816766
 11
44.97672026441446
 21
60.9532368343753
  0
LINE
  8
0
 10
44.97672026441446
 20
60.9532368343753
 11
45.23190171029832
 21
61.893363548335095
  0
LINE
  8
0
 10
45.23190171029832
 20
61.893363548335095
 11
45.468720202259895
 21
62.90684861816708
  0
LINE
  8
0
 10
45.468720202259895
 20
62.90684861816708
 11
44.6423656905545
 21
63.55562268502297
  0
LINE
  8
0
 10
44.6423656905545
 20
63.55562268502297
 11
43.75173218529156
 21
64.1128852157422
  0
LINE
  8
0
 10
43.75173218529156
 20
64.1128852157422
 11
42.87868454652922
 21
63.54629647128834
  0
LINE
  8
0
 10
42.87868454652922
 20
63.54629647128834
 11
42.080874560354495
 21
62.98731969664193
  0
LINE
  8
0
 10
42.080874560354495
 20
62.98731969664193
 11
41.37489790906113
 21
62.454352250592805
  0
LINE
  8
0
 10
41.37489790906113
 20
62.454352250592805
 11
40.75781309727138
 21
61.95314029386214
  0
LINE
  8
0
 10
40.75781309727138
 20
61.95314029386214
 11
40.22638893779296
 21
61.4892508126944
  0
LINE
  8
0
 10
40.22638893779296
 20
61.4892508126944
 11
39.72650694429607
 21
61.02061492979268
  0
LINE
  8
0
 10
39.72650694429607
 20
61.02061492979268
 11
39.557746775944075
 21
60.905581327567134
  0
LINE
  8
0
 10
39.557746775944075
 20
60.905581327567134
 11
39.43378623072615
 21
60.87773204548799
  0
LINE
  8
0
 10
39.43378623072615
 20
60.87773204548799
 11
37.503399493715314
 21
62.08556017229511
  0
LINE
  8
0
 10
37.503399493715314
 20
62.08556017229511
 11
37.47423583703291
 21
62.209218089195105
  0
LINE
  8
0
 10
37.47423583703291
 20
62.209218089195105
 11
37.50388689390526
 21
62.41129119202475
  0
LINE
  8
0
 10
37.50388689390526
 20
62.41129119202475
 11
37.70673477287449
 21
63.06577903466202
  0
LINE
  8
0
 10
37.70673477287449
 20
63.06577903466202
 11
37.89152053513973
 21
63.74655749354798
  0
LINE
  8
0
 10
37.89152053513973
 20
63.74655749354798
 11
38.072410822074715
 21
64.52069300791472
  0
LINE
  8
0
 10
38.072410822074715
 20
64.52069300791472
 11
38.24298615360864
 21
65.38865693976085
  0
LINE
  8
0
 10
38.24298615360864
 20
65.38865693976085
 11
38.39679260024191
 21
66.3505817734138
  0
LINE
  8
0
 10
38.39679260024191
 20
66.3505817734138
 11
38.52454260740862
 21
67.38349751081756
  0
LINE
  8
0
 10
38.52454260740862
 20
67.38349751081756
 11
37.63390910214557
 21
67.94076004153662
  0
LINE
  8
0
 10
37.63390910214557
 20
67.94076004153662
 11
36.689087836818594
 21
68.40019702897507
  0
LINE
  8
0
 10
36.689087836818594
 20
68.40019702897507
 11
35.88121087993252
 21
67.74401884629707
  0
LINE
  8
0
 10
35.88121087993252
 20
67.74401884629707
 11
35.14733623649691
 21
67.10340678244212
  0
LINE
  8
0
 10
35.14733623649691
 20
67.10340678244212
 11
34.502010051557235
 21
66.49841798440474
  0
LINE
  8
0
 10
34.502010051557235
 20
66.49841798440474
 11
33.94169671444261
 21
65.93445339796084
  0
LINE
  8
0
 10
33.94169671444261
 20
65.93445339796084
 11
33.46259160890926
 21
65.41670501711613
  0
LINE
  8
0
 10
33.46259160890926
 20
65.41670501711613
 11
33.015354488269935
 21
64.8975898506186
  0
LINE
  8
0
 10
33.015354488269935
 20
64.8975898506186
 11
32.85977770253535
 21
64.76526983019966
  0
LINE
  8
0
 10
32.85977770253535
 20
64.76526983019966
 11
32.73947961583711
 21
64.72440212143353
  0
LINE
  8
0
 10
32.73947961583711
 20
64.72440212143353
 11
30.691644643701895
 21
65.72020012566615
  0
LINE
  8
0
 10
30.691644643701895
 20
65.72020012566615
 11
30.649502173946004
 21
65.84005758903831
  0
LINE
  8
0
 10
30.649502173946004
 20
65.84005758903831
 11
30.657506197201855
 21
66.04413762155635
  0
LINE
  8
0
 10
30.657506197201855
 20
66.04413762155635
 11
30.78963710830203
 21
66.71647906791686
  0
LINE
  8
0
 10
30.78963710830203
 20
66.71647906791686
 11
30.90101370695709
 21
67.41304230358978
  0
LINE
  8
0
 10
30.90101370695709
 20
67.41304230358978
 11
30.998593652091074
 21
68.20201964472126
  0
LINE
  8
0
 10
30.998593652091074
 20
68.20201964472126
 11
31.07594372856053
 21
69.08319743403729
  0
LINE
  8
0
 10
31.07594372856053
 20
69.08319743403729
 11
31.12663248744492
 21
70.05602139465245
  0
LINE
  8
0
 10
31.12663248744492
 20
70.05602139465245
 11
31.1438665511892
 21
71.0966644515909
  0
LINE
  8
0
 10
31.1438665511892
 20
71.0966644515909
 11
30.199045285862173
 21
71.5561014390293
  0
LINE
  8
0
 10
30.199045285862173
 20
71.5561014390293
 11
29.210741462938863
 21
71.91250727853777
  0
LINE
  8
0
 10
29.210741462938863
 20
71.91250727853777
 11
28.47718875666176
 21
71.17417441864075
  0
LINE
  8
0
 10
28.47718875666176
 20
71.17417441864075
 11
27.81556454891682
 21
70.45918545623636
  0
LINE
  8
0
 10
27.81556454891682
 20
70.45918545623636
 11
27.238200633865468
 21
69.78903007103372
  0
LINE
  8
0
 10
27.238200633865468
 20
69.78903007103372
 11
26.741007345425313
 21
69.16870279898981
  0
LINE
  8
0
 10
26.741007345425313
 20
69.16870279898981
 11
26.319649746123417
 21
68.6029618145049
  0
LINE
  8
0
 10
26.319649746123417
 20
68.6029618145049
 11
25.930124873625395
 21
68.03924914667589
  0
LINE
  8
0
 10
25.930124873625395
 20
68.03924914667589
 11
25.78949421765592
 21
67.89114194676725
  0
LINE
  8
0
 10
25.78949421765592
 20
67.89114194676725
 11
25.67422161486834
 21
67.83771885878437
  0
LINE
  8
0
 10
25.67422161486834
 20
67.83771885878437
 11
23.53214119611636
 21
68.61020395115384
  0
LINE
  8
0
 10
23.53214119611636
 20
68.61020395115384
 11
23.477497404308597
 21
68.72490292804557
  0
LINE
  8
0
 10
23.477497404308597
 20
68.72490292804557
 11
23.463763705166212
 21
68.92867758193734
  0
LINE
  8
0
 10
23.463763705166212
 20
68.92867758193734
 11
23.523680552377737
 21
69.6112547347798
  0
LINE
  8
0
 10
23.523680552377737
 20
69.6112547347798
 11
23.56038604605602
 21
70.31571040744694
  0
LINE
  8
0
 10
23.56038604605602
 20
70.31571040744694
 11
23.57355002961968
 21
71.11059014680882
  0
LINE
  8
0
 10
23.57355002961968
 20
71.11059014680882
 11
23.556798443750733
 21
71.99499769714102
  0
LINE
  8
0
 10
23.556798443750733
 20
71.99499769714102
 11
23.503795190993877
 21
72.96769830052388
  0
LINE
  8
0
 10
23.503795190993877
 20
72.96769830052388
 11
23.410318042487116
 21
74.00427777534203
  0
LINE
  8
0
 10
23.410318042487116
 20
74.00427777534203
 11
22.422014219563756
 21
74.36068361485037
  0
LINE
  8
0
 10
22.422014219563756
 20
74.36068361485037
 11
21.401425716263997
 21
74.61002008585473
  0
LINE
  8
0
 10
21.401425716263997
 20
74.61002008585473
 11
20.750508705870782
 21
73.79789815506413
  0
LINE
  8
0
 10
20.750508705870782
 20
73.79789815506413
 11
20.168631400461887
 21
73.01663340474943
  0
LINE
  8
0
 10
20.168631400461887
 20
73.01663340474943
 11
19.665771519159293
 21
72.28890456067641
  0
LINE
  8
0
 10
19.665771519159293
 20
72.28890456067641
 11
19.23733167802
 21
71.61924315889495
  0
LINE
  8
0
 10
19.23733167802
 20
71.61924315889495
 11
18.878495734915603
 21
71.01191964218263
  0
LINE
  8
0
 10
18.878495734915603
 20
71.01191964218263
 11
18.551096583010523
 21
70.40999656279679
  0
LINE
  8
0
 10
18.551096583010523
 20
70.40999656279679
 11
18.427005458331454
 21
70.2477802971541
  0
LINE
  8
0
 10
18.427005458331454
 20
70.2477802971541
 11
18.31806442410471
 21
70.1824071348881
  0
LINE
  8
0
 10
18.31806442410471
 20
70.1824071348881
 11
16.10600918581233
 21
70.72282675062849
  0
LINE
  8
0
 10
16.10600918581233
 20
70.72282675062849
 11
16.03948320794843
 21
70.83106765580018
  0
LINE
  8
0
 10
16.03948320794843
 20
70.83106765580018
 11
16.004167394706794
 21
71.03222808281286
  0
LINE
  8
0
 10
16.004167394706794
 20
71.03222808281286
 11
15.991191296209209
 21
71.71730707025162
  0
LINE
  8
0
 10
15.991191296209209
 20
71.71730707025162
 11
15.952809797000569
 21
72.42167341565546
  0
LINE
  8
0
 10
15.952809797000569
 20
72.42167341565546
 11
15.881408665800068
 21
73.21344924818293
  0
LINE
  8
0
 10
15.881408665800068
 20
73.21344924818293
 11
15.770745219754208
 21
74.09106586859468
  0
LINE
  8
0
 10
15.770745219754208
 20
74.09106586859468
 11
15.614650503388873
 21
75.05262202823751
  0
LINE
  8
0
 10
15.614650503388873
 20
75.05262202823751
 11
15.41152127607527
 21
76.07339306128966
  0
LINE
  8
0
 10
15.41152127607527
 20
76.07339306128966
 11
14.390932772775395
 21
76.32272953229379
  0
LINE
  8
0
 10
14.390932772775395
 20
76.32272953229379
 11
13.349623264647962
 21
76.46217155294747
  0
LINE
  8
0
 10
13.349623264647962
 20
76.46217155294747
 11
12.788717099959658
 21
75.58546221724676
  0
LINE
  8
0
 10
12.788717099959658
 20
75.58546221724676
 11
12.29317959926346
 21
74.74677372082034
  0
LINE
  8
0
 10
12.29317959926346
 20
74.74677372082034
 11
11.870521355097404
 21
73.96971687646597
  0
LINE
  8
0
 10
11.870521355097404
 20
73.96971687646597
 11
11.515689355854951
 21
73.25830887621225
  0
LINE
  8
0
 10
11.515689355854951
 20
73.25830887621225
 11
11.223440823566994
 21
72.6162840453911
  0
LINE
  8
0
 10
11.223440823566994
 20
72.6162840453911
 11
10.961876955468007
 21
71.98297058345412
  0
LINE
  8
0
 10
10.961876955468007
 20
71.98297058345412
 11
10.855731364106257
 21
71.8084832271854
  0
LINE
  8
0
 10
10.855731364106257
 20
71.8084832271854
 11
10.754356243888763
 21
71.73190069468656
  0
LINE
  8
0
 10
10.754356243888763
 20
71.73190069468656
 11
8.497389655798269
 21
72.0341316636108
  0
LINE
  8
0
 10
8.497389655798269
 20
72.0341316636108
 11
8.419735257789856
 21
72.134688084356
  0
LINE
  8
0
 10
8.419735257789856
 20
72.134688084356
 11
8.363237472724487
 21
72.33095505647194
  0
LINE
  8
0
 10
8.363237472724487
 20
72.33095505647194
 11
8.277515452898749
 21
73.01077365983558
  0
LINE
  8
0
 10
8.277515452898749
 20
73.01077365983558
 11
8.16448183852569
 21
73.7070699258322
  0
LINE
  8
0
 10
8.16448183852569
 20
73.7070699258322
 11
8.009324595907975
 21
74.48677071496515
  0
LINE
  8
0
 10
8.009324595907975
 20
74.48677071496515
 11
7.806003150747771
 21
75.3476526584694
  0
LINE
  8
0
 10
7.806003150747771
 20
75.3476526584694
 11
7.548585586282658
 21
76.28716955886507
  0
LINE
  8
0
 10
7.548585586282658
 20
76.28716955886507
 11
7.238105815473978
 21
77.2805664064673
  0
LINE
  8
0
 10
7.238105815473978
 20
77.2805664064673
 11
6.19679630734656
 21
77.42000842712093
  0
LINE
  8
0
 10
6.19679630734656
 20
77.42000842712093
 11
5.146564247204763
 21
77.44797606361189
  0
LINE
  8
0
 10
5.146564247204763
 20
77.44797606361189
 11
4.682024219193992
 21
76.51661279008971
  0
LINE
  8
0
 10
4.682024219193992
 20
76.51661279008971
 11
4.278441161100118
 21
75.63000322333903
  0
LINE
  8
0
 10
4.278441161100118
 20
75.63000322333903
 11
3.940773440862663
 21
74.812422743246
  0
LINE
  8
0
 10
3.940773440862663
 20
74.812422743246
 11
3.6635696718521444
 21
74.06732868142713
  0
LINE
  8
0
 10
3.6635696718521444
 20
74.06732868142713
 11
3.4412198430280325
 21
73.3978769343704
  0
LINE
  8
0
 10
3.4412198430280325
 20
73.3978769343704
 11
3.2484548818763153
 21
72.74034878446527
  0
LINE
  8
0
 10
3.2484548818763153
 20
72.74034878446527
 11
3.161457495795637
 21
72.55556734903868
  0
LINE
  8
0
 10
3.161457495795637
 20
72.55556734903868
 11
3.068796910206904
 21
72.468643157001
  0
LINE
  8
0
 10
3.068796910206904
 20
72.468643157001
 11
0.7924913055994485
 21
72.52926108146583
  0
LINE
  8
0
 10
0.7924913055994485
 20
72.52926108146583
 11
0.7045883428050839
 21
72.62099367335719
  0
LINE
  8
0
 10
0.7045883428050839
 20
72.62099367335719
 11
0.6275487283961392
 21
72.81014340735797
  0
LINE
  8
0
 10
0.6275487283961392
 20
72.81014340735797
 11
0.47005205197965955
 21
73.4769990102287
  0
LINE
  8
0
 10
0.47005205197965955
 20
73.4769990102287
 11
0.28364703845896855
 21
74.15733588189849
  0
LINE
  8
0
 10
0.28364703845896855
 20
74.15733588189849
 11
0.04649167798058514
 21
74.9161273061434
  0
LINE
  8
0
 10
0.04649167798058514
 20
74.9161273061434
 11
-0.24718405307716892
 21
75.75052043632928
  0
LINE
  8
0
 10
-0.24718405307716892
 20
75.75052043632928
 11
-0.6030078217778292
 21
76.6573529755844
  0
LINE
  8
0
 10
-0.6030078217778292
 20
76.6573529755844
 11
-1.017320276216915
 21
77.61212005451202
  0
LINE
  8
0
 10
-1.017320276216915
 20
77.61212005451202
 11
-2.0675523363587462
 21
77.64008769100292
  0
LINE
  8
0
 10
-2.0675523363587462
 20
77.64008769100292
 11
-3.114807399622063
 21
77.5562640588345
  0
LINE
  8
0
 10
-3.114807399622063
 20
77.5562640588345
 11
-3.4777178668171493
 21
76.58079956553378
  0
LINE
  8
0
 10
-3.4777178668171493
 20
76.58079956553378
 11
-3.784773724996887
 21
75.65631456912134
  0
LINE
  8
0
 10
-3.784773724996887
 20
75.65631456912134
 11
-4.033625011110275
 21
74.80747396681768
  0
LINE
  8
0
 10
-4.033625011110275
 20
74.80747396681768
 11
-4.2300597204209645
 21
74.03713605687855
  0
LINE
  8
0
 10
-4.2300597204209645
 20
74.03713605687855
 11
-4.379991533374168
 21
73.34784254937975
  0
LINE
  8
0
 10
-4.379991533374168
 20
73.34784254937975
 11
-4.5017734835437935
 21
72.67354976817978
  0
LINE
  8
0
 10
-4.5017734835437935
 20
72.67354976817978
 11
-4.568636949196715
 21
72.48056790109362
  0
LINE
  8
0
 10
-4.568636949196715
 20
72.48056790109362
 11
-4.651533118696675
 21
72.38428693534605
  0
LINE
  8
0
 10
-4.651533118696675
 20
72.38428693534605
 11
-6.921386287755321
 21
72.20260499004559
  0
LINE
  8
0
 10
-6.921386287755321
 20
72.20260499004559
 11
-7.018541839642935
 21
72.28447438616251
  0
LINE
  8
0
 10
-7.018541839642935
 20
72.28447438616251
 11
-7.115250393780735
 21
72.46436373998152
  0
LINE
  8
0
 10
-7.115250393780735
 20
72.46436373998152
 11
-7.34273722651168
 21
73.1107006019168
  0
LINE
  8
0
 10
-7.34273722651168
 20
73.1107006019168
 11
-7.600401595893151
 21
73.76736959065492
  0
LINE
  8
0
 10
-7.600401595893151
 20
73.76736959065492
 11
-7.9168680092355075
 21
74.49665423997745
  0
LINE
  8
0
 10
-7.9168680092355075
 20
74.49665423997745
 11
-8.29757056281106
 21
75.29510454927338
  0
LINE
  8
0
 10
-8.29757056281106
 20
75.29510454927338
 11
-8.747768910267927
 21
76.15897795236629
  0
LINE
  8
0
 10
-8.747768910267927
 20
76.15897795236629
 11
-9.261219722677755
 21
77.06429737010953
  0
LINE
  8
0
 10
-9.261219722677755
 20
77.06429737010953
 11
-10.308474785941101
 21
76.98047373794097
  0
LINE
  8
0
 10
-10.308474785941101
 20
76.98047373794097
 11
-11.340887033997284
 21
76.78580859235981
  0
LINE
  8
0
 10
-11.340887033997284
 20
76.78580859235981
 11
-11.598056019771702
 21
75.77729528176548
  0
LINE
  8
0
 10
-11.598056019771702
 20
75.77729528176548
 11
-11.80510561247083
 21
74.82540964010606
  0
LINE
  8
0
 10
-11.80510561247083
 20
74.82540964010606
 11
-11.962320879952557
 21
73.9549266187954
  0
LINE
  8
0
 10
-11.962320879952557
 20
73.9549266187954
 11
-12.0757608458156
 21
73.168073097067
  0
LINE
  8
0
 10
-12.0757608458156
 20
73.168073097067
 11
-12.15157585554742
 21
72.46674779999381
  0
LINE
  8
0
 10
-12.15157585554742
 20
72.46674779999381
 11
-12.200994956577938
 21
71.78333039414375
  0
LINE
  8
0
 10
-12.200994956577938
 20
71.78333039414375
 11
-12.246966912019964
 21
71.58433465706375
  0
LINE
  8
0
 10
-12.246966912019964
 20
71.58433465706375
 11
-12.319159418707095
 21
71.47978781942014
  0
LINE
  8
0
 10
-12.319159418707095
 20
71.47978781942014
 11
-14.556841808824185
 21
71.05786453339103
  0
LINE
  8
0
 10
-14.556841808824185
 20
71.05786453339103
 11
-14.662149138580773
 21
71.12894312076216
  0
LINE
  8
0
 10
-14.662149138580773
 20
71.12894312076216
 11
-14.777430885886272
 21
71.29753387614048
  0
LINE
  8
0
 10
-14.777430885886272
 20
71.29753387614048
 11
-15.072330358217712
 21
71.91602874223152
  0
LINE
  8
0
 10
-15.072330358217712
 20
71.91602874223152
 11
-15.398334643197414
 21
72.54158952600392
  0
LINE
  8
0
 10
-15.398334643197414
 20
72.54158952600392
 11
-15.790526418487014
 21
73.23310431391988
  0
LINE
  8
0
 10
-15.790526418487014
 20
73.23310431391988
 11
-16.25394228252733
 21
73.98656504127698
  0
LINE
  8
0
 10
-16.25394228252733
 20
73.98656504127698
 11
-16.793414281573583
 21
74.79769127736434
  0
LINE
  8
0
 10
-16.793414281573583
 20
74.79769127736434
 11
-17.400185849085013
 21
75.64330540317289
  0
LINE
  8
0
 10
-17.400185849085013
 20
75.64330540317289
 11
-18.432598097141174
 21
75.44864025759156
  0
LINE
  8
0
 10
-18.432598097141174
 20
75.44864025759156
 11
-19.43846988668872
 21
75.14533923248129
  0
LINE
  8
0
 10
-19.43846988668872
 20
75.14533923248129
 11
-19.586983563674156
 21
74.11520396338389
  0
LINE
  8
0
 10
-19.586983563674156
 20
74.11520396338389
 11
-19.691680936274576
 21
73.14670292115173
  0
LINE
  8
0
 10
-19.691680936274576
 20
73.14670292115173
 11
-19.755478873324044
 21
72.26444040129286
  0
LINE
  8
0
 10
-19.755478873324044
 20
72.26444040129286
 11
-19.784638775597905
 21
71.46998663258711
  0
LINE
  8
0
 10
-19.784638775597905
 20
71.46998663258711
 11
-19.785477967753945
 21
70.76457584179074
  0
LINE
  8
0
 10
-19.785477967753945
 20
70.76457584179074
 11
-19.7619742814838
 21
70.0797772035786
  0
LINE
  8
0
 10
-19.7619742814838
 20
70.0797772035786
 11
-19.786533846090318
 21
69.87702229772052
  0
LINE
  8
0
 10
-19.786533846090318
 20
69.87702229772052
 11
-19.847204720017185
 21
69.76539414562617
  0
LINE
  8
0
 10
-19.847204720017185
 20
69.76539414562617
 11
-22.02736249558018
 21
69.10801007829114
  0
LINE
  8
0
 10
-22.02736249558018
 20
69.10801007829114
 11
-22.139628429080933
 21
69.16749250811999
  0
LINE
  8
0
 10
-22.139628429080933
 20
69.16749250811999
 11
-22.2721771812929
 21
69.32287446443375
  0
LINE
  8
0
 10
-22.2721771812929
 20
69.32287446443375
 11
-22.631147964367475
 21
69.90651954070968
  0
LINE
  8
0
 10
-22.631147964367475
 20
69.90651954070968
 11
-23.021798406131882
 21
70.49388426587485
  0
LINE
  8
0
 10
-23.021798406131882
 20
70.49388426587485
 11
-23.485271853842807
 21
71.13979405352185
  0
LINE
  8
0
 10
-23.485271853842807
 20
71.13979405352185
 11
-24.02615034143673
 21
71.83972818783154
  0
LINE
  8
0
 10
-24.02615034143673
 20
71.83972818783154
 11
-24.648783558761107
 21
72.58891687254888
  0
LINE
  8
0
 10
-24.648783558761107
 20
72.58891687254888
 11
-25.342000917060624
 21
73.36524456048713
  0
LINE
  8
0
 10
-25.342000917060624
 20
73.36524456048713
 11
-26.347872706608175
 21
73.06194353537673
  0
LINE
  8
0
 10
-26.347872706608175
 20
73.06194353537673
 11
-27.31580710834562
 21
72.6534431525449
  0
LINE
  8
0
 10
-27.31580710834562
 20
72.6534431525449
 11
-27.353982757238704
 21
71.61335776916431
  0
LINE
  8
0
 10
-27.353982757238704
 20
71.61335776916431
 11
-27.355141646673903
 21
70.63921483016125
  0
LINE
  8
0
 10
-27.355141646673903
 20
70.63921483016125
 11
-27.324799397171976
 21
69.75516919863838
  0
LINE
  8
0
 10
-27.324799397171976
 20
69.75516919863838
 11
-27.269348842512183
 21
68.96211666160235
  0
LINE
  8
0
 10
-27.269348842512183
 20
68.96211666160235
 11
-27.19520270870998
 21
68.26061296321038
  0
LINE
  8
0
 10
-27.19520270870998
 20
68.26061296321038
 11
-27.099042541296225
 21
67.58219213483875
  0
LINE
  8
0
 10
-27.099042541296225
 20
67.58219213483875
 11
-27.101911445386737
 21
67.37797535430272
  0
LINE
  8
0
 10
-27.101911445386737
 20
67.37797535430272
 11
-27.150373261308896
 21
67.2605306793252
  0
LINE
  8
0
 10
-27.150373261308896
 20
67.2605306793252
 11
-29.248304363573823
 21
66.3751342548445
  0
LINE
  8
0
 10
-29.248304363573823
 20
66.3751342548445
 11
-29.366256882932976
 21
66.42234656743312
  0
LINE
  8
0
 10
-29.366256882932976
 20
66.42234656743312
 11
-29.514570809725065
 21
66.56275918502982
  0
LINE
  8
0
 10
-29.514570809725065
 20
66.56275918502982
 11
-29.933545621133092
 21
67.10494153956371
  0
LINE
  8
0
 10
-29.933545621133092
 20
67.10494153956371
 11
-30.384415994081014
 21
67.64745512908648
  0
LINE
  8
0
 10
-30.384415994081014
 20
67.64745512908648
 11
-30.913919774856115
 21
68.24044150047804
  0
LINE
  8
0
 10
-30.913919774856115
 20
68.24044150047804
 11
-31.526132516615125
 21
68.87891850831907
  0
LINE
  8
0
 10
-31.526132516615125
 20
68.87891850831907
 11
-32.22487226907373
 21
69.55768103450794
  0
LINE
  8
0
 10
-32.22487226907373
 20
69.55768103450794
 11
-32.99668098849623
 21
70.25592618166681
  0
LINE
  8
0
 10
-32.99668098849623
 20
70.25592618166681
 11
-33.964615390233604
 21
69.84742579883476
  0
LINE
  8
0
 10
-33.964615390233604
 20
69.84742579883476
 11
-34.883645320622136
 21
69.33835453084706
  0
LINE
  8
0
 10
-34.883645320622136
 20
69.33835453084706
 11
-34.8110503960668
 21
68.30010361617424
  0
LINE
  8
0
 10
-34.8110503960668
 20
68.30010361617424
 11
-34.708657671656404
 21
67.33135620914697
  0
LINE
  8
0
 10
-34.708657671656404
 20
67.33135620914697
 11
-34.58451902541409
 21
66.45554405621198
  0
LINE
  8
0
 10
-34.58451902541409
 20
66.45554405621198
 11
-34.44508629076186
 21
65.67287835297797
  0
LINE
  8
0
 10
-34.44508629076186
 20
65.67287835297797
 11
-34.296794936324694
 21
64.98323006419984
  0
LINE
  8
0
 10
-34.296794936324694
 20
64.98323006419984
 11
-34.12906782088776
 21
64.31887382473738
  0
LINE
  8
0
 10
-34.12906782088776
 20
64.31887382473738
 11
-34.110213558632566
 21
64.11550902724775
  0
LINE
  8
0
 10
-34.110213558632566
 20
64.11550902724775
 11
-34.145917224811264
 21
63.99357852448307
  0
LINE
  8
0
 10
-34.145917224811264
 20
63.99357852448307
 11
-36.13785125609873
 21
62.89020163813253
  0
LINE
  8
0
 10
-36.13785125609873
 20
62.89020163813253
 11
-36.26015391214051
 21
62.92460889911422
  0
LINE
  8
0
 10
-36.26015391214051
 20
62.92460889911422
 11
-36.42255255745893
 21
63.04846124693043
  0
LINE
  8
0
 10
-36.42255255745893
 20
63.04846124693043
 11
-36.89678424517331
 21
63.54303773700035
  0
LINE
  8
0
 10
-36.89678424517331
 20
63.54303773700035
 11
-37.40276600782059
 21
64.03455329513399
  0
LINE
  8
0
 10
-37.40276600782059
 20
64.03455329513399
 11
-37.9923006322447
 21
64.56789747773692
  0
LINE
  8
0
 10
-37.9923006322447
 20
64.56789747773692
 11
-38.668911013176874
 21
65.13768315948799
  0
LINE
  8
0
 10
-38.668911013176874
 20
65.13768315948799
 11
-39.4358403001721
 21
65.73832887650694
  0
LINE
  8
0
 10
-39.4358403001721
 20
65.73832887650694
 11
-40.27749547952735
 21
66.35058008636432
  0
LINE
  8
0
 10
-40.27749547952735
 20
66.35058008636432
 11
-41.19652540991591
 21
65.8415088183766
  0
LINE
  8
0
 10
-41.19652540991591
 20
65.8415088183766
 11
-42.05623789261863
 21
65.23763464611413
  0
LINE
  8
0
 10
-42.05623789261863
 20
65.23763464611413
 11
-41.87369492411747
 21
64.21298199787624
  0
LINE
  8
0
 10
-41.87369492411747
 20
64.21298199787624
 11
-41.66891073634313
 21
63.26060641803821
  0
LINE
  8
0
 10
-41.66891073634313
 20
63.26060641803821
 11
-41.45238223382563
 21
62.402951045340615
  0
LINE
  8
0
 10
-41.45238223382563
 20
62.402951045340615
 11
-41.230547147779056
 21
61.63954009106364
  0
LINE
  8
0
 10
-41.230547147779056
 20
61.63954009106364
 11
-41.00979077300693
 21
60.969561202580664
  0
LINE
  8
0
 10
-41.00979077300693
 20
60.969561202580664
 11
-40.77239712478508
 21
60.32679697368376
  0
LINE
  8
0
 10
-40.77239712478508
 20
60.32679697368376
 11
-40.7320333225093
 21
60.126588363656566
  0
LINE
  8
0
 10
-40.7320333225093
 20
60.126588363656566
 11
-40.75457430214028
 21
60.001553554421996
  0
LINE
  8
0
 10
-40.75457430214028
 20
60.001553554421996
 11
-42.617941853939335
 21
58.69269790721099
  0
LINE
  8
0
 10
-42.617941853939335
 20
58.69269790721099
 11
-42.74320890870113
 21
58.71391026857039
  0
LINE
  8
0
 10
-42.74320890870113
 20
58.71391026857039
 11
-42.91785223100321
 21
58.81979905001647
  0
LINE
  8
0
 10
-42.91785223100321
 20
58.81979905001647
 11
-43.441967560508786
 21
59.26116592636718
  0
LINE
  8
0
 10
-43.441967560508786
 20
59.26116592636718
 11
-43.99732773730457
 21
59.69611438543839
  0
LINE
  8
0
 10
-43.99732773730457
 20
59.69611438543839
 11
-44.640213542516896
 21
60.16377337655026
  0
LINE
  8
0
 10
-44.640213542516896
 20
60.16377337655026
 11
-45.37355529664647
 21
60.65841183276235
  0
LINE
  8
0
 10
-45.37355529664647
 20
60.65841183276235
 11
-46.19998450290728
 21
61.17413518463168
  0
LINE
  8
0
 10
-46.19998450290728
 20
61.17413518463168
 11
-47.10194985270487
 21
61.6934554063368
  0
LINE
  8
0
 10
-47.10194985270487
 20
61.6934554063368
 11
-47.96166233540756
 21
61.08958123407425
  0
LINE
  8
0
 10
-47.96166233540756
 20
61.08958123407425
 11
-48.75231648447175
 21
60.397746293204584
  0
LINE
  8
0
 10
-48.75231648447175
 20
60.397746293204584
 11
-48.46189375679837
 21
59.398301635336566
  0
LINE
  8
0
 10
-48.46189375679837
 20
59.398301635336566
 11
-48.15703839233516
 21
58.4730886785573
  0
LINE
  8
0
 10
-48.15703839233516
 20
58.4730886785573
 11
-47.8505733879964
 21
57.64330766417149
  0
LINE
  8
0
 10
-47.8505733879964
 20
57.64330766417149
 11
-47.5488494307212
 21
56.90780121000702
  0
LINE
  8
0
 10
-47.5488494307212
 20
56.90780121000702
 11
-47.25812929355003
 21
56.2650828503357
  0
LINE
  8
0
 10
-47.25812929355003
 20
56.2650828503357
 11
-46.95375887743531
 21
55.65119340755332
  0
LINE
  8
0
 10
-46.95375887743531
 20
55.65119340755332
 11
-46.892342873147314
 21
55.45640942853946
  0
LINE
  8
0
 10
-46.892342873147314
 20
55.45640942853946
 11
-46.901465767924414
 21
55.32968700718501
  0
LINE
  8
0
 10
-46.901465767924414
 20
55.32968700718501
 11
-48.61515414130929
 21
53.83018245658862
  0
LINE
  8
0
 10
-48.61515414130929
 20
53.83018245658862
 11
-48.741966269006475
 21
53.837959573795494
  0
LINE
  8
0
 10
-48.741966269006475
 20
53.837959573795494
 11
-48.92687548966661
 21
53.92468502666666
  0
LINE
  8
0
 10
-48.92687548966661
 20
53.92468502666666
 11
-49.4949360248542
 21
54.307841426227846
  0
LINE
  8
0
 10
-49.4949360248542
 20
54.307841426227846
 11
-50.09338216308474
 21
54.68129464639876
  0
LINE
  8
0
 10
-50.09338216308474
 20
54.68129464639876
 11
-50.78233499602807
 21
55.07796968278323
  0
LINE
  8
0
 10
-50.78233499602807
 20
55.07796968278323
 11
-51.564099068252276
 21
55.49185646209993
  0
LINE
  8
0
 10
-51.564099068252276
 20
55.49185646209993
 11
-52.44066442064737
 21
55.91681409717039
  0
LINE
  8
0
 10
-52.44066442064737
 20
55.91681409717039
 11
-53.39272031306702
 21
56.33731922510149
  0
LINE
  8
0
 10
-53.39272031306702
 20
56.33731922510149
 11
-54.183374462131134
 21
55.645484284231735
  0
LINE
  8
0
 10
-54.183374462131134
 20
55.645484284231735
 11
-54.89601185011857
 21
54.87352734107816
  0
LINE
  8
0
 10
-54.89601185011857
 20
54.87352734107816
 11
-54.50099996882451
 21
53.91061478091145
  0
LINE
  8
0
 10
-54.50099996882451
 20
53.91061478091145
 11
-54.09952756076582
 21
53.023047479687605
  0
LINE
  8
0
 10
-54.09952756076582
 20
53.023047479687605
 11
-53.70659842556217
 21
52.23054257407022
  0
LINE
  8
0
 10
-53.70659842556217
 20
52.23054257407022
 11
-53.328404250057055
 21
51.53127420203744
  0
LINE
  8
0
 10
-53.328404250057055
 20
51.53127420203744
 11
-52.97101432580688
 21
50.92309862701007
  0
LINE
  8
0
 10
-52.97101432580688
 20
50.92309862701007
 11
-52.60311578023411
 21
50.34503958302671
  0
LINE
  8
0
 10
-52.60311578023411
 20
50.34503958302671
 11
-52.52134344180305
 21
50.157887215340125
  0
LINE
  8
0
 10
-52.52134344180305
 20
50.157887215340125
 11
-52.516944885683145
 21
50.03091299753545
  0
LINE
  8
0
 10
-52.516944885683145
 20
50.03091299753545
 11
-54.061537306628246
 21
48.357749529283566
  0
LINE
  8
0
 10
-54.061537306628246
 20
48.357749529283566
 11
-54.188457675182455
 21
48.352003284492376
  0
LINE
  8
0
 10
-54.188457675182455
 20
48.352003284492376
 11
-54.38153769884458
 21
48.41858277475385
  0
LINE
  8
0
 10
-54.38153769884458
 20
48.41858277475385
 11
-54.98710708686506
 21
48.739187382416965
  0
LINE
  8
0
 10
-54.98710708686506
 20
48.739187382416965
 11
-55.62185855265725
 21
49.04691398947872
  0
LINE
  8
0
 10
-55.62185855265725
 20
49.04691398947872
 11
-56.34907230244277
 21
49.36811058447024
  0
LINE
  8
0
 10
-56.34907230244277
 20
49.36811058447024
 11
-57.170400993446215
 21
49.696556184301144
  0
LINE
  8
0
 10
-57.170400993446215
 20
49.696556184301144
 11
-58.08717065627522
 21
50.025933162762904
  0
LINE
  8
0
 10
-58.08717065627522
 20
50.025933162762904
 11
-59.078529917633595
 21
50.34285870579525
  0
LINE
  8
0
 10
-59.078529917633595
 20
50.34285870579525
 11
-59.79116730562093
 21
49.57090176264152
  0
LINE
  8
0
 10
-59.79116730562093
 20
49.57090176264152
 11
-60.41771346617019
 21
48.72756939782823
  0
LINE
  8
0
 10
-60.41771346617019
 20
48.72756939782823
 11
-59.92258807370929
 21
47.81209911942992
  0
LINE
  8
0
 10
-59.92258807370929
 20
47.81209911942992
 11
-59.42904746485866
 21
46.97223396593825
  0
LINE
  8
0
 10
-59.42904746485866
 20
46.97223396593825
 11
-58.95410624289848
 21
46.22598456633884
  0
LINE
  8
0
 10
-58.95410624289848
 20
46.22598456633884
 11
-58.50372694029065
 21
45.57087726650632
  0
LINE
  8
0
 10
-58.50372694029065
 20
45.57087726650632
 11
-58.08371659960898
 21
45.0041353484026
  0
LINE
  8
0
 10
-58.08371659960898
 20
45.0041353484026
 11
-57.65645836210432
 21
44.468456343167276
  0
LINE
  8
0
 10
-57.65645836210432
 20
44.468456343167276
 11
-57.55525620279918
 21
44.29105609791616
  0
LINE
  8
0
 10
-57.55525620279918
 20
44.29105609791616
 11
-57.537386033180674
 21
44.1652687522853
  0
LINE
  8
0
 10
-57.537386033180674
 20
44.1652687522853
 11
-58.89538165236888
 21
42.3374039770354
  0
LINE
  8
0
 10
-58.89538165236888
 20
42.3374039770354
 11
-59.020972203289595
 21
42.31819947749572
  0
LINE
  8
0
 10
-59.020972203289595
 20
42.31819947749572
 11
-59.22003535613476
 21
42.36387863291903
  0
LINE
  8
0
 10
-59.22003535613476
 20
42.36387863291903
 11
-59.856252253848595
 21
42.61829887037215
  0
LINE
  8
0
 10
-59.856252253848595
 20
42.61829887037215
 11
-60.52011705946119
 21
42.856812198905416
  0
LINE
  8
0
 10
-60.52011705946119
 20
42.856812198905416
 11
-61.277352103723956
 21
43.098891066739085
  0
LINE
  8
0
 10
-61.277352103723956
 20
43.098891066739085
 11
-62.12893943125129
 21
43.338174067197905
  0
LINE
  8
0
 10
-62.12893943125129
 20
43.338174067197905
 11
-63.07552603791178
 21
43.56823841627265
  0
LINE
  8
0
 10
-63.07552603791178
 20
43.56823841627265
 11
-64.09495617165064
 21
43.777993481366636
  0
LINE
  8
0
 10
-64.09495617165064
 20
43.777993481366636
 11
-64.72150233219979
 21
42.93466111655326
  0
LINE
  8
0
 10
-64.72150233219979
 20
42.93466111655326
 11
-65.25485824695674
 21
42.02950862275215
  0
LINE
  8
0
 10
-65.25485824695674
 20
42.02950862275215
 11
-64.66522931186762
 21
41.17185327017981
  0
LINE
  8
0
 10
-64.66522931186762
 20
41.17185327017981
 11
-64.08521251453213
 21
40.38920627220248
  0
LINE
  8
0
 10
-64.08521251453213
 20
40.38920627220248
 11
-63.533640479637135
 21
39.69766768250462
  0
LINE
  8
0
 10
-63.533640479637135
 20
39.69766768250462
 11
-63.01617902738755
 21
39.09414408234708
  0
LINE
  8
0
 10
-63.01617902738755
 20
39.09414408234708
 11
-62.53830715526193
 21
38.57525723355769
  0
LINE
  8
0
 10
-62.53830715526193
 20
38.57525723355769
 11
-62.056530232380034
 21
38.088027724246174
  0
LINE
  8
0
 10
-62.056530232380034
 20
38.088027724246174
 11
-61.93704491310409
 21
37.92238961709476
  0
LINE
  8
0
 10
-61.93704491310409
 20
37.92238961709476
 11
-61.90590560614932
 21
37.799214364525795
  0
LINE
  8
0
 10
-61.90590560614932
 20
37.799214364525795
 11
-63.06191779058772
 21
35.83735872055918
  0
LINE
  8
0
 10
-63.06191779058772
 20
35.83735872055918
 11
-63.184755532749556
 21
35.80491356092451
  0
LINE
  8
0
 10
-63.184755532749556
 20
35.80491356092451
 11
-63.38754634971443
 21
35.82917481842626
  0
LINE
  8
0
 10
-63.38754634971443
 20
35.82917481842626
 11
-64.04720216545114
 21
36.01452800271787
  0
LINE
  8
0
 10
-64.04720216545114
 20
36.01452800271787
 11
-64.73265845736964
 21
36.18112560140526
  0
LINE
  8
0
 10
-64.73265845736964
 20
36.18112560140526
 11
-65.51133502048239
 21
36.34134389177873
  0
LINE
  8
0
 10
-65.51133502048239
 20
36.34134389177873
 11
-66.38353215983568
 21
36.48875312085763
  0
LINE
  8
0
 10
-66.38353215983568
 20
36.48875312085763
 11
-67.34921050583738
 21
36.61689811954128
  0
LINE
  8
0
 10
-67.34921050583738
 20
36.61689811954128
 11
-68.3851609611978
 21
36.717106097995476
  0
LINE
  8
0
 10
-68.3851609611978
 20
36.717106097995476
 11
-68.91851687595458
 21
35.811953604194315
  0
LINE
  8
0
 10
-68.91851687595458
 20
35.811953604194315
 11
-69.35263940928677
 21
34.85523672084072
  0
LINE
  8
0
 10
-69.35263940928677
 20
34.85523672084072
 11
-68.67518766300785
 21
34.06511387194077
  0
LINE
  8
0
 10
-68.67518766300785
 20
34.06511387194077
 11
-68.01526649926431
 21
33.34855273269472
  0
LINE
  8
0
 10
-68.01526649926431
 20
33.34855273269472
 11
-67.39331318298684
 21
32.7195603614445
  0
LINE
  8
0
 10
-67.39331318298684
 20
32.7195603614445
 11
-66.81463262611662
 21
32.1744586245075
  0
LINE
  8
0
 10
-66.81463262611662
 20
32.1744586245075
 11
-66.28431370180616
 21
31.709306040365902
  0
LINE
  8
0
 10
-66.28431370180616
 20
31.709306040365902
 11
-65.75347681859152
 21
31.276046532005736
  0
LINE
  8
0
 10
-65.75347681859152
 20
31.276046532005736
 11
-65.61706215575609
 21
31.124047308893672
  0
LINE
  8
0
 10
-65.61706215575609
 20
31.124047308893672
 11
-65.57300653225549
 21
31.004879774216555
  0
LINE
  8
0
 10
-65.57300653225549
 20
31.004879774216555
 11
-66.51393720197537
 21
28.931261869897092
  0
LINE
  8
0
 10
-66.51393720197537
 20
28.931261869897092
 11
-66.63263033467616
 21
28.88594366679054
  0
LINE
  8
0
 10
-66.63263033467616
 20
28.88594366679054
 11
-66.83685111477342
 21
28.88851213662891
  0
LINE
  8
0
 10
-66.83685111477342
 20
28.88851213662891
 11
-67.51247168455563
 21
29.002698142117605
  0
LINE
  8
0
 10
-67.51247168455563
 20
29.002698142117605
 11
-68.21175296909817
 21
29.095492393596995
  0
LINE
  8
0
 10
-68.21175296909817
 20
29.095492393596995
 11
-69.00304833445746
 21
29.17203476926034
  0
LINE
  8
0
 10
-69.00304833445746
 20
29.17203476926034
 11
-69.88597294353555
 21
29.225900021492112
  0
LINE
  8
0
 10
-69.88597294353555
 20
29.225900021492112
 11
-70.85980150735277
 21
29.25067373574545
  0
LINE
  8
0
 10
-70.85980150735277
 20
29.25067373574545
 11
-71.90053455173074
 21
29.240199231122936
  0
LINE
  8
0
 10
-71.90053455173074
 20
29.240199231122936
 11
-72.33465708506283
 21
28.283482347769276
  0
LINE
  8
0
 10
-72.33465708506283
 20
28.283482347769276
 11
-72.66462745520106
 21
27.28604105943628
  0
LINE
  8
0
 10
-72.66462745520106
 20
27.28604105943628
 11
-71.9070286967136
 21
26.57240312180375
  0
LINE
  8
0
 10
-71.9070286967136
 20
26.57240312180375
 11
-71.1746803370383
 21
25.930046765319947
  0
LINE
  8
0
 10
-71.1746803370383
 20
25.930046765319947
 11
-70.48939271897173
 21
25.37072734741623
  0
LINE
  8
0
 10
-70.48939271897173
 20
25.37072734741623
 11
-69.8560497394192
 21
24.890223694190876
  0
LINE
  8
0
 10
-69.8560497394192
 20
24.890223694190876
 11
-69.27929248824103
 21
24.48407573934093
  0
LINE
  8
0
 10
-69.27929248824103
 20
24.48407573934093
 11
-68.70541023869217
 21
24.109695235283546
  0
LINE
  8
0
 10
-68.70541023869217
 20
24.109695235283546
 11
-68.55361186493569
 21
23.973057108144506
  0
LINE
  8
0
 10
-68.55361186493569
 20
23.973057108144506
 11
-68.49713909270724
 21
23.859247507144048
  0
LINE
  8
0
 10
-68.49713909270724
 20
23.859247507144048
 11
-69.21232712724385
 21
21.69736226190335
  0
LINE
  8
0
 10
-69.21232712724385
 20
21.69736226190335
 11
-69.32553080986274
 21
21.639684488674344
  0
LINE
  8
0
 10
-69.32553080986274
 20
21.639684488674344
 11
-69.52886765005142
 21
21.62053106905977
  0
LINE
  8
0
 10
-69.52886765005142
 20
21.62053106905977
 11
-70.21279792285921
 21
21.662256122676947
  0
LINE
  8
0
 10
-70.21279792285921
 20
21.662256122676947
 11
-70.91798106365329
 21
21.680195631000363
  0
LINE
  8
0
 10
-70.91798106365329
 20
21.680195631000363
 11
-71.712929538584
 21
21.672194836252544
  0
LINE
  8
0
 10
-71.712929538584
 20
21.672194836252544
 11
-72.59657772876727
 21
21.631905796805945
  0
LINE
  8
0
 10
-72.59657772876727
 20
21.631905796805945
 11
-73.56752264364982
 21
21.553027530547396
  0
LINE
  8
0
 10
-73.56752264364982
 20
21.553027530547396
 11
-74.60124635579673
 21
21.431989223170945
  0
LINE
  8
0
 10
-74.60124635579673
 20
21.431989223170945
 11
-74.93121672593489
 21
20.434547934837823
  0
LINE
  8
0
 10
-74.93121672593489
 20
20.434547934837823
 11
-75.15329623673604
 21
19.40768364987954
  0
LINE
  8
0
 10
-75.15329623673604
 20
19.40768364987954
 11
-74.32413436269478
 21
18.77861642650307
  0
LINE
  8
0
 10
-74.32413436269478
 20
18.77861642650307
 11
-73.52765660663442
 21
18.217743006973063
  0
LINE
  8
0
 10
-73.52765660663442
 20
18.217743006973063
 11
-72.78679926931848
 21
17.734433854913394
  0
LINE
  8
0
 10
-72.78679926931848
 20
17.734433854913394
 11
-72.10596989611301
 21
17.323972583790244
  0
LINE
  8
0
 10
-72.10596989611301
 20
17.323972583790244
 11
-71.48930920818344
 21
16.981431076848896
  0
LINE
  8
0
 10
-71.48930920818344
 20
16.981431076848896
 11
-70.87888390749947
 21
16.670171457800123
  0
LINE
  8
0
 10
-70.87888390749947
 20
16.670171457800123
 11
-70.71342175905215
 21
16.550442591212416
  0
LINE
  8
0
 10
-70.71342175905215
 20
16.550442591212416
 11
-70.6451716971706
 21
16.44328043214396
  0
LINE
  8
0
 10
-70.6451716971706
 20
16.44328043214396
 11
-71.126513730318
 21
14.217622869656129
  0
LINE
  8
0
 10
-71.126513730318
 20
14.217622869656129
 11
-71.23294531989701
 21
14.148239038522215
  0
LINE
  8
0
 10
-71.23294531989701
 20
14.148239038522215
 11
-71.43309433252848
 21
14.107580745352237
  0
LINE
  8
0
 10
-71.43309433252848
 20
14.107580745352237
 11
-72.11758510508628
 21
14.07637208556794
  0
LINE
  8
0
 10
-72.11758510508628
 20
14.07637208556794
 11
-72.82068009536981
 21
14.019253588937811
  0
LINE
  8
0
 10
-72.82068009536981
 20
14.019253588937811
 11
-73.6102745960057
 21
13.926800275980272
  0
LINE
  8
0
 10
-73.6102745960057
 20
13.926800275980272
 11
-74.48463428021147
 21
13.792813435770912
  0
LINE
  8
0
 10
-74.48463428021147
 20
13.792813435770912
 11
-75.4416943523038
 21
13.611176911275347
  0
LINE
  8
0
 10
-75.4416943523038
 20
13.611176911275347
 11
-76.45669622950597
 21
13.38094621353197
  0
LINE
  8
0
 10
-76.45669622950597
 20
13.38094621353197
 11
-76.678775740307
 21
12.354081928573649
  0
LINE
  8
0
 10
-76.678775740307
 20
12.354081928573649
 11
-76.7904481421752
 21
11.309429429652813
  0
LINE
  8
0
 10
-76.7904481421752
 20
11.309429429652813
 11
-75.89911788792938
 21
10.772060503535778
  0
LINE
  8
0
 10
-75.89911788792938
 20
10.772060503535778
 11
-75.04753514671648
 21
10.299024940916473
  0
LINE
  8
0
 10
-75.04753514671648
 20
10.299024940916473
 11
-74.25950229981453
 21
9.897202140514237
  0
LINE
  8
0
 10
-74.25950229981453
 20
9.897202140514237
 11
-73.53890060180015
 21
9.561433941707117
  0
LINE
  8
0
 10
-73.53890060180015
 20
9.561433941707117
 11
-72.88932348911857
 21
9.286380014820647
  0
LINE
  8
0
 10
-72.88932348911857
 20
9.286380014820647
 11
-72.24927149986979
 21
9.041767976637345
  0
LINE
  8
0
 10
-72.24927149986979
 20
9.041767976637345
 11
-72.07202032898887
 21
8.94030494650064
  0
LINE
  8
0
 10
-72.07202032898887
 20
8.94030494650064
 11
-71.99276627792666
 21
8.841004419446257
  0
LINE
  8
0
 10
-71.99276627792666
 20
8.841004419446257
 11
-72.23480851211475
 21
6.576792129221912
  0
LINE
  8
0
 10
-72.23480851211475
 20
6.576792129221912
 11
-72.33326209621607
 21
6.496488386714215
  0
LINE
  8
0
 10
-72.33326209621607
 20
6.496488386714215
 11
-72.52795551300173
 21
6.434785894696684
  0
LINE
  8
0
 10
-72.52795551300173
 20
6.434785894696684
 11
-73.20525123134783
 21
6.330997128096608
  0
LINE
  8
0
 10
-73.20525123134783
 20
6.330997128096608
 11
-73.89829172393839
 21
6.199467801903153
  0
LINE
  8
0
 10
-73.89829172393839
 20
6.199467801903153
 11
-74.67358582908129
 21
6.023609503714174
  0
LINE
  8
0
 10
-74.67358582908129
 20
6.023609503714174
 11
-75.5287501627111
 21
5.797442987180049
  0
LINE
  8
0
 10
-75.5287501627111
 20
5.797442987180049
 11
-76.46108151897464
 21
5.515106218848277
  0
LINE
  8
0
 10
-76.46108151897464
 20
5.515106218848277
 11
-77.44586118438916
 21
5.178291736538938
  0
LINE
  8
0
 10
-77.44586118438916
 20
5.178291736538938
 11
-77.55753358625726
 21
4.133639237618137
  0
LINE
  8
0
 10
-77.55753358625726
 20
4.133639237618137
 11
-77.55753358625742
 21
3.08303485496949
  0
LINE
  8
0
 10
-77.55753358625742
 20
3.08303485496949
 11
-76.61413407974504
 21
2.643452830766511
  0
LINE
  8
0
 10
-76.61413407974504
 20
2.643452830766511
 11
-75.71709512611275
 21
2.263614806997812
  0
LINE
  8
0
 10
-75.71709512611275
 20
2.263614806997812
 11
-74.89081549666213
 21
1.9478311711418004
  0
LINE
  8
0
 10
-74.89081549666213
 20
1.9478311711418004
 11
-74.13860617901517
 21
1.690560432509364
  0
LINE
  8
0
 10
-74.13860617901517
 20
1.690560432509364
 11
-73.46347260982608
 21
1.4861105565753685
  0
LINE
  8
0
 10
-73.46347260982608
 20
1.4861105565753685
 11
-72.8010459768025
 21
1.3109176513921619
  0
LINE
  8
0
 10
-72.8010459768025
 20
1.3109176513921619
 11
-72.61401411008002
 21
1.2288700743804761
  0
LINE
  8
0
 10
-72.61401411008002
 20
1.2288700743804761
 11
-72.52465404990402
 21
1.1385562939901699
  0
LINE
  8
0
 10
-72.52465404990402
 20
1.1385562939901699
 11
-72.5246540499043
 21
-1.1385562939891196
  0
LINE
  8
0
 10
-72.5246540499043
 20
-1.1385562939891196
 11
-72.61401411007999
 21
-1.2288700743802408
  0
LINE
  8
0
 10
-72.61401411007999
 20
-1.2288700743802408
 11
-72.8010459768121
 21
-1.3109176513557026
  0
LINE
  8
0
 10
-72.8010459768121
 20
-1.3109176513557026
 11
-73.46347260982398
 21
-1.4861105565740873
  0
LINE
  8
0
 10
-73.46347260982398
 20
-1.4861105565740873
 11
-74.13860617901561
 21
-1.690560432508648
  0
LINE
  8
0
 10
-74.13860617901561
 20
-1.690560432508648
 11
-74.89081549666246
 21
-1.947831171141175
  0
LINE
  8
0
 10
-74.89081549666246
 20
-1.947831171141175
 11
-75.71709512610995
 21
-2.2636148069961752
  0
LINE
  8
0
 10
-75.71709512610995
 20
-2.2636148069961752
 11
-76.6141340797375
 21
-2.6434528307629095
  0
LINE
  8
0
 10
-76.6141340797375
 20
-2.6434528307629095
 11
-77.55753358625734
 21
-3.0830348549694007
  0
LINE
  8
0
 10
-77.55753358625734
 20
-3.0830348549694007
 11
-77.55753358625732
 21
-4.13363923761811
  0
LINE
  8
0
 10
-77.55753358625732
 20
-4.13363923761811
 11
-77.44586118438929
 21
-5.178291736538965
  0
LINE
  8
0
 10
-77.44586118438929
 20
-5.178291736538965
 11
-76.46108151898251
 21
-5.515106218845597
  0
LINE
  8
0
 10
-76.46108151898251
 20
-5.515106218845597
 11
-75.52875016271405
 21
-5.797442987178819
  0
LINE
  8
0
 10
-75.52875016271405
 20
-5.797442987178819
 11
-74.67358582908102
 21
-6.023609503713614
  0
LINE
  8
0
 10
-74.67358582908102
 20
-6.023609503713614
 11
-73.89829172393803
 21
-6.199467801902493
  0
LINE
  8
0
 10
-73.89829172393803
 20
-6.199467801902493
 11
-73.20525123135005
 21
-6.330997128095653
  0
LINE
  8
0
 10
-73.20525123135005
 20
-6.330997128095653
 11
-72.52795551299604
 21
-6.434785894659505
  0
LINE
  8
0
 10
-72.52795551299604
 20
-6.434785894659505
 11
-72.33326209621613
 21
-6.496488386714081
  0
LINE
  8
0
 10
-72.33326209621613
 20
-6.496488386714081
 11
-72.23480851211458
 21
-6.576792129220931
  0
LINE
  8
0
 10
-72.23480851211458
 20
-6.576792129220931
 11
-71.99276627792705
 21
-8.841004419445337
  0
LINE
  8
0
 10
-71.99276627792705
 20
-8.841004419445337
 11
-72.07202032898884
 21
-8.940304946500495
  0
LINE
  8
0
 10
-72.07202032898884
 20
-8.940304946500495
 11
-72.2492714998832
 21
-9.041767976602209
  0
LINE
  8
0
 10
-72.2492714998832
 20
-9.041767976602209
 11
-72.8893234891166
 21
-9.286380014819247
  0
LINE
  8
0
 10
-72.8893234891166
 20
-9.286380014819247
 11
-73.53890060180065
 21
-9.56143394170655
  0
LINE
  8
0
 10
-73.53890060180065
 20
-9.56143394170655
 11
-74.25950229981491
 21
-9.89720214051375
  0
LINE
  8
0
 10
-74.25950229981491
 20
-9.89720214051375
 11
-75.04753514671388
 21
-10.29902494091465
  0
LINE
  8
0
 10
-75.04753514671388
 20
-10.29902494091465
 11
-75.89911788792226
 21
-10.772060503531495
  0
LINE
  8
0
 10
-75.89911788792226
 20
-10.772060503531495
 11
-76.7904481421752
 21
-11.309429429652827
  0
LINE
  8
0
 10
-76.7904481421752
 20
-11.309429429652827
 11
-76.67877574030706
 21
-12.354081928573692
  0
LINE
  8
0
 10
-76.67877574030706
 20
-12.354081928573692
 11
-76.4566962295061
 21
-13.380946213532019
  0
LINE
  8
0
 10
-76.4566962295061
 20
-13.380946213532019
 11
-75.44169435231193
 21
-13.611176911273526
  0
LINE
  8
0
 10
-75.44169435231193
 20
-13.611176911273526
 11
-74.48463428021452
 21
-13.792813435770002
  0
LINE
  8
0
 10
-74.48463428021452
 20
-13.792813435770002
 11
-73.6102745960055
 21
-13.926800275979693
  0
LINE
  8
0
 10
-73.6102745960055
 20
-13.926800275979693
 11
-72.82068009536951
 21
-14.01925358893712
  0
LINE
  8
0
 10
-72.82068009536951
 20
-14.01925358893712
 11
-72.1175851050886
 21
-14.076372085567225
  0
LINE
  8
0
 10
-72.1175851050886
 20
-14.076372085567225
 11
-71.43309433252678
 21
-14.107580745314666
  0
LINE
  8
0
 10
-71.43309433252678
 20
-14.107580745314666
 11
-71.23294531989708
 21
-14.148239038522089
  0
LINE
  8
0
 10
-71.23294531989708
 20
-14.148239038522089
 11
-71.12651373031791
 21
-14.217622869655134
  0
LINE
  8
0
 10
-71.12651373031791
 20
-14.217622869655134
 11
-70.6451716971711
 21
-16.443280432143087
  0
LINE
  8
0
 10
-70.6451716971711
 20
-16.443280432143087
 11
-70.71342175905214
 21
-16.55044259121227
  0
LINE
  8
0
 10
-70.71342175905214
 20
-16.55044259121227
 11
-70.87888390751655
 21
-16.670171457766614
  0
LINE
  8
0
 10
-70.87888390751655
 20
-16.670171457766614
 11
-71.48930920818165
 21
-16.981431076847294
  0
LINE
  8
0
 10
-71.48930920818165
 20
-16.981431076847294
 11
-72.10596989611356
 21
-17.32397258378973
  0
LINE
  8
0
 10
-72.10596989611356
 20
-17.32397258378973
 11
-72.7867992693189
 21
-17.73443385491295
  0
LINE
  8
0
 10
-72.7867992693189
 20
-17.73443385491295
 11
-73.52765660663202
 21
-18.217743006970966
  0
LINE
  8
0
 10
-73.52765660663202
 20
-18.217743006970966
 11
-74.32413436268816
 21
-18.778616426498058
  0
LINE
  8
0
 10
-74.32413436268816
 20
-18.778616426498058
 11
-75.15329623673593
 21
-19.40768364987953
  0
LINE
  8
0
 10
-75.15329623673593
 20
-19.40768364987953
 11
-74.93121672593485
 21
-20.434547934837845
  0
LINE
  8
0
 10
-74.93121672593485
 20
-20.434547934837845
 11
-74.60124635579683
 21
-21.43198922317091
  0
LINE
  8
0
 10
-74.60124635579683
 20
-21.43198922317091
 11
-73.56752264365811
 21
-21.55302753054638
  0
LINE
  8
0
 10
-73.56752264365811
 20
-21.55302753054638
 11
-72.59657772877044
 21
-21.631905796805302
  0
LINE
  8
0
 10
-72.59657772877044
 20
-21.631905796805302
 11
-71.7129295385839
 21
-21.67219483625188
  0
LINE
  8
0
 10
-71.7129295385839
 20
-21.67219483625188
 11
-70.91798106365309
 21
-21.68019563099958
  0
LINE
  8
0
 10
-70.91798106365309
 20
-21.68019563099958
 11
-70.21279792286161
 21
-21.66225612267642
  0
LINE
  8
0
 10
-70.21279792286161
 20
-21.66225612267642
 11
-69.52886765005373
 21
-21.620531069022167
  0
LINE
  8
0
 10
-69.52886765005373
 20
-21.620531069022167
 11
-69.32553080986285
 21
-21.639684488674167
  0
LINE
  8
0
 10
-69.32553080986285
 20
-21.639684488674167
 11
-69.2123271272439
 21
-21.697362261902295
  0
LINE
  8
0
 10
-69.2123271272439
 20
-21.697362261902295
 11
-68.49713909270784
 21
-23.85924750714317
  0
LINE
  8
0
 10
-68.49713909270784
 20
-23.85924750714317
 11
-68.5536118649357
 21
-23.973057108144303
  0
LINE
  8
0
 10
-68.5536118649357
 20
-23.973057108144303
 11
-68.70541023871274
 21
-24.109695235251984
  0
LINE
  8
0
 10
-68.70541023871274
 20
-24.109695235251984
 11
-69.27929248823942
 21
-24.484075739339083
  0
LINE
  8
0
 10
-69.27929248823942
 20
-24.484075739339083
 11
-69.85604973941984
 21
-24.89022369419036
  0
LINE
  8
0
 10
-69.85604973941984
 20
-24.89022369419036
 11
-70.48939271897223
 21
-25.37072734741577
  0
LINE
  8
0
 10
-70.48939271897223
 20
-25.37072734741577
 11
-71.17468033703615
 21
-25.930046765317545
  0
LINE
  8
0
 10
-71.17468033703615
 20
-25.930046765317545
 11
-71.90702869670756
 21
-26.572403121797986
  0
LINE
  8
0
 10
-71.90702869670756
 20
-26.572403121797986
 11
-72.66462745520101
 21
-27.286041059436194
  0
LINE
  8
0
 10
-72.66462745520101
 20
-27.286041059436194
 11
-72.33465708506284
 21
-28.28348234776928
  0
LINE
  8
0
 10
-72.33465708506284
 20
-28.28348234776928
 11
-71.90053455173083
 21
-29.240199231122944
  0
LINE
  8
0
 10
-71.90053455173083
 20
-29.240199231122944
 11
-70.85980150736111
 21
-29.250673735745348
  0
LINE
  8
0
 10
-70.85980150736111
 20
-29.250673735745348
 11
-69.88597294353876
 21
-29.225900021491842
  0
LINE
  8
0
 10
-69.88597294353876
 20
-29.225900021491842
 11
-69.00304833445739
 21
-29.1720347692597
  0
LINE
  8
0
 10
-69.00304833445739
 20
-29.1720347692597
 11
-68.21175296909806
 21
-29.095492393596224
  0
LINE
  8
0
 10
-68.21175296909806
 20
-29.095492393596224
 11
-67.51247168455807
 21
-29.002698142117367
  0
LINE
  8
0
 10
-67.51247168455807
 20
-29.002698142117367
 11
-66.83685111477972
 21
-28.888512136591796
  0
LINE
  8
0
 10
-66.83685111477972
 20
-28.888512136591796
 11
-66.63263033467626
 21
-28.885943666790403
  0
LINE
  8
0
 10
-66.63263033467626
 20
-28.885943666790403
 11
-66.5139372019755
 21
-28.931261869896073
  0
LINE
  8
0
 10
-66.5139372019755
 20
-28.931261869896073
 11
-65.57300653225616
 21
-31.004879774215777
  0
LINE
  8
0
 10
-65.57300653225616
 20
-31.004879774215777
 11
-65.61706215575612
 21
-31.124047308893502
  0
LINE
  8
0
 10
-65.61706215575612
 20
-31.124047308893502
 11
-65.75347681861531
 21
-31.27604653197656
  0
LINE
  8
0
 10
-65.75347681861531
 20
-31.27604653197656
 11
-66.28431370180473
 21
-31.709306040363927
  0
LINE
  8
0
 10
-66.28431370180473
 20
-31.709306040363927
 11
-66.81463262611729
 21
-32.174458624507096
  0
LINE
  8
0
 10
-66.81463262611729
 20
-32.174458624507096
 11
-67.39331318298737
 21
-32.71956036144414
  0
LINE
  8
0
 10
-67.39331318298737
 20
-32.71956036144414
 11
-68.01526649926242
 21
-33.34855273269214
  0
LINE
  8
0
 10
-68.01526649926242
 20
-33.34855273269214
 11
-68.67518766300246
 21
-34.065113871934436
  0
LINE
  8
0
 10
-68.67518766300246
 20
-34.065113871934436
 11
-69.35263940928675
 21
-34.8552367208407
  0
LINE
  8
0
 10
-69.35263940928675
 20
-34.8552367208407
 11
-68.91851687595467
 21
-35.81195360419434
  0
LINE
  8
0
 10
-68.91851687595467
 20
-35.81195360419434
 11
-68.38516096119784
 21
-36.71710609799552
  0
LINE
  8
0
 10
-68.38516096119784
 20
-36.71710609799552
 11
-67.34921050584568
 21
-36.61689811954211
  0
LINE
  8
0
 10
-67.34921050584568
 20
-36.61689811954211
 11
-66.38353215983888
 21
-36.48875312085774
  0
LINE
  8
0
 10
-66.38353215983888
 20
-36.48875312085774
 11
-65.51133502048238
 21
-36.34134389177813
  0
LINE
  8
0
 10
-65.51133502048238
 20
-36.34134389177813
 11
-64.7326584573696
 21
-36.181125601404524
  0
LINE
  8
0
 10
-64.7326584573696
 20
-36.181125601404524
 11
-64.04720216545356
 21
-36.01452800271792
  0
LINE
  8
0
 10
-64.04720216545356
 20
-36.01452800271792
 11
-63.387546349724616
 21
-35.829174818390065
  0
LINE
  8
0
 10
-63.387546349724616
 20
-35.829174818390065
 11
-63.18475553274966
 21
-35.804913560924426
  0
LINE
  8
0
 10
-63.18475553274966
 20
-35.804913560924426
 11
-63.061917790587955
 21
-35.837358720558214
  0
LINE
  8
0
 10
-63.061917790587955
 20
-35.837358720558214
 11
-61.90590560615005
 21
-37.799214364525135
  0
LINE
  8
0
 10
-61.90590560615005
 20
-37.799214364525135
 11
-61.93704491310412
 21
-37.92238961709462
  0
LINE
  8
0
 10
-61.93704491310412
 20
-37.92238961709462
 11
-62.056530232406764
 21
-38.088027724219735
  0
LINE
  8
0
 10
-62.056530232406764
 20
-38.088027724219735
 11
-62.53830715526073
 21
-38.575257233555604
  0
LINE
  8
0
 10
-62.53830715526073
 20
-38.575257233555604
 11
-63.01617902738825
 21
-39.094144082346766
  0
LINE
  8
0
 10
-63.01617902738825
 20
-39.094144082346766
 11
-63.53364047963769
 21
-39.69766768250434
  0
LINE
  8
0
 10
-63.53364047963769
 20
-39.69766768250434
 11
-64.08521251453051
 21
-40.38920627219974
  0
LINE
  8
0
 10
-64.08521251453051
 20
-40.38920627219974
 11
-64.66522931186289
 21
-41.17185327017297
  0
LINE
  8
0
 10
-64.66522931186289
 20
-41.17185327017297
 11
-65.25485824695663
 21
-42.029508622752076
  0
LINE
  8
0
 10
-65.25485824695663
 20
-42.029508622752076
 11
-64.7215023321998
 21
-42.934661116553244
  0
LINE
  8
0
 10
-64.7215023321998
 20
-42.934661116553244
 11
-64.0949561716507
 21
-43.777993481366615
  0
LINE
  8
0
 10
-64.0949561716507
 20
-43.777993481366615
 11
-63.07552603791995
 21
-43.56823841627431
  0
LINE
  8
0
 10
-63.07552603791995
 20
-43.56823841627431
 11
-62.12893943125447
 21
-43.33817406719832
  0
LINE
  8
0
 10
-62.12893943125447
 20
-43.33817406719832
 11
-61.277352103724034
 21
-43.098891066738446
  0
LINE
  8
0
 10
-61.277352103724034
 20
-43.098891066738446
 11
-60.52011705946124
 21
-42.856812198904635
  0
LINE
  8
0
 10
-60.52011705946124
 20
-42.856812198904635
 11
-59.85625225385101
 21
-42.61829887037243
  0
LINE
  8
0
 10
-59.85625225385101
 20
-42.61829887037243
 11
-59.220035356148756
 21
-42.36387863288409
  0
LINE
  8
0
 10
-59.220035356148756
 20
-42.36387863288409
 11
-59.02097220328973
 21
-42.31819947749561
  0
LINE
  8
0
 10
-59.02097220328973
 20
-42.31819947749561
 11
-58.895381652369245
 21
-42.337403977034434
  0
LINE
  8
0
 10
-58.895381652369245
 20
-42.337403977034434
 11
-57.537386033181505
 21
-44.165268752284675
  0
LINE
  8
0
 10
-57.537386033181505
 20
-44.165268752284675
 11
-57.55525620279924
 21
-44.29105609791598
  0
LINE
  8
0
 10
-57.55525620279924
 20
-44.29105609791598
 11
-57.65645836213373
 21
-44.468456343143785
  0
LINE
  8
0
 10
-57.65645836213373
 20
-44.468456343143785
 11
-58.08371659960802
 21
-45.00413534840036
  0
LINE
  8
0
 10
-58.08371659960802
 20
-45.00413534840036
 11
-58.503726940291386
 21
-45.57087726650606
  0
LINE
  8
0
 10
-58.503726940291386
 20
-45.57087726650606
 11
-58.95410624289909
 21
-46.22598456633858
  0
LINE
  8
0
 10
-58.95410624289909
 20
-46.22598456633858
 11
-59.429047464857355
 21
-46.972233965935324
  0
LINE
  8
0
 10
-59.429047464857355
 20
-46.972233965935324
 11
-59.92258807370535
 21
-47.81209911942258
  0
LINE
  8
0
 10
-59.92258807370535
 20
-47.81209911942258
 11
-60.41771346617012
 21
-48.727569397828134
  0
LINE
  8
0
 10
-60.41771346617012
 20
-48.727569397828134
 11
-59.791167305620924
 21
-49.570901762641526
  0
LINE
  8
0
 10
-59.791167305620924
 20
-49.570901762641526
 11
-59.07852991763367
 21
-50.34285870579527
  0
LINE
  8
0
 10
-59.07852991763367
 20
-50.34285870579527
 11
-58.08717065628316
 21
-50.02593316276543
  0
LINE
  8
0
 10
-58.08717065628316
 20
-50.02593316276543
 11
-57.17040099344934
 21
-49.69655618430188
  0
LINE
  8
0
 10
-57.17040099344934
 20
-49.69655618430188
 11
-56.34907230244292
 21
-49.3681105844696
  0
LINE
  8
0
 10
-56.34907230244292
 20
-49.3681105844696
 11
-55.621858552657386
 21
-49.04691398947794
  0
LINE
  8
0
 10
-55.621858552657386
 20
-49.04691398947794
 11
-54.98710708686744
 21
-48.7391873824175
  0
LINE
  8
0
 10
-54.98710708686744
 20
-48.7391873824175
 11
-54.38153769886222
 21
-48.41858277472058
  0
LINE
  8
0
 10
-54.38153769886222
 20
-48.41858277472058
 11
-54.18845767518261
 21
-48.35200328449227
  0
LINE
  8
0
 10
-54.18845767518261
 20
-48.35200328449227
 11
-54.06153730662871
 21
-48.357749529282636
  0
LINE
  8
0
 10
-54.06153730662871
 20
-48.357749529282636
 11
-52.51694488568403
 21
-50.03091299753492
  0
LINE
  8
0
 10
-52.51694488568403
 20
-50.03091299753492
 11
-52.52134344180314
 21
-50.15788721533996
  0
LINE
  8
0
 10
-52.52134344180314
 20
-50.15788721533996
 11
-52.60311578026587
 21
-50.345039583006475
  0
LINE
  8
0
 10
-52.60311578026587
 20
-50.345039583006475
 11
-52.97101432580616
 21
-50.92309862700774
  0
LINE
  8
0
 10
-52.97101432580616
 20
-50.92309862700774
 11
-53.32840425005782
 21
-51.531274202037245
  0
LINE
  8
0
 10
-53.32840425005782
 20
-51.531274202037245
 11
-53.7065984255628
 21
-52.23054257407002
  0
LINE
  8
0
 10
-53.7065984255628
 20
-52.23054257407002
 11
-54.099527560764834
 21
-53.02304747968455
  0
LINE
  8
0
 10
-54.099527560764834
 20
-53.02304747968455
 11
-54.500999968821375
 21
-53.91061478090373
  0
LINE
  8
0
 10
-54.500999968821375
 20
-53.91061478090373
 11
-54.89601185011855
 21
-54.87352734107807
  0
LINE
  8
0
 10
-54.89601185011855
 20
-54.87352734107807
 11
-54.18337446213121
 21
-55.64548428423177
  0
LINE
  8
0
 10
-54.18337446213121
 20
-55.64548428423177
 11
-53.3927203130671
 21
-56.337319225101545
  0
LINE
  8
0
 10
-53.3927203130671
 20
-56.337319225101545
 11
-52.440664420655004
 21
-55.916814097173734
  0
LINE
  8
0
 10
-52.440664420655004
 20
-55.916814097173734
 11
-51.5640990682553
 21
-55.491856462101
  0
LINE
  8
0
 10
-51.5640990682553
 20
-55.491856462101
 11
-50.78233499602829
 21
-55.077969682782616
  0
LINE
  8
0
 10
-50.78233499602829
 20
-55.077969682782616
 11
-50.093382163084954
 21
-54.68129464639801
  0
LINE
  8
0
 10
-50.093382163084954
 20
-54.68129464639801
 11
-49.49493602485651
 21
-54.30784142622863
  0
LINE
  8
0
 10
-49.49493602485651
 20
-54.30784142622863
 11
-48.926875489687674
 21
-53.92468502663546
  0
LINE
  8
0
 10
-48.926875489687674
 20
-53.92468502663546
 11
-48.74196626900664
 21
-53.83795957379541
  0
LINE
  8
0
 10
-48.74196626900664
 20
-53.83795957379541
 11
-48.615154141309844
 21
-53.83018245658775
  0
LINE
  8
0
 10
-48.615154141309844
 20
-53.83018245658775
 11
-46.90146576792536
 21
-55.329687007184575
  0
LINE
  8
0
 10
-46.90146576792536
 20
-55.329687007184575
 11
-46.89234287314742
 21
-55.45640942853931
  0
LINE
  8
0
 10
-46.89234287314742
 20
-55.45640942853931
 11
-46.95375887746904
 21
-55.65119340753659
  0
LINE
  8
0
 10
-46.95375887746904
 20
-55.65119340753659
 11
-47.258129293549565
 21
-56.265082850333314
  0
LINE
  8
0
 10
-47.258129293549565
 20
-56.265082850333314
 11
-47.54884943072198
 21
-56.907801210006916
  0
LINE
  8
0
 10
-47.54884943072198
 20
-56.907801210006916
 11
-47.85057338799703
 21
-57.64330766417135
  0
LINE
  8
0
 10
-47.85057338799703
 20
-57.64330766417135
 11
-48.157038392334485
 21
-58.47308867855416
  0
LINE
  8
0
 10
-48.157038392334485
 20
-58.47308867855416
 11
-48.46189375679605
 21
-59.39830163532856
  0
LINE
  8
0
 10
-48.46189375679605
 20
-59.39830163532856
 11
-48.752316484471685
 21
-60.39774629320449
  0
LINE
  8
0
 10
-48.752316484471685
 20
-60.39774629320449
 11
-47.96166233540754
 21
-61.089581234074224
  0
LINE
  8
0
 10
-47.96166233540754
 20
-61.089581234074224
 11
-47.101949852704905
 21
-61.69345540633683
  0
LINE
  8
0
 10
-47.101949852704905
 20
-61.69345540633683
 11
-46.199984502914496
 21
-61.174135184635816
  0
LINE
  8
0
 10
-46.199984502914496
 20
-61.174135184635816
 11
-45.37355529664936
 21
-60.658411832763726
  0
LINE
  8
0
 10
-45.37355529664936
 20
-60.658411832763726
 11
-44.64021354251716
 21
-60.16377337654967
  0
LINE
  8
0
 10
-44.64021354251716
 20
-60.16377337654967
 11
-43.99732773730485
 21
-59.69611438543766
  0
LINE
  8
0
 10
-43.99732773730485
 20
-59.69611438543766
 11
-43.44196756051098
 21
-59.26116592636821
  0
LINE
  8
0
 10
-43.44196756051098
 20
-59.26116592636821
 11
-42.91785223102746
 21
-58.819799049987694
  0
LINE
  8
0
 10
-42.91785223102746
 20
-58.819799049987694
 11
-42.74320890870129
 21
-58.71391026857032
  0
LINE
  8
0
 10
-42.74320890870129
 20
-58.71391026857032
 11
-42.61794185393997
 21
-58.69269790721018
  0
LINE
  8
0
 10
-42.61794185393997
 20
-58.69269790721018
 11
-40.75457430214125
 21
-60.00155355442166
  0
LINE
  8
0
 10
-40.75457430214125
 20
-60.00155355442166
 11
-40.73203332250941
 21
-60.12658836365643
  0
LINE
  8
0
 10
-40.73203332250941
 20
-60.12658836365643
 11
-40.77239712482037
 21
-60.3267969736707
  0
LINE
  8
0
 10
-40.77239712482037
 20
-60.3267969736707
 11
-41.0097907730067
 21
-60.96956120257824
  0
LINE
  8
0
 10
-41.0097907730067
 20
-60.96956120257824
 11
-41.23054714777983
 21
-61.639540091063616
  0
LINE
  8
0
 10
-41.23054714777983
 20
-61.639540091063616
 11
-41.45238223382627
 21
-62.40295104534056
  0
LINE
  8
0
 10
-41.45238223382627
 20
-62.40295104534056
 11
-41.6689107363428
 21
-63.26060641803502
  0
LINE
  8
0
 10
-41.6689107363428
 20
-63.26060641803502
 11
-41.87369492411602
 21
-64.21298199786803
  0
LINE
  8
0
 10
-41.87369492411602
 20
-64.21298199786803
 11
-42.05623789261863
 21
-65.2376346461141
  0
LINE
  8
0
 10
-42.05623789261863
 20
-65.2376346461141
 11
-41.196525409915935
 21
-65.84150881837664
  0
LINE
  8
0
 10
-41.196525409915935
 20
-65.84150881837664
 11
-40.27749547952744
 21
-66.3505800863644
  0
LINE
  8
0
 10
-40.27749547952744
 20
-66.3505800863644
 11
-39.435840300178846
 21
-65.73832887651182
  0
LINE
  8
0
 10
-39.435840300178846
 20
-65.73832887651182
 11
-38.668911013179596
 21
-65.13768315948968
  0
LINE
  8
0
 10
-38.668911013179596
 20
-65.13768315948968
 11
-37.99230063224503
 21
-64.56789747773635
  0
LINE
  8
0
 10
-37.99230063224503
 20
-64.56789747773635
 11
-37.402766007820944
 21
-64.03455329513329
  0
LINE
  8
0
 10
-37.402766007820944
 20
-64.03455329513329
 11
-36.89678424517539
 21
-63.54303773700159
  0
LINE
  8
0
 10
-36.89678424517539
 20
-63.54303773700159
 11
-36.4225525574861
 21
-63.04846124690438
  0
LINE
  8
0
 10
-36.4225525574861
 20
-63.04846124690438
 11
-36.26015391214067
 21
-62.92460889911417
  0
LINE
  8
0
 10
-36.26015391214067
 20
-62.92460889911417
 11
-36.137851256099445
 21
-62.890201638131785
  0
LINE
  8
0
 10
-36.137851256099445
 20
-62.890201638131785
 11
-34.145917224812266
 21
-63.993578524482835
  0
LINE
  8
0
 10
-34.145917224812266
 20
-63.993578524482835
 11
-34.11021355863269
 21
-64.11550902724763
  0
LINE
  8
0
 10
-34.11021355863269
 20
-64.11550902724763
 11
-34.12906782092425
 21
-64.31887382472813
  0
LINE
  8
0
 10
-34.12906782092425
 20
-64.31887382472813
 11
-34.29679493632473
 21
-64.9832300641974
  0
LINE
  8
0
 10
-34.29679493632473
 20
-64.9832300641974
 11
-34.445086290762625
 21
-65.67287835297802
  0
LINE
  8
0
 10
-34.445086290762625
 20
-65.67287835297802
 11
-34.58451902541473
 21
-66.45554405621198
  0
LINE
  8
0
 10
-34.58451902541473
 20
-66.45554405621198
 11
-34.70865767165642
 21
-67.33135620914376
  0
LINE
  8
0
 10
-34.70865767165642
 20
-67.33135620914376
 11
-34.81105039606622
 21
-68.30010361616591
  0
LINE
  8
0
 10
-34.81105039606622
 20
-68.30010361616591
 11
-34.88364532062212
 21
-69.33835453084696
  0
LINE
  8
0
 10
-34.88364532062212
 20
-69.33835453084696
 11
-33.964615390233554
 21
-69.84742579883465
  0
LINE
  8
0
 10
-33.964615390233554
 20
-69.84742579883465
 11
-32.996680988496266
 21
-70.25592618166682
  0
LINE
  8
0
 10
-32.996680988496266
 20
-70.25592618166682
 11
-32.22487226907991
 21
-69.55768103451354
  0
LINE
  8
0
 10
-32.22487226907991
 20
-69.55768103451354
 11
-31.52613251661766
 21
-68.87891850832102
  0
LINE
  8
0
 10
-31.52613251661766
 20
-68.87891850832102
 11
-30.913919774856506
 21
-68.24044150047753
  0
LINE
  8
0
 10
-30.913919774856506
 20
-68.24044150047753
 11
-30.384415994081447
 21
-67.64745512908583
  0
LINE
  8
0
 10
-30.384415994081447
 20
-67.64745512908583
 11
-29.933545621135032
 21
-67.10494153956517
  0
LINE
  8
0
 10
-29.933545621135032
 20
-67.10494153956517
 11
-29.51457080975486
 21
-66.56275918500681
  0
LINE
  8
0
 10
-29.51457080975486
 20
-66.56275918500681
 11
-29.36625688293315
 21
-66.4223465674331
  0
LINE
  8
0
 10
-29.36625688293315
 20
-66.4223465674331
 11
-29.24830436357462
 21
-66.37513425484384
  0
LINE
  8
0
 10
-29.24830436357462
 20
-66.37513425484384
 11
-27.15037326130992
 21
-67.26053067932509
  0
LINE
  8
0
 10
-27.15037326130992
 20
-67.26053067932509
 11
-27.101911445386875
 21
-67.3779753543026
  0
LINE
  8
0
 10
-27.101911445386875
 20
-67.3779753543026
 11
-27.09904254133349
 21
-67.58219213483345
  0
LINE
  8
0
 10
-27.09904254133349
 20
-67.58219213483345
 11
-27.195202708710287
 21
-68.26061296320798
  0
LINE
  8
0
 10
-27.195202708710287
 20
-68.26061296320798
 11
-27.26934884251295
 21
-68.9621166616025
  0
LINE
  8
0
 10
-27.26934884251295
 20
-68.9621166616025
 11
-27.324799397172615
 21
-69.75516919863847
  0
LINE
  8
0
 10
-27.324799397172615
 20
-69.75516919863847
 11
-27.355141646674266
 21
-70.63921483015807
  0
LINE
  8
0
 10
-27.355141646674266
 20
-70.63921483015807
 11
-27.353982757239024
 21
-71.61335776915598
  0
LINE
  8
0
 10
-27.353982757239024
 20
-71.61335776915598
 11
-27.315807108345595
 21
-72.65344315254478
  0
LINE
  8
0
 10
-27.315807108345595
 20
-72.65344315254478
 11
-26.347872706608225
 21
-73.0619435353768
  0
LINE
  8
0
 10
-26.347872706608225
 20
-73.0619435353768
 11
-25.342000917060687
 21
-73.36524456048718
  0
LINE
  8
0
 10
-25.342000917060687
 20
-73.36524456048718
 11
-24.648783558766684
 21
-72.58891687255507
  0
LINE
  8
0
 10
-24.648783558766684
 20
-72.58891687255507
 11
-24.02615034143906
 21
-71.83972818783374
  0
LINE
  8
0
 10
-24.02615034143906
 20
-71.83972818783374
 11
-23.48527185384327
 21
-71.13979405352137
  0
LINE
  8
0
 10
-23.48527185384327
 20
-71.13979405352137
 11
-23.021798406132397
 21
-70.49388426587423
  0
LINE
  8
0
 10
-23.021798406132397
 20
-70.49388426587423
 11
-22.631147964369266
 21
-69.90651954071134
  0
LINE
  8
0
 10
-22.631147964369266
 20
-69.90651954071134
 11
-22.272177181324988
 21
-69.32287446441404
  0
LINE
  8
0
 10
-22.272177181324988
 20
-69.32287446441404
 11
-22.139628429081124
 21
-69.16749250811996
  0
LINE
  8
0
 10
-22.139628429081124
 20
-69.16749250811996
 11
-22.02736249558106
 21
-69.10801007829058
  0
LINE
  8
0
 10
-22.02736249558106
 20
-69.10801007829058
 11
-19.847204720018233
 21
-69.76539414562616
  0
LINE
  8
0
 10
-19.847204720018233
 20
-69.76539414562616
 11
-19.78653384609049
 21
-69.87702229772042
  0
LINE
  8
0
 10
-19.78653384609049
 20
-69.87702229772042
 11
-19.761974281521436
 21
-70.0797772035773
  0
LINE
  8
0
 10
-19.761974281521436
 20
-70.0797772035773
 11
-19.785477967754517
 21
-70.76457584178837
  0
LINE
  8
0
 10
-19.785477967754517
 20
-70.76457584178837
 11
-19.78463877559867
 21
-71.46998663258732
  0
LINE
  8
0
 10
-19.78463877559867
 20
-71.46998663258732
 11
-19.75547887332469
 21
-72.26444040129299
  0
LINE
  8
0
 10
-19.75547887332469
 20
-72.26444040129299
 11
-19.691680936275294
 21
-73.14670292114859
  0
LINE
  8
0
 10
-19.691680936275294
 20
-73.14670292114859
 11
-19.58698356367538
 21
-74.11520396337565
  0
LINE
  8
0
 10
-19.58698356367538
 20
-74.11520396337565
 11
-19.438469886688768
 21
-75.14533923248129
  0
LINE
  8
0
 10
-19.438469886688768
 20
-75.14533923248129
 11
-18.432598097141216
 21
-75.44864025759168
  0
LINE
  8
0
 10
-18.432598097141216
 20
-75.44864025759168
 11
-17.40018584908506
 21
-75.64330540317304
  0
LINE
  8
0
 10
-17.40018584908506
 20
-75.64330540317304
 11
-16.793414281578453
 21
-74.79769127737109
  0
LINE
  8
0
 10
-16.793414281578453
 20
-74.79769127737109
 11
-16.25394228252939
 21
-73.98656504127942
  0
LINE
  8
0
 10
-16.25394228252939
 20
-73.98656504127942
 11
-15.7905264184875
 21
-73.23310431391944
  0
LINE
  8
0
 10
-15.7905264184875
 20
-73.23310431391944
 11
-15.39833464319797
 21
-72.54158952600336
  0
LINE
  8
0
 10
-15.39833464319797
 20
-72.54158952600336
 11
-15.072330358219299
 21
-71.91602874223335
  0
LINE
  8
0
 10
-15.072330358219299
 20
-71.91602874223335
 11
-14.777430885920253
 21
-71.2975338761243
  0
LINE
  8
0
 10
-14.777430885920253
 20
-71.2975338761243
 11
-14.66214913858095
 21
-71.12894312076216
  0
LINE
  8
0
 10
-14.66214913858095
 20
-71.12894312076216
 11
-14.556841808825101
 21
-71.05786453339056
  0
LINE
  8
0
 10
-14.556841808825101
 20
-71.05786453339056
 11
-12.319159418708116
 21
-71.47978781942024
  0
LINE
  8
0
 10
-12.319159418708116
 20
-71.47978781942024
 11
-12.246966912020126
 21
-71.58433465706365
  0
LINE
  8
0
 10
-12.246966912020126
 20
-71.58433465706365
 11
-12.200994956615482
 21
-71.78333039414645
  0
LINE
  8
0
 10
-12.200994956615482
 20
-71.78333039414645
 11
-12.151575855548227
 21
-72.46674779999152
  0
LINE
  8
0
 10
-12.151575855548227
 20
-72.46674779999152
 11
-12.075760845816317
 21
-73.16807309706729
  0
LINE
  8
0
 10
-12.075760845816317
 20
-73.16807309706729
 11
-11.962320879953163
 21
-73.9549266187956
  0
LINE
  8
0
 10
-11.962320879953163
 20
-73.9549266187956
 11
-11.80510561247185
 21
-74.82540964010302
  0
LINE
  8
0
 10
-11.80510561247185
 20
-74.82540964010302
 11
-11.598056019773773
 21
-75.77729528175739
  0
LINE
  8
0
 10
-11.598056019773773
 20
-75.77729528175739
 11
-11.340887033997294
 21
-76.78580859235979
  0
LINE
  8
0
 10
-11.340887033997294
 20
-76.78580859235979
 11
-10.308474785941113
 21
-76.98047373794108
  0
LINE
  8
0
 10
-10.308474785941113
 20
-76.98047373794108
 11
-9.261219722677795
 21
-77.06429737010959
  0
LINE
  8
0
 10
-9.261219722677795
 20
-77.06429737010959
 11
-8.747768910272066
 21
-76.15897795237352
  0
LINE
  8
0
 10
-8.747768910272066
 20
-76.15897795237352
 11
-8.297570562812863
 21
-75.29510454927603
  0
LINE
  8
0
 10
-8.297570562812863
 20
-75.29510454927603
 11
-7.916868009236055
 21
-74.49665423997708
  0
LINE
  8
0
 10
-7.916868009236055
 20
-74.49665423997708
 11
-7.600401595893779
 21
-73.76736959065443
  0
LINE
  8
0
 10
-7.600401595893779
 20
-73.76736959065443
 11
-7.3427372265130755
 21
-73.11070060191881
  0
LINE
  8
0
 10
-7.3427372265130755
 20
-73.11070060191881
 11
-7.115250393816262
 21
-72.46436373996903
  0
LINE
  8
0
 10
-7.115250393816262
 20
-72.46436373996903
 11
-7.018541839643125
 21
-72.28447438616253
  0
LINE
  8
0
 10
-7.018541839643125
 20
-72.28447438616253
 11
-6.921386287756295
 21
-72.20260499004522
  0
LINE
  8
0
 10
-6.921386287756295
 20
-72.20260499004522
 11
-4.6515331186976985
 21
-72.38428693534627
  0
LINE
  8
0
 10
-4.6515331186976985
 20
-72.38428693534627
 11
-4.568636949196897
 21
-72.48056790109356
  0
LINE
  8
0
 10
-4.568636949196897
 20
-72.48056790109356
 11
-4.501773483580855
 21
-72.67354976818646
  0
LINE
  8
0
 10
-4.501773483580855
 20
-72.67354976818646
 11
-4.379991533375229
 21
-73.34784254937756
  0
LINE
  8
0
 10
-4.379991533375229
 20
-73.34784254937756
 11
-4.2300597204216634
 21
-74.03713605687891
  0
LINE
  8
0
 10
-4.2300597204216634
 20
-74.03713605687891
 11
-4.033625011110875
 21
-74.80747396681795
  0
LINE
  8
0
 10
-4.033625011110875
 20
-74.80747396681795
 11
-3.784773724998245
 21
-75.65631456911842
  0
LINE
  8
0
 10
-3.784773724998245
 20
-75.65631456911842
 11
-3.477717866820087
 21
-76.58079956552598
  0
LINE
  8
0
 10
-3.477717866820087
 20
-76.58079956552598
 11
-3.1148073996220917
 21
-77.55626405883437
  0
LINE
  8
0
 10
-3.1148073996220917
 20
-77.55626405883437
 11
-2.0675523363586947
 21
-77.6400876910029
  0
LINE
  8
0
 10
-2.0675523363586947
 20
-77.6400876910029
 11
-1.0173202762168998
 21
-77.6121200545121
  0
LINE
  8
0
 10
-1.0173202762168998
 20
-77.6121200545121
 11
-0.6030078217811281
 21
-76.65735297559203
  0
LINE
  8
0
 10
-0.6030078217811281
 20
-76.65735297559203
 11
-0.24718405307863092
 21
-75.75052043633212
  0
LINE
  8
0
 10
-0.24718405307863092
 20
-75.75052043633212
 11
0.04649167798004964
 21
-74.91612730614308
  0
LINE
  8
0
 10
0.04649167798004964
 20
-74.91612730614308
 11
0.28364703845833905
 21
-74.15733588189806
  0
LINE
  8
0
 10
0.28364703845833905
 20
-74.15733588189806
 11
0.4700520519785308
 21
-73.47699901023083
  0
LINE
  8
0
 10
0.4700520519785308
 20
-73.47699901023083
 11
0.6275487283595327
 21
-72.81014340734933
  0
LINE
  8
0
 10
0.6275487283595327
 20
-72.81014340734933
 11
0.7045883428049455
 21
-72.62099367335725
  0
LINE
  8
0
 10
0.7045883428049455
 20
-72.62099367335725
 11
0.7924913055984861
 21
-72.52926108146555
  0
LINE
  8
0
 10
0.7924913055984861
 20
-72.52926108146555
 11
3.068796910205957
 21
-72.46864315700131
  0
LINE
  8
0
 10
3.068796910205957
 20
-72.46864315700131
 11
3.1614574957954966
 21
-72.55556734903864
  0
LINE
  8
0
 10
3.1614574957954966
 20
-72.55556734903864
 11
3.24845488184022
 21
-72.74034878447583
  0
LINE
  8
0
 10
3.24845488184022
 20
-72.74034878447583
 11
3.4412198430267917
 21
-73.39787693436831
  0
LINE
  8
0
 10
3.4412198430267917
 20
-73.39787693436831
 11
3.6635696718515374
 21
-74.06732868142757
  0
LINE
  8
0
 10
3.6635696718515374
 20
-74.06732868142757
 11
3.940773440862145
 21
-74.81242274324633
  0
LINE
  8
0
 10
3.940773440862145
 20
-74.81242274324633
 11
4.278441161098507
 21
-75.63000322333627
  0
LINE
  8
0
 10
4.278441161098507
 20
-75.63000322333627
 11
4.68202421919029
 21
-76.51661279008226
  0
LINE
  8
0
 10
4.68202421919029
 20
-76.51661279008226
 11
5.146564247204774
 21
-77.44797606361188
  0
LINE
  8
0
 10
5.146564247204774
 20
-77.44797606361188
 11
6.196796307346517
 21
-77.42000842712096
  0
LINE
  8
0
 10
6.196796307346517
 20
-77.42000842712096
 11
7.238105815473964
 21
-77.28056640646737
  0
LINE
  8
0
 10
7.238105815473964
 20
-77.28056640646737
 11
7.548585586280154
 21
-76.28716955887302
  0
LINE
  8
0
 10
7.548585586280154
 20
-76.28716955887302
 11
7.806003150746585
 21
-75.3476526584724
  0
LINE
  8
0
 10
7.806003150746585
 20
-75.3476526584724
 11
8.009324595907378
 21
-74.4867707149649
  0
LINE
  8
0
 10
8.009324595907378
 20
-74.4867707149649
 11
8.164481838524987
 21
-73.70706992583186
  0
LINE
  8
0
 10
8.164481838524987
 20
-73.70706992583186
 11
8.277515452897823
 21
-73.01077365983782
  0
LINE
  8
0
 10
8.277515452897823
 20
-73.01077365983782
 11
8.363237472687135
 21
-72.33095505646725
  0
LINE
  8
0
 10
8.363237472687135
 20
-72.33095505646725
 11
8.41973525778969
 21
-72.13468808435607
  0
LINE
  8
0
 10
8.41973525778969
 20
-72.13468808435607
 11
8.49738965579725
 21
-72.03413166361064
  0
LINE
  8
0
 10
8.49738965579725
 20
-72.03413166361064
 11
10.754356243887823
 21
-71.73190069468698
  0
LINE
  8
0
 10
10.754356243887823
 20
-71.73190069468698
 11
10.855731364106077
 21
-71.80848322718539
  0
LINE
  8
0
 10
10.855731364106077
 20
-71.80848322718539
 11
10.961876955433207
 21
-71.98297058346849
  0
LINE
  8
0
 10
10.961876955433207
 20
-71.98297058346849
 11
11.22344082356551
 21
-72.61628404538918
  0
LINE
  8
0
 10
11.22344082356551
 20
-72.61628404538918
 11
11.515689355854365
 21
-73.2583088762128
  0
LINE
  8
0
 10
11.515689355854365
 20
-73.2583088762128
 11
11.870521355096894
 21
-73.96971687646638
  0
LINE
  8
0
 10
11.870521355096894
 20
-73.96971687646638
 11
12.293179599261535
 21
-74.74677372081779
  0
LINE
  8
0
 10
12.293179599261535
 20
-74.74677372081779
 11
12.788717099955154
 21
-75.58546221723975
  0
LINE
  8
0
 10
12.788717099955154
 20
-75.58546221723975
 11
13.349623264647942
 21
-76.46217155294745
  0
LINE
  8
0
 10
13.349623264647942
 20
-76.46217155294745
 11
14.390932772775463
 21
-76.32272953229379
  0
LINE
  8
0
 10
14.390932772775463
 20
-76.32272953229379
 11
15.411521276075302
 21
-76.07339306128972
  0
LINE
  8
0
 10
15.411521276075302
 20
-76.07339306128972
 11
15.614650503387262
 21
-75.05262202824566
  0
LINE
  8
0
 10
15.614650503387262
 20
-75.05262202824566
 11
15.770745219753378
 21
-74.09106586859777
  0
LINE
  8
0
 10
15.770745219753378
 20
-74.09106586859777
 11
15.881408665799478
 21
-73.21344924818273
  0
LINE
  8
0
 10
15.881408665799478
 20
-73.21344924818273
 11
15.952809796999865
 21
-72.42167341565519
  0
LINE
  8
0
 10
15.952809796999865
 20
-72.42167341565519
 11
15.991191296208555
 21
-71.71730707025394
  0
LINE
  8
0
 10
15.991191296208555
 20
-71.71730707025394
 11
16.00416739466919
 21
-71.03222808281217
  0
LINE
  8
0
 10
16.00416739466919
 20
-71.03222808281217
 11
16.0394832079483
 21
-70.83106765580025
  0
LINE
  8
0
 10
16.0394832079483
 20
-70.83106765580025
 11
16.106009185811335
 21
-70.72282675062843
  0
LINE
  8
0
 10
16.106009185811335
 20
-70.72282675062843
 11
18.318064424103852
 21
-70.1824071348886
  0
LINE
  8
0
 10
18.318064424103852
 20
-70.1824071348886
 11
18.427005458331305
 21
-70.24778029715408
  0
LINE
  8
0
 10
18.427005458331305
 20
-70.24778029715408
 11
18.551096582977475
 21
-70.40999656281475
  0
LINE
  8
0
 10
18.551096582977475
 20
-70.40999656281475
 11
18.87849573491395
 21
-71.01191964218089
  0
LINE
  8
0
 10
18.87849573491395
 20
-71.01191964218089
 11
19.237331678019498
 21
-71.61924315889551
  0
LINE
  8
0
 10
19.237331678019498
 20
-71.61924315889551
 11
19.665771519158856
 21
-72.28890456067684
  0
LINE
  8
0
 10
19.665771519158856
 20
-72.28890456067684
 11
20.168631400459727
 21
-73.01663340474707
  0
LINE
  8
0
 10
20.168631400459727
 20
-73.01663340474707
 11
20.750508705865588
 21
-73.79789815505764
  0
LINE
  8
0
 10
20.750508705865588
 20
-73.79789815505764
 11
21.40142571626398
 21
-74.6100200858546
  0
LINE
  8
0
 10
21.40142571626398
 20
-74.6100200858546
 11
22.42201421956382
 21
-74.36068361485044
  0
LINE
  8
0
 10
22.42201421956382
 20
-74.36068361485044
 11
23.4103180424872
 21
-74.0042777753422
  0
LINE
  8
0
 10
23.4103180424872
 20
-74.0042777753422
 11
23.50379519099316
 21
-72.96769830053216
  0
LINE
  8
0
 10
23.50379519099316
 20
-72.96769830053216
 11
23.55679844375025
 21
-71.99499769714416
  0
LINE
  8
0
 10
23.55679844375025
 20
-71.99499769714416
 11
23.57355002961909
 21
-71.11059014680869
  0
LINE
  8
0
 10
23.57355002961909
 20
-71.11059014680869
 11
23.560386046055307
 21
-70.31571040744674
  0
LINE
  8
0
 10
23.560386046055307
 20
-70.31571040744674
 11
23.523680552377353
 21
-69.6112547347822
  0
LINE
  8
0
 10
23.523680552377353
 20
-69.6112547347822
 11
23.46376370512876
 21
-68.92867758194063
  0
LINE
  8
0
 10
23.46376370512876
 20
-68.92867758194063
 11
23.477497404308497
 21
-68.72490292804564
  0
LINE
  8
0
 10
23.477497404308497
 20
-68.72490292804564
 11
23.532141196115372
 21
-68.61020395115389
  0
LINE
  8
0
 10
23.532141196115372
 20
-68.61020395115389
 11
25.67422161486756
 21
-67.83771885878497
  0
LINE
  8
0
 10
25.67422161486756
 20
-67.83771885878497
 11
25.78949421765579
 21
-67.89114194676726
  0
LINE
  8
0
 10
25.78949421765579
 20
-67.89114194676726
 11
25.930124873594465
 21
-68.03924914669726
  0
LINE
  8
0
 10
25.930124873594465
 20
-68.03924914669726
 11
26.319649746121605
 21
-68.60296181450332
  0
LINE
  8
0
 10
26.319649746121605
 20
-68.60296181450332
 11
26.74100734542489
 21
-69.16870279899042
  0
LINE
  8
0
 10
26.74100734542489
 20
-69.16870279899042
 11
27.238200633865098
 21
-69.7890300710342
  0
LINE
  8
0
 10
27.238200633865098
 20
-69.7890300710342
 11
27.81556454891444
 21
-70.45918545623424
  0
LINE
  8
0
 10
27.81556454891444
 20
-70.45918545623424
 11
28.47718875665592
 21
-71.17417441863483
  0
LINE
  8
0
 10
28.47718875665592
 20
-71.17417441863483
 11
29.210741462938884
 21
-71.91250727853775
  0
LINE
  8
0
 10
29.210741462938884
 20
-71.91250727853775
 11
30.199045285862184
 21
-71.55610143902939
  0
LINE
  8
0
 10
30.199045285862184
 20
-71.55610143902939
 11
31.143866551189205
 21
-71.09666445159105
  0
LINE
  8
0
 10
31.143866551189205
 20
-71.09666445159105
 11
31.126632487445
 21
-70.0560213946608
  0
LINE
  8
0
 10
31.126632487445
 20
-70.0560213946608
 11
31.075943728560308
 21
-69.08319743404051
  0
LINE
  8
0
 10
31.075943728560308
 20
-69.08319743404051
 11
30.998593652090403
 21
-68.20201964472123
  0
LINE
  8
0
 10
30.998593652090403
 20
-68.20201964472123
 11
30.901013706956288
 21
-67.41304230358968
  0
LINE
  8
0
 10
30.901013706956288
 20
-67.41304230358968
 11
30.789637108301825
 21
-66.71647906791931
  0
LINE
  8
0
 10
30.789637108301825
 20
-66.71647906791931
 11
30.657506197164892
 21
-66.04413762156365
  0
LINE
  8
0
 10
30.657506197164892
 20
-66.04413762156365
 11
30.649502173945837
 21
-65.84005758903844
  0
LINE
  8
0
 10
30.649502173945837
 20
-65.84005758903844
 11
30.691644643700844
 21
-65.72020012566632
  0
LINE
  8
0
 10
30.691644643700844
 20
-65.72020012566632
 11
32.73947961583632
 21
-64.72440212143424
  0
LINE
  8
0
 10
32.73947961583632
 20
-64.72440212143424
 11
32.859777702535155
 21
-64.7652698301997
  0
LINE
  8
0
 10
32.859777702535155
 20
-64.7652698301997
 11
33.01535448824138
 21
-64.89758985064319
  0
LINE
  8
0
 10
33.01535448824138
 20
-64.89758985064319
 11
33.462591608907225
 21
-65.4167050171148
  0
LINE
  8
0
 10
33.462591608907225
 20
-65.4167050171148
 11
33.94169671444218
 21
-65.93445339796152
  0
LINE
  8
0
 10
33.94169671444218
 20
-65.93445339796152
 11
34.502010051556844
 21
-66.49841798440528
  0
LINE
  8
0
 10
34.502010051556844
 20
-66.49841798440528
 11
35.14733623649425
 21
-67.1034067824403
  0
LINE
  8
0
 10
35.14733623649425
 20
-67.1034067824403
 11
35.881210879926016
 21
-67.74401884629184
  0
LINE
  8
0
 10
35.881210879926016
 20
-67.74401884629184
 11
36.689087836818516
 21
-68.40019702897504
  0
LINE
  8
0
 10
36.689087836818516
 20
-68.40019702897504
 11
37.63390910214559
 21
-67.94076004153656
  0
LINE
  8
0
 10
37.63390910214559
 20
-67.94076004153656
 11
38.524542607408684
 21
-67.38349751081759
  0
LINE
  8
0
 10
38.524542607408684
 20
-67.38349751081759
 11
38.396792600242954
 21
-66.35058177342205
  0
LINE
  8
0
 10
38.396792600242954
 20
-66.35058177342205
 11
38.24298615360883
 21
-65.38865693976403
  0
LINE
  8
0
 10
38.24298615360883
 20
-65.38865693976403
 11
38.072410822074104
 21
-64.52069300791472
  0
LINE
  8
0
 10
38.072410822074104
 20
-64.52069300791472
 11
37.89152053513899
 21
-63.74655749354794
  0
LINE
  8
0
 10
37.89152053513899
 20
-63.74655749354794
 11
37.70673477287462
 21
-63.065779034664445
  0
LINE
  8
0
 10
37.70673477287462
 20
-63.065779034664445
 11
37.50388689386936
 21
-62.4112911920359
  0
LINE
  8
0
 10
37.50388689386936
 20
-62.4112911920359
 11
37.47423583703282
 21
-62.209218089195225
  0
LINE
  8
0
 10
37.47423583703282
 20
-62.209218089195225
 11
37.50339949371436
 21
-62.08556017229537
  0
LINE
  8
0
 10
37.50339949371436
 20
-62.08556017229537
 11
39.4337862307255
 21
-60.87773204548874
  0
LINE
  8
0
 10
39.4337862307255
 20
-60.87773204548874
 11
39.55774677594395
 21
-60.90558132756718
  0
LINE
  8
0
 10
39.55774677594395
 20
-60.90558132756718
 11
39.72650694427035
 21
-61.02061492982011
  0
LINE
  8
0
 10
39.72650694427035
 20
-61.02061492982011
 11
40.22638893779085
 21
-61.48925081269325
  0
LINE
  8
0
 10
40.22638893779085
 20
-61.48925081269325
 11
40.7578130972711
 21
-61.953140293862845
  0
LINE
  8
0
 10
40.7578130972711
 20
-61.953140293862845
 11
41.37489790906086
 21
-62.45435225059337
  0
LINE
  8
0
 10
41.37489790906086
 20
-62.45435225059337
 11
42.08087456035172
 21
-62.98731969664038
  0
LINE
  8
0
 10
42.08087456035172
 20
-62.98731969664038
 11
42.87868454652226
 21
-63.54629647128381
  0
LINE
  8
0
 10
42.87868454652226
 20
-63.54629647128381
 11
43.751732185291516
 21
-64.11288521574208
  0
LINE
  8
0
 10
43.751732185291516
 20
-64.11288521574208
 11
44.64236569055449
 21
-63.555622685023025
  0
LINE
  8
0
 10
44.64236569055449
 20
-63.555622685023025
 11
45.46872020225995
 21
-62.90684861816721
  0
LINE
  8
0
 10
45.46872020225995
 20
-62.90684861816721
 11
45.23190171030018
 21
-61.89336354834324
  0
LINE
  8
0
 10
45.23190171030018
 20
-61.89336354834324
 11
44.97672026441493
 21
-60.9532368343785
  0
LINE
  8
0
 10
44.97672026441493
 20
-60.9532368343785
 11
44.71485236448011
 21
-60.10832113816778
  0
LINE
  8
0
 10
44.71485236448011
 20
-60.10832113816778
 11
44.45270129497508
 21
-59.35779871527241
  0
LINE
  8
0
 10
44.45270129497508
 20
-59.35779871527241
 11
44.196600065623876
 21
-58.700518525140204
  0
LINE
  8
0
 10
44.196600065623876
 20
-58.700518525140204
 11
43.92533356627332
 21
-58.07129989501583
  0
LINE
  8
0
 10
43.92533356627332
 20
-58.07129989501583
 11
43.87437143414123
 21
-57.87352329085919
  0
LINE
  8
0
 10
43.87437143414123
 20
-57.87352329085919
 11
43.890225841865885
 21
-57.747466014041265
  0
LINE
  8
0
 10
43.890225841865885
 20
-57.747466014041265
 11
45.681292290678954
 21
-56.34129293996046
  0
LINE
  8
0
 10
45.681292290678954
 20
-56.34129293996046
 11
45.80751077190756
 21
-56.3558082518579
  0
LINE
  8
0
 10
45.80751077190756
 20
-56.3558082518579
 11
45.98754220271387
 21
-56.45225205924169
  0
LINE
  8
0
 10
45.98754220271387
 20
-56.45225205924169
 11
46.53440520635974
 21
-56.86509882670599
  0
LINE
  8
0
 10
46.53440520635974
 20
-56.86509882670599
 11
47.112127171712025
 21
-57.26987335501597
  0
LINE
  8
0
 10
47.112127171712025
 20
-57.26987335501597
 11
47.778991640684744
 21
-57.702653750289365
  0
LINE
  8
0
 10
47.778991640684744
 20
-57.702653750289365
 11
48.537619760775975
 21
-58.157561110221664
  0
LINE
  8
0
 10
48.537619760775975
 20
-58.157561110221664
 11
49.39032558375328
 21
-58.62856916544451
  0
LINE
  8
0
 10
49.39032558375328
 20
-58.62856916544451
 11
50.31865192579989
 21
-59.09914879480579
  0
LINE
  8
0
 10
50.31865192579989
 20
-59.09914879480579
 11
51.14500643750528
 21
-58.45037472794988
  0
LINE
  8
0
 10
51.14500643750528
 20
-58.45037472794988
 11
51.8977190288409
 21
-57.717439994371645
  0
LINE
  8
0
 10
51.8977190288409
 20
-57.717439994371645
 11
51.554515300228864
 21
-56.73486878292843
  0
LINE
  8
0
 10
51.554515300228864
 20
-56.73486878292843
 11
51.20085016283971
 21
-55.82719219998176
  0
LINE
  8
0
 10
51.20085016283971
 20
-55.82719219998176
 11
50.85065676244816
 21
-55.0148979718589
  0
LINE
  8
0
 10
50.85065676244816
 20
-55.0148979718589
 11
50.51021518674094
 21
-54.29649235937987
  0
LINE
  8
0
 10
50.51021518674094
 20
-54.29649235937987
 11
50.18570021956434
 21
-53.670157685189
  0
LINE
  8
0
 10
50.18570021956434
 20
-53.670157685189
 11
49.84908865769872
 21
-53.07333756607111
  0
LINE
  8
0
 10
49.84908865769872
 20
-53.07333756607111
 11
49.77739287159157
 21
-52.882098348551125
  0
LINE
  8
0
 10
49.77739287159157
 20
-52.882098348551125
 11
49.77975839358472
 21
-52.755069991131414
  0
LINE
  8
0
 10
49.77975839358472
 20
-52.755069991131414
 11
51.41121105566083
 21
-51.16648447258401
  0
LINE
  8
0
 10
51.41121105566083
 20
-51.16648447258401
 11
51.538257367072944
 21
-51.16750135001663
  0
LINE
  8
0
 10
51.538257367072944
 20
-51.16750135001663
 11
51.72752023231121
 21
-51.2442626156566
  0
LINE
  8
0
 10
51.72752023231121
 20
-51.2442626156566
 11
52.315168069735755
 21
-51.59664254887152
  0
LINE
  8
0
 10
52.315168069735755
 20
-51.59664254887152
 11
52.932642020246675
 21
-51.93771586717643
  0
LINE
  8
0
 10
52.932642020246675
 20
-51.93771586717643
 11
53.64173030550335
 21
-52.29716112618398
  0
LINE
  8
0
 10
53.64173030550335
 20
-52.29716112618398
 11
54.44441433466189
 21
-52.66885411784178
  0
LINE
  8
0
 10
54.44441433466189
 20
-52.66885411784178
 11
55.34235449674768
 21
-53.046556744173095
  0
LINE
  8
0
 10
55.34235449674768
 20
-53.046556744173095
 11
56.31544123367588
 21
-53.41579540320261
  0
LINE
  8
0
 10
56.31544123367588
 20
-53.41579540320261
 11
57.068153825011514
 21
-52.68286066962428
  0
LINE
  8
0
 10
57.068153825011514
 20
-52.68286066962428
 11
57.73869596154882
 21
-51.87406971272098
  0
LINE
  8
0
 10
57.73869596154882
 20
-51.87406971272098
 11
57.292995631666926
 21
-50.93354528409968
  0
LINE
  8
0
 10
57.292995631666926
 20
-50.93354528409968
 11
56.8448539700979
 21
-50.06860317054503
  0
LINE
  8
0
 10
56.8448539700979
 20
-50.06860317054503
 11
56.41030290040625
 21
-49.29813402869096
  0
LINE
  8
0
 10
56.41030290040625
 20
-49.29813402869096
 11
55.99542815758316
 21
-48.619985049277986
  0
LINE
  8
0
 10
55.99542815758316
 20
-48.619985049277986
 11
55.60617633682886
 21
-48.03169251315767
  0
LINE
  8
0
 10
55.60617633682886
 20
-48.03169251315767
 11
55.20803365594726
 21
-47.4740331154731
  0
LINE
  8
0
 10
55.20803365594726
 20
-47.4740331154731
 11
55.11641655776983
 21
-47.29149810133957
  0
LINE
  8
0
 10
55.11641655776983
 20
-47.29149810133957
 11
55.10526639172209
 21
-47.164937945365594
  0
LINE
  8
0
 10
55.10526639172209
 20
-47.164937945365594
 11
56.55862025650449
 21
-45.4119392910433
  0
LINE
  8
0
 10
56.55862025650449
 20
-45.4119392910433
 11
56.68505491262668
 21
-45.399446212383474
  0
LINE
  8
0
 10
56.68505491262668
 20
-45.399446212383474
 11
56.88140478840814
 21
-45.45565520046769
  0
LINE
  8
0
 10
56.88140478840814
 20
-45.45565520046769
 11
57.50317917480121
 21
-45.74357569398601
  0
LINE
  8
0
 10
57.50317917480121
 20
-45.74357569398601
 11
58.15340888388138
 21
-46.01708330530347
  0
LINE
  8
0
 10
58.15340888388138
 20
-46.01708330530347
 11
58.896686731812764
 21
-46.299120769633575
  0
LINE
  8
0
 10
58.896686731812764
 20
-46.299120769633575
 11
59.734331939251994
 21
-46.58338796290041
  0
LINE
  8
0
 10
59.734331939251994
 20
-46.58338796290041
 11
60.66733241961114
 21
-46.86350563866154
  0
LINE
  8
0
 10
60.66733241961114
 20
-46.86350563866154
 11
61.67415408986576
 21
-47.12721970581218
  0
LINE
  8
0
 10
61.67415408986576
 20
-47.12721970581218
 11
62.34469622640299
 21
-46.318428748908865
  0
LINE
  8
0
 10
62.34469622640299
 20
-46.318428748908865
 11
62.92547039779998
 21
-45.442945493398696
  0
LINE
  8
0
 10
62.92547039779998
 20
-45.442945493398696
 11
62.38232342947864
 21
-44.55512436519012
  0
LINE
  8
0
 10
62.38232342947864
 20
-44.55512436519012
 11
61.84478286782363
 21
-43.7427168607874
  0
LINE
  8
0
 10
61.84478286782363
 20
-43.7427168607874
 11
61.33079776608929
 21
-43.02280252844317
  0
LINE
  8
0
 10
61.33079776608929
 20
-43.02280252844317
 11
60.84619055276205
 21
-42.39259388100758
  0
LINE
  8
0
 10
60.84619055276205
 20
-42.39259388100758
 11
60.39661225709633
 21
-41.849009072461826
  0
LINE
  8
0
 10
60.39661225709633
 20
-41.849009072461826
 11
59.9414495728629
 21
-41.336828900015725
  0
LINE
  8
0
 10
59.9414495728629
 20
-41.336828900015725
 11
59.83094922094587
 21
-41.16506628391608
  0
LINE
  8
0
 10
59.83094922094587
 20
-41.16506628391608
 11
59.80640970269393
 21
-41.0404083065259
  0
LINE
  8
0
 10
59.80640970269393
 20
-41.0404083065259
 11
61.06519769016391
 21
-39.14285869164491
  0
LINE
  8
0
 10
61.06519769016391
 20
-39.14285869164491
 11
61.18958813582158
 21
-39.116997208465826
  0
LINE
  8
0
 10
61.18958813582158
 20
-39.116997208465826
 11
61.39080029959621
 21
-39.15201704869932
  0
LINE
  8
0
 10
61.39080029959621
 20
-39.15201704869932
 11
62.03965628271151
 21
-39.3722158482823
  0
LINE
  8
0
 10
62.03965628271151
 20
-39.3722158482823
 11
62.715274387938464
 21
-39.575058802088
  0
LINE
  8
0
 10
62.715274387938464
 20
-39.575058802088
 11
63.48432016352872
 21
-39.77649287457335
  0
LINE
  8
0
 10
63.48432016352872
 20
-39.77649287457335
 11
64.34743569434232
 21
-39.9701134085621
  0
LINE
  8
0
 10
64.34743569434232
 20
-39.9701134085621
 11
65.30492522472429
 21
-40.14947228855733
  0
LINE
  8
0
 10
65.30492522472429
 20
-40.14947228855733
 11
66.33407413647578
 21
-40.304673778073465
  0
LINE
  8
0
 10
66.33407413647578
 20
-40.304673778073465
 11
66.9148483078727
 21
-39.429190522563225
  0
LINE
  8
0
 10
66.9148483078727
 20
-39.429190522563225
 11
67.39927411070188
 21
-38.49693454355646
  0
LINE
  8
0
 10
67.39927411070188
 20
-38.49693454355646
 11
66.76483457612271
 21
-37.67187608389854
  0
LINE
  8
0
 10
66.76483457612271
 20
-37.67187608389854
 11
66.1439856637356
 21
-36.92120809029419
  0
LINE
  8
0
 10
66.1439856637356
 20
-36.92120809029419
 11
65.55639018653922
 21
-36.26000548450844
  0
LINE
  8
0
 10
65.55639018653922
 20
-36.26000548450844
 11
65.00754129607405
 21
-35.68487768484429
  0
LINE
  8
0
 10
65.00754129607405
 20
-35.68487768484429
 11
64.50273042722918
 21
-35.192159636959396
  0
LINE
  8
0
 10
64.50273042722918
 20
-35.192159636959396
 11
63.99570491473006
 21
-34.73126189576238
  0
LINE
  8
0
 10
63.99570491473006
 20
-34.73126189576238
 11
63.867573322214355
 21
-34.5722178167699
  0
LINE
  8
0
 10
63.867573322214355
 20
-34.5722178167699
 11
63.829922494305485
 21
-34.45087444265814
  0
LINE
  8
0
 10
63.829922494305485
 20
-34.45087444265814
 11
64.87988203357887
 21
-32.43027386257741
  0
LINE
  8
0
 10
64.87988203357887
 20
-32.43027386257741
 11
65.00081887531883
 21
-32.391336995817205
  0
LINE
  8
0
 10
65.00081887531883
 20
-32.391336995817205
 11
65.20461351287076
 21
-32.404770899416924
  0
LINE
  8
0
 10
65.20461351287076
 20
-32.404770899416924
 11
65.8731992951499
 21
-32.5547530646783
  0
LINE
  8
0
 10
65.8731992951499
 20
-32.5547530646783
 11
66.5665507734281
 21
-32.684633069253685
  0
LINE
  8
0
 10
66.5665507734281
 20
-32.684633069253685
 11
67.3526508807447
 21
-32.80318142136405
  0
LINE
  8
0
 10
67.3526508807447
 20
-32.80318142136405
 11
68.23145729108508
 21
-32.90396149805778
  0
LINE
  8
0
 10
68.23145729108508
 20
-32.90396149805778
 11
69.20258713251722
 21
-32.98052937450859
  0
LINE
  8
0
 10
69.20258713251722
 20
-32.98052937450859
 11
70.24240261736853
 21
-33.025459791498704
  0
LINE
  8
0
 10
70.24240261736853
 20
-33.025459791498704
 11
70.72682842019769
 21
-32.09320381249175
  0
LINE
  8
0
 10
70.72682842019769
 20
-32.09320381249175
 11
71.10941711654625
 21
-31.11473794274111
  0
LINE
  8
0
 10
71.10941711654625
 20
-31.11473794274111
 11
70.39087346914508
 21
-30.361790393658353
  0
LINE
  8
0
 10
70.39087346914508
 20
-30.361790393658353
 11
69.69375067228184
 21
-29.68136727917164
  0
LINE
  8
0
 10
69.69375067228184
 20
-29.68136727917164
 11
69.03920251117131
 21
-29.086368089671073
  0
LINE
  8
0
 10
69.03920251117131
 20
-29.086368089671073
 11
68.43233062080607
 21
-28.57283756555795
  0
LINE
  8
0
 10
68.43233062080607
 20
-28.57283756555795
 11
67.87800688763825
 21
-28.13656897069659
  0
LINE
  8
0
 10
67.87800688763825
 20
-28.13656897069659
 11
67.32486334852716
 21
-27.73217581632183
  0
LINE
  8
0
 10
67.32486334852716
 20
-27.73217581632183
 11
67.18055229755477
 21
-27.58765230740228
  0
LINE
  8
0
 10
67.18055229755477
 20
-27.58765230740228
 11
67.13021675891372
 21
-27.47099840548398
  0
LINE
  8
0
 10
67.13021675891372
 20
-27.47099840548398
 11
67.95945138886796
 21
-25.350241072166853
  0
LINE
  8
0
 10
67.95945138886796
 20
-25.350241072166853
 11
68.07556436394937
 21
-25.298669992084317
  0
LINE
  8
0
 10
68.07556436394937
 20
-25.298669992084317
 11
68.27963240060292
 21
-25.290365747554542
  0
LINE
  8
0
 10
68.27963240060292
 20
-25.290365747554542
 11
68.96037263797938
 21
-25.368431920632077
  0
LINE
  8
0
 10
68.96037263797938
 20
-25.368431920632077
 11
69.66360154001075
 21
-25.423877383627886
  0
LINE
  8
0
 10
69.66360154001075
 20
-25.423877383627886
 11
70.45784915072812
 21
-25.45819681516434
  0
LINE
  8
0
 10
70.45784915072812
 20
-25.45819681516434
 11
71.34238921281289
 21
-25.464994556024436
  0
LINE
  8
0
 10
71.34238921281289
 20
-25.464994556024436
 11
72.316156076148
 21
-25.437903884295668
  0
LINE
  8
0
 10
72.316156076148
 20
-25.437903884295668
 11
73.35485660916648
 21
-25.37205414918193
  0
LINE
  8
0
 10
73.35485660916648
 20
-25.37205414918193
 11
73.73744530551488
 21
-24.393588279431363
  0
LINE
  8
0
 10
73.73744530551488
 20
-24.393588279431363
 11
74.0138620125782
 21
-23.37999892821617
  0
LINE
  8
0
 10
74.0138620125782
 20
-23.37999892821617
 11
73.21935563899602
 21
-22.707693486302386
  0
LINE
  8
0
 10
73.21935563899602
 20
-22.707693486302386
 11
72.45385763750124
 21
-22.105224716703713
  0
LINE
  8
0
 10
72.45385763750124
 20
-22.105224716703713
 11
71.73977308468614
 21
-21.58317052205498
  0
LINE
  8
0
 10
71.73977308468614
 20
-21.58317052205498
 11
71.08175429543236
 21
-21.137055779527483
  0
LINE
  8
0
 10
71.08175429543236
 20
-21.137055779527483
 11
70.4841984073349
 21
-20.762179735193524
  0
LINE
  8
0
 10
70.4841984073349
 20
-20.762179735193524
 11
69.89120417893493
 21
-20.418873103667384
  0
LINE
  8
0
 10
69.89120417893493
 20
-20.418873103667384
 11
69.73234877137712
 21
-20.290507673925486
  0
LINE
  8
0
 10
69.73234877137712
 20
-20.290507673925486
 11
69.66989884376974
 21
-20.179864979521913
  0
LINE
  8
0
 10
69.66989884376974
 20
-20.179864979521913
 11
70.26901300470213
 21
-17.982979920966503
  0
LINE
  8
0
 10
70.26901300470213
 20
-17.982979920966503
 11
70.37898650672096
 21
-17.919358948505725
  0
LINE
  8
0
 10
70.37898650672096
 20
-17.919358948505725
 11
70.5810157700794
 21
-17.889410646255193
  0
LINE
  8
0
 10
70.5810157700794
 20
-17.889410646255193
 11
71.26619740365368
 21
-17.89467630621426
  0
LINE
  8
0
 10
71.26619740365368
 20
-17.89467630621426
 11
71.9713358649822
 21
-17.875059008379875
  0
LINE
  8
0
 10
71.9713358649822
 20
-17.875059008379875
 11
72.76473183630569
 21
-17.824760666469754
  0
LINE
  8
0
 10
72.76473183630569
 20
-17.824760666469754
 11
73.64498335778715
 21
-17.737499050376034
  0
LINE
  8
0
 10
73.64498335778715
 20
-17.737499050376034
 11
74.61035407536613
 21
-17.607056778603262
  0
LINE
  8
0
 10
74.61035407536613
 20
-17.607056778603262
 11
75.63617076446903
 21
-17.431172995196757
  0
LINE
  8
0
 10
75.63617076446903
 20
-17.431172995196757
 11
75.91258747153263
 21
-16.41758364398148
  0
LINE
  8
0
 10
75.91258747153263
 20
-16.41758364398148
 11
76.0797002775697
 21
-15.380355183660892
  0
LINE
  8
0
 10
76.0797002775697
 20
-15.380355183660892
 11
75.21823325248717
 21
-14.796309338212415
  0
LINE
  8
0
 10
75.21823325248717
 20
-14.796309338212415
 11
74.39303344459528
 21
-14.278621125395643
  0
LINE
  8
0
 10
74.39303344459528
 20
-14.278621125395643
 11
73.62750336339266
 21
-13.835427008226397
  0
LINE
  8
0
 10
73.62750336339266
 20
-13.835427008226397
 11
72.92579329106358
 21
-13.461782705575759
  0
LINE
  8
0
 10
72.92579329106358
 20
-13.461782705575759
 11
72.29177579501984
 21
-13.152546707144374
  0
LINE
  8
0
 10
72.29177579501984
 20
-13.152546707144374
 11
71.66564973888723
 21
-12.874216399780423
  0
LINE
  8
0
 10
71.66564973888723
 20
-12.874216399780423
 11
71.49404986998705
 21
-12.763463480827376
  0
LINE
  8
0
 10
71.49404986998705
 20
-12.763463480827376
 11
71.42019313604685
 21
-12.6600856198767
  0
LINE
  8
0
 10
71.42019313604685
 20
-12.6600856198767
 11
71.78239862512017
 21
-10.411964421627172
  0
LINE
  8
0
 10
71.78239862512017
 20
-10.411964421627172
 11
71.88498661035531
 21
-10.337014407827782
  0
LINE
  8
0
 10
71.88498661035531
 20
-10.337014407827782
 11
72.08268802813801
 21
-10.285761374087729
  0
LINE
  8
0
 10
72.08268802813801
 20
-10.285761374087729
 11
72.764547676217
 21
-10.21816685889693
  0
LINE
  8
0
 10
72.764547676217
 20
-10.21816685889693
 11
73.46360619631679
 21
-10.123709072055487
  0
LINE
  8
0
 10
73.46360619631679
 20
-10.123709072055487
 11
74.24716103486635
 21
-9.989362857010834
  0
LINE
  8
0
 10
74.24716103486635
 20
-9.989362857010834
 11
75.11315041427548
 21
-9.809030592941607
  0
LINE
  8
0
 10
75.11315041427548
 20
-9.809030592941607
 11
76.0591869501256
 21
-9.576714684186102
  0
LINE
  8
0
 10
76.0591869501256
 20
-9.576714684186102
 11
77.0604968823299
 21
-9.292789686032409
  0
LINE
  8
0
 10
0.3118675362266391
 20
-1.4672214011007085
 11
9.18454765366783e-17
 21
-1.5
  0
LINE
  8
0
 10
9.18454765366783e-17
 20
-1.5
 11
-0.3118675362266384
 21
-1.4672214011007085
  0
LINE
  8
0
 10
-0.3118675362266384
 20
-1.4672214011007085
 11
-0.6101049646137001
 21
-1.3703181864639014
  0
LINE
  8
0
 10
-0.6101049646137001
 20
-1.3703181864639014
 11
-0.8816778784387099
 21
-1.213525491562421
  0
LINE
  8
0
 10
-0.8816778784387099
 20
-1.213525491562421
 11
-1.114717238216091
 21
-1.0036959095382878
  0
LINE
  8
0
 10
-1.114717238216091
 20
-1.0036959095382878
 11
-1.299038105676658
 21
-0.7500000000000003
  0
LINE
  8
0
 10
-1.299038105676658
 20
-0.7500000000000003
 11
-1.4265847744427305
 21
-0.46352549156242095
  0
LINE
  8
0
 10
-1.4265847744427305
 20
-0.46352549156242095
 11
-1.49178284305241
 21
-0.15679269490147957
  0
LINE
  8
0
 10
-1.49178284305241
 20
-0.15679269490147957
 11
-1.4917828430524098
 21
0.15679269490148126
  0
LINE
  8
0
 10
-1.4917828430524098
 20
0.15679269490148126
 11
-1.4265847744427302
 21
0.46352549156242123
  0
LINE
  8
0
 10
-1.4265847744427302
 20
0.46352549156242123
 11
-1.2990381056766576
 21
0.7500000000000006
  0
LINE
  8
0
 10
-1.2990381056766576
 20
0.7500000000000006
 11
-1.114717238216091
 21
1.0036959095382878
  0
LINE
  8
0
 10
-1.114717238216091
 20
1.0036959095382878
 11
-0.8816778784387097
 21
1.2135254915624214
  0
LINE
  8
0
 10
-0.8816778784387097
 20
1.2135254915624214
 11
-0.6101049646137005
 21
1.3703181864639014
  0
LINE
  8
0
 10
-0.6101049646137005
 20
1.3703181864639014
 11
-0.3118675362266387
 21
1.4672214011007085
  0
LINE
  8
0
 10
-0.3118675362266387
 20
1.4672214011007085
 11
7.579792913117722e-16
 21
1.5
  0
LINE
  8
0
 10
7.579792913117722e-16
 20
1.5
 11
0.3118675362266389
 21
1.4672214011007085
  0
LINE
  8
0
 10
0.3118675362266389
 20
1.4672214011007085
 11
0.6101049646136999
 21
1.3703181864639014
  0
LINE
  8
0
 10
0.6101049646136999
 20
1.3703181864639014
 11
0.8816778784387097
 21
1.213525491562421
  0
LINE
  8
0
 10
0.8816778784387097
 20
1.213525491562421
 11
1.1147172382160917
 21
1.003695909538287
  0
LINE
  8
0
 10
1.1147172382160917
 20
1.003695909538287
 11
1.299038105676658
 21
0.7499999999999998
  0
LINE
  8
0
 10
1.299038105676658
 20
0.7499999999999998
 11
1.4265847744427305
 21
0.4635254915624211
  0
LINE
  8
0
 10
1.4265847744427305
 20
0.4635254915624211
 11
1.49178284305241
 21
0.1567926949014801
  0
LINE
  8
0
 10
1.49178284305241
 20
0.1567926949014801
 11
1.4917828430524098
 21
-0.1567926949014801
  0
LINE
  8
0
 10
1.4917828430524098
 20
-0.1567926949014801
 11
1.4265847744427302
 21
-0.46352549156242107
  0
LINE
  8
0
 10
1.4265847744427302
 20
-0.46352549156242107
 11
1.299038105676658
 21
-0.7500000000000001
  0
LINE
  8
0
 10
1.299038105676658
 20
-0.7500000000000001
 11
1.1147172382160913
 21
-1.0036959095382874
  0
LINE
  8
0
 10
1.1147172382160913
 20
-1.0036959095382874
 11
0.8816778784387098
 21
-1.2135254915624212
  0
LINE
  8
0
 10
0.8816778784387098
 20
-1.2135254915624212
 11
0.6101049646137003
 21
-1.3703181864639014
  0
LINE
  8
0
 10
0.6101049646137003
 20
-1.3703181864639014
 11
0.3118675362266391
 21
-1.4672214011007085
  0
ENDSEC
  0
SECTION
  2
OBJECTS
  0
DICTIONARY
  0
ENDSEC
  0
EOF
