  0
SECTION
  2
BLOCKS
  0
ENDSEC
  0
SECTION
  2
ENTITIES
  0
LINE
  8
0
 10
38.28510211706278
 20
-9.430512155351138
 11
38.547629263670686
 21
-8.484974828199851
  0
LINE
  8
0
 10
38.547629263670686
 20
-8.484974828199851
 11
38.70638689720224
 21
-7.516596103971579
  0
LINE
  8
0
 10
38.70638689720224
 20
-7.516596103971579
 11
37.951643849871225
 21
-6.937410936316643
  0
LINE
  8
0
 10
37.951643849871225
 20
-6.937410936316643
 11
37.041779613876194
 21
-6.338274989983197
  0
LINE
  8
0
 10
37.041779613876194
 20
-6.338274989983197
 11
36.25015072902012
 21
-5.895367049954297
  0
LINE
  8
0
 10
36.25015072902012
 20
-5.895367049954297
 11
35.59373025702761
 21
-5.588036234010541
  0
LINE
  8
0
 10
35.59373025702761
 20
-5.588036234010541
 11
35.087096117335875
 21
-5.394057745456591
  0
LINE
  8
0
 10
35.087096117335875
 20
-5.394057745456591
 11
34.538740307094336
 21
-5.228366148310089
  0
LINE
  8
0
 10
34.538740307094336
 20
-5.228366148310089
 11
34.16771174163238
 21
-5.042046742590507
  0
LINE
  8
0
 10
34.16771174163238
 20
-5.042046742590507
 11
34.003139032437154
 21
-4.8433341417638855
  0
LINE
  8
0
 10
34.003139032437154
 20
-4.8433341417638855
 11
34.249338210290176
 21
-2.579570085340598
  0
LINE
  8
0
 10
34.249338210290176
 20
-2.579570085340598
 11
34.45278063627421
 21
-2.420881542437056
  0
LINE
  8
0
 10
34.45278063627421
 20
-2.420881542437056
 11
34.85518792472739
 21
-2.3186783549310914
  0
LINE
  8
0
 10
34.85518792472739
 20
-2.3186783549310914
 11
35.42634227643036
 21
-2.274740825170055
  0
LINE
  8
0
 10
35.42634227643036
 20
-2.274740825170055
 11
35.96283123255372
 21
-2.1942088099182073
  0
LINE
  8
0
 10
35.96283123255372
 20
-2.1942088099182073
 11
36.6699719994843
 21
-2.0351742154921615
  0
LINE
  8
0
 10
36.6699719994843
 20
-2.0351742154921615
 11
37.53830515576932
 21
-1.7727980268345798
  0
LINE
  8
0
 10
37.53830515576932
 20
-1.7727980268345798
 11
38.55569378967204
 21
-1.3832634613264851
  0
LINE
  8
0
 10
38.55569378967204
 20
-1.3832634613264851
 11
39.417299054434515
 21
-0.9798667661607833
  0
LINE
  8
0
 10
39.417299054434515
 20
-0.9798667661607833
 11
39.470425886790046
 21
5.969500395252418e-15
  0
LINE
  8
0
 10
39.470425886790046
 20
5.969500395252418e-15
 11
39.417299054434515
 21
0.9798667661607838
  0
LINE
  8
0
 10
39.417299054434515
 20
0.9798667661607838
 11
38.55569378967729
 21
1.3832634613240289
  0
LINE
  8
0
 10
38.55569378967729
 20
1.3832634613240289
 11
37.53830515576954
 21
1.7727980268339683
  0
LINE
  8
0
 10
37.53830515576954
 20
1.7727980268339683
 11
36.669971999484275
 21
2.0351742154921317
  0
LINE
  8
0
 10
36.669971999484275
 20
2.0351742154921317
 11
35.962831232553626
 21
2.1942088099181976
  0
LINE
  8
0
 10
35.962831232553626
 20
2.1942088099181976
 11
35.42634227643027
 21
2.274740825170094
  0
LINE
  8
0
 10
35.42634227643027
 20
2.274740825170094
 11
34.85518792472748
 21
2.318678354931906
  0
LINE
  8
0
 10
34.85518792472748
 20
2.318678354931906
 11
34.45278063627431
 21
2.4208815424371157
  0
LINE
  8
0
 10
34.45278063627431
 20
2.4208815424371157
 11
34.249338210290176
 21
2.5795700853405896
  0
LINE
  8
0
 10
34.249338210290176
 20
2.5795700853405896
 11
34.003139032437154
 21
4.843334141763876
  0
LINE
  8
0
 10
34.003139032437154
 20
4.843334141763876
 11
34.167711741632274
 21
5.042046742590543
  0
LINE
  8
0
 10
34.167711741632274
 20
5.042046742590543
 11
34.53874030709407
 21
5.228366148310865
  0
LINE
  8
0
 10
34.53874030709407
 20
5.228366148310865
 11
35.08709611733595
 21
5.394057745456647
  0
LINE
  8
0
 10
35.08709611733595
 20
5.394057745456647
 11
35.5937302570277
 21
5.58803623401055
  0
LINE
  8
0
 10
35.5937302570277
 20
5.58803623401055
 11
36.25015072902015
 21
5.895367049954271
  0
LINE
  8
0
 10
36.25015072902015
 20
5.895367049954271
 11
37.041779613876116
 21
6.338274989982554
  0
LINE
  8
0
 10
37.041779613876116
 20
6.338274989982554
 11
37.95164384986663
 21
6.937410936313117
  0
LINE
  8
0
 10
37.95164384986663
 20
6.937410936313117
 11
38.70638689720224
 21
7.516596103971582
  0
LINE
  8
0
 10
38.70638689720224
 20
7.516596103971582
 11
38.547629263670686
 21
8.484974828199862
  0
LINE
  8
0
 10
38.547629263670686
 20
8.484974828199862
 11
38.28510211706277
 21
9.430512155351161
  0
LINE
  8
0
 10
38.28510211706277
 20
9.430512155351161
 11
37.356922339453924
 21
9.639257996900106
  0
LINE
  8
0
 10
37.356922339453924
 20
9.639257996900106
 11
36.27958126940873
 21
9.800976978239868
  0
LINE
  8
0
 10
36.27958126940873
 20
9.800976978239868
 11
35.375146134999184
 21
9.870552996555828
  0
LINE
  8
0
 10
35.375146134999184
 20
9.870552996555828
 11
34.65035018946156
 21
9.873855088583097
  0
LINE
  8
0
 10
34.65035018946156
 20
9.873855088583097
 11
34.109092044230266
 21
9.837175043004667
  0
LINE
  8
0
 10
34.109092044230266
 20
9.837175043004667
 11
33.54184569375937
 21
9.757304035323186
  0
LINE
  8
0
 10
33.54184569375937
 20
9.757304035323186
 11
33.12687579987948
 21
9.770612097156961
  0
LINE
  8
0
 10
33.12687579987948
 20
9.770612097156961
 11
32.894076398835445
 21
9.881856482240769
  0
LINE
  8
0
 10
32.894076398835445
 20
9.881856482240769
 11
32.166990865202045
 21
12.039769447378744
  0
LINE
  8
0
 10
32.166990865202045
 20
12.039769447378744
 11
32.28499862063571
 21
12.269214525767076
  0
LINE
  8
0
 10
32.28499862063571
 20
12.269214525767076
 11
32.60729957975378
 21
12.530938061369417
  0
LINE
  8
0
 10
32.60729957975378
 20
12.530938061369417
 11
33.10721634030136
 21
12.81063617097039
  0
LINE
  8
0
 10
33.10721634030136
 20
12.81063617097039
 11
33.56030601427292
 21
13.108990914293175
  0
LINE
  8
0
 10
33.56030601427292
 20
13.108990914293175
 11
34.135312699615824
 21
13.550247504374711
  0
LINE
  8
0
 10
34.135312699615824
 20
13.550247504374711
 11
34.813221626219175
 21
14.152977312754789
  0
LINE
  8
0
 10
34.813221626219175
 20
14.152977312754789
 11
35.573017223864035
 21
14.933699708949183
  0
LINE
  8
0
 10
35.573017223864035
 20
14.933699708949183
 11
36.18560710771604
 21
15.661591294378777
  0
LINE
  8
0
 10
36.18560710771604
 20
15.661591294378777
 11
35.82238833879488
 21
16.573201663805285
  0
LINE
  8
0
 10
35.82238833879488
 20
16.573201663805285
 11
35.36273635553201
 21
17.440197277418772
  0
LINE
  8
0
 10
35.36273635553201
 20
17.440197277418772
 11
34.411382719874794
 21
17.444531541806928
  0
LINE
  8
0
 10
34.411382719874794
 20
17.444531541806928
 11
33.32446448474887
 21
17.370873139146806
  0
LINE
  8
0
 10
33.32446448474887
 20
17.370873139146806
 11
32.42621775389258
 21
17.244395689832295
  0
LINE
  8
0
 10
32.42621775389258
 20
17.244395689832295
 11
31.717657282608496
 21
17.091810877307584
  0
LINE
  8
0
 10
31.717657282608496
 20
17.091810877307584
 11
31.19693857757505
 21
16.939633889063135
  0
LINE
  8
0
 10
31.19693857757505
 20
16.939633889063135
 11
30.660124037235025
 21
16.73968902348729
  0
LINE
  8
0
 10
30.660124037235025
 20
16.73968902348729
 11
30.251995068960333
 21
16.66347968946914
  0
LINE
  8
0
 10
30.251995068960333
 20
16.66347968946914
 11
30.00072413411126
 21
16.722078252926014
  0
LINE
  8
0
 10
30.00072413411126
 20
16.722078252926014
 11
28.826749956152664
 21
18.67323851487682
  0
LINE
  8
0
 10
28.826749956152664
 20
18.67323851487682
 11
28.892674846336995
 21
18.92268747397127
  0
LINE
  8
0
 10
28.892674846336995
 20
18.92268747397127
 11
29.15117776447476
 21
19.247577237815687
  0
LINE
  8
0
 10
29.15117776447476
 20
19.247577237815687
 11
29.57927992322241
 21
19.628203487129035
  0
LINE
  8
0
 10
29.57927992322241
 20
19.628203487129035
 11
29.957639161891862
 21
20.016983749020408
  0
LINE
  8
0
 10
29.957639161891862
 20
20.016983749020408
 11
30.424345387052625
 21
20.571533445509022
  0
LINE
  8
0
 10
30.424345387052625
 20
20.571533445509022
 11
30.956836087437047
 21
21.30590214628711
  0
LINE
  8
0
 10
30.956836087437047
 20
21.30590214628711
 11
31.53103584904253
 21
22.2317052808099
  0
LINE
  8
0
 10
31.53103584904253
 20
22.2317052808099
 11
31.972828547286753
 21
23.07426788246934
  0
LINE
  8
0
 10
31.972828547286753
 20
23.07426788246934
 11
31.42213234892209
 21
23.886484009401844
  0
LINE
  8
0
 10
31.42213234892209
 20
23.886484009401844
 11
30.786848344875143
 21
24.634398158181362
  0
LINE
  8
0
 10
30.786848344875143
 20
24.634398158181362
 11
29.856805089819268
 21
24.43411818002313
  0
LINE
  8
0
 10
29.856805089819268
 20
24.43411818002313
 11
28.81113277826425
 21
24.12852657840607
  0
LINE
  8
0
 10
28.81113277826425
 20
24.12852657840607
 11
27.96107546976652
 21
23.811909606421448
  0
LINE
  8
0
 10
27.96107546976652
 20
23.811909606421448
 11
27.301881972864805
 21
23.510572585592577
  0
LINE
  8
0
 10
27.301881972864805
 20
23.510572585592577
 11
26.826050935939307
 21
23.25001428151984
  0
LINE
  8
0
 10
26.826050935939307
 20
23.25001428151984
 11
26.34476905700995
 21
22.939344757741207
  0
LINE
  8
0
 10
26.34476905700995
 20
22.939344757741207
 11
25.962564671294206
 21
22.777181491629225
  0
LINE
  8
0
 10
25.962564671294206
 20
22.777181491629225
 11
25.704571352286052
 21
22.780394229759548
  0
LINE
  8
0
 10
25.704571352286052
 20
22.780394229759548
 11
24.138602257785013
 21
24.43356770323325
  0
LINE
  8
0
 10
24.138602257785013
 20
24.43356770323325
 11
24.149361708125248
 21
24.691356586949162
  0
LINE
  8
0
 10
24.149361708125248
 20
24.691356586949162
 11
24.33197927613594
 21
25.064221094767326
  0
LINE
  8
0
 10
24.33197927613594
 20
25.064221094767326
 11
24.668249251941997
 21
25.52797782341084
  0
LINE
  8
0
 10
24.668249251941997
 20
25.52797782341084
 11
24.954186397825254
 21
25.989004670922988
  0
LINE
  8
0
 10
24.954186397825254
 20
25.989004670922988
 11
25.29076949842207
 21
26.630917346348593
  0
LINE
  8
0
 10
25.29076949842207
 20
26.630917346348593
 11
25.652943299258492
 21
27.462586675268504
  0
LINE
  8
0
 10
25.652943299258492
 20
27.462586675268504
 11
26.014698282149133
 21
28.490181022505684
  0
LINE
  8
0
 10
26.014698282149133
 20
28.490181022505684
 11
26.265036059232983
 21
29.408017349582437
  0
LINE
  8
0
 10
26.265036059232983
 20
29.408017349582437
 11
25.552612373605474
 21
30.082860910638964
  0
LINE
  8
0
 10
25.552612373605474
 20
30.082860910638964
 11
24.77140152273623
 21
30.67672196023446
  0
LINE
  8
0
 10
24.77140152273623
 20
30.67672196023446
 11
23.906156437219273
 21
30.281192608713305
  0
LINE
  8
0
 10
23.906156437219273
 20
30.281192608713305
 11
22.95062452434217
 21
29.757956931790265
  0
LINE
  8
0
 10
22.95062452434217
 20
29.757956931790265
 11
22.188504373177516
 21
29.26600509485104
  0
LINE
  8
0
 10
22.188504373177516
 20
29.26600509485104
 11
21.609501005932355
 21
28.83000604989992
  0
LINE
  8
0
 10
21.609501005932355
 20
28.83000604989992
 11
21.20080696755322
 21
28.47324984670758
  0
LINE
  8
0
 10
21.20080696755322
 20
28.47324984670758
 11
20.797561955786875
 21
28.06638222637368
  0
LINE
  8
0
 10
20.797561955786875
 20
28.06638222637368
 11
20.459153604916487
 21
27.82584760225973
  0
LINE
  8
0
 10
20.459153604916487
 20
27.82584760225973
 11
20.206501382607094
 21
27.773524290999234
  0
LINE
  8
0
 10
20.206501382607094
 20
27.773524290999234
 11
18.321760345972837
 21
29.051410421746553
  0
LINE
  8
0
 10
18.321760345972837
 20
29.051410421746553
 11
18.276851256529334
 21
29.305485308393138
  0
LINE
  8
0
 10
18.276851256529334
 20
29.305485308393138
 11
18.37504447989762
 21
29.7088898302086
  0
LINE
  8
0
 10
18.37504447989762
 20
29.7088898302086
 11
18.60375866243063
 21
30.234092288979504
  0
LINE
  8
0
 10
18.60375866243063
 20
30.234092288979504
 11
18.78390361238251
 21
30.74580861911729
  0
LINE
  8
0
 10
18.78390361238251
 20
30.74580861911729
 11
18.974625336716713
 21
31.445069150211683
  0
LINE
  8
0
 10
18.974625336716713
 20
31.445069150211683
 11
19.149547393605292
 21
32.33515117378718
  0
LINE
  8
0
 10
19.149547393605292
 20
32.33515117378718
 11
19.281942336842906
 21
33.41648756415104
  0
LINE
  8
0
 10
19.281942336842906
 20
33.41648756415104
 11
19.32911967654041
 21
34.36668061009281
  0
LINE
  8
0
 10
19.32911967654041
 20
34.36668061009281
 11
18.488280643387956
 21
34.8725966703931
  0
LINE
  8
0
 10
18.488280643387956
 20
34.8725966703931
 11
17.59767149682956
 21
35.28463633815464
  0
LINE
  8
0
 10
17.59767149682956
 20
35.28463633815464
 11
16.83768247939945
 21
34.71235212614839
  0
LINE
  8
0
 10
16.83768247939945
 20
34.71235212614839
 11
16.016970575448955
 21
33.99593829263759
  0
LINE
  8
0
 10
16.016970575448955
 20
33.99593829263759
 11
15.378423472850116
 21
33.35165471187385
  0
LINE
  8
0
 10
15.378423472850116
 20
33.35165471187385
 11
14.906683789197862
 21
32.801380473564265
  0
LINE
  8
0
 10
14.906683789197862
 20
32.801380473564265
 11
14.5842368283689
 21
32.365107894807565
  0
LINE
  8
0
 10
14.5842368283689
 20
32.365107894807565
 11
14.277883972341128
 21
31.88106685564431
  0
LINE
  8
0
 10
14.277883972341128
 20
31.88106685564431
 11
13.999095254688921
 21
31.57340800521694
  0
LINE
  8
0
 10
13.999095254688921
 20
31.57340800521694
 11
13.763597866190704
 21
31.467995224446977
  0
LINE
  8
0
 10
13.763597866190704
 20
31.467995224446977
 11
11.64821328355704
 21
32.310841477262585
  0
LINE
  8
0
 10
11.64821328355704
 20
32.310841477262585
 11
11.549735553439307
 21
32.5493221075242
  0
LINE
  8
0
 10
11.549735553439307
 20
32.5493221075242
 11
11.558913026174421
 21
32.964403896248804
  0
LINE
  8
0
 10
11.558913026174421
 20
32.964403896248804
 11
11.669376994456693
 21
33.526494201895574
  0
LINE
  8
0
 10
11.669376994456693
 20
33.526494201895574
 11
11.735306370834175
 21
34.06497272779361
  0
LINE
  8
0
 10
11.735306370834175
 20
34.06497272779361
 11
11.771248783047877
 21
34.78888446929508
  0
LINE
  8
0
 10
11.771248783047877
 20
34.78888446929508
 11
11.750739935020409
 21
35.6957599413589
  0
LINE
  8
0
 10
11.750739935020409
 20
35.6957599413589
 11
11.647584198205616
 21
36.78027628705509
  0
LINE
  8
0
 10
11.647584198205616
 20
36.78027628705509
 11
11.489395140546359
 21
37.71839608109736
  0
LINE
  8
0
 10
11.489395140546359
 20
37.71839608109736
 11
10.559457458533677
 21
38.03172856794709
  0
LINE
  8
0
 10
10.559457458533677
 20
38.03172856794709
 11
9.601093910138228
 21
38.24268033695934
  0
LINE
  8
0
 10
9.601093910138228
 20
38.24268033695934
 11
8.981897202582877
 21
37.52040063817319
  0
LINE
  8
0
 10
8.981897202582877
 20
37.52040063817319
 11
8.33438088403194
 21
36.64430736269282
  0
LINE
  8
0
 10
8.33438088403194
 20
36.64430736269282
 11
7.849264582822315
 21
35.877818022271306
  0
LINE
  8
0
 10
7.849264582822315
 20
35.877818022271306
 11
7.506846606069546
 21
35.23899880240072
  0
LINE
  8
0
 10
7.506846606069546
 20
35.23899880240072
 11
7.285723984305066
 21
34.74360946898016
  0
LINE
  8
0
 10
7.285723984305066
 20
34.74360946898016
 11
7.0905880030769755
 21
34.20502823200587
  0
LINE
  8
0
 10
7.0905880030769755
 20
34.20502823200587
 11
6.884454769228966
 21
33.8446309411728
  0
LINE
  8
0
 10
6.884454769228966
 20
33.8446309411728
 11
6.6771238106915485
 21
33.691057675364284
  0
LINE
  8
0
 10
6.6771238106915485
 20
33.691057675364284
 11
4.430008714061325
 21
34.05945349622285
  0
LINE
  8
0
 10
4.430008714061325
 20
34.05945349622285
 11
4.2825670524795365
 21
34.271188780880664
  0
LINE
  8
0
 10
4.2825670524795365
 20
34.271188780880664
 11
4.202299646156411
 21
34.678539073403904
  0
LINE
  8
0
 10
4.202299646156411
 20
34.678539073403904
 11
4.189348227802949
 21
35.251234507953
  0
LINE
  8
0
 10
4.189348227802949
 20
35.251234507953
 11
4.1379792462418585
 21
35.791296572216204
  0
LINE
  8
0
 10
4.1379792462418585
 20
35.791296572216204
 11
4.017461719087065
 21
36.50601021566225
  0
LINE
  8
0
 10
4.017461719087065
 20
36.50601021566225
 11
3.802480937083367
 21
37.38727464706037
  0
LINE
  8
0
 10
3.802480937083367
 20
37.38727464706037
 11
3.468597967820257
 21
38.42426016911749
  0
LINE
  8
0
 10
3.468597967820257
 20
38.42426016911749
 11
3.1124392573258777
 21
39.30644127233611
  0
LINE
  8
0
 10
3.1124392573258777
 20
39.30644127233611
 11
2.136885778912417
 21
39.412539106894236
  0
LINE
  8
0
 10
2.136885778912417
 20
39.412539106894236
 11
1.1555798430583055
 21
39.412539106894236
  0
LINE
  8
0
 10
1.1555798430583055
 20
39.412539106894236
 11
0.7061283952352845
 21
38.57403691728721
  0
LINE
  8
0
 10
0.7061283952352845
 20
38.57403691728721
 11
0.2620848054766553
 21
37.57922934769098
  0
LINE
  8
0
 10
0.2620848054766553
 20
37.57922934769098
 11
-0.046917195267240724
 21
36.72637443727808
  0
LINE
  8
0
 10
-0.046917195267240724
 20
36.72637443727808
 11
-0.24400238109781067
 21
36.02888071257107
  0
LINE
  8
0
 10
-0.24400238109781067
 20
36.02888071257107
 11
-0.3534612157642462
 21
35.49753847913172
  0
LINE
  8
0
 10
-0.3534612157642462
 20
35.49753847913172
 11
-0.4282559805884944
 21
34.92960050439724
  0
LINE
  8
0
 10
-0.4282559805884944
 20
34.92960050439724
 11
-0.55209516971821
 21
34.53331654992501
  0
LINE
  8
0
 10
-0.55209516971821
 20
34.53331654992501
 11
-0.7215651331054257
 21
34.33876371430272
  0
LINE
  8
0
 10
-0.7215651331054257
 20
34.33876371430272
 11
-2.9953381393028287
 21
34.215483324063456
  0
LINE
  8
0
 10
-2.9953381393028287
 20
34.215483324063456
 11
-3.1848495241227477
 21
34.390572756533714
  0
LINE
  8
0
 10
-3.1848495241227477
 20
34.390572756533714
 11
-3.350808594795258
 21
34.771144305914554
  0
LINE
  8
0
 10
-3.350808594795258
 20
34.771144305914554
 11
-3.4865698058567136
 21
35.327666267351724
  0
LINE
  8
0
 10
-3.4865698058567136
 20
35.327666267351724
 11
-3.6528351888711
 21
35.84405916809101
  0
LINE
  8
0
 10
-3.6528351888711
 20
35.84405916809101
 11
-3.92417738977024
 21
36.51615549786125
  0
LINE
  8
0
 10
-3.92417738977024
 20
36.51615549786125
 11
-4.323577843317656
 21
37.33060194323658
  0
LINE
  8
0
 10
-4.323577843317656
 20
37.33060194323658
 11
-4.872576048470605
 21
38.27156835116986
  0
LINE
  8
0
 10
-4.872576048470605
 20
38.27156835116986
 11
-5.410050826339366
 21
39.05656095565219
  0
LINE
  8
0
 10
-5.410050826339366
 20
39.05656095565219
 11
-6.385604304752823
 21
38.95046312109405
  0
LINE
  8
0
 10
-6.385604304752823
 20
38.95046312109405
 11
-7.343967853148272
 21
38.739511352081806
  0
LINE
  8
0
 10
-7.343967853148272
 20
38.739511352081806
 11
-7.602658191068166
 21
37.823994102111676
  0
LINE
  8
0
 10
-7.602658191068166
 20
37.823994102111676
 11
-7.822466067296378
 21
36.7569883347047
  0
LINE
  8
0
 10
-7.822466067296378
 20
36.7569883347047
 11
-7.940905177450817
 21
35.85764640203118
  0
LINE
  8
0
 10
-7.940905177450817
 20
35.85764640203118
 11
-7.983442088114201
 21
35.13409220384645
  0
LINE
  8
0
 10
-7.983442088114201
 20
35.13409220384645
 11
-7.976118962228346
 21
34.591642042679446
  0
LINE
  8
0
 10
-7.976118962228346
 20
34.591642042679446
 11
-7.927075190573983
 21
34.02090347866565
  0
LINE
  8
0
 10
-7.927075190573983
 20
34.02090347866565
 11
-7.96282975213907
 21
33.6072626578274
  0
LINE
  8
0
 10
-7.96282975213907
 20
33.6072626578274
 11
-8.086514493240434
 21
33.38082732675509
  0
LINE
  8
0
 10
-8.086514493240434
 20
33.38082732675509
 11
-10.280626310352416
 21
32.77163517944926
  0
LINE
  8
0
 10
-10.280626310352416
 20
32.77163517944926
 11
-10.50334607668306
 21
32.901891772467586
  0
LINE
  8
0
 10
-10.50334607668306
 20
32.901891772467586
 11
-10.74723675001057
 21
33.237889476031874
  0
LINE
  8
0
 10
-10.74723675001057
 20
33.237889476031874
 11
-10.999459710438533
 21
33.752215615970044
  0
LINE
  8
0
 10
-10.999459710438533
 20
33.752215615970044
 11
-11.272847110387167
 21
34.22079339507633
  0
LINE
  8
0
 10
-11.272847110387167
 20
34.22079339507633
 11
-11.682326325291804
 21
34.81884593377214
  0
LINE
  8
0
 10
-11.682326325291804
 20
34.81884593377214
 11
-12.24747092907678
 21
35.52839178253113
  0
LINE
  8
0
 10
-12.24747092907678
 20
35.52839178253113
 11
-12.985913824214297
 21
36.329340532914664
  0
LINE
  8
0
 10
-12.985913824214297
 20
36.329340532914664
 11
-13.679572946204605
 21
36.98043925693173
  0
LINE
  8
0
 10
-13.679572946204605
 20
36.98043925693173
 11
-14.60951062821727
 21
36.667106770081986
  0
LINE
  8
0
 10
-14.60951062821727
 20
36.667106770081986
 11
-15.500119774775667
 21
36.255067102320446
  0
LINE
  8
0
 10
-15.500119774775667
 20
36.255067102320446
 11
-15.55595293010496
 21
35.305343361071465
  0
LINE
  8
0
 10
-15.55595293010496
 20
35.305343361071465
 11
-15.54124712080923
 21
34.21603139964597
  0
LINE
  8
0
 10
-15.54124712080923
 20
34.21603139964597
 11
-15.463585259219007
 21
33.31225467393688
  0
LINE
  8
0
 10
-15.463585259219007
 20
33.31225467393688
 11
-15.349584916048968
 21
32.59647259240882
  0
LINE
  8
0
 10
-15.349584916048968
 20
32.59647259240882
 11
-15.225822250838176
 21
32.06827887016027
  0
LINE
  8
0
 10
-15.225822250838176
 20
32.06827887016027
 11
-15.05523317495952
 21
31.521426817790086
  0
LINE
  8
0
 10
-15.05523317495952
 20
31.521426817790086
 11
-15.001231265399538
 21
31.109770515639457
  0
LINE
  8
0
 10
-15.001231265399538
 20
31.109770515639457
 11
-15.073347423186865
 21
30.862040553533276
  0
LINE
  8
0
 10
-15.073347423186865
 20
30.862040553533276
 11
-17.08520382122541
 21
29.79542179690047
  0
LINE
  8
0
 10
-17.08520382122541
 20
29.79542179690047
 11
-17.3307178403284
 21
29.874754896947135
  0
LINE
  8
0
 10
-17.3307178403284
 20
29.874754896947135
 11
-17.641136059491128
 21
30.150467875510817
  0
LINE
  8
0
 10
-17.641136059491128
 20
30.150467875510817
 11
-17.998027103981673
 21
30.598548875278933
  0
LINE
  8
0
 10
-17.998027103981673
 20
30.598548875278933
 11
-18.365753229891226
 21
30.997401356588007
  0
LINE
  8
0
 10
-18.365753229891226
 20
30.997401356588007
 11
-18.894222665815878
 21
31.493445832187625
  0
LINE
  8
0
 10
-18.894222665815878
 20
31.493445832187625
 11
-19.598685886278545
 21
32.06491350904587
  0
LINE
  8
0
 10
-19.598685886278545
 20
32.06491350904587
 11
-20.49204470234433
 21
32.68839312850232
  0
LINE
  8
0
 10
-20.49204470234433
 20
32.68839312850232
 11
-21.30945343885866
 21
33.17515331936335
  0
LINE
  8
0
 10
-21.30945343885866
 20
33.17515331936335
 11
-22.15029247201112
 21
32.66923725906305
  0
LINE
  8
0
 10
-22.15029247201112
 20
32.66923725906305
 11
-22.931503322880364
 21
32.07537620946756
  0
LINE
  8
0
 10
-22.931503322880364
 20
32.07537620946756
 11
-22.78186859932995
 21
31.135854003538405
  0
LINE
  8
0
 10
-22.78186859932995
 20
31.135854003538405
 11
-22.533336731808618
 21
30.075170864727355
  0
LINE
  8
0
 10
-22.533336731808618
 20
30.075170864727355
 11
-22.263205280806734
 21
29.209218941201154
  0
LINE
  8
0
 10
-22.263205280806734
 20
29.209218941201154
 11
-21.997998213147614
 21
28.53467815092737
  0
LINE
  8
0
 10
-21.997998213147614
 20
28.53467815092737
 11
-21.76358301328482
 21
28.045438619004464
  0
LINE
  8
0
 10
-21.76358301328482
 20
28.045438619004464
 11
-21.479425188773813
 21
27.548043272464323
  0
LINE
  8
0
 10
-21.479425188773813
 20
27.548043272464323
 11
-21.338191877360977
 21
27.15762008016676
  0
LINE
  8
0
 10
-21.338191877360977
 20
27.15762008016676
 11
-21.35536738044749
 21
26.900179064722714
  0
LINE
  8
0
 10
-21.35536738044749
 20
26.900179064722714
 11
-23.09089619025809
 21
25.42600760636147
  0
LINE
  8
0
 10
-23.09089619025809
 20
25.42600760636147
 11
-23.34772449946941
 21
25.4507076858507
  0
LINE
  8
0
 10
-23.34772449946941
 20
25.4507076858507
 11
-23.71015545354437
 21
25.653243906969113
  0
LINE
  8
0
 10
-23.71015545354437
 20
25.653243906969113
 11
-24.15502675351303
 21
26.014127997024275
  0
LINE
  8
0
 10
-24.15502675351303
 20
26.014127997024275
 11
-24.5998971404342
 21
26.32460528180282
  0
LINE
  8
0
 10
-24.5998971404342
 20
26.32460528180282
 11
-25.222646153906634
 21
26.695447205941043
  0
LINE
  8
0
 10
-25.222646153906634
 20
26.695447205941043
 11
-26.03348807381279
 21
27.10211551746936
  0
LINE
  8
0
 10
-26.03348807381279
 20
27.10211551746936
 11
-27.039990345464616
 21
27.518972791940772
  0
LINE
  8
0
 10
-27.039990345464616
 20
27.518972791940772
 11
-27.942927572468122
 21
27.818634084116198
  0
LINE
  8
0
 10
-27.942927572468122
 20
27.818634084116198
 11
-28.655351258095614
 21
27.143790523059675
  0
LINE
  8
0
 10
-28.655351258095614
 20
27.143790523059675
 11
-29.29063526214256
 21
26.39587637428015
  0
LINE
  8
0
 10
-29.29063526214256
 20
26.39587637428015
 11
-28.942529413078603
 21
25.510486717816146
  0
LINE
  8
0
 10
-28.942529413078603
 20
25.510486717816146
 11
-28.471792561233634
 21
24.52802876632571
  0
LINE
  8
0
 10
-28.471792561233634
 20
24.52802876632571
 11
-28.02182256723939
 21
23.74039259449005
  0
LINE
  8
0
 10
-28.02182256723939
 20
23.74039259449005
 11
-27.617809562818454
 21
23.138633873125503
  0
LINE
  8
0
 10
-27.617809562818454
 20
23.138633873125503
 11
-27.28370282251546
 21
22.71122482829027
  0
LINE
  8
0
 10
-27.28370282251546
 20
22.71122482829027
 11
-26.8992631534275
 21
22.28654384116917
  0
LINE
  8
0
 10
-26.8992631534275
 20
22.28654384116917
 11
-26.677402352833923
 21
21.935609513272297
  0
LINE
  8
0
 10
-26.677402352833923
 20
21.935609513272297
 11
-26.638834093784492
 21
21.680495100247406
  0
LINE
  8
0
 10
-26.638834093784492
 20
21.680495100247406
 11
-28.01688391712214
 21
19.8677015591268
  0
LINE
  8
0
 10
-28.01688391712214
 20
19.8677015591268
 11
-28.27301751014723
 21
19.83661366979384
  0
LINE
  8
0
 10
-28.27301751014723
 20
19.83661366979384
 11
-28.67051433053496
 21
19.956502764870333
  0
LINE
  8
0
 10
-28.67051433053496
 20
19.956502764870333
 11
-29.182564198434132
 21
20.213315406255422
  0
LINE
  8
0
 10
-29.182564198434132
 20
20.213315406255422
 11
-29.68377720151242
 21
20.420899921737906
  0
LINE
  8
0
 10
-29.68377720151242
 20
20.420899921737906
 11
-30.37168674079847
 21
20.649199138203226
  0
LINE
  8
0
 10
-30.37168674079847
 20
20.649199138203226
 11
-31.250993293159368
 21
20.87205272613392
  0
LINE
  8
0
 10
-31.250993293159368
 20
20.87205272613392
 11
-32.323576092821725
 21
21.06279587276959
  0
LINE
  8
0
 10
-32.323576092821725
 20
21.06279587276959
 11
-33.26982146912237
 21
21.161346437286895
  0
LINE
  8
0
 10
-33.26982146912237
 20
21.161346437286895
 11
-33.820517667487024
 21
20.34913031035438
  0
LINE
  8
0
 10
-33.820517667487024
 20
20.34913031035438
 11
-34.280169650749905
 21
19.482134696740893
  0
LINE
  8
0
 10
-34.280169650749905
 20
19.482134696740893
 11
-33.749869718782776
 21
18.692277426038366
  0
LINE
  8
0
 10
-33.749869718782776
 20
18.692277426038366
 11
-33.078939014620005
 21
17.83398330375665
  0
LINE
  8
0
 10
-33.078939014620005
 20
17.83398330375665
 11
-32.47017057444685
 21
17.161491875611834
  0
LINE
  8
0
 10
-32.47017057444685
 20
17.161491875611834
 11
-31.94624283232261
 21
16.660652792160743
  0
LINE
  8
0
 10
-31.94624283232261
 20
16.660652792160743
 11
-31.528067011423005
 21
16.31505940631865
  0
LINE
  8
0
 10
-31.528067011423005
 20
16.31505940631865
 11
-31.06132146941065
 21
15.982950389575345
  0
LINE
  8
0
 10
-31.06132146941065
 20
15.982950389575345
 11
-30.76920714409151
 21
15.687914225216131
  0
LINE
  8
0
 10
-30.76920714409151
 20
15.687914225216131
 11
-30.676698531833754
 21
15.44705528102414
  0
LINE
  8
0
 10
-30.676698531833754
 20
15.44705528102414
 11
-31.63283329055156
 21
13.380403868351658
  0
LINE
  8
0
 10
-31.63283329055156
 20
13.380403868351658
 11
-31.876295645252597
 21
13.294981645350015
  0
LINE
  8
0
 10
-31.876295645252597
 20
13.294981645350015
 11
-32.29027182241775
 21
13.326617733545968
  0
LINE
  8
0
 10
-32.29027182241775
 20
13.326617733545968
 11
-32.84555737552703
 21
13.467350652576568
  0
LINE
  8
0
 10
-32.84555737552703
 20
13.467350652576568
 11
-33.37967683179672
 21
13.562335977532653
  0
LINE
  8
0
 10
-33.37967683179672
 20
13.562335977532653
 11
-34.100581011395924
 21
13.637417468699505
  0
LINE
  8
0
 10
-34.100581011395924
 20
13.637417468699505
 11
-35.00723679910221
 21
13.666035946944904
  0
LINE
  8
0
 10
-35.00723679910221
 20
13.666035946944904
 11
-36.09574734715305
 21
13.621746028203939
  0
LINE
  8
0
 10
-36.09574734715305
 20
13.621746028203939
 11
-37.04105549063121
 21
13.514577750197372
  0
LINE
  8
0
 10
-37.04105549063121
 20
13.514577750197372
 11
-37.404274259552366
 21
12.60296738077084
  0
LINE
  8
0
 10
-37.404274259552366
 20
12.60296738077084
 11
-37.666801406160275
 21
11.65743005361954
  0
LINE
  8
0
 10
-37.666801406160275
 20
11.65743005361954
 11
-36.97910362672272
 21
11.000038016793233
  0
LINE
  8
0
 10
-36.97910362672272
 20
11.000038016793233
 11
-36.139351044282876
 21
10.306040602952725
  0
LINE
  8
0
 10
-36.139351044282876
 20
10.306040602952725
 11
-35.40024949359577
 21
9.78013887025827
  0
LINE
  8
0
 10
-35.40024949359577
 20
9.78013887025827
 11
-34.78090529268611
 21
9.403638103620152
  0
LINE
  8
0
 10
-34.78090529268611
 20
9.403638103620152
 11
-34.29821382780612
 21
9.15601993939371
  0
LINE
  8
0
 10
-34.29821382780612
 20
9.15601993939371
 11
-33.77098691566346
 21
8.932011941538462
  0
LINE
  8
0
 10
-33.77098691566346
 20
8.932011941538462
 11
-33.422278006808924
 21
8.706669503853194
  0
LINE
  8
0
 10
-33.422278006808924
 20
8.706669503853194
 11
-33.28015464123606
 21
8.491328325029029
  0
LINE
  8
0
 10
-33.28015464123606
 20
8.491328325029029
 11
-33.769666536683836
 21
6.267453363943167
  0
LINE
  8
0
 10
-33.769666536683836
 20
6.267453363943167
 11
-33.98907362394399
 21
6.131691055480417
  0
LINE
  8
0
 10
-33.98907362394399
 20
6.131691055480417
 11
-34.4001720919438
 21
6.07359486847277
  0
LINE
  8
0
 10
-34.4001720919438
 20
6.07359486847277
 11
-34.97272879495535
 21
6.091667550268413
  0
LINE
  8
0
 10
-34.97272879495535
 20
6.091667550268413
 11
-35.51477987227243
 21
6.0696122764717595
  0
LINE
  8
0
 10
-35.51477987227243
 20
6.0696122764717595
 11
-36.23497001397416
 21
5.987965315260265
  0
LINE
  8
0
 10
-36.23497001397416
 20
5.987965315260265
 11
-37.12658082006822
 21
5.82101051558477
  0
LINE
  8
0
 10
-37.12658082006822
 20
5.82101051558477
 11
-38.180121573073265
 21
5.543758478842778
  0
LINE
  8
0
 10
-38.180121573073265
 20
5.543758478842778
 11
-39.08029092557445
 21
5.235882427882946
  0
LINE
  8
0
 10
-39.08029092557445
 20
5.235882427882946
 11
-39.23904855910601
 21
4.267503703654679
  0
LINE
  8
0
 10
-39.23904855910601
 20
4.267503703654679
 11
-39.29217539146154
 21
3.2876369374939
  0
LINE
  8
0
 10
-39.29217539146154
 20
3.2876369374939
 11
-38.479235748398864
 21
2.79344905554704
  0
LINE
  8
0
 10
-38.479235748398864
 20
2.79344905554704
 11
-37.50992718511888
 21
2.2961988978961974
  0
LINE
  8
0
 10
-37.50992718511888
 20
2.2961988978961974
 11
-36.67505209097559
 21
1.9414774411750981
  0
LINE
  8
0
 10
-36.67505209097559
 20
1.9414774411750981
 11
-35.98925127776338
 21
1.7069197487474015
  0
LINE
  8
0
 10
-35.98925127776338
 20
1.7069197487474015
 11
-35.46461428532777
 21
1.568855156288015
  0
LINE
  8
0
 10
-35.46461428532777
 20
1.568855156288015
 11
-34.90155854749596
 21
1.4634225423335288
  0
LINE
  8
0
 10
-34.90155854749596
 20
1.4634225423335288
 11
-34.51256029612196
 21
1.3183105932582397
  0
LINE
  8
0
 10
-34.51256029612196
 20
1.3183105932582397
 11
-34.327467707849415
 21
1.1385562939891891
  0
LINE
  8
0
 10
-34.327467707849415
 20
1.1385562939891891
 11
-34.327467707849415
 21
-1.138556293989174
  0
LINE
  8
0
 10
-34.327467707849415
 20
-1.138556293989174
 11
-34.512560296121855
 21
-1.3183105932582828
  0
LINE
  8
0
 10
-34.512560296121855
 20
-1.3183105932582828
 11
-34.90155854749578
 21
-1.4634225423343241
  0
LINE
  8
0
 10
-34.90155854749578
 20
-1.4634225423343241
 11
-35.46461428532786
 21
-1.5688551562880577
  0
LINE
  8
0
 10
-35.46461428532786
 20
-1.5688551562880577
 11
-35.98925127776347
 21
-1.7069197487473957
  0
LINE
  8
0
 10
-35.98925127776347
 20
-1.7069197487473957
 11
-36.67505209097562
 21
-1.9414774411750644
  0
LINE
  8
0
 10
-36.67505209097562
 20
-1.9414774411750644
 11
-37.509927185118734
 21
-2.2961988978955596
  0
LINE
  8
0
 10
-37.509927185118734
 20
-2.2961988978955596
 11
-38.47923574839392
 21
-2.793449055544025
  0
LINE
  8
0
 10
-38.47923574839392
 20
-2.793449055544025
 11
-39.29217539146155
 21
-3.2876369374938945
  0
LINE
  8
0
 10
-39.29217539146155
 20
-3.2876369374938945
 11
-39.23904855910601
 21
-4.267503703654685
  0
LINE
  8
0
 10
-39.23904855910601
 20
-4.267503703654685
 11
-39.08029092557445
 21
-5.235882427882957
  0
LINE
  8
0
 10
-39.08029092557445
 20
-5.235882427882957
 11
-38.18012157307876
 21
-5.543758478840914
  0
LINE
  8
0
 10
-38.18012157307876
 20
-5.543758478840914
 11
-37.126580820068504
 21
-5.821010515584195
  0
LINE
  8
0
 10
-37.126580820068504
 20
-5.821010515584195
 11
-36.23497001397414
 21
-5.987965315260241
  0
LINE
  8
0
 10
-36.23497001397414
 20
-5.987965315260241
 11
-35.51477987227234
 21
-6.069612276471748
  0
LINE
  8
0
 10
-35.51477987227234
 20
-6.069612276471748
 11
-34.972728794955266
 21
-6.0916675502684505
  0
LINE
  8
0
 10
-34.972728794955266
 20
-6.0916675502684505
 11
-34.4001720919438
 21
-6.073594868473597
  0
LINE
  8
0
 10
-34.4001720919438
 20
-6.073594868473597
 11
-33.98907362394409
 21
-6.131691055480493
  0
LINE
  8
0
 10
-33.98907362394409
 20
-6.131691055480493
 11
-33.769666536683836
 21
-6.267453363943165
  0
LINE
  8
0
 10
-33.769666536683836
 20
-6.267453363943165
 11
-33.28015464123607
 21
-8.491328325029029
  0
LINE
  8
0
 10
-33.28015464123607
 20
-8.491328325029029
 11
-33.42227800680882
 21
-8.706669503853226
  0
LINE
  8
0
 10
-33.42227800680882
 20
-8.706669503853226
 11
-33.77098691566311
 21
-8.932011941539214
  0
LINE
  8
0
 10
-33.77098691566311
 20
-8.932011941539214
 11
-34.298213827806194
 21
-9.156019939393781
  0
LINE
  8
0
 10
-34.298213827806194
 20
-9.156019939393781
 11
-34.7809052926862
 21
-9.403638103620178
  0
LINE
  8
0
 10
-34.7809052926862
 20
-9.403638103620178
 11
-35.4002494935958
 21
-9.780138870258257
  0
LINE
  8
0
 10
-35.4002494935958
 20
-9.780138870258257
 11
-36.13935104428287
 21
-10.306040602952084
  0
LINE
  8
0
 10
-36.13935104428287
 20
-10.306040602952084
 11
-36.97910362671853
 21
-11.000038016789237
  0
LINE
  8
0
 10
-36.97910362671853
 20
-11.000038016789237
 11
-37.66680140616028
 21
-11.657430053619553
  0
LINE
  8
0
 10
-37.66680140616028
 20
-11.657430053619553
 11
-37.40427425955235
 21
-12.60296738077088
  0
LINE
  8
0
 10
-37.40427425955235
 20
-12.60296738077088
 11
-37.0410554906312
 21
-13.51457775019738
  0
LINE
  8
0
 10
-37.0410554906312
 20
-13.51457775019738
 11
-36.095747347158806
 21
-13.621746028203292
  0
LINE
  8
0
 10
-36.095747347158806
 20
-13.621746028203292
 11
-35.00723679910261
 21
-13.666035946944403
  0
LINE
  8
0
 10
-35.00723679910261
 20
-13.666035946944403
 11
-34.10058101139591
 21
-13.637417468699477
  0
LINE
  8
0
 10
-34.10058101139591
 20
-13.637417468699477
 11
-33.379676831796644
 21
-13.562335977532626
  0
LINE
  8
0
 10
-33.379676831796644
 20
-13.562335977532626
 11
-32.84555737552693
 21
-13.467350652576586
  0
LINE
  8
0
 10
-32.84555737552693
 20
-13.467350652576586
 11
-32.29027182241757
 21
-13.326617733546778
  0
LINE
  8
0
 10
-32.29027182241757
 20
-13.326617733546778
 11
-31.87629564525267
 21
-13.294981645350113
  0
LINE
  8
0
 10
-31.87629564525267
 20
-13.294981645350113
 11
-31.63283329055156
 21
-13.380403868351655
  0
LINE
  8
0
 10
-31.63283329055156
 20
-13.380403868351655
 11
-30.67669853183375
 21
-15.44705528102414
  0
LINE
  8
0
 10
-30.67669853183375
 20
-15.44705528102414
 11
-30.769207144091396
 21
-15.687914225216138
  0
LINE
  8
0
 10
-30.769207144091396
 20
-15.687914225216138
 11
-31.061321469410153
 21
-15.982950389576008
  0
LINE
  8
0
 10
-31.061321469410153
 20
-15.982950389576008
 11
-31.52806701142306
 21
-16.31505940631874
  0
LINE
  8
0
 10
-31.52806701142306
 20
-16.31505940631874
 11
-31.94624283232269
 21
-16.660652792160793
  0
LINE
  8
0
 10
-31.94624283232269
 20
-16.660652792160793
 11
-32.470170574446875
 21
-17.16149187561183
  0
LINE
  8
0
 10
-32.470170574446875
 20
-17.16149187561183
 11
-33.078939014620126
 21
-17.83398330375602
  0
LINE
  8
0
 10
-33.078939014620126
 20
-17.83398330375602
 11
-33.74986971877954
 21
-18.692277426033566
  0
LINE
  8
0
 10
-33.74986971877954
 20
-18.692277426033566
 11
-34.2801696507499
 21
-19.48213469674091
  0
LINE
  8
0
 10
-34.2801696507499
 20
-19.48213469674091
 11
-33.82051766748704
 21
-20.349130310354372
  0
LINE
  8
0
 10
-33.82051766748704
 20
-20.349130310354372
 11
-33.269821469122384
 21
-21.161346437286873
  0
LINE
  8
0
 10
-33.269821469122384
 20
-21.161346437286873
 11
-32.32357609282751
 21
-21.062795872770174
  0
LINE
  8
0
 10
-32.32357609282751
 20
-21.062795872770174
 11
-31.250993293159887
 21
-20.87205272613349
  0
LINE
  8
0
 10
-31.250993293159887
 20
-20.87205272613349
 11
-30.37168674079848
 21
-20.649199138203173
  0
LINE
  8
0
 10
-30.37168674079848
 20
-20.649199138203173
 11
-29.683777201512363
 21
-20.42089992173784
  0
LINE
  8
0
 10
-29.683777201512363
 20
-20.42089992173784
 11
-29.182564198434054
 21
-20.213315406255393
  0
LINE
  8
0
 10
-29.182564198434054
 20
-20.213315406255393
 11
-28.670514330534633
 21
-19.956502764871058
  0
LINE
  8
0
 10
-28.670514330534633
 20
-19.956502764871058
 11
-28.273017510147298
 21
-19.836613669793923
  0
LINE
  8
0
 10
-28.273017510147298
 20
-19.836613669793923
 11
-28.016883917122165
 21
-19.867701559126772
  0
LINE
  8
0
 10
-28.016883917122165
 20
-19.867701559126772
 11
-26.638834093784514
 21
-21.68049510024738
  0
LINE
  8
0
 10
-26.638834093784514
 20
-21.68049510024738
 11
-26.677402352833827
 21
-21.93560951327225
  0
LINE
  8
0
 10
-26.677402352833827
 20
-21.93560951327225
 11
-26.899263153426897
 21
-22.286543841169678
  0
LINE
  8
0
 10
-26.899263153426897
 20
-22.286543841169678
 11
-27.28370282251551
 21
-22.71122482829034
  0
LINE
  8
0
 10
-27.28370282251551
 20
-22.71122482829034
 11
-27.617809562818547
 21
-23.13863387312554
  0
LINE
  8
0
 10
-27.617809562818547
 20
-23.13863387312554
 11
-28.021822567239443
 21
-23.74039259449002
  0
LINE
  8
0
 10
-28.021822567239443
 20
-23.74039259449002
 11
-28.47179256123391
 21
-24.528028766325097
  0
LINE
  8
0
 10
-28.47179256123391
 20
-24.528028766325097
 11
-28.9425294130765
 21
-25.510486717810732
  0
LINE
  8
0
 10
-28.9425294130765
 20
-25.510486717810732
 11
-29.29063526214258
 21
-26.39587637428014
  0
LINE
  8
0
 10
-29.29063526214258
 20
-26.39587637428014
 11
-28.65535125809562
 21
-27.14379052305966
  0
LINE
  8
0
 10
-28.65535125809562
 20
-27.14379052305966
 11
-27.942927572468122
 21
-27.81863408411619
  0
LINE
  8
0
 10
-27.942927572468122
 20
-27.81863408411619
 11
-27.039990345470123
 21
-27.51897279194259
  0
LINE
  8
0
 10
-27.039990345470123
 20
-27.51897279194259
 11
-26.033488073813373
 21
-27.10211551746906
  0
LINE
  8
0
 10
-26.033488073813373
 20
-27.10211551746906
 11
-25.222646153906645
 21
-26.695447205940997
  0
LINE
  8
0
 10
-25.222646153906645
 20
-26.695447205940997
 11
-24.59989714043415
 21
-26.324605281802747
  0
LINE
  8
0
 10
-24.59989714043415
 20
-26.324605281802747
 11
-24.155026753512946
 21
-26.014127997024236
  0
LINE
  8
0
 10
-24.155026753512946
 20
-26.014127997024236
 11
-23.710155453543884
 21
-25.65324390696976
  0
LINE
  8
0
 10
-23.710155453543884
 20
-25.65324390696976
 11
-23.347724499469447
 21
-25.4507076858508
  0
LINE
  8
0
 10
-23.347724499469447
 20
-25.4507076858508
 11
-23.090896190258107
 21
-25.426007606361456
  0
LINE
  8
0
 10
-23.090896190258107
 20
-25.426007606361456
 11
-21.355367380447504
 21
-26.900179064722703
  0
LINE
  8
0
 10
-21.355367380447504
 20
-26.900179064722703
 11
-21.33819187736088
 21
-27.157620080166705
  0
LINE
  8
0
 10
-21.33819187736088
 20
-27.157620080166705
 11
-21.4794251887731
 21
-27.5480432724647
  0
LINE
  8
0
 10
-21.4794251887731
 20
-27.5480432724647
 11
-21.763583013284844
 21
-28.04543861900455
  0
LINE
  8
0
 10
-21.763583013284844
 20
-28.04543861900455
 11
-21.997998213147678
 21
-28.53467815092743
  0
LINE
  8
0
 10
-21.997998213147678
 20
-28.53467815092743
 11
-22.263205280806773
 21
-29.209218941201144
  0
LINE
  8
0
 10
-22.263205280806773
 20
-29.209218941201144
 11
-22.533336731809
 21
-30.075170864726825
  0
LINE
  8
0
 10
-22.533336731809
 20
-30.075170864726825
 11
-22.781868599329037
 21
-31.13585400353267
  0
LINE
  8
0
 10
-22.781868599329037
 20
-31.13585400353267
 11
-22.93150332288037
 21
-32.07537620946755
  0
LINE
  8
0
 10
-22.93150332288037
 20
-32.07537620946755
 11
-22.150292472011113
 21
-32.669237259063046
  0
LINE
  8
0
 10
-22.150292472011113
 20
-32.669237259063046
 11
-21.309453438858664
 21
-33.175153319363346
  0
LINE
  8
0
 10
-21.309453438858664
 20
-33.175153319363346
 11
-20.492044702349315
 21
-32.68839312850528
  0
LINE
  8
0
 10
-20.492044702349315
 20
-32.68839312850528
 11
-19.59868588627918
 21
-32.0649135090457
  0
LINE
  8
0
 10
-19.59868588627918
 20
-32.0649135090457
 11
-18.8942226658159
 21
-31.493445832187586
  0
LINE
  8
0
 10
-18.8942226658159
 20
-31.493445832187586
 11
-18.365753229891187
 21
-30.997401356587925
  0
LINE
  8
0
 10
-18.365753229891187
 20
-30.997401356587925
 11
-17.998027103981595
 21
-30.59854887527888
  0
LINE
  8
0
 10
-17.998027103981595
 20
-30.59854887527888
 11
-17.641136059490506
 21
-30.15046787551135
  0
LINE
  8
0
 10
-17.641136059490506
 20
-30.15046787551135
 11
-17.33071784032841
 21
-29.87475489694724
  0
LINE
  8
0
 10
-17.33071784032841
 20
-29.87475489694724
 11
-17.08520382122542
 21
-29.795421796900463
  0
LINE
  8
0
 10
-17.08520382122542
 20
-29.795421796900463
 11
-15.073347423186883
 21
-30.86204055353327
  0
LINE
  8
0
 10
-15.073347423186883
 20
-30.86204055353327
 11
-15.001231265399452
 21
-31.10977051563939
  0
LINE
  8
0
 10
-15.001231265399452
 20
-31.10977051563939
 11
-15.055233174958735
 21
-31.521426817790307
  0
LINE
  8
0
 10
-15.055233174958735
 20
-31.521426817790307
 11
-15.22582225083818
 21
-32.06827887016036
  0
LINE
  8
0
 10
-15.22582225083818
 20
-32.06827887016036
 11
-15.349584916049016
 21
-32.5964725924089
  0
LINE
  8
0
 10
-15.349584916049016
 20
-32.5964725924089
 11
-15.463585259219052
 21
-33.31225467393688
  0
LINE
  8
0
 10
-15.463585259219052
 20
-33.31225467393688
 11
-15.541247120809727
 21
-34.216031399645544
  0
LINE
  8
0
 10
-15.541247120809727
 20
-34.216031399645544
 11
-15.555952930105304
 21
-35.30534336106568
  0
LINE
  8
0
 10
-15.555952930105304
 20
-35.30534336106568
 11
-15.500119774775678
 21
-36.25506710232045
  0
LINE
  8
0
 10
-15.500119774775678
 20
-36.25506710232045
 11
-14.609510628217267
 21
-36.66710677008199
  0
LINE
  8
0
 10
-14.609510628217267
 20
-36.66710677008199
 11
-13.67957294620461
 21
-36.980439256931724
  0
LINE
  8
0
 10
-13.67957294620461
 20
-36.980439256931724
 11
-12.98591382421853
 21
-36.32934053291863
  0
LINE
  8
0
 10
-12.98591382421853
 20
-36.32934053291863
 11
-12.247470929077435
 21
-35.5283917825311
  0
LINE
  8
0
 10
-12.247470929077435
 20
-35.5283917825311
 11
-11.68232632529183
 21
-34.81884593377211
  0
LINE
  8
0
 10
-11.68232632529183
 20
-34.81884593377211
 11
-11.272847110387147
 21
-34.220793395076235
  0
LINE
  8
0
 10
-11.272847110387147
 20
-34.220793395076235
 11
-10.99945971043847
 21
-33.75221561596997
  0
LINE
  8
0
 10
-10.99945971043847
 20
-33.75221561596997
 11
-10.747236750009852
 21
-33.23788947603225
  0
LINE
  8
0
 10
-10.747236750009852
 20
-33.23788947603225
 11
-10.50334607668305
 21
-32.9018917724677
  0
LINE
  8
0
 10
-10.50334607668305
 20
-32.9018917724677
 11
-10.28062631035243
 21
-32.771635179449255
  0
LINE
  8
0
 10
-10.28062631035243
 20
-32.771635179449255
 11
-8.08651449324045
 21
-33.38082732675508
  0
LINE
  8
0
 10
-8.08651449324045
 20
-33.38082732675508
 11
-7.962829752139001
 21
-33.607262657827306
  0
LINE
  8
0
 10
-7.962829752139001
 20
-33.607262657827306
 11
-7.92707519057317
 21
-34.020903478665694
  0
LINE
  8
0
 10
-7.92707519057317
 20
-34.020903478665694
 11
-7.976118962228329
 21
-34.59164204267953
  0
LINE
  8
0
 10
-7.976118962228329
 20
-34.59164204267953
 11
-7.983442088114232
 21
-35.134092203846535
  0
LINE
  8
0
 10
-7.983442088114232
 20
-35.134092203846535
 11
-7.940905177450857
 21
-35.85764640203119
  0
LINE
  8
0
 10
-7.940905177450857
 20
-35.85764640203119
 11
-7.8224660672969515
 21
-36.75698833470438
  0
LINE
  8
0
 10
-7.8224660672969515
 20
-36.75698833470438
 11
-7.602658191069746
 21
-37.823994102106084
  0
LINE
  8
0
 10
-7.602658191069746
 20
-37.823994102106084
 11
-7.343967853148279
 21
-38.739511352081806
  0
LINE
  8
0
 10
-7.343967853148279
 20
-38.739511352081806
 11
-6.385604304752814
 21
-38.95046312109405
  0
LINE
  8
0
 10
-6.385604304752814
 20
-38.95046312109405
 11
-5.4100508263393605
 21
-39.05656095565219
  0
LINE
  8
0
 10
-5.4100508263393605
 20
-39.05656095565219
 11
-4.872576048473875
 21
-38.27156835117464
  0
LINE
  8
0
 10
-4.872576048473875
 20
-38.27156835117464
 11
-4.323577843318291
 21
-37.330601943236694
  0
LINE
  8
0
 10
-4.323577843318291
 20
-37.330601943236694
 11
-3.924177389770264
 21
-36.51615549786123
  0
LINE
  8
0
 10
-3.924177389770264
 20
-36.51615549786123
 11
-3.652835188871094
 21
-35.844059168090915
  0
LINE
  8
0
 10
-3.652835188871094
 20
-35.844059168090915
 11
-3.4865698058566577
 21
-35.32766626735164
  0
LINE
  8
0
 10
-3.4865698058566577
 20
-35.32766626735164
 11
-3.3508085947944664
 21
-34.771144305914774
  0
LINE
  8
0
 10
-3.3508085947944664
 20
-34.771144305914774
 11
-3.1848495241227033
 21
-34.39057275653382
  0
LINE
  8
0
 10
-3.1848495241227033
 20
-34.39057275653382
 11
-2.9953381393028358
 21
-34.21548332406346
  0
LINE
  8
0
 10
-2.9953381393028358
 20
-34.21548332406346
 11
-0.721565133105433
 21
-34.33876371430272
  0
LINE
  8
0
 10
-0.721565133105433
 20
-34.33876371430272
 11
-0.5520951697181539
 21
-34.53331654992491
  0
LINE
  8
0
 10
-0.5520951697181539
 20
-34.53331654992491
 11
-0.4282559805876838
 21
-34.92960050439711
  0
LINE
  8
0
 10
-0.4282559805876838
 20
-34.92960050439711
 11
-0.3534612157641999
 21
-35.497538479131805
  0
LINE
  8
0
 10
-0.3534612157641999
 20
-35.497538479131805
 11
-0.24400238109781316
 21
-36.02888071257116
  0
LINE
  8
0
 10
-0.24400238109781316
 20
-36.02888071257116
 11
-0.04691719526726776
 21
-36.7263744372781
  0
LINE
  8
0
 10
-0.04691719526726776
 20
-36.7263744372781
 11
0.2620848054760357
 21
-37.57922934769079
  0
LINE
  8
0
 10
0.2620848054760357
 20
-37.57922934769079
 11
0.7061283952325498
 21
-38.5740369172821
  0
LINE
  8
0
 10
0.7061283952325498
 20
-38.5740369172821
 11
1.1555798430583093
 21
-39.41253910689424
  0
LINE
  8
0
 10
1.1555798430583093
 20
-39.41253910689424
 11
2.136885778912435
 21
-39.412539106894236
  0
LINE
  8
0
 10
2.136885778912435
 20
-39.412539106894236
 11
3.11243925732589
 21
-39.3064412723361
  0
LINE
  8
0
 10
3.11243925732589
 20
-39.3064412723361
 11
3.4685979678181
 21
-38.424260169122874
  0
LINE
  8
0
 10
3.4685979678181
 20
-38.424260169122874
 11
3.80248093708278
 21
-37.387274647060636
  0
LINE
  8
0
 10
3.80248093708278
 20
-37.387274647060636
 11
4.017461719087046
 21
-36.50601021566223
  0
LINE
  8
0
 10
4.017461719087046
 20
-36.50601021566223
 11
4.137979246241854
 21
-35.79129657221611
  0
LINE
  8
0
 10
4.137979246241854
 20
-35.79129657221611
 11
4.189348227802992
 21
-35.251234507952915
  0
LINE
  8
0
 10
4.189348227802992
 20
-35.251234507952915
 11
4.202299646157239
 21
-34.678539073403954
  0
LINE
  8
0
 10
4.202299646157239
 20
-34.678539073403954
 11
4.28256705247961
 21
-34.271188780880756
  0
LINE
  8
0
 10
4.28256705247961
 20
-34.271188780880756
 11
4.4300087140613265
 21
-34.059453496222865
  0
LINE
  8
0
 10
4.4300087140613265
 20
-34.059453496222865
 11
6.677123810691549
 21
-33.69105767536429
  0
LINE
  8
0
 10
6.677123810691549
 20
-33.69105767536429
 11
6.884454769229007
 21
-33.84463094117269
  0
LINE
  8
0
 10
6.884454769229007
 20
-33.84463094117269
 11
7.090588003077746
 21
-34.20502823200557
  0
LINE
  8
0
 10
7.090588003077746
 20
-34.20502823200557
 11
7.285723984305138
 21
-34.74360946898024
  0
LINE
  8
0
 10
7.285723984305138
 20
-34.74360946898024
 11
7.506846606069571
 21
-35.23899880240081
  0
LINE
  8
0
 10
7.506846606069571
 20
-35.23899880240081
 11
7.8492645828223
 21
-35.877818022271335
  0
LINE
  8
0
 10
7.8492645828223
 20
-35.877818022271335
 11
8.334380884031305
 21
-36.64430736269277
  0
LINE
  8
0
 10
8.334380884031305
 20
-36.64430736269277
 11
8.981897202579114
 21
-37.520400638168795
  0
LINE
  8
0
 10
8.981897202579114
 20
-37.520400638168795
 11
9.60109391013824
 21
-38.242680336959346
  0
LINE
  8
0
 10
9.60109391013824
 20
-38.242680336959346
 11
10.559457458533668
 21
-38.0317285679471
  0
LINE
  8
0
 10
10.559457458533668
 20
-38.0317285679471
 11
11.489395140546323
 21
-37.71839608109736
  0
LINE
  8
0
 10
11.489395140546323
 20
-37.71839608109736
 11
11.64758419820462
 21
-36.780276287060815
  0
LINE
  8
0
 10
11.64758419820462
 20
-36.780276287060815
 11
11.75073993501985
 21
-35.695759941359285
  0
LINE
  8
0
 10
11.75073993501985
 20
-35.695759941359285
 11
11.771248783047811
 21
-34.78888446929508
  0
LINE
  8
0
 10
11.771248783047811
 20
-34.78888446929508
 11
11.735306370834111
 21
-34.064972727793545
  0
LINE
  8
0
 10
11.735306370834111
 20
-34.064972727793545
 11
11.669376994456679
 21
-33.52649420189549
  0
LINE
  8
0
 10
11.669376994456679
 20
-33.52649420189549
 11
11.558913026175203
 21
-32.96440389624868
  0
LINE
  8
0
 10
11.558913026175203
 20
-32.96440389624868
 11
11.549735553439364
 21
-32.54932210752429
  0
LINE
  8
0
 10
11.549735553439364
 20
-32.54932210752429
 11
11.648213283557
 21
-32.3108414772626
  0
LINE
  8
0
 10
11.648213283557
 20
-32.3108414772626
 11
13.763597866190667
 21
-31.46799522444699
  0
LINE
  8
0
 10
13.763597866190667
 20
-31.46799522444699
 11
13.999095254688902
 21
-31.573408005216837
  0
LINE
  8
0
 10
13.999095254688902
 20
-31.573408005216837
 11
14.27788397234178
 21
-31.881066855643866
  0
LINE
  8
0
 10
14.27788397234178
 20
-31.881066855643866
 11
14.58423682836895
 21
-32.365107894807636
  0
LINE
  8
0
 10
14.58423682836895
 20
-32.365107894807636
 11
14.906683789197865
 21
-32.801380473564365
  0
LINE
  8
0
 10
14.906683789197865
 20
-32.801380473564365
 11
15.378423472850072
 21
-33.3516547118739
  0
LINE
  8
0
 10
15.378423472850072
 20
-33.3516547118739
 11
16.016970575448283
 21
-33.9959382926377
  0
LINE
  8
0
 10
16.016970575448283
 20
-33.9959382926377
 11
16.837682479394797
 21
-34.71235212614492
  0
LINE
  8
0
 10
16.837682479394797
 20
-34.71235212614492
 11
17.597671496829534
 21
-35.28463633815466
  0
LINE
  8
0
 10
17.597671496829534
 20
-35.28463633815466
 11
18.488280643387977
 21
-34.872596670393094
  0
LINE
  8
0
 10
18.488280643387977
 20
-34.872596670393094
 11
19.329119676540422
 21
-34.3666806100928
  0
LINE
  8
0
 10
19.329119676540422
 20
-34.3666806100928
 11
19.281942336843212
 21
-33.416487564156824
  0
LINE
  8
0
 10
19.281942336843212
 20
-33.416487564156824
 11
19.14954739360487
 21
-32.33515117378766
  0
LINE
  8
0
 10
19.14954739360487
 20
-32.33515117378766
 11
18.97462533671669
 21
-31.445069150211673
  0
LINE
  8
0
 10
18.97462533671669
 20
-31.445069150211673
 11
18.78390361238247
 21
-30.745808619117213
  0
LINE
  8
0
 10
18.78390361238247
 20
-30.745808619117213
 11
18.603758662430632
 21
-30.234092288979404
  0
LINE
  8
0
 10
18.603758662430632
 20
-30.234092288979404
 11
18.375044479898396
 21
-29.70888983020829
  0
LINE
  8
0
 10
18.375044479898396
 20
-29.70888983020829
 11
18.276851256529444
 21
-29.30548530839319
  0
LINE
  8
0
 10
18.276851256529444
 20
-29.30548530839319
 11
18.32176034597284
 21
-29.051410421746553
  0
LINE
  8
0
 10
18.32176034597284
 20
-29.051410421746553
 11
20.20650138260709
 21
-27.773524290999234
  0
LINE
  8
0
 10
20.20650138260709
 20
-27.773524290999234
 11
20.459153604916473
 21
-27.825847602259614
  0
LINE
  8
0
 10
20.459153604916473
 20
-27.825847602259614
 11
20.797561955787447
 21
-28.066382226373076
  0
LINE
  8
0
 10
20.797561955787447
 20
-28.066382226373076
 11
21.200806967553312
 21
-28.47324984670762
  0
LINE
  8
0
 10
21.200806967553312
 20
-28.47324984670762
 11
21.60950100593241
 21
-28.830006049899993
  0
LINE
  8
0
 10
21.60950100593241
 20
-28.830006049899993
 11
22.18850437317752
 21
-29.26600509485107
  0
LINE
  8
0
 10
22.18850437317752
 20
-29.26600509485107
 11
22.950624524341578
 21
-29.757956931790485
  0
LINE
  8
0
 10
22.950624524341578
 20
-29.757956931790485
 11
23.90615643721402
 21
-30.281192608710892
  0
LINE
  8
0
 10
23.90615643721402
 20
-30.281192608710892
 11
24.771401522736248
 21
-30.67672196023446
  0
LINE
  8
0
 10
24.771401522736248
 20
-30.67672196023446
 11
25.552612373605474
 21
-30.082860910638974
  0
LINE
  8
0
 10
25.552612373605474
 20
-30.082860910638974
 11
26.265036059232965
 21
-29.40801734958245
  0
LINE
  8
0
 10
26.265036059232965
 20
-29.40801734958245
 11
26.014698282150636
 21
-28.490181022511297
  0
LINE
  8
0
 10
26.014698282150636
 20
-28.490181022511297
 11
25.652943299258148
 21
-27.462586675269083
  0
LINE
  8
0
 10
25.652943299258148
 20
-27.462586675269083
 11
25.290769498422016
 21
-26.630917346348614
  0
LINE
  8
0
 10
25.290769498422016
 20
-26.630917346348614
 11
24.954186397825175
 21
-25.98900467092294
  0
LINE
  8
0
 10
24.954186397825175
 20
-25.98900467092294
 11
24.66824925194195
 21
-25.52797782341077
  0
LINE
  8
0
 10
24.66824925194195
 20
-25.52797782341077
 11
24.331979276136597
 21
-25.06422109476688
  0
LINE
  8
0
 10
24.331979276136597
 20
-25.06422109476688
 11
24.149361708125337
 21
-24.691356586949215
  0
LINE
  8
0
 10
24.149361708125337
 20
-24.691356586949215
 11
24.13860225778499
 21
-24.433567703233276
  0
LINE
  8
0
 10
24.13860225778499
 20
-24.433567703233276
 11
25.70457135228603
 21
-22.780394229759573
  0
LINE
  8
0
 10
25.70457135228603
 20
-22.780394229759573
 11
25.962564671294146
 21
-22.777181491629136
  0
LINE
  8
0
 10
25.962564671294146
 20
-22.777181491629136
 11
26.344769057010353
 21
-22.939344757740525
  0
LINE
  8
0
 10
26.344769057010353
 20
-22.939344757740525
 11
26.82605093593938
 21
-23.250014281519878
  0
LINE
  8
0
 10
26.82605093593938
 20
-23.250014281519878
 11
27.30188197286485
 21
-23.510572585592655
  0
LINE
  8
0
 10
27.30188197286485
 20
-23.510572585592655
 11
27.9610754697665
 21
-23.8119096064215
  0
LINE
  8
0
 10
27.9610754697665
 20
-23.8119096064215
 11
28.811132778263687
 21
-24.128526578406444
  0
LINE
  8
0
 10
28.811132778263687
 20
-24.128526578406444
 11
29.856805089813584
 21
-24.43411818002192
  0
LINE
  8
0
 10
29.856805089813584
 20
-24.43411818002192
 11
30.786848344875125
 21
-24.634398158181376
  0
LINE
  8
0
 10
30.786848344875125
 20
-24.634398158181376
 11
31.422132348922062
 21
-23.886484009401872
  0
LINE
  8
0
 10
31.422132348922062
 20
-23.886484009401872
 11
31.972828547286724
 21
-23.074267882469375
  0
LINE
  8
0
 10
31.972828547286724
 20
-23.074267882469375
 11
31.531035849045196
 21
-22.231705280815074
  0
LINE
  8
0
 10
31.531035849045196
 20
-22.231705280815074
 11
30.95683608743682
 21
-21.30590214628777
  0
LINE
  8
0
 10
30.95683608743682
 20
-21.30590214628777
 11
30.424345387052565
 21
-20.571533445509072
  0
LINE
  8
0
 10
30.424345387052565
 20
-20.571533445509072
 11
29.957639161891755
 21
-20.016983749020397
  0
LINE
  8
0
 10
29.957639161891755
 20
-20.016983749020397
 11
29.579279923222337
 21
-19.628203487128985
  0
LINE
  8
0
 10
29.579279923222337
 20
-19.628203487128985
 11
29.151177764475293
 21
-19.247577237815126
  0
LINE
  8
0
 10
29.151177764475293
 20
-19.247577237815126
 11
28.892674846337087
 21
-18.922687473971326
  0
LINE
  8
0
 10
28.892674846337087
 20
-18.922687473971326
 11
28.826749956152636
 21
-18.67323851487687
  0
LINE
  8
0
 10
28.826749956152636
 20
-18.67323851487687
 11
30.00072413411123
 21
-16.72207825292606
  0
LINE
  8
0
 10
30.00072413411123
 20
-16.72207825292606
 11
30.251995068960245
 21
-16.66347968946908
  0
LINE
  8
0
 10
30.251995068960245
 20
-16.66347968946908
 11
30.660124037235267
 21
-16.739689023486555
  0
LINE
  8
0
 10
30.660124037235267
 20
-16.739689023486555
 11
31.196938577575125
 21
-16.939633889063174
  0
LINE
  8
0
 10
31.196938577575125
 20
-16.939633889063174
 11
31.71765728260855
 21
-17.091810877307672
  0
LINE
  8
0
 10
31.71765728260855
 20
-17.091810877307672
 11
32.42621775389256
 21
-17.24439568983237
  0
LINE
  8
0
 10
32.42621775389256
 20
-17.24439568983237
 11
33.32446448474839
 21
-17.37087313914731
  0
LINE
  8
0
 10
33.32446448474839
 20
-17.37087313914731
 11
34.411382719868975
 21
-17.444531541806995
  0
LINE
  8
0
 10
34.411382719868975
 20
-17.444531541806995
 11
35.362736355531986
 21
-17.440197277418815
  0
LINE
  8
0
 10
35.362736355531986
 20
-17.440197277418815
 11
35.822388338794894
 21
-16.573201663805254
  0
LINE
  8
0
 10
35.822388338794894
 20
-16.573201663805254
 11
36.18560710771604
 21
-15.661591294378756
  0
LINE
  8
0
 10
36.18560710771604
 20
-15.661591294378756
 11
35.57301722386778
 21
-14.933699708953593
  0
LINE
  8
0
 10
35.57301722386778
 20
-14.933699708953593
 11
34.813221626219125
 21
-14.152977312755416
  0
LINE
  8
0
 10
34.813221626219125
 20
-14.152977312755416
 11
34.135312699615795
 21
-13.550247504374711
  0
LINE
  8
0
 10
34.135312699615795
 20
-13.550247504374711
 11
33.56030601427284
 21
-13.108990914293129
  0
LINE
  8
0
 10
33.56030601427284
 20
-13.108990914293129
 11
33.107216340301306
 21
-12.8106361709703
  0
LINE
  8
0
 10
33.107216340301306
 20
-12.8106361709703
 11
32.60729957975421
 21
-12.530938061368696
  0
LINE
  8
0
 10
32.60729957975421
 20
-12.530938061368696
 11
32.28499862063583
 21
-12.269214525767044
  0
LINE
  8
0
 10
32.28499862063583
 20
-12.269214525767044
 11
32.16699086520205
 21
-12.039769447378733
  0
LINE
  8
0
 10
32.16699086520205
 20
-12.039769447378733
 11
32.894076398835445
 21
-9.881856482240758
  0
LINE
  8
0
 10
32.894076398835445
 20
-9.881856482240758
 11
33.1268757998794
 21
-9.770612097156866
  0
LINE
  8
0
 10
33.1268757998794
 20
-9.770612097156866
 11
33.54184569375946
 21
-9.75730403532235
  0
LINE
  8
0
 10
33.54184569375946
 20
-9.75730403532235
 11
34.109092044230366
 21
-9.83717504300463
  0
LINE
  8
0
 10
34.109092044230366
 20
-9.83717504300463
 11
34.65035018946165
 21
-9.873855088583106
  0
LINE
  8
0
 10
34.65035018946165
 20
-9.873855088583106
 11
35.3751461349992
 21
-9.87055299655584
  0
LINE
  8
0
 10
35.3751461349992
 20
-9.87055299655584
 11
36.27958126940838
 21
-9.800976978240397
  0
LINE
  8
0
 10
36.27958126940838
 20
-9.800976978240397
 11
37.356922339448275
 21
-9.639257996901355
  0
LINE
  8
0
 10
37.356922339448275
 20
-9.639257996901355
 11
38.28510211706278
 21
-9.430512155351138
  0
LINE
  8
0
 10
0.3118675362266391
 20
-1.4672214011007085
 11
9.18454765366783e-17
 21
-1.5
  0
LINE
  8
0
 10
9.18454765366783e-17
 20
-1.5
 11
-0.3118675362266384
 21
-1.4672214011007085
  0
LINE
  8
0
 10
-0.3118675362266384
 20
-1.4672214011007085
 11
-0.6101049646137001
 21
-1.3703181864639014
  0
LINE
  8
0
 10
-0.6101049646137001
 20
-1.3703181864639014
 11
-0.8816778784387099
 21
-1.213525491562421
  0
LINE
  8
0
 10
-0.8816778784387099
 20
-1.213525491562421
 11
-1.114717238216091
 21
-1.0036959095382878
  0
LINE
  8
0
 10
-1.114717238216091
 20
-1.0036959095382878
 11
-1.299038105676658
 21
-0.7500000000000003
  0
LINE
  8
0
 10
-1.299038105676658
 20
-0.7500000000000003
 11
-1.4265847744427305
 21
-0.46352549156242095
  0
LINE
  8
0
 10
-1.4265847744427305
 20
-0.46352549156242095
 11
-1.49178284305241
 21
-0.15679269490147957
  0
LINE
  8
0
 10
-1.49178284305241
 20
-0.15679269490147957
 11
-1.4917828430524098
 21
0.15679269490148126
  0
LINE
  8
0
 10
-1.4917828430524098
 20
0.15679269490148126
 11
-1.4265847744427302
 21
0.46352549156242123
  0
LINE
  8
0
 10
-1.4265847744427302
 20
0.46352549156242123
 11
-1.2990381056766576
 21
0.7500000000000006
  0
LINE
  8
0
 10
-1.2990381056766576
 20
0.7500000000000006
 11
-1.114717238216091
 21
1.0036959095382878
  0
LINE
  8
0
 10
-1.114717238216091
 20
1.0036959095382878
 11
-0.8816778784387097
 21
1.2135254915624214
  0
LINE
  8
0
 10
-0.8816778784387097
 20
1.2135254915624214
 11
-0.6101049646137005
 21
1.3703181864639014
  0
LINE
  8
0
 10
-0.6101049646137005
 20
1.3703181864639014
 11
-0.3118675362266387
 21
1.4672214011007085
  0
LINE
  8
0
 10
-0.3118675362266387
 20
1.4672214011007085
 11
7.579792913117722e-16
 21
1.5
  0
LINE
  8
0
 10
7.579792913117722e-16
 20
1.5
 11
0.3118675362266389
 21
1.4672214011007085
  0
LINE
  8
0
 10
0.3118675362266389
 20
1.4672214011007085
 11
0.6101049646136999
 21
1.3703181864639014
  0
LINE
  8
0
 10
0.6101049646136999
 20
1.3703181864639014
 11
0.8816778784387097
 21
1.213525491562421
  0
LINE
  8
0
 10
0.8816778784387097
 20
1.213525491562421
 11
1.1147172382160917
 21
1.003695909538287
  0
LINE
  8
0
 10
1.1147172382160917
 20
1.003695909538287
 11
1.299038105676658
 21
0.7499999999999998
  0
LINE
  8
0
 10
1.299038105676658
 20
0.7499999999999998
 11
1.4265847744427305
 21
0.4635254915624211
  0
LINE
  8
0
 10
1.4265847744427305
 20
0.4635254915624211
 11
1.49178284305241
 21
0.1567926949014801
  0
LINE
  8
0
 10
1.49178284305241
 20
0.1567926949014801
 11
1.4917828430524098
 21
-0.1567926949014801
  0
LINE
  8
0
 10
1.4917828430524098
 20
-0.1567926949014801
 11
1.4265847744427302
 21
-0.46352549156242107
  0
LINE
  8
0
 10
1.4265847744427302
 20
-0.46352549156242107
 11
1.299038105676658
 21
-0.7500000000000001
  0
LINE
  8
0
 10
1.299038105676658
 20
-0.7500000000000001
 11
1.1147172382160913
 21
-1.0036959095382874
  0
LINE
  8
0
 10
1.1147172382160913
 20
-1.0036959095382874
 11
0.8816778784387098
 21
-1.2135254915624212
  0
LINE
  8
0
 10
0.8816778784387098
 20
-1.2135254915624212
 11
0.6101049646137003
 21
-1.3703181864639014
  0
LINE
  8
0
 10
0.6101049646137003
 20
-1.3703181864639014
 11
0.3118675362266391
 21
-1.4672214011007085
  0
ENDSEC
  0
SECTION
  2
OBJECTS
  0
DICTIONARY
  0
ENDSEC
  0
EOF
