  0
SECTION
  2
BLOCKS
  0
ENDSEC
  0
SECTION
  2
ENTITIES
  0
LINE
  8
0
 10
28.987651576507613
 20
-9.500027333406493
 11
29.319945525636243
 21
-8.609112777836522
  0
LINE
  8
0
 10
29.319945525636243
 20
-8.609112777836522
 11
29.522066840599802
 21
-7.679976088220079
  0
LINE
  8
0
 10
29.522066840599802
 20
-7.679976088220079
 11
28.885254424170267
 21
-7.0772001145393695
  0
LINE
  8
0
 10
28.885254424170267
 20
-7.0772001145393695
 11
27.969470981229794
 21
-6.362415901979116
  0
LINE
  8
0
 10
27.969470981229794
 20
-6.362415901979116
 11
27.19258908997615
 21
-5.867142745435587
  0
LINE
  8
0
 10
27.19258908997615
 20
-5.867142745435587
 11
26.586211301726273
 21
-5.557330314665389
  0
LINE
  8
0
 10
26.586211301726273
 20
-5.557330314665389
 11
26.176621773286115
 21
-5.395087969824562
  0
LINE
  8
0
 10
26.176621773286115
 20
-5.395087969824562
 11
25.69394946435248
 21
-5.25527473050034
  0
LINE
  8
0
 10
25.69394946435248
 20
-5.25527473050034
 11
25.204944758280273
 21
-5.0101973747381825
  0
LINE
  8
0
 10
25.204944758280273
 20
-5.0101973747381825
 11
24.99407151365351
 21
-4.7438692885080265
  0
LINE
  8
0
 10
24.99407151365351
 20
-4.7438692885080265
 11
25.318138423341694
 21
-2.4899344233501033
  0
LINE
  8
0
 10
25.318138423341694
 20
-2.4899344233501033
 11
25.595503112576683
 21
-2.2938043543142346
  0
LINE
  8
0
 10
25.595503112576683
 20
-2.2938043543142346
 11
26.133745962180196
 21
-2.196422899618021
  0
LINE
  8
0
 10
26.133745962180196
 20
-2.196422899618021
 11
26.63625659255548
 21
-2.1982575825801707
  0
LINE
  8
0
 10
26.63625659255548
 20
-2.1982575825801707
 11
27.074963817799805
 21
-2.157981897785581
  0
LINE
  8
0
 10
27.074963817799805
 20
-2.157981897785581
 11
27.744063293243595
 21
-2.031555412018637
  0
LINE
  8
0
 10
27.744063293243595
 20
-2.031555412018637
 11
28.629010581958212
 21
-1.7752172198813834
  0
LINE
  8
0
 10
28.629010581958212
 20
-1.7752172198813834
 11
29.709076344608633
 21
-1.3473928011711527
  0
LINE
  8
0
 10
29.709076344608633
 20
-1.3473928011711527
 11
30.489914999948343
 21
-0.9484442800712337
  0
LINE
  8
0
 10
30.489914999948343
 20
-0.9484442800712337
 11
30.557749073643905
 21
5.42377436250521e-15
  0
LINE
  8
0
 10
30.557749073643905
 20
5.42377436250521e-15
 11
30.48991499994834
 21
0.9484442800712501
  0
LINE
  8
0
 10
30.48991499994834
 20
0.9484442800712501
 11
29.709076344606082
 21
1.3473928011724663
  0
LINE
  8
0
 10
29.709076344606082
 20
1.3473928011724663
 11
28.629010581957715
 21
1.7752172198819345
  0
LINE
  8
0
 10
28.629010581957715
 20
1.7752172198819345
 11
27.74406329324357
 21
2.031555412018629
  0
LINE
  8
0
 10
27.74406329324357
 20
2.031555412018629
 11
27.074963817799766
 21
2.1579818977855725
  0
LINE
  8
0
 10
27.074963817799766
 20
2.1579818977855725
 11
26.636256592555405
 21
2.1982575825801653
  0
LINE
  8
0
 10
26.636256592555405
 20
2.1982575825801653
 11
26.1337459621802
 21
2.196422899617609
  0
LINE
  8
0
 10
26.1337459621802
 20
2.196422899617609
 11
25.595503112576683
 21
2.2938043543142053
  0
LINE
  8
0
 10
25.595503112576683
 20
2.2938043543142053
 11
25.318138423341708
 21
2.4899344233500886
  0
LINE
  8
0
 10
25.318138423341708
 20
2.4899344233500886
 11
24.994071513653502
 21
4.743869288508009
  0
LINE
  8
0
 10
24.994071513653502
 20
4.743869288508009
 11
25.20494475828028
 21
5.010197374738153
  0
LINE
  8
0
 10
25.20494475828028
 20
5.010197374738153
 11
25.693949464352592
 21
5.255274730499944
  0
LINE
  8
0
 10
25.693949464352592
 20
5.255274730499944
 11
26.17662177328619
 21
5.395087969824578
  0
LINE
  8
0
 10
26.17662177328619
 20
5.395087969824578
 11
26.586211301726312
 21
5.557330314665392
  0
LINE
  8
0
 10
26.586211301726312
 20
5.557330314665392
 11
27.192589089976178
 21
5.8671427454355864
  0
LINE
  8
0
 10
27.192589089976178
 20
5.8671427454355864
 11
27.969470981230117
 21
6.362415901979784
  0
LINE
  8
0
 10
27.969470981230117
 20
6.362415901979784
 11
28.885254424172345
 21
7.077200114541349
  0
LINE
  8
0
 10
28.885254424172345
 20
7.077200114541349
 11
29.522066840599802
 21
7.679976088220097
  0
LINE
  8
0
 10
29.522066840599802
 20
7.679976088220097
 11
29.319945525636243
 21
8.609112777836529
  0
LINE
  8
0
 10
29.319945525636243
 20
8.609112777836529
 11
28.987651576507595
 21
9.50002733340653
  0
LINE
  8
0
 10
28.987651576507595
 20
9.50002733340653
 11
28.126045586282157
 21
9.662827965386844
  0
LINE
  8
0
 10
28.126045586282157
 20
9.662827965386844
 11
26.96919800861725
 21
9.769032800211471
  0
LINE
  8
0
 10
26.96919800861725
 20
9.769032800211471
 11
26.047878488790047
 21
9.765669032116344
  0
LINE
  8
0
 10
26.047878488790047
 20
9.765669032116344
 11
25.370263786364973
 21
9.69846725089046
  0
LINE
  8
0
 10
25.370263786364973
 20
9.69846725089046
 11
24.937980314613377
 21
9.61351337918548
  0
LINE
  8
0
 10
24.937980314613377
 20
9.61351337918548
 11
24.45634178552381
 21
9.470179409038495
  0
LINE
  8
0
 10
24.45634178552381
 20
9.470179409038495
 11
23.912466027010385
 21
9.41197569635982
  0
LINE
  8
0
 10
23.912466027010385
 20
9.41197569635982
 11
23.591080330737686
 21
9.522018456438579
  0
LINE
  8
0
 10
23.591080330737686
 20
9.522018456438579
 11
22.645133575395903
 21
11.593352923488183
  0
LINE
  8
0
 10
22.645133575395903
 20
11.593352923488183
 11
22.772431679246285
 21
11.908302709280354
  0
LINE
  8
0
 10
22.772431679246285
 20
11.908302709280354
 11
23.17258198872439
 21
12.281221256275055
  0
LINE
  8
0
 10
23.17258198872439
 20
12.281221256275055
 11
23.59631273630925
 21
12.551355580737743
  0
LINE
  8
0
 10
23.59631273630925
 20
12.551355580737743
 11
23.94360206027367
 21
12.822420675738156
  0
LINE
  8
0
 10
23.94360206027367
 20
12.822420675738156
 11
24.43813303919317
 21
13.290519890896071
  0
LINE
  8
0
 10
24.43813303919317
 20
13.290519890896071
 11
25.04401118245154
 21
13.984603926206878
  0
LINE
  8
0
 10
25.04401118245154
 20
13.984603926206878
 11
25.721320977512246
 21
14.928440366703436
  0
LINE
  8
0
 10
25.721320977512246
 20
14.928440366703436
 11
26.162516400317767
 21
15.686210468420304
  0
LINE
  8
0
 10
26.162516400317767
 20
15.686210468420304
 11
25.706814363571684
 21
16.520766438777876
  0
LINE
  8
0
 10
25.706814363571684
 20
16.520766438777876
 11
25.136981018540155
 21
17.281974671027225
  0
LINE
  8
0
 10
25.136981018540155
 20
17.281974671027225
 11
24.26440988659147
 21
17.19543827489623
  0
LINE
  8
0
 10
24.26440988659147
 20
17.19543827489623
 11
23.124501404614975
 21
16.971419441743002
  0
LINE
  8
0
 10
23.124501404614975
 20
16.971419441743002
 11
22.241449481872955
 21
16.70862622590202
  0
LINE
  8
0
 10
22.241449481872955
 20
16.70862622590202
 11
21.610215865727284
 21
16.453240466333845
  0
LINE
  8
0
 10
21.610215865727284
 20
16.453240466333845
 11
21.219377183460967
 21
16.2499394955747
  0
LINE
  8
0
 10
21.219377183460967
 20
16.2499394955747
 11
20.797630244869254
 21
15.97671830406465
  0
LINE
  8
0
 10
20.797630244869254
 20
15.97671830406465
 11
20.29218315684699
 21
15.767644742661128
  0
LINE
  8
0
 10
20.29218315684699
 20
15.767644742661128
 11
19.952813211294256
 21
15.782685183810672
  0
LINE
  8
0
 10
19.952813211294256
 20
15.782685183810672
 11
18.46162159065472
 21
17.503612052932
  0
LINE
  8
0
 10
18.46162159065472
 20
17.503612052932
 11
18.495031618425724
 21
17.84166817971981
  0
LINE
  8
0
 10
18.495031618425724
 20
17.84166817971981
 11
18.773909733021217
 21
18.31221627510191
  0
LINE
  8
0
 10
18.773909733021217
 20
18.31221627510191
 11
19.104370774111803
 21
18.690787008285373
  0
LINE
  8
0
 10
19.104370774111803
 20
18.690787008285373
 11
19.361224577982064
 21
19.048714771534645
  0
LINE
  8
0
 10
19.361224577982064
 20
19.048714771534645
 11
19.703844788748118
 21
19.637178156561408
  0
LINE
  8
0
 10
19.703844788748118
 20
19.637178156561408
 11
20.089634540140192
 21
20.473842509974645
  0
LINE
  8
0
 10
20.089634540140192
 20
20.473842509974645
 11
20.473599075840006
 21
21.570267163208605
  0
LINE
  8
0
 10
20.473599075840006
 20
21.570267163208605
 11
20.68343447575809
 21
22.421641365954823
  0
LINE
  8
0
 10
20.68343447575809
 20
22.421641365954823
 11
20.011069986082298
 21
23.09400585563061
  0
LINE
  8
0
 10
20.011069986082298
 20
23.09400585563061
 11
19.249861753832946
 21
23.663839200662135
  0
LINE
  8
0
 10
19.249861753832946
 20
23.663839200662135
 11
18.437016003891163
 21
23.334976440582604
  0
LINE
  8
0
 10
18.437016003891163
 20
23.334976440582604
 11
17.406395223516043
 21
22.798882613022293
  0
LINE
  8
0
 10
17.406395223516043
 20
22.798882613022293
 11
16.63315051292776
 21
22.297949892891463
  0
LINE
  8
0
 10
16.63315051292776
 20
22.297949892891463
 11
16.099436776550753
 21
21.875069990383615
  0
LINE
  8
0
 10
16.099436776550753
 20
21.875069990383615
 11
15.78170630939979
 21
21.569892156143787
  0
LINE
  8
0
 10
15.78170630939979
 20
21.569892156143787
 11
15.454018390045002
 21
21.18891849929782
  0
LINE
  8
0
 10
15.454018390045002
 20
21.18891849929782
 11
15.02794828957589
 21
20.84591298570601
  0
LINE
  8
0
 10
15.02794828957589
 20
20.84591298570601
 11
14.698087829421027
 21
20.764732620833353
  0
LINE
  8
0
 10
14.698087829421027
 20
20.764732620833353
 11
12.782458820129905
 21
21.995832631836375
  0
LINE
  8
0
 10
12.782458820129905
 20
21.995832631836375
 11
12.719274090068607
 21
22.32960780272468
  0
LINE
  8
0
 10
12.719274090068607
 20
22.32960780272468
 11
12.854286963488981
 21
22.859664438263597
  0
LINE
  8
0
 10
12.854286963488981
 20
22.859664438263597
 11
13.064706309863618
 21
23.316002030812147
  0
LINE
  8
0
 10
13.064706309863618
 20
23.316002030812147
 11
13.210315826018538
 21
23.731795283610193
  0
LINE
  8
0
 10
13.210315826018538
 20
23.731795283610193
 11
13.373268216795731
 21
24.392949034777445
  0
LINE
  8
0
 10
13.373268216795731
 20
24.392949034777445
 11
13.507715185043718
 21
25.304412136214072
  0
LINE
  8
0
 10
13.507715185043718
 20
25.304412136214072
 11
13.56722793822526
 21
26.464599197468907
  0
LINE
  8
0
 10
13.56722793822526
 20
26.464599197468907
 11
13.528703699093729
 21
27.340604226655312
  0
LINE
  8
0
 10
13.528703699093729
 20
27.340604226655312
 11
12.694147728736167
 21
27.796306263401387
  0
LINE
  8
0
 10
12.694147728736167
 20
27.796306263401387
 11
11.803233173166165
 21
28.128600212530028
  0
LINE
  8
0
 10
11.803233173166165
 20
28.128600212530028
 11
11.11596473371175
 21
27.58405359350146
  0
LINE
  8
0
 10
11.11596473371175
 20
27.58405359350146
 11
10.27812642122621
 21
26.779315905170243
  0
LINE
  8
0
 10
10.27812642122621
 20
26.779315905170243
 11
9.677332610580166
 21
26.080826270572967
  0
LINE
  8
0
 10
9.677332610580166
 20
26.080826270572967
 11
9.284377066775278
 21
25.52471143986302
  0
LINE
  8
0
 10
9.284377066775278
 20
25.52471143986302
 11
9.065495447572395
 21
25.14238043531015
  0
LINE
  8
0
 10
9.065495447572395
 20
25.14238043531015
 11
8.858413873845565
 21
24.684518533068353
  0
LINE
  8
0
 10
8.858413873845565
 20
24.684518533068353
 11
8.54623842653316
 21
24.23536933406713
  0
LINE
  8
0
 10
8.54623842653316
 20
24.23536933406713
 11
8.252610784502217
 21
24.06454491353604
  0
LINE
  8
0
 10
8.252610784502217
 20
24.06454491353604
 11
6.0677372562078915
 21
24.706081665162962
  0
LINE
  8
0
 10
6.0677372562078915
 20
24.706081665162962
 11
5.9130766193698
 21
25.008535400843765
  0
LINE
  8
0
 10
5.9130766193698
 20
25.008535400843765
 11
5.893286311563007
 21
25.555158540296325
  0
LINE
  8
0
 10
5.893286311563007
 20
25.555158540296325
 11
5.966617039190462
 21
26.05229323440584
  0
LINE
  8
0
 10
5.966617039190462
 20
26.05229323440584
 11
5.989185850604306
 21
26.49226688022865
  0
LINE
  8
0
 10
5.989185850604306
 20
26.49226688022865
 11
5.959268987807054
 21
27.172548252649584
  0
LINE
  8
0
 10
5.959268987807054
 20
27.172548252649584
 11
5.831481079130409
 21
28.084968782310987
  0
LINE
  8
0
 10
5.831481079130409
 20
28.084968782310987
 11
5.561720680466884
 21
29.214926795781963
  0
LINE
  8
0
 10
5.561720680466884
 20
29.214926795781963
 11
5.277957807027697
 21
30.044593933746388
  0
LINE
  8
0
 10
5.277957807027697
 20
30.044593933746388
 11
4.348821117411248
 21
30.246715248709947
  0
LINE
  8
0
 10
4.348821117411248
 20
30.246715248709947
 11
3.4003768373400005
 21
30.314549322405508
  0
LINE
  8
0
 10
3.4003768373400005
 20
30.314549322405508
 11
2.8943641099947666
 21
29.598434772958154
  0
LINE
  8
0
 10
2.8943641099947666
 20
29.598434772958154
 11
2.317184942660076
 21
28.590248285405316
  0
LINE
  8
0
 10
2.317184942660076
 20
28.590248285405316
 11
1.9375147734364453
 21
27.75078921245886
  0
LINE
  8
0
 10
1.9375147734364453
 20
27.75078921245886
 11
1.717152343366146
 21
27.10649256978868
  0
LINE
  8
0
 10
1.717152343366146
 20
27.10649256978868
 11
1.6148520591600468
 21
26.67798257910161
  0
LINE
  8
0
 10
1.6148520591600468
 20
26.67798257910161
 11
1.5451533486029845
 21
26.180325679774032
  0
LINE
  8
0
 10
1.5451533486029845
 20
26.180325679774032
 11
1.3721631526096612
 21
25.66142019227334
  0
LINE
  8
0
 10
1.3721631526096612
 20
25.66142019227334
 11
1.1385562939891598
 21
25.414790894703287
  0
LINE
  8
0
 10
1.1385562939891598
 20
25.414790894703287
 11
-1.138556293989159
 21
25.414790894703273
  0
LINE
  8
0
 10
-1.138556293989159
 20
25.414790894703273
 11
-1.3721631526096465
 21
25.661420192273344
  0
LINE
  8
0
 10
-1.3721631526096465
 20
25.661420192273344
 11
-1.5451533486025915
 21
26.180325679774086
  0
LINE
  8
0
 10
-1.5451533486025915
 20
26.180325679774086
 11
-1.6148520591600677
 21
26.677982579101684
  0
LINE
  8
0
 10
-1.6148520591600677
 20
26.677982579101684
 11
-1.717152343366158
 21
27.106492569788717
  0
LINE
  8
0
 10
-1.717152343366158
 20
27.106492569788717
 11
-1.9375147734364573
 21
27.750789212458884
  0
LINE
  8
0
 10
-1.9375147734364573
 20
27.750789212458884
 11
-2.3171849426607087
 21
28.59024828540573
  0
LINE
  8
0
 10
-2.3171849426607087
 20
28.59024828540573
 11
-2.894364109996448
 21
29.598434772960488
  0
LINE
  8
0
 10
-2.894364109996448
 20
29.598434772960488
 11
-3.400376837340036
 21
30.314549322405508
  0
LINE
  8
0
 10
-3.400376837340036
 20
30.314549322405508
 11
-4.348821117411262
 21
30.246715248709947
  0
LINE
  8
0
 10
-4.348821117411262
 20
30.246715248709947
 11
-5.277957807027703
 21
30.044593933746384
  0
LINE
  8
0
 10
-5.277957807027703
 20
30.044593933746384
 11
-5.561720680467812
 21
29.214926795779256
  0
LINE
  8
0
 10
-5.561720680467812
 20
29.214926795779256
 11
-5.831481079130875
 21
28.084968782310423
  0
LINE
  8
0
 10
-5.831481079130875
 20
28.084968782310423
 11
-5.959268987807033
 21
27.172548252649563
  0
LINE
  8
0
 10
-5.959268987807033
 20
27.172548252649563
 11
-5.989185850604285
 21
26.49226688022862
  0
LINE
  8
0
 10
-5.989185850604285
 20
26.49226688022862
 11
-5.966617039190437
 21
26.052293234405774
  0
LINE
  8
0
 10
-5.966617039190437
 20
26.052293234405774
 11
-5.893286311562592
 21
25.555158540296393
  0
LINE
  8
0
 10
-5.893286311562592
 20
25.555158540296393
 11
-5.913076619369764
 21
25.008535400843776
  0
LINE
  8
0
 10
-5.913076619369764
 20
25.008535400843776
 11
-6.067737256207873
 21
24.706081665162984
  0
LINE
  8
0
 10
-6.067737256207873
 20
24.706081665162984
 11
-8.252610784502192
 21
24.064544913536032
  0
LINE
  8
0
 10
-8.252610784502192
 20
24.064544913536032
 11
-8.546238426533124
 21
24.235369334067148
  0
LINE
  8
0
 10
-8.546238426533124
 20
24.235369334067148
 11
-8.858413873845183
 21
24.684518533068523
  0
LINE
  8
0
 10
-8.858413873845183
 20
24.684518533068523
 11
-9.065495447572415
 21
25.142380435310223
  0
LINE
  8
0
 10
-9.065495447572415
 20
25.142380435310223
 11
-9.28437706677528
 21
25.524711439863058
  0
LINE
  8
0
 10
-9.28437706677528
 20
25.524711439863058
 11
-9.677332610580162
 21
26.080826270573002
  0
LINE
  8
0
 10
-9.677332610580162
 20
26.080826270573002
 11
-10.278126421226908
 21
26.77931590517047
  0
LINE
  8
0
 10
-10.278126421226908
 20
26.77931590517047
 11
-11.115964733714
 21
27.58405359350324
  0
LINE
  8
0
 10
-11.115964733714
 20
27.58405359350324
 11
-11.803233173166173
 21
28.12860021253003
  0
LINE
  8
0
 10
-11.803233173166173
 20
28.12860021253003
 11
-12.694147728736167
 21
27.796306263401387
  0
LINE
  8
0
 10
-12.694147728736167
 20
27.796306263401387
 11
-13.528703699093741
 21
27.3406042266553
  0
LINE
  8
0
 10
-13.528703699093741
 20
27.3406042266553
 11
-13.567227938225393
 21
26.464599197466043
  0
LINE
  8
0
 10
-13.567227938225393
 20
26.464599197466043
 11
-13.507715185044013
 21
25.304412136213394
  0
LINE
  8
0
 10
-13.507715185044013
 20
25.304412136213394
 11
-13.373268216795713
 21
24.392949034777427
  0
LINE
  8
0
 10
-13.373268216795713
 20
24.392949034777427
 11
-13.210315826018514
 21
23.73179528361016
  0
LINE
  8
0
 10
-13.210315826018514
 20
23.73179528361016
 11
-13.06470630986358
 21
23.316002030812083
  0
LINE
  8
0
 10
-13.06470630986358
 20
23.316002030812083
 11
-12.854286963488608
 21
22.859664438263774
  0
LINE
  8
0
 10
-12.854286963488608
 20
22.859664438263774
 11
-12.719274090068582
 21
22.3296078027247
  0
LINE
  8
0
 10
-12.719274090068582
 20
22.3296078027247
 11
-12.782458820129898
 21
21.995832631836397
  0
LINE
  8
0
 10
-12.782458820129898
 20
21.995832631836397
 11
-14.698087829421006
 21
20.764732620833357
  0
LINE
  8
0
 10
-14.698087829421006
 20
20.764732620833357
 11
-15.027948289575868
 21
20.845912985706033
  0
LINE
  8
0
 10
-15.027948289575868
 20
20.845912985706033
 11
-15.454018390044686
 21
21.18891849929809
  0
LINE
  8
0
 10
-15.454018390044686
 20
21.18891849929809
 11
-15.781706309399834
 21
21.56989215614385
  0
LINE
  8
0
 10
-15.781706309399834
 20
21.56989215614385
 11
-16.099436776550768
 21
21.87506999038365
  0
LINE
  8
0
 10
-16.099436776550768
 20
21.87506999038365
 11
-16.633150512927767
 21
22.29794989289149
  0
LINE
  8
0
 10
-16.633150512927767
 20
22.29794989289149
 11
-17.40639522351678
 21
22.798882613022307
  0
LINE
  8
0
 10
-17.40639522351678
 20
22.798882613022307
 11
-18.437016003893824
 21
23.33497644058367
  0
LINE
  8
0
 10
-18.437016003893824
 20
23.33497644058367
 11
-19.24986175383296
 21
23.66383920066213
  0
LINE
  8
0
 10
-19.24986175383296
 20
23.66383920066213
 11
-20.011069986082312
 21
23.094005855630606
  0
LINE
  8
0
 10
-20.011069986082312
 20
23.094005855630606
 11
-20.68343447575811
 21
22.4216413659548
  0
LINE
  8
0
 10
-20.68343447575811
 20
22.4216413659548
 11
-20.47359907583933
 21
21.570267163205813
  0
LINE
  8
0
 10
-20.47359907583933
 20
21.570267163205813
 11
-20.08963454014029
 21
20.473842509973906
  0
LINE
  8
0
 10
-20.08963454014029
 20
20.473842509973906
 11
-19.7038447887481
 21
19.63717815656139
  0
LINE
  8
0
 10
-19.7038447887481
 20
19.63717815656139
 11
-19.36122457798204
 21
19.048714771534616
  0
LINE
  8
0
 10
-19.36122457798204
 20
19.048714771534616
 11
-19.104370774111754
 21
18.690787008285316
  0
LINE
  8
0
 10
-19.104370774111754
 20
18.690787008285316
 11
-18.773909733020915
 21
18.31221627510218
  0
LINE
  8
0
 10
-18.773909733020915
 20
18.31221627510218
 11
-18.495031618425703
 21
17.841668179719832
  0
LINE
  8
0
 10
-18.495031618425703
 20
17.841668179719832
 11
-18.461621590654723
 21
17.503612052932016
  0
LINE
  8
0
 10
-18.461621590654723
 20
17.503612052932016
 11
-19.952813211294245
 21
15.782685183810669
  0
LINE
  8
0
 10
-19.952813211294245
 20
15.782685183810669
 11
-20.292183156846974
 21
15.767644742661142
  0
LINE
  8
0
 10
-20.292183156846974
 20
15.767644742661142
 11
-20.79763024486903
 21
15.976718304064988
  0
LINE
  8
0
 10
-20.79763024486903
 20
15.976718304064988
 11
-21.219377183461035
 21
16.249939495574743
  0
LINE
  8
0
 10
-21.219377183461035
 20
16.249939495574743
 11
-21.610215865727316
 21
16.45324046633387
  0
LINE
  8
0
 10
-21.610215865727316
 20
16.45324046633387
 11
-22.241449481872973
 21
16.708626225902037
  0
LINE
  8
0
 10
-22.241449481872973
 20
16.708626225902037
 11
-23.124501404615696
 21
16.9714194417428
  0
LINE
  8
0
 10
-23.124501404615696
 20
16.9714194417428
 11
-24.26440988659433
 21
17.1954382748965
  0
LINE
  8
0
 10
-24.26440988659433
 20
17.1954382748965
 11
-25.136981018540176
 21
17.281974671027207
  0
LINE
  8
0
 10
-25.136981018540176
 20
17.281974671027207
 11
-25.70681436357168
 21
16.520766438777876
  0
LINE
  8
0
 10
-25.70681436357168
 20
16.520766438777876
 11
-26.162516400317763
 21
15.6862104684203
  0
LINE
  8
0
 10
-26.162516400317763
 20
15.6862104684203
 11
-25.721320977510803
 21
14.92844036670096
  0
LINE
  8
0
 10
-25.721320977510803
 20
14.92844036670096
 11
-25.044011182451413
 21
13.984603926206157
  0
LINE
  8
0
 10
-25.044011182451413
 20
13.984603926206157
 11
-24.438133039193136
 21
13.290519890896073
  0
LINE
  8
0
 10
-24.438133039193136
 20
13.290519890896073
 11
-23.943602060273626
 21
12.822420675738153
  0
LINE
  8
0
 10
-23.943602060273626
 20
12.822420675738153
 11
-23.596312736309173
 21
12.551355580737717
  0
LINE
  8
0
 10
-23.596312736309173
 20
12.551355580737717
 11
-23.17258198872416
 21
12.281221256275414
  0
LINE
  8
0
 10
-23.17258198872416
 20
12.281221256275414
 11
-22.772431679246267
 21
11.908302709280388
  0
LINE
  8
0
 10
-22.772431679246267
 20
11.908302709280388
 11
-22.645133575395903
 21
11.59335292348821
  0
LINE
  8
0
 10
-22.645133575395903
 20
11.59335292348821
 11
-23.591080330737665
 21
9.522018456438596
  0
LINE
  8
0
 10
-23.591080330737665
 20
9.522018456438596
 11
-23.912466027010367
 21
9.411975696359857
  0
LINE
  8
0
 10
-23.912466027010367
 20
9.411975696359857
 11
-24.456341785523684
 21
9.470179409038897
  0
LINE
  8
0
 10
-24.456341785523684
 20
9.470179409038897
 11
-24.93798031461344
 21
9.613513379185516
  0
LINE
  8
0
 10
-24.93798031461344
 20
9.613513379185516
 11
-25.370263786365
 21
9.69846725089049
  0
LINE
  8
0
 10
-25.370263786365
 20
9.69846725089049
 11
-26.04787848879006
 21
9.765669032116373
  0
LINE
  8
0
 10
-26.04787848879006
 20
9.765669032116373
 11
-26.969198008617877
 21
9.769032800211095
  0
LINE
  8
0
 10
-26.969198008617877
 20
9.769032800211095
 11
-28.12604558628497
 21
9.662827965386311
  0
LINE
  8
0
 10
-28.12604558628497
 20
9.662827965386311
 11
-28.987651576507602
 21
9.500027333406528
  0
LINE
  8
0
 10
-28.987651576507602
 20
9.500027333406528
 11
-29.319945525636243
 21
8.609112777836526
  0
LINE
  8
0
 10
-29.319945525636243
 20
8.609112777836526
 11
-29.522066840599802
 21
7.679976088220083
  0
LINE
  8
0
 10
-29.522066840599802
 20
7.679976088220083
 11
-28.885254424170267
 21
7.077200114539373
  0
LINE
  8
0
 10
-28.885254424170267
 20
7.077200114539373
 11
-27.969470981229794
 21
6.362415901979119
  0
LINE
  8
0
 10
-27.969470981229794
 20
6.362415901979119
 11
-27.19258908997615
 21
5.867142745435591
  0
LINE
  8
0
 10
-27.19258908997615
 20
5.867142745435591
 11
-26.586211301726273
 21
5.557330314665393
  0
LINE
  8
0
 10
-26.586211301726273
 20
5.557330314665393
 11
-26.176621773286115
 21
5.395087969824566
  0
LINE
  8
0
 10
-26.176621773286115
 20
5.395087969824566
 11
-25.69394946435248
 21
5.255274730500344
  0
LINE
  8
0
 10
-25.69394946435248
 20
5.255274730500344
 11
-25.204944758280273
 21
5.010197374738185
  0
LINE
  8
0
 10
-25.204944758280273
 20
5.010197374738185
 11
-24.99407151365351
 21
4.743869288508029
  0
LINE
  8
0
 10
-24.99407151365351
 20
4.743869288508029
 11
-25.318138423341694
 21
2.4899344233501064
  0
LINE
  8
0
 10
-25.318138423341694
 20
2.4899344233501064
 11
-25.595503112576683
 21
2.2938043543142377
  0
LINE
  8
0
 10
-25.595503112576683
 20
2.2938043543142377
 11
-26.133745962180196
 21
2.196422899618024
  0
LINE
  8
0
 10
-26.133745962180196
 20
2.196422899618024
 11
-26.63625659255548
 21
2.198257582580174
  0
LINE
  8
0
 10
-26.63625659255548
 20
2.198257582580174
 11
-27.074963817799805
 21
2.157981897785584
  0
LINE
  8
0
 10
-27.074963817799805
 20
2.157981897785584
 11
-27.744063293243595
 21
2.0315554120186405
  0
LINE
  8
0
 10
-27.744063293243595
 20
2.0315554120186405
 11
-28.629010581958212
 21
1.775217219881387
  0
LINE
  8
0
 10
-28.629010581958212
 20
1.775217219881387
 11
-29.709076344608633
 21
1.3473928011711562
  0
LINE
  8
0
 10
-29.709076344608633
 20
1.3473928011711562
 11
-30.489914999948343
 21
0.9484442800712375
  0
LINE
  8
0
 10
-30.489914999948343
 20
0.9484442800712375
 11
-30.557749073643905
 21
-2.3187342756507715e-14
  0
LINE
  8
0
 10
-30.557749073643905
 20
-2.3187342756507715e-14
 11
-30.48991499994834
 21
-0.9484442800712688
  0
LINE
  8
0
 10
-30.48991499994834
 20
-0.9484442800712688
 11
-29.709076344606082
 21
-1.347392801172485
  0
LINE
  8
0
 10
-29.709076344606082
 20
-1.347392801172485
 11
-28.629010581957715
 21
-1.7752172198819522
  0
LINE
  8
0
 10
-28.629010581957715
 20
-1.7752172198819522
 11
-27.74406329324357
 21
-2.031555412018645
  0
LINE
  8
0
 10
-27.74406329324357
 20
-2.031555412018645
 11
-27.074963817799766
 21
-2.1579818977855894
  0
LINE
  8
0
 10
-27.074963817799766
 20
-2.1579818977855894
 11
-26.636256592555405
 21
-2.1982575825801813
  0
LINE
  8
0
 10
-26.636256592555405
 20
-2.1982575825801813
 11
-26.1337459621802
 21
-2.196422899617626
  0
LINE
  8
0
 10
-26.1337459621802
 20
-2.196422899617626
 11
-25.595503112576687
 21
-2.2938043543142212
  0
LINE
  8
0
 10
-25.595503112576687
 20
-2.2938043543142212
 11
-25.318138423341708
 21
-2.4899344233501046
  0
LINE
  8
0
 10
-25.318138423341708
 20
-2.4899344233501046
 11
-24.9940715136535
 21
-4.743869288508026
  0
LINE
  8
0
 10
-24.9940715136535
 20
-4.743869288508026
 11
-25.204944758280277
 21
-5.010197374738169
  0
LINE
  8
0
 10
-25.204944758280277
 20
-5.010197374738169
 11
-25.693949464352592
 21
-5.25527473049996
  0
LINE
  8
0
 10
-25.693949464352592
 20
-5.25527473049996
 11
-26.176621773286186
 21
-5.395087969824594
  0
LINE
  8
0
 10
-26.176621773286186
 20
-5.395087969824594
 11
-26.58621130172631
 21
-5.557330314665409
  0
LINE
  8
0
 10
-26.58621130172631
 20
-5.557330314665409
 11
-27.192589089976174
 21
-5.867142745435604
  0
LINE
  8
0
 10
-27.192589089976174
 20
-5.867142745435604
 11
-27.969470981230113
 21
-6.3624159019798014
  0
LINE
  8
0
 10
-27.969470981230113
 20
-6.3624159019798014
 11
-28.88525442417234
 21
-7.077200114541367
  0
LINE
  8
0
 10
-28.88525442417234
 20
-7.077200114541367
 11
-29.5220668405998
 21
-7.679976088220115
  0
LINE
  8
0
 10
-29.5220668405998
 20
-7.679976088220115
 11
-29.319945525636243
 21
-8.609112777836529
  0
LINE
  8
0
 10
-29.319945525636243
 20
-8.609112777836529
 11
-28.987651576507595
 21
-9.50002733340653
  0
LINE
  8
0
 10
-28.987651576507595
 20
-9.50002733340653
 11
-28.126045586282157
 21
-9.662827965386844
  0
LINE
  8
0
 10
-28.126045586282157
 20
-9.662827965386844
 11
-26.96919800861725
 21
-9.769032800211471
  0
LINE
  8
0
 10
-26.96919800861725
 20
-9.769032800211471
 11
-26.047878488790047
 21
-9.765669032116344
  0
LINE
  8
0
 10
-26.047878488790047
 20
-9.765669032116344
 11
-25.370263786364973
 21
-9.69846725089046
  0
LINE
  8
0
 10
-25.370263786364973
 20
-9.69846725089046
 11
-24.937980314613377
 21
-9.61351337918548
  0
LINE
  8
0
 10
-24.937980314613377
 20
-9.61351337918548
 11
-24.45634178552381
 21
-9.470179409038495
  0
LINE
  8
0
 10
-24.45634178552381
 20
-9.470179409038495
 11
-23.912466027010385
 21
-9.41197569635982
  0
LINE
  8
0
 10
-23.912466027010385
 20
-9.41197569635982
 11
-23.591080330737686
 21
-9.522018456438579
  0
LINE
  8
0
 10
-23.591080330737686
 20
-9.522018456438579
 11
-22.645133575395903
 21
-11.593352923488183
  0
LINE
  8
0
 10
-22.645133575395903
 20
-11.593352923488183
 11
-22.772431679246285
 21
-11.908302709280354
  0
LINE
  8
0
 10
-22.772431679246285
 20
-11.908302709280354
 11
-23.17258198872439
 21
-12.281221256275055
  0
LINE
  8
0
 10
-23.17258198872439
 20
-12.281221256275055
 11
-23.59631273630925
 21
-12.551355580737743
  0
LINE
  8
0
 10
-23.59631273630925
 20
-12.551355580737743
 11
-23.94360206027367
 21
-12.822420675738156
  0
LINE
  8
0
 10
-23.94360206027367
 20
-12.822420675738156
 11
-24.43813303919317
 21
-13.290519890896071
  0
LINE
  8
0
 10
-24.43813303919317
 20
-13.290519890896071
 11
-25.04401118245154
 21
-13.984603926206878
  0
LINE
  8
0
 10
-25.04401118245154
 20
-13.984603926206878
 11
-25.721320977512246
 21
-14.928440366703436
  0
LINE
  8
0
 10
-25.721320977512246
 20
-14.928440366703436
 11
-26.162516400317767
 21
-15.686210468420304
  0
LINE
  8
0
 10
-26.162516400317767
 20
-15.686210468420304
 11
-25.706814363571688
 21
-16.52076643877787
  0
LINE
  8
0
 10
-25.706814363571688
 20
-16.52076643877787
 11
-25.136981018540162
 21
-17.281974671027214
  0
LINE
  8
0
 10
-25.136981018540162
 20
-17.281974671027214
 11
-24.264409886591473
 21
-17.195438274896222
  0
LINE
  8
0
 10
-24.264409886591473
 20
-17.195438274896222
 11
-23.12450140461498
 21
-16.97141944174299
  0
LINE
  8
0
 10
-23.12450140461498
 20
-16.97141944174299
 11
-22.241449481872955
 21
-16.708626225902016
  0
LINE
  8
0
 10
-22.241449481872955
 20
-16.708626225902016
 11
-21.610215865727287
 21
-16.45324046633384
  0
LINE
  8
0
 10
-21.610215865727287
 20
-16.45324046633384
 11
-21.21937718346097
 21
-16.249939495574694
  0
LINE
  8
0
 10
-21.21937718346097
 20
-16.249939495574694
 11
-20.797630244869254
 21
-15.976718304064645
  0
LINE
  8
0
 10
-20.797630244869254
 20
-15.976718304064645
 11
-20.292183156846992
 21
-15.76764474266112
  0
LINE
  8
0
 10
-20.292183156846992
 20
-15.76764474266112
 11
-19.952813211294263
 21
-15.782685183810665
  0
LINE
  8
0
 10
-19.952813211294263
 20
-15.782685183810665
 11
-18.461621590654726
 21
-17.503612052931995
  0
LINE
  8
0
 10
-18.461621590654726
 20
-17.503612052931995
 11
-18.495031618425728
 21
-17.841668179719804
  0
LINE
  8
0
 10
-18.495031618425728
 20
-17.841668179719804
 11
-18.773909733021224
 21
-18.312216275101907
  0
LINE
  8
0
 10
-18.773909733021224
 20
-18.312216275101907
 11
-19.104370774111807
 21
-18.690787008285366
  0
LINE
  8
0
 10
-19.104370774111807
 20
-18.690787008285366
 11
-19.36122457798207
 21
-19.048714771534637
  0
LINE
  8
0
 10
-19.36122457798207
 20
-19.048714771534637
 11
-19.703844788748125
 21
-19.637178156561404
  0
LINE
  8
0
 10
-19.703844788748125
 20
-19.637178156561404
 11
-20.0896345401402
 21
-20.47384250997464
  0
LINE
  8
0
 10
-20.0896345401402
 20
-20.47384250997464
 11
-20.47359907584001
 21
-21.570267163208598
  0
LINE
  8
0
 10
-20.47359907584001
 20
-21.570267163208598
 11
-20.683434475758098
 21
-22.421641365954816
  0
LINE
  8
0
 10
-20.683434475758098
 20
-22.421641365954816
 11
-20.01106998608232
 21
-23.0940058556306
  0
LINE
  8
0
 10
-20.01106998608232
 20
-23.0940058556306
 11
-19.249861753832967
 21
-23.66383920066212
  0
LINE
  8
0
 10
-19.249861753832967
 20
-23.66383920066212
 11
-18.43701600389118
 21
-23.334976440582587
  0
LINE
  8
0
 10
-18.43701600389118
 20
-23.334976440582587
 11
-17.40639522351606
 21
-22.798882613022275
  0
LINE
  8
0
 10
-17.40639522351606
 20
-22.798882613022275
 11
-16.633150512927777
 21
-22.297949892891445
  0
LINE
  8
0
 10
-16.633150512927777
 20
-22.297949892891445
 11
-16.09943677655077
 21
-21.8750699903836
  0
LINE
  8
0
 10
-16.09943677655077
 20
-21.8750699903836
 11
-15.781706309399807
 21
-21.569892156143773
  0
LINE
  8
0
 10
-15.781706309399807
 20
-21.569892156143773
 11
-15.45401839004502
 21
-21.18891849929781
  0
LINE
  8
0
 10
-15.45401839004502
 20
-21.18891849929781
 11
-15.027948289575908
 21
-20.845912985706
  0
LINE
  8
0
 10
-15.027948289575908
 20
-20.845912985706
 11
-14.698087829421043
 21
-20.764732620833342
  0
LINE
  8
0
 10
-14.698087829421043
 20
-20.764732620833342
 11
-12.782458820129923
 21
-21.995832631836365
  0
LINE
  8
0
 10
-12.782458820129923
 20
-21.995832631836365
 11
-12.719274090068625
 21
-22.32960780272467
  0
LINE
  8
0
 10
-12.719274090068625
 20
-22.32960780272467
 11
-12.854286963488999
 21
-22.859664438263586
  0
LINE
  8
0
 10
-12.854286963488999
 20
-22.859664438263586
 11
-13.064706309863636
 21
-23.316002030812136
  0
LINE
  8
0
 10
-13.064706309863636
 20
-23.316002030812136
 11
-13.210315826018558
 21
-23.73179528361018
  0
LINE
  8
0
 10
-13.210315826018558
 20
-23.73179528361018
 11
-13.373268216795752
 21
-24.392949034777434
  0
LINE
  8
0
 10
-13.373268216795752
 20
-24.392949034777434
 11
-13.50771518504374
 21
-25.304412136214058
  0
LINE
  8
0
 10
-13.50771518504374
 20
-25.304412136214058
 11
-13.567227938225281
 21
-26.464599197468896
  0
LINE
  8
0
 10
-13.567227938225281
 20
-26.464599197468896
 11
-13.528703699093752
 21
-27.3406042266553
  0
LINE
  8
0
 10
-13.528703699093752
 20
-27.3406042266553
 11
-12.694147728736164
 21
-27.796306263401387
  0
LINE
  8
0
 10
-12.694147728736164
 20
-27.796306263401387
 11
-11.803233173166161
 21
-28.128600212530028
  0
LINE
  8
0
 10
-11.803233173166161
 20
-28.128600212530028
 11
-11.115964733711747
 21
-27.58405359350146
  0
LINE
  8
0
 10
-11.115964733711747
 20
-27.58405359350146
 11
-10.278126421226206
 21
-26.779315905170243
  0
LINE
  8
0
 10
-10.278126421226206
 20
-26.779315905170243
 11
-9.677332610580162
 21
-26.080826270572967
  0
LINE
  8
0
 10
-9.677332610580162
 20
-26.080826270572967
 11
-9.284377066775276
 21
-25.52471143986302
  0
LINE
  8
0
 10
-9.284377066775276
 20
-25.52471143986302
 11
-9.065495447572392
 21
-25.14238043531015
  0
LINE
  8
0
 10
-9.065495447572392
 20
-25.14238043531015
 11
-8.858413873845564
 21
-24.684518533068353
  0
LINE
  8
0
 10
-8.858413873845564
 20
-24.684518533068353
 11
-8.546238426533156
 21
-24.235369334067133
  0
LINE
  8
0
 10
-8.546238426533156
 20
-24.235369334067133
 11
-8.252610784502213
 21
-24.06454491353604
  0
LINE
  8
0
 10
-8.252610784502213
 20
-24.06454491353604
 11
-6.067737256207889
 21
-24.706081665162962
  0
LINE
  8
0
 10
-6.067737256207889
 20
-24.706081665162962
 11
-5.913076619369797
 21
-25.008535400843765
  0
LINE
  8
0
 10
-5.913076619369797
 20
-25.008535400843765
 11
-5.8932863115630045
 21
-25.555158540296325
  0
LINE
  8
0
 10
-5.8932863115630045
 20
-25.555158540296325
 11
-5.966617039190458
 21
-26.05229323440584
  0
LINE
  8
0
 10
-5.966617039190458
 20
-26.05229323440584
 11
-5.989185850604304
 21
-26.49226688022865
  0
LINE
  8
0
 10
-5.989185850604304
 20
-26.49226688022865
 11
-5.959268987807051
 21
-27.172548252649584
  0
LINE
  8
0
 10
-5.959268987807051
 20
-27.172548252649584
 11
-5.8314810791304055
 21
-28.084968782310987
  0
LINE
  8
0
 10
-5.8314810791304055
 20
-28.084968782310987
 11
-5.56172068046688
 21
-29.214926795781963
  0
LINE
  8
0
 10
-5.56172068046688
 20
-29.214926795781963
 11
-5.277957807027693
 21
-30.044593933746388
  0
LINE
  8
0
 10
-5.277957807027693
 20
-30.044593933746388
 11
-4.348821117411238
 21
-30.246715248709947
  0
LINE
  8
0
 10
-4.348821117411238
 20
-30.246715248709947
 11
-3.4003768373399907
 21
-30.31454932240551
  0
LINE
  8
0
 10
-3.4003768373399907
 20
-30.31454932240551
 11
-2.894364109994757
 21
-29.598434772958154
  0
LINE
  8
0
 10
-2.894364109994757
 20
-29.598434772958154
 11
-2.3171849426600666
 21
-28.59024828540532
  0
LINE
  8
0
 10
-2.3171849426600666
 20
-28.59024828540532
 11
-1.9375147734364364
 21
-27.75078921245886
  0
LINE
  8
0
 10
-1.9375147734364364
 20
-27.75078921245886
 11
-1.717152343366137
 21
-27.10649256978868
  0
LINE
  8
0
 10
-1.717152343366137
 20
-27.10649256978868
 11
-1.614852059160038
 21
-26.677982579101613
  0
LINE
  8
0
 10
-1.614852059160038
 20
-26.677982579101613
 11
-1.545153348602976
 21
-26.180325679774032
  0
LINE
  8
0
 10
-1.545153348602976
 20
-26.180325679774032
 11
-1.3721631526096527
 21
-25.66142019227334
  0
LINE
  8
0
 10
-1.3721631526096527
 20
-25.66142019227334
 11
-1.1385562939891518
 21
-25.41479089470329
  0
LINE
  8
0
 10
-1.1385562939891518
 20
-25.41479089470329
 11
1.1385562939891674
 21
-25.414790894703273
  0
LINE
  8
0
 10
1.1385562939891674
 20
-25.414790894703273
 11
1.3721631526096554
 21
-25.661420192273344
  0
LINE
  8
0
 10
1.3721631526096554
 20
-25.661420192273344
 11
1.5451533486026003
 21
-26.180325679774086
  0
LINE
  8
0
 10
1.5451533486026003
 20
-26.180325679774086
 11
1.6148520591600766
 21
-26.677982579101684
  0
LINE
  8
0
 10
1.6148520591600766
 20
-26.677982579101684
 11
1.7171523433661673
 21
-27.106492569788717
  0
LINE
  8
0
 10
1.7171523433661673
 20
-27.106492569788717
 11
1.9375147734364666
 21
-27.750789212458884
  0
LINE
  8
0
 10
1.9375147734364666
 20
-27.750789212458884
 11
2.3171849426607176
 21
-28.59024828540573
  0
LINE
  8
0
 10
2.3171849426607176
 20
-28.59024828540573
 11
2.8943641099964577
 21
-29.598434772960488
  0
LINE
  8
0
 10
2.8943641099964577
 20
-29.598434772960488
 11
3.400376837340046
 21
-30.314549322405508
  0
LINE
  8
0
 10
3.400376837340046
 20
-30.314549322405508
 11
4.348821117411278
 21
-30.246715248709943
  0
LINE
  8
0
 10
4.348821117411278
 20
-30.246715248709943
 11
5.277957807027721
 21
-30.04459393374638
  0
LINE
  8
0
 10
5.277957807027721
 20
-30.04459393374638
 11
5.561720680467828
 21
-29.214926795779252
  0
LINE
  8
0
 10
5.561720680467828
 20
-29.214926795779252
 11
5.831481079130891
 21
-28.08496878231042
  0
LINE
  8
0
 10
5.831481079130891
 20
-28.08496878231042
 11
5.959268987807049
 21
-27.17254825264956
  0
LINE
  8
0
 10
5.959268987807049
 20
-27.17254825264956
 11
5.9891858506043
 21
-26.492266880228616
  0
LINE
  8
0
 10
5.9891858506043
 20
-26.492266880228616
 11
5.966617039190452
 21
-26.05229323440577
  0
LINE
  8
0
 10
5.966617039190452
 20
-26.05229323440577
 11
5.8932863115626075
 21
-25.55515854029639
  0
LINE
  8
0
 10
5.8932863115626075
 20
-25.55515854029639
 11
5.913076619369778
 21
-25.00853540084377
  0
LINE
  8
0
 10
5.913076619369778
 20
-25.00853540084377
 11
6.067737256207886
 21
-24.70608166516298
  0
LINE
  8
0
 10
6.067737256207886
 20
-24.70608166516298
 11
8.252610784502204
 21
-24.064544913536032
  0
LINE
  8
0
 10
8.252610784502204
 20
-24.064544913536032
 11
8.546238426533138
 21
-24.23536933406714
  0
LINE
  8
0
 10
8.546238426533138
 20
-24.23536933406714
 11
8.858413873845196
 21
-24.68451853306852
  0
LINE
  8
0
 10
8.858413873845196
 20
-24.68451853306852
 11
9.065495447572427
 21
-25.142380435310223
  0
LINE
  8
0
 10
9.065495447572427
 20
-25.142380435310223
 11
9.284377066775294
 21
-25.524711439863054
  0
LINE
  8
0
 10
9.284377066775294
 20
-25.524711439863054
 11
9.677332610580176
 21
-26.080826270572995
  0
LINE
  8
0
 10
9.677332610580176
 20
-26.080826270572995
 11
10.278126421226922
 21
-26.779315905170463
  0
LINE
  8
0
 10
10.278126421226922
 20
-26.779315905170463
 11
11.115964733714016
 21
-27.58405359350323
  0
LINE
  8
0
 10
11.115964733714016
 20
-27.58405359350323
 11
11.80323317316619
 21
-28.128600212530024
  0
LINE
  8
0
 10
11.80323317316619
 20
-28.128600212530024
 11
12.69414772873615
 21
-27.796306263401398
  0
LINE
  8
0
 10
12.69414772873615
 20
-27.796306263401398
 11
13.528703699093724
 21
-27.340604226655312
  0
LINE
  8
0
 10
13.528703699093724
 20
-27.340604226655312
 11
13.56722793822538
 21
-26.464599197466054
  0
LINE
  8
0
 10
13.56722793822538
 20
-26.464599197466054
 11
13.507715185043997
 21
-25.304412136213404
  0
LINE
  8
0
 10
13.507715185043997
 20
-25.304412136213404
 11
13.373268216795696
 21
-24.392949034777434
  0
LINE
  8
0
 10
13.373268216795696
 20
-24.392949034777434
 11
13.2103158260185
 21
-23.73179528361017
  0
LINE
  8
0
 10
13.2103158260185
 20
-23.73179528361017
 11
13.064706309863569
 21
-23.31600203081209
  0
LINE
  8
0
 10
13.064706309863569
 20
-23.31600203081209
 11
12.854286963488596
 21
-22.859664438263785
  0
LINE
  8
0
 10
12.854286963488596
 20
-22.859664438263785
 11
12.719274090068568
 21
-22.329607802724706
  0
LINE
  8
0
 10
12.719274090068568
 20
-22.329607802724706
 11
12.782458820129884
 21
-21.995832631836404
  0
LINE
  8
0
 10
12.782458820129884
 20
-21.995832631836404
 11
14.698087829420993
 21
-20.764732620833367
  0
LINE
  8
0
 10
14.698087829420993
 20
-20.764732620833367
 11
15.027948289575855
 21
-20.84591298570604
  0
LINE
  8
0
 10
15.027948289575855
 20
-20.84591298570604
 11
15.454018390044673
 21
-21.1889184992981
  0
LINE
  8
0
 10
15.454018390044673
 20
-21.1889184992981
 11
15.78170630939982
 21
-21.569892156143858
  0
LINE
  8
0
 10
15.78170630939982
 20
-21.569892156143858
 11
16.099436776550757
 21
-21.87506999038366
  0
LINE
  8
0
 10
16.099436776550757
 20
-21.87506999038366
 11
16.633150512927752
 21
-22.297949892891502
  0
LINE
  8
0
 10
16.633150512927752
 20
-22.297949892891502
 11
17.406395223516764
 21
-22.798882613022318
  0
LINE
  8
0
 10
17.406395223516764
 20
-22.798882613022318
 11
18.43701600389381
 21
-23.334976440583684
  0
LINE
  8
0
 10
18.43701600389381
 20
-23.334976440583684
 11
19.249861753832942
 21
-23.663839200662146
  0
LINE
  8
0
 10
19.249861753832942
 20
-23.663839200662146
 11
20.011069986082283
 21
-23.094005855630623
  0
LINE
  8
0
 10
20.011069986082283
 20
-23.094005855630623
 11
20.683434475758087
 21
-22.42164136595482
  0
LINE
  8
0
 10
20.683434475758087
 20
-22.42164136595482
 11
20.473599075839314
 21
-21.570267163205834
  0
LINE
  8
0
 10
20.473599075839314
 20
-21.570267163205834
 11
20.08963454014027
 21
-20.473842509973927
  0
LINE
  8
0
 10
20.08963454014027
 20
-20.473842509973927
 11
19.70384478874808
 21
-19.63717815656141
  0
LINE
  8
0
 10
19.70384478874808
 20
-19.63717815656141
 11
19.36122457798202
 21
-19.048714771534634
  0
LINE
  8
0
 10
19.36122457798202
 20
-19.048714771534634
 11
19.104370774111736
 21
-18.690787008285334
  0
LINE
  8
0
 10
19.104370774111736
 20
-18.690787008285334
 11
18.773909733020893
 21
-18.3122162751022
  0
LINE
  8
0
 10
18.773909733020893
 20
-18.3122162751022
 11
18.495031618425685
 21
-17.841668179719846
  0
LINE
  8
0
 10
18.495031618425685
 20
-17.841668179719846
 11
18.461621590654705
 21
-17.503612052932034
  0
LINE
  8
0
 10
18.461621590654705
 20
-17.503612052932034
 11
19.952813211294227
 21
-15.782685183810687
  0
LINE
  8
0
 10
19.952813211294227
 20
-15.782685183810687
 11
20.292183156846956
 21
-15.767644742661162
  0
LINE
  8
0
 10
20.292183156846956
 20
-15.767644742661162
 11
20.797630244869012
 21
-15.976718304065006
  0
LINE
  8
0
 10
20.797630244869012
 20
-15.976718304065006
 11
21.219377183461013
 21
-16.249939495574765
  0
LINE
  8
0
 10
21.219377183461013
 20
-16.249939495574765
 11
21.610215865727298
 21
-16.453240466333888
  0
LINE
  8
0
 10
21.610215865727298
 20
-16.453240466333888
 11
22.241449481872955
 21
-16.70862622590206
  0
LINE
  8
0
 10
22.241449481872955
 20
-16.70862622590206
 11
23.12450140461568
 21
-16.97141944174282
  0
LINE
  8
0
 10
23.12450140461568
 20
-16.97141944174282
 11
24.264409886594315
 21
-17.19543827489652
  0
LINE
  8
0
 10
24.264409886594315
 20
-17.19543827489652
 11
25.136981018540155
 21
-17.281974671027232
  0
LINE
  8
0
 10
25.136981018540155
 20
-17.281974671027232
 11
25.706814363571702
 21
-16.520766438777848
  0
LINE
  8
0
 10
25.706814363571702
 20
-16.520766438777848
 11
26.16251640031778
 21
-15.686210468420267
  0
LINE
  8
0
 10
26.16251640031778
 20
-15.686210468420267
 11
25.72132097751082
 21
-14.928440366700928
  0
LINE
  8
0
 10
25.72132097751082
 20
-14.928440366700928
 11
25.04401118245143
 21
-13.984603926206127
  0
LINE
  8
0
 10
25.04401118245143
 20
-13.984603926206127
 11
24.43813303919315
 21
-13.290519890896045
  0
LINE
  8
0
 10
24.43813303919315
 20
-13.290519890896045
 11
23.94360206027364
 21
-12.822420675738122
  0
LINE
  8
0
 10
23.94360206027364
 20
-12.822420675738122
 11
23.596312736309187
 21
-12.551355580737686
  0
LINE
  8
0
 10
23.596312736309187
 20
-12.551355580737686
 11
23.17258198872418
 21
-12.281221256275385
  0
LINE
  8
0
 10
23.17258198872418
 20
-12.281221256275385
 11
22.77243167924628
 21
-11.908302709280361
  0
LINE
  8
0
 10
22.77243167924628
 20
-11.908302709280361
 11
22.645133575395917
 21
-11.593352923488183
  0
LINE
  8
0
 10
22.645133575395917
 20
-11.593352923488183
 11
23.591080330737675
 21
-9.522018456438568
  0
LINE
  8
0
 10
23.591080330737675
 20
-9.522018456438568
 11
23.912466027010378
 21
-9.411975696359827
  0
LINE
  8
0
 10
23.912466027010378
 20
-9.411975696359827
 11
24.456341785523694
 21
-9.470179409038867
  0
LINE
  8
0
 10
24.456341785523694
 20
-9.470179409038867
 11
24.937980314613455
 21
-9.613513379185486
  0
LINE
  8
0
 10
24.937980314613455
 20
-9.613513379185486
 11
25.370263786365015
 21
-9.698467250890458
  0
LINE
  8
0
 10
25.370263786365015
 20
-9.698467250890458
 11
26.047878488790076
 21
-9.76566903211634
  0
LINE
  8
0
 10
26.047878488790076
 20
-9.76566903211634
 11
26.969198008617887
 21
-9.769032800211061
  0
LINE
  8
0
 10
26.969198008617887
 20
-9.769032800211061
 11
28.12604558628498
 21
-9.66282796538628
  0
LINE
  8
0
 10
28.12604558628498
 20
-9.66282796538628
 11
28.987651576507613
 21
-9.500027333406493
  0
LINE
  8
0
 10
0.3118675362266391
 20
-1.4672214011007085
 11
9.18454765366783e-17
 21
-1.5
  0
LINE
  8
0
 10
9.18454765366783e-17
 20
-1.5
 11
-0.3118675362266384
 21
-1.4672214011007085
  0
LINE
  8
0
 10
-0.3118675362266384
 20
-1.4672214011007085
 11
-0.6101049646137001
 21
-1.3703181864639014
  0
LINE
  8
0
 10
-0.6101049646137001
 20
-1.3703181864639014
 11
-0.8816778784387099
 21
-1.213525491562421
  0
LINE
  8
0
 10
-0.8816778784387099
 20
-1.213525491562421
 11
-1.114717238216091
 21
-1.0036959095382878
  0
LINE
  8
0
 10
-1.114717238216091
 20
-1.0036959095382878
 11
-1.299038105676658
 21
-0.7500000000000003
  0
LINE
  8
0
 10
-1.299038105676658
 20
-0.7500000000000003
 11
-1.4265847744427305
 21
-0.46352549156242095
  0
LINE
  8
0
 10
-1.4265847744427305
 20
-0.46352549156242095
 11
-1.49178284305241
 21
-0.15679269490147957
  0
LINE
  8
0
 10
-1.49178284305241
 20
-0.15679269490147957
 11
-1.4917828430524098
 21
0.15679269490148126
  0
LINE
  8
0
 10
-1.4917828430524098
 20
0.15679269490148126
 11
-1.4265847744427302
 21
0.46352549156242123
  0
LINE
  8
0
 10
-1.4265847744427302
 20
0.46352549156242123
 11
-1.2990381056766576
 21
0.7500000000000006
  0
LINE
  8
0
 10
-1.2990381056766576
 20
0.7500000000000006
 11
-1.114717238216091
 21
1.0036959095382878
  0
LINE
  8
0
 10
-1.114717238216091
 20
1.0036959095382878
 11
-0.8816778784387097
 21
1.2135254915624214
  0
LINE
  8
0
 10
-0.8816778784387097
 20
1.2135254915624214
 11
-0.6101049646137005
 21
1.3703181864639014
  0
LINE
  8
0
 10
-0.6101049646137005
 20
1.3703181864639014
 11
-0.3118675362266387
 21
1.4672214011007085
  0
LINE
  8
0
 10
-0.3118675362266387
 20
1.4672214011007085
 11
7.579792913117722e-16
 21
1.5
  0
LINE
  8
0
 10
7.579792913117722e-16
 20
1.5
 11
0.3118675362266389
 21
1.4672214011007085
  0
LINE
  8
0
 10
0.3118675362266389
 20
1.4672214011007085
 11
0.6101049646136999
 21
1.3703181864639014
  0
LINE
  8
0
 10
0.6101049646136999
 20
1.3703181864639014
 11
0.8816778784387097
 21
1.213525491562421
  0
LINE
  8
0
 10
0.8816778784387097
 20
1.213525491562421
 11
1.1147172382160917
 21
1.003695909538287
  0
LINE
  8
0
 10
1.1147172382160917
 20
1.003695909538287
 11
1.299038105676658
 21
0.7499999999999998
  0
LINE
  8
0
 10
1.299038105676658
 20
0.7499999999999998
 11
1.4265847744427305
 21
0.4635254915624211
  0
LINE
  8
0
 10
1.4265847744427305
 20
0.4635254915624211
 11
1.49178284305241
 21
0.1567926949014801
  0
LINE
  8
0
 10
1.49178284305241
 20
0.1567926949014801
 11
1.4917828430524098
 21
-0.1567926949014801
  0
LINE
  8
0
 10
1.4917828430524098
 20
-0.1567926949014801
 11
1.4265847744427302
 21
-0.46352549156242107
  0
LINE
  8
0
 10
1.4265847744427302
 20
-0.46352549156242107
 11
1.299038105676658
 21
-0.7500000000000001
  0
LINE
  8
0
 10
1.299038105676658
 20
-0.7500000000000001
 11
1.1147172382160913
 21
-1.0036959095382874
  0
LINE
  8
0
 10
1.1147172382160913
 20
-1.0036959095382874
 11
0.8816778784387098
 21
-1.2135254915624212
  0
LINE
  8
0
 10
0.8816778784387098
 20
-1.2135254915624212
 11
0.6101049646137003
 21
-1.3703181864639014
  0
LINE
  8
0
 10
0.6101049646137003
 20
-1.3703181864639014
 11
0.3118675362266391
 21
-1.4672214011007085
  0
ENDSEC
  0
SECTION
  2
OBJECTS
  0
DICTIONARY
  0
ENDSEC
  0
EOF
