  0
SECTION
  2
BLOCKS
  0
ENDSEC
  0
SECTION
  2
ENTITIES
  0
LINE
  8
0
 10
73.20796836164526
 20
-9.301761059288644
 11
73.38355353989023
 21
-8.268340717656631
  0
LINE
  8
0
 10
73.38355353989023
 20
-8.268340717656631
 11
73.44232830824316
 21
-7.221759003731096
  0
LINE
  8
0
 10
73.44232830824316
 20
-7.221759003731096
 11
72.53480425954002
 21
-6.7285094605449745
  0
LINE
  8
0
 10
72.53480425954002
 20
-6.7285094605449745
 11
71.65677319452658
 21
-6.293000137841445
  0
LINE
  8
0
 10
71.65677319452658
 20
-6.293000137841445
 11
70.84912911666092
 21
-5.929371817648385
  0
LINE
  8
0
 10
70.84912911666092
 20
-5.929371817648385
 11
70.11589909442245
 21
-5.6316975042513375
  0
LINE
  8
0
 10
70.11589909442245
 20
-5.6316975042513375
 11
69.46076346187468
 21
-5.393854118455372
  0
LINE
  8
0
 10
69.46076346187468
 20
-5.393854118455372
 11
68.81394010719943
 21
-5.186053677560138
  0
LINE
  8
0
 10
68.81394010719943
 20
-5.186053677560138
 11
68.62176975161998
 21
-5.089262069428099
  0
LINE
  8
0
 10
68.62176975161998
 20
-5.089262069428099
 11
68.53301048249227
 21
-4.989081590486871
  0
LINE
  8
0
 10
68.53301048249227
 20
-4.989081590486871
 11
68.6606892037097
 21
-2.7155513218345315
  0
LINE
  8
0
 10
68.6606892037097
 20
-2.7155513218345315
 11
68.76010702802354
 21
-2.6259386417842085
  0
LINE
  8
0
 10
68.76010702802354
 20
-2.6259386417842085
 11
68.96190627843703
 21
-2.5512718921483626
  0
LINE
  8
0
 10
68.96190627843703
 20
-2.5512718921483626
 11
69.62792881112227
 21
-2.4171992948522254
  0
LINE
  8
0
 10
69.62792881112227
 20
-2.4171992948522254
 11
70.30557509840611
 21
-2.2542033362197653
  0
LINE
  8
0
 10
70.30557509840611
 20
-2.2542033362197653
 11
71.067523672714
 21
-2.040496451728634
  0
LINE
  8
0
 10
71.067523672714
 20
-2.040496451728634
 11
71.9108029084959
 21
-1.7695819961480077
  0
LINE
  8
0
 10
71.9108029084959
 20
-1.7695819961480077
 11
72.83207467163756
 21
-1.435119352845501
  0
LINE
  8
0
 10
72.83207467163756
 20
-1.435119352845501
 11
73.78911882628645
 21
-1.046581713925522
  0
LINE
  8
0
 10
73.78911882628645
 20
-1.046581713925522
 11
73.84789359463943
 21
2.6645352591003757e-15
  0
LINE
  8
0
 10
73.84789359463943
 20
2.6645352591003757e-15
 11
73.78911882628648
 21
1.046581713925534
  0
LINE
  8
0
 10
73.78911882628648
 20
1.046581713925534
 11
72.83207467162738
 21
1.4351193528496466
  0
LINE
  8
0
 10
72.83207467162738
 20
1.4351193528496466
 11
71.91080290850334
 21
1.7695819961458197
  0
LINE
  8
0
 10
71.91080290850334
 20
1.7695819961458197
 11
71.06752367271352
 21
2.0404964517284645
  0
LINE
  8
0
 10
71.06752367271352
 20
2.0404964517284645
 11
70.30557509840595
 21
2.2542033362195513
  0
LINE
  8
0
 10
70.30557509840595
 20
2.2542033362195513
 11
69.62792881112182
 21
2.417199294852531
  0
LINE
  8
0
 10
69.62792881112182
 20
2.417199294852531
 11
68.96190627843804
 21
2.551271892153726
  0
LINE
  8
0
 10
68.96190627843804
 20
2.551271892153726
 11
68.76010702802351
 21
2.6259386417846957
  0
LINE
  8
0
 10
68.76010702802351
 20
2.6259386417846957
 11
68.66068920370968
 21
2.715551321834351
  0
LINE
  8
0
 10
68.66068920370968
 20
2.715551321834351
 11
68.53301048249232
 21
4.989081590486694
  0
LINE
  8
0
 10
68.53301048249232
 20
4.989081590486694
 11
68.62176975161995
 21
5.089262069428587
  0
LINE
  8
0
 10
68.62176975161995
 20
5.089262069428587
 11
68.81394010719784
 21
5.186053677565355
  0
LINE
  8
0
 10
68.81394010719784
 20
5.186053677565355
 11
69.4607634618751
 21
5.393854118455727
  0
LINE
  8
0
 10
69.4607634618751
 20
5.393854118455727
 11
70.11589909442263
 21
5.631697504251144
  0
LINE
  8
0
 10
70.11589909442263
 20
5.631697504251144
 11
70.84912911666143
 21
5.9293718176482715
  0
LINE
  8
0
 10
70.84912911666143
 20
5.9293718176482715
 11
71.65677319451943
 21
6.293000137838437
  0
LINE
  8
0
 10
71.65677319451943
 20
6.293000137838437
 11
72.53480425954969
 21
6.7285094605502325
  0
LINE
  8
0
 10
72.53480425954969
 20
6.7285094605502325
 11
73.4423283082431
 21
7.221759003731101
  0
LINE
  8
0
 10
73.4423283082431
 20
7.221759003731101
 11
73.38355353989012
 21
8.268340717656626
  0
LINE
  8
0
 10
73.38355353989012
 20
8.268340717656626
 11
73.20796836164523
 21
9.301761059288697
  0
LINE
  8
0
 10
73.20796836164523
 20
9.301761059288697
 11
72.21343948656497
 21
9.580700707706537
  0
LINE
  8
0
 10
72.21343948656497
 20
9.580700707706537
 11
71.26051255228596
 21
9.809910609796159
  0
LINE
  8
0
 10
71.26051255228596
 20
9.809910609796159
 11
70.39220288424406
 21
9.98470429430121
  0
LINE
  8
0
 10
70.39220288424406
 20
9.98470429430121
 11
69.61111770328215
 21
10.111756261818236
  0
LINE
  8
0
 10
69.61111770328215
 20
10.111756261818236
 11
68.91948255650378
 21
10.197855024535965
  0
LINE
  8
0
 10
68.91948255650378
 20
10.197855024535965
 11
68.24263646559527
 21
10.256513737541324
  0
LINE
  8
0
 10
68.24263646559527
 20
10.256513737541324
 11
68.03374606300628
 21
10.308116650971957
  0
LINE
  8
0
 10
68.03374606300628
 20
10.308116650971957
 11
67.92491992033062
 21
10.386034600683928
  0
LINE
  8
0
 10
67.92491992033062
 20
10.386034600683928
 11
67.5434893906787
 21
12.630973907074981
  0
LINE
  8
0
 10
67.5434893906787
 20
12.630973907074981
 11
67.62047390531153
 21
12.740462357259684
  0
LINE
  8
0
 10
67.62047390531153
 20
12.740462357259684
 11
67.80059871233256
 21
12.858161613265253
  0
LINE
  8
0
 10
67.80059871233256
 20
12.858161613265253
 11
68.42008871002115
 21
13.137076686637043
  0
LINE
  8
0
 10
68.42008871002115
 20
13.137076686637043
 11
69.04447497713454
 21
13.44677648101909
  0
LINE
  8
0
 10
69.04447497713454
 20
13.44677648101909
 11
69.7397656543446
 21
13.824674796116586
  0
LINE
  8
0
 10
69.7397656543446
 20
13.824674796116586
 11
70.50161798139365
 21
14.276444143807835
  0
LINE
  8
0
 10
70.50161798139365
 20
14.276444143807835
 11
71.32536659822425
 21
14.807523363507423
  0
LINE
  8
0
 10
71.32536659822425
 20
14.807523363507423
 11
72.17195789949227
 21
15.399281911753645
  0
LINE
  8
0
 10
72.17195789949227
 20
15.399281911753645
 11
71.9963727212473
 21
16.432702253385703
  0
LINE
  8
0
 10
71.9963727212473
 20
16.432702253385703
 11
71.70618521860361
 21
17.43996536232381
  0
LINE
  8
0
 10
71.70618521860361
 20
17.43996536232381
 11
70.68667840074546
 21
17.605799192311988
  0
LINE
  8
0
 10
70.68667840074546
 20
17.605799192311988
 11
69.71407990441112
 21
17.7268739056856
  0
LINE
  8
0
 10
69.71407990441112
 20
17.7268739056856
 11
68.83165930199775
 21
17.80334868711275
  0
LINE
  8
0
 10
68.83165930199775
 20
17.80334868711275
 11
68.0412601137283
 21
17.84214798544692
  0
LINE
  8
0
 10
68.0412601137283
 20
17.84214798544692
 11
67.3443338207225
 21
17.85026681035255
  0
LINE
  8
0
 10
67.3443338207225
 20
17.85026681035255
 11
66.66517590389765
 21
17.832773971711458
  0
LINE
  8
0
 10
66.66517590389765
 20
17.832773971711458
 11
66.45182126714779
 21
17.86066411236466
  0
LINE
  8
0
 10
66.45182126714779
 20
17.86066411236466
 11
66.33495535799688
 21
17.925907468312264
  0
LINE
  8
0
 10
66.33495535799688
 20
17.925907468312264
 11
65.70456973013191
 21
20.11402439812004
  0
LINE
  8
0
 10
65.70456973013191
 20
20.11402439812004
 11
65.76881136533098
 21
20.231443938759796
  0
LINE
  8
0
 10
65.76881136533098
 20
20.231443938759796
 11
65.934625449836
 21
20.3685707061992
  0
LINE
  8
0
 10
65.934625449836
 20
20.3685707061992
 11
66.51899164437852
 21
20.71509289317446
  0
LINE
  8
0
 10
66.51899164437852
 20
20.71509289317446
 11
67.10477652647147
 21
21.092754441536776
  0
LINE
  8
0
 10
67.10477652647147
 20
21.092754441536776
 11
67.75338417496982
 21
21.54612446776058
  0
LINE
  8
0
 10
67.75338417496982
 20
21.54612446776058
 11
68.45986401616028
 21
22.080353581283017
  0
LINE
  8
0
 10
68.45986401616028
 20
22.080353581283017
 11
69.21897106798448
 21
22.700324068643333
  0
LINE
  8
0
 10
69.21897106798448
 20
22.700324068643333
 11
69.9939832450099
 21
23.383149914864394
  0
LINE
  8
0
 10
69.9939832450099
 20
23.383149914864394
 11
69.70379574236627
 21
24.390413023802513
  0
LINE
  8
0
 10
69.70379574236627
 20
24.390413023802513
 11
69.30265519154041
 21
25.35885198202414
  0
LINE
  8
0
 10
69.30265519154041
 20
25.35885198202414
 11
68.27099132067046
 21
25.40949453695148
  0
LINE
  8
0
 10
68.27099132067046
 20
25.40949453695148
 11
67.29095225268698
 21
25.420911476839226
  0
LINE
  8
0
 10
67.29095225268698
 20
25.420911476839226
 11
66.40551766696986
 21
25.39810564044032
  0
LINE
  8
0
 10
66.40551766696986
 20
25.39810564044032
 11
65.61574419978564
 21
25.34816434590321
  0
LINE
  8
0
 10
65.61574419978564
 20
25.34816434590321
 11
64.92229101305301
 21
25.278201134062908
  0
LINE
  8
0
 10
64.92229101305301
 20
25.278201134062908
 11
64.2493620751725
 21
25.18477672637085
  0
LINE
  8
0
 10
64.2493620751725
 20
25.18477672637085
 11
64.03422626261015
 21
25.188603359545667
  0
LINE
  8
0
 10
64.03422626261015
 20
25.188603359545667
 11
63.910790243598704
 21
25.240351648672796
  0
LINE
  8
0
 10
63.910790243598704
 20
25.240351648672796
 11
63.03937698254937
 21
27.34412936192994
  0
LINE
  8
0
 10
63.03937698254937
 20
27.34412936192994
 11
63.090067862478165
 21
27.468003374172806
  0
LINE
  8
0
 10
63.090067862478165
 20
27.468003374172806
 11
63.239486016147
 21
27.62283320438269
  0
LINE
  8
0
 10
63.239486016147
 20
27.62283320438269
 11
63.78137966358988
 21
28.03260478740335
  0
LINE
  8
0
 10
63.78137966358988
 20
28.03260478740335
 11
64.32119657588977
 21
28.473478776650946
  0
LINE
  8
0
 10
64.32119657588977
 20
28.473478776650946
 11
64.91496457816564
 21
28.996619122869877
  0
LINE
  8
0
 10
64.91496457816564
 20
28.996619122869877
 11
65.55718753958534
 21
29.606589761153998
  0
LINE
  8
0
 10
65.55718753958534
 20
29.606589761153998
 11
66.24210681478232
 21
30.307655027581237
  0
LINE
  8
0
 10
66.24210681478232
 20
30.307655027581237
 11
66.93579363976647
 21
31.072961240576127
  0
LINE
  8
0
 10
66.93579363976647
 20
31.072961240576127
 11
66.5346530889406
 21
32.04140019879774
  0
LINE
  8
0
 10
66.5346530889406
 20
32.04140019879774
 11
66.02760406510636
 21
32.95883632450186
  0
LINE
  8
0
 10
66.02760406510636
 20
32.95883632450186
 11
64.99675691298619
 21
32.89365074485669
  0
LINE
  8
0
 10
64.99675691298619
 20
32.89365074485669
 11
64.02160183326538
 21
32.795266336615214
  0
LINE
  8
0
 10
64.02160183326538
 20
32.795266336615214
 11
63.14428811790101
 21
32.67346667901523
  0
LINE
  8
0
 10
63.14428811790101
 20
32.67346667901523
 11
62.3650722313891
 21
32.53541283236225
  0
LINE
  8
0
 10
62.3650722313891
 20
32.53541283236225
 11
61.68381272710371
 21
32.388247411758506
  0
LINE
  8
0
 10
61.68381272710371
 20
32.388247411758506
 11
61.02557524000386
 21
32.22006630114832
  0
LINE
  8
0
 10
61.02557524000386
 20
32.22006630114832
 11
60.81136370929669
 21
32.19978130471231
  0
LINE
  8
0
 10
60.81136370929669
 20
32.19978130471231
 11
60.68290985998304
 21
32.23738376225813
  0
LINE
  8
0
 10
60.68290985998304
 20
32.23738376225813
 11
59.58142749311278
 21
34.230366033580175
  0
LINE
  8
0
 10
59.58142749311278
 20
34.230366033580175
 11
59.61793015054466
 21
34.35913672984882
  0
LINE
  8
0
 10
59.61793015054466
 20
34.35913672984882
 11
59.749073353400476
 21
34.529722547879935
  0
LINE
  8
0
 10
59.749073353400476
 20
34.529722547879935
 11
60.241679826713124
 21
34.997590411534496
  0
LINE
  8
0
 10
60.241679826713124
 20
34.997590411534496
 11
60.72874025833871
 21
35.49613259545155
  0
LINE
  8
0
 10
60.72874025833871
 20
35.49613259545155
 11
61.26020163725126
 21
36.0824644682788
  0
LINE
  8
0
 10
61.26020163725126
 20
36.0824644682788
 11
61.83009139253393
 21
36.760505896634974
  0
LINE
  8
0
 10
61.83009139253393
 20
36.760505896634974
 11
62.432209633818644
 21
37.533849639636266
  0
LINE
  8
0
 10
62.432209633818644
 20
37.533849639636266
 11
63.03584759245087
 21
38.37201204973555
  0
LINE
  8
0
 10
63.03584759245087
 20
38.37201204973555
 11
62.528798568616594
 21
39.28944817543964
  0
LINE
  8
0
 10
62.528798568616594
 20
39.28944817543964
 11
61.92221750744538
 21
40.14434417703671
  0
LINE
  8
0
 10
61.92221750744538
 20
40.14434417703671
 11
60.905150575124345
 21
39.964150209304584
  0
LINE
  8
0
 10
60.905150575124345
 20
39.964150209304584
 11
59.94714262459184
 21
39.757201693951494
  0
LINE
  8
0
 10
59.94714262459184
 20
39.757201693951494
 11
59.088982508580216
 21
39.53793991651455
  0
LINE
  8
0
 10
59.088982508580216
 20
39.53793991651455
 11
58.33012329462508
 21
39.313509624968084
  0
LINE
  8
0
 10
58.33012329462508
 20
39.313509624968084
 11
57.66962470632929
 21
39.09099268615234
  0
LINE
  8
0
 10
57.66962470632929
 20
39.09099268615234
 11
57.034356388328675
 21
38.850169847670905
  0
LINE
  8
0
 10
57.034356388328675
 20
38.850169847670905
 11
56.82376297376375
 21
38.806028317223884
  0
LINE
  8
0
 10
56.82376297376375
 20
38.806028317223884
 11
56.69190667583368
 21
38.82901207046731
  0
LINE
  8
0
 10
56.69190667583368
 20
38.82901207046731
 11
55.37420698300084
 21
40.686135991437126
  0
LINE
  8
0
 10
55.37420698300084
 20
40.686135991437126
 11
55.39606237583927
 21
40.81818400551147
  0
LINE
  8
0
 10
55.39606237583927
 20
40.81818400551147
 11
55.50728142601509
 21
41.002380595725874
  0
LINE
  8
0
 10
55.50728142601509
 20
41.002380595725874
 11
55.94440591297866
 21
41.52246103016563
  0
LINE
  8
0
 10
55.94440591297866
 20
41.52246103016563
 11
56.3725847964032
 21
42.072401951528455
  0
LINE
  8
0
 10
56.3725847964032
 20
42.072401951528455
 11
56.83505611675153
 21
42.714551887465554
  0
LINE
  8
0
 10
56.83505611675153
 20
42.714551887465554
 11
57.325445971566765
 21
43.452137341523404
  0
LINE
  8
0
 10
57.325445971566765
 20
43.452137341523404
 11
57.837191192697915
 21
44.28803431482602
  0
LINE
  8
0
 10
57.837191192697915
 20
44.28803431482602
 11
58.343189187409564
 21
45.18851254340958
  0
LINE
  8
0
 10
58.343189187409564
 20
45.18851254340958
 11
57.736608126238295
 21
46.04340854500658
  0
LINE
  8
0
 10
57.736608126238295
 20
46.04340854500658
 11
57.03812313652078
 21
46.82501360925423
  0
LINE
  8
0
 10
57.03812313652078
 20
46.82501360925423
 11
56.04762663078882
 21
46.53207729713043
  0
LINE
  8
0
 10
56.04762663078882
 20
46.53207729713043
 11
55.11881331527174
 21
46.219167172320596
  0
LINE
  8
0
 10
55.11881331527174
 20
46.219167172320596
 11
54.29059865998779
 21
45.90520061911662
  0
LINE
  8
0
 10
54.29059865998779
 20
45.90520061911662
 11
53.561639213505295
 21
45.597216223810335
  0
LINE
  8
0
 10
53.561639213505295
 20
45.597216223810335
 11
52.930207694177135
 21
45.30214604639556
  0
LINE
  8
0
 10
52.930207694177135
 20
45.30214604639556
 11
52.325897412965865
 21
44.991709966965445
  0
LINE
  8
0
 10
52.325897412965865
 20
44.991709966965445
 11
52.121570448920494
 21
44.924267007864294
  0
LINE
  8
0
 10
52.121570448920494
 20
44.924267007864294
 11
51.98796987182527
 21
44.93234302277279
  0
LINE
  8
0
 10
51.98796987182527
 20
44.93234302277279
 11
50.47062369121439
 21
46.6302541825558
  0
LINE
  8
0
 10
50.47062369121439
 20
46.6302541825558
 11
50.477556975213645
 21
46.76391893404281
  0
LINE
  8
0
 10
50.477556975213645
 20
46.76391893404281
 11
50.56745322862271
 21
46.95940991744522
  0
LINE
  8
0
 10
50.56745322862271
 20
46.95940991744522
 11
50.9435986351881
 21
47.52516260944939
  0
LINE
  8
0
 10
50.9435986351881
 20
47.52516260944939
 11
51.307511372517375
 21
48.11958644208869
  0
LINE
  8
0
 10
51.307511372517375
 20
48.11958644208869
 11
51.69517678911598
 21
48.80947903310715
  0
LINE
  8
0
 10
51.69517678911598
 20
48.80947903310715
 11
52.099899806508645
 21
49.59733294782486
  0
LINE
  8
0
 10
52.099899806508645
 20
49.59733294782486
 11
52.51483651440902
 21
50.485271261990796
  0
LINE
  8
0
 10
52.51483651440902
 20
50.485271261990796
 11
52.916831326829715
 21
51.43674127286455
  0
LINE
  8
0
 10
52.916831326829715
 20
51.43674127286455
 11
52.21834633711221
 21
52.21834633711219
  0
LINE
  8
0
 10
52.21834633711221
 20
52.21834633711219
 11
51.436741272864516
 21
52.91683132682968
  0
LINE
  8
0
 10
51.436741272864516
 20
52.91683132682968
 11
50.485271261980685
 21
52.51483651440474
  0
LINE
  8
0
 10
50.485271261980685
 20
52.51483651440474
 11
49.59733294783168
 21
52.09989980651235
  0
LINE
  8
0
 10
49.59733294783168
 20
52.09989980651235
 11
48.809479033106946
 21
51.69517678911551
  0
LINE
  8
0
 10
48.809479033106946
 20
51.69517678911551
 11
48.11958644208874
 21
51.3075113725171
  0
LINE
  8
0
 10
48.11958644208874
 20
51.3075113725171
 11
47.525162609448856
 21
50.943598635187975
  0
LINE
  8
0
 10
47.525162609448856
 20
50.943598635187975
 11
46.95940991744216
 21
50.567453228627215
  0
LINE
  8
0
 10
46.95940991744216
 20
50.567453228627215
 11
46.763918934042465
 21
50.47755697521396
  0
LINE
  8
0
 10
46.763918934042465
 20
50.47755697521396
 11
46.63025418255593
 21
50.47062369121424
  0
LINE
  8
0
 10
46.63025418255593
 20
50.47062369121424
 11
44.93234302277296
 21
51.987969871825165
  0
LINE
  8
0
 10
44.93234302277296
 20
51.987969871825165
 11
44.92426700786395
 21
52.121570448920814
  0
LINE
  8
0
 10
44.92426700786395
 20
52.121570448920814
 11
44.991709966960634
 21
52.32589741296841
  0
LINE
  8
0
 10
44.991709966960634
 20
52.32589741296841
 11
45.30214604639563
 21
52.93020769417769
  0
LINE
  8
0
 10
45.30214604639563
 20
52.93020769417769
 11
45.59721622381062
 21
53.56163921350529
  0
LINE
  8
0
 10
45.59721622381062
 20
53.56163921350529
 11
45.90520061911707
 21
54.29059865998805
  0
LINE
  8
0
 10
45.90520061911707
 20
54.29059865998805
 11
46.21916717231768
 21
55.118813315264546
  0
LINE
  8
0
 10
46.21916717231768
 20
55.118813315264546
 11
46.53207729713355
 21
56.04762663079936
  0
LINE
  8
0
 10
46.53207729713355
 20
56.04762663079936
 11
46.82501360925422
 21
57.03812313652075
  0
LINE
  8
0
 10
46.82501360925422
 20
57.03812313652075
 11
46.04340854500658
 21
57.73660812623828
  0
LINE
  8
0
 10
46.04340854500658
 20
57.73660812623828
 11
45.188512543409566
 21
58.3431891874096
  0
LINE
  8
0
 10
45.188512543409566
 20
58.3431891874096
 11
44.28803431481643
 21
57.837191192692536
  0
LINE
  8
0
 10
44.28803431481643
 20
57.837191192692536
 11
43.452137341529756
 21
57.32544597157122
  0
LINE
  8
0
 10
43.452137341529756
 20
57.32544597157122
 11
42.714551887465376
 21
56.83505611675104
  0
LINE
  8
0
 10
42.714551887465376
 20
56.83505611675104
 11
42.07240195152852
 21
56.37258479640295
  0
LINE
  8
0
 10
42.07240195152852
 20
56.37258479640295
 11
41.522461030165104
 21
55.94440591297848
  0
LINE
  8
0
 10
41.522461030165104
 20
55.94440591297848
 11
41.002380595722315
 21
55.507281426019226
  0
LINE
  8
0
 10
41.002380595722315
 20
55.507281426019226
 11
40.81818400551107
 21
55.39606237583955
  0
LINE
  8
0
 10
40.81818400551107
 20
55.39606237583955
 11
40.68613599143726
 21
55.37420698300071
  0
LINE
  8
0
 10
40.68613599143726
 20
55.37420698300071
 11
38.82901207046747
 21
56.69190667583359
  0
LINE
  8
0
 10
38.82901207046747
 20
56.69190667583359
 11
38.80602831722349
 21
56.82376297376403
  0
LINE
  8
0
 10
38.80602831722349
 20
56.82376297376403
 11
38.850169847665825
 21
57.03435638833067
  0
LINE
  8
0
 10
38.850169847665825
 20
57.03435638833067
 11
39.09099268615233
 21
57.66962470632985
  0
LINE
  8
0
 10
39.09099268615233
 20
57.66962470632985
 11
39.31350962496833
 21
58.33012329462511
  0
LINE
  8
0
 10
39.31350962496833
 20
58.33012329462511
 11
39.537939916514944
 21
59.088982508580536
  0
LINE
  8
0
 10
39.537939916514944
 20
59.088982508580536
 11
39.757201693949376
 21
59.94714262458438
  0
LINE
  8
0
 10
39.757201693949376
 20
59.94714262458438
 11
39.96415020930649
 21
60.905150575135174
  0
LINE
  8
0
 10
39.96415020930649
 20
60.905150575135174
 11
40.14434417703668
 21
61.9222175074454
  0
LINE
  8
0
 10
40.14434417703668
 20
61.9222175074454
 11
39.28944817543967
 21
62.52879856861668
  0
LINE
  8
0
 10
39.28944817543967
 20
62.52879856861668
 11
38.37201204973555
 21
63.035847592450935
  0
LINE
  8
0
 10
38.37201204973555
 20
63.035847592450935
 11
37.53384963962731
 21
62.43220963381223
  0
LINE
  8
0
 10
37.53384963962731
 20
62.43220963381223
 11
36.760505896640765
 21
61.83009139253908
  0
LINE
  8
0
 10
36.760505896640765
 20
61.83009139253908
 11
36.08246446827866
 21
61.26020163725076
  0
LINE
  8
0
 10
36.08246446827866
 20
61.26020163725076
 11
35.49613259545161
 21
60.72874025833846
  0
LINE
  8
0
 10
35.49613259545161
 20
60.72874025833846
 11
34.99759041153397
 21
60.2416798267129
  0
LINE
  8
0
 10
34.99759041153397
 20
60.2416798267129
 11
34.529722547875906
 21
59.74907335340419
  0
LINE
  8
0
 10
34.529722547875906
 20
59.74907335340419
 11
34.359136729848366
 21
59.6179301505449
  0
LINE
  8
0
 10
34.359136729848366
 20
59.6179301505449
 11
34.230366033580296
 21
59.58142749311268
  0
LINE
  8
0
 10
34.230366033580296
 20
59.58142749311268
 11
32.23738376225828
 21
60.68290985998299
  0
LINE
  8
0
 10
32.23738376225828
 20
60.68290985998299
 11
32.19978130471186
 21
60.811363709296934
  0
LINE
  8
0
 10
32.19978130471186
 20
60.811363709296934
 11
32.22006630114302
 21
61.02557524000529
  0
LINE
  8
0
 10
32.22006630114302
 20
61.02557524000529
 11
32.38824741175841
 21
61.68381272710427
  0
LINE
  8
0
 10
32.38824741175841
 20
61.68381272710427
 11
32.53541283236249
 21
62.36507223138916
  0
LINE
  8
0
 10
32.53541283236249
 20
62.36507223138916
 11
32.67346667901557
 21
63.14428811790138
  0
LINE
  8
0
 10
32.67346667901557
 20
63.14428811790138
 11
32.79526633661393
 21
64.02160183325773
  0
LINE
  8
0
 10
32.79526633661393
 20
64.02160183325773
 11
32.893650744857354
 21
64.99675691299718
  0
LINE
  8
0
 10
32.893650744857354
 20
64.99675691299718
 11
32.958836324501874
 21
66.02760406510646
  0
LINE
  8
0
 10
32.958836324501874
 20
66.02760406510646
 11
32.0414001987978
 21
66.53465308894073
  0
LINE
  8
0
 10
32.0414001987978
 20
66.53465308894073
 11
31.072961240576134
 21
66.93579363976654
  0
LINE
  8
0
 10
31.072961240576134
 20
66.93579363976654
 11
30.307655027573077
 21
66.24210681477494
  0
LINE
  8
0
 10
30.307655027573077
 20
66.24210681477494
 11
29.60658976115919
 21
65.55718753959111
  0
LINE
  8
0
 10
29.60658976115919
 20
65.55718753959111
 11
28.996619122869813
 21
64.91496457816513
  0
LINE
  8
0
 10
28.996619122869813
 20
64.91496457816513
 11
28.47347877665106
 21
64.32119657588953
  0
LINE
  8
0
 10
28.47347877665106
 20
64.32119657588953
 11
28.032604787402864
 21
63.78137966358959
  0
LINE
  8
0
 10
28.032604787402864
 20
63.78137966358959
 11
27.62283320437829
 21
63.23948601615024
  0
LINE
  8
0
 10
27.62283320437829
 20
63.23948601615024
 11
27.468003374172344
 21
63.090067862478335
  0
LINE
  8
0
 10
27.468003374172344
 20
63.090067862478335
 11
27.344129361930086
 21
63.03937698254928
  0
LINE
  8
0
 10
27.344129361930086
 20
63.03937698254928
 11
25.240351648672963
 21
63.910790243598655
  0
LINE
  8
0
 10
25.240351648672963
 20
63.910790243598655
 11
25.18860335954521
 21
64.03422626261033
  0
LINE
  8
0
 10
25.18860335954521
 20
64.03422626261033
 11
25.184776726365445
 21
64.24936207517331
  0
LINE
  8
0
 10
25.184776726365445
 20
64.24936207517331
 11
25.278201134062762
 21
64.92229101305354
  0
LINE
  8
0
 10
25.278201134062762
 20
64.92229101305354
 11
25.34816434590346
 21
65.61574419978571
  0
LINE
  8
0
 10
25.34816434590346
 20
65.61574419978571
 11
25.398105640440633
 21
66.40551766697027
  0
LINE
  8
0
 10
25.398105640440633
 20
66.40551766697027
 11
25.42091147683883
 21
67.29095225267923
  0
LINE
  8
0
 10
25.42091147683883
 20
67.29095225267923
 11
25.409494536950927
 21
68.27099132068145
  0
LINE
  8
0
 10
25.409494536950927
 20
68.27099132068145
 11
25.358851982024106
 21
69.30265519154038
  0
LINE
  8
0
 10
25.358851982024106
 20
69.30265519154038
 11
24.390413023802505
 21
69.70379574236622
  0
LINE
  8
0
 10
24.390413023802505
 20
69.70379574236622
 11
23.383149914864372
 21
69.99398324500982
  0
LINE
  8
0
 10
23.383149914864372
 20
69.99398324500982
 11
22.700324068636064
 21
69.21897106797624
  0
LINE
  8
0
 10
22.700324068636064
 20
69.21897106797624
 11
22.080353581287543
 21
68.45986401616658
  0
LINE
  8
0
 10
22.080353581287543
 20
68.45986401616658
 11
21.546124467760585
 21
67.75338417496931
  0
LINE
  8
0
 10
21.546124467760585
 20
67.75338417496931
 11
21.09275444153693
 21
67.10477652647124
  0
LINE
  8
0
 10
21.09275444153693
 20
67.10477652647124
 11
20.71509289317402
 21
66.51899164437818
  0
LINE
  8
0
 10
20.71509289317402
 20
66.51899164437818
 11
20.36857070619448
 21
65.93462544983873
  0
LINE
  8
0
 10
20.36857070619448
 20
65.93462544983873
 11
20.23144393875933
 21
65.76881136533109
  0
LINE
  8
0
 10
20.23144393875933
 20
65.76881136533109
 11
20.114024398120208
 21
65.70456973013184
  0
LINE
  8
0
 10
20.114024398120208
 20
65.70456973013184
 11
17.92590746831245
 21
66.33495535799685
  0
LINE
  8
0
 10
17.92590746831245
 20
66.33495535799685
 11
17.86066411236419
 21
66.45182126714793
  0
LINE
  8
0
 10
17.86066411236419
 20
66.45182126714793
 11
17.832773971706008
 21
66.66517590389786
  0
LINE
  8
0
 10
17.832773971706008
 20
66.66517590389786
 11
17.850266810352363
 21
67.34433382072301
  0
LINE
  8
0
 10
17.850266810352363
 20
67.34433382072301
 11
17.84214798544717
 21
68.04126011372841
  0
LINE
  8
0
 10
17.84214798544717
 20
68.04126011372841
 11
17.803348687113022
 21
68.83165930199819
  0
LINE
  8
0
 10
17.803348687113022
 20
68.83165930199819
 11
17.72687390568608
 21
69.71407990440338
  0
LINE
  8
0
 10
17.72687390568608
 20
69.71407990440338
 11
17.605799192310215
 21
70.68667840075632
  0
LINE
  8
0
 10
17.605799192310215
 20
70.68667840075632
 11
17.43996536232381
 21
71.70618521860365
  0
LINE
  8
0
 10
17.43996536232381
 20
71.70618521860365
 11
16.43270225338568
 21
71.99637272124731
  0
LINE
  8
0
 10
16.43270225338568
 20
71.99637272124731
 11
15.399281911753619
 21
72.17195789949226
  0
LINE
  8
0
 10
15.399281911753619
 20
72.17195789949226
 11
14.807523363501108
 21
71.32536659821524
  0
LINE
  8
0
 10
14.807523363501108
 20
71.32536659821524
 11
14.276444143811613
 21
70.50161798140041
  0
LINE
  8
0
 10
14.276444143811613
 20
70.50161798140041
 11
13.824674796116632
 21
69.73976565434407
  0
LINE
  8
0
 10
13.824674796116632
 20
69.73976565434407
 11
13.446776481019253
 21
69.04447497713433
  0
LINE
  8
0
 10
13.446776481019253
 20
69.04447497713433
 11
13.137076686636632
 21
68.42008871002076
  0
LINE
  8
0
 10
13.137076686636632
 20
68.42008871002076
 11
12.85816161326024
 21
67.80059871233472
  0
LINE
  8
0
 10
12.85816161326024
 20
67.80059871233472
 11
12.740462357259192
 21
67.62047390531161
  0
LINE
  8
0
 10
12.740462357259192
 20
67.62047390531161
 11
12.630973907075145
 21
67.54348939067863
  0
LINE
  8
0
 10
12.630973907075145
 20
67.54348939067863
 11
10.386034600684098
 21
67.92491992033062
  0
LINE
  8
0
 10
10.386034600684098
 20
67.92491992033062
 11
10.308116650971467
 21
68.03374606300636
  0
LINE
  8
0
 10
10.308116650971467
 20
68.03374606300636
 11
10.256513737535872
 21
68.24263646559486
  0
LINE
  8
0
 10
10.256513737535872
 20
68.24263646559486
 11
10.197855024535702
 21
68.91948255650428
  0
LINE
  8
0
 10
10.197855024535702
 20
68.91948255650428
 11
10.11175626181846
 21
69.61111770328229
  0
LINE
  8
0
 10
10.11175626181846
 20
69.61111770328229
 11
9.984704294301423
 21
70.39220288424451
  0
LINE
  8
0
 10
9.984704294301423
 20
70.39220288424451
 11
9.809910609797491
 21
71.26051255227831
  0
LINE
  8
0
 10
9.809910609797491
 20
71.26051255227831
 11
9.58070070770355
 21
72.21343948657555
  0
LINE
  8
0
 10
9.58070070770355
 20
72.21343948657555
 11
9.301761059288673
 21
73.20796836164523
  0
LINE
  8
0
 10
9.301761059288673
 20
73.20796836164523
 11
8.268340717656631
 21
73.3835535398902
  0
LINE
  8
0
 10
8.268340717656631
 20
73.3835535398902
 11
7.2217590037310995
 21
73.44232830824316
  0
LINE
  8
0
 10
7.2217590037310995
 20
73.44232830824316
 11
6.728509460544979
 21
72.53480425954002
  0
LINE
  8
0
 10
6.728509460544979
 20
72.53480425954002
 11
6.2930001378414495
 21
71.65677319452658
  0
LINE
  8
0
 10
6.2930001378414495
 20
71.65677319452658
 11
5.92937181764839
 21
70.84912911666092
  0
LINE
  8
0
 10
5.92937181764839
 20
70.84912911666092
 11
5.631697504251342
 21
70.11589909442245
  0
LINE
  8
0
 10
5.631697504251342
 20
70.11589909442245
 11
5.393854118455376
 21
69.46076346187468
  0
LINE
  8
0
 10
5.393854118455376
 20
69.46076346187468
 11
5.1860536775601425
 21
68.81394010719943
  0
LINE
  8
0
 10
5.1860536775601425
 20
68.81394010719943
 11
5.089262069428103
 21
68.62176975161998
  0
LINE
  8
0
 10
5.089262069428103
 20
68.62176975161998
 11
4.989081590486875
 21
68.53301048249227
  0
LINE
  8
0
 10
4.989081590486875
 20
68.53301048249227
 11
2.7155513218345355
 21
68.6606892037097
  0
LINE
  8
0
 10
2.7155513218345355
 20
68.6606892037097
 11
2.6259386417842125
 21
68.76010702802354
  0
LINE
  8
0
 10
2.6259386417842125
 20
68.76010702802354
 11
2.551271892148367
 21
68.96190627843703
  0
LINE
  8
0
 10
2.551271892148367
 20
68.96190627843703
 11
2.41719929485223
 21
69.62792881112227
  0
LINE
  8
0
 10
2.41719929485223
 20
69.62792881112227
 11
2.2542033362197698
 21
70.30557509840611
  0
LINE
  8
0
 10
2.2542033362197698
 20
70.30557509840611
 11
2.0404964517286386
 21
71.067523672714
  0
LINE
  8
0
 10
2.0404964517286386
 20
71.067523672714
 11
1.7695819961480121
 21
71.9108029084959
  0
LINE
  8
0
 10
1.7695819961480121
 20
71.9108029084959
 11
1.4351193528455055
 21
72.83207467163756
  0
LINE
  8
0
 10
1.4351193528455055
 20
72.83207467163756
 11
1.0465817139255256
 21
73.78911882628645
  0
LINE
  8
0
 10
1.0465817139255256
 20
73.78911882628645
 11
1.7763568394002505e-15
 21
73.84789359463943
  0
LINE
  8
0
 10
1.7763568394002505e-15
 20
73.84789359463943
 11
-1.0465817139255291
 21
73.78911882628647
  0
LINE
  8
0
 10
-1.0465817139255291
 20
73.78911882628647
 11
-1.4351193528496413
 21
72.83207467162738
  0
LINE
  8
0
 10
-1.4351193528496413
 20
72.83207467162738
 11
-1.7695819961458161
 21
71.91080290850334
  0
LINE
  8
0
 10
-1.7695819961458161
 20
71.91080290850334
 11
-2.040496451728461
 21
71.06752367271352
  0
LINE
  8
0
 10
-2.040496451728461
 20
71.06752367271352
 11
-2.2542033362195477
 21
70.30557509840595
  0
LINE
  8
0
 10
-2.2542033362195477
 20
70.30557509840595
 11
-2.4171992948525274
 21
69.62792881112182
  0
LINE
  8
0
 10
-2.4171992948525274
 20
69.62792881112182
 11
-2.5512718921537214
 21
68.96190627843804
  0
LINE
  8
0
 10
-2.5512718921537214
 20
68.96190627843804
 11
-2.6259386417846913
 21
68.76010702802351
  0
LINE
  8
0
 10
-2.6259386417846913
 20
68.76010702802351
 11
-2.7155513218343468
 21
68.66068920370968
  0
LINE
  8
0
 10
-2.7155513218343468
 20
68.66068920370968
 11
-4.989081590486689
 21
68.53301048249232
  0
LINE
  8
0
 10
-4.989081590486689
 20
68.53301048249232
 11
-5.0892620694285835
 21
68.62176975161995
  0
LINE
  8
0
 10
-5.0892620694285835
 20
68.62176975161995
 11
-5.186053677565352
 21
68.81394010719784
  0
LINE
  8
0
 10
-5.186053677565352
 20
68.81394010719784
 11
-5.393854118455724
 21
69.4607634618751
  0
LINE
  8
0
 10
-5.393854118455724
 20
69.4607634618751
 11
-5.6316975042511395
 21
70.11589909442263
  0
LINE
  8
0
 10
-5.6316975042511395
 20
70.11589909442263
 11
-5.929371817648268
 21
70.84912911666143
  0
LINE
  8
0
 10
-5.929371817648268
 20
70.84912911666143
 11
-6.293000137838433
 21
71.65677319451943
  0
LINE
  8
0
 10
-6.293000137838433
 20
71.65677319451943
 11
-6.728509460550229
 21
72.53480425954969
  0
LINE
  8
0
 10
-6.728509460550229
 20
72.53480425954969
 11
-7.221759003731103
 21
73.44232830824318
  0
LINE
  8
0
 10
-7.221759003731103
 20
73.44232830824318
 11
-8.268340717656631
 21
73.3835535398902
  0
LINE
  8
0
 10
-8.268340717656631
 20
73.3835535398902
 11
-9.301761059288696
 21
73.2079683616452
  0
LINE
  8
0
 10
-9.301761059288696
 20
73.2079683616452
 11
-9.580700707706534
 21
72.21343948656497
  0
LINE
  8
0
 10
-9.580700707706534
 20
72.21343948656497
 11
-9.809910609796155
 21
71.26051255228596
  0
LINE
  8
0
 10
-9.809910609796155
 20
71.26051255228596
 11
-9.984704294301206
 21
70.39220288424406
  0
LINE
  8
0
 10
-9.984704294301206
 20
70.39220288424406
 11
-10.111756261818233
 21
69.61111770328215
  0
LINE
  8
0
 10
-10.111756261818233
 20
69.61111770328215
 11
-10.197855024535961
 21
68.91948255650378
  0
LINE
  8
0
 10
-10.197855024535961
 20
68.91948255650378
 11
-10.25651373754132
 21
68.24263646559527
  0
LINE
  8
0
 10
-10.25651373754132
 20
68.24263646559527
 11
-10.308116650971954
 21
68.03374606300628
  0
LINE
  8
0
 10
-10.308116650971954
 20
68.03374606300628
 11
-10.386034600683924
 21
67.92491992033062
  0
LINE
  8
0
 10
-10.386034600683924
 20
67.92491992033062
 11
-12.630973907074978
 21
67.5434893906787
  0
LINE
  8
0
 10
-12.630973907074978
 20
67.5434893906787
 11
-12.74046235725968
 21
67.62047390531153
  0
LINE
  8
0
 10
-12.74046235725968
 20
67.62047390531153
 11
-12.85816161326525
 21
67.80059871233256
  0
LINE
  8
0
 10
-12.85816161326525
 20
67.80059871233256
 11
-13.13707668663704
 21
68.42008871002115
  0
LINE
  8
0
 10
-13.13707668663704
 20
68.42008871002115
 11
-13.446776481019086
 21
69.04447497713454
  0
LINE
  8
0
 10
-13.446776481019086
 20
69.04447497713454
 11
-13.824674796116582
 21
69.7397656543446
  0
LINE
  8
0
 10
-13.824674796116582
 20
69.7397656543446
 11
-14.276444143807831
 21
70.50161798139365
  0
LINE
  8
0
 10
-14.276444143807831
 20
70.50161798139365
 11
-14.80752336350742
 21
71.32536659822425
  0
LINE
  8
0
 10
-14.80752336350742
 20
71.32536659822425
 11
-15.39928191175364
 21
72.17195789949224
  0
LINE
  8
0
 10
-15.39928191175364
 20
72.17195789949224
 11
-16.432702253385695
 21
71.99637272124727
  0
LINE
  8
0
 10
-16.432702253385695
 20
71.99637272124727
 11
-17.43996536232383
 21
71.70618521860372
  0
LINE
  8
0
 10
-17.43996536232383
 20
71.70618521860372
 11
-17.60579919231198
 21
70.68667840074546
  0
LINE
  8
0
 10
-17.60579919231198
 20
70.68667840074546
 11
-17.726873905685594
 21
69.71407990441112
  0
LINE
  8
0
 10
-17.726873905685594
 20
69.71407990441112
 11
-17.80334868711274
 21
68.83165930199775
  0
LINE
  8
0
 10
-17.80334868711274
 20
68.83165930199775
 11
-17.842147985446914
 21
68.0412601137283
  0
LINE
  8
0
 10
-17.842147985446914
 20
68.0412601137283
 11
-17.850266810352544
 21
67.3443338207225
  0
LINE
  8
0
 10
-17.850266810352544
 20
67.3443338207225
 11
-17.83277397171145
 21
66.66517590389765
  0
LINE
  8
0
 10
-17.83277397171145
 20
66.66517590389765
 11
-17.860664112364653
 21
66.45182126714779
  0
LINE
  8
0
 10
-17.860664112364653
 20
66.45182126714779
 11
-17.925907468312257
 21
66.33495535799688
  0
LINE
  8
0
 10
-17.925907468312257
 20
66.33495535799688
 11
-20.114024398120034
 21
65.70456973013191
  0
LINE
  8
0
 10
-20.114024398120034
 20
65.70456973013191
 11
-20.23144393875979
 21
65.76881136533098
  0
LINE
  8
0
 10
-20.23144393875979
 20
65.76881136533098
 11
-20.368570706199193
 21
65.934625449836
  0
LINE
  8
0
 10
-20.368570706199193
 20
65.934625449836
 11
-20.715092893174454
 21
66.51899164437852
  0
LINE
  8
0
 10
-20.715092893174454
 20
66.51899164437852
 11
-21.09275444153677
 21
67.10477652647147
  0
LINE
  8
0
 10
-21.09275444153677
 20
67.10477652647147
 11
-21.546124467760574
 21
67.75338417496982
  0
LINE
  8
0
 10
-21.546124467760574
 20
67.75338417496982
 11
-22.08035358128301
 21
68.45986401616028
  0
LINE
  8
0
 10
-22.08035358128301
 20
68.45986401616028
 11
-22.700324068643326
 21
69.21897106798448
  0
LINE
  8
0
 10
-22.700324068643326
 20
69.21897106798448
 11
-23.38314991486439
 21
69.99398324500991
  0
LINE
  8
0
 10
-23.38314991486439
 20
69.99398324500991
 11
-24.390413023802548
 21
69.70379574236625
  0
LINE
  8
0
 10
-24.390413023802548
 20
69.70379574236625
 11
-25.35885198202417
 21
69.30265519154044
  0
LINE
  8
0
 10
-25.35885198202417
 20
69.30265519154044
 11
-25.40949453695151
 21
68.27099132067046
  0
LINE
  8
0
 10
-25.40949453695151
 20
68.27099132067046
 11
-25.420911476839255
 21
67.29095225268696
  0
LINE
  8
0
 10
-25.420911476839255
 20
67.29095225268696
 11
-25.398105640440345
 21
66.40551766696986
  0
LINE
  8
0
 10
-25.398105640440345
 20
66.40551766696986
 11
-25.348164345903236
 21
65.61574419978562
  0
LINE
  8
0
 10
-25.348164345903236
 20
65.61574419978562
 11
-25.278201134062932
 21
64.922291013053
  0
LINE
  8
0
 10
-25.278201134062932
 20
64.922291013053
 11
-25.184776726370874
 21
64.24936207517248
  0
LINE
  8
0
 10
-25.184776726370874
 20
64.24936207517248
 11
-25.18860335954569
 21
64.03422626261013
  0
LINE
  8
0
 10
-25.18860335954569
 20
64.03422626261013
 11
-25.24035164867282
 21
63.91079024359869
  0
LINE
  8
0
 10
-25.24035164867282
 20
63.91079024359869
 11
-27.344129361929962
 21
63.03937698254936
  0
LINE
  8
0
 10
-27.344129361929962
 20
63.03937698254936
 11
-27.46800337417283
 21
63.09006786247815
  0
LINE
  8
0
 10
-27.46800337417283
 20
63.09006786247815
 11
-27.62283320438271
 21
63.239486016146984
  0
LINE
  8
0
 10
-27.62283320438271
 20
63.239486016146984
 11
-28.032604787403372
 21
63.78137966358986
  0
LINE
  8
0
 10
-28.032604787403372
 20
63.78137966358986
 11
-28.473478776650975
 21
64.32119657588976
  0
LINE
  8
0
 10
-28.473478776650975
 20
64.32119657588976
 11
-28.9966191228699
 21
64.91496457816562
  0
LINE
  8
0
 10
-28.9966191228699
 20
64.91496457816562
 11
-29.606589761154023
 21
65.55718753958533
  0
LINE
  8
0
 10
-29.606589761154023
 20
65.55718753958533
 11
-30.307655027581262
 21
66.2421068147823
  0
LINE
  8
0
 10
-30.307655027581262
 20
66.2421068147823
 11
-31.072961240576156
 21
66.9357936397665
  0
LINE
  8
0
 10
-31.072961240576156
 20
66.9357936397665
 11
-32.041400198797774
 21
66.53465308894063
  0
LINE
  8
0
 10
-32.041400198797774
 20
66.53465308894063
 11
-32.958836324501895
 21
66.02760406510635
  0
LINE
  8
0
 10
-32.958836324501895
 20
66.02760406510635
 11
-32.893650744856714
 21
64.99675691298619
  0
LINE
  8
0
 10
-32.893650744856714
 20
64.99675691298619
 11
-32.795266336615235
 21
64.02160183326536
  0
LINE
  8
0
 10
-32.795266336615235
 20
64.02160183326536
 11
-32.67346667901525
 21
63.144288117901006
  0
LINE
  8
0
 10
-32.67346667901525
 20
63.144288117901006
 11
-32.53541283236226
 21
62.36507223138909
  0
LINE
  8
0
 10
-32.53541283236226
 20
62.36507223138909
 11
-32.38824741175852
 21
61.6838127271037
  0
LINE
  8
0
 10
-32.38824741175852
 20
61.6838127271037
 11
-32.220066301148336
 21
61.02557524000385
  0
LINE
  8
0
 10
-32.220066301148336
 20
61.02557524000385
 11
-32.19978130471233
 21
60.811363709296685
  0
LINE
  8
0
 10
-32.19978130471233
 20
60.811363709296685
 11
-32.23738376225815
 21
60.682909859983035
  0
LINE
  8
0
 10
-32.23738376225815
 20
60.682909859983035
 11
-34.23036603358019
 21
59.58142749311277
  0
LINE
  8
0
 10
-34.23036603358019
 20
59.58142749311277
 11
-34.359136729848835
 21
59.61793015054465
  0
LINE
  8
0
 10
-34.359136729848835
 20
59.61793015054465
 11
-34.52972254787995
 21
59.74907335340047
  0
LINE
  8
0
 10
-34.52972254787995
 20
59.74907335340047
 11
-34.99759041153452
 21
60.24167982671312
  0
LINE
  8
0
 10
-34.99759041153452
 20
60.24167982671312
 11
-35.49613259545156
 21
60.7287402583387
  0
LINE
  8
0
 10
-35.49613259545156
 20
60.7287402583387
 11
-36.082464468278815
 21
61.26020163725125
  0
LINE
  8
0
 10
-36.082464468278815
 20
61.26020163725125
 11
-36.76050589663499
 21
61.83009139253392
  0
LINE
  8
0
 10
-36.76050589663499
 20
61.83009139253392
 11
-37.53384963963629
 21
62.43220963381864
  0
LINE
  8
0
 10
-37.53384963963629
 20
62.43220963381864
 11
-38.372012049735595
 21
63.03584759245091
  0
LINE
  8
0
 10
-38.372012049735595
 20
63.03584759245091
 11
-39.28944817543969
 21
62.52879856861663
  0
LINE
  8
0
 10
-39.28944817543969
 20
62.52879856861663
 11
-40.14434417703669
 21
61.922217507445325
  0
LINE
  8
0
 10
-40.14434417703669
 20
61.922217507445325
 11
-39.96415020930461
 21
60.905150575124324
  0
LINE
  8
0
 10
-39.96415020930461
 20
60.905150575124324
 11
-39.75720169395152
 21
59.94714262459183
  0
LINE
  8
0
 10
-39.75720169395152
 20
59.94714262459183
 11
-39.537939916514574
 21
59.0889825085802
  0
LINE
  8
0
 10
-39.537939916514574
 20
59.0889825085802
 11
-39.313509624968106
 21
58.33012329462507
  0
LINE
  8
0
 10
-39.313509624968106
 20
58.33012329462507
 11
-39.09099268615237
 21
57.66962470632928
  0
LINE
  8
0
 10
-39.09099268615237
 20
57.66962470632928
 11
-38.85016984767093
 21
57.03435638832866
  0
LINE
  8
0
 10
-38.85016984767093
 20
57.03435638832866
 11
-38.806028317223905
 21
56.823762973763735
  0
LINE
  8
0
 10
-38.806028317223905
 20
56.823762973763735
 11
-38.82901207046733
 21
56.691906675833664
  0
LINE
  8
0
 10
-38.82901207046733
 20
56.691906675833664
 11
-40.68613599143715
 21
55.37420698300082
  0
LINE
  8
0
 10
-40.68613599143715
 20
55.37420698300082
 11
-40.8181840055115
 21
55.39606237583925
  0
LINE
  8
0
 10
-40.8181840055115
 20
55.39606237583925
 11
-41.0023805957259
 21
55.507281426015076
  0
LINE
  8
0
 10
-41.0023805957259
 20
55.507281426015076
 11
-41.52246103016566
 21
55.94440591297864
  0
LINE
  8
0
 10
-41.52246103016566
 20
55.94440591297864
 11
-42.07240195152848
 21
56.37258479640319
  0
LINE
  8
0
 10
-42.07240195152848
 20
56.37258479640319
 11
-42.714551887465575
 21
56.83505611675152
  0
LINE
  8
0
 10
-42.714551887465575
 20
56.83505611675152
 11
-43.45213734152343
 21
57.32544597156675
  0
LINE
  8
0
 10
-43.45213734152343
 20
57.32544597156675
 11
-44.28803431482605
 21
57.8371911926979
  0
LINE
  8
0
 10
-44.28803431482605
 20
57.8371911926979
 11
-45.1885125434096
 21
58.34318918740956
  0
LINE
  8
0
 10
-45.1885125434096
 20
58.34318918740956
 11
-46.04340854500659
 21
57.736608126238295
  0
LINE
  8
0
 10
-46.04340854500659
 20
57.736608126238295
 11
-46.825013609254235
 21
57.03812313652079
  0
LINE
  8
0
 10
-46.825013609254235
 20
57.03812313652079
 11
-46.53207729713043
 21
56.04762663078882
  0
LINE
  8
0
 10
-46.53207729713043
 20
56.04762663078882
 11
-46.219167172320596
 21
55.11881331527174
  0
LINE
  8
0
 10
-46.219167172320596
 20
55.11881331527174
 11
-45.90520061911662
 21
54.29059865998779
  0
LINE
  8
0
 10
-45.90520061911662
 20
54.29059865998779
 11
-45.597216223810335
 21
53.561639213505295
  0
LINE
  8
0
 10
-45.597216223810335
 20
53.561639213505295
 11
-45.30214604639556
 21
52.930207694177135
  0
LINE
  8
0
 10
-45.30214604639556
 20
52.930207694177135
 11
-44.991709966965445
 21
52.325897412965865
  0
LINE
  8
0
 10
-44.991709966965445
 20
52.325897412965865
 11
-44.924267007864294
 21
52.121570448920494
  0
LINE
  8
0
 10
-44.924267007864294
 20
52.121570448920494
 11
-44.93234302277279
 21
51.98796987182527
  0
LINE
  8
0
 10
-44.93234302277279
 20
51.98796987182527
 11
-46.6302541825558
 21
50.47062369121439
  0
LINE
  8
0
 10
-46.6302541825558
 20
50.47062369121439
 11
-46.76391893404281
 21
50.477556975213645
  0
LINE
  8
0
 10
-46.76391893404281
 20
50.477556975213645
 11
-46.95940991744522
 21
50.56745322862271
  0
LINE
  8
0
 10
-46.95940991744522
 20
50.56745322862271
 11
-47.52516260944939
 21
50.9435986351881
  0
LINE
  8
0
 10
-47.52516260944939
 20
50.9435986351881
 11
-48.11958644208869
 21
51.307511372517375
  0
LINE
  8
0
 10
-48.11958644208869
 20
51.307511372517375
 11
-48.80947903310715
 21
51.69517678911598
  0
LINE
  8
0
 10
-48.80947903310715
 20
51.69517678911598
 11
-49.59733294782486
 21
52.099899806508645
  0
LINE
  8
0
 10
-49.59733294782486
 20
52.099899806508645
 11
-50.485271261990796
 21
52.51483651440902
  0
LINE
  8
0
 10
-50.485271261990796
 20
52.51483651440902
 11
-51.43674127286455
 21
52.91683132682972
  0
LINE
  8
0
 10
-51.43674127286455
 20
52.91683132682972
 11
-52.21834633711221
 21
52.21834633711219
  0
LINE
  8
0
 10
-52.21834633711221
 20
52.21834633711219
 11
-52.91683132682971
 21
51.4367412728645
  0
LINE
  8
0
 10
-52.91683132682971
 20
51.4367412728645
 11
-52.514836514404756
 21
50.48527126198066
  0
LINE
  8
0
 10
-52.514836514404756
 20
50.48527126198066
 11
-52.09989980651236
 21
49.59733294783167
  0
LINE
  8
0
 10
-52.09989980651236
 20
49.59733294783167
 11
-51.69517678911552
 21
48.809479033106925
  0
LINE
  8
0
 10
-51.69517678911552
 20
48.809479033106925
 11
-51.30751137251711
 21
48.11958644208872
  0
LINE
  8
0
 10
-51.30751137251711
 20
48.11958644208872
 11
-50.943598635187996
 21
47.525162609448834
  0
LINE
  8
0
 10
-50.943598635187996
 20
47.525162609448834
 11
-50.56745322862723
 21
46.95940991744213
  0
LINE
  8
0
 10
-50.56745322862723
 20
46.95940991744213
 11
-50.47755697521397
 21
46.763918934042444
  0
LINE
  8
0
 10
-50.47755697521397
 20
46.763918934042444
 11
-50.47062369121426
 21
46.6302541825559
  0
LINE
  8
0
 10
-50.47062369121426
 20
46.6302541825559
 11
-51.98796987182518
 21
44.93234302277294
  0
LINE
  8
0
 10
-51.98796987182518
 20
44.93234302277294
 11
-52.12157044892083
 21
44.924267007863925
  0
LINE
  8
0
 10
-52.12157044892083
 20
44.924267007863925
 11
-52.32589741296843
 21
44.991709966960606
  0
LINE
  8
0
 10
-52.32589741296843
 20
44.991709966960606
 11
-52.9302076941777
 21
45.302146046395606
  0
LINE
  8
0
 10
-52.9302076941777
 20
45.302146046395606
 11
-53.56163921350531
 21
45.5972162238106
  0
LINE
  8
0
 10
-53.56163921350531
 20
45.5972162238106
 11
-54.29059865998807
 21
45.905200619117046
  0
LINE
  8
0
 10
-54.29059865998807
 20
45.905200619117046
 11
-55.11881331526456
 21
46.21916717231766
  0
LINE
  8
0
 10
-55.11881331526456
 20
46.21916717231766
 11
-56.04762663079937
 21
46.532077297133526
  0
LINE
  8
0
 10
-56.04762663079937
 20
46.532077297133526
 11
-57.03812313652078
 21
46.825013609254206
  0
LINE
  8
0
 10
-57.03812313652078
 20
46.825013609254206
 11
-57.7366081262383
 21
46.04340854500657
  0
LINE
  8
0
 10
-57.7366081262383
 20
46.04340854500657
 11
-58.34318918740956
 21
45.18851254340954
  0
LINE
  8
0
 10
-58.34318918740956
 20
45.18851254340954
 11
-57.83719119269255
 21
44.28803431481642
  0
LINE
  8
0
 10
-57.83719119269255
 20
44.28803431481642
 11
-57.32544597157123
 21
43.45213734152974
  0
LINE
  8
0
 10
-57.32544597157123
 20
43.45213734152974
 11
-56.83505611675106
 21
42.71455188746537
  0
LINE
  8
0
 10
-56.83505611675106
 20
42.71455188746537
 11
-56.372584796402954
 21
42.072401951528505
  0
LINE
  8
0
 10
-56.372584796402954
 20
42.072401951528505
 11
-55.944405912978496
 21
41.52246103016509
  0
LINE
  8
0
 10
-55.944405912978496
 20
41.52246103016509
 11
-55.50728142601923
 21
41.0023805957223
  0
LINE
  8
0
 10
-55.50728142601923
 20
41.0023805957223
 11
-55.39606237583956
 21
40.81818400551106
  0
LINE
  8
0
 10
-55.39606237583956
 20
40.81818400551106
 11
-55.37420698300072
 21
40.68613599143725
  0
LINE
  8
0
 10
-55.37420698300072
 20
40.68613599143725
 11
-56.6919066758336
 21
38.829012070467456
  0
LINE
  8
0
 10
-56.6919066758336
 20
38.829012070467456
 11
-56.82376297376404
 21
38.80602831722348
  0
LINE
  8
0
 10
-56.82376297376404
 20
38.80602831722348
 11
-57.03435638833068
 21
38.85016984766581
  0
LINE
  8
0
 10
-57.03435638833068
 20
38.85016984766581
 11
-57.669624706329856
 21
39.09099268615232
  0
LINE
  8
0
 10
-57.669624706329856
 20
39.09099268615232
 11
-58.33012329462512
 21
39.31350962496832
  0
LINE
  8
0
 10
-58.33012329462512
 20
39.31350962496832
 11
-59.08898250858054
 21
39.53793991651492
  0
LINE
  8
0
 10
-59.08898250858054
 20
39.53793991651492
 11
-59.94714262458439
 21
39.75720169394936
  0
LINE
  8
0
 10
-59.94714262458439
 20
39.75720169394936
 11
-60.90515057513518
 21
39.964150209306474
  0
LINE
  8
0
 10
-60.90515057513518
 20
39.964150209306474
 11
-61.922217507445374
 21
40.14434417703665
  0
LINE
  8
0
 10
-61.922217507445374
 20
40.14434417703665
 11
-62.52879856861664
 21
39.28944817543968
  0
LINE
  8
0
 10
-62.52879856861664
 20
39.28944817543968
 11
-63.035847592450956
 21
38.37201204973558
  0
LINE
  8
0
 10
-63.035847592450956
 20
38.37201204973558
 11
-62.432209633812214
 21
37.533849639627334
  0
LINE
  8
0
 10
-62.432209633812214
 20
37.533849639627334
 11
-61.83009139253905
 21
36.76050589664078
  0
LINE
  8
0
 10
-61.83009139253905
 20
36.76050589664078
 11
-61.260201637250745
 21
36.08246446827867
  0
LINE
  8
0
 10
-61.260201637250745
 20
36.08246446827867
 11
-60.72874025833844
 21
35.49613259545163
  0
LINE
  8
0
 10
-60.72874025833844
 20
35.49613259545163
 11
-60.24167982671288
 21
34.99759041153399
  0
LINE
  8
0
 10
-60.24167982671288
 20
34.99759041153399
 11
-59.74907335340418
 21
34.52972254787593
  0
LINE
  8
0
 10
-59.74907335340418
 20
34.52972254787593
 11
-59.617930150544886
 21
34.35913672984838
  0
LINE
  8
0
 10
-59.617930150544886
 20
34.35913672984838
 11
-59.581427493112656
 21
34.23036603358032
  0
LINE
  8
0
 10
-59.581427493112656
 20
34.23036603358032
 11
-60.68290985998298
 21
32.2373837622583
  0
LINE
  8
0
 10
-60.68290985998298
 20
32.2373837622583
 11
-60.81136370929692
 21
32.19978130471188
  0
LINE
  8
0
 10
-60.81136370929692
 20
32.19978130471188
 11
-61.025575240005274
 21
32.22006630114304
  0
LINE
  8
0
 10
-61.025575240005274
 20
32.22006630114304
 11
-61.683812727104254
 21
32.38824741175843
  0
LINE
  8
0
 10
-61.683812727104254
 20
32.38824741175843
 11
-62.36507223138914
 21
32.53541283236251
  0
LINE
  8
0
 10
-62.36507223138914
 20
32.53541283236251
 11
-63.14428811790137
 21
32.67346667901558
  0
LINE
  8
0
 10
-63.14428811790137
 20
32.67346667901558
 11
-64.02160183325772
 21
32.79526633661395
  0
LINE
  8
0
 10
-64.02160183325772
 20
32.79526633661395
 11
-64.99675691299716
 21
32.893650744857375
  0
LINE
  8
0
 10
-64.99675691299716
 20
32.893650744857375
 11
-66.02760406510633
 21
32.958836324501824
  0
LINE
  8
0
 10
-66.02760406510633
 20
32.958836324501824
 11
-66.53465308894062
 21
32.04140019879769
  0
LINE
  8
0
 10
-66.53465308894062
 20
32.04140019879769
 11
-66.9357936397665
 21
31.072961240576095
  0
LINE
  8
0
 10
-66.9357936397665
 20
31.072961240576095
 11
-66.24210681477496
 21
30.307655027573063
  0
LINE
  8
0
 10
-66.24210681477496
 20
30.307655027573063
 11
-65.55718753959111
 21
29.60658976115918
  0
LINE
  8
0
 10
-65.55718753959111
 20
29.60658976115918
 11
-64.91496457816514
 21
28.9966191228698
  0
LINE
  8
0
 10
-64.91496457816514
 20
28.9966191228698
 11
-64.32119657588953
 21
28.473478776651046
  0
LINE
  8
0
 10
-64.32119657588953
 20
28.473478776651046
 11
-63.781379663589604
 21
28.032604787402853
  0
LINE
  8
0
 10
-63.781379663589604
 20
28.032604787402853
 11
-63.23948601615024
 21
27.622833204378274
  0
LINE
  8
0
 10
-63.23948601615024
 20
27.622833204378274
 11
-63.09006786247836
 21
27.46800337417233
  0
LINE
  8
0
 10
-63.09006786247836
 20
27.46800337417233
 11
-63.03937698254928
 21
27.344129361930076
  0
LINE
  8
0
 10
-63.03937698254928
 20
27.344129361930076
 11
-63.91079024359867
 21
25.24035164867295
  0
LINE
  8
0
 10
-63.91079024359867
 20
25.24035164867295
 11
-64.03422626261035
 21
25.188603359545198
  0
LINE
  8
0
 10
-64.03422626261035
 20
25.188603359545198
 11
-64.24936207517332
 21
25.184776726365435
  0
LINE
  8
0
 10
-64.24936207517332
 20
25.184776726365435
 11
-64.92229101305355
 21
25.27820113406275
  0
LINE
  8
0
 10
-64.92229101305355
 20
25.27820113406275
 11
-65.61574419978572
 21
25.34816434590345
  0
LINE
  8
0
 10
-65.61574419978572
 20
25.34816434590345
 11
-66.40551766697027
 21
25.39810564044062
  0
LINE
  8
0
 10
-66.40551766697027
 20
25.39810564044062
 11
-67.29095225267925
 21
25.420911476838814
  0
LINE
  8
0
 10
-67.29095225267925
 20
25.420911476838814
 11
-68.27099132068145
 21
25.409494536950916
  0
LINE
  8
0
 10
-68.27099132068145
 20
25.409494536950916
 11
-69.3026551915404
 21
25.358851982024085
  0
LINE
  8
0
 10
-69.3026551915404
 20
25.358851982024085
 11
-69.70379574236625
 21
24.390413023802477
  0
LINE
  8
0
 10
-69.70379574236625
 20
24.390413023802477
 11
-69.99398324500996
 21
23.38314991486438
  0
LINE
  8
0
 10
-69.99398324500996
 20
23.38314991486438
 11
-69.21897106797626
 21
22.700324068636036
  0
LINE
  8
0
 10
-69.21897106797626
 20
22.700324068636036
 11
-68.45986401616658
 21
22.080353581287515
  0
LINE
  8
0
 10
-68.45986401616658
 20
22.080353581287515
 11
-67.75338417496931
 21
21.54612446776056
  0
LINE
  8
0
 10
-67.75338417496931
 20
21.54612446776056
 11
-67.10477652647124
 21
21.092754441536904
  0
LINE
  8
0
 10
-67.10477652647124
 20
21.092754441536904
 11
-66.51899164437819
 21
20.715092893174
  0
LINE
  8
0
 10
-66.51899164437819
 20
20.715092893174
 11
-65.93462544983873
 21
20.36857070619445
  0
LINE
  8
0
 10
-65.93462544983873
 20
20.36857070619445
 11
-65.76881136533112
 21
20.231443938759305
  0
LINE
  8
0
 10
-65.76881136533112
 20
20.231443938759305
 11
-65.70456973013184
 21
20.114024398120183
  0
LINE
  8
0
 10
-65.70456973013184
 20
20.114024398120183
 11
-66.33495535799685
 21
17.925907468312424
  0
LINE
  8
0
 10
-66.33495535799685
 20
17.925907468312424
 11
-66.45182126714793
 21
17.860664112364166
  0
LINE
  8
0
 10
-66.45182126714793
 20
17.860664112364166
 11
-66.66517590389786
 21
17.832773971705983
  0
LINE
  8
0
 10
-66.66517590389786
 20
17.832773971705983
 11
-67.34433382072304
 21
17.850266810352334
  0
LINE
  8
0
 10
-67.34433382072304
 20
17.850266810352334
 11
-68.04126011372843
 21
17.842147985447145
  0
LINE
  8
0
 10
-68.04126011372843
 20
17.842147985447145
 11
-68.83165930199819
 21
17.803348687112997
  0
LINE
  8
0
 10
-68.83165930199819
 20
17.803348687112997
 11
-69.71407990440339
 21
17.72687390568606
  0
LINE
  8
0
 10
-69.71407990440339
 20
17.72687390568606
 11
-70.68667840075632
 21
17.60579919231019
  0
LINE
  8
0
 10
-70.68667840075632
 20
17.60579919231019
 11
-71.70618521860371
 21
17.4399653623238
  0
LINE
  8
0
 10
-71.70618521860371
 20
17.4399653623238
 11
-71.99637272124734
 21
16.432702253385713
  0
LINE
  8
0
 10
-71.99637272124734
 20
16.432702253385713
 11
-72.17195789949228
 21
15.399281911753645
  0
LINE
  8
0
 10
-72.17195789949228
 20
15.399281911753645
 11
-71.32536659821524
 21
14.80752336350113
  0
LINE
  8
0
 10
-71.32536659821524
 20
14.80752336350113
 11
-70.50161798140041
 21
14.276444143811634
  0
LINE
  8
0
 10
-70.50161798140041
 20
14.276444143811634
 11
-69.73976565434407
 21
13.824674796116653
  0
LINE
  8
0
 10
-69.73976565434407
 20
13.824674796116653
 11
-69.04447497713433
 21
13.446776481019272
  0
LINE
  8
0
 10
-69.04447497713433
 20
13.446776481019272
 11
-68.42008871002076
 21
13.137076686636652
  0
LINE
  8
0
 10
-68.42008871002076
 20
13.137076686636652
 11
-67.80059871233472
 21
12.858161613260261
  0
LINE
  8
0
 10
-67.80059871233472
 20
12.858161613260261
 11
-67.62047390531161
 21
12.740462357259212
  0
LINE
  8
0
 10
-67.62047390531161
 20
12.740462357259212
 11
-67.54348939067863
 21
12.630973907075163
  0
LINE
  8
0
 10
-67.54348939067863
 20
12.630973907075163
 11
-67.92491992033062
 21
10.38603460068412
  0
LINE
  8
0
 10
-67.92491992033062
 20
10.38603460068412
 11
-68.03374606300636
 21
10.308116650971488
  0
LINE
  8
0
 10
-68.03374606300636
 20
10.308116650971488
 11
-68.24263646559486
 21
10.256513737535892
  0
LINE
  8
0
 10
-68.24263646559486
 20
10.256513737535892
 11
-68.91948255650428
 21
10.197855024535723
  0
LINE
  8
0
 10
-68.91948255650428
 20
10.197855024535723
 11
-69.61111770328229
 21
10.11175626181848
  0
LINE
  8
0
 10
-69.61111770328229
 20
10.11175626181848
 11
-70.39220288424451
 21
9.984704294301443
  0
LINE
  8
0
 10
-70.39220288424451
 20
9.984704294301443
 11
-71.26051255227831
 21
9.80991060979751
  0
LINE
  8
0
 10
-71.26051255227831
 20
9.80991060979751
 11
-72.21343948657555
 21
9.58070070770357
  0
LINE
  8
0
 10
-72.21343948657555
 20
9.58070070770357
 11
-73.20796836164524
 21
9.301761059288694
  0
LINE
  8
0
 10
-73.20796836164524
 20
9.301761059288694
 11
-73.38355353989022
 21
8.268340717656638
  0
LINE
  8
0
 10
-73.38355353989022
 20
8.268340717656638
 11
-73.44232830824316
 21
7.221759003731107
  0
LINE
  8
0
 10
-73.44232830824316
 20
7.221759003731107
 11
-72.53480425954002
 21
6.728509460544983
  0
LINE
  8
0
 10
-72.53480425954002
 20
6.728509460544983
 11
-71.65677319452658
 21
6.293000137841454
  0
LINE
  8
0
 10
-71.65677319452658
 20
6.293000137841454
 11
-70.84912911666092
 21
5.929371817648394
  0
LINE
  8
0
 10
-70.84912911666092
 20
5.929371817648394
 11
-70.11589909442245
 21
5.631697504251346
  0
LINE
  8
0
 10
-70.11589909442245
 20
5.631697504251346
 11
-69.46076346187468
 21
5.393854118455381
  0
LINE
  8
0
 10
-69.46076346187468
 20
5.393854118455381
 11
-68.81394010719943
 21
5.186053677560146
  0
LINE
  8
0
 10
-68.81394010719943
 20
5.186053677560146
 11
-68.62176975161998
 21
5.0892620694281065
  0
LINE
  8
0
 10
-68.62176975161998
 20
5.0892620694281065
 11
-68.53301048249227
 21
4.989081590486879
  0
LINE
  8
0
 10
-68.53301048249227
 20
4.989081590486879
 11
-68.6606892037097
 21
2.71555132183454
  0
LINE
  8
0
 10
-68.6606892037097
 20
2.71555132183454
 11
-68.76010702802354
 21
2.625938641784217
  0
LINE
  8
0
 10
-68.76010702802354
 20
2.625938641784217
 11
-68.96190627843703
 21
2.551271892148371
  0
LINE
  8
0
 10
-68.96190627843703
 20
2.551271892148371
 11
-69.62792881112227
 21
2.417199294852234
  0
LINE
  8
0
 10
-69.62792881112227
 20
2.417199294852234
 11
-70.30557509840611
 21
2.2542033362197738
  0
LINE
  8
0
 10
-70.30557509840611
 20
2.2542033362197738
 11
-71.067523672714
 21
2.040496451728643
  0
LINE
  8
0
 10
-71.067523672714
 20
2.040496451728643
 11
-71.9108029084959
 21
1.7695819961480166
  0
LINE
  8
0
 10
-71.9108029084959
 20
1.7695819961480166
 11
-72.83207467163756
 21
1.43511935284551
  0
LINE
  8
0
 10
-72.83207467163756
 20
1.43511935284551
 11
-73.78911882628645
 21
1.0465817139255318
  0
LINE
  8
0
 10
-73.78911882628645
 20
1.0465817139255318
 11
-73.84789359463943
 21
7.993605777301127e-15
  0
LINE
  8
0
 10
-73.84789359463943
 20
7.993605777301127e-15
 11
-73.78911882628645
 21
-1.046581713925523
  0
LINE
  8
0
 10
-73.78911882628645
 20
-1.046581713925523
 11
-72.83207467162738
 21
-1.435119352849636
  0
LINE
  8
0
 10
-72.83207467162738
 20
-1.435119352849636
 11
-71.91080290850334
 21
-1.7695819961458108
  0
LINE
  8
0
 10
-71.91080290850334
 20
-1.7695819961458108
 11
-71.06752367271352
 21
-2.0404964517284556
  0
LINE
  8
0
 10
-71.06752367271352
 20
-2.0404964517284556
 11
-70.30557509840595
 21
-2.2542033362195424
  0
LINE
  8
0
 10
-70.30557509840595
 20
-2.2542033362195424
 11
-69.62792881112182
 21
-2.417199294852522
  0
LINE
  8
0
 10
-69.62792881112182
 20
-2.417199294852522
 11
-68.96190627843804
 21
-2.551271892153717
  0
LINE
  8
0
 10
-68.96190627843804
 20
-2.551271892153717
 11
-68.76010702802351
 21
-2.625938641784687
  0
LINE
  8
0
 10
-68.76010702802351
 20
-2.625938641784687
 11
-68.66068920370968
 21
-2.7155513218343423
  0
LINE
  8
0
 10
-68.66068920370968
 20
-2.7155513218343423
 11
-68.53301048249232
 21
-4.989081590486685
  0
LINE
  8
0
 10
-68.53301048249232
 20
-4.989081590486685
 11
-68.62176975161995
 21
-5.089262069428578
  0
LINE
  8
0
 10
-68.62176975161995
 20
-5.089262069428578
 11
-68.81394010719784
 21
-5.186053677565346
  0
LINE
  8
0
 10
-68.81394010719784
 20
-5.186053677565346
 11
-69.4607634618751
 21
-5.393854118455718
  0
LINE
  8
0
 10
-69.4607634618751
 20
-5.393854118455718
 11
-70.11589909442263
 21
-5.631697504251135
  0
LINE
  8
0
 10
-70.11589909442263
 20
-5.631697504251135
 11
-70.84912911666143
 21
-5.929371817648263
  0
LINE
  8
0
 10
-70.84912911666143
 20
-5.929371817648263
 11
-71.65677319451943
 21
-6.293000137838428
  0
LINE
  8
0
 10
-71.65677319451943
 20
-6.293000137838428
 11
-72.53480425954969
 21
-6.728509460550224
  0
LINE
  8
0
 10
-72.53480425954969
 20
-6.728509460550224
 11
-73.44232830824316
 21
-7.221759003731096
  0
LINE
  8
0
 10
-73.44232830824316
 20
-7.221759003731096
 11
-73.38355353989019
 21
-8.268340717656626
  0
LINE
  8
0
 10
-73.38355353989019
 20
-8.268340717656626
 11
-73.20796836164516
 21
-9.301761059288678
  0
LINE
  8
0
 10
-73.20796836164516
 20
-9.301761059288678
 11
-72.21343948656497
 21
-9.580700707706526
  0
LINE
  8
0
 10
-72.21343948656497
 20
-9.580700707706526
 11
-71.26051255228596
 21
-9.809910609796152
  0
LINE
  8
0
 10
-71.26051255228596
 20
-9.809910609796152
 11
-70.39220288424406
 21
-9.984704294301201
  0
LINE
  8
0
 10
-70.39220288424406
 20
-9.984704294301201
 11
-69.61111770328215
 21
-10.111756261818229
  0
LINE
  8
0
 10
-69.61111770328215
 20
-10.111756261818229
 11
-68.91948255650378
 21
-10.197855024535958
  0
LINE
  8
0
 10
-68.91948255650378
 20
-10.197855024535958
 11
-68.24263646559527
 21
-10.256513737541315
  0
LINE
  8
0
 10
-68.24263646559527
 20
-10.256513737541315
 11
-68.03374606300626
 21
-10.30811665097195
  0
LINE
  8
0
 10
-68.03374606300626
 20
-10.30811665097195
 11
-67.92491992033062
 21
-10.38603460068392
  0
LINE
  8
0
 10
-67.92491992033062
 20
-10.38603460068392
 11
-67.5434893906787
 21
-12.630973907074974
  0
LINE
  8
0
 10
-67.5434893906787
 20
-12.630973907074974
 11
-67.62047390531153
 21
-12.740462357259677
  0
LINE
  8
0
 10
-67.62047390531153
 20
-12.740462357259677
 11
-67.80059871233256
 21
-12.858161613265246
  0
LINE
  8
0
 10
-67.80059871233256
 20
-12.858161613265246
 11
-68.42008871002115
 21
-13.137076686637034
  0
LINE
  8
0
 10
-68.42008871002115
 20
-13.137076686637034
 11
-69.04447497713454
 21
-13.44677648101908
  0
LINE
  8
0
 10
-69.04447497713454
 20
-13.44677648101908
 11
-69.7397656543446
 21
-13.824674796116579
  0
LINE
  8
0
 10
-69.7397656543446
 20
-13.824674796116579
 11
-70.50161798139365
 21
-14.276444143807828
  0
LINE
  8
0
 10
-70.50161798139365
 20
-14.276444143807828
 11
-71.32536659822425
 21
-14.807523363507416
  0
LINE
  8
0
 10
-71.32536659822425
 20
-14.807523363507416
 11
-72.17195789949226
 21
-15.399281911753636
  0
LINE
  8
0
 10
-72.17195789949226
 20
-15.399281911753636
 11
-71.99637272124728
 21
-16.43270225338576
  0
LINE
  8
0
 10
-71.99637272124728
 20
-16.43270225338576
 11
-71.7061852186036
 21
-17.439965362323868
  0
LINE
  8
0
 10
-71.7061852186036
 20
-17.439965362323868
 11
-70.68667840074545
 21
-17.605799192312045
  0
LINE
  8
0
 10
-70.68667840074545
 20
-17.605799192312045
 11
-69.71407990441111
 21
-17.726873905685654
  0
LINE
  8
0
 10
-69.71407990441111
 20
-17.726873905685654
 11
-68.83165930199775
 21
-17.8033486871128
  0
LINE
  8
0
 10
-68.83165930199775
 20
-17.8033486871128
 11
-68.0412601137283
 21
-17.84214798544697
  0
LINE
  8
0
 10
-68.0412601137283
 20
-17.84214798544697
 11
-67.34433382072248
 21
-17.850266810352604
  0
LINE
  8
0
 10
-67.34433382072248
 20
-17.850266810352604
 11
-66.66517590389765
 21
-17.832773971711507
  0
LINE
  8
0
 10
-66.66517590389765
 20
-17.832773971711507
 11
-66.45182126714778
 21
-17.86066411236471
  0
LINE
  8
0
 10
-66.45182126714778
 20
-17.86066411236471
 11
-66.33495535799686
 21
-17.925907468312317
  0
LINE
  8
0
 10
-66.33495535799686
 20
-17.925907468312317
 11
-65.7045697301319
 21
-20.11402439812009
  0
LINE
  8
0
 10
-65.7045697301319
 20
-20.11402439812009
 11
-65.76881136533096
 21
-20.23144393875985
  0
LINE
  8
0
 10
-65.76881136533096
 20
-20.23144393875985
 11
-65.93462544983599
 21
-20.36857070619925
  0
LINE
  8
0
 10
-65.93462544983599
 20
-20.36857070619925
 11
-66.5189916443785
 21
-20.71509289317451
  0
LINE
  8
0
 10
-66.5189916443785
 20
-20.71509289317451
 11
-67.10477652647145
 21
-21.09275444153683
  0
LINE
  8
0
 10
-67.10477652647145
 20
-21.09275444153683
 11
-67.75338417496981
 21
-21.54612446776063
  0
LINE
  8
0
 10
-67.75338417496981
 20
-21.54612446776063
 11
-68.45986401616025
 21
-22.08035358128307
  0
LINE
  8
0
 10
-68.45986401616025
 20
-22.08035358128307
 11
-69.21897106798447
 21
-22.700324068643386
  0
LINE
  8
0
 10
-69.21897106798447
 20
-22.700324068643386
 11
-69.99398324500979
 21
-23.383149914864422
  0
LINE
  8
0
 10
-69.99398324500979
 20
-23.383149914864422
 11
-69.70379574236615
 21
-24.390413023802466
  0
LINE
  8
0
 10
-69.70379574236615
 20
-24.390413023802466
 11
-69.30265519154038
 21
-25.358851982024106
  0
LINE
  8
0
 10
-69.30265519154038
 20
-25.358851982024106
 11
-68.27099132067046
 21
-25.409494536951474
  0
LINE
  8
0
 10
-68.27099132067046
 20
-25.409494536951474
 11
-67.29095225268698
 21
-25.42091147683922
  0
LINE
  8
0
 10
-67.29095225268698
 20
-25.42091147683922
 11
-66.40551766696986
 21
-25.398105640440313
  0
LINE
  8
0
 10
-66.40551766696986
 20
-25.398105640440313
 11
-65.61574419978564
 21
-25.348164345903204
  0
LINE
  8
0
 10
-65.61574419978564
 20
-25.348164345903204
 11
-64.92229101305301
 21
-25.2782011340629
  0
LINE
  8
0
 10
-64.92229101305301
 20
-25.2782011340629
 11
-64.2493620751725
 21
-25.184776726370842
  0
LINE
  8
0
 10
-64.2493620751725
 20
-25.184776726370842
 11
-64.03422626261015
 21
-25.18860335954566
  0
LINE
  8
0
 10
-64.03422626261015
 20
-25.18860335954566
 11
-63.910790243598704
 21
-25.24035164867279
  0
LINE
  8
0
 10
-63.910790243598704
 20
-25.24035164867279
 11
-63.03937698254937
 21
-27.344129361929934
  0
LINE
  8
0
 10
-63.03937698254937
 20
-27.344129361929934
 11
-63.090067862478165
 21
-27.4680033741728
  0
LINE
  8
0
 10
-63.090067862478165
 20
-27.4680033741728
 11
-63.239486016147
 21
-27.622833204382683
  0
LINE
  8
0
 10
-63.239486016147
 20
-27.622833204382683
 11
-63.78137966358988
 21
-28.032604787403343
  0
LINE
  8
0
 10
-63.78137966358988
 20
-28.032604787403343
 11
-64.32119657588977
 21
-28.47347877665094
  0
LINE
  8
0
 10
-64.32119657588977
 20
-28.47347877665094
 11
-64.91496457816564
 21
-28.99661912286987
  0
LINE
  8
0
 10
-64.91496457816564
 20
-28.99661912286987
 11
-65.55718753958534
 21
-29.60658976115399
  0
LINE
  8
0
 10
-65.55718753958534
 20
-29.60658976115399
 11
-66.24210681478232
 21
-30.30765502758123
  0
LINE
  8
0
 10
-66.24210681478232
 20
-30.30765502758123
 11
-66.93579363976647
 21
-31.07296124057612
  0
LINE
  8
0
 10
-66.93579363976647
 20
-31.07296124057612
 11
-66.53465308894062
 21
-32.041400198797724
  0
LINE
  8
0
 10
-66.53465308894062
 20
-32.041400198797724
 11
-66.02760406510637
 21
-32.958836324501846
  0
LINE
  8
0
 10
-66.02760406510637
 20
-32.958836324501846
 11
-64.9967569129862
 21
-32.89365074485668
  0
LINE
  8
0
 10
-64.9967569129862
 20
-32.89365074485668
 11
-64.0216018332654
 21
-32.7952663366152
  0
LINE
  8
0
 10
-64.0216018332654
 20
-32.7952663366152
 11
-63.14428811790102
 21
-32.67346667901521
  0
LINE
  8
0
 10
-63.14428811790102
 20
-32.67346667901521
 11
-62.36507223138911
 21
-32.53541283236223
  0
LINE
  8
0
 10
-62.36507223138911
 20
-32.53541283236223
 11
-61.683812727103714
 21
-32.38824741175849
  0
LINE
  8
0
 10
-61.683812727103714
 20
-32.38824741175849
 11
-61.02557524000387
 21
-32.2200663011483
  0
LINE
  8
0
 10
-61.02557524000387
 20
-32.2200663011483
 11
-60.8113637092967
 21
-32.199781304712296
  0
LINE
  8
0
 10
-60.8113637092967
 20
-32.199781304712296
 11
-60.68290985998305
 21
-32.23738376225812
  0
LINE
  8
0
 10
-60.68290985998305
 20
-32.23738376225812
 11
-59.581427493112784
 21
-34.23036603358016
  0
LINE
  8
0
 10
-59.581427493112784
 20
-34.23036603358016
 11
-59.617930150544666
 21
-34.35913672984881
  0
LINE
  8
0
 10
-59.617930150544666
 20
-34.35913672984881
 11
-59.74907335340048
 21
-34.52972254787992
  0
LINE
  8
0
 10
-59.74907335340048
 20
-34.52972254787992
 11
-60.24167982671313
 21
-34.99759041153448
  0
LINE
  8
0
 10
-60.24167982671313
 20
-34.99759041153448
 11
-60.72874025833872
 21
-35.49613259545153
  0
LINE
  8
0
 10
-60.72874025833872
 20
-35.49613259545153
 11
-61.260201637251264
 21
-36.082464468278786
  0
LINE
  8
0
 10
-61.260201637251264
 20
-36.082464468278786
 11
-61.83009139253394
 21
-36.76050589663496
  0
LINE
  8
0
 10
-61.83009139253394
 20
-36.76050589663496
 11
-62.43220963381865
 21
-37.53384963963625
  0
LINE
  8
0
 10
-62.43220963381865
 20
-37.53384963963625
 11
-63.03584759245099
 21
-38.3720120497356
  0
LINE
  8
0
 10
-63.03584759245099
 20
-38.3720120497356
 11
-62.52879856861673
 21
-39.28944817543969
  0
LINE
  8
0
 10
-62.52879856861673
 20
-39.28944817543969
 11
-61.92221750744536
 21
-40.144344177036665
  0
LINE
  8
0
 10
-61.92221750744536
 20
-40.144344177036665
 11
-60.90515057512435
 21
-39.96415020930458
  0
LINE
  8
0
 10
-60.90515057512435
 20
-39.96415020930458
 11
-59.94714262459185
 21
-39.75720169395148
  0
LINE
  8
0
 10
-59.94714262459185
 20
-39.75720169395148
 11
-59.08898250858022
 21
-39.537939916514546
  0
LINE
  8
0
 10
-59.08898250858022
 20
-39.537939916514546
 11
-58.33012329462509
 21
-39.31350962496807
  0
LINE
  8
0
 10
-58.33012329462509
 20
-39.31350962496807
 11
-57.669624706329294
 21
-39.09099268615233
  0
LINE
  8
0
 10
-57.669624706329294
 20
-39.09099268615233
 11
-57.03435638832868
 21
-38.85016984767089
  0
LINE
  8
0
 10
-57.03435638832868
 20
-38.85016984767089
 11
-56.823762973763756
 21
-38.80602831722388
  0
LINE
  8
0
 10
-56.823762973763756
 20
-38.80602831722388
 11
-56.691906675833685
 21
-38.82901207046729
  0
LINE
  8
0
 10
-56.691906675833685
 20
-38.82901207046729
 11
-55.374206983000846
 21
-40.68613599143712
  0
LINE
  8
0
 10
-55.374206983000846
 20
-40.68613599143712
 11
-55.39606237583928
 21
-40.81818400551146
  0
LINE
  8
0
 10
-55.39606237583928
 20
-40.81818400551146
 11
-55.507281426015105
 21
-41.00238059572587
  0
LINE
  8
0
 10
-55.507281426015105
 20
-41.00238059572587
 11
-55.94440591297867
 21
-41.52246103016562
  0
LINE
  8
0
 10
-55.94440591297867
 20
-41.52246103016562
 11
-56.37258479640322
 21
-42.07240195152845
  0
LINE
  8
0
 10
-56.37258479640322
 20
-42.07240195152845
 11
-56.83505611675153
 21
-42.71455188746555
  0
LINE
  8
0
 10
-56.83505611675153
 20
-42.71455188746555
 11
-57.32544597156677
 21
-43.4521373415234
  0
LINE
  8
0
 10
-57.32544597156677
 20
-43.4521373415234
 11
-57.83719119269792
 21
-44.288034314826014
  0
LINE
  8
0
 10
-57.83719119269792
 20
-44.288034314826014
 11
-58.34318918740953
 21
-45.18851254340954
  0
LINE
  8
0
 10
-58.34318918740953
 20
-45.18851254340954
 11
-57.736608126238245
 21
-46.04340854500654
  0
LINE
  8
0
 10
-57.736608126238245
 20
-46.04340854500654
 11
-57.038123136520795
 21
-46.82501360925423
  0
LINE
  8
0
 10
-57.038123136520795
 20
-46.82501360925423
 11
-56.04762663078883
 21
-46.53207729713043
  0
LINE
  8
0
 10
-56.04762663078883
 20
-46.53207729713043
 11
-55.11881331527175
 21
-46.219167172320596
  0
LINE
  8
0
 10
-55.11881331527175
 20
-46.219167172320596
 11
-54.2905986599878
 21
-45.90520061911662
  0
LINE
  8
0
 10
-54.2905986599878
 20
-45.90520061911662
 11
-53.5616392135053
 21
-45.59721622381033
  0
LINE
  8
0
 10
-53.5616392135053
 20
-45.59721622381033
 11
-52.93020769417715
 21
-45.30214604639556
  0
LINE
  8
0
 10
-52.93020769417715
 20
-45.30214604639556
 11
-52.32589741296587
 21
-44.99170996696544
  0
LINE
  8
0
 10
-52.32589741296587
 20
-44.99170996696544
 11
-52.1215704489205
 21
-44.924267007864294
  0
LINE
  8
0
 10
-52.1215704489205
 20
-44.924267007864294
 11
-51.98796987182528
 21
-44.93234302277279
  0
LINE
  8
0
 10
-51.98796987182528
 20
-44.93234302277279
 11
-50.4706236912144
 21
-46.6302541825558
  0
LINE
  8
0
 10
-50.4706236912144
 20
-46.6302541825558
 11
-50.477556975213645
 21
-46.76391893404281
  0
LINE
  8
0
 10
-50.477556975213645
 20
-46.76391893404281
 11
-50.56745322862272
 21
-46.959409917445214
  0
LINE
  8
0
 10
-50.56745322862272
 20
-46.959409917445214
 11
-50.94359863518811
 21
-47.52516260944939
  0
LINE
  8
0
 10
-50.94359863518811
 20
-47.52516260944939
 11
-51.30751137251738
 21
-48.11958644208869
  0
LINE
  8
0
 10
-51.30751137251738
 20
-48.11958644208869
 11
-51.69517678911599
 21
-48.80947903310715
  0
LINE
  8
0
 10
-51.69517678911599
 20
-48.80947903310715
 11
-52.09989980650865
 21
-49.59733294782486
  0
LINE
  8
0
 10
-52.09989980650865
 20
-49.59733294782486
 11
-52.514836514409026
 21
-50.485271261990796
  0
LINE
  8
0
 10
-52.514836514409026
 20
-50.485271261990796
 11
-52.91683132682972
 21
-51.43674127286454
  0
LINE
  8
0
 10
-52.91683132682972
 20
-51.43674127286454
 11
-52.21834633711216
 21
-52.21834633711223
  0
LINE
  8
0
 10
-52.21834633711216
 20
-52.21834633711223
 11
-51.43674127286449
 21
-52.91683132682972
  0
LINE
  8
0
 10
-51.43674127286449
 20
-52.91683132682972
 11
-50.485271261980635
 21
-52.51483651440477
  0
LINE
  8
0
 10
-50.485271261980635
 20
-52.51483651440477
 11
-49.597332947831646
 21
-52.09989980651238
  0
LINE
  8
0
 10
-49.597332947831646
 20
-52.09989980651238
 11
-48.809479033106896
 21
-51.69517678911554
  0
LINE
  8
0
 10
-48.809479033106896
 20
-51.69517678911554
 11
-48.119586442088696
 21
-51.307511372517126
  0
LINE
  8
0
 10
-48.119586442088696
 20
-51.307511372517126
 11
-47.52516260944881
 21
-50.94359863518802
  0
LINE
  8
0
 10
-47.52516260944881
 20
-50.94359863518802
 11
-46.959409917442116
 21
-50.567453228627244
  0
LINE
  8
0
 10
-46.959409917442116
 20
-50.567453228627244
 11
-46.76391893404242
 21
-50.477556975213986
  0
LINE
  8
0
 10
-46.76391893404242
 20
-50.477556975213986
 11
-46.63025418255589
 21
-50.47062369121428
  0
LINE
  8
0
 10
-46.63025418255589
 20
-50.47062369121428
 11
-44.93234302277291
 21
-51.98796987182519
  0
LINE
  8
0
 10
-44.93234302277291
 20
-51.98796987182519
 11
-44.924267007863904
 21
-52.12157044892084
  0
LINE
  8
0
 10
-44.924267007863904
 20
-52.12157044892084
 11
-44.991709966960585
 21
-52.325897412968445
  0
LINE
  8
0
 10
-44.991709966960585
 20
-52.325897412968445
 11
-45.302146046395585
 21
-52.93020769417772
  0
LINE
  8
0
 10
-45.302146046395585
 20
-52.93020769417772
 11
-45.59721622381058
 21
-53.56163921350532
  0
LINE
  8
0
 10
-45.59721622381058
 20
-53.56163921350532
 11
-45.905200619117025
 21
-54.29059865998809
  0
LINE
  8
0
 10
-45.905200619117025
 20
-54.29059865998809
 11
-46.21916717231764
 21
-55.11881331526458
  0
LINE
  8
0
 10
-46.21916717231764
 20
-55.11881331526458
 11
-46.5320772971335
 21
-56.04762663079939
  0
LINE
  8
0
 10
-46.5320772971335
 20
-56.04762663079939
 11
-46.825013609254185
 21
-57.0381231365208
  0
LINE
  8
0
 10
-46.825013609254185
 20
-57.0381231365208
 11
-46.043408545006606
 21
-57.73660812623827
  0
LINE
  8
0
 10
-46.043408545006606
 20
-57.73660812623827
 11
-45.18851254340958
 21
-58.34318918740959
  0
LINE
  8
0
 10
-45.18851254340958
 20
-58.34318918740959
 11
-44.28803431481644
 21
-57.83719119269252
  0
LINE
  8
0
 10
-44.28803431481644
 20
-57.83719119269252
 11
-43.45213734152977
 21
-57.32544597157121
  0
LINE
  8
0
 10
-43.45213734152977
 20
-57.32544597157121
 11
-42.714551887465404
 21
-56.83505611675103
  0
LINE
  8
0
 10
-42.714551887465404
 20
-56.83505611675103
 11
-42.07240195152853
 21
-56.37258479640294
  0
LINE
  8
0
 10
-42.07240195152853
 20
-56.37258479640294
 11
-41.52246103016512
 21
-55.944405912978475
  0
LINE
  8
0
 10
-41.52246103016512
 20
-55.944405912978475
 11
-41.002380595722336
 21
-55.50728142601922
  0
LINE
  8
0
 10
-41.002380595722336
 20
-55.50728142601922
 11
-40.818184005511085
 21
-55.39606237583954
  0
LINE
  8
0
 10
-40.818184005511085
 20
-55.39606237583954
 11
-40.686135991437276
 21
-55.374206983000704
  0
LINE
  8
0
 10
-40.686135991437276
 20
-55.374206983000704
 11
-38.829012070467485
 21
-56.691906675833586
  0
LINE
  8
0
 10
-38.829012070467485
 20
-56.691906675833586
 11
-38.80602831722351
 21
-56.823762973764026
  0
LINE
  8
0
 10
-38.80602831722351
 20
-56.823762973764026
 11
-38.85016984766584
 21
-57.034356388330664
  0
LINE
  8
0
 10
-38.85016984766584
 20
-57.034356388330664
 11
-39.09099268615235
 21
-57.66962470632984
  0
LINE
  8
0
 10
-39.09099268615235
 20
-57.66962470632984
 11
-39.313509624968354
 21
-58.3301232946251
  0
LINE
  8
0
 10
-39.313509624968354
 20
-58.3301232946251
 11
-39.53793991651496
 21
-59.08898250858053
  0
LINE
  8
0
 10
-39.53793991651496
 20
-59.08898250858053
 11
-39.75720169394939
 21
-59.94714262458437
  0
LINE
  8
0
 10
-39.75720169394939
 20
-59.94714262458437
 11
-39.9641502093065
 21
-60.90515057513517
  0
LINE
  8
0
 10
-39.9641502093065
 20
-60.90515057513517
 11
-40.14434417703669
 21
-61.92221750744539
  0
LINE
  8
0
 10
-40.14434417703669
 20
-61.92221750744539
 11
-39.289448175439624
 21
-62.52879856861671
  0
LINE
  8
0
 10
-39.289448175439624
 20
-62.52879856861671
 11
-38.37201204973551
 21
-63.035847592450956
  0
LINE
  8
0
 10
-38.37201204973551
 20
-63.035847592450956
 11
-37.533849639627284
 21
-62.43220963381226
  0
LINE
  8
0
 10
-37.533849639627284
 20
-62.43220963381226
 11
-36.76050589664073
 21
-61.8300913925391
  0
LINE
  8
0
 10
-36.76050589664073
 20
-61.8300913925391
 11
-36.08246446827862
 21
-61.26020163725079
  0
LINE
  8
0
 10
-36.08246446827862
 20
-61.26020163725079
 11
-35.49613259545158
 21
-60.72874025833848
  0
LINE
  8
0
 10
-35.49613259545158
 20
-60.72874025833848
 11
-34.997590411533935
 21
-60.24167982671291
  0
LINE
  8
0
 10
-34.997590411533935
 20
-60.24167982671291
 11
-34.52972254787588
 21
-59.74907335340421
  0
LINE
  8
0
 10
-34.52972254787588
 20
-59.74907335340421
 11
-34.35913672984833
 21
-59.61793015054492
  0
LINE
  8
0
 10
-34.35913672984833
 20
-59.61793015054492
 11
-34.23036603358026
 21
-59.5814274931127
  0
LINE
  8
0
 10
-34.23036603358026
 20
-59.5814274931127
 11
-32.23738376225825
 21
-60.682909859983006
  0
LINE
  8
0
 10
-32.23738376225825
 20
-60.682909859983006
 11
-32.19978130471183
 21
-60.811363709296955
  0
LINE
  8
0
 10
-32.19978130471183
 20
-60.811363709296955
 11
-32.220066301142985
 21
-61.0255752400053
  0
LINE
  8
0
 10
-32.220066301142985
 20
-61.0255752400053
 11
-32.38824741175837
 21
-61.68381272710428
  0
LINE
  8
0
 10
-32.38824741175837
 20
-61.68381272710428
 11
-32.535412832362454
 21
-62.365072231389185
  0
LINE
  8
0
 10
-32.535412832362454
 20
-62.365072231389185
 11
-32.67346667901553
 21
-63.144288117901404
  0
LINE
  8
0
 10
-32.67346667901553
 20
-63.144288117901404
 11
-32.79526633661389
 21
-64.02160183325775
  0
LINE
  8
0
 10
-32.79526633661389
 20
-64.02160183325775
 11
-32.89365074485732
 21
-64.9967569129972
  0
LINE
  8
0
 10
-32.89365074485732
 20
-64.9967569129972
 11
-32.95883632450179
 21
-66.02760406510639
  0
LINE
  8
0
 10
-32.95883632450179
 20
-66.02760406510639
 11
-32.04140019879775
 21
-66.53465308894063
  0
LINE
  8
0
 10
-32.04140019879775
 20
-66.53465308894063
 11
-31.07296124057613
 21
-66.93579363976649
  0
LINE
  8
0
 10
-31.07296124057613
 20
-66.93579363976649
 11
-30.307655027573094
 21
-66.24210681477494
  0
LINE
  8
0
 10
-30.307655027573094
 20
-66.24210681477494
 11
-29.606589761159213
 21
-65.55718753959108
  0
LINE
  8
0
 10
-29.606589761159213
 20
-65.55718753959108
 11
-28.99661912286983
 21
-64.91496457816513
  0
LINE
  8
0
 10
-28.99661912286983
 20
-64.91496457816513
 11
-28.47347877665108
 21
-64.32119657588952
  0
LINE
  8
0
 10
-28.47347877665108
 20
-64.32119657588952
 11
-28.032604787402885
 21
-63.78137966358958
  0
LINE
  8
0
 10
-28.032604787402885
 20
-63.78137966358958
 11
-27.62283320437831
 21
-63.23948601615022
  0
LINE
  8
0
 10
-27.62283320437831
 20
-63.23948601615022
 11
-27.468003374172365
 21
-63.090067862478335
  0
LINE
  8
0
 10
-27.468003374172365
 20
-63.090067862478335
 11
-27.344129361930104
 21
-63.03937698254926
  0
LINE
  8
0
 10
-27.344129361930104
 20
-63.03937698254926
 11
-25.240351648672984
 21
-63.910790243598655
  0
LINE
  8
0
 10
-25.240351648672984
 20
-63.910790243598655
 11
-25.18860335954523
 21
-64.03422626261032
  0
LINE
  8
0
 10
-25.18860335954523
 20
-64.03422626261032
 11
-25.18477672636547
 21
-64.24936207517331
  0
LINE
  8
0
 10
-25.18477672636547
 20
-64.24936207517331
 11
-25.278201134062787
 21
-64.92229101305354
  0
LINE
  8
0
 10
-25.278201134062787
 20
-64.92229101305354
 11
-25.34816434590348
 21
-65.61574419978571
  0
LINE
  8
0
 10
-25.34816434590348
 20
-65.61574419978571
 11
-25.398105640440654
 21
-66.40551766697025
  0
LINE
  8
0
 10
-25.398105640440654
 20
-66.40551766697025
 11
-25.420911476838846
 21
-67.29095225267922
  0
LINE
  8
0
 10
-25.420911476838846
 20
-67.29095225267922
 11
-25.40949453695095
 21
-68.27099132068143
  0
LINE
  8
0
 10
-25.40949453695095
 20
-68.27099132068143
 11
-25.35885198202413
 21
-69.30265519154038
  0
LINE
  8
0
 10
-25.35885198202413
 20
-69.30265519154038
 11
-24.39041302380245
 21
-69.70379574236627
  0
LINE
  8
0
 10
-24.39041302380245
 20
-69.70379574236627
 11
-23.383149914864312
 21
-69.99398324500987
  0
LINE
  8
0
 10
-23.383149914864312
 20
-69.99398324500987
 11
-22.70032406863601
 21
-69.21897106797626
  0
LINE
  8
0
 10
-22.70032406863601
 20
-69.21897106797626
 11
-22.08035358128749
 21
-68.45986401616658
  0
LINE
  8
0
 10
-22.08035358128749
 20
-68.45986401616658
 11
-21.54612446776053
 21
-67.75338417496931
  0
LINE
  8
0
 10
-21.54612446776053
 20
-67.75338417496931
 11
-21.09275444153688
 21
-67.10477652647124
  0
LINE
  8
0
 10
-21.09275444153688
 20
-67.10477652647124
 11
-20.71509289317397
 21
-66.51899164437819
  0
LINE
  8
0
 10
-20.71509289317397
 20
-66.51899164437819
 11
-20.368570706194426
 21
-65.93462544983875
  0
LINE
  8
0
 10
-20.368570706194426
 20
-65.93462544983875
 11
-20.23144393875928
 21
-65.76881136533112
  0
LINE
  8
0
 10
-20.23144393875928
 20
-65.76881136533112
 11
-20.114024398120154
 21
-65.70456973013184
  0
LINE
  8
0
 10
-20.114024398120154
 20
-65.70456973013184
 11
-17.9259074683124
 21
-66.33495535799685
  0
LINE
  8
0
 10
-17.9259074683124
 20
-66.33495535799685
 11
-17.86066411236414
 21
-66.45182126714793
  0
LINE
  8
0
 10
-17.86066411236414
 20
-66.45182126714793
 11
-17.832773971705954
 21
-66.66517590389786
  0
LINE
  8
0
 10
-17.832773971705954
 20
-66.66517590389786
 11
-17.85026681035231
 21
-67.34433382072304
  0
LINE
  8
0
 10
-17.85026681035231
 20
-67.34433382072304
 11
-17.842147985447117
 21
-68.04126011372843
  0
LINE
  8
0
 10
-17.842147985447117
 20
-68.04126011372843
 11
-17.80334868711297
 21
-68.83165930199819
  0
LINE
  8
0
 10
-17.80334868711297
 20
-68.83165930199819
 11
-17.72687390568603
 21
-69.71407990440339
  0
LINE
  8
0
 10
-17.72687390568603
 20
-69.71407990440339
 11
-17.60579919231016
 21
-70.68667840075632
  0
LINE
  8
0
 10
-17.60579919231016
 20
-70.68667840075632
 11
-17.43996536232377
 21
-71.70618521860366
  0
LINE
  8
0
 10
-17.43996536232377
 20
-71.70618521860366
 11
-16.432702253385713
 21
-71.99637272124731
  0
LINE
  8
0
 10
-16.432702253385713
 20
-71.99637272124731
 11
-15.399281911753647
 21
-72.17195789949226
  0
LINE
  8
0
 10
-15.399281911753647
 20
-72.17195789949226
 11
-14.807523363501133
 21
-71.32536659821524
  0
LINE
  8
0
 10
-14.807523363501133
 20
-71.32536659821524
 11
-14.276444143811638
 21
-70.50161798140041
  0
LINE
  8
0
 10
-14.276444143811638
 20
-70.50161798140041
 11
-13.824674796116657
 21
-69.73976565434407
  0
LINE
  8
0
 10
-13.824674796116657
 20
-69.73976565434407
 11
-13.446776481019276
 21
-69.04447497713433
  0
LINE
  8
0
 10
-13.446776481019276
 20
-69.04447497713433
 11
-13.137076686636656
 21
-68.42008871002076
  0
LINE
  8
0
 10
-13.137076686636656
 20
-68.42008871002076
 11
-12.858161613260265
 21
-67.80059871233472
  0
LINE
  8
0
 10
-12.858161613260265
 20
-67.80059871233472
 11
-12.740462357259215
 21
-67.62047390531161
  0
LINE
  8
0
 10
-12.740462357259215
 20
-67.62047390531161
 11
-12.630973907075168
 21
-67.54348939067863
  0
LINE
  8
0
 10
-12.630973907075168
 20
-67.54348939067863
 11
-10.386034600684123
 21
-67.92491992033062
  0
LINE
  8
0
 10
-10.386034600684123
 20
-67.92491992033062
 11
-10.308116650971492
 21
-68.03374606300636
  0
LINE
  8
0
 10
-10.308116650971492
 20
-68.03374606300636
 11
-10.256513737535895
 21
-68.24263646559486
  0
LINE
  8
0
 10
-10.256513737535895
 20
-68.24263646559486
 11
-10.197855024535727
 21
-68.91948255650428
  0
LINE
  8
0
 10
-10.197855024535727
 20
-68.91948255650428
 11
-10.111756261818483
 21
-69.61111770328229
  0
LINE
  8
0
 10
-10.111756261818483
 20
-69.61111770328229
 11
-9.984704294301448
 21
-70.39220288424451
  0
LINE
  8
0
 10
-9.984704294301448
 20
-70.39220288424451
 11
-9.809910609797516
 21
-71.26051255227831
  0
LINE
  8
0
 10
-9.809910609797516
 20
-71.26051255227831
 11
-9.580700707703574
 21
-72.21343948657555
  0
LINE
  8
0
 10
-9.580700707703574
 20
-72.21343948657555
 11
-9.301761059288696
 21
-73.20796836164521
  0
LINE
  8
0
 10
-9.301761059288696
 20
-73.20796836164521
 11
-8.268340717656638
 21
-73.38355353989019
  0
LINE
  8
0
 10
-8.268340717656638
 20
-73.38355353989019
 11
-7.22175900373111
 21
-73.44232830824319
  0
LINE
  8
0
 10
-7.22175900373111
 20
-73.44232830824319
 11
-6.728509460544988
 21
-72.53480425954002
  0
LINE
  8
0
 10
-6.728509460544988
 20
-72.53480425954002
 11
-6.293000137841458
 21
-71.65677319452658
  0
LINE
  8
0
 10
-6.293000137841458
 20
-71.65677319452658
 11
-5.9293718176483985
 21
-70.84912911666092
  0
LINE
  8
0
 10
-5.9293718176483985
 20
-70.84912911666092
 11
-5.631697504251351
 21
-70.11589909442245
  0
LINE
  8
0
 10
-5.631697504251351
 20
-70.11589909442245
 11
-5.393854118455384
 21
-69.46076346187468
  0
LINE
  8
0
 10
-5.393854118455384
 20
-69.46076346187468
 11
-5.1860536775601505
 21
-68.81394010719943
  0
LINE
  8
0
 10
-5.1860536775601505
 20
-68.81394010719943
 11
-5.089262069428111
 21
-68.62176975161998
  0
LINE
  8
0
 10
-5.089262069428111
 20
-68.62176975161998
 11
-4.989081590486883
 21
-68.53301048249227
  0
LINE
  8
0
 10
-4.989081590486883
 20
-68.53301048249227
 11
-2.715551321834544
 21
-68.6606892037097
  0
LINE
  8
0
 10
-2.715551321834544
 20
-68.6606892037097
 11
-2.625938641784221
 21
-68.76010702802354
  0
LINE
  8
0
 10
-2.625938641784221
 20
-68.76010702802354
 11
-2.5512718921483755
 21
-68.96190627843703
  0
LINE
  8
0
 10
-2.5512718921483755
 20
-68.96190627843703
 11
-2.4171992948522383
 21
-69.62792881112227
  0
LINE
  8
0
 10
-2.4171992948522383
 20
-69.62792881112227
 11
-2.254203336219778
 21
-70.30557509840611
  0
LINE
  8
0
 10
-2.254203336219778
 20
-70.30557509840611
 11
-2.040496451728647
 21
-71.067523672714
  0
LINE
  8
0
 10
-2.040496451728647
 20
-71.067523672714
 11
-1.7695819961480208
 21
-71.9108029084959
  0
LINE
  8
0
 10
-1.7695819961480208
 20
-71.9108029084959
 11
-1.4351193528455144
 21
-72.83207467163756
  0
LINE
  8
0
 10
-1.4351193528455144
 20
-72.83207467163756
 11
-1.0465817139255362
 21
-73.78911882628647
  0
LINE
  8
0
 10
-1.0465817139255362
 20
-73.78911882628647
 11
5.417888360170764e-14
 21
-73.84789359463944
  0
LINE
  8
0
 10
5.417888360170764e-14
 20
-73.84789359463944
 11
1.0465817139255842
 21
-73.78911882628647
  0
LINE
  8
0
 10
1.0465817139255842
 20
-73.78911882628647
 11
1.4351193528496973
 21
-72.83207467162737
  0
LINE
  8
0
 10
1.4351193528496973
 20
-72.83207467162737
 11
1.7695819961458694
 21
-71.91080290850333
  0
LINE
  8
0
 10
1.7695819961458694
 20
-71.91080290850333
 11
2.040496451728515
 21
-71.06752367271352
  0
LINE
  8
0
 10
2.040496451728515
 20
-71.06752367271352
 11
2.254203336219601
 21
-70.30557509840594
  0
LINE
  8
0
 10
2.254203336219601
 20
-70.30557509840594
 11
2.41719929485258
 21
-69.6279288111218
  0
LINE
  8
0
 10
2.41719929485258
 20
-69.6279288111218
 11
2.5512718921537747
 21
-68.96190627843804
  0
LINE
  8
0
 10
2.5512718921537747
 20
-68.96190627843804
 11
2.6259386417847437
 21
-68.76010702802351
  0
LINE
  8
0
 10
2.6259386417847437
 20
-68.76010702802351
 11
2.7155513218343983
 21
-68.66068920370968
  0
LINE
  8
0
 10
2.7155513218343983
 20
-68.66068920370968
 11
4.989081590486742
 21
-68.5330104824923
  0
LINE
  8
0
 10
4.989081590486742
 20
-68.5330104824923
 11
5.089262069428635
 21
-68.62176975161995
  0
LINE
  8
0
 10
5.089262069428635
 20
-68.62176975161995
 11
5.186053677565403
 21
-68.81394010719782
  0
LINE
  8
0
 10
5.186053677565403
 20
-68.81394010719782
 11
5.393854118455776
 21
-69.46076346187509
  0
LINE
  8
0
 10
5.393854118455776
 20
-69.46076346187509
 11
5.631697504251193
 21
-70.11589909442263
  0
LINE
  8
0
 10
5.631697504251193
 20
-70.11589909442263
 11
5.929371817648321
 21
-70.84912911666142
  0
LINE
  8
0
 10
5.929371817648321
 20
-70.84912911666142
 11
6.293000137838487
 21
-71.65677319451943
  0
LINE
  8
0
 10
6.293000137838487
 20
-71.65677319451943
 11
6.728509460550284
 21
-72.53480425954967
  0
LINE
  8
0
 10
6.728509460550284
 20
-72.53480425954967
 11
7.221759003731158
 21
-73.44232830824318
  0
LINE
  8
0
 10
7.221759003731158
 20
-73.44232830824318
 11
8.268340717656685
 21
-73.3835535398902
  0
LINE
  8
0
 10
8.268340717656685
 20
-73.3835535398902
 11
9.301761059288747
 21
-73.20796836164521
  0
LINE
  8
0
 10
9.301761059288747
 20
-73.20796836164521
 11
9.580700707706589
 21
-72.21343948656497
  0
LINE
  8
0
 10
9.580700707706589
 20
-72.21343948656497
 11
9.809910609796212
 21
-71.26051255228595
  0
LINE
  8
0
 10
9.809910609796212
 20
-71.26051255228595
 11
9.984704294301261
 21
-70.39220288424403
  0
LINE
  8
0
 10
9.984704294301261
 20
-70.39220288424403
 11
10.111756261818288
 21
-69.61111770328213
  0
LINE
  8
0
 10
10.111756261818288
 20
-69.61111770328213
 11
10.197855024536013
 21
-68.91948255650377
  0
LINE
  8
0
 10
10.197855024536013
 20
-68.91948255650377
 11
10.256513737541374
 21
-68.24263646559524
  0
LINE
  8
0
 10
10.256513737541374
 20
-68.24263646559524
 11
10.308116650972007
 21
-68.03374606300626
  0
LINE
  8
0
 10
10.308116650972007
 20
-68.03374606300626
 11
10.386034600683976
 21
-67.92491992033061
  0
LINE
  8
0
 10
10.386034600683976
 20
-67.92491992033061
 11
12.630973907075031
 21
-67.54348939067869
  0
LINE
  8
0
 10
12.630973907075031
 20
-67.54348939067869
 11
12.740462357259732
 21
-67.62047390531151
  0
LINE
  8
0
 10
12.740462357259732
 20
-67.62047390531151
 11
12.858161613265302
 21
-67.80059871233254
  0
LINE
  8
0
 10
12.858161613265302
 20
-67.80059871233254
 11
13.13707668663709
 21
-68.42008871002113
  0
LINE
  8
0
 10
13.13707668663709
 20
-68.42008871002113
 11
13.446776481019139
 21
-69.04447497713453
  0
LINE
  8
0
 10
13.446776481019139
 20
-69.04447497713453
 11
13.824674796116636
 21
-69.73976565434458
  0
LINE
  8
0
 10
13.824674796116636
 20
-69.73976565434458
 11
14.276444143807884
 21
-70.50161798139364
  0
LINE
  8
0
 10
14.276444143807884
 20
-70.50161798139364
 11
14.807523363507473
 21
-71.32536659822422
  0
LINE
  8
0
 10
14.807523363507473
 20
-71.32536659822422
 11
15.399281911753697
 21
-72.17195789949227
  0
LINE
  8
0
 10
15.399281911753697
 20
-72.17195789949227
 11
16.432702253385685
 21
-71.99637272124731
  0
LINE
  8
0
 10
16.432702253385685
 20
-71.99637272124731
 11
17.439965362323814
 21
-71.70618521860368
  0
LINE
  8
0
 10
17.439965362323814
 20
-71.70618521860368
 11
17.605799192311974
 21
-70.68667840074546
  0
LINE
  8
0
 10
17.605799192311974
 20
-70.68667840074546
 11
17.726873905685586
 21
-69.71407990441112
  0
LINE
  8
0
 10
17.726873905685586
 20
-69.71407990441112
 11
17.803348687112734
 21
-68.83165930199775
  0
LINE
  8
0
 10
17.803348687112734
 20
-68.83165930199775
 11
17.842147985446903
 21
-68.0412601137283
  0
LINE
  8
0
 10
17.842147985446903
 20
-68.0412601137283
 11
17.850266810352537
 21
-67.3443338207225
  0
LINE
  8
0
 10
17.850266810352537
 20
-67.3443338207225
 11
17.832773971711443
 21
-66.66517590389765
  0
LINE
  8
0
 10
17.832773971711443
 20
-66.66517590389765
 11
17.860664112364645
 21
-66.45182126714779
  0
LINE
  8
0
 10
17.860664112364645
 20
-66.45182126714779
 11
17.92590746831225
 21
-66.33495535799688
  0
LINE
  8
0
 10
17.92590746831225
 20
-66.33495535799688
 11
20.114024398120026
 21
-65.70456973013191
  0
LINE
  8
0
 10
20.114024398120026
 20
-65.70456973013191
 11
20.23144393875978
 21
-65.76881136533098
  0
LINE
  8
0
 10
20.23144393875978
 20
-65.76881136533098
 11
20.368570706199186
 21
-65.934625449836
  0
LINE
  8
0
 10
20.368570706199186
 20
-65.934625449836
 11
20.715092893174447
 21
-66.51899164437852
  0
LINE
  8
0
 10
20.715092893174447
 20
-66.51899164437852
 11
21.092754441536762
 21
-67.10477652647147
  0
LINE
  8
0
 10
21.092754441536762
 20
-67.10477652647147
 11
21.546124467760567
 21
-67.75338417496982
  0
LINE
  8
0
 10
21.546124467760567
 20
-67.75338417496982
 11
22.080353581283003
 21
-68.45986401616028
  0
LINE
  8
0
 10
22.080353581283003
 20
-68.45986401616028
 11
22.70032406864332
 21
-69.21897106798448
  0
LINE
  8
0
 10
22.70032406864332
 20
-69.21897106798448
 11
23.38314991486439
 21
-69.99398324500991
  0
LINE
  8
0
 10
23.38314991486439
 20
-69.99398324500991
 11
24.39041302380257
 21
-69.70379574236625
  0
LINE
  8
0
 10
24.39041302380257
 20
-69.70379574236625
 11
25.358851982024177
 21
-69.3026551915404
  0
LINE
  8
0
 10
25.358851982024177
 20
-69.3026551915404
 11
25.40949453695153
 21
-68.27099132067045
  0
LINE
  8
0
 10
25.40949453695153
 20
-68.27099132067045
 11
25.420911476839276
 21
-67.29095225268696
  0
LINE
  8
0
 10
25.420911476839276
 20
-67.29095225268696
 11
25.398105640440367
 21
-66.40551766696984
  0
LINE
  8
0
 10
25.398105640440367
 20
-66.40551766696984
 11
25.348164345903253
 21
-65.61574419978562
  0
LINE
  8
0
 10
25.348164345903253
 20
-65.61574419978562
 11
25.27820113406295
 21
-64.92229101305298
  0
LINE
  8
0
 10
25.27820113406295
 20
-64.92229101305298
 11
25.184776726370895
 21
-64.24936207517248
  0
LINE
  8
0
 10
25.184776726370895
 20
-64.24936207517248
 11
25.18860335954571
 21
-64.03422626261013
  0
LINE
  8
0
 10
25.18860335954571
 20
-64.03422626261013
 11
25.24035164867284
 21
-63.91079024359868
  0
LINE
  8
0
 10
25.24035164867284
 20
-63.91079024359868
 11
27.344129361929983
 21
-63.039376982549356
  0
LINE
  8
0
 10
27.344129361929983
 20
-63.039376982549356
 11
27.46800337417285
 21
-63.090067862478136
  0
LINE
  8
0
 10
27.46800337417285
 20
-63.090067862478136
 11
27.622833204382733
 21
-63.239486016146984
  0
LINE
  8
0
 10
27.622833204382733
 20
-63.239486016146984
 11
28.032604787403393
 21
-63.78137966358985
  0
LINE
  8
0
 10
28.032604787403393
 20
-63.78137966358985
 11
28.473478776650992
 21
-64.32119657588974
  0
LINE
  8
0
 10
28.473478776650992
 20
-64.32119657588974
 11
28.99661912286992
 21
-64.91496457816562
  0
LINE
  8
0
 10
28.99661912286992
 20
-64.91496457816562
 11
29.606589761154044
 21
-65.55718753958533
  0
LINE
  8
0
 10
29.606589761154044
 20
-65.55718753958533
 11
30.307655027581283
 21
-66.24210681478229
  0
LINE
  8
0
 10
30.307655027581283
 20
-66.24210681478229
 11
31.072961240576195
 21
-66.93579363976653
  0
LINE
  8
0
 10
31.072961240576195
 20
-66.93579363976653
 11
32.04140019879781
 21
-66.53465308894067
  0
LINE
  8
0
 10
32.04140019879781
 20
-66.53465308894067
 11
32.95883632450191
 21
-66.02760406510633
  0
LINE
  8
0
 10
32.95883632450191
 20
-66.02760406510633
 11
32.89365074485673
 21
-64.99675691298617
  0
LINE
  8
0
 10
32.89365074485673
 20
-64.99675691298617
 11
32.79526633661525
 21
-64.02160183326535
  0
LINE
  8
0
 10
32.79526633661525
 20
-64.02160183326535
 11
32.67346667901526
 21
-63.14428811790099
  0
LINE
  8
0
 10
32.67346667901526
 20
-63.14428811790099
 11
32.53541283236229
 21
-62.36507223138907
  0
LINE
  8
0
 10
32.53541283236229
 20
-62.36507223138907
 11
32.38824741175854
 21
-61.683812727103685
  0
LINE
  8
0
 10
32.38824741175854
 20
-61.683812727103685
 11
32.22006630114835
 21
-61.02557524000384
  0
LINE
  8
0
 10
32.22006630114835
 20
-61.02557524000384
 11
32.199781304712346
 21
-60.81136370929667
  0
LINE
  8
0
 10
32.199781304712346
 20
-60.81136370929667
 11
32.23738376225816
 21
-60.68290985998303
  0
LINE
  8
0
 10
32.23738376225816
 20
-60.68290985998303
 11
34.230366033580204
 21
-59.581427493112756
  0
LINE
  8
0
 10
34.230366033580204
 20
-59.581427493112756
 11
34.35913672984885
 21
-59.61793015054464
  0
LINE
  8
0
 10
34.35913672984885
 20
-59.61793015054464
 11
34.52972254787997
 21
-59.749073353400455
  0
LINE
  8
0
 10
34.52972254787997
 20
-59.749073353400455
 11
34.99759041153453
 21
-60.241679826713096
  0
LINE
  8
0
 10
34.99759041153453
 20
-60.241679826713096
 11
35.49613259545158
 21
-60.72874025833869
  0
LINE
  8
0
 10
35.49613259545158
 20
-60.72874025833869
 11
36.08246446827883
 21
-61.26020163725123
  0
LINE
  8
0
 10
36.08246446827883
 20
-61.26020163725123
 11
36.76050589663501
 21
-61.830091392533916
  0
LINE
  8
0
 10
36.76050589663501
 20
-61.830091392533916
 11
37.5338496396363
 21
-62.432209633818616
  0
LINE
  8
0
 10
37.5338496396363
 20
-62.432209633818616
 11
38.3720120497356
 21
-63.03584759245088
  0
LINE
  8
0
 10
38.3720120497356
 20
-63.03584759245088
 11
39.289448175439645
 21
-62.52879856861662
  0
LINE
  8
0
 10
39.289448175439645
 20
-62.52879856861662
 11
40.14434417703665
 21
-61.92221750744535
  0
LINE
  8
0
 10
40.14434417703665
 20
-61.92221750744535
 11
39.96415020930458
 21
-60.90515057512435
  0
LINE
  8
0
 10
39.96415020930458
 20
-60.90515057512435
 11
39.75720169395148
 21
-59.94714262459185
  0
LINE
  8
0
 10
39.75720169395148
 20
-59.94714262459185
 11
39.537939916514546
 21
-59.08898250858022
  0
LINE
  8
0
 10
39.537939916514546
 20
-59.08898250858022
 11
39.31350962496807
 21
-58.33012329462509
  0
LINE
  8
0
 10
39.31350962496807
 20
-58.33012329462509
 11
39.09099268615233
 21
-57.669624706329294
  0
LINE
  8
0
 10
39.09099268615233
 20
-57.669624706329294
 11
38.85016984767089
 21
-57.03435638832868
  0
LINE
  8
0
 10
38.85016984767089
 20
-57.03435638832868
 11
38.80602831722388
 21
-56.823762973763756
  0
LINE
  8
0
 10
38.80602831722388
 20
-56.823762973763756
 11
38.82901207046729
 21
-56.691906675833685
  0
LINE
  8
0
 10
38.82901207046729
 20
-56.691906675833685
 11
40.68613599143712
 21
-55.374206983000846
  0
LINE
  8
0
 10
40.68613599143712
 20
-55.374206983000846
 11
40.81818400551146
 21
-55.39606237583928
  0
LINE
  8
0
 10
40.81818400551146
 20
-55.39606237583928
 11
41.00238059572587
 21
-55.507281426015105
  0
LINE
  8
0
 10
41.00238059572587
 20
-55.507281426015105
 11
41.52246103016562
 21
-55.94440591297867
  0
LINE
  8
0
 10
41.52246103016562
 20
-55.94440591297867
 11
42.07240195152845
 21
-56.37258479640322
  0
LINE
  8
0
 10
42.07240195152845
 20
-56.37258479640322
 11
42.71455188746555
 21
-56.83505611675153
  0
LINE
  8
0
 10
42.71455188746555
 20
-56.83505611675153
 11
43.4521373415234
 21
-57.32544597156677
  0
LINE
  8
0
 10
43.4521373415234
 20
-57.32544597156677
 11
44.288034314826014
 21
-57.83719119269792
  0
LINE
  8
0
 10
44.288034314826014
 20
-57.83719119269792
 11
45.18851254340953
 21
-58.343189187409514
  0
LINE
  8
0
 10
45.18851254340953
 20
-58.343189187409514
 11
46.043408545006585
 21
-57.7366081262382
  0
LINE
  8
0
 10
46.043408545006585
 20
-57.7366081262382
 11
46.82501360925428
 21
-57.03812313652072
  0
LINE
  8
0
 10
46.82501360925428
 20
-57.03812313652072
 11
46.53207729713046
 21
-56.047626630788784
  0
LINE
  8
0
 10
46.53207729713046
 20
-56.047626630788784
 11
46.21916717232064
 21
-55.1188133152717
  0
LINE
  8
0
 10
46.21916717232064
 20
-55.1188133152717
 11
45.90520061911666
 21
-54.29059865998775
  0
LINE
  8
0
 10
45.90520061911666
 20
-54.29059865998775
 11
45.59721622381038
 21
-53.561639213505266
  0
LINE
  8
0
 10
45.59721622381038
 20
-53.561639213505266
 11
45.302146046395606
 21
-52.930207694177106
  0
LINE
  8
0
 10
45.302146046395606
 20
-52.930207694177106
 11
44.99170996696548
 21
-52.32589741296583
  0
LINE
  8
0
 10
44.99170996696548
 20
-52.32589741296583
 11
44.92426700786434
 21
-52.12157044892046
  0
LINE
  8
0
 10
44.92426700786434
 20
-52.12157044892046
 11
44.93234302277283
 21
-51.987969871825236
  0
LINE
  8
0
 10
44.93234302277283
 20
-51.987969871825236
 11
46.63025418255584
 21
-50.47062369121436
  0
LINE
  8
0
 10
46.63025418255584
 20
-50.47062369121436
 11
46.763918934042856
 21
-50.47755697521361
  0
LINE
  8
0
 10
46.763918934042856
 20
-50.47755697521361
 11
46.959409917445264
 21
-50.56745322862268
  0
LINE
  8
0
 10
46.959409917445264
 20
-50.56745322862268
 11
47.52516260944943
 21
-50.94359863518807
  0
LINE
  8
0
 10
47.52516260944943
 20
-50.94359863518807
 11
48.11958644208873
 21
-51.30751137251734
  0
LINE
  8
0
 10
48.11958644208873
 20
-51.30751137251734
 11
48.809479033107195
 21
-51.69517678911594
  0
LINE
  8
0
 10
48.809479033107195
 20
-51.69517678911594
 11
49.597332947824896
 21
-52.0998998065086
  0
LINE
  8
0
 10
49.597332947824896
 20
-52.0998998065086
 11
50.48527126199084
 21
-52.51483651440898
  0
LINE
  8
0
 10
50.48527126199084
 20
-52.51483651440898
 11
51.43674127286457
 21
-52.916831326829644
  0
LINE
  8
0
 10
51.43674127286457
 20
-52.916831326829644
 11
52.21834633711221
 21
-52.21834633711212
  0
LINE
  8
0
 10
52.21834633711221
 20
-52.21834633711212
 11
52.91683132682972
 21
-51.436741272864495
  0
LINE
  8
0
 10
52.91683132682972
 20
-51.436741272864495
 11
52.51483651440477
 21
-50.48527126198064
  0
LINE
  8
0
 10
52.51483651440477
 20
-50.48527126198064
 11
52.09989980651238
 21
-49.59733294783165
  0
LINE
  8
0
 10
52.09989980651238
 20
-49.59733294783165
 11
51.69517678911554
 21
-48.8094790331069
  0
LINE
  8
0
 10
51.69517678911554
 20
-48.8094790331069
 11
51.307511372517126
 21
-48.1195864420887
  0
LINE
  8
0
 10
51.307511372517126
 20
-48.1195864420887
 11
50.94359863518802
 21
-47.52516260944882
  0
LINE
  8
0
 10
50.94359863518802
 20
-47.52516260944882
 11
50.567453228627244
 21
-46.959409917442116
  0
LINE
  8
0
 10
50.567453228627244
 20
-46.959409917442116
 11
50.477556975213986
 21
-46.76391893404243
  0
LINE
  8
0
 10
50.477556975213986
 20
-46.76391893404243
 11
50.47062369121427
 21
-46.63025418255589
  0
LINE
  8
0
 10
50.47062369121427
 20
-46.63025418255589
 11
51.98796987182519
 21
-44.93234302277292
  0
LINE
  8
0
 10
51.98796987182519
 20
-44.93234302277292
 11
52.12157044892084
 21
-44.92426700786391
  0
LINE
  8
0
 10
52.12157044892084
 20
-44.92426700786391
 11
52.325897412968445
 21
-44.99170996696059
  0
LINE
  8
0
 10
52.325897412968445
 20
-44.99170996696059
 11
52.93020769417772
 21
-45.30214604639559
  0
LINE
  8
0
 10
52.93020769417772
 20
-45.30214604639559
 11
53.56163921350532
 21
-45.597216223810584
  0
LINE
  8
0
 10
53.56163921350532
 20
-45.597216223810584
 11
54.29059865998809
 21
-45.905200619117025
  0
LINE
  8
0
 10
54.29059865998809
 20
-45.905200619117025
 11
55.11881331526458
 21
-46.21916717231765
  0
LINE
  8
0
 10
55.11881331526458
 20
-46.21916717231765
 11
56.04762663079939
 21
-46.53207729713351
  0
LINE
  8
0
 10
56.04762663079939
 20
-46.53207729713351
 11
57.03812313652085
 21
-46.82501360925423
  0
LINE
  8
0
 10
57.03812313652085
 20
-46.82501360925423
 11
57.73660812623837
 21
-46.0434085450066
  0
LINE
  8
0
 10
57.73660812623837
 20
-46.0434085450066
 11
58.343189187409585
 21
-45.188512543409516
  0
LINE
  8
0
 10
58.343189187409585
 20
-45.188512543409516
 11
57.837191192692565
 21
-44.28803431481641
  0
LINE
  8
0
 10
57.837191192692565
 20
-44.28803431481641
 11
57.32544597157124
 21
-43.452137341529735
  0
LINE
  8
0
 10
57.32544597157124
 20
-43.452137341529735
 11
56.835056116751076
 21
-42.714551887465355
  0
LINE
  8
0
 10
56.835056116751076
 20
-42.714551887465355
 11
56.37258479640297
 21
-42.07240195152849
  0
LINE
  8
0
 10
56.37258479640297
 20
-42.07240195152849
 11
55.94440591297852
 21
-41.522461030165076
  0
LINE
  8
0
 10
55.94440591297852
 20
-41.522461030165076
 11
55.50728142601925
 21
-41.002380595722286
  0
LINE
  8
0
 10
55.50728142601925
 20
-41.002380595722286
 11
55.39606237583958
 21
-40.81818400551104
  0
LINE
  8
0
 10
55.39606237583958
 20
-40.81818400551104
 11
55.37420698300073
 21
-40.686135991437226
  0
LINE
  8
0
 10
55.37420698300073
 20
-40.686135991437226
 11
56.69190667583362
 21
-38.82901207046744
  0
LINE
  8
0
 10
56.69190667583362
 20
-38.82901207046744
 11
56.823762973764055
 21
-38.80602831722346
  0
LINE
  8
0
 10
56.823762973764055
 20
-38.80602831722346
 11
57.03435638833069
 21
-38.850169847665796
  0
LINE
  8
0
 10
57.03435638833069
 20
-38.850169847665796
 11
57.66962470632987
 21
-39.090992686152305
  0
LINE
  8
0
 10
57.66962470632987
 20
-39.090992686152305
 11
58.33012329462513
 21
-39.313509624968304
  0
LINE
  8
0
 10
58.33012329462513
 20
-39.313509624968304
 11
59.08898250858056
 21
-39.53793991651491
  0
LINE
  8
0
 10
59.08898250858056
 20
-39.53793991651491
 11
59.94714262458441
 21
-39.75720169394934
  0
LINE
  8
0
 10
59.94714262458441
 20
-39.75720169394934
 11
60.905150575135195
 21
-39.96415020930646
  0
LINE
  8
0
 10
60.905150575135195
 20
-39.96415020930646
 11
61.922217507445346
 21
-40.1443441770366
  0
LINE
  8
0
 10
61.922217507445346
 20
-40.1443441770366
 11
62.52879856861662
 21
-39.28944817543958
  0
LINE
  8
0
 10
62.52879856861662
 20
-39.28944817543958
 11
63.03584759245088
 21
-38.37201204973547
  0
LINE
  8
0
 10
63.03584759245088
 20
-38.37201204973547
 11
62.43220963381225
 21
-37.533849639627284
  0
LINE
  8
0
 10
62.43220963381225
 20
-37.533849639627284
 11
61.83009139253909
 21
-36.76050589664073
  0
LINE
  8
0
 10
61.83009139253909
 20
-36.76050589664073
 11
61.26020163725077
 21
-36.08246446827863
  0
LINE
  8
0
 10
61.26020163725077
 20
-36.08246446827863
 11
60.728740258338476
 21
-35.49613259545158
  0
LINE
  8
0
 10
60.728740258338476
 20
-35.49613259545158
 11
60.241679826712904
 21
-34.997590411533935
  0
LINE
  8
0
 10
60.241679826712904
 20
-34.997590411533935
 11
59.749073353404206
 21
-34.52972254787588
  0
LINE
  8
0
 10
59.749073353404206
 20
-34.52972254787588
 11
59.617930150544915
 21
-34.35913672984834
  0
LINE
  8
0
 10
59.617930150544915
 20
-34.35913672984834
 11
59.58142749311269
 21
-34.23036603358027
  0
LINE
  8
0
 10
59.58142749311269
 20
-34.23036603358027
 11
60.682909859983
 21
-32.23738376225825
  0
LINE
  8
0
 10
60.682909859983
 20
-32.23738376225825
 11
60.81136370929695
 21
-32.19978130471183
  0
LINE
  8
0
 10
60.81136370929695
 20
-32.19978130471183
 11
61.025575240005296
 21
-32.22006630114299
  0
LINE
  8
0
 10
61.025575240005296
 20
-32.22006630114299
 11
61.683812727104275
 21
-32.38824741175838
  0
LINE
  8
0
 10
61.683812727104275
 20
-32.38824741175838
 11
62.36507223138918
 21
-32.53541283236246
  0
LINE
  8
0
 10
62.36507223138918
 20
-32.53541283236246
 11
63.14428811790139
 21
-32.67346667901553
  0
LINE
  8
0
 10
63.14428811790139
 20
-32.67346667901553
 11
64.02160183325775
 21
-32.7952663366139
  0
LINE
  8
0
 10
64.02160183325775
 20
-32.7952663366139
 11
64.99675691299718
 21
-32.89365074485732
  0
LINE
  8
0
 10
64.99675691299718
 20
-32.89365074485732
 11
66.02760406510633
 21
-32.95883632450176
  0
LINE
  8
0
 10
66.02760406510633
 20
-32.95883632450176
 11
66.53465308894057
 21
-32.04140019879773
  0
LINE
  8
0
 10
66.53465308894057
 20
-32.04140019879773
 11
66.93579363976649
 21
-31.07296124057613
  0
LINE
  8
0
 10
66.93579363976649
 20
-31.07296124057613
 11
66.24210681477494
 21
-30.3076550275731
  0
LINE
  8
0
 10
66.24210681477494
 20
-30.3076550275731
 11
65.55718753959108
 21
-29.606589761159217
  0
LINE
  8
0
 10
65.55718753959108
 20
-29.606589761159217
 11
64.91496457816513
 21
-28.996619122869838
  0
LINE
  8
0
 10
64.91496457816513
 20
-28.996619122869838
 11
64.32119657588952
 21
-28.473478776651085
  0
LINE
  8
0
 10
64.32119657588952
 20
-28.473478776651085
 11
63.78137966358958
 21
-28.032604787402892
  0
LINE
  8
0
 10
63.78137966358958
 20
-28.032604787402892
 11
63.23948601615022
 21
-27.622833204378313
  0
LINE
  8
0
 10
63.23948601615022
 20
-27.622833204378313
 11
63.090067862478335
 21
-27.46800337417237
  0
LINE
  8
0
 10
63.090067862478335
 20
-27.46800337417237
 11
63.03937698254926
 21
-27.34412936193011
  0
LINE
  8
0
 10
63.03937698254926
 20
-27.34412936193011
 11
63.910790243598655
 21
-25.240351648672988
  0
LINE
  8
0
 10
63.910790243598655
 20
-25.240351648672988
 11
64.03422626261032
 21
-25.188603359545233
  0
LINE
  8
0
 10
64.03422626261032
 20
-25.188603359545233
 11
64.24936207517331
 21
-25.184776726365474
  0
LINE
  8
0
 10
64.24936207517331
 20
-25.184776726365474
 11
64.92229101305354
 21
-25.27820113406279
  0
LINE
  8
0
 10
64.92229101305354
 20
-25.27820113406279
 11
65.61574419978571
 21
-25.348164345903488
  0
LINE
  8
0
 10
65.61574419978571
 20
-25.348164345903488
 11
66.40551766697025
 21
-25.398105640440658
  0
LINE
  8
0
 10
66.40551766697025
 20
-25.398105640440658
 11
67.29095225267922
 21
-25.420911476838853
  0
LINE
  8
0
 10
67.29095225267922
 20
-25.420911476838853
 11
68.27099132068143
 21
-25.409494536950955
  0
LINE
  8
0
 10
68.27099132068143
 20
-25.409494536950955
 11
69.30265519154044
 21
-25.35885198202416
  0
LINE
  8
0
 10
69.30265519154044
 20
-25.35885198202416
 11
69.70379574236631
 21
-24.390413023802548
  0
LINE
  8
0
 10
69.70379574236631
 20
-24.390413023802548
 11
69.99398324501034
 21
-23.383149914864532
  0
LINE
  8
0
 10
69.99398324501034
 20
-23.383149914864532
 11
69.21897106797623
 21
-22.700324068636075
  0
LINE
  8
0
 10
69.21897106797623
 20
-22.700324068636075
 11
68.45986401616656
 21
-22.080353581287557
  0
LINE
  8
0
 10
68.45986401616656
 20
-22.080353581287557
 11
67.7533841749693
 21
-21.5461244677606
  0
LINE
  8
0
 10
67.7533841749693
 20
-21.5461244677606
 11
67.10477652647123
 21
-21.092754441536943
  0
LINE
  8
0
 10
67.10477652647123
 20
-21.092754441536943
 11
66.51899164437816
 21
-20.715092893174035
  0
LINE
  8
0
 10
66.51899164437816
 20
-20.715092893174035
 11
65.93462544983872
 21
-20.36857070619449
  0
LINE
  8
0
 10
65.93462544983872
 20
-20.36857070619449
 11
65.76881136533109
 21
-20.231443938759345
  0
LINE
  8
0
 10
65.76881136533109
 20
-20.231443938759345
 11
65.70456973013182
 21
-20.11402439812022
  0
LINE
  8
0
 10
65.70456973013182
 20
-20.11402439812022
 11
66.33495535799683
 21
-17.925907468312463
  0
LINE
  8
0
 10
66.33495535799683
 20
-17.925907468312463
 11
66.45182126714792
 21
-17.860664112364205
  0
LINE
  8
0
 10
66.45182126714792
 20
-17.860664112364205
 11
66.66517590389785
 21
-17.832773971706022
  0
LINE
  8
0
 10
66.66517590389785
 20
-17.832773971706022
 11
67.34433382072301
 21
-17.850266810352373
  0
LINE
  8
0
 10
67.34433382072301
 20
-17.850266810352373
 11
68.0412601137284
 21
-17.842147985447184
  0
LINE
  8
0
 10
68.0412601137284
 20
-17.842147985447184
 11
68.83165930199817
 21
-17.803348687113036
  0
LINE
  8
0
 10
68.83165930199817
 20
-17.803348687113036
 11
69.71407990440336
 21
-17.726873905686094
  0
LINE
  8
0
 10
69.71407990440336
 20
-17.726873905686094
 11
70.6866784007563
 21
-17.60579919231023
  0
LINE
  8
0
 10
70.6866784007563
 20
-17.60579919231023
 11
71.7061852186037
 21
-17.439965362323836
  0
LINE
  8
0
 10
71.7061852186037
 20
-17.439965362323836
 11
71.99637272124728
 21
-16.432702253385642
  0
LINE
  8
0
 10
71.99637272124728
 20
-16.432702253385642
 11
72.17195789949226
 21
-15.399281911753587
  0
LINE
  8
0
 10
72.17195789949226
 20
-15.399281911753587
 11
71.32536659821524
 21
-14.807523363501073
  0
LINE
  8
0
 10
71.32536659821524
 20
-14.807523363501073
 11
70.50161798140041
 21
-14.27644414381158
  0
LINE
  8
0
 10
70.50161798140041
 20
-14.27644414381158
 11
69.73976565434408
 21
-13.8246747961166
  0
LINE
  8
0
 10
69.73976565434408
 20
-13.8246747961166
 11
69.04447497713434
 21
-13.446776481019219
  0
LINE
  8
0
 10
69.04447497713434
 20
-13.446776481019219
 11
68.42008871002076
 21
-13.137076686636599
  0
LINE
  8
0
 10
68.42008871002076
 20
-13.137076686636599
 11
67.80059871233473
 21
-12.858161613260208
  0
LINE
  8
0
 10
67.80059871233473
 20
-12.858161613260208
 11
67.62047390531161
 21
-12.740462357259158
  0
LINE
  8
0
 10
67.62047390531161
 20
-12.740462357259158
 11
67.54348939067864
 21
-12.630973907075111
  0
LINE
  8
0
 10
67.54348939067864
 20
-12.630973907075111
 11
67.92491992033062
 21
-10.386034600684066
  0
LINE
  8
0
 10
67.92491992033062
 20
-10.386034600684066
 11
68.03374606300636
 21
-10.308116650971435
  0
LINE
  8
0
 10
68.03374606300636
 20
-10.308116650971435
 11
68.24263646559486
 21
-10.256513737535839
  0
LINE
  8
0
 10
68.24263646559486
 20
-10.256513737535839
 11
68.91948255650428
 21
-10.19785502453567
  0
LINE
  8
0
 10
68.91948255650428
 20
-10.19785502453567
 11
69.61111770328229
 21
-10.111756261818424
  0
LINE
  8
0
 10
69.61111770328229
 20
-10.111756261818424
 11
70.39220288424451
 21
-9.98470429430139
  0
LINE
  8
0
 10
70.39220288424451
 20
-9.98470429430139
 11
71.26051255227831
 21
-9.809910609797456
  0
LINE
  8
0
 10
71.26051255227831
 20
-9.809910609797456
 11
72.21343948657555
 21
-9.580700707703514
  0
LINE
  8
0
 10
72.21343948657555
 20
-9.580700707703514
 11
73.20796836164526
 21
-9.301761059288644
  0
LINE
  8
0
 10
0.3118675362266391
 20
-1.4672214011007085
 11
9.18454765366783e-17
 21
-1.5
  0
LINE
  8
0
 10
9.18454765366783e-17
 20
-1.5
 11
-0.3118675362266384
 21
-1.4672214011007085
  0
LINE
  8
0
 10
-0.3118675362266384
 20
-1.4672214011007085
 11
-0.6101049646137001
 21
-1.3703181864639014
  0
LINE
  8
0
 10
-0.6101049646137001
 20
-1.3703181864639014
 11
-0.8816778784387099
 21
-1.213525491562421
  0
LINE
  8
0
 10
-0.8816778784387099
 20
-1.213525491562421
 11
-1.114717238216091
 21
-1.0036959095382878
  0
LINE
  8
0
 10
-1.114717238216091
 20
-1.0036959095382878
 11
-1.299038105676658
 21
-0.7500000000000003
  0
LINE
  8
0
 10
-1.299038105676658
 20
-0.7500000000000003
 11
-1.4265847744427305
 21
-0.46352549156242095
  0
LINE
  8
0
 10
-1.4265847744427305
 20
-0.46352549156242095
 11
-1.49178284305241
 21
-0.15679269490147957
  0
LINE
  8
0
 10
-1.49178284305241
 20
-0.15679269490147957
 11
-1.4917828430524098
 21
0.15679269490148126
  0
LINE
  8
0
 10
-1.4917828430524098
 20
0.15679269490148126
 11
-1.4265847744427302
 21
0.46352549156242123
  0
LINE
  8
0
 10
-1.4265847744427302
 20
0.46352549156242123
 11
-1.2990381056766576
 21
0.7500000000000006
  0
LINE
  8
0
 10
-1.2990381056766576
 20
0.7500000000000006
 11
-1.114717238216091
 21
1.0036959095382878
  0
LINE
  8
0
 10
-1.114717238216091
 20
1.0036959095382878
 11
-0.8816778784387097
 21
1.2135254915624214
  0
LINE
  8
0
 10
-0.8816778784387097
 20
1.2135254915624214
 11
-0.6101049646137005
 21
1.3703181864639014
  0
LINE
  8
0
 10
-0.6101049646137005
 20
1.3703181864639014
 11
-0.3118675362266387
 21
1.4672214011007085
  0
LINE
  8
0
 10
-0.3118675362266387
 20
1.4672214011007085
 11
7.579792913117722e-16
 21
1.5
  0
LINE
  8
0
 10
7.579792913117722e-16
 20
1.5
 11
0.3118675362266389
 21
1.4672214011007085
  0
LINE
  8
0
 10
0.3118675362266389
 20
1.4672214011007085
 11
0.6101049646136999
 21
1.3703181864639014
  0
LINE
  8
0
 10
0.6101049646136999
 20
1.3703181864639014
 11
0.8816778784387097
 21
1.213525491562421
  0
LINE
  8
0
 10
0.8816778784387097
 20
1.213525491562421
 11
1.1147172382160917
 21
1.003695909538287
  0
LINE
  8
0
 10
1.1147172382160917
 20
1.003695909538287
 11
1.299038105676658
 21
0.7499999999999998
  0
LINE
  8
0
 10
1.299038105676658
 20
0.7499999999999998
 11
1.4265847744427305
 21
0.4635254915624211
  0
LINE
  8
0
 10
1.4265847744427305
 20
0.4635254915624211
 11
1.49178284305241
 21
0.1567926949014801
  0
LINE
  8
0
 10
1.49178284305241
 20
0.1567926949014801
 11
1.4917828430524098
 21
-0.1567926949014801
  0
LINE
  8
0
 10
1.4917828430524098
 20
-0.1567926949014801
 11
1.4265847744427302
 21
-0.46352549156242107
  0
LINE
  8
0
 10
1.4265847744427302
 20
-0.46352549156242107
 11
1.299038105676658
 21
-0.7500000000000001
  0
LINE
  8
0
 10
1.299038105676658
 20
-0.7500000000000001
 11
1.1147172382160913
 21
-1.0036959095382874
  0
LINE
  8
0
 10
1.1147172382160913
 20
-1.0036959095382874
 11
0.8816778784387098
 21
-1.2135254915624212
  0
LINE
  8
0
 10
0.8816778784387098
 20
-1.2135254915624212
 11
0.6101049646137003
 21
-1.3703181864639014
  0
LINE
  8
0
 10
0.6101049646137003
 20
-1.3703181864639014
 11
0.3118675362266391
 21
-1.4672214011007085
  0
ENDSEC
  0
SECTION
  2
OBJECTS
  0
DICTIONARY
  0
ENDSEC
  0
EOF
