  0
SECTION
  2
BLOCKS
  0
ENDSEC
  0
SECTION
  2
ENTITIES
  0
LINE
  8
0
 10
56.460165392130705
 20
-9.352543355814873
 11
56.685199479961746
 21
-8.342332403392152
  0
LINE
  8
0
 10
56.685199479961746
 20
-8.342332403392152
 11
56.7607475680168
 21
-7.310121671287511
  0
LINE
  8
0
 10
56.7607475680168
 20
-7.310121671287511
 11
55.91935973293957
 21
-6.795732548790001
  0
LINE
  8
0
 10
55.91935973293957
 20
-6.795732548790001
 11
55.02812476157389
 21
-6.308822946641447
  0
LINE
  8
0
 10
55.02812476157389
 20
-6.308822946641447
 11
54.2248528028324
 21
-5.919494388333013
  0
LINE
  8
0
 10
54.2248528028324
 20
-5.919494388333013
 11
53.516669560117656
 21
-5.617899400391119
  0
LINE
  8
0
 10
53.516669560117656
 20
-5.617899400391119
 11
52.9099445955698
 21
-5.39374101843028
  0
LINE
  8
0
 10
52.9099445955698
 20
-5.39374101843028
 11
52.29495359089109
 21
-5.199995902479078
  0
LINE
  8
0
 10
52.29495359089109
 20
-5.199995902479078
 11
52.044695373553346
 21
-5.074069211708725
  0
LINE
  8
0
 10
52.044695373553346
 20
-5.074069211708725
 11
51.930583125738806
 21
-4.9424305525014685
  0
LINE
  8
0
 10
51.930583125738806
 20
-4.9424305525014685
 11
52.0968016756157
 21
-2.6713926549760316
  0
LINE
  8
0
 10
52.0968016756157
 20
-2.6713926549760316
 11
52.22886461370768
 21
-2.5577716970451774
  0
LINE
  8
0
 10
52.22886461370768
 20
-2.5577716970451774
 11
52.49479099456121
 21
-2.4696248493414648
  0
LINE
  8
0
 10
52.49479099456121
 20
-2.4696248493414648
 11
53.13143778159053
 21
-2.3674878122104857
  0
LINE
  8
0
 10
53.13143778159053
 20
-2.3674878122104857
 11
53.76433482368387
 21
-2.23405806694957
  0
LINE
  8
0
 10
53.76433482368387
 20
-2.23405806694957
 11
54.508883800672926
 21
-2.038789372894362
  0
LINE
  8
0
 10
54.508883800672926
 20
-2.038789372894362
 11
55.36028227854083
 21
-1.7705670809317444
  0
LINE
  8
0
 10
55.36028227854083
 20
-1.7705670809317444
 11
56.31291429350626
 21
-1.4186111477533045
  0
LINE
  8
0
 10
56.31291429350626
 20
-1.4186111477533045
 11
57.22023142502729
 21
-1.0322107321046357
  0
LINE
  8
0
 10
57.22023142502729
 20
-1.0322107321046357
 11
57.29577951308233
 21
-4.440892098500626e-15
  0
LINE
  8
0
 10
57.29577951308233
 20
-4.440892098500626e-15
 11
57.22023142502729
 21
1.0322107321046432
  0
LINE
  8
0
 10
57.22023142502729
 20
1.0322107321046432
 11
56.31291429350874
 21
1.4186111477522578
  0
LINE
  8
0
 10
56.31291429350874
 20
1.4186111477522578
 11
55.360282278537284
 21
1.7705670809329044
  0
LINE
  8
0
 10
55.360282278537284
 20
1.7705670809329044
 11
54.50888380067339
 21
2.0387893728960513
  0
LINE
  8
0
 10
54.50888380067339
 20
2.0387893728960513
 11
53.76433482368426
 21
2.234058066951427
  0
LINE
  8
0
 10
53.76433482368426
 20
2.234058066951427
 11
53.13143778159214
 21
2.3674878122106837
  0
LINE
  8
0
 10
53.13143778159214
 20
2.3674878122106837
 11
52.49479099456197
 21
2.469624849346206
  0
LINE
  8
0
 10
52.49479099456197
 20
2.469624849346206
 11
52.2288646137074
 21
2.5577716970438424
  0
LINE
  8
0
 10
52.2288646137074
 20
2.5577716970438424
 11
52.0968016756163
 21
2.671392654978178
  0
LINE
  8
0
 10
52.0968016756163
 20
2.671392654978178
 11
51.93058312573791
 21
4.942430552503507
  0
LINE
  8
0
 10
51.93058312573791
 20
4.942430552503507
 11
52.044695373553814
 21
5.074069211707446
  0
LINE
  8
0
 10
52.044695373553814
 20
5.074069211707446
 11
52.294953590889655
 21
5.199995902483659
  0
LINE
  8
0
 10
52.294953590889655
 20
5.199995902483659
 11
52.90994459556818
 21
5.393741018430241
  0
LINE
  8
0
 10
52.90994459556818
 20
5.393741018430241
 11
53.516669560117
 21
5.617899400392901
  0
LINE
  8
0
 10
53.516669560117
 20
5.617899400392901
 11
54.224852802831705
 21
5.919494388334618
  0
LINE
  8
0
 10
54.224852802831705
 20
5.919494388334618
 11
55.028124761577246
 21
6.308822946643113
  0
LINE
  8
0
 10
55.028124761577246
 20
6.308822946643113
 11
55.91935973293728
 21
6.795732548788607
  0
LINE
  8
0
 10
55.91935973293728
 20
6.795732548788607
 11
56.7607475680168
 21
7.310121671287519
  0
LINE
  8
0
 10
56.7607475680168
 20
7.310121671287519
 11
56.68519947996176
 21
8.342332403392152
  0
LINE
  8
0
 10
56.68519947996176
 20
8.342332403392152
 11
56.46016539213072
 21
9.352543355814884
  0
LINE
  8
0
 10
56.46016539213072
 20
9.352543355814884
 11
55.50625685359032
 21
9.602719610602236
  0
LINE
  8
0
 10
55.50625685359032
 20
9.602719610602236
 11
54.51253149249991
 21
9.8122205451476
  0
LINE
  8
0
 10
54.51253149249991
 20
9.8122205451476
 11
53.63115257591364
 21
9.953619878286457
  0
LINE
  8
0
 10
53.63115257591364
 20
9.953619878286457
 11
52.86610663344578
 21
10.038400465257315
  0
LINE
  8
0
 10
52.86610663344578
 20
10.038400465257315
 11
52.22052661545727
 21
10.078257750448866
  0
LINE
  8
0
 10
52.22052661545727
 20
10.078257750448866
 11
51.57579306702671
 21
10.086609835147403
  0
LINE
  8
0
 10
51.57579306702671
 20
10.086609835147403
 11
51.29986628177509
 21
10.135098142749818
  0
LINE
  8
0
 10
51.29986628177509
 20
10.135098142749818
 11
51.15266734565173
 21
10.228279765955914
  0
LINE
  8
0
 10
51.15266734565173
 20
10.228279765955914
 11
50.657554355828346
 21
12.450914433558326
  0
LINE
  8
0
 10
50.657554355828346
 20
12.450914433558326
 11
50.751283808922
 21
12.597765144558908
  0
LINE
  8
0
 10
50.751283808922
 20
12.597765144558908
 11
50.98054004332349
 21
12.758787769621376
  0
LINE
  8
0
 10
50.98054004332349
 20
12.758787769621376
 11
51.56076780010326
 21
13.040011623607787
  0
LINE
  8
0
 10
51.56076780010326
 20
13.040011623607787
 11
52.12838939785389
 21
13.35012109553328
  0
LINE
  8
0
 10
52.12838939785389
 20
13.35012109553328
 11
52.785113209988275
 21
13.751614403807736
  0
LINE
  8
0
 10
52.785113209988275
 20
13.751614403807736
 11
53.52313830241157
 21
14.253751366174622
  0
LINE
  8
0
 10
53.52313830241157
 20
14.253751366174622
 11
54.33398110406946
 21
14.865237004465651
  0
LINE
  8
0
 10
54.33398110406946
 20
14.865237004465651
 11
55.091506921778446
 21
15.49665152272553
  0
LINE
  8
0
 10
55.091506921778446
 20
15.49665152272553
 11
54.866472833947405
 21
16.506862475148246
  0
LINE
  8
0
 10
54.866472833947405
 20
16.506862475148246
 11
54.496748957229464
 21
17.473542755316124
  0
LINE
  8
0
 10
54.496748957229464
 20
17.473542755316124
 11
53.5165799160377
 21
17.582162776715993
  0
LINE
  8
0
 10
53.5165799160377
 20
17.582162776715993
 11
52.50294073964348
 21
17.64474356393134
  0
LINE
  8
0
 10
52.50294073964348
 20
17.64474356393134
 11
51.61036644573566
 21
17.656306256950533
  0
LINE
  8
0
 10
51.61036644573566
 20
17.656306256950533
 11
50.841129163818096
 21
17.628791785817416
  0
LINE
  8
0
 10
50.841129163818096
 20
17.628791785817416
 11
50.196625587192706
 21
17.574227122105643
  0
LINE
  8
0
 10
50.196625587192706
 20
17.574227122105643
 11
49.55754665359227
 21
17.48861624418232
  0
LINE
  8
0
 10
49.55754665359227
 20
17.48861624418232
 11
49.27750036432089
 21
17.496412567595954
  0
LINE
  8
0
 10
49.27750036432089
 20
17.496412567595954
 11
49.11830271992928
 21
17.56716885155247
  0
LINE
  8
0
 10
49.11830271992928
 20
17.56716885155247
 11
48.30484776394847
 21
19.69402869011969
  0
LINE
  8
0
 10
48.30484776394847
 20
19.69402869011969
 11
48.376196741755585
 21
19.852961584966828
  0
LINE
  8
0
 10
48.376196741755585
 20
19.852961584966828
 11
48.57956479460971
 21
20.04564822662181
  0
LINE
  8
0
 10
48.57956479460971
 20
20.04564822662181
 11
49.11266275621752
 21
20.408357020447188
  0
LINE
  8
0
 10
49.11266275621752
 20
20.408357020447188
 11
49.62908311829026
 21
20.79780813733805
  0
LINE
  8
0
 10
49.62908311829026
 20
20.79780813733805
 11
50.22035057195987
 21
21.290642633132066
  0
LINE
  8
0
 10
50.22035057195987
 20
21.290642633132066
 11
50.877399074538346
 21
21.894885821989693
  0
LINE
  8
0
 10
50.877399074538346
 20
21.894885821989693
 11
51.59056799992167
 21
22.617914741677012
  0
LINE
  8
0
 10
51.59056799992167
 20
22.617914741677012
 11
52.24808645263427
 21
23.352897151471616
  0
LINE
  8
0
 10
52.24808645263427
 20
23.352897151471616
 11
51.87836257591636
 21
24.31957743163948
  0
LINE
  8
0
 10
51.87836257591636
 20
24.31957743163948
 11
51.37182893284755
 21
25.22212392768289
  0
LINE
  8
0
 10
51.37182893284755
 20
25.22212392768289
 11
50.386289990396754
 21
25.18687266851983
  0
LINE
  8
0
 10
50.386289990396754
 20
25.18687266851983
 11
49.37434095791368
 21
25.101199507575302
  0
LINE
  8
0
 10
49.37434095791368
 20
25.101199507575302
 11
48.4895949581159
 21
24.982679121747704
  0
LINE
  8
0
 10
48.4895949581159
 20
24.982679121747704
 11
47.73256129390123
 21
24.843456015693565
  0
LINE
  8
0
 10
47.73256129390123
 20
24.843456015693565
 11
47.10287063341971
 21
24.69563235415303
  0
LINE
  8
0
 10
47.10287063341971
 20
24.69563235415303
 11
46.48306717258207
 21
24.517883160837435
  0
LINE
  8
0
 10
46.48306717258207
 20
24.517883160837435
 11
46.20487007974432
 21
24.484821334964316
  0
LINE
  8
0
 10
46.20487007974432
 20
24.484821334964316
 11
46.037066748483646
 21
24.531644232322254
  0
LINE
  8
0
 10
46.037066748483646
 20
24.531644232322254
 11
44.92260720645212
 21
26.517398916943396
  0
LINE
  8
0
 10
44.92260720645212
 20
26.517398916943396
 11
44.970055029383275
 21
26.685026616914804
  0
LINE
  8
0
 10
44.970055029383275
 20
26.685026616914804
 11
45.14320046372095
 21
26.905270493928388
  0
LINE
  8
0
 10
45.14320046372095
 20
26.905270493928388
 11
45.61780657264327
 21
27.34173371936929
  0
LINE
  8
0
 10
45.61780657264327
 20
27.34173371936929
 11
46.07201909560388
 21
27.80222600681464
  0
LINE
  8
0
 10
46.07201909560388
 20
27.80222600681464
 11
46.585228351562854
 21
28.375897778485086
  0
LINE
  8
0
 10
46.585228351562854
 20
28.375897778485086
 11
47.14729641619896
 21
29.0693687993199
  0
LINE
  8
0
 10
47.14729641619896
 20
29.0693687993199
 11
47.747591507831544
 21
29.888530894267188
  0
LINE
  8
0
 10
47.747591507831544
 20
29.888530894267188
 11
48.29108873127896
 21
30.71141632157159
  0
LINE
  8
0
 10
48.29108873127896
 20
30.71141632157159
 11
47.78455508821024
 21
31.613962817615025
  0
LINE
  8
0
 10
47.78455508821024
 20
31.613962817615025
 11
47.1520075639742
 21
32.43313931792717
  0
LINE
  8
0
 10
47.1520075639742
 20
32.43313931792717
 11
46.182103771778976
 21
32.2547680975887
  0
LINE
  8
0
 10
46.182103771778976
 20
32.2547680975887
 11
45.1934128199389
 21
32.022666963168355
  0
LINE
  8
0
 10
45.1934128199389
 20
32.022666963168355
 11
44.335351939184875
 21
31.776589554748693
  0
LINE
  8
0
 10
44.335351939184875
 20
31.776589554748693
 11
43.60665675090167
 21
31.528625112566846
  0
LINE
  8
0
 10
43.60665675090167
 20
31.528625112566846
 11
43.00519976975461
 21
31.290693057899205
  0
LINE
  8
0
 10
43.00519976975461
 20
31.290693057899205
 11
42.41788181637559
 21
31.024593964647565
  0
LINE
  8
0
 10
42.41788181637559
 20
31.024593964647565
 11
42.14746320801337
 21
30.951378644905876
  0
LINE
  8
0
 10
42.14746320801337
 20
30.951378644905876
 11
41.974630626557655
 21
30.97327020689963
  0
LINE
  8
0
 10
41.974630626557655
 20
30.97327020689963
 11
40.582919268744654
 21
32.77559682404044
  0
LINE
  8
0
 10
40.582919268744654
 20
32.77559682404044
 11
40.60545466883062
 21
32.94834663573809
  0
LINE
  8
0
 10
40.60545466883062
 20
32.94834663573809
 11
40.74468719032543
 21
33.19145363224818
  0
LINE
  8
0
 10
40.74468719032543
 20
33.19145363224818
 11
41.15068604133806
 21
33.69236883342006
  0
LINE
  8
0
 10
41.15068604133806
 20
33.69236883342006
 11
41.5330099738408
 21
34.21408769779678
  0
LINE
  8
0
 10
41.5330099738408
 20
34.21408769779678
 11
41.95722286780675
 21
34.856369927510876
  0
LINE
  8
0
 10
41.95722286780675
 20
34.856369927510876
 11
42.41233098953737
 21
35.62428864948365
  0
LINE
  8
0
 10
42.41233098953737
 20
35.62428864948365
 11
42.88695799974353
 21
36.52212490182556
  0
LINE
  8
0
 10
42.88695799974353
 20
36.52212490182556
 11
43.30485029420076
 21
37.415374972409474
  0
LINE
  8
0
 10
43.30485029420076
 20
37.415374972409474
 11
42.672302769964716
 21
38.23455147272159
  0
LINE
  8
0
 10
42.672302769964716
 20
38.23455147272159
 11
41.92722301684297
 21
38.95289865241174
  0
LINE
  8
0
 10
41.92722301684297
 20
38.95289865241174
 11
40.99362619033535
 21
38.635209143780216
  0
LINE
  8
0
 10
40.99362619033535
 20
38.635209143780216
 11
40.04926555026073
 21
38.26162686860179
  0
LINE
  8
0
 10
40.04926555026073
 20
38.26162686860179
 11
39.23617786650115
 21
37.893237150323166
  0
LINE
  8
0
 10
39.23617786650115
 20
37.893237150323166
 11
38.55135202696336
 21
37.5418163035952
  0
LINE
  8
0
 10
38.55135202696336
 20
37.5418163035952
 11
37.990947736484245
 21
37.2188469644599
  0
LINE
  8
0
 10
37.990947736484245
 20
37.2188469644599
 11
37.44863295306793
 21
36.87006941145687
  0
LINE
  8
0
 10
37.44863295306793
 20
36.87006941145687
 11
37.19175633233114
 21
36.75826105527412
  0
LINE
  8
0
 10
37.19175633233114
 20
36.75826105527412
 11
37.0175781270908
 21
36.75475470126684
  0
LINE
  8
0
 10
37.0175781270908
 20
36.75475470126684
 11
35.378276864868106
 21
38.3352397881927
  0
LINE
  8
0
 10
35.378276864868106
 20
38.3352397881927
 11
35.3754195391809
 21
38.50942984929989
  0
LINE
  8
0
 10
35.3754195391809
 20
38.50942984929989
 11
35.477771648365746
 21
38.77021856174614
  0
LINE
  8
0
 10
35.477771648365746
 20
38.77021856174614
 11
35.806510080834364
 21
39.32490960080006
  0
LINE
  8
0
 10
35.806510080834364
 20
39.32490960080006
 11
36.10879685202972
 21
39.89673551029629
  0
LINE
  8
0
 10
36.10879685202972
 20
39.89673551029629
 11
36.434972022665065
 21
40.59393906742611
  0
LINE
  8
0
 10
36.434972022665065
 20
40.59393906742611
 11
36.773420362011564
 21
41.41993863620025
  0
LINE
  8
0
 10
36.773420362011564
 20
41.41993863620025
 11
37.11226344009254
 21
42.377313224996726
  0
LINE
  8
0
 10
37.11226344009254
 20
42.377313224996726
 11
37.395644156827174
 21
43.321889864422026
  0
LINE
  8
0
 10
37.395644156827174
 20
43.321889864422026
 11
36.65056440370541
 21
44.04023704411216
  0
LINE
  8
0
 10
36.65056440370541
 20
44.04023704411216
 11
35.808832503065254
 21
44.64244458020376
  0
LINE
  8
0
 10
35.808832503065254
 20
44.64244458020376
 11
34.931440637737886
 21
44.192207783598924
  0
LINE
  8
0
 10
34.931440637737886
 20
44.192207783598924
 11
34.051537716919974
 21
43.68510662526289
  0
LINE
  8
0
 10
34.051537716919974
 20
43.68510662526289
 11
33.30075278249182
 21
43.202256184390535
  0
LINE
  8
0
 10
33.30075278249182
 20
43.202256184390535
 11
32.67439216550865
 21
42.75486885834508
  0
LINE
  8
0
 10
32.67439216550865
 20
42.75486885834508
 11
32.166984610202995
 21
42.35374576548249
  0
LINE
  8
0
 10
32.166984610202995
 20
42.35374576548249
 11
31.681231494817972
 21
41.92972334074011
  0
LINE
  8
0
 10
31.681231494817972
 20
41.92972334074011
 11
31.443371740901227
 21
41.781704949112225
  0
LINE
  8
0
 10
31.443371740901227
 20
41.781704949112225
 11
31.271560217921422
 21
41.75287541095202
  0
LINE
  8
0
 10
31.271560217921422
 20
41.75287541095202
 11
29.41960791162008
 21
43.07783367199465
  0
LINE
  8
0
 10
29.41960791162008
 20
43.07783367199465
 11
29.391418759095973
 21
43.24975142377899
  0
LINE
  8
0
 10
29.391418759095973
 20
43.24975142377899
 11
29.454708998462216
 21
43.52266359352398
  0
LINE
  8
0
 10
29.454708998462216
 20
43.52266359352398
 11
29.699180523438063
 21
44.11930819398948
  0
LINE
  8
0
 10
29.699180523438063
 20
44.11930819398948
 11
29.91498741561324
 21
44.729053672119974
  0
LINE
  8
0
 10
29.91498741561324
 20
44.729053672119974
 11
30.136173005444988
 21
45.466318873295414
  0
LINE
  8
0
 10
30.136173005444988
 20
45.466318873295414
 11
30.350748123651346
 21
46.33279454212184
  0
LINE
  8
0
 10
30.350748123651346
 20
46.33279454212184
 11
30.546585417680337
 21
47.32930269015877
  0
LINE
  8
0
 10
30.546585417680337
 20
47.32930269015877
 11
30.689414788706543
 21
48.30507388728297
  0
LINE
  8
0
 10
30.689414788706543
 20
48.30507388728297
 11
29.847682888066466
 21
48.90728142337461
  0
LINE
  8
0
 10
29.847682888066466
 20
48.90728142337461
 11
28.927238893997195
 21
49.3805143077588
  0
LINE
  8
0
 10
28.927238893997195
 20
49.3805143077588
 11
28.124752074175408
 21
48.807326238821496
  0
LINE
  8
0
 10
28.124752074175408
 20
48.807326238821496
 11
27.328060475727785
 21
48.17751417811401
  0
LINE
  8
0
 10
27.328060475727785
 20
48.17751417811401
 11
26.65557996803296
 21
47.590494133494204
  0
LINE
  8
0
 10
26.65557996803296
 20
47.590494133494204
 11
26.101034362699288
 21
47.0566756122543
  0
LINE
  8
0
 10
26.101034362699288
 20
47.0566756122543
 11
25.657438053672703
 21
46.58594800797887
  0
LINE
  8
0
 10
25.657438053672703
 20
46.58594800797887
 11
25.238599590633026
 21
46.095718013313885
  0
LINE
  8
0
 10
25.238599590633026
 20
46.095718013313885
 11
25.024826271230793
 21
45.914644341276265
  0
LINE
  8
0
 10
25.024826271230793
 20
45.914644341276265
 11
24.859043294833224
 21
45.8611060705166
  0
LINE
  8
0
 10
24.859043294833224
 20
45.8611060705166
 11
22.833911092594644
 21
46.90229832066844
  0
LINE
  8
0
 10
22.833911092594644
 20
46.90229832066844
 11
22.78099091607908
 21
47.06827963472569
  0
LINE
  8
0
 10
22.78099091607908
 20
47.06827963472569
 11
22.803870364055996
 21
47.34749861268784
  0
LINE
  8
0
 10
22.803870364055996
 20
47.34749861268784
 11
22.958864495423494
 21
47.97338033077066
  0
LINE
  8
0
 10
22.958864495423494
 20
47.97338033077066
 11
23.083591959344968
 21
48.60804971127881
  0
LINE
  8
0
 10
23.083591959344968
 20
48.60804971127881
 11
23.195073781537264
 21
49.36966302873996
  0
LINE
  8
0
 10
23.195073781537264
 20
49.36966302873996
 11
23.281202382493564
 21
50.25814737306954
  0
LINE
  8
0
 10
23.281202382493564
 20
50.25814737306954
 11
23.329859960551296
 21
51.272550239259374
  0
LINE
  8
0
 10
23.329859960551296
 20
51.272550239259374
 11
23.32909382579896
 21
52.258719125101216
  0
LINE
  8
0
 10
23.32909382579896
 20
52.258719125101216
 11
22.408649831729658
 21
52.73195200948533
  0
LINE
  8
0
 10
22.408649831729658
 20
52.73195200948533
 11
21.429111409935683
 21
53.066124104834664
  0
LINE
  8
0
 10
21.429111409935683
 20
53.066124104834664
 11
20.718633248946386
 21
52.382201272113804
  0
LINE
  8
0
 10
20.718633248946386
 20
52.382201272113804
 11
20.022133071113668
 21
51.64310165966049
  0
LINE
  8
0
 10
20.022133071113668
 20
51.64310165966049
 11
19.442289744646512
 21
50.96442332438934
  0
LINE
  8
0
 10
19.442289744646512
 20
50.96442332438934
 11
18.97137832776555
 21
50.35555102294609
  0
LINE
  8
0
 10
18.97137832776555
 20
50.35555102294609
 11
18.601047750195104
 21
49.825251648889086
  0
LINE
  8
0
 10
18.601047750195104
 20
49.825251648889086
 11
18.258050754173972
 21
49.279262485524875
  0
LINE
  8
0
 10
18.258050754173972
 20
49.279262485524875
 11
18.072920076446717
 21
49.068992804025896
  0
LINE
  8
0
 10
18.072920076446717
 20
49.068992804025896
 11
17.916699022949146
 21
48.99188687595755
  0
LINE
  8
0
 10
17.916699022949146
 20
48.99188687595755
 11
15.761549101730317
 21
49.72712191007277
  0
LINE
  8
0
 10
15.761549101730317
 20
49.72712191007277
 11
15.685025802908356
 21
49.88362918286229
  0
LINE
  8
0
 10
15.685025802908356
 20
49.88362918286229
 11
15.667006823784472
 21
50.16320390129243
  0
LINE
  8
0
 10
15.667006823784472
 20
50.16320390129243
 11
15.729220130726622
 21
50.80498315479629
  0
LINE
  8
0
 10
15.729220130726622
 20
50.80498315479629
 11
15.760209817046519
 21
51.451049561717966
  0
LINE
  8
0
 10
15.760209817046519
 20
51.451049561717966
 11
15.75961183010852
 21
52.22077852987826
  0
LINE
  8
0
 10
15.75961183010852
 20
52.22077852987826
 11
15.715458232217568
 21
53.112335048453915
  0
LINE
  8
0
 10
15.715458232217568
 20
53.112335048453915
 11
15.615899042504603
 21
54.12301239685958
  0
LINE
  8
0
 10
15.615899042504603
 20
54.12301239685958
 11
15.471553730805823
 21
55.098560493754626
  0
LINE
  8
0
 10
15.471553730805823
 20
55.098560493754626
 11
14.492015309011858
 21
55.43273258910395
  0
LINE
  8
0
 10
14.492015309011858
 20
55.43273258910395
 11
13.474259620327933
 21
55.62072159737906
  0
LINE
  8
0
 10
13.474259620327933
 20
55.62072159737906
 11
12.87093272667575
 21
54.840640628661276
  0
LINE
  8
0
 10
12.87093272667575
 20
54.840640628661276
 11
12.28946866151951
 21
54.00800608951363
  0
LINE
  8
0
 10
12.28946866151951
 20
54.00800608951363
 11
11.814620870088547
 21
53.25213431401989
  0
LINE
  8
0
 10
11.814620870088547
 20
53.25213431401989
 11
11.43738030093815
 21
52.581185288384766
  0
LINE
  8
0
 10
11.43738030093815
 20
52.581185288384766
 11
11.148208408135247
 21
52.00261655502486
  0
LINE
  8
0
 10
11.148208408135247
 20
52.00261655502486
 11
10.888363264608541
 21
51.41250503405932
  0
LINE
  8
0
 10
10.888363264608541
 20
51.41250503405932
 11
10.73582096753735
 21
51.17752087630037
  0
LINE
  8
0
 10
10.73582096753735
 20
51.17752087630037
 11
10.592491417471866
 21
51.07849066991264
  0
LINE
  8
0
 10
10.592491417471866
 20
51.07849066991264
 11
8.353257056179558
 21
51.49209822971755
  0
LINE
  8
0
 10
8.353257056179558
 20
51.49209822971755
 11
8.254761596309645
 21
51.63579578043997
  0
LINE
  8
0
 10
8.254761596309645
 20
51.63579578043997
 11
8.196228233341333
 21
51.909767589598474
  0
LINE
  8
0
 10
8.196228233341333
 20
51.909767589598474
 11
8.16433474723231
 21
52.553765967960146
  0
LINE
  8
0
 10
8.16433474723231
 20
52.553765967960146
 11
8.100926164589472
 21
53.19745961750014
  0
LINE
  8
0
 10
8.100926164589472
 20
53.19745961750014
 11
7.988261113574569
 21
53.958898799768356
  0
LINE
  8
0
 10
7.988261113574569
 20
53.958898799768356
 11
7.814766374118129
 21
54.83452551327269
  0
LINE
  8
0
 10
7.814766374118129
 20
54.83452551327269
 11
7.569112347913492
 21
55.81993651090061
  0
LINE
  8
0
 10
7.569112347913492
 20
55.81993651090061
 11
7.2842643289819895
 21
56.76407170486159
  0
LINE
  8
0
 10
7.2842643289819895
 20
56.76407170486159
 11
6.266508640298063
 21
56.9520607131367
  0
LINE
  8
0
 10
6.266508640298063
 20
56.9520607131367
 11
5.232227380251694
 21
56.9898599750034
  0
LINE
  8
0
 10
5.232227380251694
 20
56.9898599750034
 11
4.748910619208714
 21
56.13024694179916
  0
LINE
  8
0
 10
4.748910619208714
 20
56.13024694179916
 11
4.294875563768789
 21
55.22182363558046
  0
LINE
  8
0
 10
4.294875563768789
 20
55.22182363558046
 11
3.93514386364127
 21
54.40486851445184
  0
LINE
  8
0
 10
3.93514386364127
 20
54.40486851445184
 11
3.6596143700065853
 21
53.68614287823795
  0
LINE
  8
0
 10
3.6596143700065853
 20
53.68614287823795
 11
3.45776435882047
 21
53.07163597364447
  0
LINE
  8
0
 10
3.45776435882047
 20
53.07163597364447
 11
3.2866092158922617
 21
52.44997929762474
  0
LINE
  8
0
 10
3.2866092158922617
 20
52.44997929762474
 11
3.1699064737028646
 21
52.195288942960666
  0
LINE
  8
0
 10
3.1699064737028646
 20
52.195288942960666
 11
3.0425232475874813
 21
52.07644511517139
  0
LINE
  8
0
 10
3.0425232475874813
 20
52.07644511517139
 11
0.7669298389854117
 21
52.1596098736136
  0
LINE
  8
0
 10
0.7669298389854117
 20
52.1596098736136
 11
0.6485614777917587
 21
52.287435038455804
  0
LINE
  8
0
 10
0.6485614777917587
 20
52.287435038455804
 11
0.5507612679879773
 21
52.549964704886655
  0
LINE
  8
0
 10
0.5507612679879773
 20
52.549964704886655
 11
0.4254407431123098
 21
53.18245650074929
  0
LINE
  8
0
 10
0.4254407431123098
 20
53.18245650074929
 11
0.26898533535894625
 21
53.81005818031654
  0
LINE
  8
0
 10
0.26898533535894625
 20
53.81005818031654
 11
0.04665448022606821
 21
54.54697882249543
  0
LINE
  8
0
 10
0.04665448022606821
 20
54.54697882249543
 11
-0.25248366163727615
 21
55.38801326774961
  0
LINE
  8
0
 10
-0.25248366163727615
 20
55.38801326774961
 11
-0.6389968352573235
 21
56.327155590006875
  0
LINE
  8
0
 10
-0.6389968352573235
 20
56.327155590006875
 11
-1.0582765204369733
 21
57.2197552785351
  0
LINE
  8
0
 10
-1.0582765204369733
 20
57.2197552785351
 11
-2.0925577804833346
 21
57.25755454040178
  0
LINE
  8
0
 10
-2.0925577804833346
 20
57.25755454040178
 11
-3.1213207025018894
 21
57.14435843021847
  0
LINE
  8
0
 10
-3.1213207025018894
 20
57.14435843021847
 11
-3.4743262732845377
 21
56.22353449191319
  0
LINE
  8
0
 10
-3.4743262732845377
 20
56.22353449191319
 11
-3.7912553500745076
 21
55.25868388423618
  0
LINE
  8
0
 10
-3.7912553500745076
 20
55.25868388423618
 11
-4.028203902258633
 21
54.398057397522706
  0
LINE
  8
0
 10
-4.028203902258633
 20
54.398057397522706
 11
-4.196149887581376
 21
53.6468735398503
  0
LINE
  8
0
 10
-4.196149887581376
 20
53.6468735398503
 11
-4.30637593460421
 21
53.00952561181834
  0
LINE
  8
0
 10
-4.30637593460421
 20
53.00952561181834
 11
-4.385193202213449
 21
52.36957331350441
  0
LINE
  8
0
 10
-4.385193202213449
 20
52.36957331350441
 11
-4.463569073184776
 21
52.10060504466415
  0
LINE
  8
0
 10
-4.463569073184776
 20
52.10060504466415
 11
-4.572291023041824
 21
51.96448054533192
  0
LINE
  8
0
 10
-4.572291023041824
 20
51.96448054533192
 11
-6.835743156221301
 21
51.71542998997174
  0
LINE
  8
0
 10
-6.835743156221301
 20
51.71542998997174
 11
-6.971461602625107
 21
51.824658397468816
  0
LINE
  8
0
 10
-6.971461602625107
 20
51.824658397468816
 11
-7.106444217588246
 21
52.07015055712299
  0
LINE
  8
0
 10
-7.106444217588246
 20
52.07015055712299
 11
-7.322520791818089
 21
52.677655305958545
  0
LINE
  8
0
 10
-7.322520791818089
 20
52.677655305958545
 11
-7.568688449295807
 21
53.27578877536384
  0
LINE
  8
0
 10
-7.568688449295807
 20
53.27578877536384
 11
-7.895946512369266
 21
53.972484693370326
  0
LINE
  8
0
 10
-7.895946512369266
 20
53.972484693370326
 11
-8.314352446494448
 21
54.7610016813359
  0
LINE
  8
0
 10
-8.314352446494448
 20
54.7610016813359
 11
-8.833486910279127
 21
55.63385914011573
  0
LINE
  8
0
 10
-8.833486910279127
 20
55.63385914011573
 11
-9.378262043149848
 21
56.455899110537345
  0
LINE
  8
0
 10
-9.378262043149848
 20
56.455899110537345
 11
-10.407024965168382
 21
56.342703000354106
  0
LINE
  8
0
 10
-10.407024965168382
 20
56.342703000354106
 11
-11.408343253563265
 21
56.08092409668396
  0
LINE
  8
0
 10
-11.408343253563265
 20
56.08092409668396
 11
-11.623513933215044
 21
55.118515016833896
  0
LINE
  8
0
 10
-11.623513933215044
 20
55.118515016833896
 11
-11.796582238319768
 21
54.1178012232756
  0
LINE
  8
0
 10
-11.796582238319768
 20
54.1178012232756
 11
-11.905697495548976
 21
53.23184613036473
  0
LINE
  8
0
 10
-11.905697495548976
 20
53.23184613036473
 11
-11.962480495462081
 21
52.46421423099204
  0
LINE
  8
0
 10
-11.962480495462081
 20
52.46421423099204
 11
-11.97873330149832
 21
51.81760924407588
  0
LINE
  8
0
 10
-11.97873330149832
 20
51.81760924407588
 11
-11.963532840568114
 21
51.17300079565298
  0
LINE
  8
0
 10
-11.963532840568114
 20
51.17300079565298
 11
-12.001911394703903
 21
50.89548720431756
  0
LINE
  8
0
 10
-12.001911394703903
 20
50.89548720431756
 11
-12.089654848699052
 21
50.74498329081305
  0
LINE
  8
0
 10
-12.089654848699052
 20
50.74498329081305
 11
-14.292724153930134
 21
50.16902550184882
  0
LINE
  8
0
 10
-14.292724153930134
 20
50.16902550184882
 11
-14.442900082486608
 21
50.25732913813189
  0
LINE
  8
0
 10
-14.442900082486608
 20
50.25732913813189
 11
-14.61218818252126
 21
50.48055155183762
  0
LINE
  8
0
 10
-14.61218818252126
 20
50.48055155183762
 11
-14.914415509066963
 21
51.05012134464416
  0
LINE
  8
0
 10
-14.914415509066963
 20
51.05012134464416
 11
-15.245048780033928
 21
51.606038427436715
  0
LINE
  8
0
 10
-15.245048780033928
 20
51.606038427436715
 11
-15.670259113602716
 21
52.247660757347234
  0
LINE
  8
0
 10
-15.670259113602716
 20
52.247660757347234
 11
-16.199015243919415
 21
52.96685441740965
  0
LINE
  8
0
 10
-16.199015243919415
 20
52.96685441740965
 11
-16.839706548068566
 21
53.754823571389835
  0
LINE
  8
0
 10
-16.839706548068566
 20
53.754823571389835
 11
-17.498366192484678
 21
54.48878346892012
  0
LINE
  8
0
 10
-17.498366192484678
 20
54.48878346892012
 11
-18.499684480879576
 21
54.22700456525004
  0
LINE
  8
0
 10
-18.499684480879576
 20
54.22700456525004
 11
-19.452216774772634
 21
53.82222223093735
  0
LINE
  8
0
 10
-19.452216774772634
 20
53.82222223093735
 11
-19.524966573825385
 21
52.83874008819276
  0
LINE
  8
0
 10
-19.524966573825385
 20
52.83874008819276
 11
-19.550485456794124
 21
51.82349158587342
  0
LINE
  8
0
 10
-19.550485456794124
 20
51.82349158587342
 11
-19.529441816801054
 21
50.9310904814194
  0
LINE
  8
0
 10
-19.529441816801054
 20
50.9310904814194
 11
-19.47385160024519
 21
50.16337128155729
  0
LINE
  8
0
 10
-19.47385160024519
 20
50.16337128155729
 11
-19.395784764951486
 21
49.521290498449645
  0
LINE
  8
0
 10
-19.395784764951486
 20
49.521290498449645
 11
-19.286890546916272
 21
48.88576460985881
  0
LINE
  8
0
 10
-19.286890546916272
 20
48.88576460985881
 11
-19.284453811966056
 21
48.60562041642225
  0
LINE
  8
0
 10
-19.284453811966056
 20
48.60562041642225
 11
-19.349348670713216
 21
48.44394481836442
  0
LINE
  8
0
 10
-19.349348670713216
 20
48.44394481836442
 11
-21.44508055061417
 21
47.55335533611866
  0
LINE
  8
0
 10
-21.44508055061417
 20
47.55335533611866
 11
-21.606513222134094
 21
47.618852162488714
  0
LINE
  8
0
 10
-21.606513222134094
 20
47.618852162488714
 11
-21.806498725297597
 21
47.815047232045515
  0
LINE
  8
0
 10
-21.806498725297597
 20
47.815047232045515
 11
-22.188435353405875
 21
48.33454267754811
  0
LINE
  8
0
 10
-22.188435353405875
 20
48.33454267754811
 11
-22.596487363720456
 21
48.83639496626373
  0
LINE
  8
0
 10
-22.596487363720456
 20
48.83639496626373
 11
-23.11058734775357
 21
49.409268642069
  0
LINE
  8
0
 10
-23.11058734775357
 20
49.409268642069
 11
-23.738424155344152
 21
50.04381060999226
  0
LINE
  8
0
 10
-23.738424155344152
 20
50.04381060999226
 11
-24.48701707704619
 21
50.730097264688546
  0
LINE
  8
0
 10
-24.48701707704619
 20
50.730097264688546
 11
-25.24552304621905
 21
51.3603340083763
  0
LINE
  8
0
 10
-25.24552304621905
 20
51.3603340083763
 11
-26.198055340112077
 21
50.95555167406363
  0
LINE
  8
0
 10
-26.198055340112077
 20
50.95555167406363
 11
-27.081500067398075
 21
50.41639314180123
  0
LINE
  8
0
 10
-27.081500067398075
 20
50.41639314180123
 11
-27.01027845018962
 21
49.43279915056207
  0
LINE
  8
0
 10
-27.01027845018962
 20
49.43279915056207
 11
-26.887704020336518
 21
48.42465419868469
  0
LINE
  8
0
 10
-26.887704020336518
 20
48.42465419868469
 11
-26.7369499917727
 21
47.54482706288659
  0
LINE
  8
0
 10
-26.7369499917727
 20
47.54482706288659
 11
-26.57017136770079
 21
46.79338316440426
  0
LINE
  8
0
 10
-26.57017136770079
 20
46.79338316440426
 11
-26.399448750135672
 21
46.16951142224838
  0
LINE
  8
0
 10
-26.399448750135672
 20
46.16951142224838
 11
-26.199181666196157
 21
45.55661322443651
  0
LINE
  8
0
 10
-26.199181666196157
 20
45.55661322443651
 11
-26.15598157693486
 21
45.27980921600951
  0
LINE
  8
0
 10
-26.15598157693486
 20
45.27980921600951
 11
-26.19664471918706
 21
45.110407768077835
  0
LINE
  8
0
 10
-26.19664471918706
 20
45.110407768077835
 11
-28.140372287243153
 21
43.92416796116749
  0
LINE
  8
0
 10
-28.140372287243153
 20
43.92416796116749
 11
-28.309621044604455
 21
43.96546202648279
  0
LINE
  8
0
 10
-28.309621044604455
 20
43.96546202648279
 11
-28.536041607101755
 21
44.13044819460717
  0
LINE
  8
0
 10
-28.536041607101755
 20
44.13044819460717
 11
-28.989547220643843
 21
44.58879714930704
  0
LINE
  8
0
 10
-28.989547220643843
 20
44.58879714930704
 11
-29.466321050145773
 21
45.025888533702755
  0
LINE
  8
0
 10
-29.466321050145773
 20
45.025888533702755
 11
-30.05835353603834
 21
45.51780374759773
  0
LINE
  8
0
 10
-30.05835353603834
 20
45.51780374759773
 11
-30.771889769368027
 21
46.054169862995735
  0
LINE
  8
0
 10
-30.771889769368027
 20
46.054169862995735
 11
-31.612429350166636
 21
46.624147009859975
  0
LINE
  8
0
 10
-31.612429350166636
 20
46.624147009859975
 11
-32.45461540624358
 21
47.1372281976991
  0
LINE
  8
0
 10
-32.45461540624358
 20
47.1372281976991
 11
-33.3380601335296
 21
46.59806966543677
  0
LINE
  8
0
 10
-33.3380601335296
 20
46.59806966543677
 11
-34.13358820363929
 21
45.93602616327976
  0
LINE
  8
0
 10
-34.13358820363929
 20
45.93602616327976
 11
-33.91991313528896
 21
44.97328392180228
  0
LINE
  8
0
 10
-33.91991313528896
 20
44.97328392180228
 11
-33.6518578537787
 21
43.99372937972507
  0
LINE
  8
0
 10
-33.6518578537787
 20
43.99372937972507
 11
-33.37460649703134
 21
43.14522820047034
  0
LINE
  8
0
 10
-33.37460649703134
 20
43.14522820047034
 11
-33.10019406226273
 21
42.426075325444444
  0
LINE
  8
0
 10
-33.10019406226273
 20
42.426075325444444
 11
-32.840454318619486
 21
41.833709367289316
  0
LINE
  8
0
 10
-32.840454318619486
 20
41.833709367289316
 11
-32.5530827139761
 21
41.25650172125943
  0
LINE
  8
0
 10
-32.5530827139761
 20
41.25650172125943
 11
-32.47004000530448
 21
40.98893749470828
  0
LINE
  8
0
 10
-32.47004000530448
 20
40.98893749470828
 11
-32.48560476678193
 21
40.81542069465905
  0
LINE
  8
0
 10
-32.48560476678193
 20
40.81542069465905
 11
-34.235900844483105
 21
39.35881320507792
  0
LINE
  8
0
 10
-34.235900844483105
 20
39.35881320507792
 11
-34.409358444263894
 21
39.37502439802897
  0
LINE
  8
0
 10
-34.409358444263894
 20
39.37502439802897
 11
-34.65738830490546
 21
39.50528527098813
  0
LINE
  8
0
 10
-34.65738830490546
 20
39.50528527098813
 11
-35.17279721908258
 21
39.892718822678496
  0
LINE
  8
0
 10
-35.17279721908258
 20
39.892718822678496
 11
-35.70813126134701
 21
40.25573345875219
  0
LINE
  8
0
 10
-35.70813126134701
 20
40.25573345875219
 11
-36.365478104519575
 21
40.65620589199142
  0
LINE
  8
0
 10
-36.365478104519575
 20
40.65620589199142
 11
-37.14950597758103
 21
41.082964442326606
  0
LINE
  8
0
 10
-37.14950597758103
 20
41.082964442326606
 11
-38.06407757561447
 21
41.52448400803935
  0
LINE
  8
0
 10
-38.06407757561447
 20
41.52448400803935
 11
-38.97199398497181
 21
41.90947420529719
  0
LINE
  8
0
 10
-38.97199398497181
 20
41.90947420529719
 11
-39.767522055081486
 21
41.247430703140154
  0
LINE
  8
0
 10
-39.767522055081486
 20
41.247430703140154
 11
-40.45817816835664
 21
40.47661253892991
  0
LINE
  8
0
 10
-40.45817816835664
 20
40.47661253892991
 11
-40.10660376197428
 21
39.55524122662605
  0
LINE
  8
0
 10
-40.10660376197428
 20
39.55524122662605
 11
-39.69878076174803
 21
38.625154598759536
  0
LINE
  8
0
 10
-39.69878076174803
 20
38.625154598759536
 11
-39.30094120813619
 21
37.8260637055585
  0
LINE
  8
0
 10
-39.30094120813619
 20
37.8260637055585
 11
-38.92474358729677
 21
37.1545293489628
  0
LINE
  8
0
 10
-38.92474358729677
 20
37.1545293489628
 11
-38.58152261926394
 21
36.606294426770205
  0
LINE
  8
0
 10
-38.58152261926394
 20
36.606294426770205
 11
-38.21317132074938
 21
36.07707951137826
  0
LINE
  8
0
 10
-38.21317132074938
 20
36.07707951137826
 11
-38.092055903828154
 21
35.82445773366019
  0
LINE
  8
0
 10
-38.092055903828154
 20
35.82445773366019
 11
-38.082190548662744
 21
35.650523790835244
  0
LINE
  8
0
 10
-38.082190548662744
 20
35.650523790835244
 11
-39.6017506138897
 21
33.95459367833433
  0
LINE
  8
0
 10
-39.6017506138897
 20
33.95459367833433
 11
-39.7757201084991
 21
33.94537648548843
  0
LINE
  8
0
 10
-39.7757201084991
 20
33.94537648548843
 11
-40.04007294142247
 21
34.03813577892769
  0
LINE
  8
0
 10
-40.04007294142247
 20
34.03813577892769
 11
-40.606400110056235
 21
34.346396454097125
  0
LINE
  8
0
 10
-40.606400110056235
 20
34.346396454097125
 11
-41.18888464939262
 21
34.627597315128824
  0
LINE
  8
0
 10
-41.18888464939262
 20
34.627597315128824
 11
-41.89753564313581
 21
34.92809159307812
  0
LINE
  8
0
 10
-41.89753564313581
 20
34.92809159307812
 11
-42.7353449630049
 21
35.236146960767044
  0
LINE
  8
0
 10
-42.7353449630049
 20
35.236146960767044
 11
-43.704456072494764
 21
35.53979872232941
  0
LINE
  8
0
 10
-43.704456072494764
 20
35.53979872232941
 11
-44.65875217314631
 21
35.78849253135219
  0
LINE
  8
0
 10
-44.65875217314631
 20
35.78849253135219
 11
-45.34940828642146
 21
35.017674367141986
  0
LINE
  8
0
 10
-45.34940828642146
 20
35.017674367141986
 11
-45.92047230689038
 21
34.15451019179257
  0
LINE
  8
0
 10
-45.92047230689038
 20
34.15451019179257
 11
-45.43849176056208
 21
33.294147238545094
  0
LINE
  8
0
 10
-45.43849176056208
 20
33.294147238545094
 11
-44.89959308082768
 21
32.43335170659214
  0
LINE
  8
0
 10
-44.89959308082768
 20
32.43335170659214
 11
-44.38964458972735
 21
31.70070233449153
  0
LINE
  8
0
 10
-44.38964458972735
 20
31.70070233449153
 11
-43.91967978196972
 21
31.09109908525234
  0
LINE
  8
0
 10
-43.91967978196972
 20
31.09109908525234
 11
-43.50029274859778
 21
30.598679874570646
  0
LINE
  8
0
 10
-43.50029274859778
 20
30.598679874570646
 11
-43.058812524626696
 21
30.128736986941615
  0
LINE
  8
0
 10
-43.058812524626696
 20
30.128736986941615
 11
-42.90220576429299
 21
29.896441852659343
  0
LINE
  8
0
 10
-42.90220576429299
 20
29.896441852659343
 11
-42.86712055540231
 21
29.725797867074537
  0
LINE
  8
0
 10
-42.86712055540231
 20
29.725797867074537
 11
-44.12355782354929
 21
27.826690937612348
  0
LINE
  8
0
 10
-44.12355782354929
 20
27.826690937612348
 11
-44.29433135524688
 21
27.7922418074326
  0
LINE
  8
0
 10
-44.29433135524688
 20
27.7922418074326
 11
-44.569372938774514
 21
27.84552251805636
  0
LINE
  8
0
 10
-44.569372938774514
 20
27.84552251805636
 11
-45.174548081494535
 21
28.06804027560046
  0
LINE
  8
0
 10
-45.174548081494535
 20
28.06804027560046
 11
-45.79176847122758
 21
28.261434053444223
  0
LINE
  8
0
 10
-45.79176847122758
 20
28.261434053444223
 11
-46.53661994993434
 21
28.455545662272296
  0
LINE
  8
0
 10
-46.53661994993434
 20
28.455545662272296
 11
-47.41035426552089
 21
28.63833218198306
  0
LINE
  8
0
 10
-47.41035426552089
 20
28.63833218198306
 11
-48.41334996569087
 21
28.79764432928242
  0
LINE
  8
0
 10
-48.41334996569087
 20
28.79764432928242
 11
-49.39368659305257
 21
28.90474127330061
  0
LINE
  8
0
 10
-49.39368659305257
 20
28.90474127330061
 11
-49.96475061352152
 21
28.041577097951205
  0
LINE
  8
0
 10
-49.96475061352152
 20
28.041577097951205
 11
-50.40405130304094
 21
27.104463757277543
  0
LINE
  8
0
 10
-50.40405130304094
 20
27.104463757277543
 11
-49.80193719532099
 21
26.323446305715574
  0
LINE
  8
0
 10
-49.80193719532099
 20
26.323446305715574
 11
-49.1434485258279
 21
25.55028823196942
  0
LINE
  8
0
 10
-49.1434485258279
 20
25.55028823196942
 11
-48.53225976397971
 21
24.899695530346204
  0
LINE
  8
0
 10
-48.53225976397971
 20
24.899695530346204
 11
-47.97854425325173
 21
24.36501602335824
  0
LINE
  8
0
 10
-47.97854425325173
 20
24.36501602335824
 11
-47.4919296610381
 21
23.938907584749398
  0
LINE
  8
0
 10
-47.4919296610381
 20
23.938907584749398
 11
-46.98672989610844
 21
23.538252741641653
  0
LINE
  8
0
 10
-46.98672989610844
 20
23.538252741641653
 11
-46.79796959356591
 21
23.331235218283155
  0
LINE
  8
0
 10
-46.79796959356591
 20
23.331235218283155
 11
-46.738412311264284
 21
23.167518170227627
  0
LINE
  8
0
 10
-46.738412311264284
 20
23.167518170227627
 11
-47.70494800332457
 21
21.105710590870746
  0
LINE
  8
0
 10
-47.70494800332457
 20
21.105710590870746
 11
-47.86888583077073
 21
21.046763746758057
  0
LINE
  8
0
 10
-47.86888583077073
 20
21.046763746758057
 11
-48.14875413106323
 21
21.059430288722695
  0
LINE
  8
0
 10
-48.14875413106323
 20
21.059430288722695
 11
-48.77987899037739
 21
21.19146254896366
  0
LINE
  8
0
 10
-48.77987899037739
 20
21.19146254896366
 11
-49.41868024948724
 21
21.292927391005396
  0
LINE
  8
0
 10
-49.41868024948724
 20
21.292927391005396
 11
-50.18385699706301
 21
21.376519178776988
  0
LINE
  8
0
 10
-50.18385699706301
 20
21.376519178776988
 11
-51.07489417836431
 21
21.430141073186817
  0
LINE
  8
0
 10
-51.07489417836431
 20
21.430141073186817
 11
-52.09039735721649
 21
21.441718144393306
  0
LINE
  8
0
 10
-52.09039735721649
 20
21.441718144393306
 11
-53.07588033808784
 21
21.404935637981573
  0
LINE
  8
0
 10
-53.07588033808784
 20
21.404935637981573
 11
-53.5151810276072
 21
20.46782229730791
  0
LINE
  8
0
 10
-53.5151810276072
 20
20.46782229730791
 11
-53.81335545467187
 21
19.476732735196872
  0
LINE
  8
0
 10
-53.81335545467187
 20
19.476732735196872
 11
-53.10394080240585
 21
18.791706816336866
  0
LINE
  8
0
 10
-53.10394080240585
 20
18.791706816336866
 11
-52.339896685909075
 21
18.122664722820847
  0
LINE
  8
0
 10
-52.339896685909075
 20
18.122664722820847
 11
-51.640494080656325
 21
17.567994945583454
  0
LINE
  8
0
 10
-51.640494080656325
 20
17.567994945583454
 11
-51.014829351735855
 21
17.119634946254216
  0
LINE
  8
0
 10
-51.014829351735855
 20
17.119634946254216
 11
-50.471358545877536
 21
16.76891904129892
  0
LINE
  8
0
 10
-50.471358545877536
 20
16.76891904129892
 11
-49.913206695876106
 21
16.446091505096305
  0
LINE
  8
0
 10
-49.913206695876106
 20
16.446091505096305
 11
-49.69631594925718
 21
16.268763811758443
  0
LINE
  8
0
 10
-49.69631594925718
 20
16.268763811758443
 11
-49.61355595361648
 21
16.115463045874115
  0
LINE
  8
0
 10
-49.61355595361648
 20
16.115463045874115
 11
-50.26959003936498
 21
13.934898665568852
  0
LINE
  8
0
 10
-50.26959003936498
 20
13.934898665568852
 11
-50.42319811238836
 21
13.852710457164903
  0
LINE
  8
0
 10
-50.42319811238836
 20
13.852710457164903
 11
-50.70192822251842
 21
13.824492865119463
  0
LINE
  8
0
 10
-50.70192822251842
 20
13.824492865119463
 11
-51.345551467777995
 21
13.863225589658102
  0
LINE
  8
0
 10
-51.345551467777995
 20
13.863225589658102
 11
-51.992318656481686
 21
13.870598948947892
  0
LINE
  8
0
 10
-51.992318656481686
 20
13.870598948947892
 11
-52.76151225901366
 21
13.841889301834554
  0
LINE
  8
0
 10
-52.76151225901366
 20
13.841889301834554
 11
-53.65086139548467
 21
13.765203713359767
  0
LINE
  8
0
 10
-53.65086139548467
 20
13.765203713359767
 11
-54.657228365827876
 21
13.628798963300154
  0
LINE
  8
0
 10
-54.657228365827876
 20
13.628798963300154
 11
-55.62685384141811
 21
13.44892096172269
  0
LINE
  8
0
 10
-55.62685384141811
 20
13.44892096172269
 11
-55.925028268482784
 21
12.457831399611681
  0
LINE
  8
0
 10
-55.925028268482784
 20
12.457831399611681
 11
-56.07572136285543
 21
11.43388896939932
  0
LINE
  8
0
 10
-56.07572136285543
 20
11.43388896939932
 11
-55.274126107705975
 21
10.859454721393867
  0
LINE
  8
0
 10
-55.274126107705975
 20
10.859454721393867
 11
-54.420810818053276
 21
10.308788078773697
  0
LINE
  8
0
 10
-54.420810818053276
 20
10.308788078773697
 11
-53.64810092165894
 21
9.86186304923389
  0
LINE
  8
0
 10
-53.64810092165894
 20
9.86186304923389
 11
-52.96382193199495
 21
9.509378572528774
  0
LINE
  8
0
 10
-52.96382193199495
 20
9.509378572528774
 11
-52.375078049171854
 21
9.241530101845644
  0
LINE
  8
0
 10
-52.375078049171854
 20
9.241530101845644
 11
-51.77587015174597
 21
9.003410381005223
  0
LINE
  8
0
 10
-51.77587015174597
 20
9.003410381005223
 11
-51.53547161075994
 21
8.859551949603986
  0
LINE
  8
0
 10
-51.53547161075994
 20
8.859551949603986
 11
-51.43127278740346
 21
8.71993480556252
  0
LINE
  8
0
 10
-51.43127278740346
 20
8.71993480556252
 11
-51.76282303927614
 21
6.467088568287748
  0
LINE
  8
0
 10
-51.76282303927614
 20
6.467088568287748
 11
-51.90282746848697
 21
6.363410694563596
  0
LINE
  8
0
 10
-51.90282746848697
 20
6.363410694563596
 11
-52.17447874007449
 21
6.294910377492549
  0
LINE
  8
0
 10
-52.17447874007449
 20
6.294910377492549
 11
-52.81688265923342
 21
6.239518045551142
  0
LINE
  8
0
 10
-52.81688265923342
 20
6.239518045551142
 11
-53.457831057788724
 21
6.152642771736987
  0
LINE
  8
0
 10
-53.457831057788724
 20
6.152642771736987
 11
-54.214647489074565
 21
6.012243586022681
  0
LINE
  8
0
 10
-54.214647489074565
 20
6.012243586022681
 11
-55.08335364791512
 21
5.806884934843917
  0
LINE
  8
0
 10
-55.08335364791512
 20
5.806884934843917
 11
-56.05913544498073
 21
5.525405593946584
  0
LINE
  8
0
 10
-56.05913544498073
 20
5.525405593946584
 11
-56.99223753169302
 21
5.206265884511755
  0
LINE
  8
0
 10
-56.99223753169302
 20
5.206265884511755
 11
-57.142930626065706
 21
4.182323454299405
  0
LINE
  8
0
 10
-57.142930626065706
 20
4.182323454299405
 11
-57.14293062606572
 21
3.1473517111678504
  0
LINE
  8
0
 10
-57.14293062606572
 20
3.1473517111678504
 11
-56.266239379206574
 21
2.695752202709042
  0
LINE
  8
0
 10
-56.266239379206574
 20
2.695752202709042
 11
-55.34183985031337
 21
2.275197514432156
  0
LINE
  8
0
 10
-55.34183985031337
 20
2.275197514432156
 11
-54.512291632678625
 21
1.9455426636655868
  0
LINE
  8
0
 10
-54.512291632678625
 20
1.9455426636655868
 11
-53.783982600924695
 21
1.6964463042395608
  0
LINE
  8
0
 10
-53.783982600924695
 20
1.6964463042395608
 11
-53.16251369485138
 21
1.5171739929560288
  0
LINE
  8
0
 10
-53.16251369485138
 20
1.5171739929560288
 11
-52.53502082601975
 21
1.3688371959159076
  0
LINE
  8
0
 10
-52.53502082601975
 20
1.3688371959159076
 11
-52.27623816819975
 21
1.261514119156764
  0
LINE
  8
0
 10
-52.27623816819975
 20
1.261514119156764
 11
-52.152821334142516
 21
1.1385562939870688
  0
LINE
  8
0
 10
-52.152821334142516
 20
1.1385562939870688
 11
-52.15282133414176
 21
-1.1385562939891902
  0
LINE
  8
0
 10
-52.15282133414176
 20
-1.1385562939891902
 11
-52.276238168200116
 21
-1.2615141191554775
  0
LINE
  8
0
 10
-52.276238168200116
 20
-1.2615141191554775
 11
-52.53502082601865
 21
-1.3688371959206043
  0
LINE
  8
0
 10
-52.53502082601865
 20
-1.3688371959206043
 11
-53.16251369484976
 21
-1.517173992956134
  0
LINE
  8
0
 10
-53.16251369484976
 20
-1.517173992956134
 11
-53.783982600924176
 21
-1.69644630424141
  0
LINE
  8
0
 10
-53.783982600924176
 20
-1.69644630424141
 11
-54.51229163267804
 21
-1.9455426636672628
  0
LINE
  8
0
 10
-54.51229163267804
 20
-1.9455426636672628
 11
-55.34183985031683
 21
-2.2751975144335974
  0
LINE
  8
0
 10
-55.34183985031683
 20
-2.2751975144335974
 11
-56.26623937920419
 21
-2.695752202707844
  0
LINE
  8
0
 10
-56.26623937920419
 20
-2.695752202707844
 11
-57.14293062606568
 21
-3.147351711167886
  0
LINE
  8
0
 10
-57.14293062606568
 20
-3.147351711167886
 11
-57.14293062606567
 21
-4.182323454299448
  0
LINE
  8
0
 10
-57.14293062606567
 20
-4.182323454299448
 11
-56.992237531693014
 21
-5.20626588451179
  0
LINE
  8
0
 10
-56.992237531693014
 20
-5.20626588451179
 11
-56.059135444983276
 21
-5.525405593945746
  0
LINE
  8
0
 10
-56.059135444983276
 20
-5.525405593945746
 11
-55.08335364791148
 21
-5.80688493484484
  0
LINE
  8
0
 10
-55.08335364791148
 20
-5.80688493484484
 11
-54.2146474890749
 21
-6.012243586024426
  0
LINE
  8
0
 10
-54.2146474890749
 20
-6.012243586024426
 11
-53.45783105778898
 21
-6.152642771738894
  0
LINE
  8
0
 10
-53.45783105778898
 20
-6.152642771738894
 11
-52.81688265923501
 21
-6.239518045551482
  0
LINE
  8
0
 10
-52.81688265923501
 20
-6.239518045551482
 11
-52.1744787400749
 21
-6.294910377497358
  0
LINE
  8
0
 10
-52.1744787400749
 20
-6.294910377497358
 11
-51.902827468486784
 21
-6.363410694562269
  0
LINE
  8
0
 10
-51.902827468486784
 20
-6.363410694562269
 11
-51.762823039276576
 21
-6.467088568289957
  0
LINE
  8
0
 10
-51.762823039276576
 20
-6.467088568289957
 11
-51.43127278740241
 21
-8.719934805564511
  0
LINE
  8
0
 10
-51.43127278740241
 20
-8.719934805564511
 11
-51.5354716107605
 21
-8.85955194960277
  0
LINE
  8
0
 10
-51.5354716107605
 20
-8.85955194960277
 11
-51.7758701517442
 21
-9.00341038100971
  0
LINE
  8
0
 10
-51.7758701517442
 20
-9.00341038100971
 11
-52.375078049170234
 21
-9.241530101845512
  0
LINE
  8
0
 10
-52.375078049170234
 20
-9.241530101845512
 11
-52.96382193199416
 21
-9.509378572530526
  0
LINE
  8
0
 10
-52.96382193199416
 20
-9.509378572530526
 11
-53.64810092165812
 21
-9.861863049235465
  0
LINE
  8
0
 10
-53.64810092165812
 20
-9.861863049235465
 11
-54.42081081805649
 21
-10.308788078775628
  0
LINE
  8
0
 10
-54.42081081805649
 20
-10.308788078775628
 11
-55.27412610770379
 21
-10.859454721392334
  0
LINE
  8
0
 10
-55.27412610770379
 20
-10.859454721392334
 11
-56.075721362855454
 21
-11.433888969399359
  0
LINE
  8
0
 10
-56.075721362855454
 20
-11.433888969399359
 11
-55.92502826848278
 21
-12.457831399611681
  0
LINE
  8
0
 10
-55.92502826848278
 20
-12.457831399611681
 11
-55.62685384141803
 21
-13.448920961722697
  0
LINE
  8
0
 10
-55.62685384141803
 20
-13.448920961722697
 11
-54.65722836583052
 21
-13.628798963299694
  0
LINE
  8
0
 10
-54.65722836583052
 20
-13.628798963299694
 11
-53.650861395480945
 21
-13.765203713360151
  0
LINE
  8
0
 10
-53.650861395480945
 20
-13.765203713360151
 11
-52.76151225901373
 21
-13.841889301836325
  0
LINE
  8
0
 10
-52.76151225901373
 20
-13.841889301836325
 11
-51.992318656481665
 21
-13.870598948949816
  0
LINE
  8
0
 10
-51.992318656481665
 20
-13.870598948949816
 11
-51.34555146777953
 21
-13.863225589658668
  0
LINE
  8
0
 10
-51.34555146777953
 20
-13.863225589658668
 11
-50.70192822251813
 21
-13.824492865124279
  0
LINE
  8
0
 10
-50.70192822251813
 20
-13.824492865124279
 11
-50.42319811238838
 21
-13.852710457163566
  0
LINE
  8
0
 10
-50.42319811238838
 20
-13.852710457163566
 11
-50.269590039365085
 21
-13.934898665571101
  0
LINE
  8
0
 10
-50.269590039365085
 20
-13.934898665571101
 11
-49.61355595361516
 21
-16.115463045875934
  0
LINE
  8
0
 10
-49.61355595361516
 20
-16.115463045875934
 11
-49.69631594925792
 21
-16.268763811757324
  0
LINE
  8
0
 10
-49.69631594925792
 20
-16.268763811757324
 11
-49.9132066958737
 21
-16.446091505100487
  0
LINE
  8
0
 10
-49.9132066958737
 20
-16.446091505100487
 11
-50.47135854587595
 21
-16.768919041298552
  0
LINE
  8
0
 10
-50.47135854587595
 20
-16.768919041298552
 11
-51.01482935173482
 21
-17.119634946255836
  0
LINE
  8
0
 10
-51.01482935173482
 20
-17.119634946255836
 11
-51.640494080655294
 21
-17.567994945584893
  0
LINE
  8
0
 10
-51.640494080655294
 20
-17.567994945584893
 11
-52.33989668591198
 21
-18.122664722823224
  0
LINE
  8
0
 10
-52.33989668591198
 20
-18.122664722823224
 11
-53.10394080240391
 21
-18.79170681633503
  0
LINE
  8
0
 10
-53.10394080240391
 20
-18.79170681633503
 11
-53.813355454671836
 21
-19.476732735196897
  0
LINE
  8
0
 10
-53.813355454671836
 20
-19.476732735196897
 11
-53.51518102760716
 21
-20.467822297307933
  0
LINE
  8
0
 10
-53.51518102760716
 20
-20.467822297307933
 11
-53.07588033808783
 21
-21.404935637981634
  0
LINE
  8
0
 10
-53.07588033808783
 20
-21.404935637981634
 11
-52.09039735721915
 21
-21.44171814439326
  0
LINE
  8
0
 10
-52.09039735721915
 20
-21.44171814439326
 11
-51.07489417836056
 21
-21.43014107318668
  0
LINE
  8
0
 10
-51.07489417836056
 20
-21.43014107318668
 11
-50.18385699706282
 21
-21.376519178778775
  0
LINE
  8
0
 10
-50.18385699706282
 20
-21.376519178778775
 11
-49.418680249486926
 21
-21.292927391007318
  0
LINE
  8
0
 10
-49.418680249486926
 20
-21.292927391007318
 11
-48.779878990378805
 21
-21.19146254896447
  0
LINE
  8
0
 10
-48.779878990378805
 20
-21.19146254896447
 11
-48.148754131062226
 21
-21.059430288727437
  0
LINE
  8
0
 10
-48.148754131062226
 20
-21.059430288727437
 11
-47.86888583077093
 21
-21.046763746756753
  0
LINE
  8
0
 10
-47.86888583077093
 20
-21.046763746756753
 11
-47.70494800332434
 21
-21.10571059087301
  0
LINE
  8
0
 10
-47.70494800332434
 20
-21.10571059087301
 11
-46.7384123112627
 21
-23.16751817022925
  0
LINE
  8
0
 10
-46.7384123112627
 20
-23.16751817022925
 11
-46.79796959356678
 21
-23.33123521828217
  0
LINE
  8
0
 10
-46.79796959356678
 20
-23.33123521828217
 11
-46.986729896105444
 21
-23.53825274164546
  0
LINE
  8
0
 10
-46.986729896105444
 20
-23.53825274164546
 11
-47.49192966103658
 21
-23.938907584748826
  0
LINE
  8
0
 10
-47.49192966103658
 20
-23.938907584748826
 11
-47.97854425325046
 21
-24.36501602335971
  0
LINE
  8
0
 10
-47.97854425325046
 20
-24.36501602335971
 11
-48.53225976397847
 21
-24.899695530347504
  0
LINE
  8
0
 10
-48.53225976397847
 20
-24.899695530347504
 11
-49.14344852583041
 21
-25.55028823197222
  0
LINE
  8
0
 10
-49.14344852583041
 20
-25.55028823197222
 11
-49.80193719531932
 21
-26.3234463057135
  0
LINE
  8
0
 10
-49.80193719531932
 20
-26.3234463057135
 11
-50.40405130304091
 21
-27.104463757277607
  0
LINE
  8
0
 10
-50.40405130304091
 20
-27.104463757277607
 11
-49.96475061352156
 21
-28.04157709795124
  0
LINE
  8
0
 10
-49.96475061352156
 20
-28.04157709795124
 11
-49.39368659305257
 21
-28.904741273300623
  0
LINE
  8
0
 10
-49.39368659305257
 20
-28.904741273300623
 11
-48.413349965693534
 21
-28.797644329282722
  0
LINE
  8
0
 10
-48.413349965693534
 20
-28.797644329282722
 11
-47.41035426551721
 21
-28.63833218198234
  0
LINE
  8
0
 10
-47.41035426551721
 20
-28.63833218198234
 11
-46.53661994993391
 21
-28.455545662273995
  0
LINE
  8
0
 10
-46.53661994993391
 20
-28.455545662273995
 11
-45.791768471227
 21
-28.261434053446035
  0
LINE
  8
0
 10
-45.791768471227
 20
-28.261434053446035
 11
-45.17454808149584
 21
-28.068040275601422
  0
LINE
  8
0
 10
-45.17454808149584
 20
-28.068040275601422
 11
-44.56937293877285
 21
-27.845522518060868
  0
LINE
  8
0
 10
-44.56937293877285
 20
-27.845522518060868
 11
-44.294331355247294
 21
-27.7922418074313
  0
LINE
  8
0
 10
-44.294331355247294
 20
-27.7922418074313
 11
-44.12355782354875
 21
-27.82669093761451
  0
LINE
  8
0
 10
-44.12355782354875
 20
-27.82669093761451
 11
-42.86712055540053
 21
-29.725797867075876
  0
LINE
  8
0
 10
-42.86712055540053
 20
-29.725797867075876
 11
-42.902205764294024
 21
-29.896441852658462
  0
LINE
  8
0
 10
-42.902205764294024
 20
-29.896441852658462
 11
-43.05881252462319
 21
-30.12873698694491
  0
LINE
  8
0
 10
-43.05881252462319
 20
-30.12873698694491
 11
-43.50029274859638
 21
-30.59867987456982
  0
LINE
  8
0
 10
-43.50029274859638
 20
-30.59867987456982
 11
-43.91967978196828
 21
-31.091099085253575
  0
LINE
  8
0
 10
-43.91967978196828
 20
-31.091099085253575
 11
-44.389644589725954
 21
-31.700702334492593
  0
LINE
  8
0
 10
-44.389644589725954
 20
-31.700702334492593
 11
-44.899593080829774
 21
-32.43335170659523
  0
LINE
  8
0
 10
-44.899593080829774
 20
-32.43335170659523
 11
-45.43849176056076
 21
-33.29414723854275
  0
LINE
  8
0
 10
-45.43849176056076
 20
-33.29414723854275
 11
-45.92047230689038
 21
-34.15451019179257
  0
LINE
  8
0
 10
-45.92047230689038
 20
-34.15451019179257
 11
-45.34940828642143
 21
-35.01767436714197
  0
LINE
  8
0
 10
-45.34940828642143
 20
-35.01767436714197
 11
-44.6587521731463
 21
-35.78849253135222
  0
LINE
  8
0
 10
-44.6587521731463
 20
-35.78849253135222
 11
-43.70445607249735
 21
-35.539798722330104
  0
LINE
  8
0
 10
-43.70445607249735
 20
-35.539798722330104
 11
-42.73534496300137
 21
-35.23614696076581
  0
LINE
  8
0
 10
-42.73534496300137
 20
-35.23614696076581
 11
-41.89753564313513
 21
-34.928091593079756
  0
LINE
  8
0
 10
-41.89753564313513
 20
-34.928091593079756
 11
-41.18888464939178
 21
-34.62759731513055
  0
LINE
  8
0
 10
-41.18888464939178
 20
-34.62759731513055
 11
-40.60640011005738
 21
-34.34639645409828
  0
LINE
  8
0
 10
-40.60640011005738
 20
-34.34639645409828
 11
-40.040072941420156
 21
-34.03813577893192
  0
LINE
  8
0
 10
-40.040072941420156
 20
-34.03813577893192
 11
-39.775720108499684
 21
-33.945376485487216
  0
LINE
  8
0
 10
-39.775720108499684
 20
-33.945376485487216
 11
-39.601750613888846
 21
-33.9545936783364
  0
LINE
  8
0
 10
-39.601750613888846
 20
-33.9545936783364
 11
-38.082190548660776
 21
-35.650523790836324
  0
LINE
  8
0
 10
-38.082190548660776
 20
-35.650523790836324
 11
-38.0920559038293
 21
-35.82445773365948
  0
LINE
  8
0
 10
-38.0920559038293
 20
-35.82445773365948
 11
-38.21317132074543
 21
-36.077079511381015
  0
LINE
  8
0
 10
-38.21317132074543
 20
-36.077079511381015
 11
-38.58152261926267
 21
-36.606294426769196
  0
LINE
  8
0
 10
-38.58152261926267
 20
-36.606294426769196
 11
-38.92474358729515
 21
-37.15452934896381
  0
LINE
  8
0
 10
-38.92474358729515
 20
-37.15452934896381
 11
-39.30094120813464
 21
-37.826063705559356
  0
LINE
  8
0
 10
-39.30094120813464
 20
-37.826063705559356
 11
-39.69878076174966
 21
-38.62515459876292
  0
LINE
  8
0
 10
-39.69878076174966
 20
-38.62515459876292
 11
-40.106603761973304
 21
-39.555241226623565
  0
LINE
  8
0
 10
-40.106603761973304
 20
-39.555241226623565
 11
-40.45817816835666
 21
-40.47661253892997
  0
LINE
  8
0
 10
-40.45817816835666
 20
-40.47661253892997
 11
-39.767522055081486
 21
-41.24743070314022
  0
LINE
  8
0
 10
-39.767522055081486
 20
-41.24743070314022
 11
-38.97199398497175
 21
-41.90947420529722
  0
LINE
  8
0
 10
-38.97199398497175
 20
-41.90947420529722
 11
-38.0640775756169
 21
-41.52448400804043
  0
LINE
  8
0
 10
-38.0640775756169
 20
-41.52448400804043
 11
-37.14950597757769
 21
-41.08296444232488
  0
LINE
  8
0
 10
-37.14950597757769
 20
-41.08296444232488
 11
-36.36547810451864
 21
-40.656205891992954
  0
LINE
  8
0
 10
-36.36547810451864
 20
-40.656205891992954
 11
-35.70813126134591
 21
-40.25573345875379
  0
LINE
  8
0
 10
-35.70813126134591
 20
-40.25573345875379
 11
-35.17279721908352
 21
-39.892718822679825
  0
LINE
  8
0
 10
-35.17279721908352
 20
-39.892718822679825
 11
-34.65738830490254
 21
-39.50528527099199
  0
LINE
  8
0
 10
-34.65738830490254
 20
-39.50528527099199
 11
-34.409358444264626
 21
-39.37502439802787
  0
LINE
  8
0
 10
-34.409358444264626
 20
-39.37502439802787
 11
-34.23590084448193
 21
-39.35881320507987
  0
LINE
  8
0
 10
-34.23590084448193
 20
-39.35881320507987
 11
-32.48560476677981
 21
-40.81542069465985
  0
LINE
  8
0
 10
-32.48560476677981
 20
-40.81542069465985
 11
-32.47004000530569
 21
-40.98893749470775
  0
LINE
  8
0
 10
-32.47004000530569
 20
-40.98893749470775
 11
-32.55308271397177
 21
-41.2565017212616
  0
LINE
  8
0
 10
-32.55308271397177
 20
-41.2565017212616
 11
-32.84045431861835
 21
-41.83370936728814
  0
LINE
  8
0
 10
-32.84045431861835
 20
-41.83370936728814
 11
-33.100194062260954
 21
-42.42607532544523
  0
LINE
  8
0
 10
-33.100194062260954
 20
-42.42607532544523
 11
-33.37460649702966
 21
-43.145228200470974
  0
LINE
  8
0
 10
-33.37460649702966
 20
-43.145228200470974
 11
-33.65185785377979
 21
-43.993729379728656
  0
LINE
  8
0
 10
-33.65185785377979
 20
-43.993729379728656
 11
-33.919913135288326
 21
-44.973283921799684
  0
LINE
  8
0
 10
-33.919913135288326
 20
-44.973283921799684
 11
-34.133588203639256
 21
-45.936026163279806
  0
LINE
  8
0
 10
-34.133588203639256
 20
-45.936026163279806
 11
-33.33806013352964
 21
-46.598069665436796
  0
LINE
  8
0
 10
-33.33806013352964
 20
-46.598069665436796
 11
-32.454615406243626
 21
-47.137228197699166
  0
LINE
  8
0
 10
-32.454615406243626
 20
-47.137228197699166
 11
-31.612429350168924
 21
-46.624147009861375
  0
LINE
  8
0
 10
-31.612429350168924
 20
-46.624147009861375
 11
-30.771889769365014
 21
-46.05416986299352
  0
LINE
  8
0
 10
-30.771889769365014
 20
-46.05416986299352
 11
-30.05835353603723
 21
-45.51780374759908
  0
LINE
  8
0
 10
-30.05835353603723
 20
-45.51780374759908
 11
-29.466321050144487
 21
-45.02588853370415
  0
LINE
  8
0
 10
-29.466321050144487
 20
-45.02588853370415
 11
-28.989547220644617
 21
-44.58879714930847
  0
LINE
  8
0
 10
-28.989547220644617
 20
-44.58879714930847
 11
-28.536041607098337
 21
-44.13044819461054
  0
LINE
  8
0
 10
-28.536041607098337
 20
-44.13044819461054
 11
-28.30962104460538
 21
-43.96546202648179
  0
LINE
  8
0
 10
-28.30962104460538
 20
-43.96546202648179
 11
-28.14037228724175
 21
-43.92416796116922
  0
LINE
  8
0
 10
-28.14037228724175
 20
-43.92416796116922
 11
-26.19664471918488
 21
-45.11040776807828
  0
LINE
  8
0
 10
-26.19664471918488
 20
-45.11040776807828
 11
-26.155981576936174
 21
-45.27980921600914
  0
LINE
  8
0
 10
-26.155981576936174
 20
-45.27980921600914
 11
-26.199181666191595
 21
-45.556613224438
  0
LINE
  8
0
 10
-26.199181666191595
 20
-45.556613224438
 11
-26.39944875013476
 21
-46.169511422247034
  0
LINE
  8
0
 10
-26.39944875013476
 20
-46.169511422247034
 11
-26.57017136769896
 21
-46.79338316440476
  0
LINE
  8
0
 10
-26.57017136769896
 20
-46.79338316440476
 11
-26.736949991770988
 21
-47.54482706288695
  0
LINE
  8
0
 10
-26.736949991770988
 20
-47.54482706288695
 11
-26.88770402033711
 21
-48.42465419868838
  0
LINE
  8
0
 10
-26.88770402033711
 20
-48.42465419868838
 11
-27.01027845018942
 21
-49.43279915055938
  0
LINE
  8
0
 10
-27.01027845018942
 20
-49.43279915055938
 11
-27.081500067398107
 21
-50.41639314180129
  0
LINE
  8
0
 10
-27.081500067398107
 20
-50.41639314180129
 11
-26.19805534011205
 21
-50.95555167406364
  0
LINE
  8
0
 10
-26.19805534011205
 20
-50.95555167406364
 11
-25.245523046219
 21
-51.360334008376334
  0
LINE
  8
0
 10
-25.245523046219
 20
-51.360334008376334
 11
-24.487017077048204
 21
-50.730097264690286
  0
LINE
  8
0
 10
-24.487017077048204
 20
-50.730097264690286
 11
-23.73842415534145
 21
-50.04381060998965
  0
LINE
  8
0
 10
-23.73842415534145
 20
-50.04381060998965
 11
-23.11058734775223
 21
-49.4092686420702
  0
LINE
  8
0
 10
-23.11058734775223
 20
-49.4092686420702
 11
-22.59648736371894
 21
-48.836394966264955
  0
LINE
  8
0
 10
-22.59648736371894
 20
-48.836394966264955
 11
-22.188435353406394
 21
-48.33454267754965
  0
LINE
  8
0
 10
-22.188435353406394
 20
-48.33454267754965
 11
-21.806498725293682
 21
-47.81504723204838
  0
LINE
  8
0
 10
-21.806498725293682
 20
-47.81504723204838
 11
-21.60651322213511
 21
-47.61885216248787
  0
LINE
  8
0
 10
-21.60651322213511
 20
-47.61885216248787
 11
-21.445080550612484
 21
-47.553355336120184
  0
LINE
  8
0
 10
-21.445080550612484
 20
-47.553355336120184
 11
-19.34934867071095
 21
-48.443944818364564
  0
LINE
  8
0
 10
-19.34934867071095
 20
-48.443944818364564
 11
-19.284453811967364
 21
-48.6056204164221
  0
LINE
  8
0
 10
-19.284453811967364
 20
-48.6056204164221
 11
-19.2868905469115
 21
-48.88576460985964
  0
LINE
  8
0
 10
-19.2868905469115
 20
-48.88576460985964
 11
-19.39578476495073
 21
-49.521290498448195
  0
LINE
  8
0
 10
-19.39578476495073
 20
-49.521290498448195
 11
-19.47385160024326
 21
-50.16337128155753
  0
LINE
  8
0
 10
-19.47385160024326
 20
-50.16337128155753
 11
-19.52944181679926
 21
-50.93109048141953
  0
LINE
  8
0
 10
-19.52944181679926
 20
-50.93109048141953
 11
-19.55048545679413
 21
-51.82349158587717
  0
LINE
  8
0
 10
-19.55048545679413
 20
-51.82349158587717
 11
-19.52496657382553
 21
-52.8387400881901
  0
LINE
  8
0
 10
-19.52496657382553
 20
-52.8387400881901
 11
-19.452216774772587
 21
-53.8222222309374
  0
LINE
  8
0
 10
-19.452216774772587
 20
-53.8222222309374
 11
-18.499684480879562
 21
-54.22700456525007
  0
LINE
  8
0
 10
-18.499684480879562
 20
-54.22700456525007
 11
-17.49836619248464
 21
-54.488783468920055
  0
LINE
  8
0
 10
-17.49836619248464
 20
-54.488783468920055
 11
-16.83970654807034
 21
-53.754823571391846
  0
LINE
  8
0
 10
-16.83970654807034
 20
-53.754823571391846
 11
-16.199015243917152
 21
-52.96685441740666
  0
LINE
  8
0
 10
-16.199015243917152
 20
-52.96685441740666
 11
-15.67025911360125
 21
-52.24766075734821
  0
LINE
  8
0
 10
-15.67025911360125
 20
-52.24766075734821
 11
-15.245048780032285
 21
-51.60603842743768
  0
LINE
  8
0
 10
-15.245048780032285
 20
-51.60603842743768
 11
-14.91441550906728
 21
-51.05012134464576
  0
LINE
  8
0
 10
-14.91441550906728
 20
-51.05012134464576
 11
-14.612188182517006
 21
-50.48055155183987
  0
LINE
  8
0
 10
-14.612188182517006
 20
-50.48055155183987
 11
-14.442900082487764
 21
-50.25732913813119
  0
LINE
  8
0
 10
-14.442900082487764
 20
-50.25732913813119
 11
-14.29272415392828
 21
-50.16902550185007
  0
LINE
  8
0
 10
-14.29272415392828
 20
-50.16902550185007
 11
-12.089654848696817
 21
-50.74498329081286
  0
LINE
  8
0
 10
-12.089654848696817
 20
-50.74498329081286
 11
-12.001911394705251
 21
-50.89548720431759
  0
LINE
  8
0
 10
-12.001911394705251
 20
-50.89548720431759
 11
-11.9635328405633
 21
-51.1730007956531
  0
LINE
  8
0
 10
-11.9635328405633
 20
-51.1730007956531
 11
-11.978733301497819
 21
-51.81760924407433
  0
LINE
  8
0
 10
-11.978733301497819
 20
-51.81760924407433
 11
-11.96248049546017
 21
-52.464214230992
  0
LINE
  8
0
 10
-11.96248049546017
 20
-52.464214230992
 11
-11.905697495547217
 21
-53.23184613036459
  0
LINE
  8
0
 10
-11.905697495547217
 20
-53.23184613036459
 11
-11.796582238319257
 21
-54.11780122327931
  0
LINE
  8
0
 10
-11.796582238319257
 20
-54.11780122327931
 11
-11.623513933215612
 21
-55.118515016831275
  0
LINE
  8
0
 10
-11.623513933215612
 20
-55.118515016831275
 11
-11.408343253563238
 21
-56.08092409668394
  0
LINE
  8
0
 10
-11.408343253563238
 20
-56.08092409668394
 11
-10.407024965168368
 21
-56.342703000354014
  0
LINE
  8
0
 10
-10.407024965168368
 20
-56.342703000354014
 11
-9.378262043149821
 21
-56.455899110537324
  0
LINE
  8
0
 10
-9.378262043149821
 20
-56.455899110537324
 11
-8.833486910280591
 21
-55.63385914011798
  0
LINE
  8
0
 10
-8.833486910280591
 20
-55.63385914011798
 11
-8.314352446492649
 21
-54.761001681332615
  0
LINE
  8
0
 10
-8.314352446492649
 20
-54.761001681332615
 11
-7.895946512367674
 21
-53.97248469337108
  0
LINE
  8
0
 10
-7.895946512367674
 20
-53.97248469337108
 11
-7.568688449294038
 21
-53.27578877536457
  0
LINE
  8
0
 10
-7.568688449294038
 20
-53.27578877536457
 11
-7.3225207918181745
 21
-52.677655305960165
  0
LINE
  8
0
 10
-7.3225207918181745
 20
-52.677655305960165
 11
-7.106444217583709
 21
-52.0701505571246
  0
LINE
  8
0
 10
-7.106444217583709
 20
-52.0701505571246
 11
-6.9714616026263565
 21
-51.824658397468305
  0
LINE
  8
0
 10
-6.9714616026263565
 20
-51.824658397468305
 11
-6.835743156219285
 21
-51.71542998997271
  0
LINE
  8
0
 10
-6.835743156219285
 20
-51.71542998997271
 11
-4.572291023039645
 21
-51.964480545331405
  0
LINE
  8
0
 10
-4.572291023039645
 20
-51.964480545331405
 11
-4.463569073186107
 21
-52.100605044664384
  0
LINE
  8
0
 10
-4.463569073186107
 20
-52.100605044664384
 11
-4.3851932022086695
 21
-52.36957331350383
  0
LINE
  8
0
 10
-4.3851932022086695
 20
-52.36957331350383
 11
-4.306375934603941
 21
-53.009525611816734
  0
LINE
  8
0
 10
-4.306375934603941
 20
-53.009525611816734
 11
-4.196149887579491
 21
-53.64687353984997
  0
LINE
  8
0
 10
-4.196149887579491
 20
-53.64687353984997
 11
-4.028203902256915
 21
-54.39805739752232
  0
LINE
  8
0
 10
-4.028203902256915
 20
-54.39805739752232
 11
-3.791255350073465
 21
-55.25868388423977
  0
LINE
  8
0
 10
-3.791255350073465
 20
-55.25868388423977
 11
-3.474326273285481
 21
-56.22353449191068
  0
LINE
  8
0
 10
-3.474326273285481
 20
-56.22353449191068
 11
-3.1213207025018708
 21
-57.1443584302185
  0
LINE
  8
0
 10
-3.1213207025018708
 20
-57.1443584302185
 11
-2.092557780483287
 21
-57.257554540401756
  0
LINE
  8
0
 10
-2.092557780483287
 20
-57.257554540401756
 11
-1.058276520436912
 21
-57.219755278535075
  0
LINE
  8
0
 10
-1.058276520436912
 20
-57.219755278535075
 11
-0.6389968352584089
 21
-56.327155590009305
  0
LINE
  8
0
 10
-0.6389968352584089
 20
-56.327155590009305
 11
-0.2524836616359371
 21
-55.3880132677461
  0
LINE
  8
0
 10
-0.2524836616359371
 20
-55.3880132677461
 11
0.04665448022778907
 21
-54.546978822495944
  0
LINE
  8
0
 10
0.04665448022778907
 20
-54.546978822495944
 11
0.2689853353608373
 21
-53.81005818031699
  0
LINE
  8
0
 10
0.2689853353608373
 20
-53.81005818031699
 11
0.42544074311249663
 21
-53.18245650075091
  0
LINE
  8
0
 10
0.42544074311249663
 20
-53.18245650075091
 11
0.5507612679927348
 21
-52.549964704887586
  0
LINE
  8
0
 10
0.5507612679927348
 20
-52.549964704887586
 11
0.6485614777904823
 21
-52.28743503845548
  0
LINE
  8
0
 10
0.6485614777904823
 20
-52.28743503845548
 11
0.7669298389875824
 21
-52.159609873614265
  0
LINE
  8
0
 10
0.7669298389875824
 20
-52.159609873614265
 11
3.0425232475895974
 21
-52.07644511517056
  0
LINE
  8
0
 10
3.0425232475895974
 20
-52.07644511517056
 11
3.1699064737016154
 21
-52.195288942961085
  0
LINE
  8
0
 10
3.1699064737016154
 20
-52.195288942961085
 11
3.2866092158969376
 21
-52.44997929762347
  0
LINE
  8
0
 10
3.2866092158969376
 20
-52.44997929762347
 11
3.4577643588205382
 21
-53.07163597364284
  0
LINE
  8
0
 10
3.4577643588205382
 20
-53.07163597364284
 11
3.659614370008437
 21
-53.68614287823736
  0
LINE
  8
0
 10
3.659614370008437
 20
-53.68614287823736
 11
3.935143863642949
 21
-54.4048685144512
  0
LINE
  8
0
 10
3.935143863642949
 20
-54.4048685144512
 11
4.294875563770381
 21
-55.22182363558386
  0
LINE
  8
0
 10
4.294875563770381
 20
-55.22182363558386
 11
4.748910619207455
 21
-56.13024694179681
  0
LINE
  8
0
 10
4.748910619207455
 20
-56.13024694179681
 11
5.232227380251752
 21
-56.98985997500337
  0
LINE
  8
0
 10
5.232227380251752
 20
-56.98985997500337
 11
6.266508640298104
 21
-56.95206071313669
  0
LINE
  8
0
 10
6.266508640298104
 20
-56.95206071313669
 11
7.2842643289820455
 21
-56.76407170486161
  0
LINE
  8
0
 10
7.2842643289820455
 20
-56.76407170486161
 11
7.569112347912762
 21
-55.81993651090318
  0
LINE
  8
0
 10
7.569112347912762
 20
-55.81993651090318
 11
7.814766374118932
 21
-54.83452551326903
  0
LINE
  8
0
 10
7.814766374118932
 20
-54.83452551326903
 11
7.988261113576337
 21
-53.95889879976862
  0
LINE
  8
0
 10
7.988261113576337
 20
-53.95889879976862
 11
8.100926164591401
 21
-53.19745961750032
  0
LINE
  8
0
 10
8.100926164591401
 20
-53.19745961750032
 11
8.16433474723272
 21
-52.553765967961716
  0
LINE
  8
0
 10
8.16433474723272
 20
-52.553765967961716
 11
8.196228233346165
 21
-51.909767589598694
  0
LINE
  8
0
 10
8.196228233346165
 20
-51.909767589598694
 11
8.254761596308324
 21
-51.63579578043984
  0
LINE
  8
0
 10
8.254761596308324
 20
-51.63579578043984
 11
8.353257056181794
 21
-51.4920982297179
  0
LINE
  8
0
 10
8.353257056181794
 20
-51.4920982297179
 11
10.59249141747383
 21
-51.07849066991152
  0
LINE
  8
0
 10
10.59249141747383
 20
-51.07849066991152
 11
10.735820967536165
 21
-51.177520876300974
  0
LINE
  8
0
 10
10.735820967536165
 20
-51.177520876300974
 11
10.888363264612973
 21
-51.41250503405739
  0
LINE
  8
0
 10
10.888363264612973
 20
-51.41250503405739
 11
11.148208408135067
 21
-52.00261655502324
  0
LINE
  8
0
 10
11.148208408135067
 20
-52.00261655502324
 11
11.437380300939887
 21
-52.581185288383914
  0
LINE
  8
0
 10
11.437380300939887
 20
-52.581185288383914
 11
11.814620870090103
 21
-53.25213431401902
  0
LINE
  8
0
 10
11.814620870090103
 20
-53.25213431401902
 11
12.289468661521571
 21
-54.00800608951677
  0
LINE
  8
0
 10
12.289468661521571
 20
-54.00800608951677
 11
12.870932726674152
 21
-54.840640628659145
  0
LINE
  8
0
 10
12.870932726674152
 20
-54.840640628659145
 11
13.474259620327977
 21
-55.62072159737905
  0
LINE
  8
0
 10
13.474259620327977
 20
-55.62072159737905
 11
14.492015309011844
 21
-55.43273258910395
  0
LINE
  8
0
 10
14.492015309011844
 20
-55.43273258910395
 11
15.471553730805807
 21
-55.098560493754604
  0
LINE
  8
0
 10
15.471553730805807
 20
-55.098560493754604
 11
15.615899042504195
 21
-54.123012396862244
  0
LINE
  8
0
 10
15.615899042504195
 20
-54.123012396862244
 11
15.71545823221777
 21
-53.11233504845019
  0
LINE
  8
0
 10
15.71545823221777
 20
-53.11233504845019
 11
15.75961183011025
 21
-52.22077852987828
  0
LINE
  8
0
 10
15.75961183011025
 20
-52.22077852987828
 11
15.760209817048395
 21
-51.45104956171789
  0
LINE
  8
0
 10
15.760209817048395
 20
-51.45104956171789
 11
15.729220130727203
 21
-50.80498315479781
  0
LINE
  8
0
 10
15.729220130727203
 20
-50.80498315479781
 11
15.66700682378923
 21
-50.16320390129197
  0
LINE
  8
0
 10
15.66700682378923
 20
-50.16320390129197
 11
15.685025802906972
 21
-49.883629182862364
  0
LINE
  8
0
 10
15.685025802906972
 20
-49.883629182862364
 11
15.761549101732523
 21
-49.7271219100728
  0
LINE
  8
0
 10
15.761549101732523
 20
-49.7271219100728
 11
17.91669902295087
 21
-48.99188687595617
  0
LINE
  8
0
 10
17.91669902295087
 20
-48.99188687595617
 11
18.072920076445573
 21
-49.06899280402668
  0
LINE
  8
0
 10
18.072920076445573
 20
-49.06899280402668
 11
18.25805075417802
 21
-49.27926248552234
  0
LINE
  8
0
 10
18.25805075417802
 20
-49.27926248552234
 11
18.601047750194635
 21
-49.82525164888753
  0
LINE
  8
0
 10
18.601047750194635
 20
-49.82525164888753
 11
18.971378327767084
 21
-50.35555102294501
  0
LINE
  8
0
 10
18.971378327767084
 20
-50.35555102294501
 11
19.442289744647866
 21
-50.964423324388264
  0
LINE
  8
0
 10
19.442289744647866
 20
-50.964423324388264
 11
20.022133071116105
 21
-51.643101659663316
  0
LINE
  8
0
 10
20.022133071116105
 20
-51.643101659663316
 11
20.718633248944432
 21
-52.38220127211194
  0
LINE
  8
0
 10
20.718633248944432
 20
-52.38220127211194
 11
21.42911140993567
 21
-53.066124104834635
  0
LINE
  8
0
 10
21.42911140993567
 20
-53.066124104834635
 11
22.408649831729672
 21
-52.7319520094853
  0
LINE
  8
0
 10
22.408649831729672
 20
-52.7319520094853
 11
23.329093825799003
 21
-52.25871912510123
  0
LINE
  8
0
 10
23.329093825799003
 20
-52.25871912510123
 11
23.329859960551314
 21
-51.27255023926206
  0
LINE
  8
0
 10
23.329859960551314
 20
-51.27255023926206
 11
23.281202382493255
 21
-50.25814737306581
  0
LINE
  8
0
 10
23.281202382493255
 20
-50.25814737306581
 11
23.19507378153901
 21
-49.36966302873971
  0
LINE
  8
0
 10
23.19507378153901
 20
-49.36966302873971
 11
23.083591959346844
 21
-48.60804971127844
  0
LINE
  8
0
 10
23.083591959346844
 20
-48.60804971127844
 11
22.958864495424322
 21
-47.97338033077206
  0
LINE
  8
0
 10
22.958864495424322
 20
-47.97338033077206
 11
22.803870364060668
 21
-47.34749861268669
  0
LINE
  8
0
 10
22.803870364060668
 20
-47.34749861268669
 11
22.780990916077755
 21
-47.06827963472596
  0
LINE
  8
0
 10
22.780990916077755
 20
-47.06827963472596
 11
22.833911092596868
 21
-46.902298320668145
  0
LINE
  8
0
 10
22.833911092596868
 20
-46.902298320668145
 11
24.859043294834763
 21
-45.86110607051498
  0
LINE
  8
0
 10
24.859043294834763
 20
-45.86110607051498
 11
25.024826271229816
 21
-45.914644341277196
  0
LINE
  8
0
 10
25.024826271229816
 20
-45.914644341277196
 11
25.238599590636692
 21
-46.09571801331077
  0
LINE
  8
0
 10
25.238599590636692
 20
-46.09571801331077
 11
25.657438053672045
 21
-46.585948007977386
  0
LINE
  8
0
 10
25.657438053672045
 20
-46.585948007977386
 11
26.101034362700684
 21
-47.056675612253
  0
LINE
  8
0
 10
26.101034362700684
 20
-47.056675612253
 11
26.65557996803418
 21
-47.59049413349294
  0
LINE
  8
0
 10
26.65557996803418
 20
-47.59049413349294
 11
27.32806047573064
 21
-48.17751417811643
  0
LINE
  8
0
 10
27.32806047573064
 20
-48.17751417811643
 11
28.12475207417324
 21
-48.807326238819925
  0
LINE
  8
0
 10
28.12475207417324
 20
-48.807326238819925
 11
28.927238893997202
 21
-49.38051430775878
  0
LINE
  8
0
 10
28.927238893997202
 20
-49.38051430775878
 11
29.847682888066533
 21
-48.90728142337464
  0
LINE
  8
0
 10
29.847682888066533
 20
-48.90728142337464
 11
30.68941478870664
 21
-48.305073887282994
  0
LINE
  8
0
 10
30.68941478870664
 20
-48.305073887282994
 11
30.546585417680785
 21
-47.3293026901614
  0
LINE
  8
0
 10
30.546585417680785
 20
-47.3293026901614
 11
30.350748123650536
 21
-46.332794542118165
  0
LINE
  8
0
 10
30.350748123650536
 20
-46.332794542118165
 11
30.136173005446715
 21
-45.466318873294895
  0
LINE
  8
0
 10
30.136173005446715
 20
-45.466318873294895
 11
29.914987415615077
 21
-44.72905367211931
  0
LINE
  8
0
 10
29.914987415615077
 20
-44.72905367211931
 11
29.69918052343912
 21
-44.11930819399073
  0
LINE
  8
0
 10
29.69918052343912
 20
-44.11930819399073
 11
29.454708998466703
 21
-43.52266359352213
  0
LINE
  8
0
 10
29.454708998466703
 20
-43.52266359352213
 11
29.39141875909473
 21
-43.24975142377942
  0
LINE
  8
0
 10
29.39141875909473
 20
-43.24975142377942
 11
29.41960791162227
 21
-43.077833671994
  0
LINE
  8
0
 10
29.41960791162227
 20
-43.077833671994
 11
31.271560217922737
 21
-41.75287541095017
  0
LINE
  8
0
 10
31.271560217922737
 20
-41.75287541095017
 11
31.443371740900425
 21
-41.78170494911327
  0
LINE
  8
0
 10
31.443371740900425
 20
-41.78170494911327
 11
31.681231494821173
 21
-41.92972334073646
  0
LINE
  8
0
 10
31.681231494821173
 20
-41.92972334073646
 11
32.16698461020216
 21
-42.353745765481094
  0
LINE
  8
0
 10
32.16698461020216
 20
-42.353745765481094
 11
32.67439216550987
 21
-42.754868858343556
  0
LINE
  8
0
 10
32.67439216550987
 20
-42.754868858343556
 11
33.300752782492864
 21
-43.20225618438907
  0
LINE
  8
0
 10
33.300752782492864
 20
-43.20225618438907
 11
34.05153771692318
 21
-43.68510662526485
  0
LINE
  8
0
 10
34.05153771692318
 20
-43.68510662526485
 11
34.93144063773554
 21
-44.19220778359765
  0
LINE
  8
0
 10
34.93144063773554
 20
-44.19220778359765
 11
35.80883250306533
 21
-44.642444580203765
  0
LINE
  8
0
 10
35.80883250306533
 20
-44.642444580203765
 11
36.65056440370541
 21
-44.040237044112125
  0
LINE
  8
0
 10
36.65056440370541
 20
-44.040237044112125
 11
37.395644156827174
 21
-43.32188986442196
  0
LINE
  8
0
 10
37.395644156827174
 20
-43.32188986442196
 11
37.11226344009335
 21
-42.37731322499927
  0
LINE
  8
0
 10
37.11226344009335
 20
-42.37731322499927
 11
36.77342036201021
 21
-41.419938636196754
  0
LINE
  8
0
 10
36.77342036201021
 20
-41.419938636196754
 11
36.434972022666685
 21
-40.59393906742536
  0
LINE
  8
0
 10
36.434972022666685
 20
-40.59393906742536
 11
36.10879685203143
 21
-39.89673551029537
  0
LINE
  8
0
 10
36.10879685203143
 20
-39.89673551029537
 11
35.80651008083559
 21
-39.324909600801156
  0
LINE
  8
0
 10
35.80651008083559
 20
-39.324909600801156
 11
35.4777716483699
 21
-38.77021856174367
  0
LINE
  8
0
 10
35.4777716483699
 20
-38.77021856174367
 11
35.375419539179724
 21
-38.5094298493005
  0
LINE
  8
0
 10
35.375419539179724
 20
-38.5094298493005
 11
35.378276864870166
 21
-38.33523978819176
  0
LINE
  8
0
 10
35.378276864870166
 20
-38.33523978819176
 11
37.01757812709182
 21
-36.75475470126482
  0
LINE
  8
0
 10
37.01757812709182
 20
-36.75475470126482
 11
37.19175633233048
 21
-36.75826105527527
  0
LINE
  8
0
 10
37.19175633233048
 20
-36.75826105527527
 11
37.44863295307055
 21
-36.87006941145281
  0
LINE
  8
0
 10
37.44863295307055
 20
-36.87006941145281
 11
37.9909477364832
 21
-37.21884696445865
  0
LINE
  8
0
 10
37.9909477364832
 20
-37.21884696445865
 11
38.55135202696434
 21
-37.54181630359353
  0
LINE
  8
0
 10
38.55135202696434
 20
-37.54181630359353
 11
39.23617786650197
 21
-37.893237150321575
  0
LINE
  8
0
 10
39.23617786650197
 20
-37.893237150321575
 11
40.049265550264174
 21
-38.26162686860327
  0
LINE
  8
0
 10
40.049265550264174
 20
-38.26162686860327
 11
40.99362619033284
 21
-38.63520914377931
  0
LINE
  8
0
 10
40.99362619033284
 20
-38.63520914377931
 11
41.927223016843
 21
-38.95289865241169
  0
LINE
  8
0
 10
41.927223016843
 20
-38.95289865241169
 11
42.67230276996476
 21
-38.23455147272157
  0
LINE
  8
0
 10
42.67230276996476
 20
-38.23455147272157
 11
43.304850294200854
 21
-37.41537497240948
  0
LINE
  8
0
 10
43.304850294200854
 20
-37.41537497240948
 11
42.88695799974469
 21
-36.52212490182797
  0
LINE
  8
0
 10
42.88695799974469
 20
-36.52212490182797
 11
42.412330989535505
 21
-35.62428864948039
  0
LINE
  8
0
 10
42.412330989535505
 20
-35.62428864948039
 11
41.957222867808234
 21
-34.85636992750991
  0
LINE
  8
0
 10
41.957222867808234
 20
-34.85636992750991
 11
41.53300997384235
 21
-34.21408769779564
  0
LINE
  8
0
 10
41.53300997384235
 20
-34.21408769779564
 11
41.15068604133941
 21
-33.69236883342097
  0
LINE
  8
0
 10
41.15068604133941
 20
-33.69236883342097
 11
40.74468719032917
 21
-33.191453632245135
  0
LINE
  8
0
 10
40.74468719032917
 20
-33.191453632245135
 11
40.60545466882953
 21
-32.94834663573888
  0
LINE
  8
0
 10
40.60545466882953
 20
-32.94834663573888
 11
40.58291926874654
 21
-32.77559682403921
  0
LINE
  8
0
 10
40.58291926874654
 20
-32.77559682403921
 11
41.97463062655836
 21
-30.973270206897492
  0
LINE
  8
0
 10
41.97463062655836
 20
-30.973270206897492
 11
42.14746320801288
 21
-30.951378644907116
  0
LINE
  8
0
 10
42.14746320801288
 20
-30.951378644907116
 11
42.41788181637759
 21
-31.024593964643163
  0
LINE
  8
0
 10
42.41788181637759
 20
-31.024593964643163
 11
43.00519976975339
 21
-31.290693057898118
  0
LINE
  8
0
 10
43.00519976975339
 20
-31.290693057898118
 11
43.60665675090239
 21
-31.528625112565052
  0
LINE
  8
0
 10
43.60665675090239
 20
-31.528625112565052
 11
44.335351939185436
 21
-31.776589554747005
  0
LINE
  8
0
 10
44.335351939185436
 20
-31.776589554747005
 11
45.193412819942516
 21
-32.02266696316933
  0
LINE
  8
0
 10
45.193412819942516
 20
-32.02266696316933
 11
46.18210377177635
 21
-32.25476809758819
  0
LINE
  8
0
 10
46.18210377177635
 20
-32.25476809758819
 11
47.15200756397418
 21
-32.4331393179271
  0
LINE
  8
0
 10
47.15200756397418
 20
-32.4331393179271
 11
47.7845550882102
 21
-31.613962817614986
  0
LINE
  8
0
 10
47.7845550882102
 20
-31.613962817614986
 11
48.291088731278954
 21
-30.71141632157156
  0
LINE
  8
0
 10
48.291088731278954
 20
-30.71141632157156
 11
47.74759150783304
 21
-29.888530894269408
  0
LINE
  8
0
 10
47.74759150783304
 20
-29.888530894269408
 11
47.147296416196646
 21
-29.06936879931695
  0
LINE
  8
0
 10
47.147296416196646
 20
-29.06936879931695
 11
46.585228351564176
 21
-28.375897778483914
  0
LINE
  8
0
 10
46.585228351564176
 20
-28.375897778483914
 11
46.072019095605235
 21
-27.802226006813285
  0
LINE
  8
0
 10
46.072019095605235
 20
-27.802226006813285
 11
45.617806572644724
 21
-27.341733719369998
  0
LINE
  8
0
 10
45.617806572644724
 20
-27.341733719369998
 11
45.143200463724206
 21
-26.90527049392483
  0
LINE
  8
0
 10
45.143200463724206
 20
-26.90527049392483
 11
44.97005502938231
 21
-26.68502661691575
  0
LINE
  8
0
 10
44.97005502938231
 20
-26.68502661691575
 11
44.922607206453804
 21
-26.517398916941918
  0
LINE
  8
0
 10
44.922607206453804
 20
-26.517398916941918
 11
46.03706674848402
 21
-24.53164423232004
  0
LINE
  8
0
 10
46.03706674848402
 20
-24.53164423232004
 11
46.204870079744005
 21
-24.484821334965627
  0
LINE
  8
0
 10
46.204870079744005
 20
-24.484821334965627
 11
46.4830671725834
 21
-24.517883160832806
  0
LINE
  8
0
 10
46.4830671725834
 20
-24.517883160832806
 11
47.102870633418334
 21
-24.695632354152146
  0
LINE
  8
0
 10
47.102870633418334
 20
-24.695632354152146
 11
47.73256129390167
 21
-24.8434560156917
  0
LINE
  8
0
 10
47.73256129390167
 20
-24.8434560156917
 11
48.48959495811621
 21
-24.982679121745964
  0
LINE
  8
0
 10
48.48959495811621
 20
-24.982679121745964
 11
49.374340957917404
 21
-25.101199507575743
  0
LINE
  8
0
 10
49.374340957917404
 20
-25.101199507575743
 11
50.386289990394076
 21
-25.18687266851971
  0
LINE
  8
0
 10
50.386289990394076
 20
-25.18687266851971
 11
51.37182893284759
 21
-25.222123927682887
  0
LINE
  8
0
 10
51.37182893284759
 20
-25.222123927682887
 11
51.87836257591634
 21
-24.319577431639424
  0
LINE
  8
0
 10
51.87836257591634
 20
-24.319577431639424
 11
52.24808645263434
 21
-23.352897151471566
  0
LINE
  8
0
 10
52.24808645263434
 20
-23.352897151471566
 11
51.590567999923486
 21
-22.617914741678955
  0
LINE
  8
0
 10
51.590567999923486
 20
-22.617914741678955
 11
50.877399074535646
 21
-21.89488582198708
  0
LINE
  8
0
 10
50.877399074535646
 20
-21.89488582198708
 11
50.22035057196102
 21
-21.290642633130677
  0
LINE
  8
0
 10
50.22035057196102
 20
-21.290642633130677
 11
49.629083118291426
 21
-20.797808137336478
  0
LINE
  8
0
 10
49.629083118291426
 20
-20.797808137336478
 11
49.11266275621908
 21
-20.408357020447642
  0
LINE
  8
0
 10
49.11266275621908
 20
-20.408357020447642
 11
48.57956479461243
 21
-20.045648226617786
  0
LINE
  8
0
 10
48.57956479461243
 20
-20.045648226617786
 11
48.376196741754775
 21
-19.852961584967865
  0
LINE
  8
0
 10
48.376196741754775
 20
-19.852961584967865
 11
48.304847763949944
 21
-19.694028690117946
  0
LINE
  8
0
 10
48.304847763949944
 20
-19.694028690117946
 11
49.11830271992936
 21
-17.56716885155019
  0
LINE
  8
0
 10
49.11830271992936
 20
-17.56716885155019
 11
49.277500364320794
 21
-17.49641256759726
  0
LINE
  8
0
 10
49.277500364320794
 20
-17.49641256759726
 11
49.55754665359294
 21
-17.48861624417751
  0
LINE
  8
0
 10
49.55754665359294
 20
-17.48861624417751
 11
50.196625587191235
 21
-17.574227122104936
  0
LINE
  8
0
 10
50.196625587191235
 20
-17.574227122104936
 11
50.84112916381828
 21
-17.628791785815473
  0
LINE
  8
0
 10
50.84112916381828
 20
-17.628791785815473
 11
51.61036644573572
 21
-17.656306256948728
  0
LINE
  8
0
 10
51.61036644573572
 20
-17.656306256948728
 11
52.502940739647244
 21
-17.644743563931197
  0
LINE
  8
0
 10
52.502940739647244
 20
-17.644743563931197
 11
53.51657991603505
 21
-17.582162776716228
  0
LINE
  8
0
 10
53.51657991603505
 20
-17.582162776716228
 11
54.49674895722951
 21
-17.47354275531606
  0
LINE
  8
0
 10
54.49674895722951
 20
-17.47354275531606
 11
54.86647283394739
 21
-16.506862475148253
  0
LINE
  8
0
 10
54.86647283394739
 20
-16.506862475148253
 11
55.09150692177843
 21
-15.496651522725527
  0
LINE
  8
0
 10
55.09150692177843
 20
-15.496651522725527
 11
54.33398110407152
 21
-14.865237004467367
  0
LINE
  8
0
 10
54.33398110407152
 20
-14.865237004467367
 11
53.52313830240849
 21
-14.253751366172489
  0
LINE
  8
0
 10
53.52313830240849
 20
-14.253751366172489
 11
52.785113209989184
 21
-13.751614403806249
  0
LINE
  8
0
 10
52.785113209989184
 20
-13.751614403806249
 11
52.1283893978548
 21
-13.350121095531614
  0
LINE
  8
0
 10
52.1283893978548
 20
-13.350121095531614
 11
51.560767800104855
 21
-13.040011623608063
  0
LINE
  8
0
 10
51.560767800104855
 20
-13.040011623608063
 11
50.98054004332557
 21
-12.758787769617054
  0
LINE
  8
0
 10
50.98054004332557
 20
-12.758787769617054
 11
50.75128380892134
 21
-12.597765144560103
  0
LINE
  8
0
 10
50.75128380892134
 20
-12.597765144560103
 11
50.65755435582953
 21
-12.450914433556441
  0
LINE
  8
0
 10
50.65755435582953
 20
-12.450914433556441
 11
51.15266734565146
 21
-10.228279765953705
  0
LINE
  8
0
 10
51.15266734565146
 20
-10.228279765953705
 11
51.299866281775174
 21
-10.135098142751179
  0
LINE
  8
0
 10
51.299866281775174
 20
-10.135098142751179
 11
51.57579306702664
 21
-10.086609835142603
  0
LINE
  8
0
 10
51.57579306702664
 20
-10.086609835142603
 11
52.22052661545569
 21
-10.078257750448437
  0
LINE
  8
0
 10
52.22052661545569
 20
-10.078257750448437
 11
52.86610663344567
 21
-10.038400465255418
  0
LINE
  8
0
 10
52.86610663344567
 20
-10.038400465255418
 11
53.631152575913426
 21
-9.953619878284721
  0
LINE
  8
0
 10
53.631152575913426
 20
-9.953619878284721
 11
54.51253149250359
 21
-9.812220545146971
  0
LINE
  8
0
 10
54.51253149250359
 20
-9.812220545146971
 11
55.50625685358772
 21
-9.602719610602913
  0
LINE
  8
0
 10
55.50625685358772
 20
-9.602719610602913
 11
56.460165392130705
 21
-9.352543355814873
  0
LINE
  8
0
 10
0.3118675362266391
 20
-1.4672214011007085
 11
9.18454765366783e-17
 21
-1.5
  0
LINE
  8
0
 10
9.18454765366783e-17
 20
-1.5
 11
-0.3118675362266384
 21
-1.4672214011007085
  0
LINE
  8
0
 10
-0.3118675362266384
 20
-1.4672214011007085
 11
-0.6101049646137001
 21
-1.3703181864639014
  0
LINE
  8
0
 10
-0.6101049646137001
 20
-1.3703181864639014
 11
-0.8816778784387099
 21
-1.213525491562421
  0
LINE
  8
0
 10
-0.8816778784387099
 20
-1.213525491562421
 11
-1.114717238216091
 21
-1.0036959095382878
  0
LINE
  8
0
 10
-1.114717238216091
 20
-1.0036959095382878
 11
-1.299038105676658
 21
-0.7500000000000003
  0
LINE
  8
0
 10
-1.299038105676658
 20
-0.7500000000000003
 11
-1.4265847744427305
 21
-0.46352549156242095
  0
LINE
  8
0
 10
-1.4265847744427305
 20
-0.46352549156242095
 11
-1.49178284305241
 21
-0.15679269490147957
  0
LINE
  8
0
 10
-1.49178284305241
 20
-0.15679269490147957
 11
-1.4917828430524098
 21
0.15679269490148126
  0
LINE
  8
0
 10
-1.4917828430524098
 20
0.15679269490148126
 11
-1.4265847744427302
 21
0.46352549156242123
  0
LINE
  8
0
 10
-1.4265847744427302
 20
0.46352549156242123
 11
-1.2990381056766576
 21
0.7500000000000006
  0
LINE
  8
0
 10
-1.2990381056766576
 20
0.7500000000000006
 11
-1.114717238216091
 21
1.0036959095382878
  0
LINE
  8
0
 10
-1.114717238216091
 20
1.0036959095382878
 11
-0.8816778784387097
 21
1.2135254915624214
  0
LINE
  8
0
 10
-0.8816778784387097
 20
1.2135254915624214
 11
-0.6101049646137005
 21
1.3703181864639014
  0
LINE
  8
0
 10
-0.6101049646137005
 20
1.3703181864639014
 11
-0.3118675362266387
 21
1.4672214011007085
  0
LINE
  8
0
 10
-0.3118675362266387
 20
1.4672214011007085
 11
7.579792913117722e-16
 21
1.5
  0
LINE
  8
0
 10
7.579792913117722e-16
 20
1.5
 11
0.3118675362266389
 21
1.4672214011007085
  0
LINE
  8
0
 10
0.3118675362266389
 20
1.4672214011007085
 11
0.6101049646136999
 21
1.3703181864639014
  0
LINE
  8
0
 10
0.6101049646136999
 20
1.3703181864639014
 11
0.8816778784387097
 21
1.213525491562421
  0
LINE
  8
0
 10
0.8816778784387097
 20
1.213525491562421
 11
1.1147172382160917
 21
1.003695909538287
  0
LINE
  8
0
 10
1.1147172382160917
 20
1.003695909538287
 11
1.299038105676658
 21
0.7499999999999998
  0
LINE
  8
0
 10
1.299038105676658
 20
0.7499999999999998
 11
1.4265847744427305
 21
0.4635254915624211
  0
LINE
  8
0
 10
1.4265847744427305
 20
0.4635254915624211
 11
1.49178284305241
 21
0.1567926949014801
  0
LINE
  8
0
 10
1.49178284305241
 20
0.1567926949014801
 11
1.4917828430524098
 21
-0.1567926949014801
  0
LINE
  8
0
 10
1.4917828430524098
 20
-0.1567926949014801
 11
1.4265847744427302
 21
-0.46352549156242107
  0
LINE
  8
0
 10
1.4265847744427302
 20
-0.46352549156242107
 11
1.299038105676658
 21
-0.7500000000000001
  0
LINE
  8
0
 10
1.299038105676658
 20
-0.7500000000000001
 11
1.1147172382160913
 21
-1.0036959095382874
  0
LINE
  8
0
 10
1.1147172382160913
 20
-1.0036959095382874
 11
0.8816778784387098
 21
-1.2135254915624212
  0
LINE
  8
0
 10
0.8816778784387098
 20
-1.2135254915624212
 11
0.6101049646137003
 21
-1.3703181864639014
  0
LINE
  8
0
 10
0.6101049646137003
 20
-1.3703181864639014
 11
0.3118675362266391
 21
-1.4672214011007085
  0
ENDSEC
  0
SECTION
  2
OBJECTS
  0
DICTIONARY
  0
ENDSEC
  0
EOF
